<svg width="35" height="35" viewBox="0 0 35 35" fill="none" xmlns="http://www.w3.org/2000/svg">
<path d="M6.2125 16.0709V23.3188C6.2125 25.973 6.2125 25.973 8.72083 27.6647L15.6188 31.6459C16.6542 32.2438 18.3458 32.2438 19.3813 31.6459L26.2792 27.6647C28.7875 25.973 28.7875 25.973 28.7875 23.3188V16.0709C28.7875 13.4168 28.7875 13.4168 26.2792 11.7251L19.3813 7.74385C18.3458 7.14593 16.6542 7.14593 15.6188 7.74385L8.72083 11.7251C6.2125 13.4168 6.2125 13.4168 6.2125 16.0709Z" stroke="#417BD2" stroke-width="3" stroke-linecap="round" stroke-linejoin="round"/>
<path d="M25.5208 11.1272V7.29175C25.5208 4.37508 24.0625 2.91675 21.1458 2.91675H13.8542C10.9375 2.91675 9.47917 4.37508 9.47917 7.29175V11.0251" stroke="#417BD2" stroke-width="3" stroke-linecap="round" stroke-linejoin="round"/>
<path d="M18.4187 16.0271L19.25 17.3251C19.3812 17.5292 19.6729 17.7334 19.8917 17.7917L21.3792 18.1709C22.2979 18.4042 22.5458 19.1917 21.9479 19.9209L20.9708 21.1021C20.825 21.2917 20.7083 21.6271 20.7229 21.8605L20.8104 23.3917C20.8687 24.3397 20.1979 24.8209 19.3229 24.4709L17.8937 23.9021C17.675 23.8146 17.3104 23.8146 17.0917 23.9021L15.6625 24.4709C14.7875 24.8209 14.1167 24.3251 14.175 23.3917L14.2625 21.8605C14.2771 21.6271 14.1604 21.2771 14.0146 21.1021L13.0375 19.9209C12.4396 19.1917 12.6875 18.4042 13.6062 18.1709L15.0937 17.7917C15.3271 17.7334 15.6187 17.5146 15.7354 17.3251L16.5667 16.0271C17.0917 15.2396 17.9083 15.2396 18.4187 16.0271Z" stroke="#417BD2" stroke-width="3" stroke-linecap="round" stroke-linejoin="round"/>
</svg>
