<svg width="35" height="35" viewBox="0 0 35 35" fill="none" xmlns="http://www.w3.org/2000/svg">
<path d="M21.0583 27.7812L23.275 29.9979L27.7083 25.5646" stroke="#417BD2" stroke-width="3" stroke-linecap="round" stroke-linejoin="round"/>
<path d="M17.7333 15.852C17.5875 15.8375 17.4125 15.8375 17.2521 15.852C13.7812 15.7354 11.025 12.8916 11.025 9.39163C11.0104 5.81871 13.9125 2.91663 17.4854 2.91663C21.0583 2.91663 23.9604 5.81871 23.9604 9.39163C23.9604 12.8916 21.1896 15.7354 17.7333 15.852Z" stroke="#417BD2" stroke-width="3" stroke-linecap="round" stroke-linejoin="round"/>
<path d="M17.4854 31.8062C14.8312 31.8062 12.1917 31.1354 10.1792 29.7937C6.65 27.4312 6.65 23.5812 10.1792 21.2333C14.1896 18.55 20.7667 18.55 24.7771 21.2333" stroke="#417BD2" stroke-width="3" stroke-linecap="round" stroke-linejoin="round"/>
</svg>
