<svg width="32" height="32" viewBox="0 0 32 32" fill="none" xmlns="http://www.w3.org/2000/svg">
<circle cx="16" cy="16" r="16" fill="#CDF2F8"/>
<path fill-rule="evenodd" clip-rule="evenodd" d="M11.3929 10.8167C11.3929 10.5801 11.6096 10.1065 12.5524 9.63464C13.4376 9.19161 14.7279 8.88979 16.2057 8.88979C17.6835 8.88979 18.9739 9.19161 19.8591 9.63464C20.8009 10.106 21.0181 10.579 21.0186 10.8159C21.0186 10.8162 21.0186 10.8164 21.0186 10.8167C21.0186 10.817 21.0186 10.8173 21.0186 10.8176C21.018 11.0545 20.8007 11.5275 19.8591 11.9987C18.9739 12.4418 17.6835 12.7436 16.2057 12.7436C14.7279 12.7436 13.4376 12.4418 12.5524 11.9987C11.6096 11.5269 11.3929 11.0533 11.3929 10.8167ZM11.3929 13.5626C11.4914 13.6188 11.5912 13.672 11.6914 13.7222C12.8965 14.3253 14.4939 14.6705 16.2057 14.6705C17.9176 14.6705 19.515 14.3253 20.72 13.7222C20.8203 13.672 20.9201 13.6188 21.0186 13.5626V15.6339V15.6346C21.0182 15.8714 20.801 16.3446 19.8591 16.816C18.9739 17.259 17.6835 17.5608 16.2057 17.5608C14.7279 17.5608 13.4376 17.259 12.5524 16.816C11.6104 16.3445 11.3933 15.8714 11.3929 15.6345L11.3929 15.6339V13.5626ZM22.9437 10.8167V15.6339V20.4512C22.9437 21.8108 21.8675 22.7824 20.72 23.3567C19.515 23.9598 17.9176 24.305 16.2057 24.305C14.4939 24.305 12.8965 23.9598 11.6914 23.3567C10.544 22.7824 9.46777 21.8108 9.46777 20.4512V15.6339V10.8167C9.46777 9.45701 10.544 8.48543 11.6914 7.91117C12.8965 7.30809 14.4939 6.96289 16.2057 6.96289C17.9176 6.96289 19.515 7.30809 20.72 7.91117C21.8675 8.48543 22.9437 9.45701 22.9437 10.8167ZM20.72 18.5395C20.8203 18.4893 20.9201 18.436 21.0186 18.3798V20.4512C21.0186 20.6878 20.8019 21.1614 19.8591 21.6332C18.9739 22.0763 17.6835 22.3781 16.2057 22.3781C14.7279 22.3781 13.4376 22.0763 12.5524 21.6332C11.6105 21.1619 11.3934 20.6888 11.3929 20.4519L11.3929 20.4512L11.3929 18.3798C11.4914 18.436 11.5912 18.4893 11.6914 18.5395C12.8965 19.1425 14.4939 19.4877 16.2057 19.4877C17.9176 19.4877 19.515 19.1425 20.72 18.5395Z" fill="#009CB7"/>
</svg>
