<svg width="32" height="32" viewBox="0 0 32 32" fill="none" xmlns="http://www.w3.org/2000/svg">
<circle cx="16" cy="16" r="16" fill="#CDF2F8"/>
<path fill-rule="evenodd" clip-rule="evenodd" d="M19.8395 9.79048C19.347 9.79048 18.8999 9.97458 18.5595 10.2792C18.1643 10.6329 17.5573 10.5993 17.2037 10.2041C16.85 9.80899 16.8836 9.20197 17.2788 8.84831C17.9576 8.24071 18.8564 7.87012 19.8395 7.87012C21.9606 7.87012 23.6802 9.58967 23.6802 11.7108C23.6802 12.8484 23.1844 13.8715 22.4002 14.5734C22.0051 14.927 21.398 14.8934 21.0444 14.4983C20.6907 14.1031 20.7243 13.4961 21.1195 13.1424C21.5139 12.7894 21.7598 12.2795 21.7598 11.7108C21.7598 10.6503 20.9001 9.79048 19.8395 9.79048ZM14.0847 14.5936C14.0847 13.5331 14.9445 12.6733 16.005 12.6733C17.0656 12.6733 17.9254 13.5331 17.9254 14.5936C17.9254 15.6542 17.0656 16.514 16.005 16.514C14.9445 16.514 14.0847 15.6542 14.0847 14.5936ZM16.005 10.7529C13.8839 10.7529 12.1643 12.4725 12.1643 14.5936C12.1643 16.7148 13.8839 18.4344 16.005 18.4344C18.1262 18.4344 19.8458 16.7148 19.8458 14.5936C19.8458 12.4725 18.1262 10.7529 16.005 10.7529ZM11.1699 17.4699C11.3044 17.9828 10.9976 18.5077 10.4846 18.6421C9.74768 18.8353 9.17588 19.1398 8.80704 19.4715C8.4408 19.8008 8.32075 20.1079 8.32075 20.3542C8.32075 20.8845 7.89086 21.3144 7.36057 21.3144C6.83028 21.3144 6.40039 20.8845 6.40039 20.3542C6.40039 19.4193 6.87282 18.6282 7.52295 18.0436C8.17048 17.4612 9.03895 17.0359 9.99763 16.7845C10.5106 16.6501 11.0354 16.9569 11.1699 17.4699ZM22.0054 16.7845C21.4925 16.6501 20.9676 16.9569 20.8332 17.4699C20.6987 17.9828 21.0055 18.5077 21.5185 18.6421C22.2554 18.8353 22.8272 19.1398 23.196 19.4715C23.5623 19.8008 23.6823 20.1079 23.6823 20.3542C23.6823 20.8845 24.1122 21.3144 24.6425 21.3144C25.1728 21.3144 25.6027 20.8845 25.6027 20.3542C25.6027 19.4193 25.1303 18.6282 24.4801 18.0436C23.8326 17.4612 22.9641 17.0359 22.0054 16.7845ZM12.1634 23.2333C12.1634 22.9076 12.3884 22.4488 13.1033 22.0198C13.7992 21.6023 14.8225 21.3129 16.0041 21.3129C17.1857 21.3129 18.209 21.6023 18.9048 22.0198C19.6198 22.4488 19.8448 22.9076 19.8448 23.2333C19.8448 23.7636 20.2747 24.1935 20.805 24.1935C21.3353 24.1935 21.7652 23.7636 21.7652 23.2333C21.7652 21.9681 20.9155 20.9867 19.8928 20.3731C18.8511 19.7481 17.4739 19.3926 16.0041 19.3926C14.5343 19.3926 13.1571 19.7481 12.1153 20.3731C11.0927 20.9867 10.243 21.9681 10.243 23.2333C10.243 23.7636 10.6729 24.1935 11.2032 24.1935C11.7335 24.1935 12.1634 23.7636 12.1634 23.2333ZM12.1624 7.87012C10.0412 7.87012 8.3217 9.58967 8.3217 11.7108C8.3217 12.8484 8.81749 13.8715 9.6017 14.5734C9.99684 14.927 10.6039 14.8934 10.9575 14.4983C11.3112 14.1031 11.2776 13.4961 10.8824 13.1424C10.488 12.7894 10.2421 12.2795 10.2421 11.7108C10.2421 10.6503 11.1018 9.79048 12.1624 9.79048C12.6549 9.79048 13.102 9.97458 13.4424 10.2792C13.8376 10.6329 14.4446 10.5993 14.7982 10.2041C15.1519 9.80899 15.1183 9.20197 14.7231 8.84831C14.0443 8.24071 13.1455 7.87012 12.1624 7.87012Z" fill="#009CB7"/>
</svg>
