<svg width="32" height="32" viewBox="0 0 32 32" fill="none" xmlns="http://www.w3.org/2000/svg">
<circle cx="16" cy="16" r="16" fill="#CDF2F8"/>
<path fill-rule="evenodd" clip-rule="evenodd" d="M6.40039 15.5924C6.40039 12.7768 8.64972 10.4724 11.4394 10.4724C13.1243 10.4724 14.5802 11.3164 15.4824 12.5822C15.7942 13.0196 15.6951 13.629 15.261 13.9432C14.8268 14.2574 14.2221 14.1575 13.9103 13.72C13.3451 12.9271 12.4567 12.4229 11.4394 12.4229C9.73738 12.4229 8.336 13.8351 8.336 15.5924C8.336 17.3497 9.73738 18.7619 11.4394 18.7619C12.6064 18.7619 13.6967 18.1358 14.3027 17.1076L15.4918 15.0961L15.4934 15.0933L16.6729 13.0829L16.6739 13.0812C17.6248 11.4677 19.344 10.4724 21.2014 10.4724C23.9911 10.4724 26.2404 12.7768 26.2404 15.5924C26.2404 18.408 23.9911 20.7124 21.2014 20.7124C19.5234 20.7124 18.0704 19.8669 17.1616 18.6072C16.8473 18.1716 16.943 17.5616 17.3753 17.2449C17.8076 16.9282 18.4129 17.0246 18.7272 17.4602C19.3037 18.2593 20.1951 18.7619 21.2014 18.7619C22.9034 18.7619 24.3048 17.3497 24.3048 15.5924C24.3048 13.8351 22.9034 12.4229 21.2014 12.4229C20.0347 12.4229 18.9446 13.0487 18.3385 14.0765C18.3384 14.0767 18.3382 14.077 18.3381 14.0772L17.158 16.0887L17.1563 16.0915L15.967 18.1036C15.9668 18.1039 15.9665 18.1043 15.9663 18.1046C15.9663 18.1047 15.9663 18.1046 15.9663 18.1046C15.0153 19.7175 13.2964 20.7124 11.4394 20.7124C8.64972 20.7124 6.40039 18.408 6.40039 15.5924Z" fill="#009CB7"/>
</svg>
