<svg width="220" height="40" viewBox="0 0 220 40" fill="none" xmlns="http://www.w3.org/2000/svg">
<path d="M20 20H190.5" stroke="#9AB3C1" stroke-dasharray="2 2"/>
<circle cx="20" cy="20" r="20" fill="#45B4C8"/>
<path d="M17.3203 26V24.4219H19.3281V16.6406C18.5833 16.9896 17.8255 17.2865 17.0547 17.5312V15.7344C17.8203 15.4896 18.6536 15.1198 19.5547 14.625H21.3125V24.4531H23.3594V26H17.3203Z" fill="white"/>
<circle cx="110" cy="20" r="20" fill="#009CB7"/>
<path d="M109.719 14.4297C110.766 14.4297 111.604 14.7474 112.234 15.3828C112.87 16.0182 113.188 16.9323 113.188 18.125C113.188 18.375 113.164 18.6198 113.117 18.8594C113.076 19.099 113.026 19.3099 112.969 19.4922C112.911 19.6745 112.82 19.8724 112.695 20.0859C112.576 20.2995 112.474 20.4714 112.391 20.6016C112.312 20.7318 112.185 20.8984 112.008 21.1016C111.836 21.3047 111.708 21.4531 111.625 21.5469C111.542 21.6354 111.401 21.7839 111.203 21.9922L108.938 24.375H113.102V26H106.508V24.5703L109.797 20.9141C110.062 20.6172 110.245 20.4141 110.344 20.3047C110.443 20.1901 110.573 20.026 110.734 19.8125C110.901 19.5938 111.013 19.4193 111.07 19.2891C111.128 19.1589 111.18 19 111.227 18.8125C111.279 18.625 111.305 18.4297 111.305 18.2266C111.305 18.0755 111.286 17.8672 111.25 17.6016C111.203 17.3151 111.125 17.0729 111.016 16.875C110.911 16.6719 110.781 16.5182 110.625 16.4141C110.474 16.3047 110.31 16.2266 110.133 16.1797C109.961 16.1328 109.766 16.1094 109.547 16.1094C109.401 16.1094 109.25 16.1224 109.094 16.1484C108.938 16.1693 108.786 16.2005 108.641 16.2422C108.495 16.2786 108.349 16.3229 108.203 16.375C108.057 16.4219 107.922 16.474 107.797 16.5312C107.672 16.5833 107.549 16.638 107.43 16.6953C107.315 16.7474 107.214 16.7995 107.125 16.8516C107.036 16.8984 106.958 16.9427 106.891 16.9844C106.823 17.0208 106.771 17.0521 106.734 17.0781L106.68 17.1094L106.016 15.5547C106.057 15.5234 106.115 15.4844 106.188 15.4375C106.266 15.3854 106.432 15.2943 106.688 15.1641C106.943 15.0339 107.203 14.9193 107.469 14.8203C107.74 14.7214 108.081 14.6328 108.492 14.5547C108.904 14.4714 109.312 14.4297 109.719 14.4297Z" fill="white"/>
<circle cx="200" cy="20" r="20" fill="#00889F"/>
<path d="M199.891 26.1797C199.458 26.1797 199.039 26.1458 198.633 26.0781C198.232 26.0156 197.898 25.9375 197.633 25.8438C197.367 25.75 197.13 25.6562 196.922 25.5625C196.719 25.4635 196.57 25.3802 196.477 25.3125L196.336 25.2188L196.938 23.7266C197.016 23.7786 197.151 23.8542 197.344 23.9531C197.542 24.0469 197.859 24.1589 198.297 24.2891C198.74 24.4193 199.159 24.4844 199.555 24.4844C200.258 24.4844 200.797 24.3255 201.172 24.0078C201.547 23.6849 201.734 23.2448 201.734 22.6875C201.734 22.0938 201.479 21.651 200.969 21.3594C200.464 21.0625 199.76 20.9141 198.859 20.9141H198.609L198.109 20.9297L198.094 19.25H198.656C199.667 19.25 200.378 19.1172 200.789 18.8516C201.206 18.5859 201.414 18.112 201.414 17.4297C201.414 17.013 201.219 16.6901 200.828 16.4609C200.438 16.2266 199.987 16.1094 199.477 16.1094C199.232 16.1094 198.997 16.1302 198.773 16.1719C198.549 16.2135 198.346 16.2734 198.164 16.3516C197.982 16.4245 197.833 16.4922 197.719 16.5547C197.604 16.612 197.477 16.6849 197.336 16.7734C197.195 16.862 197.109 16.9167 197.078 16.9375L196.195 15.5078C196.805 15.1016 197.344 14.8177 197.812 14.6562C198.286 14.4948 198.93 14.4141 199.742 14.4141C200.221 14.4141 200.674 14.4766 201.102 14.6016C201.534 14.7266 201.922 14.9089 202.266 15.1484C202.615 15.3828 202.891 15.6927 203.094 16.0781C203.302 16.4635 203.406 16.8984 203.406 17.3828C203.406 17.7839 203.336 18.1641 203.195 18.5234C203.06 18.8828 202.826 19.2057 202.492 19.4922C202.164 19.7734 201.76 19.9505 201.281 20.0234C202.026 20.1589 202.609 20.4818 203.031 20.9922C203.458 21.4974 203.672 22.0911 203.672 22.7734C203.672 23.2943 203.568 23.7734 203.359 24.2109C203.156 24.6432 202.88 25.0026 202.531 25.2891C202.188 25.5703 201.786 25.7891 201.328 25.9453C200.875 26.1016 200.396 26.1797 199.891 26.1797ZM196.93 23.7266H196.938H196.93Z" fill="white"/>
</svg>
