<svg width="1440" height="675" viewBox="0 0 1440 675" fill="none" xmlns="http://www.w3.org/2000/svg">
<path fill-rule="evenodd" clip-rule="evenodd" d="M1440 0H0V675H664.769C711.331 675 755.979 656.47 788.857 623.5C821.735 590.53 866.383 572 912.945 572H1440V0Z" fill="#F7FBFD"/>
<path d="M1466.87 558.644H977.553C973.769 558.644 970.932 560.888 970.932 563.357C970.932 566.05 974.084 568.07 977.553 568.07H1466.56C1470.34 568.07 1473.18 565.825 1473.18 563.357C1473.49 560.888 1470.34 558.644 1466.87 558.644Z" fill="#D7F1F9"/>
<path d="M1372.69 199.083H1045.74C1027.29 199.083 1012.47 213.902 1012.47 232.352V456.466C1012.47 474.915 1027.29 489.735 1045.74 489.735H1372.69C1391.14 489.735 1405.96 474.915 1405.96 456.466V232.352C1405.96 214.205 1391.14 199.083 1372.69 199.083Z" fill="#5183BB"/>
<path d="M1044.53 403.839C1037.27 403.839 1031.22 397.79 1031.22 390.531L1032.13 232.049C1032.13 224.79 1038.18 218.741 1045.44 218.741H1373.29C1380.55 218.741 1386.6 224.79 1386.6 232.049L1385.69 390.834C1385.69 398.092 1379.64 404.141 1372.38 404.141H1044.53V403.839Z" fill="#D7F1F9"/>
<path d="M1012.67 426.68V456.817C1012.67 475.201 1027.48 489.969 1045.92 489.969H1372.63C1391.06 489.969 1405.87 475.201 1405.87 456.817V426.68H1012.67Z" fill="#DCF3FA"/>
<path d="M1267.18 489.969H1151.37V534.405H1267.18V489.969Z" fill="#BDE6EF"/>
<path d="M1267.18 489.969H1151.37V503.434H1267.18V489.969Z" fill="#A4D3DD"/>
<path d="M1291.8 534.405H1126.44C1110.3 534.405 1097.51 547.33 1097.51 562.96V568.069H1321.04V562.96C1321.04 547.029 1307.94 534.405 1291.8 534.405Z" fill="#D9F2FA"/>
<path d="M1222.74 460.344C1222.74 468.538 1216.42 475.156 1208.6 475.156C1200.78 475.156 1194.46 468.538 1194.46 460.344C1194.46 452.15 1200.78 445.532 1208.6 445.532C1216.42 445.532 1222.74 452.465 1222.74 460.344Z" fill="#5183BB"/>
<g filter="url(#filter0_d)">
<path d="M1331.47 242.2H1081.69C1077.18 242.2 1073.27 245.698 1073.27 250.363V262.315C1073.27 266.688 1076.88 270.478 1081.69 270.478H1331.47C1335.98 270.478 1339.89 266.98 1339.89 262.315V250.363C1339.89 245.698 1335.98 242.2 1331.47 242.2Z" fill="white"/>
</g>
<path d="M1227.44 352.619H1076.61C1074.79 352.619 1073.27 354.256 1073.27 356.222V361.135C1073.27 363.1 1074.79 364.738 1076.61 364.738H1227.75C1230.78 364.738 1233.51 362.117 1233.51 358.514C1233.21 355.239 1230.78 352.619 1227.44 352.619Z" fill="#5183BB"/>
<path d="M1174.96 374.164H1076.61C1074.79 374.164 1073.27 375.758 1073.27 377.672V382.775C1073.27 384.688 1074.79 386.283 1076.61 386.283H1174.96C1176.78 386.283 1178.3 384.688 1178.3 382.775V377.672C1178.3 375.44 1176.78 374.164 1174.96 374.164Z" fill="white"/>
<path d="M1126.19 262.294C1128.7 262.294 1130.73 260.262 1130.73 257.757C1130.73 255.251 1128.7 253.22 1126.19 253.22C1123.69 253.22 1121.65 255.251 1121.65 257.757C1121.65 260.262 1123.69 262.294 1126.19 262.294Z" fill="#5183BB"/>
<path d="M1158.55 262.293C1161.06 262.293 1163.09 260.262 1163.09 257.757C1163.09 255.251 1161.06 253.22 1158.55 253.22C1156.05 253.22 1154.02 255.251 1154.02 257.757C1154.02 260.262 1156.05 262.293 1158.55 262.293Z" fill="#5183BB"/>
<path d="M1190.61 262.293C1193.12 262.293 1195.15 260.262 1195.15 257.757C1195.15 255.251 1193.12 253.22 1190.61 253.22C1188.11 253.22 1186.07 255.251 1186.07 257.757C1186.07 260.262 1188.11 262.293 1190.61 262.293Z" fill="#5183BB"/>
<path d="M1222.98 262.293C1225.48 262.293 1227.51 260.262 1227.51 257.757C1227.51 255.251 1225.48 253.22 1222.98 253.22C1220.47 253.22 1218.44 255.251 1218.44 257.757C1218.44 260.262 1220.47 262.293 1222.98 262.293Z" fill="#5183BB"/>
<path d="M1255.03 262.293C1257.54 262.293 1259.57 260.262 1259.57 257.757C1259.57 255.251 1257.54 253.22 1255.03 253.22C1252.53 253.22 1250.5 255.251 1250.5 257.757C1250.5 260.262 1252.53 262.293 1255.03 262.293Z" fill="#5183BB"/>
<path d="M1287.39 262.293C1289.9 262.293 1291.93 260.262 1291.93 257.757C1291.93 255.251 1289.9 253.22 1287.39 253.22C1284.89 253.22 1282.86 255.251 1282.86 257.757C1282.86 260.262 1284.89 262.293 1287.39 262.293Z" fill="#5183BB"/>
<path d="M1258.06 288.001H1225.7C1219.95 288.001 1215.41 292.538 1215.41 298.284V330.646C1215.41 336.393 1219.95 340.93 1225.7 340.93H1258.06C1263.81 340.93 1268.34 336.393 1268.34 330.646V297.982C1268.34 292.538 1263.81 288.001 1258.06 288.001Z" fill="white"/>
<path d="M1184.87 288.001H1152.51C1146.76 288.001 1142.22 292.538 1142.22 298.284V330.646C1142.22 336.393 1146.76 340.93 1152.51 340.93H1184.87C1190.61 340.93 1195.15 336.393 1195.15 330.646V297.982C1195.15 292.538 1190.61 288.001 1184.87 288.001Z" fill="#5183BB"/>
<path d="M1327.26 287.984H1295.97C1290.41 287.984 1286.03 292.485 1286.03 298.187V330.297C1286.03 335.998 1290.41 340.5 1295.97 340.5H1327.26C1332.81 340.5 1337.2 335.998 1337.2 330.297V297.887C1337.2 292.485 1332.81 287.984 1327.26 287.984Z" fill="white"/>
<path d="M1112.88 288.001H1080.52C1074.77 288.001 1070.24 292.538 1070.24 298.284V330.646C1070.24 336.393 1074.77 340.93 1080.52 340.93H1112.88C1118.63 340.93 1123.17 336.393 1123.17 330.646V297.982C1122.86 292.538 1118.33 288.001 1112.88 288.001Z" fill="#F7FBFD"/>
<g filter="url(#filter1_d)">
<path d="M992.392 372.009C1019.12 372.009 1040.78 350.343 1040.78 323.617C1040.78 296.891 1019.12 275.225 992.392 275.225C965.666 275.225 944 296.891 944 323.617C944 350.343 965.666 372.009 992.392 372.009Z" fill="url(#paint0_linear)"/>
</g>
<path d="M983.618 345.091C982.409 345.091 981.199 344.486 980.291 343.579L964.564 327.851C962.749 326.037 962.749 322.71 964.564 320.895C966.379 319.08 969.706 319.08 971.52 320.895L983.921 333.295L1012.05 305.168C1013.86 303.353 1017.19 303.353 1019 305.168C1020.82 306.982 1020.82 310.309 1019 312.124L987.248 343.579C986.34 344.486 985.131 345.091 983.618 345.091Z" fill="white"/>
<g filter="url(#filter2_d)">
<path d="M1461.91 227.512H1379.94C1374.2 227.512 1369.66 232.049 1369.66 237.795V310.383C1369.66 313.105 1372.99 314.315 1374.8 312.5L1393.55 293.748C1395.07 292.236 1397.49 291.329 1399.91 291.329H1462.21C1467.96 291.329 1472.8 286.49 1472.8 280.743V237.795C1472.49 232.049 1467.65 227.512 1461.91 227.512Z" fill="#BADBFF"/>
</g>
<path d="M1451.93 246.265H1393.56C1391.44 246.265 1389.93 248.079 1389.93 249.894C1389.93 252.011 1391.74 253.523 1393.56 253.523H1451.93C1454.05 253.523 1455.56 251.709 1455.56 249.894C1455.86 248.079 1454.05 246.265 1451.93 246.265Z" fill="#5183BB"/>
<path d="M1429.24 268.039H1393.56C1391.44 268.039 1389.93 269.854 1389.93 271.668C1389.93 273.786 1391.74 275.298 1393.56 275.298H1429.24C1431.36 275.298 1432.87 273.483 1432.87 271.668C1432.87 269.551 1431.06 268.039 1429.24 268.039Z" fill="#5183BB"/>
<path d="M1357.87 556.273V567.766H1326.71C1324.9 567.766 1323.99 565.347 1325.5 564.137C1329.13 561.415 1335.48 557.786 1344.56 556.273H1357.87Z" fill="#004E82"/>
<path d="M1414.42 556.273V567.766H1383.27C1381.46 567.766 1380.55 565.347 1382.06 564.137C1385.69 561.415 1392.04 557.786 1401.12 556.273H1414.42Z" fill="#004E82"/>
<path d="M1414.73 556.575C1412.61 541.755 1398.09 442.552 1395.07 440.133C1392.04 437.713 1369.66 463.421 1369.66 463.421C1372.08 465.841 1394.77 541.15 1401.42 556.575H1414.73Z" fill="#004E82"/>
<path d="M1357.56 556.576C1362.7 539.941 1374.5 487.013 1388.72 468.563C1395.37 459.792 1395.37 438.016 1395.37 438.016L1356.35 445.88C1350 458.885 1345.77 536.614 1344.86 556.576H1357.56Z" fill="#5183BB"/>
<path d="M1384.48 385.995C1382.06 379.341 1347.28 335.789 1347.28 335.789L1334.88 341.535C1334.88 341.535 1357.87 381.761 1363.61 390.229L1384.48 385.995Z" fill="#64D3B5"/>
<path d="M1356.66 352.121C1356.66 352.121 1345.47 346.072 1354.24 333.974C1354.24 333.974 1358.77 341.535 1367.54 339.115C1394.76 330.647 1395.97 359.077 1391.14 369.36C1389.02 373.897 1383.57 377.224 1382.36 376.921C1381.15 376.619 1376.01 366.638 1376.01 366.638L1356.66 352.121Z" fill="#004E82"/>
<path d="M1356.96 351.516C1355.45 353.633 1355.75 358.169 1355.75 360.891C1355.75 368.15 1360.59 373.594 1366.94 373.594C1371.48 373.594 1375.41 370.57 1377.53 366.638C1379.95 367.243 1382.37 365.126 1383.28 362.706C1384.18 359.984 1382.97 357.262 1380.55 356.355C1379.65 356.052 1378.44 356.96 1377.53 357.262C1377.53 357.262 1372.69 355.447 1370.88 350.608L1356.96 351.516Z" fill="#FFE27C"/>
<path d="M1381.46 365.126L1369.36 367.546V381.761H1381.46V365.126Z" fill="#FFE27C"/>
<path d="M1399.3 440.133C1399.3 440.133 1390.23 388.716 1389.02 385.389C1387.51 382.063 1382.67 379.945 1368.75 380.248C1360.89 380.248 1335.18 375.711 1330.95 373.896C1326.71 372.082 1303.73 344.257 1303.73 344.257L1293.14 351.213C1293.14 351.213 1314.92 385.389 1321.27 387.809C1327.92 389.926 1351.21 398.092 1351.21 398.092L1352.12 448.299C1352.12 447.694 1383.88 462.514 1399.3 440.133Z" fill="url(#paint1_linear)"/>
<path d="M1303.43 344.559C1303.43 344.559 1297.98 330.949 1296.47 330.646C1295.26 330.344 1294.35 335.788 1294.35 335.788C1294.35 335.788 1289.21 323.085 1286.49 322.782C1283.77 322.782 1281.05 337.905 1293.75 350.305L1303.43 344.559Z" fill="#FFE27C"/>
<path d="M1337 340.628C1337 340.628 1327.02 329.134 1328.83 328.53C1330.65 328.227 1334.58 331.252 1334.58 331.252C1334.58 331.252 1327.62 315.524 1332.16 314.919C1336.7 314.315 1345.47 328.832 1347.28 335.486L1337 340.628Z" fill="#FFE27C"/>
<defs>
<filter id="filter0_d" x="1071.27" y="240.2" width="274.62" height="36.2779" filterUnits="userSpaceOnUse" color-interpolation-filters="sRGB">
<feFlood flood-opacity="0" result="BackgroundImageFix"/>
<feColorMatrix in="SourceAlpha" type="matrix" values="0 0 0 0 0 0 0 0 0 0 0 0 0 0 0 0 0 0 127 0" result="hardAlpha"/>
<feOffset dx="2" dy="2"/>
<feGaussianBlur stdDeviation="2"/>
<feColorMatrix type="matrix" values="0 0 0 0 0.0846528 0 0 0 0 0.150363 0 0 0 0 0.383333 0 0 0 0.25 0"/>
<feBlend mode="normal" in2="BackgroundImageFix" result="effect1_dropShadow"/>
<feBlend mode="normal" in="SourceGraphic" in2="effect1_dropShadow" result="shape"/>
</filter>
<filter id="filter1_d" x="942" y="273.225" width="104.783" height="104.783" filterUnits="userSpaceOnUse" color-interpolation-filters="sRGB">
<feFlood flood-opacity="0" result="BackgroundImageFix"/>
<feColorMatrix in="SourceAlpha" type="matrix" values="0 0 0 0 0 0 0 0 0 0 0 0 0 0 0 0 0 0 127 0" result="hardAlpha"/>
<feOffset dx="2" dy="2"/>
<feGaussianBlur stdDeviation="2"/>
<feColorMatrix type="matrix" values="0 0 0 0 0.0846528 0 0 0 0 0.150363 0 0 0 0 0.383333 0 0 0 0.25 0"/>
<feBlend mode="normal" in2="BackgroundImageFix" result="effect1_dropShadow"/>
<feBlend mode="normal" in="SourceGraphic" in2="effect1_dropShadow" result="shape"/>
</filter>
<filter id="filter2_d" x="1367.66" y="225.512" width="111.135" height="93.8507" filterUnits="userSpaceOnUse" color-interpolation-filters="sRGB">
<feFlood flood-opacity="0" result="BackgroundImageFix"/>
<feColorMatrix in="SourceAlpha" type="matrix" values="0 0 0 0 0 0 0 0 0 0 0 0 0 0 0 0 0 0 127 0" result="hardAlpha"/>
<feOffset dx="2" dy="2"/>
<feGaussianBlur stdDeviation="2"/>
<feColorMatrix type="matrix" values="0 0 0 0 0.0846528 0 0 0 0 0.150363 0 0 0 0 0.383333 0 0 0 0.25 0"/>
<feBlend mode="normal" in2="BackgroundImageFix" result="effect1_dropShadow"/>
<feBlend mode="normal" in="SourceGraphic" in2="effect1_dropShadow" result="shape"/>
</filter>
<linearGradient id="paint0_linear" x1="992.392" y1="275.225" x2="992.392" y2="372.009" gradientUnits="userSpaceOnUse">
<stop stop-color="#B0E7C6"/>
<stop offset="1" stop-color="#5DD1B3"/>
</linearGradient>
<linearGradient id="paint1_linear" x1="1346.22" y1="344.257" x2="1346.22" y2="452.554" gradientUnits="userSpaceOnUse">
<stop stop-color="#B0E7C6"/>
<stop offset="1" stop-color="#5DD1B3"/>
</linearGradient>
</defs>
</svg>
