<svg fill="none" height="370" viewBox="0 0 498 370" width="498" xmlns="http://www.w3.org/2000/svg" xmlns:xlink="http://www.w3.org/1999/xlink"><filter id="a" color-interpolation-filters="sRGB" filterUnits="userSpaceOnUse" height="36.2779" width="274.62" x="129.27" y="41.2002"><feFlood flood-opacity="0" result="BackgroundImageFix"/><feColorMatrix in="SourceAlpha" result="hardAlpha" type="matrix" values="0 0 0 0 0 0 0 0 0 0 0 0 0 0 0 0 0 0 127 0"/><feOffset dx="2" dy="2"/><feGaussianBlur stdDeviation="2"/><feColorMatrix type="matrix" values="0 0 0 0 0.0846528 0 0 0 0 0.150363 0 0 0 0 0.383333 0 0 0 0.25 0"/><feBlend in2="BackgroundImageFix" mode="normal" result="effect1_dropShadow"/><feBlend in="SourceGraphic" in2="effect1_dropShadow" mode="normal" result="shape"/></filter><filter id="b" color-interpolation-filters="sRGB" filterUnits="userSpaceOnUse" height="104.783" width="104.783" x="0" y="74.2253"><feFlood flood-opacity="0" result="BackgroundImageFix"/><feColorMatrix in="SourceAlpha" result="hardAlpha" type="matrix" values="0 0 0 0 0 0 0 0 0 0 0 0 0 0 0 0 0 0 127 0"/><feOffset dx="2" dy="2"/><feGaussianBlur stdDeviation="2"/><feColorMatrix type="matrix" values="0 0 0 0 0.0846528 0 0 0 0 0.150363 0 0 0 0 0.383333 0 0 0 0.25 0"/><feBlend in2="BackgroundImageFix" mode="normal" result="effect1_dropShadow"/><feBlend in="SourceGraphic" in2="effect1_dropShadow" mode="normal" result="shape"/></filter><filter id="c" color-interpolation-filters="sRGB" filterUnits="userSpaceOnUse" height="93.8507" width="111.135" x="425.661" y="26.5122"><feFlood flood-opacity="0" result="BackgroundImageFix"/><feColorMatrix in="SourceAlpha" result="hardAlpha" type="matrix" values="0 0 0 0 0 0 0 0 0 0 0 0 0 0 0 0 0 0 127 0"/><feOffset dx="2" dy="2"/><feGaussianBlur stdDeviation="2"/><feColorMatrix type="matrix" values="0 0 0 0 0.0846528 0 0 0 0 0.150363 0 0 0 0 0.383333 0 0 0 0.25 0"/><feBlend in2="BackgroundImageFix" mode="normal" result="effect1_dropShadow"/><feBlend in="SourceGraphic" in2="effect1_dropShadow" mode="normal" result="shape"/></filter><linearGradient id="d"><stop offset="0" stop-color="#b0e7c6"/><stop offset="1" stop-color="#5dd1b3"/></linearGradient><linearGradient id="e" gradientUnits="userSpaceOnUse" x1="50.3916" x2="50.3916" xlink:href="#d" y1="76.2253" y2="173.009"/><linearGradient id="f" gradientUnits="userSpaceOnUse" x1="404.223" x2="404.223" xlink:href="#d" y1="145.257" y2="253.554"/><path d="m524.874 359.644h-489.3214c-3.7834 0-6.621 2.244-6.621 4.713 0 2.693 3.1529 4.713 6.621 4.713h489.0054c3.784 0 6.621-2.245 6.621-4.713.316-2.469-2.837-4.713-6.305-4.713z" fill="#d7f1f9"/><path d="m430.686.0825195h-326.946c-18.4494 0-33.2693 14.8199805-33.2693 33.2692805v224.1142c0 18.449 14.8199 33.269 33.2693 33.269h326.946c18.449 0 33.269-14.82 33.269-33.269v-224.1142c0-18.1469-14.82-33.2692805-33.269-33.2692805z" fill="#5183bb"/><path d="m102.531 204.839c-7.2584 0-13.3074-6.049-13.3074-13.308l.9074-158.4823c0-7.2588 6.0489-13.3077 13.308-13.3077h327.853c7.259 0 13.308 6.0489 13.308 13.3077l-.908 158.7853c0 7.258-6.049 13.307-13.307 13.307h-327.854z" fill="#d7f1f9"/><path d="m70.6748 227.68v30.137c0 18.384 14.8091 33.152 33.2452 33.152h326.707c18.436 0 33.245-14.768 33.245-33.152v-30.137z" fill="#dcf3fa"/><path d="m325.176 290.969h-115.804v44.436h115.804z" fill="#bde6ef"/><path d="m325.176 290.969h-115.804v13.465h115.804z" fill="#a4d3dd"/><path d="m349.803 335.405h-165.364c-16.14 0-28.931 12.925-28.931 28.555v5.109h223.53v-5.109c0-15.931-13.095-28.555-29.235-28.555z" fill="#d9f2fa"/><path d="m280.739 261.344c0 8.194-6.318 14.812-14.139 14.812-7.822 0-14.139-6.618-14.139-14.812s6.317-14.812 14.139-14.812c7.821 0 14.139 6.933 14.139 14.812z" fill="#5183bb"/><g filter="url(#a)"><path d="m389.474 43.2002h-249.788c-4.508 0-8.416 3.4983-8.416 8.1627v11.9525c0 4.3729 3.607 8.1627 8.416 8.1627h249.788c4.509 0 8.416-3.4983 8.416-8.1627v-11.9525c0-4.6644-3.907-8.1627-8.416-8.1627z" fill="#fff"/></g><path d="m285.442 153.619h-150.834c-1.821 0-3.338 1.637-3.338 3.603v4.913c0 1.965 1.517 3.603 3.338 3.603h151.137c3.035 0 5.766-2.621 5.766-6.224-.303-3.275-2.731-5.895-6.069-5.895z" fill="#5183bb"/><path d="m232.963 175.164h-98.354c-1.821 0-3.339 1.594-3.339 3.508v5.103c0 1.913 1.518 3.508 3.339 3.508h98.354c1.821 0 3.339-1.595 3.339-3.508v-5.103c0-2.232-1.518-3.508-3.339-3.508z" fill="#fff"/><g fill="#5183bb"><path d="m184.191 63.2936c2.506 0 4.537-2.0311 4.537-4.5367 0-2.5055-2.031-4.5367-4.537-4.5367s-4.537 2.0312-4.537 4.5367c0 2.5056 2.031 4.5367 4.537 4.5367z"/><path d="m216.553 63.2934c2.506 0 4.537-2.0312 4.537-4.5367 0-2.5056-2.031-4.5367-4.537-4.5367-2.505 0-4.536 2.0311-4.536 4.5367 0 2.5055 2.031 4.5367 4.536 4.5367z"/><path d="m248.611 63.2934c2.506 0 4.537-2.0312 4.537-4.5367 0-2.5056-2.031-4.5367-4.537-4.5367-2.505 0-4.536 2.0311-4.536 4.5367 0 2.5055 2.031 4.5367 4.536 4.5367z"/><path d="m280.975 63.2934c2.506 0 4.537-2.0312 4.537-4.5367 0-2.5056-2.031-4.5367-4.537-4.5367-2.505 0-4.537 2.0311-4.537 4.5367 0 2.5055 2.032 4.5367 4.537 4.5367z"/><path d="m313.033 63.2934c2.505 0 4.537-2.0312 4.537-4.5367 0-2.5056-2.032-4.5367-4.537-4.5367-2.506 0-4.537 2.0311-4.537 4.5367 0 2.5055 2.031 4.5367 4.537 4.5367z"/><path d="m345.394 63.2934c2.506 0 4.537-2.0312 4.537-4.5367 0-2.5056-2.031-4.5367-4.537-4.5367-2.505 0-4.537 2.0311-4.537 4.5367 0 2.5055 2.032 4.5367 4.537 4.5367z"/></g><path d="m316.059 89.0012h-32.362c-5.747 0-10.283 4.5367-10.283 10.2832v32.3616c0 5.747 4.536 10.284 10.283 10.284h32.362c5.746 0 10.283-4.537 10.283-10.284v-32.664c0-5.4441-4.537-9.9808-10.283-9.9808z" fill="#fff"/><path d="m242.868 89.0012h-32.362c-5.747 0-10.283 4.5367-10.283 10.2832v32.3616c0 5.747 4.536 10.284 10.283 10.284h32.362c5.746 0 10.283-4.537 10.283-10.284v-32.664c0-5.4441-4.537-9.9808-10.283-9.9808z" fill="#5183bb"/><path d="m385.256 88.9836h-31.287c-5.555 0-9.941 4.5014-9.941 10.2032v32.1102c0 5.701 4.386 10.203 9.941 10.203h31.287c5.555 0 9.941-4.502 9.941-10.203v-32.4103c0-5.4017-4.386-9.9031-9.941-9.9031z" fill="#fff"/><path d="m170.883 89.0012h-32.362c-5.746 0-10.283 4.5367-10.283 10.2832v32.3616c0 5.747 4.537 10.284 10.283 10.284h32.362c5.746 0 10.283-4.537 10.283-10.284v-32.664c-.302-5.4441-4.839-9.9808-10.283-9.9808z" fill="#f7fbfd"/><g filter="url(#b)"><path d="m50.3916 173.009c26.726 0 48.3917-21.666 48.3917-48.392s-21.6657-48.3917-48.3917-48.3917c-26.7259 0-48.3916 21.6657-48.3916 48.3917s21.6657 48.392 48.3916 48.392z" fill="url(#e)"/></g><path d="m41.6183 146.091c-1.2097 0-2.4195-.605-3.3269-1.512l-15.7273-15.728c-1.8146-1.814-1.8146-5.141 0-6.956 1.8147-1.815 5.1417-1.815 6.9563 0l12.4004 12.4 28.1276-28.127c1.8147-1.815 5.1416-1.815 6.9563 0 1.8147 1.814 1.8147 5.141 0 6.956l-31.757 31.455c-.9073.907-2.1171 1.512-3.6294 1.512z" fill="#fff"/><g filter="url(#c)"><path d="m519.908 28.5122h-81.964c-5.746 0-10.283 4.5367-10.283 10.2832v72.5876c0 2.722 3.327 3.932 5.142 2.117l18.751-18.7517c1.513-1.5123 3.932-2.4196 6.352-2.4196h62.304c5.747 0 10.586-4.8392 10.586-10.5857v-42.9476c-.303-5.7465-5.142-10.2832-10.888-10.2832z" fill="#badbff"/></g><path d="m509.929 47.2646h-58.373c-2.117 0-3.629 1.8147-3.629 3.6294 0 2.1172 1.814 3.6294 3.629 3.6294h58.373c2.117 0 3.629-1.8147 3.629-3.6294.302-1.8147-1.512-3.6294-3.629-3.6294z" fill="#5183bb"/><path d="m487.245 69.0391h-35.689c-2.117 0-3.629 1.8147-3.629 3.6293 0 2.1172 1.814 3.6294 3.629 3.6294h35.689c2.117 0 3.629-1.8147 3.629-3.6294 0-2.1171-1.814-3.6293-3.629-3.6293z" fill="#5183bb"/><path d="m415.865 357.273v11.493h-31.152c-1.815 0-2.722-2.419-1.21-3.629 3.63-2.722 9.981-6.351 19.054-7.864z" fill="#004e82"/><path d="m472.424 357.273v11.493h-31.152c-1.815 0-2.722-2.419-1.21-3.629 3.63-2.722 9.981-6.351 19.055-7.864z" fill="#004e82"/><path d="m472.727 357.575c-2.117-14.82-16.635-114.023-19.659-116.442-3.025-2.42-25.406 23.288-25.406 23.288 2.42 2.42 25.103 77.729 31.757 93.154z" fill="#004e82"/><path d="m415.563 357.576c5.142-16.635 16.937-69.563 31.152-88.013 6.654-8.771 6.654-30.547 6.654-30.547l-39.016 7.864c-6.351 13.005-10.585 90.734-11.493 110.696z" fill="#5183bb"/><path d="m442.483 186.995c-2.419-6.654-37.201-50.206-37.201-50.206l-12.4 5.746s22.986 40.226 28.732 48.694z" fill="#64d3b5"/><path d="m414.656 153.121s-11.191-6.049-2.42-18.147c0 0 4.537 7.561 13.308 5.141 27.22-8.468 28.43 19.962 23.591 30.245-2.117 4.537-7.561 7.864-8.771 7.561-1.21-.302-6.351-10.283-6.351-10.283z" fill="#004e82"/><path d="m414.963 152.516c-1.512 2.117-1.21 6.653-1.21 9.375 0 7.259 4.839 12.703 11.191 12.703 4.536 0 8.468-3.024 10.585-6.956 2.42.605 4.84-1.512 5.747-3.932.907-2.722-.303-5.444-2.722-6.351-.907-.303-2.117.605-3.025.907 0 0-4.839-1.815-6.653-6.654z" fill="#ffe27c"/><path d="m439.459 166.126-12.098 2.42v14.215h12.098z" fill="#ffe27c"/><path d="m457.302 241.133s-9.073-51.417-10.283-54.744c-1.512-3.326-6.351-5.444-20.264-5.141-7.864 0-33.572-4.537-37.806-6.352-4.234-1.814-27.22-29.639-27.22-29.639l-10.586 6.956s21.776 34.176 28.128 36.596c6.654 2.117 29.942 10.283 29.942 10.283l.907 50.207c0-.605 31.757 14.215 47.182-8.166z" fill="url(#f)"/><path d="m361.427 145.559s-5.444-13.61-6.956-13.913c-1.21-.302-2.117 5.142-2.117 5.142s-5.142-12.703-7.864-13.006c-2.722 0-5.444 15.123 7.259 27.523z" fill="#ffe27c"/><path d="m395 141.628s-9.981-11.494-8.166-12.098c1.815-.303 5.746 2.722 5.746 2.722s-6.956-15.728-2.419-16.333c4.536-.604 13.307 13.913 15.122 20.567z" fill="#ffe27c"/></svg>