<svg width="498" height="370" viewBox="0 0 498 370" fill="none" xmlns="http://www.w3.org/2000/svg">
<path d="M524.874 359.644H35.5526C31.7692 359.644 28.9316 361.888 28.9316 364.357C28.9316 367.05 32.0845 369.07 35.5526 369.07H524.558C528.342 369.07 531.179 366.825 531.179 364.357C531.495 361.888 528.342 359.644 524.874 359.644Z" fill="#D7F1F9"/>
<path d="M430.686 0.0825195H103.74C85.2906 0.0825195 70.4707 14.9025 70.4707 33.3518V257.466C70.4707 275.915 85.2906 290.735 103.74 290.735H430.686C449.135 290.735 463.955 275.915 463.955 257.466V33.3518C463.955 15.2049 449.135 0.0825195 430.686 0.0825195Z" fill="#5183BB"/>
<path d="M102.531 204.839C95.2726 204.839 89.2236 198.79 89.2236 191.531L90.131 33.0487C90.131 25.7899 96.1799 19.741 103.439 19.741H431.292C438.551 19.741 444.6 25.7899 444.6 33.0487L443.692 191.834C443.692 199.092 437.643 205.141 430.385 205.141H102.531V204.839Z" fill="#D7F1F9"/>
<path d="M70.6748 227.68V257.817C70.6748 276.201 85.4839 290.969 103.92 290.969H430.627C449.063 290.969 463.872 276.201 463.872 257.817V227.68H70.6748Z" fill="#DCF3FA"/>
<path d="M325.176 290.969H209.372V335.405H325.176V290.969Z" fill="#BDE6EF"/>
<path d="M325.176 290.969H209.372V304.434H325.176V290.969Z" fill="#A4D3DD"/>
<path d="M349.803 335.405H184.439C168.299 335.405 155.508 348.33 155.508 363.96V369.069H379.038V363.96C379.038 348.029 365.943 335.405 349.803 335.405Z" fill="#D9F2FA"/>
<path d="M280.739 261.344C280.739 269.538 274.421 276.156 266.6 276.156C258.778 276.156 252.461 269.538 252.461 261.344C252.461 253.15 258.778 246.532 266.6 246.532C274.421 246.532 280.739 253.465 280.739 261.344Z" fill="#5183BB"/>
<g filter="url(#filter0_d)">
<path d="M389.474 43.2002H139.686C135.178 43.2002 131.27 46.6985 131.27 51.3629V63.3154C131.27 67.6883 134.877 71.4781 139.686 71.4781H389.474C393.983 71.4781 397.89 67.9798 397.89 63.3154V51.3629C397.89 46.6985 393.983 43.2002 389.474 43.2002Z" fill="white"/>
</g>
<path d="M285.442 153.619H134.608C132.787 153.619 131.27 155.256 131.27 157.222V162.135C131.27 164.1 132.787 165.738 134.608 165.738H285.745C288.78 165.738 291.511 163.117 291.511 159.514C291.208 156.239 288.78 153.619 285.442 153.619Z" fill="#5183BB"/>
<path d="M232.963 175.164H134.609C132.788 175.164 131.27 176.758 131.27 178.672V183.775C131.27 185.688 132.788 187.283 134.609 187.283H232.963C234.784 187.283 236.302 185.688 236.302 183.775V178.672C236.302 176.44 234.784 175.164 232.963 175.164Z" fill="white"/>
<path d="M184.191 63.2936C186.697 63.2936 188.728 61.2625 188.728 58.7569C188.728 56.2514 186.697 54.2202 184.191 54.2202C181.685 54.2202 179.654 56.2514 179.654 58.7569C179.654 61.2625 181.685 63.2936 184.191 63.2936Z" fill="#5183BB"/>
<path d="M216.553 63.2934C219.059 63.2934 221.09 61.2622 221.09 58.7567C221.09 56.2511 219.059 54.22 216.553 54.22C214.048 54.22 212.017 56.2511 212.017 58.7567C212.017 61.2622 214.048 63.2934 216.553 63.2934Z" fill="#5183BB"/>
<path d="M248.611 63.2934C251.117 63.2934 253.148 61.2622 253.148 58.7567C253.148 56.2511 251.117 54.22 248.611 54.22C246.106 54.22 244.075 56.2511 244.075 58.7567C244.075 61.2622 246.106 63.2934 248.611 63.2934Z" fill="#5183BB"/>
<path d="M280.975 63.2934C283.481 63.2934 285.512 61.2622 285.512 58.7567C285.512 56.2511 283.481 54.22 280.975 54.22C278.47 54.22 276.438 56.2511 276.438 58.7567C276.438 61.2622 278.47 63.2934 280.975 63.2934Z" fill="#5183BB"/>
<path d="M313.033 63.2934C315.538 63.2934 317.57 61.2622 317.57 58.7567C317.57 56.2511 315.538 54.22 313.033 54.22C310.527 54.22 308.496 56.2511 308.496 58.7567C308.496 61.2622 310.527 63.2934 313.033 63.2934Z" fill="#5183BB"/>
<path d="M345.394 63.2934C347.9 63.2934 349.931 61.2622 349.931 58.7567C349.931 56.2511 347.9 54.22 345.394 54.22C342.889 54.22 340.857 56.2511 340.857 58.7567C340.857 61.2622 342.889 63.2934 345.394 63.2934Z" fill="#5183BB"/>
<path d="M316.059 89.0012H283.697C277.95 89.0012 273.414 93.5379 273.414 99.2844V131.646C273.414 137.393 277.95 141.93 283.697 141.93H316.059C321.805 141.93 326.342 137.393 326.342 131.646V98.982C326.342 93.5379 321.805 89.0012 316.059 89.0012Z" fill="white"/>
<path d="M242.868 89.0012H210.506C204.759 89.0012 200.223 93.5379 200.223 99.2844V131.646C200.223 137.393 204.759 141.93 210.506 141.93H242.868C248.614 141.93 253.151 137.393 253.151 131.646V98.982C253.151 93.5379 248.614 89.0012 242.868 89.0012Z" fill="#5183BB"/>
<path d="M385.256 88.9836H353.969C348.414 88.9836 344.028 93.485 344.028 99.1868V131.297C344.028 136.998 348.414 141.5 353.969 141.5H385.256C390.811 141.5 395.197 136.998 395.197 131.297V98.8867C395.197 93.485 390.811 88.9836 385.256 88.9836Z" fill="white"/>
<path d="M170.883 89.0012H138.521C132.775 89.0012 128.238 93.5379 128.238 99.2844V131.646C128.238 137.393 132.775 141.93 138.521 141.93H170.883C176.629 141.93 181.166 137.393 181.166 131.646V98.982C180.864 93.5379 176.327 89.0012 170.883 89.0012Z" fill="#F7FBFD"/>
<g filter="url(#filter1_d)">
<path d="M50.3916 173.009C77.1176 173.009 98.7833 151.343 98.7833 124.617C98.7833 97.891 77.1176 76.2253 50.3916 76.2253C23.6657 76.2253 2 97.891 2 124.617C2 151.343 23.6657 173.009 50.3916 173.009Z" fill="url(#paint0_linear)"/>
</g>
<path d="M41.6183 146.091C40.4086 146.091 39.1988 145.486 38.2914 144.579L22.5641 128.851C20.7495 127.037 20.7495 123.71 22.5641 121.895C24.3788 120.08 27.7058 120.08 29.5204 121.895L41.9208 134.295L70.0484 106.168C71.8631 104.353 75.19 104.353 77.0047 106.168C78.8194 107.982 78.8194 111.309 77.0047 113.124L45.2477 144.579C44.3404 145.486 43.1306 146.091 41.6183 146.091Z" fill="white"/>
<g filter="url(#filter2_d)">
<path d="M519.908 28.5122H437.944C432.198 28.5122 427.661 33.0489 427.661 38.7954V111.383C427.661 114.105 430.988 115.315 432.803 113.5L451.554 94.7483C453.067 93.236 455.486 92.3287 457.906 92.3287H520.21C525.957 92.3287 530.796 87.4895 530.796 81.743V38.7954C530.493 33.0489 525.654 28.5122 519.908 28.5122Z" fill="#BADBFF"/>
</g>
<path d="M509.929 47.2646H451.556C449.439 47.2646 447.927 49.0793 447.927 50.894C447.927 53.0112 449.741 54.5234 451.556 54.5234H509.929C512.046 54.5234 513.558 52.7087 513.558 50.894C513.86 49.0793 512.046 47.2646 509.929 47.2646Z" fill="#5183BB"/>
<path d="M487.245 69.0391H451.556C449.439 69.0391 447.927 70.8538 447.927 72.6684C447.927 74.7856 449.741 76.2978 451.556 76.2978H487.245C489.362 76.2978 490.874 74.4831 490.874 72.6684C490.874 70.5513 489.06 69.0391 487.245 69.0391Z" fill="#5183BB"/>
<path d="M415.865 357.273V368.766H384.713C382.898 368.766 381.991 366.347 383.503 365.137C387.133 362.415 393.484 358.786 402.557 357.273H415.865Z" fill="#004E82"/>
<path d="M472.424 357.273V368.766H441.272C439.457 368.766 438.55 366.347 440.062 365.137C443.692 362.415 450.043 358.786 459.117 357.273H472.424Z" fill="#004E82"/>
<path d="M472.727 357.575C470.61 342.755 456.092 243.552 453.068 241.133C450.043 238.713 427.662 264.421 427.662 264.421C430.082 266.841 452.765 342.15 459.419 357.575H472.727Z" fill="#004E82"/>
<path d="M415.563 357.576C420.705 340.941 432.5 288.013 446.715 269.563C453.369 260.792 453.369 239.016 453.369 239.016L414.353 246.88C408.002 259.885 403.768 337.614 402.86 357.576H415.563Z" fill="#5183BB"/>
<path d="M442.483 186.995C440.064 180.341 405.282 136.789 405.282 136.789L392.882 142.535C392.882 142.535 415.868 182.761 421.614 191.229L442.483 186.995Z" fill="#64D3B5"/>
<path d="M414.656 153.121C414.656 153.121 403.465 147.072 412.236 134.974C412.236 134.974 416.773 142.535 425.544 140.115C452.764 131.647 453.974 160.077 449.135 170.36C447.018 174.897 441.574 178.224 440.364 177.921C439.154 177.619 434.013 167.638 434.013 167.638L414.656 153.121Z" fill="#004E82"/>
<path d="M414.963 152.516C413.451 154.633 413.753 159.169 413.753 161.891C413.753 169.15 418.592 174.594 424.944 174.594C429.48 174.594 433.412 171.57 435.529 167.638C437.949 168.243 440.369 166.126 441.276 163.706C442.183 160.984 440.973 158.262 438.554 157.355C437.647 157.052 436.437 157.96 435.529 158.262C435.529 158.262 430.69 156.447 428.876 151.608L414.963 152.516Z" fill="#FFE27C"/>
<path d="M439.459 166.126L427.361 168.546V182.761H439.459V166.126Z" fill="#FFE27C"/>
<path d="M457.302 241.133C457.302 241.133 448.229 189.716 447.019 186.389C445.507 183.063 440.668 180.945 426.755 181.248C418.891 181.248 393.183 176.711 388.949 174.896C384.715 173.082 361.729 145.257 361.729 145.257L351.143 152.213C351.143 152.213 372.919 186.389 379.271 188.809C385.925 190.926 409.213 199.092 409.213 199.092L410.12 249.299C410.12 248.694 441.877 263.514 457.302 241.133Z" fill="url(#paint1_linear)"/>
<path d="M361.427 145.559C361.427 145.559 355.983 131.949 354.471 131.646C353.261 131.344 352.354 136.788 352.354 136.788C352.354 136.788 347.212 124.085 344.49 123.782C341.768 123.782 339.046 138.905 351.749 151.305L361.427 145.559Z" fill="#FFE27C"/>
<path d="M395 141.628C395 141.628 385.019 130.134 386.834 129.53C388.649 129.227 392.58 132.252 392.58 132.252C392.58 132.252 385.624 116.524 390.161 115.919C394.697 115.315 403.468 129.832 405.283 136.486L395 141.628Z" fill="#FFE27C"/>
<defs>
<filter id="filter0_d" x="129.27" y="41.2002" width="274.62" height="36.2779" filterUnits="userSpaceOnUse" color-interpolation-filters="sRGB">
<feFlood flood-opacity="0" result="BackgroundImageFix"/>
<feColorMatrix in="SourceAlpha" type="matrix" values="0 0 0 0 0 0 0 0 0 0 0 0 0 0 0 0 0 0 127 0" result="hardAlpha"/>
<feOffset dx="2" dy="2"/>
<feGaussianBlur stdDeviation="2"/>
<feColorMatrix type="matrix" values="0 0 0 0 0.0846528 0 0 0 0 0.150363 0 0 0 0 0.383333 0 0 0 0.25 0"/>
<feBlend mode="normal" in2="BackgroundImageFix" result="effect1_dropShadow"/>
<feBlend mode="normal" in="SourceGraphic" in2="effect1_dropShadow" result="shape"/>
</filter>
<filter id="filter1_d" x="0" y="74.2253" width="104.783" height="104.783" filterUnits="userSpaceOnUse" color-interpolation-filters="sRGB">
<feFlood flood-opacity="0" result="BackgroundImageFix"/>
<feColorMatrix in="SourceAlpha" type="matrix" values="0 0 0 0 0 0 0 0 0 0 0 0 0 0 0 0 0 0 127 0" result="hardAlpha"/>
<feOffset dx="2" dy="2"/>
<feGaussianBlur stdDeviation="2"/>
<feColorMatrix type="matrix" values="0 0 0 0 0.0846528 0 0 0 0 0.150363 0 0 0 0 0.383333 0 0 0 0.25 0"/>
<feBlend mode="normal" in2="BackgroundImageFix" result="effect1_dropShadow"/>
<feBlend mode="normal" in="SourceGraphic" in2="effect1_dropShadow" result="shape"/>
</filter>
<filter id="filter2_d" x="425.661" y="26.5122" width="111.135" height="93.8507" filterUnits="userSpaceOnUse" color-interpolation-filters="sRGB">
<feFlood flood-opacity="0" result="BackgroundImageFix"/>
<feColorMatrix in="SourceAlpha" type="matrix" values="0 0 0 0 0 0 0 0 0 0 0 0 0 0 0 0 0 0 127 0" result="hardAlpha"/>
<feOffset dx="2" dy="2"/>
<feGaussianBlur stdDeviation="2"/>
<feColorMatrix type="matrix" values="0 0 0 0 0.0846528 0 0 0 0 0.150363 0 0 0 0 0.383333 0 0 0 0.25 0"/>
<feBlend mode="normal" in2="BackgroundImageFix" result="effect1_dropShadow"/>
<feBlend mode="normal" in="SourceGraphic" in2="effect1_dropShadow" result="shape"/>
</filter>
<linearGradient id="paint0_linear" x1="50.3916" y1="76.2253" x2="50.3916" y2="173.009" gradientUnits="userSpaceOnUse">
<stop stop-color="#B0E7C6"/>
<stop offset="1" stop-color="#5DD1B3"/>
</linearGradient>
<linearGradient id="paint1_linear" x1="404.223" y1="145.257" x2="404.223" y2="253.554" gradientUnits="userSpaceOnUse">
<stop stop-color="#B0E7C6"/>
<stop offset="1" stop-color="#5DD1B3"/>
</linearGradient>
</defs>
</svg>
