<svg fill="none" height="675" viewBox="0 0 1440 675" width="1440" xmlns="http://www.w3.org/2000/svg" xmlns:xlink="http://www.w3.org/1999/xlink"><filter id="a" color-interpolation-filters="sRGB" filterUnits="userSpaceOnUse" height="36.2779" width="274.62" x="1071.27" y="240.2"><feFlood flood-opacity="0" result="BackgroundImageFix"/><feColorMatrix in="SourceAlpha" result="hardAlpha" type="matrix" values="0 0 0 0 0 0 0 0 0 0 0 0 0 0 0 0 0 0 127 0"/><feOffset dx="2" dy="2"/><feGaussianBlur stdDeviation="2"/><feColorMatrix type="matrix" values="0 0 0 0 0.0846528 0 0 0 0 0.150363 0 0 0 0 0.383333 0 0 0 0.25 0"/><feBlend in2="BackgroundImageFix" mode="normal" result="effect1_dropShadow"/><feBlend in="SourceGraphic" in2="effect1_dropShadow" mode="normal" result="shape"/></filter><filter id="b" color-interpolation-filters="sRGB" filterUnits="userSpaceOnUse" height="104.783" width="104.783" x="942" y="273.225"><feFlood flood-opacity="0" result="BackgroundImageFix"/><feColorMatrix in="SourceAlpha" result="hardAlpha" type="matrix" values="0 0 0 0 0 0 0 0 0 0 0 0 0 0 0 0 0 0 127 0"/><feOffset dx="2" dy="2"/><feGaussianBlur stdDeviation="2"/><feColorMatrix type="matrix" values="0 0 0 0 0.0846528 0 0 0 0 0.150363 0 0 0 0 0.383333 0 0 0 0.25 0"/><feBlend in2="BackgroundImageFix" mode="normal" result="effect1_dropShadow"/><feBlend in="SourceGraphic" in2="effect1_dropShadow" mode="normal" result="shape"/></filter><filter id="c" color-interpolation-filters="sRGB" filterUnits="userSpaceOnUse" height="93.8507" width="111.135" x="1367.66" y="225.512"><feFlood flood-opacity="0" result="BackgroundImageFix"/><feColorMatrix in="SourceAlpha" result="hardAlpha" type="matrix" values="0 0 0 0 0 0 0 0 0 0 0 0 0 0 0 0 0 0 127 0"/><feOffset dx="2" dy="2"/><feGaussianBlur stdDeviation="2"/><feColorMatrix type="matrix" values="0 0 0 0 0.0846528 0 0 0 0 0.150363 0 0 0 0 0.383333 0 0 0 0.25 0"/><feBlend in2="BackgroundImageFix" mode="normal" result="effect1_dropShadow"/><feBlend in="SourceGraphic" in2="effect1_dropShadow" mode="normal" result="shape"/></filter><linearGradient id="d"><stop offset="0" stop-color="#b0e7c6"/><stop offset="1" stop-color="#5dd1b3"/></linearGradient><linearGradient id="e" gradientUnits="userSpaceOnUse" x1="992.392" x2="992.392" xlink:href="#d" y1="275.225" y2="372.009"/><linearGradient id="f" gradientUnits="userSpaceOnUse" x1="1346.22" x2="1346.22" xlink:href="#d" y1="344.257" y2="452.554"/><path clip-rule="evenodd" d="m1440 0h-1440v675h664.769c46.562 0 91.21-18.53 124.088-51.5s77.526-51.5 124.088-51.5h527.055z" fill="#f7fbfd" fill-rule="evenodd"/><path d="m1466.87 558.644h-489.317c-3.784 0-6.621 2.244-6.621 4.713 0 2.693 3.152 4.713 6.621 4.713h489.007c3.78 0 6.62-2.245 6.62-4.713.31-2.469-2.84-4.713-6.31-4.713z" fill="#d7f1f9"/><path d="m1372.69 199.083h-326.95c-18.45 0-33.27 14.819-33.27 33.269v224.114c0 18.449 14.82 33.269 33.27 33.269h326.95c18.45 0 33.27-14.82 33.27-33.269v-224.114c0-18.147-14.82-33.269-33.27-33.269z" fill="#5183bb"/><path d="m1044.53 403.839c-7.26 0-13.31-6.049-13.31-13.308l.91-158.482c0-7.259 6.05-13.308 13.31-13.308h327.85c7.26 0 13.31 6.049 13.31 13.308l-.91 158.785c0 7.258-6.05 13.307-13.31 13.307h-327.85z" fill="#d7f1f9"/><path d="m1012.67 426.68v30.137c0 18.384 14.81 33.152 33.25 33.152h326.71c18.43 0 33.24-14.768 33.24-33.152v-30.137z" fill="#dcf3fa"/><path d="m1267.18 489.969h-115.81v44.436h115.81z" fill="#bde6ef"/><path d="m1267.18 489.969h-115.81v13.465h115.81z" fill="#a4d3dd"/><path d="m1291.8 534.405h-165.36c-16.14 0-28.93 12.925-28.93 28.555v5.109h223.53v-5.109c0-15.931-13.1-28.555-29.24-28.555z" fill="#d9f2fa"/><path d="m1222.74 460.344c0 8.194-6.32 14.812-14.14 14.812s-14.14-6.618-14.14-14.812 6.32-14.812 14.14-14.812 14.14 6.933 14.14 14.812z" fill="#5183bb"/><g filter="url(#a)"><path d="m1331.47 242.2h-249.78c-4.51 0-8.42 3.498-8.42 8.163v11.952c0 4.373 3.61 8.163 8.42 8.163h249.78c4.51 0 8.42-3.498 8.42-8.163v-11.952c0-4.665-3.91-8.163-8.42-8.163z" fill="#fff"/></g><path d="m1227.44 352.619h-150.83c-1.82 0-3.34 1.637-3.34 3.603v4.913c0 1.965 1.52 3.603 3.34 3.603h151.14c3.03 0 5.76-2.621 5.76-6.224-.3-3.275-2.73-5.895-6.07-5.895z" fill="#5183bb"/><path d="m1174.96 374.164h-98.35c-1.82 0-3.34 1.594-3.34 3.508v5.103c0 1.913 1.52 3.508 3.34 3.508h98.35c1.82 0 3.34-1.595 3.34-3.508v-5.103c0-2.232-1.52-3.508-3.34-3.508z" fill="#fff"/><g fill="#5183bb"><path d="m1126.19 262.294c2.51 0 4.54-2.032 4.54-4.537 0-2.506-2.03-4.537-4.54-4.537-2.5 0-4.54 2.031-4.54 4.537 0 2.505 2.04 4.537 4.54 4.537z"/><path d="m1158.55 262.293c2.51 0 4.54-2.031 4.54-4.536 0-2.506-2.03-4.537-4.54-4.537-2.5 0-4.53 2.031-4.53 4.537 0 2.505 2.03 4.536 4.53 4.536z"/><path d="m1190.61 262.293c2.51 0 4.54-2.031 4.54-4.536 0-2.506-2.03-4.537-4.54-4.537-2.5 0-4.54 2.031-4.54 4.537 0 2.505 2.04 4.536 4.54 4.536z"/><path d="m1222.98 262.293c2.5 0 4.53-2.031 4.53-4.536 0-2.506-2.03-4.537-4.53-4.537-2.51 0-4.54 2.031-4.54 4.537 0 2.505 2.03 4.536 4.54 4.536z"/><path d="m1255.03 262.293c2.51 0 4.54-2.031 4.54-4.536 0-2.506-2.03-4.537-4.54-4.537-2.5 0-4.53 2.031-4.53 4.537 0 2.505 2.03 4.536 4.53 4.536z"/><path d="m1287.39 262.293c2.51 0 4.54-2.031 4.54-4.536 0-2.506-2.03-4.537-4.54-4.537-2.5 0-4.53 2.031-4.53 4.537 0 2.505 2.03 4.536 4.53 4.536z"/></g><path d="m1258.06 288.001h-32.36c-5.75 0-10.29 4.537-10.29 10.283v32.362c0 5.747 4.54 10.284 10.29 10.284h32.36c5.75 0 10.28-4.537 10.28-10.284v-32.664c0-5.444-4.53-9.981-10.28-9.981z" fill="#fff"/><path d="m1184.87 288.001h-32.36c-5.75 0-10.29 4.537-10.29 10.283v32.362c0 5.747 4.54 10.284 10.29 10.284h32.36c5.74 0 10.28-4.537 10.28-10.284v-32.664c0-5.444-4.54-9.981-10.28-9.981z" fill="#5183bb"/><path d="m1327.26 287.984h-31.29c-5.56 0-9.94 4.501-9.94 10.203v32.11c0 5.701 4.38 10.203 9.94 10.203h31.29c5.55 0 9.94-4.502 9.94-10.203v-32.41c0-5.402-4.39-9.903-9.94-9.903z" fill="#fff"/><path d="m1112.88 288.001h-32.36c-5.75 0-10.28 4.537-10.28 10.283v32.362c0 5.747 4.53 10.284 10.28 10.284h32.36c5.75 0 10.29-4.537 10.29-10.284v-32.664c-.31-5.444-4.84-9.981-10.29-9.981z" fill="#f7fbfd"/><g filter="url(#b)"><path d="m992.392 372.009c26.728 0 48.388-21.666 48.388-48.392s-21.66-48.392-48.388-48.392c-26.726 0-48.392 21.666-48.392 48.392s21.666 48.392 48.392 48.392z" fill="url(#e)"/></g><path d="m983.618 345.091c-1.209 0-2.419-.605-3.327-1.512l-15.727-15.728c-1.815-1.814-1.815-5.141 0-6.956s5.142-1.815 6.956 0l12.401 12.4 28.129-28.127c1.81-1.815 5.14-1.815 6.95 0 1.82 1.814 1.82 5.141 0 6.956l-31.752 31.455c-.908.907-2.117 1.512-3.63 1.512z" fill="#fff"/><g filter="url(#c)"><path d="m1461.91 227.512h-81.97c-5.74 0-10.28 4.537-10.28 10.283v72.588c0 2.722 3.33 3.932 5.14 2.117l18.75-18.752c1.52-1.512 3.94-2.419 6.36-2.419h62.3c5.75 0 10.59-4.839 10.59-10.586v-42.948c-.31-5.746-5.15-10.283-10.89-10.283z" fill="#badbff"/></g><path d="m1451.93 246.265h-58.37c-2.12 0-3.63 1.814-3.63 3.629 0 2.117 1.81 3.629 3.63 3.629h58.37c2.12 0 3.63-1.814 3.63-3.629.3-1.815-1.51-3.629-3.63-3.629z" fill="#5183bb"/><path d="m1429.24 268.039h-35.68c-2.12 0-3.63 1.815-3.63 3.629 0 2.118 1.81 3.63 3.63 3.63h35.68c2.12 0 3.63-1.815 3.63-3.63 0-2.117-1.81-3.629-3.63-3.629z" fill="#5183bb"/><path d="m1357.87 556.273v11.493h-31.16c-1.81 0-2.72-2.419-1.21-3.629 3.63-2.722 9.98-6.351 19.06-7.864z" fill="#004e82"/><path d="m1414.42 556.273v11.493h-31.15c-1.81 0-2.72-2.419-1.21-3.629 3.63-2.722 9.98-6.351 19.06-7.864z" fill="#004e82"/><path d="m1414.73 556.575c-2.12-14.82-16.64-114.023-19.66-116.442-3.03-2.42-25.41 23.288-25.41 23.288 2.42 2.42 25.11 77.729 31.76 93.154z" fill="#004e82"/><path d="m1357.56 556.576c5.14-16.635 16.94-69.563 31.16-88.013 6.65-8.771 6.65-30.547 6.65-30.547l-39.02 7.864c-6.35 13.005-10.58 90.734-11.49 110.696z" fill="#5183bb"/><path d="m1384.48 385.995c-2.42-6.654-37.2-50.206-37.2-50.206l-12.4 5.746s22.99 40.226 28.73 48.694z" fill="#64d3b5"/><path d="m1356.66 352.121s-11.19-6.049-2.42-18.147c0 0 4.53 7.561 13.3 5.141 27.22-8.468 28.43 19.962 23.6 30.245-2.12 4.537-7.57 7.864-8.78 7.561-1.21-.302-6.35-10.283-6.35-10.283z" fill="#004e82"/><path d="m1356.96 351.516c-1.51 2.117-1.21 6.653-1.21 9.375 0 7.259 4.84 12.703 11.19 12.703 4.54 0 8.47-3.024 10.59-6.956 2.42.605 4.84-1.512 5.75-3.932.9-2.722-.31-5.444-2.73-6.351-.9-.303-2.11.605-3.02.907 0 0-4.84-1.815-6.65-6.654z" fill="#ffe27c"/><path d="m1381.46 365.126-12.1 2.42v14.215h12.1z" fill="#ffe27c"/><path d="m1399.3 440.133s-9.07-51.417-10.28-54.744c-1.51-3.326-6.35-5.444-20.27-5.141-7.86 0-33.57-4.537-37.8-6.352-4.24-1.814-27.22-29.639-27.22-29.639l-10.59 6.956s21.78 34.176 28.13 36.596c6.65 2.117 29.94 10.283 29.94 10.283l.91 50.207c0-.605 31.76 14.215 47.18-8.166z" fill="url(#f)"/><path d="m1303.43 344.559s-5.45-13.61-6.96-13.913c-1.21-.302-2.12 5.142-2.12 5.142s-5.14-12.703-7.86-13.006c-2.72 0-5.44 15.123 7.26 27.523z" fill="#ffe27c"/><path d="m1337 340.628s-9.98-11.494-8.17-12.098c1.82-.303 5.75 2.722 5.75 2.722s-6.96-15.728-2.42-16.333c4.54-.604 13.31 13.913 15.12 20.567z" fill="#ffe27c"/></svg>