<svg width="100" height="75" viewBox="0 0 100 75" fill="none" xmlns="http://www.w3.org/2000/svg">
<g clip-path="url(#clip0_3758_17702)">
<path d="M49.9016 60.7078C62.6997 60.7078 73.0748 50.3327 73.0748 37.5349C73.0748 24.7368 62.6997 14.362 49.9016 14.362C37.1038 14.362 26.729 24.7368 26.729 37.5349C26.729 50.3327 37.1038 60.7078 49.9016 60.7078ZM49.9016 6.06934C67.2796 6.06934 81.3672 20.1572 81.3672 37.5349C81.3672 54.9128 67.2796 69.0002 49.9016 69.0002C32.524 69.0002 18.4363 54.9128 18.4363 37.5349C18.4363 20.1572 32.524 6.06934 49.9019 6.06934H49.9016Z" fill="#CF272D"/>
<path d="M48.6083 29.6982C48.6083 26.085 45.679 23.1558 42.0656 23.1558C38.4522 23.1558 35.5232 26.085 35.5232 29.6982C35.5232 33.3118 38.4522 36.2408 42.0656 36.2408C45.679 36.2408 48.6083 33.3118 48.6083 29.6982ZM48.6083 45.3709C48.6083 41.7577 45.679 38.8282 42.0656 38.8282C38.4522 38.8282 35.5232 41.7577 35.5232 45.3709C35.5232 48.9843 38.4522 51.9135 42.0656 51.9135C45.679 51.9135 48.6083 48.9843 48.6083 45.3709ZM64.2808 45.3709C64.2808 41.7577 61.3513 38.8282 57.7381 38.8282C54.1247 38.8282 51.1955 41.7577 51.1955 45.3709C51.1955 48.9843 54.1247 51.9135 57.7381 51.9135C61.3513 51.9135 64.2808 48.9843 64.2808 45.3709ZM64.2808 29.6984C64.2808 26.085 61.3513 23.156 57.7381 23.156C54.1247 23.156 51.1955 26.085 51.1955 29.6984C51.1955 33.312 54.1247 36.2411 57.7381 36.2411C61.3513 36.2411 64.2808 33.312 64.2808 29.6984Z" fill="#CF272D"/>
</g>
<defs>
<clipPath id="clip0_3758_17702">
<rect width="63" height="63" fill="white" transform="matrix(-1 0 0 1 81.3672 6)"/>
</clipPath>
</defs>
</svg>
