<svg height="443" viewBox="0 0 505 443" width="505" xmlns="http://www.w3.org/2000/svg" xmlns:xlink="http://www.w3.org/1999/xlink"><defs><rect id="a" height="248" rx="12" width="339"/><filter id="b" height="182.7%" width="149.3%" x="-24.6%" y="-34.9%"><feOffset dx="0" dy="36" in="SourceAlpha" result="shadowOffsetOuter1"/><feGaussianBlur in="shadowOffsetOuter1" result="shadowBlurOuter1" stdDeviation="21.5"/><feColorMatrix in="shadowBlurOuter1" result="shadowMatrixOuter1" type="matrix" values="0 0 0 0 0   0 0 0 0 0   0 0 0 0 0  0 0 0 0.201115263 0"/><feOffset dx="0" dy="-3" in="SourceAlpha" result="shadowOffsetOuter2"/><feGaussianBlur in="shadowOffsetOuter2" result="shadowBlurOuter2" stdDeviation="22"/><feColorMatrix in="shadowBlurOuter2" result="shadowMatrixOuter2" type="matrix" values="0 0 0 0 0   0 0 0 0 0   0 0 0 0 0  0 0 0 0.0313632246 0"/><feMerge><feMergeNode in="shadowMatrixOuter1"/><feMergeNode in="shadowMatrixOuter2"/></feMerge></filter><rect id="c" height="160" rx="12" width="184"/><filter id="d" height="228.1%" width="190.8%" x="-45.4%" y="-54.1%"><feOffset dx="0" dy="36" in="SourceAlpha" result="shadowOffsetOuter1"/><feGaussianBlur in="shadowOffsetOuter1" result="shadowBlurOuter1" stdDeviation="21.5"/><feColorMatrix in="shadowBlurOuter1" result="shadowMatrixOuter1" type="matrix" values="0 0 0 0 0   0 0 0 0 0   0 0 0 0 0  0 0 0 0.201115263 0"/><feOffset dx="0" dy="-3" in="SourceAlpha" result="shadowOffsetOuter2"/><feGaussianBlur in="shadowOffsetOuter2" result="shadowBlurOuter2" stdDeviation="22"/><feColorMatrix in="shadowBlurOuter2" result="shadowMatrixOuter2" type="matrix" values="0 0 0 0 0   0 0 0 0 0   0 0 0 0 0  0 0 0 0.0313632246 0"/><feMerge><feMergeNode in="shadowMatrixOuter1"/><feMergeNode in="shadowMatrixOuter2"/></feMerge></filter></defs><g fill="none" fill-rule="evenodd" transform="translate(44 47)"><g transform="matrix(-1 0 0 1 417 0)"><use fill="#000" filter="url(#b)" xlink:href="#a"/><use fill="#fff" fill-rule="evenodd" xlink:href="#a"/><path d="m43.2 25.2h-14.4c-1.9882251 0-3.6 1.6117749-3.6 3.6v14.4c0 1.9882251 1.6117749 3.6 3.6 3.6h14.4c1.9882251 0 3.6-1.6117749 3.6-3.6v-14.4c0-1.9882251-1.6117749-3.6-3.6-3.6zm-3.6 14.4h-7.2v-7.2h7.2zm28.8 0c1.9882251 0 3.6-1.6117749 3.6-3.6s-1.6117749-3.6-3.6-3.6h-7.2v-7.2h7.2c1.9882251 0 3.6-1.6117749 3.6-3.6s-1.6117749-3.6-3.6-3.6h-7.848c-1.0885761-3.0575371-3.4944629-5.4634239-6.552-6.552v-7.848c0-1.9882251-1.6117749-3.6-3.6-3.6s-3.6 1.6117749-3.6 3.6v7.2h-7.2v-7.2c0-1.9882251-1.6117749-3.6-3.6-3.6s-3.6 1.6117749-3.6 3.6v7.2h-7.2v-7.2c0-1.9882251-1.6117749-3.6-3.6-3.6s-3.6 1.6117749-3.6 3.6v7.848c-3.0575371 1.0885761-5.4634239 3.4944629-6.552 6.552h-7.848c-1.9882251 0-3.6 1.6117749-3.6 3.6s1.6117749 3.6 3.6 3.6h7.2v7.2h-7.2c-1.9882251 0-3.6 1.6117749-3.6 3.6s1.6117749 3.6 3.6 3.6h7.2v7.2h-7.2c-1.9882251 0-3.6 1.6117749-3.6 3.6s1.6117749 3.6 3.6 3.6h7.848c1.0885761 3.0575371 3.4944629 5.4634239 6.552 6.552v7.848c0 1.9882251 1.6117749 3.6 3.6 3.6s3.6-1.6117749 3.6-3.6v-7.2h7.2v7.2c0 1.9882251 1.6117749 3.6 3.6 3.6s3.6-1.6117749 3.6-3.6v-7.2h7.2v7.2c0 1.9882251 1.6117749 3.6 3.6 3.6s3.6-1.6117749 3.6-3.6v-7.848c3.0575371-1.0885761 5.4634239-3.4944629 6.552-6.552h7.848c1.9882251 0 3.6-1.6117749 3.6-3.6s-1.6117749-3.6-3.6-3.6h-7.2v-7.2zm-14.4 10.8c0 1.9882251-1.6117749 3.6-3.6 3.6h-28.8c-1.9882251 0-3.6-1.6117749-3.6-3.6v-28.8c0-1.9882251 1.6117749-3.6 3.6-3.6h28.8c1.9882251 0 3.6 1.6117749 3.6 3.6z" fill="#0b7a76" fill-rule="nonzero" opacity=".404231" transform="translate(133 47)"/><g fill="#e1e8ee" transform="translate(58 157)"><path d="m4.5 0h204c2.485281 0 4.5 2.01471863 4.5 4.5 0 2.48528137-2.014719 4.5-4.5 4.5h-204c-2.48528137 0-4.5-2.01471863-4.5-4.5 0-2.48528137 2.01471863-4.5 4.5-4.5z"/><rect height="9" rx="4.5" width="213" y="19"/><path d="m17.5 38h178c2.485281 0 4.5 2.0147186 4.5 4.5 0 2.4852814-2.014719 4.5-4.5 4.5h-178c-2.4852814 0-4.5-2.0147186-4.5-4.5 0-2.4852814 2.0147186-4.5 4.5-4.5z"/></g></g><g transform="translate(0 157)"><use fill="#000" filter="url(#d)" xlink:href="#c"/><use fill="#fff" fill-rule="evenodd" xlink:href="#c"/></g><path d="m53.2 0h-16.8c-1.5463973 0-2.8 1.2536027-2.8 2.8s1.2536027 2.8 2.8 2.8h14v14c0 1.5463973 1.2536027 2.8 2.8 2.8s2.8-1.2536027 2.8-2.8v-16.8c0-1.5463973-1.2536027-2.8-2.8-2.8zm0 33.6c-1.5463973 0-2.8 1.2536027-2.8 2.8v14h-14c-1.5463973 0-2.8 1.2536027-2.8 2.8s1.2536027 2.8 2.8 2.8h16.8c1.5463973 0 2.8-1.2536027 2.8-2.8v-16.8c0-1.5463973-1.2536027-2.8-2.8-2.8zm-25.2-22.4c-4.6391919 0-8.4 3.7608081-8.4 8.4v2.8c-3.0927946 0-5.6 2.5072054-5.6 5.6v11.2c0 3.0927946 2.5072054 5.6 5.6 5.6h16.8c3.0927946 0 5.6-2.5072054 5.6-5.6v-11.2c0-3.0927946-2.5072054-5.6-5.6-5.6v-2.8c0-4.6391919-3.7608081-8.4-8.4-8.4zm-2.8 8.4c0-1.5463973 1.2536027-2.8 2.8-2.8s2.8 1.2536027 2.8 2.8v2.8h-5.6zm11.2 19.6h-16.8v-11.2h16.8zm-33.6-16.8c1.5463973 0 2.8-1.2536027 2.8-2.8v-14h14c1.5463973 0 2.8-1.2536027 2.8-2.8s-1.2536027-2.8-2.8-2.8h-16.8c-1.5463973 0-2.8 1.2536027-2.8 2.8v16.8c0 1.5463973 1.2536027 2.8 2.8 2.8zm16.8 28h-14v-14c0-1.5463973-1.2536027-2.8-2.8-2.8s-2.8 1.2536027-2.8 2.8v16.8c0 1.5463973 1.2536027 2.8 2.8 2.8h16.8c1.5463973 0 2.8-1.2536027 2.8-2.8s-1.2536027-2.8-2.8-2.8z" fill="#d3d9df" fill-rule="nonzero" transform="translate(64 209)"/></g></svg>