<svg width="41" height="40" viewBox="0 0 41 40" fill="none" xmlns="http://www.w3.org/2000/svg">
<rect x="0.5" width="40" height="40" rx="8" fill="#0083E1"/>
<path fill-rule="evenodd" clip-rule="evenodd" d="M24.7731 15.0523L20.4783 19.3475L16.1834 15.0523C15.0292 13.8981 15.0292 12.02 16.1834 10.8657C17.3376 9.71151 19.2156 9.71147 20.3697 10.8657L20.4782 10.9742L20.5867 10.8657C21.7409 9.71143 23.619 9.71143 24.7731 10.8657C25.9273 12.02 25.9273 13.8981 24.7731 15.0523ZM18.2766 11.2495C17.8387 11.2495 17.4008 11.4162 17.0673 11.7496C16.4005 12.4165 16.4005 13.5016 17.0672 14.1684L20.4782 17.5796L23.8892 14.1684C24.556 13.5016 24.556 12.4165 23.8892 11.7496C23.5662 11.4266 23.1367 11.2487 22.6799 11.2487C22.2231 11.2487 21.7936 11.4266 21.4706 11.7496L20.4782 12.7421L19.4859 11.7496C19.1525 11.4163 18.7145 11.2495 18.2766 11.2495ZM30.5392 18.8283C30.9378 19.2105 31.1606 19.7253 31.1666 20.2778C31.1725 20.8302 30.9608 21.3497 30.5704 21.7405L24.9019 27.4137H15.5687L12.9849 29.9998H9.83337V24.2846L14.6242 19.4897H21.9052C23.0214 19.4897 23.9295 20.3983 23.9295 21.5151C23.9295 21.5895 23.9255 21.6628 23.9176 21.735H24.816L27.6897 18.8588C28.0686 18.4796 28.5723 18.2676 29.1082 18.2618L29.1305 18.2617C29.6582 18.2617 30.1576 18.4624 30.5392 18.8283ZM24.3838 26.1636L29.6862 20.8568C29.8371 20.7058 29.9189 20.5049 29.9167 20.2912C29.9144 20.0775 29.8282 19.8784 29.6741 19.7306C29.3677 19.4368 28.8741 19.4421 28.574 19.7425L25.3342 22.9851H23.2966C22.9336 23.3293 22.4436 23.5406 21.9053 23.5406H16.9518V22.2906H21.9053C22.3322 22.2906 22.6795 21.9427 22.6795 21.5152C22.6795 21.0876 22.3322 20.7398 21.9053 20.7398H15.1423L11.0834 24.8021V28.7497H12.4668L15.0507 26.1636H24.3838Z" fill="white"/>
<path d="M20.4783 19.3475L20.2308 19.595C20.2964 19.6606 20.3855 19.6975 20.4783 19.6975C20.5711 19.6975 20.6601 19.6606 20.7258 19.5949L20.4783 19.3475ZM24.7731 15.0523L25.0206 15.2998L25.0206 15.2998L24.7731 15.0523ZM16.1834 15.0523L15.9359 15.2998L15.9359 15.2998L16.1834 15.0523ZM16.1834 10.8657L15.9359 10.6182L15.9359 10.6182L16.1834 10.8657ZM20.3697 10.8657L20.1222 11.1132L20.1223 11.1133L20.3697 10.8657ZM20.4782 10.9742L20.2308 11.2217C20.3675 11.3583 20.589 11.3583 20.7257 11.2217L20.4782 10.9742ZM20.5867 10.8657L20.8342 11.1133L20.8342 11.1132L20.5867 10.8657ZM24.7731 10.8657L24.5256 11.1132L24.5256 11.1132L24.7731 10.8657ZM17.0673 11.7496L16.8198 11.5021L16.8198 11.5022L17.0673 11.7496ZM17.0672 14.1684L16.8197 14.4159L16.8198 14.4159L17.0672 14.1684ZM20.4782 17.5796L20.2307 17.8271C20.2964 17.8927 20.3854 17.9296 20.4782 17.9296C20.571 17.9296 20.6601 17.8927 20.7257 17.8271L20.4782 17.5796ZM23.8892 14.1684L24.1367 14.4159L24.1367 14.4159L23.8892 14.1684ZM23.8892 11.7496L24.1367 11.5022L24.1367 11.5021L23.8892 11.7496ZM21.4706 11.7496L21.2231 11.5021L21.2231 11.5022L21.4706 11.7496ZM20.4782 12.7421L20.2308 12.9895C20.2964 13.0552 20.3854 13.0921 20.4782 13.0921C20.5711 13.0921 20.6601 13.0552 20.7257 12.9895L20.4782 12.7421ZM19.4859 11.7496L19.7334 11.5022L19.7334 11.5021L19.4859 11.7496ZM30.5392 18.8283L30.2969 19.0809L30.2969 19.0809L30.5392 18.8283ZM30.5704 21.7405L30.818 21.9879L30.818 21.9878L30.5704 21.7405ZM24.9019 27.4137V27.7637C24.9948 27.7637 25.0839 27.7268 25.1495 27.6611L24.9019 27.4137ZM15.5687 27.4137V27.0637C15.4759 27.0637 15.3868 27.1006 15.3212 27.1663L15.5687 27.4137ZM12.9849 29.9998V30.3498C13.0778 30.3498 13.1668 30.3128 13.2325 30.2471L12.9849 29.9998ZM9.83337 29.9998H9.48337C9.48337 30.1931 9.64007 30.3498 9.83337 30.3498V29.9998ZM9.83337 24.2846L9.58578 24.0372C9.52021 24.1028 9.48337 24.1918 9.48337 24.2846H9.83337ZM14.6242 19.4897V19.1397C14.5313 19.1397 14.4423 19.1766 14.3766 19.2423L14.6242 19.4897ZM23.9176 21.735L23.5697 21.6973C23.559 21.7961 23.5908 21.8948 23.6571 21.9688C23.7235 22.0428 23.8182 22.085 23.9176 22.085V21.735ZM24.816 21.735V22.085C24.9089 22.085 24.998 22.0481 25.0636 21.9824L24.816 21.735ZM27.6897 18.8588L27.4421 18.6115V18.6115L27.6897 18.8588ZM29.1082 18.2618L29.1062 17.9118L29.1044 17.9119L29.1082 18.2618ZM29.1305 18.2617V17.9117L29.1286 17.9117L29.1305 18.2617ZM29.6862 20.8568L29.9338 21.1042L29.9338 21.1042L29.6862 20.8568ZM24.3838 26.1636V26.5136C24.4767 26.5136 24.5658 26.4767 24.6314 26.411L24.3838 26.1636ZM29.9167 20.2912L29.5667 20.2949L29.9167 20.2912ZM29.6741 19.7306L29.4318 19.9833V19.9833L29.6741 19.7306ZM28.574 19.7425L28.3264 19.4951L28.3264 19.4951L28.574 19.7425ZM25.3342 22.9851V23.3351C25.427 23.3351 25.5161 23.2982 25.5818 23.2325L25.3342 22.9851ZM23.2966 22.9851V22.6351C23.207 22.6351 23.1208 22.6695 23.0558 22.7311L23.2966 22.9851ZM16.9518 23.5406H16.6018C16.6018 23.7339 16.7585 23.8906 16.9518 23.8906V23.5406ZM16.9518 22.2906V21.9406C16.7585 21.9406 16.6018 22.0973 16.6018 22.2906H16.9518ZM15.1423 20.7398V20.3898C15.0494 20.3898 14.9603 20.4267 14.8947 20.4924L15.1423 20.7398ZM11.0834 24.8021L10.8358 24.5548C10.7702 24.6204 10.7334 24.7094 10.7334 24.8021H11.0834ZM11.0834 28.7497H10.7334C10.7334 28.943 10.8901 29.0997 11.0834 29.0997V28.7497ZM12.4668 28.7497V29.0997C12.5597 29.0997 12.6487 29.0628 12.7144 28.9971L12.4668 28.7497ZM15.0507 26.1636V25.8136C14.9578 25.8136 14.8687 25.8506 14.8031 25.9163L15.0507 26.1636ZM20.7258 19.5949L25.0206 15.2998L24.5256 14.8049L20.2308 19.1L20.7258 19.5949ZM15.9359 15.2998L20.2308 19.595L20.7258 19.1L16.4309 14.8049L15.9359 15.2998ZM15.9359 10.6182C14.645 11.9092 14.645 14.0089 15.9359 15.2998L16.4309 14.8049C15.4134 13.7873 15.4134 12.1308 16.4309 11.1132L15.9359 10.6182ZM20.6172 10.6182C19.3264 9.32728 17.2268 9.32735 15.9359 10.6182L16.4309 11.1132C17.4484 10.0957 19.1048 10.0957 20.1222 11.1132L20.6172 10.6182ZM20.7257 10.7266L20.6172 10.6182L20.1223 11.1133L20.2308 11.2217L20.7257 10.7266ZM20.3393 10.6182L20.2308 10.7266L20.7257 11.2217L20.8342 11.1133L20.3393 10.6182ZM25.0206 10.6182C23.7298 9.32725 21.6301 9.32725 20.3392 10.6182L20.8342 11.1132C21.8517 10.0956 23.5082 10.0956 24.5256 11.1132L25.0206 10.6182ZM25.0206 15.2998C26.3115 14.0089 26.3115 11.9092 25.0206 10.6182L24.5256 11.1132C25.5431 12.1308 25.5431 13.7873 24.5256 14.8049L25.0206 15.2998ZM17.3148 11.9971C17.5798 11.7322 17.9274 11.5995 18.2766 11.5995V10.8995C17.7499 10.8995 17.2218 11.1002 16.8198 11.5021L17.3148 11.9971ZM17.3148 13.921C16.7847 13.3908 16.7847 12.5273 17.3148 11.9971L16.8198 11.5022C16.0164 12.3057 16.0164 13.6123 16.8197 14.4159L17.3148 13.921ZM20.7257 17.3321L17.3147 13.9209L16.8198 14.4159L20.2307 17.8271L20.7257 17.3321ZM23.6417 13.9209L20.2307 17.3321L20.7257 17.8271L24.1367 14.4159L23.6417 13.9209ZM23.6417 11.9971C24.1718 12.5273 24.1718 13.3908 23.6417 13.921L24.1367 14.4159C24.9401 13.6123 24.9401 12.3057 24.1367 11.5022L23.6417 11.9971ZM22.6799 11.5987C23.0438 11.5987 23.3843 11.7398 23.6417 11.9971L24.1367 11.5021C23.748 11.1135 23.2295 10.8987 22.6799 10.8987V11.5987ZM21.7181 11.9971C21.9755 11.7397 22.3159 11.5987 22.6799 11.5987V10.8987C22.1302 10.8987 21.6118 11.1135 21.2231 11.5021L21.7181 11.9971ZM20.7257 12.9895L21.7181 11.9971L21.2231 11.5022L20.2308 12.4946L20.7257 12.9895ZM19.2384 11.9971L20.2308 12.9895L20.7257 12.4946L19.7334 11.5022L19.2384 11.9971ZM18.2766 11.5995C18.6258 11.5995 18.9735 11.7322 19.2384 11.9971L19.7334 11.5021C19.3315 11.1003 18.8033 10.8995 18.2766 10.8995V11.5995ZM31.5166 20.274C31.5096 19.6275 31.248 19.023 30.7814 18.5756L30.2969 19.0809C30.6277 19.398 30.8117 19.8231 30.8166 20.2815L31.5166 20.274ZM30.818 21.9878C31.2749 21.5305 31.5235 20.9205 31.5166 20.274L30.8166 20.2815C30.8216 20.7399 30.6467 21.1689 30.3228 21.4931L30.818 21.9878ZM25.1495 27.6611L30.818 21.9879L30.3228 21.4931L24.6543 27.1663L25.1495 27.6611ZM15.5687 27.7637H24.9019V27.0637H15.5687V27.7637ZM13.2325 30.2471L15.8163 27.6611L15.3212 27.1663L12.7373 29.7524L13.2325 30.2471ZM9.83337 30.3498H12.9849V29.6498H9.83337V30.3498ZM9.48337 24.2846V29.9998H10.1834V24.2846H9.48337ZM14.3766 19.2423L9.58578 24.0372L10.081 24.532L14.8718 19.7371L14.3766 19.2423ZM21.9052 19.1397H14.6242V19.8397H21.9052V19.1397ZM24.2795 21.5151C24.2795 20.2052 23.2149 19.1397 21.9052 19.1397V19.8397C22.8279 19.8397 23.5795 20.5914 23.5795 21.5151H24.2795ZM24.2656 21.7727C24.2748 21.6879 24.2795 21.6021 24.2795 21.5151H23.5795C23.5795 21.5769 23.5761 21.6376 23.5697 21.6973L24.2656 21.7727ZM24.816 21.385H23.9176V22.085H24.816V21.385ZM27.4421 18.6115L24.5684 21.4876L25.0636 21.9824L27.9373 19.1062L27.4421 18.6115ZM29.1044 17.9119C28.477 17.9186 27.8857 18.1675 27.4421 18.6115L27.9373 19.1062C28.2515 18.7917 28.6677 18.6166 29.1119 18.6118L29.1044 17.9119ZM29.1286 17.9117L29.1062 17.9118L29.1101 18.6118L29.1325 18.6117L29.1286 17.9117ZM30.7814 18.5756C30.3347 18.1474 29.7485 17.9117 29.1305 17.9117V18.6117C29.5678 18.6117 29.9805 18.7775 30.2969 19.0809L30.7814 18.5756ZM29.4386 20.6095L24.1362 25.9163L24.6314 26.411L29.9338 21.1042L29.4386 20.6095ZM29.5667 20.2949C29.5679 20.4147 29.5229 20.525 29.4385 20.6095L29.9338 21.1042C30.1512 20.8865 30.2699 20.5952 30.2666 20.2875L29.5667 20.2949ZM29.4318 19.9833C29.5181 20.0659 29.5654 20.1753 29.5667 20.2949L30.2666 20.2875C30.2634 19.9797 30.1384 19.6909 29.9163 19.478L29.4318 19.9833ZM28.8215 19.9899C28.9871 19.8242 29.263 19.8213 29.4318 19.9833L29.9163 19.478C29.4724 19.0523 28.7612 19.06 28.3264 19.4951L28.8215 19.9899ZM25.5818 23.2325L28.8216 19.9898L28.3264 19.4951L25.0866 22.7378L25.5818 23.2325ZM23.2966 23.3351H25.3342V22.6351H23.2966V23.3351ZM21.9053 23.8906C22.5371 23.8906 23.1122 23.6422 23.5374 23.2391L23.0558 22.7311C22.755 23.0163 22.3502 23.1906 21.9053 23.1906V23.8906ZM16.9518 23.8906H21.9053V23.1906H16.9518V23.8906ZM16.6018 22.2906V23.5406H17.3018V22.2906H16.6018ZM21.9053 21.9406H16.9518V22.6406H21.9053V21.9406ZM22.3295 21.5152C22.3295 21.7499 22.1384 21.9406 21.9053 21.9406V22.6406C22.526 22.6406 23.0295 22.1355 23.0295 21.5152H22.3295ZM21.9053 21.0898C22.1384 21.0898 22.3295 21.2805 22.3295 21.5152H23.0295C23.0295 20.8948 22.526 20.3898 21.9053 20.3898V21.0898ZM15.1423 21.0898H21.9053V20.3898H15.1423V21.0898ZM11.331 25.0495L15.3899 20.9872L14.8947 20.4924L10.8358 24.5548L11.331 25.0495ZM11.4334 28.7497V24.8021H10.7334V28.7497H11.4334ZM12.4668 28.3997H11.0834V29.0997H12.4668V28.3997ZM14.8031 25.9163L12.2192 28.5023L12.7144 28.9971L15.2983 26.411L14.8031 25.9163ZM24.3838 25.8136H15.0507V26.5136H24.3838V25.8136Z" fill="white"/>
</svg>
