<?xml version="1.0" encoding="UTF-8"?>
<svg width="571px" height="469px" viewBox="0 0 571 469" version="1.1" xmlns="http://www.w3.org/2000/svg" xmlns:xlink="http://www.w3.org/1999/xlink">
    <!-- Generator: Sketch 52.6 (67491) - http://www.bohemiancoding.com/sketch -->
    <title>Group 5</title>
    <desc>Created with Sketch.</desc>
    <defs>
        <rect id="path-1" x="0" y="0" width="184" height="160" rx="12"></rect>
        <filter x="-45.4%" y="-54.1%" width="190.8%" height="228.1%" filterUnits="objectBoundingBox" id="filter-2">
            <feOffset dx="0" dy="36" in="SourceAlpha" result="shadowOffsetOuter1"></feOffset>
            <feGaussianBlur stdDeviation="21.5" in="shadowOffsetOuter1" result="shadowBlurOuter1"></feGaussianBlur>
            <feColorMatrix values="0 0 0 0 0   0 0 0 0 0   0 0 0 0 0  0 0 0 0.201115263 0" type="matrix" in="shadowBlurOuter1" result="shadowMatrixOuter1"></feColorMatrix>
            <feOffset dx="0" dy="-3" in="SourceAlpha" result="shadowOffsetOuter2"></feOffset>
            <feGaussianBlur stdDeviation="22" in="shadowOffsetOuter2" result="shadowBlurOuter2"></feGaussianBlur>
            <feColorMatrix values="0 0 0 0 0   0 0 0 0 0   0 0 0 0 0  0 0 0 0.0313632246 0" type="matrix" in="shadowBlurOuter2" result="shadowMatrixOuter2"></feColorMatrix>
            <feMerge>
                <feMergeNode in="shadowMatrixOuter1"></feMergeNode>
                <feMergeNode in="shadowMatrixOuter2"></feMergeNode>
            </feMerge>
        </filter>
        <rect id="path-3" x="0" y="0" width="339" height="248" rx="12"></rect>
        <filter x="-24.6%" y="-34.9%" width="149.3%" height="182.7%" filterUnits="objectBoundingBox" id="filter-4">
            <feOffset dx="0" dy="36" in="SourceAlpha" result="shadowOffsetOuter1"></feOffset>
            <feGaussianBlur stdDeviation="21.5" in="shadowOffsetOuter1" result="shadowBlurOuter1"></feGaussianBlur>
            <feColorMatrix values="0 0 0 0 0   0 0 0 0 0   0 0 0 0 0  0 0 0 0.201115263 0" type="matrix" in="shadowBlurOuter1" result="shadowMatrixOuter1"></feColorMatrix>
            <feOffset dx="0" dy="-3" in="SourceAlpha" result="shadowOffsetOuter2"></feOffset>
            <feGaussianBlur stdDeviation="22" in="shadowOffsetOuter2" result="shadowBlurOuter2"></feGaussianBlur>
            <feColorMatrix values="0 0 0 0 0   0 0 0 0 0   0 0 0 0 0  0 0 0 0.0313632246 0" type="matrix" in="shadowBlurOuter2" result="shadowMatrixOuter2"></feColorMatrix>
            <feMerge>
                <feMergeNode in="shadowMatrixOuter1"></feMergeNode>
                <feMergeNode in="shadowMatrixOuter2"></feMergeNode>
            </feMerge>
        </filter>
    </defs>
    <g id="Landing-page" stroke="none" stroke-width="1" fill="none" fill-rule="evenodd">
        <g id="1.9--Security" transform="translate(-774.000000, -981.000000)">
            <g id="Group-6" transform="translate(139.000000, 1028.000000)">
                <g id="Group-5" transform="translate(679.000000, 0.000000)">
                    <g id="Group-51" transform="translate(0.000000, 183.000000)">
                        <g id="Group-31">
                            <g id="mcokup-2">
                                <g id="Group-4">
                                    <g id="Rectangle-5">
                                        <use fill="black" fill-opacity="1" filter="url(#filter-2)" xlink:href="#path-1"></use>
                                        <use fill="#FFFFFF" fill-rule="evenodd" xlink:href="#path-1"></use>
                                    </g>
                                    <g id="building" opacity="0.500372024" transform="translate(59.000000, 46.000000)" fill="#A6B3BF" fill-rule="nonzero">
                                        <path d="M40.3614458,20.1807229 L43.5903614,20.1807229 C45.3736423,20.1807229 46.8192771,18.7350881 46.8192771,16.9518072 C46.8192771,15.1685263 45.3736423,13.7228916 43.5903614,13.7228916 L40.3614458,13.7228916 C38.5781649,13.7228916 37.1325301,15.1685263 37.1325301,16.9518072 C37.1325301,18.7350881 38.5781649,20.1807229 40.3614458,20.1807229 Z M40.3614458,33.0963855 L43.5903614,33.0963855 C45.3736423,33.0963855 46.8192771,31.6507508 46.8192771,29.8674699 C46.8192771,28.084189 45.3736423,26.6385542 43.5903614,26.6385542 L40.3614458,26.6385542 C38.5781649,26.6385542 37.1325301,28.084189 37.1325301,29.8674699 C37.1325301,31.6507508 38.5781649,33.0963855 40.3614458,33.0963855 Z M23.4096386,20.1807229 L26.6385542,20.1807229 C28.4218351,20.1807229 29.8674699,18.7350881 29.8674699,16.9518072 C29.8674699,15.1685263 28.4218351,13.7228916 26.6385542,13.7228916 L23.4096386,13.7228916 C21.6263577,13.7228916 20.1807229,15.1685263 20.1807229,16.9518072 C20.1807229,18.7350881 21.6263577,20.1807229 23.4096386,20.1807229 Z M23.4096386,33.0963855 L26.6385542,33.0963855 C28.4218351,33.0963855 29.8674699,31.6507508 29.8674699,29.8674699 C29.8674699,28.084189 28.4218351,26.6385542 26.6385542,26.6385542 L23.4096386,26.6385542 C21.6263577,26.6385542 20.1807229,28.084189 20.1807229,29.8674699 C20.1807229,31.6507508 21.6263577,33.0963855 23.4096386,33.0963855 Z M63.65,60.3 L60.3,60.3 L60.3,3.35 C60.3,1.49984609 58.8001539,0 56.95,0 L10.05,0 C8.19984609,0 6.7,1.49984609 6.7,3.35 L6.7,60.3 L3.35,60.3 C1.49984609,60.3 0,61.7998461 0,63.65 C0,65.5001539 1.49984609,67 3.35,67 L63.65,67 C65.5001539,67 67,65.5001539 67,63.65 C67,61.7998461 65.5001539,60.3 63.65,60.3 Z M37.1325301,60.5421687 L30.6746988,60.5421687 L30.6746988,46.8192771 L37.1325301,46.8192771 L37.1325301,60.5421687 Z M54.0843373,59.7349398 L43.9939759,59.7349398 L43.9939759,43.0858434 C43.9939759,41.246835 42.4881063,39.7560241 40.6305221,39.7560241 L27.1767068,39.7560241 C25.3191226,39.7560241 23.813253,41.246835 23.813253,43.0858434 L23.813253,59.7349398 L13.7228916,59.7349398 L13.7228916,6.45783133 L54.0843373,6.45783133 L54.0843373,59.7349398 Z" id="Shape"></path>
                                    </g>
                                </g>
                            </g>
                        </g>
                    </g>
                    <g id="Group-51" transform="translate(313.500000, 124.000000) scale(-1, 1) translate(-313.500000, -124.000000) translate(144.000000, 0.000000)">
                        <g id="Group-31">
                            <g id="mcokup-2">
                                <g id="Group-4">
                                    <g id="Rectangle-5">
                                        <use fill="black" fill-opacity="1" filter="url(#filter-4)" xlink:href="#path-3"></use>
                                        <use fill="#FFFFFF" fill-rule="evenodd" xlink:href="#path-3"></use>
                                    </g>
                                    <g id="cloud-database-tree" transform="translate(22.000000, 22.000000)" fill="#0B7A76" fill-opacity="0.6" fill-rule="nonzero">
                                        <path d="M89,54.4253656 C89,49.789676 85.2039125,46.031707 80.5212013,46.031707 L55.0848051,46.031707 C50.4020938,46.031707 46.6060063,49.789676 46.6060063,54.4253656 L33.8878082,54.4253656 L33.8878082,41.8348777 L43.7656088,41.8348777 C51.3749971,41.8474313 57.8707022,36.3953785 59.1028898,28.9618078 C60.3350774,21.5282371 55.940092,14.3070178 48.725706,11.9114848 C44.7484488,3.70102561 35.876193,-1.03317322 26.7616929,0.19157864 C17.6471927,1.4163305 10.3707181,8.32049887 8.74816999,17.2834263 C2.81785486,19.2130013 -0.821217638,25.1180662 0.158859755,31.2211631 C1.13893715,37.32426 6.44840663,41.8210212 12.6908114,41.8348777 L25.4090095,41.8348777 L25.4090095,75.4095121 C25.4090095,77.7273569 27.3070532,79.6063414 29.6484089,79.6063414 L46.6060063,79.6063414 C46.6060063,84.242031 50.4020938,88 55.0848051,88 L80.5212013,88 C85.2039125,88 89,84.242031 89,79.6063414 L89,71.2126828 C88.9844945,69.7346753 88.5750137,68.2869288 87.8129682,67.0158535 C88.5750137,65.7447782 88.9844945,64.2970317 89,62.8190242 L89,54.4253656 Z M12.2997653,34 C9.92507048,34 8,32.0709003 8,29.6912353 C8,27.3115702 9.92507048,25.3824706 12.2997653,25.3824706 C14.67446,25.3824706 16.5995305,23.4533709 16.5995305,21.0737059 C16.5278555,14.7216447 21.0726453,9.2588415 27.3209046,8.18669475 C33.569164,7.114548 39.6687682,10.7508661 41.7101596,16.7649411 C42.223987,18.2568526 43.5106689,19.3478622 45.0639765,19.6087259 C48.5562581,20.1880212 51.0880818,23.2583075 50.9976525,26.8043629 C50.9976525,30.7784035 47.7827849,34 43.8170446,34 L12.2997653,34 Z M46.804878,71 L34,71 L34,63 L46.804878,63 C46.8204892,64.4086897 47.2327608,65.7885375 48,67 C47.2327608,68.2114625 46.8204892,69.5913103 46.804878,71 Z M55,79 L55,71 L81,71 L81,79 L55,79 Z M55,62 L55,54 L81,54 L81,62 L55,62 Z" id="Shape" transform="translate(44.500000, 44.000000) scale(-1, 1) translate(-44.500000, -44.000000) "></path>
                                    </g>
                                </g>
                                <path d="M168,39 L302.5,39 C304.709139,39 306.5,40.790861 306.5,43 L306.5,43 C306.5,45.209139 304.709139,47 302.5,47 L168,47 C165.790861,47 164,45.209139 164,43 L164,43 C164,40.790861 165.790861,39 168,39 Z" id="Rectangle-7" fill="#E1E8EE"></path>
                                <path d="M225,57 L302.089928,57 C304.299067,57 306.089928,58.790861 306.089928,61 L306.089928,61 C306.089928,63.209139 304.299067,65 302.089928,65 L225,65 C222.790861,65 221,63.209139 221,61 L221,61 C221,58.790861 222.790861,57 225,57 Z" id="Rectangle-7-Copy" fill="#E1E8EE"></path>
                                <path d="M168,82 L302.5,82 C304.709139,82 306.5,83.790861 306.5,86 L306.5,86 C306.5,88.209139 304.709139,90 302.5,90 L168,90 C165.790861,90 164,88.209139 164,86 L164,86 C164,83.790861 165.790861,82 168,82 Z" id="Rectangle-7" fill="#E1E8EE"></path>
                                <path d="M225,100 L302.089928,100 C304.299067,100 306.089928,101.790861 306.089928,104 L306.089928,104 C306.089928,106.209139 304.299067,108 302.089928,108 L225,108 C222.790861,108 221,106.209139 221,104 L221,104 C221,101.790861 222.790861,100 225,100 Z" id="Rectangle-7-Copy" fill="#E1E8EE"></path>
                                <g id="Group-3" transform="translate(25.000000, 156.000000)" fill="#E1E8EE">
                                    <path d="M4.5,0 L265.5,0 C267.985281,-4.56538782e-16 270,2.01471863 270,4.5 L270,4.5 C270,6.98528137 267.985281,9 265.5,9 L4.5,9 C2.01471863,9 3.04359188e-16,6.98528137 0,4.5 L0,4.5 C-3.04359188e-16,2.01471863 2.01471863,4.56538782e-16 4.5,0 Z" id="Rectangle-7-Copy-3"></path>
                                    <rect id="Rectangle-7-Copy-2" x="0" y="19" width="270" height="9" rx="4.5"></rect>
                                    <path d="M4.5,38 L233.5,38 C235.985281,38 238,40.0147186 238,42.5 L238,42.5 C238,44.9852814 235.985281,47 233.5,47 L4.5,47 C2.01471863,47 3.04359188e-16,44.9852814 0,42.5 L0,42.5 C-3.04359188e-16,40.0147186 2.01471863,38 4.5,38 Z" id="Rectangle-7-Copy-5"></path>
                                </g>
                            </g>
                        </g>
                    </g>
                </g>
            </g>
        </g>
    </g>
</svg>