<svg fill="none" height="80" viewBox="0 0 80 80" width="80" xmlns="http://www.w3.org/2000/svg"><rect fill="#00769d" height="80" rx="25" width="80"/><path d="m56.875 42.3106v-4.6211c.6953-.7105 1.125-1.6818 1.125-2.7519 0-1.0702-.4297-2.0416-1.125-2.7519v-6.9513c0-1.7834-1.451-3.2344-3.2344-3.2344h-28.4062c-1.7834 0-3.2344 1.451-3.2344 3.2344v29.5312c0 1.7834 1.451 3.2344 3.2344 3.2344h28.4062c1.7834 0 3.2344-1.451 3.2344-3.2344v-6.9512c.6953-.7104 1.125-1.6817 1.125-2.7519s-.4297-2.0415-1.125-2.7519zm-1.125-7.3731c0 .9305-.7571 1.6875-1.6875 1.6875h-1.125v-3.375h1.125c.9304 0 1.6875.757 1.6875 1.6875zm-5.0625-2.8125v5.625 4.5 5.625 2.9531c0 .5428-.4416.9844-.9844.9844h-20.5312c-.5428 0-.9844-.4416-.9844-.9844v-21.6562c0-.5428.4416-.9844.9844-.9844h20.5312c.5428 0 .9844.4416.9844.9844zm2.25 6.75h1.125c.191 0 .3787-.0144.5625-.0409v2.3317c-.1838-.0265-.3715-.0409-.5625-.0409h-1.125zm0 4.5h1.125c.9304 0 1.6875.757 1.6875 1.6875s-.7571 1.6875-1.6875 1.6875h-1.125zm.7031 12.375h-28.4062c-.5428 0-.9844-.4416-.9844-.9844v-29.5312c0-.5428.4416-.9844.9844-.9844h28.4062c.5428 0 .9844.4416.9844.9844v5.8065c-.1838-.0265-.3715-.0409-.5625-.0409h-1.125v-1.8281c0-1.7834-1.451-3.2344-3.2344-3.2344h-20.5312c-1.7834 0-3.2344 1.451-3.2344 3.2344v21.6562c0 1.7834 1.451 3.2344 3.2344 3.2344h20.5312c1.7834 0 3.2344-1.451 3.2344-3.2344v-1.8281h1.125c.191 0 .3787-.0144.5625-.0409v5.8065c0 .5428-.4416.9844-.9844.9844z" fill="#fff"/><path d="m35.5999 37.5-2.5999 2.5 2.5999 2.5m7.8002-5 2.5999 2.5-2.5999 2.5m-5.2004 2.5 2.6-10" stroke="#fff" stroke-linecap="round" stroke-linejoin="round" stroke-width="2"/></svg>