<svg fill="none" height="30" viewBox="0 0 30 30" width="30" xmlns="http://www.w3.org/2000/svg"><rect fill="#65a2fd" height="30" rx="7" width="30"/><path clip-rule="evenodd" d="m17.294 12.2946c.2304-1.1563 1.2449-1.9891 2.4239-1.9899 1.2016.0221 2.2133.9047 2.3984 2.0921.185 1.1874-.5103 2.336-1.6482 2.7226-.3263 1.5195-1.6693 2.6049-3.2235 2.6052h-3.2977c-.6637.002-1.2615.4016-1.517 1.0141 1.1011.4546 1.7218 1.6295 1.4765 2.7953-.2452 1.1657-1.2866 1.9911-2.4775 1.9635-1.191-.0276-2.19309-.9002-2.38411-2.0761-.19102-1.1758.48333-2.3208 1.60431-2.7239v-6.8923c-1.13569-.4016-1.81695-1.5629-1.61325-2.75013.2037-1.18725 1.23315-2.05507 2.43765-2.05507 1.2046 0 2.234.86782 2.4377 2.05507.2037 1.18723-.4775 2.34853-1.6132 2.75013v4.7322c.4979-.2997 1.0677-.4592 1.6489-.4616h3.2977c.6667.0013 1.2685-.3988 1.5252-1.0141-1.0886-.4527-1.7063-1.6109-1.4758-2.7671zm-4.9968-2.81406c0-.45532-.3691-.82443-.8245-.82443-.4553 0-.8244.36911-.8244.82443 0 .45533.3691.82446.8244.82446.4554 0 .8245-.36913.8245-.82446zm-.8245 12.36656c-.4553 0-.8244-.3691-.8244-.8244 0-.4554.3691-.8245.8244-.8245.4554 0 .8245.3691.8245.8245 0 .4553-.3691.8244-.8245.8244zm7.4208-9.0682c0 .4553.3691.8244.8244.8244s.8245-.3691.8245-.8244-.3692-.8244-.8245-.8244-.8244.3691-.8244.8244z" fill="#fff" fill-rule="evenodd"/></svg>