<svg fill="none" height="110" viewBox="0 0 110 110" width="110" xmlns="http://www.w3.org/2000/svg" xmlns:xlink="http://www.w3.org/1999/xlink"><filter id="a" color-interpolation-filters="sRGB" filterUnits="userSpaceOnUse" height="110" width="110" x="0" y="0"><feFlood flood-opacity="0" result="BackgroundImageFix"/><feColorMatrix in="SourceAlpha" result="hardAlpha" type="matrix" values="0 0 0 0 0 0 0 0 0 0 0 0 0 0 0 0 0 0 127 0"/><feOffset dy="6"/><feGaussianBlur stdDeviation="7.5"/><feColorMatrix type="matrix" values="0 0 0 0 0.164706 0 0 0 0 0.439216 0 0 0 0 0.690196 0 0 0 0.15 0"/><feBlend in2="BackgroundImageFix" mode="normal" result="effect1_dropShadow_3524:17098"/><feBlend in="SourceGraphic" in2="effect1_dropShadow_3524:17098" mode="normal" result="shape"/></filter><g filter="url(#a)"><rect fill="#f9fcff" height="80" rx="25" width="80" x="15" y="9"/></g><path d="m50.6504 55.1793c0 .3586.1776.694.4749.8968.3601.2452.665.3709.7817.3959.5261.0771 6.5547.7213 10.5078 1.139l-.2847 2.6947c-3.0794-.3251-10.2869-1.0899-10.7044-1.1667-.7363-.1355-1.4604-.5742-1.8264-.8236-.3487-.2377-.6492-.5286-.8958-.8568l-.0125.0127-6.5029-6.3815c-.2582-.2537-.5997-.3909-.9616-.3879-.3618.0034-.7007.1474-.9544.4056-.2534.2588-.391.6001-.3878.9621.0033.3618.1475.7008.4058.9544l10.0565 9.8687c.8035.7893 1.8667 1.2235 2.9926 1.2235h18.5226v2.71h-18.5226c-1.8404 0-3.5774-.7101-4.8908-1.9991l-10.0563-9.8689c-.7751-.7607-1.2074-1.7773-1.2176-2.8632-.0104-1.0857.4031-2.1104 1.1634-2.8853.7607-.7751 1.7773-1.2074 2.8632-1.2175 1.084-.0098 2.1102.4028 2.8855 1.1633l4.3069 4.2271c.3489-.6457.8791-1.1792 1.5221-1.5319-2.6357-2.0065-4.3404-5.1761-4.3404-8.7367 0-6.0519 4.9234-10.9753 10.9753-10.9753 2.2006 0 4.2515.6516 5.9712 1.771l-1.9005 2.0132c-1.2022-.6834-2.5916-1.0743-4.0707-1.0743-4.5574 0-8.2654 3.708-8.2654 8.2654s3.708 8.2654 8.2654 8.2654c4.4867 0 8.15-3.5937 8.2626-8.0539l2.4511-2.5963c.1708.7682.2617 1.5659.2617 2.3848 0 3.3959-1.5507 6.4364-3.9809 8.4513 2.4863.3775 4.8447 1.3332 6.9171 2.8162l1.3997 1.0014v3.3324l-2.9767-2.1298c-2.2326-1.5976-4.8634-2.4597-7.6083-2.4928-.0558-.0008-.1109-.0012-.1678-.001l-9.374.0038c-.5983-.0002-1.0846.4861-1.0846 1.0838zm2.1591-14.9512-1.8673 1.9639 5.9102 5.6187 10.9813-11.6325-1.9707-1.8601-9.1143 9.6546z" fill="#00769d"/></svg>