<svg fill="none" height="80" viewBox="0 0 80 80" width="80" xmlns="http://www.w3.org/2000/svg"><rect fill="#00b6ab" height="80" rx="25" width="80"/><path d="m35.8383 46.1392c0 .3877.192.7503.5134.9696.3893.265.7189.401.845.428.5688.0833 7.0862.7798 11.3599 1.2314l-.3079 2.9132c-3.3291-.3516-11.1209-1.1783-11.5722-1.2614-.7961-.1465-1.5789-.6207-1.9746-.8904-.377-.257-.7018-.5715-.9684-.9262l-.0135.0137-7.0301-6.899c-.2792-.2742-.6484-.4225-1.0396-.4193-.3912.0037-.7576.1593-1.0318.4386-.274.2797-.4227.6486-.4193 1.04.0037.3912.1595.7576.4388 1.0318l10.8718 10.6689c.8687.8532 2.0181 1.3227 3.2353 1.3227h20.0244v2.9297h-20.0244c-1.9897 0-3.8674-.7677-5.2874-2.1611l-10.8717-10.6691c-.8379-.8224-1.3053-1.9215-1.3163-3.0954-.0112-1.1737.4358-2.2815 1.2577-3.1192.8224-.838 1.9215-1.3053 3.0954-1.3163 1.1719-.0106 2.2813.4355 3.1195 1.2577l4.6561 4.5698c.3772-.6981.9503-1.2748 1.6454-1.6562-2.8493-2.1691-4.6923-5.5957-4.6923-9.445 0-6.5426 5.3227-11.8652 11.8653-11.8652 2.379 0 4.5961.7045 6.4553 1.9146l-2.0546 2.1764c-1.2996-.7388-2.8018-1.1613-4.4007-1.1613-4.9269 0-8.9356 4.0086-8.9356 8.9355s4.0087 8.9355 8.9356 8.9355c4.8504 0 8.8108-3.885 8.9325-8.7068l2.6498-2.8068c.1847.8304.2829 1.6928.2829 2.5781 0 3.6713-1.6763 6.9582-4.3037 9.1365 2.688.4081 5.2375 1.4413 7.4781 3.0446l1.5131 1.0826v3.6026l-3.2181-2.3025c-2.4135-1.7272-5.2576-2.6592-8.2251-2.6949-.0604-.0009-.1199-.0014-.1815-.0011l-10.1339.0041c-.6469-.0003-1.1726.5255-1.1726 1.1716zm2.3341-16.1634-2.0187 2.1231 6.3895 6.0743 11.8716-12.5757-2.1304-2.0109-9.8534 10.4374z" fill="#fff"/></svg>