<svg fill="none" height="30" viewBox="0 0 30 30" width="30" xmlns="http://www.w3.org/2000/svg"><rect fill="#ff647c" height="30" rx="7" width="30"/><path clip-rule="evenodd" d="m21.1932 8.06667 1.8052 5.86663h1.206v.5334c0 2.0585-1.6747 3.7333-3.7333 3.7333-2.0585 0-3.7333-1.6748-3.7333-3.7333v-.5334h1.206l1.8052-5.86663h-4.1134v11.73333h2.6666v2.1333h1.0667v1.0667h-8.5333v-1.0667h1.0666v-2.1333h2.6667v-11.73333h-4.1134l1.8051 5.86663h1.2061v.5334c0 2.0585-1.6748 3.7333-3.73337 3.7333-2.05856 0-3.73333-1.6748-3.73333-3.7333v-.5334h1.20604l1.80516-5.86663h-1.94453v-1.06667h16.07113v1.06667zm-14.07231 6.93303c.24783 1.2156 1.3253 2.1333 2.61309 2.1333 1.28782 0 2.36522-.9177 2.61312-2.1333zm1.20212-1.0668 1.4112-4.58642 1.41119 4.58642zm4.64599 7.9997h4.2667v-1.0667h-4.2667zm7.5031-12.58612 1.4112 4.58642h-2.8224zm-2.6134 5.65322c.2479 1.2156 1.3253 2.1333 2.6131 2.1333s2.3653-.9177 2.6131-2.1333z" fill="#fff" fill-rule="evenodd"/></svg>