<svg fill="none" height="42" viewBox="0 0 42 42" width="42" xmlns="http://www.w3.org/2000/svg"><path d="m33.6956 41.4715h-25.91969c-4.29489 0-7.77591-3.481-7.77591-7.7759v-25.91969c0-4.29489 3.48102-7.77591 7.77591-7.77591h25.91969c4.2949 0 7.7759 3.48102 7.7759 7.77591v25.91969c0 4.2949-3.481 7.7759-7.7759 7.7759z" fill="#e0f2f4"/><g fill="#00a0b6"><path clip-rule="evenodd" d="m26.1309 10.4029 4.5359 1.5422c.2631.0895.4394.3357.4394.6143v3.4707c0 4.2379-4.7291 6.2972-4.9313 6.384-.0803.035-.1671.0518-.2527.0518-.0855 0-.171-.0181-.2527-.0518-.2022-.0868-4.9312-2.1449-4.9312-6.3827v-3.472c0-.2786.1762-.5248.4393-.6143l4.536-1.5422c.136-.0466.2825-.0466.4173 0zm.2556 7.842 2.3756-3.0235c.2954-.3746.2293-.9176-.1439-1.2118-.3758-.2955-.9189-.2294-1.213.1452l-1.8196 2.3146-.8281-.7089c-.3616-.3111-.9072-.2683-1.2183.0933-.3123.3629-.2695.9072.0933 1.2182l1.5125 1.296c.1568.1348.3577.2074.5624.2074.0272 0 .057-.0013.0843-.0039.2345-.0233.4497-.1413.5948-.3266z" fill-rule="evenodd"/><path d="m10.791 20.7372c-.2346.0052-.4238.197-.4238.4328v7.9898c0 .1192.0972.2164.2164.2164h2.049c.1931 0 .3628-.1283.416-.3136l1.9116-6.7378c.1231-.4355-.1102-.893-.5353-1.0472-.7841-.2864-1.9841-.5676-3.6339-.5404z"/><path d="m29.3726 25.4881c-1.7276 0-5.184 2.1876-6.9128 2.1876-1.7276 0-3.6715-1.3232-3.6715-1.3232s2.3276.4315 3.6715.4315c1.3452 0 1.7275-.4587 1.7275-1.0795 0-1.5124-2.5686-1.747-3.8672-1.944-1.2752-.7102-1.9375-1.2714-4.0499-1.4502-.013.1231-.0324.2449-.0661.3681l-1.7353 6.117c1.966.8942 5.3511 2.3108 7.1279 2.3108 2.5919 0 9.5047-3.4564 9.5047-4.3196-.0013-.867-.8644-1.2985-1.7288-1.2985z"/></g></svg>