<svg fill="none" height="80" viewBox="0 0 80 80" width="80" xmlns="http://www.w3.org/2000/svg" xmlns:xlink="http://www.w3.org/1999/xlink"><clipPath id="a"><path d="m22 22h36v36h-36z"/></clipPath><rect fill="#00a0b6" height="80" rx="25" width="80"/><g clip-path="url(#a)" fill="#fff"><path d="m57.3824 30.7179c-.0585-.4892-.4485-.8727-.9385-.9239-.022-.0023-2.2166-.2381-3.7327-.9681-1.2786-.6156-2.2832-1.526-2.7346-1.9751v-3.7961c0-.5825-.4723-1.0547-1.0547-1.0547h-25.3125c-.5825 0-1.0547.4722-1.0547 1.0547v33.8906c0 .5825.4722 1.0547 1.0547 1.0547h18.5695.0001c.2854 0 .558-.1211.7458-.309l6.7366-6.7365c.1912-.1883.3151-.4568.3151-.7515v-3.615c3.4977-2.1763 5.8833-5.5398 6.9148-9.7668.8099-3.319.5046-5.9911.4911-6.1033zm-32.7183-6.6085h23.2032v2.7414c-.4523.4498-1.4566 1.3598-2.7345 1.9752-1.5162.73-3.7109.9657-3.7322.968-.4906.0506-.8806.4343-.9391.924-.0134.1121-.3188 2.7843.4909 6.1032 1.0315 4.2271 3.4172 7.5906 6.9149 9.7669v2.5603h-5.6883c-.5825 0-1.0547.4722-1.0547 1.0547v5.6875h-16.4602zm21.7111 27.1483-3.1416 3.1416v-3.1416zm8.4669-14.9365c-.9044 3.7068-2.8951 6.5435-5.9202 8.4406-4.548-2.8521-6.5404-7.8857-6.4116-12.9966 2.5443-.4311 4.4021-1.1863 6.4116-3.0071 2.0056 1.8171 3.8624 2.5753 6.4133 3.0073.0248.9416-.0221 2.6259-.4931 4.5558z"/><path d="m53.4641 33.5389c-.4411-.3804-1.1072-.331-1.4875.1099l-3.2157 3.729-1.7886-1.7885c-.4118-.4118-1.0796-.4118-1.4915 0-.4119.4119-.4119 1.0797 0 1.4916l2.5914 2.5914c.4325.4324 1.1432.4083 1.5445-.0571l3.9573-4.589c.3804-.4409.3312-1.1068-.1099-1.4873z"/><path d="m32.0469 26.2188h-4.2188c-.5824 0-1.0547.4722-1.0547 1.0546v4.2188c0 .5825.4723 1.0547 1.0547 1.0547h4.2188c.5824 0 1.0547-.4722 1.0547-1.0547v-4.2188c0-.5824-.4723-1.0546-1.0547-1.0546zm-1.0547 4.2187h-2.1094v-2.1094h2.1094z"/><path d="m32.0469 34.6562h-4.2188c-.5824 0-1.0547.4723-1.0547 1.0547v4.2188c0 .5825.4723 1.0547 1.0547 1.0547h4.2188c.5824 0 1.0547-.4722 1.0547-1.0547v-4.2188c0-.5824-.4723-1.0547-1.0547-1.0547zm-1.0547 4.2188h-2.1094v-2.1094h2.1094z"/><path d="m32.0469 43.0938h-4.2188c-.5824 0-1.0547.4722-1.0547 1.0546v4.2188c0 .5825.4723 1.0547 1.0547 1.0547h4.2188c.5824 0 1.0547-.4722 1.0547-1.0547v-4.2188c0-.5824-.4723-1.0546-1.0547-1.0546zm-1.0547 4.2187h-2.1094v-2.1094h2.1094z"/></g></svg>