<svg width="469" height="382" viewBox="0 0 469 382" fill="none" xmlns="http://www.w3.org/2000/svg">
<rect x="27" y="27" width="442" height="355" rx="5" fill="#7450C8"/>
<g filter="url(#filter0_d)">
<mask id="mask0" mask-type="alpha" maskUnits="userSpaceOnUse" x="7" y="7" width="442" height="355">
<rect x="7" y="7" width="442" height="355" rx="5" fill="white"/>
</mask>
<g mask="url(#mask0)">
<g filter="url(#filter1_d)">
<rect x="7" y="6" width="603" height="356.161" rx="1.97867" fill="white"/>
</g>
<path d="M94.8271 274.044L97.4248 269.047H98.915L95.4834 275.288V279H94.1709V275.288L90.7393 269.047H92.2432L94.8271 274.044ZM99.2158 275.233C99.2158 274.509 99.3571 273.857 99.6396 273.278C99.9268 272.7 100.323 272.253 100.829 271.938C101.34 271.624 101.921 271.467 102.572 271.467C103.579 271.467 104.393 271.815 105.013 272.513C105.637 273.21 105.949 274.137 105.949 275.295V275.384C105.949 276.104 105.81 276.751 105.532 277.325C105.259 277.895 104.865 278.339 104.35 278.658C103.839 278.977 103.251 279.137 102.586 279.137C101.583 279.137 100.77 278.788 100.146 278.091C99.5257 277.394 99.2158 276.471 99.2158 275.322V275.233ZM100.487 275.384C100.487 276.204 100.676 276.863 101.055 277.359C101.438 277.856 101.948 278.104 102.586 278.104C103.229 278.104 103.739 277.854 104.117 277.353C104.495 276.847 104.685 276.14 104.685 275.233C104.685 274.422 104.491 273.766 104.104 273.265C103.721 272.759 103.21 272.506 102.572 272.506C101.948 272.506 101.444 272.754 101.062 273.251C100.679 273.748 100.487 274.459 100.487 275.384ZM112.102 278.269C111.609 278.847 110.887 279.137 109.935 279.137C109.146 279.137 108.545 278.909 108.13 278.453C107.72 277.993 107.512 277.314 107.508 276.416V271.604H108.772V276.382C108.772 277.503 109.228 278.063 110.14 278.063C111.106 278.063 111.748 277.703 112.067 276.983V271.604H113.332V279H112.129L112.102 278.269ZM119.997 272.499C120.558 271.811 121.287 271.467 122.185 271.467C123.748 271.467 124.536 272.349 124.55 274.112V279H123.285V274.105C123.281 273.572 123.158 273.178 122.916 272.923C122.679 272.668 122.308 272.54 121.802 272.54C121.392 272.54 121.032 272.649 120.722 272.868C120.412 273.087 120.17 273.374 119.997 273.729V279H118.732V268.5H119.997V272.499ZM131.01 279C130.937 278.854 130.878 278.594 130.832 278.221C130.244 278.831 129.542 279.137 128.727 279.137C127.997 279.137 127.398 278.932 126.929 278.521C126.464 278.107 126.231 277.583 126.231 276.949C126.231 276.179 126.523 275.582 127.106 275.158C127.694 274.73 128.519 274.516 129.581 274.516H130.812V273.935C130.812 273.493 130.679 273.142 130.415 272.882C130.151 272.618 129.761 272.485 129.246 272.485C128.795 272.485 128.417 272.599 128.111 272.827C127.806 273.055 127.653 273.331 127.653 273.654H126.382C126.382 273.285 126.512 272.93 126.771 272.588C127.036 272.242 127.391 271.968 127.838 271.768C128.289 271.567 128.784 271.467 129.321 271.467C130.174 271.467 130.841 271.681 131.324 272.109C131.807 272.533 132.058 273.119 132.076 273.866V277.271C132.076 277.95 132.163 278.49 132.336 278.891V279H131.01ZM128.911 278.036C129.308 278.036 129.684 277.934 130.039 277.729C130.395 277.523 130.652 277.257 130.812 276.929V275.411H129.82C128.271 275.411 127.496 275.865 127.496 276.771C127.496 277.168 127.628 277.478 127.893 277.701C128.157 277.924 128.496 278.036 128.911 278.036ZM136.39 277.284L138.222 271.604H139.514L136.861 279H135.897L133.218 271.604H134.51L136.39 277.284ZM143.704 279.137C142.701 279.137 141.886 278.809 141.257 278.152C140.628 277.492 140.313 276.61 140.313 275.507V275.274C140.313 274.541 140.452 273.887 140.73 273.312C141.013 272.734 141.405 272.283 141.906 271.959C142.412 271.631 142.959 271.467 143.547 271.467C144.508 271.467 145.256 271.784 145.789 272.417C146.322 273.05 146.589 273.957 146.589 275.138V275.664H141.578C141.596 276.393 141.808 276.983 142.214 277.435C142.624 277.881 143.144 278.104 143.772 278.104C144.219 278.104 144.597 278.013 144.907 277.831C145.217 277.649 145.488 277.407 145.721 277.106L146.493 277.708C145.873 278.66 144.944 279.137 143.704 279.137ZM143.547 272.506C143.036 272.506 142.608 272.693 142.262 273.066C141.915 273.436 141.701 273.955 141.619 274.625H145.324V274.529C145.288 273.887 145.115 273.39 144.805 273.039C144.495 272.684 144.076 272.506 143.547 272.506ZM155.838 277.038C155.838 276.696 155.708 276.432 155.448 276.245C155.193 276.054 154.744 275.89 154.102 275.753C153.464 275.616 152.955 275.452 152.577 275.261C152.203 275.069 151.925 274.841 151.743 274.577C151.565 274.313 151.477 273.998 151.477 273.634C151.477 273.028 151.732 272.515 152.242 272.096C152.757 271.676 153.413 271.467 154.211 271.467C155.049 271.467 155.729 271.683 156.248 272.116C156.772 272.549 157.034 273.103 157.034 273.777H155.763C155.763 273.431 155.615 273.132 155.318 272.882C155.027 272.631 154.658 272.506 154.211 272.506C153.751 272.506 153.391 272.606 153.131 272.807C152.871 273.007 152.741 273.269 152.741 273.593C152.741 273.898 152.862 274.128 153.104 274.283C153.345 274.438 153.78 274.586 154.409 274.728C155.043 274.869 155.555 275.037 155.947 275.233C156.339 275.429 156.629 275.666 156.815 275.944C157.007 276.218 157.103 276.553 157.103 276.949C157.103 277.61 156.838 278.141 156.31 278.542C155.781 278.938 155.095 279.137 154.252 279.137C153.66 279.137 153.135 279.032 152.68 278.822C152.224 278.613 151.866 278.321 151.606 277.947C151.351 277.569 151.224 277.161 151.224 276.724H152.488C152.511 277.147 152.68 277.485 152.994 277.735C153.313 277.981 153.732 278.104 154.252 278.104C154.73 278.104 155.113 278.009 155.4 277.817C155.692 277.621 155.838 277.362 155.838 277.038ZM163.316 278.269C162.824 278.847 162.102 279.137 161.149 279.137C160.361 279.137 159.759 278.909 159.345 278.453C158.935 277.993 158.727 277.314 158.723 276.416V271.604H159.987V276.382C159.987 277.503 160.443 278.063 161.354 278.063C162.321 278.063 162.963 277.703 163.282 276.983V271.604H164.547V279H163.344L163.316 278.269ZM169.441 278.104C169.893 278.104 170.287 277.968 170.624 277.694C170.961 277.421 171.148 277.079 171.185 276.669H172.381C172.358 277.093 172.212 277.496 171.943 277.879C171.674 278.262 171.314 278.567 170.863 278.795C170.417 279.023 169.943 279.137 169.441 279.137C168.434 279.137 167.632 278.802 167.035 278.132C166.443 277.457 166.146 276.537 166.146 275.37V275.158C166.146 274.438 166.279 273.798 166.543 273.237C166.807 272.677 167.186 272.242 167.678 271.932C168.174 271.622 168.76 271.467 169.435 271.467C170.264 271.467 170.952 271.715 171.499 272.212C172.05 272.709 172.344 273.354 172.381 274.146H171.185C171.148 273.668 170.966 273.276 170.638 272.971C170.314 272.661 169.913 272.506 169.435 272.506C168.792 272.506 168.293 272.738 167.938 273.203C167.587 273.663 167.411 274.331 167.411 275.206V275.445C167.411 276.298 167.587 276.954 167.938 277.414C168.288 277.874 168.79 278.104 169.441 278.104ZM176.77 278.104C177.221 278.104 177.615 277.968 177.952 277.694C178.289 277.421 178.476 277.079 178.513 276.669H179.709C179.686 277.093 179.54 277.496 179.271 277.879C179.003 278.262 178.643 278.567 178.191 278.795C177.745 279.023 177.271 279.137 176.77 279.137C175.762 279.137 174.96 278.802 174.363 278.132C173.771 277.457 173.475 276.537 173.475 275.37V275.158C173.475 274.438 173.607 273.798 173.871 273.237C174.135 272.677 174.514 272.242 175.006 271.932C175.503 271.622 176.088 271.467 176.763 271.467C177.592 271.467 178.28 271.715 178.827 272.212C179.379 272.709 179.673 273.354 179.709 274.146H178.513C178.476 273.668 178.294 273.276 177.966 272.971C177.642 272.661 177.241 272.506 176.763 272.506C176.12 272.506 175.621 272.738 175.266 273.203C174.915 273.663 174.739 274.331 174.739 275.206V275.445C174.739 276.298 174.915 276.954 175.266 277.414C175.617 277.874 176.118 278.104 176.77 278.104ZM184.2 279.137C183.198 279.137 182.382 278.809 181.753 278.152C181.124 277.492 180.81 276.61 180.81 275.507V275.274C180.81 274.541 180.949 273.887 181.227 273.312C181.509 272.734 181.901 272.283 182.402 271.959C182.908 271.631 183.455 271.467 184.043 271.467C185.005 271.467 185.752 271.784 186.285 272.417C186.818 273.05 187.085 273.957 187.085 275.138V275.664H182.074C182.092 276.393 182.304 276.983 182.71 277.435C183.12 277.881 183.64 278.104 184.269 278.104C184.715 278.104 185.093 278.013 185.403 277.831C185.713 277.649 185.984 277.407 186.217 277.106L186.989 277.708C186.369 278.66 185.44 279.137 184.2 279.137ZM184.043 272.506C183.533 272.506 183.104 272.693 182.758 273.066C182.411 273.436 182.197 273.955 182.115 274.625H185.82V274.529C185.784 273.887 185.611 273.39 185.301 273.039C184.991 272.684 184.572 272.506 184.043 272.506ZM192.861 277.038C192.861 276.696 192.731 276.432 192.472 276.245C192.216 276.054 191.768 275.89 191.125 275.753C190.487 275.616 189.979 275.452 189.601 275.261C189.227 275.069 188.949 274.841 188.767 274.577C188.589 274.313 188.5 273.998 188.5 273.634C188.5 273.028 188.755 272.515 189.266 272.096C189.781 271.676 190.437 271.467 191.234 271.467C192.073 271.467 192.752 271.683 193.271 272.116C193.796 272.549 194.058 273.103 194.058 273.777H192.786C192.786 273.431 192.638 273.132 192.342 272.882C192.05 272.631 191.681 272.506 191.234 272.506C190.774 272.506 190.414 272.606 190.154 272.807C189.895 273.007 189.765 273.269 189.765 273.593C189.765 273.898 189.885 274.128 190.127 274.283C190.368 274.438 190.804 274.586 191.433 274.728C192.066 274.869 192.579 275.037 192.971 275.233C193.363 275.429 193.652 275.666 193.839 275.944C194.03 276.218 194.126 276.553 194.126 276.949C194.126 277.61 193.862 278.141 193.333 278.542C192.804 278.938 192.118 279.137 191.275 279.137C190.683 279.137 190.159 279.032 189.703 278.822C189.247 278.613 188.89 278.321 188.63 277.947C188.375 277.569 188.247 277.161 188.247 276.724H189.512C189.535 277.147 189.703 277.485 190.018 277.735C190.337 277.981 190.756 278.104 191.275 278.104C191.754 278.104 192.137 278.009 192.424 277.817C192.715 277.621 192.861 277.362 192.861 277.038ZM200.08 277.038C200.08 276.696 199.95 276.432 199.69 276.245C199.435 276.054 198.986 275.89 198.344 275.753C197.706 275.616 197.198 275.452 196.819 275.261C196.446 275.069 196.168 274.841 195.985 274.577C195.808 274.313 195.719 273.998 195.719 273.634C195.719 273.028 195.974 272.515 196.484 272.096C196.999 271.676 197.656 271.467 198.453 271.467C199.292 271.467 199.971 271.683 200.49 272.116C201.014 272.549 201.276 273.103 201.276 273.777H200.005C200.005 273.431 199.857 273.132 199.561 272.882C199.269 272.631 198.9 272.506 198.453 272.506C197.993 272.506 197.633 272.606 197.373 272.807C197.113 273.007 196.983 273.269 196.983 273.593C196.983 273.898 197.104 274.128 197.346 274.283C197.587 274.438 198.022 274.586 198.651 274.728C199.285 274.869 199.798 275.037 200.189 275.233C200.581 275.429 200.871 275.666 201.058 275.944C201.249 276.218 201.345 276.553 201.345 276.949C201.345 277.61 201.08 278.141 200.552 278.542C200.023 278.938 199.337 279.137 198.494 279.137C197.902 279.137 197.378 279.032 196.922 278.822C196.466 278.613 196.108 278.321 195.849 277.947C195.593 277.569 195.466 277.161 195.466 276.724H196.73C196.753 277.147 196.922 277.485 197.236 277.735C197.555 277.981 197.975 278.104 198.494 278.104C198.973 278.104 199.355 278.009 199.643 277.817C199.934 277.621 200.08 277.362 200.08 277.038ZM203.614 279V272.581H202.445V271.604H203.614V270.845C203.614 270.052 203.826 269.439 204.25 269.006C204.674 268.573 205.273 268.356 206.048 268.356C206.34 268.356 206.629 268.395 206.916 268.473L206.848 269.498C206.633 269.457 206.406 269.437 206.164 269.437C205.754 269.437 205.437 269.557 205.214 269.799C204.991 270.036 204.879 270.378 204.879 270.824V271.604H206.458V272.581H204.879V279H203.614ZM212.426 278.269C211.934 278.847 211.211 279.137 210.259 279.137C209.47 279.137 208.869 278.909 208.454 278.453C208.044 277.993 207.837 277.314 207.832 276.416V271.604H209.097V276.382C209.097 277.503 209.552 278.063 210.464 278.063C211.43 278.063 212.073 277.703 212.392 276.983V271.604H213.656V279H212.453L212.426 278.269ZM216.958 279H215.693V268.5H216.958V279ZM220.362 279H219.098V268.5H220.362V279ZM224.812 277.147L226.535 271.604H227.889L224.915 280.142C224.455 281.372 223.723 281.987 222.721 281.987L222.481 281.967L222.01 281.878V280.853L222.352 280.88C222.78 280.88 223.113 280.793 223.35 280.62C223.591 280.447 223.789 280.13 223.944 279.67L224.225 278.918L221.586 271.604H222.967L224.812 277.147ZM236.803 277.038C236.803 276.696 236.673 276.432 236.413 276.245C236.158 276.054 235.709 275.89 235.066 275.753C234.428 275.616 233.92 275.452 233.542 275.261C233.168 275.069 232.89 274.841 232.708 274.577C232.53 274.313 232.441 273.998 232.441 273.634C232.441 273.028 232.697 272.515 233.207 272.096C233.722 271.676 234.378 271.467 235.176 271.467C236.014 271.467 236.693 271.683 237.213 272.116C237.737 272.549 237.999 273.103 237.999 273.777H236.728C236.728 273.431 236.579 273.132 236.283 272.882C235.992 272.631 235.622 272.506 235.176 272.506C234.715 272.506 234.355 272.606 234.096 272.807C233.836 273.007 233.706 273.269 233.706 273.593C233.706 273.898 233.827 274.128 234.068 274.283C234.31 274.438 234.745 274.586 235.374 274.728C236.007 274.869 236.52 275.037 236.912 275.233C237.304 275.429 237.593 275.666 237.78 275.944C237.972 276.218 238.067 276.553 238.067 276.949C238.067 277.61 237.803 278.141 237.274 278.542C236.746 278.938 236.06 279.137 235.217 279.137C234.624 279.137 234.1 279.032 233.645 278.822C233.189 278.613 232.831 278.321 232.571 277.947C232.316 277.569 232.188 277.161 232.188 276.724H233.453C233.476 277.147 233.645 277.485 233.959 277.735C234.278 277.981 234.697 278.104 235.217 278.104C235.695 278.104 236.078 278.009 236.365 277.817C236.657 277.621 236.803 277.362 236.803 277.038ZM239.38 275.233C239.38 274.509 239.521 273.857 239.804 273.278C240.091 272.7 240.487 272.253 240.993 271.938C241.504 271.624 242.085 271.467 242.736 271.467C243.743 271.467 244.557 271.815 245.177 272.513C245.801 273.21 246.113 274.137 246.113 275.295V275.384C246.113 276.104 245.974 276.751 245.696 277.325C245.423 277.895 245.029 278.339 244.514 278.658C244.003 278.977 243.415 279.137 242.75 279.137C241.747 279.137 240.934 278.788 240.31 278.091C239.69 277.394 239.38 276.471 239.38 275.322V275.233ZM240.651 275.384C240.651 276.204 240.84 276.863 241.219 277.359C241.602 277.856 242.112 278.104 242.75 278.104C243.393 278.104 243.903 277.854 244.281 277.353C244.66 276.847 244.849 276.14 244.849 275.233C244.849 274.422 244.655 273.766 244.268 273.265C243.885 272.759 243.374 272.506 242.736 272.506C242.112 272.506 241.608 272.754 241.226 273.251C240.843 273.748 240.651 274.459 240.651 275.384ZM249.073 279H247.809V268.5H249.073V279ZM253.544 277.284L255.376 271.604H256.668L254.016 279H253.052L250.372 271.604H251.664L253.544 277.284ZM260.858 279.137C259.856 279.137 259.04 278.809 258.411 278.152C257.782 277.492 257.468 276.61 257.468 275.507V275.274C257.468 274.541 257.607 273.887 257.885 273.312C258.167 272.734 258.559 272.283 259.061 271.959C259.566 271.631 260.113 271.467 260.701 271.467C261.663 271.467 262.41 271.784 262.943 272.417C263.477 273.05 263.743 273.957 263.743 275.138V275.664H258.732C258.751 276.393 258.963 276.983 259.368 277.435C259.778 277.881 260.298 278.104 260.927 278.104C261.373 278.104 261.752 278.013 262.062 277.831C262.371 277.649 262.643 277.407 262.875 277.106L263.647 277.708C263.028 278.66 262.098 279.137 260.858 279.137ZM260.701 272.506C260.191 272.506 259.762 272.693 259.416 273.066C259.07 273.436 258.855 273.955 258.773 274.625H262.479V274.529C262.442 273.887 262.269 273.39 261.959 273.039C261.649 272.684 261.23 272.506 260.701 272.506ZM264.905 275.24C264.905 274.105 265.174 273.194 265.712 272.506C266.25 271.813 266.954 271.467 267.824 271.467C268.69 271.467 269.376 271.763 269.882 272.355V268.5H271.146V279H269.984L269.923 278.207C269.417 278.827 268.713 279.137 267.811 279.137C266.954 279.137 266.254 278.786 265.712 278.084C265.174 277.382 264.905 276.466 264.905 275.336V275.24ZM266.17 275.384C266.17 276.222 266.343 276.879 266.689 277.353C267.036 277.826 267.514 278.063 268.125 278.063C268.927 278.063 269.513 277.703 269.882 276.983V273.586C269.504 272.889 268.923 272.54 268.139 272.54C267.519 272.54 267.036 272.779 266.689 273.258C266.343 273.736 266.17 274.445 266.17 275.384ZM278.304 269.812V271.604H279.685V272.581H278.304V277.168C278.304 277.464 278.365 277.688 278.488 277.838C278.611 277.984 278.821 278.057 279.117 278.057C279.263 278.057 279.464 278.029 279.719 277.975V279C279.386 279.091 279.062 279.137 278.748 279.137C278.183 279.137 277.757 278.966 277.47 278.624C277.183 278.282 277.039 277.797 277.039 277.168V272.581H275.692V271.604H277.039V269.812H278.304ZM282.433 272.499C282.993 271.811 283.722 271.467 284.62 271.467C286.183 271.467 286.972 272.349 286.985 274.112V279H285.721V274.105C285.716 273.572 285.593 273.178 285.352 272.923C285.115 272.668 284.743 272.54 284.237 272.54C283.827 272.54 283.467 272.649 283.157 272.868C282.847 273.087 282.606 273.374 282.433 273.729V279H281.168V268.5H282.433V272.499ZM291.948 279.137C290.946 279.137 290.13 278.809 289.501 278.152C288.872 277.492 288.558 276.61 288.558 275.507V275.274C288.558 274.541 288.697 273.887 288.975 273.312C289.257 272.734 289.649 272.283 290.15 271.959C290.656 271.631 291.203 271.467 291.791 271.467C292.753 271.467 293.5 271.784 294.033 272.417C294.566 273.05 294.833 273.957 294.833 275.138V275.664H289.822C289.84 276.393 290.052 276.983 290.458 277.435C290.868 277.881 291.388 278.104 292.017 278.104C292.463 278.104 292.841 278.013 293.151 277.831C293.461 277.649 293.732 277.407 293.965 277.106L294.737 277.708C294.118 278.66 293.188 279.137 291.948 279.137ZM291.791 272.506C291.281 272.506 290.852 272.693 290.506 273.066C290.16 273.436 289.945 273.955 289.863 274.625H293.568V274.529C293.532 273.887 293.359 273.39 293.049 273.039C292.739 272.684 292.32 272.506 291.791 272.506ZM303.351 272.738C303.159 272.706 302.952 272.69 302.729 272.69C301.899 272.69 301.336 273.044 301.04 273.75V279H299.775V271.604H301.006L301.026 272.458C301.441 271.797 302.029 271.467 302.79 271.467C303.036 271.467 303.223 271.499 303.351 271.562V272.738ZM307.452 279.137C306.45 279.137 305.634 278.809 305.005 278.152C304.376 277.492 304.062 276.61 304.062 275.507V275.274C304.062 274.541 304.201 273.887 304.479 273.312C304.761 272.734 305.153 272.283 305.654 271.959C306.16 271.631 306.707 271.467 307.295 271.467C308.257 271.467 309.004 271.784 309.537 272.417C310.07 273.05 310.337 273.957 310.337 275.138V275.664H305.326C305.344 276.393 305.556 276.983 305.962 277.435C306.372 277.881 306.892 278.104 307.521 278.104C307.967 278.104 308.345 278.013 308.655 277.831C308.965 277.649 309.236 277.407 309.469 277.106L310.241 277.708C309.621 278.66 308.692 279.137 307.452 279.137ZM307.295 272.506C306.785 272.506 306.356 272.693 306.01 273.066C305.663 273.436 305.449 273.955 305.367 274.625H309.072V274.529C309.036 273.887 308.863 273.39 308.553 273.039C308.243 272.684 307.824 272.506 307.295 272.506ZM311.499 275.24C311.499 274.078 311.766 273.16 312.299 272.485C312.832 271.806 313.548 271.467 314.445 271.467C315.32 271.467 316.011 271.761 316.517 272.349L316.571 271.604H317.733V281.844H316.469V278.316C315.958 278.863 315.279 279.137 314.432 279.137C313.538 279.137 312.825 278.79 312.292 278.098C311.763 277.4 311.499 276.478 311.499 275.329V275.24ZM312.764 275.384C312.764 276.231 312.941 276.897 313.297 277.38C313.657 277.863 314.14 278.104 314.746 278.104C315.498 278.104 316.072 277.772 316.469 277.106V273.483C316.068 272.832 315.498 272.506 314.76 272.506C314.149 272.506 313.664 272.75 313.304 273.237C312.944 273.72 312.764 274.436 312.764 275.384ZM324.33 278.269C323.838 278.847 323.116 279.137 322.163 279.137C321.375 279.137 320.773 278.909 320.358 278.453C319.948 277.993 319.741 277.314 319.736 276.416V271.604H321.001V276.382C321.001 277.503 321.457 278.063 322.368 278.063C323.334 278.063 323.977 277.703 324.296 276.983V271.604H325.561V279H324.357L324.33 278.269ZM330.558 279.137C329.555 279.137 328.739 278.809 328.11 278.152C327.481 277.492 327.167 276.61 327.167 275.507V275.274C327.167 274.541 327.306 273.887 327.584 273.312C327.867 272.734 328.258 272.283 328.76 271.959C329.266 271.631 329.812 271.467 330.4 271.467C331.362 271.467 332.109 271.784 332.643 272.417C333.176 273.05 333.442 273.957 333.442 275.138V275.664H328.432C328.45 276.393 328.662 276.983 329.067 277.435C329.478 277.881 329.997 278.104 330.626 278.104C331.073 278.104 331.451 278.013 331.761 277.831C332.071 277.649 332.342 277.407 332.574 277.106L333.347 277.708C332.727 278.66 331.797 279.137 330.558 279.137ZM330.4 272.506C329.89 272.506 329.462 272.693 329.115 273.066C328.769 273.436 328.555 273.955 328.473 274.625H332.178V274.529C332.141 273.887 331.968 273.39 331.658 273.039C331.348 272.684 330.929 272.506 330.4 272.506ZM339.219 277.038C339.219 276.696 339.089 276.432 338.829 276.245C338.574 276.054 338.125 275.89 337.482 275.753C336.844 275.616 336.336 275.452 335.958 275.261C335.584 275.069 335.306 274.841 335.124 274.577C334.946 274.313 334.857 273.998 334.857 273.634C334.857 273.028 335.113 272.515 335.623 272.096C336.138 271.676 336.794 271.467 337.592 271.467C338.43 271.467 339.109 271.683 339.629 272.116C340.153 272.549 340.415 273.103 340.415 273.777H339.144C339.144 273.431 338.995 273.132 338.699 272.882C338.408 272.631 338.038 272.506 337.592 272.506C337.132 272.506 336.771 272.606 336.512 272.807C336.252 273.007 336.122 273.269 336.122 273.593C336.122 273.898 336.243 274.128 336.484 274.283C336.726 274.438 337.161 274.586 337.79 274.728C338.424 274.869 338.936 275.037 339.328 275.233C339.72 275.429 340.009 275.666 340.196 275.944C340.388 276.218 340.483 276.553 340.483 276.949C340.483 277.61 340.219 278.141 339.69 278.542C339.162 278.938 338.476 279.137 337.633 279.137C337.04 279.137 336.516 279.032 336.061 278.822C335.605 278.613 335.247 278.321 334.987 277.947C334.732 277.569 334.604 277.161 334.604 276.724H335.869C335.892 277.147 336.061 277.485 336.375 277.735C336.694 277.981 337.113 278.104 337.633 278.104C338.111 278.104 338.494 278.009 338.781 277.817C339.073 277.621 339.219 277.362 339.219 277.038ZM343.847 269.812V271.604H345.228V272.581H343.847V277.168C343.847 277.464 343.908 277.688 344.031 277.838C344.154 277.984 344.364 278.057 344.66 278.057C344.806 278.057 345.007 278.029 345.262 277.975V279C344.929 279.091 344.605 279.137 344.291 279.137C343.726 279.137 343.3 278.966 343.013 278.624C342.726 278.282 342.582 277.797 342.582 277.168V272.581H341.235V271.604H342.582V269.812H343.847ZM348.126 276.19H346.984L346.896 269.047H348.222L348.126 276.19ZM346.848 278.364C346.848 278.159 346.909 277.988 347.032 277.852C347.16 277.71 347.347 277.64 347.593 277.64C347.839 277.64 348.026 277.71 348.153 277.852C348.281 277.988 348.345 278.159 348.345 278.364C348.345 278.569 348.281 278.74 348.153 278.877C348.026 279.009 347.839 279.075 347.593 279.075C347.347 279.075 347.16 279.009 347.032 278.877C346.909 278.74 346.848 278.569 346.848 278.364Z" fill="#292E31"/>
<path d="M173.218 229.222H167.03V233.411H174.292V236H163.808V220.359H174.271V222.97H167.03V226.697H173.218V229.222ZM181.859 230.554H175.811V228.051H181.859V230.554ZM187.105 224.377L187.201 225.677C188.025 224.667 189.139 224.162 190.542 224.162C192.039 224.162 193.067 224.753 193.625 225.935C194.442 224.753 195.605 224.162 197.116 224.162C198.377 224.162 199.315 224.531 199.931 225.269C200.547 225.999 200.855 227.102 200.855 228.577V236H197.739V228.588C197.739 227.929 197.611 227.449 197.353 227.148C197.095 226.84 196.64 226.687 195.988 226.687C195.057 226.687 194.413 227.131 194.055 228.019L194.066 236H190.961V228.599C190.961 227.925 190.829 227.438 190.564 227.138C190.299 226.837 189.848 226.687 189.21 226.687C188.329 226.687 187.692 227.052 187.298 227.782V236H184.194V224.377H187.105ZM209.828 236C209.685 235.721 209.581 235.373 209.517 234.958C208.765 235.796 207.787 236.215 206.584 236.215C205.446 236.215 204.5 235.885 203.748 235.227C203.004 234.568 202.631 233.737 202.631 232.734C202.631 231.503 203.086 230.557 203.995 229.898C204.912 229.24 206.233 228.907 207.959 228.899H209.388V228.233C209.388 227.696 209.248 227.267 208.969 226.944C208.697 226.622 208.264 226.461 207.669 226.461C207.146 226.461 206.735 226.586 206.434 226.837C206.14 227.088 205.993 227.431 205.993 227.868H202.889C202.889 227.195 203.097 226.572 203.512 225.999C203.927 225.426 204.515 224.979 205.274 224.656C206.033 224.327 206.885 224.162 207.83 224.162C209.263 224.162 210.398 224.524 211.236 225.247C212.081 225.963 212.503 226.973 212.503 228.276V233.314C212.51 234.417 212.664 235.252 212.965 235.817V236H209.828ZM207.261 233.841C207.719 233.841 208.142 233.741 208.529 233.54C208.915 233.332 209.202 233.057 209.388 232.713V230.715H208.228C206.674 230.715 205.847 231.252 205.746 232.326L205.736 232.509C205.736 232.896 205.872 233.214 206.144 233.465C206.416 233.715 206.788 233.841 207.261 233.841ZM218.007 236H214.892V224.377H218.007V236ZM214.709 221.369C214.709 220.904 214.863 220.521 215.171 220.22C215.486 219.919 215.912 219.769 216.45 219.769C216.98 219.769 217.402 219.919 217.717 220.22C218.032 220.521 218.19 220.904 218.19 221.369C218.19 221.842 218.029 222.229 217.706 222.529C217.391 222.83 216.972 222.98 216.45 222.98C215.927 222.98 215.504 222.83 215.182 222.529C214.867 222.229 214.709 221.842 214.709 221.369ZM223.694 236H220.579V219.5H223.694V236ZM237.72 232.788C237.72 232.409 237.531 232.111 237.151 231.896C236.779 231.674 236.177 231.478 235.346 231.306C232.582 230.726 231.2 229.551 231.2 227.782C231.2 226.751 231.626 225.892 232.478 225.204C233.338 224.509 234.458 224.162 235.84 224.162C237.316 224.162 238.494 224.509 239.375 225.204C240.263 225.899 240.707 226.801 240.707 227.911H237.602C237.602 227.467 237.459 227.102 237.172 226.815C236.886 226.522 236.438 226.375 235.83 226.375C235.307 226.375 234.902 226.493 234.616 226.729C234.329 226.966 234.186 227.267 234.186 227.632C234.186 227.976 234.347 228.255 234.67 228.47C234.999 228.677 235.55 228.86 236.324 229.018C237.097 229.168 237.749 229.34 238.279 229.533C239.919 230.135 240.739 231.177 240.739 232.659C240.739 233.719 240.284 234.578 239.375 235.237C238.465 235.889 237.291 236.215 235.851 236.215C234.877 236.215 234.011 236.043 233.252 235.699C232.5 235.348 231.909 234.872 231.479 234.271C231.049 233.662 230.835 233.007 230.835 232.305H233.778C233.807 232.856 234.011 233.279 234.39 233.572C234.77 233.866 235.278 234.013 235.916 234.013C236.51 234.013 236.958 233.902 237.258 233.68C237.566 233.451 237.72 233.153 237.72 232.788ZM247.94 236.215C246.236 236.215 244.846 235.692 243.772 234.646C242.705 233.601 242.172 232.208 242.172 230.468V230.167C242.172 229 242.397 227.958 242.848 227.041C243.3 226.117 243.937 225.408 244.76 224.914C245.591 224.413 246.537 224.162 247.596 224.162C249.186 224.162 250.436 224.663 251.345 225.666C252.262 226.669 252.72 228.09 252.72 229.931V231.198H245.319C245.419 231.957 245.72 232.566 246.221 233.024C246.73 233.483 247.371 233.712 248.144 233.712C249.34 233.712 250.275 233.279 250.948 232.412L252.473 234.12C252.008 234.779 251.378 235.295 250.583 235.667C249.788 236.032 248.907 236.215 247.94 236.215ZM247.586 226.676C246.97 226.676 246.468 226.883 246.082 227.299C245.702 227.714 245.459 228.309 245.351 229.082H249.67V228.835C249.655 228.147 249.469 227.618 249.111 227.245C248.753 226.866 248.245 226.676 247.586 226.676ZM257.193 224.377L257.29 225.72C258.121 224.681 259.234 224.162 260.631 224.162C261.862 224.162 262.779 224.524 263.381 225.247C263.982 225.97 264.29 227.052 264.304 228.491V236H261.2V228.566C261.2 227.908 261.057 227.431 260.77 227.138C260.484 226.837 260.008 226.687 259.342 226.687C258.468 226.687 257.813 227.059 257.376 227.804V236H254.271V224.377H257.193ZM270.227 221.52V224.377H272.215V226.654H270.227V232.455C270.227 232.885 270.31 233.193 270.475 233.379C270.639 233.565 270.954 233.658 271.42 233.658C271.764 233.658 272.068 233.633 272.333 233.583V235.936C271.724 236.122 271.098 236.215 270.453 236.215C268.276 236.215 267.166 235.116 267.123 232.917V226.654H265.426V224.377H267.123V221.52H270.227ZM276.945 231.198H274.367L274.002 220.359H277.311L276.945 231.198ZM275.656 232.896C276.179 232.896 276.598 233.049 276.913 233.357C277.235 233.665 277.396 234.059 277.396 234.539C277.396 235.012 277.235 235.402 276.913 235.71C276.598 236.018 276.179 236.172 275.656 236.172C275.141 236.172 274.722 236.018 274.399 235.71C274.084 235.402 273.927 235.012 273.927 234.539C273.927 234.066 274.084 233.676 274.399 233.368C274.722 233.053 275.141 232.896 275.656 232.896Z" fill="#7450C8"/>
<path fill-rule="evenodd" clip-rule="evenodd" d="M276 143.221C276 112.724 251.375 88 221 88C190.625 88 166 112.724 166 143.221C166 151.347 167.763 159.055 170.9 166H271.1C274.237 159.055 276 151.347 276 143.221Z" fill="#F4F6FC"/>
<path d="M161 166H164" stroke="#7450C8" stroke-linecap="round" stroke-linejoin="round"/>
<path d="M277 166H280" stroke="#7450C8" stroke-linecap="round" stroke-linejoin="round"/>
<path d="M167 166H274" stroke="#7450C8" stroke-linecap="round" stroke-linejoin="round"/>
<path fill-rule="evenodd" clip-rule="evenodd" d="M253 94.0878C253 90.7247 250.272 88 246.905 88H195.095C191.73 88 189 90.7247 189 94.0878V141.27C189 144.631 191.728 147.358 195.095 147.358H206.277C207.676 147.358 208.81 148.49 208.81 149.887V156.471C208.81 157.493 209.427 158.416 210.373 158.808C211.321 159.199 212.408 158.982 213.132 158.259L223.306 148.097C223.781 147.625 224.425 147.358 225.096 147.358H246.905C250.272 147.358 253 144.631 253 141.27V94.0878Z" stroke="#7450C8" stroke-width="2" stroke-linejoin="round"/>
<path fill-rule="evenodd" clip-rule="evenodd" d="M241.433 105H200.564C199.963 105 199.437 105.223 199 105.544L218.379 116.327C219.991 117.224 222.006 117.224 223.619 116.327L243 105.544C242.563 105.22 242.035 105 241.433 105Z" stroke="#7450C8" stroke-width="2" stroke-linecap="round" stroke-linejoin="round"/>
<path fill-rule="evenodd" clip-rule="evenodd" d="M241.573 132H200.427C199.087 132 198 130.936 198 129.626V107.374C198 106.064 199.087 105 200.427 105H241.573C242.913 105 244 106.064 244 107.374V129.626C244 130.936 242.913 132 241.573 132Z" stroke="#7450C8" stroke-width="2" stroke-linecap="round" stroke-linejoin="round"/>
<circle cx="253" cy="88" r="11" fill="#7450C8"/>
<path d="M251.203 89.2239L249.411 87.372C249.145 87.0518 248.729 86.9122 248.332 87.0109C247.935 87.1095 247.626 87.4296 247.53 87.8396C247.435 88.2496 247.57 88.6802 247.88 88.9545L250.432 91.6032C250.637 91.8133 250.914 91.9304 251.203 91.9287C251.488 91.9274 251.761 91.8105 251.963 91.6032L257.393 85.9916C257.599 85.7809 257.714 85.494 257.714 85.1947C257.714 84.8955 257.599 84.6086 257.393 84.3979C256.969 83.9627 256.285 83.9627 255.862 84.3979L251.203 89.2239Z" fill="white"/>
</g>
</g>
<defs>
<filter id="filter0_d" x="0" y="0" width="462" height="375" filterUnits="userSpaceOnUse" color-interpolation-filters="sRGB">
<feFlood flood-opacity="0" result="BackgroundImageFix"/>
<feColorMatrix in="SourceAlpha" type="matrix" values="0 0 0 0 0 0 0 0 0 0 0 0 0 0 0 0 0 0 127 0"/>
<feOffset dx="3" dy="3"/>
<feGaussianBlur stdDeviation="5"/>
<feColorMatrix type="matrix" values="0 0 0 0 0.2 0 0 0 0 0.2 0 0 0 0 0.2 0 0 0 0.1 0"/>
<feBlend mode="normal" in2="BackgroundImageFix" result="effect1_dropShadow"/>
<feBlend mode="normal" in="SourceGraphic" in2="effect1_dropShadow" result="shape"/>
</filter>
<filter id="filter1_d" x="3.53733" y="2.53733" width="612.893" height="366.054" filterUnits="userSpaceOnUse" color-interpolation-filters="sRGB">
<feFlood flood-opacity="0" result="BackgroundImageFix"/>
<feColorMatrix in="SourceAlpha" type="matrix" values="0 0 0 0 0 0 0 0 0 0 0 0 0 0 0 0 0 0 127 0"/>
<feOffset dx="1.484" dy="1.484"/>
<feGaussianBlur stdDeviation="2.47334"/>
<feColorMatrix type="matrix" values="0 0 0 0 0 0 0 0 0 0 0 0 0 0 0 0 0 0 0.1 0"/>
<feBlend mode="normal" in2="BackgroundImageFix" result="effect1_dropShadow"/>
<feBlend mode="normal" in="SourceGraphic" in2="effect1_dropShadow" result="shape"/>
</filter>
</defs>
</svg>
