<?xml version="1.0" encoding="UTF-8"?>
<svg width="1440px" height="544px" viewBox="0 0 1440 544" version="1.1" xmlns="http://www.w3.org/2000/svg" xmlns:xlink="http://www.w3.org/1999/xlink">
    <!-- Generator: Sketch 60.1 (88133) - https://sketch.com -->
    <title>Group 31</title>
    <desc>Created with Sketch.</desc>
    <defs>
        <rect id="path-1" x="0" y="0" width="168" height="40" rx="4"></rect>
        <filter x="-8.0%" y="-33.8%" width="119.6%" height="182.5%" filterUnits="objectBoundingBox" id="filter-2">
            <feOffset dx="3" dy="3" in="SourceAlpha" result="shadowOffsetOuter1"></feOffset>
            <feGaussianBlur stdDeviation="5" in="shadowOffsetOuter1" result="shadowBlurOuter1"></feGaussianBlur>
            <feColorMatrix values="0 0 0 0 0.2   0 0 0 0 0.2   0 0 0 0 0.2  0 0 0 0.2 0" type="matrix" in="shadowBlurOuter1"></feColorMatrix>
        </filter>
        <rect id="path-3" x="0" y="0" width="168" height="40" rx="4"></rect>
        <filter x="-8.0%" y="-33.8%" width="119.6%" height="182.5%" filterUnits="objectBoundingBox" id="filter-4">
            <feOffset dx="3" dy="3" in="SourceAlpha" result="shadowOffsetOuter1"></feOffset>
            <feGaussianBlur stdDeviation="5" in="shadowOffsetOuter1" result="shadowBlurOuter1"></feGaussianBlur>
            <feColorMatrix values="0 0 0 0 0.2   0 0 0 0 0.2   0 0 0 0 0.2  0 0 0 0.2 0" type="matrix" in="shadowBlurOuter1"></feColorMatrix>
        </filter>
        <polygon id="path-5" points="0 119 119 119 119 0 0 0"></polygon>
    </defs>
    <g id="15--Landing-page" stroke="none" stroke-width="1" fill="none" fill-rule="evenodd">
        <g id="7--Privacy-Operations" transform="translate(0.000000, -3282.000000)">
            <g id="Group-31" transform="translate(0.000000, 3282.000000)">
                <rect id="Rectangle" fill="#FFFFFF" x="0" y="0" width="1440" height="544"></rect>
                <g id="Group-28" transform="translate(133.000000, 72.000000)">
                    <g id="Group-24" transform="translate(478.000000, 95.000000)">
                        <g id="Group" transform="translate(0.000000, 28.000000)">
                            <path d="M92,62 L62,62 L62,1.43518519 C62,0.642962963 62.6573529,0 63.4705882,0 L90.5294118,0 C91.3411765,0 92,0.642962963 92,1.43518519 L92,62 Z" id="Fill-9" fill="#FFFFFF"></path>
                            <path d="M92,62 L62,62 L62,1.43518519 C62,0.642962963 62.6573529,0 63.4705882,0 L90.5294118,0 C91.3411765,0 92,0.642962963 92,1.43518519 L92,62 Z" id="Stroke-11" stroke="#7450C8" stroke-linecap="round" stroke-linejoin="round"></path>
                            <polygon id="Fill-13" fill="#FFFFFF" points="6 19 62 19 62 16 6 16"></polygon>
                            <polygon id="Stroke-15" stroke="#7450C8" stroke-linecap="round" stroke-linejoin="round" points="6 19 62 19 62 16 6 16"></polygon>
                            <polygon id="Fill-16" fill="#FFFFFF" points="6 30 62 30 62 27 6 27"></polygon>
                            <polygon id="Stroke-17" stroke="#7450C8" stroke-linecap="round" stroke-linejoin="round" points="6 30 62 30 62 27 6 27"></polygon>
                            <polygon id="Fill-18" fill="#DFE4EE" points="45.8787879 30 22.1212121 30 6 30 6 62 22.1212121 62 45.8787879 62 62 62 62 30"></polygon>
                            <polygon id="Fill-19" fill="#FFFFFF" points="51 30 6 30 6 62 18.5808898 62"></polygon>
                            <path d="M16.3636364,59 L10.6363636,59 C9.73227273,59 9,59.6725 9,60.5 C9,61.32875 9.73227273,62 10.6363636,62 L16.3636364,62 C17.2677273,62 18,61.32875 18,60.5 C18,59.6725 17.2677273,59 16.3636364,59" id="Fill-20" fill="#DFE4EE"></path>
                            <path d="M16.3636364,59 L10.6363636,59 C9.73227273,59 9,59.6725 9,60.5 C9,61.32875 9.73227273,62 10.6363636,62 L16.3636364,62 C17.2677273,62 18,61.32875 18,60.5 C18,59.6725 17.2677273,59 16.3636364,59 Z" id="Stroke-21" stroke="#7450C8" stroke-linecap="round" stroke-linejoin="round"></path>
                            <path d="M9,60 L9,51.7018693 C9,50.9789261 9.27545455,50.2817002 9.76363636,49.7702107 L11.4545455,48 L15.5454545,48 L17.2363636,49.7702107 C17.7245455,50.2817002 18,50.9789261 18,51.7018693 L18,60" id="Stroke-22" stroke="#7450C8" stroke-linecap="round" stroke-linejoin="round"></path>
                            <path d="M15,47 L11,47 L11,45.25 C11,44.55875 11.5973333,44 12.3333333,44 L13.6666667,44 C14.404,44 15,44.55875 15,45.25 L15,47 Z" id="Fill-23" fill="#DFE4EE"></path>
                            <path d="M15,47 L11,47 L11,45.25 C11,44.55875 11.5973333,44 12.3333333,44 L13.6666667,44 C14.404,44 15,44.55875 15,45.25 L15,47 Z" id="Stroke-24" stroke="#7450C8" stroke-linecap="round" stroke-linejoin="round"></path>
                            <path d="M36,60.5 C36,59.6725 35.2677273,59 34.3636364,59 L28.6363636,59 C27.7322727,59 27,59.6725 27,60.5 C27,61.32875 27.7322727,62 28.6363636,62 L34.3636364,62 C35.2677273,62 36,61.32875 36,60.5" id="Fill-25" fill="#DFE4EE"></path>
                            <path d="M36,60.5 C36,59.6725 35.2677273,59 34.3636364,59 L28.6363636,59 C27.7322727,59 27,59.6725 27,60.5 C27,61.32875 27.7322727,62 28.6363636,62 L34.3636364,62 C35.2677273,62 36,61.32875 36,60.5 Z" id="Stroke-26" stroke="#7450C8" stroke-linecap="round" stroke-linejoin="round"></path>
                            <path d="M27,60 L27,51.7018693 C27,50.9789261 27.2754545,50.2817002 27.765,49.7702107 L29.4545455,48 L33.5454545,48 L35.2363636,49.7702107 C35.7245455,50.2817002 36,50.9789261 36,51.7018693 L36,60" id="Stroke-27" stroke="#7450C8" stroke-linecap="round" stroke-linejoin="round"></path>
                            <path d="M34,47 L30,47 L30,45.25 C30,44.55875 30.596,44 31.3333333,44 L32.6666667,44 C33.4026667,44 34,44.55875 34,45.25 L34,47 Z" id="Fill-28" fill="#DFE4EE"></path>
                            <path d="M34,47 L30,47 L30,45.25 C30,44.55875 30.596,44 31.3333333,44 L32.6666667,44 C33.4026667,44 34,44.55875 34,45.25 L34,47 Z" id="Stroke-29" stroke="#7450C8" stroke-linecap="round" stroke-linejoin="round"></path>
                            <path d="M55,60.5 C55,59.6725 54.2677273,59 53.3636364,59 L47.6363636,59 C46.7336364,59 46,59.6725 46,60.5 C46,61.32875 46.7336364,62 47.6363636,62 L53.3636364,62 C54.2677273,62 55,61.32875 55,60.5" id="Fill-30" fill="#DFE4EE"></path>
                            <path d="M55,60.5 C55,59.6725 54.2677273,59 53.3636364,59 L47.6363636,59 C46.7336364,59 46,59.6725 46,60.5 C46,61.32875 46.7336364,62 47.6363636,62 L53.3636364,62 C54.2677273,62 55,61.32875 55,60.5 Z" id="Stroke-31" stroke="#7450C8" stroke-linecap="round" stroke-linejoin="round"></path>
                            <path d="M46,60 L46,51.7018693 C46,50.9789261 46.2754545,50.2817002 46.765,49.7702107 L48.4545455,48 L52.5454545,48 L54.2363636,49.7702107 C54.7245455,50.2817002 55,50.9789261 55,51.7018693 L55,60" id="Stroke-32" stroke="#7450C8" stroke-linecap="round" stroke-linejoin="round"></path>
                            <path d="M52,47 L48,47 L48,45.25 C48,44.55875 48.5973333,44 49.3333333,44 L50.6666667,44 C51.4026667,44 52,44.55875 52,45.25 L52,47 Z" id="Fill-33" fill="#DFE4EE"></path>
                            <path d="M52,47 L48,47 L48,45.25 C48,44.55875 48.5973333,44 49.3333333,44 L50.6666667,44 C51.4026667,44 52,44.55875 52,45.25 L52,47 Z" id="Stroke-34" stroke="#7450C8" stroke-linecap="round" stroke-linejoin="round"></path>
                            <polygon id="Stroke-35" stroke="#7450C8" stroke-linecap="round" stroke-linejoin="round" points="45.8787879 30 22.1212121 30 6 30 6 62 22.1212121 62 45.8787879 62 62 62 62 30"></polygon>
                            <path d="M94,62 L58,62 L58,37.4444444 C58,36.6456667 58.64,36 59.4285714,36 L92.5714286,36 C93.36,36 94,36.6456667 94,37.4444444 L94,62 Z" id="Fill-36" fill="#FFFFFF"></path>
                            <path d="M94,62 L58,62 L58,37.4444444 C58,36.6456667 58.64,36 59.4285714,36 L92.5714286,36 C93.36,36 94,36.6456667 94,37.4444444 L94,62 Z" id="Stroke-37" stroke="#7450C8" stroke-linecap="round" stroke-linejoin="round"></path>
                            <path d="M0,62 L6,62 L6,14.4327485 C6,13.6418713 5.25333333,13 4.33333333,13 L1.66666667,13 C0.746666667,13 0,13.6418713 0,14.4327485 L0,62 Z" id="Fill-38" fill="#FFFFFF"></path>
                            <path d="M0,62 L6,62 L6,14.4327485 C6,13.6418713 5.25333333,13 4.33333333,13 L1.66666667,13 C0.746666667,13 0,13.6418713 0,14.4327485 L0,62 Z" id="Stroke-39" stroke="#7450C8" stroke-linecap="round" stroke-linejoin="round"></path>
                            <polygon id="Fill-40" fill="#DFE4EE" points="6 26 62 26 62 20 6 20"></polygon>
                            <polygon id="Stroke-41" stroke="#7450C8" stroke-linecap="round" stroke-linejoin="round" points="6 26 62 26 62 20 6 20"></polygon>
                            <polygon id="Fill-42" fill="#DFE4EE" points="63 62 89 62 89 42 63 42"></polygon>
                            <polygon id="Fill-43" fill="#FFFFFF" points="75 42 64 42 64 53"></polygon>
                            <polygon id="Stroke-44" stroke="#7450C8" stroke-linecap="round" stroke-linejoin="round" points="63 62 89 62 89 42 63 42"></polygon>
                            <polygon id="Stroke-45" stroke="#7450C8" stroke-linecap="round" stroke-linejoin="round" points="71 62 77 62 77 50 71 50"></polygon>
                            <polygon id="Fill-46" fill="#D6DAFF" points="76 62 82 62 82 50 76 50"></polygon>
                            <polygon id="Fill-47" fill="#DFE4EE" points="76 62 82 62 82 50 76 50"></polygon>
                            <polygon id="Stroke-48" stroke="#7450C8" stroke-linecap="round" stroke-linejoin="round" points="76 62 82 62 82 50 76 50"></polygon>
                            <path d="M87,16.4992708 C87,22.2994652 82.2983333,27 76.5,27 C70.7002083,27 66,22.2994652 66,16.4992708 C66,10.6990763 70.7002083,6 76.5,6 C82.2983333,6 87,10.6990763 87,16.4992708" id="Fill-49" fill="#FFFFFF"></path>
                            <path d="M87,16.4992708 C87,22.2994652 82.2983333,27 76.5,27 C70.7002083,27 66,22.2994652 66,16.4992708 C66,10.6990763 70.7002083,6 76.5,6 C82.2983333,6 87,10.6990763 87,16.4992708 Z" id="Stroke-50" stroke="#7450C8" stroke-linecap="round" stroke-linejoin="round"></path>
                            <path d="M75.770788,20.6619504 L74.6632564,21.770788 C74.3563343,22.076404 73.8613409,22.076404 73.5544188,21.770788 L70.229212,18.4468872 C69.923596,18.1399652 69.923596,17.6436657 70.229212,17.3380496 L71.3380496,16.229212 C71.6436657,15.923596 72.1399652,15.923596 72.4468872,16.229212 L75.770788,19.5531128 C76.076404,19.8600348 76.076404,20.3563343 75.770788,20.6619504" id="Fill-51" fill="#DFE4EE"></path>
                            <path d="M75.770788,20.6619504 L74.6632564,21.770788 C74.3563343,22.076404 73.8613409,22.076404 73.5544188,21.770788 L70.229212,18.4468872 C69.923596,18.1399652 69.923596,17.6436657 70.229212,17.3380496 L71.3380496,16.229212 C71.6436657,15.923596 72.1399652,15.923596 72.4468872,16.229212 L75.770788,19.5531128 C76.076404,19.8600348 76.076404,20.3563343 75.770788,20.6619504 Z" id="Stroke-52" stroke="#7450C8" stroke-linecap="round" stroke-linejoin="round"></path>
                            <path d="M82.770788,12.6620232 L81.6619504,13.7708005 C81.3563343,14.0763998 80.8600348,14.0763998 80.5544188,13.7708005 L77.229212,10.4457746 C76.923596,10.1388692 76.923596,9.64259672 77.229212,9.33699733 L78.3380496,8.22822006 C78.6436657,7.92392665 79.1399652,7.92392665 79.4468872,8.22822006 L82.770788,11.5532459 C83.076404,11.8601513 83.076404,12.3564238 82.770788,12.6620232" id="Fill-53" fill="#DFE4EE"></path>
                            <path d="M82.770788,12.6620232 L81.6619504,13.7708005 C81.3563343,14.0763998 80.8600348,14.0763998 80.5544188,13.7708005 L77.229212,10.4457746 C76.923596,10.1388692 76.923596,9.64259672 77.229212,9.33699733 L78.3380496,8.22822006 C78.6436657,7.92392665 79.1399652,7.92392665 79.4468872,8.22822006 L82.770788,11.5532459 C83.076404,11.8601513 83.076404,12.3564238 82.770788,12.6620232 Z" id="Stroke-54" stroke="#7450C8" stroke-linecap="round" stroke-linejoin="round"></path>
                            <polygon id="Fill-55" fill="#DFE4EE" points="74.3328751 19 72 16.6666667 76.6657502 12 79 14.3319584"></polygon>
                            <polygon id="Stroke-56" stroke="#7450C8" stroke-linecap="round" stroke-linejoin="round" points="74.3328751 19 72 16.6666667 76.6657502 12 79 14.3319584"></polygon>
                            <line x1="71" y1="50" x2="71" y2="42" id="Stroke-57" stroke="#7450C8" stroke-linecap="round" stroke-linejoin="round"></line>
                            <line x1="81" y1="50" x2="81" y2="42" id="Stroke-58" stroke="#7450C8" stroke-linecap="round" stroke-linejoin="round"></line>
                            <line x1="81" y1="55" x2="89" y2="55" id="Stroke-59" stroke="#7450C8" stroke-linecap="round" stroke-linejoin="round"></line>
                            <line x1="71" y1="55" x2="63" y2="55" id="Stroke-60" stroke="#7450C8" stroke-linecap="round" stroke-linejoin="round"></line>
                            <line x1="21" y1="30" x2="21" y2="62" id="Stroke-61" stroke="#7450C8" stroke-linecap="round" stroke-linejoin="round"></line>
                            <line x1="45" y1="30" x2="45" y2="62" id="Stroke-62" stroke="#7450C8" stroke-linecap="round" stroke-linejoin="round"></line>
                            <line x1="6" y1="37" x2="59" y2="37" id="Stroke-63" stroke="#7450C8" stroke-linecap="round" stroke-linejoin="round"></line>
                            <line x1="6" y1="54" x2="59" y2="54" id="Stroke-64" stroke="#7450C8" stroke-linecap="round" stroke-linejoin="round"></line>
                        </g>
                        <g id="Group" transform="translate(107.000000, 19.000000)">
                            <path d="M66,68 C66,69.6571429 52.7914921,71 36.5,71 C20.2066349,71 7,69.6571429 7,68 C7,66.3428571 20.2066349,65 36.5,65 C52.7914921,65 66,66.3428571 66,68" id="Fill-9" fill="#DFE4EE"></path>
                            <path d="M73,42 L72.9925241,4.66481481 C72.9925241,2.08888889 70.8843288,0 68.2827261,0 L4.70792903,0 C2.10819529,0 0,2.08888889 0,4.66481481 L0.00747586984,42 L73,42 Z" id="Fill-11" fill="#DFE4EE"></path>
                            <path d="M9.45488654,42 L52,0 L4.7255673,0 C2.11609365,0 0,2.08888889 0,4.66481481 L0.00750387821,42 L9.45488654,42 Z" id="Fill-13" fill="#FFFFFF"></path>
                            <path d="M73,42 L73,51.3333333 C73,53.9111111 70.8915888,56 68.2878505,56 L4.70841121,56 C2.10841121,56 0,53.9111111 0,51.3333333 L0,42 L73,42 Z" id="Fill-15" fill="#FFFFFF"></path>
                            <path d="M73,42 L73,51.3333333 C73,53.9111111 70.8915888,56 68.2878505,56 L4.70841121,56 C2.10841121,56 0,53.9111111 0,51.3333333 L0,42 L73,42 Z" id="Stroke-17" stroke="#7450C8" stroke-linecap="round" stroke-linejoin="round"></path>
                            <path d="M39,49.5 C39,50.8809524 37.8829365,52 36.5,52 C35.1190476,52 34,50.8809524 34,49.5 C34,48.1210317 35.1190476,47 36.5,47 C37.8829365,47 39,48.1210317 39,49.5" id="Fill-19" fill="#F4F6FC"></path>
                            <path d="M39,49.5 C39,50.8809524 37.8829365,52 36.5,52 C35.1190476,52 34,50.8809524 34,49.5 C34,48.1210317 35.1190476,47 36.5,47 C37.8829365,47 39,48.1210317 39,49.5 Z" id="Stroke-21" stroke="#7450C8" stroke-linecap="round" stroke-linejoin="round"></path>
                            <polygon id="Fill-23" fill="#FFFFFF" points="48 66 24 66 25.2 57 46.8 57"></polygon>
                            <polygon id="Stroke-25" stroke="#7450C8" stroke-linecap="round" stroke-linejoin="round" points="48 66 24 66 25.2 57 46.8 57"></polygon>
                            <line x1="17" y1="66" x2="55" y2="66" id="Stroke-27" stroke="#7450C8" stroke-linecap="round" stroke-linejoin="round"></line>
                            <path d="M73,42 L72.9925241,4.66481481 C72.9925241,2.08888889 70.8843288,0 68.2827261,0 L4.70792903,0 C2.10819529,0 0,2.08888889 0,4.66481481 L0.00747586984,42 L73,42 Z" id="Stroke-29" stroke="#7450C8" stroke-linecap="round" stroke-linejoin="round"></path>
                        </g>
                        <g id="Group" transform="translate(128.000000, 0.000000)">
                            <path d="M55.4617691,51 L3.53823088,51 C1.5922039,51 0,49.3935927 0,47.4302059 L0,12 L59,12 L59,47.4302059 C59,49.3935927 57.4077961,51 55.4617691,51" id="Fill-27" fill="#FFFFFF"></path>
                            <path d="M55.4617691,51 L3.53823088,51 C1.5922039,51 0,49.3935927 0,47.4302059 L0,12 L59,12 L59,47.4302059 C59,49.3935927 57.4077961,51 55.4617691,51 Z" id="Stroke-29" stroke="#7450C8" stroke-linecap="round" stroke-linejoin="round"></path>
                            <path d="M59,12 L0,12 L0,3.47826087 C0,1.56521739 1.5922039,0 3.53823088,0 L55.4617691,0 C57.4077961,0 59,1.56521739 59,3.47826087 L59,12 Z" id="Fill-31" fill="#FFFFFF"></path>
                            <path d="M59,12 L0,12 L0,3.47826087 C0,1.56521739 1.5922039,0 3.53823088,0 L55.4617691,0 C57.4077961,0 59,1.56521739 59,3.47826087 L59,12 Z" id="Stroke-33" stroke="#7450C8" stroke-linecap="round" stroke-linejoin="round"></path>
                            <path d="M8,6 C8,7.10434783 7.10434783,8 6,8 C4.89565217,8 4,7.10434783 4,6 C4,4.89565217 4.89565217,4 6,4 C7.10434783,4 8,4.89565217 8,6" id="Fill-35" fill="#DFE4EE"></path>
                            <path d="M8,6 C8,7.10434783 7.10434783,8 6,8 C4.89565217,8 4,7.10434783 4,6 C4,4.89565217 4.89565217,4 6,4 C7.10434783,4 8,4.89565217 8,6 Z" id="Stroke-37" stroke="#7450C8" stroke-linecap="round" stroke-linejoin="round"></path>
                            <path d="M16,6 C16,7.10434783 15.1043478,8 14,8 C12.8956522,8 12,7.10434783 12,6 C12,4.89565217 12.8956522,4 14,4 C15.1043478,4 16,4.89565217 16,6" id="Fill-39" fill="#DFE4EE"></path>
                            <path d="M16,6 C16,7.10434783 15.1043478,8 14,8 C12.8956522,8 12,7.10434783 12,6 C12,4.89565217 12.8956522,4 14,4 C15.1043478,4 16,4.89565217 16,6 Z" id="Stroke-41" stroke="#7450C8" stroke-linecap="round" stroke-linejoin="round"></path>
                            <path d="M24,6 C24,7.10434783 23.1043478,8 22,8 C20.8956522,8 20,7.10434783 20,6 C20,4.89565217 20.8956522,4 22,4 C23.1043478,4 24,4.89565217 24,6" id="Fill-43" fill="#DFE4EE"></path>
                            <path d="M24,6 C24,7.10434783 23.1043478,8 22,8 C20.8956522,8 20,7.10434783 20,6 C20,4.89565217 20.8956522,4 22,4 C23.1043478,4 24,4.89565217 24,6 Z" id="Stroke-45" stroke="#7450C8" stroke-linecap="round" stroke-linejoin="round"></path>
                            <path d="M24.5507246,33 L19.4492754,33 C18.6492754,33 18,32.3507246 18,31.5507246 L18,26.4492754 C18,25.6492754 18.6492754,25 19.4492754,25 L24.5507246,25 C25.3507246,25 26,25.6492754 26,26.4492754 L26,31.5507246 C26,32.3507246 25.3507246,33 24.5507246,33" id="Fill-47" fill="#DFE4EE"></path>
                            <path d="M24.5507246,33 L19.4492754,33 C18.6492754,33 18,32.3507246 18,31.5507246 L18,26.4492754 C18,25.6492754 18.6492754,25 19.4492754,25 L24.5507246,25 C25.3507246,25 26,25.6492754 26,26.4492754 L26,31.5507246 C26,32.3507246 25.3507246,33 24.5507246,33 Z" id="Stroke-49" stroke="#7450C8" stroke-linecap="round" stroke-linejoin="round"></path>
                            <path d="M38.5507246,33 L33.4492754,33 C32.6492754,33 32,32.3507246 32,31.5507246 L32,26.4492754 C32,25.6492754 32.6492754,25 33.4492754,25 L38.5507246,25 C39.3507246,25 40,25.6492754 40,26.4492754 L40,31.5507246 C40,32.3507246 39.3507246,33 38.5507246,33" id="Fill-51" fill="#DFE4EE"></path>
                            <path d="M38.5507246,33 L33.4492754,33 C32.6492754,33 32,32.3507246 32,31.5507246 L32,26.4492754 C32,25.6492754 32.6492754,25 33.4492754,25 L38.5507246,25 C39.3507246,25 40,25.6492754 40,26.4492754 L40,31.5507246 C40,32.3507246 39.3507246,33 38.5507246,33 Z" id="Stroke-53" stroke="#7450C8" stroke-linecap="round" stroke-linejoin="round"></path>
                            <path d="M51.5507246,33 L46.4492754,33 C45.6492754,33 45,32.3507246 45,31.5507246 L45,26.4492754 C45,25.6492754 45.6492754,25 46.4492754,25 L51.5507246,25 C52.3521739,25 53,25.6492754 53,26.4492754 L53,31.5507246 C53,32.3507246 52.3521739,33 51.5507246,33" id="Fill-55" fill="#DFE4EE"></path>
                            <path d="M51.5507246,33 L46.4492754,33 C45.6492754,33 45,32.3507246 45,31.5507246 L45,26.4492754 C45,25.6492754 45.6492754,25 46.4492754,25 L51.5507246,25 C52.3521739,25 53,25.6492754 53,26.4492754 L53,31.5507246 C53,32.3507246 52.3521739,33 51.5507246,33 Z" id="Stroke-57" stroke="#7450C8" stroke-linecap="round" stroke-linejoin="round"></path>
                            <path d="M24.5507246,45 L19.4492754,45 C18.6492754,45 18,44.3507246 18,43.5507246 L18,38.4492754 C18,37.6492754 18.6492754,37 19.4492754,37 L24.5507246,37 C25.3507246,37 26,37.6492754 26,38.4492754 L26,43.5507246 C26,44.3507246 25.3507246,45 24.5507246,45" id="Fill-59" fill="#DFE4EE"></path>
                            <path d="M24.5507246,45 L19.4492754,45 C18.6492754,45 18,44.3507246 18,43.5507246 L18,38.4492754 C18,37.6492754 18.6492754,37 19.4492754,37 L24.5507246,37 C25.3507246,37 26,37.6492754 26,38.4492754 L26,43.5507246 C26,44.3507246 25.3507246,45 24.5507246,45 Z" id="Stroke-61" stroke="#7450C8" stroke-linecap="round" stroke-linejoin="round"></path>
                            <path d="M38.5507246,45 L33.4492754,45 C32.6492754,45 32,44.3507246 32,43.5507246 L32,38.4492754 C32,37.6492754 32.6492754,37 33.4492754,37 L38.5507246,37 C39.3507246,37 40,37.6492754 40,38.4492754 L40,43.5507246 C40,44.3507246 39.3507246,45 38.5507246,45" id="Fill-63" fill="#DFE4EE"></path>
                            <path d="M38.5507246,45 L33.4492754,45 C32.6492754,45 32,44.3507246 32,43.5507246 L32,38.4492754 C32,37.6492754 32.6492754,37 33.4492754,37 L38.5507246,37 C39.3507246,37 40,37.6492754 40,38.4492754 L40,43.5507246 C40,44.3507246 39.3507246,45 38.5507246,45 Z" id="Stroke-65" stroke="#7450C8" stroke-linecap="round" stroke-linejoin="round"></path>
                            <path d="M51.5507246,45 L46.4492754,45 C45.6492754,45 45,44.3507246 45,43.5507246 L45,38.4492754 C45,37.6492754 45.6492754,37 46.4492754,37 L51.5507246,37 C52.3521739,37 53,37.6492754 53,38.4492754 L53,43.5507246 C53,44.3507246 52.3521739,45 51.5507246,45" id="Fill-67" fill="#DFE4EE"></path>
                            <path d="M51.5507246,45 L46.4492754,45 C45.6492754,45 45,44.3507246 45,43.5507246 L45,38.4492754 C45,37.6492754 45.6492754,37 46.4492754,37 L51.5507246,37 C52.3521739,37 53,37.6492754 53,38.4492754 L53,43.5507246 C53,44.3507246 52.3521739,45 51.5507246,45 Z" id="Stroke-69" stroke="#7450C8" stroke-linecap="round" stroke-linejoin="round"></path>
                            <path d="M12.5507246,20 L7.44927536,20 C6.64927536,20 6,19.3507246 6,18.5507246 L6,17.4492754 C6,16.6492754 6.64927536,16 7.44927536,16 L12.5507246,16 C13.3507246,16 14,16.6492754 14,17.4492754 L14,18.5507246 C14,19.3507246 13.3507246,20 12.5507246,20" id="Fill-71" fill="#DFE4EE"></path>
                            <path d="M12.5507246,20 L7.44927536,20 C6.64927536,20 6,19.3507246 6,18.5507246 L6,17.4492754 C6,16.6492754 6.64927536,16 7.44927536,16 L12.5507246,16 C13.3507246,16 14,16.6492754 14,17.4492754 L14,18.5507246 C14,19.3507246 13.3507246,20 12.5507246,20 Z" id="Stroke-73" stroke="#7450C8" stroke-linecap="round" stroke-linejoin="round"></path>
                            <path d="M51.5080989,20 L19.4919011,20 C18.6683717,20 18,19.3507246 18,18.5507246 L18,17.4492754 C18,16.6492754 18.6683717,16 19.4919011,16 L51.5080989,16 C52.3331202,16 53,16.6492754 53,17.4492754 L53,18.5507246 C53,19.3507246 52.3331202,20 51.5080989,20" id="Fill-75" fill="#DFE4EE"></path>
                            <path d="M51.5080989,20 L19.4919011,20 C18.6683717,20 18,19.3507246 18,18.5507246 L18,17.4492754 C18,16.6492754 18.6683717,16 19.4919011,16 L51.5080989,16 C52.3331202,16 53,16.6492754 53,17.4492754 L53,18.5507246 C53,19.3507246 52.3331202,20 51.5080989,20 Z" id="Stroke-77" stroke="#7450C8" stroke-linejoin="round"></path>
                            <line x1="6" y1="25" x2="14" y2="25" id="Stroke-79" stroke="#7450C8" stroke-linecap="round" stroke-linejoin="round"></line>
                            <line x1="6" y1="29" x2="14" y2="29" id="Stroke-81" stroke="#7450C8" stroke-linecap="round" stroke-linejoin="round"></line>
                            <line x1="6" y1="33" x2="14" y2="33" id="Stroke-83" stroke="#7450C8" stroke-linecap="round" stroke-linejoin="round"></line>
                            <line x1="6" y1="37" x2="14" y2="37" id="Stroke-85" stroke="#7450C8" stroke-linecap="round" stroke-linejoin="round"></line>
                            <line x1="6" y1="41" x2="14" y2="41" id="Stroke-87" stroke="#7450C8" stroke-linecap="round" stroke-linejoin="round"></line>
                            <line x1="6" y1="45" x2="11" y2="45" id="Stroke-89" stroke="#7450C8" stroke-linecap="round" stroke-linejoin="round"></line>
                            <path d="M72.1392802,67.1655474 C71.8446758,68.2438535 71.252521,68.282154 70.8223986,67.2509869 L64.1555015,51.2502205 C63.7253791,50.2175804 64.2188414,49.7255664 65.2499568,50.1557104 L81.2499207,56.8229419 C82.2825091,57.2530859 82.2442105,57.8437973 81.1644854,58.1398895 L76.0339501,59.5378574 C74.9556981,59.8324766 73.8317824,60.9564487 73.538651,62.0347548 L72.1392802,67.1655474 Z" id="Fill-91" fill="#FFFFFF"></path>
                            <path d="M72.1392802,67.1655474 C71.8446758,68.2438535 71.252521,68.282154 70.8223986,67.2509869 L64.1555015,51.2502205 C63.7253791,50.2175804 64.2188414,49.7255664 65.2499568,50.1557104 L81.2499207,56.8229419 C82.2825091,57.2530859 82.2442105,57.8437973 81.1644854,58.1398895 L76.0339501,59.5378574 C74.9556981,59.8324766 73.8317824,60.9564487 73.538651,62.0347548 L72.1392802,67.1655474 Z" id="Stroke-93" stroke="#7450C8" stroke-linejoin="round"></path>
                        </g>
                        <g id="Button" transform="translate(14.000000, 101.000000)">
                            <g id="Base" fill="#FFFFFF" stroke="#B0BAC9">
                                <rect x="0.5" y="0.5" width="167" height="39" rx="4"></rect>
                            </g>
                            <text id="↳-✏️-Value" font-family="Roboto-Bold, Roboto" font-size="14" font-weight="bold" line-spacing="26" fill="#7450C8">
                                <tspan x="38.7597656" y="22">Your Business</tspan>
                            </text>
                        </g>
                    </g>
                    <g id="Group-5" transform="translate(0.000000, 119.000000)">
                        <g id="Button" transform="translate(80.000000, 21.000000)">
                            <g id="Base">
                                <g>
                                    <use fill="black" fill-opacity="1" filter="url(#filter-2)" xlink:href="#path-1"></use>
                                    <use fill="#FFFFFF" fill-rule="evenodd" xlink:href="#path-1"></use>
                                </g>
                            </g>
                            <text id="↳-✏️-Value" font-family="Roboto-Bold, Roboto" font-size="14" font-weight="bold" line-spacing="26" fill="#7450C8">
                                <tspan x="40.4584961" y="22">Data Subjects</tspan>
                            </text>
                        </g>
                        <g id="customer-service-woman-2">
                            <g id="customer-service-woman">
                                <path d="M89.7272727,43.125 C89.7272727,19.4560714 70.5972045,0.267857143 47,0.267857143 C23.4027955,0.267857143 4.27272727,19.4560714 4.27272727,43.125 C4.27272727,49.4303571 5.64106818,55.4196429 8.07865909,60.81 L85.9202727,60.81 C88.3589318,55.4196429 89.7272727,49.4303571 89.7272727,43.125" id="Fill-1" fill="#F4F6FC"></path>
                                <line x1="5.34090909" y1="60.8103214" x2="88.6590909" y2="60.8103214" id="Stroke-3" stroke="#7450C8" stroke-linecap="round" stroke-linejoin="round"></line>
                                <line x1="0.534090909" y1="60.8103214" x2="3.20454545" y2="60.8103214" id="Stroke-5" stroke="#7450C8" stroke-linecap="round" stroke-linejoin="round"></line>
                                <line x1="90.7954545" y1="60.8103214" x2="93.4659091" y2="60.8103214" id="Stroke-7" stroke="#7450C8" stroke-linecap="round" stroke-linejoin="round"></line>
                                <path d="M19.6956705,73.125 C19.6956705,74.0132143 28.3041477,74.7321429 38.9229432,74.7321429 C49.5406705,74.7321429 58.1502159,74.0132143 58.1502159,73.125 C58.1502159,72.2367857 49.5406705,71.5178571 38.9229432,71.5178571 C28.3041477,71.5178571 19.6956705,72.2367857 19.6956705,73.125" id="Fill-9" fill="#F0F2FF"></path>
                                <path d="M61.3140636,37.6606071 C64.85295,37.6606071 67.7231545,34.78275 67.7231545,31.2320357 L67.7231545,18.3748929 C67.7231545,10.9906071 61.5170182,5.06025 54.0514955,5.54560714 C47.2386318,5.98810714 42.0867909,11.96775 42.0867909,18.81525 L42.0867909,31.2320357 C42.0867909,34.78275 44.9569955,37.6606071 48.4958818,37.6606071 L61.3140636,37.6606071 Z" id="Fill-11" fill="#FFFFFF"></path>
                                <path d="M61.3140636,37.6606071 C64.85295,37.6606071 67.7231545,34.78275 67.7231545,31.2320357 L67.7231545,18.3748929 C67.7231545,10.9906071 61.5170182,5.06025 54.0514955,5.54560714 C47.2386318,5.98810714 42.0867909,11.96775 42.0867909,18.81525 L42.0867909,31.2320357 C42.0867909,34.78275 44.9569955,37.6606071 48.4958818,37.6606071 L61.3140636,37.6606071 Z" id="Stroke-13" stroke="#7450C8" stroke-linecap="round" stroke-linejoin="round"></path>
                                <path d="M54.9049727,35.7311786 C45.7025864,35.7311786 38.2413364,43.2140357 38.2413364,52.4454643 L38.2413364,56.9476071 C38.2413364,65.4215357 35.2418818,66.5883214 31.9134273,66.5883214 L30.5504273,66.5883214 L29.2686091,66.5883214 L29.2686091,72.3740357 L30.5504273,72.3740357 L31.9134273,72.3740357 C36.5696318,72.3740357 44.6504273,68.4836786 44.6504273,60.8036786 L65.1605864,60.8036786 C65.1605864,65.6936786 61.5661545,66.5883214 58.8316091,66.5883214 L57.4686091,66.5883214 L56.1867909,66.5883214 L56.1867909,72.3740357 L57.4686091,72.3740357 L58.8316091,72.3740357 C64.0934727,72.3740357 71.5696773,71.2479643 71.5696773,60.8015357 L71.5696773,52.4454643 C71.5696773,43.2140357 64.1084273,35.7311786 54.9049727,35.7311786" id="Fill-15" fill="#FFFFFF"></path>
                                <path d="M54.9049727,35.7311786 C45.7025864,35.7311786 38.2413364,43.2140357 38.2413364,52.4454643 L38.2413364,56.9476071 C38.2413364,65.4215357 35.2418818,66.5883214 31.9134273,66.5883214 L29.2686091,66.5883214 L29.2686091,72.3740357 L31.9134273,72.3740357 C36.5696318,72.3740357 44.6504273,68.4836786 44.6504273,60.8036786 L65.1605864,60.8036786 C65.1605864,65.6936786 61.5661545,66.5883214 58.8316091,66.5883214 L56.1867909,66.5883214 L56.1867909,72.3740357 L58.8316091,72.3740357 C64.0934727,72.3740357 71.5696773,71.2479643 71.5696773,60.8015357 L71.5696773,52.4454643 C71.5696773,43.2140357 64.1084273,35.7311786 54.9049727,35.7311786 Z" id="Stroke-17" stroke="#7450C8" stroke-linecap="round" stroke-linejoin="round"></path>
                                <line x1="44.6508545" y1="53.0885357" x2="44.6508545" y2="60.8028214" id="Stroke-19" stroke="#7450C8" stroke-linecap="round" stroke-linejoin="round"></line>
                                <line x1="65.1601591" y1="53.0885357" x2="65.1601591" y2="60.8028214" id="Stroke-21" stroke="#7450C8" stroke-linecap="round" stroke-linejoin="round"></line>
                                <path d="M56.1870045,71.7323571 L54.2642773,71.7323571 C52.8489364,71.7323571 51.7006409,70.5805714 51.7006409,69.1609286 C51.7006409,67.7402143 52.8489364,66.5895 54.2642773,66.5895 L56.1870045,66.5895 L56.1870045,71.7323571 Z" id="Fill-23" fill="#FFFFFF"></path>
                                <path d="M56.1870045,71.7323571 L54.2642773,71.7323571 C52.8489364,71.7323571 51.7006409,70.5805714 51.7006409,69.1609286 C51.7006409,67.7402143 52.8489364,66.5895 54.2642773,66.5895 L56.1870045,66.5895 L56.1870045,71.7323571 Z" id="Stroke-25" stroke="#7450C8" stroke-linecap="round" stroke-linejoin="round"></path>
                                <path d="M29.2686091,71.7323571 L27.3458818,71.7323571 C25.9294727,71.7323571 24.7822455,70.5805714 24.7822455,69.1609286 C24.7822455,67.7402143 25.9294727,66.5895 27.3458818,66.5895 L29.2686091,66.5895 L29.2686091,71.7323571 Z" id="Fill-27" fill="#FFFFFF"></path>
                                <path d="M29.2686091,71.7323571 L27.3458818,71.7323571 C25.9294727,71.7323571 24.7822455,70.5805714 24.7822455,69.1609286 C24.7822455,67.7402143 25.9294727,66.5895 27.3458818,66.5895 L29.2686091,66.5895 L29.2686091,71.7323571 Z" id="Stroke-29" stroke="#7450C8" stroke-linecap="round" stroke-linejoin="round"></path>
                                <line x1="54.9049727" y1="44.0891786" x2="54.9049727" y2="60.8034643" id="Stroke-31" stroke="#7450C8" stroke-linecap="round" stroke-linejoin="round"></line>
                                <polygon id="Fill-33" fill="#FFFFFF" points="58.7510682 36.3752143 54.9045455 44.0895 51.0601591 36.3752143 51.0601591 33.1609286 58.7510682 33.1609286"></polygon>
                                <polygon id="Stroke-35" stroke="#7450C8" stroke-linecap="round" stroke-linejoin="round" points="58.7510682 36.3752143 54.9045455 44.0895 51.0601591 36.3752143 51.0601591 33.1609286 58.7510682 33.1609286"></polygon>
                                <path d="M48.8995477,42.3010714 C49.1057068,42.57 49.4261614,42.7253571 49.7658432,42.7189286 C50.1033886,42.7135714 50.4185023,42.5464286 50.6150477,42.2710714 L52.5270932,39.585 C52.7984114,39.2046429 52.7930705,38.6925 52.5132068,38.3196429 L50.9344341,36.2078571 C49.1195932,36.6535714 47.4222523,37.3960714 45.8947523,38.3828571 L48.8995477,42.3010714 Z" id="Fill-37" fill="#FFFFFF"></path>
                                <path d="M48.8995477,42.3010714 C49.1057068,42.57 49.4261614,42.7253571 49.7658432,42.7189286 C50.1033886,42.7135714 50.4185023,42.5464286 50.6150477,42.2710714 L52.5270932,39.585 C52.7984114,39.2046429 52.7930705,38.6925 52.5132068,38.3196429 L50.9344341,36.2078571 C49.1195932,36.6535714 47.4222523,37.3960714 45.8947523,38.3828571 L48.8995477,42.3010714 Z" id="Stroke-39" stroke="#7450C8" stroke-linecap="round" stroke-linejoin="round"></path>
                                <path d="M60.9103977,42.3010714 C60.7042386,42.57 60.3837841,42.7253571 60.0441023,42.7189286 C59.7065568,42.7135714 59.3914432,42.5464286 59.1948977,42.2710714 L57.2828523,39.585 C57.0115341,39.2046429 57.016875,38.6925 57.2967386,38.3196429 L58.8755114,36.2078571 C60.6892841,36.6535714 62.3876932,37.3960714 63.9151932,38.3828571 L60.9103977,42.3010714 Z" id="Fill-41" fill="#FFFFFF"></path>
                                <path d="M60.9103977,42.3010714 C60.7042386,42.57 60.3837841,42.7253571 60.0441023,42.7189286 C59.7065568,42.7135714 59.3914432,42.5464286 59.1948977,42.2710714 L57.2828523,39.585 C57.0115341,39.2046429 57.016875,38.6925 57.2967386,38.3196429 L58.8755114,36.2078571 C60.6892841,36.6535714 62.3876932,37.3960714 63.9151932,38.3828571 L60.9103977,42.3010714 Z" id="Stroke-43" stroke="#7450C8" stroke-linecap="round" stroke-linejoin="round"></path>
                                <path d="M65.8026705,21.5891786 L65.8026705,19.01775 C65.8026705,18.7166786 65.7802386,18.4209643 65.7578068,18.1263214 C64.0690114,19.0970357 62.1174432,19.6606071 60.0323523,19.6606071 C56.4913295,19.6606071 53.3284432,18.05775 51.2134432,15.5398929 C50.2499432,18.33525 47.9629659,20.3034643 45.2914432,20.3034643 C44.8534886,20.3034643 44.4251477,20.2498929 44.0117614,20.1491786 L44.0117614,21.5891786 C42.9489205,21.5891786 42.0890341,22.45275 42.0890341,23.51775 L42.0890341,24.1606071 C42.0890341,25.2256071 42.9489205,26.0891786 44.0117614,26.0891786 C44.0715795,26.0891786 44.1292614,26.0763214 44.1890795,26.0720357 C45.0895568,31.1945357 49.5396023,35.0891786 54.9072159,35.0891786 C60.2726932,35.0891786 64.7227386,31.1945357 65.6253523,26.0720357 C65.6851705,26.0763214 65.7407159,26.0891786 65.8026705,26.0891786 C66.8644432,26.0891786 67.7253977,25.2256071 67.7253977,24.1606071 L67.7253977,23.51775 C67.7253977,22.45275 66.8644432,21.5891786 65.8026705,21.5891786" id="Fill-45" fill="#FFFFFF"></path>
                                <path d="M65.8026705,21.5891786 L65.8026705,19.01775 C65.8026705,18.7166786 65.7802386,18.4209643 65.7578068,18.1263214 C64.0690114,19.0970357 62.1174432,19.6606071 60.0323523,19.6606071 C56.4913295,19.6606071 53.3284432,18.05775 51.2134432,15.5398929 C50.2499432,18.33525 47.9629659,20.3034643 45.2914432,20.3034643 C44.8534886,20.3034643 44.4251477,20.2498929 44.0117614,20.1491786 L44.0117614,21.5891786 C42.9489205,21.5891786 42.0890341,22.45275 42.0890341,23.51775 L42.0890341,24.1606071 C42.0890341,25.2256071 42.9489205,26.0891786 44.0117614,26.0891786 C44.0715795,26.0891786 44.1292614,26.0763214 44.1890795,26.0720357 C45.0895568,31.1945357 49.5396023,35.0891786 54.9072159,35.0891786 C60.2726932,35.0891786 64.7227386,31.1945357 65.6253523,26.0720357 C65.6851705,26.0763214 65.7407159,26.0891786 65.8026705,26.0891786 C66.8644432,26.0891786 67.7253977,25.2256071 67.7253977,24.1606071 L67.7253977,23.51775 C67.7253977,22.45275 66.8644432,21.5891786 65.8026705,21.5891786 Z" id="Stroke-47" stroke="#7450C8" stroke-linecap="round" stroke-linejoin="round"></path>
                                <path d="M49.7799432,26.0893929 C49.7799432,26.79975 49.2063295,27.3751071 48.498125,27.3751071 C47.7899205,27.3751071 47.2163068,26.79975 47.2163068,26.0893929 C47.2163068,25.3790357 47.7899205,24.8036786 48.498125,24.8036786 C49.2063295,24.8036786 49.7799432,25.3790357 49.7799432,26.0893929" id="Fill-49" fill="#F4F6FC"></path>
                                <path d="M62.598125,26.0893929 C62.598125,26.79975 62.0245114,27.3751071 61.3163068,27.3751071 C60.6081023,27.3751071 60.0344886,26.79975 60.0344886,26.0893929 C60.0344886,25.3790357 60.6081023,24.8036786 61.3163068,24.8036786 C62.0245114,24.8036786 62.598125,25.3790357 62.598125,26.0893929" id="Fill-51" fill="#F4F6FC"></path>
                                <path d="M51.7024568,28.6607143 C53.642275,30.375 56.1717295,30.375 58.1115477,28.6607143" id="Stroke-53" stroke="#7450C8" stroke-linecap="round" stroke-linejoin="round"></path>
                                <path d="M60.6756114,22.8751071 C60.3455432,22.2461786 59.7655205,21.8036786 59.0733386,21.8036786 C58.3800886,21.8036786 57.8000659,22.2461786 57.4710659,22.8751071" id="Stroke-55" stroke="#7450C8" stroke-linecap="round" stroke-linejoin="round"></path>
                                <path d="M52.3430455,22.6606071 C52.0129773,22.0316786 51.4340227,21.5891786 50.7407727,21.5891786 C50.0485909,21.5891786 49.4685682,22.0316786 49.1385,22.6606071" id="Stroke-57" stroke="#7450C8" stroke-linecap="round" stroke-linejoin="round"></path>
                                <path d="M42.8629318,69.9107143 L45.2513864,69.9107143 L40.1486818,54.0460714 C40.0066136,53.6035714 39.5953636,53.3035714 39.1328409,53.3035714 L37.5220227,53.3035714 L42.8629318,69.9107143 Z" id="Fill-83" fill="#F4F6FC"></path>
                                <path d="M42.8629318,69.9107143 L45.2513864,69.9107143 L40.1486818,54.0460714 C40.0066136,53.6035714 39.5953636,53.3035714 39.1328409,53.3035714 L37.5220227,53.3035714 L42.8629318,69.9107143 Z" id="Stroke-85" stroke="#7450C8" stroke-linejoin="round"></path>
                                <path d="M22.0333864,69.9107143 L42.8629318,69.9107143 L37.5220227,53.3035714 L18.1601591,53.3035714 C17.8183409,53.3035714 17.4978864,53.4675 17.296,53.7439286 C17.0941136,54.0214286 17.0385682,54.3771429 17.1421818,54.7039286 L22.0333864,69.9107143 Z" id="Fill-87" fill="#F4F6FC"></path>
                                <path d="M22.0333864,69.9107143 L43.9311136,69.9107143 L43.9311136,72.5892857 L24.16975,72.5892857 C22.9904773,72.5892857 22.0333864,71.6292857 22.0333864,70.4464286 L22.0333864,69.9107143 Z" id="Fill-89" fill="#F4F6FC"></path>
                                <path d="M22.0333864,69.9107143 L43.9311136,69.9107143 L43.9311136,72.5892857 L24.16975,72.5892857 C22.9904773,72.5892857 22.0333864,71.6292857 22.0333864,70.4464286 L22.0333864,69.9107143 Z" id="Stroke-91" stroke="#7450C8" stroke-linejoin="round"></path>
                                <path d="M43.9311136,69.9107143 L53.5970909,69.9107143 C53.8908409,69.9107143 54.1311818,70.1507143 54.1311818,70.4464286 C54.1311818,71.6292857 53.1740909,72.5892857 51.9948182,72.5892857 L43.9311136,72.5892857 L43.9311136,69.9107143 Z" id="Fill-93" fill="#F4F6FC"></path>
                                <path d="M43.9311136,69.9107143 L53.5970909,69.9107143 C53.8908409,69.9107143 54.1311818,70.1507143 54.1311818,70.4464286 C54.1311818,71.6292857 53.1740909,72.5892857 51.9948182,72.5892857 L43.9311136,72.5892857 L43.9311136,69.9107143 Z" id="Stroke-95" stroke="#7450C8" stroke-linejoin="round"></path>
                                <path d="M30.9439455,61.0159286 C30.9354,60.3495 31.4855136,60.0302143 31.5090136,60.0130714 C31.2013773,59.562 30.7217636,59.4998571 30.5508545,59.4923571 C30.1417409,59.4505714 29.7529227,59.7334286 29.5456955,59.7334286 C29.3384682,59.7334286 29.0180136,59.4977143 28.6794,59.5041429 C28.2339682,59.5116429 27.8237864,59.7645 27.5930591,60.1641429 C27.1305364,60.9698571 27.4766273,62.1623571 27.9274,62.8159286 C28.1474455,63.1362857 28.4102182,63.4952143 28.7541727,63.4823571 C29.0885136,63.4684286 29.2134909,63.267 29.6140591,63.267 C30.0167636,63.267 30.1289227,63.4823571 30.4803545,63.4748571 C30.8371273,63.4695 31.06465,63.1502143 31.2825591,62.8287857 C31.5367864,62.4580714 31.6393318,62.0991429 31.6468091,62.0798571 C31.6382636,62.0766429 30.9492864,61.812 30.9439455,61.0159286" id="Fill-97" fill="#FFFFFF"></path>
                                <path d="M30.9439455,61.0159286 C30.9354,60.3495 31.4855136,60.0302143 31.5090136,60.0130714 C31.2013773,59.562 30.7217636,59.4998571 30.5508545,59.4923571 C30.1417409,59.4505714 29.7529227,59.7334286 29.5456955,59.7334286 C29.3384682,59.7334286 29.0180136,59.4977143 28.6794,59.5041429 C28.2339682,59.5116429 27.8237864,59.7645 27.5930591,60.1641429 C27.1305364,60.9698571 27.4766273,62.1623571 27.9274,62.8159286 C28.1474455,63.1362857 28.4102182,63.4952143 28.7541727,63.4823571 C29.0885136,63.4684286 29.2134909,63.267 29.6140591,63.267 C30.0167636,63.267 30.1289227,63.4823571 30.4803545,63.4748571 C30.8371273,63.4695 31.06465,63.1502143 31.2825591,62.8287857 C31.5367864,62.4580714 31.6393318,62.0991429 31.6468091,62.0798571 C31.6382636,62.0766429 30.9492864,61.812 30.9439455,61.0159286 Z" id="Stroke-99" stroke="#7450C8" stroke-linejoin="round"></path>
                                <line x1="30.04475" y1="58.125" x2="30.5254318" y2="57.6417857" id="Stroke-101" stroke="#7450C8" stroke-linecap="round" stroke-linejoin="round"></line>
                                <path d="M22.0333864,69.9107143 L42.8629318,69.9107143 L37.5220227,53.3035714 L18.1601591,53.3035714 C17.8183409,53.3035714 17.4978864,53.4675 17.296,53.7439286 C17.0941136,54.0214286 17.0385682,54.3771429 17.1421818,54.7039286 L22.0333864,69.9107143 Z" id="Stroke-103" stroke="#7450C8" stroke-linejoin="round"></path>
                            </g>
                        </g>
                    </g>
                    <g id="Group-4" transform="translate(898.000000, 108.000000)">
                        <g id="Button" transform="translate(105.000000, 40.000000)">
                            <g id="Base">
                                <g>
                                    <use fill="black" fill-opacity="1" filter="url(#filter-4)" xlink:href="#path-3"></use>
                                    <use fill="#FFFFFF" fill-rule="evenodd" xlink:href="#path-3"></use>
                                </g>
                            </g>
                            <text id="↳-✏️-Value" font-family="Roboto-Bold, Roboto" font-size="14" font-weight="bold" line-spacing="26" fill="#7450C8">
                                <tspan x="32.0673828" y="22">Data Processors</tspan>
                            </text>
                        </g>
                        <g id="Illustration">
                            <g id="stamp-document" transform="translate(0.000000, 5.000000)" fill="#F4F6FC">
                                <path d="M115,55.2212389 C115,24.7239292 90.375125,0 60,0 C29.624875,0 5,24.7239292 5,55.2212389 C5,63.3470442 6.76275,71.0545487 9.9005,78 L110.0995,78 C113.23725,71.0545487 115,63.3470442 115,55.2212389" id="Fill-1"></path>
                            </g>
                            <g id="programmer-male">
                                <path d="M108,61.4336283 C108,35.2372212 86.7330625,14 60.5,14 C34.2669375,14 13,35.2372212 13,61.4336283 C13,68.4123009 14.522375,75.0328496 17.23225,81 L103.76775,81 C106.478812,75.0328496 108,68.4123009 108,61.4336283" id="Fill-1" fill="#F0F2FF"></path>
                                <line x1="13" y1="82" x2="106" y2="82" id="Stroke-3" stroke="#7450C8" stroke-linecap="round" stroke-linejoin="round"></line>
                                <line x1="8" y1="82" x2="11" y2="82" id="Stroke-5" stroke="#7450C8" stroke-linecap="round" stroke-linejoin="round"></line>
                                <line x1="108" y1="82" x2="111" y2="82" id="Stroke-7" stroke="#7450C8" stroke-linecap="round" stroke-linejoin="round"></line>
                                <mask id="mask-6" fill="white">
                                    <use xlink:href="#path-5"></use>
                                </mask>
                                <g id="Clip-10"></g>
                                <polygon id="Fill-9" fill="#FFFFFF" mask="url(#mask-6)" points="77 78 98 78 98 38 77 38"></polygon>
                                <polygon id="Stroke-11" stroke="#7450C8" stroke-linecap="round" stroke-linejoin="round" mask="url(#mask-6)" points="77 78 98 78 98 38 77 38"></polygon>
                                <polygon id="Fill-12" fill="#FFFFFF" mask="url(#mask-6)" points="77 37 98 37 98 35 77 35"></polygon>
                                <polygon id="Stroke-13" stroke="#7450C8" stroke-linecap="round" stroke-linejoin="round" mask="url(#mask-6)" points="77 37 98 37 98 35 77 35"></polygon>
                                <path d="M75,82 L77,82 L77,35.2 C77,34.5376 76.552,34 76,34 C75.447,34 75,34.5376 75,35.2 L75,82 Z" id="Fill-14" fill="#FFFFFF" mask="url(#mask-6)"></path>
                                <path d="M75,82 L77,82 L77,35.2 C77,34.5376 76.552,34 76,34 C75.447,34 75,34.5376 75,35.2 L75,82 Z" id="Stroke-15" stroke="#7450C8" stroke-linecap="round" stroke-linejoin="round" mask="url(#mask-6)"></path>
                                <path d="M99,82 L101,82 L101,35.2 C101,34.5376 100.552,34 100,34 C99.447,34 99,34.5376 99,35.2 L99,82 Z" id="Fill-16" fill="#FFFFFF" mask="url(#mask-6)"></path>
                                <path d="M99,82 L101,82 L101,35.2 C101,34.5376 100.552,34 100,34 C99.447,34 99,34.5376 99,35.2 L99,82 Z" id="Stroke-17" stroke="#7450C8" stroke-linecap="round" stroke-linejoin="round" mask="url(#mask-6)"></path>
                                <polygon id="Fill-18" fill="#FFFFFF" mask="url(#mask-6)" points="52 78 73 78 73 38 52 38"></polygon>
                                <polygon id="Stroke-19" stroke="#7450C8" stroke-linecap="round" stroke-linejoin="round" mask="url(#mask-6)" points="52 78 73 78 73 38 52 38"></polygon>
                                <path d="M70,44 L54,44 L54,41.3333333 C54,40.5973333 54.5297778,40 55.1851852,40 L68.8148148,40 C69.469037,40 70,40.5973333 70,41.3333333 L70,44 Z" id="Fill-20" fill="#FFFFFF" mask="url(#mask-6)"></path>
                                <path d="M70,44 L54,44 L54,41.3333333 C54,40.5973333 54.5297778,40 55.1851852,40 L68.8148148,40 C69.469037,40 70,40.5973333 70,41.3333333 L70,44 Z" id="Stroke-21" stroke="#7450C8" stroke-linecap="round" stroke-linejoin="round" mask="url(#mask-6)"></path>
                                <path d="M63.6666667,40 L60,44 L71,44 L71,41.3333333 C71,40.5973333 70.4524444,40 69.7777778,40 L63.6666667,40 Z" id="Fill-22" fill="#DFE4EE" mask="url(#mask-6)"></path>
                                <path d="M63.6666667,40 L60,44 L71,44 L71,41.3333333 C71,40.5973333 70.4524444,40 69.7777778,40 L63.6666667,40 Z" id="Stroke-23" stroke="#7450C8" stroke-linecap="round" stroke-linejoin="round" mask="url(#mask-6)"></path>
                                <path d="M70,63 L54,63 L54,60.3333333 C54,59.5973333 54.5297778,59 55.1851852,59 L68.8148148,59 C69.469037,59 70,59.5973333 70,60.3333333 L70,63 Z" id="Fill-24" fill="#FFFFFF" mask="url(#mask-6)"></path>
                                <path d="M70,63 L54,63 L54,60.3333333 C54,59.5973333 54.5297778,59 55.1851852,59 L68.8148148,59 C69.469037,59 70,59.5973333 70,60.3333333 L70,63 Z" id="Stroke-25" stroke="#7450C8" stroke-linecap="round" stroke-linejoin="round" mask="url(#mask-6)"></path>
                                <path d="M63.6666667,59 L60,63 L71,63 L71,60.3333333 C71,59.5973333 70.4524444,59 69.7777778,59 L63.6666667,59 Z" id="Fill-26" fill="#DFE4EE" mask="url(#mask-6)"></path>
                                <path d="M63.6666667,59 L60,63 L71,63 L71,60.3333333 C71,59.5973333 70.4524444,59 69.7777778,59 L63.6666667,59 Z" id="Stroke-27" stroke="#7450C8" stroke-linecap="round" stroke-linejoin="round" mask="url(#mask-6)"></path>
                                <path d="M70,45.6666667 C70,46.4026667 69.469037,47 68.8148148,47 L55.1851852,47 C54.5297778,47 54,46.4026667 54,45.6666667 L54,43 L70,43 L70,45.6666667 Z" id="Fill-28" fill="#FFFFFF" mask="url(#mask-6)"></path>
                                <path d="M70,45.6666667 C70,46.4026667 69.469037,47 68.8148148,47 L55.1851852,47 C54.5297778,47 54,46.4026667 54,45.6666667 L54,43 L70,43 L70,45.6666667 Z" id="Stroke-29" stroke="#7450C8" stroke-linecap="round" stroke-linejoin="round" mask="url(#mask-6)"></path>
                                <path d="M63.6666667,43 L60,47 L69.7777778,47 C70.4524444,47 71,46.4026667 71,45.6666667 L71,43 L63.6666667,43 Z" id="Fill-30" fill="#DFE4EE" mask="url(#mask-6)"></path>
                                <path d="M63.6666667,43 L60,47 L69.7777778,47 C70.4524444,47 71,46.4026667 71,45.6666667 L71,43 L63.6666667,43 Z" id="Stroke-31" stroke="#7450C8" stroke-linecap="round" stroke-linejoin="round" mask="url(#mask-6)"></path>
                                <path d="M96,44 L80,44 L80,41.3333333 C80,40.5973333 80.5297778,40 81.1851852,40 L94.8148148,40 C95.469037,40 96,40.5973333 96,41.3333333 L96,44 Z" id="Fill-32" fill="#FFFFFF" mask="url(#mask-6)"></path>
                                <path d="M96,44 L80,44 L80,41.3333333 C80,40.5973333 80.5297778,40 81.1851852,40 L94.8148148,40 C95.469037,40 96,40.5973333 96,41.3333333 L96,44 Z" id="Stroke-33" stroke="#7450C8" stroke-linecap="round" stroke-linejoin="round" mask="url(#mask-6)"></path>
                                <path d="M88.6666667,40 L85,44 L96,44 L96,41.3333333 C96,40.5973333 95.4524444,40 94.7777778,40 L88.6666667,40 Z" id="Fill-34" fill="#DFE4EE" mask="url(#mask-6)"></path>
                                <path d="M88.6666667,40 L85,44 L96,44 L96,41.3333333 C96,40.5973333 95.4524444,40 94.7777778,40 L88.6666667,40 Z" id="Stroke-35" stroke="#7450C8" stroke-linecap="round" stroke-linejoin="round" mask="url(#mask-6)"></path>
                                <path d="M96,45.6666667 C96,46.4026667 95.469037,47 94.8148148,47 L81.1851852,47 C80.5297778,47 80,46.4026667 80,45.6666667 L80,43 L96,43 L96,45.6666667 Z" id="Fill-36" fill="#FFFFFF" mask="url(#mask-6)"></path>
                                <path d="M96,45.6666667 C96,46.4026667 95.469037,47 94.8148148,47 L81.1851852,47 C80.5297778,47 80,46.4026667 80,45.6666667 L80,43 L96,43 L96,45.6666667 Z" id="Stroke-37" stroke="#7450C8" stroke-linecap="round" stroke-linejoin="round" mask="url(#mask-6)"></path>
                                <path d="M88.6666667,43 L85,47 L94.7777778,47 C95.4524444,47 96,46.4026667 96,45.6666667 L96,43 L88.6666667,43 Z" id="Fill-38" fill="#DFE4EE" mask="url(#mask-6)"></path>
                                <path d="M88.6666667,43 L85,47 L94.7777778,47 C95.4524444,47 96,46.4026667 96,45.6666667 L96,43 L88.6666667,43 Z" id="Stroke-39" stroke="#7450C8" stroke-linecap="round" stroke-linejoin="round" mask="url(#mask-6)"></path>
                                <path d="M96,53 L80,53 L80,50.3333333 C80,49.5973333 80.5297778,49 81.1851852,49 L94.8148148,49 C95.469037,49 96,49.5973333 96,50.3333333 L96,53 Z" id="Fill-40" fill="#FFFFFF" mask="url(#mask-6)"></path>
                                <path d="M96,53 L80,53 L80,50.3333333 C80,49.5973333 80.5297778,49 81.1851852,49 L94.8148148,49 C95.469037,49 96,49.5973333 96,50.3333333 L96,53 Z" id="Stroke-41" stroke="#7450C8" stroke-linecap="round" stroke-linejoin="round" mask="url(#mask-6)"></path>
                                <path d="M88.6666667,49 L85,53 L96,53 L96,50.3333333 C96,49.5973333 95.4524444,49 94.7777778,49 L88.6666667,49 Z" id="Fill-42" fill="#DFE4EE" mask="url(#mask-6)"></path>
                                <path d="M88.6666667,49 L85,53 L96,53 L96,50.3333333 C96,49.5973333 95.4524444,49 94.7777778,49 L88.6666667,49 Z" id="Stroke-43" stroke="#7450C8" stroke-linecap="round" stroke-linejoin="round" mask="url(#mask-6)"></path>
                                <path d="M96,55.6666667 C96,56.4026667 95.469037,57 94.8148148,57 L81.1851852,57 C80.5297778,57 80,56.4026667 80,55.6666667 L80,53 L96,53 L96,55.6666667 Z" id="Fill-44" fill="#FFFFFF" mask="url(#mask-6)"></path>
                                <path d="M96,55.6666667 C96,56.4026667 95.469037,57 94.8148148,57 L81.1851852,57 C80.5297778,57 80,56.4026667 80,55.6666667 L80,53 L96,53 L96,55.6666667 Z" id="Stroke-45" stroke="#7450C8" stroke-linecap="round" stroke-linejoin="round" mask="url(#mask-6)"></path>
                                <path d="M88.6666667,53 L85,57 L94.7777778,57 C95.4524444,57 96,56.4026667 96,55.6666667 L96,53 L88.6666667,53 Z" id="Fill-46" fill="#DFE4EE" mask="url(#mask-6)"></path>
                                <path d="M88.6666667,53 L85,57 L94.7777778,57 C95.4524444,57 96,56.4026667 96,55.6666667 L96,53 L88.6666667,53 Z" id="Stroke-47" stroke="#7450C8" stroke-linecap="round" stroke-linejoin="round" mask="url(#mask-6)"></path>
                                <path d="M70,72 L54,72 L54,69.3333333 C54,68.5973333 54.5297778,68 55.1851852,68 L68.8148148,68 C69.469037,68 70,68.5973333 70,69.3333333 L70,72 Z" id="Fill-48" fill="#FFFFFF" mask="url(#mask-6)"></path>
                                <path d="M70,72 L54,72 L54,69.3333333 C54,68.5973333 54.5297778,68 55.1851852,68 L68.8148148,68 C69.469037,68 70,68.5973333 70,69.3333333 L70,72 Z" id="Stroke-49" stroke="#7450C8" stroke-linecap="round" stroke-linejoin="round" mask="url(#mask-6)"></path>
                                <path d="M63.6666667,68 L60,72 L71,72 L71,69.3333333 C71,68.5973333 70.4524444,68 69.7777778,68 L63.6666667,68 Z" id="Fill-50" fill="#DFE4EE" mask="url(#mask-6)"></path>
                                <path d="M63.6666667,68 L60,72 L71,72 L71,69.3333333 C71,68.5973333 70.4524444,68 69.7777778,68 L63.6666667,68 Z" id="Stroke-51" stroke="#7450C8" stroke-linecap="round" stroke-linejoin="round" mask="url(#mask-6)"></path>
                                <path d="M70,74.6666667 C70,75.4026667 69.469037,76 68.8148148,76 L55.1851852,76 C54.5297778,76 54,75.4026667 54,74.6666667 L54,72 L70,72 L70,74.6666667 Z" id="Fill-52" fill="#FFFFFF" mask="url(#mask-6)"></path>
                                <path d="M70,74.6666667 C70,75.4026667 69.469037,76 68.8148148,76 L55.1851852,76 C54.5297778,76 54,75.4026667 54,74.6666667 L54,72 L70,72 L70,74.6666667 Z" id="Stroke-53" stroke="#7450C8" stroke-linecap="round" stroke-linejoin="round" mask="url(#mask-6)"></path>
                                <path d="M63.6666667,72 L60,76 L69.7777778,76 C70.4524444,76 71,75.4026667 71,74.6666667 L71,72 L63.6666667,72 Z" id="Fill-54" fill="#DFE4EE" mask="url(#mask-6)"></path>
                                <path d="M63.6666667,72 L60,76 L69.7777778,76 C70.4524444,76 71,75.4026667 71,74.6666667 L71,72 L63.6666667,72 Z" id="Stroke-55" stroke="#7450C8" stroke-linecap="round" stroke-linejoin="round" mask="url(#mask-6)"></path>
                                <path d="M70,53 L54,53 L54,50.3333333 C54,49.5973333 54.5297778,49 55.1851852,49 L68.8148148,49 C69.469037,49 70,49.5973333 70,50.3333333 L70,53 Z" id="Fill-56" fill="#FFFFFF" mask="url(#mask-6)"></path>
                                <path d="M70,53 L54,53 L54,50.3333333 C54,49.5973333 54.5297778,49 55.1851852,49 L68.8148148,49 C69.469037,49 70,49.5973333 70,50.3333333 L70,53 Z" id="Stroke-57" stroke="#7450C8" stroke-linecap="round" stroke-linejoin="round" mask="url(#mask-6)"></path>
                                <path d="M63.6666667,49 L60,53 L71,53 L71,50.3333333 C71,49.5973333 70.4524444,49 69.7777778,49 L63.6666667,49 Z" id="Fill-58" fill="#DFE4EE" mask="url(#mask-6)"></path>
                                <path d="M63.6666667,49 L60,53 L71,53 L71,50.3333333 C71,49.5973333 70.4524444,49 69.7777778,49 L63.6666667,49 Z" id="Stroke-59" stroke="#7450C8" stroke-linecap="round" stroke-linejoin="round" mask="url(#mask-6)"></path>
                                <path d="M70,55.6666667 C70,56.4026667 69.469037,57 68.8148148,57 L55.1851852,57 C54.5297778,57 54,56.4026667 54,55.6666667 L54,53 L70,53 L70,55.6666667 Z" id="Fill-60" fill="#FFFFFF" mask="url(#mask-6)"></path>
                                <path d="M70,55.6666667 C70,56.4026667 69.469037,57 68.8148148,57 L55.1851852,57 C54.5297778,57 54,56.4026667 54,55.6666667 L54,53 L70,53 L70,55.6666667 Z" id="Stroke-61" stroke="#7450C8" stroke-linecap="round" stroke-linejoin="round" mask="url(#mask-6)"></path>
                                <path d="M63.6666667,53 L60,57 L69.7777778,57 C70.4524444,57 71,56.4026667 71,55.6666667 L71,53 L63.6666667,53 Z" id="Fill-62" fill="#DFE4EE" mask="url(#mask-6)"></path>
                                <path d="M63.6666667,53 L60,57 L69.7777778,57 C70.4524444,57 71,56.4026667 71,55.6666667 L71,53 L63.6666667,53 Z" id="Stroke-63" stroke="#7450C8" stroke-linecap="round" stroke-linejoin="round" mask="url(#mask-6)"></path>
                                <path d="M96,63 L80,63 L80,60.3333333 C80,59.5973333 80.5297778,59 81.1851852,59 L94.8148148,59 C95.469037,59 96,59.5973333 96,60.3333333 L96,63 Z" id="Fill-64" fill="#FFFFFF" mask="url(#mask-6)"></path>
                                <path d="M96,63 L80,63 L80,60.3333333 C80,59.5973333 80.5297778,59 81.1851852,59 L94.8148148,59 C95.469037,59 96,59.5973333 96,60.3333333 L96,63 Z" id="Stroke-65" stroke="#7450C8" stroke-linecap="round" stroke-linejoin="round" mask="url(#mask-6)"></path>
                                <path d="M88.6666667,59 L85,63 L96,63 L96,60.3333333 C96,59.5973333 95.4524444,59 94.7777778,59 L88.6666667,59 Z" id="Fill-66" fill="#DFE4EE" mask="url(#mask-6)"></path>
                                <path d="M88.6666667,59 L85,63 L96,63 L96,60.3333333 C96,59.5973333 95.4524444,59 94.7777778,59 L88.6666667,59 Z" id="Stroke-67" stroke="#7450C8" stroke-linecap="round" stroke-linejoin="round" mask="url(#mask-6)"></path>
                                <path d="M96,64.6666667 C96,65.4026667 95.469037,66 94.8148148,66 L81.1851852,66 C80.5297778,66 80,65.4026667 80,64.6666667 L80,62 L96,62 L96,64.6666667 Z" id="Fill-68" fill="#FFFFFF" mask="url(#mask-6)"></path>
                                <path d="M96,64.6666667 C96,65.4026667 95.469037,66 94.8148148,66 L81.1851852,66 C80.5297778,66 80,65.4026667 80,64.6666667 L80,62 L96,62 L96,64.6666667 Z" id="Stroke-69" stroke="#7450C8" stroke-linecap="round" stroke-linejoin="round" mask="url(#mask-6)"></path>
                                <path d="M88.6666667,62 L85,66 L94.7777778,66 C95.4524444,66 96,65.4026667 96,64.6666667 L96,62 L88.6666667,62 Z" id="Fill-70" fill="#DFE4EE" mask="url(#mask-6)"></path>
                                <path d="M88.6666667,62 L85,66 L94.7777778,66 C95.4524444,66 96,65.4026667 96,64.6666667 L96,62 L88.6666667,62 Z" id="Stroke-71" stroke="#7450C8" stroke-linecap="round" stroke-linejoin="round" mask="url(#mask-6)"></path>
                                <path d="M96,72 L80,72 L80,69.3333333 C80,68.5973333 80.5297778,68 81.1851852,68 L94.8148148,68 C95.469037,68 96,68.5973333 96,69.3333333 L96,72 Z" id="Fill-72" fill="#FFFFFF" mask="url(#mask-6)"></path>
                                <path d="M96,72 L80,72 L80,69.3333333 C80,68.5973333 80.5297778,68 81.1851852,68 L94.8148148,68 C95.469037,68 96,68.5973333 96,69.3333333 L96,72 Z" id="Stroke-73" stroke="#7450C8" stroke-linecap="round" stroke-linejoin="round" mask="url(#mask-6)"></path>
                                <path d="M88.6666667,68 L85,72 L96,72 L96,69.3333333 C96,68.5973333 95.4524444,68 94.7777778,68 L88.6666667,68 Z" id="Fill-74" fill="#DFE4EE" mask="url(#mask-6)"></path>
                                <path d="M88.6666667,68 L85,72 L96,72 L96,69.3333333 C96,68.5973333 95.4524444,68 94.7777778,68 L88.6666667,68 Z" id="Stroke-75" stroke="#7450C8" stroke-linecap="round" stroke-linejoin="round" mask="url(#mask-6)"></path>
                                <path d="M96,74.6666667 C96,75.4026667 95.469037,76 94.8148148,76 L81.1851852,76 C80.5297778,76 80,75.4026667 80,74.6666667 L80,72 L96,72 L96,74.6666667 Z" id="Fill-76" fill="#FFFFFF" mask="url(#mask-6)"></path>
                                <path d="M96,74.6666667 C96,75.4026667 95.469037,76 94.8148148,76 L81.1851852,76 C80.5297778,76 80,75.4026667 80,74.6666667 L80,72 L96,72 L96,74.6666667 Z" id="Stroke-77" stroke="#7450C8" stroke-linecap="round" stroke-linejoin="round" mask="url(#mask-6)"></path>
                                <path d="M88.6666667,72 L85,76 L94.7777778,76 C95.4524444,76 96,75.4026667 96,74.6666667 L96,72 L88.6666667,72 Z" id="Fill-78" fill="#DFE4EE" mask="url(#mask-6)"></path>
                                <path d="M88.6666667,72 L85,76 L94.7777778,76 C95.4524444,76 96,75.4026667 96,74.6666667 L96,72 L88.6666667,72 Z" id="Stroke-79" stroke="#7450C8" stroke-linecap="round" stroke-linejoin="round" mask="url(#mask-6)"></path>
                                <path d="M70,64.6666667 C70,65.4026667 69.469037,66 68.8148148,66 L55.1851852,66 C54.5297778,66 54,65.4026667 54,64.6666667 L54,62 L70,62 L70,64.6666667 Z" id="Fill-80" fill="#FFFFFF" mask="url(#mask-6)"></path>
                                <path d="M70,64.6666667 C70,65.4026667 69.469037,66 68.8148148,66 L55.1851852,66 C54.5297778,66 54,65.4026667 54,64.6666667 L54,62 L70,62 L70,64.6666667 Z" id="Stroke-81" stroke="#7450C8" stroke-linecap="round" stroke-linejoin="round" mask="url(#mask-6)"></path>
                                <path d="M63.6666667,62 L60,66 L69.7777778,66 C70.4524444,66 71,65.4026667 71,64.6666667 L71,62 L63.6666667,62 Z" id="Fill-82" fill="#DFE4EE" mask="url(#mask-6)"></path>
                                <path d="M63.6666667,62 L60,66 L69.7777778,66 C70.4524444,66 71,65.4026667 71,64.6666667 L71,62 L63.6666667,62 Z" id="Stroke-83" stroke="#7450C8" stroke-linecap="round" stroke-linejoin="round" mask="url(#mask-6)"></path>
                                <polygon id="Fill-84" fill="#FFFFFF" mask="url(#mask-6)" points="52 37 73 37 73 35 52 35"></polygon>
                                <polygon id="Stroke-85" stroke="#7450C8" stroke-linecap="round" stroke-linejoin="round" mask="url(#mask-6)" points="52 37 73 37 73 35 52 35"></polygon>
                                <path d="M50,82 L52,82 L52,35.2 C52,34.5376 51.553,34 51,34 C50.448,34 50,34.5376 50,35.2 L50,82 Z" id="Fill-86" fill="#FFFFFF" mask="url(#mask-6)"></path>
                                <path d="M50,82 L52,82 L52,35.2 C52,34.5376 51.553,34 51,34 C50.448,34 50,34.5376 50,35.2 L50,82 Z" id="Stroke-87" stroke="#7450C8" stroke-linecap="round" stroke-linejoin="round" mask="url(#mask-6)"></path>
                                <path d="M73,82 L75,82 L75,35.2 C75,34.5376 74.552,34 74,34 C73.447,34 73,34.5376 73,35.2 L73,82 Z" id="Fill-88" fill="#FFFFFF" mask="url(#mask-6)"></path>
                                <path d="M73,82 L75,82 L75,35.2 C75,34.5376 74.552,34 74,34 C73.447,34 73,34.5376 73,35.2 L73,82 Z" id="Stroke-89" stroke="#7450C8" stroke-linecap="round" stroke-linejoin="round" mask="url(#mask-6)"></path>
                                <path d="M55,67 L55,67 C56.889611,67 58.4210526,68.5281736 58.4210526,70.4137522 L58.4210526,94.9927677 C58.4210526,97.7582038 60.667643,100 63.4401831,100 L68,100" id="Stroke-90" stroke="#7450C8" stroke-linecap="round" stroke-linejoin="round" mask="url(#mask-6)"></path>
                                <path d="M69.4285714,101 L73,101 L73,98 L69.4285714,98 C68.6397516,98 68,98.6717391 68,99.5 C68,100.328261 68.6397516,101 69.4285714,101" id="Fill-91" fill="#DFE4EE" mask="url(#mask-6)"></path>
                                <path d="M69.4285714,101 L73,101 L73,98 L69.4285714,98 C68.6397516,98 68,98.6717391 68,99.5 C68,100.328261 68.6397516,101 69.4285714,101 Z" id="Stroke-92" stroke="#7450C8" stroke-linecap="round" stroke-linejoin="round" mask="url(#mask-6)"></path>
                                <path d="M69,78 L69,85.7992391 C69,87.566413 70.4706905,89 72.2863427,89 L75.3529412,89 C78.4723274,89 81,91.4618478 81,94.5 C81,97.5369565 78.4723274,100 75.3529412,100 L72.5294118,100" id="Stroke-93" stroke="#7450C8" stroke-linecap="round" stroke-linejoin="round" mask="url(#mask-6)"></path>
                                <path d="M65,78 L65,85.7023913 C65,87.5233696 66.4307246,89 68.1976812,89 L75,89" id="Stroke-94" stroke="#7450C8" stroke-linecap="round" stroke-linejoin="round" mask="url(#mask-6)"></path>
                                <path d="M24,103 C24,104.104928 30.0433043,105 37.5,105 C44.9555217,105 51,104.104928 51,103 C51,101.895072 44.9555217,101 37.5,101 C30.0433043,101 24,101.895072 24,103" id="Fill-95" fill="#F4F6FC" mask="url(#mask-6)"></path>
                                <path d="M34.6923077,29 C30.1038127,29 26.3846154,32.6454037 26.3846154,37.1428571 L26.3846154,38.2297516 C25.6008027,38.3914286 25,39.0404969 25,39.8571429 C25,40.7339752 25.6874916,41.4314286 26.5591973,41.5199379 C27.341806,45.2196273 30.6853512,48 34.6923077,48 C39.2808027,48 43,44.3545963 43,39.8571429 L43,37.1428571 C43,32.6454037 39.2808027,29 34.6923077,29" id="Fill-96" fill="#FFFFFF" mask="url(#mask-6)"></path>
                                <path d="M34.6923077,29 C30.1038127,29 26.3846154,32.6454037 26.3846154,37.1428571 L26.3846154,38.2297516 C25.6008027,38.3914286 25,39.0404969 25,39.8571429 C25,40.7339752 25.6874916,41.4314286 26.5591973,41.5199379 C27.341806,45.2196273 30.6853512,48 34.6923077,48 C39.2808027,48 43,44.3545963 43,39.8571429 L43,37.1428571 C43,32.6454037 39.2808027,29 34.6923077,29 Z" id="Stroke-97" stroke="#7450C8" stroke-linecap="round" stroke-linejoin="round" mask="url(#mask-6)"></path>
                                <path d="M21,63.8378378 C21,56.7473561 26.8199542,51 34,51 C41.1788558,51 47,56.7473561 47,63.8378378 L47,65.8648649 L43.5789474,65.8648649 L43.5753776,76 L25.7894737,76 L25.784714,65.8648649 L21,65.8648649 L21,63.8378378 Z" id="Fill-98" fill="#FFFFFF" mask="url(#mask-6)"></path>
                                <path d="M21,63.8378378 C21,56.7473561 26.8199542,51 34,51 C41.1788558,51 47,56.7473561 47,63.8378378 L47,65.8648649 L43.5789474,65.8648649 L43.5753776,76 L25.7894737,76 L25.784714,65.8648649 L21,65.8648649 L21,63.8378378 Z" id="Stroke-99" stroke="#7450C8" stroke-linecap="round" stroke-linejoin="round" mask="url(#mask-6)"></path>
                                <path d="M35,38 C35,38.5522042 34.5524638,39 33.9994203,39 C33.4475362,39 33,38.5522042 33,38 C33,37.4477958 33.4475362,37 33.9994203,37 C34.5524638,37 35,37.4477958 35,38" id="Fill-100" fill="#7450C8" mask="url(#mask-6)"></path>
                                <path d="M38,38 C38,38.5522042 38.4475362,39 38.9994203,39 C39.5524638,39 40,38.5522042 40,38 C40,37.4477958 39.5524638,37 38.9994203,37 C38.4475362,37 38,37.4477958 38,38" id="Fill-101" fill="#7450C8" mask="url(#mask-6)"></path>
                                <path d="M32,40.9994203 C32,41.5524638 31.5524638,42 31.0005797,42 C30.4486957,42 30,41.5524638 30,40.9994203 C30,40.4475362 30.4486957,40 31.0005797,40 C31.5524638,40 32,40.4475362 32,40.9994203" id="Fill-102" fill="#DFE4EE" mask="url(#mask-6)"></path>
                                <path d="M34,43 C35.2104348,43.696 36.7895652,43.696 38,43" id="Stroke-103" stroke="#7450C8" stroke-linecap="round" stroke-linejoin="round" mask="url(#mask-6)"></path>
                                <path d="M44,35.1764706 C44,30.1088491 39.9701672,26 35,26 C30.0286288,26 26,30.1088491 26,35.1764706 L26,38 C28.4597993,37.3235806 29.9274916,35.7841432 30.8461538,33.7647059 C34.7242809,36.4274169 39.8461538,35.8823529 44,35.1764706" id="Fill-104" fill="#FFFFFF" mask="url(#mask-6)"></path>
                                <path d="M44,35.1764706 C44,30.1088491 39.9701672,26 35,26 C30.0286288,26 26,30.1088491 26,35.1764706 L26,38 C28.4597993,37.3235806 29.9274916,35.7841432 30.8461538,33.7647059 C34.7242809,36.4274169 39.8461538,35.8823529 44,35.1764706 Z" id="Stroke-105" stroke="#7450C8" stroke-linecap="round" stroke-linejoin="round" mask="url(#mask-6)"></path>
                                <path d="M30,32 C30,32 30.3869565,32.6469565 31,33" id="Stroke-106" stroke="#7450C8" stroke-linecap="round" stroke-linejoin="round" mask="url(#mask-6)"></path>
                                <path d="M21,79.6672464 C21,80.9553623 22.1192547,82 23.4993789,82 C24.8807453,82 26,80.9553623 26,79.6672464 L26,66 L21,66 L21,79.6672464 Z" id="Fill-107" fill="#FFFFFF" mask="url(#mask-6)"></path>
                                <path d="M21,79.6672464 C21,80.9553623 22.1192547,82 23.4993789,82 C24.8807453,82 26,80.9553623 26,79.6672464 L26,66 L21,66 L21,79.6672464 Z" id="Stroke-108" stroke="#7450C8" stroke-linecap="round" stroke-linejoin="round" mask="url(#mask-6)"></path>
                                <line x1="26" y1="66" x2="26" y2="62" id="Stroke-109" stroke="#7450C8" stroke-linecap="round" stroke-linejoin="round" mask="url(#mask-6)"></line>
                                <line x1="44" y1="66" x2="44" y2="62" id="Stroke-110" stroke="#7450C8" stroke-linecap="round" stroke-linejoin="round" mask="url(#mask-6)"></line>
                                <path d="M31,51.2956522 L34.5678392,56 L38,51.6360248 C36.6896985,51.2248447 35.2939698,51 33.8454774,51 C32.8693467,51 31.9183417,51.1043478 31,51.2956522" id="Fill-111" fill="#FFFFFF" mask="url(#mask-6)"></path>
                                <path d="M31,51.2956522 L34.5678392,56 L38,51.6360248 C36.6896985,51.2248447 35.2939698,51 33.8454774,51 C32.8693467,51 31.9183417,51.1043478 31,51.2956522 Z" id="Stroke-112" stroke="#7450C8" stroke-linecap="round" stroke-linejoin="round" mask="url(#mask-6)"></path>
                                <path d="M35,55.5279252 L37.6185716,55.9829089 C38.4258097,56.1221107 39.1228573,55.3900123 38.9817145,54.5509348 L38.3824764,51 L35,55.5279252 Z" id="Fill-113" fill="#DFE4EE" mask="url(#mask-6)"></path>
                                <path d="M35,55.5279252 L37.6185716,55.9829089 C38.4258097,56.1221107 39.1228573,55.3900123 38.9817145,54.5509348 L38.3824764,51 L35,55.5279252 Z" id="Stroke-114" stroke="#7450C8" stroke-linecap="round" stroke-linejoin="round" mask="url(#mask-6)"></path>
                                <path d="M31.5350795,51 L31.0116813,54.6894466 C30.9018774,55.4585821 31.5826611,56.1123472 32.3610482,55.9837574 L35,55.5511187 L31.5350795,51 Z" id="Fill-115" fill="#DFE4EE" mask="url(#mask-6)"></path>
                                <path d="M31.5350795,51 L31.0116813,54.6894466 C30.9018774,55.4585821 31.5826611,56.1123472 32.3610482,55.9837574 L35,55.5511187 L31.5350795,51 Z" id="Stroke-116" stroke="#7450C8" stroke-linecap="round" stroke-linejoin="round" mask="url(#mask-6)"></path>
                                <line x1="35" y1="55" x2="35" y2="76" id="Stroke-117" stroke="#7450C8" stroke-linecap="round" stroke-linejoin="round" mask="url(#mask-6)"></line>
                                <path d="M53.7901701,60 L40.2098299,60 C39.5420038,60 39,60.5194203 39,61.1594203 L39,68.8405797 C39,69.4805797 39.5420038,70 40.2098299,70 L53.7901701,70 C54.4579962,70 55,69.4805797 55,68.8405797 L55,61.1594203 C55,60.5194203 54.4579962,60 53.7901701,60" id="Fill-118" fill="#FFFFFF" mask="url(#mask-6)"></path>
                                <path d="M53.7901701,60 L40.2098299,60 C39.5420038,60 39,60.5194203 39,61.1594203 L39,68.8405797 C39,69.4805797 39.5420038,70 40.2098299,70 L53.7901701,70 C54.4579962,70 55,69.4805797 55,68.8405797 L55,61.1594203 C55,60.5194203 54.4579962,60 53.7901701,60 Z" id="Stroke-119" stroke="#7450C8" stroke-linecap="round" stroke-linejoin="round" mask="url(#mask-6)"></path>
                                <path d="M48,66.5 C48,67.3282609 47.3282609,68 46.5,68 C45.6717391,68 45,67.3282609 45,66.5 C45,65.6717391 45.6717391,65 46.5,65 C47.3282609,65 48,65.6717391 48,66.5" id="Fill-120" fill="#DFE4EE" mask="url(#mask-6)"></path>
                                <path d="M48,66.5 C48,67.3282609 47.3282609,68 46.5,68 C45.6717391,68 45,67.3282609 45,66.5 C45,65.6717391 45.6717391,65 46.5,65 C47.3282609,65 48,65.6717391 48,66.5 Z" id="Stroke-121" stroke="#7450C8" stroke-linecap="round" stroke-linejoin="round" mask="url(#mask-6)"></path>
                                <line x1="47" y1="63.575" x2="47.575" y2="63" id="Stroke-122" stroke="#7450C8" stroke-linecap="round" stroke-linejoin="round" mask="url(#mask-6)"></line>
                                <path d="M47.6942814,73 L45.3057186,73 C44.5838226,73 44,72.4386087 44,71.7467826 L44,70.8483478 C44,70.3798261 44.394651,70 44.8828006,70 L48.1171994,70 C48.6042618,70 49,70.3798261 49,70.8483478 L49,71.7467826 C49,72.4386087 48.4161774,73 47.6942814,73" id="Fill-123" fill="#FFFFFF" mask="url(#mask-6)"></path>
                                <path d="M47.6942814,73 L45.3057186,73 C44.5838226,73 44,72.4386087 44,71.7467826 L44,70.8483478 C44,70.3798261 44.394651,70 44.8828006,70 L48.1171994,70 C48.6042618,70 49,70.3798261 49,70.8483478 L49,71.7467826 C49,72.4386087 48.4161774,73 47.6942814,73 Z" id="Stroke-124" stroke="#7450C8" stroke-linecap="round" stroke-linejoin="round" mask="url(#mask-6)"></path>
                                <path d="M43.3076923,96.9178541 C43.5436789,96.9178541 43.7748495,96.9378039 44,96.9753562 L44,76 L26,76 L26,96.9178541 L31.5384615,96.9178541 C31.8250167,96.9178541 32.1055518,96.9460184 32.3752508,97 L32.8460201,84.0960604 C32.8893645,82.9671417 33.8405351,82.0729254 35,82.0729254 C36.1594649,82.0729254 37.1106355,82.9671417 37.1539799,84.0960604 L37.7692308,96.9178541 L43.3076923,96.9178541 Z" id="Fill-125" fill="#DFE4EE" mask="url(#mask-6)"></path>
                                <path d="M43.3076923,96.9178541 C43.5436789,96.9178541 43.7748495,96.9378039 44,96.9753562 L44,76 L26,76 L26,96.9178541 L31.5384615,96.9178541 C31.8250167,96.9178541 32.1055518,96.9460184 32.3752508,97 L32.8460201,84.0960604 C32.8893645,82.9671417 33.8405351,82.0729254 35,82.0729254 C36.1594649,82.0729254 37.1106355,82.9671417 37.1539799,84.0960604 L37.7692308,96.9178541 L43.3076923,96.9178541 Z" id="Stroke-126" stroke="#7450C8" stroke-linecap="round" stroke-linejoin="round" mask="url(#mask-6)"></path>
                                <path d="M48,101 C48,98.7913043 46.0807453,97 43.7142857,97 L38,97 L38,99.6666667 C38,100.402899 38.6397516,101 39.4285714,101 L48,101 Z" id="Fill-127" fill="#FFFFFF" mask="url(#mask-6)"></path>
                                <path d="M48,101 C48,98.7913043 46.0807453,97 43.7142857,97 L38,97 L38,99.6666667 C38,100.402899 38.6397516,101 39.4285714,101 L48,101 Z" id="Stroke-128" stroke="#7450C8" stroke-linecap="round" stroke-linejoin="round" mask="url(#mask-6)"></path>
                                <path d="M36,101 C36,98.7913043 34.0819876,97 31.7142857,97 L26,97 L26,99.6666667 C26,100.402899 26.6397516,101 27.4285714,101 L36,101 Z" id="Fill-129" fill="#FFFFFF" mask="url(#mask-6)"></path>
                                <path d="M36,101 C36,98.7913043 34.0819876,97 31.7142857,97 L26,97 L26,99.6666667 C26,100.402899 26.6397516,101 27.4285714,101 L36,101 Z" id="Stroke-130" stroke="#7450C8" stroke-linecap="round" stroke-linejoin="round" mask="url(#mask-6)"></path>
                            </g>
                        </g>
                    </g>
                    <g id="Group-26" transform="translate(286.000000, 0.000000)" fill="#F86B67" font-family="Roboto-Bold, Roboto" font-size="14" font-weight="bold" line-spacing="26">
                        <text id="↳-✏️-Value">
                            <tspan x="0.465820312" y="41">Data Request</tspan>
                        </text>
                        <text id="↳-✏️-Value">
                            <tspan x="9.66015625" y="15">1. Sends a </tspan>
                        </text>
                    </g>
                    <g id="Group-27" transform="translate(768.000000, 0.000000)" fill="#7450C8" font-family="Roboto-Bold, Roboto" font-size="14" font-weight="bold" line-spacing="26">
                        <text id="↳-✏️-Value">
                            <tspan x="10.1601562" y="15">3. Sends a </tspan>
                        </text>
                        <text id="↳-✏️-Value">
                            <tspan x="0.465820312" y="45">Data Request</tspan>
                        </text>
                    </g>
                    <text id="↳-✏️-Value" font-family="Roboto-Bold, Roboto" font-size="14" font-weight="bold" line-spacing="26" fill="#7450C8">
                        <tspan x="517.676758" y="34">2. Collects data from </tspan>
                        <tspan x="534.828125" y="60">internal system</tspan>
                    </text>
                    <text id="↳-✏️-Value" font-family="Roboto-Bold, Roboto" font-size="14" font-weight="bold" line-spacing="26" fill="#7450C8">
                        <tspan x="749.788574" y="331">4. Sends the data </tspan>
                        <tspan x="791.002441" y="357">files</tspan>
                    </text>
                    <g id="Group-25" transform="translate(263.000000, 315.000000)" fill="#1DDCC0" font-family="Roboto-Bold, Roboto" font-size="14" font-weight="bold" line-spacing="26">
                        <text id="↳-✏️-Value">
                            <tspan x="0.0478515625" y="15">5. Sends the data files</tspan>
                        </text>
                        <text id="↳-✏️-Value">
                            <tspan x="19.8037109" y="44">Request solved!</tspan>
                        </text>
                    </g>
                    <path d="M482.814453,95 C484.553936,112.179685 488.352171,108.387681 471,105.939453" id="Path-19" stroke="#7450C8" stroke-width="2"></path>
                    <path d="M160.939453,136 C244.313151,52.2738095 350,40.6071429 478,101" id="Path-3" stroke="#7450C8" stroke-width="2" stroke-dasharray="3"></path>
                    <path d="M688,103 C770.177083,53.6315952 854.510417,52.9649286 941,101" id="Path-20" stroke="#7450C8" stroke-width="2" stroke-dasharray="3"></path>
                    <path d="M941.982422,94.0214844 C944.876276,110.967226 947.997087,106.47354 928.789063,103.785156" id="Path-21" stroke="#7450C8" stroke-width="2"></path>
                    <path d="M944.5,236 C877.5,315.885417 776,323.856771 640,259.914062" id="Path-22" stroke="#7450C8" stroke-width="2" stroke-dasharray="3"></path>
                    <path d="M633.421875,267.552734 C634.085669,249.747121 629.558412,254.068082 647.988281,255.707031" id="Path-23" stroke="#7450C8" stroke-width="2"></path>
                    <path d="M512,247.15625 C345.889674,328.460937 226.350612,312.594401 153.382812,199.556641" id="Path-24" stroke="#7450C8" stroke-width="2" stroke-dasharray="3"></path>
                    <path d="M162.578125,199.710938 C144.894239,193.342341 149.609268,189.626165 145.232422,204.558594" id="Path-25" stroke="#7450C8" stroke-width="2"></path>
                </g>
            </g>
        </g>
    </g>
</svg>