<?xml version="1.0" encoding="UTF-8"?>
<svg width="22px" height="22px" viewBox="0 0 22 22" version="1.1" xmlns="http://www.w3.org/2000/svg" xmlns:xlink="http://www.w3.org/1999/xlink">
    <!-- Generator: Sketch 52.6 (67491) - http://www.bohemiancoding.com/sketch -->
    <title>window</title>
    <desc>Created with Sketch.</desc>
    <g id="App-10--Data-Processors" stroke="none" stroke-width="1" fill="none" fill-rule="evenodd">
        <g id="3.2--Landing-page-DP" transform="translate(-350.000000, -3757.000000)" fill="#7450C8" fill-rule="nonzero">
            <g id="Group-20" transform="translate(308.000000, 3726.000000)">
                <g id="Group-18">
                    <g id="window" transform="translate(42.000000, 31.000000)">
                        <path d="M9,4 C8.44771525,4 8,4.44771525 8,5 C8,5.55228475 8.44771525,6 9,6 C9.55228475,6 10,5.55228475 10,5 C10,4.44771525 9.55228475,4 9,4 Z M5,4 C4.44771525,4 4,4.44771525 4,5 C4,5.55228475 4.44771525,6 5,6 C5.55228475,6 6,5.55228475 6,5 C6,4.44771525 5.55228475,4 5,4 Z M13,4 C12.4477153,4 12,4.44771525 12,5 C12,5.55228475 12.4477153,6 13,6 C13.5522847,6 14,5.55228475 14,5 C14,4.44771525 13.5522847,4 13,4 Z M19,0 L3,0 C1.34314575,-4.4408921e-16 0,1.34314575 -2.22044605e-16,3 L-2.22044605e-16,19 C0,20.6568542 1.34314575,22 3,22 L19,22 C20.6568542,22 22,20.6568542 22,19 L22,3 C22,1.34314575 20.6568542,0 19,0 Z M20,19 C20,19.5522847 19.5522847,20 19,20 L3,20 C2.44771525,20 2,19.5522847 2,19 L2,10 L20,10 L20,19 Z M20,8 L2,8 L2,3 C2,2.44771525 2.44771525,2 3,2 L19,2 C19.5522847,2 20,2.44771525 20,3 L20,8 Z" id="Shape"></path>
                    </g>
                </g>
            </g>
        </g>
    </g>
</svg>