<svg fill="none" height="71" viewBox="0 0 92 71" width="92" xmlns="http://www.w3.org/2000/svg" xmlns:xlink="http://www.w3.org/1999/xlink"><filter id="a" color-interpolation-filters="sRGB" filterUnits="userSpaceOnUse" height="48.0771" width="74.7144" x="6.99219" y="21.9302"><feFlood flood-opacity="0" result="BackgroundImageFix"/><feColorMatrix in="SourceAlpha" result="hardAlpha" type="matrix" values="0 0 0 0 0 0 0 0 0 0 0 0 0 0 0 0 0 0 127 0"/><feOffset dy="2"/><feGaussianBlur stdDeviation="10"/><feColorMatrix type="matrix" values="0 0 0 0 0.964706 0 0 0 0 0.65098 0 0 0 0 0.121569 0 0 0 0.766445 0"/><feBlend in2="BackgroundImageFix" mode="normal" result="effect1_dropShadow"/><feBlend in="SourceGraphic" in2="effect1_dropShadow" mode="normal" result="shape"/></filter><filter id="b" color-interpolation-filters="sRGB" filterUnits="userSpaceOnUse" height="46.6518" width="47.1331" x="37.9023" y="21.9302"><feFlood flood-opacity="0" result="BackgroundImageFix"/><feColorMatrix in="SourceAlpha" result="hardAlpha" type="matrix" values="0 0 0 0 0 0 0 0 0 0 0 0 0 0 0 0 0 0 127 0"/><feOffset dy="2"/><feGaussianBlur stdDeviation="10"/><feColorMatrix type="matrix" values="0 0 0 0 0.964706 0 0 0 0 0.65098 0 0 0 0 0.121569 0 0 0 0.766445 0"/><feBlend in2="BackgroundImageFix" mode="normal" result="effect1_dropShadow"/><feBlend in="SourceGraphic" in2="effect1_dropShadow" mode="normal" result="shape"/></filter><rect fill="#fff" height="64.0694" rx="15" width="91.9892"/><path clip-rule="evenodd" d="m55.1389 29.2321c-.0042-.3863-.0084-.773-.0084-1.1603-.0034-.6225-.0024-1.2464-.0015-1.8699.0013-.8312.0026-1.6616-.0063-2.487-.0156-1.1279-.1322-2.2558-.6375-3.2987-.8863-1.8385-2.4723-2.7656-4.3614-3.2909-2.3479-.6566-4.7191-.618-7.0591.0155-3.0476.8266-5.1622 2.6265-5.823 5.8325-.1089.5021.1632.8961.6841.9502 1.2665.1312 2.5407.2625 3.8149.3937l.0023.0002c.5986.0618.8863-.1545 1.034-.7648.2721-1.1124.9485-1.8617 2.0369-2.2325.7152-.2395 1.446-.2858 2.1846-.1236 1.034.224 1.7103.8266 1.9591 1.854.1428.5904.1345 1.1974.1263 1.8027-.003.2185-.006.4367-.0019.6539.0078.1622-.1011.1777-.2255.1854-.5053.0464-1.0028.0927-1.5082.1468-1.7881.1777-3.5684.3785-5.2943.9038-1.6715.5176-3.1253 1.3596-4.1748 2.7888-1.3839 1.8927-1.6327 4.0171-1.1506 6.2496.4353 2.0008 1.6092 3.4377 3.5684 4.133 2.0369.7184 4.0971.6103 6.1262-.0773 1.3138-.4403 2.3478-1.321 3.3274-2.2712.1633-.1545.2332-.1622.3654.0387.552.842 1.1739 1.63 1.9669 2.2711.5909.479.9563.4867 1.5393 0 .4898-.4094.9777-.8207 1.4655-1.2321s.9757-.8227 1.4655-1.2322c.4586-.3862.5208-.7339.1865-1.236-.0932-.139-.1943-.2704-.3032-.4017-.9329-1.1124-1.3838-2.3716-1.3216-3.8394.0435-.9028.0338-1.8018.024-2.7023zm-6.0595.9189c.0013.1104.0026.2207.0026.3311 0 1.1201-.0389 2.2403-.5364 3.2832-.4743 1.0274-1.1584 1.8463-2.2779 2.2325-1.6482.5717-3.1875-.3785-3.4285-2.0935-.2022-1.46.0544-2.7579 1.275-3.708.8396-.649 1.8503-.9039 2.8843-1.0352.354-.0463.7108-.0676 1.0671-.0889.2383-.0143.4764-.0285.7132-.0502.241-.0231.3265.0618.311.3013-.0167.2759-.0135.5518-.0104.8277z" fill="#050606" fill-rule="evenodd"/><g filter="url(#a)"><path d="m46.1299 48.0074c-5.9172-.0408-11.2296-1.6414-16.0301-5.0139-.9771-.686-1.9077-1.4373-2.7918-2.262-.0776-.0735-.1551-.147-.2172-.2368-.0853-.1225-.1473-.2695-.0465-.4165.1008-.1633.2714-.1797.4188-.1062.3412.1715.6669.3593 1.0004.539 3.0555 1.6985 6.274 2.9234 9.6475 3.6992 3.0556.7023 6.1421 1.0289 9.2752.9391 4.4748-.1307 8.7867-1.0779 12.9358-2.8336.2016-.0899.411-.1797.6204-.2287.2947-.0571.5894-.0163.7212.3185.1241.3103-.0388.5553-.2559.7513-.1551.1388-.3335.2531-.5118.3756-2.6756 1.8292-5.6071 3.0051-8.7092 3.7319-2.0474.4899-4.1258.7267-6.0568.7431z" fill="#f6a61f"/></g><g filter="url(#b)"><path d="m61.0385 41.3497c-.8943-.0075-1.7807.1053-2.6671.1956-.1711.015-.3655.0602-.4433-.1203-.0933-.2031.0856-.3235.2333-.4212 1.1042-.707 2.3405-.9853 3.6391-1.053.8942-.0526 1.7806-.015 2.6515.2407.3966.1128.591.3384.5832.7295-.0466 2.0909-.7698 3.911-2.3327 5.3927-.0545.0527-.1167.0978-.1789.1429-.1399.0978-.311.188-.4587.0677-.14-.1128-.0622-.2783 0-.4137.4587-1.1056.9253-2.2037 1.1508-3.3845.0311-.1504.0389-.3008.0466-.4437.0078-.4889-.171-.6995-.6687-.8198-.521-.1354-1.0419-.1129-1.5551-.1129z" fill="#f6a61f"/></g></svg>