<svg width="92" height="81" viewBox="0 0 92 81" fill="none" xmlns="http://www.w3.org/2000/svg">
<rect y="7" width="91.9892" height="64.0694" rx="15" fill="white"/>
<g filter="url(#filter0_d)">
<path fill-rule="evenodd" clip-rule="evenodd" d="M55.9967 28.5761C56.1116 28.5858 56.2507 28.6736 56.2726 28.8323H56.2727C56.2942 28.991 59.7205 52.1494 59.7205 52.1494L49.96 54.2603L31.9463 50.8861C31.9463 50.8861 34.2581 33.0134 34.3454 32.3833C34.4614 31.551 34.4893 31.5232 35.3728 31.2461C35.5165 31.201 36.6409 30.8525 38.2238 30.3621C38.834 27.7752 40.7801 22.6844 44.8536 22.6844C45.3857 22.6844 46.0017 22.9701 46.499 23.6276C46.5487 23.6247 46.5984 23.6228 46.6467 23.6228C48.3954 23.6228 49.3893 25.1117 49.9525 26.7319C50.5277 26.554 50.8754 26.4467 50.8961 26.4406C51.0364 26.3993 51.3981 26.343 51.5832 26.5281C51.7683 26.7133 53.4543 28.3867 53.4543 28.3867C53.4543 28.3867 55.882 28.5666 55.9967 28.5761ZM47.4326 27.513L48.9568 27.0412C48.5706 25.8613 47.9706 24.8361 47.0696 24.723C47.2939 25.366 47.4337 26.177 47.4337 27.1843C47.4337 27.2981 47.4332 27.4024 47.4326 27.5082V27.5082V27.5083L47.4326 27.513ZM45.9517 24.9228C46.2022 25.5503 46.3651 26.4508 46.3651 27.666C46.3651 27.7276 46.3645 27.7839 46.364 27.8408L46.364 27.8425L44.9836 28.2699L43.216 28.8171C43.8221 26.4784 44.9583 25.3488 45.9517 24.9228ZM45.2639 23.9534C45.0944 23.8367 44.9173 23.7771 44.7415 23.7771H44.7414C41.8155 23.7771 40.172 27.6175 39.4799 29.9735L41.9682 29.203C42.5591 26.1142 43.9584 24.5675 45.2639 23.9534Z" fill="#95BF46"/>
<path d="M55.9804 28.6561C55.8652 28.6465 53.4268 28.4672 53.4268 28.4672C53.4268 28.4672 51.7333 26.799 51.5475 26.6144C51.4779 26.5457 51.3841 26.5105 51.286 26.4953L49.918 54.2602L59.7206 52.1561C59.7206 52.1561 56.2791 29.0697 56.2575 28.9115C56.2355 28.7533 56.0958 28.6657 55.9804 28.6561Z" fill="#5E8E3E"/>
<path d="M46.65 34.0374L45.4572 37.565C45.4572 37.565 44.4121 37.0104 43.1311 37.0104C41.253 37.0104 41.1585 38.1822 41.1585 38.4774C41.1585 40.0886 45.3827 40.7059 45.3827 44.4796C45.3827 47.4487 43.4886 49.3605 40.9347 49.3605C37.87 49.3605 36.3027 47.4642 36.3027 47.4642L37.1233 44.7687C37.1233 44.7687 38.7343 46.1438 40.0937 46.1438C40.982 46.1438 41.3433 45.4485 41.3433 44.9404C41.3433 42.8388 37.8778 42.7451 37.8778 39.2918C37.8778 36.3853 39.9761 33.5726 44.2117 33.5726C45.8437 33.5726 46.65 34.0374 46.65 34.0374Z" fill="white"/>
</g>
<defs>
<filter id="filter0_d" x="7.94629" y="0.684418" width="75.7743" height="79.5758" filterUnits="userSpaceOnUse" color-interpolation-filters="sRGB">
<feFlood flood-opacity="0" result="BackgroundImageFix"/>
<feColorMatrix in="SourceAlpha" type="matrix" values="0 0 0 0 0 0 0 0 0 0 0 0 0 0 0 0 0 0 127 0" result="hardAlpha"/>
<feOffset dy="2"/>
<feGaussianBlur stdDeviation="12"/>
<feColorMatrix type="matrix" values="0 0 0 0 0.584314 0 0 0 0 0.74902 0 0 0 0 0.27451 0 0 0 0.300809 0"/>
<feBlend mode="normal" in2="BackgroundImageFix" result="effect1_dropShadow"/>
<feBlend mode="normal" in="SourceGraphic" in2="effect1_dropShadow" result="shape"/>
</filter>
</defs>
</svg>
