<svg width="50" height="50" viewBox="0 0 50 50" fill="none" xmlns="http://www.w3.org/2000/svg">
<path fill-rule="evenodd" clip-rule="evenodd" d="M41.6667 14.5833L8.33342 14.5833L8.33342 39.5833H41.6667L41.6667 14.5833ZM4.16675 12.5009L4.16675 12.5L4.16675 12.4991L4.16675 10.4167C4.16675 8.11548 6.03223 6.25 8.33342 6.25L41.6667 6.25C43.9679 6.25 45.8334 8.11548 45.8334 10.4167V12.4961L45.8334 12.5L45.8334 12.5039L45.8334 39.5833C45.8334 41.8845 43.9679 43.75 41.6667 43.75L8.33342 43.75C6.03223 43.75 4.16675 41.8845 4.16675 39.5833L4.16675 12.5009ZM27.6936 21.4435C28.5072 20.6299 29.8263 20.6299 30.6399 21.4435L34.8066 25.6102C35.6201 26.4238 35.6201 27.7429 34.8066 28.5565L30.6399 32.7231C29.8263 33.5367 28.5072 33.5367 27.6936 32.7231C26.88 31.9095 26.88 30.5905 27.6936 29.7769L30.3871 27.0833L27.6936 24.3898C26.88 23.5762 26.88 22.2571 27.6936 21.4435ZM22.3066 24.3898C23.1201 23.5762 23.1201 22.2571 22.3066 21.4435C21.493 20.6299 20.1739 20.6299 19.3603 21.4435L15.1936 25.6102C14.8029 26.0009 14.5834 26.5308 14.5834 27.0833C14.5834 27.6359 14.8029 28.1658 15.1936 28.5565L19.3603 32.7231C20.1739 33.5367 21.493 33.5367 22.3066 32.7231C23.1201 31.9095 23.1201 30.5905 22.3066 29.7769L19.613 27.0833L22.3066 24.3898Z" fill="#EE5E5E"/>
</svg>
