<svg width="130" height="130" viewBox="0 0 130 130" fill="none" xmlns="http://www.w3.org/2000/svg">
<g filter="url(#filter0_d_17278_1497)">
<circle cx="65" cy="61" r="55" fill="#F2FBFB"/>
</g>
<g filter="url(#filter1_d_17278_1497)">
<circle cx="65" cy="61" r="47" fill="white"/>
</g>
<path fill-rule="evenodd" clip-rule="evenodd" d="M50.3321 42.5105C48.026 42.5105 46.1565 44.38 46.1565 46.6861V59.557C46.1565 76.4039 60.5018 82.7383 63.5994 83.9148L64.3407 81.963L63.5994 83.9148C64.4741 84.247 65.419 84.247 66.2937 83.9148L65.5524 81.963L66.2937 83.9148C69.3913 82.7383 83.7366 76.4039 83.7366 59.557V46.6861C83.7366 44.38 81.8672 42.5105 79.5611 42.5105H50.3321ZM50.3321 46.6861L79.5611 46.6861V59.557C79.5611 73.3238 68.0589 78.7487 64.9466 79.9592C61.8342 78.7487 50.3321 73.3238 50.3321 59.557V46.6861ZM72.6862 58.6013C73.5015 57.7859 73.5015 56.464 72.6862 55.6487C71.8709 54.8334 70.549 54.8334 69.7336 55.6487L62.8588 62.5236L60.1595 59.8243C59.3442 59.0089 58.0222 59.0089 57.2069 59.8243C56.3916 60.6396 56.3916 61.9615 57.2069 62.7769L61.3825 66.9524C62.1978 67.7678 63.5197 67.7678 64.3351 66.9524L72.6862 58.6013Z" fill="#417BD2"/>
<path d="M120 21C120 29.2843 113.284 36 105 36C96.7157 36 90 29.2843 90 21C90 12.7157 96.7157 6 105 6C113.284 6 120 12.7157 120 21Z" fill="#5CD9C1"/>
<path fill-rule="evenodd" clip-rule="evenodd" d="M111.596 16.5982C112.151 17.1753 112.134 18.0935 111.557 18.6491L104.276 25.6593C103.714 26.2001 102.825 26.2001 102.264 25.6593L98.6671 22.1964C98.09 21.6408 98.0726 20.7227 98.6282 20.1456C99.1838 19.5686 100.102 19.5511 100.679 20.1067L103.27 22.6011L109.545 16.5594C110.122 16.0038 111.04 16.0212 111.596 16.5982Z" fill="#FAFDFF"/>
<defs>
<filter id="filter0_d_17278_1497" x="0" y="0" width="130" height="130" filterUnits="userSpaceOnUse" color-interpolation-filters="sRGB">
<feFlood flood-opacity="0" result="BackgroundImageFix"/>
<feColorMatrix in="SourceAlpha" type="matrix" values="0 0 0 0 0 0 0 0 0 0 0 0 0 0 0 0 0 0 127 0" result="hardAlpha"/>
<feOffset dy="4"/>
<feGaussianBlur stdDeviation="5"/>
<feColorMatrix type="matrix" values="0 0 0 0 0.332604 0 0 0 0 0.7197 0 0 0 0 0.775 0 0 0 0.33 0"/>
<feBlend mode="normal" in2="BackgroundImageFix" result="effect1_dropShadow_17278_1497"/>
<feBlend mode="normal" in="SourceGraphic" in2="effect1_dropShadow_17278_1497" result="shape"/>
</filter>
<filter id="filter1_d_17278_1497" x="8" y="8" width="114" height="114" filterUnits="userSpaceOnUse" color-interpolation-filters="sRGB">
<feFlood flood-opacity="0" result="BackgroundImageFix"/>
<feColorMatrix in="SourceAlpha" type="matrix" values="0 0 0 0 0 0 0 0 0 0 0 0 0 0 0 0 0 0 127 0" result="hardAlpha"/>
<feOffset dy="4"/>
<feGaussianBlur stdDeviation="5"/>
<feColorMatrix type="matrix" values="0 0 0 0 0.332604 0 0 0 0 0.7197 0 0 0 0 0.775 0 0 0 0.33 0"/>
<feBlend mode="normal" in2="BackgroundImageFix" result="effect1_dropShadow_17278_1497"/>
<feBlend mode="normal" in="SourceGraphic" in2="effect1_dropShadow_17278_1497" result="shape"/>
</filter>
</defs>
</svg>
