<svg width="50" height="50" viewBox="0 0 50 50" fill="none" xmlns="http://www.w3.org/2000/svg">
<path fill-rule="evenodd" clip-rule="evenodd" d="M27.0833 4.16663H28.2563C29.417 4.16663 30.5251 4.65077 31.3137 5.50243L40.5573 15.4855C41.2704 16.2557 41.6666 17.2667 41.6666 18.3164L41.6666 18.75L41.6666 41.6666C41.6666 43.9678 39.8011 45.8333 37.4999 45.8333H12.4999C10.1987 45.8333 8.33326 43.9678 8.33326 41.6666L8.33325 8.33329C8.33325 6.03211 10.1987 4.16663 12.4999 4.16663H27.0833ZM24.9999 8.33329L12.4999 8.33329L12.4999 41.6666H37.4999L37.4999 20.8333H29.1666C26.8654 20.8333 24.9999 18.9678 24.9999 16.6666V8.33329ZM35.9724 16.6666L29.1666 16.6666L29.1666 9.31635L35.9724 16.6666ZM30.6397 28.5564C31.4532 27.7428 31.4532 26.4237 30.6397 25.6102C29.8261 24.7966 28.507 24.7966 27.6934 25.6102L24.9999 28.3036L22.3064 25.6102C21.4928 24.7966 20.1737 24.7966 19.3601 25.6102C18.5465 26.4237 18.5465 27.7428 19.3601 28.5564L22.0536 31.2499L19.3601 33.9434C18.5465 34.757 18.5465 36.0761 19.3601 36.8897C20.1737 37.7033 21.4928 37.7033 22.3064 36.8897L24.9999 34.1962L27.6934 36.8897C28.507 37.7033 29.8261 37.7033 30.6397 36.8897C31.4532 36.0761 31.4532 34.757 30.6397 33.9434L27.9462 31.2499L30.6397 28.5564Z" fill="#EE5E5E"/>
</svg>
