<svg width="50" height="50" viewBox="0 0 50 50" fill="none" xmlns="http://www.w3.org/2000/svg">
<path fill-rule="evenodd" clip-rule="evenodd" d="M41.6667 14.5833L8.33342 14.5833L8.33342 39.5833H41.6667L41.6667 14.5833ZM4.16675 12.5009L4.16675 12.5L4.16675 12.4991L4.16675 10.4167C4.16675 8.11548 6.03223 6.25 8.33342 6.25L41.6667 6.25C43.9679 6.25 45.8334 8.11548 45.8334 10.4167V12.4961L45.8334 12.5L45.8334 12.5039L45.8334 39.5833C45.8334 41.8845 43.9679 43.75 41.6667 43.75L8.33342 43.75C6.03223 43.75 4.16675 41.8845 4.16675 39.5833L4.16675 12.5009ZM30.6398 21.4435C31.4534 22.2571 31.4534 23.5762 30.6398 24.3898L27.9463 27.0833L30.6398 29.7768C31.4534 30.5904 31.4534 31.9095 30.6398 32.7231C29.8262 33.5367 28.5071 33.5367 27.6935 32.7231L25 30.0296L22.3066 32.7231C21.493 33.5367 20.1739 33.5367 19.3603 32.7231C18.5467 31.9095 18.5467 30.5904 19.3603 29.7768L22.0538 27.0833L19.3603 24.3898C18.5467 23.5762 18.5467 22.2571 19.3603 21.4435C20.1739 20.6299 21.493 20.6299 22.3066 21.4435L25 24.137L27.6935 21.4435C28.5071 20.6299 29.8262 20.6299 30.6398 21.4435Z" fill="#EE5E5E"/>
</svg>
