<svg width="50" height="50" viewBox="0 0 50 50" fill="none" xmlns="http://www.w3.org/2000/svg">
<path fill-rule="evenodd" clip-rule="evenodd" d="M7.19049 25C7.19049 15.1641 15.1641 7.19048 25.0001 7.19048C34.836 7.19048 42.8096 15.1641 42.8096 25C42.8096 34.8359 34.836 42.8095 25.0001 42.8095C15.1641 42.8095 7.19049 34.8359 7.19049 25ZM25.0001 3C12.8498 3 3 12.8497 3 25C3 37.1503 12.8498 47 25.0001 47C37.1504 47 47.0001 37.1503 47.0001 25C47.0001 12.8497 37.1504 3 25.0001 3ZM30.3958 32.8149C31.3386 31.8301 31.8101 30.5206 31.8101 28.8863C31.8101 27.7758 31.5901 26.8539 31.1501 26.1206C30.731 25.3663 30.2072 24.8425 29.5786 24.5491C28.9501 24.2558 28.2586 24.0044 27.5043 23.7949C26.7501 23.5644 26.0586 23.4072 25.4301 23.3234C24.8015 23.2187 24.2672 23.0301 23.8272 22.7577C23.4081 22.4644 23.1986 22.0872 23.1986 21.6263C23.1986 21.1653 23.3767 20.8091 23.7329 20.5577C24.0891 20.2853 24.5396 20.1491 25.0843 20.1491C25.6291 20.1491 26.0796 20.2644 26.4358 20.4949C26.5615 20.5787 26.6977 20.6834 26.8443 20.8091C26.991 20.9349 27.1901 21.092 27.4415 21.2806C27.7139 21.4691 28.0386 21.5634 28.4158 21.5634C29.0024 21.5634 29.5367 21.1968 30.0186 20.4634C30.5215 19.7301 30.7729 19.2063 30.7729 18.892C30.7729 18.5777 30.511 18.1796 29.9872 17.6977L29.8615 17.6034L29.5786 17.352C29.3901 17.2053 29.0548 17.0168 28.5729 16.7863C28.091 16.5558 27.5567 16.3777 26.9701 16.252V14.492C26.9701 13.9682 26.9491 13.5701 26.9072 13.2977C26.8653 13.0253 26.6977 12.7739 26.4043 12.5434C26.132 12.292 25.7129 12.1663 25.1472 12.1663C24.2462 12.1663 23.691 12.4177 23.4815 12.9206C23.3558 13.2349 23.2929 13.7482 23.2929 14.4606V16.2206C21.8891 16.5139 20.7891 17.1634 19.9929 18.1691C19.1967 19.1749 18.7986 20.3063 18.7986 21.5634C18.7986 22.8206 19.0919 23.8577 19.6786 24.6749C20.2653 25.492 20.9777 26.0682 21.8158 26.4034C22.6539 26.7387 23.492 27.011 24.3301 27.2206C25.1682 27.4091 25.8805 27.6291 26.4672 27.8806C27.0539 28.132 27.3472 28.4882 27.3472 28.9491C27.3472 30.2272 26.572 30.8663 25.0215 30.8663C24.2043 30.8663 23.471 30.4682 22.8215 29.672C21.9834 28.8339 21.3234 28.4149 20.8415 28.4149C20.3805 28.4149 19.9405 28.6139 19.5215 29.012C18.8091 29.7034 18.4529 30.2587 18.4529 30.6777C18.4529 31.0968 18.6729 31.5891 19.1129 32.1549L19.5215 32.6891C19.7938 33.0244 20.2758 33.412 20.9672 33.852C21.6586 34.292 22.4339 34.6063 23.2929 34.7949V36.7434C23.2929 37.4558 23.3662 37.9901 23.5129 38.3463C23.6177 38.6187 23.7958 38.8072 24.0472 38.912C24.3196 39.0168 24.6758 39.0691 25.1158 39.0691C25.5558 39.0691 25.9015 39.0168 26.1529 38.912C26.4253 38.8072 26.6243 38.6082 26.7501 38.3149C26.8967 38.0215 26.9701 37.5082 26.9701 36.7749V34.7634C28.311 34.4491 29.4529 33.7996 30.3958 32.8149Z" fill="#EE5E5E"/>
</svg>
