<svg width="130" height="130" viewBox="0 0 130 130" fill="none" xmlns="http://www.w3.org/2000/svg">
<g filter="url(#filter0_d_17278_1498)">
<circle cx="65" cy="61" r="55" fill="#F2FBFB"/>
</g>
<g filter="url(#filter1_d_17278_1498)">
<circle cx="65" cy="61" r="47" fill="white"/>
</g>
<path d="M120 21C120 29.2843 113.284 36 105 36C96.7157 36 90 29.2843 90 21C90 12.7157 96.7157 6 105 6C113.284 6 120 12.7157 120 21Z" fill="#5CD9C1"/>
<path fill-rule="evenodd" clip-rule="evenodd" d="M111.596 16.5982C112.151 17.1753 112.134 18.0935 111.557 18.6491L104.276 25.6593C103.714 26.2001 102.825 26.2001 102.264 25.6593L98.6671 22.1964C98.09 21.6408 98.0726 20.7227 98.6282 20.1456C99.1838 19.5686 100.102 19.5511 100.679 20.1067L103.27 22.6011L109.545 16.5594C110.122 16.0038 111.04 16.0212 111.596 16.5982Z" fill="#FAFDFF"/>
<path fill-rule="evenodd" clip-rule="evenodd" d="M60.6128 39.5341C59.3118 38.7531 57.689 38.7411 56.3766 39.5028L50.6933 42.8013C49.3871 43.5594 48.5934 44.965 48.6188 46.4751L48.6812 50.1853C48.6875 50.563 48.5911 50.9353 48.4021 51.2625L48.267 51.4965L50.0709 52.5385L48.267 51.4965C48.0779 51.8237 47.8034 52.0934 47.4728 52.2766L48.4826 54.0989L47.4728 52.2766L44.2334 54.0718C42.9055 54.8077 42.083 56.2076 42.0864 57.7257L42.1014 64.292C42.1048 65.801 42.9238 67.1901 44.2424 67.9237L45.2535 66.1061L44.2424 67.9237L47.4662 69.7171C47.7979 69.9017 48.0729 70.1733 48.2615 70.5028L50.0696 69.4678L48.2615 70.5028L48.4063 70.7558C48.5926 71.0813 48.6876 71.451 48.6813 71.8259L48.6189 75.5199C48.5933 77.0347 49.392 78.444 50.7046 79.2004L56.4059 82.4858C57.7152 83.2403 59.3303 83.2268 60.6268 82.4505L63.7916 80.5555C64.115 80.3619 64.4849 80.2596 64.8618 80.2596H65.1362C65.514 80.2596 65.8846 80.3623 66.2085 80.5568L69.3878 82.4654C70.6888 83.2465 72.3116 83.2585 73.624 82.4968L79.3073 79.1983C80.6135 78.4402 81.4072 77.0346 81.3818 75.5245L81.3194 71.8143C81.3131 71.4366 81.4095 71.0642 81.5985 70.7372L79.7945 69.6951L81.5985 70.7371L81.7336 70.5031C81.9227 70.1758 82.1972 69.9062 82.5278 69.723L85.7672 67.9278C87.0951 67.1919 87.9176 65.7921 87.9142 64.2739L87.8993 57.7076C87.8958 56.1986 87.0769 54.8095 85.7582 54.0759L82.5267 52.2782L81.5139 54.0987L82.5267 52.2782C82.1974 52.095 81.924 51.8259 81.7355 51.4996L81.5985 51.2625L79.7945 52.3045L81.5985 51.2624C81.4095 50.9354 81.3131 50.563 81.3194 50.1853L81.3818 46.4795C81.4073 44.9648 80.6086 43.5556 79.296 42.7992L73.5947 39.5138L72.5545 41.3189L73.5947 39.5138C72.2854 38.7593 70.6703 38.7728 69.3738 39.5491L66.209 41.4441L67.2793 43.2315L66.209 41.4441C65.8856 41.6377 65.5157 41.74 65.1388 41.74H64.8644C64.4866 41.74 64.116 41.6373 63.7921 41.4428L60.6128 39.5341ZM52.7848 46.405L58.4681 43.1065L61.6474 45.0152C62.6191 45.5985 63.7311 45.9067 64.8644 45.9067H65.1388C66.2696 45.9067 67.3793 45.5998 68.3495 45.0189L71.5143 43.1239L77.2157 46.4094L77.1533 50.1152C77.1343 51.2483 77.4236 52.3653 77.9905 53.3466L78.1275 53.5838L79.9315 52.5417L78.1275 53.5838C78.6929 54.5626 79.5132 55.3698 80.5011 55.9193L83.7326 57.717L83.7475 64.2833L80.5082 66.0785C79.5164 66.6281 78.6928 67.4371 78.1257 68.419L79.9297 69.4611L78.1257 68.419L77.9905 68.653C77.4236 69.6343 77.1343 70.7513 77.1533 71.8843L77.2158 75.5946L71.5325 78.8931L68.3532 76.9844C67.3815 76.4011 66.2695 76.0929 65.1362 76.0929H64.8618C63.731 76.0929 62.6213 76.3997 61.6511 76.9807L58.4863 78.8757L52.785 75.5903L52.8473 71.8962C52.8663 70.7714 52.5814 69.6623 52.0225 68.6859L51.8777 68.4329C51.3119 67.4446 50.487 66.6296 49.4918 66.076L46.268 64.2826L46.2531 57.7162L49.4924 55.9211C50.4842 55.3715 51.3078 54.5624 51.8749 53.5806L52.0101 53.3466L50.2061 52.3045L52.0101 53.3466C52.577 52.3653 52.8663 51.2483 52.8473 50.1152L52.7848 46.405ZM58.75 61C58.75 57.5482 61.5483 54.75 65 54.75C68.4518 54.75 71.25 57.5482 71.25 61C71.25 64.4517 68.4518 67.25 65 67.25C61.5483 67.25 58.75 64.4517 58.75 61ZM65 50.5833C59.2471 50.5833 54.5834 55.247 54.5834 61C54.5834 66.7529 59.2471 71.4166 65 71.4166C70.753 71.4166 75.4167 66.7529 75.4167 61C75.4167 55.247 70.753 50.5833 65 50.5833Z" fill="#417BD2"/>
<defs>
<filter id="filter0_d_17278_1498" x="0" y="0" width="130" height="130" filterUnits="userSpaceOnUse" color-interpolation-filters="sRGB">
<feFlood flood-opacity="0" result="BackgroundImageFix"/>
<feColorMatrix in="SourceAlpha" type="matrix" values="0 0 0 0 0 0 0 0 0 0 0 0 0 0 0 0 0 0 127 0" result="hardAlpha"/>
<feOffset dy="4"/>
<feGaussianBlur stdDeviation="5"/>
<feColorMatrix type="matrix" values="0 0 0 0 0.332604 0 0 0 0 0.7197 0 0 0 0 0.775 0 0 0 0.33 0"/>
<feBlend mode="normal" in2="BackgroundImageFix" result="effect1_dropShadow_17278_1498"/>
<feBlend mode="normal" in="SourceGraphic" in2="effect1_dropShadow_17278_1498" result="shape"/>
</filter>
<filter id="filter1_d_17278_1498" x="8" y="8" width="114" height="114" filterUnits="userSpaceOnUse" color-interpolation-filters="sRGB">
<feFlood flood-opacity="0" result="BackgroundImageFix"/>
<feColorMatrix in="SourceAlpha" type="matrix" values="0 0 0 0 0 0 0 0 0 0 0 0 0 0 0 0 0 0 127 0" result="hardAlpha"/>
<feOffset dy="4"/>
<feGaussianBlur stdDeviation="5"/>
<feColorMatrix type="matrix" values="0 0 0 0 0.332604 0 0 0 0 0.7197 0 0 0 0 0.775 0 0 0 0.33 0"/>
<feBlend mode="normal" in2="BackgroundImageFix" result="effect1_dropShadow_17278_1498"/>
<feBlend mode="normal" in="SourceGraphic" in2="effect1_dropShadow_17278_1498" result="shape"/>
</filter>
</defs>
</svg>
