<svg width="50" height="50" viewBox="0 0 50 50" fill="none" xmlns="http://www.w3.org/2000/svg">
<path fill-rule="evenodd" clip-rule="evenodd" d="M27.0834 4.1665H28.2565C29.4172 4.1665 30.5252 4.65065 31.3138 5.5023L40.5574 15.4854C41.2705 16.2556 41.6667 17.2666 41.6667 18.3162L41.6667 18.7498L41.6667 41.6665C41.6667 43.9677 39.8012 45.8332 37.5 45.8332H12.5C10.1989 45.8332 8.33338 43.9677 8.33338 41.6665L8.33337 8.33317C8.33337 6.03199 10.1989 4.1665 12.5 4.1665H27.0834ZM25 8.33317L12.5 8.33317L12.5 41.6665H37.5L37.5 20.8332H29.1667C26.8655 20.8332 25 18.9677 25 16.6665V8.33317ZM35.9725 16.6665L29.1667 16.6665L29.1667 9.31623L35.9725 16.6665ZM30.6398 28.5563C31.4534 27.7427 31.4534 26.4236 30.6398 25.61C29.8262 24.7964 28.5071 24.7964 27.6935 25.61L25 28.3035L22.3065 25.61C21.4929 24.7964 20.1738 24.7964 19.3602 25.61C18.5466 26.4236 18.5466 27.7427 19.3602 28.5563L22.0537 31.2498L19.3602 33.9433C18.5466 34.7569 18.5466 36.076 19.3602 36.8896C20.1738 37.7032 21.4929 37.7032 22.3065 36.8896L25 34.1961L27.6935 36.8896C28.5071 37.7032 29.8262 37.7032 30.6398 36.8896C31.4534 36.076 31.4534 34.7569 30.6398 33.9433L27.9463 31.2498L30.6398 28.5563Z" fill="#EE5E5E"/>
</svg>
