<svg width="130" height="130" viewBox="0 0 130 130" fill="none" xmlns="http://www.w3.org/2000/svg">
<g filter="url(#filter0_d_17564_3722)">
<circle cx="65" cy="61" r="55" fill="#F2FBFB"/>
</g>
<g filter="url(#filter1_d_17564_3722)">
<circle cx="65" cy="61" r="47" fill="white"/>
</g>
<path d="M120 21C120 29.2843 113.284 36 105 36C96.7157 36 90 29.2843 90 21C90 12.7157 96.7157 6 105 6C113.284 6 120 12.7157 120 21Z" fill="#5CD9C1"/>
<path fill-rule="evenodd" clip-rule="evenodd" d="M111.596 16.5987C112.151 17.1758 112.134 18.094 111.557 18.6495L104.276 25.6598C103.714 26.2005 102.825 26.2005 102.264 25.6598L98.6671 22.1969C98.09 21.6413 98.0726 20.7231 98.6282 20.1461C99.1838 19.569 100.102 19.5516 100.679 20.1072L103.27 22.6016L109.545 16.5599C110.122 16.0043 111.04 16.0217 111.596 16.5987Z" fill="#FAFDFF"/>
<path fill-rule="evenodd" clip-rule="evenodd" d="M48.3334 42.25C46.0322 42.25 44.1668 44.1155 44.1668 46.4167V48.4942C44.1668 48.4961 44.1667 48.4981 44.1667 48.5V75.5833C44.1667 77.8845 46.0322 79.75 48.3334 79.75L81.6668 79.75C83.9679 79.75 85.8334 77.8845 85.8334 75.5833L85.8334 50.5833C85.8334 48.2821 83.9679 46.4167 81.6668 46.4167L65.863 46.4167L62.9168 43.4704C62.1354 42.689 61.0755 42.25 59.9705 42.25H48.3334ZM48.3334 75.5833L48.3334 50.5833L81.6668 50.5833L81.6668 75.5833L48.3334 75.5833ZM70.6399 57.4435C69.8263 56.6299 68.5072 56.6299 67.6936 57.4435C66.88 58.2571 66.88 59.5762 67.6936 60.3898L70.3871 63.0833L67.6936 65.7769C66.88 66.5905 66.88 67.9095 67.6936 68.7231C68.5072 69.5367 69.8263 69.5367 70.6399 68.7231L74.8066 64.5565C75.6202 63.7429 75.6202 62.4238 74.8066 61.6102L70.6399 57.4435ZM62.3066 57.4435C63.1202 58.2571 63.1202 59.5762 62.3066 60.3898L59.613 63.0833L62.3066 65.7769C63.1202 66.5905 63.1202 67.9095 62.3066 68.7231C61.493 69.5367 60.1739 69.5367 59.3603 68.7231L55.1936 64.5565C54.8029 64.1658 54.5834 63.6359 54.5834 63.0833C54.5834 62.5308 54.8029 62.0009 55.1936 61.6102L59.3603 57.4435C60.1739 56.6299 61.493 56.6299 62.3066 57.4435Z" fill="#417BD2"/>
<defs>
<filter id="filter0_d_17564_3722" x="0" y="0" width="130" height="130" filterUnits="userSpaceOnUse" color-interpolation-filters="sRGB">
<feFlood flood-opacity="0" result="BackgroundImageFix"/>
<feColorMatrix in="SourceAlpha" type="matrix" values="0 0 0 0 0 0 0 0 0 0 0 0 0 0 0 0 0 0 127 0" result="hardAlpha"/>
<feOffset dy="4"/>
<feGaussianBlur stdDeviation="5"/>
<feColorMatrix type="matrix" values="0 0 0 0 0.332604 0 0 0 0 0.7197 0 0 0 0 0.775 0 0 0 0.33 0"/>
<feBlend mode="normal" in2="BackgroundImageFix" result="effect1_dropShadow_17564_3722"/>
<feBlend mode="normal" in="SourceGraphic" in2="effect1_dropShadow_17564_3722" result="shape"/>
</filter>
<filter id="filter1_d_17564_3722" x="8" y="8" width="114" height="114" filterUnits="userSpaceOnUse" color-interpolation-filters="sRGB">
<feFlood flood-opacity="0" result="BackgroundImageFix"/>
<feColorMatrix in="SourceAlpha" type="matrix" values="0 0 0 0 0 0 0 0 0 0 0 0 0 0 0 0 0 0 127 0" result="hardAlpha"/>
<feOffset dy="4"/>
<feGaussianBlur stdDeviation="5"/>
<feColorMatrix type="matrix" values="0 0 0 0 0.332604 0 0 0 0 0.7197 0 0 0 0 0.775 0 0 0 0.33 0"/>
<feBlend mode="normal" in2="BackgroundImageFix" result="effect1_dropShadow_17564_3722"/>
<feBlend mode="normal" in="SourceGraphic" in2="effect1_dropShadow_17564_3722" result="shape"/>
</filter>
</defs>
</svg>
