<svg width="130" height="130" viewBox="0 0 130 130" fill="none" xmlns="http://www.w3.org/2000/svg">
<g filter="url(#filter0_d_17564_3706)">
<circle cx="65" cy="61" r="55" fill="#F2FBFB"/>
</g>
<g filter="url(#filter1_d_17564_3706)">
<circle cx="65" cy="61" r="47" fill="white"/>
</g>
<path d="M120 21C120 29.2843 113.284 36 105 36C96.7157 36 90 29.2843 90 21C90 12.7157 96.7157 6 105 6C113.284 6 120 12.7157 120 21Z" fill="#5CD9C1"/>
<path fill-rule="evenodd" clip-rule="evenodd" d="M111.596 16.5987C112.151 17.1758 112.134 18.094 111.557 18.6495L104.276 25.6598C103.714 26.2005 102.825 26.2005 102.264 25.6598L98.6671 22.1969C98.09 21.6413 98.0726 20.7231 98.6282 20.1461C99.1838 19.569 100.102 19.5516 100.679 20.1072L103.27 22.6016L109.545 16.5599C110.122 16.0043 111.04 16.0217 111.596 16.5987Z" fill="#FAFDFF"/>
<path fill-rule="evenodd" clip-rule="evenodd" d="M60.8333 71.4167C60.8333 70.2661 61.766 69.3333 62.9166 69.3333H81.6666C82.8172 69.3333 83.7499 70.2661 83.7499 71.4167C83.7499 72.5673 82.8172 73.5 81.6666 73.5H62.9166C61.766 73.5 60.8333 72.5673 60.8333 71.4167Z" fill="#417BD2"/>
<path fill-rule="evenodd" clip-rule="evenodd" d="M58.0004 65.6496C58.8843 66.3861 59.0037 67.6998 58.2671 68.5837L53.0588 74.8337C52.3772 75.6516 51.1886 75.824 50.3027 75.2334L47.1777 73.1501C46.2203 72.5119 45.9616 71.2184 46.5999 70.2611C47.2381 69.3037 48.5316 69.045 49.4889 69.6832L51.0563 70.7282L55.0662 65.9163C55.8028 65.0324 57.1165 64.913 58.0004 65.6496Z" fill="#417BD2"/>
<path fill-rule="evenodd" clip-rule="evenodd" d="M60.8333 61C60.8333 59.8494 61.766 58.9167 62.9166 58.9167H81.6666C82.8172 58.9167 83.7499 59.8494 83.7499 61C83.7499 62.1506 82.8172 63.0833 81.6666 63.0833H62.9166C61.766 63.0833 60.8333 62.1506 60.8333 61Z" fill="#417BD2"/>
<path fill-rule="evenodd" clip-rule="evenodd" d="M58.0004 55.2327C58.8843 55.9693 59.0037 57.283 58.2671 58.1669L53.0588 64.4169C52.3772 65.2348 51.1886 65.4072 50.3027 64.8167L47.1777 62.7335C46.2204 62.0953 45.9616 60.8018 46.5998 59.8444C47.238 58.8871 48.5315 58.6283 49.4889 59.2665L51.0563 60.3114L55.0662 55.4995C55.8028 54.6156 57.1165 54.4961 58.0004 55.2327Z" fill="#417BD2"/>
<path fill-rule="evenodd" clip-rule="evenodd" d="M60.8333 50.5833C60.8333 49.4327 61.766 48.5 62.9166 48.5H81.6666C82.8172 48.5 83.7499 49.4327 83.7499 50.5833C83.7499 51.7339 82.8172 52.6667 81.6666 52.6667H62.9166C61.766 52.6667 60.8333 51.7339 60.8333 50.5833Z" fill="#417BD2"/>
<path fill-rule="evenodd" clip-rule="evenodd" d="M58.0004 44.8162C58.8843 45.5528 59.0037 46.8665 58.2671 47.7504L53.0588 54.0004C52.3772 54.8183 51.1886 54.9907 50.3027 54.4001L47.1777 52.3168C46.2203 51.6785 45.9616 50.3851 46.5999 49.4277C47.2381 48.4704 48.5316 48.2117 49.4889 48.8499L51.0563 49.8948L55.0662 45.083C55.8028 44.199 57.1165 44.0796 58.0004 44.8162Z" fill="#417BD2"/>
<defs>
<filter id="filter0_d_17564_3706" x="0" y="0" width="130" height="130" filterUnits="userSpaceOnUse" color-interpolation-filters="sRGB">
<feFlood flood-opacity="0" result="BackgroundImageFix"/>
<feColorMatrix in="SourceAlpha" type="matrix" values="0 0 0 0 0 0 0 0 0 0 0 0 0 0 0 0 0 0 127 0" result="hardAlpha"/>
<feOffset dy="4"/>
<feGaussianBlur stdDeviation="5"/>
<feColorMatrix type="matrix" values="0 0 0 0 0.332604 0 0 0 0 0.7197 0 0 0 0 0.775 0 0 0 0.33 0"/>
<feBlend mode="normal" in2="BackgroundImageFix" result="effect1_dropShadow_17564_3706"/>
<feBlend mode="normal" in="SourceGraphic" in2="effect1_dropShadow_17564_3706" result="shape"/>
</filter>
<filter id="filter1_d_17564_3706" x="8" y="8" width="114" height="114" filterUnits="userSpaceOnUse" color-interpolation-filters="sRGB">
<feFlood flood-opacity="0" result="BackgroundImageFix"/>
<feColorMatrix in="SourceAlpha" type="matrix" values="0 0 0 0 0 0 0 0 0 0 0 0 0 0 0 0 0 0 127 0" result="hardAlpha"/>
<feOffset dy="4"/>
<feGaussianBlur stdDeviation="5"/>
<feColorMatrix type="matrix" values="0 0 0 0 0.332604 0 0 0 0 0.7197 0 0 0 0 0.775 0 0 0 0.33 0"/>
<feBlend mode="normal" in2="BackgroundImageFix" result="effect1_dropShadow_17564_3706"/>
<feBlend mode="normal" in="SourceGraphic" in2="effect1_dropShadow_17564_3706" result="shape"/>
</filter>
</defs>
</svg>
