<svg fill="none" height="65" viewBox="0 0 92 65" width="92" xmlns="http://www.w3.org/2000/svg"><rect fill="#fff" height="64.0694" rx="15" width="91.9892" y=".930542"/><g fill="#008c31"><path d="m34.5166 16.615h22.6774v31.5758h-22.6774v-5.789h2.5768c.0008 1.0526-.0004 2.1049.0004 3.1575 5.8409.0004 11.6821.0004 17.523 0 .0004-8.7709.0004-17.5419 0-26.3129-5.8409-.0004-11.6821-.0004-17.523 0-.0008 1.0527 0 2.1049-.0004 3.1576h-2.5768z"/><path d="m34.5167 40.0941c.0004-4.8577-.0007-9.7154.0004-14.5732.789.0004 1.5783-.0004 2.3673.0004-.0008.5357.0008 1.0713-.0008 1.6074.4688-.6783 1.2499-1.0666 2.0342-1.2199.9168-.1681 1.8899-.0783 2.7449.3063.8542.3795 1.5458 1.0888 1.9638 1.9308.5504 1.1011.6955 2.377.5633 3.5941-.1427 1.2731-.6978 2.5344-1.6811 3.3625-.8964.7685-2.11 1.0919-3.2676.981-.8847-.0802-1.8035-.4339-2.3548-1.1726.0008 1.7278.0004 3.4555.0004 5.1832-.7901.0004-1.5802.0004-2.37 0z"/></g></svg>