<svg width="92" height="65" viewBox="0 0 92 65" fill="none" xmlns="http://www.w3.org/2000/svg">
<rect width="91.9892" height="64.0694" rx="15" fill="white"/>
<g filter="url(#filter0_d)">
<path fill-rule="evenodd" clip-rule="evenodd" d="M33.8481 30.0987C33.8695 30.2675 33.892 30.4446 33.7207 30.5818C33.7312 30.6836 33.7424 30.785 33.7535 30.8862C33.8174 31.4676 33.8806 32.0417 33.8201 32.6261C33.8201 33.0228 33.8248 33.4195 33.8296 33.8162C33.839 34.6097 33.8485 35.4031 33.8201 36.1965C33.8192 36.2236 33.8182 36.2501 33.8173 36.276C33.7769 37.4287 33.7769 37.4287 35.0127 37.4287C35.6259 37.4287 35.9312 37.4287 36.0903 37.2762C36.2481 37.1251 36.2623 36.824 36.2906 36.2246C36.2906 36.2092 36.3034 36.1938 36.322 36.1715C36.3373 36.1532 36.3565 36.1301 36.3758 36.0985C36.4113 36.1265 36.4468 36.151 36.4822 36.1755C36.5177 36.2 36.5532 36.2246 36.5887 36.2526C38.3209 37.7928 40.337 38.1288 42.5378 37.6107C44.4829 37.1487 45.7182 35.8885 46.4849 34.1103C46.5842 33.7043 46.6836 33.2842 46.783 32.8642L46.783 32.8641C46.783 32.749 46.7839 32.6331 46.7848 32.5167C46.7874 32.1658 46.7901 31.8109 46.7688 31.4639C46.6836 30.1478 46.2293 28.9716 45.3064 27.9915C43.1909 25.7512 39.2296 25.5272 36.8443 27.5014C36.8141 27.5279 36.787 27.5607 36.7594 27.5942C36.6702 27.7022 36.575 27.8176 36.3474 27.7535V23.6509C36.3474 22.738 36.3474 22.2864 36.1216 22.0596C35.8937 21.8307 35.4358 21.8307 34.5158 21.8167C33.9195 21.8027 33.8343 22.0127 33.8343 22.5308C33.8485 24.9951 33.8485 27.4734 33.8343 29.9377C33.8343 29.9894 33.8412 30.0436 33.8481 30.0987ZM36.3331 31.996C36.3189 29.5317 37.8665 27.8795 40.2092 27.8655C42.5519 27.8515 44.1421 29.4897 44.1705 31.94C44.1989 34.3763 42.5377 36.1685 40.2376 36.1545C37.9233 36.1405 36.3473 34.4463 36.3331 31.996Z" fill="#0466D2"/>
</g>
<g filter="url(#filter1_d)">
<path fill-rule="evenodd" clip-rule="evenodd" d="M47.0825 32.7905C46.9839 33.2033 46.8853 33.6303 46.7866 34.0573C46.843 35.2245 47.2234 36.2351 48.2238 36.9041C50.1401 38.2421 53.719 38.1283 55.5226 36.6479C55.7621 36.4486 56.0016 36.2351 56.2412 36.0074C56.3709 36.2134 56.3544 36.4604 56.3388 36.6921C56.3189 36.9888 56.3007 37.2602 56.5934 37.3881C56.8936 37.5195 57.2578 37.493 57.6203 37.4666C57.7683 37.4558 57.9159 37.445 58.0588 37.445C58.0823 37.445 58.1058 37.4434 58.1293 37.4419C58.1762 37.4387 58.2232 37.4355 58.2702 37.445C58.6224 37.4877 58.6647 37.3169 58.6647 36.9895C58.6412 36.1592 58.6395 35.3289 58.6377 34.4986C58.6363 33.8343 58.6349 33.1701 58.6224 32.5058C58.6138 32.1664 58.6197 31.827 58.6255 31.488C58.6388 30.718 58.6521 29.9502 58.4956 29.1892C58.4707 28.5468 58.1257 28.0716 57.7732 27.586C57.7274 27.5229 57.6815 27.4596 57.6361 27.3957C57.6117 27.3711 57.5803 27.3499 57.5493 27.3289C57.4593 27.2681 57.3724 27.2093 57.4671 27.0731C57.4764 27.0717 57.4857 27.0701 57.4952 27.0684L57.4811 27.0541C57.4761 27.0606 57.4714 27.0669 57.4671 27.0731C57.1965 27.1129 57.0131 26.9713 56.829 26.8292C56.7194 26.7445 56.6094 26.6597 56.4807 26.6129C54.1417 25.7304 51.8027 25.7446 49.506 26.7267C48.562 27.1395 47.9561 27.9224 47.7166 28.9615C47.6461 29.2462 47.6884 29.36 47.9843 29.36C48.2056 29.36 48.4253 29.3585 48.6444 29.3569C49.0812 29.3537 49.516 29.3506 49.9569 29.36C50.1965 29.36 50.2669 29.2319 50.3374 29.0327C50.5628 28.4064 51.056 28.0505 51.6618 27.8655C52.6482 27.5666 53.6486 27.595 54.6349 27.9224C55.5366 28.2213 55.9875 28.8903 56.1143 29.8155C56.1848 30.2995 56.1143 30.5415 55.5226 30.5272C54.1558 30.4845 52.7891 30.4703 51.4364 30.6269C49.7315 30.8262 48.0688 31.1251 47.0825 32.7905ZM50.9713 32.4773C51.9718 32.2069 53.0144 32.1926 54.043 32.1926C54.2008 32.1926 54.3575 32.195 54.5134 32.1973C54.9001 32.2031 55.2817 32.2088 55.6634 32.1784C56.0579 32.1642 56.1284 32.3207 56.1284 32.6766C56.1284 34.4986 54.8743 35.9504 53.0567 36.1497C52.3099 36.2351 51.5631 36.2778 50.8304 36.0074C49.9005 35.6658 49.4214 34.9825 49.4496 34.0858C49.4778 33.2744 49.9709 32.7478 50.9713 32.4773Z" fill="#F4B006"/>
</g>
<g filter="url(#filter2_d)">
<path fill-rule="evenodd" clip-rule="evenodd" d="M33.6045 31.0461L33.602 31.0254C33.2095 28.9375 32.0459 27.5314 30.0411 26.8922C29.3542 26.665 28.6392 26.5798 27.9102 26.5656C24.3353 26.4945 21.7278 27.9575 21.2932 31.835C21.0128 34.3916 22.0782 36.7351 24.2092 37.6867C26.4662 38.7093 28.7934 38.6525 31.0645 37.6725C32.102 37.218 32.859 36.4226 33.2375 35.3006C33.3637 34.9597 33.3076 34.775 32.887 34.7892C32.3543 34.8177 31.8076 34.8034 31.2748 34.7892C30.9804 34.775 30.8122 34.8745 30.658 35.1301C29.915 36.38 28.471 36.9481 26.9008 36.6783C25.3307 36.4084 24.2652 35.3858 23.9007 33.8802C23.7465 33.2695 23.9007 33.1133 24.5176 33.1133C26.555 33.1227 28.5925 33.1196 30.63 33.1164C31.6487 33.1148 32.6674 33.1133 33.6861 33.1133C33.7694 32.4101 33.6878 31.7349 33.6045 31.0461ZM28.3528 31.4332C28.0604 31.4355 27.768 31.4378 27.4756 31.4378C27.1251 31.4378 26.7762 31.4362 26.4273 31.4347C25.7294 31.4315 25.0316 31.4284 24.3213 31.4378C23.8727 31.452 23.8306 31.2816 23.9147 30.8981C24.2232 29.5204 25.2325 28.5404 26.6204 28.2989C27.5177 28.1427 28.3869 28.1711 29.228 28.512C30.2514 28.9381 30.8542 29.7334 31.0505 30.8413C31.1346 31.2816 31.0505 31.4662 30.5458 31.452C29.8148 31.4216 29.0838 31.4274 28.3528 31.4332Z" fill="#E5363C"/>
</g>
<g filter="url(#filter3_d)">
<path d="M58.5668 29.4719C58.5527 28.7403 58.1031 28.2094 57.7096 27.6643C57.7237 27.5208 57.7377 27.3773 57.5551 27.3199L57.5691 27.3343C57.3724 26.8321 57.4708 26.703 58.0609 26.6169C59.6909 26.3731 60.5621 26.99 61.1803 28.5681C61.9812 30.6197 63.0773 32.5565 64.0468 34.5363C64.1452 34.7372 64.2716 34.938 64.4543 35.2393C65.1288 33.8764 65.7611 32.6138 66.3793 31.3513C67.0538 29.9597 67.7423 28.5824 68.3887 27.1765C68.5713 26.7748 68.7962 26.5739 69.2458 26.6313C69.8781 26.7174 70.7774 26.33 71.0865 26.8035C71.3254 27.1621 70.6509 27.9081 70.3699 28.482C68.2622 32.7286 66.1264 36.9752 64.0327 41.2362C63.7517 41.8244 63.4145 42.0396 62.7962 41.9822C62.192 41.9248 61.5878 41.9679 60.8712 41.9679C61.5176 40.7054 62.1077 39.5146 62.74 38.3525C62.9789 37.9221 63.007 37.5778 62.7541 37.1187C61.4754 34.7372 60.2389 32.3269 58.9883 29.931C58.904 29.7589 58.904 29.4576 58.5668 29.4719Z" fill="#88B91B"/>
</g>
<defs>
<filter id="filter0_d" x="19.7207" y="9.81602" width="41.0659" height="44.0214" filterUnits="userSpaceOnUse" color-interpolation-filters="sRGB">
<feFlood flood-opacity="0" result="BackgroundImageFix"/>
<feColorMatrix in="SourceAlpha" type="matrix" values="0 0 0 0 0 0 0 0 0 0 0 0 0 0 0 0 0 0 127 0" result="hardAlpha"/>
<feOffset dy="2"/>
<feGaussianBlur stdDeviation="7"/>
<feColorMatrix type="matrix" values="0 0 0 0 0.937255 0 0 0 0 0.756863 0 0 0 0 0.305882 0 0 0 0.299607 0"/>
<feBlend mode="normal" in2="BackgroundImageFix" result="effect1_dropShadow"/>
<feBlend mode="normal" in="SourceGraphic" in2="effect1_dropShadow" result="shape"/>
</filter>
<filter id="filter1_d" x="32.7866" y="13.9697" width="39.8781" height="39.8677" filterUnits="userSpaceOnUse" color-interpolation-filters="sRGB">
<feFlood flood-opacity="0" result="BackgroundImageFix"/>
<feColorMatrix in="SourceAlpha" type="matrix" values="0 0 0 0 0 0 0 0 0 0 0 0 0 0 0 0 0 0 127 0" result="hardAlpha"/>
<feOffset dy="2"/>
<feGaussianBlur stdDeviation="7"/>
<feColorMatrix type="matrix" values="0 0 0 0 0.937255 0 0 0 0 0.756863 0 0 0 0 0.305882 0 0 0 0.299607 0"/>
<feBlend mode="normal" in2="BackgroundImageFix" result="effect1_dropShadow"/>
<feBlend mode="normal" in="SourceGraphic" in2="effect1_dropShadow" result="shape"/>
</filter>
<filter id="filter2_d" x="7.24902" y="14.5631" width="40.472" height="39.8677" filterUnits="userSpaceOnUse" color-interpolation-filters="sRGB">
<feFlood flood-opacity="0" result="BackgroundImageFix"/>
<feColorMatrix in="SourceAlpha" type="matrix" values="0 0 0 0 0 0 0 0 0 0 0 0 0 0 0 0 0 0 127 0" result="hardAlpha"/>
<feOffset dy="2"/>
<feGaussianBlur stdDeviation="7"/>
<feColorMatrix type="matrix" values="0 0 0 0 0.937255 0 0 0 0 0.756863 0 0 0 0 0.305882 0 0 0 0.299607 0"/>
<feBlend mode="normal" in2="BackgroundImageFix" result="effect1_dropShadow"/>
<feBlend mode="normal" in="SourceGraphic" in2="effect1_dropShadow" result="shape"/>
</filter>
<filter id="filter3_d" x="43.4771" y="14.5631" width="41.6598" height="43.428" filterUnits="userSpaceOnUse" color-interpolation-filters="sRGB">
<feFlood flood-opacity="0" result="BackgroundImageFix"/>
<feColorMatrix in="SourceAlpha" type="matrix" values="0 0 0 0 0 0 0 0 0 0 0 0 0 0 0 0 0 0 127 0" result="hardAlpha"/>
<feOffset dy="2"/>
<feGaussianBlur stdDeviation="7"/>
<feColorMatrix type="matrix" values="0 0 0 0 0.937255 0 0 0 0 0.756863 0 0 0 0 0.305882 0 0 0 0.299607 0"/>
<feBlend mode="normal" in2="BackgroundImageFix" result="effect1_dropShadow"/>
<feBlend mode="normal" in="SourceGraphic" in2="effect1_dropShadow" result="shape"/>
</filter>
</defs>
</svg>
