<svg fill="none" height="65" viewBox="0 0 92 65" width="92" xmlns="http://www.w3.org/2000/svg" xmlns:xlink="http://www.w3.org/1999/xlink"><filter id="a" color-interpolation-filters="sRGB" filterUnits="userSpaceOnUse" height="44.0214" width="41.0659" x="19.7207" y="9.81602"><feFlood flood-opacity="0" result="BackgroundImageFix"/><feColorMatrix in="SourceAlpha" result="hardAlpha" type="matrix" values="0 0 0 0 0 0 0 0 0 0 0 0 0 0 0 0 0 0 127 0"/><feOffset dy="2"/><feGaussianBlur stdDeviation="7"/><feColorMatrix type="matrix" values="0 0 0 0 0.937255 0 0 0 0 0.756863 0 0 0 0 0.305882 0 0 0 0.299607 0"/><feBlend in2="BackgroundImageFix" mode="normal" result="effect1_dropShadow"/><feBlend in="SourceGraphic" in2="effect1_dropShadow" mode="normal" result="shape"/></filter><filter id="b" color-interpolation-filters="sRGB" filterUnits="userSpaceOnUse" height="39.8677" width="39.8781" x="32.7866" y="13.9697"><feFlood flood-opacity="0" result="BackgroundImageFix"/><feColorMatrix in="SourceAlpha" result="hardAlpha" type="matrix" values="0 0 0 0 0 0 0 0 0 0 0 0 0 0 0 0 0 0 127 0"/><feOffset dy="2"/><feGaussianBlur stdDeviation="7"/><feColorMatrix type="matrix" values="0 0 0 0 0.937255 0 0 0 0 0.756863 0 0 0 0 0.305882 0 0 0 0.299607 0"/><feBlend in2="BackgroundImageFix" mode="normal" result="effect1_dropShadow"/><feBlend in="SourceGraphic" in2="effect1_dropShadow" mode="normal" result="shape"/></filter><filter id="c" color-interpolation-filters="sRGB" filterUnits="userSpaceOnUse" height="39.8677" width="40.472" x="7.24902" y="14.5631"><feFlood flood-opacity="0" result="BackgroundImageFix"/><feColorMatrix in="SourceAlpha" result="hardAlpha" type="matrix" values="0 0 0 0 0 0 0 0 0 0 0 0 0 0 0 0 0 0 127 0"/><feOffset dy="2"/><feGaussianBlur stdDeviation="7"/><feColorMatrix type="matrix" values="0 0 0 0 0.937255 0 0 0 0 0.756863 0 0 0 0 0.305882 0 0 0 0.299607 0"/><feBlend in2="BackgroundImageFix" mode="normal" result="effect1_dropShadow"/><feBlend in="SourceGraphic" in2="effect1_dropShadow" mode="normal" result="shape"/></filter><filter id="d" color-interpolation-filters="sRGB" filterUnits="userSpaceOnUse" height="43.428" width="41.6598" x="43.4771" y="14.5631"><feFlood flood-opacity="0" result="BackgroundImageFix"/><feColorMatrix in="SourceAlpha" result="hardAlpha" type="matrix" values="0 0 0 0 0 0 0 0 0 0 0 0 0 0 0 0 0 0 127 0"/><feOffset dy="2"/><feGaussianBlur stdDeviation="7"/><feColorMatrix type="matrix" values="0 0 0 0 0.937255 0 0 0 0 0.756863 0 0 0 0 0.305882 0 0 0 0.299607 0"/><feBlend in2="BackgroundImageFix" mode="normal" result="effect1_dropShadow"/><feBlend in="SourceGraphic" in2="effect1_dropShadow" mode="normal" result="shape"/></filter><rect fill="#fff" height="64.0694" rx="15" width="91.9892"/><g filter="url(#a)"><path clip-rule="evenodd" d="m33.8481 30.0987c.0214.1688.0439.3459-.1274.4831.0105.1018.0217.2032.0328.3044.0639.5814.1271 1.1555.0666 1.7399 0 .3967.0047.7934.0095 1.1901.0094.7935.0189 1.5869-.0095 2.3803-.0009.0271-.0019.0536-.0028.0795-.0404 1.1527-.0404 1.1527 1.1954 1.1527.6132 0 .9185 0 1.0776-.1525.1578-.1511.172-.4522.2003-1.0516 0-.0154.0128-.0308.0314-.0531.0153-.0183.0345-.0414.0538-.073.0355.028.071.0525.1064.077.0355.0245.071.0491.1065.0771 1.7322 1.5402 3.7483 1.8762 5.9491 1.3581 1.9451-.462 3.1804-1.7222 3.9471-3.5004.0993-.406.1987-.8261.2981-1.2461v-.0001c0-.1151.0009-.231.0018-.3474.0026-.3509.0053-.7058-.016-1.0528-.0852-1.3161-.5395-2.4923-1.4624-3.4724-2.1155-2.2403-6.0768-2.4643-8.4621-.4901-.0302.0265-.0573.0593-.0849.0928-.0892.108-.1844.2234-.412.1593v-4.1026c0-.9129 0-1.3645-.2258-1.5913-.2279-.2289-.6858-.2289-1.6058-.2429-.5963-.014-.6815.196-.6815.7141.0142 2.4643.0142 4.9426 0 7.4069 0 .0517.0069.1059.0138.161zm2.485 1.8973c-.0142-2.4643 1.5334-4.1165 3.8761-4.1305s3.9329 1.6242 3.9613 4.0745c.0284 2.4363-1.6328 4.2285-3.9329 4.2145-2.3143-.014-3.8903-1.7082-3.9045-4.1585z" fill="#0466d2" fill-rule="evenodd"/></g><g filter="url(#b)"><path clip-rule="evenodd" d="m47.0825 32.7905c-.0986.4128-.1972.8398-.2959 1.2668.0564 1.1672.4368 2.1778 1.4372 2.8468 1.9163 1.338 5.4952 1.2242 7.2988-.2562.2395-.1993.479-.4128.7186-.6405.1297.206.1132.453.0976.6847-.0199.2967-.0381.5681.2546.696.3002.1314.6644.1049 1.0269.0785.148-.0108.2956-.0216.4385-.0216.0235 0 .047-.0016.0705-.0031.0469-.0032.0939-.0064.1409.0031.3522.0427.3945-.1281.3945-.4555-.0235-.8303-.0252-1.6606-.027-2.4909-.0014-.6643-.0028-1.3285-.0153-1.9928-.0086-.3394-.0027-.6788.0031-1.0178.0133-.77.0266-1.5378-.1299-2.2988-.0249-.6424-.3699-1.1176-.7224-1.6032-.0458-.0631-.0917-.1264-.1371-.1903-.0244-.0246-.0558-.0458-.0868-.0668-.09-.0608-.1769-.1196-.0822-.2558.0093-.0014.0186-.003.0281-.0047l-.0141-.0143c-.005.0065-.0097.0128-.014.019-.2706.0398-.454-.1018-.6381-.2439-.1096-.0847-.2196-.1695-.3483-.2163-2.339-.8825-4.678-.8683-6.9747.1138-.944.4128-1.5499 1.1957-1.7894 2.2348-.0705.2847-.0282.3985.2677.3985.2213 0 .441-.0015.6601-.0031.4368-.0032.8716-.0063 1.3125.0031.2396 0 .31-.1281.3805-.3273.2254-.6263.7186-.9822 1.3244-1.1672.9864-.2989 1.9868-.2705 2.9731.0569.9017.2989 1.3526.9679 1.4794 1.8931.0705.484 0 .726-.5917.7117-1.3668-.0427-2.7335-.0569-4.0862.0997-1.7049.1993-3.3676.4982-4.3539 2.1636zm3.8888-.3132c1.0005-.2704 2.0431-.2847 3.0717-.2847.1578 0 .3145.0024.4704.0047.3867.0058.7683.0115 1.15-.0189.3945-.0142.465.1423.465.4982 0 1.822-1.2541 3.2738-3.0717 3.4731-.7468.0854-1.4936.1281-2.2263-.1423-.9299-.3416-1.409-1.0249-1.3808-1.9216.0282-.8114.5213-1.338 1.5217-1.6085z" fill="#f4b006" fill-rule="evenodd"/></g><g filter="url(#c)"><path clip-rule="evenodd" d="m33.6045 31.0461-.0025-.0207c-.3925-2.0879-1.5561-3.494-3.5609-4.1332-.6869-.2272-1.4019-.3124-2.1309-.3266-3.5749-.0711-6.1824 1.3919-6.617 5.2694-.2804 2.5566.785 4.9001 2.916 5.8517 2.257 1.0226 4.5842.9658 6.8553-.0142 1.0375-.4545 1.7945-1.2499 2.173-2.3719.1262-.3409.0701-.5256-.3505-.5114-.5327.0285-1.0794.0142-1.6122 0-.2944-.0142-.4626.0853-.6168.3409-.743 1.2499-2.187 1.818-3.7572 1.5482-1.5701-.2699-2.6356-1.2925-3.0001-2.7981-.1542-.6107 0-.7669.6169-.7669 2.0374.0094 4.0749.0063 6.1124.0031 1.0187-.0016 2.0374-.0031 3.0561-.0031.0833-.7032.0017-1.3784-.0816-2.0672zm-5.2517.3871c-.2924.0023-.5848.0046-.8772.0046-.3505 0-.6994-.0016-1.0483-.0031-.6979-.0032-1.3957-.0063-2.106.0031-.4486.0142-.4907-.1562-.4066-.5397.3085-1.3777 1.3178-2.3577 2.7057-2.5992.8973-.1562 1.7665-.1278 2.6076.2131 1.0234.4261 1.6262 1.2214 1.8225 2.3293.0841.4403 0 .6249-.5047.6107-.731-.0304-1.462-.0246-2.193-.0188z" fill="#e5363c" fill-rule="evenodd"/></g><g filter="url(#d)"><path d="m58.5668 29.4719c-.0141-.7316-.4637-1.2625-.8572-1.8076.0141-.1435.0281-.287-.1545-.3444l.014.0144c-.1967-.5022-.0983-.6313.4918-.7174 1.63-.2438 2.5012.3731 3.1194 1.9512.8009 2.0516 1.897 3.9884 2.8665 5.9682.0984.2009.2248.4017.4075.703.6745-1.3629 1.3068-2.6255 1.925-3.888.6745-1.3916 1.363-2.7689 2.0094-4.1748.1826-.4017.4075-.6026.8571-.5452.6323.0861 1.5316-.3013 1.8407.1722.2389.3586-.4356 1.1046-.7166 1.6785-2.1077 4.2466-4.2435 8.4932-6.3372 12.7542-.281.5882-.6182.8034-1.2365.746-.6042-.0574-1.2084-.0143-1.925-.0143.6464-1.2625 1.2365-2.4533 1.8688-3.6154.2389-.4304.267-.7747.0141-1.2338-1.2787-2.3815-2.5152-4.7918-3.7658-7.1877-.0843-.1721-.0843-.4734-.4215-.4591z" fill="#88b91b"/></g></svg>