<svg width="92" height="66" viewBox="0 0 92 66" fill="none" xmlns="http://www.w3.org/2000/svg">
<rect y="0.965271" width="91.9892" height="64.0694" rx="15" fill="white"/>
<g filter="url(#filter0_d)">
<path d="M30.6193 21.8869H61.4721C63.4246 21.8869 65.0052 23.4874 65.0052 25.4645V37.3896C65.0052 39.3667 63.4246 40.9671 61.4721 40.9671H50.4079L51.9265 44.733L45.2477 40.9671H30.6348C28.6823 40.9671 27.1017 39.3667 27.1017 37.3896V25.4645C27.0862 23.5031 28.6668 21.8869 30.6193 21.8869Z" fill="#9B5C8F"/>
</g>
<g filter="url(#filter1_d)">
<path d="M30.6193 21.8869H61.4721C63.4246 21.8869 65.0052 23.4874 65.0052 25.4645V37.3896C65.0052 39.3667 63.4246 40.9671 61.4721 40.9671H50.4079L51.9265 44.733L45.2477 40.9671H30.6348C28.6823 40.9671 27.1017 39.3667 27.1017 37.3896V25.4645C27.0862 23.5031 28.6668 21.8869 30.6193 21.8869Z" fill="#9B5C8F"/>
</g>
<path fill-rule="evenodd" clip-rule="evenodd" d="M29.0426 25.8119C29.2611 25.5171 29.5889 25.3619 30.0259 25.3309C30.8219 25.2688 31.2745 25.6412 31.3838 26.4482C31.8676 29.6913 32.3983 32.4379 32.9601 34.6879L36.3782 28.2171C36.6903 27.6275 37.0805 27.3171 37.5488 27.2861C38.2355 27.2395 38.6569 27.674 38.8286 28.5896C39.2188 30.6534 39.7182 32.4069 40.3113 33.8965C40.7171 29.9551 41.4038 27.1154 42.3715 25.3619C42.6056 24.9274 42.949 24.7102 43.4016 24.6792C43.7606 24.6481 44.0883 24.7567 44.3849 24.9895C44.6814 25.2223 44.8375 25.5171 44.8687 25.874C44.8843 26.1533 44.8375 26.3861 44.7126 26.6188C44.104 27.7361 43.6045 29.6137 43.1987 32.2207C42.8085 34.75 42.6681 36.7207 42.7617 38.1328C42.7929 38.5208 42.7305 38.8621 42.5744 39.157C42.3871 39.4984 42.1062 39.6846 41.7472 39.7156C41.3414 39.7466 40.92 39.5604 40.5142 39.1415C39.0627 37.6673 37.9077 35.4638 37.0649 32.531C36.0504 34.5172 35.3013 36.0069 34.8174 37C33.8966 38.7535 33.1162 39.6535 32.4607 39.7001C32.0393 39.7311 31.6803 39.3742 31.3682 38.6294C30.5722 36.5966 29.7138 32.6707 28.7929 26.8516C28.7305 26.4482 28.8241 26.0913 29.0426 25.8119ZM62.5834 28.2473C62.0215 27.2697 61.1943 26.68 60.0861 26.4472C59.7896 26.3852 59.5087 26.3541 59.2433 26.3541C57.745 26.3541 56.5276 27.13 55.5755 28.6817C54.764 30.0007 54.3582 31.4594 54.3582 33.0577C54.3582 34.2525 54.6079 35.2767 55.1073 36.1301C55.6692 37.1077 56.4964 37.6974 57.6045 37.9302C57.9011 37.9922 58.182 38.0233 58.4473 38.0233C59.9613 38.0233 61.1787 37.2474 62.1151 35.6956C62.9267 34.3611 63.3325 32.9025 63.3325 31.3042C63.3481 30.0938 63.0828 29.0852 62.5834 28.2473ZM59.4306 34.8422C60.0081 34.3301 60.3983 33.5698 60.6168 32.5456C60.6948 32.1887 60.726 31.8008 60.726 31.3973C60.726 30.9473 60.6324 30.4663 60.4451 29.9852C60.211 29.38 59.8988 29.0542 59.5242 28.9766C58.9624 28.868 58.4161 29.1783 57.9011 29.9387C57.4797 30.5283 57.2143 31.149 57.0739 31.7852C56.9958 32.1421 56.9646 32.5301 56.9646 32.918C56.9646 33.368 57.0582 33.8491 57.2455 34.3301C57.4797 34.9353 57.7918 35.2612 58.1664 35.3388C58.5566 35.4163 58.978 35.2456 59.4306 34.8422ZM52.813 28.2473C52.2511 27.2697 51.4083 26.68 50.3158 26.4472C50.0192 26.3852 49.7383 26.3541 49.4729 26.3541C47.9746 26.3541 46.7572 27.13 45.8052 28.6817C44.9936 30.0007 44.5878 31.4594 44.5878 33.0577C44.5878 34.2525 44.8375 35.2767 45.3369 36.1301C45.8988 37.1077 46.726 37.6974 47.8341 37.9302C48.1307 37.9922 48.4116 38.0233 48.677 38.0233C50.1909 38.0233 51.4083 37.2474 52.3447 35.6956C53.1563 34.3611 53.5621 32.9025 53.5621 31.3042C53.5621 30.0938 53.3124 29.0852 52.813 28.2473ZM49.6447 34.8422C50.2222 34.3301 50.6124 33.5698 50.8309 32.5456C50.9089 32.1887 50.9557 31.8008 50.9401 31.3973C50.9401 30.9473 50.8465 30.4663 50.6592 29.9852C50.4251 29.38 50.1129 29.0542 49.7384 28.9766C49.1765 28.868 48.6302 29.1783 48.1152 29.9387C47.6938 30.5283 47.4284 31.149 47.288 31.7852C47.2099 32.1421 47.1787 32.5301 47.1787 32.918C47.1787 33.368 47.2724 33.8491 47.4596 34.3301C47.6938 34.9353 48.0059 35.2612 48.3805 35.3388C48.7707 35.4163 49.1921 35.2456 49.6447 34.8422Z" fill="white"/>
<defs>
<filter id="filter0_d" x="13.1016" y="9.88693" width="65.9037" height="50.846" filterUnits="userSpaceOnUse" color-interpolation-filters="sRGB">
<feFlood flood-opacity="0" result="BackgroundImageFix"/>
<feColorMatrix in="SourceAlpha" type="matrix" values="0 0 0 0 0 0 0 0 0 0 0 0 0 0 0 0 0 0 127 0" result="hardAlpha"/>
<feOffset dy="2"/>
<feGaussianBlur stdDeviation="7"/>
<feColorMatrix type="matrix" values="0 0 0 0 0.607843 0 0 0 0 0.360784 0 0 0 0 0.560784 0 0 0 0.243608 0"/>
<feBlend mode="normal" in2="BackgroundImageFix" result="effect1_dropShadow"/>
<feBlend mode="normal" in="SourceGraphic" in2="effect1_dropShadow" result="shape"/>
</filter>
<filter id="filter1_d" x="13.1016" y="9.88693" width="65.9037" height="50.846" filterUnits="userSpaceOnUse" color-interpolation-filters="sRGB">
<feFlood flood-opacity="0" result="BackgroundImageFix"/>
<feColorMatrix in="SourceAlpha" type="matrix" values="0 0 0 0 0 0 0 0 0 0 0 0 0 0 0 0 0 0 127 0" result="hardAlpha"/>
<feOffset dy="2"/>
<feGaussianBlur stdDeviation="7"/>
<feColorMatrix type="matrix" values="0 0 0 0 0.607843 0 0 0 0 0.360784 0 0 0 0 0.560784 0 0 0 0.243608 0"/>
<feBlend mode="normal" in2="BackgroundImageFix" result="effect1_dropShadow"/>
<feBlend mode="normal" in="SourceGraphic" in2="effect1_dropShadow" result="shape"/>
</filter>
</defs>
</svg>
