<svg height="36" viewBox="0 0 40 36" width="40" xmlns="http://www.w3.org/2000/svg"><path d="m39.8811091 20.1650684-2.0980667-6.2744979c-.0111219-.0577766-.0281191-.1143335-.0507406-.168836l-4.2091135-12.61101705c-.2300099-.66739527-.8745248-1.11541904-1.5977403-1.11064239-.7216907-.00425935-1.3619479.44985291-1.57886 1.11983075l-4.012051 12.01721959h-12.6627408l-4.017951-12.01721959c-.2161361-.66753991-.85269924-1.12106584-1.57177996-1.11983075h-.00944012c-.7238292.00012257-1.36599645.45200396-1.59302023 1.12097929l-4.2126535 12.62594815c0 .0114854-.00944012.0206738-.01298017.0321592l-2.13582712 6.3870552c-.32198305.9610157.0292664 2.0144938.86967105 2.6083442l18.45307435 13.0509096c.3332762.2348073.7844094.232484 1.1151142-.0057427l18.4566144-13.0451669c.8407994-.5940951 1.1916879-1.6483847.868491-2.6094927zm-27.5828503-5.1833807 5.1436853 15.4088711-12.3476768-15.4088711zm10.2661304 15.4123167 4.9324626-14.7725775.2124027-.6397392h7.2098916l-11.1712019 13.9295459zm9.3775791-28.0910979 3.6143859 10.8342189h-7.2346719zm-6.219859 12.6718899-3.5837055 10.7342956-2.1381872 6.3927979-5.7136326-17.1270935zm-17.65774428-12.6718899 3.62146598 10.8342189h-7.22995181zm-5.96615577 18.9854382c-.17858271-.1264118-.25295634-.3505427-.18408234-.5547469l1.58594014-4.7434882 11.63140775 14.5141551zm35.80519475 0-13.0344456 9.2124743.0436606-.0551301 11.5877471-14.4555793 1.5859402 4.7411911c.0696974.204296-.0042402.4290149-.1829023.5558955z" fill="#fff" opacity=".917876"/></svg>