<svg width="28" height="24" viewBox="0 0 28 24" fill="none" xmlns="http://www.w3.org/2000/svg">
<path d="M0.666992 2.00001C0.666992 1.55798 0.842587 1.13406 1.15515 0.821499C1.46771 0.508939 1.89163 0.333344 2.33366 0.333344H25.667C26.109 0.333344 26.5329 0.508939 26.8455 0.821499C27.1581 1.13406 27.3337 1.55798 27.3337 2.00001C27.3337 2.44204 27.1581 2.86596 26.8455 3.17852C26.5329 3.49108 26.109 3.66668 25.667 3.66668H2.33366C1.89163 3.66668 1.46771 3.49108 1.15515 3.17852C0.842587 2.86596 0.666992 2.44204 0.666992 2.00001ZM0.666992 22C0.666992 21.558 0.842587 21.1341 1.15515 20.8215C1.46771 20.5089 1.89163 20.3333 2.33366 20.3333H25.667C26.109 20.3333 26.5329 20.5089 26.8455 20.8215C27.1581 21.1341 27.3337 21.558 27.3337 22C27.3337 22.442 27.1581 22.866 26.8455 23.1785C26.5329 23.4911 26.109 23.6667 25.667 23.6667H2.33366C1.89163 23.6667 1.46771 23.4911 1.15515 23.1785C0.842587 22.866 0.666992 22.442 0.666992 22ZM12.3337 10.3333C11.8916 10.3333 11.4677 10.5089 11.1551 10.8215C10.8426 11.1341 10.667 11.558 10.667 12C10.667 12.442 10.8426 12.866 11.1551 13.1785C11.4677 13.4911 11.8916 13.6667 12.3337 13.6667H25.667C26.109 13.6667 26.5329 13.4911 26.8455 13.1785C27.1581 12.866 27.3337 12.442 27.3337 12C27.3337 11.558 27.1581 11.1341 26.8455 10.8215C26.5329 10.5089 26.109 10.3333 25.667 10.3333H12.3337Z" fill="#575757"/>
</svg>
