<svg width="32" height="32" viewBox="0 0 32 32" fill="none" xmlns="http://www.w3.org/2000/svg">
<path d="M28 7.42308C27.1 7.90769 26.2 8.06923 25.15 8.23077C26.2 7.58462 26.95 6.61538 27.25 5.32308C26.35 5.96923 25.3 6.29231 24.1 6.61538C23.2 5.64615 21.85 5 20.5 5C17.35 5 14.95 8.23077 15.7 11.4615C11.65 11.3 8.05 9.2 5.5 5.96923C4.15 8.39231 4.9 11.4615 7 13.0769C6.25 13.0769 5.5 12.7538 4.75 12.4308C4.75 14.8538 6.4 17.1154 8.65 17.7615C7.9 17.9231 7.15 18.0846 6.4 17.9231C7 20.0231 8.8 21.6385 11.05 21.6385C9.25 23.0923 6.55 23.9 4 23.5769C6.25 25.0308 8.8 26 11.5 26C20.65 26 25.75 17.7615 25.45 10.1692C26.5 9.52308 27.4 8.55385 28 7.42308Z" fill="#009CB7"/>
</svg>
