<svg width="48" height="49" viewBox="0 0 48 49" fill="none" xmlns="http://www.w3.org/2000/svg">
<rect y="0.646484" width="48" height="48" rx="9" fill="#417BD2"/>
<path fill-rule="evenodd" clip-rule="evenodd" d="M15.1233 19.5186C16.8945 16.4588 20.2051 14.3965 24 14.3965C28.7459 14.3965 32.7366 17.6208 33.9044 21.9987C36.9435 22.5434 39.25 25.2006 39.25 28.3965C39.25 31.9863 36.3398 34.8965 32.75 34.8965H16.5C12.2198 34.8965 8.75 31.4267 8.75 27.1465C8.75 23.336 11.4993 20.1687 15.1233 19.5186ZM24 17.3965C21.1057 17.3965 18.6046 19.0924 17.4416 21.5513C17.2087 22.0438 16.7272 22.3712 16.1836 22.4068C13.7085 22.5688 11.75 24.6295 11.75 27.1465C11.75 29.7698 13.8766 31.8965 16.5 31.8965H32.75C34.683 31.8965 36.25 30.3295 36.25 28.3965C36.25 26.4635 34.683 24.8965 32.75 24.8965C32.7293 24.8965 32.7085 24.8967 32.6875 24.897C31.9313 24.9102 31.2836 24.3582 31.1766 23.6095C30.6745 20.0972 27.6513 17.3965 24 17.3965Z" fill="white"/>
<path fill-rule="evenodd" clip-rule="evenodd" d="M24 20.6465C24.8284 20.6465 25.5 21.3181 25.5 22.1465V29.6465C25.5 30.4749 24.8284 31.1465 24 31.1465C23.1716 31.1465 22.5 30.4749 22.5 29.6465V22.1465C22.5 21.3181 23.1716 20.6465 24 20.6465Z" fill="white"/>
<path fill-rule="evenodd" clip-rule="evenodd" d="M18.75 25.8965C18.75 25.0681 19.4216 24.3965 20.25 24.3965L27.75 24.3965C28.5784 24.3965 29.25 25.0681 29.25 25.8965C29.25 26.7249 28.5784 27.3965 27.75 27.3965L20.25 27.3965C19.4216 27.3965 18.75 26.7249 18.75 25.8965Z" fill="white"/>
</svg>
