<svg width="31" height="31" viewBox="0 0 31 31" fill="none" xmlns="http://www.w3.org/2000/svg">
<path d="M30.3236 15.1618C30.3236 23.5354 23.5354 30.3236 15.1618 30.3236C6.78817 30.3236 0 23.5354 0 15.1618C0 6.78817 6.78817 0 15.1618 0C23.5354 0 30.3236 6.78817 30.3236 15.1618Z" fill="#5CD9C1"/>
<path fill-rule="evenodd" clip-rule="evenodd" d="M21.8222 10.7051C22.3838 11.2884 22.3662 12.2165 21.7829 12.778L14.4231 19.8639C13.8554 20.4105 12.9572 20.4105 12.3895 19.8639L8.75392 16.3636C8.17065 15.8021 8.15305 14.874 8.71462 14.2907C9.27619 13.7074 10.2043 13.6898 10.7875 14.2514L13.4063 16.7727L19.7493 10.6658C20.3325 10.1042 21.2606 10.1218 21.8222 10.7051Z" fill="#FAFDFF"/>
</svg>
