<svg fill="none" height="49" viewBox="0 0 48 49" width="48" xmlns="http://www.w3.org/2000/svg"><rect fill="#417bd2" height="48" rx="9" width="48" y=".646484"/><g clip-rule="evenodd" fill="#fff" fill-rule="evenodd"><path d="m12.5 19.6465c0-.8284.6716-1.5 1.5-1.5h20c.8284 0 1.5.6716 1.5 1.5s-.6716 1.5-1.5 1.5h-20c-.8284 0-1.5-.6716-1.5-1.5z"/><path d="m12.5 15.8965c0-1.5188 1.2312-2.75 2.75-2.75h17.5c1.5188 0 2.75 1.2312 2.75 2.75v17.5c0 1.5188-1.2312 2.75-2.75 2.75h-17.5c-1.5188 0-2.75-1.2312-2.75-2.75zm3 .25v17h17v-17z"/><path d="m19.375 27.1465c0-.8284.6716-1.5 1.5-1.5h6.25c.8284 0 1.5.6716 1.5 1.5s-.6716 1.5-1.5 1.5h-6.25c-.8284 0-1.5-.6716-1.5-1.5z"/><path d="m24 22.5215c.8284 0 1.5.6716 1.5 1.5v6.25c0 .8284-.6716 1.5-1.5 1.5s-1.5-.6716-1.5-1.5v-6.25c0-.8284.6716-1.5 1.5-1.5z"/><path d="m29 10.6465c.8284 0 1.5.6716 1.5 1.5v2.5c0 .8284-.6716 1.5-1.5 1.5s-1.5-.6716-1.5-1.5v-2.5c0-.8284.6716-1.5 1.5-1.5z"/><path d="m19 10.6465c.8284 0 1.5.6716 1.5 1.5v2.5c0 .8284-.6716 1.5-1.5 1.5s-1.5-.6716-1.5-1.5v-2.5c0-.8284.6716-1.5 1.5-1.5z"/></g></svg>