<svg width="16" height="16" viewBox="0 0 16 16" fill="none" xmlns="http://www.w3.org/2000/svg">
<path fill-rule="evenodd" clip-rule="evenodd" d="M4.66732 4.66667C4.66732 4.50293 4.81738 4.17523 5.47037 3.84874C6.08348 3.54218 6.97714 3.33333 8.00065 3.33333C9.02416 3.33333 9.91782 3.54218 10.5309 3.84874C11.1839 4.17523 11.334 4.50293 11.334 4.66667C11.334 4.66684 11.334 4.667 11.334 4.66717C11.3337 4.83107 11.1833 5.15844 10.5309 5.4846C9.91782 5.79115 9.02416 6 8.00065 6C6.97714 6 6.08348 5.79115 5.47037 5.4846C4.81738 5.1581 4.66732 4.8304 4.66732 4.66667ZM4.66732 6.56669C4.73555 6.60561 4.80463 6.64244 4.87408 6.67717C5.70868 7.09447 6.81503 7.33333 8.00065 7.33333C9.18628 7.33333 10.2926 7.09447 11.1272 6.67717C11.1967 6.64244 11.2657 6.60561 11.334 6.56669V8V8.00036C11.3338 8.16421 11.1834 8.49167 10.5309 8.81793C9.91782 9.12448 9.02416 9.33333 8.00065 9.33333C6.97714 9.33333 6.08348 9.12448 5.47037 8.81793C4.81791 8.4917 4.66756 8.16427 4.66732 8.0004L4.66732 8V6.56669ZM12.6673 4.66851V7.99919L12.6673 8V8.0013V11.3333L12.6673 11.3355C12.6662 12.2752 11.9213 12.9468 11.1272 13.3438C10.2926 13.7611 9.18628 14 8.00065 14C6.81503 14 5.70868 13.7611 4.87408 13.3438C4.07935 12.9465 3.33398 12.2742 3.33398 11.3333V8V4.66667C3.33398 3.72583 4.07935 3.05353 4.87408 2.65617C5.70868 2.23887 6.81503 2 8.00065 2C9.18628 2 10.2926 2.23887 11.1272 2.65617C11.9219 3.05353 12.6673 3.72583 12.6673 4.66667C12.6673 4.66728 12.6673 4.6679 12.6673 4.66851ZM11.1272 10.0105C11.1967 9.97577 11.2657 9.93895 11.334 9.90002V11.3333C11.334 11.4971 11.1839 11.8248 10.5309 12.1513C9.91782 12.4578 9.02416 12.6667 8.00065 12.6667C6.97714 12.6667 6.08348 12.4578 5.47037 12.1513C4.81738 11.8248 4.66732 11.4971 4.66732 11.3333L4.66732 9.90002C4.73555 9.93895 4.80463 9.97577 4.87408 10.0105C5.70868 10.4278 6.81503 10.6667 8.00065 10.6667C9.18628 10.6667 10.2926 10.4278 11.1272 10.0105Z" fill="#45B4C8"/>
</svg>
