<svg width="24" height="29" viewBox="0 0 24 29" fill="none" xmlns="http://www.w3.org/2000/svg">
<g opacity="0.1">
<path d="M0.382812 16.6489V2.83279C0.382812 1.66578 1.30713 0.719727 2.44733 0.719727H11.9957H21.5441C22.6843 0.719727 23.6086 1.66578 23.6086 2.83279V16.6489C23.6086 19.3849 22.2296 21.9274 19.9608 23.3742L13.0875 27.7575C12.4192 28.1836 11.5722 28.1836 10.904 27.7575L4.03067 23.3742C1.76185 21.9274 0.382812 19.3849 0.382812 16.6489Z" fill="#0B47A2"/>
<path fill-rule="evenodd" clip-rule="evenodd" d="M12 28.0771V0.719727H21.5441C22.6843 0.719727 23.6086 1.66578 23.6086 2.83279V16.6489C23.6086 19.3849 22.2296 21.9274 19.9608 23.3742L13.0875 27.7575C12.7546 27.9697 12.3774 28.0763 12 28.0771Z" fill="#013685"/>
<path fill-rule="evenodd" clip-rule="evenodd" d="M2.45161 1.11186C1.5252 1.11186 0.774194 1.87639 0.774194 2.81947V16.5611C0.774194 19.1463 2.08428 21.5487 4.23966 22.9158L11.113 27.2754C11.6559 27.6198 12.3441 27.6198 12.887 27.2754L19.7603 22.9158C21.9157 21.5487 23.2258 19.1463 23.2258 16.5611V2.81948C23.2258 1.87639 22.4748 1.11186 21.5484 1.11186H2.45161ZM0 2.81947C0 1.44111 1.09762 0.32373 2.45161 0.32373H21.5484C22.9024 0.32373 24 1.44112 24 2.81948V16.5611C24 19.4185 22.552 22.0737 20.1698 23.5847L13.2965 27.9443C12.5029 28.4477 11.4971 28.4477 10.7035 27.9443L3.83025 23.5847C1.44799 22.0737 0 19.4185 0 16.5611V2.81947Z" fill="#0B47A2"/>
<path fill-rule="evenodd" clip-rule="evenodd" d="M6.60574 12.7439C6.60574 10.0175 8.54302 7.75423 11.0855 7.31749L12.1736 8.45547L10.7571 9.93689C9.70993 10.4174 8.98047 11.4936 8.98047 12.7442C8.98047 14.2419 10.0266 15.4895 11.4118 15.7633L10.7049 16.5026C10.5094 16.707 10.5094 17.0339 10.7049 17.2384L11.6594 18.2366C8.84038 18.066 6.60574 15.672 6.60574 12.7439ZM13.0106 18.1457C15.4876 17.6545 17.3579 15.4227 17.3579 12.7439C17.3579 9.87419 15.2116 7.51759 12.4724 7.26396L13.2599 8.08755C13.4554 8.29202 13.4554 8.61893 13.2599 8.8234L12.4204 9.70139C13.8732 9.91739 14.989 11.1974 14.989 12.7442C14.989 14.096 14.1368 15.2441 12.9523 15.6562L11.7912 16.8705L13.0106 18.1457ZM11.9818 5.86572C8.27042 5.86572 5.26172 8.94517 5.26172 12.7439C5.26172 16.5426 8.27042 19.622 11.9818 19.622C15.6933 19.622 18.702 16.5426 18.702 12.7439C18.702 8.94517 15.6933 5.86572 11.9818 5.86572ZM10.3245 12.7442C10.3245 11.8057 11.0678 11.0449 11.9848 11.0449C12.9017 11.0449 13.645 11.8057 13.645 12.7442C13.645 13.6827 12.9017 14.4435 11.9848 14.4435C11.0678 14.4435 10.3245 13.6827 10.3245 12.7442Z" fill="white"/>
</g>
</svg>
