<svg width="24" height="28" viewBox="0 0 24 28" fill="none" xmlns="http://www.w3.org/2000/svg">
<path d="M0.382812 16.3251V2.50906C0.382812 1.34205 1.30713 0.395996 2.44733 0.395996H11.9957H21.5441C22.6843 0.395996 23.6086 1.34205 23.6086 2.50906V16.3251C23.6086 19.0612 22.2296 21.6036 19.9608 23.0505L13.0875 27.4337C12.4192 27.8599 11.5722 27.8599 10.904 27.4337L4.03067 23.0505C1.76185 21.6036 0.382812 19.0612 0.382812 16.3251Z" fill="#0B47A2"/>
<path fill-rule="evenodd" clip-rule="evenodd" d="M12 27.7534V0.395996H21.5441C22.6843 0.395996 23.6086 1.34205 23.6086 2.50906V16.3251C23.6086 19.0612 22.2296 21.6036 19.9608 23.0505L13.0875 27.4337C12.7546 27.646 12.3774 27.7526 12 27.7534Z" fill="#013685"/>
<path fill-rule="evenodd" clip-rule="evenodd" d="M2.45161 0.78813C1.5252 0.78813 0.774194 1.55265 0.774194 2.49574V16.2374C0.774194 18.8226 2.08428 21.2249 4.23966 22.5921L11.113 26.9517C11.6559 27.2961 12.3441 27.2961 12.887 26.9517L19.7603 22.5921C21.9157 21.2249 23.2258 18.8226 23.2258 16.2374V2.49575C23.2258 1.55266 22.4748 0.78813 21.5484 0.78813H2.45161ZM0 2.49574C0 1.11738 1.09762 0 2.45161 0H21.5484C22.9024 0 24 1.11739 24 2.49575V16.2374C24 19.0947 22.552 21.7499 20.1698 23.261L13.2965 27.6206C12.5029 28.1239 11.4971 28.1239 10.7035 27.6206L3.83025 23.261C1.44799 21.7499 0 19.0947 0 16.2374V2.49574Z" fill="#0B47A2"/>
<path fill-rule="evenodd" clip-rule="evenodd" d="M6.60574 12.4201C6.60574 9.69376 8.54302 7.43049 11.0855 6.99376L12.1736 8.13174L10.7571 9.61316C9.70993 10.0936 8.98047 11.1699 8.98047 12.4205C8.98047 13.9182 10.0266 15.1658 11.4118 15.4396L10.7049 16.1788C10.5094 16.3833 10.5094 16.7102 10.7049 16.9147L11.6594 17.9129C8.84038 17.7422 6.60574 15.3483 6.60574 12.4201ZM13.0106 17.822C15.4876 17.3307 17.3579 15.099 17.3579 12.4201C17.3579 9.55046 15.2116 7.19386 12.4724 6.94023L13.2599 7.76382C13.4554 7.96829 13.4554 8.2952 13.2599 8.49967L12.4204 9.37766C13.8732 9.59366 14.989 10.8737 14.989 12.4205C14.989 13.7723 14.1368 14.9203 12.9523 15.3325L11.7912 16.5468L13.0106 17.822ZM11.9818 5.54199C8.27042 5.54199 5.26172 8.62144 5.26172 12.4201C5.26172 16.2188 8.27042 19.2983 11.9818 19.2983C15.6933 19.2983 18.702 16.2188 18.702 12.4201C18.702 8.62144 15.6933 5.54199 11.9818 5.54199ZM10.3245 12.4205C10.3245 11.482 11.0678 10.7212 11.9848 10.7212C12.9017 10.7212 13.645 11.482 13.645 12.4205C13.645 13.359 12.9017 14.1198 11.9848 14.1198C11.0678 14.1198 10.3245 13.359 10.3245 12.4205Z" fill="white"/>
</svg>
