<svg width="24" height="29" viewBox="0 0 24 29" fill="none" xmlns="http://www.w3.org/2000/svg">
<g opacity="0.1">
<path d="M0.382812 16.6499V2.83293C0.382812 1.66584 1.30713 0.719727 2.44733 0.719727H11.9957H21.5441C22.6843 0.719727 23.6086 1.66584 23.6086 2.83294V16.65C23.6086 19.3862 22.2296 21.9288 19.9608 23.3758L13.0875 27.7593C12.4192 28.1855 11.5722 28.1855 10.904 27.7593L4.03067 23.3758C1.76185 21.9288 0.382812 19.3862 0.382812 16.6499Z" fill="#D9FCFF"/>
<path fill-rule="evenodd" clip-rule="evenodd" d="M12 28.0789V0.719727H21.5441C22.6843 0.719727 23.6086 1.66584 23.6086 2.83294V16.65C23.6086 19.3862 22.2296 21.9288 19.9608 23.3758L13.0875 27.7593C12.7546 27.9716 12.3774 28.0781 12 28.0789Z" fill="#BDF2F7"/>
<path fill-rule="evenodd" clip-rule="evenodd" d="M2.45161 1.11191C1.5252 1.11191 0.774194 1.87649 0.774194 2.81964V16.5622C0.774194 19.1476 2.08428 21.5501 4.23966 22.9173L11.113 27.2772C11.6559 27.6217 12.3441 27.6217 12.887 27.2772L19.7603 22.9173C21.9157 21.5501 23.2258 19.1476 23.2258 16.5622V2.81965C23.2258 1.87649 22.4748 1.11191 21.5484 1.11191H2.45161ZM0 2.81964C0 1.44119 1.09762 0.32373 2.45161 0.32373H21.5484C22.9024 0.32373 24 1.44119 24 2.81965V16.5622C24 19.4198 22.552 22.0752 20.1698 23.5863L13.2965 27.9462C12.5029 28.4496 11.4971 28.4496 10.7035 27.9462L3.83025 23.5863C1.44799 22.0752 0 19.4198 0 16.5622V2.81964Z" fill="#BDF2F7"/>
<path fill-rule="evenodd" clip-rule="evenodd" d="M16.9886 5.87061C16.5372 5.87061 16.1712 6.24524 16.1712 6.70738V8.08395C15.5589 7.56761 14.8546 7.16883 14.0915 6.91277C12.7886 6.4756 11.3832 6.47749 10.0815 6.91814C8.77978 7.35879 7.65037 8.215 6.85908 9.36106C6.06778 10.5071 5.65629 11.8827 5.685 13.2857C5.71371 14.6888 6.18112 16.0455 7.01861 17.1567C7.8561 18.2678 9.01954 19.0749 10.3381 19.4593C11.6567 19.8438 13.061 19.7854 14.3448 19.2928C15.6286 18.8002 16.7243 17.8993 17.471 16.7223C17.7169 16.3347 17.6093 15.8165 17.2307 15.5648C16.852 15.3131 16.3457 15.4232 16.0998 15.8108C15.5436 16.6876 14.7273 17.3588 13.7709 17.7258C12.8145 18.0927 11.7684 18.1362 10.7861 17.8498C9.80374 17.5634 8.93702 16.9622 8.31312 16.1344C7.68922 15.3066 7.34101 14.2959 7.31962 13.2507C7.29823 12.2055 7.60478 11.1807 8.19427 10.3269C8.78376 9.47316 9.62513 8.83531 10.5949 8.50704C11.5646 8.17877 12.6116 8.17737 13.5822 8.50304C14.1863 8.70575 14.741 9.02854 15.2164 9.44891H13.4928C13.0413 9.44891 12.6753 9.82354 12.6753 10.2857C12.6753 10.7478 13.0413 11.1224 13.4928 11.1224H16.9886C17.4401 11.1224 17.8061 10.7478 17.8061 10.2857V6.70738C17.8061 6.24524 17.4401 5.87061 16.9886 5.87061Z" fill="#009CB7"/>
</g>
</svg>
