<svg width="65" height="65" viewBox="0 0 65 65" fill="none" xmlns="http://www.w3.org/2000/svg">
<rect width="65" height="65" rx="20" transform="matrix(-1 0 0 1 65 0)" fill="url(#paint0_linear_2358_8453)"/>
<path fill-rule="evenodd" clip-rule="evenodd" d="M44.1667 19.3748C44.1667 18.5694 43.5137 17.9165 42.7083 17.9165C41.9029 17.9165 41.25 18.5694 41.25 19.3748V22.717C39.9063 21.5152 38.3214 20.596 36.5885 20.0279C33.9212 19.1535 31.0439 19.1573 28.3789 20.0386C25.7139 20.92 23.4016 22.6325 21.7816 24.9248C20.1616 27.2171 19.3191 29.9684 19.3779 32.7747C19.4367 35.5811 20.3936 38.2946 22.1082 40.5171C23.8228 42.7395 26.2047 44.3537 28.9043 45.1227C31.6039 45.8917 34.4789 45.775 37.1072 44.7896C39.7355 43.8043 41.9788 42.0023 43.5076 39.6482C43.9462 38.9727 43.7542 38.0696 43.0788 37.6309C42.4033 37.1922 41.5001 37.3842 41.0614 38.0597C39.8724 39.8907 38.1276 41.2922 36.0834 42.0586C34.0391 42.8249 31.803 42.9157 29.7033 42.3176C27.6037 41.7195 25.7511 40.464 24.4175 38.7355C23.0839 37.0069 22.3396 34.8963 22.2939 32.7136C22.2482 30.5309 22.9034 28.391 24.1635 26.6081C25.4235 24.8253 27.2219 23.4933 29.2947 22.8078C31.3674 22.1223 33.6054 22.1193 35.68 22.7994C37.1764 23.29 38.531 24.1173 39.6444 25.2082H35.4167C34.6113 25.2082 33.9583 25.8611 33.9583 26.6665C33.9583 27.4719 34.6113 28.1248 35.4167 28.1248H42.7083C43.5137 28.1248 44.1667 27.4719 44.1667 26.6665V19.3748Z" fill="white"/>
<defs>
<linearGradient id="paint0_linear_2358_8453" x1="32.5" y1="0" x2="32.5" y2="65" gradientUnits="userSpaceOnUse">
<stop stop-color="#30DFB5"/>
<stop offset="1" stop-color="#0AB9A4"/>
</linearGradient>
</defs>
</svg>
