<svg width="100" height="100" viewBox="0 0 100 100" fill="none" xmlns="http://www.w3.org/2000/svg">
<rect width="100" height="100" rx="31" transform="matrix(-1 0 0 1 100 0)" fill="#417BD2"/>
<path fill-rule="evenodd" clip-rule="evenodd" d="M32.7087 25.0703C34.1972 25.0703 35.4038 26.2769 35.4038 27.7654V32.9319C36.6593 31.8582 38.0351 30.9213 39.5093 30.1424C43.2245 28.1794 47.4159 27.2981 51.607 27.5985C55.7982 27.8989 59.821 29.3691 63.2183 31.8419C66.6155 34.3147 69.2509 37.6909 70.825 41.5868C71.3826 42.9669 70.7158 44.5377 69.3357 45.0953C67.9557 45.6528 66.3849 44.9861 65.8273 43.606C64.631 40.6451 62.6281 38.0792 60.0462 36.1999C57.4643 34.3205 54.4069 33.2032 51.2217 32.9749C48.0364 32.7466 44.8509 33.4164 42.0274 34.9083C40.7299 35.5938 39.5327 36.4403 38.4618 37.4228H45.0612C46.5497 37.4228 47.7563 38.6294 47.7563 40.1179C47.7563 41.6064 46.5497 42.813 45.0612 42.813H32.7087C31.2203 42.813 30.0136 41.6064 30.0136 40.1179V27.7654C30.0136 26.2769 31.2203 25.0703 32.7087 25.0703ZM34.1766 56.394C33.619 55.0139 32.0482 54.3472 30.6681 54.9047C29.2881 55.4623 28.6213 57.0331 29.1789 58.4132C30.753 62.3091 33.3884 65.6853 36.7856 68.1581C40.1829 70.6309 44.2057 72.1011 48.3968 72.4015C52.588 72.7019 56.7794 71.8206 60.4946 69.8576C61.9691 69.0785 63.3451 68.1415 64.6007 67.0676V72.2347C64.6007 73.7231 65.8073 74.9297 67.2958 74.9297C68.7842 74.9297 69.9909 73.7231 69.9909 72.2347V59.8821C69.9909 58.3937 68.7842 57.1871 67.2958 57.1871H54.9433C53.4548 57.1871 52.2482 58.3937 52.2482 59.8821C52.2482 61.3706 53.4548 62.5772 54.9433 62.5772H61.542C60.4711 63.5598 59.274 64.4062 57.9765 65.0917C55.1529 66.5836 51.9675 67.2534 48.7822 67.0251C45.597 66.7968 42.5396 65.6795 39.9577 63.8001C37.3758 61.9208 35.3729 59.3549 34.1766 56.394Z" fill="white"/>
</svg>
