<svg width="40" height="40" viewBox="0 0 40 40" fill="none" xmlns="http://www.w3.org/2000/svg">
<path fill-rule="evenodd" clip-rule="evenodd" d="M3.33203 8.33333C3.33203 6.49238 4.82442 5 6.66536 5H33.332C35.173 5 36.6654 6.49238 36.6654 8.33333V31.6667C36.6654 33.5076 35.173 35 33.332 35H6.66537C4.82442 35 3.33203 33.5076 3.33203 31.6667V8.33333ZM33.332 8.33333H6.66536V31.6667H33.332V8.33333Z" fill="#45B4C8"/>
<path fill-rule="evenodd" clip-rule="evenodd" d="M14.9987 11.6665C15.9192 11.6665 16.6654 12.4127 16.6654 13.3332C16.6654 15.1741 18.1577 16.6665 19.9987 16.6665C21.8396 16.6665 23.332 15.1741 23.332 13.3332C23.332 12.4127 24.0782 11.6665 24.9987 11.6665C25.9192 11.6665 26.6654 12.4127 26.6654 13.3332C26.6654 17.0151 23.6806 19.9998 19.9987 19.9998C16.3168 19.9998 13.332 17.0151 13.332 13.3332C13.332 12.4127 14.0782 11.6665 14.9987 11.6665Z" fill="#45B4C8"/>
</svg>
