<svg width="32" height="32" viewBox="0 0 32 32" fill="none" xmlns="http://www.w3.org/2000/svg">
<path fill-rule="evenodd" clip-rule="evenodd" d="M16 5.3335C12.0066 5.3335 8.52816 7.52798 6.70062 10.772C2.89979 11.3932 0 14.6909 0 18.6668C0 23.0851 3.58172 26.6668 8 26.6668H25.3333C29.0152 26.6668 32 23.6821 32 20.0002C32 16.6639 29.5493 13.9 26.3498 13.4105C25.1922 8.77054 20.9985 5.3335 16 5.3335ZM8.76334 12.5846C10.0462 9.8721 12.8058 8.00016 16 8.00016C20.0294 8.00016 23.365 10.9803 23.919 14.8563C24.0142 15.5219 24.5899 16.0125 25.2621 16.0008C25.286 16.0004 25.3097 16.0002 25.3333 16.0002C27.5425 16.0002 29.3333 17.791 29.3333 20.0002C29.3333 22.2093 27.5425 24.0002 25.3333 24.0002H8C5.05448 24.0002 2.66667 21.6123 2.66667 18.6668C2.66667 15.8406 4.86569 13.527 7.64509 13.3451C8.12827 13.3134 8.55632 13.0224 8.76334 12.5846ZM20.9428 15.6096C21.4635 15.0889 21.4635 14.2447 20.9428 13.724C20.4221 13.2033 19.5779 13.2033 19.0572 13.724L14.6667 18.1145L12.9428 16.3907C12.4221 15.87 11.5779 15.87 11.0572 16.3907C10.5365 16.9114 10.5365 17.7556 11.0572 18.2763L13.7239 20.943C14.2446 21.4637 15.0888 21.4637 15.6095 20.943L20.9428 15.6096Z" fill="#417BD2"/>
</svg>
