<svg width="40" height="40" viewBox="0 0 40 40" fill="none" xmlns="http://www.w3.org/2000/svg">
<path fill-rule="evenodd" clip-rule="evenodd" d="M18.3322 2.3709C19.3635 1.77546 20.6342 1.77546 21.6655 2.3709L20.8322 3.81427L21.6655 2.3709L34.4326 9.74198C35.464 10.3374 36.0993 11.4378 36.0993 12.6287V27.3709C36.0993 28.5618 35.464 29.6622 34.4326 30.2576L21.6655 37.6287C20.6342 38.2242 19.3635 38.2242 18.3322 37.6287L5.5651 30.2576C4.53377 29.6622 3.89844 28.5618 3.89844 27.3709V12.6287C3.89844 11.4378 4.53377 10.3374 5.5651 9.74198L18.3322 2.3709ZM32.766 12.6287L19.9989 5.25765L7.23177 12.6287V27.3709L19.9989 34.742L32.766 27.3709V12.6287Z" fill="#45B4C8"/>
<path fill-rule="evenodd" clip-rule="evenodd" d="M19.9987 16.6668C18.1577 16.6668 16.6654 18.1592 16.6654 20.0002C16.6654 21.8411 18.1577 23.3335 19.9987 23.3335C21.8396 23.3335 23.332 21.8411 23.332 20.0002C23.332 18.1592 21.8396 16.6668 19.9987 16.6668ZM13.332 20.0002C13.332 16.3183 16.3168 13.3335 19.9987 13.3335C23.6806 13.3335 26.6654 16.3183 26.6654 20.0002C26.6654 23.6821 23.6806 26.6668 19.9987 26.6668C16.3168 26.6668 13.332 23.6821 13.332 20.0002Z" fill="#45B4C8"/>
</svg>
