<svg width="100" height="100" viewBox="0 0 100 100" fill="none" xmlns="http://www.w3.org/2000/svg">
<rect width="100" height="100" rx="31" transform="matrix(-1 0 0 1 100 0)" fill="#45B4C8"/>
<path fill-rule="evenodd" clip-rule="evenodd" d="M46.5971 26.2752C48.5447 24.571 51.4527 24.571 53.4002 26.2752L70.6937 41.407C71.8148 42.3879 72.4578 43.8049 72.4578 45.2945V66.408C72.4578 69.2608 70.1451 71.5736 67.2922 71.5736H32.7051C29.8523 71.5736 27.5396 69.2608 27.5396 66.408V45.2945C27.5396 43.8049 28.1826 42.3879 29.3036 41.407L46.5971 26.2752ZM49.8508 30.3317L49.851 30.3319L49.8508 30.3317ZM49.9987 30.4611L67.0676 45.3964V66.1834H32.9297V45.3964L49.9987 30.4611ZM32.8534 45.4632L32.853 45.4635L32.7051 45.2945L32.853 45.4635C32.8532 45.4634 32.8533 45.4633 32.8534 45.4632Z" fill="white"/>
<path fill-rule="evenodd" clip-rule="evenodd" d="M50.0005 41.4788C51.489 41.4788 52.6956 42.6854 52.6956 44.1739V58.9969C52.6956 60.4853 51.489 61.692 50.0005 61.692C48.5121 61.692 47.3054 60.4853 47.3054 58.9969V44.1739C47.3054 42.6854 48.5121 41.4788 50.0005 41.4788Z" fill="white"/>
<path fill-rule="evenodd" clip-rule="evenodd" d="M39.8938 51.5855C39.8938 50.097 41.1004 48.8904 42.5889 48.8904L57.4119 48.8904C58.9004 48.8904 60.107 50.097 60.107 51.5855C60.107 53.0739 58.9004 54.2806 57.4119 54.2806L42.5889 54.2806C41.1004 54.2806 39.8938 53.0739 39.8938 51.5855Z" fill="white"/>
</svg>
