<svg fill="none" height="28" viewBox="0 0 30 28" width="30" xmlns="http://www.w3.org/2000/svg" xmlns:xlink="http://www.w3.org/1999/xlink"><linearGradient id="a" gradientUnits="userSpaceOnUse" x1="22.1992" x2="12.0064" y1="6.3749" y2="21.1747"><stop offset=".18" stop-color="#0052cc"/><stop offset="1" stop-color="#2684ff"/></linearGradient><path clip-rule="evenodd" d="m.227164.581286c.180633-.2136.444676-.334843.721299-.331206l27.328237.004772c.2766-.003637.5407.117607.7213.331207s.2594.497691.2151.776071l-3.975 24.87557c-.0741.4668-.4725.8079-.9363.8018h-19.0694c-.61803-.0052-1.14316-.4621-1.24539-1.0834l-3.9749268-24.59874c-.0442864-.27838.0344472-.562473.2150808-.776074zm11.372036 17.448014h6.0865l1.4748-8.77709h-9.20931z" fill="#2684ff" fill-rule="evenodd"/><path d="m28.0067 9.38281h-9.0936l-1.526 8.71229h-6.2981l-7.43666 8.6318c.23571.1993.53623.3102.84783.3127h19.73733c.48.006.8921-.3325.9689-.7959z" fill="url(#a)"/></svg>