<svg width="462" height="333" viewBox="0 0 462 333" fill="none" xmlns="http://www.w3.org/2000/svg">
<g filter="url(#filter0_d)">
<rect x="14" y="12" width="430" height="300.542" rx="5" fill="#F3F8FB"/>
</g>
<g clip-path="url(#clip0)">
<g filter="url(#filter1_d)">
<rect x="30" y="59" width="143.45" height="124.739" rx="1.91906" fill="white"/>
<rect x="30.2399" y="59.2399" width="142.97" height="124.259" rx="1.67918" stroke="#EAEDF3" stroke-width="0.479765"/>
</g>
<g clip-path="url(#clip1)">
<path d="M139.313 107.63C138.74 107.63 138.187 107.535 137.654 107.344C137.13 107.152 136.686 106.882 136.32 106.533L136.719 105.747C137.118 106.088 137.53 106.346 137.954 106.52C138.378 106.687 138.823 106.77 139.288 106.77C139.92 106.77 140.399 106.628 140.723 106.346C141.056 106.063 141.222 105.647 141.222 105.098C141.222 104.549 141.051 104.142 140.71 103.876C140.37 103.601 139.858 103.464 139.176 103.464H138.153V102.603H138.977C139.634 102.603 140.137 102.458 140.486 102.167C140.835 101.876 141.01 101.46 141.01 100.919C141.01 100.437 140.864 100.067 140.573 99.8093C140.291 99.5515 139.887 99.4226 139.363 99.4226C138.923 99.4226 138.494 99.5099 138.078 99.6845C137.663 99.8509 137.251 100.104 136.844 100.445L136.457 99.6596C136.814 99.3186 137.255 99.0525 137.779 98.8613C138.303 98.6617 138.844 98.5619 139.401 98.5619C139.933 98.5619 140.399 98.6575 140.798 98.8488C141.197 99.0317 141.5 99.2937 141.708 99.6346C141.925 99.9756 142.033 100.379 142.033 100.845C142.033 101.393 141.887 101.863 141.596 102.254C141.313 102.637 140.923 102.899 140.424 103.04L140.386 102.915C140.985 103.04 141.442 103.294 141.758 103.676C142.074 104.059 142.232 104.545 142.232 105.136C142.232 105.909 141.97 106.52 141.446 106.969C140.923 107.41 140.212 107.63 139.313 107.63ZM146.606 98.5619C147.678 98.5619 148.506 98.9361 149.088 99.6845C149.67 100.425 149.961 101.489 149.961 102.878C149.961 103.884 149.824 104.745 149.55 105.46C149.283 106.167 148.893 106.707 148.377 107.082C147.87 107.456 147.254 107.643 146.531 107.643C146.024 107.643 145.525 107.551 145.034 107.368C144.552 107.177 144.123 106.903 143.749 106.545L144.148 105.759C144.572 106.117 144.976 106.379 145.358 106.545C145.741 106.703 146.128 106.782 146.518 106.782C147.283 106.782 147.874 106.445 148.29 105.772C148.714 105.09 148.926 104.129 148.926 102.89V101.818L149.088 102.142C149.022 102.574 148.868 102.949 148.626 103.265C148.385 103.572 148.082 103.813 147.716 103.988C147.35 104.154 146.947 104.238 146.506 104.238C145.965 104.238 145.487 104.121 145.071 103.888C144.656 103.647 144.331 103.314 144.098 102.89C143.866 102.466 143.749 101.976 143.749 101.418C143.749 100.87 143.87 100.379 144.111 99.9465C144.36 99.5141 144.701 99.1773 145.134 98.9361C145.566 98.6866 146.057 98.5619 146.606 98.5619ZM146.656 99.4226C146.082 99.4226 145.62 99.6055 145.271 99.9714C144.93 100.329 144.76 100.807 144.76 101.406C144.76 101.996 144.934 102.475 145.283 102.84C145.633 103.198 146.094 103.377 146.668 103.377C147.051 103.377 147.392 103.294 147.691 103.127C147.99 102.953 148.223 102.72 148.389 102.429C148.556 102.129 148.639 101.788 148.639 101.406C148.639 101.007 148.556 100.662 148.389 100.371C148.223 100.071 147.99 99.8384 147.691 99.6721C147.392 99.5058 147.046 99.4226 146.656 99.4226ZM154.36 107.643C153.345 107.643 152.572 107.26 152.039 106.495C151.516 105.722 151.254 104.591 151.254 103.102C151.254 101.614 151.516 100.487 152.039 99.722C152.563 98.9486 153.337 98.5619 154.36 98.5619C155.382 98.5619 156.156 98.9486 156.68 99.722C157.204 100.487 157.466 101.61 157.466 103.09C157.466 104.578 157.199 105.709 156.667 106.483C156.143 107.256 155.374 107.643 154.36 107.643ZM154.36 106.782C155.066 106.782 155.586 106.483 155.919 105.884C156.26 105.285 156.43 104.354 156.43 103.09C156.43 101.826 156.26 100.903 155.919 100.321C155.586 99.7303 155.066 99.4351 154.36 99.4351C153.653 99.4351 153.129 99.7303 152.788 100.321C152.455 100.911 152.289 101.834 152.289 103.09C152.289 104.354 152.455 105.285 152.788 105.884C153.129 106.483 153.653 106.782 154.36 106.782Z" fill="#3E3F42"/>
<path fill-rule="evenodd" clip-rule="evenodd" d="M139.387 129.046H158.098V129.525H139.387V129.046Z" fill="#1C3C55"/>
<path d="M145.169 118.78C144.958 118.78 144.76 118.762 144.576 118.728C144.392 118.69 144.221 118.632 144.064 118.555C143.906 118.475 143.764 118.377 143.638 118.262L143.816 117.899C144.023 118.072 144.231 118.194 144.438 118.267C144.649 118.34 144.895 118.377 145.175 118.377C145.501 118.377 145.754 118.313 145.935 118.187C146.115 118.056 146.205 117.874 146.205 117.64C146.205 117.498 146.159 117.385 146.067 117.3C145.979 117.212 145.856 117.143 145.699 117.093C145.545 117.039 145.371 116.989 145.175 116.943C144.979 116.901 144.793 116.853 144.616 116.799C144.44 116.742 144.282 116.671 144.144 116.586C144.01 116.502 143.904 116.394 143.828 116.264C143.751 116.133 143.712 115.97 143.712 115.774C143.712 115.54 143.774 115.335 143.897 115.158C144.02 114.978 144.192 114.838 144.415 114.738C144.637 114.638 144.9 114.588 145.204 114.588C145.392 114.588 145.572 114.61 145.745 114.652C145.917 114.69 146.077 114.748 146.223 114.825C146.372 114.901 146.505 114.995 146.62 115.107L146.436 115.469C146.248 115.304 146.054 115.183 145.854 115.107C145.655 115.03 145.438 114.991 145.204 114.991C144.885 114.991 144.636 115.059 144.455 115.193C144.275 115.327 144.185 115.515 144.185 115.757C144.185 115.907 144.225 116.028 144.305 116.12C144.386 116.212 144.499 116.287 144.645 116.344C144.791 116.398 144.958 116.448 145.146 116.494C145.346 116.54 145.537 116.59 145.722 116.644C145.906 116.698 146.069 116.765 146.211 116.845C146.357 116.922 146.472 117.024 146.557 117.15C146.641 117.273 146.683 117.431 146.683 117.623C146.683 117.857 146.622 118.06 146.499 118.233C146.376 118.405 146.201 118.54 145.975 118.636C145.749 118.732 145.48 118.78 145.169 118.78ZM147.455 118.734V114.635H150.046V115.026H147.921V116.454H149.93V116.851H147.921V118.342H150.046V118.734H147.455ZM150.839 118.734V114.635H151.202L153.816 118.118L153.678 118.152V114.635H154.127V118.734H153.758L151.15 115.256L151.283 115.216V118.734H150.839ZM156.125 118.734V115.038H154.697V114.635H158.031V115.038H156.603V118.734H156.125Z" fill="#9EA0A5"/>
<path d="M139.313 148.89C138.74 148.89 138.187 148.795 137.654 148.603C137.13 148.412 136.686 148.142 136.32 147.792L136.719 147.007C137.118 147.348 137.53 147.605 137.954 147.78C138.378 147.946 138.823 148.029 139.288 148.029C139.92 148.029 140.399 147.888 140.723 147.605C141.056 147.323 141.222 146.907 141.222 146.358C141.222 145.809 141.051 145.402 140.71 145.136C140.37 144.861 139.858 144.724 139.176 144.724H138.153V143.863H138.977C139.634 143.863 140.137 143.718 140.486 143.427C140.835 143.136 141.01 142.72 141.01 142.179C141.01 141.697 140.864 141.327 140.573 141.069C140.291 140.811 139.887 140.682 139.363 140.682C138.923 140.682 138.494 140.77 138.078 140.944C137.663 141.111 137.251 141.364 136.844 141.705L136.457 140.919C136.814 140.578 137.255 140.312 137.779 140.121C138.303 139.921 138.844 139.822 139.401 139.822C139.933 139.822 140.399 139.917 140.798 140.109C141.197 140.292 141.5 140.553 141.708 140.894C141.925 141.235 142.033 141.639 142.033 142.104C142.033 142.653 141.887 143.123 141.596 143.514C141.313 143.896 140.923 144.158 140.424 144.3L140.386 144.175C140.985 144.3 141.442 144.553 141.758 144.936C142.074 145.318 142.232 145.805 142.232 146.395C142.232 147.169 141.97 147.78 141.446 148.229C140.923 148.67 140.212 148.89 139.313 148.89ZM146.88 148.903C145.866 148.903 145.092 148.52 144.56 147.755C144.036 146.982 143.774 145.851 143.774 144.362C143.774 142.874 144.036 141.747 144.56 140.982C145.084 140.208 145.857 139.822 146.88 139.822C147.903 139.822 148.676 140.208 149.2 140.982C149.724 141.747 149.986 142.869 149.986 144.35C149.986 145.838 149.72 146.969 149.188 147.743C148.664 148.516 147.895 148.903 146.88 148.903ZM146.88 148.042C147.587 148.042 148.107 147.743 148.439 147.144C148.78 146.545 148.951 145.614 148.951 144.35C148.951 143.086 148.78 142.163 148.439 141.58C148.107 140.99 147.587 140.695 146.88 140.695C146.173 140.695 145.649 140.99 145.308 141.58C144.976 142.171 144.809 143.094 144.809 144.35C144.809 145.614 144.976 146.545 145.308 147.144C145.649 147.743 146.173 148.042 146.88 148.042ZM154.173 148.341V140.52L154.759 140.82L152.351 142.354V141.368L154.622 139.921H155.208V148.341H154.173ZM152.214 148.803V147.942H157.166V148.803H152.214Z" fill="#3E3F42"/>
<path d="M135.803 160.039C135.419 160.039 135.087 159.955 134.807 159.786C134.531 159.617 134.316 159.375 134.162 159.061C134.012 158.746 133.938 158.374 133.938 157.944C133.938 157.51 134.012 157.138 134.162 156.827C134.312 156.512 134.525 156.27 134.801 156.102C135.081 155.933 135.415 155.848 135.803 155.848C136.187 155.848 136.519 155.933 136.799 156.102C137.079 156.27 137.294 156.512 137.444 156.827C137.593 157.138 137.668 157.508 137.668 157.938C137.668 158.372 137.591 158.746 137.438 159.061C137.288 159.375 137.073 159.617 136.793 159.786C136.517 159.955 136.187 160.039 135.803 160.039ZM135.803 159.636C136.237 159.636 136.574 159.491 136.816 159.199C137.058 158.903 137.179 158.483 137.179 157.938C137.179 157.393 137.058 156.977 136.816 156.689C136.574 156.397 136.237 156.251 135.803 156.251C135.369 156.251 135.03 156.397 134.784 156.689C134.542 156.98 134.421 157.397 134.421 157.938C134.421 158.479 134.542 158.898 134.784 159.193C135.03 159.489 135.369 159.636 135.803 159.636ZM138.534 159.993V155.894H140.169C140.592 155.894 140.92 155.996 141.154 156.199C141.392 156.403 141.511 156.683 141.511 157.04C141.511 157.393 141.392 157.673 141.154 157.881C140.916 158.088 140.588 158.191 140.169 158.191H139.007V159.993H138.534ZM139.007 157.8H140.129C140.432 157.8 140.661 157.735 140.814 157.604C140.968 157.47 141.045 157.282 141.045 157.04C141.045 156.798 140.968 156.612 140.814 156.482C140.661 156.351 140.432 156.286 140.129 156.286H139.007V157.8ZM142.284 159.993V155.894H144.875V156.286H142.751V157.714H144.76V158.111H142.751V159.602H144.875V159.993H142.284ZM145.669 159.993V155.894H146.032L148.646 159.377L148.507 159.412V155.894H148.956V159.993H148.588L145.98 156.516L146.112 156.476V159.993H145.669ZM149.964 159.993V155.894H152.555V156.286H150.431V157.714H152.44V158.111H150.431V159.602H152.555V159.993H149.964ZM153.349 159.993V155.894H154.725C155.163 155.894 155.535 155.975 155.842 156.136C156.149 156.293 156.383 156.526 156.544 156.833C156.705 157.136 156.786 157.504 156.786 157.938C156.786 158.376 156.704 158.748 156.539 159.055C156.377 159.358 156.143 159.59 155.836 159.752C155.529 159.913 155.159 159.993 154.725 159.993H153.349ZM153.821 159.59H154.696C155.226 159.59 155.623 159.452 155.888 159.176C156.157 158.9 156.291 158.487 156.291 157.938C156.291 156.844 155.759 156.297 154.696 156.297H153.821V159.59Z" fill="#9EA0A5"/>
<path fill-rule="evenodd" clip-rule="evenodd" d="M82.2945 167.907C103.757 167.907 121.155 150.508 121.155 129.046C121.155 107.583 103.757 90.1847 82.2945 90.1847C60.8322 90.1847 43.4336 107.583 43.4336 129.046C43.4336 150.508 60.8322 167.907 82.2945 167.907ZM82.2941 153.514C95.8074 153.514 106.762 142.559 106.762 129.046C106.762 115.532 95.8074 104.578 82.2941 104.578C68.7808 104.578 57.8261 115.532 57.8261 129.046C57.8261 142.559 68.7808 153.514 82.2941 153.514Z" fill="#EAECEE"/>
<path fill-rule="evenodd" clip-rule="evenodd" d="M121.155 129.046C121.155 150.508 103.757 167.907 82.2945 167.907C60.8322 167.907 43.4336 150.508 43.4336 129.046C43.4336 125.834 43.8232 122.713 44.5578 119.728L58.534 123.179C58.0714 125.058 57.8261 127.023 57.8261 129.046C57.8261 142.559 68.7808 153.514 82.2941 153.514C95.8074 153.514 106.762 142.559 106.762 129.046C106.762 115.532 95.8076 104.578 82.2945 104.578V90.1847C103.757 90.1847 121.155 107.583 121.155 129.046Z" fill="#1098F7"/>
</g>
</g>
<g filter="url(#filter2_d)">
<rect x="200" y="59" width="230" height="125" rx="1.91906" fill="white"/>
<rect x="200.24" y="59.2399" width="229.52" height="124.52" rx="1.67918" stroke="#EAEDF3" stroke-width="0.479765"/>
</g>
<path d="M397.628 96.5267V88.7056L398.214 89.005L395.806 90.5393V89.5538L398.077 88.1069H398.663V96.5267H397.628ZM395.669 96.9883V96.1276H400.621V96.9883H395.669ZM405.294 97.0756C404.646 97.0756 404.084 96.98 403.61 96.7887C403.136 96.5891 402.766 96.3064 402.5 95.9405C402.242 95.5746 402.113 95.138 402.113 94.6307C402.113 94.0153 402.321 93.5039 402.737 93.0964C403.153 92.6889 403.71 92.4353 404.409 92.3355L404.346 92.5226C403.698 92.3979 403.194 92.1443 402.837 91.7617C402.488 91.3792 402.313 90.9135 402.313 90.3646C402.313 89.8823 402.438 89.4665 402.687 89.1173C402.945 88.7597 403.294 88.4853 403.735 88.294C404.184 88.1027 404.704 88.0071 405.294 88.0071C405.885 88.0071 406.4 88.1027 406.841 88.294C407.29 88.4853 407.639 88.7597 407.889 89.1173C408.147 89.4665 408.275 89.8823 408.275 90.3646C408.275 90.9135 408.097 91.3834 407.739 91.7742C407.39 92.1567 406.895 92.4062 406.255 92.5226L406.18 92.3355C406.903 92.4353 407.465 92.6931 407.864 93.1089C408.271 93.5164 408.475 94.0237 408.475 94.6307C408.475 95.138 408.342 95.5746 408.076 95.9405C407.818 96.3064 407.452 96.5891 406.978 96.7887C406.504 96.98 405.943 97.0756 405.294 97.0756ZM405.294 96.2274C405.993 96.2274 406.529 96.086 406.903 95.8033C407.278 95.5205 407.465 95.1089 407.465 94.5683C407.465 94.0611 407.261 93.6661 406.853 93.3833C406.446 93.0923 405.926 92.9135 405.294 92.847C404.662 92.9135 404.142 93.0923 403.735 93.3833C403.328 93.6661 403.124 94.0611 403.124 94.5683C403.124 95.1089 403.311 95.5205 403.685 95.8033C404.059 96.086 404.596 96.2274 405.294 96.2274ZM405.294 92.1359C405.876 92.0694 406.346 91.8906 406.704 91.5996C407.07 91.3085 407.253 90.9218 407.253 90.4395C407.253 89.9405 407.078 89.5538 406.729 89.2794C406.388 88.9967 405.91 88.8553 405.294 88.8553C404.679 88.8553 404.197 88.9967 403.847 89.2794C403.506 89.5538 403.336 89.9405 403.336 90.4395C403.336 90.9218 403.515 91.3085 403.872 91.5996C404.238 91.8906 404.712 92.0694 405.294 92.1359ZM412.774 97.0881C411.759 97.0881 410.986 96.7055 410.454 95.9405C409.93 95.1671 409.668 94.0361 409.668 92.5476C409.668 91.059 409.93 89.9322 410.454 89.1672C410.977 88.3938 411.751 88.0071 412.774 88.0071C413.797 88.0071 414.57 88.3938 415.094 89.1672C415.618 89.9322 415.88 91.0549 415.88 92.5351C415.88 94.0237 415.614 95.1546 415.081 95.928C414.557 96.7014 413.788 97.0881 412.774 97.0881ZM412.774 96.2274C413.481 96.2274 414 95.928 414.333 95.3293C414.674 94.7305 414.844 93.7991 414.844 92.5351C414.844 91.2711 414.674 90.348 414.333 89.7659C414 89.1755 413.481 88.8803 412.774 88.8803C412.067 88.8803 411.543 89.1755 411.202 89.7659C410.869 90.3563 410.703 91.2794 410.703 92.5351C410.703 93.7991 410.869 94.7305 411.202 95.3293C411.543 95.928 412.067 96.2274 412.774 96.2274Z" fill="#3E3F42"/>
<path fill-rule="evenodd" clip-rule="evenodd" d="M398.222 119.45H416.933V119.93H398.222V119.45Z" fill="#1C3C55"/>
<path d="M382.173 108.179V104.08H383.802C384.243 104.08 384.581 104.177 384.815 104.373C385.053 104.569 385.172 104.851 385.172 105.22C385.172 105.573 385.051 105.851 384.809 106.054C384.571 106.254 384.236 106.354 383.802 106.354L384.228 106.273C384.378 106.273 384.506 106.315 384.614 106.4C384.721 106.48 384.807 106.611 384.873 106.791L385.391 108.179H384.89L384.383 106.814C384.318 106.642 384.228 106.528 384.113 106.475C384.001 106.417 383.852 106.388 383.664 106.388H382.639V108.179H382.173ZM382.639 105.997H383.762C384.08 105.997 384.316 105.931 384.47 105.801C384.627 105.671 384.706 105.479 384.706 105.225C384.706 104.972 384.629 104.784 384.475 104.661C384.322 104.534 384.084 104.471 383.762 104.471H382.639V105.997ZM386.164 108.179V104.08H388.755V104.471H386.631V105.899H388.64V106.296H386.631V107.787H388.755V108.179H386.164ZM390.794 108.225C390.583 108.225 390.385 108.207 390.201 108.173C390.017 108.135 389.846 108.077 389.688 108C389.531 107.92 389.389 107.822 389.262 107.707L389.441 107.344C389.648 107.517 389.855 107.639 390.063 107.712C390.274 107.785 390.519 107.822 390.8 107.822C391.126 107.822 391.379 107.758 391.56 107.632C391.74 107.501 391.83 107.319 391.83 107.085C391.83 106.943 391.784 106.83 391.692 106.745C391.604 106.657 391.481 106.588 391.323 106.538C391.17 106.484 390.995 106.434 390.8 106.388C390.604 106.346 390.418 106.298 390.241 106.244C390.065 106.187 389.907 106.116 389.769 106.031C389.635 105.947 389.529 105.839 389.452 105.709C389.376 105.578 389.337 105.415 389.337 105.22C389.337 104.985 389.399 104.78 389.521 104.604C389.644 104.423 389.817 104.283 390.04 104.183C390.262 104.083 390.525 104.034 390.828 104.034C391.016 104.034 391.197 104.055 391.37 104.097C391.542 104.135 391.702 104.193 391.847 104.27C391.997 104.346 392.129 104.44 392.245 104.552L392.06 104.914C391.872 104.749 391.678 104.628 391.479 104.552C391.279 104.475 391.062 104.437 390.828 104.437C390.51 104.437 390.26 104.504 390.08 104.638C389.9 104.772 389.809 104.96 389.809 105.202C389.809 105.352 389.85 105.473 389.93 105.565C390.011 105.657 390.124 105.732 390.27 105.789C390.416 105.843 390.583 105.893 390.771 105.939C390.97 105.985 391.162 106.035 391.346 106.089C391.531 106.143 391.694 106.21 391.836 106.29C391.982 106.367 392.097 106.469 392.181 106.595C392.266 106.718 392.308 106.876 392.308 107.068C392.308 107.302 392.247 107.505 392.124 107.678C392.001 107.851 391.826 107.985 391.6 108.081C391.373 108.177 391.105 108.225 390.794 108.225ZM393.08 108.179V104.08H394.715C395.137 104.08 395.465 104.181 395.699 104.385C395.937 104.588 396.056 104.868 396.056 105.225C396.056 105.578 395.937 105.859 395.699 106.066C395.461 106.273 395.133 106.377 394.715 106.377H393.552V108.179H393.08ZM393.552 105.985H394.674C394.978 105.985 395.206 105.92 395.36 105.789C395.513 105.655 395.59 105.467 395.59 105.225C395.59 104.983 395.513 104.797 395.36 104.667C395.206 104.536 394.978 104.471 394.674 104.471H393.552V105.985ZM398.506 108.225C398.122 108.225 397.79 108.14 397.51 107.971C397.234 107.803 397.019 107.561 396.865 107.246C396.716 106.931 396.641 106.559 396.641 106.129C396.641 105.695 396.716 105.323 396.865 105.012C397.015 104.698 397.228 104.456 397.504 104.287C397.784 104.118 398.118 104.034 398.506 104.034C398.89 104.034 399.222 104.118 399.502 104.287C399.782 104.456 399.997 104.698 400.147 105.012C400.296 105.323 400.371 105.694 400.371 106.123C400.371 106.557 400.295 106.931 400.141 107.246C399.991 107.561 399.776 107.803 399.496 107.971C399.22 108.14 398.89 108.225 398.506 108.225ZM398.506 107.822C398.94 107.822 399.277 107.676 399.519 107.384C399.761 107.089 399.882 106.668 399.882 106.123C399.882 105.578 399.761 105.162 399.519 104.874C399.277 104.582 398.94 104.437 398.506 104.437C398.072 104.437 397.733 104.582 397.487 104.874C397.245 105.166 397.124 105.582 397.124 106.123C397.124 106.665 397.245 107.083 397.487 107.378C397.733 107.674 398.072 107.822 398.506 107.822ZM401.238 108.179V104.08H401.6L404.214 107.563L404.076 107.597V104.08H404.525V108.179H404.156L401.548 104.701L401.681 104.661V108.179H401.238ZM405.533 108.179V104.08H406.909C407.346 104.08 407.719 104.16 408.026 104.321C408.333 104.479 408.567 104.711 408.728 105.018C408.889 105.321 408.97 105.69 408.97 106.123C408.97 106.561 408.887 106.933 408.722 107.24C408.561 107.544 408.327 107.776 408.02 107.937C407.713 108.098 407.343 108.179 406.909 108.179H405.533ZM406.005 107.776H406.88C407.41 107.776 407.807 107.638 408.072 107.361C408.341 107.085 408.475 106.672 408.475 106.123C408.475 105.03 407.943 104.483 406.88 104.483H406.005V107.776ZM409.828 108.179V104.08H412.419V104.471H410.295V105.899H412.304V106.296H410.295V107.787H412.419V108.179H409.828ZM413.213 108.179V104.08H414.589C415.026 104.08 415.399 104.16 415.706 104.321C416.013 104.479 416.247 104.711 416.408 105.018C416.569 105.321 416.65 105.69 416.65 106.123C416.65 106.561 416.567 106.933 416.402 107.24C416.241 107.544 416.007 107.776 415.7 107.937C415.393 108.098 415.023 108.179 414.589 108.179H413.213ZM413.685 107.776H414.56C415.09 107.776 415.487 107.638 415.752 107.361C416.021 107.085 416.155 106.672 416.155 106.123C416.155 105.03 415.623 104.483 414.56 104.483H413.685V107.776Z" fill="#9EA0A5"/>
<path d="M397.628 141.145V133.324L398.214 133.623L395.806 135.157V134.172L398.077 132.725H398.663V141.145H397.628ZM395.669 141.606V140.746H400.621V141.606H395.669ZM405.581 141.706C404.508 141.706 403.681 141.336 403.099 140.596C402.517 139.848 402.226 138.779 402.226 137.39C402.226 136.384 402.359 135.528 402.625 134.821C402.899 134.105 403.29 133.561 403.797 133.187C404.313 132.812 404.928 132.625 405.643 132.625C406.159 132.625 406.658 132.721 407.14 132.912C407.623 133.095 408.051 133.365 408.425 133.723L408.038 134.509C407.623 134.151 407.219 133.893 406.829 133.735C406.446 133.569 406.059 133.486 405.668 133.486C404.903 133.486 404.309 133.827 403.885 134.509C403.461 135.182 403.248 136.139 403.248 137.378V138.451L403.099 138.114C403.165 137.69 403.319 137.324 403.56 137.016C403.802 136.7 404.101 136.459 404.458 136.293C404.824 136.118 405.228 136.031 405.668 136.031C406.217 136.031 406.7 136.151 407.115 136.392C407.531 136.625 407.856 136.954 408.088 137.378C408.321 137.802 408.438 138.293 408.438 138.85C408.438 139.399 408.313 139.889 408.063 140.322C407.822 140.754 407.485 141.095 407.053 141.344C406.629 141.586 406.138 141.706 405.581 141.706ZM405.531 140.846C406.097 140.846 406.554 140.667 406.903 140.309C407.253 139.943 407.427 139.461 407.427 138.862C407.427 138.272 407.253 137.798 406.903 137.44C406.554 137.074 406.093 136.891 405.519 136.891C405.136 136.891 404.795 136.979 404.496 137.153C404.197 137.32 403.964 137.552 403.797 137.852C403.631 138.143 403.548 138.48 403.548 138.862C403.548 139.261 403.631 139.611 403.797 139.91C403.964 140.201 404.197 140.43 404.496 140.596C404.795 140.762 405.14 140.846 405.531 140.846ZM412.911 141.694C412.37 141.694 411.838 141.598 411.314 141.407C410.79 141.207 410.35 140.937 409.992 140.596L410.379 139.81C410.786 140.143 411.198 140.396 411.614 140.571C412.038 140.746 412.47 140.833 412.911 140.833C413.535 140.833 414.021 140.658 414.37 140.309C414.728 139.952 414.907 139.469 414.907 138.862C414.907 138.471 414.828 138.13 414.67 137.839C414.512 137.54 414.287 137.307 413.996 137.141C413.713 136.974 413.377 136.891 412.986 136.891C412.562 136.891 412.179 136.979 411.838 137.153C411.505 137.32 411.21 137.577 410.952 137.927H410.241V132.725H415.568V133.573H411.264V137.166L410.94 137.128C411.181 136.779 411.489 136.509 411.863 136.318C412.246 136.126 412.674 136.031 413.148 136.031C413.713 136.031 414.204 136.151 414.62 136.392C415.036 136.625 415.356 136.954 415.58 137.378C415.805 137.802 415.917 138.293 415.917 138.85C415.917 139.407 415.792 139.902 415.543 140.334C415.302 140.758 414.957 141.091 414.508 141.332C414.058 141.573 413.526 141.694 412.911 141.694Z" fill="#3E3F42"/>
<path d="M381.58 152.843C381.189 152.843 380.851 152.758 380.567 152.59C380.283 152.421 380.064 152.179 379.911 151.864C379.757 151.549 379.68 151.175 379.68 150.742C379.68 150.308 379.757 149.936 379.911 149.625C380.064 149.314 380.283 149.074 380.567 148.905C380.851 148.736 381.189 148.652 381.58 148.652C381.86 148.652 382.119 148.696 382.357 148.784C382.595 148.869 382.801 148.997 382.973 149.17L382.795 149.533C382.599 149.364 382.405 149.243 382.213 149.17C382.022 149.097 381.812 149.06 381.586 149.06C381.137 149.06 380.788 149.206 380.538 149.498C380.292 149.79 380.17 150.204 380.17 150.742C380.17 151.283 380.292 151.701 380.538 151.997C380.784 152.288 381.133 152.434 381.586 152.434C381.812 152.434 382.022 152.398 382.213 152.325C382.405 152.252 382.599 152.131 382.795 151.962L382.973 152.325C382.801 152.498 382.595 152.628 382.357 152.716C382.119 152.801 381.86 152.843 381.58 152.843ZM385.414 152.843C385.03 152.843 384.698 152.758 384.418 152.59C384.141 152.421 383.926 152.179 383.773 151.864C383.623 151.549 383.548 151.177 383.548 150.747C383.548 150.314 383.623 149.941 383.773 149.63C383.923 149.316 384.136 149.074 384.412 148.905C384.692 148.736 385.026 148.652 385.414 148.652C385.798 148.652 386.129 148.736 386.41 148.905C386.69 149.074 386.905 149.316 387.054 149.63C387.204 149.941 387.279 150.312 387.279 150.742C387.279 151.175 387.202 151.549 387.049 151.864C386.899 152.179 386.684 152.421 386.404 152.59C386.128 152.758 385.798 152.843 385.414 152.843ZM385.414 152.44C385.847 152.44 386.185 152.294 386.427 152.002C386.669 151.707 386.79 151.287 386.79 150.742C386.79 150.197 386.669 149.78 386.427 149.492C386.185 149.201 385.847 149.055 385.414 149.055C384.98 149.055 384.64 149.201 384.395 149.492C384.153 149.784 384.032 150.2 384.032 150.742C384.032 151.283 384.153 151.701 384.395 151.997C384.64 152.292 384.98 152.44 385.414 152.44ZM388.145 152.797V148.698H388.537L390.201 152.48H389.982L391.628 148.698H392.02V152.797H391.582V149.32L391.761 149.343L390.252 152.797H389.918L388.387 149.343L388.577 149.32L388.583 152.797H388.145ZM393.031 152.797V148.698H393.422L395.086 152.48H394.868L396.514 148.698H396.906V152.797H396.468V149.32L396.646 149.343L395.138 152.797H394.804L393.273 149.343L393.463 149.32L393.469 152.797H393.031ZM397.917 152.797V148.698H400.507V149.089H398.383V150.517H400.392V150.914H398.383V152.405H400.507V152.797H397.917ZM401.301 152.797V148.698H401.664L404.278 152.181L404.14 152.215V148.698H404.589V152.797H404.22L401.612 149.32L401.745 149.279V152.797H401.301ZM406.587 152.797V149.101H405.159V148.698H408.493V149.101H407.065V152.797H406.587ZM409.066 152.797V148.698H411.656V149.089H409.532V150.517H411.541V150.914H409.532V152.405H411.656V152.797H409.066ZM412.45 152.797V148.698H413.826C414.264 148.698 414.636 148.778 414.943 148.94C415.25 149.097 415.484 149.329 415.645 149.636C415.807 149.939 415.887 150.308 415.887 150.742C415.887 151.179 415.805 151.551 415.64 151.858C415.478 152.162 415.244 152.394 414.937 152.555C414.63 152.716 414.26 152.797 413.826 152.797H412.45ZM412.922 152.394H413.797C414.327 152.394 414.724 152.256 414.989 151.979C415.258 151.703 415.392 151.29 415.392 150.742C415.392 149.648 414.861 149.101 413.797 149.101H412.922V152.394Z" fill="#9EA0A5"/>
<path d="M225.556 76.5952H224.512L223.814 74.7759C223.752 74.6071 223.658 74.4894 223.53 74.4228C223.402 74.3563 223.235 74.323 223.031 74.323H222.04V76.5952H221.058V71.1297H223.399C224.018 71.1297 224.489 71.2653 224.812 71.5366C225.134 71.8078 225.295 72.1967 225.295 72.7034C225.295 73.0667 225.198 73.3763 225.003 73.6322C224.814 73.8829 224.543 74.0621 224.19 74.1695C224.512 74.2361 224.745 74.4612 224.888 74.845L225.556 76.5952ZM223.261 73.5554C223.635 73.5554 223.911 73.4863 224.09 73.3482C224.269 73.21 224.359 73.0002 224.359 72.7187C224.359 72.4424 224.269 72.2377 224.09 72.1046C223.916 71.9664 223.64 71.8974 223.261 71.8974H222.025V73.5554H223.261ZM229.772 74.7069H227.1C227.121 75.1214 227.223 75.4284 227.407 75.628C227.597 75.8225 227.876 75.9197 228.244 75.9197C228.669 75.9197 229.063 75.7815 229.426 75.5052L229.702 76.1653C229.518 76.3138 229.29 76.434 229.019 76.5261C228.753 76.6131 228.482 76.6566 228.206 76.6566C227.571 76.6566 227.072 76.4775 226.709 76.1193C226.345 75.7611 226.164 75.2698 226.164 74.6455C226.164 74.2514 226.243 73.9009 226.402 73.5938C226.56 73.2868 226.783 73.0488 227.069 72.8799C227.356 72.7059 227.681 72.6189 228.044 72.6189C228.577 72.6189 228.996 72.7929 229.303 73.1409C229.615 73.4838 229.772 73.9571 229.772 74.561V74.7069ZM228.067 73.3098C227.812 73.3098 227.602 73.3865 227.438 73.5401C227.279 73.6885 227.177 73.906 227.131 74.1926H228.935C228.904 73.9009 228.815 73.6808 228.666 73.5324C228.523 73.384 228.323 73.3098 228.067 73.3098ZM232.004 76.6566C231.303 76.6566 230.745 76.4929 230.331 76.1653L230.599 75.4898C231.014 75.7969 231.487 75.9504 232.02 75.9504C232.25 75.9504 232.426 75.912 232.549 75.8353C232.677 75.7585 232.741 75.651 232.741 75.5129C232.741 75.3952 232.698 75.303 232.611 75.2365C232.524 75.1649 232.375 75.1035 232.165 75.0523L231.521 74.9064C230.814 74.7529 230.461 74.3921 230.461 73.8241C230.461 73.5887 230.528 73.3814 230.661 73.2023C230.794 73.0181 230.981 72.8748 231.221 72.7724C231.462 72.6701 231.741 72.6189 232.058 72.6189C232.334 72.6189 232.6 72.6624 232.856 72.7494C233.112 72.8313 233.337 72.9516 233.532 73.1102L233.248 73.7627C232.859 73.4761 232.46 73.3328 232.05 73.3328C231.83 73.3328 231.659 73.3738 231.536 73.4556C231.413 73.5375 231.352 73.6501 231.352 73.7934C231.352 73.906 231.388 73.9955 231.459 74.0621C231.536 74.1286 231.664 74.1849 231.843 74.2309L232.503 74.3768C232.887 74.4638 233.166 74.5994 233.34 74.7836C233.519 74.9627 233.609 75.1981 233.609 75.4898C233.609 75.8481 233.465 76.1321 233.179 76.3419C232.892 76.5517 232.501 76.6566 232.004 76.6566ZM236.64 72.6189C236.973 72.6189 237.267 72.7059 237.523 72.8799C237.784 73.0488 237.986 73.2893 238.13 73.6015C238.278 73.9085 238.352 74.2616 238.352 74.6608C238.352 75.06 238.281 75.4105 238.137 75.7124C237.994 76.0144 237.792 76.2472 237.531 76.411C237.275 76.5747 236.978 76.6566 236.64 76.6566C236.359 76.6566 236.108 76.5978 235.888 76.4801C235.668 76.3573 235.499 76.1884 235.382 75.9734V78.2533H234.43V73.8164C234.43 73.407 234.409 73.0411 234.368 72.7187H235.266L235.343 73.3865C235.446 73.146 235.612 72.9592 235.842 72.8262C236.072 72.688 236.339 72.6189 236.64 72.6189ZM236.379 75.9044C236.702 75.9044 236.95 75.7969 237.124 75.582C237.298 75.367 237.385 75.06 237.385 74.6608C237.385 74.2565 237.298 73.9418 237.124 73.7166C236.95 73.4863 236.704 73.3712 236.387 73.3712C236.06 73.3712 235.809 73.4812 235.635 73.7013C235.461 73.9213 235.374 74.2361 235.374 74.6455C235.374 75.0497 235.461 75.3619 235.635 75.582C235.809 75.7969 236.057 75.9044 236.379 75.9044ZM240.948 76.6566C240.554 76.6566 240.206 76.5747 239.904 76.411C239.607 76.2472 239.377 76.0144 239.213 75.7124C239.054 75.4054 238.975 75.0472 238.975 74.6378C238.975 74.2284 239.054 73.8727 239.213 73.5708C239.377 73.2637 239.607 73.0283 239.904 72.8646C240.206 72.7008 240.554 72.6189 240.948 72.6189C241.337 72.6189 241.68 72.7008 241.976 72.8646C242.273 73.0283 242.501 73.2637 242.66 73.5708C242.823 73.8727 242.905 74.2284 242.905 74.6378C242.905 75.0472 242.823 75.4054 242.66 75.7124C242.501 76.0144 242.273 76.2472 241.976 76.411C241.68 76.5747 241.337 76.6566 240.948 76.6566ZM240.94 75.9044C241.268 75.9044 241.516 75.7994 241.685 75.5896C241.859 75.3747 241.946 75.0574 241.946 74.6378C241.946 74.2233 241.859 73.9085 241.685 73.6936C241.511 73.4735 241.265 73.3635 240.948 73.3635C240.625 73.3635 240.377 73.4735 240.203 73.6936C240.029 73.9085 239.942 74.2233 239.942 74.6378C239.942 75.0574 240.027 75.3747 240.195 75.5896C240.369 75.7994 240.618 75.9044 240.94 75.9044ZM245.951 72.6189C246.877 72.6189 247.34 73.1511 247.34 74.2156V76.5952H246.381V74.2616C246.381 73.9546 246.322 73.732 246.204 73.5938C246.087 73.4505 245.905 73.3789 245.659 73.3789C245.368 73.3789 245.132 73.4735 244.953 73.6629C244.774 73.8471 244.684 74.0928 244.684 74.3998V76.5952H243.733V73.8164C243.733 73.407 243.712 73.0411 243.671 72.7187H244.569L244.638 73.3558C244.771 73.1204 244.951 72.9388 245.176 72.8108C245.406 72.6829 245.664 72.6189 245.951 72.6189ZM249.778 76.6566C249.077 76.6566 248.519 76.4929 248.105 76.1653L248.373 75.4898C248.788 75.7969 249.261 75.9504 249.793 75.9504C250.024 75.9504 250.2 75.912 250.323 75.8353C250.451 75.7585 250.515 75.651 250.515 75.5129C250.515 75.3952 250.471 75.303 250.384 75.2365C250.297 75.1649 250.149 75.1035 249.939 75.0523L249.294 74.9064C248.588 74.7529 248.235 74.3921 248.235 73.8241C248.235 73.5887 248.302 73.3814 248.435 73.2023C248.568 73.0181 248.754 72.8748 248.995 72.7724C249.236 72.6701 249.514 72.6189 249.832 72.6189C250.108 72.6189 250.374 72.6624 250.63 72.7494C250.886 72.8313 251.111 72.9516 251.306 73.1102L251.022 73.7627C250.633 73.4761 250.233 73.3328 249.824 73.3328C249.604 73.3328 249.433 73.3738 249.31 73.4556C249.187 73.5375 249.125 73.6501 249.125 73.7934C249.125 73.906 249.161 73.9955 249.233 74.0621C249.31 74.1286 249.438 74.1849 249.617 74.2309L250.277 74.3768C250.661 74.4638 250.94 74.5994 251.114 74.7836C251.293 74.9627 251.382 75.1981 251.382 75.4898C251.382 75.8481 251.239 76.1321 250.952 76.3419C250.666 76.5517 250.274 76.6566 249.778 76.6566ZM255.596 74.7069H252.925C252.946 75.1214 253.048 75.4284 253.232 75.628C253.421 75.8225 253.7 75.9197 254.069 75.9197C254.494 75.9197 254.888 75.7815 255.251 75.5052L255.527 76.1653C255.343 76.3138 255.115 76.434 254.844 76.5261C254.578 76.6131 254.307 76.6566 254.03 76.6566C253.396 76.6566 252.897 76.4775 252.534 76.1193C252.17 75.7611 251.989 75.2698 251.989 74.6455C251.989 74.2514 252.068 73.9009 252.226 73.5938C252.385 73.2868 252.608 73.0488 252.894 72.8799C253.181 72.7059 253.506 72.6189 253.869 72.6189C254.401 72.6189 254.821 72.7929 255.128 73.1409C255.44 73.4838 255.596 73.9571 255.596 74.561V74.7069ZM253.892 73.3098C253.636 73.3098 253.427 73.3865 253.263 73.5401C253.104 73.6885 253.002 73.906 252.956 74.1926H254.76C254.729 73.9009 254.639 73.6808 254.491 73.5324C254.348 73.384 254.148 73.3098 253.892 73.3098Z" fill="#1C3C55"/>
<path fill-rule="evenodd" clip-rule="evenodd" d="M220 93.9595C220 93.4296 220.43 93 220.96 93H359.04C359.57 93 360 93.4296 360 93.9595V110.04C360 110.57 359.57 111 359.04 111H220.96C220.43 111 220 110.57 220 110.04V93.9595Z" fill="#EAECEE"/>
<rect x="220" y="93" width="107" height="18" rx="0.959529" fill="#1098F7"/>
<path fill-rule="evenodd" clip-rule="evenodd" d="M220 136.96C220 136.43 220.43 136 220.96 136H359.04C359.57 136 360 136.43 360 136.96V153.04C360 153.57 359.57 154 359.04 154H220.96C220.43 154 220 153.57 220 153.04V136.96Z" fill="#EAECEE"/>
<rect x="220" y="136" width="92" height="18" rx="0.959529" fill="#1098F7"/>
<path d="M49.3412 255.066C50.2108 255.28 50.8914 255.677 51.3829 256.257C51.8744 256.837 52.1202 257.536 52.1202 258.355C52.1202 259.124 51.9059 259.798 51.4774 260.378C51.0615 260.945 50.4692 261.38 49.7004 261.683C48.9442 261.985 48.0683 262.136 47.0726 262.136C46.077 262.136 45.1947 261.985 44.4259 261.683C43.6697 261.38 43.0774 260.945 42.6489 260.378C42.233 259.798 42.025 259.124 42.025 258.355C42.025 257.536 42.2708 256.837 42.7623 256.257C43.2538 255.677 43.9344 255.28 44.804 255.066C44.0478 254.814 43.4492 254.417 43.0081 253.875C42.5796 253.333 42.3653 252.703 42.3653 251.984C42.3653 251.253 42.5669 250.617 42.9703 250.075C43.3736 249.521 43.9281 249.098 44.6339 248.808C45.3523 248.506 46.1652 248.355 47.0726 248.355C47.98 248.355 48.7866 248.506 49.4924 248.808C50.2108 249.098 50.7717 249.521 51.175 250.075C51.5783 250.617 51.7799 251.253 51.7799 251.984C51.7799 252.715 51.5594 253.358 51.1182 253.913C50.6897 254.455 50.0974 254.839 49.3412 255.066ZM47.0726 250.264C46.329 250.264 45.743 250.434 45.3145 250.775C44.8859 251.115 44.6717 251.6 44.6717 252.23C44.6717 252.823 44.8859 253.308 45.3145 253.686C45.7556 254.051 46.3416 254.291 47.0726 254.404C47.8036 254.291 48.3833 254.051 48.8119 253.686C49.253 253.308 49.4735 252.823 49.4735 252.23C49.4735 251.6 49.2593 251.115 48.8308 250.775C48.4022 250.434 47.8162 250.264 47.0726 250.264ZM47.0726 260.227C47.9296 260.227 48.5976 260.051 49.0765 259.698C49.568 259.345 49.8138 258.841 49.8138 258.185C49.8138 257.568 49.5617 257.07 49.0576 256.692C48.5661 256.314 47.9044 256.068 47.0726 255.954C46.2408 256.068 45.5728 256.314 45.0687 256.692C44.5772 257.07 44.3314 257.568 44.3314 258.185C44.3314 258.841 44.5709 259.345 45.0498 259.698C45.5413 260.051 46.2156 260.227 47.0726 260.227ZM56.4231 259.338V261.985H53.7764V259.338H56.4231ZM67.8979 260V261.985H59.5987V260H62.5479V251.323L59.8067 252.967V250.793L63.5498 248.525H64.9677V260H67.8979Z" fill="#9DC2D4"/>
<path d="M31.3429 232.196H27.5835L26.8057 234H25.4014L28.8799 226.308H30.0142L33.5034 234H32.1099L31.3429 232.196ZM30.8784 231.116L29.4632 227.821L28.048 231.116H30.8784ZM39.1064 228.555L36.719 234H35.5415L33.1865 228.555H34.6016L36.168 232.466L37.7668 228.555H39.1064ZM44.4881 231.343H40.7287C40.7575 231.926 40.9016 232.358 41.1608 232.639C41.4273 232.913 41.8198 233.049 42.3383 233.049C42.9361 233.049 43.4906 232.855 44.002 232.466L44.3909 233.395C44.1316 233.604 43.8111 233.773 43.4294 233.903C43.0549 234.025 42.6732 234.086 42.2843 234.086C41.3913 234.086 40.6891 233.834 40.1778 233.33C39.6665 232.826 39.4108 232.135 39.4108 231.256C39.4108 230.702 39.5224 230.208 39.7457 229.776C39.9689 229.344 40.2822 229.009 40.6855 228.771C41.0888 228.527 41.5461 228.404 42.0575 228.404C42.8065 228.404 43.397 228.649 43.8291 229.139C44.2684 229.621 44.4881 230.287 44.4881 231.137V231.343ZM42.0899 229.376C41.7298 229.376 41.4345 229.484 41.2041 229.7C40.9808 229.909 40.8368 230.215 40.7719 230.619H43.3106C43.2674 230.208 43.1414 229.899 42.9325 229.69C42.7308 229.481 42.45 229.376 42.0899 229.376ZM48.5699 228.415C48.7788 228.415 48.9588 228.444 49.1101 228.501L49.0993 229.733C48.8688 229.639 48.6312 229.592 48.3863 229.592C47.9254 229.592 47.5725 229.726 47.3276 229.992C47.09 230.259 46.9711 230.612 46.9711 231.051V234H45.6316V230.089C45.6316 229.513 45.6028 228.998 45.5452 228.545H46.8091L46.9171 229.506C47.054 229.153 47.27 228.883 47.5653 228.696C47.8606 228.509 48.1954 228.415 48.5699 228.415ZM54.9742 228.545V234H53.6455V233.125C53.4798 233.427 53.2422 233.665 52.9325 233.838C52.6228 234.004 52.2699 234.086 51.8738 234.086C51.3985 234.086 50.9772 233.971 50.6099 233.741C50.2426 233.51 49.9581 233.183 49.7565 232.758C49.5548 232.333 49.454 231.839 49.454 231.278C49.454 230.716 49.5548 230.219 49.7565 229.787C49.9653 229.348 50.2534 229.009 50.6207 228.771C50.988 228.527 51.4057 228.404 51.8738 228.404C52.2699 228.404 52.6228 228.491 52.9325 228.663C53.2422 228.829 53.4798 229.063 53.6455 229.366V228.545H54.9742ZM52.2411 233.028C52.6876 233.028 53.0333 232.873 53.2782 232.563C53.523 232.254 53.6455 231.818 53.6455 231.256C53.6455 230.68 53.523 230.237 53.2782 229.927C53.0333 229.618 52.684 229.463 52.2303 229.463C51.7838 229.463 51.4345 229.625 51.1824 229.949C50.9376 230.266 50.8151 230.709 50.8151 231.278C50.8151 231.839 50.9376 232.272 51.1824 232.574C51.4345 232.877 51.7874 233.028 52.2411 233.028ZM61.7167 228.545V233.827C61.7167 234.677 61.4826 235.322 61.0145 235.761C60.5464 236.2 59.8586 236.42 58.9512 236.42C58.1085 236.42 57.3667 236.243 56.7258 235.89L56.9418 234.864C57.6044 235.21 58.2634 235.383 58.9187 235.383C59.891 235.383 60.3771 234.9 60.3771 233.935V232.855C60.2115 233.15 59.9702 233.391 59.6533 233.579C59.3365 233.759 58.98 233.849 58.5839 233.849C58.1085 233.849 57.6836 233.737 57.3091 233.514C56.9418 233.283 56.6538 232.963 56.4449 232.552C56.2433 232.135 56.1424 231.659 56.1424 231.126C56.1424 230.594 56.2433 230.122 56.4449 229.711C56.6538 229.294 56.9418 228.973 57.3091 228.75C57.6836 228.519 58.1085 228.404 58.5839 228.404C58.9872 228.404 59.3437 228.491 59.6533 228.663C59.9702 228.829 60.2115 229.063 60.3771 229.366V228.545H61.7167ZM58.9404 232.79C59.3869 232.79 59.7362 232.642 59.9882 232.347C60.2475 232.052 60.3771 231.645 60.3771 231.126C60.3771 230.608 60.2511 230.201 59.999 229.906C59.747 229.61 59.3941 229.463 58.9404 229.463C58.4938 229.463 58.1409 229.61 57.8817 229.906C57.6296 230.201 57.5036 230.608 57.5036 231.126C57.5036 231.645 57.6296 232.052 57.8817 232.347C58.1409 232.642 58.4938 232.79 58.9404 232.79ZM67.9504 231.343H64.191C64.2198 231.926 64.3639 232.358 64.6231 232.639C64.8896 232.913 65.2821 233.049 65.8006 233.049C66.3984 233.049 66.9529 232.855 67.4642 232.466L67.8531 233.395C67.5939 233.604 67.2734 233.773 66.8917 233.903C66.5172 234.025 66.1355 234.086 65.7466 234.086C64.8536 234.086 64.1514 233.834 63.6401 233.33C63.1287 232.826 62.8731 232.135 62.8731 231.256C62.8731 230.702 62.9847 230.208 63.208 229.776C63.4312 229.344 63.7445 229.009 64.1478 228.771C64.5511 228.527 65.0084 228.404 65.5197 228.404C66.2687 228.404 66.8593 228.649 67.2914 229.139C67.7307 229.621 67.9504 230.287 67.9504 231.137V231.343ZM65.5522 229.376C65.1921 229.376 64.8968 229.484 64.6663 229.7C64.4431 229.909 64.299 230.215 64.2342 230.619H66.7729C66.7297 230.208 66.6036 229.899 66.3948 229.69C66.1931 229.481 65.9122 229.376 65.5522 229.376ZM74.0568 234.086C73.0702 234.086 72.2852 233.856 71.7018 233.395L72.0799 232.444C72.6633 232.877 73.3294 233.093 74.0784 233.093C74.4025 233.093 74.651 233.039 74.8238 232.931C75.0039 232.822 75.0939 232.671 75.0939 232.477C75.0939 232.311 75.0327 232.182 74.9102 232.088C74.7878 231.987 74.5789 231.901 74.2837 231.829L73.3762 231.623C72.3824 231.407 71.8855 230.9 71.8855 230.1C71.8855 229.769 71.9791 229.477 72.1663 229.225C72.3536 228.966 72.6164 228.764 72.9549 228.62C73.2934 228.476 73.6859 228.404 74.1324 228.404C74.5213 228.404 74.8958 228.465 75.2559 228.588C75.616 228.703 75.9329 228.872 76.2066 229.096L75.8069 230.014C75.2595 229.61 74.6978 229.409 74.1216 229.409C73.8119 229.409 73.5707 229.466 73.3978 229.582C73.225 229.697 73.1386 229.855 73.1386 230.057C73.1386 230.215 73.189 230.341 73.2898 230.435C73.3978 230.529 73.5779 230.608 73.83 230.673L74.759 230.878C75.2991 231 75.6916 231.191 75.9365 231.451C76.1886 231.703 76.3146 232.034 76.3146 232.444C76.3146 232.949 76.1129 233.348 75.7096 233.644C75.3063 233.939 74.7554 234.086 74.0568 234.086ZM79.9441 234.086C79.3751 234.086 78.8818 233.971 78.4641 233.741C78.0464 233.51 77.7259 233.186 77.5026 232.768C77.2794 232.344 77.1678 231.847 77.1678 231.278C77.1678 230.709 77.283 230.208 77.5134 229.776C77.7511 229.344 78.0824 229.009 78.5073 228.771C78.9394 228.527 79.4363 228.404 79.9981 228.404C80.387 228.404 80.7615 228.465 81.1216 228.588C81.4889 228.71 81.7805 228.879 81.9966 229.096L81.6185 230.046C81.388 229.859 81.1432 229.719 80.8839 229.625C80.6246 229.524 80.369 229.474 80.1169 229.474C79.6272 229.474 79.2455 229.628 78.9718 229.938C78.6981 230.241 78.5613 230.68 78.5613 231.256C78.5613 231.832 78.6945 232.272 78.961 232.574C79.2347 232.877 79.62 233.028 80.1169 233.028C80.369 233.028 80.6246 232.977 80.8839 232.877C81.1432 232.776 81.388 232.632 81.6185 232.444L81.9966 233.395C81.7661 233.611 81.4673 233.78 81.1 233.903C80.7327 234.025 80.3474 234.086 79.9441 234.086ZM85.3771 234.086C84.8226 234.086 84.3328 233.971 83.9079 233.741C83.4902 233.51 83.1661 233.183 82.9357 232.758C82.7124 232.326 82.6008 231.821 82.6008 231.245C82.6008 230.669 82.7124 230.169 82.9357 229.744C83.1661 229.312 83.4902 228.98 83.9079 228.75C84.3328 228.519 84.8226 228.404 85.3771 228.404C85.9244 228.404 86.407 228.519 86.8247 228.75C87.2424 228.98 87.5629 229.312 87.7861 229.744C88.0166 230.169 88.1318 230.669 88.1318 231.245C88.1318 231.821 88.0166 232.326 87.7861 232.758C87.5629 233.183 87.2424 233.51 86.8247 233.741C86.407 233.971 85.9244 234.086 85.3771 234.086ZM85.3663 233.028C85.8272 233.028 86.1765 232.88 86.4142 232.585C86.659 232.282 86.7815 231.836 86.7815 231.245C86.7815 230.662 86.659 230.219 86.4142 229.917C86.1693 229.607 85.8236 229.452 85.3771 229.452C84.9234 229.452 84.5741 229.607 84.3292 229.917C84.0844 230.219 83.9619 230.662 83.9619 231.245C83.9619 231.836 84.0808 232.282 84.3184 232.585C84.5633 232.88 84.9126 233.028 85.3663 233.028ZM92.2347 228.415C92.4435 228.415 92.6236 228.444 92.7748 228.501L92.764 229.733C92.5335 229.639 92.2959 229.592 92.051 229.592C91.5901 229.592 91.2372 229.726 90.9924 229.992C90.7547 230.259 90.6359 230.612 90.6359 231.051V234H89.2963V230.089C89.2963 229.513 89.2675 228.998 89.2099 228.545H90.4738L90.5818 229.506C90.7187 229.153 90.9347 228.883 91.23 228.696C91.5253 228.509 91.8602 228.415 92.2347 228.415ZM98.196 231.343H94.4367C94.4655 231.926 94.6095 232.358 94.8688 232.639C95.1352 232.913 95.5277 233.049 96.0463 233.049C96.644 233.049 97.1986 232.855 97.7099 232.466L98.0988 233.395C97.8395 233.604 97.5191 233.773 97.1374 233.903C96.7629 234.025 96.3812 234.086 95.9923 234.086C95.0992 234.086 94.3971 233.834 93.8857 233.33C93.3744 232.826 93.1187 232.135 93.1187 231.256C93.1187 230.702 93.2304 230.208 93.4536 229.776C93.6769 229.344 93.9901 229.009 94.3935 228.771C94.7968 228.527 95.2541 228.404 95.7654 228.404C96.5144 228.404 97.105 228.649 97.5371 229.139C97.9764 229.621 98.196 230.287 98.196 231.137V231.343ZM95.7978 229.376C95.4377 229.376 95.1424 229.484 94.912 229.7C94.6887 229.909 94.5447 230.215 94.4799 230.619H97.0185C96.9753 230.208 96.8493 229.899 96.6404 229.69C96.4388 229.481 96.1579 229.376 95.7978 229.376Z" fill="#1C3C55"/>
<g clip-path="url(#clip2)">
<rect x="80.4951" y="239.744" width="30.7879" height="12.9633" rx="2.16055" fill="white" fill-opacity="0.01"/>
<mask id="mask0" mask-type="alpha" maskUnits="userSpaceOnUse" x="80" y="239" width="32" height="14">
<rect x="80.4951" y="239.744" width="30.7879" height="12.9633" rx="2.16055" fill="white"/>
</mask>
<g mask="url(#mask0)">
<rect x="80.4951" y="239.744" width="30.7879" height="12.9633" fill="#25AD75"/>
</g>
</g>
<path d="M84.7075 245.348H85.9102V246.051H84.7075V247.421H83.9606V246.051H82.7516V245.348H83.9606V244.066H84.7075V245.348ZM89.4991 245.943C89.4991 246.606 89.3746 247.106 89.1257 247.443C88.8788 247.779 88.5022 247.946 87.9958 247.946C87.4979 247.946 87.1223 247.783 86.8691 247.456C86.618 247.127 86.4893 246.64 86.483 245.997V245.199C86.483 244.537 86.6064 244.04 86.8533 243.709C87.1023 243.377 87.481 243.212 87.9895 243.212C88.4938 243.212 88.8693 243.373 89.1162 243.696C89.3652 244.019 89.4928 244.502 89.4991 245.146V245.943ZM88.7301 245.082C88.7301 244.65 88.671 244.333 88.5528 244.133C88.4347 243.93 88.2469 243.829 87.9895 243.829C87.7384 243.829 87.5538 243.925 87.4356 244.117C87.3175 244.307 87.2552 244.604 87.2489 245.009V246.054C87.2489 246.484 87.309 246.805 87.4293 247.016C87.5496 247.227 87.7384 247.332 87.9958 247.332C88.2427 247.332 88.4252 247.235 88.5433 247.041C88.6615 246.845 88.7237 246.539 88.7301 246.124V245.082ZM90.7081 247.073C90.8516 247.073 90.9624 247.114 91.0404 247.196C91.1185 247.277 91.1575 247.378 91.1575 247.5C91.1575 247.62 91.1185 247.721 91.0404 247.801C90.9624 247.879 90.8516 247.918 90.7081 247.918C90.571 247.918 90.4623 247.879 90.3821 247.801C90.302 247.723 90.2619 247.623 90.2619 247.5C90.2619 247.378 90.3009 247.277 90.379 247.196C90.457 247.114 90.5667 247.073 90.7081 247.073ZM95.0883 247.883H91.9899V247.355L93.5249 245.68C93.7464 245.434 93.9036 245.228 93.9964 245.063C94.0914 244.897 94.1388 244.73 94.1388 244.563C94.1388 244.344 94.0766 244.167 93.9521 244.032C93.8297 243.896 93.6641 243.829 93.4552 243.829C93.2063 243.829 93.0132 243.905 92.8761 244.057C92.7389 244.209 92.6703 244.417 92.6703 244.68H91.9013C91.9013 244.4 91.9646 244.148 92.0912 243.924C92.2199 243.698 92.4024 243.523 92.6387 243.399C92.8771 243.274 93.1514 243.212 93.4616 243.212C93.9089 243.212 94.2612 243.325 94.5186 243.55C94.7781 243.774 94.9079 244.084 94.9079 244.481C94.9079 244.711 94.8425 244.953 94.7117 245.206C94.583 245.457 94.3709 245.743 94.0755 246.063L92.9488 247.269H95.0883V247.883Z" fill="white"/>
<g filter="url(#filter3_d)">
<rect x="126" y="264" width="26" height="290" rx="1.08028" transform="rotate(-90 126 264)" fill="#25AD75"/>
<rect x="258" y="265" width="27" height="158" rx="1.08028" transform="rotate(-90 258 265)" fill="#FFB937"/>
<rect x="348" y="264" width="26" height="68" rx="1.08028" transform="rotate(-90 348 264)" fill="#F06449"/>
</g>
<path d="M177.261 255.496V254.96L179.412 252.575C179.701 252.252 179.911 251.961 180.043 251.702C180.176 251.443 180.242 251.184 180.242 250.924C180.242 250.584 180.144 250.325 179.948 250.147C179.752 249.962 179.473 249.87 179.11 249.87C178.81 249.87 178.517 249.931 178.228 250.051C177.94 250.167 177.652 250.342 177.364 250.579L177.096 250.034C177.338 249.804 177.644 249.619 178.012 249.481C178.381 249.343 178.753 249.274 179.127 249.274C179.502 249.274 179.824 249.34 180.095 249.472C180.372 249.599 180.585 249.784 180.735 250.026C180.884 250.268 180.959 250.556 180.959 250.89C180.959 251.241 180.879 251.581 180.717 251.91C180.562 252.232 180.3 252.595 179.931 252.998L177.857 255.245L177.805 254.9H181.219V255.496H177.261ZM182.641 256.49L182.313 256.239C182.468 256.072 182.572 255.92 182.624 255.781C182.676 255.643 182.702 255.502 182.702 255.358L182.909 255.496H182.278V254.606H183.168V255.237C183.168 255.467 183.128 255.683 183.047 255.885C182.973 256.092 182.837 256.294 182.641 256.49ZM186.128 249.274C186.871 249.274 187.444 249.533 187.848 250.051C188.251 250.564 188.453 251.302 188.453 252.264C188.453 252.961 188.358 253.557 188.167 254.053C187.983 254.543 187.712 254.917 187.355 255.176C187.004 255.436 186.577 255.565 186.076 255.565C185.725 255.565 185.379 255.502 185.039 255.375C184.705 255.243 184.408 255.052 184.149 254.805L184.425 254.26C184.719 254.508 184.999 254.689 185.264 254.805C185.529 254.914 185.797 254.969 186.067 254.969C186.597 254.969 187.007 254.736 187.295 254.269C187.588 253.796 187.735 253.131 187.735 252.273V251.529L187.848 251.754C187.802 252.054 187.695 252.313 187.528 252.532C187.361 252.745 187.151 252.912 186.897 253.033C186.644 253.148 186.364 253.206 186.059 253.206C185.684 253.206 185.353 253.125 185.065 252.964C184.777 252.797 184.552 252.566 184.391 252.273C184.23 251.979 184.149 251.639 184.149 251.253C184.149 250.873 184.232 250.533 184.399 250.233C184.572 249.933 184.809 249.7 185.108 249.533C185.408 249.36 185.748 249.274 186.128 249.274ZM186.162 249.87C185.765 249.87 185.445 249.997 185.203 250.25C184.967 250.498 184.849 250.829 184.849 251.244C184.849 251.653 184.97 251.984 185.212 252.238C185.454 252.486 185.774 252.61 186.171 252.61C186.436 252.61 186.672 252.552 186.88 252.437C187.087 252.316 187.249 252.154 187.364 251.953C187.479 251.745 187.537 251.509 187.537 251.244C187.537 250.968 187.479 250.728 187.364 250.527C187.249 250.319 187.087 250.158 186.88 250.043C186.672 249.928 186.433 249.87 186.162 249.87ZM191.5 255.557C191.051 255.557 190.662 255.49 190.333 255.358C190.005 255.22 189.749 255.024 189.564 254.77C189.386 254.517 189.296 254.214 189.296 253.863C189.296 253.436 189.44 253.082 189.728 252.8C190.016 252.517 190.402 252.342 190.886 252.273L190.843 252.402C190.394 252.316 190.045 252.14 189.797 251.875C189.555 251.61 189.435 251.287 189.435 250.907C189.435 250.573 189.521 250.285 189.694 250.043C189.872 249.795 190.114 249.605 190.42 249.472C190.731 249.34 191.091 249.274 191.5 249.274C191.909 249.274 192.266 249.34 192.572 249.472C192.883 249.605 193.125 249.795 193.298 250.043C193.476 250.285 193.565 250.573 193.565 250.907C193.565 251.287 193.442 251.613 193.194 251.884C192.952 252.149 192.609 252.322 192.165 252.402L192.114 252.273C192.615 252.342 193.004 252.52 193.28 252.808C193.563 253.091 193.704 253.442 193.704 253.863C193.704 254.214 193.612 254.517 193.427 254.77C193.249 255.024 192.995 255.22 192.667 255.358C192.338 255.49 191.949 255.557 191.5 255.557ZM191.5 254.969C191.984 254.969 192.356 254.871 192.615 254.675C192.874 254.479 193.004 254.194 193.004 253.82C193.004 253.468 192.863 253.194 192.58 252.998C192.298 252.797 191.938 252.673 191.5 252.627C191.062 252.673 190.702 252.797 190.42 252.998C190.137 253.194 189.996 253.468 189.996 253.82C189.996 254.194 190.126 254.479 190.385 254.675C190.644 254.871 191.016 254.969 191.5 254.969ZM191.5 252.134C191.903 252.088 192.229 251.964 192.477 251.763C192.73 251.561 192.857 251.293 192.857 250.959C192.857 250.613 192.736 250.345 192.494 250.155C192.258 249.959 191.926 249.861 191.5 249.861C191.074 249.861 190.739 249.959 190.497 250.155C190.261 250.345 190.143 250.613 190.143 250.959C190.143 251.293 190.267 251.561 190.515 251.763C190.768 251.964 191.097 252.088 191.5 252.134ZM195.826 255.496H195.066L198.082 249.654L198.142 249.939H194.651V249.343H198.713V249.87L195.826 255.496Z" fill="#F2F2F2"/>
<path d="M294.812 255.496V254.96L296.964 252.575C297.252 252.252 297.463 251.961 297.595 251.702C297.728 251.443 297.794 251.184 297.794 250.924C297.794 250.584 297.696 250.325 297.5 250.147C297.304 249.962 297.025 249.87 296.662 249.87C296.362 249.87 296.068 249.931 295.78 250.051C295.492 250.167 295.204 250.342 294.916 250.579L294.648 250.034C294.89 249.804 295.195 249.619 295.564 249.481C295.933 249.343 296.305 249.274 296.679 249.274C297.053 249.274 297.376 249.34 297.647 249.472C297.923 249.599 298.137 249.784 298.286 250.026C298.436 250.268 298.511 250.556 298.511 250.89C298.511 251.241 298.43 251.581 298.269 251.91C298.114 252.232 297.851 252.595 297.483 252.998L295.409 255.245L295.357 254.9H298.77V255.496H294.812ZM300.193 256.49L299.865 256.239C300.02 256.072 300.124 255.92 300.176 255.781C300.228 255.643 300.253 255.502 300.253 255.358L300.461 255.496H299.83V254.606H300.72V255.237C300.72 255.467 300.68 255.683 300.599 255.885C300.524 256.092 300.389 256.294 300.193 256.49ZM303.809 255.557C303.412 255.557 303.029 255.49 302.66 255.358C302.297 255.225 301.989 255.038 301.735 254.796L302.012 254.252C302.288 254.488 302.573 254.666 302.867 254.787C303.161 254.903 303.469 254.96 303.792 254.96C304.23 254.96 304.561 254.862 304.786 254.666C305.016 254.471 305.132 254.182 305.132 253.802C305.132 253.422 305.013 253.14 304.777 252.955C304.541 252.765 304.187 252.67 303.714 252.67H303.006V252.074H303.576C304.031 252.074 304.38 251.973 304.622 251.771C304.864 251.57 304.985 251.282 304.985 250.907C304.985 250.573 304.884 250.317 304.682 250.138C304.486 249.959 304.207 249.87 303.844 249.87C303.539 249.87 303.242 249.931 302.954 250.051C302.666 250.167 302.38 250.342 302.098 250.579L301.83 250.034C302.078 249.798 302.383 249.614 302.746 249.481C303.109 249.343 303.484 249.274 303.87 249.274C304.239 249.274 304.561 249.34 304.838 249.472C305.114 249.599 305.325 249.781 305.469 250.017C305.618 250.253 305.693 250.533 305.693 250.855C305.693 251.235 305.592 251.561 305.391 251.832C305.195 252.097 304.924 252.278 304.578 252.376L304.553 252.29C304.967 252.376 305.284 252.552 305.503 252.817C305.722 253.082 305.832 253.419 305.832 253.828C305.832 254.364 305.65 254.787 305.287 255.099C304.924 255.404 304.432 255.557 303.809 255.557ZM309.052 255.557C308.602 255.557 308.213 255.49 307.885 255.358C307.557 255.22 307.3 255.024 307.116 254.77C306.937 254.517 306.848 254.214 306.848 253.863C306.848 253.436 306.992 253.082 307.28 252.8C307.568 252.517 307.954 252.342 308.438 252.273L308.395 252.402C307.946 252.316 307.597 252.14 307.349 251.875C307.107 251.61 306.986 251.287 306.986 250.907C306.986 250.573 307.073 250.285 307.246 250.043C307.424 249.795 307.666 249.605 307.971 249.472C308.283 249.34 308.643 249.274 309.052 249.274C309.461 249.274 309.818 249.34 310.123 249.472C310.435 249.605 310.676 249.795 310.849 250.043C311.028 250.285 311.117 250.573 311.117 250.907C311.117 251.287 310.993 251.613 310.746 251.884C310.504 252.149 310.161 252.322 309.717 252.402L309.665 252.273C310.167 252.342 310.555 252.52 310.832 252.808C311.114 253.091 311.256 253.442 311.256 253.863C311.256 254.214 311.163 254.517 310.979 254.77C310.8 255.024 310.547 255.22 310.218 255.358C309.89 255.49 309.501 255.557 309.052 255.557ZM309.052 254.969C309.536 254.969 309.907 254.871 310.167 254.675C310.426 254.479 310.555 254.194 310.555 253.82C310.555 253.468 310.414 253.194 310.132 252.998C309.85 252.797 309.49 252.673 309.052 252.627C308.614 252.673 308.254 252.797 307.971 252.998C307.689 253.194 307.548 253.468 307.548 253.82C307.548 254.194 307.678 254.479 307.937 254.675C308.196 254.871 308.568 254.969 309.052 254.969ZM309.052 252.134C309.455 252.088 309.781 251.964 310.028 251.763C310.282 251.561 310.409 251.293 310.409 250.959C310.409 250.613 310.288 250.345 310.046 250.155C309.809 249.959 309.478 249.861 309.052 249.861C308.625 249.861 308.291 249.959 308.049 250.155C307.813 250.345 307.695 250.613 307.695 250.959C307.695 251.293 307.819 251.561 308.067 251.763C308.32 251.964 308.648 252.088 309.052 252.134ZM313.378 255.496H312.618L315.634 249.654L315.694 249.939H312.203V249.343H316.265V249.87L313.378 255.496Z" fill="#F2F2F2"/>
<path d="M375.411 255.176V249.758L375.817 249.965L374.149 251.028V250.345L375.722 249.343H376.128V255.176H375.411ZM374.054 255.496V254.9H377.485V255.496H374.054ZM379.046 256.49L378.717 256.239C378.873 256.072 378.976 255.92 379.028 255.781C379.08 255.643 379.106 255.502 379.106 255.358L379.313 255.496H378.683V254.606H379.573V255.237C379.573 255.467 379.532 255.683 379.452 255.885C379.377 256.092 379.241 256.294 379.046 256.49ZM382.532 249.274C383.275 249.274 383.849 249.533 384.252 250.051C384.655 250.564 384.857 251.302 384.857 252.264C384.857 252.961 384.762 253.557 384.572 254.053C384.387 254.543 384.117 254.917 383.759 255.176C383.408 255.436 382.982 255.565 382.48 255.565C382.129 255.565 381.783 255.502 381.443 255.375C381.109 255.243 380.812 255.052 380.553 254.805L380.83 254.26C381.124 254.508 381.403 254.689 381.668 254.805C381.933 254.914 382.201 254.969 382.472 254.969C383.002 254.969 383.411 254.736 383.699 254.269C383.993 253.796 384.14 253.131 384.14 252.273V251.529L384.252 251.754C384.206 252.054 384.099 252.313 383.932 252.532C383.765 252.745 383.555 252.912 383.301 253.033C383.048 253.148 382.768 253.206 382.463 253.206C382.089 253.206 381.757 253.125 381.469 252.964C381.181 252.797 380.956 252.566 380.795 252.273C380.634 251.979 380.553 251.639 380.553 251.253C380.553 250.873 380.637 250.533 380.804 250.233C380.977 249.933 381.213 249.7 381.512 249.533C381.812 249.36 382.152 249.274 382.532 249.274ZM382.567 249.87C382.169 249.87 381.849 249.997 381.607 250.25C381.371 250.498 381.253 250.829 381.253 251.244C381.253 251.653 381.374 251.984 381.616 252.238C381.858 252.486 382.178 252.61 382.575 252.61C382.84 252.61 383.077 252.552 383.284 252.437C383.491 252.316 383.653 252.154 383.768 251.953C383.883 251.745 383.941 251.509 383.941 251.244C383.941 250.968 383.883 250.728 383.768 250.527C383.653 250.319 383.491 250.158 383.284 250.043C383.077 249.928 382.838 249.87 382.567 249.87ZM387.904 255.557C387.455 255.557 387.066 255.49 386.738 255.358C386.409 255.22 386.153 255.024 385.968 254.77C385.79 254.517 385.701 254.214 385.701 253.863C385.701 253.436 385.845 253.082 386.133 252.8C386.421 252.517 386.807 252.342 387.291 252.273L387.247 252.402C386.798 252.316 386.45 252.14 386.202 251.875C385.96 251.61 385.839 251.287 385.839 250.907C385.839 250.573 385.925 250.285 386.098 250.043C386.277 249.795 386.519 249.605 386.824 249.472C387.135 249.34 387.495 249.274 387.904 249.274C388.313 249.274 388.671 249.34 388.976 249.472C389.287 249.605 389.529 249.795 389.702 250.043C389.88 250.285 389.97 250.573 389.97 250.907C389.97 251.287 389.846 251.613 389.598 251.884C389.356 252.149 389.013 252.322 388.57 252.402L388.518 252.273C389.019 252.342 389.408 252.52 389.685 252.808C389.967 253.091 390.108 253.442 390.108 253.863C390.108 254.214 390.016 254.517 389.832 254.77C389.653 255.024 389.399 255.22 389.071 255.358C388.743 255.49 388.354 255.557 387.904 255.557ZM387.904 254.969C388.388 254.969 388.76 254.871 389.019 254.675C389.278 254.479 389.408 254.194 389.408 253.82C389.408 253.468 389.267 253.194 388.985 252.998C388.702 252.797 388.342 252.673 387.904 252.627C387.466 252.673 387.106 252.797 386.824 252.998C386.542 253.194 386.401 253.468 386.401 253.82C386.401 254.194 386.53 254.479 386.789 254.675C387.049 254.871 387.42 254.969 387.904 254.969ZM387.904 252.134C388.308 252.088 388.633 251.964 388.881 251.763C389.134 251.561 389.261 251.293 389.261 250.959C389.261 250.613 389.14 250.345 388.898 250.155C388.662 249.959 388.331 249.861 387.904 249.861C387.478 249.861 387.144 249.959 386.902 250.155C386.666 250.345 386.547 250.613 386.547 250.959C386.547 251.293 386.671 251.561 386.919 251.763C387.173 251.964 387.501 252.088 387.904 252.134ZM392.231 255.496H391.47L394.486 249.654L394.547 249.939H391.055V249.343H395.117V249.87L392.231 255.496Z" fill="#F2F2F2"/>
<defs>
<filter id="filter0_d" x="0" y="0" width="462" height="332.542" filterUnits="userSpaceOnUse" color-interpolation-filters="sRGB">
<feFlood flood-opacity="0" result="BackgroundImageFix"/>
<feColorMatrix in="SourceAlpha" type="matrix" values="0 0 0 0 0 0 0 0 0 0 0 0 0 0 0 0 0 0 127 0"/>
<feOffset dx="2" dy="4"/>
<feGaussianBlur stdDeviation="8"/>
<feColorMatrix type="matrix" values="0 0 0 0 0.2 0 0 0 0 0.2 0 0 0 0 0.2 0 0 0 0.06 0"/>
<feBlend mode="normal" in2="BackgroundImageFix" result="effect1_dropShadow"/>
<feBlend mode="normal" in="SourceGraphic" in2="effect1_dropShadow" result="shape"/>
</filter>
<filter id="filter1_d" x="28.5607" y="58.0405" width="146.328" height="127.617" filterUnits="userSpaceOnUse" color-interpolation-filters="sRGB">
<feFlood flood-opacity="0" result="BackgroundImageFix"/>
<feColorMatrix in="SourceAlpha" type="matrix" values="0 0 0 0 0 0 0 0 0 0 0 0 0 0 0 0 0 0 127 0"/>
<feOffset dy="0.479765"/>
<feGaussianBlur stdDeviation="0.719647"/>
<feColorMatrix type="matrix" values="0 0 0 0 0 0 0 0 0 0 0 0 0 0 0 0 0 0 0.04 0"/>
<feBlend mode="normal" in2="BackgroundImageFix" result="effect1_dropShadow"/>
<feBlend mode="normal" in="SourceGraphic" in2="effect1_dropShadow" result="shape"/>
</filter>
<filter id="filter2_d" x="198.561" y="58.0405" width="232.879" height="127.879" filterUnits="userSpaceOnUse" color-interpolation-filters="sRGB">
<feFlood flood-opacity="0" result="BackgroundImageFix"/>
<feColorMatrix in="SourceAlpha" type="matrix" values="0 0 0 0 0 0 0 0 0 0 0 0 0 0 0 0 0 0 127 0"/>
<feOffset dy="0.479765"/>
<feGaussianBlur stdDeviation="0.719647"/>
<feColorMatrix type="matrix" values="0 0 0 0 0 0 0 0 0 0 0 0 0 0 0 0 0 0 0.04 0"/>
<feBlend mode="normal" in2="BackgroundImageFix" result="effect1_dropShadow"/>
<feBlend mode="normal" in="SourceGraphic" in2="effect1_dropShadow" result="shape"/>
</filter>
<filter id="filter3_d" x="123.839" y="236.92" width="294.321" height="31.3211" filterUnits="userSpaceOnUse" color-interpolation-filters="sRGB">
<feFlood flood-opacity="0" result="BackgroundImageFix"/>
<feColorMatrix in="SourceAlpha" type="matrix" values="0 0 0 0 0 0 0 0 0 0 0 0 0 0 0 0 0 0 127 0"/>
<feOffset dy="1.08028"/>
<feGaussianBlur stdDeviation="1.08028"/>
<feColorMatrix type="matrix" values="0 0 0 0 0 0 0 0 0 0 0 0 0 0 0 0 0 0 0.04 0"/>
<feBlend mode="normal" in2="BackgroundImageFix" result="effect1_dropShadow"/>
<feBlend mode="normal" in="SourceGraphic" in2="effect1_dropShadow" result="shape"/>
</filter>
<clipPath id="clip0">
<rect width="143.45" height="124.739" fill="white" transform="translate(30 59)"/>
</clipPath>
<clipPath id="clip1">
<rect width="114.664" height="77.7219" fill="white" transform="translate(43.4336 90.1847)"/>
</clipPath>
<clipPath id="clip2">
<rect width="30.7879" height="12.9633" fill="white" transform="translate(80.4951 239.744)"/>
</clipPath>
</defs>
</svg>
