<svg fill="none" height="270" viewBox="0 0 373 270" width="373" xmlns="http://www.w3.org/2000/svg" xmlns:xlink="http://www.w3.org/1999/xlink"><filter id="a" color-interpolation-filters="sRGB" filterUnits="userSpaceOnUse" height="270" width="329" x="10" y="0"><feFlood flood-opacity="0" result="BackgroundImageFix"/><feColorMatrix in="SourceAlpha" type="matrix" values="0 0 0 0 0 0 0 0 0 0 0 0 0 0 0 0 0 0 127 0"/><feOffset dy="15"/><feGaussianBlur stdDeviation="22.5"/><feColorMatrix type="matrix" values="0 0 0 0 0.719566 0 0 0 0 0.748166 0 0 0 0 0.795833 0 0 0 0.25 0"/><feBlend in2="BackgroundImageFix" mode="normal" result="effect1_dropShadow"/><feBlend in="SourceGraphic" in2="effect1_dropShadow" mode="normal" result="shape"/></filter><filter id="b" color-interpolation-filters="sRGB" filterUnits="userSpaceOnUse" height="138.538" width="138.538" x="234" y="105"><feFlood flood-opacity="0" result="BackgroundImageFix"/><feColorMatrix in="SourceAlpha" type="matrix" values="0 0 0 0 0 0 0 0 0 0 0 0 0 0 0 0 0 0 127 0"/><feOffset dx="9" dy="20"/><feGaussianBlur stdDeviation="20"/><feColorMatrix type="matrix" values="0 0 0 0 0 0 0 0 0 0.351917 0 0 0 0 0.429167 0 0 0 0.25 0"/><feBlend in2="BackgroundImageFix" mode="normal" result="effect1_dropShadow"/><feBlend in="SourceGraphic" in2="effect1_dropShadow" mode="normal" result="shape"/></filter><filter id="c" color-interpolation-filters="sRGB" filterUnits="userSpaceOnUse" height="128.357" width="128.357" x="0" y="43"><feFlood flood-opacity="0" result="BackgroundImageFix"/><feColorMatrix in="SourceAlpha" type="matrix" values="0 0 0 0 0 0 0 0 0 0 0 0 0 0 0 0 0 0 127 0"/><feOffset dx="9" dy="20"/><feGaussianBlur stdDeviation="20"/><feColorMatrix type="matrix" values="0 0 0 0 0 0 0 0 0 0.351917 0 0 0 0 0.429167 0 0 0 0.25 0"/><feBlend in2="BackgroundImageFix" mode="normal" result="effect1_dropShadow"/><feBlend in="SourceGraphic" in2="effect1_dropShadow" mode="normal" result="shape"/></filter><g filter="url(#a)"><rect fill="#fff" height="180" rx="30" width="239" x="55" y="30"/></g><rect fill="#ff7c74" height="17" rx="8.5" transform="matrix(-1 0 0 -1 620 222)" width="30" x="310" y="111"/><rect fill="#ffc634" height="17" rx="8.5" transform="matrix(-1 0 0 -1 76 274)" width="30" x="38" y="137"/><rect fill="#ffc634" height="17" rx="8.5" transform="matrix(-1 0 0 -1 288 438)" width="24" x="144" y="219"/><g filter="url(#b)"><rect fill="#ffc634" height="58.5379" rx="20" width="58.5379" x="265" y="125"/></g><path clip-rule="evenodd" d="m294.5 139c-1.381 0-2.5 1.119-2.5 2.5v15c0 1.381 1.119 2.5 2.5 2.5s2.5-1.119 2.5-2.5v-15c0-1.381-1.119-2.5-2.5-2.5zm0 23c-1.933 0-3.5 1.567-3.5 3.5s1.567 3.5 3.5 3.5 3.5-1.567 3.5-3.5-1.567-3.5-3.5-3.5z" fill="#fcfdfd" fill-rule="evenodd"/><g filter="url(#c)"><rect fill="#ff7c74" height="48.3574" rx="17" width="48.3574" x="31" y="63"/></g><path d="m55 99c-6.6171 0-12-5.3829-12-12s5.3829-12 12-12 12 5.3829 12 12-5.3829 12-12 12zm4.4191-15.0049c.3909-.3912.3909-1.0231 0-1.4142-.195-.195-.451-.2929-.7072-.2929-.256 0-.5119.0979-.707.2929l-3.0049 3.0052-3.0049-3.0052c-.1951-.195-.451-.2929-.707-.2929-.2562 0-.5122.0979-.7072.2929-.3909.3911-.3909 1.023 0 1.4142l3.0052 3.0049-3.0052 3.0049c-.3909.3912-.3909 1.0231 0 1.4142.3911.3909 1.023.3909 1.4142 0l3.0049-3.0052 3.0049 3.0052c.3912.3909 1.0231.3909 1.4142 0 .3909-.3911.3909-1.023 0-1.4142l-3.0052-3.0049z" fill="#fdfefe"/><path clip-rule="evenodd" d="m143 90c-3.314 0-6 2.6864-6 6v18h-12v-18c0-3.3136-2.686-6-6-6s-6 2.6864-6 6v24c0 3.314 2.686 6 6 6h18v18c0 3.314 2.686 6 6 6s6-2.686 6-6v-48c0-3.314-2.686-6-6-6zm88.001 0c-3.314 0-6 2.6864-6 6v18h-12v-18c0-3.3136-2.686-6-6-6s-6 2.6864-6 6v24c0 3.314 2.686 6 6 6h18v18c0 3.314 2.686 6 6 6s6-2.686 6-6v-48c0-3.314-2.686-6-6-6zm-68.001 0h24c3.314 0 6 2.686 6 6v48c0 3.314-2.686 6-6 6h-24c-3.313 0-6-2.686-6-6v-48c0-3.3136 2.687-6 6-6zm6 48h12v-36h-12z" fill="#ff7c74" fill-rule="evenodd"/></svg>