<svg width="90" height="67" viewBox="0 0 90 67" fill="none" xmlns="http://www.w3.org/2000/svg">
<path fill-rule="evenodd" clip-rule="evenodd" d="M22.466 12.7766C22.7325 12.4585 23.1221 12.278 23.5302 12.2834L63.8506 12.2905C64.2587 12.2851 64.6483 12.4657 64.9148 12.7837C65.1813 13.1017 65.2975 13.5247 65.2321 13.9392L59.3675 50.9761C59.258 51.6712 58.6703 52.179 57.9859 52.1699H29.8508C28.939 52.1622 28.1642 51.482 28.0133 50.5568L22.1487 13.9321C22.0833 13.5176 22.1995 13.0946 22.466 12.7766ZM39.2445 38.7547H48.2245L50.4004 25.6866H36.8129L39.2445 38.7547Z" fill="#2684FF"/>
<path d="M63.4521 25.8811H50.0355L47.7839 38.8528H38.4916L27.5195 51.7046C27.8673 52.0013 28.3107 52.1663 28.7704 52.1701H57.891C58.5992 52.1791 59.2074 51.675 59.3206 50.9851L63.4521 25.8811Z" fill="url(#paint0_linear_2321_8536)"/>
<defs>
<linearGradient id="paint0_linear_2321_8536" x1="54.8837" y1="21.4027" x2="39.6591" y2="43.3086" gradientUnits="userSpaceOnUse">
<stop offset="0.18" stop-color="#0052CC"/>
<stop offset="1" stop-color="#2684FF"/>
</linearGradient>
</defs>
</svg>
