<svg width="28" height="28" viewBox="0 0 28 28" fill="none" xmlns="http://www.w3.org/2000/svg">
<path fill-rule="evenodd" clip-rule="evenodd" d="M1.33245 3.9499C1.66396 3.39739 2.38059 3.21823 2.9331 3.54974L5.84786 5.29859C7.27586 6.15122 9.05668 6.15159 10.4845 5.29859C12.6497 4.00511 15.3493 4.00511 17.5145 5.29859C18.9424 6.1516 20.7223 6.15177 22.1503 5.2991L25.0659 3.54974C25.6185 3.21823 26.3351 3.39739 26.6666 3.9499C26.9981 4.50241 26.8189 5.21905 26.2664 5.55055L23.3479 7.3017C21.1827 8.59518 18.483 8.59518 16.3179 7.3017C14.8897 6.44851 13.1093 6.44851 11.6812 7.3017C9.51601 8.59518 6.81637 8.59518 4.65119 7.3017L4.64928 7.30055L1.73261 5.55055C1.1801 5.21905 1.00094 4.50241 1.33245 3.9499ZM5.84786 14.5352L2.9331 16.284C2.38059 16.6155 1.66396 16.4364 1.33245 15.8838C1.00094 15.3313 1.1801 14.6147 1.73261 14.2832L4.65119 12.532C6.81637 11.2386 9.51601 11.2386 11.6812 12.532C13.1093 13.3852 14.8897 13.3852 16.3179 12.532C18.483 11.2386 21.1827 11.2386 23.3479 12.532L23.3498 12.5332L26.2664 14.2832C26.8189 14.6147 26.9981 15.3313 26.6666 15.8838C26.3351 16.4364 25.6185 16.6155 25.0659 16.284L22.1512 14.5352C20.7232 13.6825 18.9424 13.6821 17.5145 14.5352C15.3493 15.8286 12.6497 15.8286 10.4845 14.5352C9.05668 13.6822 7.27586 13.6825 5.84786 14.5352ZM2.9331 24.4507L5.84786 22.7018C7.27586 21.8492 9.05668 21.8488 10.4845 22.7018C12.6497 23.9953 15.3493 23.9953 17.5145 22.7018C18.9424 21.8488 20.7232 21.8491 22.1512 22.7018L25.0659 24.4507C25.6185 24.7822 26.3351 24.603 26.6666 24.0505C26.9981 23.498 26.8189 22.7814 26.2664 22.4499L23.3498 20.6999L23.3479 20.6987C21.1827 19.4052 18.483 19.4052 16.3179 20.6987C14.8897 21.5519 13.1093 21.5519 11.6812 20.6987C9.51601 19.4052 6.81637 19.4052 4.65119 20.6987L1.73261 22.4499C1.1801 22.7814 1.00094 23.498 1.33245 24.0505C1.66396 24.603 2.38059 24.7822 2.9331 24.4507Z" fill="#009CB7"/>
</svg>
