<svg fill="none" height="24" viewBox="0 0 24 24" width="24" xmlns="http://www.w3.org/2000/svg"><path clip-rule="evenodd" d="m5.00071 1.90906c.60249 0 1.09091.48841 1.09091 1.09091v2.09126c.50816-.43461 1.06506-.81382 1.6618-1.12911 1.50383-.79456 3.20038-1.15131 4.89688-1.0297 1.6965.1216 3.3248.71668 4.6999 1.7176 1.3752 1.00093 2.4419 2.36754 3.0791 3.94452.2257.55863-.0442 1.19444-.6028 1.42016-.5587.2257-1.1945-.04421-1.4202-.60283-.4842-1.19851-1.2949-2.23714-2.34-2.99784s-2.2827-1.21296-3.572-1.30538-2.57872.17871-3.72162.78257c-.5252.27749-1.00977.62012-1.44326 1.01784h2.67128c.6025 0 1.0909.48841 1.0909 1.09091 0 .60249-.4884 1.09091-1.0909 1.09091h-4.99999c-.60249 0-1.09091-.48842-1.09091-1.09091v-5c0-.6025.48842-1.09091 1.09091-1.09091zm.59415 12.67904c-.2257-.5586-.86151-.8285-1.42014-.6028-.55862.2257-.82851.8615-.60281 1.4202.63714 1.5769 1.7039 2.9436 3.07903 3.9445s3.00347 1.596 4.69996 1.7176c1.6965.1216 3.393-.2352 4.8969-1.0297.5968-.3154 1.1538-.6946 1.662-1.1293v2.0915c0 .6025.4884 1.0909 1.0909 1.0909s1.0909-.4884 1.0909-1.0909v-5c0-.6025-.4884-1.091-1.0909-1.091h-5c-.6025 0-1.0909.4885-1.0909 1.091s.4884 1.0909 1.0909 1.0909h2.671c-.4335.3977-.918.7403-1.4432 1.0178-1.1429.6038-2.4323.875-3.7216.7826-1.2893-.0925-2.52688-.5447-3.57198-1.3054s-1.85583-1.7994-2.34006-2.9979z" fill="#fff" fill-rule="evenodd"/></svg>