<svg width="90" height="53" viewBox="0 0 90 53" fill="none" xmlns="http://www.w3.org/2000/svg">
<path d="M5.11523 4.23554C5.11523 2.22862 5.74093 0.601685 8.74099 0.601685H74.0045C76.007 0.601685 77.6303 2.22862 77.6303 4.23554V44.2079C77.6303 46.2149 76.007 47.8418 74.0045 47.8418H8.74099C6.73854 47.8418 5.11523 46.2149 5.11523 44.2079V4.23554Z" fill="#45B4C8"/>
<rect x="7.46094" y="2.6521" width="67.6729" height="43.1658" rx="3" fill="#FAFEFE"/>
<path d="M13.1741 19.6733H0.498047V34.9576H22.7772V16.2988H16.4392L13.1741 19.6733Z" fill="#009CB7"/>
<path d="M43.3047 15.5821C43.3047 15.2314 43.5725 14.947 43.9028 14.947H61.122C61.4524 14.947 61.7202 15.2314 61.7202 15.5821V34.262C61.7202 34.6128 61.4524 34.8971 61.122 34.8971H43.9028C43.5725 34.8971 43.3047 34.6128 43.3047 34.262V15.5821Z" fill="#CBE3FF"/>
<path d="M64.8281 23.6785C64.8281 16.988 70.2519 11.5642 76.9424 11.5642C83.6329 11.5642 89.0567 16.988 89.0567 23.6785C89.0567 30.369 83.6329 35.7928 76.9424 35.7928C70.2519 35.7928 64.8281 30.369 64.8281 23.6785Z" fill="white"/>
<path fill-rule="evenodd" clip-rule="evenodd" d="M11.1777 8.86481V17.3435H15.9246L16.7679 16.3797H22.7419V17.3435H22.9323V34.6862H11.1777V42.0087H38.9261V13.6822H31.7963V6.35974H11.1777V8.86481Z" fill="#DDF6F8"/>
<path d="M11.0801 8.77926V6.27271H21.9418L19.4203 8.77926H11.0801Z" fill="#45B4C8"/>
<rect x="43.3848" y="6.27271" width="14.7608" height="5.84863" rx="2.92432" fill="#CBE3FF"/>
<path d="M25.3689 12.9364C25.3689 12.6719 25.1525 12.4554 24.888 12.4554H16.4477C16.1832 12.4554 15.9668 12.6719 15.9668 12.9364C15.9668 13.2009 16.1832 13.4173 16.4477 13.4173H24.888C25.1525 13.4173 25.3689 13.2009 25.3689 12.9364Z" fill="#45B4C8"/>
<path d="M15.9668 37.3412C15.9668 37.6057 16.1832 37.8221 16.4477 37.8221H33.8562C34.1207 37.8221 34.3371 37.6057 34.3371 37.3412C34.3371 37.0768 34.1207 36.8604 33.8562 36.8604H16.4477C16.1832 36.8604 15.9668 37.0768 15.9668 37.3412Z" fill="#45B4C8"/>
<path d="M25.9926 17.0231H33.8317C34.0963 17.0231 34.3127 16.8067 34.3127 16.5422C34.3127 16.2777 34.0963 16.0613 33.8317 16.0613H25.9926C25.7281 16.0613 25.5117 16.2777 25.5117 16.5422C25.5117 16.8067 25.7281 17.0231 25.9926 17.0231Z" fill="#45B4C8"/>
<path d="M25.9926 20.8946H33.8317C34.0963 20.8946 34.3127 20.6782 34.3127 20.4137C34.3127 20.1492 34.0963 19.9327 33.8317 19.9327H25.9926C25.7281 19.9327 25.5117 20.1492 25.5117 20.4137C25.5117 20.6782 25.7281 20.8946 25.9926 20.8946Z" fill="#45B4C8"/>
<path d="M25.9926 24.7659H33.8317C34.0963 24.7659 34.3127 24.5495 34.3127 24.285C34.3127 24.0205 34.0963 23.8041 33.8317 23.8041H25.9926C25.7281 23.8041 25.5117 24.0205 25.5117 24.285C25.5117 24.5495 25.7281 24.7659 25.9926 24.7659Z" fill="#45B4C8"/>
<path d="M25.9926 28.6376H33.8317C34.0963 28.6376 34.3127 28.4212 34.3127 28.1567C34.3127 27.8922 34.0963 27.6758 33.8317 27.6758H25.9926C25.7281 27.6758 25.5117 27.8922 25.5117 28.1567C25.5117 28.4212 25.7281 28.6376 25.9926 28.6376Z" fill="#45B4C8"/>
<path d="M25.9926 32.4844H33.8317C34.0963 32.4844 34.3127 32.268 34.3127 32.0035C34.3127 31.739 34.0963 31.5226 33.8317 31.5226H25.9926C25.7281 31.5226 25.5117 31.739 25.5117 32.0035C25.5117 32.268 25.7281 32.4844 25.9926 32.4844Z" fill="#45B4C8"/>
<path d="M8.36758 23.7565C8.17521 23.5641 7.88665 23.5641 7.69428 23.7565L5.02514 26.4256C4.83277 26.618 4.83277 26.9065 5.02514 27.0989L7.69428 29.768C7.79047 29.8642 7.9107 29.9123 8.03093 29.9123C8.15116 29.9123 8.27139 29.8642 8.36758 29.768C8.55995 29.5757 8.55995 29.2871 8.36758 29.0947L6.03509 26.7623L8.36758 24.4298C8.55995 24.2614 8.55995 23.9488 8.36758 23.7565Z" fill="#F9FCFF"/>
<path d="M15.0519 23.7565C14.8596 23.5641 14.571 23.5641 14.3787 23.7565C14.1863 23.9488 14.1863 24.2374 14.3787 24.4298L16.7111 26.7623L14.3787 29.0947C14.1863 29.2871 14.1863 29.5757 14.3787 29.768C14.4748 29.8642 14.5951 29.9123 14.7153 29.9123C14.8355 29.9123 14.9558 29.8642 15.0519 29.768L17.7211 27.0989C17.9135 26.9065 17.9135 26.618 17.7211 26.4256L15.0519 23.7565Z" fill="#F9FCFF"/>
<path d="M12.1433 23.6361C11.8787 23.5639 11.6142 23.7082 11.5662 23.9727L10.1474 29.311C10.0753 29.5755 10.2196 29.84 10.4841 29.8881C10.5322 29.8881 10.5562 29.9122 10.6043 29.9122C10.8207 29.9122 11.0131 29.7679 11.0612 29.5515L12.4799 24.2132C12.5521 23.9727 12.4078 23.7082 12.1433 23.6361Z" fill="#F9FCFF"/>
<path d="M90 23.588C90 16.7112 84.5418 11.0847 77.7131 10.8442V3.31819C77.7131 1.49078 76.2223 0 74.3949 0H10.6278H7.88672C6.05931 0 4.56853 1.49078 4.56853 3.31819V19.2599H0.480898C0.216404 19.2599 0 19.4764 0 19.7408V34.6727C0 34.9372 0.216404 35.1536 0.480898 35.1536H4.56853V45.0601C4.56853 46.8875 6.05931 48.3783 7.88672 48.3783H69.0569H74.3949C76.2223 48.3783 77.7131 46.8875 77.7131 45.0601V36.3558C84.5178 36.0914 90 30.4649 90 23.588ZM5.53032 3.31819C5.53032 2.01977 6.58829 0.961795 7.88672 0.961795H10.6278H74.3949C75.6933 0.961795 76.7513 2.01977 76.7513 3.31819V10.8442C76.2944 10.8683 75.8616 10.8923 75.4288 10.9645V3.9674C75.4288 3.00561 74.6353 2.21213 73.6735 2.21213H11.0606H8.60807C7.64627 2.21213 6.85279 3.00561 6.85279 3.9674V19.2599H5.53032V3.31819ZM69.2493 45.2044H8.60807C8.17526 45.2044 7.81459 44.8437 7.81459 44.4109V35.1536H10.7721V42.0785C10.7721 42.343 10.9885 42.5594 11.253 42.5594H39.0248C39.2893 42.5594 39.5057 42.343 39.5057 42.0785V13.3449C39.5057 13.2247 39.4576 13.1045 39.3615 13.0083L32.148 5.79481C32.0518 5.69863 31.9316 5.65055 31.8114 5.65055H11.253C10.9885 5.65055 10.7721 5.86695 10.7721 6.13144V16.9997H9.66604C9.54581 16.9997 9.42559 17.0478 9.32941 17.144L7.79054 18.6829V3.9674C7.79054 3.5346 8.15121 3.17392 8.58402 3.17392H11.0366H73.6495C74.0823 3.17392 74.443 3.5346 74.443 3.9674V11.1328C68.7203 12.4072 64.4403 17.5047 64.4403 23.588C64.4403 29.6714 68.7203 34.7689 74.443 36.0433V44.4109C74.443 44.8437 74.0823 45.2044 73.6495 45.2044H69.2493ZM22.8426 16.062H16.4948C16.3746 16.062 16.2543 16.1101 16.1582 16.2062L15.3647 16.9997C15.3406 16.9997 15.3166 16.9997 15.3166 16.9997H11.7579V9.1611H19.4283C19.5485 9.1611 19.6687 9.11301 19.7649 9.01683L22.1694 6.61234H31.3305V13.6815C31.3305 13.946 31.5469 14.1624 31.8114 14.1624H38.544V41.6217H11.7339V35.1777H22.8426C23.1071 35.1777 23.3235 34.9612 23.3235 34.6968V16.5669C23.3235 16.2784 23.1071 16.062 22.8426 16.062ZM11.253 17.9615H14.4029L13.1285 19.2359H8.60807L9.88245 17.9615H11.253ZM11.7339 8.1993V6.61234H20.7988L19.1878 8.22335H15.4609H11.7339V8.1993ZM38.2073 13.2006H32.2923V7.2856L38.2073 13.2006ZM0.937749 20.1977H13.3209C13.4411 20.1977 13.5613 20.1496 13.6575 20.0534L16.6871 17.0238H22.3617V34.1918H0.937749V20.1977ZM74.3949 47.4165H69.0569H7.86267C6.56425 47.4165 5.50628 46.3585 5.50628 45.0601V35.1536H6.82875V44.4109C6.82875 45.3727 7.62222 46.1662 8.58402 46.1662H69.2252H73.6495C74.6113 46.1662 75.4048 45.3727 75.4048 44.4109V36.2356C75.8376 36.3078 76.2704 36.3318 76.7272 36.3558V45.0601C76.7513 46.3585 75.6933 47.4165 74.3949 47.4165ZM77.2322 35.3941C70.716 35.3941 65.4261 30.1042 65.4261 23.588C65.4261 17.0719 70.716 11.782 77.2322 11.782C83.7483 11.782 89.0382 17.0719 89.0382 23.588C89.0382 30.1042 83.7483 35.3941 77.2322 35.3941Z" fill="#45B4C8"/>
<path d="M77.2342 13.0803C71.4394 13.0803 66.7266 17.7931 66.7266 23.5879C66.7266 29.3827 71.4394 34.0955 77.2342 34.0955C83.029 34.0955 87.7418 29.3827 87.7418 23.5879C87.7418 17.7931 83.029 13.0803 77.2342 13.0803ZM77.2342 33.6146C71.7039 33.6146 67.2075 29.1183 67.2075 23.5879C67.2075 18.0576 71.7039 13.5612 77.2342 13.5612C82.7645 13.5612 87.2609 18.0576 87.2609 23.5879C87.2609 29.1183 82.7645 33.6146 77.2342 33.6146Z" fill="#8EE0EB"/>
<path d="M43.7362 35.1756H61.0966C61.7699 35.1756 62.2988 34.6226 62.2988 33.9734L62.2987 15.557C62.2987 14.8837 61.7456 14.3547 61.0964 14.3547H43.736C43.0628 14.3547 42.5338 14.9078 42.5338 15.557L42.534 33.9734C42.5099 34.6466 43.0629 35.1756 43.7362 35.1756ZM43.4715 15.557C43.4715 15.4127 43.5918 15.3165 43.712 15.3165H61.0724C61.2166 15.3165 61.3128 15.4368 61.3128 15.557L61.313 33.9734C61.313 34.1176 61.1928 34.2138 61.0726 34.2138H43.7362C43.5919 34.2138 43.4958 34.0936 43.4958 33.9734L43.4956 15.557H43.4715Z" fill="#CBE3FF"/>
<path d="M45.8313 12.3835H55.5213C57.3488 12.3835 58.8395 10.8927 58.8395 9.06526C58.8395 7.23785 57.3488 5.74707 55.5213 5.74707H45.8553C44.0279 5.74707 42.5371 7.23785 42.5371 9.06526C42.5371 10.8927 44.0038 12.3835 45.8313 12.3835ZM45.8313 6.70887H55.5213C56.8198 6.70887 57.8777 7.76684 57.8777 9.06526C57.8777 10.3637 56.8198 11.4217 55.5213 11.4217H45.8553C44.5569 11.4217 43.4989 10.3637 43.4989 9.06526C43.4989 7.76684 44.5328 6.70887 45.8313 6.70887Z" fill="#CBE3FF"/>
<circle cx="45.8906" cy="9.05794" r="1.39253" fill="#245CB0"/>
<circle cx="50.625" cy="9.05794" r="1.39253" fill="#245CB0"/>
<circle cx="55.3593" cy="9.05794" r="1.39253" fill="#245CB0"/>
<path fill-rule="evenodd" clip-rule="evenodd" d="M44.3262 18.2724C44.3262 17.8486 44.6697 17.505 45.0935 17.505H53.7903C54.2141 17.505 54.5576 17.8486 54.5576 18.2724C54.5576 18.6962 54.2141 19.0397 53.7903 19.0397H45.0935C44.6697 19.0397 44.3262 18.6962 44.3262 18.2724ZM44.3262 21.3415C44.3262 20.9177 44.6697 20.5742 45.0935 20.5742H59.4166C59.8404 20.5742 60.1839 20.9177 60.1839 21.3415C60.1839 21.7652 59.8404 22.1088 59.4166 22.1088H45.0935C44.6697 22.1088 44.3262 21.7652 44.3262 21.3415ZM45.0935 26.7127C44.6697 26.7127 44.3262 27.0563 44.3262 27.48C44.3262 27.9038 44.6697 28.2473 45.0935 28.2473H59.4166C59.8404 28.2473 60.1839 27.9038 60.1839 27.48C60.1839 27.0563 59.8404 26.7127 59.4166 26.7127H45.0935ZM44.3262 30.5495C44.3262 30.1257 44.6697 29.7821 45.0935 29.7821H54.3018C54.7256 29.7821 55.0692 30.1257 55.0692 30.5495C55.0692 30.9733 54.7256 31.3168 54.3018 31.3168H45.0935C44.6697 31.3168 44.3262 30.9733 44.3262 30.5495ZM56.3463 17.505C55.9225 17.505 55.579 17.8486 55.579 18.2724C55.579 18.6962 55.9225 19.0397 56.3463 19.0397H59.4158C59.8396 19.0397 60.1831 18.6962 60.1831 18.2724C60.1831 17.8486 59.8396 17.505 59.4158 17.505H56.3463ZM44.3262 24.4109C44.3262 23.9871 44.6697 23.6436 45.0935 23.6436H46.1167C46.5405 23.6436 46.884 23.9871 46.884 24.4109C46.884 24.8347 46.5405 25.1783 46.1167 25.1783H45.0935C44.6697 25.1783 44.3262 24.8347 44.3262 24.4109ZM48.6737 23.6436C48.2499 23.6436 47.9063 23.9871 47.9063 24.4109C47.9063 24.8347 48.2499 25.1783 48.6737 25.1783H59.4167C59.8405 25.1783 60.184 24.8347 60.184 24.4109C60.184 23.9871 59.8405 23.6436 59.4167 23.6436H48.6737Z" fill="#245CB0"/>
<path d="M45.8418 45.9884C45.8418 42.3053 48.8275 39.3196 52.5106 39.3196C56.1936 39.3196 59.1793 42.3053 59.1793 45.9884C59.1793 49.6714 56.1936 52.6571 52.5106 52.6571C48.8275 52.6571 45.8418 49.6714 45.8418 45.9884Z" fill="#FFDF34"/>
<path fill-rule="evenodd" clip-rule="evenodd" d="M50.2967 49.2032H54.9702C55.181 49.2032 55.3216 49.0629 55.3216 48.8525V44.7836V44.7485C55.3216 44.7134 55.3216 44.6784 55.2865 44.6433V44.6082C55.2865 44.5731 55.2513 44.5381 55.2162 44.503L53.4592 42.7492C53.4416 42.7316 53.4241 42.7228 53.4065 42.7141C53.3889 42.7053 53.3714 42.6965 53.3538 42.679H53.3187C53.2835 42.679 53.2484 42.679 53.2132 42.6439H53.1781H50.2615C50.0507 42.6439 49.9102 42.7842 49.9102 42.9947V48.7823C49.9453 49.0278 50.121 49.2032 50.2967 49.2032ZM53.5646 43.9067L54.1269 44.4679H53.5646V43.9067ZM50.6481 43.4156H52.8619V44.8187C52.8619 45.0291 53.0024 45.1694 53.2132 45.1694H54.6188V48.5017H50.6481V43.4156ZM53.7433 45.7292H51.4593C51.2485 45.7292 51.1079 45.8695 51.1079 46.08C51.1079 46.2904 51.2485 46.4307 51.4593 46.4307H53.7433C53.9542 46.4307 54.0947 46.2904 54.0947 46.08C54.0947 45.8695 53.9542 45.7292 53.7433 45.7292ZM51.4593 46.9234H53.7433C53.9542 46.9234 54.0947 47.0638 54.0947 47.2742C54.0947 47.4847 53.9542 47.625 53.7433 47.625H51.4593C51.2485 47.625 51.1079 47.4847 51.1079 47.2742C51.1079 47.0638 51.2485 46.9234 51.4593 46.9234Z" fill="#00889F"/>
<path d="M81.9504 19.6385C81.854 19.5655 79.6362 18.0564 77.4425 17.7887C77.4425 17.7887 77.4425 17.7887 77.4184 17.7887C77.3943 17.7887 77.3943 17.7887 77.3702 17.7887C77.3461 17.7887 77.322 17.7887 77.2979 17.7887C77.1774 17.813 74.5739 18.3242 72.6454 19.3951C72.5007 19.4925 72.4043 19.6385 72.4043 19.8089V24.4577C72.4043 24.5064 72.3561 28.9119 77.2497 30.3479C77.2497 30.3479 77.2497 30.3479 77.2738 30.3479C77.322 30.3479 77.3461 30.3722 77.3943 30.3722C77.4425 30.3722 77.4907 30.3722 77.539 30.3479C77.539 30.3479 77.539 30.3479 77.5631 30.3479C77.7318 30.2992 81.637 28.9849 82.1915 24.7985C82.1915 24.7741 82.1915 24.7498 82.1915 24.7255V20.0279C82.1674 19.8819 82.071 19.7359 81.9504 19.6385ZM73.3686 24.5064V20.1253C74.598 19.4925 76.0926 19.0787 76.9122 18.884V29.2283C73.3445 27.8409 73.3686 24.6524 73.3686 24.5064ZM81.2031 24.7255C80.8415 27.3541 78.8889 28.6685 77.8765 29.1796V18.8596C79.2987 19.176 80.6969 20.0036 81.2031 20.32V24.7255Z" fill="#009CB7"/>
</svg>
