<svg width="80" height="80" viewBox="0 0 80 80" fill="none" xmlns="http://www.w3.org/2000/svg">
<path d="M7.19995 34.8619C7.19995 30.4126 10.8068 26.8058 15.256 26.8058V51.0829C15.256 53.3075 13.4526 55.1109 11.228 55.1109C9.00337 55.1109 7.19995 53.3075 7.19995 51.0829V34.8619Z" fill="#009CB7"/>
<rect x="10.0305" y="19.403" width="8.27381" height="35.708" fill="white"/>
<rect x="11.7725" y="17.2256" width="7.18516" height="37.8854" fill="#417BD2"/>
<path d="M67.7296 19.7201V51.7565C67.7296 53.6091 66.2278 55.1109 64.3751 55.1109H11.7725C14.3802 54.4124 14.8148 52.1277 14.7061 51.0727V15.3544C14.7061 13.5018 16.208 12 18.0606 12H27.3287C28.221 12 29.0765 12.3555 29.706 12.9878L33.0688 16.3657H64.3751C66.2278 16.3657 67.7296 17.8675 67.7296 19.7201Z" fill="url(#paint0_linear_17718_2404)"/>
<path fill-rule="evenodd" clip-rule="evenodd" d="M33.0688 17.4838C32.7713 17.4838 32.4862 17.3653 32.2764 17.1545L28.9136 13.7767L29.706 12.9878L33.0688 16.3657H64.3751C66.2278 16.3657 67.7296 17.8675 67.7296 19.7201V51.7565C67.7296 53.6091 66.2278 55.1109 64.3751 55.1109H11.7725C12.6388 54.8789 13.2653 54.4717 13.7117 53.9928C14.609 53.0301 14.7787 51.7772 14.7061 51.0727V15.3544C14.7061 13.5018 16.208 12 18.0606 12H27.3287C28.221 12 29.0765 12.3555 29.706 12.9878L28.9136 13.7767C28.4939 13.3551 27.9236 13.1181 27.3287 13.1181H18.0606C16.8255 13.1181 15.8243 14.1194 15.8243 15.3544V51.0205C15.886 51.7386 15.7678 52.7695 15.2448 53.7512C15.2016 53.8324 15.1557 53.913 15.107 53.9928H64.3751C65.6102 53.9928 66.6114 52.9916 66.6114 51.7565V19.7201C66.6114 18.485 65.6102 17.4838 64.3751 17.4838H33.0688Z" fill="#009CB7"/>
<rect x="49.0044" y="21.1449" width="14.5746" height="1.92495" rx="0.962473" fill="white"/>
<rect x="49.0044" y="24.9943" width="14.5746" height="1.92495" rx="0.962474" fill="white"/>
<rect x="55.3289" y="28.8438" width="8.24977" height="1.92495" rx="0.962474" fill="white"/>
<path d="M19.3931 55.1141C19.3931 48.2581 24.951 42.7002 31.807 42.7002C38.663 42.7002 44.2209 48.2581 44.2209 55.1141C44.2209 61.9702 38.663 67.5281 31.807 67.5281C24.951 67.5281 19.3931 61.9702 19.3931 55.1141Z" fill="white"/>
<path fill-rule="evenodd" clip-rule="evenodd" d="M18.9575 55.1142C18.9575 48.0176 24.7104 42.2648 31.8069 42.2648C38.9035 42.2648 44.6563 48.0176 44.6563 55.1142C44.6563 62.2107 38.9035 67.9636 31.8069 67.9636C24.7104 67.9636 18.9575 62.2107 18.9575 55.1142ZM31.8069 43.1357C25.1914 43.1357 19.8284 48.4986 19.8284 55.1142C19.8284 61.7297 25.1914 67.0927 31.8069 67.0927C38.4225 67.0927 43.7854 61.7297 43.7854 55.1142C43.7854 48.4986 38.4225 43.1357 31.8069 43.1357Z" fill="#009CB7"/>
<path d="M36.7261 50.7607C36.626 50.6853 34.3217 49.1255 32.0425 48.8488C32.0425 48.8488 32.0425 48.8488 32.0175 48.8488C31.9924 48.8488 31.9924 48.8488 31.9674 48.8488C31.9423 48.8488 31.9173 48.8488 31.8922 48.8488C31.767 48.8739 29.062 49.4022 27.0583 50.5092C26.9081 50.6098 26.8079 50.7607 26.8079 50.9368V55.742C26.8079 55.7923 26.7578 60.3458 31.8421 61.8301C31.8421 61.8301 31.8421 61.8301 31.8672 61.8301C31.9173 61.8301 31.9423 61.8553 31.9924 61.8553C32.0425 61.8553 32.0926 61.8553 32.1427 61.8301C32.1427 61.8301 32.1427 61.8301 32.1677 61.8301C32.3431 61.7798 36.4005 60.4213 36.9766 56.0942C36.9766 56.069 36.9766 56.0439 36.9766 56.0187V51.1633C36.9516 51.0123 36.8514 50.8614 36.7261 50.7607ZM27.8097 55.7923V51.2639C29.0871 50.6098 30.6399 50.1821 31.4915 49.9809V60.6729C27.7847 59.2389 27.8097 55.9432 27.8097 55.7923ZM35.9497 56.0187C35.574 58.7357 33.5453 60.0942 32.4933 60.6225V49.9557C33.9711 50.2827 35.4237 51.1381 35.9497 51.4652V56.0187Z" fill="#009CB7"/>
<path d="M62.9395 38.3364C62.9395 35.696 65.0837 33.5555 67.7288 33.5555C70.3739 33.5555 72.5182 35.696 72.5182 38.3364C72.5182 40.9768 70.3739 43.1172 67.7288 43.1172C65.0837 43.1172 62.9395 40.9768 62.9395 38.3364Z" fill="#FFDF34"/>
<path fill-rule="evenodd" clip-rule="evenodd" d="M66.0472 40.6539H69.398C69.5492 40.6539 69.65 40.5533 69.65 40.4024V37.485V37.4599C69.65 37.4348 69.65 37.4096 69.6248 37.3845V37.3593C69.6248 37.3342 69.5996 37.309 69.5744 37.2839L68.3147 36.0264C68.3021 36.0138 68.2895 36.0075 68.2769 36.0012C68.2643 35.9949 68.2517 35.9887 68.2391 35.9761H68.2139C68.1887 35.9761 68.1635 35.9761 68.1383 35.9509H68.1131H66.022C65.8708 35.9509 65.77 36.0515 65.77 36.2024V40.3521C65.7952 40.5281 65.9212 40.6539 66.0472 40.6539ZM68.3902 36.8563L68.7934 37.2587H68.3902V36.8563ZM66.2991 36.5042H67.8864V37.5102C67.8864 37.6611 67.9871 37.7617 68.1383 37.7617H69.1461V40.1509H66.2991V36.5042ZM68.5171 38.1633H66.8795C66.7283 38.1633 66.6275 38.2639 66.6275 38.4148C66.6275 38.5657 66.7283 38.6663 66.8795 38.6663H68.5171C68.6683 38.6663 68.7691 38.5657 68.7691 38.4148C68.7691 38.2639 68.6683 38.1633 68.5171 38.1633ZM66.8795 39.0197H68.5171C68.6683 39.0197 68.7691 39.1203 68.7691 39.2712C68.7691 39.4221 68.6683 39.5227 68.5171 39.5227H66.8795C66.7283 39.5227 66.6275 39.4221 66.6275 39.2712C66.6275 39.1203 66.7283 39.0197 66.8795 39.0197Z" fill="white"/>
<path fill-rule="evenodd" clip-rule="evenodd" d="M22.2234 22.3936C22.2234 21.135 23.3022 20.0562 24.5608 20.0562C25.8194 20.0562 26.8983 21.0451 26.8983 22.3936C26.8983 23.6522 25.8194 24.731 24.5608 24.731C23.3022 24.731 22.2234 23.6522 22.2234 22.3936ZM24.4295 26.6557H24.6928C25.746 26.6557 26.6236 27.5598 26.6236 28.6447V37.8664C26.6236 38.9513 25.746 39.8554 24.6928 39.8554H24.4295C23.3764 39.8554 22.4987 38.9513 22.4987 37.8664V28.6447C22.4987 27.5598 23.3764 26.6557 24.4295 26.6557Z" fill="#009CB7"/>
<defs>
<linearGradient id="paint0_linear_17718_2404" x1="39.751" y1="17.8788" x2="39.751" y2="93.7584" gradientUnits="userSpaceOnUse">
<stop stop-color="#CFF6F9"/>
<stop offset="1" stop-color="#A1F4FA"/>
</linearGradient>
</defs>
</svg>
