<svg width="30" height="34" viewBox="0 0 30 34" fill="none" xmlns="http://www.w3.org/2000/svg">
<path d="M0.484375 19.7271V3.03234C0.484375 1.62217 1.63977 0.479004 3.06502 0.479004H15.0005H26.936C28.3612 0.479004 29.5166 1.62217 29.5166 3.03234V19.7271C29.5166 23.0332 27.7928 26.1054 24.9568 27.8537L16.3652 33.1503C15.5298 33.6652 14.4712 33.6652 13.6358 33.1503L5.0442 27.8538C2.20818 26.1054 0.484375 23.0332 0.484375 19.7271Z" fill="#EDF6FF"/>
<path fill-rule="evenodd" clip-rule="evenodd" d="M15 33.5365V0.479004H15.0005H26.936C28.3612 0.479004 29.5166 1.62217 29.5166 3.03234V19.7271C29.5166 23.0332 27.7928 26.1054 24.9568 27.8537L16.3652 33.1503C15.9474 33.4078 15.4737 33.5366 15 33.5365Z" fill="#D5E7F8"/>
<path fill-rule="evenodd" clip-rule="evenodd" d="M3.06452 0.95708C1.9065 0.95708 0.967742 1.88549 0.967742 3.03075V19.7182C0.967742 22.8576 2.60535 25.7749 5.29957 27.4351L13.8912 32.7293C14.5699 33.1475 15.4301 33.1475 16.1088 32.7293L24.7004 27.4351C27.3946 25.7749 29.0323 22.8576 29.0323 19.7182V3.03076C29.0323 1.8855 28.0935 0.95708 26.9355 0.95708H3.06452ZM0 3.03075C0 1.35691 1.37203 0 3.06452 0H26.9355C28.628 0 30 1.35692 30 3.03076V19.7182C30 23.188 28.19 26.4124 25.2122 28.2474L16.6206 33.5416C15.6286 34.1528 14.3714 34.1528 13.3794 33.5416L4.78781 28.2474C1.80999 26.4124 0 23.188 0 19.7182V3.03075Z" fill="#D5E7F8"/>
<path fill-rule="evenodd" clip-rule="evenodd" d="M13.2461 20.8322C13.2461 20.3273 13.6598 19.918 14.1701 19.918H22.486C22.9963 19.918 23.41 20.3273 23.41 20.8322C23.41 21.3371 22.9963 21.7464 22.486 21.7464H14.1701C13.6598 21.7464 13.2461 21.3371 13.2461 20.8322Z" fill="#009CB7"/>
<path fill-rule="evenodd" clip-rule="evenodd" d="M11.9928 18.3013C12.3849 18.6245 12.4378 19.201 12.1111 19.5889L9.80116 22.3315C9.49886 22.6904 8.97169 22.7661 8.57879 22.5069L7.1928 21.5927C6.7682 21.3126 6.65347 20.745 6.93653 20.3249C7.2196 19.9048 7.79328 19.7913 8.21788 20.0714L8.91303 20.5299L10.6915 18.4183C11.0182 18.0304 11.6008 17.978 11.9928 18.3013Z" fill="#009CB7"/>
<path fill-rule="evenodd" clip-rule="evenodd" d="M13.2461 15.1383C13.2461 14.6334 13.6598 14.2241 14.1701 14.2241H22.486C22.9963 14.2241 23.41 14.6334 23.41 15.1383C23.41 15.6432 22.9963 16.0526 22.486 16.0526H14.1701C13.6598 16.0526 13.2461 15.6432 13.2461 15.1383Z" fill="#009CB7"/>
<path fill-rule="evenodd" clip-rule="evenodd" d="M11.9889 12.6079C12.381 12.9311 12.4339 13.5076 12.1072 13.8955L9.79726 16.6381C9.49497 16.9971 8.96781 17.0727 8.57491 16.8136L7.18892 15.8994C6.76431 15.6194 6.64956 15.0518 6.93261 14.6316C7.21566 14.2115 7.78934 14.098 8.21395 14.378L8.90911 14.8365L10.6876 12.725C11.0143 12.3371 11.5969 12.2847 11.9889 12.6079Z" fill="#009CB7"/>
<path fill-rule="evenodd" clip-rule="evenodd" d="M13.2461 9.44498C13.2461 8.94007 13.6598 8.53076 14.1701 8.53076H22.486C22.9963 8.53076 23.41 8.94007 23.41 9.44498C23.41 9.94988 22.9963 10.3592 22.486 10.3592H14.1701C13.6598 10.3592 13.2461 9.94988 13.2461 9.44498Z" fill="#009CB7"/>
<path fill-rule="evenodd" clip-rule="evenodd" d="M11.9928 6.91407C12.3849 7.2373 12.4378 7.81377 12.1111 8.20165L9.80116 10.9443C9.49886 11.3032 8.97169 11.3789 8.57879 11.1197L7.1928 10.2055C6.7682 9.92542 6.65347 9.35781 6.93653 8.9377C7.2196 8.51759 7.79328 8.40407 8.21788 8.68414L8.91303 9.14268L10.6915 7.03112C11.0182 6.64324 11.6008 6.59083 11.9928 6.91407Z" fill="#009CB7"/>
</svg>
