<svg width="50" height="66" viewBox="0 0 50 66" fill="none" xmlns="http://www.w3.org/2000/svg">
<path d="M48.2314 34.6724C48.2314 35.5776 48.1823 36.471 48.086 37.3507C48.0754 37.4488 48.0648 37.5478 48.0533 37.6459C47.9927 38.1441 47.9166 38.6383 47.827 39.1268C47.8097 39.2238 47.7914 39.3199 47.7721 39.4151C46.1049 47.9031 40.0493 54.7749 32.1166 57.4689C30.921 57.7043 30.4965 56.9559 30.4965 56.3156C30.4965 55.5242 30.5235 52.937 30.5235 49.7222C30.5235 47.4804 29.7698 46.0181 28.9246 45.2728C33.0089 44.8099 37.2548 43.4781 38.9394 38.5648C38.9731 38.4686 39.0049 38.3706 39.0357 38.2715C39.13 37.9724 39.2137 37.6605 39.2888 37.335C39.3109 37.2379 39.3331 37.1398 39.3533 37.0398C39.5737 35.9757 39.6931 34.7744 39.6931 33.417C39.6931 30.7946 38.7777 28.6508 37.2655 26.9679C37.5109 26.3628 38.3186 23.9189 37.0345 20.6091C37.0345 20.6091 35.0573 19.9638 30.5553 23.0726C28.6705 22.5401 26.652 22.2733 24.6479 22.2636C22.6438 22.2733 20.6262 22.5401 18.7443 23.0726C14.2384 19.9638 12.2574 20.6091 12.2574 20.6091C10.9772 23.9189 11.7848 26.3628 12.0293 26.9679C10.5209 28.6508 9.59872 30.7946 9.59872 33.417C9.59872 34.7733 9.71811 35.9747 9.93948 37.0387C9.95965 37.1388 9.98084 37.2369 10.003 37.3339C10.0781 37.6595 10.1629 37.9723 10.2572 38.2715C10.288 38.3705 10.3208 38.4685 10.3535 38.5647C12.037 43.4691 16.2715 44.8196 20.3442 45.2914C19.6694 45.8916 19.0582 46.9517 18.8464 48.5051C17.5006 49.119 14.0873 50.1802 11.9841 46.5074C11.9841 46.5074 10.7365 44.2007 8.3686 44.0311C8.3686 44.0311 6.067 44.0006 8.20785 45.4914C8.20785 45.4914 9.75284 46.2309 10.8261 49.0072C10.8261 49.0072 12.2103 53.2958 18.7713 51.8425C18.7819 53.85 18.8031 55.7428 18.8031 56.3155C18.8031 56.9499 18.3708 57.6943 17.1917 57.4717C9.25418 54.7798 3.19175 47.907 1.52359 39.4151V39.4142C1.50434 39.319 1.48601 39.2229 1.4697 39.1268C1.37924 38.6383 1.30314 38.1441 1.24345 37.6459C1.23092 37.5478 1.22033 37.4497 1.20973 37.3507C1.11355 36.471 1.06445 35.5776 1.06445 34.6724C1.06445 21.4025 11.6251 10.6451 24.6479 10.6451C37.6718 10.6451 48.2314 21.4025 48.2314 34.6724Z" fill="#222123"/>
<path d="M9.78303 44.7819C9.6127 44.6995 9.42781 44.7338 9.37686 44.8564C9.32196 44.9761 9.4173 45.1388 9.58865 45.2173C9.75715 45.2997 9.94093 45.2644 9.99298 45.1448C10.0526 45.0251 9.95438 44.8604 9.78303 44.7819Z" fill="#222123"/>
<path d="M10.885 45.7306C10.7301 45.5639 10.5173 45.5139 10.4018 45.6198C10.2873 45.7276 10.3162 45.9522 10.4702 46.119C10.6194 46.2867 10.8398 46.3367 10.9525 46.2308C11.0699 46.1228 11.0391 45.9002 10.885 45.7306Z" fill="#222123"/>
<path d="M11.8863 47.033C11.7381 46.8211 11.5051 46.7289 11.3597 46.831C11.2115 46.9339 11.2115 47.1899 11.3558 47.4037C11.5021 47.6175 11.738 47.7136 11.8833 47.6106C12.0306 47.5066 12.0306 47.2498 11.8863 47.033Z" fill="#222123"/>
<path d="M13.0238 48.3368C12.8206 48.1397 12.5434 48.0995 12.4125 48.2446C12.2836 48.3897 12.3403 48.6654 12.5463 48.8586C12.7484 49.0567 13.0238 49.0959 13.1527 48.9507C13.2905 48.8066 13.2279 48.5301 13.0238 48.3368Z" fill="#222123"/>
<path d="M14.5286 49.2337C14.259 49.1484 13.9924 49.2377 13.9375 49.4269C13.8836 49.6172 14.0578 49.8378 14.3244 49.9202C14.5921 49.9996 14.8567 49.9143 14.9145 49.726C14.9695 49.5348 14.7953 49.3162 14.5286 49.2337Z" fill="#222123"/>
<path d="M16.3355 49.5191C16.0534 49.524 15.832 49.6858 15.832 49.8859C15.8349 50.081 16.0631 50.2419 16.3451 50.235C16.6252 50.2321 16.8524 50.0673 16.8456 49.8693C16.8457 49.6731 16.6155 49.5132 16.3355 49.5191Z" fill="#222123"/>
<path d="M18.6407 49.5567C18.6051 49.3596 18.3549 49.2438 18.0766 49.2928C17.8023 49.3438 17.6041 49.5429 17.6387 49.741C17.6733 49.9323 17.9265 50.0519 18.2008 50.0009C18.479 49.948 18.6735 49.7499 18.6407 49.5567Z" fill="#222123"/>
</svg>
