<svg width="28" height="28" viewBox="0 0 28 28" fill="none" xmlns="http://www.w3.org/2000/svg">
<path fill-rule="evenodd" clip-rule="evenodd" d="M14.2646 4.27813C14.719 3.82374 15.462 3.82374 15.9163 4.27813L20.863 9.22482C21.3174 9.67921 21.3174 10.4222 20.863 10.8766L16.7689 14.9706C16.7605 14.9786 16.7521 14.9867 16.7439 14.9949C16.739 14.9998 16.7342 15.0047 16.7294 15.0097C16.7261 15.0131 16.7228 15.0165 16.7196 15.02L15.901 15.8386L9.30254 9.24018L14.2646 4.27813ZM6.80056 8.44233L4.36633 10.8766C3.00072 12.2422 3.00072 14.4625 4.36633 15.8281L9.313 20.7748C10.6786 22.1404 12.899 22.1404 14.2646 20.7748L17.5692 17.4702L22.5189 22.4199C22.9745 22.8755 23.7132 22.8755 24.1688 22.4199C24.6244 21.9643 24.6244 21.2256 24.1688 20.77L19.2191 15.8203L22.5129 12.5265C23.8785 11.1609 23.8785 8.94052 22.5129 7.57491L17.5663 2.62821C16.2006 1.2626 13.9803 1.2626 12.6147 2.62821L6.85476 8.38812C6.84547 8.39683 6.83629 8.40572 6.82722 8.41479C6.81815 8.42386 6.80927 8.43304 6.80056 8.44233ZM7.65262 10.8901L14.2511 17.4885L12.6147 19.1249C12.1603 19.5793 11.4173 19.5793 10.9629 19.1249L6.01625 14.1782C5.56186 13.7238 5.56186 12.9809 6.01625 12.5265L7.65262 10.8901ZM1.16602 24.4998C1.16602 23.8555 1.68835 23.3332 2.33268 23.3332H17.4993C18.1437 23.3332 18.666 23.8555 18.666 24.4998C18.666 25.1442 18.1437 25.6665 17.4993 25.6665H2.33268C1.68835 25.6665 1.16602 25.1442 1.16602 24.4998Z" fill="#009CB7"/>
</svg>
