<svg width="24" height="24" viewBox="0 0 24 24" fill="none" xmlns="http://www.w3.org/2000/svg">
<path fill-rule="evenodd" clip-rule="evenodd" d="M20 3C20 2.44772 19.5523 2 19 2C18.4477 2 18 2.44772 18 3V5.29179C17.0786 4.4677 15.9918 3.83734 14.8036 3.4478C12.9746 2.84822 11.0015 2.85081 9.17407 3.45517C7.34664 4.05953 5.7611 5.23384 4.65023 6.80569C3.53935 8.37754 2.96167 10.2641 3.00197 12.1885C3.04228 14.1128 3.69847 15.9736 4.87419 17.4975C6.04991 19.0215 7.68323 20.1284 9.53437 20.6557C11.3855 21.183 13.3569 21.1029 15.1592 20.4273C16.9615 19.7517 18.4997 18.516 19.548 16.9018C19.8488 16.4386 19.7172 15.8192 19.254 15.5184C18.7908 15.2176 18.1715 15.3493 17.8707 15.8125C17.0553 17.068 15.859 18.0291 14.4572 18.5546C13.0554 19.0801 11.5221 19.1423 10.0823 18.7322C8.64251 18.3221 7.37215 17.4612 6.4577 16.2759C5.54325 15.0906 5.03289 13.6433 5.00154 12.1466C4.97018 10.6499 5.4195 9.18253 6.28351 7.95998C7.14752 6.73743 8.38072 5.82408 9.80206 5.35402C11.2234 4.88396 12.758 4.88195 14.1805 5.34829C15.2067 5.68467 16.1355 6.25196 16.899 7H14C13.4477 7 13 7.44772 13 8C13 8.55228 13.4477 9 14 9H19C19.5523 9 20 8.55228 20 8V3Z" fill="#45B4C8"/>
</svg>
