<svg width="28" height="28" viewBox="0 0 28 28" fill="none" xmlns="http://www.w3.org/2000/svg">
<path fill-rule="evenodd" clip-rule="evenodd" d="M9.22041 5.11691C8.45816 6.06319 8.16602 7.47213 8.16602 9.33317V10.4998H15.8494L19.7231 6.62619C19.5448 5.59834 19.1579 4.90518 18.4447 4.42189C17.6627 3.89201 16.3225 3.49984 13.9993 3.49984C11.2824 3.49984 9.93876 4.22513 9.22041 5.11691ZM21.5998 4.74944C21.2325 3.87723 20.6504 3.09796 19.7536 2.49028C18.4093 1.57933 16.5178 1.1665 13.9993 1.1665C10.883 1.1665 8.7266 2.01038 7.40329 3.65318C6.12387 5.24148 5.83268 7.33254 5.83268 9.33317V10.6344C4.54999 10.8146 3.47346 11.2091 2.67439 12.0082C1.42838 13.2542 1.16602 15.1748 1.16602 17.4998V19.8332C1.16602 21.6352 1.32496 23.1947 1.97 24.3793L1.50772 24.8415C1.05211 25.2972 1.05211 26.0358 1.50772 26.4915C1.96334 26.9471 2.70203 26.9471 3.15764 26.4915L16.8159 12.8332H19.8327C20.2311 12.8332 20.5908 12.8442 20.9242 12.8657L20.9242 12.8658L20.9332 12.8663C22.7051 12.9669 23.4246 13.3293 23.8037 13.8097C24.2368 14.3584 24.4993 15.3802 24.4993 17.4998V19.8332C24.4993 22.1748 24.1784 23.1709 23.6744 23.6749C23.1704 24.1789 22.1744 24.4998 19.8327 24.4998H8.16602C7.76762 24.4998 7.4079 24.4888 7.07446 24.4673C6.43147 24.4258 5.87659 24.9134 5.8351 25.5564C5.79362 26.1994 6.28124 26.7543 6.92424 26.7957C7.31413 26.8209 7.72441 26.8332 8.16602 26.8332H19.8327C22.1577 26.8332 24.0783 26.5708 25.3243 25.3248C26.5703 24.0788 26.8327 22.1582 26.8327 19.8332V17.4998C26.8327 15.3729 26.6111 13.6005 25.6354 12.3641C24.6065 11.0605 22.9944 10.6467 21.07 10.537C20.6814 10.512 20.2726 10.4998 19.8327 10.4998H19.1493L26.491 3.15813C26.9466 2.70252 26.9466 1.96382 26.491 1.50821C26.0354 1.0526 25.2967 1.0526 24.8411 1.50821L21.5998 4.74944ZM13.5161 12.8332H8.16602C5.82434 12.8332 4.8283 13.1541 4.32431 13.6581C3.82032 14.1621 3.49935 15.1582 3.49935 17.4998V19.8332C3.49935 21.0973 3.59292 21.9736 3.75914 22.5901L13.5161 12.8332ZM17.2485 16.1862C16.858 15.6736 16.126 15.5747 15.6135 15.9652C15.1009 16.3557 15.002 17.0877 15.3925 17.6003C15.6145 17.8917 15.7489 18.2627 15.7489 18.6665C15.7489 19.6322 14.9645 20.4165 13.9989 20.4165C13.4511 20.4165 12.941 20.1485 12.6089 19.7225C12.2127 19.2144 11.4797 19.1236 10.9715 19.5198C10.4634 19.916 10.3726 20.6491 10.7688 21.1572C11.51 22.1079 12.68 22.7499 13.9989 22.7499C16.2532 22.7499 18.0822 20.9209 18.0822 18.6665C18.0822 17.7404 17.7732 16.8747 17.2485 16.1862Z" fill="#009CB7"/>
</svg>
