<svg width="42" height="42" viewBox="0 0 42 42" fill="none" xmlns="http://www.w3.org/2000/svg">
<path d="M42 11.5221C42 5.15863 36.8414 0 30.4779 0H11.5221C5.15863 0 0 5.15863 0 11.5221V30.4779C0 36.8414 5.15863 42 11.5221 42H30.4779C36.8414 42 42 36.8414 42 30.4779V11.5221Z" fill="#009CB7"/>
<path fill-rule="evenodd" clip-rule="evenodd" d="M19.5073 10.9847C20.3613 10.2374 21.6365 10.2374 22.4905 10.9847L30.0738 17.6201C30.5654 18.0502 30.8474 18.6716 30.8474 19.3248V28.5832C30.8474 29.8342 29.8332 30.8484 28.5822 30.8484H13.4155C12.1645 30.8484 11.1504 29.8342 11.1504 28.5832V19.3248C11.1504 18.6716 11.4324 18.0502 11.9239 17.6201L19.5073 10.9847ZM20.934 12.7635L20.9341 12.7636L20.934 12.7635ZM20.9989 12.8202L28.4837 19.3695V28.4847H13.514V19.3695L20.9989 12.8202ZM13.4806 19.3988L13.4804 19.3989L13.4155 19.3248L13.4804 19.3989C13.4805 19.3989 13.4805 19.3988 13.4806 19.3988Z" fill="white"/>
<path fill-rule="evenodd" clip-rule="evenodd" d="M21.0002 17.6516C21.6529 17.6516 22.182 18.1807 22.182 18.8334V25.3334C22.182 25.9861 21.6529 26.5152 21.0002 26.5152C20.3475 26.5152 19.8184 25.9861 19.8184 25.3334V18.8334C19.8184 18.1807 20.3475 17.6516 21.0002 17.6516Z" fill="white"/>
<path fill-rule="evenodd" clip-rule="evenodd" d="M16.5684 22.0834C16.5684 21.4307 17.0975 20.9016 17.7502 20.9016L24.2502 20.9016C24.9029 20.9016 25.432 21.4307 25.432 22.0834C25.432 22.7361 24.9029 23.2652 24.2502 23.2652L17.7502 23.2652C17.0975 23.2652 16.5684 22.7361 16.5684 22.0834Z" fill="white"/>
</svg>
