<svg fill="none" height="24" viewBox="0 0 24 24" width="24" xmlns="http://www.w3.org/2000/svg"><g clip-rule="evenodd" fill="#fff" fill-rule="evenodd"><path d="m10.6222 2.75513c.7884-.68978 1.9655-.68978 2.7538 0l7 6.125c.4537.39704.714.97063.714 1.57357v8.5462c0 1.1548-.9361 2.0909-2.0909 2.0909h-13.99999c-1.15478 0-2.09091-.9361-2.09091-2.0909v-8.5462c0-.60294.26028-1.17653.71404-1.57357zm1.317 1.64199.0002.00009zm.0599.05238 6.9091 6.0455v8.414h-13.81818v-8.414zm-6.93996 6.0725-.00016.0001-.05987-.0684.05987.0684c.00005 0 .00011-.0001.00016-.0001z"/><path d="m11.9991 8.90918c.6025 0 1.0909.48842 1.0909 1.09092v6c0 .6025-.4884 1.0909-1.0909 1.0909s-1.0909-.4884-1.0909-1.0909v-6c0-.6025.4884-1.09092 1.0909-1.09092z"/><path d="m7.9082 13.0001c0-.6025.48842-1.0909 1.09091-1.0909h5.99999c.6025 0 1.0909.4884 1.0909 1.0909s-.4884 1.0909-1.0909 1.0909h-5.99999c-.60249 0-1.09091-.4884-1.09091-1.0909z"/></g></svg>