<svg width="40" height="46" viewBox="0 0 40 46" fill="none" xmlns="http://www.w3.org/2000/svg">
<path d="M0.646484 26.822V4.12258C0.646484 2.20521 2.18701 0.650879 4.08734 0.650879H20.0013H35.9153C37.8156 0.650879 39.3562 2.20522 39.3562 4.12258V26.822C39.3562 31.3172 37.0578 35.4944 33.2764 37.8715L21.8209 45.073C20.7071 45.7732 19.2955 45.7732 18.1817 45.073L6.72625 37.8715C2.94489 35.4944 0.646484 31.3172 0.646484 26.822Z" fill="#417BD2"/>
<path fill-rule="evenodd" clip-rule="evenodd" d="M20 45.5982V0.650879H20.0007H35.9147C37.815 0.650879 39.3555 2.20522 39.3555 4.12258V26.822C39.3555 31.3172 37.0571 35.4944 33.2758 37.8715L21.8203 45.073C21.2632 45.4233 20.6316 45.5983 20 45.5982Z" fill="#316ABF"/>
<path fill-rule="evenodd" clip-rule="evenodd" d="M4.08602 1.29487C2.542 1.29487 1.29032 2.55096 1.29032 4.10043V26.6775C1.29032 30.925 3.4738 34.8719 7.0661 37.118L18.5216 44.2807C19.4266 44.8466 20.5734 44.8466 21.4784 44.2807L32.9339 37.118C36.5262 34.8719 38.7097 30.925 38.7097 26.6775V4.10043C38.7097 2.55097 37.458 1.29487 35.914 1.29487H4.08602ZM0 4.10043C0 1.83583 1.82937 0 4.08602 0H35.914C38.1706 0 40 1.83583 40 4.10043V26.6775C40 31.3721 37.5867 35.7345 33.6163 38.217L22.1608 45.3797C20.8381 46.2067 19.1619 46.2068 17.8392 45.3797L6.38375 38.217C2.41332 35.7345 0 31.3721 0 26.6775V4.10043Z" fill="#417BD2"/>
<path fill-rule="evenodd" clip-rule="evenodd" d="M12.5005 15.7663C14.0322 13.0231 16.9474 11.1675 20.2943 11.1675C24.4835 11.1675 27.9982 14.0739 28.9684 17.9974C31.6498 18.4113 33.7038 20.7485 33.7038 23.5697C33.7038 26.6831 31.2022 29.207 28.1165 29.207H13.5895C9.88658 29.207 6.88477 26.1783 6.88477 22.4422C6.88477 19.0801 9.31506 16.2916 12.5005 15.7663ZM20.2943 13.4224C17.6173 13.4224 15.3044 15.0053 14.2293 17.2991C14.0558 17.6692 13.697 17.9154 13.2921 17.9421C10.9627 18.0959 9.11968 20.0524 9.11968 22.4422C9.11968 24.933 11.1209 26.9521 13.5895 26.9521H28.1165C29.9679 26.9521 31.4688 25.4377 31.4688 23.5697C31.4688 21.7016 29.9679 20.1873 28.1165 20.1873C28.0967 20.1873 28.0768 20.1874 28.0567 20.1878C27.4934 20.1977 27.0109 19.7828 26.9311 19.22C26.4668 15.9425 23.6712 13.4224 20.2943 13.4224Z" fill="white"/>
</svg>
