<svg width="50" height="50" viewBox="0 0 50 50" fill="none" xmlns="http://www.w3.org/2000/svg">
<path fill-rule="evenodd" clip-rule="evenodd" d="M12.4993 16.6667C12.4993 13.2149 15.2976 10.4167 18.7493 10.4167C22.2011 10.4167 24.9994 13.2149 24.9994 16.6667C24.9994 20.1184 22.2011 22.9167 18.7493 22.9167C15.2976 22.9167 12.4993 20.1184 12.4993 16.6667ZM18.7493 6.25C12.9964 6.25 8.33268 10.9137 8.33268 16.6667C8.33268 22.4196 12.9964 27.0833 18.7493 27.0833C24.5023 27.0833 29.166 22.4196 29.166 16.6667C29.166 10.9137 24.5023 6.25 18.7493 6.25ZM45.2224 22.3065C46.036 21.4929 46.036 20.1738 45.2224 19.3602C44.4088 18.5466 43.0897 18.5466 42.2761 19.3602L39.5826 22.0537L36.8892 19.3602C36.0756 18.5466 34.7565 18.5466 33.9429 19.3602C33.1293 20.1738 33.1293 21.4929 33.9429 22.3065L36.6364 25L33.9429 27.6935C33.1293 28.507 33.1293 29.8261 33.9429 30.6397C34.7565 31.4533 36.0756 31.4533 36.8892 30.6397L39.5826 27.9462L42.2761 30.6397C43.0897 31.4533 44.4088 31.4533 45.2224 30.6397C46.036 29.8261 46.036 28.5071 45.2224 27.6935L42.5289 25L45.2224 22.3065ZM8.33268 39.5833C8.33268 38.1954 9.17655 36.6839 11.0661 35.4242C12.9412 34.1742 15.6515 33.3333 18.7493 33.3333C21.8472 33.3333 24.5575 34.1742 26.4326 35.4242C28.3221 36.6839 29.166 38.1954 29.166 39.5833C29.166 40.7339 30.0988 41.6667 31.2493 41.6667C32.3999 41.6667 33.3327 40.7339 33.3327 39.5833C33.3327 36.3688 31.3783 33.7137 28.7438 31.9573C26.0947 30.1913 22.5551 29.1667 18.7493 29.1667C14.9436 29.1667 11.404 30.1913 8.75489 31.9573C6.12037 33.7137 4.16602 36.3688 4.16602 39.5833C4.16602 40.7339 5.09876 41.6667 6.24935 41.6667C7.39994 41.6667 8.33268 40.7339 8.33268 39.5833Z" fill="#EE5E5E"/>
</svg>
