<svg width="50" height="50" viewBox="0 0 50 50" fill="none" xmlns="http://www.w3.org/2000/svg">
<path fill-rule="evenodd" clip-rule="evenodd" d="M4.16602 6.24984C4.16602 5.09924 5.09876 4.1665 6.24935 4.1665H7.84876C9.8582 4.1665 11.5814 5.60067 11.9462 7.57672L12.4705 10.4165H41.1305C43.81 10.4165 45.793 12.9092 45.1905 15.5201L41.3443 32.1868C40.908 34.0773 39.2246 35.4165 37.2843 35.4165H14.6193C14.1085 35.4261 13.6248 35.2467 13.2487 34.9335C13.0151 34.739 12.8229 34.4928 12.6915 34.2083C12.6142 34.0414 12.5582 33.8626 12.5273 33.6753L7.84876 8.33317H6.24935C5.09876 8.33317 4.16602 7.40043 4.16602 6.24984ZM16.3166 31.2498L37.2843 31.2498L41.1305 14.5832H13.2397L16.3166 31.2498ZM16.666 37.4998C14.3648 37.4998 12.4993 39.3653 12.4993 41.6665C12.4993 43.9677 14.3648 45.8332 16.666 45.8332C18.9672 45.8332 20.8327 43.9677 20.8327 41.6665C20.8327 39.3653 18.9672 37.4998 16.666 37.4998ZM37.4994 37.4998C35.1982 37.4998 33.3327 39.3653 33.3327 41.6665C33.3327 43.9677 35.1982 45.8332 37.4994 45.8332C39.8005 45.8332 41.666 43.9677 41.666 41.6665C41.666 39.3653 39.8005 37.4998 37.4994 37.4998Z" fill="#EE5E5E"/>
<path fill-rule="evenodd" clip-rule="evenodd" d="M28.9047 17.5C28.9047 16.4481 28.0519 15.5953 26.9999 15.5953C25.9479 15.5953 25.0952 16.4481 25.0952 17.5V22.5237C25.0952 23.5757 25.9479 24.4285 26.9999 24.4285C28.0519 24.4285 28.9047 23.5757 28.9047 22.5237V17.5ZM26.9048 25.9999C25.8528 25.9999 25 26.8527 25 27.9047V28.0951C25 29.1471 25.8528 29.9999 26.9048 29.9999H27.0952C28.1472 29.9999 29 29.1471 29 28.0951V27.9047C29 26.8527 28.1472 25.9999 27.0952 25.9999H26.9048Z" fill="#EE5E5E"/>
</svg>
