<svg width="30" height="35" viewBox="0 0 30 35" fill="none" xmlns="http://www.w3.org/2000/svg">
<path d="M0.484497 20.1168V3.0923C0.484497 1.65427 1.63989 0.488525 3.06514 0.488525H15.0006H26.9361C28.3614 0.488525 29.5168 1.65428 29.5168 3.0923V20.1168C29.5168 23.4883 27.793 26.6211 24.9569 28.404L16.3653 33.8051C15.53 34.3303 14.4713 34.3303 13.6359 33.8051L5.04432 28.404C2.2083 26.6211 0.484497 23.4882 0.484497 20.1168Z" fill="#0B47A2"/>
<path fill-rule="evenodd" clip-rule="evenodd" d="M15 34.1992V0.48877H15.0006H26.9361C28.3614 0.48877 29.5168 1.65452 29.5168 3.09255V20.1171C29.5168 23.4885 27.793 26.6214 24.9569 28.4043L16.3653 33.8054C15.9475 34.0681 15.4737 34.1994 15 34.1992Z" fill="#013685"/>
<path fill-rule="evenodd" clip-rule="evenodd" d="M3.06452 0.971154C1.9065 0.971154 0.967742 1.91322 0.967742 3.07532V20.0081C0.967742 23.1937 2.60535 26.1539 5.29957 27.8385L13.8912 33.2106C14.5699 33.6349 15.4301 33.6349 16.1088 33.2106L24.7004 27.8385C27.3946 26.1539 29.0323 23.1937 29.0323 20.0081V3.07532C29.0323 1.91322 28.0935 0.971154 26.9355 0.971154H3.06452ZM0 3.07532C0 1.37687 1.37203 0 3.06452 0H26.9355C28.628 0 30 1.37687 30 3.07532V20.0081C30 23.529 28.19 26.8009 25.2122 28.6628L16.6206 34.0348C15.6286 34.6551 14.3714 34.6551 13.3794 34.0348L4.78781 28.6628C1.80999 26.8009 0 23.529 0 20.0081V3.07532Z" fill="#0B47A2"/>
<path fill-rule="evenodd" clip-rule="evenodd" d="M8.2584 15.305C8.2584 11.946 10.6793 9.15746 13.8567 8.61873L15.2162 10.0202L13.4471 11.8439C12.1364 12.4351 11.223 13.7621 11.223 15.3044C11.223 17.1518 12.5335 18.6903 14.2678 19.0254L13.3833 19.9372C13.1389 20.1891 13.1389 20.5919 13.3833 20.8439L14.576 22.0734C11.052 21.8634 8.2584 18.9134 8.2584 15.305ZM16.2649 21.9613C19.361 21.3557 21.6986 18.6058 21.6986 15.305C21.6986 11.7683 19.0149 8.86406 15.59 8.55237L16.5741 9.56684C16.8185 9.81877 16.8185 10.2216 16.5741 10.4735L15.5246 11.5554C17.3397 11.8223 18.7337 13.3991 18.7337 15.3044C18.7337 16.9662 17.6733 18.3781 16.1979 18.8889L14.7412 20.3905L16.2649 21.9613ZM14.9785 6.82959C10.3392 6.82959 6.57837 10.6242 6.57837 15.305C6.57837 19.9859 10.3392 23.7805 14.9785 23.7805C19.6178 23.7805 23.3787 19.9859 23.3787 15.305C23.3787 10.6242 19.6178 6.82959 14.9785 6.82959ZM12.9031 15.3044C12.9031 14.148 13.8322 13.2106 14.9784 13.2106C16.1246 13.2106 17.0537 14.148 17.0537 15.3044C17.0537 16.4608 16.1246 17.3982 14.9784 17.3982C13.8322 17.3982 12.9031 16.4608 12.9031 15.3044Z" fill="white"/>
</svg>
