<svg width="30" height="35" viewBox="0 0 30 35" fill="none" xmlns="http://www.w3.org/2000/svg">
<path d="M0.484497 20.1168V3.0923C0.484497 1.65427 1.63989 0.488525 3.06514 0.488525H15.0006H26.9361C28.3614 0.488525 29.5168 1.65428 29.5168 3.0923V20.1168C29.5168 23.4883 27.793 26.6211 24.9569 28.404L16.3653 33.8051C15.53 34.3303 14.4713 34.3303 13.6359 33.8051L5.04432 28.404C2.2083 26.6212 0.484497 23.4883 0.484497 20.1168Z" fill="#45B4C8"/>
<path fill-rule="evenodd" clip-rule="evenodd" d="M15 34.1992V0.48877H15.0006H26.9361C28.3614 0.48877 29.5168 1.65452 29.5168 3.09255V20.1171C29.5168 23.4885 27.793 26.6214 24.9569 28.4043L16.3653 33.8054C15.9475 34.0681 15.4737 34.1994 15 34.1992Z" fill="#22A5BB"/>
<path fill-rule="evenodd" clip-rule="evenodd" d="M3.06452 0.971154C1.9065 0.971154 0.967742 1.91322 0.967742 3.07532V20.0081C0.967742 23.1937 2.60535 26.1539 5.29957 27.8385L13.8912 33.2106C14.5699 33.6349 15.4301 33.6349 16.1088 33.2106L24.7004 27.8385C27.3946 26.1539 29.0323 23.1937 29.0323 20.0081V3.07532C29.0323 1.91322 28.0935 0.971154 26.9355 0.971154H3.06452ZM0 3.07532C0 1.37687 1.37203 0 3.06452 0H26.9355C28.628 0 30 1.37687 30 3.07532V20.0081C30 23.529 28.19 26.8009 25.2122 28.6628L16.6206 34.0348C15.6286 34.6551 14.3714 34.6551 13.3794 34.0348L4.78781 28.6628C1.80999 26.8009 0 23.529 0 20.0081V3.07532Z" fill="#45B4C8"/>
<path fill-rule="evenodd" clip-rule="evenodd" d="M16.0513 6.18408H9.839C8.85881 6.18408 8.06421 6.9858 8.06421 7.97477V22.3003C8.06421 23.2893 8.85881 24.091 9.839 24.091H20.4877C21.4679 24.091 22.2625 23.2893 22.2625 22.3003V12.4843C22.2629 12.4734 22.2631 12.4625 22.2631 12.4515C22.2631 12.4405 22.2629 12.4296 22.2625 12.4187V12.2652C22.2625 11.814 22.0937 11.3795 21.79 11.0485L17.8527 6.75816C17.5168 6.39215 17.0448 6.18408 16.5504 6.18408H16.0513ZM15.1639 7.97477L9.839 7.97477L9.839 22.3003H20.4877L20.4877 13.3468L16.9387 13.3468C15.9585 13.3468 15.1639 12.5451 15.1639 11.5562L15.1639 7.97477ZM19.8371 11.5562L16.9387 11.5562V8.3979L19.8371 11.5562ZM17.5672 15.4002C17.2207 15.0505 16.6588 15.0505 16.3123 15.4002C15.9657 15.7498 15.9657 16.3167 16.3123 16.6664L17.4596 17.824L16.3123 18.9816C15.9657 19.3312 15.9657 19.8981 16.3123 20.2478C16.6588 20.5974 17.2207 20.5974 17.5672 20.2478L19.342 18.4571C19.6886 18.1074 19.6886 17.5405 19.342 17.1909L17.5672 15.4002ZM14.0159 15.4002C14.3624 15.7498 14.3624 16.3167 14.0159 16.6664L12.8686 17.824L14.0159 18.9816C14.3624 19.3312 14.3624 19.8981 14.0159 20.2478C13.6693 20.5974 13.1074 20.5974 12.7609 20.2478L10.9861 18.4571C10.8197 18.2892 10.7262 18.0614 10.7262 17.824C10.7262 17.5865 10.8197 17.3588 10.9861 17.1909L12.7609 15.4002C13.1074 15.0505 13.6693 15.0505 14.0159 15.4002Z" fill="white"/>
</svg>
