<svg width="90" height="53" viewBox="0 0 90 53" fill="none" xmlns="http://www.w3.org/2000/svg">
<path d="M5.11534 4.23542C5.11534 2.22849 5.74104 0.601562 8.74109 0.601562H74.0046C76.0071 0.601562 77.6304 2.22849 77.6304 4.23542V44.2078C77.6304 46.2147 76.0071 47.8417 74.0046 47.8417H8.7411C6.73865 47.8417 5.11534 46.2147 5.11534 44.2078V4.23542Z" fill="#45B4C8"/>
<rect x="7.46056" y="2.65234" width="67.6729" height="43.1658" rx="3" fill="#FAFEFE"/>
<path d="M13.1737 19.6733H0.497665V34.9576H22.7768V16.2988H16.4388L13.1737 19.6733Z" fill="#009CB7"/>
<path d="M43.3038 15.5824C43.3038 15.2316 43.5716 14.9473 43.9019 14.9473H61.1212C61.4515 14.9473 61.7193 15.2316 61.7193 15.5824V34.2623C61.7193 34.613 61.4515 34.8974 61.1212 34.8974H43.9019C43.5716 34.8974 43.3038 34.613 43.3038 34.2623V15.5824Z" fill="#CBE3FF"/>
<path d="M64.8287 23.6787C64.8287 16.9882 70.2525 11.5645 76.943 11.5645C83.6335 11.5645 89.0573 16.9882 89.0573 23.6787C89.0573 30.3693 83.6335 35.793 76.943 35.793C70.2525 35.793 64.8287 30.3693 64.8287 23.6787Z" fill="white"/>
<path fill-rule="evenodd" clip-rule="evenodd" d="M11.1783 8.86444V17.3431H15.9249L16.7686 16.3789H22.7426V17.3431H22.9329V34.6859H11.1783V42.0084H38.9267V13.6819H31.7969V6.35938H11.1783V8.86444Z" fill="#DDF6F8"/>
<path d="M11.0797 8.77999V6.27344H21.9414L19.42 8.77999H11.0797Z" fill="#45B4C8"/>
<rect x="43.3854" y="6.27344" width="14.7608" height="5.84863" rx="2.92432" fill="#CBE3FF"/>
<path d="M25.3685 12.936C25.3685 12.6715 25.1521 12.4551 24.8876 12.4551H16.4473C16.1828 12.4551 15.9664 12.6715 15.9664 12.936C15.9664 13.2005 16.1828 13.4169 16.4473 13.4169H24.8876C25.1521 13.4169 25.3685 13.2005 25.3685 12.936Z" fill="#45B4C8"/>
<path d="M15.9664 37.3403C15.9664 37.6048 16.1828 37.8212 16.4473 37.8212H33.8558C34.1203 37.8212 34.3367 37.6048 34.3367 37.3403C34.3367 37.0758 34.1203 36.8594 33.8558 36.8594H16.4473C16.1828 36.8594 15.9664 37.0758 15.9664 37.3403Z" fill="#45B4C8"/>
<path d="M25.9937 17.0224H33.8328C34.0973 17.0224 34.3138 16.806 34.3138 16.5415C34.3138 16.277 34.0973 16.0605 33.8328 16.0605H25.9937C25.7292 16.0605 25.5128 16.277 25.5128 16.5415C25.5128 16.806 25.7292 17.0224 25.9937 17.0224Z" fill="#45B4C8"/>
<path d="M25.9937 20.8954H33.8328C34.0973 20.8954 34.3138 20.679 34.3138 20.4145C34.3138 20.15 34.0973 19.9336 33.8328 19.9336H25.9937C25.7292 19.9336 25.5128 20.15 25.5128 20.4145C25.5128 20.679 25.7292 20.8954 25.9937 20.8954Z" fill="#45B4C8"/>
<path d="M25.9937 24.7665H33.8328C34.0973 24.7665 34.3138 24.5501 34.3138 24.2856C34.3138 24.0211 34.0973 23.8047 33.8328 23.8047H25.9937C25.7292 23.8047 25.5128 24.0211 25.5128 24.2856C25.5128 24.5501 25.7292 24.7665 25.9937 24.7665Z" fill="#45B4C8"/>
<path d="M25.9937 28.6376H33.8328C34.0973 28.6376 34.3138 28.4212 34.3138 28.1567C34.3138 27.8922 34.0973 27.6758 33.8328 27.6758H25.9937C25.7292 27.6758 25.5128 27.8922 25.5128 28.1567C25.5128 28.4212 25.7292 28.6376 25.9937 28.6376Z" fill="#45B4C8"/>
<path d="M25.9937 32.4853H33.8328C34.0973 32.4853 34.3138 32.2689 34.3138 32.0044C34.3138 31.7399 34.0973 31.5234 33.8328 31.5234H25.9937C25.7292 31.5234 25.5128 31.7399 25.5128 32.0044C25.5128 32.2689 25.7292 32.4853 25.9937 32.4853Z" fill="#45B4C8"/>
<path d="M8.36866 23.7556C8.17629 23.5632 7.88774 23.5632 7.69537 23.7556L5.02622 26.4247C4.83385 26.6171 4.83385 26.9057 5.02622 27.098L7.69537 29.7672C7.79155 29.8634 7.91178 29.9115 8.03201 29.9115C8.15225 29.9115 8.27248 29.8634 8.36866 29.7672C8.56103 29.5748 8.56103 29.2863 8.36866 29.0939L6.03617 26.7614L8.36866 24.4289C8.56103 24.2606 8.56103 23.948 8.36866 23.7556Z" fill="#F9FCFF"/>
<path d="M15.0521 23.7556C14.8597 23.5632 14.5711 23.5632 14.3788 23.7556C14.1864 23.948 14.1864 24.2365 14.3788 24.4289L16.7112 26.7614L14.3788 29.0939C14.1864 29.2863 14.1864 29.5748 14.3788 29.7672C14.4749 29.8634 14.5952 29.9115 14.7154 29.9115C14.8356 29.9115 14.9559 29.8634 15.0521 29.7672L17.7212 27.098C17.9136 26.9057 17.9136 26.6171 17.7212 26.4247L15.0521 23.7556Z" fill="#F9FCFF"/>
<path d="M12.1434 23.6357C11.8789 23.5636 11.6144 23.7078 11.5663 23.9723L10.1475 29.3106C10.0754 29.5751 10.2197 29.8397 10.4842 29.8877C10.5323 29.8877 10.5563 29.9118 10.6044 29.9118C10.8208 29.9118 11.0132 29.7675 11.0613 29.5511L12.48 24.2128C12.5522 23.9723 12.4079 23.7078 12.1434 23.6357Z" fill="#F9FCFF"/>
<path d="M90 23.588C90 16.7112 84.5418 11.0847 77.7131 10.8442V3.31819C77.7131 1.49078 76.2223 0 74.3949 0H10.6278H7.88672C6.05931 0 4.56853 1.49078 4.56853 3.31819V19.2599H0.480898C0.216404 19.2599 0 19.4764 0 19.7408V34.6727C0 34.9372 0.216404 35.1536 0.480898 35.1536H4.56853V45.0601C4.56853 46.8875 6.05931 48.3783 7.88672 48.3783H69.0569H74.3949C76.2223 48.3783 77.7131 46.8875 77.7131 45.0601V36.3558C84.5178 36.0914 90 30.4649 90 23.588ZM5.53032 3.31819C5.53032 2.01977 6.58829 0.961795 7.88672 0.961795H10.6278H74.3949C75.6933 0.961795 76.7513 2.01977 76.7513 3.31819V10.8442C76.2944 10.8683 75.8616 10.8923 75.4288 10.9645V3.9674C75.4288 3.00561 74.6353 2.21213 73.6735 2.21213H11.0606H8.60807C7.64627 2.21213 6.85279 3.00561 6.85279 3.9674V19.2599H5.53032V3.31819ZM69.2493 45.2044H8.60807C8.17526 45.2044 7.81459 44.8437 7.81459 44.4109V35.1536H10.7721V42.0785C10.7721 42.343 10.9885 42.5594 11.253 42.5594H39.0248C39.2893 42.5594 39.5057 42.343 39.5057 42.0785V13.3449C39.5057 13.2247 39.4576 13.1045 39.3615 13.0083L32.148 5.79481C32.0518 5.69863 31.9316 5.65055 31.8114 5.65055H11.253C10.9885 5.65055 10.7721 5.86695 10.7721 6.13144V16.9997H9.66604C9.54581 16.9997 9.42559 17.0478 9.32941 17.144L7.79054 18.6829V3.9674C7.79054 3.5346 8.15121 3.17392 8.58402 3.17392H11.0366H73.6495C74.0823 3.17392 74.443 3.5346 74.443 3.9674V11.1328C68.7203 12.4072 64.4403 17.5047 64.4403 23.588C64.4403 29.6714 68.7203 34.7689 74.443 36.0433V44.4109C74.443 44.8437 74.0823 45.2044 73.6495 45.2044H69.2493ZM22.8426 16.062H16.4948C16.3746 16.062 16.2543 16.1101 16.1582 16.2062L15.3647 16.9997C15.3406 16.9997 15.3166 16.9997 15.3166 16.9997H11.7579V9.1611H19.4283C19.5485 9.1611 19.6687 9.11301 19.7649 9.01683L22.1694 6.61234H31.3305V13.6815C31.3305 13.946 31.5469 14.1624 31.8114 14.1624H38.544V41.6217H11.7339V35.1777H22.8426C23.1071 35.1777 23.3235 34.9612 23.3235 34.6968V16.5669C23.3235 16.2784 23.1071 16.062 22.8426 16.062ZM11.253 17.9615H14.4029L13.1285 19.2359H8.60807L9.88245 17.9615H11.253ZM11.7339 8.1993V6.61234H20.7988L19.1878 8.22335H15.4609H11.7339V8.1993ZM38.2073 13.2006H32.2923V7.2856L38.2073 13.2006ZM0.937749 20.1977H13.3209C13.4411 20.1977 13.5613 20.1496 13.6575 20.0534L16.6871 17.0238H22.3617V34.1918H0.937749V20.1977ZM74.3949 47.4165H69.0569H7.86267C6.56425 47.4165 5.50628 46.3585 5.50628 45.0601V35.1536H6.82875V44.4109C6.82875 45.3727 7.62222 46.1662 8.58402 46.1662H69.2252H73.6495C74.6113 46.1662 75.4048 45.3727 75.4048 44.4109V36.2356C75.8376 36.3078 76.2704 36.3318 76.7272 36.3558V45.0601C76.7513 46.3585 75.6933 47.4165 74.3949 47.4165ZM77.2322 35.3941C70.716 35.3941 65.4261 30.1042 65.4261 23.588C65.4261 17.0719 70.716 11.782 77.2322 11.782C83.7483 11.782 89.0382 17.0719 89.0382 23.588C89.0382 30.1042 83.7483 35.3941 77.2322 35.3941Z" fill="#45B4C8"/>
<path d="M77.2343 13.0801C71.4395 13.0801 66.7267 17.7929 66.7267 23.5877C66.7267 29.3825 71.4395 34.0953 77.2343 34.0953C83.0291 34.0953 87.7419 29.3825 87.7419 23.5877C87.7419 17.7929 83.0291 13.0801 77.2343 13.0801ZM77.2343 33.6144C71.704 33.6144 67.2076 29.118 67.2076 23.5877C67.2076 18.0574 71.704 13.561 77.2343 13.561C82.7646 13.561 87.261 18.0574 87.261 23.5877C87.261 29.118 82.7646 33.6144 77.2343 33.6144Z" fill="#8EE0EB"/>
<path d="M43.7368 35.1764H61.0972C61.7705 35.1764 62.2994 34.6233 62.2994 33.9741L62.2993 15.5577C62.2993 14.8845 61.7462 14.3555 61.097 14.3555H43.7366C43.0634 14.3555 42.5344 14.9085 42.5344 15.5577L42.5346 33.9741C42.5105 34.6474 43.0635 35.1764 43.7368 35.1764ZM43.4721 15.5577C43.4721 15.4134 43.5923 15.3173 43.7126 15.3173H61.073C61.2172 15.3173 61.3134 15.4375 61.3134 15.5577L61.3136 33.9741C61.3136 34.1184 61.1934 34.2146 61.0731 34.2146H43.7368C43.5925 34.2146 43.4963 34.0943 43.4963 33.9741L43.4962 15.5577H43.4721Z" fill="#CBE3FF"/>
<path d="M45.8314 12.3825H55.5214C57.3489 12.3825 58.8396 10.8917 58.8396 9.06429C58.8396 7.23687 57.3489 5.74609 55.5214 5.74609H45.8554C44.028 5.74609 42.5372 7.23687 42.5372 9.06429C42.5372 10.8917 44.004 12.3825 45.8314 12.3825ZM45.8314 6.70789H55.5214C56.8199 6.70789 57.8778 7.76586 57.8778 9.06429C57.8778 10.3627 56.8199 11.4207 55.5214 11.4207H45.8554C44.557 11.4207 43.499 10.3627 43.499 9.06429C43.499 7.76586 44.5329 6.70789 45.8314 6.70789Z" fill="#CBE3FF"/>
<circle cx="45.8917" cy="9.05855" r="1.39253" fill="#245CB0"/>
<circle cx="50.6246" cy="9.05855" r="1.39253" fill="#245CB0"/>
<circle cx="55.3604" cy="9.05855" r="1.39253" fill="#245CB0"/>
<path fill-rule="evenodd" clip-rule="evenodd" d="M44.3258 18.2732C44.3258 17.8494 44.6693 17.5059 45.0931 17.5059H53.7899C54.2137 17.5059 54.5572 17.8494 54.5572 18.2732C54.5572 18.697 54.2137 19.0406 53.7899 19.0406H45.0931C44.6693 19.0406 44.3258 18.697 44.3258 18.2732ZM44.3259 21.3415C44.3259 20.9178 44.6694 20.5742 45.0932 20.5742H59.4163C59.8401 20.5742 60.1837 20.9178 60.1837 21.3415C60.1837 21.7653 59.8401 22.1088 59.4163 22.1088H45.0932C44.6694 22.1088 44.3259 21.7653 44.3259 21.3415ZM45.0932 26.7129C44.6694 26.7129 44.3259 27.0564 44.3259 27.4802C44.3259 27.904 44.6694 28.2475 45.0932 28.2475H59.4163C59.8401 28.2475 60.1837 27.904 60.1837 27.4802C60.1837 27.0564 59.8401 26.7129 59.4163 26.7129H45.0932ZM44.3258 30.5503C44.3258 30.1265 44.6693 29.783 45.0931 29.783H54.3014C54.7252 29.783 55.0688 30.1265 55.0688 30.5503C55.0688 30.9741 54.7252 31.3177 54.3014 31.3177H45.0931C44.6693 31.3177 44.3258 30.9741 44.3258 30.5503ZM56.3462 17.5059C55.9224 17.5059 55.5788 17.8494 55.5788 18.2732C55.5788 18.697 55.9224 19.0406 56.3462 19.0406H59.4156C59.8394 19.0406 60.183 18.697 60.183 18.2732C60.183 17.8494 59.8394 17.5059 59.4156 17.5059H56.3462ZM44.3258 24.4118C44.3258 23.988 44.6693 23.6444 45.0931 23.6444H46.1163C46.5401 23.6444 46.8837 23.988 46.8837 24.4118C46.8837 24.8356 46.5401 25.1791 46.1163 25.1791H45.0931C44.6693 25.1791 44.3258 24.8356 44.3258 24.4118ZM48.6733 23.6445C48.2495 23.6445 47.906 23.9881 47.906 24.4119C47.906 24.8357 48.2495 25.1792 48.6733 25.1792H59.4163C59.8401 25.1792 60.1837 24.8357 60.1837 24.4119C60.1837 23.9881 59.8401 23.6445 59.4163 23.6445H48.6733Z" fill="#245CB0"/>
<path d="M45.8414 45.9891C45.8414 42.306 48.8271 39.3203 52.5102 39.3203C56.1933 39.3203 59.179 42.306 59.179 45.9891C59.179 49.6722 56.1933 52.6579 52.5102 52.6579C48.8271 52.6579 45.8414 49.6722 45.8414 45.9891Z" fill="#FFDF34"/>
<path fill-rule="evenodd" clip-rule="evenodd" d="M50.2959 49.2038H54.9694C55.1803 49.2038 55.3208 49.0635 55.3208 48.8531V44.7842V44.7491C55.3208 44.714 55.3208 44.679 55.2857 44.6439V44.6088C55.2857 44.5737 55.2506 44.5387 55.2154 44.5036L53.4585 42.7498C53.4409 42.7322 53.4233 42.7235 53.4057 42.7147C53.3882 42.7059 53.3706 42.6971 53.353 42.6796H53.3179C53.2828 42.6796 53.2476 42.6796 53.2125 42.6445H53.1773H50.2608C50.05 42.6445 49.9094 42.7848 49.9094 42.9953V48.7829C49.9445 49.0284 50.1202 49.2038 50.2959 49.2038ZM53.5639 43.9073L54.1261 44.4685H53.5639V43.9073ZM50.6473 43.4162H52.8611V44.8193C52.8611 45.0297 53.0016 45.17 53.2125 45.17H54.618V48.5023H50.6473V43.4162ZM53.7427 45.7305H51.4586C51.2478 45.7305 51.1073 45.8708 51.1073 46.0812C51.1073 46.2917 51.2478 46.432 51.4586 46.432H53.7427C53.9535 46.432 54.0941 46.2917 54.0941 46.0812C54.0941 45.8708 53.9535 45.7305 53.7427 45.7305ZM51.4585 46.9241H53.7426C53.9534 46.9241 54.094 47.0644 54.094 47.2748C54.094 47.4853 53.9534 47.6256 53.7426 47.6256H51.4585C51.2477 47.6256 51.1071 47.4853 51.1071 47.2748C51.1071 47.0644 51.2477 46.9241 51.4585 46.9241Z" fill="#00889F"/>
<path d="M81.9515 19.6389C81.8551 19.5658 79.6373 18.0568 77.4436 17.7891C77.4436 17.7891 77.4436 17.7891 77.4195 17.7891C77.3954 17.7891 77.3954 17.7891 77.3713 17.7891C77.3472 17.7891 77.3231 17.7891 77.299 17.7891C77.1784 17.8134 74.575 18.3245 72.6465 19.3955C72.5018 19.4928 72.4054 19.6389 72.4054 19.8092V24.4581C72.4054 24.5068 72.3572 28.9122 77.2508 30.3482C77.2508 30.3482 77.2508 30.3482 77.2749 30.3482C77.3231 30.3482 77.3472 30.3726 77.3954 30.3726C77.4436 30.3726 77.4918 30.3726 77.54 30.3482C77.54 30.3482 77.54 30.3482 77.5642 30.3482C77.7329 30.2996 81.6381 28.9852 82.1926 24.7988C82.1926 24.7745 82.1926 24.7502 82.1926 24.7258V20.0283C82.1685 19.8823 82.072 19.7362 81.9515 19.6389ZM73.3697 24.5068V20.1257C74.5991 19.4928 76.0937 19.0791 76.9133 18.8843V29.2286C73.3455 27.8413 73.3697 24.6528 73.3697 24.5068ZM81.2042 24.7258C80.8426 27.3545 78.89 28.6688 77.8775 29.18V18.86C79.2998 19.1764 80.698 20.004 81.2042 20.3204V24.7258Z" fill="#009CB7"/>
</svg>
