<svg width="50" height="50" viewBox="0 0 50 50" fill="none" xmlns="http://www.w3.org/2000/svg">
<path fill-rule="evenodd" clip-rule="evenodd" d="M12.4998 16.6667C12.4998 13.2149 15.2981 10.4167 18.7498 10.4167C22.2016 10.4167 24.9998 13.2149 24.9998 16.6667C24.9998 20.1184 22.2016 22.9167 18.7498 22.9167C15.2981 22.9167 12.4998 20.1184 12.4998 16.6667ZM18.7498 6.25C12.9969 6.25 8.33317 10.9137 8.33317 16.6667C8.33317 22.4196 12.9969 27.0833 18.7498 27.0833C24.5028 27.0833 29.1665 22.4196 29.1665 16.6667C29.1665 10.9137 24.5028 6.25 18.7498 6.25ZM45.2229 22.3065C46.0365 21.4929 46.0365 20.1738 45.2229 19.3602C44.4093 18.5466 43.0902 18.5466 42.2766 19.3602L39.5831 22.0537L36.8896 19.3602C36.0761 18.5466 34.757 18.5466 33.9434 19.3602C33.1298 20.1738 33.1298 21.4929 33.9434 22.3065L36.6369 25L33.9434 27.6935C33.1298 28.507 33.1298 29.8261 33.9434 30.6397C34.757 31.4533 36.0761 31.4533 36.8896 30.6397L39.5831 27.9462L42.2766 30.6397C43.0902 31.4533 44.4093 31.4533 45.2229 30.6397C46.0365 29.8261 46.0365 28.5071 45.2229 27.6935L42.5294 25L45.2229 22.3065ZM8.33317 39.5833C8.33317 38.1954 9.17704 36.6839 11.0666 35.4242C12.9417 34.1742 15.652 33.3333 18.7498 33.3333C21.8477 33.3333 24.558 34.1742 26.433 35.4242C28.3226 36.6839 29.1665 38.1954 29.1665 39.5833C29.1665 40.7339 30.0992 41.6667 31.2498 41.6667C32.4004 41.6667 33.3332 40.7339 33.3332 39.5833C33.3332 36.3688 31.3788 33.7137 28.7443 31.9573C26.0952 30.1913 22.5556 29.1667 18.7498 29.1667C14.9441 29.1667 11.4045 30.1913 8.75538 31.9573C6.12086 33.7137 4.1665 36.3688 4.1665 39.5833C4.1665 40.7339 5.09924 41.6667 6.24984 41.6667C7.40043 41.6667 8.33317 40.7339 8.33317 39.5833Z" fill="#EE5E5E"/>
</svg>
