<svg width="28" height="28" viewBox="0 0 28 28" fill="none" xmlns="http://www.w3.org/2000/svg">
<path fill-rule="evenodd" clip-rule="evenodd" d="M10.4993 1.1665C7.46761 1.1665 5.0419 1.76571 3.40356 3.40405C1.76522 5.04239 1.16602 7.4681 1.16602 10.4998V17.4998C1.16602 20.5316 1.76522 22.9573 3.40356 24.5956C5.0419 26.234 7.46761 26.8332 10.4993 26.8332H17.4993C20.5311 26.8332 22.9568 26.234 24.5951 24.5956C26.2335 22.9573 26.8327 20.5316 26.8327 17.4998V10.4998C26.8327 7.4681 26.2335 5.04239 24.5951 3.40405C22.9568 1.76571 20.5311 1.1665 17.4993 1.1665H10.4993ZM3.49935 10.4998C3.49935 7.69824 4.06681 6.04062 5.05347 5.05396C6.04013 4.0673 7.69775 3.49984 10.4993 3.49984H17.4993C20.3009 3.49984 21.9586 4.0673 22.9452 5.05396C23.9319 6.04062 24.4993 7.69824 24.4993 10.4998V17.4998C24.4993 20.3014 23.9319 21.9591 22.9452 22.9457C21.9586 23.9324 20.3009 24.4998 17.4993 24.4998H10.4993C7.69775 24.4998 6.04013 23.9324 5.05347 22.9457C4.06681 21.9591 3.49935 20.3014 3.49935 17.4998V10.4998ZM7.92439 10.2582C8.38 9.8026 9.1187 9.8026 9.57431 10.2582L12.3014 12.9853L13.3786 11.3694C13.5725 11.0785 13.8866 10.89 14.2344 10.8555C14.5822 10.8211 14.9272 10.9444 15.1743 11.1915L18.1565 14.1738C18.3223 13.7314 18.7491 13.4165 19.2493 13.4165C19.8937 13.4165 20.416 13.9388 20.416 14.5832V16.9165C20.416 17.2151 20.3021 17.5137 20.0743 17.7415C19.9618 17.8539 19.8321 17.9386 19.6937 17.9956C19.562 18.0499 19.4181 18.0807 19.2674 18.083L19.2472 18.0832H16.916C16.2717 18.0832 15.7493 17.5608 15.7493 16.9165C15.7493 16.4162 16.0642 15.9895 16.5066 15.8237L14.5307 13.8477L13.4534 15.4637C13.2595 15.7545 12.9455 15.9431 12.5976 15.9775C12.2498 16.0119 11.9049 15.8886 11.6577 15.6415L7.92439 11.9081C7.46878 11.4525 7.46878 10.7138 7.92439 10.2582Z" fill="#009CB7"/>
</svg>
