<svg width="80" height="80" viewBox="0 0 80 80" fill="none" xmlns="http://www.w3.org/2000/svg">
<path d="M15.4263 21.583C15.4263 20.8111 16.052 20.1853 16.824 20.1853H56.4924C57.2644 20.1853 57.8901 20.8111 57.8901 21.583V60.6361C57.8901 61.408 57.2644 62.0337 56.4924 62.0337H16.824C16.052 62.0337 15.4263 61.408 15.4263 60.6361V21.583Z" fill="#009CB7"/>
<path d="M11.1182 20.7414C11.1182 18.7344 12.7452 17.1074 14.7521 17.1074H58.5639C60.5709 17.1074 62.1979 18.7344 62.1979 20.7414V28.2435C62.1979 30.2505 60.5709 31.8775 58.5639 31.8775H14.7521C12.7451 31.8775 11.1182 30.2505 11.1182 28.2435V20.7414Z" fill="white"/>
<path fill-rule="evenodd" clip-rule="evenodd" d="M10.5591 20.7416C10.5591 18.4259 12.4364 16.5486 14.7521 16.5486H58.5639C60.8796 16.5486 62.7569 18.4259 62.7569 20.7416V28.2437C62.7569 30.5595 60.8796 32.4368 58.5639 32.4368H14.7521C12.4364 32.4368 10.5591 30.5595 10.5591 28.2437V20.7416ZM14.7521 17.6667C13.0539 17.6667 11.6772 19.0434 11.6772 20.7416V28.2437C11.6772 29.9419 13.0539 31.3186 14.7521 31.3186H58.5639C60.2621 31.3186 61.6388 29.9419 61.6388 28.2437V20.7416C61.6388 19.0434 60.2621 17.6667 58.5639 17.6667H14.7521Z" fill="#009CB7"/>
<path d="M22.1957 24.4925C22.1957 26.1919 20.818 27.5696 19.1186 27.5696C17.4192 27.5696 16.0415 26.1919 16.0415 24.4925C16.0415 22.7931 17.4192 21.4154 19.1186 21.4154C20.818 21.4154 22.1957 22.7931 22.1957 24.4925Z" fill="#CBE3FF"/>
<path d="M20.5546 24.4926C20.5546 25.2857 19.9117 25.9286 19.1186 25.9286C18.3255 25.9286 17.6826 25.2857 17.6826 24.4926C17.6826 23.6995 18.3255 23.0566 19.1186 23.0566C19.9117 23.0566 20.5546 23.6995 20.5546 24.4926Z" fill="#245CB0"/>
<path d="M27.1191 24.5951C27.1191 24.0853 27.5324 23.672 28.0423 23.672H55.9412C56.4511 23.672 56.8644 24.0853 56.8644 24.5951C56.8644 25.105 56.4511 25.5183 55.9412 25.5183H28.0423C27.5324 25.5183 27.1191 25.105 27.1191 24.5951Z" fill="#009CB7"/>
<path d="M11.1182 37.9735C11.1182 35.9665 12.7452 34.3395 14.7521 34.3395H58.5639C60.5709 34.3395 62.1979 35.9665 62.1979 37.9735V45.4755C62.1979 47.4825 60.5709 49.1095 58.5639 49.1095H14.7521C12.7451 49.1095 11.1182 47.4825 11.1182 45.4755V37.9735Z" fill="white"/>
<path fill-rule="evenodd" clip-rule="evenodd" d="M10.5591 37.9737C10.5591 35.6579 12.4364 33.7806 14.7521 33.7806H58.5639C60.8796 33.7806 62.7569 35.6579 62.7569 37.9737V45.4758C62.7569 47.7915 60.8796 49.6688 58.5639 49.6688H14.7521C12.4364 49.6688 10.5591 47.7915 10.5591 45.4758V37.9737ZM14.7521 34.8988C13.0539 34.8988 11.6772 36.2755 11.6772 37.9737V45.4758C11.6772 47.174 13.0539 48.5507 14.7521 48.5507H58.5639C60.2621 48.5507 61.6388 47.174 61.6388 45.4758V37.9737C61.6388 36.2755 60.2621 34.8988 58.5639 34.8988H14.7521Z" fill="#009CB7"/>
<ellipse cx="19.1186" cy="41.7246" rx="3.07709" ry="3.07709" fill="#CBE3FF"/>
<ellipse cx="19.1186" cy="41.7247" rx="1.43597" ry="1.43598" fill="#245CB0"/>
<rect x="27.1191" y="40.9041" width="29.7452" height="1.84626" rx="0.923128" fill="#009CB7"/>
<path d="M11.1182 55.2051C11.1182 53.1982 12.7452 51.5712 14.7521 51.5712H58.5639C60.5709 51.5712 62.1979 53.1982 62.1979 55.2051V62.7072C62.1979 64.7142 60.5709 66.3412 58.5639 66.3412H14.7521C12.7451 66.3412 11.1182 64.7142 11.1182 62.7072V55.2051Z" fill="white"/>
<path fill-rule="evenodd" clip-rule="evenodd" d="M10.5591 55.2054C10.5591 52.8896 12.4364 51.0123 14.7521 51.0123H58.5639C60.8796 51.0123 62.7569 52.8896 62.7569 55.2054V62.7075C62.7569 65.0232 60.8796 66.9005 58.5639 66.9005H14.7521C12.4364 66.9005 10.5591 65.0232 10.5591 62.7075V55.2054ZM14.7521 52.1305C13.0539 52.1305 11.6772 53.5072 11.6772 55.2054V62.7075C11.6772 64.4057 13.0539 65.7824 14.7521 65.7824H58.5639C60.2621 65.7824 61.6388 64.4057 61.6388 62.7075V55.2054C61.6388 53.5072 60.2621 52.1305 58.5639 52.1305H14.7521Z" fill="#009CB7"/>
<ellipse cx="19.1186" cy="58.9562" rx="3.07709" ry="3.07709" fill="#CBE3FF"/>
<ellipse cx="19.1186" cy="58.9564" rx="1.43597" ry="1.43598" fill="#245CB0"/>
<rect x="27.1191" y="58.1357" width="29.7452" height="1.84626" rx="0.923129" fill="#009CB7"/>
<path d="M6.3999 17.3044C6.3999 14.8167 8.42017 12.8 10.9123 12.8C13.4044 12.8 15.4247 14.8167 15.4247 17.3044C15.4247 19.7921 13.4044 21.8087 10.9123 21.8087C8.42017 21.8087 6.3999 19.7921 6.3999 17.3044Z" fill="#FFDF34"/>
<path d="M50.0947 49.7284C50.0947 43.2689 55.3312 38.0325 61.7907 38.0325C68.2502 38.0325 73.4867 43.2689 73.4867 49.7284C73.4867 56.1879 68.2502 61.4244 61.7907 61.4244C55.3312 61.4244 50.0947 56.1879 50.0947 49.7284Z" fill="#009CB7"/>
<path d="M66.4252 45.6264C66.3308 45.5552 64.1598 44.0857 62.0125 43.825C62.0125 43.825 62.0125 43.825 61.9889 43.825C61.9653 43.825 61.9653 43.825 61.9417 43.825C61.9181 43.825 61.8945 43.825 61.8709 43.825C61.7529 43.8487 59.2044 44.3464 57.3166 45.3893C57.175 45.4841 57.0806 45.6264 57.0806 45.7923V50.3195C57.0806 50.3669 57.0334 54.6571 61.8237 56.0555C61.8237 56.0555 61.8237 56.0555 61.8473 56.0555C61.8945 56.0555 61.9181 56.0792 61.9653 56.0792C62.0125 56.0792 62.0597 56.0792 62.1069 56.0555C62.1069 56.0555 62.1069 56.0555 62.1305 56.0555C62.2956 56.0081 66.1184 54.7282 66.6612 50.6513C66.6612 50.6276 66.6612 50.6039 66.6612 50.5802V46.0056C66.6376 45.8634 66.5432 45.7212 66.4252 45.6264ZM58.0245 50.3669V46.1004C59.228 45.4841 60.691 45.0812 61.4933 44.8916V54.9652C58.0009 53.6142 58.0245 50.5091 58.0245 50.3669ZM65.6937 50.5802C65.3397 53.1401 63.4283 54.42 62.4372 54.9178V44.8679C63.8295 45.176 65.1981 45.9819 65.6937 46.29V50.5802Z" fill="white"/>
<path d="M13.0723 16.9792L12.4899 16.8814C12.4576 16.7674 12.4091 16.6533 12.3605 16.5393L12.7002 16.0505C12.7326 16.0179 12.7164 15.9527 12.684 15.9202L12.312 15.5454C12.2796 15.5128 12.2311 15.5128 12.1826 15.5291L11.7135 15.8713C11.6003 15.8061 11.5032 15.7735 11.3738 15.7246L11.2767 15.1381C11.2606 15.0892 11.2282 15.0566 11.1797 15.0566H10.6297C10.5812 15.0566 10.5488 15.0892 10.5327 15.1381L10.4356 15.7083C10.3224 15.7409 10.2091 15.7898 10.0959 15.855L9.6268 15.5128C9.59445 15.4803 9.52975 15.4965 9.4974 15.5291L9.12535 15.9039C9.093 15.9364 9.093 15.9853 9.10917 16.0342L9.44887 16.5067C9.38417 16.6207 9.33564 16.7348 9.30328 16.8488L8.73713 16.9466C8.6886 16.9466 8.65625 16.9955 8.65625 17.0443V17.582C8.65625 17.6309 8.6886 17.6635 8.73713 17.6798L9.30328 17.7775C9.33564 17.8916 9.38417 18.0056 9.44887 18.1197L9.10917 18.5921C9.07682 18.6247 9.093 18.6899 9.12535 18.7225L9.4974 19.0972C9.52975 19.1298 9.57827 19.1298 9.6268 19.1135L10.0959 18.7714C10.2091 18.8365 10.3224 18.8854 10.4356 18.918L10.5327 19.4882C10.5488 19.5371 10.5812 19.5697 10.6297 19.5697H11.1635C11.212 19.5697 11.2444 19.5371 11.2606 19.4882L11.3576 18.9017C11.4709 18.8691 11.5841 18.8202 11.6973 18.7551L12.1826 19.0972C12.2149 19.1298 12.2796 19.1135 12.312 19.0809L12.684 18.7062C12.7164 18.6736 12.7164 18.6247 12.7002 18.5759L12.3605 18.1034C12.4252 17.9893 12.4576 17.8916 12.5061 17.7612L13.0884 17.6635C13.137 17.6472 13.1693 17.6146 13.1693 17.5657V17.0281C13.1531 17.0281 13.1208 16.9955 13.0723 16.9792ZM10.9047 18.0382C10.5327 18.0382 10.2253 17.7286 10.2253 17.3539C10.2253 16.9792 10.5327 16.6696 10.9047 16.6696C11.2767 16.6696 11.5841 16.9792 11.5841 17.3539C11.6003 17.7286 11.2929 18.0382 10.9047 18.0382Z" fill="white"/>
</svg>
