<svg width="16" height="16" viewBox="0 0 16 16" fill="none" xmlns="http://www.w3.org/2000/svg">
<path d="M16 8C16 12.4183 12.4183 16 8 16C3.58172 16 0 12.4183 0 8C0 3.58172 3.58172 0 8 0C12.4183 0 16 3.58172 16 8Z" fill="#5CD9C1"/>
<path fill-rule="evenodd" clip-rule="evenodd" d="M11.5105 5.64768C11.8068 5.95544 11.7975 6.44513 11.4898 6.74144L7.60644 10.4802C7.3069 10.7686 6.83296 10.7686 6.53342 10.4802L4.61515 8.63337C4.30739 8.33706 4.2981 7.84737 4.59441 7.5396C4.89072 7.23184 5.38041 7.22256 5.68817 7.51887L7.06993 8.8492L10.4167 5.62694C10.7245 5.33063 11.2142 5.33992 11.5105 5.64768Z" fill="#FAFDFF"/>
</svg>
