<svg width="28" height="28" viewBox="0 0 28 28" fill="none" xmlns="http://www.w3.org/2000/svg">
<path fill-rule="evenodd" clip-rule="evenodd" d="M5.83416 2.22705C6.53707 2.22705 7.10689 2.79687 7.10689 3.49978V5.93958C7.69975 5.43254 8.34946 4.99013 9.04566 4.62229C10.8001 3.6953 12.7795 3.2791 14.7587 3.42097C16.7379 3.56284 18.6376 4.2571 20.2419 5.42485C21.8463 6.59259 23.0908 8.18697 23.8341 10.0268C24.0975 10.6785 23.7826 11.4203 23.1309 11.6836C22.4791 11.9469 21.7373 11.6321 21.474 10.9803C20.9091 9.58207 19.9632 8.37034 18.744 7.48286C17.5247 6.59537 16.0809 6.06773 14.5767 5.95991C13.0725 5.85209 11.5682 6.1684 10.2348 6.87291C9.62207 7.19665 9.05672 7.59638 8.55099 8.06038H11.6675C12.3704 8.06038 12.9402 8.6302 12.9402 9.33311C12.9402 10.036 12.3704 10.6058 11.6675 10.6058H5.83416C5.13125 10.6058 4.56143 10.036 4.56143 9.33311V3.49978C4.56143 2.79687 5.13125 2.22705 5.83416 2.22705ZM6.52734 17.0193C6.26402 16.3676 5.52224 16.0527 4.87051 16.316C4.21879 16.5793 3.90392 17.3211 4.16723 17.9729C4.91056 19.8127 6.15511 21.407 7.75943 22.5748C9.36374 23.7425 11.2635 24.4368 13.2427 24.5787C15.2219 24.7205 17.2012 24.3043 18.9557 23.3773C19.652 23.0094 20.3018 22.567 20.8948 22.0598V24.4999C20.8948 25.2028 21.4646 25.7726 22.1675 25.7726C22.8704 25.7726 23.4402 25.2028 23.4402 24.4999V18.6666C23.4402 17.9636 22.8704 17.3938 22.1675 17.3938H16.3342C15.6313 17.3938 15.0614 17.9636 15.0614 18.6666C15.0614 19.3695 15.6313 19.9393 16.3342 19.9393H19.4503C18.9446 20.4033 18.3793 20.803 17.7666 21.1267C16.4332 21.8312 14.9289 22.1475 13.4247 22.0397C11.9205 21.9319 10.4767 21.4043 9.25741 20.5168C8.03813 19.6293 7.09227 18.4176 6.52734 17.0193Z" fill="#417BD2"/>
</svg>
