<svg width="28" height="28" viewBox="0 0 28 28" fill="none" xmlns="http://www.w3.org/2000/svg">
<path fill-rule="evenodd" clip-rule="evenodd" d="M3.49935 4.84153C3.49935 4.18927 3.66257 3.91031 3.7862 3.78668C3.90982 3.66306 4.18878 3.49984 4.84104 3.49984H9.8577C10.51 3.49984 10.7889 3.66306 10.9125 3.78667C11.0361 3.91028 11.1993 4.18924 11.1993 4.84153V5.83317H10.6396C9.51873 5.83317 8.46465 6.11608 7.69857 6.88216C6.93248 7.64824 6.64958 8.70233 6.64958 9.82315V19.8332H4.84104C4.18878 19.8332 3.90982 19.6699 3.7862 19.5463C3.66257 19.4227 3.49935 19.1437 3.49935 18.4915V4.84153ZM6.64958 22.1665H4.84104C3.82497 22.1665 2.84975 21.9097 2.13628 21.1962C1.42281 20.4828 1.16602 19.5075 1.16602 18.4915V4.84153C1.16602 3.82546 1.42281 2.85024 2.13628 2.13677C2.84975 1.4233 3.82497 1.1665 4.84104 1.1665H9.8577C10.8738 1.1665 11.849 1.4233 12.5624 2.13679C13.2759 2.85027 13.5327 3.82549 13.5327 4.84153V5.83317H14.4665V4.84153C14.4665 3.82549 14.7232 2.85027 15.4367 2.13679C16.1501 1.4233 17.1254 1.1665 18.1414 1.1665H23.1581C24.1742 1.1665 25.1494 1.4233 25.8628 2.13677C26.5763 2.85024 26.8331 3.82546 26.8331 4.84153V18.4915C26.8331 19.5075 26.5763 20.4828 25.8628 21.1962C25.1494 21.9097 24.1742 22.1665 23.1581 22.1665H21.4312V22.8432C21.4312 23.9604 21.1531 25.0144 20.3906 25.7816C19.6268 26.5502 18.5737 26.8332 17.4529 26.8332H14.0015C14.0008 26.8332 14.0001 26.8332 13.9993 26.8332C13.9986 26.8332 13.9979 26.8332 13.9972 26.8332H10.6396C9.51873 26.8332 8.46465 26.5503 7.69857 25.7842C6.93248 25.0181 6.64958 23.964 6.64958 22.8432V22.1665ZM15.166 24.4998V22.1665C15.166 21.5222 14.6437 20.9998 13.9993 20.9998C13.355 20.9998 12.8327 21.5222 12.8327 22.1665V24.4998H10.6396C9.88205 24.4998 9.52447 24.3103 9.34848 24.1343C9.17249 23.9583 8.98291 23.6007 8.98291 22.8432V9.82315C8.98291 9.06564 9.17249 8.70807 9.34848 8.53208C9.52447 8.35609 9.88205 8.1665 10.6396 8.1665H12.366H15.6331H17.4529C18.2104 8.1665 18.5632 8.35602 18.7356 8.52951C18.9093 8.70433 19.0979 9.06199 19.0979 9.82315V22.8432C19.0979 23.6044 18.9093 23.962 18.7356 24.1368C18.5632 24.3103 18.2104 24.4998 17.4529 24.4998H15.166ZM16.7998 4.84153V5.83317H17.4529C18.5737 5.83317 19.6268 6.11615 20.3906 6.88473C21.1531 7.65198 21.4312 8.70598 21.4312 9.82315V19.8332H23.1581C23.8103 19.8332 24.0893 19.6699 24.2129 19.5463C24.3366 19.4227 24.4998 19.1437 24.4998 18.4915V4.84153C24.4998 4.18927 24.3366 3.91031 24.2129 3.78668C24.0893 3.66306 23.8103 3.49984 23.1581 3.49984H18.1414C17.4892 3.49984 17.2102 3.66306 17.0866 3.78667C16.963 3.91028 16.7998 4.18924 16.7998 4.84153ZM11.666 11.6665C11.0217 11.6665 10.4993 12.1888 10.4993 12.8332C10.4993 13.4775 11.0217 13.9998 11.666 13.9998H16.3327C16.977 13.9998 17.4993 13.4775 17.4993 12.8332C17.4993 12.1888 16.977 11.6665 16.3327 11.6665H11.666ZM10.4993 16.3332C10.4993 15.6888 11.0217 15.1665 11.666 15.1665H16.3327C16.977 15.1665 17.4993 15.6888 17.4993 16.3332C17.4993 16.9775 16.977 17.4998 16.3327 17.4998H11.666C11.0217 17.4998 10.4993 16.9775 10.4993 16.3332Z" fill="#009CB7"/>
</svg>
