<svg width="80" height="80" viewBox="0 0 80 80" fill="none" xmlns="http://www.w3.org/2000/svg">
<rect x="6" y="13.2001" width="63.2" height="42.4" fill="url(#paint0_linear_2024_9724)"/>
<path d="M10.8008 60.2V56.2L69.2008 55.8V29.4C70.9608 29.24 72.6008 28.4 73.2008 28V60.2H10.8008Z" fill="#009CB7"/>
<rect x="10.8008" y="17.2001" width="24.8" height="23.2" rx="4" fill="#45B4C8"/>
<rect x="39.2012" y="17.2001" width="23.2" height="2.8" rx="1.4" fill="#009CB7"/>
<rect x="39.2012" y="27.6" width="23.2" height="2.8" rx="1.4" fill="#009CB7"/>
<rect x="39.2012" y="32.4" width="23.2" height="2.8" rx="1.4" fill="#009CB7"/>
<rect x="39.2012" y="22.4" width="13.2" height="2.8" rx="1.4" fill="#009CB7"/>
<rect x="39.2012" y="37.6" width="23.2" height="2.8" rx="1.4" fill="#009CB7"/>
<circle cx="28.9996" cy="55.8" r="11.4" fill="white"/>
<circle cx="68.9996" cy="23.8" r="5.4" fill="#FFDF34"/>
<path d="M17.5996 55.8001C17.7596 53.4001 18.9996 50.4001 19.5996 49.2001H12.7996C11.1996 49.2001 10.6663 50.4001 10.5996 51.0001V55.8001H17.5996Z" fill="#CBE3FF"/>
<path d="M40.4012 55.8001C40.2412 53.4001 39.0012 50.4001 38.4012 49.2001H60.0012C61.6012 49.2001 62.1345 50.4001 62.2012 51.0001V55.8001H40.4012Z" fill="#CBE3FF"/>
<rect x="4.80078" y="13.2001" width="2.4" height="42.4" fill="#009CB7"/>
<path d="M23.4012 29.8C18.2812 29.8 16.4678 34.6 16.2012 37L30.4012 36.8C30.2012 34.4667 28.5212 29.8 23.4012 29.8Z" fill="white"/>
<circle cx="23.6" cy="24" r="3.6" fill="white"/>
<path d="M29.0546 46.0839C23.6734 46.0839 19.2754 50.4819 19.2754 55.863C19.2754 61.2442 23.6734 65.6422 29.0546 65.6422C34.4357 65.6422 38.8338 61.2442 38.8338 55.863C38.8338 50.4819 34.4357 46.0839 29.0546 46.0839ZM29.0546 65.1248C23.958 65.1248 19.7928 60.9596 19.7928 55.863C19.7928 50.7665 23.958 46.6013 29.0546 46.6013C34.1511 46.6013 38.3163 50.7665 38.3163 55.863C38.3163 60.9596 34.1511 65.1248 29.0546 65.1248Z" fill="#8EE0EB"/>
<path d="M75.2348 23.7573C75.2348 20.6528 72.8546 18.1175 69.8019 17.8329V12.9174C69.8019 12.6329 69.569 12.4 69.2845 12.4H4.91781C4.63323 12.4 4.40039 12.6329 4.40039 12.9174V55.863C4.40039 56.1476 4.63323 56.3805 4.91781 56.3805H10.1955V60.2611C10.1955 60.5457 10.4283 60.7785 10.7129 60.7785H18.1896C20.0523 64.9178 24.2175 67.7895 29.0294 67.7895C33.8414 67.7895 38.0066 64.9178 39.8693 60.7785H73.1651C73.4497 60.7785 73.6825 60.5457 73.6825 60.2611V27.7156C74.6397 26.6549 75.2348 25.2578 75.2348 23.7573ZM74.1999 23.7573C74.1999 24.9991 73.7343 26.1116 72.984 26.9653C72.8546 27.0171 72.7512 27.1205 72.6994 27.2758C71.8198 28.1295 70.6039 28.6728 69.2845 28.6728C66.5939 28.6728 64.3949 26.4738 64.3949 23.7573C64.3949 21.0409 66.5939 18.8419 69.3103 18.8419C72.0268 18.8419 74.1999 21.0409 74.1999 23.7573ZM6.65115 13.4349V55.3456H5.43522V13.4349H6.65115ZM7.68599 55.3456V13.4349H68.7671V17.8329C65.7402 18.0916 63.3342 20.6528 63.3342 23.7573C63.3342 26.8618 65.7143 29.423 68.7671 29.6817V55.3456H62.8426V51.0252C62.8426 49.6799 61.7302 48.5675 60.3849 48.5675H38.4464C36.2733 45.7734 32.8583 43.9625 29.0553 43.9625C25.2264 43.9625 21.8373 45.7734 19.6642 48.5675H12.6791C11.3338 48.5675 10.2213 49.6799 10.2213 51.0252V55.3456H7.68599ZM40.93 55.3456C40.8524 53.2501 40.2056 51.2839 39.1708 49.6023H60.3849C61.161 49.6023 61.8078 50.2491 61.8078 51.0252V55.3456H40.93ZM17.1547 55.4491C17.0771 55.3715 16.9478 55.3456 16.8443 55.3456H11.2303V51.0252C11.2303 50.2491 11.8771 49.6023 12.6532 49.6023H18.9139C17.8532 51.3098 17.2065 53.3277 17.1547 55.4491ZM11.2303 59.7437V56.3805H16.8184C16.9478 56.3805 17.0512 56.3287 17.1288 56.277C17.1806 57.4929 17.3876 58.6571 17.7756 59.7437H11.2303ZM29.0553 66.7547C23.0533 66.7547 18.1896 61.8651 18.1896 55.8889C18.1896 49.9128 23.0791 45.0232 29.0553 45.0232C35.0573 45.0232 39.9211 49.9128 39.9211 55.8889C39.9211 61.8651 35.0315 66.7547 29.0553 66.7547ZM40.3091 59.7437C40.6713 58.683 40.9042 57.5705 40.9559 56.4063H69.3103C69.5949 56.4063 69.8278 56.1735 69.8278 55.8889V29.6559C70.8885 29.5524 71.8716 29.1902 72.6994 28.621V59.7437H40.3091Z" fill="#009CB7"/>
<path d="M29.0549 49.5767C26.83 49.5767 25.0449 51.3876 25.0449 53.5866C25.0449 54.7767 25.5623 55.8633 26.4161 56.5877V61.6325C26.4161 61.8136 26.5196 61.9947 26.6748 62.0982C26.7524 62.1499 26.83 62.1499 26.9335 62.1499C27.037 62.1499 27.1146 62.124 27.2181 62.0723L29.1066 60.8563L30.9952 62.0723C31.1504 62.1758 31.3574 62.1758 31.5126 62.0982C31.6679 61.9947 31.7713 61.8394 31.7713 61.6325V56.5618C32.5733 55.8374 33.0649 54.7767 33.0649 53.6125C33.0649 51.3876 31.2539 49.5767 29.0549 49.5767ZM27.425 57.2862C27.7872 57.4414 28.1494 57.5449 28.5634 57.5966V59.9767L27.425 60.7011V57.2862ZM30.7365 60.7011L29.5982 59.9767V57.5966C29.9863 57.5449 30.3743 57.4155 30.7365 57.2603V60.7011ZM29.0549 56.5877C27.3992 56.5877 26.0798 55.2424 26.0798 53.6125C26.0798 51.9827 27.425 50.6374 29.0549 50.6374C30.6848 50.6374 32.03 51.9827 32.03 53.6125C32.03 55.2424 30.6848 56.5877 29.0549 56.5877Z" fill="#009CB7"/>
<path d="M29.0555 51.5686C27.9431 51.5686 27.0117 52.4741 27.0117 53.6124C27.0117 54.7507 27.9172 55.6562 29.0555 55.6562C30.1938 55.6562 31.0993 54.7507 31.0993 53.6124C31.0993 52.4741 30.168 51.5686 29.0555 51.5686ZM29.0555 54.5955C28.5122 54.5955 28.0466 54.1557 28.0466 53.5865C28.0466 53.0432 28.4864 52.5776 29.0555 52.5776C29.5988 52.5776 30.0645 53.0174 30.0645 53.5865C30.0386 54.1557 29.5988 54.5955 29.0555 54.5955Z" fill="#009CB7"/>
<path d="M67.5661 23.2156C67.2918 22.9406 66.8804 22.9406 66.6061 23.2156C66.3318 23.4906 66.3318 23.9031 66.6061 24.1781L68.2175 25.7937C68.3547 25.9312 68.5261 26 68.6975 26C68.869 26 69.0404 25.9312 69.1775 25.7937L72.1947 22.7687C72.469 22.4937 72.469 22.0812 72.1947 21.8062C71.9204 21.5312 71.509 21.5312 71.2347 21.8062L68.6975 24.35L67.5661 23.2156Z" fill="white"/>
<path d="M23.3645 28.1811C25.6152 28.1811 27.4262 26.3442 27.4262 24.1193C27.4262 21.8944 25.6152 20.0317 23.3645 20.0317C21.1137 20.0317 19.3027 21.8686 19.3027 24.0935C19.3027 26.3184 21.1137 28.1811 23.3645 28.1811ZM23.3645 21.0666C25.0461 21.0666 26.3913 22.4377 26.3913 24.0935C26.3913 25.7751 25.0202 27.1204 23.3645 27.1204C21.6829 27.1204 20.3376 25.7492 20.3376 24.0935C20.3376 22.4377 21.7087 21.0666 23.3645 21.0666Z" fill="#009CB7"/>
<path d="M16.1717 37.6243H30.5559C30.8405 37.6243 31.0733 37.3914 31.0733 37.1069C31.0733 32.864 27.6066 29.3973 23.3638 29.3973C19.121 29.3973 15.6543 32.864 15.6543 37.1069C15.6543 37.3914 15.8871 37.6243 16.1717 37.6243ZM23.3638 30.4322C26.8822 30.4322 29.7539 33.1486 30.0126 36.5894H16.715C16.9737 33.1486 19.8712 30.4322 23.3638 30.4322Z" fill="#009CB7"/>
<path d="M12.653 41.0129H34.0741C35.4194 41.0129 36.5318 39.9005 36.5318 38.5552V19.1521C36.5318 17.8068 35.4194 16.6943 34.0741 16.6943H12.653C11.3078 16.6943 10.1953 17.8068 10.1953 19.1521V38.5552C10.1953 39.9005 11.3078 41.0129 12.653 41.0129ZM11.2301 19.1521C11.2301 18.3759 11.8769 17.7292 12.653 17.7292H34.0741C34.8502 17.7292 35.497 18.3759 35.497 19.1521V38.5552C35.497 39.3313 34.8502 39.9781 34.0741 39.9781H12.653C11.8769 39.9781 11.2301 39.3313 11.2301 38.5552V19.1521Z" fill="#009CB7"/>
<path d="M40.5419 20.575H60.8764C61.9371 20.575 62.8167 19.6954 62.8167 18.6346C62.8167 17.5739 61.9371 16.6943 60.8764 16.6943H40.5419C39.4812 16.6943 38.6016 17.5739 38.6016 18.6346C38.6016 19.6954 39.4812 20.575 40.5419 20.575ZM40.5419 17.7292H60.8764C61.3679 17.7292 61.7818 18.1431 61.7818 18.6346C61.7818 19.1262 61.3679 19.5401 60.8764 19.5401H40.5419C40.0503 19.5401 39.6364 19.1262 39.6364 18.6346C39.6364 18.1431 40.0503 17.7292 40.5419 17.7292Z" fill="#009CB7"/>
<path d="M40.5419 25.6718H51.4335C52.4942 25.6718 53.3738 24.7922 53.3738 23.7315C53.3738 22.6707 52.4942 21.7911 51.4335 21.7911H40.5419C39.4812 21.7911 38.6016 22.6707 38.6016 23.7315C38.6016 24.7922 39.4812 25.6718 40.5419 25.6718ZM40.5419 22.8518H51.4335C51.925 22.8518 52.339 23.2658 52.339 23.7573C52.339 24.2489 51.925 24.6628 51.4335 24.6628H40.5419C40.0503 24.6628 39.6364 24.2489 39.6364 23.7573C39.6364 23.2658 40.0503 22.8518 40.5419 22.8518Z" fill="#009CB7"/>
<path d="M40.5419 30.7942H60.8764C61.9371 30.7942 62.8167 29.9146 62.8167 28.8539C62.8167 27.7932 61.9371 26.9136 60.8764 26.9136H40.5419C39.4812 26.9136 38.6016 27.7932 38.6016 28.8539C38.6016 29.9146 39.4812 30.7942 40.5419 30.7942ZM40.5419 27.9484H60.8764C61.3679 27.9484 61.7818 28.3623 61.7818 28.8539C61.7818 29.3454 61.3679 29.7594 60.8764 29.7594H40.5419C40.0503 29.7594 39.6364 29.3454 39.6364 28.8539C39.6364 28.3623 40.0503 27.9484 40.5419 27.9484Z" fill="#009CB7"/>
<path d="M40.5419 35.8905H60.8764C61.9371 35.8905 62.8167 35.0109 62.8167 33.9502C62.8167 32.8895 61.9371 32.0099 60.8764 32.0099H40.5419C39.4812 32.0099 38.6016 32.8895 38.6016 33.9502C38.6016 35.0109 39.4812 35.8905 40.5419 35.8905ZM40.5419 33.0447H60.8764C61.3679 33.0447 61.7818 33.4587 61.7818 33.9502C61.7818 34.4417 61.3679 34.8557 60.8764 34.8557H40.5419C40.0503 34.8557 39.6364 34.4417 39.6364 33.9502C39.6364 33.4587 40.0503 33.0447 40.5419 33.0447Z" fill="#009CB7"/>
<path d="M40.5419 41.013H60.8764C61.9371 41.013 62.8167 40.1333 62.8167 39.0726C62.8167 38.0119 61.9371 37.1323 60.8764 37.1323H40.5419C39.4812 37.1323 38.6016 38.0119 38.6016 39.0726C38.6016 40.1333 39.4812 41.013 40.5419 41.013ZM40.5419 38.1672H60.8764C61.3679 38.1672 61.7818 38.5811 61.7818 39.0726C61.7818 39.5642 61.3679 39.9781 60.8764 39.9781H40.5419C40.0503 39.9781 39.6364 39.5642 39.6364 39.0726C39.6364 38.5811 40.0503 38.1672 40.5419 38.1672Z" fill="#009CB7"/>
<defs>
<linearGradient id="paint0_linear_2024_9724" x1="37.6" y1="-5.79993" x2="37.6" y2="55.6001" gradientUnits="userSpaceOnUse">
<stop stop-color="white"/>
<stop offset="1" stop-color="#BBEAED"/>
</linearGradient>
</defs>
</svg>
