<svg width="80" height="61" viewBox="0 0 80 61" fill="none" xmlns="http://www.w3.org/2000/svg">
<path fill-rule="evenodd" clip-rule="evenodd" d="M68.2335 48.3833V42.0427H68.8614V48.3833C68.8614 50.9843 66.7529 53.0928 64.1519 53.0928H39.373V52.4649H64.1519C66.4061 52.4649 68.2335 50.6375 68.2335 48.3833Z" fill="#164995"/>
<path fill-rule="evenodd" clip-rule="evenodd" d="M41.7045 43.9103H68.5449C72.1359 43.5723 79.2698 41.0953 79.3711 32.4769C79.3711 28.9282 76.9884 21.78 67.4576 21.5772C68.049 15.9584 65.962 3.98566 52.8824 1.04529C48.0663 -0.179872 37.0652 0.56367 31.59 13.3391C29.7657 12.5673 25.9019 11.4342 22.902 12.0012C19.5266 12.3728 13.5862 14.3778 11.1297 21.1542C10.9865 21.5493 10.8745 21.9297 10.7916 22.2959C10.2561 24.2289 9.73184 27.3207 10.2976 30.0689C6.83338 29.6886 0.0569693 30.7533 0.665323 38.0535C0.876557 39.9968 2.48266 43.9103 7.04532 43.9103H10.6629V43.9104H41.7045V43.9103Z" fill="url(#paint0_linear_4343_17593)"/>
<path fill-rule="evenodd" clip-rule="evenodd" d="M52.7285 1.65349C48.1289 0.483398 37.4905 1.16712 32.1681 13.5861C32.032 13.9038 31.6646 14.0517 31.3463 13.9171C30.4717 13.5471 29.091 13.0839 27.5665 12.7838C26.0354 12.4824 24.4085 12.3553 23.0196 12.6179C23.0037 12.6209 22.9877 12.6232 22.9717 12.625C19.7236 12.9826 14.0639 14.9048 11.721 21.3679C11.586 21.7402 11.4817 22.0954 11.405 22.4343C11.4028 22.444 11.4003 22.4536 11.3977 22.4632C10.8733 24.3561 10.377 27.3354 10.9136 29.9419C10.9541 30.1386 10.8981 30.3427 10.7629 30.4912C10.6277 30.6397 10.4297 30.7146 10.2301 30.6927C8.57523 30.5111 6.15814 30.6828 4.25844 31.7305C3.31947 32.2483 2.51737 32.9736 1.98027 33.9702C1.44435 34.9646 1.14919 36.2719 1.29137 37.993C1.38763 38.8641 1.80391 40.2036 2.71067 41.3129C3.60188 42.4032 4.97186 43.2821 7.04627 43.2821H10.6639C10.6675 43.2821 10.6711 43.2821 10.6747 43.2821H41.6946C41.6982 43.2821 41.7018 43.2821 41.7054 43.2821H68.5159C70.2272 43.1161 72.7683 42.4399 74.883 40.802C76.9832 39.1754 78.6948 36.5793 78.7441 32.4729C78.7433 30.8147 78.1805 28.287 76.4971 26.1619C74.8329 24.061 72.0344 22.3023 67.4451 22.2047C67.2695 22.2009 67.1035 22.1238 66.9874 21.992C66.8712 21.8602 66.8156 21.6858 66.834 21.5112C67.1192 18.8013 66.7567 14.5296 64.7388 10.5929C62.7339 6.6818 59.0889 3.0836 52.7456 1.65758C52.7399 1.65629 52.7342 1.65493 52.7285 1.65349ZM41.7162 44.5379C41.7126 44.538 41.709 44.538 41.7054 44.538H10.6639C10.6603 44.538 10.6567 44.538 10.6531 44.5379H7.04627C4.55802 44.5379 2.84362 43.46 1.73831 42.1077C0.651206 40.7777 0.158595 39.1935 0.0420234 38.121C0.041455 38.1158 0.0409524 38.1105 0.0405156 38.1053C-0.119906 36.1802 0.203775 34.6194 0.874752 33.3744C1.54539 32.13 2.53984 31.2441 3.65196 30.6308C5.54185 29.5885 7.80046 29.3151 9.54667 29.384C9.19193 26.7285 9.68882 23.9329 10.1835 22.1422C10.2722 21.7533 10.3907 21.3526 10.5403 20.9399C13.1045 13.8663 19.3033 11.7718 22.8103 11.3793C24.4152 11.0809 26.2101 11.2369 27.8091 11.5516C29.1253 11.8108 30.3416 12.1842 31.2608 12.5311C36.9648 -0.055965 48.0653 -0.824497 53.0296 0.43422C59.7607 1.94992 63.6966 5.80679 65.8563 10.0201C67.8458 13.9012 68.3229 18.0694 68.1389 20.9748C72.6998 21.2307 75.6591 23.0813 77.4816 25.3821C79.371 27.7674 80 30.586 80 32.4766L80 32.484C79.9469 36.9938 78.0413 39.9443 75.6521 41.7948C73.2887 43.6253 70.4841 44.3583 68.6047 44.5351C68.5851 44.537 68.5655 44.5379 68.5458 44.5379H41.7162Z" fill="#417BD2"/>
<path d="M18.5996 46.4802C18.5996 39.1309 24.5573 33.1732 31.9066 33.1732C39.2558 33.1732 45.2135 39.1309 45.2135 46.4802C45.2135 53.8294 39.2558 59.7871 31.9066 59.7871C24.5573 59.7871 18.5996 53.8294 18.5996 46.4802Z" fill="#417BD2"/>
<path fill-rule="evenodd" clip-rule="evenodd" d="M17.6641 46.4802C17.6641 38.6142 24.0407 32.2375 31.9067 32.2375C39.7727 32.2375 46.1493 38.6142 46.1493 46.4802C46.1493 54.3461 39.7727 60.7228 31.9067 60.7228C24.0407 60.7228 17.6641 54.3461 17.6641 46.4802ZM31.9067 34.1089C25.0742 34.1089 19.5354 39.6477 19.5354 46.4802C19.5354 53.3126 25.0742 58.8514 31.9067 58.8514C38.7392 58.8514 44.278 53.3126 44.278 46.4802C44.278 39.6477 38.7392 34.1089 31.9067 34.1089Z" fill="#164995"/>
<path d="M37.1806 41.8138C37.0732 41.7329 34.6032 40.0609 32.16 39.7643C32.16 39.7643 32.16 39.7643 32.1332 39.7643C32.1063 39.7643 32.1063 39.7643 32.0795 39.7643C32.0527 39.7643 32.0258 39.7643 31.999 39.7643C31.8647 39.7912 28.9652 40.3575 26.8173 41.5441C26.6562 41.652 26.5488 41.8138 26.5488 42.0026V47.1533C26.5488 47.2073 26.4952 52.0884 31.9453 53.6795C31.9453 53.6795 31.9453 53.6795 31.9721 53.6795C32.0258 53.6795 32.0527 53.7064 32.1063 53.7064C32.16 53.7064 32.2137 53.7064 32.2674 53.6795C32.2674 53.6795 32.2674 53.6795 32.2943 53.6795C32.4822 53.6255 36.8316 52.1693 37.4491 47.5309C37.4491 47.5039 37.4491 47.4769 37.4491 47.45V42.2453C37.4222 42.0835 37.3148 41.9216 37.1806 41.8138ZM27.6228 47.2073V42.3531C28.992 41.652 30.6566 41.1935 31.5694 40.9778V52.439C27.5959 50.9018 27.6228 47.3691 27.6228 47.2073ZM36.3483 47.45C35.9456 50.3625 33.7709 51.8187 32.6433 52.385V40.9508C34.2273 41.3014 35.7845 42.2183 36.3483 42.5689V47.45Z" fill="white"/>
<path d="M9.49609 13.5689C9.49609 10.0886 12.3174 7.26721 15.7978 7.26721C19.2781 7.26721 22.0994 10.0886 22.0994 13.5689C22.0994 17.0492 19.2781 19.8705 15.7978 19.8705C12.3174 19.8705 9.49609 17.0492 9.49609 13.5689Z" fill="#FFDF34"/>
<path d="M14.588 17.0694H17.0096C17.3717 17.0694 17.666 16.7689 17.666 16.3992V10.7376C17.666 10.3679 17.3717 10.0675 17.0096 10.0675H14.588C14.2259 10.0675 13.9316 10.3679 13.9316 10.7376V16.3992C13.9316 16.7689 14.2259 17.0694 14.588 17.0694ZM15.1538 10.5297H16.4665V10.6683H15.1538V10.5297ZM14.3843 10.7376C14.3843 10.6221 14.4748 10.5297 14.588 10.5297H14.7011V10.6914C14.7011 10.9225 14.8822 11.1305 15.1312 11.1305H16.5117C16.738 11.1305 16.9417 10.9456 16.9417 10.6914V10.5297H17.0549C17.1681 10.5297 17.2586 10.6221 17.2586 10.7376V16.3992C17.2586 16.5148 17.1681 16.6072 17.0549 16.6072H14.588C14.4748 16.6072 14.3843 16.5148 14.3843 16.3992V10.7376Z" fill="#00889F"/>
<path d="M49.1738 48.9391C49.1738 48.1657 49.8008 47.5387 50.5742 47.5387H62.7107C63.4842 47.5387 64.1111 48.1657 64.1111 48.9391V56.4077C64.1111 57.1811 63.4842 57.8081 62.7107 57.8081H50.5742C49.8008 57.8081 49.1738 57.1811 49.1738 56.4077V48.9391Z" fill="#CBE3FF"/>
<path fill-rule="evenodd" clip-rule="evenodd" d="M50.637 48.4733C50.4739 48.4733 50.3418 48.6054 50.3418 48.7684C50.3418 48.9315 50.4739 49.0636 50.637 49.0636H58.3113C58.4743 49.0636 58.6065 48.9315 58.6065 48.7684C58.6065 48.6054 58.4743 48.4733 58.3113 48.4733H50.637ZM59.2946 48.4734C59.1316 48.4734 58.9995 48.6055 58.9995 48.7685C58.9995 48.9316 59.1316 49.0637 59.2946 49.0637H60.0817C60.2448 49.0637 60.3769 48.9316 60.3769 48.7685C60.3769 48.6055 60.2448 48.4734 60.0817 48.4734H59.2946Z" fill="white"/>
<circle cx="56.6435" cy="52.7796" r="1.63376" fill="#245CB0"/>
<defs>
<linearGradient id="paint0_linear_4343_17593" x1="39.9991" y1="10.7601" x2="39.9991" y2="62.9864" gradientUnits="userSpaceOnUse">
<stop stop-color="#F3F9FF"/>
<stop offset="1" stop-color="#AACCFF"/>
</linearGradient>
</defs>
</svg>
