<svg width="32" height="32" viewBox="0 0 32 32" fill="none" xmlns="http://www.w3.org/2000/svg">
<path fill-rule="evenodd" clip-rule="evenodd" d="M7.61013 5.72386C7.08943 5.20316 6.24521 5.20316 5.72451 5.72386C5.20381 6.24456 5.20381 7.08878 5.72451 7.60947L14.115 16L5.72451 24.3905C5.20381 24.9112 5.20381 25.7554 5.72451 26.2761C6.24521 26.7968 7.08943 26.7968 7.61013 26.2761L16.9435 16.9428C17.4642 16.4221 17.4642 15.5779 16.9435 15.0572L7.61013 5.72386ZM18.2768 5.72386C17.7561 5.20316 16.9119 5.20316 16.3912 5.72386C15.8705 6.24456 15.8705 7.08878 16.3912 7.60947L24.7817 16L16.3912 24.3905C15.8705 24.9112 15.8705 25.7554 16.3912 26.2761C16.9119 26.7968 17.7561 26.7968 18.2768 26.2761L27.6101 16.9428C28.1308 16.4221 28.1308 15.5779 27.6101 15.0572L18.2768 5.72386Z" fill="#417BD2"/>
</svg>
