<svg width="50" height="50" viewBox="0 0 50 50" fill="none" xmlns="http://www.w3.org/2000/svg">
<path fill-rule="evenodd" clip-rule="evenodd" d="M16.6665 4.1665C14.3653 4.1665 12.4998 6.03198 12.4998 8.33317V10.4165C12.4998 10.4172 12.4998 10.4178 12.4998 10.4185L12.4998 16.6665H8.33317C6.03199 16.6665 4.1665 18.532 4.1665 20.8332V22.9165V41.6665C4.1665 43.9677 6.03199 45.8332 8.33317 45.8332H33.3332C35.6344 45.8332 37.4998 43.9677 37.4998 41.6665L37.4998 33.3332H41.6665C43.9677 33.3332 45.8332 31.4677 45.8332 29.1665V12.4998C45.8332 10.1987 43.9677 8.33317 41.6665 8.33317L30.1854 8.33317L28.1958 5.77509C27.4064 4.76014 26.1926 4.1665 24.9068 4.1665H16.6665ZM29.1481 12.4998C29.1613 12.5 29.1746 12.5 29.1879 12.4998H41.6665V29.1665H37.4998V24.9998C37.4998 22.6987 35.6344 20.8332 33.3332 20.8332H21.8521L19.8625 18.2751C19.0921 17.2846 17.9177 16.6954 16.6665 16.6675V12.4998H29.1481ZM20.8326 24.9999C20.8267 24.9999 20.8207 24.9999 20.8148 24.9998H8.33317L8.33317 41.6665L33.3332 41.6665L33.3332 31.2521L33.3332 31.2498L33.3332 31.2476V24.9998H20.8544C20.8472 24.9999 20.8399 24.9999 20.8326 24.9999Z" fill="#EE5E5E"/>
<path fill-rule="evenodd" clip-rule="evenodd" d="M25.9874 30.9874C26.6708 30.304 26.6708 29.196 25.9874 28.5126C25.304 27.8291 24.1959 27.8291 23.5125 28.5126L21.25 30.7751L18.9874 28.5126C18.304 27.8291 17.196 27.8291 16.5126 28.5126C15.8291 29.196 15.8291 30.304 16.5126 30.9874L18.7751 33.25L16.5126 35.5125C15.8291 36.1959 15.8291 37.304 16.5126 37.9874C17.196 38.6708 18.304 38.6708 18.9874 37.9874L21.25 35.7248L23.5125 37.9874C24.1959 38.6708 25.304 38.6708 25.9874 37.9874C26.6708 37.304 26.6708 36.1959 25.9874 35.5125L23.7248 33.25L25.9874 30.9874Z" fill="#EE5E5E"/>
</svg>
