<svg width="28" height="28" viewBox="0 0 28 28" fill="none" xmlns="http://www.w3.org/2000/svg">
<path fill-rule="evenodd" clip-rule="evenodd" d="M12.3923 3.2144C13.312 2.40965 14.6853 2.40965 15.605 3.2144L23.7717 10.3602C24.301 10.8235 24.6047 11.4926 24.6047 12.1961V22.1667C24.6047 23.5139 23.5125 24.6061 22.1653 24.6061H5.83197C4.48473 24.6061 3.39258 23.5139 3.39258 22.1667V12.1961C3.39258 11.4926 3.69624 10.8234 4.22562 10.3602L12.3923 3.2144ZM13.9288 5.13005L13.9289 5.13016L13.9288 5.13005ZM13.9986 5.19116L22.0592 12.2442V22.0606H5.93803V12.2442L13.9986 5.19116ZM5.902 12.2757L5.90181 12.2759L5.83197 12.1961L5.90181 12.2759C5.90188 12.2758 5.90194 12.2758 5.902 12.2757Z" fill="#009CB7"/>
<path fill-rule="evenodd" clip-rule="evenodd" d="M13.9993 10.394C14.7022 10.394 15.272 10.9639 15.272 11.6668V18.6668C15.272 19.3697 14.7022 19.9395 13.9993 19.9395C13.2964 19.9395 12.7266 19.3697 12.7266 18.6668V11.6668C12.7266 10.9639 13.2964 10.394 13.9993 10.394Z" fill="#009CB7"/>
<path fill-rule="evenodd" clip-rule="evenodd" d="M9.22656 15.1668C9.22656 14.4639 9.79638 13.894 10.4993 13.894L17.4993 13.894C18.2022 13.894 18.772 14.4639 18.772 15.1668C18.772 15.8697 18.2022 16.4395 17.4993 16.4395L10.4993 16.4395C9.79638 16.4395 9.22656 15.8697 9.22656 15.1668Z" fill="#009CB7"/>
</svg>
