<svg width="28" height="28" viewBox="0 0 28 28" fill="none" xmlns="http://www.w3.org/2000/svg">
<path fill-rule="evenodd" clip-rule="evenodd" d="M14.0112 1.16406C14.7395 1.16406 15.5266 1.26462 16.1811 1.50905L16.1823 1.5095L22.0039 3.69117C22.0236 3.69852 22.043 3.7064 22.0622 3.7148C22.1893 3.7704 22.3196 3.83191 22.45 3.89968L24.8411 1.50862C25.2967 1.05301 26.0354 1.05301 26.491 1.50862C26.9466 1.96423 26.9466 2.70292 26.491 3.15854L3.15764 26.4919C2.70203 26.9475 1.96334 26.9475 1.50772 26.4919C1.05211 26.0363 1.05211 25.2976 1.50772 24.842L4.82849 21.5212C4.30035 21.0085 3.85826 20.3661 3.52916 19.7119C3.10698 18.8725 2.8112 17.8953 2.8112 16.9753V8.30698C2.8112 7.30995 3.18795 6.32997 3.73516 5.54076C4.28231 4.75163 5.06876 4.05389 6.00652 3.70294L11.8389 1.50995L11.8413 1.50905C12.4958 1.26462 13.2829 1.16406 14.0112 1.16406ZM6.47875 19.8709L20.6675 5.68215L15.3647 3.6949C15.0508 3.5778 14.56 3.4974 14.0112 3.4974C13.4626 3.4974 12.9727 3.5775 12.6587 3.69453L6.8248 5.88809C6.42136 6.03894 5.98904 6.38513 5.65266 6.87028C5.31612 7.35566 5.14453 7.88067 5.14453 8.30698V16.9753C5.14453 17.432 5.30375 18.0473 5.61365 18.6633C5.8639 19.1609 6.17355 19.5816 6.47875 19.8709ZM24.0326 7.14038C24.6769 7.14038 25.1992 7.66272 25.1992 8.30705V16.987C25.1992 17.9071 24.9035 18.8843 24.4813 19.7236C24.0589 20.5633 23.4504 21.3836 22.7127 21.9349L17.6986 25.6779L17.6969 25.6792C16.6369 26.4754 15.2907 26.8395 13.9992 26.8395C12.7074 26.8395 11.361 26.4753 10.3008 25.6786L8.44684 24.2911C7.93099 23.905 7.82579 23.1738 8.21186 22.658C8.59794 22.1421 9.32911 22.0369 9.84496 22.423L11.702 23.8128C12.2866 24.2524 13.1156 24.5062 13.9992 24.5062C14.8829 24.5062 15.7118 24.2524 16.2965 23.8128L16.2997 23.8105L21.3158 20.0659C21.6864 19.7889 22.0871 19.2907 22.3968 18.6751C22.7067 18.059 22.8659 17.4437 22.8659 16.987V8.30705C22.8659 7.66272 23.3882 7.14038 24.0326 7.14038Z" fill="#009CB7"/>
</svg>
