<svg width="50" height="50" viewBox="0 0 50 50" fill="none" xmlns="http://www.w3.org/2000/svg">
<path fill-rule="evenodd" clip-rule="evenodd" d="M9.84825 8C8.52803 8 7.28592 8.62568 6.50009 9.68655L4.95688 11.7699C2.91995 14.5197 4.88292 18.4167 8.30504 18.4167H8.34104C8.33614 18.4994 8.33366 18.5827 8.33366 18.6667L8.33415 38.4998C8.33415 40.801 10.1996 42.6665 12.5008 42.6665H37.5008C39.802 42.6665 41.6675 40.801 41.6675 38.4998L41.667 18.6667C41.667 18.5827 41.6645 18.4994 41.6596 18.4167H41.7C45.1221 18.4167 47.0851 14.5197 45.0482 11.7699L43.505 9.68656C42.7191 8.62568 41.477 8 40.1568 8H9.84825ZM9.84825 12.1667H40.1568L41.7 14.25L8.30504 14.25L9.84825 12.1667ZM12.5003 18.6667L37.5003 18.6667L37.5008 38.4998H12.5008L12.5003 18.6667Z" fill="#EE5E5E"/>
<path fill-rule="evenodd" clip-rule="evenodd" d="M26.9042 23.9048C26.9042 22.8528 26.0514 22 24.9994 22C23.9474 22 23.0947 22.8528 23.0947 23.9048V28.5238C23.0947 29.5758 23.9474 30.4286 24.9994 30.4286C26.0514 30.4286 26.9042 29.5758 26.9042 28.5238V23.9048ZM24.9048 32C23.8528 32 23 32.8528 23 33.9048V34.0952C23 35.1472 23.8528 36 24.9048 36H25.0952C26.1472 36 27 35.1472 27 34.0952V33.9048C27 32.8528 26.1472 32 25.0952 32H24.9048Z" fill="#EE5E5E"/>
</svg>
