<svg width="40" height="46" viewBox="0 0 40 46" fill="none" xmlns="http://www.w3.org/2000/svg">
<path d="M0.646484 26.822V4.12258C0.646484 2.20521 2.18701 0.650879 4.08734 0.650879H20.0013H35.9153C37.8156 0.650879 39.3562 2.20521 39.3562 4.12258V26.822C39.3562 31.3172 37.0578 35.4944 33.2764 37.8715L21.8209 45.073C20.7071 45.7732 19.2955 45.7732 18.1817 45.073L6.72625 37.8715C2.94489 35.4944 0.646484 31.3172 0.646484 26.822Z" fill="#0B47A2"/>
<path fill-rule="evenodd" clip-rule="evenodd" d="M20 45.5982V0.650879H20.0007H35.9147C37.815 0.650879 39.3555 2.20521 39.3555 4.12258V26.822C39.3555 31.3172 37.0571 35.4944 33.2758 37.8715L21.8203 45.073C21.2632 45.4233 20.6316 45.5983 20 45.5982Z" fill="#013685"/>
<path fill-rule="evenodd" clip-rule="evenodd" d="M4.08602 1.29487C2.542 1.29487 1.29032 2.55096 1.29032 4.10043V26.6775C1.29032 30.925 3.4738 34.8719 7.0661 37.118L18.5216 44.2807C19.4266 44.8466 20.5734 44.8466 21.4784 44.2807L32.9339 37.118C36.5262 34.8719 38.7097 30.925 38.7097 26.6775V4.10043C38.7097 2.55097 37.458 1.29487 35.914 1.29487H4.08602ZM0 4.10043C0 1.83583 1.82937 0 4.08602 0H35.914C38.1706 0 40 1.83583 40 4.10043V26.6775C40 31.3721 37.5867 35.7345 33.6163 38.217L22.1608 45.3797C20.8381 46.2067 19.1619 46.2068 17.8392 45.3797L6.38375 38.217C2.41332 35.7345 0 31.3721 0 26.6775V4.10043Z" fill="#0B47A2"/>
<path fill-rule="evenodd" clip-rule="evenodd" d="M11.0115 20.4075C11.0115 15.9289 14.2393 12.2109 18.4758 11.4925L20.2887 13.3615L17.9308 15.7922C16.1826 16.5803 14.9642 18.35 14.9642 20.4067C14.9642 22.8698 16.7114 24.9212 19.0237 25.3681L17.8448 26.5834C17.5189 26.9193 17.5189 27.4564 17.8448 27.7923L19.4354 29.432C14.7365 29.1522 11.0115 25.2187 11.0115 20.4075ZM21.6871 29.2825C25.8151 28.4749 28.9318 24.8085 28.9318 20.4075C28.9318 15.6918 25.3533 11.8194 20.7868 11.404L22.0993 12.757C22.4251 13.0929 22.4251 13.63 22.0993 13.9659L20.7002 15.4082C23.1201 15.7642 24.9785 17.8665 24.9785 20.4067C24.9785 22.6226 23.5644 24.5053 21.5969 25.1863L19.6553 27.1878L21.6871 29.2825ZM19.9717 9.10693C13.786 9.10693 8.77148 14.1664 8.77148 20.4075C8.77148 26.6486 13.786 31.7081 19.9717 31.7081C26.1574 31.7081 31.1719 26.6486 31.1719 20.4075C31.1719 14.1664 26.1574 9.10693 19.9717 9.10693ZM17.2043 20.4067C17.2043 18.8649 18.4431 17.615 19.9714 17.615C21.4996 17.615 22.7385 18.8649 22.7385 20.4067C22.7385 21.9486 21.4996 23.1985 19.9714 23.1985C18.4431 23.1985 17.2043 21.9486 17.2043 20.4067Z" fill="white"/>
</svg>
