<svg width="30" height="34" viewBox="0 0 30 34" fill="none" xmlns="http://www.w3.org/2000/svg">
<path d="M0.484375 19.7271V3.03234C0.484375 1.62217 1.63977 0.479004 3.06502 0.479004H15.0005H26.936C28.3612 0.479004 29.5166 1.62217 29.5166 3.03234V19.7271C29.5166 23.0332 27.7928 26.1054 24.9568 27.8537L16.3652 33.1503C15.5298 33.6652 14.4712 33.6652 13.6358 33.1503L5.0442 27.8538C2.20818 26.1054 0.484375 23.0332 0.484375 19.7271Z" fill="#D9FCFF"/>
<path fill-rule="evenodd" clip-rule="evenodd" d="M15 33.5365V0.479004H15.0005H26.936C28.3612 0.479004 29.5166 1.62217 29.5166 3.03234V19.7271C29.5166 23.0332 27.7928 26.1054 24.9568 27.8538L16.3652 33.1503C15.9474 33.4078 15.4737 33.5366 15 33.5365Z" fill="#BDF2F7"/>
<path fill-rule="evenodd" clip-rule="evenodd" d="M3.06452 0.95708C1.9065 0.95708 0.967742 1.88549 0.967742 3.03075V19.7182C0.967742 22.8576 2.60535 25.7749 5.29957 27.4351L13.8912 32.7293C14.5699 33.1475 15.4301 33.1475 16.1088 32.7293L24.7004 27.4351C27.3946 25.7749 29.0323 22.8576 29.0323 19.7182V3.03076C29.0323 1.8855 28.0935 0.95708 26.9355 0.95708H3.06452ZM0 3.03075C0 1.35691 1.37203 0 3.06452 0H26.9355C28.628 0 30 1.35692 30 3.03076V19.7182C30 23.188 28.19 26.4124 25.2122 28.2474L16.6206 33.5416C15.6286 34.1528 14.3714 34.1528 13.3794 33.5416L4.78781 28.2474C1.80999 26.4124 0 23.188 0 19.7182V3.03075Z" fill="#BDF2F7"/>
<path fill-rule="evenodd" clip-rule="evenodd" d="M21.229 6.70264C20.6646 6.70264 20.2071 7.1553 20.2071 7.71369V9.37696C19.4418 8.75308 18.5614 8.27124 17.6075 7.96185C15.979 7.43364 14.2222 7.43592 12.595 7.96834C10.9679 8.50077 9.55613 9.53531 8.56701 10.9201C7.57789 12.3048 7.06352 13.9669 7.09941 15.6622C7.13531 17.3575 7.71957 18.9967 8.76643 20.3393C9.81329 21.6819 11.2676 22.657 12.9158 23.1215C14.5641 23.5861 16.3194 23.5156 17.9242 22.9203C19.5289 22.3251 20.8986 21.2365 21.832 19.8144C22.1393 19.3461 22.0048 18.72 21.5315 18.4158C21.0582 18.1117 20.4253 18.2448 20.118 18.7131C19.4226 19.7725 18.4023 20.5835 17.2068 21.0269C16.0113 21.4703 14.7036 21.5229 13.4757 21.1768C12.2478 20.8307 11.1644 20.1043 10.3846 19.1041C9.60469 18.104 9.16943 16.8828 9.14269 15.6198C9.11595 14.3569 9.49914 13.1187 10.236 12.0871C10.9729 11.0555 12.0246 10.2848 13.2367 9.88818C14.4489 9.49153 15.7577 9.48984 16.9709 9.88334C17.726 10.1283 18.4194 10.5183 19.0137 11.0262H16.8592C16.2948 11.0262 15.8373 11.4789 15.8373 12.0373C15.8373 12.5956 16.2948 13.0483 16.8592 13.0483H21.229C21.7933 13.0483 22.2508 12.5956 22.2508 12.0373V7.71369C22.2508 7.1553 21.7933 6.70264 21.229 6.70264Z" fill="#009CB7"/>
</svg>
