<svg width="80" height="80" viewBox="0 0 80 80" fill="none" xmlns="http://www.w3.org/2000/svg">
<path d="M61.4002 20V16.2L57.2002 20H61.4002Z" fill="#C3F6FA"/>
<rect x="10" y="25.6" width="42" height="16" rx="5" fill="#C3F6FA"/>
<rect x="17.2002" y="47.6" width="8.4" height="7.2" rx="1" fill="#C3F6FA"/>
<rect x="60" y="24" width="4.4" height="3.6" rx="1" fill="#CBE3FF"/>
<rect x="27.6001" y="47.6" width="2.8" height="7.2" rx="1" fill="#45B4C8"/>
<rect x="20.8003" y="14.4" width="31.2" height="8.8" rx="4.4" fill="#C3F6FA"/>
<path d="M45.2001 36.2H54.4001L51.4001 39.8H42.6001L45.2001 36.2Z" fill="#CBE3FF"/>
<circle cx="18.4002" cy="33.6" r="3.2" fill="#417BD2"/>
<circle cx="18.4003" cy="33.6" r="1.6" fill="#164995"/>
<circle cx="9.8" cy="23.8" r="5.8" fill="#FFDF34"/>
<path d="M51.4003 39.8L55.6003 35H67.4003V61.4H36.8003V39.8H51.4003Z" fill="#45B4C8"/>
<path d="M7.51487 24.2318L8.08698 24.3271C8.11082 24.4463 8.1585 24.5655 8.23001 24.6608L7.89628 25.1376C7.87244 25.1853 7.87244 25.2329 7.92012 25.2568L8.30152 25.6382C8.32536 25.662 8.39688 25.6859 8.42071 25.662L8.89747 25.3283C8.99282 25.376 9.11201 25.4236 9.2312 25.4713L9.32655 26.0434C9.32655 26.0911 9.37423 26.1149 9.42191 26.1149H9.97018C10.0179 26.1149 10.0655 26.0911 10.0655 26.0434L10.1609 25.4713C10.2801 25.4475 10.3993 25.376 10.4946 25.3283L10.9714 25.662C11.019 25.6859 11.0667 25.6859 11.0906 25.6382L11.472 25.2568C11.4958 25.2329 11.5196 25.1614 11.472 25.1376L11.1382 24.6608C11.1859 24.5655 11.2336 24.4463 11.2813 24.3271L11.8534 24.2318C11.901 24.2318 11.9249 24.1841 11.9249 24.1364V23.5881C11.9249 23.5405 11.901 23.4928 11.8534 23.4928L11.3051 23.3974C11.2813 23.2782 11.2336 23.159 11.1621 23.0637L11.4958 22.5869C11.5196 22.5393 11.5196 22.4916 11.4958 22.4677L11.1144 22.0863C11.0906 22.0625 11.019 22.0387 10.9952 22.0863L10.5184 22.4201C10.4231 22.3724 10.3039 22.3247 10.1847 22.277L10.0894 21.7049C10.0894 21.6573 10.0417 21.6334 9.99402 21.6334H9.44574C9.39807 21.6334 9.35039 21.6811 9.35039 21.7288L9.25504 22.3009C9.13585 22.3247 9.01666 22.3724 8.92131 22.4439L8.44455 22.1102C8.39688 22.0863 8.3492 22.0863 8.32536 22.1102L7.94396 22.4916C7.92012 22.5154 7.89628 22.5869 7.92012 22.6108L8.25385 23.0875C8.20617 23.1829 8.1585 23.3021 8.11082 23.4213L7.53871 23.5166C7.49104 23.5166 7.44336 23.5643 7.44336 23.612V24.1602C7.44336 24.1841 7.49104 24.2318 7.51487 24.2318ZM9.70796 23.1829C10.0894 23.1829 10.3993 23.4928 10.3993 23.8742C10.3993 24.2556 10.0894 24.5655 9.70796 24.5655C9.32655 24.5655 9.01666 24.2556 9.01666 23.8742C9.01666 23.4928 9.32655 23.1829 9.70796 23.1829Z" fill="#F9FCFF"/>
<path d="M9.70774 28.4511C12.2346 28.4511 14.2846 26.4011 14.2846 23.8742C14.2846 21.3474 12.2346 19.2974 9.70774 19.2974C7.18092 19.2974 5.13086 21.3474 5.13086 23.8742C5.13086 26.4011 7.18092 28.4511 9.70774 28.4511ZM9.70774 19.7741C11.9723 19.7741 13.8079 21.6096 13.8079 23.8742C13.8079 26.1388 11.9723 27.9744 9.70774 27.9744C7.44314 27.9744 5.60762 26.1388 5.60762 23.8742C5.60762 21.6096 7.44314 19.7741 9.70774 19.7741Z" fill="#F9FCFF"/>
<path d="M44.6779 33.6239V33.457C44.6779 32.7657 44.1058 32.1936 43.4145 32.1936H25.989C25.2977 32.1936 24.7256 32.7657 24.7256 33.457V33.6239C24.7256 34.3152 25.2977 34.8873 25.989 34.8873H43.4145C44.1058 34.8873 44.6779 34.3152 44.6779 33.6239ZM25.6791 33.6239V33.457C25.6791 33.2901 25.8221 33.1471 25.989 33.1471H43.4145C43.5814 33.1471 43.7244 33.2901 43.7244 33.457V33.6239C43.7244 33.7907 43.5814 33.9338 43.4145 33.9338H25.989C25.8221 33.9338 25.6791 33.7907 25.6791 33.6239Z" fill="#009CB7"/>
<path d="M25.989 19.9648H45.7506C46.4419 19.9648 47.014 19.3927 47.014 18.7014V18.5345C47.014 17.8432 46.4419 17.2711 45.7506 17.2711H25.989C25.2977 17.2711 24.7256 17.8432 24.7256 18.5345V18.7014C24.7256 19.3927 25.2977 19.9648 25.989 19.9648ZM25.6791 18.5345C25.6791 18.3677 25.8221 18.2246 25.989 18.2246H45.7506C45.9175 18.2246 46.0605 18.3677 46.0605 18.5345V18.7014C46.0605 18.8683 45.9175 19.0113 45.7506 19.0113H25.989C25.8221 19.0113 25.6791 18.8683 25.6791 18.7014V18.5345Z" fill="#009CB7"/>
<path d="M58.8619 51.2401L56.5019 53.6C56.3112 53.7907 56.3112 54.0768 56.5019 54.2675C56.5973 54.3628 56.7165 54.4105 56.8356 54.4105C56.9548 54.4105 57.074 54.3628 57.1694 54.2675L60.6497 50.7872C60.7451 50.6918 60.7927 50.5726 60.7927 50.4534C60.7927 50.3342 60.7451 50.215 60.6497 50.1197L57.1694 46.6394C56.9787 46.4487 56.6926 46.4487 56.5019 46.6394C56.3112 46.8301 56.3112 47.1161 56.5019 47.3068L59.6247 50.4296L58.8619 51.2401Z" fill="#F9FCFF"/>
<path d="M75.4529 44.3747C74.5232 42.8491 73.2121 41.6572 71.6627 40.8944V27.1637C71.6627 26.2102 70.876 25.4236 69.9225 25.4236H68.0631V15.6977C68.0631 15.4355 67.8486 15.221 67.5864 15.221H61.3647C61.3408 15.221 61.2932 15.221 61.2693 15.221C61.2455 15.221 61.2217 15.221 61.2217 15.2448H61.1978C61.174 15.2448 61.1501 15.2686 61.1263 15.2686H61.1025C61.0786 15.2925 61.0548 15.3163 61.031 15.3163L56.8116 19.5356C56.7163 19.631 56.6686 19.7502 56.6686 19.8693V20.06C56.6686 20.06 56.6686 20.06 56.6686 20.0839V20.1077L56.764 30.3819C56.764 30.6441 56.9785 30.8586 57.2407 30.8586H67.6102C67.8724 30.8586 68.087 30.6441 68.087 30.3819V25.9003H69.9463C70.6376 25.9003 71.2097 26.4724 71.2097 27.1637V40.7037C70.2324 40.2984 69.1835 40.0362 68.087 39.9885V34.7442C68.087 34.482 67.8724 34.2674 67.6102 34.2674H55.5721C55.429 34.2674 55.286 34.339 55.2145 34.4343L54.1895 35.6977H52.497V27.3068C52.497 25.9003 51.3528 24.7323 49.9225 24.7323H49.3742V23.6596H50.2801C51.4958 23.6596 52.497 22.6584 52.497 21.4426V15.8169C52.497 14.6012 51.4958 13.6 50.2801 13.6H22.1752C20.9594 13.6 19.9582 14.6012 19.9582 15.8169V21.4426C19.9582 22.6584 20.9594 23.6596 22.1752 23.6596H22.8903V24.7323H16.1442C16.1919 24.4462 16.2157 24.1602 16.2157 23.8741C16.2157 20.2746 13.3075 17.3664 9.70794 17.3664C6.10842 17.3664 3.2002 20.2746 3.2002 23.8741C3.2002 27.3068 5.87004 30.1196 9.23119 30.358V39.774C9.23119 41.1804 10.3754 42.3485 11.8057 42.3485H36.4779V61.3711C36.4779 61.6334 36.6925 61.8479 36.9547 61.8479H40.9118V63.8264H25.6078C24.7973 63.8264 24.1537 63.159 24.1537 62.3723V60.2984H24.6543C24.9165 60.2984 25.1311 60.0839 25.1311 59.8217V58.5583H25.9416V59.8217C25.9416 60.0839 26.1561 60.2984 26.4183 60.2984H27.9201C28.1823 60.2984 28.3969 60.0839 28.3969 59.8217V58.5583H29.2073V59.8217C29.2073 60.0839 29.4219 60.2984 29.6841 60.2984H31.1859C31.4481 60.2984 31.6627 60.0839 31.6627 59.8217V58.5583H32.0679C33.0214 58.5583 33.7842 57.7955 33.7842 56.8419V46.7823C33.7842 45.8288 33.0214 45.066 32.0679 45.066H15.7151C14.7616 45.066 13.9988 45.8288 13.9988 46.7823V56.8419C13.9988 57.7955 14.7616 58.5583 15.7151 58.5583H16.1203V59.8217C16.1203 60.0839 16.3349 60.2984 16.5971 60.2984H18.0989C18.3611 60.2984 18.5756 60.0839 18.5756 59.8217V58.5583H19.41V59.8217C19.41 60.0839 19.6245 60.2984 19.8867 60.2984H21.3885C21.6507 60.2984 21.8653 60.0839 21.8653 59.8217V58.5583H22.6758V59.8217C22.6758 60.0839 22.8903 60.2984 23.1525 60.2984H23.6531V62.3723C23.6531 63.445 24.5351 64.3032 25.584 64.3032H40.8879V65.6381C40.8879 65.9003 41.1025 66.1149 41.3647 66.1149H72.2348C72.497 66.1149 72.7115 65.9003 72.7115 65.6381V56.8181C74.6186 55.5309 75.9773 53.6 76.5256 51.3354C77.1215 48.9516 76.7401 46.4725 75.4529 44.3747ZM60.8879 16.8419V19.631H58.0989L60.8879 16.8419ZM67.1096 29.9289H57.6936L57.6221 20.6083H61.3647C61.6269 20.6083 61.8414 20.3938 61.8414 20.1316V16.1745H67.1335V29.9289H67.1096ZM26.8951 59.3449V56.9373H27.4433V58.0815V59.3449H26.8951ZM30.733 59.3449H30.1847V56.9373H30.733V59.3449ZM17.6221 59.3449H17.0739V56.9373H17.6221V59.3449ZM20.9118 59.3449H20.3635V56.9373H20.9118V59.3449ZM21.8653 57.5809V56.4367C21.8653 56.1745 21.6507 55.9599 21.3885 55.9599H19.8867C19.6245 55.9599 19.41 56.1745 19.41 56.4367V57.5809H18.5995V56.4367C18.5995 56.1745 18.3849 55.9599 18.1227 55.9599H16.6209C16.3587 55.9599 16.1442 56.1745 16.1442 56.4367V57.5809H15.7389C15.3099 57.5809 14.9761 57.2472 14.9761 56.8181V46.7585C14.9761 46.3294 15.3099 45.9957 15.7389 45.9957H32.0917C32.5208 45.9957 32.8546 46.3294 32.8546 46.7585V56.8181C32.8546 57.2472 32.5208 57.5809 32.0917 57.5809H31.6865V56.4367C31.6865 56.1745 31.472 55.9599 31.2097 55.9599H29.7079C29.4457 55.9599 29.2312 56.1745 29.2312 56.4367V57.5809H28.4207V56.4367C28.4207 56.1745 28.2062 55.9599 27.9439 55.9599H26.4422C26.1799 55.9599 25.9654 56.1745 25.9654 56.4367V57.5809H25.1311V56.4367C25.1311 56.1745 24.9165 55.9599 24.6543 55.9599H23.1525C22.8903 55.9599 22.6758 56.1745 22.6758 56.4367V57.5809H21.8653ZM23.6293 58.0577V56.9135H24.1776V58.0577V59.3211H23.6293V58.0577ZM68.0631 48.4987C68.1585 48.5702 68.23 48.6417 68.3015 48.7609C68.5399 49.1423 68.4207 49.6429 68.0631 49.8813V48.4987ZM68.0631 50.9063C68.23 50.8586 68.373 50.7871 68.5161 50.7156C69.3504 50.1912 69.6364 49.0946 69.112 48.2603C68.8736 47.855 68.4922 47.5928 68.0631 47.4736V46.5916C68.8021 46.7347 69.4457 47.1637 69.851 47.8074C70.6138 49.0469 70.2085 50.6918 68.969 51.4546C68.6829 51.6214 68.373 51.7406 68.0631 51.7883V50.9063ZM53.379 36.6512L51.2574 39.2496L43.4624 39.2972L45.4171 36.6512H53.379ZM20.9118 21.4426V15.8169C20.9118 15.1256 21.4839 14.5535 22.1752 14.5535H50.2562C50.9475 14.5535 51.5196 15.1256 51.5196 15.8169V21.4426C51.5196 22.1339 50.9475 22.7061 50.2562 22.7061H48.8736H23.3671H22.1752C21.4839 22.7061 20.9118 22.1339 20.9118 21.4426ZM23.82 23.6596H48.373V24.7323H23.82V23.6596ZM4.15371 23.8741C4.15371 20.8229 6.65669 18.3199 9.70794 18.3199C12.7592 18.3199 15.2622 20.8229 15.2622 23.8741C15.2622 24.3032 15.2145 24.7323 15.1191 25.1137C14.547 27.569 12.354 29.4045 9.70794 29.4283C6.63285 29.4045 4.15371 26.9254 4.15371 23.8741ZM11.8057 41.3711C10.9237 41.3711 10.1847 40.656 10.1847 39.7502V30.358C12.9261 30.1673 15.2145 28.2603 15.9535 25.6858H23.3432H48.8498H49.8748C50.7568 25.6858 51.4958 26.4009 51.4958 27.3068V35.6977H45.1549C45.0119 35.6977 44.8689 35.7692 44.7735 35.8884L42.2705 39.2972L36.9547 39.3211C36.6925 39.3211 36.4779 39.5356 36.4779 39.7978V41.3711H11.8057ZM37.4314 40.2746L42.5089 40.2508L51.472 40.2031C51.615 40.2031 51.758 40.1316 51.8295 40.0362L54.6901 36.532L54.7139 36.5082L55.7389 35.2448H67.0858V60.9182H41.3885H37.4314V40.2746ZM41.8653 65.1614V61.8479H67.5864C67.8486 61.8479 68.0631 61.6334 68.0631 61.3711V58.3914C69.3504 58.3199 70.6138 57.9862 71.7819 57.3902V65.1614H41.8653ZM75.6198 51.1208C75.0953 53.2663 73.7842 55.0779 71.901 56.2222C70.733 56.9373 69.4219 57.3425 68.0631 57.414V52.7418C68.5637 52.6703 69.0405 52.5034 69.4696 52.2412C71.1621 51.1924 71.7103 48.9754 70.6615 47.2829C70.0894 46.3294 69.1358 45.7335 68.0631 45.5904V40.9182C69.1835 40.9897 70.2801 41.2758 71.2574 41.7525C71.3051 41.8002 71.3528 41.8241 71.4004 41.8241C72.7115 42.5154 73.8319 43.5404 74.6424 44.8515C75.7866 46.7585 76.1442 48.9754 75.6198 51.1208Z" fill="#009CB7"/>
<path d="M47.8011 54.2675C47.8965 54.3629 48.0156 54.4106 48.1348 54.4106C48.254 54.4106 48.3732 54.3629 48.4686 54.2675C48.6593 54.0768 48.6593 53.7908 48.4686 53.6001L45.3458 50.4773L48.4686 47.3546C48.6593 47.1639 48.6593 46.8778 48.4686 46.6871C48.2779 46.4964 47.9918 46.4964 47.8011 46.6871L44.3208 50.1674C44.2254 50.2628 44.1777 50.382 44.1777 50.5012C44.1777 50.6203 44.2254 50.7395 44.3208 50.8349L47.8011 54.2675Z" fill="#F9FCFF"/>
<path d="M51.3529 54.4103C51.4005 54.4103 51.4244 54.4342 51.4721 54.4342C51.6866 54.4342 51.8773 54.2911 51.925 54.0766L53.7843 47.1398C53.8559 46.8776 53.7128 46.6153 53.4506 46.5677C53.1884 46.4961 52.9262 46.6392 52.8785 46.9014L51.0191 53.8382C50.9476 54.0766 51.1145 54.3388 51.3529 54.4103Z" fill="#F9FCFF"/>
<path d="M60.0773 23.5642C59.8151 23.5642 59.6006 23.7788 59.6006 24.041V27.2591C59.6006 27.5213 59.8151 27.7358 60.0773 27.7358H64.6542C64.9164 27.7358 65.131 27.5213 65.131 27.2591V24.041C65.131 23.7788 64.9164 23.5642 64.6542 23.5642H60.0773ZM64.1775 26.8062H60.5541V24.5416H64.1775V26.8062Z" fill="#009CB7"/>
<path d="M27.467 55.1256H30.4706C30.7328 55.1256 30.9473 54.9111 30.9473 54.6489V47.6644C30.9473 47.4022 30.7328 47.1876 30.4706 47.1876H27.467C27.2048 47.1876 26.9902 47.4022 26.9902 47.6644V54.6489C26.9902 54.9111 27.2048 55.1256 27.467 55.1256ZM27.9438 48.1411H29.9938V54.1721H27.9438V48.1411Z" fill="#009CB7"/>
<path d="M26.1797 54.6489V47.6644C26.1797 47.4022 25.9652 47.1876 25.703 47.1876H17.0021C16.7399 47.1876 16.5254 47.4022 16.5254 47.6644V54.6489C16.5254 54.9111 16.7399 55.1256 17.0021 55.1256H25.6791C25.9652 55.1256 26.1797 54.9111 26.1797 54.6489ZM25.2262 54.1721H17.4789V48.1411H25.2024V54.1721H25.2262Z" fill="#009CB7"/>
<path d="M41.2002 65.5999V61.5999H67.6002V57.9999C69.0402 57.9999 71.2669 57.1999 72.2002 56.7999V65.5999H41.2002Z" fill="#009CB7"/>
<rect x="23.6001" y="23.2" width="25.6" height="2" fill="#009CB7"/>
<rect x="25.6001" y="17.6" width="20.8" height="2" fill="#009CB7"/>
<rect x="25.6001" y="32.7999" width="18.4" height="2" rx="1" fill="#009CB7"/>
</svg>
