<svg width="80" height="80" viewBox="0 0 80 80" fill="none" xmlns="http://www.w3.org/2000/svg">
<path d="M61.3992 20V16.2L57.1992 20H61.3992Z" fill="#C3F6FA"/>
<rect x="10" y="25.6" width="42" height="16" rx="5" fill="#C3F6FA"/>
<rect x="17.1992" y="47.6" width="8.4" height="7.2" rx="1" fill="#C3F6FA"/>
<rect x="60" y="24" width="4.4" height="3.6" rx="1" fill="#CBE3FF"/>
<rect x="27.5996" y="47.6" width="2.8" height="7.2" rx="1" fill="#45B4C8"/>
<rect x="20.7988" y="14.4" width="31.2" height="8.8" rx="4.4" fill="#C3F6FA"/>
<path d="M45.1996 36.2H54.3996L51.3996 39.8H42.5996L45.1996 36.2Z" fill="#CBE3FF"/>
<circle cx="18.3992" cy="33.6" r="3.2" fill="#417BD2"/>
<circle cx="18.3988" cy="33.6" r="1.6" fill="#164995"/>
<circle cx="9.8" cy="23.8" r="5.8" fill="#FFDF34"/>
<path d="M51.3988 39.8L55.5988 35H67.3988V61.4H36.7988V39.8H51.3988Z" fill="#45B4C8"/>
<path d="M7.51292 24.2318L8.08503 24.3271C8.10887 24.4463 8.15654 24.5655 8.22806 24.6608L7.89433 25.1376C7.87049 25.1853 7.87049 25.2329 7.91816 25.2568L8.29957 25.6382C8.32341 25.662 8.39492 25.6859 8.41876 25.662L8.89552 25.3283C8.99087 25.376 9.11006 25.4236 9.22925 25.4713L9.3246 26.0434C9.3246 26.0911 9.37228 26.1149 9.41995 26.1149H9.96822C10.0159 26.1149 10.0636 26.0911 10.0636 26.0434L10.1589 25.4713C10.2781 25.4475 10.3973 25.376 10.4927 25.3283L10.9694 25.662C11.0171 25.6859 11.0648 25.6859 11.0886 25.6382L11.47 25.2568C11.4939 25.2329 11.5177 25.1614 11.47 25.1376L11.1363 24.6608C11.184 24.5655 11.2316 24.4463 11.2793 24.3271L11.8514 24.2318C11.8991 24.2318 11.9229 24.1841 11.9229 24.1364V23.5881C11.9229 23.5405 11.8991 23.4928 11.8514 23.4928L11.3031 23.3974C11.2793 23.2782 11.2316 23.159 11.1601 23.0637L11.4939 22.5869C11.5177 22.5393 11.5177 22.4916 11.4939 22.4677L11.1124 22.0863C11.0886 22.0625 11.0171 22.0387 10.9933 22.0863L10.5165 22.4201C10.4211 22.3724 10.302 22.3247 10.1828 22.277L10.0874 21.7049C10.0874 21.6573 10.0397 21.6334 9.99206 21.6334H9.44379C9.39612 21.6334 9.34844 21.6811 9.34844 21.7288L9.25309 22.3009C9.1339 22.3247 9.01471 22.3724 8.91936 22.4439L8.4426 22.1102C8.39492 22.0863 8.34725 22.0863 8.32341 22.1102L7.942 22.4916C7.91816 22.5154 7.89433 22.5869 7.91816 22.6108L8.2519 23.0875C8.20422 23.1829 8.15654 23.3021 8.10887 23.4213L7.53676 23.5166C7.48908 23.5166 7.44141 23.5643 7.44141 23.612V24.1602C7.44141 24.1841 7.48908 24.2318 7.51292 24.2318ZM9.70601 23.1829C10.0874 23.1829 10.3973 23.4928 10.3973 23.8742C10.3973 24.2556 10.0874 24.5655 9.70601 24.5655C9.3246 24.5655 9.01471 24.2556 9.01471 23.8742C9.01471 23.4928 9.3246 23.1829 9.70601 23.1829Z" fill="#F9FCFF"/>
<path d="M9.70774 28.4511C12.2346 28.4511 14.2846 26.4011 14.2846 23.8742C14.2846 21.3474 12.2346 19.2974 9.70774 19.2974C7.18092 19.2974 5.13086 21.3474 5.13086 23.8742C5.13086 26.4011 7.18092 28.4511 9.70774 28.4511ZM9.70774 19.7741C11.9723 19.7741 13.8079 21.6096 13.8079 23.8742C13.8079 26.1388 11.9723 27.9744 9.70774 27.9744C7.44314 27.9744 5.60762 26.1388 5.60762 23.8742C5.60762 21.6096 7.44314 19.7741 9.70774 19.7741Z" fill="#F9FCFF"/>
<path d="M44.6769 33.6239V33.457C44.6769 32.7657 44.1048 32.1936 43.4135 32.1936H25.988C25.2967 32.1936 24.7246 32.7657 24.7246 33.457V33.6239C24.7246 34.3152 25.2967 34.8873 25.988 34.8873H43.4135C44.1048 34.8873 44.6769 34.3152 44.6769 33.6239ZM25.6781 33.6239V33.457C25.6781 33.2901 25.8212 33.1471 25.988 33.1471H43.4135C43.5804 33.1471 43.7234 33.2901 43.7234 33.457V33.6239C43.7234 33.7907 43.5804 33.9338 43.4135 33.9338H25.988C25.8212 33.9338 25.6781 33.7907 25.6781 33.6239Z" fill="#009CB7"/>
<path d="M25.988 19.9648H45.7496C46.4409 19.9648 47.0131 19.3927 47.0131 18.7014V18.5345C47.0131 17.8432 46.4409 17.2711 45.7496 17.2711H25.988C25.2967 17.2711 24.7246 17.8432 24.7246 18.5345V18.7014C24.7246 19.3927 25.2967 19.9648 25.988 19.9648ZM25.6781 18.5345C25.6781 18.3677 25.8212 18.2246 25.988 18.2246H45.7496C45.9165 18.2246 46.0595 18.3677 46.0595 18.5345V18.7014C46.0595 18.8683 45.9165 19.0113 45.7496 19.0113H25.988C25.8212 19.0113 25.6781 18.8683 25.6781 18.7014V18.5345Z" fill="#009CB7"/>
<path d="M58.8604 51.2401L56.5004 53.6C56.3097 53.7907 56.3097 54.0768 56.5004 54.2675C56.5958 54.3628 56.715 54.4105 56.8342 54.4105C56.9534 54.4105 57.0726 54.3628 57.1679 54.2675L60.6482 50.7872C60.7436 50.6918 60.7913 50.5726 60.7913 50.4534C60.7913 50.3342 60.7436 50.215 60.6482 50.1197L57.1679 46.6394C56.9772 46.4487 56.6912 46.4487 56.5004 46.6394C56.3097 46.8301 56.3097 47.1161 56.5004 47.3068L59.6232 50.4296L58.8604 51.2401Z" fill="#F9FCFF"/>
<path d="M75.4519 44.3747C74.5222 42.8491 73.2112 41.6572 71.6617 40.8944V27.1637C71.6617 26.2102 70.875 25.4236 69.9215 25.4236H68.0622V15.6977C68.0622 15.4355 67.8476 15.221 67.5854 15.221H61.3637C61.3399 15.221 61.2922 15.221 61.2684 15.221C61.2445 15.221 61.2207 15.221 61.2207 15.2448H61.1968C61.173 15.2448 61.1492 15.2686 61.1253 15.2686H61.1015C61.0777 15.2925 61.0538 15.3163 61.03 15.3163L56.8107 19.5356C56.7153 19.631 56.6676 19.7502 56.6676 19.8693V20.06C56.6676 20.06 56.6676 20.06 56.6676 20.0839V20.1077L56.763 30.3819C56.763 30.6441 56.9775 30.8586 57.2397 30.8586H67.6092C67.8715 30.8586 68.086 30.6441 68.086 30.3819V25.9003H69.9454C70.6367 25.9003 71.2088 26.4724 71.2088 27.1637V40.7037C70.2314 40.2984 69.1825 40.0362 68.086 39.9885V34.7442C68.086 34.482 67.8715 34.2674 67.6092 34.2674H55.5711C55.4281 34.2674 55.285 34.339 55.2135 34.4343L54.1885 35.6977H52.496V27.3068C52.496 25.9003 51.3518 24.7323 49.9215 24.7323H49.3732V23.6596H50.2791C51.4948 23.6596 52.496 22.6584 52.496 21.4426V15.8169C52.496 14.6012 51.4948 13.6 50.2791 13.6H22.1742C20.9585 13.6 19.9573 14.6012 19.9573 15.8169V21.4426C19.9573 22.6584 20.9585 23.6596 22.1742 23.6596H22.8893V24.7323H16.1432C16.1909 24.4462 16.2147 24.1602 16.2147 23.8741C16.2147 20.2746 13.3065 17.3664 9.70697 17.3664C6.10744 17.3664 3.19922 20.2746 3.19922 23.8741C3.19922 27.3068 5.86906 30.1196 9.23021 30.358V39.774C9.23021 41.1804 10.3744 42.3485 11.8047 42.3485H36.4769V61.3711C36.4769 61.6334 36.6915 61.8479 36.9537 61.8479H40.9108V63.8264H25.6068C24.7964 63.8264 24.1527 63.159 24.1527 62.3723V60.2984H24.6533C24.9156 60.2984 25.1301 60.0839 25.1301 59.8217V58.5583H25.9406V59.8217C25.9406 60.0839 26.1551 60.2984 26.4173 60.2984H27.9191C28.1813 60.2984 28.3959 60.0839 28.3959 59.8217V58.5583H29.2064V59.8217C29.2064 60.0839 29.4209 60.2984 29.6831 60.2984H31.1849C31.4471 60.2984 31.6617 60.0839 31.6617 59.8217V58.5583H32.0669C33.0204 58.5583 33.7833 57.7955 33.7833 56.8419V46.7823C33.7833 45.8288 33.0204 45.066 32.0669 45.066H15.7141C14.7606 45.066 13.9978 45.8288 13.9978 46.7823V56.8419C13.9978 57.7955 14.7606 58.5583 15.7141 58.5583H16.1194V59.8217C16.1194 60.0839 16.3339 60.2984 16.5961 60.2984H18.0979C18.3601 60.2984 18.5747 60.0839 18.5747 59.8217V58.5583H19.409V59.8217C19.409 60.0839 19.6235 60.2984 19.8858 60.2984H21.3875C21.6498 60.2984 21.8643 60.0839 21.8643 59.8217V58.5583H22.6748V59.8217C22.6748 60.0839 22.8893 60.2984 23.1515 60.2984H23.6521V62.3723C23.6521 63.445 24.5341 64.3032 25.583 64.3032H40.887V65.6381C40.887 65.9003 41.1015 66.1149 41.3637 66.1149H72.2338C72.496 66.1149 72.7106 65.9003 72.7106 65.6381V56.8181C74.6176 55.5309 75.9763 53.6 76.5246 51.3354C77.1206 48.9516 76.7392 46.4725 75.4519 44.3747ZM60.887 16.8419V19.631H58.0979L60.887 16.8419ZM67.1086 29.9289H57.6927L57.6212 20.6083H61.3637C61.6259 20.6083 61.8405 20.3938 61.8405 20.1316V16.1745H67.1325V29.9289H67.1086ZM26.8941 59.3449V56.9373H27.4424V58.0815V59.3449H26.8941ZM30.732 59.3449H30.1837V56.9373H30.732V59.3449ZM17.6212 59.3449H17.0729V56.9373H17.6212V59.3449ZM20.9108 59.3449H20.3625V56.9373H20.9108V59.3449ZM21.8643 57.5809V56.4367C21.8643 56.1745 21.6498 55.9599 21.3875 55.9599H19.8858C19.6235 55.9599 19.409 56.1745 19.409 56.4367V57.5809H18.5985V56.4367C18.5985 56.1745 18.384 55.9599 18.1217 55.9599H16.62C16.3577 55.9599 16.1432 56.1745 16.1432 56.4367V57.5809H15.738C15.3089 57.5809 14.9751 57.2472 14.9751 56.8181V46.7585C14.9751 46.3294 15.3089 45.9957 15.738 45.9957H32.0908C32.5198 45.9957 32.8536 46.3294 32.8536 46.7585V56.8181C32.8536 57.2472 32.5198 57.5809 32.0908 57.5809H31.6855V56.4367C31.6855 56.1745 31.471 55.9599 31.2088 55.9599H29.707C29.4448 55.9599 29.2302 56.1745 29.2302 56.4367V57.5809H28.4197V56.4367C28.4197 56.1745 28.2052 55.9599 27.943 55.9599H26.4412C26.179 55.9599 25.9644 56.1745 25.9644 56.4367V57.5809H25.1301V56.4367C25.1301 56.1745 24.9156 55.9599 24.6533 55.9599H23.1515C22.8893 55.9599 22.6748 56.1745 22.6748 56.4367V57.5809H21.8643ZM23.6283 58.0577V56.9135H24.1766V58.0577V59.3211H23.6283V58.0577ZM68.0622 48.4987C68.1575 48.5702 68.229 48.6417 68.3005 48.7609C68.5389 49.1423 68.4197 49.6429 68.0622 49.8813V48.4987ZM68.0622 50.9063C68.229 50.8586 68.3721 50.7871 68.5151 50.7156C69.3494 50.1912 69.6355 49.0946 69.111 48.2603C68.8727 47.855 68.4912 47.5928 68.0622 47.4736V46.5916C68.8011 46.7347 69.4448 47.1637 69.85 47.8074C70.6128 49.0469 70.2076 50.6918 68.968 51.4546C68.6819 51.6214 68.3721 51.7406 68.0622 51.7883V50.9063ZM53.378 36.6512L51.2564 39.2496L43.4614 39.2972L45.4162 36.6512H53.378ZM20.9108 21.4426V15.8169C20.9108 15.1256 21.4829 14.5535 22.1742 14.5535H50.2552C50.9465 14.5535 51.5187 15.1256 51.5187 15.8169V21.4426C51.5187 22.1339 50.9465 22.7061 50.2552 22.7061H48.8727H23.3661H22.1742C21.4829 22.7061 20.9108 22.1339 20.9108 21.4426ZM23.819 23.6596H48.3721V24.7323H23.819V23.6596ZM4.15273 23.8741C4.15273 20.8229 6.65571 18.3199 9.70697 18.3199C12.7582 18.3199 15.2612 20.8229 15.2612 23.8741C15.2612 24.3032 15.2135 24.7323 15.1182 25.1137C14.5461 27.569 12.353 29.4045 9.70697 29.4283C6.63188 29.4045 4.15273 26.9254 4.15273 23.8741ZM11.8047 41.3711C10.9227 41.3711 10.1837 40.656 10.1837 39.7502V30.358C12.9251 30.1673 15.2135 28.2603 15.9525 25.6858H23.3422H48.8488H49.8738C50.7558 25.6858 51.4948 26.4009 51.4948 27.3068V35.6977H45.1539C45.0109 35.6977 44.8679 35.7692 44.7725 35.8884L42.2695 39.2972L36.9537 39.3211C36.6915 39.3211 36.4769 39.5356 36.4769 39.7978V41.3711H11.8047ZM37.4305 40.2746L42.5079 40.2508L51.471 40.2031C51.614 40.2031 51.757 40.1316 51.8285 40.0362L54.6891 36.532L54.7129 36.5082L55.738 35.2448H67.0848V60.9182H41.3875H37.4305V40.2746ZM41.8643 65.1614V61.8479H67.5854C67.8476 61.8479 68.0622 61.6334 68.0622 61.3711V58.3914C69.3494 58.3199 70.6128 57.9862 71.7809 57.3902V65.1614H41.8643ZM75.6188 51.1208C75.0943 53.2663 73.7833 55.0779 71.9001 56.2222C70.732 56.9373 69.4209 57.3425 68.0622 57.414V52.7418C68.5628 52.6703 69.0395 52.5034 69.4686 52.2412C71.1611 51.1924 71.7094 48.9754 70.6605 47.2829C70.0884 46.3294 69.1349 45.7335 68.0622 45.5904V40.9182C69.1825 40.9897 70.2791 41.2758 71.2564 41.7525C71.3041 41.8002 71.3518 41.8241 71.3995 41.8241C72.7106 42.5154 73.8309 43.5404 74.6414 44.8515C75.7856 46.7585 76.1432 48.9754 75.6188 51.1208Z" fill="#009CB7"/>
<path d="M47.7991 54.2675C47.8945 54.3629 48.0137 54.4106 48.1329 54.4106C48.2521 54.4106 48.3713 54.3629 48.4666 54.2675C48.6573 54.0768 48.6573 53.7908 48.4666 53.6001L45.3438 50.4773L48.4666 47.3546C48.6573 47.1639 48.6573 46.8778 48.4666 46.6871C48.2759 46.4964 47.9898 46.4964 47.7991 46.6871L44.3188 50.1674C44.2235 50.2628 44.1758 50.382 44.1758 50.5012C44.1758 50.6203 44.2235 50.7395 44.3188 50.8349L47.7991 54.2675Z" fill="#F9FCFF"/>
<path d="M51.3524 54.4103C51.4001 54.4103 51.4239 54.4342 51.4716 54.4342C51.6861 54.4342 51.8768 54.2911 51.9245 54.0766L53.7839 47.1398C53.8554 46.8776 53.7123 46.6153 53.4501 46.5677C53.1879 46.4961 52.9257 46.6392 52.878 46.9014L51.0187 53.8382C50.9471 54.0766 51.114 54.3388 51.3524 54.4103Z" fill="#F9FCFF"/>
<path d="M60.0764 23.5642C59.8142 23.5642 59.5996 23.7788 59.5996 24.041V27.2591C59.5996 27.5213 59.8142 27.7358 60.0764 27.7358H64.6532C64.9155 27.7358 65.13 27.5213 65.13 27.2591V24.041C65.13 23.7788 64.9155 23.5642 64.6532 23.5642H60.0764ZM64.1765 26.8062H60.5531V24.5416H64.1765V26.8062Z" fill="#009CB7"/>
<path d="M27.467 55.1256H30.4706C30.7328 55.1256 30.9473 54.9111 30.9473 54.6489V47.6644C30.9473 47.4022 30.7328 47.1876 30.4706 47.1876H27.467C27.2048 47.1876 26.9902 47.4022 26.9902 47.6644V54.6489C26.9902 54.9111 27.2048 55.1256 27.467 55.1256ZM27.9438 48.1411H29.9938V54.1721H27.9438V48.1411Z" fill="#009CB7"/>
<path d="M26.1797 54.6489V47.6644C26.1797 47.4022 25.9652 47.1876 25.703 47.1876H17.0021C16.7399 47.1876 16.5254 47.4022 16.5254 47.6644V54.6489C16.5254 54.9111 16.7399 55.1256 17.0021 55.1256H25.6791C25.9652 55.1256 26.1797 54.9111 26.1797 54.6489ZM25.2262 54.1721H17.4789V48.1411H25.2024V54.1721H25.2262Z" fill="#009CB7"/>
<path d="M41.1992 65.5999V61.5999H67.5992V57.9999C69.0392 57.9999 71.2659 57.1999 72.1992 56.7999V65.5999H41.1992Z" fill="#009CB7"/>
<rect x="23.5996" y="23.2" width="25.6" height="2" fill="#009CB7"/>
<rect x="25.5996" y="17.6" width="20.8" height="2" fill="#009CB7"/>
<rect x="25.5996" y="32.7999" width="18.4" height="2" rx="1" fill="#009CB7"/>
</svg>
