<svg width="18" height="18" viewBox="0 0 18 18" fill="none" xmlns="http://www.w3.org/2000/svg">
<path fill-rule="evenodd" clip-rule="evenodd" d="M3 5.25L3 14.25L15 14.25L15 5.25L3 5.25ZM2.25 3.75L15 3.75C15.8284 3.75 16.5 4.42157 16.5 5.25L16.5 14.25C16.5 15.0784 15.8284 15.75 15 15.75L3 15.75C2.17157 15.75 1.5 15.0784 1.5 14.25L1.5 4.5C1.5 4.30109 1.57902 4.11032 1.71967 3.96967C1.86032 3.82902 2.05109 3.75 2.25 3.75Z" fill="#009CB7"/>
<path fill-rule="evenodd" clip-rule="evenodd" d="M9.96967 7.71967C10.2626 7.42678 10.7374 7.42678 11.0303 7.71967L12.5303 9.21967C12.8232 9.51256 12.8232 9.98744 12.5303 10.2803L11.0303 11.7803C10.7374 12.0732 10.2626 12.0732 9.96967 11.7803C9.67678 11.4874 9.67678 11.0126 9.96967 10.7197L10.9393 9.75L9.96967 8.78033C9.67678 8.48744 9.67678 8.01256 9.96967 7.71967Z" fill="#009CB7"/>
<path fill-rule="evenodd" clip-rule="evenodd" d="M8.03033 7.71967C8.32322 8.01256 8.32322 8.48744 8.03033 8.78033L7.06066 9.75L8.03033 10.7197C8.32322 11.0126 8.32322 11.4874 8.03033 11.7803C7.73744 12.0732 7.26256 12.0732 6.96967 11.7803L5.46967 10.2803C5.32902 10.1397 5.25 9.94891 5.25 9.75C5.25 9.55109 5.32902 9.36032 5.46967 9.21967L6.96967 7.71967C7.26256 7.42678 7.73744 7.42678 8.03033 7.71967Z" fill="#009CB7"/>
<path fill-rule="evenodd" clip-rule="evenodd" d="M1.5 3.75C1.5 2.92157 2.17157 2.25 3 2.25H7.18934C7.58716 2.25 7.96869 2.40803 8.25 2.68934L9.53033 3.96967C9.82322 4.26256 9.82322 4.73744 9.53033 5.03033C9.23744 5.32322 8.76256 5.32322 8.46967 5.03033L7.18934 3.75H3V4.5C3 4.91421 2.66421 5.25 2.25 5.25C1.83579 5.25 1.5 4.91421 1.5 4.5V3.75Z" fill="#009CB7"/>
</svg>
