<svg height="50" viewBox="0 0 50 50" width="50" xmlns="http://www.w3.org/2000/svg"><g fill="#fff" fill-rule="evenodd"><circle cx="25" cy="25" opacity=".15" r="25"/><path d="m16 6.94c-.0104163-.0918651-.0305284-.18236942-.06-.27v-.09c-.0480811-.10282025-.1122162-.19733517-.19-.28l-6-6c-.08266483-.07778379-.17717975-.14191892-.28-.19-.0298502-.00423982-.0601498-.00423982-.09 0-.1015852-.05825865-.21377665-.0956558-.33-.11h-6.05c-1.65685425 0-3 1.34314575-3 3v14c0 1.6568542 1.34314575 3 3 3h10c1.6568542 0 3-1.3431458 3-3v-10s0 0 0-.06zm-6-3.53 2.59 2.59h-1.59c-.5522847 0-1-.44771525-1-1zm4 13.59c0 .5522847-.4477153 1-1 1h-10c-.55228475 0-1-.4477153-1-1v-14c0-.55228475.44771525-1 1-1h5v3c0 1.65685425 1.34314575 3 3 3h3zm-3.71-6.71-3.29 3.3-1.29-1.3c-.39212217-.3921222-1.02787783-.3921222-1.42 0s-.39212217 1.0278778 0 1.42l2 2c.1877666.1893127.44336246.2957983.71.2957983s.5222334-.1064856.71-.2957983l4-4c.3921222-.3921222.3921222-1.0278778 0-1.42-.3921222-.39212216-1.0278778-.39212216-1.42 0z" fill-rule="nonzero" transform="translate(17 15)"/></g></svg>