<?xml version="1.0" encoding="UTF-8"?>
<svg width="20px" height="24px" viewBox="0 0 20 24" version="1.1" xmlns="http://www.w3.org/2000/svg" xmlns:xlink="http://www.w3.org/1999/xlink">
    <!-- Generator: Sketch 52.6 (67491) - http://www.bohemiancoding.com/sketch -->
    <title>Group 6</title>
    <desc>Created with Sketch.</desc>
    <g id="Landing-page" stroke="none" stroke-width="1" fill="none" fill-rule="evenodd">
        <g id="1.1--Home" transform="translate(-1281.000000, -3311.000000)" fill="#0B7A76" fill-rule="nonzero">
            <g id="how-it-works-and-security" transform="translate(0.000000, 2983.000000)">
                <g id="Group-16" transform="translate(950.000000, 203.000000)">
                    <g id="Group-15">
                        <g id="Group-29" transform="translate(105.000000, 123.000000)">
                            <g id="Group-6" transform="translate(226.000000, 2.000000)">
                                <g id="file-check">
                                    <path d="M19.2,8.328 C19.1875005,8.21776187 19.163366,8.1091567 19.128,8.004 L19.128,7.896 C19.0703027,7.7726157 18.9933406,7.6591978 18.9,7.56 L11.7,0.36 C11.6008022,0.266659446 11.4873843,0.189697297 11.364,0.132 C11.3281798,0.126912221 11.2918202,0.126912221 11.256,0.132 C11.1340978,0.0620896255 10.999468,0.0172130445 10.86,0 L3.6,0 C1.6117749,-2.66453526e-16 3.62376795e-13,1.6117749 3.62376795e-13,3.6 L3.62376795e-13,20.4 C3.62376795e-13,22.3882251 1.6117749,24 3.6,24 L15.6,24 C17.5882251,24 19.2,22.3882251 19.2,20.4 L19.2,8.4 C19.2,8.4 19.2,8.4 19.2,8.328 Z M12,4.092 L15.108,7.2 L13.2,7.2 C12.5372583,7.2 12,6.6627417 12,6 L12,4.092 Z M16.8,20.4 C16.8,21.0627417 16.2627417,21.6 15.6,21.6 L3.6,21.6 C2.9372583,21.6 2.4,21.0627417 2.4,20.4 L2.4,3.6 C2.4,2.9372583 2.9372583,2.4 3.6,2.4 L9.6,2.4 L9.6,6 C9.6,7.9882251 11.2117749,9.6 13.2,9.6 L16.8,9.6 L16.8,20.4 Z M12.348,12.348 L8.4,16.308 L6.852,14.748 C6.38145339,14.2774534 5.61854661,14.2774534 5.148,14.748 C4.67745339,15.2185466 4.67745339,15.9814534 5.148,16.452 L7.548,18.852 C7.77331992,19.0791752 8.08003496,19.206958 8.4,19.206958 C8.71996504,19.206958 9.02668008,19.0791752 9.252,18.852 L14.052,14.052 C14.5225466,13.5814534 14.5225466,12.8185466 14.052,12.348 C13.5814534,11.8774534 12.8185466,11.8774534 12.348,12.348 Z" id="Shape"></path>
                                </g>
                            </g>
                        </g>
                    </g>
                </g>
            </g>
        </g>
    </g>
</svg>