<svg height="33" viewBox="0 0 35 33" width="35" xmlns="http://www.w3.org/2000/svg"><path d="m18.6015859 14.3984146c-.1651802-.1581232-.3599584-.282073-.5731581-.364737-.4228541-.1737155-.8971464-.1737155-1.3200005 0-.2131998.082664-.407978.2066138-.5731581.364737l-3.4736855 3.4736855c-.6810546.6810546-.6810546 1.7852622 0 2.4663167.6810545.6810546 1.7852621.6810546 2.4663167 0l.5036844-.5210528v4.4984227c0 .9592318.7776109 1.7368428 1.7368427 1.7368428s1.7368428-.777611 1.7368428-1.7368428v-4.4984227l.5036844.5210528c.326121.3288063.7700508.5137552 1.2331583.5137552s.9070373-.1849489 1.2331584-.5137552c.3288063-.326121.5137551-.7700508.5137551-1.2331583s-.1849488-.9070373-.5137551-1.2331584zm10.9247409-9.18789812h-10.9073725l-.5557897-1.73684276c-.738491-2.08882049-2.7171273-3.48222633-4.9326334-3.4736855h-7.92000295c-2.87769529 0-5.21052825 2.33283296-5.21052825 5.21052826v22.57895572c0 2.8776953 2.33283296 5.2105283 5.21052825 5.2105283h24.31579855c2.8776953 0 5.2105282-2.332833 5.2105282-5.2105283v-17.3684275c0-2.87769526-2.3328329-5.21052822-5.2105282-5.21052822zm1.7368427 22.57895572c0 .9592318-.777611 1.7368428-1.7368427 1.7368428h-24.31579855c-.95923176 0-1.73684275-.777611-1.73684275-1.7368428v-22.57895572c0-.95923177.77761099-1.73684276 1.73684275-1.73684276h7.92000295c.7466963-.00192747 1.4110595.47361667 1.6500006 1.18105307l.9378951 2.84842212c.2389411.7074364.9033043 1.18298054 1.6500006 1.18105307h12.1578993c.9592317 0 1.7368427.77761098 1.7368427 1.73684272z" fill="#0b7a76"/></svg>