<?xml version="1.0" encoding="UTF-8"?>
<svg width="24px" height="24px" viewBox="0 0 24 24" version="1.1" xmlns="http://www.w3.org/2000/svg" xmlns:xlink="http://www.w3.org/1999/xlink">
    <!-- Generator: Sketch 52.6 (67491) - http://www.bohemiancoding.com/sketch -->
    <title>Group 8</title>
    <desc>Created with Sketch.</desc>
    <g id="Landing-page" stroke="none" stroke-width="1" fill="none" fill-rule="evenodd">
        <g id="1.1--Home" transform="translate(-163.000000, -2454.000000)" fill="#0B7A76" fill-rule="nonzero">
            <g id="Group-4" transform="translate(163.000000, 1943.000000)">
                <g id="Group-30" transform="translate(0.000000, 162.000000)">
                    <g id="Group-13" transform="translate(0.000000, 343.000000)">
                        <g id="Group-8" transform="translate(0.000000, 6.000000)">
                            <g id="play">
                                <g id="money-stack">
                                    <path d="M6.6,16.8 C7.59411255,16.8 8.4,15.9941125 8.4,15 C8.40585808,14.940143 8.40585808,14.879857 8.4,14.82 L11.748,11.472 L12.024,11.472 L12.3,11.472 L14.232,13.404 C14.232,13.404 14.232,13.464 14.232,13.5 C14.232,14.4941125 15.0378875,15.3 16.032,15.3 C17.0261125,15.3 17.832,14.4941125 17.832,13.5 L17.832,13.404 L22.2,9 C23.1941125,9 24,8.19411255 24,7.2 C24,6.20588745 23.1941125,5.4 22.2,5.4 C21.2058875,5.4 20.4,6.20588745 20.4,7.2 C20.3941419,7.25985701 20.3941419,7.32014299 20.4,7.38 L16.068,11.712 L15.876,11.712 L13.8,9.6 C13.8,8.60588745 12.9941125,7.8 12,7.8 C11.0058875,7.8 10.2,8.60588745 10.2,9.6 L6.6,13.2 C5.60588745,13.2 4.8,14.0058875 4.8,15 C4.8,15.9941125 5.60588745,16.8 6.6,16.8 Z M22.8,21.6 L2.4,21.6 L2.4,1.2 C2.4,0.5372583 1.8627417,0 1.2,0 C0.5372583,0 0,0.5372583 0,1.2 L0,22.8 C0,23.4627417 0.5372583,24 1.2,24 L22.8,24 C23.4627417,24 24,23.4627417 24,22.8 C24,22.1372583 23.4627417,21.6 22.8,21.6 Z" id="Shape"></path>
                                </g>
                            </g>
                        </g>
                    </g>
                </g>
            </g>
        </g>
    </g>
</svg>