<svg height="36" viewBox="0 0 36 36" width="36" xmlns="http://www.w3.org/2000/svg"><path d="m21.6 12.6h-7.2c-.9941125 0-1.8.8058875-1.8 1.8v7.2c0 .9941125.8058875 1.8 1.8 1.8h7.2c.9941125 0 1.8-.8058875 1.8-1.8v-7.2c0-.9941125-.8058875-1.8-1.8-1.8zm-1.8 7.2h-3.6v-3.6h3.6zm14.4 0c.9941125 0 1.8-.8058875 1.8-1.8s-.8058875-1.8-1.8-1.8h-3.6v-3.6h3.6c.9941125 0 1.8-.8058875 1.8-1.8 0-.99411255-.8058875-1.8-1.8-1.8h-3.924c-.544288-1.52876853-1.7472315-2.73171197-3.276-3.276v-3.924c0-.99411255-.8058875-1.8-1.8-1.8s-1.8.80588745-1.8 1.8v3.6h-3.6v-3.6c0-.99411255-.8058875-1.8-1.8-1.8s-1.8.80588745-1.8 1.8v3.6h-3.6v-3.6c0-.99411255-.8058875-1.8-1.8-1.8-.99411255 0-1.8.80588745-1.8 1.8v3.924c-1.52876853.54428803-2.73171197 1.74723147-3.276 3.276h-3.924c-.99411255 0-1.8.80588745-1.8 1.8 0 .9941125.80588745 1.8 1.8 1.8h3.6v3.6h-3.6c-.99411255 0-1.8.8058875-1.8 1.8s.80588745 1.8 1.8 1.8h3.6v3.6h-3.6c-.99411255 0-1.8.8058875-1.8 1.8s.80588745 1.8 1.8 1.8h3.924c.54428803 1.5287685 1.74723147 2.731712 3.276 3.276v3.924c0 .9941125.80588745 1.8 1.8 1.8.9941125 0 1.8-.8058875 1.8-1.8v-3.6h3.6v3.6c0 .9941125.8058875 1.8 1.8 1.8s1.8-.8058875 1.8-1.8v-3.6h3.6v3.6c0 .9941125.8058875 1.8 1.8 1.8s1.8-.8058875 1.8-1.8v-3.924c1.5287685-.544288 2.731712-1.7472315 3.276-3.276h3.924c.9941125 0 1.8-.8058875 1.8-1.8s-.8058875-1.8-1.8-1.8h-3.6v-3.6zm-7.2 5.4c0 .9941125-.8058875 1.8-1.8 1.8h-14.4c-.99411255 0-1.8-.8058875-1.8-1.8v-14.4c0-.99411255.80588745-1.8 1.8-1.8h14.4c.9941125 0 1.8.80588745 1.8 1.8z" fill="#0b7a76"/></svg>