<svg height="22" viewBox="0 0 28 22" width="28" xmlns="http://www.w3.org/2000/svg"><path d="m32.5867684 32.8601041c1.488-5.13 5.158-8.86 8.727-8.86.2855083-.0018319.5706192.0215927.852.07.1555708.0284097.2930119.1185942.381.25.0858171.1297292.1103145.2906075.067.44l-.735 2.53c-.0761028.2480429-.3108602.4127849-.57.4h-.058c-1.323 0-3.742 1.91-4.975 6.17-.048.17-.094.34-.139.52 1.4140199-.6680032 3.0190217-.8132683 4.53-.41 1.5960187.3997443 2.9633683 1.4262751 3.7926538 2.8473159.8292856 1.4210408 1.0504127 3.1164797.6133462 4.7026841-.8220548 2.681344-3.3085711 4.5036232-6.113 4.48-.5789224-.0015397-1.155152-.0788634-1.714-.23-2.3434354-.7225675-4.1328318-2.6263425-4.709-5.01-.732316-2.5848624-.7149758-5.3246142.05-7.9zm23.435-8.86c.2855099-.0018738.5706245.0215511.852.07.1558504.0283747.2936165.1185358.382.25.0849623.1300812.1090575.2907158.066.44l-.735 2.53c-.0751812.248711-.3105453.4138788-.57.4h-.057c-1.324 0-3.742 1.91-4.975 6.17-.049.17-.1.34-.14.52 1.4140199-.6680032 3.0190217-.8132683 4.53-.41 1.5960187.3997443 2.9633683 1.4262751 3.7926538 2.8473159.8292856 1.4210408 1.0504127 3.1164797.6133462 4.7026841-.8217713 2.6815455-3.3084644 4.5039543-6.113 4.48-.5789224-.0015397-1.155152-.0788634-1.714-.23-2.3434354-.7225675-4.1328318-2.6263425-4.709-5.01-.732316-2.5848624-.7149758-5.3246142.05-7.9 1.488-5.13 5.159-8.86 8.727-8.86z" fill="#333" fill-rule="evenodd" opacity=".3" transform="translate(-32 -24)"/></svg>