<?xml version="1.0" encoding="UTF-8"?>
<svg width="64px" height="64px" viewBox="0 0 64 64" version="1.1" xmlns="http://www.w3.org/2000/svg" xmlns:xlink="http://www.w3.org/1999/xlink">
    <!-- Generator: Sketch 52.6 (67491) - http://www.bohemiancoding.com/sketch -->
    <title>cloud-computing (1)</title>
    <desc>Created with Sketch.</desc>
    <g id="Website" stroke="none" stroke-width="1" fill="none" fill-rule="evenodd">
        <g id="6--Pricing" transform="translate(-834.000000, -3180.000000)" fill-rule="nonzero">
            <g id="Group-12" transform="translate(92.000000, 2652.000000)">
                <g id="Group-30" transform="translate(45.000000, 528.000000)">
                    <g id="Group-11">
                        <g id="cloud-computing-(1)" transform="translate(697.000000, 0.000000)">
                            <path d="M52,64 L12,64 C5.372,64 0,58.628 0,52 L0,12 C0,5.372 5.372,0 12,0 L52,0 C58.628,0 64,5.372 64,12 L64,52 C64,58.628 58.628,64 52,64 Z" id="Path" fill="#B7D7D6"></path>
                            <path d="M38.24,20.04 L27.572,16.04 C27.412,15.986 27.252,15.986 27.092,16.04 L16.424,20.04 C16.172,20.134 16,20.386 16,20.666 L16,29.24 C16,38.32 22.186,42.054 25.348,43.374 C25.482,40.614 27.268,38.24 29.788,37.268 C31.226,34.134 34.44,32 38,32 C38.146,32 38.306,32 38.454,32.014 C38.6,31.148 38.668,30.228 38.668,29.24 L38.668,20.666 C38.666,20.386 38.494,20.134 38.24,20.04 Z" id="Path" fill="#0B7A76"></path>
                            <path d="M42.87,48 L32.32,48 C29.938,48 28,46.086 28,43.734 C28,41.546 29.676,39.738 31.828,39.496 C32.49,36.708 35.052,34.668 38.002,34.668 C40.324,34.668 42.466,35.932 43.566,37.922 C46.082,38.248 48,40.38 48,42.934 C48,45.728 45.7,48 42.87,48 Z" id="Path" fill="#0B7A76"></path>
                        </g>
                    </g>
                </g>
            </g>
        </g>
    </g>
</svg>