<?xml version="1.0" encoding="UTF-8"?>
<svg width="64px" height="64px" viewBox="0 0 64 64" version="1.1" xmlns="http://www.w3.org/2000/svg" xmlns:xlink="http://www.w3.org/1999/xlink">
    <!-- Generator: Sketch 52.6 (67491) - http://www.bohemiancoding.com/sketch -->
    <title>password (1)</title>
    <desc>Created with Sketch.</desc>
    <g id="Website" stroke="none" stroke-width="1" fill="none" fill-rule="evenodd">
        <g id="6--Pricing" transform="translate(-222.000000, -3180.000000)" fill-rule="nonzero">
            <g id="Group-12" transform="translate(92.000000, 2652.000000)">
                <g id="Group-30" transform="translate(45.000000, 528.000000)">
                    <g id="Group-11">
                        <g id="password-(1)" transform="translate(85.000000, 0.000000)">
                            <path d="M52,64 L12,64 C5.372,64 0,58.628 0,52 L0,12 C0,5.372 5.372,0 12,0 L52,0 C58.628,0 64,5.372 64,12 L64,52 C64,58.628 58.628,64 52,64 Z" id="Path" fill="#B7D7D6"></path>
                            <path d="M43.4376216,39.7303076 L38.5706269,34.8617154 C39.5739235,33.3462116 40.1661272,31.5345086 40.1661272,29.5847712 C40.1661272,24.2991998 35.8654633,20 30.584501,20 C25.3035387,20 21,24.2963241 21,29.5818955 C21,34.8674669 25.3006639,39.1666667 30.5816262,39.1666667 C32.5307239,39.1666667 34.3418324,38.5742686 35.856839,37.5706427 L40.7238336,42.4392348 C41.4712752,43.1869217 42.6844304,43.1869217 43.4347468,42.4392348 C44.1879379,41.6915479 44.1879379,40.4779945 43.4376216,39.7303076 Z M30.4999989,36 C27.4667495,36 25,33.309 25,30 C25,26.691 27.4667495,24 30.4999989,24 C33.5332482,24 35.9999977,26.691 35.9999977,30 C36.0027477,33.309 33.5332482,36 30.4999989,36 Z" id="Shape" fill="#0B7A76"></path>
                        </g>
                    </g>
                </g>
            </g>
        </g>
    </g>
</svg>