<svg fill="none" height="64" viewBox="0 0 64 64" width="64" xmlns="http://www.w3.org/2000/svg"><path d="m52 64h-40c-6.628 0-12-5.372-12-12v-40c0-6.628 5.372-12 12-12h40c6.628 0 12 5.372 12 12v40c0 6.628-5.372 12-12 12z" fill="#b7d7d6"/><path clip-rule="evenodd" d="m47 36.0012c0-1.6184-1.2796-2.9304-2.858-2.9304h-8.5741c-1.5784 0-2.858 1.312-2.858 2.9304h-4.287v-4.3956h3.3296c2.5649.0043 4.7545-1.8991 5.1698-4.4943.4154-2.5953-1.0661-5.1164-3.4979-5.9527-1.3407-2.8665-4.3313-4.5193-7.4036-4.0917s-5.5251 2.838-6.072 5.9672c-1.999.6736-3.2256 2.7352-2.8953 4.866.3304 2.1307 2.1201 3.7006 4.2243 3.7055h4.287v11.7217c0 .8092.6398 1.4652 1.429 1.4652h5.7161c0 1.6184 1.2796 2.9304 2.858 2.9304h8.5741c1.5784 0 2.858-1.312 2.858-2.9304v-2.9305c-.0052-.516-.1433-1.0214-.4001-1.4652.2568-.4437.3949-.9492.4001-1.4652zm-25.8553-7.1314c-.8005 0-1.4494-.6735-1.4494-1.5043s.6489-1.5043 1.4494-1.5043c.8004 0 1.4493-.6735 1.4493-1.5043-.0241-2.2176 1.5078-4.1248 3.614-4.4991 2.1061-.3743 4.1622.8952 4.8503 2.9948.1732.5209.6069.9018 1.1305.9929 1.1771.2022 2.0306 1.2741 2.0001 2.5121 0 1.3874-1.0837 2.5122-2.4205 2.5122zm7.3123 12.9179h4.3162c.0053-.4918.1443-.9735.4029-1.3965-.2586-.4229-.3976-.9046-.4029-1.3964h-4.3162zm7.0782 2.7929v-2.793h8.764v2.793zm0-8.7277v2.7929h8.764v-2.7929z" fill="#0b7a76" fill-rule="evenodd"/></svg>