<svg height="64" viewBox="0 0 64 64" width="64" xmlns="http://www.w3.org/2000/svg"><g fill="none"><path d="m52 64h-40c-6.628 0-12-5.372-12-12v-40c0-6.628 5.372-12 12-12h40c6.628 0 12 5.372 12 12v40c0 6.628-5.372 12-12 12z" fill="#b7d7d6"/><g fill="#0b7a76"><path d="m39.322 31.768-7-2.38c-.208-.072-.434-.072-.644 0l-7 2.38c-.406.138-.678.518-.678.946v5.358c0 6.54 7.298 9.716 7.61 9.85.124.052.258.078.39.078s.266-.026.39-.08c.312-.132 7.61-3.31 7.61-9.848v-5.358c0-.428-.272-.808-.678-.946zm-2.94 5.056-3.666 4.666c-.224.286-.556.468-.918.504-.044.004-.088.006-.132.006-.316 0-.626-.112-.868-.32l-2.334-2c-.56-.48-.626-1.32-.144-1.88.48-.558 1.322-.624 1.878-.144l1.278 1.094 2.808-3.572c.454-.578 1.292-.68 1.872-.224.58.452.682 1.29.226 1.87z"/><path d="m44 16h-24c-2.2 0-4 1.8-4 4v21.334c0 2.2 1.8 4 4 4h3.974c-.64-.814-1.2-1.694-1.64-2.666h-2.334c-.734 0-1.334-.6-1.334-1.334v-18.666h26.668v18.666c0 .734-.6 1.334-1.334 1.334h-2.334c-.44.974-1 1.854-1.626 2.666h3.96c2.2 0 4-1.8 4-4v-21.334c0-2.2-1.8-4-4-4z"/></g></g></svg>