<svg width="40" height="40" viewBox="0 0 40 40" fill="none" xmlns="http://www.w3.org/2000/svg">
<path fill-rule="evenodd" clip-rule="evenodd" d="M5 8.33333C5 6.49238 6.49238 5 8.33333 5H31.6667C33.5076 5 35 6.49238 35 8.33333V31.6667C35 33.5076 33.5076 35 31.6667 35H8.33333C6.49238 35 5 33.5076 5 31.6667V8.33333ZM31.6667 8.33333H8.33333V31.6667H31.6667V8.33333Z" fill="#45B4C8"/>
<path fill-rule="evenodd" clip-rule="evenodd" d="M18.332 18.3332C18.332 17.4127 19.0782 16.6665 19.9987 16.6665H26.6654C27.5858 16.6665 28.332 17.4127 28.332 18.3332C28.332 19.2536 27.5858 19.9998 26.6654 19.9998H19.9987C19.0782 19.9998 18.332 19.2536 18.332 18.3332Z" fill="#45B4C8"/>
<path fill-rule="evenodd" clip-rule="evenodd" d="M18.332 13.3332C18.332 12.4127 19.0782 11.6665 19.9987 11.6665H26.6654C27.5858 11.6665 28.332 12.4127 28.332 13.3332C28.332 14.2536 27.5858 14.9998 26.6654 14.9998H19.9987C19.0782 14.9998 18.332 14.2536 18.332 13.3332Z" fill="#45B4C8"/>
<path fill-rule="evenodd" clip-rule="evenodd" d="M13.3346 5C14.2551 5 15.0013 5.74619 15.0013 6.66667L15.0013 33.3333C15.0013 34.2538 14.2551 35 13.3346 35C12.4142 35 11.668 34.2538 11.668 33.3333L11.668 6.66667C11.668 5.74619 12.4142 5 13.3346 5Z" fill="#45B4C8"/>
</svg>
