<svg width="65" height="65" viewBox="0 0 65 65" fill="none" xmlns="http://www.w3.org/2000/svg">
<rect width="65" height="65" rx="20" transform="matrix(-1 0 0 1 65 0)" fill="url(#paint0_linear_2358_8460)"/>
<path fill-rule="evenodd" clip-rule="evenodd" d="M31.6911 16.7034C32.181 16.3769 32.8192 16.3769 33.309 16.7034L46.434 25.4534C46.8397 25.7239 47.0834 26.1792 47.0834 26.6668C47.0834 27.1544 46.8397 27.6098 46.434 27.8802L33.309 36.6302C32.8192 36.9568 32.181 36.9568 31.6911 36.6302L18.5661 27.8802C18.1604 27.6098 17.9167 27.1544 17.9167 26.6668C17.9167 26.1792 18.1604 25.7239 18.5661 25.4534L31.6911 16.7034ZM22.0041 26.6668L32.5001 33.6641L42.996 26.6668L32.5001 19.6695L22.0041 26.6668ZM18.1618 31.6914C18.6086 31.0212 19.514 30.8401 20.1842 31.2869L32.5002 39.4976L44.8163 31.2869C45.4864 30.8401 46.3919 31.0212 46.8386 31.6914C47.2854 32.3615 47.1043 33.267 46.4342 33.7137L33.3092 42.4637C32.8193 42.7903 32.1812 42.7903 31.6913 42.4637L18.5663 33.7137C17.8962 33.267 17.7151 32.3615 18.1618 31.6914ZM20.1842 37.1202C19.514 36.6735 18.6086 36.8546 18.1618 37.5247C17.7151 38.1949 17.8962 39.1003 18.5663 39.5471L31.6913 48.2971C32.1812 48.6236 32.8193 48.6236 33.3092 48.2971L46.4342 39.5471C47.1043 39.1003 47.2854 38.1949 46.8386 37.5247C46.3919 36.8546 45.4864 36.6735 44.8163 37.1202L32.5002 45.331L20.1842 37.1202Z" fill="white"/>
<defs>
<linearGradient id="paint0_linear_2358_8460" x1="32.5" y1="0" x2="32.5" y2="65" gradientUnits="userSpaceOnUse">
<stop stop-color="#FF7890"/>
<stop offset="1" stop-color="#DA5454"/>
</linearGradient>
</defs>
</svg>
