<svg width="65" height="65" viewBox="0 0 65 65" fill="none" xmlns="http://www.w3.org/2000/svg">
<rect width="65" height="65" rx="20" transform="matrix(-1 0 0 1 65 0)" fill="url(#paint0_linear_2358_8458)"/>
<path fill-rule="evenodd" clip-rule="evenodd" d="M33.9587 17.9165L34.7794 17.9165C35.5919 17.9165 36.3676 18.2554 36.9196 18.8516L43.3901 25.8397C43.8893 26.3788 44.1666 27.0865 44.1666 27.8213V44.1665C44.1666 45.7773 42.8608 47.0832 41.2499 47.0832H23.7499C22.1391 47.0832 20.8333 45.7773 20.8333 44.1665L20.8333 20.8332C20.8333 19.2223 22.1391 17.9165 23.7499 17.9165L33.9578 17.9165C33.958 17.9165 33.9581 17.9165 33.9583 17.9165C33.9584 17.9165 33.9585 17.9165 33.9587 17.9165ZM32.4999 20.8332L23.7499 20.8332L23.7499 44.1665H41.2499L41.2499 29.5832L35.4166 29.5832C33.8058 29.5832 32.4999 28.2773 32.4999 26.6665L32.4999 20.8332ZM40.1807 26.6665L35.4166 26.6665L35.4166 21.5213L40.1807 26.6665ZM37.9061 32.927C38.4756 33.4965 38.4756 34.4199 37.9061 34.9894L32.0728 40.8227C31.5033 41.3922 30.5799 41.3922 30.0104 40.8227L27.0937 37.906C26.5242 37.3365 26.5242 36.4132 27.0937 35.8436C27.6632 35.2741 28.5866 35.2741 29.1561 35.8436L31.0416 37.7291L35.8437 32.927C36.4132 32.3575 37.3366 32.3575 37.9061 32.927Z" fill="white"/>
<defs>
<linearGradient id="paint0_linear_2358_8458" x1="32.5" y1="0" x2="32.5" y2="65" gradientUnits="userSpaceOnUse">
<stop stop-color="#FFD952"/>
<stop offset="1" stop-color="#E9AD1B"/>
</linearGradient>
</defs>
</svg>
