<svg width="40" height="40" viewBox="0 0 40 40" fill="none" xmlns="http://www.w3.org/2000/svg">
<path fill-rule="evenodd" clip-rule="evenodd" d="M24.7422 7.29994C24.2271 6.78487 23.3837 6.78487 22.8686 7.29994L22.628 7.54054L31.1015 16.014L31.3421 15.7734C31.8572 15.2584 31.8572 14.4149 31.3421 13.8999L24.7422 7.29994ZM28.57 18.5456L20.0965 10.0721L14.8483 15.3202L23.3218 23.7937L28.57 18.5456ZM11.8636 18.305L12.3168 17.8518L20.7903 26.3253L20.3371 26.7785C19.822 27.2936 18.9785 27.2936 18.4635 26.7785L11.8636 20.1786C11.3485 19.6635 11.3485 18.8201 11.8636 18.305ZM27.2737 4.7684L33.8736 11.3683C35.7868 13.2815 35.7868 16.3918 33.8736 18.305L29.6477 22.5309L36.0912 28.9744C36.7903 29.6735 36.7903 30.8069 36.0912 31.506C35.3921 32.2051 34.2587 32.2051 33.5597 31.506L27.1162 25.0625L22.8686 29.31C20.9554 31.2232 17.8451 31.2232 15.9319 29.31L9.33202 22.7101C7.41882 20.7969 7.41882 17.6866 9.33202 15.7734L20.3371 4.7684C22.2503 2.8552 25.3605 2.8552 27.2737 4.7684ZM6.79007 32.9173C5.80144 32.9173 5 33.7187 5 34.7073C5 35.696 5.80144 36.4974 6.79007 36.4974H25.4691C26.4577 36.4974 27.2591 35.696 27.2591 34.7073C27.2591 33.7187 26.4577 32.9173 25.4691 32.9173H6.79007Z" fill="#45B4C8"/>
</svg>
