<svg width="65" height="65" viewBox="0 0 65 65" fill="none" xmlns="http://www.w3.org/2000/svg">
<rect width="65" height="65" rx="20" transform="matrix(-1 0 0 1 65 0)" fill="url(#paint0_linear_2358_8459)"/>
<path fill-rule="evenodd" clip-rule="evenodd" d="M22.2917 17.9165C20.6808 17.9165 19.375 19.2223 19.375 20.8332V29.8236C19.375 41.5913 29.3953 46.0159 31.559 46.8377L32.0768 45.4744L31.559 46.8377C32.17 47.0698 32.83 47.0697 33.441 46.8377L32.9232 45.4744L33.441 46.8377C35.6047 46.0159 45.625 41.5913 45.625 29.8236V20.8332C45.625 19.2223 44.3192 17.9165 42.7083 17.9165H22.2917ZM22.2917 20.8332L42.7083 20.8332V29.8236C42.7083 39.4398 34.674 43.2292 32.5 44.0747C30.326 43.2292 22.2917 39.4398 22.2917 29.8236V20.8332ZM37.9062 29.156C38.4757 28.5865 38.4757 27.6632 37.9062 27.0936C37.3367 26.5241 36.4133 26.5241 35.8438 27.0936L31.0417 31.8958L29.1562 30.0103C28.5867 29.4408 27.6633 29.4408 27.0938 30.0103C26.5243 30.5798 26.5243 31.5032 27.0938 32.0727L30.0105 34.9894C30.58 35.5589 31.5034 35.5589 32.0729 34.9894L37.9062 29.156Z" fill="white"/>
<defs>
<linearGradient id="paint0_linear_2358_8459" x1="32.5" y1="0" x2="32.5" y2="65" gradientUnits="userSpaceOnUse">
<stop stop-color="#78BFFF"/>
<stop offset="1" stop-color="#4AA8FE"/>
</linearGradient>
</defs>
</svg>
