<svg fill="none" height="30" viewBox="0 0 30 30" width="30" xmlns="http://www.w3.org/2000/svg"><rect fill="#00a0b6" height="30" rx="7" width="30"/><path clip-rule="evenodd" d="m20.3971 15.0018h2.6995c.497 0 .8998.4029.8998.8998v5.3989c0 1.4909-1.2086 2.6995-2.6994 2.6995h-12.59753c-1.49087 0-2.69946-1.2086-2.69946-2.6995v-14.3971c-.00128-.32276.17039-.62147.44991-.78285.2784-.16073.62141-.16073.89982 0l2.69946 1.54769 2.6995-1.54769c.2784-.16073.6214-.16073.8998 0l2.6995 1.54769 2.6994-1.54769c.2784-.16073.6214-.16073.8998 0 .2796.16138.4512.46009.4499.78285zm-5.3993-1.35h-2.2496c-.2485 0-.4499.2014-.4499.4499s.2014.4499.4499.4499h.8998c1.1558-.0011 2.1243.8736 2.2405 2.0235.1161 1.1499-.6579 2.2007-1.7905 2.4307v.4948c0 .497-.4029.8999-.8999.8999-.4969 0-.8998-.4029-.8998-.8999v-.4499h-.8998c-.497 0-.8998-.4028-.8998-.8998 0-.4969.4028-.8998.8998-.8998h2.2495c.2485 0 .45-.2014.45-.4499s-.2015-.4499-.45-.4499h-.8998c-1.1557.0011-2.1243-.8736-2.2404-2.0235-.1162-1.1499.6579-2.2007 1.7905-2.4306v-.4949c0-.497.4029-.8999.8998-.8999.497 0 .8999.4029.8999.8999v.4499h.8998c.4969 0 .8998.4028.8998.8998s-.4029.8998-.8998.8998zm-6.29872 8.5486c-.49696 0-.89982-.4029-.89982-.8998v-12.84047l1.79964 1.02579c.28187.14723.6179.14723.8998 0l2.6995-1.54769 2.6994 1.54769c.2819.14723.618.14723.8999 0l1.7996-1.02579v12.84047c.0024.3069.0572.6112.162.8998zm12.59782 0c.497 0 .8998-.4028.8998-.8998v-4.4991h-1.7996v4.4991c0 .497.4029.8998.8998.8998z" fill="#fff" fill-rule="evenodd"/></svg>