<svg fill="none" height="30" viewBox="0 0 30 30" width="30" xmlns="http://www.w3.org/2000/svg"><rect fill="#65a2fd" height="30" rx="7" width="30"/><path clip-rule="evenodd" d="m21.846 12.003c.0265.0789.0446.1603.054.243v.054 9c0 1.4912-1.2088 2.7-2.7 2.7h-9c-1.49117 0-2.7-1.2088-2.7-2.7v-12.6c0-1.49117 1.20883-2.7 2.7-2.7h5.445c.1046.01291.2056.04657.297.099.0269-.00382.0541-.00382.081 0 .0925.04327.1776.10099.252.171l5.4 5.4c.07.0744.1277.1595.171.252zm-3.015-.603-2.331-2.33097v1.43097c0 .4971.4029.9.9.9zm1.2689 9.8999c0 .4971-.4029.9-.9.9h-9c-.49703 0-.89997-.4029-.89997-.9v-12.59997c0-.49706.40294-.9.89997-.9h4.5v2.69997c0 1.4912 1.2089 2.7 2.7 2.7h2.7zm-6.3-3.0689 2.961-2.97c.3529-.3529.9251-.3529 1.278 0s.3529.9251 0 1.278l-3.6 3.6c-.169.1704-.3991.2662-.639.2662-.24 0-.47-.0958-.639-.2662l-1.8-1.8c-.3529-.3529-.3529-.9251 0-1.278s.9251-.3529 1.278 0z" fill="#fff" fill-rule="evenodd"/></svg>