<?xml version="1.0" encoding="UTF-8"?>
<svg width="21px" height="24px" viewBox="0 0 21 24" version="1.1" xmlns="http://www.w3.org/2000/svg" xmlns:xlink="http://www.w3.org/1999/xlink">
    <!-- Generator: Sketch 52.6 (67491) - http://www.bohemiancoding.com/sketch -->
    <title>chat-bubble-user</title>
    <desc>Created with Sketch.</desc>
    <g id="18--Lead-Magnets" stroke="none" stroke-width="1" fill="none" fill-rule="evenodd">
        <g id="1.5--Lead-1---confirmation-message" transform="translate(-1124.000000, -489.000000)" fill="#7450C8" fill-rule="nonzero">
            <g id="Group-6" transform="translate(139.000000, 465.000000)">
                <g id="Group-2" transform="translate(830.000000, 0.000000)">
                    <g id="chat-bubble-user" transform="translate(155.000000, 24.000000)">
                        <path d="M13.51,11.1599907 C14.0402374,10.4783298 14.3320089,9.63295647 14.3383333,8.75999267 C14.3383333,6.5795743 12.619853,4.81199597 10.5,4.81199597 C8.38014704,4.81199597 6.66166667,6.5795743 6.66166667,8.75999267 C6.6679911,9.63295647 6.95976255,10.4783298 7.49,11.1599907 C6.45006574,11.8109256 5.63418023,12.7801968 5.15666667,13.9319883 C4.97465806,14.3299653 5.01889811,14.798468 5.27196327,15.1529804 C5.52502842,15.5074929 5.9463664,15.6912066 6.37003677,15.6317673 C6.79370715,15.5723281 7.15181914,15.2792608 7.30333333,14.8679876 C7.85130654,13.5504612 9.10680819,12.6926885 10.5,12.6839894 C11.8974365,12.6879146 13.1586781,13.5464755 13.7083333,14.8679876 C13.8909157,15.3113931 14.3135064,15.5995945 14.7816667,15.5999869 C14.937777,15.5969893 15.0920159,15.5644466 15.2366667,15.503987 C15.8290797,15.2451411 16.105767,14.5417145 15.855,13.9319883 C15.3744129,12.7784796 14.5542752,11.8090042 13.51,11.1599907 Z M10.5,10.2839914 C9.89022659,10.2839725 9.3407253,9.90550318 9.10848005,9.32558112 C8.8762348,8.74565906 9.00714902,8.07890631 9.43999838,7.63714148 C9.87284774,7.19537665 10.5220793,7.06591488 11.0840685,7.30930122 C11.6460576,7.55268756 12.0097269,8.12081654 12.005,8.74799268 C11.9985918,9.59823876 11.3266537,10.2840169 10.5,10.2839914 Z M17.5,5.32906606e-16 L3.5,5.32906606e-16 C1.56700338,0 0,1.61177355 0,3.59999699 L0,16.7999859 C0,18.7882094 1.56700338,20.3999829 3.5,20.3999829 L6.52166667,20.3999829 L9.67166667,23.6519802 C9.89183864,23.8766038 10.1898965,24.001824 10.5,23.9999799 C10.7780686,24.0000019 11.0470012,23.8978667 11.2583333,23.7119802 L15.015,20.3999829 L17.5,20.3999829 C19.4329966,20.3999829 21,18.7882094 21,16.7999859 L21,3.59999699 C21,1.61177355 19.4329966,0 17.5,5.32906606e-16 Z M18.6666667,16.7999859 C18.6666667,17.4627271 18.1443322,17.9999849 17.5,17.9999849 L14.5833333,17.9999849 C14.3052647,17.9999629 14.0363321,18.1020981 13.825,18.2879847 L10.5583333,21.1679823 L7.82833333,18.3479846 C7.60816136,18.123361 7.31010348,17.9981408 7,17.9999849 L3.5,17.9999849 C2.85566779,17.9999849 2.33333333,17.4627271 2.33333333,16.7999859 L2.33333333,3.59999699 C2.33333333,2.93725584 2.85566779,2.39999799 3.5,2.39999799 L17.5,2.39999799 C18.1443322,2.39999799 18.6666667,2.93725584 18.6666667,3.59999699 L18.6666667,16.7999859 Z" id="Shape"></path>
                    </g>
                </g>
            </g>
        </g>
    </g>
</svg>