<?xml version="1.0" encoding="UTF-8"?>
<svg width="21px" height="19px" viewBox="0 0 21 19" version="1.1" xmlns="http://www.w3.org/2000/svg" xmlns:xlink="http://www.w3.org/1999/xlink">
    <!-- Generator: Sketch 52.6 (67491) - http://www.bohemiancoding.com/sketch -->
    <title>Shape</title>
    <desc>Created with Sketch.</desc>
    <g id="18--Lead-Magnets" stroke="none" stroke-width="1" fill="none" fill-rule="evenodd">
        <g id="1.5--Lead-1---confirmation-message" transform="translate(-710.000000, -490.000000)" fill="#7450C8" fill-rule="nonzero">
            <g id="Group-6" transform="translate(139.000000, 465.000000)">
                <g id="Group-3" transform="translate(416.000000, 0.000000)">
                    <path d="M172.85,25 L158.15,25 C156.410303,25 155,26.417765 155,28.1666667 L155,36.6111111 C155,38.3600128 156.410303,39.7777778 158.15,39.7777778 L164.45,39.7777778 L164.45,41.8888889 L160.25,41.8888889 C159.670101,41.8888889 159.2,42.3614772 159.2,42.9444444 C159.2,43.5274117 159.670101,44 160.25,44 L170.75,44 C171.329899,44 171.8,43.5274117 171.8,42.9444444 C171.8,42.3614772 171.329899,41.8888889 170.75,41.8888889 L166.55,41.8888889 L166.55,39.7777778 L172.85,39.7777778 C174.589697,39.7777778 176,38.3600128 176,36.6111111 L176,28.1666667 C176,26.417765 174.589697,25 172.85,25 Z M173.967742,36.8071429 C173.967742,37.4067663 173.49385,37.8928571 172.909274,37.8928571 L158.090726,37.8928571 C157.50615,37.8928571 157.032258,37.4067663 157.032258,36.8071429 L157.032258,28.1214286 C157.032258,27.5218051 157.50615,27.0357143 158.090726,27.0357143 L172.909274,27.0357143 C173.49385,27.0357143 173.967742,27.5218051 173.967742,28.1214286 L173.967742,36.8071429 Z" id="Shape"></path>
                </g>
            </g>
        </g>
    </g>
</svg>