<?xml version="1.0" encoding="UTF-8"?>
<svg width="177px" height="132px" viewBox="0 0 177 132" version="1.1" xmlns="http://www.w3.org/2000/svg" xmlns:xlink="http://www.w3.org/1999/xlink">
    <!-- Generator: Sketch 52.6 (67491) - http://www.bohemiancoding.com/sketch -->
    <title>Illustration</title>
    <desc>Created with Sketch.</desc>
    <g id="15--Landing-page" stroke="none" stroke-width="1" fill="none" fill-rule="evenodd">
        <g id="6.2--Contact" transform="translate(-632.000000, -522.000000)">
            <g id="Contacts-#3" transform="translate(0.000000, 404.000000)">
                <g id="Group-3" transform="translate(580.000000, 118.000000)">
                    <g id="Illustration" transform="translate(53.000000, 0.000000)">
                        <g id="stamp-document" transform="translate(0.000000, 16.000000)">
                            <path d="M169.117647,81.0694784 C169.117647,36.2968322 132.904596,0 88.2352941,0 C43.5659926,0 7.35294118,36.2968322 7.35294118,81.0694784 C7.35294118,92.9988522 9.94522059,104.314125 14.5595588,114.510638 L161.911029,114.510638 C166.525368,104.314125 169.117647,92.9988522 169.117647,81.0694784" id="Fill-1" fill="#F4F6FC"></path>
                            <path d="M0,114.510638 L4.41176471,114.510638" id="Stroke-5" stroke="#7450C8" stroke-linecap="round" stroke-linejoin="round"></path>
                            <path d="M170.588235,114.510638 L175,114.510638" id="Stroke-7" stroke="#7450C8" stroke-linecap="round" stroke-linejoin="round"></path>
                            <path d="M8.82352941,114.510638 L166.176471,114.510638" id="Stroke-3" stroke="#7450C8" stroke-linecap="round" stroke-linejoin="round"></path>
                        </g>
                        <g id="Group-2" transform="translate(41.000000, 16.000000)" stroke="#7450C8" stroke-linejoin="round" stroke-width="2">
                            <path d="M94,8.91734234 C94,3.99110177 89.9932916,0 85.0477877,0 L8.95221226,0 C4.010251,0 0,3.99110177 0,8.91734234 L0,78.0293921 C0,82.9521038 4.00670837,86.9467344 8.95221226,86.9467344 L25.3758197,86.9467344 C27.4305419,86.9467344 29.0955755,88.6052824 29.0955755,90.6520013 L29.0955755,100.296282 C29.0955755,101.792504 30.0024874,103.144044 31.3911962,103.719243 C32.7834477,104.290912 34.3811713,103.973318 35.4439587,102.91467 L50.3867491,88.0300839 C51.0846461,87.338434 52.0305269,86.9467344 53.0153765,86.9467344 L85.0477877,86.9467344 C89.9932916,86.9467344 94,82.9521038 94,78.0293921 L94,8.91734234 Z" id="Stroke-5"></path>
                            <path d="M77.0115879,24.9014085 L16.9848504,24.9014085 C16.1015281,24.9014085 15.328621,25.2274507 14.6875,25.6984006 L43.149712,41.4933364 C45.5182981,42.8073855 48.4781402,42.8073855 50.8467262,41.4933364 L79.3125,25.6984006 C78.671379,25.2241573 77.8949102,24.9014085 77.0115879,24.9014085 Z" id="Stroke-94" stroke-linecap="round"></path>
                            <path d="M77.2165109,64.4507042 L16.7834891,64.4507042 C14.8157531,64.4507042 13.21875,62.8926595 13.21875,60.9729258 L13.21875,28.3791868 C13.21875,26.4594532 14.8157531,24.9014085 16.7834891,24.9014085 L77.2165109,24.9014085 C79.1842469,24.9014085 80.78125,26.4594532 80.78125,28.3791868 L80.78125,60.9729258 C80.78125,62.8926595 79.1842469,64.4507042 77.2165109,64.4507042 Z" id="Stroke-95" stroke-linecap="round"></path>
                        </g>
                        <g id="check-circle" transform="translate(119.000000, 0.000000)">
                            <circle id="Oval" fill="#7450C8" cx="16" cy="16" r="16"></circle>
                            <path d="M13.3859156,17.7800194 L10.7795028,15.0864534 C10.3934538,14.620587 9.78729934,14.4176622 9.21025444,14.5611098 C8.63320955,14.7045574 8.1826654,15.1701669 8.04385922,15.766507 C7.90505304,16.3628472 8.10141193,16.9892703 8.55220469,17.388228 L12.2643683,21.2408437 C12.5624769,21.546419 12.9660415,21.7167671 13.3859156,21.7142584 C13.8003192,21.7124551 14.1974409,21.542432 14.4916664,21.2408437 L22.3898868,13.0785223 C22.6889334,12.772 22.8571429,12.3547489 22.8571429,11.9194726 C22.8571429,11.4841964 22.6889334,11.0669452 22.3898868,10.760423 C21.7737664,10.1274781 20.778709,10.1274781 20.1625886,10.760423 L13.3859156,17.7800194 Z" id="Path" fill="#FFFFFF" fill-rule="nonzero"></path>
                        </g>
                    </g>
                </g>
            </g>
        </g>
    </g>
</svg>