<svg width="100" height="100" viewBox="0 0 100 100" fill="none" xmlns="http://www.w3.org/2000/svg">
<circle cx="50" cy="50" r="49" fill="#009CB7" stroke="#F3F6FC" stroke-width="2"/>
<circle cx="50" cy="50" r="39" fill="#45B4C8"/>
<circle cx="18.5" cy="81.5" r="17.5" fill="#FFDF34" stroke="white" stroke-width="2"/>
<path fill-rule="evenodd" clip-rule="evenodd" d="M29 35.0789C29 31.7216 31.7216 29 35.0789 29H40.8565C43.4326 29 45.7491 30.5684 46.7059 32.9602L48.9198 38.4951C49.7792 40.6436 49.3916 43.0904 47.9102 44.868L46.7187 46.2979C46.0234 47.1323 46.079 48.3592 46.847 49.1272L50.8728 53.153C51.6408 53.921 52.8677 53.9766 53.7021 53.2813L55.1319 52.0898C56.9096 50.6084 59.3564 50.2208 61.5049 51.0802L67.0398 53.2941C69.4316 54.2509 71 56.5674 71 59.1435V64.9211C71 68.2784 68.2784 71 64.9211 71C45.0824 71 29 54.9176 29 35.0789ZM35.0789 33.2C34.0412 33.2 33.2 34.0412 33.2 35.0789C33.2 52.598 47.402 66.8 64.9211 66.8C65.9588 66.8 66.8 65.9588 66.8 64.9211V59.1435C66.8 58.2848 66.2772 57.5126 65.4799 57.1937L59.945 54.9798C59.2289 54.6933 58.4133 54.8225 57.8207 55.3163L56.3909 56.5078C53.8877 58.5938 50.207 58.4268 47.903 56.1228L43.8772 52.097C41.5732 49.793 41.4062 46.1123 43.4922 43.6091L44.6837 42.1793C45.1775 41.5867 45.3067 40.7711 45.0202 40.055L42.8063 34.5201C42.4873 33.7228 41.7152 33.2 40.8565 33.2H35.0789Z" fill="white"/>
<path fill-rule="evenodd" clip-rule="evenodd" d="M18 73C22.9706 73 27 77.0294 27 82C27 83.6138 26.5745 85.1306 25.8292 86.4417L26.9538 89.8154C27.0616 90.1388 26.9774 90.4953 26.7364 90.7364C26.4953 90.9774 26.1388 91.0616 25.8154 90.9538L22.4417 89.8292C21.1306 90.5745 19.6138 91 18 91C13.0294 91 9 86.9706 9 82C9 77.0294 13.0294 73 18 73ZM25.2 82C25.2 78.0235 21.9764 74.8 18 74.8C14.0235 74.8 10.8 78.0235 10.8 82C10.8 85.9764 14.0235 89.2 18 89.2C19.4182 89.2 20.7381 88.7909 21.8514 88.0846C22.0798 87.9396 22.3614 87.9051 22.6181 87.9907L24.677 88.677L23.9907 86.6181C23.9051 86.3614 23.9396 86.0798 24.0846 85.8514C24.7909 84.7381 25.2 83.4182 25.2 82ZM14.4001 81.0999C14.8972 81.0999 15.3001 81.5029 15.3001 81.9999V82.0017C15.3001 82.4988 14.8972 82.9017 14.4001 82.9017H14.3983C13.9013 82.9017 13.4983 82.4988 13.4983 82.0017V81.9999C13.4983 81.5029 13.9013 81.0999 14.3983 81.0999H14.4001ZM18.8998 81.9999C18.8998 81.5029 18.4969 81.0999 17.9998 81.0999H17.998C17.5009 81.0999 17.098 81.5029 17.098 81.9999V82.0017C17.098 82.4988 17.5009 82.9017 17.998 82.9017H17.9998C18.4969 82.9017 18.8998 82.4988 18.8998 82.0017V81.9999ZM21.6 81.0999C22.0971 81.0999 22.5 81.5029 22.5 81.9999V82.0017C22.5 82.4988 22.0971 82.9017 21.6 82.9017H21.5982C21.1012 82.9017 20.6982 82.4988 20.6982 82.0017V81.9999C20.6982 81.5029 21.1012 81.0999 21.5982 81.0999H21.6Z" fill="#00889F"/>
</svg>
