<svg width="28" height="28" viewBox="0 0 28 28" fill="none" xmlns="http://www.w3.org/2000/svg">
<path fill-rule="evenodd" clip-rule="evenodd" d="M2.3335 5.71118C2.3335 3.84601 3.84552 2.33398 5.71069 2.33398H8.92042C10.3516 2.33398 11.6386 3.20531 12.1701 4.53412L13.4001 7.60906C13.8775 8.80267 13.6622 10.162 12.8392 11.1496L12.1772 11.9439C11.7909 12.4075 11.8218 13.0891 12.2485 13.5158L14.4851 15.7523C14.9117 16.179 15.5934 16.2099 16.0569 15.8236L16.8512 15.1616C17.8388 14.3386 19.1981 14.1233 20.3918 14.6008L23.4667 15.8307C24.7955 16.3622 25.6668 17.6492 25.6668 19.0804V22.2901C25.6668 24.1553 24.1548 25.6673 22.2896 25.6673C11.2682 25.6673 2.3335 16.7326 2.3335 5.71118ZM5.71069 4.66732C5.13418 4.66732 4.66683 5.13467 4.66683 5.71118C4.66683 15.444 12.5568 23.334 22.2896 23.334C22.8661 23.334 23.3335 22.8666 23.3335 22.2901V19.0804C23.3335 18.6033 23.0431 18.1743 22.6001 17.9972L19.5252 16.7672C19.1273 16.608 18.6742 16.6798 18.345 16.9542L17.5507 17.6161C16.16 18.775 14.1152 18.6822 12.8351 17.4022L10.5986 15.1657C9.31859 13.8857 9.22583 11.8408 10.3847 10.4502L11.0467 9.65581C11.321 9.3266 11.3928 8.87351 11.2336 8.47563L10.0036 5.4007C9.82647 4.95776 9.39747 4.66732 8.92042 4.66732H5.71069Z" fill="#417BD2"/>
</svg>
