<svg width="50" height="50" viewBox="0 0 50 50" fill="none" xmlns="http://www.w3.org/2000/svg">
<path fill-rule="evenodd" clip-rule="evenodd" d="M4.1665 10.1967C4.1665 6.86605 6.86654 4.16602 10.1972 4.16602H15.9289C18.4845 4.16602 20.7827 5.72196 21.7318 8.09482L23.9282 13.5858C24.7808 15.7172 24.3963 18.1446 22.9266 19.9081L21.7446 21.3266C21.0548 22.1544 21.11 23.3715 21.8719 24.1335L25.8657 28.1273C26.6276 28.8892 27.8448 28.9444 28.6726 28.2546L30.0911 27.0725C31.8546 25.6029 34.2819 25.2184 36.4134 26.071L41.9044 28.2673C44.2772 29.2165 45.8332 31.5147 45.8332 34.0703V39.802C45.8332 43.1326 43.1331 45.8327 39.8025 45.8327C20.1213 45.8327 4.1665 29.8779 4.1665 10.1967ZM10.1972 8.33268C9.16773 8.33268 8.33317 9.16724 8.33317 10.1967C8.33317 27.5767 22.4225 41.666 39.8025 41.666C40.8319 41.666 41.6665 40.8315 41.6665 39.802V34.0703C41.6665 33.2184 41.1479 32.4524 40.3569 32.136L34.8659 29.9396C34.1554 29.6554 33.3463 29.7836 32.7585 30.2735L31.34 31.4555C28.8567 33.5249 25.2052 33.3593 22.9194 31.0736L18.9256 27.0797C16.6399 24.794 16.4742 21.1425 18.5436 18.6592L19.7257 17.2407C20.2156 16.6528 20.3438 15.8437 20.0596 15.1332L17.8632 9.64228C17.5468 8.85133 16.7808 8.33268 15.9289 8.33268H10.1972Z" fill="#45B4C8"/>
</svg>
