<svg width="100" height="100" viewBox="0 0 100 100" fill="none" xmlns="http://www.w3.org/2000/svg">
<circle cx="50" cy="50" r="49" fill="#009CB7" stroke="#F3F6FC" stroke-width="2"/>
<circle cx="50" cy="50" r="39" fill="#45B4C8"/>
<circle cx="18.5" cy="81.5" r="17.5" fill="#FFDF34" stroke="white" stroke-width="2"/>
<path fill-rule="evenodd" clip-rule="evenodd" d="M18 73C22.9706 73 27 77.0294 27 82C27 83.6138 26.5745 85.1306 25.8292 86.4417L26.9538 89.8154C27.0616 90.1388 26.9774 90.4953 26.7364 90.7364C26.4953 90.9774 26.1388 91.0616 25.8154 90.9538L22.4417 89.8292C21.1306 90.5745 19.6138 91 18 91C13.0294 91 9 86.9706 9 82C9 77.0294 13.0294 73 18 73ZM25.2 82C25.2 78.0235 21.9764 74.8 18 74.8C14.0235 74.8 10.8 78.0235 10.8 82C10.8 85.9764 14.0235 89.2 18 89.2C19.4182 89.2 20.7381 88.7909 21.8514 88.0846C22.0798 87.9396 22.3614 87.9051 22.6181 87.9907L24.677 88.677L23.9907 86.6181C23.9051 86.3614 23.9396 86.0798 24.0846 85.8514C24.7909 84.7381 25.2 83.4182 25.2 82ZM14.4001 81.0999C14.8972 81.0999 15.3001 81.5029 15.3001 81.9999V82.0017C15.3001 82.4988 14.8972 82.9017 14.4001 82.9017H14.3983C13.9013 82.9017 13.4983 82.4988 13.4983 82.0017V81.9999C13.4983 81.5029 13.9013 81.0999 14.3983 81.0999H14.4001ZM18.8998 81.9999C18.8998 81.5029 18.4969 81.0999 17.9998 81.0999H17.998C17.5009 81.0999 17.098 81.5029 17.098 81.9999V82.0017C17.098 82.4988 17.5009 82.9017 17.998 82.9017H17.9998C18.4969 82.9017 18.8998 82.4988 18.8998 82.0017V81.9999ZM21.6 81.0999C22.0971 81.0999 22.5 81.5029 22.5 81.9999V82.0017C22.5 82.4988 22.0971 82.9017 21.6 82.9017H21.5982C21.1012 82.9017 20.6982 82.4988 20.6982 82.0017V81.9999C20.6982 81.5029 21.1012 81.0999 21.5982 81.0999H21.6Z" fill="#00889F"/>
<path fill-rule="evenodd" clip-rule="evenodd" d="M43.6665 31C35.505 31 28.8887 37.6162 28.8887 45.7778C28.8887 48.314 29.5293 50.7055 30.6579 52.7943L28.9971 57.7769C28.7442 58.5354 28.9416 59.3718 29.5071 59.9372C30.0725 60.5027 30.9088 60.7001 31.6674 60.4472L36.65 58.7864C38.5466 59.8112 40.6928 60.4336 42.9703 60.5394C45.3378 65.5386 50.4289 69 56.333 69C58.869 69 61.2606 68.3596 63.3495 67.2308L68.332 68.8917C69.0906 69.1445 69.927 68.9471 70.4924 68.3817C71.0578 67.8162 71.2553 66.9799 71.0024 66.2213L69.3416 61.2388C70.4706 59.1494 71.1107 56.7576 71.1107 54.2222C71.1107 46.2943 64.8678 39.8244 57.0298 39.4606C54.6614 34.4592 49.5679 31 43.6665 31ZM53.6198 42.2545C53.625 42.2701 53.6305 42.2856 53.6361 42.301C54.0157 43.3897 54.2221 44.5596 54.2221 45.7778C54.2221 51.3742 49.8668 55.9534 44.3607 56.3109C44.2958 56.3115 44.2306 56.3151 44.1653 56.3218C44 56.3294 43.8337 56.3333 43.6665 56.3333C41.5861 56.3333 39.6523 55.7336 38.0208 54.6985C37.4848 54.3585 36.8243 54.2776 36.2222 54.4783L34.3378 55.1065L34.9659 53.2221C35.1666 52.6199 35.0858 51.9594 34.7458 51.4235C33.7106 49.792 33.111 47.8582 33.111 45.7778C33.111 39.9481 37.8368 35.2222 43.6665 35.2222C48.2607 35.2222 52.1694 38.1572 53.6198 42.2545ZM47.5274 60.0461C53.8165 58.3484 58.4443 52.6035 58.4443 45.7778C58.4443 45.1256 58.402 44.4833 58.3201 43.8534C63.1998 44.783 66.8885 49.0719 66.8885 54.2222C66.8885 56.1216 66.3888 57.8979 65.5151 59.4333L65.2283 59.909C64.9093 60.4381 64.8382 61.0804 65.0335 61.6665L65.6617 63.5509L63.7772 62.9228C63.175 62.722 62.5145 62.8029 61.9785 63.143C60.3473 64.1781 58.4134 64.7778 56.333 64.7778C52.658 64.7778 49.4183 62.8989 47.5274 60.0461Z" fill="white"/>
</svg>
