<svg width="40" height="40" viewBox="0 0 40 40" fill="none" xmlns="http://www.w3.org/2000/svg">
<path d="M40 12.3077C40 5.51034 34.4897 0 27.6923 0H12.3077C5.51034 0 0 5.51034 0 12.3077V27.6923C0 34.4897 5.51034 40 12.3077 40H27.6923C34.4897 40 40 34.4897 40 27.6923V12.3077Z" fill="url(#paint0_linear_9188_18025)"/>
<path fill-rule="evenodd" clip-rule="evenodd" d="M21.125 9H21.7585C22.3852 9 22.9836 9.26144 23.4094 9.72133L28.401 15.1122C28.7861 15.5281 29 16.074 29 16.6409L29 16.875L29 29.25C29 30.4926 27.9926 31.5 26.75 31.5H13.25C12.0074 31.5 11 30.4926 11 29.25V11.25C11 10.0074 12.0074 9 13.25 9H21.125ZM20 11.25L13.25 11.25L13.25 29.25H26.75L26.75 18H22.25C21.0074 18 20 16.9926 20 15.75V11.25ZM25.9251 15.75L22.25 15.75L22.25 11.7809L25.9251 15.75ZM24.1705 20.5795C24.6098 21.0188 24.6098 21.7312 24.1705 22.1705L19.6705 26.6705C19.2312 27.1098 18.5188 27.1098 18.0795 26.6705L15.8295 24.4205C15.3902 23.9812 15.3902 23.2688 15.8295 22.8295C16.2688 22.3902 16.9812 22.3902 17.4205 22.8295L18.875 24.284L22.5795 20.5795C23.0188 20.1402 23.7312 20.1402 24.1705 20.5795Z" fill="white"/>
<defs>
<linearGradient id="paint0_linear_9188_18025" x1="20" y1="0" x2="20" y2="40" gradientUnits="userSpaceOnUse">
<stop stop-color="#FFD952"/>
<stop offset="1" stop-color="#E9AD1B"/>
</linearGradient>
</defs>
</svg>
