<svg width="40" height="40" viewBox="0 0 40 40" fill="none" xmlns="http://www.w3.org/2000/svg">
<path d="M40 12.3077C40 5.51034 34.4897 0 27.6923 0H12.3077C5.51034 0 0 5.51034 0 12.3077V27.6923C0 34.4897 5.51034 40 12.3077 40H27.6923C34.4897 40 40 34.4897 40 27.6923V12.3077Z" fill="url(#paint0_linear_9188_18024)"/>
<path fill-rule="evenodd" clip-rule="evenodd" d="M11.0425 8.30664C11.7705 8.30664 12.3607 8.89681 12.3607 9.62482V12.1518C12.9747 11.6266 13.6477 11.1684 14.3687 10.7874C16.1858 9.82733 18.2359 9.39626 20.2858 9.5432C22.3357 9.69014 24.3033 10.4092 25.9649 11.6186C27.6265 12.8281 28.9155 14.4794 29.6854 16.3849C29.9581 17.0599 29.632 17.8282 28.957 18.1009C28.282 18.3737 27.5137 18.0475 27.241 17.3725C26.6559 15.9243 25.6762 14.6693 24.4134 13.7502C23.1506 12.831 21.6552 12.2845 20.0973 12.1728C18.5393 12.0611 16.9813 12.3888 15.6003 13.1184C14.9657 13.4537 14.3802 13.8677 13.8564 14.3483H17.0842C17.8122 14.3483 18.4024 14.9385 18.4024 15.6665C18.4024 16.3945 17.8122 16.9847 17.0842 16.9847H11.0425C10.3145 16.9847 9.72434 16.3945 9.72434 15.6665V9.62482C9.72434 8.89681 10.3145 8.30664 11.0425 8.30664ZM11.7605 23.6272C11.4877 22.9522 10.7195 22.6261 10.0445 22.8988C9.36946 23.1715 9.04334 23.9398 9.31606 24.6148C10.0859 26.5203 11.3749 28.1716 13.0366 29.3811C14.6982 30.5905 16.6657 31.3096 18.7156 31.4565C20.7656 31.6035 22.8156 31.1724 24.6327 30.2123C25.3539 29.8313 26.0269 29.373 26.641 28.8477V31.3749C26.641 32.1029 27.2312 32.6931 27.9592 32.6931C28.6872 32.6931 29.2774 32.1029 29.2774 31.3749V25.3333C29.2774 24.6053 28.6872 24.0151 27.9592 24.0151H21.9175C21.1895 24.0151 20.5993 24.6053 20.5993 25.3333C20.5993 26.0613 21.1895 26.6514 21.9175 26.6514H25.145C24.6212 27.132 24.0357 27.546 23.4011 27.8813C22.0201 28.611 20.4621 28.9386 18.9041 28.8269C17.3462 28.7152 15.8509 28.1688 14.588 27.2496C13.3252 26.3304 12.3456 25.0754 11.7605 23.6272Z" fill="white"/>
<defs>
<linearGradient id="paint0_linear_9188_18024" x1="20" y1="0" x2="20" y2="40" gradientUnits="userSpaceOnUse">
<stop stop-color="#FF7890"/>
<stop offset="1" stop-color="#DA5454"/>
</linearGradient>
</defs>
</svg>
