<svg width="41" height="40" viewBox="0 0 41 40" fill="none" xmlns="http://www.w3.org/2000/svg">
<rect x="0.5" width="40" height="40" rx="8" fill="#FFD234"/>
<path fill-rule="evenodd" clip-rule="evenodd" d="M13.0999 18.75C13.7097 14.5172 17.3507 11.25 21.75 11.25C26.5748 11.25 30.5 15.1758 30.5 20C30.5 24.8242 26.5748 28.75 21.75 28.75C18.943 28.75 16.2873 27.3889 14.6455 25.1087L16.6743 23.6487C17.8474 25.2771 19.745 26.25 21.75 26.25C25.1961 26.25 28 23.446 28 20C28 16.5539 25.1961 13.75 21.75 13.75C18.732 13.75 16.2072 15.9009 15.6263 18.75H18L14.25 22.5L10.5 18.75H13.0999ZM20.5 21.333V16.25L23 16.25V19.917L25.5183 21.4282L24.2317 23.5718L20.5 21.333Z" fill="white"/>
</svg>
