<svg height="469" viewBox="0 0 571 469" width="571" xmlns="http://www.w3.org/2000/svg" xmlns:xlink="http://www.w3.org/1999/xlink"><defs><rect id="a" height="160" rx="12" width="184"/><filter id="b" height="228.1%" width="190.8%" x="-45.4%" y="-54.1%"><feOffset dx="0" dy="36" in="SourceAlpha" result="shadowOffsetOuter1"/><feGaussianBlur in="shadowOffsetOuter1" result="shadowBlurOuter1" stdDeviation="21.5"/><feColorMatrix in="shadowBlurOuter1" result="shadowMatrixOuter1" type="matrix" values="0 0 0 0 0   0 0 0 0 0   0 0 0 0 0  0 0 0 0.201115263 0"/><feOffset dx="0" dy="-3" in="SourceAlpha" result="shadowOffsetOuter2"/><feGaussianBlur in="shadowOffsetOuter2" result="shadowBlurOuter2" stdDeviation="22"/><feColorMatrix in="shadowBlurOuter2" result="shadowMatrixOuter2" type="matrix" values="0 0 0 0 0   0 0 0 0 0   0 0 0 0 0  0 0 0 0.0313632246 0"/><feMerge><feMergeNode in="shadowMatrixOuter1"/><feMergeNode in="shadowMatrixOuter2"/></feMerge></filter><rect id="c" height="248" rx="12" width="339"/><filter id="d" height="182.7%" width="149.3%" x="-24.6%" y="-34.9%"><feOffset dx="0" dy="36" in="SourceAlpha" result="shadowOffsetOuter1"/><feGaussianBlur in="shadowOffsetOuter1" result="shadowBlurOuter1" stdDeviation="21.5"/><feColorMatrix in="shadowBlurOuter1" result="shadowMatrixOuter1" type="matrix" values="0 0 0 0 0   0 0 0 0 0   0 0 0 0 0  0 0 0 0.201115263 0"/><feOffset dx="0" dy="-3" in="SourceAlpha" result="shadowOffsetOuter2"/><feGaussianBlur in="shadowOffsetOuter2" result="shadowBlurOuter2" stdDeviation="22"/><feColorMatrix in="shadowBlurOuter2" result="shadowMatrixOuter2" type="matrix" values="0 0 0 0 0   0 0 0 0 0   0 0 0 0 0  0 0 0 0.0313632246 0"/><feMerge><feMergeNode in="shadowMatrixOuter1"/><feMergeNode in="shadowMatrixOuter2"/></feMerge></filter></defs><g fill="none" fill-rule="evenodd" transform="translate(44 47)"><g transform="translate(0 183)"><use fill="#000" filter="url(#b)" xlink:href="#a"/><use fill="#fff" fill-rule="evenodd" xlink:href="#a"/></g><path d="m40.3614458 20.1807229h3.2289156c1.7832809 0 3.2289157-1.4456348 3.2289157-3.2289157s-1.4456348-3.2289156-3.2289157-3.2289156h-3.2289156c-1.7832809 0-3.2289157 1.4456347-3.2289157 3.2289156s1.4456348 3.2289157 3.2289157 3.2289157zm0 12.9156626h3.2289156c1.7832809 0 3.2289157-1.4456347 3.2289157-3.2289156s-1.4456348-3.2289157-3.2289157-3.2289157h-3.2289156c-1.7832809 0-3.2289157 1.4456348-3.2289157 3.2289157s1.4456348 3.2289156 3.2289157 3.2289156zm-16.9518072-12.9156626h3.2289156c1.7832809 0 3.2289157-1.4456348 3.2289157-3.2289157s-1.4456348-3.2289156-3.2289157-3.2289156h-3.2289156c-1.7832809 0-3.2289157 1.4456347-3.2289157 3.2289156s1.4456348 3.2289157 3.2289157 3.2289157zm0 12.9156626h3.2289156c1.7832809 0 3.2289157-1.4456347 3.2289157-3.2289156s-1.4456348-3.2289157-3.2289157-3.2289157h-3.2289156c-1.7832809 0-3.2289157 1.4456348-3.2289157 3.2289157s1.4456348 3.2289156 3.2289157 3.2289156zm40.2403614 27.2036145h-3.35v-56.95c0-1.85015391-1.4998461-3.35-3.35-3.35h-46.9c-1.85015391 0-3.35 1.49984609-3.35 3.35v56.95h-3.35c-1.85015391 0-3.35 1.4998461-3.35 3.35s1.49984609 3.35 3.35 3.35h60.3c1.8501539 0 3.35-1.4998461 3.35-3.35s-1.4998461-3.35-3.35-3.35zm-26.5174699.2421687h-6.4578313v-13.7228916h6.4578313zm16.9518072-.8072289h-10.0903614v-16.6490964c0-1.8390084-1.5058696-3.3298193-3.3634538-3.3298193h-13.4538153c-1.8575842 0-3.3634538 1.4908109-3.3634538 3.3298193v16.6490964h-10.0903614v-53.27710847h40.3614457z" fill="#a6b3bf" fill-rule="nonzero" opacity=".500372" transform="translate(59 229)"/><g transform="matrix(-1 0 0 1 483 0)"><use fill="#000" filter="url(#d)" xlink:href="#c"/><use fill="#fff" fill-rule="evenodd" xlink:href="#c"/><path d="m89 54.4253656c0-4.6356896-3.7960875-8.3936586-8.4787987-8.3936586h-25.4363962c-4.6827113 0-8.4787988 3.757969-8.4787988 8.3936586h-12.7181981v-12.5904879h9.8778006c7.6093883.0125536 14.1050934-5.4394992 15.337281-12.8730699s-3.1627978-14.65479-10.3771838-17.050323c-3.9772572-8.21045919-12.849513-12.94465802-21.9640131-11.71990616-9.1145002 1.22475186-16.3909748 8.12892023-18.01352291 17.09184766-5.93031513 1.929575-9.56938763 7.8346399-8.58931023 13.9377368.98007739 6.1030969 6.28954687 10.5998581 12.53195164 10.6137146h12.7181981v33.5746344c0 2.3178448 1.8980437 4.1968293 4.2393994 4.1968293h16.9575974c0 4.6356896 3.7960875 8.3936586 8.4787988 8.3936586h25.4363962c4.6827112 0 8.4787987-3.757969 8.4787987-8.3936586v-8.3936586c-.0155055-1.4780075-.4249863-2.925754-1.1870318-4.1968293.7620455-1.2710753 1.1715263-2.7188218 1.1870318-4.1968293zm-76.7002347-20.4253656c-2.37469482 0-4.2997653-1.9290997-4.2997653-4.3087647 0-2.3796651 1.92507048-4.3087647 4.2997653-4.3087647 2.3746947 0 4.2997652-1.9290997 4.2997652-4.3087647-.071675-6.3520612 4.4731148-11.8148644 10.7213741-12.88701115 6.2482594-1.07214675 12.3478636 2.56417135 14.389255 8.57824635.5138274 1.4919115 1.8005093 2.5829211 3.3538169 2.8437848 3.4922816.5792953 6.0241053 3.6495816 5.933676 7.195637 0 3.9740406-3.2148676 7.1956371-7.1806079 7.1956371zm34.5051127 37h-12.804878v-8h12.804878c.0156112 1.4086897.4278828 2.7885375 1.195122 4-.7672392 1.2114625-1.1795108 2.5913103-1.195122 4zm8.195122 8v-8h26v8zm0-17v-8h26v8z" fill="#0b7a76" fill-opacity=".6" fill-rule="nonzero" transform="matrix(-1 0 0 1 111 22)"/><g fill="#e1e8ee"><path d="m168 39h134.5c2.209139 0 4 1.790861 4 4 0 2.209139-1.790861 4-4 4h-134.5c-2.209139 0-4-1.790861-4-4 0-2.209139 1.790861-4 4-4z"/><path d="m225 57h77.089928c2.209139 0 4 1.790861 4 4 0 2.209139-1.790861 4-4 4h-77.089928c-2.209139 0-4-1.790861-4-4 0-2.209139 1.790861-4 4-4z"/><path d="m168 82h134.5c2.209139 0 4 1.790861 4 4 0 2.209139-1.790861 4-4 4h-134.5c-2.209139 0-4-1.790861-4-4 0-2.209139 1.790861-4 4-4z"/><path d="m225 100h77.089928c2.209139 0 4 1.790861 4 4 0 2.209139-1.790861 4-4 4h-77.089928c-2.209139 0-4-1.790861-4-4 0-2.209139 1.790861-4 4-4z"/><g transform="translate(25 156)"><path d="m4.5 0h261c2.485281 0 4.5 2.01471863 4.5 4.5 0 2.48528137-2.014719 4.5-4.5 4.5h-261c-2.48528137 0-4.5-2.01471863-4.5-4.5 0-2.48528137 2.01471863-4.5 4.5-4.5z"/><rect height="9" rx="4.5" width="270" y="19"/><path d="m4.5 38h229c2.485281 0 4.5 2.0147186 4.5 4.5 0 2.4852814-2.014719 4.5-4.5 4.5h-229c-2.48528137 0-4.5-2.0147186-4.5-4.5 0-2.4852814 2.01471863-4.5 4.5-4.5z"/></g></g></g></g></svg>