<svg height="42" viewBox="0 0 42 42" width="42" xmlns="http://www.w3.org/2000/svg"><g fill="#0b7a76" fill-rule="evenodd"><circle cx="21" cy="21" fill-opacity=".3" r="21"/><path d="m11.55 9.22c1.0796492-.93454856 1.7000156-2.29205623 1.7-3.72 0-2.76142375-2.2385763-5-5-5-2.76142375 0-5 2.23857625-5 5 .01249288 1.43596981.65173276 2.79481114 1.75 3.72-2.85905904 1.2946379-4.6969939 4.1414817-4.7 7.28 0 .5522847.44771525 1 1 1s1-.4477153 1-1c0-3.3137085 2.6862915-6 6-6s6 2.6862915 6 6c0 .5522847.4477153 1 1 1s1-.4477153 1-1c-.0118611-3.1502367-1.8714032-6.0002296-4.75-7.28zm-3.3-.72c-1.65685425 0-3-1.34314575-3-3s1.34314575-3 3-3 3 1.34314575 3 3c0 .79564947-.3160705 1.55871121-.8786797 2.12132034-.56260909.56260914-1.32567083.87867966-2.1213203.87867966zm8.5-5c-.5522847 0-1 .44771525-1 1v2c0 .55228475.4477153 1 1 1s1-.44771525 1-1v-2c0-.55228475-.4477153-1-1-1zm-.75 5.29c-.1827337.19163379-.2863165.44523302-.29.71-.0015368.26580298.1028135.5212812.29.71.0972009.0883309.2088151.1593581.33.21.2420399.1069768.5179601.1069768.76 0 .2512303-.0909238.4490762-.2887697.54-.54.0559814-.11867938.0833801-.24882347.08-.38.0023626-.40626507-.2413038-.77358004-.6165185-.92937095s-.807391-.069089-1.0934815.21937095z" fill-rule="nonzero" transform="translate(12 12)"/></g></svg>