<svg height="42" viewBox="0 0 42 42" width="42" xmlns="http://www.w3.org/2000/svg"><g fill="#ff647c" fill-rule="evenodd"><circle cx="21" cy="21" fill-opacity=".3" r="21"/><path d="m18.9939442.5105601c.0002969-.00033399-.0234534-.14788256-.0576316-.22611003-.1038706-.23939534-.3825288-.34961145-.6244853-.24477626-8.2106379 3.58566051-15.04249481 10.42859689-18.27602816 18.30418779-.09975139.2432176.01614281.5206134.25839618.6206614.0588934.0240472.1200134.035477.18016853.035477.18621744 0 .36323163-.1114778.43860182-.2941694.30842031-.7514735.6602592-1.4899215 1.03425269-2.2201682.01172673.0022266.02152374.010465.03325047.0123576 0 0 .14662118.0221545.42813682.0221545 1.17452809 0 5.45021854-.4338507 11.15189375-6.0142002.2704197-.2644074.4021599-.61053052.37147-.97472613-.0392623-.46487451-.3163619-.81478284-.6890936-1.12988218.3125395.00601179.6225926.0117267.9037743.0117267.9667869 0 1.5786177-.03800044 1.9186928-.56336392.3692805-.57034057 3.0793417-4.85804434 2.9286013-7.33916867zm-3.7243488 6.82204356c-.0674657.10416722-.528853.13014408-1.1226113.13014408-.5867816 0-1.3027799-.025346-1.8956104-.025346-.6048541 0-1.0814194.02627375-1.1621705.13266755-.47278.62225718 2.4402723 1.63813804 1.8085135 2.25627603-5.41192115 5.29697908-9.34308336 5.73743538-10.46409898 5.74285338 3.39343987-6.10192783 9.00263718-11.29499947 15.58685978-14.34676124-.2137158 1.43481343-1.2261108 3.75569763-2.7508821 6.1101662z" fill-rule="nonzero" stroke="#ff647c" stroke-width=".5" transform="translate(12 11)"/></g></svg>