<?xml version="1.0" encoding="UTF-8"?>
<svg width="42px" height="42px" viewBox="0 0 42 42" version="1.1" xmlns="http://www.w3.org/2000/svg" xmlns:xlink="http://www.w3.org/1999/xlink">
    <!-- Generator: Sketch 52.6 (67491) - http://www.bohemiancoding.com/sketch -->
    <title>Group 6</title>
    <desc>Created with Sketch.</desc>
    <g id="Landing-page" stroke="none" stroke-width="1" fill="none" fill-rule="evenodd">
        <g id="1.3--Features" transform="translate(-245.000000, -1737.000000)" fill="#FF647C">
            <g id="solutions" transform="translate(0.000000, 468.000000)">
                <g id="Group-10" transform="translate(245.000000, 955.000000)">
                    <g id="Group-6" transform="translate(0.000000, 314.000000)">
                        <circle id="Oval" fill-opacity="0.3" cx="21" cy="21" r="21"></circle>
                        <g id="folder-question" transform="translate(11.000000, 11.000000)" fill-rule="nonzero">
                            <path d="M10.57,14.3 C10.527065,14.2491295 10.4764565,14.2052688 10.42,14.17 L10.25,14.08 L10.06,14 C9.73206822,13.9372326 9.39444406,14.0422712 9.16,14.28 C9.06646129,14.3712664 8.99171893,14.4799825 8.94,14.6 C8.89088733,14.7240297 8.86708687,14.8566323 8.87,14.99 C8.87110462,15.2523399 8.97525584,15.5037394 9.16,15.69 C9.25126638,15.7835387 9.35998253,15.8582811 9.48,15.91 C9.60402973,15.9591127 9.73663231,15.9829131 9.87,15.98 C10.0000129,15.9815929 10.1290887,15.9578158 10.25,15.91 C10.3700175,15.8582811 10.4787336,15.7835387 10.57,15.69 C10.7584143,15.5053695 10.866243,15.2537693 10.87,14.99 C10.8697423,14.855952 10.8425365,14.7233241 10.79,14.6 C10.7391551,14.4853072 10.6641062,14.3829678 10.57,14.3 Z M9.87,7 C8.79751599,6.99931238 7.80624189,7.57120128 7.27,8.5 C7.07294063,8.80998907 7.06169228,9.20306198 7.24070212,9.52381282 C7.41971195,9.84456366 7.76016149,10.0413553 8.12745008,10.0363839 C8.49473866,10.0314125 8.82973714,9.82547839 9,9.5 C9.22451811,9.10378734 9.688381,8.9093119 10.1283301,9.02694536 C10.5682792,9.14457881 10.8731839,9.54460708 10.87,10 C10.87,10.5522847 10.4222847,11 9.87,11 C9.31771525,11 8.87,11.4477153 8.87,12 C8.87,12.5522847 9.31771525,13 9.87,13 C11.5268542,13 12.87,11.6568542 12.87,10 C12.87,8.34314575 11.5268542,7 9.87,7 Z M17,3.5 L10.72,3.5 L10.4,2.5 C9.97480834,1.29734622 8.83559393,0.495082551 7.56,0.5 L3,0.5 C1.34314575,0.5 0,1.84314575 -4.4408921e-16,3.5 L-4.4408921e-16,16.5 C0,18.1568542 1.34314575,19.5 3,19.5 L17,19.5 C18.6568542,19.5 20,18.1568542 20,16.5 L20,6.5 C20,4.84314575 18.6568542,3.5 17,3.5 Z M18,16.5 C18,17.0522847 17.5522847,17.5 17,17.5 L3,17.5 C2.44771525,17.5 2,17.0522847 2,16.5 L2,3.5 C2,2.94771525 2.44771525,2.5 3,2.5 L7.56,2.5 C7.98991591,2.49889024 8.37242788,2.77268828 8.51,3.18 L9.05,4.82 C9.18757212,5.22731172 9.57008409,5.50110976 10,5.5 L17,5.5 C17.5522847,5.5 18,5.94771525 18,6.5 L18,16.5 Z" id="Shape"></path>
                        </g>
                    </g>
                </g>
            </g>
        </g>
    </g>
</svg>