<?xml version="1.0" encoding="UTF-8"?>
<svg width="42px" height="42px" viewBox="0 0 42 42" version="1.1" xmlns="http://www.w3.org/2000/svg" xmlns:xlink="http://www.w3.org/1999/xlink">
    <!-- Generator: Sketch 52.6 (67491) - http://www.bohemiancoding.com/sketch -->
    <title>Group 6</title>
    <desc>Created with Sketch.</desc>
    <g id="Landing-page" stroke="none" stroke-width="1" fill="none" fill-rule="evenodd">
        <g id="1.3--Features" transform="translate(-833.000000, -1580.000000)" fill="#0B7A76">
            <g id="solutions" transform="translate(0.000000, 468.000000)">
                <g id="Group-9" transform="translate(833.000000, 955.000000)">
                    <g id="Group-6" transform="translate(0.000000, 157.000000)">
                        <circle id="Oval" fill-opacity="0.3" cx="21" cy="21" r="21"></circle>
                        <g id="file-upload" transform="translate(13.000000, 11.000000)" fill-rule="nonzero">
                            <path d="M8.71,9.29 C8.61489629,9.19895937 8.50275132,9.12759439 8.38,9.08 C8.13653864,8.97998198 7.86346136,8.97998198 7.62,9.08 C7.49724868,9.12759439 7.38510371,9.19895937 7.29,9.29 L5.29,11.29 C4.89787783,11.6821222 4.89787783,12.3178778 5.29,12.71 C5.68212217,13.1021222 6.31787783,13.1021222 6.71,12.71 L7,12.41 L7,15 C7,15.5522847 7.44771525,16 8,16 C8.55228475,16 9,15.5522847 9,15 L9,12.41 L9.29,12.71 C9.4777666,12.8993127 9.73336246,13.0057983 10,13.0057983 C10.2666375,13.0057983 10.5222334,12.8993127 10.71,12.71 C10.8993127,12.5222334 11.0057983,12.2666375 11.0057983,12 C11.0057983,11.7333625 10.8993127,11.4777666 10.71,11.29 L8.71,9.29 Z M16,6.94 C15.9895837,6.8481349 15.9694716,6.75763058 15.94,6.67 L15.94,6.58 C15.8919189,6.47717975 15.8277838,6.38266483 15.75,6.3 L9.75,0.3 C9.66733517,0.222216205 9.57282025,0.158081081 9.47,0.11 L9.37,0.11 C9.27276401,0.0580031503 9.16826255,0.0209219889 9.06,0 L3,0 C1.34314575,-2.22044605e-16 0,1.34314575 0,3 L0,17 C0,18.6568542 1.34314575,20 3,20 L13,20 C14.6568542,20 16,18.6568542 16,17 L16,7 C16,7 16,7 16,6.94 Z M10,3.41 L12.59,6 L11,6 C10.4477153,6 10,5.55228475 10,5 L10,3.41 Z M14,17 C14,17.5522847 13.5522847,18 13,18 L3,18 C2.44771525,18 2,17.5522847 2,17 L2,3 C2,2.44771525 2.44771525,2 3,2 L8,2 L8,5 C8,6.65685425 9.34314575,8 11,8 L14,8 L14,17 Z" id="Shape"></path>
                        </g>
                    </g>
                </g>
            </g>
        </g>
    </g>
</svg>