<svg height="33" viewBox="0 0 36 33" width="36" xmlns="http://www.w3.org/2000/svg"><path d="m29.3831579 7.55157895c-2.2472523-5.16380541-7.6642861-8.19312134-13.2403754-7.40428835-5.5760893.788833-9.94027535 5.20186939-10.66699303 10.7863936-3.07886075.7498994-5.29820858 3.4349495-5.4552179 6.5999267-.15700931 3.1649772 1.78569393 6.0564997 4.7752179 7.1074417.18559058.0571666.37844829.0873006.57263158.0894737.98829901.1581278 1.91766159-.5148589 2.07578943-1.5031579s-.51485884-1.9176616-1.50315785-2.0757895c-1.38079426-.4984333-2.31719242-1.7895277-2.36210526-3.2568421 0-1.976598 1.60234931-3.5789473 3.57894737-3.5789473.98829902 0 1.78947368-.8011747 1.78947368-1.7894737.00943941-4.3704546 3.17487318-8.09454639 7.48670848-8.80801555 4.3118354-.71346916 8.5081414 1.79249303 9.9248705 5.92696291.2084209.62656404.7449544 1.08743254 1.3957894 1.19894734 2.2035931.3988424 3.9281217 2.1236458 4.3266129 4.3273024.3984912 2.2036565-.6127776 4.4231792-2.5371392 5.5684871-.8598201.4941495-1.1562547 1.5917588-.6621052 2.4515789.4941495.8598202 1.5917588 1.1562548 2.4515789.6621053 2.7613687-1.6027941 4.4594038-4.5556021 4.4557895-7.748421-.0111704-3.9534405-2.6156413-7.43091847-6.4063158-8.55368425zm-6.4957895 7.94526315c-1.3721688.2984985-2.8064324-.0079123-3.9368421-.8410526-.6288564-.4595291-1.4827225-.4595291-2.1115789 0-1.1294282.8353191-2.5646787 1.1419408-3.9368421.8410526-.5293953-.1143198-1.0820823.0172723-1.5031579.3578947-.4156536.3371727-.658566.8426932-.6621053 1.3778948v6.0305263c-.0028254 2.6015575 1.2164573 5.053376 3.2926316 6.6210526l2.8094737 2.0578948c.6288564.4595291 1.4827225.4595291 2.1115789 0l2.8094737-2.0757895c2.0778055-1.5583446 3.2982732-4.0059129 3.2926316-6.6031579v-6.0305263c-.0035393-.5352016-.2464517-1.0407221-.6621053-1.3778948-.4210756-.3406224-.9737627-.4722145-1.5031579-.3578947zm-1.4136842 7.7663158c-.031897 1.4004032-.6882893 2.7131878-1.7894737 3.5789474l-1.7894737 1.288421-1.7894736-1.288421c-1.1011844-.8657596-1.7575767-2.1785442-1.7894737-3.5789474v-4.08c1.2515826-.0562382 2.4746008-.3925683 3.5789473-.9842105 1.1043465.5916422 2.3273648.9279723 3.5789474.9842105z" fill="#0b7a76"/></svg>