<svg height="22" viewBox="0 0 32 22" width="32" xmlns="http://www.w3.org/2000/svg"><path d="m12.107 1.193c-.3192032-.32183151-.7537162-.50285715-1.207-.50285715s-.8877968.18102564-1.207.50285715l-8.5 8.5c-.32183151.3192032-.50285715.7537162-.50285715 1.207s.18102564.8877968.50285715 1.207l8.5 8.5c.3192032.3218315.7537162.5028572 1.207.5028572s.8877968-.1810257 1.207-.5028572c.3218315-.3192032.5028572-.7537162.5028572-1.207s-.1810257-.8877968-.5028572-1.207l-7.31-7.293 7.31-7.293c.3218315-.31920322.5028572-.75371619.5028572-1.207s-.1810257-.88779678-.5028572-1.207zm18.7 8.5-8.5-8.5c-.4312196-.43121957-1.0597358-.59962998-1.6487927-.44179266-.5890568.15783731-1.0491626.61794311-1.207 1.207-.1578373.58905688.0105731 1.21757309.4417927 1.64879266l7.31 7.293-7.31 7.293c-.3218315.3192032-.5028572.7537162-.5028572 1.207s.1810257.8877968.5028572 1.207c.3192032.3218315.7537162.5028572 1.207.5028572s.8877968-.1810257 1.207-.5028572l8.5-8.5c.3218315-.3192032.5028572-.7537162.5028572-1.207s-.1810257-.8877968-.5028572-1.207z" fill="#0b7a76"/></svg>