<?xml version="1.0" encoding="UTF-8"?>
<svg width="32px" height="30px" viewBox="0 0 32 30" version="1.1" xmlns="http://www.w3.org/2000/svg" xmlns:xlink="http://www.w3.org/1999/xlink">
    <!-- Generator: Sketch 52.6 (67491) - http://www.bohemiancoding.com/sketch -->
    <title>exclamation-triangle</title>
    <desc>Created with Sketch.</desc>
    <g id="Landing-3" stroke="none" stroke-width="1" fill="none" fill-rule="evenodd">
        <g id="1.2--Use-cases" transform="translate(-1126.000000, -1861.000000)" fill="#F06449" fill-rule="nonzero">
            <g id="Group-2" transform="translate(187.000000, 798.000000)">
                <g id="exclamation-triangle" transform="translate(939.000000, 1063.000000)">
                    <path d="M15.9638161,20.344097 C15.1651787,20.344097 14.5177552,20.9915205 14.5177552,21.7901579 C14.5177552,22.5887953 15.1651787,23.2362188 15.9638161,23.2362188 C16.7624535,23.2362188 17.409877,22.5887953 17.409877,21.7901579 C17.409877,20.9915205 16.7624535,20.344097 15.9638161,20.344097 Z M31.393286,22.4698066 L19.7524957,2.22495382 C18.9863221,0.851327768 17.5366704,2.13162821e-14 15.9638161,2.13162821e-14 C14.3909618,2.13162821e-14 12.9413101,0.851327768 12.1751365,2.22495382 L0.606649232,22.4698066 C-0.185719268,23.8061458 -0.202991116,25.4641847 0.561367073,26.8167404 C1.32572526,28.1692961 2.75500864,29.0098557 4.30856516,29.0204625 L27.619067,29.0204625 C29.1855453,29.0358999 30.6386671,28.2055979 31.4207312,26.8482223 C32.2027953,25.4908467 32.1923048,23.8172714 31.393286,22.4698066 Z M28.8916006,25.3619284 C28.6334503,25.8212265 28.1459232,26.1037706 27.619067,26.0994194 L4.30856516,26.0994194 C3.78170899,26.1037706 3.29418192,25.8212265 3.03603156,25.3619284 C2.77771766,24.9145156 2.77771766,24.3632803 3.03603156,23.9158675 L14.6045188,3.67101473 C14.851934,3.18807924 15.3488889,2.88430051 15.891513,2.88430051 C16.4341372,2.88430051 16.9310921,3.18807924 17.1785073,3.67101473 L28.8192976,23.9158675 C29.1115535,24.3572338 29.1392879,24.9230154 28.8916006,25.3908496 L28.8916006,25.3619284 Z M15.9638161,8.77560974 C15.1651787,8.77560974 14.5177552,9.42303327 14.5177552,10.2216707 L14.5177552,16.0059143 C14.5177552,16.8045517 15.1651787,17.4519752 15.9638161,17.4519752 C16.7624535,17.4519752 17.409877,16.8045517 17.409877,16.0059143 L17.409877,10.2216707 C17.409877,9.42303327 16.7624535,8.77560974 15.9638161,8.77560974 Z" id="Shape"></path>
                </g>
            </g>
        </g>
    </g>
</svg>