<svg height="30" viewBox="0 0 31 30" width="31" xmlns="http://www.w3.org/2000/svg"><path d="m19.8529412 15.3882353c1.9052633-1.6492034 3.0000275-4.0448051 3-6.56470589 0-4.87310073-3.9504287-8.82352941-8.8235294-8.82352941-4.87310077 0-8.82352945 3.95042868-8.82352945 8.82352941.02204627 2.53406439 1.15011663 4.93201969 3.0882353 6.56470589-5.04539831 2.2846552-8.28881277 7.3084972-8.29411765 12.8470588 0 .9746202.79008574 1.7647059 1.76470588 1.7647059.97462015 0 1.76470588-.7900857 1.76470588-1.7647059 0-5.8477209 4.74051442-10.5882353 10.58823534-10.5882353 5.8477208 0 10.5882353 4.7405144 10.5882353 10.5882353 0 .9746202.7900857 1.7647059 1.7647058 1.7647059.9746202 0 1.7647059-.7900857 1.7647059-1.7647059-.0209313-5.5592412-3.3024762-10.5886405-8.3823529-12.8470588zm-5.8235294-1.2705882c-2.9238605 0-5.29411768-2.3702572-5.29411768-5.29411769 0-2.92386044 2.37025718-5.29411765 5.29411768-5.29411765 2.9238604 0 5.2941176 2.37025721 5.2941176 5.29411765 0 1.40408729-.5577715 2.75066679-1.5506111 3.74350649-.9928397.9928397-2.3394192 1.5506112-3.7435065 1.5506112zm15-8.82352945c-.9746202 0-1.7647059.79008573-1.7647059 1.76470588v3.52941177c0 .9746201.7900857 1.7647059 1.7647059 1.7647059.9746201 0 1.7647058-.7900858 1.7647058-1.7647059v-3.52941177c0-.97462015-.7900857-1.76470588-1.7647058-1.76470588zm-1.3235294 9.33529415c-.3224713.3381772-.5052645.7857053-.5117648 1.2529411-.0027119.4690641.1814356.919908.5117648 1.2529412.171531.1558781.3684972.2812203.5823529.3705883.4271292.1887825.9140473.1887825 1.3411765 0 .4433475-.1604538.7924874-.5095937.9529411-.9529412.0987907-.2094342.1471414-.4391003.1411765-.6705883.0041693-.7169383-.4258302-1.3651412-1.0879738-1.6400663-.6621436-.2749252-1.4248077-.1219218-1.9296732.3871252z" fill="#0b7a76"/></svg>