<svg height="34" viewBox="0 0 28 34" width="28" xmlns="http://www.w3.org/2000/svg"><path d="m8.5 13.6h1.7c.9388841 0 1.7-.7611159 1.7-1.7s-.7611159-1.7-1.7-1.7h-1.7c-.93888407 0-1.7.7611159-1.7 1.7s.76111593 1.7 1.7 1.7zm0 3.4c-.93888407 0-1.7.7611159-1.7 1.7s.76111593 1.7 1.7 1.7h10.2c.9388841 0 1.7-.7611159 1.7-1.7s-.7611159-1.7-1.7-1.7zm18.7-5.202c-.0177077-.1561707-.0518982-.310028-.102-.459v-.153c-.0817378-.1747944-.1907675-.3354698-.323-.476l-10.2-10.2c-.1405302-.13223245-.3012056-.24126216-.476-.323-.0507453-.00720769-.1022547-.00720769-.153 0-.1726948-.0990397-.3634203-.16261485-.561-.187h-10.285c-2.81665222 0-5.1 2.28334778-5.1 5.1v23.8c0 2.8166522 2.28334778 5.1 5.1 5.1h17c2.8166522 0 5.1-2.2833478 5.1-5.1v-17s0 0 0-.102zm-10.2-6.001 4.403 4.403h-2.703c-.9388841 0-1.7-.76111593-1.7-1.7zm6.8 23.103c0 .9388841-.7611159 1.7-1.7 1.7h-17c-.93888407 0-1.7-.7611159-1.7-1.7v-23.8c0-.93888407.76111593-1.7 1.7-1.7h8.5v5.1c0 2.8166522 2.2833478 5.1 5.1 5.1h5.1zm-5.1-5.1h-10.2c-.93888407 0-1.7.7611159-1.7 1.7s.76111593 1.7 1.7 1.7h10.2c.9388841 0 1.7-.7611159 1.7-1.7s-.7611159-1.7-1.7-1.7z" fill="#0b7a76"/></svg>