<svg width="35" height="35" viewBox="0 0 35 35" fill="none" xmlns="http://www.w3.org/2000/svg">
<path d="M25.3036 13.1987L21.8911 24.1945C21.0745 26.805 17.414 26.8487 16.5536 24.2529L15.5328 21.2341C15.2557 20.4029 14.5995 19.7321 13.7682 19.4696L10.7349 18.4487C8.15363 17.5883 8.19738 13.8987 10.8078 13.1112L21.8036 9.68413C23.962 9.02788 25.989 11.055 25.3036 13.1987Z" stroke="#417BD2" stroke-width="3" stroke-linecap="round" stroke-linejoin="round"/>
<path d="M13.1263 32.0827H21.8763C29.168 32.0827 32.0846 29.166 32.0846 21.8743V13.1243C32.0846 5.83268 29.168 2.91602 21.8763 2.91602H13.1263C5.83464 2.91602 2.91797 5.83268 2.91797 13.1243V21.8743C2.91797 29.166 5.83464 32.0827 13.1263 32.0827Z" stroke="#417BD2" stroke-width="3" stroke-linecap="round" stroke-linejoin="round"/>
</svg>
