<svg width="160" height="160" viewBox="0 0 160 160" fill="none" xmlns="http://www.w3.org/2000/svg">
<rect width="160" height="160" rx="30" fill="url(#paint0_linear_11178_17867)"/>
<g filter="url(#filter0_d_11178_17867)">
<path d="M57.7175 40H93.5242L109.006 55.416V111.577C109.006 115.821 105.551 119.262 101.288 119.262H57.7175C53.4552 119.262 50 115.821 50 111.577V47.6848C50 43.4406 53.4552 40 57.7175 40Z" fill="#FAFDFF" stroke="#C0EAF0" stroke-width="2" stroke-linejoin="round"/>
<path d="M109.009 55.8523H93.1562V40L109.009 55.8523Z" fill="#C0EAF0" stroke="#C0EAF0" stroke-width="2" stroke-linejoin="round"/>
<rect x="58.1992" y="53.0234" width="27.3192" height="3.03547" rx="1.51773" fill="#0DA2BC"/>
<rect x="58.1992" y="61.6992" width="42.0629" height="3.03547" rx="1.51773" fill="#0DA2BC"/>
<rect x="58.1992" y="70.3652" width="42.0629" height="3.03547" rx="1.51773" fill="#D5F1F3"/>
<rect x="58.1992" y="79.041" width="42.0629" height="3.03547" rx="1.51773" fill="#D5F1F3"/>
<rect x="58.1992" y="87.7148" width="17.7792" height="3.03547" rx="1.51773" fill="#D5F1F3"/>
<rect x="58.1992" y="96.3867" width="17.7792" height="3.03547" rx="1.51773" fill="#D5F1F3"/>
<rect x="58.1992" y="105.057" width="17.7792" height="3.03547" rx="1.51773" fill="#D5F1F3"/>
</g>
<g filter="url(#filter1_d_11178_17867)">
<path d="M100.731 98.0296C100.731 103.741 96.1008 108.372 90.389 108.372C84.6772 108.372 80.0469 103.741 80.0469 98.0296C80.0469 92.3178 84.6772 87.6875 90.389 87.6875C96.1008 87.6875 100.731 92.3178 100.731 98.0296Z" fill="#5CD9C1"/>
<path d="M99.7311 98.0296C99.7311 103.189 95.5485 107.372 90.389 107.372V109.372C96.6531 109.372 101.731 104.294 101.731 98.0296H99.7311ZM90.389 107.372C85.2295 107.372 81.0469 103.189 81.0469 98.0296H79.0469C79.0469 104.294 84.1249 109.372 90.389 109.372V107.372ZM81.0469 98.0296C81.0469 92.8701 85.2295 88.6875 90.389 88.6875V86.6875C84.1249 86.6875 79.0469 91.7655 79.0469 98.0296H81.0469ZM90.389 88.6875C95.5485 88.6875 99.7311 92.8701 99.7311 98.0296H101.731C101.731 91.7655 96.6531 86.6875 90.389 86.6875V88.6875Z" fill="white" fill-opacity="0.2"/>
</g>
<path fill-rule="evenodd" clip-rule="evenodd" d="M94.9393 94.9861C95.3223 95.384 95.3103 96.017 94.9125 96.4001L89.8922 101.234C89.505 101.606 88.8923 101.606 88.5051 101.234L86.0252 98.8459C85.6273 98.4629 85.6153 97.8298 85.9984 97.4319C86.3814 97.0341 87.0145 97.0221 87.4124 97.4051L89.1986 99.1249L93.5253 94.9593C93.9231 94.5763 94.5562 94.5883 94.9393 94.9861Z" fill="#FAFDFF"/>
<defs>
<filter id="filter0_d_11178_17867" x="29" y="29" width="101.008" height="121.262" filterUnits="userSpaceOnUse" color-interpolation-filters="sRGB">
<feFlood flood-opacity="0" result="BackgroundImageFix"/>
<feColorMatrix in="SourceAlpha" type="matrix" values="0 0 0 0 0 0 0 0 0 0 0 0 0 0 0 0 0 0 127 0" result="hardAlpha"/>
<feOffset dy="10"/>
<feGaussianBlur stdDeviation="10"/>
<feComposite in2="hardAlpha" operator="out"/>
<feColorMatrix type="matrix" values="0 0 0 0 0.138854 0 0 0 0 0.297987 0 0 0 0 0.3875 0 0 0 0.25 0"/>
<feBlend mode="normal" in2="BackgroundImageFix" result="effect1_dropShadow_11178_17867"/>
<feBlend mode="normal" in="SourceGraphic" in2="effect1_dropShadow_11178_17867" result="shape"/>
</filter>
<filter id="filter1_d_11178_17867" x="71.0469" y="82.6875" width="38.6836" height="38.6836" filterUnits="userSpaceOnUse" color-interpolation-filters="sRGB">
<feFlood flood-opacity="0" result="BackgroundImageFix"/>
<feColorMatrix in="SourceAlpha" type="matrix" values="0 0 0 0 0 0 0 0 0 0 0 0 0 0 0 0 0 0 127 0" result="hardAlpha"/>
<feOffset dy="4"/>
<feGaussianBlur stdDeviation="4"/>
<feComposite in2="hardAlpha" operator="out"/>
<feColorMatrix type="matrix" values="0 0 0 0 0 0 0 0 0 0.274167 0 0 0 0 0.291667 0 0 0 0.25 0"/>
<feBlend mode="normal" in2="BackgroundImageFix" result="effect1_dropShadow_11178_17867"/>
<feBlend mode="normal" in="SourceGraphic" in2="effect1_dropShadow_11178_17867" result="shape"/>
</filter>
<linearGradient id="paint0_linear_11178_17867" x1="80" y1="0" x2="80" y2="160" gradientUnits="userSpaceOnUse">
<stop stop-color="#F4FAFC"/>
<stop offset="1" stop-color="#E8F5FA"/>
</linearGradient>
</defs>
</svg>
