<svg width="160" height="160" viewBox="0 0 160 160" fill="none" xmlns="http://www.w3.org/2000/svg">
<rect width="160" height="160" rx="30" fill="url(#paint0_linear_11178_17847)"/>
<g filter="url(#filter0_d_11178_17847)">
<path d="M50.343 60.8633H66.8173C67.8962 60.8633 68.8928 61.4396 69.4312 62.3746L72.1426 66.0786C72.681 67.0135 73.6777 67.5899 74.7565 67.5899H114.884V109.879C114.884 112.1 113.084 113.901 110.863 113.901H50.0216C47.8006 113.901 46 112.1 46 109.879V72.2811C46 69.1725 46.4803 66.0824 47.4239 63.1205C47.7696 61.7912 48.9696 60.8633 50.343 60.8633Z" fill="#0DA2BC"/>
<path d="M50.343 60.8633H66.8173C67.8962 60.8633 68.8928 61.4396 69.4312 62.3746L72.1426 66.0786C72.681 67.0135 73.6777 67.5899 74.7565 67.5899H114.884V109.879C114.884 112.1 113.084 113.901 110.863 113.901H50.0216C47.8006 113.901 46 112.1 46 109.879V72.2811C46 69.1725 46.4803 66.0824 47.4239 63.1205C47.7696 61.7912 48.9696 60.8633 50.343 60.8633Z" stroke="#00A0B6" stroke-width="2"/>
</g>
<path d="M105.173 67.0156H48.5781V89.3303H105.173V67.0156Z" fill="#FAFDFF" stroke="#00A0B6" stroke-width="2"/>
<path d="M111.868 62.8711H95.2667C94.0861 62.8711 93.0139 63.5599 92.5233 64.6338L89.6825 70.8511C89.1917 71.9249 88.1197 72.6138 86.9391 72.6138H46V110.882C46 113.103 47.8006 114.903 50.0216 114.903H110.863C113.084 114.903 114.884 113.103 114.884 110.882V65.8873C114.884 64.2216 113.534 62.8711 111.868 62.8711Z" fill="url(#paint1_linear_11178_17847)" stroke="#00A0B6" stroke-width="2"/>
<path d="M95.7816 94.3409L88.3789 86.9383C88.1487 86.7081 87.7414 86.7081 87.5112 86.9383L85.9063 88.5432C85.6666 88.7829 85.6666 89.1714 85.9063 89.4111L91.2704 94.7746L85.9066 100.139C85.6669 100.379 85.6669 100.767 85.9066 101.007L87.5115 102.612C87.6266 102.727 87.7829 102.792 87.9455 102.792C88.1079 102.792 88.2644 102.727 88.3795 102.612L95.7816 95.2095C96.0213 94.9695 96.0213 94.5806 95.7816 94.3409Z" fill="#FAFDFF"/>
<path d="M75.0703 100.146L69.7072 94.7818L75.0712 89.4184C75.1863 89.3033 75.2511 89.1473 75.2511 88.9844C75.2511 88.8217 75.1866 88.6655 75.0712 88.5504L73.4663 86.9455C73.3513 86.8304 73.195 86.7656 73.0324 86.7656C72.8697 86.7656 72.7135 86.8304 72.5984 86.9455L65.1954 94.3475C64.9557 94.5872 64.9557 94.9758 65.1954 95.2158L72.5981 102.618C72.7132 102.733 72.8694 102.798 73.0321 102.798C73.1947 102.798 73.3509 102.733 73.466 102.618L75.0709 101.013C75.3106 100.774 75.3106 100.385 75.0703 100.146Z" fill="#FAFDFF"/>
<path d="M84.7007 84.4507C84.6228 84.3077 84.4914 84.2015 84.3355 84.1555L83.0344 83.7715C82.7097 83.6751 82.3678 83.8614 82.272 84.1865L76.2321 104.641C76.1861 104.797 76.2039 104.965 76.2815 105.108C76.3592 105.251 76.4909 105.357 76.6468 105.403L77.9478 105.787C78.0058 105.804 78.0644 105.813 78.1218 105.813C78.3867 105.813 78.6313 105.639 78.7102 105.372L84.7501 84.9175C84.7962 84.7613 84.7787 84.5934 84.7007 84.4507Z" fill="#FAFDFF"/>
<g filter="url(#filter1_d_11178_17847)">
<path d="M131.999 53.4332C131.999 63.0613 124.194 70.8664 114.566 70.8664C104.938 70.8664 97.1328 63.0613 97.1328 53.4332C97.1328 43.8051 104.938 36 114.566 36C124.194 36 131.999 43.8051 131.999 53.4332Z" fill="#417BD2"/>
<path d="M130.999 53.4332C130.999 62.509 123.642 69.8664 114.566 69.8664V71.8664C124.746 71.8664 132.999 63.6136 132.999 53.4332H130.999ZM114.566 69.8664C105.49 69.8664 98.1328 62.509 98.1328 53.4332H96.1328C96.1328 63.6136 104.386 71.8664 114.566 71.8664V69.8664ZM98.1328 53.4332C98.1328 44.3574 105.49 37 114.566 37V35C104.386 35 96.1328 43.2528 96.1328 53.4332H98.1328ZM114.566 37C123.642 37 130.999 44.3574 130.999 53.4332H132.999C132.999 43.2528 124.746 35 114.566 35V37Z" fill="white" fill-opacity="0.2"/>
</g>
<path fill-rule="evenodd" clip-rule="evenodd" d="M108.63 51.9499C108.63 49.4886 110.625 47.4933 113.087 47.4933C115.548 47.4933 117.543 49.4886 117.543 51.9499C117.543 54.4112 115.548 56.4064 113.087 56.4064C110.625 56.4064 108.63 54.4112 108.63 51.9499ZM113.087 46.0078C109.805 46.0078 107.145 48.6682 107.145 51.9499C107.145 55.2316 109.805 57.8919 113.087 57.8919C114.46 57.8919 115.724 57.4262 116.73 56.644L120.733 60.6471C121.023 60.9371 121.494 60.9371 121.784 60.6471C122.074 60.357 122.074 59.8867 121.784 59.5966L117.781 55.5936C118.563 54.5874 119.029 53.323 119.029 51.9499C119.029 48.6682 116.368 46.0078 113.087 46.0078Z" fill="white"/>
<path d="M116.73 56.644L117.084 56.2904C116.906 56.1122 116.622 56.0945 116.423 56.2492L116.73 56.644ZM120.733 60.6471L121.087 60.2935L120.733 60.6471ZM121.784 59.5966L121.43 59.9502L121.784 59.5966ZM117.781 55.5936L117.386 55.2867C117.231 55.4858 117.249 55.7689 117.427 55.9471L117.781 55.5936ZM113.087 46.9933C110.349 46.9933 108.13 49.2124 108.13 51.9499H109.13C109.13 49.7647 110.901 47.9933 113.087 47.9933V46.9933ZM118.043 51.9499C118.043 49.2124 115.824 46.9933 113.087 46.9933V47.9933C115.272 47.9933 117.043 49.7647 117.043 51.9499H118.043ZM113.087 56.9064C115.824 56.9064 118.043 54.6873 118.043 51.9499H117.043C117.043 54.135 115.272 55.9064 113.087 55.9064V56.9064ZM108.13 51.9499C108.13 54.6873 110.349 56.9064 113.087 56.9064V55.9064C110.901 55.9064 109.13 54.135 109.13 51.9499H108.13ZM107.645 51.9499C107.645 48.9443 110.081 46.5078 113.087 46.5078V45.5078C109.529 45.5078 106.645 48.392 106.645 51.9499H107.645ZM113.087 57.3919C110.081 57.3919 107.645 54.9554 107.645 51.9499H106.645C106.645 55.5077 109.529 58.3919 113.087 58.3919V57.3919ZM116.423 56.2492C115.502 56.9656 114.345 57.3919 113.087 57.3919V58.3919C114.575 58.3919 115.946 57.8867 117.037 57.0388L116.423 56.2492ZM121.087 60.2935L117.084 56.2904L116.377 56.9976L120.38 61.0006L121.087 60.2935ZM121.43 60.2935C121.335 60.3883 121.182 60.3883 121.087 60.2935L120.38 61.0006C120.865 61.4859 121.652 61.4859 122.137 61.0006L121.43 60.2935ZM121.43 59.9502C121.525 60.045 121.525 60.1987 121.43 60.2935L122.137 61.0006C122.623 60.5153 122.623 59.7284 122.137 59.2431L121.43 59.9502ZM117.427 55.9471L121.43 59.9502L122.137 59.2431L118.134 55.24L117.427 55.9471ZM118.529 51.9499C118.529 53.208 118.102 54.3652 117.386 55.2867L118.175 55.9004C119.023 54.8096 119.529 53.438 119.529 51.9499H118.529ZM113.087 46.5078C116.092 46.5078 118.529 48.9443 118.529 51.9499H119.529C119.529 48.392 116.644 45.5078 113.087 45.5078V46.5078Z" fill="white"/>
<defs>
<filter id="filter0_d_11178_17847" x="33" y="54.8633" width="94.8828" height="79.0371" filterUnits="userSpaceOnUse" color-interpolation-filters="sRGB">
<feFlood flood-opacity="0" result="BackgroundImageFix"/>
<feColorMatrix in="SourceAlpha" type="matrix" values="0 0 0 0 0 0 0 0 0 0 0 0 0 0 0 0 0 0 127 0" result="hardAlpha"/>
<feOffset dy="7"/>
<feGaussianBlur stdDeviation="6"/>
<feComposite in2="hardAlpha" operator="out"/>
<feColorMatrix type="matrix" values="0 0 0 0 0.146875 0 0 0 0 0.238125 0 0 0 0 0.375 0 0 0 0.38 0"/>
<feBlend mode="normal" in2="BackgroundImageFix" result="effect1_dropShadow_11178_17847"/>
<feBlend mode="normal" in="SourceGraphic" in2="effect1_dropShadow_11178_17847" result="shape"/>
</filter>
<filter id="filter1_d_11178_17847" x="88.1328" y="31" width="52.8672" height="52.8672" filterUnits="userSpaceOnUse" color-interpolation-filters="sRGB">
<feFlood flood-opacity="0" result="BackgroundImageFix"/>
<feColorMatrix in="SourceAlpha" type="matrix" values="0 0 0 0 0 0 0 0 0 0 0 0 0 0 0 0 0 0 127 0" result="hardAlpha"/>
<feOffset dy="4"/>
<feGaussianBlur stdDeviation="4"/>
<feComposite in2="hardAlpha" operator="out"/>
<feColorMatrix type="matrix" values="0 0 0 0 0 0 0 0 0 0.274167 0 0 0 0 0.291667 0 0 0 0.25 0"/>
<feBlend mode="normal" in2="BackgroundImageFix" result="effect1_dropShadow_11178_17847"/>
<feBlend mode="normal" in="SourceGraphic" in2="effect1_dropShadow_11178_17847" result="shape"/>
</filter>
<linearGradient id="paint0_linear_11178_17847" x1="80" y1="0" x2="80" y2="160" gradientUnits="userSpaceOnUse">
<stop stop-color="#F4FAFC"/>
<stop offset="1" stop-color="#E8F5FA"/>
</linearGradient>
<linearGradient id="paint1_linear_11178_17847" x1="80.4422" y1="62.8711" x2="80.4422" y2="114.903" gradientUnits="userSpaceOnUse">
<stop stop-color="#0DA2BC"/>
<stop offset="1" stop-color="#038EA7"/>
</linearGradient>
</defs>
</svg>
