<svg width="35" height="35" viewBox="0 0 35 35" fill="none" xmlns="http://www.w3.org/2000/svg">
<path d="M20.1094 18.5938L14.6406 13.125" stroke="#417BD2" stroke-width="3" stroke-miterlimit="10" stroke-linecap="round" stroke-linejoin="round"/>
<path d="M20.0508 13.1816L14.582 18.6504" stroke="#417BD2" stroke-width="3" stroke-miterlimit="10" stroke-linecap="round" stroke-linejoin="round"/>
<path d="M17.5318 2.91602C12.1652 2.91602 7.81933 7.26185 7.81933 12.6285V15.691C7.81933 16.6827 7.41099 18.1702 6.90058 19.016L5.04849 22.1077C3.91099 24.0181 4.69849 26.1473 6.79849 26.8473C13.7693 29.166 21.3089 29.166 28.2797 26.8473C30.2485 26.191 31.0943 23.8868 30.0297 22.1077L28.1777 19.016C27.6672 18.1702 27.2589 16.6681 27.2589 15.691V12.6285C27.2443 7.29102 22.8693 2.91602 17.5318 2.91602Z" stroke="#417BD2" stroke-width="3" stroke-miterlimit="10" stroke-linecap="round"/>
<path d="M22.357 27.4453C22.357 30.1141 20.1695 32.3016 17.5008 32.3016C16.1737 32.3016 14.9487 31.7474 14.0737 30.8724C13.1987 29.9974 12.6445 28.7724 12.6445 27.4453" stroke="#417BD2" stroke-width="3" stroke-miterlimit="10"/>
</svg>
