<svg width="35" height="35" viewBox="0 0 35 35" fill="none" xmlns="http://www.w3.org/2000/svg">
<path d="M11.668 17.791H21.8763" stroke="#417BD2" stroke-width="3" stroke-miterlimit="10" stroke-linecap="round" stroke-linejoin="round"/>
<path d="M11.668 23.623H18.0555" stroke="#417BD2" stroke-width="3" stroke-miterlimit="10" stroke-linecap="round" stroke-linejoin="round"/>
<path d="M14.5846 8.74935H20.418C23.3346 8.74935 23.3346 7.29102 23.3346 5.83268C23.3346 2.91602 21.8763 2.91602 20.418 2.91602H14.5846C13.1263 2.91602 11.668 2.91602 11.668 5.83268C11.668 8.74935 13.1263 8.74935 14.5846 8.74935Z" stroke="#417BD2" stroke-width="3" stroke-miterlimit="10" stroke-linecap="round" stroke-linejoin="round"/>
<path d="M23.3333 5.86133C28.1896 6.12383 30.625 7.91758 30.625 14.5822V23.3322C30.625 29.1655 29.1667 32.0822 21.875 32.0822H13.125C5.83333 32.0822 4.375 29.1655 4.375 23.3322V14.5822C4.375 7.93216 6.81042 6.12383 11.6667 5.86133" stroke="#417BD2" stroke-width="3" stroke-miterlimit="10" stroke-linecap="round" stroke-linejoin="round"/>
</svg>
