<svg width="31" height="31" viewBox="0 0 31 31" fill="none" xmlns="http://www.w3.org/2000/svg">
<path fill-rule="evenodd" clip-rule="evenodd" d="M6.86011 21.9631C5.68856 22.7441 5.16536 23.6812 5.16536 24.5417C5.16536 25.2551 4.58707 25.8334 3.8737 25.8334C3.16033 25.8334 2.58203 25.2551 2.58203 24.5417C2.58203 22.5487 3.79373 20.9025 5.42713 19.8136C7.06956 18.7186 9.26415 18.0834 11.6237 18.0834C13.9832 18.0834 16.1778 18.7186 17.8203 19.8136C19.4537 20.9025 20.6654 22.5487 20.6654 24.5417C20.6654 25.2551 20.0871 25.8334 19.3737 25.8334C18.6603 25.8334 18.082 25.2551 18.082 24.5417C18.082 23.6812 17.5588 22.7441 16.3873 21.9631C15.2248 21.188 13.5444 20.6667 11.6237 20.6667C9.70303 20.6667 8.02262 21.188 6.86011 21.9631Z" fill="white"/>
<path fill-rule="evenodd" clip-rule="evenodd" d="M28.037 12.0033C28.5415 12.5077 28.5415 13.3256 28.037 13.83L22.8704 18.9967C22.366 19.5011 21.5481 19.5011 21.0437 18.9967L18.4604 16.4133C17.9559 15.9089 17.9559 15.0911 18.4604 14.5867C18.9648 14.0822 19.7826 14.0822 20.287 14.5867L21.957 16.2566L26.2104 12.0033C26.7148 11.4989 27.5326 11.4989 28.037 12.0033Z" fill="white"/>
<path fill-rule="evenodd" clip-rule="evenodd" d="M11.6263 6.45833C9.4862 6.45833 7.7513 8.19323 7.7513 10.3333C7.7513 12.4734 9.4862 14.2083 11.6263 14.2083C13.7664 14.2083 15.5013 12.4734 15.5013 10.3333C15.5013 8.19323 13.7664 6.45833 11.6263 6.45833ZM5.16797 10.3333C5.16797 6.76649 8.05946 3.875 11.6263 3.875C15.1931 3.875 18.0846 6.76649 18.0846 10.3333C18.0846 13.9002 15.1931 16.7917 11.6263 16.7917C8.05946 16.7917 5.16797 13.9002 5.16797 10.3333Z" fill="white"/>
</svg>
