<svg width="160" height="160" viewBox="0 0 160 160" fill="none" xmlns="http://www.w3.org/2000/svg">
<rect width="160" height="160" rx="30" fill="url(#paint0_linear_10710_20164)"/>
<g filter="url(#filter0_d_10710_20164)">
<path d="M107.188 50.3248L95.72 47.6071C85.712 45.2352 75.2881 45.2352 65.28 47.6071L53.8125 50.3248C51.7069 50.3248 50 52.0127 50 54.0948V77.3362C50 105.165 73.9202 115.74 79.3936 117.796C80.1189 118.068 80.8811 118.068 81.6064 117.796C87.0798 115.74 111 105.165 111 77.3362V54.0948C111 52.0127 109.293 50.3248 107.188 50.3248Z" fill="url(#paint1_linear_10710_20164)"/>
<path d="M107.188 50.3248L95.72 47.6071C85.712 45.2352 75.2881 45.2352 65.28 47.6071L53.8125 50.3248C51.7069 50.3248 50 52.0127 50 54.0948V77.3362C50 105.165 73.9202 115.74 79.3936 117.796C80.1189 118.068 80.8811 118.068 81.6064 117.796C87.0798 115.74 111 105.165 111 77.3362V54.0948C111 52.0127 109.293 50.3248 107.188 50.3248Z" stroke="#87B7FF" stroke-width="2" stroke-linecap="round" stroke-linejoin="round"/>
</g>
<path fill-rule="evenodd" clip-rule="evenodd" d="M92.4962 73.6084C93.482 74.6315 93.4512 76.2596 92.4272 77.2447L79.5068 89.6748C78.5101 90.6336 76.9333 90.6336 75.9367 89.6748L69.5543 83.5346C68.5303 82.5495 68.4994 80.9215 69.4853 79.8983C70.4711 78.8751 72.1004 78.8442 73.1244 79.8293L77.7217 84.2522L88.8571 73.5394C89.881 72.5543 91.5103 72.5852 92.4962 73.6084Z" fill="black" fill-opacity="0.14"/>
<path fill-rule="evenodd" clip-rule="evenodd" d="M91.7306 69.788C92.7164 70.8112 92.6855 72.4393 91.6616 73.4244L78.7411 85.8545C77.7445 86.8133 76.1676 86.8133 75.171 85.8545L68.7887 79.7143C67.7647 78.7292 67.7338 77.1012 68.7197 76.078C69.7055 75.0548 71.3348 75.0239 72.3588 76.009L76.9561 80.4319L88.0914 69.7191C89.1154 68.734 90.7447 68.7649 91.7306 69.788Z" fill="#FAFDFF"/>
<defs>
<filter id="filter0_d_10710_20164" x="39" y="44.8281" width="83" height="94.1719" filterUnits="userSpaceOnUse" color-interpolation-filters="sRGB">
<feFlood flood-opacity="0" result="BackgroundImageFix"/>
<feColorMatrix in="SourceAlpha" type="matrix" values="0 0 0 0 0 0 0 0 0 0 0 0 0 0 0 0 0 0 127 0" result="hardAlpha"/>
<feOffset dy="10"/>
<feGaussianBlur stdDeviation="5"/>
<feComposite in2="hardAlpha" operator="out"/>
<feColorMatrix type="matrix" values="0 0 0 0 0.116875 0 0 0 0 0.377025 0 0 0 0 0.4125 0 0 0 0.25 0"/>
<feBlend mode="normal" in2="BackgroundImageFix" result="effect1_dropShadow_10710_20164"/>
<feBlend mode="normal" in="SourceGraphic" in2="effect1_dropShadow_10710_20164" result="shape"/>
</filter>
<linearGradient id="paint0_linear_10710_20164" x1="80" y1="0" x2="80" y2="160" gradientUnits="userSpaceOnUse">
<stop stop-color="#F4FAFC"/>
<stop offset="1" stop-color="#E8F5FA"/>
</linearGradient>
<linearGradient id="paint1_linear_10710_20164" x1="80.5" y1="65.1429" x2="80.5" y2="129.5" gradientUnits="userSpaceOnUse">
<stop stop-color="#457FD6"/>
<stop offset="1" stop-color="#245194"/>
</linearGradient>
</defs>
</svg>
