<svg width="30" height="30" viewBox="0 0 30 30" fill="none" xmlns="http://www.w3.org/2000/svg">
<path fill-rule="evenodd" clip-rule="evenodd" d="M3.75 6.25C3.75 4.86929 4.86929 3.75 6.25 3.75H23.75C25.1307 3.75 26.25 4.86929 26.25 6.25V16.9822C26.25 17.6453 25.9866 18.2812 25.5178 18.75L18.75 25.5178C18.2812 25.9866 17.6453 26.25 16.9822 26.25H6.25C4.86929 26.25 3.75 25.1307 3.75 23.75V6.25ZM23.75 6.25H6.25V23.75H16.9822L23.75 16.9822V6.25Z" fill="#45B4C8"/>
<path fill-rule="evenodd" clip-rule="evenodd" d="M15 17.5C15 16.1193 16.1193 15 17.5 15H25C25.6904 15 26.25 15.5596 26.25 16.25C26.25 16.9404 25.6904 17.5 25 17.5H17.5V25C17.5 25.6904 16.9404 26.25 16.25 26.25C15.5596 26.25 15 25.6904 15 25V17.5Z" fill="#45B4C8"/>
</svg>
