<svg width="30" height="34" viewBox="0 0 30 34" fill="none"
  xmlns="http://www.w3.org/2000/svg">
  <g id="Group 9845">
    <path id="Vector 761" d="M0.484375 19.7266V3.03185C0.484375 1.62168 1.63977 0.478516 3.06502 0.478516H15.0005H26.936C28.3612 0.478516 29.5166 1.62169 29.5166 3.03186V19.7266C29.5166 23.0327 27.7928 26.1049 24.9568 27.8533L16.3652 33.1498C15.5298 33.6647 14.4712 33.6647 13.6358 33.1498L5.0442 27.8533C2.20818 26.1049 0.484375 23.0327 0.484375 19.7266Z" fill="#EDF6FF"/>
    <path id="Intersect" fill-rule="evenodd" clip-rule="evenodd" d="M15 33.536V0.478516H15.0005H26.936C28.3612 0.478516 29.5166 1.62169 29.5166 3.03186V19.7266C29.5166 23.0327 27.7928 26.1049 24.9568 27.8533L16.3652 33.1498C15.9474 33.4073 15.4737 33.5361 15 33.536Z" fill="#D5E7F8"/>
    <path id="Vector 761 (Stroke)" fill-rule="evenodd" clip-rule="evenodd" d="M3.06452 0.95708C1.9065 0.95708 0.967742 1.88549 0.967742 3.03075V19.7182C0.967742 22.8576 2.60535 25.7749 5.29957 27.4351L13.8912 32.7293C14.5699 33.1475 15.4301 33.1475 16.1088 32.7293L24.7004 27.4351C27.3946 25.7749 29.0323 22.8576 29.0323 19.7182V3.03076C29.0323 1.8855 28.0935 0.95708 26.9355 0.95708H3.06452ZM0 3.03075C0 1.35691 1.37203 0 3.06452 0H26.9355C28.628 0 30 1.35692 30 3.03076V19.7182C30 23.188 28.19 26.4124 25.2122 28.2474L16.6206 33.5416C15.6286 34.1528 14.3714 34.1528 13.3794 33.5416L4.78781 28.2474C1.80999 26.4124 0 23.188 0 19.7182V3.03075Z" fill="#D5E7F8"/>
    <g id="Group 9837">
      <path id="Vector (Stroke)" fill-rule="evenodd" clip-rule="evenodd" d="M13.2461 20.8322C13.2461 20.3273 13.6598 19.918 14.1701 19.918H22.486C22.9963 19.918 23.41 20.3273 23.41 20.8322C23.41 21.3371 22.9963 21.7464 22.486 21.7464H14.1701C13.6598 21.7464 13.2461 21.3371 13.2461 20.8322Z" fill="#009CB7"/>
      <path id="Vector (Stroke)_2" fill-rule="evenodd" clip-rule="evenodd" d="M11.9928 18.2998C12.3849 18.623 12.4378 19.1995 12.1111 19.5874L9.80116 22.33C9.49886 22.689 8.97169 22.7646 8.57879 22.5054L7.1928 21.5912C6.7682 21.3112 6.65347 20.7436 6.93653 20.3234C7.2196 19.9033 7.79328 19.7898 8.21788 20.0699L8.91303 20.5284L10.6915 18.4169C11.0182 18.029 11.6008 17.9766 11.9928 18.2998Z" fill="#009CB7"/>
      <path id="Vector (Stroke)_3" fill-rule="evenodd" clip-rule="evenodd" d="M13.2461 15.1369C13.2461 14.632 13.6598 14.2227 14.1701 14.2227H22.486C22.9963 14.2227 23.41 14.632 23.41 15.1369C23.41 15.6418 22.9963 16.0511 22.486 16.0511H14.1701C13.6598 16.0511 13.2461 15.6418 13.2461 15.1369Z" fill="#009CB7"/>
      <path id="Vector (Stroke)_4" fill-rule="evenodd" clip-rule="evenodd" d="M11.9889 12.6064C12.381 12.9297 12.4339 13.5062 12.1072 13.894L9.79726 16.6367C9.49497 16.9956 8.96781 17.0712 8.57491 16.8121L7.18892 15.898C6.76431 15.6179 6.64956 15.0503 6.93261 14.6302C7.21566 14.2101 7.78934 14.0965 8.21395 14.3766L8.90911 14.8351L10.6876 12.7235C11.0143 12.3356 11.5969 12.2832 11.9889 12.6064Z" fill="#009CB7"/>
      <path id="Vector (Stroke)_5" fill-rule="evenodd" clip-rule="evenodd" d="M13.2461 9.44351C13.2461 8.93861 13.6598 8.5293 14.1701 8.5293H22.486C22.9963 8.5293 23.41 8.93861 23.41 9.44351C23.41 9.94842 22.9963 10.3577 22.486 10.3577H14.1701C13.6598 10.3577 13.2461 9.94842 13.2461 9.44351Z" fill="#009CB7"/>
      <path id="Vector (Stroke)_6" fill-rule="evenodd" clip-rule="evenodd" d="M11.9928 6.91309C12.3849 7.23632 12.4378 7.8128 12.1111 8.20068L9.80116 10.9433C9.49886 11.3022 8.97169 11.3779 8.57879 11.1187L7.1928 10.2045C6.7682 9.92444 6.65347 9.35683 6.93653 8.93673C7.2196 8.51662 7.79328 8.4031 8.21788 8.68317L8.91303 9.1417L10.6915 7.03014C11.0182 6.64226 11.6008 6.58986 11.9928 6.91309Z" fill="#009CB7"/>
    </g>
  </g>
</svg>
