<svg width="30" height="30" viewBox="0 0 30 30" fill="none" xmlns="http://www.w3.org/2000/svg">
<path fill-rule="evenodd" clip-rule="evenodd" d="M2.5 8.75C2.5 7.36929 3.61929 6.25 5 6.25L11.9822 6.25C12.6453 6.25 13.2812 6.51339 13.75 6.98223L18.0178 11.25C18.4866 11.7188 18.75 12.3547 18.75 13.0178V25C18.75 26.3807 17.6307 27.5 16.25 27.5L5 27.5C3.61929 27.5 2.5 26.3807 2.5 25L2.5 8.75ZM11.9822 8.75L5 8.75L5 25H16.25V13.0178L11.9822 8.75Z" fill="#45B4C8"/>
<path fill-rule="evenodd" clip-rule="evenodd" d="M11.25 5C11.25 3.61929 12.3693 2.5 13.75 2.5L20.7322 2.5C21.3953 2.5 22.0312 2.76339 22.5 3.23223L26.7678 7.5C27.2366 7.96884 27.5 8.60472 27.5 9.26777V21.25C27.5 22.6307 26.3807 23.75 25 23.75L17.5 23.75C16.8096 23.75 16.25 23.1904 16.25 22.5C16.25 21.8096 16.8096 21.25 17.5 21.25H25V9.26777L20.7322 5L13.75 5L13.75 7.5C13.75 8.19035 13.1904 8.75 12.5 8.75C11.8096 8.75 11.25 8.19035 11.25 7.5L11.25 5Z" fill="#45B4C8"/>
<path fill-rule="evenodd" clip-rule="evenodd" d="M11.25 6.25C11.9404 6.25 12.5 6.80964 12.5 7.5L12.5 12.5L17.5 12.5C18.1904 12.5 18.75 13.0596 18.75 13.75C18.75 14.4404 18.1904 15 17.5 15H12.5C11.1193 15 10 13.8807 10 12.5L10 7.5C10 6.80964 10.5596 6.25 11.25 6.25Z" fill="#45B4C8"/>
<path fill-rule="evenodd" clip-rule="evenodd" d="M20 2.5C20.6904 2.5 21.25 3.05964 21.25 3.75L21.25 8.75L26.25 8.75C26.9404 8.75 27.5 9.30964 27.5 10C27.5 10.6904 26.9404 11.25 26.25 11.25H21.25C19.8693 11.25 18.75 10.1307 18.75 8.75L18.75 3.75C18.75 3.05964 19.3096 2.5 20 2.5Z" fill="#45B4C8"/>
</svg>
