<svg width="30" height="30" viewBox="0 0 30 30" fill="none" xmlns="http://www.w3.org/2000/svg">
<path fill-rule="evenodd" clip-rule="evenodd" d="M7.5 2.5L16.9539 2.5C17.6503 2.5 18.3151 2.79049 18.7883 3.30148L24.3344 9.29132C24.7623 9.75344 25 10.36 25 10.9898V25C25 26.3807 23.8807 27.5 22.5 27.5H7.5C6.11929 27.5 5 26.3807 5 25L5 5C5 3.61929 6.11929 2.5 7.5 2.5ZM16.9539 5L7.5 5L7.5 25H22.5L22.5 10.9898L16.9539 5Z" fill="#45B4C8"/>
<path fill-rule="evenodd" clip-rule="evenodd" d="M10 21.25C10 20.5596 10.5596 20 11.25 20H18.75C19.4404 20 20 20.5596 20 21.25C20 21.9404 19.4404 22.5 18.75 22.5H11.25C10.5596 22.5 10 21.9404 10 21.25Z" fill="#45B4C8"/>
<path fill-rule="evenodd" clip-rule="evenodd" d="M10 17.5C10 16.8096 10.5596 16.25 11.25 16.25H18.75C19.4404 16.25 20 16.8096 20 17.5C20 18.1904 19.4404 18.75 18.75 18.75H11.25C10.5596 18.75 10 18.1904 10 17.5Z" fill="#45B4C8"/>
<path fill-rule="evenodd" clip-rule="evenodd" d="M16.25 2.5C16.9404 2.5 17.5 3.05964 17.5 3.75L17.5 10L23.75 10C24.4404 10 25 10.5596 25 11.25C25 11.9404 24.4404 12.5 23.75 12.5H17.5C16.1193 12.5 15 11.3807 15 10L15 3.75C15 3.05964 15.5596 2.5 16.25 2.5Z" fill="#45B4C8"/>
</svg>
