<svg width="18" height="18" viewBox="0 0 18 18" fill="none"
  xmlns="http://www.w3.org/2000/svg">
  <path id="Shape" fill-rule="evenodd" clip-rule="evenodd" d="M17.4678 5.96715V5.92202C16.1663 2.36511 12.7844 0 9 0C5.21556 0 1.83373 2.36511 0.532197 5.92202V5.96715C-0.177399 7.92668 -0.177399 10.0733 0.532197 12.0329V12.078C1.83373 15.6349 5.21556 18 9 18C12.7844 18 16.1663 15.6349 17.4678 12.078V12.0329C18.1774 10.0733 18.1774 7.92668 17.4678 5.96715ZM2.00407 10.8054C1.69135 9.6222 1.69135 8.37798 2.00407 7.19482H3.6814C3.53714 8.394 3.53714 9.60618 3.6814 10.8054H2.00407ZM4.00469 12.6104H2.74219C3.28281 13.5347 4.0221 14.3271 4.90648 14.9301C4.5189 14.1936 4.21636 13.4154 4.00469 12.6104ZM4.00469 5.3891H2.74219C3.27503 4.46759 4.00487 3.67542 4.87943 3.06934C4.50118 3.80701 4.20772 4.58524 4.00469 5.3891ZM5.89062 12.6104C6.19647 13.951 6.97436 15.1365 8.08197 15.9501V12.6104H5.89062ZM8.08033 10.8054H5.50121C5.33293 9.60774 5.33293 8.39244 5.50121 7.19482H8.08033V10.8054ZM5.89062 5.38906H8.08197V2.04932C6.97436 2.86288 6.19647 4.04844 5.89062 5.38906ZM15.2229 5.3891H13.9604C13.7487 4.5841 13.4462 3.80583 13.0586 3.06934C13.943 3.67236 14.6823 4.46475 15.2229 5.3891ZM12.0781 5.38906C11.7722 4.04844 10.9943 2.86288 9.88672 2.04932V5.38906H12.0781ZM9.88672 15.9501V12.6104H12.0781C11.7722 13.951 10.9943 15.1365 9.88672 15.9501ZM9.88672 10.8054H12.4658C12.6341 9.60774 12.6341 8.39244 12.4658 7.19482H9.88672V10.8054ZM13.0859 14.9301C13.4735 14.1936 13.7761 13.4154 13.9877 12.6104H15.2502C14.7096 13.5347 13.9703 14.3271 13.0859 14.9301ZM14.2852 10.8054H15.9625C16.2752 9.6222 16.2752 8.37798 15.9625 7.19482H14.2852C14.3582 7.79379 14.3944 8.39668 14.3934 9.00009C14.3946 9.60351 14.3585 10.2064 14.2852 10.8054Z" fill="#6782A3"/>
</svg>
