<svg width="30" height="30" viewBox="0 0 30 30" fill="none" xmlns="http://www.w3.org/2000/svg">
<path fill-rule="evenodd" clip-rule="evenodd" d="M3.75 6.25C3.75 4.86929 4.86929 3.75 6.25 3.75L23.75 3.75C25.1307 3.75 26.25 4.86929 26.25 6.25V12.5C26.25 13.1904 25.6904 13.75 25 13.75C24.3096 13.75 23.75 13.1904 23.75 12.5V6.25L6.25 6.25L6.25 23.75H12.5C13.1904 23.75 13.75 24.3096 13.75 25C13.75 25.6904 13.1904 26.25 12.5 26.25H6.25C4.86929 26.25 3.75 25.1307 3.75 23.75L3.75 6.25Z" fill="#45B4C8"/>
<path fill-rule="evenodd" clip-rule="evenodd" d="M19.1161 19.1161C19.6043 18.628 20.3957 18.628 20.8839 19.1161L24.6339 22.8661C25.122 23.3543 25.122 24.1457 24.6339 24.6339C24.1457 25.122 23.3543 25.122 22.8661 24.6339L19.1161 20.8839C18.628 20.3957 18.628 19.6043 19.1161 19.1161Z" fill="#45B4C8"/>
<path fill-rule="evenodd" clip-rule="evenodd" d="M16.875 13.75C15.1491 13.75 13.75 15.1491 13.75 16.875C13.75 18.6009 15.1491 20 16.875 20C18.6009 20 20 18.6009 20 16.875C20 15.1491 18.6009 13.75 16.875 13.75ZM11.25 16.875C11.25 13.7684 13.7684 11.25 16.875 11.25C19.9816 11.25 22.5 13.7684 22.5 16.875C22.5 19.9816 19.9816 22.5 16.875 22.5C13.7684 22.5 11.25 19.9816 11.25 16.875Z" fill="#45B4C8"/>
</svg>
