<svg width="30" height="34" viewBox="0 0 30 34" fill="none" xmlns="http://www.w3.org/2000/svg">
<g id="Group 12207">
<path id="Vector 772" d="M0.484375 19.8243V3.04651C0.484375 1.62932 1.63977 0.480469 3.06502 0.480469H15.0005H26.936C28.3612 0.480469 29.5166 1.62933 29.5166 3.04651V19.8243C29.5166 23.1469 27.7928 26.2344 24.9568 27.9914L16.3652 33.3142C15.5298 33.8318 14.4712 33.8318 13.6358 33.3142L5.0442 27.9914C2.20818 26.2344 0.484375 23.1469 0.484375 19.8243Z" fill="#417BD2"/>
<path id="Intersect" fill-rule="evenodd" clip-rule="evenodd" d="M15 33.7024V0.480469H15.0005H26.936C28.3612 0.480469 29.5166 1.62933 29.5166 3.04651V19.8243C29.5166 23.1469 27.7928 26.2344 24.9568 27.9914L16.3652 33.3142C15.9474 33.5731 15.4737 33.7025 15 33.7024Z" fill="#316ABF"/>
<path id="Vector 761 (Stroke)" fill-rule="evenodd" clip-rule="evenodd" d="M3.06452 0.95708C1.9065 0.95708 0.967742 1.88549 0.967742 3.03075V19.7182C0.967742 22.8576 2.60535 25.7749 5.29957 27.4351L13.8912 32.7293C14.5699 33.1475 15.4301 33.1475 16.1088 32.7293L24.7004 27.4351C27.3946 25.7749 29.0323 22.8576 29.0323 19.7182V3.03076C29.0323 1.8855 28.0935 0.95708 26.9355 0.95708H3.06452ZM0 3.03075C0 1.35691 1.37203 0 3.06452 0H26.9355C28.628 0 30 1.35692 30 3.03076V19.7182C30 23.188 28.19 26.4124 25.2122 28.2474L16.6206 33.5416C15.6286 34.1528 14.3714 34.1528 13.3794 33.5416L4.78781 28.2474C1.80999 26.4124 0 23.188 0 19.7182V3.03075Z" fill="#417BD2"/>
<path id="Union" fill-rule="evenodd" clip-rule="evenodd" d="M9.37587 11.653C10.5246 9.62549 12.7111 8.25391 15.2212 8.25391C18.3631 8.25391 20.9991 10.4021 21.7268 13.3021C23.7378 13.6081 25.2783 15.3355 25.2783 17.4208C25.2783 19.722 23.4022 21.5875 21.0878 21.5875H10.1926C7.41543 21.5875 5.16406 19.3489 5.16406 16.5874C5.16406 14.1024 6.98678 12.0413 9.37587 11.653ZM15.2212 9.92061C13.2134 9.92061 11.4788 11.0906 10.6724 12.786C10.5423 13.0595 10.2732 13.2415 9.96954 13.2612C8.22249 13.3749 6.84025 14.821 6.84025 16.5874C6.84025 18.4284 8.34116 19.9208 10.1926 19.9208H21.0878C22.4764 19.9208 23.6021 18.8015 23.6021 17.4208C23.6021 16.04 22.4764 14.9207 21.0878 14.9207C21.073 14.9207 21.0581 14.9208 21.043 14.9211C20.6205 14.9284 20.2586 14.6218 20.1988 14.2058C19.8506 11.7832 17.7539 9.92061 15.2212 9.92061Z" fill="white"/>
</g>
</svg>
