<svg width="30" height="34" viewBox="0 0 30 34" fill="none" xmlns="http://www.w3.org/2000/svg">
<g id="Group 12208">
<path id="Vector 773" d="M0.483398 19.8243V3.04651C0.483398 1.62932 1.63879 0.480469 3.06404 0.480469H14.9995H26.935C28.3603 0.480469 29.5157 1.62933 29.5157 3.04651V19.8243C29.5157 23.1469 27.7919 26.2344 24.9558 27.9914L16.3642 33.3142C15.5289 33.8318 14.4702 33.8318 13.6348 33.3142L5.04322 27.9914C2.2072 26.2344 0.483398 23.1469 0.483398 19.8243Z" fill="#0B47A2"/>
<path id="Intersect" fill-rule="evenodd" clip-rule="evenodd" d="M15 33.7024V0.480469H26.935C28.3603 0.480469 29.5157 1.62933 29.5157 3.04651V19.8243C29.5157 23.1469 27.7919 26.2344 24.9558 27.9914L16.3642 33.3142C15.9467 33.5729 15.4734 33.7023 15 33.7024Z" fill="#013685"/>
<path id="Vector 761 (Stroke)" fill-rule="evenodd" clip-rule="evenodd" d="M3.06452 0.95708C1.9065 0.95708 0.967742 1.88549 0.967742 3.03075V19.7182C0.967742 22.8576 2.60535 25.7749 5.29957 27.4351L13.8912 32.7293C14.5699 33.1475 15.4301 33.1475 16.1088 32.7293L24.7004 27.4351C27.3946 25.7749 29.0323 22.8576 29.0323 19.7182V3.03076C29.0323 1.8855 28.0935 0.95708 26.9355 0.95708H3.06452ZM0 3.03075C0 1.35691 1.37203 0 3.06452 0H26.9355C28.628 0 30 1.35692 30 3.03076V19.7182C30 23.188 28.19 26.4124 25.2122 28.2474L16.6206 33.5416C15.6286 34.1528 14.3714 34.1528 13.3794 33.5416L4.78781 28.2474C1.80999 26.4124 0 23.188 0 19.7182V3.03075Z" fill="#0B47A2"/>
<path id="Union" fill-rule="evenodd" clip-rule="evenodd" d="M8.25718 15.0831C8.25718 11.7728 10.6779 9.02476 13.8552 8.49372L15.2151 9.87534L13.4455 11.6732C12.1349 12.256 11.2217 13.5638 11.2217 15.0837C11.2217 16.9043 12.5321 18.4206 14.2662 18.751L13.3821 19.6492C13.1377 19.8975 13.1377 20.2945 13.3821 20.5428L14.5735 21.7533C11.0501 21.5456 8.25718 18.6387 8.25718 15.0831ZM16.2626 21.6431C19.3592 21.0467 21.6974 18.3364 21.6974 15.0831C21.6974 11.5975 19.0135 8.73527 15.5885 8.42825L16.573 9.42855C16.8174 9.67684 16.8174 10.0738 16.573 10.3221L15.5231 11.3888C17.3383 11.6518 18.7324 13.2059 18.7324 15.0837C18.7324 16.7217 17.6717 18.1134 16.196 18.6167L14.74 20.096L16.2626 21.6431ZM14.9773 6.73047C10.338 6.73047 6.57715 10.4701 6.57715 15.0831C6.57715 19.6961 10.338 23.4357 14.9773 23.4357C19.6166 23.4357 23.3774 19.6961 23.3774 15.0831C23.3774 10.4701 19.6166 6.73047 14.9773 6.73047ZM12.9017 15.0837C12.9017 13.944 13.8309 13.0201 14.977 13.0201C16.1232 13.0201 17.0524 13.944 17.0524 15.0837C17.0524 16.2234 16.1232 17.1473 14.977 17.1473C13.8309 17.1473 12.9017 16.2234 12.9017 15.0837Z" fill="white"/>
</g>
</svg>
