<svg width="52" height="52" viewBox="0 0 52 52" fill="none" xmlns="http://www.w3.org/2000/svg">
<g filter="url(#filter0_d_17564_3344)">
<circle cx="26" cy="24" r="20" fill="#009CB7"/>
<circle cx="26" cy="24" r="20" stroke="#99E9F8"/>
</g>
<path fill-rule="evenodd" clip-rule="evenodd" d="M32.7274 15.6616C32.7274 15.1716 32.3305 14.7744 31.841 14.7744C31.3515 14.7744 30.9546 15.1716 30.9546 15.6616V17.6948C30.138 16.9637 29.1747 16.4045 28.1214 16.0589C26.5003 15.5269 24.7514 15.5292 23.1317 16.0654C21.5119 16.6016 20.1065 17.6434 19.1219 19.0379C18.1372 20.4324 17.6252 22.1062 17.6609 23.8134C17.6967 25.5206 18.2783 27.1714 19.3204 28.5234C20.3625 29.8755 21.8102 30.8575 23.451 31.3253C25.0918 31.7931 26.8392 31.7221 28.4367 31.1227C30.0342 30.5233 31.3976 29.427 32.3268 27.9949C32.5934 27.584 32.4767 27.0345 32.0661 26.7676C31.6556 26.5008 31.1066 26.6176 30.84 27.0285C30.1173 28.1424 29.0569 28.995 27.8144 29.4612C26.5719 29.9274 25.2128 29.9827 23.9367 29.6188C22.6605 29.255 21.5345 28.4912 20.724 27.4396C19.9134 26.388 19.4611 25.1041 19.4333 23.7762C19.4055 22.4484 19.8037 21.1466 20.5696 20.062C21.3354 18.9774 22.4285 18.167 23.6883 17.75C24.9481 17.333 26.3083 17.3312 27.5692 17.7449C28.4787 18.0434 29.302 18.5466 29.9787 19.2103H27.4092C26.9197 19.2103 26.5228 19.6075 26.5228 20.0975C26.5228 20.5874 26.9197 20.9846 27.4092 20.9846H31.841C32.3305 20.9846 32.7274 20.5874 32.7274 20.0975V15.6616Z" fill="white"/>
<defs>
<filter id="filter0_d_17564_3344" x="0.5" y="0.5" width="51" height="51" filterUnits="userSpaceOnUse" color-interpolation-filters="sRGB">
<feFlood flood-opacity="0" result="BackgroundImageFix"/>
<feColorMatrix in="SourceAlpha" type="matrix" values="0 0 0 0 0 0 0 0 0 0 0 0 0 0 0 0 0 0 127 0" result="hardAlpha"/>
<feOffset dy="2"/>
<feGaussianBlur stdDeviation="2.5"/>
<feComposite in2="hardAlpha" operator="out"/>
<feColorMatrix type="matrix" values="0 0 0 0 0.0147917 0 0 0 0 0.176317 0 0 0 0 0.591667 0 0 0 0.25 0"/>
<feBlend mode="normal" in2="BackgroundImageFix" result="effect1_dropShadow_17564_3344"/>
<feBlend mode="normal" in="SourceGraphic" in2="effect1_dropShadow_17564_3344" result="shape"/>
</filter>
</defs>
</svg>
