<svg width="50" height="50" viewBox="0 0 50 50" fill="none" xmlns="http://www.w3.org/2000/svg">
<path fill-rule="evenodd" clip-rule="evenodd" d="M16.6667 4.16663C14.3656 4.16663 12.5001 6.03211 12.5001 8.33329V10.4166C12.5001 10.4173 12.5001 10.418 12.5001 10.4186L12.5001 16.6666H8.33342C6.03223 16.6666 4.16675 18.5321 4.16675 20.8333V22.9166V41.6666C4.16675 43.9678 6.03223 45.8333 8.33342 45.8333H33.3334C35.6346 45.8333 37.5001 43.9678 37.5001 41.6666L37.5001 33.3333H41.6668C43.9679 33.3333 45.8334 31.4678 45.8334 29.1666V12.5C45.8334 10.1988 43.9679 8.33329 41.6668 8.33329L30.1857 8.33329L28.1961 5.77521C27.4067 4.76026 26.1929 4.16663 24.9071 4.16663H16.6667ZM29.1483 12.5C29.1616 12.5001 29.1748 12.5001 29.1881 12.5H41.6668V29.1666H37.5001V25C37.5001 22.6988 35.6346 20.8333 33.3334 20.8333H21.8523L19.8627 18.2752C19.0924 17.2848 17.9179 16.6955 16.6667 16.6677V12.5H29.1483ZM20.8328 25.0001C20.8269 25 20.821 25 20.815 25H8.33341L8.33342 41.6666L33.3334 41.6666L33.3334 31.2522L33.3334 31.25L33.3334 31.2477V25H20.8547C20.8474 25 20.8401 25.0001 20.8328 25.0001Z" fill="#EE5E5E"/>
<path fill-rule="evenodd" clip-rule="evenodd" d="M25.9874 30.9874C26.6708 30.304 26.6708 29.196 25.9874 28.5126C25.304 27.8291 24.1959 27.8291 23.5125 28.5126L21.25 30.7751L18.9874 28.5126C18.304 27.8291 17.196 27.8291 16.5126 28.5126C15.8291 29.196 15.8291 30.304 16.5126 30.9874L18.7751 33.25L16.5126 35.5125C15.8291 36.1959 15.8291 37.304 16.5126 37.9874C17.196 38.6708 18.304 38.6708 18.9874 37.9874L21.25 35.7248L23.5125 37.9874C24.1959 38.6708 25.304 38.6708 25.9874 37.9874C26.6708 37.304 26.6708 36.1959 25.9874 35.5125L23.7248 33.25L25.9874 30.9874Z" fill="#EE5E5E"/>
</svg>
