<svg width="50" height="50" viewBox="0 0 50 50" fill="none" xmlns="http://www.w3.org/2000/svg">
<path fill-rule="evenodd" clip-rule="evenodd" d="M39.6925 5.3916C38.418 5.3916 37.3849 6.42989 37.3849 7.71067V11.5258C35.6567 10.0948 33.6685 8.98956 31.5144 8.27991C27.8368 7.06833 23.8695 7.07354 20.1951 8.29479C16.5206 9.51604 13.3326 11.889 11.0989 15.0652C8.86525 18.2415 7.70368 22.0538 7.78473 25.9423C7.86578 29.8309 9.18518 33.5909 11.5492 36.6704C13.9133 39.7499 17.1974 41.9866 20.9195 43.0521C24.6416 44.1177 28.6056 43.9559 32.2295 42.5906C35.8534 41.2254 38.9463 38.7285 41.0542 35.4665C41.7483 34.3924 41.4445 32.9561 40.3757 32.2585C39.3068 31.561 37.8777 31.8662 37.1836 32.9404C35.6133 35.3704 33.3092 37.2306 30.6095 38.2477C27.9098 39.2647 24.9567 39.3852 22.1839 38.5914C19.4111 37.7976 16.9645 36.1314 15.2033 33.8373C13.4422 31.5432 12.4593 28.7421 12.3989 25.8452C12.3385 22.9484 13.2039 20.1083 14.8679 17.7421C16.5319 15.3759 18.9069 13.6082 21.6442 12.6984C24.3815 11.7886 27.337 11.7847 30.0767 12.6873C31.782 13.2491 33.3479 14.1437 34.6899 15.3087H29.8244C28.55 15.3087 27.5168 16.347 27.5168 17.6278C27.5168 18.9086 28.55 19.9469 29.8244 19.9469H39.6925C40.9669 19.9469 42.0001 18.9086 42.0001 17.6278V7.71067C42.0001 6.42989 40.9669 5.3916 39.6925 5.3916Z" fill="#EE5E5E"/>
<path fill-rule="evenodd" clip-rule="evenodd" d="M30.5118 22.4882C31.1627 23.139 31.1627 24.1943 30.5118 24.8452L23.8452 31.5118C23.1943 32.1627 22.139 32.1627 21.4882 31.5118C20.8373 30.861 20.8373 29.8057 21.4882 29.1548L28.1548 22.4882C28.8057 21.8373 29.861 21.8373 30.5118 22.4882Z" fill="#EE5E5E"/>
<path fill-rule="evenodd" clip-rule="evenodd" d="M21.4882 22.4882C22.139 21.8373 23.1943 21.8373 23.8452 22.4882L30.5118 29.1548C31.1627 29.8057 31.1627 30.861 30.5118 31.5118C29.861 32.1627 28.8057 32.1627 28.1548 31.5118L21.4882 24.8452C20.8373 24.1943 20.8373 23.139 21.4882 22.4882Z" fill="#EE5E5E"/>
</svg>
