<svg width="50" height="50" viewBox="0 0 50 50" fill="none" xmlns="http://www.w3.org/2000/svg">
<path fill-rule="evenodd" clip-rule="evenodd" d="M41.6667 14.5833L8.33342 14.5833L8.33342 39.5833H41.6668L41.6667 14.5833ZM4.16675 12.5009V12.5V12.4991V10.4167C4.16675 8.11548 6.03223 6.25 8.33341 6.25L41.6667 6.25C43.9679 6.25 45.8334 8.11548 45.8334 10.4167V12.4945L45.8334 12.5L45.8334 12.5055L45.8334 39.5833C45.8334 41.8845 43.9679 43.75 41.6668 43.75L8.33342 43.75C6.03223 43.75 4.16675 41.8845 4.16675 39.5833L4.16675 12.5009ZM30.6397 21.4432C31.4533 22.2568 31.4533 23.5759 30.6397 24.3895L27.9462 27.083L30.6397 29.7765C31.4533 30.5901 31.4533 31.9092 30.6397 32.7227C29.8261 33.5363 28.507 33.5363 27.6935 32.7227L25 30.0293L22.3065 32.7227C21.4929 33.5363 20.1738 33.5363 19.3602 32.7227C18.5466 31.9092 18.5466 30.5901 19.3602 29.7765L22.0537 27.083L19.3602 24.3895C18.5466 23.5759 18.5466 22.2568 19.3602 21.4432C20.1738 20.6296 21.4929 20.6296 22.3065 21.4432L25 24.1367L27.6935 21.4432C28.507 20.6296 29.8261 20.6296 30.6397 21.4432Z" fill="#EE5E5E"/>
</svg>
