<svg width="73" height="81" viewBox="0 0 73 81" fill="none" xmlns="http://www.w3.org/2000/svg">
<g filter="url(#filter0_d_17202_4696)">
<path d="M8.88721 43.5527V12.6183C8.88721 10.0053 11.0054 7.88708 13.6184 7.88708H35.5001H57.3818C59.9948 7.88708 62.113 10.0053 62.113 12.6183V43.5527C62.113 49.6787 58.9527 55.3713 53.7534 58.6109L38.002 68.425C36.4706 69.3792 34.5297 69.3792 32.9982 68.425L17.2469 58.6109C12.0475 55.3713 8.88721 49.6787 8.88721 43.5527Z" fill="#D9FCFF"/>
</g>
<path fill-rule="evenodd" clip-rule="evenodd" d="M35.5 69.1407V7.88708H57.3817C59.9947 7.88708 62.1129 10.0053 62.1129 12.6183V43.5527C62.1129 49.6787 58.9526 55.3713 53.7532 58.6109L38.0019 68.425C37.2362 68.9021 36.3681 69.1407 35.5 69.1407Z" fill="#BDF2F7"/>
<path fill-rule="evenodd" clip-rule="evenodd" d="M13.6183 8.76463C11.4952 8.76463 9.77419 10.4764 9.77419 12.588V43.3557C9.77419 49.1441 12.7765 54.523 17.7159 57.584L33.4672 67.3452C34.7115 68.1163 36.2885 68.1163 37.5328 67.3452L53.2841 57.584C58.2235 54.523 61.2258 49.1441 61.2258 43.3558V12.588C61.2258 10.4764 59.5047 8.76463 57.3817 8.76463H13.6183ZM8 12.588C8 9.50184 10.5154 7 13.6183 7H57.3817C60.4846 7 63 9.50184 63 12.588V43.3558C63 49.7534 59.6817 55.6985 54.2224 59.0817L38.4711 68.8429C36.6524 69.9699 34.3476 69.9699 32.5289 68.8429L16.7777 59.0817C11.3183 55.6985 8 49.7534 8 43.3557V12.588Z" fill="#BDF2F7"/>
<path fill-rule="evenodd" clip-rule="evenodd" d="M46.9172 19.4193C45.8825 19.4193 45.0438 20.258 45.0438 21.2927V24.3746C43.6407 23.2186 42.0266 22.3258 40.2778 21.7525C37.2922 20.7738 34.0714 20.778 31.0883 21.7646C28.1052 22.7511 25.517 24.6681 23.7036 27.2339C21.8902 29.7998 20.9472 32.8795 21.013 36.0208C21.0788 39.1621 22.1499 42.1995 24.0692 44.6872C25.9884 47.1749 28.6546 48.9818 31.6764 49.8425C34.6982 50.7033 37.9164 50.5727 40.8584 49.4697C43.8005 48.3668 46.3114 46.3498 48.0227 43.7147C48.5862 42.8469 48.3396 41.6867 47.4718 41.1232C46.6041 40.5596 45.4438 40.8063 44.8803 41.674C43.6055 43.6371 41.7349 45.1397 39.5432 45.9613C37.3514 46.783 34.954 46.8803 32.7029 46.2391C30.4518 45.5978 28.4655 44.2518 27.0358 42.3985C25.606 40.5453 24.808 38.2825 24.759 35.9423C24.71 33.6021 25.4125 31.3079 26.7634 29.3964C28.1143 27.4849 30.0425 26.0569 32.2648 25.3219C34.4871 24.5869 36.8864 24.5838 39.1107 25.3129C40.4951 25.7668 41.7663 26.4895 42.8559 27.4306H38.9058C37.8712 27.4306 37.0324 28.2694 37.0324 29.304C37.0324 30.3387 37.8712 31.1774 38.9058 31.1774H46.9172C47.9518 31.1774 48.7906 30.3387 48.7906 29.304V21.2927C48.7906 20.258 47.9518 19.4193 46.9172 19.4193Z" fill="#009CB7"/>
<defs>
<filter id="filter0_d_17202_4696" x="0.187207" y="0.187085" width="72.6258" height="80.6536" filterUnits="userSpaceOnUse" color-interpolation-filters="sRGB">
<feFlood flood-opacity="0" result="BackgroundImageFix"/>
<feColorMatrix in="SourceAlpha" type="matrix" values="0 0 0 0 0 0 0 0 0 0 0 0 0 0 0 0 0 0 127 0" result="hardAlpha"/>
<feOffset dx="1" dy="2"/>
<feGaussianBlur stdDeviation="4.85"/>
<feColorMatrix type="matrix" values="0 0 0 0 0 0 0 0 0 0.351917 0 0 0 0 0.429167 0 0 0 0.25 0"/>
<feBlend mode="normal" in2="BackgroundImageFix" result="effect1_dropShadow_17202_4696"/>
<feBlend mode="normal" in="SourceGraphic" in2="effect1_dropShadow_17202_4696" result="shape"/>
</filter>
</defs>
</svg>
