<svg width="75" height="83" viewBox="0 0 75 83" fill="none" xmlns="http://www.w3.org/2000/svg">
<g filter="url(#filter0_d_17202_4705)">
<path d="M9.88672 44.7346V13.6463C9.88672 11.0204 12.0049 8.89163 14.6179 8.89163H36.4996H58.3813C60.9943 8.89163 63.1125 11.0204 63.1125 13.6463V44.7346C63.1125 50.8911 59.9522 56.612 54.7529 59.8677L39.0016 69.7306C37.4701 70.6896 35.5292 70.6896 33.9977 69.7306L18.2464 59.8677C13.047 56.612 9.88672 50.8911 9.88672 44.7346Z" fill="#45B4C8"/>
</g>
<path fill-rule="evenodd" clip-rule="evenodd" d="M36.5 70.4498V8.89163H58.3813C60.9943 8.89163 63.1125 11.0204 63.1125 13.6463V44.7346C63.1125 50.8911 59.9522 56.612 54.7529 59.8677L39.0016 69.7306C38.2359 70.21 37.368 70.4498 36.5 70.4498Z" fill="#22A5BB"/>
<g filter="url(#filter1_d_17202_4705)">
<path fill-rule="evenodd" clip-rule="evenodd" d="M14.6183 9.77341C12.4952 9.77341 10.7742 11.4937 10.7742 13.6158V44.5366C10.7742 50.3537 13.7765 55.7593 18.7159 58.8355L34.4672 68.6453C35.7115 69.4203 37.2885 69.4203 38.5328 68.6453L54.2841 58.8355C59.2235 55.7593 62.2258 50.3537 62.2258 44.5366V13.6158C62.2258 11.4937 60.5047 9.77341 58.3817 9.77341H14.6183ZM9 13.6158C9 10.5143 11.5154 8 14.6183 8H58.3817C61.4846 8 64 10.5143 64 13.6158V44.5366C64 50.966 60.6817 56.9407 55.2224 60.3407L39.4711 70.1505C37.6524 71.2831 35.3476 71.2831 33.5289 70.1505L17.7777 60.3407C12.3183 56.9407 9 50.966 9 44.5366V13.6158Z" fill="#45B4C8"/>
</g>
<path fill-rule="evenodd" clip-rule="evenodd" d="M38.4368 19.2925C38.4338 19.2925 38.4307 19.2924 38.4277 19.2924C38.4246 19.2924 38.4216 19.2925 38.4185 19.2925H27.0389C25.2419 19.2925 23.7852 20.7565 23.7852 22.5624L23.7852 48.7221C23.7852 50.528 25.2419 51.992 27.0389 51.992H46.5616C48.3586 51.992 49.8154 50.528 49.8154 48.7221V30.7791C49.8157 30.7652 49.8159 30.7513 49.8159 30.7373C49.8159 30.7233 49.8157 30.7094 49.8154 30.6955V30.397C49.8154 29.5733 49.506 28.7798 48.9491 28.1754L41.7307 20.3408C41.1149 19.6724 40.2496 19.2925 39.3432 19.2925H38.4368ZM36.8008 22.5624L27.0389 22.5624L27.0389 48.7221H46.5616L46.5616 32.3723L40.0546 32.3723C38.2575 32.3723 36.8008 30.9083 36.8008 29.1023L36.8008 22.5624ZM45.3687 29.1023L40.0546 29.1023V23.3345L45.3687 29.1023ZM41.207 36.1213C40.5716 35.4828 39.5415 35.4828 38.9062 36.1213C38.2709 36.7598 38.2709 37.795 38.9062 38.4335L41.0096 40.5473L38.9062 42.6612C38.2709 43.2997 38.2709 44.3349 38.9062 44.9734C39.5415 45.6119 40.5716 45.6119 41.207 44.9734L44.4607 41.7034C45.0961 41.0649 45.0961 40.0297 44.4607 39.3912L41.207 36.1213ZM34.6971 36.1213C35.3324 36.7598 35.3324 37.795 34.6971 38.4335L32.5937 40.5473L34.6971 42.6612C35.3324 43.2997 35.3324 44.3349 34.6971 44.9734C34.0617 45.6119 33.0316 45.6119 32.3963 44.9734L29.1425 41.7034C28.8374 41.3968 28.666 40.981 28.666 40.5473C28.666 40.1137 28.8374 39.6978 29.1425 39.3912L32.3963 36.1213C33.0316 35.4828 34.0617 35.4828 34.6971 36.1213Z" fill="white"/>
<defs>
<filter id="filter0_d_17202_4705" x="1.18672" y="1.19163" width="72.6258" height="80.9582" filterUnits="userSpaceOnUse" color-interpolation-filters="sRGB">
<feFlood flood-opacity="0" result="BackgroundImageFix"/>
<feColorMatrix in="SourceAlpha" type="matrix" values="0 0 0 0 0 0 0 0 0 0 0 0 0 0 0 0 0 0 127 0" result="hardAlpha"/>
<feOffset dx="1" dy="2"/>
<feGaussianBlur stdDeviation="4.85"/>
<feColorMatrix type="matrix" values="0 0 0 0 0 0 0 0 0 0.351917 0 0 0 0 0.429167 0 0 0 0.25 0"/>
<feBlend mode="normal" in2="BackgroundImageFix" result="effect1_dropShadow_17202_4705"/>
<feBlend mode="normal" in="SourceGraphic" in2="effect1_dropShadow_17202_4705" result="shape"/>
</filter>
<filter id="filter1_d_17202_4705" x="0.3" y="0.3" width="74.4" height="82.3999" filterUnits="userSpaceOnUse" color-interpolation-filters="sRGB">
<feFlood flood-opacity="0" result="BackgroundImageFix"/>
<feColorMatrix in="SourceAlpha" type="matrix" values="0 0 0 0 0 0 0 0 0 0 0 0 0 0 0 0 0 0 127 0" result="hardAlpha"/>
<feOffset dx="1" dy="2"/>
<feGaussianBlur stdDeviation="4.85"/>
<feColorMatrix type="matrix" values="0 0 0 0 0 0 0 0 0 0.351917 0 0 0 0 0.429167 0 0 0 0.25 0"/>
<feBlend mode="normal" in2="BackgroundImageFix" result="effect1_dropShadow_17202_4705"/>
<feBlend mode="normal" in="SourceGraphic" in2="effect1_dropShadow_17202_4705" result="shape"/>
</filter>
</defs>
</svg>
