<svg width="40" height="40" viewBox="0 0 40 40" fill="none" xmlns="http://www.w3.org/2000/svg">
<path fill-rule="evenodd" clip-rule="evenodd" d="M19.2543 5.23527C19.2536 5.23567 19.2529 5.23606 19.2521 5.23646L8.40781 11.0834C8.39141 11.0923 8.3794 11.1027 8.36635 11.1265C8.34979 11.1568 8.33316 11.2086 8.33316 11.2749C8.33316 11.3412 8.34979 11.393 8.36635 11.4233C8.37949 11.4473 8.39122 11.4575 8.40781 11.4664L19.2521 17.3133C19.2529 17.3138 19.2536 17.3142 19.2544 17.3146C19.7289 17.5672 20.2708 17.5672 20.7453 17.3146C20.746 17.3142 20.7468 17.3138 20.7475 17.3133L31.5918 11.4664C31.6083 11.4575 31.6203 11.4471 31.6333 11.4233C31.6499 11.393 31.6665 11.3412 31.6665 11.2749C31.6665 11.2086 31.6499 11.1568 31.6333 11.1265C31.6203 11.1027 31.6086 11.0925 31.5922 11.0836M31.5922 11.0836L20.7475 5.23646C20.7468 5.23606 20.7461 5.23567 20.7453 5.23527C20.2708 4.98256 19.7288 4.98256 19.2543 5.23527M17.6809 2.29668C19.1384 1.51764 20.8612 1.51764 22.3188 2.29668L22.3241 2.29954L33.1741 8.14955C35.6079 9.46252 35.6083 13.0871 33.1745 14.4001L22.3188 20.2531C20.8612 21.0322 19.1384 21.0322 17.6809 20.2531L17.6755 20.2503L6.82552 14.4003C4.39172 13.0873 4.39138 9.46271 6.82518 8.14974L17.6809 2.29668Z" fill="#EE5E5E"/>
<path fill-rule="evenodd" clip-rule="evenodd" d="M5.27135 18.3738C5.1322 18.3045 5.00033 18.4047 5.00033 18.5333V28.0666C5.00033 28.8276 5.4372 29.5406 6.13399 29.895C6.13497 29.8955 6.13595 29.896 6.13693 29.8965L16.2123 34.9426C16.2126 34.9427 16.2121 34.9424 16.2123 34.9426C16.3513 35.0115 16.4837 34.9117 16.4837 34.7833V25.2499C16.4837 24.4889 16.0468 23.7759 15.35 23.4215L5.27135 18.3738C5.27144 18.3739 5.27125 18.3738 5.27135 18.3738ZM1.66699 18.5333C1.66699 15.8952 4.43493 14.2288 6.76235 15.3926L16.8536 20.4465C18.6551 21.3593 19.817 23.212 19.817 25.2499V34.7833C19.817 37.4213 17.0491 39.0877 14.7216 37.924L4.63732 32.8735L4.63038 32.87C2.82889 31.9572 1.66699 30.1045 1.66699 28.0666V18.5333Z" fill="#EE5E5E"/>
<path fill-rule="evenodd" clip-rule="evenodd" d="M33.2382 15.3926C35.5657 14.2288 38.3336 15.8952 38.3336 18.5333V28.0666C38.3336 30.1045 37.1717 31.9572 35.3702 32.87L35.3633 32.8735L25.2799 37.9235C22.9525 39.0872 20.1836 37.4213 20.1836 34.7833V25.2499C20.1836 23.212 21.3455 21.3593 23.147 20.4465L23.1539 20.443L33.2382 15.3926ZM34.729 18.374C34.7289 18.374 34.729 18.374 34.729 18.374L24.6506 23.4215C23.9538 23.7759 23.5169 24.4889 23.5169 25.2499V34.7833C23.5169 34.9117 23.6486 35.0119 23.7876 34.9429C23.7878 34.9428 23.7874 34.943 23.7876 34.9429L33.8637 29.8965C33.8646 29.896 33.8656 29.8956 33.8665 29.8951C34.5634 29.5407 35.0003 28.8277 35.0003 28.0666V18.5333C35.0003 18.4047 34.8682 18.3045 34.729 18.374Z" fill="#EE5E5E"/>
</svg>
