<svg width="28" height="28" viewBox="0 0 28 28" fill="none" xmlns="http://www.w3.org/2000/svg">
<path fill-rule="evenodd" clip-rule="evenodd" d="M17.026 2.21758C15.9697 1.47817 14.6494 1.15938 13.3911 1.18888C12.1329 1.21838 10.827 1.59943 9.80657 2.39308L3.51886 7.2926C2.81705 7.83852 2.2418 8.6359 1.84335 9.448C1.4451 10.2597 1.16699 11.2012 1.16699 12.0867V20.7317C1.16699 24.0791 3.89073 26.8217 7.24533 26.8217H20.7553C24.1081 26.8217 26.8337 24.0809 26.8337 20.7434V12.25C26.8337 11.3074 26.5262 10.3166 26.0844 9.47015C25.6428 8.62423 25.0065 7.80662 24.2353 7.26872L24.2341 7.26789L17.026 2.21758ZM4.95242 9.13362L11.2399 4.23426C11.7945 3.80311 12.5897 3.54165 13.4458 3.52157C14.3019 3.5015 15.1109 3.72538 15.688 4.12912L22.8975 9.1805L22.8999 9.18215C23.2831 9.44926 23.6964 9.93791 24.0159 10.5499C24.3353 11.1618 24.5003 11.7809 24.5003 12.25V20.7434C24.5003 22.7958 22.8159 24.4883 20.7553 24.4883H7.24533C5.18659 24.4883 3.50033 22.7976 3.50033 20.7317V12.0867C3.50033 11.6538 3.64806 11.067 3.93813 10.4758C4.22798 9.88505 4.60432 9.40436 4.95242 9.13362ZM7.92537 12.5915C8.38098 12.1359 9.11967 12.1359 9.57528 12.5915L12.3023 15.3186L13.3796 13.7027C13.5735 13.4119 13.8875 13.2233 14.2354 13.1888C14.5832 13.1544 14.9281 13.2777 15.1753 13.5249L18.1575 16.5071C18.3233 16.0647 18.75 15.7498 19.2503 15.7498C19.8947 15.7498 20.417 16.2722 20.417 16.9165V19.2498C20.417 19.8942 19.8947 20.4165 19.2503 20.4165H16.917C16.2727 20.4165 15.7503 19.8942 15.7503 19.2498C15.7503 18.7496 16.0652 18.3228 16.5076 18.157L14.5317 16.1811L13.4544 17.797C13.2605 18.0878 12.9464 18.2764 12.5986 18.3108C12.2508 18.3453 11.9059 18.2219 11.6587 17.9748L7.92537 14.2415C7.46976 13.7858 7.46976 13.0472 7.92537 12.5915Z" fill="#EE5E5E"/>
</svg>
