<svg width="28" height="28" viewBox="0 0 28 28" fill="none" xmlns="http://www.w3.org/2000/svg">
<path fill-rule="evenodd" clip-rule="evenodd" d="M1.33343 3.9499C1.66493 3.39739 2.38157 3.21823 2.93408 3.54974L5.84883 5.29859C7.27683 6.15122 9.05766 6.15159 10.4855 5.29859C12.6507 4.00511 15.3503 4.00511 17.5155 5.29859C18.9434 6.1516 20.7233 6.15177 22.1513 5.2991L25.0669 3.54974C25.6194 3.21823 26.3361 3.39739 26.6676 3.9499C26.9991 4.50241 26.8199 5.21905 26.2674 5.55055L23.3488 7.3017C21.1837 8.59518 18.484 8.59518 16.3188 7.3017C14.8907 6.44851 13.1103 6.44851 11.6822 7.3017C9.51699 8.59518 6.81735 8.59518 4.65217 7.3017L4.65026 7.30055L1.73359 5.55055C1.18108 5.21905 1.00192 4.50241 1.33343 3.9499ZM5.84883 14.5352L2.93408 16.284C2.38157 16.6155 1.66493 16.4364 1.33343 15.8838C1.00192 15.3313 1.18108 14.6147 1.73359 14.2832L4.65217 12.532C6.81735 11.2386 9.51699 11.2386 11.6822 12.532C13.1103 13.3852 14.8907 13.3852 16.3188 12.532C18.484 11.2386 21.1837 11.2386 23.3488 12.532L23.3507 12.5332L26.2674 14.2832C26.8199 14.6147 26.9991 15.3313 26.6676 15.8838C26.3361 16.4364 25.6194 16.6155 25.0669 16.284L22.1522 14.5352C20.7242 13.6825 18.9434 13.6821 17.5155 14.5352C15.3503 15.8286 12.6507 15.8286 10.4855 14.5352C9.05766 13.6822 7.27683 13.6825 5.84883 14.5352ZM2.93408 24.4507L5.84883 22.7018C7.27683 21.8492 9.05766 21.8488 10.4855 22.7018C12.6507 23.9953 15.3503 23.9953 17.5155 22.7018C18.9434 21.8488 20.7242 21.8491 22.1522 22.7018L25.0669 24.4507C25.6194 24.7822 26.3361 24.603 26.6676 24.0505C26.9991 23.498 26.8199 22.7814 26.2674 22.4499L23.3507 20.6999L23.3488 20.6987C21.1837 19.4052 18.484 19.4052 16.3188 20.6987C14.8907 21.5519 13.1103 21.5519 11.6822 20.6987C9.51699 19.4052 6.81735 19.4052 4.65217 20.6987L1.73359 22.4499C1.18108 22.7814 1.00192 23.498 1.33343 24.0505C1.66493 24.603 2.38157 24.7822 2.93408 24.4507Z" fill="#EE5E5E"/>
</svg>
