<svg width="78" height="87" viewBox="0 0 78 87" fill="none" xmlns="http://www.w3.org/2000/svg">
<g filter="url(#filter0_d_17658_4470)">
<path d="M8.96875 46.865V13.1207C8.96875 10.2703 11.2795 7.95972 14.13 7.95972H38.001H61.872C64.7225 7.95972 67.0333 10.2704 67.0333 13.1207V46.865C67.0333 53.5475 63.5857 59.7572 57.9136 63.291L40.7304 73.9966C39.0597 75.0375 36.9423 75.0375 35.2716 73.9966L18.0884 63.291C12.4164 59.7572 8.96875 53.5475 8.96875 46.865Z" fill="#0B47A2"/>
</g>
<path fill-rule="evenodd" clip-rule="evenodd" d="M38.002 74.777V7.95947H61.8722C64.7227 7.95947 67.0335 10.2701 67.0335 13.1204V46.8648C67.0335 53.5472 63.5859 59.7569 57.9138 63.2908L40.7306 73.9963C39.8954 74.5166 38.9487 74.7769 38.002 74.777Z" fill="#013685"/>
<path fill-rule="evenodd" clip-rule="evenodd" d="M14.131 8.91687C11.815 8.91687 9.93744 10.7841 9.93744 13.0875V46.6501C9.93744 52.9642 13.2127 58.8317 18.6011 62.1707L35.7843 72.8186C37.1418 73.6598 38.8621 73.6598 40.2196 72.8186L57.4028 62.1707C62.7913 58.8316 66.0665 52.9642 66.0665 46.6501V13.0875C66.0665 10.7841 64.1889 8.91687 61.8729 8.91687H14.131ZM8.00195 13.0875C8.00195 9.72104 10.746 6.99194 14.131 6.99194H61.8729C65.2579 6.99194 68.002 9.72104 68.002 13.0875V46.6501C68.002 53.6289 64.382 60.1139 58.4263 63.8044L41.2431 74.4523C39.2591 75.6817 36.7448 75.6817 34.7608 74.4523L17.5776 63.8045C11.6219 60.1139 8.00195 53.6289 8.00195 46.6501V13.0875Z" fill="#0B47A2"/>
<path fill-rule="evenodd" clip-rule="evenodd" d="M24.5163 37.3292C24.5163 30.6714 29.3579 25.1443 35.7126 24.0763L38.432 26.8549L34.8949 30.4689C32.2726 31.6407 30.4453 34.2715 30.4453 37.3291C30.4453 40.9905 33.0656 44.04 36.5334 44.7048L34.7662 46.5105C34.2774 47.0099 34.2774 47.8083 34.7662 48.3077L37.1514 50.7448C30.1034 50.3284 24.5163 44.4812 24.5163 37.3292ZM40.5292 50.5226C46.7214 49.3223 51.3968 43.8717 51.3968 37.3292C51.3968 30.3189 46.029 24.5623 39.1791 23.9447L41.1478 25.9563C41.6366 26.4556 41.6366 27.2541 41.1478 27.7535L39.0491 29.8979C42.6791 30.4271 45.4668 33.5526 45.4668 37.3291C45.4668 40.6241 43.3446 43.4235 40.3925 44.4353L37.482 47.4091L40.5292 50.5226ZM37.9565 20.53C28.678 20.53 21.1562 28.0513 21.1562 37.3292C21.1562 46.6071 28.678 54.1283 37.9565 54.1283C47.2351 54.1283 54.7568 46.6071 54.7568 37.3292C54.7568 28.0513 47.2351 20.53 37.9565 20.53ZM33.8054 37.3291C33.8054 35.0369 35.6637 33.1787 37.956 33.1787C40.2484 33.1787 42.1067 35.0369 42.1067 37.3291C42.1067 39.6213 40.2484 41.4795 37.956 41.4795C35.6637 41.4795 33.8054 39.6213 33.8054 37.3291Z" fill="white"/>
<defs>
<filter id="filter0_d_17658_4470" x="0.26875" y="0.259717" width="77.4645" height="86.2176" filterUnits="userSpaceOnUse" color-interpolation-filters="sRGB">
<feFlood flood-opacity="0" result="BackgroundImageFix"/>
<feColorMatrix in="SourceAlpha" type="matrix" values="0 0 0 0 0 0 0 0 0 0 0 0 0 0 0 0 0 0 127 0" result="hardAlpha"/>
<feOffset dx="1" dy="2"/>
<feGaussianBlur stdDeviation="4.85"/>
<feColorMatrix type="matrix" values="0 0 0 0 0 0 0 0 0 0.351917 0 0 0 0 0.429167 0 0 0 0.25 0"/>
<feBlend mode="normal" in2="BackgroundImageFix" result="effect1_dropShadow_17658_4470"/>
<feBlend mode="normal" in="SourceGraphic" in2="effect1_dropShadow_17658_4470" result="shape"/>
</filter>
</defs>
</svg>
