<svg width="28" height="28" viewBox="0 0 28 28" fill="none" xmlns="http://www.w3.org/2000/svg">
<path fill-rule="evenodd" clip-rule="evenodd" d="M14.2656 4.27813C14.72 3.82374 15.4629 3.82374 15.9173 4.27813L20.864 9.22482C21.3184 9.67921 21.3184 10.4222 20.864 10.8766L16.7699 14.9706C16.7615 14.9786 16.7531 14.9867 16.7449 14.9949C16.74 14.9998 16.7352 15.0047 16.7304 15.0097C16.7271 15.0131 16.7238 15.0165 16.7206 15.02L15.9019 15.8386L9.30351 9.24018L14.2656 4.27813ZM6.80154 8.44233L4.36731 10.8766C3.0017 12.2422 3.0017 14.4625 4.36731 15.8281L9.31398 20.7748C10.6796 22.1404 12.9 22.1404 14.2656 20.7748L17.5702 17.4702L22.5199 22.4199C22.9755 22.8755 23.7142 22.8755 24.1698 22.4199C24.6254 21.9643 24.6254 21.2256 24.1698 20.77L19.2201 15.8203L22.5139 12.5265C23.8795 11.1609 23.8795 8.94052 22.5139 7.57491L17.5672 2.62821C16.2016 1.2626 13.9813 1.2626 12.6156 2.62821L6.85574 8.38812C6.84645 8.39683 6.83727 8.40572 6.8282 8.41479C6.81913 8.42386 6.81024 8.43304 6.80154 8.44233ZM7.6536 10.8901L14.252 17.4885L12.6156 19.1249C12.1613 19.5793 11.4183 19.5793 10.9639 19.1249L6.01722 14.1782C5.56283 13.7238 5.56283 12.9809 6.01722 12.5265L7.6536 10.8901ZM1.16699 24.4998C1.16699 23.8555 1.68933 23.3332 2.33366 23.3332H17.5003C18.1447 23.3332 18.667 23.8555 18.667 24.4998C18.667 25.1442 18.1447 25.6665 17.5003 25.6665H2.33366C1.68933 25.6665 1.16699 25.1442 1.16699 24.4998Z" fill="#EE5E5E"/>
</svg>
