<svg width="458" height="310" viewBox="0 0 458 310" fill="none" xmlns="http://www.w3.org/2000/svg">
<path d="M185 200V242C185 250.284 191.716 257 200 257H326" stroke="#5183BB" stroke-width="1.5" stroke-dasharray="3 3"/>
<g filter="url(#filter0_d)">
<rect x="64" y="33" width="235" height="181" rx="30" fill="#F7FBFD"/>
</g>
<path d="M140.334 89.5916H127V84.7336H158.964V89.5918H145.63V127.211H140.334V89.5916Z" fill="#004E82"/>
<path d="M195.476 80.5606L200.46 80V127.211H195.476V80.5606Z" fill="#004E82"/>
<path fill-rule="evenodd" clip-rule="evenodd" d="M224.729 127.024C226.37 126.36 227.792 125.591 228.997 124.719H228.997V141.473L233.92 140.85V97.0028C232.964 97.0028 232.154 96.9094 231.49 96.7225C230.825 96.5359 230.119 96.3392 229.371 96.1309C228.623 95.9238 227.751 95.7261 226.754 95.5393C225.757 95.3524 224.469 95.259 222.891 95.259C221.187 95.259 219.433 95.5919 217.626 96.2556C215.819 96.9203 214.178 97.9275 212.704 99.2762C211.229 100.626 210.025 102.339 209.09 104.415C208.155 106.492 207.688 108.941 207.688 111.764C207.688 114.754 208.02 117.276 208.685 119.331C209.349 121.387 210.252 123.059 211.395 124.345C212.537 125.633 213.866 126.567 215.383 127.148C216.899 127.729 218.508 128.02 220.212 128.02C221.583 128.02 223.088 127.687 224.729 127.024ZM223.577 123.162C222.62 123.495 221.686 123.66 220.772 123.66C219.443 123.66 218.301 123.308 217.346 122.602C216.39 121.896 215.58 120.962 214.916 119.799C214.251 118.637 213.763 117.329 213.451 115.875C213.14 114.422 212.984 112.969 212.984 111.515C212.984 109.896 213.171 108.37 213.545 106.937C213.919 105.505 214.511 104.239 215.321 103.138C216.131 102.039 217.159 101.176 218.405 100.553C219.651 99.9306 221.147 99.6192 222.891 99.6192C224.013 99.6192 224.968 99.6718 225.757 99.7748C226.546 99.879 227.169 99.9724 227.626 100.055C228.166 100.221 228.623 100.367 228.997 100.491V120.359C228.083 120.982 227.19 121.522 226.318 121.979C225.446 122.436 224.532 122.83 223.577 123.162Z" fill="#004E82"/>
<mask id="mask0" mask-type="alpha" maskUnits="userSpaceOnUse" x="155" y="93" width="35" height="34">
<ellipse cx="172.288" cy="110.173" rx="16.9587" ry="16.8147" fill="white"/>
</mask>
<g mask="url(#mask0)">
<path d="M183.005 93.2048H189.342V127.592H183.005V93.2048Z" fill="#B6CA94"/>
<path d="M178.781 93.2048H183.04V127.583H178.781V93.2048Z" fill="#8CAB62"/>
<path d="M174.558 93.2048H178.817V127.592H174.558V93.2048Z" fill="#A1BC78"/>
<path d="M171.951 93.2048H174.591V127.592H171.951V93.2048Z" fill="#D9E5C5"/>
<path d="M164.84 93.2048H172.021V127.592H164.84V93.2048Z" fill="#B6CEB8"/>
<path d="M160.735 93.2048H164.995V127.592H160.735V93.2048Z" fill="#B9CFE4"/>
<path d="M158.222 93.2048H160.757V127.583H158.222V93.2048Z" fill="#5183BB"/>
<path d="M155.278 93.2048H158.235V127.583H155.278V93.2048Z" fill="#2C66AB"/>
</g>
<path d="M147.176 172C146.904 171.28 146.648 170.576 146.408 169.888C146.168 169.184 145.92 168.472 145.664 167.752H138.128L136.616 172H134.192C134.832 170.24 135.432 168.616 135.992 167.128C136.552 165.624 137.096 164.2 137.624 162.856C138.168 161.512 138.704 160.232 139.232 159.016C139.76 157.784 140.312 156.568 140.888 155.368H143.024C143.6 156.568 144.152 157.784 144.68 159.016C145.208 160.232 145.736 161.512 146.264 162.856C146.808 164.2 147.36 165.624 147.92 167.128C148.48 168.616 149.08 170.24 149.72 172H147.176ZM144.992 165.832C144.48 164.44 143.968 163.096 143.456 161.8C142.96 160.488 142.44 159.232 141.896 158.032C141.336 159.232 140.8 160.488 140.288 161.8C139.792 163.096 139.296 164.44 138.8 165.832H144.992ZM155.894 155.2C158.23 155.2 160.022 155.648 161.27 156.544C162.534 157.424 163.166 158.744 163.166 160.504C163.166 161.464 162.99 162.288 162.638 162.976C162.302 163.648 161.806 164.2 161.15 164.632C160.51 165.048 159.726 165.352 158.798 165.544C157.87 165.736 156.822 165.832 155.654 165.832H153.806V172H151.478V155.608C152.134 155.448 152.862 155.344 153.662 155.296C154.478 155.232 155.222 155.2 155.894 155.2ZM156.086 157.24C155.094 157.24 154.334 157.264 153.806 157.312V163.84H155.558C156.358 163.84 157.078 163.792 157.718 163.696C158.358 163.584 158.894 163.408 159.326 163.168C159.774 162.912 160.118 162.568 160.358 162.136C160.598 161.704 160.718 161.152 160.718 160.48C160.718 159.84 160.59 159.312 160.334 158.896C160.094 158.48 159.758 158.152 159.326 157.912C158.91 157.656 158.422 157.48 157.862 157.384C157.302 157.288 156.71 157.24 156.086 157.24ZM165.58 155.368H167.908V172H165.58V155.368Z" fill="#004E82"/>
<path d="M415 118H437C445.284 118 452 124.716 452 133V181" stroke="#5183BB" stroke-width="1.5" stroke-dasharray="3 3"/>
<ellipse cx="416.5" cy="118" rx="6.5" ry="7" fill="#B0E7C6"/>
<circle cx="451" cy="179" r="7" fill="#BADBFF"/>
<g filter="url(#filter1_d)">
<rect width="24" height="23.2258" rx="11.6129" transform="matrix(-1 0 0 1 253 21)" fill="url(#paint0_linear)"/>
</g>
<rect width="118" height="118" rx="30" transform="matrix(-1 0 0 1 444 192)" fill="url(#paint1_linear)"/>
<rect width="63" height="63" rx="15" transform="matrix(-1 0 0 1 389 79)" fill="url(#paint2_linear)"/>
<path fill-rule="evenodd" clip-rule="evenodd" d="M401.477 230.629H409.447C410.306 230.629 411 231.323 411 232.182V266.342C411 268.91 408.91 271 406.342 271H396.986C397.971 269.698 398.578 268.096 398.578 266.342V244.604C398.578 242.035 396.489 239.945 393.92 239.945H373.32V232.182C373.32 231.323 374.015 230.629 374.873 230.629H382.844V227.316C382.844 222.179 387.023 218 392.16 218C397.298 218 401.477 222.179 401.477 227.316V230.629ZM385.949 227.316V230.629H398.371V227.316C398.371 223.891 395.586 221.105 392.16 221.105C388.735 221.105 385.949 223.891 385.949 227.316ZM359.553 243.051H393.92C394.778 243.051 395.473 243.745 395.473 244.604V266.342C395.473 268.91 393.383 271 390.814 271H362.658C360.09 271 358 268.91 358 266.342V244.604C358 243.745 358.694 243.051 359.553 243.051ZM376.633 261.684C381.77 261.684 385.949 257.505 385.949 252.367V250.814C385.949 249.956 385.255 249.262 384.396 249.262C383.538 249.262 382.844 249.956 382.844 250.814V252.367C382.844 255.793 380.058 258.578 376.633 258.578C373.207 258.578 370.422 255.793 370.422 252.367V250.814C370.422 249.956 369.727 249.262 368.869 249.262C368.011 249.262 367.316 249.956 367.316 250.814V252.367C367.316 257.505 371.495 261.684 376.633 261.684Z" fill="white"/>
<path d="M367.754 99H346.246C343.905 99 342 100.905 342 103.246V116.703C342 119.044 343.905 120.949 346.246 120.949H367.754C370.095 120.949 372 119.044 372 116.703V103.246C372 100.905 370.095 99 367.754 99ZM352.887 105.755L348.421 110.222L352.393 114.194C352.736 114.537 352.736 115.094 352.393 115.437C352.05 115.78 351.493 115.78 351.15 115.437L346.556 110.843C346.213 110.5 346.213 109.944 346.556 109.6L351.644 104.513C351.987 104.169 352.544 104.169 352.887 104.513C353.23 104.855 353.23 105.412 352.887 105.755ZM360.137 103.688L355.489 116.847C355.328 117.305 354.826 117.545 354.368 117.383C353.91 117.221 353.67 116.719 353.832 116.262L358.479 103.102C358.641 102.645 359.143 102.404 359.601 102.566C360.059 102.728 360.299 103.23 360.137 103.688ZM367.444 110.349L362.356 115.437C362.013 115.78 361.456 115.78 361.113 115.437C360.77 115.094 360.77 114.537 361.113 114.194L365.579 109.727L361.607 105.755C361.264 105.412 361.264 104.855 361.607 104.513C361.95 104.169 362.507 104.169 362.85 104.513L367.444 109.106C367.787 109.45 367.787 110.006 367.444 110.349Z" fill="white"/>
<g filter="url(#filter2_d)">
<rect width="61" height="61" rx="20" transform="matrix(-1 0 0 1 94 81)" fill="url(#paint3_linear)"/>
</g>
<path d="M77.3431 115.344L74.6972 113.275C74.7308 112.956 74.7595 112.583 74.7595 112.189C74.7595 111.794 74.7319 111.421 74.6972 111.102L77.3455 109.032C77.8373 108.643 77.9716 107.954 77.6585 107.379L74.9071 102.619C74.6132 102.081 73.9691 101.805 73.3155 102.046L70.1934 103.3C69.5949 102.868 68.9675 102.503 68.3187 102.212L67.8437 98.9004C67.7657 98.2718 67.2188 97.7969 66.5723 97.7969H61.055C60.4085 97.7969 59.8628 98.2718 59.786 98.8907L59.3099 102.214C58.6814 102.497 58.0637 102.857 57.4388 103.302L54.3083 102.045C53.7218 101.819 53.0201 102.073 52.7286 102.608L49.9736 107.374C49.6486 107.924 49.7829 108.637 50.2855 109.035L52.9314 111.104C52.8894 111.509 52.869 111.86 52.869 112.19C52.869 112.52 52.8894 112.871 52.9314 113.277L50.2831 115.347C49.7913 115.737 49.6582 116.426 49.9712 117L52.7227 121.76C53.0166 122.296 53.6546 122.574 54.3143 122.332L57.4364 121.079C58.0337 121.509 58.661 121.874 59.3099 122.167L59.7849 125.477C59.8628 126.108 60.4085 126.583 61.0562 126.583H66.5735C67.22 126.583 67.767 126.108 67.8437 125.489L68.3199 122.167C68.9484 121.882 69.5649 121.524 70.1909 121.078L73.3214 122.335C73.4725 122.393 73.6297 122.423 73.7916 122.423C74.257 122.423 74.6852 122.169 74.9011 121.773L77.6645 116.988C77.9716 116.426 77.8372 115.737 77.3431 115.344ZM63.8137 116.988C61.1678 116.988 59.016 114.836 59.016 112.19C59.016 109.544 61.1678 107.392 63.8137 107.392C66.4596 107.392 68.6113 109.544 68.6113 112.19C68.6113 114.836 66.4596 116.988 63.8137 116.988Z" fill="white"/>
<defs>
<filter id="filter0_d" x="42" y="16" width="305" height="251" filterUnits="userSpaceOnUse" color-interpolation-filters="sRGB">
<feFlood flood-opacity="0" result="BackgroundImageFix"/>
<feColorMatrix in="SourceAlpha" type="matrix" values="0 0 0 0 0 0 0 0 0 0 0 0 0 0 0 0 0 0 127 0" result="hardAlpha"/>
<feOffset dx="13" dy="18"/>
<feGaussianBlur stdDeviation="17.5"/>
<feColorMatrix type="matrix" values="0 0 0 0 0 0 0 0 0 0.351917 0 0 0 0 0.429167 0 0 0 0.15 0"/>
<feBlend mode="normal" in2="BackgroundImageFix" result="effect1_dropShadow"/>
<feBlend mode="normal" in="SourceGraphic" in2="effect1_dropShadow" result="shape"/>
</filter>
<filter id="filter1_d" x="199" y="0" width="84" height="83.2258" filterUnits="userSpaceOnUse" color-interpolation-filters="sRGB">
<feFlood flood-opacity="0" result="BackgroundImageFix"/>
<feColorMatrix in="SourceAlpha" type="matrix" values="0 0 0 0 0 0 0 0 0 0 0 0 0 0 0 0 0 0 127 0" result="hardAlpha"/>
<feOffset dy="9"/>
<feGaussianBlur stdDeviation="15"/>
<feColorMatrix type="matrix" values="0 0 0 0 0.593438 0 0 0 0 0.707729 0 0 0 0 0.879167 0 0 0 0.25 0"/>
<feBlend mode="normal" in2="BackgroundImageFix" result="effect1_dropShadow"/>
<feBlend mode="normal" in="SourceGraphic" in2="effect1_dropShadow" result="shape"/>
</filter>
<filter id="filter2_d" x="0" y="54" width="131" height="131" filterUnits="userSpaceOnUse" color-interpolation-filters="sRGB">
<feFlood flood-opacity="0" result="BackgroundImageFix"/>
<feColorMatrix in="SourceAlpha" type="matrix" values="0 0 0 0 0 0 0 0 0 0 0 0 0 0 0 0 0 0 127 0" result="hardAlpha"/>
<feOffset dx="2" dy="8"/>
<feGaussianBlur stdDeviation="17.5"/>
<feColorMatrix type="matrix" values="0 0 0 0 0 0 0 0 0 0.351917 0 0 0 0 0.429167 0 0 0 0.15 0"/>
<feBlend mode="normal" in2="BackgroundImageFix" result="effect1_dropShadow"/>
<feBlend mode="normal" in="SourceGraphic" in2="effect1_dropShadow" result="shape"/>
</filter>
<linearGradient id="paint0_linear" x1="12" y1="0" x2="12" y2="23.2258" gradientUnits="userSpaceOnUse">
<stop stop-color="#B0E7C6"/>
<stop offset="1" stop-color="#5DD1B3"/>
</linearGradient>
<linearGradient id="paint1_linear" x1="59" y1="0" x2="59" y2="118" gradientUnits="userSpaceOnUse">
<stop stop-color="#B0E7C6"/>
<stop offset="1" stop-color="#5DD1B3"/>
</linearGradient>
<linearGradient id="paint2_linear" x1="31.5" y1="0" x2="31.5" y2="63" gradientUnits="userSpaceOnUse">
<stop stop-color="#85BEFF"/>
<stop offset="1" stop-color="#5183BB"/>
</linearGradient>
<linearGradient id="paint3_linear" x1="30.5" y1="14.9044" x2="30.5" y2="61" gradientUnits="userSpaceOnUse">
<stop stop-color="#FFED49"/>
<stop offset="1" stop-color="#FFC369"/>
</linearGradient>
</defs>
</svg>
