<svg fill="none" height="249" viewBox="0 0 365 249" width="365" xmlns="http://www.w3.org/2000/svg" xmlns:xlink="http://www.w3.org/1999/xlink"><filter id="a" color-interpolation-filters="sRGB" filterUnits="userSpaceOnUse" height="220.246" width="219.158" x="30" y="28"><feFlood flood-opacity="0" result="BackgroundImageFix"/><feColorMatrix in="SourceAlpha" result="hardAlpha" type="matrix" values="0 0 0 0 0 0 0 0 0 0 0 0 0 0 0 0 0 0 127 0"/><feOffset dx="13" dy="25"/><feGaussianBlur stdDeviation="17.5"/><feColorMatrix type="matrix" values="0 0 0 0 0 0 0 0 0 0.351917 0 0 0 0 0.429167 0 0 0 0.15 0"/><feBlend in2="BackgroundImageFix" mode="normal" result="effect1_dropShadow"/><feBlend in="SourceGraphic" in2="effect1_dropShadow" mode="normal" result="shape"/></filter><linearGradient id="b"><stop offset="0" stop-color="#b0e7c6"/><stop offset="1" stop-color="#5dd1b3"/></linearGradient><linearGradient id="c" gradientUnits="userSpaceOnUse" x1="16" x2="16" xlink:href="#b" y1="0" y2="42"/><linearGradient id="d"><stop offset="0" stop-color="#85beff"/><stop offset="1" stop-color="#5183bb"/></linearGradient><linearGradient id="e" gradientUnits="userSpaceOnUse" x1="16" x2="16" xlink:href="#d" y1="92" y2="134"/><linearGradient id="f"><stop offset="0" stop-color="#badbff"/><stop offset="1" stop-color="#89bcf4"/></linearGradient><linearGradient id="g" gradientUnits="userSpaceOnUse" x1="16" x2="16" xlink:href="#f" y1="184" y2="226"/><linearGradient id="h" gradientUnits="userSpaceOnUse" x1="127" x2="127" xlink:href="#d" y1="0" y2="42"/><linearGradient id="i" gradientUnits="userSpaceOnUse" x1="127" x2="127" xlink:href="#b" y1="92" y2="134"/><linearGradient id="j"><stop offset="0" stop-color="#ffed49"/><stop offset="1" stop-color="#ffc369"/></linearGradient><linearGradient id="k" gradientUnits="userSpaceOnUse" x1="127" x2="127" xlink:href="#j" y1="194.262" y2="226"/><linearGradient id="l" gradientUnits="userSpaceOnUse" x1="238" x2="238" xlink:href="#b" y1="0" y2="42"/><linearGradient id="m" gradientUnits="userSpaceOnUse" x1="238" x2="238" xlink:href="#d" y1="92" y2="134"/><linearGradient id="n" gradientUnits="userSpaceOnUse" x1="238" x2="238" xlink:href="#b" y1="184" y2="226"/><linearGradient id="o" gradientUnits="userSpaceOnUse" x1="349" x2="349" xlink:href="#d" y1="0" y2="42"/><linearGradient id="p" gradientUnits="userSpaceOnUse" x1="349" x2="349" xlink:href="#j" y1="102.262" y2="134"/><linearGradient id="q" gradientUnits="userSpaceOnUse" x1="349" x2="349" xlink:href="#f" y1="184" y2="226"/><linearGradient id="r" gradientUnits="userSpaceOnUse" x1="127.381" x2="127.381" xlink:href="#b" y1="78" y2="147.25"/><path d="m2.66667 0c-1.46667 0-2.66667 1.18125-2.66667 2.625v36.75c0 1.4437 1.2 2.625 2.66667 2.625h26.66663c1.4667 0 2.6667-1.1813 2.6667-2.625v-29.295l-10.0138-10.08z" fill="url(#c)"/><path d="m2.66667 92c-1.46667 0-2.66667 1.1812-2.66667 2.625v36.75c0 1.444 1.2 2.625 2.66667 2.625h26.66663c1.4667 0 2.6667-1.181 2.6667-2.625v-29.295l-10.0138-10.08z" fill="url(#e)"/><path d="m2.66667 184c-1.46667 0-2.66667 1.181-2.66667 2.625v36.75c0 1.444 1.2 2.625 2.66667 2.625h26.66663c1.4667 0 2.6667-1.181 2.6667-2.625v-29.295l-10.0138-10.08z" fill="url(#g)"/><path d="m113.667 0c-1.467 0-2.667 1.18125-2.667 2.625v36.75c0 1.4437 1.2 2.625 2.667 2.625h26.666c1.467 0 2.667-1.1813 2.667-2.625v-29.295l-10.014-10.08z" fill="url(#h)"/><path d="m113.667 92c-1.467 0-2.667 1.1812-2.667 2.625v36.75c0 1.444 1.2 2.625 2.667 2.625h26.666c1.467 0 2.667-1.181 2.667-2.625v-29.295l-10.014-10.08z" fill="url(#i)"/><path d="m113.667 184c-1.467 0-2.667 1.181-2.667 2.625v36.75c0 1.444 1.2 2.625 2.667 2.625h26.666c1.467 0 2.667-1.181 2.667-2.625v-29.295l-10.014-10.08z" fill="url(#k)"/><path d="m224.667 0c-1.467 0-2.667 1.18125-2.667 2.625v36.75c0 1.4437 1.2 2.625 2.667 2.625h26.666c1.467 0 2.667-1.1813 2.667-2.625v-29.295l-10.014-10.08z" fill="url(#l)"/><path d="m224.667 92c-1.467 0-2.667 1.1812-2.667 2.625v36.75c0 1.444 1.2 2.625 2.667 2.625h26.666c1.467 0 2.667-1.181 2.667-2.625v-29.295l-10.014-10.08z" fill="url(#m)"/><path d="m224.667 184c-1.467 0-2.667 1.181-2.667 2.625v36.75c0 1.444 1.2 2.625 2.667 2.625h26.666c1.467 0 2.667-1.181 2.667-2.625v-29.295l-10.014-10.08z" fill="url(#n)"/><path d="m335.667 0c-1.467 0-2.667 1.18125-2.667 2.625v36.75c0 1.4437 1.2 2.625 2.667 2.625h26.666c1.467 0 2.667-1.1813 2.667-2.625v-29.295l-10.014-10.08z" fill="url(#o)"/><path d="m335.667 92c-1.467 0-2.667 1.1812-2.667 2.625v36.75c0 1.444 1.2 2.625 2.667 2.625h26.666c1.467 0 2.667-1.181 2.667-2.625v-29.295l-10.014-10.08z" fill="url(#p)"/><path d="m335.667 184c-1.467 0-2.667 1.181-2.667 2.625v36.75c0 1.444 1.2 2.625 2.667 2.625h26.666c1.467 0 2.667-1.181 2.667-2.625v-29.295l-10.014-10.08z" fill="url(#q)"/><g fill="#fff"><path d="m10.5383 24h-1.35693v-2.0371h-1.56885v2.0371h-1.35693v-4.9971h1.35693v1.8526h1.56885v-1.8526h1.35693zm3.2881 0h-1.3501v-3.8931h-1.2202v-1.104h3.7871v1.104h-1.2168zm4.1084 0-1.022-3.5991h-.0307c.0478.6129.0717 1.0892.0717 1.4287v2.1704h-1.1963v-4.9971h1.7979l1.0425 3.5479h.0273l1.022-3.5479h1.8013v4.9971h-1.2408v-2.1909c0-.114.0012-.2404.0035-.3794.0045-.139.0205-.4797.0478-1.022h-.0308l-1.0083 3.5923zm4.5903 0v-4.9971h1.3501v3.9068h1.9243v1.0903z"/><path d="m11.9294 112.039c-.3213 0-.5719.132-.7519.396-.1801.262-.2701.624-.2701 1.087 0 .962.3658 1.442 1.0972 1.442.221 0 .4352-.03.6426-.092.2073-.061.4158-.136.6255-.222v1.142c-.417.184-.8887.276-1.4151.276-.7542 0-1.333-.218-1.7363-.656-.40103-.437-.60155-1.07-.60155-1.897 0-.517.09684-.972.29053-1.364.19592-.392.47622-.692.84082-.902.3669-.212.7975-.318 1.292-.318.54 0 1.0561.118 1.5483.352l-.4135 1.063c-.1846-.086-.3692-.159-.5538-.219-.1845-.059-.3828-.088-.5947-.088zm5.5884 2.443c0 .31-.0786.586-.2358.828-.1573.239-.384.426-.6802.56-.2962.132-.6437.198-1.0425.198-.3327 0-.6118-.022-.8374-.068-.2256-.048-.4603-.13-.7041-.246v-1.203c.2575.132.5252.236.8032.311.278.073.5332.109.7656.109.2006 0 .3475-.034.441-.102.0934-.071.1401-.161.1401-.27 0-.069-.0194-.128-.0581-.178-.0365-.053-.0969-.105-.1812-.157-.082-.053-.303-.16-.663-.322-.3259-.148-.5708-.291-.7349-.43-.1618-.139-.2826-.299-.3623-.479-.0775-.18-.1162-.393-.1162-.639 0-.46.1675-.819.5024-1.077.335-.257.7953-.386 1.3809-.386.5172 0 1.0447.12 1.5825.359l-.4136 1.043c-.4671-.215-.8704-.322-1.2099-.322-.1755 0-.3031.031-.3829.093-.0797.061-.1196.137-.1196.229 0 .098.0501.185.1504.263.1025.077.3783.218.8272.424.4306.193.7291.402.8955.625.1686.221.2529.5.2529.837zm3.5786-3.479h1.5108l-1.6373 4.997h-1.5893l-1.6304-4.997h1.5176l.6802 2.533c.1412.562.2187.954.2324 1.175.0159-.159.0478-.358.0957-.598.0478-.239.09-.427.1265-.564z"/><path d="m12.9753 208h-1.562l-.9741-1.562-.96389 1.562h-1.52783l1.65772-2.557-1.5586-2.44h1.49707l.90233 1.545.8682-1.545h1.5415l-1.5825 2.546zm2.7412 0-1.0219-3.599h-.0308c.0478.613.0718 1.089.0718 1.429v2.17h-1.1963v-4.997h1.7978l1.0425 3.548h.0274l1.0219-3.548h1.8013v4.997h-1.2407v-2.191c0-.114.0011-.24.0034-.379.0045-.139.0205-.48.0478-1.022h-.0307l-1.0083 3.592zm4.5904 0v-4.997h1.3501v3.907h1.9243v1.09z"/><path d="m118.072 25.5688c-.246 0-.479-.0239-.7-.0717v-1.0493c.073.0136.15.0284.232.0444.082.0182.171.0273.267.0273.223 0 .383-.0672.478-.2016.096-.1345.144-.3646.144-.6905v-4.6245h1.357v4.5083c0 .6768-.148 1.1883-.445 1.5347-.296.3486-.74.5229-1.333.5229zm6.129-3.0864c0 .3099-.079.5856-.236.8272-.157.2392-.384.4261-.68.5605-.296.1322-.644.1983-1.043.1983-.332 0-.611-.0228-.837-.0684-.226-.0479-.46-.1299-.704-.2461v-1.2031c.257.1321.525.2358.803.311.278.0729.533.1094.766.1094.2 0 .347-.0342.441-.1025.093-.0707.14-.1607.14-.2701 0-.0683-.02-.1276-.058-.1777-.037-.0524-.097-.1048-.181-.1572-.082-.0524-.304-.1595-.664-.3213-.325-.1481-.57-.2917-.734-.4307-.162-.139-.283-.2985-.363-.4785-.077-.18-.116-.3931-.116-.6392 0-.4602.168-.8191.503-1.0766.334-.2575.795-.3862 1.38-.3862.518 0 1.045.1196 1.583.3588l-.414 1.0425c-.467-.2142-.87-.3213-1.21-.3213-.175 0-.303.0308-.382.0923-.08.0615-.12.1379-.12.229 0 .098.05.1857.15.2632.103.0775.379.2188.827.4238.431.1937.73.4022.896.6255.169.221.253.5002.253.8374zm5.448-.9878c0 .8408-.206 1.48-.619 1.9175-.412.4375-1.016.6563-1.811.6563-.784 0-1.385-.2199-1.805-.6597-.417-.4398-.625-1.0801-.625-1.9209 0-.8317.207-1.4663.622-1.9038.417-.4398 1.022-.6597 1.815-.6597.795 0 1.398.2176 1.808.6528.41.4353.615 1.0744.615 1.9175zm-3.438 0c0 .9662.336 1.4492 1.008 1.4492.342 0 .595-.1173.759-.352.166-.2347.249-.6004.249-1.0972 0-.499-.084-.867-.253-1.104-.166-.2392-.416-.3589-.748-.3589-.677 0-1.015.4877-1.015 1.4629zm9.098 2.5054h-1.77l-1.825-3.5205h-.031c.043.5537.065.9764.065 1.2681v2.2524h-1.197v-4.9971h1.764l1.819 3.4727h.02c-.032-.5036-.048-.9081-.048-1.2134v-2.2593h1.203z"/><path d="m122.365 116h-1.562l-.974-1.562-.964 1.562h-1.527l1.657-2.557-1.558-2.44h1.497l.902 1.545.868-1.545h1.542l-1.583 2.546zm.564 0v-4.997h1.351v3.907h1.924v1.09zm4.075 0v-4.997h1.357v4.997zm3.77 0h-1.33v-4.997h2.953v1.083h-1.623v.954h1.497v1.084h-1.497zm3.773 0h-1.329v-4.997h2.953v1.083h-1.624v.954h1.497v1.084h-1.497z"/><path d="m121.467 204.855.861-1.852h1.463l-1.644 3.045v1.952h-1.361v-1.911l-1.644-3.086h1.47zm5.041 3.145-1.022-3.599h-.031c.048.613.072 1.089.072 1.429v2.17h-1.196v-4.997h1.798l1.042 3.548h.027l1.022-3.548h1.802v4.997h-1.241v-2.191c0-.114.001-.24.003-.379.005-.139.021-.48.048-1.022h-.031l-1.008 3.592zm4.59 0v-4.997h1.35v3.907h1.925v1.09z"/><path d="m233.806 24h-1.562l-.974-1.562-.964 1.562h-1.527l1.657-2.5566-1.558-2.4405h1.497l.902 1.545.868-1.545h1.542l-1.583 2.5464zm.564 0v-4.9971h1.35v3.9068h1.925v1.0903zm7.342-1.5176c0 .3099-.078.5856-.236.8272-.157.2392-.384.4261-.68.5605-.296.1322-.644.1983-1.042.1983-.333 0-.612-.0228-.838-.0684-.225-.0479-.46-.1299-.704-.2461v-1.2031c.258.1321.525.2358.803.311.278.0729.534.1094.766.1094.2 0 .347-.0342.441-.1025.093-.0707.14-.1607.14-.2701 0-.0683-.019-.1276-.058-.1777-.037-.0524-.097-.1048-.181-.1572-.082-.0524-.303-.1595-.663-.3213-.326-.1481-.571-.2917-.735-.4307-.162-.139-.283-.2985-.362-.4785-.078-.18-.117-.3931-.117-.6392 0-.4602.168-.8191.503-1.0766s.795-.3862 1.381-.3862c.517 0 1.044.1196 1.582.3588l-.413 1.0425c-.468-.2142-.871-.3213-1.21-.3213-.176 0-.303.0308-.383.0923s-.12.1379-.12.229c0 .098.05.1857.151.2632.102.0775.378.2188.827.4238.43.1937.729.4022.895.6255.169.221.253.5002.253.8374zm5.274 1.5176h-1.562l-.974-1.562-.964 1.562h-1.528l1.658-2.5566-1.559-2.4405h1.497l.903 1.545.868-1.545h1.541l-1.582 2.5464z"/><path d="m229.924 112.855.861-1.852h1.463l-1.644 3.045v1.952h-1.361v-1.911l-1.644-3.086h1.47zm5.93 3.145-.246-.937h-1.624l-.253.937h-1.483l1.63-5.018h1.801l1.651 5.018zm-.527-2.044-.215-.82c-.05-.183-.112-.418-.185-.708-.07-.289-.117-.497-.14-.622-.02.116-.061.308-.123.574-.059.267-.192.792-.4 1.576zm4.724 2.044-1.022-3.599h-.031c.048.613.072 1.089.072 1.429v2.17h-1.196v-4.997h1.798l1.042 3.548h.027l1.022-3.548h1.802v4.997h-1.241v-2.191c0-.114.001-.24.003-.379.005-.139.021-.48.048-1.022h-.031l-1.008 3.592zm4.59 0v-4.997h1.35v3.907h1.925v1.09z"/><path d="m343.504 21.3955c0 .834-.23 1.4766-.69 1.9277-.458.4512-1.103.6768-1.935.6768h-1.617v-4.9971h1.73c.802 0 1.421.2051 1.856.6153.437.4101.656 1.0026.656 1.7773zm-1.401.0479c0-.458-.091-.7976-.274-1.0186-.18-.221-.454-.3315-.823-.3315h-.393v2.7993h.3c.41 0 .711-.1185.903-.3555.191-.2392.287-.6038.287-1.0937zm6.976.0512c0 .8408-.206 1.48-.619 1.9175-.412.4375-1.016.6563-1.811.6563-.784 0-1.386-.2199-1.805-.6597-.417-.4398-.626-1.0801-.626-1.9209 0-.8317.208-1.4663.623-1.9038.417-.4398 1.022-.6597 1.814-.6597.796 0 1.398.2176 1.809.6528.41.4353.615 1.0744.615 1.9175zm-3.439 0c0 .9662.336 1.4492 1.009 1.4492.341 0 .594-.1173.758-.352.167-.2347.25-.6004.25-1.0972 0-.499-.084-.867-.253-1.104-.166-.2392-.416-.3589-.749-.3589-.676 0-1.015.4877-1.015 1.4629zm6.566-1.456c-.321 0-.572.1321-.752.3965-.18.262-.27.6243-.27 1.0869 0 .9616.366 1.4424 1.097 1.4424.221 0 .436-.0308.643-.0923.207-.0616.416-.1356.626-.2222v1.1416c-.417.1846-.889.2769-1.416.2769-.754 0-1.333-.2188-1.736-.6563-.401-.4375-.601-1.0698-.601-1.897 0-.5172.096-.9718.29-1.3637.196-.392.476-.6927.841-.9024.367-.2119.797-.3178 1.292-.3178.54 0 1.056.1173 1.548.352l-.413 1.063c-.185-.0866-.369-.1595-.554-.2188-.185-.0592-.383-.0888-.595-.0888zm6.823 3.9614h-1.562l-.975-1.562-.963 1.562h-1.528l1.657-2.5566-1.558-2.4405h1.497l.902 1.545.868-1.545h1.542l-1.583 2.5464z"/><path d="m235.385 204.592c0 .559-.165.99-.495 1.296-.328.303-.795.454-1.402.454h-.379v1.658h-1.35v-4.997h1.729c.632 0 1.106.138 1.422.414.317.275.475.667.475 1.175zm-2.276.65h.246c.203 0 .364-.057.482-.171.121-.114.181-.271.181-.472 0-.337-.187-.506-.56-.506h-.349zm7.315.154c0 .833-.231 1.476-.691 1.927-.458.451-1.103.677-1.934.677h-1.617v-4.997h1.729c.802 0 1.421.205 1.856.615.438.41.657 1.003.657 1.778zm-1.402.047c0-.458-.091-.797-.273-1.018-.18-.221-.455-.332-.824-.332h-.393v2.8h.301c.41 0 .711-.119.902-.356.191-.239.287-.604.287-1.094zm3.63 2.557h-1.33v-4.997h2.954v1.083h-1.624v.954h1.497v1.084h-1.497z"/><path d="m345.651 116-1.022-3.599h-.031c.048.613.072 1.089.072 1.429v2.17h-1.197v-4.997h1.798l1.043 3.548h.027l1.022-3.548h1.801v4.997h-1.24v-2.191c0-.114.001-.24.003-.379.005-.139.02-.48.048-1.022h-.031l-1.008 3.592zm8.832-2.604c0 .833-.231 1.476-.691 1.927-.458.451-1.103.677-1.934.677h-1.617v-4.997h1.729c.803 0 1.421.205 1.856.615.438.41.657 1.003.657 1.778zm-1.402.047c0-.458-.091-.797-.273-1.018-.18-.221-.455-.332-.824-.332h-.393v2.8h.301c.41 0 .711-.119.902-.356.192-.239.287-.604.287-1.094z"/><path d="m348.053 204.592c0 .559-.165.99-.495 1.296-.328.303-.795.454-1.402.454h-.379v1.658h-1.35v-4.997h1.729c.632 0 1.106.138 1.422.414.317.275.475.667.475 1.175zm-2.276.65h.246c.203 0 .364-.057.482-.171.121-.114.181-.271.181-.472 0-.337-.187-.506-.56-.506h-.349zm7.749.253c0 .84-.207 1.48-.619 1.917-.412.438-1.016.656-1.812.656-.783 0-1.385-.22-1.804-.659-.417-.44-.626-1.08-.626-1.921 0-.832.208-1.467.622-1.904.417-.44 1.022-.66 1.815-.66.796 0 1.398.218 1.808.653.411.435.616 1.075.616 1.918zm-3.439 0c0 .966.336 1.449 1.008 1.449.342 0 .595-.118.759-.352.167-.235.25-.601.25-1.097 0-.499-.085-.867-.253-1.104-.167-.24-.416-.359-.749-.359-.676 0-1.015.487-1.015 1.463z"/></g><path d="m24.3306 10h7.6694l-10-10v7.61334c0 1.39903.9246 2.38666 2.3306 2.38666z" fill="#60d2b4"/><path d="m24.3306 102h7.6694l-10-10v7.6133c0 1.3987.9246 2.3867 2.3306 2.3867z" fill="#5183bb"/><path d="m24.3306 194h7.6694l-10-10v7.613c0 1.399.9246 2.387 2.3306 2.387z" fill="#8cbef5"/><path d="m135.331 10h7.669l-10-10v7.61334c0 1.39903.925 2.38666 2.331 2.38666z" fill="#5183bb"/><path d="m135.331 102h7.669l-10-10v7.6133c0 1.3987.925 2.3867 2.331 2.3867z" fill="#60d2b4"/><path d="m135.331 194h7.669l-10-10v7.613c0 1.399.925 2.387 2.331 2.387z" fill="#ffc568"/><path d="m246.331 10h7.669l-10-10v7.61334c0 1.39903.925 2.38666 2.331 2.38666z" fill="#60d2b4"/><path d="m357.331 10h7.669l-10-10v7.61334c0 1.39903.925 2.38666 2.331 2.38666z" fill="#5183bb"/><path d="m246.331 102h7.669l-10-10v7.6133c0 1.3987.925 2.3867 2.331 2.3867z" fill="#5183bb"/><path d="m246.331 194h7.669l-10-10v7.613c0 1.399.925 2.387 2.331 2.387z" fill="#60d2b4"/><path d="m357.331 102h7.669l-10-10v7.6133c0 1.3987.925 2.3867 2.331 2.3867z" fill="#ffc568"/><path d="m357.331 194h7.669l-10-10v7.613c0 1.399.925 2.387 2.331 2.387z" fill="#8cbef5"/><g filter="url(#a)"><rect fill="#f7fbfd" height="150.246" rx="35" width="149.158" x="52" y="38"/></g><path d="m105.397 78c-2.418 0-4.397 1.9477-4.397 4.3281v60.5939c0 2.38 1.979 4.328 4.397 4.328h43.968c2.418 0 4.397-1.948 4.397-4.328v-48.302l-16.511-16.62z" fill="url(#r)"/><path d="m119.443 117.381h-2.677l-1.67-2.678-1.653 2.678h-2.619l2.842-4.383-2.672-4.183h2.567l1.547 2.648 1.488-2.648h2.642l-2.712 4.365zm.967 0v-8.566h2.315v6.697h3.299v1.869zm6.985 0v-8.566h2.326v8.566zm6.463 0h-2.28v-8.566h5.063v1.857h-2.783v1.635h2.566v1.857h-2.566zm6.468 0h-2.279v-8.566h5.062v1.857h-2.783v1.635h2.567v1.857h-2.567z" fill="#fff"/><path d="m141.116 94.4881h12.646l-16.489-16.4881v12.5529c0 2.3068 1.525 3.9352 3.843 3.9352z" fill="#60d2b4"/><path d="m161.951 148.621-17.593-11.199c-.62-.302-1.324.274-1.185.901l4.373 19.676c.098.44.535.718.975.62.207-.046.388-.17.476-.31l3.215-4.363 4.942 6.881c.084.117.211.196.354.22.069.01.139.008.206-.007.071-.015.139-.046.199-.09l3.096-2.228c.245-.175.301-.515.125-.76l-4.785-6.663 5.338-1.186c.44-.098.717-.535.62-.975-.029-.129-.105-.315-.356-.517z" fill="#5183bb"/></svg>