<svg fill="none" height="66" viewBox="0 0 66 66" width="66" xmlns="http://www.w3.org/2000/svg"><g fill="#00a0b6"><path d="m29.9026 18.2947c.0797.1195.1822.2221.3016.302.1194.08.2533.1356.3942.1637s.2859.0282.4268.0003.275-.0833.3945-.1631l3.2812-2.1875c.1498-.0998.2726-.2352.3576-.3939.0849-.1588.1294-.336.1294-.5161 0-.18-.0445-.3573-.1294-.516-.085-.1588-.2078-.2941-.3576-.394l-3.2812-2.1875c-.2414-.161-.5368-.2195-.8213-.1627-.2845.0569-.5348.2244-.6958.4657-.161.2414-.2195.5368-.1627.8213.0569.2845.2244.5347.4657.6957l1.9195 1.2775-1.9162 1.2775c-.1198.0795-.2227.1818-.303.301-.0802.1193-.1361.2532-.1646.3941-.0284.1409-.0288.286-.0011.427.0277.1411.0829.2753.1624.395z"/><path d="m22.6073 19.7307c.1663.0958.355.1456.5469.1443.1926.0006.3818-.0497.5487-.1457s.3055-.2344.4018-.4011l4.375-7.6563c.0753-.1248.1249-.2635.1459-.4078.0209-.1443.0128-.2913-.0239-.4324-.0367-.1412-.1013-.2735-.1898-.3893-.0886-.1158-.1995-.2128-.3261-.2851s-.2664-.1186-.4111-.1362c-.1448-.0175-.2916-.0059-.4318.0341s-.271.1077-.3847.199-.2079.2044-.2773.3327l-4.375 7.6563c-.1428.2507-.1808.5478-.1056.8264s.2574.5162.507.6611z"/><path d="m15.9902 45.9414 3.2813 2.1875c.2413.161.5368.2195.8213.1627.2844-.0568.5347-.2243.6957-.4657.161-.2413.2195-.5367.1627-.8212s-.2243-.5348-.4657-.6958l-1.9195-1.2775 1.9163-1.2775c.2413-.161.4088-.4113.4656-.6958.0569-.2845-.0017-.5799-.1627-.8212-.161-.2414-.4112-.4089-.6957-.4657s-.5799.0017-.8213.1627l-3.2812 2.1875c-.1498.0999-.2727.2352-.3576.3939-.085.1588-.1294.3361-.1294.5161s.0444.3573.1294.516c.0849.1588.2078.2941.3576.394z"/><path d="m15.9902 16.4101 3.2813 2.1875c.1195.0798.2535.1352.3944.1631s.286.0278.4268-.0004c.1409-.0281.2749-.0837.3942-.1636.1194-.0799.2219-.1825.3016-.302s.1351-.2536.163-.3945c.028-.1409.0278-.2859-.0003-.4268s-.0837-.2748-.1636-.3942-.1826-.2218-.3021-.3016l-1.9195-1.2775 1.9163-1.2775c.1195-.0797.2221-.1822.302-.3015.0799-.1194.1355-.2534.1636-.3942.0282-.1409.0283-.2859.0004-.4268-.028-.141-.0834-.275-.1631-.3945s-.1822-.2221-.3015-.302c-.1194-.0799-.2534-.1355-.3942-.1637-.1409-.0281-.2859-.0282-.4268-.0003-.141.0279-.275.0833-.3945.163l-3.2812 2.1875c-.1498.0999-.2727.2352-.3576.394-.085.1587-.1294.336-.1294.516 0 .1801.0444.3573.1294.5161.0849.1587.2078.2941.3576.3939z"/><path d="m34.7009 44.1214-3.2812-2.1875c-.2414-.161-.5368-.2195-.8213-.1627s-.5348.2243-.6958.4657c-.161.2413-.2195.5367-.1627.8212.0569.2845.2244.5348.4657.6958l1.9195 1.2775-1.9162 1.2775c-.2414.161-.4089.4113-.4657.6958s.0017.5799.1627.8212c.161.2414.4113.4089.6958.4657s.5799-.0017.8212-.1627l3.2813-2.1875c.1498-.0999.2726-.2352.3576-.394.0849-.1587.1293-.336.1293-.516s-.0444-.3573-.1293-.5161c-.085-.1587-.2078-.294-.3576-.3939z"/><path d="m28.0772 39.7072c-.2518-.1438-.5504-.1817-.8301-.1054-.2798.0763-.5178.2605-.6617.5123l-4.375 7.6562c-.1438.2518-.1817.5504-.1055.8302.0763.2797.2606.5177.5123.6617.1637.0943.3493.1441.5382.1444.1925.0005.3818-.0497.5487-.1458.1669-.096.3055-.2344.4017-.4011l4.375-7.6563c.072-.1246.1187-.2623.1374-.4051.0187-.1427.009-.2878-.0285-.4268s-.102-.2693-.19-.3833c-.0879-.114-.1975-.2095-.3225-.281z"/><path d="m23.1562 24.25h2.1876c.29 0 .5682-.1152.7733-.3204.2052-.2051.3204-.4833.3204-.7734 0-.29-.1152-.5682-.3204-.7733-.2051-.2052-.4833-.3204-.7733-.3204h-2.1876c-.29 0-.5682.1152-.7733.3204-.2052.2051-.3204.4833-.3204.7733 0 .2901.1152.5683.3204.7734.2051.2052.4833.3204.7733.3204z"/><path d="m23.1562 28.625h15.3126c.29 0 .5682-.1152.7733-.3204.2052-.2051.3204-.4833.3204-.7734 0-.29-.1152-.5682-.3204-.7733-.2051-.2052-.4833-.3204-.7733-.3204h-15.3126c-.29 0-.5682.1152-.7733.3204-.2052.2051-.3204.4833-.3204.7733 0 .2901.1152.5683.3204.7734.2051.2052.4833.3204.7733.3204z"/><path d="m29.7188 24.25h15.3124c.2901 0 .5683-.1152.7734-.3204.2052-.2051.3204-.4833.3204-.7734 0-.29-.1152-.5682-.3204-.7733-.2051-.2052-.4833-.3204-.7734-.3204h-15.3124c-.2901 0-.5683.1152-.7734.3204-.2052.2051-.3204.4833-.3204.7733 0 .2901.1152.5683.3204.7734.2051.2052.4833.3204.7734.3204z"/><path d="m23.1562 37.375h8.75c.2901 0 .5683-.1152.7734-.3204.2052-.2051.3204-.4833.3204-.7734 0-.29-.1152-.5682-.3204-.7733-.2051-.2052-.4833-.3204-.7734-.3204h-8.75c-.29 0-.5682.1152-.7733.3204-.2052.2051-.3204.4833-.3204.7733 0 .2901.1152.5683.3204.7734.2051.2052.4833.3204.7733.3204z"/><path d="m45.0312 26.4375h-2.1874c-.2901 0-.5683.1152-.7734.3204-.2052.2051-.3204.4833-.3204.7733 0 .2901.1152.5683.3204.7734.2051.2052.4833.3204.7734.3204h2.1874c.2901 0 .5683-.1152.7734-.3204.2052-.2051.3204-.4833.3204-.7734 0-.29-.1152-.5682-.3204-.7733-.2051-.2052-.4833-.3204-.7734-.3204z"/><path d="m38.4688 35.1875h-2.1876c-.29 0-.5682.1152-.7733.3204-.2052.2051-.3204.4833-.3204.7733 0 .2901.1152.5683.3204.7734.2051.2052.4833.3204.7733.3204h2.1876c.29 0 .5682-.1152.7733-.3204.2052-.2051.3204-.4833.3204-.7734 0-.29-.1152-.5682-.3204-.7733-.2051-.2052-.4833-.3204-.7733-.3204z"/><path d="m23.1562 33h2.1876c.29 0 .5682-.1152.7733-.3204.2052-.2051.3204-.4833.3204-.7734 0-.29-.1152-.5682-.3204-.7733-.2051-.2052-.4833-.3204-.7733-.3204h-2.1876c-.29 0-.5682.1152-.7733.3204-.2052.2051-.3204.4833-.3204.7733 0 .2901.1152.5683.3204.7734.2051.2052.4833.3204.7733.3204z"/><path d="m45.0312 30.8125h-15.3124c-.2901 0-.5683.1152-.7734.3204-.2052.2051-.3204.4833-.3204.7733 0 .2901.1152.5683.3204.7734.2051.2052.4833.3204.7734.3204h15.3124c.2901 0 .5683-.1152.7734-.3204.2052-.2051.3204-.4833.3204-.7734 0-.29-.1152-.5682-.3204-.7733-.2051-.2052-.4833-.3204-.7734-.3204z"/><path d="m64.7188 54.875h-1.0938v-38.2812c0-1.4505-.5762-2.8415-1.6018-3.867-1.0255-1.0256-2.4165-1.6018-3.867-1.6018h-3.2812v-7.65625c-.0026-.86944-.3491-1.70253-.9639-2.31733-.6148-.614787-1.4479-.961323-2.3173-.96392h-37.1876c-.8694.002597-1.7025.349133-2.3173.96392-.6148.6148-.9613 1.44789-.9639 2.31733v7.65625h-3.28125c-1.4504 0-2.8414.5762-3.86699 1.6018-1.02559 1.0255-1.60176 2.4165-1.60176 3.867v38.2812h-1.09375c-.290081 0-.56828.1152-.773398.3204-.205118.2051-.320352.4833-.320352.7734v4.375c0 1.4504.57617 2.8414 1.60176 3.8669 1.02559 1.0256 2.41659 1.6018 3.86699 1.6018h54.68755c1.4504 0 2.8414-.5762 3.8669-1.6018 1.0256-1.0255 1.6018-2.4165 1.6018-3.8669v-4.375c0-.2901-.1152-.5683-.3204-.7734-.2051-.2052-.4833-.3204-.7733-.3204zm-9.8438-41.5625h3.2812c.8695.0026 1.7026.3491 2.3174.9639s.9613 1.4479.9639 2.3174v38.2812h-2.1875v-38.2812c0-.2901-.1152-.5683-.3204-.7734-.2051-.2052-.4833-.3204-.7734-.3204h-3.2812zm-41.5625-9.84375c0-.29008.1152-.56828.3204-.7734.2051-.20512.4833-.32035.7733-.32035h37.1876c.29 0 .5682.11523.7733.32035.2052.20512.3204.48332.3204.7734v3.28125h-39.375zm0 5.46875h39.375v40.4687c0 .2901-.1152.5683-.3204.7734-.2051.2052-.4833.3204-.7733.3204h-37.1876c-.29 0-.5682-.1152-.7733-.3204-.2052-.2051-.3204-.4833-.3204-.7734zm1.0937 43.75h37.1876c.8694-.0026 1.7025-.3491 2.3173-.9639s.9613-1.4479.9639-2.3174v-31.7187h2.1875v37.1875h-48.125v-37.1875h2.1875v31.7187c.0026.8695.3491 1.7026.9639 2.3174s1.4479.9613 2.3173.9639zm24.0626 4.375v1.0937c0 .2901-.1153.5683-.3204.7734-.2051.2052-.4833.3204-.7734.3204h-8.75c-.2901 0-.5683-.1152-.7734-.3204-.2051-.2051-.3204-.4833-.3204-.7734v-1.0937zm-33.9063-40.4687c.0026-.8695.34913-1.7026.96392-2.3174.6148-.6148 1.44789-.9613 2.31733-.9639h3.28125v2.1875h-3.28125c-.29008 0-.56828.1152-.7734.3204-.20512.2051-.32035.4833-.32035.7734v38.2812h-2.1875zm59.0625 43.75c-.0026.8694-.3491 1.7025-.9639 2.3173s-1.4479.9613-2.3173.9639h-54.68755c-.86944-.0026-1.70253-.3491-2.31733-.9639-.61479-.6148-.96132-1.4479-.96392-2.3173v-3.2813h22.9688v1.0937c.0025.8695.3491 1.7026.9639 2.3174s1.4479.9613 2.3173.9639h8.75c.8694-.0026 1.7025-.3491 2.3173-.9639s.9614-1.4479.9639-2.3174v-1.0937h22.9688z"/><path d="m16.5938 3.46875h-1.0938c-.2901 0-.5683.11523-.7734.32035s-.3204.48332-.3204.7734.1153.56828.3204.7734.4833.32035.7734.32035h1.0938c.29 0 .5682-.11523.7733-.32035.2052-.20512.3204-.48332.3204-.7734s-.1152-.56828-.3204-.7734c-.2051-.20512-.4833-.32035-.7733-.32035z"/><path d="m20.9688 3.46875h-1.0938c-.2901 0-.5683.11523-.7734.32035s-.3204.48332-.3204.7734.1153.56828.3204.7734.4833.32035.7734.32035h1.0938c.29 0 .5682-.11523.7733-.32035.2052-.20512.3204-.48332.3204-.7734s-.1152-.56828-.3204-.7734c-.2051-.20512-.4833-.32035-.7733-.32035z"/><path d="m25.3438 3.46875h-1.0938c-.2901 0-.5683.11523-.7734.32035s-.3204.48332-.3204.7734.1153.56828.3204.7734.4833.32035.7734.32035h1.0938c.29 0 .5682-.11523.7733-.32035.2052-.20512.3204-.48332.3204-.7734s-.1152-.56828-.3204-.7734c-.2051-.20512-.4833-.32035-.7733-.32035z"/><path d="m49.4062 3.46875h-17.5c-.29 0-.5682.11523-.7733.32035-.2052.20512-.3204.48332-.3204.7734s.1152.56828.3204.7734c.2051.20512.4833.32035.7733.32035h17.5c.2901 0 .5683-.11523.7734-.32035.2052-.20512.3204-.48332.3204-.7734s-.1152-.56828-.3204-.7734c-.2051-.20512-.4833-.32035-.7734-.32035z"/></g></svg>