<svg fill="none" height="333" viewBox="0 0 432 333" width="432" xmlns="http://www.w3.org/2000/svg"><path d="m415.621.0839844h-399.2419c-9.04591 0-16.3791 7.4027956-16.3791 16.5346156v299.6894c0 9.132 7.33319 16.535 16.3791 16.535h399.2419c9.046 0 16.379-7.403 16.379-16.535v-299.6894c0-9.13182-7.333-16.5346156-16.379-16.5346156z" fill="#eff5fa"/><path d="m200.929 89.9207h-90.714v123.1543h90.714z" fill="#1c3c55"/><path d="m185.714 111.294h-90.714v123.155h90.714z" fill="#1c3c55"/><path d="m337.849 79.7427h-212.423v156.2903h212.423z" fill="#feca55"/><path d="m230.396 194.467c-1.118-.9-2.586-1.247-3.993-.945-10.266 2.138-20.964-.033-29.565-6.001-1.63-1.124-3.79-1.124-5.419 0-8.601 5.968-19.3 8.139-29.566 6.001-1.406-.302-2.874.045-3.993.945-1.117.9-1.763 2.255-1.758 3.685v35.201c-.009 13.745 6.666 26.647 17.92 34.634l17.349 12.285c1.651 1.168 3.864 1.168 5.514 0l17.35-12.285c11.253-7.987 17.929-20.889 17.92-34.634v-35.201c.005-1.43-.642-2.785-1.759-3.685zm-7.516 38.044c.008 10.757-5.222 20.854-14.04 27.108l-14.712 10.415-14.711-10.415c-8.818-6.254-14.048-16.351-14.041-27.108v-29.961c10.046.854 20.108-1.459 28.752-6.61 8.645 5.151 18.706 7.464 28.752 6.61zm-21.294-11.035-12.744 12.918-4.216-4.306c-1.857-1.876-4.869-1.876-6.727 0-1.857 1.876-1.857 4.918 0 6.794l7.58 7.656c.89.906 2.1 1.415 3.363 1.415 1.264 0 2.474-.509 3.364-1.415l16.296-16.316c1.858-1.876 1.858-4.918 0-6.794-1.857-1.877-4.869-1.877-6.727 0z" fill="#1c3c55"/><path d="m189.232 107.336h-63.806v-37.093c0-4.5235 3.633-8.1424 8.174-8.1424h47.571c4.542 0 8.175 3.6189 8.175 8.1424v37.093z" fill="#feca55"/><path d="m316.848 109.259h-36.445c-1.589 0-1.589 2.488 0 2.488h36.445c1.589 0 1.589-2.488 0-2.488z" fill="#fff"/><path d="m316.848 121.247h-36.445c-1.589 0-1.589 2.488 0 2.488h36.445c1.589 0 1.589-2.488 0-2.488z" fill="#fff"/><path d="m189.346 55.8806h-9.764v23.8619h9.764z" fill="#d24a43"/><path d="m173.225 50h-9.764v29.8557h9.764z" fill="#697ccc"/><path d="m109.305 120.568v102.911c0 1.584 2.497 1.584 2.497 0v-102.911c0-1.583-2.497-1.583-2.497 0z" fill="#fff"/></svg>