<svg width="470" height="362" viewBox="0 0 470 362" fill="none" xmlns="http://www.w3.org/2000/svg">
<path d="M452.18 0H17.8199C7.97824 0 0 8.04949 0 17.979V343.849C0 353.779 7.97824 361.828 17.8199 361.828H452.18C462.022 361.828 470 353.779 470 343.849V17.979C470 8.04949 462.022 0 452.18 0Z" fill="#EFF5FA"/>
<g clip-path="url(#clip0)">
<path d="M203.848 112.566H78.748V210.512H203.848V112.566Z" fill="#FF647C"/>
<path d="M171.866 133.005H106.661C104.853 133.005 104.853 135.875 106.661 135.875H171.866C173.674 135.761 173.674 133.005 171.866 133.005Z" fill="white"/>
<path d="M171.866 149.884H106.661C104.853 149.884 104.853 152.755 106.661 152.755H171.866C173.674 152.755 173.674 149.884 171.866 149.884Z" fill="white"/>
<path d="M171.866 166.764H106.661C104.853 166.764 104.853 169.635 106.661 169.635H171.866C173.674 169.635 173.674 166.764 171.866 166.764Z" fill="white"/>
<path d="M154.237 183.758H106.322C104.966 183.758 104.966 186.628 106.322 186.628H154.237C155.48 186.514 155.48 183.758 154.237 183.758Z" fill="white"/>
<path d="M100.785 142.191C100.446 142.191 100.107 142.076 99.7682 141.732L92.8748 134.383C92.3097 133.809 92.4227 133.005 92.8748 132.431L99.7682 125.427C100.333 124.853 101.237 124.853 101.689 125.427C102.254 126.001 102.254 126.919 101.689 127.379L95.7 133.464L101.689 139.895C102.254 140.469 102.141 141.387 101.689 141.847C101.463 141.962 101.124 142.191 100.785 142.191Z" fill="white"/>
<path d="M160.453 194.666C160.114 194.666 159.775 194.551 159.435 194.207C158.87 193.633 158.87 192.714 159.435 192.255L165.425 186.169L159.435 179.739C158.87 179.165 158.983 178.246 159.435 177.787C160.001 177.213 160.905 177.327 161.357 177.787L168.25 185.135C168.815 185.71 168.702 186.513 168.25 187.088L161.357 194.092C161.131 194.551 160.792 194.666 160.453 194.666Z" fill="white"/>
<path d="M70.1599 105.907C64.6226 99.5915 58.9722 93.2761 53.4348 86.9607C52.1917 85.5828 50.2706 87.6497 51.5137 88.9128L68.2388 107.859C69.3689 109.237 71.403 107.285 70.1599 105.907Z" fill="#BCD7FD"/>
<path d="M222.269 93.9642C217.861 98.2128 213.454 102.461 209.047 106.595C207.804 107.858 209.725 109.81 210.968 108.547C215.375 104.298 219.783 100.05 224.19 95.9163C225.546 94.6532 223.512 92.7012 222.269 93.9642Z" fill="#BCD7FD"/>
<path d="M75.1333 212.234C71.404 216.942 67.6748 221.535 63.9455 226.243C62.8155 227.621 64.7366 229.688 65.8667 228.195C69.5959 223.487 73.3252 218.894 77.0544 214.186C78.1845 212.923 76.2634 210.856 75.1333 212.234Z" fill="#BCD7FD"/>
<path d="M275.441 159.521C276.921 160.091 308.227 206.203 308.227 206.203L341.013 168.652L298.209 136.693L275.441 159.521Z" fill="#952C28"/>
<path d="M285.46 173.217C280.223 165.684 275.897 159.749 275.328 159.521L283.752 150.96C287.281 157.923 288.534 166.711 285.46 173.217Z" fill="black"/>
<path d="M291.04 85.4454C281.932 76.4285 258.823 80.5374 246.642 89.8968C241.292 94.0057 236.396 91.2664 237.307 96.7451C239.47 110.327 246.642 154.042 255.066 161.233C269.865 173.674 289.332 160.548 295.252 144.797C301.057 128.932 304.017 98.343 291.04 85.4454Z" fill="#952C28"/>
<path d="M233.322 95.1467C235.599 105.99 255.521 100.397 265.653 95.2608C268.385 106.903 276.581 135.78 299.463 137.378C308.684 116.719 307.773 85.6732 294.454 86.7005C282.273 69.6939 258.709 80.6511 246.528 90.1246C240.95 84.646 234.005 85.9015 233.322 95.1467Z" fill="black"/>
<path d="M291.949 112.952C288.193 106.674 276.922 105.076 270.434 112.724C271.686 120.599 272.71 128.361 273.735 136.35C278.175 137.492 286.713 136.008 290.925 131.214C295.592 125.735 295.934 119.686 291.949 112.952Z" fill="#952C28"/>
<path d="M238.559 128.818C238.218 125.736 240.836 123.339 243.796 123.453C244.707 123.453 245.504 124.594 245.39 125.393C245.39 125.508 245.276 125.508 245.276 125.622C245.617 125.622 245.845 125.736 246.187 125.736C248.35 126.421 247.097 129.731 244.934 129.046C244.934 129.046 244.821 129.16 245.048 129.16C246.756 129.389 247.211 131.9 245.617 132.585C242.544 133.84 238.901 132.014 238.559 128.818Z" fill="#952C28"/>
<path d="M246.869 114.893C246.528 116.605 246.072 118.203 245.731 119.915C245.503 120.828 246.983 121.285 247.211 120.372C247.552 118.659 248.008 117.061 248.349 115.349C248.463 114.322 246.983 113.865 246.869 114.893Z" fill="black"/>
<path d="M283.525 116.605C282.5 117.86 281.476 119.116 280.451 120.486L279.654 121.513C279.085 122.312 280.109 123.339 280.792 122.654C282.045 121.056 283.411 119.458 284.663 117.746C285.232 116.947 284.094 115.806 283.525 116.605Z" fill="black"/>
<path d="M265.538 146.623C265.424 145.595 263.944 146.052 264.058 147.079C264.513 150.047 263.147 153.015 260.643 154.613C259.846 155.184 260.643 156.439 261.439 155.983C264.513 153.928 265.993 150.39 265.538 146.623Z" fill="black"/>
<path d="M250.284 106.674C249.032 106.446 247.78 106.218 246.414 105.875C245.617 105.761 244.706 106.104 244.479 106.903C244.251 107.702 244.706 108.615 245.503 108.843C246.755 109.072 248.008 109.3 249.374 109.642C250.171 109.756 251.081 109.414 251.309 108.615C251.537 107.816 251.081 106.789 250.284 106.674Z" fill="black"/>
<path d="M297.071 223.095C266.676 264.185 258.707 285.757 258.707 285.757C258.707 285.757 225.466 217.731 212.032 203.806C212.032 203.806 172.758 189.653 167.863 196.844C162.968 204.034 165.017 218.187 167.976 226.634C170.936 235.08 182.434 239.759 193.477 238.618C193.477 238.618 218.863 356.409 241.289 361.317C263.602 366.225 286.028 363.485 288.761 363.143C303.787 361.317 362.301 250.146 362.415 246.379C362.415 242.613 297.071 223.095 297.071 223.095Z" fill="#841E1E"/>
<path d="M262.124 292.72C261.327 290.78 260.53 288.725 259.733 286.784C259.391 285.985 258.025 286.328 258.367 287.127C259.164 289.067 259.961 291.122 260.757 293.062C261.099 293.861 262.465 293.519 262.124 292.72Z" fill="white"/>
<path d="M175.875 187.647L209.055 192.839L202.454 235.24L169.275 230.048L175.875 187.647Z" fill="#2252B2"/>
<path d="M185.964 196.957C184.711 205.404 183.459 213.736 182.321 222.182C182.093 223.894 184.711 224.693 185.053 222.981C186.305 214.535 187.557 206.203 188.696 197.756C188.923 195.93 186.191 195.131 185.964 196.957Z" fill="white"/>
<path d="M197.121 164.314C190.973 167.282 187.899 174.472 189.949 180.978C190.518 182.69 193.136 182.006 192.681 180.179C190.973 174.815 193.591 169.108 198.6 166.711C200.194 165.912 198.714 163.515 197.121 164.314Z" fill="#BCD7FD"/>
<path d="M200.99 169.108C197.006 171.733 194.956 176.185 195.639 180.864C195.867 182.691 198.599 181.892 198.372 180.065C197.916 176.641 199.51 173.331 202.47 171.505C203.836 170.592 202.47 168.195 200.99 169.108Z" fill="#BCD7FD"/>
<path d="M173.441 196.159C172.075 195.703 171.392 197.301 171.962 198.214C171.051 198.214 170.254 198.442 169.457 199.127C167.18 200.953 167.522 204.72 169.912 206.317C170.14 206.546 170.482 206.546 170.709 206.546C170.823 207.801 171.051 209.057 171.506 209.97C171.506 210.084 171.392 210.312 171.392 210.426C170.595 210.541 169.799 210.997 169.002 211.796C168.433 212.367 167.977 213.394 167.749 214.535C165.473 217.617 162.854 221.612 164.79 225.607C165.928 227.89 168.433 229.373 171.051 228.689C174.808 227.661 175.946 223.438 174.808 220.014C174.921 219.786 174.921 219.558 175.035 219.329C175.149 218.987 175.263 218.759 175.377 218.416C175.604 217.845 175.718 217.161 175.832 216.362C177.198 214.878 177.881 213.052 177.881 211.111C179.02 209.856 179.93 208.258 180.272 206.888C181.296 202.094 177.995 197.757 173.441 196.159ZM171.392 201.295C171.392 201.524 171.392 201.638 171.392 201.866C171.392 202.209 171.506 202.437 171.62 202.665C171.392 202.893 171.279 203.236 171.165 203.578C170.482 202.893 170.709 201.752 171.392 201.295Z" fill="#841E1E"/>
<path d="M176.288 208.144C172.645 207.231 170.027 204.263 169.344 200.611C169.23 199.926 168.091 200.154 168.205 200.953C168.888 204.948 171.962 208.258 175.946 209.286C176.743 209.4 176.971 208.258 176.288 208.144Z" fill="black"/>
<path d="M172.872 215.449C170.482 214.878 168.66 213.166 167.977 210.883C167.75 210.198 166.725 210.426 166.839 211.225C167.636 213.965 169.799 216.019 172.531 216.59C173.328 216.704 173.555 215.563 172.872 215.449Z" fill="black"/>
<path d="M172.416 223.895C170.139 223.438 168.318 221.612 167.976 219.215C167.863 218.53 166.724 218.758 166.838 219.557C167.293 222.297 169.456 224.465 172.075 225.036C172.872 225.15 173.213 224.009 172.416 223.895Z" fill="black"/>
<path d="M225.011 224.123C224.67 217.388 221.482 208.6 215.79 203.806C199.967 193.648 197.918 192.506 195.982 194.218C192.112 197.643 195.413 201.866 198.942 204.377C199.625 205.518 202.243 208.257 202.813 208.714C203.04 209.627 209.643 224.123 211.578 226.52C212.261 227.433 213.514 227.09 213.969 226.405C215.107 226.634 216.36 226.405 217.27 225.721C219.206 225.492 220.686 224.351 221.71 222.867C221.938 223.552 222.052 224.123 222.279 224.807C222.735 226.063 225.125 225.606 225.011 224.123Z" fill="#841E1E"/>
<path d="M211.237 223.781C209.985 221.384 208.619 218.987 207.367 216.59C207.025 215.905 206.001 216.476 206.342 217.16L210.213 224.352C210.668 225.037 211.579 224.466 211.237 223.781Z" fill="black"/>
<path d="M432.767 366.453H300.144C300.03 364.741 299.802 362.915 299.688 360.86C299.005 353.441 298.208 344.196 297.412 333.81C297.298 331.983 297.07 330.157 296.956 328.217C296.728 325.82 296.615 323.309 296.387 320.684C296.273 318.857 296.159 317.031 295.932 315.091C295.249 306.416 294.679 297.285 294.11 288.04C293.996 286.214 293.882 284.274 293.769 282.447C293.655 279.936 293.427 277.425 293.313 275.028C293.199 273.202 293.086 271.262 292.972 269.436C292.516 261.218 292.175 253.114 291.833 245.124C291.72 243.298 291.72 241.358 291.606 239.531C291.492 237.02 291.492 234.509 291.378 232.112C291.378 230.172 291.264 228.346 291.264 226.52C291.036 215.562 291.036 205.29 291.378 196.616C291.492 194.675 291.492 192.849 291.606 191.023C291.72 189.881 291.72 188.854 291.833 187.713C291.947 186.229 292.175 184.859 292.403 183.49C292.744 181.549 293.199 179.609 293.769 177.897C299.574 160.091 316.423 151.417 325.871 156.439C331.905 159.749 342.151 167.168 342.151 167.168C346.704 170.478 350.916 174.13 355.014 177.897C356.95 179.723 358.885 181.549 360.706 183.49C363.097 185.887 365.374 188.398 367.537 191.023C369.131 192.849 370.724 194.675 372.204 196.616C379.604 205.861 386.093 215.905 391.899 226.52C392.923 228.346 393.948 230.286 394.858 232.112C396.111 234.624 397.363 237.02 398.501 239.531C399.412 241.358 400.209 243.298 401.12 245.124C404.649 253 407.836 261.218 410.682 269.436C411.365 271.262 411.934 273.202 412.617 275.028C413.414 277.539 414.211 279.936 415.008 282.447C415.577 284.274 416.147 286.214 416.716 288.04C419.334 297.057 421.611 306.074 423.66 315.091C424.115 316.917 424.457 318.857 424.912 320.684C425.481 323.195 425.937 325.706 426.392 328.217C426.734 330.043 427.075 331.983 427.417 333.81C429.124 342.941 430.49 352.072 431.743 360.86C431.97 362.458 432.198 363.942 432.426 365.54C432.653 365.768 432.767 366.111 432.767 366.453Z" fill="#FECA55"/>
<path d="M324.504 271.033C322.455 253.342 320.52 235.651 318.47 217.959C318.357 217.046 316.991 217.046 317.104 217.959C319.153 235.651 321.089 253.342 323.138 271.033C323.593 271.033 324.049 271.033 324.504 271.033Z" fill="white"/>
<path d="M432.766 366.454H300.143C300.029 364.741 299.801 362.915 299.688 360.86H432.083C432.311 362.458 432.539 363.942 432.766 365.54C432.652 365.769 432.766 366.111 432.766 366.454Z" fill="white"/>
<path d="M425.029 320.684H296.276C296.162 318.857 296.048 317.031 295.82 315.091H423.776C424.232 316.917 424.687 318.743 425.029 320.684Z" fill="white"/>
<path d="M427.646 333.696H297.299C297.185 331.869 296.958 330.043 296.844 328.103H426.507C426.963 330.043 427.304 331.869 427.646 333.696Z" fill="white"/>
<path d="M360.819 183.376H292.516C292.857 181.435 293.313 179.495 293.882 177.783H355.127C357.063 179.609 358.998 181.435 360.819 183.376Z" fill="white"/>
<path d="M372.432 196.389H291.492C291.606 194.448 291.606 192.622 291.72 190.795H367.765C369.359 192.622 370.839 194.562 372.432 196.389Z" fill="white"/>
<path d="M395.087 231.885H291.493C291.493 229.944 291.379 228.118 291.379 226.292H392.127C393.152 228.118 394.062 230.059 395.087 231.885Z" fill="white"/>
<path d="M401.347 245.011H291.833C291.719 243.184 291.719 241.244 291.605 239.417H398.729C399.64 241.244 400.55 243.07 401.347 245.011Z" fill="white"/>
<path d="M412.846 274.915H293.314C293.2 273.089 293.086 271.148 292.973 269.322H410.911C411.594 271.148 412.277 272.974 412.846 274.915Z" fill="white"/>
<path d="M395.657 285.871C394.974 284.159 342.835 282.219 325.987 285.643L327.125 297.742C269.978 298.655 232.866 308.585 211.692 316.917C197.803 320.227 175.149 324.678 168.888 331.755C161.488 340.201 155.683 345.337 161.375 350.702C160.692 351.957 163.196 357.094 165.928 355.724C165.359 356.637 167.067 359.376 171.506 359.605C174.808 362.458 181.638 358.691 185.622 352.642C189.151 351.615 193.364 350.816 196.665 346.479C196.665 346.479 213.286 354.583 234.232 342.598C234.232 342.598 278.174 366.567 364.237 358.691C417.97 353.784 412.391 328.559 395.657 285.871Z" fill="#952C28"/>
<path d="M334.296 298.084C332.702 297.856 330.994 297.628 329.401 297.399C328.49 297.285 328.148 298.655 329.059 298.769C330.653 298.997 332.361 299.226 333.954 299.454C334.865 299.568 335.207 298.198 334.296 298.084Z" fill="white"/>
<path d="M183.231 343.054C178.791 347.278 175.034 352.186 172.075 357.55C171.619 358.349 172.872 359.034 173.327 358.235C176.287 352.984 179.93 348.191 184.256 344.082C184.939 343.397 183.914 342.37 183.231 343.054Z" fill="black"/>
<path d="M177.426 337.576C172.531 342.484 168.888 348.191 166.498 354.697C166.156 355.496 167.522 355.952 167.864 355.039C170.141 348.761 173.67 343.169 178.451 338.489C179.134 337.918 178.109 336.891 177.426 337.576Z" fill="black"/>
<path d="M174.579 332.782C166.611 334.265 163.765 342.141 161.602 348.989C161.374 349.902 162.74 350.245 162.968 349.332C164.903 342.94 167.521 335.521 174.921 334.151C175.832 334.037 175.376 332.668 174.579 332.782Z" fill="black"/>
<path d="M416.944 287.927H294.111C293.997 286.1 293.883 284.16 293.77 282.333H415.35C415.806 284.274 416.375 286.1 416.944 287.927Z" fill="white"/>
<path d="M392.405 494.978H219.319C217.045 494.978 215.111 493.155 215.111 490.763C215.111 488.484 216.931 486.548 219.319 486.548H392.405C412.421 486.548 429.706 472.991 434.597 453.509L497.258 200.71C497.827 198.431 500.101 197.064 502.375 197.634C504.65 198.203 506.015 200.482 505.446 202.76L442.785 455.56C436.871 478.801 416.173 494.978 392.405 494.978Z" fill="#D4D4D4"/>
<path d="M161.29 358.053C145.678 321.618 137.184 302.893 121.572 266.459C120.883 264.879 118.128 265.556 118.817 267.248C134.428 303.683 142.923 322.408 158.535 358.842C159.339 360.422 162.094 359.745 161.29 358.053Z" fill="black"/>
<path d="M262.422 358.053H161.633C159.797 358.053 159.797 360.873 161.633 360.873H262.422C264.258 360.76 264.258 358.053 262.422 358.053Z" fill="black"/>
<path d="M154.288 242.207L139.25 262.511C138.217 263.977 140.628 265.331 141.661 263.864C146.712 257.096 151.648 250.328 156.699 243.56C157.732 242.207 155.321 240.853 154.288 242.207Z" fill="#FECA55"/>
<path d="M163.127 261.044L144.301 271.197C142.694 272.1 144.186 274.469 145.678 273.566L164.504 263.413C166.226 262.624 164.734 260.255 163.127 261.044Z" fill="#FECA55"/>
</g>
<defs>
<clipPath id="clip0">
<rect width="415.602" height="310.985" fill="white" transform="translate(17.4062 51.0156)"/>
</clipPath>
</defs>
</svg>
