<svg fill="none" height="362" viewBox="0 0 470 362" width="470" xmlns="http://www.w3.org/2000/svg" xmlns:xlink="http://www.w3.org/1999/xlink"><clipPath id="a"><path d="m17.4062 51.0156h415.602v310.985h-415.602z"/></clipPath><path d="m452.18 0h-434.3601c-9.84166 0-17.8199 8.04949-17.8199 17.979v325.87c0 9.93 7.97824 17.979 17.8199 17.979h434.3601c9.842 0 17.82-8.049 17.82-17.979v-325.87c0-9.92951-7.978-17.979-17.82-17.979z" fill="#eff5fa"/><g clip-path="url(#a)"><path d="m203.848 112.566h-125.1v97.946h125.1z" fill="#ff647c"/><path d="m171.866 133.005h-65.205c-1.808 0-1.808 2.87 0 2.87h65.205c1.808-.114 1.808-2.87 0-2.87z" fill="#fff"/><path d="m171.866 149.884h-65.205c-1.808 0-1.808 2.871 0 2.871h65.205c1.808 0 1.808-2.871 0-2.871z" fill="#fff"/><path d="m171.866 166.764h-65.205c-1.808 0-1.808 2.871 0 2.871h65.205c1.808 0 1.808-2.871 0-2.871z" fill="#fff"/><path d="m154.237 183.758h-47.915c-1.356 0-1.356 2.87 0 2.87h47.915c1.243-.114 1.243-2.87 0-2.87z" fill="#fff"/><path d="m100.785 142.191c-.339 0-.678-.115-1.0168-.459l-6.8934-7.349c-.5651-.574-.4521-1.378 0-1.952l6.8934-7.004c.5648-.574 1.4688-.574 1.9208 0 .565.574.565 1.492 0 1.952l-5.989 6.085 5.989 6.431c.565.574.452 1.492 0 1.952-.226.115-.565.344-.904.344z" fill="#fff"/><path d="m160.453 194.666c-.339 0-.678-.115-1.018-.459-.565-.574-.565-1.493 0-1.952l5.99-6.086-5.99-6.43c-.565-.574-.452-1.493 0-1.952.566-.574 1.47-.46 1.922 0l6.893 7.348c.565.575.452 1.378 0 1.953l-6.893 7.004c-.226.459-.565.574-.904.574z" fill="#fff"/><path d="m70.1599 105.907c-5.5373-6.3155-11.1877-12.6309-16.7251-18.9463-1.2431-1.3779-3.1642.689-1.9211 1.9521l16.7251 18.9462c1.1301 1.378 3.1642-.574 1.9211-1.952z" fill="#bcd7fd"/><path d="m222.269 93.9642c-4.408 4.2486-8.815 8.4968-13.222 12.6308-1.243 1.263.678 3.215 1.921 1.952 4.407-4.249 8.815-8.497 13.222-12.6307 1.356-1.2631-.678-3.2151-1.921-1.9521z" fill="#bcd7fd"/><path d="m75.1333 212.234c-3.7293 4.708-7.4585 9.301-11.1878 14.009-1.13 1.378.7911 3.445 1.9212 1.952 3.7292-4.708 7.4585-9.301 11.1877-14.009 1.1301-1.263-.791-3.33-1.9211-1.952z" fill="#bcd7fd"/><path d="m275.441 159.521c1.48.57 32.786 46.682 32.786 46.682l32.786-37.551-42.804-31.959z" fill="#952c28"/><path d="m285.46 173.217c-5.237-7.533-9.563-13.468-10.132-13.696l8.424-8.561c3.529 6.963 4.782 15.751 1.708 22.257z" fill="#000"/><path d="m291.04 85.4454c-9.108-9.0169-32.217-4.908-44.398 4.4514-5.35 4.1089-10.246 1.3696-9.335 6.8483 2.163 13.5819 9.335 57.2969 17.759 64.4879 14.799 12.441 34.266-.685 40.186-16.436 5.805-15.865 8.765-46.454-4.212-59.3516z" fill="#952c28"/><path d="m233.322 95.1467c2.277 10.8433 22.199 5.2503 32.331.1141 2.732 11.6422 10.928 40.5192 33.81 42.1172 9.221-20.659 8.31-51.7048-5.009-50.6775-12.181-17.0066-35.745-6.0494-47.926 3.4241-5.578-5.4786-12.523-4.2231-13.206 5.0221z" fill="#000"/><path d="m291.949 112.952c-3.756-6.278-15.027-7.876-21.515-.228 1.252 7.875 2.276 15.637 3.301 23.626 4.44 1.142 12.978-.342 17.19-5.136 4.667-5.479 5.009-11.528 1.024-18.262z" fill="#952c28"/><path d="m238.559 128.818c-.341-3.082 2.277-5.479 5.237-5.365.911 0 1.708 1.141 1.594 1.94 0 .115-.114.115-.114.229.341 0 .569.114.911.114 2.163.685.91 3.995-1.253 3.31 0 0-.113.114.114.114 1.708.229 2.163 2.74.569 3.425-3.073 1.255-6.716-.571-7.058-3.767z" fill="#952c28"/><path d="m246.869 114.893c-.341 1.712-.797 3.31-1.138 5.022-.228.913 1.252 1.37 1.48.457.341-1.713.797-3.311 1.138-5.023.114-1.027-1.366-1.484-1.48-.456z" fill="#000"/><path d="m283.525 116.605c-1.025 1.255-2.049 2.511-3.074 3.881l-.797 1.027c-.569.799.455 1.826 1.138 1.141 1.253-1.598 2.619-3.196 3.871-4.908.569-.799-.569-1.94-1.138-1.141z" fill="#000"/><path d="m265.538 146.623c-.114-1.028-1.594-.571-1.48.456.455 2.968-.911 5.936-3.415 7.534-.797.571 0 1.826.796 1.37 3.074-2.055 4.554-5.593 4.099-9.36z" fill="#000"/><path d="m250.284 106.674c-1.252-.228-2.504-.456-3.87-.799-.797-.114-1.708.229-1.935 1.028-.228.799.227 1.712 1.024 1.94 1.252.229 2.505.457 3.871.799.797.114 1.707-.228 1.935-1.027s-.228-1.826-1.025-1.941z" fill="#000"/><path d="m297.071 223.095c-30.395 41.09-38.364 62.662-38.364 62.662s-33.241-68.026-46.675-81.951c0 0-39.274-14.153-44.169-6.962-4.895 7.19-2.846 21.343.113 29.79 2.96 8.446 14.458 13.125 25.501 11.984 0 0 25.386 117.791 47.812 122.699 22.313 4.908 44.739 2.168 47.472 1.826 15.026-1.826 73.54-112.997 73.654-116.764 0-3.766-65.344-23.284-65.344-23.284z" fill="#841e1e"/><path d="m262.124 292.72c-.797-1.94-1.594-3.995-2.391-5.936-.342-.799-1.708-.456-1.366.343.797 1.94 1.594 3.995 2.39 5.935.342.799 1.708.457 1.367-.342z" fill="#fff"/><path d="m175.875 187.647 33.18 5.192-6.601 42.401-33.179-5.192z" fill="#2252b2"/><path d="m185.964 196.957c-1.253 8.447-2.505 16.779-3.643 25.225-.228 1.712 2.39 2.511 2.732.799 1.252-8.446 2.504-16.778 3.643-25.225.227-1.826-2.505-2.625-2.732-.799z" fill="#fff"/><path d="m197.121 164.314c-6.148 2.968-9.222 10.158-7.172 16.664.569 1.712 3.187 1.028 2.732-.799-1.708-5.364.91-11.071 5.919-13.468 1.594-.799.114-3.196-1.479-2.397z" fill="#bcd7fd"/><path d="m200.99 169.108c-3.984 2.625-6.034 7.077-5.351 11.756.228 1.827 2.96 1.028 2.733-.799-.456-3.424 1.138-6.734 4.098-8.56 1.366-.913 0-3.31-1.48-2.397z" fill="#bcd7fd"/><path d="m173.441 196.159c-1.366-.456-2.049 1.142-1.479 2.055-.911 0-1.708.228-2.505.913-2.277 1.826-1.935 5.593.455 7.19.228.229.57.229.797.229.114 1.255.342 2.511.797 3.424 0 .114-.114.342-.114.456-.797.115-1.593.571-2.39 1.37-.569.571-1.025 1.598-1.253 2.739-2.276 3.082-4.895 7.077-2.959 11.072 1.138 2.283 3.643 3.766 6.261 3.082 3.757-1.028 4.895-5.251 3.757-8.675.113-.228.113-.456.227-.685.114-.342.228-.57.342-.913.227-.571.341-1.255.455-2.054 1.366-1.484 2.049-3.31 2.049-5.251 1.139-1.255 2.049-2.853 2.391-4.223 1.024-4.794-2.277-9.131-6.831-10.729zm-2.049 5.136v.571c0 .343.114.571.228.799-.228.228-.341.571-.455.913-.683-.685-.456-1.826.227-2.283z" fill="#841e1e"/><path d="m176.288 208.144c-3.643-.913-6.261-3.881-6.944-7.533-.114-.685-1.253-.457-1.139.342.683 3.995 3.757 7.305 7.741 8.333.797.114 1.025-1.028.342-1.142z" fill="#000"/><path d="m172.872 215.449c-2.39-.571-4.212-2.283-4.895-4.566-.227-.685-1.252-.457-1.138.342.797 2.74 2.96 4.794 5.692 5.365.797.114 1.024-1.027.341-1.141z" fill="#000"/><path d="m172.416 223.895c-2.277-.457-4.098-2.283-4.44-4.68-.113-.685-1.252-.457-1.138.342.455 2.74 2.618 4.908 5.237 5.479.797.114 1.138-1.027.341-1.141z" fill="#000"/><path d="m225.011 224.123c-.341-6.735-3.529-15.523-9.221-20.317-15.823-10.158-17.872-11.3-19.808-9.588-3.87 3.425-.569 7.648 2.96 10.159.683 1.141 3.301 3.88 3.871 4.337.227.913 6.83 15.409 8.765 17.806.683.913 1.936.57 2.391-.115 1.138.229 2.391 0 3.301-.684 1.936-.229 3.416-1.37 4.44-2.854.228.685.342 1.256.569 1.94.456 1.256 2.846.799 2.732-.684z" fill="#841e1e"/><path d="m211.237 223.781c-1.252-2.397-2.618-4.794-3.87-7.191-.342-.685-1.366-.114-1.025.57l3.871 7.192c.455.685 1.366.114 1.024-.571z" fill="#000"/><path d="m432.767 366.453h-132.623c-.114-1.712-.342-3.538-.456-5.593-.683-7.419-1.48-16.664-2.276-27.05-.114-1.827-.342-3.653-.456-5.593-.228-2.397-.341-4.908-.569-7.533-.114-1.827-.228-3.653-.455-5.593-.683-8.675-1.253-17.806-1.822-27.051-.114-1.826-.228-3.766-.341-5.593-.114-2.511-.342-5.022-.456-7.419-.114-1.826-.227-3.766-.341-5.592-.456-8.218-.797-16.322-1.139-24.312-.113-1.826-.113-3.766-.227-5.593-.114-2.511-.114-5.022-.228-7.419 0-1.94-.114-3.766-.114-5.592-.228-10.958-.228-21.23.114-29.904.114-1.941.114-3.767.228-5.593.114-1.142.114-2.169.227-3.31.114-1.484.342-2.854.57-4.223.341-1.941.796-3.881 1.366-5.593 5.805-17.806 22.654-26.48 32.102-21.458 6.034 3.31 16.28 10.729 16.28 10.729 4.553 3.31 8.765 6.962 12.863 10.729 1.936 1.826 3.871 3.652 5.692 5.593 2.391 2.397 4.668 4.908 6.831 7.533 1.594 1.826 3.187 3.652 4.667 5.593 7.4 9.245 13.889 19.289 19.695 29.904 1.024 1.826 2.049 3.766 2.959 5.592 1.253 2.512 2.505 4.908 3.643 7.419.911 1.827 1.708 3.767 2.619 5.593 3.529 7.876 6.716 16.094 9.562 24.312.683 1.826 1.252 3.766 1.935 5.592.797 2.511 1.594 4.908 2.391 7.419.569 1.827 1.139 3.767 1.708 5.593 2.618 9.017 4.895 18.034 6.944 27.051.455 1.826.797 3.766 1.252 5.593.569 2.511 1.025 5.022 1.48 7.533.342 1.826.683 3.766 1.025 5.593 1.707 9.131 3.073 18.262 4.326 27.05.227 1.598.455 3.082.683 4.68.227.228.341.571.341.913z" fill="#feca55"/><g fill="#fff"><path d="m324.504 271.033c-2.049-17.691-3.984-35.382-6.034-53.074-.113-.913-1.479-.913-1.366 0 2.049 17.692 3.985 35.383 6.034 53.074z"/><path d="m432.766 366.454h-132.623c-.114-1.713-.342-3.539-.455-5.594h132.395c.228 1.598.456 3.082.683 4.68-.114.229 0 .571 0 .914z"/><path d="m425.029 320.684h-128.753c-.114-1.827-.228-3.653-.456-5.593h127.956c.456 1.826.911 3.652 1.253 5.593z"/><path d="m427.646 333.696h-130.347c-.114-1.827-.341-3.653-.455-5.593h129.663c.456 1.94.797 3.766 1.139 5.593z"/><path d="m360.819 183.376h-68.303c.341-1.941.797-3.881 1.366-5.593h61.245c1.936 1.826 3.871 3.652 5.692 5.593z"/><path d="m372.432 196.389h-80.94c.114-1.941.114-3.767.228-5.594h76.045c1.594 1.827 3.074 3.767 4.667 5.594z"/><path d="m395.087 231.885h-103.594c0-1.941-.114-3.767-.114-5.593h100.748c1.025 1.826 1.935 3.767 2.96 5.593z"/><path d="m401.347 245.011h-109.514c-.114-1.827-.114-3.767-.228-5.594h107.124c.911 1.827 1.821 3.653 2.618 5.594z"/><path d="m412.846 274.915h-119.532c-.114-1.826-.228-3.767-.341-5.593h117.938c.683 1.826 1.366 3.652 1.935 5.593z"/></g><path d="m395.657 285.871c-.683-1.712-52.822-3.652-69.67-.228l1.138 12.099c-57.147.913-94.259 10.843-115.433 19.175-13.889 3.31-36.543 7.761-42.804 14.838-7.4 8.446-13.205 13.582-7.513 18.947-.683 1.255 1.821 6.392 4.553 5.022-.569.913 1.139 3.652 5.578 3.881 3.302 2.853 10.132-.914 14.116-6.963 3.529-1.027 7.742-1.826 11.043-6.163 0 0 16.621 8.104 37.567-3.881 0 0 43.942 23.969 130.005 16.093 53.733-4.907 48.154-30.132 31.42-72.82z" fill="#952c28"/><path d="m334.296 298.084c-1.594-.228-3.302-.456-4.895-.685-.911-.114-1.253 1.256-.342 1.37 1.594.228 3.302.457 4.895.685.911.114 1.253-1.256.342-1.37z" fill="#fff"/><path d="m183.231 343.054c-4.44 4.224-8.197 9.132-11.156 14.496-.456.799.797 1.484 1.252.685 2.96-5.251 6.603-10.044 10.929-14.153.683-.685-.342-1.712-1.025-1.028z" fill="#000"/><path d="m177.426 337.576c-4.895 4.908-8.538 10.615-10.928 17.121-.342.799 1.024 1.255 1.366.342 2.277-6.278 5.806-11.87 10.587-16.55.683-.571-.342-1.598-1.025-.913z" fill="#000"/><path d="m174.579 332.782c-7.968 1.483-10.814 9.359-12.977 16.207-.228.913 1.138 1.256 1.366.343 1.935-6.392 4.553-13.811 11.953-15.181.911-.114.455-1.483-.342-1.369z" fill="#000"/><path d="m416.944 287.927h-122.833c-.114-1.827-.228-3.767-.341-5.594h121.58c.456 1.941 1.025 3.767 1.594 5.594z" fill="#fff"/><path d="m392.405 494.978h-173.086c-2.274 0-4.208-1.823-4.208-4.215 0-2.279 1.82-4.215 4.208-4.215h173.086c20.016 0 37.301-13.557 42.192-33.039l62.661-252.799c.569-2.279 2.843-3.646 5.117-3.076 2.275.569 3.64 2.848 3.071 5.126l-62.661 252.8c-5.914 23.241-26.612 39.418-50.38 39.418z" fill="#d4d4d4"/><path d="m161.29 358.053c-15.612-36.435-24.106-55.16-39.718-91.594-.689-1.58-3.444-.903-2.755.789 15.611 36.435 24.106 55.16 39.718 91.594.804 1.58 3.559.903 2.755-.789z" fill="#000"/><path d="m262.422 358.053h-100.789c-1.836 0-1.836 2.82 0 2.82h100.789c1.836-.113 1.836-2.82 0-2.82z" fill="#000"/><path d="m154.288 242.207-15.038 20.304c-1.033 1.466 1.378 2.82 2.411 1.353 5.051-6.768 9.987-13.536 15.038-20.304 1.033-1.353-1.378-2.707-2.411-1.353z" fill="#feca55"/><path d="m163.127 261.044-18.826 10.153c-1.607.903-.115 3.272 1.377 2.369l18.826-10.153c1.722-.789.23-3.158-1.377-2.369z" fill="#feca55"/></g></svg>