<svg width="24" height="24" viewBox="0 0 24 24" fill="none" xmlns="http://www.w3.org/2000/svg">
<path fill-rule="evenodd" clip-rule="evenodd" d="M2.66667 24H21.3333C22.8061 24 24 22.8061 24 21.3333V2.66667C24 1.19391 22.8061 0 21.3333 0H2.66667C1.19391 0 0 1.19391 0 2.66667V21.3333C0 22.8061 1.19391 24 2.66667 24Z" fill="#0A66C2"/>
<path fill-rule="evenodd" clip-rule="evenodd" d="M20.6673 20.6673H17.1059V14.6014C17.1059 12.9382 16.4739 12.0088 15.1576 12.0088C13.7255 12.0088 12.9773 12.976 12.9773 14.6014V20.6673H9.54509V9.11176H12.9773V10.6683C12.9773 10.6683 14.0093 8.75872 16.4615 8.75872C18.9125 8.75872 20.6673 10.2555 20.6673 13.3511V20.6673ZM5.45043 7.59866C4.28134 7.59866 3.33398 6.64387 3.33398 5.46632C3.33398 4.28877 4.28134 3.33398 5.45043 3.33398C6.61953 3.33398 7.56632 4.28877 7.56632 5.46632C7.56632 6.64387 6.61953 7.59866 5.45043 7.59866ZM3.67817 20.6673H7.25712V9.11176H3.67817V20.6673Z" fill="white"/>
</svg>
