<svg width="432" height="333" viewBox="0 0 432 333" fill="none" xmlns="http://www.w3.org/2000/svg">
<path d="M415.621 0.0839844H16.3791C7.33319 0.0839844 0 7.48678 0 16.6186V316.308C0 325.44 7.33319 332.843 16.3791 332.843H415.621C424.667 332.843 432 325.44 432 316.308V16.6186C432 7.48678 424.667 0.0839844 415.621 0.0839844Z" fill="#EFF5FA"/>
<g clip-path="url(#clip0)">
<path d="M187.368 103.605H72.3828V193.682H187.368V103.605Z" fill="#FF647C"/>
<path d="M157.973 122.402H98.0394C96.3775 122.402 96.3775 125.042 98.0394 125.042H157.973C159.635 124.936 159.635 122.402 157.973 122.402Z" fill="white"/>
<path d="M157.973 137.925H98.0394C96.3775 137.925 96.3775 140.565 98.0394 140.565H157.973C159.635 140.565 159.635 137.925 157.973 137.925Z" fill="white"/>
<path d="M157.973 153.448H98.0394C96.3775 153.448 96.3775 156.088 98.0394 156.088H157.973C159.635 156.088 159.635 153.448 157.973 153.448Z" fill="white"/>
<path d="M141.769 169.077H97.7278C96.4814 169.077 96.4814 171.717 97.7278 171.717H141.769C142.912 171.612 142.912 169.077 141.769 169.077Z" fill="white"/>
<path d="M92.6382 130.85C92.3266 130.85 92.015 130.744 91.7034 130.428L85.3673 123.669C84.8479 123.141 84.9518 122.402 85.3673 121.874L91.7034 115.432C92.2227 114.904 93.0537 114.904 93.4692 115.432C93.9886 115.96 93.9886 116.805 93.4692 117.228L87.964 122.824L93.4692 128.738C93.9886 129.266 93.8847 130.111 93.4692 130.533C93.2615 130.639 92.9498 130.85 92.6382 130.85Z" fill="white"/>
<path d="M147.481 179.109C147.169 179.109 146.857 179.004 146.546 178.687C146.026 178.159 146.026 177.314 146.546 176.892L152.051 171.295L146.546 165.381C146.026 164.853 146.13 164.008 146.546 163.586C147.065 163.058 147.896 163.164 148.312 163.586L154.648 170.344C155.167 170.872 155.063 171.612 154.648 172.14L148.312 178.581C148.104 179.004 147.792 179.109 147.481 179.109Z" fill="white"/>
<path d="M64.489 97.4804C59.3993 91.6724 54.2058 85.8644 49.1161 80.0564C47.9735 78.7892 46.2077 80.69 47.3503 81.8516L62.7232 99.2756C63.7619 100.543 65.6316 98.7476 64.489 97.4804Z" fill="#BCD7FD"/>
<path d="M204.3 86.498C200.249 90.4052 196.198 94.3124 192.147 98.114C191.005 99.2756 192.77 101.071 193.913 99.9092C197.964 96.002 202.015 92.0948 206.066 88.2932C207.312 87.1316 205.443 85.3364 204.3 86.498Z" fill="#BCD7FD"/>
<path d="M69.0603 195.266C65.6326 199.596 62.2048 203.82 58.7771 208.149C57.7384 209.417 59.5042 211.317 60.5429 209.945C63.9706 205.615 67.3984 201.391 70.8261 197.061C71.8648 195.9 70.099 193.999 69.0603 195.266Z" fill="#BCD7FD"/>
<path d="M253.172 146.788C254.532 147.312 283.307 189.72 283.307 189.72L313.442 155.185L274.099 125.794L253.172 146.788Z" fill="#952C28"/>
<path d="M262.379 159.384C257.566 152.456 253.59 146.997 253.066 146.787L260.809 138.915C264.053 145.318 265.204 153.4 262.379 159.384Z" fill="black"/>
<path d="M267.509 78.6633C259.138 70.3708 237.897 74.1496 226.701 82.757C221.783 86.5359 217.283 84.0167 218.121 89.0551C220.109 101.546 226.701 141.749 234.444 148.362C248.046 159.804 265.939 147.732 271.38 133.247C276.717 118.656 279.437 90.5247 267.509 78.6633Z" fill="#952C28"/>
<path d="M214.457 87.5855C216.55 97.5574 234.861 92.414 244.174 87.6904C246.685 98.3972 254.219 124.954 275.25 126.424C283.726 107.424 282.889 78.8731 270.646 79.8178C259.45 64.1776 237.791 74.2545 226.595 82.9669C221.468 77.9284 215.085 79.083 214.457 87.5855Z" fill="black"/>
<path d="M268.343 103.96C264.89 98.1872 254.531 96.7177 248.566 103.751C249.717 110.993 250.659 118.131 251.601 125.479C255.682 126.529 263.529 125.164 267.401 120.755C271.691 115.717 272.005 110.154 268.343 103.96Z" fill="#952C28"/>
<path d="M219.27 118.551C218.956 115.717 221.363 113.513 224.083 113.618C224.92 113.618 225.653 114.667 225.548 115.402C225.548 115.507 225.443 115.507 225.443 115.612C225.757 115.612 225.967 115.717 226.28 115.717C228.269 116.347 227.118 119.391 225.129 118.761C225.129 118.761 225.025 118.866 225.234 118.866C226.804 119.076 227.222 121.385 225.757 122.015C222.932 123.17 219.584 121.49 219.27 118.551Z" fill="#952C28"/>
<path d="M226.908 105.745C226.594 107.319 226.176 108.789 225.862 110.364C225.652 111.203 227.013 111.623 227.222 110.783C227.536 109.209 227.954 107.739 228.268 106.165C228.373 105.22 227.013 104.8 226.908 105.745Z" fill="black"/>
<path d="M260.601 107.32C259.659 108.474 258.717 109.629 257.775 110.888L257.043 111.833C256.52 112.568 257.462 113.513 258.089 112.883C259.24 111.413 260.496 109.944 261.647 108.369C262.17 107.634 261.124 106.585 260.601 107.32Z" fill="black"/>
<path d="M244.068 134.926C243.964 133.981 242.603 134.401 242.708 135.346C243.127 138.075 241.871 140.804 239.569 142.274C238.837 142.799 239.569 143.953 240.301 143.533C243.127 141.644 244.487 138.39 244.068 134.926Z" fill="black"/>
<path d="M230.047 98.1873C228.896 97.9774 227.745 97.7674 226.489 97.4525C225.756 97.3476 224.919 97.6625 224.71 98.3973C224.501 99.132 224.919 99.9718 225.652 100.182C226.803 100.392 227.954 100.602 229.209 100.916C229.942 101.021 230.779 100.707 230.988 99.9718C231.198 99.237 230.779 98.2923 230.047 98.1873Z" fill="black"/>
<path d="M273.056 205.255C245.118 243.043 237.794 262.882 237.794 262.882C237.794 262.882 207.24 200.321 194.893 187.515C194.893 187.515 158.794 174.499 154.295 181.112C149.795 187.725 151.679 200.741 154.399 208.509C157.12 216.277 167.688 220.58 177.838 219.531C177.838 219.531 201.171 327.858 221.785 332.371C242.293 336.885 262.907 334.366 265.418 334.051C279.23 332.371 333.012 230.132 333.117 226.668C333.117 223.204 273.056 205.255 273.056 205.255Z" fill="#841E1E"/>
<path d="M240.933 269.285C240.2 267.501 239.468 265.612 238.735 263.827C238.421 263.092 237.166 263.407 237.48 264.142C238.212 265.927 238.945 267.816 239.677 269.6C239.991 270.335 241.247 270.02 240.933 269.285Z" fill="white"/>
<path d="M161.656 172.654L192.153 177.429L186.087 216.424L155.59 211.649L161.656 172.654Z" fill="#2252B2"/>
<path d="M170.932 181.217C169.781 188.985 168.63 196.647 167.583 204.415C167.374 205.99 169.781 206.724 170.094 205.15C171.245 197.382 172.396 189.719 173.443 181.952C173.652 180.272 171.141 179.538 170.932 181.217Z" fill="white"/>
<path d="M181.185 151.196C175.535 153.925 172.709 160.538 174.593 166.522C175.116 168.096 177.523 167.466 177.104 165.787C175.535 160.853 177.941 155.605 182.545 153.401C184.01 152.666 182.65 150.461 181.185 151.196Z" fill="#BCD7FD"/>
<path d="M184.744 155.605C181.082 158.019 179.198 162.113 179.826 166.417C180.035 168.096 182.547 167.361 182.337 165.682C181.919 162.533 183.384 159.489 186.104 157.809C187.36 156.97 186.104 154.765 184.744 155.605Z" fill="#BCD7FD"/>
<path d="M159.42 180.482C158.164 180.062 157.536 181.532 158.06 182.372C157.223 182.372 156.49 182.582 155.758 183.212C153.665 184.891 153.979 188.355 156.176 189.825C156.385 190.034 156.699 190.034 156.909 190.034C157.013 191.189 157.223 192.344 157.641 193.183C157.641 193.288 157.536 193.498 157.536 193.603C156.804 193.708 156.072 194.128 155.339 194.863C154.816 195.388 154.397 196.333 154.188 197.382C152.095 200.216 149.689 203.89 151.468 207.564C152.514 209.663 154.816 211.028 157.223 210.398C160.676 209.454 161.722 205.57 160.676 202.421C160.78 202.211 160.78 202.001 160.885 201.791C160.989 201.476 161.094 201.266 161.199 200.951C161.408 200.426 161.513 199.796 161.617 199.062C162.873 197.697 163.501 196.018 163.501 194.233C164.547 193.079 165.384 191.609 165.698 190.349C166.64 185.941 163.605 181.952 159.42 180.482ZM157.536 185.206C157.536 185.416 157.536 185.521 157.536 185.731C157.536 186.046 157.641 186.256 157.746 186.466C157.536 186.675 157.432 186.99 157.327 187.305C156.699 186.675 156.909 185.626 157.536 185.206Z" fill="#841E1E"/>
<path d="M162.034 191.504C158.686 190.664 156.279 187.935 155.651 184.576C155.547 183.946 154.5 184.156 154.605 184.891C155.233 188.565 158.058 191.609 161.72 192.554C162.453 192.659 162.662 191.609 162.034 191.504Z" fill="black"/>
<path d="M158.898 198.222C156.7 197.697 155.026 196.122 154.398 194.023C154.189 193.393 153.247 193.603 153.352 194.338C154.084 196.857 156.072 198.747 158.584 199.271C159.316 199.376 159.525 198.327 158.898 198.222Z" fill="black"/>
<path d="M158.478 205.99C156.386 205.57 154.711 203.89 154.397 201.686C154.293 201.056 153.246 201.266 153.351 202.001C153.77 204.52 155.758 206.514 158.164 207.039C158.897 207.144 159.211 206.095 158.478 205.99Z" fill="black"/>
<path d="M206.821 206.199C206.507 200.006 203.577 191.924 198.345 187.515C183.801 178.173 181.917 177.123 180.138 178.698C176.581 181.847 179.615 185.731 182.859 188.04C183.487 189.09 185.893 191.609 186.417 192.029C186.626 192.869 192.695 206.199 194.474 208.404C195.101 209.244 196.252 208.929 196.671 208.299C197.717 208.509 198.868 208.299 199.705 207.669C201.484 207.459 202.844 206.409 203.786 205.045C203.995 205.675 204.1 206.199 204.309 206.829C204.728 207.984 206.925 207.564 206.821 206.199Z" fill="#841E1E"/>
<path d="M194.16 205.885C193.009 203.68 191.754 201.476 190.603 199.272C190.289 198.642 189.347 199.167 189.661 199.796L193.218 206.409C193.637 207.039 194.474 206.514 194.16 205.885Z" fill="black"/>
<path d="M397.778 337.095H275.878C275.773 335.52 275.564 333.841 275.459 331.951C274.831 325.128 274.099 316.626 273.366 307.074C273.262 305.394 273.053 303.715 272.948 301.93C272.739 299.726 272.634 297.417 272.425 295.002C272.32 293.323 272.215 291.643 272.006 289.859C271.378 281.881 270.855 273.484 270.332 264.982C270.227 263.302 270.123 261.518 270.018 259.838C269.914 257.529 269.704 255.22 269.6 253.015C269.495 251.336 269.39 249.551 269.286 247.872C268.867 240.314 268.553 232.861 268.239 225.514C268.135 223.834 268.135 222.05 268.03 220.37C267.925 218.061 267.925 215.751 267.821 213.547C267.821 211.763 267.716 210.083 267.716 208.404C267.507 198.327 267.507 188.88 267.821 180.902C267.925 179.118 267.925 177.438 268.03 175.759C268.135 174.709 268.135 173.764 268.239 172.715C268.344 171.35 268.553 170.09 268.763 168.831C269.076 167.046 269.495 165.262 270.018 163.687C275.355 147.312 290.841 139.335 299.525 143.953C305.071 146.997 314.488 153.82 314.488 153.82C318.674 156.864 322.545 160.223 326.312 163.687C328.091 165.367 329.87 167.046 331.544 168.831C333.741 171.035 335.834 173.344 337.822 175.759C339.287 177.438 340.752 179.118 342.112 180.902C348.914 189.404 354.878 198.642 360.214 208.404C361.156 210.083 362.098 211.868 362.935 213.547C364.086 215.856 365.237 218.061 366.283 220.37C367.12 222.05 367.853 223.834 368.69 225.514C371.933 232.756 374.863 240.314 377.479 247.872C378.107 249.551 378.63 251.336 379.258 253.015C379.99 255.324 380.723 257.529 381.455 259.838C381.978 261.518 382.502 263.302 383.025 264.982C385.431 273.274 387.524 281.567 389.408 289.859C389.826 291.538 390.14 293.323 390.559 295.002C391.082 297.312 391.5 299.621 391.919 301.93C392.233 303.61 392.547 305.394 392.861 307.074C394.43 315.471 395.686 323.869 396.837 331.951C397.046 333.421 397.255 334.785 397.465 336.255C397.674 336.465 397.778 336.78 397.778 337.095Z" fill="#FECA55"/>
<path d="M298.268 249.341C296.385 233.071 294.606 216.801 292.723 200.531C292.618 199.691 291.362 199.691 291.467 200.531C293.351 216.801 295.129 233.071 297.013 249.341C297.431 249.341 297.85 249.341 298.268 249.341Z" fill="white"/>
<path d="M397.776 337.095H275.876C275.771 335.52 275.562 333.841 275.457 331.951H397.148C397.358 333.421 397.567 334.785 397.776 336.255C397.672 336.465 397.776 336.78 397.776 337.095Z" fill="white"/>
<path d="M390.664 295.002H272.321C272.216 293.323 272.112 291.643 271.902 289.859H389.513C389.931 291.538 390.35 293.218 390.664 295.002Z" fill="white"/>
<path d="M393.07 306.969H273.262C273.158 305.289 272.948 303.61 272.844 301.825H392.024C392.442 303.61 392.756 305.289 393.07 306.969Z" fill="white"/>
<path d="M331.649 168.726H268.867C269.181 166.941 269.6 165.157 270.123 163.582H326.417C328.196 165.262 329.974 166.941 331.649 168.726Z" fill="white"/>
<path d="M342.322 180.692H267.926C268.03 178.908 268.03 177.228 268.135 175.549H338.032C339.497 177.228 340.857 179.013 342.322 180.692Z" fill="white"/>
<path d="M363.143 213.337H267.925C267.925 211.553 267.82 209.873 267.82 208.194H360.423C361.365 209.873 362.202 211.658 363.143 213.337Z" fill="white"/>
<path d="M368.9 225.409H268.241C268.136 223.729 268.136 221.945 268.031 220.265H366.493C367.331 221.945 368.168 223.624 368.9 225.409Z" fill="white"/>
<path d="M379.467 252.91H269.599C269.494 251.231 269.39 249.446 269.285 247.767H377.688C378.316 249.446 378.943 251.126 379.467 252.91Z" fill="white"/>
<path d="M363.668 262.987C363.04 261.413 315.117 259.628 299.631 262.777L300.677 273.904C248.15 274.744 214.039 283.876 194.577 291.539C181.811 294.583 160.989 298.676 155.234 305.184C148.432 312.952 143.096 317.676 148.328 322.609C147.7 323.764 150.002 328.487 152.513 327.228C151.99 328.067 153.56 330.587 157.64 330.797C160.675 333.421 166.953 329.957 170.615 324.394C173.859 323.449 177.73 322.714 180.765 318.725C180.765 318.725 196.042 326.178 215.295 315.156C215.295 315.156 255.684 337.2 334.789 329.957C384.177 325.443 379.05 302.245 363.668 262.987Z" fill="#952C28"/>
<path d="M307.271 274.219C305.806 274.009 304.236 273.799 302.771 273.589C301.934 273.484 301.62 274.744 302.457 274.849C303.922 275.059 305.492 275.268 306.957 275.478C307.794 275.583 308.108 274.324 307.271 274.219Z" fill="white"/>
<path d="M168.419 315.576C164.338 319.46 160.885 323.974 158.164 328.907C157.746 329.642 158.897 330.272 159.315 329.537C162.036 324.708 165.384 320.3 169.36 316.521C169.988 315.891 169.047 314.946 168.419 315.576Z" fill="black"/>
<path d="M163.083 310.538C158.584 315.051 155.236 320.3 153.038 326.283C152.724 327.018 153.98 327.438 154.294 326.598C156.387 320.825 159.63 315.681 164.025 311.377C164.653 310.853 163.711 309.908 163.083 310.538Z" fill="black"/>
<path d="M160.464 306.129C153.139 307.494 150.523 314.736 148.535 321.034C148.326 321.874 149.582 322.189 149.791 321.349C151.57 315.471 153.976 308.648 160.778 307.389C161.615 307.284 161.196 306.024 160.464 306.129Z" fill="black"/>
<path d="M383.235 264.877H270.333C270.229 263.197 270.124 261.413 270.02 259.733H381.771C382.189 261.518 382.712 263.197 383.235 264.877Z" fill="white"/>
<path d="M360.682 455.294H201.59C199.5 455.294 197.723 453.618 197.723 451.418C197.723 449.322 199.395 447.541 201.59 447.541H360.682C379.079 447.541 394.968 435.073 399.462 417.157L457.057 184.668C457.58 182.572 459.671 181.315 461.761 181.839C463.852 182.363 465.106 184.458 464.583 186.553L406.988 419.043C401.553 440.417 382.529 455.294 360.682 455.294Z" fill="#D4D4D4"/>
<path d="M148.249 329.369C133.9 295.862 126.092 278.641 111.742 245.134C111.109 243.682 108.577 244.304 109.21 245.86C123.56 279.368 131.368 296.588 145.717 330.096C146.456 331.548 148.988 330.926 148.249 329.369Z" fill="black"/>
<path d="M241.206 329.37H148.567C146.879 329.37 146.879 331.963 148.567 331.963H241.206C242.894 331.859 242.894 329.37 241.206 329.37Z" fill="black"/>
<path d="M141.811 222.83L127.989 241.503C127.04 242.852 129.256 244.097 130.205 242.748C134.848 236.524 139.385 230.299 144.027 224.075C144.977 222.83 142.761 221.585 141.811 222.83Z" fill="#FECA55"/>
<path d="M149.937 240.155L132.634 249.491C131.156 250.321 132.528 252.5 133.9 251.67L151.204 242.333C152.786 241.607 151.415 239.429 149.937 240.155Z" fill="#FECA55"/>
</g>
<defs>
<clipPath id="clip0">
<rect width="382" height="286" fill="white" transform="translate(16 47)"/>
</clipPath>
</defs>
</svg>
