<svg fill="none" height="333" viewBox="0 0 432 333" width="432" xmlns="http://www.w3.org/2000/svg" xmlns:xlink="http://www.w3.org/1999/xlink"><clipPath id="a"><path d="m16 47h382v286h-382z"/></clipPath><path d="m415.621.0839844h-399.2419c-9.04591 0-16.3791 7.4027956-16.3791 16.5346156v299.6894c0 9.132 7.33319 16.535 16.3791 16.535h399.2419c9.046 0 16.379-7.403 16.379-16.535v-299.6894c0-9.13182-7.333-16.5346156-16.379-16.5346156z" fill="#eff5fa"/><g clip-path="url(#a)"><path d="m187.368 103.605h-114.9852v90.077h114.9852z" fill="#ff647c"/><path d="m157.973 122.402h-59.9336c-1.6619 0-1.6619 2.64 0 2.64h59.9336c1.662-.106 1.662-2.64 0-2.64z" fill="#fff"/><path d="m157.973 137.925h-59.9336c-1.6619 0-1.6619 2.64 0 2.64h59.9336c1.662 0 1.662-2.64 0-2.64z" fill="#fff"/><path d="m157.973 153.448h-59.9336c-1.6619 0-1.6619 2.64 0 2.64h59.9336c1.662 0 1.662-2.64 0-2.64z" fill="#fff"/><path d="m141.769 169.077h-44.0412c-1.2464 0-1.2464 2.64 0 2.64h44.0412c1.143-.105 1.143-2.64 0-2.64z" fill="#fff"/><path d="m92.6382 130.85c-.3116 0-.6232-.106-.9348-.422l-6.3361-6.759c-.5194-.528-.4155-1.267 0-1.795l6.3361-6.442c.5193-.528 1.3503-.528 1.7658 0 .5194.528.5194 1.373 0 1.796l-5.5052 5.596 5.5052 5.914c.5194.528.4155 1.373 0 1.795-.2077.106-.5194.317-.831.317z" fill="#fff"/><path d="m147.481 179.109c-.312 0-.624-.105-.935-.422-.52-.528-.52-1.373 0-1.795l5.505-5.597-5.505-5.914c-.52-.528-.416-1.373 0-1.795.519-.528 1.35-.422 1.766 0l6.336 6.758c.519.528.415 1.268 0 1.796l-6.336 6.441c-.208.423-.52.528-.831.528z" fill="#fff"/><path d="m64.489 97.4804c-5.0897-5.808-10.2832-11.616-15.3729-17.424-1.1426-1.2672-2.9084.6336-1.7658 1.7952l15.3729 17.424c1.0387 1.2674 2.9084-.528 1.7658-1.7952z" fill="#bcd7fd"/><path d="m204.3 86.498c-4.051 3.9072-8.102 7.8144-12.153 11.616-1.142 1.1616.623 2.957 1.766 1.7952 4.051-3.9072 8.102-7.8144 12.153-11.616 1.246-1.1616-.623-2.9568-1.766-1.7952z" fill="#bcd7fd"/><path d="m69.0603 195.266c-3.4277 4.33-6.8555 8.554-10.2832 12.883-1.0387 1.268.7271 3.168 1.7658 1.796 3.4277-4.33 6.8555-8.554 10.2832-12.884 1.0387-1.161-.7271-3.062-1.7658-1.795z" fill="#bcd7fd"/><path d="m253.172 146.788c1.36.524 30.135 42.932 30.135 42.932l30.135-34.535-39.343-29.391z" fill="#952c28"/><path d="m262.379 159.384c-4.813-6.928-8.789-12.387-9.313-12.597l7.743-7.872c3.244 6.403 4.395 14.485 1.57 20.469z" fill="#000"/><path d="m267.509 78.6633c-8.371-8.2925-29.612-4.5137-40.808 4.0937-4.918 3.7789-9.418 1.2597-8.58 6.2981 1.988 12.4909 8.58 52.6939 16.323 59.3069 13.602 11.442 31.495-.63 36.936-15.115 5.337-14.591 8.057-42.7223-3.871-54.5837z" fill="#952c28"/><path d="m214.457 87.5855c2.093 9.9719 20.404 4.8285 29.717.1049 2.511 10.7068 10.045 37.2636 31.076 38.7336 8.476-19 7.639-47.5509-4.604-46.6062-11.196-15.6402-32.855-5.5633-44.051 3.1491-5.127-5.0385-11.51-3.8839-12.138 4.6186z" fill="#000"/><path d="m268.343 103.96c-3.453-5.7728-13.812-7.2423-19.777-.209 1.151 7.242 2.093 14.38 3.035 21.728 4.081 1.05 11.928-.315 15.8-4.724 4.29-5.038 4.604-10.601.942-16.795z" fill="#952c28"/><path d="m219.27 118.551c-.314-2.834 2.093-5.038 4.813-4.933.837 0 1.57 1.049 1.465 1.784 0 .105-.105.105-.105.21.314 0 .524.105.837.105 1.989.63.838 3.674-1.151 3.044 0 0-.104.105.105.105 1.57.21 1.988 2.519.523 3.149-2.825 1.155-6.173-.525-6.487-3.464z" fill="#952c28"/><path d="m226.908 105.745c-.314 1.574-.732 3.044-1.046 4.619-.21.839 1.151 1.259 1.36.419.314-1.574.732-3.044 1.046-4.618.105-.945-1.255-1.365-1.36-.42z" fill="#000"/><path d="m260.601 107.32c-.942 1.154-1.884 2.309-2.826 3.568l-.732.945c-.523.735.419 1.68 1.046 1.05 1.151-1.47 2.407-2.939 3.558-4.514.523-.735-.523-1.784-1.046-1.049z" fill="#000"/><path d="m244.068 134.926c-.104-.945-1.465-.525-1.36.42.419 2.729-.837 5.458-3.139 6.928-.732.525 0 1.679.732 1.259 2.826-1.889 4.186-5.143 3.767-8.607z" fill="#000"/><path d="m230.047 98.1873c-1.151-.2099-2.302-.4199-3.558-.7348-.733-.1049-1.57.21-1.779.9448-.209.7347.209 1.5745.942 1.7847 1.151.21 2.302.42 3.557.734.733.105 1.57-.209 1.779-.9442.21-.7348-.209-1.6795-.941-1.7845z" fill="#000"/><path d="m273.056 205.255c-27.938 37.788-35.262 57.627-35.262 57.627s-30.554-62.561-42.901-75.367c0 0-36.099-13.016-40.598-6.403-4.5 6.613-2.616 19.629.104 27.397 2.721 7.768 13.289 12.071 23.439 11.022 0 0 23.333 108.327 43.947 112.84 20.508 4.514 41.122 1.995 43.633 1.68 13.812-1.68 67.594-103.919 67.699-107.383 0-3.464-60.061-21.413-60.061-21.413z" fill="#841e1e"/><path d="m240.933 269.285c-.733-1.784-1.465-3.673-2.198-5.458-.314-.735-1.569-.42-1.255.315.732 1.785 1.465 3.674 2.197 5.458.314.735 1.57.42 1.256-.315z" fill="#fff"/><path d="m161.656 172.654 30.497 4.775-6.066 38.995-30.497-4.775z" fill="#2252b2"/><path d="m170.932 181.217c-1.151 7.768-2.302 15.43-3.349 23.198-.209 1.575 2.198 2.309 2.511.735 1.151-7.768 2.302-15.431 3.349-23.198.209-1.68-2.302-2.414-2.511-.735z" fill="#fff"/><path d="m181.185 151.196c-5.65 2.729-8.476 9.342-6.592 15.326.523 1.574 2.93.944 2.511-.735-1.569-4.934.837-10.182 5.441-12.386 1.465-.735.105-2.94-1.36-2.205z" fill="#bcd7fd"/><path d="m184.744 155.605c-3.662 2.414-5.546 6.508-4.918 10.812.209 1.679 2.721.944 2.511-.735-.418-3.149 1.047-6.193 3.767-7.873 1.256-.839 0-3.044-1.36-2.204z" fill="#bcd7fd"/><path d="m159.42 180.482c-1.256-.42-1.884 1.05-1.36 1.89-.837 0-1.57.21-2.302.84-2.093 1.679-1.779 5.143.418 6.613.209.209.523.209.733.209.104 1.155.314 2.31.732 3.149 0 .105-.105.315-.105.42-.732.105-1.464.525-2.197 1.26-.523.525-.942 1.47-1.151 2.519-2.093 2.834-4.499 6.508-2.72 10.182 1.046 2.099 3.348 3.464 5.755 2.834 3.453-.944 4.499-4.828 3.453-7.977.104-.21.104-.42.209-.63.104-.315.209-.525.314-.84.209-.525.314-1.155.418-1.889 1.256-1.365 1.884-3.044 1.884-4.829 1.046-1.154 1.883-2.624 2.197-3.884.942-4.408-2.093-8.397-6.278-9.867zm-1.884 4.724v.525c0 .315.105.525.21.735-.21.209-.314.524-.419.839-.628-.63-.418-1.679.209-2.099z" fill="#841e1e"/><path d="m162.034 191.504c-3.348-.84-5.755-3.569-6.383-6.928-.104-.63-1.151-.42-1.046.315.628 3.674 3.453 6.718 7.115 7.663.733.105.942-.945.314-1.05z" fill="#000"/><path d="m158.898 198.222c-2.198-.525-3.872-2.1-4.5-4.199-.209-.63-1.151-.42-1.046.315.732 2.519 2.72 4.409 5.232 4.933.732.105.941-.944.314-1.049z" fill="#000"/><path d="m158.478 205.99c-2.092-.42-3.767-2.1-4.081-4.304-.104-.63-1.151-.42-1.046.315.419 2.519 2.407 4.513 4.813 5.038.733.105 1.047-.944.314-1.049z" fill="#000"/><path d="m206.821 206.199c-.314-6.193-3.244-14.275-8.476-18.684-14.544-9.342-16.428-10.392-18.207-8.817-3.557 3.149-.523 7.033 2.721 9.342.628 1.05 3.034 3.569 3.558 3.989.209.84 6.278 14.17 8.057 16.375.627.84 1.778.525 2.197-.105 1.046.21 2.197 0 3.034-.63 1.779-.21 3.139-1.26 4.081-2.624.209.63.314 1.154.523 1.784.419 1.155 2.616.735 2.512-.63z" fill="#841e1e"/><path d="m194.16 205.885c-1.151-2.205-2.406-4.409-3.557-6.613-.314-.63-1.256-.105-.942.524l3.557 6.613c.419.63 1.256.105.942-.524z" fill="#000"/><path d="m397.778 337.095h-121.9c-.105-1.575-.314-3.254-.419-5.144-.628-6.823-1.36-15.325-2.093-24.877-.104-1.68-.313-3.359-.418-5.144-.209-2.204-.314-4.513-.523-6.928-.105-1.679-.21-3.359-.419-5.143-.628-7.978-1.151-16.375-1.674-24.877-.105-1.68-.209-3.464-.314-5.144-.104-2.309-.314-4.618-.418-6.823-.105-1.679-.21-3.464-.314-5.143-.419-7.558-.733-15.011-1.047-22.358-.104-1.68-.104-3.464-.209-5.144-.105-2.309-.105-4.619-.209-6.823 0-1.784-.105-3.464-.105-5.143-.209-10.077-.209-19.524.105-27.502.104-1.784.104-3.464.209-5.143.105-1.05.105-1.995.209-3.044.105-1.365.314-2.625.524-3.884.313-1.785.732-3.569 1.255-5.144 5.337-16.375 20.823-24.352 29.507-19.734 5.546 3.044 14.963 9.867 14.963 9.867 4.186 3.044 8.057 6.403 11.824 9.867 1.779 1.68 3.558 3.359 5.232 5.144 2.197 2.204 4.29 4.513 6.278 6.928 1.465 1.679 2.93 3.359 4.29 5.143 6.802 8.502 12.766 17.74 18.102 27.502.942 1.679 1.884 3.464 2.721 5.143 1.151 2.309 2.302 4.514 3.348 6.823.837 1.68 1.57 3.464 2.407 5.144 3.243 7.242 6.173 14.8 8.789 22.358.628 1.679 1.151 3.464 1.779 5.143.732 2.309 1.465 4.514 2.197 6.823.523 1.68 1.047 3.464 1.57 5.144 2.406 8.292 4.499 16.585 6.383 24.877.418 1.679.732 3.464 1.151 5.143.523 2.31.941 4.619 1.36 6.928.314 1.68.628 3.464.942 5.144 1.569 8.397 2.825 16.795 3.976 24.877.209 1.47.418 2.834.628 4.304.209.21.313.525.313.84z" fill="#feca55"/><g fill="#fff"><path d="m298.268 249.341c-1.883-16.27-3.662-32.54-5.545-48.81-.105-.84-1.361-.84-1.256 0 1.884 16.27 3.662 32.54 5.546 48.81z"/><path d="m397.776 337.095h-121.9c-.105-1.575-.314-3.254-.419-5.144h121.691c.21 1.47.419 2.834.628 4.304-.104.21 0 .525 0 .84z"/><path d="m390.664 295.002h-118.343c-.105-1.679-.209-3.359-.419-5.143h117.611c.418 1.679.837 3.359 1.151 5.143z"/><path d="m393.07 306.969h-119.808c-.104-1.68-.314-3.359-.418-5.144h119.18c.418 1.785.732 3.464 1.046 5.144z"/><path d="m331.649 168.726h-62.782c.314-1.785.733-3.569 1.256-5.144h56.294c1.779 1.68 3.557 3.359 5.232 5.144z"/><path d="m342.322 180.692h-74.396c.104-1.784.104-3.464.209-5.143h69.897c1.465 1.679 2.825 3.464 4.29 5.143z"/><path d="m363.143 213.337h-95.218c0-1.784-.105-3.464-.105-5.143h92.603c.942 1.679 1.779 3.464 2.72 5.143z"/><path d="m368.9 225.409h-100.659c-.105-1.68-.105-3.464-.21-5.144h98.462c.838 1.68 1.675 3.359 2.407 5.144z"/><path d="m379.467 252.91h-109.868c-.105-1.679-.209-3.464-.314-5.143h108.403c.628 1.679 1.255 3.359 1.779 5.143z"/></g><path d="m363.668 262.987c-.628-1.574-48.551-3.359-64.037-.21l1.046 11.127c-52.527.84-86.638 9.972-106.1 17.635-12.766 3.044-33.588 7.137-39.343 13.645-6.802 7.768-12.138 12.492-6.906 17.425-.628 1.155 1.674 5.878 4.185 4.619-.523.839 1.047 3.359 5.127 3.569 3.035 2.624 9.313-.84 12.975-6.403 3.244-.945 7.115-1.68 10.15-5.669 0 0 15.277 7.453 34.53-3.569 0 0 40.389 22.044 119.494 14.801 49.388-4.514 44.261-27.712 28.879-66.97z" fill="#952c28"/><path d="m307.271 274.219c-1.465-.21-3.035-.42-4.5-.63-.837-.105-1.151 1.155-.314 1.26 1.465.21 3.035.419 4.5.629.837.105 1.151-1.154.314-1.259z" fill="#fff"/><path d="m168.419 315.576c-4.081 3.884-7.534 8.398-10.255 13.331-.418.735.733 1.365 1.151.63 2.721-4.829 6.069-9.237 10.045-13.016.628-.63-.313-1.575-.941-.945z" fill="#000"/><path d="m163.083 310.538c-4.499 4.513-7.847 9.762-10.045 15.745-.314.735.942 1.155 1.256.315 2.093-5.773 5.336-10.917 9.731-15.221.628-.524-.314-1.469-.942-.839z" fill="#000"/><path d="m160.464 306.129c-7.325 1.365-9.941 8.607-11.929 14.905-.209.84 1.047 1.155 1.256.315 1.779-5.878 4.185-12.701 10.987-13.96.837-.105.418-1.365-.314-1.26z" fill="#000"/><path d="m383.235 264.877h-112.902c-.104-1.68-.209-3.464-.313-5.144h111.751c.418 1.785.941 3.464 1.464 5.144z" fill="#fff"/><path d="m360.682 455.294h-159.092c-2.09 0-3.867-1.676-3.867-3.876 0-2.096 1.672-3.877 3.867-3.877h159.092c18.397 0 34.286-12.468 38.78-30.384l57.595-232.489c.523-2.096 2.614-3.353 4.704-2.829 2.091.524 3.345 2.619 2.822 4.714l-57.595 232.49c-5.435 21.374-24.459 36.251-46.306 36.251z" fill="#d4d4d4"/><path d="m148.249 329.369c-14.349-33.507-22.157-50.728-36.507-84.235-.633-1.452-3.165-.83-2.532.726 14.35 33.508 22.158 50.728 36.507 84.236.739 1.452 3.271.83 2.532-.727z" fill="#000"/><path d="m241.206 329.37h-92.639c-1.688 0-1.688 2.593 0 2.593h92.639c1.688-.104 1.688-2.593 0-2.593z" fill="#000"/><path d="m141.811 222.83-13.822 18.673c-.949 1.349 1.267 2.594 2.216 1.245 4.643-6.224 9.18-12.449 13.822-18.673.95-1.245-1.266-2.49-2.216-1.245z" fill="#feca55"/><path d="m149.937 240.155-17.303 9.336c-1.478.83-.106 3.009 1.266 2.179l17.304-9.337c1.582-.726.211-2.904-1.267-2.178z" fill="#feca55"/></g></svg>