<svg fill="none" height="333" viewBox="0 0 432 333" width="432" xmlns="http://www.w3.org/2000/svg" xmlns:xlink="http://www.w3.org/1999/xlink"><linearGradient id="a"><stop offset="0" stop-color="#eafcff"/><stop offset="1" stop-color="#bceff6"/></linearGradient><linearGradient id="b" gradientUnits="userSpaceOnUse" x1="316.658" x2="320.658" xlink:href="#a" y1="100.333" y2="151"/><linearGradient id="c" gradientUnits="userSpaceOnUse" x1="183.436" x2="191.658" xlink:href="#a" y1="172.852" y2="277"/><linearGradient id="d" gradientUnits="userSpaceOnUse" x1="215.158" x2="215.158" y1="77.5" y2="234"><stop offset="0" stop-color="#90dee8"/><stop offset="1" stop-color="#2bbacd"/></linearGradient><path d="m415.621.0839844h-399.2419c-9.04591 0-16.3791 7.4027956-16.3791 16.5346156v299.6894c0 9.132 7.33319 16.535 16.3791 16.535h399.2419c9.046 0 16.379-7.403 16.379-16.535v-299.6894c0-9.13182-7.333-16.5346156-16.379-16.5346156z" fill="#f1feff"/><path d="m113.158 95h11v122.5 5l-2.5 4-2.5 3.5-3.5 2.5h-2.5z" fill="#ffc634"/><path d="m302.658 133c0-9.941 8.059-18 18-18s18 8.059 18 18-8.059 18-18 18-18-8.059-18-18z" fill="url(#b)"/><path d="m154.658 240c0-20.435 16.566-37 37-37 20.435 0 37 16.565 37 37s-16.565 37-37 37c-20.434 0-37-16.565-37-37z" fill="url(#c)"/><path d="m95.6582 121.5h13.4998l-.5 112.5-5-1-4.4998-3-2.5-4-1-3.5z" fill="#00a0b6"/><path d="m119.658 229.5-5.5 4h35.5l2-10.5 3-7 5.5-7 8.5-7.5 10-3.5 7.5-1 8.5 1 9.5 3.5 7.5 5.5 6 7 3 6.5 2 7 .5 6 93 .5v-86l-9-2.5-5-4-2.5-6-1-5.5 1-5 2.5-5.5 5-4.5 9-2.5v-19.5h-127.5l-16-15.5-49.5.5v140.5 6.5z" fill="url(#d)"/><rect fill="#fff" height="7" rx="3.5" width="53" x="232.658" y="113"/><rect fill="#fff" height="7" rx="3.5" width="53" x="232.658" y="127"/><rect fill="#fff" height="7" rx="3.5" width="30" x="255.658" y="141"/><g fill="#00a0b6"><path d="m335.358 130.337c0-9.986-7.71-18.137-17.476-18.871v-18.5775c0-.8077-.661-1.4686-1.468-1.4686h-82.313l-9.693-9.7659c-.293-.2937-.661-.4406-1.028-.4406h-44.203l-4.847-4.8463c-.293-.2202-.661-.3671-1.101-.3671h-49.711c-.808 0-1.468.6609-1.468 1.4686v16.4479h-13.291c-.808 0-1.469.6608-1.469 1.4685v24.819h-11.8214c-.8077 0-1.4686.661-1.4686 1.468v98.247c0 4.112 1.6154 8.004 4.5525 10.941 2.6435 2.643 6.0945 4.185 9.8395 4.479.147 0 .22.073.367.073h.147.587c.514 0 .955 0 1.469-.073.147.073.294.073.44.073h37.008c.808 20.413 17.623 36.788 38.183 36.788s37.375-16.375 38.182-36.788h91.639c.807 0 1.468-.66 1.468-1.468v-84.736c9.766-.734 17.476-8.958 17.476-18.871zm-112.639-46.1865 7.27 7.2694h-40.679l-7.27-7.2694zm-107.792 147.0765v-134.3734h7.123v123.0654c0 4.993-2.864 9.325-7.123 11.308zm-2.937-134.3734v135.4014c-.588.147-1.175.147-1.762.22v-135.6214zm-15.0529 123.0654v-96.778h10.3529v109.187c-2.496-.44-4.846-1.615-6.681-3.451-2.3502-2.423-3.6719-5.58-3.6719-8.958zm89.6559 49.344c-19.459 0-35.319-15.861-35.319-35.319 0-19.459 15.86-35.319 35.319-35.319 19.458 0 35.245 15.86 35.319 35.245-.074 19.532-15.861 35.393-35.319 35.393zm38.182-36.788c-.807-20.413-17.622-36.787-38.182-36.787s-37.375 16.374-38.183 36.787h-29.885c3.892-2.79 6.462-7.416 6.462-12.556v-140.9819h47.654l14.98 14.9794c.294.2937.661.4405 1.028.4405h126.296v17.035c-9.766.735-17.476 8.959-17.476 18.871 0 9.987 7.71 18.137 17.476 18.871v83.268h-90.17zm91.639-86.131c-8.885 0-16.081-7.196-16.081-16.007 0-8.812 7.196-16.008 16.007-16.008 8.812 0 16.008 7.196 16.008 16.008.073 8.811-7.123 16.007-15.934 16.007z"/><path d="m282.637 111.54h-46.627c-2.643 0-4.846 2.129-4.846 4.846s2.129 4.847 4.846 4.847h46.627c2.644 0 4.846-2.13 4.846-4.847s-2.202-4.846-4.846-4.846zm0 6.682h-46.627c-1.028 0-1.909-.881-1.909-1.909s.881-1.909 1.909-1.909h46.627c1.028 0 1.909.881 1.909 1.909s-.881 1.909-1.909 1.909z"/><path d="m282.637 125.563h-46.627c-2.643 0-4.846 2.13-4.846 4.847s2.129 4.846 4.846 4.846h46.627c2.644 0 4.846-2.129 4.846-4.846s-2.202-4.847-4.846-4.847zm0 6.756h-46.627c-1.028 0-1.909-.881-1.909-1.909s.881-1.909 1.909-1.909h46.627c1.028 0 1.909.881 1.909 1.909s-.881 1.909-1.909 1.909z"/><path d="m282.637 139.662h-24.011c-2.644 0-4.847 2.13-4.847 4.846 0 2.717 2.13 4.847 4.847 4.847h24.011c2.643 0 4.846-2.13 4.846-4.847 0-2.716-2.203-4.846-4.846-4.846zm0 6.682h-24.011c-1.028 0-1.91-.881-1.91-1.909s.882-1.909 1.91-1.909h24.011c1.028 0 1.909.881 1.909 1.909s-.881 1.909-1.909 1.909z"/><path d="m200.545 220.8c-.294-.22-6.902-4.626-13.437-5.507 0 0 0 0-.074 0-.073 0-.073 0-.147 0-.073 0-.147 0-.22 0-.294.073-8.151 1.542-13.878 4.773-.441.294-.734.734-.734 1.248v13.731c0 .147-.147 13.144 14.465 17.403h.074c.146 0 .22.073.367.073s.293 0 .44-.073h.074c.514-.147 12.189-4.039 13.804-16.448 0-.074 0-.147 0-.221v-13.878c-.073-.367-.367-.807-.734-1.101zm-25.627 14.392v-12.923c3.672-1.836 8.078-3.084 10.501-3.672v30.473c-10.501-4.039-10.501-13.437-10.501-13.878zm23.351.661c-1.102 7.71-6.829 11.601-9.84 13.07v-30.399c4.186.954 8.298 3.377 9.84 4.332z"/><path d="m186.593 202.517c-17.329 0-31.427 14.098-31.427 31.427s14.098 31.427 31.427 31.427 31.427-14.098 31.427-31.427-14.098-31.427-31.427-31.427zm0 61.459c-16.521 0-29.958-13.437-29.958-29.959 0-16.521 13.437-29.958 29.958-29.958 16.522 0 29.959 13.437 29.959 29.958 0 16.522-13.437 29.959-29.959 29.959z"/><path d="m316.415 116.974c-7.342 0-13.29 5.947-13.29 13.29s5.948 13.291 13.29 13.291c7.343 0 13.291-5.875 13.291-13.217 0-7.343-5.948-13.364-13.291-13.364zm0 25.185c-6.535 0-11.821-5.286-11.821-11.821 0-6.536 5.286-11.822 11.821-11.822 6.536 0 11.822 5.286 11.822 11.822 0 6.535-5.286 11.821-11.822 11.821z"/></g><path d="m160.158 112c-4.577 0-8.5 3.923-8.5 8.5s3.923 8.5 8.5 8.5 8.5-3.923 8.5-8.5c0-4.904-3.923-8.5-8.5-8.5z" fill="#fff"/><path d="m160.637 136h-.957c-3.83 0-7.022 3.288-7.022 7.233v33.534c0 3.945 3.192 7.233 7.022 7.233h.957c3.83 0 7.021-3.288 7.021-7.233v-33.534c0-3.945-3.191-7.233-7.021-7.233z" fill="#fff"/><path clip-rule="evenodd" d="m312.745 126.46c-.425-.425-1.062-.425-1.487 0l-2.867 2.868c-.425.424-.425 1.062 0 1.486l2.867 2.868c.213.212.478.318.744.318.265 0 .531-.106.743-.318.425-.425.425-1.062 0-1.487l-2.124-2.124 2.124-2.124c.425-.372.425-1.062 0-1.487zm8.756 0c-.425-.425-1.062-.425-1.487 0-.424.425-.424 1.062 0 1.487l2.124 2.124-2.124 2.124c-.424.425-.424 1.062 0 1.487.213.212.478.318.744.318.265 0 .531-.106.743-.318l2.868-2.868c.212-.212.318-.478.318-.743 0-.266-.106-.531-.318-.743zm-5.487.479c.106-.584.69-.903 1.275-.744.584.16.902.744.743 1.275l-1.54 5.681c-.106.478-.531.797-1.009.797-.053 0-.093-.014-.133-.027-.039-.013-.079-.026-.132-.026-.584-.107-.903-.691-.744-1.275z" fill="#00a0b6" fill-rule="evenodd"/></svg>