<svg fill="none" height="333" viewBox="0 0 432 333" width="432" xmlns="http://www.w3.org/2000/svg" xmlns:xlink="http://www.w3.org/1999/xlink"><linearGradient id="a" gradientUnits="userSpaceOnUse" x1="140.161" x2="140.161" y1="222.083" y2="275.524"><stop offset="0" stop-color="#e1fbff"/><stop offset="1" stop-color="#99e0eb"/></linearGradient><linearGradient id="b" gradientUnits="userSpaceOnUse" x1="246.348" x2="246.348" y1="174.889" y2="334.518"><stop offset="0" stop-color="#9de2ec"/><stop offset="1" stop-color="#32b6c8"/></linearGradient><linearGradient id="c" gradientUnits="userSpaceOnUse" x1="274.834" x2="274.834" y1="204.038" y2="276.218"><stop offset="0" stop-color="#3ac5d8"/><stop offset="1" stop-color="#12b1c8"/></linearGradient><path d="m415.621.0839844h-399.2419c-9.04591 0-16.3791 7.4027956-16.3791 16.5346156v299.6894c0 9.132 7.33319 16.535 16.3791 16.535h399.2419c9.046 0 16.379-7.403 16.379-16.535v-299.6894c0-9.13182-7.333-16.5346156-16.379-16.5346156z" fill="#f1feff"/><path clip-rule="evenodd" d="m432 277v39.308c0 9.132-7.333 16.535-16.379 16.535h-399.2419c-9.04591 0-16.3791-7.403-16.3791-16.535v-39.308z" fill="#dbfaff" fill-rule="evenodd"/><path d="m239.406 271.824v-9.717h-40.948l-2.082 2.777v6.246z" fill="#eefcff"/><path d="m260.922 141.575v27.068l4.164.694v6.246h16.657l6.941 1.388v-35.396z" fill="#a0ddff"/><path d="m287.99 121.447v55.523c8.884 1.666 16.657 11.799 19.433 16.657h16.657v-72.18z" fill="#94dfe9"/><path d="m348.371 194.321h-41.642l2.776 7.635v67.321l-6.94 6.941h45.806z" fill="#a0ddff"/><path clip-rule="evenodd" d="m199.849 158.791c0-4.142-3.358-7.5-7.5-7.5h-5.822c-4.142 0-7.5 3.358-7.5 7.5v25.254c0 3.469 2.355 6.387 5.552 7.245v5.114h-10.41c-1.389.925-4.165 3.609-4.165 6.94v18.739h4.859l8.328 20.127h4.858l.459-27.97c1.062.576 2.278.903 3.571.903h5.821c4.143 0 7.5-3.358 7.5-7.5v-25.254c0-3.468-2.354-6.387-5.551-7.245z" fill="#bceff6" fill-rule="evenodd"/><path clip-rule="evenodd" d="m174.307 173.5 1.943 9.716 4.859 6.246.694 5.553h-8.329l-5.552 4.164-2.776 4.858.266 6.917c-1.035-1.286-1.655-2.92-1.655-4.7v-25.254c0-4.142 3.358-7.5 7.5-7.5zm-8.601 45.113.134 3.469-8.02 22.21h-3.086v-18.739c0-3.331 2.776-6.015 4.164-6.94zm-3.802 31.265 11.013 6.087-.138 8.454h-4.859z" fill="#bceff6" fill-rule="evenodd"/><path d="m84.6374 222.083 20.1276 53.441h90.919l-20.822-53.441z" fill="url(#a)"/><circle fill="#fff" r="6.94039" transform="matrix(-1 0 0 1 137.384 249.845)"/><path d="m197.071 276.219-2.082-4.164h35.396l-4.164 3.47z" fill="#1bb6cb"/><path d="m200.541 79.111v13.8808c1.111 2.2209 7.866 7.1712 9.717 7.6342h11.104c7.218 0 9.948-6.4775 10.411-9.7164h12.493c2.221 0 3.701 2.7762 4.164 4.1643v9.7161l1.388 4.859 6.246 3.47h4.165v-26.0901c0-5.5229-4.478-10-10-10h-12.21l-4.088-4.0879c-.937-.9377-2.209-1.4644-3.535-1.4644h-10.433c-1.326 0-2.598.5267-3.535 1.4644l-6.17 6.17z" fill="#bceff6"/><path d="m188.743 242.21h-5.552l11.104 29.15 2.083-6.246 2.082-3.471 4.164-2.776 4.858-.694 3.47-3.47 29.15-.694v-2.082h43.03v-23.597c1.111-18.878 18.045-23.598 26.374-23.598 0-3.331-1.851-9.254-2.776-11.798-8.329-13.881-21.053-17.351-26.374-17.351h-15.963v6.246h-20.127l-4.164-4.164-4.858 4.164h-11.105l-.694-6.246-14.575-.694c-14.991 2.776-19.664 14.574-20.127 20.127z" fill="url(#b)"/><path d="m240.102 251.927v24.291h56.217c11.66 0 13.65-8.791 13.187-13.187v-58.993c-19.988 2.221-25.911 16.194-26.373 22.903v24.986z" fill="url(#c)"/><rect fill="#a0ddff" height="22.2092" rx="2" transform="matrix(-1 0 0 1 142.938 117.978)" width="30.5377"/><path d="m0 0h9.71654v11.1046h-9.71654z" fill="#a0ddff" transform="matrix(-1 0 0 1 133.219 180.441)"/><path d="m264.393 181.136v-11.799h-32.62l11.798 11.799z" fill="#30c0d4"/><path d="m235.937 181.83 4.858-5.553-9.717-6.94h-7.634v12.493z" fill="#13b0c6"/><g fill="#00a0b6"><path d="m83.2743 221.506c.2741-.342.6852-.616 1.0963-.616h45.5674v-23.367c-7.332-.342-13.225-6.441-13.225-13.841 0-7.401 5.893-13.499 13.225-13.842v-15.897c-15.623-.343-28.3-13.225-28.3-28.917 0-15.966 13.02-28.9851 28.986-28.9851 14.526 0 26.655 10.8261 28.642 24.8051h13.088c.343-4.933 4.454-8.908 9.525-8.908 5.07 0 9.182 3.906 9.524 8.908h10.758v-6.304c-.753-.274-1.233-1.028-1.233-1.85s.548-1.576 1.233-1.85v-13.2251c-2.535-2.6039-4.042-6.0985-4.042-9.9358v-5.1392c0-5.2078 4.111-9.5247 9.25-9.8673l3.084-3.4947c2.398-2.6724 5.756-4.1799 9.387-4.1799h12.266c3.289 0 6.373 1.3019 8.771 3.6317l2.056 2.0557h3.22c5.276 0 10.21 2.0557 13.91 5.7559 3.701 3.7003 5.756 8.7024 5.688 13.9102l-.137 23.4345c1.644 1.576 2.672 3.769 2.672 6.236v.959c0 3.837-2.467 7.127-5.893 8.36v10.827h24.531v-18.639c0-.753.617-1.37 1.371-1.37h35.426c.754 0 1.371.617 1.371 1.37v70.716h23.297c.754 0 1.371.617 1.371 1.37v82.159c0 .754-.617 1.371-1.371 1.371h-6.989-6.373-6.235-6.373-6.372-6.373-11.649-58.039-15.28-7.195-21.448-91.135c-.549 0-1.097-.343-1.302-.891l-20.5573-53.585c-.137-.342-.0685-.822.2056-1.165zm36.2487-37.824c0 6.167 5.002 11.169 11.169 11.169s11.169-5.002 11.169-11.169-5.002-11.17-11.169-11.17-11.169 5.003-11.169 11.17zm11.101-84.9002c-14.459 0-26.245 11.7862-26.245 26.2442s11.786 26.244 26.245 26.244c14.458 0 26.244-11.786 26.244-26.244s-11.786-26.2442-26.244-26.2442zm51.255 15.9662c-3.769 0-6.853 3.083-6.853 6.852s3.084 6.852 6.853 6.852c3.768 0 6.852-3.083 6.852-6.852s-3.084-6.852-6.852-6.852zm9.524 7.537c-.342 4.934-4.454 8.908-9.524 8.908-5.071 0-9.182-3.906-9.525-8.908h-12.882c.068.891.137 1.85.137 2.741 0 15.76-12.608 28.574-28.3 28.917v15.897c7.332.343 13.225 6.441 13.225 13.842 0 7.4-5.893 13.499-13.225 13.841v23.367h18.227c.685-4.66 4.659-8.223 9.525-8.223h4.796v-3.358c-3.632-2.33-5.824-6.372-5.824-10.689v-15.555c0-3.358 1.302-6.578 3.768-8.977 2.399-2.398 5.619-3.768 8.977-3.768.959 0 1.919.137 2.878.342v-10.004c0-3.769 1.507-7.332 4.18-10.073 2.672-2.672 6.235-4.18 10.073-4.18 7.811 0 14.184 6.373 14.184 14.184v14.938c2.535-.959 5.345-1.507 8.223-1.507h11.991v-4.249c0-.753.617-1.37 1.371-1.37h3.768v-8.565h-.068c-.822 0-1.439-.069-1.645-.069h-.068c-6.373 0-11.649-2.124-15.555-6.304-8.839-9.388-8.086-25.765-8.017-26.929v-4.249zm-15.897 98.605c.548 0 1.096.342 1.302.89l7.469 19.529h3.084v-44.197c0-1.644.205-3.289.548-4.865-1.85 0-3.701-.411-5.414-1.096v4.248c0 .754-.616 1.371-1.37 1.371h-5.345c-5.002 0-9.113 4.111-9.113 9.113v15.007zm31.384 40.634h6.304c.753 0 1.37.616 1.37 1.37s-.617 1.371-1.37 1.371h-6.304c-2.056 0-3.701 1.644-3.701 3.7v1.85h4.317c.548 0 .823-.206.891-.343.411-.479.411-1.439.411-1.85-.068-.754.411-1.439 1.165-1.507.754-.069 1.439.411 1.508 1.165 0 .205.137 1.301-.206 2.535h18.09 9.251v-13.842h-26.587c-1.371 0-2.399 1.097-2.399 2.399 0 .753-.616 1.37-1.37 1.37h-2.878c-.206.137-.48.206-.685.206-.206 0-.411-.069-.617-.137-3.7.411-6.578 3.563-6.578 7.332v2.672h2.878v-1.85c0-3.563 2.946-6.441 6.51-6.441zm101.139-58.862c-2.261-14.595-14.869-25.833-30.081-25.833h-11.923v4.728c0 .754-.617 1.371-1.371 1.371h-20.694c-.342 0-.685-.137-.959-.411l-1.576-1.576v69.619h40.154v-19.94c0-14.938 11.718-27.204 26.45-27.958zm.343 61.466v-33.508-7.812-6.372-7.812-1.302c0-.617 0-1.302-.069-1.919-13.362.686-23.983 11.718-23.983 25.217v20.694l20.557 20.557c2.124-1.919 3.495-4.66 3.495-7.743zm2.741-42.69h3.632v-3.632h-3.632zm-11.581-39.332c3.29 2.809 6.031 6.235 7.949 10.141h5.482v-29.054c0-3.7-3.015-6.715-6.715-6.715s-6.716 3.015-6.716 6.715v18.844zm11.581 25.148h3.632v-3.632h-3.632zm-32.617-33.166c.48 0 .959 0 1.507.069v-15.486h-1.507zm-9.182 0h1.507v-15.417h-1.507zm-33.919-3.015 9.045 9.045h18.775v-9.387zm-3.837.069h-6.441v9.045h10.415l2.535-2.535zm-67.632 34.673c0-6.51 5.344-11.786 11.854-11.786h3.974v-4.386c-3.768-2.672-6.03-6.921-6.03-11.58v-4.454c-.959-.274-1.918-.411-2.877-.411-2.673 0-5.14 1.027-7.058 2.946-1.919 1.919-2.947 4.386-2.947 7.058v15.555c0 2.604 1.165 5.207 3.084 7.058zm12.539-33.234v5.482c0 3.974 1.988 7.606 5.414 9.73.342.206.616.411.959.548 1.576.822 3.358 1.234 5.139 1.234h.754c1.919-5.414 5.756-9.868 10.758-12.609v-16.171c0-6.304-5.139-11.443-11.443-11.443-3.015 0-5.893 1.165-8.086 3.357-2.193 2.193-3.358 5.071-3.358 8.086v11.786zm14.527 18.501c-.616 1.919-.891 3.906-.891 6.03v44.951l14.938 14.938h2.056c.617-2.193 2.604-3.769 5.002-3.769h26.587v-72.291l-1.576 1.576c-.274.274-.617.411-.959.411h-12.334c-.754 0-1.371-.617-1.371-1.371v-4.728h-11.991c-9.182 0-16.925 6.03-19.461 14.253zm3.7 77.362v-1.301c0-4.454 2.947-8.292 6.921-9.594l-13.499-13.499h-2.809zm-30.766-53.036h-4.797c-3.289 0-6.098 2.398-6.715 5.482h11.58v-5.482zm94.15-137.046c-3.22-3.2206-7.469-5.0022-11.991-5.0022h-3.769c-.343 0-.685-.1371-.959-.4111l-2.467-2.4669c-1.85-1.8501-4.249-2.8094-6.784-2.8094h-12.266c-2.809 0-5.481 1.1649-7.332 3.2891l-3.494 3.9058c-.274.2741-.617.4797-1.028.4797-3.906 0-7.126 3.2205-7.126 7.1263v5.1393c0 6.3726 5.139 11.5118 11.511 11.5118h9.251c4.591 0 8.291-3.7002 8.291-8.2913 0-.7537.617-1.3704 1.371-1.3704h12.471c3.289 0 6.03 2.6724 6.03 6.03v8.2223c0 4.249 3.495 7.744 7.743 7.744h2.193c1.096 0 2.192.205 3.152.616l.137-21.7215c0-4.5225-1.713-8.771-4.934-11.9915zm1.371 51.529h-4.317c-.754 0-1.371-.617-1.371-1.37 0-.754.617-1.371 1.371-1.371h4.317c3.357 0 6.098-2.741 6.098-6.098v-.96c0-3.22-2.604-5.824-5.824-5.824h-2.193c-5.756 0-10.484-4.728-10.484-10.484v-8.2228c0-1.7816-1.439-3.2891-3.289-3.2891h-11.169c-.686 5.4133-5.345 9.6619-10.964 9.6619h-9.251c-2.741 0-5.276-.822-7.469-2.1244v10.9634h7.195c1.097 0 1.987.891 1.987 1.987 0 1.097-.89 1.988-1.987 1.988h-7.195v11.786.068c0 .137-.89 16.309 7.264 24.942 3.426 3.632 7.948 5.414 13.567 5.414h.137.137c.137 0 15.487 1.507 21.037-11.923.274-.686 1.096-1.028 1.782-.754.685.274 1.027 1.096.753 1.782-4.317 10.415-13.704 12.95-19.323 13.499v8.839h1.85l27.546-.274v-38.236c-.068 0-.137 0-.205 0zm2.946 13.088v25.079h2.193c.342 0 .685.137.959.412.274.274.411.616.411.959v4.728h.617v-16.788c0-.754.617-1.371 1.37-1.371h4.249c.754 0 1.37.617 1.37 1.371v16.788h2.193v-16.788c0-.754.617-1.371 1.371-1.371h4.248c.754 0 1.37.617 1.37 1.371v17.131c1.439.205 2.878.548 4.249.89v-32.411zm59.958-20.009h-32.686v53.311c2.536.959 4.934 2.193 7.127 3.769v-16.788c0-5.208 4.248-9.456 9.456-9.456 5.207 0 9.456 4.248 9.456 9.456v29.054h6.647zm24.668 72.018h-38.304c.753 1.85 1.37 3.837 1.713 5.893h5.619c.753 0 1.37.617 1.37 1.37v6.373c0 .754-.617 1.37-1.37 1.37h-5.003v5.071h5.003c.753 0 1.37.617 1.37 1.371v6.372c0 .754-.617 1.371-1.37 1.371h-5.003v5.07h5.003c.753 0 1.37.617 1.37 1.371v43.854h3.632v-43.854c0-.754.616-1.371 1.37-1.371h6.373c.754 0 1.37.617 1.37 1.371v43.854h3.495v-43.854c0-.754.617-1.371 1.37-1.371h6.373c.754 0 1.37.617 1.37 1.371v43.854h4.249zm-6.989 79.486v-42.484h-3.632v42.484zm-12.609 0v-42.484h-3.631v42.484zm-12.745 0v-42.484h-3.632v32.138 10.278h3.632zm-6.304 0v-2.329c-.685.89-1.439 1.644-2.33 2.329zm-10.347 0c1.576 0 3.152-.411 4.454-1.027l-20.146-20.146h-41.045v21.173zm-73.319 0c1.301 0 2.466-.822 3.015-1.918h-31.452l.753 1.918h20.489zm-118.819 0h88.189l-19.529-50.844h-88.1892z"/><path d="m137.476 258.783c-4.522 0-8.222-3.7-8.222-8.222 0-4.523 3.7-8.223 8.222-8.223 4.523 0 8.223 3.7 8.223 8.223 0 4.522-3.7 8.222-8.223 8.222zm0-13.636c-3.015 0-5.481 2.467-5.481 5.482s2.466 5.482 5.481 5.482 5.482-2.467 5.482-5.482-2.467-5.482-5.482-5.482z"/><path d="m236.696 114.746h-9.182c-1.096 0-1.987-.891-1.987-1.987 0-1.097.891-1.988 1.987-1.988h9.182c1.097 0 1.988.891 1.988 1.988 0 1.096-.891 1.987-1.988 1.987z"/><path d="m129.252 177.377c.068 0 .137-.068.205-.068h.069 5.687c.411 0 .685.274.685.685v11.306c0 .411-.274.685-.685.685h-9.113c-.411 0-.686-.274-.686-.685v-7.88s0 0 0-.069c0-.068 0-.137.069-.205v-.069c0-.068.068-.137.137-.205l3.426-3.426c0 .068.069 0 .206-.069zm5.276 11.306v-10.004h-4.317v2.741c0 .411-.274.685-.685.685h-2.741v6.51h7.743zm-5.687-7.948v-1.097l-1.097 1.097z"/><path d="m128.429 183.202h4.454c.411 0 .685.274.685.685 0 .412-.274.686-.685.686h-4.454c-.411 0-.685-.274-.685-.686 0-.411.343-.685.685-.685z"/><path d="m128.429 185.601h4.454c.411 0 .685.274.685.685s-.274.685-.685.685h-4.454c-.411 0-.685-.274-.685-.685s.343-.685.685-.685z"/><path d="m180.782 123.519h-2.604c-.411 0-.686-.274-.686-.685v-2.604c0-.411.275-.685.686-.685h2.604c.411 0 .685.274.685.685v2.604c0 .411-.274.685-.685.685zm-.686-2.535h-1.233v1.233h1.233z"/><path d="m185.58 123.519h-2.603c-.412 0-.686-.274-.686-.685v-2.604c0-.411.274-.685.686-.685h2.603c.412 0 .686.274.686.685v2.604c0 .411-.343.685-.686.685zm-.685-2.535h-1.233v1.233h1.233z"/><path d="m146.246 137.772h-30.355c-.754 0-1.371-.617-1.371-1.371v-22.749c0-.754.617-1.371 1.371-1.371h11.58c.411 0 .891.206 1.096.548l.412.549h9.73c.48 0 .891.205 1.165.616l2.261 3.289h4.248c.754 0 1.371.617 1.371 1.371v17.679c-.137.822-.685 1.439-1.508 1.439zm-8.291-21.585h-6.989l.822 1.165h6.921zm6.921 3.906h-13.842c-.411 0-.89-.206-1.096-.548l-3.152-4.454h-9.525v20.008h27.615z"/><path d="m127.471 122.49c-.548-.548-1.37-.548-1.918 0l-3.7 3.7c-.549.549-.549 1.371 0 1.919l3.7 3.7c.274.274.616.411.959.411s.685-.137.959-.411c.549-.548.549-1.37 0-1.918l-2.741-2.741 2.741-2.741c.549-.48.549-1.371 0-1.919z"/><path d="m136.652 122.49c-.548-.548-1.37-.548-1.919 0-.548.548-.548 1.371 0 1.919l2.741 2.741-2.741 2.741c-.548.548-.548 1.37 0 1.918.274.274.617.411.96.411.342 0 .685-.137.959-.411l3.7-3.7c.274-.274.411-.617.411-.959 0-.343-.137-.685-.411-.96z"/><path d="m132.335 122.148c-.754-.205-1.508.206-1.645.96l-1.987 7.332c-.205.753.206 1.507.959 1.644.137 0 .206.069.343.069.617 0 1.165-.411 1.302-1.028l1.987-7.332c.206-.685-.205-1.439-.959-1.645z"/><path d="m257.252 218.492c.274.274.617.411.959.411.343 0 .686-.137.96-.411.548-.548.548-1.37 0-1.919l-2.741-2.741 2.741-2.741c.548-.548.548-1.37 0-1.918-.549-.548-1.371-.548-1.919 0l-3.7 3.7c-.274.274-.411.617-.411.959 0 .343.137.686.411.96z"/><path d="m266.503 218.492c.274.274.617.411.959.411.343 0 .685-.137.96-.411l3.7-3.7c.274-.274.411-.617.411-.96 0-.342-.137-.685-.411-.959l-3.7-3.7c-.549-.548-1.371-.548-1.919 0s-.548 1.37 0 1.918l2.741 2.741-2.741 2.741c-.548.549-.548 1.439 0 1.919z"/><path d="m261.432 218.904c.137 0 .206.068.343.068.616 0 1.164-.411 1.302-1.028l1.987-7.332c.205-.753-.206-1.507-.96-1.644-.753-.206-1.507.205-1.644.959l-1.987 7.332c-.206.685.205 1.439.959 1.645z"/><path d="m341.399 209.994h-6.373c-.753 0-1.37-.616-1.37-1.37v-6.373c0-.753.617-1.37 1.37-1.37h6.373c.754 0 1.371.617 1.371 1.37v6.373c0 .754-.617 1.37-1.371 1.37zm-1.37-6.372h-3.632v3.631h3.632z"/><path d="m328.79 209.994h-6.373c-.754 0-1.37-.616-1.37-1.37v-6.373c0-.753.616-1.37 1.37-1.37h6.373c.753 0 1.37.617 1.37 1.37v6.373c0 .754-.617 1.37-1.37 1.37zm-1.371-6.372h-3.631v3.631h3.631z"/><path d="m341.399 224.179h-6.373c-.753 0-1.37-.617-1.37-1.37v-6.373c0-.754.617-1.371 1.37-1.371h6.373c.754 0 1.371.617 1.371 1.371v6.373c0 .753-.617 1.37-1.371 1.37zm-1.37-6.373h-3.632v3.632h3.632z"/><path d="m328.79 224.179h-6.373c-.754 0-1.37-.617-1.37-1.37v-6.373c0-.754.616-1.371 1.37-1.371h6.373c.753 0 1.37.617 1.37 1.371v6.373c0 .753-.617 1.37-1.37 1.37zm-1.371-6.373h-3.631v3.632h3.631z"/><path d="m281.374 153.463h-4.249c-.753 0-1.37-.617-1.37-1.37v-4.249c0-.754.617-1.37 1.37-1.37h4.249c.753 0 1.37.616 1.37 1.37v4.249c0 .753-.617 1.37-1.37 1.37zm-1.371-4.248h-1.507v1.507h1.507z"/><path d="m272.19 153.463h-4.248c-.754 0-1.371-.617-1.371-1.37v-4.249c0-.754.617-1.37 1.371-1.37h4.248c.754 0 1.371.616 1.371 1.37v4.249c0 .753-.617 1.37-1.371 1.37zm-1.37-4.248h-1.508v1.507h1.508z"/><path d="m306.249 149.214c-4.728 0-8.565-3.838-8.565-8.566s3.837-8.565 8.565-8.565 8.565 3.837 8.565 8.565-3.837 8.566-8.565 8.566zm0-14.39c-3.22 0-5.824 2.604-5.824 5.824 0 3.221 2.604 5.825 5.824 5.825 3.221 0 5.825-2.604 5.825-5.825 0-3.22-2.604-5.824-5.825-5.824z"/><path d="m225.117 213.832c0-2.741-2.261-5.002-5.002-5.002s-5.002 2.261-5.002 5.002 2.261 5.002 5.002 5.002 5.002-2.261 5.002-5.002z"/><path d="m214.494 212.392v3.358c0 .753-.617 1.37-1.37 1.37h-8.497c-.754 0-1.371-.617-1.371-1.37v-3.358c0-.754.617-1.371 1.371-1.371h8.497c.753 0 1.37.549 1.37 1.371z"/></g><rect fill="#94dfe9" height="2.77615" rx="1" transform="matrix(-1 0 0 1 276.193 256.784)" width="30.5377"/><rect fill="#d8f8fd" height="2.77615" rx="1" transform="matrix(.00000004 1 1 -.00000004 192.906 194.321)" width="20.8212"/><rect fill="#d8f8fd" height="2.77615" rx="1" transform="matrix(.00000004 1 1 -.00000004 192.906 217.919)" width="5.55231"/><path d="m307.422 193.627h7.635l-1.388-33.314-2.083-3.47-3.47-2.082-4.858.694-3.47 3.47-1.388 3.47v19.433z" fill="#00a0b6"/><circle fill="#00a0b6" r="7.63442" transform="matrix(-1 0 0 1 306.035 140.881)"/><path d="m0 0h6.94039v5.55231h-6.94039z" fill="#00a0b6" transform="matrix(-1 0 0 1 341.432 202.649)"/><path d="m0 0h6.94039v5.55231h-6.94039z" fill="#00a0b6" transform="matrix(-1 0 0 1 328.938 202.649)"/><path d="m0 0h6.94039v5.55231h-6.94039z" fill="#00a0b6" transform="matrix(-1 0 0 1 316.447 202.649)"/><path d="m0 0h6.94039v5.55231h-6.94039z" fill="#00a0b6" transform="matrix(-1 0 0 1 341.432 216.53)"/><path d="m0 0h6.94039v5.55231h-6.94039z" fill="#00a0b6" transform="matrix(-1 0 0 1 328.938 216.53)"/><path d="m0 0h6.94039v5.55231h-6.94039z" fill="#00a0b6" transform="matrix(-1 0 0 1 316.447 216.53)"/><path d="m0 0h6.94039v45.8065h-6.94039z" fill="#00a0b6" transform="matrix(-1 0 0 1 341.432 230.411)"/><path d="m0 0h6.94039v45.8065h-6.94039z" fill="#00a0b6" transform="matrix(-1 0 0 1 328.938 230.411)"/><path d="m0 0h6.94039v45.8065h-6.94039z" fill="#00a0b6" transform="matrix(-1 0 0 1 316.447 230.411)"/><path d="m0 0h4.16423v4.16423h-4.16423z" fill="#00a0b6" transform="matrix(-1 0 0 1 281.744 148.515)"/><path d="m0 0h4.16423v16.6569h-4.16423z" fill="#00a0b6" transform="matrix(-1 0 0 1 281.744 158.231)"/><path d="m0 0h4.16423v4.16423h-4.16423z" fill="#00a0b6" transform="matrix(-1 0 0 1 272.027 148.515)"/><path d="m0 0h4.16423v16.6569h-4.16423z" fill="#00a0b6" transform="matrix(-1 0 0 1 272.027 158.231)"/></svg>