<svg fill="none" height="333" viewBox="0 0 432 333" width="432" xmlns="http://www.w3.org/2000/svg" xmlns:xlink="http://www.w3.org/1999/xlink"><linearGradient id="a" gradientUnits="userSpaceOnUse" x1="234.75" x2="234.75" y1="168.021" y2="271.021"><stop offset="0" stop-color="#99e1eb"/><stop offset="1" stop-color="#69cddb"/></linearGradient><linearGradient id="b"><stop offset="0" stop-color="#eafcff"/><stop offset="1" stop-color="#bceff6"/></linearGradient><linearGradient id="c" gradientUnits="userSpaceOnUse" x1="324.611" x2="330.5" xlink:href="#b" y1="118.428" y2="193.021"/><linearGradient id="d" gradientUnits="userSpaceOnUse" x1="156.444" x2="160" xlink:href="#b" y1="126.983" y2="172.021"/><linearGradient id="e" gradientUnits="userSpaceOnUse" x1="298.611" x2="300.5" xlink:href="#b" y1="104.095" y2="128.021"/><linearGradient id="f" gradientUnits="userSpaceOnUse" x1="127.75" x2="127.75" y1="182.021" y2="260.521"><stop offset="0" stop-color="#dcfafe"/><stop offset="1" stop-color="#9de2ec"/></linearGradient><path d="m415.621.0839844h-399.2419c-9.04591 0-16.3791 7.4027956-16.3791 16.5346156v299.6894c0 9.132 7.33319 16.535 16.3791 16.535h399.2419c9.046 0 16.379-7.403 16.379-16.535v-299.6894c0-9.13182-7.333-16.5346156-16.379-16.5346156z" fill="#f1feff"/><path clip-rule="evenodd" d="m432 276v39.308c0 9.132-7.333 16.535-16.379 16.535h-399.2419c-9.04591 0-16.3791-7.403-16.3791-16.535v-39.308z" fill="#dbfaff" fill-rule="evenodd"/><path d="m164 271.021h69v6h-69z" fill="#c7f2f9"/><path d="m189 219.521-4-1.5v-28.5l18 18.5v42h-10.5l-1-24.5v-3.5z" fill="#9fddff"/><path d="m339.5 231.521v-33h21v33z" fill="#9fddff"/><path d="m260 278.021v-33h25v33z" fill="#9fddff"/><path d="m178 270.021h14.5l1.5-6.5 2-4 3.5-3 6-3 12-.5v18h43.5v-26.5h23.5v8.5h7v-59l-.5-9-2.5-7-3.5-4-5.5-3.5-7.5-2h-38l-11-.5-5.5 1.5-7.5 3.5-6 8-1.5 5v5 59.5h-17.5v6.5l-3 3h-4z" fill="url(#a)"/><path d="m284.5 278.021v-25h5.5l1.5-30.5h18l10.5 10h40.5v44.5z" fill="#2bbacd"/><path d="m202.5 84.5205c-18.8 10.4-14.167 34.6665-9.5 45.5005l40.5-11.5 2 4.5 1.5 2 3.5 1.5h3l-2.5-12 4.5-.5 3 1.5 2 4-2 4.5-4 2.5 6 20.5 16.5-5-14.5-49.5005-7-7.5-8.5-4-11.5-2-15 1z" fill="#bceff6"/><path d="m304 166.521c0-14.636 11.864-26.5 26.5-26.5s26.5 11.864 26.5 26.5c0 14.635-11.864 26.5-26.5 26.5s-26.5-11.865-26.5-26.5z" fill="url(#c)"/><path d="m144 156.021c0-8.837 7.163-16 16-16s16 7.163 16 16c0 8.836-7.163 16-16 16s-16-7.164-16-16z" fill="url(#d)"/><path d="m292 119.521c0-4.695 3.806-8.5 8.5-8.5s8.5 3.805 8.5 8.5c0 4.694-3.806 8.5-8.5 8.5s-8.5-3.806-8.5-8.5z" fill="url(#e)"/><path d="m75.5 260.021h32.5v-47l3.5-2h24.5l4.5.5 2.5 2.5v46.5h37l3.5-1 2-3v-70.5l-1.5-2.5-2-1.5h-109l-2 2-1 4v68l1.5 3.5z" fill="url(#f)"/><path d="m108 211.021h34v66h-34z" fill="#2bbacd"/><rect fill="#2bbacd" height="6" rx="2" width="64" x="100" y="271.021"/><circle cx="125.5" cy="229.521" fill="#b8ecf4" r="8.5"/><path clip-rule="evenodd" d="m287.5 179.521h-82l3.5-4.5 4.5-4 8-2h49 5l5.5 2 4 4zm-84.5 15.5h88v13h-88zm88 28h-88v13h88z" fill="#2bbacd" fill-rule="evenodd"/><path d="m125.007 219.9c-5.338 0-9.661 4.344-9.661 9.707 0 5.362 4.323 9.706 9.661 9.706 5.337 0 9.66-4.344 9.66-9.706 0-5.363-4.391-9.707-9.66-9.707zm0 16.698c-3.851 0-6.959-3.122-6.959-6.991s3.108-6.992 6.959-6.992c3.85 0 6.958 3.123 6.958 6.992 0 3.801-3.175 6.991-6.958 6.991z" fill="#00a0b6"/><path d="m349.907 214.402c2.972 0 5.404-2.443 5.404-5.43 0-2.986-2.432-5.43-5.404-5.43-2.973 0-5.405 2.444-5.405 5.43 0 2.987 2.432 5.43 5.405 5.43zm0-8.145c1.486 0 2.702 1.222 2.702 2.715s-1.216 2.715-2.702 2.715c-1.487 0-2.703-1.222-2.703-2.715s1.216-2.715 2.703-2.715z" fill="#00a0b6"/><path d="m319.573 247.797c-.54-.543-1.351-.543-1.891 0l-7.499 7.534c-.271.272-.406.611-.406.95 0 .34.135.679.406.951l7.499 7.534c.27.271.608.407.945.407.338 0 .676-.136.946-.407.541-.543.541-1.358 0-1.901l-6.553-6.584 6.553-6.584c.473-.475.473-1.357 0-1.9z" fill="#fff"/><path d="m338.354 247.797c-.541-.543-1.352-.543-1.892 0s-.54 1.357 0 1.9l6.553 6.584-6.553 6.584c-.54.543-.54 1.358 0 1.901.27.271.608.407.946.407s.675-.136.946-.407l7.499-7.534c.27-.272.405-.611.405-.951 0-.339-.135-.678-.405-.95z" fill="#fff"/><path d="m330.181 247.458c-.743-.204-1.486.203-1.622.95l-3.986 15.136c-.202.747.203 1.493.946 1.629.135 0 .203.068.338.068.608 0 1.149-.407 1.284-1.018l3.986-15.136c.202-.679-.203-1.426-.946-1.629z" fill="#fff"/><g fill="#00a0b6"><path d="m227.56 124.466c-.675-.339-1.486-.475-2.229-.203l-7.972 2.375c-.743.204-1.351.747-1.757 1.426-.337.678-.473 1.493-.202 2.24.202.746.743 1.357 1.418 1.764.406.204.879.34 1.419.34.27 0 .541-.068.811-.136l7.972-2.376c.743-.203 1.351-.746 1.756-1.425.338-.679.473-1.493.203-2.24-.203-.747-.676-1.358-1.419-1.765zm-1.148 2.715c0 .068-.068.068-.135.068l-7.972 2.376c-.068 0-.135 0-.135 0-.068 0-.068-.068-.068-.136s0-.136 0-.136.068-.068.135-.068l7.972-2.375h.068.067c.068 0 .068.068.135.136-.067 0-.067.067-.067.135z"/><path d="m360.649 196.618h-21.416c-.743 0-1.351.611-1.351 1.357v32.92h-1.351l-6.351-6.38c-.27-.272-.608-.407-.946-.407h-1.756v-32.513c15.403-.34 27.901-13.1 27.901-28.644 0-15.612-12.43-28.304-27.901-28.644v-16.629c0-.408-.27-.679-.676-.679h-20.335c-.338-4.887-4.391-8.824-9.39-8.824-5 0-9.053 3.869-9.391 8.824h-22.159l-3.04-10.317c-3.108-10.5892-10.202-19.3452-19.862-24.6396-9.661-5.2943-20.808-6.4482-31.415-3.3259l-1.486.4073c-19.592 5.8373-30.807 26.6072-24.997 46.2912l2.027 6.856c.203.747.946 1.154 1.689.882l10.809-3.19.541 1.833-1.689.543c-1.554.475-2.432 2.104-1.959 3.665.405 1.29 1.553 2.104 2.769 2.104.271 0 .541-.068.811-.135l1.689-.543 7.769 26.268c.135.339.338.611.676.814.203.136.405.136.675.136.136 0 .271 0 .406-.068l15.673-4.683 2.5 7.33h-5.675c-8.512 0-15.944 4.887-19.592 12.082-.067.068-.067.136-.067.204-1.487 2.986-2.297 6.312-2.297 9.842v4.819 10.725l-15.133-15.205v-3.394c0-3.054-2.5-5.565-5.54-5.565h-22.902v-10.725c9.255-.339 16.686-8.009 16.686-17.444 0-9.638-7.769-17.444-17.362-17.444s-17.362 7.806-17.362 17.444c0 9.367 7.431 17.105 16.686 17.444v10.793h-82.0152c-3.0401 0-5.5398 2.511-5.5398 5.565v69.777c0 3.055 2.4997 5.566 5.5398 5.566h31.5492v7.738h-3.445c-2.432 0-4.3913 1.968-4.3913 4.412v.747c0 2.443 1.9593 4.412 4.3913 4.412h8.918.067 26.753.068 18.849 3.85 55.803 43.44 24.592 75.665c.743 0 1.351-.611 1.351-1.358v-45.409-34.278c0-.746-.608-1.357-1.351-1.357zm-218.078-43.984c0-8.145 6.553-14.729 14.66-14.729s14.66 6.584 14.66 14.729-6.553 14.729-14.66 14.729c-8.039 0-14.66-6.652-14.66-14.729zm117.754 90.411c-.743 0-1.351.611-1.351 1.358v4.412h-41.616c-.743 0-1.351.611-1.351 1.357v1.901h-7.837c-1.486 0-2.905.203-4.256.543v-15.34h61.478v5.701h-5.067zm-95.19 29.051h13.309 24.051 14.863 13.849c.946 0 1.689.747 1.689 1.697v.747c0 .95-.743 1.697-1.689 1.697h-66.072c.203-.543.338-1.086.338-1.697v-.679c0-.611-.067-1.222-.338-1.765zm-7.904-2.715h-1.756v-.679c0-2.511.675-4.955 1.959-7.059h3.242c-1.148 1.561-1.824 3.53-1.824 5.566v2.172zm-13.376 0v-7.738h10.471c-1.013 2.172-1.554 4.616-1.554 7.059v.679zm-32.293 6.924c-1.554 0-2.77-1.29-2.77-2.851v-2.715-10.453-45.002c0-1.561 1.283-2.851 2.837-2.851h26.753c1.554 0 2.838 1.29 2.838 2.851v45.002 10.453 2.715c0 1.561-1.284 2.783-2.77 2.851zm69.247-14.662c3.04 0 5.54-2.511 5.54-5.566v-4.615h14.93v2.104c-5.675 2.647-9.593 8.417-9.593 15.068v.679h-11.823v-7.67zm9.863-12.828h-4.323v-28.984c1.013.272 1.891.747 2.634 1.494 1.081 1.086 1.689 2.511 1.689 4.072zm13.309-59.392c0-2.851.608-5.566 1.689-8.01h70.869c-4.459 2.512-7.972 6.584-9.796 11.472h-62.829v-3.462zm82.286 66.519h2.297c2.973 0 5.337 2.443 5.337 5.362s-2.432 5.362-5.337 5.362h-2.297zm3.581-21.314h-21.619v-10.588h21.619zm-30.874 34.753h-27.767-12.498v-17.851h40.265zm-52.425 0v-2.24h9.458v2.24zm9.458-4.955h-10.81c-.743 0-1.351.611-1.351 1.358v3.597h-1.283-2.095v-2.172c0-3.733 3.04-6.788 6.756-6.788h2.635c.743 0 1.351-.61 1.351-1.357s-.608-1.358-1.351-1.358h-2.635c-5.202 0-9.458 4.277-9.458 9.503v2.172h-3.378v-.679c0-7.67 6.215-13.914 13.849-13.914h7.837v9.638zm-12.026-40.386h61.478v10.588h-61.478zm64.181-2.715v-11.675h21.618v11.675zm.608-25.658h21.078v11.336h-21.619v-6.584c-.067-1.697.135-3.258.541-4.752zm.945-2.715c2.905-6.719 9.526-11.471 17.295-11.471h1.081c1.081 2.444 1.689 5.159 1.689 8.01v3.461zm-3.715 2.715c-.338 1.494-.541 3.123-.541 4.752v6.584h-61.478v-11.336zm-.541 13.983v11.675h-61.478v-11.675zm-97.824 59.731v-2.24h9.458v2.24zm9.526-4.955h-10.81c-.743 0-1.351.611-1.351 1.358v3.597h-3.445v-2.172c0-2.24 1.081-4.344 2.905-5.566h12.701zm58.1 7.67h23.713v4.209h-23.713c.202-.543.338-1.086.338-1.697v-.747c0-.611-.068-1.222-.338-1.765zm32.901-34.752h21.618v13.982c-.405-.068-.81-.068-1.283-.068h-2.297v-6.855c0-.747-.608-1.358-1.351-1.358h-16.755v-5.701zm18.105 34.141h2.297c5.54 0 10.066-4.547 10.066-10.113 0-4.209-2.499-7.738-6.147-9.299v-16.019-11.878h16.889l9.12 9.163c.271.271.609.407.946.407h39.725v42.694h-72.963v-4.955zm66.342-40.59h-5.404v-7.534c0-1.493 1.216-2.715 2.702-2.715s2.702 1.222 2.702 2.715zm-12.093-31.562h18.714v31.562h-3.986v-7.534c0-2.987-2.432-5.43-5.404-5.43-2.973 0-5.405 2.443-5.405 5.43v7.534h-3.986v-31.562zm-7.904 31.562h-12.566l-4.053-4.072h12.566zm19.997-67.944c0 14.322-11.62 25.997-25.874 25.997-14.255 0-25.875-11.675-25.875-25.997s11.62-25.997 25.875-25.997c14.254 0 25.874 11.675 25.874 25.997zm-55.6-51.993c3.716 0 6.756 3.054 6.756 6.787 0 3.734-3.04 6.788-6.756 6.788s-6.756-3.054-6.756-6.788c0-3.733 3.108-6.787 6.756-6.787zm-9.391 7.398c.338 4.887 4.392 8.824 9.391 8.824s9.053-3.869 9.391-8.824h19.659v15.883c-15.403.34-27.902 13.1-27.902 28.644 0 15.612 12.431 28.305 27.902 28.644v32.513h-12.701l-2.364-2.376c-.271-.271-.609-.407-.946-.407h-17.498v-12.965-13.982-4.819c0-3.53-.811-6.856-2.297-9.842 0-.068-.067-.136-.135-.204-3.648-7.127-11.08-12.082-19.592-12.082h-12.903l-4.527-15.272 19.592-5.838c.743-.203 1.149-.95.878-1.696l-7.701-26.133h21.753zm-100.324 6.381c-5.404-18.259 5-37.536 23.173-42.8982l1.486-.4072c9.864-2.9187 20.268-1.8327 29.32 3.1223 9.053 4.9549 15.674 13.1001 18.579 23.0781l10.742 36.517-18.241 5.43-6.553-22.127 1.283-.408c3.716-1.086 5.81-5.022 4.73-8.756l-.068-.339c-1.149-3.869-5.134-6.041-8.985-4.887l-2.297.679c-.743.203-1.149.95-.878 1.697l2.972 10.045c-2.77.34-5.54-1.425-6.418-4.14l-1.013-3.258c-.203-.679-.946-1.086-1.689-.883l-44.386 13.236zm57.763 0-2.635-8.824 1.013-.34c2.365-.678 4.932.679 5.608 3.055l.067.339c.676 2.24-.608 4.684-2.905 5.362zm-46.143 10.656c-.135.068-.202 0-.27-.136 0-.135 0-.203.135-.271l2.973-.882 4.932-1.494h.067c.068 0 .203.068.203.136 0 .136 0 .204-.135.272l-4.932 1.493zm10.607 19.956c1.149 1.018 2.365 1.968 3.783 2.715 1.352.747 2.838 1.357 4.324 1.697l-6.215 1.833zm19.592 3.869 3.783-1.086c.068 0 .135-.068.203-.068 3.986-1.29 7.296-4.005 9.323-7.738 2.027-3.801 2.5-8.213 1.284-12.353-.203-.747-.946-1.154-1.689-.883-.744.204-1.149.95-.879 1.697 2.095 7.127-1.959 14.661-9.052 16.766l-5 1.493c-4.188 1.222-8.58.746-12.363-1.29-3.851-2.104-6.621-5.566-7.837-9.706l-2.702-9.231 3.648-1.086c1.554-.476 2.432-2.105 1.959-3.666s-2.094-2.443-3.648-1.968l-3.648 1.086-.54-1.833 31.009-9.231.608 2.036c1.351 4.141 5.54 6.652 9.728 5.973l6.891 23.486 4.594 15.679h-22.97zm-5.81 10.792h7.566 39.657c6.688 0 12.634 3.462 16.079 8.688h-79.381c3.446-5.226 9.391-8.688 16.079-8.688zm-22.024 38.893v27.083 12.829h-7.904v-23.418c0-2.24-.879-4.344-2.432-5.973-1.284-1.289-2.838-2.104-4.594-2.376v-23.485zm-126.7392-25.385h106.3362c1.554 0 2.838 1.289 2.838 2.85v16.087h-112.0117v-16.087c0-1.561 1.2836-2.85 2.8375-2.85zm0 75.41c-1.5539 0-2.8375-1.289-2.8375-2.851v-50.975h111.9437v50.975c0 1.562-1.283 2.851-2.837 2.851h-24.186-12.768v-43.712c0-3.055-2.5-5.566-5.54-5.566h-26.686c-3.04 0-5.54 2.511-5.54 5.566v43.712zm26.4152 15.68v-.747c0-.95.743-1.697 1.689-1.697h3.445v1.358c0 1.018.271 1.968.811 2.85h-4.188c-1.014-.067-1.757-.814-1.757-1.764zm56.276 1.697h-14.187c.473-.815.811-1.765.811-2.851v-1.358h13.376 3.851c.946 0 1.689.747 1.689 1.697v.747c0 .95-.743 1.697-1.689 1.697h-3.851zm104.445 0v-30.613h21.889v30.613z"/><path d="m298.158 119.647h2.567c.406 0 .676-.272.676-.679v-2.579c0-.408-.27-.679-.676-.679h-2.567c-.405 0-.676.271-.676.679v2.579c0 .407.271.679.676.679zm.676-2.58h1.216v1.222h-1.216z"/><path d="m293.429 119.647h2.568c.405 0 .675-.272.675-.679v-2.579c0-.408-.27-.679-.675-.679h-2.568c-.405 0-.675.271-.675.679v2.579c0 .407.27.679.675.679zm.676-2.58h1.216v1.222h-1.216z"/><path d="m324.438 149.784-.608 3.598c-.743.203-1.419.543-2.094.882l-2.973-2.104c-.27-.204-.608-.136-.811.068l-2.364 2.375c-.203.204-.27.543-.068.815l2.095 2.987c-.406.678-.676 1.357-.879 2.172l-3.58.61c-.271.068-.541.34-.541.611v3.394c0 .272.203.543.541.611l3.58.611c.203.747.541 1.493.879 2.172l-2.095 2.987c-.202.271-.135.61.068.814l2.364 2.376c.203.203.541.271.811.068l2.973-2.105c.675.408 1.351.679 2.094.883l.608 3.597c.067.272.338.543.608.543h3.378c.27 0 .54-.203.608-.543l.675-3.665c.744-.204 1.419-.543 2.095-.882l3.04 2.104c.27.203.608.135.811-.068l2.364-2.376c.203-.203.27-.543.068-.814l-2.162-2.987c.405-.679.675-1.357.878-2.104l3.648-.611c.27-.068.473-.339.473-.611v-3.394c0-.339-.203-.543-.54-.611l-3.649-.61c-.202-.747-.472-1.426-.878-2.105l2.095-3.054c.202-.272.135-.611-.068-.815l-2.365-2.375c-.202-.204-.54-.272-.81-.068l-2.973 2.172c-.675-.407-1.351-.679-2.094-.882l-.608-3.666c-.068-.271-.338-.543-.608-.543h-3.378c-.338 0-.541.272-.608.543zm6.621 13.711c0 2.376-1.96 4.344-4.324 4.344-2.365 0-4.324-1.968-4.324-4.344 0-2.375 1.959-4.344 4.324-4.344 2.364 0 4.324 1.969 4.324 4.344z"/><path d="m162.365 160.577v-15.137c0-1.086-.878-1.968-1.959-1.968h-6.486c-1.081 0-1.959.882-1.959 1.968v15.137c0 1.086.878 1.968 1.959 1.968h6.486c1.081 0 1.959-.882 1.959-1.968zm-6.959-15.748h3.513v.272h-3.513zm-2.094 15.748v-15.137c0-.339.27-.611.608-.611h.135v.407c0 .679.541 1.222 1.216 1.222h3.784c.675 0 1.216-.543 1.216-1.222v-.407h.135c.337 0 .608.272.608.611v15.137c0 .339-.271.61-.608.61h-6.486c-.338 0-.608-.271-.608-.61z"/><path d="m233 271.021h27v7h-27z"/><path d="m205 266.021h12v4h-12z"/><path d="m192 249.521h-7v-29l.5-2.5 5 3.5 1.5 4z"/><circle cx="350" cy="209.021" r="4"/><path d="m346 222.521v9.5h8v-9l-.5-2-2-1.5h-3l-1.5 1z"/></g><rect fill="#d8f9fd" height="2" rx="1" width="18" x="222" y="254.021"/><rect fill="#6ccedc" height="2" rx="1" width="28" x="148" y="254.021"/><rect fill="#6ccedc" height="2" rx="1" width="12" x="92" y="254.021"/><rect fill="#f2f2f2" height="2" rx="1" transform="matrix(0 -1 1 0 13.979 546.021)" width="18" x="280" y="266.021"/><rect fill="#d8f9fd" height="2" rx="1" width="5" x="242" y="254.021"/></svg>