<?xml version="1.0" encoding="UTF-8"?>
<svg width="24px" height="24px" viewBox="0 0 24 24" version="1.1" xmlns="http://www.w3.org/2000/svg" xmlns:xlink="http://www.w3.org/1999/xlink">
    <!-- Generator: Sketch 52.6 (67491) - http://www.bohemiancoding.com/sketch -->
    <title>Group 8</title>
    <desc>Created with Sketch.</desc>
    <g id="Landing-page" stroke="none" stroke-width="1" fill="none" fill-rule="evenodd">
        <g id="1.1--Home" transform="translate(-163.000000, -2638.000000)" fill="#0B7A76" fill-rule="nonzero">
            <g id="Group-4" transform="translate(163.000000, 1943.000000)">
                <g id="Group-30" transform="translate(0.000000, 162.000000)">
                    <g id="Group-12" transform="translate(0.000000, 527.000000)">
                        <g id="Group-8" transform="translate(0.000000, 6.000000)">
                            <g id="play">
                                <g id="money-stack">
                                    <path d="M15.264,8.148 L10.116,13.308 L8.136,11.328 C7.84273214,10.9855486 7.38225793,10.8363817 6.94389723,10.9418278 C6.50553654,11.047274 6.16327401,11.3895365 6.05782784,11.8278972 C5.95238167,12.2662579 6.10154861,12.7267321 6.444,13.02 L9.264,15.852 C9.4904626,16.0766238 9.79703642,16.2018441 10.116,16.2 C10.4308079,16.1986745 10.7324872,16.073693 10.956,15.852 L16.956,9.852 C17.1831752,9.62668008 17.310958,9.31996504 17.310958,9 C17.310958,8.68003496 17.1831752,8.37331992 16.956,8.148 C16.4879551,7.68273169 15.7320449,7.68273169 15.264,8.148 Z M12,8.8817842e-17 C5.372583,-7.10542736e-16 2.30926389e-15,5.372583 1.77635684e-15,12 C1.24344979e-15,18.627417 5.372583,24 12,24 C18.627417,24 24,18.627417 24,12 C24,8.81740212 22.7357179,5.76515517 20.4852814,3.51471863 C18.2348448,1.26428208 15.1825979,-1.77635684e-16 12,8.8817842e-17 Z M12,21.6 C6.6980664,21.6 2.4,17.3019336 2.4,12 C2.4,6.6980664 6.6980664,2.4 12,2.4 C17.3019336,2.4 21.6,6.6980664 21.6,12 C21.6,14.5460783 20.5885743,16.9878759 18.7882251,18.7882251 C16.9878759,20.5885743 14.5460783,21.6 12,21.6 Z" id="Shape"></path>
                                </g>
                            </g>
                        </g>
                    </g>
                </g>
            </g>
        </g>
    </g>
</svg>