<svg height="50" viewBox="0 0 50 50" width="50" xmlns="http://www.w3.org/2000/svg"><g fill="none" fill-rule="evenodd"><circle cx="25" cy="25" fill="#fff" r="25"/><g fill="#0b7a76"><circle cx="25" cy="25" fill-opacity=".3" r="25"/><path d="m17.71 14.71-2.42-2.42c-.1877666-.1893127-.4433625-.2957983-.71-.2957983s-.5222334.1064856-.71.2957983l-3.58 3.58c-.1871865.1887188-.29153676.444197-.29.71v2.42c0 .5522847.4477153 1 1 1h2.42c.265803.0015368.5212812-.1028135.71-.29l3.58-3.58c.1893127-.1877666.2957983-.4433625.2957983-.71s-.1064856-.5222334-.2957983-.71zm-4.71 3.29h-1v-1l2.58-2.58 1 1zm-6 0h-4c-.55228475 0-1-.4477153-1-1v-14c0-.55228475.44771525-1 1-1h5v3c0 1.65685425 1.34314575 3 3 3h3v1c0 .55228475.4477153 1 1 1s1-.44771525 1-1v-2s0 0 0-.06c-.0104163-.0918651-.0305284-.18236942-.06-.27v-.09c-.0480811-.10282025-.1122162-.19733517-.19-.28l-6-6c-.08266483-.07778379-.17717975-.14191892-.28-.19-.0298502-.00423982-.0601498-.00423982-.09 0l-.32-.11h-6.06c-1.65685425 0-3 1.34314575-3 3v14c0 1.6568542 1.34314575 3 3 3h4c.55228475 0 1-.4477153 1-1s-.44771525-1-1-1zm3-14.59 2.59 2.59h-1.59c-.5522847 0-1-.44771525-1-1zm-5 8.59h6c.5522847 0 1-.4477153 1-1s-.4477153-1-1-1h-6c-.55228475 0-1 .4477153-1 1s.44771525 1 1 1zm0-4h1c.55228475 0 1-.44771525 1-1s-.44771525-1-1-1h-1c-.55228475 0-1 .44771525-1 1s.44771525 1 1 1zm2 6h-2c-.55228475 0-1 .4477153-1 1s.44771525 1 1 1h2c.55228475 0 1-.4477153 1-1s-.44771525-1-1-1z" fill-rule="nonzero" transform="translate(16 15)"/></g></g></svg>