<svg height="24" viewBox="0 0 24 24" width="24" xmlns="http://www.w3.org/2000/svg"><path d="m15.264 8.148-5.148 5.16-1.98-1.98c-.29326786-.3424514-.75374207-.4916183-1.19210277-.3861722-.43836069.1054462-.78062322.4477087-.88606939.8860694s.04372077.8988349.38617216 1.1921028l2.82 2.832c.2264626.2246238.53303642.3498441.852.348.3148079-.0013255.6164872-.126307.84-.348l6-6c.2271752-.22531992.354958-.53203496.354958-.852s-.1277828-.62668008-.354958-.852c-.4680449-.46526831-1.2239551-.46526831-1.692 0zm-3.264-8.148c-6.627417 0-12 5.372583-12 12s5.372583 12 12 12 12-5.372583 12-12c0-3.18259788-1.2642821-6.23484483-3.5147186-8.48528137-2.2504366-2.25043655-5.3026835-3.51471863-8.4852814-3.51471863zm0 21.6c-5.3019336 0-9.6-4.2980664-9.6-9.6s4.2980664-9.6 9.6-9.6 9.6 4.2980664 9.6 9.6c0 2.5460783-1.0114257 4.9878759-2.8117749 6.7882251s-4.2421468 2.8117749-6.7882251 2.8117749z" fill="#0b7a76"/></svg>