<svg height="24" viewBox="0 0 24 24" width="24" xmlns="http://www.w3.org/2000/svg"><path d="m6.6 16.8c.99411255 0 1.8-.8058875 1.8-1.8.00585808-.059857.00585808-.120143 0-.18l3.348-3.348h.276.276l1.932 1.932v.096c0 .9941125.8058875 1.8 1.8 1.8s1.8-.8058875 1.8-1.8v-.096l4.368-4.404c.9941125 0 1.8-.80588745 1.8-1.8s-.8058875-1.8-1.8-1.8-1.8.80588745-1.8 1.8c-.0058581.05985701-.0058581.12014299 0 .18l-4.332 4.332h-.192l-2.076-2.112c0-.99411255-.8058875-1.8-1.8-1.8s-1.8.80588745-1.8 1.8l-3.6 3.6c-.99411255 0-1.8.8058875-1.8 1.8s.80588745 1.8 1.8 1.8zm16.2 4.8h-20.4v-20.4c0-.6627417-.5372583-1.2-1.2-1.2s-1.2.5372583-1.2 1.2v21.6c0 .6627417.5372583 1.2 1.2 1.2h21.6c.6627417 0 1.2-.5372583 1.2-1.2s-.5372583-1.2-1.2-1.2z" fill="#0b7a76"/></svg>