<svg height="36" viewBox="0 0 36 36" width="36" xmlns="http://www.w3.org/2000/svg"><path d="m34.2 0h-10.8c-.9941125 0-1.8.80588745-1.8 1.8s.8058875 1.8 1.8 1.8h9v9c0 .9941125.8058875 1.8 1.8 1.8s1.8-.8058875 1.8-1.8v-10.8c0-.99411255-.8058875-1.8-1.8-1.8zm0 21.6c-.9941125 0-1.8.8058875-1.8 1.8v9h-9c-.9941125 0-1.8.8058875-1.8 1.8s.8058875 1.8 1.8 1.8h10.8c.9941125 0 1.8-.8058875 1.8-1.8v-10.8c0-.9941125-.8058875-1.8-1.8-1.8zm-16.2-14.4c-2.9823376 0-5.4 2.41766235-5.4 5.4v1.8c-1.9882251 0-3.6 1.6117749-3.6 3.6v7.2c0 1.9882251 1.6117749 3.6 3.6 3.6h10.8c1.9882251 0 3.6-1.6117749 3.6-3.6v-7.2c0-1.9882251-1.6117749-3.6-3.6-3.6v-1.8c0-2.98233765-2.4176624-5.4-5.4-5.4zm-1.8 5.4c0-.9941125.8058875-1.8 1.8-1.8s1.8.8058875 1.8 1.8v1.8h-3.6zm7.2 12.6h-10.8v-7.2h10.8zm-21.6-10.8c.99411255 0 1.8-.8058875 1.8-1.8v-9h9c.9941125 0 1.8-.80588745 1.8-1.8s-.8058875-1.8-1.8-1.8h-10.8c-.99411255 0-1.8.80588745-1.8 1.8v10.8c0 .9941125.80588745 1.8 1.8 1.8zm10.8 18h-9v-9c0-.9941125-.80588745-1.8-1.8-1.8s-1.8.8058875-1.8 1.8v10.8c0 .9941125.80588745 1.8 1.8 1.8h10.8c.9941125 0 1.8-.8058875 1.8-1.8s-.8058875-1.8-1.8-1.8z" fill="#0b7a76"/></svg>