<?xml version="1.0" encoding="UTF-8"?>
<svg width="23px" height="23px" viewBox="0 0 23 23" version="1.1" xmlns="http://www.w3.org/2000/svg" xmlns:xlink="http://www.w3.org/1999/xlink">
    <!-- Generator: Sketch 52.6 (67491) - http://www.bohemiancoding.com/sketch -->
    <title>Group 9</title>
    <desc>Created with Sketch.</desc>
    <g id="Landing-page" stroke="none" stroke-width="1" fill="none" fill-rule="evenodd">
        <g id="1.1--Home" transform="translate(-1278.000000, -3673.000000)" fill="#0B7A76" fill-rule="nonzero">
            <g id="how-it-works-and-security" transform="translate(0.000000, 2983.000000)">
                <g id="Group-16" transform="translate(950.000000, 203.000000)">
                    <g id="Group-15">
                        <g id="Group-5" transform="translate(210.000000, 483.000000)">
                            <g id="Group-9" transform="translate(118.000000, 4.000000)">
                                <g id="code">
                                    <g id="desktop-alt">
                                        <path d="M19.55,5.10702591e-16 L3.45,5.10702591e-16 C1.54461761,0 5.10702591e-16,1.54461761 0,3.45 L0,14.95 C5.10702591e-16,16.8553824 1.54461761,18.4 3.45,18.4 L6.9,18.4 L6.9,20.7 L3.45,20.7 C2.81487254,20.7 2.3,21.2148725 2.3,21.85 C2.3,22.4851275 2.81487254,23 3.45,23 L19.55,23 C20.1851275,23 20.7,22.4851275 20.7,21.85 C20.7,21.2148725 20.1851275,20.7 19.55,20.7 L16.1,20.7 L16.1,18.4 L19.55,18.4 C21.4553824,18.4 23,16.8553824 23,14.95 L23,3.45 C23,1.54461761 21.4553824,0 19.55,5.10702591e-16 Z M13.8,20.7 L9.2,20.7 L9.2,18.4 L13.8,18.4 L13.8,20.7 Z M20.7,14.95 C20.7,15.5851275 20.1851275,16.1 19.55,16.1 L3.45,16.1 C2.81487254,16.1 2.3,15.5851275 2.3,14.95 L2.3,13.8 L20.7,13.8 L20.7,14.95 Z M20.7,11.5 L2.3,11.5 L2.3,3.45 C2.3,2.81487254 2.81487254,2.3 3.45,2.3 L19.55,2.3 C20.1851275,2.3 20.7,2.81487254 20.7,3.45 L20.7,11.5 Z" id="Shape"></path>
                                    </g>
                                </g>
                            </g>
                        </g>
                    </g>
                </g>
            </g>
        </g>
    </g>
</svg>