<svg height="60" viewBox="0 0 60 60" width="60" xmlns="http://www.w3.org/2000/svg"><g fill="#13837f"><path d="m56 .00002144c-2.209139 0-4 1.790861-4 4v.18c-.9170069-.33407746-1.9394844-.19795405-2.7371486.3643992-.7976641.56235324-1.2694095 1.479657-1.2628514 2.4556008v1.18c-.9170069-.33407746-1.9394844-.19795405-2.7371486.3643992-.7976641.56235324-1.2694095 1.47965696-1.2628514 2.45560076v19.54l-2.33 4.03c-.4384923.7602468-.6695389 1.6223609-.67 2.5v13.11c-1.1938517.4252305-1.9934724 1.5526957-2 2.82v4c.0049422 1.6548028 1.3451972 2.9950578 3 3h12c1.6548028-.0049422 2.9950578-1.3451972 3-3v-4c-.0065276-1.2673043-.8061483-2.3947695-2-2.82v-3.87c.0024701-.71458.2574971-1.4052782.72-1.95l3.08-3.59c.7732216-.9064751 1.198601-2.0585442 1.2-3.25v-33.51999996c0-2.209139-1.790861-4-4-4zm-6 7c0-.55228475.4477153-1 1-1s1 .44771525 1 1v15.35999996c-.6384304-.153337-1.3048666-.1464665-1.94.02-.02 0-.04.02-.06.02zm-4 3.99999996c0-.5522847.4477153-1 1-1s1 .4477153 1 1v12.73c-.1345012.161611-.2581072.3319869-.37.51l-1.63 2.83zm9 46c0 .5522848-.4477153 1-1 1h-12c-.5522847 0-1-.4477152-1-1v-4c0-.5522847.4477153-1 1-1h12c.5522847 0 1 .4477153 1 1zm3-19.48c-.0007345.7148923-.2559751 1.4061688-.72 1.95l-3.08 3.59c-.7716967.9073678-1.1968618 2.0588568-1.2 3.25v3.69h-10v-12.93c.0022665-.5260592.1400273-1.0426623.4-1.5l5.97-10.33c.5529293-.9546113 1.7744087-1.281234 2.73-.73.9517865.5550893 1.2777082 1.773947.73 2.73l-6.5 11.26 1.73 1 6.5-11.26c.8723869-1.5251311.6450397-3.4413432-.56-4.72v-19.51999996c0-1.1045695.8954305-2 2-2s2 .8954305 2 2z"/><path d="m43 54.000021h10v2h-10z"/><path d="m19 50.1800214v-13.11c-.0004611-.8776391-.2315077-1.7397532-.67-2.5l-2.33-4.03v-19.54c.0065581-.9759438-.4651873-1.89324752-1.2628514-2.45560076-.7976642-.56235325-1.8201417-.69847666-2.7371486-.3643992v-1.18c.0065581-.9759438-.4651873-1.89324756-1.2628514-2.4556008-.79766421-.56235325-1.82014175-.69847666-2.7371486-.3643992v-.18c0-2.209139-1.790861-4-4-4s-4 1.790861-4 4v33.51999996c.00139902 1.1914558.42677839 2.3435249 1.2 3.25l3.08 3.59c.46250292.5447218.71752992 1.23542.72 1.95v3.87c-1.19385168.4252305-1.99347241 1.5526957-2 2.82v4c.0049422 1.6548028 1.3451972 2.9950578 3 3h12c1.6548028-.0049422 2.9950578-1.3451972 3-3v-4c-.0065276-1.2673043-.8061483-2.3947695-2-2.82zm-7-39.18c0-.5522847.4477153-1 1-1s1 .4477153 1 1v16.07l-1.63-2.83c-.1118928-.1780131-.2354988-.348389-.37-.51zm-4-3.99999996c0-.55228475.44771525-1 1-1s1 .44771525 1 1v15.39999996c-.02 0-.04-.02-.06-.02-.63445451-.1714567-1.30214552-.1783401-1.94-.02zm-5.28 32.46999996c-.46402489-.5438312-.71926545-1.2351077-.72-1.95v-33.51999996c0-1.1045695.8954305-2 2-2s2 .8954305 2 2v19.51999996c-1.20503966 1.2786568-1.43238686 3.1948689-.56 4.72l6.5 11.26 1.73-1-6.5-11.26c-.54770817-.956053-.22178651-2.1749107.73-2.73.95559126-.551234 2.1770707-.2246113 2.73.73l5.97 10.33c.2599727.4573377.3977335.9739408.4 1.5v12.93h-10v-3.69c-.00313819-1.1911432-.42830335-2.3426322-1.2-3.25zm16.28 17.53c0 .5522848-.4477153 1-1 1h-12c-.55228475 0-1-.4477152-1-1v-4c0-.5522847.44771525-1 1-1h12c.5522847 0 1 .4477153 1 1z"/><path d="m7 54.000021h10v2h-10z"/><path d="m41.34 4.06002144-11-4c-.2196028-.08002859-.4603972-.08002859-.68 0l-11 4c-.3974668.14115717-.6622114.51821765-.66.94v8.68999996c.0024105 3.6613075 1.5448743 7.1527196 4.25 9.62l7.08 6.43c.3793536.346794.9606464.346794 1.34 0l7.08-6.43c2.7051257-2.4672804 4.2475895-5.9586925 4.25-9.62v-8.68999996c.0022114-.42178235-.2625332-.79884283-.66-.94zm-1.34 9.62999996c-.0021484 3.0988061-1.3088963 6.0535084-3.6 8.14l-6.4 5.82-6.4-5.82c-2.2911037-2.0864916-3.5978516-5.0411939-3.6-8.14v-7.98999996l10-3.64 10 3.64z"/><path d="m25.707 13.2930214-1.414 1.414 4 4c.3904999.390382 1.0235001.390382 1.414 0l7-7-1.414-1.414-6.293 6.293z"/></g></svg>