<svg height="64" viewBox="0 0 64 64" width="64" xmlns="http://www.w3.org/2000/svg"><g fill="none"><path d="m52 64h-40c-6.628 0-12-5.372-12-12v-40c0-6.628 5.372-12 12-12h40c6.628 0 12 5.372 12 12v40c0 6.628-5.372 12-12 12z" fill="#b7d7d6"/><g fill="#0b7a76"><path d="m38.24 20.04-10.668-4c-.16-.054-.32-.054-.48 0l-10.668 4c-.252.094-.424.346-.424.626v8.574c0 9.08 6.186 12.814 9.348 14.134.134-2.76 1.92-5.134 4.44-6.106 1.438-3.134 4.652-5.268 8.212-5.268.146 0 .306 0 .454.014.146-.866.214-1.786.214-2.774v-8.574c-.002-.28-.174-.532-.428-.626z"/><path d="m42.87 48h-10.55c-2.382 0-4.32-1.914-4.32-4.266 0-2.188 1.676-3.996 3.828-4.238.662-2.788 3.224-4.828 6.174-4.828 2.322 0 4.464 1.264 5.564 3.254 2.516.326 4.434 2.458 4.434 5.012 0 2.794-2.3 5.066-5.13 5.066z"/></g></g></svg>