<svg height="64" viewBox="0 0 64 64" width="64" xmlns="http://www.w3.org/2000/svg"><g fill="none"><path d="m52 64h-40c-6.628 0-12-5.372-12-12v-40c0-6.628 5.372-12 12-12h40c6.628 0 12 5.372 12 12v40c0 6.628-5.372 12-12 12z" fill="#b7d7d6"/><path d="m43.4376216 39.7303076-4.8669947-4.8685922c1.0032966-1.5155038 1.5955003-3.3272068 1.5955003-5.2769442 0-5.2855714-4.3006639-9.5847712-9.5816262-9.5847712s-9.584501 4.2963241-9.584501 9.5818955 4.3006639 9.5847712 9.5816262 9.5847712c1.9490977 0 3.7602062-.5923981 5.2752128-1.596024l4.8669946 4.8685921c.7474416.7476869 1.9605968.7476869 2.7109132 0 .7531911-.7476869.7531911-1.9612403.0028748-2.7089272zm-12.9376227-3.7303076c-3.0332494 0-5.4999989-2.691-5.4999989-6s2.4667495-6 5.4999989-6c3.0332493 0 5.4999988 2.691 5.4999988 6 .00275 3.309-2.4667495 6-5.4999988 6z" fill="#0b7a76"/></g></svg>