<svg height="60" viewBox="0 0 60 60" width="60" xmlns="http://www.w3.org/2000/svg"><g fill="#107674"><path d="m48 17c-1.1045695 0-2-.8954305-2-2h-2c.0068148 1.8184116 1.2393149 3.4034067 3 3.858v1.142h2v-1.142c1.9482742-.5014457 3.2190002-2.3742805 2.9650329-4.3699561-.2539674-1.9956755-1.953264-3.4905487-3.9650329-3.4880439-1.1045695 0-2-.8954305-2-2s.8954305-2 2-2 2 .8954305 2 2h2c-.0068148-1.81841162-1.2393149-3.40340667-3-3.858v-1.142h-2v1.142c-1.9482742.50144572-3.2190002 2.37428054-2.9650329 4.36995608.2539674 1.99567552 1.953264 3.49054872 3.9650329 3.48804392 1.1045695 0 1.9999999.8954305 1.9999999 2s-.8954304 2-1.9999999 2z"/><path d="m10 14h3v-2h-4c-.55228475 0-1 .4477153-1 1v4h2z"/><path d="m24 17h2v-4c0-.5522847-.4477153-1-1-1h-4v2h3z"/><path d="m32 28h2v2h-2z"/><path d="m28 28h2v2h-2z"/><path d="m24 28h2v2h-2z"/><path d="m20 28h2v2h-2z"/><path d="m16 28h2v2h-2z"/><path d="m12 28h2v2h-2z"/><path d="m59.339973 34.0608186-4.3399981-1.5799502v-9.4797008c-.0049371-.3911565-.0552741-.7804171-.1499999-1.1599634 3.9676086-2.7571763 5.8931972-7.6258848 4.8848367-12.35094909s-4.7537263-8.38362831-9.5012512-9.28105222c-4.7475248-.89742392-9.5699659 1.14156884-12.2335778 5.17252075v-4.37986178c0-.55226732-.4477151-.99996845-.9999996-.99996845h-25.9999881c-.5522845 0-.99999955.44770113-.99999955.99996845v2.99990533h-2.99999864c-.5522845 0-.99999954.44770112-.99999954.99996844v2.99990533h-.99999955c-.5522845 0-.99999954.44770112-.99999954.99996844v8.999716h-.99999955c-1.65480204.004942-2.99505643 1.3451547-2.99999863 2.9999053v37.9988009c0 .5522673.44771505.9999684.99999955.9999684h46.99997855c.2476926-.0014031.4861972-.0939543.6699997-.2599918l7.0799968-6.4297971c2.7051245-2.4672026 4.2475876-5.9585045 4.2499981-9.6196964v-8.6897258c.0022114-.421769-.2625331-.7988176-.6599997-.9399703zm-55.33997482 23.9392445h-1.99999909v-31.9989902h1.99999909zm0-33.9989271h-1.99999909v-2.9999053c0-.5522673.44771505-.9999684.99999954-.9999684h.99999955zm43.99997992-21.9993057c5.522845 0 9.9999955 4.47701122 9.9999955 9.9996844 0 5.5226732-4.4771505 9.9996845-9.9999955 9.9996845-5.5228449 0-9.9999954-4.4770113-9.9999954-9.9996845.0088096-5.51902013 4.4808036-9.99087509 9.9999954-9.9996844zm-9.9999954 16.6194755c3.2501615 4.9379023 9.6225107 6.7573023 14.9899932 4.279865 0 .029999.01.0699978.01.0999968v8.7497239l-3.9999982-1.4499543v-3.2998958c-.0049422-1.6547506-1.3451966-2.9949633-2.9999987-2.9999054h-7.9999963zm-25.9999882-16.6194755h23.9999891v21.9993057h-1.9999991v-18.99940037c0-.55226732-.447715-.99996844-.9999995-.99996844h-20.9999905zm-3.99999814 3.99987377h23.99998904v17.99943193h-1.9999991v-14.9995266c0-.55226732-.447715-.99996844-.9999995-.99996844h-20.99999044zm-1.99999909 3.99987373h21.99998993v13.9995582h-21.99998993zm1.99999909 47.9984853h-1.99999909v-31.9989902h1.99999909zm1.99999909 0v-31.9989902h35.99998355c.5522845 0 .9999996.4477012.9999996.9999685v3.2998958l-10.3399953 3.7598814c-.3974667.1411527-.6622111.5182013-.6599997.9399703v8.6897258c.0024105 3.6611919 1.5448736 7.1524938 4.2499981 9.6196964l5.1599976 4.689852zm47.99997815-14.3095484c-.0021484 3.0987082-1.3088958 6.0533173-3.5999984 8.1397431l-6.3999971 5.8198164-6.399997-5.8198164c-2.2911027-2.0864258-3.59785-5.0410349-3.5999984-8.1397431v-7.9897479l9.9999954-3.6398851 9.9999955 3.6398851z"/><path d="m43.4807475 43.1010293-1.4807475 1.4616185 4.1888191 4.1347057c.4089333.4035287 1.0718142.4035287 1.4807475 0l7.3304334-7.235735-1.4807475-1.4616185-6.5900597 6.5049258z"/></g></svg>