<svg width="73" height="73" viewBox="0 0 73 73" fill="none" xmlns="http://www.w3.org/2000/svg">
<path d="M70.7188 59.3125H66.1562V22.2422C66.1551 21.1838 65.7341 20.169 64.9857 19.4206C64.2372 18.6721 63.2225 18.2512 62.1641 18.25H55.8906V3.42188C55.8906 3.11936 55.7705 2.82924 55.5565 2.61533C55.3426 2.40142 55.0525 2.28125 54.75 2.28125H18.25C17.9475 2.28125 17.6574 2.40142 17.4435 2.61533C17.2295 2.82924 17.1094 3.11936 17.1094 3.42188V18.25H10.8359C9.7775 18.2512 8.76275 18.6721 8.01433 19.4206C7.2659 20.169 6.84492 21.1838 6.84375 22.2422V59.3125H2.28125C1.97874 59.3125 1.68861 59.4327 1.47471 59.6466C1.2608 59.8605 1.14063 60.1506 1.14062 60.4531V66.7266C1.14179 67.785 1.56277 68.7997 2.3112 69.5482C3.05963 70.2966 4.07438 70.7176 5.13281 70.7188H67.8672C68.9256 70.7176 69.9404 70.2966 70.6888 69.5482C71.4372 68.7997 71.8582 67.785 71.8594 66.7266V60.4531C71.8594 60.1506 71.7392 59.8605 71.5253 59.6466C71.3114 59.4327 71.0213 59.3125 70.7188 59.3125ZM19.3906 4.5625H53.6094V25.0938H47.9062C47.6037 25.0938 47.3136 25.2139 47.0997 25.4278C46.8858 25.6417 46.7656 25.9319 46.7656 26.2344V30.3249L41.8695 25.4274C41.6553 25.2136 41.3651 25.0936 41.0625 25.0938H19.3906V4.5625ZM18.25 27.375H40.5906L47.0993 33.8851C47.2588 34.0448 47.4621 34.1536 47.6835 34.1977C47.9049 34.2418 48.1343 34.2192 48.3429 34.1328C48.5514 34.0464 48.7296 33.9 48.8549 33.7123C48.9803 33.5246 49.0471 33.3039 49.0469 33.0781V27.375H54.75C55.0525 27.375 55.3426 27.2548 55.5565 27.0409C55.7705 26.827 55.8906 26.5369 55.8906 26.2344V23.9531H60.4531V55.8906H12.5469V23.9531H17.1094V26.2344C17.1094 26.5369 17.2295 26.827 17.4435 27.0409C17.6574 27.2548 17.9475 27.375 18.25 27.375ZM9.125 22.2422C9.12538 21.7885 9.30576 21.3536 9.62654 21.0328C9.94732 20.712 10.3823 20.5316 10.8359 20.5312H17.1094V21.6719H11.4062C11.1037 21.6719 10.8136 21.792 10.5997 22.006C10.3858 22.2199 10.2656 22.51 10.2656 22.8125V57.0312C10.2656 57.3338 10.3858 57.6239 10.5997 57.8378C10.8136 58.0517 11.1037 58.1719 11.4062 58.1719H61.5938C61.8963 58.1719 62.1864 58.0517 62.4003 57.8378C62.6142 57.6239 62.7344 57.3338 62.7344 57.0312V22.8125C62.7344 22.51 62.6142 22.2199 62.4003 22.006C62.1864 21.792 61.8963 21.6719 61.5938 21.6719H55.8906V20.5312H62.1641C62.6177 20.5316 63.0527 20.712 63.3735 21.0328C63.6942 21.3536 63.8746 21.7885 63.875 22.2422V59.3125H9.125V22.2422ZM41.8823 61.5938L41.312 63.875H31.688L31.1177 61.5938H41.8823ZM69.5781 66.7266C69.5778 67.1802 69.3974 67.6152 69.0766 67.936C68.7558 68.2567 68.3208 68.4371 67.8672 68.4375H5.13281C4.67916 68.4371 4.2442 68.2567 3.92341 67.936C3.60263 67.6152 3.42225 67.1802 3.42188 66.7266V61.5938H28.7651L29.6905 65.2922C29.7521 65.539 29.8945 65.7581 30.095 65.9146C30.2955 66.0712 30.5425 66.1562 30.7969 66.1562H42.2031C42.4575 66.1562 42.7045 66.0712 42.905 65.9146C43.1055 65.7581 43.2479 65.539 43.3095 65.2922L44.2349 61.5938H69.5781V66.7266Z" fill="#2D4379"/>
<path d="M36.5 17.1094C37.1768 17.1094 37.8384 16.9087 38.4011 16.5327C38.9638 16.1567 39.4024 15.6223 39.6614 14.997C39.9204 14.3717 39.9882 13.6837 39.8561 13.0199C39.7241 12.3561 39.3982 11.7464 38.9196 11.2679C38.4411 10.7893 37.8314 10.4634 37.1676 10.3314C36.5038 10.1993 35.8158 10.2671 35.1905 10.5261C34.5652 10.7851 34.0308 11.2237 33.6548 11.7864C33.2788 12.3491 33.0781 13.0107 33.0781 13.6875C33.0791 14.5947 33.44 15.4645 34.0815 16.106C34.723 16.7475 35.5928 17.1084 36.5 17.1094ZM36.5 12.5469C36.7256 12.5469 36.9461 12.6138 37.1337 12.7391C37.3213 12.8644 37.4675 13.0426 37.5538 13.251C37.6401 13.4594 37.6627 13.6888 37.6187 13.91C37.5747 14.1313 37.4661 14.3345 37.3065 14.494C37.147 14.6536 36.9438 14.7622 36.7225 14.8062C36.5013 14.8502 36.2719 14.8276 36.0635 14.7413C35.8551 14.655 35.6769 14.5088 35.5516 14.3212C35.4263 14.1336 35.3594 13.9131 35.3594 13.6875C35.3597 13.3851 35.48 13.0952 35.6938 12.8813C35.9077 12.6675 36.1976 12.5472 36.5 12.5469Z" fill="#2D4379"/>
<path d="M26.2344 17.1094C26.9112 17.1094 27.5727 16.9087 28.1355 16.5327C28.6982 16.1567 29.1368 15.6223 29.3958 14.997C29.6548 14.3717 29.7225 13.6837 29.5905 13.0199C29.4585 12.3561 29.1326 11.7464 28.654 11.2679C28.1754 10.7893 27.5657 10.4634 26.9019 10.3314C26.2382 10.1993 25.5501 10.2671 24.9249 10.5261C24.2996 10.7851 23.7652 11.2237 23.3892 11.7864C23.0132 12.3491 22.8125 13.0107 22.8125 13.6875C22.8135 14.5947 23.1744 15.4645 23.8159 16.106C24.4574 16.7475 25.3271 17.1084 26.2344 17.1094ZM26.2344 12.5469C26.46 12.5469 26.6805 12.6138 26.8681 12.7391C27.0556 12.8644 27.2018 13.0426 27.2882 13.251C27.3745 13.4594 27.3971 13.6888 27.3531 13.91C27.3091 14.1313 27.2004 14.3345 27.0409 14.494C26.8814 14.6536 26.6782 14.7622 26.4569 14.8062C26.2356 14.8502 26.0063 14.8276 25.7979 14.7413C25.5895 14.655 25.4113 14.5088 25.286 14.3212C25.1606 14.1336 25.0937 13.9131 25.0937 13.6875C25.0941 13.3851 25.2144 13.0952 25.4282 12.8813C25.642 12.6675 25.932 12.5472 26.2344 12.5469Z" fill="#2D4379"/>
<path d="M46.7656 17.1094C47.4424 17.1094 48.104 16.9087 48.6667 16.5327C49.2294 16.1567 49.668 15.6223 49.927 14.997C50.186 14.3717 50.2538 13.6837 50.1218 13.0199C49.9897 12.3561 49.6638 11.7464 49.1853 11.2679C48.7067 10.7893 48.097 10.4634 47.4332 10.3314C46.7694 10.1993 46.0814 10.2671 45.4561 10.5261C44.8309 10.7851 44.2964 11.2237 43.9204 11.7864C43.5444 12.3491 43.3438 13.0107 43.3438 13.6875C43.3448 14.5947 43.7056 15.4645 44.3471 16.106C44.9886 16.7475 45.8584 17.1084 46.7656 17.1094ZM46.7656 12.5469C46.9912 12.5469 47.2117 12.6138 47.3993 12.7391C47.5869 12.8644 47.7331 13.0426 47.8194 13.251C47.9058 13.4594 47.9283 13.6888 47.8843 13.91C47.8403 14.1313 47.7317 14.3345 47.5722 14.494C47.4127 14.6536 47.2094 14.7622 46.9882 14.8062C46.7669 14.8502 46.5376 14.8276 46.3291 14.7413C46.1207 14.655 45.9426 14.5088 45.8172 14.3212C45.6919 14.1336 45.625 13.9131 45.625 13.6875C45.6253 13.3851 45.7456 13.0952 45.9595 12.8813C46.1733 12.6675 46.4632 12.5472 46.7656 12.5469Z" fill="#2D4379"/>
<path d="M41.0625 45.625H54.75C55.0525 45.625 55.3426 45.5048 55.5565 45.2909C55.7705 45.077 55.8906 44.7869 55.8906 44.4844V37.6406C55.8906 37.3381 55.7705 37.048 55.5565 36.8341C55.3426 36.6202 55.0525 36.5 54.75 36.5H41.0625C40.76 36.5 40.4699 36.6202 40.256 36.8341C40.042 37.048 39.9219 37.3381 39.9219 37.6406V44.4844C39.9219 44.7869 40.042 45.077 40.256 45.2909C40.4699 45.5048 40.76 45.625 41.0625 45.625ZM42.2031 38.7812H53.6094V43.3438H42.2031V38.7812Z" fill="#2D4379"/>
<path d="M47.9062 42.2031C48.5362 42.2031 49.0469 41.6924 49.0469 41.0625C49.0469 40.4326 48.5362 39.9219 47.9062 39.9219C47.2763 39.9219 46.7656 40.4326 46.7656 41.0625C46.7656 41.6924 47.2763 42.2031 47.9062 42.2031Z" fill="#2D4379"/>
<path d="M44.4844 42.2031C45.1143 42.2031 45.625 41.6924 45.625 41.0625C45.625 40.4326 45.1143 39.9219 44.4844 39.9219C43.8544 39.9219 43.3438 40.4326 43.3438 41.0625C43.3438 41.6924 43.8544 42.2031 44.4844 42.2031Z" fill="#2D4379"/>
<path d="M51.3281 42.2031C51.9581 42.2031 52.4688 41.6924 52.4688 41.0625C52.4688 40.4326 51.9581 39.9219 51.3281 39.9219C50.6982 39.9219 50.1875 40.4326 50.1875 41.0625C50.1875 41.6924 50.6982 42.2031 51.3281 42.2031Z" fill="#2D4379"/>
</svg>
