<svg width="400" height="253" viewBox="0 0 400 253" fill="none" xmlns="http://www.w3.org/2000/svg">
<path d="M399.809 154.055C399.809 153.29 399.49 152.525 398.789 151.824C393.306 146.468 378.706 133.972 347.466 115.93C305.132 91.5113 281.543 85.072 280.332 84.6895C279.758 83.9882 268.601 70.3446 226.203 45.9263C194.963 27.8836 173.223 19.4679 164.042 16.2802C161.173 15.3239 157.539 15.5789 155.18 16.9815L2.16768 105.92C0.701313 106.749 0 107.833 0 108.916V114.272C0 115.356 0.701309 116.44 2.10392 117.205C2.29519 117.332 2.4227 117.396 2.61397 117.46C2.67772 117.46 2.74148 117.523 2.80523 117.523C2.93274 117.587 2.9965 117.587 3.12401 117.651C3.18776 117.651 3.25152 117.715 3.31528 117.715C3.69781 117.842 4.08033 117.97 4.46286 118.161C4.59037 118.225 4.71789 118.225 4.8454 118.288C5.10042 118.416 5.35544 118.48 5.67422 118.607C5.80173 118.671 5.99299 118.735 6.18426 118.799C6.43928 118.926 6.6943 118.99 6.94932 119.117C7.14059 119.181 7.2681 119.245 7.45936 119.309C7.71438 119.436 7.9694 119.5 8.28817 119.627C8.47944 119.691 8.6707 119.819 8.92572 119.882C9.05324 119.946 9.24451 120.01 9.37202 120.074C9.62704 120.201 9.88206 120.265 10.1371 120.392C10.2646 120.456 10.4559 120.52 10.5834 120.584C10.9021 120.711 11.1572 120.839 11.4759 120.966C11.6034 121.03 11.731 121.094 11.9222 121.157C12.3048 121.285 12.6873 121.476 13.0698 121.667C13.1336 121.667 13.1973 121.731 13.2611 121.731C13.7074 121.923 14.1536 122.114 14.6637 122.305C14.7912 122.369 14.9187 122.433 15.0462 122.496C15.365 122.624 15.7475 122.815 16.0663 122.943C16.2576 123.006 16.4488 123.07 16.6401 123.198C16.9589 123.325 17.2777 123.453 17.5964 123.58C17.7877 123.644 17.979 123.771 18.1702 123.835C18.489 123.963 18.8078 124.09 19.1266 124.281C19.3178 124.345 19.5091 124.473 19.7003 124.536C20.0829 124.664 20.4017 124.855 20.7842 125.047C20.9755 125.11 21.103 125.174 21.2942 125.302C21.8043 125.493 22.3143 125.748 22.7606 125.939C22.8244 125.939 22.8881 126.003 22.8881 126.003C23.4619 126.258 24.0357 126.513 24.5457 126.768C24.737 126.832 24.9283 126.959 25.0558 127.023C25.4383 127.214 25.8209 127.405 26.2671 127.597C26.4584 127.724 26.7134 127.788 26.9047 127.916C27.2872 128.107 27.6697 128.298 28.0523 128.426C28.3073 128.553 28.4986 128.617 28.7536 128.744C29.1361 128.936 29.5186 129.127 29.9012 129.318C30.1562 129.446 30.3475 129.509 30.6025 129.637C31.0488 129.828 31.4313 130.019 31.8776 130.274C32.0689 130.402 32.3239 130.466 32.5151 130.593C33.0889 130.848 33.6627 131.167 34.2365 131.422C34.3003 131.422 34.364 131.486 34.4278 131.486C35.0653 131.805 35.7029 132.123 36.4042 132.442C36.5955 132.57 36.8505 132.633 37.0418 132.761C37.488 133.016 37.9343 133.207 38.4444 133.462C38.6994 133.59 38.9544 133.717 39.2094 133.845C39.6557 134.036 40.0383 134.291 40.4845 134.482C40.7396 134.61 41.0583 134.737 41.3134 134.929C41.7597 135.12 42.2059 135.375 42.6522 135.63C42.9072 135.757 43.1623 135.885 43.481 136.076C43.9273 136.331 44.4374 136.586 44.9474 136.841C45.2024 136.969 45.3937 137.096 45.6487 137.224C46.35 137.606 47.0513 137.925 47.7526 138.308C47.7526 138.308 47.8164 138.308 47.8164 138.371C48.5177 138.754 49.2828 139.136 50.0478 139.583C50.3028 139.71 50.5579 139.838 50.8129 139.965C51.3229 140.22 51.833 140.539 52.343 140.794C52.6618 140.985 52.9168 141.113 53.2356 141.304C53.6819 141.559 54.1919 141.814 54.6382 142.069C54.957 142.26 55.2757 142.388 55.5308 142.579C56.0408 142.834 56.4871 143.153 56.9971 143.408C57.3159 143.599 57.5709 143.727 57.8897 143.918C58.3998 144.237 58.9736 144.492 59.4836 144.811C59.7386 144.938 59.9936 145.129 60.2486 145.257C61.0775 145.703 61.8425 146.149 62.6714 146.66C103.538 170.249 116.098 184.658 116.799 185.423C116.863 185.423 116.863 185.423 116.991 185.486H117.055C117.118 185.486 117.182 185.55 117.246 185.55C117.31 185.55 117.31 185.55 117.373 185.614C117.437 185.614 117.565 185.678 117.628 185.678C117.692 185.678 117.756 185.741 117.82 185.741C117.947 185.805 118.075 185.805 118.202 185.869C118.266 185.869 118.33 185.933 118.393 185.933C118.585 185.996 118.84 186.06 119.031 186.124H119.095C119.35 186.188 119.541 186.251 119.796 186.379C119.86 186.379 119.987 186.443 120.051 186.443C120.242 186.507 120.434 186.57 120.689 186.634C120.816 186.698 120.944 186.698 121.071 186.762C121.262 186.825 121.517 186.889 121.709 187.017C121.836 187.08 121.964 187.08 122.155 187.144C122.41 187.208 122.665 187.335 122.92 187.399C123.048 187.463 123.175 187.463 123.303 187.527C123.685 187.654 124.131 187.845 124.578 187.973H124.641C125.088 188.1 125.47 188.292 125.916 188.483C126.044 188.547 126.235 188.61 126.363 188.674C126.682 188.802 127.064 188.929 127.383 189.057C127.574 189.12 127.765 189.184 127.957 189.248C128.275 189.375 128.658 189.503 129.04 189.631C129.232 189.694 129.423 189.758 129.678 189.886C130.188 190.077 130.698 190.268 131.208 190.523C131.272 190.523 131.336 190.587 131.463 190.587C132.037 190.778 132.611 191.033 133.185 191.288C133.248 191.288 133.312 191.352 133.376 191.352C133.95 191.607 134.587 191.862 135.225 192.117C135.352 192.181 135.48 192.244 135.607 192.244C136.245 192.499 136.882 192.755 137.52 193.073C137.647 193.137 137.775 193.201 137.839 193.201C138.54 193.52 139.241 193.775 139.943 194.093C139.943 194.093 139.943 194.093 140.006 194.093C140.708 194.412 141.473 194.731 142.174 195.05C142.302 195.113 142.429 195.177 142.557 195.241C143.258 195.56 144.023 195.879 144.788 196.261C144.916 196.325 145.107 196.389 145.234 196.452C145.999 196.771 146.764 197.154 147.593 197.536C147.721 197.6 147.785 197.6 147.912 197.664C148.677 198.046 149.506 198.365 150.271 198.747C150.335 198.811 150.462 198.811 150.526 198.875C151.355 199.258 152.184 199.704 153.076 200.086C153.267 200.15 153.395 200.278 153.586 200.341C154.415 200.724 155.308 201.17 156.2 201.616C156.328 201.68 156.519 201.744 156.646 201.872C157.539 202.318 158.495 202.764 159.452 203.274C159.452 203.274 159.452 203.274 159.515 203.274C160.472 203.72 161.428 204.23 162.384 204.741C162.576 204.804 162.703 204.932 162.894 204.995C163.851 205.506 164.807 205.952 165.763 206.462C165.955 206.589 166.146 206.653 166.337 206.781C167.294 207.291 168.314 207.801 169.334 208.375C169.461 208.438 169.589 208.502 169.653 208.566C170.609 209.076 171.629 209.65 172.649 210.16C172.777 210.223 172.904 210.287 173.032 210.351C174.052 210.925 175.135 211.499 176.219 212.072C176.411 212.2 176.602 212.327 176.857 212.391C177.941 212.965 178.961 213.602 180.045 214.176C180.236 214.304 180.427 214.368 180.618 214.495C181.766 215.133 182.914 215.77 184.061 216.471C211.731 232.474 226.777 244.587 233.535 250.772C233.854 251.027 234.173 251.282 234.492 251.473C234.81 251.664 235.129 251.792 235.448 251.919C235.448 251.919 235.512 251.919 235.512 251.983C235.512 251.983 235.512 251.983 235.575 251.983C235.83 252.047 236.085 252.174 236.34 252.238H236.404C236.468 252.238 236.532 252.238 236.595 252.302C236.723 252.366 236.914 252.366 237.042 252.429C237.106 252.429 237.106 252.429 237.169 252.429C237.233 252.429 237.297 252.429 237.361 252.493C237.488 252.493 237.616 252.557 237.743 252.557C237.807 252.557 237.807 252.557 237.871 252.557C237.934 252.557 237.998 252.557 238.062 252.557C238.189 252.557 238.317 252.557 238.444 252.621C238.508 252.621 238.572 252.621 238.636 252.621C238.699 252.621 238.763 252.621 238.827 252.621C238.954 252.621 239.082 252.621 239.209 252.621C239.273 252.621 239.337 252.621 239.401 252.621C239.464 252.621 239.528 252.621 239.528 252.621C239.656 252.621 239.783 252.621 239.911 252.621C239.975 252.621 240.038 252.621 240.102 252.621C240.166 252.621 240.166 252.621 240.23 252.621C240.421 252.621 240.548 252.621 240.74 252.557C240.803 252.557 240.867 252.557 240.931 252.557H240.995C241.25 252.557 241.568 252.493 241.823 252.429C241.823 252.429 241.823 252.429 241.887 252.429C241.951 252.429 242.078 252.366 242.142 252.366C242.27 252.366 242.397 252.302 242.525 252.302C242.652 252.302 242.716 252.238 242.843 252.238C242.971 252.174 243.099 252.174 243.226 252.111H243.29C243.354 252.111 243.354 252.047 243.417 252.047C243.609 251.983 243.8 251.919 243.991 251.856C244.055 251.856 244.119 251.792 244.182 251.792C244.437 251.664 244.692 251.537 244.884 251.409L397.896 162.471L397.96 162.407C398.024 162.343 398.087 162.343 398.151 162.28C398.215 162.216 398.342 162.152 398.406 162.088C398.47 162.025 398.534 161.961 398.597 161.897C398.661 161.833 398.725 161.77 398.852 161.706C398.852 161.706 398.916 161.706 398.916 161.642L398.98 161.578C399.107 161.451 399.171 161.323 399.299 161.259L399.362 161.196C399.362 161.196 399.362 161.132 399.426 161.132C399.49 161.068 399.554 160.941 399.617 160.877C399.617 160.813 399.681 160.813 399.681 160.749C399.681 160.749 399.681 160.749 399.681 160.686C399.745 160.622 399.745 160.558 399.809 160.431C399.809 160.367 399.872 160.367 399.872 160.303C399.872 160.303 399.872 160.303 399.872 160.239C399.872 160.176 399.936 160.112 399.936 160.048C399.936 159.984 400 159.921 400 159.921C400 159.921 400 159.921 400 159.857C400 159.793 400 159.729 400 159.666C400 159.602 400 159.538 400 159.474V159.411V154.055C399.809 153.991 399.809 154.055 399.809 154.055Z" fill="#9DC2D4"/>
<path d="M343.258 107.896C373.605 125.429 387.823 137.606 393.115 142.771C394.772 144.364 394.326 146.405 392.031 147.743L243.354 234.195C240.548 235.853 236.022 235.789 233.408 234.259C233.025 234.068 232.706 233.813 232.451 233.558C225.821 227.565 211.285 215.77 184.38 200.214C144.661 177.326 120.434 170.249 119.159 169.867C118.521 169.101 106.28 155.075 66.5605 132.187C39.6558 116.631 19.2541 108.215 8.86204 104.454C8.41576 104.262 8.03322 104.135 7.65069 103.88C4.97297 102.35 4.90922 99.7358 7.71445 98.0782L156.392 11.6899C158.687 10.3511 162.257 10.096 164.998 11.0524C173.988 14.1126 195.027 22.2733 225.438 39.806C266.56 63.5866 277.463 76.784 278.036 77.4853C279.248 77.9315 302.136 84.1796 343.258 107.896Z" fill="#25366B"/>
<path d="M394.134 145.129C394.134 145.193 394.134 145.257 394.134 145.32C394.134 145.384 394.134 145.448 394.071 145.512C394.071 145.575 394.007 145.639 394.007 145.703C394.007 145.767 393.943 145.83 393.943 145.894C393.879 145.958 393.879 146.022 393.816 146.149C393.816 146.213 393.752 146.277 393.752 146.277C393.688 146.34 393.624 146.468 393.561 146.532C393.497 146.595 393.497 146.595 393.433 146.659C393.369 146.787 393.242 146.85 393.114 146.978C393.051 147.042 393.051 147.042 392.987 147.105C392.923 147.169 392.859 147.233 392.732 147.297C392.668 147.36 392.604 147.424 392.54 147.424C392.477 147.488 392.349 147.552 392.286 147.615C392.222 147.679 392.094 147.743 392.03 147.807L243.353 234.195C243.162 234.322 242.907 234.45 242.652 234.514C242.588 234.514 242.525 234.577 242.461 234.577C242.27 234.641 242.078 234.705 241.887 234.769C241.823 234.769 241.76 234.833 241.696 234.833C241.568 234.896 241.441 234.896 241.313 234.96C241.249 234.96 241.122 235.024 241.058 235.024C240.931 235.024 240.803 235.088 240.676 235.088C240.612 235.088 240.484 235.151 240.421 235.151C240.166 235.215 239.911 235.215 239.592 235.279C239.528 235.279 239.401 235.279 239.337 235.279C239.209 235.279 239.018 235.279 238.891 235.279C238.763 235.279 238.699 235.279 238.572 235.279C238.444 235.279 238.317 235.279 238.189 235.279C238.062 235.279 237.998 235.279 237.87 235.279C237.743 235.279 237.615 235.279 237.488 235.279C237.36 235.279 237.297 235.279 237.169 235.279C237.042 235.279 236.914 235.279 236.787 235.215C236.659 235.215 236.595 235.215 236.468 235.151C236.34 235.151 236.213 235.088 236.085 235.088C235.958 235.088 235.894 235.024 235.767 235.024C235.639 234.96 235.448 234.96 235.32 234.896C235.257 234.896 235.193 234.833 235.065 234.833C234.81 234.769 234.555 234.705 234.3 234.577C234.236 234.577 234.236 234.577 234.173 234.514C233.854 234.386 233.535 234.259 233.28 234.067C232.898 233.876 232.579 233.621 232.324 233.366C225.693 227.373 211.157 215.578 184.252 200.022C183.105 199.385 182.021 198.747 180.937 198.11C180.746 197.982 180.555 197.918 180.427 197.791C179.407 197.217 178.323 196.643 177.303 196.069C177.112 195.942 176.921 195.878 176.729 195.751C175.709 195.177 174.689 194.603 173.669 194.029C173.541 193.965 173.478 193.902 173.35 193.838C172.394 193.328 171.374 192.754 170.417 192.244C170.29 192.18 170.162 192.117 170.099 192.053C169.142 191.543 168.122 191.033 167.166 190.523C166.975 190.395 166.783 190.331 166.592 190.204C165.636 189.694 164.743 189.248 163.787 188.738C163.659 188.674 163.468 188.546 163.341 188.483C162.384 187.972 161.492 187.526 160.535 187.08C159.643 186.634 158.687 186.187 157.794 185.741C157.666 185.677 157.475 185.614 157.348 185.486C156.519 185.04 155.626 184.657 154.797 184.275C154.67 184.211 154.479 184.147 154.351 184.02C153.522 183.637 152.694 183.191 151.865 182.808C151.801 182.745 151.673 182.745 151.61 182.681C150.845 182.298 150.08 181.979 149.315 181.597C149.187 181.533 149.123 181.533 148.996 181.469C148.231 181.087 147.466 180.768 146.701 180.449C146.573 180.386 146.446 180.322 146.254 180.258C145.553 179.939 144.788 179.621 144.087 179.302C143.959 179.238 143.832 179.174 143.704 179.174C143.003 178.855 142.301 178.537 141.6 178.218C140.899 177.899 140.198 177.644 139.56 177.325C139.432 177.262 139.369 177.262 139.241 177.198C138.604 176.943 137.966 176.688 137.392 176.433C137.265 176.369 137.137 176.305 137.074 176.305C136.436 176.05 135.862 175.795 135.288 175.54C135.225 175.54 135.161 175.476 135.097 175.476C134.523 175.221 133.95 175.03 133.439 174.839C133.376 174.839 133.312 174.775 133.248 174.775C132.866 174.584 132.419 174.456 132.037 174.329C131.909 174.265 131.846 174.265 131.718 174.201C131.527 174.138 131.336 174.074 131.144 173.946C130.826 173.819 130.443 173.691 130.124 173.564C129.933 173.5 129.742 173.436 129.55 173.373C129.232 173.245 128.849 173.117 128.53 172.99C128.403 172.926 128.212 172.862 128.084 172.799C127.638 172.607 127.191 172.48 126.745 172.289C126.299 172.161 125.916 171.97 125.47 171.842C125.343 171.779 125.215 171.779 125.088 171.715C124.833 171.651 124.578 171.524 124.322 171.46C124.195 171.396 124.067 171.396 123.94 171.332C123.685 171.269 123.494 171.205 123.302 171.077C123.175 171.014 123.047 171.014 122.984 170.95C122.792 170.886 122.537 170.822 122.346 170.759C122.282 170.759 122.155 170.695 122.091 170.695C121.836 170.631 121.581 170.504 121.326 170.44C121.071 170.376 120.88 170.312 120.625 170.249C120.561 170.249 120.497 170.185 120.433 170.185C120.306 170.121 120.178 170.121 120.051 170.057C119.987 170.057 119.923 169.994 119.86 169.994C119.732 169.994 119.668 169.93 119.605 169.93C119.541 169.93 119.541 169.93 119.477 169.866C119.413 169.866 119.35 169.802 119.286 169.802H119.222C119.158 169.802 119.095 169.738 119.031 169.738C118.393 168.973 106.152 154.947 66.4328 132.059C65.6677 131.613 64.8389 131.167 64.0738 130.72C63.8188 130.593 63.5638 130.465 63.3088 130.274C62.7988 129.955 62.2887 129.7 61.7787 129.381C61.4599 129.19 61.2049 129.063 60.8861 128.871C60.4398 128.616 59.9298 128.361 59.4835 128.106C59.1647 127.915 58.9097 127.788 58.5909 127.596C58.1446 127.341 57.6346 127.086 57.1883 126.831C56.9333 126.704 56.6145 126.512 56.3595 126.385C55.8494 126.13 55.3394 125.811 54.8931 125.556C54.6381 125.429 54.4468 125.301 54.1918 125.174C53.4905 124.791 52.7254 124.409 52.0241 124.026C52.0241 124.026 52.0241 124.026 51.9604 124.026C51.2591 123.643 50.5578 123.261 49.9202 122.942C49.6652 122.815 49.4739 122.687 49.2189 122.56C48.7726 122.305 48.2626 122.05 47.8163 121.858C47.5613 121.731 47.3062 121.603 47.0512 121.476C46.6049 121.285 46.2224 121.03 45.7761 120.838C45.5211 120.711 45.2661 120.583 44.9473 120.456C44.501 120.264 44.1185 120.009 43.6722 119.818C43.4172 119.691 43.1622 119.563 42.9071 119.436C42.4609 119.181 42.0146 118.989 41.5683 118.734C41.377 118.607 41.1857 118.543 40.9945 118.416C40.3569 118.097 39.7194 117.778 39.0818 117.459C39.0181 117.459 38.9543 117.395 38.9543 117.395C38.3805 117.14 37.8067 116.822 37.2329 116.567C37.0416 116.439 36.7866 116.375 36.5954 116.248C36.2128 116.057 35.7665 115.865 35.384 115.674C35.129 115.547 34.9377 115.483 34.6827 115.355C34.3002 115.164 33.9177 114.973 33.5351 114.845C33.2801 114.718 33.0888 114.654 32.8338 114.527C32.4513 114.335 32.1325 114.208 31.75 114.016C31.5587 113.889 31.3037 113.825 31.1124 113.698C30.7299 113.506 30.3474 113.315 29.9648 113.188C29.7736 113.124 29.6461 113.06 29.4548 112.933C28.881 112.678 28.371 112.423 27.7972 112.168C27.7334 112.104 27.6696 112.104 27.5421 112.04C27.0959 111.849 26.5858 111.594 26.1395 111.402C25.9483 111.339 25.757 111.275 25.6295 111.147C25.3107 111.02 24.9282 110.829 24.6094 110.701C24.4181 110.637 24.2269 110.51 24.0356 110.446C23.7168 110.319 23.3981 110.191 23.0793 110.064C22.888 110 22.6967 109.872 22.5055 109.809C22.1867 109.681 21.8679 109.554 21.6129 109.426C21.4216 109.362 21.2304 109.299 21.1029 109.171C20.7841 109.044 20.4653 108.916 20.1465 108.725C20.019 108.661 19.8915 108.597 19.7002 108.534C19.254 108.342 18.8077 108.151 18.3614 107.96C18.2976 107.96 18.2339 107.896 18.1701 107.896C17.7876 107.768 17.4051 107.577 17.0225 107.45C16.895 107.386 16.7038 107.322 16.5762 107.258C16.3212 107.131 16.0025 107.003 15.7474 106.94C15.6199 106.876 15.4286 106.812 15.3011 106.748C15.0461 106.621 14.7911 106.557 14.5361 106.43C14.4086 106.366 14.2173 106.302 14.0898 106.238C14.026 106.175 13.8985 106.175 13.8348 106.111C13.7073 106.047 13.6435 106.047 13.516 105.983C13.261 105.856 13.006 105.792 12.7509 105.665C12.5597 105.601 12.4322 105.537 12.2409 105.473C11.9859 105.346 11.7308 105.282 11.4758 105.154C11.3483 105.091 11.1571 105.027 11.0295 104.963C10.7745 104.836 10.5195 104.772 10.2645 104.644C10.137 104.581 10.0095 104.581 9.88195 104.517C9.49942 104.389 9.11689 104.262 8.79811 104.134C8.60684 104.071 8.47934 104.007 8.35183 103.943C8.28807 103.943 8.22431 103.879 8.16056 103.879C7.96929 103.816 7.77803 103.688 7.65052 103.624C6.31166 102.859 5.61035 101.839 5.61035 100.755V105.983C5.61035 107.003 6.31166 108.087 7.65052 108.852C7.84178 108.916 7.96929 109.044 8.16056 109.107C8.22431 109.107 8.28807 109.171 8.35183 109.171C8.47934 109.235 8.54309 109.235 8.6706 109.299C8.73436 109.299 8.79811 109.362 8.86187 109.362C9.18065 109.49 9.56317 109.617 9.94571 109.745C10.0732 109.809 10.2007 109.809 10.3282 109.872C10.5833 110 10.8383 110.064 11.0933 110.191C11.2208 110.255 11.4121 110.319 11.5396 110.382C11.7946 110.446 12.0496 110.574 12.3046 110.701C12.4959 110.765 12.6234 110.829 12.8147 110.892C13.0697 111.02 13.3247 111.084 13.5797 111.211C13.771 111.275 13.9623 111.339 14.1536 111.466C14.2811 111.53 14.4723 111.594 14.5998 111.658C14.8549 111.785 15.1099 111.849 15.3649 111.976C15.4924 112.04 15.6837 112.104 15.8112 112.168C16.0662 112.295 16.385 112.423 16.64 112.486C16.7675 112.55 16.895 112.614 17.0225 112.678C17.4051 112.805 17.7876 112.996 18.1701 113.124C18.2339 113.124 18.2976 113.188 18.3614 113.188C18.8077 113.379 19.254 113.57 19.7002 113.761C19.8278 113.825 19.9553 113.889 20.0828 113.953C20.4016 114.08 20.7841 114.208 21.1029 114.399C21.2941 114.463 21.4854 114.526 21.6129 114.654C21.9317 114.782 22.2504 114.909 22.5692 115.037C22.7605 115.1 22.9518 115.228 23.143 115.292C23.4618 115.419 23.7806 115.547 24.0994 115.674C24.2906 115.738 24.4819 115.865 24.6732 115.929C24.9919 116.057 25.3745 116.248 25.757 116.375C25.9482 116.439 26.0758 116.503 26.267 116.567C26.7133 116.758 27.2234 117.013 27.7334 117.204C27.7972 117.204 27.8609 117.268 27.8609 117.268C28.371 117.523 28.9448 117.778 29.5186 118.033C29.7098 118.097 29.8373 118.224 30.0286 118.288C30.4111 118.479 30.7936 118.671 31.1762 118.798C31.3674 118.926 31.6225 118.989 31.8137 119.117C32.1963 119.308 32.515 119.436 32.8976 119.627C33.1526 119.754 33.3439 119.818 33.5989 119.946C33.9814 120.137 34.3639 120.328 34.7465 120.456C35.0015 120.583 35.1928 120.647 35.4478 120.775C35.8303 120.966 36.2766 121.157 36.6591 121.348C36.8504 121.476 37.0417 121.54 37.2967 121.667C37.8705 121.922 38.4443 122.241 38.9543 122.496C39.0181 122.496 39.0818 122.56 39.1456 122.56C39.7831 122.878 40.4207 123.197 41.0582 123.516C41.2495 123.643 41.4408 123.707 41.6958 123.835C42.1421 124.026 42.5884 124.281 43.0346 124.536C43.2897 124.664 43.5447 124.791 43.7997 124.919C44.1822 125.11 44.6285 125.365 45.0748 125.556C45.3298 125.684 45.5848 125.811 45.8399 125.939C46.2861 126.13 46.6687 126.385 47.115 126.576C47.37 126.704 47.625 126.831 47.88 126.959C48.3263 127.214 48.8364 127.469 49.2827 127.66C49.5377 127.788 49.7289 127.915 49.984 128.043C50.6853 128.425 51.3228 128.744 52.0241 129.126C52.0241 129.126 52.0879 129.126 52.0879 129.19C52.7892 129.573 53.4905 129.955 54.2556 130.338C54.5106 130.465 54.7018 130.593 54.9569 130.72C55.4669 130.975 55.9132 131.23 56.4232 131.549C56.6782 131.677 56.997 131.868 57.2521 131.995C57.6983 132.25 58.1446 132.505 58.6547 132.76C58.9734 132.952 59.2285 133.079 59.5472 133.271C59.9935 133.526 60.5036 133.781 60.9498 134.036C61.2686 134.227 61.5236 134.354 61.8424 134.546C62.3525 134.864 62.8625 135.119 63.3725 135.438C63.6276 135.566 63.8826 135.693 64.1376 135.884C64.9027 136.331 65.6677 136.777 66.4966 137.223C106.216 160.111 118.393 174.201 119.095 174.903C119.158 174.903 119.158 174.903 119.222 174.966H119.286C119.35 174.966 119.413 175.03 119.477 175.03C119.541 175.03 119.541 175.03 119.605 175.094C119.668 175.094 119.796 175.158 119.86 175.158C119.923 175.158 119.987 175.221 120.051 175.221C120.178 175.285 120.306 175.285 120.433 175.349C120.497 175.349 120.561 175.413 120.625 175.413C120.816 175.476 121.007 175.54 121.262 175.604H121.326C121.517 175.668 121.772 175.731 122.027 175.859C122.091 175.859 122.219 175.923 122.282 175.923C122.474 175.986 122.665 176.05 122.92 176.114C123.047 176.178 123.175 176.178 123.302 176.242C123.494 176.305 123.749 176.369 123.94 176.433C124.067 176.497 124.195 176.497 124.322 176.56C124.578 176.624 124.833 176.752 125.088 176.815C125.215 176.879 125.343 176.879 125.47 176.943C125.853 177.07 126.299 177.262 126.681 177.389H126.745C127.128 177.517 127.574 177.708 128.02 177.835C128.148 177.899 128.339 177.963 128.467 178.027C128.785 178.154 129.104 178.282 129.487 178.409C129.678 178.473 129.869 178.537 130.06 178.6C130.379 178.728 130.762 178.855 131.081 178.983C131.272 179.047 131.463 179.111 131.654 179.238C132.164 179.429 132.674 179.621 133.184 179.812C133.248 179.812 133.312 179.876 133.376 179.876C133.886 180.067 134.46 180.322 135.033 180.513C135.097 180.513 135.161 180.577 135.225 180.577C135.798 180.832 136.436 181.087 137.01 181.342C137.137 181.406 137.265 181.469 137.392 181.469C138.03 181.724 138.604 181.979 139.241 182.234C139.369 182.298 139.496 182.362 139.56 182.362C140.261 182.617 140.899 182.936 141.6 183.255C141.6 183.255 141.6 183.255 141.664 183.255C142.365 183.573 143.067 183.892 143.768 184.211C143.895 184.275 144.023 184.338 144.15 184.338C144.852 184.657 145.553 184.976 146.318 185.295C146.446 185.359 146.637 185.422 146.764 185.486C147.529 185.805 148.294 186.187 149.06 186.506C149.187 186.57 149.251 186.57 149.378 186.634C150.143 186.952 150.908 187.335 151.673 187.717C151.737 187.781 151.865 187.781 151.928 187.845C152.757 188.228 153.586 188.61 154.415 188.993C154.606 189.056 154.734 189.12 154.925 189.248C155.754 189.63 156.583 190.076 157.411 190.459C157.539 190.523 157.73 190.586 157.858 190.65C158.75 191.096 159.643 191.543 160.599 191.989C160.599 191.989 160.599 191.989 160.663 191.989C161.556 192.435 162.512 192.945 163.468 193.392C163.596 193.455 163.787 193.583 163.914 193.647C164.807 194.093 165.763 194.603 166.656 195.113C166.847 195.241 167.038 195.304 167.23 195.432C168.186 195.942 169.142 196.452 170.162 196.962C170.29 197.026 170.417 197.089 170.481 197.153C171.438 197.663 172.394 198.173 173.414 198.747C173.542 198.811 173.669 198.875 173.797 198.938C174.817 199.512 175.837 200.022 176.857 200.596C177.048 200.724 177.239 200.787 177.431 200.915C178.451 201.489 179.471 202.062 180.555 202.636C180.746 202.764 180.937 202.827 181.065 202.955C182.148 203.592 183.296 204.23 184.38 204.868C211.285 220.424 225.884 232.219 232.451 238.212C232.706 238.467 233.025 238.722 233.408 238.913C233.663 239.104 233.981 239.232 234.3 239.359H234.364C234.364 239.359 234.364 239.359 234.428 239.359C234.683 239.423 234.938 239.55 235.193 239.614H235.257C235.32 239.614 235.384 239.614 235.448 239.678C235.575 239.742 235.767 239.742 235.894 239.805C235.958 239.805 235.958 239.805 236.022 239.805C236.085 239.805 236.149 239.805 236.213 239.805C236.34 239.805 236.468 239.869 236.595 239.869C236.659 239.869 236.659 239.869 236.723 239.869C236.787 239.869 236.85 239.869 236.914 239.869C237.042 239.869 237.169 239.869 237.297 239.933C237.36 239.933 237.424 239.933 237.424 239.933C237.488 239.933 237.552 239.933 237.615 239.933C237.743 239.933 237.87 239.933 237.998 239.933C238.062 239.933 238.125 239.933 238.189 239.933C238.253 239.933 238.317 239.933 238.317 239.933C238.444 239.933 238.572 239.933 238.699 239.933C238.763 239.933 238.827 239.933 238.891 239.933C238.954 239.933 238.954 239.933 239.018 239.933C239.146 239.933 239.337 239.933 239.464 239.933C239.528 239.933 239.592 239.933 239.656 239.933H239.719C239.974 239.933 240.293 239.869 240.548 239.805C240.548 239.805 240.548 239.805 240.612 239.805C240.676 239.805 240.739 239.742 240.867 239.742C240.994 239.742 241.122 239.678 241.249 239.678C241.313 239.678 241.441 239.614 241.505 239.614C241.632 239.55 241.76 239.55 241.887 239.487H241.951C242.015 239.487 242.015 239.423 242.078 239.423C242.27 239.359 242.461 239.295 242.652 239.232C242.716 239.232 242.78 239.168 242.843 239.168C243.098 239.04 243.29 238.977 243.545 238.849L392.222 152.461L392.286 152.397C392.349 152.333 392.413 152.333 392.477 152.27C392.541 152.206 392.668 152.142 392.732 152.078C392.796 152.015 392.859 151.951 392.923 151.951C392.987 151.887 393.051 151.823 393.178 151.76C393.178 151.76 393.242 151.76 393.242 151.696L393.306 151.632C393.433 151.504 393.497 151.441 393.624 151.313L393.688 151.249C393.688 151.249 393.688 151.186 393.752 151.186C393.816 151.122 393.879 150.994 393.943 150.931C393.943 150.867 394.007 150.867 394.007 150.803C394.007 150.803 394.007 150.803 394.007 150.739C394.071 150.676 394.071 150.612 394.134 150.484C394.134 150.421 394.198 150.421 394.198 150.357C394.198 150.357 394.198 150.357 394.198 150.293C394.198 150.229 394.262 150.166 394.262 150.102C394.262 150.038 394.326 149.974 394.326 149.974C394.326 149.974 394.326 149.974 394.326 149.911C394.326 149.847 394.326 149.783 394.326 149.719C394.326 149.656 394.326 149.592 394.326 149.592V149.528V144.3C394.134 144.938 394.134 145.065 394.134 145.129Z" fill="#000D2A"/>
<path d="M76.0599 112.677C75.2948 112.231 74.5935 111.849 73.8284 111.402C73.5734 111.275 73.3821 111.147 73.1271 111.02C72.6171 110.765 72.1708 110.446 71.6607 110.191C71.4057 110.063 71.0869 109.872 70.8319 109.745C70.3856 109.49 69.9393 109.235 69.4931 108.98C69.238 108.852 68.9193 108.661 68.6642 108.533C68.218 108.278 67.8354 108.087 67.3891 107.832C67.1341 107.705 66.8153 107.513 66.5603 107.386C66.114 107.131 65.6677 106.939 65.2852 106.684C65.0302 106.557 64.7752 106.429 64.5202 106.238C64.0101 105.983 63.5638 105.728 63.0538 105.473C62.8625 105.346 62.6713 105.282 62.48 105.154C61.8424 104.772 61.1411 104.453 60.5036 104.134C60.3761 104.07 60.2486 104.007 60.1211 103.943C59.611 103.688 59.101 103.369 58.5272 103.114C58.2722 102.987 58.0809 102.859 57.8259 102.732C57.3796 102.54 56.9971 102.285 56.5508 102.094C56.2957 101.967 56.0407 101.839 55.7857 101.712C55.4032 101.52 55.0206 101.329 54.6381 101.138C54.3831 101.01 54.1281 100.883 53.873 100.755C53.4905 100.564 53.108 100.373 52.7255 100.181C52.4704 100.054 52.2792 99.9264 52.0241 99.7988C51.6416 99.6076 51.2591 99.4163 50.8766 99.2251C50.6853 99.0976 50.4303 99.0338 50.239 98.9063C49.7927 98.715 49.3464 98.46 48.9001 98.2687C48.7726 98.205 48.6451 98.1412 48.5176 98.0775C47.9438 97.8224 47.37 97.5037 46.7962 97.2486C46.6687 97.1849 46.5412 97.1211 46.4137 97.0574C45.9674 96.8661 45.5211 96.6749 45.1386 96.4198C44.9473 96.3561 44.756 96.2286 44.5648 96.1648C44.1822 95.9735 43.8635 95.846 43.5447 95.6548C43.3534 95.5273 43.0984 95.4635 42.9072 95.336C42.5884 95.2085 42.2696 95.0172 41.9508 94.8897C41.7596 94.8259 41.5683 94.6985 41.3133 94.6347C40.9945 94.5072 40.6757 94.3159 40.357 94.1884C40.1657 94.1246 39.9744 93.9971 39.7831 93.9334C39.4644 93.8059 39.0819 93.6146 38.7631 93.4871C38.6356 93.4234 38.4443 93.3596 38.3168 93.2958C37.8067 93.1045 37.3604 92.8495 36.9142 92.6583C36.4041 92.467 35.9578 92.212 35.5116 92.0207C35.384 91.957 35.2565 91.8932 35.0653 91.8295C34.7465 91.7019 34.4277 91.5744 34.1089 91.4469C33.9177 91.3832 33.7902 91.3194 33.5989 91.2557C33.3439 91.1282 33.0251 91.0006 32.7701 90.8731C32.5788 90.8094 32.4513 90.7456 32.26 90.6819C32.005 90.5544 31.75 90.4906 31.495 90.3631C31.3037 90.2993 31.1762 90.2356 30.9849 90.1718C30.7299 90.0443 30.4749 89.9806 30.2199 89.8531C30.0924 89.7893 29.9011 89.7256 29.7736 89.6618C29.5186 89.5343 29.1998 89.4068 28.9448 89.343C28.8172 89.2793 28.7535 89.2793 28.626 89.2155C28.2435 89.088 27.8609 88.8967 27.4784 88.7692H27.4146C27.0959 88.6417 26.7771 88.5142 26.4583 88.3867C26.4583 88.3867 26.3946 88.3867 26.3946 88.3229C26.2033 88.2592 25.9483 88.1317 25.757 88.0679C25.5657 88.0042 25.4382 87.9404 25.247 87.8766C25.0557 87.8129 24.8644 87.7491 24.6094 87.6216C24.4819 87.5579 24.2906 87.4941 24.1631 87.4304C23.9081 87.3666 23.7168 87.2391 23.5256 87.1753C23.3981 87.1116 23.2705 87.1116 23.2068 87.0478C22.888 86.9203 22.5692 86.7928 22.2505 86.6653C22.123 86.6015 21.9317 86.5378 21.8042 86.474C21.7404 86.474 21.6767 86.4103 21.6129 86.4103C21.4216 86.3465 21.2941 86.219 21.1029 86.1553C19.8278 85.454 19.1902 84.4339 19.1902 83.4775L19.1265 101.648C19.1265 102.604 19.764 103.624 21.0391 104.325C21.1666 104.389 21.3579 104.517 21.5492 104.58C21.6129 104.58 21.6767 104.644 21.7404 104.644C21.8042 104.708 21.9317 104.708 21.9954 104.772C22.0592 104.772 22.123 104.836 22.1867 104.836C22.5055 104.963 22.8243 105.091 23.1431 105.218C23.2706 105.282 23.3343 105.282 23.4618 105.346C23.7168 105.409 23.9081 105.537 24.1631 105.601C24.2906 105.664 24.4181 105.728 24.5457 105.728C24.7369 105.792 24.9919 105.919 25.1832 105.983C25.3107 106.047 25.502 106.111 25.6295 106.174C25.8208 106.238 26.0758 106.366 26.2671 106.429C26.5858 106.557 26.9046 106.684 27.2234 106.812C27.2871 106.812 27.2871 106.876 27.3509 106.876C27.7334 107.003 28.116 107.194 28.4985 107.322C28.626 107.386 28.7535 107.449 28.881 107.449C29.136 107.577 29.3911 107.641 29.7098 107.768C29.8373 107.832 30.0286 107.896 30.1561 107.96C30.4111 108.087 30.6662 108.151 30.9212 108.278C31.1124 108.342 31.24 108.406 31.4312 108.47C31.6862 108.597 31.9413 108.661 32.1963 108.788C32.3875 108.852 32.5151 108.916 32.7063 108.98C32.9614 109.107 33.2164 109.235 33.5351 109.298C33.7264 109.362 33.9177 109.426 34.0452 109.553C34.3639 109.681 34.619 109.808 34.9378 109.936C35.129 110 35.2565 110.063 35.4478 110.127C35.8941 110.318 36.4041 110.51 36.8504 110.765C36.9142 110.765 36.9142 110.828 36.9779 110.828C37.4242 111.02 37.8705 111.211 38.3168 111.402C38.508 111.466 38.6355 111.53 38.8268 111.657C39.1456 111.785 39.4644 111.976 39.8469 112.104C40.0382 112.167 40.2294 112.295 40.4207 112.359C40.7395 112.486 41.0582 112.614 41.377 112.805C41.5683 112.932 41.8233 112.996 42.0146 113.124C42.3333 113.251 42.6521 113.442 42.9709 113.57C43.1622 113.698 43.4172 113.761 43.6085 113.889C43.9272 114.016 44.246 114.208 44.6285 114.335C44.8198 114.463 45.0748 114.526 45.2661 114.654C45.6486 114.845 46.0949 115.036 46.4774 115.228C46.6049 115.291 46.7962 115.355 46.9237 115.419C47.4975 115.674 48.0713 115.993 48.6451 116.248C48.7726 116.311 48.9001 116.375 49.0914 116.439C49.5377 116.63 49.984 116.885 50.4303 117.077C50.6215 117.204 50.8766 117.268 51.0678 117.395C51.4503 117.587 51.8329 117.778 52.2154 117.969C52.4704 118.097 52.7254 118.224 52.9167 118.352C53.2992 118.543 53.6818 118.734 54.0643 118.925C54.3193 119.053 54.5743 119.18 54.8294 119.308C55.2119 119.499 55.5944 119.69 55.977 119.882C56.232 120.009 56.487 120.137 56.742 120.264C57.1246 120.456 57.5708 120.711 57.9534 120.902C58.2084 121.029 58.3997 121.157 58.6547 121.284C59.1647 121.539 59.6748 121.858 60.2486 122.113C60.3761 122.177 60.5036 122.241 60.6311 122.304C61.2686 122.623 61.97 123.006 62.6075 123.325C62.7988 123.452 62.99 123.516 63.1813 123.643C63.6276 123.898 64.1376 124.153 64.6477 124.408C64.9027 124.536 65.1577 124.663 65.4127 124.855C65.859 125.11 66.3053 125.301 66.6878 125.556C66.9429 125.683 67.2616 125.875 67.5166 126.002C67.9629 126.257 68.3455 126.449 68.7917 126.704C69.0468 126.831 69.3656 127.022 69.6843 127.214C70.1306 127.469 70.5769 127.724 70.9594 127.915C71.2145 128.042 71.5332 128.234 71.7882 128.361C72.2983 128.616 72.7446 128.935 73.2546 129.19C73.5096 129.318 73.7009 129.445 73.9559 129.573C74.6572 130.019 75.4223 130.401 76.1874 130.848C93.5925 140.921 105.451 149.145 113.102 155.138C113.612 155.521 114.122 155.903 114.568 156.286C115.014 156.668 115.524 157.051 115.971 157.37C116.417 157.689 116.863 158.071 117.246 158.39C117.628 158.709 118.011 159.027 118.393 159.346C118.776 159.665 119.095 159.984 119.477 160.239C119.796 160.558 120.115 160.813 120.433 161.068C121.071 161.641 121.581 162.088 122.091 162.598C122.346 162.853 122.601 163.044 122.792 163.235C124.514 164.893 125.406 165.849 125.534 166.04L125.598 147.87C124.769 147.233 113.229 134.163 76.0599 112.677Z" fill="#E4EDF1"/>
<path d="M222.633 27.5009C261.205 49.7515 271.47 62.12 271.98 62.7576L125.343 147.934C124.705 147.233 113.165 134.163 75.9962 112.678C50.8129 98.1417 31.6863 90.236 22.0593 86.6658C21.6768 86.5382 21.2943 86.347 20.9117 86.1557C18.4253 84.6894 18.2978 82.3304 20.9117 80.8003L158.049 1.1063C160.153 -0.105053 163.468 -0.36007 166.082 0.532503C174.498 3.40149 194.198 11.0521 222.633 27.5009Z" fill="white"/>
<path d="M271.98 62.7573L271.916 80.9275L125.343 166.168L125.407 147.934L271.98 62.7573Z" fill="#C5C5C5"/>
<path d="M332.993 91.1929C361.428 107.642 374.817 118.99 379.79 123.836C381.32 125.302 380.937 127.215 378.833 128.49L241.696 208.184C239.082 209.714 234.938 209.65 232.451 208.184C232.133 207.992 231.814 207.801 231.559 207.546C225.375 201.936 211.667 190.906 186.42 176.37C149.251 154.884 126.554 148.254 125.406 147.871L272.043 62.6943C273.127 63.0769 294.485 68.9423 332.993 91.1929Z" fill="white"/>
<path d="M380.746 126.066C380.746 126.13 380.746 126.194 380.746 126.258C380.746 126.321 380.746 126.385 380.682 126.449C380.682 126.513 380.618 126.576 380.618 126.64C380.618 126.704 380.555 126.768 380.555 126.831C380.555 126.895 380.491 126.959 380.491 127.023C380.491 127.086 380.427 127.087 380.427 127.15C380.363 127.214 380.3 127.278 380.3 127.405C380.236 127.469 380.236 127.469 380.172 127.533C380.108 127.66 379.981 127.724 379.917 127.852C379.853 127.915 379.853 127.915 379.79 127.979C379.726 128.043 379.662 128.107 379.598 128.17C379.535 128.234 379.471 128.298 379.407 128.298C379.343 128.362 379.28 128.425 379.152 128.425C379.088 128.489 379.025 128.553 378.897 128.553L241.76 208.247C241.568 208.374 241.377 208.438 241.122 208.566C241.058 208.566 240.995 208.629 240.931 208.629C240.74 208.693 240.612 208.757 240.421 208.821C240.357 208.821 240.293 208.884 240.23 208.884C240.102 208.948 240.038 208.948 239.911 208.948C239.847 208.948 239.719 209.012 239.656 209.012C239.528 209.012 239.401 209.076 239.337 209.076C239.273 209.076 239.146 209.139 239.082 209.139C238.827 209.203 238.572 209.203 238.317 209.267C238.253 209.267 238.189 209.267 238.126 209.267C237.998 209.267 237.807 209.267 237.679 209.267C237.616 209.267 237.488 209.267 237.424 209.267C237.297 209.267 237.169 209.267 237.042 209.267C236.914 209.267 236.851 209.267 236.723 209.267C236.595 209.267 236.468 209.267 236.404 209.267C236.277 209.267 236.213 209.267 236.085 209.267C235.958 209.267 235.894 209.267 235.767 209.203C235.639 209.203 235.575 209.203 235.512 209.139C235.384 209.139 235.257 209.076 235.129 209.076C235.065 209.076 234.938 209.012 234.874 209.012C234.747 209.012 234.619 208.948 234.492 208.884C234.428 208.884 234.364 208.821 234.3 208.821C234.045 208.757 233.854 208.693 233.599 208.566C233.599 208.566 233.535 208.566 233.535 208.502C233.216 208.374 232.961 208.247 232.643 208.056C232.324 207.864 232.005 207.673 231.75 207.418C225.566 201.808 211.858 190.778 186.611 176.242C185.591 175.604 184.507 175.03 183.487 174.457C183.296 174.329 183.105 174.265 182.914 174.138C181.957 173.564 180.937 173.054 179.981 172.48C179.79 172.353 179.598 172.289 179.407 172.161C178.451 171.588 177.431 171.078 176.474 170.568C176.411 170.504 176.347 170.504 176.283 170.44C175.327 169.93 174.434 169.42 173.542 168.974C173.414 168.91 173.223 168.782 173.095 168.719C172.203 168.209 171.31 167.762 170.418 167.316C170.226 167.252 170.035 167.125 169.908 167.061C169.015 166.615 168.122 166.168 167.294 165.722C167.166 165.658 167.102 165.595 166.975 165.595C166.146 165.148 165.317 164.766 164.488 164.32C164.361 164.256 164.233 164.192 164.106 164.128C163.277 163.682 162.448 163.299 161.619 162.917C161.428 162.853 161.301 162.789 161.109 162.662C160.281 162.279 159.515 161.897 158.75 161.514C158.623 161.451 158.495 161.387 158.432 161.323C157.667 160.94 156.965 160.622 156.264 160.239C156.2 160.175 156.073 160.175 156.009 160.112C155.244 159.729 154.543 159.41 153.777 159.092C153.65 159.028 153.459 158.964 153.331 158.9C152.63 158.582 151.929 158.263 151.227 157.944C151.1 157.88 150.972 157.816 150.909 157.816C150.207 157.498 149.57 157.243 148.932 156.924C148.868 156.924 148.805 156.86 148.805 156.86C148.103 156.541 147.466 156.286 146.828 155.968C146.701 155.904 146.573 155.84 146.446 155.84C145.808 155.585 145.234 155.33 144.597 155.075C144.469 155.011 144.405 155.011 144.278 154.947C143.64 154.692 143.067 154.437 142.493 154.182C141.919 153.927 141.345 153.672 140.771 153.481C140.644 153.417 140.58 153.417 140.453 153.354C139.943 153.162 139.433 152.907 138.923 152.716C138.795 152.652 138.731 152.652 138.604 152.589C138.094 152.397 137.584 152.206 137.137 152.015C137.074 152.015 137.01 151.951 136.946 151.951C136.5 151.76 136.117 151.632 135.671 151.441C135.48 151.377 135.352 151.313 135.225 151.25C134.906 151.122 134.587 150.995 134.332 150.931C134.141 150.867 134.013 150.803 133.822 150.74C133.567 150.612 133.248 150.548 132.993 150.421C132.866 150.357 132.738 150.293 132.611 150.293C132.292 150.166 131.973 150.038 131.654 149.975C131.591 149.975 131.527 149.911 131.463 149.911C131.081 149.783 130.762 149.656 130.443 149.528C130.316 149.465 130.252 149.465 130.188 149.401C129.933 149.337 129.742 149.273 129.487 149.146C129.359 149.082 129.295 149.082 129.168 149.018C128.977 148.955 128.785 148.891 128.594 148.827C128.53 148.763 128.403 148.763 128.339 148.763C128.148 148.699 127.957 148.636 127.829 148.572C127.765 148.572 127.702 148.508 127.638 148.508C127.447 148.444 127.192 148.381 127 148.317C126.937 148.317 126.937 148.317 126.873 148.253C126.745 148.189 126.618 148.189 126.49 148.126C126.427 148.126 126.363 148.126 126.363 148.062C126.299 148.062 126.172 147.998 126.108 147.998C126.044 147.998 126.044 147.998 125.98 147.934C125.916 147.934 125.853 147.871 125.789 147.871H125.725C125.661 147.871 125.598 147.807 125.598 147.807L125.534 165.977C125.598 165.977 125.598 165.977 125.725 166.041C125.725 166.041 125.725 166.041 125.789 166.041C125.853 166.041 125.916 166.105 125.98 166.105C126.044 166.105 126.044 166.105 126.108 166.168C126.172 166.168 126.299 166.232 126.363 166.232C126.427 166.232 126.49 166.232 126.49 166.296C126.618 166.36 126.745 166.36 126.873 166.423C126.937 166.423 126.937 166.423 127 166.487C127.192 166.551 127.383 166.615 127.638 166.678C127.702 166.678 127.765 166.742 127.829 166.742C128.02 166.806 128.148 166.87 128.339 166.933C128.403 166.933 128.53 166.997 128.594 166.997C128.785 167.061 128.977 167.125 129.168 167.188C129.295 167.252 129.359 167.252 129.487 167.316C129.678 167.38 129.933 167.444 130.124 167.571C130.252 167.635 130.316 167.635 130.443 167.699C130.762 167.826 131.144 167.954 131.463 168.081C131.527 168.081 131.591 168.145 131.591 168.145C131.909 168.272 132.228 168.4 132.611 168.527C132.738 168.591 132.866 168.655 132.993 168.655C133.248 168.782 133.567 168.846 133.886 168.974C134.013 169.037 134.205 169.101 134.332 169.165C134.651 169.292 134.97 169.42 135.288 169.547C135.416 169.611 135.607 169.675 135.735 169.739C136.181 169.93 136.564 170.057 137.01 170.249C137.074 170.249 137.137 170.313 137.137 170.313C137.647 170.504 138.157 170.695 138.668 170.886C138.795 170.95 138.859 170.95 138.986 171.014C139.496 171.205 140.006 171.46 140.58 171.651C140.644 171.715 140.771 171.715 140.835 171.779C141.409 172.034 141.983 172.225 142.557 172.48C143.13 172.735 143.768 172.99 144.342 173.245C144.469 173.309 144.533 173.309 144.66 173.373C145.234 173.628 145.872 173.883 146.509 174.202C146.637 174.265 146.764 174.329 146.892 174.329C147.529 174.584 148.231 174.903 148.868 175.222C148.932 175.222 148.932 175.285 148.996 175.285C149.633 175.604 150.335 175.859 150.972 176.178C151.1 176.242 151.164 176.305 151.291 176.305C151.992 176.624 152.694 176.943 153.395 177.262C153.522 177.326 153.65 177.389 153.841 177.453C154.543 177.772 155.308 178.154 156.073 178.473C156.136 178.537 156.264 178.537 156.328 178.601C157.029 178.919 157.794 179.302 158.559 179.685C158.687 179.748 158.75 179.812 158.878 179.812C159.643 180.195 160.472 180.577 161.237 180.96C161.364 181.023 161.556 181.087 161.683 181.215C162.512 181.597 163.341 182.043 164.17 182.426C164.297 182.49 164.425 182.554 164.488 182.617C165.317 183 166.146 183.446 166.975 183.892C167.039 183.956 167.166 183.956 167.23 184.02C168.122 184.466 168.951 184.912 169.844 185.359C170.035 185.422 170.226 185.55 170.354 185.614C171.246 186.06 172.139 186.57 173.032 187.016C173.159 187.08 173.35 187.208 173.478 187.271C174.37 187.781 175.327 188.228 176.219 188.738C176.283 188.738 176.347 188.802 176.411 188.802C177.367 189.312 178.323 189.885 179.343 190.395C179.535 190.523 179.726 190.587 179.917 190.714C180.873 191.224 181.83 191.798 182.85 192.372C183.041 192.499 183.232 192.563 183.424 192.691C184.444 193.264 185.464 193.838 186.548 194.476C211.731 209.012 225.502 220.042 231.686 225.652C231.941 225.907 232.26 226.098 232.579 226.29C232.834 226.417 233.153 226.608 233.471 226.736H233.535C233.535 226.736 233.535 226.736 233.599 226.736C233.854 226.8 234.045 226.927 234.3 226.991H234.364C234.428 226.991 234.492 226.991 234.555 227.055C234.683 227.118 234.81 227.118 234.938 227.182C235.002 227.182 235.002 227.182 235.065 227.182C235.129 227.182 235.193 227.182 235.193 227.182C235.32 227.182 235.448 227.246 235.575 227.246C235.639 227.246 235.703 227.246 235.703 227.246C235.767 227.246 235.767 227.246 235.83 227.246C235.958 227.246 236.022 227.246 236.149 227.31C236.213 227.31 236.277 227.31 236.34 227.31C236.404 227.31 236.404 227.31 236.468 227.31C236.595 227.31 236.723 227.31 236.787 227.31C236.85 227.31 236.914 227.31 236.978 227.31C237.042 227.31 237.042 227.31 237.106 227.31C237.233 227.31 237.361 227.31 237.488 227.31C237.552 227.31 237.616 227.31 237.679 227.31H237.743C237.871 227.31 238.062 227.31 238.189 227.31C238.253 227.31 238.317 227.31 238.381 227.31C238.381 227.31 238.381 227.31 238.444 227.31C238.699 227.31 238.954 227.246 239.209 227.182H239.273C239.337 227.182 239.401 227.182 239.464 227.118C239.592 227.118 239.719 227.055 239.783 227.055C239.847 227.055 239.975 226.991 240.038 226.991C240.166 226.991 240.23 226.927 240.357 226.927H240.421C240.485 226.927 240.485 226.927 240.548 226.863C240.74 226.8 240.867 226.736 241.058 226.672C241.122 226.672 241.186 226.608 241.25 226.608C241.441 226.481 241.696 226.417 241.887 226.29L379.025 146.596L379.088 146.532C379.152 146.468 379.216 146.468 379.28 146.404C379.343 146.341 379.471 146.277 379.535 146.277C379.598 146.213 379.662 146.213 379.726 146.149C379.79 146.086 379.853 146.022 379.917 145.958C379.917 145.958 379.917 145.958 379.981 145.894L380.045 145.831C380.172 145.703 380.236 145.639 380.3 145.512L380.363 145.448C380.363 145.448 380.363 145.384 380.427 145.384C380.491 145.32 380.555 145.257 380.555 145.129C380.555 145.065 380.618 145.065 380.618 145.002C380.618 145.002 380.618 145.002 380.618 144.938C380.682 144.874 380.682 144.81 380.682 144.747C380.682 144.683 380.746 144.683 380.746 144.619C380.746 144.619 380.746 144.619 380.746 144.555C380.746 144.492 380.81 144.428 380.81 144.364C380.81 144.3 380.81 144.3 380.873 144.237C380.873 144.237 380.873 144.237 380.873 144.173C380.873 144.109 380.873 144.045 380.873 143.982C380.873 143.918 380.873 143.918 380.873 143.854V143.79L380.937 125.62C380.81 125.875 380.746 126.003 380.746 126.066Z" fill="#E4EDF1"/>
<path d="M134.842 149.783L134.778 152.397L117.501 155.457L117.564 152.843L134.842 149.783Z" fill="#000D2A"/>
<path d="M288.11 65.052C289.321 65.7533 289.321 66.9009 288.11 67.6022L129.614 159.792L134.842 149.783L117.564 152.843L276.06 60.6529C277.271 59.9516 279.248 59.9516 280.459 60.6529L288.11 65.052Z" fill="#25366B"/>
<path d="M288.938 66.6459C288.875 66.7734 288.875 66.9009 288.811 66.9647C288.811 66.9647 288.811 67.0285 288.747 67.0285C288.683 67.0922 288.62 67.2197 288.492 67.2835C288.428 67.3472 288.365 67.411 288.301 67.4748C288.237 67.5385 288.173 67.5385 288.11 67.6023L129.614 159.792V162.406L288.11 70.2162C288.11 70.2162 288.11 70.2162 288.173 70.2162C288.237 70.1525 288.301 70.1525 288.301 70.0887C288.365 70.025 288.428 69.9612 288.492 69.8974C288.556 69.8337 288.62 69.7699 288.683 69.7062C288.683 69.7062 288.683 69.6424 288.747 69.6424C288.747 69.6424 288.747 69.5787 288.811 69.5787L288.875 69.5149C288.938 69.4512 288.938 69.3874 288.938 69.3236C288.938 69.3236 288.938 69.3236 288.938 69.2599C288.938 69.1961 288.938 69.1961 289.002 69.1324C289.002 69.0686 289.002 69.0049 289.002 68.9411V66.3271C289.002 66.4547 289.002 66.5184 288.938 66.6459Z" fill="#000D2A"/>
<path d="M215.939 57.2105C213.261 54.6603 206.439 48.8586 192.03 40.5067C172.521 29.222 160.982 26.0342 160.599 25.9067C159.005 25.4605 157.093 25.843 156.328 26.7993C155.754 27.5006 156.009 28.3932 156.965 28.9032C157.22 29.0307 157.539 29.1583 157.858 29.2858C158.177 29.4133 169.015 32.5373 187.504 43.1844C201.53 51.2813 208.033 56.8918 210.456 59.1232C210.583 59.2507 210.775 59.3782 210.966 59.5057C211.986 60.0795 213.58 60.207 214.855 59.7607C216.385 59.2507 216.831 58.1031 215.939 57.2105Z" fill="#9DC2D4"/>
<path d="M193.752 69.6427C191.074 67.0925 184.252 61.2907 169.844 52.9388C150.335 41.6541 138.795 38.4664 138.412 38.3389C136.819 37.8926 134.906 38.2751 134.141 39.2314C133.567 39.9327 133.822 40.8253 134.778 41.3354C135.033 41.4629 135.352 41.5904 135.671 41.7179C135.99 41.8454 146.828 44.9057 165.317 55.6165C179.407 63.7134 185.846 69.3239 188.269 71.6191C188.397 71.7466 188.588 71.8741 188.779 72.0016C189.799 72.5754 191.393 72.7029 192.668 72.2566C194.198 71.6191 194.708 70.4715 193.752 69.6427Z" fill="#9DC2D4"/>
<path d="M171.565 82.0113C168.887 79.4611 162.066 73.6594 147.657 65.3075C128.148 54.0228 116.608 50.835 116.226 50.7075C114.632 50.2612 112.719 50.6438 111.954 51.6001C111.38 52.3014 111.635 53.194 112.592 53.704C112.847 53.8315 113.165 53.959 113.484 54.0866C113.803 54.2141 124.641 57.3381 143.13 67.9852C157.156 76.0821 163.66 81.6926 166.082 83.924C166.21 84.0515 166.401 84.179 166.592 84.3065C167.612 84.8803 169.206 85.0078 170.481 84.5615C172.011 83.9877 172.521 82.8401 171.565 82.0113Z" fill="#9DC2D4"/>
<path d="M149.442 94.3795C146.764 91.8293 139.943 86.0275 125.534 77.6756C106.025 66.3909 94.4852 63.2032 94.1026 63.0757C92.5088 62.6294 90.5961 63.0119 89.831 63.9683C89.2572 64.6696 89.5123 65.5621 90.4686 66.0722C90.7236 66.1997 91.0424 66.3272 91.3612 66.4547C91.6799 66.5822 102.518 69.6425 121.007 80.3533C135.097 88.4502 141.537 94.0607 143.959 96.3559C144.087 96.4834 144.278 96.6109 144.469 96.7384C145.489 97.3122 147.083 97.4397 148.358 96.9934C149.825 96.3559 150.335 95.2083 149.442 94.3795Z" fill="#9DC2D4"/>
<path d="M127.255 106.748C124.578 104.198 117.756 98.3962 103.347 90.0443C83.8381 78.7596 72.2984 75.5718 71.9159 75.4443C70.322 74.998 68.4093 75.3806 67.6443 76.3369C67.0705 77.0382 67.3255 77.9308 68.2818 78.4408C68.5368 78.5683 68.8556 78.6959 69.1744 78.8234C69.4932 78.9509 80.3315 82.0749 98.8205 92.722C112.91 100.819 119.35 106.429 121.772 108.725C121.9 108.852 122.091 108.98 122.282 109.107C123.303 109.681 124.896 109.808 126.172 109.362C127.702 108.725 128.148 107.577 127.255 106.748Z" fill="#9DC2D4"/>
<path d="M332.037 118.607C329.359 116.057 322.538 110.255 308.129 101.903C288.62 90.6185 277.08 87.4307 276.698 87.3032C275.104 86.8569 273.191 87.2394 272.426 88.1958C271.852 88.8971 272.107 89.7897 273.064 90.2997C273.319 90.4272 273.637 90.5547 273.956 90.6822C274.275 90.8098 285.113 93.9337 303.602 104.581C317.628 112.678 324.131 118.288 326.554 120.52C326.682 120.647 326.873 120.775 327.064 120.902C328.084 121.476 329.678 121.604 330.953 121.157C332.483 120.583 332.93 119.436 332.037 118.607Z" fill="#9DC2D4"/>
<path d="M309.85 130.975C307.173 128.425 300.351 122.623 285.942 114.271C266.433 102.987 254.893 99.7989 254.511 99.6714C252.917 99.2251 251.004 99.6076 250.239 100.564C249.665 101.265 249.92 102.158 250.877 102.668C251.132 102.795 251.451 102.923 251.769 103.05C252.088 103.178 262.926 106.238 281.415 116.949C295.505 125.046 301.945 130.656 304.367 132.952C304.495 133.079 304.686 133.207 304.877 133.334C305.897 133.908 307.491 134.035 308.766 133.589C310.297 132.952 310.743 131.804 309.85 130.975Z" fill="#9DC2D4"/>
<path d="M287.664 143.344C284.986 140.794 278.164 134.992 263.755 126.64C244.246 115.355 232.707 112.168 232.324 112.04C230.73 111.594 228.818 111.976 228.052 112.933C227.479 113.634 227.734 114.526 228.69 115.037C228.945 115.164 229.264 115.292 229.583 115.419C229.901 115.547 240.74 118.671 259.229 129.318C273.255 137.415 279.758 143.025 282.181 145.256C282.308 145.384 282.499 145.512 282.691 145.639C283.711 146.213 285.305 146.34 286.58 145.894C288.11 145.32 288.62 144.236 287.664 143.344Z" fill="#9DC2D4"/>
<path d="M265.477 155.712C262.799 153.162 255.977 147.361 241.569 139.009C222.06 127.724 210.52 124.536 210.137 124.409C208.543 123.962 206.631 124.345 205.866 125.301C205.292 126.003 205.547 126.895 206.503 127.405C206.758 127.533 207.077 127.66 207.396 127.788C207.715 127.915 218.553 130.975 237.042 141.686C251.132 149.783 257.571 155.394 259.994 157.689C260.121 157.816 260.313 157.944 260.504 158.071C261.524 158.645 263.118 158.773 264.393 158.326C265.923 157.689 266.433 156.605 265.477 155.712Z" fill="#9DC2D4"/>
<path d="M243.354 168.081C240.676 165.531 233.854 159.729 219.446 151.377C199.936 140.093 188.397 136.905 188.014 136.777C186.42 136.331 184.508 136.714 183.743 137.67C183.169 138.371 183.424 139.264 184.38 139.774C184.635 139.901 184.954 140.029 185.273 140.156C185.592 140.284 196.43 143.408 214.919 154.055C229.009 162.152 235.448 167.762 237.871 170.058C237.998 170.185 238.19 170.313 238.381 170.44C239.401 171.014 240.995 171.141 242.27 170.695C243.736 170.058 244.246 168.974 243.354 168.081Z" fill="#9DC2D4"/>
</svg>
