<svg fill="none" height="80" viewBox="0 0 80 80" width="80" xmlns="http://www.w3.org/2000/svg"><rect fill="#00a0b6" height="80" rx="25" width="80"/><path d="m56.9519 26.4003c-.0022 0-.0044-.0003-.0066-.0003h-9.5625v-1.1c0-1.8196-1.4194-3.3-3.164-3.3h-8.4376c-1.7446 0-3.164 1.4804-3.164 3.3v1.1h-9.5625c-.5872 0-1.0547.5019-1.0547 1.1v24.2c0 1.8196 1.4194 3.3 3.1641 3.3h29.6718c1.7447 0 3.1641-1.4804 3.1641-3.3v-24.1768c0-.0014 0-.0029 0-.0043-.0404-.7224-.4664-1.1146-1.0481-1.1186zm-22.2253-1.1003c0-.6064.4732-1.1 1.0546-1.1h8.4376c.5814 0 1.0546.4936 1.0546 1.1v1.1h-10.5468zm20.7553 3.3-3.2753 10.2478c-.1436.45-.5457.7522-1.0003.7522h-5.9329v-1.1c0-.6076-.4721-1.1-1.0546-1.1h-8.4376c-.5825 0-1.0546.4924-1.0546 1.1v1.1h-5.9329c-.4546 0-.8567-.3022-1.0003-.7522l-3.2753-10.2478zm-12.3178 11v2.2h-6.3282v-2.2zm12.7265 12.1c0 .6064-.4732 1.1-1.0547 1.1h-29.6718c-.5815 0-1.0547-.4936-1.0547-1.1v-17.4215l1.6828 5.2651c.4312 1.3498 1.6375 2.2564 3.0015 2.2564h5.9329v1.1c0 .6076.4721 1.1 1.0546 1.1h8.4376c.5825 0 1.0546-.4924 1.0546-1.1v-1.1h5.9329c1.364 0 2.5703-.9066 3.0015-2.2564l1.6828-5.2651z" fill="#fff"/></svg>