<svg fill="none" height="20" viewBox="0 0 20 20" width="20" xmlns="http://www.w3.org/2000/svg" xmlns:xlink="http://www.w3.org/1999/xlink"><linearGradient id="a" gradientUnits="userSpaceOnUse" x1="10" x2="10" y1="0" y2="20"><stop offset="0" stop-color="#b0e7c6"/><stop offset="1" stop-color="#5dd1b3"/></linearGradient><ellipse cx="9.70568" cy="9.72785" fill="#fff" rx="8.98681" ry="9.00727"/><path clip-rule="evenodd" d="m0 10c0-5.52284 4.47715-10 10-10 5.5204.00590122 9.9941 4.47962 10 10 0 5.5228-4.4772 10-10 10-5.52285 0-10-4.4772-10-10zm8.36213 4.0765 7.14287-7.14286c.2674-.27681.2674-.71564 0-.99245-.274-.28372-.7262-.29159-1.01-.01754l-6.63786 6.63785-2.35217-2.3521c-.00578-.006-.01164-.0118-.01758-.0176-.28376-.27406-.73594-.26619-1.00999.0176-.27405.2837-.26618.7359.01758 1.01l2.85716 2.8571c.27891.2789.73104.2789 1.00999 0z" fill="url(#a)" fill-rule="evenodd"/></svg>