<svg width="20" height="20" viewBox="0 0 20 20" fill="none" xmlns="http://www.w3.org/2000/svg">
<ellipse cx="9.70568" cy="9.72785" rx="8.98681" ry="9.00727" fill="white"/>
<path fill-rule="evenodd" clip-rule="evenodd" d="M0 10C0 4.47716 4.47715 0 10 0C15.5204 0.00590122 19.9941 4.47962 20 10C20 15.5228 15.5228 20 10 20C4.47715 20 0 15.5228 0 10ZM8.36213 14.0765L15.505 6.93364C15.7724 6.65683 15.7724 6.218 15.505 5.94119C15.231 5.65747 14.7788 5.6496 14.495 5.92365L7.85714 12.5615L5.50497 10.2094C5.49919 10.2034 5.49333 10.1976 5.48739 10.1918C5.20363 9.91774 4.75145 9.92561 4.4774 10.2094C4.20335 10.4931 4.21122 10.9453 4.49498 11.2194L7.35214 14.0765C7.63105 14.3554 8.08318 14.3554 8.36213 14.0765Z" fill="url(#paint0_linear)"/>
<defs>
<linearGradient id="paint0_linear" x1="10" y1="0" x2="10" y2="20" gradientUnits="userSpaceOnUse">
<stop stop-color="#B0E7C6"/>
<stop offset="1" stop-color="#5DD1B3"/>
</linearGradient>
</defs>
</svg>
