<svg fill="none" height="30" viewBox="0 0 30 30" width="30" xmlns="http://www.w3.org/2000/svg"><rect fill="#65a2fd" height="30" rx="7" width="30"/><path clip-rule="evenodd" d="m15 6c-4.9706 0-9 4.0294-9 9s4.0294 9 9 9 9-4.0294 9-9c0-2.3869-.9482-4.6761-2.636-6.36396-1.6879-1.68783-3.9771-2.63604-6.364-2.63604zm2.4477 6.1111-3.861 3.87-1.485-1.485c-.22-.2569-.5653-.3687-.8941-.2896-.3288.079-.5855.3357-.6645.6645-.0791.3288.0327.6741.2896.8941l2.115 2.124c.1698.1684.3998.2624.639.261.2361-.001.4624-.0947.63-.261l4.5-4.5c.1704-.169.2662-.399.2662-.639s-.0958-.47-.2662-.639c-.351-.349-.918-.349-1.269 0zm-9.64777 2.8887c0 3.9765 3.22357 7.2 7.19997 7.2 1.9096 0 3.7409-.7586 5.0912-2.1088 1.3503-1.3503 2.1088-3.1816 2.1088-5.0912 0-3.9764-3.2235-7.2-7.2-7.2-3.9764 0-7.19997 3.2236-7.19997 7.2z" fill="#fff" fill-rule="evenodd"/></svg>