<svg fill="none" height="158" viewBox="0 0 157 158" width="157" xmlns="http://www.w3.org/2000/svg" xmlns:xlink="http://www.w3.org/1999/xlink"><filter id="a" color-interpolation-filters="sRGB" filterUnits="userSpaceOnUse" height="157" width="157" x="0" y=".515381"><feFlood flood-opacity="0" result="BackgroundImageFix"/><feColorMatrix in="SourceAlpha" result="hardAlpha" type="matrix" values="0 0 0 0 0 0 0 0 0 0 0 0 0 0 0 0 0 0 127 0"/><feOffset dy="9"/><feGaussianBlur stdDeviation="15"/><feColorMatrix type="matrix" values="0 0 0 0 0.593438 0 0 0 0 0.707729 0 0 0 0 0.879167 0 0 0 0.25 0"/><feBlend in2="BackgroundImageFix" mode="normal" result="effect1_dropShadow"/><feBlend in="SourceGraphic" in2="effect1_dropShadow" mode="normal" result="shape"/></filter><filter id="b" color-interpolation-filters="sRGB" filterUnits="userSpaceOnUse" height="31.4012" width="32.6302" x="47" y="55.5154"><feFlood flood-opacity="0" result="BackgroundImageFix"/><feColorMatrix in="SourceAlpha" result="hardAlpha" type="matrix" values="0 0 0 0 0 0 0 0 0 0 0 0 0 0 0 0 0 0 127 0"/><feOffset dx="2" dy="2"/><feGaussianBlur stdDeviation="2"/><feColorMatrix type="matrix" values="0 0 0 0 0.0846528 0 0 0 0 0.150363 0 0 0 0 0.383333 0 0 0 0.25 0"/><feBlend in2="BackgroundImageFix" mode="normal" result="effect1_dropShadow"/><feBlend in="SourceGraphic" in2="effect1_dropShadow" mode="normal" result="shape"/></filter><linearGradient id="c" gradientUnits="userSpaceOnUse" x1="117.909" x2="117.909" y1="16.5154" y2="44.2707"><stop offset="0" stop-color="#b0e7c6"/><stop offset="1" stop-color="#5dd1b3"/></linearGradient><linearGradient id="d" gradientUnits="userSpaceOnUse" x1="78.5" x2="78.5" y1="45.5154" y2="94.5154"><stop offset="0" stop-color="#85beff"/><stop offset="1" stop-color="#5183bb"/></linearGradient><linearGradient id="e" gradientUnits="userSpaceOnUse" x1="61.3151" x2="61.3151" y1="63.2331" y2="80.9166"><stop offset="0" stop-color="#ffed49"/><stop offset="1" stop-color="#ffb169"/></linearGradient><g filter="url(#a)"><rect fill="#fff" height="97" rx="25" width="97" x="30" y="21.5154"/></g><circle cx="117.5" cy="30.0154" fill="#fff" r="12.5"/><path clip-rule="evenodd" d="m104 30.3931c0-7.6645 6.227-13.8777 13.909-13.8777 7.679.0082 13.901 6.2167 13.91 13.8777 0 7.6644-6.228 13.8776-13.91 13.8776s-13.909-6.2132-13.909-13.8776zm11.631 5.6571 9.935-9.9126c.372-.3842.372-.9932 0-1.3773-.381-.3938-1.01-.4047-1.404-.0244l-9.233 9.2119-3.272-3.2643c-.008-.0083-.016-.0163-.024-.0244-.395-.3803-1.024-.3694-1.405.0244s-.37 1.0213.024 1.4017l3.974 3.965c.388.387 1.017.387 1.405 0z" fill="url(#c)" fill-rule="evenodd"/><path clip-rule="evenodd" d="m88 55.0154c0 5.2467-4.2533 9.5-9.5 9.5s-9.5-4.2533-9.5-9.5 4.2533-9.5 9.5-9.5 9.5 4.2533 9.5 9.5zm-19.8384 16.5698c3.7505-2.9372 8.0986-3.3376 13.1011-2.9417 5.6652 0 12.7212 5.3617 12.7212 13.0934 0 8.4294.0965 9.3169-.1826 10.0641-.0432.1157-.0954.228-.1584.3644-1.1526 2.4217-2.0001 2.4155-14.8786 2.3209-3.1223-.023-6.9519-.0511-11.6644-.0511-2.2241 0-4.0066-1.7228-4.0066-3.8015 0-1.1216-.0246-2.214-.0486-3.2765-.1437-6.3801-.2632-11.6832 5.1169-15.772z" fill="url(#d)" fill-rule="evenodd"/><g filter="url(#b)"><path d="m72.5586 65.4936-6.7828-.6413c-.4275-.0389-.797-.311-.9717-.7192l-2.4295-5.8889c-.3887-.9718-1.7688-.9718-2.1575 0l-2.41 5.8889c-.1555.4082-.5442.6803-.9717.7192l-6.783.6413c-1.0107.0972-1.4188 1.3605-.6608 2.0407l5.1115 4.4896c.3304.2916.4665.7191.3693 1.1467l-1.5354 6.2969c-.2332.9914.8357 1.8075 1.7297 1.2829l5.6557-3.3236c.3693-.2138.8163-.2138 1.1856 0l5.6559 3.3236c.894.5246 1.963-.2721 1.7296-1.2829l-1.516-6.2969c-.0972-.4276.0389-.8551.3693-1.1467l5.1115-4.4896c.7385-.6802.311-1.9435-.6997-2.0407z" fill="url(#e)"/></g></svg>