<svg width="157" height="158" viewBox="0 0 157 158" fill="none" xmlns="http://www.w3.org/2000/svg">
<g filter="url(#filter0_d)">
<rect x="30" y="21.5154" width="97" height="97" rx="25" fill="white"/>
</g>
<circle cx="117.5" cy="30.0154" r="12.5" fill="white"/>
<path fill-rule="evenodd" clip-rule="evenodd" d="M104 30.3931C104 22.7286 110.227 16.5154 117.909 16.5154C125.588 16.5236 131.81 22.7321 131.819 30.3931C131.819 38.0575 125.591 44.2707 117.909 44.2707C110.227 44.2707 104 38.0575 104 30.3931ZM115.631 36.0502L125.566 26.1376C125.938 25.7534 125.938 25.1444 125.566 24.7603C125.185 24.3665 124.556 24.3556 124.162 24.7359L114.929 33.9478L111.657 30.6835C111.649 30.6752 111.641 30.6672 111.633 30.6591C111.238 30.2788 110.609 30.2897 110.228 30.6835C109.847 31.0773 109.858 31.7048 110.252 32.0852L114.226 36.0502C114.614 36.4372 115.243 36.4372 115.631 36.0502Z" fill="url(#paint0_linear)"/>
<path fill-rule="evenodd" clip-rule="evenodd" d="M88 55.0154C88 60.2621 83.7467 64.5154 78.5 64.5154C73.2533 64.5154 69 60.2621 69 55.0154C69 49.7687 73.2533 45.5154 78.5 45.5154C83.7467 45.5154 88 49.7687 88 55.0154ZM68.1616 71.5852C71.9121 68.648 76.2602 68.2476 81.2627 68.6435C86.9279 68.6435 93.9839 74.0052 93.9839 81.7369C93.9839 90.1663 94.0804 91.0538 93.8013 91.801C93.7581 91.9167 93.7059 92.029 93.6429 92.1654C92.4903 94.5871 91.6428 94.5809 78.7643 94.4863C75.642 94.4633 71.8124 94.4352 67.0999 94.4352C64.8758 94.4352 63.0933 92.7124 63.0933 90.6337C63.0933 89.5121 63.0687 88.4197 63.0447 87.3572C62.901 80.9771 62.7815 75.674 68.1616 71.5852Z" fill="url(#paint1_linear)"/>
<g filter="url(#filter1_d)">
<path d="M72.5586 65.4936L65.7758 64.8523C65.3483 64.8134 64.9788 64.5413 64.8041 64.1331L62.3746 58.2442C61.9859 57.2724 60.6058 57.2724 60.2171 58.2442L57.8071 64.1331C57.6516 64.5413 57.2629 64.8134 56.8354 64.8523L50.0524 65.4936C49.0417 65.5908 48.6336 66.8541 49.3916 67.5343L54.5031 72.0239C54.8335 72.3155 54.9696 72.743 54.8724 73.1706L53.337 79.4675C53.1038 80.4589 54.1727 81.275 55.0667 80.7504L60.7224 77.4268C61.0917 77.213 61.5387 77.213 61.908 77.4268L67.5639 80.7504C68.4579 81.275 69.5269 80.4783 69.2935 79.4675L67.7775 73.1706C67.6803 72.743 67.8164 72.3155 68.1468 72.0239L73.2583 67.5343C73.9968 66.8541 73.5693 65.5908 72.5586 65.4936Z" fill="url(#paint2_linear)"/>
</g>
<defs>
<filter id="filter0_d" x="0" y="0.515381" width="157" height="157" filterUnits="userSpaceOnUse" color-interpolation-filters="sRGB">
<feFlood flood-opacity="0" result="BackgroundImageFix"/>
<feColorMatrix in="SourceAlpha" type="matrix" values="0 0 0 0 0 0 0 0 0 0 0 0 0 0 0 0 0 0 127 0" result="hardAlpha"/>
<feOffset dy="9"/>
<feGaussianBlur stdDeviation="15"/>
<feColorMatrix type="matrix" values="0 0 0 0 0.593438 0 0 0 0 0.707729 0 0 0 0 0.879167 0 0 0 0.25 0"/>
<feBlend mode="normal" in2="BackgroundImageFix" result="effect1_dropShadow"/>
<feBlend mode="normal" in="SourceGraphic" in2="effect1_dropShadow" result="shape"/>
</filter>
<filter id="filter1_d" x="47" y="55.5154" width="32.6302" height="31.4012" filterUnits="userSpaceOnUse" color-interpolation-filters="sRGB">
<feFlood flood-opacity="0" result="BackgroundImageFix"/>
<feColorMatrix in="SourceAlpha" type="matrix" values="0 0 0 0 0 0 0 0 0 0 0 0 0 0 0 0 0 0 127 0" result="hardAlpha"/>
<feOffset dx="2" dy="2"/>
<feGaussianBlur stdDeviation="2"/>
<feColorMatrix type="matrix" values="0 0 0 0 0.0846528 0 0 0 0 0.150363 0 0 0 0 0.383333 0 0 0 0.25 0"/>
<feBlend mode="normal" in2="BackgroundImageFix" result="effect1_dropShadow"/>
<feBlend mode="normal" in="SourceGraphic" in2="effect1_dropShadow" result="shape"/>
</filter>
<linearGradient id="paint0_linear" x1="117.909" y1="16.5154" x2="117.909" y2="44.2707" gradientUnits="userSpaceOnUse">
<stop stop-color="#B0E7C6"/>
<stop offset="1" stop-color="#5DD1B3"/>
</linearGradient>
<linearGradient id="paint1_linear" x1="78.5" y1="45.5154" x2="78.5" y2="94.5154" gradientUnits="userSpaceOnUse">
<stop stop-color="#85BEFF"/>
<stop offset="1" stop-color="#5183BB"/>
</linearGradient>
<linearGradient id="paint2_linear" x1="61.3151" y1="63.2331" x2="61.3151" y2="80.9166" gradientUnits="userSpaceOnUse">
<stop stop-color="#FFED49"/>
<stop offset="1" stop-color="#FFB169"/>
</linearGradient>
</defs>
</svg>
