<svg width="371" height="289" viewBox="0 0 371 289" fill="none" xmlns="http://www.w3.org/2000/svg">
<g filter="url(#filter0_d)">
<rect x="195" y="147" width="163" height="124" rx="15" fill="white"/>
<rect x="195" y="147" width="163" height="124" rx="15" stroke="#00A0B6"/>
</g>
<g filter="url(#filter1_d)">
<rect x="195" y="7" width="163" height="124" rx="15" fill="#F9FCFF"/>
</g>
<g filter="url(#filter2_d)">
<rect x="12" y="7" width="163" height="124" rx="15" fill="#F9FCFF"/>
</g>
<g filter="url(#filter3_d)">
<rect x="12" y="147" width="163" height="124" rx="15" fill="#F9FCFF"/>
</g>
<path d="M108.438 71.4998H107.063V69.4373C107.063 69.255 106.99 69.0801 106.861 68.9512C106.732 68.8223 106.557 68.7498 106.375 68.7498H105.688V57.7498H106.375C106.557 57.7498 106.732 57.6774 106.861 57.5485C106.99 57.4195 107.063 57.2447 107.063 57.0623V54.9998H108.403C108.551 55.0001 108.694 54.9531 108.813 54.8655C108.932 54.7779 109.019 54.6545 109.062 54.5135C109.105 54.3725 109.102 54.2213 109.053 54.0823C109.003 53.9434 108.911 53.8239 108.788 53.7417L99.2525 47.3686C100.337 46.3218 101.084 44.975 101.397 43.5009C101.711 42.0268 101.576 40.4927 101.012 39.0953C100.448 37.698 99.4785 36.5011 98.2291 35.6583C96.9798 34.8155 95.5071 34.3652 94 34.3652C92.4929 34.3652 91.0202 34.8155 89.7709 35.6583C88.5215 36.5011 87.5524 37.698 86.988 39.0953C86.4235 40.4927 86.2894 42.0268 86.6029 43.5009C86.9165 44.975 87.6632 46.3218 88.7475 47.3686L79.2119 53.7417C79.0895 53.8239 78.9968 53.9434 78.9474 54.0823C78.8981 54.2213 78.8948 54.3725 78.9379 54.5135C78.9811 54.6545 79.0684 54.7779 79.1871 54.8655C79.3057 54.9531 79.4494 55.0001 79.5969 54.9998H80.9375V57.0623C80.9375 57.2447 81.0099 57.4195 81.1389 57.5485C81.2678 57.6774 81.4427 57.7498 81.625 57.7498H82.3125V68.7498H81.625C81.4427 68.7498 81.2678 68.8223 81.1389 68.9512C81.0099 69.0801 80.9375 69.255 80.9375 69.4373V71.4998H79.5625C79.3802 71.4998 79.2053 71.5723 79.0764 71.7012C78.9474 71.8301 78.875 72.005 78.875 72.1873V74.9373C78.875 75.1197 78.9474 75.2945 79.0764 75.4235C79.2053 75.5524 79.3802 75.6248 79.5625 75.6248H108.438C108.62 75.6248 108.795 75.5524 108.924 75.4235C109.053 75.2945 109.125 75.1197 109.125 74.9373V72.1873C109.125 72.005 109.053 71.8301 108.924 71.7012C108.795 71.5723 108.62 71.4998 108.438 71.4998ZM105.688 56.3748H100.188V54.9998H105.688V56.3748ZM94 61.8748C93.0883 61.8748 92.214 62.237 91.5693 62.8816C90.9247 63.5263 90.5625 64.4006 90.5625 65.3123V71.4998H89.1875V69.4373C89.1875 69.255 89.1151 69.0801 88.9861 68.9512C88.8572 68.8223 88.6823 68.7498 88.5 68.7498H87.8125V57.7498H88.5C88.6823 57.7498 88.8572 57.6774 88.9861 57.5485C89.1151 57.4195 89.1875 57.2447 89.1875 57.0623V54.9998H98.8125V57.0623C98.8125 57.2447 98.8849 57.4195 99.0139 57.5485C99.1428 57.6774 99.3177 57.7498 99.5 57.7498H100.188V68.7498H99.5C99.3177 68.7498 99.1428 68.8223 99.0139 68.9512C98.8849 69.0801 98.8125 69.255 98.8125 69.4373V71.4998H97.4375V65.3123C97.4375 64.4006 97.0753 63.5263 96.4307 62.8816C95.786 62.237 94.9117 61.8748 94 61.8748ZM96.0625 65.3123V71.4998H91.9375V65.3123C91.9375 64.7653 92.1548 64.2407 92.5416 63.8539C92.9284 63.4671 93.453 63.2498 94 63.2498C94.547 63.2498 95.0716 63.4671 95.4584 63.8539C95.8452 64.2407 96.0625 64.7653 96.0625 65.3123ZM82.3125 56.3748V54.9998H87.8125V56.3748H82.3125ZM86.4375 57.7498V68.7498H83.6875V57.7498H86.4375ZM100.188 70.1248H105.688V71.4998H100.188V70.1248ZM101.563 68.7498V57.7498H104.313V68.7498H101.563ZM87.8125 41.9373C87.8125 40.7135 88.1754 39.5173 88.8553 38.4997C89.5352 37.4822 90.5015 36.6891 91.6321 36.2208C92.7628 35.7525 94.0069 35.63 95.2071 35.8687C96.4074 36.1075 97.5099 36.6968 98.3752 37.5621C99.2406 38.4274 99.8299 39.5299 100.069 40.7302C100.307 41.9305 100.185 43.1746 99.7165 44.3052C99.2482 45.4358 98.4551 46.4021 97.4376 47.082C96.4201 47.7619 95.2238 48.1248 94 48.1248C92.3598 48.1223 90.7874 47.4696 89.6276 46.3097C88.4678 45.1499 87.815 43.5776 87.8125 41.9373ZM81.8656 53.6248L89.875 48.2692C91.1009 49.0721 92.5345 49.4998 94 49.4998C95.4655 49.4998 96.8991 49.0721 98.125 48.2692L106.134 53.6248H81.8656ZM82.3125 70.1248H87.8125V71.4998H82.3125V70.1248ZM107.75 74.2498H80.25V72.8748H107.75V74.2498Z" fill="#00A0B6"/>
<path d="M93.3125 46.75H94.6875V45.375C95.0522 45.375 95.4019 45.2301 95.6598 44.9723C95.9176 44.7144 96.0625 44.3647 96.0625 44V42.625C96.0625 42.2603 95.9176 41.9106 95.6598 41.6527C95.4019 41.3949 95.0522 41.25 94.6875 41.25H93.3125V39.875H96.0625V38.5H94.6875V37.125H93.3125V38.5C92.9478 38.5 92.5981 38.6449 92.3402 38.9027C92.0824 39.1606 91.9375 39.5103 91.9375 39.875V41.25C91.9375 41.6147 92.0824 41.9644 92.3402 42.2223C92.5981 42.4801 92.9478 42.625 93.3125 42.625H94.6875V44H91.9375V45.375H93.3125V46.75Z" fill="#00A0B6"/>
<path d="M114.557 63.6398C114.5 63.5232 114.413 63.4248 114.303 63.3558C114.194 63.2869 114.067 63.2502 113.938 63.25H113.25V57.0625C113.25 56.8802 113.178 56.7053 113.049 56.5764C112.92 56.4474 112.745 56.375 112.563 56.375H109.813C109.63 56.375 109.456 56.4474 109.327 56.5764C109.198 56.7053 109.125 56.8802 109.125 57.0625V63.25H108.438C108.308 63.25 108.181 63.2865 108.072 63.3554C107.962 63.4244 107.874 63.5229 107.818 63.6397C107.762 63.7564 107.74 63.8867 107.754 64.0154C107.769 64.1441 107.82 64.2661 107.901 64.3672L110.651 67.8047C110.715 67.8852 110.797 67.9503 110.89 67.9949C110.983 68.0396 111.085 68.0628 111.188 68.0628C111.291 68.0628 111.393 68.0396 111.486 67.9949C111.579 67.9503 111.66 67.8852 111.725 67.8047L114.475 64.3672C114.555 64.266 114.606 64.144 114.62 64.0153C114.635 63.8866 114.613 63.7565 114.557 63.6398ZM111.188 66.275L109.866 64.625C110.039 64.6115 110.201 64.5331 110.318 64.4056C110.436 64.2781 110.501 64.1109 110.5 63.9375V57.75H111.875V63.9375C111.875 64.1109 111.94 64.2781 112.057 64.4056C112.175 64.5331 112.336 64.6115 112.509 64.625L111.188 66.275Z" fill="#00A0B6"/>
<path d="M80.1815 63.6398C80.1255 63.5232 80.0377 63.4248 79.9283 63.3558C79.8188 63.2869 79.6921 63.2502 79.5628 63.25H78.8753V57.0625C78.8753 56.8802 78.8028 56.7053 78.6739 56.5764C78.545 56.4474 78.3701 56.375 78.1878 56.375H75.4378C75.2554 56.375 75.0806 56.4474 74.9516 56.5764C74.8227 56.7053 74.7503 56.8802 74.7503 57.0625V63.25H74.0628C73.9332 63.25 73.8063 63.2865 73.6966 63.3554C73.5869 63.4244 73.499 63.5229 73.4429 63.6397C73.3867 63.7564 73.3647 63.8867 73.3794 64.0154C73.3941 64.1441 73.4449 64.2661 73.5258 64.3672L76.2758 67.8047C76.3402 67.8852 76.4219 67.9503 76.5149 67.9949C76.6078 68.0396 76.7096 68.0628 76.8128 68.0628C76.9159 68.0628 77.0177 68.0396 77.1106 67.9949C77.2036 67.9503 77.2853 67.8852 77.3497 67.8047L80.0997 64.3672C80.1805 64.266 80.231 64.144 80.2454 64.0153C80.2599 63.8866 80.2378 63.7565 80.1815 63.6398ZM76.8128 66.275L75.4914 64.625C75.6643 64.6115 75.8257 64.5331 75.9432 64.4056C76.0608 64.2781 76.1258 64.1109 76.1253 63.9375V57.75H77.5003V63.9375C77.4997 64.1109 77.5648 64.2781 77.6823 64.4056C77.7999 64.5331 77.9612 64.6115 78.1341 64.625L76.8128 66.275Z" fill="#00A0B6"/>
<path d="M94 56.375C93.5921 56.375 93.1933 56.496 92.8541 56.7226C92.515 56.9492 92.2506 57.2713 92.0945 57.6482C91.9384 58.0251 91.8975 58.4398 91.9771 58.8399C92.0567 59.24 92.2531 59.6075 92.5416 59.8959C92.83 60.1844 93.1975 60.3808 93.5976 60.4604C93.9977 60.54 94.4124 60.4991 94.7893 60.343C95.1662 60.1869 95.4883 59.9225 95.7149 59.5834C95.9415 59.2442 96.0625 58.8454 96.0625 58.4375C96.0625 57.8905 95.8452 57.3659 95.4584 56.9791C95.0716 56.5923 94.547 56.375 94 56.375ZM94 59.125C93.864 59.125 93.7311 59.0847 93.618 59.0091C93.505 58.9336 93.4169 58.8262 93.3648 58.7006C93.3128 58.575 93.2992 58.4367 93.3257 58.3034C93.3522 58.17 93.4177 58.0475 93.5139 57.9514C93.61 57.8552 93.7325 57.7897 93.8659 57.7632C93.9992 57.7367 94.1375 57.7503 94.2631 57.8023C94.3887 57.8544 94.4961 57.9425 94.5716 58.0555C94.6472 58.1686 94.6875 58.3015 94.6875 58.4375C94.6875 58.6198 94.6151 58.7947 94.4861 58.9236C94.3572 59.0526 94.1823 59.125 94 59.125Z" fill="#00A0B6"/>
<path d="M79.7133 49.9297C79.7777 50.0102 79.8594 50.0753 79.9524 50.1199C80.0453 50.1646 80.1471 50.1878 80.2503 50.1878C80.3534 50.1878 80.4552 50.1646 80.5481 50.1199C80.6411 50.0753 80.7228 50.0102 80.7872 49.9297L83.5372 46.4922C83.6182 46.3911 83.6689 46.2691 83.6836 46.1404C83.6983 46.0117 83.6763 45.8814 83.6202 45.7647C83.564 45.6479 83.4761 45.5494 83.3664 45.4804C83.2567 45.4115 83.1298 45.375 83.0003 45.375H82.3128V39.1875C82.3128 39.0052 82.2403 38.8303 82.1114 38.7014C81.9825 38.5724 81.8076 38.5 81.6253 38.5H78.8753C78.6929 38.5 78.5181 38.5724 78.3891 38.7014C78.2602 38.8303 78.1878 39.0052 78.1878 39.1875V45.375H77.5003C77.3707 45.375 77.2438 45.4115 77.1341 45.4804C77.0244 45.5494 76.9365 45.6479 76.8804 45.7647C76.8242 45.8814 76.8022 46.0117 76.8169 46.1404C76.8316 46.2691 76.8824 46.3911 76.9633 46.4922L79.7133 49.9297ZM79.5628 46.0625V39.875H80.9378V46.0625C80.9372 46.2359 81.0023 46.4031 81.1198 46.5306C81.2374 46.6581 81.3987 46.7365 81.5716 46.75L80.2503 48.4L78.9289 46.75C79.1018 46.7365 79.2632 46.6581 79.3807 46.5306C79.4983 46.4031 79.5633 46.2359 79.5628 46.0625Z" fill="#00A0B6"/>
<path d="M107.213 49.9297C107.278 50.0102 107.359 50.0753 107.452 50.1199C107.545 50.1646 107.647 50.1878 107.75 50.1878C107.853 50.1878 107.955 50.1646 108.048 50.1199C108.141 50.0753 108.223 50.0102 108.287 49.9297L111.037 46.4922C111.118 46.3911 111.169 46.2691 111.184 46.1404C111.198 46.0117 111.176 45.8814 111.12 45.7647C111.064 45.6479 110.976 45.5494 110.866 45.4804C110.757 45.4115 110.63 45.375 110.5 45.375H109.813V39.1875C109.813 39.0052 109.74 38.8303 109.611 38.7014C109.482 38.5724 109.308 38.5 109.125 38.5H106.375C106.193 38.5 106.018 38.5724 105.889 38.7014C105.76 38.8303 105.688 39.0052 105.688 39.1875V45.375H105C104.871 45.375 104.744 45.4115 104.634 45.4804C104.524 45.5494 104.436 45.6479 104.38 45.7647C104.324 45.8814 104.302 46.0117 104.317 46.1404C104.332 46.2691 104.382 46.3911 104.463 46.4922L107.213 49.9297ZM107.063 46.0625V39.875H108.438V46.0625C108.437 46.2359 108.502 46.4031 108.62 46.5306C108.737 46.6581 108.899 46.7365 109.072 46.75L107.75 48.4L106.429 46.75C106.602 46.7365 106.763 46.6581 106.881 46.5306C106.998 46.4031 107.063 46.2359 107.063 46.0625Z" fill="#00A0B6"/>
<path d="M257.516 74.625H272.281V73.25H257.516C257.329 73.2498 257.15 73.1773 257.019 73.0484C256.887 72.9195 256.813 72.7448 256.812 72.5625V41.625C256.813 41.4427 256.887 41.268 257.019 41.1391C257.15 41.0102 257.329 40.9377 257.516 40.9375H268.062V39.5625H257.516C256.956 39.5631 256.42 39.7806 256.025 40.1673C255.629 40.5539 255.407 41.0782 255.406 41.625V72.5625C255.407 73.1093 255.629 73.6336 256.025 74.0202C256.42 74.4069 256.956 74.6244 257.516 74.625Z" fill="#00A0B6"/>
<path d="M281.422 47.125H282.828V52.625H281.422V47.125Z" fill="#00A0B6"/>
<path d="M265.953 43.6875H259.625C259.439 43.6875 259.26 43.7599 259.128 43.8889C258.996 44.0178 258.922 44.1927 258.922 44.375V48.5C258.922 48.6823 258.996 48.8572 259.128 48.9861C259.26 49.1151 259.439 49.1875 259.625 49.1875H265.953C266.14 49.1875 266.318 49.1151 266.45 48.9861C266.582 48.8572 266.656 48.6823 266.656 48.5V44.375C266.656 44.1927 266.582 44.0178 266.45 43.8889C266.318 43.7599 266.14 43.6875 265.953 43.6875ZM265.25 47.8125H260.328V45.0625H265.25V47.8125Z" fill="#00A0B6"/>
<path d="M264.547 51.25H268.062V52.625H264.547V51.25Z" fill="#00A0B6"/>
<path d="M269.469 51.25H278.609V52.625H269.469V51.25Z" fill="#00A0B6"/>
<path d="M263.141 54.6875H272.984V56.0625H263.141V54.6875Z" fill="#00A0B6"/>
<path d="M259.625 54.6875H261.734V56.0625H259.625V54.6875Z" fill="#00A0B6"/>
<path d="M274.391 54.6875H278.609V56.0625H274.391V54.6875Z" fill="#00A0B6"/>
<path d="M267.359 58.125H274.391V59.5H267.359V58.125Z" fill="#00A0B6"/>
<path d="M259.625 58.125H265.953V59.5H259.625V58.125Z" fill="#00A0B6"/>
<path d="M262.438 61.5625H272.281V62.9375H262.438V61.5625Z" fill="#00A0B6"/>
<path d="M259.625 61.5625H261.031V62.9375H259.625V61.5625Z" fill="#00A0B6"/>
<path d="M267.359 65H272.281V66.375H267.359V65Z" fill="#00A0B6"/>
<path d="M259.625 65H265.953V66.375H259.625V65Z" fill="#00A0B6"/>
<path d="M265.25 68.4375H269.469V69.8125H265.25V68.4375Z" fill="#00A0B6"/>
<path d="M259.625 68.4375H263.844V69.8125H259.625V68.4375Z" fill="#00A0B6"/>
<path d="M276.5 33.375C275.109 33.375 273.75 33.7782 272.594 34.5336C271.437 35.2891 270.536 36.3628 270.004 37.6191C269.472 38.8753 269.333 40.2576 269.604 41.5912C269.875 42.9249 270.545 44.1499 271.528 45.1114C272.511 46.0728 273.764 46.7276 275.128 46.9929C276.492 47.2582 277.906 47.122 279.191 46.6017C280.476 46.0813 281.574 45.2001 282.346 44.0695C283.119 42.939 283.531 41.6097 283.531 40.25C283.529 38.4273 282.788 36.6798 281.47 35.3909C280.151 34.102 278.364 33.3771 276.5 33.375ZM276.5 45.75C275.387 45.75 274.3 45.4274 273.375 44.8231C272.45 44.2187 271.729 43.3598 271.303 42.3548C270.877 41.3498 270.766 40.2439 270.983 39.177C271.2 38.1101 271.736 37.1301 272.523 36.3609C273.309 35.5917 274.311 35.0679 275.403 34.8557C276.494 34.6435 277.625 34.7524 278.653 35.1687C279.68 35.5849 280.559 36.2899 281.177 37.1944C281.795 38.0988 282.125 39.1622 282.125 40.25C282.123 41.7082 281.53 43.1062 280.476 44.1373C279.421 45.1684 277.991 45.7484 276.5 45.75Z" fill="#00A0B6"/>
<path d="M278.816 37.0137L276.501 39.2775L274.186 37.0137L273.191 37.986L275.507 40.2498L273.191 42.5137L274.186 43.486L276.501 41.2221L278.816 43.486L279.811 42.5137L277.495 40.2498L279.811 37.986L278.816 37.0137Z" fill="#00A0B6"/>
<path d="M276.5 65H277.906V66.375H276.5V65Z" fill="#00A0B6"/>
<path d="M282.125 59.5H283.531V60.875H282.125V59.5Z" fill="#00A0B6"/>
<path d="M284.938 59.5H286.344V60.875H284.938V59.5Z" fill="#00A0B6"/>
<path d="M276.5 67.75H277.906V69.125H276.5V67.75Z" fill="#00A0B6"/>
<path d="M276.5 70.5H277.906V71.875H276.5V70.5Z" fill="#00A0B6"/>
<path d="M287.75 59.5H289.156V60.875H287.75V59.5Z" fill="#00A0B6"/>
<path d="M282.125 62.25H283.531V63.625H282.125V62.25Z" fill="#00A0B6"/>
<path d="M284.938 62.25H286.344V63.625H284.938V62.25Z" fill="#00A0B6"/>
<path d="M287.75 62.25H289.156V63.625H287.75V62.25Z" fill="#00A0B6"/>
<path d="M282.125 65H283.531V66.375H282.125V65Z" fill="#00A0B6"/>
<path d="M284.938 65H286.344V66.375H284.938V65Z" fill="#00A0B6"/>
<path d="M287.75 65H289.156V66.375H287.75V65Z" fill="#00A0B6"/>
<path d="M282.125 67.75H283.531V69.125H282.125V67.75Z" fill="#00A0B6"/>
<path d="M284.938 67.75H286.344V69.125H284.938V67.75Z" fill="#00A0B6"/>
<path d="M287.75 67.75H289.156V69.125H287.75V67.75Z" fill="#00A0B6"/>
<path d="M282.125 70.5H283.531V71.875H282.125V70.5Z" fill="#00A0B6"/>
<path d="M287.75 70.5H289.156V71.875H287.75V70.5Z" fill="#00A0B6"/>
<path d="M293.375 65H294.781V66.375H293.375V65Z" fill="#00A0B6"/>
<path d="M293.375 67.75H294.781V69.125H293.375V67.75Z" fill="#00A0B6"/>
<path d="M293.375 70.5H294.781V71.875H293.375V70.5Z" fill="#00A0B6"/>
<path d="M297.453 62.525L295.344 59.775C295.278 59.6896 295.193 59.6203 295.096 59.5726C294.998 59.5248 294.89 59.5 294.781 59.5H291.969V57.4375C291.969 57.2888 291.919 57.1441 291.828 57.0255L291.828 57.025L289.719 54.275C289.653 54.1896 289.568 54.1203 289.471 54.0726C289.373 54.0248 289.265 54 289.156 54H282.125C282.016 54 281.908 54.0248 281.811 54.0726C281.713 54.1203 281.628 54.1896 281.563 54.275L279.453 57.025L279.454 57.0255C279.362 57.1441 279.312 57.2888 279.312 57.4375V59.5H276.5C276.391 59.5 276.283 59.5248 276.186 59.5726C276.088 59.6203 276.003 59.6896 275.938 59.775L273.828 62.525L273.829 62.5255C273.737 62.6441 273.687 62.7888 273.688 62.9375V73.9375C273.688 74.1198 273.762 74.2947 273.893 74.4236C274.025 74.5526 274.204 74.625 274.391 74.625H296.891C297.077 74.625 297.256 74.5526 297.388 74.4236C297.52 74.2947 297.594 74.1198 297.594 73.9375V62.9375C297.594 62.7888 297.544 62.6441 297.453 62.5255L297.453 62.525ZM294.43 60.875L295.484 62.25H291.969V60.875H294.43ZM282.477 55.375H288.805L289.859 56.75H281.422L282.477 55.375ZM276.852 60.875H279.312V62.25H275.797L276.852 60.875ZM275.094 63.625H279.312V73.25H275.094V63.625ZM280.719 58.125H290.562V73.25H286.344V70.5H284.938V73.25H280.719V58.125ZM296.188 73.25H291.969V63.625H296.188V73.25Z" fill="#00A0B6"/>
<path d="M111.641 174.375H75.3594C74.8248 174.375 74.3121 174.592 73.9341 174.979C73.5561 175.366 73.3438 175.89 73.3438 176.438V209.438C73.3438 209.985 73.5561 210.509 73.9341 210.896C74.3121 211.283 74.8248 211.5 75.3594 211.5H85.2937L87.7978 214.062C87.9238 214.191 88.0947 214.264 88.2728 214.264C88.451 214.264 88.6218 214.191 88.7478 214.062L90.531 212.238C90.6224 212.278 90.7157 212.318 90.8125 212.357V214.938C90.8125 215.12 90.8833 215.295 91.0093 215.424C91.1353 215.553 91.3062 215.625 91.4844 215.625H95.5156C95.6938 215.625 95.8647 215.553 95.9907 215.424C96.1167 215.295 96.1875 215.12 96.1875 214.938V212.357C96.2843 212.318 96.3776 212.278 96.469 212.238L98.2522 214.062C98.3805 214.187 98.5505 214.256 98.7272 214.256C98.9039 214.256 99.0738 214.187 99.2022 214.062L101.706 211.5H111.641C112.175 211.5 112.688 211.283 113.066 210.896C113.444 210.509 113.656 209.985 113.656 209.438V176.438C113.656 175.89 113.444 175.366 113.066 174.979C112.688 174.592 112.175 174.375 111.641 174.375ZM98.7272 212.604L97.0791 210.918C96.9763 210.812 96.8429 210.744 96.699 210.723C96.5551 210.702 96.4084 210.729 96.2809 210.801C95.9709 210.971 95.6456 211.111 95.3094 211.217C95.1741 211.261 95.0561 211.349 94.9724 211.466C94.8888 211.584 94.8437 211.726 94.8438 211.871V214.25H92.1562V211.871C92.1563 211.726 92.1112 211.584 92.0276 211.466C91.9439 211.349 91.8259 211.261 91.6906 211.217C91.3544 211.111 91.0291 210.971 90.7191 210.801C90.5916 210.729 90.4449 210.702 90.301 210.723C90.1571 210.744 90.0237 210.812 89.9209 210.918L88.2728 212.604L86.3781 210.661L88.0256 208.975C88.1282 208.87 88.1949 208.733 88.2155 208.586C88.2361 208.439 88.2095 208.289 88.1398 208.159C87.9737 207.841 87.8376 207.508 87.7333 207.165C87.6896 207.025 87.6037 206.904 87.4881 206.818C87.3725 206.733 87.2331 206.687 87.0903 206.688H84.7656V203.938H87.0903C87.2326 203.937 87.3711 203.891 87.4861 203.806C87.601 203.72 87.6864 203.599 87.7299 203.46C87.8342 203.117 87.9703 202.784 88.1364 202.466C88.2061 202.336 88.2327 202.186 88.2121 202.039C88.1915 201.892 88.1249 201.755 88.0222 201.65L86.3781 199.964L88.2762 198.021L89.9243 199.707C90.0271 199.813 90.1604 199.881 90.3043 199.902C90.4483 199.923 90.595 199.896 90.7225 199.824C91.0324 199.654 91.3578 199.514 91.694 199.408C91.8287 199.363 91.9459 199.275 92.0289 199.158C92.112 199.04 92.1565 198.899 92.1562 198.754V196.375H94.8438V198.754C94.8437 198.899 94.8888 199.041 94.9724 199.159C95.0561 199.276 95.1741 199.364 95.3094 199.408C95.6456 199.514 95.9709 199.654 96.2809 199.824C96.4084 199.896 96.5551 199.923 96.699 199.902C96.8429 199.881 96.9763 199.813 97.0791 199.707L98.7272 198.021L100.625 199.964L98.9778 201.65C98.8751 201.755 98.8085 201.892 98.7879 202.039C98.7673 202.186 98.7939 202.336 98.8636 202.466C99.0297 202.784 99.1658 203.117 99.2701 203.46C99.3136 203.599 99.399 203.72 99.5139 203.806C99.6289 203.891 99.7674 203.937 99.9097 203.938H102.234V206.688H99.9097C99.7674 206.688 99.6289 206.734 99.5139 206.819C99.399 206.905 99.3136 207.026 99.2701 207.165C99.1658 207.508 99.0297 207.841 98.8636 208.159C98.7939 208.289 98.7673 208.439 98.7879 208.586C98.8085 208.733 98.8751 208.87 98.9778 208.975L100.625 210.661L98.7272 212.604ZM112.312 209.438C112.312 209.62 112.242 209.795 112.116 209.924C111.99 210.053 111.819 210.125 111.641 210.125H102.002L100.268 208.35C100.308 208.257 100.346 208.161 100.385 208.062H102.906C103.084 208.062 103.255 207.99 103.381 207.861C103.507 207.732 103.578 207.557 103.578 207.375V203.25C103.578 203.068 103.507 202.893 103.381 202.764C103.255 202.635 103.084 202.562 102.906 202.562H100.385C100.346 202.463 100.308 202.368 100.268 202.274L102.051 200.45C102.177 200.321 102.248 200.146 102.248 199.964C102.248 199.781 102.177 199.607 102.051 199.478L99.2022 196.563C99.0762 196.434 98.9053 196.361 98.7272 196.361C98.549 196.361 98.3782 196.434 98.2522 196.563L96.469 198.387C96.3776 198.347 96.2843 198.307 96.1875 198.268V195.688C96.1875 195.505 96.1167 195.33 95.9907 195.201C95.8647 195.072 95.6938 195 95.5156 195H91.4844C91.3062 195 91.1353 195.072 91.0093 195.201C90.8833 195.33 90.8125 195.505 90.8125 195.688V198.268C90.7157 198.307 90.6224 198.347 90.531 198.387L88.7478 196.563C88.6195 196.438 88.4495 196.369 88.2728 196.369C88.0961 196.369 87.9262 196.438 87.7978 196.563L84.949 199.478C84.8231 199.607 84.7523 199.781 84.7523 199.964C84.7523 200.146 84.8231 200.321 84.949 200.45L86.7322 202.274C86.6919 202.368 86.6536 202.463 86.6153 202.562H84.0938C83.9156 202.562 83.7447 202.635 83.6187 202.764C83.4927 202.893 83.4219 203.068 83.4219 203.25V207.375C83.4219 207.557 83.4927 207.732 83.6187 207.861C83.7447 207.99 83.9156 208.062 84.0938 208.062H86.6153C86.6536 208.161 86.6919 208.257 86.7322 208.35L84.9981 210.125H75.3594C75.1812 210.125 75.0103 210.053 74.8843 209.924C74.7583 209.795 74.6875 209.62 74.6875 209.438V182.625H112.312V209.438ZM74.6875 181.25V176.438C74.6875 176.255 74.7583 176.08 74.8843 175.951C75.0103 175.822 75.1812 175.75 75.3594 175.75H111.641C111.819 175.75 111.99 175.822 112.116 175.951C112.242 176.08 112.312 176.255 112.312 176.438V181.25H74.6875Z" fill="#00A0B6"/>
<path d="M108.953 176.438H90.1406C89.606 176.438 89.0934 176.655 88.7154 177.042C88.3374 177.428 88.125 177.953 88.125 178.5C88.125 179.047 88.3374 179.572 88.7154 179.958C89.0934 180.345 89.606 180.562 90.1406 180.562H108.953C109.488 180.562 110 180.345 110.378 179.958C110.756 179.572 110.969 179.047 110.969 178.5C110.969 177.953 110.756 177.428 110.378 177.042C110 176.655 109.488 176.438 108.953 176.438ZM108.953 179.188H90.1406C89.9624 179.188 89.7915 179.115 89.6655 178.986C89.5395 178.857 89.4688 178.682 89.4688 178.5C89.4688 178.318 89.5395 178.143 89.6655 178.014C89.7915 177.885 89.9624 177.812 90.1406 177.812H108.953C109.131 177.812 109.302 177.885 109.428 178.014C109.554 178.143 109.625 178.318 109.625 178.5C109.625 178.682 109.554 178.857 109.428 178.986C109.302 179.115 109.131 179.188 108.953 179.188Z" fill="#00A0B6"/>
<path d="M77.375 179.875C78.1171 179.875 78.7188 179.259 78.7188 178.5C78.7188 177.741 78.1171 177.125 77.375 177.125C76.6329 177.125 76.0312 177.741 76.0312 178.5C76.0312 179.259 76.6329 179.875 77.375 179.875Z" fill="#00A0B6"/>
<path d="M81.4062 179.875C82.1484 179.875 82.75 179.259 82.75 178.5C82.75 177.741 82.1484 177.125 81.4062 177.125C80.6641 177.125 80.0625 177.741 80.0625 178.5C80.0625 179.259 80.6641 179.875 81.4062 179.875Z" fill="#00A0B6"/>
<path d="M85.4375 179.875C86.1796 179.875 86.7812 179.259 86.7812 178.5C86.7812 177.741 86.1796 177.125 85.4375 177.125C84.6954 177.125 84.0938 177.741 84.0938 178.5C84.0938 179.259 84.6954 179.875 85.4375 179.875Z" fill="#00A0B6"/>
<path d="M93.5 201.188C92.7027 201.188 91.9233 201.429 91.2604 201.883C90.5974 202.336 90.0807 202.98 89.7756 203.734C89.4705 204.488 89.3907 205.317 89.5462 206.117C89.7018 206.917 90.0857 207.652 90.6495 208.229C91.2133 208.806 91.9316 209.199 92.7135 209.358C93.4955 209.517 94.3061 209.436 95.0427 209.124C95.7793 208.811 96.4089 208.283 96.8519 207.604C97.2948 206.926 97.5312 206.128 97.5312 205.312C97.5302 204.219 97.1051 203.17 96.3493 202.397C95.5936 201.624 94.5688 201.189 93.5 201.188ZM93.5 208.062C92.9685 208.062 92.4489 207.901 92.0069 207.599C91.5649 207.297 91.2205 206.867 91.0171 206.365C90.8137 205.862 90.7604 205.309 90.8641 204.776C90.9678 204.243 91.2238 203.753 91.5997 203.368C91.9755 202.983 92.4544 202.721 92.9757 202.615C93.497 202.509 94.0374 202.564 94.5285 202.772C95.0195 202.98 95.4393 203.332 95.7346 203.785C96.0299 204.237 96.1875 204.769 96.1875 205.312C96.1875 206.042 95.9044 206.741 95.4003 207.257C94.8963 207.773 94.2128 208.062 93.5 208.062Z" fill="#00A0B6"/>
<path d="M81.4062 192.938H97.2827C97.7346 192.939 98.1817 193.033 98.5973 193.214C99.0129 193.396 99.3884 193.661 99.7014 193.995C100.304 194.638 101.05 195.121 101.876 195.403C102.701 195.685 103.582 195.758 104.441 195.616C105.3 195.473 106.112 195.119 106.808 194.584C107.504 194.049 108.063 193.349 108.436 192.544C108.484 192.439 108.506 192.323 108.499 192.207C108.492 192.091 108.456 191.979 108.395 191.881C108.334 191.783 108.249 191.703 108.15 191.647C108.05 191.591 107.938 191.563 107.824 191.563H103.935L103.041 190.209L103.94 188.813H107.824C107.938 188.813 108.049 188.784 108.148 188.728C108.248 188.672 108.332 188.592 108.392 188.494C108.453 188.396 108.488 188.284 108.495 188.168C108.502 188.053 108.481 187.937 108.432 187.832C108.059 187.027 107.501 186.328 106.805 185.793C106.109 185.258 105.297 184.903 104.437 184.761C103.578 184.618 102.698 184.691 101.872 184.973C101.047 185.256 100.301 185.739 99.698 186.382C99.3855 186.715 99.0105 186.98 98.5955 187.161C98.1805 187.343 97.734 187.437 97.2827 187.438H81.4062C80.6935 187.438 80.0099 187.728 79.5059 188.244C79.0019 188.759 78.7188 189.459 78.7188 190.188C78.7188 190.918 79.0019 191.617 79.5059 192.133C80.0099 192.649 80.6935 192.938 81.4062 192.938ZM81.4062 188.813H97.2827C97.9156 188.812 98.5417 188.68 99.1236 188.426C99.7056 188.171 100.231 187.799 100.67 187.332C101.054 186.922 101.518 186.598 102.031 186.379C102.544 186.161 103.095 186.054 103.651 186.064C104.206 186.074 104.754 186.201 105.259 186.438C105.764 186.674 106.216 187.015 106.587 187.438H103.578C103.467 187.438 103.357 187.467 103.259 187.521C103.162 187.575 103.078 187.653 103.017 187.748L101.673 189.836C101.6 189.949 101.562 190.082 101.563 190.217C101.563 190.353 101.603 190.485 101.677 190.598L103.021 192.636C103.083 192.729 103.166 192.805 103.263 192.858C103.36 192.911 103.468 192.938 103.578 192.938H106.587C106.216 193.362 105.764 193.702 105.259 193.939C104.754 194.175 104.206 194.303 103.651 194.313C103.095 194.323 102.544 194.215 102.031 193.997C101.518 193.779 101.054 193.455 100.67 193.045C100.231 192.578 99.7056 192.205 99.1236 191.951C98.5417 191.696 97.9156 191.564 97.2827 191.563H81.4062C81.0499 191.563 80.7081 191.418 80.4561 191.161C80.2041 190.903 80.0625 190.553 80.0625 190.188C80.0625 189.824 80.2041 189.474 80.4561 189.216C80.7081 188.958 81.0499 188.813 81.4062 188.813Z" fill="#00A0B6"/>
<path d="M82.0781 190.875H82.75C82.9282 190.875 83.0991 190.803 83.2251 190.674C83.3511 190.545 83.4219 190.37 83.4219 190.188C83.4219 190.005 83.3511 189.83 83.2251 189.701C83.0991 189.572 82.9282 189.5 82.75 189.5H82.0781C81.8999 189.5 81.729 189.572 81.603 189.701C81.477 189.83 81.4062 190.005 81.4062 190.188C81.4062 190.37 81.477 190.545 81.603 190.674C81.729 190.803 81.8999 190.875 82.0781 190.875Z" fill="#00A0B6"/>
<path d="M84.7656 190.875H94.1719C94.3501 190.875 94.521 190.803 94.647 190.674C94.773 190.545 94.8438 190.37 94.8438 190.188C94.8438 190.005 94.773 189.83 94.647 189.701C94.521 189.572 94.3501 189.5 94.1719 189.5H84.7656C84.5874 189.5 84.4165 189.572 84.2905 189.701C84.1645 189.83 84.0938 190.005 84.0938 190.188C84.0938 190.37 84.1645 190.545 84.2905 190.674C84.4165 190.803 84.5874 190.875 84.7656 190.875Z" fill="#00A0B6"/>
<path d="M96.1875 190.875H96.8594C97.0376 190.875 97.2085 190.803 97.3345 190.674C97.4605 190.545 97.5312 190.37 97.5312 190.188C97.5312 190.005 97.4605 189.83 97.3345 189.701C97.2085 189.572 97.0376 189.5 96.8594 189.5H96.1875C96.0093 189.5 95.8384 189.572 95.7124 189.701C95.5864 189.83 95.5156 190.005 95.5156 190.188C95.5156 190.37 95.5864 190.545 95.7124 190.674C95.8384 190.803 96.0093 190.875 96.1875 190.875Z" fill="#00A0B6"/>
<rect x="256.75" y="174.358" width="16.1994" height="16.1994" rx="3.25" stroke="#00A0B6" stroke-width="1.5"/>
<rect x="256.75" y="194.74" width="16.1994" height="16.1994" rx="3.25" stroke="#00A0B6" stroke-width="1.5"/>
<rect x="261.039" y="199.03" width="7.61789" height="7.61789" rx="1.25" stroke="#00A0B6" stroke-width="1.5"/>
<rect x="261.039" y="178.65" width="7.61789" height="7.61789" rx="1.25" stroke="#00A0B6" stroke-width="1.5"/>
<rect x="284.076" y="178.28" width="7.61789" height="7.61789" rx="1.25" transform="rotate(14.8415 284.076 178.28)" stroke="#00A0B6" stroke-width="1.5"/>
<rect x="281.957" y="199.03" width="7.61789" height="7.61789" rx="1.25" stroke="#00A0B6" stroke-width="1.5"/>
<rect x="281.159" y="172.925" width="16.1994" height="16.1994" rx="3.25" transform="rotate(15.7294 281.159 172.925)" stroke="#00A0B6" stroke-width="1.5"/>
<rect x="277.668" y="194.74" width="16.1994" height="16.1994" rx="3.25" stroke="#00A0B6" stroke-width="1.5"/>
<rect x="61" y="96" width="65" height="8" rx="4" fill="#CEDAEA"/>
<rect x="61" y="236" width="65" height="8" rx="4" fill="#CEDAEA"/>
<rect x="244" y="236" width="65" height="8" rx="4" fill="#CEDAEA"/>
<rect x="244" y="96" width="65" height="8" rx="4" fill="#CEDAEA"/>
<defs>
<filter id="filter0_d" x="182.5" y="139.5" width="188" height="149" filterUnits="userSpaceOnUse" color-interpolation-filters="sRGB">
<feFlood flood-opacity="0" result="BackgroundImageFix"/>
<feColorMatrix in="SourceAlpha" type="matrix" values="0 0 0 0 0 0 0 0 0 0 0 0 0 0 0 0 0 0 127 0"/>
<feOffset dy="5"/>
<feGaussianBlur stdDeviation="6"/>
<feColorMatrix type="matrix" values="0 0 0 0 0 0 0 0 0 0.351917 0 0 0 0 0.429167 0 0 0 0.08 0"/>
<feBlend mode="normal" in2="BackgroundImageFix" result="effect1_dropShadow"/>
<feBlend mode="normal" in="SourceGraphic" in2="effect1_dropShadow" result="shape"/>
</filter>
<filter id="filter1_d" x="183" y="0" width="187" height="148" filterUnits="userSpaceOnUse" color-interpolation-filters="sRGB">
<feFlood flood-opacity="0" result="BackgroundImageFix"/>
<feColorMatrix in="SourceAlpha" type="matrix" values="0 0 0 0 0 0 0 0 0 0 0 0 0 0 0 0 0 0 127 0"/>
<feOffset dy="5"/>
<feGaussianBlur stdDeviation="6"/>
<feColorMatrix type="matrix" values="0 0 0 0 0 0 0 0 0 0.351917 0 0 0 0 0.429167 0 0 0 0.08 0"/>
<feBlend mode="normal" in2="BackgroundImageFix" result="effect1_dropShadow"/>
<feBlend mode="normal" in="SourceGraphic" in2="effect1_dropShadow" result="shape"/>
</filter>
<filter id="filter2_d" x="0" y="0" width="187" height="148" filterUnits="userSpaceOnUse" color-interpolation-filters="sRGB">
<feFlood flood-opacity="0" result="BackgroundImageFix"/>
<feColorMatrix in="SourceAlpha" type="matrix" values="0 0 0 0 0 0 0 0 0 0 0 0 0 0 0 0 0 0 127 0"/>
<feOffset dy="5"/>
<feGaussianBlur stdDeviation="6"/>
<feColorMatrix type="matrix" values="0 0 0 0 0 0 0 0 0 0.351917 0 0 0 0 0.429167 0 0 0 0.08 0"/>
<feBlend mode="normal" in2="BackgroundImageFix" result="effect1_dropShadow"/>
<feBlend mode="normal" in="SourceGraphic" in2="effect1_dropShadow" result="shape"/>
</filter>
<filter id="filter3_d" x="0" y="140" width="187" height="148" filterUnits="userSpaceOnUse" color-interpolation-filters="sRGB">
<feFlood flood-opacity="0" result="BackgroundImageFix"/>
<feColorMatrix in="SourceAlpha" type="matrix" values="0 0 0 0 0 0 0 0 0 0 0 0 0 0 0 0 0 0 127 0"/>
<feOffset dy="5"/>
<feGaussianBlur stdDeviation="6"/>
<feColorMatrix type="matrix" values="0 0 0 0 0 0 0 0 0 0.351917 0 0 0 0 0.429167 0 0 0 0.08 0"/>
<feBlend mode="normal" in2="BackgroundImageFix" result="effect1_dropShadow"/>
<feBlend mode="normal" in="SourceGraphic" in2="effect1_dropShadow" result="shape"/>
</filter>
</defs>
</svg>
