<svg fill="none" height="281" viewBox="0 0 269 281" width="269" xmlns="http://www.w3.org/2000/svg" xmlns:xlink="http://www.w3.org/1999/xlink"><filter id="a" color-interpolation-filters="sRGB" filterUnits="userSpaceOnUse" height="281" width="269" x="0" y="0"><feFlood flood-opacity="0" result="BackgroundImageFix"/><feColorMatrix in="SourceAlpha" type="matrix" values="0 0 0 0 0 0 0 0 0 0 0 0 0 0 0 0 0 0 127 0"/><feOffset dy="5"/><feGaussianBlur stdDeviation="6"/><feColorMatrix type="matrix" values="0 0 0 0 0 0 0 0 0 0.351917 0 0 0 0 0.429167 0 0 0 0.08 0"/><feBlend in2="BackgroundImageFix" mode="normal" result="effect1_dropShadow"/><feBlend in="SourceGraphic" in2="effect1_dropShadow" mode="normal" result="shape"/></filter><g filter="url(#a)"><rect fill="#f9fcff" height="257" rx="15" width="245" x="12" y="7"/></g><path d="m82.4 52.144c-1.12 0-2.1013-.24-2.944-.72-.832-.48-1.472-1.1573-1.92-2.032-.448-.8853-.672-1.92-.672-3.104 0-1.1733.224-2.1973.672-3.072.448-.8853 1.088-1.5627 1.92-2.032.8427-.48 1.824-.72 2.944-.72.768 0 1.488.1227 2.16.368.6827.2347 1.248.5653 1.696.992l-.672 1.504c-.512-.416-1.024-.7147-1.536-.896-.5013-.192-1.04-.288-1.616-.288-1.0987 0-1.952.3573-2.56 1.072-.5973.7147-.896 1.7387-.896 3.072 0 1.344.2987 2.3787.896 3.104.5973.7147 1.4507 1.072 2.56 1.072.576 0 1.1147-.0907 1.616-.272.512-.192 1.024-.496 1.536-.912l.672 1.504c-.448.4267-1.0133.7627-1.696 1.008-.672.2347-1.392.352-2.16.352zm9.9931-8.416c.3094 0 .576.0427.8.128l-.016 1.824c-.3413-.1387-.6933-.208-1.056-.208-.6826 0-1.2053.1973-1.568.592-.352.3947-.528.9173-.528 1.568v4.368h-1.984v-5.792c0-.8533-.0426-1.616-.128-2.288h1.872l.16 1.424c.2027-.5227.5227-.9227.96-1.2.4374-.2773.9334-.416 1.488-.416zm8.8299 4.336h-5.5685c.0427.864.256 1.504.64 1.92.3947.4053.976.608 1.744.608.8853 0 1.7067-.288 2.4645-.864l.576 1.376c-.384.3093-.859.56-1.4245.752-.5547.1813-1.12.272-1.696.272-1.3227 0-2.3627-.3733-3.12-1.12s-1.136-1.7707-1.136-3.072c0-.8213.1653-1.552.496-2.192s.7947-1.136 1.392-1.488c.5973-.3627 1.2747-.544 2.032-.544 1.1093 0 1.984.3627 2.6245 1.088.65.7147.976 1.7013.976 2.96zm-3.5525-2.912c-.5333 0-.9707.16-1.312.48-.3307.3093-.544.7627-.64 1.36h3.76c-.064-.608-.2507-1.0667-.56-1.376-.2987-.3093-.7147-.464-1.248-.464zm12.9735-1.232v8.08h-1.968v-1.296c-.245.448-.597.8-1.056 1.056-.459.2453-.981.368-1.568.368-.704 0-1.328-.1707-1.872-.512s-.965-.8267-1.264-1.456-.448-1.36-.448-2.192.149-1.568.448-2.208c.309-.6507.736-1.152 1.28-1.504.544-.3627 1.163-.544 1.856-.544.587 0 1.109.128 1.568.384.459.2453.811.592 1.056 1.04v-1.216zm-4.048 6.64c.661 0 1.173-.2293 1.536-.688s.544-1.104.544-1.936c0-.8533-.181-1.5093-.544-1.968s-.88-.688-1.552-.688c-.661 0-1.179.24-1.552.72-.363.4693-.544 1.1253-.544 1.968 0 .832.181 1.472.544 1.92.373.448.896.672 1.568.672zm8.77-5.136v3.616c0 .9493.443 1.424 1.328 1.424.246 0 .512-.0427.8-.128v1.584c-.352.128-.778.192-1.28.192-.917 0-1.621-.256-2.112-.768-.49-.512-.736-1.248-.736-2.208v-3.712h-1.552v-1.504h1.552v-1.968l2-.672v2.64h2.144v1.504zm10.591 2.64h-5.568c.043.864.256 1.504.64 1.92.395.4053.976.608 1.744.608.885 0 1.707-.288 2.464-.864l.576 1.376c-.384.3093-.859.56-1.424.752-.555.1813-1.12.272-1.696.272-1.323 0-2.363-.3733-3.12-1.12s-1.136-1.7707-1.136-3.072c0-.8213.165-1.552.496-2.192s.795-1.136 1.392-1.488c.597-.3627 1.275-.544 2.032-.544 1.109 0 1.984.3627 2.624 1.088.651.7147.976 1.7013.976 2.96zm-3.552-2.912c-.533 0-.971.16-1.312.48-.331.3093-.544.7627-.64 1.36h3.76c-.064-.608-.251-1.0667-.56-1.376-.299-.3093-.715-.464-1.248-.464zm17.348 4.176h-5.568l-1.152 2.672h-2.08l5.152-11.392h1.68l5.168 11.392h-2.064zm-.688-1.6-2.096-4.88-2.096 4.88zm8.64 4.4c-.843 0-1.573-.1707-2.192-.512s-1.093-.8213-1.424-1.44c-.331-.6293-.496-1.3653-.496-2.208s.171-1.584.512-2.224c.352-.64.843-1.136 1.472-1.488.64-.3627 1.376-.544 2.208-.544.576 0 1.131.0907 1.664.272.544.1813.976.432 1.296.752l-.56 1.408c-.341-.2773-.704-.4853-1.088-.624-.384-.1493-.763-.224-1.136-.224-.725 0-1.291.2293-1.696.688-.405.448-.608 1.0987-.608 1.952s.197 1.504.592 1.952c.405.448.976.672 1.712.672.373 0 .752-.0747 1.136-.224s.747-.3627 1.088-.64l.56 1.408c-.341.32-.784.5707-1.328.752s-1.115.272-1.712.272zm8.047 0c-.843 0-1.573-.1707-2.192-.512s-1.093-.8213-1.424-1.44c-.331-.6293-.496-1.3653-.496-2.208s.171-1.584.512-2.224c.352-.64.843-1.136 1.472-1.488.64-.3627 1.376-.544 2.208-.544.576 0 1.131.0907 1.664.272.544.1813.976.432 1.296.752l-.56 1.408c-.341-.2773-.704-.4853-1.088-.624-.384-.1493-.763-.224-1.136-.224-.725 0-1.291.2293-1.696.688-.405.448-.608 1.0987-.608 1.952s.197 1.504.592 1.952c.405.448.976.672 1.712.672.373 0 .752-.0747 1.136-.224s.747-.3627 1.088-.64l.56 1.408c-.341.32-.784.5707-1.328.752s-1.115.272-1.712.272zm8.047 0c-.821 0-1.547-.1707-2.176-.512-.619-.3413-1.099-.8267-1.44-1.456-.331-.64-.496-1.3867-.496-2.24s.165-1.5947.496-2.224c.341-.64.821-1.1307 1.44-1.472.629-.3413 1.355-.512 2.176-.512.811 0 1.525.1707 2.144.512s1.093.832 1.424 1.472c.341.6293.512 1.3707.512 2.224s-.171 1.6-.512 2.24c-.331.6293-.805 1.1147-1.424 1.456s-1.333.512-2.144.512zm-.016-1.568c.683 0 1.2-.2187 1.552-.656.363-.448.544-1.1093.544-1.984 0-.864-.181-1.52-.544-1.968-.363-.4587-.875-.688-1.536-.688-.672 0-1.189.2293-1.552.688-.363.448-.544 1.104-.544 1.968 0 .8747.176 1.536.528 1.984.363.4373.88.656 1.552.656zm13.181-6.64v8.08h-1.952v-1.248c-.256.448-.598.7893-1.024 1.024-.427.2347-.918.352-1.472.352-1.974 0-2.96-1.1093-2.96-3.328v-4.88h1.984v4.896c0 .5867.117 1.0187.352 1.296.245.2773.618.416 1.12.416.586 0 1.056-.192 1.408-.576s.528-.896.528-1.536v-4.496zm6.795-.208c1.931 0 2.896 1.1093 2.896 3.328v4.96h-2v-4.864c0-.64-.123-1.104-.368-1.392-.245-.2987-.624-.448-1.136-.448-.608 0-1.099.1973-1.472.592-.373.384-.56.896-.56 1.536v4.576h-1.984v-5.792c0-.8533-.043-1.616-.128-2.288h1.872l.144 1.328c.277-.4907.651-.8693 1.12-1.136.48-.2667 1.019-.4 1.616-.4zm7.561 1.712v3.616c0 .9493.442 1.424 1.328 1.424.245 0 .512-.0427.8-.128v1.584c-.352.128-.779.192-1.28.192-.918 0-1.622-.256-2.112-.768-.491-.512-.736-1.248-.736-2.208v-3.712h-1.552v-1.504h1.552v-1.968l2-.672v2.64h2.144v1.504z" fill="#00769d"/><g fill="#fff" stroke="#dce7f1"><rect height="27" rx="13.5" width="200" x="34.5" y="75.5"/><rect height="27" rx="13.5" width="200" x="34.5" y="115.5"/><rect height="27" rx="13.5" width="200" x="34.5" y="155.5"/></g><rect fill="#00a0b6" height="27" rx="13.5" stroke="#00a0b6" width="200" x="34.5" y="209.5"/><rect fill="#ebeff3" height="6" rx="3" width="42" x="45" y="166"/><rect fill="#fff" height="6" rx="3" width="42" x="114" y="220"/><rect fill="#ebeff3" height="6" rx="3" width="19" x="45" y="86"/><rect fill="#ebeff3" height="6" rx="3" width="42" x="68" y="86"/><rect fill="#ebeff3" height="6" rx="3" width="52" x="45" y="126"/></svg>