<svg fill="none" height="193" viewBox="0 0 266 193" width="266" xmlns="http://www.w3.org/2000/svg" xmlns:xlink="http://www.w3.org/1999/xlink"><filter id="a" color-interpolation-filters="sRGB" filterUnits="userSpaceOnUse" height="20.1165" width="122.24" x="92.64" y="26.4749"><feFlood flood-opacity="0" result="BackgroundImageFix"/><feColorMatrix in="SourceAlpha" result="hardAlpha" type="matrix" values="0 0 0 0 0 0 0 0 0 0 0 0 0 0 0 0 0 0 127 0"/><feOffset dx="2" dy="2"/><feGaussianBlur stdDeviation="2"/><feColorMatrix type="matrix" values="0 0 0 0 0.0846528 0 0 0 0 0.150363 0 0 0 0 0.383333 0 0 0 0.25 0"/><feBlend in2="BackgroundImageFix" mode="normal" result="effect1_dropShadow_704_24347"/><feBlend in="SourceGraphic" in2="effect1_dropShadow_704_24347" mode="normal" result="shape"/></filter><filter id="b" color-interpolation-filters="sRGB" filterUnits="userSpaceOnUse" height="133.907" width="133.908" x="-.000122" y=".499268"><feFlood flood-opacity="0" result="BackgroundImageFix"/><feColorMatrix in="SourceAlpha" result="hardAlpha" type="matrix" values="0 0 0 0 0 0 0 0 0 0 0 0 0 0 0 0 0 0 127 0"/><feOffset dx="2" dy="10"/><feGaussianBlur stdDeviation="15"/><feColorMatrix type="matrix" values="0 0 0 0 0.330347 0 0 0 0 0.407862 0 0 0 0 0.558333 0 0 0 0.25 0"/><feBlend in2="BackgroundImageFix" mode="normal" result="effect1_dropShadow_704_24347"/><feBlend in="SourceGraphic" in2="effect1_dropShadow_704_24347" mode="normal" result="shape"/></filter><filter id="c" color-interpolation-filters="sRGB" filterUnits="userSpaceOnUse" height="36.5747" width="36.5747" x="40.0366" y="34.4807"><feFlood flood-opacity="0" result="BackgroundImageFix"/><feColorMatrix in="SourceAlpha" result="hardAlpha" type="matrix" values="0 0 0 0 0 0 0 0 0 0 0 0 0 0 0 0 0 0 127 0"/><feOffset dx="2" dy="2"/><feGaussianBlur stdDeviation="2"/><feColorMatrix type="matrix" values="0 0 0 0 0.0846528 0 0 0 0 0.150363 0 0 0 0 0.383333 0 0 0 0.25 0"/><feBlend in2="BackgroundImageFix" mode="normal" result="effect1_dropShadow_704_24347"/><feBlend in="SourceGraphic" in2="effect1_dropShadow_704_24347" mode="normal" result="shape"/></filter><filter id="d" color-interpolation-filters="sRGB" filterUnits="userSpaceOnUse" height="49.4692" width="49.4692" x="214.669" y="63.9661"><feFlood flood-opacity="0" result="BackgroundImageFix"/><feColorMatrix in="SourceAlpha" result="hardAlpha" type="matrix" values="0 0 0 0 0 0 0 0 0 0 0 0 0 0 0 0 0 0 127 0"/><feOffset dx="2" dy="2"/><feGaussianBlur stdDeviation="2"/><feColorMatrix type="matrix" values="0 0 0 0 0.0846528 0 0 0 0 0.150363 0 0 0 0 0.383333 0 0 0 0.25 0"/><feBlend in2="BackgroundImageFix" mode="normal" result="effect1_dropShadow_704_24347"/><feBlend in="SourceGraphic" in2="effect1_dropShadow_704_24347" mode="normal" result="shape"/></filter><filter id="e" color-interpolation-filters="sRGB" filterUnits="userSpaceOnUse" height="98.4312" width="98.4309" x="163.764" y="93.8921"><feFlood flood-opacity="0" result="BackgroundImageFix"/><feColorMatrix in="SourceAlpha" result="hardAlpha" type="matrix" values="0 0 0 0 0 0 0 0 0 0 0 0 0 0 0 0 0 0 127 0"/><feOffset dx="2" dy="8"/><feGaussianBlur stdDeviation="17.5"/><feColorMatrix type="matrix" values="0 0 0 0 0 0 0 0 0 0.351917 0 0 0 0 0.429167 0 0 0 0.15 0"/><feBlend in2="BackgroundImageFix" mode="normal" result="effect1_dropShadow_704_24347"/><feBlend in="SourceGraphic" in2="effect1_dropShadow_704_24347" mode="normal" result="shape"/></filter><filter id="f" color-interpolation-filters="sRGB" filterUnits="userSpaceOnUse" height="88.4312" width="88.4309" x="166.764" y="99.8921"><feFlood flood-opacity="0" result="BackgroundImageFix"/><feColorMatrix in="SourceAlpha" result="hardAlpha" type="matrix" values="0 0 0 0 0 0 0 0 0 0 0 0 0 0 0 0 0 0 127 0"/><feOffset dy="9"/><feGaussianBlur stdDeviation="15"/><feColorMatrix type="matrix" values="0 0 0 0 0.593438 0 0 0 0 0.707729 0 0 0 0 0.879167 0 0 0 0.25 0"/><feBlend in2="BackgroundImageFix" mode="normal" result="effect1_dropShadow_704_24347"/><feBlend in="SourceGraphic" in2="effect1_dropShadow_704_24347" mode="normal" result="shape"/></filter><linearGradient id="g"><stop offset="0" stop-color="#b0e7c6"/><stop offset="1" stop-color="#5dd1b3"/></linearGradient><linearGradient id="h" gradientUnits="userSpaceOnUse" x1="73.5181" x2="73.5181" xlink:href="#g" y1="53.4329" y2="82.0076"/><linearGradient id="i" gradientUnits="userSpaceOnUse" x1="56.324" x2="56.324" y1="36.4807" y2="65.0554"><stop offset="0" stop-color="#85beff"/><stop offset="1" stop-color="#5183bb"/></linearGradient><linearGradient id="j" gradientUnits="userSpaceOnUse" x1="237.404" x2="237.404" xlink:href="#g" y1="65.9661" y2="107.435"/><linearGradient id="k" gradientUnits="userSpaceOnUse" x1="14.2155" x2="14.2155" y1="6.94671" y2="28.4311"><stop offset="0" stop-color="#ffed49"/><stop offset="1" stop-color="#ffc369"/></linearGradient><path d="m263.289 164.063h-209.662c-1.6211 0-2.837.961-2.837 2.019 0 1.154 1.351 2.02 2.837 2.02h209.526c1.622 0 2.837-.962 2.837-2.02.135-1.058-1.215-2.019-2.701-2.019z" fill="#d7f1f9"/><path d="m222.932 10h-140.0876c-7.9051 0-14.255 6.35-14.255 14.255v96.027c0 7.905 6.3499 14.255 14.255 14.255h140.0876c7.905 0 14.255-6.35 14.255-14.255v-96.027c0-7.7754-6.35-14.255-14.255-14.255z" fill="#5183bb"/><path d="m82.3268 97.7329c-3.1102 0-5.702-2.5919-5.702-5.702l.3887-67.9058c0-3.1102 2.5919-5.702 5.702-5.702h140.4765c3.111 0 5.702 2.5918 5.702 5.702l-.388 68.0354c0 3.1101-2.592 5.702-5.702 5.702h-140.4772z" fill="#d7f1f9"/><path d="m68.6764 107.52v12.913c0 7.877 6.3453 14.204 14.2446 14.204h139.986c7.899 0 14.245-6.327 14.245-14.204v-12.913z" fill="#dcf3fa"/><path d="m177.723 134.637h-49.619v19.04h49.619z" fill="#bde6ef"/><path d="m177.723 134.637h-49.619v5.77h49.619z" fill="#a4d3dd"/><path d="m188.276 153.677h-70.854c-6.916 0-12.397 5.538-12.397 12.235v2.189h95.777v-2.189c0-6.826-5.611-12.235-12.526-12.235z" fill="#d9f2fa"/><path d="m158.683 121.944c0 3.511-2.706 6.346-6.058 6.346-3.351 0-6.058-2.835-6.058-6.346s2.707-6.347 6.058-6.347c3.352 0 6.058 2.971 6.058 6.347z" fill="#5183bb"/><g filter="url(#a)"><path d="m205.274 28.4749h-107.0278c-1.9319 0-3.6062 1.4989-3.6062 3.4975v5.1213c0 1.8737 1.5455 3.4975 3.6062 3.4975h107.0278c1.932 0 3.606-1.4989 3.606-3.4975v-5.1213c0-1.9986-1.674-3.4975-3.606-3.4975z" fill="#fff"/></g><path d="m160.699 75.7864h-64.6286c-.7802 0-1.4304.7017-1.4304 1.5438v2.1051c0 .8421.6502 1.5438 1.4304 1.5438h64.7586c1.3 0 2.47-1.1228 2.47-2.6665-.13-1.4035-1.17-2.5262-2.6-2.5262z" fill="#5183bb"/><path d="m138.213 85.0178h-42.1422c-.7804 0-1.4308.6833-1.4308 1.5032v2.1864c0 .8199.6504 1.5031 1.4308 1.5031h42.1422c.78 0 1.431-.6832 1.431-1.5031v-2.1864c0-.9566-.651-1.5032-1.431-1.5032z" fill="#fff"/><g fill="#5183bb"><path d="m117.315 37.0842c1.074 0 1.944-.8703 1.944-1.9439 0-1.0735-.87-1.9438-1.944-1.9438s-1.944.8703-1.944 1.9438c0 1.0736.87 1.9439 1.944 1.9439z"/><path d="m131.182 37.0842c1.073 0 1.944-.8703 1.944-1.9439 0-1.0735-.871-1.9438-1.944-1.9438-1.074 0-1.944.8703-1.944 1.9438 0 1.0736.87 1.9439 1.944 1.9439z"/><path d="m144.918 37.0842c1.074 0 1.944-.8703 1.944-1.9439 0-1.0735-.87-1.9438-1.944-1.9438-1.073 0-1.944.8703-1.944 1.9438 0 1.0736.871 1.9439 1.944 1.9439z"/><path d="m158.784 37.0842c1.074 0 1.944-.8703 1.944-1.9439 0-1.0735-.87-1.9438-1.944-1.9438-1.073 0-1.944.8703-1.944 1.9438 0 1.0736.871 1.9439 1.944 1.9439z"/><path d="m172.521 37.0842c1.073 0 1.944-.8703 1.944-1.9439 0-1.0735-.871-1.9438-1.944-1.9438-1.074 0-1.944.8703-1.944 1.9438 0 1.0736.87 1.9439 1.944 1.9439z"/><path d="m186.387 37.0842c1.073 0 1.943-.8703 1.943-1.9439 0-1.0735-.87-1.9438-1.943-1.9438-1.074 0-1.944.8703-1.944 1.9438 0 1.0736.87 1.9439 1.944 1.9439z"/></g><path d="m173.817 48.0994h-13.866c-2.462 0-4.406 1.9438-4.406 4.4061v13.8662c0 2.4622 1.944 4.4061 4.406 4.4061h13.866c2.462 0 4.406-1.9439 4.406-4.4061v-13.9958c0-2.3327-1.944-4.2765-4.406-4.2765z" fill="#fff"/><path d="m142.457 48.0994h-13.866c-2.463 0-4.406 1.9438-4.406 4.4061v13.8662c0 2.4622 1.943 4.4061 4.406 4.4061h13.866c2.462 0 4.406-1.9439 4.406-4.4061v-13.9958c0-2.3327-1.944-4.2765-4.406-4.2765z" fill="#5183bb"/><path d="m203.466 48.0918h-13.405c-2.381 0-4.26 1.9287-4.26 4.3718v13.7582c0 2.4431 1.879 4.3718 4.26 4.3718h13.405c2.38 0 4.26-1.9287 4.26-4.3718v-13.8868c0-2.3145-1.88-4.2432-4.26-4.2432z" fill="#fff"/><path d="m111.612 48.0994h-13.8658c-2.4622 0-4.4061 1.9438-4.4061 4.4061v13.8662c0 2.4622 1.9439 4.4061 4.4061 4.4061h13.8658c2.463 0 4.407-1.9439 4.407-4.4061v-13.9958c-.13-2.3327-2.074-4.2765-4.407-4.2765z" fill="#f7fbfd"/><g filter="url(#b)"><path clip-rule="evenodd" d="m95.972 77.5471c3.7547-5.7841 5.935-12.6844 5.935-20.094 0-20.4091-16.5443-36.9538-36.9533-36.9538s-36.9538 16.5447-36.9538 36.9538c0 20.409 16.5448 36.9537 36.9538 36.9537 6.9235 0 13.4024-1.904 18.9414-5.217l14.0154 3.3446z" fill="#fff" fill-rule="evenodd"/></g><path d="m59.4729 65.3429v8.7883c0 1.6185 1.3232 2.9308 2.9565 2.9308h13.3988l6.0985 4.9456v-4.9456h2.6797c1.6329 0 2.9569-1.3123 2.9569-2.9308v-17.7676c0-1.6185-1.324-2.9307-2.9569-2.9307h-13.8564z" fill="url(#h)"/><g filter="url(#c)"><path d="m56.3238 36.4807c-7.8904 0-14.2872 6.3968-14.2872 14.2872 0 3.1397 1.0135 6.0421 2.73 8.3998l-1.7612 3.8695 4.3587-1.1395v-.0018c2.4506 1.9758 5.5669 3.1595 8.9597 3.1595 7.8908 0 14.2875-6.3967 14.2875-14.2875 0-7.8904-6.3967-14.2872-14.2875-14.2872z" fill="url(#i)"/></g><path clip-rule="evenodd" d="m73.5413 60.1607.9805-.001 3.8856 10.2959-2.1227.8011-.9225-2.4443h-1.8201v.0006h-1.8141l-.9318 2.4463-2.1202-.8075 3.9189-10.2895.9461-.001zm.0008 3.8862v.0028l-.95 2.4945h.7302l.0003-.0006h1.1834l-.9529-2.5254z" fill="#fff" fill-rule="evenodd"/><path clip-rule="evenodd" d="m56.2648 49.1769h-1.6671c.1595 1.2629.727 2.3663 1.6671 3.2309.9402-.8646 1.5077-1.968 1.6672-3.2309h-1.6672v-.0001zm0-4.5559v-.0002h-1.1239v2.3082h-4.822v2.2479h2.0175c.1552 1.6851.8336 3.2203 1.9615 4.4423-.974.3867-2.0916.5926-3.2876.5926h-.8334v2.2478h.8334c1.9528 0 3.7665-.4524 5.2545-1.2935v-.0001.0001c1.4881.8411 3.3018 1.2935 5.2545 1.2935v-2.2479c-1.196 0-2.3135-.2058-3.2876-.5925 1.1279-1.222 1.8064-2.7572 1.9616-4.4424h2.0174v-2.2477h-4.8219v-2.3082h-1.124z" fill="#fff" fill-rule="evenodd"/><g filter="url(#d)"><path d="m237.404 107.435c11.451 0 20.734-9.283 20.734-20.7344 0-11.4513-9.283-20.7345-20.734-20.7345-11.452 0-20.735 9.2832-20.735 20.7345 0 11.4514 9.283 20.7344 20.735 20.7344z" fill="url(#j)"/></g><path d="m235.831 94.9094c-1.152-.0976-2.09-.2765-2.816-.5367-.71-.2764-1.239-.5041-1.586-.683l1.018-2.8053c.552.2765 1.207.5285 1.964.7562.773.2277 1.585.3415 2.437.3415.962 0 1.617-.1301 1.964-.3903.363-.2764.544-.6586.544-1.1465 0-.309-.071-.5692-.213-.7806-.141-.2277-.347-.431-.615-.6099-.268-.1788-.607-.3496-1.017-.5122-.41-.1789-.884-.3659-1.42-.5611-.521-.1951-1.033-.4065-1.538-.6342-.489-.244-.939-.5367-1.349-.8782-.394-.3415-.718-.7562-.97-1.2441-.237-.5041-.355-1.1059-.355-1.8052 0-.5366.071-1.0489.213-1.5368.158-.5041.394-.9595.71-1.366.315-.4066.726-.7481 1.23-1.0246.505-.2927 1.105-.5041 1.799-.6342v-2.6346h2.981v2.537c.821.0813 1.523.2033 2.106.3659.6.1626 1.073.3253 1.42.4879l-.734 2.9273c-.52-.2277-1.128-.4229-1.822-.5855-.678-.1626-1.396-.2439-2.153-.2439s-1.301.1301-1.633.3903c-.331.2602-.497.6017-.497 1.0245 0 .2602.048.4879.142.6831.111.1788.276.3415.497.4878.221.1464.489.2928.805.4391.331.1301.726.2765 1.183.4391.694.2602 1.333.5448 1.917.8538.599.309 1.112.6668 1.538 1.0733.441.3903.781.8538 1.017 1.3905.253.5367.379 1.1628.379 1.8783 0 .4879-.071.9758-.213 1.4637-.142.4716-.379.9107-.71 1.3172-.331.4066-.765.7562-1.301 1.049-.521.2927-1.168.5041-1.941.6342v2.9761h-2.981z" fill="#fff"/><g filter="url(#e)"><g filter="url(#f)"><rect fill="url(#k)" height="28.4311" rx="14.2155" transform="matrix(-1 0 0 1 225.195 120.892)" width="28.431"/></g></g><g fill="#fff"><rect height="3.01237" rx="1.50618" width="12.0495" x="204.797" y="128.534"/><rect height="3.01237" rx="1.50618" width="12.0495" x="204.797" y="133.555"/><rect height="3.01237" rx="1.50618" width="7.53092" x="204.797" y="138.575"/></g></svg>