<svg width="71" height="71" viewBox="0 0 71 71" fill="none" xmlns="http://www.w3.org/2000/svg">
<path d="M70.3206 32.3547L61.053 24.3704C60.8461 24.1919 60.582 24.0937 60.3088 24.0938H40.0627V22.9531H65.1564C65.4589 22.9531 65.7491 22.833 65.963 22.619C66.1769 22.4051 66.2971 22.115 66.2971 21.8125V5.84375C66.2971 5.54124 66.1769 5.25112 65.963 5.03721C65.7491 4.8233 65.4589 4.70312 65.1564 4.70312H40.0627V1.28125C40.0627 0.978737 39.9425 0.688615 39.7286 0.474706C39.5147 0.260798 39.2246 0.140625 38.9221 0.140625H32.0783C31.7758 0.140625 31.4857 0.260798 31.2718 0.474706C31.0579 0.688615 30.9377 0.978737 30.9377 1.28125V4.70312H12.8303C12.557 4.7031 12.2929 4.80127 12.086 4.97973L2.81842 12.9641C2.69407 13.0711 2.59428 13.2037 2.52588 13.3528C2.45747 13.5019 2.42206 13.6641 2.42206 13.8281C2.42206 13.9922 2.45747 14.1543 2.52588 14.3034C2.59428 14.4525 2.69407 14.5851 2.81842 14.6921L12.086 22.6765C12.2929 22.855 12.557 22.9531 12.8303 22.9531H30.9377V24.0938H18.3908C18.0883 24.0938 17.7982 24.2139 17.5843 24.4278C17.3704 24.6417 17.2502 24.9319 17.2502 25.2344V41.2031C17.2502 41.5056 17.3704 41.7958 17.5843 42.0097C17.7982 42.2236 18.0883 42.3438 18.3908 42.3438H30.9377V43.4844H10.4064C10.13 43.4841 9.86292 43.5845 9.65504 43.7667L0.530043 51.7511C0.407721 51.8581 0.309694 51.9901 0.242532 52.1381C0.17537 52.2861 0.140625 52.4468 0.140625 52.6094C0.140625 52.7719 0.17537 52.9326 0.242532 53.0806C0.309694 53.2287 0.407721 53.3606 0.530043 53.4677L9.65504 61.4521C9.86292 61.6343 10.13 61.7346 10.4064 61.7344H30.9377V69.7188C30.9377 70.0213 31.0579 70.3114 31.2718 70.5253C31.4857 70.7392 31.7758 70.8594 32.0783 70.8594H38.9221C39.2246 70.8594 39.5147 70.7392 39.7286 70.5253C39.9425 70.3114 40.0627 70.0213 40.0627 69.7188V61.7344H53.7502C54.0527 61.7344 54.3428 61.6142 54.5567 61.4003C54.7706 61.1864 54.8908 60.8963 54.8908 60.5938V44.625C54.8908 44.3225 54.7706 44.0324 54.5567 43.8185C54.3428 43.6045 54.0527 43.4844 53.7502 43.4844H40.0627V42.3438H60.3088C60.582 42.3438 60.8461 42.2456 61.053 42.0671L70.3206 34.0828C70.445 33.9758 70.5447 33.8432 70.6132 33.694C70.6816 33.5449 70.717 33.3828 70.717 33.2188C70.717 33.0547 70.6816 32.8926 70.6132 32.7435C70.5447 32.5943 70.445 32.4617 70.3206 32.3547ZM33.2189 2.42188H37.7814V4.70312H33.2189V2.42188ZM13.2537 20.6719L5.31069 13.8281L13.2537 6.98438H64.0158V20.6719H13.2537ZM37.7814 22.9531V24.0938H33.2189V22.9531H37.7814ZM37.7814 68.5781H33.2189V61.7344H37.7814V68.5781ZM52.6096 45.7656V59.4531H10.8356L3.01375 52.6094L10.8356 45.7656H52.6096ZM33.2189 43.4844V42.3438H37.7814V43.4844H33.2189ZM59.8853 40.0625H19.5314V26.375H59.8853L67.8283 33.2188L59.8853 40.0625Z" fill="#2D4379"/>
</svg>
