<svg width="55" height="55" viewBox="0 0 55 55" fill="none" xmlns="http://www.w3.org/2000/svg">
<path d="M44.6875 55H10.3125C4.61662 55 0 50.3834 0 44.6875V10.3125C0 4.61662 4.61662 0 10.3125 0H44.6875C50.3834 0 55 4.61662 55 10.3125V44.6875C55 50.3834 50.3834 55 44.6875 55Z" fill="#DDF5FF"/>
<path d="M35.806 24.9218C34.8572 24.9218 34.0872 25.6918 34.0872 26.6405V28.6463C34.0872 28.8045 33.9584 28.9333 33.8002 28.9333C33.642 28.9333 33.5132 28.8045 33.5132 28.6463V25.4958C33.5132 24.5471 32.7432 23.7771 31.7945 23.7771C30.8457 23.7771 30.0757 24.5471 30.0757 25.4958V28.6463C30.0757 28.8045 29.9469 28.9333 29.7887 28.9333C29.6305 28.9333 29.5017 28.8045 29.5017 28.6463V24.3494C29.5017 23.4007 28.7317 22.6307 27.7829 22.6307C26.8342 22.6307 26.0642 23.4007 26.0642 24.3494V28.6463C26.0642 28.8045 25.9354 28.9333 25.7772 28.9333C25.619 28.9333 25.4901 28.8045 25.4901 28.6463V16.9004C25.4901 15.9516 24.7201 15.1816 23.7714 15.1816C22.8226 15.1816 22.0526 15.9516 22.0526 16.9004V30.2996L18.3659 28.0395H18.3625C18.1099 27.8797 17.8002 27.7869 17.4687 27.7869C16.5183 27.7869 15.75 28.5552 15.75 29.5057C15.75 29.8376 15.8411 30.159 16.0127 30.4217L16.011 30.4167L21.2927 39.2958C22.1198 40.6843 23.6166 41.5369 25.2321 41.5369H32.9375C35.469 41.5369 37.5214 39.4846 37.5214 36.953V26.6405C37.5247 25.6918 36.7564 24.9218 35.806 24.9218Z" fill="#28CBFF" fill-opacity="0.75"/>
</svg>
