<svg width="578" height="380" viewBox="0 0 578 380" fill="none" xmlns="http://www.w3.org/2000/svg">
<rect x="196" width="299" height="360" rx="40" fill="#F7FBFF"/>
<rect x="251" y="289" width="127.647" height="31" rx="15.5" fill="#00A0B6"/>
<rect x="282" y="299.941" width="9.11765" height="9.11765" rx="4.55882" fill="white" fill-opacity="0.5"/>
<rect x="296.588" y="299.941" width="51.0588" height="9.11765" rx="4.55882" fill="white" fill-opacity="0.5"/>
<rect x="251" y="116" width="63" height="12" rx="6" fill="#C5D8EC"/>
<rect x="251" y="187" width="111" height="12" rx="6" fill="#C5D8EC"/>
<rect x="251" y="140" width="137" height="12" rx="6" fill="#E0ECF8"/>
<rect x="251" y="211" width="196" height="12" rx="6" fill="#E0ECF8"/>
<rect x="251" y="235" width="137" height="12" rx="6" fill="#E0ECF8"/>
<path d="M252.162 43.032H258.63V44.208H253.59V47.344H258.35V48.52H253.59V51.824H258.63V53H252.162V43.032ZM263.021 53.098C261.789 53.098 260.819 52.7993 260.109 52.202L260.529 51.18C261.267 51.74 262.111 52.02 263.063 52.02C263.549 52.02 263.917 51.9407 264.169 51.782C264.421 51.614 264.547 51.3807 264.547 51.082C264.547 50.83 264.459 50.634 264.281 50.494C264.113 50.3447 263.824 50.2187 263.413 50.116L262.237 49.836C261.621 49.7053 261.15 49.4767 260.823 49.15C260.506 48.814 260.347 48.3987 260.347 47.904C260.347 47.2693 260.599 46.756 261.103 46.364C261.617 45.972 262.293 45.776 263.133 45.776C263.637 45.776 264.113 45.8553 264.561 46.014C265.019 46.1727 265.406 46.3967 265.723 46.686L265.289 47.68C264.608 47.1387 263.889 46.868 263.133 46.868C262.676 46.868 262.321 46.9567 262.069 47.134C261.817 47.302 261.691 47.54 261.691 47.848C261.691 48.0907 261.771 48.2867 261.929 48.436C262.088 48.5853 262.34 48.702 262.685 48.786L263.889 49.08C264.561 49.2293 265.056 49.4673 265.373 49.794C265.7 50.1113 265.863 50.5267 265.863 51.04C265.863 51.6747 265.607 52.1787 265.093 52.552C264.589 52.916 263.899 53.098 263.021 53.098ZM270.846 53.098C270.137 53.098 269.516 52.9487 268.984 52.65C268.461 52.3513 268.06 51.9313 267.78 51.39C267.5 50.8393 267.36 50.2 267.36 49.472C267.36 48.744 267.505 48.1 267.794 47.54C268.093 46.98 268.508 46.546 269.04 46.238C269.572 45.93 270.193 45.776 270.902 45.776C271.397 45.776 271.873 45.86 272.33 46.028C272.787 46.1867 273.156 46.406 273.436 46.686L273.002 47.708C272.339 47.1853 271.672 46.924 271 46.924C270.319 46.924 269.787 47.148 269.404 47.596C269.021 48.0347 268.83 48.6553 268.83 49.458C268.83 50.2607 269.021 50.8813 269.404 51.32C269.787 51.7493 270.319 51.964 271 51.964C271.691 51.964 272.358 51.7027 273.002 51.18L273.436 52.202C273.137 52.482 272.755 52.7013 272.288 52.86C271.831 53.0187 271.35 53.098 270.846 53.098ZM278.53 45.776C278.745 45.776 278.969 45.8087 279.202 45.874L279.174 47.162C278.922 47.0687 278.647 47.022 278.348 47.022C277.704 47.022 277.219 47.218 276.892 47.61C276.575 47.9927 276.416 48.478 276.416 49.066V53H275.016V47.932C275.016 47.1947 274.979 46.532 274.904 45.944H276.22L276.346 47.218C276.533 46.7513 276.822 46.3967 277.214 46.154C277.606 45.902 278.045 45.776 278.53 45.776ZM283.431 53.098C282.741 53.098 282.134 52.9487 281.611 52.65C281.089 52.3513 280.683 51.9267 280.393 51.376C280.113 50.8253 279.973 50.1813 279.973 49.444C279.973 48.7067 280.113 48.0627 280.393 47.512C280.683 46.952 281.089 46.5227 281.611 46.224C282.134 45.9253 282.741 45.776 283.431 45.776C284.113 45.776 284.715 45.9253 285.237 46.224C285.76 46.5227 286.161 46.952 286.441 47.512C286.731 48.0627 286.875 48.7067 286.875 49.444C286.875 50.1813 286.731 50.8253 286.441 51.376C286.161 51.9267 285.76 52.3513 285.237 52.65C284.715 52.9487 284.113 53.098 283.431 53.098ZM283.417 51.978C284.071 51.978 284.57 51.7633 284.915 51.334C285.261 50.9047 285.433 50.2747 285.433 49.444C285.433 48.632 285.256 48.0067 284.901 47.568C284.556 47.1293 284.066 46.91 283.431 46.91C282.787 46.91 282.288 47.1293 281.933 47.568C281.579 48.0067 281.401 48.632 281.401 49.444C281.401 50.2747 281.574 50.9047 281.919 51.334C282.274 51.7633 282.773 51.978 283.417 51.978ZM299.63 45.944L296.942 53H295.654L293.764 47.89L291.888 53H290.6L287.912 45.944H289.382L291.3 51.334L293.246 45.944H294.366L296.312 51.334L298.244 45.944H299.63ZM313.299 53H311.773L310.527 49.682C310.396 49.3273 310.205 49.0847 309.953 48.954C309.701 48.814 309.355 48.744 308.917 48.744H306.733V53H305.305V43.032H309.407C310.499 43.032 311.334 43.2747 311.913 43.76C312.501 44.2453 312.795 44.9407 312.795 45.846C312.795 46.4993 312.622 47.0547 312.277 47.512C311.931 47.9693 311.441 48.2913 310.807 48.478C311.385 48.5807 311.805 48.9913 312.067 49.71L313.299 53ZM309.239 47.582C309.967 47.582 310.508 47.442 310.863 47.162C311.217 46.8727 311.395 46.4433 311.395 45.874C311.395 45.3047 311.217 44.8847 310.863 44.614C310.517 44.334 309.976 44.194 309.239 44.194H306.733V47.582H309.239ZM318.228 53.098C317.538 53.098 316.931 52.9487 316.408 52.65C315.886 52.3513 315.48 51.9267 315.19 51.376C314.91 50.8253 314.77 50.1813 314.77 49.444C314.77 48.7067 314.91 48.0627 315.19 47.512C315.48 46.952 315.886 46.5227 316.408 46.224C316.931 45.9253 317.538 45.776 318.228 45.776C318.91 45.776 319.512 45.9253 320.034 46.224C320.557 46.5227 320.958 46.952 321.238 47.512C321.528 48.0627 321.672 48.7067 321.672 49.444C321.672 50.1813 321.528 50.8253 321.238 51.376C320.958 51.9267 320.557 52.3513 320.034 52.65C319.512 52.9487 318.91 53.098 318.228 53.098ZM318.214 51.978C318.868 51.978 319.367 51.7633 319.712 51.334C320.058 50.9047 320.23 50.2747 320.23 49.444C320.23 48.632 320.053 48.0067 319.698 47.568C319.353 47.1293 318.863 46.91 318.228 46.91C317.584 46.91 317.085 47.1293 316.73 47.568C316.376 48.0067 316.198 48.632 316.198 49.444C316.198 50.2747 316.371 50.9047 316.716 51.334C317.071 51.7633 317.57 51.978 318.214 51.978ZM323.575 42.696H324.975V53H323.575V42.696ZM333.318 49.5H328.278C328.324 51.152 329.076 51.978 330.532 51.978C331.344 51.978 332.086 51.712 332.758 51.18L333.192 52.188C332.874 52.468 332.468 52.692 331.974 52.86C331.488 53.0187 330.998 53.098 330.504 53.098C329.374 53.098 328.488 52.776 327.844 52.132C327.2 51.4787 326.878 50.5873 326.878 49.458C326.878 48.7393 327.018 48.1 327.298 47.54C327.587 46.98 327.988 46.546 328.502 46.238C329.015 45.93 329.598 45.776 330.252 45.776C331.204 45.776 331.95 46.084 332.492 46.7C333.042 47.316 333.318 48.17 333.318 49.262V49.5ZM330.28 46.826C329.748 46.826 329.314 46.9847 328.978 47.302C328.642 47.6193 328.427 48.072 328.334 48.66H332.072C332.016 48.0627 331.834 47.61 331.526 47.302C331.218 46.9847 330.802 46.826 330.28 46.826Z" fill="#6782A3"/>
<path d="M252.848 66.912H259.136C261.936 66.912 264.104 67.656 265.64 69.144C267.192 70.632 267.968 72.728 267.968 75.432C267.968 78.152 267.192 80.264 265.64 81.768C264.104 83.256 261.936 84 259.136 84H252.848V66.912ZM258.944 81.48C262.88 81.48 264.848 79.464 264.848 75.432C264.848 71.432 262.88 69.432 258.944 69.432H255.944V81.48H258.944ZM281.771 78.096H273.419C273.483 79.392 273.803 80.352 274.379 80.976C274.971 81.584 275.843 81.888 276.995 81.888C278.323 81.888 279.555 81.456 280.691 80.592L281.555 82.656C280.979 83.12 280.267 83.496 279.419 83.784C278.587 84.056 277.739 84.192 276.875 84.192C274.891 84.192 273.331 83.632 272.195 82.512C271.059 81.392 270.491 79.856 270.491 77.904C270.491 76.672 270.739 75.576 271.235 74.616C271.731 73.656 272.427 72.912 273.323 72.384C274.219 71.84 275.235 71.568 276.371 71.568C278.035 71.568 279.347 72.112 280.307 73.2C281.283 74.272 281.771 75.752 281.771 77.64V78.096ZM276.443 73.728C275.643 73.728 274.987 73.968 274.475 74.448C273.979 74.912 273.659 75.592 273.515 76.488H279.155C279.059 75.576 278.779 74.888 278.315 74.424C277.867 73.96 277.243 73.728 276.443 73.728ZM291.474 71.568C292.514 71.568 293.434 71.84 294.234 72.384C295.05 72.912 295.682 73.664 296.13 74.64C296.594 75.6 296.826 76.704 296.826 77.952C296.826 79.2 296.602 80.296 296.154 81.24C295.706 82.184 295.074 82.912 294.258 83.424C293.458 83.936 292.53 84.192 291.474 84.192C290.594 84.192 289.81 84.008 289.122 83.64C288.434 83.256 287.906 82.728 287.538 82.056V89.184H284.562V75.312C284.562 74.032 284.498 72.888 284.37 71.88H287.178L287.418 73.968C287.738 73.216 288.258 72.632 288.978 72.216C289.698 71.784 290.53 71.568 291.474 71.568ZM290.658 81.84C291.666 81.84 292.442 81.504 292.986 80.832C293.53 80.16 293.802 79.2 293.802 77.952C293.802 76.688 293.53 75.704 292.986 75C292.442 74.28 291.674 73.92 290.682 73.92C289.658 73.92 288.874 74.264 288.33 74.952C287.786 75.64 287.514 76.624 287.514 77.904C287.514 79.168 287.786 80.144 288.33 80.832C288.874 81.504 289.65 81.84 290.658 81.84ZM305.191 84.192C303.959 84.192 302.871 83.936 301.927 83.424C300.999 82.912 300.279 82.184 299.767 81.24C299.271 80.28 299.023 79.16 299.023 77.88C299.023 76.6 299.271 75.488 299.767 74.544C300.279 73.584 300.999 72.848 301.927 72.336C302.871 71.824 303.959 71.568 305.191 71.568C306.407 71.568 307.479 71.824 308.407 72.336C309.335 72.848 310.047 73.584 310.543 74.544C311.055 75.488 311.311 76.6 311.311 77.88C311.311 79.16 311.055 80.28 310.543 81.24C310.047 82.184 309.335 82.912 308.407 83.424C307.479 83.936 306.407 84.192 305.191 84.192ZM305.167 81.84C306.191 81.84 306.967 81.512 307.495 80.856C308.039 80.184 308.311 79.192 308.311 77.88C308.311 76.584 308.039 75.6 307.495 74.928C306.951 74.24 306.183 73.896 305.191 73.896C304.183 73.896 303.407 74.24 302.863 74.928C302.319 75.6 302.047 76.584 302.047 77.88C302.047 79.192 302.311 80.184 302.839 80.856C303.383 81.512 304.159 81.84 305.167 81.84ZM318.588 84.192C316.396 84.192 314.652 83.68 313.356 82.656L314.196 80.544C315.492 81.504 316.972 81.984 318.636 81.984C319.356 81.984 319.908 81.864 320.292 81.624C320.692 81.384 320.892 81.048 320.892 80.616C320.892 80.248 320.756 79.96 320.484 79.752C320.212 79.528 319.748 79.336 319.092 79.176L317.076 78.72C314.868 78.24 313.764 77.112 313.764 75.336C313.764 74.6 313.972 73.952 314.388 73.392C314.804 72.816 315.388 72.368 316.14 72.048C316.892 71.728 317.764 71.568 318.756 71.568C319.62 71.568 320.452 71.704 321.252 71.976C322.052 72.232 322.756 72.608 323.364 73.104L322.476 75.144C321.26 74.248 320.012 73.8 318.732 73.8C318.044 73.8 317.508 73.928 317.124 74.184C316.74 74.44 316.548 74.792 316.548 75.24C316.548 75.592 316.66 75.872 316.884 76.08C317.124 76.288 317.524 76.464 318.084 76.608L320.148 77.064C321.348 77.336 322.22 77.76 322.764 78.336C323.324 78.896 323.604 79.632 323.604 80.544C323.604 81.664 323.156 82.552 322.26 83.208C321.364 83.864 320.14 84.192 318.588 84.192ZM326.421 71.88H329.397V84H326.421V71.88ZM329.565 66.384V69.336H326.229V66.384H329.565ZM336.745 74.136V79.56C336.745 80.984 337.409 81.696 338.737 81.696C339.105 81.696 339.505 81.632 339.937 81.504V83.88C339.409 84.072 338.769 84.168 338.017 84.168C336.641 84.168 335.585 83.784 334.849 83.016C334.113 82.248 333.745 81.144 333.745 79.704V74.136H331.417V71.88H333.745V68.928L336.745 67.92V71.88H339.961V74.136H336.745ZM347.769 84.192C346.537 84.192 345.449 83.936 344.505 83.424C343.577 82.912 342.857 82.184 342.345 81.24C341.849 80.28 341.601 79.16 341.601 77.88C341.601 76.6 341.849 75.488 342.345 74.544C342.857 73.584 343.577 72.848 344.505 72.336C345.449 71.824 346.537 71.568 347.769 71.568C348.985 71.568 350.057 71.824 350.985 72.336C351.913 72.848 352.625 73.584 353.121 74.544C353.633 75.488 353.889 76.6 353.889 77.88C353.889 79.16 353.633 80.28 353.121 81.24C352.625 82.184 351.913 82.912 350.985 83.424C350.057 83.936 348.985 84.192 347.769 84.192ZM347.745 81.84C348.769 81.84 349.545 81.512 350.073 80.856C350.617 80.184 350.889 79.192 350.889 77.88C350.889 76.584 350.617 75.6 350.073 74.928C349.529 74.24 348.761 73.896 347.769 73.896C346.761 73.896 345.985 74.24 345.441 74.928C344.897 75.6 344.625 76.584 344.625 77.88C344.625 79.192 344.889 80.184 345.417 80.856C345.961 81.512 346.737 81.84 347.745 81.84ZM363.254 71.592C363.718 71.592 364.118 71.656 364.454 71.784L364.43 74.52C363.918 74.312 363.39 74.208 362.846 74.208C361.822 74.208 361.038 74.504 360.494 75.096C359.966 75.688 359.702 76.472 359.702 77.448V84H356.726V75.312C356.726 74.032 356.662 72.888 356.534 71.88H359.342L359.582 74.016C359.886 73.232 360.366 72.632 361.022 72.216C361.678 71.8 362.422 71.592 363.254 71.592Z" fill="#00769D"/>
<g filter="url(#filter0_d_3524:20847)">
<rect x="460" y="39" width="69" height="69" rx="20" fill="#9CD7EB"/>
</g>
<g filter="url(#filter1_d_3524:20847)">
<rect x="31" y="222" width="175" height="98" rx="20" fill="#9CD7EB"/>
</g>
<g opacity="0.15">
<circle cx="74" cy="271" r="25" fill="white"/>
</g>
<path fill-rule="evenodd" clip-rule="evenodd" d="M83.925 266.837C83.9618 266.947 83.987 267.06 84 267.175V267.25V279.75C84 281.821 82.3211 283.5 80.25 283.5H67.75C65.6789 283.5 64 281.821 64 279.75V262.25C64 260.179 65.6789 258.5 67.75 258.5H75.3125C75.4578 258.518 75.598 258.565 75.725 258.638C75.7623 258.632 75.8002 258.632 75.8375 258.638C75.966 258.698 76.0842 258.778 76.1875 258.875L83.6875 266.375C83.7847 266.478 83.8649 266.596 83.925 266.725V266.837ZM79.7375 266L76.5 262.763V264.75C76.5 265.441 77.0596 266 77.75 266H79.7375ZM81.5 279.75C81.5 280.44 80.9404 281 80.25 281H67.75C67.0596 281 66.5 280.44 66.5 279.75V262.25C66.5 261.56 67.0596 261 67.75 261H74V264.75C74 266.821 75.6789 268.5 77.75 268.5H81.5V279.75ZM72.7502 275.488L76.8627 271.363C77.3529 270.873 78.1476 270.873 78.6377 271.363C79.1279 271.853 79.1279 272.648 78.6377 273.138L73.6377 278.138C73.403 278.374 73.0835 278.507 72.7502 278.507C72.4169 278.507 72.0974 278.374 71.8627 278.138L69.3627 275.638C68.8726 275.148 68.8726 274.353 69.3627 273.863C69.8529 273.373 70.6476 273.373 71.1377 273.863L72.7502 275.488Z" fill="white"/>
<path d="M125.375 271.585V274H111.48V271.585H116.975V252.65L111.865 255.905V253.14L118.235 249.08H119.88V271.585H125.375ZM147.408 268.575H143.628V274H140.758V268.575H129.278V266.405L141.283 249.08H143.628V266.195H147.408V268.575ZM140.758 266.195V253.945L132.253 266.195H140.758Z" fill="white"/>
<path d="M116.51 291.24H112.91L112.15 293H111.1L114.27 285.88H115.14L118.32 293H117.27L116.51 291.24ZM116.16 290.42L114.71 287.03L113.26 290.42H116.16ZM121.592 293.07C121.085 293.07 120.642 292.963 120.262 292.75C119.889 292.537 119.602 292.237 119.402 291.85C119.202 291.457 119.102 291 119.102 290.48C119.102 289.96 119.205 289.5 119.412 289.1C119.625 288.7 119.922 288.39 120.302 288.17C120.682 287.95 121.125 287.84 121.632 287.84C121.985 287.84 122.325 287.9 122.652 288.02C122.979 288.133 123.242 288.29 123.442 288.49L123.132 289.22C122.659 288.847 122.182 288.66 121.702 288.66C121.215 288.66 120.835 288.82 120.562 289.14C120.289 289.453 120.152 289.897 120.152 290.47C120.152 291.043 120.289 291.487 120.562 291.8C120.835 292.107 121.215 292.26 121.702 292.26C122.195 292.26 122.672 292.073 123.132 291.7L123.442 292.43C123.229 292.63 122.955 292.787 122.622 292.9C122.295 293.013 121.952 293.07 121.592 293.07ZM125.972 288.74V291.27C125.972 291.617 126.045 291.863 126.192 292.01C126.345 292.15 126.555 292.22 126.822 292.22C126.995 292.22 127.172 292.193 127.352 292.14V292.96C127.132 293.033 126.882 293.07 126.602 293.07C126.082 293.07 125.679 292.923 125.392 292.63C125.105 292.337 124.962 291.91 124.962 291.35V288.74H123.982V287.96H124.962V286.7L125.972 286.35V287.96H127.362V288.74H125.972ZM128.545 287.96H129.545V293H128.545V287.96ZM129.625 285.76V286.82H128.455V285.76H129.625ZM135.855 287.97L133.665 293H132.755L130.585 287.97H131.655L133.235 291.86L134.845 287.97H135.855ZM141.118 290.5H137.518C137.551 291.68 138.088 292.27 139.128 292.27C139.708 292.27 140.238 292.08 140.718 291.7L141.028 292.42C140.801 292.62 140.511 292.78 140.158 292.9C139.811 293.013 139.461 293.07 139.108 293.07C138.301 293.07 137.668 292.84 137.208 292.38C136.748 291.913 136.518 291.277 136.518 290.47C136.518 289.957 136.618 289.5 136.818 289.1C137.025 288.7 137.311 288.39 137.678 288.17C138.045 287.95 138.461 287.84 138.928 287.84C139.608 287.84 140.141 288.06 140.528 288.5C140.921 288.94 141.118 289.55 141.118 290.33V290.5ZM138.948 288.59C138.568 288.59 138.258 288.703 138.018 288.93C137.778 289.157 137.625 289.48 137.558 289.9H140.228C140.188 289.473 140.058 289.15 139.838 288.93C139.618 288.703 139.321 288.59 138.948 288.59ZM145.533 285.88H150.153V286.72H146.553V288.96H149.953V289.8H146.553V292.16H150.153V293H145.533V285.88ZM153.361 293.07C152.481 293.07 151.788 292.857 151.281 292.43L151.581 291.7C152.108 292.1 152.711 292.3 153.391 292.3C153.738 292.3 154.001 292.243 154.181 292.13C154.361 292.01 154.451 291.843 154.451 291.63C154.451 291.45 154.388 291.31 154.261 291.21C154.141 291.103 153.935 291.013 153.641 290.94L152.801 290.74C152.361 290.647 152.025 290.483 151.791 290.25C151.565 290.01 151.451 289.713 151.451 289.36C151.451 288.907 151.631 288.54 151.991 288.26C152.358 287.98 152.841 287.84 153.441 287.84C153.801 287.84 154.141 287.897 154.461 288.01C154.788 288.123 155.065 288.283 155.291 288.49L154.981 289.2C154.495 288.813 153.981 288.62 153.441 288.62C153.115 288.62 152.861 288.683 152.681 288.81C152.501 288.93 152.411 289.1 152.411 289.32C152.411 289.493 152.468 289.633 152.581 289.74C152.695 289.847 152.875 289.93 153.121 289.99L153.981 290.2C154.461 290.307 154.815 290.477 155.041 290.71C155.275 290.937 155.391 291.233 155.391 291.6C155.391 292.053 155.208 292.413 154.841 292.68C154.481 292.94 153.988 293.07 153.361 293.07ZM159.022 293.07C158.515 293.07 158.072 292.963 157.692 292.75C157.318 292.537 157.032 292.237 156.832 291.85C156.632 291.457 156.532 291 156.532 290.48C156.532 289.96 156.635 289.5 156.842 289.1C157.055 288.7 157.352 288.39 157.732 288.17C158.112 287.95 158.555 287.84 159.062 287.84C159.415 287.84 159.755 287.9 160.082 288.02C160.408 288.133 160.672 288.29 160.872 288.49L160.562 289.22C160.088 288.847 159.612 288.66 159.132 288.66C158.645 288.66 158.265 288.82 157.992 289.14C157.718 289.453 157.582 289.897 157.582 290.47C157.582 291.043 157.718 291.487 157.992 291.8C158.265 292.107 158.645 292.26 159.132 292.26C159.625 292.26 160.102 292.073 160.562 291.7L160.872 292.43C160.658 292.63 160.385 292.787 160.052 292.9C159.725 293.013 159.382 293.07 159.022 293.07ZM164.582 287.84C164.735 287.84 164.895 287.863 165.062 287.91L165.042 288.83C164.862 288.763 164.665 288.73 164.452 288.73C163.992 288.73 163.645 288.87 163.412 289.15C163.185 289.423 163.072 289.77 163.072 290.19V293H162.072V289.38C162.072 288.853 162.045 288.38 161.992 287.96H162.932L163.022 288.87C163.155 288.537 163.362 288.283 163.642 288.11C163.922 287.93 164.235 287.84 164.582 287.84ZM168.154 293.07C167.661 293.07 167.227 292.963 166.854 292.75C166.481 292.537 166.191 292.233 165.984 291.84C165.784 291.447 165.684 290.987 165.684 290.46C165.684 289.933 165.784 289.473 165.984 289.08C166.191 288.68 166.481 288.373 166.854 288.16C167.227 287.947 167.661 287.84 168.154 287.84C168.641 287.84 169.071 287.947 169.444 288.16C169.817 288.373 170.104 288.68 170.304 289.08C170.511 289.473 170.614 289.933 170.614 290.46C170.614 290.987 170.511 291.447 170.304 291.84C170.104 292.233 169.817 292.537 169.444 292.75C169.071 292.963 168.641 293.07 168.154 293.07ZM168.144 292.27C168.611 292.27 168.967 292.117 169.214 291.81C169.461 291.503 169.584 291.053 169.584 290.46C169.584 289.88 169.457 289.433 169.204 289.12C168.957 288.807 168.607 288.65 168.154 288.65C167.694 288.65 167.337 288.807 167.084 289.12C166.831 289.433 166.704 289.88 166.704 290.46C166.704 291.053 166.827 291.503 167.074 291.81C167.327 292.117 167.684 292.27 168.144 292.27ZM179.796 287.96L177.876 293H176.956L175.606 289.35L174.266 293H173.346L171.426 287.96H172.476L173.846 291.81L175.236 287.96H176.036L177.426 291.81L178.806 287.96H179.796ZM182.668 293.07C181.788 293.07 181.095 292.857 180.588 292.43L180.888 291.7C181.415 292.1 182.018 292.3 182.698 292.3C183.045 292.3 183.308 292.243 183.488 292.13C183.668 292.01 183.758 291.843 183.758 291.63C183.758 291.45 183.695 291.31 183.568 291.21C183.448 291.103 183.241 291.013 182.948 290.94L182.108 290.74C181.668 290.647 181.331 290.483 181.098 290.25C180.871 290.01 180.758 289.713 180.758 289.36C180.758 288.907 180.938 288.54 181.298 288.26C181.665 287.98 182.148 287.84 182.748 287.84C183.108 287.84 183.448 287.897 183.768 288.01C184.095 288.123 184.371 288.283 184.598 288.49L184.288 289.2C183.801 288.813 183.288 288.62 182.748 288.62C182.421 288.62 182.168 288.683 181.988 288.81C181.808 288.93 181.718 289.1 181.718 289.32C181.718 289.493 181.775 289.633 181.888 289.74C182.001 289.847 182.181 289.93 182.428 289.99L183.288 290.2C183.768 290.307 184.121 290.477 184.348 290.71C184.581 290.937 184.698 291.233 184.698 291.6C184.698 292.053 184.515 292.413 184.148 292.68C183.788 292.94 183.295 293.07 182.668 293.07Z" fill="white"/>
<path d="M508.505 72.5112C507.719 72.5112 506.96 72.8412 506.424 73.4167L503.639 76.4069C503.279 75.2494 502.198 74.4066 500.923 74.4066H496.545C495.932 74.4066 495.341 74.1836 494.881 73.7786C492.406 71.6007 488.686 71.5816 486.188 73.7184C485.673 72.989 484.824 72.5112 483.865 72.5112H479.948C479.424 72.5112 479 72.9355 479 73.4589V84.8312C479 85.3546 479.424 85.7789 479.948 85.7789H483.865C484.716 85.7789 485.48 85.4025 486.002 84.808L486.563 84.9657C488.483 85.5053 490.467 85.7789 492.461 85.7789H500.923C503 85.7789 504.984 84.7869 506.23 83.1253L510.78 77.0589C510.78 77.0588 510.78 77.0587 510.78 77.0586C511.152 76.5635 511.348 75.9742 511.348 75.3542C511.348 73.7865 510.072 72.5112 508.505 72.5112ZM484.813 82.9357C484.813 83.4583 484.387 83.8834 483.865 83.8834H480.895V74.4065H483.865C484.387 74.4065 484.813 74.8316 484.813 75.3542V82.9357ZM509.264 75.9215C509.264 75.9216 509.264 75.9216 509.264 75.9217L504.714 81.9882C503.824 83.175 502.407 83.8835 500.923 83.8835H492.461C490.641 83.8835 488.829 83.6337 487.076 83.1411L486.705 83.0368C486.707 83.0032 486.708 82.9697 486.708 82.9358V75.7826L487.368 75.2014C489.153 73.6311 491.844 73.631 493.629 75.2014C494.436 75.911 495.471 76.3018 496.545 76.3018H500.923C501.446 76.3018 501.871 76.727 501.871 77.2495C501.871 77.7721 501.446 78.1972 500.923 78.1972H494.188C493.665 78.1972 493.24 78.6215 493.24 79.145C493.24 79.6684 493.665 80.0927 494.188 80.0927H501.558C502.345 80.0927 503.103 79.7627 503.639 79.1874L507.811 74.7085C507.992 74.5138 508.239 74.4065 508.505 74.4065C509.027 74.4065 509.453 74.8316 509.453 75.3542C509.453 75.5609 509.387 75.757 509.264 75.9215Z" fill="white"/>
<path fill-rule="evenodd" clip-rule="evenodd" d="M498.425 60.0997C497.959 59.8668 497.392 60.0558 497.159 60.5216L493.385 68.0691C493.152 68.5352 493.341 69.102 493.807 69.3349C494.274 69.5685 494.84 69.3781 495.073 68.913L498.847 61.3655C499.08 60.8997 498.891 60.3329 498.425 60.0997ZM491.123 60.2765C490.754 59.908 490.157 59.908 489.788 60.2765L486.015 64.0502C485.646 64.4185 485.646 65.0158 486.015 65.3843L489.788 69.1581C490.157 69.5266 490.754 69.5266 491.123 69.1581C491.491 68.7895 491.491 68.1923 491.123 67.824L488.016 64.7173L491.123 61.6106C491.491 61.2423 491.491 60.6448 491.123 60.2765ZM501.109 60.2766C501.477 59.908 502.075 59.908 502.443 60.2766L506.217 64.0503C506.586 64.4186 506.586 65.0159 506.217 65.3844L502.443 69.1581C502.075 69.5267 501.477 69.5267 501.109 69.1581C500.741 68.7896 500.741 68.1924 501.109 67.8241L504.216 64.7174L501.109 61.6106C500.741 61.2421 500.741 60.6448 501.109 60.2766Z" fill="white"/>
<g filter="url(#filter2_d_3524:20847)">
<rect x="97" y="105" width="126" height="91" rx="20" fill="white"/>
</g>
<circle opacity="0.15" cx="132" cy="138" r="19" fill="#00A0B6"/>
<path fill-rule="evenodd" clip-rule="evenodd" d="M126.6 145.2H130.2C130.697 145.2 131.1 145.603 131.1 146.1C131.1 146.597 130.697 147 130.2 147H126.6C125.109 147 123.9 145.791 123.9 144.3V131.7C123.9 130.209 125.109 129 126.6 129H132.054L132.342 129.099C132.369 129.095 132.397 129.095 132.423 129.099C132.516 129.142 132.601 129.2 132.675 129.27L138.075 134.67C138.145 134.744 138.203 134.829 138.246 134.922V135.003C138.273 135.082 138.291 135.163 138.3 135.246V135.3V137.1C138.3 137.597 137.897 138 137.4 138C136.903 138 136.5 137.597 136.5 137.1V136.2H133.8C132.309 136.2 131.1 134.991 131.1 133.5V130.8H126.6C126.103 130.8 125.7 131.203 125.7 131.7V144.3C125.7 144.797 126.103 145.2 126.6 145.2ZM139.839 142.239L137.661 140.061C137.492 139.891 137.262 139.795 137.022 139.795C136.782 139.795 136.552 139.891 136.383 140.061L133.161 143.283C132.993 143.453 132.899 143.683 132.9 143.922V146.1C132.9 146.597 133.303 147 133.8 147H135.978C136.218 147.002 136.447 146.908 136.617 146.739L139.839 143.517C140.01 143.348 140.105 143.118 140.105 142.878C140.105 142.638 140.01 142.408 139.839 142.239ZM135.6 145.2H134.7V144.3L137.022 141.978L137.922 142.878L135.6 145.2ZM132.9 132.069L135.231 134.4H133.8C133.303 134.4 132.9 133.997 132.9 133.5V132.069ZM133.8 139.8H128.4C127.903 139.8 127.5 139.397 127.5 138.9C127.5 138.403 127.903 138 128.4 138H133.8C134.297 138 134.7 138.403 134.7 138.9C134.7 139.397 134.297 139.8 133.8 139.8ZM128.4 136.2H129.3C129.797 136.2 130.2 135.797 130.2 135.3C130.2 134.803 129.797 134.4 129.3 134.4H128.4C127.903 134.4 127.5 134.803 127.5 135.3C127.5 135.797 127.903 136.2 128.4 136.2ZM128.4 141.6H130.2C130.697 141.6 131.1 142.003 131.1 142.5C131.1 142.997 130.697 143.4 130.2 143.4H128.4C127.903 143.4 127.5 142.997 127.5 142.5C127.5 142.003 127.903 141.6 128.4 141.6Z" fill="#00A0B6"/>
<path d="M186.859 145.575H183.079V151H180.209V145.575H168.729V143.405L180.734 126.08H183.079V143.195H186.859V145.575ZM180.209 143.195V130.945L171.704 143.195H180.209Z" fill="#00384B"/>
<path d="M113.83 169.88H116.79C117.537 169.88 118.117 170.063 118.53 170.43C118.95 170.79 119.16 171.283 119.16 171.91C119.16 172.537 118.947 173.033 118.52 173.4C118.1 173.76 117.523 173.94 116.79 173.94H114.86V177H113.83V169.88ZM116.67 173.12C117.163 173.12 117.533 173.017 117.78 172.81C118.033 172.603 118.16 172.303 118.16 171.91C118.16 171.523 118.033 171.227 117.78 171.02C117.533 170.813 117.163 170.71 116.67 170.71H114.86V173.12H116.67ZM124.706 174.5H121.106C121.139 175.68 121.676 176.27 122.716 176.27C123.296 176.27 123.826 176.08 124.306 175.7L124.616 176.42C124.389 176.62 124.099 176.78 123.746 176.9C123.399 177.013 123.049 177.07 122.696 177.07C121.889 177.07 121.256 176.84 120.796 176.38C120.336 175.913 120.106 175.277 120.106 174.47C120.106 173.957 120.206 173.5 120.406 173.1C120.613 172.7 120.899 172.39 121.266 172.17C121.633 171.95 122.049 171.84 122.516 171.84C123.196 171.84 123.729 172.06 124.116 172.5C124.509 172.94 124.706 173.55 124.706 174.33V174.5ZM122.536 172.59C122.156 172.59 121.846 172.703 121.606 172.93C121.366 173.157 121.213 173.48 121.146 173.9H123.816C123.776 173.473 123.646 173.15 123.426 172.93C123.206 172.703 122.909 172.59 122.536 172.59ZM128.795 171.84C130.002 171.84 130.605 172.513 130.605 173.86V177H129.595V173.92C129.595 173.48 129.508 173.16 129.335 172.96C129.168 172.76 128.898 172.66 128.525 172.66C128.098 172.66 127.755 172.793 127.495 173.06C127.242 173.327 127.115 173.683 127.115 174.13V177H126.115V173.38C126.115 172.853 126.088 172.38 126.035 171.96H126.975L127.065 172.83C127.225 172.51 127.455 172.267 127.755 172.1C128.062 171.927 128.408 171.84 128.795 171.84ZM136.903 169.64V177H135.903V176.14C135.756 176.44 135.536 176.67 135.243 176.83C134.956 176.99 134.619 177.07 134.233 177.07C133.799 177.07 133.413 176.96 133.073 176.74C132.733 176.52 132.466 176.213 132.273 175.82C132.086 175.42 131.993 174.96 131.993 174.44C131.993 173.92 132.086 173.463 132.273 173.07C132.459 172.677 132.719 172.373 133.053 172.16C133.393 171.947 133.786 171.84 134.233 171.84C134.613 171.84 134.946 171.92 135.233 172.08C135.526 172.24 135.746 172.467 135.893 172.76V169.64H136.903ZM134.463 176.27C134.923 176.27 135.276 176.113 135.523 175.8C135.776 175.48 135.903 175.033 135.903 174.46C135.903 173.887 135.776 173.443 135.523 173.13C135.276 172.81 134.926 172.65 134.473 172.65C134.013 172.65 133.653 172.807 133.393 173.12C133.139 173.433 133.013 173.873 133.013 174.44C133.013 175.013 133.139 175.463 133.393 175.79C133.653 176.11 134.009 176.27 134.463 176.27ZM138.636 171.96H139.636V177H138.636V171.96ZM139.716 169.76V170.82H138.546V169.76H139.716ZM144.047 171.84C145.254 171.84 145.857 172.513 145.857 173.86V177H144.847V173.92C144.847 173.48 144.76 173.16 144.587 172.96C144.42 172.76 144.15 172.66 143.777 172.66C143.35 172.66 143.007 172.793 142.747 173.06C142.494 173.327 142.367 173.683 142.367 174.13V177H141.367V173.38C141.367 172.853 141.34 172.38 141.287 171.96H142.227L142.317 172.83C142.477 172.51 142.707 172.267 143.007 172.1C143.314 171.927 143.66 171.84 144.047 171.84ZM152.195 171.96V176.91C152.195 177.677 151.991 178.253 151.585 178.64C151.185 179.033 150.588 179.23 149.795 179.23C149.028 179.23 148.358 179.063 147.785 178.73L147.955 177.94C148.268 178.107 148.568 178.23 148.855 178.31C149.148 178.39 149.458 178.43 149.785 178.43C150.725 178.43 151.195 177.95 151.195 176.99V175.9C151.041 176.193 150.818 176.427 150.525 176.6C150.231 176.767 149.891 176.85 149.505 176.85C149.065 176.85 148.671 176.747 148.325 176.54C147.985 176.333 147.718 176.04 147.525 175.66C147.338 175.28 147.245 174.843 147.245 174.35C147.245 173.857 147.338 173.42 147.525 173.04C147.718 172.66 147.985 172.367 148.325 172.16C148.671 171.947 149.065 171.84 149.505 171.84C149.891 171.84 150.231 171.923 150.525 172.09C150.818 172.25 151.041 172.48 151.195 172.78V171.96H152.195ZM149.735 176.04C150.188 176.04 150.545 175.89 150.805 175.59C151.065 175.29 151.195 174.877 151.195 174.35C151.195 173.823 151.065 173.41 150.805 173.11C150.551 172.803 150.195 172.65 149.735 172.65C149.281 172.65 148.921 172.803 148.655 173.11C148.395 173.41 148.265 173.823 148.265 174.35C148.265 174.87 148.395 175.283 148.655 175.59C148.921 175.89 149.281 176.04 149.735 176.04ZM159.034 177.07C158.527 177.07 158.084 176.963 157.704 176.75C157.33 176.537 157.044 176.237 156.844 175.85C156.644 175.457 156.544 175 156.544 174.48C156.544 173.96 156.647 173.5 156.854 173.1C157.067 172.7 157.364 172.39 157.744 172.17C158.124 171.95 158.567 171.84 159.074 171.84C159.427 171.84 159.767 171.9 160.094 172.02C160.42 172.133 160.684 172.29 160.884 172.49L160.574 173.22C160.1 172.847 159.624 172.66 159.144 172.66C158.657 172.66 158.277 172.82 158.004 173.14C157.73 173.453 157.594 173.897 157.594 174.47C157.594 175.043 157.73 175.487 158.004 175.8C158.277 176.107 158.657 176.26 159.144 176.26C159.637 176.26 160.114 176.073 160.574 175.7L160.884 176.43C160.67 176.63 160.397 176.787 160.064 176.9C159.737 177.013 159.394 177.07 159.034 177.07ZM164.764 171.84C165.97 171.84 166.574 172.513 166.574 173.86V177H165.564V173.92C165.564 173.48 165.477 173.16 165.304 172.96C165.137 172.76 164.867 172.66 164.494 172.66C164.067 172.66 163.724 172.793 163.464 173.06C163.21 173.327 163.084 173.683 163.084 174.13V177H162.084V169.64H163.084V172.74C163.25 172.447 163.48 172.223 163.774 172.07C164.067 171.917 164.397 171.84 164.764 171.84ZM172.871 171.96V177H171.871V176.14C171.725 176.44 171.505 176.67 171.211 176.83C170.925 176.99 170.588 177.07 170.201 177.07C169.755 177.07 169.361 176.963 169.021 176.75C168.688 176.537 168.428 176.237 168.241 175.85C168.055 175.457 167.961 175 167.961 174.48C167.961 173.96 168.055 173.5 168.241 173.1C168.435 172.7 168.701 172.39 169.041 172.17C169.381 171.95 169.768 171.84 170.201 171.84C170.588 171.84 170.925 171.923 171.211 172.09C171.498 172.25 171.718 172.48 171.871 172.78V171.96H172.871ZM170.441 176.27C170.895 176.27 171.245 176.113 171.491 175.8C171.745 175.48 171.871 175.033 171.871 174.46C171.871 173.88 171.745 173.433 171.491 173.12C171.245 172.807 170.891 172.65 170.431 172.65C169.978 172.65 169.621 172.813 169.361 173.14C169.108 173.46 168.981 173.907 168.981 174.48C168.981 175.047 169.108 175.487 169.361 175.8C169.621 176.113 169.981 176.27 170.441 176.27ZM177.285 171.84C178.492 171.84 179.095 172.513 179.095 173.86V177H178.085V173.92C178.085 173.48 177.999 173.16 177.825 172.96C177.659 172.76 177.389 172.66 177.015 172.66C176.589 172.66 176.245 172.793 175.985 173.06C175.732 173.327 175.605 173.683 175.605 174.13V177H174.605V173.38C174.605 172.853 174.579 172.38 174.525 171.96H175.465L175.555 172.83C175.715 172.51 175.945 172.267 176.245 172.1C176.552 171.927 176.899 171.84 177.285 171.84ZM185.433 171.96V176.91C185.433 177.677 185.23 178.253 184.823 178.64C184.423 179.033 183.826 179.23 183.033 179.23C182.266 179.23 181.596 179.063 181.023 178.73L181.193 177.94C181.506 178.107 181.806 178.23 182.093 178.31C182.386 178.39 182.696 178.43 183.023 178.43C183.963 178.43 184.433 177.95 184.433 176.99V175.9C184.28 176.193 184.056 176.427 183.763 176.6C183.47 176.767 183.13 176.85 182.743 176.85C182.303 176.85 181.91 176.747 181.563 176.54C181.223 176.333 180.956 176.04 180.763 175.66C180.576 175.28 180.483 174.843 180.483 174.35C180.483 173.857 180.576 173.42 180.763 173.04C180.956 172.66 181.223 172.367 181.563 172.16C181.91 171.947 182.303 171.84 182.743 171.84C183.13 171.84 183.47 171.923 183.763 172.09C184.056 172.25 184.28 172.48 184.433 172.78V171.96H185.433ZM182.973 176.04C183.426 176.04 183.783 175.89 184.043 175.59C184.303 175.29 184.433 174.877 184.433 174.35C184.433 173.823 184.303 173.41 184.043 173.11C183.79 172.803 183.433 172.65 182.973 172.65C182.52 172.65 182.16 172.803 181.893 173.11C181.633 173.41 181.503 173.823 181.503 174.35C181.503 174.87 181.633 175.283 181.893 175.59C182.16 175.89 182.52 176.04 182.973 176.04ZM191.466 174.5H187.866C187.899 175.68 188.436 176.27 189.476 176.27C190.056 176.27 190.586 176.08 191.066 175.7L191.376 176.42C191.149 176.62 190.859 176.78 190.506 176.9C190.159 177.013 189.809 177.07 189.456 177.07C188.649 177.07 188.016 176.84 187.556 176.38C187.096 175.913 186.866 175.277 186.866 174.47C186.866 173.957 186.966 173.5 187.166 173.1C187.372 172.7 187.659 172.39 188.026 172.17C188.392 171.95 188.809 171.84 189.276 171.84C189.956 171.84 190.489 172.06 190.876 172.5C191.269 172.94 191.466 173.55 191.466 174.33V174.5ZM189.296 172.59C188.916 172.59 188.606 172.703 188.366 172.93C188.126 173.157 187.972 173.48 187.906 173.9H190.576C190.536 173.473 190.406 173.15 190.186 172.93C189.966 172.703 189.669 172.59 189.296 172.59ZM194.635 177.07C193.755 177.07 193.061 176.857 192.555 176.43L192.855 175.7C193.381 176.1 193.985 176.3 194.665 176.3C195.011 176.3 195.275 176.243 195.455 176.13C195.635 176.01 195.725 175.843 195.725 175.63C195.725 175.45 195.661 175.31 195.535 175.21C195.415 175.103 195.208 175.013 194.915 174.94L194.075 174.74C193.635 174.647 193.298 174.483 193.065 174.25C192.838 174.01 192.725 173.713 192.725 173.36C192.725 172.907 192.905 172.54 193.265 172.26C193.631 171.98 194.115 171.84 194.715 171.84C195.075 171.84 195.415 171.897 195.735 172.01C196.061 172.123 196.338 172.283 196.565 172.49L196.255 173.2C195.768 172.813 195.255 172.62 194.715 172.62C194.388 172.62 194.135 172.683 193.955 172.81C193.775 172.93 193.685 173.1 193.685 173.32C193.685 173.493 193.741 173.633 193.855 173.74C193.968 173.847 194.148 173.93 194.395 173.99L195.255 174.2C195.735 174.307 196.088 174.477 196.315 174.71C196.548 174.937 196.665 175.233 196.665 175.6C196.665 176.053 196.481 176.413 196.115 176.68C195.755 176.94 195.261 177.07 194.635 177.07Z" fill="#6782A3"/>
<rect x="506" y="138" width="57" height="20" rx="10" transform="rotate(90 506 138)" fill="#FFC634"/>
<rect x="208" y="57" width="27" height="20" rx="10" transform="rotate(90 208 57)" fill="#FFC634"/>
<defs>
<filter id="filter0_d_3524:20847" x="429" y="19" width="149" height="149" filterUnits="userSpaceOnUse" color-interpolation-filters="sRGB">
<feFlood flood-opacity="0" result="BackgroundImageFix"/>
<feColorMatrix in="SourceAlpha" type="matrix" values="0 0 0 0 0 0 0 0 0 0 0 0 0 0 0 0 0 0 127 0" result="hardAlpha"/>
<feOffset dx="9" dy="20"/>
<feGaussianBlur stdDeviation="20"/>
<feColorMatrix type="matrix" values="0 0 0 0 0 0 0 0 0 0.351917 0 0 0 0 0.429167 0 0 0 0.25 0"/>
<feBlend mode="normal" in2="BackgroundImageFix" result="effect1_dropShadow_3524:20847"/>
<feBlend mode="normal" in="SourceGraphic" in2="effect1_dropShadow_3524:20847" result="shape"/>
</filter>
<filter id="filter1_d_3524:20847" x="0" y="202" width="255" height="178" filterUnits="userSpaceOnUse" color-interpolation-filters="sRGB">
<feFlood flood-opacity="0" result="BackgroundImageFix"/>
<feColorMatrix in="SourceAlpha" type="matrix" values="0 0 0 0 0 0 0 0 0 0 0 0 0 0 0 0 0 0 127 0" result="hardAlpha"/>
<feOffset dx="9" dy="20"/>
<feGaussianBlur stdDeviation="20"/>
<feColorMatrix type="matrix" values="0 0 0 0 0 0 0 0 0 0.351917 0 0 0 0 0.429167 0 0 0 0.25 0"/>
<feBlend mode="normal" in2="BackgroundImageFix" result="effect1_dropShadow_3524:20847"/>
<feBlend mode="normal" in="SourceGraphic" in2="effect1_dropShadow_3524:20847" result="shape"/>
</filter>
<filter id="filter2_d_3524:20847" x="66" y="85" width="206" height="171" filterUnits="userSpaceOnUse" color-interpolation-filters="sRGB">
<feFlood flood-opacity="0" result="BackgroundImageFix"/>
<feColorMatrix in="SourceAlpha" type="matrix" values="0 0 0 0 0 0 0 0 0 0 0 0 0 0 0 0 0 0 127 0" result="hardAlpha"/>
<feOffset dx="9" dy="20"/>
<feGaussianBlur stdDeviation="20"/>
<feColorMatrix type="matrix" values="0 0 0 0 0 0 0 0 0 0.351917 0 0 0 0 0.429167 0 0 0 0.25 0"/>
<feBlend mode="normal" in2="BackgroundImageFix" result="effect1_dropShadow_3524:20847"/>
<feBlend mode="normal" in="SourceGraphic" in2="effect1_dropShadow_3524:20847" result="shape"/>
</filter>
</defs>
</svg>
