<svg width="253" height="253" viewBox="0 0 253 253" fill="none" xmlns="http://www.w3.org/2000/svg">
<g filter="url(#filter0_d)">
<path fill-rule="evenodd" clip-rule="evenodd" d="M47.6964 68.7463C38.3996 83.0681 33 100.153 33 118.5C33 169.034 73.9659 210 124.5 210C175.034 210 216 169.034 216 118.5C216 67.9659 175.034 27 124.5 27C107.357 27 91.3145 31.7146 77.5993 39.918L42.8964 31.6367L47.6964 68.7463Z" fill="white"/>
</g>
<path d="M110.844 132.921V154.516C110.844 158.494 114.096 161.718 118.109 161.718H151.034L166.02 173.871V161.718H172.604C176.617 161.718 179.87 158.494 179.87 154.516V110.856C179.87 106.879 176.617 103.655 172.604 103.655H138.555L110.844 132.921Z" fill="url(#paint0_linear)"/>
<g filter="url(#filter1_d)">
<path d="M103.108 62C83.7187 62 68 77.7187 68 97.1078C68 104.823 70.4903 111.955 74.7084 117.749L70.3806 127.257L81.0912 124.457V124.453C87.1131 129.308 94.7707 132.216 103.108 132.216C122.498 132.216 138.216 116.498 138.216 97.1078C138.216 77.7187 122.498 62 103.108 62Z" fill="url(#paint1_linear)"/>
</g>
<path fill-rule="evenodd" clip-rule="evenodd" d="M145.415 120.187L147.825 120.185L157.373 145.485L152.157 147.454L149.89 141.447H145.415L145.415 141.447V141.448H140.957L138.668 147.459L133.458 145.475L143.088 120.19L145.415 120.187L145.415 120.187ZM145.415 129.742V129.743L143.081 135.873H144.878L144.878 135.872H147.786L145.444 129.666L145.415 129.742L145.415 129.742Z" fill="white"/>
<path fill-rule="evenodd" clip-rule="evenodd" d="M117.573 87.673V93.1966H112.615C112.234 97.3376 110.566 101.11 107.795 104.113C110.188 105.063 112.935 105.569 115.874 105.569V111.093C111.075 111.093 106.618 109.981 102.961 107.914L102.961 107.913V107.915C99.3047 109.981 94.8477 111.093 90.049 111.093H88.001V105.569H90.049C92.988 105.569 95.7343 105.064 98.1279 104.113C95.3563 101.11 93.689 97.3378 93.3077 93.1968H88.3501V87.673H100.199V82.001H102.961V82.0028L102.961 82.001H105.723V87.673H117.573ZM102.961 101.137L102.961 101.136C105.272 99.0117 106.666 96.3002 107.058 93.1968H102.961L102.961 93.1953V93.1968H98.8644C99.2564 96.3003 100.651 99.0117 102.961 101.136V101.137Z" fill="white"/>
<defs>
<filter id="filter0_d" x="0" y="0" width="253" height="253" filterUnits="userSpaceOnUse" color-interpolation-filters="sRGB">
<feFlood flood-opacity="0" result="BackgroundImageFix"/>
<feColorMatrix in="SourceAlpha" type="matrix" values="0 0 0 0 0 0 0 0 0 0 0 0 0 0 0 0 0 0 127 0" result="hardAlpha"/>
<feOffset dx="2" dy="8"/>
<feGaussianBlur stdDeviation="17.5"/>
<feColorMatrix type="matrix" values="0 0 0 0 0 0 0 0 0 0.351917 0 0 0 0 0.429167 0 0 0 0.15 0"/>
<feBlend mode="normal" in2="BackgroundImageFix" result="effect1_dropShadow"/>
<feBlend mode="normal" in="SourceGraphic" in2="effect1_dropShadow" result="shape"/>
</filter>
<filter id="filter1_d" x="66" y="60" width="78.2164" height="78.2164" filterUnits="userSpaceOnUse" color-interpolation-filters="sRGB">
<feFlood flood-opacity="0" result="BackgroundImageFix"/>
<feColorMatrix in="SourceAlpha" type="matrix" values="0 0 0 0 0 0 0 0 0 0 0 0 0 0 0 0 0 0 127 0" result="hardAlpha"/>
<feOffset dx="2" dy="2"/>
<feGaussianBlur stdDeviation="2"/>
<feColorMatrix type="matrix" values="0 0 0 0 0.0846528 0 0 0 0 0.150363 0 0 0 0 0.383333 0 0 0 0.25 0"/>
<feBlend mode="normal" in2="BackgroundImageFix" result="effect1_dropShadow"/>
<feBlend mode="normal" in="SourceGraphic" in2="effect1_dropShadow" result="shape"/>
</filter>
<linearGradient id="paint0_linear" x1="145.357" y1="103.655" x2="145.357" y2="173.871" gradientUnits="userSpaceOnUse">
<stop stop-color="#B0E7C6"/>
<stop offset="1" stop-color="#5DD1B3"/>
</linearGradient>
<linearGradient id="paint1_linear" x1="103.108" y1="62" x2="103.108" y2="132.216" gradientUnits="userSpaceOnUse">
<stop stop-color="#85BEFF"/>
<stop offset="1" stop-color="#5183BB"/>
</linearGradient>
</defs>
</svg>
