<svg width="48" height="48" viewBox="0 0 48 48" fill="none" xmlns="http://www.w3.org/2000/svg">
<circle cx="24" cy="24" r="24" fill="#FFE6E2"/>
<g clip-path="url(#clip0)">
<path d="M36.598 10.5249H12.2012C10.7667 10.5249 9.59961 11.692 9.59961 13.1265V30.4702C9.59961 31.9047 10.7667 33.0718 12.2012 33.0718H14.8605V37.4077C14.8605 37.7585 15.0719 38.0747 15.3959 38.2089C15.72 38.3431 16.0929 38.2689 16.341 38.0209L21.29 33.0718H36.598C38.0325 33.0718 39.1996 31.9047 39.1996 30.4702V13.1265C39.1996 11.692 38.0325 10.5249 36.598 10.5249ZM37.4652 30.4702C37.4652 30.9484 37.0762 31.3374 36.598 31.3374H20.9309C20.7009 31.3374 20.4803 31.4288 20.3177 31.5914L16.5949 35.3141V32.2046C16.5949 31.7257 16.2067 31.3374 15.7277 31.3374H12.2012C11.723 31.3374 11.334 30.9484 11.334 30.4702V13.1265C11.334 12.6483 11.723 12.2593 12.2012 12.2593H36.598C37.0762 12.2593 37.4652 12.6483 37.4652 13.1265V30.4702Z" fill="#FC573B"/>
<path d="M30.2716 17.0439C29.5442 16.2353 28.537 15.79 27.4355 15.79C26.2286 15.79 25.1808 16.3401 24.4004 17.3817C23.62 16.3401 22.5722 15.79 21.3652 15.79C19.108 15.79 17.4629 17.6458 17.4629 19.9158C17.4629 21.0935 17.9187 22.173 18.8974 23.3131C20.0192 24.6199 21.7632 25.9453 23.836 27.7219C23.9984 27.8611 24.1994 27.9307 24.4004 27.9307C24.6014 27.9307 24.8024 27.8611 24.9648 27.7219C27.0351 25.9473 28.7811 24.6203 29.9033 23.3132C30.882 22.173 31.3379 21.0935 31.3379 19.9158C31.3379 18.8281 30.9592 17.8082 30.2716 17.0439ZM25.4197 25.0706C25.0891 25.3466 24.7511 25.6287 24.4004 25.925C24.0497 25.6287 23.7117 25.3466 23.381 25.0706C20.772 22.8928 19.1973 21.5782 19.1973 19.9158C19.1973 18.5525 20.1293 17.5244 21.3652 17.5244C22.9725 17.5244 23.5415 19.4108 23.5663 19.4962C23.6724 19.8687 24.0128 20.126 24.4004 20.126C24.7893 20.126 25.1306 19.8671 25.2354 19.4926C25.2409 19.4729 25.8054 17.5244 27.4355 17.5244C28.6715 17.5244 29.6035 18.5525 29.6035 19.9158C29.6035 21.5782 28.0288 22.8928 25.4197 25.0706Z" fill="#FC573B"/>
</g>
<defs>
<clipPath id="clip0">
<rect width="29.6" height="29.6" fill="white" transform="translate(9.59961 9.6001)"/>
</clipPath>
</defs>
</svg>
