<?xml version="1.0" encoding="UTF-8"?>
<svg width="100px" height="100px" viewBox="0 0 100 100" version="1.1" xmlns="http://www.w3.org/2000/svg" xmlns:xlink="http://www.w3.org/1999/xlink">
    <!-- Generator: Sketch 52.6 (67491) - http://www.bohemiancoding.com/sketch -->
    <title>Group 27</title>
    <desc>Created with Sketch.</desc>
    <defs>
        <circle id="path-1" cx="40" cy="40" r="40"></circle>
        <filter x="-16.9%" y="-16.9%" width="141.2%" height="141.2%" filterUnits="objectBoundingBox" id="filter-2">
            <feOffset dx="3" dy="3" in="SourceAlpha" result="shadowOffsetOuter1"></feOffset>
            <feGaussianBlur stdDeviation="5" in="shadowOffsetOuter1" result="shadowBlurOuter1"></feGaussianBlur>
            <feColorMatrix values="0 0 0 0 0.2   0 0 0 0 0.2   0 0 0 0 0.2  0 0 0 0.06 0" type="matrix" in="shadowBlurOuter1"></feColorMatrix>
        </filter>
    </defs>
    <g id="Landing-3" stroke="none" stroke-width="1" fill="none" fill-rule="evenodd">
        <g id="1.0--Homepage" transform="translate(-372.000000, -2165.000000)">
            <g id="Group-25" transform="translate(138.000000, 2172.000000)">
                <g id="Group-27" transform="translate(241.000000, 0.000000)">
                    <g id="Oval">
                        <use fill="black" fill-opacity="1" filter="url(#filter-2)" xlink:href="#path-1"></use>
                        <use fill="#FFFFFF" fill-rule="evenodd" xlink:href="#path-1"></use>
                    </g>
                    <g id="chart-line-(2)" transform="translate(24.000000, 24.000000)" fill="#7CE0AD" fill-rule="nonzero">
                        <path d="M8.8,22.4 C10.1254834,22.4 11.2,21.3254834 11.2,20 C11.2078108,19.9201907 11.2078108,19.8398093 11.2,19.76 L15.664,15.296 L16.032,15.296 L16.4,15.296 L18.976,17.872 C18.976,17.872 18.976,17.952 18.976,18 C18.976,19.3254834 20.0505166,20.4 21.376,20.4 C22.7014834,20.4 23.776,19.3254834 23.776,18 L23.776,17.872 L29.6,12 C30.9254834,12 32,10.9254834 32,9.6 C32,8.2745166 30.9254834,7.2 29.6,7.2 C28.2745166,7.2 27.2,8.2745166 27.2,9.6 C27.1921892,9.67980935 27.1921892,9.76019065 27.2,9.84 L21.424,15.616 L21.168,15.616 L18.4,12.8 C18.4,11.4745166 17.3254834,10.4 16,10.4 C14.6745166,10.4 13.6,11.4745166 13.6,12.8 L8.8,17.6 C7.4745166,17.6 6.4,18.6745166 6.4,20 C6.4,21.3254834 7.4745166,22.4 8.8,22.4 Z M30.4,28.8 L3.2,28.8 L3.2,1.6 C3.2,0.7163444 2.4836556,0 1.6,0 C0.7163444,0 0,0.7163444 0,1.6 L0,30.4 C0,31.2836556 0.7163444,32 1.6,32 L30.4,32 C31.2836556,32 32,31.2836556 32,30.4 C32,29.5163444 31.2836556,28.8 30.4,28.8 Z" id="Shape"></path>
                    </g>
                </g>
            </g>
        </g>
    </g>
</svg>