<svg fill="none" height="30" viewBox="0 0 30 30" width="30" xmlns="http://www.w3.org/2000/svg"><rect fill="#00769d" height="30" rx="7" width="30"/><g fill="#fff"><path clip-rule="evenodd" d="m18.2026 11.7893-3.2211 3.2213-3.2212-3.2213c-.8656-.8657-.8656-2.27432 0-3.14001.8657-.86566 2.2742-.86569 3.1398 0l.0814.08134.0814-.08134c.8656-.86572 2.2741-.86572 3.1397 0 .8657.86569.8657 2.27431 0 3.14001zm-4.8723-2.85217c-.3285 0-.6569.125-.907.3751-.5001.50012-.5001 1.31397-.0001 1.81407l2.5583 2.5584 2.5582-2.5584c.5001-.5001.5001-1.31392 0-1.81407-.2423-.24225-.5644-.37569-.907-.37569s-.6647.13344-.907.37569l-.7442.74427-.7443-.74427c-.25-.25003-.5785-.3751-.9069-.3751zm9.199 5.68417c.299.2867.4661.6728.4706 1.0871.0045.4144-.1543.804-.4471 1.0971l-4.2514 4.2549h-6.9999l-1.93787 1.9395h-2.36363v-4.2863l3.5931-3.5962h5.4608c.8371 0 1.5182.6814 1.5182 1.5191 0 .0557-.003.1107-.0089.1649h.6738l2.1552-2.1572c.2842-.2844.662-.4434 1.0639-.4477l.0168-.0001c.3957 0 .7703.1505 1.0564.4249zm-4.6165 5.5015 3.9768-3.9801c.1132-.1133.1746-.2639.1729-.4242s-.0664-.3096-.182-.4204c-.2298-.2204-.5999-.2164-.8251.0089l-2.4298 2.432h-1.5282c-.2722.2581-.6397.4166-1.0435.4166h-3.7151v-.9376h3.7151c.3202 0 .5807-.2609.5807-.5815 0-.3207-.2605-.5815-.5807-.5815h-5.0722l-3.0442 3.0467v2.9607h1.03756l1.93794-1.9396z" fill-rule="evenodd"/><path d="m14.9815 15.0106-.1768.1768c.0469.0469.1105.0732.1768.0732s.1299-.0263.1768-.0732zm3.2211-3.2213.1768.1767zm-6.4423 0-.1768.1767zm0-3.14001-.1767-.17678-.0001.00001zm3.1398 0-.1768.17677.0001.00004zm.0814.08134-.1768.17681c.0977.09759.2559.09759.3535 0zm.0814-.08134.1767.17681v-.00004zm3.1397 0-.1767.17676v.00001zm-5.7793.66294-.1768-.17678v.00001zm-.0001 1.81407-.1768.1768h.0001zm2.5583 2.5584-.1768.1768c.0469.0469.1104.0732.1768.0732.0663 0 .1299-.0263.1767-.0732zm2.5582-2.5584.1768.1768zm0-1.81407.1768-.17677v-.00001zm-1.814 0-.1767-.17679v.00002zm-.7442.74427-.1768.1768c.0469.0469.1105.0732.1768.0732s.1299-.0263.1768-.0732zm-.7443-.74427.1768-.17677v-.00001zm8.7627 6.39617.25-.0027zm-.4706-1.0871-.173.1805zm.0235 2.1842.1768.1767.0001-.0001zm-4.2514 4.2549v.25c.0663 0 .13-.0264.1769-.0733zm-6.9999 0v-.25c-.0663 0-.1299.0264-.1768.0733zm-1.93787 1.9395v.25c.06634 0 .12996-.0263.17685-.0733zm-2.36363 0h-.25c0 .1381.11193.25.25.25zm0-4.2863-.17685-.1767c-.04684.0468-.07315.1104-.07315.1767zm3.5931-3.5962v-.25c-.0663 0-.1299.0263-.1768.0733zm6.9701 1.684-.2486-.027c-.0076.0706.0151.1411.0625.1939.0474.0529.1151.0831.1861.0831zm.6738 0v.25c.0663 0 .13-.0264.1769-.0733zm2.1552-2.1572-.1768-.1767zm1.0639-.4477-.0014-.25h-.0013zm.0168-.0001v-.25h-.0014zm.4167 1.9463.1768.1767h.0001zm-3.9768 3.9801v.25c.0664 0 .13-.0263.1769-.0733zm4.1497-4.4043.25-.0026zm-.182-.4204-.173.1804zm-.8251.0089-.1768-.1768v.0001zm-2.4298 2.432v.25c.0663 0 .13-.0264.1769-.0733zm-1.5282 0v-.25c-.064 0-.1255.0245-.172.0685zm-4.7586.4166h-.25c0 .1381.112.25.25.25zm0-.9376v-.25c-.138 0-.25.112-.25.25zm-1.3571-1.163v-.25c-.0664 0-.13.0263-.1769.0733zm-3.0442 3.0467-.17685-.1767c-.04684.0469-.07315.1104-.07315.1767zm0 2.9607h-.25c0 .138.11193.25.25.25zm1.03756 0v.25c.06634 0 .12996-.0264.17685-.0733zm1.93794-1.9396v-.25c-.0664 0-.13.0264-.1769.0733zm4.2453-4.9354 3.2211-3.2214-.3535-.3535-3.2212 3.2213zm-3.5748-3.2214 3.2212 3.2214.3536-.3536-3.2212-3.2213zm0-3.49348c-.9632.96332-.9632 2.53018 0 3.49348l.3536-.3535c-.768-.7681-.768-2.01838 0-2.78644zm3.4934 0c-.9632-.96334-2.53-.96328-3.4933-.00001l.3535.35356c.7681-.76804 2.0183-.76805 2.7862-.00001zm.0813.0813-.0813-.08134-.3535.35362.0813.08134zm-.2721-.08134-.0814.08134.3535.35362.0814-.08134zm3.4933.00005c-.9632-.96337-2.5301-.96337-3.4933-.00001l.3535.35354c.768-.76808 2.0183-.76808 2.7863-.00001zm0 3.49347c.9633-.9633.9633-2.53016 0-3.49348l-.3535.35354c.768.76806.768 2.01834 0 2.78644zm-5.7793-2.477c.2012-.20117.4651-.30187.7302-.30187v-.5c-.3919 0-.7848.14931-1.0838.44832zm-.0001 1.4606c-.4024-.4026-.4024-1.05811.0001-1.4606l-.3536-.35354c-.5977.59775-.5977 1.56984-.0001 2.16764zm2.5582 2.5583-2.5582-2.5584-.3535.3536 2.5582 2.5584zm2.2047-2.5584-2.5582 2.5584.3535.3536 2.5583-2.5584zm0-1.46051c.4025.40253.4025 1.05801 0 1.46061l.3536.3535c.5977-.5978.5977-1.56985 0-2.16764zm-.7302-.30245c.2763 0 .5348.10709.7302.30246l.3536-.35355c-.2892-.28913-.6749-.44891-1.0838-.44891zm-.7302.30247c.1954-.19538.4539-.30247.7302-.30247v-.5c-.4089 0-.7946.15979-1.0837.4489zm-.7442.74429.7442-.7443-.3535-.35354-.7443.74431zm-1.0978-.7443.7442.7443.3536-.35353-.7443-.74431zm-.7302-.30187c.265 0 .529.10076.7302.30187l.3535-.35355c-.2989-.29895-.6919-.44832-1.0837-.44832zm9.9196 6.51857c-.0052-.4815-.2-.9316-.5475-1.2648l-.3461.3609c.2505.2401.3899.5621.3936.9093zm-.5202 1.2764c.3402-.3406.5254-.7948.5202-1.2764l-.5.0054c.0038.3472-.1287.6721-.374.9177zm-4.2514 4.255 4.2513-4.2549-.3537-.3534-4.2513 4.2549zm-7.1768.0733h6.9999v-.5h-6.9999zm-1.76102 1.8662 1.93792-1.9395-.3537-.3534-1.93793 1.9395zm-2.54048.0733h2.36363v-.5h-2.36363zm-.25-4.5363v4.2863h.5v-4.2863zm3.6663-3.7729-3.59315 3.5962.3537.3534 3.59315-3.5962zm5.6376-.0733h-5.4608v.5h5.4608zm1.7682 1.7691c0-.9756-.7929-1.7691-1.7682-1.7691v.5c.6989 0 1.2682.5694 1.2682 1.2691zm-.0104.1918c.0069-.0631.0104-.1271.0104-.1918h-.5c0 .0467-.0026.0927-.0075.1379zm.4253-.2769h-.6738v.5h.6738zm1.9784-2.0839-2.1553 2.1572.3538.3534 2.1552-2.1572zm1.238-.521c-.4673.005-.9076.1903-1.238.521l.3537.3534c.2379-.2381.5532-.3708.8897-.3744zm.0181-.0001-.0168.0001.0028.5.0168-.0001zm1.2309.4945c-.3327-.319-.7693-.4945-1.2295-.4945v.5c.3312 0 .6438.1256.8834.3554zm-.9897 1.5251-3.9767 3.9801.3537.3534 3.9767-3.9801zm.0998-.2448c.001.0931-.0341.1791-.0998.2449l.3538.3533c.1607-.1609.2483-.3761.246-.6035zm-.105-.2427c.0671.0644.104.1496.105.2427l.5-.0053c-.0024-.2275-.0948-.4409-.2589-.5983zm-.4752.0052c.129-.1291.3436-.1313.4752-.0052l.3461-.3609c-.3281-.3145-.8537-.3088-1.175.0126zm-2.4298 2.432 2.4298-2.432-.3537-.3534-2.4299 2.432zm-1.7051.0733h1.5282v-.5h-1.5282zm-1.0435.4166c.4705 0 .8988-.185 1.2155-.4852l-.344-.3629c-.2278.216-.5344.3481-.8715.3481zm-3.7151 0h3.7151v-.5h-3.7151zm-.25-1.1876v.9376h.5v-.9376zm3.9651-.25h-3.7151v.5h3.7151zm.3307-.3315c0 .1829-.1489.3315-.3307.3315v.5c.4586 0 .8307-.3731.8307-.8315zm-.3307-.3315c.1818 0 .3307.1486.3307.3315h.5c0-.4584-.3721-.8315-.8307-.8315zm-5.0722 0h5.0722v-.5h-5.0722zm-2.86735 2.9734 3.04415-3.0467-.3537-.3534-3.04415 3.0467zm.07315 2.784v-2.9607h-.5v2.9607zm.78756-.25h-1.03756v.5h1.03756zm1.76104-1.8663-1.93789 1.9396.3537.3534 1.93789-1.9396zm7.1767-.0733h-6.9998v.5h6.9998z"/></g></svg>