<svg width="433" height="287" viewBox="0 0 433 287" fill="none" xmlns="http://www.w3.org/2000/svg">
<g filter="url(#filter0_d)">
<rect width="271" height="202" rx="35" transform="matrix(-1 0 0 1 357 45.5154)" fill="url(#paint0_linear)"/>
</g>
<g filter="url(#filter1_d)">
<rect width="102" height="102" rx="25" transform="matrix(-1 0 0 1 135 99.5154)" fill="url(#paint1_linear)"/>
</g>
<g filter="url(#filter2_d)">
<rect width="78" height="78" rx="22" transform="matrix(-1 0 0 1 396 27.5154)" fill="url(#paint2_linear)"/>
</g>
<path d="M211.085 165.733V191.987C211.085 196.822 215.038 200.742 219.917 200.742H259.943L278.162 215.516V200.742H286.167C291.045 200.742 295 196.822 295 191.987V138.909C295 134.074 291.045 130.154 286.167 130.154H244.773L211.085 165.733Z" fill="url(#paint3_linear)"/>
<g filter="url(#filter3_d)">
<path d="M201.681 79.5154C178.109 79.5154 159 98.6246 159 122.196C159 131.575 162.027 140.246 167.155 147.289L161.894 158.848L174.915 155.444V155.439C182.236 161.341 191.545 164.878 201.681 164.878C225.253 164.878 244.362 145.768 244.362 122.196C244.362 98.6246 225.253 79.5154 201.681 79.5154Z" fill="url(#paint4_linear)"/>
</g>
<path fill-rule="evenodd" clip-rule="evenodd" d="M253.113 150.252L256.042 150.25L267.65 181.008L261.309 183.401L258.553 176.099H253.113L253.113 176.099V176.099H247.693L244.91 183.407L238.576 180.994L250.283 150.255L253.113 150.252V150.253L253.113 150.252ZM253.113 161.868V161.869L250.275 169.321H253.113V169.321H255.995L253.148 161.777L253.113 161.869L253.113 161.868Z" fill="white"/>
<path fill-rule="evenodd" clip-rule="evenodd" d="M219.265 110.725V117.44H213.238C212.774 122.475 210.747 127.061 207.378 130.712C210.288 131.867 213.626 132.482 217.199 132.482V139.197C211.366 139.197 205.947 137.845 201.502 135.333L201.502 135.331V135.333C197.056 137.846 191.638 139.197 185.804 139.197H183.314V132.482H185.804C189.377 132.482 192.716 131.867 195.626 130.712C192.256 127.061 190.229 122.475 189.766 117.441H183.739V110.725H198.144V103.83H201.502V103.832L201.502 103.83H204.86V110.725H219.265ZM201.502 127.094L201.502 127.092C204.311 124.51 206.006 121.213 206.482 117.441H201.502L201.502 117.439V117.441H196.521C196.998 121.213 198.693 124.51 201.502 127.093V127.094Z" fill="white"/>
<path d="M103.529 153.368C104.171 154.286 105.238 154.888 106.445 154.888C108.409 154.888 110 153.3 110 151.341C110 149.383 108.409 147.795 106.445 147.795C105.238 147.795 104.171 148.396 103.529 149.315H86.032V144.249H102.383C102.922 144.249 103.438 144.035 103.819 143.655L107.882 139.602C108.263 139.222 108.477 138.706 108.477 138.169V131.971C109.397 131.331 110 130.267 110 129.062C110 127.103 108.409 125.515 106.445 125.515C104.482 125.515 102.891 127.103 102.891 129.062C102.891 130.267 103.494 131.331 104.414 131.971V137.33L101.542 140.195H86.032V132.811C86.032 130.877 85.2776 129.065 83.9081 127.708C82.5458 126.359 80.7314 125.616 78.7996 125.616C74.8585 125.616 71.6436 128.805 71.5688 132.754H71.308C69.5039 132.754 67.8107 133.457 66.5402 134.733C65.2968 135.981 64.6184 137.629 64.6295 139.372C64.6335 140.013 64.7321 140.645 64.9166 141.247C63.1225 141.727 61.4985 142.738 60.2702 144.155C58.806 145.845 58 148.006 58 150.241C58 153.131 59.3265 155.718 61.4038 157.426C60.5278 158.668 59.7007 160.453 59.7007 162.774C59.7007 167.372 63.4501 171.112 68.0584 171.112H68.2362C68.9881 171.113 69.6609 171.572 69.9504 172.281C71.2471 175.461 74.2832 177.515 77.6854 177.515C77.7808 177.515 77.8759 177.514 77.9685 177.511C80.1516 177.444 82.1891 176.53 83.7057 174.937C85.2057 173.361 86.0316 171.295 86.0316 169.121C86.0316 168.001 85.1222 167.094 84.0004 167.094C82.8786 167.094 81.9692 168.001 81.9692 169.121C81.9692 171.444 80.119 173.391 77.8433 173.46C77.7908 173.462 77.7383 173.462 77.685 173.462C75.9433 173.462 74.3842 172.399 73.7133 170.754C72.7987 168.512 70.6507 167.062 68.2378 167.059H68.058C65.6901 167.059 63.7631 165.137 63.7631 162.774C63.7631 161.114 64.5102 159.94 65.0904 159.279C65.8085 159.456 66.5589 159.551 67.3311 159.551C68.4529 159.551 69.3623 158.644 69.3623 157.525C69.3623 156.405 68.4529 155.498 67.3311 155.498C64.4259 155.498 62.0623 153.14 62.0623 150.241C62.0623 147.673 63.9766 145.439 66.5104 145.048L68.5105 144.744C69.2903 144.625 69.9305 144.067 70.1532 143.312C70.3755 142.557 70.1401 141.742 69.5484 141.221C69.0084 140.746 68.6962 140.062 68.6915 139.347C68.6875 138.69 68.9468 138.066 69.4215 137.589C69.9238 137.085 70.5938 136.807 71.3076 136.807H71.7199C73.876 136.807 75.63 135.057 75.63 132.906V132.895C75.63 131.116 77.052 129.669 78.7996 129.669C80.5771 129.669 81.9692 131.049 81.9692 132.811V160.473C81.9692 161.592 82.8786 162.5 84.0004 162.5C84.0823 162.5 84.1626 162.493 84.2422 162.484C84.2632 162.485 84.2839 162.487 84.305 162.487H101.643L104.516 165.353V170.871C103.538 171.503 102.891 172.6 102.891 173.848C102.891 175.807 104.482 177.395 106.445 177.395C108.409 177.395 110 175.807 110 173.848C110 172.688 109.441 171.658 108.578 171.011V164.514C108.578 163.976 108.364 163.461 107.984 163.081L103.921 159.027C103.54 158.648 103.023 158.434 102.485 158.434H86.0316V153.368H103.529Z" fill="#B8D9FE"/>
<path d="M337.289 71.3116L340.516 64.8591L340.516 62.7914C340.515 52.7146 348.712 44.516 358.787 44.5154C358.788 44.5154 358.788 44.5154 358.788 44.5154C363.533 44.5154 367.993 46.363 371.348 49.7177C374.703 53.0729 376.551 57.5337 376.551 62.2786V62.3443C376.551 67.6731 374.316 72.7282 370.398 76.3106V88.197C370.398 88.9251 369.808 89.5154 369.08 89.5154H351.502C350.774 89.5154 350.184 88.9251 350.184 88.197V84.0662H346.228C344.048 84.0662 342.273 82.2919 342.273 80.1111V75.2776H339.74C338.229 75.2776 337 74.0483 337 72.5372C337 72.1141 337.1 71.6903 337.289 71.3116ZM339.741 72.6409H343.592C344.32 72.6409 344.91 73.2312 344.91 73.9593V80.1111C344.91 80.838 345.501 81.4294 346.229 81.4294H351.502C352.23 81.4294 352.82 82.0197 352.82 82.7478V86.8787H367.762V75.7171C367.762 75.3321 367.93 74.9664 368.222 74.7159C371.839 71.6168 373.914 67.1074 373.914 62.3443V62.2785C373.914 58.2379 372.341 54.4393 369.484 51.5821C366.627 48.7253 362.829 47.1521 358.788 47.1521H358.787C350.166 47.1526 343.152 54.1683 343.152 62.7912L343.152 65.1701C343.152 65.3749 343.105 65.5767 343.013 65.7598L339.648 72.4907C339.64 72.5051 339.637 72.5211 339.637 72.5372C339.637 72.5944 339.683 72.6409 339.741 72.6409Z" fill="#B8D9FE"/>
<path d="M346.902 59.0932C346.812 58.7554 346.859 58.3956 347.034 58.0928L349.671 53.5258C349.846 53.2231 350.134 53.0021 350.471 52.9116C350.809 52.8211 351.169 52.8684 351.472 53.0433L352.557 53.6702C353.215 53.171 353.923 52.7597 354.673 52.4397V51.1951C354.673 50.467 355.263 49.8767 355.991 49.8767H361.265C361.993 49.8767 362.583 50.467 362.583 51.1951V52.4396C363.333 52.7597 364.04 53.1709 364.699 53.6701L365.784 53.0432C366.087 52.8683 366.447 52.821 366.785 52.9115C367.122 53.0019 367.41 53.2229 367.585 53.5258L370.222 58.0927C370.397 58.3955 370.444 58.7554 370.354 59.0931C370.263 59.4309 370.042 59.7188 369.739 59.8936L368.658 60.5178C368.709 60.9283 368.735 61.3376 368.735 61.7419C368.735 62.1461 368.709 62.5553 368.658 62.9659L369.739 63.5901C370.042 63.7649 370.263 64.0529 370.354 64.3906C370.444 64.7284 370.397 65.0882 370.222 65.391L367.585 69.958C367.41 70.2607 367.122 70.4817 366.785 70.5722C366.447 70.6628 366.087 70.6155 365.784 70.4405L364.699 69.8136C364.04 70.3128 363.333 70.7241 362.583 71.0441V72.2888C362.583 73.0169 361.993 73.6072 361.265 73.6072H355.991C355.263 73.6072 354.673 73.0169 354.673 72.2888V71.0443C353.923 70.7243 353.215 70.3129 352.557 69.8138L351.472 70.4407C351.169 70.6155 350.809 70.6628 350.471 70.5724C350.133 70.482 349.846 70.261 349.671 69.9581L347.034 65.3912C346.859 65.0884 346.812 64.7285 346.902 64.3908C346.993 64.053 347.214 63.7651 347.516 63.5903L348.598 62.9661C348.546 62.5555 348.52 62.1463 348.52 61.742C348.52 61.3377 348.546 60.9285 348.598 60.518L347.516 59.8938C347.214 59.7189 346.993 59.4309 346.902 59.0932ZM351.339 60.1205C351.218 60.6663 351.157 61.2118 351.157 61.7419C351.157 62.2721 351.218 62.8176 351.339 63.3633C351.464 63.9251 351.21 64.5026 350.711 64.7902L349.977 65.2144L351.295 67.4979L352.035 67.0706C352.534 66.7826 353.161 66.8517 353.586 67.2409C354.409 67.9966 355.352 68.5446 356.386 68.8697C356.936 69.0423 357.31 69.5516 357.31 70.1275V70.9705H359.946V70.1274C359.946 69.5515 360.32 69.0422 360.87 68.8696C361.904 68.5446 362.847 67.9965 363.67 67.2408C364.094 66.8516 364.722 66.7826 365.221 67.0705L365.961 67.4978L367.279 65.2143L366.545 64.7901C366.046 64.5025 365.792 63.9251 365.916 63.3634C366.037 62.8175 366.099 62.2719 366.099 61.7419C366.099 61.2118 366.037 60.6662 365.916 60.1203C365.792 59.5586 366.046 58.9812 366.545 58.6936L367.279 58.2694L365.961 55.9859L365.221 56.4132C364.722 56.7012 364.095 56.6321 363.67 56.243C362.847 55.4873 361.904 54.9393 360.869 54.6142C360.32 54.4416 359.946 53.9323 359.946 53.3564V52.5134H357.31V53.3565C357.31 53.9323 356.936 54.4416 356.386 54.6142C355.352 54.9394 354.409 55.4874 353.586 56.243C353.161 56.6321 352.534 56.7012 352.035 56.4132L351.295 55.9859L349.977 58.2694L350.711 58.6936C351.21 58.9813 351.464 59.5588 351.339 60.1205Z" fill="#B8D9FE"/>
<path d="M358.628 56.908C361.293 56.908 363.462 59.0765 363.462 61.7419C363.462 64.4074 361.293 66.5759 358.628 66.5759C355.962 66.5759 353.794 64.4074 353.794 61.7419C353.794 59.0765 355.962 56.908 358.628 56.908ZM358.628 63.9392C359.839 63.9392 360.825 62.9535 360.825 61.7419C360.825 60.5304 359.839 59.5447 358.628 59.5447C357.416 59.5447 356.43 60.5304 356.43 61.7419C356.43 62.9535 357.416 63.9392 358.628 63.9392Z" fill="#B8D9FE"/>
<defs>
<filter id="filter0_d" x="56" y="24.5154" width="331" height="262" filterUnits="userSpaceOnUse" color-interpolation-filters="sRGB">
<feFlood flood-opacity="0" result="BackgroundImageFix"/>
<feColorMatrix in="SourceAlpha" type="matrix" values="0 0 0 0 0 0 0 0 0 0 0 0 0 0 0 0 0 0 127 0" result="hardAlpha"/>
<feOffset dy="9"/>
<feGaussianBlur stdDeviation="15"/>
<feColorMatrix type="matrix" values="0 0 0 0 0.148507 0 0 0 0 0.245771 0 0 0 0 0.391667 0 0 0 0.25 0"/>
<feBlend mode="normal" in2="BackgroundImageFix" result="effect1_dropShadow"/>
<feBlend mode="normal" in="SourceGraphic" in2="effect1_dropShadow" result="shape"/>
</filter>
<filter id="filter1_d" x="0" y="72.5154" width="172" height="172" filterUnits="userSpaceOnUse" color-interpolation-filters="sRGB">
<feFlood flood-opacity="0" result="BackgroundImageFix"/>
<feColorMatrix in="SourceAlpha" type="matrix" values="0 0 0 0 0 0 0 0 0 0 0 0 0 0 0 0 0 0 127 0" result="hardAlpha"/>
<feOffset dx="2" dy="8"/>
<feGaussianBlur stdDeviation="17.5"/>
<feColorMatrix type="matrix" values="0 0 0 0 0 0 0 0 0 0.351917 0 0 0 0 0.429167 0 0 0 0.25 0"/>
<feBlend mode="normal" in2="BackgroundImageFix" result="effect1_dropShadow"/>
<feBlend mode="normal" in="SourceGraphic" in2="effect1_dropShadow" result="shape"/>
</filter>
<filter id="filter2_d" x="285" y="0.515381" width="148" height="148" filterUnits="userSpaceOnUse" color-interpolation-filters="sRGB">
<feFlood flood-opacity="0" result="BackgroundImageFix"/>
<feColorMatrix in="SourceAlpha" type="matrix" values="0 0 0 0 0 0 0 0 0 0 0 0 0 0 0 0 0 0 127 0" result="hardAlpha"/>
<feOffset dx="2" dy="8"/>
<feGaussianBlur stdDeviation="17.5"/>
<feColorMatrix type="matrix" values="0 0 0 0 0 0 0 0 0 0.351917 0 0 0 0 0.429167 0 0 0 0.15 0"/>
<feBlend mode="normal" in2="BackgroundImageFix" result="effect1_dropShadow"/>
<feBlend mode="normal" in="SourceGraphic" in2="effect1_dropShadow" result="shape"/>
</filter>
<filter id="filter3_d" x="157" y="77.5154" width="93.3622" height="93.3622" filterUnits="userSpaceOnUse" color-interpolation-filters="sRGB">
<feFlood flood-opacity="0" result="BackgroundImageFix"/>
<feColorMatrix in="SourceAlpha" type="matrix" values="0 0 0 0 0 0 0 0 0 0 0 0 0 0 0 0 0 0 127 0" result="hardAlpha"/>
<feOffset dx="2" dy="2"/>
<feGaussianBlur stdDeviation="2"/>
<feColorMatrix type="matrix" values="0 0 0 0 0.0846528 0 0 0 0 0.150363 0 0 0 0 0.383333 0 0 0 0.25 0"/>
<feBlend mode="normal" in2="BackgroundImageFix" result="effect1_dropShadow"/>
<feBlend mode="normal" in="SourceGraphic" in2="effect1_dropShadow" result="shape"/>
</filter>
<linearGradient id="paint0_linear" x1="135.5" y1="0" x2="135.5" y2="202" gradientUnits="userSpaceOnUse">
<stop stop-color="#6091C8"/>
<stop offset="1" stop-color="#5183BB"/>
</linearGradient>
<linearGradient id="paint1_linear" x1="51" y1="0" x2="51" y2="102" gradientUnits="userSpaceOnUse">
<stop stop-color="#7DB3EF"/>
<stop offset="1" stop-color="#689BD5"/>
</linearGradient>
<linearGradient id="paint2_linear" x1="39" y1="0" x2="39" y2="78" gradientUnits="userSpaceOnUse">
<stop stop-color="#7DB3EF"/>
<stop offset="1" stop-color="#689BD5"/>
</linearGradient>
<linearGradient id="paint3_linear" x1="253.042" y1="130.154" x2="253.042" y2="215.516" gradientUnits="userSpaceOnUse">
<stop stop-color="#B0E7C6"/>
<stop offset="1" stop-color="#5DD1B3"/>
</linearGradient>
<linearGradient id="paint4_linear" x1="201.681" y1="79.5154" x2="201.681" y2="164.878" gradientUnits="userSpaceOnUse">
<stop stop-color="#BBDBFE"/>
<stop offset="1" stop-color="#84B9F2"/>
</linearGradient>
</defs>
</svg>
