<svg fill="none" height="287" viewBox="0 0 433 287" width="433" xmlns="http://www.w3.org/2000/svg" xmlns:xlink="http://www.w3.org/1999/xlink"><filter id="a" color-interpolation-filters="sRGB" filterUnits="userSpaceOnUse" height="262" width="331" x="56" y="24.5154"><feFlood flood-opacity="0" result="BackgroundImageFix"/><feColorMatrix in="SourceAlpha" result="hardAlpha" type="matrix" values="0 0 0 0 0 0 0 0 0 0 0 0 0 0 0 0 0 0 127 0"/><feOffset dy="9"/><feGaussianBlur stdDeviation="15"/><feColorMatrix type="matrix" values="0 0 0 0 0.148507 0 0 0 0 0.245771 0 0 0 0 0.391667 0 0 0 0.25 0"/><feBlend in2="BackgroundImageFix" mode="normal" result="effect1_dropShadow"/><feBlend in="SourceGraphic" in2="effect1_dropShadow" mode="normal" result="shape"/></filter><filter id="b" color-interpolation-filters="sRGB" filterUnits="userSpaceOnUse" height="172" width="172" x="0" y="72.5154"><feFlood flood-opacity="0" result="BackgroundImageFix"/><feColorMatrix in="SourceAlpha" result="hardAlpha" type="matrix" values="0 0 0 0 0 0 0 0 0 0 0 0 0 0 0 0 0 0 127 0"/><feOffset dx="2" dy="8"/><feGaussianBlur stdDeviation="17.5"/><feColorMatrix type="matrix" values="0 0 0 0 0 0 0 0 0 0.351917 0 0 0 0 0.429167 0 0 0 0.25 0"/><feBlend in2="BackgroundImageFix" mode="normal" result="effect1_dropShadow"/><feBlend in="SourceGraphic" in2="effect1_dropShadow" mode="normal" result="shape"/></filter><filter id="c" color-interpolation-filters="sRGB" filterUnits="userSpaceOnUse" height="148" width="148" x="285" y=".515381"><feFlood flood-opacity="0" result="BackgroundImageFix"/><feColorMatrix in="SourceAlpha" result="hardAlpha" type="matrix" values="0 0 0 0 0 0 0 0 0 0 0 0 0 0 0 0 0 0 127 0"/><feOffset dx="2" dy="8"/><feGaussianBlur stdDeviation="17.5"/><feColorMatrix type="matrix" values="0 0 0 0 0 0 0 0 0 0.351917 0 0 0 0 0.429167 0 0 0 0.15 0"/><feBlend in2="BackgroundImageFix" mode="normal" result="effect1_dropShadow"/><feBlend in="SourceGraphic" in2="effect1_dropShadow" mode="normal" result="shape"/></filter><filter id="d" color-interpolation-filters="sRGB" filterUnits="userSpaceOnUse" height="93.3622" width="93.3622" x="157" y="77.5154"><feFlood flood-opacity="0" result="BackgroundImageFix"/><feColorMatrix in="SourceAlpha" result="hardAlpha" type="matrix" values="0 0 0 0 0 0 0 0 0 0 0 0 0 0 0 0 0 0 127 0"/><feOffset dx="2" dy="2"/><feGaussianBlur stdDeviation="2"/><feColorMatrix type="matrix" values="0 0 0 0 0.0846528 0 0 0 0 0.150363 0 0 0 0 0.383333 0 0 0 0.25 0"/><feBlend in2="BackgroundImageFix" mode="normal" result="effect1_dropShadow"/><feBlend in="SourceGraphic" in2="effect1_dropShadow" mode="normal" result="shape"/></filter><linearGradient id="e" gradientUnits="userSpaceOnUse" x1="135.5" x2="135.5" y1="0" y2="202"><stop offset="0" stop-color="#6091c8"/><stop offset="1" stop-color="#5183bb"/></linearGradient><linearGradient id="f"><stop offset="0" stop-color="#7db3ef"/><stop offset="1" stop-color="#689bd5"/></linearGradient><linearGradient id="g" gradientUnits="userSpaceOnUse" x1="51" x2="51" xlink:href="#f" y1="0" y2="102"/><linearGradient id="h" gradientUnits="userSpaceOnUse" x1="39" x2="39" xlink:href="#f" y1="0" y2="78"/><linearGradient id="i" gradientUnits="userSpaceOnUse" x1="253.042" x2="253.042" y1="130.154" y2="215.516"><stop offset="0" stop-color="#b0e7c6"/><stop offset="1" stop-color="#5dd1b3"/></linearGradient><linearGradient id="j" gradientUnits="userSpaceOnUse" x1="201.681" x2="201.681" y1="79.5154" y2="164.878"><stop offset="0" stop-color="#bbdbfe"/><stop offset="1" stop-color="#84b9f2"/></linearGradient><g filter="url(#a)"><rect fill="url(#e)" height="202" rx="35" transform="matrix(-1 0 0 1 357 45.5154)" width="271"/></g><g filter="url(#b)"><rect fill="url(#g)" height="102" rx="25" transform="matrix(-1 0 0 1 135 99.5154)" width="102"/></g><g filter="url(#c)"><rect fill="url(#h)" height="78" rx="22" transform="matrix(-1 0 0 1 396 27.5154)" width="78"/></g><path d="m211.085 165.733v26.254c0 4.835 3.953 8.755 8.832 8.755h40.026l18.219 14.774v-14.774h8.005c4.878 0 8.833-3.92 8.833-8.755v-53.078c0-4.835-3.955-8.755-8.833-8.755h-41.394z" fill="url(#i)"/><g filter="url(#d)"><path d="m201.681 79.5154c-23.572 0-42.681 19.1092-42.681 42.6806 0 9.379 3.027 18.05 8.155 25.093l-5.261 11.559 13.021-3.404v-.005c7.321 5.902 16.63 9.439 26.766 9.439 23.572 0 42.681-19.11 42.681-42.682 0-23.5714-19.109-42.6806-42.681-42.6806z" fill="url(#j)"/></g><path clip-rule="evenodd" d="m253.113 150.252 2.929-.002 11.608 30.758-6.341 2.393-2.756-7.302h-5.44-5.42l-2.783 7.308-6.334-2.413 11.707-30.739 2.83-.003v.001zm0 11.616v.001l-2.838 7.452h2.838 2.882l-2.847-7.544-.035.092z" fill="#fff" fill-rule="evenodd"/><path clip-rule="evenodd" d="m219.265 110.725v6.715h-6.027c-.464 5.035-2.491 9.621-5.86 13.272 2.91 1.155 6.248 1.77 9.821 1.77v6.715c-5.833 0-11.252-1.352-15.697-3.864v-.002.002c-4.446 2.513-9.864 3.864-15.698 3.864h-2.49v-6.715h2.49c3.573 0 6.912-.615 9.822-1.77-3.37-3.651-5.397-8.237-5.86-13.271h-6.027v-6.716h14.405v-6.895h3.358v.002-.002h3.358v6.895zm-17.763 16.369v-.002c2.809-2.582 4.504-5.879 4.98-9.651h-4.98v-.002.002h-4.981c.477 3.772 2.172 7.069 4.981 9.652z" fill="#fff" fill-rule="evenodd"/><g fill="#b8d9fe"><path d="m103.529 153.368c.642.918 1.709 1.52 2.916 1.52 1.964 0 3.555-1.588 3.555-3.547 0-1.958-1.591-3.546-3.555-3.546-1.207 0-2.274.601-2.916 1.52h-17.497v-5.066h16.351c.539 0 1.055-.214 1.436-.594l4.063-4.053c.381-.38.595-.896.595-1.433v-6.198c.92-.64 1.523-1.704 1.523-2.909 0-1.959-1.591-3.547-3.555-3.547-1.963 0-3.554 1.588-3.554 3.547 0 1.205.603 2.269 1.523 2.909v5.359l-2.872 2.865h-15.51v-7.384c0-1.934-.7544-3.746-2.1239-5.103-1.3623-1.349-3.1767-2.092-5.1085-2.092-3.9411 0-7.156 3.189-7.2308 7.138h-.2608c-1.8041 0-3.4973.703-4.7678 1.979-1.2434 1.248-1.9218 2.896-1.9107 4.639.004.641.1026 1.273.2871 1.875-1.7941.48-3.4181 1.491-4.6464 2.908-1.4642 1.69-2.2702 3.851-2.2702 6.086 0 2.89 1.3265 5.477 3.4038 7.185-.876 1.242-1.7031 3.027-1.7031 5.348 0 4.598 3.7494 8.338 8.3577 8.338h.1778c.7519.001 1.4247.46 1.7142 1.169 1.2967 3.18 4.3328 5.234 7.735 5.234.0954 0 .1905-.001.2831-.004 2.1831-.067 4.2206-.981 5.7372-2.574 1.5-1.576 2.3259-3.642 2.3259-5.816 0-1.12-.9094-2.027-2.0312-2.027s-2.0312.907-2.0312 2.027c0 2.323-1.8502 4.27-4.1259 4.339-.0525.002-.105.002-.1583.002-1.7417 0-3.3008-1.063-3.9717-2.708-.9146-2.242-3.0626-3.692-5.4755-3.695h-.1798c-2.3679 0-4.2949-1.922-4.2949-4.285 0-1.66.7471-2.834 1.3273-3.495.7181.177 1.4685.272 2.2407.272 1.1218 0 2.0312-.907 2.0312-2.026 0-1.12-.9094-2.027-2.0312-2.027-2.9052 0-5.2688-2.358-5.2688-5.257 0-2.568 1.9143-4.802 4.4481-5.193l2.0001-.304c.7798-.119 1.42-.677 1.6427-1.432.2223-.755-.0131-1.57-.6048-2.091-.54-.475-.8522-1.159-.8569-1.874-.004-.657.2553-1.281.73-1.758.5023-.504 1.1723-.782 1.8861-.782h.4123c2.1561 0 3.9101-1.75 3.9101-3.901v-.011c0-1.779 1.422-3.226 3.1696-3.226 1.7775 0 3.1696 1.38 3.1696 3.142v27.662c0 1.119.9094 2.027 2.0312 2.027.0819 0 .1622-.007.2418-.016.021.001.0417.003.0628.003h17.338l2.873 2.866v5.518c-.978.632-1.625 1.729-1.625 2.977 0 1.959 1.591 3.547 3.554 3.547 1.964 0 3.555-1.588 3.555-3.547 0-1.16-.559-2.19-1.422-2.837v-6.497c0-.538-.214-1.053-.594-1.433l-4.063-4.054c-.381-.379-.898-.593-1.436-.593h-16.4534v-5.066z"/><path d="m337.289 71.3116 3.227-6.4525v-2.0677c-.001-10.0768 8.196-18.2754 18.271-18.276h.001c4.745 0 9.205 1.8476 12.56 5.2023 3.355 3.3552 5.203 7.816 5.203 12.5609v.0657c0 5.3288-2.235 10.3839-6.153 13.9663v11.8864c0 .7281-.59 1.3184-1.318 1.3184h-17.578c-.728 0-1.318-.5903-1.318-1.3184v-4.1308h-3.956c-2.18 0-3.955-1.7743-3.955-3.9551v-4.8335h-2.533c-1.511 0-2.74-1.2293-2.74-2.7404 0-.4231.1-.8469.289-1.2256zm2.452 1.3293h3.851c.728 0 1.318.5903 1.318 1.3184v6.1518c0 .7269.591 1.3183 1.319 1.3183h5.273c.728 0 1.318.5903 1.318 1.3184v4.1309h14.942v-11.1616c0-.385.168-.7507.46-1.0012 3.617-3.0991 5.692-7.6085 5.692-12.3716v-.0658c0-4.0406-1.573-7.8392-4.43-10.6964-2.857-2.8568-6.655-4.43-10.696-4.43h-.001c-8.621.0005-15.635 7.0162-15.635 15.6391v2.3789c0 .2048-.047.4066-.139.5897l-3.365 6.7309c-.008.0144-.011.0304-.011.0465 0 .0572.046.1037.104.1037z"/><path d="m346.902 59.0932c-.09-.3378-.043-.6976.132-1.0004l2.637-4.567c.175-.3027.463-.5237.8-.6142.338-.0905.698-.0432 1.001.1317l1.085.6269c.658-.4992 1.366-.9105 2.116-1.2305v-1.2446c0-.7281.59-1.3184 1.318-1.3184h5.274c.728 0 1.318.5903 1.318 1.3184v1.2445c.75.3201 1.457.7313 2.116 1.2305l1.085-.6269c.303-.1749.663-.2222 1.001-.1317.337.0904.625.3114.8.6143l2.637 4.5669c.175.3028.222.6627.132 1.0004-.091.3378-.312.6257-.615.8005l-1.081.6242c.051.4105.077.8198.077 1.2241 0 .4042-.026.8134-.077 1.224l1.081.6242c.303.1748.524.4628.615.8005.09.3378.043.6976-.132 1.0004l-2.637 4.567c-.175.3027-.463.5237-.8.6142-.338.0906-.698.0433-1.001-.1317l-1.085-.6269c-.659.4992-1.366.9105-2.116 1.2305v1.2447c0 .7281-.59 1.3184-1.318 1.3184h-5.274c-.728 0-1.318-.5903-1.318-1.3184v-1.2445c-.75-.32-1.458-.7314-2.116-1.2305l-1.085.6269c-.303.1748-.663.2221-1.001.1317s-.625-.3114-.8-.6143l-2.637-4.5669c-.175-.3028-.222-.6627-.132-1.0004.091-.3378.312-.6257.614-.8005l1.082-.6242c-.052-.4106-.078-.8198-.078-1.2241s.026-.8135.078-1.224l-1.082-.6242c-.302-.1749-.523-.4629-.614-.8006zm4.437 1.0273c-.121.5458-.182 1.0913-.182 1.6214 0 .5302.061 1.0757.182 1.6214.125.5618-.129 1.1393-.628 1.4269l-.734.4242 1.318 2.2835.74-.4273c.499-.288 1.126-.2189 1.551.1703.823.7557 1.766 1.3037 2.8 1.6288.55.1726.924.6819.924 1.2578v.843h2.636v-.8431c0-.5759.374-1.0852.924-1.2578 1.034-.325 1.977-.8731 2.8-1.6288.424-.3892 1.052-.4582 1.551-.1703l.74.4273 1.318-2.2835-.734-.4242c-.499-.2876-.753-.865-.629-1.4267.121-.5459.183-1.0915.183-1.6215 0-.5301-.062-1.0757-.183-1.6216-.124-.5617.13-1.1391.629-1.4267l.734-.4242-1.318-2.2835-.74.4273c-.499.288-1.126.2189-1.551-.1702-.823-.7557-1.766-1.3037-2.801-1.6288-.549-.1726-.923-.6819-.923-1.2578v-.843h-2.636v.8431c0 .5758-.374 1.0851-.924 1.2577-1.034.3252-1.977.8732-2.8 1.6288-.425.3891-1.052.4582-1.551.1702l-.74-.4273-1.318 2.2835.734.4242c.499.2877.753.8652.628 1.4269z"/><path d="m358.628 56.908c2.665 0 4.834 2.1685 4.834 4.8339 0 2.6655-2.169 4.834-4.834 4.834-2.666 0-4.834-2.1685-4.834-4.834 0-2.6654 2.168-4.8339 4.834-4.8339zm0 7.0312c1.211 0 2.197-.9857 2.197-2.1973 0-1.2115-.986-2.1972-2.197-2.1972-1.212 0-2.198.9857-2.198 2.1972 0 1.2116.986 2.1973 2.198 2.1973z"/></g></svg>