<svg width="486" height="167" viewBox="0 0 486 167" fill="none" xmlns="http://www.w3.org/2000/svg">
<g filter="url(#filter0_d)">
<rect x="321" y="11" width="141.45" height="43.05" rx="10" fill="white"/>
</g>
<path d="M338.324 27.781H341.468C342.868 27.781 343.952 28.153 344.72 28.897C345.496 29.641 345.884 30.689 345.884 32.041C345.884 33.401 345.496 34.457 344.72 35.209C343.952 35.953 342.868 36.325 341.468 36.325H338.324V27.781ZM341.372 35.065C343.34 35.065 344.324 34.057 344.324 32.041C344.324 30.041 343.34 29.041 341.372 29.041H339.872V35.065H341.372ZM352.911 33.373H348.735C348.767 34.021 348.927 34.501 349.215 34.813C349.511 35.117 349.947 35.269 350.523 35.269C351.187 35.269 351.803 35.053 352.371 34.621L352.803 35.653C352.515 35.885 352.159 36.073 351.735 36.217C351.319 36.353 350.895 36.421 350.463 36.421C349.471 36.421 348.691 36.141 348.123 35.581C347.555 35.021 347.271 34.253 347.271 33.277C347.271 32.661 347.395 32.113 347.643 31.633C347.891 31.153 348.239 30.781 348.687 30.517C349.135 30.245 349.643 30.109 350.211 30.109C351.043 30.109 351.699 30.381 352.179 30.925C352.667 31.461 352.911 32.201 352.911 33.145V33.373ZM350.247 31.189C349.847 31.189 349.519 31.309 349.263 31.549C349.015 31.781 348.855 32.121 348.783 32.569H351.603C351.555 32.113 351.415 31.769 351.183 31.537C350.959 31.305 350.647 31.189 350.247 31.189ZM357.887 30.109C358.407 30.109 358.867 30.245 359.267 30.517C359.675 30.781 359.991 31.157 360.215 31.645C360.447 32.125 360.563 32.677 360.563 33.301C360.563 33.925 360.451 34.473 360.227 34.945C360.003 35.417 359.687 35.781 359.279 36.037C358.879 36.293 358.415 36.421 357.887 36.421C357.447 36.421 357.055 36.329 356.711 36.145C356.367 35.953 356.103 35.689 355.919 35.353V38.917H354.431V31.981C354.431 31.341 354.399 30.769 354.335 30.265H355.739L355.859 31.309C356.019 30.933 356.279 30.641 356.639 30.433C356.999 30.217 357.415 30.109 357.887 30.109ZM357.479 35.245C357.983 35.245 358.371 35.077 358.643 34.741C358.915 34.405 359.051 33.925 359.051 33.301C359.051 32.669 358.915 32.177 358.643 31.825C358.371 31.465 357.987 31.285 357.491 31.285C356.979 31.285 356.587 31.457 356.315 31.801C356.043 32.145 355.907 32.637 355.907 33.277C355.907 33.909 356.043 34.397 356.315 34.741C356.587 35.077 356.975 35.245 357.479 35.245ZM364.871 36.421C364.255 36.421 363.711 36.293 363.239 36.037C362.775 35.781 362.415 35.417 362.159 34.945C361.911 34.465 361.787 33.905 361.787 33.265C361.787 32.625 361.911 32.069 362.159 31.597C362.415 31.117 362.775 30.749 363.239 30.493C363.711 30.237 364.255 30.109 364.871 30.109C365.479 30.109 366.015 30.237 366.479 30.493C366.943 30.749 367.299 31.117 367.547 31.597C367.803 32.069 367.931 32.625 367.931 33.265C367.931 33.905 367.803 34.465 367.547 34.945C367.299 35.417 366.943 35.781 366.479 36.037C366.015 36.293 365.479 36.421 364.871 36.421ZM364.859 35.245C365.371 35.245 365.759 35.081 366.023 34.753C366.295 34.417 366.431 33.921 366.431 33.265C366.431 32.617 366.295 32.125 366.023 31.789C365.751 31.445 365.367 31.273 364.871 31.273C364.367 31.273 363.979 31.445 363.707 31.789C363.435 32.125 363.299 32.617 363.299 33.265C363.299 33.921 363.431 34.417 363.695 34.753C363.967 35.081 364.355 35.245 364.859 35.245ZM371.694 36.421C370.598 36.421 369.726 36.165 369.078 35.653L369.498 34.597C370.146 35.077 370.886 35.317 371.718 35.317C372.078 35.317 372.354 35.257 372.546 35.137C372.746 35.017 372.846 34.849 372.846 34.633C372.846 34.449 372.778 34.305 372.642 34.201C372.506 34.089 372.274 33.993 371.946 33.913L370.938 33.685C369.834 33.445 369.282 32.881 369.282 31.993C369.282 31.625 369.386 31.301 369.594 31.021C369.802 30.733 370.094 30.509 370.47 30.349C370.846 30.189 371.282 30.109 371.778 30.109C372.21 30.109 372.626 30.177 373.026 30.313C373.426 30.441 373.778 30.629 374.082 30.877L373.638 31.897C373.03 31.449 372.406 31.225 371.766 31.225C371.422 31.225 371.154 31.289 370.962 31.417C370.77 31.545 370.674 31.721 370.674 31.945C370.674 32.121 370.73 32.261 370.842 32.365C370.962 32.469 371.162 32.557 371.442 32.629L372.474 32.857C373.074 32.993 373.51 33.205 373.782 33.493C374.062 33.773 374.202 34.141 374.202 34.597C374.202 35.157 373.978 35.601 373.53 35.929C373.082 36.257 372.47 36.421 371.694 36.421ZM375.736 30.265H377.224V36.325H375.736V30.265ZM377.308 27.517V28.993H375.64V27.517H377.308ZM381.023 31.393V34.105C381.023 34.817 381.355 35.173 382.019 35.173C382.203 35.173 382.403 35.141 382.619 35.077V36.265C382.355 36.361 382.035 36.409 381.659 36.409C380.971 36.409 380.443 36.217 380.075 35.833C379.707 35.449 379.523 34.897 379.523 34.177V31.393H378.359V30.265H379.523V28.789L381.023 28.285V30.265H382.631V31.393H381.023ZM389.363 31.393V34.105C389.363 34.817 389.695 35.173 390.359 35.173C390.543 35.173 390.743 35.141 390.959 35.077V36.265C390.695 36.361 390.375 36.409 389.999 36.409C389.311 36.409 388.783 36.217 388.415 35.833C388.047 35.449 387.863 34.897 387.863 34.177V31.393H386.699V30.265H387.863V28.789L389.363 28.285V30.265H390.971V31.393H389.363ZM398.093 30.265L395.273 36.733C394.953 37.485 394.545 38.033 394.049 38.377C393.553 38.721 392.941 38.949 392.213 39.061L391.877 37.909C392.445 37.781 392.869 37.617 393.149 37.417C393.437 37.225 393.669 36.937 393.845 36.553L394.037 36.109L391.517 30.265H393.089L394.829 34.621L396.605 30.265H398.093ZM402.579 30.109C403.099 30.109 403.559 30.245 403.959 30.517C404.367 30.781 404.683 31.157 404.907 31.645C405.139 32.125 405.255 32.677 405.255 33.301C405.255 33.925 405.143 34.473 404.919 34.945C404.695 35.417 404.379 35.781 403.971 36.037C403.571 36.293 403.107 36.421 402.579 36.421C402.139 36.421 401.747 36.329 401.403 36.145C401.059 35.953 400.795 35.689 400.611 35.353V38.917H399.123V31.981C399.123 31.341 399.091 30.769 399.027 30.265H400.431L400.551 31.309C400.711 30.933 400.971 30.641 401.331 30.433C401.691 30.217 402.107 30.109 402.579 30.109ZM402.171 35.245C402.675 35.245 403.063 35.077 403.335 34.741C403.607 34.405 403.743 33.925 403.743 33.301C403.743 32.669 403.607 32.177 403.335 31.825C403.063 31.465 402.679 31.285 402.183 31.285C401.671 31.285 401.279 31.457 401.007 31.801C400.735 32.145 400.599 32.637 400.599 33.277C400.599 33.909 400.735 34.397 401.007 34.741C401.279 35.077 401.667 35.245 402.171 35.245ZM412.118 33.373H407.942C407.974 34.021 408.134 34.501 408.422 34.813C408.718 35.117 409.154 35.269 409.73 35.269C410.394 35.269 411.01 35.053 411.578 34.621L412.01 35.653C411.722 35.885 411.366 36.073 410.942 36.217C410.526 36.353 410.102 36.421 409.67 36.421C408.678 36.421 407.898 36.141 407.33 35.581C406.762 35.021 406.478 34.253 406.478 33.277C406.478 32.661 406.602 32.113 406.85 31.633C407.098 31.153 407.446 30.781 407.894 30.517C408.342 30.245 408.85 30.109 409.418 30.109C410.25 30.109 410.906 30.381 411.386 30.925C411.874 31.461 412.118 32.201 412.118 33.145V33.373ZM409.454 31.189C409.054 31.189 408.726 31.309 408.47 31.549C408.222 31.781 408.062 32.121 407.99 32.569H410.81C410.762 32.113 410.622 31.769 410.39 31.537C410.166 31.305 409.854 31.189 409.454 31.189Z" fill="#00769D"/>
<circle opacity="0.2" cx="438.874" cy="32.525" r="7.175" transform="rotate(90 438.874 32.525)" fill="#00A0B6"/>
<path d="M438.874 35.6012L438.874 29.4512" stroke="#00A0B6" stroke-width="1.5" stroke-linecap="round"/>
<path d="M441.949 32.5261L438.874 35.6011L435.799 32.5261" stroke="#00A0B6" stroke-width="1.5" stroke-linecap="round" stroke-linejoin="round"/>
<g filter="url(#filter1_d)">
<rect x="13" y="69" width="105" height="80" rx="15" fill="white"/>
<rect x="13" y="69" width="105" height="80" rx="15" stroke="#00A0B6"/>
</g>
<path d="M40.2394 133.081C39.7474 133.081 39.2854 133.015 38.8534 132.883C38.4274 132.751 38.0644 132.562 37.7644 132.316L38.1604 131.47C38.4724 131.704 38.7964 131.878 39.1324 131.992C39.4744 132.1 39.8464 132.154 40.2484 132.154C40.6924 132.154 41.0344 132.076 41.2744 131.92C41.5204 131.764 41.6434 131.545 41.6434 131.263C41.6434 131.023 41.5294 130.84 41.3014 130.714C41.0794 130.582 40.7104 130.459 40.1944 130.345C39.3904 130.171 38.8054 129.946 38.4394 129.67C38.0734 129.394 37.8904 128.992 37.8904 128.464C37.8904 128.086 37.9924 127.75 38.1964 127.456C38.4004 127.162 38.6884 126.931 39.0604 126.763C39.4384 126.595 39.8734 126.511 40.3654 126.511C40.8154 126.511 41.2414 126.58 41.6434 126.718C42.0514 126.85 42.3844 127.036 42.6424 127.276L42.2554 128.122C41.6854 127.666 41.0554 127.438 40.3654 127.438C39.9514 127.438 39.6244 127.525 39.3844 127.699C39.1444 127.867 39.0244 128.098 39.0244 128.392C39.0244 128.644 39.1294 128.836 39.3394 128.968C39.5554 129.1 39.9214 129.223 40.4374 129.337C40.9714 129.463 41.4064 129.601 41.7424 129.751C42.0784 129.895 42.3364 130.084 42.5164 130.318C42.6964 130.546 42.7864 130.834 42.7864 131.182C42.7864 131.566 42.6844 131.902 42.4804 132.19C42.2764 132.472 41.9824 132.691 41.5984 132.847C41.2144 133.003 40.7614 133.081 40.2394 133.081ZM46.0924 133.072C45.6304 133.072 45.2224 132.976 44.8684 132.784C44.5204 132.592 44.2504 132.319 44.0584 131.965C43.8724 131.605 43.7794 131.185 43.7794 130.705C43.7794 130.225 43.8724 129.808 44.0584 129.454C44.2504 129.094 44.5204 128.818 44.8684 128.626C45.2224 128.434 45.6304 128.338 46.0924 128.338C46.5484 128.338 46.9504 128.434 47.2984 128.626C47.6464 128.818 47.9134 129.094 48.0994 129.454C48.2914 129.808 48.3874 130.225 48.3874 130.705C48.3874 131.185 48.2914 131.605 48.0994 131.965C47.9134 132.319 47.6464 132.592 47.2984 132.784C46.9504 132.976 46.5484 133.072 46.0924 133.072ZM46.0834 132.19C46.4674 132.19 46.7584 132.067 46.9564 131.821C47.1604 131.569 47.2624 131.197 47.2624 130.705C47.2624 130.219 47.1604 129.85 46.9564 129.598C46.7524 129.34 46.4644 129.211 46.0924 129.211C45.7144 129.211 45.4234 129.34 45.2194 129.598C45.0154 129.85 44.9134 130.219 44.9134 130.705C44.9134 131.197 45.0124 131.569 45.2104 131.821C45.4144 132.067 45.7054 132.19 46.0834 132.19ZM53.7476 128.455V133H52.6496V132.298C52.5056 132.55 52.3136 132.742 52.0736 132.874C51.8336 133.006 51.5576 133.072 51.2456 133.072C50.1356 133.072 49.5806 132.448 49.5806 131.2V128.455H50.6966V131.209C50.6966 131.539 50.7626 131.782 50.8946 131.938C51.0326 132.094 51.2426 132.172 51.5246 132.172C51.8546 132.172 52.1186 132.064 52.3166 131.848C52.5146 131.632 52.6136 131.344 52.6136 130.984V128.455H53.7476ZM57.6669 128.347C57.8409 128.347 57.9909 128.371 58.1169 128.419L58.1079 129.445C57.9159 129.367 57.7179 129.328 57.5139 129.328C57.1299 129.328 56.8359 129.439 56.6319 129.661C56.4339 129.883 56.3349 130.177 56.3349 130.543V133H55.2189V129.742C55.2189 129.262 55.1949 128.833 55.1469 128.455H56.1999L56.2899 129.256C56.4039 128.962 56.5839 128.737 56.8299 128.581C57.0759 128.425 57.3549 128.347 57.6669 128.347ZM60.9665 133.072C60.4925 133.072 60.0815 132.976 59.7335 132.784C59.3855 132.592 59.1185 132.322 58.9325 131.974C58.7465 131.62 58.6535 131.206 58.6535 130.732C58.6535 130.258 58.7495 129.841 58.9415 129.481C59.1395 129.121 59.4155 128.842 59.7695 128.644C60.1295 128.44 60.5435 128.338 61.0115 128.338C61.3355 128.338 61.6475 128.389 61.9475 128.491C62.2535 128.593 62.4965 128.734 62.6765 128.914L62.3615 129.706C62.1695 129.55 61.9655 129.433 61.7495 129.355C61.5335 129.271 61.3205 129.229 61.1105 129.229C60.7025 129.229 60.3845 129.358 60.1565 129.616C59.9285 129.868 59.8145 130.234 59.8145 130.714C59.8145 131.194 59.9255 131.56 60.1475 131.812C60.3755 132.064 60.6965 132.19 61.1105 132.19C61.3205 132.19 61.5335 132.148 61.7495 132.064C61.9655 131.98 62.1695 131.86 62.3615 131.704L62.6765 132.496C62.4845 132.676 62.2355 132.817 61.9295 132.919C61.6235 133.021 61.3025 133.072 60.9665 133.072ZM67.6598 130.786H64.5278C64.5518 131.272 64.6718 131.632 64.8878 131.866C65.1098 132.094 65.4368 132.208 65.8688 132.208C66.3668 132.208 66.8288 132.046 67.2548 131.722L67.5788 132.496C67.3628 132.67 67.0958 132.811 66.7778 132.919C66.4658 133.021 66.1478 133.072 65.8238 133.072C65.0798 133.072 64.4948 132.862 64.0688 132.442C63.6428 132.022 63.4298 131.446 63.4298 130.714C63.4298 130.252 63.5228 129.841 63.7088 129.481C63.8948 129.121 64.1558 128.842 64.4918 128.644C64.8278 128.44 65.2088 128.338 65.6348 128.338C66.2588 128.338 66.7508 128.542 67.1108 128.95C67.4768 129.352 67.6598 129.907 67.6598 130.615V130.786ZM65.6618 129.148C65.3618 129.148 65.1158 129.238 64.9238 129.418C64.7378 129.592 64.6178 129.847 64.5638 130.183H66.6788C66.6428 129.841 66.5378 129.583 66.3638 129.409C66.1958 129.235 65.9618 129.148 65.6618 129.148ZM74.5702 133.081C73.9402 133.081 73.3882 132.946 72.9142 132.676C72.4462 132.406 72.0862 132.025 71.8342 131.533C71.5822 131.035 71.4562 130.453 71.4562 129.787C71.4562 129.127 71.5822 128.551 71.8342 128.059C72.0862 127.561 72.4462 127.18 72.9142 126.916C73.3882 126.646 73.9402 126.511 74.5702 126.511C75.0022 126.511 75.4072 126.58 75.7852 126.718C76.1692 126.85 76.4872 127.036 76.7392 127.276L76.3612 128.122C76.0732 127.888 75.7852 127.72 75.4972 127.618C75.2152 127.51 74.9122 127.456 74.5882 127.456C73.9702 127.456 73.4902 127.657 73.1482 128.059C72.8122 128.461 72.6442 129.037 72.6442 129.787C72.6442 130.543 72.8122 131.125 73.1482 131.533C73.4842 131.935 73.9642 132.136 74.5882 132.136C74.9122 132.136 75.2152 132.085 75.4972 131.983C75.7852 131.875 76.0732 131.704 76.3612 131.47L76.7392 132.316C76.4872 132.556 76.1692 132.745 75.7852 132.883C75.4072 133.015 75.0022 133.081 74.5702 133.081ZM79.9665 133.072C79.5045 133.072 79.0965 132.976 78.7425 132.784C78.3945 132.592 78.1245 132.319 77.9325 131.965C77.7465 131.605 77.6535 131.185 77.6535 130.705C77.6535 130.225 77.7465 129.808 77.9325 129.454C78.1245 129.094 78.3945 128.818 78.7425 128.626C79.0965 128.434 79.5045 128.338 79.9665 128.338C80.4225 128.338 80.8245 128.434 81.1725 128.626C81.5205 128.818 81.7875 129.094 81.9735 129.454C82.1655 129.808 82.2615 130.225 82.2615 130.705C82.2615 131.185 82.1655 131.605 81.9735 131.965C81.7875 132.319 81.5205 132.592 81.1725 132.784C80.8245 132.976 80.4225 133.072 79.9665 133.072ZM79.9575 132.19C80.3415 132.19 80.6325 132.067 80.8305 131.821C81.0345 131.569 81.1365 131.197 81.1365 130.705C81.1365 130.219 81.0345 129.85 80.8305 129.598C80.6265 129.34 80.3385 129.211 79.9665 129.211C79.5885 129.211 79.2975 129.34 79.0935 129.598C78.8895 129.85 78.7875 130.219 78.7875 130.705C78.7875 131.197 78.8865 131.569 79.0845 131.821C79.2885 132.067 79.5795 132.19 79.9575 132.19ZM87.8286 126.376V133H86.7216V132.271C86.5836 132.523 86.3856 132.721 86.1276 132.865C85.8696 133.003 85.5756 133.072 85.2456 133.072C84.8556 133.072 84.5076 132.973 84.2016 132.775C83.8956 132.577 83.6556 132.298 83.4816 131.938C83.3136 131.572 83.2296 131.155 83.2296 130.687C83.2296 130.219 83.3136 129.808 83.4816 129.454C83.6496 129.1 83.8866 128.827 84.1926 128.635C84.4986 128.437 84.8496 128.338 85.2456 128.338C85.5696 128.338 85.8576 128.407 86.1096 128.545C86.3676 128.677 86.5656 128.866 86.7036 129.112V126.376H87.8286ZM85.5426 132.19C85.9146 132.19 86.2026 132.061 86.4066 131.803C86.6166 131.545 86.7216 131.179 86.7216 130.705C86.7216 130.231 86.6196 129.865 86.4156 129.607C86.2116 129.349 85.9236 129.22 85.5516 129.22C85.1736 129.22 84.8796 129.349 84.6696 129.607C84.4656 129.859 84.3636 130.219 84.3636 130.687C84.3636 131.161 84.4656 131.53 84.6696 131.794C84.8796 132.058 85.1706 132.19 85.5426 132.19ZM93.2819 130.786H90.1499C90.1739 131.272 90.2939 131.632 90.5099 131.866C90.7319 132.094 91.0589 132.208 91.4909 132.208C91.9889 132.208 92.4509 132.046 92.8769 131.722L93.2009 132.496C92.9849 132.67 92.7179 132.811 92.3999 132.919C92.0879 133.021 91.7699 133.072 91.4459 133.072C90.7019 133.072 90.1169 132.862 89.6909 132.442C89.2649 132.022 89.0519 131.446 89.0519 130.714C89.0519 130.252 89.1449 129.841 89.3309 129.481C89.5169 129.121 89.7779 128.842 90.1139 128.644C90.4499 128.44 90.8309 128.338 91.2569 128.338C91.8809 128.338 92.3729 128.542 92.7329 128.95C93.0989 129.352 93.2819 129.907 93.2819 130.615V130.786ZM91.2839 129.148C90.9839 129.148 90.7379 129.238 90.5459 129.418C90.3599 129.592 90.2399 129.847 90.1859 130.183H92.3009C92.2649 129.841 92.1599 129.583 91.9859 129.409C91.8179 129.235 91.5839 129.148 91.2839 129.148Z" fill="#00769D"/>
<path fill-rule="evenodd" clip-rule="evenodd" d="M68.0358 97.1435C68.3425 95.5835 69.6924 94.4598 71.2611 94.4587C72.8599 94.4885 74.2061 95.6793 74.4523 97.2814C74.6985 98.8835 73.7734 100.433 72.2594 100.955C71.8251 103.005 70.0381 104.469 67.9702 104.47H63.5822C62.6992 104.472 61.9037 105.012 61.5638 105.838C63.0289 106.451 63.8547 108.036 63.5284 109.609C63.2022 111.182 61.8165 112.296 60.2318 112.259C58.6471 112.221 57.3138 111.044 57.0596 109.458C56.8054 107.871 57.7027 106.326 59.1943 105.782V96.4832C57.6831 95.9414 56.7767 94.3746 57.0477 92.7727C57.3187 91.1709 58.6884 90 60.2913 90C61.8941 90 63.2638 91.1709 63.5348 92.7727C63.8059 94.3746 62.8994 95.9414 61.3882 96.4832V102.868C62.0508 102.464 62.8089 102.248 63.5822 102.245H67.9702C68.8572 102.247 69.6581 101.707 69.9996 100.877C68.5511 100.266 67.7292 98.7035 68.0358 97.1435ZM61.3889 93.3467C61.3889 92.7324 60.8977 92.2344 60.2919 92.2344C59.6861 92.2344 59.1949 92.7324 59.1949 93.3467C59.1949 93.961 59.6861 94.459 60.2919 94.459C60.8977 94.459 61.3889 93.961 61.3889 93.3467ZM60.2919 110.032C59.6861 110.032 59.1949 109.534 59.1949 108.919C59.1949 108.305 59.6861 107.807 60.2919 107.807C60.8977 107.807 61.3889 108.305 61.3889 108.919C61.3889 109.534 60.8977 110.032 60.2919 110.032ZM70.1656 97.7959C70.1656 98.4103 70.6568 98.9083 71.2626 98.9083C71.8685 98.9083 72.3596 98.4103 72.3596 97.7959C72.3596 97.1816 71.8685 96.6836 71.2626 96.6836C70.6568 96.6836 70.1656 97.1816 70.1656 97.7959Z" fill="#00A0B6"/>
<circle cx="105.762" cy="82.2374" r="5.6375" fill="#00A0B6"/>
<path d="M107.397 80.6547L105.279 82.7774L104.449 81.9412C104.197 81.689 103.787 81.689 103.535 81.9412C103.283 82.1934 103.283 82.6024 103.535 82.8546L104.822 84.141C104.943 84.2628 105.108 84.3313 105.279 84.3313C105.451 84.3313 105.615 84.2628 105.736 84.141L108.311 81.5681C108.563 81.3159 108.563 80.907 108.311 80.6547C108.058 80.4025 107.649 80.4025 107.397 80.6547Z" fill="white"/>
<g filter="url(#filter2_d)">
<rect x="128" y="69" width="104" height="80" rx="15" fill="white"/>
<rect x="128" y="69" width="104" height="80" rx="15" stroke="#00A0B6"/>
</g>
<path d="M166.259 117.592H168.617C169.667 117.592 170.48 117.871 171.056 118.429C171.638 118.987 171.929 119.773 171.929 120.787C171.929 121.807 171.638 122.599 171.056 123.163C170.48 123.721 169.667 124 168.617 124H166.259V117.592ZM168.545 123.055C170.021 123.055 170.759 122.299 170.759 120.787C170.759 119.287 170.021 118.537 168.545 118.537H167.42V123.055H168.545ZM177.63 119.455V124H176.523V123.271C176.385 123.523 176.187 123.721 175.929 123.865C175.671 124.003 175.377 124.072 175.047 124.072C174.651 124.072 174.3 123.976 173.994 123.784C173.688 123.592 173.451 123.319 173.283 122.965C173.115 122.611 173.031 122.2 173.031 121.732C173.031 121.264 173.115 120.85 173.283 120.49C173.457 120.124 173.697 119.842 174.003 119.644C174.309 119.44 174.657 119.338 175.047 119.338C175.377 119.338 175.671 119.41 175.929 119.554C176.187 119.692 176.385 119.887 176.523 120.139V119.455H177.63ZM175.353 123.19C175.725 123.19 176.013 123.061 176.217 122.803C176.421 122.545 176.523 122.182 176.523 121.714C176.523 121.234 176.421 120.865 176.217 120.607C176.013 120.349 175.722 120.22 175.344 120.22C174.972 120.22 174.681 120.355 174.471 120.625C174.267 120.889 174.165 121.258 174.165 121.732C174.165 122.2 174.267 122.56 174.471 122.812C174.681 123.064 174.975 123.19 175.353 123.19ZM180.536 120.301V122.335C180.536 122.869 180.785 123.136 181.283 123.136C181.421 123.136 181.571 123.112 181.733 123.064V123.955C181.535 124.027 181.295 124.063 181.013 124.063C180.497 124.063 180.101 123.919 179.825 123.631C179.549 123.343 179.411 122.929 179.411 122.389V120.301H178.538V119.455H179.411V118.348L180.536 117.97V119.455H181.742V120.301H180.536ZM187.113 119.455V124H186.006V123.271C185.868 123.523 185.67 123.721 185.412 123.865C185.154 124.003 184.86 124.072 184.53 124.072C184.134 124.072 183.783 123.976 183.477 123.784C183.171 123.592 182.934 123.319 182.766 122.965C182.598 122.611 182.514 122.2 182.514 121.732C182.514 121.264 182.598 120.85 182.766 120.49C182.94 120.124 183.18 119.842 183.486 119.644C183.792 119.44 184.14 119.338 184.53 119.338C184.86 119.338 185.154 119.41 185.412 119.554C185.67 119.692 185.868 119.887 186.006 120.139V119.455H187.113ZM184.836 123.19C185.208 123.19 185.496 123.061 185.7 122.803C185.904 122.545 186.006 122.182 186.006 121.714C186.006 121.234 185.904 120.865 185.7 120.607C185.496 120.349 185.205 120.22 184.827 120.22C184.455 120.22 184.164 120.355 183.954 120.625C183.75 120.889 183.648 121.258 183.648 121.732C183.648 122.2 183.75 122.56 183.954 122.812C184.164 123.064 184.458 123.19 184.836 123.19ZM190.471 124.531L192.802 117.223H193.765L191.416 124.531H190.471ZM158.367 126.592H160.725C161.775 126.592 162.588 126.871 163.164 127.429C163.746 127.987 164.037 128.773 164.037 129.787C164.037 130.807 163.746 131.599 163.164 132.163C162.588 132.721 161.775 133 160.725 133H158.367V126.592ZM160.653 132.055C162.129 132.055 162.867 131.299 162.867 129.787C162.867 128.287 162.129 127.537 160.653 127.537H159.528V132.055H160.653ZM169.738 128.455V133H168.631V132.271C168.493 132.523 168.295 132.721 168.037 132.865C167.779 133.003 167.485 133.072 167.155 133.072C166.759 133.072 166.408 132.976 166.102 132.784C165.796 132.592 165.559 132.319 165.391 131.965C165.223 131.611 165.139 131.2 165.139 130.732C165.139 130.264 165.223 129.85 165.391 129.49C165.565 129.124 165.805 128.842 166.111 128.644C166.417 128.44 166.765 128.338 167.155 128.338C167.485 128.338 167.779 128.41 168.037 128.554C168.295 128.692 168.493 128.887 168.631 129.139V128.455H169.738ZM167.461 132.19C167.833 132.19 168.121 132.061 168.325 131.803C168.529 131.545 168.631 131.182 168.631 130.714C168.631 130.234 168.529 129.865 168.325 129.607C168.121 129.349 167.83 129.22 167.452 129.22C167.08 129.22 166.789 129.355 166.579 129.625C166.375 129.889 166.273 130.258 166.273 130.732C166.273 131.2 166.375 131.56 166.579 131.812C166.789 132.064 167.083 132.19 167.461 132.19ZM172.644 129.301V131.335C172.644 131.869 172.893 132.136 173.391 132.136C173.529 132.136 173.679 132.112 173.841 132.064V132.955C173.643 133.027 173.403 133.063 173.121 133.063C172.605 133.063 172.209 132.919 171.933 132.631C171.657 132.343 171.519 131.929 171.519 131.389V129.301H170.646V128.455H171.519V127.348L172.644 126.97V128.455H173.85V129.301H172.644ZM179.22 128.455V133H178.113V132.271C177.975 132.523 177.777 132.721 177.519 132.865C177.261 133.003 176.967 133.072 176.637 133.072C176.241 133.072 175.89 132.976 175.584 132.784C175.278 132.592 175.041 132.319 174.873 131.965C174.705 131.611 174.621 131.2 174.621 130.732C174.621 130.264 174.705 129.85 174.873 129.49C175.047 129.124 175.287 128.842 175.593 128.644C175.899 128.44 176.247 128.338 176.637 128.338C176.967 128.338 177.261 128.41 177.519 128.554C177.777 128.692 177.975 128.887 178.113 129.139V128.455H179.22ZM176.943 132.19C177.315 132.19 177.603 132.061 177.807 131.803C178.011 131.545 178.113 131.182 178.113 130.714C178.113 130.234 178.011 129.865 177.807 129.607C177.603 129.349 177.312 129.22 176.934 129.22C176.562 129.22 176.271 129.355 176.061 129.625C175.857 129.889 175.755 130.258 175.755 130.732C175.755 131.2 175.857 131.56 176.061 131.812C176.271 132.064 176.565 132.19 176.943 132.19ZM183.288 128.338C183.684 128.338 184.032 128.437 184.332 128.635C184.638 128.827 184.875 129.1 185.043 129.454C185.211 129.808 185.295 130.219 185.295 130.687C185.295 131.155 185.208 131.572 185.034 131.938C184.866 132.298 184.629 132.577 184.323 132.775C184.023 132.973 183.678 133.072 183.288 133.072C182.952 133.072 182.652 133 182.388 132.856C182.13 132.712 181.935 132.511 181.803 132.253V133H180.696V126.376H181.812V129.139C181.95 128.887 182.148 128.692 182.406 128.554C182.664 128.41 182.958 128.338 183.288 128.338ZM182.991 132.19C183.363 132.19 183.651 132.058 183.855 131.794C184.059 131.53 184.161 131.161 184.161 130.687C184.161 130.219 184.059 129.859 183.855 129.607C183.651 129.349 183.36 129.22 182.982 129.22C182.604 129.22 182.313 129.349 182.109 129.607C181.905 129.865 181.803 130.231 181.803 130.705C181.803 131.185 181.905 131.554 182.109 131.812C182.313 132.064 182.607 132.19 182.991 132.19ZM190.874 128.455V133H189.767V132.271C189.629 132.523 189.431 132.721 189.173 132.865C188.915 133.003 188.621 133.072 188.291 133.072C187.895 133.072 187.544 132.976 187.238 132.784C186.932 132.592 186.695 132.319 186.527 131.965C186.359 131.611 186.275 131.2 186.275 130.732C186.275 130.264 186.359 129.85 186.527 129.49C186.701 129.124 186.941 128.842 187.247 128.644C187.553 128.44 187.901 128.338 188.291 128.338C188.621 128.338 188.915 128.41 189.173 128.554C189.431 128.692 189.629 128.887 189.767 129.139V128.455H190.874ZM188.597 132.19C188.969 132.19 189.257 132.061 189.461 131.803C189.665 131.545 189.767 131.182 189.767 130.714C189.767 130.234 189.665 129.865 189.461 129.607C189.257 129.349 188.966 129.22 188.588 129.22C188.216 129.22 187.925 129.355 187.715 129.625C187.511 129.889 187.409 130.258 187.409 130.732C187.409 131.2 187.511 131.56 187.715 131.812C187.925 132.064 188.219 132.19 188.597 132.19ZM194.014 133.072C193.192 133.072 192.538 132.88 192.052 132.496L192.367 131.704C192.853 132.064 193.408 132.244 194.032 132.244C194.302 132.244 194.509 132.199 194.653 132.109C194.803 132.019 194.878 131.893 194.878 131.731C194.878 131.593 194.827 131.485 194.725 131.407C194.623 131.323 194.449 131.251 194.203 131.191L193.447 131.02C192.619 130.84 192.205 130.417 192.205 129.751C192.205 129.475 192.283 129.232 192.439 129.022C192.595 128.806 192.814 128.638 193.096 128.518C193.378 128.398 193.705 128.338 194.077 128.338C194.401 128.338 194.713 128.389 195.013 128.491C195.313 128.587 195.577 128.728 195.805 128.914L195.472 129.679C195.016 129.343 194.548 129.175 194.068 129.175C193.81 129.175 193.609 129.223 193.465 129.319C193.321 129.415 193.249 129.547 193.249 129.715C193.249 129.847 193.291 129.952 193.375 130.03C193.465 130.108 193.615 130.174 193.825 130.228L194.599 130.399C195.049 130.501 195.376 130.66 195.58 130.876C195.79 131.086 195.895 131.362 195.895 131.704C195.895 132.124 195.727 132.457 195.391 132.703C195.055 132.949 194.596 133.072 194.014 133.072ZM201.086 130.786H197.954C197.978 131.272 198.098 131.632 198.314 131.866C198.536 132.094 198.863 132.208 199.295 132.208C199.793 132.208 200.255 132.046 200.681 131.722L201.005 132.496C200.789 132.67 200.522 132.811 200.204 132.919C199.892 133.021 199.574 133.072 199.25 133.072C198.506 133.072 197.921 132.862 197.495 132.442C197.069 132.022 196.856 131.446 196.856 130.714C196.856 130.252 196.949 129.841 197.135 129.481C197.321 129.121 197.582 128.842 197.918 128.644C198.254 128.44 198.635 128.338 199.061 128.338C199.685 128.338 200.177 128.542 200.537 128.95C200.903 129.352 201.086 129.907 201.086 130.615V130.786ZM199.088 129.148C198.788 129.148 198.542 129.238 198.35 129.418C198.164 129.592 198.044 129.847 197.99 130.183H200.105C200.069 129.841 199.964 129.583 199.79 129.409C199.622 129.235 199.388 129.148 199.088 129.148Z" fill="#00769D"/>
<circle cx="220.563" cy="82.2375" r="5.6375" fill="#00A0B6"/>
<path d="M222.198 80.6549L220.08 82.7775L219.25 81.9413C218.997 81.6891 218.588 81.6891 218.336 81.9413C218.083 82.1935 218.083 82.6025 218.336 82.8547L219.623 84.1411C219.744 84.2629 219.908 84.3314 220.08 84.3314C220.252 84.3314 220.416 84.2629 220.537 84.1411L223.111 81.5682C223.364 81.316 223.364 80.9071 223.111 80.6549C222.859 80.4026 222.45 80.4026 222.198 80.6549Z" fill="white"/>
<g filter="url(#filter3_d)">
<rect x="243" y="69" width="104" height="80" rx="15" fill="#F9FCFF"/>
</g>
<path d="M270.693 126.592H271.854V133H270.693V126.592ZM276.012 128.338C277.098 128.338 277.641 128.962 277.641 130.21V133H276.516V130.264C276.516 129.904 276.447 129.643 276.309 129.481C276.171 129.313 275.958 129.229 275.67 129.229C275.328 129.229 275.052 129.34 274.842 129.562C274.632 129.778 274.527 130.066 274.527 130.426V133H273.411V129.742C273.411 129.262 273.387 128.833 273.339 128.455H274.392L274.473 129.202C274.629 128.926 274.839 128.713 275.103 128.563C275.373 128.413 275.676 128.338 276.012 128.338ZM281.235 127.267C280.749 127.267 280.506 127.534 280.506 128.068V128.455H281.523V129.301H280.506V133H279.381V129.301H278.517V128.455H279.381V128.014C279.381 127.474 279.516 127.06 279.786 126.772C280.062 126.478 280.455 126.331 280.965 126.331C281.247 126.331 281.484 126.367 281.676 126.439V127.33C281.508 127.288 281.361 127.267 281.235 127.267ZM284.655 133.072C284.193 133.072 283.785 132.976 283.431 132.784C283.083 132.592 282.813 132.319 282.621 131.965C282.435 131.605 282.342 131.185 282.342 130.705C282.342 130.225 282.435 129.808 282.621 129.454C282.813 129.094 283.083 128.818 283.431 128.626C283.785 128.434 284.193 128.338 284.655 128.338C285.111 128.338 285.513 128.434 285.861 128.626C286.209 128.818 286.476 129.094 286.662 129.454C286.854 129.808 286.95 130.225 286.95 130.705C286.95 131.185 286.854 131.605 286.662 131.965C286.476 132.319 286.209 132.592 285.861 132.784C285.513 132.976 285.111 133.072 284.655 133.072ZM284.646 132.19C285.03 132.19 285.321 132.067 285.519 131.821C285.723 131.569 285.825 131.197 285.825 130.705C285.825 130.219 285.723 129.85 285.519 129.598C285.315 129.34 285.027 129.211 284.655 129.211C284.277 129.211 283.986 129.34 283.782 129.598C283.578 129.85 283.476 130.219 283.476 130.705C283.476 131.197 283.575 131.569 283.773 131.821C283.977 132.067 284.268 132.19 284.646 132.19ZM290.619 128.347C290.793 128.347 290.943 128.371 291.069 128.419L291.06 129.445C290.868 129.367 290.67 129.328 290.466 129.328C290.082 129.328 289.788 129.439 289.584 129.661C289.386 129.883 289.287 130.177 289.287 130.543V133H288.171V129.742C288.171 129.262 288.147 128.833 288.099 128.455H289.152L289.242 129.256C289.356 128.962 289.536 128.737 289.782 128.581C290.028 128.425 290.307 128.347 290.619 128.347ZM297.309 128.338C297.825 128.338 298.209 128.494 298.461 128.806C298.713 129.112 298.839 129.58 298.839 130.21V133H297.714V130.246C297.714 129.886 297.654 129.628 297.534 129.472C297.42 129.31 297.228 129.229 296.958 129.229C296.646 129.229 296.4 129.34 296.22 129.562C296.046 129.778 295.959 130.078 295.959 130.462V133H294.834V130.246C294.834 129.892 294.771 129.634 294.645 129.472C294.525 129.31 294.333 129.229 294.069 129.229C293.757 129.229 293.511 129.34 293.331 129.562C293.151 129.778 293.061 130.078 293.061 130.462V133H291.945V129.742C291.945 129.262 291.921 128.833 291.873 128.455H292.926L293.007 129.175C293.139 128.905 293.328 128.698 293.574 128.554C293.826 128.41 294.114 128.338 294.438 128.338C295.134 128.338 295.587 128.626 295.797 129.202C295.941 128.932 296.145 128.722 296.409 128.572C296.679 128.416 296.979 128.338 297.309 128.338ZM304.637 128.455V133H303.53V132.271C303.392 132.523 303.194 132.721 302.936 132.865C302.678 133.003 302.384 133.072 302.054 133.072C301.658 133.072 301.307 132.976 301.001 132.784C300.695 132.592 300.458 132.319 300.29 131.965C300.122 131.611 300.038 131.2 300.038 130.732C300.038 130.264 300.122 129.85 300.29 129.49C300.464 129.124 300.704 128.842 301.01 128.644C301.316 128.44 301.664 128.338 302.054 128.338C302.384 128.338 302.678 128.41 302.936 128.554C303.194 128.692 303.392 128.887 303.53 129.139V128.455H304.637ZM302.36 132.19C302.732 132.19 303.02 132.061 303.224 131.803C303.428 131.545 303.53 131.182 303.53 130.714C303.53 130.234 303.428 129.865 303.224 129.607C303.02 129.349 302.729 129.22 302.351 129.22C301.979 129.22 301.688 129.355 301.478 129.625C301.274 129.889 301.172 130.258 301.172 130.732C301.172 131.2 301.274 131.56 301.478 131.812C301.688 132.064 301.982 132.19 302.36 132.19ZM307.543 129.301V131.335C307.543 131.869 307.792 132.136 308.29 132.136C308.428 132.136 308.578 132.112 308.74 132.064V132.955C308.542 133.027 308.302 133.063 308.02 133.063C307.504 133.063 307.108 132.919 306.832 132.631C306.556 132.343 306.418 131.929 306.418 131.389V129.301H305.545V128.455H306.418V127.348L307.543 126.97V128.455H308.749V129.301H307.543ZM309.772 128.455H310.888V133H309.772V128.455ZM310.951 126.394V127.501H309.7V126.394H310.951ZM314.43 133.072C313.968 133.072 313.56 132.976 313.206 132.784C312.858 132.592 312.588 132.319 312.396 131.965C312.21 131.605 312.117 131.185 312.117 130.705C312.117 130.225 312.21 129.808 312.396 129.454C312.588 129.094 312.858 128.818 313.206 128.626C313.56 128.434 313.968 128.338 314.43 128.338C314.886 128.338 315.288 128.434 315.636 128.626C315.984 128.818 316.251 129.094 316.437 129.454C316.629 129.808 316.725 130.225 316.725 130.705C316.725 131.185 316.629 131.605 316.437 131.965C316.251 132.319 315.984 132.592 315.636 132.784C315.288 132.976 314.886 133.072 314.43 133.072ZM314.421 132.19C314.805 132.19 315.096 132.067 315.294 131.821C315.498 131.569 315.6 131.197 315.6 130.705C315.6 130.219 315.498 129.85 315.294 129.598C315.09 129.34 314.802 129.211 314.43 129.211C314.052 129.211 313.761 129.34 313.557 129.598C313.353 129.85 313.251 130.219 313.251 130.705C313.251 131.197 313.35 131.569 313.548 131.821C313.752 132.067 314.043 132.19 314.421 132.19ZM320.546 128.338C321.632 128.338 322.175 128.962 322.175 130.21V133H321.05V130.264C321.05 129.904 320.981 129.643 320.843 129.481C320.705 129.313 320.492 129.229 320.204 129.229C319.862 129.229 319.586 129.34 319.376 129.562C319.166 129.778 319.061 130.066 319.061 130.426V133H317.945V129.742C317.945 129.262 317.921 128.833 317.873 128.455H318.926L319.007 129.202C319.163 128.926 319.373 128.713 319.637 128.563C319.907 128.413 320.21 128.338 320.546 128.338Z" fill="#00769D"/>
<circle cx="335.362" cy="82.2375" r="5.6375" fill="#E1EBF4"/>
<g filter="url(#filter4_d)">
<rect x="357" y="69" width="105" height="80" rx="15" fill="#F9FCFF"/>
</g>
<path d="M397.537 133.081C396.919 133.081 396.379 132.949 395.917 132.685C395.461 132.415 395.107 132.034 394.855 131.542C394.609 131.044 394.486 130.459 394.486 129.787C394.486 129.121 394.609 128.542 394.855 128.05C395.101 127.552 395.452 127.171 395.908 126.907C396.37 126.643 396.913 126.511 397.537 126.511C398.161 126.511 398.701 126.643 399.157 126.907C399.619 127.171 399.97 127.552 400.21 128.05C400.456 128.542 400.579 129.121 400.579 129.787C400.579 130.459 400.456 131.044 400.21 131.542C399.964 132.034 399.613 132.415 399.157 132.685C398.701 132.949 398.161 133.081 397.537 133.081ZM397.537 132.154C398.131 132.154 398.593 131.95 398.923 131.542C399.253 131.134 399.418 130.549 399.418 129.787C399.418 129.031 399.253 128.452 398.923 128.05C398.593 127.642 398.131 127.438 397.537 127.438C396.943 127.438 396.481 127.639 396.151 128.041C395.821 128.443 395.656 129.025 395.656 129.787C395.656 130.549 395.821 131.134 396.151 131.542C396.481 131.95 396.943 132.154 397.537 132.154ZM403.368 129.301V131.335C403.368 131.869 403.617 132.136 404.115 132.136C404.253 132.136 404.403 132.112 404.565 132.064V132.955C404.367 133.027 404.127 133.063 403.845 133.063C403.329 133.063 402.933 132.919 402.657 132.631C402.381 132.343 402.243 131.929 402.243 131.389V129.301H401.37V128.455H402.243V127.348L403.368 126.97V128.455H404.574V129.301H403.368ZM408.198 128.338C409.284 128.338 409.827 128.962 409.827 130.21V133H408.702V130.264C408.702 129.904 408.633 129.643 408.495 129.481C408.357 129.313 408.144 129.229 407.856 129.229C407.514 129.229 407.238 129.34 407.028 129.562C406.818 129.778 406.713 130.066 406.713 130.426V133H405.597V126.376H406.713V129.112C406.869 128.866 407.076 128.677 407.334 128.545C407.592 128.407 407.88 128.338 408.198 128.338ZM415.248 130.786H412.116C412.14 131.272 412.26 131.632 412.476 131.866C412.698 132.094 413.025 132.208 413.457 132.208C413.955 132.208 414.417 132.046 414.843 131.722L415.167 132.496C414.951 132.67 414.684 132.811 414.366 132.919C414.054 133.021 413.736 133.072 413.412 133.072C412.668 133.072 412.083 132.862 411.657 132.442C411.231 132.022 411.018 131.446 411.018 130.714C411.018 130.252 411.111 129.841 411.297 129.481C411.483 129.121 411.744 128.842 412.08 128.644C412.416 128.44 412.797 128.338 413.223 128.338C413.847 128.338 414.339 128.542 414.699 128.95C415.065 129.352 415.248 129.907 415.248 130.615V130.786ZM413.25 129.148C412.95 129.148 412.704 129.238 412.512 129.418C412.326 129.592 412.206 129.847 412.152 130.183H414.267C414.231 129.841 414.126 129.583 413.952 129.409C413.784 129.235 413.55 129.148 413.25 129.148ZM418.899 128.347C419.073 128.347 419.223 128.371 419.349 128.419L419.34 129.445C419.148 129.367 418.95 129.328 418.746 129.328C418.362 129.328 418.068 129.439 417.864 129.661C417.666 129.883 417.567 130.177 417.567 130.543V133H416.451V129.742C416.451 129.262 416.427 128.833 416.379 128.455H417.432L417.522 129.256C417.636 128.962 417.816 128.737 418.062 128.581C418.308 128.425 418.587 128.347 418.899 128.347ZM421.846 133.072C421.024 133.072 420.37 132.88 419.884 132.496L420.199 131.704C420.685 132.064 421.24 132.244 421.864 132.244C422.134 132.244 422.341 132.199 422.485 132.109C422.635 132.019 422.71 131.893 422.71 131.731C422.71 131.593 422.659 131.485 422.557 131.407C422.455 131.323 422.281 131.251 422.035 131.191L421.279 131.02C420.451 130.84 420.037 130.417 420.037 129.751C420.037 129.475 420.115 129.232 420.271 129.022C420.427 128.806 420.646 128.638 420.928 128.518C421.21 128.398 421.537 128.338 421.909 128.338C422.233 128.338 422.545 128.389 422.845 128.491C423.145 128.587 423.409 128.728 423.637 128.914L423.304 129.679C422.848 129.343 422.38 129.175 421.9 129.175C421.642 129.175 421.441 129.223 421.297 129.319C421.153 129.415 421.081 129.547 421.081 129.715C421.081 129.847 421.123 129.952 421.207 130.03C421.297 130.108 421.447 130.174 421.657 130.228L422.431 130.399C422.881 130.501 423.208 130.66 423.412 130.876C423.622 131.086 423.727 131.362 423.727 131.704C423.727 132.124 423.559 132.457 423.223 132.703C422.887 132.949 422.428 133.072 421.846 133.072Z" fill="#00769D"/>
<circle cx="450.163" cy="82.2375" r="5.6375" fill="#E1EBF4"/>
<path fill-rule="evenodd" clip-rule="evenodd" d="M188.642 98.9465C188.642 97.7586 187.677 96.7956 186.485 96.7956H180.014C178.823 96.7956 177.857 97.7586 177.857 98.9465H174.621V95.7202H177.134C179.07 95.7234 180.723 94.3263 181.036 92.4215C181.35 90.5166 180.232 88.6662 178.396 88.0523C177.384 85.9484 175.127 84.7352 172.808 85.0491C170.49 85.3629 168.638 87.1321 168.226 89.4289C166.717 89.9233 165.791 91.4365 166.04 93.0004C166.29 94.5644 167.641 95.7166 169.229 95.7202H172.464V104.324C172.464 104.918 172.947 105.399 173.543 105.399H177.857C177.857 106.587 178.823 107.55 180.014 107.55H186.485C187.677 107.55 188.642 106.587 188.642 105.399V103.248C188.638 102.87 188.534 102.499 188.34 102.173C188.534 101.847 188.638 101.476 188.642 101.097V98.9465ZM169.229 93.5695C168.633 93.5695 168.15 93.088 168.15 92.4941C168.15 91.9001 168.633 91.4186 169.229 91.4186C169.824 91.4186 170.307 90.9371 170.307 90.3432C170.289 88.7578 171.429 87.3943 172.996 87.1267C174.564 86.8591 176.094 87.7667 176.606 89.2678C176.735 89.6401 177.057 89.9124 177.447 89.9775C178.323 90.1221 178.958 90.8884 178.935 91.7735C178.935 92.7654 178.129 93.5695 177.134 93.5695H169.229ZM174.622 103.248H177.858C177.862 102.869 177.966 102.498 178.16 102.173C177.966 101.847 177.862 101.476 177.858 101.097H174.622V103.248ZM180.014 105.399V103.248H186.485V105.399H180.014ZM180.014 98.9465V101.097H186.485V98.9465H180.014Z" fill="#00A0B6"/>
<path fill-rule="evenodd" clip-rule="evenodd" d="M303.023 97.2363C303.054 97.3313 303.076 97.4295 303.087 97.5292V97.5943V108.443C303.087 110.241 301.652 111.698 299.883 111.698H289.204C287.434 111.698 286 110.241 286 108.443V93.2547C286 91.4572 287.434 90 289.204 90H295.665C295.789 90.0156 295.909 90.0561 296.017 90.1193C296.049 90.1147 296.081 90.1147 296.113 90.1193C296.223 90.1715 296.324 90.2411 296.412 90.3255L302.82 96.8349C302.903 96.9245 302.971 97.0271 303.023 97.1386V97.2363ZM299.444 96.5096L296.678 93.6997V95.4247C296.678 96.0239 297.156 96.5096 297.746 96.5096H299.444ZM300.951 108.443C300.951 109.043 300.473 109.528 299.883 109.528H289.204C288.614 109.528 288.136 109.043 288.136 108.443V93.2548C288.136 92.6557 288.614 92.1699 289.204 92.1699H294.544V95.4246C294.544 97.2221 295.978 98.6793 297.747 98.6793H300.951V108.443ZM293.476 104.744L296.99 101.164C297.408 100.738 298.087 100.738 298.506 101.164C298.925 101.589 298.925 102.279 298.506 102.704L294.234 107.044C294.034 107.249 293.761 107.365 293.476 107.365C293.192 107.365 292.919 107.249 292.718 107.044L290.582 104.874C290.163 104.448 290.163 103.759 290.582 103.333C291.001 102.908 291.68 102.908 292.099 103.333L293.476 104.744Z" fill="#00A0B6"/>
<path d="M419.756 100.094H417.162V97.4312C417.162 97.0164 416.818 96.6812 416.393 96.6812H408.826L406.008 94.0516C405.972 94.0188 405.925 94.0004 405.876 94H399.769C399.344 94 399 94.3352 399 94.75V108.625C399 109.04 399.344 109.375 399.769 109.375H416.537C416.849 109.375 417.133 109.19 417.251 108.906L420.47 101.125C420.506 101.036 420.525 100.94 420.525 100.844C420.525 100.429 420.181 100.094 419.756 100.094ZM400.73 95.6875H405.258L408.131 98.3688H415.432V100.094H403.18C402.868 100.094 402.584 100.279 402.467 100.562L400.73 104.763V95.6875ZM415.992 107.688H401.282L403.764 101.688H418.476L415.992 107.688Z" fill="#00A0B6"/>
<defs>
<filter id="filter0_d" x="304" y="0" width="181.45" height="83.05" filterUnits="userSpaceOnUse" color-interpolation-filters="sRGB">
<feFlood flood-opacity="0" result="BackgroundImageFix"/>
<feColorMatrix in="SourceAlpha" type="matrix" values="0 0 0 0 0 0 0 0 0 0 0 0 0 0 0 0 0 0 127 0"/>
<feOffset dx="3" dy="9"/>
<feGaussianBlur stdDeviation="10"/>
<feColorMatrix type="matrix" values="0 0 0 0 0 0 0 0 0 0.351917 0 0 0 0 0.429167 0 0 0 0.1 0"/>
<feBlend mode="normal" in2="BackgroundImageFix" result="effect1_dropShadow"/>
<feBlend mode="normal" in="SourceGraphic" in2="effect1_dropShadow" result="shape"/>
</filter>
<filter id="filter1_d" x="0.5" y="61.5" width="130" height="105" filterUnits="userSpaceOnUse" color-interpolation-filters="sRGB">
<feFlood flood-opacity="0" result="BackgroundImageFix"/>
<feColorMatrix in="SourceAlpha" type="matrix" values="0 0 0 0 0 0 0 0 0 0 0 0 0 0 0 0 0 0 127 0"/>
<feOffset dy="5"/>
<feGaussianBlur stdDeviation="6"/>
<feColorMatrix type="matrix" values="0 0 0 0 0 0 0 0 0 0.351917 0 0 0 0 0.429167 0 0 0 0.08 0"/>
<feBlend mode="normal" in2="BackgroundImageFix" result="effect1_dropShadow"/>
<feBlend mode="normal" in="SourceGraphic" in2="effect1_dropShadow" result="shape"/>
</filter>
<filter id="filter2_d" x="115.5" y="61.5" width="129" height="105" filterUnits="userSpaceOnUse" color-interpolation-filters="sRGB">
<feFlood flood-opacity="0" result="BackgroundImageFix"/>
<feColorMatrix in="SourceAlpha" type="matrix" values="0 0 0 0 0 0 0 0 0 0 0 0 0 0 0 0 0 0 127 0"/>
<feOffset dy="5"/>
<feGaussianBlur stdDeviation="6"/>
<feColorMatrix type="matrix" values="0 0 0 0 0 0 0 0 0 0.351917 0 0 0 0 0.429167 0 0 0 0.08 0"/>
<feBlend mode="normal" in2="BackgroundImageFix" result="effect1_dropShadow"/>
<feBlend mode="normal" in="SourceGraphic" in2="effect1_dropShadow" result="shape"/>
</filter>
<filter id="filter3_d" x="231" y="62" width="128" height="104" filterUnits="userSpaceOnUse" color-interpolation-filters="sRGB">
<feFlood flood-opacity="0" result="BackgroundImageFix"/>
<feColorMatrix in="SourceAlpha" type="matrix" values="0 0 0 0 0 0 0 0 0 0 0 0 0 0 0 0 0 0 127 0"/>
<feOffset dy="5"/>
<feGaussianBlur stdDeviation="6"/>
<feColorMatrix type="matrix" values="0 0 0 0 0 0 0 0 0 0.351917 0 0 0 0 0.429167 0 0 0 0.08 0"/>
<feBlend mode="normal" in2="BackgroundImageFix" result="effect1_dropShadow"/>
<feBlend mode="normal" in="SourceGraphic" in2="effect1_dropShadow" result="shape"/>
</filter>
<filter id="filter4_d" x="345" y="62" width="129" height="104" filterUnits="userSpaceOnUse" color-interpolation-filters="sRGB">
<feFlood flood-opacity="0" result="BackgroundImageFix"/>
<feColorMatrix in="SourceAlpha" type="matrix" values="0 0 0 0 0 0 0 0 0 0 0 0 0 0 0 0 0 0 127 0"/>
<feOffset dy="5"/>
<feGaussianBlur stdDeviation="6"/>
<feColorMatrix type="matrix" values="0 0 0 0 0 0 0 0 0 0.351917 0 0 0 0 0.429167 0 0 0 0.08 0"/>
<feBlend mode="normal" in2="BackgroundImageFix" result="effect1_dropShadow"/>
<feBlend mode="normal" in="SourceGraphic" in2="effect1_dropShadow" result="shape"/>
</filter>
</defs>
</svg>
