<svg fill="none" height="161" viewBox="0 0 428 161" width="428" xmlns="http://www.w3.org/2000/svg" xmlns:xlink="http://www.w3.org/1999/xlink"><filter id="a" color-interpolation-filters="sRGB" filterUnits="userSpaceOnUse" height="126" width="126" x="302" y="34"><feFlood flood-opacity="0" result="BackgroundImageFix"/><feColorMatrix in="SourceAlpha" type="matrix" values="0 0 0 0 0 0 0 0 0 0 0 0 0 0 0 0 0 0 127 0"/><feOffset dy="5"/><feGaussianBlur stdDeviation="6"/><feColorMatrix type="matrix" values="0 0 0 0 0 0 0 0 0 0.351917 0 0 0 0 0.429167 0 0 0 0.08 0"/><feBlend in2="BackgroundImageFix" mode="normal" result="effect1_dropShadow"/><feBlend in="SourceGraphic" in2="effect1_dropShadow" mode="normal" result="shape"/></filter><filter id="b" color-interpolation-filters="sRGB" filterUnits="userSpaceOnUse" height="126" width="126" x="190" y="34"><feFlood flood-opacity="0" result="BackgroundImageFix"/><feColorMatrix in="SourceAlpha" type="matrix" values="0 0 0 0 0 0 0 0 0 0 0 0 0 0 0 0 0 0 127 0"/><feOffset dy="5"/><feGaussianBlur stdDeviation="6"/><feColorMatrix type="matrix" values="0 0 0 0 0 0 0 0 0 0.351917 0 0 0 0 0.429167 0 0 0 0.08 0"/><feBlend in2="BackgroundImageFix" mode="normal" result="effect1_dropShadow"/><feBlend in="SourceGraphic" in2="effect1_dropShadow" mode="normal" result="shape"/></filter><filter id="c" color-interpolation-filters="sRGB" filterUnits="userSpaceOnUse" height="127" width="127" x="77.5" y="33.5"><feFlood flood-opacity="0" result="BackgroundImageFix"/><feColorMatrix in="SourceAlpha" type="matrix" values="0 0 0 0 0 0 0 0 0 0 0 0 0 0 0 0 0 0 127 0"/><feOffset dy="5"/><feGaussianBlur stdDeviation="6"/><feColorMatrix type="matrix" values="0 0 0 0 0 0 0 0 0 0.351917 0 0 0 0 0.429167 0 0 0 0.08 0"/><feBlend in2="BackgroundImageFix" mode="normal" result="effect1_dropShadow"/><feBlend in="SourceGraphic" in2="effect1_dropShadow" mode="normal" result="shape"/></filter><filter id="d" color-interpolation-filters="sRGB" filterUnits="userSpaceOnUse" height="82" width="178" x="0" y="0"><feFlood flood-opacity="0" result="BackgroundImageFix"/><feColorMatrix in="SourceAlpha" type="matrix" values="0 0 0 0 0 0 0 0 0 0 0 0 0 0 0 0 0 0 127 0"/><feOffset dx="3" dy="9"/><feGaussianBlur stdDeviation="10"/><feColorMatrix type="matrix" values="0 0 0 0 0 0 0 0 0 0.351917 0 0 0 0 0.429167 0 0 0 0.1 0"/><feBlend in2="BackgroundImageFix" mode="normal" result="effect1_dropShadow"/><feBlend in="SourceGraphic" in2="effect1_dropShadow" mode="normal" result="shape"/></filter><g filter="url(#a)"><rect fill="#f9fcff" height="102" rx="15" width="102" x="314" y="41"/></g><path d="m352.242 115.497h-3.132l-.648 1.503h-1.17l2.898-6.408h.945l2.907 6.408h-1.161zm-.387-.9-1.179-2.745-1.179 2.745zm7.396-4.221v6.624h-1.107v-.729c-.138.252-.336.45-.594.594-.258.138-.552.207-.882.207-.39 0-.738-.099-1.044-.297s-.546-.477-.72-.837c-.168-.366-.252-.783-.252-1.251s.084-.879.252-1.233.405-.627.711-.819c.306-.198.657-.297 1.053-.297.324 0 .612.069.864.207.258.132.456.321.594.567v-2.736zm-2.286 5.814c.372 0 .66-.129.864-.387.21-.258.315-.624.315-1.098s-.102-.84-.306-1.098-.492-.387-.864-.387c-.378 0-.672.129-.882.387-.204.252-.306.612-.306 1.08 0 .474.102.843.306 1.107.21.264.501.396.873.396zm8.064-3.726-1.989 4.536h-.981l-1.962-4.536h1.179l1.305 3.258 1.332-3.258zm.834-.009h1.116v4.545h-1.116zm1.179-2.061v1.107h-1.251v-1.107zm3.083 6.678c-.822 0-1.476-.192-1.962-.576l.315-.792c.486.36 1.041.54 1.665.54.27 0 .477-.045.621-.135.15-.09.225-.216.225-.378 0-.138-.051-.246-.153-.324-.102-.084-.276-.156-.522-.216l-.756-.171c-.828-.18-1.242-.603-1.242-1.269 0-.276.078-.519.234-.729.156-.216.375-.384.657-.504s.609-.18.981-.18c.324 0 .636.051.936.153.3.096.564.237.792.423l-.333.765c-.456-.336-.924-.504-1.404-.504-.258 0-.459.048-.603.144s-.216.228-.216.396c0 .132.042.237.126.315.09.078.24.144.45.198l.774.171c.45.102.777.261.981.477.21.21.315.486.315.828 0 .42-.168.753-.504.999s-.795.369-1.377.369zm5.155 0c-.462 0-.87-.096-1.224-.288-.348-.192-.618-.465-.81-.819-.186-.36-.279-.78-.279-1.26s.093-.897.279-1.251c.192-.36.462-.636.81-.828.354-.192.762-.288 1.224-.288.456 0 .858.096 1.206.288s.615.468.801.828c.192.354.288.771.288 1.251s-.096.9-.288 1.26c-.186.354-.453.627-.801.819s-.75.288-1.206.288zm-.009-.882c.384 0 .675-.123.873-.369.204-.252.306-.624.306-1.116 0-.486-.102-.855-.306-1.107-.204-.258-.492-.387-.864-.387-.378 0-.669.129-.873.387-.204.252-.306.621-.306 1.107 0 .492.099.864.297 1.116.204.246.495.369.873.369zm5.972-3.843c.174 0 .324.024.45.072l-.009 1.026c-.192-.078-.39-.117-.594-.117-.384 0-.678.111-.882.333-.198.222-.297.516-.297.882v2.457h-1.116v-3.258c0-.48-.024-.909-.072-1.287h1.053l.09.801c.114-.294.294-.519.54-.675s.525-.234.837-.234z" fill="#00769d"/><path clip-rule="evenodd" d="m368.648 76.0293c.995-.8612 1.566-2.1121 1.566-3.4279 0-2.5447-2.062-4.6075-4.607-4.6075s-4.608 2.0628-4.608 4.6075c.012 1.3232.601 2.5754 1.613 3.4279-1.326.6004-2.413 1.563-3.167 2.7399-.547-.2289-1.147-.3553-1.777-.3553-2.545 0-4.608 2.0628-4.608 4.6075.012 1.3232.601 2.5753 1.613 3.4279-2.635 1.193-4.328 3.8163-4.331 6.7085 0 .5089.412.9215.921.9215s.922-.4126.922-.9215c0-3.0536 2.475-5.529 5.529-5.529 3.053 0 5.529 2.4754 5.529 5.529 0 .5089.412.9215.921.9215s.922-.4126.922-.9215c-.011-2.9029-1.725-5.5292-4.377-6.7085.994-.8612 1.566-2.1121 1.566-3.4279 0-1.2518-.499-2.387-1.309-3.2174.977-1.5588 2.711-2.5952 4.687-2.5952 1.952 0 3.667 1.0111 4.651 2.5381-.844.835-1.366 1.9937-1.366 3.2745.011 1.3232.6 2.5753 1.613 3.4279-2.635 1.193-4.329 3.8163-4.332 6.7085 0 .5089.413.9215.922.9215s.921-.4126.921-.9215c0-3.0536 2.476-5.529 5.529-5.529 3.054 0 5.529 2.4754 5.529 5.529 0 .5089.413.9215.922.9215s.921-.4126.921-.9215c-.011-2.9029-1.724-5.5292-4.377-6.7085.995-.8612 1.567-2.1121 1.567-3.4279 0-2.5447-2.063-4.6075-4.608-4.6075-.605 0-1.184.1169-1.714.3295-.761-1.1697-1.854-2.1234-3.183-2.7141zm-3.042-.6634c-1.526 0-2.764-1.2377-2.764-2.7645s1.238-2.7645 2.764-2.7645c1.527 0 2.765 1.2377 2.765 2.7645 0 .7332-.291 1.4363-.81 1.9548-.518.5184-1.221.8097-1.955.8097zm-7.939 10.42c-1.526 0-2.764-1.2377-2.764-2.7645s1.238-2.7645 2.764-2.7645c1.527 0 2.765 1.2377 2.765 2.7645 0 .7332-.291 1.4363-.81 1.9548-.518.5184-1.221.8097-1.955.8097zm15.878 0c-1.527 0-2.764-1.2377-2.764-2.7645s1.237-2.7645 2.764-2.7645 2.764 1.2377 2.764 2.7645c0 .7332-.291 1.4363-.809 1.9548-.519.5184-1.222.8097-1.955.8097z" fill="#00a0b6" fill-rule="evenodd"/><g filter="url(#b)"><rect fill="#f9fcff" height="102" rx="15" width="102" x="202" y="41"/></g><path d="m232.393 113.688c.372.108.657.297.855.567.204.27.306.603.306.999 0 .546-.195.975-.585 1.287-.384.306-.921.459-1.611.459h-2.907v-6.408h2.817c.66 0 1.179.15 1.557.45.378.294.567.702.567 1.224 0 .336-.09.63-.27.882-.174.246-.417.426-.729.54zm-2.808-.396h1.494c.804 0 1.206-.3 1.206-.9 0-.3-.099-.525-.297-.675s-.501-.225-.909-.225h-1.494zm1.647 2.808c.42 0 .726-.075.918-.225.198-.15.297-.387.297-.711 0-.33-.099-.573-.297-.729-.192-.156-.498-.234-.918-.234h-1.647v1.899zm7.58-1.314h-3.132c.024.486.144.846.36 1.08.222.228.549.342.981.342.498 0 .96-.162 1.386-.486l.324.774c-.216.174-.483.315-.801.423-.312.102-.63.153-.954.153-.744 0-1.329-.21-1.755-.63s-.639-.996-.639-1.728c0-.462.093-.873.279-1.233s.447-.639.783-.837c.336-.204.717-.306 1.143-.306.624 0 1.116.204 1.476.612.366.402.549.957.549 1.665zm-1.998-1.638c-.3 0-.546.09-.738.27-.186.174-.306.429-.36.765h2.115c-.036-.342-.141-.6-.315-.774-.168-.174-.402-.261-.702-.261zm5.801-.81c1.086 0 1.629.624 1.629 1.872v2.79h-1.125v-2.736c0-.36-.069-.621-.207-.783-.138-.168-.351-.252-.639-.252-.342 0-.618.111-.828.333-.21.216-.315.504-.315.864v2.574h-1.116v-3.258c0-.48-.024-.909-.072-1.287h1.053l.081.747c.156-.276.366-.489.63-.639.27-.15.573-.225.909-.225zm7.05 2.448h-3.132c.024.486.144.846.36 1.08.222.228.549.342.981.342.498 0 .96-.162 1.386-.486l.324.774c-.216.174-.483.315-.801.423-.312.102-.63.153-.954.153-.744 0-1.329-.21-1.755-.63s-.639-.996-.639-1.728c0-.462.093-.873.279-1.233s.447-.639.783-.837c.336-.204.717-.306 1.143-.306.624 0 1.116.204 1.476.612.366.402.549.957.549 1.665zm-1.998-1.638c-.3 0-.546.09-.738.27-.186.174-.306.429-.36.765h2.115c-.036-.342-.141-.6-.315-.774-.168-.174-.402-.261-.702-.261zm4.605-.693h2.988v4.545h-1.125v-3.699h-1.863v3.699h-1.125v-3.699h-.873v-.846h.873v-.459c0-.408.063-.729.189-.963.126-.24.33-.414.612-.522.288-.108.678-.162 1.17-.162h.333v.828h-.216c-.282 0-.489.024-.621.072-.132.042-.222.129-.27.261-.048.126-.072.33-.072.612zm3.06-2.106v1.134h-1.269v-1.134zm3.454 6.723c-.474 0-.885-.096-1.233-.288s-.615-.462-.801-.81c-.186-.354-.279-.768-.279-1.242s.096-.891.288-1.251c.198-.36.474-.639.828-.837.36-.204.774-.306 1.242-.306.324 0 .636.051.936.153.306.102.549.243.729.423l-.315.792c-.192-.156-.396-.273-.612-.351-.216-.084-.429-.126-.639-.126-.408 0-.726.129-.954.387-.228.252-.342.618-.342 1.098s.111.846.333 1.098c.228.252.549.378.963.378.21 0 .423-.042.639-.126s.42-.204.612-.36l.315.792c-.192.18-.441.321-.747.423s-.627.153-.963.153zm2.716-4.617h1.116v4.545h-1.116zm1.179-2.061v1.107h-1.251v-1.107zm5.764 2.061v4.545h-1.107v-.729c-.138.252-.336.45-.594.594-.258.138-.552.207-.882.207-.396 0-.747-.096-1.053-.288s-.543-.465-.711-.819-.252-.765-.252-1.233.084-.882.252-1.242c.174-.366.414-.648.72-.846.306-.204.654-.306 1.044-.306.33 0 .624.072.882.216.258.138.456.333.594.585v-.684zm-2.277 3.735c.372 0 .66-.129.864-.387s.306-.621.306-1.089c0-.48-.102-.849-.306-1.107s-.495-.387-.873-.387c-.372 0-.663.135-.873.405-.204.264-.306.633-.306 1.107 0 .468.102.828.306 1.08.21.252.504.378.882.378zm6.201-3.843c.174 0 .324.024.45.072l-.009 1.026c-.192-.078-.39-.117-.594-.117-.384 0-.678.111-.882.333-.198.222-.297.516-.297.882v2.457h-1.116v-3.258c0-.48-.024-.909-.072-1.287h1.053l.09.801c.114-.294.294-.519.54-.675s.525-.234.837-.234zm5.9.108-2.115 4.851c-.24.564-.546.975-.918 1.233s-.831.429-1.377.513l-.252-.864c.426-.096.744-.219.954-.369.216-.144.39-.36.522-.648l.144-.333-1.89-4.383h1.179l1.305 3.267 1.332-3.267z" fill="#00769d"/><path d="m240.246 80.1585c.766 0 1.506.3216 2.028.8824l2.714 2.9141c.351-1.128 1.405-1.9494 2.647-1.9494h4.266c.598 0 1.174-.2173 1.622-.6119 2.412-2.1225 6.037-2.1412 8.472-.0587.502-.7109 1.329-1.1765 2.264-1.1765h3.817c.51 0 .924.4135.924.9236v11.0828c0 .51-.413.9236-.924.9236h-3.817c-.829 0-1.574-.3669-2.083-.9463l-.546.1537c-1.871.5259-3.805.7925-5.748.7925h-8.247c-2.024 0-3.958-.9667-5.172-2.586l-4.434-5.9119c0-.0002 0-.0003 0-.0004-.362-.4825-.553-1.0568-.553-1.661 0-1.5277 1.243-2.7706 2.77-2.7706zm23.089 10.1592c0 .5092.415.9235.924.9235h2.894v-9.2356h-2.894c-.509 0-.924.4142-.924.9236zm-23.829-6.8357c0 .0001.001.0001.001.0001l4.434 5.9121c.867 1.1566 2.248 1.8471 3.694 1.8471h8.246c1.775 0 3.54-.2434 5.249-.7236l.361-.1015c-.001-.0328-.003-.0655-.003-.0985v-6.9711l-.643-.5664c-1.74-1.5303-4.363-1.5305-6.102 0-.786.6916-1.795 1.0724-2.842 1.0724h-4.266c-.51 0-.924.4144-.924.9236s.414.9236.924.9236h6.564c.51 0 .923.4135.923.9236s-.413.9236-.923.9236h-7.183c-.766 0-1.505-.3216-2.028-.8822l-4.066-4.3649c-.176-.1898-.417-.2943-.676-.2943-.509 0-.923.4142-.923.9236 0 .2013.063.3925.183.5528z" fill="#00a0b6"/><path clip-rule="evenodd" d="m250.069 68.0629c.454-.227 1.006-.0429 1.233.4111l3.678 7.3554c.227.4542.043 1.0065-.411 1.2335-.455.2277-1.007.0422-1.234-.4111l-3.677-7.3554c-.227-.4539-.043-1.0063.411-1.2335zm7.116.1723c.359-.3592.942-.3592 1.301 0l3.677 3.6777c.359.3589.359.9409 0 1.3001l-3.677 3.6777c-.359.3591-.941.3591-1.301 0-.359-.3592-.359-.9412 0-1.3001l3.028-3.0277-3.028-3.0276c-.359-.3589-.359-.9412 0-1.3001zm-9.732 0c-.359-.3592-.941-.3592-1.3 0l-3.678 3.6777c-.359.3589-.359.9409 0 1.3001l3.678 3.6777c.359.3591.941.3591 1.3 0 .359-.3592.359-.9412 0-1.3001l-3.027-3.0277 3.027-3.0276c.359-.3591.359-.9412 0-1.3001z" fill="#00a0b6" fill-rule="evenodd"/><g filter="url(#c)"><rect fill="#fff" height="102" rx="15" width="102" x="90" y="41"/><rect height="102" rx="15" stroke="#00a0b6" width="102" x="90" y="41"/></g><path d="m119.788 110.592h2.358c1.05 0 1.863.279 2.439.837.582.558.873 1.344.873 2.358 0 1.02-.291 1.812-.873 2.376-.576.558-1.389.837-2.439.837h-2.358zm2.286 5.463c1.476 0 2.214-.756 2.214-2.268 0-1.5-.738-2.25-2.214-2.25h-1.125v4.518zm8.717-1.269h-3.132c.024.486.144.846.36 1.08.222.228.549.342.981.342.498 0 .96-.162 1.386-.486l.324.774c-.216.174-.483.315-.801.423-.312.102-.63.153-.954.153-.744 0-1.329-.21-1.755-.63s-.639-.996-.639-1.728c0-.462.093-.873.279-1.233s.447-.639.783-.837c.336-.204.717-.306 1.143-.306.624 0 1.116.204 1.476.612.366.402.549.957.549 1.665zm-1.998-1.638c-.3 0-.546.09-.738.27-.186.174-.306.429-.36.765h2.115c-.036-.342-.141-.6-.315-.774-.168-.174-.402-.261-.702-.261zm5.792-.81c.39 0 .735.102 1.035.306.306.198.543.48.711.846.174.36.261.774.261 1.242s-.084.879-.252 1.233-.405.627-.711.819c-.3.192-.648.288-1.044.288-.33 0-.624-.069-.882-.207-.258-.144-.456-.342-.594-.594v2.673h-1.116v-5.202c0-.48-.024-.909-.072-1.287h1.053l.09.783c.12-.282.315-.501.585-.657.27-.162.582-.243.936-.243zm-.306 3.852c.378 0 .669-.126.873-.378s.306-.612.306-1.08c0-.474-.102-.843-.306-1.107-.204-.27-.492-.405-.864-.405-.384 0-.678.129-.882.387s-.306.627-.306 1.107c0 .474.102.84.306 1.098.204.252.495.378.873.378zm5.606.882c-.462 0-.87-.096-1.224-.288-.348-.192-.618-.465-.81-.819-.186-.36-.279-.78-.279-1.26s.093-.897.279-1.251c.192-.36.462-.636.81-.828.354-.192.762-.288 1.224-.288.456 0 .858.096 1.206.288s.615.468.801.828c.192.354.288.771.288 1.251s-.096.9-.288 1.26c-.186.354-.453.627-.801.819s-.75.288-1.206.288zm-.009-.882c.384 0 .675-.123.873-.369.204-.252.306-.624.306-1.116 0-.486-.102-.855-.306-1.107-.204-.258-.492-.387-.864-.387-.378 0-.669.129-.873.387-.204.252-.306.621-.306 1.107 0 .492.099.864.297 1.116.204.246.495.369.873.369zm5.19.882c-.822 0-1.476-.192-1.962-.576l.315-.792c.486.36 1.041.54 1.665.54.27 0 .477-.045.621-.135.15-.09.225-.216.225-.378 0-.138-.051-.246-.153-.324-.102-.084-.276-.156-.522-.216l-.756-.171c-.828-.18-1.242-.603-1.242-1.269 0-.276.078-.519.234-.729.156-.216.375-.384.657-.504s.609-.18.981-.18c.324 0 .636.051.936.153.3.096.564.237.792.423l-.333.765c-.456-.336-.924-.504-1.404-.504-.258 0-.459.048-.603.144s-.216.228-.216.396c0 .132.042.237.126.315.09.078.24.144.45.198l.774.171c.45.102.777.261.981.477.21.21.315.486.315.828 0 .42-.168.753-.504.999s-.795.369-1.377.369zm3.093-4.617h1.116v4.545h-1.116zm1.179-2.061v1.107h-1.251v-1.107zm2.849 2.907v2.034c0 .534.249.801.747.801.138 0 .288-.024.45-.072v.891c-.198.072-.438.108-.72.108-.516 0-.912-.144-1.188-.432s-.414-.702-.414-1.242v-2.088h-.873v-.846h.873v-1.107l1.125-.378v1.485h1.206v.846zm4.29 3.771c-.462 0-.87-.096-1.224-.288-.348-.192-.618-.465-.81-.819-.186-.36-.279-.78-.279-1.26s.093-.897.279-1.251c.192-.36.462-.636.81-.828.354-.192.762-.288 1.224-.288.456 0 .858.096 1.206.288s.615.468.801.828c.192.354.288.771.288 1.251s-.096.9-.288 1.26c-.186.354-.453.627-.801.819s-.75.288-1.206.288zm-.009-.882c.384 0 .675-.123.873-.369.204-.252.306-.624.306-1.116 0-.486-.102-.855-.306-1.107-.204-.258-.492-.387-.864-.387-.378 0-.669.129-.873.387-.204.252-.306.621-.306 1.107 0 .492.099.864.297 1.116.204.246.495.369.873.369zm5.972-3.843c.174 0 .324.024.45.072l-.009 1.026c-.192-.078-.39-.117-.594-.117-.384 0-.678.111-.882.333-.198.222-.297.516-.297.882v2.457h-1.116v-3.258c0-.48-.024-.909-.072-1.287h1.053l.09.801c.114-.294.294-.519.54-.675s.525-.234.837-.234z" fill="#00769d"/><path d="m154.229 80.1585c-.766 0-1.505.3216-2.027.8824l-2.715 2.9141c-.351-1.128-1.404-1.9494-2.646-1.9494h-4.267c-.597 0-1.173-.2173-1.622-.6119-2.411-2.1225-6.037-2.1412-8.471-.0587-.502-.7109-1.33-1.1765-2.264-1.1765h-3.818c-.51 0-.923.4135-.923.9236v11.0828c0 .51.413.9236.923.9236h3.818c.829 0 1.574-.3669 2.082-.9463l.547.1537c1.871.5259 3.805.7925 5.748.7925h8.247c2.024 0 3.957-.9667 5.172-2.586l4.434-5.9119c0-.0002 0-.0003 0-.0004.362-.4825.553-1.0568.553-1.661 0-1.5277-1.243-2.7706-2.771-2.7706zm-23.089 10.1592c0 .5092-.414.9235-.923.9235h-2.894v-9.2356h2.894c.509 0 .923.4142.923.9236zm23.829-6.8357v.0001l-4.434 5.9121c-.867 1.1566-2.248 1.8471-3.694 1.8471h-8.247c-1.774 0-3.54-.2434-5.248-.7236l-.361-.1015c.001-.0328.002-.0655.002-.0985v-6.9711l.644-.5664c1.739-1.5303 4.362-1.5305 6.101 0 .786.6916 1.795 1.0724 2.842 1.0724h4.267c.509 0 .924.4144.924.9236s-.415.9236-.924.9236h-6.564c-.51 0-.924.4135-.924.9236s.414.9236.924.9236h7.183c.766 0 1.505-.3216 2.027-.8822l4.066-4.3649c.177-.1898.417-.2943.676-.2943.51 0 .924.4142.924.9236 0 .2013-.064.3925-.184.5528z" fill="#00a0b6"/><path clip-rule="evenodd" d="m144.407 68.0629c-.454-.227-1.007-.0429-1.234.4111l-3.677 7.3554c-.227.4542-.043 1.0066.411 1.2335.455.2277 1.007.0422 1.233-.4111l3.678-7.3553c.227-.454.043-1.0064-.411-1.2336zm-7.117.1723c-.359-.3591-.941-.3591-1.3 0l-3.678 3.6777c-.359.3589-.359.941 0 1.3001l3.678 3.6777c.359.3591.941.3591 1.3 0 .359-.3592.359-.9412 0-1.3001l-3.027-3.0277 3.027-3.0276c.359-.3589.359-.9412 0-1.3001zm9.733 0c.359-.3591.941-.3591 1.3 0l3.677 3.6777c.36.3589.36.941 0 1.3001l-3.677 3.6777c-.359.3591-.941.3591-1.3 0-.36-.3592-.36-.9412 0-1.3001l3.027-3.0277-3.027-3.0276c-.36-.3591-.36-.9412 0-1.3001z" fill="#00a0b6" fill-rule="evenodd"/><g filter="url(#d)"><rect fill="#fff" height="42" rx="10" width="138" x="17" y="11"/></g><path d="m34.1564 27.456h5.712v1.224h-4.2v2.364h3.948v1.224h-3.948v2.508h4.2v1.224h-5.712zm9.4987 8.64c-1.096 0-1.968-.256-2.616-.768l.42-1.056c.648.48 1.388.72 2.22.72.36 0 .636-.06.828-.18.2-.12.3-.288.3-.504 0-.184-.068-.328-.204-.432-.136-.112-.368-.208-.696-.288l-1.008-.228c-1.104-.24-1.656-.804-1.656-1.692 0-.368.104-.692.312-.972.208-.288.5-.512.876-.672s.812-.24 1.308-.24c.432 0 .848.068 1.248.204.4.128.752.316 1.056.564l-.444 1.02c-.608-.448-1.232-.672-1.872-.672-.344 0-.612.064-.804.192s-.288.304-.288.528c0 .176.056.316.168.42.12.104.32.192.6.264l1.032.228c.6.136 1.036.348 1.308.636.28.28.42.648.42 1.104 0 .56-.224 1.004-.672 1.332s-1.06.492-1.836.492zm6.7898 0c-.632 0-1.18-.128-1.644-.384s-.82-.616-1.068-1.08c-.248-.472-.372-1.024-.372-1.656s.128-1.188.384-1.668c.264-.48.632-.852 1.104-1.116.48-.272 1.032-.408 1.656-.408.432 0 .848.068 1.248.204.408.136.732.324.972.564l-.42 1.056c-.256-.208-.528-.364-.816-.468-.288-.112-.572-.168-.852-.168-.544 0-.968.172-1.272.516-.304.336-.456.824-.456 1.464s.148 1.128.444 1.464c.304.336.732.504 1.284.504.28 0 .564-.056.852-.168s.56-.272.816-.48l.42 1.056c-.256.24-.588.428-.996.564s-.836.204-1.284.204zm6.8011-6.3c.232 0 .432.032.6.096l-.012 1.368c-.256-.104-.52-.156-.792-.156-.512 0-.904.148-1.176.444-.264.296-.396.688-.396 1.176v3.276h-1.488v-4.344c0-.64-.032-1.212-.096-1.716h1.404l.12 1.068c.152-.392.392-.692.72-.9s.7-.312 1.116-.312zm4.316 6.3c-.616 0-1.16-.128-1.632-.384-.464-.256-.824-.62-1.08-1.092-.248-.48-.372-1.04-.372-1.68s.124-1.196.372-1.668c.256-.48.616-.848 1.08-1.104.472-.256 1.016-.384 1.632-.384.608 0 1.144.128 1.608.384s.82.624 1.068 1.104c.256.472.384 1.028.384 1.668s-.128 1.2-.384 1.68c-.248.472-.604.836-1.068 1.092s-1 .384-1.608.384zm-.012-1.176c.512 0 .9-.164 1.164-.492.272-.336.408-.832.408-1.488 0-.648-.136-1.14-.408-1.476-.272-.344-.656-.516-1.152-.516-.504 0-.892.172-1.164.516-.272.336-.408.828-.408 1.476 0 .656.132 1.152.396 1.488.272.328.66.492 1.164.492zm14.1581-4.98-2.376 6.06h-1.308l-1.5-3.972-1.464 3.972h-1.32l-2.376-6.06h1.536l1.56 4.272 1.572-4.272h1.08l1.572 4.308 1.56-4.308zm8.0028-.144c.232 0 .432.032.6.096l-.012 1.368c-.256-.104-.52-.156-.792-.156-.512 0-.904.148-1.176.444-.264.296-.396.688-.396 1.176v3.276h-1.488v-4.344c0-.64-.032-1.212-.096-1.716h1.404l.12 1.068c.152-.392.392-.692.72-.9s.7-.312 1.116-.312zm4.316 6.3c-.616 0-1.16-.128-1.632-.384-.464-.256-.824-.62-1.08-1.092-.248-.48-.372-1.04-.372-1.68s.124-1.196.372-1.668c.256-.48.616-.848 1.08-1.104.472-.256 1.016-.384 1.632-.384.608 0 1.144.128 1.608.384s.82.624 1.068 1.104c.256.472.384 1.028.384 1.668s-.128 1.2-.384 1.68c-.248.472-.604.836-1.068 1.092s-1 .384-1.608.384zm-.012-1.176c.512 0 .9-.164 1.164-.492.272-.336.408-.832.408-1.488 0-.648-.136-1.14-.408-1.476-.272-.344-.656-.516-1.152-.516-.504 0-.892.172-1.164.516-.272.336-.408.828-.408 1.476 0 .656.132 1.152.396 1.488.272.328.66.492 1.164.492zm4.6156-7.752h1.488v8.832h-1.488zm8.6825 5.88h-4.1756c.032.648.192 1.128.48 1.44.296.304.732.456 1.308.456.664 0 1.2796-.216 1.8476-.648l.432 1.032c-.288.232-.644.42-1.068.564-.4156.136-.8396.204-1.2716.204-.992 0-1.772-.28-2.34-.84s-.852-1.328-.852-2.304c0-.616.124-1.164.372-1.644s.596-.852 1.044-1.116c.448-.272.956-.408 1.524-.408.832 0 1.4876.272 1.9676.816.488.536.732 1.276.732 2.22zm-2.6636-2.184c-.4 0-.728.12-.984.36-.248.232-.408.572-.48 1.02h2.8196c-.0476-.456-.1876-.8-.4196-1.032-.224-.232-.536-.348-.936-.348z" fill="#00769d"/><circle cx="132" cy="32" fill="#00a0b6" opacity=".2" r="7"/><g stroke="#00a0b6" stroke-linecap="round" stroke-width="1.5"><path d="m135 32h-6"/><path d="m132 29 3 3-3 3" stroke-linejoin="round"/></g></svg>