<svg fill="none" height="167" viewBox="0 0 486 167" width="486" xmlns="http://www.w3.org/2000/svg" xmlns:xlink="http://www.w3.org/1999/xlink"><filter id="a" color-interpolation-filters="sRGB" filterUnits="userSpaceOnUse" height="83.05" width="181.45" x="304" y="0"><feFlood flood-opacity="0" result="BackgroundImageFix"/><feColorMatrix in="SourceAlpha" type="matrix" values="0 0 0 0 0 0 0 0 0 0 0 0 0 0 0 0 0 0 127 0"/><feOffset dx="3" dy="9"/><feGaussianBlur stdDeviation="10"/><feColorMatrix type="matrix" values="0 0 0 0 0 0 0 0 0 0.351917 0 0 0 0 0.429167 0 0 0 0.1 0"/><feBlend in2="BackgroundImageFix" mode="normal" result="effect1_dropShadow"/><feBlend in="SourceGraphic" in2="effect1_dropShadow" mode="normal" result="shape"/></filter><filter id="b" color-interpolation-filters="sRGB" filterUnits="userSpaceOnUse" height="105" width="130" x=".5" y="61.5"><feFlood flood-opacity="0" result="BackgroundImageFix"/><feColorMatrix in="SourceAlpha" type="matrix" values="0 0 0 0 0 0 0 0 0 0 0 0 0 0 0 0 0 0 127 0"/><feOffset dy="5"/><feGaussianBlur stdDeviation="6"/><feColorMatrix type="matrix" values="0 0 0 0 0 0 0 0 0 0.351917 0 0 0 0 0.429167 0 0 0 0.08 0"/><feBlend in2="BackgroundImageFix" mode="normal" result="effect1_dropShadow"/><feBlend in="SourceGraphic" in2="effect1_dropShadow" mode="normal" result="shape"/></filter><filter id="c" color-interpolation-filters="sRGB" filterUnits="userSpaceOnUse" height="105" width="129" x="115.5" y="61.5"><feFlood flood-opacity="0" result="BackgroundImageFix"/><feColorMatrix in="SourceAlpha" type="matrix" values="0 0 0 0 0 0 0 0 0 0 0 0 0 0 0 0 0 0 127 0"/><feOffset dy="5"/><feGaussianBlur stdDeviation="6"/><feColorMatrix type="matrix" values="0 0 0 0 0 0 0 0 0 0.351917 0 0 0 0 0.429167 0 0 0 0.08 0"/><feBlend in2="BackgroundImageFix" mode="normal" result="effect1_dropShadow"/><feBlend in="SourceGraphic" in2="effect1_dropShadow" mode="normal" result="shape"/></filter><filter id="d" color-interpolation-filters="sRGB" filterUnits="userSpaceOnUse" height="104" width="128" x="231" y="62"><feFlood flood-opacity="0" result="BackgroundImageFix"/><feColorMatrix in="SourceAlpha" type="matrix" values="0 0 0 0 0 0 0 0 0 0 0 0 0 0 0 0 0 0 127 0"/><feOffset dy="5"/><feGaussianBlur stdDeviation="6"/><feColorMatrix type="matrix" values="0 0 0 0 0 0 0 0 0 0.351917 0 0 0 0 0.429167 0 0 0 0.08 0"/><feBlend in2="BackgroundImageFix" mode="normal" result="effect1_dropShadow"/><feBlend in="SourceGraphic" in2="effect1_dropShadow" mode="normal" result="shape"/></filter><filter id="e" color-interpolation-filters="sRGB" filterUnits="userSpaceOnUse" height="104" width="129" x="345" y="62"><feFlood flood-opacity="0" result="BackgroundImageFix"/><feColorMatrix in="SourceAlpha" type="matrix" values="0 0 0 0 0 0 0 0 0 0 0 0 0 0 0 0 0 0 127 0"/><feOffset dy="5"/><feGaussianBlur stdDeviation="6"/><feColorMatrix type="matrix" values="0 0 0 0 0 0 0 0 0 0.351917 0 0 0 0 0.429167 0 0 0 0.08 0"/><feBlend in2="BackgroundImageFix" mode="normal" result="effect1_dropShadow"/><feBlend in="SourceGraphic" in2="effect1_dropShadow" mode="normal" result="shape"/></filter><g filter="url(#a)"><rect fill="#fff" height="43.05" rx="10" width="141.45" x="321" y="11"/></g><path d="m338.324 27.781h3.144c1.4 0 2.484.372 3.252 1.116.776.744 1.164 1.792 1.164 3.144 0 1.36-.388 2.416-1.164 3.168-.768.744-1.852 1.116-3.252 1.116h-3.144zm3.048 7.284c1.968 0 2.952-1.008 2.952-3.024 0-2-.984-3-2.952-3h-1.5v6.024zm11.539-1.692h-4.176c.032.648.192 1.128.48 1.44.296.304.732.456 1.308.456.664 0 1.28-.216 1.848-.648l.432 1.032c-.288.232-.644.42-1.068.564-.416.136-.84.204-1.272.204-.992 0-1.772-.28-2.34-.84s-.852-1.328-.852-2.304c0-.616.124-1.164.372-1.644s.596-.852 1.044-1.116c.448-.272.956-.408 1.524-.408.832 0 1.488.272 1.968.816.488.536.732 1.276.732 2.22zm-2.664-2.184c-.4 0-.728.12-.984.36-.248.232-.408.572-.48 1.02h2.82c-.048-.456-.188-.8-.42-1.032-.224-.232-.536-.348-.936-.348zm7.64-1.08c.52 0 .98.136 1.38.408.408.264.724.64.948 1.128.232.48.348 1.032.348 1.656s-.112 1.172-.336 1.644-.54.836-.948 1.092c-.4.256-.864.384-1.392.384-.44 0-.832-.092-1.176-.276-.344-.192-.608-.456-.792-.792v3.564h-1.488v-6.936c0-.64-.032-1.212-.096-1.716h1.404l.12 1.044c.16-.376.42-.668.78-.876.36-.216.776-.324 1.248-.324zm-.408 5.136c.504 0 .892-.168 1.164-.504s.408-.816.408-1.44c0-.632-.136-1.124-.408-1.476-.272-.36-.656-.54-1.152-.54-.512 0-.904.172-1.176.516s-.408.836-.408 1.476c0 .632.136 1.12.408 1.464.272.336.66.504 1.164.504zm7.392 1.176c-.616 0-1.16-.128-1.632-.384-.464-.256-.824-.62-1.08-1.092-.248-.48-.372-1.04-.372-1.68s.124-1.196.372-1.668c.256-.48.616-.848 1.08-1.104.472-.256 1.016-.384 1.632-.384.608 0 1.144.128 1.608.384s.82.624 1.068 1.104c.256.472.384 1.028.384 1.668s-.128 1.2-.384 1.68c-.248.472-.604.836-1.068 1.092s-1 .384-1.608.384zm-.012-1.176c.512 0 .9-.164 1.164-.492.272-.336.408-.832.408-1.488 0-.648-.136-1.14-.408-1.476-.272-.344-.656-.516-1.152-.516-.504 0-.892.172-1.164.516-.272.336-.408.828-.408 1.476 0 .656.132 1.152.396 1.488.272.328.66.492 1.164.492zm6.835 1.176c-1.096 0-1.968-.256-2.616-.768l.42-1.056c.648.48 1.388.72 2.22.72.36 0 .636-.06.828-.18.2-.12.3-.288.3-.504 0-.184-.068-.328-.204-.432-.136-.112-.368-.208-.696-.288l-1.008-.228c-1.104-.24-1.656-.804-1.656-1.692 0-.368.104-.692.312-.972.208-.288.5-.512.876-.672s.812-.24 1.308-.24c.432 0 .848.068 1.248.204.4.128.752.316 1.056.564l-.444 1.02c-.608-.448-1.232-.672-1.872-.672-.344 0-.612.064-.804.192s-.288.304-.288.528c0 .176.056.316.168.42.12.104.32.192.6.264l1.032.228c.6.136 1.036.348 1.308.636.28.28.42.648.42 1.104 0 .56-.224 1.004-.672 1.332s-1.06.492-1.836.492zm4.042-6.156h1.488v6.06h-1.488zm1.572-2.748v1.476h-1.668v-1.476zm3.715 3.876v2.712c0 .712.332 1.068.996 1.068.184 0 .384-.032.6-.096v1.188c-.264.096-.584.144-.96.144-.688 0-1.216-.192-1.584-.576s-.552-.936-.552-1.656v-2.784h-1.164v-1.128h1.164v-1.476l1.5-.504v1.98h1.608v1.128zm8.34 0v2.712c0 .712.332 1.068.996 1.068.184 0 .384-.032.6-.096v1.188c-.264.096-.584.144-.96.144-.688 0-1.216-.192-1.584-.576s-.552-.936-.552-1.656v-2.784h-1.164v-1.128h1.164v-1.476l1.5-.504v1.98h1.608v1.128zm8.73-1.128-2.82 6.468c-.32.752-.728 1.3-1.224 1.644s-1.108.572-1.836.684l-.336-1.152c.568-.128.992-.292 1.272-.492.288-.192.52-.48.696-.864l.192-.444-2.52-5.844h1.572l1.74 4.356 1.776-4.356zm4.486-.156c.52 0 .98.136 1.38.408.408.264.724.64.948 1.128.232.48.348 1.032.348 1.656s-.112 1.172-.336 1.644-.54.836-.948 1.092c-.4.256-.864.384-1.392.384-.44 0-.832-.092-1.176-.276-.344-.192-.608-.456-.792-.792v3.564h-1.488v-6.936c0-.64-.032-1.212-.096-1.716h1.404l.12 1.044c.16-.376.42-.668.78-.876.36-.216.776-.324 1.248-.324zm-.408 5.136c.504 0 .892-.168 1.164-.504s.408-.816.408-1.44c0-.632-.136-1.124-.408-1.476-.272-.36-.656-.54-1.152-.54-.512 0-.904.172-1.176.516s-.408.836-.408 1.476c0 .632.136 1.12.408 1.464.272.336.66.504 1.164.504zm9.947-1.872h-4.176c.032.648.192 1.128.48 1.44.296.304.732.456 1.308.456.664 0 1.28-.216 1.848-.648l.432 1.032c-.288.232-.644.42-1.068.564-.416.136-.84.204-1.272.204-.992 0-1.772-.28-2.34-.84s-.852-1.328-.852-2.304c0-.616.124-1.164.372-1.644s.596-.852 1.044-1.116c.448-.272.956-.408 1.524-.408.832 0 1.488.272 1.968.816.488.536.732 1.276.732 2.22zm-2.664-2.184c-.4 0-.728.12-.984.36-.248.232-.408.572-.48 1.02h2.82c-.048-.456-.188-.8-.42-1.032-.224-.232-.536-.348-.936-.348z" fill="#00769d"/><circle cx="438.874" cy="32.525" fill="#00a0b6" opacity=".2" r="7.175" transform="matrix(0 1 -1 0 471.399 -406.349)"/><path d="m438.874 35.6012v-6.15" stroke="#00a0b6" stroke-linecap="round" stroke-width="1.5"/><path d="m441.949 32.5261-3.075 3.075-3.075-3.075" stroke="#00a0b6" stroke-linecap="round" stroke-linejoin="round" stroke-width="1.5"/><g filter="url(#b)"><rect fill="#fff" height="80" rx="15" width="105" x="13" y="69"/><rect height="80" rx="15" stroke="#00a0b6" width="105" x="13" y="69"/></g><path d="m40.2394 133.081c-.492 0-.954-.066-1.386-.198-.426-.132-.789-.321-1.089-.567l.396-.846c.312.234.636.408.972.522.342.108.714.162 1.116.162.444 0 .786-.078 1.026-.234.246-.156.369-.375.369-.657 0-.24-.114-.423-.342-.549-.222-.132-.591-.255-1.107-.369-.804-.174-1.389-.399-1.755-.675s-.549-.678-.549-1.206c0-.378.102-.714.306-1.008s.492-.525.864-.693c.378-.168.813-.252 1.305-.252.45 0 .876.069 1.278.207.408.132.741.318.999.558l-.387.846c-.57-.456-1.2-.684-1.89-.684-.414 0-.741.087-.981.261-.24.168-.36.399-.36.693 0 .252.105.444.315.576.216.132.582.255 1.098.369.534.126.969.264 1.305.414.336.144.594.333.774.567.18.228.27.516.27.864 0 .384-.102.72-.306 1.008-.204.282-.498.501-.882.657s-.837.234-1.359.234zm5.853-.009c-.462 0-.87-.096-1.224-.288-.348-.192-.618-.465-.81-.819-.186-.36-.279-.78-.279-1.26s.093-.897.279-1.251c.192-.36.462-.636.81-.828.354-.192.762-.288 1.224-.288.456 0 .858.096 1.206.288s.615.468.801.828c.192.354.288.771.288 1.251s-.096.9-.288 1.26c-.186.354-.453.627-.801.819s-.75.288-1.206.288zm-.009-.882c.384 0 .675-.123.873-.369.204-.252.306-.624.306-1.116 0-.486-.102-.855-.306-1.107-.204-.258-.492-.387-.864-.387-.378 0-.669.129-.873.387-.204.252-.306.621-.306 1.107 0 .492.099.864.297 1.116.204.246.495.369.873.369zm7.6642-3.735v4.545h-1.098v-.702c-.144.252-.336.444-.576.576s-.516.198-.828.198c-1.11 0-1.665-.624-1.665-1.872v-2.745h1.116v2.754c0 .33.066.573.198.729.138.156.348.234.63.234.33 0 .594-.108.792-.324s.297-.504.297-.864v-2.529zm3.9193-.108c.174 0 .324.024.45.072l-.009 1.026c-.192-.078-.39-.117-.594-.117-.384 0-.678.111-.882.333-.198.222-.297.516-.297.882v2.457h-1.116v-3.258c0-.48-.024-.909-.072-1.287h1.053l.09.801c.114-.294.294-.519.54-.675s.525-.234.837-.234zm3.2996 4.725c-.474 0-.885-.096-1.233-.288s-.615-.462-.801-.81c-.186-.354-.279-.768-.279-1.242s.096-.891.288-1.251c.198-.36.474-.639.828-.837.36-.204.774-.306 1.242-.306.324 0 .636.051.936.153.306.102.549.243.729.423l-.315.792c-.192-.156-.396-.273-.612-.351-.216-.084-.429-.126-.639-.126-.408 0-.726.129-.954.387-.228.252-.342.618-.342 1.098s.111.846.333 1.098c.228.252.549.378.963.378.21 0 .423-.042.639-.126s.42-.204.612-.36l.315.792c-.192.18-.441.321-.747.423s-.627.153-.963.153zm6.6933-2.286h-3.132c.024.486.144.846.36 1.08.222.228.549.342.981.342.498 0 .96-.162 1.386-.486l.324.774c-.216.174-.483.315-.801.423-.312.102-.63.153-.954.153-.744 0-1.329-.21-1.755-.63s-.639-.996-.639-1.728c0-.462.093-.873.279-1.233s.447-.639.783-.837c.336-.204.717-.306 1.143-.306.624 0 1.116.204 1.476.612.366.402.549.957.549 1.665zm-1.998-1.638c-.3 0-.546.09-.738.27-.186.174-.306.429-.36.765h2.115c-.036-.342-.141-.6-.315-.774-.168-.174-.402-.261-.702-.261zm8.9084 3.933c-.63 0-1.182-.135-1.656-.405-.468-.27-.828-.651-1.08-1.143-.252-.498-.378-1.08-.378-1.746 0-.66.126-1.236.378-1.728.252-.498.612-.879 1.08-1.143.474-.27 1.026-.405 1.656-.405.432 0 .837.069 1.215.207.384.132.702.318.954.558l-.378.846c-.288-.234-.576-.402-.864-.504-.282-.108-.585-.162-.909-.162-.618 0-1.098.201-1.44.603-.336.402-.504.978-.504 1.728 0 .756.168 1.338.504 1.746.336.402.816.603 1.44.603.324 0 .627-.051.909-.153.288-.108.576-.279.864-.513l.378.846c-.252.24-.57.429-.954.567-.378.132-.783.198-1.215.198zm5.3963-.009c-.462 0-.87-.096-1.224-.288-.348-.192-.618-.465-.81-.819-.186-.36-.279-.78-.279-1.26s.093-.897.279-1.251c.192-.36.462-.636.81-.828.354-.192.762-.288 1.224-.288.456 0 .858.096 1.206.288s.615.468.801.828c.192.354.288.771.288 1.251s-.096.9-.288 1.26c-.186.354-.453.627-.801.819s-.75.288-1.206.288zm-.009-.882c.384 0 .675-.123.873-.369.204-.252.306-.624.306-1.116 0-.486-.102-.855-.306-1.107-.204-.258-.492-.387-.864-.387-.378 0-.669.129-.873.387-.204.252-.306.621-.306 1.107 0 .492.099.864.297 1.116.204.246.495.369.873.369zm7.8711-5.814v6.624h-1.107v-.729c-.138.252-.336.45-.594.594-.258.138-.552.207-.882.207-.39 0-.738-.099-1.044-.297s-.546-.477-.72-.837c-.168-.366-.252-.783-.252-1.251s.084-.879.252-1.233.405-.627.711-.819c.306-.198.657-.297 1.053-.297.324 0 .612.069.864.207.258.132.456.321.594.567v-2.736zm-2.286 5.814c.372 0 .66-.129.864-.387.21-.258.315-.624.315-1.098s-.102-.84-.306-1.098-.492-.387-.864-.387c-.378 0-.672.129-.882.387-.204.252-.306.612-.306 1.08 0 .474.102.843.306 1.107.21.264.501.396.873.396zm7.7393-1.404h-3.132c.024.486.144.846.36 1.08.222.228.549.342.981.342.498 0 .96-.162 1.386-.486l.324.774c-.216.174-.483.315-.801.423-.312.102-.63.153-.954.153-.744 0-1.329-.21-1.755-.63s-.639-.996-.639-1.728c0-.462.093-.873.279-1.233s.447-.639.783-.837c.336-.204.717-.306 1.143-.306.624 0 1.116.204 1.476.612.366.402.549.957.549 1.665zm-1.998-1.638c-.3 0-.546.09-.738.27-.186.174-.306.429-.36.765h2.115c-.036-.342-.141-.6-.315-.774-.168-.174-.402-.261-.702-.261z" fill="#00769d"/><path clip-rule="evenodd" d="m68.0358 97.1435c.3067-1.56 1.6566-2.6837 3.2253-2.6848 1.5988.0298 2.945 1.2206 3.1912 2.8227s-.6789 3.1516-2.1929 3.6736c-.4343 2.05-2.2213 3.514-4.2892 3.515h-4.388c-.883.002-1.6785.542-2.0184 1.368 1.4651.613 2.2909 2.198 1.9646 3.771-.3262 1.573-1.7119 2.687-3.2966 2.65-1.5847-.038-2.918-1.215-3.1722-2.801-.2542-1.587.6431-3.132 2.1347-3.676v-9.2988c-1.5112-.5418-2.4176-2.1086-2.1466-3.7105.271-1.6018 1.6407-2.7727 3.2436-2.7727 1.6028 0 2.9725 1.1709 3.2435 2.7727.2711 1.6019-.6354 3.1687-2.1466 3.7105v6.3848c.6626-.404 1.4207-.62 2.194-.623h4.388c.887.002 1.6879-.538 2.0294-1.368-1.4485-.611-2.2704-2.1735-1.9638-3.7335zm-6.6469-3.7968c0-.6143-.4912-1.1123-1.097-1.1123s-1.097.498-1.097 1.1123.4912 1.1123 1.097 1.1123 1.097-.498 1.097-1.1123zm-1.097 16.6853c-.6058 0-1.097-.498-1.097-1.113 0-.614.4912-1.112 1.097-1.112s1.097.498 1.097 1.112c0 .615-.4912 1.113-1.097 1.113zm9.8737-12.2361c0 .6144.4912 1.1124 1.097 1.1124.6059 0 1.097-.498 1.097-1.1124 0-.6143-.4911-1.1123-1.097-1.1123-.6058 0-1.097.498-1.097 1.1123z" fill="#00a0b6" fill-rule="evenodd"/><circle cx="105.762" cy="82.2374" fill="#00a0b6" r="5.6375"/><path d="m107.397 80.6547-2.118 2.1227-.83-.8362c-.252-.2522-.662-.2522-.914 0s-.252.6612 0 .9134l1.287 1.2864c.121.1218.286.1903.457.1903.172 0 .336-.0685.457-.1903l2.575-2.5729c.252-.2522.252-.6611 0-.9134-.253-.2522-.662-.2522-.914 0z" fill="#fff"/><g filter="url(#c)"><rect fill="#fff" height="80" rx="15" width="104" x="128" y="69"/><rect height="80" rx="15" stroke="#00a0b6" width="104" x="128" y="69"/></g><path d="m166.259 117.592h2.358c1.05 0 1.863.279 2.439.837.582.558.873 1.344.873 2.358 0 1.02-.291 1.812-.873 2.376-.576.558-1.389.837-2.439.837h-2.358zm2.286 5.463c1.476 0 2.214-.756 2.214-2.268 0-1.5-.738-2.25-2.214-2.25h-1.125v4.518zm9.085-3.6v4.545h-1.107v-.729c-.138.252-.336.45-.594.594-.258.138-.552.207-.882.207-.396 0-.747-.096-1.053-.288s-.543-.465-.711-.819-.252-.765-.252-1.233.084-.882.252-1.242c.174-.366.414-.648.72-.846.306-.204.654-.306 1.044-.306.33 0 .624.072.882.216.258.138.456.333.594.585v-.684zm-2.277 3.735c.372 0 .66-.129.864-.387s.306-.621.306-1.089c0-.48-.102-.849-.306-1.107s-.495-.387-.873-.387c-.372 0-.663.135-.873.405-.204.264-.306.633-.306 1.107 0 .468.102.828.306 1.08.21.252.504.378.882.378zm5.183-2.889v2.034c0 .534.249.801.747.801.138 0 .288-.024.45-.072v.891c-.198.072-.438.108-.72.108-.516 0-.912-.144-1.188-.432s-.414-.702-.414-1.242v-2.088h-.873v-.846h.873v-1.107l1.125-.378v1.485h1.206v.846zm6.577-.846v4.545h-1.107v-.729c-.138.252-.336.45-.594.594-.258.138-.552.207-.882.207-.396 0-.747-.096-1.053-.288s-.543-.465-.711-.819-.252-.765-.252-1.233.084-.882.252-1.242c.174-.366.414-.648.72-.846.306-.204.654-.306 1.044-.306.33 0 .624.072.882.216.258.138.456.333.594.585v-.684zm-2.277 3.735c.372 0 .66-.129.864-.387s.306-.621.306-1.089c0-.48-.102-.849-.306-1.107s-.495-.387-.873-.387c-.372 0-.663.135-.873.405-.204.264-.306.633-.306 1.107 0 .468.102.828.306 1.08.21.252.504.378.882.378zm5.635 1.341 2.331-7.308h.963l-2.349 7.308zm-32.104 2.061h2.358c1.05 0 1.863.279 2.439.837.582.558.873 1.344.873 2.358 0 1.02-.291 1.812-.873 2.376-.576.558-1.389.837-2.439.837h-2.358zm2.286 5.463c1.476 0 2.214-.756 2.214-2.268 0-1.5-.738-2.25-2.214-2.25h-1.125v4.518zm9.085-3.6v4.545h-1.107v-.729c-.138.252-.336.45-.594.594-.258.138-.552.207-.882.207-.396 0-.747-.096-1.053-.288s-.543-.465-.711-.819-.252-.765-.252-1.233.084-.882.252-1.242c.174-.366.414-.648.72-.846.306-.204.654-.306 1.044-.306.33 0 .624.072.882.216.258.138.456.333.594.585v-.684zm-2.277 3.735c.372 0 .66-.129.864-.387s.306-.621.306-1.089c0-.48-.102-.849-.306-1.107s-.495-.387-.873-.387c-.372 0-.663.135-.873.405-.204.264-.306.633-.306 1.107 0 .468.102.828.306 1.08.21.252.504.378.882.378zm5.183-2.889v2.034c0 .534.249.801.747.801.138 0 .288-.024.45-.072v.891c-.198.072-.438.108-.72.108-.516 0-.912-.144-1.188-.432s-.414-.702-.414-1.242v-2.088h-.873v-.846h.873v-1.107l1.125-.378v1.485h1.206v.846zm6.576-.846v4.545h-1.107v-.729c-.138.252-.336.45-.594.594-.258.138-.552.207-.882.207-.396 0-.747-.096-1.053-.288s-.543-.465-.711-.819-.252-.765-.252-1.233.084-.882.252-1.242c.174-.366.414-.648.72-.846.306-.204.654-.306 1.044-.306.33 0 .624.072.882.216.258.138.456.333.594.585v-.684zm-2.277 3.735c.372 0 .66-.129.864-.387s.306-.621.306-1.089c0-.48-.102-.849-.306-1.107s-.495-.387-.873-.387c-.372 0-.663.135-.873.405-.204.264-.306.633-.306 1.107 0 .468.102.828.306 1.08.21.252.504.378.882.378zm6.345-3.852c.396 0 .744.099 1.044.297.306.192.543.465.711.819s.252.765.252 1.233-.087.885-.261 1.251c-.168.36-.405.639-.711.837-.3.198-.645.297-1.035.297-.336 0-.636-.072-.9-.216-.258-.144-.453-.345-.585-.603v.747h-1.107v-6.624h1.116v2.763c.138-.252.336-.447.594-.585.258-.144.552-.216.882-.216zm-.297 3.852c.372 0 .66-.132.864-.396s.306-.633.306-1.107c0-.468-.102-.828-.306-1.08-.204-.258-.495-.387-.873-.387s-.669.129-.873.387-.306.624-.306 1.098c0 .48.102.849.306 1.107.204.252.498.378.882.378zm7.883-3.735v4.545h-1.107v-.729c-.138.252-.336.45-.594.594-.258.138-.552.207-.882.207-.396 0-.747-.096-1.053-.288s-.543-.465-.711-.819-.252-.765-.252-1.233.084-.882.252-1.242c.174-.366.414-.648.72-.846.306-.204.654-.306 1.044-.306.33 0 .624.072.882.216.258.138.456.333.594.585v-.684zm-2.277 3.735c.372 0 .66-.129.864-.387s.306-.621.306-1.089c0-.48-.102-.849-.306-1.107s-.495-.387-.873-.387c-.372 0-.663.135-.873.405-.204.264-.306.633-.306 1.107 0 .468.102.828.306 1.08.21.252.504.378.882.378zm5.417.882c-.822 0-1.476-.192-1.962-.576l.315-.792c.486.36 1.041.54 1.665.54.27 0 .477-.045.621-.135.15-.09.225-.216.225-.378 0-.138-.051-.246-.153-.324-.102-.084-.276-.156-.522-.216l-.756-.171c-.828-.18-1.242-.603-1.242-1.269 0-.276.078-.519.234-.729.156-.216.375-.384.657-.504s.609-.18.981-.18c.324 0 .636.051.936.153.3.096.564.237.792.423l-.333.765c-.456-.336-.924-.504-1.404-.504-.258 0-.459.048-.603.144s-.216.228-.216.396c0 .132.042.237.126.315.09.078.24.144.45.198l.774.171c.45.102.777.261.981.477.21.21.315.486.315.828 0 .42-.168.753-.504.999s-.795.369-1.377.369zm7.072-2.286h-3.132c.024.486.144.846.36 1.08.222.228.549.342.981.342.498 0 .96-.162 1.386-.486l.324.774c-.216.174-.483.315-.801.423-.312.102-.63.153-.954.153-.744 0-1.329-.21-1.755-.63s-.639-.996-.639-1.728c0-.462.093-.873.279-1.233s.447-.639.783-.837c.336-.204.717-.306 1.143-.306.624 0 1.116.204 1.476.612.366.402.549.957.549 1.665zm-1.998-1.638c-.3 0-.546.09-.738.27-.186.174-.306.429-.36.765h2.115c-.036-.342-.141-.6-.315-.774-.168-.174-.402-.261-.702-.261z" fill="#00769d"/><circle cx="220.563" cy="82.2375" fill="#00a0b6" r="5.6375"/><path d="m222.198 80.6549-2.118 2.1226-.83-.8362c-.253-.2522-.662-.2522-.914 0-.253.2522-.253.6612 0 .9134l1.287 1.2864c.121.1218.285.1903.457.1903s.336-.0685.457-.1903l2.574-2.5729c.253-.2522.253-.6611 0-.9133-.252-.2523-.661-.2523-.913 0z" fill="#fff"/><g filter="url(#d)"><rect fill="#f9fcff" height="80" rx="15" width="104" x="243" y="69"/></g><path d="m270.693 126.592h1.161v6.408h-1.161zm5.319 1.746c1.086 0 1.629.624 1.629 1.872v2.79h-1.125v-2.736c0-.36-.069-.621-.207-.783-.138-.168-.351-.252-.639-.252-.342 0-.618.111-.828.333-.21.216-.315.504-.315.864v2.574h-1.116v-3.258c0-.48-.024-.909-.072-1.287h1.053l.081.747c.156-.276.366-.489.63-.639.27-.15.573-.225.909-.225zm5.223-1.071c-.486 0-.729.267-.729.801v.387h1.017v.846h-1.017v3.699h-1.125v-3.699h-.864v-.846h.864v-.441c0-.54.135-.954.405-1.242.276-.294.669-.441 1.179-.441.282 0 .519.036.711.108v.891c-.168-.042-.315-.063-.441-.063zm3.42 5.805c-.462 0-.87-.096-1.224-.288-.348-.192-.618-.465-.81-.819-.186-.36-.279-.78-.279-1.26s.093-.897.279-1.251c.192-.36.462-.636.81-.828.354-.192.762-.288 1.224-.288.456 0 .858.096 1.206.288s.615.468.801.828c.192.354.288.771.288 1.251s-.096.9-.288 1.26c-.186.354-.453.627-.801.819s-.75.288-1.206.288zm-.009-.882c.384 0 .675-.123.873-.369.204-.252.306-.624.306-1.116 0-.486-.102-.855-.306-1.107-.204-.258-.492-.387-.864-.387-.378 0-.669.129-.873.387-.204.252-.306.621-.306 1.107 0 .492.099.864.297 1.116.204.246.495.369.873.369zm5.973-3.843c.174 0 .324.024.45.072l-.009 1.026c-.192-.078-.39-.117-.594-.117-.384 0-.678.111-.882.333-.198.222-.297.516-.297.882v2.457h-1.116v-3.258c0-.48-.024-.909-.072-1.287h1.053l.09.801c.114-.294.294-.519.54-.675s.525-.234.837-.234zm6.69-.009c.516 0 .9.156 1.152.468.252.306.378.774.378 1.404v2.79h-1.125v-2.754c0-.36-.06-.618-.18-.774-.114-.162-.306-.243-.576-.243-.312 0-.558.111-.738.333-.174.216-.261.516-.261.9v2.538h-1.125v-2.754c0-.354-.063-.612-.189-.774-.12-.162-.312-.243-.576-.243-.312 0-.558.111-.738.333-.18.216-.27.516-.27.9v2.538h-1.116v-3.258c0-.48-.024-.909-.072-1.287h1.053l.081.72c.132-.27.321-.477.567-.621.252-.144.54-.216.864-.216.696 0 1.149.288 1.359.864.144-.27.348-.48.612-.63.27-.156.57-.234.9-.234zm7.328.117v4.545h-1.107v-.729c-.138.252-.336.45-.594.594-.258.138-.552.207-.882.207-.396 0-.747-.096-1.053-.288s-.543-.465-.711-.819-.252-.765-.252-1.233.084-.882.252-1.242c.174-.366.414-.648.72-.846.306-.204.654-.306 1.044-.306.33 0 .624.072.882.216.258.138.456.333.594.585v-.684zm-2.277 3.735c.372 0 .66-.129.864-.387s.306-.621.306-1.089c0-.48-.102-.849-.306-1.107s-.495-.387-.873-.387c-.372 0-.663.135-.873.405-.204.264-.306.633-.306 1.107 0 .468.102.828.306 1.08.21.252.504.378.882.378zm5.183-2.889v2.034c0 .534.249.801.747.801.138 0 .288-.024.45-.072v.891c-.198.072-.438.108-.72.108-.516 0-.912-.144-1.188-.432s-.414-.702-.414-1.242v-2.088h-.873v-.846h.873v-1.107l1.125-.378v1.485h1.206v.846zm2.229-.846h1.116v4.545h-1.116zm1.179-2.061v1.107h-1.251v-1.107zm3.479 6.678c-.462 0-.87-.096-1.224-.288-.348-.192-.618-.465-.81-.819-.186-.36-.279-.78-.279-1.26s.093-.897.279-1.251c.192-.36.462-.636.81-.828.354-.192.762-.288 1.224-.288.456 0 .858.096 1.206.288s.615.468.801.828c.192.354.288.771.288 1.251s-.096.9-.288 1.26c-.186.354-.453.627-.801.819s-.75.288-1.206.288zm-.009-.882c.384 0 .675-.123.873-.369.204-.252.306-.624.306-1.116 0-.486-.102-.855-.306-1.107-.204-.258-.492-.387-.864-.387-.378 0-.669.129-.873.387-.204.252-.306.621-.306 1.107 0 .492.099.864.297 1.116.204.246.495.369.873.369zm6.125-3.852c1.086 0 1.629.624 1.629 1.872v2.79h-1.125v-2.736c0-.36-.069-.621-.207-.783-.138-.168-.351-.252-.639-.252-.342 0-.618.111-.828.333-.21.216-.315.504-.315.864v2.574h-1.116v-3.258c0-.48-.024-.909-.072-1.287h1.053l.081.747c.156-.276.366-.489.63-.639.27-.15.573-.225.909-.225z" fill="#00769d"/><circle cx="335.362" cy="82.2375" fill="#e1ebf4" r="5.6375"/><g filter="url(#e)"><rect fill="#f9fcff" height="80" rx="15" width="105" x="357" y="69"/></g><path d="m397.537 133.081c-.618 0-1.158-.132-1.62-.396-.456-.27-.81-.651-1.062-1.143-.246-.498-.369-1.083-.369-1.755 0-.666.123-1.245.369-1.737.246-.498.597-.879 1.053-1.143.462-.264 1.005-.396 1.629-.396s1.164.132 1.62.396c.462.264.813.645 1.053 1.143.246.492.369 1.071.369 1.737 0 .672-.123 1.257-.369 1.755-.246.492-.597.873-1.053 1.143-.456.264-.996.396-1.62.396zm0-.927c.594 0 1.056-.204 1.386-.612s.495-.993.495-1.755c0-.756-.165-1.335-.495-1.737-.33-.408-.792-.612-1.386-.612s-1.056.201-1.386.603-.495.984-.495 1.746.165 1.347.495 1.755.792.612 1.386.612zm5.831-2.853v2.034c0 .534.249.801.747.801.138 0 .288-.024.45-.072v.891c-.198.072-.438.108-.72.108-.516 0-.912-.144-1.188-.432s-.414-.702-.414-1.242v-2.088h-.873v-.846h.873v-1.107l1.125-.378v1.485h1.206v.846zm4.83-.963c1.086 0 1.629.624 1.629 1.872v2.79h-1.125v-2.736c0-.36-.069-.621-.207-.783-.138-.168-.351-.252-.639-.252-.342 0-.618.111-.828.333-.21.216-.315.504-.315.864v2.574h-1.116v-6.624h1.116v2.736c.156-.246.363-.435.621-.567.258-.138.546-.207.864-.207zm7.05 2.448h-3.132c.024.486.144.846.36 1.08.222.228.549.342.981.342.498 0 .96-.162 1.386-.486l.324.774c-.216.174-.483.315-.801.423-.312.102-.63.153-.954.153-.744 0-1.329-.21-1.755-.63s-.639-.996-.639-1.728c0-.462.093-.873.279-1.233s.447-.639.783-.837c.336-.204.717-.306 1.143-.306.624 0 1.116.204 1.476.612.366.402.549.957.549 1.665zm-1.998-1.638c-.3 0-.546.09-.738.27-.186.174-.306.429-.36.765h2.115c-.036-.342-.141-.6-.315-.774-.168-.174-.402-.261-.702-.261zm5.649-.801c.174 0 .324.024.45.072l-.009 1.026c-.192-.078-.39-.117-.594-.117-.384 0-.678.111-.882.333-.198.222-.297.516-.297.882v2.457h-1.116v-3.258c0-.48-.024-.909-.072-1.287h1.053l.09.801c.114-.294.294-.519.54-.675s.525-.234.837-.234zm2.947 4.725c-.822 0-1.476-.192-1.962-.576l.315-.792c.486.36 1.041.54 1.665.54.27 0 .477-.045.621-.135.15-.09.225-.216.225-.378 0-.138-.051-.246-.153-.324-.102-.084-.276-.156-.522-.216l-.756-.171c-.828-.18-1.242-.603-1.242-1.269 0-.276.078-.519.234-.729.156-.216.375-.384.657-.504s.609-.18.981-.18c.324 0 .636.051.936.153.3.096.564.237.792.423l-.333.765c-.456-.336-.924-.504-1.404-.504-.258 0-.459.048-.603.144s-.216.228-.216.396c0 .132.042.237.126.315.09.078.24.144.45.198l.774.171c.45.102.777.261.981.477.21.21.315.486.315.828 0 .42-.168.753-.504.999s-.795.369-1.377.369z" fill="#00769d"/><circle cx="450.163" cy="82.2375" fill="#e1ebf4" r="5.6375"/><g fill="#00a0b6"><path clip-rule="evenodd" d="m188.642 98.9465c0-1.1879-.965-2.1509-2.157-2.1509h-6.471c-1.191 0-2.157.963-2.157 2.1509h-3.236v-3.2263h2.513c1.936.0032 3.589-1.3939 3.902-3.2987.314-1.9049-.804-3.7553-2.64-4.3692-1.012-2.1039-3.269-3.3171-5.588-3.0032-2.318.3138-4.17 2.083-4.582 4.3798-1.509.4944-2.435 2.0076-2.186 3.5715.25 1.564 1.601 2.7162 3.189 2.7198h3.235v8.6038c0 .594.483 1.075 1.079 1.075h4.314c0 1.188.966 2.151 2.157 2.151h6.471c1.192 0 2.157-.963 2.157-2.151v-2.151c-.004-.378-.108-.749-.302-1.075.194-.326.298-.697.302-1.076zm-19.413-5.377c-.596 0-1.079-.4815-1.079-1.0754 0-.594.483-1.0755 1.079-1.0755.595 0 1.078-.4815 1.078-1.0754-.018-1.5854 1.122-2.9489 2.689-3.2165 1.568-.2676 3.098.64 3.61 2.1411.129.3723.451.6446.841.7097.876.1446 1.511.9109 1.488 1.796 0 .9919-.806 1.796-1.801 1.796zm5.393 9.6785h3.236c.004-.379.108-.75.302-1.075-.194-.326-.298-.697-.302-1.076h-3.236zm5.392 2.151v-2.151h6.471v2.151zm0-6.4525v2.1505h6.471v-2.1505z" fill-rule="evenodd"/><path clip-rule="evenodd" d="m303.023 97.2363c.031.095.053.1932.064.2929v.0651 10.8487c0 1.798-1.435 3.255-3.204 3.255h-10.679c-1.77 0-3.204-1.457-3.204-3.255v-15.1883c0-1.7975 1.434-3.2547 3.204-3.2547h6.461c.124.0156.244.0561.352.1193.032-.0046.064-.0046.096 0 .11.0522.211.1218.299.2062l6.408 6.5094c.083.0896.151.1922.203.3037zm-3.579-.7267-2.766-2.8099v1.725c0 .5992.478 1.0849 1.068 1.0849zm1.507 11.9334c0 .6-.478 1.085-1.068 1.085h-10.679c-.59 0-1.068-.485-1.068-1.085v-15.1882c0-.5991.478-1.0849 1.068-1.0849h5.34v3.2547c0 1.7975 1.434 3.2547 3.203 3.2547h3.204zm-7.475-3.699 3.514-3.58c.418-.426 1.097-.426 1.516 0 .419.425.419 1.115 0 1.54l-4.272 4.34c-.2.205-.473.321-.758.321-.284 0-.557-.116-.758-.321l-2.136-2.17c-.419-.426-.419-1.115 0-1.541.419-.425 1.098-.425 1.517 0z" fill-rule="evenodd"/><path d="m419.756 100.094h-2.594v-2.6628c0-.4148-.344-.75-.769-.75h-7.567l-2.818-2.6296c-.036-.0328-.083-.0512-.132-.0516h-6.107c-.425 0-.769.3352-.769.75v13.875c0 .415.344.75.769.75h16.768c.312 0 .596-.185.714-.469l3.219-7.781c.036-.089.055-.185.055-.281 0-.415-.344-.75-.769-.75zm-19.026-4.4065h4.528l2.873 2.6813h7.301v1.7252h-12.252c-.312 0-.596.185-.713.468l-1.737 4.201zm15.262 12.0005h-14.71l2.482-6h14.712z"/></g></svg>