<svg width="55" height="55" viewBox="0 0 55 55" fill="none" xmlns="http://www.w3.org/2000/svg">
<path d="M44.6875 55H10.3125C4.61662 55 0 50.3834 0 44.6875V10.3125C0 4.61662 4.61662 0 10.3125 0H44.6875C50.3834 0 55 4.61662 55 10.3125V44.6875C55 50.3834 50.3834 55 44.6875 55Z" fill="#E3F8FA"/>
<path d="M27.5 13.75C19.9188 13.75 13.75 19.9188 13.75 27.5C13.75 35.0812 19.9188 41.25 27.5 41.25C35.0812 41.25 41.25 35.0812 41.25 27.5C41.25 19.9188 35.0812 13.75 27.5 13.75ZM33.5156 28.6464H28.6464V33.5156C28.6464 34.148 28.1324 34.662 27.5 34.662C26.8676 34.662 26.3536 34.148 26.3536 33.5156V28.6464H21.4844C20.852 28.6464 20.338 28.1324 20.338 27.5C20.338 26.8676 20.852 26.3536 21.4844 26.3536H26.3536V21.4844C26.3536 20.852 26.8676 20.338 27.5 20.338C28.1324 20.338 28.6464 20.852 28.6464 21.4844V26.3536H33.5156C34.148 26.3536 34.662 26.8676 34.662 27.5C34.662 28.1324 34.148 28.6464 33.5156 28.6464Z" fill="#26C6DA"/>
</svg>
