<svg fill="none" height="205" viewBox="0 0 238 205" width="238" xmlns="http://www.w3.org/2000/svg" xmlns:xlink="http://www.w3.org/1999/xlink"><filter id="a" color-interpolation-filters="sRGB" filterUnits="userSpaceOnUse" height="36.013" width="32.3459" x="188.011" y="113.283"><feFlood flood-opacity="0" result="BackgroundImageFix"/><feColorMatrix in="SourceAlpha" result="hardAlpha" type="matrix" values="0 0 0 0 0 0 0 0 0 0 0 0 0 0 0 0 0 0 127 0"/><feOffset dx="2" dy="2"/><feGaussianBlur stdDeviation="2"/><feColorMatrix type="matrix" values="0 0 0 0 0.0846528 0 0 0 0 0.150363 0 0 0 0 0.383333 0 0 0 0.25 0"/><feBlend in2="BackgroundImageFix" mode="normal" result="effect1_dropShadow"/><feBlend in="SourceGraphic" in2="effect1_dropShadow" mode="normal" result="shape"/></filter><filter id="b" color-interpolation-filters="sRGB" filterUnits="userSpaceOnUse" height="164.618" width="88.2565" x="86.6641" y="32.4976"><feFlood flood-opacity="0" result="BackgroundImageFix"/><feColorMatrix in="SourceAlpha" result="hardAlpha" type="matrix" values="0 0 0 0 0 0 0 0 0 0 0 0 0 0 0 0 0 0 127 0"/><feOffset dx="2" dy="2"/><feGaussianBlur stdDeviation="2"/><feColorMatrix type="matrix" values="0 0 0 0 0.0846528 0 0 0 0 0.150363 0 0 0 0 0.383333 0 0 0 0.25 0"/><feBlend in2="BackgroundImageFix" mode="normal" result="effect1_dropShadow"/><feBlend in="SourceGraphic" in2="effect1_dropShadow" mode="normal" result="shape"/></filter><filter id="c" color-interpolation-filters="sRGB" filterUnits="userSpaceOnUse" height="56.9545" width="56.6942" x="147.82" y=".241455"><feFlood flood-opacity="0" result="BackgroundImageFix"/><feColorMatrix in="SourceAlpha" result="hardAlpha" type="matrix" values="0 0 0 0 0 0 0 0 0 0 0 0 0 0 0 0 0 0 127 0"/><feOffset dx="2" dy="2"/><feGaussianBlur stdDeviation="2"/><feColorMatrix type="matrix" values="0 0 0 0 0.0846528 0 0 0 0 0.150363 0 0 0 0 0.383333 0 0 0 0.25 0"/><feBlend in2="BackgroundImageFix" mode="normal" result="effect1_dropShadow"/><feBlend in="SourceGraphic" in2="effect1_dropShadow" mode="normal" result="shape"/></filter><linearGradient id="d"><stop offset="0" stop-color="#b0e7c6"/><stop offset="1" stop-color="#5dd1b3"/></linearGradient><linearGradient id="e" gradientUnits="userSpaceOnUse" x1="202.184" x2="202.184" xlink:href="#d" y1="85.9966" y2="130.563"/><linearGradient id="f" gradientUnits="userSpaceOnUse" x1="128.792" x2="128.792" y1="34.4976" y2="191.116"><stop offset="0" stop-color="#fff"/><stop offset="1" stop-color="#d7f1f9"/></linearGradient><linearGradient id="g"><stop offset="0" stop-color="#85beff"/><stop offset="1" stop-color="#5183bb"/></linearGradient><linearGradient id="h" gradientUnits="userSpaceOnUse" x1="105.366" x2="105.366" xlink:href="#g" y1="101.418" y2="116.981"/><linearGradient id="i" gradientUnits="userSpaceOnUse" x1="120.936" x2="120.936" xlink:href="#d" y1="95.9001" y2="116.981"/><linearGradient id="j" gradientUnits="userSpaceOnUse" x1="136.648" x2="136.648" xlink:href="#g" y1="87.9771" y2="117.122"/><linearGradient id="k" gradientUnits="userSpaceOnUse" x1="152.784" x2="152.784" xlink:href="#d" y1="81.6104" y2="116.98"/><linearGradient id="l" gradientUnits="userSpaceOnUse" x1="173.923" x2="174.411" xlink:href="#d" y1="2.24263" y2="51.1947"/><linearGradient id="m" gradientUnits="userSpaceOnUse" x1="76.8056" x2="76.8056" xlink:href="#d" y1="81.1858" y2="97.3774"/><linearGradient id="n" gradientUnits="userSpaceOnUse" x1="87.9559" x2="87.9559" xlink:href="#d" y1="67.7454" y2="87.6665"/><linearGradient id="o" gradientUnits="userSpaceOnUse" x1="48.182" x2="48.182" xlink:href="#d" y1="95.2844" y2="142.831"/><path d="m222.849 198.615h-219.53706c-1.69855 0-2.972462 1.414-2.972462 2.971 0 1.697 1.415452 2.971 2.972462 2.971h219.53706c1.699 0 2.973-1.415 2.973-2.971.141-1.557-1.274-2.971-2.973-2.971z" fill="#d7f1f9"/><path d="m222.566 130.563c8.493 0 15.429-6.933 15.429-15.422 0-8.488-6.936-15.4209-15.429-15.4209-1.981 0-3.822.4249-5.52.9909-.425-8.2063-7.077-14.7144-15.429-14.7144-8.068 0-14.579 6.0836-15.428 13.865-1.415-.4244-2.831-.7074-4.388-.7074-8.493 0-15.428 6.9328-15.428 15.4218 0 8.488 6.935 15.562 15.428 15.562z" fill="url(#e)"/><g filter="url(#a)"><path d="m196.097 143.296h12.173v-12.026h6.087l-12.173-15.987-12.173 15.987h6.086z" fill="#5183bb"/></g><path d="m159.861 25.0186h-62.2798c-10.1912 0-18.4009 8.2058-18.4009 18.3924v138.792c0 10.186 8.2097 18.392 18.4009 18.392h62.4218c10.191 0 18.401-8.206 18.401-18.392v-138.792c0-10.1866-8.351-18.3924-18.543-18.3924z" fill="#5183bb"/><g filter="url(#b)"><path d="m97.5814 191.116c-4.9541 0-8.9173-3.962-8.9173-8.913v-138.7922c0-4.9518 3.9632-8.9132 8.9173-8.9132h62.4216c4.954 0 8.918 3.9614 8.918 8.9132v138.7922c0 4.951-3.964 8.913-8.918 8.913z" fill="url(#f)"/></g><g fill="#5183bb"><path d="m157.88 29.9702h-58.3173l3.5383 7.357c1.84 3.8199 5.662 6.2251 9.909 6.2251h31.281c4.247 0 8.068-2.4052 9.908-6.2251z"/><path d="m134.383 144.711h-32.13c-1.133 0-1.982.849-1.982 1.98 0 1.132.849 1.981 1.982 1.981h31.989c1.132 0 1.982-.849 1.982-1.981 0-1.131-.85-1.98-1.841-1.98z"/><path d="m128.155 151.926h-25.903c-1.132 0-1.981.849-1.981 1.981s.849 1.981 1.981 1.981h25.903c1.132 0 1.982-.849 1.982-1.981s-.85-1.981-1.982-1.981z"/><path d="m119.804 159.849h-17.552c-1.132 0-1.981.849-1.981 1.98 0 1.132.849 1.981 1.981 1.981h17.41c1.133 0 1.982-.849 1.982-1.981.141-1.131-.849-1.98-1.84-1.98z"/></g><path d="m110.32 101.418h-9.908v15.563h9.908z" fill="url(#h)"/><path d="m125.89 95.9001h-9.908v21.0809h9.908z" fill="url(#i)"/><path d="m141.602 87.9771h-9.908v29.1449h9.908z" fill="url(#j)"/><path d="m157.738 81.6104h-9.908v35.3696h9.908z" fill="url(#k)"/><path d="m153.209 124.338h-47.701c-3.114 0-5.6617 2.546-5.6617 5.659 0 3.112 2.5477 5.659 5.6617 5.659h47.701c3.114 0 5.662-2.547 5.662-5.659 0-3.113-2.548-5.659-5.662-5.659z" fill="#fff"/><path d="m154.908 144.711h-9.626c-2.123 0-3.821 1.697-3.821 3.82v9.62c0 2.123 1.698 3.82 3.821 3.82h9.626c2.123 0 3.821-1.697 3.821-3.82v-9.62c0-2.123-1.698-3.82-3.821-3.82z" fill="#fff"/><path d="m147.547 55.0125h-34.395c-1.841 0-3.256 1.4148-3.256 3.254s1.415 3.254 3.256 3.254h34.395c1.84 0 3.256-1.4148 3.256-3.254 0-1.6978-1.416-3.254-3.256-3.254z" fill="#5183bb"/><g filter="url(#c)"><path d="m174.411 51.1947c13.446-.134 24.237-11.2009 24.102-24.7186-.135-13.5178-11.144-24.36745-24.59-24.23347s-24.237 11.20087-24.102 24.71867c.135 13.5177 11.144 24.3674 24.59 24.2334z" fill="url(#l)"/></g><path d="m185.057 36.62-21.515.2829v-3.1125c0-1.9807.991-3.82 2.548-4.8103l4.105-2.6882c-2.124-1.2733-3.398-3.6784-3.398-6.2251 0-4.2444 3.539-7.7814 7.785-7.4984 3.681.1415 6.795 3.254 7.078 6.9325.283 2.8296-1.133 5.3762-3.397 6.9325l4.104 2.6881c1.557 1.1319 2.548 2.8296 2.548 4.8104z" fill="#fff"/><path d="m67.6197 63.6032c2.1979-2.596 3.48-5.9338 3.48-9.6424 0-8.2516-6.5936-14.9271-14.744-14.9271s-14.744 6.6755-14.744 14.9271c0 8.2517 6.5936 14.9272 14.744 14.9272 3.2052 0 6.1357-1.0199 8.5167-2.6888 3.2052.1855 6.5936 0 6.5936 0zm-17.9492-7.3245c-.8242 0-1.5568-.649-1.5568-1.5762 0-.9271.641-1.5761 1.5568-1.5761.8242 0 1.5568.649 1.5568 1.5761 0 .9272-.7326 1.5762-1.5568 1.5762zm6.7768 0c-.8242 0-1.5569-.649-1.5569-1.5762 0-.9271.6411-1.5761 1.5569-1.5761.8242 0 1.5568.649 1.5568 1.5761 0 .9272-.7326 1.5762-1.5568 1.5762zm6.7767 0c-.8242 0-1.5568-.649-1.5568-1.5762 0-.9271.641-1.5761 1.5568-1.5761.8242 0 1.5568.649 1.5568 1.5761 0 .9272-.7326 1.5762-1.5568 1.5762z" fill="#badbff"/><path d="m55.1178 139.617-15.0039 56.734h-7.6434l6.6526-58.856z" fill="#004e82"/><path d="m40.3971 138.344s.1415 3.82 3.3971 8.347c3.2555 4.527 16.7024 18.11 16.7024 18.11l-1.4155 31.267h6.7942l5.6619-34.522-13.8715-22.636z" fill="#5183bb"/><path d="m71.1123 83.4495 7.0773 12.7332c.5662 1.1318 1.9816 1.5562 3.114.8488 1.1324-.5659 1.557-1.9807.8493-3.1125l-7.0773-12.7332z" fill="url(#m)"/><path d="m87.39 74.3946 3.2556 5.9422c1.557-.9904 2.1231-2.9711 1.2739-4.5274-.9909-1.5562-2.9725-2.2636-4.5295-1.4148z" fill="#badbff"/><path d="m82.8603 67.8868-.2831.1415c-.4247.283-.7078.8489-.4247 1.2733l9.6251 17.8265c.2831.4245.8493.7074 1.2739.4245l.2831-.1415c.4247-.283.7078-.8489.4247-1.2733l-9.6251-17.8265c-.2831-.5659-.8493-.7074-1.2739-.4245z" fill="url(#n)"/><path d="m82.5774 70.009c0 .566-7.785 8.6303-12.8807 12.3088-1.8401 1.4148-2.4062 3.9614-1.2739 5.9422 1.1324 1.9807 3.5387 2.971 5.6619 2.1221 5.9449-2.1221 16.8439-4.3858 17.4101-3.9614z" fill="#5183bb"/><path d="m74.0847 78.7808 5.3787 10.0451c5.5203-1.4148 11.6068-2.5467 12.0314-2.4052l-8.9173-16.4117c0 .4245-4.2464 4.9518-8.4928 8.7718z" fill="#badbff"/><path d="m74.6509 94.0609.9908-2.6881.9909 1.6978 1.9816-1.1319c1.557-.8489 3.5386-.2829 4.3879 1.2733.8493 1.5563.2831 3.537-1.2739 4.3859-1.6985.9904-3.5386 1.2733-5.5203 1.1319h-.7077l-1.9816-3.537z" fill="#ffe27c"/><path d="m61.0625 80.7619s1.8401-7.4985-5.6618-7.9229c-7.502-.4245-11.8899 4.2444-13.0223 8.0643-1.6985 5.6592 1.1324 11.3185 4.1049 12.8747l4.1048-9.0547z" fill="#004e82"/><path d="m48.6067 84.7232s-1.9817-2.6882-2.9725-.4245-.8493 5.5177 2.6894 5.3763c0 0 1.4154 6.791 7.9265 4.8103s5.6619-10.7525 4.671-13.8651c0 0-5.8033.9904-9.6251-.7074.1416.283-1.2739 4.3859-2.6893 4.8104z" fill="#ffe27c"/><path d="m54.127 92.7875-.8493 8.3475-7.3603-4.8105.8492-8.7718z" fill="#ffe27c"/><path d="m43.0863 96.0413s-4.9541 2.1222-6.0865 4.3857c-.7077 1.415-2.6894 8.913-3.8217 13.582-.5662 2.264.283 4.811 2.2647 6.225l9.6251 7.074z" fill="#64d3b5"/><path d="m46.3419 95.3341s-2.2647-.5659-4.5295 2.1222c-2.2647 2.6877-3.9633 6.2247-3.2555 16.8357.7077 10.611-2.8309 25.467-2.8309 25.467 7.2188 3.82 15.9946 4.103 23.4965.707l1.4155-.707s-.4246-27.164-5.9449-39.19z" fill="url(#o)"/><path d="m52.2866 98.8709 12.4561 8.7721 9.2004-13.8654 3.2556 6.0836s-8.0681 16.4118-11.0406 19.5238l-19.8164-10.186c-2.8309-1.415-3.9633-4.81-2.6894-7.781 1.4155-3.2545 5.5203-4.5279 8.6343-2.5471z" fill="#b0e7c6"/><g fill="#004e82"><path d="m58.9396 196.068v5.376h14.5792c.8493 0 1.2739-1.131.5662-1.697-1.6986-1.274-4.671-2.971-8.9174-3.679z"/><path d="m32.6119 196.068v5.376h14.5793c.8492 0 1.2739-1.131.5661-1.697-1.6985-1.274-4.671-2.971-8.9173-3.679z"/></g></svg>