<svg width="48" height="48" viewBox="0 0 48 48" fill="none" xmlns="http://www.w3.org/2000/svg">
<circle cx="24" cy="24" r="24" fill="#E6E3FA"/>
<rect x="11.4004" y="11.3999" width="25.2" height="25.2" rx="2.2" stroke="#2638DA" stroke-width="2"/>
<path d="M20.0775 28.9562C20.8718 28.9562 21.4034 28.4433 21.4034 27.6491V21.1012C21.4034 20.1944 20.8405 19.6191 19.8837 19.6191C19.3709 19.6191 18.9143 19.6691 18.389 20.0193L16.7505 21.1138C16.4003 21.3514 16.2502 21.6516 16.2502 22.0206C16.2502 22.5459 16.6316 22.9149 17.1257 22.9149C17.3759 22.9149 17.5197 22.8648 17.7448 22.7085L18.7017 22.0456H18.7517V27.6491C18.7517 28.4433 19.2833 28.9562 20.0775 28.9562ZM27.132 29.05C29.6085 29.05 31.1657 27.2363 31.1657 24.2595C31.1657 21.2576 29.5897 19.519 27.132 19.519C24.6742 19.519 23.0919 21.2638 23.0919 24.2657C23.0919 27.2488 24.6554 29.05 27.132 29.05ZM27.132 27.0112C26.3189 27.0112 25.7936 26.1544 25.7936 24.2657C25.7936 22.3708 26.3189 21.5578 27.132 21.5578C27.945 21.5578 28.464 22.3708 28.464 24.2657C28.464 26.1544 27.945 27.0112 27.132 27.0112Z" fill="#2638DA"/>
</svg>
