<svg width="48" height="48" viewBox="0 0 48 48" fill="none" xmlns="http://www.w3.org/2000/svg">
<circle cx="24" cy="24" r="24" fill="#E8FAE3"/>
<g clip-path="url(#clip0)">
<path d="M20.5583 28.5932C21.8029 27.6416 22.6074 26.1421 22.6074 24.458C22.6074 21.589 20.2733 19.2549 17.4043 19.2549C14.5353 19.2549 12.2012 21.589 12.2012 24.458C12.2012 26.1421 13.0057 27.6416 14.2503 28.5932C11.5135 29.8072 9.59961 32.5498 9.59961 35.7314V38.333C9.59961 38.8119 9.98788 39.2002 10.4668 39.2002H24.3418C24.8207 39.2002 25.209 38.8119 25.209 38.333V35.7314C25.209 32.5498 23.2951 29.8072 20.5583 28.5932ZM13.9355 24.458C13.9355 22.5453 15.4916 20.9893 17.4043 20.9893C19.317 20.9893 20.873 22.5453 20.873 24.458C20.873 26.3707 19.317 27.9268 17.4043 27.9268C15.4916 27.9268 13.9355 26.3707 13.9355 24.458ZM23.4746 37.4658H11.334V35.7314C11.334 32.3843 14.0571 29.6611 17.4043 29.6611C20.7515 29.6611 23.4746 32.3843 23.4746 35.7314V37.4658Z" fill="#26DA4E"/>
<path d="M38.334 9.6001H24.459C23.9801 9.6001 23.5918 9.98837 23.5918 10.4673V20.8735C23.5918 21.3525 23.9801 21.7407 24.459 21.7407H27.0605V24.3423C27.0605 24.693 27.2718 25.0092 27.5959 25.1435C27.9199 25.2777 28.2929 25.2035 28.541 24.9555L31.7557 21.7407H38.334C38.8129 21.7407 39.2012 21.3525 39.2012 20.8735V10.4673C39.2012 9.98837 38.8129 9.6001 38.334 9.6001ZM37.4668 20.0063H31.3965C31.1664 20.0063 30.9459 20.0977 30.7833 20.2603L28.7949 22.2487V20.8735C28.7949 20.3946 28.4067 20.0063 27.9277 20.0063H25.3262V11.3345H37.4668V20.0063Z" fill="#26DA4E"/>
<path d="M34.6113 13.3228C34.2727 12.9842 33.7236 12.9842 33.3849 13.3228L30.5293 16.1784L29.4081 15.0572C29.0695 14.7185 28.5204 14.7185 28.1817 15.0572C27.8431 15.3958 27.8431 15.9449 28.1817 16.2835L29.9162 18.018C30.2548 18.3566 30.8039 18.3566 31.1425 18.018L34.6113 14.5492C34.95 14.2106 34.95 13.6615 34.6113 13.3228Z" fill="#26DA4E"/>
</g>
<defs>
<clipPath id="clip0">
<rect width="29.6" height="29.6" fill="white" transform="translate(9.59961 9.6001)"/>
</clipPath>
</defs>
</svg>
