<svg width="471" height="424" viewBox="0 0 471 424" fill="none" xmlns="http://www.w3.org/2000/svg">
<ellipse cx="235.5" cy="322.5" rx="235.5" ry="101.5" fill="url(#paint0_radial_4229:18586)"/>
<path d="M75.1659 218.156L73.3641 210.942H69.2456C64.8697 208.108 58.4346 206.305 51.2273 206.305C44.02 206.305 37.5848 208.108 32.9516 210.942H29.0905L27.2887 217.898C27.0312 218.671 27.0312 219.444 27.0312 220.217C27.0312 227.946 37.8422 234.129 51.2273 234.129C64.6123 234.129 75.4233 227.946 75.4233 220.217C75.4233 219.702 75.1659 218.929 75.1659 218.156Z" fill="#F9FCFF"/>
<path d="M75.1626 218.411L73.3608 211.197H69.2423C64.8664 208.363 58.4313 206.56 51.224 206.56C49.6795 206.56 48.1351 206.56 46.5907 206.817C42.4722 207.59 38.8685 208.878 36.0371 210.939H33.7204C33.463 211.197 33.2056 211.197 32.9482 211.455H31.9186L30.1168 218.153C29.8594 218.926 29.8594 219.699 29.8594 220.472C29.8594 228.201 40.6704 234.384 54.0554 234.384C55.5998 234.384 57.1443 234.384 58.6887 234.126C68.4701 232.323 75.42 227.17 75.42 220.729C75.42 219.699 75.42 219.184 75.1626 218.411Z" fill="#00A0B6"/>
<path d="M28.3166 217.125L28.0592 218.155C27.8018 218.928 27.8018 219.443 27.8018 220.216C27.8018 227.43 38.3554 233.355 51.2257 233.355C64.0959 233.355 74.6495 227.43 74.6495 220.216C74.6495 219.701 74.6495 218.928 74.3921 218.413L72.8476 211.972H69.244L68.9866 211.714C64.6107 208.88 58.1756 207.077 51.2257 207.077C44.5331 207.077 38.098 208.623 33.4647 211.714L33.2073 211.972H29.8611L28.3166 217.125ZM51.2257 235.159C37.3258 235.159 26 228.46 26 220.216C26 219.701 26 219.443 26 218.928L26.2574 217.898L28.3166 210.169H32.6925C37.3258 207.077 44.0183 205.531 50.9682 205.531C57.9182 205.531 64.6107 207.335 69.244 210.169H73.8773L75.6791 217.898C75.9365 218.67 75.9365 219.443 75.9365 220.216C76.1939 228.46 65.1255 235.159 51.2257 235.159Z" fill="#006587"/>
<path d="M73.6185 212.745C73.6185 219.959 63.5797 225.627 51.2243 225.627C38.8689 225.627 28.8301 219.959 28.8301 212.745C28.8301 205.531 38.8689 199.863 51.2243 199.863C63.5797 199.863 73.6185 205.531 73.6185 212.745Z" fill="#00A0B6"/>
<path d="M73.8761 212.746C73.8761 210.427 72.589 208.109 70.5298 206.048C66.4113 203.471 60.491 201.668 53.7985 201.668C41.4431 201.668 31.4043 207.336 31.4043 214.55C31.4043 216.868 32.6913 219.187 34.7506 221.248C38.869 223.824 44.7893 225.628 51.4819 225.628C63.8373 225.628 73.8761 219.702 73.8761 212.746Z" fill="#F9FCFF"/>
<path d="M51.2231 200.636C39.3824 200.636 29.8585 206.046 29.8585 212.744C29.8585 219.443 39.3824 224.853 51.2231 224.853C63.0637 224.853 72.5876 219.443 72.5876 212.744C72.5876 206.046 63.0637 200.636 51.2231 200.636ZM51.2231 226.399C38.3528 226.399 28.0566 220.216 28.0566 212.744C28.0566 205.273 38.3528 199.09 51.2231 199.09C64.0933 199.09 74.3895 205.273 74.3895 212.744C74.3895 220.216 64.0933 226.399 51.2231 226.399Z" fill="#006587"/>
<path d="M62.5481 211.973C62.5481 215.322 57.4 217.899 51.2223 217.899C45.0446 217.899 39.8965 215.322 39.8965 211.973C39.8965 208.624 45.0446 206.048 51.2223 206.048C57.4 205.79 62.5481 208.624 62.5481 211.973Z" fill="#F9FCFF"/>
<path d="M51.2268 205.789C49.6823 205.789 48.3953 206.047 47.1083 206.304C44.5343 207.335 42.7324 209.138 42.7324 210.942C42.7324 214.291 47.8805 216.867 54.0582 216.867C55.6026 216.867 56.8897 216.61 58.1767 216.352C60.7507 215.321 62.5526 213.518 62.5526 211.715C62.5526 208.623 57.4045 205.789 51.2268 205.789Z" fill="#00A0B6"/>
<path d="M51.2265 206.819C45.5636 206.819 40.6729 209.138 40.6729 211.972C40.6729 214.806 45.5636 217.124 51.2265 217.124C56.8894 217.124 61.7801 214.806 61.7801 211.972C61.5227 209.138 56.8894 206.819 51.2265 206.819ZM51.2265 218.928C44.2766 218.928 38.8711 215.836 38.8711 211.972C38.8711 208.107 44.2766 205.016 51.2265 205.016C58.1764 205.016 63.5819 208.107 63.5819 211.972C63.3245 215.836 57.919 218.928 51.2265 218.928Z" fill="#006587"/>
<path d="M51.2223 209.912C56.113 209.912 60.2315 211.457 62.0333 214.034C62.2907 213.518 62.5481 212.745 62.5481 212.23C62.5481 208.881 57.4 206.305 51.2223 206.305C45.0446 206.305 39.8965 208.881 39.8965 212.23C39.8965 213.003 40.1539 213.518 40.6687 214.291C41.9557 211.457 46.3316 209.912 51.2223 209.912Z" fill="#006587"/>
<path d="M51.2265 206.818C45.5636 206.818 40.6729 209.137 40.6729 211.971C40.6729 212.228 40.6729 212.228 40.6729 212.486C42.9896 210.167 46.8506 208.879 51.2265 208.879C55.6024 208.879 59.4635 210.167 61.5227 211.971V211.713C61.5227 209.137 56.8894 206.818 51.2265 206.818ZM41.1877 214.289H39.6433C39.1285 213.516 38.8711 212.743 38.8711 211.713C38.8711 207.848 44.2766 204.757 51.2265 204.757C58.1764 204.757 63.5819 207.848 63.5819 211.713C63.5819 212.486 63.3245 213.259 62.8097 214.032L60.4931 215.062L61.2653 214.032C59.7209 211.971 55.8598 210.425 51.2265 210.425C46.5932 210.682 42.4748 212.228 41.1877 214.289Z" fill="#006587"/>
<path d="M46.3351 225.626L45.8203 233.87H56.1165L65.1257 231.551L70.0163 229.49L74.3922 225.626L75.4218 220.473L74.1348 214.032L71.5608 217.897L68.2145 220.988L60.7498 224.338L51.2258 225.626H46.3351Z" fill="#006587"/>
<path d="M29.8603 216.352L28.0585 224.596L26.7715 219.443L28.3159 213.775L29.8603 216.352Z" fill="#006587"/>
<path d="M128.763 194.411C129.792 194.926 129.792 195.957 128.763 196.472C127.733 196.987 126.189 196.987 125.159 196.472C124.129 195.957 124.129 194.926 125.159 194.411C126.189 193.896 127.99 193.896 128.763 194.411Z" fill="#006587"/>
<path d="M119.499 189.003C120.529 189.518 120.529 190.548 119.499 191.064C118.469 191.579 116.925 191.579 115.895 191.064C114.866 190.548 114.866 189.518 115.895 189.003C116.925 188.487 118.727 188.487 119.499 189.003Z" fill="#006587"/>
<path d="M128.763 183.852C129.792 184.367 129.792 185.398 128.763 185.913C127.733 186.428 126.189 186.428 125.159 185.913C124.129 185.398 124.129 184.367 125.159 183.852C126.189 183.079 127.99 183.079 128.763 183.852Z" fill="#006587"/>
<path d="M110.229 183.852C111.259 184.367 111.259 185.398 110.229 185.913C109.2 186.428 107.655 186.428 106.626 185.913C105.596 185.398 105.596 184.367 106.626 183.852C107.655 183.079 109.457 183.079 110.229 183.852Z" fill="#006587"/>
<path d="M119.499 178.44C120.529 178.955 120.529 179.986 119.499 180.501C118.469 181.016 116.925 181.016 115.895 180.501C114.866 179.986 114.866 178.955 115.895 178.44C116.925 177.925 118.727 177.925 119.499 178.44Z" fill="#006587"/>
<path d="M100.964 178.44C101.993 178.955 101.993 179.986 100.964 180.501C99.9341 181.016 98.3897 181.016 97.3601 180.501C96.3305 179.986 96.3305 178.955 97.3601 178.44C98.3897 177.925 100.192 177.925 100.964 178.44Z" fill="#006587"/>
<path d="M110.229 173.032C111.259 173.547 111.259 174.578 110.229 175.093C109.2 175.608 107.655 175.608 106.626 175.093C105.596 174.578 105.596 173.547 106.626 173.032C107.655 172.517 109.457 172.517 110.229 173.032Z" fill="#006587"/>
<path d="M91.7001 173.032C92.7297 173.547 92.7297 174.578 91.7001 175.093C90.6705 175.608 89.126 175.608 88.0964 175.093C87.0668 174.578 87.0668 173.547 88.0964 173.032C89.126 172.517 90.6705 172.517 91.7001 173.032Z" fill="#006587"/>
<path d="M81.4013 167.878C82.4309 168.393 82.4309 169.423 81.4013 169.939C80.3716 170.454 78.8272 170.454 77.7976 169.939C76.768 169.423 76.768 168.393 77.7976 167.878C78.8272 167.362 80.3716 167.362 81.4013 167.878Z" fill="#006587"/>
<path d="M100.964 167.619C101.993 168.134 101.993 169.165 100.964 169.68C99.9341 170.195 98.3897 170.195 97.3601 169.68C96.3305 169.165 96.3305 168.134 97.3601 167.619C98.3897 167.104 100.192 167.104 100.964 167.619Z" fill="#006587"/>
<path d="M91.7001 162.209C92.7297 162.724 92.7297 163.755 91.7001 164.27C90.6705 164.785 89.126 164.785 88.0964 164.27C87.0668 163.755 87.0668 162.724 88.0964 162.209C89.126 161.693 90.6705 161.693 91.7001 162.209Z" fill="#006587"/>
<path d="M147.811 193.639C148.841 194.155 148.841 195.185 147.811 195.7C146.782 196.216 145.237 196.216 144.208 195.7C143.178 195.185 143.178 194.155 144.208 193.639C145.237 193.124 146.782 193.124 147.811 193.639Z" fill="#006587"/>
<path d="M140.091 198.791C141.12 199.306 141.12 200.337 140.091 200.852C139.061 201.367 137.517 201.367 136.487 200.852C135.457 200.337 135.457 199.306 136.487 198.791C137.517 198.275 139.061 198.275 140.091 198.791Z" fill="#006587"/>
<path d="M147.556 183.848C148.585 184.364 148.585 185.394 147.556 185.909C146.526 186.425 144.982 186.425 143.952 185.909C142.922 185.394 142.922 184.364 143.952 183.848C144.982 183.333 146.526 183.333 147.556 183.848Z" fill="#006587"/>
<path d="M156.821 178.44C157.851 178.955 157.851 179.986 156.821 180.501C155.792 181.016 154.247 181.016 153.218 180.501C152.188 179.986 152.188 178.955 153.218 178.44C154.247 177.925 155.792 177.925 156.821 178.44Z" fill="#006587"/>
<path d="M166.087 173.032C167.116 173.547 167.116 174.578 166.087 175.093C165.057 175.608 163.513 175.608 162.483 175.093C161.454 174.578 161.454 173.547 162.483 173.032C163.513 172.517 165.057 172.517 166.087 173.032Z" fill="#006587"/>
<path d="M175.352 167.619C176.382 168.134 176.382 169.165 175.352 169.68C174.323 170.195 172.778 170.195 171.749 169.68C170.719 169.165 170.719 168.134 171.749 167.619C172.778 167.104 174.323 167.104 175.352 167.619Z" fill="#006587"/>
<path d="M184.62 162.464C185.65 162.98 185.65 164.01 184.62 164.525C183.59 165.041 182.046 165.041 181.016 164.525C179.987 164.01 179.987 162.98 181.016 162.464C182.046 161.692 183.59 161.692 184.62 162.464Z" fill="#006587"/>
<path d="M193.888 157.052C194.917 157.568 194.917 158.598 193.888 159.114C192.858 159.629 191.314 159.629 190.284 159.114C189.254 158.598 189.254 157.568 190.284 157.052C191.314 156.537 192.858 156.537 193.888 157.052Z" fill="#006587"/>
<path d="M134.684 178.44C135.714 177.925 137.258 177.925 138.288 178.44C139.318 178.955 139.318 179.986 138.288 180.501C137.258 181.016 135.714 181.016 134.684 180.501C133.655 179.986 133.655 178.955 134.684 178.44Z" fill="#006587"/>
<path d="M147.556 173.032C148.585 173.547 148.585 174.578 147.556 175.093C146.526 175.608 144.982 175.608 143.952 175.093C142.922 174.578 142.922 173.547 143.952 173.032C144.982 172.517 146.526 172.517 147.556 173.032Z" fill="#006587"/>
<path d="M156.821 167.619C157.851 168.134 157.851 169.165 156.821 169.68C155.792 170.195 154.247 170.195 153.218 169.68C152.188 169.165 152.188 168.134 153.218 167.619C154.247 167.104 155.792 167.104 156.821 167.619Z" fill="#006587"/>
<path d="M166.087 162.464C167.116 162.98 167.116 164.01 166.087 164.525C165.057 165.041 163.513 165.041 162.483 164.525C161.454 164.01 161.454 162.98 162.483 162.464C163.513 161.692 165.057 161.692 166.087 162.464Z" fill="#006587"/>
<path d="M175.352 157.052C176.382 157.568 176.382 158.598 175.352 159.114C174.323 159.629 172.778 159.629 171.749 159.114C170.719 158.598 170.719 157.568 171.749 157.052C172.778 156.537 174.323 156.537 175.352 157.052Z" fill="#006587"/>
<path d="M184.62 151.644C185.65 152.16 185.65 153.19 184.62 153.705C183.59 154.221 182.046 154.221 181.016 153.705C179.987 153.19 179.987 152.16 181.016 151.644C182.046 151.129 183.59 151.129 184.62 151.644Z" fill="#006587"/>
<path d="M193.888 146.234C194.917 146.749 194.917 147.78 193.888 148.295C192.858 148.81 191.314 148.81 190.284 148.295C189.254 147.78 189.254 146.749 190.284 146.234C191.314 145.719 192.858 145.719 193.888 146.234Z" fill="#006587"/>
<path d="M125.419 173.032C126.448 172.517 127.993 172.517 129.022 173.032C130.052 173.547 130.052 174.578 129.022 175.093C127.993 175.608 126.448 175.608 125.419 175.093C124.389 174.578 124.389 173.547 125.419 173.032Z" fill="#006587"/>
<path d="M138.288 167.619C139.318 168.134 139.318 169.165 138.288 169.68C137.258 170.195 135.714 170.195 134.684 169.68C133.655 169.165 133.655 168.134 134.684 167.619C135.714 167.104 137.258 167.104 138.288 167.619Z" fill="#006587"/>
<path d="M147.556 162.464C148.585 162.98 148.585 164.01 147.556 164.525C146.526 165.041 144.982 165.041 143.952 164.525C142.922 164.01 142.922 162.98 143.952 162.464C144.982 161.692 146.526 161.692 147.556 162.464Z" fill="#006587"/>
<path d="M156.821 157.052C157.851 157.568 157.851 158.598 156.821 159.114C155.792 159.629 154.247 159.629 153.218 159.114C152.188 158.598 152.188 157.568 153.218 157.052C154.247 156.537 155.792 156.537 156.821 157.052Z" fill="#006587"/>
<path d="M166.087 151.644C167.116 152.16 167.116 153.19 166.087 153.705C165.057 154.221 163.513 154.221 162.483 153.705C161.454 153.19 161.454 152.16 162.483 151.644C163.513 151.129 165.057 151.129 166.087 151.644Z" fill="#006587"/>
<path d="M175.352 146.234C176.382 146.749 176.382 147.78 175.352 148.295C174.323 148.81 172.778 148.81 171.749 148.295C170.719 147.78 170.719 146.749 171.749 146.234C172.778 145.719 174.323 145.719 175.352 146.234Z" fill="#006587"/>
<path d="M184.62 140.827C185.65 141.342 185.65 142.373 184.62 142.888C183.59 143.403 182.046 143.403 181.016 142.888C179.987 142.373 179.987 141.342 181.016 140.827C182.046 140.312 183.59 140.312 184.62 140.827Z" fill="#006587"/>
<path d="M116.151 167.619C117.181 167.104 118.725 167.104 119.755 167.619C120.784 168.134 120.784 169.165 119.755 169.68C118.725 170.195 117.181 170.195 116.151 169.68C115.122 169.165 115.122 168.392 116.151 167.619Z" fill="#006587"/>
<path d="M129.022 162.464C130.052 162.98 130.052 164.01 129.022 164.525C127.993 165.041 126.448 165.041 125.419 164.525C124.389 164.01 124.389 162.98 125.419 162.464C126.448 161.692 127.993 161.692 129.022 162.464Z" fill="#006587"/>
<path d="M138.288 157.052C139.318 157.568 139.318 158.598 138.288 159.114C137.258 159.629 135.714 159.629 134.684 159.114C133.655 158.598 133.655 157.568 134.684 157.052C135.714 156.537 137.258 156.537 138.288 157.052Z" fill="#006587"/>
<path d="M147.556 151.644C148.585 152.16 148.585 153.19 147.556 153.705C146.526 154.221 144.982 154.221 143.952 153.705C142.922 153.19 142.922 152.16 143.952 151.644C144.982 151.129 146.526 151.129 147.556 151.644Z" fill="#006587"/>
<path d="M156.821 146.234C157.851 146.749 157.851 147.78 156.821 148.295C155.792 148.81 154.247 148.81 153.218 148.295C152.188 147.78 152.188 146.749 153.218 146.234C154.247 145.719 155.792 145.719 156.821 146.234Z" fill="#006587"/>
<path d="M166.087 140.827C167.116 141.342 167.116 142.373 166.087 142.888C165.057 143.403 163.513 143.403 162.483 142.888C161.454 142.373 161.454 141.342 162.483 140.827C163.513 140.312 165.057 140.312 166.087 140.827Z" fill="#006587"/>
<path d="M175.352 135.672C176.382 136.188 176.382 137.218 175.352 137.734C174.323 138.249 172.778 138.249 171.749 137.734C170.719 137.218 170.719 136.188 171.749 135.672C172.778 134.9 174.323 134.9 175.352 135.672Z" fill="#006587"/>
<path d="M106.884 162.469C107.913 161.954 109.458 161.954 110.487 162.469C111.517 162.985 111.517 164.015 110.487 164.531C109.458 165.046 107.913 165.046 106.884 164.531C105.854 163.758 105.854 162.985 106.884 162.469Z" fill="#006587"/>
<path d="M119.755 157.052C120.784 157.568 120.784 158.598 119.755 159.114C118.725 159.629 117.181 159.629 116.151 159.114C115.122 158.598 115.122 157.568 116.151 157.052C117.181 156.537 118.725 156.537 119.755 157.052Z" fill="#006587"/>
<path d="M129.022 151.644C130.052 152.16 130.052 153.19 129.022 153.705C127.993 154.221 126.448 154.221 125.419 153.705C124.389 153.19 124.389 152.16 125.419 151.644C126.448 151.129 127.993 151.129 129.022 151.644Z" fill="#006587"/>
<path d="M138.288 146.234C139.318 146.749 139.318 147.78 138.288 148.295C137.258 148.81 135.714 148.81 134.684 148.295C133.655 147.78 133.655 146.749 134.684 146.234C135.714 145.719 137.258 145.719 138.288 146.234Z" fill="#006587"/>
<path d="M147.556 140.827C148.585 141.342 148.585 142.373 147.556 142.888C146.526 143.403 144.982 143.403 143.952 142.888C142.922 142.373 142.922 141.342 143.952 140.827C144.982 140.312 146.526 140.312 147.556 140.827Z" fill="#006587"/>
<path d="M156.821 135.672C157.851 136.188 157.851 137.218 156.821 137.734C155.792 138.249 154.247 138.249 153.218 137.734C152.188 137.218 152.188 136.188 153.218 135.672C154.247 134.9 155.792 134.9 156.821 135.672Z" fill="#006587"/>
<path d="M166.087 130.262C167.116 130.778 167.116 131.808 166.087 132.323C165.057 132.839 163.513 132.839 162.483 132.323C161.454 131.808 161.454 130.778 162.483 130.262C163.513 129.747 165.057 129.747 166.087 130.262Z" fill="#006587"/>
<path d="M97.3607 157.052C98.3904 156.537 99.9348 156.537 100.964 157.052C101.994 157.568 101.994 158.598 100.964 159.114C99.9348 159.629 98.3904 159.629 97.3607 159.114C96.5885 158.341 96.3311 157.568 97.3607 157.052Z" fill="#006587"/>
<path d="M110.229 151.644C111.259 152.16 111.259 153.19 110.229 153.705C109.2 154.221 107.655 154.221 106.626 153.705C105.596 153.19 105.596 152.16 106.626 151.644C107.655 151.129 109.2 151.129 110.229 151.644Z" fill="#006587"/>
<path d="M119.499 146.234C120.529 146.749 120.529 147.78 119.499 148.295C118.469 148.81 116.925 148.81 115.895 148.295C114.866 147.78 114.866 146.749 115.895 146.234C116.925 145.719 118.469 145.719 119.499 146.234Z" fill="#006587"/>
<path d="M128.763 140.827C129.792 141.342 129.792 142.373 128.763 142.888C127.733 143.403 126.189 143.403 125.159 142.888C124.129 142.373 124.129 141.342 125.159 140.827C126.189 140.312 127.733 140.312 128.763 140.827Z" fill="#006587"/>
<path d="M138.028 135.415C139.058 135.93 139.058 136.961 138.028 137.476C136.999 137.991 135.454 137.991 134.425 137.476C133.395 136.961 133.395 135.93 134.425 135.415C135.454 134.9 136.999 134.9 138.028 135.415Z" fill="#006587"/>
<path d="M147.298 130.262C148.327 130.778 148.327 131.808 147.298 132.323C146.268 132.839 144.724 132.839 143.694 132.323C142.664 131.808 142.664 130.778 143.694 130.262C144.724 129.489 146.526 129.489 147.298 130.262Z" fill="#006587"/>
<path d="M156.565 124.852C157.595 125.368 157.595 126.398 156.565 126.913C155.536 127.429 153.991 127.429 152.962 126.913C151.932 126.398 151.932 125.368 152.962 124.852C153.991 124.337 155.793 124.337 156.565 124.852Z" fill="#006587"/>
<path d="M110.229 140.827C111.259 141.342 111.259 142.373 110.229 142.888C109.2 143.403 107.655 143.403 106.626 142.888C105.596 142.373 105.596 141.342 106.626 140.827C107.655 140.312 109.2 140.312 110.229 140.827Z" fill="#006587"/>
<path d="M119.499 135.415C120.529 135.93 120.529 136.961 119.499 137.476C118.469 137.991 116.925 137.991 115.895 137.476C114.866 136.961 114.866 135.93 115.895 135.415C116.925 134.9 118.469 134.9 119.499 135.415Z" fill="#006587"/>
<path d="M128.763 130.262C129.792 130.778 129.792 131.808 128.763 132.323C127.733 132.839 126.189 132.839 125.159 132.323C124.129 131.808 124.129 130.778 125.159 130.262C126.189 129.489 127.733 129.489 128.763 130.262Z" fill="#006587"/>
<path d="M138.028 124.852C139.058 125.368 139.058 126.398 138.028 126.913C136.999 127.429 135.454 127.429 134.425 126.913C133.395 126.398 133.395 125.368 134.425 124.852C135.454 124.337 136.999 124.337 138.028 124.852Z" fill="#006587"/>
<path d="M147.298 119.44C148.327 119.955 148.327 120.986 147.298 121.501C146.268 122.016 144.724 122.016 143.694 121.501C142.664 120.986 142.664 119.955 143.694 119.44C144.724 118.925 146.526 118.925 147.298 119.44Z" fill="#006587"/>
<path d="M106.626 130.262C107.656 129.747 109.2 129.747 110.23 130.262C111.259 130.778 111.259 131.808 110.23 132.323C109.2 132.839 107.656 132.839 106.626 132.323C105.854 131.551 105.854 130.778 106.626 130.262Z" fill="#006587"/>
<path d="M119.499 124.852C120.529 125.368 120.529 126.398 119.499 126.913C118.469 127.429 116.925 127.429 115.895 126.913C114.866 126.398 114.866 125.368 115.895 124.852C116.925 124.337 118.469 124.337 119.499 124.852Z" fill="#006587"/>
<path d="M128.763 119.44C129.792 119.955 129.792 120.986 128.763 121.501C127.733 122.016 126.189 122.016 125.159 121.501C124.129 120.986 124.129 119.955 125.159 119.44C126.189 118.925 127.733 118.925 128.763 119.44Z" fill="#006587"/>
<path d="M138.028 114.031C139.058 114.546 139.058 115.577 138.028 116.092C136.999 116.607 135.454 116.607 134.425 116.092C133.395 115.577 133.395 114.546 134.425 114.031C135.454 113.516 136.999 113.516 138.028 114.031Z" fill="#006587"/>
<path d="M110.229 119.44C111.259 119.955 111.259 120.986 110.229 121.501C109.2 122.016 107.655 122.016 106.626 121.501C105.596 120.986 105.596 119.955 106.626 119.44C107.655 118.925 109.2 118.925 110.229 119.44Z" fill="#006587"/>
<path d="M119.499 114.031C120.529 114.546 120.529 115.577 119.499 116.092C118.469 116.607 116.925 116.607 115.895 116.092C114.866 115.577 114.866 114.546 115.895 114.031C116.925 113.516 118.469 113.516 119.499 114.031Z" fill="#006587"/>
<path d="M128.763 108.621C129.792 109.136 129.792 110.167 128.763 110.682C127.733 111.197 126.189 111.197 125.159 110.682C124.129 110.167 124.129 109.136 125.159 108.621C126.189 108.106 127.733 108.106 128.763 108.621Z" fill="#006587"/>
<path d="M110.229 108.621C111.259 109.136 111.259 110.167 110.229 110.682C109.2 111.197 107.655 111.197 106.626 110.682C105.596 110.167 105.596 109.136 106.626 108.621C107.655 108.106 109.2 108.106 110.229 108.621Z" fill="#006587"/>
<path d="M119.499 103.468C120.529 103.984 120.529 105.014 119.499 105.529C118.469 106.045 116.925 106.045 115.895 105.529C114.866 105.014 114.866 103.984 115.895 103.468C116.925 102.695 118.469 102.695 119.499 103.468Z" fill="#006587"/>
<path d="M153.475 188.229C154.505 187.714 156.049 187.714 157.079 188.229C158.109 188.744 158.109 189.775 157.079 190.29C156.049 190.806 154.505 190.806 153.475 190.29C152.446 189.775 152.446 189.002 153.475 188.229Z" fill="#006587"/>
<path d="M166.347 183.076C167.376 183.591 167.376 184.622 166.347 185.137C165.317 185.652 163.773 185.652 162.743 185.137C161.713 184.622 161.713 183.591 162.743 183.076C163.773 182.303 165.317 182.303 166.347 183.076Z" fill="#006587"/>
<path d="M175.612 177.667C176.642 178.182 176.642 179.213 175.612 179.728C174.583 180.243 173.038 180.243 172.009 179.728C170.979 179.213 170.979 178.182 172.009 177.667C173.038 177.151 174.583 177.151 175.612 177.667Z" fill="#006587"/>
<path d="M184.88 172.256C185.909 172.771 185.909 173.801 184.88 174.317C183.85 174.832 182.306 174.832 181.276 174.317C180.247 173.801 180.247 172.771 181.276 172.256C182.306 171.74 183.85 171.74 184.88 172.256Z" fill="#006587"/>
<path d="M193.116 166.589C194.146 167.104 194.146 168.134 193.116 168.65C192.086 169.165 190.542 169.165 189.512 168.65C188.483 168.134 188.483 167.104 189.512 166.589C190.542 166.073 192.344 166.073 193.116 166.589Z" fill="#006587"/>
<path d="M139.059 189.776C140.089 190.291 140.089 191.322 139.059 191.837C138.03 192.352 136.485 192.352 135.456 191.837C134.426 191.322 134.426 190.291 135.456 189.776C136.485 189.261 138.287 189.261 139.059 189.776Z" fill="#006587"/>
<path d="M132.112 182.819L91.957 159.889V113.516L132.112 136.703V182.819Z" fill="#00A0B6"/>
<path d="M172.01 113.517L132.112 136.704L91.957 113.517L132.112 90.3301L172.01 113.517Z" fill="#00A0B6"/>
<path d="M172.01 121.503L139.319 140.31L99.1641 117.124L132.112 98.3164L172.01 121.503Z" fill="#F9FCFF"/>
<path d="M93.2401 159.117V115.577L130.821 137.218V180.758L93.2401 159.117ZM132.108 91.875L169.689 113.516L150.899 124.337L132.108 135.415L126.188 132.066L94.2697 113.516L132.108 91.875ZM132.108 89.041L91.953 112.228L90.666 113.001V160.663L130.564 183.85L131.851 184.623L133.138 183.85L173.035 160.663V114.289V112.743L132.108 89.041Z" fill="#006587"/>
<path d="M122.327 169.165L116.149 165.558C115.12 165.043 114.348 163.497 114.348 162.209V155.768C114.348 154.48 115.12 153.964 116.149 154.48L122.327 158.087C123.357 158.602 124.129 160.148 124.129 161.436V167.877C124.129 168.907 123.357 169.68 122.327 169.165Z" fill="#F9FCFF"/>
<path d="M311.842 142.244C312.614 142.759 312.614 143.532 311.842 143.79C311.07 144.305 309.783 144.305 309.011 143.79C308.239 143.274 308.239 142.502 309.011 142.244C309.783 141.729 311.07 141.729 311.842 142.244Z" fill="#006587"/>
<path d="M304.637 137.865C305.409 138.38 305.409 139.153 304.637 139.411C303.865 139.926 302.578 139.926 301.806 139.411C301.034 138.896 301.034 138.123 301.806 137.865C302.578 137.607 303.865 137.607 304.637 137.865Z" fill="#006587"/>
<path d="M311.842 133.743C312.614 134.258 312.614 135.031 311.842 135.289C311.07 135.804 309.783 135.804 309.011 135.289C308.239 134.773 308.239 134.001 309.011 133.743C309.783 133.228 311.07 133.228 311.842 133.743Z" fill="#006587"/>
<path d="M297.172 133.743C297.945 134.258 297.945 135.031 297.172 135.289C296.4 135.804 295.113 135.804 294.341 135.289C293.569 134.773 293.569 134.001 294.341 133.743C295.113 133.228 296.4 133.228 297.172 133.743Z" fill="#006587"/>
<path d="M304.637 129.363C305.409 129.878 305.409 130.651 304.637 130.909C303.865 131.424 302.578 131.424 301.806 130.909C301.034 130.394 301.034 129.621 301.806 129.363C302.578 129.106 303.865 129.106 304.637 129.363Z" fill="#006587"/>
<path d="M289.965 129.363C290.737 129.878 290.737 130.651 289.965 130.909C289.193 131.424 287.906 131.424 287.134 130.909C286.362 130.394 286.362 129.621 287.134 129.363C287.906 129.106 289.193 129.106 289.965 129.363Z" fill="#006587"/>
<path d="M297.172 125.241C297.945 125.756 297.945 126.529 297.172 126.787C296.4 127.302 295.113 127.302 294.341 126.787C293.569 126.271 293.569 125.499 294.341 125.241C295.113 124.726 296.4 124.726 297.172 125.241Z" fill="#006587"/>
<path d="M282.5 125.241C283.273 125.756 283.273 126.529 282.5 126.787C281.728 127.302 280.441 127.302 279.669 126.787C278.897 126.271 278.897 125.499 279.669 125.241C280.441 124.726 281.728 124.726 282.5 125.241Z" fill="#006587"/>
<path d="M274.52 121.12C275.292 121.635 275.292 122.408 274.52 122.666C273.748 123.181 272.461 123.181 271.689 122.666C270.916 122.151 270.916 121.378 271.689 121.12C272.461 120.862 273.748 120.862 274.52 121.12Z" fill="#006587"/>
<path d="M289.965 121.119C290.737 121.634 290.737 122.407 289.965 122.665C289.193 123.18 287.906 123.18 287.134 122.665C286.362 122.149 286.362 121.377 287.134 121.119C287.906 120.604 289.193 120.604 289.965 121.119Z" fill="#006587"/>
<path d="M282.5 116.739C283.273 117.254 283.273 118.027 282.5 118.285C281.728 118.8 280.441 118.8 279.669 118.285C278.897 117.77 278.897 116.997 279.669 116.739C280.441 116.224 281.728 116.224 282.5 116.739Z" fill="#006587"/>
<path d="M326.772 141.47C327.544 141.986 327.544 142.759 326.772 143.016C326 143.532 324.713 143.532 323.94 143.016C323.168 142.501 323.168 141.728 323.94 141.47C324.713 140.955 326 140.955 326.772 141.47Z" fill="#006587"/>
<path d="M320.594 145.593C321.366 146.109 321.366 146.882 320.594 147.139C319.822 147.655 318.535 147.655 317.763 147.139C316.991 146.624 316.991 145.851 317.763 145.593C318.792 145.078 319.822 145.078 320.594 145.593Z" fill="#006587"/>
<path d="M326.516 133.743C327.288 134.258 327.288 135.031 326.516 135.289C325.744 135.804 324.457 135.804 323.685 135.289C322.912 134.773 322.912 134.001 323.685 133.743C324.457 133.228 325.744 133.228 326.516 133.743Z" fill="#006587"/>
<path d="M333.979 129.619C334.751 130.134 334.751 130.907 333.979 131.165C333.207 131.68 331.92 131.68 331.148 131.165C330.375 130.649 330.375 129.877 331.148 129.619C331.92 129.104 333.207 129.104 333.979 129.619Z" fill="#006587"/>
<path d="M341.188 125.242C341.96 125.757 341.96 126.53 341.188 126.788C340.416 127.303 339.129 127.303 338.357 126.788C337.584 126.273 337.584 125.5 338.357 125.242C339.129 124.984 340.416 124.984 341.188 125.242Z" fill="#006587"/>
<path d="M348.399 121.119C349.171 121.634 349.171 122.407 348.399 122.665C347.627 123.18 346.34 123.18 345.567 122.665C344.795 122.149 344.795 121.377 345.567 121.119C346.597 120.604 347.627 120.604 348.399 121.119Z" fill="#006587"/>
<path d="M355.86 116.74C356.632 117.255 356.632 118.028 355.86 118.286C355.088 118.801 353.801 118.801 353.028 118.286C352.256 117.771 352.256 116.998 353.028 116.74C353.801 116.482 355.088 116.482 355.86 116.74Z" fill="#006587"/>
<path d="M363.067 112.616C363.839 113.131 363.839 113.904 363.067 114.162C362.295 114.677 361.008 114.677 360.235 114.162C359.463 113.646 359.463 112.874 360.235 112.616C361.008 112.101 362.295 112.101 363.067 112.616Z" fill="#006587"/>
<path d="M316.478 129.619C317.25 129.104 318.537 129.104 319.309 129.619C320.081 130.134 320.081 130.907 319.309 131.165C318.537 131.68 317.25 131.68 316.478 131.165C315.705 130.649 315.705 129.877 316.478 129.619Z" fill="#006587"/>
<path d="M326.516 125.242C327.288 125.757 327.288 126.53 326.516 126.788C325.744 127.303 324.457 127.303 323.685 126.788C322.912 126.273 322.912 125.5 323.685 125.242C324.457 124.984 325.744 124.984 326.516 125.242Z" fill="#006587"/>
<path d="M333.979 121.119C334.751 121.634 334.751 122.407 333.979 122.665C333.207 123.18 331.92 123.18 331.148 122.665C330.375 122.149 330.375 121.377 331.148 121.119C331.92 120.604 333.207 120.604 333.979 121.119Z" fill="#006587"/>
<path d="M341.188 116.74C341.96 117.255 341.96 118.028 341.188 118.286C340.416 118.801 339.129 118.801 338.357 118.286C337.584 117.771 337.584 116.998 338.357 116.74C339.129 116.482 340.416 116.482 341.188 116.74Z" fill="#006587"/>
<path d="M348.399 112.616C349.171 113.131 349.171 113.904 348.399 114.162C347.627 114.677 346.34 114.677 345.567 114.162C344.795 113.646 344.795 112.874 345.567 112.616C346.597 112.101 347.627 112.101 348.399 112.616Z" fill="#006587"/>
<path d="M355.86 108.494C356.632 109.009 356.632 109.782 355.86 110.04C355.088 110.555 353.801 110.555 353.028 110.04C352.256 109.524 352.256 108.751 353.028 108.494C353.801 107.979 355.088 107.979 355.86 108.494Z" fill="#006587"/>
<path d="M363.067 104.114C363.839 104.629 363.839 105.402 363.067 105.66C362.295 106.175 361.008 106.175 360.235 105.66C359.463 105.145 359.463 104.372 360.235 104.114C361.008 103.599 362.295 103.599 363.067 104.114Z" fill="#006587"/>
<path d="M309.011 125.241C309.783 124.726 311.07 124.726 311.842 125.241C312.614 125.756 312.614 126.529 311.842 126.787C311.07 127.302 309.783 127.302 309.011 126.787C308.239 126.529 308.239 125.756 309.011 125.241Z" fill="#006587"/>
<path d="M319.309 121.119C320.081 121.634 320.081 122.407 319.309 122.665C318.537 123.18 317.25 123.18 316.478 122.665C315.705 122.149 315.705 121.377 316.478 121.119C317.25 120.604 318.537 120.604 319.309 121.119Z" fill="#006587"/>
<path d="M326.516 116.74C327.288 117.255 327.288 118.028 326.516 118.286C325.744 118.801 324.457 118.801 323.685 118.286C322.912 117.771 322.912 116.998 323.685 116.74C324.457 116.482 325.744 116.482 326.516 116.74Z" fill="#006587"/>
<path d="M333.979 112.616C334.751 113.131 334.751 113.904 333.979 114.162C333.207 114.677 331.92 114.677 331.148 114.162C330.375 113.646 330.375 112.874 331.148 112.616C331.92 112.101 333.207 112.101 333.979 112.616Z" fill="#006587"/>
<path d="M341.188 108.494C341.96 109.009 341.96 109.782 341.188 110.04C340.416 110.555 339.129 110.555 338.357 110.04C337.584 109.524 337.584 108.751 338.357 108.494C339.129 107.979 340.416 107.979 341.188 108.494Z" fill="#006587"/>
<path d="M348.399 104.114C349.171 104.629 349.171 105.402 348.399 105.66C347.627 106.175 346.34 106.175 345.567 105.66C344.795 105.145 344.795 104.372 345.567 104.114C346.597 103.599 347.627 103.599 348.399 104.114Z" fill="#006587"/>
<path d="M355.86 99.9909C356.632 100.506 356.632 101.279 355.86 101.537C355.088 102.052 353.801 102.052 353.028 101.537C352.256 101.021 352.256 100.249 353.028 99.9909C353.801 99.4757 355.088 99.4757 355.86 99.9909Z" fill="#006587"/>
<path d="M301.806 121.119C302.578 120.604 303.865 120.604 304.637 121.119C305.409 121.634 305.409 122.407 304.637 122.665C303.865 123.18 302.578 123.18 301.806 122.665C301.034 122.149 301.034 121.634 301.806 121.119Z" fill="#006587"/>
<path d="M311.842 116.74C312.614 117.255 312.614 118.028 311.842 118.286C311.07 118.801 309.783 118.801 309.011 118.286C308.239 117.771 308.239 116.998 309.011 116.74C309.783 116.482 311.07 116.482 311.842 116.74Z" fill="#006587"/>
<path d="M319.309 112.616C320.081 113.131 320.081 113.904 319.309 114.162C318.537 114.677 317.25 114.677 316.478 114.162C315.705 113.646 315.705 112.874 316.478 112.616C317.25 112.101 318.537 112.101 319.309 112.616Z" fill="#006587"/>
<path d="M326.516 108.494C327.288 109.009 327.288 109.782 326.516 110.04C325.744 110.555 324.457 110.555 323.685 110.04C322.912 109.524 322.912 108.751 323.685 108.494C324.457 107.979 325.744 107.979 326.516 108.494Z" fill="#006587"/>
<path d="M333.979 104.114C334.751 104.629 334.751 105.402 333.979 105.66C333.207 106.175 331.92 106.175 331.148 105.66C330.375 105.145 330.375 104.372 331.148 104.114C331.92 103.599 333.207 103.599 333.979 104.114Z" fill="#006587"/>
<path d="M341.188 99.9909C341.96 100.506 341.96 101.279 341.188 101.537C340.416 102.052 339.129 102.052 338.357 101.537C337.584 101.021 337.584 100.249 338.357 99.9909C339.129 99.4757 340.416 99.4757 341.188 99.9909Z" fill="#006587"/>
<path d="M348.399 95.6131C349.171 96.1284 349.171 96.9013 348.399 97.1589C347.627 97.6742 346.34 97.6742 345.567 97.1589C344.795 96.6437 344.795 95.8708 345.567 95.6131C346.597 95.3555 347.627 95.3555 348.399 95.6131Z" fill="#006587"/>
<path d="M294.341 116.739C295.113 116.224 296.4 116.224 297.172 116.739C297.945 117.254 297.945 118.027 297.172 118.285C296.4 118.8 295.113 118.8 294.341 118.285C293.569 118.027 293.569 117.254 294.341 116.739Z" fill="#006587"/>
<path d="M304.637 112.616C305.409 113.131 305.409 113.904 304.637 114.162C303.865 114.677 302.578 114.677 301.806 114.162C301.034 113.646 301.034 112.874 301.806 112.616C302.578 112.101 303.865 112.101 304.637 112.616Z" fill="#006587"/>
<path d="M311.842 108.494C312.614 109.009 312.614 109.782 311.842 110.04C311.07 110.555 309.783 110.555 309.011 110.04C308.239 109.524 308.239 108.751 309.011 108.494C309.783 107.979 311.07 107.979 311.842 108.494Z" fill="#006587"/>
<path d="M319.309 104.114C320.081 104.629 320.081 105.402 319.309 105.66C318.537 106.175 317.25 106.175 316.478 105.66C315.705 105.145 315.705 104.372 316.478 104.114C317.25 103.599 318.537 103.599 319.309 104.114Z" fill="#006587"/>
<path d="M326.516 99.9909C327.288 100.506 327.288 101.279 326.516 101.537C325.744 102.052 324.457 102.052 323.685 101.537C322.912 101.021 322.912 100.249 323.685 99.9909C324.457 99.4757 325.744 99.4757 326.516 99.9909Z" fill="#006587"/>
<path d="M333.979 95.6131C334.751 96.1284 334.751 96.9013 333.979 97.1589C333.207 97.6742 331.92 97.6742 331.148 97.1589C330.375 96.6437 330.375 95.8708 331.148 95.6131C331.92 95.3555 333.207 95.3555 333.979 95.6131Z" fill="#006587"/>
<path d="M341.188 91.4909C341.96 92.0062 341.96 92.7791 341.188 93.0367C340.416 93.552 339.129 93.552 338.357 93.0367C337.584 92.5215 337.584 91.7486 338.357 91.4909C339.129 90.9757 340.416 90.9757 341.188 91.4909Z" fill="#006587"/>
<path d="M287.134 112.616C287.906 112.101 289.193 112.101 289.965 112.616C290.737 113.131 290.737 113.904 289.965 114.162C289.193 114.677 287.906 114.677 287.134 114.162C286.362 113.646 286.362 113.131 287.134 112.616Z" fill="#006587"/>
<path d="M297.172 108.236C297.945 108.751 297.945 109.524 297.172 109.782C296.4 110.297 295.113 110.297 294.341 109.782C293.569 109.267 293.569 108.494 294.341 108.236C295.113 107.979 296.4 107.979 297.172 108.236Z" fill="#006587"/>
<path d="M304.637 104.114C305.409 104.629 305.409 105.402 304.637 105.66C303.865 106.175 302.578 106.175 301.806 105.66C301.034 105.145 301.034 104.372 301.806 104.114C302.578 103.599 303.865 103.599 304.637 104.114Z" fill="#006587"/>
<path d="M311.842 99.9909C312.614 100.506 312.614 101.279 311.842 101.537C311.07 102.052 309.783 102.052 309.011 101.537C308.239 101.021 308.239 100.249 309.011 99.9909C309.783 99.4757 311.07 99.4757 311.842 99.9909Z" fill="#006587"/>
<path d="M319.049 95.612C319.822 96.1273 319.822 96.9002 319.049 97.1578C318.277 97.6731 316.99 97.6731 316.218 97.1578C315.446 96.6426 315.446 95.8697 316.218 95.612C317.247 95.0968 318.277 95.0968 319.049 95.612Z" fill="#006587"/>
<path d="M326.516 91.4909C327.288 92.0062 327.288 92.7791 326.516 93.0367C325.744 93.552 324.457 93.552 323.685 93.0367C322.912 92.5215 322.912 91.7486 323.685 91.4909C324.457 90.9757 325.744 90.9757 326.516 91.4909Z" fill="#006587"/>
<path d="M333.723 87.1112C334.495 87.6265 334.495 88.3994 333.723 88.657C332.951 89.1722 331.664 89.1722 330.892 88.657C330.119 88.1417 330.119 87.3688 330.892 87.1112C331.664 86.8536 332.951 86.8536 333.723 87.1112Z" fill="#006587"/>
<path d="M297.172 99.9909C297.945 100.506 297.945 101.279 297.172 101.537C296.4 102.052 295.113 102.052 294.341 101.537C293.569 101.021 293.569 100.249 294.341 99.9909C295.113 99.4757 296.4 99.4757 297.172 99.9909Z" fill="#006587"/>
<path d="M304.637 95.612C305.409 96.1273 305.409 96.9002 304.637 97.1578C303.865 97.6731 302.578 97.6731 301.806 97.1578C301.034 96.6426 301.034 95.8697 301.806 95.612C302.578 95.0968 303.865 95.0968 304.637 95.612Z" fill="#006587"/>
<path d="M311.842 91.4909C312.614 92.0062 312.614 92.7791 311.842 93.0367C311.07 93.552 309.783 93.552 309.011 93.0367C308.239 92.5215 308.239 91.7486 309.011 91.4909C309.783 90.9757 311.07 90.9757 311.842 91.4909Z" fill="#006587"/>
<path d="M319.049 87.1112C319.822 87.6265 319.822 88.3994 319.049 88.657C318.277 89.1722 316.99 89.1722 316.218 88.657C315.446 88.1417 315.446 87.3688 316.218 87.1112C317.247 86.8536 318.277 86.8536 319.049 87.1112Z" fill="#006587"/>
<path d="M326.516 82.987C327.288 83.5023 327.288 84.2752 326.516 84.5328C325.744 85.0481 324.457 85.0481 323.685 84.5328C322.912 84.0176 322.912 83.2447 323.685 82.987C324.457 82.4718 325.744 82.4718 326.516 82.987Z" fill="#006587"/>
<path d="M294.341 91.4909C295.113 90.9757 296.4 90.9757 297.172 91.4909C297.945 92.0062 297.945 92.7791 297.172 93.0367C296.4 93.552 295.113 93.552 294.341 93.0367C293.569 92.5215 293.569 91.7486 294.341 91.4909Z" fill="#006587"/>
<path d="M304.637 87.1112C305.409 87.6265 305.409 88.3994 304.637 88.657C303.865 89.1722 302.578 89.1722 301.806 88.657C301.034 88.1417 301.034 87.3688 301.806 87.1112C302.578 86.8536 303.865 86.8536 304.637 87.1112Z" fill="#006587"/>
<path d="M311.842 82.987C312.614 83.5023 312.614 84.2752 311.842 84.5328C311.07 85.0481 309.783 85.0481 309.011 84.5328C308.239 84.0176 308.239 83.2447 309.011 82.987C309.783 82.4718 311.07 82.4718 311.842 82.987Z" fill="#006587"/>
<path d="M319.049 78.6083C319.822 79.1235 319.822 79.8964 319.049 80.1541C318.277 80.6693 316.99 80.6693 316.218 80.1541C315.446 79.6388 315.446 78.8659 316.218 78.6083C317.247 78.3506 318.277 78.3506 319.049 78.6083Z" fill="#006587"/>
<path d="M297.172 82.987C297.945 83.5023 297.945 84.2752 297.172 84.5328C296.4 85.0481 295.113 85.0481 294.341 84.5328C293.569 84.0176 293.569 83.2447 294.341 82.987C295.113 82.4718 296.4 82.4718 297.172 82.987Z" fill="#006587"/>
<path d="M304.637 78.6083C305.409 79.1235 305.409 79.8964 304.637 80.1541C303.865 80.6693 302.578 80.6693 301.806 80.1541C301.034 79.6388 301.034 78.8659 301.806 78.6083C302.578 78.3506 303.865 78.3506 304.637 78.6083Z" fill="#006587"/>
<path d="M311.842 74.4861C312.614 75.0013 312.614 75.7742 311.842 76.0319C311.07 76.5471 309.783 76.5471 309.011 76.0319C308.239 75.5166 308.239 74.7437 309.011 74.4861C309.783 73.9708 311.07 73.9708 311.842 74.4861Z" fill="#006587"/>
<path d="M297.172 74.4861C297.945 75.0013 297.945 75.7742 297.172 76.0319C296.4 76.5471 295.113 76.5471 294.341 76.0319C293.569 75.5166 293.569 74.7437 294.341 74.4861C295.113 73.9708 296.4 73.9708 297.172 74.4861Z" fill="#006587"/>
<path d="M304.637 70.362C305.409 70.8773 305.409 71.6502 304.637 71.9078C303.865 72.4231 302.578 72.4231 301.806 71.9078C301.034 71.3926 301.034 70.6197 301.806 70.362C302.578 69.8468 303.865 69.8468 304.637 70.362Z" fill="#006587"/>
<path d="M331.407 137.349C332.18 136.834 333.467 136.834 334.239 137.349C335.011 137.865 335.011 138.638 334.239 138.895C333.467 139.41 332.18 139.41 331.407 138.895C330.635 138.38 330.635 137.865 331.407 137.349Z" fill="#006587"/>
<path d="M341.446 132.97C342.218 133.485 342.218 134.258 341.446 134.515C340.674 135.031 339.387 135.031 338.614 134.515C337.842 134 337.842 133.227 338.614 132.97C339.387 132.712 340.674 132.712 341.446 132.97Z" fill="#006587"/>
<path d="M348.907 128.845C349.679 129.361 349.679 130.134 348.907 130.391C348.135 130.906 346.847 130.906 346.075 130.391C345.303 129.876 345.303 129.103 346.075 128.845C346.847 128.33 348.135 128.33 348.907 128.845Z" fill="#006587"/>
<path d="M356.116 124.725C356.888 125.241 356.888 126.013 356.116 126.271C355.343 126.786 354.056 126.786 353.284 126.271C352.512 125.756 352.512 124.983 353.284 124.725C354.056 124.21 355.343 124.21 356.116 124.725Z" fill="#006587"/>
<path d="M362.551 120.345C363.323 120.861 363.323 121.634 362.551 121.891C361.779 122.406 360.492 122.406 359.72 121.891C358.948 121.376 358.948 120.603 359.72 120.345C360.492 119.83 361.779 119.83 362.551 120.345Z" fill="#006587"/>
<path d="M320.081 138.637C320.853 139.153 320.853 139.926 320.081 140.183C319.308 140.698 318.021 140.698 317.249 140.183C316.477 139.668 316.477 138.895 317.249 138.637C318.021 138.122 319.308 138.122 320.081 138.637Z" fill="#006587"/>
<path d="M314.419 132.97L282.758 114.678V78.3516L314.419 96.6434V132.97Z" fill="#00A0B6"/>
<path d="M345.822 78.3515L314.419 96.6433L282.758 78.3515L314.419 60.0596L345.822 78.3515Z" fill="#00A0B6"/>
<path d="M345.819 84.5341L320.079 99.4767L288.418 81.1849L314.416 66.2422L345.819 84.5341Z" fill="#F9FCFF"/>
<path d="M283.788 114.163V79.8975L313.647 97.1589V131.424L283.788 114.163ZM314.419 61.0904L344.278 78.3517L329.348 86.8536L314.419 95.3554L309.786 92.7791L284.817 78.3517L314.419 61.0904ZM314.419 59.0293L282.758 77.3212L281.729 77.8364V115.451L313.389 133.743L314.419 134.258L315.449 133.743L347.109 115.451V78.867V77.8364L314.419 59.0293Z" fill="#006587"/>
<path d="M306.697 122.148L301.807 119.314C301.034 118.799 300.52 117.768 300.52 116.738V111.585C300.52 110.555 301.034 110.039 301.807 110.555L306.697 113.389C307.469 113.904 307.984 114.934 307.984 115.965V121.118C307.984 122.148 307.469 122.663 306.697 122.148Z" fill="#F9FCFF"/>
<path d="M454.336 198.144L452.534 190.93H448.416C444.04 188.096 437.605 186.293 430.14 186.293C422.932 186.293 416.497 188.096 412.121 190.93H408.26L406.459 197.886C406.201 198.659 406.201 199.432 406.201 200.205C406.201 207.934 417.012 214.117 430.397 214.117C443.782 214.117 454.593 207.934 454.593 200.205C454.593 199.432 454.336 198.917 454.336 198.144Z" fill="#F9FCFF"/>
<path d="M454.334 198.402L452.532 191.188H448.414C444.038 188.354 437.603 186.551 430.138 186.551C428.594 186.551 427.049 186.551 425.505 186.808C421.386 187.581 417.783 189.127 414.951 190.931H412.892C412.634 191.188 412.377 191.188 412.12 191.446H410.833L409.031 198.144C408.773 198.917 408.773 199.69 408.773 200.463C408.773 208.192 419.584 214.375 432.969 214.375C434.514 214.375 436.058 214.375 437.603 214.117C447.384 212.314 454.334 206.904 454.334 200.721C454.591 199.69 454.591 198.917 454.334 198.402Z" fill="#00A0B6"/>
<path d="M407.487 197.114L407.229 198.144C406.972 198.917 406.972 199.433 406.972 200.206C406.972 207.419 417.525 213.345 430.396 213.345C443.266 213.345 453.819 207.419 453.819 200.206C453.819 199.69 453.819 198.917 453.562 198.402L452.018 191.961H448.414L448.156 191.704C443.781 188.87 437.345 187.066 430.396 187.066C423.703 187.066 417.268 188.612 412.635 191.704L412.377 191.961H408.774L407.487 197.114ZM430.396 215.148C416.496 215.148 405.17 208.45 405.17 200.206C405.17 199.69 405.17 199.433 405.17 198.917L405.427 197.887L407.487 190.158H411.862C416.496 187.066 423.188 185.521 430.138 185.521C437.088 185.521 443.781 187.324 448.671 190.158H453.305L455.106 197.887C455.364 198.66 455.364 199.433 455.364 200.206C455.364 208.45 444.038 215.148 430.396 215.148Z" fill="#006587"/>
<path d="M452.788 192.735C452.788 199.949 442.75 205.617 430.394 205.617C418.039 205.617 408 199.949 408 192.735C408 185.521 418.039 179.854 430.394 179.854C442.75 179.854 452.788 185.521 452.788 192.735Z" fill="#00A0B6"/>
<path d="M453.046 192.736C453.046 190.418 451.759 188.099 449.7 186.038C445.581 183.462 439.661 181.658 432.968 181.658C420.613 181.658 410.574 187.326 410.574 194.54C410.574 196.858 411.861 199.177 413.92 201.238C418.039 203.815 423.959 205.618 430.652 205.618C443.007 205.618 453.046 199.692 453.046 192.736Z" fill="#F9FCFF"/>
<path d="M430.393 180.626C418.552 180.626 409.028 186.036 409.028 192.735C409.028 199.433 418.552 204.843 430.393 204.843C442.234 204.843 451.758 199.433 451.758 192.735C451.758 186.036 442.234 180.626 430.393 180.626ZM430.393 206.389C417.523 206.389 407.227 200.206 407.227 192.735C407.227 185.263 417.523 179.08 430.393 179.08C443.263 179.08 453.559 185.263 453.559 192.735C453.559 200.206 443.263 206.389 430.393 206.389Z" fill="#006587"/>
<path d="M441.718 191.964C441.718 195.314 436.57 197.89 430.392 197.89C424.214 197.89 419.066 195.314 419.066 191.964C419.066 188.615 424.214 186.039 430.392 186.039C436.57 185.781 441.718 188.615 441.718 191.964Z" fill="#F9FCFF"/>
<path d="M430.397 185.779C428.852 185.779 427.565 186.037 426.278 186.295C423.704 187.325 421.902 189.129 421.902 190.932C421.902 194.281 427.05 196.857 433.228 196.857C434.773 196.857 436.06 196.6 437.347 196.342C439.921 195.312 441.722 193.508 441.722 191.705C441.722 188.613 436.574 185.779 430.397 185.779Z" fill="#00A0B6"/>
<path d="M430.396 186.809C424.734 186.809 419.843 189.128 419.843 191.962C419.843 194.796 424.734 197.115 430.396 197.115C436.059 197.115 440.95 194.796 440.95 191.962C440.693 189.128 436.059 186.809 430.396 186.809ZM430.396 198.918C423.447 198.918 418.041 195.826 418.041 191.962C418.041 188.097 423.447 185.006 430.396 185.006C437.346 185.006 442.752 188.097 442.752 191.962C442.494 195.826 437.089 198.918 430.396 198.918Z" fill="#006587"/>
<path d="M430.394 189.645C435.284 189.645 439.403 191.191 440.947 193.767C441.462 193.252 441.462 192.479 441.462 191.964C441.462 188.614 436.314 186.038 430.136 186.038C423.959 186.038 418.811 188.614 418.811 191.964C418.811 192.737 419.068 193.252 419.583 194.025C421.127 191.448 425.246 189.645 430.394 189.645Z" fill="#006587"/>
<path d="M430.396 186.55C424.734 186.55 419.843 188.869 419.843 191.703C419.843 191.961 419.843 191.961 419.843 192.218C421.902 190.157 426.021 188.869 430.396 188.869C434.772 188.869 438.633 190.157 440.693 191.961V191.703C440.693 189.127 436.059 186.55 430.396 186.55ZM420.358 194.279H418.813C418.298 193.507 418.041 192.734 418.041 191.703C418.041 187.839 423.447 184.747 430.396 184.747C437.346 184.747 442.752 187.839 442.752 191.703C442.752 192.476 442.494 193.249 441.98 194.022L439.663 195.052L440.435 194.022C438.891 191.961 435.03 190.415 430.396 190.415C425.763 190.673 421.645 192.218 420.358 194.279Z" fill="#006587"/>
<path d="M425.505 205.617L424.99 213.861H435.029L444.296 211.542L448.929 209.481L453.562 205.617L454.592 200.464L453.305 193.766L450.731 197.888L447.384 200.722L439.92 204.329L430.396 205.617H425.505Z" fill="#006587"/>
<path d="M409.03 196.34L407.228 204.584L405.941 199.431L407.486 193.506L409.03 196.34Z" fill="#006587"/>
<path d="M421.322 335.206L419.52 327.992H415.402C411.026 325.158 404.591 323.354 397.384 323.354C390.176 323.354 383.741 325.158 379.108 327.992H375.247L373.445 334.948C373.187 335.721 373.188 336.494 373.188 337.267C373.188 344.996 383.998 351.179 397.384 351.179C410.769 351.179 421.58 344.996 421.58 337.267C421.58 336.751 421.322 335.978 421.322 335.206Z" fill="#F9FCFF"/>
<path d="M421.319 335.464L419.517 328.251H415.399C411.023 325.417 404.588 323.613 397.38 323.613C395.836 323.613 394.291 323.613 392.747 323.871C388.628 324.644 385.025 326.19 382.193 327.993H380.134C379.877 328.251 379.619 328.251 379.362 328.508H378.075L376.273 335.207C376.016 335.98 376.016 336.753 376.016 337.525C376.016 345.254 386.827 351.438 400.212 351.438C401.756 351.438 403.301 351.438 404.845 351.18C414.626 349.377 421.576 343.966 421.576 337.783C421.576 336.753 421.576 336.237 421.319 335.464Z" fill="#00A0B6"/>
<path d="M374.473 334.175L374.215 335.206C373.958 335.979 373.958 336.494 373.958 337.267C373.958 344.481 384.512 350.406 397.382 350.406C410.252 350.406 420.806 344.481 420.806 337.267C420.806 336.752 420.806 335.979 420.548 335.464L419.004 329.023H415.4L415.143 328.765C410.767 325.931 404.332 324.128 397.382 324.128C390.689 324.128 384.254 325.674 379.621 328.765L379.364 329.023H375.76L374.473 334.175ZM397.382 352.21C383.482 352.21 372.156 345.511 372.156 337.267C372.156 336.752 372.156 336.494 372.156 335.979L372.414 334.948L374.473 327.219H378.849C383.482 324.128 390.175 322.582 397.124 322.582C404.074 322.582 410.767 324.385 415.658 327.219H420.291L422.093 334.948C422.35 335.721 422.35 336.494 422.35 337.267C422.35 345.511 411.024 352.21 397.382 352.21Z" fill="#006587"/>
<path d="M419.775 329.797C419.775 337.01 409.736 342.678 397.381 342.678C385.025 342.678 374.986 337.01 374.986 329.797C374.986 322.583 385.025 316.915 397.381 316.915C409.736 316.915 419.775 322.583 419.775 329.797Z" fill="#00A0B6"/>
<path d="M420.032 329.798C420.032 327.479 418.745 325.161 416.686 323.099C412.568 320.523 406.647 318.72 399.955 318.72C387.599 318.72 377.561 324.388 377.561 331.601C377.561 333.92 378.848 336.239 380.907 338.3C385.025 340.876 390.946 342.679 397.638 342.679C409.994 342.679 420.032 336.754 420.032 329.798Z" fill="#F9FCFF"/>
<path d="M397.379 317.687C385.539 317.687 376.015 323.098 376.015 329.796C376.015 336.495 385.539 341.905 397.379 341.905C409.22 341.905 418.744 336.495 418.744 329.796C418.744 323.098 409.22 317.687 397.379 317.687ZM397.379 343.451C384.509 343.451 374.213 337.267 374.213 329.796C374.213 322.325 384.509 316.142 397.379 316.142C410.25 316.142 420.546 322.325 420.546 329.796C420.546 337.267 410.25 343.451 397.379 343.451Z" fill="#006587"/>
<path d="M408.706 329.025C408.706 332.374 403.558 334.951 397.38 334.951C391.203 334.951 386.055 332.374 386.055 329.025C386.055 325.676 391.203 323.1 397.38 323.1C403.558 323.1 408.706 325.676 408.706 329.025Z" fill="#F9FCFF"/>
<path d="M397.381 323.1C395.837 323.1 394.55 323.357 393.263 323.615C390.689 324.645 388.887 326.449 388.887 328.252C388.887 331.601 394.035 334.178 400.213 334.178C401.757 334.178 403.044 333.92 404.331 333.663C406.905 332.632 408.707 330.829 408.707 329.025C408.707 325.676 403.559 323.1 397.381 323.1Z" fill="#00A0B6"/>
<path d="M397.383 323.871C391.72 323.871 386.829 326.189 386.829 329.023C386.829 331.857 391.72 334.176 397.383 334.176C403.046 334.176 407.936 331.857 407.936 329.023C407.679 326.189 403.046 323.871 397.383 323.871ZM397.383 335.979C390.433 335.979 385.027 332.888 385.027 329.023C385.027 325.159 390.433 322.067 397.383 322.067C404.333 322.067 409.738 325.159 409.738 329.023C409.481 332.888 404.075 335.979 397.383 335.979Z" fill="#006587"/>
<path d="M397.38 326.964C402.271 326.964 406.389 328.51 407.934 331.086C408.191 330.571 408.448 329.798 408.448 329.025C408.448 325.676 403.3 323.1 397.123 323.1C390.945 323.1 385.797 325.676 385.797 329.025C385.797 329.798 386.054 330.313 386.569 331.086C388.114 328.51 392.232 326.964 397.38 326.964Z" fill="#006587"/>
<path d="M397.383 323.87C391.72 323.87 386.829 326.188 386.829 329.022C386.829 329.28 386.829 329.28 386.829 329.538C388.888 327.477 393.007 326.188 397.383 326.188C401.759 326.188 405.62 327.477 407.679 329.28V329.022C407.679 326.188 403.046 323.87 397.383 323.87ZM387.344 331.341H385.8C385.285 330.568 385.027 329.795 385.027 328.765C385.027 324.9 390.433 321.809 397.383 321.809C404.333 321.809 409.738 324.9 409.738 328.765C409.738 329.538 409.481 330.31 408.966 331.083L406.649 332.114L407.422 331.083C405.877 329.022 402.016 327.477 397.383 327.477C392.749 327.734 388.631 329.28 387.344 331.341Z" fill="#006587"/>
<path d="M392.491 342.677L391.977 350.922H402.015L411.282 348.603L416.173 346.542L420.548 342.677L421.578 337.525L420.291 331.084L417.717 334.948L414.371 338.04L406.906 341.389L397.382 342.677H392.491Z" fill="#006587"/>
<path d="M376.017 333.403L374.215 341.648L372.928 336.495L374.472 330.827L376.017 333.403Z" fill="#006587"/>
<path d="M121.187 384.227L119.386 377.013H115.267C110.891 374.179 104.456 372.376 97.2488 372.376C90.0414 372.376 83.6063 374.179 78.973 377.013H75.112L73.3101 383.969C73.0527 384.742 73.0527 385.515 73.0527 386.288C73.0527 394.017 83.8637 400.2 97.2488 400.2C110.634 400.2 121.445 394.017 121.445 386.288C121.445 385.773 121.187 385 121.187 384.227Z" fill="#F9FCFF"/>
<path d="M121.184 384.486L119.382 377.272H115.264C110.888 374.438 104.453 372.635 97.2454 372.635C95.701 372.635 94.1566 372.635 92.6122 372.892C88.4937 373.665 84.89 375.211 82.0586 377.015H79.9993C79.7419 377.272 79.4845 377.272 79.2271 377.53H77.9401L76.1383 384.228C75.8809 385.001 75.8809 385.774 75.8809 386.547C75.8809 394.276 86.6919 400.459 100.077 400.459C101.621 400.459 103.166 400.459 104.71 400.201C114.492 398.398 121.441 392.988 121.441 386.805C121.441 385.774 121.441 385.259 121.184 384.486Z" fill="#00A0B6"/>
<path d="M74.3381 383.197L74.0807 384.227C73.8233 385 73.8233 385.516 73.8233 386.289C73.8233 393.502 84.3769 399.428 97.2471 399.428C110.117 399.428 120.671 393.502 120.671 386.289C120.671 385.773 120.671 385 120.414 384.485L118.869 378.044H115.265L115.008 377.787C110.632 374.953 104.197 373.149 97.2471 373.149C90.5546 373.149 84.1195 374.695 79.4862 377.787L79.2288 378.044H75.6252L74.3381 383.197ZM97.2471 401.231C83.3473 401.231 72.0215 394.533 72.0215 386.289C72.0215 385.773 72.0215 385.516 72.0215 385L72.2789 383.97L74.3381 376.241H78.714C83.3473 373.149 90.0398 371.604 96.9897 371.604C103.94 371.604 110.632 373.407 115.523 376.241H120.156L121.958 383.97C122.215 384.743 122.215 385.516 122.215 386.289C122.215 394.533 110.89 401.231 97.2471 401.231Z" fill="#006587"/>
<path d="M119.64 378.818C119.64 386.032 109.601 391.7 97.2458 391.7C84.8903 391.7 74.8516 386.032 74.8516 378.818C74.8516 371.604 84.8903 365.937 97.2458 365.937C109.601 365.937 119.64 371.604 119.64 378.818Z" fill="#00A0B6"/>
<path d="M119.898 378.819C119.898 376.501 118.611 374.182 116.551 372.121C112.433 369.545 106.513 367.741 99.82 367.741C87.4646 367.741 77.4258 373.409 77.4258 380.623C77.4258 382.941 78.7128 385.26 80.772 387.321C84.8905 389.898 90.8108 391.701 97.5033 391.701C109.859 391.701 119.898 385.775 119.898 378.819Z" fill="#F9FCFF"/>
<path d="M97.2445 366.709C85.4039 366.709 75.88 372.119 75.88 378.818C75.88 385.516 85.4039 390.926 97.2445 390.926C109.085 390.926 118.609 385.516 118.609 378.818C118.609 372.119 109.085 366.709 97.2445 366.709ZM97.2445 392.472C84.3743 392.472 74.0781 386.289 74.0781 378.818C74.0781 371.346 84.3743 365.163 97.2445 365.163C110.115 365.163 120.411 371.346 120.411 378.818C120.411 386.289 110.115 392.472 97.2445 392.472Z" fill="#006587"/>
<path d="M108.57 378.047C108.57 381.396 103.421 383.972 97.2438 383.972C91.0661 383.972 85.918 381.396 85.918 378.047C85.918 374.697 91.0661 372.121 97.2438 372.121C103.421 372.121 108.57 374.697 108.57 378.047Z" fill="#F9FCFF"/>
<path d="M97.2483 372.121C95.7038 372.121 94.4168 372.379 93.1298 372.636C90.5557 373.667 88.7539 375.47 88.7539 377.274C88.7539 380.623 93.902 383.199 100.08 383.199C101.624 383.199 102.911 382.942 104.198 382.684C106.772 381.653 108.574 379.85 108.574 378.047C108.574 374.697 103.426 372.121 97.2483 372.121Z" fill="#00A0B6"/>
<path d="M97.248 372.892C91.5851 372.892 86.6944 375.211 86.6944 378.045C86.6944 380.879 91.5851 383.198 97.248 383.198C102.911 383.198 107.802 380.879 107.802 378.045C107.544 375.211 102.911 372.892 97.248 372.892ZM97.248 385.001C90.2981 385.001 84.8926 381.909 84.8926 378.045C84.8926 374.18 90.2981 371.089 97.248 371.089C104.198 371.089 109.603 374.18 109.603 378.045C109.346 381.909 103.941 385.001 97.248 385.001Z" fill="#006587"/>
<path d="M97.2453 375.986C102.136 375.986 106.254 377.531 107.799 380.108C108.056 379.592 108.314 378.819 108.314 378.047C108.314 374.697 103.166 372.121 96.9879 372.121C90.8102 372.121 85.6621 374.697 85.6621 378.047C85.6621 378.819 85.9195 379.335 86.4343 380.108C87.9788 377.531 92.0972 375.986 97.2453 375.986Z" fill="#006587"/>
<path d="M97.248 372.891C91.5851 372.891 86.6944 375.21 86.6944 378.044C86.6944 378.301 86.6944 378.301 86.6944 378.559C88.7537 376.498 92.8721 375.21 97.248 375.21C101.624 375.21 105.485 376.498 107.544 378.301V378.044C107.544 375.21 102.911 372.891 97.248 372.891ZM87.2092 380.363H85.6648C85.15 379.59 84.8926 378.817 84.8926 377.786C84.8926 373.922 90.2981 370.83 97.248 370.83C104.198 370.83 109.603 373.922 109.603 377.786C109.603 378.559 109.346 379.332 108.831 380.105L106.515 381.135L107.287 380.105C105.742 378.044 101.881 376.498 97.248 376.498C92.6147 376.756 88.4962 378.301 87.2092 380.363Z" fill="#006587"/>
<path d="M92.3566 391.699L91.8418 399.943H101.881L111.147 397.624L116.038 395.563L120.414 391.699L121.443 386.546L120.156 380.105L117.582 383.97L114.236 387.062L106.771 390.411L97.2473 391.699H92.3566Z" fill="#006587"/>
<path d="M75.8818 382.425L74.08 390.669L72.793 385.517L74.3374 379.849L75.8818 382.425Z" fill="#006587"/>
<path d="M181.204 367.403C182.234 367.918 182.234 368.949 181.204 369.464C180.174 369.979 178.63 369.979 177.6 369.464C176.571 368.949 176.571 367.918 177.6 367.403C178.63 366.888 180.174 366.888 181.204 367.403Z" fill="#006587"/>
<path d="M190.472 361.992C191.501 362.507 191.501 363.538 190.472 364.053C189.442 364.568 187.898 364.568 186.868 364.053C185.838 363.538 185.838 362.507 186.868 361.992C187.898 361.477 189.442 361.477 190.472 361.992Z" fill="#006587"/>
<path d="M171.938 361.992C172.968 362.507 172.968 363.538 171.938 364.053C170.909 364.568 169.364 364.568 168.335 364.053C167.305 363.538 167.305 362.507 168.335 361.992C169.364 361.477 170.909 361.477 171.938 361.992Z" fill="#006587"/>
<path d="M181.204 356.584C182.234 357.099 182.234 358.129 181.204 358.645C180.174 359.16 178.63 359.16 177.6 358.645C176.571 358.129 176.571 357.099 177.6 356.584C178.63 356.068 180.174 356.068 181.204 356.584Z" fill="#006587"/>
<path d="M162.671 356.584C163.7 357.099 163.7 358.129 162.671 358.645C161.641 359.16 160.097 359.16 159.067 358.645C158.038 358.129 158.038 357.099 159.067 356.584C160.097 356.068 161.641 356.068 162.671 356.584Z" fill="#006587"/>
<path d="M171.938 351.172C172.968 351.687 172.968 352.717 171.938 353.233C170.909 353.748 169.364 353.748 168.335 353.233C167.305 352.717 167.305 351.687 168.335 351.172C169.364 350.656 170.909 350.656 171.938 351.172Z" fill="#006587"/>
<path d="M153.405 351.172C154.435 351.687 154.435 352.717 153.405 353.233C152.376 353.748 150.831 353.748 149.802 353.233C148.772 352.717 148.772 351.687 149.802 351.172C150.831 350.656 152.376 350.656 153.405 351.172Z" fill="#006587"/>
<path d="M162.671 346.019C163.7 346.534 163.7 347.565 162.671 348.08C161.641 348.595 160.097 348.595 159.067 348.08C158.038 347.565 158.038 346.534 159.067 346.019C160.097 345.246 161.641 345.246 162.671 346.019Z" fill="#006587"/>
<path d="M143.88 346.019C144.909 346.534 144.909 347.565 143.88 348.08C142.85 348.595 141.306 348.595 140.276 348.08C139.247 347.565 139.247 346.534 140.276 346.019C141.306 345.246 143.108 345.246 143.88 346.019Z" fill="#006587"/>
<path d="M153.405 340.607C154.435 341.122 154.435 342.153 153.405 342.668C152.376 343.184 150.831 343.184 149.802 342.668C148.772 342.153 148.772 341.122 149.802 340.607C150.831 340.092 152.376 340.092 153.405 340.607Z" fill="#006587"/>
<path d="M134.614 340.61C135.644 341.125 135.644 342.156 134.614 342.671C133.585 343.186 132.04 343.186 131.01 342.671C129.981 342.156 129.981 341.125 131.01 340.61C132.04 339.837 133.585 339.837 134.614 340.61Z" fill="#006587"/>
<path d="M143.88 335.2C144.909 335.715 144.909 336.746 143.88 337.261C142.85 337.776 141.306 337.776 140.276 337.261C139.247 336.746 139.247 335.715 140.276 335.2C141.306 334.685 142.85 334.685 143.88 335.2Z" fill="#006587"/>
<path d="M125.347 335.2C126.376 335.715 126.376 336.746 125.347 337.261C124.317 337.776 122.773 337.776 121.743 337.261C120.713 336.746 120.713 335.715 121.743 335.2C122.773 334.685 124.317 334.685 125.347 335.2Z" fill="#006587"/>
<path d="M134.614 329.788C135.644 330.303 135.644 331.334 134.614 331.849C133.585 332.364 132.04 332.364 131.01 331.849C129.981 331.334 129.981 330.303 131.01 329.788C132.04 329.273 133.585 329.273 134.614 329.788Z" fill="#006587"/>
<path d="M116.081 329.788C117.111 330.303 117.111 331.334 116.081 331.849C115.051 332.364 113.507 332.364 112.477 331.849C111.448 331.334 111.448 330.303 112.477 329.788C113.507 329.273 115.051 329.273 116.081 329.788Z" fill="#006587"/>
<path d="M125.347 324.378C126.376 324.893 126.376 325.923 125.347 326.439C124.317 326.954 122.773 326.954 121.743 326.439C120.713 325.923 120.713 324.893 121.743 324.378C122.773 323.862 124.317 323.862 125.347 324.378Z" fill="#006587"/>
<path d="M106.815 324.378C107.845 324.893 107.845 325.923 106.815 326.439C105.786 326.954 104.241 326.954 103.212 326.439C102.182 325.923 102.182 324.893 103.212 324.378C104.241 323.862 105.786 323.862 106.815 324.378Z" fill="#006587"/>
<path d="M116.081 318.968C117.111 319.484 117.111 320.514 116.081 321.03C115.051 321.545 113.507 321.545 112.477 321.03C111.448 320.514 111.448 319.484 112.477 318.968C113.507 318.453 115.051 318.453 116.081 318.968Z" fill="#006587"/>
<path d="M97.5477 318.968C98.5774 319.484 98.5774 320.514 97.5477 321.03C96.5181 321.545 94.9737 321.545 93.9441 321.03C92.9145 320.514 92.9145 319.484 93.9441 318.968C94.9737 318.453 96.5181 318.453 97.5477 318.968Z" fill="#006587"/>
<path d="M106.815 313.814C107.845 314.329 107.845 315.36 106.815 315.875C105.786 316.39 104.241 316.39 103.212 315.875C102.182 315.36 102.182 314.329 103.212 313.814C104.241 313.041 105.786 313.041 106.815 313.814Z" fill="#006587"/>
<path d="M88.2802 313.814C89.3098 314.329 89.3098 315.36 88.2802 315.875C87.2506 316.39 85.7061 316.39 84.6765 315.875C83.6469 315.36 83.6469 314.329 84.6765 313.814C85.7061 313.041 87.2506 313.041 88.2802 313.814Z" fill="#006587"/>
<path d="M97.5477 308.404C98.5774 308.919 98.5774 309.95 97.5477 310.465C96.5181 310.98 94.9737 310.98 93.9441 310.465C92.9145 309.95 92.9145 308.919 93.9441 308.404C94.9737 307.889 96.5181 307.889 97.5477 308.404Z" fill="#006587"/>
<path d="M79.0146 308.404C80.0442 308.919 80.0442 309.95 79.0146 310.465C77.9849 310.98 76.4405 310.98 75.4109 310.465C74.3813 309.95 74.3813 308.919 75.4109 308.404C76.4405 307.889 77.9849 307.889 79.0146 308.404Z" fill="#006587"/>
<path d="M88.2802 302.994C89.3098 303.509 89.3098 304.54 88.2802 305.055C87.2506 305.57 85.7061 305.57 84.6765 305.055C83.6469 304.54 83.6469 303.509 84.6765 302.994C85.7061 302.479 87.2506 302.479 88.2802 302.994Z" fill="#006587"/>
<path d="M69.7509 302.994C70.7805 303.509 70.7805 304.54 69.7509 305.055C68.7213 305.57 67.1768 305.57 66.1472 305.055C65.1176 304.54 65.1176 303.509 66.1472 302.994C67.1768 302.479 68.7213 302.479 69.7509 302.994Z" fill="#006587"/>
<path d="M79.0146 297.586C80.0442 298.101 80.0442 299.131 79.0146 299.647C77.9849 300.162 76.4405 300.162 75.4109 299.647C74.3813 299.131 74.3813 298.101 75.4109 297.586C76.4405 297.07 77.9849 297.07 79.0146 297.586Z" fill="#006587"/>
<path d="M60.2255 297.586C61.2551 298.101 61.2551 299.131 60.2255 299.647C59.1959 300.162 57.6514 300.162 56.6218 299.647C55.5922 299.131 55.5922 298.101 56.6218 297.586C57.6514 297.07 59.4533 297.07 60.2255 297.586Z" fill="#006587"/>
<path d="M69.4892 292.175C70.5188 292.69 70.5188 293.72 69.4892 294.236C68.4595 294.751 66.9151 294.751 65.8855 294.236C64.8559 293.72 64.8559 292.69 65.8855 292.175C67.1725 291.659 68.7169 291.659 69.4892 292.175Z" fill="#006587"/>
<path d="M60.2255 286.764C61.2551 287.28 61.2551 288.31 60.2255 288.825C59.1959 289.341 57.6514 289.341 56.6218 288.825C55.5922 288.31 55.5922 287.28 56.6218 286.764C57.6514 286.249 59.4533 286.249 60.2255 286.764Z" fill="#006587"/>
<path d="M218.53 377.193C219.56 377.708 219.56 378.739 218.53 379.254C217.501 379.769 215.956 379.769 214.927 379.254C213.897 378.739 213.897 377.708 214.927 377.193C215.956 376.678 217.501 376.678 218.53 377.193Z" fill="#006587"/>
<path d="M227.796 371.783C228.825 372.298 228.825 373.329 227.796 373.844C226.766 374.359 225.222 374.359 224.192 373.844C223.163 373.329 223.163 372.298 224.192 371.783C225.222 371.268 226.766 371.268 227.796 371.783Z" fill="#006587"/>
<path d="M237.061 366.63C238.091 367.146 238.091 368.176 237.061 368.692C236.032 369.207 234.487 369.207 233.458 368.692C232.428 368.176 232.428 367.146 233.458 366.63C234.487 365.858 236.032 365.858 237.061 366.63Z" fill="#006587"/>
<path d="M246.327 361.22C247.357 361.736 247.357 362.766 246.327 363.281C245.297 363.797 243.753 363.797 242.723 363.281C241.694 362.766 241.694 361.736 242.723 361.22C243.753 360.705 245.555 360.705 246.327 361.22Z" fill="#006587"/>
<path d="M255.597 355.81C256.626 356.326 256.626 357.356 255.597 357.871C254.567 358.387 253.023 358.387 251.993 357.871C250.963 357.356 250.963 356.326 251.993 355.81C253.023 355.295 254.824 355.295 255.597 355.81Z" fill="#006587"/>
<path d="M264.862 350.399C265.892 350.914 265.892 351.945 264.862 352.46C263.833 352.975 262.288 352.975 261.259 352.46C260.229 351.945 260.229 350.914 261.259 350.399C262.288 349.884 264.09 349.884 264.862 350.399Z" fill="#006587"/>
<path d="M274.128 344.989C275.157 345.504 275.157 346.535 274.128 347.05C273.098 347.565 271.554 347.565 270.524 347.05C269.495 346.535 269.495 345.504 270.524 344.989C271.554 344.474 273.356 344.474 274.128 344.989Z" fill="#006587"/>
<path d="M283.651 339.837C284.681 340.352 284.681 341.382 283.651 341.898C282.622 342.413 281.077 342.413 280.048 341.898C279.018 341.382 279.018 340.352 280.048 339.837C281.077 339.064 282.622 339.064 283.651 339.837Z" fill="#006587"/>
<path d="M292.921 334.425C293.95 334.94 293.95 335.97 292.921 336.486C291.891 337.001 290.347 337.001 289.317 336.486C288.288 335.97 288.288 334.94 289.317 334.425C290.347 333.909 291.891 333.909 292.921 334.425Z" fill="#006587"/>
<path d="M302.184 329.016C303.214 329.532 303.214 330.562 302.184 331.077C301.155 331.593 299.61 331.593 298.581 331.077C297.551 330.562 297.551 329.532 298.581 329.016C299.61 328.501 301.155 328.501 302.184 329.016Z" fill="#006587"/>
<path d="M311.452 323.607C312.482 324.122 312.482 325.153 311.452 325.668C310.422 326.183 308.878 326.183 307.848 325.668C306.819 325.153 306.819 324.122 307.848 323.607C308.878 323.092 310.422 323.092 311.452 323.607Z" fill="#006587"/>
<path d="M320.718 318.193C321.747 318.708 321.747 319.739 320.718 320.254C319.688 320.769 318.144 320.769 317.114 320.254C316.084 319.739 316.084 318.708 317.114 318.193C318.144 317.678 319.688 317.678 320.718 318.193Z" fill="#006587"/>
<path d="M199.995 377.193C201.025 377.708 201.025 378.739 199.995 379.254C198.965 379.769 197.421 379.769 196.391 379.254C195.362 378.739 195.362 377.708 196.391 377.193C197.421 376.678 198.965 376.678 199.995 377.193Z" fill="#006587"/>
<path d="M209.263 371.783C210.292 372.298 210.292 373.329 209.263 373.844C208.233 374.359 206.689 374.359 205.659 373.844C204.629 373.329 204.629 372.298 205.659 371.783C206.689 371.268 208.233 371.268 209.263 371.783Z" fill="#006587"/>
<path d="M218.53 366.63C219.56 367.146 219.56 368.176 218.53 368.692C217.501 369.207 215.956 369.207 214.927 368.692C213.897 368.176 213.897 367.146 214.927 366.63C215.956 365.858 217.501 365.858 218.53 366.63Z" fill="#006587"/>
<path d="M227.796 361.22C228.825 361.736 228.825 362.766 227.796 363.281C226.766 363.797 225.222 363.797 224.192 363.281C223.163 362.766 223.163 361.736 224.192 361.22C225.222 360.705 226.766 360.705 227.796 361.22Z" fill="#006587"/>
<path d="M237.061 355.81C238.091 356.326 238.091 357.356 237.061 357.871C236.032 358.387 234.487 358.387 233.458 357.871C232.428 357.356 232.428 356.326 233.458 355.81C234.487 355.295 236.032 355.295 237.061 355.81Z" fill="#006587"/>
<path d="M246.327 350.399C247.357 350.914 247.357 351.945 246.327 352.46C245.297 352.975 243.753 352.975 242.723 352.46C241.694 351.945 241.694 350.914 242.723 350.399C243.753 349.884 245.555 349.884 246.327 350.399Z" fill="#006587"/>
<path d="M255.597 344.989C256.626 345.504 256.626 346.535 255.597 347.05C254.567 347.565 253.023 347.565 251.993 347.05C250.963 346.535 250.963 345.504 251.993 344.989C253.023 344.474 254.824 344.474 255.597 344.989Z" fill="#006587"/>
<path d="M264.862 339.837C265.892 340.352 265.892 341.382 264.862 341.898C263.833 342.413 262.288 342.413 261.259 341.898C260.229 341.382 260.229 340.352 261.259 339.837C262.288 339.064 264.09 339.064 264.862 339.837Z" fill="#006587"/>
<path d="M274.128 334.425C275.157 334.94 275.157 335.97 274.128 336.486C273.098 337.001 271.554 337.001 270.524 336.486C269.495 335.97 269.495 334.94 270.524 334.425C271.554 333.909 273.356 333.909 274.128 334.425Z" fill="#006587"/>
<path d="M283.651 329.016C284.681 329.532 284.681 330.562 283.651 331.077C282.622 331.593 281.077 331.593 280.048 331.077C279.018 330.562 279.018 329.532 280.048 329.016C281.077 328.501 282.622 328.501 283.651 329.016Z" fill="#006587"/>
<path d="M292.921 323.607C293.95 324.122 293.95 325.153 292.921 325.668C291.891 326.183 290.347 326.183 289.317 325.668C288.288 325.153 288.288 324.122 289.317 323.607C290.347 323.092 291.891 323.092 292.921 323.607Z" fill="#006587"/>
<path d="M302.184 318.193C303.214 318.708 303.214 319.739 302.184 320.254C301.155 320.769 299.61 320.769 298.581 320.254C297.551 319.739 297.551 318.708 298.581 318.193C299.61 317.678 301.155 317.678 302.184 318.193Z" fill="#006587"/>
<path d="M311.452 312.785C312.482 313.3 312.482 314.331 311.452 314.846C310.422 315.361 308.878 315.361 307.848 314.846C306.819 314.331 306.819 313.3 307.848 312.785C308.878 312.27 310.422 312.27 311.452 312.785Z" fill="#006587"/>
<path d="M190.729 371.783C191.759 372.298 191.759 373.329 190.729 373.844C189.7 374.359 188.155 374.359 187.126 373.844C186.096 373.329 186.096 372.298 187.126 371.783C188.155 371.268 189.7 371.268 190.729 371.783Z" fill="#006587"/>
<path d="M199.995 366.63C201.025 367.146 201.025 368.176 199.995 368.692C198.965 369.207 197.421 369.207 196.391 368.692C195.362 368.176 195.362 367.146 196.391 366.63C197.421 365.858 198.965 365.858 199.995 366.63Z" fill="#006587"/>
<path d="M209.263 361.22C210.292 361.736 210.292 362.766 209.263 363.281C208.233 363.797 206.689 363.797 205.659 363.281C204.629 362.766 204.629 361.736 205.659 361.22C206.689 360.705 208.233 360.705 209.263 361.22Z" fill="#006587"/>
<path d="M326.38 313.041C327.409 312.525 328.954 312.525 329.983 313.041C331.013 313.556 331.013 314.587 329.983 315.102C328.954 315.617 327.409 315.617 326.38 315.102C325.35 314.587 325.35 313.556 326.38 313.041Z" fill="#006587"/>
<path d="M339.251 307.631C340.281 308.146 340.281 309.176 339.251 309.692C338.221 310.207 336.677 310.207 335.647 309.692C334.618 309.176 334.618 308.146 335.647 307.631C336.677 307.115 338.221 307.115 339.251 307.631Z" fill="#006587"/>
<path d="M348.515 302.222C349.544 302.738 349.544 303.768 348.515 304.283C347.485 304.799 345.941 304.799 344.911 304.283C343.881 303.768 343.881 302.738 344.911 302.222C345.941 301.707 347.485 301.707 348.515 302.222Z" fill="#006587"/>
<path d="M357.782 296.811C358.812 297.327 358.812 298.357 357.782 298.872C356.753 299.388 355.208 299.388 354.178 298.872C353.149 298.357 353.149 297.327 354.178 296.811C355.208 296.296 356.753 296.296 357.782 296.811Z" fill="#006587"/>
<path d="M367.052 291.659C368.081 292.174 368.081 293.205 367.052 293.72C366.022 294.235 364.478 294.235 363.448 293.72C362.418 293.205 362.418 292.174 363.448 291.659C364.478 290.886 366.022 290.886 367.052 291.659Z" fill="#006587"/>
<path d="M376.317 286.249C377.347 286.764 377.347 287.795 376.317 288.31C375.288 288.825 373.743 288.825 372.714 288.31C371.684 287.795 371.684 286.764 372.714 286.249C373.743 285.733 375.288 285.733 376.317 286.249Z" fill="#006587"/>
<path d="M385.583 280.841C386.613 281.356 386.613 282.386 385.583 282.902C384.553 283.417 383.009 283.417 381.979 282.902C380.95 282.386 380.95 281.356 381.979 280.841C383.009 280.325 384.553 280.325 385.583 280.841Z" fill="#006587"/>
<path d="M394.852 275.426C395.882 275.942 395.882 276.972 394.852 277.488C393.823 278.003 392.278 278.003 391.249 277.488C390.219 276.972 390.219 275.942 391.249 275.426C392.278 274.911 393.823 274.911 394.852 275.426Z" fill="#006587"/>
<path d="M404.116 270.017C405.146 270.533 405.146 271.563 404.116 272.078C403.086 272.594 401.542 272.594 400.512 272.078C399.483 271.563 399.483 270.533 400.512 270.017C401.542 269.502 403.086 269.502 404.116 270.017Z" fill="#006587"/>
<path d="M317.114 307.631C318.144 307.115 319.688 307.115 320.718 307.631C321.747 308.146 321.747 309.176 320.718 309.692C319.688 310.207 318.144 310.207 317.114 309.692C316.084 309.176 316.084 308.146 317.114 307.631Z" fill="#006587"/>
<path d="M329.983 302.222C331.013 302.738 331.013 303.768 329.983 304.283C328.954 304.799 327.409 304.799 326.38 304.283C325.35 303.768 325.35 302.738 326.38 302.222C327.409 301.707 328.954 301.707 329.983 302.222Z" fill="#006587"/>
<path d="M339.251 296.811C340.281 297.327 340.281 298.357 339.251 298.872C338.221 299.388 336.677 299.388 335.647 298.872C334.618 298.357 334.618 297.327 335.647 296.811C336.677 296.296 338.221 296.296 339.251 296.811Z" fill="#006587"/>
<path d="M348.515 291.659C349.544 292.174 349.544 293.205 348.515 293.72C347.485 294.235 345.941 294.235 344.911 293.72C343.881 293.205 343.881 292.174 344.911 291.659C345.941 290.886 347.485 290.886 348.515 291.659Z" fill="#006587"/>
<path d="M357.782 286.249C358.812 286.764 358.812 287.795 357.782 288.31C356.753 288.825 355.208 288.825 354.178 288.31C353.149 287.795 353.149 286.764 354.178 286.249C355.208 285.733 356.753 285.733 357.782 286.249Z" fill="#006587"/>
<path d="M367.052 280.841C368.081 281.356 368.081 282.386 367.052 282.902C366.022 283.417 364.478 283.417 363.448 282.902C362.418 282.386 362.418 281.356 363.448 280.841C364.478 280.325 366.022 280.325 367.052 280.841Z" fill="#006587"/>
<path d="M376.317 275.426C377.347 275.942 377.347 276.972 376.317 277.488C375.288 278.003 373.743 278.003 372.714 277.488C371.684 276.972 371.684 275.942 372.714 275.426C373.743 274.911 375.288 274.911 376.317 275.426Z" fill="#006587"/>
<path d="M385.583 270.017C386.613 270.533 386.613 271.563 385.583 272.078C384.553 272.594 383.009 272.594 381.979 272.078C380.95 271.563 380.95 270.533 381.979 270.017C383.009 269.502 384.553 269.502 385.583 270.017Z" fill="#006587"/>
<path d="M394.852 264.607C395.882 265.122 395.882 266.153 394.852 266.668C393.823 267.183 392.278 267.183 391.249 266.668C390.219 266.153 390.219 265.122 391.249 264.607C392.278 264.092 393.823 264.092 394.852 264.607Z" fill="#006587"/>
<path d="M404.116 259.455C405.146 259.97 405.146 261 404.116 261.516C403.086 262.031 401.542 262.031 400.512 261.516C399.483 261 399.483 259.97 400.512 259.455C401.542 258.682 403.086 258.682 404.116 259.455Z" fill="#006587"/>
<path d="M397.682 242.195C397.682 241.937 397.682 241.937 397.682 242.195V236.785H394.336C394.078 236.527 393.821 236.527 393.563 236.269L258.683 158.465C252.763 155.115 242.467 155.373 235.517 159.495L63.0559 259.714C62.0263 260.229 60.9967 261.002 60.2244 262.033H57.6504V273.884C57.6504 275.945 58.9374 278.006 61.5115 279.552L196.391 357.614C202.312 360.963 212.608 360.706 219.558 356.584L392.019 256.365C395.623 254.304 397.424 251.727 397.682 249.151V246.06V242.195Z" fill="#00A0B6"/>
<path d="M397.683 248.633V245.542V242.192V241.935V236.782H394.337C394.079 236.525 393.822 236.525 393.564 236.267L343.37 207.412C339.509 207.412 336.678 207.67 335.648 208.185C328.441 210.504 213.896 277.23 211.579 287.536C209.263 297.583 204.887 348.337 204.887 348.337V359.673C209.777 359.93 215.183 358.9 219.559 356.581L392.02 256.362C395.624 253.786 397.683 251.21 397.683 248.633Z" fill="#006587"/>
<path d="M58.9373 263.06V273.623C58.9373 275.426 60.2243 276.972 62.2836 278.26L197.164 356.323C202.826 359.672 212.608 359.157 219.043 355.292L391.504 255.073C394.593 253.27 396.395 250.951 396.652 248.89V242.192V238.069H394.078L393.821 237.812C393.563 237.554 393.306 237.554 393.306 237.297L258.168 159.492C252.506 156.4 242.724 156.658 236.289 160.522L63.828 260.741C62.7984 261.256 61.7688 262.029 60.9966 262.802L60.7392 263.06H58.9373ZM206.688 360.702C202.826 360.702 198.965 359.929 196.134 358.384L60.9966 280.321C58.1651 278.775 56.3633 276.199 56.3633 273.623V260.741H59.7095C60.4818 259.968 61.5114 259.195 62.541 258.68L235.002 158.461C242.209 154.339 253.02 153.824 259.198 157.431L394.078 235.493C394.336 235.493 394.335 235.751 394.593 235.751H398.711V248.89C398.454 251.982 396.395 255.073 392.534 257.134L220.073 357.353C216.469 359.672 211.321 360.702 206.688 360.702Z" fill="#006587"/>
<path d="M196.651 346.019L61.7709 267.956C55.8505 264.607 56.6228 258.681 63.3153 254.559L235.776 154.34C242.726 150.476 253.022 149.96 258.943 153.31L393.823 231.372C399.743 234.721 398.971 240.647 392.278 244.769L219.817 344.988C212.867 348.853 202.571 349.368 196.651 346.019Z" fill="#00A0B6"/>
<path d="M248.645 152.281C244.269 152.281 239.635 153.312 236.289 155.373L63.828 255.592C60.7392 257.395 58.6799 259.714 58.6799 262.033C58.6799 263.836 59.9669 265.639 62.0262 266.67L196.906 344.733C202.569 348.082 212.35 347.567 218.786 343.702L391.247 243.483C394.335 241.68 396.395 239.361 396.395 237.042C396.395 235.239 395.108 233.435 393.048 232.405L258.168 154.342C255.594 153.054 252.248 152.281 248.645 152.281ZM206.688 349.37C202.826 349.37 198.965 348.597 196.134 347.051L60.9966 268.989C58.1651 267.185 56.3633 264.867 56.3633 262.29C56.3633 259.199 58.6799 256.107 62.541 253.788L235.002 153.569C242.209 149.447 253.02 148.932 259.198 152.539L394.078 230.602C396.91 232.405 398.711 234.724 398.711 237.3C398.711 240.392 396.395 243.483 392.534 245.802L220.073 346.021C216.469 348.339 211.321 349.37 206.688 349.37Z" fill="#006587"/>
<path d="M209.519 338.291L209.005 338.033L78.7578 262.804L242.725 167.48L243.239 167.738L373.486 242.967L209.519 338.291Z" fill="#006587"/>
<path d="M210.292 330.818L77.7285 254.301L245.042 156.916L377.348 233.433L210.292 330.818Z" fill="#F9FCFF"/>
<path d="M80.0454 254.302L210.035 329.531L375.031 233.691L245.042 158.205L80.0454 254.302ZM210.292 332.107L209.777 331.849L75.4121 254.302L245.042 155.629L245.557 155.887L379.922 233.434L210.292 332.107Z" fill="#006587"/>
<path d="M356.242 188.862V189.377L342.857 181.648C342.599 181.906 342.342 181.906 342.085 182.164C338.223 184.482 336.164 187.832 332.303 185.771C328.442 183.452 324.581 182.937 328.442 180.618C328.7 180.36 328.957 180.36 329.214 180.103L330.501 170.055L325.353 168.252L324.581 177.526L309.652 162.584C307.078 161.038 302.444 161.811 301.672 163.872L299.87 168.509L298.068 168.252V179.33C298.068 180.103 298.583 180.618 299.355 181.133L340.283 204.835C341.312 205.608 343.114 205.866 344.659 205.608L359.588 203.805C361.905 203.547 363.449 202.259 363.192 200.971V190.15L356.242 188.862Z" fill="#006587"/>
<path d="M299.094 179.331C299.094 179.589 299.352 179.846 299.867 180.361L340.794 204.064C341.824 204.579 343.111 204.837 344.398 204.579L359.327 202.775C361.129 202.518 361.901 201.745 361.901 201.23V191.182L357.268 190.409V191.44L342.853 183.195H342.596C341.566 183.711 340.794 184.484 340.022 184.999C337.705 186.802 335.131 188.606 331.527 186.802C330.755 186.287 329.726 186.029 328.953 185.514C326.894 184.484 325.35 183.711 325.35 182.165C325.35 180.877 326.379 180.104 327.409 179.589C327.409 179.589 328.953 180.619 329.211 180.361V171.087L326.122 169.541L325.092 179.846L308.618 163.1C307.331 162.327 305.53 162.327 303.985 162.842C303.213 163.1 302.698 163.615 302.441 163.873L300.124 169.283L298.837 169.026L299.094 179.331ZM343.625 206.898C342.081 206.898 340.794 206.64 339.764 205.867L298.837 182.165C298.322 181.907 297.807 181.392 297.55 180.877L297.035 181.134V166.707L299.094 166.965L300.639 163.1C301.154 162.07 302.183 161.297 303.47 160.781C305.787 160.009 308.361 160.266 310.163 161.297L310.42 161.554L323.548 174.694L324.32 166.707L332.042 169.541V182.165L329.983 181.392C329.468 181.65 329.468 181.65 329.211 181.65C328.696 181.907 328.439 182.165 328.439 182.165C328.953 182.423 329.726 182.938 330.498 183.453C331.27 183.968 332.3 184.226 333.072 184.741C335.131 186.029 336.418 184.999 338.735 183.195C339.507 182.68 340.537 181.907 341.566 181.134C341.824 181.134 341.824 180.877 342.081 180.877L342.596 180.361L343.368 180.619L355.466 187.575L363.703 188.863C364.218 188.863 364.475 189.379 364.475 189.636V200.972C364.733 202.775 362.673 204.579 359.842 205.094L344.912 206.898C344.398 206.898 343.883 206.898 343.625 206.898Z" fill="#006587"/>
<path d="M361.904 188.093L342.856 177.014C342.598 177.272 342.341 177.272 342.084 177.53C338.223 179.848 332.045 179.848 328.184 177.53C324.323 175.211 324.323 171.862 328.184 169.543C328.441 169.285 328.699 169.285 328.956 169.028L309.136 157.692C306.562 156.146 301.928 156.919 301.156 158.98L297.553 167.482C297.295 168.513 297.553 169.285 298.84 170.058L339.767 193.761C340.797 194.533 342.598 194.791 344.143 194.533L359.072 192.73C363.191 192.215 364.478 189.638 361.904 188.093Z" fill="#F9FCFF"/>
<path d="M306.044 158.206C305.272 158.206 304.5 158.206 303.985 158.463C303.213 158.721 302.698 159.236 302.44 159.494L298.837 167.996C298.579 168.511 299.352 169.026 299.609 169.026L340.536 192.728C341.566 193.244 342.853 193.501 344.14 193.244L359.069 191.44C360.871 191.183 361.643 190.41 361.643 189.895C361.643 189.379 361.129 189.122 360.871 188.864L342.338 178.301H342.081C337.962 180.62 331.27 180.62 327.151 178.301C324.835 177.013 323.805 175.209 323.805 173.406C323.805 171.86 324.577 170.314 326.379 169.026L308.361 158.721C308.103 158.463 307.074 158.206 306.044 158.206ZM343.625 195.82C342.081 195.82 340.794 195.562 339.764 194.79L298.837 171.087C297.035 170.057 296.52 168.511 297.035 166.965L300.639 158.463C301.153 157.433 302.183 156.66 303.47 156.145C305.787 155.372 308.361 155.629 310.163 156.66L331.785 169.284L329.725 170.314C329.21 170.572 329.21 170.572 328.953 170.572C327.409 171.345 326.636 172.376 326.636 173.406C326.636 174.437 327.409 175.467 328.953 176.24C332.299 178.301 338.22 178.301 341.566 176.24C341.823 176.24 341.823 175.982 342.081 175.982L342.596 175.467L343.368 175.725L362.416 186.803C363.96 187.576 364.732 188.864 364.475 190.41C364.218 192.213 362.416 193.501 359.842 193.759L344.912 195.562C344.397 195.82 343.883 195.82 343.625 195.82Z" fill="#006587"/>
<path d="M364.222 226.22L258.171 164.904C255.597 163.358 255.854 160.782 258.943 159.236L265.636 155.371C268.467 153.568 273.101 153.568 275.675 154.856L381.725 216.173C384.299 217.718 384.042 220.295 380.953 221.84L374.261 225.705C371.172 227.508 366.796 227.766 364.222 226.22Z" fill="#F9FCFF"/>
<path d="M364.734 225.19C366.794 226.478 370.912 226.22 373.486 224.674L380.179 220.81C381.208 220.037 381.981 219.264 381.981 218.491C381.981 217.718 381.466 217.203 380.951 216.945L274.643 155.886C272.584 154.598 268.465 154.856 265.891 156.402L259.199 160.266C258.169 160.781 257.654 161.554 257.654 162.327C257.654 163.1 258.169 163.615 258.684 163.873L364.734 225.19ZM368.595 228.539C366.794 228.539 364.992 228.281 363.705 227.508L257.397 165.934C256.11 165.161 255.08 163.873 255.08 162.327C255.08 160.781 256.11 159.236 258.169 157.947L264.861 154.083C268.208 152.28 273.098 152.022 275.93 153.568L381.981 214.884C383.525 215.657 384.297 216.945 384.297 218.491C384.297 220.037 383.268 221.583 381.208 222.871L374.516 226.735C372.971 227.766 370.655 228.539 368.595 228.539Z" fill="#006587"/>
<path d="M331.014 212.051L277.989 181.393C276.702 180.62 276.959 179.332 278.246 178.559L281.592 176.756C283.137 175.983 285.196 175.725 286.483 176.498L339.508 207.156C340.795 207.929 340.538 209.217 339.251 209.99L335.905 211.794C334.618 212.824 332.301 212.824 331.014 212.051Z" fill="#00A0B6"/>
<path d="M284.424 177.012C283.651 177.012 282.879 177.27 282.107 177.528L278.761 179.331C278.246 179.589 278.246 179.846 278.246 179.846C278.246 179.846 278.246 179.846 278.503 180.104L331.529 210.762C332.558 211.277 334.103 211.277 335.39 210.505L338.736 208.701C339.251 208.444 339.251 208.186 339.251 208.186C339.251 208.186 339.251 208.186 338.993 207.928L285.968 177.528C285.453 177.27 284.938 177.012 284.424 177.012ZM333.073 213.854C332.044 213.854 331.014 213.596 330.242 213.081L277.216 182.423C276.187 181.907 275.672 181.134 275.672 180.104C275.672 179.073 276.444 178.043 277.474 177.528L280.82 175.724C282.622 174.694 285.453 174.436 286.998 175.467L340.28 206.125C341.31 206.64 341.825 207.413 341.825 208.444C341.825 209.474 341.053 210.505 340.023 211.02L336.677 212.823C335.647 213.596 334.36 213.854 333.073 213.854Z" fill="#006587"/>
<path d="M136.451 12.4064C136.451 12.1394 136.451 12.1394 136.718 11.8724L153.539 1.72648C154.34 0.925481 155.675 1.19248 157.01 2.26047L163.151 7.60044C163.418 7.86744 193.856 32.9653 227.231 26.8243C228.032 26.8243 228.566 26.5573 229.367 26.8243C232.571 27.0913 236.309 29.2273 239.78 32.6983C240.58 33.4993 241.382 34.5673 241.915 35.3683C273.955 79.156 304.66 89.5689 305.995 90.1029L312.136 91.9719C314.272 92.7729 316.141 95.7099 316.141 98.1129V105.322C314.539 199.305 288.64 235.617 266.746 249.768L246.454 262.317L245.119 258.312C241.114 258.846 238.445 258.579 237.911 258.579C235.775 258.312 233.639 256.977 231.503 254.841C228.833 251.904 168.758 186.489 155.675 54.3251L146.597 34.5673L136.451 12.4064Z" fill="#006587"/>
<path d="M227.235 27.8928C193.593 34.0338 163.422 9.46994 162.087 8.40195L155.946 3.06198C155.145 2.52799 154.344 2.52799 154.344 2.79499L138.057 12.6739L147.402 34.0338L156.48 53.7917V54.3257C169.563 186.223 229.371 251.103 232.041 254.04C233.91 255.909 235.779 257.244 237.648 257.244C238.182 257.244 240.585 257.511 244.59 256.977L245.658 256.71L246.726 260.181L265.415 248.7C286.775 234.817 312.674 198.505 314.009 105.322V98.1134C314.009 96.2444 312.407 93.8414 310.805 93.3074L304.664 91.1714C303.329 90.6374 272.357 79.9575 240.051 35.9028C239.25 34.8348 238.716 34.0338 237.915 33.2328C234.978 30.0288 231.507 27.8928 228.57 27.6258C228.303 27.6258 228.036 27.6258 228.036 27.6258C228.036 27.8928 227.502 27.8928 227.235 27.8928ZM243.789 259.647C240.051 260.181 237.915 259.914 237.381 259.914C234.978 259.647 232.308 258.312 230.172 255.642C227.502 252.972 167.16 187.291 154.077 54.5927L144.999 35.1018L135.387 12.9409C135.12 12.1399 135.387 11.0719 136.188 10.8049L152.742 0.659C154.077 -0.408994 155.946 -0.141995 157.815 1.193L163.956 6.53296C165.291 7.60096 194.394 31.3638 226.968 25.4898C227.769 25.2228 228.57 25.2228 229.371 25.4898C233.109 25.7568 237.114 28.1598 240.585 31.8978C241.386 32.6988 242.187 33.7668 242.988 34.8348C274.76 78.0885 304.931 88.5015 306.266 89.0355L312.407 90.9044C315.077 91.7054 317.48 95.4434 317.48 98.3804V105.589C315.878 200.107 289.445 236.953 267.551 251.37L245.658 264.72L243.789 259.647Z" fill="#006587"/>
<path d="M153.272 1.72648C154.073 0.925481 155.408 1.19248 156.743 2.26047L162.884 7.60044C163.151 7.86744 193.589 32.9653 226.964 26.8243C227.765 26.8243 228.299 26.5573 229.1 26.8243C232.304 27.0913 236.042 29.2273 239.512 32.6983C240.313 33.4993 241.114 34.5673 241.648 35.3683C273.688 79.156 304.393 89.5689 305.728 90.1029L311.869 91.9719C312.937 92.2389 314.005 93.3069 314.806 94.6419L264.343 123.211L158.078 78.355C157.01 70.612 155.942 62.6021 155.141 54.3251L146.063 34.5673L136.451 12.4064C136.451 12.1394 136.451 12.1394 136.718 11.8724L153.272 1.72648Z" fill="#F9FCFF"/>
<path d="M311.606 93.308L305.465 91.172C304.13 90.638 273.158 79.9581 240.852 35.9034C240.051 34.8354 239.517 34.0344 238.716 33.2334C235.779 30.0294 232.308 27.8934 229.371 27.6264C228.837 27.6264 228.303 27.6264 227.502 27.6264C193.86 33.7674 163.689 9.20352 162.354 8.13553L156.213 2.79557C155.145 2.52857 154.344 2.52857 154.344 2.79557L138.057 12.6745L147.402 34.0344L156.48 53.7922V54.3262C157.281 62.0692 158.082 69.8121 159.417 77.2881L264.347 121.343L312.674 93.842C312.407 93.575 311.873 93.308 311.606 93.308ZM157.014 79.4241V78.6231C155.946 70.8801 154.878 62.8702 154.077 54.8602L144.999 35.3694L135.387 13.2085C135.12 12.4075 135.387 11.3395 136.188 11.0725L152.742 0.926578C154.077 -0.141415 155.946 0.125583 157.815 1.46057L163.956 6.80054C165.291 7.86853 194.394 31.6314 226.968 25.7574C227.769 25.4904 228.57 25.4904 229.371 25.7574C233.109 26.0244 237.114 28.4274 240.585 32.1654C241.386 32.9664 242.187 34.0344 242.988 35.1024C274.76 78.3561 304.931 88.769 306.266 89.303L312.407 91.172C313.742 91.706 315.077 92.774 316.145 94.376L316.946 95.711L264.614 125.348L157.014 79.4241Z" fill="#006587"/>
<path d="M278.498 114.935C264.881 107.459 242.721 91.9732 219.759 62.3363C218.157 60.2004 216.021 59.1324 214.419 59.1324C190.923 61.8024 169.296 51.9234 155.679 43.9135C153.81 42.8455 152.475 43.6465 152.742 45.7825C157.548 154.718 195.729 218.263 212.55 241.225C215.22 244.963 220.293 250.036 223.23 249.235C240.051 245.497 276.896 222.802 281.702 120.008C281.702 118.406 280.1 116.003 278.498 114.935ZM213.885 265.255C210.681 262.051 138.057 182.753 135.654 21.4856V14.0097C135.654 11.6067 137.523 10.8057 139.659 12.4077L145.8 17.7476C146.067 18.0146 176.505 43.1125 209.88 36.9715C210.681 36.9715 211.215 36.7045 212.016 36.9715C215.22 37.2385 218.958 39.3745 222.429 42.8455C223.23 43.6465 224.031 44.7145 224.565 45.5155C256.605 89.3032 287.309 99.7161 288.644 100.25L294.785 102.119C296.921 102.92 298.79 105.857 298.79 108.26V115.469C296.387 273.799 223.497 268.993 220.56 268.726C218.157 268.993 216.021 267.658 213.885 265.255Z" fill="#00A0B6"/>
<path d="M280.099 120.276C280.099 118.941 279.031 116.805 277.696 116.004C263.278 107.994 241.384 92.2408 218.422 62.8709C216.82 61.002 215.485 60.201 214.417 60.201C190.921 62.8709 169.028 53.259 154.877 44.9821C154.343 44.7151 154.076 44.7151 154.076 44.7151C154.076 44.7151 153.809 44.9821 153.809 45.5161C158.615 154.451 197.062 217.997 213.349 240.158C216.553 244.43 220.825 248.168 222.427 247.634C234.976 245.498 275.026 228.143 280.099 120.276ZM211.213 242.294C194.659 219.866 155.945 155.786 151.139 46.0501C151.139 44.4481 151.673 43.3801 152.741 42.5791C153.809 42.0451 155.144 42.0451 156.479 42.8461C170.363 51.123 191.455 60.468 214.15 57.798C216.286 57.531 218.689 58.866 220.558 61.536C243.253 90.3718 264.613 105.858 278.764 113.868C280.9 115.203 282.769 118.14 282.502 120.543C277.162 230.279 235.51 248.168 222.961 251.105C222.694 251.105 222.427 251.105 222.16 251.105C218.689 251.105 213.616 245.498 211.213 242.294ZM210.145 38.5741C176.504 44.7151 146.333 20.1512 144.998 19.0832L138.857 13.7433C137.789 13.2093 137.255 13.2093 136.988 13.2093C136.721 13.2093 136.721 13.7433 136.721 14.2773V21.7532C139.124 182.486 211.48 261.251 214.684 264.455C216.553 266.324 218.422 267.659 220.291 267.659C221.092 267.659 238.447 268.994 256.336 252.974C274.225 236.954 295.852 200.108 297.187 115.737V108.528C297.187 106.659 295.585 104.256 293.983 103.722L287.842 101.586C286.774 101.319 255.802 90.6388 223.228 46.5841C222.427 45.7831 221.893 44.7151 221.092 43.9141C218.155 40.7101 214.684 38.5741 211.747 38.3071C211.48 38.3071 211.213 38.3071 211.213 38.3071C210.679 38.3071 210.412 38.5741 210.145 38.5741ZM220.024 270.596C217.621 270.329 214.951 268.994 212.815 266.591C209.611 263.387 136.721 183.821 134.051 22.0202V14.5443C134.051 12.9423 134.585 11.6073 135.92 11.0733C137.255 10.5393 138.857 10.8063 140.459 12.1413L146.6 17.4812C147.935 18.5492 177.038 42.3121 209.611 36.4381C210.412 36.1711 211.213 36.1711 212.014 36.4381C215.752 36.7051 219.757 39.1081 223.228 42.8461C224.029 43.6471 224.83 44.7151 225.631 45.7831C257.404 89.0368 287.575 99.4497 288.91 99.9837L295.051 101.853C297.721 102.654 300.124 106.392 300.124 109.329V116.538C298.789 201.977 276.628 239.357 258.472 255.911C242.986 269.795 228.034 271.397 222.427 271.397C221.092 270.596 220.558 270.596 220.024 270.596Z" fill="#006587"/>
<path d="M155.677 44.1804C169.027 52.1903 190.921 62.0693 214.417 59.3993C216.019 59.1323 218.155 60.4673 219.757 62.6033C242.719 92.2401 264.88 107.726 278.496 115.202C280.365 116.27 281.7 118.673 281.7 120.809C276.894 223.336 240.049 246.298 223.228 250.036C220.558 250.57 215.485 245.764 212.548 242.026C195.727 219.064 157.546 155.519 152.74 46.5834C152.473 43.9134 154.075 43.1124 155.677 44.1804Z" fill="#00A0B6"/>
<path d="M214.415 60.4671C190.919 63.1371 169.026 53.5251 154.875 45.2482C154.341 44.9812 154.074 44.9812 154.074 44.9812C154.074 44.9812 153.807 45.2482 153.807 45.7822C158.613 154.717 197.06 218.263 213.347 240.424C216.551 244.696 220.823 248.434 222.425 247.9C234.707 245.23 274.757 227.875 279.83 120.008C279.83 118.673 278.762 116.537 277.427 115.736C263.009 107.726 241.115 91.9729 218.153 62.6031C217.085 61.2681 215.75 60.4671 214.415 60.4671C214.682 60.4671 214.682 60.4671 214.415 60.4671ZM211.211 242.293C194.924 219.865 155.943 155.785 151.137 46.0492C151.137 44.4472 151.671 43.3792 152.739 42.5782C153.807 42.0442 155.142 42.0442 156.477 42.8452C170.361 51.1222 191.453 60.4671 214.148 57.7971C216.284 57.5301 218.687 58.8651 220.556 61.5351C243.251 90.3709 264.611 105.857 278.762 113.867C280.898 115.202 282.767 118.139 282.5 120.542C277.16 230.278 235.508 248.167 222.959 251.104C222.692 251.104 222.425 251.104 222.158 251.104C218.687 251.104 213.614 245.497 211.211 242.293Z" fill="#006587"/>
<path d="M155.677 44.1819C158.08 45.7839 161.017 47.1189 163.954 48.7209C169.561 154.719 206.941 216.93 223.495 239.625C225.364 242.295 228.568 245.499 231.238 246.834C228.301 248.169 225.631 249.237 223.228 249.771C220.558 250.305 215.485 245.499 212.548 241.761C195.727 218.799 157.546 155.253 152.74 46.3179C152.473 43.9149 154.075 43.1139 155.677 44.1819Z" fill="#006587"/>
<path d="M222.425 240.157C206.405 218.263 168.492 155.786 162.618 49.2532C159.948 47.9182 157.545 46.5832 155.142 44.9812C154.608 44.7142 154.341 44.7142 154.341 44.7142C154.341 44.7142 154.074 44.9812 154.074 45.5152C158.88 154.451 197.327 217.996 213.614 240.157C216.818 244.429 221.09 248.167 222.692 247.633C224.561 247.366 226.163 246.565 228.032 245.764C225.896 244.696 223.76 242.293 222.425 240.157ZM211.211 242.293C194.924 219.865 155.943 155.785 151.137 46.0492C151.137 44.4472 151.671 43.3792 152.739 42.5782C153.807 42.0442 155.142 42.0442 156.477 42.8452C159.147 44.4472 161.817 45.7822 164.487 47.3842L165.288 47.6512V48.4522C171.162 154.718 208.541 216.928 224.561 238.555C226.163 240.958 229.367 244.162 231.77 245.497L234.173 246.832L231.77 247.9C228.833 249.235 226.163 250.303 223.493 250.837C223.226 250.837 222.959 250.837 222.692 250.837C218.687 251.104 213.614 245.497 211.211 242.293Z" fill="#006587"/>
<path d="M297.987 105.59L315.609 95.7106L314.274 93.3076L296.652 103.187L297.987 105.59Z" fill="#006587"/>
<path d="M287.308 100.784L304.93 90.6383L303.595 88.2354L285.973 98.3813L287.308 100.784Z" fill="#006587"/>
<path d="M213.083 38.0401L230.705 27.8942L229.37 25.4912L211.748 35.6371L213.083 38.0401Z" fill="#006587"/>
<path d="M229.37 52.9903L246.991 42.8444L245.389 40.4414L227.768 50.5873L229.37 52.9903Z" fill="#006587"/>
<path d="M300.659 133.89L314.009 125.881L312.407 123.478L299.057 131.487L300.659 133.89Z" fill="#00A0B6"/>
<path d="M278.23 230.81L290.244 223.868L288.642 221.465L276.895 228.407L278.23 230.81Z" fill="#00A0B6"/>
<path d="M193.325 38.8403L212.015 28.4274L210.68 26.0244L191.99 36.4373L193.325 38.8403Z" fill="#006587"/>
<path d="M214.416 241.758L220.29 238.02L218.955 235.617L212.814 239.355L214.416 241.758Z" fill="#00A0B6"/>
<path d="M156.212 66.3408L163.955 61.5348L162.62 59.1318L154.877 63.9378L156.212 66.3408Z" fill="#00A0B6"/>
<path d="M157.814 81.8271L165.556 77.0211L164.221 74.6182L156.479 79.4241L157.814 81.8271Z" fill="#00A0B6"/>
<path d="M225.896 179.013L223.226 177.411C213.614 171.804 205.871 156.852 205.871 144.036V128.284C205.871 124.279 208.274 122.41 211.478 124.012L237.911 139.231C241.115 141.099 243.518 145.638 243.518 149.91V165.663C243.251 178.479 235.508 184.62 225.896 179.013Z" fill="#00A0B6"/>
<path d="M209.078 125.08C208.811 125.08 208.811 125.08 208.544 125.08C208.01 125.347 207.476 126.148 207.476 128.017V144.037C207.476 156.319 214.952 170.47 224.03 175.81L226.7 177.412C230.171 179.548 233.642 179.815 236.312 178.213C239.516 176.344 241.385 171.805 241.385 165.664V149.911C241.385 146.44 239.249 142.435 236.846 140.833L210.413 125.614C210.146 125.347 209.612 125.08 209.078 125.08ZM232.841 183.019C230.438 183.019 227.768 182.218 224.831 180.616L222.161 179.014C212.015 173.14 203.738 157.387 203.738 144.037V128.284C203.738 125.347 204.806 123.211 206.675 122.143C208.277 121.342 210.146 121.342 212.282 122.41L238.715 137.629C242.453 139.765 245.123 145.105 245.123 149.911V165.664C245.123 173.14 242.453 178.747 238.181 181.417C236.579 182.485 234.71 183.019 232.841 183.019Z" fill="#F9FCFF"/>
<path d="M226.433 165.93L222.695 163.794V150.444H226.433V165.93Z" fill="#F9FCFF"/>
<path d="M230.972 153.381C230.972 157.386 228.035 158.988 224.564 157.119C221.093 154.983 218.156 150.177 218.156 146.172C218.156 142.167 221.093 140.565 224.564 142.434C228.035 144.303 230.972 149.109 230.972 153.381Z" fill="#F9FCFF"/>
<path d="M213.615 123.211L234.975 135.492V130.419C234.975 122.41 229.902 113.065 224.295 109.594L222.426 108.526C220.824 107.725 218.688 106.657 216.552 107.992C214.683 109.06 213.348 111.997 213.348 115.735V123.211H213.615ZM238.713 141.9L209.877 125.347V115.735C209.877 110.395 211.746 106.39 214.95 104.521C217.62 102.919 221.091 103.186 224.562 105.055L226.431 106.123C233.64 110.128 238.98 120.808 238.98 130.152V141.9H238.713Z" fill="#F9FCFF"/>
<defs>
<radialGradient id="paint0_radial_4229:18586" cx="0" cy="0" r="1" gradientUnits="userSpaceOnUse" gradientTransform="translate(235.5 322.5) rotate(90) scale(101.5 235.5)">
<stop stop-color="#00708E"/>
<stop offset="1" stop-color="#0181A4" stop-opacity="0"/>
</radialGradient>
</defs>
</svg>
