<?xml version="1.0" encoding="UTF-8"?>
<svg width="100px" height="100px" viewBox="0 0 100 100" version="1.1" xmlns="http://www.w3.org/2000/svg" xmlns:xlink="http://www.w3.org/1999/xlink">
    <!-- Generator: Sketch 52.6 (67491) - http://www.bohemiancoding.com/sketch -->
    <title>Group 28</title>
    <desc>Created with Sketch.</desc>
    <defs>
        <circle id="path-1" cx="40" cy="40" r="40"></circle>
        <filter x="-16.9%" y="-16.9%" width="141.2%" height="141.2%" filterUnits="objectBoundingBox" id="filter-2">
            <feOffset dx="3" dy="3" in="SourceAlpha" result="shadowOffsetOuter1"></feOffset>
            <feGaussianBlur stdDeviation="5" in="shadowOffsetOuter1" result="shadowBlurOuter1"></feGaussianBlur>
            <feColorMatrix values="0 0 0 0 0.2   0 0 0 0 0.2   0 0 0 0 0.2  0 0 0 0.06 0" type="matrix" in="shadowBlurOuter1"></feColorMatrix>
        </filter>
    </defs>
    <g id="Landing-3" stroke="none" stroke-width="1" fill="none" fill-rule="evenodd">
        <g id="1.0--Homepage" transform="translate(-974.000000, -2165.000000)">
            <g id="Group-25" transform="translate(138.000000, 2172.000000)">
                <g id="Group-28" transform="translate(843.000000, 0.000000)">
                    <g id="Oval">
                        <use fill="black" fill-opacity="1" filter="url(#filter-2)" xlink:href="#path-1"></use>
                        <use fill="#FFFFFF" fill-rule="evenodd" xlink:href="#path-1"></use>
                    </g>
                    <g id="chart-line-(2)" transform="translate(40.000000, 40.500000) scale(-1, 1) translate(-40.000000, -40.500000) translate(24.000000, 28.000000)" fill="#9DC2D4" fill-rule="nonzero">
                        <g id="users-alt-(1)">
                            <path d="M16.4363636,12.7941472 C18.0067625,11.4366265 18.9091136,9.46471753 18.9090909,7.39049341 C18.9090909,3.37926279 15.65298,0.127517891 11.6363636,0.127517891 C7.61974727,0.127517891 4.36363636,3.37926279 4.36363636,7.39049341 C4.36361367,9.46471753 5.26596481,11.4366265 6.83636364,12.7941472 C2.6777323,14.6747319 0.00437250924,18.8100433 0,23.3690395 C1.61486985e-16,24.1712857 0.651222182,24.8216347 1.45454545,24.8216347 C2.25786873,24.8216347 2.90909091,24.1712857 2.90909091,23.3690395 C2.90909091,18.5555628 6.816424,14.6534689 11.6363636,14.6534689 C16.4563033,14.6534689 20.3636364,18.5555628 20.3636364,23.3690395 C20.3636364,24.1712857 21.0148585,24.8216347 21.8181818,24.8216347 C22.6215051,24.8216347 23.2727273,24.1712857 23.2727273,23.3690395 C23.2683548,18.8100433 20.594995,14.6747319 16.4363636,12.7941472 Z M11.6363636,11.7482787 C9.22639382,11.7482787 7.27272727,9.79723178 7.27272727,7.39049341 C7.27272727,4.98375504 9.22639382,3.0327081 11.6363636,3.0327081 C14.0463335,3.0327081 16,4.98375504 16,7.39049341 C16,8.54624993 15.5402611,9.65466968 14.7219205,10.471913 C13.9035799,11.2891562 12.793672,11.7482787 11.6363636,11.7482787 Z M25.8036364,12.2131092 C27.7051024,10.0747334 28.1730287,7.02106803 26.9989308,4.41267329 C25.8248329,1.80427856 23.2272898,0.126753007 20.3636364,0.127517891 C19.5603131,0.127517891 18.9090909,0.777866871 18.9090909,1.58011299 C18.9090909,2.38235912 19.5603131,3.0327081 20.3636364,3.0327081 C22.7736062,3.0327081 24.7272727,4.98375504 24.7272727,7.39049341 C24.7230839,8.94318728 23.8919405,10.3763706 22.5454545,11.1527147 C22.1069206,11.4053311 21.8314579,11.867488 21.8181818,12.3728946 C21.805811,12.8742215 22.053247,13.3464651 22.4727273,13.6221264 L23.04,13.9998011 L23.2290909,14.1014828 C26.8088366,15.797077 29.0785956,19.4124882 29.0472727,23.3690395 C29.0472727,24.1712857 29.6984949,24.8216347 30.5018182,24.8216347 C31.3051415,24.8216347 31.9563636,24.1712857 31.9563636,23.3690395 C31.9805394,18.8366949 29.6523092,14.6152216 25.8036364,12.2131092 Z" id="Shape"></path>
                        </g>
                    </g>
                </g>
            </g>
        </g>
    </g>
</svg>