<svg width="378" height="331" viewBox="0 0 378 331" fill="none" xmlns="http://www.w3.org/2000/svg">
<g clip-path="url(#clip0)">
<path d="M135.455 202.501L137.88 198.274L147.012 203.501L144.588 207.728L135.455 202.501Z" fill="#00769D"/>
<path d="M134.955 201.382C134.955 200.284 135.716 198.948 136.673 198.393C137.619 197.839 138.402 198.285 138.402 199.382C138.402 200.48 137.64 201.816 136.684 202.371C135.727 202.925 134.955 202.479 134.955 201.382Z" fill="#00769D"/>
<path d="M160.645 189.211L112.46 161.751C110.699 160.73 110.916 158.958 112.949 157.785L140.673 141.789C142.706 140.615 145.783 140.485 147.544 141.506L195.729 168.966C197.491 169.988 197.273 171.759 195.24 172.933L167.516 188.929C165.483 190.102 162.406 190.233 160.645 189.211Z" fill="#F0EFEF"/>
<path d="M200.034 159.719V47.2811L155.306 35.5776L147.065 30.8289C145.174 29.7422 141.869 29.8726 139.694 31.1331L132.008 35.5668L108.154 35.5559L115.221 144.103C115.167 144.842 115.58 145.56 116.493 146.081L161.123 179.735C163.015 180.822 166.32 180.692 168.494 179.431L198.24 162.273C199.501 161.534 200.11 160.588 200.034 159.719Z" fill="#86D0DA"/>
<path d="M143.652 30.0901C142.272 30.1227 140.837 30.4704 139.695 31.1224L132.008 35.556L108.155 35.5452V148.287C108.101 149.026 108.514 149.743 109.427 150.265L161.124 179.725C162.037 180.246 163.266 180.485 164.549 180.453L165.081 67.0043L143.652 30.0901Z" fill="#DFFBFF"/>
<path d="M161.592 179.964C163.223 180.659 165.582 180.627 167.484 179.899V65.6677H161.592V179.964Z" fill="#86D0DA"/>
<path d="M161.123 67.026L109.427 37.5663C107.535 36.4797 107.774 34.5671 109.959 33.3066L139.705 16.1481C141.891 14.8875 145.185 14.7462 147.077 15.8438L198.773 45.3034C200.665 46.3901 200.426 48.3026 198.24 49.5632L168.495 66.7217C166.309 67.9823 163.015 68.1235 161.123 67.026Z" fill="#DFFBFF"/>
<path d="M198.241 47.4658L168.495 64.6243C166.31 65.8849 163.005 66.0261 161.124 64.9286L109.427 35.4689C109.003 35.2299 108.699 34.9365 108.481 34.6322C107.829 35.6754 108.122 36.8055 109.427 37.5553L161.124 67.015C163.016 68.1017 166.321 67.9713 168.495 66.7107L198.241 49.5522C199.937 48.5742 200.448 47.205 199.709 46.1292C199.415 46.6182 198.926 47.0746 198.241 47.4658Z" fill="#FAFDFF"/>
<path d="M162.58 55.0833L128.159 35.1429C127.279 34.6322 127.387 33.7411 128.409 33.1543L142.326 25.1238C143.348 24.537 144.891 24.4718 145.772 24.9825L180.193 44.9229C181.074 45.4337 180.965 46.3247 179.943 46.9115L166.027 54.9421C165.016 55.5289 163.472 55.5941 162.58 55.0833Z" fill="#FFC634"/>
<path d="M144 36.0449L142.01 34.893C141.89 34.8169 141.901 34.6974 142.043 34.6213L143.967 33.5129C144.108 33.426 144.326 33.426 144.445 33.4912L146.446 34.643C146.565 34.7083 146.554 34.8387 146.413 34.9147L144.489 36.0231C144.337 36.0992 144.13 36.1101 144 36.0449Z" fill="#DFFBFF"/>
<path d="M150.666 39.8702L148.676 38.7183C148.556 38.6422 148.567 38.5227 148.709 38.4466L150.633 37.3382C150.774 37.2513 150.992 37.2513 151.111 37.3165L153.101 38.4684C153.221 38.5336 153.21 38.664 153.068 38.74L151.144 39.8484C151.003 39.9354 150.785 39.9462 150.666 39.8702Z" fill="#DFFBFF"/>
<path d="M157.33 43.6951L155.34 42.5433C155.22 42.4672 155.231 42.3477 155.373 42.2716L157.297 41.1632C157.438 41.0762 157.656 41.0762 157.775 41.1414L159.765 42.2933C159.885 42.3585 159.874 42.4889 159.732 42.565L157.808 43.6734C157.667 43.7603 157.449 43.7712 157.33 43.6951Z" fill="#DFFBFF"/>
<path d="M163.993 47.5309L161.992 46.3791C161.873 46.303 161.884 46.1835 162.025 46.1074L163.949 44.999C164.091 44.9229 164.308 44.9121 164.428 44.9773L166.417 46.1291C166.537 46.1943 166.526 46.3247 166.385 46.4008L164.46 47.5092C164.33 47.5961 164.112 47.5961 163.993 47.5309Z" fill="#DFFBFF"/>
<path d="M128.17 35.1429L128.213 35.1646L128.42 35.0234L142.336 26.9929C143.358 26.4061 144.902 26.3409 145.782 26.8516L180.16 46.7703C180.975 46.1835 181.019 45.3902 180.203 44.9229L145.782 24.9825C144.902 24.4718 143.358 24.537 142.336 25.1238L128.42 33.1543C127.398 33.7411 127.278 34.6322 128.17 35.1429Z" fill="#86D0DA"/>
<path d="M174.3 89.3028L193.87 78.0993C194.968 77.469 195.859 75.7629 195.859 74.2959V67.2977C195.859 65.8307 194.968 65.157 193.87 65.7873L174.3 76.98C173.202 77.6103 172.311 79.3163 172.311 80.7833V87.7815C172.311 89.2594 173.202 89.944 174.3 89.3028Z" fill="#00769D"/>
<path d="M194.837 65.5916C195.142 65.885 195.337 66.374 195.337 67.0477V74.0459C195.337 75.5129 194.446 77.2189 193.348 77.8492L173.778 89.0528C173.419 89.2593 173.093 89.3136 172.811 89.2593C173.18 89.607 173.702 89.6505 174.3 89.3136L193.87 78.11C194.968 77.4797 195.859 75.7737 195.859 74.3067V67.3085C195.87 66.3088 195.446 65.6894 194.837 65.5916Z" fill="white"/>
<path d="M180.193 81.7069L181.987 80.6745C182.226 80.5333 182.421 80.1638 182.421 79.8487V77.9361C182.421 77.621 182.226 77.4689 181.987 77.6101L180.193 78.6425C179.954 78.7837 179.758 79.1532 179.758 79.4683V81.3809C179.758 81.696 179.954 81.8481 180.193 81.7069Z" fill="#86D0DA"/>
<path d="M186.195 78.2404L187.989 77.2081C188.228 77.0668 188.423 76.6974 188.423 76.3822V74.4697C188.423 74.1546 188.228 74.0024 187.989 74.1437L186.195 75.176C185.955 75.3173 185.76 75.6868 185.76 76.0019V77.9144C185.76 78.2296 185.955 78.3817 186.195 78.2404Z" fill="white"/>
<path d="M174.3 139.844L193.87 128.651C194.968 128.021 195.859 126.315 195.859 124.848V117.85C195.859 116.382 194.968 115.709 193.87 116.339L174.3 127.532C173.202 128.162 172.311 129.868 172.311 131.335V138.333C172.311 139.8 173.202 140.485 174.3 139.844Z" fill="#00769D"/>
<path d="M194.837 116.133C195.142 116.426 195.337 116.915 195.337 117.589V124.587C195.337 126.054 194.446 127.76 193.348 128.39L173.778 139.583C173.419 139.789 173.093 139.844 172.811 139.789C173.18 140.137 173.702 140.181 174.3 139.844L193.87 128.651C194.968 128.021 195.859 126.315 195.859 124.848V117.85C195.87 116.85 195.446 116.23 194.837 116.133Z" fill="white"/>
<path d="M180.193 132.248L181.987 131.215C182.226 131.074 182.421 130.705 182.421 130.39V128.477C182.421 128.151 182.226 128.01 181.987 128.151L180.193 129.183C179.954 129.325 179.758 129.694 179.758 130.009V131.922C179.758 132.237 179.954 132.389 180.193 132.248Z" fill="#86D0DA"/>
<path d="M186.195 128.782L187.989 127.749C188.228 127.608 188.423 127.239 188.423 126.923V125.011C188.423 124.696 188.228 124.544 187.989 124.685L186.195 125.717C185.955 125.858 185.76 126.228 185.76 126.543V128.456C185.76 128.771 185.955 128.923 186.195 128.782Z" fill="white"/>
<path d="M174.3 165.12L193.87 153.927C194.968 153.297 195.859 151.591 195.859 150.124V143.125C195.859 141.658 194.968 140.985 193.87 141.615L174.3 152.808C173.202 153.438 172.311 155.144 172.311 156.611V163.609C172.311 165.076 173.202 165.75 174.3 165.12Z" fill="#00769D"/>
<path d="M194.837 141.398C195.142 141.691 195.337 142.18 195.337 142.854V149.852C195.337 151.319 194.446 153.025 193.348 153.655L173.778 164.848C173.419 165.055 173.093 165.109 172.811 165.055C173.18 165.402 173.702 165.446 174.3 165.109L193.87 153.916C194.968 153.286 195.859 151.58 195.859 150.113V143.115C195.87 142.115 195.446 141.496 194.837 141.398Z" fill="white"/>
<path d="M180.193 157.513L181.987 156.481C182.226 156.339 182.421 155.97 182.421 155.655V153.742C182.421 153.427 182.226 153.275 181.987 153.416L180.193 154.449C179.954 154.59 179.758 154.959 179.758 155.274V157.187C179.758 157.513 179.954 157.654 180.193 157.513Z" fill="#86D0DA"/>
<path d="M186.195 154.057L187.989 153.025C188.228 152.884 188.423 152.514 188.423 152.199V150.287C188.423 149.972 188.228 149.819 187.989 149.961L186.195 150.993C185.955 151.134 185.76 151.504 185.76 151.819V153.731C185.76 154.047 185.955 154.188 186.195 154.057Z" fill="white"/>
<path d="M174.3 114.579L193.87 103.375C194.968 102.745 195.859 101.039 195.859 99.5718V92.5736C195.859 91.1066 194.968 90.4329 193.87 91.0632L174.3 102.267C173.202 102.897 172.311 104.603 172.311 106.07V113.068C172.311 114.535 173.202 115.209 174.3 114.579Z" fill="#00769D"/>
<path d="M194.837 90.8567C195.142 91.1501 195.337 91.6391 195.337 92.3128V99.311C195.337 100.778 194.446 102.484 193.348 103.114L173.778 114.307C173.419 114.514 173.093 114.568 172.811 114.514C173.18 114.861 173.702 114.905 174.3 114.568L193.87 103.364C194.968 102.734 195.859 101.028 195.859 99.5609V92.5628C195.87 91.5739 195.446 90.9654 194.837 90.8567Z" fill="white"/>
<path d="M180.193 106.972L181.987 105.94C182.226 105.799 182.421 105.429 182.421 105.114V103.202C182.421 102.886 182.226 102.734 181.987 102.876L180.193 103.908C179.954 104.049 179.758 104.419 179.758 104.734V106.646C179.758 106.972 179.954 107.113 180.193 106.972Z" fill="#86D0DA"/>
<path d="M186.195 103.516L187.989 102.484C188.228 102.343 188.423 101.973 188.423 101.658V99.7457C188.423 99.4306 188.228 99.2784 187.989 99.4197L186.195 100.452C185.955 100.593 185.76 100.963 185.76 101.278V103.19C185.76 103.506 185.955 103.647 186.195 103.516Z" fill="white"/>
<path d="M157.35 82.1417L112.209 56.0942C111.198 55.5074 110.383 53.9426 110.383 52.5951V43.9887C110.383 42.6412 111.198 42.0218 112.209 42.6086L157.35 68.6561C158.361 69.2429 159.177 70.8077 159.177 72.1443V80.7508C159.188 82.1091 158.361 82.7285 157.35 82.1417Z" fill="#86D0DA"/>
<path d="M156.427 79.2402C156.318 79.2402 156.188 79.2076 156.057 79.1315L113.504 54.5727C112.993 54.2793 112.58 53.4861 112.58 52.8014V46.3358C112.58 45.825 112.808 45.5208 113.145 45.5208C113.254 45.5208 113.385 45.5534 113.515 45.6294L156.068 70.1882C156.579 70.4816 156.992 71.2749 156.992 71.9595V78.4252C156.992 78.9359 156.764 79.2402 156.427 79.2402Z" fill="#DFFBFF"/>
<path d="M122.375 56.4201L116.025 52.758C115.525 52.4754 115.123 51.7039 115.123 51.041C115.123 50.3782 115.525 50.0739 116.025 50.3564L122.375 54.0185C122.875 54.3011 123.277 55.0726 123.277 55.7355C123.277 56.3983 122.875 56.7026 122.375 56.4201Z" fill="#DFFBFF"/>
<path d="M127.791 58.3435C127.791 59.0064 127.323 59.2781 126.747 58.9412C126.171 58.6043 125.703 57.8002 125.703 57.1373C125.703 56.4744 126.171 56.2028 126.747 56.5396C127.323 56.8656 127.791 57.6806 127.791 58.3435Z" fill="#00769D"/>
<path d="M131.464 60.4624C131.464 61.1253 130.997 61.3969 130.421 61.0601C129.844 60.7232 129.377 59.9191 129.377 59.2562C129.377 58.5933 129.844 58.3217 130.421 58.6585C130.997 58.9845 131.464 59.7995 131.464 60.4624Z" fill="#00769D"/>
<path d="M135.128 62.5814C135.128 63.2443 134.661 63.516 134.085 63.1791C133.509 62.8531 133.041 62.0381 133.041 61.3752C133.041 60.7123 133.509 60.4407 134.085 60.7775C134.661 61.1035 135.128 61.9185 135.128 62.5814Z" fill="#DFFBFF"/>
<path d="M138.804 64.7004C138.804 65.3633 138.337 65.635 137.761 65.2981C137.184 64.9612 136.717 64.1571 136.717 63.4942C136.717 62.8314 137.184 62.5597 137.761 62.8966C138.337 63.2226 138.804 64.0376 138.804 64.7004Z" fill="#00769D"/>
<path d="M154.275 75.5235L152.133 74.2847C151.818 74.1 151.557 73.611 151.557 73.1763V70.9161C151.557 70.4923 151.818 70.2967 152.133 70.4814L154.275 71.7202C154.59 71.9049 154.851 72.3939 154.851 72.8286V75.0889C154.851 75.5127 154.59 75.7083 154.275 75.5235Z" fill="#00769D"/>
<path d="M157.35 97.3115L112.209 71.264C111.198 70.6772 110.383 69.1124 110.383 67.7758V59.1694C110.383 57.8219 111.198 57.2025 112.209 57.7893L157.35 83.8368C158.361 84.4236 159.177 85.9884 159.177 87.3359V95.9423C159.188 97.2789 158.361 97.8983 157.35 97.3115Z" fill="#86D0DA"/>
<path d="M156.427 94.4102C156.318 94.4102 156.188 94.3776 156.057 94.3015L113.504 69.7428C112.993 69.4494 112.58 68.6561 112.58 67.9715V61.5058C112.58 60.9951 112.808 60.6908 113.135 60.6908C113.243 60.6908 113.374 60.7234 113.504 60.7995L156.057 85.3582C156.568 85.6516 156.982 86.4449 156.982 87.1295V93.5952C156.992 94.1059 156.764 94.4102 156.427 94.4102Z" fill="#DFFBFF"/>
<path d="M122.375 71.59L116.025 67.9279C115.525 67.6454 115.123 66.8738 115.123 66.211C115.123 65.5481 115.525 65.2438 116.025 65.5264L122.375 69.1884C122.875 69.471 123.277 70.2425 123.277 70.9054C123.277 71.5682 122.875 71.8834 122.375 71.59Z" fill="#DFFBFF"/>
<path d="M127.791 73.5134C127.791 74.1763 127.323 74.448 126.747 74.1111C126.171 73.7742 125.703 72.9701 125.703 72.3072C125.703 71.6443 126.171 71.3727 126.747 71.7095C127.323 72.0464 127.791 72.8506 127.791 73.5134Z" fill="white"/>
<path d="M131.464 75.6323C131.464 76.2952 130.997 76.5668 130.421 76.23C129.844 75.8931 129.377 75.089 129.377 74.4261C129.377 73.7632 129.844 73.4916 130.421 73.8284C130.997 74.1653 131.464 74.9694 131.464 75.6323Z" fill="#00769D"/>
<path d="M135.128 77.7513C135.128 78.4142 134.661 78.6859 134.085 78.349C133.509 78.0121 133.041 77.208 133.041 76.5451C133.041 75.8823 133.509 75.6106 134.085 75.9475C134.661 76.2843 135.128 77.0885 135.128 77.7513Z" fill="#DFFBFF"/>
<path d="M138.804 79.8705C138.804 80.5333 138.337 80.805 137.761 80.4681C137.184 80.1421 136.717 79.3271 136.717 78.6643C136.717 78.0014 137.184 77.7297 137.761 78.0666C138.337 78.4035 138.804 79.2076 138.804 79.8705Z" fill="#00769D"/>
<path d="M154.275 90.6936L152.133 89.4548C151.818 89.2701 151.557 88.7811 151.557 88.3464V86.0861C151.557 85.6623 151.818 85.4667 152.133 85.6514L154.275 86.8794C154.59 87.0641 154.851 87.564 154.851 87.9878V90.2481C154.851 90.6828 154.59 90.8784 154.275 90.6936Z" fill="#00769D"/>
<path d="M157.35 112.492L112.209 86.4447C111.198 85.8579 110.383 84.2931 110.383 82.9456V74.3392C110.383 72.9917 111.198 72.3723 112.209 72.9591L157.35 99.0066C158.361 99.5934 159.177 101.158 159.177 102.506V111.112C159.188 112.449 158.361 113.068 157.35 112.492Z" fill="#86D0DA"/>
<path d="M156.427 109.58C156.318 109.58 156.188 109.547 156.057 109.471L113.504 84.9126C112.993 84.6192 112.58 83.8259 112.58 83.1413V76.6756C112.58 76.1649 112.808 75.8606 113.135 75.8606C113.243 75.8606 113.374 75.8932 113.504 75.9693L156.057 100.528C156.568 100.821 156.982 101.615 156.982 102.299V108.765C156.992 109.276 156.764 109.58 156.427 109.58Z" fill="#DFFBFF"/>
<path d="M122.375 86.7598L116.025 83.0977C115.525 82.8043 115.123 82.0436 115.123 81.3808C115.123 80.7179 115.525 80.4136 116.025 80.6962L122.375 84.3582C122.875 84.6516 123.277 85.4123 123.277 86.0752C123.277 86.7489 122.875 87.0532 122.375 86.7598Z" fill="#DFFBFF"/>
<path d="M127.791 88.6834C127.791 89.3462 127.323 89.6179 126.747 89.281C126.171 88.9442 125.703 88.14 125.703 87.4771C125.703 86.8143 126.171 86.5426 126.747 86.8795C127.323 87.2163 127.791 88.0205 127.791 88.6834Z" fill="white"/>
<path d="M131.464 90.8025C131.464 91.4653 130.997 91.737 130.421 91.4001C129.844 91.0633 129.377 90.2591 129.377 89.5963C129.377 88.9334 129.844 88.6617 130.421 88.9986C130.997 89.3355 131.464 90.1396 131.464 90.8025Z" fill="#00769D"/>
<path d="M135.128 92.9213C135.128 93.5841 134.661 93.8558 134.085 93.5189C133.509 93.1821 133.041 92.3779 133.041 91.7151C133.041 91.0522 133.509 90.7805 134.085 91.1174C134.661 91.4543 135.128 92.2584 135.128 92.9213Z" fill="#DFFBFF"/>
<path d="M138.804 95.0404C138.804 95.7032 138.337 95.9749 137.761 95.638C137.184 95.3012 136.717 94.497 136.717 93.8342C136.717 93.1713 137.184 92.8997 137.761 93.2365C138.337 93.5734 138.804 94.3775 138.804 95.0404Z" fill="#00769D"/>
<path d="M154.275 105.875L152.133 104.636C151.818 104.451 151.557 103.962 151.557 103.527V101.267C151.557 100.843 151.818 100.648 152.133 100.832L154.275 102.071C154.59 102.256 154.851 102.745 154.851 103.18V105.44C154.851 105.864 154.59 106.048 154.275 105.875Z" fill="#00769D"/>
<path d="M157.35 127.662L112.209 101.615C111.198 101.028 110.383 99.4631 110.383 98.1156V89.5092C110.383 88.1617 111.198 87.5423 112.209 88.1291L157.35 114.177C158.361 114.763 159.177 116.328 159.177 117.676V126.282C159.188 127.63 158.361 128.249 157.35 127.662Z" fill="#86D0DA"/>
<path d="M156.427 124.761C156.318 124.761 156.188 124.728 156.057 124.652L113.504 100.093C112.993 99.7999 112.58 99.0067 112.58 98.3221V91.8564C112.58 91.3456 112.808 91.0414 113.145 91.0414C113.254 91.0414 113.385 91.074 113.515 91.15L156.068 115.709C156.579 116.002 156.992 116.795 156.992 117.48V123.946C156.992 124.456 156.764 124.761 156.427 124.761Z" fill="#DFFBFF"/>
<path d="M122.375 101.941L116.025 98.2787C115.525 97.9962 115.123 97.2247 115.123 96.5618C115.123 95.8989 115.525 95.5947 116.025 95.8772L122.375 99.5393C122.875 99.8218 123.277 100.593 123.277 101.256C123.277 101.919 122.875 102.223 122.375 101.941Z" fill="#DFFBFF"/>
<path d="M127.791 103.853C127.791 104.516 127.323 104.788 126.747 104.451C126.171 104.114 125.703 103.31 125.703 102.647C125.703 101.984 126.171 101.713 126.747 102.049C127.323 102.386 127.791 103.19 127.791 103.853Z" fill="#00769D"/>
<path d="M131.464 105.972C131.464 106.635 130.997 106.907 130.421 106.57C129.844 106.233 129.377 105.429 129.377 104.766C129.377 104.103 129.844 103.832 130.421 104.169C130.997 104.505 131.464 105.31 131.464 105.972Z" fill="#00769D"/>
<path d="M135.128 108.091C135.128 108.754 134.661 109.026 134.085 108.689C133.509 108.352 133.041 107.548 133.041 106.885C133.041 106.222 133.509 105.95 134.085 106.287C134.661 106.624 135.128 107.428 135.128 108.091Z" fill="#DFFBFF"/>
<path d="M138.804 110.21C138.804 110.873 138.337 111.145 137.761 110.808C137.184 110.471 136.717 109.667 136.717 109.004C136.717 108.341 137.184 108.069 137.761 108.406C138.337 108.743 138.804 109.547 138.804 110.21Z" fill="#00769D"/>
<path d="M154.275 121.044L152.133 119.806C151.818 119.621 151.557 119.132 151.557 118.697V116.437C151.557 116.013 151.818 115.818 152.133 116.002L154.275 117.241C154.59 117.426 154.851 117.915 154.851 118.349V120.61C154.851 121.034 154.59 121.229 154.275 121.044Z" fill="#DFFBFF"/>
<path d="M157.35 142.832L112.209 116.785C111.198 116.198 110.383 114.633 110.383 113.285V104.679C110.383 103.332 111.198 102.712 112.209 103.299L157.35 129.346C158.361 129.933 159.177 131.498 159.177 132.846V141.452C159.188 142.799 158.361 143.419 157.35 142.832Z" fill="#86D0DA"/>
<path d="M156.427 139.931C156.318 139.931 156.188 139.898 156.057 139.822L113.504 115.263C112.993 114.97 112.58 114.176 112.58 113.492V107.026C112.58 106.515 112.808 106.211 113.145 106.211C113.254 106.211 113.385 106.244 113.515 106.32L156.068 130.879C156.579 131.172 156.992 131.965 156.992 132.65V139.116C156.992 139.626 156.764 139.931 156.427 139.931Z" fill="#DFFBFF"/>
<path d="M122.375 117.111L116.025 113.449C115.525 113.166 115.123 112.395 115.123 111.732C115.123 111.069 115.525 110.765 116.025 111.047L122.375 114.709C122.875 114.992 123.277 115.763 123.277 116.426C123.277 117.089 122.875 117.393 122.375 117.111Z" fill="#DFFBFF"/>
<path d="M127.791 119.034C127.791 119.697 127.323 119.969 126.747 119.632C126.171 119.295 125.703 118.491 125.703 117.828C125.703 117.165 126.171 116.893 126.747 117.23C127.323 117.556 127.791 118.371 127.791 119.034Z" fill="#00769D"/>
<path d="M131.464 121.153C131.464 121.816 130.997 122.088 130.421 121.751C129.844 121.425 129.377 120.61 129.377 119.947C129.377 119.284 129.844 119.012 130.421 119.349C130.997 119.675 131.464 120.49 131.464 121.153Z" fill="white"/>
<path d="M135.128 123.272C135.128 123.935 134.661 124.207 134.085 123.87C133.509 123.533 133.041 122.729 133.041 122.066C133.041 121.403 133.509 121.131 134.085 121.468C134.661 121.794 135.128 122.609 135.128 123.272Z" fill="#DFFBFF"/>
<path d="M138.804 125.391C138.804 126.054 138.337 126.326 137.761 125.989C137.184 125.652 136.717 124.848 136.717 124.185C136.717 123.522 137.184 123.25 137.761 123.587C138.337 123.913 138.804 124.728 138.804 125.391Z" fill="white"/>
<path d="M154.275 136.214L152.133 134.976C151.818 134.791 151.557 134.302 151.557 133.867V131.607C151.557 131.183 151.818 130.987 152.133 131.172L154.275 132.411C154.59 132.596 154.851 133.085 154.851 133.519V135.78C154.851 136.203 154.59 136.399 154.275 136.214Z" fill="#DFFBFF"/>
<path d="M157.35 158.002L112.209 131.954C111.198 131.368 110.383 129.803 110.383 128.455V119.849C110.383 118.501 111.198 117.882 112.209 118.469L157.35 144.527C158.361 145.114 159.177 146.679 159.177 148.015V156.622C159.188 157.969 158.361 158.589 157.35 158.002Z" fill="#86D0DA"/>
<path d="M156.427 155.101C156.318 155.101 156.188 155.068 156.057 154.992L113.504 130.433C112.993 130.14 112.58 129.346 112.58 128.662V122.196C112.58 121.685 112.808 121.381 113.145 121.381C113.254 121.381 113.385 121.414 113.515 121.49L156.068 146.049C156.579 146.342 156.992 147.135 156.992 147.82V154.286C156.992 154.796 156.764 155.101 156.427 155.101Z" fill="#DFFBFF"/>
<path d="M122.375 132.281L116.025 128.619C115.525 128.325 115.123 127.564 115.123 126.902C115.123 126.239 115.525 125.934 116.025 126.217L122.375 129.879C122.875 130.162 123.277 130.933 123.277 131.596C123.277 132.259 122.875 132.563 122.375 132.281Z" fill="#DFFBFF"/>
<path d="M127.791 134.204C127.791 134.867 127.323 135.139 126.747 134.802C126.171 134.465 125.703 133.661 125.703 132.998C125.703 132.335 126.171 132.063 126.747 132.4C127.323 132.737 127.791 133.541 127.791 134.204Z" fill="#00769D"/>
<path d="M131.464 136.323C131.464 136.986 130.997 137.258 130.421 136.921C129.844 136.584 129.377 135.78 129.377 135.117C129.377 134.454 129.844 134.182 130.421 134.519C130.997 134.856 131.464 135.66 131.464 136.323Z" fill="#00769D"/>
<path d="M135.128 138.442C135.128 139.105 134.661 139.377 134.085 139.04C133.509 138.714 133.041 137.899 133.041 137.236C133.041 136.573 133.509 136.301 134.085 136.638C134.661 136.975 135.128 137.779 135.128 138.442Z" fill="#DFFBFF"/>
<path d="M138.804 140.561C138.804 141.224 138.337 141.496 137.761 141.159C137.184 140.822 136.717 140.018 136.717 139.355C136.717 138.692 137.184 138.42 137.761 138.757C138.337 139.094 138.804 139.898 138.804 140.561Z" fill="#00769D"/>
<path d="M154.275 151.384L152.133 150.145C151.818 149.961 151.557 149.472 151.557 149.037V146.777C151.557 146.353 151.818 146.157 152.133 146.342L154.275 147.581C154.59 147.766 154.851 148.255 154.851 148.689V150.95C154.851 151.373 154.59 151.569 154.275 151.384Z" fill="#00769D"/>
<path d="M157.35 173.183L112.209 147.135C111.198 146.549 110.383 144.984 110.383 143.636V135.03C110.383 133.682 111.198 133.063 112.209 133.65L157.35 159.697C158.361 160.284 159.177 161.849 159.177 163.196V171.803C159.188 173.139 158.361 173.759 157.35 173.183Z" fill="#86D0DA"/>
<path d="M156.427 170.27C156.318 170.27 156.188 170.238 156.057 170.162L113.504 145.603C112.993 145.31 112.58 144.516 112.58 143.832V137.366C112.58 136.855 112.808 136.551 113.135 136.551C113.243 136.551 113.374 136.584 113.504 136.66L156.057 161.218C156.568 161.512 156.982 162.305 156.982 162.99V169.455C156.992 169.966 156.764 170.27 156.427 170.27Z" fill="#DFFBFF"/>
<path d="M122.375 147.451L116.025 143.788C115.525 143.506 115.123 142.734 115.123 142.072C115.123 141.409 115.525 141.104 116.025 141.387L122.375 145.049C122.875 145.332 123.277 146.103 123.277 146.766C123.277 147.429 122.875 147.744 122.375 147.451Z" fill="#DFFBFF"/>
<path d="M128.953 150.2C128.953 151.45 128.073 151.96 126.985 151.33C125.898 150.7 125.018 149.178 125.018 147.929C125.018 146.679 125.898 146.168 126.985 146.799C128.073 147.418 128.953 148.939 128.953 150.2Z" fill="white"/>
<path d="M136.552 154.644C136.552 155.307 136.085 155.579 135.509 155.242C134.932 154.905 134.465 154.101 134.465 153.438C134.465 152.775 134.932 152.504 135.509 152.84C136.085 153.177 136.552 153.981 136.552 154.644Z" fill="#00769D"/>
<path d="M140.228 156.763C140.228 157.426 139.761 157.698 139.184 157.361C138.608 157.024 138.141 156.22 138.141 155.557C138.141 154.894 138.608 154.622 139.184 154.959C139.761 155.296 140.228 156.1 140.228 156.763Z" fill="#DFFBFF"/>
<path d="M143.892 158.882C143.892 159.545 143.425 159.817 142.848 159.48C142.272 159.143 141.805 158.339 141.805 157.676C141.805 157.013 142.272 156.742 142.848 157.078C143.435 157.415 143.892 158.219 143.892 158.882Z" fill="#00769D"/>
<path d="M154.275 166.565L152.133 165.326C151.818 165.141 151.557 164.652 151.557 164.218V161.957C151.557 161.534 151.818 161.338 152.133 161.523L154.275 162.751C154.59 162.935 154.851 163.424 154.851 163.859V166.119C154.851 166.543 154.59 166.739 154.275 166.565Z" fill="#DFFBFF"/>
<path d="M154.361 211.271C154.209 211.271 154.057 211.227 153.915 211.151L102.599 181.996C101.98 181.637 101.599 180.996 101.588 180.279C101.577 179.562 101.947 178.92 102.567 178.551L124.583 165.565C125.354 165.109 125.844 164.261 125.844 163.359V149.048C125.844 148.548 126.246 148.135 126.757 148.135C127.257 148.135 127.67 148.537 127.67 149.048V163.359C127.67 164.902 126.844 166.348 125.518 167.13L103.502 180.116L103.415 180.268L103.502 180.42L154.818 209.575C155.253 209.825 155.405 210.379 155.155 210.814C154.981 211.108 154.676 211.271 154.361 211.271Z" fill="#00769D"/>
<path d="M142.238 208.13L146.163 201.284L160.482 209.478L156.557 216.335L142.238 208.13Z" fill="#00769D"/>
<path d="M145.512 202.643L142.424 200.871C141.142 201.784 140.141 203.534 140 205.098L143.088 206.87C144.36 205.957 145.36 204.207 145.512 202.643Z" fill="#86D0DA"/>
<path d="M141.412 206.326C141.412 204.544 142.652 202.382 144.195 201.48C145.739 200.589 146.989 201.306 146.989 203.088C146.989 204.87 145.75 207.033 144.206 207.935C142.673 208.826 141.423 208.109 141.412 206.326Z" fill="#00769D"/>
<path d="M137.825 200.252C137.379 199.991 137.379 199.578 137.825 199.317C138.27 199.057 138.999 199.057 139.444 199.306C139.89 199.567 139.89 199.98 139.444 200.241C138.999 200.513 138.27 200.513 137.825 200.252Z" fill="#DFFBFF"/>
<path d="M309.364 126.803L309.114 126.771C308.527 126.64 308.168 126.054 308.298 125.467L318.899 79.4572C319.029 78.8704 319.616 78.5009 320.203 78.6422C320.79 78.7726 321.149 79.3594 321.019 79.9462L310.418 125.956C310.31 126.467 309.864 126.803 309.364 126.803Z" fill="#86D0DA"/>
<path d="M295.274 123.554L295.024 123.522C294.437 123.391 294.078 122.805 294.208 122.218L304.809 76.2082C304.939 75.6214 305.526 75.2519 306.113 75.3932C306.7 75.5236 307.059 76.1104 306.929 76.6972L296.328 122.707C296.209 123.218 295.763 123.554 295.274 123.554Z" fill="#86D0DA"/>
<path d="M281.174 120.316L280.924 120.295C280.337 120.164 279.978 119.577 280.109 118.991L290.709 72.9809C290.84 72.3941 291.427 72.0355 292.014 72.1659C292.601 72.2963 292.96 72.8831 292.829 73.4699L282.229 119.48C282.12 119.979 281.674 120.316 281.174 120.316Z" fill="#86D0DA"/>
<path d="M289.23 97.5505L283.555 96.2248L286.425 83.978L292.1 85.3146L289.23 97.5505Z" fill="#86D0DA"/>
<path d="M288.131 98.5177C286.87 98.898 285.076 98.4742 284.119 97.5723C283.162 96.6703 283.401 95.638 284.663 95.2577C285.924 94.8773 287.718 95.3011 288.674 96.1922C289.631 97.0941 289.392 98.1373 288.131 98.5177Z" fill="#86D0DA"/>
<path d="M293.361 87.8574L284.174 85.7058L288.675 66.5043L297.862 68.6667L293.361 87.8574Z" fill="#86D0DA"/>
<path d="M285.958 85.9991L284.99 90.1393C286.48 91.2912 288.817 91.8345 290.665 91.4651L291.633 87.3248C290.144 86.173 287.806 85.6296 285.958 85.9991Z" fill="#86D0DA"/>
<path d="M291.578 89.4222C289.534 90.0416 286.631 89.357 285.076 87.9008C283.521 86.4447 283.913 84.7604 285.957 84.1518C288.001 83.5324 290.904 84.217 292.458 85.6732C294.013 87.1293 293.622 88.8028 291.578 89.4222Z" fill="#86D0DA"/>
<path d="M285.849 95.6054C285.708 96.203 285.229 96.3443 284.783 95.9314C284.338 95.5184 284.088 94.6817 284.229 94.084C284.37 93.4864 284.849 93.3342 285.294 93.758C285.74 94.171 285.99 95.0077 285.849 95.6054Z" fill="#DFFBFF"/>
<path d="M302.298 105.331L296.623 103.995L299.504 91.7587L305.179 93.0844L302.298 105.331Z" fill="#86D0DA"/>
<path d="M301.199 106.298C299.938 106.678 298.144 106.255 297.187 105.364C296.231 104.462 296.47 103.429 297.731 103.049C298.992 102.669 300.786 103.092 301.743 103.983C302.699 104.875 302.46 105.918 301.199 106.298Z" fill="#86D0DA"/>
<path d="M306.43 95.638L297.232 93.4864L301.744 74.2849L310.931 76.4365L306.43 95.638Z" fill="#86D0DA"/>
<path d="M299.024 93.769L298.057 97.9092C299.546 99.0611 301.884 99.6044 303.732 99.2349L304.7 95.0947C303.21 93.9537 300.873 93.3995 299.024 93.769Z" fill="#86D0DA"/>
<path d="M304.646 97.2027C302.602 97.8221 299.699 97.1375 298.144 95.6814C296.59 94.2252 296.981 92.5409 299.025 91.9324C301.069 91.3129 303.972 91.9976 305.527 93.4537C307.081 94.9098 306.69 96.5833 304.646 97.2027Z" fill="#86D0DA"/>
<path d="M298.917 103.386C298.776 103.984 298.298 104.125 297.852 103.712C297.406 103.288 297.156 102.462 297.297 101.865C297.439 101.267 297.917 101.126 298.363 101.539C298.809 101.952 299.059 102.777 298.917 103.386Z" fill="#DFFBFF"/>
<path d="M315.519 113.046L309.844 111.721L312.714 99.4739L318.389 100.81L315.519 113.046Z" fill="#86D0DA"/>
<path d="M314.42 114.014C313.159 114.394 311.365 113.97 310.408 113.068C309.451 112.166 309.69 111.134 310.952 110.754C312.213 110.373 314.007 110.797 314.963 111.699C315.92 112.59 315.67 113.633 314.42 114.014Z" fill="#86D0DA"/>
<path d="M319.649 103.353L310.451 101.202L314.952 82.0002L324.15 84.1627L319.649 103.353Z" fill="#86D0DA"/>
<path d="M312.235 101.495L311.268 105.635C312.757 106.787 315.095 107.341 316.943 106.961L317.911 102.821C316.432 101.669 314.083 101.125 312.235 101.495Z" fill="#86D0DA"/>
<path d="M317.857 104.918C315.813 105.538 312.91 104.853 311.355 103.397C309.801 101.941 310.192 100.256 312.236 99.6478C314.28 99.0284 317.183 99.713 318.738 101.169C320.292 102.625 319.901 104.299 317.857 104.918Z" fill="#86D0DA"/>
<path d="M312.138 111.101C311.997 111.699 311.518 111.84 311.073 111.427C310.627 111.003 310.377 110.177 310.518 109.58C310.659 108.982 311.138 108.841 311.584 109.254C312.029 109.677 312.279 110.503 312.138 111.101Z" fill="#DFFBFF"/>
<path d="M222.856 329.609L96.588 256.748C93.0111 254.683 93.4677 251.086 97.5882 248.706L183.565 199.111C187.685 196.731 193.926 196.47 197.503 198.535L323.771 271.396C327.348 273.461 326.891 277.058 322.77 279.437L236.794 329.033C232.674 331.413 226.433 331.674 222.856 329.609Z" fill="#F0EFEF"/>
<path d="M353.353 142.31L227.073 69.4491C225.606 68.6015 224.116 68.4711 222.79 68.9275L222.801 68.9166L222.572 69.0035L222.518 69.0253L217.952 70.7748L222.051 72.7743L221.996 73.0025L201.426 166.576C200.393 171.259 202.459 176.725 206.025 178.79L329.26 249.902L328.825 255.118L333.815 253.183C335.49 252.401 336.827 250.63 337.392 248.109L357.962 154.535C358.984 149.841 356.919 144.375 353.353 142.31Z" fill="#00769D"/>
<path d="M353.353 142.31L227.074 69.4491C225.606 68.6015 224.117 68.4711 222.791 68.9275L222.801 68.9166L222.573 69.0035L222.519 69.0253L217.953 70.7748L222.051 72.7743L221.997 73.0025L208.439 134.671L270.225 182.778L357.343 147.353C356.506 145.168 355.114 143.332 353.353 142.31Z" fill="#86D0DA"/>
<path d="M348.591 156.698L358.202 152.612C358.376 148.896 356.843 145.049 354.31 142.995L339.1 149.396L348.591 156.698Z" fill="#00769D"/>
<path d="M324.444 254.607L198.176 181.735C194.61 179.67 192.544 174.204 193.577 169.521L214.147 75.9474C215.179 71.2639 218.909 69.134 222.475 71.1987L348.743 144.06C352.309 146.125 354.375 151.591 353.342 156.274L332.772 249.847C331.739 254.553 328.01 256.672 324.444 254.607Z" fill="#DFFBFF"/>
<path d="M321.704 247.652L202.948 179.159C199.676 177.269 197.795 172.27 198.73 167.988L217.55 82.3587C218.495 78.0772 221.909 76.132 225.171 78.012L343.927 146.505C347.199 148.396 349.08 153.394 348.145 157.676L329.325 243.306C328.379 247.598 324.966 249.532 321.704 247.652Z" fill="white"/>
<path d="M321.704 247.652L202.948 179.159C199.676 177.269 197.795 172.27 198.73 167.988L217.55 82.3587C218.495 78.0772 221.909 76.132 225.171 78.012L343.927 146.505C347.199 148.396 349.08 153.394 348.145 157.676L329.325 243.306C328.379 247.598 324.966 249.532 321.704 247.652Z" fill="#00769D"/>
<path d="M326.185 257.78L308.92 255.498L197.503 191.2C193.937 189.135 187.696 189.396 183.565 191.776L104.623 237.329L94.1855 235.949V241.871H94.1964C94.1312 243.241 94.9031 244.555 96.5883 245.533L222.856 318.395C226.433 320.459 232.663 320.199 236.794 317.819L322.771 268.223C325.086 266.887 326.25 265.159 326.185 263.54V257.78Z" fill="#00769D"/>
<path d="M242.47 217.16L234.555 212.596H147.524L104.623 237.329L94.1855 235.949V241.871H94.1964C94.1312 243.24 94.9031 244.555 96.5883 245.533L222.856 318.394C224.748 319.481 227.379 319.916 230.054 319.742L242.47 217.16Z" fill="#86D0DA"/>
<path d="M98.8171 236.568L94.1855 235.96V241.882H94.1964C94.1312 243.251 94.9031 244.566 96.5883 245.544L98.8171 246.826V236.568Z" fill="#86D0DA"/>
<path d="M224.127 318.992C227.508 320.275 232.357 319.992 235.967 318.264V305.061H224.127V318.992Z" fill="#00769D"/>
<path d="M222.856 312.483L96.588 239.622C93.0111 237.557 93.4677 233.96 97.5882 231.58L183.565 181.985C187.685 179.605 193.926 179.344 197.503 181.409L323.771 254.27C327.348 256.335 326.891 259.931 322.77 262.311L236.794 311.907C232.674 314.287 226.433 314.548 222.856 312.483Z" fill="#DFFBFF"/>
<path d="M322.77 260.149L236.794 309.745C232.673 312.125 226.433 312.385 222.856 310.321L96.5876 237.459C95.4135 236.786 94.685 235.938 94.3698 235.036C93.8044 236.72 94.522 238.427 96.5876 239.622L222.856 312.483C226.433 314.548 232.662 314.287 236.794 311.907L322.77 262.312C325.543 260.714 326.641 258.563 325.988 256.693C325.586 257.921 324.51 259.138 322.77 260.149Z" fill="white"/>
<path d="M150.296 215.498L144.588 212.205C144.132 211.944 144.186 211.477 144.719 211.173L151.459 207.283C151.992 206.978 152.786 206.946 153.253 207.207L158.961 210.499C159.418 210.76 159.363 211.227 158.831 211.532L152.09 215.422C151.557 215.726 150.753 215.759 150.296 215.498Z" fill="#00769D"/>
<path d="M159.114 220.583L153.395 217.28C152.938 217.019 152.993 216.552 153.525 216.248L160.266 212.357C160.799 212.053 161.592 212.02 162.06 212.281L167.779 215.574C168.235 215.835 168.181 216.302 167.648 216.606L160.908 220.497C160.375 220.823 159.57 220.855 159.114 220.583Z" fill="#00769D"/>
<path d="M167.94 225.68L162.221 222.387C161.764 222.127 161.819 221.659 162.352 221.355L169.092 217.465C169.625 217.161 170.43 217.128 170.886 217.389L176.605 220.681C177.061 220.942 177.007 221.409 176.474 221.714L169.734 225.604C169.201 225.908 168.396 225.941 167.94 225.68Z" fill="#00769D"/>
<path d="M180.14 221.474L174.432 218.182C173.975 217.921 174.03 217.454 174.563 217.149L180.227 213.878C180.76 213.574 181.553 213.541 182.021 213.802L187.729 217.095C188.185 217.356 188.131 217.823 187.598 218.127L181.934 221.398C181.401 221.702 180.597 221.735 180.14 221.474Z" fill="#00769D"/>
<path d="M188.967 226.571L183.248 223.268C182.792 223.007 182.846 222.539 183.379 222.235L189.043 218.964C189.576 218.66 190.37 218.627 190.837 218.888L196.556 222.181C197.013 222.442 196.958 222.909 196.425 223.213L190.761 226.484C190.217 226.799 189.424 226.832 188.967 226.571Z" fill="#00769D"/>
<path d="M197.784 231.656L192.065 228.364C191.608 228.103 191.663 227.636 192.195 227.331L197.86 224.06C198.392 223.756 199.197 223.724 199.654 223.984L205.372 227.277C205.829 227.538 205.775 228.005 205.242 228.309L199.577 231.58C199.045 231.884 198.24 231.917 197.784 231.656Z" fill="#00769D"/>
<path d="M206.614 236.753L200.895 233.45C200.438 233.189 200.493 232.722 201.025 232.417L206.69 229.146C207.223 228.842 208.027 228.81 208.484 229.07L214.202 232.363C214.659 232.624 214.605 233.091 214.072 233.395L208.408 236.666C207.875 236.981 207.07 237.014 206.614 236.753Z" fill="#00769D"/>
<path d="M215.43 241.839L209.711 238.546C209.255 238.285 209.309 237.818 209.842 237.514L215.506 234.243C216.039 233.939 216.833 233.906 217.3 234.167L223.008 237.459C223.464 237.72 223.41 238.187 222.877 238.492L217.213 241.763C216.691 242.067 215.887 242.099 215.43 241.839Z" fill="#00769D"/>
<path d="M224.258 246.935L218.539 243.642C218.083 243.382 218.137 242.914 218.67 242.61L224.334 239.339C224.867 239.035 225.661 239.002 226.128 239.263L231.847 242.556C232.304 242.817 232.249 243.284 231.716 243.588L226.052 246.859C225.519 247.163 224.715 247.196 224.258 246.935Z" fill="#00769D"/>
<path d="M233.075 252.021L227.356 248.728C226.899 248.467 226.954 248 227.486 247.696L233.151 244.425C233.683 244.121 234.488 244.088 234.945 244.349L240.663 247.642C241.12 247.902 241.066 248.37 240.533 248.674L234.868 251.945C234.336 252.249 233.531 252.282 233.075 252.021Z" fill="#00769D"/>
<path d="M241.903 257.118L236.184 253.825C235.727 253.564 235.782 253.097 236.314 252.793L241.979 249.522C242.512 249.217 243.316 249.185 243.773 249.446L249.491 252.738C249.948 253.01 249.894 253.466 249.361 253.771L243.697 257.041C243.164 257.346 242.359 257.378 241.903 257.118Z" fill="#00769D"/>
<path d="M250.721 262.203L245.002 258.91C244.546 258.649 244.6 258.182 245.133 257.878L250.797 254.607C251.33 254.303 252.124 254.27 252.591 254.531L258.299 257.824C258.756 258.084 258.701 258.552 258.168 258.856L252.504 262.127C251.982 262.442 251.189 262.475 250.721 262.203Z" fill="#00769D"/>
<path d="M259.549 267.299L253.83 264.007C253.374 263.746 253.428 263.278 253.961 262.974L259.625 259.703C260.158 259.399 260.952 259.366 261.419 259.627L267.138 262.931C267.595 263.192 267.54 263.659 267.007 263.963L261.343 267.234C260.81 267.527 260.006 267.56 259.549 267.299Z" fill="#00769D"/>
<path d="M193.142 219.062L187.434 215.769C186.977 215.509 187.032 215.041 187.564 214.737L193.229 211.466C193.762 211.162 194.555 211.129 195.023 211.39L200.731 214.683C201.187 214.944 201.133 215.411 200.6 215.715L194.936 218.986C194.403 219.29 193.598 219.323 193.142 219.062Z" fill="#86D0DA"/>
<path d="M184.184 213.9L178.465 210.608C178.009 210.347 178.063 209.88 178.596 209.576L184.26 206.305C184.793 206 185.586 205.968 186.054 206.229L191.773 209.521C192.229 209.782 192.175 210.249 191.642 210.554L185.978 213.824C185.445 214.129 184.641 214.161 184.184 213.9Z" fill="#86D0DA"/>
<path d="M175.214 208.717L162.907 201.61C162.45 201.349 162.504 200.882 163.037 200.578L168.701 197.307C169.234 197.003 170.028 196.97 170.495 197.231L182.803 204.327C183.259 204.588 183.205 205.055 182.672 205.359L177.008 208.63C176.475 208.956 175.67 208.989 175.214 208.717Z" fill="#00769D"/>
<path d="M181.488 202.425L171.497 196.666C171.04 196.405 171.094 195.938 171.627 195.633L177.291 192.362C177.824 192.058 178.618 192.026 179.085 192.286L189.066 198.046C189.522 198.307 189.468 198.774 188.935 199.078L183.271 202.349C182.749 202.653 181.945 202.686 181.488 202.425Z" fill="#00769D"/>
<path d="M201.959 224.159L196.241 220.866C195.784 220.594 195.838 220.138 196.371 219.834L202.035 216.563C202.568 216.258 203.362 216.226 203.818 216.487L209.537 219.779C209.994 220.04 209.939 220.507 209.407 220.812L203.742 224.082C203.221 224.387 202.427 224.419 201.959 224.159Z" fill="#86D0DA"/>
<path d="M210.787 229.244L205.069 225.952C204.612 225.691 204.667 225.224 205.199 224.919L210.864 221.648C211.396 221.344 212.19 221.312 212.657 221.572L218.376 224.865C218.833 225.126 218.778 225.593 218.246 225.897L212.581 229.168C212.049 229.472 211.244 229.516 210.787 229.244Z" fill="#00769D"/>
<path d="M219.605 234.34L213.897 231.048C213.44 230.787 213.495 230.32 214.027 230.015L219.692 226.745C220.224 226.44 221.018 226.408 221.486 226.668L227.204 229.961C227.661 230.222 227.607 230.689 227.074 230.993L221.409 234.264C220.866 234.569 220.072 234.601 219.605 234.34Z" fill="#00769D"/>
<path d="M228.434 239.426L222.715 236.134C222.259 235.873 222.313 235.406 222.846 235.101L228.51 231.83C229.043 231.526 229.836 231.494 230.304 231.754L236.012 235.047C236.468 235.308 236.414 235.775 235.881 236.079L230.217 239.35C229.695 239.665 228.891 239.698 228.434 239.426Z" fill="#00769D"/>
<path d="M237.25 244.523L231.532 241.23C231.075 240.969 231.129 240.502 231.662 240.198L237.326 236.927C237.859 236.622 238.653 236.59 239.109 236.851L244.828 240.143C245.285 240.404 245.23 240.871 244.698 241.176L239.033 244.446C238.512 244.751 237.718 244.783 237.25 244.523Z" fill="#00769D"/>
<path d="M246.079 249.609L240.36 246.316C239.903 246.055 239.958 245.588 240.49 245.284L246.155 242.013C246.687 241.708 247.481 241.676 247.949 241.937L253.656 245.229C254.113 245.49 254.059 245.957 253.526 246.262L247.862 249.532C247.34 249.848 246.535 249.88 246.079 249.609Z" fill="#00769D"/>
<path d="M254.896 254.705L249.188 251.412C248.731 251.151 248.786 250.684 249.318 250.38L254.983 247.109C255.515 246.805 256.309 246.772 256.777 247.033L262.495 250.336C262.952 250.597 262.898 251.064 262.365 251.369L256.7 254.639C256.157 254.933 255.363 254.965 254.896 254.705Z" fill="#00769D"/>
<path d="M263.723 259.79L258.004 256.487C257.548 256.226 257.602 255.759 258.135 255.455L263.799 252.184C264.332 251.88 265.126 251.847 265.593 252.108L271.301 255.4C271.757 255.661 271.703 256.128 271.17 256.433L265.506 259.704C264.984 260.03 264.18 260.062 263.723 259.79Z" fill="#00769D"/>
<path d="M272.551 264.887L266.832 261.594C266.376 261.333 266.43 260.866 266.963 260.562L272.627 257.291C273.16 256.987 273.954 256.954 274.41 257.215L280.129 260.508C280.586 260.768 280.531 261.236 279.998 261.54L274.334 264.811C273.801 265.115 273.008 265.148 272.551 264.887Z" fill="#00769D"/>
<path d="M288.229 273.939L275.758 266.745C275.302 266.484 275.356 266.017 275.889 265.713L281.553 262.442C282.086 262.138 282.879 262.105 283.347 262.366L295.817 269.56C296.274 269.821 296.22 270.288 295.687 270.592L290.022 273.863C289.49 274.167 288.685 274.2 288.229 273.939Z" fill="#00769D"/>
<path d="M305.407 264.029L294.883 257.954C294.427 257.693 294.481 257.226 295.014 256.922L300.678 253.651C301.211 253.347 302.004 253.314 302.472 253.575L312.996 259.649C313.453 259.91 313.398 260.378 312.866 260.682L307.201 263.953C306.669 264.257 305.864 264.29 305.407 264.029Z" fill="#00769D"/>
<path d="M217.42 223.159L211.702 219.866C211.245 219.606 211.299 219.138 211.832 218.834L217.496 215.563C218.029 215.259 218.834 215.226 219.29 215.487L224.998 218.78C225.455 219.051 225.4 219.508 224.868 219.812L219.203 223.072C218.671 223.387 217.877 223.42 217.42 223.159Z" fill="#00769D"/>
<path d="M208.374 217.943L202.666 214.65C202.21 214.389 202.264 213.922 202.797 213.618L208.461 210.347C208.994 210.043 209.788 210.01 210.244 210.271L215.963 213.563C216.42 213.824 216.365 214.291 215.833 214.596L210.168 217.867C209.635 218.171 208.831 218.204 208.374 217.943Z" fill="#00769D"/>
<path d="M199.328 212.727L193.61 209.434C193.153 209.173 193.208 208.706 193.74 208.402L199.405 205.131C199.937 204.827 200.731 204.794 201.198 205.055L206.917 208.347C207.374 208.608 207.319 209.075 206.787 209.38L201.122 212.651C200.59 212.955 199.785 212.987 199.328 212.727Z" fill="#86D0DA"/>
<path d="M190.282 207.5L184.575 204.207C184.118 203.946 184.172 203.479 184.705 203.175L190.369 199.904C190.902 199.6 191.696 199.567 192.163 199.828L197.882 203.121C198.339 203.381 198.284 203.849 197.752 204.153L192.087 207.424C191.544 207.739 190.75 207.771 190.282 207.5Z" fill="#00769D"/>
<path d="M226.237 228.255L220.518 224.963C220.061 224.702 220.116 224.235 220.648 223.93L226.313 220.659C226.846 220.355 227.639 220.322 228.107 220.583L233.815 223.876C234.271 224.137 234.217 224.604 233.684 224.908L228.02 228.179C227.498 228.483 226.693 228.516 226.237 228.255Z" fill="#00769D"/>
<path d="M235.065 233.341L229.346 230.048C228.889 229.787 228.944 229.32 229.477 229.016L235.141 225.745C235.674 225.441 236.478 225.408 236.935 225.669L242.654 228.962C243.11 229.222 243.056 229.69 242.523 229.994L236.859 233.265C236.315 233.569 235.521 233.602 235.065 233.341Z" fill="#00769D"/>
<path d="M243.881 238.437L238.163 235.145C237.706 234.884 237.76 234.417 238.293 234.112L243.957 230.841C244.49 230.537 245.284 230.505 245.751 230.765L251.47 234.058C251.927 234.319 251.872 234.786 251.339 235.09L245.675 238.361C245.142 238.666 244.338 238.698 243.881 238.437Z" fill="#00769D"/>
<path d="M252.711 243.523L246.993 240.23C246.536 239.97 246.59 239.502 247.123 239.198L252.787 235.927C253.32 235.623 254.114 235.59 254.581 235.851L260.289 239.155C260.746 239.415 260.691 239.883 260.159 240.187L254.494 243.458C253.962 243.751 253.168 243.784 252.711 243.523Z" fill="#00769D"/>
<path d="M261.528 248.62L255.809 245.316C255.352 245.055 255.407 244.588 255.939 244.284L261.604 241.013C262.137 240.709 262.941 240.676 263.398 240.937L269.106 244.229C269.562 244.49 269.508 244.957 268.975 245.262L263.311 248.533C262.789 248.848 261.984 248.88 261.528 248.62Z" fill="#00769D"/>
<path d="M270.356 253.705L264.637 250.413C264.181 250.152 264.235 249.684 264.768 249.38L270.432 246.109C270.965 245.805 271.769 245.772 272.226 246.033L277.945 249.337C278.401 249.598 278.347 250.065 277.814 250.369L272.15 253.64C271.606 253.944 270.812 253.977 270.356 253.705Z" fill="#00769D"/>
<path d="M279.172 258.802L273.454 255.509C272.997 255.248 273.051 254.781 273.584 254.477L279.248 251.206C279.781 250.902 280.575 250.869 281.042 251.13L286.761 254.423C287.218 254.683 287.163 255.151 286.63 255.455L280.966 258.726C280.433 259.03 279.629 259.063 279.172 258.802Z" fill="#00769D"/>
<path d="M288.001 263.887L282.293 260.595C281.837 260.334 281.891 259.867 282.424 259.562L288.088 256.291C288.621 255.987 289.415 255.955 289.882 256.215L295.601 259.508C296.058 259.769 296.003 260.236 295.47 260.54L289.806 263.811C289.262 264.126 288.458 264.159 288.001 263.887Z" fill="#00769D"/>
<path d="M296.819 268.984L291.1 265.691C290.643 265.43 290.698 264.963 291.23 264.659L296.895 261.388C297.428 261.084 298.232 261.051 298.689 261.312L304.397 264.604C304.853 264.865 304.799 265.333 304.266 265.637L298.602 268.897C298.08 269.212 297.275 269.245 296.819 268.984Z" fill="#00769D"/>
<path d="M212.766 210.564L207.047 207.271C206.591 207.011 206.645 206.543 207.178 206.239L212.842 202.968C213.375 202.664 214.169 202.631 214.636 202.892L220.355 206.185C220.811 206.446 220.757 206.913 220.224 207.217L214.56 210.488C214.027 210.792 213.223 210.825 212.766 210.564Z" fill="#00769D"/>
<path d="M203.993 205.5L198.274 202.208C197.817 201.947 197.872 201.48 198.404 201.176L204.069 197.905C204.601 197.6 205.395 197.568 205.863 197.829L211.581 201.121C212.038 201.382 211.984 201.849 211.451 202.154L205.786 205.414C205.254 205.729 204.449 205.761 203.993 205.5Z" fill="#00769D"/>
<path d="M195.207 200.437L189.489 197.144C189.032 196.883 189.086 196.416 189.619 196.112L195.284 192.841C195.816 192.536 196.61 192.504 197.077 192.765L202.785 196.057C203.242 196.318 203.187 196.785 202.655 197.09L196.99 200.361C196.469 200.665 195.664 200.697 195.207 200.437Z" fill="#00769D"/>
<path d="M186.434 195.373L180.715 192.069C180.259 191.808 180.313 191.341 180.846 191.037L186.51 187.766C187.043 187.462 187.836 187.429 188.293 187.69L194.012 190.983C194.468 191.243 194.414 191.711 193.881 192.015L188.217 195.286C187.695 195.601 186.891 195.634 186.434 195.373Z" fill="#00769D"/>
<path d="M195.457 190.157L189.739 186.864C189.282 186.603 189.336 186.136 189.869 185.832L191.739 184.756C192.272 184.452 193.076 184.419 193.533 184.68L199.252 187.972C199.708 188.233 199.654 188.7 199.121 189.005L197.251 190.08C196.719 190.385 195.914 190.417 195.457 190.157Z" fill="#00769D"/>
<path d="M206.916 196.774L201.198 193.471C200.741 193.21 200.795 192.743 201.328 192.439L203.198 191.363C203.731 191.058 204.525 191.026 204.992 191.287L210.7 194.579C211.156 194.84 211.102 195.307 210.569 195.612L208.699 196.687C208.178 197.003 207.373 197.035 206.916 196.774Z" fill="#00769D"/>
<path d="M215.659 201.817L209.94 198.524C209.483 198.263 209.538 197.796 210.07 197.492L211.94 196.416C212.473 196.112 213.267 196.079 213.734 196.34L219.453 199.633C219.91 199.893 219.855 200.361 219.322 200.665L217.452 201.741C216.92 202.045 216.115 202.078 215.659 201.817Z" fill="#00769D"/>
<path d="M224.399 206.859L218.68 203.566C218.223 203.305 218.278 202.838 218.811 202.534L220.681 201.458C221.213 201.154 222.018 201.121 222.474 201.382L228.193 204.674C228.65 204.935 228.595 205.403 228.063 205.707L226.193 206.783C225.66 207.087 224.855 207.119 224.399 206.859Z" fill="#00769D"/>
<path d="M233.14 211.901L227.432 208.608C226.975 208.347 227.03 207.88 227.563 207.576L229.433 206.5C229.965 206.196 230.759 206.163 231.226 206.424L236.934 209.716C237.391 209.977 237.336 210.445 236.804 210.749L234.934 211.825C234.401 212.14 233.596 212.172 233.14 211.901Z" fill="#00769D"/>
<path d="M281.946 240.067L276.227 236.775C275.77 236.514 275.825 236.047 276.357 235.742L278.227 234.666C278.76 234.362 279.554 234.33 280.021 234.59L285.74 237.883C286.197 238.144 286.142 238.611 285.61 238.915L283.74 239.991C283.207 240.295 282.413 240.328 281.946 240.067Z" fill="#00769D"/>
<path d="M290.697 245.11L284.989 241.817C284.532 241.556 284.586 241.089 285.119 240.785L286.989 239.709C287.522 239.405 288.316 239.372 288.772 239.633L294.491 242.925C294.947 243.186 294.893 243.654 294.36 243.958L292.49 245.034C291.958 245.349 291.153 245.381 290.697 245.11Z" fill="#00769D"/>
<path d="M299.438 250.162L293.719 246.87C293.263 246.609 293.317 246.142 293.85 245.837L295.72 244.762C296.252 244.457 297.046 244.425 297.514 244.686L303.232 247.978C303.689 248.239 303.634 248.706 303.102 249.011L301.232 250.086C300.699 250.391 299.895 250.423 299.438 250.162Z" fill="#00769D"/>
<path d="M308.18 255.205L302.461 251.912C302.005 251.651 302.059 251.184 302.592 250.88L304.462 249.804C304.995 249.5 305.788 249.467 306.256 249.728L311.974 253.02C312.431 253.281 312.377 253.748 311.844 254.053L309.974 255.129C309.441 255.433 308.637 255.465 308.18 255.205Z" fill="#00769D"/>
<path d="M221.595 215.661L215.887 212.368C215.431 212.107 215.485 211.64 216.018 211.336L221.682 208.065C222.215 207.761 223.008 207.728 223.465 207.989L229.184 211.281C229.64 211.542 229.586 212.009 229.053 212.314L223.389 215.585C222.856 215.889 222.052 215.922 221.595 215.661Z" fill="#00769D"/>
<path d="M230.412 220.746L224.694 217.454C224.237 217.193 224.292 216.726 224.824 216.421L230.489 213.151C231.021 212.846 231.815 212.814 232.282 213.075L238.001 216.378C238.458 216.639 238.403 217.106 237.871 217.41L232.206 220.681C231.674 220.985 230.869 221.018 230.412 220.746Z" fill="#00769D"/>
<path d="M239.239 225.843L233.52 222.539C233.063 222.279 233.118 221.811 233.65 221.507L239.315 218.236C239.848 217.932 240.641 217.899 241.109 218.16L246.827 221.453C247.284 221.714 247.23 222.181 246.697 222.485L241.033 225.756C240.5 226.071 239.695 226.104 239.239 225.843Z" fill="#00769D"/>
<path d="M248.057 230.928L242.338 227.636C241.882 227.375 241.936 226.908 242.469 226.603L248.133 223.332C248.666 223.028 249.46 222.996 249.927 223.256L255.635 226.549C256.092 226.81 256.037 227.277 255.504 227.581L249.84 230.852C249.318 231.167 248.514 231.2 248.057 230.928Z" fill="#00769D"/>
<path d="M256.885 236.025L251.166 232.721C250.71 232.461 250.764 231.993 251.297 231.689L256.961 228.418C257.494 228.114 258.288 228.081 258.744 228.342L264.463 231.635C264.92 231.895 264.865 232.363 264.332 232.667L258.668 235.938C258.146 236.253 257.342 236.286 256.885 236.025Z" fill="#00769D"/>
<path d="M265.702 241.11L259.995 237.818C259.538 237.557 259.592 237.09 260.125 236.785L265.789 233.515C266.322 233.21 267.116 233.178 267.583 233.439L273.302 236.731C273.758 236.992 273.704 237.459 273.171 237.763L267.507 241.034C266.964 241.349 266.17 241.382 265.702 241.11Z" fill="#00769D"/>
<path d="M274.53 246.207L268.811 242.915C268.354 242.654 268.409 242.187 268.941 241.882L274.606 238.622C275.139 238.318 275.932 238.285 276.4 238.546L282.108 241.839C282.564 242.1 282.51 242.567 281.977 242.871L276.313 246.142C275.791 246.435 274.986 246.468 274.53 246.207Z" fill="#00769D"/>
<path d="M283.348 251.293L277.629 248C277.173 247.739 277.227 247.272 277.76 246.968L283.424 243.697C283.957 243.393 284.75 243.36 285.218 243.621L290.926 246.913C291.382 247.174 291.328 247.642 290.795 247.946L285.131 251.217C284.609 251.532 283.815 251.564 283.348 251.293Z" fill="#00769D"/>
<path d="M292.176 256.389L286.457 253.096C286.001 252.836 286.055 252.368 286.588 252.064L292.252 248.804C292.785 248.5 293.579 248.467 294.035 248.728L299.754 252.021C300.211 252.281 300.156 252.749 299.623 253.053L293.959 256.324C293.437 256.617 292.633 256.65 292.176 256.389Z" fill="#00769D"/>
<path d="M171.149 216.291L154.319 206.576C153.862 206.315 153.917 205.848 154.449 205.544L160.114 202.273C160.646 201.969 161.44 201.936 161.907 202.197L178.737 211.901C179.194 212.162 179.14 212.629 178.607 212.933L172.943 216.204C172.41 216.519 171.605 216.552 171.149 216.291Z" fill="#00769D"/>
<path d="M279.543 278.84L262.713 269.136C262.257 268.875 262.311 268.408 262.844 268.103L268.508 264.843C269.041 264.539 269.835 264.507 270.302 264.767L287.132 274.482C287.589 274.743 287.534 275.21 287.002 275.515L281.337 278.785C280.804 279.068 280 279.101 279.543 278.84Z" fill="#00769D"/>
<path d="M244.262 269.722L238.543 266.43C238.087 266.169 238.141 265.702 238.674 265.398L245.415 261.507C245.947 261.203 246.741 261.17 247.208 261.431L252.916 264.724C253.373 264.985 253.319 265.452 252.786 265.756L246.045 269.646C245.512 269.951 244.719 269.983 244.262 269.722Z" fill="#00769D"/>
<path d="M180.182 232.743L171.049 227.473C170.593 227.212 170.647 226.745 171.18 226.441L177.92 222.55C178.453 222.246 179.247 222.213 179.714 222.474L188.847 227.745C189.303 228.005 189.249 228.473 188.716 228.777L181.976 232.667C181.443 232.982 180.638 233.015 180.182 232.743Z" fill="#00769D"/>
<path d="M235.76 264.811L226.627 259.54C226.171 259.28 226.225 258.812 226.758 258.508L233.499 254.618C234.031 254.314 234.825 254.281 235.282 254.542L244.425 259.812C244.882 260.073 244.827 260.54 244.294 260.845L237.554 264.735C237.021 265.05 236.217 265.083 235.76 264.811Z" fill="#00769D"/>
<path d="M192.914 240.089L183.782 234.819C183.325 234.558 183.379 234.091 183.912 233.786L190.653 229.896C191.186 229.592 191.979 229.559 192.447 229.82L201.579 235.09C202.036 235.351 201.981 235.818 201.449 236.123L194.708 240.013C194.175 240.328 193.371 240.361 192.914 240.089Z" fill="#00769D"/>
<path d="M192.501 229.853L232.228 252.781C232.717 253.064 232.717 253.531 232.228 253.814L225.345 257.78C224.856 258.063 224.052 258.063 223.562 257.78L183.836 234.851L192.501 229.853Z" fill="#00769D"/>
<path d="M268.921 278.949L275.281 282.621C275.661 282.839 275.607 283.219 275.172 283.469L272.41 285.056C271.976 285.306 271.323 285.338 270.943 285.11L264.583 281.437C264.202 281.22 264.256 280.839 264.691 280.589L267.453 279.003C267.888 278.764 268.54 278.731 268.921 278.949Z" fill="#00769D"/>
<path d="M260.016 273.82L266.376 277.493C266.757 277.71 266.703 278.09 266.268 278.34L263.506 279.938C263.071 280.187 262.419 280.22 262.038 280.003L255.678 276.33C255.298 276.112 255.352 275.732 255.787 275.482L258.549 273.896C258.983 273.624 259.647 273.602 260.016 273.82Z" fill="#00769D"/>
<path d="M251.199 268.723L257.559 272.396C257.94 272.613 257.886 272.993 257.451 273.243L254.689 274.83C254.254 275.08 253.602 275.112 253.221 274.895L246.861 271.222C246.492 271.005 246.535 270.624 246.97 270.374L249.732 268.777C250.166 268.538 250.819 268.505 251.199 268.723Z" fill="#00769D"/>
<path d="M264.887 271.005L271.247 274.678C271.628 274.895 271.574 275.275 271.139 275.525L268.377 277.123C267.942 277.373 267.29 277.405 266.91 277.188L260.549 273.515C260.169 273.298 260.223 272.917 260.658 272.667L263.42 271.081C263.854 270.82 264.518 270.788 264.887 271.005Z" fill="#00769D"/>
<path d="M253.2 114.937L244.752 110.069C243.969 109.612 243.502 108.493 243.719 107.569C243.937 106.646 244.741 106.255 245.524 106.711L253.961 111.579C254.744 112.036 255.211 113.144 254.994 114.079C254.798 115.002 253.983 115.394 253.2 114.937Z" fill="#DFFBFF"/>
<path d="M273.312 126.543L260.864 119.36C260.081 118.903 259.624 117.795 259.831 116.86C260.037 115.926 260.853 115.546 261.636 116.002L274.084 123.185C274.867 123.641 275.324 124.761 275.117 125.684C274.9 126.608 274.095 126.999 273.312 126.543Z" fill="#DFFBFF"/>
<path d="M238.489 154.329L230.041 149.461C229.259 149.004 228.802 147.885 229.009 146.961C229.226 146.038 230.031 145.646 230.813 146.103L239.261 150.971C240.044 151.428 240.5 152.547 240.294 153.47C240.076 154.394 239.272 154.785 238.489 154.329Z" fill="#DFFBFF"/>
<path d="M256.406 164.674L243.957 157.491C243.175 157.035 242.718 155.926 242.925 154.992C243.142 154.068 243.947 153.677 244.729 154.133L257.178 161.316C257.961 161.773 258.417 162.892 258.211 163.816C258.004 164.739 257.2 165.131 256.406 164.674Z" fill="#DFFBFF"/>
<path d="M228.293 108.548L223.02 105.505C222.237 105.048 221.781 103.929 221.987 103.006C222.205 102.082 223.009 101.691 223.792 102.147L229.065 105.19C229.848 105.646 230.304 106.765 230.098 107.689C229.891 108.613 229.076 108.993 228.293 108.548Z" fill="#DFFBFF"/>
<path d="M244.556 125.912L228.444 116.611C227.661 116.154 227.204 115.035 227.411 114.111C227.628 113.188 228.433 112.796 229.216 113.253L245.328 122.555C246.111 123.011 246.578 124.13 246.361 125.054C246.144 125.978 245.339 126.358 244.556 125.912Z" fill="#DFFBFF"/>
<path d="M230.455 133.736L225.182 130.694C224.399 130.237 223.943 129.118 224.149 128.194C224.367 127.271 225.171 126.88 225.954 127.336L231.227 130.379C232.01 130.835 232.466 131.943 232.26 132.878C232.053 133.802 231.238 134.193 230.455 133.736Z" fill="#DFFBFF"/>
<path d="M259.124 182.202L245.034 174.074C244.251 173.617 243.794 172.498 244.001 171.574C244.218 170.651 245.023 170.259 245.806 170.716L259.896 178.844C260.679 179.301 261.146 180.409 260.929 181.344C260.711 182.278 259.907 182.658 259.124 182.202Z" fill="#DFFBFF"/>
<path d="M225.313 146.733L221.932 144.777C221.149 144.321 220.682 143.212 220.899 142.278C221.116 141.354 221.921 140.963 222.704 141.419L226.085 143.375C226.868 143.832 227.335 144.951 227.118 145.875C226.911 146.798 226.096 147.179 225.313 146.733Z" fill="#DFFBFF"/>
<path d="M222.878 161.284L218.67 158.861C217.887 158.404 217.42 157.296 217.637 156.361C217.855 155.438 218.659 155.046 219.442 155.503L223.65 157.926C224.432 158.382 224.889 159.502 224.682 160.425C224.476 161.349 223.671 161.74 222.878 161.284Z" fill="#DFFBFF"/>
<path d="M239.24 170.727L228.151 164.326C227.368 163.87 226.9 162.751 227.118 161.827C227.335 160.903 228.14 160.512 228.923 160.969L240.012 167.369C240.795 167.825 241.252 168.945 241.045 169.868C240.828 170.792 240.023 171.172 239.24 170.727Z" fill="#DFFBFF"/>
<path d="M225.019 170.499L217.049 165.902C216.266 165.446 215.81 164.326 216.016 163.403C216.234 162.479 217.038 162.088 217.821 162.544L225.79 167.141C226.573 167.586 227.03 168.706 226.823 169.64C226.617 170.564 225.801 170.955 225.019 170.499Z" fill="#DFFBFF"/>
<path d="M271.215 189.211L266.094 186.255C265.311 185.799 264.844 184.68 265.061 183.756C265.279 182.832 266.083 182.441 266.866 182.898L271.987 185.853C272.769 186.31 273.226 187.429 273.02 188.353C272.802 189.276 271.998 189.668 271.215 189.211Z" fill="#DFFBFF"/>
<path d="M250.079 145.06L235.989 136.931C235.206 136.475 234.738 135.356 234.956 134.432C235.173 133.508 235.978 133.117 236.76 133.574L250.851 141.702C251.633 142.158 252.09 143.278 251.883 144.201C251.666 145.125 250.861 145.505 250.079 145.06Z" fill="#DFFBFF"/>
<path d="M251.362 137.822L226.813 123.652C226.03 123.196 225.574 122.087 225.78 121.153C225.998 120.229 226.802 119.838 227.585 120.294L252.134 134.465C252.917 134.921 253.373 136.04 253.167 136.964C252.949 137.888 252.145 138.268 251.362 137.822Z" fill="#DFFBFF"/>
<path d="M237.641 145.864L223.551 137.736C222.768 137.279 222.301 136.171 222.518 135.236C222.736 134.302 223.54 133.921 224.323 134.378L238.413 142.506C239.196 142.962 239.653 144.082 239.446 145.005C239.239 145.929 238.424 146.32 237.641 145.864Z" fill="#DFFBFF"/>
<path d="M260.766 151.221L255.645 148.266C254.862 147.809 254.406 146.69 254.612 145.766C254.83 144.832 255.634 144.451 256.417 144.908L261.538 147.863C262.32 148.32 262.777 149.439 262.57 150.363C262.353 151.286 261.548 151.678 260.766 151.221Z" fill="#DFFBFF"/>
<path d="M311.29 148.461L280.979 130.966C280.196 130.509 279.74 129.401 279.946 128.466C280.164 127.543 280.968 127.151 281.751 127.608L312.062 145.103C312.845 145.56 313.302 146.668 313.095 147.602C312.878 148.526 312.073 148.906 311.29 148.461Z" fill="#DFFBFF"/>
<path d="M237.24 161.588L220.301 151.819C219.518 151.362 219.062 150.254 219.268 149.319C219.486 148.385 220.29 148.005 221.073 148.461L238.001 158.23C238.784 158.686 239.24 159.795 239.034 160.729C238.827 161.653 238.023 162.044 237.24 161.588Z" fill="#DFFBFF"/>
<path d="M237.097 105.646L224.649 98.4633C223.866 98.0069 223.398 96.8877 223.616 95.964C223.833 95.0403 224.638 94.6491 225.421 95.1055L237.869 102.288C238.652 102.745 239.119 103.864 238.902 104.788C238.684 105.711 237.88 106.092 237.097 105.646Z" fill="#DFFBFF"/>
<path d="M222.801 177.203L208.385 168.88C207.602 168.423 207.135 167.304 207.352 166.38C207.57 165.446 208.374 165.065 209.157 165.522L223.573 173.846C224.356 174.302 224.813 175.421 224.606 176.345C224.4 177.269 223.584 177.66 222.801 177.203Z" fill="#DFFBFF"/>
<path d="M320.378 207.576L311.93 202.708C311.147 202.251 310.691 201.132 310.897 200.208C311.115 199.285 311.919 198.894 312.702 199.35L321.15 204.218C321.932 204.675 322.4 205.794 322.182 206.718C321.976 207.641 321.161 208.032 320.378 207.576Z" fill="#DFFBFF"/>
<path d="M326.445 179.159L310.332 169.857C309.55 169.401 309.093 168.282 309.3 167.358C309.517 166.434 310.322 166.043 311.104 166.5L327.217 175.801C328 176.258 328.456 177.377 328.25 178.301C328.043 179.225 327.228 179.605 326.445 179.159Z" fill="#DFFBFF"/>
<path d="M312.355 186.983L307.082 183.941C306.3 183.484 305.843 182.365 306.05 181.441C306.267 180.518 307.072 180.126 307.854 180.583L313.127 183.626C313.91 184.082 314.367 185.201 314.16 186.125C313.943 187.049 313.138 187.44 312.355 186.983Z" fill="#DFFBFF"/>
<path d="M307.212 199.98L303.83 198.024C303.048 197.567 302.591 196.448 302.798 195.525C303.015 194.601 303.82 194.21 304.602 194.666L307.984 196.622C308.766 197.078 309.223 198.198 309.016 199.121C308.81 200.045 307.995 200.425 307.212 199.98Z" fill="#DFFBFF"/>
<path d="M331.979 198.307L317.889 190.178C317.106 189.722 316.639 188.613 316.856 187.679C317.074 186.755 317.878 186.364 318.661 186.82L332.751 194.949C333.534 195.405 333.99 196.513 333.784 197.448C333.566 198.372 332.762 198.763 331.979 198.307Z" fill="#DFFBFF"/>
<path d="M333.262 191.069L308.713 176.899C307.931 176.443 307.474 175.323 307.68 174.4C307.898 173.465 308.702 173.085 309.485 173.541L334.034 187.712C334.817 188.168 335.285 189.276 335.067 190.211C334.85 191.135 334.045 191.515 333.262 191.069Z" fill="#DFFBFF"/>
<path d="M319.542 199.111L305.452 190.983C304.669 190.526 304.212 189.407 304.419 188.483C304.636 187.549 305.441 187.168 306.224 187.625L320.314 195.753C321.096 196.209 321.553 197.329 321.347 198.252C321.129 199.176 320.325 199.567 319.542 199.111Z" fill="#DFFBFF"/>
<path d="M319.138 214.835L302.2 205.066C301.417 204.609 300.96 203.49 301.167 202.567C301.384 201.643 302.189 201.252 302.972 201.708L319.91 211.477C320.693 211.934 321.16 213.053 320.943 213.977C320.726 214.9 319.921 215.291 319.138 214.835Z" fill="#DFFBFF"/>
<path d="M357.039 113.448L370.346 108.156L367.346 88.5963L360.888 94.3122L357.039 113.448Z" fill="#86D0DA"/>
<path d="M267.986 22.2331L300.135 9.38867L294.199 22.2331L277.032 26.1995L267.986 22.2331Z" fill="#86D0DA"/>
<path d="M368.792 75.4693C367.096 74.4913 365.335 73.9154 363.585 73.6763C365.357 61.8534 360.247 49.3675 350.44 43.7059C347.494 41.9999 344.276 41.011 341.253 40.8154C345.102 26.4822 339.155 10.193 327.054 3.20571C320.738 -0.445503 313.899 -0.880172 307.876 1.35837V1.3475L307.583 1.46704C307.43 1.52137 307.278 1.58657 307.115 1.65177L297.048 5.60725L301.059 9.06287C295.612 10.7798 290.905 15.1808 288.415 21.69C283.827 33.6868 288.535 48.2808 298.928 54.2793L360.693 106.32C368.499 110.83 373.228 108.939 376.675 99.9303C380.132 90.9327 376.598 79.9682 368.792 75.4693Z" fill="#86D0DA"/>
<path d="M291.24 16.4087L325.889 2.57537C319.899 -0.478176 313.539 -0.738977 307.885 1.3583V1.34743L307.592 1.46697C307.44 1.5213 307.287 1.5865 307.124 1.6517L297.057 5.60718L301.069 9.0628C297.263 10.269 293.817 12.7901 291.24 16.4087Z" fill="#86D0DA"/>
<path d="M339.47 68.3298L362.345 59.2127C360.236 52.6709 356.061 46.9659 350.298 43.6406C349.537 43.1951 348.765 42.8148 347.994 42.4779L316.486 55.0507L339.47 68.3298Z" fill="#86D0DA"/>
<path d="M304.08 7.06348L313.898 12.7359L330.934 5.95507C329.716 4.9336 328.434 4.00993 327.053 3.21666C324.878 1.95612 322.639 1.09765 320.388 0.57605L304.08 7.06348Z" fill="#DFFBFF"/>
<path d="M360.844 55.3986L344.373 61.9512L349.233 68.7755L363.366 63.1574C362.855 60.4516 361.997 57.8436 360.844 55.3986Z" fill="#DFFBFF"/>
<path d="M357.778 79.7942C356.081 78.8162 354.32 78.2402 352.57 78.0012C354.342 66.1782 349.102 53.6163 339.295 47.9547C336.349 46.2487 333.272 45.3358 330.239 45.1402C334.076 30.8071 328.14 14.5179 316.04 7.53057C303.026 0.0108094 287.827 6.10703 282.075 21.1357C281.88 21.6464 281.706 22.1572 281.532 22.6788C271.606 18.2669 260.625 23.2438 256.319 34.5126C251.731 46.5095 256.439 61.1034 266.833 67.1019L345.307 112.416C353.113 116.926 362.224 113.275 365.671 104.255C369.117 95.2575 365.584 84.3039 357.778 79.7942Z" fill="#DFFBFF"/>
<path d="M359.398 78.8924C357.702 77.9144 355.941 77.3384 354.191 77.0994C355.963 65.2764 350.723 52.7145 340.916 47.0529C337.97 45.3468 334.893 44.434 331.86 44.2493C335.708 29.9161 329.761 13.6269 317.671 6.63963C309.898 2.15168 301.342 2.52114 294.492 6.74829C301.048 3.40135 308.876 3.40135 316.052 7.55243C328.152 14.5397 334.088 30.8289 330.25 45.1621C333.284 45.3577 336.361 46.2705 339.307 47.9766C349.113 53.6381 354.354 66.2001 352.582 78.023C354.332 78.2621 356.093 78.8272 357.789 79.816C365.596 84.3257 369.129 95.2794 365.683 104.288C364.356 107.765 362.171 110.438 359.551 112.155C362.888 110.558 365.704 107.548 367.302 103.375C370.738 94.3557 367.205 83.3912 359.398 78.8924Z" fill="white"/>
<path d="M281.544 22.6897C281.685 22.2333 281.848 21.7877 282.011 21.3422C276.63 19.3536 271.041 20.0382 266.432 22.9287C271.052 20.6467 276.434 20.4077 281.544 22.6897Z" fill="white"/>
<path d="M272.672 25.0369C271.215 25.0369 269.813 25.3194 268.53 25.8736C265.409 27.232 262.724 30.3833 261.137 34.5235C257.103 45.0642 261.419 58.4303 270.541 63.7007L349.016 109.015C351.484 110.438 354.038 110.797 356.017 110.004C358.007 109.21 359.768 107.124 360.855 104.266C363.758 96.6594 360.66 87.0098 354.071 83.2064C352.864 82.5109 351.603 82.0654 350.342 81.9024L347.156 81.4677L347.57 78.7402C349.211 67.8409 344.167 56.3222 335.589 51.3669C333.229 49.9977 330.794 49.2262 328.37 49.0741L324.423 48.8133L325.314 45.4989C328.837 32.3611 323.14 17.1803 312.344 10.9428C307.321 8.04135 302.037 7.45455 297.449 9.29103C292.872 11.1275 289.121 15.3329 286.903 21.1357C286.73 21.5813 286.577 22.0377 286.425 22.4941L284.305 28.9924L278.151 26.254C276.303 25.439 274.444 25.0369 272.672 25.0369Z" fill="#86D0DA"/>
<path d="M311.125 75.4365L313.832 74.3499L311.723 72.7307L311.125 75.4365Z" fill="#86D0DA"/>
<path d="M309.777 46.1619L312.398 45.0969L312.213 46.1945L309.777 46.1619Z" fill="#86D0DA"/>
<path d="M319.618 68.5908L322.357 67.4932L318.367 63.4725L319.618 68.5908Z" fill="#86D0DA"/>
<path d="M313.115 74.285L302.645 68.2431C302.113 67.9388 301.797 67.1673 301.928 66.5153L304.439 54.6379L316.833 61.7882L314.322 73.6656C314.191 74.3067 313.648 74.5892 313.115 74.285Z" fill="#367CE5"/>
<path d="M312.376 45.1078L298.221 52.2364C297.623 52.5406 297.818 53.6708 298.547 54.0837L310.093 60.745L321.639 67.4063C322.367 67.8301 322.955 67.1455 322.596 66.2979L314.202 46.1619C313.855 45.3034 312.985 44.8035 312.376 45.1078Z" fill="#367CE5"/>
<path d="M310.375 75.3824L299.905 69.3405C299.372 69.0362 299.057 68.2647 299.188 67.6127L301.699 55.7354L314.093 62.8856L311.582 74.763C311.451 75.415 310.908 75.6975 310.375 75.3824Z" fill="#65A2FD"/>
<path d="M309.626 46.2159L295.471 53.3445C294.873 53.6487 295.068 54.7789 295.797 55.1918L307.354 61.8531L318.9 68.5253C319.628 68.9491 320.205 68.2645 319.857 67.4168L311.463 47.2808C311.105 46.4115 310.235 45.9116 309.626 46.2159Z" fill="#65A2FD"/>
<path d="M4.02138 193.21L33.963 176.019C36.3223 174.661 40.4428 174.845 43.1608 176.421L104.555 212.021C107.273 213.596 107.567 215.976 105.208 217.334L75.266 234.526C72.9068 235.884 68.7863 235.699 66.0683 234.123L4.66283 198.513C1.94481 196.938 1.65126 194.558 4.02138 193.21Z" fill="#F0EFEF"/>
<path d="M76.4518 228.831L107.111 211.227C108.448 210.455 109.133 209.434 109.166 208.347L109.188 203.077L108.198 204.772C107.731 204.218 107.089 203.696 106.274 203.229L44.5423 167.434C41.0415 165.402 35.7468 165.174 32.7135 166.923L2.05426 184.527C1.72809 184.712 1.44542 184.919 1.19536 185.136L0.0211795 183.636L-0.000564678 188.57C-0.044053 189.939 0.934433 191.384 2.88053 192.525L64.6121 228.32C68.1129 230.342 73.4185 230.581 76.4518 228.831Z" fill="#86D0DA"/>
<path d="M2.07602 180.594L32.7353 162.99C35.7686 161.251 41.0633 161.479 44.5641 163.5L106.296 199.295C109.796 201.327 110.166 204.381 107.133 206.131L76.4736 223.735C73.4403 225.473 68.1456 225.245 64.6448 223.224L2.91317 187.429C-0.587632 185.397 -0.957283 182.343 2.07602 180.594Z" fill="#DFFBFF"/>
<path d="M107.133 206.13L76.4741 223.735C73.4408 225.484 68.1461 225.245 64.6453 223.224L2.91368 187.429C1.21764 186.451 0.260894 185.223 0.0651965 184.028C-0.173989 185.495 0.782753 187.103 2.91368 188.331L64.6453 224.126C68.1461 226.158 73.4408 226.386 76.4741 224.637L107.133 207.032C108.699 206.13 109.351 204.881 109.145 203.609C108.982 204.555 108.329 205.446 107.133 206.13Z" fill="white"/>
<path d="M4.02138 181.3L33.963 164.109C36.3223 162.751 40.4428 162.936 43.1608 164.511L104.555 200.111C107.273 201.686 107.567 204.066 105.208 205.424L75.266 222.616C72.9068 223.974 68.7863 223.789 66.0683 222.214L4.66283 186.614C1.94481 185.038 1.65126 182.659 4.02138 181.3Z" fill="#00769D"/>
<path d="M52.2509 187.559L41.1722 181.159C40.7591 180.92 40.8135 180.507 41.2918 180.235C41.7702 179.963 42.4877 179.931 42.9009 180.17L53.9795 186.56C54.3927 186.799 54.3383 187.212 53.8599 187.483C53.3707 187.766 52.6531 187.798 52.2509 187.559Z" fill="#FFC634"/>
<path d="M41.7371 185.397L37.7796 183.115C37.3665 182.876 37.4209 182.463 37.8992 182.191C38.3776 181.92 39.0952 181.887 39.5083 182.126L43.4657 184.408C43.8789 184.647 43.8245 185.06 43.3461 185.332C42.8678 185.603 42.1502 185.625 41.7371 185.397Z" fill="#FFC634"/>
<path d="M48.3797 189.222L44.4222 186.94C44.0091 186.701 44.0635 186.288 44.5418 186.016C45.0202 185.745 45.7377 185.712 46.14 185.951L50.0974 188.233C50.5106 188.472 50.4562 188.885 49.9779 189.157C49.4995 189.429 48.7819 189.461 48.3797 189.222Z" fill="white"/>
<path d="M61.7955 196.959L51.0648 190.765C50.6517 190.526 50.706 190.113 51.1844 189.841C51.6628 189.57 52.3803 189.537 52.7826 189.776L63.5133 195.97C63.9265 196.209 63.8721 196.622 63.3937 196.894C62.9154 197.165 62.1978 197.198 61.7955 196.959Z" fill="#FFC634"/>
<path d="M48.2615 193.047L34.4105 185.06C33.9974 184.821 34.0517 184.408 34.5301 184.136C35.0085 183.865 35.726 183.832 36.1283 184.071L49.9793 192.058C50.3924 192.297 50.3381 192.71 49.8597 192.982C49.3922 193.253 48.6747 193.286 48.2615 193.047Z" fill="#FFC634"/>
<path d="M64.9168 206.555L31.0394 187.005C30.6263 186.766 30.6806 186.353 31.159 186.082C31.6374 185.81 32.3549 185.777 32.7572 186.016L66.6346 205.566C67.0477 205.805 66.9933 206.218 66.515 206.489C66.0366 206.761 65.319 206.794 64.9168 206.555Z" fill="white"/>
<path d="M74.7987 200.578L55.305 189.33C54.8919 189.091 54.9463 188.678 55.4246 188.407C55.903 188.135 56.6206 188.103 57.0228 188.342L76.5164 199.589C76.9296 199.828 76.8752 200.241 76.3968 200.512C75.9293 200.784 75.2118 200.806 74.7987 200.578Z" fill="#FFC634"/>
<path d="M50.9239 218.942L48.0754 217.301C47.7928 217.138 47.5645 216.704 47.5645 216.323C47.5645 215.943 47.7928 215.769 48.0754 215.932L50.9239 217.573C51.2066 217.736 51.4349 218.182 51.4349 218.551C51.4349 218.931 51.2066 219.105 50.9239 218.942Z" fill="#DFFBFF"/>
<path d="M55.4024 221.54L52.554 219.899C52.2713 219.736 52.043 219.29 52.043 218.921C52.043 218.541 52.2713 218.367 52.554 218.53L55.4024 220.171C55.6851 220.334 55.9134 220.768 55.9134 221.149C55.9134 221.529 55.6851 221.703 55.4024 221.54Z" fill="#DFFBFF"/>
</g>
<defs>
<clipPath id="clip0">
<rect width="378" height="331" fill="white"/>
</clipPath>
</defs>
</svg>
