<svg fill="none" height="384" viewBox="0 0 426 384" width="426" xmlns="http://www.w3.org/2000/svg" xmlns:xlink="http://www.w3.org/1999/xlink"><radialGradient id="a" cx="0" cy="0" gradientTransform="matrix(0 91.8017 -212.998 0 212.998 91.8017)" gradientUnits="userSpaceOnUse" r="1"><stop offset="0" stop-color="#00708e"/><stop offset="1" stop-color="#0181a4" stop-opacity="0"/></radialGradient><ellipse fill="url(#a)" rx="212.998" ry="91.8017" transform="matrix(-1 0 0 1 213.002 291.879)"/><path d="m358.013 197.506 1.63-6.525h3.725c3.958-2.563 9.778-4.194 16.297-4.194 6.518 0 12.339 1.631 16.529 4.194h3.492l1.63 6.292c.233.699.233 1.398.233 2.097 0 6.99-9.778 12.583-21.884 12.583s-21.884-5.593-21.884-12.583c0-.466.232-1.165.232-1.864z" fill="#f9fcff"/><path d="m358.018 197.736 1.629-6.524h3.725c3.958-2.563 9.778-4.194 16.297-4.194 1.397 0 2.794 0 4.191.233 3.725.699 6.984 1.864 9.545 3.728h2.095c.233.233.466.233.698.466h.932l1.629 6.058c.233.699.233 1.398.233 2.097 0 6.991-9.778 12.583-21.884 12.583-1.397 0-2.794 0-4.191-.233-8.846-1.631-15.132-6.291-15.132-12.117 0-.932 0-1.398.233-2.097z" fill="#00a0b6"/><path d="m400.385 196.571.233.932c.233.699.233 1.165.233 1.864 0 6.524-9.545 11.884-21.186 11.884-11.64 0-21.186-5.36-21.186-11.884 0-.466 0-1.165.233-1.631l1.397-5.826h3.259l.233-.233c3.958-2.563 9.778-4.194 16.064-4.194 6.053 0 11.873 1.398 16.064 4.194l.233.233h3.026zm-20.72 16.311c12.572 0 22.815-6.059 22.815-13.515 0-.466 0-.699 0-1.165l-.232-.932-1.863-6.991h-3.958c-4.19-2.796-10.243-4.194-16.529-4.194s-12.339 1.631-16.53 4.194h-4.19l-1.63 6.991c-.233.699-.233 1.398-.233 2.097-.232 7.456 9.778 13.515 22.35 13.515z" fill="#006587"/><path d="m359.409 192.608c0 6.524 9.08 11.651 20.255 11.651 11.174 0 20.254-5.127 20.254-11.651 0-6.525-9.08-11.651-20.254-11.651-11.175 0-20.255 5.126-20.255 11.651z" fill="#00a0b6"/><path d="m359.178 192.61c0-2.098 1.164-4.195 3.027-6.059 3.725-2.33 9.079-3.961 15.132-3.961 11.175 0 20.255 5.126 20.255 11.651 0 2.097-1.164 4.194-3.027 6.058-3.725 2.33-9.079 3.961-15.132 3.961-11.175 0-20.255-5.359-20.255-11.65z" fill="#f9fcff"/><path d="m379.664 181.658c10.71 0 19.324 4.893 19.324 10.952 0 6.058-8.614 10.951-19.324 10.951-10.709 0-19.323-4.893-19.323-10.951 0-6.059 8.614-10.952 19.323-10.952zm0 23.301c11.641 0 20.953-5.592 20.953-12.349 0-6.758-9.312-12.35-20.953-12.35-11.64 0-20.953 5.592-20.953 12.35 0 6.757 9.313 12.349 20.953 12.349z" fill="#006587"/><path d="m369.425 191.912c0 3.029 4.656 5.36 10.243 5.36 5.588 0 10.244-2.331 10.244-5.36s-4.656-5.359-10.244-5.359c-5.587-.233-10.243 2.33-10.243 5.359z" fill="#f9fcff"/><path d="m379.663 186.32c1.397 0 2.561.233 3.725.466 2.328.932 3.958 2.564 3.958 4.195 0 3.029-4.656 5.359-10.244 5.359-1.397 0-2.561-.233-3.725-.466-2.328-.932-3.958-2.563-3.958-4.194 0-2.797 4.657-5.36 10.244-5.36z" fill="#00a0b6"/><path d="m379.665 187.25c5.122 0 9.545 2.097 9.545 4.661 0 2.563-4.423 4.66-9.545 4.66s-9.545-2.097-9.545-4.66c.233-2.564 4.423-4.661 9.545-4.661zm0 10.952c6.286 0 11.175-2.796 11.175-6.291 0-3.496-4.889-6.292-11.175-6.292s-11.175 2.796-11.175 6.292c.233 3.495 5.122 6.291 11.175 6.291z" fill="#006587"/><path d="m379.668 190.049c-4.423 0-8.148 1.398-9.778 3.729-.232-.466-.465-1.166-.465-1.632 0-3.029 4.656-5.359 10.243-5.359 5.588 0 10.244 2.33 10.244 5.359 0 .7-.233 1.166-.698 1.865-1.164-2.564-5.122-3.962-9.546-3.962z" fill="#006587"/><path d="m379.665 187.25c5.122 0 9.545 2.097 9.545 4.66v.466c-2.095-2.097-5.587-3.262-9.545-3.262s-7.45 1.165-9.312 2.796v-.233c0-2.33 4.19-4.427 9.312-4.427zm9.08 6.757h1.396c.466-.699.699-1.398.699-2.33 0-3.495-4.889-6.291-11.175-6.291s-11.175 2.796-11.175 6.291c0 .699.233 1.398.699 2.097l2.095.932-.699-.932c1.397-1.864 4.889-3.262 9.08-3.262 4.191.233 7.916 1.631 9.08 3.495z" fill="#006587"/><path d="m384.089 204.261.466 7.457h-9.313l-8.148-2.098-4.423-1.864-3.958-3.495-.931-4.66 1.164-5.826 2.328 3.496 3.026 2.796 6.752 3.029 8.614 1.165z" fill="#006587"/><path d="m398.988 195.873 1.629 7.457 1.164-4.661-1.397-5.126z" fill="#006587"/><path d="m309.542 176.029c-.931.466-.931 1.398 0 1.864s2.328.466 3.26 0c.931-.466.931-1.398 0-1.864-.932-.466-2.561-.466-3.26 0z" fill="#006587"/><path d="m317.917 171.135c-.931.466-.931 1.398 0 1.864s2.328.466 3.26 0c.931-.466.931-1.398 0-1.864-.932-.466-2.561-.466-3.26 0z" fill="#006587"/><path d="m309.542 166.479c-.931.466-.931 1.398 0 1.864.931.467 2.328.467 3.26 0 .931-.466.931-1.398 0-1.864-.932-.699-2.561-.699-3.26 0z" fill="#006587"/><path d="m326.302 166.479c-.931.466-.931 1.398 0 1.864.931.467 2.328.467 3.259 0 .932-.466.932-1.398 0-1.864-.931-.699-2.561-.699-3.259 0z" fill="#006587"/><path d="m317.917 161.584c-.931.466-.931 1.398 0 1.864s2.328.466 3.26 0c.931-.466.931-1.398 0-1.864-.932-.466-2.561-.466-3.26 0z" fill="#006587"/><path d="m334.681 161.584c-.931.466-.931 1.398 0 1.864s2.328.466 3.259 0 .931-1.398 0-1.864-2.561-.466-3.259 0z" fill="#006587"/><path d="m326.302 156.691c-.931.466-.931 1.398 0 1.864s2.328.466 3.259 0c.932-.466.932-1.398 0-1.864-.931-.466-2.561-.466-3.259 0z" fill="#006587"/><path d="m343.062 156.691c-.931.466-.931 1.398 0 1.864s2.328.466 3.259 0 .931-1.398 0-1.864-2.328-.466-3.259 0z" fill="#006587"/><path d="m352.376 152.031c-.931.466-.931 1.398 0 1.864s2.328.466 3.26 0c.931-.466.931-1.398 0-1.864-.932-.466-2.329-.466-3.26 0z" fill="#006587"/><path d="m334.681 151.797c-.931.466-.931 1.398 0 1.864s2.328.466 3.259 0 .931-1.398 0-1.864-2.561-.466-3.259 0z" fill="#006587"/><path d="m343.062 146.905c-.931.466-.931 1.398 0 1.864s2.328.466 3.259 0 .931-1.398 0-1.864-2.328-.466-3.259 0z" fill="#006587"/><path d="m292.316 175.331c-.932.466-.932 1.398 0 1.864.931.466 2.328.466 3.259 0s.931-1.398 0-1.864-2.328-.466-3.259 0z" fill="#006587"/><path d="m299.298 179.988c-.931.466-.931 1.398 0 1.864s2.328.466 3.259 0c.932-.466.932-1.398 0-1.864-.931-.466-2.328-.466-3.259 0z" fill="#006587"/><path d="m292.544 166.475c-.931.466-.931 1.398 0 1.864s2.328.466 3.26 0c.931-.466.931-1.398 0-1.864-.932-.467-2.329-.467-3.26 0z" fill="#006587"/><path d="m284.165 161.584c-.931.466-.931 1.398 0 1.864.932.466 2.328.466 3.26 0 .931-.466.931-1.398 0-1.864-.932-.466-2.328-.466-3.26 0z" fill="#006587"/><path d="m275.781 156.691c-.932.466-.932 1.398 0 1.864.931.466 2.328.466 3.259 0s.931-1.398 0-1.864-2.328-.466-3.259 0z" fill="#006587"/><path d="m267.404 151.797c-.932.466-.932 1.398 0 1.864.931.466 2.328.466 3.259 0s.931-1.398 0-1.864-2.328-.466-3.259 0z" fill="#006587"/><path d="m259.017 147.136c-.931.466-.931 1.398 0 1.864s2.328.466 3.259 0 .931-1.398 0-1.864c-.931-.699-2.328-.699-3.259 0z" fill="#006587"/><path d="m250.638 142.241c-.931.466-.931 1.398 0 1.864s2.328.466 3.259 0c.932-.466.932-1.398 0-1.864-.931-.466-2.328-.466-3.259 0z" fill="#006587"/><path d="m304.182 161.584c-.931-.466-2.328-.466-3.259 0s-.931 1.398 0 1.864 2.328.466 3.259 0c.932-.466.932-1.398 0-1.864z" fill="#006587"/><path d="m292.544 156.691c-.931.466-.931 1.398 0 1.864s2.328.466 3.26 0c.931-.466.931-1.398 0-1.864-.932-.466-2.329-.466-3.26 0z" fill="#006587"/><path d="m284.165 151.797c-.931.466-.931 1.398 0 1.864.932.466 2.328.466 3.26 0 .931-.466.931-1.398 0-1.864-.932-.466-2.328-.466-3.26 0z" fill="#006587"/><path d="m275.781 147.136c-.932.466-.932 1.398 0 1.864.931.466 2.328.466 3.259 0s.931-1.398 0-1.864c-.931-.699-2.328-.699-3.259 0z" fill="#006587"/><path d="m267.404 142.241c-.932.466-.932 1.398 0 1.864.931.466 2.328.466 3.259 0s.931-1.398 0-1.864-2.328-.466-3.259 0z" fill="#006587"/><path d="m259.017 137.35c-.931.466-.931 1.398 0 1.864s2.328.466 3.259 0 .931-1.398 0-1.864c-.931-.467-2.328-.467-3.259 0z" fill="#006587"/><path d="m250.638 132.455c-.931.466-.931 1.398 0 1.864s2.328.466 3.259 0c.932-.466.932-1.398 0-1.864-.931-.466-2.328-.466-3.259 0z" fill="#006587"/><path d="m312.569 156.691c-.931-.466-2.328-.466-3.259 0s-.931 1.398 0 1.864 2.328.466 3.259 0 .931-1.398 0-1.864z" fill="#006587"/><path d="m300.923 151.797c-.931.466-.931 1.398 0 1.864s2.328.466 3.259 0c.932-.466.932-1.398 0-1.864-.931-.466-2.328-.466-3.259 0z" fill="#006587"/><path d="m292.544 147.136c-.931.466-.931 1.398 0 1.864s2.328.466 3.26 0c.931-.466.931-1.398 0-1.864-.932-.699-2.329-.699-3.26 0z" fill="#006587"/><path d="m284.165 142.241c-.931.466-.931 1.398 0 1.864.932.466 2.328.466 3.26 0 .931-.466.931-1.398 0-1.864-.932-.466-2.328-.466-3.26 0z" fill="#006587"/><path d="m275.781 137.35c-.932.466-.932 1.398 0 1.864.931.466 2.328.466 3.259 0s.931-1.398 0-1.864c-.931-.467-2.328-.467-3.259 0z" fill="#006587"/><path d="m267.404 132.455c-.932.466-.932 1.398 0 1.864.931.466 2.328.466 3.259 0s.931-1.398 0-1.864-2.328-.466-3.259 0z" fill="#006587"/><path d="m259.017 127.564c-.931.466-.931 1.398 0 1.864.931.467 2.328.467 3.259 0 .931-.466.931-1.398 0-1.864s-2.328-.466-3.259 0z" fill="#006587"/><path d="m320.946 151.797c-.931-.466-2.328-.466-3.259 0s-.931 1.398 0 1.864 2.328.466 3.259 0 .931-1.165 0-1.864z" fill="#006587"/><path d="m309.31 147.136c-.931.466-.931 1.398 0 1.864s2.328.466 3.259 0 .931-1.398 0-1.864c-.931-.699-2.328-.699-3.259 0z" fill="#006587"/><path d="m300.923 142.241c-.931.466-.931 1.398 0 1.864s2.328.466 3.259 0c.932-.466.932-1.398 0-1.864-.931-.466-2.328-.466-3.259 0z" fill="#006587"/><path d="m292.544 137.35c-.931.466-.931 1.398 0 1.864s2.328.466 3.26 0c.931-.466.931-1.398 0-1.864-.932-.467-2.329-.467-3.26 0z" fill="#006587"/><path d="m284.165 132.455c-.931.466-.931 1.398 0 1.864.932.466 2.328.466 3.26 0 .931-.466.931-1.398 0-1.864-.932-.466-2.328-.466-3.26 0z" fill="#006587"/><path d="m275.781 127.564c-.932.466-.932 1.398 0 1.864.931.467 2.328.467 3.259 0 .931-.466.931-1.398 0-1.864s-2.328-.466-3.259 0z" fill="#006587"/><path d="m267.404 122.903c-.932.466-.932 1.398 0 1.864.931.466 2.328.466 3.259 0s.931-1.398 0-1.864c-.931-.699-2.328-.699-3.259 0z" fill="#006587"/><path d="m329.329 147.137c-.931-.466-2.328-.466-3.259 0-.932.466-.932 1.398 0 1.864.931.466 2.328.466 3.259 0 .931-.699.931-1.398 0-1.864z" fill="#006587"/><path d="m317.687 142.241c-.931.466-.931 1.398 0 1.864s2.328.466 3.259 0 .931-1.398 0-1.864-2.328-.466-3.259 0z" fill="#006587"/><path d="m309.31 137.35c-.931.466-.931 1.398 0 1.864s2.328.466 3.259 0 .931-1.398 0-1.864c-.931-.467-2.328-.467-3.259 0z" fill="#006587"/><path d="m300.923 132.455c-.931.466-.931 1.398 0 1.864s2.328.466 3.259 0c.932-.466.932-1.398 0-1.864-.931-.466-2.328-.466-3.259 0z" fill="#006587"/><path d="m292.544 127.564c-.931.466-.931 1.398 0 1.864.931.467 2.328.467 3.26 0 .931-.466.931-1.398 0-1.864-.932-.466-2.329-.466-3.26 0z" fill="#006587"/><path d="m284.165 122.903c-.931.466-.931 1.398 0 1.864.932.466 2.328.466 3.26 0 .931-.466.931-1.398 0-1.864-.932-.699-2.328-.699-3.26 0z" fill="#006587"/><path d="m275.781 118.01c-.932.466-.932 1.398 0 1.864.931.466 2.328.466 3.259 0s.931-1.398 0-1.864-2.328-.466-3.259 0z" fill="#006587"/><path d="m337.944 142.241c-.931-.466-2.328-.466-3.259 0s-.931 1.398 0 1.864 2.328.466 3.259 0c.699-.699.932-1.398 0-1.864z" fill="#006587"/><path d="m326.302 137.35c-.931.466-.931 1.398 0 1.864s2.328.466 3.259 0c.932-.466.932-1.398 0-1.864-.931-.467-2.328-.467-3.259 0z" fill="#006587"/><path d="m317.917 132.455c-.931.466-.931 1.398 0 1.864s2.328.466 3.26 0c.931-.466.931-1.398 0-1.864-.932-.466-2.329-.466-3.26 0z" fill="#006587"/><path d="m309.542 127.564c-.931.466-.931 1.398 0 1.864.931.467 2.328.467 3.26 0 .931-.466.931-1.398 0-1.864-.932-.466-2.329-.466-3.26 0z" fill="#006587"/><path d="m301.161 122.668c-.931.466-.931 1.398 0 1.864.932.466 2.328.466 3.26 0 .931-.466.931-1.398 0-1.864-.932-.466-2.328-.466-3.26 0z" fill="#006587"/><path d="m292.775 118.009c-.932.466-.932 1.398 0 1.864.931.466 2.328.466 3.259 0s.931-1.398 0-1.864c-.931-.699-2.561-.699-3.259 0z" fill="#006587"/><path d="m284.392 113.114c-.931.466-.931 1.398 0 1.864s2.328.466 3.259 0 .931-1.398 0-1.864-2.561-.466-3.259 0z" fill="#006587"/><path d="m326.302 127.564c-.931.466-.931 1.398 0 1.864.931.467 2.328.467 3.259 0 .932-.466.932-1.398 0-1.864-.931-.466-2.328-.466-3.259 0z" fill="#006587"/><path d="m317.917 122.668c-.931.466-.931 1.398 0 1.864s2.328.466 3.26 0c.931-.466.931-1.398 0-1.864-.932-.466-2.329-.466-3.26 0z" fill="#006587"/><path d="m309.542 118.009c-.931.466-.931 1.398 0 1.864s2.328.466 3.26 0c.931-.466.931-1.398 0-1.864-.932-.699-2.329-.699-3.26 0z" fill="#006587"/><path d="m301.161 113.114c-.931.466-.931 1.398 0 1.864.932.466 2.328.466 3.26 0 .931-.466.931-1.398 0-1.864-.932-.466-2.328-.466-3.26 0z" fill="#006587"/><path d="m292.775 108.22c-.932.466-.932 1.398 0 1.864.931.466 2.328.466 3.259 0s.931-1.398 0-1.864-2.561-.466-3.259 0z" fill="#006587"/><path d="m329.566 118.01c-.931-.466-2.328-.466-3.259 0-.932.466-.932 1.398 0 1.864.931.466 2.328.466 3.259 0 .698-.699.698-1.398 0-1.864z" fill="#006587"/><path d="m317.917 113.114c-.931.466-.931 1.398 0 1.864s2.328.466 3.26 0c.931-.466.931-1.398 0-1.864-.932-.466-2.329-.466-3.26 0z" fill="#006587"/><path d="m309.542 108.22c-.931.466-.931 1.398 0 1.864s2.328.466 3.26 0c.931-.466.931-1.398 0-1.864-.932-.466-2.329-.466-3.26 0z" fill="#006587"/><path d="m301.161 103.33c-.931.466-.931 1.398 0 1.864.932.466 2.328.466 3.26 0 .931-.466.931-1.398 0-1.864-.932-.466-2.328-.466-3.26 0z" fill="#006587"/><path d="m326.302 108.22c-.931.466-.931 1.398 0 1.864s2.328.466 3.259 0c.932-.466.932-1.398 0-1.864-.931-.466-2.328-.466-3.259 0z" fill="#006587"/><path d="m317.917 103.33c-.931.466-.931 1.398 0 1.864s2.328.466 3.26 0c.931-.466.931-1.398 0-1.864-.932-.466-2.329-.466-3.26 0z" fill="#006587"/><path d="m309.542 98.4335c-.931.466-.931 1.3981 0 1.8645.931.466 2.328.466 3.26 0 .931-.4664.931-1.3985 0-1.8645-.932-.466-2.329-.466-3.26 0z" fill="#006587"/><path d="m326.302 98.4335c-.931.466-.931 1.3981 0 1.8645.931.466 2.328.466 3.259 0 .932-.4664.932-1.3985 0-1.8645-.931-.466-2.328-.466-3.259 0z" fill="#006587"/><path d="m317.917 93.7772c-.931.466-.931 1.3981 0 1.8641.931.4661 2.328.4661 3.26 0 .931-.466.931-1.3981 0-1.8641-.932-.699-2.329-.699-3.26 0z" fill="#006587"/><path d="m287.19 170.439c-.931-.466-2.328-.466-3.259 0s-.931 1.398 0 1.864c.931.467 2.328.467 3.259 0 .931-.466.931-1.165 0-1.864z" fill="#006587"/><path d="m275.546 165.775c-.931.466-.931 1.398 0 1.864s2.328.466 3.259 0c.932-.466.932-1.398 0-1.864-.931-.699-2.328-.699-3.259 0z" fill="#006587"/><path d="m267.167 160.886c-.931.466-.931 1.398 0 1.864s2.328.466 3.26 0c.931-.466.931-1.398 0-1.864-.932-.466-2.329-.466-3.26 0z" fill="#006587"/><path d="m258.781 155.989c-.932.466-.932 1.398 0 1.864.931.466 2.328.466 3.259 0s.931-1.398 0-1.864-2.328-.466-3.259 0z" fill="#006587"/><path d="m251.333 150.864c-.931.466-.931 1.398 0 1.864s2.328.466 3.26 0c.931-.466.931-1.398 0-1.864-.932-.466-2.561-.466-3.26 0z" fill="#006587"/><path d="m300.228 171.836c-.931.466-.931 1.398 0 1.864s2.328.466 3.259 0 .931-1.398 0-1.864-2.561-.466-3.259 0z" fill="#006587"/><path d="m306.51 165.544 36.318-20.738v-41.943l-36.318 20.972z" fill="#00a0b6"/><path d="m270.424 102.864 36.086 20.971 36.318-20.971-36.318-20.9714z" fill="#00a0b6"/><path d="m270.425 110.086 29.567 17.01 36.319-20.972-29.8-17.0097z" fill="#f9fcff"/><path d="m341.67 144.107v-39.38l-33.99 19.573v39.38zm-35.154-60.8173-33.991 19.5733 16.996 9.787 16.995 10.019 5.354-3.029 28.869-16.777zm0-2.5631 36.318 20.9714 1.164.699v43.108l-36.085 20.971-1.165.699-1.164-.699-36.085-20.971v-41.943-1.398z" fill="#006587"/><path d="m315.361 153.194 5.587-3.262c.932-.466 1.63-1.864 1.63-3.03v-5.825c0-1.165-.698-1.631-1.63-1.165l-5.587 3.262c-.931.466-1.63 1.864-1.63 3.029v5.826c0 .932.699 1.631 1.63 1.165z" fill="#f9fcff"/><path d="m143.952 128.847c-.698.466-.698 1.165 0 1.398.699.466 1.863.466 2.561 0 .699-.466.699-1.165 0-1.398-.698-.466-1.862-.466-2.561 0z" fill="#006587"/><path d="m150.468 124.885c-.698.466-.698 1.165 0 1.398.698.466 1.862.466 2.561 0 .698-.466.698-1.165 0-1.398-.699-.233-1.863-.233-2.561 0z" fill="#006587"/><path d="m143.952 121.157c-.698.466-.698 1.165 0 1.398.699.466 1.863.466 2.561 0 .699-.466.699-1.165 0-1.398-.698-.466-1.862-.466-2.561 0z" fill="#006587"/><path d="m157.222 121.157c-.699.466-.699 1.165 0 1.398.698.466 1.862.466 2.561 0 .698-.466.698-1.165 0-1.398-.699-.466-1.863-.466-2.561 0z" fill="#006587"/><path d="m150.468 117.196c-.698.466-.698 1.165 0 1.398.698.466 1.862.466 2.561 0 .698-.466.698-1.165 0-1.398-.699-.233-1.863-.233-2.561 0z" fill="#006587"/><path d="m163.738 117.196c-.699.466-.699 1.165 0 1.398.698.466 1.862.466 2.56 0 .699-.466.699-1.165 0-1.398-.698-.233-1.862-.233-2.56 0z" fill="#006587"/><path d="m157.222 113.469c-.699.466-.699 1.165 0 1.398.698.466 1.862.466 2.561 0 .698-.466.698-1.165 0-1.398-.699-.466-1.863-.466-2.561 0z" fill="#006587"/><path d="m170.49 113.469c-.699.466-.699 1.165 0 1.398.698.466 1.862.466 2.56 0 .699-.466.699-1.165 0-1.398-.698-.466-1.862-.466-2.56 0z" fill="#006587"/><path d="m177.708 109.741c-.698.466-.698 1.165 0 1.398.699.466 1.863.466 2.561 0 .699-.466.699-1.165 0-1.398-.698-.233-1.862-.233-2.561 0z" fill="#006587"/><path d="m163.738 109.74c-.699.466-.699 1.165 0 1.398.698.466 1.862.466 2.56 0 .699-.466.699-1.165 0-1.398-.698-.466-1.862-.466-2.56 0z" fill="#006587"/><path d="m170.49 105.778c-.699.466-.699 1.165 0 1.398.698.466 1.862.466 2.56 0 .699-.466.699-1.165 0-1.398-.698-.466-1.862-.466-2.56 0z" fill="#006587"/><path d="m130.45 128.146c-.698.466-.698 1.165 0 1.399.699.466 1.863.466 2.561 0 .699-.467.699-1.166 0-1.399-.698-.466-1.862-.466-2.561 0z" fill="#006587"/><path d="m136.036 131.877c-.698.466-.698 1.165 0 1.398.699.466 1.863.466 2.561 0 .699-.466.699-1.165 0-1.398-.931-.466-1.862-.466-2.561 0z" fill="#006587"/><path d="m130.683 121.157c-.699.466-.699 1.165 0 1.398.698.466 1.862.466 2.561 0 .698-.466.698-1.165 0-1.398-.699-.466-1.863-.466-2.561 0z" fill="#006587"/><path d="m123.929 117.427c-.698.466-.698 1.165 0 1.398.698.466 1.862.466 2.561 0 .698-.466.698-1.165 0-1.398-.699-.466-1.863-.466-2.561 0z" fill="#006587"/><path d="m117.409 113.47c-.698.466-.698 1.165 0 1.398.699.466 1.863.466 2.561 0 .699-.466.699-1.165 0-1.398-.698-.233-1.862-.233-2.561 0z" fill="#006587"/><path d="m110.888 109.74c-.699.466-.699 1.165 0 1.398.698.466 1.862.466 2.561 0 .698-.466.698-1.165 0-1.398-.931-.466-1.863-.466-2.561 0z" fill="#006587"/><path d="m104.142 105.78c-.699.466-.699 1.165 0 1.398.698.466 1.862.466 2.561 0 .698-.466.698-1.165 0-1.398-.699-.233-1.863-.233-2.561 0z" fill="#006587"/><path d="m97.6184 102.048c-.6984.466-.6984 1.165 0 1.398.6984.466 1.8625.466 2.5606 0 .699-.466.699-1.165 0-1.398-.6981-.466-1.8622-.466-2.5606 0z" fill="#006587"/><path d="m139.755 117.427c-.698-.466-1.862-.466-2.56 0-.699.466-.699 1.165 0 1.398.698.466 1.862.466 2.56 0 .699-.466.699-1.165 0-1.398z" fill="#006587"/><path d="m130.683 113.47c-.699.466-.699 1.165 0 1.398.698.466 1.862.466 2.561 0 .698-.466.698-1.165 0-1.398-.699-.233-1.863-.233-2.561 0z" fill="#006587"/><path d="m123.929 109.74c-.698.466-.698 1.165 0 1.398.698.466 1.862.466 2.561 0 .698-.466.698-1.165 0-1.398-.699-.466-1.863-.466-2.561 0z" fill="#006587"/><path d="m117.409 105.78c-.698.466-.698 1.165 0 1.398.699.466 1.863.466 2.561 0 .699-.466.699-1.165 0-1.398-.698-.233-1.862-.233-2.561 0z" fill="#006587"/><path d="m110.888 102.048c-.699.466-.699 1.165 0 1.398.698.466 1.862.466 2.561 0 .698-.466.698-1.165 0-1.398-.931-.466-1.863-.466-2.561 0z" fill="#006587"/><path d="m104.142 98.3212c-.699.466-.699 1.1651 0 1.3981.698.4657 1.862.4657 2.561 0 .698-.466.698-1.1651 0-1.3981-.699-.466-1.863-.466-2.561 0z" fill="#006587"/><path d="m97.6184 94.3612c-.6984.4661-.6984 1.1651 0 1.3981.6984.4661 1.8625.4661 2.5606 0 .699-.466.699-1.165 0-1.3981-.6981-.466-1.8622-.466-2.5606 0z" fill="#006587"/><path d="m146.513 113.469c-.698-.466-1.862-.466-2.561 0-.698.466-.698 1.165 0 1.398.699.466 1.863.466 2.561 0 .699-.233.699-.932 0-1.398z" fill="#006587"/><path d="m137.195 109.74c-.699.466-.699 1.165 0 1.398.698.466 1.862.466 2.56 0 .699-.466.699-1.165 0-1.398-.698-.466-1.862-.466-2.56 0z" fill="#006587"/><path d="m130.683 105.78c-.699.466-.699 1.165 0 1.398.698.466 1.862.466 2.561 0 .698-.466.698-1.165 0-1.398-.699-.233-1.863-.233-2.561 0z" fill="#006587"/><path d="m123.929 102.048c-.698.466-.698 1.165 0 1.398.698.466 1.862.466 2.561 0 .698-.466.698-1.165 0-1.398-.699-.466-1.863-.466-2.561 0z" fill="#006587"/><path d="m117.409 98.3212c-.698.466-.698 1.1651 0 1.3981.699.4657 1.863.4657 2.561 0 .699-.466.699-1.1651 0-1.3981-.698-.466-1.862-.466-2.561 0z" fill="#006587"/><path d="m110.888 94.3612c-.699.4661-.699 1.1651 0 1.3981.698.4661 1.862.4661 2.561 0 .698-.466.698-1.165 0-1.3981-.931-.466-1.863-.466-2.561 0z" fill="#006587"/><path d="m104.142 90.6298c-.699.466-.699 1.1651 0 1.3981.698.466 1.862.466 2.561 0 .698-.466.698-1.1651 0-1.3981-.699-.466-1.863-.466-2.561 0z" fill="#006587"/><path d="m153.029 109.74c-.699-.466-1.863-.466-2.561 0s-.698 1.165 0 1.398c.698.466 1.862.466 2.561 0 .698-.466.698-.932 0-1.398z" fill="#006587"/><path d="m143.952 105.78c-.698.466-.698 1.165 0 1.398.699.466 1.863.466 2.561 0 .699-.466.699-1.165 0-1.398-.698-.233-1.862-.233-2.561 0z" fill="#006587"/><path d="m137.195 102.048c-.699.466-.699 1.165 0 1.398.698.466 1.862.466 2.56 0 .699-.466.699-1.165 0-1.398-.698-.466-1.862-.466-2.56 0z" fill="#006587"/><path d="m130.683 98.3212c-.699.466-.699 1.1651 0 1.3981.698.4657 1.862.4657 2.561 0 .698-.466.698-1.1651 0-1.3981-.699-.466-1.863-.466-2.561 0z" fill="#006587"/><path d="m123.929 94.3612c-.698.4661-.698 1.1651 0 1.3981.698.4661 1.862.4661 2.561 0 .698-.466.698-1.165 0-1.3981-.699-.466-1.863-.466-2.561 0z" fill="#006587"/><path d="m117.409 90.6298c-.698.466-.698 1.1651 0 1.3981.699.466 1.863.466 2.561 0 .699-.466.699-1.1651 0-1.3981-.698-.466-1.862-.466-2.561 0z" fill="#006587"/><path d="m110.888 86.6709c-.699.466-.699 1.165 0 1.398.698.4661 1.862.4661 2.561 0 .698-.466.698-1.165 0-1.398-.931-.2331-1.863-.2331-2.561 0z" fill="#006587"/><path d="m159.783 105.778c-.699-.466-1.863-.466-2.561 0-.699.466-.699 1.165 0 1.398.698.466 1.862.466 2.561 0 .698-.233.698-.932 0-1.398z" fill="#006587"/><path d="m150.468 102.048c-.698.466-.698 1.165 0 1.398.698.466 1.862.466 2.561 0 .698-.466.698-1.165 0-1.398-.699-.466-1.863-.466-2.561 0z" fill="#006587"/><path d="m143.952 98.3212c-.698.466-.698 1.1651 0 1.3981.699.4657 1.863.4657 2.561 0 .699-.466.699-1.1651 0-1.3981-.698-.466-1.862-.466-2.561 0z" fill="#006587"/><path d="m137.195 94.3612c-.699.4661-.699 1.1651 0 1.3981.698.4661 1.862.4661 2.56 0 .699-.466.699-1.165 0-1.3981-.698-.466-1.862-.466-2.56 0z" fill="#006587"/><path d="m130.683 90.6298c-.699.466-.699 1.1651 0 1.3981.698.466 1.862.466 2.561 0 .698-.466.698-1.1651 0-1.3981-.699-.466-1.863-.466-2.561 0z" fill="#006587"/><path d="m123.929 86.6709c-.698.466-.698 1.165 0 1.398.698.4661 1.862.4661 2.561 0 .698-.466.698-1.165 0-1.398-.699-.2331-1.863-.2331-2.561 0z" fill="#006587"/><path d="m117.409 82.9442c-.698.4661-.698 1.1651 0 1.3981.699.4661 1.863.4661 2.561 0 .699-.466.699-1.165 0-1.3981-.698-.466-1.862-.466-2.561 0z" fill="#006587"/><path d="m166.298 102.048c-.698-.466-1.862-.466-2.56 0-.699.466-.699 1.165 0 1.398.698.466 1.862.466 2.56 0 .699-.466.699-.932 0-1.398z" fill="#006587"/><path d="m157.222 98.0869c-.699.466-.699 1.1651 0 1.3981.698.466 1.862.466 2.561 0 .698-.4661.698-1.1651 0-1.3981-.699-.233-1.863-.233-2.561 0z" fill="#006587"/><path d="m150.468 94.3612c-.698.4661-.698 1.1651 0 1.3981.698.4661 1.862.4661 2.561 0 .698-.466.698-1.165 0-1.3981-.699-.466-1.863-.466-2.561 0z" fill="#006587"/><path d="m143.952 90.6298c-.698.466-.698 1.1651 0 1.3981.699.466 1.863.466 2.561 0 .699-.466.699-1.1651 0-1.3981-.698-.466-1.862-.466-2.561 0z" fill="#006587"/><path d="m137.431 86.6708c-.699.466-.699 1.1651 0 1.3981.698.466 1.862.466 2.561 0 .698-.466.698-1.1651 0-1.3981-.931-.466-1.863-.466-2.561 0z" fill="#006587"/><path d="m130.683 82.9442c-.699.4661-.699 1.1651 0 1.3981.698.4661 1.862.4661 2.561 0 .698-.466.698-1.165 0-1.3981-.699-.466-1.863-.466-2.561 0z" fill="#006587"/><path d="m124.157 78.9804c-.698.4661-.698 1.1651 0 1.3981.699.466 1.863.466 2.561 0 .699-.466.699-1.1651 0-1.3981-.698-.233-1.862-.233-2.561 0z" fill="#006587"/><path d="m157.222 90.6298c-.699.466-.699 1.1651 0 1.3981.698.466 1.862.466 2.561 0 .698-.466.698-1.1651 0-1.3981-.699-.466-1.863-.466-2.561 0z" fill="#006587"/><path d="m150.468 86.6708c-.698.466-.698 1.1651 0 1.3981.698.466 1.862.466 2.561 0 .698-.466.698-1.1651 0-1.3981-.699-.466-1.863-.466-2.561 0z" fill="#006587"/><path d="m143.952 82.9442c-.698.4661-.698 1.1651 0 1.3981.699.4661 1.863.4661 2.561 0 .699-.466.699-1.165 0-1.3981-.698-.466-1.862-.466-2.561 0z" fill="#006587"/><path d="m137.431 78.9804c-.699.4661-.699 1.1651 0 1.3981.698.466 1.862.466 2.561 0 .698-.466.698-1.1651 0-1.3981-.931-.233-1.863-.233-2.561 0z" fill="#006587"/><path d="m130.683 75.2509c-.699.466-.699 1.1651 0 1.3981.698.466 1.862.466 2.561 0 .698-.4661.698-1.1651 0-1.3981-.699-.466-1.863-.466-2.561 0z" fill="#006587"/><path d="m159.783 82.9442c-.699-.466-1.863-.466-2.561 0-.699.4661-.699 1.1651 0 1.3981.698.4661 1.862.4661 2.561 0 .698-.466.698-1.165 0-1.3981z" fill="#006587"/><path d="m150.468 78.9804c-.698.4661-.698 1.1651 0 1.3981.698.466 1.862.466 2.561 0 .698-.466.698-1.1651 0-1.3981-.699-.233-1.863-.233-2.561 0z" fill="#006587"/><path d="m143.952 75.2509c-.698.466-.698 1.1651 0 1.3981.699.466 1.863.466 2.561 0 .699-.4661.699-1.1651 0-1.3981-.698-.466-1.862-.466-2.561 0z" fill="#006587"/><path d="m137.431 71.2919c-.699.4661-.699 1.1651 0 1.3981.698.4661 1.862.4661 2.561 0 .698-.466.698-1.165 0-1.3981-.931-.233-1.863-.233-2.561 0z" fill="#006587"/><path d="m157.222 75.2509c-.699.466-.699 1.1651 0 1.3981.698.466 1.862.466 2.561 0 .698-.4661.698-1.1651 0-1.3981-.699-.466-1.863-.466-2.561 0z" fill="#006587"/><path d="m150.468 71.2919c-.698.4661-.698 1.1651 0 1.3981.698.4661 1.862.4661 2.561 0 .698-.466.698-1.165 0-1.3981-.699-.233-1.863-.233-2.561 0z" fill="#006587"/><path d="m143.952 67.5624c-.698.466-.698 1.1651 0 1.3981.699.466 1.863.466 2.561 0 .699-.466.699-1.1651 0-1.3981-.698-.466-1.862-.466-2.561 0z" fill="#006587"/><path d="m157.222 67.5624c-.699.466-.699 1.1651 0 1.3981.698.466 1.862.466 2.561 0 .698-.466.698-1.1651 0-1.3981-.699-.466-1.863-.466-2.561 0z" fill="#006587"/><path d="m150.468 63.8329c-.698.4661-.698 1.1651 0 1.3981.698.466 1.862.466 2.561 0 .698-.466.698-1.1651 0-1.3981-.699-.466-1.863-.466-2.561 0z" fill="#006587"/><path d="m126.255 124.421c-.698-.466-1.862-.466-2.56 0-.699.466-.699 1.165 0 1.398.698.466 1.862.466 2.56 0 .699-.466.699-.932 0-1.398z" fill="#006587"/><path d="m117.177 120.459c-.698.466-.698 1.165 0 1.398.698.466 1.862.466 2.561 0 .698-.466.698-1.165 0-1.398-.699-.233-1.863-.233-2.561 0z" fill="#006587"/><path d="m110.429 116.728c-.699.466-.699 1.166 0 1.399.698.466 1.862.466 2.561 0 .698-.467.698-1.166 0-1.399-.699-.466-1.863-.466-2.561 0z" fill="#006587"/><path d="m103.907 113.003c-.698.466-.698 1.165 0 1.398.699.466 1.863.466 2.561 0 .699-.466.699-1.165 0-1.398-.698-.466-1.862-.466-2.561 0z" fill="#006587"/><path d="m98.0871 109.039c-.6984.466-.6984 1.165 0 1.398.6985.466 1.8625.466 2.5609 0 .698-.466.698-1.165 0-1.398-.6984-.466-1.8624-.466-2.5609 0z" fill="#006587"/><path d="m136.503 125.583c-.698.466-.698 1.165 0 1.398.699.466 1.863.466 2.561 0s.698-1.165 0-1.398c-.698-.466-1.862-.466-2.561 0z" fill="#006587"/><path d="m141.622 120.458 28.636-16.544v-32.8554l-28.636 16.5441z" fill="#00a0b6"/><path d="m113.219 71.0607 28.403 16.5441 28.636-16.5441-28.636-16.5441z" fill="#00a0b6"/><path d="m113.222 76.6506 23.281 13.5149 28.636-16.5441-23.514-13.515z" fill="#f9fcff"/><path d="m169.329 103.448v-30.9907l-27.006 15.612v30.9907zm-27.704-48.0009-27.006 15.6121 13.503 7.6895 13.503 7.6895 4.19-2.3301 22.583-13.0489zm0-1.8641 28.635 16.5441.931.466v34.0199l-28.635 16.545-.931.466-.932-.466-28.635-16.545v-33.0878-.9321z" fill="#006587"/><path d="m148.606 110.67 4.423-2.563c.699-.466 1.164-1.398 1.164-2.33v-4.66c0-.932-.465-1.3983-1.164-.932l-4.423 2.563c-.699.466-1.164 1.398-1.164 2.33v4.66c0 .932.465 1.399 1.164.932z" fill="#f9fcff"/><path d="m15.072 179.404 1.6296-6.524h3.725c3.9578-2.563 9.778-4.194 16.5295-4.194 6.5187 0 12.339 1.631 16.2967 4.194h3.4922l1.6296 6.291c.2328.699.2328 1.398.2328 2.097 0 6.991-9.778 12.583-21.8841 12.583s-21.8841-5.592-21.8841-12.583c0-.699.2328-1.165.2328-1.864z" fill="#f9fcff"/><path d="m15.074 179.639 1.6296-6.525h3.725c3.9577-2.563 9.778-4.194 16.5295-4.194 1.3968 0 2.7937 0 4.1905.233 3.725.699 6.9843 2.097 9.5452 3.728h1.8625c.2328.233.4656.233.6985.466h1.164l1.6297 6.059c.2328.699.2327 1.398.2327 2.097 0 6.99-9.7779 12.583-21.884 12.583-1.3969 0-2.7938 0-4.1906-.233-8.8468-1.632-15.1326-6.525-15.1326-12.117-.2329-.932-.2329-1.631 0-2.097z" fill="#00a0b6"/><path d="m57.4438 178.473.2328.932c.2328.699.2328 1.165.2328 1.864 0 6.525-9.5452 11.884-21.1857 11.884s-21.1857-5.359-21.1857-11.884c0-.466 0-1.165.2329-1.631l1.3968-5.825h3.2593l.2329-.233c3.9577-2.564 9.778-4.195 16.0638-4.195 6.0531 0 11.8733 1.398 16.0639 4.195l.2328.233h3.2593zm-20.7201 16.311c12.5717 0 22.8154-6.058 22.8154-13.515 0-.466 0-.699 0-1.165l-.2329-.932-1.8624-6.99h-3.9578c-4.1906-2.797-10.2436-4.195-16.5295-4.195-6.2858 0-12.3389 1.631-16.7623 4.195h-4.1905l-1.6297 6.99c-.2328.699-.2328 1.398-.2328 2.097 0 7.457 10.2436 13.515 22.5825 13.515z" fill="#006587"/><path d="m16.4677 174.511c0 6.525 9.0795 11.651 20.2544 11.651s20.2545-5.126 20.2545-11.651c0-6.524-9.0796-11.651-20.2545-11.651s-20.2544 5.127-20.2544 11.651z" fill="#00a0b6"/><path d="m16.2368 174.512c0-2.097 1.1641-4.194 3.0265-6.059 3.725-2.33 9.0796-3.961 15.1327-3.961 11.1748 0 20.2544 5.127 20.2544 11.651 0 2.097-1.1641 4.194-3.0265 6.058-3.725 2.331-9.0796 3.962-15.1327 3.962-11.1748 0-20.2544-5.36-20.2544-11.651z" fill="#f9fcff"/><path d="m36.7229 163.56c10.7092 0 19.3232 4.894 19.3232 10.952s-8.614 10.952-19.3232 10.952c-10.7093 0-19.3232-4.894-19.3232-10.952s8.6139-10.952 19.3232-10.952zm0 23.302c11.6405 0 20.9529-5.593 20.9529-12.35 0-6.758-9.3124-12.35-20.9529-12.35s-20.9529 5.592-20.9529 12.35c0 6.757 9.3124 12.35 20.9529 12.35z" fill="#006587"/><path d="m26.4834 173.815c0 3.029 4.6562 5.359 10.2437 5.359 5.5874 0 10.2436-2.33 10.2436-5.359 0-3.03-4.6562-5.36-10.2436-5.36-5.5875-.233-10.2437 2.33-10.2437 5.36z" fill="#f9fcff"/><path d="m36.7216 168.223c1.3968 0 2.5609.233 3.7249.466 2.3281.932 3.9578 2.563 3.9578 4.194 0 3.029-4.6562 5.359-10.2437 5.359-1.3968 0-2.5608-.233-3.7249-.466-2.3281-.932-3.9577-2.563-3.9577-4.194 0-2.796 4.6561-5.359 10.2436-5.359z" fill="#00a0b6"/><path d="m36.7236 169.153c5.1218 0 9.5452 2.097 9.5452 4.66s-4.4234 4.66-9.5452 4.66-9.5452-2.097-9.5452-4.66c.2328-2.563 4.4234-4.66 9.5452-4.66zm0 10.951c6.2858 0 11.1748-2.796 11.1748-6.291s-4.889-6.292-11.1748-6.292c-6.2859 0-11.1748 2.797-11.1748 6.292.2328 3.495 5.1218 6.291 11.1748 6.291z" fill="#006587"/><path d="m36.7267 171.717c-4.4234 0-8.1484 1.398-9.5452 3.729-.4656-.466-.4656-1.166-.4656-1.632 0-3.029 4.6562-5.359 10.2436-5.359s10.2436 2.33 10.2436 5.359c0 .699-.2328 1.165-.6984 1.865-1.3969-2.331-5.1218-3.962-9.778-3.962z" fill="#006587"/><path d="m36.7236 168.919c5.1218 0 9.5452 2.097 9.5452 4.66v.467c-1.8625-1.865-5.5875-3.03-9.5452-3.03-3.9578 0-7.4499 1.165-9.3124 2.797v-.234c0-2.33 4.1906-4.66 9.3124-4.66zm9.0795 6.991h1.3969c.4656-.699.6984-1.398.6984-2.331 0-3.495-4.889-6.291-11.1748-6.291-6.2859 0-11.1748 2.796-11.1748 6.291 0 .7.2328 1.399.6984 2.098l2.0953.932-.6984-.932c1.3968-1.864 4.8889-3.263 9.0795-3.263 4.1906.233 7.9155 1.632 9.0795 3.496z" fill="#006587"/><path d="m41.1476 186.164.4657 7.457h-9.0796l-8.3811-2.098-4.1906-1.864-4.1906-3.495-.9312-4.66 1.164-6.059 2.3281 3.729 3.0265 2.563 6.7515 3.262 8.614 1.165z" fill="#006587"/><path d="m56.0461 177.773 1.6297 7.457 1.164-4.661-1.3968-5.359z" fill="#006587"/><path d="m44.9372 303.37 1.6297-6.524h3.7249c3.9578-2.564 9.7781-4.195 16.2967-4.195 6.5187 0 12.339 1.631 16.5295 4.195h3.4922l1.6296 6.291c.2329.699.2329 1.398.2329 2.097 0 6.991-9.7781 12.583-21.8842 12.583s-21.8841-5.592-21.8841-12.583c0-.466.2328-1.165.2328-1.864z" fill="#f9fcff"/><path d="m44.9415 303.604 1.6297-6.524h3.7249c3.9578-2.563 9.778-4.194 16.2967-4.194 1.3969 0 2.7937 0 4.1906.233 3.7249.699 6.9843 2.097 9.5452 3.728h1.8625c.2328.233.4656.233.6984.466h1.164l1.6297 6.058c.2328.699.2328 1.399.2328 2.098 0 6.99-9.778 12.582-21.8841 12.582-1.3969 0-2.7937 0-4.1906-.233-8.8468-1.631-15.1326-6.524-15.1326-12.116 0-.932 0-1.398.2328-2.098z" fill="#00a0b6"/><path d="m87.309 302.44.2328.932c.2328.699.2328 1.165.2328 1.864 0 6.524-9.5452 11.884-21.1857 11.884-11.6404 0-21.1857-5.36-21.1857-11.884 0-.466.0001-1.165.2329-1.631l1.3968-5.826h3.2594l.2328-.233c3.9577-2.563 9.778-4.194 16.0638-4.194 6.0531 0 11.8733 1.398 16.0639 4.194l.2328.233h3.2594zm-20.7201 16.311c12.5718 0 22.8154-6.059 22.8154-13.515 0-.466 0-.699 0-1.165l-.2328-.932-1.8625-6.991h-3.9578c-4.1905-2.796-10.2436-4.194-16.5295-4.194-6.2858 0-12.3389 1.631-16.7623 4.194h-4.1905l-1.6297 6.991c-.2328.699-.2328 1.398-.2328 2.097 0 7.456 10.2436 13.515 22.5825 13.515z" fill="#006587"/><path d="m46.3329 298.477c0 6.524 9.0796 11.651 20.2544 11.651 11.1749 0 20.2545-5.127 20.2545-11.651s-9.0796-11.651-20.2545-11.651c-11.1748 0-20.2544 5.127-20.2544 11.651z" fill="#00a0b6"/><path d="m46.102 298.478c0-2.097 1.1641-4.195 3.0265-6.059 3.725-2.33 9.0796-3.961 15.1327-3.961 11.1748 0 20.2544 5.126 20.2544 11.651 0 2.097-1.164 4.194-3.0265 6.058-3.725 2.33-9.0796 3.961-15.1326 3.961-11.1749 0-20.2545-5.359-20.2545-11.65z" fill="#f9fcff"/><path d="m66.5881 287.526c10.7093 0 19.3232 4.893 19.3232 10.952 0 6.058-8.6139 10.951-19.3232 10.951-10.7092 0-19.3232-4.893-19.3232-10.951 0-6.059 8.614-10.952 19.3232-10.952zm0 23.302c11.6405 0 20.9529-5.593 20.9529-12.35 0-6.758-9.3124-12.35-20.9529-12.35s-20.9529 5.592-20.9529 12.35c0 6.757 9.3124 12.35 20.9529 12.35z" fill="#006587"/><path d="m56.3467 297.78c0 3.029 4.6562 5.36 10.2437 5.36 5.5874 0 10.2436-2.331 10.2436-5.36s-4.6562-5.359-10.2436-5.359c-5.5875 0-10.2437 2.33-10.2437 5.359z" fill="#f9fcff"/><path d="m66.5907 292.421c1.3969 0 2.5609.233 3.725.466 2.3281.932 3.9577 2.563 3.9577 4.194 0 3.029-4.6562 5.36-10.2436 5.36-1.3969 0-2.5609-.233-3.725-.466-2.3281-.933-3.9577-2.564-3.9577-4.195 0-3.029 4.6562-5.359 10.2436-5.359z" fill="#00a0b6"/><path d="m66.5888 293.118c5.1218 0 9.5452 2.098 9.5452 4.661s-4.4234 4.66-9.5452 4.66-9.5452-2.097-9.5452-4.66c.2328-2.563 4.4234-4.661 9.5452-4.661zm0 10.952c6.2859 0 11.1749-2.796 11.1749-6.291 0-3.496-4.889-6.292-11.1749-6.292s-11.1749 2.796-11.1749 6.292c.2328 3.495 5.1218 6.291 11.1749 6.291z" fill="#006587"/><path d="m66.5919 295.916c-4.4234 0-8.1483 1.398-9.5452 3.728-.2328-.466-.4656-1.165-.4656-1.864 0-3.029 4.6562-5.359 10.2436-5.359 5.5875 0 10.2437 2.33 10.2437 5.359 0 .699-.2328 1.165-.6985 1.864-1.3968-2.33-5.1218-3.728-9.778-3.728z" fill="#006587"/><path d="m66.5888 293.118c5.1218 0 9.5452 2.097 9.5452 4.66v.466c-1.8625-1.864-5.5874-3.029-9.5452-3.029s-7.4499 1.165-9.3124 2.796v-.233c0-2.563 4.1906-4.66 9.3124-4.66zm9.0796 6.758h1.3968c.4657-.7.6985-1.399.6985-2.331 0-3.495-4.889-6.291-11.1749-6.291s-11.1749 2.796-11.1749 6.291c0 .699.2328 1.398.6985 2.098l2.0952.932-.6984-.932c1.3969-1.865 4.889-3.263 9.0796-3.263 4.1906.233 7.9155 1.631 9.0796 3.496z" fill="#006587"/><path d="m71.0129 310.129.4656 7.457h-9.0796l-8.3811-2.097-4.4234-1.864-3.9578-3.496-.9312-4.66 1.164-5.825 2.3281 3.495 3.0266 2.796 6.7515 3.029 8.6139 1.165z" fill="#006587"/><path d="m85.9114 301.741 1.6296 7.457 1.1641-4.661-1.3969-5.126z" fill="#006587"/><path d="m316.392 347.706 1.63-6.524h3.725c3.958-2.564 9.778-4.195 16.297-4.195 6.518 0 12.339 1.631 16.529 4.195h3.492l1.63 6.291c.233.699.233 1.398.233 2.097 0 6.991-9.778 12.583-21.884 12.583-12.107 0-21.885-5.592-21.885-12.583 0-.466.233-1.165.233-1.864z" fill="#f9fcff"/><path d="m316.397 347.94 1.629-6.524h3.725c3.958-2.563 9.778-4.194 16.297-4.194 1.397 0 2.794 0 4.19.233 3.725.699 6.985 2.097 9.546 3.728h1.862c.233.233.466.233.699.466h1.164l1.629 6.058c.233.699.233 1.398.233 2.098 0 6.99-9.778 12.582-21.884 12.582-1.397 0-2.794 0-4.191-.233-8.846-1.631-15.132-6.524-15.132-12.116 0-.933 0-1.399.233-2.098z" fill="#00a0b6"/><path d="m358.764 346.775.233.932c.233.699.233 1.165.233 1.864 0 6.524-9.545 11.884-21.186 11.884-11.64 0-21.186-5.36-21.186-11.884 0-.466 0-1.165.233-1.631l1.397-5.826h3.259l.233-.233c3.958-2.563 9.778-4.194 16.064-4.194 6.053 0 11.873 1.398 16.064 4.194l.233.233h3.259zm-20.72 16.311c12.572 0 22.815-6.059 22.815-13.515 0-.466 0-.699 0-1.165l-.232-.932-1.863-6.991h-3.958c-4.19-2.796-10.243-4.194-16.529-4.194s-12.339 1.631-16.762 4.194h-4.191l-1.63 6.991c-.233.699-.233 1.398-.233 2.097 0 7.456 10.244 13.515 22.583 13.515z" fill="#006587"/><path d="m317.788 342.813c0 6.524 9.08 11.651 20.254 11.651 11.175 0 20.255-5.127 20.255-11.651 0-6.525-9.08-11.651-20.255-11.651-11.174 0-20.254 5.126-20.254 11.651z" fill="#00a0b6"/><path d="m317.557 342.815c0-2.098 1.164-4.195 3.027-6.059 3.725-2.33 9.079-3.961 15.132-3.961 11.175 0 20.255 5.126 20.255 11.651 0 2.097-1.164 4.194-3.027 6.058-3.725 2.33-9.079 3.961-15.132 3.961-11.175 0-20.255-5.359-20.255-11.65z" fill="#f9fcff"/><path d="m338.043 331.862c10.709 0 19.323 4.893 19.323 10.952 0 6.058-8.614 10.951-19.323 10.951s-19.323-4.893-19.323-10.951c0-6.059 8.614-10.952 19.323-10.952zm0 23.302c11.641 0 20.953-5.593 20.953-12.35 0-6.758-9.312-12.35-20.953-12.35-11.64 0-20.953 5.592-20.953 12.35 0 6.757 9.313 12.35 20.953 12.35z" fill="#006587"/><path d="m327.804 342.116c0 3.029 4.656 5.36 10.243 5.36 5.588 0 10.244-2.331 10.244-5.36s-4.656-5.359-10.244-5.359c-5.587 0-10.243 2.33-10.243 5.359z" fill="#f9fcff"/><path d="m338.042 336.757c1.397 0 2.561.233 3.725.466 2.328.932 3.958 2.563 3.958 4.194 0 3.029-4.657 5.36-10.244 5.36-1.397 0-2.561-.234-3.725-.467-2.328-.932-3.958-2.563-3.958-4.194 0-3.029 4.656-5.359 10.244-5.359z" fill="#00a0b6"/><g fill="#006587"><path d="m338.044 337.454c5.122 0 9.545 2.097 9.545 4.661 0 2.563-4.423 4.66-9.545 4.66s-9.545-2.097-9.545-4.66c.232-2.564 4.423-4.661 9.545-4.661zm0 10.952c6.286 0 11.175-2.796 11.175-6.291 0-3.496-4.889-6.292-11.175-6.292s-11.175 2.796-11.175 6.292c.233 3.495 5.122 6.291 11.175 6.291z"/><path d="m338.047 340.252c-4.423 0-8.148 1.398-9.545 3.728-.233-.466-.466-1.165-.466-1.864 0-3.029 4.656-5.359 10.244-5.359 5.587 0 10.243 2.33 10.243 5.359 0 .699-.232 1.165-.698 1.864-1.397-2.33-5.122-3.728-9.778-3.728z"/><path d="m338.044 337.454c5.122 0 9.545 2.097 9.545 4.66v.466c-1.862-1.864-5.587-3.029-9.545-3.029s-7.45 1.165-9.313 2.796v-.233c0-2.563 4.191-4.66 9.313-4.66zm9.079 6.757h1.397c.466-.699.699-1.398.699-2.33 0-3.495-4.889-6.291-11.175-6.291s-11.175 2.796-11.175 6.291c0 .699.233 1.398.698 2.097l2.096.933-.699-.933c1.397-1.864 4.889-3.262 9.08-3.262 4.19.233 7.915 1.631 9.079 3.495z"/><path d="m342.468 354.465.466 7.457h-9.08l-8.381-2.097-4.424-1.865-3.957-3.495-.932-4.66 1.165-5.826 2.328 3.496 3.026 2.796 6.752 3.029 8.614 1.165z"/><path d="m357.366 346.077 1.63 7.457 1.164-4.661-1.397-5.126z"/><path d="m262.109 332.491c-.932.466-.932 1.398 0 1.864.931.466 2.328.466 3.259 0s.931-1.398 0-1.864-2.328-.466-3.259 0z"/><path d="m253.724 327.598c-.931.466-.931 1.398 0 1.864s2.328.466 3.259 0 .931-1.398 0-1.864-2.328-.466-3.259 0z"/><path d="m270.486 327.598c-.932.466-.932 1.398 0 1.864.931.466 2.328.466 3.259 0s.931-1.398 0-1.864-2.328-.466-3.259 0z"/><path d="m262.109 322.705c-.932.466-.932 1.398 0 1.864.931.466 2.328.466 3.259 0s.931-1.398 0-1.864-2.328-.466-3.259 0z"/><path d="m278.872 322.705c-.931.466-.931 1.398 0 1.864.932.466 2.328.466 3.26 0 .931-.466.931-1.398 0-1.864-.932-.466-2.328-.466-3.26 0z"/><path d="m270.486 317.809c-.932.467-.932 1.399 0 1.865.931.466 2.328.466 3.259 0s.931-1.398 0-1.865c-.931-.466-2.328-.466-3.259 0z"/><path d="m287.249 317.809c-.931.467-.931 1.399 0 1.865.932.466 2.328.466 3.26 0 .931-.466.931-1.398 0-1.865-.932-.466-2.328-.466-3.26 0z"/><path d="m278.872 313.153c-.931.466-.931 1.398 0 1.864.932.466 2.328.466 3.26 0 .931-.466.931-1.398 0-1.864-.932-.699-2.328-.699-3.26 0z"/><path d="m295.863 313.153c-.932.466-.932 1.398 0 1.864.931.466 2.328.466 3.259 0s.931-1.398 0-1.864c-.931-.699-2.561-.699-3.259 0z"/><path d="m287.249 308.257c-.931.466-.931 1.398 0 1.864.932.466 2.328.466 3.26 0 .931-.466.931-1.398 0-1.864-.932-.466-2.328-.466-3.26 0z"/><path d="m304.249 308.258c-.931.466-.931 1.398 0 1.864.932.466 2.328.466 3.26 0 .931-.466.931-1.398 0-1.864-.932-.699-2.328-.699-3.26 0z"/><path d="m295.863 303.365c-.932.466-.932 1.398 0 1.864.931.466 2.328.466 3.259 0s.931-1.398 0-1.864-2.328-.466-3.259 0z"/><path d="m312.626 303.365c-.931.466-.931 1.398 0 1.864s2.328.466 3.26 0c.931-.466.931-1.398 0-1.864-.932-.466-2.329-.466-3.26 0z"/><path d="m304.249 298.471c-.931.466-.931 1.398 0 1.864.932.466 2.328.466 3.26 0 .931-.466.931-1.398 0-1.864-.932-.466-2.328-.466-3.26 0z"/><path d="m321.007 298.471c-.931.466-.931 1.398 0 1.864s2.328.466 3.259 0c.932-.466.932-1.398 0-1.864-.931-.466-2.328-.466-3.259 0z"/><path d="m312.626 293.576c-.931.466-.931 1.398 0 1.864s2.328.466 3.26 0c.931-.466.931-1.398 0-1.864-.932-.466-2.329-.466-3.26 0z"/><path d="m329.392 293.576c-.931.466-.931 1.398 0 1.864s2.328.466 3.259 0 .931-1.398 0-1.864-2.328-.466-3.259 0z"/><path d="m321.007 288.684c-.931.467-.931 1.399 0 1.865s2.328.466 3.259 0c.932-.466.932-1.398 0-1.865-.931-.466-2.328-.466-3.259 0z"/><path d="m337.769 288.684c-.931.467-.931 1.399 0 1.865s2.328.466 3.259 0 .931-1.398 0-1.865c-.931-.466-2.328-.466-3.259 0z"/><path d="m329.392 284.023c-.931.466-.931 1.398 0 1.864s2.328.466 3.259 0 .931-1.398 0-1.864c-.931-.699-2.328-.699-3.259 0z"/><path d="m346.154 284.023c-.932.466-.932 1.398 0 1.864.931.466 2.328.466 3.259 0s.931-1.398 0-1.864c-.931-.699-2.328-.699-3.259 0z"/><path d="m337.769 279.129c-.931.466-.931 1.398 0 1.864s2.328.466 3.259 0 .931-1.398 0-1.864-2.328-.466-3.259 0z"/><path d="m354.529 279.129c-.932.466-.932 1.398 0 1.864.931.466 2.328.466 3.259 0s.931-1.398 0-1.864-2.328-.466-3.259 0z"/><path d="m346.154 274.237c-.932.466-.932 1.398 0 1.864.931.466 2.328.466 3.259 0s.931-1.398 0-1.864-2.328-.466-3.259 0z"/><path d="m362.911 274.237c-.931.466-.931 1.398 0 1.864.932.466 2.328.466 3.26 0 .931-.466.931-1.398 0-1.864-.932-.466-2.328-.466-3.26 0z"/><path d="m354.529 269.347c-.932.466-.932 1.398 0 1.864.931.466 2.328.466 3.259 0s.931-1.398 0-1.864-2.328-.466-3.259 0z"/><path d="m371.529 269.347c-.932.466-.932 1.398 0 1.864.931.466 2.328.466 3.259 0s.931-1.398 0-1.864-2.561-.466-3.259 0z"/><path d="m363.148 264.451c-.932.466-.932 1.398 0 1.864.931.466 2.328.466 3.259 0s.931-1.398 0-1.864c-1.164-.466-2.561-.466-3.259 0z"/><path d="m371.529 259.559c-.932.467-.932 1.399 0 1.865.931.466 2.328.466 3.259 0s.931-1.398 0-1.865c-.931-.466-2.561-.466-3.259 0z"/><path d="m228.353 341.345c-.931.466-.931 1.398 0 1.864s2.328.466 3.259 0 .931-1.398 0-1.864-2.328-.466-3.259 0z"/><path d="m219.964 336.455c-.931.466-.931 1.398 0 1.864s2.328.466 3.259 0c.932-.466.932-1.398 0-1.864-.931-.466-2.328-.466-3.259 0z"/><path d="m211.585 331.793c-.931.466-.931 1.398 0 1.864s2.328.466 3.26 0c.931-.466.931-1.398 0-1.864-.932-.699-2.329-.699-3.26 0z"/><path d="m203.21 326.9c-.931.466-.931 1.398 0 1.864s2.328.466 3.26 0c.931-.466.931-1.398 0-1.864-.932-.466-2.561-.466-3.26 0z"/><path d="m194.824 322.004c-.932.466-.932 1.398 0 1.864.931.466 2.328.466 3.259 0s.931-1.398 0-1.864-2.561-.466-3.259 0z"/><path d="m186.447 317.114c-.932.466-.932 1.398 0 1.864.931.466 2.328.466 3.259 0s.931-1.398 0-1.864-2.561-.466-3.259 0z"/><path d="m178.06 312.222c-.931.466-.931 1.398 0 1.864s2.328.466 3.259 0 .931-1.398 0-1.864-2.561-.466-3.259 0z"/><path d="m169.45 307.559c-.931.466-.931 1.399 0 1.865.932.466 2.329.466 3.26 0s.931-1.399 0-1.865c-.931-.699-2.328-.699-3.26 0z"/><path d="m161.068 302.664c-.932.466-.932 1.398 0 1.864.931.466 2.328.466 3.259 0s.931-1.398 0-1.864-2.328-.466-3.259 0z"/><path d="m152.683 297.773c-.931.466-.931 1.398 0 1.864.931.467 2.328.467 3.259 0 .931-.466.931-1.398 0-1.864s-2.328-.466-3.259 0z"/><path d="m144.304 292.881c-.931.466-.931 1.398 0 1.864s2.328.466 3.259 0c.932-.466.932-1.398 0-1.864-.931-.466-2.328-.466-3.259 0z"/><path d="m135.927 287.984c-.931.466-.931 1.398 0 1.864s2.328.466 3.259 0c.932-.466.932-1.398 0-1.864-.931-.466-2.328-.466-3.259 0z"/><path d="m245.113 341.345c-.932.466-.932 1.398 0 1.864.931.466 2.328.466 3.259 0s.931-1.398 0-1.864-2.328-.466-3.259 0z"/><path d="m236.734 336.455c-.932.466-.932 1.398 0 1.864.931.466 2.328.466 3.259 0s.931-1.398 0-1.864-2.328-.466-3.259 0z"/><path d="m228.353 331.793c-.931.466-.931 1.398 0 1.864s2.328.466 3.259 0 .931-1.398 0-1.864c-.931-.699-2.328-.699-3.259 0z"/><path d="m219.964 326.9c-.931.466-.931 1.398 0 1.864s2.328.466 3.259 0c.932-.466.932-1.398 0-1.864-.931-.466-2.328-.466-3.259 0z"/><path d="m211.585 322.004c-.931.466-.931 1.398 0 1.864s2.328.466 3.26 0c.931-.466.931-1.398 0-1.864-.932-.466-2.329-.466-3.26 0z"/><path d="m203.21 317.114c-.931.466-.931 1.398 0 1.864s2.328.466 3.26 0c.931-.466.931-1.398 0-1.864-.932-.466-2.561-.466-3.26 0z"/><path d="m194.824 312.222c-.932.466-.932 1.398 0 1.864.931.466 2.328.466 3.259 0s.931-1.398 0-1.864-2.561-.466-3.259 0z"/><path d="m186.447 307.559c-.932.466-.932 1.399 0 1.865.931.466 2.328.466 3.259 0s.931-1.399 0-1.865c-.931-.699-2.561-.699-3.259 0z"/><path d="m178.06 302.664c-.931.466-.931 1.398 0 1.864s2.328.466 3.259 0 .931-1.398 0-1.864-2.561-.466-3.259 0z"/><path d="m169.45 297.773c-.931.466-.931 1.398 0 1.864.932.467 2.329.467 3.26 0 .931-.466.931-1.398 0-1.864s-2.328-.466-3.26 0z"/><path d="m161.068 292.881c-.932.466-.932 1.398 0 1.864.931.466 2.328.466 3.259 0s.931-1.398 0-1.864-2.328-.466-3.259 0z"/><path d="m152.683 287.984c-.931.466-.931 1.398 0 1.864s2.328.466 3.259 0 .931-1.398 0-1.864-2.328-.466-3.259 0z"/><path d="m144.304 283.092c-.931.466-.931 1.398 0 1.864s2.328.466 3.259 0c.932-.466.932-1.398 0-1.864-.931-.466-2.328-.466-3.259 0z"/><path d="m253.495 336.455c-.931.466-.931 1.398 0 1.864.932.466 2.328.466 3.26 0 .931-.466.931-1.398 0-1.864-.932-.466-2.328-.466-3.26 0z"/><path d="m245.113 331.793c-.932.466-.932 1.398 0 1.864.931.466 2.328.466 3.259 0s.931-1.398 0-1.864c-.931-.699-2.328-.699-3.259 0z"/><path d="m236.734 326.9c-.932.466-.932 1.398 0 1.864.931.466 2.328.466 3.259 0s.931-1.398 0-1.864-2.328-.466-3.259 0z"/><path d="m130.805 283.324c-.931-.466-2.328-.466-3.259 0s-.931 1.398 0 1.864 2.328.466 3.259 0c.932-.466.932-1.398 0-1.864z"/><path d="m119.161 278.428c-.931.466-.931 1.398 0 1.864.932.466 2.328.466 3.26 0 .931-.466.931-1.398 0-1.864-.932-.466-2.328-.466-3.26 0z"/><path d="m110.786 273.54c-.931.466-.931 1.398 0 1.864.932.466 2.328.466 3.26 0 .931-.466.931-1.398 0-1.864-.932-.466-2.328-.466-3.26 0z"/><path d="m102.4 268.644c-.932.466-.932 1.399 0 1.865.931.466 2.328.466 3.259 0s.931-1.399 0-1.865-2.328-.466-3.259 0z"/><path d="m94.0168 263.984c-.9312.466-.9312 1.398 0 1.864.9313.466 2.3281.466 3.2594 0 .9312-.466.9312-1.398 0-1.864-.9313-.699-2.3281-.699-3.2594 0z"/><path d="m85.634 259.091c-.9313.466-.9313 1.398 0 1.864.9312.466 2.3281.466 3.2594 0 .9312-.466.9312-1.398 0-1.864-.9313-.466-2.3282-.466-3.2594 0z"/><path d="m77.2571 254.201c-.9312.466-.9312 1.398 0 1.864s2.3281.466 3.2593 0c.9313-.466.9313-1.398 0-1.864-.9312-.466-2.3281-.466-3.2593 0z"/><path d="m68.8743 249.303c-.9313.466-.9313 1.398 0 1.864.9312.466 2.3281.466 3.2593 0s.9312-1.398 0-1.864-2.3281-.466-3.2593 0z"/><path d="m60.4934 244.412c-.9312.466-.9312 1.398 0 1.864.9313.466 2.3281.466 3.2593 0 .9313-.466.9313-1.398 0-1.864-.9312-.466-2.328-.466-3.2593 0z"/><path d="m139.186 278.428c-.931-.466-2.328-.466-3.259 0s-.931 1.398 0 1.864 2.328.466 3.259 0c.932-.466.932-1.398 0-1.864z"/><path d="m127.546 273.54c-.931.466-.931 1.398 0 1.864s2.328.466 3.259 0c.932-.466.932-1.398 0-1.864-.931-.466-2.328-.466-3.259 0z"/><path d="m119.161 268.644c-.931.466-.931 1.399 0 1.865.932.466 2.328.466 3.26 0 .931-.466.931-1.399 0-1.865-.932-.466-2.328-.466-3.26 0z"/><path d="m110.786 263.984c-.931.466-.931 1.398 0 1.864.932.466 2.328.466 3.26 0 .931-.466.931-1.398 0-1.864-.932-.699-2.328-.699-3.26 0z"/><path d="m102.4 259.092c-.932.466-.932 1.398 0 1.864.931.466 2.328.466 3.259 0s.931-1.398 0-1.864-2.328-.466-3.259 0z"/><path d="m94.0168 254.201c-.9312.466-.9312 1.398 0 1.864.9313.466 2.3281.466 3.2594 0 .9312-.466.9312-1.398 0-1.864-.9313-.466-2.3281-.466-3.2594 0z"/><path d="m85.634 249.303c-.9313.466-.9313 1.398 0 1.864.9312.466 2.3281.466 3.2594 0 .9312-.466.9312-1.398 0-1.864-.9313-.466-2.3282-.466-3.2594 0z"/><path d="m77.2571 244.412c-.9312.466-.9312 1.398 0 1.864s2.3281.466 3.2593 0c.9313-.466.9313-1.398 0-1.864-.9312-.466-2.3281-.466-3.2593 0z"/><path d="m68.8743 239.518c-.9313.466-.9313 1.399 0 1.865.9312.466 2.3281.466 3.2593 0s.9312-1.399 0-1.865-2.3281-.466-3.2593 0z"/><path d="m60.4934 234.858c-.9312.466-.9312 1.398 0 1.864.9313.466 2.3281.466 3.2593 0 .9313-.466.9313-1.398 0-1.864-.9312-.699-2.328-.699-3.2593 0z"/></g><path d="m66.3118 219.247c0-.233 0-.233 0 0v-4.894h3.0265c.2328-.233.4656-.233.6984-.466l121.9923-70.37c5.355-3.03 14.667-2.797 20.953.932l155.983 90.643c.931.466 1.862 1.165 2.56 2.097h2.329v10.719c0 1.864-1.165 3.728-3.493 5.126l-121.992 70.604c-5.355 3.029-14.667 2.796-20.953-.932l-155.9824-90.644c-3.2593-1.864-4.889-4.194-5.1218-6.524v-2.796z" fill="#00a0b6"/><path d="m66.3169 225.07v-2.797-3.029-.233-4.66h3.0265c.2328-.233.4656-.233.6984-.466l45.3982-26.098c3.492 0 6.053.233 6.984.699 6.519 2.097 110.119 62.448 112.214 71.769 2.096 9.088 6.053 54.992 6.053 54.992v10.252c-4.423.233-9.312-.699-13.27-2.796l-155.9823-90.643c-3.2593-2.33-5.1218-4.66-5.1218-6.99z" fill="#006587"/><path d="m372.691 238.119v9.554c0 1.631-1.164 3.029-3.026 4.194l-121.992 70.604c-5.122 3.029-13.969 2.563-19.789-.932l-155.9828-90.643c-2.7937-1.631-4.4234-3.728-4.6562-5.593v-6.058-3.728h2.3282l.2328-.233c.2328-.233.4656-.233.4656-.466l122.2254-70.371c5.122-2.796 13.968-2.563 19.789.932l155.982 90.643c.931.466 1.863 1.165 2.561 1.864l.233.233zm-133.632 88.313c3.492 0 6.984-.699 9.545-2.097l122.225-70.604c2.561-1.398 4.191-3.728 4.191-6.058v-11.651h-3.027c-.698-.699-1.63-1.398-2.561-1.864l-155.982-90.643c-6.519-3.728-16.297-4.194-21.885-.932l-121.9918 70.604c-.2329 0-.2329.233-.4657.233h-3.725v11.883c.2329 2.797 2.0954 5.593 5.5875 7.457l155.983 90.643c3.259 2.097 7.915 3.029 12.106 3.029z" fill="#006587"/><path d="m248.138 313.15 121.993-70.604c5.354-3.029 4.656-8.388-1.397-12.117l-155.983-90.643c-6.286-3.495-15.598-3.961-20.953-.932l-121.992 70.604c-5.3547 3.029-4.6563 8.389 1.3968 12.117l155.9822 90.643c6.286 3.495 15.599 3.961 20.953.932z" fill="#00a0b6"/><path d="m201.111 137.925c3.957 0 8.148.932 11.175 2.796l155.982 90.643c2.794 1.631 4.656 3.729 4.656 5.826 0 1.631-1.164 3.262-3.026 4.194l-121.993 70.604c-5.121 3.029-13.968 2.563-19.788-.932l-155.9829-90.643c-2.7938-1.631-4.6562-3.729-4.6562-5.826 0-1.631 1.164-3.262 3.0265-4.194l121.9926-70.604c2.328-1.165 5.354-1.864 8.614-1.864zm37.948 178.257c3.492 0 6.984-.699 9.545-2.097l122.225-70.604c2.561-1.631 4.191-3.728 4.191-6.058 0-2.796-2.096-5.593-5.588-7.69l-155.982-90.643c-6.519-3.728-16.297-4.194-21.885-.932l-121.9918 70.604c-2.561 1.631-4.1907 3.728-4.1907 6.058 0 2.796 2.0954 5.593 5.5875 7.69l155.983 90.643c3.259 2.097 7.915 3.029 12.106 3.029z" fill="#006587"/><path d="m236.498 306.161.466-.233 117.802-68.04-148.3-86.216-.466.233-117.8016 68.04z" fill="#006587"/><path d="m235.798 299.403 119.897-69.206-151.326-88.08-119.6643 69.206z" fill="#f9fcff"/><path d="m353.606 230.198-117.569 68.041-149.2308-86.682 117.5688-68.274zm-117.801 70.371.465-.233 121.527-70.138-153.422-89.245-.465.233-121.5272 70.138z" fill="#006587"/><path d="m103.793 171.011v.466l12.106-6.991c.233.233.466.233.699.466 3.492 2.097 5.354 5.127 8.846 3.262 3.493-2.097 6.985-2.563 3.493-4.66-.233-.233-.466-.233-.699-.466l-1.164-9.088 4.656-1.631.699 8.389 13.503-13.515c2.328-1.398 6.518-.699 7.217 1.165l1.63 4.194 1.629-.233v10.02c0 .699-.465 1.165-1.164 1.631l-37.017 21.438c-.931.699-2.561.932-3.957.699l-13.503-1.632c-2.0956-.233-3.4925-1.398-3.2597-2.563v-9.786z" fill="#006587"/><path d="m155.483 162.391c0 .233-.233.466-.698.932l-37.017 21.437c-.931.466-2.095.699-3.259.466l-13.503-1.631c-1.63-.233-2.3284-.932-2.3284-1.398v-9.088l4.1904-.699v.932l13.038-7.456h.232c.932.466 1.63 1.165 2.328 1.631 2.096 1.631 4.424 3.262 7.683 1.631.699-.466 1.63-.699 2.328-1.165 1.863-.932 3.26-1.631 3.26-3.029 0-1.165-.932-1.864-1.863-2.33 0 0-1.397.932-1.63.699v-8.389l2.794-1.398.931 9.321 14.9-15.146c1.164-.699 2.794-.699 4.191-.233.698.233 1.164.699 1.397.932l2.095 4.893 1.164-.233zm-40.276 24.932c1.397 0 2.561-.233 3.492-.932l37.017-21.437c.466-.233.931-.699 1.164-1.165l.466.233v-13.049l-1.863.233-1.397-3.495c-.465-.932-1.396-1.631-2.561-2.098-2.095-.699-4.423-.466-6.053.467l-.232.233-11.874 11.883-.698-7.223-6.984 2.563v11.418l1.862-.699c.466.233.466.233.698.233.466.233.699.466.699.466-.466.233-1.164.699-1.863 1.165-.698.466-1.629.699-2.328 1.165-1.862 1.165-3.026.233-5.121-1.398-.699-.466-1.63-1.165-2.561-1.864-.233 0-.233-.233-.466-.233l-.466-.466-.698.233-10.942 6.291-7.45 1.165c-.4657 0-.6985.466-.6985.699v10.253c-.2328 1.631 1.6297 3.262 4.1905 3.728l13.503 1.631z" fill="#006587"/><path d="m98.6715 170.314 17.2275-10.02c.233.233.466.233.699.466 3.492 2.098 9.079 2.098 12.572 0 3.492-2.097 3.492-5.126 0-7.223-.233-.233-.466-.233-.699-.466l17.927-10.253c2.328-1.398 6.518-.699 7.217 1.165l3.259 7.69c.233.932 0 1.631-1.164 2.33l-37.017 21.437c-.931.699-2.561.932-3.958.699l-13.503-1.631c-3.7245-.466-4.8886-2.796-2.5605-4.194z" fill="#f9fcff"/><path d="m149.198 143.282c.699 0 1.397 0 1.863.233.698.233 1.164.699 1.396.932l3.26 7.69c.233.466-.466.932-.699.932l-37.016 21.437c-.932.466-2.096.699-3.26.466l-13.503-1.631c-1.6294-.233-2.3278-.932-2.3278-1.398s.4656-.699.6984-.932l16.7624-9.553h.233c3.725 2.097 9.778 2.097 13.503 0 2.095-1.166 3.026-2.797 3.026-4.428 0-1.398-.698-2.796-2.328-3.961l16.297-9.321c.233-.233 1.164-.466 2.095-.466zm-33.99 34.021c1.397 0 2.561-.233 3.492-.932l37.017-21.438c1.629-.932 2.095-2.33 1.629-3.728l-3.259-7.69c-.465-.932-1.397-1.631-2.561-2.097-2.095-.699-4.423-.466-6.053.466l-19.556 11.418 1.863.932c.465.233.465.233.698.233 1.397.699 2.095 1.631 2.095 2.563s-.698 1.864-2.095 2.563c-3.026 1.865-8.381 1.865-11.408 0-.232 0-.232-.233-.465-.233l-.466-.466-.698.233-17.2282 10.02c-1.3969.699-2.0953 1.864-1.8625 3.262.2328 1.631 1.8625 2.796 4.1907 3.029l13.503 1.632c.465.233.931.233 1.164.233z" fill="#006587"/><path d="m96.5771 204.799 95.9179-55.458c2.328-1.398 2.095-3.728-.699-5.126l-6.053-3.495c-2.561-1.632-6.751-1.632-9.079-.466l-95.918 55.457c-2.3281 1.398-2.0953 3.729.6985 5.127l6.053 3.495c2.7937 1.631 6.7515 1.864 9.0796.466z" fill="#f9fcff"/><path d="m96.114 203.866c-1.8624 1.165-5.5874.932-7.9155-.466l-6.0531-3.495c-.9312-.699-1.6296-1.398-1.6296-2.097s.4656-1.165.9312-1.398l96.15-55.225c1.863-1.165 5.588-.932 7.916.466l6.053 3.495c.931.466 1.397 1.165 1.397 1.864 0 .7-.466 1.166-.931 1.399zm-3.4921 3.03c1.6297 0 3.2593-.234 4.4234-.933l96.1507-55.69c1.164-.699 2.095-1.864 2.095-3.263 0-1.398-.931-2.796-2.794-3.961l-6.053-3.495c-3.026-1.631-7.45-1.864-10.011-.466l-95.9172 55.458c-1.3969.699-2.0953 1.864-2.0953 3.262s.9312 2.796 2.7937 3.961l6.0531 3.495c1.3968.932 3.4921 1.632 5.3546 1.632z" fill="#006587"/><path d="m126.608 191.984 47.959-27.729c1.164-.699.931-1.864-.233-2.564l-3.027-1.631c-1.396-.699-3.259-.932-4.423-.233l-47.959 27.729c-1.164.699-.931 1.864.233 2.563l3.027 1.631c1.164.933 3.259.933 4.423.234z" fill="#00a0b6"/><path d="m168.745 160.293c.698 0 1.396.233 2.095.466l3.026 1.631c.466.233.466.466.466.466s0 0-.233.233l-47.959 27.729c-.931.466-2.328.466-3.492-.233l-3.026-1.631c-.466-.233-.466-.466-.466-.466s0 0 .233-.233l47.959-27.496c.465-.233.931-.466 1.397-.466zm-44.001 33.321c.931 0 1.862-.233 2.56-.699l47.959-27.728c.932-.467 1.397-1.166 1.397-2.098s-.698-1.864-1.63-2.33l-3.026-1.631c-1.63-.932-4.191-1.165-5.587-.233l-48.192 27.729c-.931.466-1.397 1.165-1.397 2.097s.698 1.864 1.63 2.33l3.026 1.631c.931.699 2.096.932 3.26.932z" fill="#006587"/><path d="m302.586 11.4137c0-.2415 0-.2415-.242-.483l-15.213-9.17646c-.725-.72446-1.932-.48297-3.14.48297l-5.554 4.82974c-.241.24149-27.771 22.94125-57.957 17.38705-.724 0-1.207-.2415-1.931 0-2.898.2415-6.279 2.1734-9.418 5.3127-.725.7245-1.449 1.6904-1.932 2.4149-28.979 39.6038-56.75 49.0218-57.957 49.5048l-5.554 1.6904c-1.932.7244-3.623 3.3808-3.623 5.5542v6.5201c1.449 85.0029 24.873 117.8459 44.675 130.6439l18.353 11.35 1.208-3.622c3.622.483 6.037.242 6.52.242 1.932-.242 3.864-1.449 5.796-3.381 2.415-2.657 56.749-61.821 68.582-181.3569l8.21-17.87z" fill="#006587"/><path d="m220.475 25.4211c30.427 5.5542 57.715-16.66264 58.922-17.62859l5.555-4.82974c.724-.48297 1.449-.48297 1.449-.24148l14.73 8.93501-8.452 19.319-8.21 17.87v.4829c-11.833 119.2948-65.926 177.9758-68.341 180.6318-1.691 1.691-3.381 2.898-5.071 2.898-.483 0-2.657.242-6.279-.241l-.966-.242-.966 3.14-16.904-10.384c-19.319-12.558-42.743-45.4-43.951-129.6788v-6.5201c0-1.6904 1.449-3.8638 2.898-4.3468l5.554-1.9319c1.208-.4829 29.22-10.1424 58.44-49.9877.725-.966 1.208-1.6904 1.932-2.4149 2.657-2.8979 5.796-4.8297 8.452-5.0712h.483c0 .2415.483.2415.725.2415zm-14.973 209.6109c3.381.483 5.313.241 5.796.241 2.174-.241 4.588-1.449 6.52-3.864 2.415-2.415 56.991-61.82 68.824-181.8393l8.211-17.6285 8.693-20.0434c.242-.7245 0-1.6904-.724-1.93191l-14.972-9.176498c-1.208-.965947-2.898-.7244604-4.589.482978l-5.554 4.82973c-1.207.96595-27.529 22.4583-56.991 17.1456-.724-.2415-1.449-.2415-2.173 0-3.381.2415-7.003 2.4148-10.143 5.7957-.724.7244-1.449 1.6904-2.173 2.6563-28.737 39.1209-56.025 48.5389-57.232 49.0218l-5.555 1.6904c-2.414.7245-4.588 4.1053-4.588 6.7617v6.5201c1.449 85.4863 25.356 118.8113 45.158 131.8523l19.802 12.074z" fill="#006587"/><path d="m287.372 1.75424c-.724-.72446-1.932-.48297-3.139.48297l-5.554 4.82974c-.242.24149-27.771 22.94125-57.957 17.38705-.725 0-1.208-.2415-1.932 0-2.898.2415-6.279 2.1734-9.418 5.3127-.724.7245-1.449 1.6904-1.932 2.4149-28.978 39.6038-56.749 49.0218-57.957 49.5048l-5.554 1.6904c-.966.2415-1.932 1.2074-2.656 2.4149l45.641 25.8393 96.112-40.57c.965-7.0032 1.931-14.2478 2.656-21.7339l8.21-17.87 8.694-20.0434c0-.2415 0-.2415-.242-.483z" fill="#f9fcff"/><path d="m144.165 84.586 5.554-1.9319c1.207-.483 29.22-10.1424 58.44-49.9878.724-.9659 1.207-1.6904 1.932-2.4148 2.656-2.8979 5.795-4.8298 8.452-5.0712h1.69c30.428 5.5542 57.716-16.66263 58.923-17.62858l5.554-4.82973c.966-.24149 1.691-.24149 1.691 0l14.73 8.93501-8.452 19.3189-8.21 17.8701v.4829c-.725 7.0032-1.449 14.0063-2.657 20.7679l-94.904 39.8452-43.709-24.873c.241-.2415.724-.483.966-.483zm139.821-12.5573v-.7245c.966-7.0031 1.932-14.2477 2.656-21.4923l8.211-17.6285 8.693-20.0434c.242-.7245 0-1.6904-.724-1.9319l-14.972-9.17652c-1.208-.9659476-2.898-.724461-4.589.48297l-5.554 4.82974c-1.207.96595-27.529 22.45831-56.991 17.14561-.724-.2415-1.449-.2415-2.173 0-3.381.2414-7.003 2.4148-10.143 5.7956-.724.7245-1.449 1.6904-2.173 2.6564-28.737 39.1209-56.025 48.5388-57.232 49.0218l-5.555 1.6904c-1.207.483-2.415 1.4489-3.38 2.8979l-.725 1.2074 47.332 26.8046z" fill="#006587"/><path d="m174.107 104.147c12.316-6.7618 32.359-20.768 53.127-47.573 1.449-1.9319 3.381-2.8979 4.83-2.8979 21.251 2.4149 40.811-6.5201 53.127-13.7647 1.691-.966 2.898-.2415 2.657 1.6904-4.347 98.5262-38.88 156.0002-54.093 176.7682-2.415 3.381-7.004 7.969-9.66 7.245-15.214-3.381-48.539-23.907-52.886-116.88 0-1.449 1.449-3.622 2.898-4.588zm58.44 135.957c2.898-2.898 68.582-74.62 70.756-220.4775v-6.7617c0-2.1733-1.691-2.8978-3.623-1.4489l-5.554 4.8298c-.241.2414-27.771 22.9412-57.957 17.387-.724 0-1.207-.2415-1.932 0-2.897.2415-6.278 2.1734-9.417 5.3127-.725.7245-1.449 1.6904-1.932 2.4149-28.979 39.6038-56.75 49.0218-57.957 49.5048l-5.554 1.6904c-1.932.7244-3.623 3.3808-3.623 5.5542v6.5203c2.174 143.201 68.1 138.855 70.756 138.613 2.173.242 4.105-.966 6.037-3.139z" fill="#00a0b6"/><path d="m172.661 108.977c0-1.208.966-3.139 2.173-3.864 13.04-7.2445 32.842-21.4922 53.61-48.0558 1.449-1.6904 2.656-2.4148 3.622-2.4148 21.251 2.4148 41.053-6.2787 53.852-13.7648.483-.2415.724-.2415.724-.2415s.242.2415.242.7245c-4.347 98.5264-39.121 156.0004-53.852 176.0434-2.898 3.864-6.761 7.245-8.21 6.762-11.35-1.932-47.573-17.628-52.161-115.189zm62.303 110.359c14.972-20.285 49.988-78.241 54.335-177.4924 0-1.4489-.483-2.4149-1.449-3.1394-.966-.4829-2.174-.4829-3.381.2415-12.557 7.4861-31.635 15.9382-52.161 13.5233-1.932-.2415-4.105.9659-5.796 3.3808-20.526 26.0806-39.845 40.0868-52.644 47.3312-1.932 1.208-3.622 3.864-3.381 6.037 4.83 99.251 42.502 115.431 53.852 118.087h.724c3.14 0 7.728-5.071 9.901-7.969zm.966-184.2541c30.428 5.5542 57.716-16.6625 58.923-17.6285l5.554-4.8297c.966-.483 1.449-.483 1.691-.483.241 0 .241.483.241.9659v6.7617c-2.173 145.3747-67.616 216.6137-70.514 219.5117-1.691 1.69-3.381 2.898-5.071 2.898-.725 0-16.421 1.207-32.601-13.282s-35.74-47.815-36.948-124.124v-6.5205c0-1.6904 1.449-3.8638 2.898-4.3468l5.555-1.9319c.965-.2415 28.978-9.9009 58.439-49.7463.725-.7244 1.208-1.6904 1.932-2.4148 2.657-2.8979 5.796-4.8298 8.452-5.0712h.483c.483 0 .725.2414.966.2414zm-8.935 209.8521c2.174-.241 4.588-1.449 6.52-3.622 2.898-2.898 68.824-74.861 71.239-221.2022v-6.7617c0-1.4489-.483-2.6563-1.691-3.1393-1.207-.48297-2.656-.24149-4.105.9659l-5.554 4.8298c-1.207.9659-27.529 22.4583-56.991 17.1455-.724-.2414-1.449-.2414-2.173 0-3.381.2415-7.003 2.4149-10.143 5.7957-.724.7245-1.449 1.6904-2.173 2.6564-28.737 39.1209-56.025 48.5388-57.232 49.0218l-5.555 1.6904c-2.414.7245-4.588 4.1053-4.588 6.7617v6.52c1.208 77.276 21.251 111.084 37.672 126.056 14.006 12.558 27.53 14.006 32.601 14.006 1.207-.724 1.69-.724 2.173-.724z" fill="#006587"/><path d="m285.196 40.1523c-12.074 7.2446-31.876 16.1796-53.127 13.7647-1.449-.2415-3.381.966-4.83 2.8979-20.768 26.805-40.811 40.8112-53.127 47.5731-1.69.966-2.898 3.139-2.898 5.071 4.347 92.731 37.672 113.499 52.886 116.88 2.415.483 7.003-3.864 9.659-7.245 15.214-20.768 49.747-78.242 54.093-176.7684.242-2.4148-1.207-3.1393-2.656-2.1733z" fill="#00a0b6"/><path d="m232.068 54.8824c21.251 2.4149 41.053-6.2786 53.852-13.7647.483-.2415.724-.2415.724-.2415s.242.2415.242.7245c-4.347 98.5263-39.121 156.0003-53.852 176.0443-2.897 3.863-6.761 7.244-8.21 6.761-11.109-2.415-47.332-18.111-51.92-115.672 0-1.207.966-3.139 2.174-3.864 13.04-7.2444 32.842-21.4921 53.61-48.0557.966-1.2074 2.173-1.9319 3.38-1.9319-.241 0-.241 0 0 0zm2.898 164.4526c14.731-20.285 49.988-78.242 54.335-177.4929 0-1.4489-.483-2.4148-1.449-3.1393-.966-.483-2.174-.483-3.381.2415-12.557 7.4861-31.635 15.9381-52.161 13.5233-1.932-.2415-4.105.9659-5.796 3.3808-20.526 26.0806-39.845 40.0868-52.644 47.3316-1.932 1.207-3.622 3.864-3.381 6.037 4.83 99.251 42.502 115.431 53.852 118.087h.724c3.14 0 7.728-5.071 9.901-7.969z" fill="#006587"/><path d="m285.196 40.1532c-2.173 1.4489-4.83 2.6563-7.486 4.1053-5.071 95.8705-38.879 152.1365-53.852 172.6635-1.69 2.414-4.588 5.312-7.003 6.52 2.657 1.207 5.071 2.173 7.245 2.656 2.415.483 7.003-3.864 9.659-7.245 15.214-20.767 49.747-78.241 54.093-176.7679.242-2.1734-1.207-2.8979-2.656-1.9319z" fill="#006587"/><path d="m224.824 217.403c14.489-19.802 48.78-76.31 54.093-172.663 2.415-1.2074 4.588-2.4149 6.761-3.8638.483-.2415.725-.2415.725-.2415s.241.2415.241.7245c-4.346 98.5268-39.12 156.0008-53.851 176.0438-2.898 3.864-6.762 7.245-8.211 6.762-1.69-.242-3.139-.966-4.829-1.691 1.931-.966 3.863-3.139 5.071-5.071zm10.142 1.932c14.731-20.285 49.988-78.242 54.335-177.4929 0-1.4489-.483-2.4148-1.449-3.1393-.966-.483-2.174-.483-3.381.2415-2.415 1.4489-4.83 2.6564-7.245 4.1053l-.724.2415v.7244c-5.313 96.1115-39.121 152.3785-53.61 171.9385-1.449 2.174-4.347 5.071-6.52 6.279l-2.174 1.207 2.174.966c2.656 1.208 5.071 2.174 7.486 2.657h.724c3.623.241 8.211-4.83 10.384-7.728z" fill="#006587"/><path d="m156.482 95.6943-15.938-8.935 1.207-2.1734 15.938 8.9351z" fill="#006587"/><path d="m166.138 91.347-15.938-9.1765 1.208-2.1734 15.938 9.1765z" fill="#006587"/><path d="m233.273 34.5979-15.938-9.1765 1.207-2.1734 15.938 9.1765z" fill="#006587"/><path d="m218.543 48.1214-15.938-9.1765 1.449-2.1734 15.938 9.1765z" fill="#006587"/><path d="m154.069 121.29-12.075-7.245 1.449-2.173 12.075 7.245z" fill="#00a0b6"/><path d="m174.351 208.95-10.867-6.279 1.449-2.173 10.626 6.279z" fill="#00a0b6"/><path d="m251.14 35.3228-16.904-9.418 1.208-2.1734 16.904 9.418z" fill="#006587"/><path d="m232.067 218.852-5.313-3.381 1.207-2.173 5.555 3.381z" fill="#00a0b6"/><path d="m284.712 60.1949-7.003-4.3467 1.208-2.1734 7.003 4.3468z" fill="#00a0b6"/><path d="m283.261 74.1998-7.003-4.3467 1.208-2.1734 7.003 4.3467z" fill="#00a0b6"/><path d="m221.687 162.102 2.415-1.449c8.694-5.071 15.697-18.595 15.697-30.186v-14.248c0-3.622-2.174-5.313-5.071-3.864l-23.908 13.765c-2.897 1.691-5.071 5.796-5.071 9.66v14.247c.242 11.592 7.245 17.146 15.938 12.075z" fill="#00a0b6"/><path d="m236.895 113.322h.483c.483.242.966.966.966 2.657v14.489c0 11.108-6.762 23.907-14.972 28.737l-2.415 1.449c-3.14 1.931-6.279 2.173-8.694.724-2.898-1.69-4.588-5.796-4.588-11.35v-14.248c0-3.139 1.932-6.761 4.105-8.21l23.907-13.765c.242-.241.725-.483 1.208-.483zm-21.492 52.403c2.173 0 4.588-.725 7.244-2.174l2.415-1.448c9.177-5.313 16.663-19.561 16.663-31.635v-14.248c0-2.656-.966-4.588-2.657-5.554-1.449-.725-3.139-.725-5.071.241l-23.907 13.765c-3.381 1.932-5.796 6.762-5.796 11.108v14.248c0 6.762 2.415 11.833 6.279 14.248 1.449.966 3.139 1.449 4.83 1.449z" fill="#f9fcff"/><path d="m221.197 150.272 3.381-1.932v-12.074h-3.381z" fill="#f9fcff"/><path d="m217.096 138.917c0 3.623 2.656 5.071 5.796 3.381 3.139-1.932 5.796-6.279 5.796-9.901s-2.657-5.071-5.796-3.381c-3.14 1.691-5.796 6.037-5.796 9.901z" fill="#f9fcff"/><path d="m232.793 111.631-19.319 11.108v-4.588c0-7.245 4.588-15.697 9.66-18.836l1.69-.9659c1.449-.7245 3.381-1.6904 5.313-.483 1.69.966 2.897 3.6219 2.897 7.0029v6.762zm-22.7 16.904 26.081-14.972v-8.694c0-4.83-1.691-8.4518-4.588-10.1422-2.415-1.4489-5.555-1.2075-8.694.483l-1.69.9659c-6.52 3.6223-11.35 13.2813-11.35 21.7343v10.625z" fill="#f9fcff"/></svg>