<svg width="426" height="384" viewBox="0 0 426 384" fill="none" xmlns="http://www.w3.org/2000/svg">
<ellipse rx="212.998" ry="91.8017" transform="matrix(-1 0 0 1 213.002 291.879)" fill="url(#paint0_radial_4560_21974)"/>
<path d="M358.013 197.506L359.643 190.981H363.368C367.326 188.418 373.146 186.787 379.665 186.787C386.183 186.787 392.004 188.418 396.194 190.981H399.686L401.316 197.273C401.549 197.972 401.549 198.671 401.549 199.37C401.549 206.36 391.771 211.953 379.665 211.953C367.559 211.953 357.781 206.36 357.781 199.37C357.781 198.904 358.013 198.205 358.013 197.506Z" fill="#F9FCFF"/>
<path d="M358.018 197.736L359.647 191.212H363.372C367.33 188.649 373.15 187.018 379.669 187.018C381.066 187.018 382.463 187.018 383.86 187.251C387.585 187.95 390.844 189.115 393.405 190.979H395.5C395.733 191.212 395.966 191.212 396.198 191.445H397.13L398.759 197.503C398.992 198.202 398.992 198.901 398.992 199.6C398.992 206.591 389.214 212.183 377.108 212.183C375.711 212.183 374.314 212.183 372.917 211.95C364.071 210.319 357.785 205.659 357.785 199.833C357.785 198.901 357.785 198.435 358.018 197.736Z" fill="#00A0B6"/>
<path d="M400.385 196.571L400.618 197.503C400.851 198.202 400.851 198.668 400.851 199.367C400.851 205.891 391.306 211.251 379.665 211.251C368.025 211.251 358.479 205.891 358.479 199.367C358.479 198.901 358.479 198.202 358.712 197.736L360.109 191.91H363.368L363.601 191.677C367.559 189.114 373.379 187.483 379.665 187.483C385.718 187.483 391.538 188.881 395.729 191.677L395.962 191.91H398.988L400.385 196.571ZM379.665 212.882C392.237 212.882 402.48 206.823 402.48 199.367C402.48 198.901 402.48 198.668 402.48 198.202L402.248 197.27L400.385 190.279H396.427C392.237 187.483 386.184 186.085 379.898 186.085C373.612 186.085 367.559 187.716 363.368 190.279H359.178L357.548 197.27C357.315 197.969 357.315 198.668 357.315 199.367C357.083 206.823 367.093 212.882 379.665 212.882Z" fill="#006587"/>
<path d="M359.409 192.608C359.409 199.132 368.489 204.259 379.664 204.259C390.838 204.259 399.918 199.132 399.918 192.608C399.918 186.083 390.838 180.957 379.664 180.957C368.489 180.957 359.409 186.083 359.409 192.608Z" fill="#00A0B6"/>
<path d="M359.178 192.61C359.178 190.512 360.342 188.415 362.205 186.551C365.93 184.221 371.284 182.59 377.337 182.59C388.512 182.59 397.592 187.716 397.592 194.241C397.592 196.338 396.428 198.435 394.565 200.299C390.84 202.629 385.486 204.26 379.433 204.26C368.258 204.26 359.178 198.901 359.178 192.61Z" fill="#F9FCFF"/>
<path d="M379.664 181.658C390.374 181.658 398.988 186.551 398.988 192.61C398.988 198.668 390.374 203.561 379.664 203.561C368.955 203.561 360.341 198.668 360.341 192.61C360.341 186.551 368.955 181.658 379.664 181.658ZM379.664 204.959C391.305 204.959 400.617 199.367 400.617 192.61C400.617 185.852 391.305 180.26 379.664 180.26C368.024 180.26 358.711 185.852 358.711 192.61C358.711 199.367 368.024 204.959 379.664 204.959Z" fill="#006587"/>
<path d="M369.425 191.912C369.425 194.941 374.081 197.272 379.668 197.272C385.256 197.272 389.912 194.941 389.912 191.912C389.912 188.883 385.256 186.553 379.668 186.553C374.081 186.32 369.425 188.883 369.425 191.912Z" fill="#F9FCFF"/>
<path d="M379.663 186.32C381.06 186.32 382.224 186.553 383.388 186.786C385.716 187.718 387.346 189.35 387.346 190.981C387.346 194.01 382.69 196.34 377.102 196.34C375.705 196.34 374.541 196.107 373.377 195.874C371.049 194.942 369.419 193.311 369.419 191.68C369.419 188.883 374.076 186.32 379.663 186.32Z" fill="#00A0B6"/>
<path d="M379.665 187.25C384.787 187.25 389.21 189.347 389.21 191.911C389.21 194.474 384.787 196.571 379.665 196.571C374.543 196.571 370.12 194.474 370.12 191.911C370.353 189.347 374.543 187.25 379.665 187.25ZM379.665 198.202C385.951 198.202 390.84 195.406 390.84 191.911C390.84 188.415 385.951 185.619 379.665 185.619C373.379 185.619 368.49 188.415 368.49 191.911C368.723 195.406 373.612 198.202 379.665 198.202Z" fill="#006587"/>
<path d="M379.668 190.049C375.245 190.049 371.52 191.447 369.89 193.778C369.658 193.312 369.425 192.612 369.425 192.146C369.425 189.117 374.081 186.787 379.668 186.787C385.256 186.787 389.912 189.117 389.912 192.146C389.912 192.846 389.679 193.312 389.214 194.011C388.05 191.447 384.092 190.049 379.668 190.049Z" fill="#006587"/>
<path d="M379.665 187.25C384.787 187.25 389.21 189.347 389.21 191.91C389.21 192.143 389.21 192.143 389.21 192.376C387.115 190.279 383.623 189.114 379.665 189.114C375.707 189.114 372.215 190.279 370.353 191.91V191.677C370.353 189.347 374.543 187.25 379.665 187.25ZM388.745 194.007H390.141C390.607 193.308 390.84 192.609 390.84 191.677C390.84 188.182 385.951 185.386 379.665 185.386C373.379 185.386 368.49 188.182 368.49 191.677C368.49 192.376 368.723 193.075 369.189 193.774L371.284 194.706L370.585 193.774C371.982 191.91 375.474 190.512 379.665 190.512C383.856 190.745 387.581 192.143 388.745 194.007Z" fill="#006587"/>
<path d="M384.089 204.261L384.555 211.718H375.242L367.094 209.62L362.671 207.756L358.713 204.261L357.782 199.601L358.946 193.775L361.274 197.271L364.3 200.067L371.052 203.096L379.666 204.261H384.089Z" fill="#006587"/>
<path d="M398.988 195.873L400.617 203.33L401.781 198.669L400.384 193.543L398.988 195.873Z" fill="#006587"/>
<path d="M309.542 176.029C308.611 176.495 308.611 177.427 309.542 177.893C310.473 178.359 311.87 178.359 312.802 177.893C313.733 177.427 313.733 176.495 312.802 176.029C311.87 175.563 310.241 175.563 309.542 176.029Z" fill="#006587"/>
<path d="M317.917 171.135C316.986 171.601 316.986 172.533 317.917 172.999C318.848 173.465 320.245 173.465 321.177 172.999C322.108 172.533 322.108 171.601 321.177 171.135C320.245 170.669 318.616 170.669 317.917 171.135Z" fill="#006587"/>
<path d="M309.542 166.479C308.611 166.945 308.611 167.877 309.542 168.343C310.473 168.81 311.87 168.81 312.802 168.343C313.733 167.877 313.733 166.945 312.802 166.479C311.87 165.78 310.241 165.78 309.542 166.479Z" fill="#006587"/>
<path d="M326.302 166.479C325.371 166.945 325.371 167.877 326.302 168.343C327.233 168.81 328.63 168.81 329.561 168.343C330.493 167.877 330.493 166.945 329.561 166.479C328.63 165.78 327 165.78 326.302 166.479Z" fill="#006587"/>
<path d="M317.917 161.584C316.986 162.05 316.986 162.982 317.917 163.448C318.848 163.914 320.245 163.914 321.177 163.448C322.108 162.982 322.108 162.05 321.177 161.584C320.245 161.118 318.616 161.118 317.917 161.584Z" fill="#006587"/>
<path d="M334.681 161.584C333.75 162.05 333.75 162.982 334.681 163.448C335.612 163.914 337.009 163.914 337.94 163.448C338.871 162.982 338.871 162.05 337.94 161.584C337.009 161.118 335.379 161.118 334.681 161.584Z" fill="#006587"/>
<path d="M326.302 156.691C325.371 157.157 325.371 158.089 326.302 158.555C327.233 159.021 328.63 159.021 329.561 158.555C330.493 158.089 330.493 157.157 329.561 156.691C328.63 156.225 327 156.225 326.302 156.691Z" fill="#006587"/>
<path d="M343.062 156.691C342.131 157.157 342.131 158.089 343.062 158.555C343.993 159.021 345.39 159.021 346.321 158.555C347.252 158.089 347.252 157.157 346.321 156.691C345.39 156.225 343.993 156.225 343.062 156.691Z" fill="#006587"/>
<path d="M352.376 152.031C351.445 152.497 351.445 153.429 352.376 153.895C353.307 154.361 354.704 154.361 355.636 153.895C356.567 153.429 356.567 152.497 355.636 152.031C354.704 151.565 353.307 151.565 352.376 152.031Z" fill="#006587"/>
<path d="M334.681 151.797C333.75 152.263 333.75 153.195 334.681 153.661C335.612 154.127 337.009 154.127 337.94 153.661C338.871 153.195 338.871 152.263 337.94 151.797C337.009 151.331 335.379 151.331 334.681 151.797Z" fill="#006587"/>
<path d="M343.062 146.905C342.131 147.371 342.131 148.303 343.062 148.769C343.993 149.235 345.39 149.235 346.321 148.769C347.252 148.303 347.252 147.371 346.321 146.905C345.39 146.439 343.993 146.439 343.062 146.905Z" fill="#006587"/>
<path d="M292.316 175.331C291.384 175.797 291.384 176.729 292.316 177.195C293.247 177.661 294.644 177.661 295.575 177.195C296.506 176.729 296.506 175.797 295.575 175.331C294.644 174.865 293.247 174.865 292.316 175.331Z" fill="#006587"/>
<path d="M299.298 179.988C298.367 180.454 298.367 181.386 299.298 181.852C300.229 182.318 301.626 182.318 302.557 181.852C303.489 181.386 303.489 180.454 302.557 179.988C301.626 179.522 300.229 179.522 299.298 179.988Z" fill="#006587"/>
<path d="M292.544 166.475C291.613 166.941 291.613 167.873 292.544 168.339C293.475 168.805 294.872 168.805 295.804 168.339C296.735 167.873 296.735 166.941 295.804 166.475C294.872 166.008 293.475 166.008 292.544 166.475Z" fill="#006587"/>
<path d="M284.165 161.584C283.234 162.05 283.234 162.982 284.165 163.448C285.097 163.914 286.493 163.914 287.425 163.448C288.356 162.982 288.356 162.05 287.425 161.584C286.493 161.118 285.097 161.118 284.165 161.584Z" fill="#006587"/>
<path d="M275.781 156.691C274.849 157.157 274.849 158.089 275.781 158.555C276.712 159.021 278.109 159.021 279.04 158.555C279.971 158.089 279.971 157.157 279.04 156.691C278.109 156.225 276.712 156.225 275.781 156.691Z" fill="#006587"/>
<path d="M267.404 151.797C266.472 152.263 266.472 153.195 267.404 153.661C268.335 154.127 269.732 154.127 270.663 153.661C271.594 153.195 271.594 152.263 270.663 151.797C269.732 151.331 268.335 151.331 267.404 151.797Z" fill="#006587"/>
<path d="M259.017 147.136C258.086 147.602 258.086 148.534 259.017 149C259.948 149.466 261.345 149.466 262.276 149C263.207 148.534 263.207 147.602 262.276 147.136C261.345 146.437 259.948 146.437 259.017 147.136Z" fill="#006587"/>
<path d="M250.638 142.241C249.707 142.707 249.707 143.639 250.638 144.105C251.569 144.571 252.966 144.571 253.897 144.105C254.829 143.639 254.829 142.707 253.897 142.241C252.966 141.775 251.569 141.775 250.638 142.241Z" fill="#006587"/>
<path d="M304.182 161.584C303.251 161.118 301.854 161.118 300.923 161.584C299.992 162.05 299.992 162.982 300.923 163.448C301.854 163.914 303.251 163.914 304.182 163.448C305.114 162.982 305.114 162.05 304.182 161.584Z" fill="#006587"/>
<path d="M292.544 156.691C291.613 157.157 291.613 158.089 292.544 158.555C293.475 159.021 294.872 159.021 295.804 158.555C296.735 158.089 296.735 157.157 295.804 156.691C294.872 156.225 293.475 156.225 292.544 156.691Z" fill="#006587"/>
<path d="M284.165 151.797C283.234 152.263 283.234 153.195 284.165 153.661C285.097 154.127 286.493 154.127 287.425 153.661C288.356 153.195 288.356 152.263 287.425 151.797C286.493 151.331 285.097 151.331 284.165 151.797Z" fill="#006587"/>
<path d="M275.781 147.136C274.849 147.602 274.849 148.534 275.781 149C276.712 149.466 278.109 149.466 279.04 149C279.971 148.534 279.971 147.602 279.04 147.136C278.109 146.437 276.712 146.437 275.781 147.136Z" fill="#006587"/>
<path d="M267.404 142.241C266.472 142.707 266.472 143.639 267.404 144.105C268.335 144.571 269.732 144.571 270.663 144.105C271.594 143.639 271.594 142.707 270.663 142.241C269.732 141.775 268.335 141.775 267.404 142.241Z" fill="#006587"/>
<path d="M259.017 137.35C258.086 137.816 258.086 138.748 259.017 139.214C259.948 139.68 261.345 139.68 262.276 139.214C263.207 138.748 263.207 137.816 262.276 137.35C261.345 136.883 259.948 136.883 259.017 137.35Z" fill="#006587"/>
<path d="M250.638 132.455C249.707 132.921 249.707 133.853 250.638 134.319C251.569 134.785 252.966 134.785 253.897 134.319C254.829 133.853 254.829 132.921 253.897 132.455C252.966 131.989 251.569 131.989 250.638 132.455Z" fill="#006587"/>
<path d="M312.569 156.691C311.638 156.225 310.241 156.225 309.31 156.691C308.379 157.157 308.379 158.089 309.31 158.555C310.241 159.021 311.638 159.021 312.569 158.555C313.5 158.089 313.5 157.157 312.569 156.691Z" fill="#006587"/>
<path d="M300.923 151.797C299.992 152.263 299.992 153.195 300.923 153.661C301.854 154.127 303.251 154.127 304.182 153.661C305.114 153.195 305.114 152.263 304.182 151.797C303.251 151.331 301.854 151.331 300.923 151.797Z" fill="#006587"/>
<path d="M292.544 147.136C291.613 147.602 291.613 148.534 292.544 149C293.475 149.466 294.872 149.466 295.804 149C296.735 148.534 296.735 147.602 295.804 147.136C294.872 146.437 293.475 146.437 292.544 147.136Z" fill="#006587"/>
<path d="M284.165 142.241C283.234 142.707 283.234 143.639 284.165 144.105C285.097 144.571 286.493 144.571 287.425 144.105C288.356 143.639 288.356 142.707 287.425 142.241C286.493 141.775 285.097 141.775 284.165 142.241Z" fill="#006587"/>
<path d="M275.781 137.35C274.849 137.816 274.849 138.748 275.781 139.214C276.712 139.68 278.109 139.68 279.04 139.214C279.971 138.748 279.971 137.816 279.04 137.35C278.109 136.883 276.712 136.883 275.781 137.35Z" fill="#006587"/>
<path d="M267.404 132.455C266.472 132.921 266.472 133.853 267.404 134.319C268.335 134.785 269.732 134.785 270.663 134.319C271.594 133.853 271.594 132.921 270.663 132.455C269.732 131.989 268.335 131.989 267.404 132.455Z" fill="#006587"/>
<path d="M259.017 127.564C258.086 128.03 258.086 128.962 259.017 129.428C259.948 129.895 261.345 129.895 262.276 129.428C263.207 128.962 263.207 128.03 262.276 127.564C261.345 127.098 259.948 127.098 259.017 127.564Z" fill="#006587"/>
<path d="M320.946 151.797C320.015 151.331 318.618 151.331 317.687 151.797C316.756 152.263 316.756 153.195 317.687 153.661C318.618 154.127 320.015 154.127 320.946 153.661C321.877 153.195 321.877 152.496 320.946 151.797Z" fill="#006587"/>
<path d="M309.31 147.136C308.379 147.602 308.379 148.534 309.31 149C310.241 149.466 311.638 149.466 312.569 149C313.5 148.534 313.5 147.602 312.569 147.136C311.638 146.437 310.241 146.437 309.31 147.136Z" fill="#006587"/>
<path d="M300.923 142.241C299.992 142.707 299.992 143.639 300.923 144.105C301.854 144.571 303.251 144.571 304.182 144.105C305.114 143.639 305.114 142.707 304.182 142.241C303.251 141.775 301.854 141.775 300.923 142.241Z" fill="#006587"/>
<path d="M292.544 137.35C291.613 137.816 291.613 138.748 292.544 139.214C293.475 139.68 294.872 139.68 295.804 139.214C296.735 138.748 296.735 137.816 295.804 137.35C294.872 136.883 293.475 136.883 292.544 137.35Z" fill="#006587"/>
<path d="M284.165 132.455C283.234 132.921 283.234 133.853 284.165 134.319C285.097 134.785 286.493 134.785 287.425 134.319C288.356 133.853 288.356 132.921 287.425 132.455C286.493 131.989 285.097 131.989 284.165 132.455Z" fill="#006587"/>
<path d="M275.781 127.564C274.849 128.03 274.849 128.962 275.781 129.428C276.712 129.895 278.109 129.895 279.04 129.428C279.971 128.962 279.971 128.03 279.04 127.564C278.109 127.098 276.712 127.098 275.781 127.564Z" fill="#006587"/>
<path d="M267.404 122.903C266.472 123.369 266.472 124.301 267.404 124.767C268.335 125.233 269.732 125.233 270.663 124.767C271.594 124.301 271.594 123.369 270.663 122.903C269.732 122.204 268.335 122.204 267.404 122.903Z" fill="#006587"/>
<path d="M329.329 147.137C328.398 146.671 327.001 146.671 326.07 147.137C325.138 147.603 325.138 148.535 326.07 149.001C327.001 149.467 328.398 149.467 329.329 149.001C330.26 148.302 330.26 147.603 329.329 147.137Z" fill="#006587"/>
<path d="M317.687 142.241C316.756 142.707 316.756 143.639 317.687 144.105C318.618 144.571 320.015 144.571 320.946 144.105C321.877 143.639 321.877 142.707 320.946 142.241C320.015 141.775 318.618 141.775 317.687 142.241Z" fill="#006587"/>
<path d="M309.31 137.35C308.379 137.816 308.379 138.748 309.31 139.214C310.241 139.68 311.638 139.68 312.569 139.214C313.5 138.748 313.5 137.816 312.569 137.35C311.638 136.883 310.241 136.883 309.31 137.35Z" fill="#006587"/>
<path d="M300.923 132.455C299.992 132.921 299.992 133.853 300.923 134.319C301.854 134.785 303.251 134.785 304.182 134.319C305.114 133.853 305.114 132.921 304.182 132.455C303.251 131.989 301.854 131.989 300.923 132.455Z" fill="#006587"/>
<path d="M292.544 127.564C291.613 128.03 291.613 128.962 292.544 129.428C293.475 129.895 294.872 129.895 295.804 129.428C296.735 128.962 296.735 128.03 295.804 127.564C294.872 127.098 293.475 127.098 292.544 127.564Z" fill="#006587"/>
<path d="M284.165 122.903C283.234 123.369 283.234 124.301 284.165 124.767C285.097 125.233 286.493 125.233 287.425 124.767C288.356 124.301 288.356 123.369 287.425 122.903C286.493 122.204 285.097 122.204 284.165 122.903Z" fill="#006587"/>
<path d="M275.781 118.01C274.849 118.476 274.849 119.408 275.781 119.874C276.712 120.34 278.109 120.34 279.04 119.874C279.971 119.408 279.971 118.476 279.04 118.01C278.109 117.544 276.712 117.544 275.781 118.01Z" fill="#006587"/>
<path d="M337.944 142.241C337.013 141.775 335.616 141.775 334.685 142.241C333.754 142.707 333.754 143.639 334.685 144.105C335.616 144.571 337.013 144.571 337.944 144.105C338.643 143.406 338.876 142.707 337.944 142.241Z" fill="#006587"/>
<path d="M326.302 137.35C325.371 137.816 325.371 138.748 326.302 139.214C327.233 139.68 328.63 139.68 329.561 139.214C330.493 138.748 330.493 137.816 329.561 137.35C328.63 136.883 327.233 136.883 326.302 137.35Z" fill="#006587"/>
<path d="M317.917 132.455C316.986 132.921 316.986 133.853 317.917 134.319C318.848 134.785 320.245 134.785 321.177 134.319C322.108 133.853 322.108 132.921 321.177 132.455C320.245 131.989 318.848 131.989 317.917 132.455Z" fill="#006587"/>
<path d="M309.542 127.564C308.611 128.03 308.611 128.962 309.542 129.428C310.473 129.895 311.87 129.895 312.802 129.428C313.733 128.962 313.733 128.03 312.802 127.564C311.87 127.098 310.473 127.098 309.542 127.564Z" fill="#006587"/>
<path d="M301.161 122.668C300.23 123.134 300.23 124.066 301.161 124.532C302.093 124.998 303.489 124.998 304.421 124.532C305.352 124.066 305.352 123.134 304.421 122.668C303.489 122.202 302.093 122.202 301.161 122.668Z" fill="#006587"/>
<path d="M292.775 118.009C291.843 118.475 291.843 119.407 292.775 119.873C293.706 120.339 295.103 120.339 296.034 119.873C296.965 119.407 296.965 118.475 296.034 118.009C295.103 117.31 293.473 117.31 292.775 118.009Z" fill="#006587"/>
<path d="M284.392 113.114C283.461 113.58 283.461 114.512 284.392 114.978C285.323 115.444 286.72 115.444 287.651 114.978C288.582 114.512 288.582 113.58 287.651 113.114C286.72 112.648 285.09 112.648 284.392 113.114Z" fill="#006587"/>
<path d="M326.302 127.564C325.371 128.03 325.371 128.962 326.302 129.428C327.233 129.895 328.63 129.895 329.561 129.428C330.493 128.962 330.493 128.03 329.561 127.564C328.63 127.098 327.233 127.098 326.302 127.564Z" fill="#006587"/>
<path d="M317.917 122.668C316.986 123.134 316.986 124.066 317.917 124.532C318.848 124.998 320.245 124.998 321.177 124.532C322.108 124.066 322.108 123.134 321.177 122.668C320.245 122.202 318.848 122.202 317.917 122.668Z" fill="#006587"/>
<path d="M309.542 118.009C308.611 118.475 308.611 119.407 309.542 119.873C310.473 120.339 311.87 120.339 312.802 119.873C313.733 119.407 313.733 118.475 312.802 118.009C311.87 117.31 310.473 117.31 309.542 118.009Z" fill="#006587"/>
<path d="M301.161 113.114C300.23 113.58 300.23 114.512 301.161 114.978C302.093 115.444 303.489 115.444 304.421 114.978C305.352 114.512 305.352 113.58 304.421 113.114C303.489 112.648 302.093 112.648 301.161 113.114Z" fill="#006587"/>
<path d="M292.775 108.22C291.843 108.686 291.843 109.618 292.775 110.084C293.706 110.55 295.103 110.55 296.034 110.084C296.965 109.618 296.965 108.686 296.034 108.22C295.103 107.754 293.473 107.754 292.775 108.22Z" fill="#006587"/>
<path d="M329.566 118.01C328.635 117.544 327.238 117.544 326.307 118.01C325.375 118.476 325.375 119.408 326.307 119.874C327.238 120.34 328.635 120.34 329.566 119.874C330.264 119.175 330.264 118.476 329.566 118.01Z" fill="#006587"/>
<path d="M317.917 113.114C316.986 113.58 316.986 114.512 317.917 114.978C318.848 115.444 320.245 115.444 321.177 114.978C322.108 114.512 322.108 113.58 321.177 113.114C320.245 112.648 318.848 112.648 317.917 113.114Z" fill="#006587"/>
<path d="M309.542 108.22C308.611 108.686 308.611 109.618 309.542 110.084C310.473 110.55 311.87 110.55 312.802 110.084C313.733 109.618 313.733 108.686 312.802 108.22C311.87 107.754 310.473 107.754 309.542 108.22Z" fill="#006587"/>
<path d="M301.161 103.33C300.23 103.796 300.23 104.728 301.161 105.194C302.093 105.66 303.489 105.66 304.421 105.194C305.352 104.728 305.352 103.796 304.421 103.33C303.489 102.864 302.093 102.864 301.161 103.33Z" fill="#006587"/>
<path d="M326.302 108.22C325.371 108.686 325.371 109.618 326.302 110.084C327.233 110.55 328.63 110.55 329.561 110.084C330.493 109.618 330.493 108.686 329.561 108.22C328.63 107.754 327.233 107.754 326.302 108.22Z" fill="#006587"/>
<path d="M317.917 103.33C316.986 103.796 316.986 104.728 317.917 105.194C318.848 105.66 320.245 105.66 321.177 105.194C322.108 104.728 322.108 103.796 321.177 103.33C320.245 102.864 318.848 102.864 317.917 103.33Z" fill="#006587"/>
<path d="M309.542 98.4335C308.611 98.8995 308.611 99.8316 309.542 100.298C310.473 100.764 311.87 100.764 312.802 100.298C313.733 99.8316 313.733 98.8995 312.802 98.4335C311.87 97.9675 310.473 97.9675 309.542 98.4335Z" fill="#006587"/>
<path d="M326.302 98.4335C325.371 98.8995 325.371 99.8316 326.302 100.298C327.233 100.764 328.63 100.764 329.561 100.298C330.493 99.8316 330.493 98.8995 329.561 98.4335C328.63 97.9675 327.233 97.9675 326.302 98.4335Z" fill="#006587"/>
<path d="M317.917 93.7772C316.986 94.2432 316.986 95.1753 317.917 95.6413C318.848 96.1074 320.245 96.1074 321.177 95.6413C322.108 95.1753 322.108 94.2432 321.177 93.7772C320.245 93.0782 318.848 93.0782 317.917 93.7772Z" fill="#006587"/>
<path d="M287.19 170.439C286.259 169.973 284.862 169.973 283.931 170.439C283 170.905 283 171.837 283.931 172.303C284.862 172.77 286.259 172.77 287.19 172.303C288.121 171.837 288.121 171.138 287.19 170.439Z" fill="#006587"/>
<path d="M275.546 165.775C274.615 166.241 274.615 167.173 275.546 167.639C276.477 168.105 277.874 168.105 278.805 167.639C279.737 167.173 279.737 166.241 278.805 165.775C277.874 165.076 276.477 165.076 275.546 165.775Z" fill="#006587"/>
<path d="M267.167 160.886C266.236 161.352 266.236 162.284 267.167 162.75C268.098 163.216 269.495 163.216 270.427 162.75C271.358 162.284 271.358 161.352 270.427 160.886C269.495 160.42 268.098 160.42 267.167 160.886Z" fill="#006587"/>
<path d="M258.781 155.989C257.849 156.455 257.849 157.387 258.781 157.853C259.712 158.319 261.109 158.319 262.04 157.853C262.971 157.387 262.971 156.455 262.04 155.989C261.109 155.523 259.712 155.523 258.781 155.989Z" fill="#006587"/>
<path d="M251.333 150.864C250.402 151.33 250.402 152.262 251.333 152.728C252.264 153.194 253.661 153.194 254.593 152.728C255.524 152.262 255.524 151.33 254.593 150.864C253.661 150.398 252.032 150.398 251.333 150.864Z" fill="#006587"/>
<path d="M300.228 171.836C299.297 172.302 299.297 173.234 300.228 173.7C301.159 174.166 302.556 174.166 303.487 173.7C304.418 173.234 304.418 172.302 303.487 171.836C302.556 171.37 300.926 171.37 300.228 171.836Z" fill="#006587"/>
<path d="M306.51 165.544L342.828 144.806V102.863L306.51 123.835V165.544Z" fill="#00A0B6"/>
<path d="M270.424 102.864L306.51 123.835L342.828 102.864L306.51 81.8926L270.424 102.864Z" fill="#00A0B6"/>
<path d="M270.425 110.086L299.992 127.096L336.311 106.124L306.511 89.1143L270.425 110.086Z" fill="#F9FCFF"/>
<path d="M341.67 144.107V104.727L307.68 124.3V163.68L341.67 144.107ZM306.516 83.2897L272.525 102.863L289.521 112.65L306.516 122.669L311.87 119.64L340.739 102.863L306.516 83.2897ZM306.516 80.7266L342.834 101.698L343.998 102.397V145.505L307.913 166.476L306.748 167.175L305.584 166.476L269.499 145.505V103.562V102.164L306.516 80.7266Z" fill="#006587"/>
<path d="M315.361 153.194L320.948 149.932C321.88 149.466 322.578 148.068 322.578 146.902V141.077C322.578 139.912 321.88 139.446 320.948 139.912L315.361 143.174C314.43 143.64 313.731 145.038 313.731 146.203V152.029C313.731 152.961 314.43 153.66 315.361 153.194Z" fill="#F9FCFF"/>
<path d="M143.952 128.847C143.254 129.313 143.254 130.012 143.952 130.245C144.651 130.711 145.815 130.711 146.513 130.245C147.212 129.779 147.212 129.08 146.513 128.847C145.815 128.381 144.651 128.381 143.952 128.847Z" fill="#006587"/>
<path d="M150.468 124.885C149.77 125.351 149.77 126.05 150.468 126.283C151.166 126.749 152.33 126.749 153.029 126.283C153.727 125.817 153.727 125.118 153.029 124.885C152.33 124.652 151.166 124.652 150.468 124.885Z" fill="#006587"/>
<path d="M143.952 121.157C143.254 121.623 143.254 122.322 143.952 122.555C144.651 123.021 145.815 123.021 146.513 122.555C147.212 122.089 147.212 121.39 146.513 121.157C145.815 120.691 144.651 120.691 143.952 121.157Z" fill="#006587"/>
<path d="M157.222 121.157C156.523 121.623 156.523 122.322 157.222 122.555C157.92 123.021 159.084 123.021 159.783 122.555C160.481 122.089 160.481 121.39 159.783 121.157C159.084 120.691 157.92 120.691 157.222 121.157Z" fill="#006587"/>
<path d="M150.468 117.196C149.77 117.662 149.77 118.361 150.468 118.594C151.166 119.06 152.33 119.06 153.029 118.594C153.727 118.128 153.727 117.429 153.029 117.196C152.33 116.963 151.166 116.963 150.468 117.196Z" fill="#006587"/>
<path d="M163.738 117.196C163.039 117.662 163.039 118.361 163.738 118.594C164.436 119.06 165.6 119.06 166.298 118.594C166.997 118.128 166.997 117.429 166.298 117.196C165.6 116.963 164.436 116.963 163.738 117.196Z" fill="#006587"/>
<path d="M157.222 113.469C156.523 113.935 156.523 114.634 157.222 114.867C157.92 115.333 159.084 115.333 159.783 114.867C160.481 114.401 160.481 113.702 159.783 113.469C159.084 113.003 157.92 113.003 157.222 113.469Z" fill="#006587"/>
<path d="M170.49 113.469C169.791 113.935 169.791 114.634 170.49 114.867C171.188 115.333 172.352 115.333 173.05 114.867C173.749 114.401 173.749 113.702 173.05 113.469C172.352 113.003 171.188 113.003 170.49 113.469Z" fill="#006587"/>
<path d="M177.708 109.741C177.01 110.207 177.01 110.906 177.708 111.139C178.407 111.605 179.571 111.605 180.269 111.139C180.968 110.673 180.968 109.974 180.269 109.741C179.571 109.508 178.407 109.508 177.708 109.741Z" fill="#006587"/>
<path d="M163.738 109.74C163.039 110.206 163.039 110.905 163.738 111.138C164.436 111.604 165.6 111.604 166.298 111.138C166.997 110.672 166.997 109.973 166.298 109.74C165.6 109.274 164.436 109.274 163.738 109.74Z" fill="#006587"/>
<path d="M170.49 105.778C169.791 106.244 169.791 106.943 170.49 107.176C171.188 107.642 172.352 107.642 173.05 107.176C173.749 106.71 173.749 106.011 173.05 105.778C172.352 105.312 171.188 105.312 170.49 105.778Z" fill="#006587"/>
<path d="M130.45 128.146C129.752 128.612 129.752 129.311 130.45 129.545C131.149 130.011 132.313 130.011 133.011 129.545C133.71 129.078 133.71 128.379 133.011 128.146C132.313 127.68 131.149 127.68 130.45 128.146Z" fill="#006587"/>
<path d="M136.036 131.877C135.338 132.343 135.338 133.042 136.036 133.275C136.735 133.741 137.899 133.741 138.597 133.275C139.296 132.809 139.296 132.11 138.597 131.877C137.666 131.411 136.735 131.411 136.036 131.877Z" fill="#006587"/>
<path d="M130.683 121.157C129.984 121.623 129.984 122.322 130.683 122.555C131.381 123.021 132.545 123.021 133.244 122.555C133.942 122.089 133.942 121.39 133.244 121.157C132.545 120.691 131.381 120.691 130.683 121.157Z" fill="#006587"/>
<path d="M123.929 117.427C123.231 117.893 123.231 118.592 123.929 118.825C124.627 119.291 125.791 119.291 126.49 118.825C127.188 118.359 127.188 117.66 126.49 117.427C125.791 116.961 124.627 116.961 123.929 117.427Z" fill="#006587"/>
<path d="M117.409 113.47C116.711 113.936 116.711 114.635 117.409 114.868C118.108 115.334 119.272 115.334 119.97 114.868C120.669 114.402 120.669 113.703 119.97 113.47C119.272 113.237 118.108 113.237 117.409 113.47Z" fill="#006587"/>
<path d="M110.888 109.74C110.189 110.206 110.189 110.905 110.888 111.138C111.586 111.604 112.75 111.604 113.449 111.138C114.147 110.672 114.147 109.973 113.449 109.74C112.518 109.274 111.586 109.274 110.888 109.74Z" fill="#006587"/>
<path d="M104.142 105.78C103.443 106.246 103.443 106.945 104.142 107.178C104.84 107.644 106.004 107.644 106.703 107.178C107.401 106.712 107.401 106.013 106.703 105.78C106.004 105.547 104.84 105.547 104.142 105.78Z" fill="#006587"/>
<path d="M97.6184 102.048C96.92 102.514 96.92 103.213 97.6184 103.446C98.3168 103.912 99.4809 103.912 100.179 103.446C100.878 102.98 100.878 102.281 100.179 102.048C99.4809 101.582 98.3168 101.582 97.6184 102.048Z" fill="#006587"/>
<path d="M139.755 117.427C139.057 116.961 137.893 116.961 137.195 117.427C136.496 117.893 136.496 118.592 137.195 118.825C137.893 119.291 139.057 119.291 139.755 118.825C140.454 118.359 140.454 117.66 139.755 117.427Z" fill="#006587"/>
<path d="M130.683 113.47C129.984 113.936 129.984 114.635 130.683 114.868C131.381 115.334 132.545 115.334 133.244 114.868C133.942 114.402 133.942 113.703 133.244 113.47C132.545 113.237 131.381 113.237 130.683 113.47Z" fill="#006587"/>
<path d="M123.929 109.74C123.231 110.206 123.231 110.905 123.929 111.138C124.627 111.604 125.791 111.604 126.49 111.138C127.188 110.672 127.188 109.973 126.49 109.74C125.791 109.274 124.627 109.274 123.929 109.74Z" fill="#006587"/>
<path d="M117.409 105.78C116.711 106.246 116.711 106.945 117.409 107.178C118.108 107.644 119.272 107.644 119.97 107.178C120.669 106.712 120.669 106.013 119.97 105.78C119.272 105.547 118.108 105.547 117.409 105.78Z" fill="#006587"/>
<path d="M110.888 102.048C110.189 102.514 110.189 103.213 110.888 103.446C111.586 103.912 112.75 103.912 113.449 103.446C114.147 102.98 114.147 102.281 113.449 102.048C112.518 101.582 111.586 101.582 110.888 102.048Z" fill="#006587"/>
<path d="M104.142 98.3212C103.443 98.7872 103.443 99.4863 104.142 99.7193C104.84 100.185 106.004 100.185 106.703 99.7193C107.401 99.2533 107.401 98.5542 106.703 98.3212C106.004 97.8552 104.84 97.8552 104.142 98.3212Z" fill="#006587"/>
<path d="M97.6184 94.3612C96.92 94.8273 96.92 95.5263 97.6184 95.7593C98.3168 96.2254 99.4809 96.2254 100.179 95.7593C100.878 95.2933 100.878 94.5943 100.179 94.3612C99.4809 93.8952 98.3168 93.8952 97.6184 94.3612Z" fill="#006587"/>
<path d="M146.513 113.469C145.815 113.003 144.651 113.003 143.952 113.469C143.254 113.935 143.254 114.634 143.952 114.867C144.651 115.333 145.815 115.333 146.513 114.867C147.212 114.634 147.212 113.935 146.513 113.469Z" fill="#006587"/>
<path d="M137.195 109.74C136.496 110.206 136.496 110.905 137.195 111.138C137.893 111.604 139.057 111.604 139.755 111.138C140.454 110.672 140.454 109.973 139.755 109.74C139.057 109.274 137.893 109.274 137.195 109.74Z" fill="#006587"/>
<path d="M130.683 105.78C129.984 106.246 129.984 106.945 130.683 107.178C131.381 107.644 132.545 107.644 133.244 107.178C133.942 106.712 133.942 106.013 133.244 105.78C132.545 105.547 131.381 105.547 130.683 105.78Z" fill="#006587"/>
<path d="M123.929 102.048C123.231 102.514 123.231 103.213 123.929 103.446C124.627 103.912 125.791 103.912 126.49 103.446C127.188 102.98 127.188 102.281 126.49 102.048C125.791 101.582 124.627 101.582 123.929 102.048Z" fill="#006587"/>
<path d="M117.409 98.3212C116.711 98.7872 116.711 99.4863 117.409 99.7193C118.108 100.185 119.272 100.185 119.97 99.7193C120.669 99.2533 120.669 98.5542 119.97 98.3212C119.272 97.8552 118.108 97.8552 117.409 98.3212Z" fill="#006587"/>
<path d="M110.888 94.3612C110.189 94.8273 110.189 95.5263 110.888 95.7593C111.586 96.2254 112.75 96.2254 113.449 95.7593C114.147 95.2933 114.147 94.5943 113.449 94.3612C112.518 93.8952 111.586 93.8952 110.888 94.3612Z" fill="#006587"/>
<path d="M104.142 90.6298C103.443 91.0958 103.443 91.7949 104.142 92.0279C104.84 92.4939 106.004 92.4939 106.703 92.0279C107.401 91.5619 107.401 90.8628 106.703 90.6298C106.004 90.1638 104.84 90.1638 104.142 90.6298Z" fill="#006587"/>
<path d="M153.029 109.74C152.33 109.274 151.166 109.274 150.468 109.74C149.77 110.206 149.77 110.905 150.468 111.138C151.166 111.604 152.33 111.604 153.029 111.138C153.727 110.672 153.727 110.206 153.029 109.74Z" fill="#006587"/>
<path d="M143.952 105.78C143.254 106.246 143.254 106.945 143.952 107.178C144.651 107.644 145.815 107.644 146.513 107.178C147.212 106.712 147.212 106.013 146.513 105.78C145.815 105.547 144.651 105.547 143.952 105.78Z" fill="#006587"/>
<path d="M137.195 102.048C136.496 102.514 136.496 103.213 137.195 103.446C137.893 103.912 139.057 103.912 139.755 103.446C140.454 102.98 140.454 102.281 139.755 102.048C139.057 101.582 137.893 101.582 137.195 102.048Z" fill="#006587"/>
<path d="M130.683 98.3212C129.984 98.7872 129.984 99.4863 130.683 99.7193C131.381 100.185 132.545 100.185 133.244 99.7193C133.942 99.2533 133.942 98.5542 133.244 98.3212C132.545 97.8552 131.381 97.8552 130.683 98.3212Z" fill="#006587"/>
<path d="M123.929 94.3612C123.231 94.8273 123.231 95.5263 123.929 95.7593C124.627 96.2254 125.791 96.2254 126.49 95.7593C127.188 95.2933 127.188 94.5943 126.49 94.3612C125.791 93.8952 124.627 93.8952 123.929 94.3612Z" fill="#006587"/>
<path d="M117.409 90.6298C116.711 91.0958 116.711 91.7949 117.409 92.0279C118.108 92.4939 119.272 92.4939 119.97 92.0279C120.669 91.5619 120.669 90.8628 119.97 90.6298C119.272 90.1638 118.108 90.1638 117.409 90.6298Z" fill="#006587"/>
<path d="M110.888 86.6709C110.189 87.1369 110.189 87.8359 110.888 88.0689C111.586 88.535 112.75 88.535 113.449 88.0689C114.147 87.6029 114.147 86.9039 113.449 86.6709C112.518 86.4378 111.586 86.4378 110.888 86.6709Z" fill="#006587"/>
<path d="M159.783 105.778C159.084 105.312 157.92 105.312 157.222 105.778C156.523 106.244 156.523 106.943 157.222 107.176C157.92 107.642 159.084 107.642 159.783 107.176C160.481 106.943 160.481 106.244 159.783 105.778Z" fill="#006587"/>
<path d="M150.468 102.048C149.77 102.514 149.77 103.213 150.468 103.446C151.166 103.912 152.33 103.912 153.029 103.446C153.727 102.98 153.727 102.281 153.029 102.048C152.33 101.582 151.166 101.582 150.468 102.048Z" fill="#006587"/>
<path d="M143.952 98.3212C143.254 98.7872 143.254 99.4863 143.952 99.7193C144.651 100.185 145.815 100.185 146.513 99.7193C147.212 99.2533 147.212 98.5542 146.513 98.3212C145.815 97.8552 144.651 97.8552 143.952 98.3212Z" fill="#006587"/>
<path d="M137.195 94.3612C136.496 94.8273 136.496 95.5263 137.195 95.7593C137.893 96.2254 139.057 96.2254 139.755 95.7593C140.454 95.2933 140.454 94.5943 139.755 94.3612C139.057 93.8952 137.893 93.8952 137.195 94.3612Z" fill="#006587"/>
<path d="M130.683 90.6298C129.984 91.0958 129.984 91.7949 130.683 92.0279C131.381 92.4939 132.545 92.4939 133.244 92.0279C133.942 91.5619 133.942 90.8628 133.244 90.6298C132.545 90.1638 131.381 90.1638 130.683 90.6298Z" fill="#006587"/>
<path d="M123.929 86.6709C123.231 87.1369 123.231 87.8359 123.929 88.0689C124.627 88.535 125.791 88.535 126.49 88.0689C127.188 87.6029 127.188 86.9039 126.49 86.6709C125.791 86.4378 124.627 86.4378 123.929 86.6709Z" fill="#006587"/>
<path d="M117.409 82.9442C116.711 83.4103 116.711 84.1093 117.409 84.3423C118.108 84.8084 119.272 84.8084 119.97 84.3423C120.669 83.8763 120.669 83.1773 119.97 82.9442C119.272 82.4782 118.108 82.4782 117.409 82.9442Z" fill="#006587"/>
<path d="M166.298 102.048C165.6 101.582 164.436 101.582 163.738 102.048C163.039 102.514 163.039 103.213 163.738 103.446C164.436 103.912 165.6 103.912 166.298 103.446C166.997 102.98 166.997 102.514 166.298 102.048Z" fill="#006587"/>
<path d="M157.222 98.0869C156.523 98.5529 156.523 99.252 157.222 99.485C157.92 99.951 159.084 99.951 159.783 99.485C160.481 99.0189 160.481 98.3199 159.783 98.0869C159.084 97.8539 157.92 97.8539 157.222 98.0869Z" fill="#006587"/>
<path d="M150.468 94.3612C149.77 94.8273 149.77 95.5263 150.468 95.7593C151.166 96.2254 152.33 96.2254 153.029 95.7593C153.727 95.2933 153.727 94.5943 153.029 94.3612C152.33 93.8952 151.166 93.8952 150.468 94.3612Z" fill="#006587"/>
<path d="M143.952 90.6298C143.254 91.0958 143.254 91.7949 143.952 92.0279C144.651 92.4939 145.815 92.4939 146.513 92.0279C147.212 91.5619 147.212 90.8628 146.513 90.6298C145.815 90.1638 144.651 90.1638 143.952 90.6298Z" fill="#006587"/>
<path d="M137.431 86.6708C136.732 87.1368 136.732 87.8359 137.431 88.0689C138.129 88.5349 139.293 88.5349 139.992 88.0689C140.69 87.6029 140.69 86.9038 139.992 86.6708C139.061 86.2048 138.129 86.2048 137.431 86.6708Z" fill="#006587"/>
<path d="M130.683 82.9442C129.984 83.4103 129.984 84.1093 130.683 84.3423C131.381 84.8084 132.545 84.8084 133.244 84.3423C133.942 83.8763 133.942 83.1773 133.244 82.9442C132.545 82.4782 131.381 82.4782 130.683 82.9442Z" fill="#006587"/>
<path d="M124.157 78.9804C123.459 79.4465 123.459 80.1455 124.157 80.3785C124.856 80.8445 126.02 80.8445 126.718 80.3785C127.417 79.9125 127.417 79.2134 126.718 78.9804C126.02 78.7474 124.856 78.7474 124.157 78.9804Z" fill="#006587"/>
<path d="M157.222 90.6298C156.523 91.0958 156.523 91.7949 157.222 92.0279C157.92 92.4939 159.084 92.4939 159.783 92.0279C160.481 91.5619 160.481 90.8628 159.783 90.6298C159.084 90.1638 157.92 90.1638 157.222 90.6298Z" fill="#006587"/>
<path d="M150.468 86.6708C149.77 87.1368 149.77 87.8359 150.468 88.0689C151.166 88.5349 152.33 88.5349 153.029 88.0689C153.727 87.6029 153.727 86.9038 153.029 86.6708C152.33 86.2048 151.166 86.2048 150.468 86.6708Z" fill="#006587"/>
<path d="M143.952 82.9442C143.254 83.4103 143.254 84.1093 143.952 84.3423C144.651 84.8084 145.815 84.8084 146.513 84.3423C147.212 83.8763 147.212 83.1773 146.513 82.9442C145.815 82.4782 144.651 82.4782 143.952 82.9442Z" fill="#006587"/>
<path d="M137.431 78.9804C136.732 79.4465 136.732 80.1455 137.431 80.3785C138.129 80.8445 139.293 80.8445 139.992 80.3785C140.69 79.9125 140.69 79.2134 139.992 78.9804C139.061 78.7474 138.129 78.7474 137.431 78.9804Z" fill="#006587"/>
<path d="M130.683 75.2509C129.984 75.7169 129.984 76.416 130.683 76.649C131.381 77.115 132.545 77.115 133.244 76.649C133.942 76.1829 133.942 75.4839 133.244 75.2509C132.545 74.7849 131.381 74.7849 130.683 75.2509Z" fill="#006587"/>
<path d="M159.783 82.9442C159.084 82.4782 157.92 82.4782 157.222 82.9442C156.523 83.4103 156.523 84.1093 157.222 84.3423C157.92 84.8084 159.084 84.8084 159.783 84.3423C160.481 83.8763 160.481 83.1773 159.783 82.9442Z" fill="#006587"/>
<path d="M150.468 78.9804C149.77 79.4465 149.77 80.1455 150.468 80.3785C151.166 80.8445 152.33 80.8445 153.029 80.3785C153.727 79.9125 153.727 79.2134 153.029 78.9804C152.33 78.7474 151.166 78.7474 150.468 78.9804Z" fill="#006587"/>
<path d="M143.952 75.2509C143.254 75.7169 143.254 76.416 143.952 76.649C144.651 77.115 145.815 77.115 146.513 76.649C147.212 76.1829 147.212 75.4839 146.513 75.2509C145.815 74.7849 144.651 74.7849 143.952 75.2509Z" fill="#006587"/>
<path d="M137.431 71.2919C136.732 71.758 136.732 72.457 137.431 72.69C138.129 73.1561 139.293 73.1561 139.992 72.69C140.69 72.224 140.69 71.525 139.992 71.2919C139.061 71.0589 138.129 71.0589 137.431 71.2919Z" fill="#006587"/>
<path d="M157.222 75.2509C156.523 75.7169 156.523 76.416 157.222 76.649C157.92 77.115 159.084 77.115 159.783 76.649C160.481 76.1829 160.481 75.4839 159.783 75.2509C159.084 74.7849 157.92 74.7849 157.222 75.2509Z" fill="#006587"/>
<path d="M150.468 71.2919C149.77 71.758 149.77 72.457 150.468 72.69C151.166 73.1561 152.33 73.1561 153.029 72.69C153.727 72.224 153.727 71.525 153.029 71.2919C152.33 71.0589 151.166 71.0589 150.468 71.2919Z" fill="#006587"/>
<path d="M143.952 67.5624C143.254 68.0284 143.254 68.7275 143.952 68.9605C144.651 69.4265 145.815 69.4265 146.513 68.9605C147.212 68.4945 147.212 67.7954 146.513 67.5624C145.815 67.0964 144.651 67.0964 143.952 67.5624Z" fill="#006587"/>
<path d="M157.222 67.5624C156.523 68.0284 156.523 68.7275 157.222 68.9605C157.92 69.4265 159.084 69.4265 159.783 68.9605C160.481 68.4945 160.481 67.7954 159.783 67.5624C159.084 67.0964 157.92 67.0964 157.222 67.5624Z" fill="#006587"/>
<path d="M150.468 63.8329C149.77 64.299 149.77 64.998 150.468 65.231C151.166 65.697 152.33 65.697 153.029 65.231C153.727 64.765 153.727 64.0659 153.029 63.8329C152.33 63.3669 151.166 63.3669 150.468 63.8329Z" fill="#006587"/>
<path d="M126.255 124.421C125.557 123.955 124.393 123.955 123.695 124.421C122.996 124.887 122.996 125.586 123.695 125.819C124.393 126.285 125.557 126.285 126.255 125.819C126.954 125.353 126.954 124.887 126.255 124.421Z" fill="#006587"/>
<path d="M117.177 120.459C116.479 120.925 116.479 121.624 117.177 121.857C117.875 122.323 119.039 122.323 119.738 121.857C120.436 121.391 120.436 120.692 119.738 120.459C119.039 120.226 117.875 120.226 117.177 120.459Z" fill="#006587"/>
<path d="M110.429 116.728C109.73 117.194 109.73 117.894 110.429 118.127C111.127 118.593 112.291 118.593 112.99 118.127C113.688 117.66 113.688 116.961 112.99 116.728C112.291 116.262 111.127 116.262 110.429 116.728Z" fill="#006587"/>
<path d="M103.907 113.003C103.209 113.469 103.209 114.168 103.907 114.401C104.606 114.867 105.77 114.867 106.468 114.401C107.167 113.935 107.167 113.236 106.468 113.003C105.77 112.537 104.606 112.537 103.907 113.003Z" fill="#006587"/>
<path d="M98.0871 109.039C97.3887 109.505 97.3887 110.204 98.0871 110.437C98.7856 110.903 99.9496 110.903 100.648 110.437C101.346 109.971 101.346 109.272 100.648 109.039C99.9496 108.573 98.7856 108.573 98.0871 109.039Z" fill="#006587"/>
<path d="M136.503 125.583C135.805 126.049 135.805 126.748 136.503 126.981C137.202 127.447 138.366 127.447 139.064 126.981C139.762 126.515 139.762 125.816 139.064 125.583C138.366 125.117 137.202 125.117 136.503 125.583Z" fill="#006587"/>
<path d="M141.622 120.458L170.258 103.914V71.0586L141.622 87.6027V120.458Z" fill="#00A0B6"/>
<path d="M113.219 71.0607L141.622 87.6048L170.258 71.0607L141.622 54.5166L113.219 71.0607Z" fill="#00A0B6"/>
<path d="M113.222 76.6506L136.503 90.1655L165.139 73.6214L141.625 60.1064L113.222 76.6506Z" fill="#F9FCFF"/>
<path d="M169.329 103.448V72.4573L142.323 88.0693V119.06L169.329 103.448ZM141.625 55.4471L114.619 71.0592L128.122 78.7487L141.625 86.4382L145.815 84.1081L168.398 71.0592L141.625 55.4471ZM141.625 53.583L170.26 70.1271L171.191 70.5931V104.613L142.556 121.158L141.625 121.624L140.693 121.158L112.058 104.613V71.5252V70.5931L141.625 53.583Z" fill="#006587"/>
<path d="M148.606 110.67L153.029 108.107C153.728 107.641 154.193 106.709 154.193 105.777V101.117C154.193 100.185 153.728 99.7187 153.029 100.185L148.606 102.748C147.907 103.214 147.442 104.146 147.442 105.078V109.738C147.442 110.67 147.907 111.137 148.606 110.67Z" fill="#F9FCFF"/>
<path d="M15.072 179.404L16.7016 172.88H20.4266C24.3844 170.317 30.2046 168.686 36.9561 168.686C43.4748 168.686 49.2951 170.317 53.2528 172.88H56.745L58.3746 179.171C58.6074 179.87 58.6074 180.569 58.6074 181.268C58.6074 188.259 48.8294 193.851 36.7233 193.851C24.6172 193.851 14.8392 188.259 14.8392 181.268C14.8392 180.569 15.072 180.103 15.072 179.404Z" fill="#F9FCFF"/>
<path d="M15.074 179.639L16.7036 173.114H20.4286C24.3863 170.551 30.2066 168.92 36.9581 168.92C38.3549 168.92 39.7518 168.92 41.1486 169.153C44.8736 169.852 48.1329 171.25 50.6938 172.881H52.5563C52.7891 173.114 53.0219 173.114 53.2548 173.347H54.4188L56.0485 179.406C56.2813 180.105 56.2812 180.804 56.2812 181.503C56.2812 188.493 46.5033 194.086 34.3972 194.086C33.0003 194.086 31.6034 194.086 30.2066 193.853C21.3598 192.221 15.074 187.328 15.074 181.736C14.8411 180.804 14.8411 180.105 15.074 179.639Z" fill="#00A0B6"/>
<path d="M57.4438 178.473L57.6766 179.405C57.9094 180.104 57.9094 180.57 57.9094 181.269C57.9094 187.794 48.3642 193.153 36.7237 193.153C25.0832 193.153 15.538 187.794 15.538 181.269C15.538 180.803 15.538 180.104 15.7709 179.638L17.1677 173.813H20.427L20.6599 173.58C24.6176 171.016 30.4379 169.385 36.7237 169.385C42.7768 169.385 48.597 170.783 52.7876 173.58L53.0204 173.813H56.2797L57.4438 178.473ZM36.7237 194.784C49.2954 194.784 59.5391 188.726 59.5391 181.269C59.5391 180.803 59.5391 180.57 59.5391 180.104L59.3062 179.172L57.4438 172.182H53.486C49.2954 169.385 43.2424 167.987 36.9565 167.987C30.6707 167.987 24.6176 169.618 20.1942 172.182H16.0037L14.374 179.172C14.1412 179.871 14.1412 180.57 14.1412 181.269C14.1412 188.726 24.3848 194.784 36.7237 194.784Z" fill="#006587"/>
<path d="M16.4677 174.511C16.4677 181.036 25.5472 186.162 36.7221 186.162C47.897 186.162 56.9766 181.036 56.9766 174.511C56.9766 167.987 47.897 162.86 36.7221 162.86C25.5472 162.86 16.4677 167.987 16.4677 174.511Z" fill="#00A0B6"/>
<path d="M16.2368 174.512C16.2368 172.415 17.4009 170.318 19.2633 168.453C22.9883 166.123 28.3429 164.492 34.396 164.492C45.5708 164.492 54.6504 169.619 54.6504 176.143C54.6504 178.24 53.4863 180.337 51.6239 182.201C47.8989 184.532 42.5443 186.163 36.4912 186.163C25.3164 186.163 16.2368 180.803 16.2368 174.512Z" fill="#F9FCFF"/>
<path d="M36.7229 163.56C47.4321 163.56 56.0461 168.454 56.0461 174.512C56.0461 180.57 47.4321 185.464 36.7229 185.464C26.0136 185.464 17.3997 180.57 17.3997 174.512C17.3997 168.454 26.0136 163.56 36.7229 163.56ZM36.7229 186.862C48.3634 186.862 57.6758 181.269 57.6758 174.512C57.6758 167.754 48.3634 162.162 36.7229 162.162C25.0824 162.162 15.77 167.754 15.77 174.512C15.77 181.269 25.0824 186.862 36.7229 186.862Z" fill="#006587"/>
<path d="M26.4834 173.815C26.4834 176.844 31.1396 179.174 36.7271 179.174C42.3145 179.174 46.9707 176.844 46.9707 173.815C46.9707 170.785 42.3145 168.455 36.7271 168.455C31.1396 168.222 26.4834 170.785 26.4834 173.815Z" fill="#F9FCFF"/>
<path d="M36.7216 168.223C38.1184 168.223 39.2825 168.456 40.4465 168.689C42.7746 169.621 44.4043 171.252 44.4043 172.883C44.4043 175.912 39.7481 178.242 34.1606 178.242C32.7638 178.242 31.5998 178.009 30.4357 177.776C28.1076 176.844 26.478 175.213 26.478 173.582C26.478 170.786 31.1341 168.223 36.7216 168.223Z" fill="#00A0B6"/>
<path d="M36.7236 169.153C41.8454 169.153 46.2688 171.25 46.2688 173.813C46.2688 176.376 41.8454 178.473 36.7236 178.473C31.6018 178.473 27.1784 176.376 27.1784 173.813C27.4112 171.25 31.6018 169.153 36.7236 169.153ZM36.7236 180.104C43.0094 180.104 47.8984 177.308 47.8984 173.813C47.8984 170.318 43.0094 167.521 36.7236 167.521C30.4377 167.521 25.5488 170.318 25.5488 173.813C25.7816 177.308 30.6706 180.104 36.7236 180.104Z" fill="#006587"/>
<path d="M36.7267 171.717C32.3033 171.717 28.5783 173.115 27.1815 175.446C26.7159 174.98 26.7159 174.28 26.7159 173.814C26.7159 170.785 31.3721 168.455 36.9595 168.455C42.5469 168.455 47.2031 170.785 47.2031 173.814C47.2031 174.513 46.9703 174.979 46.5047 175.679C45.1078 173.348 41.3829 171.717 36.7267 171.717Z" fill="#006587"/>
<path d="M36.7236 168.919C41.8454 168.919 46.2688 171.016 46.2688 173.579C46.2688 173.813 46.2688 173.813 46.2688 174.046C44.4063 172.181 40.6813 171.016 36.7236 171.016C32.7658 171.016 29.2737 172.181 27.4112 173.813V173.579C27.4112 171.249 31.6018 168.919 36.7236 168.919ZM45.8031 175.91H47.2C47.6656 175.211 47.8984 174.512 47.8984 173.579C47.8984 170.084 43.0094 167.288 36.7236 167.288C30.4377 167.288 25.5488 170.084 25.5488 173.579C25.5488 174.279 25.7816 174.978 26.2472 175.677L28.3425 176.609L27.6441 175.677C29.0409 173.813 32.533 172.414 36.7236 172.414C40.9142 172.647 44.6391 174.046 45.8031 175.91Z" fill="#006587"/>
<path d="M41.1476 186.164L41.6133 193.621H32.5337L24.1526 191.523L19.962 189.659L15.7714 186.164L14.8402 181.504L16.0042 175.445L18.3323 179.174L21.3588 181.737L28.1103 184.999L36.7243 186.164H41.1476Z" fill="#006587"/>
<path d="M56.0461 177.773L57.6758 185.23L58.8398 180.569L57.443 175.21L56.0461 177.773Z" fill="#006587"/>
<path d="M44.9372 303.37L46.5669 296.846H50.2918C54.2496 294.282 60.0699 292.651 66.5885 292.651C73.1072 292.651 78.9275 294.282 83.118 296.846H86.6102L88.2398 303.137C88.4727 303.836 88.4727 304.535 88.4727 305.234C88.4727 312.225 78.6946 317.817 66.5885 317.817C54.4824 317.817 44.7044 312.225 44.7044 305.234C44.7044 304.768 44.9372 304.069 44.9372 303.37Z" fill="#F9FCFF"/>
<path d="M44.9415 303.604L46.5712 297.08H50.2961C54.2539 294.517 60.0741 292.886 66.5928 292.886C67.9897 292.886 69.3865 292.886 70.7834 293.119C74.5083 293.818 77.7677 295.216 80.3286 296.847H82.1911C82.4239 297.08 82.6567 297.08 82.8895 297.313H84.0535L85.6832 303.371C85.916 304.07 85.916 304.77 85.916 305.469C85.916 312.459 76.138 318.051 64.0319 318.051C62.635 318.051 61.2382 318.051 59.8413 317.818C50.9945 316.187 44.7087 311.294 44.7087 305.702C44.7087 304.77 44.7087 304.304 44.9415 303.604Z" fill="#00A0B6"/>
<path d="M87.309 302.44L87.5418 303.372C87.7746 304.071 87.7746 304.537 87.7746 305.236C87.7746 311.76 78.2294 317.12 66.5889 317.12C54.9485 317.12 45.4032 311.76 45.4032 305.236C45.4032 304.77 45.4033 304.071 45.6361 303.605L47.0329 297.779H50.2923L50.5251 297.546C54.4828 294.983 60.3031 293.352 66.5889 293.352C72.642 293.352 78.4622 294.75 82.6528 297.546L82.8856 297.779H86.145L87.309 302.44ZM66.5889 318.751C79.1607 318.751 89.4043 312.692 89.4043 305.236C89.4043 304.77 89.4043 304.537 89.4043 304.071L89.1715 303.139L87.309 296.148H83.3512C79.1607 293.352 73.1076 291.954 66.8217 291.954C60.5359 291.954 54.4828 293.585 50.0594 296.148H45.8689L44.2392 303.139C44.0064 303.838 44.0064 304.537 44.0064 305.236C44.0064 312.692 54.25 318.751 66.5889 318.751Z" fill="#006587"/>
<path d="M46.3329 298.477C46.3329 305.001 55.4125 310.128 66.5873 310.128C77.7622 310.128 86.8418 305.001 86.8418 298.477C86.8418 291.953 77.7622 286.826 66.5873 286.826C55.4125 286.826 46.3329 291.953 46.3329 298.477Z" fill="#00A0B6"/>
<path d="M46.102 298.478C46.102 296.381 47.2661 294.283 49.1285 292.419C52.8535 290.089 58.2081 288.458 64.2612 288.458C75.436 288.458 84.5156 293.584 84.5156 300.109C84.5156 302.206 83.3516 304.303 81.4891 306.167C77.7641 308.497 72.4095 310.128 66.3565 310.128C55.1816 310.128 46.102 304.769 46.102 298.478Z" fill="#F9FCFF"/>
<path d="M66.5881 287.526C77.2974 287.526 85.9113 292.419 85.9113 298.478C85.9113 304.536 77.2974 309.429 66.5881 309.429C55.8789 309.429 47.2649 304.536 47.2649 298.478C47.2649 292.419 55.8789 287.526 66.5881 287.526ZM66.5881 310.828C78.2286 310.828 87.541 305.235 87.541 298.478C87.541 291.72 78.2286 286.128 66.5881 286.128C54.9476 286.128 45.6352 291.72 45.6352 298.478C45.6352 305.235 54.9476 310.828 66.5881 310.828Z" fill="#006587"/>
<path d="M56.3467 297.78C56.3467 300.809 61.0029 303.14 66.5904 303.14C72.1778 303.14 76.834 300.809 76.834 297.78C76.834 294.751 72.1778 292.421 66.5904 292.421C61.0029 292.421 56.3467 294.751 56.3467 297.78Z" fill="#F9FCFF"/>
<path d="M66.5907 292.421C67.9876 292.421 69.1516 292.654 70.3157 292.887C72.6438 293.819 74.2734 295.45 74.2734 297.081C74.2734 300.11 69.6172 302.441 64.0298 302.441C62.6329 302.441 61.4689 302.208 60.3048 301.975C57.9767 301.042 56.3471 299.411 56.3471 297.78C56.3471 294.751 61.0033 292.421 66.5907 292.421Z" fill="#00A0B6"/>
<path d="M66.5888 293.118C71.7106 293.118 76.134 295.216 76.134 297.779C76.134 300.342 71.7106 302.439 66.5888 302.439C61.467 302.439 57.0436 300.342 57.0436 297.779C57.2764 295.216 61.467 293.118 66.5888 293.118ZM66.5888 304.07C72.8747 304.07 77.7637 301.274 77.7637 297.779C77.7637 294.283 72.8747 291.487 66.5888 291.487C60.3029 291.487 55.4139 294.283 55.4139 297.779C55.6467 301.274 60.5357 304.07 66.5888 304.07Z" fill="#006587"/>
<path d="M66.5919 295.916C62.1685 295.916 58.4436 297.314 57.0467 299.644C56.8139 299.178 56.5811 298.479 56.5811 297.78C56.5811 294.751 61.2373 292.421 66.8247 292.421C72.4122 292.421 77.0684 294.751 77.0684 297.78C77.0684 298.479 76.8356 298.945 76.3699 299.644C74.9731 297.314 71.2481 295.916 66.5919 295.916Z" fill="#006587"/>
<path d="M66.5888 293.118C71.7106 293.118 76.134 295.215 76.134 297.778C76.134 298.011 76.134 298.011 76.134 298.244C74.2715 296.38 70.5466 295.215 66.5888 295.215C62.631 295.215 59.1389 296.38 57.2764 298.011V297.778C57.2764 295.215 61.467 293.118 66.5888 293.118ZM75.6684 299.876H77.0652C77.5309 299.176 77.7637 298.477 77.7637 297.545C77.7637 294.05 72.8747 291.254 66.5888 291.254C60.3029 291.254 55.4139 294.05 55.4139 297.545C55.4139 298.244 55.6467 298.943 56.1124 299.643L58.2076 300.575L57.5092 299.643C58.9061 297.778 62.3982 296.38 66.5888 296.38C70.7794 296.613 74.5043 298.011 75.6684 299.876Z" fill="#006587"/>
<path d="M71.0129 310.129L71.4785 317.586H62.3989L54.0178 315.489L49.5944 313.625L45.6366 310.129L44.7054 305.469L45.8694 299.644L48.1975 303.139L51.2241 305.935L57.9756 308.964L66.5895 310.129H71.0129Z" fill="#006587"/>
<path d="M85.9114 301.741L87.541 309.198L88.7051 304.537L87.3082 299.411L85.9114 301.741Z" fill="#006587"/>
<path d="M316.392 347.706L318.022 341.182H321.747C325.705 338.618 331.525 336.987 338.044 336.987C344.562 336.987 350.383 338.618 354.573 341.182H358.065L359.695 347.473C359.928 348.172 359.928 348.871 359.928 349.57C359.928 356.561 350.15 362.153 338.044 362.153C325.937 362.153 316.159 356.561 316.159 349.57C316.159 349.104 316.392 348.405 316.392 347.706Z" fill="#F9FCFF"/>
<path d="M316.397 347.94L318.026 341.416H321.751C325.709 338.853 331.529 337.222 338.048 337.222C339.445 337.222 340.842 337.222 342.238 337.455C345.963 338.154 349.223 339.552 351.784 341.183H353.646C353.879 341.416 354.112 341.416 354.345 341.649H355.509L357.138 347.707C357.371 348.406 357.371 349.105 357.371 349.805C357.371 356.795 347.593 362.387 335.487 362.387C334.09 362.387 332.693 362.387 331.296 362.154C322.45 360.523 316.164 355.63 316.164 350.038C316.164 349.105 316.164 348.639 316.397 347.94Z" fill="#00A0B6"/>
<path d="M358.764 346.775L358.997 347.707C359.23 348.406 359.23 348.872 359.23 349.571C359.23 356.095 349.685 361.455 338.044 361.455C326.404 361.455 316.858 356.095 316.858 349.571C316.858 349.105 316.858 348.406 317.091 347.94L318.488 342.114H321.747L321.98 341.881C325.938 339.318 331.758 337.687 338.044 337.687C344.097 337.687 349.917 339.085 354.108 341.881L354.341 342.114H357.6L358.764 346.775ZM338.044 363.086C350.616 363.086 360.859 357.027 360.859 349.571C360.859 349.105 360.859 348.872 360.859 348.406L360.627 347.474L358.764 340.483H354.806C350.616 337.687 344.563 336.289 338.277 336.289C331.991 336.289 325.938 337.92 321.515 340.483H317.324L315.694 347.474C315.461 348.173 315.461 348.872 315.461 349.571C315.461 357.027 325.705 363.086 338.044 363.086Z" fill="#006587"/>
<path d="M317.788 342.813C317.788 349.337 326.868 354.464 338.042 354.464C349.217 354.464 358.297 349.337 358.297 342.813C358.297 336.288 349.217 331.162 338.042 331.162C326.868 331.162 317.788 336.288 317.788 342.813Z" fill="#00A0B6"/>
<path d="M317.557 342.815C317.557 340.717 318.721 338.62 320.584 336.756C324.309 334.426 329.663 332.795 335.716 332.795C346.891 332.795 355.971 337.921 355.971 344.446C355.971 346.543 354.807 348.64 352.944 350.504C349.219 352.834 343.865 354.465 337.812 354.465C326.637 354.465 317.557 349.106 317.557 342.815Z" fill="#F9FCFF"/>
<path d="M338.043 331.862C348.752 331.862 357.366 336.755 357.366 342.814C357.366 348.872 348.752 353.765 338.043 353.765C327.334 353.765 318.72 348.872 318.72 342.814C318.72 336.755 327.334 331.862 338.043 331.862ZM338.043 355.164C349.684 355.164 358.996 349.571 358.996 342.814C358.996 336.056 349.684 330.464 338.043 330.464C326.403 330.464 317.09 336.056 317.09 342.814C317.09 349.571 326.403 355.164 338.043 355.164Z" fill="#006587"/>
<path d="M327.804 342.116C327.804 345.145 332.46 347.476 338.047 347.476C343.635 347.476 348.291 345.145 348.291 342.116C348.291 339.087 343.635 336.757 338.047 336.757C332.46 336.757 327.804 339.087 327.804 342.116Z" fill="#F9FCFF"/>
<path d="M338.042 336.757C339.439 336.757 340.603 336.99 341.767 337.223C344.095 338.155 345.725 339.786 345.725 341.417C345.725 344.446 341.068 346.777 335.481 346.777C334.084 346.777 332.92 346.543 331.756 346.31C329.428 345.378 327.798 343.747 327.798 342.116C327.798 339.087 332.454 336.757 338.042 336.757Z" fill="#00A0B6"/>
<path d="M338.044 337.454C343.166 337.454 347.589 339.551 347.589 342.115C347.589 344.678 343.166 346.775 338.044 346.775C332.922 346.775 328.499 344.678 328.499 342.115C328.731 339.551 332.922 337.454 338.044 337.454ZM338.044 348.406C344.33 348.406 349.219 345.61 349.219 342.115C349.219 338.619 344.33 335.823 338.044 335.823C331.758 335.823 326.869 338.619 326.869 342.115C327.102 345.61 331.991 348.406 338.044 348.406Z" fill="#006587"/>
<path d="M338.047 340.252C333.624 340.252 329.899 341.65 328.502 343.98C328.269 343.514 328.036 342.815 328.036 342.116C328.036 339.087 332.692 336.757 338.28 336.757C343.867 336.757 348.523 339.087 348.523 342.116C348.523 342.815 348.291 343.281 347.825 343.98C346.428 341.65 342.703 340.252 338.047 340.252Z" fill="#006587"/>
<path d="M338.044 337.454C343.166 337.454 347.589 339.551 347.589 342.114C347.589 342.347 347.589 342.347 347.589 342.58C345.727 340.716 342.002 339.551 338.044 339.551C334.086 339.551 330.594 340.716 328.731 342.347V342.114C328.731 339.551 332.922 337.454 338.044 337.454ZM347.123 344.211H348.52C348.986 343.512 349.219 342.813 349.219 341.881C349.219 338.386 344.33 335.59 338.044 335.59C331.758 335.59 326.869 338.386 326.869 341.881C326.869 342.58 327.102 343.279 327.567 343.978L329.663 344.911L328.964 343.978C330.361 342.114 333.853 340.716 338.044 340.716C342.234 340.949 345.959 342.347 347.123 344.211Z" fill="#006587"/>
<path d="M342.468 354.465L342.934 361.922H333.854L325.473 359.825L321.049 357.96L317.092 354.465L316.16 349.805L317.325 343.979L319.653 347.475L322.679 350.271L329.431 353.3L338.045 354.465H342.468Z" fill="#006587"/>
<path d="M357.366 346.077L358.996 353.534L360.16 348.873L358.763 343.747L357.366 346.077Z" fill="#006587"/>
<path d="M262.109 332.491C261.177 332.957 261.177 333.889 262.109 334.355C263.04 334.821 264.437 334.821 265.368 334.355C266.299 333.889 266.299 332.957 265.368 332.491C264.437 332.025 263.04 332.025 262.109 332.491Z" fill="#006587"/>
<path d="M253.724 327.598C252.793 328.064 252.793 328.996 253.724 329.462C254.655 329.928 256.052 329.928 256.983 329.462C257.914 328.996 257.914 328.064 256.983 327.598C256.052 327.132 254.655 327.132 253.724 327.598Z" fill="#006587"/>
<path d="M270.486 327.598C269.554 328.064 269.554 328.996 270.486 329.462C271.417 329.928 272.814 329.928 273.745 329.462C274.676 328.996 274.676 328.064 273.745 327.598C272.814 327.132 271.417 327.132 270.486 327.598Z" fill="#006587"/>
<path d="M262.109 322.705C261.177 323.171 261.177 324.103 262.109 324.569C263.04 325.035 264.437 325.035 265.368 324.569C266.299 324.103 266.299 323.171 265.368 322.705C264.437 322.239 263.04 322.239 262.109 322.705Z" fill="#006587"/>
<path d="M278.872 322.705C277.941 323.171 277.941 324.103 278.872 324.569C279.804 325.035 281.2 325.035 282.132 324.569C283.063 324.103 283.063 323.171 282.132 322.705C281.2 322.239 279.804 322.239 278.872 322.705Z" fill="#006587"/>
<path d="M270.486 317.809C269.554 318.276 269.554 319.208 270.486 319.674C271.417 320.14 272.814 320.14 273.745 319.674C274.676 319.208 274.676 318.276 273.745 317.809C272.814 317.343 271.417 317.343 270.486 317.809Z" fill="#006587"/>
<path d="M287.249 317.809C286.318 318.276 286.318 319.208 287.249 319.674C288.181 320.14 289.577 320.14 290.509 319.674C291.44 319.208 291.44 318.276 290.509 317.809C289.577 317.343 288.181 317.343 287.249 317.809Z" fill="#006587"/>
<path d="M278.872 313.153C277.941 313.619 277.941 314.551 278.872 315.017C279.804 315.483 281.2 315.483 282.132 315.017C283.063 314.551 283.063 313.619 282.132 313.153C281.2 312.454 279.804 312.454 278.872 313.153Z" fill="#006587"/>
<path d="M295.863 313.153C294.931 313.619 294.931 314.551 295.863 315.017C296.794 315.483 298.191 315.483 299.122 315.017C300.053 314.551 300.053 313.619 299.122 313.153C298.191 312.454 296.561 312.454 295.863 313.153Z" fill="#006587"/>
<path d="M287.249 308.257C286.318 308.723 286.318 309.655 287.249 310.121C288.181 310.587 289.577 310.587 290.509 310.121C291.44 309.655 291.44 308.723 290.509 308.257C289.577 307.791 288.181 307.791 287.249 308.257Z" fill="#006587"/>
<path d="M304.249 308.258C303.318 308.724 303.318 309.656 304.249 310.122C305.181 310.588 306.577 310.588 307.509 310.122C308.44 309.656 308.44 308.724 307.509 308.258C306.577 307.559 305.181 307.559 304.249 308.258Z" fill="#006587"/>
<path d="M295.863 303.365C294.931 303.831 294.931 304.763 295.863 305.229C296.794 305.695 298.191 305.695 299.122 305.229C300.053 304.763 300.053 303.831 299.122 303.365C298.191 302.899 296.794 302.899 295.863 303.365Z" fill="#006587"/>
<path d="M312.626 303.365C311.695 303.831 311.695 304.763 312.626 305.229C313.557 305.695 314.954 305.695 315.886 305.229C316.817 304.763 316.817 303.831 315.886 303.365C314.954 302.899 313.557 302.899 312.626 303.365Z" fill="#006587"/>
<path d="M304.249 298.471C303.318 298.937 303.318 299.869 304.249 300.335C305.181 300.801 306.577 300.801 307.509 300.335C308.44 299.869 308.44 298.937 307.509 298.471C306.577 298.005 305.181 298.005 304.249 298.471Z" fill="#006587"/>
<path d="M321.007 298.471C320.076 298.937 320.076 299.869 321.007 300.335C321.938 300.801 323.335 300.801 324.266 300.335C325.198 299.869 325.198 298.937 324.266 298.471C323.335 298.005 321.938 298.005 321.007 298.471Z" fill="#006587"/>
<path d="M312.626 293.576C311.695 294.042 311.695 294.974 312.626 295.44C313.557 295.906 314.954 295.906 315.886 295.44C316.817 294.974 316.817 294.042 315.886 293.576C314.954 293.11 313.557 293.11 312.626 293.576Z" fill="#006587"/>
<path d="M329.392 293.576C328.461 294.042 328.461 294.974 329.392 295.44C330.323 295.906 331.72 295.906 332.651 295.44C333.582 294.974 333.582 294.042 332.651 293.576C331.72 293.11 330.323 293.11 329.392 293.576Z" fill="#006587"/>
<path d="M321.007 288.684C320.076 289.151 320.076 290.083 321.007 290.549C321.938 291.015 323.335 291.015 324.266 290.549C325.198 290.083 325.198 289.151 324.266 288.684C323.335 288.218 321.938 288.218 321.007 288.684Z" fill="#006587"/>
<path d="M337.769 288.684C336.838 289.151 336.838 290.083 337.769 290.549C338.7 291.015 340.097 291.015 341.028 290.549C341.959 290.083 341.959 289.151 341.028 288.684C340.097 288.218 338.7 288.218 337.769 288.684Z" fill="#006587"/>
<path d="M329.392 284.023C328.461 284.489 328.461 285.421 329.392 285.887C330.323 286.353 331.72 286.353 332.651 285.887C333.582 285.421 333.582 284.489 332.651 284.023C331.72 283.324 330.323 283.324 329.392 284.023Z" fill="#006587"/>
<path d="M346.154 284.023C345.222 284.489 345.222 285.421 346.154 285.887C347.085 286.353 348.482 286.353 349.413 285.887C350.344 285.421 350.344 284.489 349.413 284.023C348.482 283.324 347.085 283.324 346.154 284.023Z" fill="#006587"/>
<path d="M337.769 279.129C336.838 279.595 336.838 280.527 337.769 280.993C338.7 281.459 340.097 281.459 341.028 280.993C341.959 280.527 341.959 279.595 341.028 279.129C340.097 278.663 338.7 278.663 337.769 279.129Z" fill="#006587"/>
<path d="M354.529 279.129C353.597 279.595 353.597 280.527 354.529 280.993C355.46 281.459 356.857 281.459 357.788 280.993C358.719 280.527 358.719 279.595 357.788 279.129C356.857 278.663 355.46 278.663 354.529 279.129Z" fill="#006587"/>
<path d="M346.154 274.237C345.222 274.703 345.222 275.635 346.154 276.101C347.085 276.567 348.482 276.567 349.413 276.101C350.344 275.635 350.344 274.703 349.413 274.237C348.482 273.771 347.085 273.771 346.154 274.237Z" fill="#006587"/>
<path d="M362.911 274.237C361.98 274.703 361.98 275.635 362.911 276.101C363.843 276.567 365.239 276.567 366.171 276.101C367.102 275.635 367.102 274.703 366.171 274.237C365.239 273.771 363.843 273.771 362.911 274.237Z" fill="#006587"/>
<path d="M354.529 269.347C353.597 269.813 353.597 270.745 354.529 271.211C355.46 271.677 356.857 271.677 357.788 271.211C358.719 270.745 358.719 269.813 357.788 269.347C356.857 268.881 355.46 268.881 354.529 269.347Z" fill="#006587"/>
<path d="M371.529 269.347C370.597 269.813 370.597 270.745 371.529 271.211C372.46 271.677 373.857 271.677 374.788 271.211C375.719 270.745 375.719 269.813 374.788 269.347C373.857 268.881 372.227 268.881 371.529 269.347Z" fill="#006587"/>
<path d="M363.148 264.451C362.216 264.917 362.216 265.849 363.148 266.315C364.079 266.781 365.476 266.781 366.407 266.315C367.338 265.849 367.338 264.917 366.407 264.451C365.243 263.985 363.846 263.985 363.148 264.451Z" fill="#006587"/>
<path d="M371.529 259.559C370.597 260.026 370.597 260.958 371.529 261.424C372.46 261.89 373.857 261.89 374.788 261.424C375.719 260.958 375.719 260.026 374.788 259.559C373.857 259.093 372.227 259.093 371.529 259.559Z" fill="#006587"/>
<path d="M228.353 341.345C227.422 341.811 227.422 342.743 228.353 343.209C229.284 343.675 230.681 343.675 231.612 343.209C232.543 342.743 232.543 341.811 231.612 341.345C230.681 340.879 229.284 340.879 228.353 341.345Z" fill="#006587"/>
<path d="M219.964 336.455C219.033 336.921 219.033 337.853 219.964 338.319C220.895 338.785 222.292 338.785 223.223 338.319C224.155 337.853 224.155 336.921 223.223 336.455C222.292 335.989 220.895 335.989 219.964 336.455Z" fill="#006587"/>
<path d="M211.585 331.793C210.654 332.259 210.654 333.191 211.585 333.657C212.516 334.123 213.913 334.123 214.845 333.657C215.776 333.191 215.776 332.259 214.845 331.793C213.913 331.094 212.516 331.094 211.585 331.793Z" fill="#006587"/>
<path d="M203.21 326.9C202.279 327.366 202.279 328.298 203.21 328.764C204.141 329.23 205.538 329.23 206.47 328.764C207.401 328.298 207.401 327.366 206.47 326.9C205.538 326.434 203.909 326.434 203.21 326.9Z" fill="#006587"/>
<path d="M194.824 322.004C193.892 322.47 193.892 323.402 194.824 323.868C195.755 324.334 197.152 324.334 198.083 323.868C199.014 323.402 199.014 322.47 198.083 322.004C197.152 321.538 195.522 321.538 194.824 322.004Z" fill="#006587"/>
<path d="M186.447 317.114C185.515 317.58 185.515 318.512 186.447 318.978C187.378 319.444 188.775 319.444 189.706 318.978C190.637 318.512 190.637 317.58 189.706 317.114C188.775 316.648 187.145 316.648 186.447 317.114Z" fill="#006587"/>
<path d="M178.06 312.222C177.129 312.688 177.129 313.62 178.06 314.086C178.991 314.552 180.388 314.552 181.319 314.086C182.25 313.62 182.25 312.688 181.319 312.222C180.388 311.756 178.758 311.756 178.06 312.222Z" fill="#006587"/>
<path d="M169.45 307.559C168.519 308.025 168.519 308.958 169.45 309.424C170.382 309.89 171.779 309.89 172.71 309.424C173.641 308.958 173.641 308.025 172.71 307.559C171.779 306.86 170.382 306.86 169.45 307.559Z" fill="#006587"/>
<path d="M161.068 302.664C160.136 303.13 160.136 304.062 161.068 304.528C161.999 304.994 163.396 304.994 164.327 304.528C165.258 304.062 165.258 303.13 164.327 302.664C163.396 302.198 161.999 302.198 161.068 302.664Z" fill="#006587"/>
<path d="M152.683 297.773C151.752 298.239 151.752 299.171 152.683 299.637C153.614 300.104 155.011 300.104 155.942 299.637C156.873 299.171 156.873 298.239 155.942 297.773C155.011 297.307 153.614 297.307 152.683 297.773Z" fill="#006587"/>
<path d="M144.304 292.881C143.373 293.347 143.373 294.279 144.304 294.745C145.235 295.211 146.632 295.211 147.563 294.745C148.495 294.279 148.495 293.347 147.563 292.881C146.632 292.415 145.235 292.415 144.304 292.881Z" fill="#006587"/>
<path d="M135.927 287.984C134.996 288.45 134.996 289.382 135.927 289.848C136.858 290.314 138.255 290.314 139.186 289.848C140.118 289.382 140.118 288.45 139.186 287.984C138.255 287.518 136.858 287.518 135.927 287.984Z" fill="#006587"/>
<path d="M245.113 341.345C244.181 341.811 244.181 342.743 245.113 343.209C246.044 343.675 247.441 343.675 248.372 343.209C249.303 342.743 249.303 341.811 248.372 341.345C247.441 340.879 246.044 340.879 245.113 341.345Z" fill="#006587"/>
<path d="M236.734 336.455C235.802 336.921 235.802 337.853 236.734 338.319C237.665 338.785 239.062 338.785 239.993 338.319C240.924 337.853 240.924 336.921 239.993 336.455C239.062 335.989 237.665 335.989 236.734 336.455Z" fill="#006587"/>
<path d="M228.353 331.793C227.422 332.259 227.422 333.191 228.353 333.657C229.284 334.123 230.681 334.123 231.612 333.657C232.543 333.191 232.543 332.259 231.612 331.793C230.681 331.094 229.284 331.094 228.353 331.793Z" fill="#006587"/>
<path d="M219.964 326.9C219.033 327.366 219.033 328.298 219.964 328.764C220.895 329.23 222.292 329.23 223.223 328.764C224.155 328.298 224.155 327.366 223.223 326.9C222.292 326.434 220.895 326.434 219.964 326.9Z" fill="#006587"/>
<path d="M211.585 322.004C210.654 322.47 210.654 323.402 211.585 323.868C212.516 324.334 213.913 324.334 214.845 323.868C215.776 323.402 215.776 322.47 214.845 322.004C213.913 321.538 212.516 321.538 211.585 322.004Z" fill="#006587"/>
<path d="M203.21 317.114C202.279 317.58 202.279 318.512 203.21 318.978C204.141 319.444 205.538 319.444 206.47 318.978C207.401 318.512 207.401 317.58 206.47 317.114C205.538 316.648 203.909 316.648 203.21 317.114Z" fill="#006587"/>
<path d="M194.824 312.222C193.892 312.688 193.892 313.62 194.824 314.086C195.755 314.552 197.152 314.552 198.083 314.086C199.014 313.62 199.014 312.688 198.083 312.222C197.152 311.756 195.522 311.756 194.824 312.222Z" fill="#006587"/>
<path d="M186.447 307.559C185.515 308.025 185.515 308.958 186.447 309.424C187.378 309.89 188.775 309.89 189.706 309.424C190.637 308.958 190.637 308.025 189.706 307.559C188.775 306.86 187.145 306.86 186.447 307.559Z" fill="#006587"/>
<path d="M178.06 302.664C177.129 303.13 177.129 304.062 178.06 304.528C178.991 304.994 180.388 304.994 181.319 304.528C182.25 304.062 182.25 303.13 181.319 302.664C180.388 302.198 178.758 302.198 178.06 302.664Z" fill="#006587"/>
<path d="M169.45 297.773C168.519 298.239 168.519 299.171 169.45 299.637C170.382 300.104 171.779 300.104 172.71 299.637C173.641 299.171 173.641 298.239 172.71 297.773C171.779 297.307 170.382 297.307 169.45 297.773Z" fill="#006587"/>
<path d="M161.068 292.881C160.136 293.347 160.136 294.279 161.068 294.745C161.999 295.211 163.396 295.211 164.327 294.745C165.258 294.279 165.258 293.347 164.327 292.881C163.396 292.415 161.999 292.415 161.068 292.881Z" fill="#006587"/>
<path d="M152.683 287.984C151.752 288.45 151.752 289.382 152.683 289.848C153.614 290.314 155.011 290.314 155.942 289.848C156.873 289.382 156.873 288.45 155.942 287.984C155.011 287.518 153.614 287.518 152.683 287.984Z" fill="#006587"/>
<path d="M144.304 283.092C143.373 283.558 143.373 284.49 144.304 284.956C145.235 285.422 146.632 285.422 147.563 284.956C148.495 284.49 148.495 283.558 147.563 283.092C146.632 282.626 145.235 282.626 144.304 283.092Z" fill="#006587"/>
<path d="M253.495 336.455C252.564 336.921 252.564 337.853 253.495 338.319C254.427 338.785 255.823 338.785 256.755 338.319C257.686 337.853 257.686 336.921 256.755 336.455C255.823 335.989 254.427 335.989 253.495 336.455Z" fill="#006587"/>
<path d="M245.113 331.793C244.181 332.259 244.181 333.191 245.113 333.657C246.044 334.123 247.441 334.123 248.372 333.657C249.303 333.191 249.303 332.259 248.372 331.793C247.441 331.094 246.044 331.094 245.113 331.793Z" fill="#006587"/>
<path d="M236.734 326.9C235.802 327.366 235.802 328.298 236.734 328.764C237.665 329.23 239.062 329.23 239.993 328.764C240.924 328.298 240.924 327.366 239.993 326.9C239.062 326.434 237.665 326.434 236.734 326.9Z" fill="#006587"/>
<path d="M130.805 283.324C129.874 282.858 128.477 282.858 127.546 283.324C126.615 283.79 126.615 284.722 127.546 285.188C128.477 285.654 129.874 285.654 130.805 285.188C131.737 284.722 131.737 283.79 130.805 283.324Z" fill="#006587"/>
<path d="M119.161 278.428C118.23 278.894 118.23 279.826 119.161 280.292C120.093 280.758 121.489 280.758 122.421 280.292C123.352 279.826 123.352 278.894 122.421 278.428C121.489 277.962 120.093 277.962 119.161 278.428Z" fill="#006587"/>
<path d="M110.786 273.54C109.855 274.006 109.855 274.938 110.786 275.404C111.718 275.87 113.114 275.87 114.046 275.404C114.977 274.938 114.977 274.006 114.046 273.54C113.114 273.074 111.718 273.074 110.786 273.54Z" fill="#006587"/>
<path d="M102.4 268.644C101.468 269.11 101.468 270.043 102.4 270.509C103.331 270.975 104.728 270.975 105.659 270.509C106.59 270.043 106.59 269.11 105.659 268.644C104.728 268.178 103.331 268.178 102.4 268.644Z" fill="#006587"/>
<path d="M94.0168 263.984C93.0856 264.45 93.0856 265.382 94.0168 265.848C94.9481 266.314 96.3449 266.314 97.2762 265.848C98.2074 265.382 98.2074 264.45 97.2762 263.984C96.3449 263.285 94.9481 263.285 94.0168 263.984Z" fill="#006587"/>
<path d="M85.634 259.091C84.7027 259.557 84.7027 260.489 85.634 260.955C86.5652 261.421 87.9621 261.421 88.8934 260.955C89.8246 260.489 89.8246 259.557 88.8934 259.091C87.9621 258.625 86.5652 258.625 85.634 259.091Z" fill="#006587"/>
<path d="M77.2571 254.201C76.3259 254.667 76.3259 255.599 77.2571 256.065C78.1883 256.531 79.5852 256.531 80.5164 256.065C81.4477 255.599 81.4477 254.667 80.5164 254.201C79.5852 253.735 78.1883 253.735 77.2571 254.201Z" fill="#006587"/>
<path d="M68.8743 249.303C67.943 249.769 67.943 250.701 68.8743 251.167C69.8055 251.633 71.2024 251.633 72.1336 251.167C73.0648 250.701 73.0648 249.769 72.1336 249.303C71.2024 248.837 69.8055 248.837 68.8743 249.303Z" fill="#006587"/>
<path d="M60.4934 244.412C59.5622 244.878 59.5622 245.81 60.4934 246.276C61.4247 246.742 62.8215 246.742 63.7527 246.276C64.684 245.81 64.684 244.878 63.7527 244.412C62.8215 243.946 61.4247 243.946 60.4934 244.412Z" fill="#006587"/>
<path d="M139.186 278.428C138.255 277.962 136.858 277.962 135.927 278.428C134.996 278.894 134.996 279.826 135.927 280.292C136.858 280.758 138.255 280.758 139.186 280.292C140.118 279.826 140.118 278.894 139.186 278.428Z" fill="#006587"/>
<path d="M127.546 273.54C126.615 274.006 126.615 274.938 127.546 275.404C128.477 275.87 129.874 275.87 130.805 275.404C131.737 274.938 131.737 274.006 130.805 273.54C129.874 273.074 128.477 273.074 127.546 273.54Z" fill="#006587"/>
<path d="M119.161 268.644C118.23 269.11 118.23 270.043 119.161 270.509C120.093 270.975 121.489 270.975 122.421 270.509C123.352 270.043 123.352 269.11 122.421 268.644C121.489 268.178 120.093 268.178 119.161 268.644Z" fill="#006587"/>
<path d="M110.786 263.984C109.855 264.45 109.855 265.382 110.786 265.848C111.718 266.314 113.114 266.314 114.046 265.848C114.977 265.382 114.977 264.45 114.046 263.984C113.114 263.285 111.718 263.285 110.786 263.984Z" fill="#006587"/>
<path d="M102.4 259.092C101.468 259.558 101.468 260.49 102.4 260.956C103.331 261.422 104.728 261.422 105.659 260.956C106.59 260.49 106.59 259.558 105.659 259.092C104.728 258.626 103.331 258.626 102.4 259.092Z" fill="#006587"/>
<path d="M94.0168 254.201C93.0856 254.667 93.0856 255.599 94.0168 256.065C94.9481 256.531 96.3449 256.531 97.2762 256.065C98.2074 255.599 98.2074 254.667 97.2762 254.201C96.3449 253.735 94.9481 253.735 94.0168 254.201Z" fill="#006587"/>
<path d="M85.634 249.303C84.7027 249.769 84.7027 250.701 85.634 251.167C86.5652 251.633 87.9621 251.633 88.8934 251.167C89.8246 250.701 89.8246 249.769 88.8934 249.303C87.9621 248.837 86.5652 248.837 85.634 249.303Z" fill="#006587"/>
<path d="M77.2571 244.412C76.3259 244.878 76.3259 245.81 77.2571 246.276C78.1883 246.742 79.5852 246.742 80.5164 246.276C81.4477 245.81 81.4477 244.878 80.5164 244.412C79.5852 243.946 78.1883 243.946 77.2571 244.412Z" fill="#006587"/>
<path d="M68.8743 239.518C67.943 239.984 67.943 240.917 68.8743 241.383C69.8055 241.849 71.2024 241.849 72.1336 241.383C73.0648 240.917 73.0648 239.984 72.1336 239.518C71.2024 239.052 69.8055 239.052 68.8743 239.518Z" fill="#006587"/>
<path d="M60.4934 234.858C59.5622 235.324 59.5622 236.256 60.4934 236.722C61.4247 237.188 62.8215 237.188 63.7527 236.722C64.684 236.256 64.684 235.324 63.7527 234.858C62.8215 234.159 61.4247 234.159 60.4934 234.858Z" fill="#006587"/>
<path d="M66.3118 219.247C66.3118 219.014 66.3118 219.014 66.3118 219.247V214.353H69.3383C69.5711 214.12 69.8039 214.12 70.0367 213.887L192.029 143.517C197.384 140.487 206.696 140.72 212.982 144.449L368.965 235.092C369.896 235.558 370.827 236.257 371.525 237.189H373.854V247.908C373.854 249.772 372.689 251.636 370.361 253.034L248.369 323.638C243.014 326.667 233.702 326.434 227.416 322.706L71.4336 232.062C68.1743 230.198 66.5446 227.868 66.3118 225.538V222.742V219.247Z" fill="#00A0B6"/>
<path d="M66.3169 225.07V222.273V219.244V219.011V214.351H69.3434C69.5762 214.118 69.809 214.118 70.0418 213.885L115.44 187.787C118.932 187.787 121.493 188.02 122.424 188.486C128.943 190.583 232.543 250.934 234.638 260.255C236.734 269.343 240.691 315.247 240.691 315.247V325.499C236.268 325.732 231.379 324.8 227.421 322.703L71.4387 232.06C68.1794 229.73 66.3169 227.4 66.3169 225.07Z" fill="#006587"/>
<path d="M372.691 238.119V247.673C372.691 249.304 371.527 250.702 369.665 251.867L247.673 322.471C242.551 325.5 233.704 325.034 227.884 321.539L71.9012 230.896C69.1075 229.265 67.4778 227.168 67.245 225.303V219.245V215.517H69.5732L69.806 215.284C70.0388 215.051 70.2716 215.051 70.2716 214.818L192.497 144.447C197.619 141.651 206.465 141.884 212.286 145.379L368.268 236.022C369.199 236.488 370.131 237.187 370.829 237.886L371.062 238.119H372.691ZM239.059 326.432C242.551 326.432 246.043 325.733 248.604 324.335L370.829 253.731C373.39 252.333 375.02 250.003 375.02 247.673V236.022H371.993C371.295 235.323 370.363 234.624 369.432 234.158L213.45 143.515C206.931 139.787 197.153 139.321 191.565 142.583L69.5732 213.187C69.3403 213.187 69.3403 213.42 69.1075 213.42H65.3825V225.303C65.6154 228.1 67.4779 230.896 70.97 232.76L226.953 323.403C230.212 325.5 234.868 326.432 239.059 326.432Z" fill="#006587"/>
<path d="M248.138 313.15L370.131 242.546C375.485 239.517 374.787 234.158 368.734 230.429L212.751 139.786C206.465 136.291 197.153 135.825 191.798 138.854L69.806 209.458C64.4513 212.487 65.1497 217.847 71.2028 221.575L227.185 312.218C233.471 315.713 242.784 316.179 248.138 313.15Z" fill="#00A0B6"/>
<path d="M201.111 137.925C205.068 137.925 209.259 138.857 212.286 140.721L368.268 231.364C371.062 232.995 372.924 235.093 372.924 237.19C372.924 238.821 371.76 240.452 369.898 241.384L247.905 311.988C242.784 315.017 233.937 314.551 228.117 311.056L72.1341 220.413C69.3403 218.782 67.4779 216.684 67.4779 214.587C67.4779 212.956 68.6419 211.325 70.5044 210.393L192.497 139.789C194.825 138.624 197.851 137.925 201.111 137.925ZM239.059 316.182C242.551 316.182 246.043 315.483 248.604 314.085L370.829 243.481C373.39 241.85 375.02 239.753 375.02 237.423C375.02 234.627 372.924 231.83 369.432 229.733L213.45 139.09C206.931 135.362 197.153 134.896 191.565 138.158L69.5732 208.762C67.0122 210.393 65.3825 212.49 65.3825 214.82C65.3825 217.616 67.4779 220.413 70.97 222.51L226.953 313.153C230.212 315.25 234.868 316.182 239.059 316.182Z" fill="#006587"/>
<path d="M236.498 306.161L236.964 305.928L354.766 237.888L206.466 151.672L206 151.905L88.1984 219.945L236.498 306.161Z" fill="#006587"/>
<path d="M235.798 299.403L355.695 230.197L204.369 142.117L84.7047 211.323L235.798 299.403Z" fill="#F9FCFF"/>
<path d="M353.606 230.198L236.037 298.239L86.8062 211.557L204.375 143.283L353.606 230.198ZM235.805 300.569L236.27 300.336L357.797 230.198L204.375 140.953L203.91 141.186L82.3828 211.324L235.805 300.569Z" fill="#006587"/>
<path d="M103.793 171.011V171.477L115.899 164.486C116.132 164.719 116.365 164.719 116.598 164.952C120.09 167.049 121.952 170.079 125.444 168.214C128.937 166.117 132.429 165.651 128.937 163.554C128.704 163.321 128.471 163.321 128.238 163.088L127.074 154L131.73 152.369L132.429 160.758L145.932 147.243C148.26 145.845 152.45 146.544 153.149 148.408L154.779 152.602L156.408 152.369V162.389C156.408 163.088 155.943 163.554 155.244 164.02L118.227 185.458C117.296 186.157 115.666 186.39 114.27 186.157L100.767 184.525C98.6714 184.292 97.2745 183.127 97.5073 181.962V172.176L103.793 171.011Z" fill="#006587"/>
<path d="M155.483 162.391C155.483 162.624 155.25 162.857 154.785 163.323L117.768 184.76C116.837 185.226 115.673 185.459 114.509 185.226L101.006 183.595C99.376 183.362 98.6776 182.663 98.6776 182.197V173.109L102.868 172.41V173.342L115.906 165.886H116.138C117.07 166.352 117.768 167.051 118.466 167.517C120.562 169.148 122.89 170.779 126.149 169.148C126.848 168.682 127.779 168.449 128.477 167.983C130.34 167.051 131.737 166.352 131.737 164.954C131.737 163.789 130.805 163.09 129.874 162.624C129.874 162.624 128.477 163.556 128.244 163.323V154.934L131.038 153.536L131.969 162.857L146.869 147.711C148.033 147.012 149.663 147.012 151.06 147.478C151.758 147.711 152.224 148.177 152.457 148.41L154.552 153.303L155.716 153.07L155.483 162.391ZM115.207 187.323C116.604 187.323 117.768 187.09 118.699 186.391L155.716 164.954C156.182 164.721 156.647 164.255 156.88 163.789L157.346 164.022V150.973L155.483 151.206L154.086 147.711C153.621 146.779 152.69 146.08 151.525 145.613C149.43 144.914 147.102 145.147 145.472 146.08L145.24 146.313L133.366 158.196L132.668 150.973L125.684 153.536V164.954L127.546 164.255C128.012 164.488 128.012 164.488 128.244 164.488C128.71 164.721 128.943 164.954 128.943 164.954C128.477 165.187 127.779 165.653 127.08 166.119C126.382 166.585 125.451 166.818 124.752 167.284C122.89 168.449 121.726 167.517 119.631 165.886C118.932 165.42 118.001 164.721 117.07 164.022C116.837 164.022 116.837 163.789 116.604 163.789L116.138 163.323L115.44 163.556L104.498 169.847L97.048 171.012C96.5823 171.012 96.3495 171.478 96.3495 171.711V181.964C96.1167 183.595 97.9792 185.226 100.54 185.692L114.043 187.323C114.509 187.323 114.974 187.323 115.207 187.323Z" fill="#006587"/>
<path d="M98.6715 170.314L115.899 160.294C116.132 160.527 116.365 160.527 116.598 160.76C120.09 162.858 125.677 162.858 129.17 160.76C132.662 158.663 132.662 155.634 129.17 153.537C128.937 153.304 128.704 153.304 128.471 153.071L146.398 142.818C148.726 141.42 152.916 142.119 153.615 143.983L156.874 151.673C157.107 152.605 156.874 153.304 155.71 154.003L118.693 175.44C117.762 176.139 116.132 176.372 114.735 176.139L101.232 174.508C97.5075 174.042 96.3434 171.712 98.6715 170.314Z" fill="#F9FCFF"/>
<path d="M149.198 143.282C149.897 143.282 150.595 143.282 151.061 143.515C151.759 143.748 152.225 144.214 152.457 144.447L155.717 152.137C155.95 152.603 155.251 153.069 155.018 153.069L118.002 174.506C117.07 174.972 115.906 175.205 114.742 174.972L101.239 173.341C99.6096 173.108 98.9112 172.409 98.9112 171.943C98.9112 171.477 99.3768 171.244 99.6096 171.011L116.372 161.458H116.605C120.33 163.555 126.383 163.555 130.108 161.458C132.203 160.292 133.134 158.661 133.134 157.03C133.134 155.632 132.436 154.234 130.806 153.069L147.103 143.748C147.336 143.515 148.267 143.282 149.198 143.282ZM115.208 177.303C116.605 177.303 117.769 177.07 118.7 176.371L155.717 154.933C157.346 154.001 157.812 152.603 157.346 151.205L154.087 143.515C153.622 142.583 152.69 141.884 151.526 141.418C149.431 140.719 147.103 140.952 145.473 141.884L125.917 153.302L127.78 154.234C128.245 154.467 128.245 154.467 128.478 154.467C129.875 155.166 130.573 156.098 130.573 157.03C130.573 157.962 129.875 158.894 128.478 159.593C125.452 161.458 120.097 161.458 117.07 159.593C116.838 159.593 116.838 159.36 116.605 159.36L116.139 158.894L115.441 159.127L98.2128 169.147C96.8159 169.846 96.1175 171.011 96.3503 172.409C96.5831 174.04 98.2128 175.205 100.541 175.438L114.044 177.07C114.509 177.303 114.975 177.303 115.208 177.303Z" fill="#006587"/>
<path d="M96.5771 204.799L192.495 149.341C194.823 147.943 194.59 145.613 191.796 144.215L185.743 140.72C183.182 139.088 178.992 139.088 176.664 140.254L80.746 195.711C78.4179 197.109 78.6507 199.44 81.4445 200.838L87.4975 204.333C90.2912 205.964 94.249 206.197 96.5771 204.799Z" fill="#F9FCFF"/>
<path d="M96.114 203.866C94.2516 205.031 90.5266 204.798 88.1985 203.4L82.1454 199.905C81.2142 199.206 80.5158 198.507 80.5158 197.808C80.5158 197.109 80.9814 196.643 81.447 196.41L177.597 141.185C179.46 140.02 183.185 140.253 185.513 141.651L191.566 145.146C192.497 145.612 192.963 146.311 192.963 147.01C192.963 147.71 192.497 148.176 192.032 148.409L96.114 203.866ZM92.6219 206.896C94.2516 206.896 95.8812 206.662 97.0453 205.963L193.196 150.273C194.36 149.574 195.291 148.409 195.291 147.01C195.291 145.612 194.36 144.214 192.497 143.049L186.444 139.554C183.418 137.923 178.994 137.69 176.433 139.088L80.5158 194.546C79.1189 195.245 78.4205 196.41 78.4205 197.808C78.4205 199.206 79.3517 200.604 81.2142 201.769L87.2673 205.264C88.6641 206.196 90.7594 206.896 92.6219 206.896Z" fill="#006587"/>
<path d="M126.608 191.984L174.567 164.255C175.731 163.556 175.498 162.391 174.334 161.691L171.307 160.06C169.911 159.361 168.048 159.128 166.884 159.827L118.925 187.556C117.761 188.255 117.994 189.42 119.158 190.119L122.185 191.75C123.349 192.683 125.444 192.683 126.608 191.984Z" fill="#00A0B6"/>
<path d="M168.745 160.293C169.443 160.293 170.141 160.526 170.84 160.759L173.866 162.39C174.332 162.623 174.332 162.856 174.332 162.856C174.332 162.856 174.332 162.856 174.099 163.089L126.14 190.818C125.209 191.284 123.812 191.284 122.648 190.585L119.622 188.954C119.156 188.721 119.156 188.488 119.156 188.488C119.156 188.488 119.156 188.488 119.389 188.255L167.348 160.759C167.813 160.526 168.279 160.293 168.745 160.293ZM124.744 193.614C125.675 193.614 126.606 193.381 127.304 192.915L175.263 165.187C176.195 164.72 176.66 164.021 176.66 163.089C176.66 162.157 175.962 161.225 175.03 160.759L172.004 159.128C170.374 158.196 167.813 157.963 166.417 158.895L118.225 186.624C117.294 187.09 116.828 187.789 116.828 188.721C116.828 189.653 117.526 190.585 118.458 191.051L121.484 192.682C122.415 193.381 123.58 193.614 124.744 193.614Z" fill="#006587"/>
<path d="M302.586 11.4137C302.586 11.1722 302.586 11.1722 302.344 10.9307L287.131 1.75424C286.406 1.02978 285.199 1.27127 283.991 2.23721L278.437 7.06695C278.196 7.30844 250.666 30.0082 220.48 24.454C219.756 24.454 219.273 24.2125 218.549 24.454C215.651 24.6955 212.27 26.6274 209.131 29.7667C208.406 30.4912 207.682 31.4571 207.199 32.1816C178.22 71.7854 150.449 81.2034 149.242 81.6864L143.688 83.3768C141.756 84.1012 140.065 86.7576 140.065 88.931V95.4511C141.514 180.454 164.938 213.297 184.74 226.095L203.093 237.445L204.301 233.823C207.923 234.306 210.338 234.065 210.821 234.065C212.753 233.823 214.685 232.616 216.617 230.684C219.032 228.027 273.366 168.863 285.199 49.3271L293.409 31.4571L302.586 11.4137Z" fill="#006587"/>
<path d="M220.475 25.4211C250.902 30.9753 278.19 8.75846 279.397 7.79251L284.952 2.96277C285.676 2.4798 286.401 2.4798 286.401 2.72129L301.131 11.6563L292.679 30.9753L284.469 48.8453V49.3282C272.636 168.623 218.543 227.304 216.128 229.96C214.437 231.651 212.747 232.858 211.057 232.858C210.574 232.858 208.4 233.1 204.778 232.617L203.812 232.375L202.846 235.515L185.942 225.131C166.623 212.573 143.199 179.731 141.991 95.4522V88.9321C141.991 87.2417 143.44 85.0683 144.889 84.5853L150.443 82.6534C151.651 82.1705 179.663 72.511 208.883 32.6657C209.608 31.6997 210.091 30.9753 210.815 30.2508C213.472 27.3529 216.611 25.4211 219.267 25.1796C219.509 25.1796 219.75 25.1796 219.75 25.1796C219.75 25.4211 220.233 25.4211 220.475 25.4211ZM205.502 235.032C208.883 235.515 210.815 235.273 211.298 235.273C213.472 235.032 215.886 233.824 217.818 231.409C220.233 228.994 274.809 169.589 286.642 49.5697L294.853 31.9412L303.546 11.8978C303.788 11.1733 303.546 10.2074 302.822 9.96589L287.85 0.789392C286.642 -0.176555 284.952 0.0649316 283.261 1.27237L277.707 6.1021C276.5 7.06805 250.178 28.5604 220.716 23.2477C219.992 23.0062 219.267 23.0062 218.543 23.2477C215.162 23.4892 211.54 25.6625 208.4 29.0434C207.676 29.7678 206.951 30.7338 206.227 31.6997C177.49 70.8206 150.202 80.2386 148.995 80.7215L143.44 82.4119C141.026 83.1364 138.852 86.5172 138.852 89.1736V95.6937C140.301 181.18 164.208 214.505 184.01 227.546L203.812 239.62L205.502 235.032Z" fill="#006587"/>
<path d="M287.372 1.75424C286.648 1.02978 285.44 1.27127 284.233 2.23721L278.679 7.06695C278.437 7.30844 250.908 30.0082 220.722 24.454C219.997 24.454 219.514 24.2125 218.79 24.454C215.892 24.6955 212.511 26.6274 209.372 29.7667C208.648 30.4912 207.923 31.4571 207.44 32.1816C178.462 71.7854 150.691 81.2034 149.483 81.6864L143.929 83.3768C142.963 83.6183 141.997 84.5842 141.273 85.7917L186.914 111.631L283.026 71.061C283.991 64.0578 284.957 56.8132 285.682 49.3271L293.892 31.4571L302.586 11.4137C302.586 11.1722 302.586 11.1722 302.344 10.9307L287.372 1.75424Z" fill="#F9FCFF"/>
<path d="M144.165 84.586L149.719 82.6541C150.926 82.1711 178.939 72.5117 208.159 32.6663C208.883 31.7004 209.366 30.9759 210.091 30.2515C212.747 27.3536 215.886 25.4217 218.543 25.1803C219.026 25.1803 219.509 25.1803 220.233 25.1803C250.661 30.7345 277.949 8.51767 279.156 7.55172L284.71 2.72199C285.676 2.4805 286.401 2.4805 286.401 2.72199L301.131 11.657L292.679 30.9759L284.469 48.846V49.3289C283.744 56.3321 283.02 63.3352 281.812 70.0968L186.908 109.942L143.199 85.069C143.44 84.8275 143.923 84.586 144.165 84.586ZM283.986 72.0287V71.3042C284.952 64.3011 285.918 57.0565 286.642 49.8119L294.853 32.1834L303.546 12.14C303.788 11.4155 303.546 10.4496 302.822 10.2081L287.85 1.03158C286.642 0.0656324 284.952 0.307119 283.261 1.51455L277.707 6.34429C276.5 7.31024 250.178 28.8026 220.716 23.4899C219.992 23.2484 219.267 23.2484 218.543 23.4899C215.162 23.7313 211.54 25.9047 208.4 29.2855C207.676 30.01 206.951 30.9759 206.227 31.9419C177.49 71.0628 150.202 80.4807 148.995 80.9637L143.44 82.6541C142.233 83.1371 141.025 84.103 140.06 85.552L139.335 86.7594L186.667 113.564L283.986 72.0287Z" fill="#006587"/>
<path d="M174.107 104.147C186.423 97.3852 206.466 83.379 227.234 56.574C228.683 54.6421 230.615 53.6761 232.064 53.6761C253.315 56.091 272.875 47.156 285.191 39.9114C286.882 38.9454 288.089 39.6699 287.848 41.6018C283.501 140.128 248.968 197.602 233.755 218.37C231.34 221.751 226.751 226.339 224.095 225.615C208.881 222.234 175.556 201.708 171.209 108.735C171.209 107.286 172.658 105.113 174.107 104.147ZM232.547 240.104C235.445 237.206 301.129 165.484 303.303 19.6265V12.8648C303.303 10.6915 301.612 9.967 299.68 11.4159L294.126 16.2457C293.885 16.4871 266.355 39.1869 236.169 33.6327C235.445 33.6327 234.962 33.3912 234.237 33.6327C231.34 33.8742 227.959 35.8061 224.82 38.9454C224.095 39.6699 223.371 40.6358 222.888 41.3603C193.909 80.9641 166.138 90.3821 164.931 90.8651L159.377 92.5555C157.445 93.2799 155.754 95.9363 155.754 98.1097V104.63C157.928 247.831 223.854 243.485 226.51 243.243C228.683 243.485 230.615 242.277 232.547 240.104Z" fill="#00A0B6"/>
<path d="M172.661 108.977C172.661 107.769 173.627 105.838 174.834 105.113C187.874 97.8685 207.676 83.6208 228.444 57.0572C229.893 55.3668 231.1 54.6424 232.066 54.6424C253.317 57.0572 273.119 48.3637 285.918 40.8776C286.401 40.6361 286.642 40.6361 286.642 40.6361C286.642 40.6361 286.884 40.8776 286.884 41.3606C282.537 139.887 247.763 197.361 233.032 217.404C230.134 221.268 226.271 224.649 224.822 224.166C213.472 222.234 177.249 206.538 172.661 108.977ZM234.964 219.336C249.936 199.051 284.952 141.095 289.299 41.8436C289.299 40.3947 288.816 39.4287 287.85 38.7042C286.884 38.2213 285.676 38.2213 284.469 38.9457C271.912 46.4318 252.834 54.8839 232.308 52.469C230.376 52.2275 228.203 53.4349 226.512 55.8498C205.986 81.9304 186.667 95.9366 173.868 103.181C171.936 104.389 170.246 107.045 170.487 109.218C175.317 208.469 212.989 224.649 224.339 227.305C224.58 227.305 224.822 227.305 225.063 227.305C228.203 227.305 232.791 222.234 234.964 219.336ZM235.93 35.0819C266.358 40.6361 293.646 18.4194 294.853 17.4534L300.407 12.6237C301.373 12.1407 301.856 12.1407 302.098 12.1407C302.339 12.1407 302.339 12.6237 302.339 13.1066V19.8683C300.166 165.243 234.723 236.482 231.825 239.38C230.134 241.07 228.444 242.278 226.754 242.278C226.029 242.278 210.333 243.485 194.153 228.996C177.973 214.507 158.413 181.181 157.205 104.872V98.3515C157.205 96.6611 158.654 94.4877 160.103 94.0047L165.658 92.0728C166.623 91.8313 194.636 82.1719 224.097 42.3265C224.822 41.6021 225.305 40.6361 226.029 39.9117C228.686 37.0138 231.825 35.0819 234.481 34.8405C234.723 34.8405 234.964 34.8405 234.964 34.8405C235.447 34.8405 235.689 35.0819 235.93 35.0819ZM226.995 244.934C229.169 244.693 231.583 243.485 233.515 241.312C236.413 238.414 302.339 166.451 304.754 20.1098V13.3481C304.754 11.8992 304.271 10.6918 303.063 10.2088C301.856 9.72583 300.407 9.96731 298.958 11.1747L293.404 16.0045C292.197 16.9704 265.875 38.4628 236.413 33.15C235.689 32.9086 234.964 32.9086 234.24 33.15C230.859 33.3915 227.237 35.5649 224.097 38.9457C223.373 39.6702 222.648 40.6361 221.924 41.6021C193.187 80.723 165.899 90.1409 164.692 90.6239L159.137 92.3143C156.723 93.0388 154.549 96.4196 154.549 99.076V105.596C155.757 182.872 175.8 216.68 192.221 231.652C206.227 244.21 219.751 245.658 224.822 245.658C226.029 244.934 226.512 244.934 226.995 244.934Z" fill="#006587"/>
<path d="M285.196 40.1523C273.122 47.3969 253.32 56.3319 232.069 53.917C230.62 53.6755 228.688 54.883 227.239 56.8149C206.471 83.6199 186.428 97.6261 174.112 104.388C172.422 105.354 171.214 107.527 171.214 109.459C175.561 202.19 208.886 222.958 224.1 226.339C226.515 226.822 231.103 222.475 233.759 219.094C248.973 198.326 283.506 140.852 287.852 42.3256C288.094 39.9108 286.645 39.1863 285.196 40.1523Z" fill="#00A0B6"/>
<path d="M232.068 54.8824C253.319 57.2973 273.121 48.6038 285.92 41.1177C286.403 40.8762 286.644 40.8762 286.644 40.8762C286.644 40.8762 286.886 41.1177 286.886 41.6007C282.539 140.127 247.765 197.601 233.034 217.645C230.137 221.508 226.273 224.889 224.824 224.406C213.715 221.991 177.492 206.295 172.904 108.734C172.904 107.527 173.87 105.595 175.078 104.87C188.118 97.6256 207.92 83.3779 228.688 56.8143C229.654 55.6069 230.861 54.8824 232.068 54.8824C231.827 54.8824 231.827 54.8824 232.068 54.8824ZM234.966 219.335C249.697 199.05 284.954 141.093 289.301 41.8421C289.301 40.3932 288.818 39.4273 287.852 38.7028C286.886 38.2198 285.678 38.2198 284.471 38.9443C271.914 46.4304 252.836 54.8824 232.31 52.4676C230.378 52.2261 228.205 53.4335 226.514 55.8484C205.988 81.929 186.669 95.9352 173.87 103.18C171.938 104.387 170.248 107.044 170.489 109.217C175.319 208.468 212.991 224.648 224.341 227.304C224.582 227.304 224.824 227.304 225.065 227.304C228.205 227.304 232.793 222.233 234.966 219.335Z" fill="#006587"/>
<path d="M285.196 40.1532C283.023 41.6021 280.366 42.8095 277.71 44.2585C272.639 140.129 238.831 196.395 223.858 216.922C222.168 219.336 219.27 222.234 216.855 223.442C219.512 224.649 221.926 225.615 224.1 226.098C226.515 226.581 231.103 222.234 233.759 218.853C248.973 198.086 283.506 140.612 287.852 42.0851C288.094 39.9117 286.645 39.1872 285.196 40.1532Z" fill="#006587"/>
<path d="M224.824 217.403C239.313 197.601 273.604 141.093 278.917 44.74C281.332 43.5326 283.505 42.3251 285.678 40.8762C286.161 40.6347 286.403 40.6347 286.403 40.6347C286.403 40.6347 286.644 40.8762 286.644 41.3592C282.298 139.886 247.524 197.36 232.793 217.403C229.895 221.267 226.031 224.648 224.582 224.165C222.892 223.923 221.443 223.199 219.753 222.474C221.684 221.508 223.616 219.335 224.824 217.403ZM234.966 219.335C249.697 199.05 284.954 141.093 289.301 41.8421C289.301 40.3932 288.818 39.4273 287.852 38.7028C286.886 38.2198 285.678 38.2198 284.471 38.9443C282.056 40.3932 279.641 41.6007 277.226 43.0496L276.502 43.2911V44.0155C271.189 140.127 237.381 196.394 222.892 215.954C221.443 218.128 218.545 221.025 216.372 222.233L214.198 223.44L216.372 224.406C219.028 225.614 221.443 226.58 223.858 227.063C224.099 227.063 224.341 227.063 224.582 227.063C228.205 227.304 232.793 222.233 234.966 219.335Z" fill="#006587"/>
<path d="M156.482 95.6943L140.544 86.7593L141.751 84.5859L157.689 93.521L156.482 95.6943Z" fill="#006587"/>
<path d="M166.138 91.347L150.2 82.1705L151.408 79.9971L167.346 89.1736L166.138 91.347Z" fill="#006587"/>
<path d="M233.273 34.5979L217.335 25.4214L218.542 23.248L234.48 32.4245L233.273 34.5979Z" fill="#006587"/>
<path d="M218.543 48.1214L202.605 38.9449L204.054 36.7715L219.992 45.948L218.543 48.1214Z" fill="#006587"/>
<path d="M154.069 121.29L141.994 114.045L143.443 111.872L155.518 119.117L154.069 121.29Z" fill="#00A0B6"/>
<path d="M174.351 208.95L163.484 202.671L164.933 200.498L175.559 206.777L174.351 208.95Z" fill="#00A0B6"/>
<path d="M251.14 35.3228L234.236 25.9048L235.444 23.7314L252.348 33.1494L251.14 35.3228Z" fill="#006587"/>
<path d="M232.067 218.852L226.754 215.471L227.961 213.298L233.516 216.679L232.067 218.852Z" fill="#00A0B6"/>
<path d="M284.712 60.1949L277.709 55.8482L278.917 53.6748L285.92 58.0216L284.712 60.1949Z" fill="#00A0B6"/>
<path d="M283.261 74.1998L276.258 69.8531L277.466 67.6797L284.469 72.0264L283.261 74.1998Z" fill="#00A0B6"/>
<path d="M221.687 162.102L224.102 160.653C232.796 155.582 239.799 142.058 239.799 130.467V116.219C239.799 112.597 237.625 110.906 234.728 112.355L210.82 126.12C207.923 127.811 205.749 131.916 205.749 135.78V150.027C205.991 161.619 212.994 167.173 221.687 162.102Z" fill="#00A0B6"/>
<path d="M236.895 113.322C237.136 113.322 237.136 113.322 237.378 113.322C237.861 113.564 238.344 114.288 238.344 115.979V130.468C238.344 141.576 231.582 154.375 223.372 159.205L220.957 160.654C217.817 162.585 214.678 162.827 212.263 161.378C209.365 159.688 207.675 155.582 207.675 150.028V135.78C207.675 132.641 209.607 129.019 211.78 127.57L235.687 113.805C235.929 113.564 236.412 113.322 236.895 113.322ZM215.403 165.725C217.576 165.725 219.991 165 222.647 163.551L225.062 162.103C234.239 156.79 241.725 142.542 241.725 130.468V116.22C241.725 113.564 240.759 111.632 239.068 110.666C237.619 109.941 235.929 109.941 233.997 110.907L210.09 124.672C206.709 126.604 204.294 131.434 204.294 135.78V150.028C204.294 156.79 206.709 161.861 210.573 164.276C212.022 165.242 213.712 165.725 215.403 165.725Z" fill="#F9FCFF"/>
<path d="M221.197 150.272L224.578 148.34V136.266H221.197V150.272Z" fill="#F9FCFF"/>
<path d="M217.096 138.917C217.096 142.54 219.752 143.988 222.892 142.298C226.031 140.366 228.688 136.019 228.688 132.397C228.688 128.775 226.031 127.326 222.892 129.016C219.752 130.707 217.096 135.053 217.096 138.917Z" fill="#F9FCFF"/>
<path d="M232.793 111.631L213.474 122.739V118.151C213.474 110.906 218.062 102.454 223.134 99.315L224.824 98.3491C226.273 97.6246 228.205 96.6587 230.137 97.8661C231.827 98.8321 233.034 101.488 233.034 104.869V111.631H232.793ZM210.093 128.535L236.174 113.563V104.869C236.174 100.039 234.483 96.4172 231.586 94.7268C229.171 93.2779 226.031 93.5193 222.892 95.2098L221.202 96.1757C214.682 99.798 209.852 109.457 209.852 117.91V128.535H210.093Z" fill="#F9FCFF"/>
<defs>
<radialGradient id="paint0_radial_4560_21974" cx="0" cy="0" r="1" gradientUnits="userSpaceOnUse" gradientTransform="translate(212.998 91.8017) rotate(90) scale(91.8017 212.998)">
<stop stop-color="#00708E"/>
<stop offset="1" stop-color="#0181A4" stop-opacity="0"/>
</radialGradient>
</defs>
</svg>
