<svg width="266" height="193" viewBox="0 0 266 193" fill="none" xmlns="http://www.w3.org/2000/svg">
<path d="M263.289 164.063H53.627C52.0059 164.063 50.79 165.024 50.79 166.082C50.79 167.236 52.141 168.102 53.627 168.102H263.153C264.775 168.102 265.99 167.14 265.99 166.082C266.125 165.024 264.775 164.063 263.289 164.063Z" fill="#D7F1F9"/>
<path d="M222.932 10H82.8444C74.9393 10 68.5894 16.35 68.5894 24.255V120.282C68.5894 128.187 74.9393 134.537 82.8444 134.537H222.932C230.837 134.537 237.187 128.187 237.187 120.282V24.255C237.187 16.4796 230.837 10 222.932 10Z" fill="#5183BB"/>
<path d="M82.3268 97.7329C79.2166 97.7329 76.6248 95.141 76.6248 92.0309L77.0135 24.1251C77.0135 21.0149 79.6054 18.4231 82.7155 18.4231H223.192C226.303 18.4231 228.894 21.0149 228.894 24.1251L228.506 92.1605C228.506 95.2706 225.914 97.8625 222.804 97.8625H82.3268V97.7329Z" fill="#D7F1F9"/>
<path d="M68.6764 107.52V120.433C68.6764 128.31 75.0217 134.637 82.921 134.637H222.907C230.806 134.637 237.152 128.31 237.152 120.433V107.52H68.6764Z" fill="#DCF3FA"/>
<path d="M177.723 134.637H128.104V153.677H177.723V134.637Z" fill="#BDE6EF"/>
<path d="M177.723 134.637H128.104V140.407H177.723V134.637Z" fill="#A4D3DD"/>
<path d="M188.276 153.677H117.422C110.506 153.677 105.025 159.215 105.025 165.912V168.101H200.802V165.912C200.802 159.086 195.191 153.677 188.276 153.677Z" fill="#D9F2FA"/>
<path d="M158.683 121.944C158.683 125.455 155.977 128.29 152.625 128.29C149.274 128.29 146.567 125.455 146.567 121.944C146.567 118.433 149.274 115.597 152.625 115.597C155.977 115.597 158.683 118.568 158.683 121.944Z" fill="#5183BB"/>
<g filter="url(#filter0_d_978_20340)">
<path d="M205.274 28.4749H98.2462C96.3143 28.4749 94.64 29.9738 94.64 31.9724V37.0937C94.64 38.9674 96.1855 40.5912 98.2462 40.5912H205.274C207.206 40.5912 208.88 39.0923 208.88 37.0937V31.9724C208.88 29.9738 207.206 28.4749 205.274 28.4749Z" fill="white"/>
</g>
<path d="M160.699 75.7864H96.0704C95.2902 75.7864 94.64 76.4881 94.64 77.3302V79.4353C94.64 80.2774 95.2902 80.9791 96.0704 80.9791H160.829C162.129 80.9791 163.299 79.8563 163.299 78.3126C163.169 76.9091 162.129 75.7864 160.699 75.7864Z" fill="#5183BB"/>
<path d="M138.213 85.0178H96.0708C95.2904 85.0178 94.64 85.7011 94.64 86.521V88.7074C94.64 89.5273 95.2904 90.2105 96.0708 90.2105H138.213C138.993 90.2105 139.644 89.5273 139.644 88.7074V86.521C139.644 85.5644 138.993 85.0178 138.213 85.0178Z" fill="white"/>
<path d="M117.315 37.0842C118.389 37.0842 119.259 36.2139 119.259 35.1403C119.259 34.0668 118.389 33.1965 117.315 33.1965C116.241 33.1965 115.371 34.0668 115.371 35.1403C115.371 36.2139 116.241 37.0842 117.315 37.0842Z" fill="#5183BB"/>
<path d="M131.182 37.0842C132.255 37.0842 133.126 36.2139 133.126 35.1403C133.126 34.0668 132.255 33.1965 131.182 33.1965C130.108 33.1965 129.238 34.0668 129.238 35.1403C129.238 36.2139 130.108 37.0842 131.182 37.0842Z" fill="#5183BB"/>
<path d="M144.918 37.0842C145.992 37.0842 146.862 36.2139 146.862 35.1403C146.862 34.0668 145.992 33.1965 144.918 33.1965C143.845 33.1965 142.974 34.0668 142.974 35.1403C142.974 36.2139 143.845 37.0842 144.918 37.0842Z" fill="#5183BB"/>
<path d="M158.784 37.0842C159.858 37.0842 160.728 36.2139 160.728 35.1403C160.728 34.0668 159.858 33.1965 158.784 33.1965C157.711 33.1965 156.84 34.0668 156.84 35.1403C156.84 36.2139 157.711 37.0842 158.784 37.0842Z" fill="#5183BB"/>
<path d="M172.521 37.0842C173.594 37.0842 174.465 36.2139 174.465 35.1403C174.465 34.0668 173.594 33.1965 172.521 33.1965C171.447 33.1965 170.577 34.0668 170.577 35.1403C170.577 36.2139 171.447 37.0842 172.521 37.0842Z" fill="#5183BB"/>
<path d="M186.387 37.0842C187.46 37.0842 188.33 36.2139 188.33 35.1403C188.33 34.0668 187.46 33.1965 186.387 33.1965C185.313 33.1965 184.443 34.0668 184.443 35.1403C184.443 36.2139 185.313 37.0842 186.387 37.0842Z" fill="#5183BB"/>
<path d="M173.817 48.0994H159.951C157.489 48.0994 155.545 50.0432 155.545 52.5055V66.3717C155.545 68.8339 157.489 70.7778 159.951 70.7778H173.817C176.279 70.7778 178.223 68.8339 178.223 66.3717V52.3759C178.223 50.0432 176.279 48.0994 173.817 48.0994Z" fill="white"/>
<path d="M142.457 48.0994H128.591C126.128 48.0994 124.185 50.0432 124.185 52.5055V66.3717C124.185 68.8339 126.128 70.7778 128.591 70.7778H142.457C144.919 70.7778 146.863 68.8339 146.863 66.3717V52.3759C146.863 50.0432 144.919 48.0994 142.457 48.0994Z" fill="#5183BB"/>
<path d="M203.466 48.0918H190.061C187.68 48.0918 185.801 50.0205 185.801 52.4636V66.2218C185.801 68.6649 187.68 70.5936 190.061 70.5936H203.466C205.846 70.5936 207.726 68.6649 207.726 66.2218V52.335C207.726 50.0205 205.846 48.0918 203.466 48.0918Z" fill="white"/>
<path d="M111.612 48.0994H97.7462C95.284 48.0994 93.3401 50.0432 93.3401 52.5055V66.3717C93.3401 68.8339 95.284 70.7778 97.7462 70.7778H111.612C114.075 70.7778 116.019 68.8339 116.019 66.3717V52.3759C115.889 50.0432 113.945 48.0994 111.612 48.0994Z" fill="#F7FBFD"/>
<g filter="url(#filter1_d_978_20340)">
<path fill-rule="evenodd" clip-rule="evenodd" d="M95.972 77.5471C99.7267 71.763 101.907 64.8627 101.907 57.4531C101.907 37.044 85.3627 20.4993 64.9537 20.4993C44.5447 20.4993 27.9999 37.044 27.9999 57.4531C27.9999 77.8621 44.5447 94.4068 64.9537 94.4068C71.8772 94.4068 78.3561 92.5028 83.8951 89.1898L97.9105 92.5344L95.972 77.5471Z" fill="white"/>
</g>
<path d="M59.4729 65.3429V74.1312C59.4729 75.7497 60.7961 77.062 62.4294 77.062H75.8282L81.9267 82.0076V77.062H84.6064C86.2393 77.062 87.5633 75.7497 87.5633 74.1312V56.3636C87.5633 54.7451 86.2393 53.4329 84.6064 53.4329H70.75L59.4729 65.3429Z" fill="url(#paint0_linear_978_20340)"/>
<g filter="url(#filter2_d_978_20340)">
<path d="M56.3238 36.4807C48.4334 36.4807 42.0366 42.8775 42.0366 50.7679C42.0366 53.9076 43.0501 56.81 44.7666 59.1677L43.0054 63.0372L47.3641 61.8977V61.8959C49.8147 63.8717 52.931 65.0554 56.3238 65.0554C64.2146 65.0554 70.6113 58.6587 70.6113 50.7679C70.6113 42.8775 64.2146 36.4807 56.3238 36.4807Z" fill="url(#paint1_linear_978_20340)"/>
</g>
<path fill-rule="evenodd" clip-rule="evenodd" d="M73.5413 60.1607L74.5218 60.1597L78.4074 70.4556L76.2847 71.2567L75.3622 68.8124H73.5421V68.813H71.728L70.7962 71.2593L68.676 70.4518L72.5949 60.1623L73.541 60.1613L73.5413 60.1607ZM73.5421 64.0469V64.0497L72.5921 66.5442H73.3223L73.3226 66.5436H74.506L73.5531 64.0182L73.5421 64.0469Z" fill="white"/>
<path fill-rule="evenodd" clip-rule="evenodd" d="M56.2648 49.1769H54.5977C54.7572 50.4398 55.3247 51.5432 56.2648 52.4078L56.2648 52.4078C57.205 51.5432 57.7725 50.4398 57.932 49.1769H56.2648L56.2648 49.1768V49.1769ZM56.2648 44.621V44.6208H55.1409V46.929H50.3189V49.1769H52.3364C52.4916 50.862 53.17 52.3972 54.2979 53.6192C53.3239 54.0059 52.2063 54.2118 51.0103 54.2118H50.1769V56.4596H51.0103C52.9631 56.4596 54.7768 56.0072 56.2648 55.1661V55.166L56.2648 55.1661C57.7529 56.0072 59.5666 56.4596 61.5193 56.4596V54.2117C60.3233 54.2117 59.2058 54.0059 58.2317 53.6192C59.3596 52.3972 60.0381 50.862 60.1933 49.1768H62.2107V46.9291H57.3888V44.6209H56.2648L56.2648 44.621Z" fill="white"/>
<g filter="url(#filter3_d_978_20340)">
<path d="M237.404 107.435C248.855 107.435 258.138 98.152 258.138 86.7006C258.138 75.2493 248.855 65.9661 237.404 65.9661C225.952 65.9661 216.669 75.2493 216.669 86.7006C216.669 98.152 225.952 107.435 237.404 107.435Z" fill="url(#paint2_linear_978_20340)"/>
</g>
<path d="M235.831 94.9094C234.679 94.8118 233.741 94.6329 233.015 94.3727C232.305 94.0963 231.776 93.8686 231.429 93.6897L232.447 90.8844C232.999 91.1609 233.654 91.4129 234.411 91.6406C235.184 91.8683 235.996 91.9821 236.848 91.9821C237.81 91.9821 238.465 91.852 238.812 91.5918C239.175 91.3154 239.356 90.9332 239.356 90.4453C239.356 90.1363 239.285 89.8761 239.143 89.6647C239.002 89.437 238.796 89.2337 238.528 89.0548C238.26 88.876 237.921 88.7052 237.511 88.5426C237.101 88.3637 236.627 88.1767 236.091 87.9815C235.57 87.7864 235.058 87.575 234.553 87.3473C234.064 87.1033 233.614 86.8106 233.204 86.4691C232.81 86.1276 232.486 85.7129 232.234 85.225C231.997 84.7209 231.879 84.1191 231.879 83.4198C231.879 82.8832 231.95 82.3709 232.092 81.883C232.25 81.3789 232.486 80.9235 232.802 80.517C233.117 80.1104 233.528 79.7689 234.032 79.4924C234.537 79.1997 235.137 78.9883 235.831 78.8582V76.2236H238.812V78.7606C239.633 78.8419 240.335 78.9639 240.918 79.1265C241.518 79.2891 241.991 79.4518 242.338 79.6144L241.604 82.5417C241.084 82.314 240.476 82.1188 239.782 81.9562C239.104 81.7936 238.386 81.7123 237.629 81.7123C236.872 81.7123 236.328 81.8424 235.996 82.1026C235.665 82.3628 235.499 82.7043 235.499 83.1271C235.499 83.3873 235.547 83.615 235.641 83.8102C235.752 83.989 235.917 84.1517 236.138 84.298C236.359 84.4444 236.627 84.5908 236.943 84.7371C237.274 84.8672 237.669 85.0136 238.126 85.1762C238.82 85.4364 239.459 85.721 240.043 86.03C240.642 86.339 241.155 86.6968 241.581 87.1033C242.022 87.4936 242.362 87.9571 242.598 88.4938C242.851 89.0305 242.977 89.6566 242.977 90.3721C242.977 90.86 242.906 91.3479 242.764 91.8358C242.622 92.3074 242.385 92.7465 242.054 93.153C241.723 93.5596 241.289 93.9092 240.753 94.202C240.232 94.4947 239.585 94.7061 238.812 94.8362V97.8123H235.831V94.9094Z" fill="white"/>
<g filter="url(#filter4_d_978_20340)">
<g filter="url(#filter5_d_978_20340)">
<rect width="28.431" height="28.4311" rx="14.2155" transform="matrix(-1 0 0 1 225.195 120.892)" fill="url(#paint3_linear_978_20340)"/>
</g>
</g>
<rect x="204.797" y="128.534" width="12.0495" height="3.01237" rx="1.50618" fill="white"/>
<rect x="204.797" y="133.555" width="12.0495" height="3.01237" rx="1.50618" fill="white"/>
<rect x="204.797" y="138.575" width="7.53092" height="3.01237" rx="1.50618" fill="white"/>
<defs>
<filter id="filter0_d_978_20340" x="92.64" y="26.4749" width="122.24" height="20.1165" filterUnits="userSpaceOnUse" color-interpolation-filters="sRGB">
<feFlood flood-opacity="0" result="BackgroundImageFix"/>
<feColorMatrix in="SourceAlpha" type="matrix" values="0 0 0 0 0 0 0 0 0 0 0 0 0 0 0 0 0 0 127 0" result="hardAlpha"/>
<feOffset dx="2" dy="2"/>
<feGaussianBlur stdDeviation="2"/>
<feColorMatrix type="matrix" values="0 0 0 0 0.0846528 0 0 0 0 0.150363 0 0 0 0 0.383333 0 0 0 0.25 0"/>
<feBlend mode="normal" in2="BackgroundImageFix" result="effect1_dropShadow_978_20340"/>
<feBlend mode="normal" in="SourceGraphic" in2="effect1_dropShadow_978_20340" result="shape"/>
</filter>
<filter id="filter1_d_978_20340" x="-0.00012207" y="0.499268" width="133.908" height="133.907" filterUnits="userSpaceOnUse" color-interpolation-filters="sRGB">
<feFlood flood-opacity="0" result="BackgroundImageFix"/>
<feColorMatrix in="SourceAlpha" type="matrix" values="0 0 0 0 0 0 0 0 0 0 0 0 0 0 0 0 0 0 127 0" result="hardAlpha"/>
<feOffset dx="2" dy="10"/>
<feGaussianBlur stdDeviation="15"/>
<feColorMatrix type="matrix" values="0 0 0 0 0.330347 0 0 0 0 0.407862 0 0 0 0 0.558333 0 0 0 0.25 0"/>
<feBlend mode="normal" in2="BackgroundImageFix" result="effect1_dropShadow_978_20340"/>
<feBlend mode="normal" in="SourceGraphic" in2="effect1_dropShadow_978_20340" result="shape"/>
</filter>
<filter id="filter2_d_978_20340" x="40.0366" y="34.4807" width="36.5747" height="36.5747" filterUnits="userSpaceOnUse" color-interpolation-filters="sRGB">
<feFlood flood-opacity="0" result="BackgroundImageFix"/>
<feColorMatrix in="SourceAlpha" type="matrix" values="0 0 0 0 0 0 0 0 0 0 0 0 0 0 0 0 0 0 127 0" result="hardAlpha"/>
<feOffset dx="2" dy="2"/>
<feGaussianBlur stdDeviation="2"/>
<feColorMatrix type="matrix" values="0 0 0 0 0.0846528 0 0 0 0 0.150363 0 0 0 0 0.383333 0 0 0 0.25 0"/>
<feBlend mode="normal" in2="BackgroundImageFix" result="effect1_dropShadow_978_20340"/>
<feBlend mode="normal" in="SourceGraphic" in2="effect1_dropShadow_978_20340" result="shape"/>
</filter>
<filter id="filter3_d_978_20340" x="214.669" y="63.9661" width="49.4692" height="49.4692" filterUnits="userSpaceOnUse" color-interpolation-filters="sRGB">
<feFlood flood-opacity="0" result="BackgroundImageFix"/>
<feColorMatrix in="SourceAlpha" type="matrix" values="0 0 0 0 0 0 0 0 0 0 0 0 0 0 0 0 0 0 127 0" result="hardAlpha"/>
<feOffset dx="2" dy="2"/>
<feGaussianBlur stdDeviation="2"/>
<feColorMatrix type="matrix" values="0 0 0 0 0.0846528 0 0 0 0 0.150363 0 0 0 0 0.383333 0 0 0 0.25 0"/>
<feBlend mode="normal" in2="BackgroundImageFix" result="effect1_dropShadow_978_20340"/>
<feBlend mode="normal" in="SourceGraphic" in2="effect1_dropShadow_978_20340" result="shape"/>
</filter>
<filter id="filter4_d_978_20340" x="163.764" y="93.8921" width="98.4309" height="98.4312" filterUnits="userSpaceOnUse" color-interpolation-filters="sRGB">
<feFlood flood-opacity="0" result="BackgroundImageFix"/>
<feColorMatrix in="SourceAlpha" type="matrix" values="0 0 0 0 0 0 0 0 0 0 0 0 0 0 0 0 0 0 127 0" result="hardAlpha"/>
<feOffset dx="2" dy="8"/>
<feGaussianBlur stdDeviation="17.5"/>
<feColorMatrix type="matrix" values="0 0 0 0 0 0 0 0 0 0.351917 0 0 0 0 0.429167 0 0 0 0.15 0"/>
<feBlend mode="normal" in2="BackgroundImageFix" result="effect1_dropShadow_978_20340"/>
<feBlend mode="normal" in="SourceGraphic" in2="effect1_dropShadow_978_20340" result="shape"/>
</filter>
<filter id="filter5_d_978_20340" x="194.764" y="118.892" width="36.4309" height="36.4312" filterUnits="userSpaceOnUse" color-interpolation-filters="sRGB">
<feFlood flood-opacity="0" result="BackgroundImageFix"/>
<feColorMatrix in="SourceAlpha" type="matrix" values="0 0 0 0 0 0 0 0 0 0 0 0 0 0 0 0 0 0 127 0" result="hardAlpha"/>
<feOffset dx="2" dy="2"/>
<feGaussianBlur stdDeviation="2"/>
<feColorMatrix type="matrix" values="0 0 0 0 0.0846528 0 0 0 0 0.150363 0 0 0 0 0.383333 0 0 0 0.25 0"/>
<feBlend mode="normal" in2="BackgroundImageFix" result="effect1_dropShadow_978_20340"/>
<feBlend mode="normal" in="SourceGraphic" in2="effect1_dropShadow_978_20340" result="shape"/>
</filter>
<linearGradient id="paint0_linear_978_20340" x1="73.5181" y1="53.4329" x2="73.5181" y2="82.0076" gradientUnits="userSpaceOnUse">
<stop stop-color="#B0E7C6"/>
<stop offset="1" stop-color="#5DD1B3"/>
</linearGradient>
<linearGradient id="paint1_linear_978_20340" x1="56.324" y1="36.4807" x2="56.324" y2="65.0554" gradientUnits="userSpaceOnUse">
<stop stop-color="#85BEFF"/>
<stop offset="1" stop-color="#5183BB"/>
</linearGradient>
<linearGradient id="paint2_linear_978_20340" x1="237.404" y1="65.9661" x2="237.404" y2="107.435" gradientUnits="userSpaceOnUse">
<stop stop-color="#B0E7C6"/>
<stop offset="1" stop-color="#5DD1B3"/>
</linearGradient>
<linearGradient id="paint3_linear_978_20340" x1="14.2155" y1="6.94671" x2="14.2155" y2="28.4311" gradientUnits="userSpaceOnUse">
<stop stop-color="#FFED49"/>
<stop offset="1" stop-color="#FFC369"/>
</linearGradient>
</defs>
</svg>
