<svg width="157" height="158" viewBox="0 0 157 158" fill="none" xmlns="http://www.w3.org/2000/svg">
<g filter="url(#filter0_d)">
<rect x="30" y="21.5154" width="97" height="97" rx="25" fill="white"/>
</g>
<circle cx="117.5" cy="30.0154" r="12.5" fill="white"/>
<path fill-rule="evenodd" clip-rule="evenodd" d="M104 30.3931C104 22.7286 110.227 16.5154 117.909 16.5154C125.588 16.5236 131.81 22.7321 131.819 30.3931C131.819 38.0575 125.591 44.2707 117.909 44.2707C110.227 44.2707 104 38.0575 104 30.3931ZM115.631 36.0502L125.566 26.1375C125.938 25.7534 125.938 25.1444 125.566 24.7602C125.185 24.3665 124.556 24.3556 124.162 24.7359L114.929 33.9477L111.657 30.6835C111.649 30.6752 111.641 30.6671 111.633 30.6591C111.238 30.2788 110.609 30.2897 110.228 30.6835C109.847 31.0773 109.857 31.7048 110.252 32.0851L114.226 36.0502C114.614 36.4372 115.243 36.4372 115.631 36.0502Z" fill="url(#paint0_linear)"/>
<path d="M61.7993 82.1393C61.6115 83.1587 61.2316 83.6459 61.0921 83.9807L61.0932 83.9839C61.0932 84.3059 61.4763 85.2716 61.6297 85.3789H58.947C58.9306 85.1567 58.8575 84.9424 58.7346 84.7566L58.7303 84.7448C58.2624 84.9089 57.7409 84.9916 57.551 84.9293C57.2226 84.822 57.3321 84.6074 57.3321 84.3928C57.3321 84.1782 57.2226 84.2855 57.1132 84.1782C57.0037 84.0709 57.2226 83.9636 57.2226 83.9636C57.0037 83.9636 57.0037 83.9636 57.0037 83.6416C57.0041 83.5838 56.9811 83.5283 56.9398 83.4879C56.8985 83.4474 56.8426 83.4254 56.7848 83.427C56.2386 83.3197 56.9908 82.8572 57.0037 82.3539C57.0065 82.2454 56.996 82.1369 56.9726 82.0309C56.9565 81.9505 56.935 81.8764 56.9168 81.8002C56.8955 81.7183 56.8815 81.6346 56.8749 81.5502C56.8671 81.3719 56.887 81.1934 56.9339 81.0212C57.1582 80.1144 57.86 79.4834 58.7582 79.2431C59.4282 79.0649 60.1412 79.1541 60.7466 79.492C61.6265 80.0189 61.9785 81.1682 61.7993 82.1393Z" fill="url(#paint1_linear)"/>
<path d="M60.4868 82.2001L60.2038 82.4593C60.1806 82.4802 60.169 82.5138 60.1734 82.5472C60.1778 82.5806 60.1974 82.6088 60.2249 82.621C60.2524 82.6333 60.2835 82.6278 60.3064 82.6065L60.5895 82.3474C60.6126 82.3265 60.6242 82.2929 60.6199 82.2595C60.6155 82.2261 60.5958 82.1979 60.5683 82.1856C60.5409 82.1734 60.5097 82.1789 60.4868 82.2001Z" fill="#9DB7D8"/>
<path d="M61.0588 81.0465L60.8592 80.6306C60.8358 80.5819 60.779 80.5622 60.7324 80.5866C60.7171 80.5951 60.7044 80.6081 60.6958 80.6238C60.6741 80.5886 60.632 80.5736 60.5942 80.5876C60.5944 80.5843 60.5944 80.5809 60.5942 80.5775C60.5894 80.5518 60.5749 80.5291 60.554 80.5146C60.5331 80.5 60.5075 80.4948 60.483 80.5L60.0102 80.5988C59.9626 80.6088 59.9299 80.6548 59.9347 80.7053C59.9394 80.7559 59.9801 80.7944 60.0287 80.7944C60.0349 80.7944 60.0412 80.7938 60.0473 80.7925L60.5133 80.6951L60.3293 81.1759L59.8987 80.8161C59.8774 80.7983 59.8498 80.7909 59.8229 80.796C59.7961 80.801 59.7726 80.8179 59.7586 80.8424L59.4749 81.3363C59.4719 81.3427 59.4696 81.3494 59.4681 81.3563L59.2461 80.8362C59.2359 80.8122 59.217 80.7935 59.1936 80.7842C59.1702 80.7748 59.1441 80.7755 59.1213 80.7862C59.1152 80.7897 59.1096 80.7939 59.1045 80.7987C59.0759 80.7909 59.0455 80.7979 59.0226 80.8173L58.4553 81.3112C58.4387 81.3261 58.4277 81.3466 58.4242 81.3691L58.2253 80.8561C58.2057 80.8055 58.1506 80.7812 58.1022 80.8016C58.0538 80.8221 58.0304 80.8797 58.05 80.9303L58.2496 81.4449C58.2589 81.4692 58.2772 81.4887 58.3003 81.4989C58.3234 81.5091 58.3494 81.5093 58.3727 81.4994C58.4031 81.4861 58.4245 81.457 58.429 81.4229C58.4323 81.4328 58.4371 81.442 58.4432 81.4503C58.4767 81.4922 58.5363 81.4979 58.5765 81.463L59.1088 80.9995L59.2985 81.4441C59.3087 81.4681 59.3276 81.4868 59.351 81.4962C59.3744 81.5056 59.4005 81.5048 59.4234 81.4941C59.4479 81.4824 59.4665 81.4603 59.4742 81.4333C59.4816 81.449 59.4931 81.4624 59.5073 81.4718C59.5521 81.4999 59.6102 81.4847 59.637 81.4379L59.865 81.0409L60.2533 81.3654C60.2753 81.3835 60.3039 81.3902 60.3312 81.3838C60.3362 81.3881 60.3416 81.3918 60.3473 81.3948C60.3706 81.4046 60.3966 81.4043 60.4197 81.3939C60.4428 81.3836 60.4609 81.3641 60.4702 81.3398L60.7 80.7395L60.8898 81.135C60.9049 81.1667 60.935 81.1875 60.9688 81.1896C61.0026 81.1917 61.0349 81.1748 61.0534 81.1452C61.072 81.1157 61.0741 81.078 61.0588 81.0465Z" fill="#9DB7D8"/>
<path d="M59.6654 81.6607C59.6381 81.6177 59.5822 81.6057 59.5406 81.634C59.499 81.6622 59.4875 81.72 59.5148 81.763L59.895 82.3611C59.9223 82.4041 59.9781 82.4161 60.0197 82.3878C60.0613 82.3596 60.0729 82.3018 60.0455 82.2588L59.6654 81.6607Z" fill="#9DB7D8"/>
<path d="M60.7378 81.2895L60.4918 81.4091C60.4517 81.4286 60.4322 81.4839 60.4482 81.5326C60.4495 81.5356 60.4509 81.5385 60.4525 81.5414C60.4441 81.544 60.4362 81.5484 60.429 81.5543C60.4122 81.569 60.4009 81.5912 60.3976 81.6161C60.3943 81.641 60.3993 81.6664 60.4114 81.6868L60.6137 82.0278C60.63 82.0553 60.6571 82.0701 60.6849 82.0667C60.7126 82.0633 60.7368 82.0421 60.7482 82.0111C60.7596 81.9802 60.7566 81.9442 60.7403 81.9167L60.5446 81.5868C60.5463 81.5861 60.548 81.5864 60.5497 81.5856L60.7958 81.4659C60.8358 81.4464 60.8553 81.3912 60.8393 81.3425C60.8233 81.2938 60.7779 81.2701 60.7378 81.2895Z" fill="#9DB7D8"/>
<path d="M59.5704 79.9729L59.9446 80.0477C59.9946 80.0574 60.0451 80.033 60.0575 79.9931C60.07 79.9532 60.0398 79.9128 59.99 79.9026L59.6157 79.8278C59.5657 79.8181 59.5153 79.8425 59.5028 79.8824C59.4903 79.9223 59.5205 79.9627 59.5704 79.9729Z" fill="#9DB7D8"/>
<path d="M58.6994 80.0498C58.7058 80.0498 58.7121 80.0493 58.7184 80.0484L59.1985 79.9737C59.2322 79.9685 59.2598 79.9497 59.2708 79.9244C59.2819 79.8991 59.2747 79.8711 59.252 79.851C59.2292 79.8309 59.1945 79.8219 59.1608 79.8272L58.6807 79.9019C58.6323 79.9094 58.5991 79.9443 58.604 79.9825C58.6088 80.0206 58.6501 80.0498 58.6994 80.0498Z" fill="#9DB7D8"/>
<path d="M58.1394 80.6101C58.1697 80.6102 58.1983 80.5982 58.2165 80.5778L58.4719 80.2918C58.4927 80.2686 58.4972 80.2379 58.4837 80.2112C58.4702 80.1845 58.4407 80.1659 58.4065 80.1624C58.3722 80.159 58.3384 80.1712 58.3178 80.1945L58.0624 80.4804C58.0405 80.505 58.0369 80.5378 58.0532 80.5653C58.0695 80.5928 58.1029 80.6101 58.1394 80.6101Z" fill="#9DB7D8"/>
<path d="M59.3008 81.5068H58.6907C58.6425 81.5068 58.6035 81.557 58.6035 81.6189C58.6035 81.6808 58.6425 81.731 58.6907 81.731H59.3008C59.349 81.731 59.388 81.6808 59.388 81.6189C59.388 81.557 59.349 81.5068 59.3008 81.5068Z" fill="#9DB7D8"/>
<path d="M60.472 80.4748C60.497 80.4978 60.5311 80.5043 60.5615 80.4918C60.5919 80.4793 60.614 80.4497 60.6195 80.4141C60.6249 80.3786 60.6129 80.3425 60.588 80.3194L60.3212 80.0731C60.2963 80.05 60.2622 80.0436 60.2317 80.0561C60.2013 80.0686 60.1792 80.0982 60.1738 80.1338C60.1683 80.1693 60.1803 80.2054 60.2053 80.2284L60.472 80.4748Z" fill="#9DB7D8"/>
<path d="M58.3654 80.6104C58.3112 80.6104 58.2673 80.6605 58.2673 80.7224C58.2673 80.7843 58.3112 80.8345 58.3654 80.8345H58.9538C59.0079 80.8345 59.0518 80.7843 59.0518 80.7224C59.0518 80.6605 59.0079 80.6104 58.9538 80.6104H58.3654Z" fill="#9DB7D8"/>
<path d="M59.2572 80.6104C59.2056 80.6104 59.1638 80.6605 59.1638 80.7224C59.1638 80.7843 59.2056 80.8345 59.2572 80.8345H59.6308C59.6823 80.8345 59.7242 80.7843 59.7242 80.7224C59.7242 80.6605 59.6824 80.6104 59.6308 80.6104H59.2572Z" fill="#9DB7D8"/>
<path d="M59.727 81.7286L60.2075 81.6165C60.2594 81.6042 60.293 81.5452 60.2826 81.4846C60.2722 81.4241 60.2217 81.3847 60.1698 81.3967L59.6893 81.5088C59.6409 81.5201 59.6077 81.5723 59.6125 81.6297C59.6174 81.687 59.6587 81.7307 59.708 81.7307C59.7144 81.7308 59.7207 81.73 59.727 81.7286Z" fill="#9DB7D8"/>
<path d="M58.5359 80.2834L59.0245 80.5944L59.0261 80.5951L59.027 80.5959C59.0319 80.5985 59.037 80.6006 59.0422 80.6023C59.0451 80.6034 59.0478 80.6051 59.0507 80.6059C59.0591 80.6083 59.0679 80.6095 59.0767 80.6095C59.0848 80.6095 59.0928 80.6085 59.1006 80.6065C59.1032 80.6059 59.1056 80.6045 59.1082 80.6037C59.1133 80.6021 59.1183 80.6001 59.1231 80.5978C59.1259 80.596 59.1286 80.5941 59.1313 80.592C59.1353 80.5895 59.1392 80.5867 59.1429 80.5836C59.1453 80.5809 59.1477 80.5782 59.1498 80.5753C59.1529 80.5722 59.1557 80.5689 59.1582 80.5654L59.1587 80.5643L59.1598 80.563L59.3863 80.1885L59.7826 80.5814C59.8069 80.606 59.8427 80.6158 59.8763 80.607C59.91 80.5981 59.9362 80.5721 59.9451 80.5387C59.954 80.5054 59.9442 80.4699 59.9194 80.4457L59.4355 79.9659C59.4145 79.945 59.3849 79.9349 59.3553 79.9385C59.3257 79.9421 59.2994 79.959 59.2841 79.9843L59.0451 80.3794L58.6404 80.1218C58.5954 80.0933 58.5356 80.1063 58.5068 80.1509C58.478 80.1954 58.491 80.2547 58.5359 80.2834Z" fill="#9DB7D8"/>
<path d="M59.3844 80.0476C59.5082 80.0476 59.6086 79.9473 59.6086 79.8235C59.6086 79.6997 59.5082 79.5994 59.3844 79.5994C59.2606 79.5994 59.1603 79.6997 59.1603 79.8235C59.1603 79.9473 59.2606 80.0476 59.3844 80.0476Z" fill="#5183BB"/>
<path d="M59.0914 80.9268C59.2152 80.9268 59.3156 80.8264 59.3156 80.7027C59.3156 80.5789 59.2152 80.4785 59.0914 80.4785C58.9677 80.4785 58.8673 80.5789 58.8673 80.7027C58.8673 80.8264 58.9677 80.9268 59.0914 80.9268Z" fill="#5183BB"/>
<path d="M59.8729 80.9268C59.9967 80.9268 60.0971 80.8264 60.0971 80.7027C60.0971 80.5789 59.9967 80.4785 59.8729 80.4785C59.7492 80.4785 59.6488 80.5789 59.6488 80.7027C59.6488 80.8264 59.7492 80.9268 59.8729 80.9268Z" fill="#5183BB"/>
<path d="M60.3613 81.7085C60.4851 81.7085 60.5855 81.6082 60.5855 81.4844C60.5855 81.3606 60.4851 81.2603 60.3613 81.2603C60.2376 81.2603 60.1372 81.3606 60.1372 81.4844C60.1372 81.6082 60.2376 81.7085 60.3613 81.7085Z" fill="#5183BB"/>
<path d="M58.5054 80.2432C58.6292 80.2432 58.7295 80.1428 58.7295 80.0191C58.7295 79.8953 58.6292 79.7949 58.5054 79.7949C58.3816 79.7949 58.2812 79.8953 58.2812 80.0191C58.2812 80.1428 58.3816 80.2432 58.5054 80.2432Z" fill="#5183BB"/>
<path d="M58.1145 80.9268C58.2383 80.9268 58.3387 80.8264 58.3387 80.7027C58.3387 80.5789 58.2383 80.4785 58.1145 80.4785C57.9907 80.4785 57.8904 80.5789 57.8904 80.7027C57.8904 80.8264 57.9907 80.9268 58.1145 80.9268Z" fill="#5183BB"/>
<path d="M58.4076 81.8062C58.5314 81.8062 58.6317 81.7058 58.6317 81.582C58.6317 81.4583 58.5314 81.3579 58.4076 81.3579C58.2838 81.3579 58.1835 81.4583 58.1835 81.582C58.1835 81.7058 58.2838 81.8062 58.4076 81.8062Z" fill="#5183BB"/>
<path d="M59.4822 81.8062C59.606 81.8062 59.7063 81.7058 59.7063 81.582C59.7063 81.4583 59.606 81.3579 59.4822 81.3579C59.3584 81.3579 59.2581 81.4583 59.2581 81.582C59.2581 81.7058 59.3584 81.8062 59.4822 81.8062Z" fill="#5183BB"/>
<path d="M61.0452 81.513C61.169 81.513 61.2693 81.4126 61.2693 81.2888C61.2693 81.165 61.169 81.0647 61.0452 81.0647C60.9214 81.0647 60.821 81.165 60.821 81.2888C60.821 81.4126 60.9214 81.513 61.0452 81.513Z" fill="#5183BB"/>
<path d="M60.7521 80.7315C60.8759 80.7315 60.9762 80.6311 60.9762 80.5073C60.9762 80.3836 60.8759 80.2832 60.7521 80.2832C60.6283 80.2832 60.528 80.3836 60.528 80.5073C60.528 80.6311 60.6283 80.7315 60.7521 80.7315Z" fill="#5183BB"/>
<path d="M60.166 80.2432C60.2898 80.2432 60.3902 80.1428 60.3902 80.0191C60.3902 79.8953 60.2898 79.7949 60.166 79.7949C60.0422 79.7949 59.9419 79.8953 59.9419 80.0191C59.9419 80.1428 60.0422 80.2432 60.166 80.2432Z" fill="#5183BB"/>
<path d="M60.0683 82.7827C60.192 82.7827 60.2924 82.6824 60.2924 82.5586C60.2924 82.4348 60.192 82.3345 60.0683 82.3345C59.9445 82.3345 59.8441 82.4348 59.8441 82.5586C59.8441 82.6824 59.9445 82.7827 60.0683 82.7827Z" fill="#5183BB"/>
<path d="M60.7521 82.3921C60.8759 82.3921 60.9762 82.2918 60.9762 82.168C60.9762 82.0442 60.8759 81.9438 60.7521 81.9438C60.6283 81.9438 60.528 82.0442 60.528 82.168C60.528 82.2918 60.6283 82.3921 60.7521 82.3921Z" fill="#5183BB"/>
<path d="M62.5564 54.8306L75.1135 50.2619L75.7267 51.9474L63.1696 56.5161L62.5564 54.8306Z" fill="#C3CCDD"/>
<path d="M81.0504 53.1174L82.3181 51.8497L96.6605 66.1921L95.3928 67.4598L81.0504 53.1174Z" fill="#C3CCDD"/>
<path d="M83.359 68.3008L83.6027 66.5247L94.3649 68.0017L94.1212 69.7777L83.359 68.3008Z" fill="#C3CCDD"/>
<path d="M61.5559 59.1167L62.3574 57.5137L76.6958 64.6828L75.8943 66.2859L61.5559 59.1167Z" fill="#C3CCDD"/>
<path d="M62.157 82.7354L62.9607 81.1315L75.7994 87.5652L74.9957 89.169L62.157 82.7354Z" fill="#C3CCDD"/>
<path d="M78.1034 70.4119H79.8965V85.6532H78.1034V70.4119Z" fill="#C3CCDD"/>
<path d="M60.8297 76.1934L75.9364 52.8945L77.4408 53.8699L62.3341 77.1688L60.8297 76.1934Z" fill="#C3CCDD"/>
<path d="M81.3616 86.3525L95.5064 71.5527L96.8028 72.7917L82.658 87.5916L81.3616 86.3525Z" fill="#C3CCDD"/>
<path d="M60.7966 61.2517L62.3387 60.3354L77.1169 85.2067L75.5748 86.123L60.7966 61.2517Z" fill="#C3CCDD"/>
<path fill-rule="evenodd" clip-rule="evenodd" d="M79 43.5154C82.5681 43.5154 85.4539 46.3187 85.4539 49.7849C85.4539 51.5224 84.7348 53.0809 83.5639 54.2183C82.393 55.3558 80.7887 56.0544 79 56.0544C77.7 56.0544 76.5015 55.6872 75.4965 55.0513C74.3256 54.3168 73.4128 53.2242 72.9334 51.9255C72.6844 51.2627 72.5461 50.5372 72.5461 49.7849C72.5461 46.3187 75.432 43.5154 79 43.5154ZM79 73.019C82.2731 73.019 84.9745 70.6545 85.3894 67.5914C85.4355 67.3137 85.4539 67.0361 85.4539 66.7495C85.4539 63.2833 82.5681 60.48 79 60.48C76.4738 60.48 74.2795 61.8861 73.2284 63.9461C72.7859 64.788 72.5461 65.7374 72.5461 66.7495C72.5461 70.2156 75.432 73.019 79 73.019ZM98.7304 63.0615C102.197 63.0615 105 65.9473 105 69.5154C105 73.0835 102.197 75.9693 98.7304 75.9693C97.0466 75.9693 95.524 75.2963 94.4045 74.1715C93.2043 73.0098 92.4609 71.3502 92.4609 69.5154C92.4609 69.2204 92.4789 68.9346 92.5236 68.6488C92.7028 67.2105 93.3476 65.9289 94.297 64.9516C95.4345 63.7807 96.9929 63.0615 98.7304 63.0615ZM64.8762 83.1981C65.3061 82.3562 65.539 81.4068 65.539 80.3947C65.539 78.1825 64.4015 76.2479 62.6729 75.1284C61.6967 74.4925 60.5324 74.1252 59.2695 74.1252C55.8034 74.1252 53 76.9286 53 80.3947C53 83.8609 55.8034 86.6642 59.2695 86.6642C61.7236 86.6642 63.8552 85.2581 64.8762 83.1981ZM85.4539 89.2458C85.4539 87.6874 84.8731 86.2633 83.8958 85.1706C82.7249 83.8272 80.9639 82.9763 79 82.9763C77.6171 82.9763 76.3447 83.3883 75.3029 84.1048C74.1965 84.8572 73.3483 85.923 72.9057 87.1858C72.6752 87.8307 72.5461 88.5204 72.5461 89.2458C72.5461 92.712 75.432 95.5153 79 95.5153C82.5681 95.5153 85.4539 92.712 85.4539 89.2458ZM65.539 56.792C65.539 56.0396 65.4047 55.3142 65.1628 54.6514C64.2851 52.2421 61.9833 50.5225 59.2695 50.5225C55.8034 50.5225 53 53.3258 53 56.792C53 60.2581 55.8034 63.0615 59.2695 63.0615C60.4428 63.0615 61.5444 62.739 62.4759 62.1748C63.5059 61.5657 64.3388 60.6701 64.8762 59.5953C65.3061 58.7534 65.539 57.804 65.539 56.792Z" fill="url(#paint2_linear)"/>
<defs>
<filter id="filter0_d" x="0" y="0.515381" width="157" height="157" filterUnits="userSpaceOnUse" color-interpolation-filters="sRGB">
<feFlood flood-opacity="0" result="BackgroundImageFix"/>
<feColorMatrix in="SourceAlpha" type="matrix" values="0 0 0 0 0 0 0 0 0 0 0 0 0 0 0 0 0 0 127 0" result="hardAlpha"/>
<feOffset dy="9"/>
<feGaussianBlur stdDeviation="15"/>
<feColorMatrix type="matrix" values="0 0 0 0 0.593438 0 0 0 0 0.707729 0 0 0 0 0.879167 0 0 0 0.25 0"/>
<feBlend mode="normal" in2="BackgroundImageFix" result="effect1_dropShadow"/>
<feBlend mode="normal" in="SourceGraphic" in2="effect1_dropShadow" result="shape"/>
</filter>
<linearGradient id="paint0_linear" x1="117.909" y1="16.5154" x2="117.909" y2="44.2707" gradientUnits="userSpaceOnUse">
<stop stop-color="#B0E7C6"/>
<stop offset="1" stop-color="#5DD1B3"/>
</linearGradient>
<linearGradient id="paint1_linear" x1="59.2154" y1="81.547" x2="59.2154" y2="85.3789" gradientUnits="userSpaceOnUse">
<stop stop-color="#E5ECF5"/>
<stop offset="1" stop-color="#CEDCEF"/>
</linearGradient>
<linearGradient id="paint2_linear" x1="79" y1="43.5154" x2="79" y2="95.5153" gradientUnits="userSpaceOnUse">
<stop stop-color="#85BEFF"/>
<stop offset="1" stop-color="#5183BB"/>
</linearGradient>
</defs>
</svg>
