<svg width="567" height="452" viewBox="0 0 567 452" fill="none" xmlns="http://www.w3.org/2000/svg">
<path d="M0.933594 95.764L590 95.764V65.8157C590 54.77 581.046 45.8157 570 45.8157L20.9336 45.8157C9.88794 45.8157 0.933594 54.77 0.933594 65.8157V95.764Z" fill="white"/>
<path d="M0.93396 452L569.596 452V95.8163L0.93396 95.8163V452Z" fill="#F4F8FB"/>
<path d="M99.0247 79.2713H31.5087C27.7665 79.2713 24.752 76.2567 24.752 72.5145V67.213C24.752 63.4708 27.7665 60.4562 31.5087 60.4562H99.0247C102.767 60.4562 105.781 63.4708 105.781 67.213V72.5145C105.833 76.2048 102.819 79.2713 99.0247 79.2713Z" fill="white"/>
<path d="M279.482 163.806H42.6309V174.045H279.482V163.806Z" fill="white"/>
<path d="M313.37 182.205H42.6309V192.444H313.37V182.205Z" fill="white"/>
<path d="M382.01 102.977L378.282 96.8571C377.98 96.3615 378.131 95.6934 378.627 95.3917C379.122 95.09 379.791 95.2409 380.092 95.7365L382.743 100.068L389.768 95.9089C390.263 95.6072 390.932 95.7796 391.233 96.2753C391.535 96.7709 391.363 97.4389 390.867 97.7406L382.01 102.977Z" fill="#7B91B3"/>
<path d="M384.531 112.416C377.118 112.416 371.105 106.382 371.105 98.9905C371.105 91.5775 377.139 85.5652 384.531 85.5652C391.922 85.5652 397.956 91.5991 397.956 98.9905C397.956 106.382 391.922 112.416 384.531 112.416ZM384.531 87.4831C378.195 87.4831 373.023 92.655 373.023 98.9905C373.023 105.326 378.195 110.498 384.531 110.498C390.866 110.498 396.038 105.326 396.038 98.9905C396.038 92.6334 390.866 87.4831 384.531 87.4831Z" fill="#7B91B3"/>
<path d="M306.462 80.4149L300.73 71.0409C300.256 70.2652 300.493 69.2739 301.269 68.7998C302.045 68.3257 303.036 68.5628 303.51 69.3385L307.561 75.9758L318.336 69.5971C319.112 69.1446 320.103 69.4032 320.577 70.179C321.03 70.9547 320.771 71.946 319.995 72.4201L306.462 80.4149Z" fill="#7B91B3"/>
<path d="M310.32 94.8746C298.963 94.8746 289.719 85.6299 289.719 74.2734C289.719 62.9168 298.963 53.6721 310.32 53.6721C321.676 53.6721 330.921 62.9168 330.921 74.2734C330.9 85.6299 321.676 94.8746 310.32 94.8746ZM310.32 56.6244C300.58 56.6244 292.671 64.5546 292.671 74.2734C292.671 84.0137 300.601 91.9223 310.32 91.9223C320.039 91.9223 327.969 83.9921 327.969 74.2734C327.969 64.5546 320.039 56.6244 310.32 56.6244Z" fill="#7B91B3"/>
<path d="M245.886 109.097L242.094 102.89C241.792 102.373 241.943 101.727 242.46 101.404C242.977 101.102 243.624 101.253 243.947 101.77L246.619 106.144L253.73 101.942C254.248 101.641 254.894 101.813 255.217 102.33C255.519 102.847 255.347 103.494 254.829 103.817L245.886 109.097Z" fill="#7B91B3"/>
<path d="M248.43 118.665C240.931 118.665 234.811 112.566 234.811 105.045C234.811 97.5462 240.909 91.4261 248.43 91.4261C255.929 91.4261 262.049 97.5246 262.049 105.045C262.049 112.545 255.929 118.665 248.43 118.665ZM248.43 93.3871C242.008 93.3871 236.772 98.6236 236.772 105.045C236.772 111.467 242.008 116.704 248.43 116.704C254.873 116.704 260.088 111.467 260.088 105.045C260.088 98.6236 254.851 93.3871 248.43 93.3871Z" fill="#7B91B3"/>
<path d="M192.725 73.1312L187.984 65.3735C187.596 64.727 187.79 63.9081 188.437 63.5202C189.083 63.1323 189.902 63.3263 190.29 63.9728L193.63 69.4678L202.53 64.1882C203.176 63.8004 203.995 64.0159 204.383 64.6623C204.771 65.3088 204.556 66.1277 203.909 66.5156L192.725 73.1312Z" fill="#7B91B3"/>
<path d="M195.893 85.0911C186.498 85.0911 178.848 77.4411 178.848 68.0456C178.848 58.65 186.498 51 195.893 51C205.289 51 212.939 58.65 212.939 68.0456C212.939 77.4411 205.289 85.0911 195.893 85.0911ZM195.893 53.4566C187.834 53.4566 181.283 60.0076 181.283 68.0671C181.283 76.1266 187.834 82.6776 195.893 82.6776C203.953 82.6776 210.504 76.1266 210.504 68.0671C210.504 60.0076 203.953 53.4566 195.893 53.4566Z" fill="#7B91B3"/>
<path d="M132.364 102.353L127.106 93.7551C126.675 93.044 126.891 92.1389 127.602 91.7079C128.313 91.2769 129.218 91.4924 129.649 92.2036L133.356 98.2805L143.225 92.4406C143.936 92.0096 144.863 92.2467 145.272 92.9578C145.703 93.6689 145.466 94.5955 144.755 95.005L132.364 102.353Z" fill="#7B91B3"/>
<path d="M135.899 115.606C125.49 115.606 117 107.137 117 96.7074C117 86.2991 125.469 77.8086 135.899 77.8086C146.329 77.8086 154.798 86.2775 154.798 96.7074C154.776 107.137 146.307 115.606 135.899 115.606ZM135.899 80.5238C126.977 80.5238 119.715 87.786 119.715 96.7074C119.715 105.629 126.977 112.891 135.899 112.891C144.82 112.891 152.082 105.629 152.082 96.7074C152.082 87.786 144.82 80.5238 135.899 80.5238Z" fill="#7B91B3"/>
<path d="M340.345 219.004H42.6309V229.243H340.345V219.004Z" fill="white"/>
<path d="M293.724 143.172H42.6309V153.411H293.724V143.172Z" fill="#7B91B3" fill-opacity="0.8"/>
<path d="M263.422 237.455H42.6309V247.694H263.422V237.455Z" fill="white"/>
<path d="M182.652 277.476H42.6309V287.715H182.652V277.476Z" fill="white"/>
<path d="M294.191 295.927H42.6309V306.166H294.191V295.927Z" fill="white"/>
<path d="M221.634 339.95H42.6309V350.189H221.634V339.95Z" fill="white"/>
<path d="M261.187 358.401H42.6309V368.641H261.187V358.401Z" fill="white"/>
<path d="M281.873 402.425H42.6309V412.664H281.873V402.425Z" fill="white"/>
<path d="M168.411 420.876H42.6309V431.115H168.411V420.876Z" fill="white"/>
<path d="M35.6134 163.806H28.1289V192.496H35.6134V163.806Z" fill="#7B91B3" fill-opacity="0.8"/>
<path d="M35.6134 219.004H28.1289V247.694H35.6134V219.004Z" fill="#7B91B3" fill-opacity="0.8"/>
<path d="M35.6134 277.476H28.1289V306.166H35.6134V277.476Z" fill="#7B91B3" fill-opacity="0.8"/>
<path d="M35.6134 339.95H28.1289V368.641H35.6134V339.95Z" fill="#7B91B3" fill-opacity="0.8"/>
<path d="M35.6134 402.425H28.1289V431.115H35.6134V402.425Z" fill="#7B91B3" fill-opacity="0.8"/>
<path d="M439.253 437.248H415.396C410.666 437.248 406.82 433.402 406.82 428.672V404.815C406.82 400.086 410.666 396.24 415.396 396.24H439.253C443.983 396.24 447.829 400.086 447.829 404.815V428.672C447.829 433.402 443.983 437.248 439.253 437.248Z" fill="#7B91B3"/>
<path d="M425.999 425.761L415.655 416.718C414.824 415.99 414.72 414.691 415.448 413.859C416.175 413.028 417.475 412.924 418.306 413.651L425.635 420.044L436.082 408.402C436.809 407.57 438.109 407.466 438.94 408.246C439.772 408.973 439.876 410.273 439.096 411.104L425.999 425.761Z" fill="#F3F3F3"/>
<path d="M438.474 374.826H416.125C410.98 374.826 406.77 370.616 406.77 365.47V343.121C406.77 337.975 410.98 333.765 416.125 333.765H438.474C443.62 333.765 447.83 337.975 447.83 343.121V365.47C447.83 370.616 443.62 374.826 438.474 374.826ZM416.125 336.364C412.383 336.364 409.368 339.379 409.368 343.121V365.47C409.368 369.212 412.383 372.227 416.125 372.227H438.474C442.217 372.227 445.231 369.212 445.231 365.47V343.121C445.231 339.379 442.217 336.364 438.474 336.364H416.125Z" fill="#7B91B3"/>
<path d="M500.221 312.351H477.871C472.726 312.351 468.516 308.141 468.516 302.996V280.646C468.516 275.501 472.726 271.291 477.871 271.291H500.221C505.366 271.291 509.576 275.501 509.576 280.646V302.996C509.576 308.141 505.366 312.351 500.221 312.351ZM477.871 273.89C474.129 273.89 471.114 276.904 471.114 280.646V302.996C471.114 306.738 474.129 309.753 477.871 309.753H500.221C503.963 309.753 506.977 306.738 506.977 302.996V280.646C506.977 276.904 503.963 273.89 500.221 273.89H477.871Z" fill="#7B91B3"/>
<path d="M500.221 437.3H477.871C472.726 437.3 468.516 433.09 468.516 427.944V405.595C468.516 400.45 472.726 396.24 477.871 396.24H500.221C505.366 396.24 509.576 400.45 509.576 405.595V427.944C509.576 433.09 505.366 437.3 500.221 437.3ZM477.871 398.838C474.129 398.838 471.114 401.853 471.114 405.595V427.944C471.114 431.687 474.129 434.701 477.871 434.701H500.221C503.963 434.701 506.977 431.687 506.977 427.944V405.595C506.977 401.853 503.963 398.838 500.221 398.838H477.871Z" fill="#7B91B3"/>
<path d="M500.948 374.774H477.092C472.362 374.774 468.516 370.928 468.516 366.198V342.341C468.516 337.611 472.362 333.765 477.092 333.765H500.948C505.678 333.765 509.524 337.611 509.524 342.341V366.198C509.576 370.928 505.73 374.774 500.948 374.774Z" fill="#7B91B3"/>
<path d="M487.745 363.339L477.402 354.296C476.57 353.568 476.466 352.268 477.194 351.437C477.921 350.605 479.221 350.501 480.052 351.229L487.381 357.622L497.828 345.979C498.556 345.148 499.855 345.044 500.687 345.824C501.518 346.551 501.622 347.851 500.842 348.682L487.745 363.339Z" fill="#F3F3F3"/>
<path d="M439.253 312.299H415.396C410.666 312.299 406.82 308.453 406.82 303.723V279.867C406.82 275.137 410.666 271.291 415.396 271.291H439.253C443.983 271.291 447.829 275.137 447.829 279.867V303.723C447.829 308.453 443.983 312.299 439.253 312.299Z" fill="#7B91B3"/>
<path d="M425.999 300.865L415.655 291.821C414.824 291.093 414.72 289.794 415.448 288.963C416.175 288.131 417.475 288.027 418.306 288.755L425.635 295.148L436.082 283.505C436.809 282.673 438.109 282.57 438.94 283.349C439.772 284.077 439.876 285.376 439.096 286.208L425.999 300.865Z" fill="#F3F3F3"/>
<path d="M518.62 187.351C518.62 202.164 513.318 215.729 504.483 226.228C493.412 239.378 476.78 247.798 458.225 247.798C439.046 247.798 421.582 238.806 410.407 224.305C402.507 214.066 397.777 201.28 397.777 187.351C397.777 153.983 424.804 126.956 458.173 126.956C491.541 126.904 518.62 153.983 518.62 187.351Z" fill="#EEF0F7"/>
<path d="M501.415 219.731C501.207 219.523 500.688 219.316 500.376 219.16C500.376 219.16 500.324 219.16 500.324 219.108C497.673 217.652 489.877 213.806 474.544 209.388C471.738 208.557 469.658 207.985 468.931 207.829L467.631 205.75C467.424 203.671 467.476 200.552 467.528 198.473C469.71 195.979 471.634 192.029 472.725 185.947C473.089 186.207 473.349 185.636 473.349 185.636C473.141 185.272 476.259 177.683 475.688 175.968C475.376 174.981 474.7 175.137 474.232 175.396C474.284 174.929 474.388 174.513 474.44 173.993C474.44 173.993 475.688 162.351 469.762 155.854C469.139 155.282 467.008 155.126 467.008 155.126C457.548 152.215 451.883 153.515 448.297 155.022C443.047 159.336 442.631 166.665 442.891 170.719C442.995 171.654 443.099 172.642 443.203 173.577V173.629C443.255 173.993 443.307 174.357 443.359 174.721C442.891 174.409 442.216 174.253 441.852 175.241C441.228 176.904 443.515 184.492 443.827 184.96C443.827 184.96 444.347 185.74 444.71 185.376C445.802 192.029 447.777 196.135 449.804 198.681C449.648 201.384 449.284 204.555 448.972 206.582L446.633 209.024C446.53 209.076 446.374 209.128 446.27 209.128C419.814 216.197 412.33 221.083 412.33 221.083C411.654 221.499 410.978 222.59 410.303 224.201C421.321 238.442 438.681 247.694 458.12 247.694C476.675 247.694 493.307 239.326 504.378 226.124C503.287 223.422 502.455 220.823 501.415 219.731Z" fill="#7B91B3"/>
<circle cx="34.5" cy="71.5" r="6" fill="#FF6359" stroke="#FA463A"/>
<circle cx="55.5" cy="71.5" r="6" fill="#F7BF2B" stroke="#E9B11E"/>
<circle cx="76.5" cy="71.5" r="6" fill="#34C546" stroke="#24BA36"/>
</svg>
