<svg width="28" height="28" viewBox="0 0 28 28" fill="none" xmlns="http://www.w3.org/2000/svg">
<path d="M22.167 24.5V25.5V24.5ZM5.83366 24.5V23.5V24.5ZM4.66699 23.3333H3.66699H4.66699ZM4.66699 11.6667L5.66699 11.6667L4.66699 11.6667ZM5.83366 10.5L5.83366 11.5L5.83366 10.5ZM22.167 10.5V11.5V10.5ZM23.3337 11.6667L22.3337 11.6667L23.3337 11.6667ZM23.3337 23.3333H24.3337H23.3337ZM22.167 23.5L5.83366 23.5L5.83366 25.5L22.167 25.5V23.5ZM5.66699 23.3333L5.66699 11.6667L3.66699 11.6667L3.66699 23.3333H5.66699ZM5.83366 11.5L22.167 11.5V9.5L5.83366 9.5L5.83366 11.5ZM22.3337 11.6667L22.3337 23.3333H24.3337L24.3337 11.6667L22.3337 11.6667ZM22.167 11.5C22.259 11.5 22.3337 11.5746 22.3337 11.6667L24.3337 11.6667C24.3337 10.4701 23.3636 9.5 22.167 9.5V11.5ZM5.66699 11.6667C5.66699 11.5746 5.74161 11.5 5.83366 11.5L5.83366 9.5C4.63704 9.5 3.66699 10.4701 3.66699 11.6667L5.66699 11.6667ZM5.83366 23.5C5.74161 23.5 5.66699 23.4254 5.66699 23.3333H3.66699C3.66699 24.53 4.63704 25.5 5.83366 25.5L5.83366 23.5ZM22.167 25.5C23.3636 25.5 24.3337 24.53 24.3337 23.3333H22.3337C22.3337 23.4254 22.259 23.5 22.167 23.5V25.5Z" fill="#009CB7"/>
<path d="M17.2308 10.5L17.2308 9.5L17.2308 10.5ZM10.7692 10.5L10.7692 11.5H10.7692L10.7692 10.5ZM10.5 10.2308H9.5H10.5ZM10.5 7L11.5 7L10.5 7ZM17.5 7L16.5 7L17.5 7ZM17.5 10.2308H18.5H18.5H17.5ZM14 3.5L14 4.5L14 3.5ZM17.2308 9.5L10.7692 9.5L10.7692 11.5L17.2308 11.5L17.2308 9.5ZM11.5 10.2308L11.5 7L9.5 7L9.5 10.2308H11.5ZM16.5 7L16.5 10.2308H18.5L18.5 7L16.5 7ZM14 4.5C15.3807 4.5 16.5 5.61929 16.5 7L18.5 7C18.5 4.51472 16.4853 2.5 14 2.5L14 4.5ZM11.5 7C11.5 5.61929 12.6193 4.5 14 4.5L14 2.5C11.5147 2.5 9.5 4.51472 9.5 7L11.5 7ZM10.7692 9.5C11.1728 9.5 11.5 9.82718 11.5 10.2308H9.5C9.5 10.9317 10.0682 11.5 10.7692 11.5L10.7692 9.5ZM17.2308 11.5C17.9317 11.5 18.5 10.9318 18.5 10.2308H16.5C16.5 9.82717 16.8272 9.5 17.2308 9.5V11.5Z" fill="#009CB7"/>
<path d="M15 15.1667C15 14.6144 14.5523 14.1667 14 14.1667C13.4477 14.1667 13 14.6144 13 15.1667L15 15.1667ZM13 18.6667C13 19.219 13.4477 19.6667 14 19.6667C14.5523 19.6667 15 19.219 15 18.6667L13 18.6667ZM13 15.1667L13 18.6667L15 18.6667L15 15.1667L13 15.1667Z" fill="#009CB7"/>
</svg>
