<svg width="28" height="28" viewBox="0 0 28 28" fill="none" xmlns="http://www.w3.org/2000/svg">
<path d="M6 8.74996C6 9.30224 6.44772 9.74996 7 9.74996C7.55228 9.74996 8 9.30224 8 8.74996H6ZM12.25 18.8333C11.6977 18.8333 11.25 19.281 11.25 19.8333C11.25 20.3856 11.6977 20.8333 12.25 20.8333V18.8333ZM8.16667 5.66663H23.3333V3.66663H8.16667V5.66663ZM23.5 5.83329V18.6666H25.5V5.83329H23.5ZM8 8.74996V5.83329H6V8.74996H8ZM23.3333 18.8333H12.25V20.8333H23.3333V18.8333ZM23.5 18.6666C23.5 18.7587 23.4254 18.8333 23.3333 18.8333V20.8333C24.5299 20.8333 25.5 19.8632 25.5 18.6666H23.5ZM23.3333 5.66663C23.4254 5.66663 23.5 5.74124 23.5 5.83329H25.5C25.5 4.63668 24.53 3.66663 23.3333 3.66663V5.66663ZM8.16667 3.66663C6.97005 3.66663 6 4.63668 6 5.83329H8C8 5.74125 8.07462 5.66663 8.16667 5.66663V3.66663Z" fill="#009CB7"/>
<path d="M4.66667 10.3334H10.5V8.33337H4.66667V10.3334ZM10.6667 10.5V22.1667H12.6667V10.5H10.6667ZM10.5 22.3334H4.66667V24.3334H10.5V22.3334ZM4.5 22.1667V10.5H2.5V22.1667H4.5ZM4.66667 22.3334C4.57462 22.3334 4.5 22.2588 4.5 22.1667H2.5C2.5 23.3633 3.47005 24.3334 4.66667 24.3334V22.3334ZM10.6667 22.1667C10.6667 22.2588 10.592 22.3334 10.5 22.3334V24.3334C11.6966 24.3334 12.6667 23.3633 12.6667 22.1667H10.6667ZM10.5 10.3334C10.592 10.3334 10.6667 10.408 10.6667 10.5H12.6667C12.6667 9.30342 11.6966 8.33337 10.5 8.33337V10.3334ZM4.66667 8.33337C3.47005 8.33337 2.5 9.30342 2.5 10.5H4.5C4.5 10.408 4.57462 10.3334 4.66667 10.3334V8.33337Z" fill="#009CB7"/>
</svg>
