<svg width="34" height="34" viewBox="0 0 34 34" fill="none" xmlns="http://www.w3.org/2000/svg">
<rect width="33.9998" height="34" rx="16.9999" fill="url(#paint0_linear)"/>
<path fill-rule="evenodd" clip-rule="evenodd" d="M21.5994 11.662C19.6593 10.7794 13.4068 10.7793 11.4666 11.662C11.0075 11.8709 10.7747 12.1491 10.7747 12.4889C10.7747 12.8288 11.0075 13.107 11.4666 13.3158C13.4087 14.1994 19.661 14.1977 21.5994 13.3158C22.0585 13.107 22.2912 12.8288 22.2912 12.4889C22.2912 12.1491 22.0585 11.8709 21.5994 11.662ZM23.1997 12.807C23.1463 13.0804 23.0105 13.4086 22.6962 13.7105C23.564 13.7105 24.0607 14.3511 24.0607 15.0084C24.0607 15.7241 23.4823 16.3063 22.7713 16.3063H22.2913V14.0172C20.3157 15.2099 12.8133 15.2479 10.7747 14.0172V15.7457C10.7747 18.9418 13.3579 21.542 16.533 21.542C19.1907 21.542 21.4333 19.72 22.0937 17.2519H22.7713C24.0002 17.2519 25 16.2455 25 15.0084C25 13.9189 24.2243 13.0087 23.1997 12.807ZM11.4193 20.0942C14.1222 23.3098 19.0206 23.2742 21.6854 20.0502C22.7323 20.3701 23.2437 20.7958 23.2437 21.3439C23.2437 21.9896 22.5346 22.4654 21.076 22.7985C18.6027 23.3634 14.6394 23.363 12.1677 22.7985C10.709 22.4654 10 21.9896 10 21.3439C10 20.8206 10.466 20.4088 11.4193 20.0942Z" fill="white"/>
<defs>
<linearGradient id="paint0_linear" x1="16.9999" y1="0" x2="16.9999" y2="34" gradientUnits="userSpaceOnUse">
<stop stop-color="#85BEFF"/>
<stop offset="1" stop-color="#5183BB"/>
</linearGradient>
</defs>
</svg>
