<?xml version="1.0" encoding="UTF-8"?>
<svg width="485px" height="386px" viewBox="0 0 485 386" version="1.1" xmlns="http://www.w3.org/2000/svg" xmlns:xlink="http://www.w3.org/1999/xlink">
    <!-- Generator: Sketch 52.6 (67491) - http://www.bohemiancoding.com/sketch -->
    <title>Group 9</title>
    <desc>Created with Sketch.</desc>
    <defs>
        <path d="M10,0 L231,0 C236.522847,-1.01453063e-15 241,4.4771525 241,10 L241,152 C241,157.522847 236.522847,162 231,162 L10,162 C4.4771525,162 6.76353751e-16,157.522847 0,152 L0,10 C-6.76353751e-16,4.4771525 4.4771525,1.01453063e-15 10,0 Z" id="path-1"></path>
        <filter x="-23.2%" y="-28.4%" width="146.5%" height="169.1%" filterUnits="objectBoundingBox" id="filter-2">
            <feOffset dx="0" dy="10" in="SourceAlpha" result="shadowOffsetOuter1"></feOffset>
            <feGaussianBlur stdDeviation="17" in="shadowOffsetOuter1" result="shadowBlurOuter1"></feGaussianBlur>
            <feColorMatrix values="0 0 0 0 0.2   0 0 0 0 0.2   0 0 0 0 0.2  0 0 0 0.5 0" type="matrix" in="shadowBlurOuter1"></feColorMatrix>
        </filter>
        <path d="M10,0 L231,0 C236.522847,-1.01453063e-15 241,4.4771525 241,10 L241,152 C241,157.522847 236.522847,162 231,162 L10,162 C4.4771525,162 6.76353751e-16,157.522847 0,152 L0,10 C-6.76353751e-16,4.4771525 4.4771525,1.01453063e-15 10,0 Z" id="path-3"></path>
        <path d="M10,0 L267,0 C272.522847,-1.01453063e-15 277,4.4771525 277,10 L277,176 C277,181.522847 272.522847,186 267,186 L10,186 C4.4771525,186 6.76353751e-16,181.522847 0,176 L0,10 C-6.76353751e-16,4.4771525 4.4771525,1.01453063e-15 10,0 Z" id="path-5"></path>
        <filter x="-20.2%" y="-24.7%" width="140.4%" height="160.2%" filterUnits="objectBoundingBox" id="filter-6">
            <feOffset dx="0" dy="10" in="SourceAlpha" result="shadowOffsetOuter1"></feOffset>
            <feGaussianBlur stdDeviation="17" in="shadowOffsetOuter1" result="shadowBlurOuter1"></feGaussianBlur>
            <feColorMatrix values="0 0 0 0 0.2   0 0 0 0 0.2   0 0 0 0 0.2  0 0 0 0.5 0" type="matrix" in="shadowBlurOuter1"></feColorMatrix>
        </filter>
        <path d="M10,0 L267,0 C272.522847,-1.01453063e-15 277,4.4771525 277,10 L277,176 C277,181.522847 272.522847,186 267,186 L10,186 C4.4771525,186 6.76353751e-16,181.522847 0,176 L0,10 C-6.76353751e-16,4.4771525 4.4771525,1.01453063e-15 10,0 Z" id="path-7"></path>
        <path d="M10,0 L60,0 C65.5228475,-1.01453063e-15 70,4.4771525 70,10 L70,50 C70,55.5228475 65.5228475,60 60,60 L10,60 C4.4771525,60 6.76353751e-16,55.5228475 0,50 L0,10 C-6.76353751e-16,4.4771525 4.4771525,-2.53818305e-15 10,-3.55271368e-15 Z" id="path-9"></path>
        <filter x="-80.0%" y="-76.7%" width="260.0%" height="286.7%" filterUnits="objectBoundingBox" id="filter-10">
            <feOffset dx="0" dy="10" in="SourceAlpha" result="shadowOffsetOuter1"></feOffset>
            <feGaussianBlur stdDeviation="17" in="shadowOffsetOuter1" result="shadowBlurOuter1"></feGaussianBlur>
            <feColorMatrix values="0 0 0 0 0.2   0 0 0 0 0.2   0 0 0 0 0.2  0 0 0 0.5 0" type="matrix" in="shadowBlurOuter1"></feColorMatrix>
        </filter>
        <path d="M10,0 L50,0 C55.5228475,-5.91980459e-15 60,4.4771525 60,10 L60,39 C60,44.5228475 55.5228475,49 50,49 L10,49 C4.4771525,49 6.76353751e-16,44.5228475 0,39 L0,10 C-6.76353751e-16,4.4771525 4.4771525,1.01453063e-15 10,0 Z" id="path-11"></path>
    </defs>
    <g id="Landing-page" stroke="none" stroke-width="1" fill="none" fill-rule="evenodd">
        <g id="1.11--Contact" transform="translate(-801.000000, -154.000000)">
            <g id="header" transform="translate(0.000000, 100.000000)">
                <g id="Group-9" transform="translate(835.000000, 78.000000)">
                    <g id="Group" transform="translate(0.000000, 156.000000)">
                        <g id="Rectangle">
                            <use fill="black" fill-opacity="1" filter="url(#filter-2)" xlink:href="#path-1"></use>
                            <use fill="#FFFFFF" fill-rule="evenodd" xlink:href="#path-1"></use>
                        </g>
                        <g id="comments">
                            <mask id="mask-4" fill="white">
                                <use xlink:href="#path-3"></use>
                            </mask>
                            <g id="Mask"></g>
                            <g id="user-circle" mask="url(#mask-4)" fill="#0B7A76" fill-opacity="0.27" fill-rule="nonzero">
                                <g transform="translate(70.000000, 74.000000)" id="Shape">
                                    <path d="M51,0 C30.7511588,0.0384395931 12.4354082,12.020461 4.30302767,30.5487957 C-3.82935286,49.0771303 -0.243868358,70.6556757 13.4444096,85.5644354 C23.1176865,96.0410339 36.7340419,102 51,102 C65.2659581,102 78.8823135,96.0410339 88.5555904,85.5644354 C102.243868,70.6556757 105.829353,49.0771303 97.6969723,30.5487957 C89.5645918,12.020461 71.2488412,0.0384395931 51,0 Z M51,91.8949783 C40.4152765,91.8789052 30.2494636,87.7611203 22.641697,80.408106 C27.365695,68.917645 38.5673502,61.4154695 51,61.4154695 C63.4326498,61.4154695 74.634305,68.917645 79.358303,80.408106 C71.7505364,87.7611203 61.5847235,91.8789052 51,91.8949783 Z M40.7807917,40.8422126 C40.7807917,35.2030798 45.3560871,30.6316594 51,30.6316594 C56.6439129,30.6316594 61.2192083,35.2030798 61.2192083,40.8422126 C61.2192083,46.4813454 56.6439129,51.0527657 51,51.0527657 C45.3560871,51.0527657 40.7807917,46.4813454 40.7807917,40.8422126 Z M86.3073646,71.473872 C81.7420931,63.6717791 74.7157266,57.60298 66.3288124,54.2180372 C73.5753976,46.0081412 73.0541776,33.5494009 65.1471363,25.9723939 C57.240095,18.395387 44.759905,18.395387 36.8528637,25.9723939 C28.9458224,33.5494009 28.4246024,46.0081412 35.6711876,54.2180372 C27.2842734,57.60298 20.2579069,63.6717791 15.6926354,71.473872 C12.0543099,65.2816925 10.1319557,58.2331563 10.1231669,51.0527657 C10.1231669,28.4962346 28.4243484,10.2105531 51,10.2105531 C73.5756516,10.2105531 91.8768331,28.4962346 91.8768331,51.0527657 C91.8680443,58.2331563 89.9456901,65.2816925 86.3073646,71.473872 Z"></path>
                                </g>
                            </g>
                            <path d="M37.5,23 L203.5,23 C205.985281,23 208,25.0147186 208,27.5 L208,27.5 C208,29.9852814 205.985281,32 203.5,32 L37.5,32 C35.0147186,32 33,29.9852814 33,27.5 L33,27.5 C33,25.0147186 35.0147186,23 37.5,23 Z" id="Rectangle-7-Copy-3" fill="#E1E8EE" mask="url(#mask-4)"></path>
                            <rect id="Rectangle-7-Copy-2" fill="#E1E8EE" mask="url(#mask-4)" x="33" y="42" width="175" height="9" rx="4.5"></rect>
                        </g>
                    </g>
                    <g id="Group" transform="translate(140.000000, 7.000000)">
                        <g id="Rectangle">
                            <use fill="black" fill-opacity="1" filter="url(#filter-6)" xlink:href="#path-5"></use>
                            <use fill="#FFFFFF" fill-rule="evenodd" xlink:href="#path-5"></use>
                        </g>
                        <g id="comments">
                            <mask id="mask-8" fill="white">
                                <use xlink:href="#path-7"></use>
                            </mask>
                            <g id="Mask"></g>
                            <g mask="url(#mask-8)" fill="#0B7A76" fill-opacity="0.27" fill-rule="nonzero" id="Shape">
                                <g transform="translate(83.663900, 15.333333)">
                                    <path d="M183.233778,169.429586 C195.701449,152.734676 199.911428,131.289717 194.679432,111.127251 C189.447436,90.9647856 175.33883,74.2635493 156.322414,65.721659 C150.720598,33.5252855 125.736246,8.16457123 93.6002747,2.05467959 C61.4643038,-4.05521205 28.9010794,10.3641972 11.8517042,38.2539847 C-5.19767106,66.1437722 -3.16566139,101.668075 16.9529768,127.436215 L3.30086141,140.976134 C0.514017167,143.797546 -0.299729133,148.01692 1.23831161,151.670707 C2.74499047,155.334585 6.30921911,157.734088 10.2742441,157.753859 L66.1595222,157.753859 C77.5182944,181.675702 101.630355,196.944919 128.134233,197 L187.064227,197 C191.029252,196.980228 194.593481,194.580726 196.10016,190.916848 C197.638201,187.263061 196.824454,183.043687 194.03761,180.222275 L183.233778,169.429586 Z M59.3825728,128.319254 C59.3960642,131.604895 59.658727,134.884793 60.1683061,138.130789 L33.9444585,138.130789 L37.3820415,134.794867 C39.2414071,132.952588 40.2872738,130.4448 40.2872738,127.828677 C40.2872738,125.212553 39.2414071,122.704765 37.3820415,120.862487 C26.2625952,109.876371 20.0331592,94.8845725 20.0959098,79.2615775 C20.0959098,46.7490099 46.479767,20.3923663 79.0259043,20.3923663 C104.031361,20.2422526 126.351855,36.028073 134.518316,59.6385071 C132.357549,59.6385071 130.294999,59.6385071 128.134233,59.6385071 C90.1637395,59.6385071 59.3825728,90.3879247 59.3825728,128.319254 Z M162.90293,177.37693 L163.394013,177.867506 L128.134233,177.867506 C104.708369,177.825712 84.5735614,161.260552 80.041424,138.300947 C75.5092865,115.341342 87.841808,92.3804712 109.498155,83.4579702 C131.154501,74.5354692 156.10439,82.1358387 169.091982,101.611763 C182.079574,121.087687 179.488431,147.016029 162.90293,163.542665 C161.052388,165.354173 159.99333,167.822758 159.95643,170.41074 C159.967326,173.032832 161.028409,175.541472 162.90293,177.37693 Z"></path>
                                </g>
                            </g>
                        </g>
                    </g>
                    <g id="Group" transform="translate(27.000000, 0.000000)">
                        <g id="Rectangle">
                            <use fill="black" fill-opacity="1" filter="url(#filter-10)" xlink:href="#path-9"></use>
                            <use fill="#FFFFFF" fill-rule="evenodd" xlink:href="#path-9"></use>
                        </g>
                        <g id="comments" transform="translate(5.000000, 5.000000)">
                            <mask id="mask-12" fill="white">
                                <use xlink:href="#path-11"></use>
                            </mask>
                            <g id="Mask"></g>
                            <path d="M12,7 L43,7 C45.209139,7 47,8.790861 47,11 L47,11 C47,13.209139 45.209139,15 43,15 L12,15 C9.790861,15 8,13.209139 8,11 L8,11 C8,8.790861 9.790861,7 12,7 Z" id="Rectangle-7-Copy-3" fill="#E1E8EE"></path>
                            <path d="M12,35 L25,35 C27.209139,35 29,36.790861 29,39 L29,39 C29,41.209139 27.209139,43 25,43 L12,43 C9.790861,43 8,41.209139 8,39 L8,39 C8,36.790861 9.790861,35 12,35 Z" id="Rectangle-7-Copy-3" fill="#E1E8EE"></path>
                            <rect id="Rectangle-7-Copy-2" fill="#E1E8EE" x="8" y="21" width="46" height="8" rx="4"></rect>
                        </g>
                    </g>
                </g>
            </g>
        </g>
    </g>
</svg>