<svg width="24" height="19" viewBox="0 0 24 19" fill="none" xmlns="http://www.w3.org/2000/svg">
<path d="M21.8906 0H2.10938C0.947719 0 0 0.946687 0 2.10938V16.1719C0 17.3306 0.9435 18.2812 2.10938 18.2812H21.8906C23.0494 18.2812 24 17.3377 24 16.1719V2.10938C24 0.950625 23.0565 0 21.8906 0ZM21.5993 1.40625L12.0447 10.9609L2.40745 1.40625H21.5993ZM1.40625 15.8807V2.39386L8.1787 9.10823L1.40625 15.8807ZM2.40061 16.875L9.17733 10.0983L11.5519 12.4524C11.8267 12.725 12.2703 12.7241 12.5441 12.4503L14.8594 10.135L21.5994 16.875H2.40061ZM22.5938 15.8806L15.8537 9.14062L22.5938 2.40056V15.8806Z" fill="#FFC634"/>
</svg>
