<svg width="34" height="34" viewBox="0 0 34 34" fill="none" xmlns="http://www.w3.org/2000/svg">
<rect width="33.9998" height="34" rx="16.9999" fill="url(#paint0_linear)"/>
<path d="M16.76 9C13.5839 9 11 11.5994 11 14.7946C11 18.7598 16.1546 24.581 16.3741 24.8269C16.5802 25.0579 16.9401 25.0575 17.1459 24.8269C17.3654 24.581 22.52 18.7598 22.52 14.7946C22.5199 11.5994 19.9361 9 16.76 9ZM16.76 17.71C15.162 17.71 13.862 16.4021 13.862 14.7946C13.862 13.187 15.1621 11.8792 16.76 11.8792C18.3579 11.8792 19.6579 13.187 19.6579 14.7946C19.6579 16.4022 18.3579 17.71 16.76 17.71Z" fill="white"/>
<defs>
<linearGradient id="paint0_linear" x1="16.9999" y1="0" x2="16.9999" y2="34" gradientUnits="userSpaceOnUse">
<stop stop-color="#B0E7C6"/>
<stop offset="1" stop-color="#5DD1B3"/>
</linearGradient>
</defs>
</svg>
