<svg fill="none" height="24" viewBox="0 0 17 24" width="17" xmlns="http://www.w3.org/2000/svg"><path clip-rule="evenodd" d="m0 8.4375c0-4.65244 3.78506-8.4375 8.4375-8.4375 4.6524 0 8.4375 3.78506 8.4375 8.4375 0 1.52527-.4115 3.0201-1.1901 4.3228l-6.52702 10.8979c-.12596.2104-.35246.3399-.59766.3418h-.00558c-.24309 0-.46912-.1256-.59742-.3324l-6.69774-10.7933c-.824058-1.3309-1.25948-2.8649-1.25948-4.4368zm8.544 13.5087 5.9341-9.9079c.6479-1.0842.9953-2.3295.9953-3.6008 0-3.87703-3.1589-7.04063-7.0359-7.04063-3.87703 0-7.04062 3.1636-7.04062 7.04063 0 1.31016.3719 2.5882 1.05782 3.6959zm-4.32525-13.5087c0-2.32622 1.89253-4.21875 4.21875-4.21875 2.3262 0 4.2187 1.89253 4.2187 4.21875 0 2.286-1.8326 4.2187-4.2187 4.2187-2.35702 0-4.21875-1.9073-4.21875-4.2187zm1.39688 0c0 1.5547 1.26295 2.8219 2.82187 2.8219 1.5836 0 2.8172-1.28988 2.8172-2.8219 0-1.55081-1.26639-2.82187-2.8172-2.82187s-2.82187 1.27106-2.82187 2.82187z" fill="#ffc634" fill-rule="evenodd"/></svg>