<svg fill="none" height="34" viewBox="0 0 34 34" width="34" xmlns="http://www.w3.org/2000/svg" xmlns:xlink="http://www.w3.org/1999/xlink"><linearGradient id="a" gradientUnits="userSpaceOnUse" x1="16.9999" x2="16.9999" y1="0" y2="34"><stop offset="0" stop-color="#b0e7c6"/><stop offset="1" stop-color="#5dd1b3"/></linearGradient><rect fill="url(#a)" height="34" rx="16.9999" width="33.9998"/><path d="m16.76 9c-3.1761 0-5.76 2.5994-5.76 5.7946 0 3.9652 5.1546 9.7864 5.3741 10.0323.2061.231.566.2306.7718 0 .2195-.2459 5.3741-6.0671 5.3741-10.0323-.0001-3.1952-2.5839-5.7946-5.76-5.7946zm0 8.71c-1.598 0-2.898-1.3079-2.898-2.9154 0-1.6076 1.3001-2.9154 2.898-2.9154s2.8979 1.3078 2.8979 2.9154-1.3 2.9154-2.8979 2.9154z" fill="#fff"/></svg>