<svg fill="none" height="94" viewBox="0 0 94 94" width="94" xmlns="http://www.w3.org/2000/svg" xmlns:xlink="http://www.w3.org/1999/xlink"><filter id="a" color-interpolation-filters="sRGB" filterUnits="userSpaceOnUse" height="94" width="93.9998" x="0" y="0"><feFlood flood-opacity="0" result="BackgroundImageFix"/><feColorMatrix in="SourceAlpha" result="hardAlpha" type="matrix" values="0 0 0 0 0 0 0 0 0 0 0 0 0 0 0 0 0 0 127 0"/><feOffset dy="9"/><feGaussianBlur stdDeviation="15"/><feColorMatrix type="matrix" values="0 0 0 0 0.593438 0 0 0 0 0.707729 0 0 0 0 0.879167 0 0 0 0.25 0"/><feBlend in2="BackgroundImageFix" mode="normal" result="effect1_dropShadow"/><feBlend in="SourceGraphic" in2="effect1_dropShadow" mode="normal" result="shape"/></filter><linearGradient id="b" gradientUnits="userSpaceOnUse" x1="46.9999" x2="46.9999" y1="21" y2="55"><stop offset="0" stop-color="#b0e7c6"/><stop offset="1" stop-color="#5dd1b3"/></linearGradient><g filter="url(#a)"><rect fill="url(#b)" height="34" rx="16.9999" width="33.9998" x="30" y="21"/></g><path d="m46.76 30c-3.1761 0-5.76 2.5994-5.76 5.7946 0 3.9652 5.1546 9.7864 5.3741 10.0323.2061.231.566.2306.7718 0 .2195-.2459 5.3741-6.0671 5.3741-10.0323-.0001-3.1952-2.5839-5.7946-5.76-5.7946zm0 8.71c-1.598 0-2.898-1.3079-2.898-2.9154 0-1.6076 1.3001-2.9154 2.898-2.9154s2.8979 1.3078 2.8979 2.9154-1.3 2.9154-2.8979 2.9154z" fill="#fff"/></svg>