<svg fill="none" height="24" viewBox="0 0 21 24" width="21" xmlns="http://www.w3.org/2000/svg"><path clip-rule="evenodd" d="m4.02887 0h12.29083c2.2285 0 4.0289 1.80364 4.0289 4.02887v12.29083c0 2.2285-1.8037 4.0289-4.0289 4.0289h-10.94787l-3.84186 2.8814c-.633004.4746-1.52997.0171-1.52997-.765v-18.43613c0-2.22846 1.80364-4.02887 4.02887-4.02887zm12.29083 18.4361c1.1704 0 2.1164-.9465 2.1164-2.1164v-12.29083c0-1.17038-.9465-2.11641-2.1164-2.11641h-12.29083c-1.17038 0-2.11641.94652-2.11641 2.11641v16.52363l2.56689-1.9252c.1656-.124.3668-.1912.57374-.1912zm-6.1467-13.827c-1.94106 0-3.51561 1.57081-3.51561 3.51565v.00125c0 .52792.42806.95573.95623.95573s.95623-.42881.95623-.95698c0-.88402.71494-1.60318 1.60445-1.60318.8845 0 1.6042.71966 1.6042 1.60443 0 .88451-.7197 1.60418-1.6042 1.60418-.52819 0-.95625.42832-.95625.95622v1.0242c0 .5282.42806.9563.95625.9563.5279 0 .9562-.4281.9562-.9563v-.1999c1.4759-.4176 2.5604-1.77704 2.5604-3.3847 0-1.93936-1.5775-3.5169-3.5179-3.5169zm.9574 10.1742c0 .5281-.4281.9562-.9562.9562-.52796 0-.95627-.4281-.95627-.9562 0-.528.42831-.9563.95627-.9563.5281 0 .9562.4283.9562.9563z" fill="#ffc634" fill-rule="evenodd"/></svg>