<svg height="732" viewBox="0 0 732 732" width="732" xmlns="http://www.w3.org/2000/svg"><g fill="none" fill-rule="evenodd"><path d="m0 0h732v732h-732z" fill="#e6f1f1"/><g fill-rule="nonzero" transform="translate(148 179)"><g transform="translate(53.975962 82.798077)"><path d="m30.3942308 15.4591346c0 10.3549338-6.7304909 15.4591346-15.0544195 15.4591346-8.32392861 0-15.3398113-6.9114298-15.3398113-15.4591346 0-8.54770475 7.03966534-15.4591346 15.363594-15.4591346 8.3239286 0 15.0306368 6.91142985 15.0306368 15.4591346z" fill="#0b7a76"/><path d="m29.3461538 9.11826923c-2.2043889-5.12751479-7.0352839-8.77965976-12.7573149-9.11826923l-.8676851 15.7211538z" fill="#feca55"/></g><g transform="translate(64.980769 217.475962)"><path d="m71.9784295 150.94309c-3.5355128-21.068979-7.3016026-48.635509-10.8371154-69.7044883-.3074359-1.8070111-3.0359295-1.0380702-2.7284936.7689408 3.5355128 21.0689795 7.3016026 48.6355095 10.8371154 69.7044885.3074359 1.768564 3.0359295.999623 2.7284936-.768941z" fill="#d24a43"/><path d="m103.567468 150.94309c-3.535513-21.068979-7.0710257-42.137959-10.568109-63.2069381-.3074359-1.807011-3.0359295-1.0380701-2.7284936.7689409 3.5355128 21.0689792 7.0710256 42.1379592 10.5681086 63.2069382.307436 1.768564 3.03593.999623 2.728494-.768941z" fill="#d24a43"/><path d="m19.5990385 80.661896c-2.3057693 21.415003-4.3809616 49.289109-6.6867308 70.704112-.1921474 1.807011 2.6516346 1.807011 2.843782 0 2.3057693-21.415003 4.3809616-49.289109 6.6867308-70.704112.1921474-1.807011-2.6516346-1.807011-2.843782 0z" fill="#d24a43"/><path d="m52.6868269 29.2966467-3.8813782-19.95401527c-1.0760256-5.4594801-5.0342628-9.30418439-9.6458013-9.30418439h-29.0526923c-6.37929484 0-11.10612177 7.30493816-9.64580125 14.91745266l3.8813782 19.9155682c1.07602564 5.4594801 5.03426282 9.3041844 9.64580125 9.3041844h29.0526923c6.3792949 0 11.1061218-7.2664911 9.6458013-14.8790056z" fill="#d4d4d4"/><g fill="#fff"><path d="m9.68423077 11.1111954c-.76858974-.4998116-1.76775641-.3460234-2.30576923.4229175-.07685898.0768941-.11528846.1922352-.19214744.2691293-.49958333.6920467-.34586538 1.807011.42272436 2.3068225.76858975.4998116 1.76775641.3460234 2.30576923-.4229174l.19214741-.2691293c.4611539-.7304938.3458654-1.8454581-.42272433-2.3068226z"/><path d="m11.3366987 20.5307209c-.7685897-.4998115-1.76775639-.3460234-2.30576921.4229175-.07685898.0768941-.11528846.1922352-.19214744.2691293-.49958333.6920468-.34586538 1.807011.42272436 2.3068226.76858979.4998115 1.76775639.3460233 2.30576919-.4229175l.1921475-.2691293c.4995833-.7304938.3458654-1.8454581-.4227244-2.3068226z"/><path d="m16.0635256 11.1111954c-.7685897-.4998116-1.7677564-.3460234-2.3057692.4229175-.076859.0768941-.1152885.1922352-.1921474.2691293-.4995834.6920467-.3458654 1.807011.4227243 2.3068225.7685898.4998116 1.7677564.3460234 2.3057693-.4229174l.1921474-.2691293c.4611538-.7304938.3074359-1.8454581-.4227244-2.3068226z"/><path d="m13.0275962 29.9502464c-.7685898-.4998115-1.7677565-.3460234-2.3057693.4229175-.076859.0768941-.1152884.1922352-.1921474.2691293-.4995833.6920468-.3458654 1.807011.4227243 2.3068226.7685898.4998115 1.7677565.3460234 2.3057693-.4229175l.1921474-.2691293c.4611539-.7304938.3074359-1.8454581-.4227243-2.3068226z"/></g><path d="m15.1412179 41.176783c-1.0375961-.1537882-2.0367628-.3460234-2.9975-.6920468 2.4979167 13.456465 4.9574039 26.91293 7.4553206 40.369395.9223077-.1537881 1.8830448-.2691293 2.8053525-.3460234-2.4210577-13.1104416-4.8421154-26.2208832-7.2631731-39.3313248z" fill="#d24a43"/><path d="m78.4345833 76.6249565h-62.6784936c-2.3441987 0-2.3441987 7.8047497 0 7.8047497h62.6784936c2.3441988 0 2.3441988-7.8047497 0-7.8047497z" fill="#d24a43"/></g><g transform="translate(281.932692 156.6875)"><path d="m9.70384 8.986631h42.291932v32.899554h-42.291932z" fill="#ff647c"/><g fill="#fff"><path d="m41.1840136 15.8519538h-22.0437624c-.6112655 0-.6112655.9642308 0 .9642308h22.0437624c.6112656-.0385692.6112656-.9642308 0-.9642308z"/><path d="m41.1840136 21.5216308h-22.0437624c-.6112655 0-.6112655.9642307 0 .9642307h22.0437624c.6112656 0 .6112656-.9642307 0-.9642307z"/><path d="m41.1840136 27.1913077h-22.0437624c-.6112655 0-.6112655.9642308 0 .9642308h22.0437624c.6112656 0 .6112656-.9642308 0-.9642308z"/><path d="m35.2241749 32.8995538h-16.1985359c-.4584492 0-.4584492.9642308 0 .9642308h16.1985359c.4202451-.0385692.4202451-.9642308 0-.9642308z"/><path d="m17.1536383 18.9374923c-.1146122 0-.2292245-.0385692-.3438368-.1542769l-2.3304498-2.4684308c-.1910204-.1928461-.1528163-.4628308 0-.6556769l2.3304498-2.3527231c.1910205-.1928461.4966532-.1928461.6494696 0 .1910205.1928462.1910205.5014 0 .6556769l-2.024817 2.0441693 2.024817 2.1598769c.1910205.1928461.1528164.5014 0 .6556769-.0764082.0385692-.1910205.1157077-.3056328.1157077z"/><path d="m37.3254001 36.5636308c-.1146123 0-.2292245-.0385693-.3438368-.154277-.1910205-.1928461-.1910205-.5014 0-.6556769l2.024817-2.0441692-2.024817-2.1598769c-.1910205-.1928462-.1528164-.5014 0-.655677.1910204-.1928461.4966532-.1542769.6494696 0l2.3304497 2.4684308c.1910205.1928462.1528164.4628308 0 .6556769l-2.3304497 2.3527231c-.0764082.1542769-.1910205.1928462-.3056328.1928462z"/></g><path d="m6.80032878 6.74961538c-1.87200062-2.12130769-3.78220533-4.24261538-5.65420595-6.36392307-.42024504-.46283077-1.06971464.23141538-.6494696.65567692l5.65420595 6.36392308c.38204094.46283077 1.06971464-.19284616.6494696-.65567693z" fill="#bcd7fd"/><path d="m58.2230397 2.73841538c-1.4899597 1.42706154-2.9799194 2.85412308-4.469879 4.24261539-.4202451.42426154.2292245 1.07993846.6494696.65567692 1.4899597-1.42706154 2.9799193-2.85412307 4.469879-4.24261538.4584491-.42426154-.2292246-1.07993846-.6494696-.65567693z" fill="#bcd7fd"/><path d="m8.48130893 42.4647231c-1.26073511 1.5813384-2.52147022 3.1241077-3.78220533 4.7054461-.38204094.4628308.26742866 1.157077.6494696.655677 1.26073511-1.5813385 2.52147022-3.1241077 3.78220534-4.7054462.38204094-.4242615-.26742866-1.1185077-.64946961-.6556769z" fill="#bcd7fd"/></g><g fill="#d24a43" transform="translate(226.908654 290.841346)"><path d="m72.4599778 78.0912587c-4.0806408-25.9160839-8.1612817-51.8321678-12.2419225-77.74825171-.8390103.45734266-1.7161574.80034965-2.6695782 1.10524476 4.0425041 25.57307695 8.0468713 51.18426575 12.0893753 76.75734265.3050946 1.7912587 3.1272201 1.6769231 2.8221254-.1143357z"/><path d="m64.2986961 2.36293706h-62.20117043c-2.32634665 0-2.32634665 7.73671324 0 7.73671324h62.20117043c2.2882099 0 2.3263467-7.73671324 0-7.73671324z"/></g><path d="m32.3699273 1.80096344c-17.2998424-1.87760018-21.8746896-4.55988615-25.48843444 11.15064596-3.61374486 15.7105321-6.6123842 45.7904534-6.6123842 45.7904534l26.60331314 14.5992993h50.6693161s1.5762079-72.76658653-16.9922896-72.61331305c-13.8014298.11495511-28.179521 1.07291439-28.179521 1.07291439z" fill="#0b7a76" transform="translate(215.042865 178.247262)"/><g transform="translate(236.187117 200.855101)"><path d="m31.2934927 31.8425663c-17.107622 2.9505146-27.333751 7.8935844-31.10127223 9.4646377l.15377638 9.2347274 46.24824525.1532735c-2.5373102-7.5487191-8.573033-15.0591199-15.3007494-18.8526386z" fill="#ffa79b"/><path d="m32.5237037.38318371c0-.30654697-.4613292-.30654697-.4613292 0-.2306645 10.00109479-.4613291 20.00218969-.6919937 30.00328449 0 .2299102.3075528.306547.4228851.1149551.1537764-.2682286.7304378-30.11823959.7304378-30.11823959z" fill="#fff"/></g><g transform="translate(182.365385 180.16318)"><path d="m57.0510358 52.9176704c-.2306646-.5364572-17.3767306-26.7079046-30.2170581-39.659514-.0384441-.0383184-.0384441-.1149551-.0768882-.1532735-1.7684283-2.1841472-3.8828535-4.06174734-6.2663873-5.55616381-.4997732-.30654697-1.0379905-.61309394-1.614652-.95795928-1.1917669-.88132253-2.3835338-1.8392818-3.4984125-2.83555945-.8842142-.76636742-2.7679748-3.41033502-4.2672945-2.98883294-.2691086.07663674-.4613291.22991023-.6151055.42150208-.0384441.03831837-.0384441.03831837-.0384441.07663674-.3075527.49813883-.2691086 1.14955113-.0768882 1.68600833.3075528.99627764.9995465 1.80096344 1.8453165 2.45237574 1.3455433 1.7243267.6535496 2.9121962-.6151055 2.41405738-1.1533228-.68973068-2.3835338-1.26450625-3.690633-1.60937159-.46132913-.19159185-.92265826-.38318371-1.42243148-.53645719-1.30709921-2.6439676-3.3446362-6.2075761-4.38262674-5.47952705-.96110235.84300416-1.69154014 2.56733085-1.23021101 4.36829429-.80732598.57477557-.49977323 2.83555946-.11533229 3.87015547 1.11487873 3.06546968 1.69154015 4.32997588 3.88285351 6.82067008 2.30664566 2.6056492 8.11170391 3.5636085 10.95656681 5.2879352 3.0755276 2.4523757 20.0293731 37.0155464 19.1067148 36.8239545-.0768882 0 22.9511243-3.103788 22.3360188-4.444931z" fill="#ffa79b"/><g fill="#952c28"><path d="m17.3767306 13.1048829c-1.8453166-1.3794614-3.1524158-3.25706155-3.7675213-5.47952707-.0768882-.30654697-.5382173-.15327348-.4613291.11495511.6535496 2.33742066 2.037537 4.29165756 3.9597417 5.74775566.2691087.2299102.4997732-.1915919.2691087-.3831837z"/><path d="m7.68881883 11.3422378c-.6151055-.5364572-1.19176691-.728049-1.99909289-.9196409-.57666142-.1532735-.42288504.0766368-.57666142-.53645718-.07688818-.30654697-.07688818-.68973068-.15377637-.99627764-.34599685-1.7243267-1.15332283-3.29537991-2.26820156-4.67484127-.19222047-.22991022-.53821732.11495511-.34599685.34486534 1.42243149 1.76264507 2.19131337 3.8318371 2.30664565 6.09262095 0 .1149552.11533229.2299103.23066457.2299103.92265826-.0766368 1.72998424.1915918 2.42197793.8046858.26910866.1532734.61510551-.1532735.38444094-.3448654z"/><path d="m8.34236844 8.54499674c-.6919937-.61309394-1.46087558-.84300417-2.34508975-.72804905-.46132913-2.37573901-1.72998424-4.48324941-3.65218895-6.01598425-.23066456-.19159186-.57666141.15327348-.34599684.34486534 1.92220471 1.53273484 3.15241572 3.60192687 3.57530075 6.01598425.0384441.11495511.19222048.19159185.30755276.15327348.80732598-.19159185 1.49931967 0 2.15286927.57477557.23066457.19159185.53821732-.15327349.30755276-.34486534z"/><path d="m6.49705192 13.4880666c-.53821732-1.034596-1.80687243-1.1495511-2.30664566-2.2607839-.73043778-1.53273483-1.23021101-3.21874316-1.80687242-4.78979637-.11533228-.2682286-.57666141-.15327348-.46132913.11495511.61510551 1.60937159 1.15332282 3.29537991 1.84531652 4.86643316.19222047.421502.38444094.728049.73043779 1.034596.53821732.4598204 1.26865511.5747755 1.61465195 1.2645062.11533229.306547.53821732.0766368.38444095-.2299102z"/></g><path d="m48.9393319 16.0937158c-.2691087 5.786074-.4997732 11.6104664-.7688819 17.3965405 0 .3065469.4613291.3065469.4613291 0 .2691087-5.7860741.4997733-11.6104665.7688819-17.3965405 0-.3065469-.4613291-.3065469-.4613291 0z" fill="#fff"/></g><g transform="translate(206.200723 251.052167)"><path d="m69.2378136 118.250493c.3075528-10.039413.4613291-22.5312022.4613291-31.6509745-7.765707 1.2645062-15.4160817.6897307-23.297121.9579593 3.9212976 17.8563612 4.0750739 19.4274142-.6151055 20.6919202-5.305285 1.41778-5.0361764 7.625356-4.7286236 10.001095z" fill="#ffa79b"/><path d="m35.5992312 118.250493c.6535496-9.541274 1.0379905-22.5695206.7304378-31.804248-3.0370834.0766368-21.5286927-.3831837-22.6435715-.306547 3.1908598 12.9516094 4.7286236 21.266696-2.037537 22.722794-5.34372906 1.149551-4.76706764 7.05058-4.30573851 9.388001z" fill="#ffa79b"/><path d="m69.2378136 118.250493c.1922205-6.475805.3075528-13.986205.3844409-20.960149-8.7652534.8046858-15.8389668.8046858-21.1826958 0 1.6915401 8.813225.9611023 10.001095-2.6910866 10.959054-5.305285 1.41778-5.0361764 7.625356-4.7286236 10.001095z" fill="#0083f9"/><path d="m35.5992312 118.250493c.422885-6.207576.7304378-13.832932.807326-20.960149-6.7661606.8813225-13.5707653.7280491-20.3753699 0 .9226582 6.514123.1537763 10.614189-4.4210709 11.572148-5.34372905 1.149551-4.76706764 7.05058-4.30573851 9.388001z" fill="#0083f9"/><path d="m69.2378136 118.250493c.1153323-3.563609.1922205-7.433764.2691087-11.342238-2.4988662 1.379461-5.1130646 2.030874-8.150148.843004-2.0759811-.804685-4.3826267-2.835559-6.6508283-3.027151-1.9990929-.191592-4.0366299.421502-5.7666141 1.494416-.5382173 1.111233-1.5762079 1.571054-3.1524157 2.030874-5.305285 1.41778-5.0361764 7.625356-4.7286236 10.001095z" fill="#000"/><path d="m35.5992312 118.250493c.1922205-2.988833.3844409-6.322531.4997732-9.732866-2.3066456.728049-4.8055117.536457-7.5350424-.613094-3.7290772-1.609372-9.2265826-5.517846-12.8787716-1.686009-.1537764.191592-.3459968.306547-.5382173.421503-.7688819 1.149551-1.9222047 1.8776-3.5753008 2.260783-5.34372904 1.149552-4.76706763 7.050581-4.3057385 9.388001h28.3332974z" fill="#000"/><path d="m7.9194834.07663674c-6.65082829 4.32997593-10.14924086 13.75629516-5.57439366 40.92402026 4.26729446 25.4433983 7.45815427 39.8894242 9.61102356 48.9325598 1.7684283 0 20.1062612.3065469 25.4884344.3065469.3075528-24.1405737-2.3450897-44.5259471-2.3450897-44.5259471 21.9131337-.8046858 18.6838297-24.8303044 14.4549794-45.59886149h-41.634954z" fill="#2252b2"/><path d="m33.484806 36.4407708c.8457701 4.7897964 1.5762079 9.2347274 1.5762079 9.2347274 11.6485605-.421502 16.1849636-7.4337639 17.2613983-17.0133567-6.1894992 2.8738778-12.3405543 5.8627108-18.8376062 7.7786293z" fill="#000"/><path d="m37.7905446.07663674c-2.9217512 5.59448217-3.3446362 16.59185466-.4228851 37.59032196 3.3446362 23.9873003 5.1515087 42.0735714 6.1894992 52.1129846 7.8041511-.0383184 19.1067148.306547 26.9108659-.1532735 1.5377638-24.7153493-.1537764-42.9548939-.1537764-42.9548939 7.5734866-.2682286 11.9945574-3.4486534 14.3396472-8.3150865 4.4210708-9.1964091 1.4608755-24.5620758-1.4224315-38.24173429h-45.4409193z" fill="#2252b2"/><path d="m55.6286043.07663674c6.958381 7.54871909 18.6838297 9.73286624 29.1790674 7.85526606-.4997732-2.6439676-1.0379905-5.2879352-1.6146519-7.85526606z" fill="#000"/><path d="m39.1360879.07663674h-.8457701c-3.4215244 2.56733086-3.652189 7.97022117-3.652189 12.03196846-.038444 6.5907599.4997733 13.1815197 1.4993197 19.6956427.0384441.306547.4997732.1915919.4613292-.1149551-.9226583-5.8627107-1.4224315-11.8020582-1.4993197-17.7414058-.0384441-4.48324936-.3459969-11.3039194 4.0366299-13.87125026z" fill="#000"/><path d="m77.157297 39.3912854c-2.2682016-.4215021-4.6901795-1.1495511-6.8430488-2.2991023v9.5412744c6.6892724-.2682286 10.9181228-2.7589227 13.4169889-6.7057149-2.2297575.0383184-4.497959-.1532735-6.5739401-.5364572z" fill="#000"/><g fill="#fff"><path d="m33.2156974 35.0613095c-.3075528-.7280491-.6151055-1.4560981-.9611024-2.1841472-.1153323-.2682286-.5382173-.0383183-.422885.2299103.3075527.728049.6151055 1.4560981.9611023 2.1841471.1537764.2682286.5382173.0383184.4228851-.2299102z"/><path d="m69.7375868 32.9537991c-.0384441-.306547-.4997732-.306547-.4613291 0 .1153323.8430041.1922205 1.6860083.3075528 2.4906941.038444.306547.4997732.306547.4613291 0-.0768882-.8046858-.1922205-1.64769-.3075528-2.4906941z"/><path d="m33.7923588 86.6761552h-20.7598109c-.3075527 0-.3075527.4598205 0 .4598205h20.7598109c.3075527 0 .3075527-.4598205 0-.4598205z"/><path d="m66.3545065 86.6761552h-20.7598108c-.3075528 0-.3075528.4598205 0 .4598205h20.7598108c.3075528 0 .3075528-.4598205 0-.4598205z"/></g></g><g transform="translate(236.187117 155.639423)"><path d="m12.3021101 35.636085c2.421978 1.6860084 4.7286236 1.6860084 6.6508283.7280491.807326-5.0197066 1.8453165-11.2272827 2.037537-11.4571929l-10.8027904-4.2916576-3.03708348 4.2150208c.38444094 3.6402453 2.15286927 8.7365886 5.15150858 10.8057806z" fill="#ffa79b"/><path d="m19.4911557 33.0304358c.6919937-4.0617473 1.3455433-7.9319028 1.4993197-8.1234946l-5.8435023-2.0691921c-.4613291 3.6019269 1.6530961 7.3571273 4.3441826 10.1926867z" fill="#000"/><path d="m3.19085982 8.46835999c1.19176692-3.87015547 8.26548028-6.24589447 13.07099198-5.47952705 2.1144252.34486534 3.0370835-1.14955113 3.6137449.49813882 1.4224315 4.1000657 6.3048314 16.63017304 4.7670677 20.57696524-2.1913134 5.7094373-9.6879118 4.9813882-13.6860976 1.4944165-4.03662985-3.5252902-9.45724713-11.5721481-7.76570698-17.08999351z" fill="#ffa79b"/><path d="m19.0298266.11495511c-2.1913134-.45982045-5.1899527 1.41777973-6.4201637 2.83555946-4.42107084-.65141231-9.03436214 1.60937158-9.9570204 4.59820452-5.53594956 1.95423692-.84577007 13.52638501 4.15196217 13.29647471 1.38398739-1.034596 1.49931967-2.5290125 2.42197793-4.2533392 4.3057385-3.0271513 3.3061921-6.9356251 3.0370834-9.04313551 1.4608756.49813882 7.5350425-2.10751041 8.1885921-3.8318371.7304378-2.56733086-.7304378-3.44865339-1.4224315-3.60192688z" fill="#952c28"/><path d="m16.9922896 13.4880666-.422885-1.7626451c-.0768882-.3065469-.5766614-.1915918-.4997732.1532735.1537763.5747756.2691086 1.1878695.422885 1.7626451.1153323.3065469.5766614.1532735.4997732-.1532735z" fill="#000"/><path d="m21.6824691 12.0319685-.422885-1.7626451c-.0768882-.30654694-.5766614-.1915918-.4997732.1532735.1537763.5747756.2691086 1.1878695.422885 1.7626451.0768882.306547.5766614.1915918.4997732-.1532735z" fill="#000"/><g fill="#952c28"><path d="m22.2591305 15.0208014c-.1537764-.3065469-.5766614-.0383183-.422885.2682286.1922205.3831837-.0768882.8046858-.422885 1.0345961-.3459969.2299102-.7688819.3065469-1.1533229.3831837-.3075527.0766367-.1922204.5364572.1537764.4981388.5766614-.1149551 1.230211-.2682286 1.6530961-.7280491.3075527-.421502.422885-.9579592.1922204-1.4560981z"/><path d="m19.8371526 22.4928838c-.422885.0766367-.807326-.0766368-1.1148787-.3831837-.2306646-.2299103-.5766615.1149551-.3459969.3448653.4228851.4598205.9995465.613094 1.614652.5364572.3075527-.0766367.1922204-.5747756-.1537764-.4981388z"/><path d="m15.7236345 9.19640904c-.2691086.19159186-.5766614.34486534-.8457701.5364572-.5382173.34486536-.038444 1.22618786.4997733.88132256.2691086-.1915919.5766614-.3448654.84577-.5364572.5766615-.34486536.0768882-1.2261879-.4997732-.88132256z"/><path d="m21.2595841 8.39172325c-.1153323-.22991022-.4613292-.34486534-.6919937-.19159185-.2691087.19159185-.4997732.38318371-.7688819.57477556-.2306646.15327349-.3459968.42150208-.1922205.68973068.1153323.22991023.4613292.34486534.6919937.19159186.2691087-.19159186.4997732-.38318371.7688819-.57477557.2306646-.19159185.3459969-.45982045.1922205-.68973068z"/></g><path d="m18.5684975 11.2272827c-.1537764-.2682286-.6535496-.0766367-.4613291.1915919.8842141 1.4560981.5382173 3.3720166-1.1148788 4.1000657-1.6915401.7663674-3.5368566-.306547-3.9212976-2.0691921-.0768882-.3065469-.5766614-.2299102-.4997732.0766368.422885 1.9542369 2.3450897 3.2570615 4.3057385 2.5673308 2.1144252-.6514123 2.8064189-3.0654697 1.6915402-4.8664331z" fill="#fff"/><path d="m25.2193258 8.58331511c-.1537764-.2682286-.6535496-.07663674-.4613292.19159185.8842142 1.45609814.5382174 3.37201664-1.1148787 4.10006574-1.6915401.7663674-3.5368566-.306547-3.9212976-2.0691921-.0768882-.3065469-.5766614-.2299102-.4997732.0766368.422885 1.9542369 2.3450897 3.2570615 4.3057385 2.5673308 2.0759811-.6897307 2.7679748-3.0654697 1.6915402-4.86643309z" fill="#fff"/><path d="m19.6449321 11.572148-.7688819.3831838c-.3075527.1532734-.0384441.5747755.2691087.421502l.7688819-.3831837c.2691086-.1532735.0384441-.5747755-.2691087-.4215021z" fill="#fff"/><path d="m13.1478802 14.5992994c-2.1144252.4981388-4.65173539 1.4177797-6.76616057 1.8776001-.30755275.0766368-.19222047.5747756.15377638.4981389 2.15286927-.4981389 4.76706769-1.4177798 6.91993699-1.9159186-.1153323-.1532735-.2306646-.306547-.3075528-.4598204z" fill="#fff"/><path d="m3.22930391 19.8872346c.07688819-2.2991023 2.99863935-4.4832495 5.99727869-3.29538.807326 2.3757391 1.7299842 4.7131597 2.6526425 7.0505803-1.0764346.9962777-3.69063304 1.8776002-5.57439366 1.1495511-2.19131336-.8430041-3.15241572-2.4523757-3.07552753-4.9047514z" fill="#ffa79b"/><path d="m6.88149286 19.5806876c-.30755276-.1532735-.53821732.306547-.26910866.4215021.80732598.3831837 1.57620786.8046858 2.38353384 1.1878695.19222047.1149551.42288503-.0766368.38444094-.2682286-.0384441-.0766368-1.84531652-.9962777-2.49886612-1.341143z" fill="#952c28"/></g><g transform="translate(343.812612 153.543269)"><path d="m14.5340853 27.7067975c.4985306.1918753 11.0443708 15.6954019 11.0443708 15.6954019l11.0443709-12.6253967-14.4190397-10.7450184z" fill="#952c28"/><path d="m17.9087541 32.3118054c-1.7640314-2.5327544-3.2212748-4.5282578-3.4130173-4.6050079l2.8377897-2.87813c1.1888038 2.3408791 1.6106374 5.2957591.5752276 7.4831379z" fill="#000"/><path d="m19.7878311 2.8013798c-3.0678808-3.0316302-10.85262829-1.65012783-14.95591885 1.49662756-1.80237997 1.38150237-3.45136589.46050079-3.14457781 2.30250395.72862169 4.56663279 3.14457781 19.26428299 5.98236755 21.68191219 4.98530631 4.1828821 11.54290151-.2302504 13.53702401-5.5260095 1.955774-5.3341341 2.9528353-15.61865177-1.4188949-19.9550342z" fill="#952c28"/><path d="m.34513659 6.06326039c.7669702 3.64563125 7.47795944 1.76525302 10.89097681.03837507.9203642 3.91425674 3.681457 13.62314834 11.3895075 14.16039924 3.1062293-6.9458869 2.7994412-17.38390477-1.6873345-17.03852918-4.1032905-5.71788479-12.0414321-2.03387848-16.14472266 1.15125198-1.87907699-1.84200316-4.21833609-1.41987744-4.44842715 1.68850289z" fill="#000"/><path d="m20.0946192 12.0497706c-1.2655008-2.11062857-5.0620033-2.64787949-7.2478684-.0767501.4218336 2.6478796.7669702 5.257384 1.1121068 7.9436386 1.4955919.3837507 4.3717301-.1151252 5.790625-1.7268779 1.5722889-1.8420032 1.6873345-3.8758817.3451366-6.1400106z" fill="#952c28"/><path d="m2.10916805 17.3839048c-.11504553-1.0361268.7669702-1.8420032 1.76403145-1.8036281.30678808 0 .57522765.3837507.53687914.6523761 0 .0383751-.03834851.0383751-.03834851.0767501.11504553 0 .19174255.0383751.30678808.0383751.72862169.2302504.30678808 1.3431273-.42183361 1.1128769 0 0-.03834851.0383751.03834851.0383751.57522765.0767501.72862169.9210016.19174255 1.151252-1.03540977.4221257-2.26256208-.1918754-2.37760761-1.2663772z" fill="#952c28"/><g fill="#000"><path d="m4.90860927 12.7021468c-.11504553.575626-.26843957 1.1128769-.3834851 1.6885029-.07669702.3070005.42183361.4605007.49853063.1535002.11504553-.575626.26843957-1.1128769.3834851-1.6885029.03834851-.3453756-.46018212-.4988758-.49853063-.1535002z"/><path d="m17.2568295 13.2777728c-.3451366.4221257-.6902732.8442514-1.0354098 1.3047522l-.2684396.3453756c-.1917425.2686254.1533941.614001.3834851.3837506.4218336-.5372509.8820158-1.0745018 1.3038494-1.6501278.1917425-.2686255-.1917426-.6523761-.3834851-.3837506z"/><path d="m11.1977649 23.370415c-.0383485-.3453755-.5368791-.1918753-.4985306.1535003.153394.9977517-.3067881 1.9955034-1.15045533 2.5327544-.26843957.1918753 0 .614001.26843957.4605007 1.03540976-.6907511 1.53394036-1.8803782 1.38054636-3.1467554z"/><path d="m6.05906457 9.93914203c-.42183361-.07675013-.84366722-.15350026-1.30384934-.26862546-.26843957-.03837506-.57522765.07675013-.65192467.34537563-.07669702.2686254.07669702.5756259.34513659.6523761.42183361.0767501.84366722.1535002 1.30384934.2686254.26843957.0383751.57522765-.0767501.65192467-.3453756.07669702-.2686254-.07669702-.614001-.34513659-.65237607z"/></g></g><g transform="translate(320.803506 182.708319)"><path d="m44.8294081 19.9166591c-10.2390521 13.8150237-12.9234478 21.0679111-12.9234478 21.0679111s-11.1977649-22.8715392-15.7228891-27.5532972c0 0-13.23023594-4.75850814-14.87922186-2.340879-1.64898593 2.4176291-.95871275 7.1761373.03834851 10.0158922.99706126 2.8397548 4.87026076 4.4131325 8.59006622 4.0293819 0 0 8.55171773 39.6030678 16.10637413 41.2531957 7.516308 1.6501278 15.0709644.7291262 15.9913287.614001 5.0620033-.614001 24.7731374-37.9913151 24.8114859-39.2576923 0-1.2663771-22.0120447-7.8285134-22.0120447-7.8285134z" fill="#841e1e"/><path d="m33.0564156 43.3254492c-.2684396-.6523761-.5368792-1.3431273-.8053187-1.9955034-.1150456-.2686254-.5752277-.1535002-.4601822.1151252.2684396.6523761.5368792 1.3431273.8053187 1.9955034.1150456.2686255.5752277.1535003.4601822-.1151252z" fill="#fff"/><g transform="translate(1.53394)"><path d="m1.28847602 8.78432918 11.31255348.00119354.0015213 14.42822198-11.31255351-.0011936z" fill="#2252b2" transform="matrix(.98803871 .15420604 -.15420604 .98803871 2.550225 -.879671)"/><path d="m5.86732202 11.1287691c-.42183361 2.8397548-.84366722 5.6411346-1.22715232 8.4808895-.07669702.575626.80531871.8442514.92036424.2686255.42183361-2.8397549.84366722-5.6411347 1.22715232-8.4808896.07669702-.614001-.84366722-.8826265-.92036424-.2686254z" fill="#fff"/><g fill="#bcd7fd"><path d="m9.62547599.15350026c-2.07081953.99775171-3.1062293 3.41538086-2.41595612 5.6027596.19174255.57562599 1.07375828.3453756.92036424-.26862546-.57522765-1.80362809.30678808-3.72238138 1.99412249-4.52825776.5368792-.26862546.0383485-1.07450184-.49853061-.80587638z"/><path d="m10.9293253 1.76525302c-1.34219782.88262652-2.032471 2.37925408-1.80237994 3.95263178.07669702.61400105.99706124.34537559.92036424-.26862546-.15339404-1.15125198.3834851-2.26412888 1.3805464-2.87812993.4601821-.30700053 0-1.11287691-.4985307-.80587639z"/></g></g><g transform="translate(0 9.977517)"><path d="m3.18292632.88262651c-.46018211-.15350026-.69027317.38375066-.49853062.69075119-.30678808 0-.57522765.07675013-.84366722.30700052-.7669702.61400105-.65192467 1.88037822.15339404 2.41762914.07669702.07675014.19174255.07675014.26843957.07675014.03834851.42212572.11504553.84425144.26843957 1.15125197 0 .03837507-.03834851.1151252-.03834851.15350026-.26843957.03837507-.53687914.19187533-.80531871.46050079-.19174255.19187533-.34513659.53725092-.42183361.92100158-.7669702 1.03612678-1.64898593 2.37925408-.99706126 3.7223814.3834851.7675013 1.22715232 1.2663771 2.10916805 1.0361268 1.26550082-.3453756 1.64898592-1.7652531 1.26550082-2.91650504.03834851-.07675014.03834851-.15350027.07669702-.2302504.03834851-.1151252.07669702-.19187533.11504553-.30700052.07669702-.19187533.11504553-.42212573.15339404-.69075119.46018212-.49887585.69027318-1.11287691.69027318-1.76525302.3834851-.42212573.69027318-.95937665.80531871-1.41987744.34513659-1.61175276-.7669702-3.07000526-2.3009106-3.60725618zm-.69027317 1.72687796v.19187533c0 .1151252.03834851.19187533.07669702.26862546-.07669702.07675013-.11504553.19187533-.15339404.30700053-.23009106-.2302504-.15339404-.61400106.07669702-.76750132z" fill="#841e1e"/><g fill="#000"><path d="m4.14163907 4.91200842c-1.22715232-.30700053-2.10916804-1.30475224-2.3392591-2.53275434-.03834851-.2302504-.42183361-.15350027-.3834851.11512519.23009106 1.34312731 1.26550083 2.45600421 2.60769867 2.8013798.26843957.03837507.34513659-.34537559.11504553-.38375065z"/><path d="m2.99118377 7.36801263c-.8053187-.19187533-1.41889486-.76750132-1.64898592-1.53500263-.07669702-.2302504-.42183361-.15350027-.3834851.11512519.26843957.92100158.99706126 1.61175276 1.9174255 1.80362809.26843956.03837507.34513658-.34537559.11504552-.38375065z"/><path d="m2.83778974 10.2077675c-.7669702-.1535003-1.38054636-.76750132-1.49559189-1.5733777-.03834851-.2302504-.42183361-.15350027-.3834851.11512519.15339404.92100158.88201573 1.65012781 1.76403146 1.84200311.26843956.0383751.38348509-.3453755.11504553-.3837506z"/></g><path d="m20.5548013 10.2845176c-.1150455-2.26412886-1.1888038-5.21900892-3.1062293-6.83076168-5.3304429-3.41538085-6.020716-3.79913151-6.6726407-3.22350552-1.30384935 1.15125197-.1917426 2.5711294.9970612 3.41538085.2300911.38375065 1.1121068 1.30475223 1.3038494 1.4582525.076697.30700052 2.3009106 5.18063385 2.9528353 5.98651025.230091.3070005.6519246.1918753.8053187-.0383751.3834851.0767502.8053187 0 1.1121067-.2302504.6519247-.0767501 1.1504553-.4605007 1.4955919-.9593766.0766971.2302504.1150456.4221257.1917426.6523761.153394.4221257.9587127.2686255.9203642-.2302504z" fill="#841e1e"/><path d="m15.9146316 10.1693924c-.4218336-.80587635-.8820157-1.61175274-1.3038493-2.41762912-.1150455-.23025039-.4601821-.03837506-.3451366.19187533l1.3038493 2.41762919c.1533941.2302503.4601822.038375.3451366-.1918754z" fill="#000"/></g></g><g transform="translate(298.177885 249.864684)"><path d="m57.982947 119.960456c-1.7640314-7.866889-14.0739031-62.4362324-23.9678187-81.6237653l-10.9676738-1.8803782 21.0916804 83.5041435z" fill="#841e1e"/><path d="m57.982947 119.960456c-.3834851-1.803629-1.3421978-6.024886-2.6843957-11.704395-4.2566846 1.803628-8.9352028 2.609504-13.537024 2.302503l2.3776076 9.440267h13.8438121z" fill="#2252b2"/><path d="m50.7350786 89.7976539c-4.7935637-18.6119069-11.1210678-40.6391947-16.7199503-51.4993383l-10.9676738-1.8803782 13.767115 54.5693435c4.6785182-.3070005 9.318688-.6907512 13.9205091-1.189627z" fill="#000"/><path d="m113.166453 1.07450184c-14.879222-.26862546-29.7967924-1.03612677-44.6760143-.53725092.2300911 2.916505.3451366 4.64338296.3451366 4.64338296s-7.5163079.95937664-37.6582367 3.30025565c-30.14192883 2.34087897-38.61694953 9.90076697-24.46634936 53.68671697 14.15060016 43.7859505 21.36012006 46.1652045 12.53996276 48.3525825-11.31281044 2.839755-12.46326574 7.406388-12.38656872 9.401891h39.61401072c-3.7965024-51.1923372-12.9617963-77.0955066-12.9617963-77.0955066s0 0 26.8439569.4605008c62.7765104 1.1512519 55.9888244-18.688657 52.8058984-42.21257236z" fill="#952c28"/><path d="m113.166453 1.07450184c-14.879222-.26862546-29.7967924-1.03612677-44.6760143-.53725092.2300911 2.916505.3451366 4.64338296.3451366 4.64338296s-7.5163079.95937664-37.6582367 3.30025565c-30.14192883 2.34087897-38.61694953 9.90076697-24.46634936 53.68671697 5.63723096 17.49903 10.16235516 28.3591736 13.03849336 35.2666855 8.0531871-1.2663772 16.1447227-2.1490037 24.2362583-3.0316302-4.2950331-34.2689338-10.4307947-51.5760884-10.4307947-51.5760884s0 0 26.8439569.4605008c62.7381619 1.1512519 56.7941429-4.0293819 52.7675499-42.21257236z" fill="#000"/><path d="m46.5167425 119.960456c-.2684395-3.377006-.5368791-6.638887-.8053187-9.785642-2.3392591.652376-4.7168667.997752-7.2478683.882626-5.1770489-.191875-10.3540977-2.149003-15.5694951-2.532754-.4601821.997752-1.6106374 1.535003-3.6431084 2.033878-11.31281044 2.839755-12.46326574 7.406388-12.38656872 9.401892z" fill="#2252b2"/><g fill="#fff"><path d="m32.2894454 41.7520715c3.3746688 11.2822694 5.867322 22.8715392 7.3629139 34.5759343.0383485.3070005.4985306.3070005.4601821 0-1.4955919-11.7043951-3.9498965-23.2552899-7.3245654-34.5759343-.1917426-.038375-.3451366 0-.4985306 0z"/><path d="m77.6557326 5.87138506-6.9027318.2302504c-.3067881 0-.3067881.49887585 0 .46050078l6.9027318-.23025039c.3067881 0 .3067881-.46050079 0-.46050079z"/><path d="m47.5521523 111.786567c-.0383485-.307001-.4985306-.307001-.4601821 0 .3067881 2.494379.6519247 5.027133.9587127 7.521512.0383486.307001.4985307.307001.4601822 0-.3067881-2.494379-.6519247-4.988758-.9587128-7.521512z"/></g></g><g transform="translate(363.370352 179.638314)"><path d="m47.9739859 71.185747h-44.67601405c-.03834851-.575626-.11504553-1.1896271-.15339404-1.8803782-.23009106-2.4943793-.49853062-5.6027596-.76697019-9.0948906-.03834851-.6140011-.11504553-1.2280021-.15339404-1.8803782-.07669702-.8058764-.11504553-1.6501279-.19174255-2.5327544-.03834851-.614001-.07669702-1.2280021-.15339404-1.8803782-.23009106-2.916505-.42183361-5.9865103-.61357616-9.0948906-.03834851-.614001-.07669702-1.2663772-.11504553-1.8803782-.03834851-.8442515-.11504553-1.6885029-.15339404-2.4943793-.03834851-.614001-.07669702-1.2663772-.11504553-1.8803782-.15339404-2.7630047-.26843957-5.4876344-.3834851-8.173889-.03834851-.6140011-.03834851-1.2663772-.07669702-1.8803782-.03834851-.8442515-.03834851-1.6885029-.07669702-2.4943793 0-.6523761-.03834851-1.2663772-.03834851-1.8803782-.07669702-3.6840064-.07669702-7.1377623.03834851-10.0542673.03834851-.6523761.03834851-1.2663771.07669702-1.8803782.03834851-.3837506.03834851-.7291262.07669702-1.1128769.03834851-.4988759.11504553-.9593766.19174255-1.41987743.11504553-.65237612.26843957-1.30475223.46018212-1.88037822 1.955774-5.98651026 7.63135347-8.90301526 10.8142798-7.21451236 2.032471 1.1128769 5.4838369 3.60725618 5.4838369 3.60725618 1.5339404 1.1128769 2.9528353 2.34087901 4.3333816 3.60725618.6519247.61400105 1.3038494 1.2280021 1.9174255 1.88037822.8053187.80587643 1.5722889 1.65012783 2.3009106 2.53275433.5368792.6140011 1.0737583 1.2280021 1.5722889 1.8803782 2.4926532 3.1083804 4.6785183 6.4853861 6.6342923 10.0542673.3451366.614001.6902731 1.2663771.9970612 1.8803782.4218336.8442514.8436672 1.6501278 1.2271523 2.4943793.3067881.614001.5752277 1.2663771.8820158 1.8803782 1.1888038 2.6478795 2.2625621 5.4108843 3.2212748 8.173889.2300911.614001.4218336 1.2663772.6519247 1.8803782.2684395.8442515.5368791 1.6501278.8053187 2.4943793.1917425.614001.3834851 1.2663772.5752276 1.8803782.8820158 3.0316302 1.648986 6.0632604 2.3392591 9.0948906.1533941.614001.2684396 1.2663772.4218336 1.8803782.1917426.8442515.3451366 1.6885029.4985307 2.5327544.1150455.614001.230091 1.2663771.3451366 1.8803782.5752276 3.0700052 1.0354097 6.1400105 1.4572433 9.0948906.0766971.5372509.1533941 1.0361267.2300911 1.5733777.076697.0767501.1150455.1918753.1150455.3070005z" fill="#feca55"/><g fill="#fff"><path d="m11.504553 39.104192c-.6902732-5.9481352-1.3421979-11.8962704-2.03247105-17.8444056-.03834851-.3070005-.49853063-.3070005-.46018212 0 .69027318 5.9481352 1.34219787 11.8962704 2.03247107 17.8444056z"/><g transform="translate(0 7.675013)"><path d="m47.9739859 63.5107338h-44.67601405c-.03834851-.575626-.11504553-1.189627-.15339404-1.8803782h44.59931709c.076697.5372509.153394 1.0361268.230091 1.5733777-.0383485.0767501 0 .1918753 0 .3070005z"/><path d="m45.3662873 48.1223325h-43.37216478c-.03834851-.6140011-.07669702-1.2280021-.15339404-1.8803783h43.10372512c.1533941.6140011.3067881 1.2280021.4218337 1.8803783z"/><path d="m46.248303 52.49709h-43.90904389c-.03834851-.6140011-.11504553-1.2280021-.15339404-1.8803783h43.67895283c.153394.6523762.2684396 1.2663772.3834851 1.8803783z"/><path d="m23.7377276 1.95712835h-23.00910591c.11504553-.65237611.26843957-1.30475223.46018212-1.88037822h20.63149839c.6519246.61400105 1.3038493 1.22800211 1.9174254 1.88037822z"/><path d="m27.6492757 6.33188585h-27.2657906c.03834851-.65237612.03834851-1.26637717.07669702-1.88037822h25.61680468c.5368791.61400105 1.0354097 1.26637717 1.5722889 1.88037822z"/><path d="m35.2806291 18.2665313h-34.897144c0-.6523761-.03834851-1.2663772-.03834851-1.8803782h33.93843131c.3451366.614001.6519246 1.2663771.9970612 1.8803782z"/><path d="m37.3897972 22.6796639h-36.89126657c-.03834851-.6140011-.03834851-1.2663772-.07669702-1.8803783h36.08594789c.306788.6140011.6135761 1.2280021.8820157 1.8803783z"/><path d="m41.2629967 32.7339311h-40.26593544c-.03834851-.6140011-.07669702-1.2663772-.11504553-1.8803782h39.72905627c.2300911.614001.4601821 1.2280021.6519247 1.8803782z"/></g></g></g><g transform="translate(318.88608 222.234637)"><g transform="translate(0 .767501)"><path d="m79.9566432.72912625c-.230091-.57562599-17.7937086-1.22800211-23.4692881-.07675013l.3834851 4.06775697c-19.250952.30700052-31.7525662 3.64563125-38.885389 6.44701101-4.6785183 1.1128769-12.30987173 2.6095045-14.41903978 4.9887586-2.49265314 2.8397549-4.44842715 4.5666328-2.53100165 6.3702609-.23009106.4221257.61357616 2.1490037 1.5339404 1.6885029-.19174255.3070005.38348509 1.2280021 1.87907698 1.3047522 1.11210679.9593767 3.41301739-.3070005 4.75521523-2.340879 1.18880382-.3453756 2.60769872-.614001 3.71980542-2.0722535 0 0 5.5988825 2.7246296 12.6550083-1.3047523 0 0 14.8025249 8.0587638 43.7939984 5.4108843 18.1004967-1.6501278 16.2214197-10.1310174 10.5841887-24.48329195z" fill="#952c28"/><path d="m59.2867964 4.83525829c-.5368792-.07675014-1.1121068-.15350027-1.648986-.2302504-.306788-.03837506-.4218336.42212572-.1150455.46050079.5368791.07675013 1.1121068.15350026 1.6489859.23025039.3067881.03837507.4218336-.42212572.1150456-.46050078z" fill="#fff"/><g fill="#000"><path d="m8.39832368 19.9550342c-1.49559189 1.4198774-2.76109272 3.0700053-3.75815398 4.8736333-.15339404.2686255.26843957.4988759.42183361.2302504.99706126-1.765253 2.22421358-3.3770057 3.68145695-4.7585081.23009106-.2302504-.11504552-.575626-.34513658-.3453756z"/><path d="m6.44254967 18.113031c-1.64898593 1.6501279-2.87613825 3.5688812-3.68145695 5.7562599-.11504553.2686255.34513658.4221257.46018211.1151252.7669702-2.1106286 1.95577401-3.9910068 3.56641143-5.5643845.23009106-.1918754-.11504553-.537251-.34513659-.3070006z"/><path d="m5.48383692 16.5012783c-2.68439569.4988758-3.64310844 3.1467554-4.37173013 5.4492593-.07669702.3070005.3834851.4221257.46018212.1151252.65192467-2.1490037 1.53394039-4.6433829 4.02659354-5.1038837.30678808-.0383751.15339404-.4988759-.11504553-.4605008z"/></g></g><path d="m87.1278146 2.18737875h-41.3780422c-.0383486-.61400105-.0766971-1.26637717-.1150456-1.88037822h40.9562086c.1533941.65237611.3451366 1.26637717.5368792 1.88037822z" fill="#fff"/></g><g transform="translate(354.25 82.798077)"><path d="m13.1483236 0h-12.67164721c-.63556852 0-.63556852 1.04807692 0 1.04807692h12.67164721c.6355685 0 .6355685-1.04807692 0-1.04807692z" fill="#003865"/><path d="m9.08653846 4.19230769h-8.76923077c-.42307692 0-.42307692 1.04807693 0 1.04807693h8.76923077c.46153846 0 .46153846-1.04807693 0-1.04807693z" fill="#003865"/><g transform="translate(6.288462 4.716346)"><path d="m33.2064533 16.5021103c0 11.0409802-7.3266908 16.4625369-16.3865772 16.4625369-9.05988643 0-16.70170367-7.3606536-16.70170367-16.4625369 0-9.10188339 7.64181724-16.46253689 16.70170367-16.46253689 9.0598864 0 16.3865772 7.3606535 16.3865772 16.46253689z" fill="#6c9cdb"/><g fill="#fff"><path d="m7.208518 12.980077h3.111874v13.811119h-3.111874z"/><path d="m12.13237 18.322487h3.111874v8.429135h-3.111874z"/><path d="m17.01683 7.08364h3.111874v19.667983h-3.111874z"/><path d="m21.901291 10.170365h3.111874v16.581257h-3.111874z"/></g></g></g><g transform="translate(334.336538 193.894231)"><path d="m63.0499347 100.290958h-58.0883781c-.7633164 0-1.41213534-.6129316-1.41213534-1.4174045 0-.7661647.61065312-1.4174047 1.41213534-1.4174047h58.0883781c6.7171843 0 12.518389-4.5586799 14.1595192-11.109388l21.0293669-85.00597259c.1908291-.76616469.9541455-1.22586351 1.7174619-1.03432233.7633163.19154117 1.2213063.95770586 1.0304773 1.72387055l-21.029367 85.00597257c-1.9846227 7.8148799-8.9308019 13.254649-16.9074583 13.254649z" fill="#d4d4d4"/><g fill="#d24a43"><path d="m12.0603991 99.2566359c-3.89291361 25.1685101-7.82399308 50.2987121-11.71690672 75.4672221-.26716074 1.762179 2.44261248 2.528344 2.70977322.766165 3.93107947-25.39836 7.9003247-50.796719 11.8314042-76.1567707-.9541455 0-1.8701252-.0383082-2.8242707-.0766164z"/><path d="m82.5526687 175.030324c-4.0837427-26.0496-8.1674855-52.099199-12.2512282-78.1487987-.839648.4596988-1.7174619.8044729-2.6716074 1.1109388 4.0455769 25.7048259 8.052988 51.4479589 12.0985649 77.1527849.3053266 1.800487 3.1295973 1.685562 2.8242707-.114925z"/></g></g><g transform="translate(305.514423 208.567308)"><path d="m14.2753028 39.5379673c-5.21892788-12.3389019-8.05863866-18.680257-13.27756658-31.01915889-.23024682-.53481308-1.1512341-.30560748-.92098728.26740654 5.21892792 12.33890185 8.0586387 18.68025705 13.27756666 31.01915885.2686213.5348131 1.1896085.3056075.9209872-.2674065z" fill="#000"/><path d="m48.0832109 39.5379673h-33.6927846c-.6139916 0-.6139916.9550234 0 .9550234h33.6927846c.6139916-.038201.6139916-.9550234 0-.9550234z" fill="#000"/><g fill="#feca55"><path d="m11.9344602.30560748-5.0270556 6.87616822c-.34537023.49661215.46049364.95502337.80586387.45841122 1.68847668-2.29205608 3.33857893-4.58411215 5.02705553-6.87616823.3453703-.45841121-.4604936-.91682243-.8058638-.45841121z"/><path d="m14.8892944 6.68516355-6.29341312 3.43808415c-.53724258.3056074-.03837447 1.1078271.46049364.8022196l6.29341308-3.43808412c.5756171-.26740654.0767489-1.06962617-.4604936-.80221963z"/></g></g><path d="m210.505637 202.917038h7.852916v18.987435h-7.852916z" fill="#697ccc"/><path d="m200.775683 207.559256h7.852916v18.987435h-7.852916z" fill="#697ccc"/><path d="m220.197284 212.848342h7.852916v18.987435h-7.852916z" fill="#bcd7fd"/><g transform="translate(192.846154 207.749511)"><g fill="#feca55"><path d="m55.4683986.22830583c-1.5705831 2.16890538-3.1411663 4.37586174-4.7117494 6.54476713-.3447621.49466263.4596829.95127429.804445.45661166 1.5705832-2.16890539 3.1411663-4.37586175 4.7117494-6.54476713.383069-.49466263-.4596829-.95127429-.804445-.45661166z"/><path d="m60.3333755 8.14290794c-2.2984143 1.331784-4.5968286 2.70161896-6.8952429 4.03340296-.5362967.3044078-.0383069 1.1034782.4596829.7990704 2.2984143-1.331784 4.5968286-2.701619 6.8952429-4.03340296.5362966-.30440777.0766138-1.10347818-.4596829-.7990704z"/><path d="m46.0448999 1.56008984c-.3064552 1.02737623-.6129105 2.09280344-.9576726 3.12017967-.1915345.57076458.7278312.83712138.9193657.26635681.3064552-1.02737624.6129105-2.09280345.9576726-3.12017968.1532277-.57076458-.7661381-.83712138-.9193657-.2663568z"/></g><g transform="translate(0 9.132233)"><path d="m55.7365469 34.5883332h-47.27072088l-8.23598459-34.3219764h47.27072087z" fill="#000"/><path d="m64.9302041 31.3920516h-33.6334626c-.6129105 0-.6129105.9512743 0 .9512743h33.6334626c.6129105-.038051.6129105-.9512743 0-.9512743z" fill="#000"/><g fill="#fff"><path d="m20.6474218 18.4166703c-.9576726-1.6361918-1.9536521-3.2723836-2.9113247-4.9466263-.3064553-.5327136-1.1109003-.038051-.8044451.4566116.9576727 1.6361918 1.9536522 3.2723836 2.9113248 4.9466263.3064553.5327136 1.1109003.076102.804445-.4566116z"/><path d="m23.3289052 18.4927722c-.9576726-1.5600898-1.8770384-3.1201796-2.834711-4.6802695-.3064552-.5327136-1.1109002-.038051-.804445.4566117.9576726 1.5600898 1.8770384 3.1201797 2.834711 4.6802695.3064552.5327136 1.1492071.0761019.804445-.4566117z"/></g></g></g><g transform="translate(95.208862 191.672784)"><path d="m70.8244031 56.5914187-22.9700767-1.3410288-47.50977525-2.758688 2.48842497-40.767278 13.62891218-6.05378749 11.7530226-5.24917019c1.416488-.03831511 2.7946926-.11494533 4.0197634-.15326044 16.0790536-.689672 18.7588959-1.45597422 26.0327535 18.04641722 7.886393 21.0349959 12.5569753 38.2767957 12.5569753 38.2767957z" fill="#6c9cdb"/><g fill="#fff"><path d="m45.7870195 37.318918-.9570865 7.2415559c-.0382835.3065209.4211181.3065209.4594015 0l.9570865-7.2415559c.0382835-.3065209-.421118-.3065209-.4594015 0z"/><path d="m47.739476 27.7784554c-.8039527-4.3679227-2.0673069-8.6209-3.7134957-12.7589319-.1148504-.2682058-.5742519-.1532605-.4594015.1149453 1.3782046 3.44836 2.4884249 6.9733502 3.2540942 10.6132857.421118 1.8774404.7656692 3.793196.9953699 5.7089515.2297008 1.9923858.2297008 4.2912924-1.6461888 5.517376-.2679842.1532604 0 .5747266.2297008.4214662 3.1775273-2.069016 1.914173-6.6285142 1.3399211-9.6170928z"/><path d="m51.0701371 33.3724616c-2.6415588 2.4138519-4.0580468 5.8622119-3.8666295 9.4255172 0 .3065209.497685.3065209.4594015 0-.1914173-3.4483599 1.1485038-6.7817746 3.7134957-9.1189964.2297008-.1915755-.0765669-.4980964-.3062677-.3065208z"/></g></g><g transform="translate(148.422873 225.390081)"><path d="m16.3853214 11.8776844c2.0673069-1.8774405 3.8666295-4.59781334 1.8758896-7.20324087-.8039527-1.07282311-1.99074-1.83912533-3.3306612-2.41385199-2.3352911-1.45597421-4.93856645-2.41385198-7.77154257-1.7624951-2.64155882.57472666-6.12535378 3.8698262-6.66132223 6.43693863-.68910231 1.7624951 1.60790536 2.56711242 2.29700766 4.40623773 4.59401534.0766302 9.11146374-.1532604 13.59062874.5364116zm-10.98735338-5.44074578c.45940153-.42146621.91880307-.88124755 1.41648806-1.30271376h.03828346c.03828346.26820577.07656692.53641155.07656692.80461732-.11485038.95787778-.34455115 1.87744044-.65081884 2.75868799-.11485038.15326044-.22970076.34483599-.30626768.49809644-.22970077-.88124755-.61253538-1.7624951-.91880307-2.56711243.11485038 0 .22970077-.07663022.34455115-.19157556z" fill="#ffa79b"/><g fill="#d24a43"><path d="m10.7193691 5.70895152c-.6891023 1.57091954-1.33992112 3.14183909-2.02902342 4.71275868-.11485039.2682057.26798422.4980964.42111807.2298906.6891023-1.57091953 1.33992115-3.14183907 2.02902345-4.71275862.1148504-.26820577-.2679842-.49809644-.4211181-.22989066z"/><path d="m13.8203295 6.93503507c-.6891023 1.30271377-1.3399212 2.60542753-2.0290235 3.90814133-.1531338.2682057.2679843.4980964.4211181.2298906.6891023-1.30271373 1.3399211-2.6054275 2.0290234-3.90814127.1148504-.26820577-.3062676-.49809644-.421118-.22989066z"/><path d="m17.1509906 7.43313151c-.6508189 1.30271377-1.3399212 2.64374269-1.99074 3.94645639-.1531338.2682058.2679842.4980965.4211181.2298907.6508188-1.3027138 1.3399211-2.64374266 1.99074-3.94645643.1531338-.26820577-.2679843-.49809644-.4211181-.22989066z"/></g></g><g transform="translate(153.399723 215.428152)"><path d="m4.24946419 3.21846931c-.07656693.45978133-.11485039.91956266-.19141731 1.37934399-.03828346.15326045-.03828346.30652089-.07656692.45978133-.57425192 4.36792264-1.14850384 8.73584527-1.72275575 13.10376787-.497685.7663023-.95708653 1.5326045-1.33992114 2.2989067-.22970077-.9961929-.53596846-1.9923858-.91880307-2.9502635.53596846-4.138032 1.07193691-8.31437909 1.64618883-12.45241107.03828346-.15326044.03828346-.30652088.07656692-.45978133.03828346-.45978133.11485038-.91956266.19141731-1.37934399.07656692-.53641155.42111807-.88124755.84223614-1.03450799.30626769-.11494533.65081884-.11494533.95708653 0 .34455115.15326044.61253538.49809644.53596846 1.03450799z" fill="#2252b2"/><path d="m2.98610997.61304177c-.19141731 1.26439866-.34455115 2.52879732-.53596846 3.79319598-.07656692.61304177.84223615.80461733.91880307.19157555.1914173-1.26439866.34455115-2.52879731.53596846-3.79319597.07656692-.61304178-.84223615-.80461733-.91880307-.19157556z" fill="#2252b2"/><path d="m4.05804688 4.5978133c-.03828346.15326045-.03828346.30652089-.07656692.45978133h-2.33529113c.03828346-.15326044.03828346-.30652088.07656692-.45978133z" fill="#000"/></g><g transform="translate(79.129808 192.055935)"><path d="m68.412545 57.4726663h-68.29769462c.61253538-5.9771573-.61253538-24.1385199 4.40259803-41.6868406 3.98147996-13.98501549 8.38407799-15.4409897 24.65454899-15.59425015 4.1728972-.03831511 9.1497472 0 15.1219671-.07663022l-6.9293064 12.68230167-13.782046 25.2496581c12.9780933 2.1073311 31.8135562 12.0692599 40.3124845 16.8586488 2.8329761 1.5709195 4.5174484 2.5671124 4.5174484 2.5671124z" fill="#6c9cdb"/><path d="m68.412545 57.4726663s-18.2229275-10.9964368-34.3019811-16.6287581c-4.6322988 4.6744435-7.8481096 10.5749706-10.7193692 16.6287581z" fill="#ffa79b"/><g fill="#fff"><path d="m32.8854931 40.0009757c-2.6798423-1.1877684-5.4745349-2.1456462-8.3457945-2.7970031-.1531339-.0383151-.3062677-.0766302-.4594016-.1149453-2.0673069-.4597813-4.1346138-.8046173-6.2784876-.9961929-.3062677-.0383151-.3062677-.4980964 0-.4597813 2.1055904.1915756 4.2111807.4980964 6.2402042.9578778.1531338.0383151.3062677.0766302.4594015.1149453 2.9478265.689672 5.8190861 1.6475498 8.5754953 2.8736333.3445512.1149454.0765669.5364116-.1914173.4214662z"/><path d="m24.577982 37.1656575c-.1531338-.0383151-.3062676-.0766302-.4594015-.1149453 0-.1532604 0-.3065209 0-.4980964-.1914173-5.4790609-.3828346-10.9581217-.5742519-16.4371826 0-.3065209.4594015-.3065209.4594015 0 .1914173 5.517376.3828346 11.0347519.5742519 16.5138128-.0382834.2298906 0 .3831511 0 .5364115z"/></g></g><g transform="translate(101.334215 161.403846)"><path d="m26.147604 30.5754585-4.97685 22.0311887-5.9722199-9.1956266-4.8619996-7.4331315-3.36894457-5.17254c4.17289727-.0383151 9.14974717 0 15.12196717-.0766302 1.4547715-.0383151 2.7946926-.0766302 4.0580469-.1532604z" fill="#ffa79b"/><path d="m26.0327536 24.0235745c-.3445512.3065209-4.1728973 16.1689768-4.1728973 16.1689768l-12.86324293-6.8584049 8.42236143-13.1803981z" fill="#ffa79b"/><path d="m24.654549 28.7746483c.6508188-2.6054276 1.2250707-4.6744436 1.3399211-4.7893889l-3.2158107-1.4559742c-.1914173 2.2605915.3828346 4.7893888 1.8758896 6.2453631z" fill="#000"/><path d="m5.43625148 13.0271377c-.45940153-3.71656576 4.63229882-8.35269417 8.99661332-9.5021475 1.9141731-.49809644 2.1438739-2.1073311 3.2540942-.91956266 2.7181258 2.91194842 11.5616053 12.41409596 11.7147391 15.63256526.2297008 5.6706364-6.316771 7.8162826-10.9873533 6.3603084-4.7854326-1.4559742-12.36555794-6.2453631-12.97809332-11.5711635z" fill="#ffa79b"/><path d="m22.663809 27.2037287c.7273857-5.0959097-4.900283-12.4907261-4.8237161-13.4102888.497685-2.8353182-1.493055-5.17253996-3.483795-6.51356884 1.4164881-.11494533 3.9431965-3.02689375 3.8283461-4.71275863-.3445511-2.41385199-1.8758896-2.64374265-2.5267084-2.52879732-1.5313384.30652089-2.98611 1.95407065-3.7900627 3.48667509-.4976849-.11494533-1.0336534-.07663022-1.6079053.19157555-2.6798423 1.34102888-5.32140111 3.75488087-6.08707034 6.78177465-.11485038.4980964-.1914173.9961929-.1914173 1.4942893-1.22507076 1.4176591-1.76103921 3.2567844-.99536999 5.2874853v.0383151c-.61253538.344836-1.1867873.7663022-1.64618883 1.3410289-1.07193691 1.3027138-1.41648806 3.103524-.88051961 4.7127586.30626769.8812476.80395269 1.6092347 1.41648807 2.1456462-.53596846 2.5671125.1914173 5.2874853 2.7564092 6.6285142 1.03365345.5364116 2.22044074.6513569 3.29237765.4214662.80395269 2.1456462 3.33066115 3.44836 5.62766875 2.6820578.7656693-.2682058 1.3782046-.6513569 1.8376062-1.1877684 2.5267084 1.1877684 6.2784876.1532604 7.5035584-2.5287974.6891023-1.379344.5742519-3.0652088-.2297008-4.3296075z" fill="#d24a43"/><path d="m14.0500302 18.8510345c-.7656692-1.9923857.8805196-4.9043341 3.8283461-5.0192795 1.569622 1.6858649 3.2158108 3.3334147 4.8619996 4.9809644-.5359684 1.2260836-2.411858 2.9502636-4.2877476 3.0652089-2.1438739.1149453-3.5603619-.8812475-4.4025981-3.0268938z" fill="#ffa79b"/><path d="m24.7693993 9.04236616c-.6508188-.61304177-1.6844722-.45978133-2.1821572.22989067-.1531339.22989066-.0382835.57472666.1914173.72798707.0382834 0 .0382834 0 .0765669.0383151-.0382835.0766303-.0765669.1532605-.1148504.2298907-.2297008.6130418.7656692.9195627.99537.3065209 0 0 .0382835-.0383151 0 .0383151-.2297008.4214662.2297008.9961929.6891023.7279871.8039527-.4597813 1.0336534-1.64754975.3445511-2.29890664z" fill="#ffa79b"/><path d="m19.2182975 7.08829551-.5742519 1.0728231c-.3062677.53641156.5359684.99619289.8039527.45978133.1914173-.34483599.3828346-.68967199.5742519-1.0728231.2679842-.49809644-.5359685-.99619288-.8039527-.45978133z" fill="#952c28"/><path d="m19.1034471 17.4716906c-.7273858.1532604-1.493055.3065208-2.2204407.4597813-.3062677.0766302-.1531339.4980964.1148503.4597813.7273858-.1532604 1.493055-.3065209 2.2204408-.4597813.3062677-.0766302.1914173-.5364116-.1148504-.4597813z" fill="#d24a43"/><path d="m25.7647693 16.8203337c-.421118.3065209-.8805196.344836-1.3399211.1532604-.2679842-.1149453-.3828346.344836-.1148504.4597813.5742519.2298907 1.2250708.1532605 1.7227558-.1915755.1914173-.1915756-.0382835-.6130418-.2679843-.4214662z" fill="#d24a43"/><path d="m21.8981398 9.42551727c-.3828346-.30652088-.8039527-.61304177-1.1867873-.91956266-.2297008-.19157555-.5742519.15326044-.3445512.344836.3828346.30652089.8039527.61304177 1.1867873.91956266.2297008.19157555.5742519-.15326044.3445512-.344836z" fill="#000"/></g><g transform="translate(82.192485 250.294903)"><path d="m85.678386 119.006734c-.1914173-1.762495-1.3016377-7.663022-7.1590072-9.540462-6.393338-2.030701-11.7913061 1.72418 2.6032753-34.7901209-3.6369288-.4980965-7.2738576-1.1494534-10.9107864-1.8391254-4.1346138-.8046173-8.2309441-1.5709195-12.4038414-2.1839613-1.0719369-.1532604-2.1821573-.3065209-3.2540942-.4980964-2.2970077 10.383395-4.0963303 26.0542754-3.3306611 48.851766z" fill="#ffa79b"/><path d="m136.250838 119.006734c-2.909543-11.341272-8.766912-7.318186-17.610392-12.529041-4.211181-2.490482-5.397968-18.7360891-6.85274-36.8974517-8.690345 1.9923858-17.5721082 3.3334147-26.1858869 5.6706364 5.6276688 19.3108159 12.1358572 39.2346733 13.5906287 43.7558563z" fill="#ffa79b"/><path d="m68.1828443 13.6784946c-15.9642033-1.2643987-15.9642033-1.2643987-15.9642033-1.2643987l2.2587242-12.37578079h-52.94602675c-3.0626769 41.07379889-6.35505455 48.43030009 45.97843685 45.59498189l12.8632429-.9578777s-6.891023 16.6287581-10.1834007 29.3110598c8.3457946.7663022 30.7799028 5.900527 31.0096036 6.1304177 1.4930549-3.8698262 21.0941869-63.7563445-13.0163768-66.4384022z" fill="#0083f9"/><path d="m18.0315102 11.3029577c4.7854326-2.98857864 9.302881-6.78177462 12.8632429-11.26464259h-29.36341465c-.497685 6.47525374-.95708653 12.10757499-1.22507076 17.01190919 6.2019207.0766303 12.44212491-2.4521671 17.72524251-5.7472666z" fill="#000"/><path d="m85.678386 119.006734c-.1914173-1.762495-1.3016377-7.663022-7.1590072-9.540462-1.3782046-.459782-2.7181258-.613042-3.8283461-.957878-2.98611.689672-5.9339365 1.609235-9.0348969 2.145646-3.0626769.536412-6.0487868.536412-9.1497472.268206-1.8376061-.15326-3.6369288-.344836-5.4745349-.344836 0 2.720373.0765669 5.517376.1914173 8.467639h34.455115z" fill="#952c28"/><path d="m114.544116 72.6071351c-2.488425-16.3222372-5.512819-31.9548025-8.460645-43.9091171-5.321401-21.6480376-18.7971796-18.8127194-59.6839161-22.87412115 0 0 14.5859987 23.52547805 30.2439343 31.03523975-.1531339 5.8238969 2.1821573 24.2917803 7.3504245 41.8784162 0 0 22.0512733-4.3679226 30.5502023-6.1304177z" fill="#0083f9"/><path d="m136.250838 119.006734c-2.832976-11.034752-8.422361-7.548077-16.844723-12.107575-3.254094 1.49429-6.316771 3.410045-9.800566 4.291293-4.287747 1.111138-8.613779.15326-12.9398097.038315 1.1867873 3.67825 2.0673069 6.398623 2.5267085 7.777967z" fill="#952c28"/><g fill="#fff"><path d="m97.2782747 20.0771181c-1.2633542-2.9502635-3.6369288-5.4407458-6.8527395-6.207048-.3062677-.0766302-.4211181.3831511-.1148504.4597814 3.1392438.7663022 5.4745349 3.2567844 6.6613222 6.245363 1.3782046 3.44836 1.0719369 7.3181862.3828346 10.9198066-1.3399211 7.2032409-3.5603618 14.2915364-6.2019207 21.1116261-1.5313384 3.9847715-3.2540942 7.8929129-5.1299837 11.7244239-.1148504.2682058.2679842.4980965.421118.2298907 3.5220785-7.1266106 6.4316215-14.521427 8.6903457-22.1461341 1.1485038-3.9081413 2.2204407-7.8545977 2.8712596-11.8776843.5359684-3.4866751.6508188-7.1649258-.7273858-10.4600253z"/><path d="m51.5678221 6.62851418c-3.6369288-.07663022-7.312141-.11494533-10.9490698-.19157556-.3062677 0-.3062677.45978134 0 .45978134 3.6369288.07663022 7.312141.11494533 10.9490698.19157555.3062677 0 .3062677-.45978133 0-.45978133z"/><path d="m62.0574905 41.7251557c-.4211181.5364116-.8422362 1.034508-1.2633542 1.5709196-.1914173.2298906.1531338.5747266.3445511.344836.4211181-.5364116.8422362-1.034508 1.2633542-1.5709196.1914173-.2682057-.1531338-.5747266-.3445511-.344836z"/></g></g><g transform="translate(118.956731 219.572115)"><g fill="#d24a43"><path d="m18.8563272 11.6491606c-2.0230473-2.2767089-4.0460945-4.55341781-6.0691418-6.83012673-.381707-.45534178-1.0687797.22767089-.6489019.64506753 2.0230472 2.27670891 4.0460945 4.5534178 6.0691417 6.8301267.381707.4553418 1.030609-.1897257.648902-.6450675z"/><path d="m28.3226614.49328693c0-.60712238-.9542675-.60712238-.9542675 0 .1145121 4.09807605.2290242 8.15820695.381707 12.25628297 0 .6071224.9542676.6071224.9542676 0-.1145121-4.09807602-.2290242-8.19615207-.3817071-12.25628297z"/><path d="m15.1919397 13.3946375-5.1912156-4.0221858c-.45804841-.37945148-1.14512106.30356119-.64890193.6450675l5.19121553 4.0221858c.4580485.3794515 1.1451211-.2656161.648902-.6450675z"/></g><g transform="translate(0 15.936962)"><path d="m.26719492 14.039705h50.88154678l7.3669456-11.3835446c.648902-1.02451901-.0763414-2.35259921-1.2978039-2.35259921h-45.9575261c-1.33597458 0-2.59560777.68301267-3.32085113 1.78342198z" fill="#000"/><path d="m20.2686432 13.5843632c-2.3284129-2.3146541-4.6949965-4.66725328-7.0234093-6.98190734-.4198778-.41739664-1.1069504.22767089-.648902.64506752 2.3284129 2.31465407 4.6949964 4.66725332 7.0234093 6.98190732.381707.4173967 1.0687797-.2276709.648902-.6450675z" fill="#2252b2"/><path d="m61.3403193 13.5843632c-2.3284128-2.3146541-4.6949964-4.66725328-7.0234093-6.98190734-.4198777-.41739664-1.1069504.22767089-.6489019.64506752 2.3284128 2.31465407 4.6949964 4.66725332 7.0234093 6.98190732.4198777.4173967 1.0687797-.2276709.6489019-.6450675z" fill="#2252b2"/><path d="m9.35182217 2.23876377c-.91609686 1.51780594-1.83219373 3.03561189-2.74829059 4.55341783-.15268281.26561604.26719492.49328693.41987773.22767089l2.7482906-4.55341783c.15268281-.26561604-.26719492-.49328693-.41987774-.22767089z" fill="#fff"/></g></g><g fill="#bcd7fd" transform="translate(157.211538 86.990385)"><path d="m19.2731555.49735305-13.55263723 95.95088085c-1.30535316 9.1053871-2.57231358 18.2490311-3.87766675 27.3544181-.07678548.573869.80624754.841674.92142577.267805 4.53034332-31.9836268 9.02229391-63.9672537 13.55263721-95.9508807 1.3053532-9.1053866 2.5723136-18.24903114 3.8776668-27.35441776.0767855-.61212683-.8062476-.87993232-.9214258-.26780549z"/><path d="m4.06963045 124.376521c.07678548 1.032964-.84464028 1.874638-1.88124427 1.874638-1.03660398 0-1.88124426-.841674-1.88124426-1.874638s.84464028-1.874639 1.88124426-1.874639c1.07499673.038258 1.80445879.650385 1.88124427 1.874639z"/><g transform="translate(105.196108 21.807018)"><path d="m32.5954363 48.740599c.0767855 1.032964-.8446403 1.8746384-1.8812442 1.8746384-1.036604 0-1.8812443-.8416744-1.8812443-1.8746384 0-1.0329641.8446403-1.8746385 1.8812443-1.8746385 1.0366039 0 1.766066.6503848 1.8812442 1.8746385z"/><path d="m31.1365122 48.5493093c-10.0205052-16.0300714-20.0410103-32.0984007-30.09990822-48.1284721-.30714192-.49735305-1.1517822-.03825793-.80624754.45909512 10.02050516 16.03007138 20.04101036 32.09840068 30.09990826 48.12847208.3071419.535611 1.1133894.0765159.8062475-.4590951z"/></g><path d="m59.3167834 104.138077c.0767855 1.032964-.8446403 1.874639-1.8812443 1.874639-1.0366039 0-1.8812442-.841675-1.8812442-1.874639s.8446403-1.874638 1.8812442-1.874638c1.036604 0 1.7660661.650385 1.8812443 1.874638z"/><path d="m58.0114302 103.793756c-3.9544522-18.7846423-7.9089044-37.5692844-11.8633566-56.3539266-.1151783-.5738689-1.036604-.3443213-.9214258.2678055 3.9544522 18.7846422 7.9089045 37.5692843 11.8633567 56.3539261.1151782.573869 1.036604.306064.9214257-.267805z"/></g><g transform="translate(184.461538 229.004808)"><path d="m4.760219 6.707692h11.371635v14.253846h-11.371635z" fill="#feca55"/><path d="m6.68697451 17.6076923c-2.19121199 1.8674825-4.91133721-.1143357-5.3269119-2.5534965-.41557468-2.3248252 1.51118068-6.02167832 4.19352639-4.0398601.49113372.343007.94448792-.4573427.4533542-.8003497-3.28681798-2.40104894-6.12028175 1.9055944-5.59136851 4.9926574.56669275 3.2395104 4.15574687 5.4118881 6.91365161 3.0870629.4533542-.4192308-.18889759-1.0671329-.64225179-.686014z" fill="#feca55"/><g fill="#bcd7fd"><path d="m9.14264311 1.06713287c.45335421-.41923077-.2266771-1.06713287-.64225179-.6479021-1.51118068 1.41013986-1.54896019 3.88741259-.11333855 5.37377622.41557469.41923077 1.05782648-.22867133.64225179-.64790209-1.09560599-1.14335665-1.05782647-3.01083917.11333855-4.07797203z"/><path d="m11.2582961 1.25769231c.4533542-.41923077-.2266771-1.06713287-.6422518-.6479021-1.5111807 1.41013986-1.54896022 3.88741259-.1133386 5.37377622.4155747.41923077 1.0578265-.22867133.6422518-.64790209-1.095606-1.18146854-1.0200469-3.01083917.1133386-4.07797203z"/></g></g><g transform="translate(0 103.235577)"><path d="m3.343365 0h65.714423v51.330117h-65.714423z" fill="#b2ccee"/><path d="m11.836282 34.053339h17.446987v7.041538h-17.446987z" fill="#fff"/><path d="m51.4570833 41.5566165h-18.4077243v-7.9650182h18.4077243zm-17.4469871-.9619588h16.5246794v-6.079579h-16.5246794z" fill="#003865"/><g fill="#fff" transform="translate(47.268269 37.708782)"><path d="m.19214744.0769567 1.1913141 8.04197485 6.34086538-4.27109669z"/><path d="m6.57144231 8.23436659c-.99916667-1.3467422-1.99833334-2.6934844-3.03592949-4.0402266-.34586538-.46174018-1.1913141 0-.80701923.46174019.99916667 1.3467422 1.99833333 2.6934844 3.03592949 4.0402266.34586538.50021853 1.15288461.03847835.80701923-.46174019z"/></g><path d="m11.836282 11.812853h45.269936v3.309138h-45.269936z" fill="#fff"/><path d="m51.9182372 19.3546093h-39.6208013c-.6148718 0-.6148718.9619587 0 .9619587h39.6208013c.6148718 0 .6148718-.9619587 0-.9619587z" fill="#003865"/><path d="m51.9182372 24.3183163h-39.6208013c-.6148718 0-.6148718.9619587 0 .9619587h39.6208013c.6148718 0 .6148718-.9619587 0-.9619587z" fill="#003865"/><path d="m65.2148397 7.00305944c-1.268173-1.2697855-2.5363461-2.50109266-3.7660897-3.77087816-.4227244-.42326183-1.1144551.23087009-.6533013.65413193 1.2681731 1.2697855 2.5363462 2.50109265 3.7660898 3.77087816.4227243.46174018 1.0760256-.2308701.6533012-.65413193z" fill="#000"/><path d="m61.44875 7.69566971c1.2681731-1.2697855 2.4979167-2.539571 3.7660897-3.77087816.4227244-.42326183-.2305769-1.1158721-.6533012-.65413192-1.2681731 1.2697855-2.4979167 2.539571-3.7660898 3.77087816-.4227243.42326183.2305769 1.07739376.6533013.65413192z" fill="#000"/><path d="m10.2991026 49.8294614c.2305769 2.8473978-2.30576927 5.1560987-5.14955132 5.1560987s-5.14955128-2.3087009-5.14955128-5.1560987 2.30576923-5.1560987 5.14955128-5.1560987 4.84211539 1.7315257 5.14955132 5.1560987z" fill="#697ccc"/><path d="m57.1062179 5.50240385c.1152885 1.2697855-1.0375961 2.34717926-2.3441987 2.34717926-1.3066025 0-2.3441987-1.03891541-2.3441987-2.34717926 0-1.26978551 1.0375962-2.34717927 2.3441987-2.34717927 1.3066026 0 2.1904808.80804532 2.3441987 2.34717927z" fill="#fff"/><path d="m4.68839744 47.7131522v4.2326184c0 .6156536.96073718.6156536.96073718 0v-4.2326184c-.03842949-.6156535-.96073718-.6156535-.96073718 0z" fill="#dee7ff"/></g><g fill="#697ccc" transform="translate(72.841346 369.447115)"><path d="m209.735615.06987179h-209.122689c-.612926 0-.612926.87339744 0 .87339744h209.122689c.574618 0 .574618-.87339744 0-.87339744z"/><path d="m362.392496.06987179h-146.106234c-.612926 0-.612926.87339744 0 .87339744h146.106234c.612926 0 .612926-.87339744 0-.87339744z"/></g><g transform="translate(173.980769 37.730769)"><path d="m10.232335 11.501255h116.666894v84.068696h-116.666894z" fill="#0b7a76"/><path d="m20.2819502 80.6913438c-.1827202 0-.4568006-.0912798-.6395209-.1825596-.5481608-.3651192-.639521-1.0953576-.2740804-1.5517566l12.6076988-17.9821208c.2740804-.3651192.8222412-.5476788 1.2790419-.456399l25.5808381 8.1239023 28.6870828-41.6235891c.3654405-.456399 1.0049615-.6389586 1.5531223-.2738394l18.5461072 11.6838145 6.48657-3.1035133c.548161-.2738394 1.187682 0 1.461762.5476789.274081.5476788 0 1.1866374-.548161 1.4604768l-7.03473 3.3773526c-.365441.1825596-.730881.1825596-1.096322-.0912798l-18.0893066-11.4099751-28.5957226 41.4410295c-.2740804.3651192-.8222413.5476788-1.2790419.456399l-25.5808382-8.1239023-12.1508981 17.2518824c-.1827203.2738394-.5481608.456399-.9136014.456399z" fill="#fff"/><path d="m114.839691 79.3221468h-23.8449953c-1.4617622 0-1.4617622 2.281995 0 2.281995h23.8449953c1.461762-.0912798 1.461762-2.281995 0-2.281995z" fill="#fff"/><path d="m114.839691 86.2594116h-23.8449953c-1.4617622 0-1.4617622 2.281995 0 2.281995h23.8449953c1.461762 0 1.461762-2.281995 0-2.281995z" fill="#fff"/><path d="m1.18768177 30.1223342c-.63952095 0-1.09632163-.456399-1.09632163-1.0953576v-26.56242198c0-.63895861.45680068-1.09535761 1.09632163-1.09535761h28.77844293c.6395209 0 1.0963216.456399 1.0963216 1.09535761 0 .6389586-.4568007 1.0953576-1.0963216 1.0953576h-27.68212129v25.37578458c.09136013.7302384-.45680069 1.1866374-1.09632164 1.1866374z" fill="#2252b2"/><path d="m136.217963 31.3089716c-.639521 0-1.096322-.456399-1.096322-1.0953576v-27.65777958h-25.398117c-.639521 0-1.096322-.45639901-1.096322-1.09535761s.456801-1.09535761 1.096322-1.09535761h26.585799c.639521 0 1.096322.45639901 1.096322 1.09535761v28.66185739c0 .6389586-.548161 1.1866374-1.187682 1.1866374z" fill="#2252b2"/><g fill="#fff"><ellipse cx="19.994897" cy="78.552932" rx="3.561088" ry="3.561671" transform="matrix(.63801787 -.77002156 .77002156 .63801787 -53.249656 43.83126)"/><ellipse cx="32.674313" cy="62.2447" rx="3.561088" ry="3.561671" transform="matrix(.63801787 -.77002156 .77002156 .63801787 -36.102243 47.691395)"/><ellipse cx="58.737167" cy="69.859079" rx="3.561088" ry="3.561671" transform="matrix(.63801787 -.77002156 .77002156 .63801787 -32.531192 70.516624)"/><ellipse cx="88.537473" cy="28.368119" rx="3.561088" ry="3.561671" transform="matrix(.63801787 -.77002156 .77002156 .63801787 10.20492 78.444515)"/><ellipse cx="108.119605" cy="39.528535" rx="3.561088" ry="3.561671" transform="matrix(.63801787 -.77002156 .77002156 .63801787 8.699541 97.56305)"/><ellipse cx="116.809507" cy="35.341439" rx="3.561088" ry="3.561671" transform="matrix(.63801787 -.77002156 .77002156 .63801787 15.069285 102.738808)"/></g></g><g fill="#ff647c"><path d="m138.392619.300461h105.863139v10.711293h-105.863139z"/><path d="m138.392619 14.582185h79.397354v4.760574h-79.397354z"/></g><path d="m369.63727 249.442308h-290.6724998c-.1535512 0-.4222659 1.758517-.3454903 2.619832h.1151634 290.9028267c1.842614.035888 1.842614-2.619832 0-2.619832z" fill="#0b7a76"/></g></g></svg>