<?xml version="1.0" encoding="UTF-8"?>
<svg width="732px" height="732px" viewBox="0 0 732 732" version="1.1" xmlns="http://www.w3.org/2000/svg" xmlns:xlink="http://www.w3.org/1999/xlink">
    <title>Group 19</title>
    <g id="Blog" stroke="none" stroke-width="1" fill="none" fill-rule="evenodd">
        <g id="Group-19">
            <rect id="Rectangle" fill="#E6F1F1" x="0" y="0" width="732" height="732"></rect>
            <g id="Teammates-12" transform="translate(148.000000, 184.000000)" fill-rule="nonzero">
                <g id="Couch" transform="translate(4.000000, 163.000000)">
                    <rect id="XMLID_713_" fill="#0B7A76" x="0" y="93.1489362" width="111.78626" height="105.597021"></rect>
                    <path d="M99.0045802,12.0670213 L99.0045802,108.984255 L0,108.984255 L0,12.0670213 C0,5.46191489 5.42900763,0.0846808511 12.0977099,0.0846808511 L86.9068702,0.0846808511 C93.5755725,0.0846808511 99.0045802,5.41957447 99.0045802,12.0670213 Z" id="XMLID_711_" fill="#0B7A76"></path>
                    <path d="M8.46412214,9.86531915 L8.46412214,61.2665957 C8.46412214,61.8593617 9.40458015,61.8593617 9.40458015,61.2665957 L9.40458015,9.86531915 C9.40458015,9.27255319 8.46412214,9.27255319 8.46412214,9.86531915 Z" id="XMLID_90_" fill="#DEE7FF"></path>
                </g>
                <g id="Graphic" transform="translate(213.000000, 231.000000)" fill="#FF647C">
                    <rect id="XMLID_222_" x="37.2307692" y="14.4168539" width="6.55769231" height="24.3202247"></rect>
                    <rect id="XMLID_221_" x="27.8384615" y="22.2168539" width="6.55769231" height="16.5202247"></rect>
                    <rect id="XMLID_220_" x="0.253846154" y="22.2168539" width="6.55769231" height="16.5202247"></rect>
                    <rect id="XMLID_219_" x="18.4461538" y="0.306741573" width="6.55769231" height="38.4303371"></rect>
                    <rect id="XMLID_218_" x="9.05384615" y="6.61685393" width="6.55769231" height="32.1202247"></rect>
                </g>
                <g id="Man" transform="translate(17.000000, 123.000000)">
                    <g id="Head" transform="translate(51.779070, 0.000000)">
                        <path d="M0.254651163,37.5959955 L20.5418605,46.6972885 L23.4703488,42.6144655 L27.2052326,37.3833484 L33.6988372,28.3245848 L21.305814,19.8187035 C20.5418605,20.9244681 0.254651163,37.5959955 0.254651163,37.5959955 Z" id="XMLID_199_" fill="#FFA79B"></path>
                        <path d="M27.5447674,36.8729956 L33.6988372,28.3245848 L26.9081395,23.8589971 C25.8046512,27.9418202 25.9319767,32.8752313 27.5447674,36.8729956 Z" id="XMLID_198_" fill="#000000"></path>
                        <path d="M17.952907,8.3357637 C20.5843023,2.21152915 36.797093,1.06323517 38.325,7.44264616 C39.5133721,12.2059397 42.6540698,25.4325852 40.8715116,28.4096436 C37.2639535,34.40629 29.1151163,32.9602902 24.9133721,28.5372319 C20.669186,24.0716442 15.3639535,14.3749394 17.952907,8.3357637 Z" id="XMLID_197_" fill="#FFA79B"></path>
                        <path d="M27.4174419,8.59094014 C32.0436047,8.84611658 36.8395349,6.84723447 37.9005814,6.379411 C41.5081395,2.63682321 38.5372093,-2.04141152 30.8552326,1.40347042 C24.8709302,1.53105864 17.6133721,3.23223491 16.4674419,8.71852836 C13.1569767,15.2255276 17.4436047,16.0335863 19.2686047,20.0738799 C20.7540698,19.35088 20.669186,17.0117627 22.4517442,16.2887627 C25.0831395,15.1829982 26.1017442,14.2048218 27.4174419,8.59094014 Z" id="XMLID_193_" fill="#952C28"></path>
                        <path d="M36.0331395,19.0106448 C36.5424419,19.0106448 37.094186,19.0531742 37.6034884,18.8405271 C38.1552326,18.5853507 38.6645349,17.9048802 38.1552326,17.3519979 C37.9430233,17.1393509 38.2825581,16.7991156 38.4947674,17.0117627 C38.9616279,17.5221155 38.9616279,18.3301743 38.4523256,18.8405271 C37.8581395,19.5209977 36.8819767,19.5209977 36.0331395,19.5209977 C35.7360465,19.4784682 35.7360465,18.9681154 36.0331395,19.0106448 Z" id="XMLID_192_" fill="#D24A43"></path>
                        <path d="M31.5343023,13.3967631 C31.7040698,13.8220572 31.8738372,14.2048218 32.0436047,14.6301159 C32.2133721,15.05541 31.5343023,15.2255276 31.3645349,14.8002335 C31.1947674,14.3749394 31.025,13.9921748 30.8552326,13.5668807 C30.727907,13.1841161 31.3645349,13.0139984 31.5343023,13.3967631 Z" id="XMLID_191_" fill="#000000"></path>
                        <path d="M38.4098837,11.610528 C38.5796512,12.0358221 38.7494186,12.4185867 38.919186,12.8438808 C39.0889535,13.2691749 38.4098837,13.4392925 38.2401163,13.0139984 C38.0703488,12.5887044 37.9005814,12.2059397 37.730814,11.7806456 C37.5610465,11.397881 38.2401163,11.1852339 38.4098837,11.610528 Z" id="XMLID_190_" fill="#000000"></path>
                        <path d="M29.7517442,11.2277634 C30.1761628,11.0576457 30.6430233,10.8875281 31.0674419,10.7599399 C31.619186,10.5472928 31.9162791,11.4404104 31.322093,11.6530574 C30.8976744,11.823175 30.430814,11.9932927 30.0063953,12.1208809 C29.4546512,12.3335279 29.1575581,11.4404104 29.7517442,11.2277634 Z" id="XMLID_189_" fill="#952C28"></path>
                        <path d="M36.5424419,9.44152828 C36.9668605,9.27141065 37.4337209,9.10129302 37.8581395,8.9737048 C38.4098837,8.76105777 38.7069767,9.65417531 38.1127907,9.86682234 C37.6883721,10.03694 37.2215116,10.2070576 36.797093,10.3346458 C36.2453488,10.5472928 35.9482558,9.65417531 36.5424419,9.44152828 Z" id="XMLID_188_" fill="#952C28"></path>
                        <path d="M31.5767442,23.008409 C32.0860465,23.9015265 32.9348837,24.4969382 33.9534884,24.6245265 C34.2505814,24.6670559 34.2505814,25.1348793 33.9534884,25.0923499 C32.7651163,24.9647617 31.7465116,24.2842912 31.1523256,23.2635854 C31.025,22.9658796 31.4494186,22.7532326 31.5767442,23.008409 Z" id="XMLID_187_" fill="#D24A43"></path>
                        <path d="M16.1703488,18.5002919 C16.6796512,16.2037039 19.9052326,14.5875865 22.6215116,16.2887627 C23.0034884,18.7979977 23.4703488,21.3497621 23.9372093,23.8164677 C22.7063953,24.6245265 19.9901163,25.0072911 18.25,23.9440559 C16.2976744,22.7532326 15.6186047,20.9669975 16.1703488,18.5002919 Z" id="XMLID_186_" fill="#FFA79B"></path>
                        <path d="M19.6081395,18.8830566 C20.2872093,19.4784682 21.0087209,20.1164093 21.6877907,20.711821 C21.9,20.9244681 21.602907,21.2221739 21.3482558,21.0520563 C21.305814,21.0095269 21.2633721,20.9669975 21.2209302,20.9244681 C21.2209302,20.9244681 21.1784884,20.8819387 21.1784884,20.8819387 C20.5418605,20.3290564 19.9052326,19.7761741 19.2686047,19.2232918 C19.0139535,19.0106448 19.3534884,18.7129389 19.6081395,18.8830566 Z" id="XMLID_185_" fill="#D24A43"></path>
                    </g>
                    <g id="Body" transform="translate(5.093023, 31.471761)">
                        <path d="M63.3656977,73.9586382 C69.052907,56.1813462 83.5680233,4.33799948 60.5645349,0.425294067 C46.3040698,-1.99888211 28.9877907,13.8220572 13.2843023,44.655877 C8.44593023,54.1399347 3.65,65.0699922 0.169767442,75.7874027 C21.2633721,75.8724615 42.569186,76.6379908 63.3656977,73.9586382 Z" id="XMLID_184_" fill="#FFFFFF"></path>
                        <path d="M39.0465116,75.7448732 C40.6168605,66.8987567 42.4843023,58.0951695 44.3517442,49.2915823 C46.8982558,37.2982896 50.8877907,31.684408 53.519186,19.6911153 C42.1872093,26.9636438 31.6616279,32.3648785 28.902907,45.5915239 C26.5686047,56.7342285 29.4546512,67.4941684 36.2877907,75.7874027 C37.2215116,75.8299321 38.1127907,75.7874027 39.0465116,75.7448732 Z" id="XMLID_183_" fill="#D4D4D4"></path>
                    </g>
                    <g id="Legs" transform="translate(0.000000, 99.093517)">
                        <path d="M133.988953,128.141102 C126.986047,126.950279 123.63314,123.377809 125.161047,112.447751 C117.26686,113.93628 109.075581,113.553516 100.926744,113.723633 C100.672093,122.527221 100.629651,131.330808 100.714535,140.134395 L144.005233,140.134395 C144.047674,140.091866 144.981395,130.012396 133.988953,128.141102 Z" id="XMLID_209_" fill="#FFA79B"></path>
                        <path d="M136.535465,28.6648201 C120.407558,33.0028196 127.580233,41.3385833 113.15,48.9938765 C112.046512,51.8008173 111.027907,54.6077581 110.094186,57.4572284 C107.547674,64.9849334 105.510465,72.6402266 103.812791,80.3805786 C101.987791,91.1830479 101.308721,102.198164 100.969186,113.128222 C100.926744,114.616751 100.884302,116.10528 100.84186,117.593809 C108.82093,117.976574 118.794767,117.211045 126.773837,116.82828 C129.277907,106.748811 131.781977,97.6475177 139.973256,71.4919326 C147.230814,48.2708765 149.098256,32.7476431 136.535465,28.6648201 Z" id="XMLID_715_" fill="#1C3C55"></path>
                        <path d="M133.988953,128.141102 C131.060465,127.630749 128.811047,126.737632 127.240698,125.078985 C124.56686,125.887044 121.935465,126.695102 119.219186,127.333044 C115.951163,128.098573 112.725581,128.566396 109.330233,128.396279 C106.444186,128.26869 103.55814,128.013514 100.672093,127.885926 C100.672093,131.968749 100.672093,136.009042 100.714535,140.091866 L144.005233,140.091866 C144.047674,140.091866 144.981395,130.012396 133.988953,128.141102 Z" id="XMLID_207_" fill="#2252B2"></path>
                        <path d="M105.722674,128.141102 C97.7860465,126.780161 95.1122093,125.46175 101.308721,114.233986 C92.5656977,113.298339 83.7802326,112.320163 75.0796512,111.171869 C73.5093023,119.465103 72.1936047,129.03422 71.2598837,140.134395 L115.781395,140.134395 C115.781395,140.091866 116.715116,130.012396 105.722674,128.141102 Z" id="XMLID_182_" fill="#FFA79B"></path>
                        <path d="M70.877907,116.190339 C79.1116279,117.466221 90.5709302,118.95475 98.8895349,119.294986 C101.266279,113.340869 108.099419,102.963694 120.831977,84.0806369 C147.825,44.1029947 152.578488,28.3671142 124.906395,21.1371151 C97.2767442,13.907116 66.4639535,12.3335279 66.4639535,12.3335279 C66.4639535,12.3335279 66.5063953,12.1634103 66.6337209,11.8657045 C47.2377907,7.44264616 27.7145349,3.65752897 8.19127907,0.0850588133 C-2.75872093,28.8349377 -6.49360465,59.2009341 22.494186,59.2009341 C59.5459302,59.2009341 95.3668605,60.136581 95.3668605,60.136581 C93.2023256,63.5389335 77.5412791,75.1494616 70.877907,116.190339 Z" id="XMLID_710_" fill="#1C3C55"></path>
                        <path d="M27.6296512,48.1432883 C19.7354651,42.0615832 9.84651163,38.4040542 0.0848837209,35.8097604 C0.169767442,49.4616999 6.06918605,59.2009341 22.494186,59.2009341 C27.1203488,59.2009341 31.7465116,59.2009341 36.2453488,59.2434635 C33.7837209,55.2456992 30.8976744,51.5456409 27.6296512,48.1432883 Z" id="XMLID_181_" fill="#000000"></path>
                        <path d="M105.722674,128.141102 C102.539535,127.58822 100.205233,127.035338 98.9319767,125.887044 C95.9186047,126.567514 92.8627907,127.247985 89.8069767,127.673279 C85.9447674,128.226161 82.1674419,128.481337 78.2627907,128.056043 C76.352907,127.843396 74.4854651,127.503161 72.5755814,127.162926 C72.0662791,131.245749 71.5994186,135.541219 71.2174419,140.134395 L115.738953,140.134395 C115.781395,140.091866 116.715116,130.012396 105.722674,128.141102 Z" id="XMLID_180_" fill="#2252B2"></path>
                        <path d="M99.8656977,56.1388168 C98.7197674,57.2871108 97.5738372,58.4354047 96.427907,59.6262281 C96.2156977,59.8388752 96.5552326,60.1791104 96.7674419,59.9664634 C97.9133721,58.8181694 99.0593023,57.6698754 100.205233,56.479052 C100.417442,56.266405 100.077907,55.9261697 99.8656977,56.1388168 Z" id="XMLID_131_" fill="#FFFFFF"></path>
                        <path d="M138.657558,56.9468755 C134.455814,63.3688159 130.296512,69.7482269 126.094767,76.1701673 C125.925,76.4253438 126.349419,76.6805202 126.519186,76.4253438 C130.72093,70.0034033 134.880233,63.6239923 139.081977,57.2020519 C139.251744,56.9468755 138.827326,56.7342285 138.657558,56.9468755 Z" id="XMLID_130_" fill="#FFFFFF"></path>
                        <path d="M112.046512,129.672161 C111.749419,129.672161 111.749419,130.139984 112.046512,130.139984 C115.738953,129.969867 118.964535,133.244631 118.794767,136.944689 C118.794767,137.242395 119.261628,137.242395 119.261628,136.944689 C119.431395,132.989455 115.993605,129.502043 112.046512,129.672161 Z" id="XMLID_129_" fill="#FFFFFF"></path>
                        <path d="M117.351744,84.505931 C112.428488,93.0118123 107.462791,101.475164 102.539535,109.981046 C102.369767,110.236222 102.794186,110.491398 102.963953,110.236222 C107.887209,101.730341 112.852907,93.2669888 117.776163,84.7611075 C117.903488,84.505931 117.521512,84.2507546 117.351744,84.505931 Z" id="XMLID_128_" fill="#FFFFFF"></path>
                    </g>
                    <g id="Hand_1_" transform="translate(71.302326, 43.805289)">
                        <path d="M39.7255814,83.0174018 C43.205814,77.7437554 47.2802326,72.8528736 51.0575581,67.7493448 C42.4843023,61.7526985 33.0622093,57.2020519 24.7011628,50.9076998 C24.3616279,50.6525233 23.6401163,49.8444646 23.6401163,49.8444646 C23.6401163,49.8444646 8.78546512,8.08058726 4.0744186,0.0425294067 C4.0744186,0.0425294067 0.0848837209,59.2859929 0.297093023,61.1998162 C0.551744186,63.0711101 36.797093,81.7415196 36.797093,81.7415196 L39.7255814,83.0174018 Z" id="XMLID_161_" fill="#FFFFFF"></path>
                        <path d="M56.1930233,71.6195208 C53.6465116,69.5355799 51.0151163,67.664286 48.2988372,65.8780509 C44.0546512,70.8965209 39.9377907,76.0000497 36.2877907,81.4863431 C36.6273256,81.6564608 36.797093,81.7415196 36.797093,81.7415196 L68.5860465,95.4359885 L72.3209302,87.1852836 C71.8116279,76.8506378 61.9651163,76.3828143 56.1930233,71.6195208 Z" id="XMLID_160_" fill="#FFA79B"></path>
                        <path d="M21.9848837,48.4835236 C20.9238372,47.9731707 19.9052326,47.4202884 18.844186,46.9099355 C18.5895349,46.7823473 18.3348837,47.165112 18.5895349,47.3352296 C19.6505814,47.8455825 20.669186,48.3984648 21.7302326,48.9088176 C22.0273256,49.0364059 22.2395349,48.6111118 21.9848837,48.4835236 Z" id="XMLID_132_" fill="#000000"></path>
                        <path d="M63.8325581,85.1864015 C63.5354651,85.0588133 63.4081395,85.5266368 63.7052326,85.654225 C66.294186,86.6749308 66.1668605,89.4393422 65.8697674,91.7359301 C65.8273256,92.033636 66.294186,92.1612242 66.3366279,91.8635184 C66.7186047,89.2266952 66.7186047,86.2921661 63.8325581,85.1864015 Z" id="XMLID_124_" fill="#D24A43"></path>
                        <path d="M66.4215116,81.8691078 C66.1668605,81.6989902 65.9122093,82.1242842 66.1668605,82.2944019 C67.6523256,83.2725782 68.6284884,84.8461663 68.8406977,86.6324013 C68.8831395,86.9301072 69.35,86.9301072 69.3075581,86.6324013 C69.0953488,84.6760486 68.0767442,82.9748724 66.4215116,81.8691078 Z" id="XMLID_123_" fill="#D24A43"></path>
                    </g>
                    <g id="Hand" transform="translate(36.500000, 32.747643)">
                        <path d="M95.9610465,98.5831646 C92.5656977,96.4566943 86.8784884,93.5221652 78.6447674,90.0772833 C75.7162791,88.2910482 72.6604651,86.5048131 69.647093,84.8461663 C64.8936047,91.7784596 61.4133721,96.6268119 56.9994186,103.771752 C61.7104651,104.324635 65.9546512,104.749929 69.2226744,105.047634 C73.9761628,108.024693 80.1302326,108.96034 89.0854651,106.79134 C90.5284884,108.577575 91.5895349,112.022457 93.8389535,112.447751 C95.9186047,112.150045 97.955814,111.682222 99.8232558,110.789104 C101.52093,109.981046 102.836628,108.832752 103.940116,107.471811 C101.05407,104.111987 99.9930233,101.432635 95.9610465,98.5831646 Z" id="XMLID_154_" fill="#FFA79B"></path>
                        <path d="M72.1087209,86.2496367 C57.0843023,77.7012259 41.5930233,70.7689327 41.5930233,70.7689327 C41.5930233,70.7689327 40.9139535,65.4527568 41.0412791,39.5098188 C41.1261628,13.5668807 43.0784884,6.50699922 29.2848837,0.12758822 C29.2848837,0.12758822 25.0831395,0.297705847 17.1889535,8.42082252 C9.29476744,16.5439392 2.29186047,53.75717 0.424418605,73.6184029 C-0.89127907,87.7381659 34.1232558,103.771752 57.2965116,106.366046 C61.752907,99.7314586 68.0767442,93.0968712 72.1087209,86.2496367 Z" id="XMLID_153_" fill="#FFFFFF"></path>
                        <path d="M41.4232558,20.1164093 C40.6593023,33.8534077 39.8953488,47.590406 39.1313953,61.3274044 C39.1313953,61.497522 39.0889535,61.710169 39.0889535,61.8802867 C38.919186,61.7526985 38.7918605,61.6676396 38.622093,61.5400514 C38.622093,61.3699338 38.622093,61.1572868 38.6645349,60.9871691 C39.4284884,47.3352296 40.1924419,33.7258195 40.9563953,20.1164093 C40.9563953,19.8187035 41.4656977,19.8187035 41.4232558,20.1164093 Z" id="XMLID_134_" fill="#000000"></path>
                        <path d="M69.3075581,83.9530487 C59.2488372,76.5954614 49.1901163,69.237874 39.0889535,61.8802867 C38.919186,61.7526985 38.7918605,61.6676396 38.622093,61.5400514 C37.6459302,60.8170515 36.6273256,60.0940516 35.6511628,59.3710517 C35.3965116,59.2009341 35.6511628,58.77564 35.905814,58.9457576 C36.8395349,59.6262281 37.730814,60.3066986 38.6645349,60.9446397 C38.8343023,61.0722279 38.9616279,61.1572868 39.1313953,61.284875 C49.275,68.6849917 59.4186047,76.0851085 69.5197674,83.4852253 C69.7744186,83.6978723 69.5622093,84.1231664 69.3075581,83.9530487 Z" id="XMLID_133_" fill="#000000"></path>
                        <path d="M96.5127907,96.7969295 C95.5790698,95.1382827 93.9662791,94.2876945 92.1837209,93.7348123 C87.1331395,92.1612242 82.0401163,90.7577538 76.947093,89.2692246 C76.65,89.1841657 76.5226744,89.6519892 76.8197674,89.737048 C81.2337209,91.0129302 85.6052326,92.2888124 90.019186,93.607224 C92.0988372,94.2026357 94.5180233,94.6704592 95.8337209,96.5842825 C96.9372093,98.2004 97.1918605,100.284341 97.4040698,102.198164 C97.4465116,102.49587 97.9133721,102.49587 97.8709302,102.198164 C97.6587209,100.32687 97.4040698,98.413047 96.5127907,96.7969295 Z" id="XMLID_127_" fill="#D24A43"></path>
                        <path d="M94.6453488,98.4555764 C94.5180233,98.2004 94.0936047,98.413047 94.2209302,98.7107528 C95.8337209,101.602752 96.9372093,104.707399 97.5313953,107.982163 C97.5738372,108.279869 98.0406977,108.152281 97.9982558,107.854575 C97.4040698,104.537282 96.2581395,101.390105 94.6453488,98.4555764 Z" id="XMLID_126_" fill="#D24A43"></path>
                        <path d="M95.8761628,111.256928 C95.0697674,107.769516 93.4994186,104.537282 91.2924419,101.730341 C91.1226744,101.475164 90.7831395,101.8154 90.952907,102.070576 C93.0325581,104.707399 94.4755814,107.684458 95.3244186,110.916693 C95.3244186,110.916693 95.3244186,110.916693 95.3244186,110.959222 C95.3668605,111.12934 95.4093023,111.256928 95.4517442,111.427045 C95.494186,111.682222 95.9610465,111.554634 95.8761628,111.256928 Z" id="XMLID_125_" fill="#D24A43"></path>
                    </g>
                </g>
                <g id="Papers" transform="translate(175.000000, 260.000000)" fill="#DEE7FF">
                    <g id="XMLID_251_" transform="translate(0.000000, 34.576485)">
                        <path d="M36.7988819,2.34778602 L0.55368688,2.34778602 C-0.0425912985,2.34778602 -0.0425912985,3.28690043 0.55368688,3.28690043 L36.7988819,3.28690043 C37.3951601,3.28690043 37.3951601,2.34778602 36.7988819,2.34778602 Z" id="XMLID_217_"></path>
                        <path d="M36.7988819,0.128061056 L0.55368688,0.128061056 C-0.0425912985,0.128061056 -0.0425912985,1.06717547 0.55368688,1.06717547 L36.7988819,1.06717547 C37.3951601,1.06717547 37.3951601,0.128061056 36.7988819,0.128061056 Z" id="XMLID_216_"></path>
                    </g>
                    <g id="XMLID_250_" transform="translate(84.330771, 0.000000)">
                        <path d="M0.85182597,6.1896177 L50.51328,6.1896177 C51.1095582,6.1896177 51.1095582,7.12873211 50.51328,7.12873211 L0.85182597,7.12873211 C0.255547791,7.12873211 0.255547791,6.1896177 0.85182597,6.1896177 Z" id="XMLID_213_"></path>
                        <path d="M0.85182597,4.31138888 L50.51328,4.31138888 C51.1095582,4.31138888 51.1095582,5.25050329 50.51328,5.25050329 L0.85182597,5.25050329 C0.255547791,5.25050329 0.255547791,4.31138888 0.85182597,4.31138888 Z" id="XMLID_212_"></path>
                        <path d="M0.85182597,2.39047304 L50.51328,2.39047304 C51.1095582,2.39047304 51.1095582,3.32958745 50.51328,3.32958745 L0.85182597,3.32958745 C0.255547791,3.37227447 0.255547791,2.39047304 0.85182597,2.39047304 Z" id="XMLID_211_"></path>
                        <path d="M0.85182597,0.256122112 L50.51328,0.256122112 C51.1095582,0.256122112 51.1095582,1.19523652 50.51328,1.19523652 L0.85182597,1.19523652 C0.255547791,1.23792354 0.255547791,0.256122112 0.85182597,0.256122112 Z" id="XMLID_210_"></path>
                    </g>
                </g>
                <g id="Books" transform="translate(203.000000, 286.000000)">
                    <path d="M36.3133333,10.2529412 C36.0966667,8.81176471 36.3133333,7.41176471 36.7466667,6.05294118 L2.42666667,6.05294118 C-0.173333333,9.01764706 0.0866666667,11.4058824 2.42666667,13.3823529 L37.9166667,13.3823529 C37.05,12.6 36.4866667,11.5705882 36.3133333,10.2529412 Z" id="XMLID_206_" fill="#DEE7FF"></path>
                    <path d="M27.6466667,1.72941176 C27.7766667,1.31764706 27.95,0.905882353 28.1666667,0.535294118 L2.51333333,0.535294118 C0.78,2.26470588 0.823333333,4.15882353 2.51333333,6.21764706 L29.0333333,6.21764706 C27.8633333,5.02352941 27.1266667,3.58235294 27.6466667,1.72941176 Z" id="XMLID_205_" fill="#DEE7FF"></path>
                    <path d="M29.2933333,5.84705882 L2.16666667,5.84705882 C2.03666667,5.84705882 1.90666667,5.80588235 1.82,5.68235294 C0.346666667,4.07647059 0.346666667,2.22352941 1.77666667,0.288235294 C1.86333333,0.164705882 1.99333333,0.0823529412 2.16666667,0.0823529412 L28.9466667,0.0823529412 C29.2066667,0.0823529412 29.4233333,0.288235294 29.4233333,0.535294118 C29.4233333,0.782352941 29.2066667,0.988235294 28.9466667,0.988235294 L2.42666667,0.988235294 C1.43,2.42941176 1.38666667,3.70588235 2.38333333,4.9 L29.2933333,4.9 C29.5533333,4.9 29.77,5.10588235 29.77,5.35294118 C29.77,5.6 29.5533333,5.84705882 29.2933333,5.84705882 Z" id="XMLID_717_" fill="#FECA55"></path>
                    <path d="M38.1333333,13.6705882 L1.77666667,13.6705882 C1.60333333,13.6705882 1.47333333,13.5882353 1.38666667,13.4647059 C-0.433333333,11.0764706 -0.433333333,8.52352941 1.38666667,5.92941176 C1.47333333,5.80588235 1.64666667,5.72352941 1.77666667,5.72352941 L37.7,5.72352941 C37.96,5.72352941 38.1766667,5.92941176 38.1766667,6.17647059 C38.1766667,6.42352941 37.96,6.62941176 37.7,6.62941176 L2.03666667,6.62941176 C0.65,8.77058824 0.65,10.7882353 2.03666667,12.7647059 L38.1333333,12.7647059 C38.3933333,12.7647059 38.61,12.9705882 38.61,13.2176471 C38.61,13.4647059 38.4366667,13.6705882 38.1333333,13.6705882 Z" id="XMLID_716_" fill="#FECA55"></path>
                    <path d="M33.1933333,7.78235294 L2.81666667,7.78235294 C2.42666667,7.78235294 2.42666667,8.35882353 2.81666667,8.35882353 L33.1933333,8.35882353 C33.5833333,8.35882353 33.5833333,7.78235294 33.1933333,7.78235294 Z" id="XMLID_202_" fill="#FFFFFF"></path>
                    <path d="M29.12,9.63529412 L21.1466667,9.63529412 C20.7566667,9.63529412 20.7566667,10.2117647 21.1466667,10.2117647 L29.12,10.2117647 C29.51,10.2117647 29.51,9.63529412 29.12,9.63529412 Z" id="XMLID_201_" fill="#FFFFFF"></path>
                </g>
                <g id="Man_2" transform="translate(160.000000, 0.000000)">
                    <g id="Window" transform="translate(46.748784, 0.000000)">
                        <rect id="XMLID_196_" stroke="#0B7A76" stroke-width="3" fill="#0B7A76" x="0.384232467" y="0.471025381" width="162.103409" height="149.254435"></rect>
                        <path d="M64.252207,133.815274 C59.2571849,123.887318 52.810618,114.72305 45.6809711,106.19519 C33.3428396,91.3881104 18.3577734,78.1084082 0.384232467,70.5563731 L0.384232467,149.72546 L70.9549289,149.72546 C69.0337666,144.294783 66.8137568,138.948961 64.252207,133.815274 Z" id="XMLID_195_" fill="#FAFAFA"></path>
                        <rect id="XMLID_194_" fill="#EBF4FF" x="0.384232467" y="0.381844472" width="162.103409" height="7.38232647"></rect>
                        <path d="M4.90963708,3.64873607 C4.90963708,2.71533847 5.55002452,2.24863967 6.31848946,2.24863967 C7.08695439,2.24863967 7.77003433,2.88504712 7.77003433,3.64873607 C7.77003433,4.41242501 7.08695439,5.04883247 6.31848946,5.04883247 C5.55002452,5.04883247 4.90963708,4.41242501 4.90963708,3.64873607 Z" id="XMLID_148_" fill="#D24A43"></path>
                        <path d="M10.3315841,3.64873607 C10.3315841,2.71533847 10.9719716,2.24863967 11.7404365,2.24863967 C12.5089014,2.24863967 13.1919814,2.88504712 13.1919814,3.64873607 C13.1919814,4.41242501 12.5089014,5.04883247 11.7404365,5.04883247 C10.9719716,5.04883247 10.3315841,4.41242501 10.3315841,3.64873607 Z" id="XMLID_147_" fill="#D24A43"></path>
                        <path d="M16.5219961,3.64873607 C16.5219961,2.71533847 17.1623835,2.24863967 17.9308485,2.24863967 C18.6993134,2.24863967 19.3823933,2.88504712 19.3823933,3.64873607 C19.3823933,4.41242501 18.6993134,5.04883247 17.9308485,5.04883247 C17.1623835,5.04883247 16.5219961,4.41242501 16.5219961,3.64873607 Z" id="XMLID_146_" fill="#D24A43"></path>
                        <g id="Ornament_1_" transform="translate(9.819274, 13.576692)" fill="#DEE7FF">
                            <path d="M18.1016184,31.3112467 C15.7108387,34.8327013 13.3627514,38.3965831 10.9719716,41.9180376 C10.6304316,42.4271636 11.441589,42.8938624 11.783129,42.3847364 C14.1739088,38.8632819 16.5219961,35.2994001 18.9127759,31.7779455 C19.2543158,31.3112467 18.4431584,30.8445479 18.1016184,31.3112467 Z" id="XMLID_96_"></path>
                            <path d="M20.9620157,36.2752249 C19.0835459,39.1178448 17.1623835,41.9180376 15.2839137,44.7606576 C14.9423737,45.2697836 15.7535311,45.7364824 16.0950711,45.2273564 C17.973541,42.3847364 19.8947033,39.5845436 21.7731731,36.7419237 C22.1147131,36.2327977 21.3035557,35.7660989 20.9620157,36.2752249 Z" id="XMLID_95_"></path>
                            <path d="M6.06233448,4.36999785 C4.39732712,2.96990145 2.73231977,1.52737789 1.06731241,0.127281491 C0.597694949,-0.254562982 -0.0853849927,0.381844472 0.384232467,0.806116108 C2.04923982,2.20621251 3.71424718,3.64873607 5.37925454,5.04883247 C5.848872,5.43067694 6.53195194,4.79426949 6.06233448,4.36999785 Z" id="XMLID_94_"></path>
                            <path d="M131.279426,1.14553342 C129.358264,5.64281276 123.295929,1.95164953 119.88053,2.84261996 C117.703212,3.43660025 115.995513,5.4731041 116.80667,7.72174377 C117.020132,8.2732969 117.916675,8.06116108 117.703212,7.46718079 C116.379745,3.7335904 121.502845,3.52145458 123.722854,3.86087189 C125.131707,4.07300771 126.497867,4.45485218 127.949412,4.28514352 C129.742496,4.11543487 131.364811,3.30931876 132.133276,1.61223222 C132.346739,1.06067909 131.492889,0.59398029 131.279426,1.14553342 Z" id="XMLID_93_"></path>
                            <path d="M134.139824,4.83669665 C132.218661,9.33397599 126.156327,5.64281276 122.740927,6.53378319 C120.56361,7.12776348 118.85591,9.16426734 119.667067,11.412907 C119.88053,11.9644601 120.777072,11.7523243 120.56361,11.158344 C119.240142,7.42475363 124.363242,7.21261781 126.583252,7.55203512 C127.992104,7.76417094 129.358264,8.14601541 130.809809,7.97630676 C132.602894,7.8065981 134.225208,7.00048199 134.993673,5.30339545 C135.207136,4.75184232 134.395978,4.28514352 134.139824,4.83669665 Z" id="XMLID_92_"></path>
                            <path d="M123.594777,63.6831726 C123.082467,64.7438516 122.527464,65.7621036 122.015155,66.8227827 C121.759,67.3743358 122.570157,67.8410346 122.826312,67.2894815 C123.338622,66.2288024 123.893624,65.2105504 124.405934,64.1498714 C124.704782,63.6407454 123.850932,63.1740466 123.594777,63.6831726 Z" id="XMLID_91_"></path>
                        </g>
                    </g>
                    <g id="Head_1_" transform="translate(103.102880, 14.849507)">
                        <path d="M77.5295734,78.1084082 L37.0997793,86.7211224 L33.2147622,75.9021957 L28.1770476,62.0709403 L19.5104708,38.1420201 L49.0109858,28.9777527 C49.9502207,31.9476542 77.5295734,78.1084082 77.5295734,78.1084082 Z" id="XMLID_179_" fill="#FFA79B"></path>
                        <path d="M33.1720697,75.9446228 L33.3855321,76.496176 C38.7647867,71.9140423 42.2655714,65.5075406 43.8451937,58.2524956 C45.9371261,48.6215295 43.6744238,40.2209511 41.3263365,31.3536739 L19.5531633,38.1420201 L28.2197401,62.0709403 L33.1720697,75.9446228 Z" id="XMLID_178_" fill="#000000"></path>
                        <path d="M55.2867828,33.2628963 C54.6037028,39.3724078 50.3771457,52.6945372 49.8648357,53.7976434 C44.1440412,66.5257925 27.6220451,75.8173413 15.1558362,65.7196764 C15.0704512,65.6348221 14.9850662,65.5923949 14.8996812,65.5075406 C14.7716037,65.4226863 14.6862187,65.2954048 14.5581413,65.1681233 C14.4727563,65.083269 14.3873713,64.9559875 14.2592938,64.828706 C14.2166013,64.7862788 14.2166013,64.7438516 14.1739088,64.7014245 C14.0031388,64.4892887 13.8750613,64.2771528 13.7042913,64.065017 C13.7042913,64.065017 13.7042913,64.065017 13.7042913,64.065017 C13.4908288,63.7680269 13.3200589,63.4286096 13.1065964,63.0467651 C13.0212114,62.9194836 12.9785189,62.7922021 12.8931339,62.6649206 C12.8077489,62.495212 12.6796714,62.2830762 12.5942864,62.0709403 C12.5089014,61.9436588 12.4662089,61.7739502 12.3808239,61.6042415 C12.2527464,61.3072514 12.124669,60.9678341 11.953899,60.6284168 C11.8258215,60.2889995 11.697744,59.9495822 11.5696665,59.5677377 C11.100049,58.3373499 10.6731241,56.9796807 10.2888916,55.5371571 C10.2888916,55.49473 10.2888916,55.49473 10.2888916,55.4523028 C10.2461991,55.240167 10.1608141,55.0280312 10.1181216,54.8158954 C10.0754291,54.6037595 9.99004414,54.3916237 9.94735165,54.1794879 C9.56311918,52.65211 9.17888671,50.9974506 8.79465425,49.3003641 C8.1969593,46.5425985 7.68464934,43.6575513 7.21503188,40.7725042 C7.21503188,40.7300771 7.21503188,40.6876499 7.17233939,40.6027956 C5.89156449,32.5840616 4.99502207,24.5653277 4.48271212,19.5589224 C4.44001962,19.3043594 4.44001962,19.0497965 4.39732712,18.8376606 C4.39732712,18.7528063 4.39732712,18.667952 4.35463463,18.5830977 C2.81770476,3.69116323 38.8928642,-6.23679305 49.2671408,4.92155098 C55.3721678,11.4553342 56.5248652,22.571251 55.2867828,33.2628963 Z" id="XMLID_177_" fill="#FFA79B"></path>
                        <path d="M49.3952183,5.0064053 C43.2474988,-1.56980505 28.1770476,-0.806116108 17.1623835,3.98815338 C15.1985287,3.98815338 13.2773664,4.15786203 11.356204,4.45485218 C9.22157921,4.79426949 6.53195194,5.1336868 5.08040706,6.91562767 C4.44001962,7.72174377 4.14117214,8.69756854 4.22655714,9.63096614 C4.01309466,9.75824763 3.79963217,9.88552912 3.5434772,10.0128106 C0.853849927,11.5826157 -1.1953899,15.3586332 1.75039235,17.8194087 C4.44001962,20.0256212 9.26427171,18.7528063 12.210054,17.9466902 C12.3808239,17.904263 12.5942864,17.8194087 12.7650564,17.7769815 C17.9308485,18.3709618 23.139333,17.4375642 27.7501226,15.1464974 C30.1835949,15.4859147 32.5316822,15.4010604 34.8797695,14.9343616 C35.093232,15.0192159 35.3066945,15.1464974 35.520157,15.2737789 C36.5447769,15.9101863 37.2705493,16.8435839 37.8682443,17.8618359 C38.0817067,18.0315445 43.5463463,30.2929948 39.5332516,33.0931876 C29.329745,40.3058054 16.0523786,42.2998821 7.30041687,40.8573585 C7.77003433,43.7424057 8.28234429,46.66988 8.88003924,49.3852184 C9.22157921,51.082305 9.60581168,52.6945372 10.0327366,54.2643422 C10.0754291,54.4764781 10.1608141,54.6886139 10.2035066,54.9007497 C10.2461991,55.1128855 10.3315841,55.3250213 10.3742766,55.5371571 C10.3742766,55.5795843 10.3742766,55.5795843 10.3742766,55.6220115 C10.8012016,57.064535 11.2281265,58.4222043 11.6550515,59.652592 C11.783129,59.9920093 11.9112065,60.3738538 12.039284,60.7132711 C12.1673615,61.0526884 12.2954389,61.3921057 12.4662089,61.6890959 C12.5515939,61.8588045 12.5942864,61.986086 12.6796714,62.1557947 C12.7650564,62.3679305 12.8931339,62.5800663 12.9785189,62.749775 C13.0639039,62.8770564 13.1065964,63.0043379 13.1919814,63.1316194 C13.4054439,63.4710367 13.5762138,63.810454 13.7896763,64.1498714 C13.7896763,64.1498714 13.7896763,64.1498714 13.7896763,64.1498714 C13.9177538,64.3620072 14.0885238,64.574143 14.2592938,64.7862788 C14.3019863,64.828706 14.3019863,64.8711331 14.3446788,64.9135603 C14.4300638,65.0408418 14.5154488,65.1256961 14.6435262,65.2529776 C14.7716037,65.3802591 14.8569887,65.5075406 14.9850662,65.5923949 C15.0704512,65.6772492 15.1558362,65.7196764 15.2412212,65.8045307 C27.7074301,75.9021957 44.8271212,67.4591901 50.2063757,54.5613324 C51.5298431,51.336868 50.2063757,43.6151242 49.5232958,40.6876499 C49.0963708,38.8208547 53.1948504,36.0206619 55.3294753,33.3053234 C56.5248652,22.571251 55.3721678,11.4553342 49.3952183,5.0064053 Z" id="XMLID_176_" fill="#697CCC"></path>
                        <path d="M21.4316332,37.1661953 C20.3216283,37.5904669 19.1262384,38.0571657 17.888156,37.9723114 C16.4793036,37.8874571 14.8142962,36.7419237 15.4973762,35.1721186 C15.7535311,34.5357112 14.8142962,34.0265852 14.5581413,34.6629927 C13.9177538,36.1479434 14.5581413,37.8026028 16.0096861,38.5662917 C17.8454635,39.5421165 19.9373958,38.8632819 21.7731731,38.1844472 C22.4135606,37.9723114 22.1147131,36.9540595 21.4316332,37.1661953 Z" id="XMLID_175_" fill="#D24A43"></path>
                        <path d="M28.6893575,27.4079477 C28.90282,28.3837724 29.07359,29.3595972 29.2870525,30.335422 C29.500515,31.3536739 30.9947523,30.8445479 30.8239824,29.8687232 C30.6105199,28.8928984 30.4397499,27.9170736 30.2262874,26.9412489 C30.0128249,25.922997 28.5185876,26.4321229 28.6893575,27.4079477 Z" id="XMLID_174_" fill="#000000"></path>
                        <path d="M8.58119176,29.5293059 C8.79465425,30.5051306 8.96542423,31.4809554 9.17888671,32.4567802 C9.39234919,33.4750321 10.8865866,32.9659061 10.7158166,31.9900814 C10.5023541,31.0142566 10.3315841,30.0384318 10.1181216,29.0626071 C9.90465915,28.0867823 8.36772928,28.5534811 8.58119176,29.5293059 Z" id="XMLID_173_" fill="#000000"></path>
                        <path d="M9.99004414,21.256009 C8.88003924,21.5954263 7.77003433,21.9772707 6.66002943,22.3166881 C6.10502698,22.4863967 5.89156449,23.2500857 6.10502698,23.7592116 C6.36118195,24.3531919 6.9588769,24.4804734 7.55657185,24.3107647 C8.66657676,23.9713474 9.77658166,23.589503 10.8865866,23.2500857 C11.441589,23.080377 11.6550515,22.3166881 11.441589,21.8075621 C11.185434,21.2135818 10.5450466,21.0438731 9.99004414,21.256009 Z" id="XMLID_708_" fill="#697CCC"></path>
                        <path d="M27.4085827,18.8376606 C26.3412702,19.0922236 25.3166503,19.3892138 24.2493379,19.6437767 C22.883178,19.9831941 23.566258,22.0196979 24.8897254,21.6802806 C25.9570378,21.4257176 26.9816577,21.1287275 28.0489701,20.8741645 C29.41513,20.5771743 28.73205,18.4982433 27.4085827,18.8376606 Z" id="XMLID_704_" fill="#697CCC"></path>
                        <path d="M36.0751594,51.5490038 C35.264002,53.7552163 33.4709171,55.4098757 31.1655223,56.0038559 C30.4824424,56.1735646 30.6532124,57.2342437 31.3362923,57.064535 C33.9832271,56.3432733 36.1178519,54.5189052 37.0570868,51.9308482 C37.3132418,51.2944408 36.2886219,50.9125963 36.0751594,51.5490038 Z" id="XMLID_172_" fill="#FFA79B"></path>
                        <path d="M62.2029672,23.1228042 C59.3425699,18.5830977 51.0602256,17.5648457 46.534821,23.2925128 C47.6448259,29.0201799 48.6267533,34.747847 49.4806033,40.5179412 C52.7679255,41.2816302 58.9583374,40.0512424 61.8614272,36.4873607 C65.1914419,32.3719258 65.2768269,28.001928 62.2029672,23.1228042 Z" id="XMLID_171_" fill="#FFA79B"></path>
                        <path d="M54.5183178,26.8139674 C53.4510054,28.6383354 52.4263855,30.5051306 51.3590731,32.3294987 C51.0175331,32.923479 51.956768,33.3901777 52.3410005,32.7961975 C52.4263855,32.668916 52.5117705,32.5416345 52.554463,32.414353 C52.5971555,32.3719258 52.5971555,32.3294987 52.5971555,32.2870715 C53.5363904,30.6324121 54.5183178,28.9353256 55.4575527,27.2806662 C55.8417852,26.6866859 54.8598578,26.2199871 54.5183178,26.8139674 Z" id="XMLID_170_" fill="#D24A43"></path>
                    </g>
                    <g id="Body_1_" transform="translate(68.948883, 89.945587)">
                        <path d="M140.24485,2.54562982 L140.24485,59.7374463 L0.213462482,59.7374463 C0.0853849927,53.2460903 0.298847474,40.3058054 2.60424228,21.4681448 C5.72079451,-3.52145458 24.2066454,-0.551553127 62.2883522,1.18796058 C66.7710643,1.4000964 71.5099314,1.56980505 76.5476459,1.69708654 C86.7511526,1.95164953 100.967754,2.16378534 114.373198,2.29106683 C124.021702,2.41834832 133.243281,2.50320265 140.24485,2.54562982 Z" id="XMLID_169_" fill="#EBF4FF"></path>
                        <path d="M79.0665032,24.5653277 C74.9253311,25.9654241 70.7841589,27.3655205 66.6429868,28.8080441 C66.9845268,20.49232 67.3260667,12.176596 67.6676067,3.86087189 C67.7102992,3.2668916 66.7283718,3.2668916 66.7283718,3.86087189 C66.3868318,12.3887318 66.0452918,20.9590188 65.7037519,29.4868787 C65.7037519,29.7838688 66.0025993,30.0384318 66.3014468,29.9535775 L79.3653507,25.4987253 C79.8776607,25.2865895 79.6215057,24.3531919 79.0665032,24.5653277 Z" id="XMLID_104_" fill="#FFFFFF"></path>
                        <path d="M108.310863,7.38232647 C102.632761,16.334458 96.9546592,25.2865895 91.2765572,34.1962939 C88.5442374,31.3112467 85.8546101,28.4261996 83.1222904,25.5835796 C82.6953654,25.159308 82.054978,25.7957155 82.4392104,26.2624143 C85.2996077,29.2747429 88.1600049,32.2870715 91.0204022,35.3418273 C91.2338647,35.5539631 91.6180971,35.5115359 91.7461746,35.2569729 C97.5523541,26.1351328 103.315841,17.0132926 109.122021,7.89145243 C109.463561,7.3398993 108.652403,6.83077334 108.310863,7.38232647 Z" id="XMLID_103_" fill="#FFFFFF"></path>
                        <path d="M82.1830555,28.9353256 C82.1830555,28.3413453 81.201128,28.3413453 81.2438205,28.9353256 L82.054978,58.4646314 C82.054978,59.0586117 83.0369054,59.0586117 82.9942129,58.4646314 L82.1830555,28.9353256 Z" id="XMLID_102_" fill="#FFFFFF"></path>
                        <path d="M22.0293281,25.8805698 L22.0293281,32.15979 C22.0293281,32.7537703 22.968563,32.7537703 22.968563,32.15979 L22.968563,25.8805698 C23.0112555,25.2865895 22.0293281,25.2865895 22.0293281,25.8805698 Z" id="XMLID_58_" fill="#FFFFFF"></path>
                        <path d="M76.5476459,1.69708654 C73.5591712,1.61223222 70.3145415,1.48495073 67.5395292,1.4000964 L81.7561305,24.8623179 L111.213953,2.29106683 C98.9612065,2.07893102 86.0253801,1.90922236 76.5476459,1.69708654 Z" id="XMLID_168_" fill="#FFA79B"></path>
                    </g>
                    <g id="Hand__x2B__Folder" transform="translate(0.000000, 120.081977)">
                        <path d="M100.269271,34.6388614 C99.0701607,33.1129029 97.8230856,31.6346307 96.5760104,30.1086723 C93.6981448,24.7678177 90.8682435,19.4269632 87.894449,14.0861087 C84.5849035,8.12533358 79.4527097,0.924717227 68.8046067,1.11546203 C68.3729269,1.11546203 67.941247,1.16314823 67.5095672,1.16314823 C67.4616028,10.5096436 69.955753,19.9038252 73.7929072,28.391969 C74.8481246,30.7762791 76.0472353,33.1129029 77.2943105,35.4018406 C77.2943105,35.4018406 77.2943105,35.3541544 77.2943105,35.3541544 C77.5341326,32.6360409 77.7739547,29.9179275 77.9658124,27.199814 C80.0282828,28.7257724 81.6590734,30.9670239 83.9613659,32.1114927 C85.2084411,35.2110958 87.9903779,36.9754852 90.7723147,38.9306195 C93.3144294,40.7426951 99.5977694,43.8422982 101.852098,39.9320297 C103.051208,38.0245816 101.516347,36.1648198 100.269271,34.6388614 Z" id="Thumb" fill="#FFA79B"></path>
                        <g id="Folder" transform="translate(0.000000, 18.072483)">
                            <rect id="XMLID_215_" fill="#1C3C55" x="6.49467566" y="16.9626272" width="38.4388581" height="52.0346506"></rect>
                            <rect id="XMLID_214_" fill="#1C3C55" x="0.0481087086" y="25.9934343" width="38.4388581" height="52.0346506"></rect>
                            <rect id="XMLID_166_" fill="#FECA55" x="12.9412426" y="12.6622428" width="90.0113937" height="66.0347908"></rect>
                            <path d="M39.9783368,24.3210626 L12.9412426,24.3210626 L12.9412426,8.64855075 C12.9412426,6.73726881 14.4807213,5.20824327 16.4050696,5.20824327 L36.5626185,5.20824327 C38.4869668,5.20824327 40.0264455,6.73726881 40.0264455,8.64855075 L40.0264455,24.3210626 L39.9783368,24.3210626 Z" id="XMLID_165_" fill="#FECA55"></path>
                            <path d="M70.0943884,69.5228803 L23.0921801,69.5228803 C22.8035279,69.5228803 22.5629843,69.2839701 22.5629843,68.9972778 L22.5629843,22.3142166 C22.5629843,22.0275243 22.8035279,21.788614 23.0921801,21.788614 L70.0943884,21.788614 C70.3830406,21.788614 70.6235842,22.0275243 70.6235842,22.3142166 L70.6235842,68.9972778 C70.6235842,69.2839701 70.3830406,69.5228803 70.0943884,69.5228803 Z M23.6213759,68.4716752 L69.5651926,68.4716752 L69.5651926,22.8398191 L23.6213759,22.8398191 L23.6213759,68.4716752 Z" id="XMLID_705_" fill="#FFFFFF"></path>
                            <path d="M60.3283205,58.294099 C51.4282095,49.5977662 42.5280984,40.9492154 33.6279873,32.2528826 C33.1469002,31.7750621 32.3771609,32.5395749 32.8582479,33.0173954 C41.3253807,41.2836897 49.8406221,49.5499841 58.3077548,57.8162785 C58.3558635,57.9118426 58.3558635,57.9596246 58.4520809,58.0074067 L59.6066899,59.0586117 C60.087777,59.5364322 60.8094076,58.7719194 60.3283205,58.294099 Z" id="XMLID_143_" fill="#FFFFFF"></path>
                            <path d="M33.8685308,59.297522 C42.6243158,50.457843 51.331992,41.6181641 60.087777,32.7784851 C60.5688641,32.3006647 59.7991247,31.5361519 59.3180377,32.0139724 C50.9952311,40.4236129 42.6724245,48.8810354 34.3496179,57.2906759 C34.2534005,57.338458 34.2052918,57.338458 34.1571831,57.4340221 L33.0987915,58.5807912 C32.6658131,59.0586117 33.3874437,59.8231245 33.8685308,59.297522 Z" id="XMLID_142_" fill="#FFFFFF"></path>
                            <path d="M94.0525252,25.1333574 L78.6096298,25.1333574 C77.9361079,25.1333574 77.9361079,26.1845625 78.6096298,26.1845625 L94.0525252,26.1845625 C94.7260472,26.1845625 94.7260472,25.1333574 94.0525252,25.1333574 Z" id="XMLID_653_" fill="#FFFFFF"></path>
                            <path d="M94.0525252,30.1982545 L78.6096298,30.1982545 C77.9361079,30.1982545 77.9361079,31.2494596 78.6096298,31.2494596 L94.0525252,31.2494596 C94.7260472,31.2494596 94.7260472,30.1982545 94.0525252,30.1982545 Z" id="XMLID_635_" fill="#FFFFFF"></path>
                            <rect id="XMLID_136_" fill="#D24A43" x="35.8890966" y="2.58023061" width="4.13734894" height="10.0820122"></rect>
                            <rect id="XMLID_135_" fill="#697CCC" x="29.05766" y="0.0955640966" width="4.13734894" height="12.6144608"></rect>
                            <path d="M6.10980599,29.9115622 L6.10980599,73.3932262 C6.10980599,74.0621749 7.16819758,74.0621749 7.16819758,73.3932262 L7.16819758,29.9115622 C7.16819758,29.2426136 6.10980599,29.2426136 6.10980599,29.9115622 Z" id="XMLID_35_" fill="#FFFFFF"></path>
                        </g>
                        <g id="Palm" transform="translate(41.596385, 0.433322)">
                            <path d="M40.8881342,5.61145355 C37.6982798,2.5419405 33.3968094,0.239805707 27.3554184,0.383689132 C21.0723718,0.527572556 14.4510073,1.91844566 9.5212322,6.09106496 C4.54312603,8.39319975 1.88491399,13.1893139 1.01495369,18.5130006 C-0.144993384,25.5153273 -0.0483311279,33.1411487 0.821629175,40.1914365 C1.40160271,44.8436673 4.63978828,49.9275483 9.56956333,48.824442 C9.76288784,49.9755094 10.0528746,51.0786157 10.4878548,52.0857996 C11.5511396,54.3399733 14.2576827,55.7308464 16.4325835,55.2032738 C17.2058815,58.2248257 19.5257757,60.9586108 22.8122924,60.0953102 C22.8122924,60.335116 22.6189679,67.145598 24.938862,69.0160826 C26.6787826,70.4069557 29.8686371,70.0232665 31.2702398,67.3374426 C33.5418028,62.9250176 34.9434055,45.7549289 35.7167035,36.6902732 C35.523379,35.6830892 38.0849288,10.1198008 40.8881342,5.61145355 Z" id="XMLID_141_" fill="#FFA79B"></path>
                            <path d="M8.21629175,26.4265889 C8.26462288,25.755133 7.20133806,25.755133 7.15300693,26.4265889 C6.66969565,32.4217316 7.00801355,38.4168743 8.16796062,44.3160947 C8.312954,44.9875507 9.32790769,44.6997838 9.18291431,44.0283279 C8.07129836,38.2250297 7.73298047,32.3737705 8.21629175,26.4265889 Z" id="XMLID_101_" fill="#D24A43"></path>
                            <path d="M16.7225703,51.6541493 C15.1759742,44.6518227 14.8859874,37.6015349 15.8042788,30.503286 C15.9009411,29.83183 14.8376563,29.83183 14.740994,30.503286 C13.8227026,37.6974572 14.1126894,44.8436673 15.7076166,51.9419162 C15.85261,52.6133722 16.8675636,52.3256053 16.7225703,51.6541493 Z" id="XMLID_100_" fill="#D24A43"></path>
                            <path d="M24.4555507,57.0257972 C22.9572858,49.831626 22.7639613,42.5415325 23.8755772,35.2994001 C23.9722395,34.6279441 22.9572858,34.3401773 22.8606235,35.0116333 C21.7006764,42.4456102 21.894001,49.9275483 23.440597,57.313564 C23.5372593,57.98502 24.6005441,57.6972532 24.4555507,57.0257972 Z" id="XMLID_99_" fill="#D24A43"></path>
                            <path d="M29.1920013,63.404629 C28.3703721,61.8698725 26.2438025,61.4382222 24.7938686,62.3494839 C24.2138951,62.733173 24.7455375,63.6444347 25.325511,63.2607456 C26.2921336,62.6852119 27.6937363,62.8770564 28.2737098,63.9322016 C28.8053522,64.9873467 28.1770476,66.2343364 27.1620939,66.7139478 C26.5337892,67.0017146 27.0654316,67.9129763 27.6937363,67.6252095 C29.2403324,66.9537535 30.0136304,64.9393855 29.1920013,63.404629 Z" id="XMLID_98_" fill="#D24A43"></path>
                            <path d="M36.5866638,24.8918324 C36.3933393,24.3162987 36.2483459,23.6928039 36.0550214,23.1172702 C35.8616969,22.4458142 34.7984121,22.7335811 35.0400678,23.405037 C35.2333923,23.9805707 35.3783856,24.6040656 35.5717102,25.1795993 C35.7650347,25.8510552 36.7799884,25.5632884 36.5866638,24.8918324 Z" id="XMLID_97_" fill="#D24A43"></path>
                        </g>
                    </g>
                </g>
                <g id="Paths" transform="translate(121.000000, 48.000000)" fill="#D24A43">
                    <path d="M209.49666,110.950282 C209.49666,108.59322 211.074067,107.45678 213.035167,107.45678 C214.996267,107.45678 216.658939,109.014124 216.658939,110.950282 C216.658939,112.886441 214.996267,114.443785 213.035167,114.443785 C211.074067,114.443785 209.49666,112.886441 209.49666,110.950282 Z" id="XMLID_145_"></path>
                    <path d="M165.201375,148.95791 C163.581336,148.95791 161.961297,148.915819 160.341257,148.789548 C160.085462,148.789548 159.872299,148.537006 159.914931,148.284463 C159.914931,148.031921 160.170727,147.821469 160.426523,147.863559 C162.302358,147.989831 164.178193,148.074011 166.054028,148.031921 C166.309823,148.031921 166.522986,148.242373 166.522986,148.494915 C166.522986,148.747458 166.309823,148.95791 166.054028,148.95791 C165.755599,148.95791 165.499804,148.95791 165.201375,148.95791 Z M171.724165,148.621186 C171.468369,148.621186 171.297839,148.452825 171.255206,148.200282 C171.212574,147.94774 171.425737,147.695198 171.681532,147.695198 C173.557367,147.484746 175.433202,147.232203 177.266405,146.85339 C177.5222,146.811299 177.777996,146.979661 177.820629,147.232203 C177.863261,147.484746 177.692731,147.737288 177.436935,147.779379 C175.603733,148.158192 173.685265,148.452825 171.766798,148.621186 C171.766798,148.621186 171.724165,148.621186 171.724165,148.621186 Z M182.808644,146.432486 C182.595481,146.432486 182.424951,146.306215 182.339686,146.095763 C182.25442,145.84322 182.382318,145.590678 182.638114,145.506497 C184.428684,144.959322 186.219253,144.327966 187.924558,143.612429 C188.180354,143.528249 188.436149,143.612429 188.564047,143.864972 C188.649312,144.117514 188.564047,144.370056 188.308251,144.496328 C186.560314,145.211864 184.769745,145.885311 182.936542,146.432486 C182.936542,146.390395 182.89391,146.432486 182.808644,146.432486 Z M193.253635,142.012994 C193.083104,142.012994 192.912574,141.928814 192.827308,141.760452 C192.699411,141.55 192.784676,141.255367 192.997839,141.129096 C194.660511,140.203107 196.237917,139.192938 197.687426,138.098588 C197.900589,137.930226 198.199018,137.972316 198.369548,138.182768 C198.540079,138.39322 198.497446,138.687853 198.284283,138.856215 C196.792141,139.950565 195.172102,141.002825 193.466798,141.928814 C193.424165,141.970904 193.3389,142.012994 193.253635,142.012994 Z M202.334381,135.320621 C202.206483,135.320621 202.078585,135.278531 201.99332,135.19435 C201.82279,135.025989 201.82279,134.731356 201.99332,134.520904 C203.357564,133.216102 204.59391,131.827119 205.702358,130.396045 C205.872888,130.185593 206.171316,130.143503 206.384479,130.311864 C206.597642,130.480226 206.640275,130.774859 206.469745,130.985311 C205.318664,132.458475 204.039686,133.889548 202.675442,135.236441 C202.547544,135.278531 202.462279,135.320621 202.334381,135.320621 Z M209.155599,126.397458 C209.070334,126.397458 208.985069,126.397458 208.942436,126.355367 C208.729273,126.229096 208.644008,125.934463 208.771906,125.724011 C209.667191,124.082486 210.434578,122.39887 211.031434,120.673164 C211.116699,120.420621 211.372495,120.29435 211.628291,120.378531 C211.884086,120.462712 212.011984,120.715254 211.926719,120.967797 C211.28723,122.735593 210.519843,124.50339 209.624558,126.144915 C209.49666,126.313277 209.32613,126.397458 209.155599,126.397458 Z M212.864637,115.874859 C212.822004,115.874859 212.822004,115.874859 212.779371,115.874859 C212.523576,115.832768 212.353045,115.580226 212.395678,115.327684 C212.694106,113.728249 212.864637,112.086723 212.907269,110.445198 C212.907269,110.192655 213.120432,109.982203 213.418861,109.982203 C213.674656,109.982203 213.887819,110.192655 213.887819,110.487288 C213.802554,112.170904 213.632024,113.85452 213.376228,115.496045 C213.290963,115.706497 213.0778,115.874859 212.864637,115.874859 Z" id="XMLID_645_"></path>
                    <g id="XMLID_20_">
                        <path d="M75.7155206,3.61977401 C75.7155206,1.26271186 77.2929273,0.126271186 79.2540275,0.126271186 C81.2151277,0.126271186 82.8777996,1.68361582 82.8777996,3.61977401 C82.8777996,5.5559322 81.2151277,7.11327684 79.2540275,7.11327684 C77.2929273,7.11327684 75.7155206,5.5559322 75.7155206,3.61977401 Z" id="XMLID_149_"></path>
                        <path d="M0.852652259,20.6242938 C0.852652259,20.6242938 0.852652259,20.6242938 0.852652259,20.6242938 C0.596856582,20.6242938 0.383693517,20.4138418 0.383693517,20.1612994 C0.383693517,18.0146893 0.468958743,16.1627119 0.639489194,14.5211864 C0.682121807,14.2686441 0.895284872,14.0581921 1.15108055,14.1002825 C1.40687623,14.1423729 1.62003929,14.3528249 1.57740668,14.6053672 C1.44950884,16.2048023 1.36424361,18.0146893 1.36424361,20.1612994 C1.321611,20.4138418 1.15108055,20.6242938 0.852652259,20.6242938 Z M2.08899804,9.51242938 C2.04636542,9.51242938 2.00373281,9.51242938 1.9611002,9.51242938 C1.70530452,9.42824859 1.57740668,9.17570621 1.66267191,8.92316384 C2.34479371,6.73446328 3.32534381,5.13502825 4.64695481,3.95649718 C4.86011788,3.78813559 5.15854617,3.78813559 5.32907662,3.99858757 C5.49960707,4.20903955 5.49960707,4.50367232 5.28644401,4.6720339 C4.09273084,5.72429379 3.19744597,7.19745763 2.55795678,9.21779661 C2.47269155,9.38615819 2.3021611,9.51242938 2.08899804,9.51242938 Z M10.1039293,2.60960452 C9.8481336,2.60960452 9.67760314,2.44124294 9.63497053,2.18870056 C9.59233792,1.93615819 9.80550098,1.68361582 10.0612967,1.68361582 C11.127112,1.55734463 12.2781925,1.51525424 13.5571709,1.59943503 C13.8129666,1.59943503 14.0261297,1.8519774 13.9834971,2.10451977 C13.9834971,2.35706215 13.7277014,2.56751412 13.4719057,2.52542373 C12.2781925,2.44124294 11.1697446,2.48333333 10.1465619,2.60960452 C10.1465619,2.60960452 10.1039293,2.60960452 10.1039293,2.60960452 Z" id="XMLID_636_"></path>
                        <path d="M73.4559921,2.52542373 L68.7237721,2.52542373 C68.1269155,2.52542373 68.1269155,3.45141243 68.7237721,3.45141243 L73.4559921,3.45141243 C74.0528487,3.45141243 74.0528487,2.52542373 73.4559921,2.52542373 Z" id="XMLID_105_"></path>
                    </g>
                </g>
                <g id="Contract" transform="translate(344.000000, 23.000000)">
                    <rect id="XMLID_159_" fill="#697CCC" x="8.94562212" y="15.3509346" width="77.2036866" height="3.14672897"></rect>
                    <path d="M75.2958525,28.5757009 L9.41198157,28.5757009 C8.81843318,28.5757009 8.81843318,29.511215 9.41198157,29.511215 L75.2958525,29.511215 C75.8894009,29.511215 75.8894009,28.5757009 75.2958525,28.5757009 Z" id="XMLID_140_" fill="#003865"></path>
                    <path d="M75.2958525,38.9514019 L9.41198157,38.9514019 C8.81843318,38.9514019 8.81843318,39.8869159 9.41198157,39.8869159 L75.2958525,39.8869159 C75.8894009,39.8869159 75.8894009,38.9514019 75.2958525,38.9514019 Z" id="XMLID_139_" fill="#003865"></path>
                    <path d="M75.2958525,49.3696262 L9.41198157,49.3696262 C8.81843318,49.3696262 8.81843318,50.3051402 9.41198157,50.3051402 L75.2958525,50.3051402 C75.8894009,50.3051402 75.8894009,49.3696262 75.2958525,49.3696262 Z" id="XMLID_138_" fill="#003865"></path>
                    <path d="M75.2958525,59.7453271 L9.41198157,59.7453271 C8.81843318,59.7453271 8.81843318,60.6808411 9.41198157,60.6808411 L75.2958525,60.6808411 C75.8894009,60.6808411 75.8894009,59.7453271 75.2958525,59.7453271 Z" id="XMLID_137_" fill="#003865"></path>
                    <path d="M91.6184332,90.8724299 L0.296774194,90.8724299 L0.296774194,0.255140187 L91.6184332,0.255140187 L91.6184332,90.8724299 L91.6184332,90.8724299 Z M1.22949309,89.9369159 L90.643318,89.9369159 L90.643318,1.19065421 L1.22949309,1.19065421 L1.22949309,89.9369159 Z" id="XMLID_641_" fill="#697CCC"></path>
                    <path d="M32.1364055,82.9630841 L9.07281106,82.9630841 C8.47926267,82.9630841 8.47926267,83.8985981 9.07281106,83.8985981 L32.1364055,83.8985981 C32.7723502,83.8985981 32.7723502,82.9630841 32.1364055,82.9630841 Z" id="XMLID_122_" fill="#003865"></path>
                    <path d="M71.2258065,82.9630841 L52.8682028,82.9630841 C52.2746544,82.9630841 52.2746544,83.8985981 52.8682028,83.8985981 L71.2258065,83.8985981 C71.8193548,83.8985981 71.8193548,82.9630841 71.2258065,82.9630841 Z" id="XMLID_121_" fill="#003865"></path>
                    <path d="M64.8239631,79.3485981 C63.3400922,77.7752336 61.8562212,76.2443925 60.3723502,74.671028 C59.9483871,74.2457944 59.2700461,74.8836449 59.6940092,75.3514019 C61.1778802,76.9247664 62.6617512,78.4556075 64.1456221,80.028972 C64.5695853,80.4542056 65.2479263,79.7738318 64.8239631,79.3485981 Z" id="XMLID_120_" fill="#D24A43"></path>
                    <path d="M60.2875576,79.9439252 C61.8562212,78.4556075 63.3824885,76.9672897 64.9511521,75.478972 C65.3751152,75.0537383 64.7391705,74.3733645 64.2728111,74.7985981 C62.7041475,76.2869159 61.1778802,77.7752336 59.6092166,79.2635514 C59.1852535,79.688785 59.8635945,80.3266355 60.2875576,79.9439252 Z" id="XMLID_119_" fill="#D24A43"></path>
                </g>
                <g id="Cup" transform="translate(262.000000, 235.000000)">
                    <rect id="XMLID_155_" fill="#6C9CDB" x="5.30943396" y="11.6926829" width="15.4132075" height="22.1"></rect>
                    <path d="M8.75660377,28.3609756 C7.13207547,28.4439024 5.50754717,28.5682927 3.84339623,28.6097561 C3.01132075,28.6512195 1.82264151,28.7341463 1.30754717,27.7804878 C0.911320755,26.9512195 1.1490566,25.2926829 1.1490566,24.3804878 C1.10943396,22.597561 1.03018868,20.8146341 1.03018868,19.0317073 C1.03018868,14.9682927 3.92264151,15.0097561 6.7754717,15.7146341 C7.33018868,15.8390244 7.56792453,14.9682927 7.01320755,14.8439024 C5.1509434,14.3878049 2.77358491,13.8487805 1.18867925,15.4658537 C-0.475471698,17.2073171 0.158490566,20.4414634 0.198113208,22.597561 C0.237735849,24.297561 -0.396226415,28.0292683 1.18867925,29.2731707 C1.82264151,29.7707317 2.65471698,29.6463415 3.40754717,29.604878 C5.19056604,29.5219512 6.93396226,29.397561 8.71698113,29.3146341 C9.31132075,29.2731707 9.31132075,28.3195122 8.75660377,28.3609756 Z" id="XMLID_118_" fill="#6C9CDB"></path>
                    <path d="M12.6,7.29756098 C10.7773585,5.72195122 10.7377358,2.77804878 12.4811321,1.16097561 C12.9169811,0.787804878 12.2830189,0.124390244 11.8471698,0.497560976 C9.74716981,2.44634146 9.78679245,6.09512195 11.9660377,7.96097561 C12.4415094,8.33414634 13.0358491,7.67073171 12.6,7.29756098 Z" id="XMLID_112_" fill="#DEE7FF"></path>
                    <path d="M16.1264151,7.13170732 C14.3037736,5.55609756 14.2641509,2.61219512 16.0075472,0.995121951 C16.4433962,0.62195122 15.809434,-0.0414634146 15.3735849,0.331707317 C13.2735849,2.2804878 13.3132075,5.92926829 15.4924528,7.79512195 C15.9283019,8.16829268 16.5622642,7.50487805 16.1264151,7.13170732 Z" id="XMLID_111_" fill="#DEE7FF"></path>
                </g>
                <g id="Armchair" transform="translate(5.000000, 238.000000)">
                    <path d="M40,12.1477966 L40,123.747797 L0,123.747797 L0,0.25220339 L27.9574468,0.25220339 C34.5957447,0.25220339 40,5.59050847 40,12.1477966 Z" id="XMLID_654_" fill="#0B7A76"></path>
                    <path d="M29.9148936,12.4420339 L29.9148936,111.053559 C29.9148936,111.642034 30.8510638,111.642034 30.8510638,111.053559 L30.8510638,12.4420339 C30.8510638,11.8535593 29.9148936,11.8535593 29.9148936,12.4420339 Z" id="XMLID_89_" fill="#FFFFFF"></path>
                </g>
                <g id="Notebook" transform="translate(124.000000, 224.000000)">
                    <path d="M75.6490909,44.9150943 L26.0527273,44.9150943 L41.7345455,12.5235849 C42.2363636,11.5471698 43.1981818,10.9103774 44.3272727,10.9103774 L90.9963636,10.9103774 C91.54,10.9103774 91.8745455,11.4622642 91.6236364,11.9716981 L75.6490909,44.9150943 Z" id="XMLID_152_" fill="#000000"></path>
                    <path d="M36.7581818,43.8113208 L0.543636364,43.8113208 C-0.0418181818,43.8113208 -0.0418181818,44.745283 0.543636364,44.745283 L36.7581818,44.745283 C37.3436364,44.745283 37.3436364,43.8113208 36.7581818,43.8113208 Z" id="XMLID_151_" fill="#000000"></path>
                    <path d="M66.5327273,28.9103774 C65.8636364,31.1603774 64.0236364,31.8396226 62.1836364,31.245283 C60.3436364,30.6509434 59.2981818,28.5707547 59.8,26.7877358 C60.3436364,24.9198113 62.3927273,23.9009434 64.2327273,24.4528302 C66.0727273,25.004717 67.1181818,27.0424528 66.5327273,28.9103774 Z" id="XMLID_144_" fill="#FFFFFF"></path>
                    <path d="M33.9981818,11.759434 C30.5690909,9.16981132 27.1818182,6.53773585 23.7527273,3.94811321 C23.2927273,3.56603774 22.8327273,4.41509434 23.2927273,4.75471698 C26.7218182,7.34433962 30.1090909,9.97641509 33.5381818,12.5660377 C33.9981818,12.9481132 34.4581818,12.0990566 33.9981818,11.759434 Z" id="XMLID_114_" fill="#FECA55"></path>
                    <path d="M39.4345455,7.81132075 L35.0854545,1.86792453 C34.7509091,1.4009434 33.9145455,1.86792453 34.2909091,2.33490566 L38.64,8.27830189 C39.0163636,8.78773585 39.8109091,8.32075472 39.4345455,7.81132075 Z" id="XMLID_113_" fill="#FECA55"></path>
                    <path d="M56.4963636,0.849056604 L56.4963636,6.79245283 C56.4963636,7.38679245 57.4163636,7.38679245 57.4163636,6.79245283 L57.4163636,0.849056604 C57.4581818,0.212264151 56.4963636,0.212264151 56.4963636,0.849056604 Z" id="XMLID_106_" fill="#FECA55"></path>
                    <path d="M42.9890909,12.9481132 C41.4418182,15.9198113 39.8945455,18.9339623 38.3890909,21.9056604 C38.0963636,22.4575472 38.9327273,22.9245283 39.1836364,22.3726415 C40.7309091,19.4009434 42.2781818,16.3867925 43.7836364,13.4150943 C44.0763636,12.9056604 43.2818182,12.3962264 42.9890909,12.9481132 Z" id="XMLID_57_" fill="#FFFFFF"></path>
                    <path d="M75.0218182,3.01415094 C74.1018182,4.28773585 73.1818182,5.51886792 72.22,6.79245283 C71.8436364,7.25943396 72.68,7.76886792 73.0145455,7.25943396 C73.9345455,5.98584906 74.8545455,4.75471698 75.8163636,3.48113208 C76.1509091,3.01415094 75.3563636,2.54716981 75.0218182,3.01415094 Z" id="XMLID_56_" fill="#FECA55"></path>
                </g>
                <g id="Scheme" transform="translate(105.000000, 24.000000)">
                    <rect id="XMLID_164_" fill="#DEE7FF" x="34.964467" y="4.98970588" width="48.7370558" height="48.7455882"></rect>
                    <rect id="XMLID_163_" fill="#BCD7FD" x="34.964467" y="0.255882353" width="48.7370558" height="3.07058824"></rect>
                    <rect id="XMLID_162_" fill="#FECA55" x="12.493401" y="45.9308824" width="11.8538071" height="11.8558824"></rect>
                    <path d="M18.2497462,55.7823529 C18.1218274,55.7823529 17.951269,55.6970588 17.8659898,55.6117647 L14.7106599,51.5176471 C14.5401015,51.3044118 14.5827411,51.0058824 14.7959391,50.8352941 C15.0091371,50.6647059 15.3076142,50.7073529 15.4781726,50.9205882 L18.2071066,54.4602941 L21.6609137,48.1485294 C21.7888325,47.9352941 22.0873096,47.85 22.3005076,47.9779412 C22.5137056,48.1058824 22.5989848,48.4044118 22.471066,48.6176471 L18.6761421,55.5691176 C18.5908629,55.6970588 18.4203046,55.7823529 18.2497462,55.7823529 C18.2497462,55.7823529 18.2497462,55.7823529 18.2497462,55.7823529 Z" id="XMLID_640_" fill="#FFFFFF"></path>
                    <path d="M75.2162437,13.0073529 L43.4923858,13.0073529 C42.8954315,13.0073529 42.8954315,13.9455882 43.4923858,13.9455882 L75.2162437,13.9455882 C75.813198,13.9882353 75.813198,13.0073529 75.2162437,13.0073529 Z" id="XMLID_117_" fill="#FFFFFF"></path>
                    <path d="M75.2162437,20.5985294 L43.4923858,20.5985294 C42.8954315,20.5985294 42.8954315,21.5367647 43.4923858,21.5367647 L75.2162437,21.5367647 C75.813198,21.5367647 75.813198,20.5985294 75.2162437,20.5985294 Z" id="XMLID_116_" fill="#FFFFFF"></path>
                    <path d="M75.2162437,28.1897059 L43.4923858,28.1897059 C42.8954315,28.1897059 42.8954315,29.1279412 43.4923858,29.1279412 L75.2162437,29.1279412 C75.813198,29.1279412 75.813198,28.1897059 75.2162437,28.1897059 Z" id="XMLID_115_" fill="#FFFFFF"></path>
                    <rect id="XMLID_110_" fill="#FFFFFF" x="43.4923858" y="32.5823529" width="21.1492386" height="13.5617647"></rect>
                    <path d="M8.61319797,48.575 L0.810152284,48.575 C0.21319797,48.575 0.21319797,49.5132353 0.810152284,49.5132353 L8.61319797,49.5132353 C9.25279188,49.5132353 9.25279188,48.575 8.61319797,48.575 Z" id="XMLID_37_" fill="#DEE7FF"></path>
                    <path d="M8.61319797,52.8397059 L0.810152284,52.8397059 C0.21319797,52.8397059 0.21319797,53.7779412 0.810152284,53.7779412 L8.61319797,53.7779412 C9.25279188,53.7779412 9.25279188,52.8397059 8.61319797,52.8397059 Z" id="XMLID_36_" fill="#DEE7FF"></path>
                    <path d="M45.3258883,44.5235294 C45.1553299,44.5235294 45.0274112,44.4382353 44.942132,44.3102941 C44.8142132,44.0970588 44.8568528,43.7985294 45.0700508,43.6705882 L51.2101523,39.4058824 C51.3380711,39.3205882 51.5086294,39.2779412 51.6365482,39.3632353 L57.9472081,41.6235294 L62.4670051,35.2691176 C62.6375635,35.0558824 62.9360406,35.0132353 63.106599,35.1411765 C63.319797,35.3117647 63.3624365,35.6102941 63.2345178,35.7808824 L58.5015228,42.3911765 C58.3736041,42.5617647 58.1604061,42.6470588 57.9472081,42.5617647 L51.551269,40.2588235 L45.5817259,44.3955882 C45.5390863,44.4808824 45.4538071,44.5235294 45.3258883,44.5235294 Z" id="XMLID_628_" fill="#697CCC"></path>
                </g>
                <g id="Table" transform="translate(118.000000, 270.000000)">
                    <rect id="XMLID_158_" fill="#D24A43" x="21.7965517" y="31" width="154.012069" height="3.26756757"></rect>
                    <path d="M24.5844828,92.8743243 C24.8801724,92.622973 25.0491379,92.2459459 25.0491379,91.7432432 L25.0491379,2.01081081 C25.0491379,-0.0837837838 21.7543103,-0.0837837838 21.7543103,2.01081081 L21.7543103,91.7013514 C21.7543103,92.2040541 21.9655172,92.5810811 22.2189655,92.8324324 L24.5844828,92.8324324 L24.5844828,92.8743243 Z" id="XMLID_157_" fill="#6C9CDB"></path>
                    <path d="M177.287069,92.8743243 C177.582759,92.622973 177.751724,92.2459459 177.751724,91.7432432 L177.751724,2.01081081 C177.751724,-0.0837837838 174.456897,-0.0837837838 174.456897,2.01081081 L174.456897,91.7013514 C174.456897,92.2040541 174.668103,92.5810811 174.921552,92.8324324 L177.287069,92.8324324 L177.287069,92.8743243 Z" id="XMLID_156_" fill="#6C9CDB"></path>
                    <path d="M194.056897,0 L1.90086207,0 C-0.211206897,0 -0.211206897,3.26756757 1.90086207,3.26756757 L194.056897,3.26756757 C196.168966,3.26756757 196.168966,0 194.056897,0 Z" id="XMLID_150_" fill="#6C9CDB"></path>
                </g>
                <path d="M359.554245,362 L0.445754717,362 C-0.148584906,362 -0.148584906,362.998562 0.445754717,362.998562 L359.554245,362.998562 C360.148585,363.043951 360.148585,362 359.554245,362 Z" id="Shadow" fill="#697CCC"></path>
            </g>
        </g>
    </g>
</svg>