<svg width="41" height="41" viewBox="0 0 41 41" fill="none" xmlns="http://www.w3.org/2000/svg">
<circle cx="20.5" cy="20.5" r="20.5" fill="#3DCFB3"/>
<path d="M20.4453 12.0908C21.8848 12.0908 23.0378 12.5277 23.9043 13.4014C24.778 14.2751 25.2148 15.5319 25.2148 17.1719C25.2148 17.5156 25.1826 17.8522 25.1182 18.1816C25.0609 18.5111 24.9928 18.8011 24.9141 19.0518C24.8353 19.3024 24.71 19.5745 24.5381 19.8682C24.3734 20.1618 24.2337 20.3981 24.1191 20.5771C24.0117 20.7562 23.8363 20.9854 23.5928 21.2646C23.3564 21.5439 23.181 21.748 23.0664 21.877C22.9518 21.9987 22.7585 22.2028 22.4863 22.4893L19.3711 25.7656H25.0967V28H16.0303V26.0342L20.5527 21.0068C20.918 20.5986 21.1686 20.3193 21.3047 20.1689C21.4408 20.0114 21.6198 19.7858 21.8418 19.4922C22.071 19.1914 22.2249 18.9515 22.3037 18.7725C22.3825 18.5934 22.4541 18.375 22.5186 18.1172C22.5902 17.8594 22.626 17.5908 22.626 17.3115C22.626 17.1038 22.6009 16.8174 22.5508 16.4521C22.4863 16.0583 22.3789 15.7253 22.2285 15.4531C22.0853 15.1738 21.9062 14.9626 21.6914 14.8193C21.4837 14.6689 21.2581 14.5615 21.0146 14.4971C20.7783 14.4326 20.5098 14.4004 20.209 14.4004C20.0085 14.4004 19.8008 14.4183 19.5859 14.4541C19.3711 14.4827 19.1634 14.5257 18.9629 14.583C18.7624 14.6331 18.5618 14.694 18.3613 14.7656C18.1608 14.8301 17.9746 14.9017 17.8027 14.9805C17.6309 15.0521 17.4626 15.1273 17.2979 15.2061C17.1403 15.2777 17.0007 15.3493 16.8789 15.4209C16.7572 15.4854 16.6497 15.5462 16.5566 15.6035C16.4635 15.6536 16.3919 15.6966 16.3418 15.7324L16.2666 15.7754L15.3535 13.6377C15.4108 13.5947 15.4896 13.541 15.5898 13.4766C15.6973 13.4049 15.9264 13.2796 16.2773 13.1006C16.6283 12.9215 16.9863 12.764 17.3516 12.6279C17.724 12.4919 18.193 12.3701 18.7588 12.2627C19.3245 12.1481 19.8867 12.0908 20.4453 12.0908Z" fill="white"/>
</svg>
