<svg height="34" viewBox="0 0 31 34" width="31" xmlns="http://www.w3.org/2000/svg"><path d="m29.3636364 27.0454545h-9.5509091c-.467318-1.312579-1.5001483-2.3454092-2.8127273-2.8127272v-4.9145455h4.8990909c3.3868762.1112816 6.322338-2.326765 6.8346532-5.6765183.5123152-3.3497532-1.5602485-6.55373311-4.8255623-7.45984532-1.6977729-3.7618283-5.6774738-5.94875959-9.763194-5.36508527-4.0857202.58367431-7.29389223 3.79744458-7.87044235 7.88417618-2.60071807.72930139-4.26482452 3.26535831-3.89866163 5.94146371.36616288 2.6761053 2.65035207 4.6719297 5.35138891 4.675809h6.18181817v4.9145455c-1.312579.467318-2.3454093 1.5001482-2.8127273 2.8127272h-9.55090905c-.85353098 0-1.54545455.6919236-1.54545455 1.5454546s.69192357 1.5454545 1.54545455 1.5454545h9.55090905c.6655115 1.8336099 2.4075331 3.0545549 4.3581819 3.0545549 1.9506487 0 3.6926703-1.220945 4.3581818-3.0545549h9.5509091c.8535309 0 1.5454545-.6919235 1.5454545-1.5454545s-.6919236-1.5454546-1.5454545-1.5454546zm-21.63636367-10.8181818c-1.28029647 0-2.31818182-1.0378853-2.31818182-2.3181818s1.03788535-2.3181818 2.31818182-2.3181818c.85353097 0 1.54545454-.6919236 1.54545454-1.5454546-.0083513-3.03078096 2.18178603-5.62064963 5.17185843-6.11579641 2.9900724-.49514677 5.8981532 1.25047268 6.8672325 4.12216009.1799999.54112347.6433697.93914627 1.2054545 1.03545455 1.7278738.28814254 2.9914215 1.78737797 2.9827273 3.53909087-.0084658 1.98521-1.6156991 3.5924433-3.6009091 3.6009091zm7.72727277 13.9090909c-.853531 0-1.5454546-.6919235-1.5454546-1.5454545s.6919236-1.5454546 1.5454546-1.5454546c.8535309 0 1.5454545.6919236 1.5454545 1.5454546s-.6919236 1.5454545-1.5454545 1.5454545z" fill="#0b7a76"/></svg>