<?xml version="1.0" encoding="UTF-8"?>
<svg width="32px" height="32px" viewBox="0 0 32 32" version="1.1" xmlns="http://www.w3.org/2000/svg" xmlns:xlink="http://www.w3.org/1999/xlink">
    <!-- Generator: Sketch 52.6 (67491) - http://www.bohemiancoding.com/sketch -->
    <title>checkmark-square-outline</title>
    <desc>Created with Sketch.</desc>
    <g id="Landing-3" stroke="none" stroke-width="1" fill="none" fill-rule="evenodd">
        <g id="1.1--Features" transform="translate(-712.000000, -8325.000000)" fill="#7CE0AD" fill-rule="nonzero">
            <g id="Group-8" transform="translate(194.000000, 7575.000000)">
                <g id="checkmark-square-outline" transform="translate(518.000000, 750.000000)">
                    <path d="M30.2222222,15.6977778 C29.2403827,15.6977778 28.4444444,16.493716 28.4444444,17.4755556 L28.4444444,27.3777778 C28.4444444,27.9668815 27.9668815,28.4444444 27.3777778,28.4444444 L4.62222222,28.4444444 C4.03311849,28.4444444 3.55555556,27.9668815 3.55555556,27.3777778 L3.55555556,4.62222222 C3.55555556,4.03311849 4.03311849,3.55555556 4.62222222,3.55555556 L21.6355556,3.55555556 C22.6173951,3.55555556 23.4133333,2.75961733 23.4133333,1.77777778 C23.4133333,0.795938223 22.6173951,0 21.6355556,0 L4.62222222,0 C2.07348751,0.00974670222 0.00974670222,2.07348751 0,4.62222222 L0,27.3777778 C0.00974670222,29.9265125 2.07348751,31.9902533 4.62222222,32 L27.3777778,32 C29.9265125,31.9902533 31.9902533,29.9265125 32,27.3777778 L32,17.4755556 C32,16.493716 31.2040618,15.6977778 30.2222222,15.6977778 Z" id="Path"></path>
                    <path d="M13.7244444,14.2222222 C13.0324343,13.599881 11.9775619,13.6165934 11.3056137,14.2605438 C10.6336655,14.9044942 10.5721004,15.9577011 11.1644444,16.6755556 L15.1111111,20.8177778 C15.4449935,21.1680272 15.907222,21.3670422 16.3911111,21.3688889 C16.8723801,21.3716998 17.3342253,21.1792643 17.6711111,20.8355556 L29.7244444,8.39111111 C30.1690416,7.93381116 30.3358998,7.2740588 30.162165,6.66037636 C29.9884302,6.04669392 29.5004969,5.57231437 28.882165,5.4159319 C28.263833,5.25954943 27.6090416,5.44492225 27.1644444,5.90222222 L16.4088889,17.0311111 L13.7244444,14.2222222 Z" id="Path"></path>
                </g>
            </g>
        </g>
    </g>
</svg>