<?xml version="1.0" encoding="UTF-8"?>
<svg width="32px" height="32px" viewBox="0 0 32 32" version="1.1" xmlns="http://www.w3.org/2000/svg" xmlns:xlink="http://www.w3.org/1999/xlink">
    <!-- Generator: Sketch 52.6 (67491) - http://www.bohemiancoding.com/sketch -->
    <title>crosshairs</title>
    <desc>Created with Sketch.</desc>
    <g id="Landing-3" stroke="none" stroke-width="1" fill="none" fill-rule="evenodd">
        <g id="1.2--Use-cases" transform="translate(-282.000000, -1505.000000)" fill="#F06449" fill-rule="nonzero">
            <g id="Group-2" transform="translate(187.000000, 798.000000)">
                <g id="crosshairs" transform="translate(95.000000, 707.000000)">
                    <path d="M30.4,14.4 L28.688,14.4 C27.9534633,8.6076955 23.3923045,4.04653671 17.6,3.312 L17.6,1.6 C17.6,0.7163444 16.8836556,0 16,0 C15.1163444,0 14.4,0.7163444 14.4,1.6 L14.4,3.312 C8.6076955,4.04653671 4.04653671,8.6076955 3.312,14.4 L1.6,14.4 C0.7163444,14.4 0,15.1163444 0,16 C0,16.8836556 0.7163444,17.6 1.6,17.6 L3.312,17.6 C4.04653671,23.3923045 8.6076955,27.9534633 14.4,28.688 L14.4,30.4 C14.4,31.2836556 15.1163444,32 16,32 C16.8836556,32 17.6,31.2836556 17.6,30.4 L17.6,28.688 C23.3923045,27.9534633 27.9534633,23.3923045 28.688,17.6 L30.4,17.6 C31.2836556,17.6 32,16.8836556 32,16 C32,15.1163444 31.2836556,14.4 30.4,14.4 Z M16,25.6 C10.6980664,25.6 6.4,21.3019336 6.4,16 C6.4,10.6980664 10.6980664,6.4 16,6.4 C21.3019336,6.4 25.6,10.6980664 25.6,16 C25.6,18.5460783 24.5885743,20.9878759 22.7882251,22.7882251 C20.9878759,24.5885743 18.5460783,25.6 16,25.6 Z M16,11.2 C13.3490332,11.2 11.2,13.3490332 11.2,16 C11.2,18.6509668 13.3490332,20.8 16,20.8 C18.6509668,20.8 20.8,18.6509668 20.8,16 C20.8,13.3490332 18.6509668,11.2 16,11.2 Z M16,17.6 C15.1163444,17.6 14.4,16.8836556 14.4,16 C14.4,15.1163444 15.1163444,14.4 16,14.4 C16.8836556,14.4 17.6,15.1163444 17.6,16 C17.6,16.8836556 16.8836556,17.6 16,17.6 Z" id="Shape"></path>
                </g>
            </g>
        </g>
    </g>
</svg>