<?xml version="1.0" encoding="UTF-8"?>
<svg width="34px" height="32px" viewBox="0 0 34 32" version="1.1" xmlns="http://www.w3.org/2000/svg" xmlns:xlink="http://www.w3.org/1999/xlink">
    <!-- Generator: Sketch 52.6 (67491) - http://www.bohemiancoding.com/sketch -->
    <title>star-outline</title>
    <desc>Created with Sketch.</desc>
    <g id="Landing-3" stroke="none" stroke-width="1" fill="none" fill-rule="evenodd">
        <g id="1.2--Use-cases" transform="translate(-703.000000, -1862.000000)" fill="#EFC559" fill-rule="nonzero">
            <g id="Group-2" transform="translate(187.000000, 798.000000)">
                <g id="star-outline" transform="translate(516.000000, 1063.000000)">
                    <path d="M26.1690401,32.9876218 C25.8998235,32.988705 25.6342735,32.9252039 25.3946709,32.8024465 L16.8092738,28.3077386 L8.22387666,32.8024465 C7.65510823,33.1015265 6.96568737,33.0507111 6.44691611,32.6714714 C5.92814486,32.2922317 5.67053329,31.6507338 5.78293042,31.0180307 L7.46634162,21.5404256 L0.530687463,14.8067808 C0.0897283841,14.3667389 -0.0721683476,13.719152 0.109834662,13.1233696 C0.308888167,12.5130015 0.837780261,12.0689933 1.47339774,11.9786499 L11.0688416,10.5814186 L15.2942037,1.94551917 C15.5754789,1.36475858 16.1639843,0.995889894 16.8092738,0.995889894 C17.4545633,0.995889894 18.0430687,1.36475858 18.3243439,1.94551917 L22.6002083,10.5645845 L32.1956522,11.9618158 C32.8312697,12.0521592 33.3601618,12.4961674 33.5592153,13.1065354 C33.7412183,13.7023178 33.5793216,14.3499048 33.1383625,14.7899466 L26.2027083,21.5235915 L27.8861195,31.0011965 C28.0088283,31.6456015 27.7460304,32.3025964 27.212755,32.6846077 C26.9079194,32.898227 26.5408778,33.0047874 26.1690401,32.9876218 Z M16.8092738,24.7389069 C17.0791235,24.7320933 17.3460681,24.7959278 17.583643,24.9240821 L23.9301032,28.2909045 L22.7180471,21.2037433 C22.6225632,20.6542976 22.8053844,20.0932257 23.2062364,19.7055074 L28.25647,14.7731125 L21.1861429,13.7293976 C20.6602976,13.6235279 20.216384,13.2733988 19.990921,12.7866873 L16.8092738,6.4738953 L13.6276266,12.7866873 C13.380432,13.2776622 12.9090966,13.6170236 12.3650682,13.6957294 L5.29474117,14.7394443 L10.3449748,19.6718391 C10.7458268,20.0595575 10.9286479,20.6206293 10.833164,21.1700751 L9.62110796,28.1730657 L15.9675682,24.8062433 C16.236484,24.7062697 16.5278841,24.6829577 16.8092738,24.7389069 Z" id="Shape"></path>
                </g>
            </g>
        </g>
    </g>
</svg>