<svg width="48" height="48" viewBox="0 0 48 48" fill="none" xmlns="http://www.w3.org/2000/svg">
<rect width="48" height="48" rx="9" fill="#417BD2"/>
<path fill-rule="evenodd" clip-rule="evenodd" d="M13.5 18.6162C13.5 12.8918 18.1587 8.16919 23.9642 8.16919C29.698 8.16919 34.4283 12.8203 34.5 18.6162C34.5 21.6215 33.2099 24.3406 31.1314 26.2726V39.3672C31.1314 39.9396 30.8447 40.369 30.4147 40.6552C30.1997 40.7268 29.913 40.7983 29.698 40.7983C29.4113 40.7983 29.1246 40.7268 28.9096 40.5836L24.0358 37.5068L19.1621 40.5836C18.7321 40.8699 18.1587 40.8699 17.7287 40.6552C17.2986 40.369 17.0119 39.8681 17.0119 39.3672V26.4157C14.8618 24.4838 13.5 21.6931 13.5 18.6162ZM28.0495 36.6302V28.1331C26.7594 28.7055 25.3259 29.0633 23.8208 29.0633C22.3874 29.0633 21.0256 28.7771 19.7355 28.2046V36.7197L23.1758 34.573C23.6775 34.2868 24.2509 34.2868 24.7526 34.573L28.0495 36.6302ZM16.3669 18.6162C16.3669 22.7664 19.7355 26.2011 23.9642 26.2011C28.1212 26.2011 31.5614 22.838 31.5614 18.6162C31.5614 14.3945 28.1212 11.0314 23.9642 11.0314C19.8072 11.0314 16.3669 14.3945 16.3669 18.6162ZM18.5699 18.7051C18.5699 15.7303 20.9707 13.2963 23.9051 13.2963C26.8394 13.2963 29.2402 15.7303 29.2402 18.7051C29.2402 21.6799 26.8394 24.1139 23.9051 24.1139C20.9707 24.1139 18.5699 21.6799 18.5699 18.7051ZM21.2375 18.7051C21.2375 20.1925 22.4379 21.4095 23.9051 21.4095C25.3722 21.4095 26.5727 20.1925 26.5727 18.7051C26.5727 17.2177 25.3722 16.0007 23.9051 16.0007C22.4379 16.0007 21.2375 17.2177 21.2375 18.7051Z" fill="white"/>
</svg>
