<svg width="48" height="48" viewBox="0 0 48 48" fill="none" xmlns="http://www.w3.org/2000/svg">
<rect width="48" height="48" rx="9" fill="#417BD2"/>
<path fill-rule="evenodd" clip-rule="evenodd" d="M28.8107 24.1893C29.3964 24.7751 29.3964 25.7249 28.8107 26.3107L23.8107 31.3107C23.5294 31.592 23.1478 31.75 22.75 31.75C22.3522 31.75 21.9706 31.592 21.6893 31.3107L19.1893 28.8107C18.6036 28.2249 18.6036 27.2751 19.1893 26.6893C19.7751 26.1036 20.7249 26.1036 21.3107 26.6893L22.75 28.1287L26.6893 24.1893C27.2751 23.6036 28.2249 23.6036 28.8107 24.1893Z" fill="white"/>
<path fill-rule="evenodd" clip-rule="evenodd" d="M16.5 11.25L25.9539 11.25C26.7199 11.25 27.4512 11.5695 27.9717 12.1316L33.5178 18.1215C33.9885 18.6298 34.25 19.2971 34.25 19.9898V34C34.25 35.5188 33.0188 36.75 31.5 36.75H16.5C14.9812 36.75 13.75 35.5188 13.75 34L13.75 14C13.75 12.4812 14.9812 11.25 16.5 11.25ZM16.75 14.25L16.75 33.75H31.25L31.25 20.0878L25.8446 14.25L16.75 14.25ZM31.3166 20.1597C31.3165 20.1596 31.3164 20.1595 31.3163 20.1594L31.3166 20.1597Z" fill="white"/>
<path fill-rule="evenodd" clip-rule="evenodd" d="M25.25 11.25C26.0784 11.25 26.75 11.9216 26.75 12.75L26.75 18.75L32.75 18.75C33.5784 18.75 34.25 19.4216 34.25 20.25C34.25 21.0784 33.5784 21.75 32.75 21.75L26.5 21.75C24.9812 21.75 23.75 20.5188 23.75 19L23.75 12.75C23.75 11.9216 24.4216 11.25 25.25 11.25Z" fill="white"/>
</svg>
