<svg width="24" height="29" viewBox="0 0 24 29" fill="none" xmlns="http://www.w3.org/2000/svg">
<g opacity="0.1">
<path d="M0.382812 16.6499V2.83293C0.382812 1.66584 1.30713 0.719727 2.44733 0.719727H11.9957H21.5441C22.6843 0.719727 23.6086 1.66584 23.6086 2.83294V16.65C23.6086 19.3862 22.2296 21.9288 19.9608 23.3758L13.0875 27.7593C12.4192 28.1855 11.5722 28.1855 10.904 27.7593L4.03067 23.3758C1.76185 21.9288 0.382812 19.3862 0.382812 16.6499Z" fill="#417BD2"/>
<path fill-rule="evenodd" clip-rule="evenodd" d="M12 28.0789V0.719727H21.5441C22.6843 0.719727 23.6086 1.66584 23.6086 2.83294V16.65C23.6086 19.3862 22.2296 21.9288 19.9608 23.3758L13.0875 27.7593C12.7546 27.9716 12.3774 28.0781 12 28.0789Z" fill="#316ABF"/>
<path fill-rule="evenodd" clip-rule="evenodd" d="M2.45161 1.11191C1.5252 1.11191 0.774194 1.87649 0.774194 2.81964V16.5622C0.774194 19.1476 2.08428 21.5501 4.23966 22.9173L11.113 27.2772C11.6559 27.6217 12.3441 27.6217 12.887 27.2772L19.7603 22.9173C21.9157 21.5501 23.2258 19.1476 23.2258 16.5622V2.81965C23.2258 1.87649 22.4748 1.11191 21.5484 1.11191H2.45161ZM0 2.81964C0 1.44119 1.09762 0.32373 2.45161 0.32373H21.5484C22.9024 0.32373 24 1.44119 24 2.81965V16.5622C24 19.4198 22.552 22.0752 20.1698 23.5863L13.2965 27.9462C12.5029 28.4496 11.4971 28.4496 10.7035 27.9462L3.83025 23.5863C1.44799 22.0752 0 19.4198 0 16.5622V2.81964Z" fill="#417BD2"/>
<path fill-rule="evenodd" clip-rule="evenodd" d="M7.49835 9.92085C8.41734 8.25112 10.1665 7.12158 12.1746 7.12158C14.6881 7.12158 16.797 8.89068 17.3791 11.2789C18.9879 11.5309 20.2203 12.9535 20.2203 14.6707C20.2203 16.5659 18.7194 18.1022 16.8679 18.1022H8.15175C5.93 18.1022 4.12891 16.2586 4.12891 13.9845C4.12891 11.938 5.58708 10.2406 7.49835 9.92085ZM12.1746 8.49416C10.5684 8.49416 9.18071 9.45767 8.5356 10.8539C8.4315 11.0792 8.21625 11.229 7.97329 11.2453C6.57565 11.3389 5.46986 12.5298 5.46986 13.9845C5.46986 15.5006 6.67058 16.7296 8.15175 16.7296H16.8679C17.9788 16.7296 18.8794 15.8078 18.8794 14.6707C18.8794 13.5337 17.9788 12.6119 16.8679 12.6119C16.856 12.6119 16.8441 12.612 16.8321 12.6122C16.4941 12.6182 16.2046 12.3657 16.1567 12.0231C15.8781 10.0281 14.2008 8.49416 12.1746 8.49416Z" fill="white"/>
</g>
</svg>
