<svg width="16" height="16" viewBox="0 0 16 16" fill="none" xmlns="http://www.w3.org/2000/svg">
<path fill-rule="evenodd" clip-rule="evenodd" d="M10.0007 5.99984C10.0007 5.44755 10.4484 4.99984 11.0007 4.99984C11.5529 4.99984 12.0007 5.44755 12.0007 5.99984C12.0007 6.55212 11.5529 6.99984 11.0007 6.99984C10.4484 6.99984 10.0007 6.55212 10.0007 5.99984ZM11.0007 3.6665C9.71199 3.6665 8.66732 4.71117 8.66732 5.99984C8.66732 7.2885 9.71199 8.33317 11.0007 8.33317C12.0601 8.33317 12.9546 7.62709 13.2393 6.65983C13.2703 6.66423 13.3019 6.6665 13.334 6.6665H14.0007C14.3688 6.6665 14.6673 6.36803 14.6673 5.99984C14.6673 5.63165 14.3688 5.33317 14.0007 5.33317H13.334C13.3019 5.33317 13.2703 5.33545 13.2393 5.33984C12.9546 4.37259 12.0601 3.6665 11.0007 3.6665ZM5.00065 8.99984C4.44837 8.99984 4.00065 9.44755 4.00065 9.99984C4.00065 10.5521 4.44837 10.9998 5.00065 10.9998C5.55294 10.9998 6.00065 10.5521 6.00065 9.99984C6.00065 9.44755 5.55294 8.99984 5.00065 8.99984ZM5.00065 12.3332C3.94364 12.3332 3.05079 11.6303 2.76394 10.6665H2.00065C1.63246 10.6665 1.33398 10.368 1.33398 9.99984C1.33398 9.63165 1.63246 9.33317 2.00065 9.33317H2.76394C3.05079 8.36934 3.94364 7.6665 5.00065 7.6665C6.28932 7.6665 7.33398 8.71117 7.33398 9.99984C7.33398 11.2885 6.28932 12.3332 5.00065 12.3332ZM9.33398 9.33317C8.96579 9.33317 8.66732 9.63165 8.66732 9.99984C8.66732 10.368 8.96579 10.6665 9.33398 10.6665L14.0007 10.6665C14.3688 10.6665 14.6673 10.368 14.6673 9.99984C14.6673 9.63165 14.3688 9.33317 14.0007 9.33317L9.33398 9.33317ZM1.33398 5.99984C1.33398 5.63165 1.63246 5.33317 2.00065 5.33317H6.66732C7.03551 5.33317 7.33398 5.63165 7.33398 5.99984C7.33398 6.36803 7.03551 6.6665 6.66732 6.6665H2.00065C1.63246 6.6665 1.33398 6.36803 1.33398 5.99984Z" fill="#45B4C8"/>
</svg>
