<svg width="24" height="28" viewBox="0 0 24 28" fill="none" xmlns="http://www.w3.org/2000/svg">
<g opacity="0.1">
<path d="M0.382812 16.3264V2.50939C0.382812 1.34229 1.30713 0.396179 2.44733 0.396179H11.9957H21.5441C22.6843 0.396179 23.6086 1.3423 23.6086 2.50939V16.3264C23.6086 19.0626 22.2296 21.6053 19.9608 23.0522L13.0875 27.4358C12.4192 27.862 11.5722 27.862 10.904 27.4358L4.03067 23.0522C1.76185 21.6053 0.382812 19.0626 0.382812 16.3264Z" fill="#45B4C8"/>
<path fill-rule="evenodd" clip-rule="evenodd" d="M12 27.7554V0.396179H21.5441C22.6843 0.396179 23.6086 1.3423 23.6086 2.50939V16.3264C23.6086 19.0626 22.2296 21.6053 19.9608 23.0522L13.0875 27.4358C12.7546 27.6481 12.3774 27.7546 12 27.7554Z" fill="#22A5BB"/>
<path fill-rule="evenodd" clip-rule="evenodd" d="M2.45161 0.788183C1.5252 0.788183 0.774194 1.55276 0.774194 2.49591V16.2385C0.774194 18.8239 2.08428 21.2264 4.23966 22.5936L11.113 26.9535C11.6559 27.2979 12.3441 27.2979 12.887 26.9535L19.7603 22.5936C21.9157 21.2264 23.2258 18.8239 23.2258 16.2385V2.49592C23.2258 1.55276 22.4748 0.788183 21.5484 0.788183H2.45161ZM0 2.49591C0 1.11746 1.09762 0 2.45161 0H21.5484C22.9024 0 24 1.11746 24 2.49592V16.2385C24 19.096 22.552 21.7514 20.1698 23.2625L13.2965 27.6225C12.5029 28.1258 11.4971 28.1258 10.7035 27.6225L3.83025 23.2626C1.44799 21.7514 0 19.096 0 16.2385V2.49591Z" fill="#45B4C8"/>
<path fill-rule="evenodd" clip-rule="evenodd" d="M12.8388 5.01923H7.86905C7.0849 5.01923 6.44922 5.6699 6.44922 6.47254V18.0991C6.44922 18.9017 7.0849 19.5524 7.86905 19.5524H16.388C17.1722 19.5524 17.8079 18.9017 17.8079 18.0991V10.1295C17.8081 10.1216 17.8082 10.1137 17.8082 10.1058C17.8082 10.0979 17.8081 10.09 17.8079 10.0822V9.95459C17.8079 9.58847 17.6728 9.23584 17.4298 8.9672L14.28 5.48515C14.0113 5.18809 13.6337 5.01923 13.2382 5.01923H12.8388ZM12.1289 6.47254L7.86905 6.47254L7.86905 18.0991H16.388L16.388 10.8325H13.5487C12.7646 10.8325 12.1289 10.1818 12.1289 9.37917L12.1289 6.47254ZM15.8675 9.37917H13.5487L13.5487 6.81584L15.8675 9.37917ZM14.0439 12.4993C13.7667 12.2155 13.3172 12.2155 13.04 12.4993C12.7627 12.7831 12.7627 13.2431 13.04 13.5269L13.9578 14.4664L13.04 15.4059C12.7627 15.6897 12.7627 16.1498 13.04 16.4336C13.3172 16.7173 13.7667 16.7173 14.0439 16.4336L15.4638 14.9802C15.741 14.6965 15.741 14.2364 15.4638 13.9526L14.0439 12.4993ZM11.2138 12.4993C11.491 12.7831 11.491 13.2431 11.2138 13.5269L10.2959 14.4664L11.2138 15.4059C11.491 15.6897 11.491 16.1498 11.2138 16.4336C10.9365 16.7173 10.487 16.7173 10.2098 16.4336L8.78996 14.9802C8.65683 14.844 8.58203 14.6591 8.58203 14.4664C8.58203 14.2737 8.65683 14.0889 8.78996 13.9526L10.2098 12.4993C10.487 12.2155 10.9365 12.2155 11.2138 12.4993Z" fill="white"/>
</g>
</svg>
