<svg width="24" height="28" viewBox="0 0 24 28" fill="none" xmlns="http://www.w3.org/2000/svg">
<path d="M0.382812 16.3262V2.5092C0.382812 1.34211 1.30713 0.395996 2.44733 0.395996H11.9957H21.5441C22.6843 0.395996 23.6086 1.34211 23.6086 2.50921V16.3262C23.6086 19.0624 22.2296 21.6051 19.9608 23.052L13.0875 27.4356C12.4192 27.8618 11.5722 27.8618 10.904 27.4356L4.03067 23.052C1.76185 21.6051 0.382812 19.0624 0.382812 16.3262Z" fill="#D9FCFF"/>
<path fill-rule="evenodd" clip-rule="evenodd" d="M12 27.7552V0.395996H21.5441C22.6843 0.395996 23.6086 1.34211 23.6086 2.50921V16.3262C23.6086 19.0624 22.2296 21.6051 19.9608 23.052L13.0875 27.4356C12.7546 27.6479 12.3774 27.7544 12 27.7552Z" fill="#BDF2F7"/>
<path fill-rule="evenodd" clip-rule="evenodd" d="M2.45161 0.788183C1.5252 0.788183 0.774194 1.55276 0.774194 2.49591V16.2385C0.774194 18.8239 2.08428 21.2264 4.23966 22.5936L11.113 26.9535C11.6559 27.2979 12.3441 27.2979 12.887 26.9535L19.7603 22.5936C21.9157 21.2264 23.2258 18.8239 23.2258 16.2385V2.49592C23.2258 1.55276 22.4748 0.788183 21.5484 0.788183H2.45161ZM0 2.49591C0 1.11746 1.09762 0 2.45161 0H21.5484C22.9024 0 24 1.11746 24 2.49592V16.2385C24 19.096 22.552 21.7514 20.1698 23.2625L13.2965 27.6225C12.5029 28.1258 11.4971 28.1258 10.7035 27.6225L3.83025 23.2626C1.44799 21.7514 0 19.096 0 16.2385V2.49591Z" fill="#BDF2F7"/>
<path fill-rule="evenodd" clip-rule="evenodd" d="M16.9886 5.54688C16.5372 5.54688 16.1712 5.92151 16.1712 6.38365V7.76022C15.5589 7.24388 14.8546 6.84509 14.0915 6.58904C12.7886 6.15187 11.3832 6.15376 10.0815 6.59441C8.77978 7.03506 7.65037 7.89127 6.85908 9.03733C6.06778 10.1834 5.65629 11.5589 5.685 12.962C5.71371 14.3651 6.18112 15.7218 7.01861 16.8329C7.8561 17.9441 9.01954 18.7511 10.3381 19.1356C11.6567 19.5201 13.061 19.4617 14.3448 18.9691C15.6286 18.4765 16.7243 17.5755 17.471 16.3985C17.7169 16.011 17.6093 15.4927 17.2307 15.241C16.852 14.9893 16.3457 15.0995 16.0998 15.4871C15.5436 16.3639 14.7273 17.035 13.7709 17.402C12.8145 17.769 11.7684 17.8125 10.7861 17.5261C9.80374 17.2397 8.93702 16.6384 8.31312 15.8107C7.68922 14.9829 7.34101 13.9722 7.31962 12.927C7.29823 11.8817 7.60478 10.857 8.19427 10.0032C8.78376 9.14943 9.62513 8.51158 10.5949 8.18331C11.5646 7.85504 12.6116 7.85364 13.5822 8.17931C14.1863 8.38202 14.741 8.70481 15.2164 9.12518H13.4928C13.0413 9.12518 12.6753 9.49981 12.6753 9.96195C12.6753 10.4241 13.0413 10.7987 13.4928 10.7987H16.9886C17.4401 10.7987 17.8061 10.4241 17.8061 9.96195V6.38365C17.8061 5.92151 17.4401 5.54688 16.9886 5.54688Z" fill="#009CB7"/>
</svg>
