<?xml version="1.0" encoding="UTF-8"?>
<svg width="63px" height="63px" viewBox="0 0 63 63" version="1.1" xmlns="http://www.w3.org/2000/svg" xmlns:xlink="http://www.w3.org/1999/xlink">
    <!-- Generator: Sketch 52.6 (67491) - http://www.bohemiancoding.com/sketch -->
    <title>icon</title>
    <desc>Created with Sketch.</desc>
    <defs>
        <linearGradient x1="139.22371%" y1="90.8823165%" x2="-135.568576%" y2="-43.8492063%" id="linearGradient-1">
            <stop stop-color="#FFFFFF" stop-opacity="0.219241696" offset="0%"></stop>
            <stop stop-color="#0099FF" offset="100%"></stop>
        </linearGradient>
    </defs>
    <g id="Website" stroke="none" stroke-width="1" fill="none" fill-rule="evenodd">
        <g id="Solutions-Marketing" transform="translate(-935.000000, -1636.000000)">
            <g id="Solutions" transform="translate(150.000000, 1474.000000)">
                <g id="features" transform="translate(0.000000, 162.000000)">
                    <g id="ad" transform="translate(785.000000, 0.000000)">
                        <g id="icon">
                            <rect id="Rectangle" fill="url(#linearGradient-1)" x="0" y="0" width="63" height="63" rx="9"></rect>
                            <g id="info" transform="translate(14.000000, 14.000000)" fill="#029AFF" fill-rule="nonzero">
                                <path d="M32.4278601,0 L2.52057613,0 C1.13080247,0 0,1.13080247 0,2.52057613 L0,32.4280041 C0,33.8179218 1.13080247,34.9485802 2.52057613,34.9485802 L32.4278601,34.9485802 C33.8176337,34.9485802 34.9484362,33.8179218 34.9484362,32.4280041 L34.9484362,2.52057613 C34.9484362,1.13080247 33.8176337,0 32.4278601,0 Z M32.7879424,32.4280041 C32.7879424,32.6231687 32.6230247,32.7880864 32.4278601,32.7880864 L2.52057613,32.7880864 C2.32541152,32.7880864 2.16049383,32.6231687 2.16049383,32.4280041 L2.16049383,2.52057613 C2.16049383,2.32541152 2.32541152,2.16049383 2.52057613,2.16049383 L32.4278601,2.16049383 C32.6230247,2.16049383 32.7879424,2.32541152 32.7879424,2.52057613 L32.7879424,32.4280041 Z" id="Shape"></path>
                                <path d="M14.7276543,5.85436214 L5.27246914,5.85436214 C4.4782716,5.85436214 3.83213992,6.50049383 3.83213992,7.29469136 L3.83213992,11.3810494 C3.83213992,12.1752469 4.4782716,12.8213786 5.27246914,12.8213786 L14.7276543,12.8213786 C15.5218519,12.8213786 16.1679835,12.1752469 16.1679835,11.3810494 L16.1679835,7.29469136 C16.1679835,6.50063786 15.5218519,5.85436214 14.7276543,5.85436214 Z M14.7254938,11.3811934 L5.27246914,11.3811934 L5.27246914,7.29469136 L14.7276543,7.29469136 L14.7254938,11.3811934 Z M14.7276543,12.101358 L14.7276543,11.3811934 C14.7276543,11.3811934 14.7276543,11.3811934 14.7277984,11.3811934 L14.7276543,12.101358 Z" id="Shape"></path>
                                <path d="M29.6761111,22.645144 L20.2209259,22.645144 C19.4267284,22.645144 18.7805967,23.2912757 18.7805967,24.0854733 L18.7805967,28.1718313 C18.7805967,28.9660288 19.4267284,29.6121605 20.2209259,29.6121605 L29.6761111,29.6121605 C30.4703086,29.6121605 31.1164403,28.9660288 31.1164403,28.1718313 L31.1164403,24.0854733 C31.1164403,23.2912757 30.4703086,22.645144 29.6761111,22.645144 Z M29.6739506,28.1718313 L20.2209259,28.1718313 L20.2209259,24.0854733 L29.6761111,24.0854733 L29.6739506,28.1718313 Z M29.6761111,28.8919959 L29.6761111,28.1718313 C29.6762551,28.1718313 29.6762551,28.1718313 29.6762551,28.1718313 L29.6761111,28.8919959 Z" id="Shape"></path>
                                <path d="M15.4478189,15.3287037 L4.55230453,15.3287037 C4.15462963,15.3287037 3.83213992,15.6510494 3.83213992,16.0488683 C3.83213992,16.4466872 4.15462963,16.7690329 4.55230453,16.7690329 L15.4478189,16.7690329 C15.8454938,16.7690329 16.1679835,16.4466872 16.1679835,16.0488683 C16.1679835,15.6510494 15.8454938,15.3287037 15.4478189,15.3287037 Z" id="Path"></path>
                                <path d="M15.4478189,19.3992181 L4.55230453,19.3992181 C4.15462963,19.3992181 3.83213992,19.7215638 3.83213992,20.1193827 C3.83213992,20.5172016 4.15462963,20.8395473 4.55230453,20.8395473 L15.4478189,20.8395473 C15.8454938,20.8395473 16.1679835,20.5172016 16.1679835,20.1193827 C16.1679835,19.7217078 15.8454938,19.3992181 15.4478189,19.3992181 Z" id="Path"></path>
                                <path d="M15.4478189,23.4697325 L4.55230453,23.4697325 C4.15462963,23.4697325 3.83213992,23.7920782 3.83213992,24.1898971 C3.83213992,24.587716 4.15462963,24.9100617 4.55230453,24.9100617 L15.4478189,24.9100617 C15.8454938,24.9100617 16.1679835,24.587716 16.1679835,24.1898971 C16.1679835,23.7922222 15.8454938,23.4697325 15.4478189,23.4697325 Z" id="Path"></path>
                                <path d="M15.4478189,27.5402469 L4.55230453,27.5402469 C4.15462963,27.5402469 3.83213992,27.8625926 3.83213992,28.2604115 C3.83213992,28.6582305 4.15462963,28.9805761 4.55230453,28.9805761 L15.4478189,28.9805761 C15.8454938,28.9805761 16.1679835,28.6582305 16.1679835,28.2604115 C16.1679835,27.8625926 15.8454938,27.5402469 15.4478189,27.5402469 Z" id="Path"></path>
                                <path d="M30.3962757,7.18781893 L19.5007613,7.18781893 C19.1030864,7.18781893 18.7805967,7.51016461 18.7805967,7.90798354 C18.7805967,8.30580247 19.1030864,8.62814815 19.5007613,8.62814815 L30.3962757,8.62814815 C30.7939506,8.62814815 31.1164403,8.30580247 31.1164403,7.90798354 C31.1164403,7.51030864 30.7939506,7.18781893 30.3962757,7.18781893 Z" id="Path"></path>
                                <path d="M30.3962757,11.2583333 L19.5007613,11.2583333 C19.1030864,11.2583333 18.7805967,11.580679 18.7805967,11.9784979 C18.7805967,12.3763169 19.1030864,12.6986626 19.5007613,12.6986626 L30.3962757,12.6986626 C30.7939506,12.6986626 31.1164403,12.3763169 31.1164403,11.9784979 C31.1164403,11.580679 30.7939506,11.2583333 30.3962757,11.2583333 Z" id="Path"></path>
                                <path d="M30.3962757,15.3287037 L19.5007613,15.3287037 C19.1030864,15.3287037 18.7805967,15.6510494 18.7805967,16.0488683 C18.7805967,16.4466872 19.1030864,16.7690329 19.5007613,16.7690329 L30.3962757,16.7690329 C30.7939506,16.7690329 31.1164403,16.4466872 31.1164403,16.0488683 C31.1164403,15.6510494 30.7939506,15.3287037 30.3962757,15.3287037 Z" id="Path"></path>
                                <path d="M30.3962757,19.3992181 L19.5007613,19.3992181 C19.1030864,19.3992181 18.7805967,19.7215638 18.7805967,20.1193827 C18.7805967,20.5172016 19.1030864,20.8395473 19.5007613,20.8395473 L30.3962757,20.8395473 C30.7939506,20.8395473 31.1164403,20.5172016 31.1164403,20.1193827 C31.1164403,19.7217078 30.7939506,19.3992181 30.3962757,19.3992181 Z" id="Path"></path>
                            </g>
                        </g>
                    </g>
                </g>
            </g>
        </g>
    </g>
</svg>