<?xml version="1.0" encoding="UTF-8"?>
<svg width="160px" height="85px" viewBox="0 0 160 85" version="1.1" xmlns="http://www.w3.org/2000/svg" xmlns:xlink="http://www.w3.org/1999/xlink">
    <title>Group 84</title>
    <defs>
        <path d="M33.3236645,55.6211483 C23.0202333,55.550029 13.7701017,52.7621516 5.41122372,46.8876958 C3.70973966,45.6928912 2.08927866,44.3842957 0.549840705,42.9476855 C0.414802288,42.8196707 0.279763871,42.6916559 0.171733138,42.5351934 C0.0231908789,42.3218354 -0.0848398547,42.0658059 0.0907100874,41.8097763 C0.26626003,41.5252991 0.563344547,41.4968513 0.819917539,41.6248661 C1.41408657,41.9235672 1.98124793,42.2507161 2.56191312,42.5636411 C7.88242675,45.5222048 13.4865211,47.6557844 19.3606922,49.0070515 C24.6812058,50.2303038 30.0557348,50.7992584 35.5112869,50.6427959 C43.3030035,50.4152141 50.8111395,48.7652458 58.0356948,45.7071151 C58.3867947,45.5506526 58.7513984,45.3941901 59.1160022,45.3088469 C59.6291482,45.2092798 60.1422941,45.2803992 60.3718595,45.8635776 C60.5879209,46.4040844 60.3043402,46.8308003 59.9262327,47.1721731 C59.6561558,47.4139788 59.3455675,47.6131128 59.0349791,47.8264708 C54.3761537,51.0126163 49.2717016,53.0608528 43.8701649,54.3267767 C40.3051507,55.1802085 36.6861211,55.5927006 33.3236645,55.6211483 Z" id="path-1"></path>
        <filter x="-19.0%" y="-67.5%" width="138.1%" height="263.5%" filterUnits="objectBoundingBox" id="filter-2">
            <feOffset dx="0" dy="2" in="SourceAlpha" result="shadowOffsetOuter1"></feOffset>
            <feGaussianBlur stdDeviation="3.5" in="shadowOffsetOuter1" result="shadowBlurOuter1"></feGaussianBlur>
            <feColorMatrix values="0 0 0 0 0.964705882   0 0 0 0 0.650980392   0 0 0 0 0.121568627  0 0 0 0.406359266 0" type="matrix" in="shadowBlurOuter1"></feColorMatrix>
        </filter>
        <path d="M59.2831698,43.0246133 C57.7261093,43.0115126 56.1825884,43.2080227 54.6390676,43.3652307 C54.3411952,43.391432 54.0027037,43.470036 53.8673072,43.15562 C53.7048313,42.801902 54.0162434,42.5922913 54.2734969,42.4219826 C56.1961281,41.1905198 58.3489335,40.7057951 60.6100561,40.5878891 C62.1671166,40.4961845 63.7106375,40.5616878 65.227079,41.0071105 C65.9176015,41.2036205 66.2560929,41.5966405 66.2425532,42.2778753 C66.1613153,45.9198609 64.9021272,49.0902224 62.1806563,51.671054 C62.0858787,51.7627586 61.9775614,51.8413626 61.8692442,51.9199667 C61.6255304,52.0902753 61.3276579,52.2474833 61.0704044,52.0378727 C60.8266906,51.8413626 60.9620872,51.553148 61.0704044,51.3173359 C61.8692442,49.3915378 62.6816236,47.4788403 63.0742736,45.4220355 C63.1284322,45.1600221 63.1419719,44.8980088 63.1555115,44.6490961 C63.1690512,43.7975527 62.8576391,43.430734 61.9911011,43.2211233 C61.0839441,42.9853113 60.1767871,43.0246133 59.2831698,43.0246133 Z" id="path-3"></path>
        <filter x="-249.6%" y="-250.3%" width="599.2%" height="635.1%" filterUnits="objectBoundingBox" id="filter-4">
            <feOffset dx="0" dy="2" in="SourceAlpha" result="shadowOffsetOuter1"></feOffset>
            <feGaussianBlur stdDeviation="10" in="shadowOffsetOuter1" result="shadowBlurOuter1"></feGaussianBlur>
            <feColorMatrix values="0 0 0 0 0.964705882   0 0 0 0 0.650980392   0 0 0 0 0.121568627  0 0 0 0.766444493 0" type="matrix" in="shadowBlurOuter1"></feColorMatrix>
        </filter>
    </defs>
    <g id="Website-Second-Iteration" stroke="none" stroke-width="1" fill="none" fill-rule="evenodd">
        <g id="Customer-Service" transform="translate(-418.000000, -4897.000000)">
            <g id="Group-70" transform="translate(0.000000, 4345.000000)">
                <g id="Group-84" transform="translate(418.000000, 552.000000)">
                    <rect id="Rectangle" fill="#FFFFFF" x="0" y="0" width="160" height="80" rx="6"></rect>
                    <g id="iconfinder_amazon_1220386" transform="translate(47.000000, 10.000000)" fill-rule="nonzero">
                        <path d="M48.9960376,19.8966483 C48.9960376,22.143789 49.0772605,24.3774738 48.9689633,26.6246146 C48.8606661,29.1812418 49.6458207,31.3745588 51.2702785,33.3122131 C51.4597986,33.5409639 51.6357815,33.7697148 51.7982273,34.0119216 C52.3803246,34.8865572 52.2720274,35.4920741 51.4733357,36.1648708 C49.767655,37.5911996 48.0755115,39.0309844 46.3698309,40.4573133 C45.3545448,41.305037 44.7182988,41.2915811 43.6894756,40.4573133 C42.3086865,39.3404709 41.2257146,37.9679657 40.2645771,36.5012691 C40.0344456,36.1514148 39.9126113,36.1648708 39.6283312,36.4339894 C37.9226505,38.0890691 36.1222098,39.6230454 33.8344318,40.3900336 C30.3012362,41.5876116 26.7138919,41.7759947 23.1671591,40.5245929 C19.7557978,39.313559 17.7116885,36.8107555 16.9536082,33.325669 C16.114305,29.4369045 16.5474937,25.736523 18.9571061,22.4398195 C20.7846211,19.950472 23.3160678,18.4837753 26.2265546,17.5822279 C29.2318015,16.6672244 32.3318084,16.3173702 35.4453524,16.0078837 C36.325267,15.9136922 37.1916445,15.8329566 38.0715591,15.752221 C38.2881535,15.7387651 38.4776736,15.7118532 38.4641364,15.4292786 C38.4370621,14.0029498 38.5859708,12.5497091 38.2475421,11.1502921 C37.8143533,9.36065305 36.6366214,8.3110903 34.8361808,7.92086826 C33.5501517,7.63829367 32.2776598,7.71902927 31.0322422,8.13616318 C29.1370414,8.78204794 27.9593095,10.0872734 27.4855094,12.0249277 C27.2283036,13.0879464 26.7274291,13.4647125 25.6850687,13.357065 C23.4649764,13.1283142 21.2448841,12.8995633 19.038329,12.6708125 C18.1313401,12.5766209 17.6575399,11.8903684 17.84706,11.0157328 C18.9977175,5.43152073 22.6798218,2.29628844 27.9863838,0.856503649 C32.0610654,-0.246882824 36.1898956,-0.314162486 40.2781143,0.829591784 C43.5676412,1.7445952 46.3292194,3.35930711 47.8724543,6.56181907 C48.7523689,8.37836997 48.9554262,10.3429361 48.9825005,12.3075023 C49.0095748,14.8237617 48.9825005,17.3669329 48.9960376,19.8966483 C48.9825005,19.8966483 48.9960376,19.8966483 48.9960376,19.8966483 Z M38.4641364,24.0948992 C38.4641364,23.4221026 38.4370621,22.749306 38.4776736,22.0765093 C38.5047479,21.6593754 38.3558392,21.5113602 37.9361877,21.551728 C36.9073644,21.6459195 35.865004,21.6593754 34.8361808,21.7939348 C33.0357401,22.0226856 31.2759108,22.4667314 29.8138988,23.5970297 C27.6885666,25.2521094 27.2418407,27.5127061 27.5938066,30.0558774 C28.0134581,33.0430944 30.6938135,34.6981741 33.5636888,33.7024351 C35.5130382,33.0296385 36.7043072,31.6033096 37.5300732,29.8136706 C38.3964507,27.9971197 38.4641364,26.0460095 38.4641364,24.0948992 Z" id="Shape" fill="#050606"></path>
                        <g id="Path">
                            <use fill="black" fill-opacity="1" filter="url(#filter-2)" xlink:href="#path-1"></use>
                            <use fill="#F6A61F" xlink:href="#path-1"></use>
                        </g>
                        <g id="Path">
                            <use fill="black" fill-opacity="1" filter="url(#filter-4)" xlink:href="#path-3"></use>
                            <use fill="#F6A61F" xlink:href="#path-3"></use>
                        </g>
                    </g>
                </g>
            </g>
        </g>
    </g>
</svg>