<?xml version="1.0" encoding="UTF-8"?>
<svg width="35px" height="35px" viewBox="0 0 35 35" version="1.1" xmlns="http://www.w3.org/2000/svg" xmlns:xlink="http://www.w3.org/1999/xlink">
    <!-- Generator: Sketch 52.6 (67491) - http://www.bohemiancoding.com/sketch -->
    <title>icon</title>
    <desc>Created with Sketch.</desc>
    <g id="Website" stroke="none" stroke-width="1" fill="none" fill-rule="evenodd">
        <g id="Translator's-Hub" transform="translate(-461.000000, -3749.000000)" fill="#61B0E8" fill-rule="nonzero">
            <g id="Financially" transform="translate(0.000000, 3335.000000)">
                <g id="features" transform="translate(150.000000, 384.000000)">
                    <g id="balance" transform="translate(293.000000, 0.000000)">
                        <g id="icon" transform="translate(18.000000, 30.000000)">
                            <path d="M25.7785714,9.5 L33.1428571,11.4357143 L35,4.07142857 L33.5857143,3.7 L32.3785714,8.29285714 C29.2928571,3.31428571 23.7857143,0 17.5,0 C7.83571429,0 0,7.83571429 0,17.5 C0,27.1642857 7.83571429,35 17.5,35 C23.95,35 29.5785714,31.5142857 32.6142857,26.3214286 L31.35,25.6357143 C28.5571429,30.3785714 23.4,33.5642857 17.5,33.5642857 C8.62857143,33.5642857 1.43571429,26.3714286 1.43571429,17.5 C1.43571429,8.62857143 8.62857143,1.43571429 17.5,1.43571429 C23.45,1.43571429 28.65,4.67142857 31.4214286,9.48571429 L26.15,8.08571429 L25.7785714,9.5 Z" id="Path"></path>
                            <path d="M18.7723577,25 L18.7723577,23.671875 C20.0805617,23.6008523 21.0783444,23.2315341 21.8470067,22.5639205 C22.6156689,21.8963068 23,21.0085227 23,19.9786932 C23,18.8707386 22.6895787,18.0539773 22.0022173,17.5355114 C21.3074649,16.9460227 20.3096822,16.4985795 18.8462676,16.2073864 L18.7723577,16.2073864 L18.7723577,12.8053977 C19.7701404,12.9545455 20.6201035,13.2457386 21.4626755,13.8423295 L22.6969697,12.2159091 C21.4626755,11.3991477 20.1544715,10.9588068 18.7723577,10.8877841 L18.7723577,10 L17.6193644,10 L17.6193644,10.8877841 C16.466371,10.9588068 15.4611973,11.328125 14.6925351,11.9957386 C13.9238729,12.6633523 13.5395418,13.5511364 13.5395418,14.5809659 C13.5395418,15.6107955 13.849963,16.4275568 14.5373245,16.9460227 C15.1507761,17.4644886 16.2298596,17.9048295 17.6119734,18.203125 L17.6119734,21.6761364 C16.5328899,21.5269886 15.4538064,21.0085227 14.3821138,20.1207386 L13,21.6761364 C14.3821138,22.8622159 15.9268293,23.5227273 17.6193644,23.671875 L17.6193644,25 L18.7723577,25 Z M18.8462676,18.5653409 C19.6149298,18.7855114 20.0805617,19.0056818 20.383592,19.2329545 C20.6127125,19.53125 20.7679231,19.8224432 20.7679231,20.2698864 C20.7679231,20.7173295 20.6127125,21.0085227 20.2283814,21.3068182 C19.8440503,21.6051136 19.3784183,21.7471591 18.8462676,21.8252841 L18.8462676,18.5653409 Z M16.1559497,15.390625 C15.9268293,15.1704545 15.7716186,14.8011364 15.7716186,14.4318182 C15.7716186,13.9914773 15.9268293,13.6931818 16.2298596,13.3948864 C16.6141907,13.0965909 16.9985218,12.9545455 17.6119734,12.8764205 L17.6119734,16.0582386 C16.8433112,15.8309659 16.3850702,15.6107955 16.1559497,15.390625 Z" id="Shape"></path>
                        </g>
                    </g>
                </g>
            </g>
        </g>
    </g>
</svg>