<?xml version="1.0" encoding="UTF-8"?>
<svg width="144px" height="30px" viewBox="0 0 144 30" version="1.1" xmlns="http://www.w3.org/2000/svg" xmlns:xlink="http://www.w3.org/1999/xlink">
    <title>bol-com-31761</title>
    <g id="Website" stroke="none" stroke-width="1" fill="none" fill-rule="evenodd">
        <g id="Homepage-Second-Iteration" transform="translate(-873.000000, -974.000000)" fill-rule="nonzero">
            <g id="bol-com-31761" transform="translate(873.000000, 974.000000)">
                <path d="M136.047997,16.9447377 L136.231726,16.9447377 L136.231726,16.4616575 L136.341805,16.4616575 C136.482769,16.4616575 136.536621,16.5099655 136.680753,16.7665524 L136.782912,16.9455296 L137.005446,16.9455296 L136.867649,16.7237879 C136.773409,16.5717364 136.700551,16.4743284 136.603143,16.4394833 L136.603143,16.4339398 C136.796375,16.4220608 136.92942,16.2898076 136.92942,16.1060788 C136.92942,15.981745 136.833596,15.8067274 136.551667,15.8067274 L136.047205,15.8067274 L136.047205,16.9447377 L136.047997,16.9447377 Z M136.231726,16.3032705 L136.231726,15.9603628 L136.528701,15.9603628 C136.649075,15.9603628 136.733021,16.0260934 136.733021,16.1298368 C136.733021,16.2478351 136.637196,16.3024786 136.496232,16.3024786 L136.231726,16.3024786 L136.231726,16.3032705 Z M136.512071,15.2990973 C135.924455,15.2990973 135.452462,15.7710904 135.452462,16.357914 C135.452462,16.9447377 135.924455,17.4198985 136.512071,17.4198985 C137.098102,17.4198985 137.573263,16.9447377 137.573263,16.357914 C137.573263,15.7710904 137.098102,15.2990973 136.512071,15.2990973 Z M136.512071,15.4748978 C136.869926,15.4748978 137.19253,15.6905164 137.329402,16.0211627 C137.466273,16.351809 137.390446,16.7323495 137.137291,16.9852783 C136.884135,17.2382072 136.503527,17.3136935 136.173003,17.176526 C135.84248,17.0393586 135.627159,16.7165616 135.627474,16.358706 C135.626633,16.1239118 135.719584,15.8985013 135.885684,15.73255 C136.051784,15.5665988 136.277277,15.4738495 136.512071,15.4748978 L136.512071,15.4748978 Z M0.0339937996,5.78162531 L7.0647906,5.78162531 L7.0647906,11.5722523 C8.40756077,11.0624159 9.83207854,10.8018268 11.2683803,10.8032836 C14.1161777,10.8270417 16.4214998,11.7266796 18.1875143,13.5037812 C19.9867901,15.2816747 20.8990989,17.5877887 20.922065,20.4237071 C20.922065,22.6450841 20.1831899,24.6898596 18.7093993,26.5580337 C17.1888846,28.5394545 14.7916981,29.5539229 11.5162559,29.5990632 L0.0339937996,29.5990632 L0.0339937996,5.78162531 Z M7.0647906,23.5035414 C8.00877684,23.6643041 8.81813416,23.7450815 9.49048677,23.7450815 C10.847863,23.7450815 11.9106394,23.4172205 12.6780242,22.7630824 C13.4564961,22.1461652 13.858007,21.2964192 13.882557,20.2201799 C13.882557,19.1423567 13.5103476,18.27598 12.7667209,17.6234258 C11.9866651,17.0041328 10.9714048,16.6826073 9.72014785,16.6596412 C8.8941599,16.6596412 8.0079849,16.8037733 7.06399867,17.0896618 L7.06399867,23.5035414 L7.0647906,23.5035414 L7.0647906,23.5035414 Z M21.8628835,20.3548088 C21.8399174,17.8610062 22.6999586,15.6681389 24.4445909,13.7769987 C26.154378,11.8415101 28.8762578,10.8507997 32.6110221,10.8040756 C36.4804153,10.8729739 39.2529789,11.9048649 40.9295048,13.8973727 C42.5719775,15.8209823 43.3829187,17.9742529 43.3599526,20.3548088 C43.3599526,22.9056306 42.4943679,25.098498 40.7616147,26.931827 C39.0058953,28.8681074 36.3117332,29.8596098 32.6783366,29.9031662 C28.8540836,29.8366437 26.0870635,28.8000011 24.3772764,26.7956142 C22.6769925,24.8585418 21.8391255,22.7116066 21.8628835,20.3548088 L21.8628835,20.3548088 Z M28.8936803,20.3548088 C28.8936803,21.4175852 29.2397558,22.2728748 29.9326987,22.9238451 C30.6010917,23.5985735 31.4928102,23.933562 32.6070624,23.933562 C33.7331937,23.933562 34.6304557,23.5977816 35.2996406,22.9238451 C35.9791206,22.2728748 36.3204445,21.4175852 36.3204445,20.3548088 C36.3204445,19.2817372 35.9799126,18.4201122 35.2996406,17.7683498 C34.6304557,17.1055004 33.7324017,16.7744717 32.6070624,16.7744717 C31.4928102,16.7744717 30.6010917,17.1055004 29.9326987,17.7683498 C29.2397558,18.4193202 28.8936803,19.2809452 28.8936803,20.3548088 Z M44.2445437,5.78162531 L51.2753405,5.78162531 L51.2753405,29.5990632 L44.2445437,29.5990632 L44.2445437,5.78162531 Z M56.7365226,21.3431434 C57.9260087,21.3661095 58.90484,21.7715801 59.6761845,22.5571793 C60.4459451,23.3538657 60.8419124,24.3730857 60.8640866,25.6132556 C60.8419124,26.8209561 60.4459451,27.8235455 59.6761845,28.6202319 C58.90484,29.4509714 57.9260087,29.8778243 56.7365226,29.9007904 C55.5581237,29.8778243 54.5911714,29.4509714 53.8317059,28.6202319 C52.9962148,27.8235455 52.5780732,26.821748 52.5780732,25.6132556 C52.5780732,24.3730857 52.9962148,23.3530738 53.8324979,22.5571793 C54.5911714,21.7715801 55.5597076,21.3661095 56.7365226,21.3431434 Z M77.0330186,28.7627801 C74.9383512,29.5467955 73.0440432,29.9277162 71.346927,29.9023742 C68.3288637,29.8825759 65.8944562,28.9987767 64.0444966,27.2557283 C62.1723628,25.5245589 61.2244169,23.2635851 61.2022428,20.473599 C61.2022428,18.0486947 62.0013049,15.8558274 63.5986373,13.8973727 C65.2070568,11.9040729 67.7246174,10.8729739 71.1505272,10.8040756 C73.1121496,10.8040756 75.0278398,11.1256011 76.9015574,11.7678602 L76.9015574,17.9196094 C75.3905459,17.1569762 73.9009166,16.7752637 72.4342535,16.7752637 C71.1671578,16.7752637 70.157441,17.1062924 69.4082707,17.7691418 C68.6250473,18.4209041 68.2346234,19.2928243 68.2346234,20.3912378 C68.2346234,21.4753965 68.652765,22.318807 69.4914239,22.9246371 C70.2722716,23.5993655 71.3207932,23.9343539 72.6322372,23.9343539 C73.8122199,23.95732 75.2788831,23.5787752 77.0330186,22.7971356 L77.0330186,28.7627801 L77.0330186,28.7627801 Z M78.2953626,20.3548088 C78.2723965,17.8610062 79.1324377,15.6681389 80.8754861,13.7769987 C82.5860652,11.8415101 85.3087369,10.8507997 89.0435012,10.8040756 C92.9121025,10.8729739 95.6838742,11.9048649 97.3619839,13.8973727 C99.0044566,15.8209823 99.8138139,17.9742529 99.7900559,20.3548088 C99.7900559,22.9056306 98.9252631,25.098498 97.1933018,26.931827 C95.4391663,28.8681074 92.7450043,29.8596098 89.1116076,29.9031662 C85.2865627,29.8366437 82.5195426,28.8000011 80.8089636,26.7956142 C79.1102635,24.8585418 78.2723965,22.7116066 78.2953626,20.3548088 L78.2953626,20.3548088 Z M85.3269514,20.3548088 C85.3269514,21.4175852 85.6722349,22.2728748 86.3659698,22.9238451 C87.0327788,23.5985735 87.9252893,23.933562 89.0387496,23.933562 C90.1648808,23.933562 91.0637268,23.5977816 91.7329116,22.9238451 C92.4115997,22.2728748 92.7521317,21.4175852 92.7521317,20.3548088 C92.7521317,19.2817372 92.4115997,18.4201122 91.7329116,17.7683498 C91.0629348,17.1055004 90.1648808,16.7744717 89.0387496,16.7744717 C87.9252893,16.7744717 87.0327788,17.1055004 86.3659698,17.7683498 C85.671443,18.4193202 85.3269514,19.2809452 85.3269514,20.3548088 Z M100.987461,11.1422317 L108.026969,11.1422317 L108.026969,13.5695117 C109.693992,11.7243038 111.634232,10.8001159 113.854817,10.8001159 C116.324862,10.7771498 118.193828,11.8723956 119.45538,14.0842693 C121.365527,11.9175358 123.578984,10.8222901 126.095753,10.8001159 C128.132609,10.8222901 129.614319,11.5120652 130.539299,12.8670656 C131.464279,14.2236499 131.926768,15.8574113 131.926768,17.7715176 L131.926768,29.5951036 L124.888844,29.5951036 L124.888844,19.0227745 C124.888844,18.3409187 124.716994,17.802403 124.369335,17.4032679 C124.001085,17.0065086 123.499791,16.806941 122.868619,16.806941 C121.748823,16.8417862 120.781871,17.4737501 119.971721,18.6996651 L119.971721,29.5951036 L112.940133,29.5951036 L112.940133,19.162155 C112.940133,18.433575 112.761947,17.8610062 112.403201,17.4404889 C112.033367,17.0540247 111.505939,16.84337 110.824083,16.8085249 C109.81991,16.84337 108.887802,17.475334 108.026177,18.701249 L108.026177,29.5966874 L100.986669,29.5966874 L100.986669,11.1422317 L100.987461,11.1422317 L100.987461,11.1422317 Z" id="Shape" fill="#6B7C93"></path>
                <path d="M136.473266,14.1309935 C140.369585,14.1309935 143.527821,10.9727577 143.527821,7.07643864 C143.527821,3.18011962 140.369585,0.0218837972 136.473266,0.0218837972 C132.576947,0.0218837972 129.418711,3.18011962 129.418711,7.07643864 C129.418711,10.9727577 132.576947,14.1309935 136.473266,14.1309935 Z" id="Path" fill="#6B7C93"></path>
                <path d="M134.764271,2.06824322 C134.819706,2.0793303 134.746056,2.15060443 134.813371,2.14426896 C134.826042,2.16485926 134.852175,2.1704028 134.873558,2.17119474 C134.890188,2.18386569 134.922658,2.19336891 134.920282,2.22029469 C134.952751,2.23771726 134.91553,2.26781078 134.952751,2.2820656 C134.991556,2.28048173 134.989972,2.33116556 135.014522,2.34700425 C135.039072,2.35175586 135.012938,2.38660099 135.035904,2.38026551 C135.04224,2.41986225 135.092924,2.45312351 135.04224,2.48638477 C135.005019,2.51489442 134.982053,2.56874599 134.927409,2.55924277 C134.913154,2.58141694 134.880685,2.57983307 134.857719,2.58933629 C134.786445,2.6146782 134.727842,2.69070394 134.648648,2.71129424 C134.611427,2.76672968 134.541737,2.75247485 134.509268,2.80632641 C134.46096,2.86334572 134.380974,2.84037961 134.337418,2.90452633 C134.292278,2.91798922 134.259808,2.95600208 134.224171,2.98530367 C134.171904,3.00906171 134.118844,3.03123589 134.074496,3.07241649 C134.051529,3.07558423 134.045194,3.11201323 134.01906,3.1135971 C133.955705,3.19675025 133.850378,3.19437445 133.793359,3.27831953 C133.691199,3.33058723 133.616757,3.43353875 133.516182,3.48739031 C133.494799,3.539658 133.44174,3.55232896 133.410854,3.59667731 C133.362546,3.60855633 133.347499,3.67032724 133.299191,3.68062239 C133.248508,3.74872878 133.183569,3.794661 133.133677,3.85484804 C133.09804,3.90315606 133.04894,3.94354473 133.008551,3.98789308 C132.977666,4.06708655 132.867587,4.07817364 132.857292,4.16687033 C132.796921,4.21151969 132.746715,4.26847401 132.709992,4.33396857 C132.690194,4.3323847 132.695737,4.35772661 132.685442,4.36722983 C132.609416,4.45196685 132.529431,4.51769743 132.476371,4.61827315 C132.425687,4.67846019 132.380547,4.7196408 132.343326,4.78457945 C132.309273,4.82496812 132.265717,4.87090034 132.262549,4.92158416 C132.214241,4.96434864 132.183355,5.02611955 132.137423,5.06650822 C132.143759,5.07838724 132.143759,5.09264207 132.137423,5.10452109 C132.104954,5.15520491 132.074068,5.20747261 132.040015,5.25657256 C132.056646,5.29062576 132.007546,5.29933704 132.012297,5.32863863 C131.956862,5.3690273 132.00121,5.45218045 131.944191,5.49256912 C131.922809,5.5194949 131.92756,5.55671584 131.90697,5.58284968 C131.916473,5.60660773 131.888756,5.61452708 131.888756,5.63353351 C131.867373,5.6810496 131.846783,5.73965277 131.861038,5.79192046 C131.826985,5.82518172 131.849951,5.88220102 131.811938,5.91387841 C131.831736,6.02950089 131.773133,6.11978145 131.804019,6.22827651 C131.785804,6.32806029 131.807186,6.39775055 131.799267,6.49199079 C131.774717,6.52366818 131.815106,6.54663429 131.822233,6.57514394 C131.825401,6.61474068 131.815898,6.64166646 131.831736,6.6812632 C131.825401,6.72244381 131.865789,6.74620185 131.864206,6.78738246 C131.875293,6.79767761 131.873709,6.80955663 131.875293,6.82222758 C131.912514,6.8681598 131.941815,6.92201136 131.983788,6.95844036 C132.037639,6.96002423 132.047143,7.03129836 132.098618,7.0344661 C132.120001,7.06297575 132.155638,7.05664027 132.18098,7.08119025 C132.2182,7.09544508 132.252254,7.11445151 132.291058,7.12157892 C132.339764,7.13100598 132.387113,7.14643436 132.432023,7.16751114 C132.480331,7.17384662 132.524679,7.18968531 132.572987,7.19443692 C132.755132,7.22769818 132.934901,7.22611431 133.108335,7.22453044 C133.12259,7.20631594 133.142388,7.23086592 133.157435,7.2166111 C133.222374,7.21185949 133.277809,7.18334984 133.344332,7.18334984 C133.389472,7.19918853 133.423525,7.15325631 133.46629,7.1643434 C133.571617,7.12949827 133.680112,7.09782088 133.783064,7.05822414 C133.792567,7.02021127 133.836915,7.03763384 133.859089,7.01545967 C133.909773,6.99645323 133.969168,6.99486936 134.011933,6.95844036 C134.030147,6.95052102 134.052321,6.94180973 134.0642,6.9251791 C134.153689,6.91725976 134.2115,6.83331467 134.300989,6.83093887 C134.323955,6.80876469 134.342961,6.77867117 134.377015,6.7770873 C134.399981,6.73749057 134.441953,6.74540991 134.471255,6.720068 C134.51006,6.71214865 134.550448,6.68918255 134.586085,6.66621644 C134.610635,6.66621644 134.628058,6.63612292 134.654192,6.63612292 C134.665279,6.61870035 134.685077,6.61711648 134.696164,6.60286166 C134.750016,6.58702296 134.799908,6.54742622 134.852175,6.51099722 C134.860095,6.50149401 134.871974,6.50307788 134.886229,6.50307788 C134.910779,6.46189727 134.948,6.46664888 134.980469,6.43180375 C135.06679,6.42863601 135.11193,6.32251675 135.194291,6.31301353 C135.200627,6.28450388 135.242599,6.29242323 135.243391,6.26391358 C135.290115,6.23382006 135.328128,6.18947171 135.379604,6.16096206 C135.393859,6.1435395 135.418409,6.1435395 135.424744,6.12294919 C135.469885,6.10077502 135.483347,6.03900411 135.536407,6.01682993 C135.62748,5.94713967 135.713009,5.84260429 135.805665,5.76182694 C135.839718,5.74915598 135.859516,5.71114312 135.888818,5.68263346 C135.927623,5.63986899 135.950589,5.58443355 135.98781,5.53850134 C136.029782,5.51632716 136.055916,5.46485141 136.086802,5.43079821 C136.096305,5.37377891 136.156492,5.348437 136.165995,5.29141769 C136.207968,5.24390161 136.207968,5.1821307 136.245189,5.13540655 C136.256276,5.08472272 136.305376,5.0522534 136.291913,4.99127442 C136.311711,4.96434864 136.311711,4.93108738 136.299832,4.89940999 C136.32378,4.78989105 136.300182,4.67535338 136.234894,4.58421995 C136.245981,4.51452969 136.160452,4.49077165 136.140653,4.43692009 C136.092345,4.40841044 136.051165,4.36802176 135.996521,4.35614274 C135.965036,4.33193436 135.92849,4.3151501 135.88961,4.30704279 C135.837342,4.26427831 135.77082,4.2959557 135.713009,4.26586218 C135.640151,4.26269444 135.563333,4.23576866 135.495227,4.25794283 C135.461173,4.27061379 135.42712,4.24843961 135.396235,4.25319122 C135.359014,4.27298959 135.318625,4.22943318 135.281404,4.26111057 C135.199043,4.26586218 135.106387,4.25319122 135.027985,4.28486861 C135.020066,4.280117 135.012146,4.280117 135.008187,4.27219766 C134.992348,4.2959557 134.96463,4.28962022 134.943248,4.29120409 C134.913946,4.2959557 134.883061,4.31258633 134.853759,4.30704279 C134.803076,4.33396857 134.745264,4.34663952 134.692997,4.36722983 C134.650688,4.39133041 134.60465,4.40819316 134.556784,4.41712172 C134.542529,4.43454428 134.521147,4.4282088 134.504516,4.43612815 C134.422155,4.48443617 134.326331,4.49948293 134.249513,4.56046191 C134.182991,4.57788447 134.152105,4.66420536 134.082415,4.6673731 C134.045194,4.71330532 133.981839,4.70538597 133.947786,4.75369399 C133.88946,4.80641743 133.826362,4.85360833 133.759306,4.89465838 C133.737923,4.9453422 133.68328,4.95722122 133.652394,5.00156957 C133.644475,5.00632118 133.635764,5.00790505 133.631012,5.01740827 C133.621509,5.04116631 133.585872,5.06413242 133.569241,5.08868239 C133.494799,5.15995652 133.450451,5.24231774 133.395807,5.32071928 C133.406895,5.37615471 133.326117,5.36744343 133.338788,5.4236708 C133.307831,5.45405829 133.288735,5.49449673 133.284937,5.5377094 C133.270682,5.5535481 133.288104,5.59631258 133.250883,5.59472871 C133.226333,5.61531901 133.239796,5.65808349 133.208911,5.67392218 C133.187529,5.70876731 133.205743,5.74678018 133.178025,5.78004144 C133.173274,5.80221561 133.153475,5.81805431 133.151892,5.84181235 C133.140804,5.85923492 133.125758,5.87507361 133.130509,5.89883165 C133.102792,5.89883165 133.119422,5.93842839 133.113879,5.94793161 C133.097248,5.96218644 133.082993,5.98119287 133.084577,6.00495091 C133.092496,6.00970252 133.095664,6.01762187 133.095664,6.02712509 C133.058443,6.03187669 133.106751,6.09206374 133.06953,6.06988956 C133.056859,6.06988956 133.049732,6.08097665 133.035477,6.07622504 C133.033893,6.03979604 133.055276,5.9954477 133.032309,5.96693804 C133.053692,5.95585096 133.050524,5.92892518 133.061611,5.90991874 C133.058443,5.89883165 133.04498,5.88774457 133.035477,5.89883165 C133.030726,5.90833487 133.018847,5.91783809 133.032309,5.92892518 C133.032309,5.94001226 133.016471,5.95426709 133.007759,5.96693804 C133.007759,5.979609 133.018847,5.99069609 133.006176,6.0001993 C133.006176,6.00891059 132.995088,6.00336704 132.989545,6.00495091 C132.97133,5.99069609 132.961827,5.96931385 132.97133,5.94793161 C132.980834,5.92417357 132.969747,5.89803972 132.982418,5.87269781 C132.976082,5.86240266 132.965787,5.85606718 132.957868,5.86477846 C132.939653,5.88695263 132.948364,5.92021389 132.934901,5.94397194 C132.938069,5.96297837 132.945989,5.99465576 132.925398,6.00970252 C132.911143,6.00415898 132.891345,6.00099124 132.88501,5.9819848 C132.899264,5.96931385 132.881842,5.95664289 132.892929,5.9408042 C132.949948,5.91546228 132.902432,5.87507361 132.934901,5.84260429 C132.907184,5.78083337 132.953116,5.72539794 132.953116,5.67154638 C132.948364,5.66679477 132.945197,5.66045929 132.938861,5.66362703 C132.90164,5.70480764 132.912727,5.77053822 132.866003,5.79904787 C132.867587,5.81647044 132.869171,5.83706074 132.884218,5.84577203 C132.873131,5.85052363 132.867587,5.86557039 132.8565,5.87269781 C132.793145,5.89566392 132.830366,5.81805431 132.819279,5.79667207 C132.854916,5.77845757 132.81136,5.74202857 132.842245,5.72302214 C132.848581,5.64066092 132.873131,5.57730614 132.88105,5.49494493 C132.9056,5.48385784 132.876298,5.46168367 132.892137,5.44584497 C132.896889,5.4054563 132.941237,5.38011439 132.930942,5.33180637 C132.994297,5.24469354 132.983209,5.12431946 133.070322,5.05066953 C133.079825,5.01661633 133.104375,4.99127442 133.104375,4.95484542 C133.164563,4.8724842 133.227917,4.79249879 133.273058,4.70221823 C133.308695,4.64519893 133.362546,4.59134736 133.393432,4.53432806 C133.479753,4.49631519 133.486088,4.39494754 133.575577,4.36010241 C133.65477,4.29357989 133.726836,4.19062838 133.825828,4.14628003 C133.844043,4.12568973 133.863049,4.11064297 133.890767,4.1090591 C133.983423,4.02194627 134.091918,3.97284632 134.201997,3.9269141 C134.236317,3.90168721 134.275373,3.88364091 134.316828,3.87385447 C134.370125,3.83594532 134.431802,3.81149183 134.496597,3.80258034 C134.559952,3.74556104 134.65736,3.77090295 134.730218,3.73764169 C134.780901,3.72101106 134.847424,3.7423933 134.894148,3.71863526 C134.968465,3.69622281 135.047329,3.69349396 135.123017,3.71071591 C135.260814,3.71229978 135.393859,3.71546752 135.514233,3.76773521 C135.560957,3.76298361 135.603722,3.79149326 135.655197,3.794661 C135.7138,3.84534482 135.799329,3.84059321 135.859516,3.89286091 C135.929207,3.90711573 135.986226,3.94671247 136.052749,3.96888664 C136.097889,4.02432208 136.158076,4.06391881 136.216679,4.0955962 C136.238061,4.12410586 136.268947,4.14628003 136.281618,4.18270903 C136.315671,4.21755416 136.35606,4.23497672 136.363979,4.28566055 C136.409119,4.3347605 136.427334,4.39494754 136.472474,4.4440475 C136.477226,4.51373776 136.543748,4.5580861 136.551667,4.6309441 C136.553251,4.67687632 136.607103,4.7038021 136.592056,4.75527786 C136.626109,4.81071329 136.624525,4.88040355 136.630861,4.9453422 C136.668082,4.98335507 136.627693,5.03087116 136.63878,5.07046789 C136.620566,5.09739368 136.645116,5.1274872 136.630861,5.15441298 C136.612646,5.20984841 136.624525,5.28666608 136.598392,5.34447732 C136.592056,5.37773858 136.573842,5.40149662 136.573842,5.43634175 C136.581761,5.46643528 136.547708,5.48385784 136.559587,5.51236749 C136.51603,5.53454166 136.546916,5.5717626 136.51603,5.59868838 C136.52395,5.67629799 136.444756,5.71906246 136.444756,5.79192046 C136.428918,5.80617529 136.424958,5.82518172 136.42179,5.84577203 C136.403576,5.89566392 136.358435,5.93763646 136.335469,5.98594448 C136.296664,6.0366283 136.261027,6.09206374 136.22539,6.14116369 C136.158868,6.19818299 136.142237,6.27737647 136.06146,6.32330869 C135.987018,6.39775055 135.933166,6.46585694 135.857141,6.53237946 C135.832897,6.56614545 135.799711,6.59247508 135.761317,6.6084052 C135.733599,6.67809546 135.665492,6.67809546 135.620352,6.73511476 C135.59897,6.7359067 135.595802,6.76520828 135.573628,6.77312763 C135.511857,6.78263085 135.507106,6.86499206 135.446918,6.86340819 C135.443751,6.8839985 135.423952,6.89033397 135.408114,6.89825332 C135.369309,6.89825332 135.344759,6.9410178 135.317041,6.95844036 C135.229136,7.00120484 135.146775,7.0550564 135.062038,7.10257249 C134.995516,7.16355147 134.909195,7.16909501 134.842672,7.22928205 C134.806933,7.25470519 134.768407,7.27596132 134.727842,7.29263683 C134.643105,7.30372392 134.582126,7.37341418 134.497389,7.38450126 C134.466503,7.39400448 134.440369,7.41142705 134.4079,7.41459479 C134.396813,7.43518509 134.370679,7.42093026 134.359592,7.44152057 C134.322371,7.44785605 134.311284,7.45419152 134.278815,7.46844635 C134.226547,7.47319796 134.189326,7.52071404 134.129931,7.5175463 C134.103797,7.53734467 134.06816,7.54051241 134.035691,7.54763983 C134.012725,7.56823013 133.97392,7.57139787 133.944618,7.58486076 C133.919331,7.57824917 133.89244,7.5822542 133.870176,7.59594785 C133.821076,7.58486076 133.789399,7.61812202 133.748218,7.61970589 L133.670609,7.64188006 C133.641307,7.63712845 133.618341,7.66722197 133.589831,7.64979941 C133.555801,7.66502958 133.518518,7.67156092 133.481336,7.66880584 C133.442532,7.65771876 133.403727,7.67197358 133.366506,7.67197358 C133.322817,7.6840718 133.276525,7.6829696 133.233461,7.66880584 C133.207327,7.67197358 133.162187,7.64188006 133.142388,7.68068487 C133.056067,7.67593326 132.989545,7.66167843 132.9056,7.64979941 C132.862043,7.62920911 132.81136,7.6086188 132.7583,7.61970589 C132.748797,7.59753172 132.730582,7.61337041 132.721079,7.61970589 C132.687026,7.61891395 132.668811,7.57773335 132.628423,7.59278011 C132.592786,7.56268659 132.538934,7.5721898 132.495378,7.55476724 C132.453837,7.54257067 132.414719,7.52327981 132.379755,7.49774794 C132.34887,7.50883502 132.334615,7.48111731 132.305313,7.48190924 C132.274428,7.46131894 132.248294,7.42964155 132.207905,7.43280929 C132.130296,7.38450126 132.059022,7.31481101 131.98062,7.27759007 C131.862998,7.1963643 131.758562,7.09753797 131.670974,6.98457421 C131.652759,6.93705813 131.584653,6.93864199 131.584653,6.88162269 C131.514962,6.81034856 131.496748,6.71373252 131.420722,6.64562613 C131.422306,6.62186809 131.404883,6.60286166 131.404883,6.57751974 C131.401716,6.52841979 131.347864,6.49119886 131.367663,6.44130697 C131.34628,6.39379088 131.347864,6.33677158 131.336777,6.28450388 C131.327274,6.20135073 131.341529,6.13166047 131.32569,6.05325893 C131.313019,6.02474928 131.336777,5.99307189 131.328858,5.9613945 C131.347072,5.91387841 131.313019,5.87348974 131.328858,5.82518172 C131.322522,5.76182694 131.354992,5.70955925 131.361327,5.65412381 C131.37083,5.56542712 131.398548,5.48306591 131.412011,5.39595308 C131.446064,5.34368539 131.42785,5.27003545 131.458735,5.21697583 C131.466654,5.18529844 131.488037,5.15837265 131.495956,5.12511139 C131.539512,5.08234692 131.536345,5.020576 131.570398,4.97305992 L131.570398,4.96197283 C131.624249,4.86377292 131.659886,4.75606979 131.735912,4.66578923 C131.750167,4.60876993 131.797683,4.56758932 131.811938,4.51057002 C131.87846,4.40445076 131.954486,4.30308311 132.021009,4.19854772 C132.087531,4.1114349 132.154054,4.02748982 132.234831,3.9475044 C132.251462,3.89365284 132.317984,3.87464641 132.34491,3.82713032 L132.352829,3.82713032 C132.406681,3.73843363 132.49221,3.69250141 132.542894,3.60301278 C132.734542,3.41928392 132.914311,3.22921958 133.112295,3.05499393 C133.144764,3.05024232 133.154267,3.01381332 133.169314,2.99163915 C133.242172,2.92828437 133.333245,2.90611019 133.393432,2.82058124 C133.464706,2.76910548 133.526477,2.69228781 133.597751,2.64160398 C133.641307,2.64952333 133.628636,2.59250403 133.662689,2.59250403 C133.670609,2.55053149 133.713373,2.57032986 133.730796,2.5418202 C133.794151,2.52439764 133.837707,2.45470738 133.902646,2.44045256 C133.950954,2.41748645 133.959665,2.36521875 134.007973,2.34146071 C134.046778,2.29315269 134.1133,2.31453493 134.155273,2.27018658 C134.178239,2.27810593 134.175071,2.24642854 134.195662,2.2432608 C134.270103,2.23217371 134.308908,2.15931572 134.382558,2.14347702 C134.434826,2.1133835 134.502932,2.12209478 134.540153,2.05319646 C134.580542,2.05002872 134.606676,2.01676746 134.643897,2.00726424 C134.677158,2.03656583 134.738929,2.022311 134.764271,2.06824322 L134.764271,2.06824322 Z M139.838989,3.50560481 C139.910263,3.51194029 139.999751,3.50560481 140.071026,3.52461124 C140.10983,3.50798061 140.126461,3.54995315 140.162098,3.54678542 C140.178729,3.58638215 140.219117,3.55153702 140.245251,3.56262411 C140.290391,3.5737112 140.329988,3.60222085 140.378296,3.59588537 C140.447986,3.64498533 140.535891,3.64973693 140.60083,3.71071591 C140.641706,3.72679598 140.679486,3.74983913 140.712493,3.7788223 C140.785351,3.79307713 140.811485,3.8722706 140.882759,3.88969317 C140.931067,3.96730277 141.030059,3.96413503 141.064904,4.05283173 C141.123507,4.13044133 141.21062,4.18904451 141.254968,4.2777412 C141.266055,4.30466698 141.277934,4.33792824 141.311987,4.34505565 C141.349208,4.39019594 141.350792,4.44879911 141.376926,4.49710713 C141.369007,4.52165711 141.404644,4.52878452 141.406228,4.55095869 C141.413983,4.60858099 141.430543,4.66467031 141.455328,4.71726499 C141.47671,4.82813586 141.503636,4.93742286 141.520266,5.05146146 C141.534521,5.07442757 141.525018,5.12194365 141.528186,5.15045331 C141.518682,5.16945974 141.518682,5.19321778 141.536105,5.21064035 C141.536105,5.25023709 141.536105,5.28824995 141.520266,5.32151121 C141.547984,5.34210152 141.509179,5.37694665 141.538481,5.39753695 C141.517098,5.44109336 141.520266,5.49732073 141.502844,5.53850134 C141.52581,5.60027225 141.447408,5.64303673 141.465623,5.70955925 C141.452952,5.72856568 141.462455,5.76182694 141.436321,5.77370596 C141.431569,5.82359785 141.414939,5.86873813 141.405436,5.91387841 C141.38247,5.93922033 141.387221,5.97644126 141.376134,6.00574285 C141.359503,6.05801054 141.315947,6.10077502 141.300108,6.15383465 C141.309612,6.18709591 141.266055,6.19818299 141.256552,6.22273297 C141.248633,6.24649101 141.225666,6.26549745 141.232002,6.2940071 C141.205868,6.3145974 141.176566,6.33835545 141.174983,6.37003284 C141.134594,6.44289083 141.085494,6.49991014 141.041938,6.57039233 C140.995213,6.610781 140.964328,6.65750515 140.933443,6.70106157 C140.871672,6.74540991 140.855833,6.82777113 140.78931,6.86420013 C140.761593,6.93547426 140.682399,6.93705813 140.653098,7.00833225 C140.642011,7.03367417 140.60479,7.01466773 140.60479,7.04555319 C140.561233,7.10257249 140.489167,7.12157892 140.447195,7.17543049 C140.416309,7.17859823 140.396511,7.24036914 140.368001,7.2213627 C140.352162,7.26412718 140.296727,7.25937557 140.269009,7.29738844 C140.256338,7.31481101 140.23654,7.28788522 140.230204,7.31639488 C140.21595,7.31639488 140.200903,7.32589809 140.197735,7.33856905 C140.137548,7.36549483 140.077361,7.38925287 140.017966,7.42251413 C139.977577,7.41617866 139.957779,7.44785605 139.918974,7.45260765 C139.883337,7.48111731 139.838197,7.49062052 139.801768,7.5175463 C139.762963,7.51596244 139.746332,7.53892854 139.715447,7.55555917 C139.667139,7.54763983 139.627542,7.58169302 139.580818,7.5904043 C139.50796,7.61020267 139.435102,7.63950426 139.361452,7.64742361 C139.312352,7.67118165 139.241078,7.6632623 139.191186,7.69177195 C139.138918,7.67276552 139.09061,7.71077839 139.033591,7.70444291 C138.996241,7.71707107 138.95734,7.7245316 138.917969,7.72661708 C138.875996,7.72978482 138.837191,7.72107354 138.792843,7.71552999 C138.757206,7.74403965 138.704938,7.72820095 138.662966,7.72344934 C138.591691,7.73295256 138.515666,7.70444291 138.440432,7.70444291 C138.369158,7.69335582 138.301051,7.71236226 138.242448,7.67276552 C138.19414,7.70444291 138.160087,7.63950426 138.112571,7.66167843 C138.101484,7.63950426 138.070598,7.65534295 138.063471,7.63158491 C138.000116,7.61416235 137.927258,7.62524943 137.876574,7.57456561 C137.814803,7.5721898 137.766495,7.53813661 137.71106,7.51833824 C137.672899,7.4785226 137.625599,7.44862014 137.573263,7.43122542 C137.542378,7.37737385 137.472688,7.35678355 137.44497,7.30689166 C137.433883,7.27917394 137.407749,7.29659651 137.39587,7.27442233 C137.399038,7.21740303 137.321428,7.20948368 137.312717,7.16038373 C137.265993,7.12237086 137.263617,7.05901608 137.221644,7.0162516 C137.179672,6.94497747 137.148786,6.86895174 137.117901,6.792926 C137.08068,6.7176922 137.085432,6.61711648 137.069593,6.53871494 C137.041875,6.48011177 137.102062,6.44843438 137.092559,6.39458281 C137.097311,6.32885223 137.106814,6.26628938 137.155914,6.2187733 C137.175822,6.14505596 137.217165,6.0789073 137.274704,6.02870895 C137.279456,5.99069609 137.339643,6.01445413 137.35073,5.96852191 C137.361817,5.96535417 137.370528,5.95743483 137.383199,5.96060257 C137.391118,5.97010578 137.401413,5.98594448 137.387951,5.9954477 C137.327764,6.00653478 137.366568,6.07622504 137.311925,6.09364761 C137.308757,6.1071105 137.300838,6.12057339 137.304005,6.13166047 C137.341226,6.11898952 137.344394,6.08176858 137.380031,6.06434602 C137.383199,6.016038 137.454473,6.02950089 137.440218,5.9772332 C137.488526,5.98119287 137.534459,5.92654937 137.562176,5.8885365 C137.589894,5.87111394 137.620779,5.84577203 137.661168,5.85052363 C137.667504,5.87190587 137.662752,5.8885365 137.664336,5.90754294 C137.630283,5.93130098 137.591478,5.89170424 137.578015,5.94555581 C137.578015,5.96931385 137.547129,5.97802513 137.548713,6.00257511 C137.527458,6.01118533 137.510599,6.02804346 137.501989,6.04929926 C137.506741,6.06355408 137.520204,6.05405087 137.531291,6.05642667 C137.565344,6.02950089 137.594646,5.97881707 137.635034,5.95822676 C137.706308,5.97485739 137.71106,5.86477846 137.779166,5.88536876 C137.791837,5.86161072 137.814803,5.88220102 137.833018,5.88536876 C137.848857,5.90754294 137.814803,5.90595907 137.8053,5.91546228 C137.794213,5.91229455 137.789462,5.92179776 137.782334,5.92654937 C137.791837,5.94238807 137.777582,5.9772332 137.808468,5.95822676 C137.810052,5.95347515 137.816387,5.95347515 137.821139,5.95347515 C137.822723,5.9613945 137.832226,5.96614611 137.836978,5.97248159 C137.787878,5.98356867 137.804508,6.04692345 137.760952,6.05405087 C137.741153,6.06988956 137.710268,6.088896 137.711852,6.11740565 C137.716604,6.12453306 137.724523,6.12611693 137.730066,6.12136532 C137.748281,6.06909763 137.78075,6.1435395 137.801341,6.09443954 C137.815595,6.04375572 137.861528,6.08335245 137.890829,6.07226537 C137.890829,6.08256052 137.905084,6.08335245 137.901916,6.09443954 C137.871031,6.11661371 137.840145,6.14749917 137.801341,6.14037176 C137.790253,6.17204915 137.749073,6.18630397 137.733234,6.21164588 C137.679383,6.27975227 137.611276,6.33756351 137.5598,6.40962957 C137.528553,6.44560823 137.506296,6.4884934 137.494862,6.53475527 C137.449721,6.5513859 137.485359,6.59177457 137.459225,6.61870035 C137.454473,6.68839061 137.408541,6.74699378 137.426755,6.81985178 C137.429923,6.86895174 137.446554,6.91330008 137.459225,6.95764843 C137.471896,6.98457421 137.483775,7.00833225 137.491694,7.0368419 C137.525747,7.07802251 137.543962,7.14929664 137.607317,7.15563212 C137.661168,7.19998047 137.726107,7.21740303 137.782334,7.25699977 C137.856776,7.24591268 137.89954,7.31560294 137.972398,7.2918449 C138.008035,7.29818038 138.048424,7.29342877 138.07931,7.31401907 C138.187805,7.29897231 138.303427,7.32510616 138.408754,7.31797874 C138.476861,7.26887879 138.549719,7.33381744 138.617825,7.29105296 C138.661382,7.2942207 138.693851,7.27204653 138.736615,7.27204653 C138.765917,7.2554159 138.80789,7.26254331 138.838775,7.24512075 C138.885499,7.25145623 138.923512,7.20789981 138.963901,7.23403366 C138.968652,7.20394014 139.002706,7.22769818 139.016168,7.21502723 C139.07002,7.19285305 139.130999,7.18810144 139.188018,7.17384662 C139.225239,7.14216923 139.288594,7.15800792 139.325815,7.11682732 C139.361452,7.1073241 139.387586,7.0708951 139.427975,7.07406284 C139.455692,7.05347253 139.504,7.0550564 139.522215,7.02813062 C139.599824,6.98615808 139.666347,6.92201136 139.751084,6.89983719 C139.833445,6.84281789 139.92135,6.80084535 139.998168,6.72877928 C140.016382,6.72877928 140.022718,6.71294059 140.035388,6.69868576 C140.147051,6.62266003 140.231788,6.53237946 140.335532,6.43893116 C140.35533,6.40883764 140.379088,6.36290542 140.418685,6.35656995 C140.488375,6.28212808 140.562817,6.21718943 140.624588,6.14274756 C140.624588,6.09998308 140.684775,6.09047987 140.687943,6.04850732 C140.760801,5.98277674 140.806733,5.89328811 140.851873,5.80855109 C140.890678,5.7927124 140.885926,5.75390759 140.900973,5.72539794 C140.978583,5.65570768 140.975415,5.55117229 141.037186,5.47593849 C141.053025,5.39912082 141.089454,5.33101443 141.098957,5.25102902 C141.125038,5.20183983 141.137866,5.14670855 141.136178,5.0910582 C141.15756,5.05621307 141.140929,5.0182002 141.152016,4.97701959 C141.166271,4.88673903 141.174983,4.78061977 141.142513,4.70063436 C141.160728,4.6127296 141.087078,4.55254256 141.074407,4.47176522 C141.057776,4.4464233 141.041938,4.42108139 141.017388,4.40049109 C140.994421,4.31179439 140.89543,4.30070731 140.847122,4.22468157 C140.796438,4.21201061 140.754465,4.17716549 140.702989,4.16449453 C140.661017,4.14865583 140.618252,4.13598488 140.577864,4.11539457 C140.55173,4.10113975 140.519261,4.09638814 140.491543,4.08846879 C140.48204,4.05995914 140.455906,4.08846879 140.440859,4.06471075 C140.413954,4.06744737 140.386785,4.06364379 140.361666,4.05362366 C140.244459,4.05362366 140.115374,4.0203624 139.991832,4.05362366 C139.956195,4.04412045 139.915806,4.07342203 139.883337,4.05837527 C139.877002,4.06946236 139.865123,4.08213331 139.8477,4.07738171 C139.827902,4.05520753 139.799392,4.08530105 139.771674,4.07975751 C139.766923,4.07025429 139.757419,4.07183816 139.750292,4.07183816 C139.733661,4.10985103 139.69644,4.07817364 139.669515,4.09876394 C139.63071,4.11064297 139.580026,4.10509942 139.552308,4.13360907 C139.530926,4.13994455 139.504,4.13360907 139.48737,4.15261551 C139.440645,4.14152842 139.399465,4.18270903 139.354325,4.16370259 C139.317104,4.18746064 139.275131,4.19221225 139.237118,4.21280255 C139.18881,4.23101705 139.133375,4.23339285 139.097738,4.26586218 C139.071604,4.26744605 139.055765,4.29120409 139.028047,4.28803635 C138.996762,4.31112769 138.959828,4.32535409 138.921136,4.32921696 C138.891835,4.32921696 138.888667,4.389404 138.85303,4.36722983 C138.80789,4.38623626 138.766709,4.41712172 138.716817,4.42028946 C138.712066,4.43771202 138.692267,4.43929589 138.678012,4.44246363 C138.642375,4.46938941 138.600403,4.47255715 138.572685,4.51215389 C138.53388,4.52640871 138.490324,4.54224741 138.461022,4.56917319 C138.441224,4.57709254 138.41905,4.58026028 138.400835,4.5945151 C138.392916,4.58817963 138.384205,4.60401832 138.382621,4.6103538 C138.385788,4.62777636 138.36599,4.61827315 138.359655,4.62936023 C138.28838,4.6855876 138.206811,4.72756014 138.145832,4.78933105 C138.105443,4.77270042 138.122866,4.82655199 138.088813,4.82655199 C138.051592,4.88357129 137.980318,4.89624225 137.932802,4.94850994 C137.817971,5.03007922 137.726899,5.14490976 137.614444,5.23360646 C137.605413,5.23321267 137.596787,5.23737699 137.591478,5.24469354 C137.591478,5.29220963 137.542378,5.3143838 137.512284,5.34764506 C137.471896,5.37298697 137.470312,5.43000628 137.425963,5.44584497 C137.390326,5.46801914 137.385575,5.50840782 137.353105,5.53295779 C137.361025,5.58522549 137.300838,5.59631258 137.273912,5.62798997 C137.233523,5.60739966 137.189175,5.67233831 137.162249,5.61690288 C137.134531,5.62165449 137.126612,5.59631258 137.109981,5.57889001 C137.114733,5.5535481 137.119485,5.51553523 137.091767,5.50286427 C137.05613,5.50524008 137.028412,5.47277075 136.991191,5.46801914 C136.92942,5.39674502 136.927836,5.29220963 136.908038,5.19876133 C136.892199,5.15124524 136.935756,5.13144687 136.943675,5.08789046 C136.972977,5.04829372 137.013365,5.00711311 137.045835,4.97068412 C137.058506,4.96434864 137.055338,4.95009381 137.06009,4.94059059 C137.142451,4.84080681 137.242235,4.7790359 137.319844,4.67687632 C137.344394,4.64361506 137.39587,4.63965539 137.402205,4.59372317 C137.460809,4.57471673 137.478231,4.49077165 137.54317,4.47968456 C137.608108,4.43058461 137.671463,4.38465239 137.73957,4.32763309 C137.821931,4.22784931 137.940721,4.19933966 138.034961,4.09955588 C138.095148,4.06946236 138.146624,4.01640273 138.213147,3.99898016 C138.302635,3.8881093 138.442016,3.87068673 138.55843,3.81208356 C138.612282,3.76773521 138.674053,3.74872878 138.733448,3.72021913 C138.77542,3.7035885 138.821352,3.69487722 138.866493,3.68220626 C138.89421,3.67270304 138.923512,3.6647837 138.949646,3.65211274 C138.987923,3.65274487 139.025394,3.64108713 139.056557,3.61885148 C139.163468,3.59826118 139.260876,3.54757735 139.36462,3.53490639 C139.372539,3.53015479 139.382834,3.52777898 139.392337,3.52381931 C139.475491,3.53173866 139.56102,3.50956448 139.641005,3.50718868 C139.69033,3.49453033 139.742376,3.49757556 139.789889,3.51589996 C139.806106,3.51179089 139.822487,3.50835622 139.838989,3.50560481 L139.838989,3.50560481 Z" id="Shape" fill="#FFFFFF"></path>
                <path d="M137.498821,5.89883165 C137.479023,5.90516713 137.492486,5.92892518 137.472688,5.93209291 C137.456057,5.93684452 137.437051,5.91783809 137.427547,5.94001226 C137.422796,5.94634774 137.437051,5.95109935 137.427547,5.95585096 C137.401413,5.94318 137.401413,5.91308648 137.419628,5.89408005 C137.44101,5.88140909 137.468728,5.85606718 137.492486,5.87269781 C137.49407,5.87903329 137.501989,5.8861607 137.498821,5.89883165 L137.498821,5.89883165 Z M135.971971,7.3829174 C136.006024,7.40429963 136.024239,7.46369474 136.067795,7.44310444 C136.087594,7.45260765 136.116103,7.45260765 136.13115,7.47478183 C136.186586,7.48032537 136.202424,7.5515995 136.264195,7.5357608 C136.270531,7.5721898 136.301416,7.60069945 136.295081,7.64188006 C136.314879,7.64821554 136.330718,7.67197358 136.337053,7.69098002 C136.361603,7.71473806 136.320423,7.73691223 136.329134,7.76700575 C136.288745,7.81293797 136.228558,7.84303149 136.192921,7.88896371 C136.163619,7.8842121 136.174707,7.92539271 136.146197,7.91905723 C136.101057,7.9800362 136.027407,7.97132492 135.99177,8.03784744 C135.905449,8.09486674 135.842094,8.17881183 135.754981,8.23107952 C135.743894,8.25642144 135.720928,8.26750852 135.705881,8.29364237 C135.591438,8.39192105 135.475807,8.48880819 135.359014,8.58428243 C135.324961,8.58428243 135.337631,8.63496625 135.300411,8.63813399 C135.297243,8.66505977 135.260022,8.6452614 135.264773,8.67614686 C135.23272,8.70173979 135.203752,8.73097379 135.178453,8.76325968 C135.093716,8.83928542 135.022441,8.92164663 134.938496,9.00717559 C134.941664,9.02301428 134.920282,9.01984655 134.920282,9.03410137 C134.900483,9.04518846 134.900483,9.07369811 134.871182,9.0713223 C134.863263,9.10141583 134.820498,9.10616743 134.81733,9.13942869 C134.806243,9.15843513 134.778526,9.14893191 134.780109,9.17744156 C134.721506,9.20911895 134.729426,9.2898963 134.665279,9.3104866 C134.60826,9.36908977 134.569455,9.43244456 134.5061,9.49183966 C134.509268,9.50926223 134.489469,9.51638964 134.483134,9.52985253 C134.447497,9.52985253 134.463336,9.58370409 134.426115,9.59003957 C134.426115,9.62646857 134.392061,9.63913953 134.373847,9.66289757 C134.356753,9.6894902 134.336548,9.71394896 134.31366,9.73575557 C134.297029,9.77693618 134.250305,9.80861357 134.248721,9.85612965 C134.206749,9.90364574 134.154481,9.95116182 134.143394,10.0129327 C134.101421,10.0747036 134.083207,10.1499374 134.031731,10.2061648 C134.015892,10.2584325 133.971544,10.301197 133.971544,10.3550486 C133.94541,10.3788066 133.955705,10.4184033 133.92482,10.4421614 C133.932739,10.458792 133.913733,10.4770065 133.903438,10.4880936 C133.906605,10.5213549 133.882055,10.5356097 133.880472,10.5672871 C133.866217,10.6124273 133.862257,10.6575676 133.828204,10.6924128 C133.85117,10.7193385 133.805238,10.7399288 133.820284,10.7652708 C133.790983,10.7811095 133.803654,10.8175385 133.789399,10.8412965 C133.807614,10.8587191 133.769601,10.8824771 133.792567,10.9014835 C133.771265,10.9654026 133.768519,11.0340509 133.784647,11.0994672 C133.778312,11.1533188 133.776728,11.2135058 133.815533,11.2562703 C133.795735,11.295867 133.835331,11.3291283 133.838499,11.3703089 C133.843251,11.3861476 133.856713,11.4004024 133.867801,11.4146573 C133.846418,11.4439588 133.892351,11.4510863 133.887599,11.4764282 C133.913733,11.5001862 133.929571,11.5421588 133.966792,11.5477023 C133.96996,11.5682926 133.991342,11.5690845 133.989759,11.5904668 C134.045194,11.6142248 134.077663,11.6696603 134.133891,11.6807473 C134.150521,11.6950022 134.169528,11.7076731 134.19091,11.7076731 C134.228131,11.745686 134.28515,11.7472699 134.335042,11.7536053 C134.399981,11.7836989 134.468087,11.805873 134.540945,11.818544 C134.553616,11.805873 134.57975,11.8090408 134.593213,11.8137924 C134.62885,11.842302 134.67795,11.8074569 134.712003,11.830423 C134.730218,11.8335907 134.765855,11.8217117 134.783277,11.8407182 C134.814163,11.8351746 134.845048,11.8240875 134.877517,11.8217117 C134.922658,11.818544 134.963838,11.8438859 135.004227,11.830423 C135.077085,11.8240875 135.14044,11.8130004 135.205378,11.7947859 C135.233096,11.8019134 135.253686,11.7836989 135.273485,11.8034972 C135.313873,11.7932021 135.358222,11.7765714 135.39861,11.7884505 C135.442167,11.770236 135.486515,11.7932021 135.531656,11.7805311 C135.585507,11.7662763 135.647278,11.7504376 135.694002,11.745686 C135.737559,11.7583569 135.770028,11.7076731 135.812792,11.7314312 C135.880899,11.7187602 135.949005,11.6934183 136.017112,11.6934183 C136.028199,11.6839151 136.044829,11.6759957 136.055916,11.6854989 C136.074131,11.6950022 136.085218,11.6657006 136.105016,11.6672844 C136.143821,11.6435264 136.204008,11.6744119 136.23331,11.6324393 C136.253108,11.6292716 136.281618,11.6514458 136.290329,11.6213522 C136.329134,11.6134329 136.367939,11.6086813 136.40516,11.5936345 C136.471682,11.5896748 136.538205,11.5611652 136.603143,11.5445346 C136.656529,11.515775 136.715955,11.5000367 136.776577,11.4986023 C136.824885,11.4558379 136.889824,11.4590056 136.942091,11.430496 C136.966641,11.405154 137.013365,11.4186169 137.03158,11.3893153 C137.062465,11.368725 137.102854,11.3980266 137.12582,11.3623896 C137.175679,11.3526159 137.221783,11.329015 137.258865,11.2942832 C137.296086,11.2887396 137.341226,11.2942832 137.359441,11.2562703 C137.37528,11.248351 137.377655,11.2768606 137.396662,11.2673574 C137.435467,11.2420155 137.474271,11.1913317 137.529707,11.2055865 C137.531291,11.2174655 137.501989,11.2372639 137.521788,11.2562703 C137.512284,11.2863638 137.478231,11.2562703 137.46952,11.2816122 C137.421212,11.2752767 137.404581,11.3275444 137.365776,11.3386315 C137.359441,11.3370477 137.356273,11.3433831 137.351522,11.3465509 C137.351522,11.3560541 137.354689,11.3639734 137.362609,11.3703089 C137.382407,11.3481347 137.422796,11.3655573 137.430715,11.332296 C137.48615,11.3417993 137.511492,11.2942832 137.552673,11.2752767 C137.586726,11.2562703 137.625531,11.2087542 137.668295,11.2325123 C137.668295,11.2499348 137.66196,11.272109 137.643746,11.2752767 C137.627115,11.2768606 137.634242,11.2942832 137.625531,11.3006187 C137.645329,11.344967 137.676215,11.2752767 137.704724,11.3132896 C137.727691,11.2657735 137.810052,11.3140815 137.806884,11.2435994 C137.826309,11.2197117 137.858763,11.2108026 137.887661,11.2214252 C137.901916,11.2277607 137.920131,11.2388477 137.924882,11.2515187 C137.879742,11.272109 137.874199,11.3386315 137.816387,11.3243767 C137.802132,11.344967 137.779166,11.3433831 137.769663,11.3623896 C137.783918,11.3861476 137.789462,11.3560541 137.802132,11.3806041 C137.840937,11.3980266 137.868655,11.3283364 137.893205,11.3806041 C137.90746,11.3821879 137.919339,11.3711008 137.92888,11.3837718 C137.930426,11.4233685 137.882118,11.4154492 137.871823,11.4455427 C137.854287,11.4460961 137.837839,11.4541758 137.826682,11.4677169 C137.812428,11.5231523 137.749073,11.4986023 137.722939,11.5477023 C137.732442,11.5667087 137.749073,11.5777958 137.769663,11.5667087 C137.792629,11.514441 137.8544,11.5777958 137.867071,11.514441 C137.88291,11.5096894 137.905876,11.514441 137.920923,11.5215685 C137.905084,11.5421588 137.92409,11.5928426 137.882118,11.5857152 C137.863903,11.6063055 137.826682,11.5928426 137.817179,11.623728 C137.867863,11.636399 137.800549,11.6316474 137.795797,11.6427345 C137.764912,11.6823312 137.703141,11.6712441 137.677007,11.7235118 C137.657208,11.7219279 137.647705,11.7504376 137.626323,11.745686 C137.54317,11.7979537 137.452889,11.8280472 137.374488,11.8866504 C137.353105,11.9040729 137.317468,11.891402 137.298462,11.9167439 C137.281831,11.915952 137.284207,11.9373342 137.267576,11.9412939 C137.213725,11.9698035 137.148786,11.9793067 137.089391,12.0014809 C137.08464,12.0109841 137.072761,12.0284067 137.058506,12.0173196 C137.06009,12.0442454 137.026036,12.0284067 137.013365,12.0426615 C136.969809,12.0600841 136.931004,12.0521647 136.896159,12.0806744 C136.83122,12.0870099 136.781329,12.1281905 136.71639,12.133734 C136.664122,12.1630356 136.594432,12.1551163 136.542956,12.1875856 C136.518406,12.1764985 136.494648,12.1891695 136.478018,12.2058001 C136.411495,12.2224307 136.329134,12.2018404 136.272115,12.2390613 C136.207176,12.2549 136.150157,12.2485646 136.086802,12.2667791 C136.060668,12.2754903 136.018695,12.2596516 135.995729,12.2849936 C135.966428,12.3055839 135.930791,12.2754903 135.904657,12.2929129 C135.834967,12.2770742 135.765276,12.3024161 135.690834,12.3119193 C135.681331,12.3008323 135.664701,12.2992484 135.653613,12.304 C135.632231,12.3150871 135.60293,12.3008323 135.577588,12.3008323 C135.535615,12.3150871 135.470677,12.3055839 135.424744,12.3071677 C135.393859,12.3372613 135.358222,12.316671 135.322585,12.3119193 C135.265565,12.3087516 135.197459,12.3356774 135.150735,12.304 C135.124601,12.316671 135.101635,12.3119193 135.071541,12.3071677 C134.995516,12.2976645 134.920282,12.267571 134.836337,12.2667791 C134.822082,12.2501484 134.797532,12.2644033 134.782485,12.2549 C134.722298,12.2232227 134.646272,12.2248065 134.586085,12.1931291 C134.465711,12.1788743 134.372263,12.1028486 134.255057,12.0838421 C134.202471,12.063086 134.153748,12.0336381 134.110925,11.9967293 C134.089542,11.9587164 134.027771,11.9856422 134.011933,11.93971 C133.954913,11.9016971 133.901854,11.8510133 133.840083,11.8256714 C133.809595,11.7814157 133.77055,11.7437169 133.725252,11.7148005 C133.691199,11.6546135 133.623093,11.6055135 133.60963,11.5358233 C133.593791,11.4993943 133.543107,11.478804 133.544691,11.4376234 C133.491631,11.358449 133.456248,11.2687746 133.440948,11.174701 C133.397391,11.1232253 133.433028,11.0519511 133.395807,10.9957238 C133.405311,10.9624625 133.363338,10.9418722 133.387888,10.9133626 C133.38472,10.8777255 133.394224,10.8373368 133.395807,10.799324 C133.387888,10.7945723 133.387888,10.7882369 133.383136,10.7834853 C133.373633,10.7074595 133.404519,10.6298499 133.387888,10.555408 C133.386304,10.4928452 133.436196,10.4477049 133.418774,10.3843501 C133.436988,10.362176 133.425109,10.3241631 133.444907,10.3004051 C133.46629,10.2354664 133.461538,10.1594407 133.501927,10.1024214 C133.508262,10.058073 133.528061,10.0168924 133.532812,9.96937632 C133.549443,9.93136345 133.562114,9.89176672 133.588248,9.85533772 C133.572409,9.81257324 133.63022,9.78723133 133.63022,9.74605072 C133.641307,9.75080233 133.650019,9.73813137 133.653186,9.73021203 C133.662689,9.70803785 133.67932,9.68665561 133.691991,9.66527337 C133.706246,9.60825407 133.772768,9.56707346 133.760097,9.50213481 C133.820284,9.42769295 133.882055,9.35641882 133.914525,9.26613826 C133.958081,9.24396408 133.963625,9.196448 134.000846,9.17110608 C134.007181,9.14259643 134.034899,9.12279806 134.051529,9.09983196 C134.099837,9.04756426 134.132307,8.98024981 134.179823,8.92877405 C134.209124,8.85591605 134.294653,8.82107092 134.331082,8.74979679 C134.40394,8.68960975 134.43641,8.5882421 134.517979,8.54389375 C134.561535,8.50588089 134.582918,8.46153254 134.628058,8.41876806 C134.655177,8.379247 134.688622,8.34446402 134.72705,8.31581654 C134.790405,8.25166983 134.837129,8.17326829 134.906819,8.11149737 C134.909987,8.08298772 134.939288,8.07348451 134.962254,8.06556516 C135.011354,8.02121681 135.059662,7.96894912 135.118266,7.94360721 C135.139648,7.92460077 135.139648,7.88500403 135.170533,7.87866856 C135.168949,7.87391695 135.178453,7.87391695 135.175285,7.86758147 C135.21409,7.84382343 135.256062,7.8295686 135.280612,7.78363638 C135.345551,7.75512673 135.368517,7.67434939 135.438207,7.65138328 C135.467509,7.61970589 135.522944,7.61337041 135.546702,7.57139787 C135.583923,7.53655274 135.625896,7.48507698 135.679747,7.47715763 C135.718552,7.44785605 135.752605,7.39954803 135.798538,7.3852932 C135.816752,7.4035077 135.837342,7.3829174 135.861892,7.39004481 C135.886442,7.35995129 135.926831,7.39004481 135.956133,7.39004481 C135.962468,7.38370933 135.970387,7.38925287 135.971971,7.3829174 L135.971971,7.3829174 Z" id="Shape" fill="#FFFFFF"></path>
            </g>
        </g>
    </g>
</svg>