<svg height="403" viewBox="0 0 548 403" width="548" xmlns="http://www.w3.org/2000/svg" xmlns:xlink="http://www.w3.org/1999/xlink"><defs><rect id="a" height="173" rx="12" width="339"/><filter id="b" height="218.5%" width="149.3%" x="-24.6%" y="-50%"><feOffset dx="0" dy="36" in="SourceAlpha" result="shadowOffsetOuter1"/><feGaussianBlur in="shadowOffsetOuter1" result="shadowBlurOuter1" stdDeviation="21.5"/><feColorMatrix in="shadowBlurOuter1" result="shadowMatrixOuter1" type="matrix" values="0 0 0 0 0   0 0 0 0 0   0 0 0 0 0  0 0 0 0.201115263 0"/><feOffset dx="0" dy="-3" in="SourceAlpha" result="shadowOffsetOuter2"/><feGaussianBlur in="shadowOffsetOuter2" result="shadowBlurOuter2" stdDeviation="22"/><feColorMatrix in="shadowBlurOuter2" result="shadowMatrixOuter2" type="matrix" values="0 0 0 0 0   0 0 0 0 0   0 0 0 0 0  0 0 0 0.0313632246 0"/><feMerge><feMergeNode in="shadowMatrixOuter1"/><feMergeNode in="shadowMatrixOuter2"/></feMerge></filter><rect id="c" height="173" rx="12" width="339"/><filter id="d" height="218.5%" width="149.3%" x="-24.6%" y="-50%"><feOffset dx="0" dy="36" in="SourceAlpha" result="shadowOffsetOuter1"/><feGaussianBlur in="shadowOffsetOuter1" result="shadowBlurOuter1" stdDeviation="21.5"/><feColorMatrix in="shadowBlurOuter1" result="shadowMatrixOuter1" type="matrix" values="0 0 0 0 0   0 0 0 0 0   0 0 0 0 0  0 0 0 0.201115263 0"/><feOffset dx="0" dy="-3" in="SourceAlpha" result="shadowOffsetOuter2"/><feGaussianBlur in="shadowOffsetOuter2" result="shadowBlurOuter2" stdDeviation="22"/><feColorMatrix in="shadowBlurOuter2" result="shadowMatrixOuter2" type="matrix" values="0 0 0 0 0   0 0 0 0 0   0 0 0 0 0  0 0 0 0.0313632246 0"/><feMerge><feMergeNode in="shadowMatrixOuter1"/><feMergeNode in="shadowMatrixOuter2"/></feMerge></filter><rect id="e" height="173" rx="12" width="339"/><linearGradient id="f" x1="7.6875%" x2="100%" y1="-12.152344%" y2="116.397135%"><stop offset="0" stop-color="#3baca5"/><stop offset="1" stop-color="#075655"/></linearGradient><mask id="g" fill="#fff"><use fill="#fff" fill-rule="evenodd" xlink:href="#e"/></mask></defs><g fill="none" fill-rule="evenodd"><g transform="translate(44 47)"><use fill="#000" filter="url(#b)" xlink:href="#a"/><use fill="#fff" fill-rule="evenodd" xlink:href="#a"/><g fill="#e1e8ee"><path d="m96.5 40h134.5c2.209139 0 4 1.790861 4 4 0 2.209139-1.790861 4-4 4h-134.5c-2.209139 0-4-1.790861-4-4 0-2.209139 1.790861-4 4-4z"/><path d="m96.5 58h77.089928c2.209139 0 4 1.790861 4 4 0 2.209139-1.790861 4-4 4h-77.089928c-2.209139 0-4-1.790861-4-4 0-2.209139 1.790861-4 4-4z"/><path d="m40 98h191c2.209139 0 4 1.790861 4 4 0 2.209139-1.790861 4-4 4h-191c-2.209139 0-4-1.790861-4-4 0-2.209139 1.790861-4 4-4z"/><rect height="8" rx="4" width="199" x="36" y="116"/><path d="m40 134h167c2.209139 0 4 1.790861 4 4 0 2.209139-1.790861 4-4 4h-167c-2.209139 0-4-1.790861-4-4 0-2.209139 1.790861-4 4-4z"/></g><rect fill="#3377c6" height="41" rx="6" width="41" x="36" y="40"/><path d="m50.4322142 67.6865928c1.8267967.2449376 4.5867561.3571713 6.5674329.3571713 1.9806767 0 4.741342-.1122337 6.5674328-.3571713-.1475272-2.0484404-1.0933957-3.1404244-3.0811312-3.6062999h-.0007058c-1.2677461-.2978779-2.0971457-1.2444523-2.3357304-2.6660784l-.0719989-.4270525.3494066-.2569374c.83787-.6183439 1.4046852-1.7209159 1.516213-2.9491331.1207041-1.3263335-.2724666-2.6272555-1.0510434-3.479243-.3705828-.4058764-.9995147-.8901046-1.8924427-.8901046-.8922222 0-1.52186.4842282-1.8924428.8901046-.7785768.8519875-1.1717475 2.1529095-1.0510434 3.479243.1115278 1.2282172.678343 2.3307892 1.5169189 2.9491331l.3487008.2569374-.0712931.4270525c-.2385847 1.4216261-1.0679843 2.3682005-2.3364362 2.6660784-1.9877355.4658755-2.9343098 1.5578595-3.0818371 3.6062999m6.5674329 1.7689152c-2.2736137 0-5.5636829-.1468214-7.4151851-.4701107l-.584462-.1023515v-.5936383c0-3.0959545 1.3708034-4.9227511 4.1921736-5.5841532.3952883-.0924692.9232806-.314113 1.1766886-1.1399832-.9663387-.8802224-1.5846826-2.1867914-1.7187982-3.6564168-.1552919-1.714563.3734062-3.418538 1.4145674-4.5592271.7948118-.8703401 1.8373847-1.3496272 2.9350157-1.3496272 1.0976309 0 2.1402038.4792871 2.9350156 1.3496272 1.0418671 1.1406891 1.5705652 2.8446641 1.4145675 4.5592271-.1334098 1.4696254-.7524596 2.7761944-1.7180924 3.6564168.2527021.8251643.7806944 1.047514 1.1766886 1.1399832 2.8206644.6614021 4.1921736 2.4881987 4.1921736 5.5841532v.5936383l-.584462.1023515c-1.852208.3232893-5.1422773.4701107-7.4158909.4701107" fill="#fff"/></g><g transform="translate(165 151)"><use fill="#000" filter="url(#d)" xlink:href="#c"/><use fill="#fff" fill-rule="evenodd" xlink:href="#c"/><use fill="#fff" xlink:href="#e"/><g fill="#0b7a76" fill-opacity=".27" fill-rule="nonzero" mask="url(#g)"><path d="m127.97058 13.3558592c-1.926575-1.5423003-4.455319-2.1381348-6.877495-1.6205074-17.682977 3.6674433-36.1113939-.0562281-50.9262134-10.2902214-2.8066287-1.92684054-6.5271145-1.92684054-9.3337432 0-14.8148195 10.2339933-33.243236 13.9576647-50.92621314 10.2902214-2.422176-.5176274-4.95092059.0782071-6.87749501 1.6205074-1.92399123 1.5445869-3.0377966 3.8682448-3.02937281 6.3199785v60.3638974c-.01476878 23.5704859 11.48348156 45.6945239 30.86685266 59.3915929l29.8843533 21.066595c2.8424058 2.002769 6.6550874 2.002769 9.4974932 0l29.8843534-21.066595c19.383371-13.697069 30.881621-35.821107 30.866853-59.3915929v-60.3638974c.008423-2.4517337-1.105382-4.7753916-3.029373-6.3199785zm-13.970594 66.8354117c.01271 18.2916715-8.900202 35.4622621-23.9283263 46.0975611l-25.0716597 17.711168-25.0716597-17.711168c-15.0281246-10.635299-23.9410366-27.8058896-23.9283267-46.0975611v-50.9499359c17.120827 1.4511273 34.2676551-2.4826134 48.9999864-11.241335 14.7323313 8.7587216 31.8791594 12.6924623 48.999986 11.241335zm-36.1856589-19.6664737-21.7545423 22.4174294-7.1975995-7.4724765c-3.1711667-3.2556929-8.3126436-3.2556929-11.4838103.0000001-3.1711666 3.2556929-3.1711667 8.5342142-.0000001 11.7899072l12.9395047 13.2844026c1.5185043 1.571816 3.5855567 2.45594 5.7419052 2.45594s4.223401-.884124 5.7419052-2.45594l27.8199351-28.312383c3.1711666-3.2556931 3.1711665-8.5342143-.0000001-11.7899072-3.1711667-3.255693-8.3126436-3.2556931-11.4838103-.0000001z" transform="translate(248 57)"/></g><g fill="#e1e8ee"><path d="m96.5 40h134.5c2.209139 0 4 1.790861 4 4 0 2.209139-1.790861 4-4 4h-134.5c-2.209139 0-4-1.790861-4-4 0-2.209139 1.790861-4 4-4z"/><path d="m96.5 58h77.089928c2.209139 0 4 1.790861 4 4 0 2.209139-1.790861 4-4 4h-77.089928c-2.209139 0-4-1.790861-4-4 0-2.209139 1.790861-4 4-4z"/><path d="m40 98h191c2.209139 0 4 1.790861 4 4 0 2.209139-1.790861 4-4 4h-191c-2.209139 0-4-1.790861-4-4 0-2.209139 1.790861-4 4-4z"/><rect height="8" rx="4" width="199" x="36" y="116"/><path d="m40 134h167c2.209139 0 4 1.790861 4 4 0 2.209139-1.790861 4-4 4h-167c-2.209139 0-4-1.790861-4-4 0-2.209139 1.790861-4 4-4z"/></g><g transform="translate(36 40)"><rect fill="url(#f)" height="41" rx="6" width="41"/><path d="m15.63 1.65c-.235307-.19034783-.5441615-.26388462-.84-.2-2.1597545.45262903-4.4105551-.00693958-6.22-1.27-.3427946-.23780708-.7972054-.23780708-1.14 0-1.80944491 1.26306042-4.06024551 1.72262903-6.22 1.27-.2958385-.06388462-.60469303.00965217-.84.2-.23499146.19063005-.37102886.47741159-.37.78v7.45c-.00180382 2.9090256 1.40256364 5.6395331 3.77 7.33l3.65 2.6c.34716431.247178.81283569.247178 1.16 0l3.65-2.6c2.3674364-1.6904669 3.7718038-4.4209744 3.77-7.33v-7.45c.0010289-.30258841-.1350085-.58936995-.37-.78zm-1.63 8.23c.0015563 2.2617797-1.089821 4.3849369-2.93 5.7l-3.07 2.19-3.07-2.19c-1.84017903-1.3150631-2.93155631-3.4382203-2.93-5.7v-6.3c2.09642839.17943304 4.19604057-.30697712 6-1.39 1.80395943 1.08302288 3.9035716 1.56943304 6 1.39zm-4.46-2.29-2.69 2.7-.89-.9c-.39212217-.39212216-1.02787782-.39212216-1.41999999.00000001s-.39212217 1.02787779-.00000001 1.41999999l1.6 1.6c.1877666.1893127.44336246.2957983.71.2957983s.5222334-.1064856.71-.2957983l3.44-3.41c.3921222-.39212217.3921222-1.02787782 0-1.41999999s-1.02787783-.39212217-1.42-.00000001z" fill="#fff" fill-rule="nonzero" transform="translate(13 10)"/></g></g></g></svg>