<?xml version="1.0" encoding="UTF-8"?>
<svg width="72px" height="72px" viewBox="0 0 72 72" version="1.1" xmlns="http://www.w3.org/2000/svg" xmlns:xlink="http://www.w3.org/1999/xlink">
    <!-- Generator: Sketch 52.6 (67491) - http://www.bohemiancoding.com/sketch -->
    <title>Group_65</title>
    <desc>Created with Sketch.</desc>
    <g id="Website-Second-Iteration" stroke="none" stroke-width="1" fill="none" fill-rule="evenodd">
        <g id="Product-Catalog" transform="translate(-1249.000000, -448.000000)">
            <g id="Group_65" transform="translate(1249.000000, 448.000000)">
                <g id="Group-7">
                    <circle id="Oval" fill="#EBFAF2" cx="36" cy="36" r="36"></circle>
                    <g id="pie-chart" transform="translate(11.000000, 11.000000)" fill="#4DCD87" fill-rule="nonzero" stroke="#4DCD87">
                        <path d="M44.1964286,26.6964286 L23.3035714,26.6964286 L23.3035714,5.80357143 C23.3035714,5.35979911 22.9437723,5 22.5,5 C10.0735714,5 0,15.0735714 0,27.5 C0,39.9264286 10.0735714,50 22.5,50 C34.9264286,50 45,39.9264286 45,27.5 C45,27.0562277 44.6402009,26.6964286 44.1964286,26.6964286 Z M22.5,48.3928571 C10.9612165,48.3955692 1.60493304,39.0438058 1.60212054,27.5050223 C1.59950893,16.2750112 10.474654,7.0516183 21.6964286,6.62241071 L21.6964286,27.5 C21.6964286,27.9437723 22.0562277,28.3035714 22.5,28.3035714 L43.3775893,28.3035714 C42.9323103,39.5154018 33.7206696,48.3792969 22.5,48.3928571 Z" id="Shape"></path>
                        <path d="M27.7931034,0 C27.3551121,0 27,0.355112069 27,0.793103448 L27,22.2068966 C27,22.6448879 27.3551121,23 27.7931034,23 L49.2068966,23 C49.6448879,23 50,22.6448879 50,22.2068966 C49.9860216,9.94819397 40.051806,0.0139784483 27.7931034,0 Z M28.5862069,21.4137931 L28.5862069,1.60127586 C39.3460431,2.02945259 47.9705474,10.6539569 48.3987241,21.4137931 L28.5862069,21.4137931 Z" id="Shape"></path>
                    </g>
                </g>
            </g>
        </g>
    </g>
</svg>