<?xml version="1.0" encoding="UTF-8"?>
<svg width="60px" height="60px" viewBox="0 0 60 60" version="1.1" xmlns="http://www.w3.org/2000/svg" xmlns:xlink="http://www.w3.org/1999/xlink">
    <!-- Generator: Sketch 52.6 (67491) - http://www.bohemiancoding.com/sketch -->
    <title>Group_65</title>
    <desc>Created with Sketch.</desc>
    <g id="Website-Second-Iteration" stroke="none" stroke-width="1" fill="none" fill-rule="evenodd">
        <g id="Homepage-Second-Iteration" transform="translate(-150.000000, -1595.000000)">
            <g id="Group-12" transform="translate(150.000000, 1157.000000)">
                <g id="Group-9" transform="translate(0.000000, 236.000000)">
                    <g id="Group-5" transform="translate(0.000000, 201.000000)">
                        <g id="Group_65" transform="translate(0.000000, 1.000000)">
                            <g id="Group-7">
                                <circle id="Oval" fill="#C0E5FF" cx="30" cy="30" r="30"></circle>
                                <g id="send" transform="translate(13.000000, 15.000000)" fill="#059BFF" fill-rule="nonzero">
                                    <path d="M33.9769222,1.18492832 C34.1426707,0.427772555 33.3862439,-0.210652008 32.6483442,0.0656489156 L0.640818315,12.0560664 C0.255599108,12.2004075 0.000800608023,12.5627267 3.74015791e-06,12.9673381 C-0.000793127707,13.3720147 0.252544448,13.7353113 0.63723241,13.8810861 L9.62875737,17.2889061 L9.62875737,28.0224801 C9.62875737,28.4752487 9.94557875,28.8687169 10.394481,28.9734375 C10.840395,29.0775065 11.3053674,28.8693034 11.5144124,28.462346 L15.2331955,21.2206552 L24.308458,27.8299166 C24.8604882,28.2319866 25.6539694,27.9762779 25.8548465,27.3301639 C34.3281417,0.0677993709 33.9618481,1.25341706 33.9769222,1.18492832 Z M26.0759109,4.62031324 L10.4836638,15.5171916 L3.77483322,12.9745714 L26.0759109,4.62031324 Z M11.620927,17.1224087 L25.2120397,7.62410831 C13.5170741,19.7311717 14.1278733,19.0939201 14.0768738,19.161301 C14.0011049,19.2613298 14.208689,18.8714457 11.620927,23.9106793 L11.620927,17.1224087 Z M24.3613833,25.4339836 L16.3730485,19.6162852 L30.8170091,4.66332235 L24.3613833,25.4339836 Z" id="Shape"></path>
                                </g>
                            </g>
                        </g>
                    </g>
                </g>
            </g>
        </g>
    </g>
</svg>