<svg width="12" height="25" viewBox="0 0 12 25" fill="none" xmlns="http://www.w3.org/2000/svg">
<g opacity="0.753837">
<path d="M0.383154 13.7512H2.98715V24.5817C2.98715 24.7955 3.15865 24.9688 3.3703 24.9688H7.78546C7.99711 24.9688 8.16861 24.7955 8.16861 24.5817V13.8022H11.1621C11.3568 13.8022 11.5205 13.6546 11.5427 13.4593L11.9974 9.47203C12.0099 9.36232 11.9755 9.25247 11.9028 9.17017C11.8301 9.0878 11.726 9.04065 11.6168 9.04065H8.16877V6.54124C8.16877 5.7878 8.57031 5.40573 9.36237 5.40573C9.47525 5.40573 11.6168 5.40573 11.6168 5.40573C11.8285 5.40573 12 5.23239 12 5.01863V1.35871C12 1.14488 11.8285 0.971615 11.6168 0.971615H8.50985C8.48793 0.970531 8.43927 0.96875 8.36755 0.96875C7.82845 0.96875 5.9546 1.07567 4.4744 2.45141C2.83434 3.97595 3.06232 5.80134 3.1168 6.11783V9.04057H0.383154C0.1715 9.04057 0 9.21383 0 9.42767V13.364C0 13.5778 0.1715 13.7512 0.383154 13.7512Z" fill="#5183BB"/>
</g>
</svg>
