<?xml version="1.0" encoding="UTF-8"?>
<svg width="19px" height="19px" viewBox="0 0 19 19" version="1.1" xmlns="http://www.w3.org/2000/svg" xmlns:xlink="http://www.w3.org/1999/xlink">
    <!-- Generator: Sketch 52.4 (67378) - http://www.bohemiancoding.com/sketch -->
    <title>Icon / Social / Facebook</title>
    <desc>Created with Sketch.</desc>
    <defs>
        <path d="M13.178,6.24603633 L10.733,6.24603633 L10.733,4.56503633 C10.700654,4.36784944 10.7581456,4.16652671 10.8897432,4.01615712 C11.0213408,3.86578754 11.2132655,3.78211539 11.413,3.78803633 L13.138,3.78803633 L13.138,1.01303633 L10.762,1.00403633 C9.86233355,0.958069799 8.98730843,1.30648827 8.36547849,1.95828592 C7.74364855,2.61008357 7.43677052,3.50052743 7.525,4.39703633 L7.525,6.24603633 L6,6.24603633 L6,9.10403633 L7.525,9.10403633 L7.525,17.1950363 L10.733,17.1950363 L10.733,9.10603633 L12.897,9.10603633 L13.178,6.24603633 Z" id="path-1"></path>
    </defs>
    <g id="Icon-/-Social-/-Facebook" stroke="none" stroke-width="1" fill="none" fill-rule="evenodd">
        <mask id="mask-2" fill="white">
            <use xlink:href="#path-1"></use>
        </mask>
        <use id="Facebook" fill="#333333" xlink:href="#path-1"></use>
        <g id="Base-/-Fill-/-Black" mask="url(#mask-2)" fill="#333333">
            <g transform="translate(-8.000000, -3.000000)" id="Fill">
                <rect x="0" y="0" width="25" height="23"></rect>
            </g>
        </g>
    </g>
</svg>