<?xml version="1.0" encoding="UTF-8"?>
<svg width="63px" height="63px" viewBox="0 0 63 63" version="1.1" xmlns="http://www.w3.org/2000/svg" xmlns:xlink="http://www.w3.org/1999/xlink">
    <!-- Generator: Sketch 52.6 (67491) - http://www.bohemiancoding.com/sketch -->
    <title>icon</title>
    <desc>Created with Sketch.</desc>
    <defs>
        <linearGradient x1="139.22371%" y1="90.8823165%" x2="-135.568576%" y2="-43.8492063%" id="linearGradient-1">
            <stop stop-color="#FFFFFF" stop-opacity="0.219241696" offset="0%"></stop>
            <stop stop-color="#0099FF" offset="100%"></stop>
        </linearGradient>
    </defs>
    <g id="Website" stroke="none" stroke-width="1" fill="none" fill-rule="evenodd">
        <g id="Solutions-Customer-Service" transform="translate(-146.000000, -2043.000000)">
            <g id="Solutions" transform="translate(146.000000, 1504.000000)">
                <g id="features" transform="translate(0.000000, 162.000000)">
                    <g id="faq" transform="translate(0.000000, 377.000000)">
                        <g id="icon">
                            <rect id="Rectangle" fill="url(#linearGradient-1)" x="0" y="0" width="63" height="63" rx="9"></rect>
                            <g id="document(1)" transform="translate(17.000000, 14.000000)" fill="#029AFF" fill-rule="nonzero">
                                <path d="M25.9522177,0 L7.31387097,0 C5.95211694,0 4.8441129,1.10800403 4.8441129,2.46975806 L4.8441129,5.43417339 L2.51971774,5.43417339 C1.15796371,5.43417339 0.0499596774,6.54203629 0.0499596774,7.90393145 L0.0499596774,32.4941129 C0.0499596774,33.8558669 1.15796371,34.963871 2.51971774,34.963871 L21.1579234,34.963871 C22.5196774,34.963871 23.6276815,33.8558669 23.6276815,32.4941129 L23.6276815,29.5298387 L25.9522177,29.5298387 C27.3139718,29.5298387 28.4219758,28.4218347 28.4219758,27.0600806 L28.4219758,2.46975806 C28.4219758,1.10800403 27.3141129,0 25.9522177,0 Z M21.510746,32.4941129 C21.510746,32.6853427 21.3491532,32.8469355 21.1579234,32.8469355 L2.51971774,32.8469355 C2.3284879,32.8469355 2.16689516,32.6853427 2.16689516,32.4941129 L2.16689516,7.90393145 C2.16689516,7.71256048 2.3284879,7.55110887 2.51971774,7.55110887 L21.1579234,7.55110887 C21.3491532,7.55110887 21.510746,7.71256048 21.510746,7.90393145 L21.510746,32.4941129 Z M26.3050403,27.0600806 C26.3050403,27.2513105 26.1434476,27.4129032 25.9522177,27.4129032 L23.6276815,27.4129032 L23.6276815,7.90393145 C23.6276815,6.54203629 22.5196774,5.43417339 21.1579234,5.43417339 L6.96104839,5.43417339 L6.96104839,2.46975806 C6.96104839,2.27852823 7.1225,2.11693548 7.31387097,2.11693548 L25.9522177,2.11693548 C26.1434476,2.11693548 26.3050403,2.27852823 26.3050403,2.46975806 L26.3050403,27.0600806 Z" id="Shape"></path>
                                <path d="M17.8603024,10.8840121 L5.81733871,10.8840121 C5.23264113,10.8840121 4.75887097,11.3577823 4.75887097,11.9424798 C4.75887097,12.5271774 5.23264113,13.0009476 5.81733871,13.0009476 L17.8603024,13.0009476 C18.445,13.0009476 18.9187702,12.5271774 18.9187702,11.9424798 C18.9187702,11.3579234 18.445,10.8840121 17.8603024,10.8840121 Z" id="Path"></path>
                                <path d="M17.8603024,15.6509274 L5.81733871,15.6509274 C5.23264113,15.6509274 4.75887097,16.1246976 4.75887097,16.7093952 C4.75887097,17.2940927 5.23264113,17.7678629 5.81733871,17.7678629 L17.8603024,17.7678629 C18.445,17.7678629 18.9187702,17.2940927 18.9187702,16.7093952 C18.9187702,16.1246976 18.445,15.6509274 17.8603024,15.6509274 Z" id="Path"></path>
                                <path d="M17.8603024,20.4179839 L5.81733871,20.4179839 C5.23264113,20.4179839 4.75887097,20.891754 4.75887097,21.4764516 C4.75887097,22.0611492 5.23264113,22.5349194 5.81733871,22.5349194 L17.8603024,22.5349194 C18.445,22.5349194 18.9187702,22.0611492 18.9187702,21.4764516 C18.9187702,20.891754 18.445,20.4179839 17.8603024,20.4179839 Z" id="Path"></path>
                                <path d="M17.8603024,25.1848992 L5.81733871,25.1848992 C5.23264113,25.1848992 4.75887097,25.6586694 4.75887097,26.2433669 C4.75887097,26.8280645 5.23264113,27.3018347 5.81733871,27.3018347 L17.8603024,27.3018347 C18.445,27.3018347 18.9187702,26.8280645 18.9187702,26.2433669 C18.9187702,25.6588105 18.445,25.1848992 17.8603024,25.1848992 Z" id="Path"></path>
                            </g>
                        </g>
                    </g>
                </g>
            </g>
        </g>
    </g>
</svg>