<?xml version="1.0" encoding="UTF-8"?>
<svg width="8px" height="17px" viewBox="0 0 8 17" version="1.1" xmlns="http://www.w3.org/2000/svg" xmlns:xlink="http://www.w3.org/1999/xlink">
    <!-- Generator: Sketch 52.6 (67491) - http://www.bohemiancoding.com/sketch -->
    <title>facebook(1)</title>
    <desc>Created with Sketch.</desc>
    <g id="Symbols" stroke="none" stroke-width="1" fill="none" fill-rule="evenodd" opacity="0.753836496">
        <g id="Tolq-Footer" transform="translate(-1224.000000, -119.000000)" fill="#4D5E6C" fill-rule="nonzero">
            <g id="Footer">
                <g id="navigation" transform="translate(150.000000, 79.000000)">
                    <g id="social" transform="translate(1050.000000, 0.000000)">
                        <g id="Group-6" transform="translate(24.000000, 40.000000)">
                            <g id="facebook(1)">
                                <path d="M0.255435997,9.09122025 L1.99143012,9.09122025 L1.99143012,16.3115557 C1.99143012,16.4541106 2.10576327,16.5696203 2.24686612,16.5696203 L5.1903062,16.5696203 C5.33140905,16.5696203 5.4457422,16.4541106 5.4457422,16.3115557 L5.4457422,9.12523316 L7.44141256,9.12523316 C7.57117405,9.12523316 7.68034739,9.02685896 7.69516268,8.89663961 L7.99826304,6.23847187 C8.00659025,6.16533638 7.9836521,6.09209767 7.93522143,6.03723316 C7.88673968,5.98231703 7.81736326,5.95088477 7.744564,5.95088477 L5.44584438,5.95088477 L5.44584438,4.2846138 C5.44584438,3.78231703 5.7135413,3.52760735 6.24157859,3.52760735 C6.31683004,3.52760735 7.744564,3.52760735 7.744564,3.52760735 C7.88566685,3.52760735 8,3.41204606 8,3.26954283 L8,0.829594447 C8,0.687039608 7.88566685,0.571529931 7.744564,0.571529931 L5.6732335,0.571529931 C5.65862256,0.57080735 5.62618219,0.569620253 5.57836457,0.569620253 C5.21896612,0.569620253 3.96973083,0.640897673 2.98293049,1.55805896 C1.88956225,2.57442025 2.04154666,3.79134929 2.07786966,4.00234283 L2.07786966,5.95083316 L0.255435997,5.95083316 C0.114333152,5.95083316 0,6.06634283 0,6.20889767 L0,8.83310412 C0,8.97565896 0.114333152,9.09122025 0.255435997,9.09122025 Z" id="XMLID_835_"></path>
                            </g>
                        </g>
                    </g>
                </g>
            </g>
        </g>
    </g>
</svg>