<svg height="17" viewBox="0 0 8 17" width="8" xmlns="http://www.w3.org/2000/svg"><path d="m.255436 9.09122025h1.73599412v7.22033545c0 .1425549.11433315.2580646.255436.2580646h2.94344008c.14110285 0 .255436-.1155097.255436-.2580646v-7.18632254h1.99567036c.12976149 0 .23893483-.0983742.25375012-.22859355l.30310036-2.65816774c.00832721-.07313549-.01461094-.1463742-.06304161-.20123871-.04848175-.05491613-.11785817-.08634839-.19065743-.08634839h-2.29871962v-1.66627097c0-.50229677.26769692-.75700645.79573421-.75700645h1.50298541c.14110285 0 .255436-.11556129.255436-.25806452v-2.43994838c0-.14255484-.11433315-.25806452-.255436-.25806452h-2.0713305c-.01461094-.00072258-.04705131-.00190968-.09486893-.00190968-.35939845 0-1.60863374.07127742-2.59543408.98843871-1.09336824 1.01636129-.94138383 2.23329033-.90506083 2.44428387v1.94849033h-1.82243366c-.14110285 0-.255436.11550967-.255436.25806451v2.62420645c0 .14255484.11433315.25811613.255436.25811613z" fill="#4d5e6c" opacity=".753836"/></svg>