<?xml version="1.0" encoding="UTF-8"?>
<svg width="554px" height="389px" viewBox="0 0 554 389" version="1.1" xmlns="http://www.w3.org/2000/svg" xmlns:xlink="http://www.w3.org/1999/xlink">
    <title>files</title>
    <defs>
        <path d="M64,32 C64,42.289625 59.1425,51.4455 51.59575,57.299625 C46.181875,61.500125 39.3835,64 32,64 C24.683125,64 17.940875,61.5445 12.5505,57.411875 C4.920125,51.564375 0,42.35625 0,32 C0,14.326875 14.326875,0 32,0 C49.673125,0 64,14.326875 64,32 Z" id="path-1"></path>
        <filter x="-142.2%" y="-139.1%" width="384.4%" height="384.4%" filterUnits="objectBoundingBox" id="filter-2">
            <feOffset dx="0" dy="2" in="SourceAlpha" result="shadowOffsetOuter1"></feOffset>
            <feGaussianBlur stdDeviation="30" in="shadowOffsetOuter1" result="shadowBlurOuter1"></feGaussianBlur>
            <feColorMatrix values="0 0 0 0 0   0 0 0 0 0   0 0 0 0 0  0 0 0 0.18 0" type="matrix" in="shadowBlurOuter1"></feColorMatrix>
        </filter>
        <path d="M63,31.5 C63,41.6288496 58.2183984,50.6416641 50.7895664,56.4043184 C45.4602832,60.5391855 38.7681328,63 31.5,63 C24.2974512,63 17.6605488,60.5828672 12.3543984,56.5148145 C4.84324805,50.7586816 0,41.6944336 0,31.5 C0,14.1030176 14.1030176,0 31.5,0 C48.8969824,0 63,14.1030176 63,31.5 Z" id="path-3"></path>
        <filter x="-144.4%" y="-141.3%" width="388.9%" height="388.9%" filterUnits="objectBoundingBox" id="filter-4">
            <feOffset dx="0" dy="2" in="SourceAlpha" result="shadowOffsetOuter1"></feOffset>
            <feGaussianBlur stdDeviation="30" in="shadowOffsetOuter1" result="shadowBlurOuter1"></feGaussianBlur>
            <feColorMatrix values="0 0 0 0 0   0 0 0 0 0   0 0 0 0 0  0 0 0 0.18 0" type="matrix" in="shadowBlurOuter1"></feColorMatrix>
        </filter>
        <path d="M63,31.5 C63,41.6288496 58.2183984,50.6416641 50.7895664,56.4043184 C45.4602832,60.5391855 38.7681328,63 31.5,63 C24.2974512,63 17.6605488,60.5828672 12.3543984,56.5148145 C4.84324805,50.7586816 0,41.6944336 0,31.5 C0,14.1030176 14.1030176,0 31.5,0 C48.8969824,0 63,14.1030176 63,31.5 Z" id="path-5"></path>
        <filter x="-144.4%" y="-141.3%" width="388.9%" height="388.9%" filterUnits="objectBoundingBox" id="filter-6">
            <feOffset dx="0" dy="2" in="SourceAlpha" result="shadowOffsetOuter1"></feOffset>
            <feGaussianBlur stdDeviation="30" in="shadowOffsetOuter1" result="shadowBlurOuter1"></feGaussianBlur>
            <feColorMatrix values="0 0 0 0 0   0 0 0 0 0   0 0 0 0 0  0 0 0 0.18 0" type="matrix" in="shadowBlurOuter1"></feColorMatrix>
        </filter>
        <path d="M64,32 C64,42.289625 59.1425,51.4455 51.59575,57.299625 C46.181875,61.500125 39.3835,64 32,64 C24.683125,64 17.940875,61.5445 12.5505,57.411875 C4.920125,51.564375 0,42.35625 0,32 C0,14.326875 14.326875,0 32,0 C49.673125,0 64,14.326875 64,32 Z" id="path-7"></path>
        <filter x="-142.2%" y="-139.1%" width="384.4%" height="384.4%" filterUnits="objectBoundingBox" id="filter-8">
            <feOffset dx="0" dy="2" in="SourceAlpha" result="shadowOffsetOuter1"></feOffset>
            <feGaussianBlur stdDeviation="30" in="shadowOffsetOuter1" result="shadowBlurOuter1"></feGaussianBlur>
            <feColorMatrix values="0 0 0 0 0   0 0 0 0 0   0 0 0 0 0  0 0 0 0.18 0" type="matrix" in="shadowBlurOuter1"></feColorMatrix>
        </filter>
    </defs>
    <g id="Website" stroke="none" stroke-width="1" fill="none" fill-rule="evenodd">
        <g id="Illustrations" transform="translate(-122.000000, -1453.000000)">
            <g id="files" transform="translate(122.000000, 1453.000000)">
                <g id="Group-13-Copy">
                    <g id="Group-Copy">
                        <rect id="Rectangle" fill="#F4F4F4" x="0" y="0" width="554" height="389" rx="20"></rect>
                        <path d="M20,0 L534,0 C545.045695,-2.02906125e-15 554,8.954305 554,20 L554,42 L554,42 L0,42 L0,20 C-1.3527075e-15,8.954305 8.954305,2.02906125e-15 20,0 Z" id="Rectangle" fill="#3D566E"></path>
                        <path d="M0,86 L554,86 L554,369 C554,380.045695 545.045695,389 534,389 L20,389 C8.954305,389 1.3527075e-15,380.045695 0,369 L0,86 L0,86 Z" id="Rectangle" fill="#FFFFFF"></path>
                        <rect id="Rectangle" fill="#3D566E" x="453" y="52" width="101" height="24"></rect>
                    </g>
                    <path d="M18.0795455,70 L18.0795455,59.875 L21.7102273,59.875 L21.7102273,58.3636364 L12.7045455,58.3636364 L12.7045455,59.875 L16.3295455,59.875 L16.3295455,70 L18.0795455,70 Z M25.2545541,70 L25.2545541,64.6704545 C25.2545541,64.2916667 25.3454631,63.9535985 25.5272813,63.65625 C25.7090995,63.3589015 25.9562586,63.125947 26.2687586,62.9573864 C26.5812586,62.7888258 26.9382662,62.7045455 27.3397813,62.7045455 C27.5140238,62.7045455 27.6882662,62.7168561 27.8625086,62.7414773 C28.036751,62.7660985 28.1579631,62.7878788 28.226145,62.8068182 L28.226145,62.8068182 L28.226145,61.1818182 C28.1428116,61.1704545 28.0282283,61.1609848 27.882395,61.1534091 C27.7365616,61.1458333 27.6106147,61.1420455 27.5045541,61.1420455 C26.9931904,61.1420455 26.5358041,61.2774621 26.132395,61.5482955 C25.7289859,61.8191288 25.4477359,62.1893939 25.288645,62.6590909 L25.288645,62.6590909 L25.1977359,62.6590909 L25.1977359,61.2727273 L23.5556904,61.2727273 L23.5556904,70 L25.2545541,70 Z M32.2454751,70.1931818 C32.7265357,70.1931818 33.1394145,70.1231061 33.4841114,69.9829545 C33.8288084,69.842803 34.1110054,69.6666667 34.3307023,69.4545455 C34.5503993,69.2424242 34.715172,69.0265152 34.8250205,68.8068182 L34.8250205,68.8068182 L34.8932023,68.8068182 L34.8932023,70 L36.5522933,70 L36.5522933,64.2045455 C36.5522933,63.5681818 36.4424448,63.0501894 36.2227478,62.6505682 C36.0030508,62.250947 35.7218008,61.9431818 35.3789978,61.7272727 C35.0361948,61.5113636 34.6687705,61.3626894 34.2767251,61.28125 C33.8846796,61.1998106 33.5144145,61.1590909 33.1659296,61.1590909 C32.6394145,61.1590909 32.1375205,61.2339015 31.6602478,61.3835227 C31.1829751,61.5331439 30.7615736,61.7717803 30.3960433,62.0994318 C30.030513,62.4270833 29.7530508,62.8560606 29.5636569,63.3863636 L29.5636569,63.3863636 L31.1602478,63.75 C31.2852478,63.4431818 31.5115736,63.1638258 31.8392251,62.9119318 C32.1668766,62.6600379 32.6166872,62.5340909 33.1886569,62.5340909 C33.7378993,62.5340909 34.1517251,62.6704545 34.4301342,62.9431818 C34.7085433,63.2159091 34.8477478,63.6003788 34.8477478,64.0965909 L34.8477478,64.0965909 L34.8477478,64.1363636 C34.8477478,64.3409091 34.7738842,64.4886364 34.6261569,64.5795455 C34.4784296,64.6704545 34.2416872,64.7357955 33.9159296,64.7755682 C33.590172,64.8153409 33.1659296,64.8655303 32.6432023,64.9261364 C32.2303236,64.9753788 31.8250205,65.0473485 31.4272933,65.1420455 C31.029566,65.2367424 30.6697175,65.3768939 30.3477478,65.5625 C30.0257781,65.7481061 29.7700963,66 29.5807023,66.3181818 C29.3913084,66.6363636 29.2966114,67.0416667 29.2966114,67.5340909 C29.2966114,68.1060606 29.4263463,68.5890152 29.685816,68.9829545 C29.9452857,69.3768939 30.2985054,69.6770833 30.7454751,69.8835227 C31.1924448,70.0899621 31.6924448,70.1931818 32.2454751,70.1931818 Z M32.6147933,68.8295455 C32.1337327,68.8295455 31.7378993,68.7225379 31.4272933,68.5085227 C31.1166872,68.2945076 30.9613842,67.9772727 30.9613842,67.5568182 C30.9613842,67.2537879 31.0418766,67.0104167 31.2028614,66.8267045 C31.3638463,66.6429924 31.5797554,66.5018939 31.8505887,66.4034091 C32.121422,66.3049242 32.4216114,66.2348485 32.7511569,66.1931818 C32.8913084,66.1742424 33.0655508,66.1505682 33.2738842,66.1221591 C33.4822175,66.09375 33.6962327,66.061553 33.9159296,66.0255682 C34.1356266,65.9895833 34.3316493,65.9460227 34.5039978,65.8948864 C34.6763463,65.84375 34.7928236,65.7878788 34.8534296,65.7272727 L34.8534296,65.7272727 L34.8534296,66.8522727 C34.8534296,67.1969697 34.7653614,67.5198864 34.5892251,67.8210227 C34.4130887,68.1221591 34.1574069,68.3655303 33.8221796,68.5511364 C33.4869523,68.7367424 33.0844902,68.8295455 32.6147933,68.8295455 Z M40.5136622,70 L40.5136622,64.8181818 C40.5136622,64.3560606 40.6017303,63.9611742 40.7778667,63.6335227 C40.9540031,63.3058712 41.1945334,63.0568182 41.4994576,62.8863636 C41.8043819,62.7159091 42.1538137,62.6306818 42.5477531,62.6306818 C43.1235106,62.6306818 43.5761622,62.8096591 43.9057076,63.1676136 C44.2352531,63.5255682 44.4000258,64.0208333 44.4000258,64.6534091 L44.4000258,64.6534091 L44.4000258,70 L46.0988894,70 L46.0988894,64.4488636 C46.0988894,63.7291667 45.9757834,63.125 45.7295713,62.6363636 C45.4833591,62.1477273 45.1367682,61.7793561 44.6897985,61.53125 C44.2428288,61.2831439 43.7219955,61.1590909 43.1272985,61.1590909 C42.4719955,61.1590909 41.9293819,61.2992424 41.4994576,61.5795455 C41.0695334,61.8598485 40.7541925,62.2310606 40.5534349,62.6931818 L40.5534349,62.6931818 L40.4454803,62.6931818 L40.4454803,61.2727273 L38.8147985,61.2727273 L38.8147985,70 L40.5136622,70 Z M51.5159468,70.1761364 C52.2204923,70.1761364 52.8407574,70.0606061 53.3767423,69.8295455 C53.9127271,69.5984848 54.3312877,69.2793561 54.6324241,68.8721591 C54.9335605,68.4649621 55.0841286,68 55.0841286,67.4772727 C55.0841286,66.8598485 54.8871589,66.3579545 54.4932195,65.9715909 C54.0992802,65.5852273 53.5007953,65.2992424 52.697765,65.1136364 L52.697765,65.1136364 L51.3114014,64.7954545 C50.8303408,64.6818182 50.4818559,64.5359848 50.2659468,64.3579545 C50.0500377,64.1799242 49.9420832,63.9450758 49.9420832,63.6534091 C49.9420832,63.3162879 50.103068,63.0407197 50.4250377,62.8267045 C50.7470074,62.6126894 51.1485226,62.5056818 51.6295832,62.5056818 C51.9818559,62.5056818 52.2754165,62.5625 52.510265,62.6761364 C52.7451135,62.7897727 52.9316665,62.9356061 53.0699241,63.1136364 C53.2081817,63.2916667 53.3095074,63.4791667 53.3739014,63.6761364 L53.3739014,63.6761364 L54.9136741,63.4034091 C54.7394317,62.7215909 54.3814771,62.1770833 53.8398105,61.7698864 C53.2981438,61.3626894 52.5557195,61.1590909 51.6125377,61.1590909 C50.9572347,61.1590909 50.3757953,61.2679924 49.8682195,61.4857955 C49.3606438,61.7035985 48.9629165,62.0056818 48.6750377,62.3920455 C48.3871589,62.7784091 48.2432195,63.2291667 48.2432195,63.7443182 C48.2432195,64.3655303 48.4373483,64.8787879 48.8256059,65.2840909 C49.2138635,65.6893939 49.8151892,65.9848485 50.6295832,66.1704545 L50.6295832,66.1704545 L52.1068559,66.4943182 C52.5235226,66.5890152 52.8331817,66.7291667 53.0358332,66.9147727 C53.2384847,67.1003788 53.3398105,67.3295455 53.3398105,67.6022727 C53.3398105,67.9393939 53.1731438,68.2244318 52.8398105,68.4573864 C52.5064771,68.6903409 52.0614014,68.8068182 51.5045832,68.8068182 C50.9932195,68.8068182 50.5784468,68.6979167 50.260265,68.4801136 C49.9420832,68.2623106 49.7318559,67.9393939 49.6295832,67.5113636 L49.6295832,67.5113636 L47.9875377,67.7613636 C48.1276892,68.5340909 48.5064771,69.1297348 49.1239014,69.5482955 C49.7413256,69.9668561 50.5386741,70.1761364 51.5159468,70.1761364 Z M58.645505,70 L58.645505,58.3636364 L56.9466414,58.3636364 L56.9466414,70 L58.645505,70 Z M63.4682437,70.1931818 C63.9493043,70.1931818 64.3621831,70.1231061 64.70688,69.9829545 C65.051577,69.842803 65.333774,69.6666667 65.553471,69.4545455 C65.7731679,69.2424242 65.9379407,69.0265152 66.0477891,68.8068182 L66.0477891,68.8068182 L66.115971,68.8068182 L66.115971,70 L67.7750619,70 L67.7750619,64.2045455 C67.7750619,63.5681818 67.6652134,63.0501894 67.4455164,62.6505682 C67.2258194,62.250947 66.9445694,61.9431818 66.6017664,61.7272727 C66.2589634,61.5113636 65.8915391,61.3626894 65.4994937,61.28125 C65.1074482,61.1998106 64.7371831,61.1590909 64.3886982,61.1590909 C63.8621831,61.1590909 63.3602891,61.2339015 62.8830164,61.3835227 C62.4057437,61.5331439 61.9843422,61.7717803 61.6188119,62.0994318 C61.2532816,62.4270833 60.9758194,62.8560606 60.7864255,63.3863636 L60.7864255,63.3863636 L62.3830164,63.75 C62.5080164,63.4431818 62.7343422,63.1638258 63.0619937,62.9119318 C63.3896452,62.6600379 63.8394558,62.5340909 64.4114255,62.5340909 C64.9606679,62.5340909 65.3744937,62.6704545 65.6529028,62.9431818 C65.9313119,63.2159091 66.0705164,63.6003788 66.0705164,64.0965909 L66.0705164,64.0965909 L66.0705164,64.1363636 C66.0705164,64.3409091 65.9966528,64.4886364 65.8489255,64.5795455 C65.7011982,64.6704545 65.4644558,64.7357955 65.1386982,64.7755682 C64.8129407,64.8153409 64.3886982,64.8655303 63.865971,64.9261364 C63.4530922,64.9753788 63.0477891,65.0473485 62.6500619,65.1420455 C62.2523346,65.2367424 61.8924861,65.3768939 61.5705164,65.5625 C61.2485467,65.7481061 60.9928649,66 60.803471,66.3181818 C60.614077,66.6363636 60.51938,67.0416667 60.51938,67.5340909 C60.51938,68.1060606 60.6491149,68.5890152 60.9085846,68.9829545 C61.1680543,69.3768939 61.521274,69.6770833 61.9682437,69.8835227 C62.4152134,70.0899621 62.9152134,70.1931818 63.4682437,70.1931818 Z M63.8375619,68.8295455 C63.3565013,68.8295455 62.9606679,68.7225379 62.6500619,68.5085227 C62.3394558,68.2945076 62.1841528,67.9772727 62.1841528,67.5568182 C62.1841528,67.2537879 62.2646452,67.0104167 62.42563,66.8267045 C62.5866149,66.6429924 62.802524,66.5018939 63.0733573,66.4034091 C63.3441907,66.3049242 63.64438,66.2348485 63.9739255,66.1931818 C64.114077,66.1742424 64.2883194,66.1505682 64.4966528,66.1221591 C64.7049861,66.09375 64.9190013,66.061553 65.1386982,66.0255682 C65.3583952,65.9895833 65.5544179,65.9460227 65.7267664,65.8948864 C65.8991149,65.84375 66.0155922,65.7878788 66.0761982,65.7272727 L66.0761982,65.7272727 L66.0761982,66.8522727 C66.0761982,67.1969697 65.98813,67.5198864 65.8119937,67.8210227 C65.6358573,68.1221591 65.3801755,68.3655303 65.0449482,68.5511364 C64.709721,68.7367424 64.3072588,68.8295455 63.8375619,68.8295455 Z M73.168249,70.1136364 C73.4409762,70.1098485 73.668249,70.0880682 73.8500671,70.0482955 C74.0318853,70.0085227 74.1720368,69.969697 74.2705217,69.9318182 L74.2705217,69.9318182 L73.9637035,68.5284091 C73.9068853,68.5397727 73.8273399,68.5549242 73.7250671,68.5738636 C73.6227944,68.592803 73.5034762,68.6022727 73.3671126,68.6022727 C73.1815065,68.6022727 73.010105,68.5729167 72.852908,68.5142045 C72.6957111,68.4554924 72.5678702,68.34375 72.4693853,68.1789773 C72.3709005,68.0142045 72.321658,67.7670455 72.321658,67.4375 L72.321658,67.4375 L72.321,62.637 L74.1114308,62.6363636 L74.1114308,61.2727273 L72.321,61.273 L72.321658,59.1818182 L70.6227944,59.1818182 L70.622,61.273 L69.3443853,61.2727273 L69.3443853,62.6363636 L70.622,62.637 L70.6227944,67.7897727 C70.6227944,68.2410714 70.7104567,68.6269712 70.8857814,68.9474722 L70.980749,69.1022727 C71.2193853,69.4507576 71.5318853,69.7083333 71.918249,69.875 C72.3046126,70.0416667 72.7212793,70.1212121 73.168249,70.1136364 Z M79.7489388,70.1761364 C80.3853025,70.1761364 80.9525373,70.0785985 81.4506434,69.8835227 C81.9487494,69.688447 82.3635222,69.4138258 82.6949615,69.0596591 C83.0264009,68.7054924 83.2565146,68.2916667 83.3853025,67.8181818 L83.3853025,67.8181818 L81.7773479,67.5284091 C81.6750752,67.8011364 81.5273479,68.030303 81.3341661,68.2159091 C81.1409843,68.4015152 80.9118176,68.5407197 80.6466661,68.6335227 C80.3815146,68.7263258 80.087954,68.7727273 79.7659843,68.7727273 C79.2697722,68.7727273 78.83606,68.6657197 78.4648479,68.4517045 C78.0936358,68.2376894 77.80481,67.9261364 77.5983706,67.5170455 C77.3919312,67.1079545 77.2887115,66.6117424 77.2887115,66.0284091 L77.291,66.148 L83.493257,66.1477273 L83.493257,65.5454545 C83.493257,64.7537879 83.3871964,64.0804924 83.1750752,63.5255682 C82.962954,62.9706439 82.6731812,62.5189394 82.305757,62.1704545 C81.9383328,61.8219697 81.52356,61.5662879 81.0614388,61.4034091 C80.5993176,61.2405303 80.1220449,61.1590909 79.6296206,61.1590909 C78.8190146,61.1590909 78.1116282,61.3503788 77.5074615,61.7329545 C76.9032949,62.1155303 76.4335979,62.6477273 76.0983706,63.3295455 C75.7631434,64.0113636 75.5955297,64.7992424 75.5955297,65.6931818 C75.5955297,66.5984848 75.7631434,67.3873106 76.0983706,68.0596591 C76.4335979,68.7320076 76.9108706,69.2528409 77.5301888,69.6221591 C78.149507,69.9914773 78.8890903,70.1761364 79.7489388,70.1761364 Z M77.2966819,64.818892 C77.3232496,64.4645676 77.4162368,64.1319444 77.5756434,63.8210227 C77.7669312,63.4479167 78.0396585,63.1448864 78.3938252,62.9119318 C78.7479919,62.6789773 79.1637115,62.5625 79.6409843,62.5625 C80.0803782,62.5625 80.4639009,62.6628788 80.7915525,62.8636364 C81.119204,63.0643939 81.3739388,63.3380682 81.555757,63.6846591 C81.7375752,64.03125 81.8284843,64.4280303 81.8284843,64.875 L81.8284843,64.875 L77.294,64.875 L77.2966819,64.818892 Z M91.896655,70 L91.896,62.637 L93.7773368,62.6363636 L93.7773368,61.2727273 L91.896,61.273 L91.896655,60.4886364 C91.896655,60.1574675 91.9613581,59.8930891 92.0907645,59.6955009 L92.1608595,59.6022727 C92.3369959,59.3977273 92.6315035,59.2954545 93.0443823,59.2954545 C93.2224126,59.2954545 93.3739277,59.311553 93.4989277,59.34375 C93.6239277,59.375947 93.7262005,59.4034091 93.8057459,59.4261364 L93.8057459,59.4261364 L94.2034732,58.0511364 C94.0860489,58.0056818 93.9061247,57.9554924 93.6637005,57.9005682 C93.4212762,57.8456439 93.1296095,57.8181818 92.7887005,57.8181818 C92.3265792,57.8181818 91.8985489,57.9081439 91.5046095,58.0880682 C91.1106701,58.2679924 90.7943823,58.5388258 90.5557459,58.9005682 C90.3171095,59.2623106 90.1977914,59.7159091 90.1977914,60.2613636 L90.1977914,60.2613636 L90.197,61.273 L88.8455186,61.2727273 L88.8455186,62.6363636 L90.197,62.637 L90.1977914,70 L91.896655,70 Z M96.3864358,59.9261364 C96.6818903,59.9261364 96.9347312,59.8267045 97.1449585,59.6278409 C97.3551858,59.4289773 97.4602994,59.1912879 97.4602994,58.9147727 C97.4602994,58.6344697 97.3551858,58.3948864 97.1449585,58.1960227 C96.9347312,57.9971591 96.6818903,57.8977273 96.3864358,57.8977273 C96.0909812,57.8977273 95.8381403,57.9971591 95.627913,58.1960227 C95.4176858,58.3948864 95.3125721,58.6344697 95.3125721,58.9147727 C95.3125721,59.1912879 95.4176858,59.4289773 95.627913,59.6278409 C95.8381403,59.8267045 96.0909812,59.9261364 96.3864358,59.9261364 Z M97.2273449,70 L97.2273449,61.2727273 L95.5284812,61.2727273 L95.5284812,70 L97.2273449,70 Z M101.209174,70 L101.209174,58.3636364 L99.5103108,58.3636364 L99.5103108,70 L101.209174,70 Z M107.253504,70.1761364 C107.889868,70.1761364 108.457102,70.0785985 108.955209,69.8835227 C109.453315,69.688447 109.868087,69.4138258 110.199527,69.0596591 C110.530966,68.7054924 110.76108,68.2916667 110.889868,67.8181818 L110.889868,67.8181818 L109.281913,67.5284091 C109.17964,67.8011364 109.031913,68.030303 108.838731,68.2159091 C108.645549,68.4015152 108.416383,68.5407197 108.151231,68.6335227 C107.88608,68.7263258 107.592519,68.7727273 107.270549,68.7727273 C106.774337,68.7727273 106.340625,68.6657197 105.969413,68.4517045 C105.598201,68.2376894 105.309375,67.9261364 105.102936,67.5170455 C104.896496,67.1079545 104.793277,66.6117424 104.793277,66.0284091 L104.796,66.148 L110.997822,66.1477273 L110.997822,65.5454545 C110.997822,64.7537879 110.891762,64.0804924 110.67964,63.5255682 C110.467519,62.9706439 110.177746,62.5189394 109.810322,62.1704545 C109.442898,61.8219697 109.028125,61.5662879 108.566004,61.4034091 C108.103883,61.2405303 107.62661,61.1590909 107.134186,61.1590909 C106.32358,61.1590909 105.616193,61.3503788 105.012027,61.7329545 C104.40786,62.1155303 103.938163,62.6477273 103.602936,63.3295455 C103.267709,64.0113636 103.100095,64.7992424 103.100095,65.6931818 C103.100095,66.5984848 103.267709,67.3873106 103.602936,68.0596591 C103.938163,68.7320076 104.415436,69.2528409 105.034754,69.6221591 C105.654072,69.9914773 106.393655,70.1761364 107.253504,70.1761364 Z M104.801247,64.818892 C104.827815,64.4645676 104.920802,64.1319444 105.080209,63.8210227 C105.271496,63.4479167 105.544224,63.1448864 105.89839,62.9119318 C106.252557,62.6789773 106.668277,62.5625 107.145549,62.5625 C107.584943,62.5625 107.968466,62.6628788 108.296118,62.8636364 C108.623769,63.0643939 108.878504,63.3380682 109.060322,63.6846591 C109.24214,64.03125 109.333049,64.4280303 109.333049,64.875 L109.333049,64.875 L104.799,64.875 L104.801247,64.818892 Z" id="Translatefile" fill="#52677D" fill-rule="nonzero"></path>
                </g>
                <g id="Group-24" transform="translate(90.000000, 131.000000)">
                    <path d="M150.414773,11 C151.448864,11 152.330492,10.7953362 153.059659,10.3860085 C153.788826,9.97668087 154.346473,9.39086174 154.732599,8.62855114 C155.118726,7.86624053 155.31179,6.9547822 155.31179,5.89417614 C155.31179,4.83688447 155.120384,3.92956913 154.737571,3.17223011 C154.354759,2.4148911 153.805398,1.83321496 153.089489,1.4272017 C152.37358,1.02118845 151.516809,0.818181818 150.519176,0.818181818 L150.519176,0.818181818 L147.118608,0.818181818 L147.118608,11 L150.414773,11 Z M150.330256,9.65767045 L148.65483,9.65767045 L148.65483,2.16051136 L150.424716,2.16051136 C151.16714,2.16051136 151.788589,2.3046875 152.289063,2.59303977 C152.789536,2.88139205 153.166548,3.30397727 153.420099,3.86079545 C153.673651,4.41761364 153.800426,5.0954072 153.800426,5.89417614 C153.800426,6.69957386 153.672822,7.38151042 153.417614,7.9399858 C153.162405,8.49846117 152.777936,8.9243608 152.264205,9.21768466 C151.750473,9.51100852 151.105824,9.65767045 150.330256,9.65767045 L150.330256,9.65767045 Z M158.588071,11 L158.588071,6.33664773 C158.588071,6.00520833 158.667616,5.70939867 158.826707,5.44921875 C158.985798,5.18903883 159.202062,4.9852036 159.4755,4.83771307 C159.748937,4.69022254 160.061319,4.61647727 160.412644,4.61647727 C160.565107,4.61647727 160.717569,4.62724905 160.870031,4.64879261 C161.022493,4.67033617 161.128554,4.68939394 161.188213,4.70596591 L161.188213,4.70596591 L161.188213,3.28409091 C161.115296,3.27414773 161.015036,3.26586174 160.887431,3.25923295 C160.759827,3.25260417 160.649624,3.24928977 160.556821,3.24928977 C160.109377,3.24928977 159.709164,3.36777936 159.356181,3.60475852 C159.003198,3.84173769 158.757105,4.1657197 158.6179,4.57670455 L158.6179,4.57670455 L158.538355,4.57670455 L158.538355,3.36363636 L157.101565,3.36363636 L157.101565,11 L158.588071,11 Z M164.705127,11.1690341 C165.126055,11.1690341 165.487323,11.1077178 165.788933,10.9850852 C166.090543,10.8624527 166.337466,10.7083333 166.5297,10.5227273 C166.721935,10.3371212 166.866111,10.1482008 166.962229,9.95596591 L166.962229,9.95596591 L167.021888,9.95596591 L167.021888,11 L168.473592,11 L168.473592,5.92897727 C168.473592,5.37215909 168.377475,4.91891572 168.18524,4.56924716 C167.993005,4.2195786 167.746912,3.95028409 167.446959,3.76136364 C167.147006,3.57244318 166.82551,3.44235322 166.48247,3.37109375 C166.13943,3.29983428 165.815448,3.26420455 165.510524,3.26420455 C165.049823,3.26420455 164.610666,3.32966383 164.193053,3.46058239 C163.775439,3.59150095 163.406713,3.80030777 163.086874,4.08700284 C162.767035,4.37369792 162.524255,4.74905303 162.358536,5.21306818 L162.358536,5.21306818 L163.755553,5.53125 C163.864928,5.26278409 164.062963,5.01834754 164.349658,4.79794034 C164.636353,4.57753314 165.029937,4.46732955 165.530411,4.46732955 C166.010998,4.46732955 166.373095,4.58664773 166.616703,4.82528409 C166.860311,5.06392045 166.982115,5.40033144 166.982115,5.83451705 L166.982115,5.83451705 L166.982115,5.86931818 C166.982115,6.04829545 166.917484,6.17755682 166.788223,6.25710227 C166.658962,6.33664773 166.451812,6.39382102 166.166774,6.42862216 C165.881736,6.4634233 165.510524,6.50733902 165.053138,6.56036932 C164.691869,6.60345644 164.337229,6.66642992 163.989217,6.74928977 C163.641206,6.83214962 163.326339,6.9547822 163.044615,7.1171875 C162.762892,7.2795928 162.53917,7.5 162.37345,7.77840909 C162.207731,8.05681818 162.124871,8.41145833 162.124871,8.84232955 C162.124871,9.34280303 162.238389,9.76538826 162.465425,10.1100852 C162.692461,10.4547822 163.001528,10.7174479 163.392627,10.8980824 C163.783725,11.0787169 164.221225,11.1690341 164.705127,11.1690341 Z M165.02828,9.97585227 C164.607352,9.97585227 164.260998,9.88222064 163.989217,9.69495739 C163.717437,9.50769413 163.581547,9.23011364 163.581547,8.86221591 C163.581547,8.59706439 163.651978,8.38411458 163.79284,8.22336648 C163.933701,8.06261837 164.122622,7.9391572 164.359601,7.85298295 C164.59658,7.76680871 164.859246,7.70549242 165.147598,7.66903409 C165.270231,7.65246212 165.422693,7.63174716 165.604984,7.6068892 C165.787276,7.58203125 165.974539,7.5538589 166.166774,7.52237216 C166.359009,7.49088542 166.530529,7.45276989 166.681334,7.40802557 C166.832139,7.36328125 166.934056,7.31439394 166.987087,7.26136364 L166.987087,7.26136364 L166.987087,8.24573864 C166.987087,8.54734848 166.910027,8.82990057 166.755908,9.09339489 C166.601788,9.3568892 166.378067,9.56983902 166.084743,9.73224432 C165.791419,9.89464962 165.439265,9.97585227 165.02828,9.97585227 Z M173.654989,14.0078125 C174.30461,14.0078125 174.888772,13.9067235 175.407475,13.7045455 C175.926178,13.5023674 176.337991,13.191643 176.642915,12.7723722 C176.947839,12.3531013 177.100302,11.8186553 177.100302,11.1690341 L177.100302,11.1690341 L177.100302,3.36363636 L175.643625,3.36363636 L175.643625,4.6015625 L175.53425,4.6015625 C175.444762,4.44247159 175.317986,4.25852273 175.153924,4.04971591 C174.989861,3.84090909 174.761997,3.65778883 174.47033,3.50035511 C174.178663,3.3429214 173.795851,3.26420455 173.321892,3.26420455 C172.70873,3.26420455 172.160197,3.41915246 171.676296,3.7290483 C171.192394,4.03894413 170.812068,4.48390152 170.535316,5.06392045 C170.258564,5.64393939 170.120188,6.33996212 170.120188,7.15198864 C170.120188,7.96401515 170.260221,8.6476089 170.540287,9.20276989 C170.820354,9.75793087 171.201509,10.1772017 171.683753,10.4605824 C172.165998,10.7439631 172.70873,10.8856534 173.311949,10.8856534 C173.779279,10.8856534 174.158777,10.8127367 174.450444,10.6669034 C174.74211,10.5210701 174.971632,10.3487216 175.139009,10.149858 C175.306386,9.95099432 175.434819,9.77035985 175.524307,9.60795455 L175.524307,9.60795455 L175.618767,9.60795455 L175.618767,11.109375 C175.618767,11.6993371 175.434819,12.1302083 175.066921,12.4019886 C174.699023,12.6737689 174.233351,12.8096591 173.669904,12.8096591 C173.258919,12.8096591 172.923337,12.7516572 172.663157,12.6356534 C172.402977,12.5196496 172.197484,12.3804451 172.046679,12.2180398 C171.895874,12.0556345 171.775728,11.9048295 171.686239,11.765625 L171.686239,11.765625 L170.40854,12.2926136 C170.54443,12.5975379 170.749923,12.88009 171.025017,13.1402699 C171.300112,13.4004498 171.655581,13.6100852 172.091424,13.7691761 C172.527267,13.928267 173.048455,14.0078125 173.654989,14.0078125 Z M173.640074,9.65269886 C173.19926,9.65269886 172.828876,9.54663826 172.528924,9.33451705 C172.228971,9.12239583 172.002764,8.82741477 171.850302,8.44957386 C171.697839,8.07173295 171.621608,7.63257576 171.621608,7.13210227 C171.621608,6.64488636 171.697011,6.20407197 171.847816,5.80965909 C171.998621,5.41524621 172.223171,5.10286458 172.521466,4.8725142 C172.819762,4.64216383 173.192631,4.52698864 173.640074,4.52698864 C174.07426,4.52698864 174.438843,4.63719223 174.733824,4.85759943 C175.028805,5.07800663 175.252527,5.38375947 175.404989,5.77485795 C175.557451,6.16595644 175.633682,6.61837121 175.633682,7.13210227 C175.633682,7.65909091 175.556623,8.11067708 175.402503,8.4868608 C175.248384,8.86304451 175.023005,9.15139678 174.726367,9.35191761 C174.429729,9.55243845 174.067631,9.65269886 173.640074,9.65269886 Z M185.765777,11.1441761 C186.239736,11.1441761 186.721151,11.0613163 187.210024,10.8955966 C187.698898,10.7298769 188.115683,10.4730114 188.46038,10.125 L188.389,10.192 L189.076857,11 L190.757255,11 L189.302,9.261 L189.392553,9.1431108 C189.567939,8.90696023 189.722036,8.61211727 189.854842,8.25858191 L189.93197,8.03941761 C190.081118,7.58700284 190.155692,7.03267045 190.155692,6.37642045 L190.155692,6.37642045 L188.813362,6.37642045 C188.813362,6.91003788 188.727188,7.3922822 188.55484,7.82315341 C188.52037,7.90932765 188.483481,7.99304924 188.444172,8.07431818 L188.392,8.173 L186.354,5.736 L187.048448,5.22301136 C187.399221,4.96614583 187.687274,4.68798993 187.912607,4.38854364 L188.04028,4.20632102 C188.280574,3.8367661 188.40072,3.41003788 188.40072,2.92613636 C188.40072,2.52840909 188.298803,2.16133996 188.094968,1.82492898 C187.891132,1.48851799 187.601123,1.21839489 187.224939,1.01455966 C186.848755,0.810724432 186.398826,0.708806818 185.875152,0.708806818 C185.358107,0.708806818 184.907349,0.81155303 184.52288,1.01704545 C184.13841,1.22253788 183.839286,1.50674716 183.625507,1.8696733 C183.411729,2.23259943 183.30484,2.64772727 183.30484,3.11505682 C183.30484,3.52604167 183.391843,3.90802557 183.565848,4.26100852 C183.739854,4.61399148 183.967719,4.96200284 184.249442,5.30504261 L184.249442,5.30504261 L184.43,5.524 L184.223652,5.67014382 C184.033489,5.80893407 183.85534,5.94731001 183.689206,6.08527166 L183.449016,6.29190341 C183.140777,6.56699811 182.900484,6.86612216 182.728135,7.18927557 C182.555787,7.51242898 182.469612,7.8811553 182.469612,8.29545455 C182.469612,8.83901515 182.602188,9.32540246 182.86734,9.75461648 C183.132491,10.1838305 183.511161,10.5227273 184.003348,10.7713068 C184.495536,11.0198864 185.083012,11.1441761 185.765777,11.1441761 Z M185.534,4.744 L185.392908,4.56924716 C185.19073,4.31901042 185.025839,4.07623106 184.898235,3.84090909 C184.77063,3.60558712 184.706828,3.37192235 184.706828,3.13991477 C184.706828,2.94105114 184.757373,2.75130208 184.858462,2.57066761 C184.959551,2.39003314 185.100413,2.24171402 185.281047,2.12571023 C185.461682,2.00970644 185.671317,1.95170455 185.909953,1.95170455 C186.25465,1.95170455 186.529745,2.06107955 186.735237,2.27982955 C186.94073,2.49857955 187.043476,2.72727273 187.043476,2.96590909 C187.043476,3.26751894 186.965588,3.52024148 186.809811,3.7240767 C186.654035,3.92791193 186.436942,4.12097538 186.158533,4.30326705 L186.158533,4.30326705 L185.534,4.744 Z M185.770749,9.88636364 C185.402851,9.88636364 185.082183,9.81178977 184.808746,9.66264205 C184.535308,9.51349432 184.323187,9.31463068 184.172382,9.06605114 C184.021577,8.81747159 183.946175,8.54734848 183.946175,8.25568182 C183.946175,8.09659091 184.023235,7.87535511 184.177354,7.59197443 C184.331473,7.30859375 184.607397,7.02107008 185.005124,6.72940341 L185.005124,6.72940341 L185.274,6.532 L187.555,9.212 L187.488433,9.26710227 C187.360498,9.36732955 187.227259,9.45602273 187.088718,9.53318182 L186.876928,9.64026989 C186.517316,9.80433239 186.14859,9.88636364 185.770749,9.88636364 Z M199.036938,11 C200.071029,11 200.952658,10.7953362 201.681824,10.3860085 C202.410991,9.97668087 202.968638,9.39086174 203.354765,8.62855114 C203.740891,7.86624053 203.933955,6.9547822 203.933955,5.89417614 C203.933955,4.83688447 203.742549,3.92956913 203.359736,3.17223011 C202.976924,2.4148911 202.427563,1.83321496 201.711654,1.4272017 C200.995745,1.02118845 200.138974,0.818181818 199.141341,0.818181818 L199.141341,0.818181818 L195.740773,0.818181818 L195.740773,11 L199.036938,11 Z M198.952421,9.65767045 L197.276995,9.65767045 L197.276995,2.16051136 L199.046881,2.16051136 C199.789305,2.16051136 200.410754,2.3046875 200.911228,2.59303977 C201.411701,2.88139205 201.788713,3.30397727 202.042265,3.86079545 C202.295816,4.41761364 202.422591,5.0954072 202.422591,5.89417614 C202.422591,6.69957386 202.294987,7.38151042 202.039779,7.9399858 C201.78457,8.49846117 201.400101,8.9243608 200.88637,9.21768466 C200.372639,9.51100852 199.727989,9.65767045 198.952421,9.65767045 L198.952421,9.65767045 Z M207.210236,11 L207.210236,6.33664773 C207.210236,6.00520833 207.289781,5.70939867 207.448872,5.44921875 C207.607963,5.18903883 207.824227,4.9852036 208.097665,4.83771307 C208.371102,4.69022254 208.683484,4.61647727 209.03481,4.61647727 C209.187272,4.61647727 209.339734,4.62724905 209.492196,4.64879261 C209.644658,4.67033617 209.750719,4.68939394 209.810378,4.70596591 L209.810378,4.70596591 L209.810378,3.28409091 C209.737461,3.27414773 209.637201,3.26586174 209.509597,3.25923295 C209.381992,3.25260417 209.271789,3.24928977 209.178986,3.24928977 C208.731543,3.24928977 208.33133,3.36777936 207.978347,3.60475852 C207.625364,3.84173769 207.37927,4.1657197 207.240065,4.57670455 L207.240065,4.57670455 L207.16052,4.57670455 L207.16052,3.36363636 L205.72373,3.36363636 L205.72373,11 L207.210236,11 Z M214.32161,11.1541193 C215.037519,11.1541193 215.662282,10.9900568 216.1959,10.6619318 C216.729517,10.3338068 217.143816,9.87476326 217.438797,9.28480114 C217.733778,8.69483902 217.881269,8.00544508 217.881269,7.21661932 C217.881269,6.42447917 217.733778,5.73177083 217.438797,5.13849432 C217.143816,4.5452178 216.729517,4.08451705 216.1959,3.75639205 C215.662282,3.42826705 215.037519,3.26420455 214.32161,3.26420455 C213.605701,3.26420455 212.980937,3.42826705 212.44732,3.75639205 C211.913703,4.08451705 211.499403,4.5452178 211.204422,5.13849432 C210.909441,5.73177083 210.761951,6.42447917 210.761951,7.21661932 C210.761951,8.00544508 210.909441,8.69483902 211.204422,9.28480114 C211.499403,9.87476326 211.913703,10.3338068 212.44732,10.6619318 C212.980937,10.9900568 213.605701,11.1541193 214.32161,11.1541193 Z M214.326581,9.90625 C213.859252,9.90625 213.472296,9.78361742 213.165715,9.53835227 C212.859134,9.29308712 212.632098,8.96661932 212.484607,8.55894886 C212.337116,8.15127841 212.263371,7.70217803 212.263371,7.21164773 C212.263371,6.72443182 212.337116,6.27616004 212.484607,5.86683239 C212.632098,5.45750473 212.859134,5.12855114 213.165715,4.87997159 C213.472296,4.63139205 213.859252,4.50710227 214.326581,4.50710227 C214.790597,4.50710227 215.175066,4.63139205 215.479991,4.87997159 C215.784915,5.12855114 216.011122,5.45750473 216.158613,5.86683239 C216.306103,6.27616004 216.379848,6.72443182 216.379848,7.21164773 C216.379848,7.70217803 216.306103,8.15127841 216.158613,8.55894886 C216.011122,8.96661932 215.784915,9.29308712 215.479991,9.53835227 C215.175066,9.78361742 214.790597,9.90625 214.326581,9.90625 Z M221.023319,13.8636364 L221.023319,9.81178977 L221.112808,9.81178977 C221.202297,9.97419508 221.329901,10.1598011 221.49562,10.368608 C221.66134,10.5774148 221.890862,10.7597064 222.184186,10.915483 C222.47751,11.0712595 222.856179,11.1491477 223.320194,11.1491477 C223.936672,11.1491477 224.485204,10.9908854 224.965791,10.6743608 C225.446378,10.3578362 225.824219,9.9054214 226.099314,9.31711648 C226.374408,8.72881155 226.511956,8.02201705 226.511956,7.19673295 C226.511956,6.37144886 226.37358,5.66548295 226.096828,5.07883523 C225.820076,4.4921875 225.439749,4.04308712 224.955848,3.73153409 C224.471946,3.41998106 223.921757,3.26420455 223.305279,3.26420455 C222.831321,3.26420455 222.450166,3.3429214 222.161814,3.50035511 C221.873461,3.65778883 221.648083,3.84090909 221.485677,4.04971591 C221.323272,4.25852273 221.198982,4.44247159 221.112808,4.6015625 L221.112808,4.6015625 L220.988518,4.6015625 L220.988518,3.36363636 L219.536814,3.36363636 L219.536814,13.8636364 L221.023319,13.8636364 Z M222.987098,9.88139205 C222.559541,9.88139205 222.198272,9.76787405 221.903291,9.54083807 C221.60831,9.31380208 221.382931,8.99810606 221.227154,8.59375 C221.071378,8.18939394 220.99349,7.71875 220.99349,7.18181818 C220.99349,6.65151515 221.069721,6.1875 221.222183,5.78977273 C221.374645,5.39204545 221.599195,5.08214962 221.895833,4.86008523 C222.192472,4.63802083 222.556226,4.52698864 222.987098,4.52698864 C223.434541,4.52698864 223.808239,4.64299242 224.108191,4.875 C224.408144,5.10700758 224.633523,5.4235322 224.784328,5.82457386 C224.935133,6.22561553 225.010535,6.6780303 225.010535,7.18181818 C225.010535,7.69223485 224.933475,8.15127841 224.779356,8.55894886 C224.625237,8.96661932 224.399029,9.28894413 224.100734,9.5259233 C223.802439,9.76290246 223.431226,9.88139205 222.987098,9.88139205 Z" id="Drag&amp;Drop" fill="#52677D" fill-rule="nonzero"></path>
                    <g id="Group-22" transform="translate(0.000000, 43.000000)">
                        <g id="Group-21" fill-rule="nonzero">
                            <g id="Group-19">
                                <g id="Group-17" transform="translate(83.000000, 0.000000)">
                                    <g id="html-5">
                                        <g id="Path">
                                            <use fill="black" fill-opacity="1" filter="url(#filter-2)" xlink:href="#path-1"></use>
                                            <use fill="#FFFFFF" xlink:href="#path-1"></use>
                                        </g>
                                    </g>
                                    <g id="csv" transform="translate(14.000000, 13.000000)" fill="#000000">
                                        <path d="M22.7245603,34.5651633 C22.7754681,34.5685208 22.8257199,34.5725241 22.8773493,34.5725241 L34.5146365,34.5725241 C35.8758954,34.5725241 36.9830745,33.4824131 36.9830745,32.143003 L36.9830745,5.59144341 C36.9830745,4.25209781 35.8758954,3.16185771 34.5146365,3.16185771 L22.8773493,3.16185771 C22.8261135,3.16185771 22.7754681,3.16637751 22.7245603,3.1694768 L22.7245603,2.27988903 C22.7245603,1.17531953 21.8291298,0.279889032 20.7245603,0.279889032 C20.6374582,0.279889032 20.5504492,0.285579105 20.4640889,0.296922903 L1.75107474,2.75496001 C0.755739479,2.8857017 0.0115460993,3.73404086 0.0115460993,4.73792614 L0.0115460993,33.0226929 C0.0115460993,34.0240383 0.752080867,34.8710543 1.74445696,35.0047786 L20.4574711,37.5263865 C21.5521468,37.6738958 22.5591366,36.9060657 22.7066459,35.81139 C22.7185754,35.7228603 22.7245603,35.6336308 22.7245603,35.5443009 L22.7245603,34.5651633 L22.7245603,34.5651633 Z M22.7245603,23.3229379 L26.4906223,23.3229379 L26.4906223,24.7118722 L22.7245603,24.7118722 L22.7245603,23.3229379 Z M22.7245603,23.1493777 L22.7245603,21.7350034 L26.4906223,21.7350034 L26.4906223,23.1493777 L22.7245603,23.1493777 Z M22.7245603,21.5614431 L22.7245603,19.9388353 L26.4906223,19.9388353 L26.4906223,21.5614431 L22.7245603,21.5614431 Z M22.7245603,19.765275 L22.7245603,17.9488969 L26.4906223,17.9488969 L26.4906223,19.765275 L22.7245603,19.765275 L22.7245603,19.765275 Z M22.7245603,17.8007766 L22.7245603,16.0704684 L26.4906223,16.0704684 L26.4906223,17.8007766 L22.7245603,17.8007766 Z M22.7245603,15.9220253 L22.7245603,14.1917171 L26.4155071,14.1917171 L26.4906879,14.1917171 L26.4906879,15.9220253 L22.7245603,15.9220253 Z M22.8774149,4.55053369 L34.5147021,4.55053369 C35.0981082,4.55053369 35.5725479,5.01775177 35.5725479,5.59176625 L35.5725479,32.1436486 C35.5725479,32.717534 35.0981082,33.1849458 34.5147021,33.1849458 L22.8774149,33.1849458 C22.8254574,33.1849458 22.7748777,33.177133 22.7245603,33.1692556 L22.7245603,24.860057 L26.6415089,24.860057 L26.6415089,24.8597342 L35.213766,24.8597342 L35.213766,13.8700365 L35.2060904,13.8700365 L35.2060904,12.1648454 L30.8862748,12.1648454 L30.7354539,12.1648454 L26.4155071,12.1648454 L26.4155071,12.1651683 L22.7245603,12.1651683 L22.7245603,4.5657073 C22.7748121,4.55815278 22.8251294,4.55053369 22.8774149,4.55053369 Z M35.0373599,14.1913942 L35.0373599,24.6858511 L33.3912535,24.6858511 L33.3912535,14.6980637 L32.2610479,14.6980637 L32.2610479,24.6858511 L31.3194504,24.6858511 L31.3194504,15.7240581 L30.1892447,15.7240581 L30.1892447,24.6858511 L29.3598936,24.6858511 L29.3598936,16.7376553 L28.2296223,16.7376553 L28.2296223,24.6858511 L26.6413777,24.6858511 L26.6413777,17.948574 L26.6413777,17.8004538 L26.6413777,16.0701455 L26.6413777,15.9217024 L26.6413777,14.1913942 L30.7349947,14.1913942 L30.8861436,14.1913942 L35.0373599,14.1913942 Z M30.8862748,14.0435968 L30.8862748,12.3134177 L35.0553351,12.3134177 L35.0553351,13.8700365 L35.0374255,13.8700365 L35.0374255,14.0435968 L30.8862748,14.0435968 Z M30.7354539,14.0435968 L26.6415089,14.0435968 L26.5664592,14.0435968 L26.5664592,12.3134177 L30.7351259,12.3134177 L30.7351259,14.0435968 L30.7354539,14.0435968 Z M5.75094149,20.7611158 C6.2184273,20.769316 6.74134752,20.6702679 7.05066489,20.5462962 L7.28775355,21.8329539 C6.99916667,21.9766835 6.35173227,22.1210588 5.51818262,22.0990409 C3.2028617,22.0383465 2.03998582,20.5015502 2.03998582,18.5073503 C2.03998582,16.1184428 3.63426596,14.7477169 5.66972518,14.695029 C6.47421277,14.6737859 7.09133865,14.8304292 7.37100355,14.9744817 L7.0507305,16.2840612 C6.73131028,16.1489837 6.29052482,16.0277886 5.74070745,16.0369573 C4.52521809,16.056909 3.59451064,16.8390279 3.59451064,18.4146299 C3.59444504,19.8323617 4.38509043,20.7385168 5.75094149,20.7611158 Z M10.087289,22.2192676 C9.26285816,22.1972497 8.45843617,21.9590563 8.05957092,21.7213794 L8.38469858,20.3598223 C8.81734929,20.5944644 9.48741667,20.8350468 10.1838564,20.8464755 C10.9419628,20.8593892 11.3464699,20.5441009 11.3464699,20.0571249 C11.3464699,19.5910044 10.9973972,19.3232386 10.1192376,18.9985879 C8.92342908,18.5681093 8.15371099,17.8947238 8.15371099,16.83199 C8.15371099,15.5845254 9.16760284,14.6032125 10.877016,14.5591767 C11.7090567,14.537288 12.3275603,14.6998716 12.7731348,14.8906717 L12.3945408,16.2723743 C12.0948014,16.1318731 11.5657801,15.9291924 10.8446738,15.9408793 C10.1306525,15.9523725 9.78682801,16.287225 9.78682801,16.6711497 C9.78682801,17.1429521 10.1943528,17.3479573 11.1388369,17.7069585 C12.4502376,18.192514 13.0756294,18.8866906 13.0756294,19.9529112 C13.0751046,21.2207148 12.1053635,22.2721492 10.087289,22.2192676 Z M18.1754628,22.3155393 L16.0705301,22.262012 L13.5925798,14.6128332 L15.5018191,14.5645359 L16.456406,17.8097516 C16.7272145,18.7281748 16.9743404,19.6148948 17.1630798,20.5842626 L17.1990301,20.5849082 C17.3999716,19.6527965 17.649984,18.7301764 17.9244663,17.8389366 L18.9591543,14.4778203 L20.9454113,14.4281671 L18.1754628,22.3155393 Z" id="Shape"></path>
                                    </g>
                                </g>
                                <g id="Group-14" transform="translate(0.000000, 84.000000)">
                                    <g id="Path-Copy">
                                        <use fill="black" fill-opacity="1" filter="url(#filter-4)" xlink:href="#path-3"></use>
                                        <use fill="#FFFFFF" xlink:href="#path-3"></use>
                                    </g>
                                    <g id="html-5(1)" transform="translate(16.000000, 14.000000)">
                                        <polygon id="Path" fill="#FF5722" points="0 0 2.91428571 32.4 16 36 29.0811429 32.40225 32 0"></polygon>
                                        <polygon id="Path" fill="#FAFAFA" points="25.68 10.59525 16 10.59525 10.3428571 10.59525 10.7085714 14.6655 16 14.6655 25.3142857 14.6655 24.2148571 26.8695 16 29.12625 15.9931429 29.1285 7.78285714 26.8695 7.20914286 20.48625 11.232 20.48625 11.5314286 23.79825 15.9954286 24.993 16 24.99075 16 24.99075 20.4685714 23.796 20.9348571 18.64125 16 18.64125 16 18.64125 7.04457143 18.64125 5.96114286 6.624 16 6.624 26.0365714 6.624"></polygon>
                                    </g>
                                </g>
                            </g>
                            <g id="Group-20" transform="translate(227.000000, 0.000000)">
                                <g id="Group-15">
                                    <g id="Path">
                                        <use fill="black" fill-opacity="1" filter="url(#filter-6)" xlink:href="#path-5"></use>
                                        <use fill="#FFFFFF" xlink:href="#path-5"></use>
                                    </g>
                                    <g id="word" transform="translate(12.000000, 13.000000)">
                                        <path d="M37.7563776,32.173913 L20.3456633,32.173913 C19.6591837,32.173913 19.1020408,31.619498 19.1020408,30.93083 C19.1020408,30.2421621 19.1020408,6.75535178 19.1020408,6.06916996 C19.1020408,5.38298814 19.6591837,4.82608696 20.3456633,4.82608696 L37.7563776,4.82608696 C38.4428571,4.82608696 39,5.38298814 39,6.06916996 L39,30.93083 C39,31.619498 38.4428571,32.173913 37.7563776,32.173913 Z" id="Path" fill="#ECEFF1"></path>
                                        <g id="Group" transform="translate(19.897959, 9.652174)" fill="#1976D2">
                                            <path d="M13.1326531,2.41334511 L1.19387755,2.41334511 C0.534857143,2.41334511 0,1.87523641 0,1.20682337 C0,0.538410326 0.534857143,0.000301630435 1.19387755,0.000301630435 L13.1326531,0.000301630435 C13.7916735,0.000301630435 14.3265306,0.54082337 14.3265306,1.20682337 C14.3265306,1.87282337 13.7916735,2.41334511 13.1326531,2.41334511 Z" id="Path"></path>
                                            <path d="M13.1326531,7.23943207 L1.19387755,7.23943207 C0.534857143,7.23943207 0,6.70132337 0,6.03291033 C0,5.36449728 0.534857143,4.82638859 1.19387755,4.82638859 L13.1326531,4.82638859 C13.7916735,4.82638859 14.3265306,5.36691033 14.3265306,6.03291033 C14.3265306,6.69891033 13.7916735,7.23943207 13.1326531,7.23943207 Z" id="Path"></path>
                                            <path d="M13.1326531,12.065519 L1.19387755,12.065519 C0.534857143,12.065519 0,11.5274103 0,10.8589973 C0,10.1905842 0.534857143,9.65247554 1.19387755,9.65247554 L13.1326531,9.65247554 C13.7916735,9.65247554 14.3265306,10.1929973 14.3265306,10.8589973 C14.3265306,11.5249973 13.7916735,12.065519 13.1326531,12.065519 Z" id="Path"></path>
                                            <path d="M13.1326531,16.891606 L1.19387755,16.891606 C0.534857143,16.891606 0,16.3534973 0,15.6850842 C0,15.0166712 0.534857143,14.4785625 1.19387755,14.4785625 L13.1326531,14.4785625 C13.7916735,14.4785625 14.3265306,15.0190842 14.3265306,15.6850842 C14.3265306,16.3510842 13.7916735,16.891606 13.1326531,16.891606 Z" id="Path"></path>
                                        </g>
                                        <path d="M21.8375238,0.286783593 C21.5552381,0.0499877868 21.176381,-0.0486771323 20.8198095,0.0228549341 L1.01028571,3.7227894 C0.425904762,3.83132081 0,4.34191177 0,4.93390128 L0,32.066754 C0,32.6587436 0.423428571,33.1693345 1.01028571,33.2778659 L20.8198095,36.9778004 C20.8965714,36.9926001 20.9708571,37 21.047619,37 C21.3348571,37 21.6146667,36.9013351 21.8375238,36.7163384 C22.1222857,36.4820092 22.2857143,36.1342153 22.2857143,35.7666885 L22.2857143,1.23396682 C22.2857143,0.866439993 22.1222857,0.521112776 21.8375238,0.286783593 Z" id="Path" fill="#1565C0"></path>
                                        <path d="M15.5132243,24.6354396 C15.4511439,25.2046855 15.021356,25.6595851 14.4745703,25.7291873 C14.4244284,25.7366446 14.3766741,25.7391304 14.3265322,25.7391304 C13.8346639,25.7391304 13.3857743,25.4209493 13.2090837,24.9337344 L10.7449665,18.0928399 L8.28084936,24.9337344 C8.08983252,25.4656935 7.58841332,25.791332 7.0344645,25.7316731 C6.49245422,25.6720141 6.05789092,25.234515 5.98148419,24.6702407 L4.78762896,15.9699751 C4.69450825,15.2938402 5.14817324,14.6624495 5.80001819,14.5655037 C6.45425086,14.466072 7.0583416,14.940858 7.15146231,15.6194787 L7.68392174,19.5072545 L9.62513034,14.1155756 C9.97373607,13.1461175 11.5114216,13.1461175 11.862415,14.1155756 L13.6914012,19.1915591 L14.3336954,13.1709754 C14.4077144,12.4898689 15.0141928,12.0001682 15.6517115,12.0722561 C16.3083319,12.1518014 16.7787109,12.7657916 16.7070796,13.4468981 L15.5132243,24.6354396 Z" id="Path" fill="#FAFAFA"></path>
                                    </g>
                                </g>
                                <g id="Group-16" transform="translate(83.000000, 83.000000)">
                                    <g id="Path">
                                        <use fill="black" fill-opacity="1" filter="url(#filter-8)" xlink:href="#path-7"></use>
                                        <use fill="#FFFFFF" xlink:href="#path-7"></use>
                                    </g>
                                    <g id="excel" transform="translate(14.000000, 16.000000)">
                                        <path d="M35.84375,28.9756098 L19.65625,28.9756098 C19.018,28.9756098 18.5,28.4839024 18.5,27.8780488 C18.5,27.2721951 18.5,6.53268293 18.5,5.92682927 C18.5,5.32097561 19.018,4.82926829 19.65625,4.82926829 L35.84375,4.82926829 C36.482,4.82926829 37,5.32097561 37,5.92682927 L37,27.8780488 C37,28.4839024 36.482,28.9756098 35.84375,28.9756098 Z" id="Path" fill="#ECEFF1"></path>
                                        <g id="Group" transform="translate(18.500000, 8.853659)" fill="#388E3C">
                                            <path d="M5.95643939,2.17570699 L1.19128788,2.17570699 C0.53369697,2.17570699 0,1.6885161 0,1.08822732 C0,0.487938537 0.53369697,0.000747642276 1.19128788,0.000747642276 L5.95643939,0.000747642276 C6.6140303,0.000747642276 7.14772727,0.487938537 7.14772727,1.08822732 C7.14772727,1.6885161 6.6140303,2.17570699 5.95643939,2.17570699 Z" id="Path"></path>
                                            <path d="M5.95643939,6.52562569 L1.19128788,6.52562569 C0.53369697,6.52562569 0,6.0384348 0,5.43814602 C0,4.83785724 0.53369697,4.35066634 1.19128788,4.35066634 L5.95643939,4.35066634 C6.6140303,4.35066634 7.14772727,4.83785724 7.14772727,5.43814602 C7.14772727,6.0384348 6.6140303,6.52562569 5.95643939,6.52562569 Z" id="Path"></path>
                                            <path d="M5.95643939,10.8755444 L1.19128788,10.8755444 C0.53369697,10.8755444 0,10.3883535 0,9.78806472 C0,9.18777593 0.53369697,8.70058504 1.19128788,8.70058504 L5.95643939,8.70058504 C6.6140303,8.70058504 7.14772727,9.18777593 7.14772727,9.78806472 C7.14772727,10.3883535 6.6140303,10.8755444 5.95643939,10.8755444 Z" id="Path"></path>
                                            <path d="M5.95643939,15.2254631 L1.19128788,15.2254631 C0.53369697,15.2254631 0,14.7382722 0,14.1379834 C0,13.5376946 0.53369697,13.0505037 1.19128788,13.0505037 L5.95643939,13.0505037 C6.6140303,13.0505037 7.14772727,13.5376946 7.14772727,14.1379834 C7.14772727,14.7382722 6.6140303,15.2254631 5.95643939,15.2254631 Z" id="Path"></path>
                                            <path d="M13.1041667,2.17570699 L10.7215909,2.17570699 C10.064,2.17570699 9.53030303,1.6885161 9.53030303,1.08822732 C9.53030303,0.487938537 10.064,0.000747642276 10.7215909,0.000747642276 L13.1041667,0.000747642276 C13.7617576,0.000747642276 14.2954545,0.487938537 14.2954545,1.08822732 C14.2954545,1.6885161 13.7617576,2.17570699 13.1041667,2.17570699 Z" id="Path"></path>
                                            <path d="M13.1041667,6.52562569 L10.7215909,6.52562569 C10.064,6.52562569 9.53030303,6.0384348 9.53030303,5.43814602 C9.53030303,4.83785724 10.064,4.35066634 10.7215909,4.35066634 L13.1041667,4.35066634 C13.7617576,4.35066634 14.2954545,4.83785724 14.2954545,5.43814602 C14.2954545,6.0384348 13.7617576,6.52562569 13.1041667,6.52562569 Z" id="Path"></path>
                                            <path d="M13.1041667,10.8755444 L10.7215909,10.8755444 C10.064,10.8755444 9.53030303,10.3883535 9.53030303,9.78806472 C9.53030303,9.18777593 10.064,8.70058504 10.7215909,8.70058504 L13.1041667,8.70058504 C13.7617576,8.70058504 14.2954545,9.18777593 14.2954545,9.78806472 C14.2954545,10.3883535 13.7617576,10.8755444 13.1041667,10.8755444 Z" id="Path"></path>
                                            <path d="M13.1041667,15.2254631 L10.7215909,15.2254631 C10.064,15.2254631 9.53030303,14.7382722 9.53030303,14.1379834 C9.53030303,13.5376946 10.064,13.0505037 10.7215909,13.0505037 L13.1041667,13.0505037 C13.7617576,13.0505037 14.2954545,13.5376946 14.2954545,14.1379834 C14.2954545,14.7382722 13.7617576,15.2254631 13.1041667,15.2254631 Z" id="Path"></path>
                                        </g>
                                        <path d="M20.5999369,0.254470834 C20.333649,0.0454802211 19.9762626,-0.0447157275 19.639899,0.0212813081 L0.953030303,3.32113309 C0.399431818,3.41792874 0,3.87110839 0,4.40128457 L0,28.6001976 C0,29.1281739 0.399431818,29.5835535 0.953030303,29.6803491 L19.639899,32.9802009 C19.7099747,32.9934003 19.7823864,33 19.854798,33 C20.1257576,33 20.3897096,32.912004 20.5999369,32.7470114 C20.8685606,32.5380208 21.0227273,32.2256348 21.0227273,31.9000494 L21.0227273,1.10143279 C21.0227273,0.773647514 20.8685606,0.463461447 20.5999369,0.254470834 Z" id="Path" fill="#2E7D32"></path>
                                        <path d="M15.6995487,19.9117905 L12.1545709,15.9448547 L15.739909,11.4312853 C16.1210894,10.9527064 16.0313999,10.2633772 15.5448343,9.89017355 C15.0582687,9.51696985 14.3542061,9.60478249 13.9707834,10.081166 L10.6500294,14.2610474 L7.85171678,11.130527 C7.44138728,10.6695107 6.73284017,10.6277997 6.27093921,11.0273472 C5.80455377,11.4268947 5.75746678,12.1206145 6.16555403,12.5750449 L9.24863085,16.0260814 L6.12295152,19.9600874 C5.74177111,20.4386663 5.83146062,21.1279955 6.3180262,21.5011992 C6.52431206,21.6570666 6.76871597,21.7317073 7.0086354,21.7317073 C7.34272882,21.7317073 7.67233776,21.5868165 7.89431929,21.3080114 L10.7531723,17.7076933 L14.0133859,21.354113 C14.2353675,21.604379 14.5447963,21.7317073 14.8564673,21.7317073 C15.1188091,21.7317073 15.3811509,21.6416994 15.5941635,21.4594881 C16.0605489,21.0599407 16.1076359,20.3662208 15.6995487,19.9117905 Z" id="Path" fill="#FAFAFA"></path>
                                    </g>
                                </g>
                            </g>
                        </g>
                        <g id="Group-18" transform="translate(117.000000, 107.000000)">
                            <rect id="Rectangle" fill="#3D566E" x="0" y="0" width="140" height="40" rx="5"></rect>
                            <path d="M34.8977273,26.1931818 C35.8295455,26.1931818 36.6420455,26.0142045 37.3352273,25.65625 C38.0284091,25.2982955 38.5662879,24.8058712 38.9488636,24.1789773 C39.3314394,23.5520833 39.5227273,22.8314394 39.5227273,22.0170455 L39.5227273,22.0170455 L39.5227273,14.3636364 L37.7613636,14.3636364 L37.7613636,21.875 C37.7613636,22.4015152 37.6467803,22.8693182 37.4176136,23.2784091 C37.188447,23.6875 36.8589015,24.0085227 36.4289773,24.2414773 C35.999053,24.4744318 35.4886364,24.5909091 34.8977273,24.5909091 C34.3106061,24.5909091 33.8030303,24.4744318 33.375,24.2414773 C32.9469697,24.0085227 32.6164773,23.6875 32.3835227,23.2784091 C32.1505682,22.8693182 32.0340909,22.4015152 32.0340909,21.875 L32.0340909,21.875 L32.0340909,14.3636364 L30.2784091,14.3636364 L30.2784091,22.0170455 C30.2784091,22.8314394 30.469697,23.5520833 30.8522727,24.1789773 C31.2348485,24.8058712 31.7727273,25.2982955 32.4659091,25.65625 C33.1590909,26.0142045 33.969697,26.1931818 34.8977273,26.1931818 Z M43.6409052,29.2727273 L43.6409052,24.6420455 L43.7431779,24.6420455 C43.8454507,24.8276515 43.991284,25.0397727 44.1806779,25.2784091 C44.3700719,25.5170455 44.6323825,25.7253788 44.9676098,25.9034091 C45.302837,26.0814394 45.7356022,26.1704545 46.2659052,26.1704545 C46.9704507,26.1704545 47.5973446,25.9895833 48.146587,25.6278409 C48.6958294,25.2660985 49.1276476,24.749053 49.4420416,24.0767045 C49.7564355,23.4043561 49.9136325,22.5965909 49.9136325,21.6534091 C49.9136325,20.7102273 49.7554885,19.9034091 49.4392007,19.2329545 C49.1229128,18.5625 48.6882537,18.0492424 48.1352234,17.6931818 C47.5821931,17.3371212 46.9534052,17.1590909 46.2488598,17.1590909 C45.7071931,17.1590909 45.271587,17.249053 44.9420416,17.4289773 C44.6124961,17.6089015 44.3549204,17.8181818 44.1693143,18.0568182 C43.9837082,18.2954545 43.8416628,18.5056818 43.7431779,18.6875 L43.7431779,18.6875 L43.6011325,18.6875 L43.6011325,17.2727273 L41.9420416,17.2727273 L41.9420416,29.2727273 L43.6409052,29.2727273 Z M45.8852234,24.7215909 C45.396587,24.7215909 44.9837082,24.5918561 44.646587,24.3323864 C44.3094658,24.0729167 44.0518901,23.7121212 43.8738598,23.25 C43.6958294,22.7878788 43.6068143,22.25 43.6068143,21.6363636 C43.6068143,21.030303 43.6939355,20.5 43.8681779,20.0454545 C44.0424204,19.5909091 44.2990491,19.2367424 44.6380643,18.9829545 C44.9770794,18.7291667 45.3927991,18.6022727 45.8852234,18.6022727 C46.396587,18.6022727 46.8236704,18.7348485 47.1664734,19 C47.5092764,19.2651515 47.7668522,19.6268939 47.9392007,20.0852273 C48.1115491,20.5435606 48.1977234,21.0606061 48.1977234,21.6363636 C48.1977234,22.219697 48.1096552,22.7443182 47.9335188,23.2102273 C47.7573825,23.6761364 47.4988598,24.0445076 47.1579507,24.3153409 C46.8170416,24.5861742 46.3927991,24.7215909 45.8852234,24.7215909 Z M53.51364,26 L53.51364,14.3636364 L51.8147763,14.3636364 L51.8147763,26 L53.51364,26 Z M59.4727423,26.1761364 C60.2909241,26.1761364 61.0049392,25.9886364 61.6147877,25.6136364 C62.2246362,25.2386364 62.698121,24.7140152 63.0352423,24.0397727 C63.3723635,23.3655303 63.5409241,22.5776515 63.5409241,21.6761364 C63.5409241,20.7708333 63.3723635,19.9791667 63.0352423,19.3011364 C62.698121,18.6231061 62.2246362,18.0965909 61.6147877,17.7215909 C61.0049392,17.3465909 60.2909241,17.1590909 59.4727423,17.1590909 C58.6545604,17.1590909 57.9405453,17.3465909 57.3306968,17.7215909 C56.7208483,18.0965909 56.2473635,18.6231061 55.9102423,19.3011364 C55.573121,19.9791667 55.4045604,20.7708333 55.4045604,21.6761364 C55.4045604,22.5776515 55.573121,23.3655303 55.9102423,24.0397727 C56.2473635,24.7140152 56.7208483,25.2386364 57.3306968,25.6136364 C57.9405453,25.9886364 58.6545604,26.1761364 59.4727423,26.1761364 Z M59.4784241,24.75 C58.9443332,24.75 58.5020983,24.6098485 58.1517195,24.3295455 C57.8013407,24.0492424 57.541871,23.6761364 57.3733104,23.2102273 C57.2047498,22.7443182 57.1204695,22.2310606 57.1204695,21.6704545 C57.1204695,21.1136364 57.2047498,20.6013258 57.3733104,20.1335227 C57.541871,19.6657197 57.8013407,19.2897727 58.1517195,19.0056818 C58.5020983,18.7215909 58.9443332,18.5795455 59.4784241,18.5795455 C60.0087271,18.5795455 60.448121,18.7215909 60.7966059,19.0056818 C61.1450907,19.2897727 61.4036135,19.6657197 61.5721741,20.1335227 C61.7407347,20.6013258 61.825015,21.1136364 61.825015,21.6704545 C61.825015,22.2310606 61.7407347,22.7443182 61.5721741,23.2102273 C61.4036135,23.6761364 61.1450907,24.0492424 60.7966059,24.3295455 C60.448121,24.6098485 60.0087271,24.75 59.4784241,24.75 Z M67.9727478,26.1931818 C68.4538084,26.1931818 68.8666872,26.1231061 69.2113842,25.9829545 C69.5560811,25.842803 69.8382781,25.6666667 70.0579751,25.4545455 C70.277672,25.2424242 70.4424448,25.0265152 70.5522933,24.8068182 L70.5522933,24.8068182 L70.6204751,24.8068182 L70.6204751,26 L72.279566,26 L72.279566,20.2045455 C72.279566,19.5681818 72.1697175,19.0501894 71.9500205,18.6505682 C71.7303236,18.250947 71.4490736,17.9431818 71.1062705,17.7272727 C70.7634675,17.5113636 70.3960433,17.3626894 70.0039978,17.28125 C69.6119523,17.1998106 69.2416872,17.1590909 68.8932023,17.1590909 C68.3666872,17.1590909 67.8647933,17.2339015 67.3875205,17.3835227 C66.9102478,17.5331439 66.4888463,17.7717803 66.123316,18.0994318 C65.7577857,18.4270833 65.4803236,18.8560606 65.2909296,19.3863636 L65.2909296,19.3863636 L66.8875205,19.75 C67.0125205,19.4431818 67.2388463,19.1638258 67.5664978,18.9119318 C67.8941493,18.6600379 68.3439599,18.5340909 68.9159296,18.5340909 C69.465172,18.5340909 69.8789978,18.6704545 70.1574069,18.9431818 C70.435816,19.2159091 70.5750205,19.6003788 70.5750205,20.0965909 L70.5750205,20.0965909 L70.5750205,20.1363636 C70.5750205,20.3409091 70.5011569,20.4886364 70.3534296,20.5795455 C70.2057023,20.6704545 69.9689599,20.7357955 69.6432023,20.7755682 C69.3174448,20.8153409 68.8932023,20.8655303 68.3704751,20.9261364 C67.9575963,20.9753788 67.5522933,21.0473485 67.154566,21.1420455 C66.7568387,21.2367424 66.3969902,21.3768939 66.0750205,21.5625 C65.7530508,21.7481061 65.497369,22 65.3079751,22.3181818 C65.1185811,22.6363636 65.0238842,23.0416667 65.0238842,23.5340909 C65.0238842,24.1060606 65.153619,24.5890152 65.4130887,24.9829545 C65.6725584,25.3768939 66.0257781,25.6770833 66.4727478,25.8835227 C66.9197175,26.0899621 67.4197175,26.1931818 67.9727478,26.1931818 Z M68.342066,24.8295455 C67.8610054,24.8295455 67.465172,24.7225379 67.154566,24.5085227 C66.8439599,24.2945076 66.6886569,23.9772727 66.6886569,23.5568182 C66.6886569,23.2537879 66.7691493,23.0104167 66.9301342,22.8267045 C67.091119,22.6429924 67.3070281,22.5018939 67.5778614,22.4034091 C67.8486948,22.3049242 68.1488842,22.2348485 68.4784296,22.1931818 C68.6185811,22.1742424 68.7928236,22.1505682 69.0011569,22.1221591 C69.2094902,22.09375 69.4235054,22.061553 69.6432023,22.0255682 C69.8628993,21.9895833 70.058922,21.9460227 70.2312705,21.8948864 C70.403619,21.84375 70.5200963,21.7878788 70.5807023,21.7272727 L70.5807023,21.7272727 L70.5807023,22.8522727 C70.5807023,23.1969697 70.4926342,23.5198864 70.3164978,23.8210227 C70.1403614,24.1221591 69.8846796,24.3655303 69.5494523,24.5511364 C69.2142251,24.7367424 68.811763,24.8295455 68.342066,24.8295455 Z M77.8091167,26.1704545 C78.3394197,26.1704545 78.7712379,26.0814394 79.1045713,25.9034091 C79.4379046,25.7253788 79.7002152,25.5170455 79.8915031,25.2784091 C80.082791,25.0397727 80.2295713,24.8276515 80.331844,24.6420455 L80.331844,24.6420455 L80.4738894,24.6420455 L80.4738894,26 L82.1329803,26 L82.1329803,14.3636364 L80.4341167,14.3636364 L80.4341167,18.6875 L80.331844,18.6875 C80.2295713,18.5056818 80.0865788,18.2954545 79.9028667,18.0568182 C79.7191546,17.8181818 79.4615788,17.6089015 79.1301394,17.4289773 C78.7987,17.249053 78.362147,17.1590909 77.8204803,17.1590909 C77.1197228,17.1590909 76.4928288,17.3371212 75.9397985,17.6931818 C75.3867682,18.0492424 74.9521091,18.5625 74.6358213,19.2329545 C74.3195334,19.9034091 74.1613894,20.7102273 74.1613894,21.6534091 C74.1613894,22.5965909 74.3176394,23.4043561 74.6301394,24.0767045 C74.9426394,24.749053 75.3744576,25.2660985 75.925594,25.6278409 C76.4767303,25.9895833 77.1045713,26.1704545 77.8091167,26.1704545 Z M78.1841167,24.7215909 C77.6803288,24.7215909 77.2570334,24.5861742 76.9142303,24.3153409 C76.5714273,24.0445076 76.3129046,23.6761364 76.1386622,23.2102273 C75.9644197,22.7443182 75.8772985,22.219697 75.8772985,21.6363636 C75.8772985,21.0606061 75.9634728,20.5435606 76.1358213,20.0852273 C76.3081697,19.6268939 76.5647985,19.2651515 76.9057076,19 C77.2466167,18.7348485 77.6727531,18.6022727 78.1841167,18.6022727 C78.6803288,18.6022727 79.0969955,18.7291667 79.4341167,18.9829545 C79.7712379,19.2367424 80.0269197,19.5909091 80.2011622,20.0454545 C80.3754046,20.5 80.4625258,21.030303 80.4625258,21.6363636 C80.4625258,22.25 80.3744576,22.7878788 80.1983213,23.25 C80.0221849,23.7121212 79.7646091,24.0729167 79.425594,24.3323864 C79.0865788,24.5918561 78.6727531,24.7215909 78.1841167,24.7215909 Z M91.0602417,26 L91.06,18.637 L92.9409235,18.6363636 L92.9409235,17.2727273 L91.06,17.273 L91.0602417,16.4886364 C91.0602417,16.1574675 91.1249449,15.8930891 91.2543512,15.6955009 L91.3244462,15.6022727 C91.5005826,15.3977273 91.7950902,15.2954545 92.207969,15.2954545 C92.3859993,15.2954545 92.5375144,15.311553 92.6625144,15.34375 C92.7875144,15.375947 92.8897872,15.4034091 92.9693326,15.4261364 L92.9693326,15.4261364 L93.3670599,14.0511364 C93.2496356,14.0056818 93.0697114,13.9554924 92.8272872,13.9005682 C92.5848629,13.8456439 92.2931962,13.8181818 91.9522872,13.8181818 C91.4901659,13.8181818 91.0621356,13.9081439 90.6681962,14.0880682 C90.2742569,14.2679924 89.957969,14.5388258 89.7193326,14.9005682 C89.4806962,15.2623106 89.3613781,15.7159091 89.3613781,16.2613636 L89.3613781,16.2613636 L89.361,17.273 L88.0091053,17.2727273 L88.0091053,18.6363636 L89.361,18.637 L89.3613781,26 L91.0602417,26 Z M95.5500225,15.9261364 C95.845477,15.9261364 96.0983179,15.8267045 96.3085452,15.6278409 C96.5187725,15.4289773 96.6238861,15.1912879 96.6238861,14.9147727 C96.6238861,14.6344697 96.5187725,14.3948864 96.3085452,14.1960227 C96.0983179,13.9971591 95.845477,13.8977273 95.5500225,13.8977273 C95.2545679,13.8977273 95.001727,13.9971591 94.7914997,14.1960227 C94.5812725,14.3948864 94.4761588,14.6344697 94.4761588,14.9147727 C94.4761588,15.1912879 94.5812725,15.4289773 94.7914997,15.6278409 C95.001727,15.8267045 95.2545679,15.9261364 95.5500225,15.9261364 Z M96.3909316,26 L96.3909316,17.2727273 L94.6920679,17.2727273 L94.6920679,26 L96.3909316,26 Z M100.372761,26 L100.372761,14.3636364 L98.6738975,14.3636364 L98.6738975,26 L100.372761,26 Z M106.417091,26.1761364 C107.053454,26.1761364 107.620689,26.0785985 108.118795,25.8835227 C108.616901,25.688447 109.031674,25.4138258 109.363113,25.0596591 C109.694553,24.7054924 109.924666,24.2916667 110.053454,23.8181818 L110.053454,23.8181818 L108.4455,23.5284091 C108.343227,23.8011364 108.1955,24.030303 108.002318,24.2159091 C107.809136,24.4015152 107.579969,24.5407197 107.314818,24.6335227 C107.049666,24.7263258 106.756106,24.7727273 106.434136,24.7727273 C105.937924,24.7727273 105.504212,24.6657197 105.133,24.4517045 C104.761788,24.2376894 104.472962,23.9261364 104.266522,23.5170455 C104.060083,23.1079545 103.956863,22.6117424 103.956863,22.0284091 L103.959,22.148 L110.161409,22.1477273 L110.161409,21.5454545 C110.161409,20.7537879 110.055348,20.0804924 109.843227,19.5255682 C109.631106,18.9706439 109.341333,18.5189394 108.973909,18.1704545 C108.606485,17.8219697 108.191712,17.5662879 107.729591,17.4034091 C107.267469,17.2405303 106.790197,17.1590909 106.297772,17.1590909 C105.487166,17.1590909 104.77978,17.3503788 104.175613,17.7329545 C103.571447,18.1155303 103.10175,18.6477273 102.766522,19.3295455 C102.431295,20.0113636 102.263682,20.7992424 102.263682,21.6931818 C102.263682,22.5984848 102.431295,23.3873106 102.766522,24.0596591 C103.10175,24.7320076 103.579022,25.2528409 104.198341,25.6221591 C104.817659,25.9914773 105.557242,26.1761364 106.417091,26.1761364 Z M103.964834,20.818892 C103.991401,20.4645676 104.084389,20.1319444 104.243795,19.8210227 C104.435083,19.4479167 104.70781,19.1448864 105.061977,18.9119318 C105.416144,18.6789773 105.831863,18.5625 106.309136,18.5625 C106.74853,18.5625 107.132053,18.6628788 107.459704,18.8636364 C107.787356,19.0643939 108.042091,19.3380682 108.223909,19.6846591 C108.405727,20.03125 108.496636,20.4280303 108.496636,20.875 L108.496636,20.875 L103.962,20.875 L103.964834,20.818892 Z" id="Uploadfile" fill="#FFFFFF" fill-rule="nonzero"></path>
                        </g>
                    </g>
                </g>
            </g>
        </g>
    </g>
</svg>