<?xml version="1.0" encoding="UTF-8"?>
<svg width="672px" height="507px" viewBox="0 0 672 507" version="1.1" xmlns="http://www.w3.org/2000/svg" xmlns:xlink="http://www.w3.org/1999/xlink">
    <!-- Generator: Sketch 52.6 (67491) - http://www.bohemiancoding.com/sketch -->
    <title>files</title>
    <desc>Created with Sketch.</desc>
    <defs>
        <rect id="path-1" x="0" y="0" width="554" height="389" rx="20"></rect>
        <filter x="-18.1%" y="-20.6%" width="136.1%" height="151.4%" filterUnits="objectBoundingBox" id="filter-2">
            <feOffset dx="0" dy="20" in="SourceAlpha" result="shadowOffsetOuter1"></feOffset>
            <feGaussianBlur stdDeviation="30" in="shadowOffsetOuter1" result="shadowBlurOuter1"></feGaussianBlur>
            <feColorMatrix values="0 0 0 0 0   0 0 0 0 0   0 0 0 0 0  0 0 0 0.1 0" type="matrix" in="shadowBlurOuter1"></feColorMatrix>
        </filter>
    </defs>
    <g id="Website" stroke="none" stroke-width="1" fill="none" fill-rule="evenodd">
        <g id="Features" transform="translate(-677.000000, -4878.000000)">
            <g id="Translation-Management-Section" transform="translate(150.000000, 3379.000000)">
                <g id="feature" transform="translate(0.000000, 1535.000000)">
                    <g id="files" transform="translate(586.000000, 3.000000)">
                        <g id="Group-13-Copy">
                            <g id="Group-Copy">
                                <g id="Rectangle">
                                    <use fill="black" fill-opacity="1" filter="url(#filter-2)" xlink:href="#path-1"></use>
                                    <use fill="#F4F4F4" fill-rule="evenodd" xlink:href="#path-1"></use>
                                </g>
                                <path d="M20,0 L534,0 C545.045695,-2.02906125e-15 554,8.954305 554,20 L554,42 L0,42 L0,20 C-1.3527075e-15,8.954305 8.954305,2.02906125e-15 20,0 Z" id="Rectangle" fill="#3D566E"></path>
                                <path d="M0,86 L554,86 L554,369 C554,380.045695 545.045695,389 534,389 L20,389 C8.954305,389 1.3527075e-15,380.045695 0,369 L0,86 Z" id="Rectangle" fill="#FFFFFF"></path>
                                <rect id="Rectangle" fill="#3D566E" x="453" y="52" width="101" height="24"></rect>
                            </g>
                            <text id="Translate-file" font-family="Helvetica" font-size="16" font-weight="normal" fill="#52677D">
                                <tspan x="12" y="69">Translate file</tspan>
                            </text>
                        </g>
                        <g id="Group-24" transform="translate(100.000000, 128.000000)">
                            <text id="Drag-&amp;-Drop" font-family="Helvetica" font-size="14" font-weight="normal" fill="#52677D">
                                <tspan x="136" y="14">Drag &amp; Drop</tspan>
                            </text>
                            <g id="Group-22" transform="translate(0.000000, 46.000000)">
                                <g id="Group-21" fill-rule="nonzero">
                                    <g id="Group-19">
                                        <g id="Group-17" transform="translate(83.000000, 0.000000)">
                                            <g id="html-5" fill="#F8F8F8">
                                                <path d="M64,32 C64,42.289625 59.1425,51.4455 51.59575,57.299625 C46.181875,61.500125 39.3835,64 32,64 C24.683125,64 17.940875,61.5445 12.5505,57.411875 C4.920125,51.564375 0,42.35625 0,32 C0,14.326875 14.326875,0 32,0 C49.673125,0 64,14.326875 64,32 Z" id="Path"></path>
                                            </g>
                                            <g id="csv" transform="translate(14.000000, 13.000000)" fill="#000000">
                                                <path d="M22.7245603,34.5651633 C22.7754681,34.5685208 22.8257199,34.5725241 22.8773493,34.5725241 L34.5146365,34.5725241 C35.8758954,34.5725241 36.9830745,33.4824131 36.9830745,32.143003 L36.9830745,5.59144341 C36.9830745,4.25209781 35.8758954,3.16185771 34.5146365,3.16185771 L22.8773493,3.16185771 C22.8261135,3.16185771 22.7754681,3.16637751 22.7245603,3.1694768 L22.7245603,2.27988903 C22.7245603,1.17531953 21.8291298,0.279889032 20.7245603,0.279889032 C20.6374582,0.279889032 20.5504492,0.285579105 20.4640889,0.296922903 L1.75107474,2.75496001 C0.755739479,2.8857017 0.0115460993,3.73404086 0.0115460993,4.73792614 L0.0115460993,33.0226929 C0.0115460993,34.0240383 0.752080867,34.8710543 1.74445696,35.0047786 L20.4574711,37.5263865 C21.5521468,37.6738958 22.5591366,36.9060657 22.7066459,35.81139 C22.7185754,35.7228603 22.7245603,35.6336308 22.7245603,35.5443009 L22.7245603,34.5651633 Z M22.7245603,23.3229379 L26.4906223,23.3229379 L26.4906223,24.7118722 L22.7245603,24.7118722 L22.7245603,23.3229379 Z M22.7245603,23.1493777 L22.7245603,21.7350034 L26.4906223,21.7350034 L26.4906223,23.1493777 L22.7245603,23.1493777 Z M22.7245603,21.5614431 L22.7245603,19.9388353 L26.4906223,19.9388353 L26.4906223,21.5614431 L22.7245603,21.5614431 Z M22.7245603,19.765275 L22.7245603,17.9488969 L26.4906223,17.9488969 L26.4906223,19.765275 L22.7245603,19.765275 Z M22.7245603,17.8007766 L22.7245603,16.0704684 L26.4906223,16.0704684 L26.4906223,17.8007766 L22.7245603,17.8007766 Z M22.7245603,15.9220253 L22.7245603,14.1917171 L26.4155071,14.1917171 L26.4906879,14.1917171 L26.4906879,15.9220253 L22.7245603,15.9220253 Z M22.8774149,4.55053369 L34.5147021,4.55053369 C35.0981082,4.55053369 35.5725479,5.01775177 35.5725479,5.59176625 L35.5725479,32.1436486 C35.5725479,32.717534 35.0981082,33.1849458 34.5147021,33.1849458 L22.8774149,33.1849458 C22.8254574,33.1849458 22.7748777,33.177133 22.7246259,33.1692556 L22.7246259,24.860057 L26.6415089,24.860057 L26.6415089,24.8597342 L35.213766,24.8597342 L35.213766,13.8700365 L35.2060904,13.8700365 L35.2060904,12.1648454 L30.8862748,12.1648454 L30.7354539,12.1648454 L26.4155071,12.1648454 L26.4155071,12.1651683 L22.7245603,12.1651683 L22.7245603,4.5657073 C22.7748121,4.55815278 22.8251294,4.55053369 22.8774149,4.55053369 Z M35.0373599,14.1913942 L35.0373599,24.6858511 L33.3912535,24.6858511 L33.3912535,14.6980637 L32.2610479,14.6980637 L32.2610479,24.6857865 L31.3194504,24.6857865 L31.3194504,15.7240581 L30.1892447,15.7240581 L30.1892447,24.6857865 L29.3598936,24.6857865 L29.3598936,16.7376553 L28.2296223,16.7376553 L28.2296223,24.6857865 L26.6413777,24.6858511 L26.6413777,17.948574 L26.6413777,17.8004538 L26.6413777,16.0701455 L26.6413777,15.9217024 L26.6413777,14.1913942 L30.7349947,14.1913942 L30.8861436,14.1913942 L35.0373599,14.1913942 Z M30.8862748,14.0435968 L30.8862748,12.3134177 L35.0553351,12.3134177 L35.0553351,13.8700365 L35.0374255,13.8700365 L35.0374255,14.0435968 L30.8862748,14.0435968 Z M30.7354539,14.0435968 L26.6415089,14.0435968 L26.5664592,14.0435968 L26.5664592,12.3134177 L30.7351259,12.3134177 L30.7351259,14.0435968 L30.7354539,14.0435968 Z M5.75094149,20.7611158 C6.2184273,20.769316 6.74134752,20.6702679 7.05066489,20.5462962 L7.28775355,21.8329539 C6.99916667,21.9766835 6.35173227,22.1210588 5.51818262,22.0990409 C3.2028617,22.0383465 2.03998582,20.5015502 2.03998582,18.5073503 C2.03998582,16.1184428 3.63426596,14.7477169 5.66972518,14.695029 C6.47421277,14.6737859 7.09133865,14.8304292 7.37100355,14.9744817 L7.0507305,16.2840612 C6.73131028,16.1489837 6.29052482,16.0277886 5.74070745,16.0369573 C4.52521809,16.056909 3.59451064,16.8390279 3.59451064,18.4146299 C3.59444504,19.8323617 4.38509043,20.7385168 5.75094149,20.7611158 Z M10.087289,22.2192676 C9.26285816,22.1972497 8.45843617,21.9590563 8.05957092,21.7213794 L8.38469858,20.3598223 C8.81734929,20.5944644 9.48741667,20.8350468 10.1838564,20.8464755 C10.9419628,20.8593892 11.3464699,20.5441009 11.3464699,20.0571249 C11.3464699,19.5910044 10.9973972,19.3232386 10.1192376,18.9985879 C8.92342908,18.5681093 8.15371099,17.8947238 8.15371099,16.83199 C8.15371099,15.5845254 9.16760284,14.6032125 10.877016,14.5591767 C11.7090567,14.537288 12.3275603,14.6998716 12.7731348,14.8906717 L12.3945408,16.2723743 C12.0948014,16.1318731 11.5657801,15.9291924 10.8446738,15.9408793 C10.1306525,15.9523725 9.78682801,16.287225 9.78682801,16.6711497 C9.78682801,17.1429521 10.1943528,17.3479573 11.1388369,17.7069585 C12.4502376,18.192514 13.0756294,18.8866906 13.0756294,19.9529112 C13.0751046,21.2207148 12.1053635,22.2721492 10.087289,22.2192676 Z M18.1754628,22.3155393 L16.0705301,22.262012 L13.5925798,14.6128332 L15.5018191,14.5645359 L16.456406,17.8097516 C16.7272145,18.7281748 16.9743404,19.6148948 17.1630798,20.5842626 L17.1990301,20.5849082 C17.3999716,19.6527965 17.649984,18.7301764 17.9244663,17.8389366 L18.9591543,14.4778203 L20.9454113,14.4281671 L18.1754628,22.3155393 Z" id="Shape"></path>
                                            </g>
                                        </g>
                                        <g id="Group-14" transform="translate(0.000000, 84.000000)">
                                            <path d="M63,31.5 C63,41.6288496 58.2183984,50.6416641 50.7895664,56.4043184 C45.4602832,60.5391855 38.7681328,63 31.5,63 C24.2974512,63 17.6605488,60.5828672 12.3543984,56.5148145 C4.84324805,50.7586816 0,41.6944336 0,31.5 C0,14.1030176 14.1030176,0 31.5,0 C48.8969824,0 63,14.1030176 63,31.5 Z" id="Path-Copy" fill="#F8F8F8"></path>
                                            <g id="html-5(1)" transform="translate(16.000000, 14.000000)">
                                                <polygon id="Path" fill="#FF5722" points="0 0 2.91428571 32.4 16 36 29.0811429 32.40225 32 0"></polygon>
                                                <polygon id="Path" fill="#FAFAFA" points="25.68 10.59525 16 10.59525 10.3428571 10.59525 10.7085714 14.6655 16 14.6655 25.3142857 14.6655 24.2148571 26.8695 16 29.12625 15.9931429 29.1285 7.78285714 26.8695 7.20914286 20.48625 11.232 20.48625 11.5314286 23.79825 15.9954286 24.993 16 24.99075 16 24.99075 20.4685714 23.796 20.9348571 18.64125 16 18.64125 16 18.64125 7.04457143 18.64125 5.96114286 6.624 16 6.624 26.0365714 6.624"></polygon>
                                            </g>
                                        </g>
                                    </g>
                                    <g id="Group-20" transform="translate(207.000000, 0.000000)">
                                        <g id="Group-15">
                                            <path d="M63,31.5 C63,41.6288496 58.2183984,50.6416641 50.7895664,56.4043184 C45.4602832,60.5391855 38.7681328,63 31.5,63 C24.2974512,63 17.6605488,60.5828672 12.3543984,56.5148145 C4.84324805,50.7586816 0,41.6944336 0,31.5 C0,14.1030176 14.1030176,0 31.5,0 C48.8969824,0 63,14.1030176 63,31.5 Z" id="Path" fill="#F8F8F8"></path>
                                            <g id="word" transform="translate(12.000000, 13.000000)">
                                                <path d="M37.7563776,32.173913 L20.3456633,32.173913 C19.6591837,32.173913 19.1020408,31.619498 19.1020408,30.93083 C19.1020408,30.2421621 19.1020408,6.75535178 19.1020408,6.06916996 C19.1020408,5.38298814 19.6591837,4.82608696 20.3456633,4.82608696 L37.7563776,4.82608696 C38.4428571,4.82608696 39,5.38298814 39,6.06916996 L39,30.93083 C39,31.619498 38.4428571,32.173913 37.7563776,32.173913 Z" id="Path" fill="#ECEFF1"></path>
                                                <g id="Group" transform="translate(19.897959, 9.652174)" fill="#1976D2">
                                                    <path d="M13.1326531,2.41334511 L1.19387755,2.41334511 C0.534857143,2.41334511 0,1.87523641 0,1.20682337 C0,0.538410326 0.534857143,0.000301630435 1.19387755,0.000301630435 L13.1326531,0.000301630435 C13.7916735,0.000301630435 14.3265306,0.54082337 14.3265306,1.20682337 C14.3265306,1.87282337 13.7916735,2.41334511 13.1326531,2.41334511 Z" id="Path"></path>
                                                    <path d="M13.1326531,7.23943207 L1.19387755,7.23943207 C0.534857143,7.23943207 0,6.70132337 0,6.03291033 C0,5.36449728 0.534857143,4.82638859 1.19387755,4.82638859 L13.1326531,4.82638859 C13.7916735,4.82638859 14.3265306,5.36691033 14.3265306,6.03291033 C14.3265306,6.69891033 13.7916735,7.23943207 13.1326531,7.23943207 Z" id="Path"></path>
                                                    <path d="M13.1326531,12.065519 L1.19387755,12.065519 C0.534857143,12.065519 0,11.5274103 0,10.8589973 C0,10.1905842 0.534857143,9.65247554 1.19387755,9.65247554 L13.1326531,9.65247554 C13.7916735,9.65247554 14.3265306,10.1929973 14.3265306,10.8589973 C14.3265306,11.5249973 13.7916735,12.065519 13.1326531,12.065519 Z" id="Path"></path>
                                                    <path d="M13.1326531,16.891606 L1.19387755,16.891606 C0.534857143,16.891606 0,16.3534973 0,15.6850842 C0,15.0166712 0.534857143,14.4785625 1.19387755,14.4785625 L13.1326531,14.4785625 C13.7916735,14.4785625 14.3265306,15.0190842 14.3265306,15.6850842 C14.3265306,16.3510842 13.7916735,16.891606 13.1326531,16.891606 Z" id="Path"></path>
                                                </g>
                                                <path d="M21.8375238,0.286783593 C21.5552381,0.0499877868 21.176381,-0.0486771323 20.8198095,0.0228549341 L1.01028571,3.7227894 C0.425904762,3.83132081 0,4.34191177 0,4.93390128 L0,32.066754 C0,32.6587436 0.423428571,33.1693345 1.01028571,33.2778659 L20.8198095,36.9778004 C20.8965714,36.9926001 20.9708571,37 21.047619,37 C21.3348571,37 21.6146667,36.9013351 21.8375238,36.7163384 C22.1222857,36.4820092 22.2857143,36.1342153 22.2857143,35.7666885 L22.2857143,1.23396682 C22.2857143,0.866439993 22.1222857,0.521112776 21.8375238,0.286783593 Z" id="Path" fill="#1565C0"></path>
                                                <path d="M15.5132243,24.6354396 C15.4511439,25.2046855 15.021356,25.6595851 14.4745703,25.7291873 C14.4244284,25.7366446 14.3766741,25.7391304 14.3265322,25.7391304 C13.8346639,25.7391304 13.3857743,25.4209493 13.2090837,24.9337344 L10.7449665,18.0928399 L8.28084936,24.9337344 C8.08983252,25.4656935 7.58841332,25.791332 7.0344645,25.7316731 C6.49245422,25.6720141 6.05789092,25.234515 5.98148419,24.6702407 L4.78762896,15.9699751 C4.69450825,15.2938402 5.14817324,14.6624495 5.80001819,14.5655037 C6.45425086,14.466072 7.0583416,14.940858 7.15146231,15.6194787 L7.68392174,19.5072545 L9.62513034,14.1155756 C9.97373607,13.1461175 11.5114216,13.1461175 11.862415,14.1155756 L13.6914012,19.1915591 L14.3336954,13.1709754 C14.4077144,12.4898689 15.0141928,12.0001682 15.6517115,12.0722561 C16.3083319,12.1518014 16.7787109,12.7657916 16.7070796,13.4468981 L15.5132243,24.6354396 Z" id="Path" fill="#FAFAFA"></path>
                                            </g>
                                        </g>
                                        <g id="Group-16" transform="translate(83.000000, 83.000000)">
                                            <path d="M64,32 C64,42.289625 59.1425,51.4455 51.59575,57.299625 C46.181875,61.500125 39.3835,64 32,64 C24.683125,64 17.940875,61.5445 12.5505,57.411875 C4.920125,51.564375 0,42.35625 0,32 C0,14.326875 14.326875,0 32,0 C49.673125,0 64,14.326875 64,32 Z" id="Path" fill="#F8F8F8"></path>
                                            <g id="excel" transform="translate(14.000000, 16.000000)">
                                                <path d="M35.84375,28.9756098 L19.65625,28.9756098 C19.018,28.9756098 18.5,28.4839024 18.5,27.8780488 C18.5,27.2721951 18.5,6.53268293 18.5,5.92682927 C18.5,5.32097561 19.018,4.82926829 19.65625,4.82926829 L35.84375,4.82926829 C36.482,4.82926829 37,5.32097561 37,5.92682927 L37,27.8780488 C37,28.4839024 36.482,28.9756098 35.84375,28.9756098 Z" id="Path" fill="#ECEFF1"></path>
                                                <g id="Group" transform="translate(18.500000, 8.853659)" fill="#388E3C">
                                                    <path d="M5.95643939,2.17570699 L1.19128788,2.17570699 C0.53369697,2.17570699 0,1.6885161 0,1.08822732 C0,0.487938537 0.53369697,0.000747642276 1.19128788,0.000747642276 L5.95643939,0.000747642276 C6.6140303,0.000747642276 7.14772727,0.487938537 7.14772727,1.08822732 C7.14772727,1.6885161 6.6140303,2.17570699 5.95643939,2.17570699 Z" id="Path"></path>
                                                    <path d="M5.95643939,6.52562569 L1.19128788,6.52562569 C0.53369697,6.52562569 0,6.0384348 0,5.43814602 C0,4.83785724 0.53369697,4.35066634 1.19128788,4.35066634 L5.95643939,4.35066634 C6.6140303,4.35066634 7.14772727,4.83785724 7.14772727,5.43814602 C7.14772727,6.0384348 6.6140303,6.52562569 5.95643939,6.52562569 Z" id="Path"></path>
                                                    <path d="M5.95643939,10.8755444 L1.19128788,10.8755444 C0.53369697,10.8755444 0,10.3883535 0,9.78806472 C0,9.18777593 0.53369697,8.70058504 1.19128788,8.70058504 L5.95643939,8.70058504 C6.6140303,8.70058504 7.14772727,9.18777593 7.14772727,9.78806472 C7.14772727,10.3883535 6.6140303,10.8755444 5.95643939,10.8755444 Z" id="Path"></path>
                                                    <path d="M5.95643939,15.2254631 L1.19128788,15.2254631 C0.53369697,15.2254631 0,14.7382722 0,14.1379834 C0,13.5376946 0.53369697,13.0505037 1.19128788,13.0505037 L5.95643939,13.0505037 C6.6140303,13.0505037 7.14772727,13.5376946 7.14772727,14.1379834 C7.14772727,14.7382722 6.6140303,15.2254631 5.95643939,15.2254631 Z" id="Path"></path>
                                                    <path d="M13.1041667,2.17570699 L10.7215909,2.17570699 C10.064,2.17570699 9.53030303,1.6885161 9.53030303,1.08822732 C9.53030303,0.487938537 10.064,0.000747642276 10.7215909,0.000747642276 L13.1041667,0.000747642276 C13.7617576,0.000747642276 14.2954545,0.487938537 14.2954545,1.08822732 C14.2954545,1.6885161 13.7617576,2.17570699 13.1041667,2.17570699 Z" id="Path"></path>
                                                    <path d="M13.1041667,6.52562569 L10.7215909,6.52562569 C10.064,6.52562569 9.53030303,6.0384348 9.53030303,5.43814602 C9.53030303,4.83785724 10.064,4.35066634 10.7215909,4.35066634 L13.1041667,4.35066634 C13.7617576,4.35066634 14.2954545,4.83785724 14.2954545,5.43814602 C14.2954545,6.0384348 13.7617576,6.52562569 13.1041667,6.52562569 Z" id="Path"></path>
                                                    <path d="M13.1041667,10.8755444 L10.7215909,10.8755444 C10.064,10.8755444 9.53030303,10.3883535 9.53030303,9.78806472 C9.53030303,9.18777593 10.064,8.70058504 10.7215909,8.70058504 L13.1041667,8.70058504 C13.7617576,8.70058504 14.2954545,9.18777593 14.2954545,9.78806472 C14.2954545,10.3883535 13.7617576,10.8755444 13.1041667,10.8755444 Z" id="Path"></path>
                                                    <path d="M13.1041667,15.2254631 L10.7215909,15.2254631 C10.064,15.2254631 9.53030303,14.7382722 9.53030303,14.1379834 C9.53030303,13.5376946 10.064,13.0505037 10.7215909,13.0505037 L13.1041667,13.0505037 C13.7617576,13.0505037 14.2954545,13.5376946 14.2954545,14.1379834 C14.2954545,14.7382722 13.7617576,15.2254631 13.1041667,15.2254631 Z" id="Path"></path>
                                                </g>
                                                <path d="M20.5999369,0.254470834 C20.333649,0.0454802211 19.9762626,-0.0447157275 19.639899,0.0212813081 L0.953030303,3.32113309 C0.399431818,3.41792874 0,3.87110839 0,4.40128457 L0,28.6001976 C0,29.1281739 0.399431818,29.5835535 0.953030303,29.6803491 L19.639899,32.9802009 C19.7099747,32.9934003 19.7823864,33 19.854798,33 C20.1257576,33 20.3897096,32.912004 20.5999369,32.7470114 C20.8685606,32.5380208 21.0227273,32.2256348 21.0227273,31.9000494 L21.0227273,1.10143279 C21.0227273,0.773647514 20.8685606,0.463461447 20.5999369,0.254470834 Z" id="Path" fill="#2E7D32"></path>
                                                <path d="M15.6995487,19.9117905 L12.1545709,15.9448547 L15.739909,11.4312853 C16.1210894,10.9527064 16.0313999,10.2633772 15.5448343,9.89017355 C15.0582687,9.51696985 14.3542061,9.60478249 13.9707834,10.081166 L10.6500294,14.2610474 L7.85171678,11.130527 C7.44138728,10.6695107 6.73284017,10.6277997 6.27093921,11.0273472 C5.80455377,11.4268947 5.75746678,12.1206145 6.16555403,12.5750449 L9.24863085,16.0260814 L6.12295152,19.9600874 C5.74177111,20.4386663 5.83146062,21.1279955 6.3180262,21.5011992 C6.52431206,21.6570666 6.76871597,21.7317073 7.0086354,21.7317073 C7.34272882,21.7317073 7.67233776,21.5868165 7.89431929,21.3080114 L10.7531723,17.7076933 L14.0133859,21.354113 C14.2353675,21.604379 14.5447963,21.7317073 14.8564673,21.7317073 C15.1188091,21.7317073 15.3811509,21.6416994 15.5941635,21.4594881 C16.0605489,21.0599407 16.1076359,20.3662208 15.6995487,19.9117905 Z" id="Path" fill="#FAFAFA"></path>
                                            </g>
                                        </g>
                                    </g>
                                </g>
                                <g id="Group-18" transform="translate(107.000000, 107.000000)">
                                    <rect id="Rectangle" fill="#3D566E" x="0" y="0" width="140" height="40" rx="5"></rect>
                                    <text id="Upload-file" font-family="Helvetica" font-size="16" font-weight="normal" fill="#FFFFFF">
                                        <tspan x="29" y="25">Upload file</tspan>
                                    </text>
                                </g>
                            </g>
                        </g>
                    </g>
                </g>
            </g>
        </g>
    </g>
</svg>