<?xml version="1.0" encoding="UTF-8"?>
<svg width="539px" height="441px" viewBox="0 0 539 441" version="1.1" xmlns="http://www.w3.org/2000/svg" xmlns:xlink="http://www.w3.org/1999/xlink">
    <!-- Generator: Sketch 52.6 (67491) - http://www.bohemiancoding.com/sketch -->
    <title>Group 49</title>
    <desc>Created with Sketch.</desc>
    <defs>
        <rect id="path-1" x="0" y="0" width="421" height="323" rx="10"></rect>
        <filter x="-23.8%" y="-24.8%" width="147.5%" height="161.9%" filterUnits="objectBoundingBox" id="filter-3">
            <feOffset dx="0" dy="20" in="SourceAlpha" result="shadowOffsetOuter1"></feOffset>
            <feGaussianBlur stdDeviation="30" in="shadowOffsetOuter1" result="shadowBlurOuter1"></feGaussianBlur>
            <feColorMatrix values="0 0 0 0 0   0 0 0 0 0   0 0 0 0 0  0 0 0 0.0794908217 0" type="matrix" in="shadowBlurOuter1"></feColorMatrix>
        </filter>
    </defs>
    <g id="Website-Second-Iteration" stroke="none" stroke-width="1" fill="none" fill-rule="evenodd">
        <g id="Marketing" transform="translate(-805.000000, -2141.000000)">
            <g id="Group-49" transform="translate(822.000000, 2180.000000)">
                <g id="Group-27">
                    <g id="Group-9" transform="translate(42.000000, 0.000000)">
                        <g id="Group-6">
                            <g id="Asset-1">
                                <g id="Rectangle">
                                    <mask id="mask-2" fill="white">
                                        <use xlink:href="#path-1"></use>
                                    </mask>
                                    <g id="Mask">
                                        <use fill="black" fill-opacity="1" filter="url(#filter-3)" xlink:href="#path-1"></use>
                                        <use fill="#FFFFFF" fill-rule="evenodd" xlink:href="#path-1"></use>
                                    </g>
                                    <rect fill="#F6F6F6" mask="url(#mask-2)" x="0" y="0" width="520" height="42"></rect>
                                </g>
                                <g id="Group-7" transform="translate(14.000000, 18.000000)" fill="#4D5E6C">
                                    <circle id="Oval" cx="4.5" cy="4.5" r="4.5"></circle>
                                    <circle id="Oval" opacity="0.201758" cx="18.5" cy="4.5" r="4.5"></circle>
                                    <circle id="Oval" opacity="0.201758" cx="32.5" cy="4.5" r="4.5"></circle>
                                </g>
                            </g>
                        </g>
                    </g>
                    <path d="M222.001327,191.402622 L222.001327,144.296547 C221.952447,141.753551 223.256648,139.375565 225.427409,138.049672 C227.59817,136.723779 230.309509,136.64909 232.549986,137.853467 L279.660964,161.430368 C282.10428,162.636567 283.651032,165.12498 283.651032,167.849585 C283.651032,170.57419 282.10428,173.062602 279.660964,174.268801 L232.549986,197.797976 C230.317068,198.997941 227.616015,198.927833 225.448367,197.613649 C223.280719,196.299465 221.969661,193.937143 222.001327,191.402622 Z" id="Path" fill="#F6F6F6" fill-rule="nonzero"></path>
                    <rect id="Rectangle" fill="#F0588D" x="56" y="296" width="396" height="2" rx="1"></rect>
                    <rect id="Rectangle" fill="#D4D7DA" x="153" y="296" width="300" height="2" rx="1"></rect>
                    <circle id="Oval" fill="#F0588D" cx="153" cy="297" r="4"></circle>
                    <g id="Group-24" transform="translate(394.000000, 271.000000)" fill="#D4D7DA" fill-rule="nonzero">
                        <polygon id="Path" points="8 0 8 8 5.98253275 8 5.98253275 4.728 2.01746725 4.728 2.01746725 8 0 8 0 0 2.01746725 0 2.01746725 3.152 5.98253275 3.152 5.98253275 0"></polygon>
                        <path d="M12,0.000861862151 L15.614026,0.000861862151 C16.4035011,-0.0136909847 17.1855625,0.15622967 17.8986637,0.497251381 C18.5367025,0.808318606 19.0746845,1.29390523 19.4509436,1.89835083 C20.1830188,3.20271754 20.1830188,4.79728246 19.4509436,6.10164917 C19.0770513,6.70809287 18.5384224,7.19426331 17.8986637,7.50274862 C17.1855625,7.84377033 16.4035011,8.01369098 15.614026,7.99913814 L12,7.99913814 L12,0.000861862151 Z M15.5185011,6.47794445 C16.2171253,6.51546995 16.9026852,6.2770142 17.4289995,5.813423 C18.3753678,4.79490318 18.3753678,3.2131031 17.4289995,2.19458328 C16.9034786,1.72884577 16.2180939,1.48757879 15.5185011,1.52205555 L13.8388547,1.52205555 L13.8388547,6.47794445 L15.5185011,6.47794445 Z" id="Shape"></path>
                    </g>
                    <g id="Group-11" transform="translate(0.000000, 123.000000)" fill-rule="nonzero">
                        <rect id="Rectangle" fill="#F0588D" x="1.45661261e-12" y="-6.39488462e-14" width="55.3" height="27.14" rx="3.97"></rect>
                        <path d="M30.73,6.12 C29.35296,6.14364616 28.031232,6.6659419 27.01,7.59 C25.9873155,6.66828235 24.6665002,6.14634726 23.29,6.12 C20.58,5.87 17.75,7.81 18.24,12.04 C18.8,16.89 27.01,21.04 27.01,21.04 C27.01,21.04 35.21,16.9 35.78,12.04 C36.27,7.81 33.44,5.91 30.73,6.12 Z" id="Path" fill="#FFFFFF"></path>
                    </g>
                    <g id="Group-15" transform="translate(424.000000, 267.000000)" fill-rule="nonzero">
                        <rect id="Rectangle" fill="#D4D7DA" x="0.62" y="0.59" width="28" height="14" rx="3.97"></rect>
                        <path d="M13.62,8.09 C13.62,7.26157288 14.2915729,6.59 15.12,6.59 C15.9484271,6.59 16.62,7.26157288 16.62,8.09 C16.62,8.91842712 15.9484271,9.59 15.12,9.59 C14.2915729,9.59 13.62,8.91842712 13.62,8.09 Z" id="Path" fill="#FFFFFF"></path>
                        <path d="M18.62,8.09 C18.62,7.26157288 19.2915729,6.59 20.12,6.59 C20.9484271,6.59 21.62,7.26157288 21.62,8.09 C21.62,8.91842712 20.9484271,9.59 20.12,9.59 C19.2915729,9.59 18.62,8.91842712 18.62,8.09 Z" id="Path" fill="#FFFFFF"></path>
                        <path d="M8.62,8.09 C8.62,7.26157288 9.29157288,6.59 10.12,6.59 C10.9484271,6.59 11.62,7.26157288 11.62,8.09 C11.62,8.91842712 10.9484271,9.59 10.12,9.59 C9.29157288,9.59 8.62,8.91842712 8.62,8.09 Z" id="Path" fill="#FFFFFF"></path>
                    </g>
                    <g id="Group-8" transform="translate(171.000000, 231.000000)" fill-rule="nonzero">
                        <polygon id="Path" fill="#F6F6F6" opacity="0.48" points="5.65519853e-16 7.64705882 5.65519853e-16 14.5689655 5.65519853e-16 39 163 39 163 0 5.65519853e-16 0"></polygon>
                        <rect id="Rectangle" fill="#F6F6F6" x="11" y="6" width="40" height="6"></rect>
                        <rect id="Rectangle" fill="#EAE8E8" x="12" y="17" width="143" height="3"></rect>
                        <rect id="Rectangle" fill="#EAE8E8" x="12" y="24" width="143" height="3"></rect>
                        <rect id="Rectangle" fill="#EAE8E8" x="11" y="31" width="98" height="3"></rect>
                    </g>
                    <g id="deaf" transform="translate(374.375000, 274.500000) scale(1, -1) translate(-374.375000, -274.500000) translate(365.000000, 267.000000)" fill="#059BFF" fill-rule="nonzero">
                        <path d="M15.8203125,15 L2.9296875,15 C1.3142109,15 0,13.654248 0,12 L0,3 C0,1.34575196 1.3142109,0 2.9296875,0 L15.8203125,0 C17.4357891,0 18.75,1.34575196 18.75,3 L18.75,8.25 C18.75,8.66425781 18.4221268,9 18.0175781,9 C17.6130295,9 17.2851562,8.66425781 17.2851562,8.25 L17.2851562,3 C17.2851562,2.1729492 16.6279793,1.5 15.8203125,1.5 L2.9296875,1.5 C2.1220207,1.5 1.46484375,2.1729492 1.46484375,3 L1.46484375,12 C1.46484375,12.8270508 2.1220207,13.5 2.9296875,13.5 L15.8203125,13.5 C16.6279793,13.5 17.2851562,12.8270508 17.2851562,12 C17.2851562,11.5857422 17.6130295,11.25 18.0175781,11.25 C18.4221268,11.25 18.75,11.5857422 18.75,12 C18.75,13.654248 17.4357891,15 15.8203125,15 Z M7.77010917,8.7 C7.464695,8.7 7.19790458,8.89995116 7.09319114,9.19350585 C6.90250397,9.72817384 6.40983582,10.1103516 5.81960676,10.1245605 C5.037117,10.1436035 4.39453125,9.49716795 4.39453125,8.7 L4.39453125,6.32680665 C4.39453125,5.54853518 4.99291421,4.89389648 5.75265886,4.87543946 C6.36663435,4.86049804 6.89435006,5.25512696 7.09333418,5.81088866 C7.19761849,6.10253906 7.46397971,6.3 7.76739119,6.3 L7.80515669,6.3 C8.29668047,6.3 8.64429474,5.80268554 8.48050118,5.32807616 C8.0853939,4.18300781 7.01265337,3.36269531 5.75795175,3.37514648 C4.20212747,3.39052733 2.9296875,4.74404295 2.9296875,6.33735353 L2.9296875,8.66279295 C2.9296875,10.2730957 4.18539045,11.6093262 5.75795175,11.6248535 C7.01179504,11.6373047 8.0839634,10.8181641 8.47964286,9.67441406 C8.6441517,9.19877929 8.29539298,8.7 7.80258179,8.7 L7.77010917,8.7 Z M14.9478435,8.7 C14.6424294,8.7 14.375639,8.89995116 14.2709255,9.19350585 C14.0802383,9.72817384 13.5875702,10.1103516 12.9973411,10.1245605 C12.2148514,10.1436035 11.5722656,9.49716795 11.5722656,8.7 L11.5722656,6.32680665 C11.5722656,5.54853518 12.1706486,4.89389648 12.9303932,4.87543946 C13.5443687,4.86049804 14.0720844,5.25512696 14.2710686,5.81088866 C14.3753529,6.10253906 14.6417141,6.3 14.9451256,6.3 L14.9828911,6.3 C15.4744148,6.3 15.8220291,5.80268554 15.6582356,5.32807616 C15.2631283,4.18300781 14.1903877,3.36269531 12.9356861,3.37514648 C11.3798618,3.39052733 10.1074219,4.74404295 10.1074219,6.33735353 L10.1074219,8.66279295 C10.1074219,10.2730957 11.3631248,11.6093262 12.9356861,11.6248535 C14.1895294,11.6373047 15.2616978,10.8181641 15.6573772,9.67441406 C15.8218861,9.19877929 15.4731274,8.7 14.9803162,8.7 L14.9478435,8.7 Z" id="Shape"></path>
                    </g>
                </g>
                <g id="Group-10" transform="translate(76.000000, 50.000000)">
                    <g id="Group-23">
                        <g id="Group-36" fill-rule="nonzero">
                            <rect id="Rectangle" fill="#FFF1D2" x="0" y="0" width="159" height="69" rx="5.45"></rect>
                            <polygon id="Path" fill="#FEC62E" points="141.706897 68 142 86 119 68"></polygon>
                        </g>
                        <text id="Français" font-family="Helvetica" font-size="18" font-weight="normal" fill="#191E2F">
                            <tspan x="45.4897461" y="40">Français</tspan>
                        </text>
                    </g>
                    <g id="Group-35" transform="translate(239.000000, 86.000000)" fill-rule="nonzero">
                        <polygon id="Path" fill="#059BFF" points="23 68 23.5150215 88 47 68.5892256"></polygon>
                        <rect id="Rectangle" fill="#BFE4FE" x="0" y="0" width="162" height="70" rx="5.45"></rect>
                    </g>
                    <text id="English-(Auto)" font-family="Helvetica" font-size="18" font-weight="normal" fill="#191E2F">
                        <tspan x="263.473145" y="127">English (Auto)</tspan>
                    </text>
                </g>
            </g>
        </g>
    </g>
</svg>