<?xml version="1.0" encoding="UTF-8"?>
<svg width="63px" height="63px" viewBox="0 0 63 63" version="1.1" xmlns="http://www.w3.org/2000/svg" xmlns:xlink="http://www.w3.org/1999/xlink">
    <!-- Generator: Sketch 52.6 (67491) - http://www.bohemiancoding.com/sketch -->
    <title>icon</title>
    <desc>Created with Sketch.</desc>
    <g id="Website" stroke="none" stroke-width="1" fill="none" fill-rule="evenodd">
        <g id="Translator's-Hub" transform="translate(-1081.000000, -2307.000000)" fill="#53A9E6" fill-rule="nonzero">
            <g id="Tools" transform="translate(0.000000, 1881.000000)">
                <g id="features" transform="translate(145.000000, 384.000000)">
                    <g id="helper" transform="translate(784.000000, 0.000000)">
                        <g id="icon" transform="translate(152.000000, 42.000000)">
                            <path d="M11.088,33.3823966 C12.2098139,34.2969394 13.4281584,35.0862227 14.7213621,35.7362069 C15.0686797,35.9096717 15.4821567,35.884668 15.8060404,35.6706145 C16.1299241,35.456561 16.3150088,35.0859776 16.2915749,34.6984593 C16.268141,34.3109411 16.0397486,33.9653613 15.692431,33.7918966 C14.5946783,33.2380322 13.5581749,32.5703304 12.6,31.7997931 C13.6834064,30.4190731 14.4896811,28.841932 14.9744483,27.1551724 L16.2931034,27.1551724 C16.892999,27.1551724 17.3793103,26.668861 17.3793103,26.0689655 C17.3793103,25.46907 16.892999,24.9827586 16.2931034,24.9827586 L11.9482759,24.9827586 L11.9482759,23.8965517 C11.9482759,23.2966562 11.4619645,22.8103448 10.862069,22.8103448 C10.2621735,22.8103448 9.77586207,23.2966562 9.77586207,23.8965517 L9.77586207,24.9827586 L5.43103448,24.9827586 C4.83113898,24.9827586 4.34482759,25.46907 4.34482759,26.0689655 C4.34482759,26.668861 4.83113898,27.1551724 5.43103448,27.1551724 L12.6977586,27.1551724 C12.2971569,28.3027608 11.713969,29.3781739 10.9706897,30.339931 C10.4684961,29.8382101 10.0065213,29.2977867 9.58903448,28.7236552 C9.25442142,28.2284318 8.58259275,28.0965745 8.08562146,28.428586 C7.58865017,28.7605975 7.45327163,29.4317255 7.78267241,29.930431 C8.28265211,30.6353565 8.84268904,31.2956986 9.45651724,31.904069 C8.48567545,32.7131787 7.3709305,33.3319082 6.17074138,33.7278103 C5.80208025,33.8504387 5.52684475,34.1604303 5.44871344,34.5410144 C5.37058213,34.9215984 5.501425,35.3149552 5.79195482,35.5729109 C6.08248464,35.8308667 6.48856301,35.9142318 6.85722414,35.7916034 C8.41525409,35.2814576 9.85425784,34.4620198 11.088,33.3823966 Z" id="Path"></path>
                            <path d="M15.6207414,46.6243448 C15.7531571,46.5698819 15.8734989,46.4897771 15.9748448,46.3886379 L21.4058793,40.9576034 C21.4966819,40.8653122 21.5702531,40.7575303 21.6231207,40.6393448 C21.6383276,40.6056724 21.6470172,40.572 21.6589655,40.5372414 C21.6903038,40.4472134 21.7089485,40.3532588 21.7143621,40.2580862 C21.7143621,40.2341897 21.7284828,40.2135517 21.7284828,40.1896552 L21.7284828,17.3793103 C21.7284828,16.7794148 21.2421714,16.2931034 20.6422759,16.2931034 L1.0862069,16.2931034 C0.486311392,16.2931034 0,16.7794148 0,17.3793103 L0,45.6206897 C0,46.2205852 0.486311392,46.7068966 1.0862069,46.7068966 L15.2068966,46.7068966 C15.348915,46.7066985 15.4895163,46.678652 15.6207414,46.6243448 Z M16.2931034,42.9985862 L16.2931034,41.2758621 L18.0158276,41.2758621 L16.2931034,42.9985862 Z M2.17241379,18.4655172 L19.5517241,18.4655172 L19.5517241,39.1034483 L15.2068966,39.1034483 C14.607001,39.1034483 14.1206897,39.5897597 14.1206897,40.1896552 L14.1206897,44.5344828 L2.17241379,44.5344828 L2.17241379,18.4655172 Z" id="Shape"></path>
                            <path d="M55.2683793,32.5862069 L56.5968103,35.2441552 C56.8649636,35.7810616 57.5175935,35.9989292 58.0545,35.7307759 C58.5914065,35.4626226 58.809274,34.8099927 58.5411207,34.2730862 L53.1100862,23.4110172 C52.9059141,23.0685681 52.536626,22.8587999 52.137931,22.8587999 C51.7392361,22.8587999 51.369948,23.0685681 51.1657759,23.4110172 L45.7347414,34.2730862 C45.4665881,34.8099927 45.6844556,35.4626226 46.2213621,35.7307759 C46.7582685,35.9989292 47.4108984,35.7810616 47.6790517,35.2441552 L52.137931,26.3253103 L54.1821724,30.4137931 L52.137931,30.4137931 C51.5380355,30.4137931 51.0517241,30.9001045 51.0517241,31.5 C51.0517241,32.0998955 51.5380355,32.5862069 52.137931,32.5862069 L55.2683793,32.5862069 Z" id="Path"></path>
                            <path d="M62.9858793,40.2580862 C62.9858793,40.2341897 63,40.2135517 63,40.1896552 L63,17.3793103 C63,16.7794148 62.5136886,16.2931034 61.9137931,16.2931034 L42.362069,16.2931034 C41.7621735,16.2931034 41.2758621,16.7794148 41.2758621,17.3793103 L41.2758621,45.6206897 C41.2758621,46.2205852 41.7621735,46.7068966 42.362069,46.7068966 L56.4827586,46.7068966 C56.7706967,46.706242 57.0467152,46.5918524 57.2507069,46.3886379 L62.6817414,40.9576034 C62.772544,40.8653122 62.8461152,40.7575303 62.8989828,40.6393448 C62.9141897,40.6056724 62.9228793,40.572 62.9348276,40.5372414 C62.9646877,40.4470022 62.9818691,40.3530528 62.9858793,40.2580862 Z M43.4482759,18.4655172 L60.8275862,18.4655172 L60.8275862,39.1034483 L56.4827586,39.1034483 C55.8828631,39.1034483 55.3965517,39.5897597 55.3965517,40.1896552 L55.3965517,44.5344828 L43.4482759,44.5344828 L43.4482759,18.4655172 Z M57.5689655,42.9985862 L57.5689655,41.2758621 L59.2916897,41.2758621 L57.5689655,42.9985862 Z" id="Shape"></path>
                            <path d="M10.862069,14.1206897 C13.0472662,14.1234104 14.8930539,12.4996688 15.168915,10.3319523 C15.4447761,8.16423575 14.0645048,6.12994966 11.9482759,5.58527586 L11.9482759,3.25862069 C11.9482759,2.65872519 12.4345873,2.17241379 13.0344828,2.17241379 L49.9655172,2.17241379 C50.5654127,2.17241379 51.0517241,2.65872519 51.0517241,3.25862069 L51.0517241,5.43103448 L48.8793103,5.43103448 C48.5018459,5.42896839 48.1503736,5.62301454 47.9510122,5.94354335 C47.7516508,6.26407215 47.7329893,6.66511887 47.9017241,7.00277586 L51.1603448,13.5200172 C51.3440914,13.8886916 51.7205733,14.121704 52.1325,14.121704 C52.5444267,14.121704 52.9209086,13.8886916 53.1046552,13.5200172 L56.3632759,7.00277586 C56.5311443,6.66684815 56.5135847,6.26803989 56.3168413,5.94816606 C56.1200979,5.62829224 55.7720838,5.43273522 55.3965517,5.43103448 L53.2241379,5.43103448 L53.2241379,3.25862069 C53.2241379,1.45893418 51.7652038,0 49.9655172,0 L13.0344828,0 C11.2347962,0 9.77586207,1.45893418 9.77586207,3.25862069 L9.77586207,5.58527586 C7.65963316,6.12994966 6.27936182,8.16423575 6.55522292,10.3319523 C6.83108403,12.4996688 8.67687174,14.1234104 10.862069,14.1206897 Z M52.137931,10.6057241 L50.6367931,7.60344828 L53.639069,7.60344828 L52.137931,10.6057241 Z M10.862069,7.60344828 C12.06186,7.60344828 13.0344828,8.57607106 13.0344828,9.77586207 C13.0344828,10.9756531 12.06186,11.9482759 10.862069,11.9482759 C9.66227796,11.9482759 8.68965517,10.9756531 8.68965517,9.77586207 C8.68965517,8.57607106 9.66227796,7.60344828 10.862069,7.60344828 Z" id="Shape"></path>
                            <path d="M52.137931,48.8793103 C49.9527338,48.8765896 48.1069461,50.5003312 47.831085,52.6680477 C47.5552239,54.8357642 48.9354952,56.8700503 51.0517241,57.4147241 L51.0517241,59.7413793 C51.0517241,60.3412748 50.5654127,60.8275862 49.9655172,60.8275862 L13.0344828,60.8275862 C12.4345873,60.8275862 11.9482759,60.3412748 11.9482759,59.7413793 L11.9482759,57.5689655 L14.1206897,57.5689655 C14.4971886,57.569141 14.8469274,57.3743364 15.0449774,57.0541371 C15.2430275,56.7339377 15.2611399,56.3340152 15.0928448,55.9972241 L11.8342241,49.4799828 C11.630052,49.1375337 11.2607639,48.9277654 10.862069,48.9277654 C10.463374,48.9277654 10.0940859,49.1375337 9.88991379,49.4799828 L6.6312931,55.9972241 C6.46299804,56.3340152 6.48111046,56.7339377 6.67916051,57.0541371 C6.87721056,57.3743364 7.22694938,57.569141 7.60344828,57.5689655 L9.77586207,57.5689655 L9.77586207,59.7413793 C9.77586207,61.5410658 11.2347962,63 13.0344828,63 L49.9655172,63 C51.7652038,63 53.2241379,61.5410658 53.2241379,59.7413793 L53.2241379,57.4147241 C55.3403668,56.8700503 56.7206382,54.8357642 56.4447771,52.6680477 C56.168916,50.5003312 54.3231283,48.8765896 52.137931,48.8793103 Z M10.862069,52.3942759 L12.3632069,55.3965517 L9.36093103,55.3965517 L10.862069,52.3942759 Z M52.137931,55.3965517 C50.93814,55.3965517 49.9655172,54.4239289 49.9655172,53.2241379 C49.9655172,52.0243469 50.93814,51.0517241 52.137931,51.0517241 C53.337722,51.0517241 54.3103448,52.0243469 54.3103448,53.2241379 C54.3103448,54.4239289 53.337722,55.3965517 52.137931,55.3965517 Z" id="Shape"></path>
                        </g>
                    </g>
                </g>
            </g>
        </g>
    </g>
</svg>