<?xml version="1.0" encoding="UTF-8"?>
<svg width="40px" height="48px" viewBox="0 0 40 48" version="1.1" xmlns="http://www.w3.org/2000/svg" xmlns:xlink="http://www.w3.org/1999/xlink">
    <!-- Generator: Sketch 52.4 (67378) - http://www.bohemiancoding.com/sketch -->
    <title>Compass</title>
    <desc>Created with Sketch.</desc>
    <g id="Page-1" stroke="none" stroke-width="1" fill="none" fill-rule="evenodd">
        <g id="Compass" fill="#8BA266" fill-rule="nonzero">
            <g id="Rectangle">
                <path d="M4.3636364,8.7481264 L4.3636364,39.2518736 C4.3636364,41.6703877 6.3206109,43.6363636 8.7158911,43.6363636 L30.5568362,43.6363636 C32.9528909,43.6363636 34.9090909,41.6740112 34.9090909,39.2518736 L34.9090909,8.7481264 C34.9090909,6.3296123 32.9521164,4.36363636 30.5568362,4.36363636 L8.7158911,4.36363636 C6.3198364,4.36363636 4.3636364,6.3259888 4.3636364,8.7481264 Z M0,8.7481264 C0,3.91666958 3.9091977,0 8.7158911,0 L30.5568362,0 C35.3704899,0 39.2727273,3.92804146 39.2727273,8.7481264 L39.2727273,39.2518736 C39.2727273,44.0833304 35.3635296,48 30.5568362,48 L8.7158911,48 C3.9022373,48 0,44.0719585 0,39.2518736 L0,8.7481264 Z M15.2727273,4.36363636 L24,4.36363636 L24,21.7976162 C24,22.344701 23.6542559,22.505496 23.225082,22.1545729 L19.7750662,19.333595 L16.0672911,22.1785389 C15.6284656,22.5152459 15.2727273,22.3327597 15.2727273,21.7976162 L15.2727273,4.36363636 Z M8.7345845,30.5454545 L37.0909091,30.5454545 L37.0909091,34.9090909 L8.7345845,34.9090909 C6.3229516,34.9090909 4.3636364,36.867739 4.3636364,39.2727273 L0,39.2727273 C0,34.4574365 3.9133143,30.5454545 8.7345845,30.5454545 Z" id="path-1"></path>
            </g>
        </g>
    </g>
</svg>