<?xml version="1.0" encoding="UTF-8"?>
<svg width="61px" height="61px" viewBox="0 0 61 61" version="1.1" xmlns="http://www.w3.org/2000/svg" xmlns:xlink="http://www.w3.org/1999/xlink">
    <!-- Generator: Sketch 53.2 (72643) - https://sketchapp.com -->
    <title>key 2</title>
    <desc>Created with Sketch.</desc>
    <g id="Page-1" stroke="none" stroke-width="1" fill="none" fill-rule="evenodd">
        <g id="Features" transform="translate(-312.000000, -12288.000000)" fill="#8CA26A" fill-rule="nonzero">
            <g id="Group-14" transform="translate(0.000000, 12022.000000)">
                <g id="key-2" transform="translate(311.000000, 266.000000)">
                    <g id="key">
                        <path d="M60.01,0.99 L48.01,0.99 C47.747518,0.991370749 47.4960987,1.09588932 47.31,1.281 L23.23,25.257 C15.3518172,23.4144985 7.20709338,27.0202704 3.27504721,34.0913091 C-0.656998966,41.1623478 0.577333664,49.9836029 6.29921964,55.7037949 C12.0211056,61.4239869 20.8427258,62.6557075 27.9125999,58.7215677 C34.982474,54.787428 38.5858341,46.6416369 36.741,38.764 L40.725,34.689 C40.9079133,34.5019334 41.010229,34.2506316 41.01,33.989 L41.01,26.989 L48.01,26.989 C48.5622847,26.989 49.01,26.5412847 49.01,25.989 L49.01,18.989 L56.01,18.989 C56.2751948,18.9889434 56.5295073,18.8835494 56.717,18.696 L60.717,14.696 C60.9045494,14.5085073 61.0099434,14.2541948 61.01,13.989 L61.01,1.989 C61.0094481,1.43710581 60.5618945,0.989999724 60.01,0.99 Z M17.51,49.99 C14.4724339,49.99 12.01,47.5275661 12.01,44.49 C12.01,41.4524339 14.4724339,38.99 17.51,38.99 C20.5475661,38.99 23.01,41.4524339 23.01,44.49 C23.01,47.5275661 20.5475661,49.99 17.51,49.99 L17.51,49.99 Z" id="Shape"></path>
                    </g>
                </g>
            </g>
        </g>
    </g>
</svg>