<?xml version="1.0" encoding="UTF-8"?>
<svg width="45px" height="38px" viewBox="2 -6 38 38" version="1.1" xmlns="http://www.w3.org/2000/svg" xmlns:xlink="http://www.w3.org/1999/xlink">
    <!-- Generator: Sketch 52.4 (67378) - http://www.bohemiancoding.com/sketch -->
    <title>Icon / Simple Outlined / Eye</title>
    <desc>Created with Sketch.</desc>
    <defs>
        <path d="M23.779561,36.8571429 C19.2172217,36.8571429 14.6281789,34.8909195 10.1889357,31.6469061 C8.66564975,30.5337524 7.26734435,29.344052 6.02089424,28.1531113 C5.26714891,27.4329332 4.72519424,26.8652379 4.49303722,26.5989385 C3.08262219,25.1726428 3.08822686,22.8545459 4.42408318,21.4747341 C4.72519424,21.1347621 5.26714891,20.5670668 6.02089424,19.8468887 C7.26734435,18.655948 8.66564975,17.4662476 10.1889357,16.3530939 C14.6281789,13.1090805 19.2172217,11.1428571 23.779561,11.1428571 C28.3419003,11.1428571 32.9309431,13.1090805 37.3701862,16.3530939 C38.8934722,17.4662476 40.2917776,18.655948 41.5382277,19.8468887 C42.2919731,20.5670668 42.8339277,21.1347621 43.0660848,21.4010615 C44.4764998,22.8273572 44.4708951,25.1454541 43.1350388,26.5252659 C42.8339277,26.8652379 42.2919731,27.4329332 41.5382277,28.1531113 C40.2917776,29.344052 38.8934722,30.5337524 37.3701862,31.6469061 C32.9309431,34.8909195 28.3419003,36.8571429 23.779561,36.8571429 Z M23.779561,33.1836735 C27.4228061,33.1836735 31.3347925,31.507542 35.2027997,28.680964 C36.5870513,27.6694107 37.8643799,26.5826394 39.0005072,25.4971083 C39.6763083,24.8514033 40.1485375,24.3567451 40.4392975,24.0310754 C40.4512294,24.0187286 40.45132,23.9812549 40.3850949,23.910342 C40.1485375,23.6432549 39.6763083,23.1485967 39.0005072,22.5028917 C37.8643799,21.4173606 36.5870513,20.3305893 35.2027997,19.319036 C31.3347925,16.492458 27.4228061,14.8163265 23.779561,14.8163265 C20.1363159,14.8163265 16.2243295,16.492458 12.3563223,19.319036 C10.9720707,20.3305893 9.69474212,21.4173606 8.55861482,22.5028917 C7.88281371,23.1485967 7.41058445,23.6432549 7.11982449,23.9689246 C7.10789258,23.9812714 7.10780197,24.0187451 7.17402706,24.089658 C7.41058445,24.3567451 7.88281371,24.8514033 8.55861482,25.4971083 C9.69474212,26.5826394 10.9720707,27.6694107 12.3563223,28.680964 C16.2243295,31.507542 20.1363159,33.1836735 23.779561,33.1836735 Z M23.779561,25.8367347 C24.7939615,25.8367347 25.6162957,25.0144006 25.6162957,24 C25.6162957,22.9855994 24.7939615,22.1632653 23.779561,22.1632653 C22.7651604,22.1632653 21.9428263,22.9855994 21.9428263,24 C21.9428263,25.0144006 22.7651604,25.8367347 23.779561,25.8367347 Z M23.779561,29.5102041 C20.7363593,29.5102041 18.2693569,27.0432017 18.2693569,24 C18.2693569,20.9567983 20.7363593,18.4897959 23.779561,18.4897959 C26.8227627,18.4897959 29.2897651,20.9567983 29.2897651,24 C29.2897651,27.0432017 26.8227627,29.5102041 23.779561,29.5102041 Z" id="path-1"></path>
        <linearGradient x1="7.6875%" y1="-12.1523438%" x2="100%" y2="116.397135%" id="linearGradient-3">
            <stop stop-color="#8BA266" offset="0%"></stop>
            <stop stop-color="#909F75" offset="100%"></stop>
        </linearGradient>
    </defs>
    <g id="Page-1" stroke="none" stroke-width="1" fill="none" fill-rule="evenodd">
        <g id="Translators" transform="translate(-733.000000, -4937.000000)">
            <g id="Features-#14" transform="translate(1.000000, 4812.000000)">
                <g id="Colums" transform="translate(723.000000, 114.000000)">
                    <g id="Col" transform="translate(6.000000, 0.000000)">
                        <g id="Icon-/-Simple-Outlined-/-Eye">
                            <mask id="mask-2" fill="white">
                                <use xlink:href="#path-1"></use>
                            </mask>
                            <use id="Combined-Shape" fill="#8BA266" fill-rule="nonzero" xlink:href="#path-1"></use>
                            <g id="Base-/-Fill-/-Primary" mask="url(#mask-2)" fill="url(#linearGradient-3)" fill-rule="evenodd">
                                <rect id="Fill" x="0" y="0" width="48" height="48"></rect>
                            </g>
                        </g>
                    </g>
                </g>
            </g>
        </g>
    </g>
</svg>
