<?xml version="1.0" encoding="UTF-8"?>
<svg width="58px" height="58px" viewBox="0 0 58 58" version="1.1" xmlns="http://www.w3.org/2000/svg" xmlns:xlink="http://www.w3.org/1999/xlink">
    <!-- Generator: Sketch 53.2 (72643) - https://sketchapp.com -->
    <title>app-services</title>
    <desc>Created with Sketch.</desc>
    <g id="Page-1" stroke="none" stroke-width="1" fill="none" fill-rule="evenodd">
        <g id="Features" transform="translate(-1079.000000, -12300.000000)" fill="#8CA26A" fill-rule="nonzero">
            <g id="Group-14" transform="translate(0.000000, 12022.000000)">
                <g id="app-services" transform="translate(1079.000000, 278.000000)">
                    <path d="M19,30 C19.0003294,31.4117073 18.4038693,32.7577684 17.3578867,33.705839 C16.311904,34.6539096 14.9138841,35.1156297 13.509,34.977 C10.900299,34.6524088 8.95586924,32.4134469 9,29.785 L9,29 C9,28.4477153 8.55228475,28 8,28 L0,28 L0,4 C-4.4408921e-16,1.790861 1.790861,4.4408921e-16 4,0 L28,0 L28,7 C24.1340068,7 21,10.1340068 21,14 C21,17.8659932 24.1340068,21 28,21 L28,28 L20,28 C19.4477153,28 19,28.4477153 19,29 L19,30 Z" id="Path"></path>
                    <path d="M30,39 C31.4117073,38.9996706 32.7577684,39.5961307 33.705839,40.6421133 C34.6539096,41.688096 35.1156297,43.0861159 34.977,44.491 C34.6524088,47.099701 32.4134469,49.0441308 29.785,49 L29,49 C28.4477153,49 28,49.4477153 28,50 L28,58 L4,58 C1.790861,58 4.4408921e-16,56.209139 0,54 L0,30 L7,30 C7,33.8659932 10.1340068,37 14,37 C17.8659932,37 21,33.8659932 21,30 L28,30 L28,38 C28,38.5522847 28.4477153,39 29,39 L30,39 Z" id="Path"></path>
                    <path d="M39,28 C38.9996706,26.5882927 39.5961307,25.2422316 40.6421133,24.294161 C41.688096,23.3460904 43.0861159,22.8843703 44.491,23.023 C47.099701,23.3475912 49.0441308,25.5865531 49,28.215 L49,29 C49,29.5522847 49.4477153,30 50,30 L58,30 L58,54 C58,56.209139 56.209139,58 54,58 L30,58 L30,51 C33.8659932,51 37,47.8659932 37,44 C37,40.1340068 33.8659932,37 30,37 L30,30 L38,30 C38.5522847,30 39,29.5522847 39,29 L39,28 Z" id="Path"></path>
                    <path d="M28,19 C26.5882927,19.0003294 25.2422316,18.4038693 24.294161,17.3578867 C23.3460904,16.311904 22.8843703,14.9138841 23.023,13.509 C23.3475912,10.900299 25.5865531,8.95586924 28.215,9 L29,9 C29.5522847,9 30,8.55228475 30,8 L30,0 L54,0 C56.209139,0 58,1.790861 58,4 L58,28 L51,28 C51,24.1340068 47.8659932,21 44,21 C40.1340068,21 37,24.1340068 37,28 L30,28 L30,20 C30,19.4477153 29.5522847,19 29,19 L28,19 Z" id="Path"></path>
                </g>
            </g>
        </g>
    </g>
</svg>