<?xml version="1.0" encoding="UTF-8"?>
<svg width="45px" height="45px" viewBox="0 0 45 45" version="1.1" xmlns="http://www.w3.org/2000/svg" xmlns:xlink="http://www.w3.org/1999/xlink">
    <!-- Generator: Sketch 52.4 (67378) - http://www.bohemiancoding.com/sketch -->
    <title>Combined Shape</title>
    <desc>Created with Sketch.</desc>
    <defs>
        <path d="M28.5,42.8181818 C20.5922865,42.8181818 14.1818182,36.4077135 14.1818182,28.5 C14.1818182,20.5922865 20.5922865,14.1818182 28.5,14.1818182 C36.4077135,14.1818182 42.8181818,20.5922865 42.8181818,28.5 C42.8181818,36.4077135 36.4077135,42.8181818 28.5,42.8181818 Z M28.5,38.7272727 C34.1483668,38.7272727 38.7272727,34.1483668 38.7272727,28.5 C38.7272727,22.8516332 34.1483668,18.2727273 28.5,18.2727273 C22.8516332,18.2727273 18.2727273,22.8516332 18.2727273,28.5 C18.2727273,34.1483668 22.8516332,38.7272727 28.5,38.7272727 Z M26.4545455,6.99957002 C26.4545455,6.44752274 26.8923444,6 27.4448404,6 L29.5551596,6 C30.1020844,6 30.5454545,6.44131214 30.5454545,6.99957002 L30.5454545,11.1367936 C30.5454545,11.6888409 30.1076556,12.1363636 29.5551596,12.1363636 L27.4448404,12.1363636 C26.8979156,12.1363636 26.4545455,11.6950515 26.4545455,11.1367936 L26.4545455,6.99957002 Z M42.2567451,11.8505454 C42.6471014,11.460189 43.2731184,11.4533132 43.6637921,11.8439869 L45.1560131,13.3362079 C45.5427473,13.7229422 45.5442025,14.348507 45.1494546,14.7432549 L42.2239958,17.6687138 C41.8336394,18.0590702 41.2076224,18.0659459 40.8169487,17.6752722 L39.3247278,16.1830513 C38.9379935,15.796317 38.9365383,15.1707522 39.3312862,14.7760042 L42.2567451,11.8505454 Z M50.00043,26.4545455 C50.5524773,26.4545455 51,26.8923444 51,27.4448404 L51,29.5551596 C51,30.1020844 50.5586879,30.5454545 50.00043,30.5454545 L45.8632064,30.5454545 C45.3111591,30.5454545 44.8636364,30.1076556 44.8636364,29.5551596 L44.8636364,27.4448404 C44.8636364,26.8979156 45.3049485,26.4545455 45.8632064,26.4545455 L50.00043,26.4545455 Z M45.1494546,42.2567451 C45.539811,42.6471014 45.5466868,43.2731184 45.1560131,43.6637921 L43.6637921,45.1560131 C43.2770578,45.5427473 42.651493,45.5442025 42.2567451,45.1494546 L39.3312862,42.2239958 C38.9409298,41.8336394 38.9340541,41.2076224 39.3247278,40.8169487 L40.8169487,39.3247278 C41.203683,38.9379935 41.8292478,38.9365383 42.2239958,39.3312862 L45.1494546,42.2567451 Z M30.5454545,50.00043 C30.5454545,50.5524773 30.1076556,51 29.5551596,51 L27.4448404,51 C26.8979156,51 26.4545455,50.5586879 26.4545455,50.00043 L26.4545455,45.8632064 C26.4545455,45.3111591 26.8923444,44.8636364 27.4448404,44.8636364 L29.5551596,44.8636364 C30.1020844,44.8636364 30.5454545,45.3049485 30.5454545,45.8632064 L30.5454545,50.00043 Z M14.7432549,45.1494546 C14.3528986,45.539811 13.7268816,45.5466868 13.3362079,45.1560131 L11.8439869,43.6637921 C11.4572527,43.2770578 11.4557975,42.651493 11.8505454,42.2567451 L14.7760042,39.3312862 C15.1663606,38.9409298 15.7923776,38.9340541 16.1830513,39.3247278 L17.6752722,40.8169487 C18.0620065,41.203683 18.0634617,41.8292478 17.6687138,42.2239958 L14.7432549,45.1494546 Z M6.99957002,30.5454545 C6.44752274,30.5454545 6,30.1076556 6,29.5551596 L6,27.4448404 C6,26.8979156 6.44131214,26.4545455 6.99957002,26.4545455 L11.1367936,26.4545455 C11.6888409,26.4545455 12.1363636,26.8923444 12.1363636,27.4448404 L12.1363636,29.5551596 C12.1363636,30.1020844 11.6950515,30.5454545 11.1367936,30.5454545 L6.99957002,30.5454545 Z M11.8505454,14.7432549 C11.460189,14.3528986 11.4533132,13.7268816 11.8439869,13.3362079 L13.3362079,11.8439869 C13.7229422,11.4572527 14.348507,11.4557975 14.7432549,11.8505454 L17.6687138,14.7760042 C18.0590702,15.1663606 18.0659459,15.7923776 17.6752722,16.1830513 L16.1830513,17.6752722 C15.796317,18.0620065 15.1707522,18.0634617 14.7760042,17.6687138 L11.8505454,14.7432549 Z" id="path-1"></path>
    </defs>
    <g id="Symbols" stroke="none" stroke-width="1" fill="none" fill-rule="evenodd">
        <g id="Icon-/-Simple-Outlined-/-Sun" transform="translate(-6.000000, -6.000000)">
            <mask id="mask-2" fill="white">
                <use xlink:href="#path-1"></use>
            </mask>
            <use id="Combined-Shape" fill="#8BA266" fill-rule="nonzero" xlink:href="#path-1"></use>
        </g>
    </g>
</svg>
