<?xml version="1.0" encoding="UTF-8"?>
<svg width="22px" height="20px" viewBox="0 0 22 20" version="1.1" xmlns="http://www.w3.org/2000/svg" xmlns:xlink="http://www.w3.org/1999/xlink">
    <!-- Generator: Sketch 52.6 (67491) - http://www.bohemiancoding.com/sketch -->
    <title>mail(4)</title>
    <desc>Created with Sketch.</desc>
    <g id="Website" stroke="none" stroke-width="1" fill="none" fill-rule="evenodd">
        <g id="Translator's-Hub" transform="translate(-150.000000, -1404.000000)" fill="#53A9E6" fill-rule="nonzero">
            <g id="Skills" transform="translate(149.000000, 980.000000)">
                <g id="tabs" transform="translate(0.000000, 419.000000)">
                    <g id="container">
                        <g id="Process" transform="translate(1.000000, 0.000000)">
                            <g id="mail(4)" transform="translate(0.000000, 5.000000)">
                                <path d="M21.3125,0 L0.6875,0 C0.308,0 0,0.324210526 0,0.723684211 L0,16.6447368 C0,17.0442105 0.308,17.3684211 0.6875,17.3684211 L9.625,17.3684211 L9.625,15.9210526 L1.375,15.9210526 L1.375,2.22894737 L10.5703125,9.97236842 C10.696125,10.07875 10.8480625,10.1315789 11,10.1315789 C11.1519375,10.1315789 11.303875,10.07875 11.4296875,9.97309211 L20.625,2.22894737 L20.625,8.68421053 L22,8.68421053 L22,0.723684211 C22,0.324210526 21.692,0 21.3125,0 Z M11,8.48085526 L2.6475625,1.44736842 L19.353125,1.44736842 L11,8.48085526 Z" id="Shape"></path>
                                <path d="M17.3684211,9.26315789 C14.8144361,9.26315789 12.7368421,11.6004511 12.7368421,14.4736842 C12.7368421,17.3469173 14.8144361,19.6842105 17.3684211,19.6842105 C19.922406,19.6842105 22,17.3469173 22,14.4736842 C22,11.6004511 19.922406,9.26315789 17.3684211,9.26315789 Z M17.3684211,18.1954887 C15.5442406,18.1954887 14.0601504,16.5258872 14.0601504,14.4736842 C14.0601504,12.4214812 15.5442406,10.7518797 17.3684211,10.7518797 C19.1926015,10.7518797 20.6766917,12.4214812 20.6766917,14.4736842 C20.6766917,16.5258872 19.1926015,18.1954887 17.3684211,18.1954887 Z" id="Shape"></path>
                                <path d="M18.8008746,12.7368421 L16.7437139,14.741195 L15.9359675,13.9541837 L15.0526316,14.8148442 L16.3020459,16.0321858 C16.4238638,16.1508766 16.5837888,16.2105263 16.7437139,16.2105263 C16.9036389,16.2105263 17.063564,16.1508766 17.1853819,16.0321858 L19.6842105,13.5975026 L18.8008746,12.7368421 Z" id="Path"></path>
                            </g>
                        </g>
                    </g>
                </g>
            </g>
        </g>
    </g>
</svg>