<?xml version="1.0" encoding="UTF-8"?>
<svg width="201px" height="40px" viewBox="0 0 201 40" version="1.1" xmlns="http://www.w3.org/2000/svg" xmlns:xlink="http://www.w3.org/1999/xlink">
    <!-- Generator: Sketch 52.4 (67378) - http://www.bohemiancoding.com/sketch -->
    <title>logo_slogan</title>
    <desc>Created with Sketch.</desc>
    <g id="Page-1" stroke="none" stroke-width="1" fill="none" fill-rule="evenodd">
        <g id="logo_slogan">
            <path d="M197.617,19.555 L197.617,3.288 L184.47,3.288 L175.233,14.298 C175.031,12.359 174.382,10.555 173.287,8.923 C171.951,6.939 170.115,5.457 167.831,4.518 C165.818,3.691 163.276,3.289 160.06,3.289 C156.908,3.289 154.399,3.722 152.389,4.614 C150.179,5.595 148.419,7.056 147.163,8.957 C146.306,10.253 145.673,11.794 145.243,13.625 C144.637,13.16 143.989,12.738 143.29,12.371 C141.015,11.18 138.197,10.6 134.675,10.6 C131.058,10.6 127.969,11.454 125.456,13.136 L125.456,3.738 L97.368,3.738 L97.368,13.256 C96.908,12.937 96.429,12.637 95.92,12.37 C93.646,11.179 90.828,10.599 87.304,10.599 C84.044,10.599 81.214,11.294 78.845,12.663 L78.845,11.033 L74.812,11.033 L74.812,0.8 L58.248,9.309 L58.248,11.033 L46.748,11.033 L47.964,4.367 L43.109,3.772 C40.541,3.458 37.544,3.288 36.028,3.288 C33.752,3.288 31.947,3.596 30.511,4.228 C28.97,4.907 27.715,5.862 26.782,7.066 C25.924,8.172 25.331,9.508 25.012,11.033 L17.639,11.033 L17.639,3.739 L0.93,3.739 L0.93,39.45 L65.379,39.451 C66.532,39.74 67.859,39.884 69.428,39.884 C71.324,39.884 73.363,39.648 75.489,39.182 L79.465,38.312 C79.481,38.319 79.495,38.329 79.511,38.336 C81.624,39.377 84.244,39.884 87.522,39.884 C91.242,39.884 94.149,39.295 96.41,38.083 C96.737,37.907 97.055,37.714 97.368,37.509 L97.368,39.451 L125.456,39.449 L125.456,37.508 C125.912,37.813 126.385,38.092 126.88,38.336 C128.993,39.377 131.613,39.884 134.89,39.884 C138.611,39.884 141.519,39.295 143.779,38.083 C143.808,38.066 143.84,38.047 143.869,38.031 L143.705,39.451 L175.49,39.451 L175.49,34.504 L182.008,34.504 L182.008,39.451 L197.618,39.451 L197.618,34.504 L200.93,34.504 L200.93,19.555 L197.617,19.555 Z" id="Path" fill="#FFFFFF"></path>
            <polygon id="Path" fill="#184287" points="5.54 8.361 13.028 8.361 13.028 22.022 18.501 15.655 27.521 15.655 20.662 22.372 27.918 34.828 19.662 34.828 15.789 27.142 13.028 29.846 13.028 34.828 5.54 34.828"></polygon>
            <path d="M36.567,15.655 L40.06,15.655 L40.06,20.683 L36.567,20.683 L36.567,34.829 L29.221,34.829 L29.221,21.035 L29.221,15.655 L29.221,14.788 C29.221,14.006 29.305,13.144 29.473,12.206 C29.64,11.267 29.956,10.5 30.418,9.905 C30.88,9.309 31.528,8.827 32.362,8.46 C33.196,8.093 34.418,7.91 36.026,7.91 C37.31,7.91 40.099,8.06 42.548,8.36 L41.738,12.802 C40.862,12.656 39.232,12.585 38.691,12.585 C38.031,12.585 37.557,12.696 37.269,12.919 C36.981,13.141 36.777,13.494 36.657,13.975 C36.597,14.241 36.567,14.8 36.567,15.655" id="Path" fill="#184287"></path>
            <polygon id="Path" fill="#184287" points="42.67 15.655 60.404 15.655 60.404 19.952 50.753 29.81 60.998 29.81 60.998 34.828 41.949 34.828 41.949 30.062 51.115 20.674 42.67 20.674"></polygon>
            <path d="M62.856,27.779 C62.856,29.919 63.063,31.466 63.478,32.422 C63.892,33.378 64.531,34.09 65.395,34.559 C66.259,35.028 67.603,35.262 69.428,35.262 C71.001,35.262 72.693,35.064 74.505,34.666 L73.965,29.593 C72.993,29.906 72.236,30.063 71.696,30.063 C71.096,30.063 70.676,29.858 70.436,29.45 C70.28,29.186 70.202,28.646 70.202,27.829 L70.202,21.036 L74.235,21.036 L74.235,15.656 L70.202,15.656 L70.202,8.361 L62.856,12.135 L62.856,27.779 Z" id="Path" fill="#184287"></path>
            <path d="M98.647,27.065 L83.956,27.065 C84.089,28.245 84.406,29.123 84.911,29.701 C85.619,30.531 86.543,30.947 87.683,30.947 C88.402,30.947 89.089,30.765 89.736,30.404 C90.132,30.176 90.558,29.773 91.013,29.195 L98.233,29.863 C97.128,31.789 95.796,33.17 94.236,34.007 C92.675,34.843 90.436,35.262 87.52,35.262 C84.987,35.262 82.995,34.903 81.543,34.188 C80.09,33.472 78.887,32.334 77.932,30.776 C76.979,29.217 76.5,27.385 76.5,25.279 C76.5,22.281 77.458,19.856 79.373,18.003 C81.288,16.149 83.93,15.223 87.304,15.223 C90.042,15.223 92.202,15.639 93.785,16.468 C95.369,17.299 96.577,18.503 97.405,20.079 C98.233,21.656 98.647,23.708 98.647,26.235 L98.647,27.065 Z M91.194,23.544 C91.049,22.125 90.668,21.107 90.05,20.494 C89.432,19.88 88.619,19.573 87.611,19.573 C86.446,19.573 85.515,20.036 84.82,20.963 C84.376,21.541 84.093,22.402 83.974,23.545 L91.194,23.544 Z" id="Shape" fill="#184287" fill-rule="nonzero"></path>
            <path d="M101.978,8.36 L109.306,8.36 L109.306,13.362 L101.978,13.362 L101.978,8.36 Z M101.978,15.655 L109.306,15.655 L109.306,34.829 L101.978,34.829 L101.978,15.655 Z" id="Shape" fill="#184287" fill-rule="nonzero"></path>
            <rect id="Rectangle" fill="#184287" x="113.501" y="8.36" width="7.346" height="26.468"></rect>
            <path d="M146.017,27.065 L131.326,27.065 C131.459,28.245 131.775,29.123 132.281,29.701 C132.988,30.531 133.912,30.947 135.052,30.947 C135.772,30.947 136.456,30.765 137.105,30.404 C137.501,30.176 137.927,29.773 138.382,29.195 L145.603,29.863 C144.498,31.789 143.166,33.17 141.605,34.007 C140.044,34.843 137.806,35.262 134.89,35.262 C132.358,35.262 130.365,34.903 128.913,34.188 C127.46,33.472 126.257,32.334 125.303,30.776 C124.349,29.218 123.87,27.385 123.87,25.279 C123.87,22.281 124.829,19.856 126.743,18.003 C128.657,16.15 131.301,15.223 134.673,15.223 C137.411,15.223 139.571,15.639 141.155,16.468 C142.739,17.299 143.946,18.503 144.774,20.079 C145.601,21.656 146.015,23.708 146.015,26.235 L146.017,27.065 Z M138.563,23.544 C138.418,22.125 138.038,21.107 137.418,20.494 C136.8,19.88 135.988,19.573 134.979,19.573 C133.816,19.573 132.885,20.036 132.188,20.963 C131.746,21.541 131.461,22.402 131.343,23.545 L138.563,23.544 Z" id="Shape" fill="#184287" fill-rule="nonzero"></path>
            <path d="M170.88,34.829 L148.879,34.829 C149.132,32.65 149.897,30.601 151.175,28.681 C152.453,26.762 154.851,24.496 158.366,21.884 C160.515,20.283 161.889,19.069 162.489,18.237 C163.091,17.406 163.389,16.618 163.389,15.872 C163.389,15.065 163.092,14.377 162.5,13.805 C161.904,13.233 161.157,12.947 160.258,12.947 C159.322,12.947 158.555,13.242 157.962,13.832 C157.367,14.422 156.969,15.463 156.764,16.955 L149.42,16.359 C149.706,14.289 150.234,12.673 151.003,11.511 C151.772,10.349 152.856,9.46 154.252,8.84 C155.652,8.22 157.586,7.91 160.059,7.91 C162.641,7.91 164.647,8.205 166.082,8.794 C167.516,9.384 168.644,10.29 169.467,11.511 C170.289,12.733 170.7,14.102 170.7,15.619 C170.7,17.231 170.228,18.772 169.286,20.241 C168.344,21.709 166.631,23.322 164.146,25.08 C162.669,26.102 161.681,26.819 161.184,27.228 C160.687,27.637 160.1,28.173 159.429,28.835 L170.878,28.835 L170.878,34.829 L170.88,34.829 Z" id="Path" fill="#EF7D00"></path>
            <path d="M186.616,29.882 L173.257,29.882 L173.257,23.833 L186.616,7.91 L193.007,7.91 L193.007,24.177 L196.32,24.177 L196.32,29.882 L193.007,29.882 L193.007,34.828 L186.616,34.828 L186.616,29.882 Z M186.616,24.177 L186.616,15.847 L179.556,24.177 L186.616,24.177 Z" id="Shape" fill="#EF7D00" fill-rule="nonzero"></path>
        </g>
    </g>
</svg>