<?xml version="1.0" encoding="UTF-8"?>
<svg width="68px" height="63px" viewBox="0 0 68 63" version="1.1" xmlns="http://www.w3.org/2000/svg" xmlns:xlink="http://www.w3.org/1999/xlink">
    <!-- Generator: Sketch 52.6 (67491) - http://www.bohemiancoding.com/sketch -->
    <title>icon</title>
    <desc>Created with Sketch.</desc>
    <g id="Website" stroke="none" stroke-width="1" fill="none" fill-rule="evenodd">
        <g id="Translator's-Hub" transform="translate(-688.000000, -2307.000000)" fill="#53A9E6" fill-rule="nonzero">
            <g id="Tools" transform="translate(0.000000, 1881.000000)">
                <g id="features" transform="translate(145.000000, 384.000000)">
                    <g id="fuzzy-match" transform="translate(393.000000, 0.000000)">
                        <g id="icon" transform="translate(150.000000, 42.000000)">
                            <path d="M8.16666667,29.6644758 L15.9716667,29.6644758 C15.5410545,30.8963434 14.9146957,32.0508225 14.1166667,33.0835365 C13.5763952,32.5453884 13.0797756,31.9651661 12.6315,31.3483515 C12.2721008,30.8166946 11.550507,30.6751367 11.016723,31.0315742 C10.4829391,31.3880117 10.3375325,32.1085144 10.6913333,32.6439097 C11.2283486,33.4006964 11.8298697,34.1096197 12.4891667,34.7627478 C11.4467589,35.6321696 10.2493604,36.2968589 8.96,36.7218276 C8.56403062,36.8534777 8.2684073,37.1862753 8.18448848,37.5948589 C8.10056965,38.0034425 8.2411046,38.4257384 8.55315515,38.7026719 C8.8652057,38.9796054 9.30136397,39.0691037 9.69733333,38.9374536 C11.3694186,38.3907766 12.9138404,37.5122339 14.238,36.3545001 C15.4446022,37.3349864 16.754764,38.180776 18.1451667,38.8768154 C18.721844,39.1646967 19.4228168,38.9308007 19.7108333,38.3543941 C19.9988498,37.7779875 19.764844,37.0773438 19.1881667,36.7894625 C18.0090989,36.1948504 16.8958175,35.4780259 15.8666667,34.6508003 C17.0303254,33.168501 17.8963241,31.47533 18.417,29.6644758 L19.8333333,29.6644758 C20.4776655,29.6644758 21,29.1423865 21,28.4983568 C21,27.8543271 20.4776655,27.3322379 19.8333333,27.3322379 L15.1666667,27.3322379 L15.1666667,26.1661189 C15.1666667,25.5220892 14.6443322,25 14,25 C13.3556678,25 12.8333333,25.5220892 12.8333333,26.1661189 L12.8333333,27.3322379 L8.16666667,27.3322379 C7.52233446,27.3322379 7,27.8543271 7,28.4983568 C7,29.1423865 7.52233446,29.6644758 8.16666667,29.6644758 Z" id="Path"></path>
                            <path d="M26.9559063,37.5953144 L21.1229803,49.3050991 C20.9366793,49.6795227 20.9635332,50.125269 21.1934265,50.4744298 C21.4233197,50.8235905 21.821326,51.0231199 22.2375202,50.9978571 C22.6537145,50.9725944 23.0248668,50.7263774 23.2111678,50.3519539 L28,40.7370497 L30.1955133,45.1446126 L28,45.1446126 C27.3557128,45.1446126 26.8334148,45.6688775 26.8334148,46.3155911 C26.8334148,46.9623046 27.3557128,47.4865696 28,47.4865696 L31.3620985,47.4865696 L32.7888322,50.3519539 C32.9751332,50.7263774 33.3462856,50.9725943 33.7624798,50.9978571 C34.178674,51.0231199 34.5766803,50.8235905 34.8065735,50.4744297 C35.0364668,50.125269 35.0633207,49.6795227 34.8770197,49.3050991 L29.0440938,37.5953144 C28.8248131,37.2261393 28.428198,37 28,37 C27.571802,37 27.175187,37.2261393 26.9559063,37.5953144 Z" id="Path"></path>
                            <path d="M16.6457559,50.8752537 C16.9226362,51.0154877 17.2431843,51.0384874 17.536812,50.9391881 C17.8304398,50.8398888 18.0730677,50.6264337 18.2112665,50.345828 L29.8767698,26.71075 C30.1647576,26.1266151 29.9307751,25.4165773 29.3541553,25.1248362 C28.7775354,24.8330951 28.0766325,25.0701271 27.7886447,25.654262 L16.1231414,49.28934 C15.9847116,49.5698289 15.9620078,49.8945547 16.0600296,50.1920092 C16.1580513,50.4894638 16.3687602,50.7352538 16.6457559,50.8752537 Z" id="Path"></path>
                            <path d="M64.4827586,0 L3.51724138,0 C1.5747226,0 0,1.56700338 0,3.5 L0,59.5 C0,61.4329966 1.5747226,63 3.51724138,63 L64.4827586,63 C66.4252774,63 68,61.4329966 68,59.5 L68,3.5 C68,1.56700338 66.4252774,0 64.4827586,0 Z M2.34482759,3.5 C2.34482759,2.85566779 2.86973512,2.33333333 3.51724138,2.33333333 L64.4827586,2.33333333 C65.1302649,2.33333333 65.6551724,2.85566779 65.6551724,3.5 L65.6551724,11.6666667 L2.34482759,11.6666667 L2.34482759,3.5 Z M65.6551724,59.5 C65.6551724,60.1443322 65.1302649,60.6666667 64.4827586,60.6666667 L3.51724138,60.6666667 C2.86973512,60.6666667 2.34482759,60.1443322 2.34482759,59.5 L2.34482759,14 L65.6551724,14 L65.6551724,59.5 Z" id="Shape"></path>
                            <circle id="Oval" cx="8.5" cy="7.5" r="2.5"></circle>
                            <circle id="Oval" cx="15.5" cy="7.5" r="2.5"></circle>
                            <circle id="Oval" cx="22.5" cy="7.5" r="2.5"></circle>
                            <path d="M43.1875,32 L59.8125,32 C60.4683381,32 61,31.5522847 61,31 C61,30.4477153 60.4683381,30 59.8125,30 L43.1875,30 C42.5316619,30 42,30.4477153 42,31 C42,31.5522847 42.5316619,32 43.1875,32 Z" id="Path"></path>
                            <path d="M43.1875,39 L59.8125,39 C60.4683381,39 61,38.5522847 61,38 C61,37.4477153 60.4683381,37 59.8125,37 L43.1875,37 C42.5316619,37 42,37.4477153 42,38 C42,38.5522847 42.5316619,39 43.1875,39 Z" id="Path"></path>
                            <path d="M43.1875,46 L59.8125,46 C60.4683381,46 61,45.5522847 61,45 C61,44.4477153 60.4683381,44 59.8125,44 L43.1875,44 C42.5316619,44 42,44.4477153 42,45 C42,45.5522847 42.5316619,46 43.1875,46 Z" id="Path"></path>
                        </g>
                    </g>
                </g>
            </g>
        </g>
    </g>
</svg>