<?xml version="1.0" encoding="UTF-8"?>
<svg width="38px" height="38px" viewBox="0 0 38 38" version="1.1" xmlns="http://www.w3.org/2000/svg" xmlns:xlink="http://www.w3.org/1999/xlink">
    <!-- Generator: Sketch 52.4 (67378) - http://www.bohemiancoding.com/sketch -->
    <title>Icon / Simple Outlined / Cloud</title>
    <desc>Created with Sketch.</desc>
    <defs>
        <path d="M33.3347984,36.0021587 L40.0058286,42.6731565 C40.7467872,43.4141114 41.9293782,43.4119381 42.6706956,42.6706242 C43.413489,41.9278345 43.4124756,40.7450144 42.6732278,40.0057702 L36.0021976,33.3347725 L33.3347984,36.0021587 Z M30.177439,38.1795871 C28.3427074,38.9651088 26.3221408,39.4 24.2,39.4 C15.8052718,39.4 9,32.5947282 9,24.2 C9,15.8052718 15.8052718,9 24.2,9 C32.5947282,9 39.4,15.8052718 39.4,24.2 C39.4,26.3221246 38.9651155,28.3426765 38.1796051,30.1773969 L45.340627,37.338384 C47.5520166,39.5497628 47.5550761,43.1210399 45.3380948,45.3380105 C43.1258038,47.5502908 39.5547511,47.5568535 37.3384294,45.3405427 L30.177439,38.1795871 Z M24.2,35.6 C30.4960461,35.6 35.6,30.4960461 35.6,24.2 C35.6,17.9039539 30.4960461,12.8 24.2,12.8 C17.9039539,12.8 12.8,17.9039539 12.8,24.2 C12.8,30.4960461 17.9039539,35.6 24.2,35.6 Z" id="path-1"></path>
        <linearGradient x1="7.6875%" y1="-12.1523438%" x2="100%" y2="116.397135%" id="linearGradient-3">
            <stop stop-color="#8BA266" offset="0%"></stop>
            <stop stop-color="#909F75" offset="100%"></stop>
        </linearGradient>
    </defs>
    <g id="Page-1" stroke="none" stroke-width="1" fill="none" fill-rule="evenodd">
        <g id="Ecommerce" transform="translate(-702.000000, -4278.000000)">
            <g id="Group-5" transform="translate(0.000000, 3817.000000)">
                <g id="Group">
                    <g id="Group-3">
                        <g id="Features-#6" transform="translate(0.000000, 163.000000)">
                            <g id="Col" transform="translate(562.000000, 289.000000)">
                                <g id="Icon-/-Simple-Outlined-/-Search" transform="translate(131.000000, 0.000000)">
                                    <mask id="mask-2" fill="white">
                                        <use xlink:href="#path-1"></use>
                                    </mask>
                                    <use id="Combined-Shape" fill="#4A4A4A" fill-rule="nonzero" xlink:href="#path-1"></use>
                                    <g id="Base-/-Fill-/-Primary" mask="url(#mask-2)" fill="url(#linearGradient-3)" fill-rule="evenodd">
                                        <rect id="Fill" x="0" y="0" width="56" height="56"></rect>
                                    </g>
                                </g>
                            </g>
                        </g>
                    </g>
                </g>
            </g>
        </g>
    </g>
</svg>