<?xml version="1.0" encoding="UTF-8"?>
<svg width="50px" height="63px" viewBox="0 0 50 63" version="1.1" xmlns="http://www.w3.org/2000/svg" xmlns:xlink="http://www.w3.org/1999/xlink">
    <!-- Generator: Sketch 52.6 (67491) - http://www.bohemiancoding.com/sketch -->
    <title>icon</title>
    <desc>Created with Sketch.</desc>
    <g id="Website" stroke="none" stroke-width="1" fill="none" fill-rule="evenodd">
        <g id="Features" transform="translate(-1073.000000, -1257.000000)" fill="#53A9E6" fill-rule="nonzero">
            <g id="Process-Section" transform="translate(147.000000, 980.000000)">
                <g id="features" transform="translate(1.000000, 235.000000)">
                    <g id="Operations" transform="translate(776.000000, 0.000000)">
                        <g id="icon" transform="translate(149.000000, 42.000000)">
                            <path d="M44.296875,3.9375 L34.453002,3.9375 C34.4521406,3.9375 34.4514023,3.93762305 34.450541,3.93762305 C33.5516836,2.74296094 32.1224941,1.96875 30.515625,1.96875 L28.0066992,1.96875 C27.3122227,0.768058594 26.0220762,0 24.609375,0 C23.1966738,0 21.9065273,0.768058594 21.2120508,1.96875 L18.703125,1.96875 C17.0962559,1.96875 15.6670664,2.74296094 14.768209,3.93762305 C14.7673477,3.93762305 14.7664863,3.9375 14.765625,3.9375 L4.921875,3.9375 C2.20795313,3.9375 0,6.14545313 0,8.859375 L0,58.078125 C0,60.7920469 2.20795313,63 4.921875,63 L44.296875,63 C47.0107969,63 49.21875,60.7920469 49.21875,58.078125 L49.21875,8.859375 C49.21875,6.14545313 47.0107969,3.9375 44.296875,3.9375 Z M15.75,6.890625 C15.75,5.2623457 17.0748457,3.9375 18.703125,3.9375 L21.8371289,3.9375 C22.2536426,3.9375 22.6251211,3.67528711 22.7646563,3.28289063 C23.0439727,2.49686719 23.7853301,1.96875 24.609375,1.96875 C25.4334199,1.96875 26.1747773,2.49686719 26.4540938,3.28289063 C26.5936289,3.67528711 26.9651074,3.9375 27.3816211,3.9375 L30.515625,3.9375 C32.1439043,3.9375 33.46875,5.2623457 33.46875,6.890625 L33.46875,9.84375 L15.75,9.84375 L15.75,6.890625 Z M47.25,58.078125 C47.25,59.7064043 45.9251543,61.03125 44.296875,61.03125 L4.921875,61.03125 C3.2935957,61.03125 1.96875,59.7064043 1.96875,58.078125 L1.96875,8.859375 C1.96875,7.2310957 3.2935957,5.90625 4.921875,5.90625 L13.8803027,5.90625 C13.815457,6.22444922 13.78125,6.55359961 13.78125,6.890625 L13.78125,10.828125 C13.78125,11.3717461 14.2220039,11.8125 14.765625,11.8125 L34.453125,11.8125 C34.9967461,11.8125 35.4375,11.3717461 35.4375,10.828125 L35.4375,6.890625 C35.4375,6.55359961 35.403293,6.22444922 35.3384473,5.90625 L44.296875,5.90625 C45.9251543,5.90625 47.25,7.2310957 47.25,8.859375 L47.25,58.078125 Z" id="Shape"></path>
                            <path d="M44.296875,7.875 L38.390625,7.875 C37.8470039,7.875 37.40625,8.31575391 37.40625,8.859375 C37.40625,9.40299609 37.8470039,9.84375 38.390625,9.84375 L43.3125,9.84375 L43.3125,57.09375 L5.90625,57.09375 L5.90625,9.84375 L10.828125,9.84375 C11.3717461,9.84375 11.8125,9.40299609 11.8125,8.859375 C11.8125,8.31575391 11.3717461,7.875 10.828125,7.875 L4.921875,7.875 C4.37825391,7.875 3.9375,8.31575391 3.9375,8.859375 L3.9375,58.078125 C3.9375,58.6217461 4.37825391,59.0625 4.921875,59.0625 L44.296875,59.0625 C44.8404961,59.0625 45.28125,58.6217461 45.28125,58.078125 L45.28125,8.859375 C45.28125,8.31575391 44.8404961,7.875 44.296875,7.875 Z" id="Path"></path>
                            <path d="M24.609375,3.9375 C24.3497461,3.9375 24.0962695,4.04208984 23.9129297,4.22542969 C23.7295898,4.40876953 23.625,4.66224609 23.625,4.921875 C23.625,5.18027344 23.7295898,5.43498047 23.9129297,5.61832031 C24.0962695,5.80166016 24.3497461,5.90625 24.609375,5.90625 C24.8677734,5.90625 25.1224805,5.80166016 25.3058203,5.61832031 C25.4891602,5.43498047 25.59375,5.18150391 25.59375,4.921875 C25.59375,4.66224609 25.4891602,4.40876953 25.3058203,4.22542969 C25.1224805,4.0419668 24.8677734,3.9375 24.609375,3.9375 Z" id="Path"></path>
                            <path d="M9.14767383,22.9289238 C8.76315234,23.3133223 8.76315234,23.9365547 9.14767383,24.3209531 L12.1007988,27.2740781 C12.292998,27.4662773 12.544875,27.562377 12.796875,27.562377 C13.048875,27.562377 13.300752,27.4662773 13.4929512,27.2740781 L18.4148262,22.3522031 C18.7993477,21.9678047 18.7993477,21.3445723 18.4148262,20.9601738 C18.0304277,20.5757754 17.4071953,20.5757754 17.0227969,20.9601738 L12.796875,25.1859727 L10.5398262,22.9289238 C10.1554277,22.5445254 9.53207227,22.5445254 9.14767383,22.9289238 Z" id="Path"></path>
                            <path d="M18.4148262,31.7882988 C18.0304277,31.4039004 17.4071953,31.4039004 17.0227969,31.7882988 L12.796875,36.0140977 L10.5398262,33.7570488 C10.1554277,33.3726504 9.53219531,33.3726504 9.14779688,33.7570488 C8.76327539,34.1414473 8.76327539,34.7646797 9.14779688,35.1490781 L12.1009219,38.1022031 C12.2931211,38.2944023 12.544998,38.390502 12.796998,38.390502 C13.048998,38.390502 13.300875,38.2944023 13.4930742,38.1022031 L18.4149492,33.1803281 C18.7992246,32.7960527 18.7992246,32.1726973 18.4148262,31.7882988 Z" id="Path"></path>
                            <path d="M17.0226738,42.6164238 L12.796875,46.8422227 L10.5398262,44.5851738 C10.1554277,44.2007754 9.53219531,44.2007754 9.14779688,44.5851738 C8.76327539,44.9695723 8.76327539,45.5928047 9.14779688,45.9772031 L12.1009219,48.9303281 C12.2931211,49.1225273 12.544998,49.218627 12.796998,49.218627 C13.048998,49.218627 13.300875,49.1225273 13.4930742,48.9303281 L18.4149492,44.0084531 C18.7994707,43.6240547 18.7994707,43.0008223 18.4149492,42.6164238 C18.0304277,42.2320254 17.4070723,42.2320254 17.0226738,42.6164238 Z" id="Path"></path>
                            <path d="M22.640625,24.609375 L39.375,24.609375 C39.9186211,24.609375 40.359375,24.1686211 40.359375,23.625 C40.359375,23.0813789 39.9186211,22.640625 39.375,22.640625 L22.640625,22.640625 C22.0970039,22.640625 21.65625,23.0813789 21.65625,23.625 C21.65625,24.1686211 22.0970039,24.609375 22.640625,24.609375 Z" id="Path"></path>
                            <path d="M22.640625,35.4375 L39.375,35.4375 C39.9186211,35.4375 40.359375,34.9967461 40.359375,34.453125 C40.359375,33.9095039 39.9186211,33.46875 39.375,33.46875 L22.640625,33.46875 C22.0970039,33.46875 21.65625,33.9095039 21.65625,34.453125 C21.65625,34.9967461 22.0970039,35.4375 22.640625,35.4375 Z" id="Path"></path>
                            <path d="M22.640625,46.265625 L39.375,46.265625 C39.9186211,46.265625 40.359375,45.8248711 40.359375,45.28125 C40.359375,44.7376289 39.9186211,44.296875 39.375,44.296875 L22.640625,44.296875 C22.0970039,44.296875 21.65625,44.7376289 21.65625,45.28125 C21.65625,45.8248711 22.0970039,46.265625 22.640625,46.265625 Z" id="Path"></path>
                        </g>
                    </g>
                </g>
            </g>
        </g>
    </g>
</svg>