<?xml version="1.0" encoding="UTF-8"?>
<svg width="490px" height="317px" viewBox="0 0 490 317" version="1.1" xmlns="http://www.w3.org/2000/svg" xmlns:xlink="http://www.w3.org/1999/xlink">
    <!-- Generator: Sketch 52.6 (67491) - http://www.bohemiancoding.com/sketch -->
    <title>illustration</title>
    <desc>Created with Sketch.</desc>
    <g id="Website" stroke="none" stroke-width="1" fill="none" fill-rule="evenodd">
        <g id="Homepage" transform="translate(-800.000000, -1351.000000)" fill-rule="nonzero">
            <g id="Why-us-Section" transform="translate(149.000000, 1130.000000)">
                <g id="illustration" transform="translate(651.000000, 221.000000)">
                    <path d="M228.787434,234.660828 L258.275923,281.216335 C260.527338,284.748241 260.669999,289.225818 258.647974,292.893577 C256.625949,296.561336 252.761499,298.83473 248.569727,298.822446 L168.963383,298.822446 C165.026716,298.821842 161.364261,296.808624 159.257187,293.487037 L125.788566,240.650231 C123.548399,237.116067 123.411445,232.644129 125.431157,228.979797 C127.450868,225.315465 131.307094,223.039585 135.494762,223.040425 L215.101106,223.040425 C219.037715,223.037411 222.700692,225.051684 224.803603,228.375834 L228.787434,234.657133 L228.787434,234.660828 Z" id="Path_112" fill="#ADDCF7"></path>
                    <path d="M185.758886,237.655329 C185.758886,237.655329 188.875267,232.466986 194.835578,236.866611 L228.298418,267.058433 C228.298418,267.058433 231.455853,271.544032 224.984231,272.119684 L180.709229,272.119684 C180.709229,272.119684 171.151084,272.598148 173.450115,265.559495 L185.758886,237.655329 Z" id="Path_113" fill="#FFFFFF"></path>
                    <path d="M380.41286,113.522319 L452.087257,226.71398 C457.529798,235.309747 457.861522,246.184612 452.95301,255.095811 C448.044498,264.00701 438.67345,269.542659 428.495926,269.543058 L235.001253,269.543058 C225.430788,269.543379 216.527243,264.643506 211.409922,256.560079 L130.056179,128.087599 C124.613926,119.490697 124.282794,108.615022 129.19196,99.7032633 C134.101125,90.7915048 143.47287,85.2554782 153.6512,85.254833 L347.142182,85.254833 C356.712468,85.2552079 365.6157,90.1549088 370.733513,98.2378122 L380.41286,113.522319 Z" id="Path_114" fill="#FFFFFF"></path>
                    <path d="M322.053674,179.924226 L309.072679,159.533467 L307.319092,156.777759 C306.282365,155.136614 304.468178,154.142562 302.519022,154.147647 L267.477021,154.147647 C265.405036,154.147609 263.497158,155.268538 262.497681,157.073142 C261.498203,158.877745 261.565468,161.080129 262.673235,162.821107 L277.407817,185.967574 C278.444932,187.607837 280.259281,188.600581 282.207888,188.593992 L317.249889,188.593992 C319.321728,188.595625 321.230145,187.4756 322.229879,185.671302 C323.229614,183.867003 323.162089,181.664626 322.053674,179.924226 Z" id="Path_115" fill="#ADDCF7"></path>
                    <path d="M403.273153,120.154979 C405.433696,119.532791 407.725186,119.532791 409.885729,120.154979 C413.13909,120.992644 415.32105,124.054844 415.057576,127.413236 C415.349416,131.159074 412.16873,136.134999 404.784071,134.315804 C404.784071,134.315804 393.431867,135.849708 390.572575,141.422152 C389.330411,143.447447 388.361481,145.62899 387.691117,147.909751 C387.691117,147.909751 385.541106,156.364749 388.692239,160.555197 C388.692239,160.555197 375.866058,162.344752 373.819485,167.065026 C373.819485,167.065026 366.612146,164.649313 364.022529,163.897181 C360.763164,162.077518 357.914367,159.601271 355.655219,156.624104 C353.183815,153.96015 348.58826,149.828983 348.551318,148.406232 C348.514376,146.98348 348.920735,144.70115 350.612668,144.301001 C354.032401,143.841952 357.410904,145.394223 359.297677,148.291374 C362.899499,152.507758 365.237913,153.645218 365.370903,152.841215 C362.907855,148.893751 359.745254,145.431744 356.039413,142.626303 C351.558377,139.076835 344.905166,133.867489 343.926209,132.726324 C342.947252,131.585158 344.373204,128.413608 345.773297,127.765218 C347.17339,127.116829 349.312318,126.631463 353.139485,129.439916 C356.966652,132.248368 360.006959,134.693722 360.006959,134.693722 C363.174683,132.21307 367.517379,131.881513 371.022993,133.852669 C372.6477,132.733082 374.734488,132.536825 376.538398,133.333957 L376.948452,131.133138 C376.948452,131.133138 371.558649,126.27207 371.776605,124.445465 C371.994561,122.618859 380.823643,116.34986 380.823643,116.34986 L382.670731,102.478032 C384.746744,107.846403 388.374351,112.470419 393.088309,115.757047 C400.594875,120.65146 403.273153,120.154979 403.273153,120.154979 Z" id="Path_116" fill="#FFFFFF"></path>
                    <path d="M264.21109,176.537786 C261.621356,178.187387 260.418724,181.320764 261.246252,184.262476 C261.246252,184.262476 256.861997,186.767483 258.878087,194.087546 C260.365887,200.927484 263.696174,207.238379 268.513811,212.347243 C273.505857,217.276331 281.147727,221.285814 281.659162,223.040422 C284.83325,219.762738 288.282419,216.758904 291.969386,214.061389 C295.472602,211.419253 299.207152,209.093786 303.128295,207.112846 C303.128295,207.112846 293.492572,191.762783 291.676608,187.617199 C289.860645,183.471615 287.003282,177.431643 282.782094,178.531491 C278.560906,179.63134 279.31694,184.148445 280.558465,187.536273 C281.799991,190.924102 285.413388,197.571014 281.640631,198.299342 C277.867875,199.02767 275.140224,191.957739 275.140224,191.957739 C275.140224,191.957739 273.720808,191.391262 270.692967,186.208362 C268.77324,182.946616 266.589352,179.845285 264.162911,176.935055 L264.21109,176.537786 Z" id="Path_117" fill="#FFFFFF"></path>
                    <path d="M386.978982,90.4467779 C393.877221,83.9166474 403.260909,86.182052 408.358313,88.1850688 C412.522997,89.3276868 416.338444,91.4758057 419.4647,94.4380291 C423.619155,95.8012201 427.650569,97.5097057 431.516154,99.5453525 C436.185494,102.637654 438.40014,108.306877 437.052604,113.71799 C436.072314,118.285397 434.198849,122.617243 431.538478,126.46782 C431.538478,126.46782 429.46603,130.433202 432.282625,132.332742 C439.080966,136.393839 443.306375,143.635115 443.474589,151.512922 C443.984329,163.630804 435.854528,170.234847 427.419627,170.493539 C418.984726,170.752231 408.44389,167.8364 407.789041,166.221422 C407.789041,166.221422 396.597076,171.284398 389.687676,162.296691 C382.778275,153.308985 389.732324,140.263506 393.892104,138.086796 C396.546123,136.758016 399.47766,136.068061 402.449789,136.072693 C404.2017,134.251505 405.545798,132.082728 406.393766,129.708864 C406.73146,126.438319 404.996775,123.301367 402.036788,121.829839 C400.618978,121.228697 399.109803,120.867692 397.571908,120.761809 C390.585838,118.295017 385.175831,112.70661 382.968032,105.676358 C381.383308,100.253491 382.92379,94.40428 386.978982,90.4467779 Z" id="Path_118" fill="#1A1A1A"></path>
                    <path d="M436.251595,167.482148 C440.216393,171.842844 442.987364,177.152419 444.296285,182.896917 C450.684213,194.067464 456.328345,205.646554 461.191983,217.558896 C465.733996,230.471676 473.519777,248.602785 466.55511,260.868817 C462.241836,268.886356 453.153368,273.101012 444.240804,271.216779 C443.573575,277.555801 443.481967,283.942159 443.9671,290.297684 C444.799309,300.220641 447.1147,315.184534 447.1147,315.184534 L348.688381,315.184534 C348.688381,315.184534 351.011169,304.88092 351.647347,300.723256 C352.283525,296.565593 353.12683,289.455064 353.12683,289.455064 C353.12683,289.455064 344.708571,294.880353 327.058336,286.443068 C309.408101,278.005782 293.344612,252.812188 289.701385,246.396451 C286.058157,239.980714 279.015817,225.626612 279.015817,225.626612 C279.015817,225.626612 295.230953,208.083119 310.166336,203.215881 L337.84007,233.94933 C337.84007,233.94933 345.296665,217.514548 350.763356,205.289169 C356.230046,193.06379 363.649655,175.039856 371.683248,168.764556 C379.716842,162.489256 382.942116,160.9038 388.852651,160.175747 C390.743369,163.777514 394.047203,166.432088 397.973665,167.504322 C401.297136,168.052696 404.708689,167.606508 407.77894,166.221914 C413.012613,168.887287 418.760876,170.39126 424.630254,170.630885 C428.71558,170.634371 432.727672,169.547317 436.251595,167.482148 Z" id="Path_119" fill="#8BA266"></path>
                    <path d="M325.638475,23.1020258 L338.518268,43.2054662 C339.497275,44.7314305 339.557349,46.6629339 338.675019,48.2453846 C337.792689,49.8278352 336.107981,50.8101008 334.279069,50.8084337 L299.510263,50.8084337 C297.791044,50.8071507 296.191849,49.9376417 295.271064,48.5035111 L280.655042,25.6909673 C279.676679,24.1644328 279.616863,22.2329237 280.498938,20.6501726 C281.381013,19.0674216 283.065185,18.0842644 284.894242,18.0843585 L319.663048,18.0843585 C321.382267,18.0856416 322.981462,18.9551506 323.902247,20.3892811 L325.638475,23.1020258 Z" id="Path_120" fill="#4D5E6C"></path>
                    <path d="M182.315992,79.0551227 L216.662793,133.534944 C219.269329,137.672508 219.427304,142.90613 217.075106,147.194563 C214.722908,151.482996 210.23308,154.147031 205.356771,154.147627 L112.642953,154.147627 C108.056247,154.149273 103.788752,151.790665 101.336931,147.898885 L62.3553628,86.064548 C59.7471913,81.9273813 59.5877853,76.6931521 61.9393291,72.4037384 C64.290873,68.1143246 68.7808398,65.4492469 73.657689,65.4481547 L166.375203,65.4481547 C170.961191,65.4493096 175.22743,67.807223 177.681225,71.6968959 L182.315992,79.0551227 Z" id="Path_121" fill="#ADDCF7"></path>
                    <path d="M344.106713,131.757469 C344.106713,131.757469 341.871172,135.445029 346.817496,137.785589 L349.630931,136.866644 C349.630931,136.866644 343.730321,132.468277 344.106713,131.757469 Z" id="Path_122" fill="#CCCCCC"></path>
                    <path d="M72.7126142,74.059754 L196.344464,74.059754 L188.205191,61.6444944 C186.128253,59.5119506 183.455216,58.0690529 180.543176,57.5085608 C174.838286,55.9645784 84.484962,57.5645022 84.484962,57.5645022 C80.6240848,57.8971198 77.0999838,59.913254 74.8370306,63.084073 C72.5740773,66.2548919 71.7980915,70.2639801 72.7126142,74.059754 Z" id="Path_123" fill="#4D5E6C"></path>
                    <path d="M182.01976,68.236458 C180.467553,69.5689863 177.733076,68.8081048 175.917718,66.5372872 C175.233789,64.6250097 176.048526,62.4867876 177.810304,61.570324 C179.572082,60.6538604 181.718702,61.2516069 182.796776,62.9588536 C183.874849,64.6661003 183.540352,66.93805 182.01976,68.236458 Z" id="Path_124" fill="#3A3A3A"></path>
                    <path d="M167.010073,68.299868 C165.616948,69.503658 163.162721,68.8162868 161.533416,66.7648575 C159.910387,65.2326759 159.716766,62.6496031 161.09186,60.8741215 C162.484985,59.6703314 164.939212,60.3577027 166.568518,62.4091319 C168.191546,63.9413136 168.385167,66.5243864 167.010073,68.299868 Z" id="Path_125" fill="#FFFFFF"></path>
                    <path d="M153.231514,68.299868 C151.83839,69.503658 149.384162,68.8162868 147.754857,66.7648575 C146.131828,65.2326759 145.938207,62.6496031 147.313301,60.8741215 C148.706426,59.6703314 151.160653,60.3577027 152.789959,62.4091319 C154.412987,63.9413136 154.606608,66.5243864 153.231514,68.299868 Z" id="Path_126" fill="#FFFFFF"></path>
                    <path d="M19.8229529,132.800748 C15.9682678,135.929257 9.17578858,134.13997 4.64746912,128.808697 C0.119149656,123.477424 -0.423500198,116.620316 3.43118497,113.491807 C7.28587013,110.363297 14.0783493,112.148926 18.6029264,117.483858 C23.1275034,122.81879 23.6776381,129.672238 19.8229529,132.800748 Z" id="Path_127" fill="#8BA266"></path>
                    <path d="M387.000551,90.5760085 C382.916668,94.5772092 381.372984,100.480801 382.980681,105.949417 C385.209934,113.046064 390.672512,118.687248 397.726467,121.177337 C398.332087,121.222595 398.934327,121.304822 399.529774,121.42355 C392.730839,116.51725 389.500192,108.0808 391.298431,99.9283832 C392.265801,93.353244 397.313941,88.1041365 403.884007,86.8417735 C397.984275,85.111041 391.602777,86.5224827 387.000551,90.5760085 Z" id="Path_128" fill="#FFFFFF"></path>
                    <path d="M399.194849,167.926186 C383.114645,158.172308 394.501444,139.80238 400.439367,136.063269 C398.074527,136.263511 395.770219,136.933438 393.654733,138.035753 C389.574464,140.240294 382.753333,153.448826 389.530668,162.555191 C391.807962,165.736186 395.352848,167.706303 399.194849,167.926186 Z" id="Path_129" fill="#FFFFFF"></path>
                    <path d="M321.212654,282.80709 C321.212654,282.80709 337.800546,295.583304 353.23277,289.366061 C357.879649,287.544111 362.191587,284.965125 365.99297,281.734137 C362.159346,273.319845 353.518694,268.143876 344.278179,268.72643 C327.778618,269.163694 323.420938,277.861221 321.212654,282.80709 Z" id="Path_130" fill="#1A1A1A"></path>
                    <g id="Group_88" transform="translate(278.154657, 201.511424)" fill="#000000">
                        <path d="M65.0616212,90.0336405 C40.0348175,90.0336405 14.136909,56.6211562 0.0632371325,24.0830726 C-0.0393483304,23.848144 -0.00695446154,23.5755523 0.147774728,23.3716957 C4.11640622,18.4659862 8.75735969,14.1545083 13.9310783,10.5669112 C19.3513963,6.60607589 25.1833054,3.25174224 31.3237696,0.563173389 C31.5796182,0.472103339 31.8645695,0.535296476 32.0588791,0.726197265 C32.3823273,1.05224502 64.5690978,33.6607253 74.4857253,53.6867264 C74.6034689,53.9138292 74.590224,54.1873524 74.4510982,54.401816 C74.3119724,54.6162796 74.0687035,54.7381745 73.8151045,54.720494 C73.5615055,54.7028134 73.3372,54.5483199 73.228688,54.3165914 C63.9516058,35.5762558 34.8081887,5.54281178 31.393605,2.07484933 C25.5408589,4.75162683 19.9565849,7.9886701 14.7176455,11.7414242 C9.7838399,15.171711 5.34031396,19.268226 1.51140289,23.9163436 C16.1327313,57.4955569 43.3023793,91.8454286 68.6269024,88.3848763 C95.5355864,84.6797882 106.93346,49.5444379 119.033362,4.0126104 C119.138873,3.63899755 119.519767,3.41748521 119.89344,3.51242351 C120.268496,3.61536989 120.49035,4.00466348 120.389639,4.38311921 C108.150066,50.4225438 96.5831175,85.9506335 68.8143553,89.7779895 C67.5707378,89.9498342 66.3168676,90.0352528 65.0616212,90.0336405 Z" id="Path_131"></path>
                    </g>
                    <g id="Group_89" transform="translate(337.574692, 160.175747)" fill="#000000">
                        <path d="M0.747147207,75.1268967 C0.64829435,75.1267072 0.550488661,75.1067029 0.459544048,75.0680729 C0.286285457,74.9953183 0.149622978,74.8561846 0.0802812853,74.681952 C0.0109395926,74.5077194 0.0147378222,74.3130095 0.0908220501,74.1415973 C3.13277853,67.4136197 5.93506572,60.7665249 8.64148519,54.3436961 C21.0157954,24.9795667 30.79799,1.76988238 50.5135553,0.0492848452 C50.6998176,0.025498901 50.8875959,0.080181711 51.0317406,0.200185304 C51.1758852,0.320188897 51.2633565,0.494657297 51.2731226,0.681641206 C51.2915413,0.866300378 51.2347157,1.05058803 51.1154335,1.19303356 C50.9961513,1.33547909 50.824433,1.42411603 50.6389208,1.43899824 C31.7603545,3.10812492 22.1330231,25.9575132 9.93938662,54.8878167 C7.22559271,61.321675 4.40855665,67.9724463 1.37028738,74.7151298 C1.25951049,74.96065 1.0170864,75.1208422 0.747147207,75.1268967 Z" id="Path_132"></path>
                    </g>
                    <g id="Group_94" transform="translate(257.486819, 175.676626)" fill="#000000">
                        <g id="Group_90" transform="translate(17.019738, 1.517588)">
                            <path d="M29.1937948,30.1986891 C28.9820184,30.1984045 28.7814393,30.1030211 28.6468731,29.938606 C28.6099189,29.8903048 27.68976,28.7347925 23.1517879,22.0432246 C21.4494568,19.5703891 19.9526761,16.9607285 18.6766378,14.24073 C18.1186298,13.048063 17.6308348,11.8182412 17.1504306,10.5921349 C16.4905542,8.82535193 15.7241819,7.10065123 14.8555766,5.42762663 C14.5821157,4.92232222 14.2901778,4.43187971 13.9686765,3.94143719 C13.4944654,3.14855259 12.8568765,2.4669625 12.0987955,1.94251239 C11.1995169,1.41489929 10.1080292,1.33533695 9.14246181,1.72701493 C8.01076664,2.12998488 7.12103139,3.02591484 6.72196363,4.16436561 C6.39607585,6.04217977 6.64477764,7.97522112 7.43517913,9.70785222 C7.77146208,10.6775908 8.17426254,11.6213211 8.54380424,12.5687669 C8.98355888,13.6351078 9.43439976,14.734888 9.80394146,15.8606765 C9.84459105,15.9832871 9.90371772,16.1207596 9.9628444,16.2768095 C10.5874751,17.3150023 10.7083558,18.5825386 10.29132,19.7211529 C9.87428416,20.8597673 8.96464248,21.7457499 7.8195025,22.1286805 C4.86316885,23.5517068 2.83438489,19.5724346 1.48186224,16.9270174 C1.19361971,16.3622654 0.938635933,15.856961 0.702129242,15.4705518 C0.570104578,15.2535201 0.5632688,14.9821579 0.684196878,14.7586849 C0.805124957,14.5352118 1.03544503,14.3935787 1.28839771,14.3871374 C1.5413504,14.3806961 1.77850614,14.5104253 1.91053062,14.727457 C2.15442815,15.1324437 2.43158443,15.6711873 2.73460863,16.2656631 C4.12778086,18.9891053 5.61703393,21.5899368 7.20975869,20.8282647 C9.79655063,19.5798656 9.15724348,18.0305131 8.65836217,16.7821139 C8.58075842,16.5963403 8.51793633,16.4105666 8.4698959,16.280525 C8.1003542,15.2067531 7.6679904,14.1292658 7.24301744,13.0852177 C6.8439124,12.1154791 6.44480735,11.142025 6.10113357,10.1462781 C5.18742962,8.13547364 4.92876484,5.8858797 5.36205016,3.71850877 C5.88332343,2.1578769 7.08926633,0.924838215 8.63249425,0.374582535 C10.0100549,-0.172363277 11.5620052,-0.0461061571 12.8341835,0.716406107 C13.7576697,1.34818089 14.5383551,2.16855157 15.125342,3.124033 C15.4653204,3.63676836 15.7794309,4.16436561 16.0750642,4.70682475 C16.9724138,6.42803323 17.7622977,8.20374981 18.4401311,10.0236675 C18.9168399,11.2311964 19.3935487,12.4350098 19.918298,13.6016685 C21.1651891,16.2475322 22.6235024,18.7873376 24.2788901,21.1960966 C28.7466493,27.7836313 29.674199,28.9540055 29.7111532,28.9985911 C29.9529718,29.303322 29.9033397,29.7474451 29.6002907,29.9906226 C29.4926616,30.1049678 29.3490793,30.178461 29.1937948,30.1986891 Z" id="Path_133"></path>
                        </g>
                        <g id="Group_91" transform="translate(3.695417, 0.000000)">
                            <path d="M1.569199,10.6049559 C1.30966918,10.6067017 1.07057831,10.4636133 0.948368933,10.2334086 C0.047849638,8.31383865 -0.186363153,6.14607798 0.283193862,4.07686882 C0.505382601,2.29004723 1.76821006,0.809727506 3.49081587,0.316809538 C3.85550912,0.225403832 4.22747508,0.437370685 4.33683092,0.798915879 C4.44618676,1.16046107 4.25456889,1.54474938 3.90100717,1.6729574 C2.82933622,2.00363455 2.07916655,2.57581749 1.65419359,4.4038305 C1.26287613,6.13649577 1.45122841,7.95057324 2.19002907,9.56462332 C2.27883178,9.730053 2.29834149,9.92426158 2.24423398,10.1042039 C2.19012648,10.2841463 2.06687105,10.434959 1.90178654,10.5232155 C1.79973299,10.5786946 1.68519982,10.6068436 1.569199,10.6049559 Z" id="Path_134"></path>
                        </g>
                        <g id="Group_92" transform="translate(4.424091, 8.948535)">
                            <path d="M9.67257199,16.7932604 C9.45416065,16.7938616 9.24790957,16.6922363 9.11456401,16.5183153 C5.68207605,11.7136389 2.69828826,6.60048545 0.201218061,1.24400336 C0.0388201716,0.888972285 0.192456977,0.468745665 0.544891848,0.303988537 C0.713743367,0.220258026 0.909363877,0.209830027 1.08607477,0.275139544 C1.26278567,0.340449062 1.40511658,0.475778496 1.47983236,0.649527582 C3.93211775,5.91023391 6.86142257,10.9325021 10.23058,15.65261 C10.3964396,15.8659683 10.426293,16.1559155 10.30742,16.3989093 C10.188547,16.6419032 9.94190014,16.7951138 9.67257199,16.7932604 Z" id="Path_135"></path>
                        </g>
                        <g id="Group_93" transform="translate(0.000000, 7.430947)">
                            <path d="M24.8059815,40.856342 C24.6095921,40.8568656 24.4219609,40.7746683 24.2886231,40.6296981 C23.1215619,39.3589219 21.7388534,38.3071408 20.2051872,37.5235622 C17.5913842,36.0982273 15.2210392,34.2619014 13.1838948,32.0841088 C7.34233518,25.7122498 3.16261744,17.9840158 1.01858186,9.59063164 C-0.629574152,2.23770939 4.54770515,0.602901005 4.60313641,0.58803911 C4.78202564,0.531945202 4.97590245,0.55129874 5.14032901,0.641663766 C5.30475556,0.732028792 5.42563278,0.885656783 5.47525483,1.0673352 C5.58560667,1.44060683 5.37617389,1.83355928 5.00593687,1.94790245 C4.8396431,1.9962036 1.04444978,3.25946463 2.38958159,9.27853186 C4.47094618,17.4158713 8.52339164,24.9086537 14.1853528,31.0883619 C16.1311036,33.1705262 18.3954,34.9265703 20.8925348,36.2900249 C22.5578064,37.1447284 24.0592007,38.2894652 25.3270353,39.6711059 C25.5880564,39.9598622 25.5682473,40.406327 25.2826903,40.6705683 C25.1528512,40.7908443 24.982526,40.8572201 24.8059815,40.856342 Z" id="Path_136"></path>
                        </g>
                    </g>
                    <g id="Group_95" transform="translate(391.827768, 120.562390)" fill="#000000">
                        <path d="M7.4038225,16.864382 C4.63023547,16.8655589 2.03432275,15.5473696 0.464830644,13.3408026 C0.308109679,13.1398842 0.278011474,12.8722839 0.386413357,12.6436019 C0.49481524,12.4149199 0.724305181,12.2618881 0.98432206,12.2448959 C1.24433894,12.2279037 1.4931176,12.3496803 1.63248522,12.5621705 C3.25771976,14.8457072 6.16062778,15.9436439 8.96114403,15.3340128 C11.7616603,14.7243816 13.8948463,12.5301615 14.3465688,9.79450178 C14.7982912,7.05884209 13.4774257,4.33359801 11.011922,2.91437196 C8.54641829,1.49514591 5.43363396,1.66823345 3.15341109,3.35134739 C2.84486011,3.52901023 2.44740381,3.45634413 2.22759555,3.18208246 C2.0077873,2.9078208 2.03487202,2.51836267 2.29068541,2.27489748 C5.21394423,0.115950735 9.25066884,0.0359050311 12.2633821,2.07714519 C15.2760953,4.11838536 16.5686713,7.80925677 15.456681,11.1954142 C14.3446907,14.5815717 11.0850737,16.8806003 7.4038225,16.8751465 L7.4038225,16.864382 Z" id="Path_137"></path>
                    </g>
                    <g id="Group_96" transform="translate(395.272408, 124.868190)" fill="#000000">
                        <path d="M4.8440246,8.19178383 C4.62527409,8.19038414 4.42018893,8.08517811 4.29144698,7.90831869 L0.667398946,2.94229643 C0.537739615,2.7612824 0.503025552,2.5289652 0.57410662,2.31795548 C0.646370229,2.10568823 0.817902407,1.94219663 1.03339192,1.88019918 L7.20144991,0.086115993 C7.43668377,0.018173789 7.69029555,0.0808883724 7.86675215,0.250635766 C8.04320876,0.42038316 8.11570223,0.671374698 8.05692497,0.909064296 C7.99814772,1.14675389 7.8170294,1.33503085 7.58179555,1.40297305 L2.35024897,2.9135911 L5.39660223,7.09380492 C5.50358328,7.24022065 5.54782559,7.42322417 5.51954406,7.60234052 C5.49126253,7.78145687 5.39278768,7.94192611 5.24589924,8.04825718 C5.13100152,8.13832614 4.98998462,8.18868932 4.8440246,8.19178383 Z" id="Path_138"></path>
                    </g>
                    <g id="Group_97" transform="translate(376.326889, 108.506151)" fill="#000000">
                        <path d="M10.6886094,41.3110721 C7.12673594,41.2986868 3.79003634,39.5742623 1.72931678,36.6808612 C-0.10152556,32.8190728 -0.276966601,28.3818716 1.24329965,24.3886643 L6.98508348,0.982460457 C7.09314392,0.607726248 7.47133976,0.377821669 7.85539323,0.453400703 C8.24005251,0.549481288 8.47532118,0.93609013 8.38285369,1.32015817 L2.61469684,24.8051582 C1.25058264,28.4112037 1.36971959,32.4075741 2.94624341,35.9266696 C4.76436683,38.4119738 7.66509653,39.8829095 10.7526582,39.8852373 C11.0084029,39.8966318 11.2386169,40.043042 11.3565809,40.2693167 C11.4745449,40.4955914 11.4623373,40.7673539 11.3245565,40.9822341 C11.1867758,41.1971142 10.9443541,41.3224666 10.6886094,41.3110721 Z" id="Path_139"></path>
                    </g>
                    <g id="Group_98" transform="translate(374.604569, 110.228471)" fill="#000000">
                        <path d="M3.16973097,18.41723 C2.89767393,18.4167038 2.62689869,18.379947 2.36454644,18.3079289 C0.771760106,17.8552961 -0.157305717,16.2021773 0.284182777,14.6062661 L3.73809653,2.31353927 C4.18720809,0.722005109 5.84004616,-0.205475027 7.43247262,0.24046235 C8.1334893,0.355481033 8.7440422,0.783320158 9.09144326,1.40297021 C9.43884432,2.02262026 9.48531935,2.76670442 9.2177234,3.4247668 C9.17022088,3.60351856 9.05244805,3.75546225 8.89119007,3.8460412 C8.72993209,3.93662015 8.53889687,3.9581346 8.3615317,3.9056915 C7.99235492,3.79971319 7.77767673,3.41589461 7.880607,3.04585643 C8.00425489,2.73716137 8.00425489,2.39270209 7.880607,2.08400703 C7.68410487,1.81448119 7.38981912,1.63267799 7.06084899,1.57757875 C6.20741,1.35213177 5.32936993,1.84602931 5.07885629,2.69244964 L1.62494254,14.9851764 C1.45483198,15.6103615 1.67687141,16.2765457 2.18804727,16.6746577 C2.69922314,17.0727697 3.39949836,17.1248992 3.9639854,16.8068609 C4.33794656,16.6012684 4.61266304,16.2529437 4.72544951,15.8413681 C4.85147641,15.5046588 5.21324632,15.3193815 5.56012177,15.413898 C5.90699722,15.5084144 6.12477033,15.8516054 6.06256591,16.205705 C5.69727048,17.4988657 4.51713966,18.3917768 3.17337434,18.3917264 L3.16973097,18.41723 Z" id="Path_140"></path>
                    </g>
                    <g id="Group_99" transform="translate(347.908612, 289.349736)" fill="#000000">
                        <path d="M0.891778949,26.1584311 C0.813614427,26.1587723 0.735958304,26.146573 0.662136302,26.1223555 C0.478684992,26.0647718 0.327117,25.9406949 0.240932831,25.7775492 C0.154748661,25.6144034 0.141045104,25.4256229 0.202851006,25.2529331 C2.28903061,17.2692104 3.80677851,9.16299248 4.74594806,0.988471952 C4.81194174,0.630469541 5.16153905,0.382299035 5.54480971,0.421379769 C5.92808037,0.460460503 6.2132832,0.773359302 6.19652412,1.13638199 C5.25348875,9.40882788 3.71904928,17.6118324 1.60367116,25.6894481 C1.50235117,25.9768466 1.21293826,26.1675071 0.891778949,26.1584311 Z" id="Path_141"></path>
                    </g>
                    <g id="Group_100" transform="translate(442.636204, 182.565905)" fill="#000000">
                        <path d="M5.80149847,90.2560661 C4.16025126,90.3022174 2.53074632,89.9626829 1.04064379,89.2640627 C0.704215547,89.0824545 0.576779712,88.6588813 0.756007868,88.3179855 C0.935236024,87.9770897 1.35325813,87.8479615 1.68968643,88.0295697 C2.05228009,88.2169481 10.5514753,92.5376738 21.9949311,79.4579259 C32.401369,67.5502116 17.2812136,29.927566 1.14579595,1.33215084 C0.957130537,0.995110671 1.07207244,0.566966804 1.40323744,0.373214266 C1.7385991,0.198741265 2.14995884,0.313726733 2.34960688,0.637748493 C8.26713533,11.1346136 37.0752012,64.3170155 23.0174452,80.3837957 C15.9251133,88.510875 9.79002867,90.2560661 5.80149847,90.2560661 Z" id="Path_142"></path>
                    </g>
                    <g id="Group_101" transform="translate(435.746924, 167.065026)" fill="#000000">
                        <path d="M10.7974258,149.291968 C10.4803242,149.291757 10.2053502,149.063739 10.1343327,148.742108 C6.96109889,131.979444 6.09074737,114.832805 7.5493332,97.8154972 C12.9781867,42.567505 10.7406906,12.9378123 0.297860023,1.79669354 C0.109932393,1.62090299 0.0316620626,1.35085559 0.094840301,1.09623722 C0.158018539,0.841618844 0.352138104,0.644775354 0.598352934,0.585659195 C0.844567763,0.526543037 1.1019296,0.614985883 1.2659051,0.815064667 C12.1590716,12.4543785 14.4426652,41.5083791 8.89324925,97.9594203 C7.44732545,114.828803 8.31051672,131.826402 11.456973,148.443191 C11.5387123,148.823034 11.3107164,149.200374 10.9463558,149.288278 C10.8969524,149.294637 10.8470641,149.295873 10.7974258,149.291968 Z" id="Path_143"></path>
                    </g>
                    <g id="Group_102" transform="translate(312.601054, 84.393673)" fill="#000000">
                        <path d="M67.0777285,28.0539408 C66.8365178,28.0555103 66.6115524,27.9343026 66.4826538,27.7333243 L58.0074599,14.5261119 C53.0396332,6.75063225 44.3618168,2.04277942 35.0397953,2.06579019 L1.24990321,2.06579019 C0.861033949,2.06579019 0.545793124,1.75504814 0.545793124,1.3717284 C0.545793124,0.988408666 0.861033949,0.677666622 1.24990321,0.677666622 L35.0397953,0.677666622 C44.8471455,0.654668214 53.9755267,5.61078794 59.1976093,13.7937948 L67.6543226,26.9609301 C67.7555759,27.1165121 67.7891214,27.3056888 67.7474127,27.4859029 C67.7057039,27.6661171 67.5922436,27.8222349 67.4325557,27.9191361 C67.3295897,27.996238 67.2065557,28.0429807 67.0777285,28.0539408 Z" id="Path_144"></path>
                    </g>
                    <g id="Group_103" transform="translate(209.261863, 83.532513)" fill="#000000">
                        <path d="M65.3845892,2.73777094 L1.32265798,2.73777094 C0.935303294,2.73777094 0.621290281,2.43173711 0.621290281,2.05422525 C0.621290281,1.67671339 0.935303294,1.37067955 1.32265798,1.37067955 L65.3845892,1.37067955 C65.7719439,1.37067955 66.0859569,1.67671339 66.0859569,2.05422525 C66.0859569,2.43173711 65.7719439,2.73777094 65.3845892,2.73777094 Z" id="Path_145"></path>
                    </g>
                    <g id="Group_104" transform="translate(146.397188, 153.286467)" fill="#000000">
                        <path d="M159.999117,117.041846 L89.2964621,117.041846 C79.4968445,117.065089 70.3756604,112.056268 65.1576952,103.786246 L0.138877696,1.3609615 C0.037374889,1.20417545 0.00328163746,1.01331556 0.0442522829,0.831232144 C0.0852229283,0.649148728 0.1978245,0.491098737 0.356776602,0.392566278 C0.686641749,0.188845913 1.11948133,0.28729605 1.32808867,0.613492943 L66.3284402,103.038777 C71.2898527,110.899579 79.9624232,115.658369 89.2779961,115.631597 L159.980651,115.631597 C160.369214,115.631597 160.684206,115.945644 160.684206,116.333039 C160.684206,116.720435 160.369214,117.034481 159.980651,117.034481 L159.999117,117.041846 Z" id="Path_146"></path>
                    </g>
                    <g id="Group_105" transform="translate(71.476274, 55.975395)" fill="#4D5E6C">
                        <path d="M145.652481,90.4217926 L53.0831667,90.4217926 C48.2595468,90.4377185 43.7683871,87.9562319 41.2006397,83.8563765 L2.27982815,22.1110835 C-0.460268309,17.762565 -0.626607167,12.2615333 1.84570611,7.75413101 C4.31801939,3.24672874 9.0372853,0.447083455 14.1623552,0.447433495 L106.731669,0.447433495 C111.555109,0.432216813 116.045949,2.91352668 118.614197,7.01284959 L123.24543,14.3600393 L157.535008,68.7544375 C160.274463,73.1035356 160.440545,78.6045748 157.968486,83.112284 C155.496428,87.6199931 150.777696,90.4205449 145.652481,90.4217926 Z M14.1623552,1.87018732 C9.54762998,1.86657026 5.29686735,4.38555342 3.06979036,8.44359228 C0.842713356,12.5016311 0.992513321,17.4551628 3.46070041,21.3700659 L42.3778217,83.1153589 C44.6933426,86.803727 48.7370603,89.035329 53.0794765,89.0212693 L145.648791,89.0212693 C150.264717,89.0257437 154.516852,86.5062481 156.744184,82.4469729 C158.971516,78.3876977 158.820622,73.4327519 156.350446,69.5176856 L117.433324,7.77609773 C115.119301,4.08613309 111.074625,1.85400213 106.731669,1.87018732 L14.1623552,1.87018732 Z" id="Path_147"></path>
                    </g>
                    <g id="Group_106" transform="translate(123.145870, 214.428822)" fill="#000000">
                        <path d="M11.1877906,31.9968756 C10.9450249,31.9990824 10.7188117,31.8762984 10.5915918,31.6732708 L2.13741984,18.5618239 C-0.229211164,14.8851904 -0.371886472,10.2356419 1.76501499,6.42577575 C3.90191645,2.61590956 7.98013882,0.24879953 12.4098128,0.247248584 L62.5904895,0.247248584 C62.9800933,0.247248584 63.2959296,0.557362867 63.2959296,0.939908221 C63.2959296,1.32245358 62.9800933,1.63256786 62.5904895,1.63256786 L12.4098128,1.63256786 C8.49213344,1.63007422 4.88393234,3.72253685 2.99483418,7.09248829 C1.10573601,10.4624397 1.23553428,14.5750801 3.33352039,17.8237141 L11.7839893,30.9351611 C11.8844206,31.0907017 11.9174441,31.2791779 11.8757257,31.4587307 C11.8340072,31.6382836 11.7210005,31.7940485 11.5618034,31.8914314 C11.4493857,31.959694 11.3199669,31.9961807 11.1877906,31.9968756 Z" id="Path_148"></path>
                    </g>
                    <g id="Group_107" transform="translate(151.564148, 267.820738)" fill="#000000">
                        <path d="M96.7427386,22.7790257 L17.5973637,22.7790257 C13.4368003,22.7914347 9.5631878,20.6949308 7.34728601,17.2314065 L0.432638993,6.48857096 C0.331451283,6.33343094 0.297927533,6.14479173 0.339609235,5.96508954 C0.381290936,5.78538735 0.494677778,5.62971306 0.654262295,5.5330871 C0.98373064,5.33656751 1.41233731,5.43310863 1.62201738,5.75106821 L8.5366644,16.4939038 C10.497318,19.5536642 13.9201768,21.4064647 17.5973637,21.3984787 L96.7427386,21.3984787 C100.651702,21.4018125 104.252143,19.310568 106.136713,15.9421746 C108.021284,12.5737812 107.890718,8.46313562 105.79605,5.2170145 L103.579817,1.79471112 C103.425929,1.58548555 103.403644,1.30927347 103.522058,1.07879494 C103.640472,0.848316412 103.879778,0.702121744 104.142318,0.699871878 C104.404857,0.697622011 104.646717,0.839693262 104.769196,1.06810743 L106.985429,4.49041081 C109.346068,8.16402076 109.488382,12.8097455 107.356891,16.6164786 C105.2254,20.4232117 101.157503,22.7883751 96.7390448,22.7899248 L96.7427386,22.7790257 Z" id="Path_149"></path>
                    </g>
                    <g id="Group_108" transform="translate(266.098418, 23.251318)" fill="#000000">
                        <path d="M55.1346334,35.7392555 L20.4298364,35.7392555 C18.4700297,35.7457817 16.6458425,34.718462 15.6055347,33.0223742 L1.01119427,9.47606966 C-0.0987479048,7.68077008 -0.164866883,5.41114155 0.838603326,3.55163875 C1.84207354,1.69213595 3.75636541,0.536966564 5.83549592,0.536290142 L40.5476526,0.536290142 C42.504882,0.528722525 44.3273908,1.55303912 45.3682744,3.24565586 L47.1051702,6.0452085 L59.9626149,26.7919604 C61.0768735,28.5881621 61.1448371,30.8614746 60.139953,32.7237424 C59.1350689,34.5860102 57.2168164,35.7416837 55.1346334,35.7392555 Z M5.82445632,1.96424988 C4.25021572,1.96136365 2.79994096,2.83608686 2.0424612,4.24533412 C1.28498143,5.65458137 1.34107881,7.37364449 2.18875073,8.72826969 L16.7794113,32.2745742 C17.5658227,33.5521277 18.941101,34.3260393 20.4187968,34.3225691 L55.1235938,34.3225691 C56.6980914,34.3256952 58.1489107,33.4516448 58.907692,32.0428279 C59.6664734,30.634011 59.6124015,28.9147432 58.7666591,27.5585493 L44.1723186,4.01224477 C43.3862178,2.73672419 42.0124578,1.96430435 40.536613,1.96800767 L5.82445632,1.96424988 Z" id="Path_150"></path>
                    </g>
                    <g id="Group_109" transform="translate(266.098418, 23.251318)" fill="#000000">
                        <path d="M55.1346334,35.7392555 L20.4298364,35.7392555 C18.4700297,35.7457817 16.6458425,34.718462 15.6055347,33.0223742 L1.01119427,9.47606966 C-0.0987479048,7.68077008 -0.164866883,5.41114155 0.838603326,3.55163875 C1.84207354,1.69213595 3.75636541,0.536966564 5.83549592,0.536290142 L40.5476526,0.536290142 C42.504882,0.528722525 44.3273908,1.55303912 45.3682744,3.24565586 L47.1051702,6.0452085 L59.9626149,26.7919604 C61.0768735,28.5881621 61.1448371,30.8614746 60.139953,32.7237424 C59.1350689,34.5860102 57.2168164,35.7416837 55.1346334,35.7392555 Z M5.82445632,1.96424988 C4.25021572,1.96136365 2.79994096,2.83608686 2.0424612,4.24533412 C1.28498143,5.65458137 1.34107881,7.37364449 2.18875073,8.72826969 L16.7794113,32.2745742 C17.5658227,33.5521277 18.941101,34.3260393 20.4187968,34.3225691 L55.1235938,34.3225691 C56.6980914,34.3256952 58.1489107,33.4516448 58.907692,32.0428279 C59.6664734,30.634011 59.6124015,28.9147432 58.7666591,27.5585493 L44.1723186,4.01224477 C43.3862178,2.73672419 42.0124578,1.96430435 40.536613,1.96800767 L5.82445632,1.96424988 Z" id="Path_151"></path>
                    </g>
                    <g id="Group_110" transform="translate(257.486819, 158.453427)" fill="#000000">
                        <path d="M25.8185258,34.8036889 L20.4749527,34.8036889 C18.5089041,34.8095968 16.678854,33.8057629 15.6339563,32.1482663 L0.97793227,9.10640744 C-0.140679952,7.34896287 -0.209265843,5.1247996 0.798955489,3.30239181 C1.80717682,1.47998402 3.73230242,0.348363871 5.82262404,0.349397701 L40.6704069,0.349397701 C42.6366791,0.342834545 44.4676147,1.34499813 45.5150987,3.00114236 L47.2593355,5.74851164 C47.3583815,5.90554083 47.3906655,6.09530777 47.3490801,6.27603509 C47.3074947,6.45676242 47.1954492,6.61363376 47.0376105,6.71211372 C46.8805462,6.81421552 46.6886691,6.84875995 46.5056188,6.80789042 C46.3225686,6.7670209 46.1639058,6.65421163 46.0657158,6.49511936 L44.3251744,3.75142794 C43.5340549,2.50297816 42.1534417,1.7471769 40.6704069,1.75066637 L5.82262404,1.75066637 C4.24213368,1.74895263 2.78641927,2.60493989 2.02534177,3.98353925 C1.26426427,5.36213861 1.3188983,7.04403813 2.16785656,8.37083333 L16.8238806,31.4126922 C17.612302,32.6621425 18.9925087,33.418486 20.4749527,33.4134538 L25.8185258,33.4134538 C26.2073215,33.4134538 26.5225027,33.7271385 26.5225027,34.1140881 C26.5225027,34.5010378 26.2073215,34.8147225 25.8185258,34.8147225 L25.8185258,34.8036889 Z" id="Path_152"></path>
                    </g>
                    <g id="Group_111" transform="translate(293.655536, 163.620387)" fill="#000000">
                        <path d="M18.9762923,29.637029 L1.02098108,29.637029 C0.634586587,29.637029 0.321351959,29.3235309 0.321351959,28.9368115 C0.321351959,28.550092 0.634586587,28.2365939 1.02098108,28.2365939 L18.9762923,28.2365939 C20.5480805,28.2407647 21.9967212,27.38568 22.7536104,26.0069676 C23.5104997,24.6282552 23.4548436,22.9459478 22.6084875,21.6203652 L9.77644474,1.33427279 C9.67684078,1.17703503 9.64408927,0.986502254 9.68546405,0.804990257 C9.72683883,0.623478259 9.83891465,0.466013728 9.99680037,0.367568263 C10.3251715,0.166301357 10.7540279,0.264221607 10.9626925,0.58810922 L23.7947353,20.8742016 C24.9067926,22.6311571 24.9746219,24.8547986 23.9717231,26.6763766 C22.9688243,28.4979546 21.0543616,29.6283772 18.9762923,29.626002 L18.9762923,29.637029 Z" id="Path_153"></path>
                    </g>
                    <g id="Group_112" transform="translate(279.876977, 106.783831)" fill="#000000">
                        <path d="M69.9453859,31.5294683 L17.1517714,31.5294683 C13.822587,31.5381702 10.7233335,29.8303173 8.94913333,27.00938 L2.1783495,15.2497405 C0.295208668,12.2544352 0.186504684,8.47093954 1.89455606,5.37217021 C3.60260744,2.27340088 6.85749413,0.349050322 10.3920873,0.348269097 L72.7905951,0.348269097 C76.1221005,0.333909495 79.2238499,2.04671238 80.9895333,4.87576736 L87.764017,16.6354069 C89.5320114,19.386854 89.7680374,22.8538135 88.3892971,25.8200781 C88.3161228,25.9951163 88.175479,26.1331588 87.9992504,26.2029105 C87.8230217,26.2726623 87.6261355,26.2682151 87.453227,26.1905771 C87.1005504,26.0261869 86.9455101,25.6083215 87.1054381,25.2532145 C88.2870596,22.7104343 88.0802209,19.7379217 86.5578555,17.3838149 L79.7833718,5.62417542 C78.2689109,3.2223656 75.6271963,1.76951598 72.7905951,1.77839539 L10.3772877,1.77839539 C7.35234143,1.77975423 4.56773671,3.42918148 3.10975137,6.08323351 C1.65176603,8.73728554 1.75137147,11.9755122 3.36971146,14.5346773 L10.1404953,26.2943168 C11.6580337,28.6942371 14.3003208,30.1452339 17.1369719,30.1363919 L69.9453859,30.1363919 C70.3148765,30.1632169 70.6009635,30.4712206 70.6009635,30.8421925 C70.6009635,31.2131645 70.3148765,31.5211682 69.9453859,31.5479932 L69.9453859,31.5294683 Z" id="Path_154"></path>
                    </g>
                    <g id="Group_116" transform="translate(342.741652, 125.729350)" fill="#000000">
                        <g id="Group_113">
                            <path d="M30.9537786,41.5966836 C30.8515882,41.5972888 30.7506072,41.5745213 30.6585237,41.5301144 C28.9688922,40.9138895 27.2433786,40.4013447 25.4915641,39.9953257 C20.3406942,38.6826616 15.8220017,35.5805569 12.740246,31.2414829 L11.7843585,30.1135056 C10.9999146,29.2424875 10.1695553,28.4141218 9.29683656,27.6319558 C7.16731107,25.6459762 5.15219684,23.7709452 5.17065026,21.5408788 C5.25089278,20.210688 5.90414459,18.9811252 6.96063269,18.1717403 C7.78208233,17.4508271 8.85236463,17.0805007 9.9427065,17.1399185 C13.1864917,17.947959 16.0630627,19.8296601 18.1065026,22.4802434 C19.1013197,23.6305759 20.176812,24.708283 21.3247803,25.7051488 C20.1474517,24.181455 17.7448155,21.7627759 16.0065026,20.0134867 L14.4859402,18.4823963 C12.0932508,16.2969741 9.57032979,14.2591663 6.93110721,12.3802245 C4.90140576,10.9733821 2.97711535,9.41965494 1.17363796,7.731479 C0.16956282,6.24657543 0.213997985,4.28740174 1.28435852,2.84974153 C2.24143964,1.03162378 4.2692971,0.0508488926 6.28523726,0.431062511 C10.0742537,1.94962077 13.521457,4.21308798 16.4235501,7.08797724 C16.7926186,7.40972812 17.0952548,7.67600471 17.3203866,7.86091901 C18.2538536,6.89016874 19.4715566,6.2424985 20.7970123,6.01177603 C23.2739436,5.36910059 25.9029281,5.71098933 28.1340949,6.96593381 C29.2922189,6.23153461 30.6785738,5.94737802 32.0314587,6.16710404 C33.1898296,6.40182213 34.3240214,6.74352323 35.4195079,7.18783096 C35.7574299,7.35414842 35.9052858,7.75719805 35.7553167,8.10323286 C35.6053475,8.44926767 35.2104914,8.61613982 34.8585237,8.48223105 C33.8632373,8.08207738 32.8344028,7.77143001 31.7841828,7.55396128 C30.6385572,7.40271687 29.4789148,7.70084328 28.5474517,8.38607562 C28.2641416,8.60634859 27.861911,8.58263923 27.6063269,8.33060133 C25.6595926,7.06766241 23.2569872,6.72681779 21.0369069,7.39863326 C20.0189582,7.56967809 19.0831935,8.06511139 18.3685413,8.8113785 C17.9994728,9.1553191 17.4384886,9.67307913 16.8184534,9.25517282 C16.6043937,9.11463795 16.1356766,8.71152478 15.5008787,8.14568703 C12.7512267,5.43862559 9.5104543,3.28328526 5.95307557,1.79573003 C4.53319277,1.55407607 3.12361339,2.27611173 2.48752197,3.57090729 C1.77174451,4.50007965 1.67182747,5.76539988 2.23286467,6.79581265 C3.97575523,8.39907954 5.82535885,9.88180967 7.76889279,11.2337558 C10.4674321,13.1517028 13.0447783,15.2353648 15.486116,17.4727642 L16.9956063,19.0001563 C20.8855888,22.9129429 23.2697715,25.3796996 23.4247803,26.6925911 C23.5330687,27.147892 23.3124497,27.6176729 22.8933216,27.8242666 C22.5574692,27.9795946 21.5130053,28.4529752 17.0509666,23.3863235 C15.2916742,20.9744795 12.7477776,19.2532572 9.85782074,18.5193792 C9.14002442,18.4554382 8.42892282,18.7001307 7.90175747,19.1924672 C7.14760257,19.7470362 6.66449294,20.5969087 6.57311072,21.5297839 C6.57311072,23.13484 8.35202109,24.8064653 10.2637961,26.574246 C11.1710039,27.3897689 12.033429,28.2539701 12.8472759,29.1630462 L13.8142355,30.3021182 C16.706623,34.4175041 20.9731096,37.3599519 25.8421793,38.5973736 C27.6821988,39.0171328 29.4921991,39.5595214 31.2601054,40.2209212 C31.5623076,40.3583523 31.7269867,40.6892475 31.6547111,41.013816 C31.5824356,41.3383845 31.292999,41.5677395 30.9611599,41.563399 L30.9537786,41.5966836 Z" id="Path_155"></path>
                        </g>
                        <g id="Group_114" transform="translate(16.239016, 7.396572)">
                            <path d="M10.1899824,10.7270906 C9.95389075,10.7285732 9.73307424,10.6102835 9.60316344,10.4127363 C6.91529016,7.21470148 3.87166034,4.33479389 0.531458699,1.82901461 C0.308732076,1.68556542 0.185624716,1.42864059 0.213181967,1.16477166 C0.240739217,0.900902726 0.41426205,0.675084306 0.661800798,0.580949956 C0.909339547,0.486815606 1.1886842,0.540417004 1.38400703,0.719528816 C4.85496714,3.31145512 8.00780046,6.30567707 10.7768014,9.63979456 C10.9303336,9.85633623 10.948885,10.1411245 10.8247476,10.3758285 C10.7006101,10.6105325 10.455005,10.7550295 10.1899824,10.7492803 L10.1899824,10.7270906 Z" id="Path_156"></path>
                        </g>
                        <g id="Group_115" transform="translate(27.311072, 6.669040)">
                            <path d="M7.38137083,7.56772375 C7.18597444,7.56830686 6.99900961,7.48801406 6.86467487,7.34582659 C4.85270787,5.30634585 2.68322886,3.42918359 0.376449912,1.7318285 C0.0625502845,1.50306772 -0.00684951346,1.0626305 0.221441125,0.748084434 C0.449731763,0.433538366 0.889263817,0.363995647 1.20316344,0.592756424 C3.58751136,2.33855167 5.82649865,4.27541762 7.89806678,6.38427224 C8.16067721,6.66970319 8.14419432,7.11400619 7.86115993,7.37911116 C7.7321775,7.50271606 7.55982077,7.57047218 7.38137083,7.56772375 Z" id="Path_157"></path>
                        </g>
                    </g>
                    <g id="Group_117" transform="translate(142.952548, 313.462214)" fill="#000000">
                        <path d="M345.714722,3.05352958 L1.08660611,3.05352958 C0.698205005,3.05352958 0.383343698,2.74749575 0.383343698,2.36998389 C0.383343698,1.99247203 0.698205005,1.6864382 1.08660611,1.6864382 L345.714722,1.6864382 C346.103123,1.6864382 346.417984,1.99247203 346.417984,2.36998389 C346.417984,2.74749575 346.103123,3.05352958 345.714722,3.05352958 Z" id="Path_158"></path>
                    </g>
                    <g id="Group_118" transform="translate(296.239016, 113.673111)" fill="#000000">
                        <path d="M53.5003752,2.81312244 L1.04244108,2.81312244 C0.651624472,2.81312244 0.334805016,2.50708861 0.334805016,2.12957674 C0.334805016,1.75206488 0.651624472,1.44603105 1.04244108,1.44603105 L53.5003752,1.44603105 C53.8911918,1.44603105 54.2080113,1.75206488 54.2080113,2.12957674 C54.2080113,2.50708861 53.8911918,2.81312244 53.5003752,2.81312244 Z" id="Path_159"></path>
                    </g>
                    <g id="Group_119" transform="translate(301.405975, 123.145870)" fill="#000000">
                        <path d="M53.6878791,2.73777094 L1.14362039,2.73777094 C0.753243395,2.73777094 0.436780316,2.43254035 0.436780316,2.05601933 C0.436780316,1.67949831 0.753243395,1.37426772 1.14362039,1.37426772 L53.6878791,1.37426772 C54.0782561,1.37426772 54.3947192,1.67949831 54.3947192,2.05601933 C54.3947192,2.43254035 54.0782561,2.73777094 53.6878791,2.73777094 Z" id="Path_160"></path>
                    </g>
                    <g id="Group_120" transform="translate(175.676626, 171.370826)" fill="#000000">
                        <path d="M53.7196157,2.55477446 L1.17163679,2.55477446 C0.78023249,2.55477446 0.462936614,2.24874063 0.462936614,1.87122876 C0.462936614,1.4937169 0.78023249,1.18768307 1.17163679,1.18768307 L53.7196157,1.18768307 C54.11102,1.18768307 54.4283159,1.4937169 54.4283159,1.87122876 C54.4283159,2.24874063 54.11102,2.55477446 53.7196157,2.55477446 Z" id="Path_161"></path>
                    </g>
                    <g id="Group_121" transform="translate(180.843585, 180.843585)" fill="#000000">
                        <path d="M53.8198318,2.38024605 L1.27185284,2.38024605 C1.00640212,2.39806562 0.752452969,2.27703659 0.613858062,2.06665385 C0.475263155,1.85627111 0.475263155,1.59181325 0.613858062,1.38143051 C0.752452969,1.17104777 1.00640212,1.05001873 1.27185284,1.06783831 L53.8198318,1.06783831 C54.1913525,1.09277832 54.4790114,1.37913856 54.4790114,1.72404218 C54.4790114,2.0689458 54.1913525,2.35530603 53.8198318,2.38024605 Z" id="Path_162"></path>
                    </g>
                    <g id="Group_122" transform="translate(200.650264, 212.706503)" fill="#000000">
                        <path d="M53.7924737,3.06070592 L1.20124538,3.06070592 C0.809518939,3.06070592 0.491961914,2.75467209 0.491961914,2.37716022 C0.491961914,1.99964836 0.809518939,1.69361453 1.20124538,1.69361453 L53.7924737,1.69361453 C54.1842001,1.69361453 54.5017571,1.99964836 54.5017571,2.37716022 C54.5017571,2.75467209 54.1842001,3.06070592 53.7924737,3.06070592 Z" id="Path_163"></path>
                    </g>
                    <g id="Group_123" transform="translate(205.817223, 222.179262)" fill="#000000">
                        <path d="M53.8478482,2.98535442 L1.29986924,2.98535442 C0.908464945,2.98535442 0.591169069,2.67932059 0.591169069,2.30180873 C0.591169069,1.92429687 0.908464945,1.61826303 1.29986924,1.61826303 L53.8478482,1.61826303 C54.2392525,1.61826303 54.5565483,1.92429687 54.5565483,2.30180873 C54.5565483,2.67932059 54.2392525,2.98535442 53.8478482,2.98535442 Z" id="Path_164"></path>
                    </g>
                    <g id="Group_125" transform="translate(154.147627, 90.421793)" fill="#000000">
                        <path d="M45.764854,3.10735208 L1.22125313,3.10735208 C0.833141892,3.10735208 0.518515572,2.80131825 0.518515572,2.42380639 C0.518515572,2.04629452 0.833141892,1.74026069 1.22125313,1.74026069 L45.764854,1.74026069 C46.1529652,1.74026069 46.4675915,2.04629452 46.4675915,2.42380639 C46.4675915,2.80131825 46.1529652,3.10735208 45.764854,3.10735208 Z" id="Path_166"></path>
                    </g>
                    <g id="Group_126" transform="translate(163.620387, 105.061511)" fill="#000000">
                        <path d="M45.5801849,2.8705331 L1.05133965,2.8705331 C0.664247078,2.8705331 0.350446549,2.56530251 0.350446549,2.18878149 C0.350446549,1.81226047 0.664247078,1.50702988 1.05133965,1.50702988 L45.5801849,1.50702988 C45.9672774,1.50702988 46.281078,1.81226047 46.281078,2.18878149 C46.281078,2.56530251 45.9672774,2.8705331 45.5801849,2.8705331 Z" id="Path_167"></path>
                    </g>
                    <g id="Group_127" transform="translate(172.231986, 119.701230)" fill="#000000">
                        <path d="M45.6763201,2.66241945 L1.12903035,2.66241945 C0.740919116,2.66241945 0.426292796,2.35638562 0.426292796,1.97887376 C0.426292796,1.60136189 0.740919116,1.29532806 1.12903035,1.29532806 L45.6578756,1.29532806 C46.0459868,1.29532806 46.3606131,1.60136189 46.3606131,1.97887376 C46.3606131,2.35638562 46.0459868,2.66241945 45.6578756,2.66241945 L45.6763201,2.66241945 Z" id="Path_168"></path>
                    </g>
                    <g id="Group_128" transform="translate(386.660808, 136.063269)" fill="#000000">
                        <path d="M15.5267135,32.6149971 C14.4903279,32.609503 13.4560669,32.5219569 12.4339192,32.3532045 C6.31845343,31.3387581 -0.114411248,26.5355907 0.1771529,16.1475142 C0.334024862,9.57429865 4.06721833,3.59217671 9.95008787,0.487225151 C10.2987604,0.345560451 10.6988451,0.499374745 10.8579616,0.836261176 C11.0170782,1.17314761 10.8788476,1.5737387 10.5442882,1.74528412 C5.09611918,4.57547154 1.65726658,10.1164012 1.58330404,16.1838742 C1.25114236,28.1608865 9.98330404,30.5388362 12.6553603,30.9824292 C20.7748682,32.3350244 23.8455185,27.7100215 23.9673111,27.502769 C24.179176,27.19566 24.5987734,27.1070744 24.9197713,27.3016851 C25.2407692,27.4962958 25.3495882,27.9052433 25.1667838,28.2299707 C22.9141527,31.205201 19.2863719,32.8553876 15.5267135,32.6149971 Z" id="Path_169"></path>
                    </g>
                    <g id="Group_129" transform="translate(381.493849, 86.115993)" fill="#000000">
                        <path d="M42.3939272,86.4796838 C36.6272484,86.7225254 30.9718478,84.8435542 26.5003452,81.1991413 C26.2535434,80.9225453 26.2637076,80.502253 26.5235922,80.237876 C26.7834769,79.973499 27.2041033,79.9555539 27.4856218,80.1968331 C31.8015305,83.7039389 37.2887394,85.4461431 42.8404383,85.0720304 C47.6248767,85.2793131 52.3013558,83.6133925 55.8741349,80.4289854 C59.2961537,76.148828 60.8875865,70.6926352 60.3023445,65.246965 C60.2209532,61.9100317 59.4098527,58.6312291 57.925872,55.6402836 C56.658038,53.5522654 54.9614069,51.7563042 52.9478265,50.3707959 C51.7407215,49.4484448 50.6001012,48.4424243 49.534415,47.3601866 C48.6267458,46.5333925 48.0356925,45.4168 47.8627659,44.2021789 C47.9824965,42.493629 48.5389861,40.844283 49.4790624,39.4117356 C49.6266694,39.1353639 49.7742763,38.866362 49.8997423,38.6231549 L50.4385078,37.5655724 C51.1873507,36.1812268 51.8563628,34.755281 52.4422726,33.2947079 C53.9956337,29.5363175 54.4796095,25.4226018 53.8408487,21.4070386 C52.3647789,13.174846 37.1760203,9.77731615 37.021033,9.74415155 C36.904221,9.71803318 36.7961641,9.66217695 36.7073681,9.58201347 C29.4783161,3.17018932 16.7804253,-0.603206046 8.04947224,4.19092224 C3.02294515,7.25889219 0.542149311,13.2067621 1.90164137,18.9307479 C1.90164137,19.5240259 1.95330381,29.4512984 17.4003747,35.3066941 C17.7480245,35.4546722 17.9169325,35.8501169 17.7832615,36.2031025 C17.6495905,36.5560882 17.2609165,36.7409807 16.9022011,36.6222236 C0.455092927,30.3946473 0.491994673,19.5350807 0.503065197,19.0744612 C0.480924149,19.0744612 -1.91768934,8.08223621 7.35940959,2.97857158 C16.5848461,-2.08824348 29.8694746,1.76253597 37.4933753,8.43230707 C39.367984,8.86344697 53.634199,12.4378547 55.2062133,21.1748863 C55.8867639,25.4422058 55.3760298,29.8142823 53.7301435,33.8106018 C53.1237997,35.3216413 52.4339053,36.797896 51.6636457,38.2325495 L51.1248802,39.2827621 C50.992034,39.5407091 50.844427,39.8133958 50.6894396,40.1045074 C49.8866142,41.31953 49.3891319,42.7100052 49.239201,44.1579594 C49.4001015,45.0389387 49.8538448,45.8399811 50.527072,46.4315775 C51.551264,47.4639273 52.6435394,48.4266265 53.7965666,49.3132135 C55.962732,50.816147 57.7841279,52.7618326 59.1399395,55.0212109 C60.7218784,58.1939879 61.5884764,61.6743453 61.6787796,65.2174853 C62.2445065,71.0386904 60.524559,76.8518194 56.8815526,81.4312935 C53.0549528,84.8953426 48.0197466,86.7213318 42.8588892,86.5165333 L42.3939272,86.4796838 Z" id="Path_170"></path>
                    </g>
                    <path d="M182.01976,68.236458 C180.467553,69.5689863 177.733076,68.8081048 175.917718,66.5372872 C175.233789,64.6250097 176.048526,62.4867876 177.810304,61.570324 C179.572082,60.6538604 181.718702,61.2516069 182.796776,62.9588536 C183.874849,64.6661003 183.540352,66.93805 182.01976,68.236458 Z" id="Path_171" fill="#8BA266"></path>
                    <g id="Group_131" transform="translate(270.404218, 122.284710)" fill="#000000">
                        <path d="M6.39226714,11.1017868 C4.5593959,10.9989154 2.86111151,10.0960817 1.73831283,8.62767428 C0.824003659,7.55241604 0.256161551,6.22054088 0.110720562,4.81015231 C-0.0961752552,3.54817728 0.374576406,2.26994845 1.34741641,1.45216036 C2.32025642,0.634372262 3.6491426,0.399790781 4.83848858,0.835899238 C7.56602739,1.70036794 9.53902156,4.10127749 9.87996485,6.97080258 C10.0438482,8.22906445 9.57919639,9.48749641 8.63989455,10.3293263 C8.00414477,10.8466166 7.20810211,11.1201991 6.39226714,11.1017868 Z M3.60949033,2.0897481 C3.11783029,2.07478555 2.63676631,2.23604075 2.2513181,2.54501465 C1.67144444,3.0956884 1.39560426,3.89893501 1.51318102,4.69446983 C1.6322343,5.81283845 2.08685253,6.86760425 2.81599297,7.71714118 C4.29226714,9.5270123 6.56203866,10.2173755 7.73567663,9.23220855 C8.31555029,8.6815348 8.59139047,7.87828819 8.47381371,7.08275337 C8.18248272,4.81478726 6.62717581,2.91838833 4.47680141,2.20916227 C4.1937968,2.13272726 3.90240367,2.09260731 3.60949033,2.0897481 Z" id="Path_173"></path>
                    </g>
                    <g id="Group_132" transform="translate(73.198594, 114.534271)" fill="#000000">
                        <path d="M6.6026362,10.989836 C6.18496506,10.9860378 5.76948138,10.9283524 5.36625659,10.8181781 C4.0223282,10.4153918 2.83155778,9.60838562 1.95237258,8.50452841 C-0.0418839914,6.5965174 -0.212089089,3.44469723 1.56485062,1.32848272 C3.94138928,-0.0966201847 7.00858243,0.659221888 8.47012302,3.03013474 C9.3845138,4.10496313 9.95124906,5.43726327 10.0940246,6.84765671 C10.2559153,8.10568877 9.79160207,9.36320379 8.85395431,10.2061804 C8.21844234,10.7277527 7.42100795,11.0053296 6.6026362,10.989836 Z M3.8198594,1.97033392 C3.33088902,1.95414495 2.85214066,2.11417828 2.46906854,2.42186878 C1.28804921,3.41076743 1.54639719,5.7803925 3.03374341,7.59026362 C3.72327384,8.47474625 4.66312683,9.12563378 5.72794376,9.45611013 C6.47266656,9.76506728 7.3252784,9.63261924 7.94392862,9.11187041 C8.56257884,8.59112159 8.84597551,7.76733447 8.68049209,6.97080258 C8.56302946,5.85312148 8.10816421,4.79908546 7.37768014,3.95186292 C6.52362837,2.81073139 5.23019064,2.09035098 3.8198594,1.97033392 Z" id="Path_174"></path>
                    </g>
                    <g id="Group_133" transform="translate(0.000000, 110.228471)" fill="#000000">
                        <path d="M14.6222178,24.56598 C10.3983202,24.3007228 6.49379394,22.1901162 3.91466636,18.7779722 C1.78992906,16.2689127 0.471681542,13.1583248 0.137230002,9.86458699 C-0.344562807,7.07034514 0.682494475,4.22775472 2.82865614,2.41551643 C4.9748178,0.603278151 7.91114819,0.0991482457 10.5233743,1.09443296 C13.6441099,2.0356139 16.4066177,3.92605178 18.4393786,6.51150884 C23.0438063,12.1526129 23.5277227,19.4904554 19.5227734,22.8729143 C18.136221,24.0064477 16.4008004,24.6060085 14.6222178,24.56598 Z M7.76071773,2.10439626 C6.2961898,2.06546749 4.86555675,2.55607617 3.72326663,3.48896413 C2.0180226,5.08168353 1.19512964,7.427354 1.52397528,9.75808177 C1.83645718,12.7607966 3.0449818,15.5943609 4.98722717,17.8781867 C9.10773853,22.9280032 15.2469755,24.683503 18.6596689,21.7968443 C22.0723624,18.9101856 21.5126084,12.4537656 17.3957084,7.40762173 C15.5410652,5.04445255 13.0212124,3.31340915 10.1730767,2.44594748 C9.38228173,2.2247987 8.56640355,2.10997107 7.74627246,2.10439626 L7.76071773,2.10439626 Z" id="Path_175"></path>
                    </g>
                    <g id="Group_134" transform="translate(200.650264, 0.000000)" fill="#000000">
                        <path d="M15.2586775,23.9882622 C11.0083656,23.7244773 7.07922048,21.6249891 4.48314477,18.2304948 C-0.145320738,12.6152101 -0.635778229,5.31205198 3.39323924,1.95091868 C7.4222567,-1.41021462 14.4666795,0.412834851 19.098778,6.02811951 C23.7308765,11.6434042 24.221334,18.9429089 20.1886835,22.3040422 C18.7925846,23.4294289 17.0475641,24.0255739 15.2586775,23.9882622 Z M8.35594244,1.64037919 C6.87694538,1.60150695 5.43230671,2.09222936 4.27969574,3.02501997 C0.839227263,5.8965969 1.40961116,12.3156308 5.54761918,17.3354103 C9.6856272,22.3551899 15.8690246,24.094211 19.3094931,21.2335943 C22.7499616,18.3729776 22.1795777,11.93933 18.0343036,6.91589711 C15.7102953,3.84243349 12.1853253,1.92102945 8.35594244,1.64037919 Z" id="Path_176"></path>
                    </g>
                    <g id="Group_135" transform="translate(121.423550, 257.486819)" fill="#000000">
                        <path d="M7.02677797,10.9674458 C6.88870533,10.9674458 6.75063269,10.9674458 6.60882835,10.9674458 C4.91724719,10.7283231 3.3836009,9.84450425 2.32857645,8.50079672 C1.40341434,7.4245197 0.829218639,6.09123989 0.682899824,4.67954306 C0.516520676,3.42120456 0.986450174,2.16246483 1.93674868,1.32101933 C4.34313562,-0.0724862175 7.42021706,0.677860915 8.91501465,3.02267135 C10.0417197,4.30712011 10.6298197,5.97652219 10.5569596,7.68355595 C10.4943692,8.65459514 10.0438566,9.5596549 9.30684241,10.1949854 C8.66126888,10.7125171 7.8539777,10.9860184 7.02677797,10.9674458 Z M4.21681312,1.95167545 C3.72070284,1.93523853 3.23460587,2.09374841 2.84355009,2.39947862 C2.25833771,2.95086813 1.97963859,3.75352162 2.09721148,4.5489338 C2.2183256,5.66599277 2.67795043,6.71935393 3.41449912,7.56787346 C4.22969823,8.62111108 5.41637515,9.32323939 6.73197422,9.530744 C7.32131643,9.60853748 7.91740385,9.44877531 8.38884593,9.08667252 C8.83178918,8.6888299 9.09996859,8.13235764 9.13518453,7.53801992 C9.17316589,6.20769842 8.70201388,4.91303143 7.8178969,3.91827768 C6.95127482,2.78110447 5.64198257,2.06608166 4.21681312,1.95167545 Z" id="Path_177"></path>
                    </g>
                    <g id="Group_136" transform="translate(243.708260, 175.676626)" fill="#000000">
                        <path d="M7.05663152,10.6577153 C5.207759,10.5463576 3.49919429,9.63485055 2.37708846,8.16121265 C1.45429818,7.08566282 0.88264499,5.7535416 0.73887522,4.34369069 C0.571580775,3.08600083 1.040069,1.82737574 1.98899238,0.98516696 C4.39065837,-0.442735966 7.49323997,0.311766774 8.97099004,2.68308729 C9.89472079,3.75842758 10.4676375,5.09045895 10.612935,6.50060926 C10.7802294,7.75829912 10.3117412,9.0169242 9.36281781,9.85913298 C8.71299265,10.3901703 7.89569897,10.6731814 7.05663152,10.6577153 Z M4.26905682,1.63074985 C3.77366474,1.61561529 3.28877525,1.77548349 2.89952548,2.08228471 C2.31314001,2.63447898 2.03433617,3.43882804 2.15318688,4.23547159 C2.27304735,5.35104645 2.73142252,6.40322581 3.46674282,7.25067955 C4.95942004,9.06801406 7.26187463,9.75464558 8.44482132,8.76574692 C9.03169309,8.21543341 9.31070197,7.41188783 9.19115993,6.61629174 C9.06815153,5.50085117 8.60871587,4.44922507 7.87387229,3.60108377 C7.00585818,2.4630479 5.69562082,1.74689332 4.26905682,1.63074985 Z" id="Path_178"></path>
                    </g>
                    <g id="Group_138" transform="translate(235.957821, 127.451670)" fill="#000000">
                        <path d="M8.84273462,48.1329946 C8.60988254,48.133639 8.39195945,48.0183501 8.26136555,47.82543 C6.7217234,45.5404632 5.38242424,43.126538 4.25843585,40.6106322 C4.12507579,40.2601222 4.28810318,39.866364 4.6301045,39.712945 C4.97210581,39.559526 5.37432269,39.6997203 5.54707557,40.032559 C6.63784269,42.4720879 7.93490249,44.8138956 9.42410369,47.0324322 C9.58029621,47.2477057 9.60112218,47.5329484 9.4778563,47.7686543 C9.35459042,48.0043602 9.10851816,48.1498277 8.84273462,48.1441114 L8.84273462,48.1329946 Z M2.20327768,33.3587783 C1.88293932,33.3590535 1.60285544,33.1427495 1.52192794,32.8325835 C0.829016882,30.1674467 0.368123459,27.447251 0.14441652,24.7025031 C0.11445823,24.3145466 0.401502765,23.9744728 0.78873638,23.93915 C0.976741145,23.9196041 1.16455928,23.9778153 1.30861301,24.1002772 C1.45266673,24.2227392 1.54043432,24.3988072 1.55155185,24.5876295 C1.76730725,27.2512323 2.21459184,29.8909552 2.8883304,32.4768461 C2.98441786,32.8542834 2.75770181,33.2384819 2.38102109,33.3365447 C2.32890842,33.3497161 2.27551776,33.3571712 2.22179262,33.3587783 L2.20327768,33.3587783 Z M1.0220246,17.2505469 C0.813231339,17.2393593 0.618892772,17.140371 0.486987569,16.9780203 C0.355082366,16.8156696 0.297902959,16.6050863 0.329565905,16.3982596 C0.948668916,13.5969844 2.43029855,11.0606273 4.56578383,9.14640571 C4.85305441,8.88676681 5.29467363,8.90319545 5.56188752,9.18346168 C5.68985407,9.31992473 5.75826624,9.50175448 5.75201302,9.68878798 C5.7457598,9.87582148 5.66535573,10.0526687 5.52856063,10.1802673 C3.60658506,11.8973277 2.2713013,14.1744828 1.71078032,16.6910018 C1.64373402,17.0179069 1.3555054,17.2520639 1.0220246,17.2505469 Z M11.9273234,6.13375513 C11.5891068,6.13813216 11.2956438,5.90104875 11.2286119,5.56927882 C11.1615799,5.23750888 11.3399524,4.9049598 11.6533023,4.77750652 C14.2057625,3.73096615 16.8466371,2.91495486 19.5443691,2.33922352 C19.9216661,2.26491116 20.2891654,2.50587114 20.3717297,2.88170302 C20.4542941,3.2575349 20.2216687,3.63051875 19.8480141,3.7214113 C17.2334713,4.2768844 14.6742413,5.06689815 12.2013445,6.08187676 C12.1135823,6.11340737 12.0204558,6.12726025 11.9273234,6.12263833 L11.9273234,6.13375513 Z M27.7353779,2.46891942 C27.3468082,2.48938478 27.0152315,2.19075537 26.9947805,1.80191191 C26.9743294,1.41306844 27.2727485,1.08125799 27.6613181,1.06079246 C31.4161476,0.690232732 34.3600228,0.634648772 35.4375923,0.634648772 L35.8597329,0.634648772 C36.2493251,0.634648772 36.565152,0.950698257 36.565152,1.34056505 C36.565152,1.73043185 36.2493251,2.04648133 35.8597329,2.04648133 L35.4375923,2.04648133 C34.3674288,2.04648133 31.4790984,2.0909485 27.7909227,2.46521383 L27.7353779,2.46891942 Z" id="Path_180"></path>
                    </g>
                    <g id="Group_139" transform="translate(19.806678, 119.701230)" fill="#000000">
                        <path d="M50.6536696,2.33374341 L42.563909,2.33374341 C42.1759757,2.33374341 41.8614936,1.96650281 41.8614936,1.51348858 C41.8614936,1.06047434 42.1759757,0.693233743 42.563909,0.693233743 L50.6536696,0.693233743 C51.041603,0.693233743 51.3560851,1.06047434 51.3560851,1.51348858 C51.3560851,1.96650281 51.041603,2.33374341 50.6536696,2.33374341 Z M34.4741484,2.33374341 L26.3622644,2.33374341 C25.9743311,2.33374341 25.659849,1.96650281 25.659849,1.51348858 C25.659849,1.06047434 25.9743311,0.693233743 26.3622644,0.693233743 L34.4741484,0.693233743 C34.8620817,0.693233743 35.1765638,1.06047434 35.1765638,1.51348858 C35.1765638,1.96650281 34.8620817,2.33374341 34.4741484,2.33374341 Z M18.2872527,2.33374341 L10.197492,2.33374341 C9.8095587,2.33374341 9.49507661,1.96650281 9.49507661,1.51348858 C9.49507661,1.06047434 9.8095587,0.693233743 10.197492,0.693233743 L18.2872527,0.693233743 C18.675186,0.693233743 18.9896681,1.06047434 18.9896681,1.51348858 C18.9896681,1.96650281 18.675186,2.33374341 18.2872527,2.33374341 Z M2.10773138,2.33374341 L1.37028738,2.33374341 C0.982354066,2.33374341 0.667871977,1.96650281 0.667871977,1.51348858 C0.667871977,1.06047434 0.982354066,0.693233743 1.37028738,0.693233743 L2.10773138,0.693233743 C2.4956647,0.693233743 2.81014679,1.06047434 2.81014679,1.51348858 C2.81014679,1.96650281 2.4956647,2.33374341 2.10773138,2.33374341 Z" id="Path_181"></path>
                    </g>
                    <g id="Group_140" transform="translate(95.588752, 261.792619)" fill="#000000">
                        <path d="M22.9653086,2.28207381 L14.9497364,2.28207381 C14.5653607,2.28207381 14.2537626,1.91483322 14.2537626,1.46181898 C14.2537626,1.00880475 14.5653607,0.641564148 14.9497364,0.641564148 L22.9653086,0.641564148 C23.3496843,0.641564148 23.6612824,1.00880475 23.6612824,1.46181898 C23.6612824,1.91483322 23.3496843,2.28207381 22.9653086,2.28207381 Z M6.93051073,2.28207381 L0.719720935,2.28207381 C0.33534522,2.28207381 0.0237471375,1.91483322 0.0237471375,1.46181898 C0.0237471375,1.00880475 0.33534522,0.641564148 0.719720935,0.641564148 L6.93051073,0.641564148 C7.31488645,0.641564148 7.62648453,1.00880475 7.62648453,1.46181898 C7.62648453,1.91483322 7.31488645,2.28207381 6.93051073,2.28207381 Z" id="Path_182"></path>
                    </g>
                    <g id="Group_141" transform="translate(14.639719, 135.202109)" fill="#000000">
                        <path d="M81.8834453,128.907614 C81.6423661,128.907002 81.4183389,128.783127 81.2895955,128.579246 L78.6080501,124.343669 C78.5081917,124.186412 78.4753935,123.995725 78.516969,123.814129 C78.5585445,123.632532 78.6710365,123.475127 78.8293606,123.377013 C79.157488,123.170055 79.5911369,123.267365 79.7994382,123.594695 L82.4772951,127.830272 C82.5784957,127.986798 82.6124534,128.17748 82.5715131,128.359333 C82.5305728,128.541186 82.4181805,128.698902 82.2596731,128.796928 C82.1471803,128.868512 82.0167705,128.906879 81.8834453,128.907614 Z M74.87528,117.839033 C74.6340204,117.839119 74.4096787,117.71507 74.2814302,117.510665 L69.9511218,110.670282 C69.8499212,110.513756 69.8159635,110.323074 69.8569038,110.141221 C69.8978441,109.959368 70.0102363,109.801651 70.1687438,109.703626 C70.4968712,109.496668 70.93052,109.593978 71.1388214,109.921308 L75.4691298,116.761691 C75.5689882,116.918947 75.6017865,117.109634 75.5602109,117.291231 C75.5186354,117.472827 75.4061435,117.630233 75.2478193,117.728347 C75.1371677,117.797112 75.0092305,117.832944 74.8789685,117.831654 L74.87528,117.839033 Z M66.2146632,104.158267 C65.9735841,104.157655 65.7495569,104.03378 65.6208134,103.829899 L61.290505,96.9858261 C61.1896315,96.8288483 61.1562467,96.6378357 61.1978918,96.4559351 C61.239537,96.2740346 61.3526987,96.1165915 61.5118155,96.01917 C61.8388081,95.8125609 62.271313,95.9099839 62.4782046,96.2368521 L66.808513,103.080925 C66.9087023,103.237731 66.9420742,103.428091 66.9012021,103.609641 C66.86033,103.791191 66.7486052,103.948867 66.590891,104.047581 C66.4786925,104.115909 66.3497065,104.151678 66.2183517,104.150888 L66.2146632,104.158267 Z M57.5540464,90.4738109 C57.3129672,90.4731997 57.0889401,90.3493243 56.9601966,90.145443 L52.6335767,83.3013704 C52.4768454,82.9765523 52.5905998,82.5857896 52.8971626,82.395915 C53.2037255,82.2060403 53.6041322,82.278349 53.8249648,82.563465 L58.1515847,89.4075376 C58.2504455,89.5650645 58.2826691,89.7554328 58.2411614,89.9367329 C58.1996538,90.1180331 58.0878178,90.2754016 57.9302742,90.3741937 C57.8194646,90.4382289 57.6930301,90.4701656 57.5651119,90.4664318 L57.5540464,90.4738109 Z M48.9008066,76.7893552 C48.659547,76.789442 48.4352053,76.6653928 48.3069568,76.4609873 L43.9766484,69.6169147 C43.8754477,69.460389 43.84149,69.2697067 43.8824303,69.0878538 C43.9233706,68.9060008 44.0357629,68.7482844 44.1942703,68.6502587 C44.5227637,68.4454383 44.9548031,68.5423865 45.1643479,68.8679407 L49.4946564,75.7120133 C49.5945148,75.8692698 49.627313,76.0599567 49.5857375,76.2415533 C49.544162,76.4231499 49.43167,76.5805551 49.2733459,76.6786694 C49.1619203,76.7448486 49.0340351,76.7781079 48.9044951,76.7745971 L48.9008066,76.7893552 Z M40.2401897,63.1085891 C39.9991106,63.1079779 39.7750834,62.9841025 39.64634,62.7802212 L35.3160315,55.9361486 C35.1444066,55.610643 35.2536276,55.2078033 35.5661504,55.0136362 C35.8786731,54.819469 36.2880928,54.9000826 36.5037311,55.1982432 L40.8340395,62.0423158 C40.9342288,62.1991226 40.9676007,62.3894824 40.9267287,62.5710323 C40.8858566,62.7525822 40.7741317,62.9102586 40.6164176,63.0089719 C40.4987932,63.0761291 40.3643836,63.1081402 40.2291242,63.10121 L40.2401897,63.1085891 Z M31.5832614,49.4241334 C31.3421823,49.4235222 31.1181551,49.2996469 30.9894116,49.0957655 L26.6591032,42.2516929 C26.5592448,42.0944365 26.5264466,41.9037496 26.5680221,41.722153 C26.6095976,41.5405564 26.7220896,41.3831512 26.8804137,41.2850369 C27.2092609,41.082315 27.6397304,41.1789108 27.8504913,41.5027189 L32.1807997,48.3467915 C32.2806581,48.504048 32.3134564,48.6947349 32.2718808,48.8763315 C32.2303053,49.0579281 32.1178134,49.2153333 31.9594892,49.3134476 C31.847693,49.3827005 31.7184357,49.4185441 31.5869499,49.4167544 L31.5832614,49.4241334 Z M22.9263331,35.7396778 C22.6850735,35.7397646 22.4607318,35.6157153 22.3324833,35.4113099 L18.0021749,28.5672373 C17.9009743,28.4107115 17.8670165,28.2200293 17.9079568,28.0381763 C17.9488972,27.8563234 18.0612894,27.6986069 18.2197969,27.6005812 C18.5482903,27.3957609 18.9803296,27.492709 19.1898745,27.8182633 L23.5201829,34.6623359 C23.6200413,34.8195923 23.6528395,35.0102792 23.611264,35.1918758 C23.5696885,35.3734724 23.4571965,35.5308776 23.2988724,35.628992 C23.1882208,35.6977572 23.0602836,35.7335895 22.9300216,35.7322987 L22.9263331,35.7396778 Z M14.2657163,22.0589116 C14.0246371,22.0583004 13.80061,21.9344251 13.6718665,21.7305437 L9.34524659,14.8864711 C9.17362161,14.5609655 9.28284267,14.1581258 9.59536543,13.9639587 C9.90788818,13.7697916 10.3173078,13.8504052 10.5329462,14.1485657 L14.8595661,20.9926383 C15.0661181,21.3197213 14.968722,21.7523456 14.6419441,21.9592944 C14.5286187,22.0237528 14.3997049,22.055671 14.2694048,22.0515326 L14.2657163,22.0589116 Z M5.60878797,8.37445596 C5.36734656,8.37525037 5.14268434,8.2510239 5.01493818,8.04608806 L0.684629765,1.20201546 C0.584771359,1.044759 0.551973123,0.854072099 0.593548646,0.672475496 C0.635124168,0.490878893 0.747616126,0.333473743 0.905940246,0.235359388 C1.23443362,0.0305390664 1.66647299,0.12748722 1.87601785,0.453041481 L6.20632627,7.29711408 C6.30618467,7.45437054 6.33898291,7.64505744 6.29740739,7.82665404 C6.25583186,8.00825065 6.14333991,8.1656558 5.98501579,8.26377015 C5.87321957,8.333023 5.74396222,8.36886662 5.61247648,8.36707691 L5.60878797,8.37445596 Z" id="Path_183"></path>
                    </g>
                    <g id="Group_142" transform="translate(167.926186, 223.901582)" fill="#000000">
                        <path d="M8.56222078,38.9293928 C5.96363231,39.0908765 3.4137223,38.1719346 1.51546942,36.3898699 C0.51549433,34.9301518 0.332305763,33.0601066 1.03000166,31.4340656 L13.372086,3.49184404 C14.2880227,2.03795386 15.741941,1.00551565 17.416406,0.619942364 C19.6176329,0.319874645 21.8421595,0.97490606 23.5295655,2.42001598 L30.5688481,8.76882332 C30.8398007,9.03721975 30.8517008,9.47128549 30.5958606,9.7541259 C30.3400204,10.0369663 29.9069643,10.0685033 29.61285,9.82571302 L22.6295829,3.53292456 C21.2695023,2.35875176 19.4755961,1.8159335 17.6927492,2.03908754 C16.4405528,2.3358505 15.3475419,3.09659992 14.6343022,4.16780529 L2.35943646,31.9681123 C1.84955746,33.1347727 1.95750017,34.4792311 2.64698276,35.5495866 C4.39040142,37.0301456 6.65906296,37.7415028 8.93565752,37.5214514 L49.6776063,37.5214514 C50.0705,37.5214514 50.3890033,37.8399739 50.3890033,38.2328913 C50.3890033,38.6258087 50.0705,38.9443312 49.6776063,38.9443312 L8.9730012,38.9443312 C8.94312626,38.9256582 8.79748593,38.9293928 8.56222078,38.9293928 Z" id="Path_184"></path>
                    </g>
                    <g id="Group_143" transform="translate(111.950791, 80.949033)" fill="#000000">
                        <path d="M30.8885049,48.8243583 C30.6459846,48.8251583 30.4203185,48.7000582 30.2920015,48.4936811 L0.533518617,1.34432114 C0.431691815,1.18611451 0.397489739,0.993525294 0.438591162,0.809792075 C0.479692584,0.626058855 0.592653577,0.46657682 0.75211305,0.367151588 C1.08303112,0.161585374 1.51725232,0.260927538 1.72652552,0.590080004 L31.4850084,47.73944 C31.5858251,47.8979278 31.6194423,48.0901951 31.5784086,48.2736255 C31.5373749,48.4570558 31.4250799,48.6164973 31.2664139,48.7166095 C31.1524067,48.7859714 31.0218476,48.8231962 30.8885049,48.8243583 Z" id="Path_185"></path>
                    </g>
                    <g id="Group_144" transform="translate(219.595782, 20.667838)" fill="#000000">
                        <path d="M42.2622661,21.9498184 C26.8391431,21.9498184 12.8090045,15.1394786 0.443017907,1.61582308 C0.314427365,1.47725802 0.246382344,1.29275918 0.254058665,1.10347463 C0.261734987,0.914190088 0.344494181,0.735863354 0.483878782,0.608265964 C0.774544325,0.346304875 1.22044126,0.366213575 1.48682753,0.65304628 C16.3453275,16.9008377 33.6146191,23.2372525 52.8675204,19.4682425 C53.2483231,19.4110858 53.6094911,19.6556704 53.6995964,20.0317282 C53.7721882,20.4189252 53.5199513,20.7923507 53.1349734,20.8676274 C49.5535654,21.5770913 45.9126254,21.9394842 42.2622661,21.9498184 Z" id="Path_186"></path>
                    </g>
                    <g id="Group_145" transform="translate(368.576450, 59.420035)" fill="#000000">
                        <path d="M9.78769772,16.0422352 C6.96946912,15.8743537 4.36178915,14.4839969 2.63884007,12.2306239 C1.22819976,10.5770262 0.353702272,8.52799472 0.132864675,6.35888321 C-0.184522789,4.47943468 0.516617925,2.57205516 1.97249539,1.35436145 C3.42837285,0.136667749 5.41812578,-0.206612097 7.19314587,0.453674708 C9.26595268,1.07678434 11.1015416,2.3205891 12.4560633,4.01985541 C15.5340949,7.73850056 15.8367311,12.6322376 13.127768,14.8968925 C12.1836678,15.6642694 11.0003847,16.0700287 9.78769772,16.0422352 Z M5.32565905,1.613892 C4.43543372,1.58970054 3.5656228,1.88490909 2.87135325,2.44686851 C1.82819114,3.41356833 1.3290386,4.83878018 1.53901582,6.2510425 C1.73562173,8.12636506 2.49672171,9.89625519 3.7202109,11.3232745 C6.30369069,14.4580923 10.1198594,15.5699672 12.2087873,13.8073294 C14.2977153,12.0446916 13.9360281,8.05830404 11.356239,4.92720483 C10.1871006,3.45183244 8.59985068,2.37008472 6.8056239,1.82585477 C6.32355757,1.69061644 5.82603281,1.6193602 5.32565905,1.613892 Z" id="Path_187"></path>
                    </g>
                    <g id="Group_146" transform="translate(318.629174, 37.891037)" fill="#000000">
                        <path d="M53.2045738,21.8231816 C53.0046274,21.8233129 52.8141092,21.7405552 52.6808117,21.5956687 C37.6774413,5.43141901 20.950485,-0.639202903 1.5007085,3.04433925 C1.12162811,3.10442452 0.762197015,2.86033064 0.68977539,2.49362505 C0.617353764,2.12691946 0.858241269,1.77076998 1.2332555,1.69009581 C21.1956502,-2.08372924 38.3795054,4.12051137 53.7320505,20.6711718 C53.9200649,20.8736118 53.9677191,21.1647485 53.8536269,21.4139259 C53.7395347,21.6631034 53.485126,21.8235189 53.2045738,21.8231816 Z" id="Path_188"></path>
                    </g>
                    <g id="Group_147" transform="translate(321.212654, 267.820738)" fill="#000000">
                        <path d="M0.930260325,15.2351494 C0.838036244,15.2362289 0.746543268,15.2186549 0.661261259,15.1834798 C0.30962825,15.028219 0.146030314,14.6202226 0.292769387,14.2644991 C4.30454643,5.24532498 13.4240387,-0.39077556 23.2719225,0.062741652 C32.9204831,-0.268973983 41.8553308,5.13390213 46.0557749,13.8400703 C46.159778,14.0694989 46.1336734,14.3370714 45.9872944,14.5419959 C45.8409155,14.7469205 45.5965006,14.8580641 45.3461186,14.8335601 C45.0957365,14.8090561 44.8774263,14.6526271 44.7734232,14.4231986 C40.8004169,6.22111051 32.3681669,1.14081649 23.2719225,1.46889279 C13.9956559,1.02228313 5.39314873,6.31225122 1.59354569,14.7996485 C1.48377457,15.0683351 1.22004756,15.2414934 0.930260325,15.2351494 Z" id="Path_189"></path>
                    </g>
                </g>
            </g>
        </g>
    </g>
</svg>