<?xml version="1.0" encoding="UTF-8"?>
<svg width="35px" height="25px" viewBox="0 0 35 25" version="1.1" xmlns="http://www.w3.org/2000/svg" xmlns:xlink="http://www.w3.org/1999/xlink">
    <!-- Generator: Sketch 52.6 (67491) - http://www.bohemiancoding.com/sketch -->
    <title>icon</title>
    <desc>Created with Sketch.</desc>
    <g id="Website" stroke="none" stroke-width="1" fill="none" fill-rule="evenodd">
        <g id="Translator's-Hub" transform="translate(-753.000000, -3759.000000)" fill="#61B0E8" fill-rule="nonzero">
            <g id="Financially" transform="translate(0.000000, 3335.000000)">
                <g id="features" transform="translate(150.000000, 384.000000)">
                    <g id="payout" transform="translate(585.000000, 0.000000)">
                        <g id="icon" transform="translate(18.000000, 40.000000)">
                            <path d="M34.6116878,2.11840629 C34.6116878,0.946969697 33.6555638,0 32.4728031,0 L2.13888474,0 C0.956123973,0 0,0.946969697 0,2.11840629 L0,22.8815937 C0,24.0530303 0.956123973,25 2.13888474,25 L32.5436271,25 C33.7263878,25 34.6825118,24.0530303 34.6116878,22.8044332 L34.6116878,2.11840629 Z M33.2093727,9.28731762 L1.48022156,9.28731762 L1.48022156,7.16891134 L33.2093727,7.16891134 L33.2093727,9.28731762 Z M1.40231516,2.19556678 C1.40231516,1.75364759 1.77059995,1.46604938 2.13888474,1.46604938 L2.13888474,1.39590348 L32.4728031,1.39590348 C32.9189943,1.39590348 33.2093727,1.76066218 33.2093727,2.12542088 L33.2093727,5.78002245 L1.40231516,5.78002245 L1.40231516,2.19556678 Z M33.2093727,22.8815937 C33.2093727,23.3235129 32.8410879,23.6111111 32.4728031,23.6111111 L2.13888474,23.6111111 C1.69269355,23.6111111 1.40231516,23.2463524 1.40231516,22.8815937 L1.40231516,10.7463524 L33.2093727,10.7463524 L33.2093727,22.8815937 Z" id="Shape"></path>
                        </g>
                    </g>
                </g>
            </g>
        </g>
    </g>
</svg>