<?xml version="1.0" encoding="utf-8"?>
<!-- Generator: Adobe Illustrator 22.1.0, SVG Export Plug-In . SVG Version: 6.00 Build 0)  -->
<svg version="1.1" id="Laag_1" xmlns="http://www.w3.org/2000/svg" xmlns:xlink="http://www.w3.org/1999/xlink" x="0px" y="0px"
	 viewBox="0 0 353.3 61" style="enable-background:new 0 0 353.3 61;" xml:space="preserve">
<style type="text/css">
	.st0{fill:#9C9C9C;}
</style>
<path class="st0" d="M0,1h10.9C16.2,1,23,3,23,10.9c0,6.8-5.4,9.8-11.3,9.8H3.5v17.9H0V1z M3.5,17.6h8c4,0,8-1.7,8-6.6
	c0-4.8-4.1-6.8-8.2-6.8H3.5C3.5,4.2,3.5,17.6,3.5,17.6z M32.7,1h23v3.1H36.2v13.5h18.3v3.1H36.2v14.7h20.3v3.2H32.7
	C32.7,38.6,32.7,1,32.7,1z M74.7,4.1H61.8V1h29.3v3.1H78.2v34.5h-3.5C74.7,38.6,74.7,4.1,74.7,4.1z M99,1h23v3.1h-19.5v13.5h18.3
	v3.1h-18.3v14.7h20.4v3.2H99C99,38.6,99,1,99,1z M132.7,1h9.9c3,0,13.4,0,13.4,9.9c0,7.2-5.5,9.1-9.6,9.7l11,18.1h-4l-10.6-17.9
	h-6.5v17.9h-3.5L132.7,1L132.7,1L132.7,1z M136.2,17.6h7.4c7.4,0,8.8-4.1,8.8-6.7s-1.4-6.7-8.8-6.7h-7.4V17.6z M174.8,1h3.6v16.6
	h0.3L196.9,1h4.9l-19.1,17.2l20.1,20.4h-5l-19.1-19.4h-0.3v19.4h-3.6L174.8,1L174.8,1z M221,1h3.6l15.9,37.7h-3.9l-4.1-10h-19.9
	l-4.3,10h-3.7L221,1z M222.7,4.8l-8.8,20.6h17.3C231.2,25.4,222.7,4.8,222.7,4.8z M248,1h3.5v37.6H248V1z M265,31.7
	c1.9,3.1,4.9,4.7,8.6,4.7c4.7,0,8.5-2.9,8.5-7.4c0-10.5-19.4-4.4-19.4-18.7c0-6.7,5.7-10.3,12.1-10.3c4.1,0,7.7,1.4,10.3,4.7l-3,2.2
	c-1.8-2.4-4.1-3.7-7.3-3.7c-4.5,0-8.5,2.3-8.5,7.1c0,11.3,19.4,4.5,19.4,18.7c0,6.8-5.6,10.6-11.7,10.6c-4.9,0-9.3-1.6-12.2-5.7
	C261.8,33.9,265,31.7,265,31.7z M295.7,1h23v3.1h-19.5v13.5h18.3v3.1h-18.3v14.7h20.4v3.2h-23.9C295.7,38.6,295.7,1,295.7,1z
	 M329.4,1h9.9c3,0,13.4,0,13.4,9.9c0,7.2-5.5,9.1-9.6,9.7l11,18.1h-4l-10.6-17.9H333v17.9h-3.5L329.4,1L329.4,1L329.4,1z
	 M332.9,17.6h7.4c7.4,0,8.8-4.1,8.8-6.7s-1.4-6.7-8.8-6.7h-7.4V17.6z M79.8,53.7h-1.6V53h1.7l0.3-2.3h-1.6V50h1.7l0.4-3.3h0.8
	L81.1,50h2l0.5-3.3h0.8L83.9,50h1.6v0.7h-1.7L83.5,53H85v0.7h-1.7L82.9,57h-0.8l0.4-3.4h-2L80.1,57h-0.8L79.8,53.7z M83,50.7h-2
	L80.7,53h2L83,50.7z M90.2,45.9h0.9v5.5c0.5-0.9,1.7-1.4,2.7-1.4c2.1,0,3.6,1.5,3.6,3.6s-1.5,3.6-3.6,3.6c-1,0-2.2-0.4-2.7-1.4V57
	h-0.9C90.2,57,90.2,45.9,90.2,45.9z M93.8,56.4c1.7,0,2.7-1.2,2.7-2.8s-1-2.8-2.7-2.8c-1.6,0-2.8,1.2-2.8,2.8S92.2,56.4,93.8,56.4z
	 M108.9,55.7c-0.7,1-1.7,1.4-2.9,1.4c-2.1,0-3.4-1.5-3.4-3.6c0-2,1.4-3.5,3.4-3.5c2.1,0,3.2,1.6,3.2,3.2v0.6h-5.7
	c0,0.7,0.5,2.5,2.6,2.5c0.9,0,1.8-0.5,2.3-1.2L108.9,55.7z M108.3,53.1c0-1.2-1-2.2-2.3-2.2c-1.9,0-2.5,1.8-2.5,2.2H108.3z
	 M119.9,54.2c0,1.3,0,2.1,0.1,2.8h-0.8c-0.1-0.3-0.1-0.7-0.1-1.1c-0.5,0.9-1.2,1.3-2.4,1.3s-2.4-0.6-2.4-2c0-2.1,2.4-2.3,3.7-2.3h1
	v-0.4c0-1.2-0.8-1.6-1.9-1.6c-0.8,0-1.5,0.2-2.1,0.8l-0.5-0.6c0.6-0.6,1.7-1,2.6-1c1.6,0,2.7,0.7,2.7,2.4v1.7L119.9,54.2z
	 M118.2,53.6c-1.5,0-2.9,0.4-2.9,1.5c0,0.8,0.8,1.3,1.5,1.3c1.9,0,2.4-1.2,2.4-2.3v-0.5H118.2z M131.6,55.1c0,0.5,0.1,1.6,0.1,1.9
	h-0.9c0-0.5,0-1.1-0.1-1.2c-0.4,0.7-1.2,1.4-2.3,1.4c-2.1,0-2.6-1.4-2.6-2.9v-4h0.9v4c0,1.1,0.3,2.2,1.7,2.2c1.3,0,2.3-0.9,2.3-2.8
	v-3.4h0.9V55.1z M140.9,51H139v4.4c0,0.6,0.4,1,0.9,1c0.3,0,0.7-0.1,1-0.2L141,57c-0.3,0.1-0.8,0.2-1.1,0.2c-1.3,0-1.7-0.8-1.7-1.7
	V51h-1.5v-0.8h1.5v-1.9h0.9v1.9h1.9L140.9,51L140.9,51z M146.7,46.9c0.4,0,0.7,0.3,0.7,0.7s-0.3,0.7-0.7,0.7S146,48,146,47.6
	S146.3,46.9,146.7,46.9z M146.2,50.2h0.9V57h-0.9V50.2z M153.7,51h-1.4v-0.8h1.4V48c0-1.7,1.2-2.3,2-2.3c0.4,0,0.7,0.1,1,0.2
	l-0.2,0.8c-0.2-0.1-0.5-0.1-0.8-0.1c-0.8,0-1.2,0.6-1.2,1.8v1.9h1.6V51h-1.6v6h-0.9L153.7,51L153.7,51z M166.9,55.1
	c0,0.5,0.1,1.6,0.1,1.9h-0.9c0-0.5,0-1.1-0.1-1.2c-0.4,0.7-1.2,1.4-2.3,1.4c-2.1,0-2.6-1.4-2.6-2.9v-4h0.9v4c0,1.1,0.3,2.2,1.7,2.2
	c1.3,0,2.3-0.9,2.3-2.8v-3.4h0.9L166.9,55.1L166.9,55.1z M173,45.9h0.9V57H173V45.9z M180,55.3c0.4,0.7,1.2,1.1,2,1.1
	s1.6-0.5,1.6-1.2c0-1.9-4-0.6-4-3.1c0-1.3,1.2-1.9,2.3-1.9s1.9,0.4,2.4,1.3l-0.8,0.5c-0.3-0.6-0.8-1-1.6-1c-0.6,0-1.4,0.4-1.4,1.1
	c0,1.8,4,0.4,4,3.1c0,1.4-1.2,2.1-2.4,2.1s-2.2-0.4-2.7-1.4L180,55.3L180,55.3z M190.4,46.9c0.4,0,0.7,0.3,0.7,0.7s-0.3,0.7-0.7,0.7
	s-0.7-0.3-0.7-0.7S190,46.9,190.4,46.9z M190,50.2h0.9V57H190V50.2z M196.9,52.2c0-0.5-0.1-1.6-0.1-1.9h0.9c0,0.5,0,1.1,0.1,1.2
	c0.4-0.7,1.2-1.4,2.3-1.4c2.1,0,2.6,1.4,2.6,2.9v4h-0.9v-4c0-1.1-0.3-2.2-1.7-2.2c-1.3,0-2.3,0.9-2.3,2.8V57h-0.9L196.9,52.2
	L196.9,52.2z M214.3,56c-0.7,0.8-1.5,1.2-2.5,1.2c-2.1,0-3.6-1.5-3.6-3.6s1.5-3.6,3.6-3.6c1,0,1.9,0.4,2.5,1.2l-0.7,0.5
	c-0.5-0.6-1.1-0.9-1.8-0.9c-1.7,0-2.7,1.2-2.7,2.8s1,2.8,2.7,2.8c0.7,0,1.4-0.4,1.8-0.9L214.3,56z M225.3,55.7
	c-0.7,1-1.7,1.4-2.9,1.4c-2.1,0-3.4-1.5-3.4-3.6c0-2,1.4-3.5,3.4-3.5c2.1,0,3.2,1.6,3.2,3.2v0.6h-5.7c0,0.7,0.5,2.5,2.6,2.5
	c0.9,0,1.8-0.5,2.3-1.2L225.3,55.7L225.3,55.7z M224.6,53.1c0-1.2-1-2.2-2.3-2.2c-1.9,0-2.5,1.8-2.5,2.2H224.6z M233.7,47.9
	l-1.9,1.5l-0.5-0.7l2.6-2.1h0.7V57h-0.9L233.7,47.9L233.7,47.9z M244.9,46.5c1.6,0,2.8,1.1,2.8,2.7c0,1-0.6,2-1.7,2.3
	c1.3,0.3,2,1.4,2,2.7c0,1.9-1.4,3.1-3.2,3.1s-3.2-1.2-3.2-3.1c0-1.2,0.7-2.4,2-2.7c-1-0.3-1.7-1.3-1.7-2.3
	C242.1,47.6,243.3,46.5,244.9,46.5L244.9,46.5z M244.9,56.4c1.4,0,2.2-1,2.2-2.3c0-1.4-1-2.3-2.2-2.3s-2.2,0.9-2.2,2.3
	C242.7,55.4,243.5,56.4,244.9,56.4z M244.9,51.1c1.1,0,1.9-0.9,1.9-1.9c0-1.1-0.8-1.9-1.9-1.9c-1.1,0-1.9,0.8-1.9,1.9
	C243,50.2,243.8,51.1,244.9,51.1z M253.8,54.8c0.4,1,1,1.6,2.2,1.6c1.5,0,2.3-1,2.3-2.3c0-1.5-1.4-2.1-2.7-2.1h-0.4v-0.9h0.4
	c1.1,0,2.3-0.5,2.3-2c0-1.1-0.8-1.9-1.9-1.9c-0.8,0-1.6,0.5-2,1.2l-0.8-0.5c0.6-1.1,1.6-1.5,2.8-1.5c1.6,0,2.9,0.9,2.9,2.7
	c0,1.1-0.6,2.1-1.8,2.4c1.3,0.2,2.2,1.3,2.2,2.6c0,1.6-1.1,3-3.2,3c-1.6,0-2.7-0.6-3.2-2L253.8,54.8z M267.3,46.5
	c1.6,0,2.8,1.1,2.8,2.7c0,1-0.6,2-1.7,2.3c1.3,0.3,2,1.4,2,2.7c0,1.9-1.4,3.1-3.2,3.1c-1.8,0-3.2-1.2-3.2-3.1c0-1.2,0.7-2.4,2-2.7
	c-1-0.3-1.7-1.3-1.7-2.3C264.5,47.6,265.7,46.5,267.3,46.5L267.3,46.5z M267.3,56.4c1.4,0,2.2-1,2.2-2.3c0-1.4-1-2.3-2.2-2.3
	s-2.2,0.9-2.2,2.3C265.1,55.4,266,56.4,267.3,56.4z M267.3,51.1c1.1,0,1.9-0.9,1.9-1.9c0-1.1-0.8-1.9-1.9-1.9s-1.9,0.8-1.9,1.9
	C265.4,50.2,266.2,51.1,267.3,51.1z"/>
</svg>
