<?xml version="1.0" encoding="UTF-8"?>
<svg width="530px" height="456px" viewBox="0 0 530 456" version="1.1" xmlns="http://www.w3.org/2000/svg" xmlns:xlink="http://www.w3.org/1999/xlink">
    <!-- Generator: Sketch 52.6 (67491) - http://www.bohemiancoding.com/sketch -->
    <title>Group 14</title>
    <desc>Created with Sketch.</desc>
    <defs>
        <rect id="path-1" x="118.20058" y="0" width="170.283063" height="186.730858" rx="5"></rect>
        <filter x="-58.7%" y="-42.8%" width="217.5%" height="207.1%" filterUnits="objectBoundingBox" id="filter-2">
            <feOffset dx="0" dy="20" in="SourceAlpha" result="shadowOffsetOuter1"></feOffset>
            <feGaussianBlur stdDeviation="30" in="shadowOffsetOuter1" result="shadowBlurOuter1"></feGaussianBlur>
            <feColorMatrix values="0 0 0 0 0   0 0 0 0 0   0 0 0 0 0  0 0 0 0.144503934 0" type="matrix" in="shadowBlurOuter1"></feColorMatrix>
        </filter>
        <linearGradient x1="6.4666748%" y1="90.3710604%" x2="46.9411214%" y2="46.0083838%" id="linearGradient-3">
            <stop stop-color="#FFFFFF" offset="0%"></stop>
            <stop stop-color="#FFFFFF" offset="100%"></stop>
        </linearGradient>
    </defs>
    <g id="Website-Second-Iteration" stroke="none" stroke-width="1" fill="none" fill-rule="evenodd">
        <g id="Product-Catalog" transform="translate(-749.000000, -2197.000000)">
            <g id="Group-14" transform="translate(749.000000, 2236.000000)">
                <rect id="Rectangle" stroke="#D7D7D7" opacity="0.397623698" x="0.66345753" y="20.8178654" width="528.232019" height="395.682135" rx="10"></rect>
                <path d="M29.1889796,153.351508 L505.207541,153.351508" id="Path-5" stroke="#D7D7D7" opacity="0.4"></path>
                <path d="M29.1889796,285.901392 L505.207541,285.901392" id="Path-5" stroke="#D7D7D7" opacity="0.4"></path>
                <path d="M218.82239,218.658933 L572.933759,220.593968" id="Path-5" stroke="#D7D7D7" opacity="0.4" transform="translate(395.878075, 219.626450) rotate(90.000000) translate(-395.878075, -219.626450) "></path>
                <path d="M91.1100933,218.658933 L445.221462,220.593968" id="Path-5" stroke="#D7D7D7" opacity="0.4" transform="translate(268.165778, 219.626450) rotate(90.000000) translate(-268.165778, -219.626450) "></path>
                <path d="M-35.6346863,218.658933 L318.476683,220.593968" id="Path-5" stroke="#D7D7D7" opacity="0.4" transform="translate(141.420998, 219.626450) rotate(90.000000) translate(-141.420998, -219.626450) "></path>
                <g id="Rectangle">
                    <use fill="black" fill-opacity="1" filter="url(#filter-2)" xlink:href="#path-1"></use>
                    <use fill="#FFFFFF" fill-rule="evenodd" xlink:href="#path-1"></use>
                </g>
                <g id="pdf" transform="translate(63.052089, 74.498840)">
                    <path d="M2.49941995,0 C1.12473898,0 0,1.1156685 0,2.47926334 L0,37.1889501 C0,38.552545 1.12473898,39.6682135 2.49941995,39.6682135 L27.4936195,39.6682135 C28.8683005,39.6682135 29.9930394,38.552545 29.9930394,37.1889501 L29.9930394,9.52037123 L20.7212847,0.163573273 L2.49941995,0 Z" id="Path" fill="#F15642" fill-rule="nonzero"></path>
                    <path d="M22.79471,9.6165366 L29.9930394,9.6165366 L20.5976613,0 L20.3952668,7.17037396 C20.3952668,8.51576341 21.4750162,9.6165366 22.79471,9.6165366 Z" id="Path" fill="url(#linearGradient-3)" fill-rule="nonzero" opacity="0.828497024"></path>
                    <text id="PDF" font-family="Helvetica" font-size="9" font-weight="normal" fill="#FFFFFF">
                        <tspan x="4.79888631" y="23.3341067">PDF</tspan>
                    </text>
                </g>
                <g id="pdf" transform="translate(63.052089, 74.498840)">
                    <path d="M2.49941995,0 C1.12473898,0 0,1.1156685 0,2.47926334 L0,37.1889501 C0,38.552545 1.12473898,39.6682135 2.49941995,39.6682135 L27.4936195,39.6682135 C28.8683005,39.6682135 29.9930394,38.552545 29.9930394,37.1889501 L29.9930394,9.52037123 L20.7212847,0.163573273 L2.49941995,0 Z" id="Path" fill="#F15642" fill-rule="nonzero"></path>
                    <path d="M22.79471,9.6165366 L29.9930394,9.6165366 L20.5976613,0 L20.3952668,7.17037396 C20.3952668,8.51576341 21.4750162,9.6165366 22.79471,9.6165366 Z" id="Path" fill="url(#linearGradient-3)" fill-rule="nonzero" opacity="0.828497024"></path>
                    <text id="PDF" font-family="Helvetica" font-size="9" font-weight="normal" fill="#FFFFFF">
                        <tspan x="4.79888631" y="23.3341067">PDF</tspan>
                    </text>
                </g>
                <g id="pdf" transform="translate(63.052089, 74.498840)">
                    <path d="M2.49941995,0 C1.12473898,0 0,1.1156685 0,2.47926334 L0,37.1889501 C0,38.552545 1.12473898,39.6682135 2.49941995,39.6682135 L27.4936195,39.6682135 C28.8683005,39.6682135 29.9930394,38.552545 29.9930394,37.1889501 L29.9930394,9.52037123 L20.7212847,0.163573273 L2.49941995,0 Z" id="Path" fill="#FB9400" fill-rule="nonzero"></path>
                    <path d="M22.79471,9.6165366 L29.9930394,9.6165366 L20.5976613,0 L20.3952668,7.17037396 C20.3952668,8.51576341 21.4750162,9.6165366 22.79471,9.6165366 Z" id="Path" fill="url(#linearGradient-3)" fill-rule="nonzero" opacity="0.828497024"></path>
                    <text id="HTML" font-family="Helvetica" font-size="8" font-weight="normal" fill="#FFFFFF">
                        <tspan x="4" y="23">HTML</tspan>
                    </text>
                </g>
                <g id="pdf" transform="translate(178.186659, 59.986079)">
                    <path d="M4.09275218,0 C1.84173848,0 0,1.87758846 0,4.17241879 L0,62.5862819 C0,64.8811122 1.84173848,66.7587007 4.09275218,66.7587007 L45.020274,66.7587007 C47.2712877,66.7587007 49.1130262,64.8811122 49.1130262,62.5862819 L49.1130262,16.0220882 L33.9307057,0.275281849 L4.09275218,0 Z" id="Path" fill="#070707" fill-rule="nonzero"></path>
                    <path d="M37.7331787,16.9931238 L50.3109049,16.9931238 L33.8942494,0 L33.5406032,12.6705754 C33.5406032,15.047977 35.4272622,16.9931238 37.7331787,16.9931238 Z" id="Path" fill="url(#linearGradient-3)" fill-rule="nonzero" opacity="0.828497024"></path>
                    <text id="XLIFF" font-family="Helvetica" font-size="11" font-weight="normal" fill="#FFFFFF">
                        <tspan x="9.5830295" y="38.0931449">XLIFF</tspan>
                    </text>
                </g>
                <g id="pdf" transform="translate(318.476683, 74.498840)">
                    <path d="M2.49941995,0 C1.12473898,0 0,1.1156685 0,2.47926334 L0,37.1889501 C0,38.552545 1.12473898,39.6682135 2.49941995,39.6682135 L27.4936195,39.6682135 C28.8683005,39.6682135 29.9930394,38.552545 29.9930394,37.1889501 L29.9930394,9.52037123 L20.7212847,0.163573273 L2.49941995,0 Z" id="Path" fill="#6CAF2C" fill-rule="nonzero"></path>
                    <path d="M22.79471,9.6165366 L29.9930394,9.6165366 L20.5976613,0 L20.3952668,7.17037396 C20.3952668,8.51576341 21.4750162,9.6165366 22.79471,9.6165366 Z" id="Path" fill="url(#linearGradient-3)" fill-rule="nonzero" opacity="0.828497024"></path>
                    <text id="XLSX" font-family="Helvetica" font-size="8" font-weight="normal" fill="#FFFFFF">
                        <tspan x="5.59916473" y="23.4351403">XLSX</tspan>
                    </text>
                </g>
                <g id="pdf" transform="translate(444.253945, 74.498840)">
                    <path d="M2.49941995,0 C1.12473898,0 0,1.1156685 0,2.47926334 L0,37.1889501 C0,38.552545 1.12473898,39.6682135 2.49941995,39.6682135 L27.4936195,39.6682135 C28.8683005,39.6682135 29.9930394,38.552545 29.9930394,37.1889501 L29.9930394,9.52037123 L20.7212847,0.163573273 L2.49941995,0 Z" id="Path" fill="#3792E3" fill-rule="nonzero"></path>
                    <path d="M22.79471,9.6165366 L29.9930394,9.6165366 L20.5976613,0 L20.3952668,7.17037396 C20.3952668,8.51576341 21.4750162,9.6165366 22.79471,9.6165366 Z" id="Path" fill="url(#linearGradient-3)" fill-rule="nonzero" opacity="0.828497024"></path>
                    <text id="DOCX" font-family="Helvetica" font-size="8" font-weight="normal" fill="#FFFFFF">
                        <tspan x="4.19972158" y="23.4351403">DOCX</tspan>
                    </text>
                </g>
                <g id="pdf" transform="translate(62.084571, 199.308585)">
                    <path d="M2.49941995,0 C1.12473898,0 0,1.1156685 0,2.47926334 L0,37.1889501 C0,38.552545 1.12473898,39.6682135 2.49941995,39.6682135 L27.4936195,39.6682135 C28.8683005,39.6682135 29.9930394,38.552545 29.9930394,37.1889501 L29.9930394,9.52037123 L20.7212847,0.163573273 L2.49941995,0 Z" id="Path" fill="#28AC3C" fill-rule="nonzero"></path>
                    <path d="M22.79471,9.6165366 L29.9930394,9.6165366 L20.5976613,0 L20.3952668,7.17037396 C20.3952668,8.51576341 21.4750162,9.6165366 22.79471,9.6165366 Z" id="Path" fill="url(#linearGradient-3)" fill-rule="nonzero" opacity="0.828497024"></path>
                    <text id="CSV" font-family="Helvetica" font-size="8" font-weight="normal" fill="#FFFFFF">
                        <tspan x="5.99860789" y="23.4351403">CSV</tspan>
                    </text>
                </g>
                <g id="pdf" transform="translate(316.541648, 199.308585)">
                    <path d="M2.49941995,0 C1.12473898,0 0,1.1156685 0,2.47926334 L0,37.1889501 C0,38.552545 1.12473898,39.6682135 2.49941995,39.6682135 L27.4936195,39.6682135 C28.8683005,39.6682135 29.9930394,38.552545 29.9930394,37.1889501 L29.9930394,9.52037123 L20.7212847,0.163573273 L2.49941995,0 Z" id="Path" fill="#27C9A6" fill-rule="nonzero"></path>
                    <path d="M22.79471,9.6165366 L29.9930394,9.6165366 L20.5976613,0 L20.3952668,7.17037396 C20.3952668,8.51576341 21.4750162,9.6165366 22.79471,9.6165366 Z" id="Path" fill="url(#linearGradient-3)" fill-rule="nonzero" opacity="0.828497024"></path>
                    <text id="YAML" font-family="Helvetica" font-size="8" font-weight="normal" fill="#FFFFFF">
                        <tspan x="4.39944316" y="23.4351403">YAML</tspan>
                    </text>
                </g>
                <g id="pdf" transform="translate(186.894316, 199.308585)">
                    <path d="M2.49941995,0 C1.12473898,0 0,1.1156685 0,2.47926334 L0,37.1889501 C0,38.552545 1.12473898,39.6682135 2.49941995,39.6682135 L27.4936195,39.6682135 C28.8683005,39.6682135 29.9930394,38.552545 29.9930394,37.1889501 L29.9930394,9.52037123 L20.7212847,0.163573273 L2.49941995,0 Z" id="Path" fill="#8B74BD" fill-rule="nonzero"></path>
                    <path d="M22.79471,9.6165366 L29.9930394,9.6165366 L20.5976613,0 L20.3952668,7.17037396 C20.3952668,8.51576341 21.4750162,9.6165366 22.79471,9.6165366 Z" id="Path" fill="url(#linearGradient-3)" fill-rule="nonzero" opacity="0.828497024"></path>
                    <text id="JSON" font-family="Helvetica" font-size="8" font-weight="normal" fill="#FFFFFF">
                        <tspan x="4.39944316" y="23.4351403">JSON</tspan>
                    </text>
                </g>
                <g id="pdf" transform="translate(442.318910, 199.308585)">
                    <path d="M2.49941995,0 C1.12473898,0 0,1.1156685 0,2.47926334 L0,37.1889501 C0,38.552545 1.12473898,39.6682135 2.49941995,39.6682135 L27.4936195,39.6682135 C28.8683005,39.6682135 29.9930394,38.552545 29.9930394,37.1889501 L29.9930394,9.52037123 L20.7212847,0.163573273 L2.49941995,0 Z" id="Path" fill="#4389C9" fill-rule="nonzero"></path>
                    <path d="M22.79471,9.6165366 L29.9930394,9.6165366 L20.5976613,0 L20.3952668,7.17037396 C20.3952668,8.51576341 21.4750162,9.6165366 22.79471,9.6165366 Z" id="Path" fill="url(#linearGradient-3)" fill-rule="nonzero" opacity="0.828497024"></path>
                    <text id="YML" font-family="Helvetica" font-size="8" font-weight="normal" fill="#FFFFFF">
                        <tspan x="6.79888631" y="23.4351403">YML</tspan>
                    </text>
                </g>
                <g id="pdf" transform="translate(63.052089, 331.858469)">
                    <path d="M2.49941995,0 C1.12473898,0 0,1.1156685 0,2.47926334 L0,37.1889501 C0,38.552545 1.12473898,39.6682135 2.49941995,39.6682135 L27.4936195,39.6682135 C28.8683005,39.6682135 29.9930394,38.552545 29.9930394,37.1889501 L29.9930394,9.52037123 L20.7212847,0.163573273 L2.49941995,0 Z" id="Path" fill="#A3A1A2" fill-rule="nonzero"></path>
                    <path d="M22.79471,9.6165366 L29.9930394,9.6165366 L20.5976613,0 L20.3952668,7.17037396 C20.3952668,8.51576341 21.4750162,9.6165366 22.79471,9.6165366 Z" id="Path" fill="url(#linearGradient-3)" fill-rule="nonzero" opacity="0.828497024"></path>
                    <text id="XML" font-family="Helvetica" font-size="8" font-weight="normal" fill="#FFFFFF">
                        <tspan x="6.99860789" y="23.4351403">XML</tspan>
                    </text>
                </g>
                <g id="pdf" transform="translate(318.476683, 331.858469)">
                    <path d="M2.49941995,0 C1.12473898,0 0,1.1156685 0,2.47926334 L0,37.1889501 C0,38.552545 1.12473898,39.6682135 2.49941995,39.6682135 L27.4936195,39.6682135 C28.8683005,39.6682135 29.9930394,38.552545 29.9930394,37.1889501 L29.9930394,9.52037123 L20.7212847,0.163573273 L2.49941995,0 Z" id="Path" fill="#F15642" fill-rule="nonzero"></path>
                    <path d="M22.79471,9.6165366 L29.9930394,9.6165366 L20.5976613,0 L20.3952668,7.17037396 C20.3952668,8.51576341 21.4750162,9.6165366 22.79471,9.6165366 Z" id="Path" fill="url(#linearGradient-3)" fill-rule="nonzero" opacity="0.828497024"></path>
                    <text id="PDF" font-family="Helvetica" font-size="9" font-weight="normal" fill="#FFFFFF">
                        <tspan x="6.79888631" y="23.3341067">PDF</tspan>
                    </text>
                </g>
                <g id="pdf" transform="translate(187.861833, 331.858469)">
                    <path d="M2.49941995,0 C1.12473898,0 0,1.1156685 0,2.47926334 L0,37.1889501 C0,38.552545 1.12473898,39.6682135 2.49941995,39.6682135 L27.4936195,39.6682135 C28.8683005,39.6682135 29.9930394,38.552545 29.9930394,37.1889501 L29.9930394,9.52037123 L20.7212847,0.163573273 L2.49941995,0 Z" id="Path" fill="#F3783C" fill-rule="nonzero"></path>
                    <path d="M22.79471,9.6165366 L29.9930394,9.6165366 L20.5976613,0 L20.3952668,7.17037396 C20.3952668,8.51576341 21.4750162,9.6165366 22.79471,9.6165366 Z" id="Path" fill="url(#linearGradient-3)" fill-rule="nonzero" opacity="0.828497024"></path>
                    <text id="MD" font-family="Helvetica" font-size="8" font-weight="normal" fill="#FFFFFF">
                        <tspan x="8.39805104" y="23.4351403">MD</tspan>
                    </text>
                </g>
                <g id="pdf" transform="translate(444.253945, 331.858469)">
                    <path d="M2.49941995,0 C1.12473898,0 0,1.1156685 0,2.47926334 L0,37.1889501 C0,38.552545 1.12473898,39.6682135 2.49941995,39.6682135 L27.4936195,39.6682135 C28.8683005,39.6682135 29.9930394,38.552545 29.9930394,37.1889501 L29.9930394,9.52037123 L20.7212847,0.163573273 L2.49941995,0 Z" id="Path" fill="#F6BF00" fill-rule="nonzero"></path>
                    <path d="M22.79471,9.6165366 L29.9930394,9.6165366 L20.5976613,0 L20.3952668,7.17037396 C20.3952668,8.51576341 21.4750162,9.6165366 22.79471,9.6165366 Z" id="Path" fill="url(#linearGradient-3)" fill-rule="nonzero" opacity="0.828497024"></path>
                    <text id="PO" font-family="Helvetica" font-size="8" font-weight="normal" fill="#FFFFFF">
                        <tspan x="8.39805104" y="23.4351403">PO</tspan>
                    </text>
                </g>
            </g>
        </g>
    </g>
</svg>