<?xml version="1.0" encoding="UTF-8"?>
<svg width="25px" height="25px" viewBox="0 0 25 25" version="1.1" xmlns="http://www.w3.org/2000/svg" xmlns:xlink="http://www.w3.org/1999/xlink">
    <!-- Generator: Sketch 52.6 (67491) - http://www.bohemiancoding.com/sketch -->
    <title>icon</title>
    <desc>Created with Sketch.</desc>
    <g id="Website" stroke="none" stroke-width="1" fill="none" fill-rule="evenodd">
        <g id="Homepage" transform="translate(-149.000000, -1799.000000)" fill="#53A9E6" fill-rule="nonzero">
            <g id="Why-us-Section" transform="translate(149.000000, 1130.000000)">
                <g id="features" transform="translate(0.000000, 669.000000)">
                    <g id="Product">
                        <g id="icon">
                            <path d="M4.6875,25 C4.62083333,25 4.553125,24.9864583 4.48854167,24.9604167 C4.29375,24.8802083 4.16666667,24.6895833 4.16666667,24.4791667 L4.16666667,19.7916667 L2.60416667,19.7916667 C1.16875,19.7916667 0,18.6239583 0,17.1875 L0,2.60416667 C0,1.16770833 1.16875,0 2.60416667,0 L22.3958333,0 C23.83125,0 25,1.16770833 25,2.60416667 L25,17.1875 C25,18.6239583 23.83125,19.7916667 22.3958333,19.7916667 L10.1114583,19.7916667 L5.05520833,24.8479167 C4.95625,24.946875 4.82291667,25 4.6875,25 Z M2.60416667,1.04166667 C1.74270833,1.04166667 1.04166667,1.74270833 1.04166667,2.60416667 L1.04166667,17.1875 C1.04166667,18.0489583 1.74270833,18.75 2.60416667,18.75 L4.6875,18.75 C4.975,18.75 5.20833333,18.9833333 5.20833333,19.2708333 L5.20833333,23.221875 L9.52708333,18.903125 C9.625,18.8052083 9.75729167,18.75 9.89583333,18.75 L22.3958333,18.75 C23.2572917,18.75 23.9583333,18.0489583 23.9583333,17.1875 L23.9583333,2.60416667 C23.9583333,1.74270833 23.2572917,1.04166667 22.3958333,1.04166667 L2.60416667,1.04166667 Z" id="Shape"></path>
                            <path d="M5.3125,15.625 C4.10609375,15.625 3.125,14.6439063 3.125,13.4375 C3.125,12.2310937 4.10609375,11.25 5.3125,11.25 C6.51890625,11.25 7.5,12.2310937 7.5,13.4375 C7.5,14.6439063 6.51890625,15.625 5.3125,15.625 Z M5.3125,12.34375 C4.70984375,12.34375 4.21875,12.83375 4.21875,13.4375 C4.21875,14.04125 4.70984375,14.53125 5.3125,14.53125 C5.91515625,14.53125 6.40625,14.04125 6.40625,13.4375 C6.40625,12.83375 5.91515625,12.34375 5.3125,12.34375 Z" id="Shape"></path>
                            <path d="M10.3125,11.875 C9.10609375,11.875 8.125,10.8939063 8.125,9.6875 C8.125,8.48109375 9.10609375,7.5 10.3125,7.5 C11.5189063,7.5 12.5,8.48109375 12.5,9.6875 C12.5,10.8939063 11.5189063,11.875 10.3125,11.875 Z M10.3125,8.59375 C9.70984375,8.59375 9.21875,9.08375 9.21875,9.6875 C9.21875,10.29125 9.70984375,10.78125 10.3125,10.78125 C10.9151562,10.78125 11.40625,10.29125 11.40625,9.6875 C11.40625,9.08375 10.9151562,8.59375 10.3125,8.59375 Z" id="Shape"></path>
                            <path d="M16.5625,15.625 C15.3560937,15.625 14.375,14.6439063 14.375,13.4375 C14.375,12.2310937 15.3560937,11.25 16.5625,11.25 C17.7689063,11.25 18.75,12.2310937 18.75,13.4375 C18.75,14.6439063 17.7689063,15.625 16.5625,15.625 Z M16.5625,12.34375 C15.9598437,12.34375 15.46875,12.83375 15.46875,13.4375 C15.46875,14.04125 15.9598437,14.53125 16.5625,14.53125 C17.1651563,14.53125 17.65625,14.04125 17.65625,13.4375 C17.65625,12.83375 17.1651562,12.34375 16.5625,12.34375 Z" id="Shape"></path>
                            <path d="M19.6875,8.75 C18.4810937,8.75 17.5,7.76890625 17.5,6.5625 C17.5,5.35609375 18.4810937,4.375 19.6875,4.375 C20.8939063,4.375 21.875,5.35609375 21.875,6.5625 C21.875,7.76890625 20.8939063,8.75 19.6875,8.75 Z M19.6875,5.46875 C19.0848438,5.46875 18.59375,5.95875 18.59375,6.5625 C18.59375,7.16625 19.0848438,7.65625 19.6875,7.65625 C20.2901562,7.65625 20.78125,7.16625 20.78125,6.5625 C20.78125,5.95875 20.2901562,5.46875 19.6875,5.46875 Z" id="Shape"></path>
                            <path d="M6.13488436,13.125 C5.9850173,13.125 5.83718924,13.0613138 5.73625836,12.9379217 C5.56090371,12.7229806 5.59658634,12.409525 5.81679917,12.2383682 L8.54906945,10.1078646 C8.76826277,9.93770294 9.08940648,9.97253135 9.26374164,10.1864773 C9.43909629,10.4014183 9.40341366,10.714874 9.18320083,10.8860308 L6.45093055,13.0165344 C6.3581557,13.0891765 6.24601028,13.125 6.13488436,13.125 Z" id="Path"></path>
                            <path d="M17.429714,12.5 C17.3565816,12.5 17.2823412,12.4860719 17.211425,12.4571444 C16.9299762,12.340363 16.7992244,12.0253744 16.9200036,11.7532415 L18.9366837,7.19983588 C19.0574629,6.92770293 19.3843424,6.80235036 19.663575,6.91806043 C19.9450238,7.03484189 20.0757756,7.34983042 19.9549964,7.62196336 L17.9383163,12.175369 C17.8485629,12.378933 17.6446788,12.5 17.429714,12.5 Z" id="Path"></path>
                            <path d="M15.6939735,13.125 C15.5873022,13.125 15.4806309,13.0946813 15.3861824,13.0306751 L11.4971241,10.4030531 C11.2426686,10.2301241 11.1726655,9.88202033 11.3437841,9.62374979 C11.5137915,9.36660217 11.8593621,9.29810433 12.1138176,9.46878747 L16.0028759,12.0964095 C16.2573314,12.2693385 16.3273345,12.6174422 16.1562159,12.8757128 C16.0484334,13.0374126 15.8728702,13.125 15.6939735,13.125 Z" id="Path"></path>
                        </g>
                    </g>
                </g>
            </g>
        </g>
    </g>
</svg>