<?xml version="1.0" encoding="UTF-8"?>
<svg width="554px" height="389px" viewBox="0 0 554 389" version="1.1" xmlns="http://www.w3.org/2000/svg" xmlns:xlink="http://www.w3.org/1999/xlink">
    <title>quality ai</title>
    <g id="Website" stroke="none" stroke-width="1" fill="none" fill-rule="evenodd">
        <g id="Illustrations" transform="translate(-793.000000, -1453.000000)">
            <g id="quality-ai" transform="translate(793.000000, 1453.000000)">
                <g id="Group-31-Copy-3">
                    <g id="Group-Copy">
                        <rect id="Rectangle" fill="#F4F4F4" x="0" y="0" width="554" height="389" rx="20"></rect>
                        <path d="M20,0 L534,0 C545.045695,-2.02906125e-15 554,8.954305 554,20 L554,42 L554,42 L0,42 L0,20 C-1.3527075e-15,8.954305 8.954305,2.02906125e-15 20,0 Z" id="Rectangle" fill="#3D566E"></path>
                        <path d="M0,86 L554,86 L554,369 C554,380.045695 545.045695,389 534,389 L20,389 C8.954305,389 1.3527075e-15,380.045695 0,369 L0,86 L0,86 Z" id="Rectangle" fill="#FFFFFF"></path>
                        <rect id="Rectangle" fill="#3D566E" x="453" y="52" width="101" height="24"></rect>
                    </g>
                    <text id="Quality-dimension" font-family="Inter-Regular_Medium, Inter" font-size="16" font-weight="400" fill="#52677D">
                        <tspan x="12" y="70">Quality dimension</tspan>
                    </text>
                </g>
                <g id="Group-6" transform="translate(35.000000, 133.000000)">
                    <g id="Chart" transform="translate(182.000000, 0.000000)">
                        <g id="Guide" transform="translate(50.397647, 4.000000)">
                            <g id="2.-Chart/Element/Guidline/6-Part" transform="translate(0.000000, -0.000000)">
                                <ellipse id="Backgroud" stroke="#D8D8D8" cx="104.429965" cy="103.829278" rx="103.607682" ry="103.829278"></ellipse>
                                <path d="M104.841107,155.743918 C133.678645,155.743918 157.056089,132.316474 157.056089,103.417257 C157.056089,74.518041 133.678645,51.0905973 104.841107,51.0905973 C76.0035681,51.0905973 52.6261242,74.518041 52.6261242,103.417257 C52.6261242,132.316474 76.0035681,155.743918 104.841107,155.743918 Z" id="Line-100" stroke="#EAEAEA" stroke-width="1.13833992" stroke-dasharray="4.553359683794467,4.553359683794467"></path>
                                <path d="M104.841107,129.374577 C119.146342,129.374577 130.743027,117.753089 130.743027,103.417257 C130.743027,89.0814257 119.146342,77.4599378 104.841107,77.4599378 C90.535871,77.4599378 78.9391862,89.0814257 78.9391862,103.417257 C78.9391862,117.753089 90.535871,129.374577 104.841107,129.374577 Z" id="Line-10" stroke="#EAEAEA" stroke-width="1.13833992" stroke-dasharray="4.553359683794467,4.553359683794467"></path>
                                <line x1="104.018824" y1="0" x2="104.018824" y2="104.241299" id="Path" stroke="#EBEBEB" stroke-width="1.13833992"></line>
                                <line x1="103.924861" y1="0.0520841049" x2="104.112786" y2="207.606473" id="Path" stroke="#EAEAEA" stroke-width="1.13833992" stroke-dasharray="4.553359683794467,4.553359683794467" transform="translate(104.018824, 103.829278) rotate(29.000000) translate(-104.018824, -103.829278) "></line>
                                <line x1="104.018824" y1="0.221596424" x2="104.018824" y2="207.43696" id="Path" stroke="#EAEAEA" stroke-width="1.13833992" stroke-dasharray="4.553359683794467,4.553359683794467" transform="translate(104.018824, 103.829278) rotate(90.000000) translate(-104.018824, -103.829278) "></line>
                                <line x1="104.116653" y1="0.0587816022" x2="103.920995" y2="207.599775" id="Path" stroke="#EAEAEA" stroke-width="1.13833992" stroke-dasharray="4.553359683794467,4.553359683794467" transform="translate(104.018824, 103.829278) rotate(149.000000) translate(-104.018824, -103.829278) "></line>
                            </g>
                        </g>
                        <text id="âœï¸-Caption-6" font-family="Inter-Regular, Inter" font-size="14" font-weight="normal" line-spacing="24" fill="#52677D">
                            <tspan x="204.981176" y="205.795824">Accuracy</tspan>
                        </text>
                        <text id="âœï¸-Caption-5" font-family="Inter-Regular, Inter" font-size="14" font-weight="normal" line-spacing="24" fill="#52677D">
                            <tspan x="28.1249866" y="205.795824">Punctuation</tspan>
                        </text>
                        <text id="âœï¸-Caption-4" font-family="Inter-Regular, Inter" font-size="14" font-weight="normal" line-spacing="24" fill="#52677D">
                            <tspan x="258.435294" y="106.62181">Wrong</tspan>
                        </text>
                        <text id="âœï¸-Caption-3" font-family="Inter-Regular, Inter" font-size="14" font-weight="normal" line-spacing="24" fill="#52677D">
                            <tspan x="0.699174465" y="106.62181">Fluency</tspan>
                        </text>
                        <text id="âœï¸-Caption-2" font-family="Inter-Regular, Inter" font-size="14" font-weight="normal" line-spacing="24" fill="#52677D">
                            <tspan x="204.981176" y="14.6867749">Terminology</tspan>
                        </text>
                        <text id="âœï¸-Caption-1" font-family="Inter-Regular, Inter" font-size="14" font-weight="normal" line-spacing="24" fill="#52677D">
                            <tspan x="41.224766" y="15.4106729">Grammar</tspan>
                        </text>
                        <g id="Radar-Chart" transform="translate(63.842353, 0.000000)">
                            <polygon id="ðŸ“ˆ-Line-2" stroke="#4B8FE2" stroke-linejoin="round" points="49.1443124 36.575406 0.28 108.282977 69.2933726 148.071848 121.615821 156.742459 145.472941 108.527294 127.242634 43.9665845"></polygon>
                            <polygon id="ðŸ“ˆ-Line-1" stroke="#09CF9E" stroke-linejoin="round" points="52.7955519 42.3665893 30.6188235 108.226463 49.1197809 185.698376 124.59166 162.93064 136.804706 107.131134 101.371769 90.114875"></polygon>
                            <text id="ðŸ’¯-Number-3" font-family="Inter-Regular, Inter" font-size="14" font-weight="normal" line-spacing="24" fill="#52677D">
                                <tspan x="69.2234425" y="84.1809745">15</tspan>
                            </text>
                            <text id="ðŸ’¯-Number-2" font-family="Inter-Regular, Inter" font-size="14" font-weight="normal" line-spacing="24" fill="#52677D">
                                <tspan x="66.7997326" y="57.3967517">30</tspan>
                            </text>
                            <text id="ðŸ’¯-Number-1" font-family="Inter-Regular, Inter" font-size="14" font-weight="normal" line-spacing="24" fill="#52677D">
                                <tspan x="66.4798864" y="14.6867749">60</tspan>
                            </text>
                        </g>
                    </g>
                    <g id="Note" transform="translate(0.000000, 68.000000)">
                        <g id="Group-2" transform="translate(0.000000, 56.000000)">
                            <g id="ðŸ€-Card-" transform="translate(0.000000, 0.027842)">
                                <path d="M10.0368153,-3.74156905e-16 L13.9631847,3.74156905e-16 C17.2667891,-2.32705376e-16 18.6036791,0.371302445 19.9073828,1.06853082 C21.2110865,1.76575919 22.2342408,2.78891348 22.9314692,4.09261719 C23.6286976,5.39632089 24,6.73321094 24,10.0368153 L24,13.9631847 C24,17.2667891 23.6286976,18.6036791 22.9314692,19.9073828 C22.2342408,21.2110865 21.2110865,22.2342408 19.9073828,22.9314692 C18.6036791,23.6286976 17.2667891,24 13.9631847,24 L10.0368153,24 C6.73321094,24 5.39632089,23.6286976 4.09261719,22.9314692 C2.78891348,22.2342408 1.76575919,21.2110865 1.06853082,19.9073828 C0.371302445,18.6036791 1.55136917e-16,17.2667891 -2.49437937e-16,13.9631847 L2.49437937e-16,10.0368153 C-1.55136917e-16,6.73321094 0.371302445,5.39632089 1.06853082,4.09261719 C1.76575919,2.78891348 2.78891348,1.76575919 4.09261719,1.06853082 C5.39632089,0.371302445 6.73321094,2.32705376e-16 10.0368153,-3.74156905e-16 Z" id="ðŸŒ¥-0%"></path>
                                <path d="M10.0368153,-3.74156905e-16 L13.9631847,3.74156905e-16 C17.2667891,-2.32705376e-16 18.6036791,0.371302445 19.9073828,1.06853082 C21.2110865,1.76575919 22.2342408,2.78891348 22.9314692,4.09261719 C23.6286976,5.39632089 24,6.73321094 24,10.0368153 L24,13.9631847 C24,17.2667891 23.6286976,18.6036791 22.9314692,19.9073828 C22.2342408,21.2110865 21.2110865,22.2342408 19.9073828,22.9314692 C18.6036791,23.6286976 17.2667891,24 13.9631847,24 L10.0368153,24 C6.73321094,24 5.39632089,23.6286976 4.09261719,22.9314692 C2.78891348,22.2342408 1.76575919,21.2110865 1.06853082,19.9073828 C0.371302445,18.6036791 1.55136917e-16,17.2667891 -2.49437937e-16,13.9631847 L2.49437937e-16,10.0368153 C-1.55136917e-16,6.73321094 0.371302445,5.39632089 1.06853082,4.09261719 C1.76575919,2.78891348 2.78891348,1.76575919 4.09261719,1.06853082 C5.39632089,0.371302445 6.73321094,2.32705376e-16 10.0368153,-3.74156905e-16 Z" id="â˜˜ï¸-Card-" fill="#4B8FE2"></path>
                            </g>
                            <text id="âœï¸-Txt-2" font-family="Inter-Regular, Inter" font-size="14" font-weight="normal" line-spacing="24" fill="#52677D">
                                <tspan x="32" y="14.0278422">Localization</tspan>
                            </text>
                        </g>
                        <g id="Group-1">
                            <g id="ðŸ€-Card-" transform="translate(0.000000, 0.027842)">
                                <path d="M10.0368153,-3.74156905e-16 L13.9631847,3.74156905e-16 C17.2667891,-2.32705376e-16 18.6036791,0.371302445 19.9073828,1.06853082 C21.2110865,1.76575919 22.2342408,2.78891348 22.9314692,4.09261719 C23.6286976,5.39632089 24,6.73321094 24,10.0368153 L24,13.9631847 C24,17.2667891 23.6286976,18.6036791 22.9314692,19.9073828 C22.2342408,21.2110865 21.2110865,22.2342408 19.9073828,22.9314692 C18.6036791,23.6286976 17.2667891,24 13.9631847,24 L10.0368153,24 C6.73321094,24 5.39632089,23.6286976 4.09261719,22.9314692 C2.78891348,22.2342408 1.76575919,21.2110865 1.06853082,19.9073828 C0.371302445,18.6036791 1.55136917e-16,17.2667891 -2.49437937e-16,13.9631847 L2.49437937e-16,10.0368153 C-1.55136917e-16,6.73321094 0.371302445,5.39632089 1.06853082,4.09261719 C1.76575919,2.78891348 2.78891348,1.76575919 4.09261719,1.06853082 C5.39632089,0.371302445 6.73321094,2.32705376e-16 10.0368153,-3.74156905e-16 Z" id="ðŸŒ¥-0%"></path>
                                <path d="M10.0368153,-3.74156905e-16 L13.9631847,3.74156905e-16 C17.2667891,-2.32705376e-16 18.6036791,0.371302445 19.9073828,1.06853082 C21.2110865,1.76575919 22.2342408,2.78891348 22.9314692,4.09261719 C23.6286976,5.39632089 24,6.73321094 24,10.0368153 L24,13.9631847 C24,17.2667891 23.6286976,18.6036791 22.9314692,19.9073828 C22.2342408,21.2110865 21.2110865,22.2342408 19.9073828,22.9314692 C18.6036791,23.6286976 17.2667891,24 13.9631847,24 L10.0368153,24 C6.73321094,24 5.39632089,23.6286976 4.09261719,22.9314692 C2.78891348,22.2342408 1.76575919,21.2110865 1.06853082,19.9073828 C0.371302445,18.6036791 1.55136917e-16,17.2667891 -2.49437937e-16,13.9631847 L2.49437937e-16,10.0368153 C-1.55136917e-16,6.73321094 0.371302445,5.39632089 1.06853082,4.09261719 C1.76575919,2.78891348 2.78891348,1.76575919 4.09261719,1.06853082 C5.39632089,0.371302445 6.73321094,2.32705376e-16 10.0368153,-3.74156905e-16 Z" id="â˜˜ï¸-Card-" fill="#09CF9E"></path>
                            </g>
                            <text id="âœï¸-Txt-1" font-family="Inter-Regular, Inter" font-size="14" font-weight="normal" line-spacing="24" fill="#52677D">
                                <tspan x="32" y="14.0278422">Expert</tspan>
                            </text>
                        </g>
                    </g>
                </g>
            </g>
        </g>
    </g>
</svg>