<?xml version="1.0" encoding="UTF-8"?>
<svg width="647px" height="534px" viewBox="0 0 647 534" version="1.1" xmlns="http://www.w3.org/2000/svg" xmlns:xlink="http://www.w3.org/1999/xlink">
    <!-- Generator: Sketch 52.6 (67491) - http://www.bohemiancoding.com/sketch -->
    <title>Group 5</title>
    <desc>Created with Sketch.</desc>
    <defs>
        <rect id="path-1" x="0" y="0" width="247.386395" height="208.165225" rx="10"></rect>
        <filter x="-42.4%" y="-36.0%" width="184.9%" height="200.9%" filterUnits="objectBoundingBox" id="filter-3">
            <feOffset dx="0" dy="30" in="SourceAlpha" result="shadowOffsetOuter1"></feOffset>
            <feGaussianBlur stdDeviation="30" in="shadowOffsetOuter1" result="shadowBlurOuter1"></feGaussianBlur>
            <feColorMatrix values="0 0 0 0 0   0 0 0 0 0   0 0 0 0 0  0 0 0 0.0812390734 0" type="matrix" in="shadowBlurOuter1"></feColorMatrix>
        </filter>
        <rect id="path-4" x="0" y="0" width="247.386395" height="208.165225" rx="10"></rect>
        <filter x="-42.4%" y="-36.0%" width="184.9%" height="200.9%" filterUnits="objectBoundingBox" id="filter-6">
            <feOffset dx="0" dy="30" in="SourceAlpha" result="shadowOffsetOuter1"></feOffset>
            <feGaussianBlur stdDeviation="30" in="shadowOffsetOuter1" result="shadowBlurOuter1"></feGaussianBlur>
            <feColorMatrix values="0 0 0 0 0   0 0 0 0 0   0 0 0 0 0  0 0 0 0.0812390734 0" type="matrix" in="shadowBlurOuter1"></feColorMatrix>
        </filter>
        <path d="M121.209399,11.8426683 C121.209399,5.28548617 115.920406,0 109.39864,0 L11.8505252,0 C5.28899278,0 0,5.28548617 0,11.8426683 C0,32.0705815 0,73.0032939 0,93.2312072 C0,99.7883893 5.28899278,105.073875 11.8505252,105.073875 C35.0346063,105.073875 86.2145591,105.073875 109.39864,105.073875 C115.920406,105.073875 121.209399,99.7883893 121.209399,93.2312072 C121.209399,73.0032939 121.209399,32.030841 121.209399,11.8426683 Z" id="path-7"></path>
        <filter x="-86.6%" y="-71.4%" width="273.3%" height="299.9%" filterUnits="objectBoundingBox" id="filter-8">
            <feOffset dx="0" dy="30" in="SourceAlpha" result="shadowOffsetOuter1"></feOffset>
            <feGaussianBlur stdDeviation="30" in="shadowOffsetOuter1" result="shadowBlurOuter1"></feGaussianBlur>
            <feColorMatrix values="0 0 0 0 0   0 0 0 0 0   0 0 0 0 0  0 0 0 0.0793542395 0" type="matrix" in="shadowBlurOuter1"></feColorMatrix>
        </filter>
        <path d="M63.2432289,10.6641483 C63.2432289,4.93273375 58.6567653,0.275959401 52.8112725,0.275959401 C41.2102175,0.275959401 22.5945711,0.275959401 11.0834468,0.275959401 C5.32788462,0.275959401 0.651490356,4.93273375 0.651490356,10.6641483 C0.651490356,21.0523373 0.651490356,36.9928341 0.651490356,47.3810231 C0.651490356,53.1124376 5.32788462,57.769212 11.0834468,57.769212 C22.5945711,57.769212 41.2102175,57.769212 52.8112725,57.769212 C58.5668347,57.769212 63.2432289,53.1124376 63.2432289,47.3810231 C63.2432289,36.9928341 63.2432289,21.1418906 63.2432289,10.6641483 Z" id="path-9"></path>
        <filter x="-159.8%" y="-139.1%" width="419.5%" height="447.9%" filterUnits="objectBoundingBox" id="filter-10">
            <feOffset dx="0" dy="20" in="SourceAlpha" result="shadowOffsetOuter1"></feOffset>
            <feGaussianBlur stdDeviation="30" in="shadowOffsetOuter1" result="shadowBlurOuter1"></feGaussianBlur>
            <feColorMatrix values="0 0 0 0 0   0 0 0 0 0   0 0 0 0 0  0 0 0 0.0760762675 0" type="matrix" in="shadowBlurOuter1"></feColorMatrix>
        </filter>
    </defs>
    <g id="Website-Second-Iteration" stroke="none" stroke-width="1" fill="none" fill-rule="evenodd">
        <g id="Homepage-Second-Iteration" transform="translate(-702.000000, -1377.000000)">
            <g id="Group-12" transform="translate(150.000000, 1157.000000)">
                <g id="Group-8" transform="translate(611.000000, 245.000000)">
                    <g id="Group-5">
                        <g id="Group-39">
                            <g id="Group-37" transform="translate(0.000000, 57.493253)">
                                <g id="Group-26">
                                    <g id="Group-34" transform="translate(0.000000, 59.475779)">
                                        <g id="Rectangle">
                                            <g transform="translate(0.000000, 0.273521)">
                                                <mask id="mask-2" fill="white">
                                                    <use xlink:href="#path-1"></use>
                                                </mask>
                                                <g id="Mask">
                                                    <use fill="black" fill-opacity="1" filter="url(#filter-3)" xlink:href="#path-1"></use>
                                                    <use fill="#FFFFFF" fill-rule="evenodd" xlink:href="#path-1"></use>
                                                </g>
                                                <rect fill="#F6F6F6" mask="url(#mask-2)" x="0" y="0.255458645" width="494.772791" height="53.6965284"></rect>
                                            </g>
                                        </g>
                                        <g id="Group-7" transform="translate(23.844472, 25.055096)" fill="#4D5E6C">
                                            <ellipse id="Oval" cx="4.47083847" cy="4.46068339" rx="4.47083847" ry="4.46068339"></ellipse>
                                            <ellipse id="Oval" opacity="0.201758" cx="18.3801137" cy="4.46068339" rx="4.47083847" ry="4.46068339"></ellipse>
                                            <ellipse id="Oval" opacity="0.201758" cx="32.2893889" cy="4.46068339" rx="4.47083847" ry="4.46068339"></ellipse>
                                        </g>
                                    </g>
                                    <g id="Group-28" transform="translate(162.937224, 109.312449)" stroke="#53A9E6" stroke-width="5">
                                        <path d="M157.969626,0.357812468 C90.3396317,-5.44390574 103.698643,60.8614452 103.698643,86.5547687 C103.698643,86.5547687 108.290803,115.977768 72.3884604,115.977768 L11.9222359,115.977768" id="Path"></path>
                                        <ellipse id="Oval" cx="5.96111796" cy="114.986505" rx="5.96111796" ry="5.94757786"></ellipse>
                                    </g>
                                    <g id="Group-34" transform="translate(281.166064, 0.000000)">
                                        <g id="Rectangle">
                                            <g transform="translate(0.000000, 0.273521)">
                                                <mask id="mask-5" fill="white">
                                                    <use xlink:href="#path-4"></use>
                                                </mask>
                                                <g id="Mask">
                                                    <use fill="black" fill-opacity="1" filter="url(#filter-6)" xlink:href="#path-4"></use>
                                                    <use fill="#FFFFFF" fill-rule="evenodd" xlink:href="#path-4"></use>
                                                </g>
                                                <rect fill="#F6F6F6" mask="url(#mask-5)" x="0" y="0.255458645" width="494.772791" height="53.6965284"></rect>
                                            </g>
                                        </g>
                                        <g id="Group-7" transform="translate(23.844472, 25.055096)" fill="#4D5E6C">
                                            <ellipse id="Oval" cx="4.47083847" cy="4.46068339" rx="4.47083847" ry="4.46068339"></ellipse>
                                            <ellipse id="Oval" opacity="0.201758" cx="18.3801137" cy="4.46068339" rx="4.47083847" ry="4.46068339"></ellipse>
                                            <ellipse id="Oval" opacity="0.201758" cx="32.2893889" cy="4.46068339" rx="4.47083847" ry="4.46068339"></ellipse>
                                        </g>
                                    </g>
                                    <path d="M281.166064,53.8017221 L528.552459,53.8017221 L528.552459,198.438746 C528.552459,203.961594 524.075307,208.438746 518.552459,208.438746 L291.166064,208.438746 C285.643216,208.438746 281.166064,203.961594 281.166064,198.438746 L281.166064,53.8017221 Z" id="Rectangle" fill="#FFFFFF"></path>
                                    <g id="Group-14" transform="translate(14.902795, 133.102760)">
                                        <rect id="Rectangle" fill="#BFE4FE" x="0" y="0" width="44.7083847" height="36.6767301"></rect>
                                        <path d="M34.5036798,8.54152681 L23.6172204,8.54152681 L23.6172204,7.16106445 C23.6172204,6.49089626 23.0517206,5.94757786 22.3541923,5.94757786 C21.6566641,5.94757786 21.0911643,6.49089626 21.0911643,7.16106445 L21.0911643,8.54152681 L10.2047049,8.54152681 C9.50717668,8.54152681 8.94167694,9.08484521 8.94167694,9.75501341 C8.94167694,10.4251816 9.50717668,10.9685 10.2047049,10.9685 L28.8042238,10.9685 C28.076888,13.2132884 26.2544228,17.7402406 22.3481298,22.2586175 C19.9625225,19.5018996 18.3465203,16.7306198 17.2761461,14.4400425 C16.990365,13.8287688 16.243326,13.5554916 15.6065915,13.8299014 C14.9701938,14.104473 14.6859283,14.8225334 14.971541,15.4339689 C16.1539037,17.9643311 17.9570024,21.0420568 20.6460733,24.0867755 C18.7291336,25.9974506 16.4078565,27.8500402 13.6044395,29.4662425 C13.0062695,29.8110345 12.8122684,30.5564389 13.1713051,31.1311461 C13.4080808,31.5104011 13.8263957,31.7204152 14.2554884,31.7204152 C14.4766025,31.7204152 14.7007478,31.6645948 14.9041796,31.5472911 C17.8761687,29.8340099 20.3309899,27.8739863 22.3476246,25.8832211 C24.3869938,27.8950201 26.8441727,29.841129 29.8038683,31.5472911 C30.0073001,31.6645948 30.2314454,31.7204152 30.4525595,31.7204152 C30.8816522,31.7204152 31.2999671,31.5104011 31.5367428,31.1311461 C31.8956111,30.5564389 31.70161,29.8110345 31.1036084,29.4662425 C28.2953077,27.8474514 25.9718414,25.9961562 24.05086,24.084025 C26.0361716,21.8385894 27.4923587,19.6365157 28.5285469,17.7878093 C30.2051744,14.7961603 31.0618442,12.2813307 31.4405842,10.9683382 L34.5036798,10.9683382 C35.201208,10.9683382 35.7667078,10.4250198 35.7667078,9.75485161 C35.7667078,9.08468341 35.2013764,8.54152681 34.5036798,8.54152681 Z" id="Path" fill="#059BFF" fill-rule="nonzero"></path>
                                        <rect id="Rectangle" fill="#EFF0F0" fill-rule="nonzero" x="55.637101" y="0" width="157.969626" height="11.8297996"></rect>
                                        <rect id="Rectangle" fill="#EFF0F0" fill-rule="nonzero" opacity="0.530970982" x="55.637101" y="22.2236119" width="70.5398959" height="11.8297996"></rect>
                                        <rect id="Rectangle" fill="#EFF0F0" fill-rule="nonzero" x="0" y="44.6068339" width="213.606727" height="11.8297996"></rect>
                                        <rect id="Rectangle" fill="#EFF0F0" fill-rule="nonzero" opacity="0.530970982" x="0" y="66.8304458" width="144.060351" height="11.8297996"></rect>
                                        <rect id="Rectangle" fill="#EFF0F0" fill-rule="nonzero" opacity="0.530970982" x="0" y="88.6382313" width="104.319564" height="11.8297996"></rect>
                                    </g>
                                    <g id="Group-29" transform="translate(296.068859, 69.249759)">
                                        <rect id="Rectangle" fill="#FFF1D2" x="0" y="4.37722286" width="44.7083847" height="36.6767301"></rect>
                                        <text id="A" font-family="Helvetica" font-size="38" font-weight="normal" fill="#FEC62E">
                                            <tspan x="10.9287163" y="37.2155879">A</tspan>
                                        </text>
                                        <rect id="Rectangle" fill="#EFF0F0" fill-rule="nonzero" x="55.637101" y="4.37722286" width="157.969626" height="11.8297996"></rect>
                                        <rect id="Rectangle" fill="#EFF0F0" fill-rule="nonzero" opacity="0.530970982" x="55.637101" y="26.6008347" width="70.5398959" height="11.8297996"></rect>
                                        <rect id="Rectangle" fill="#EFF0F0" fill-rule="nonzero" x="0" y="48.9840568" width="213.606727" height="11.8297996"></rect>
                                        <rect id="Rectangle" fill="#EFF0F0" fill-rule="nonzero" opacity="0.530970982" x="0" y="71.2076687" width="144.060351" height="11.8297996"></rect>
                                        <rect id="Rectangle" fill="#EFF0F0" fill-rule="nonzero" opacity="0.530970982" x="0" y="93.0154541" width="104.319564" height="11.8297996"></rect>
                                    </g>
                                </g>
                                <g id="Group" transform="translate(323.887409, 256.737111)" fill-rule="nonzero">
                                    <g id="Path">
                                        <use fill="black" fill-opacity="1" filter="url(#filter-8)" xlink:href="#path-7"></use>
                                        <use fill="#EBFAF2" xlink:href="#path-7"></use>
                                    </g>
                                    <path d="M0,80.292301 L121.209399,80.292301 L121.209399,93.2390851 C121.209399,99.7919053 115.920406,105.073875 109.39864,105.073875 C86.2145591,105.073875 35.0346063,105.073875 11.8505252,105.073875 C5.28899278,105.073875 0,99.7919053 0,93.2390851 L0,80.292301 Z" id="Path" fill="#FFFFFF"></path>
                                    <path d="M61.5982189,89.7092993 C61.5982189,88.8705383 60.8788885,88.2224049 60.0396696,88.2224049 C54.125175,88.2224049 33.2645923,88.2224049 27.3900604,88.2224049 C26.5508416,88.2224049 25.8315112,88.9086638 25.8315112,89.7092993 C25.8315112,89.7092993 25.8315112,89.7092993 25.8315112,89.7092993 C25.8315112,90.5480603 26.5508416,91.1961938 27.3900604,91.1961938 C33.3045551,91.1961938 54.1651378,91.1961938 60.0396696,91.1961938 C60.8788885,91.1961938 61.5982189,90.5099348 61.5982189,89.7092993 C61.5982189,89.7092993 61.5982189,89.7092993 61.5982189,89.7092993 Z" id="Path" fill="#EFF0F0"></path>
                                    <path d="M49.675983,95.6568772 C49.675983,94.8181162 48.9758191,94.1699827 48.1589611,94.1699827 C42.4020577,94.1699827 33.1054365,94.1699827 27.348533,94.1699827 C26.5316751,94.1699827 25.8315112,94.8562417 25.8315112,95.6568772 C25.8315112,95.6568772 25.8315112,95.6568772 25.8315112,95.6568772 C25.8315112,96.4956382 26.5316751,97.1437716 27.348533,97.1437716 C33.1054365,97.1437716 42.4020577,97.1437716 48.1589611,97.1437716 C49.0147171,97.1437716 49.675983,96.4956382 49.675983,95.6568772 C49.675983,95.6568772 49.675983,95.6568772 49.675983,95.6568772 Z" id="Path" fill="#EFF0F0"></path>
                                    <path d="M113.554509,25.8511492 L114.15138,26.2818643 C114.270754,26.6342676 114.270754,26.6342676 114.230963,26.9866708 L114.071797,27.2999182 C109.774329,32.625123 104.521868,37.5587687 97.9165001,38.8900699 C92.7436218,39.9472797 87.4115779,38.4201989 82.1989082,37.1672095 C77.7024831,36.0708438 72.8479358,35.5618169 68.6300503,37.4804568 C63.457172,39.790656 59.9555312,44.567678 55.976394,48.7573612 C52.1962137,52.672953 48.5354075,56.7060126 43.8400256,59.368615 C41.9300397,60.4649807 39.6619315,61.1697872 37.3938233,60.7390721 C33.0963552,59.9167978 30.191585,55.6879587 25.9736996,55.3747114 C19.9652024,54.9048403 14.2750362,59.4077709 10.61423,63.1275831 L10.2561076,63.4016745 L9.50007157,63.4408305 C9.18174059,63.2450509 9.18174059,63.2450509 8.98278373,62.9318035 C8.98278373,62.9318035 8.78382687,62.2661529 9.26132333,61.7962819 C9.69902842,61.3655668 9.81840254,61.2480991 10.0969421,60.9740076 C13.9567052,57.4108191 18.532713,54.2783457 23.5066345,53.5735391 C26.0930737,53.2211359 28.8386783,53.7693187 31.0272038,55.2180877 C31.3853262,55.4530232 31.7434485,55.6879587 32.0617795,55.9228942 C34.5288445,57.6065987 37.2346578,59.4469268 40.0598452,58.8204321 C43.6808601,58.0373138 46.5060475,55.2180877 49.3710263,52.5554853 C53.509329,48.7182053 57.1701352,44.2935866 61.109481,40.4563066 C64.8100786,36.8539622 69.664626,34.2305157 74.8375044,34.1913597 C83.5916062,34.1130479 91.9875857,39.790656 100.900853,35.953376 C105.675818,33.8781124 109.416207,30.0408324 112.519934,26.1252406 L113.156596,25.7728374 C113.315761,25.8511492 113.435135,25.8511492 113.554509,25.8511492 Z" id="Path" fill="#65D397"></path>
                                </g>
                            </g>
                            <g id="Group-28" transform="translate(101.339005, 0.000000)" fill-rule="nonzero">
                                <g id="Group" transform="translate(0.000000, 13.877682)">
                                    <g id="Path">
                                        <use fill="black" fill-opacity="1" filter="url(#filter-10)" xlink:href="#path-9"></use>
                                        <use fill="#EDE8FA" xlink:href="#path-9"></use>
                                    </g>
                                </g>
                                <g id="Group-38" transform="translate(15.896315, 24.781574)" fill="#6736E3">
                                    <path d="M9.17772465,31.6016897 C7.48771102,31.6016897 6.11768428,32.9686045 6.11768428,34.6547795 C6.11768428,36.3409544 7.48771102,37.7078693 9.17772465,37.7078693 C10.8677383,37.7078693 12.237765,36.3409544 12.237765,34.6547795 C12.237765,32.9686045 10.8677383,31.6016897 9.17772465,31.6016897 Z" id="Path"></path>
                                    <path d="M22.0736091,31.6016897 C20.3835954,31.6016897 19.0135687,32.9686045 19.0135687,34.6547795 C19.0135687,36.3409544 20.3835954,37.7078693 22.0736091,37.7078693 C23.7636227,37.7078693 25.1336494,36.3409544 25.1336494,34.6547795 C25.1336494,32.9686045 23.7636227,31.6016897 22.0736091,31.6016897 Z" id="Path"></path>
                                    <path d="M36.2213282,0.000227896718 L30.7172296,0.000227896718 C29.9572088,-0.00902898538 29.3056064,0.53977555 29.1872094,1.28886969 L28.2930418,6.95889357 L1.54749411,6.95889357 C1.09734159,6.95899116 0.669471472,7.15435138 0.375140983,7.49417555 C0.0803405477,7.83922647 -0.0501222768,8.29480919 0.0174739268,8.74316682 L3.05764391,28.2115705 C3.17508677,28.9641498 3.82428371,29.5193404 4.58766409,29.5200376 L26.4450953,29.5200376 C27.2084757,29.5193404 27.8576726,28.9641498 27.9751155,28.2115705 L28.4520049,25.0791797 L31.9690643,3.07314294 L36.161717,3.07314294 C36.5709354,3.07844584 36.9652263,2.91995797 37.2564728,2.63309849 C37.5477192,2.34623901 37.7116421,1.9549214 37.7116076,1.54659805 C37.7122241,0.715259086 37.0539435,0.0322022533 36.2213282,0.000227896718 Z M4.42870095,16.5146681 L26.782892,16.5146681 L26.226521,20.1426904 L4.94533115,20.1426904 L4.42870095,16.5146681 Z M27.7366708,10.0318086 L27.2001702,13.4219278 L3.89220037,13.4219278 L3.35569979,10.0318086 L27.7366708,10.0318086 Z M5.87923957,26.4272973 L5.38247977,23.2354307 L25.67015,23.2354307 L25.4515757,24.643024 L25.1733902,26.4272973 L5.87923957,26.4272973 Z" id="Shape"></path>
                                </g>
                                <g id="tick" transform="translate(49.675983, 0.000000)">
                                    <ellipse id="Oval" fill="#FFFFFF" cx="13.9092752" cy="13.8776817" rx="13.9092752" ry="13.8776817"></ellipse>
                                    <path d="M13.9092752,0 C6.22739768,0 0,6.21325275 0,13.8776817 C0,21.5421106 6.22739768,27.7553633 13.9092752,27.7553633 C21.5911528,27.7553633 27.8185505,21.5421106 27.8185505,13.8776817 C27.8104005,6.21667958 21.5877764,0.00818954734 13.9092752,0 Z M21.5663536,9.62219539 L11.6311237,19.5348583 C11.2431266,19.921858 10.6142394,19.921858 10.2263005,19.5348583 L6.2521969,15.5697815 C5.85750514,15.1894613 5.84656088,14.5619445 6.22774696,14.1681492 C6.60893305,13.774354 7.23787844,13.7634346 7.6325702,14.1437548 C7.6408366,14.1517701 7.64898658,14.1598435 7.65702013,14.1681492 L10.9287121,17.4324099 L20.1615303,8.22056307 C20.5562221,7.84024282 21.1851675,7.85116221 21.5663536,8.24489939 C21.9382254,8.62905305 21.9382254,9.23804173 21.5663536,9.62219539 Z" id="Shape" fill="#3BB665"></path>
                                </g>
                            </g>
                        </g>
                    </g>
                </g>
            </g>
        </g>
    </g>
</svg>