<?xml version="1.0" encoding="UTF-8"?>
<svg width="22px" height="22px" viewBox="0 0 22 22" version="1.1" xmlns="http://www.w3.org/2000/svg" xmlns:xlink="http://www.w3.org/1999/xlink">
    <!-- Generator: Sketch 52.6 (67491) - http://www.bohemiancoding.com/sketch -->
    <title>speech-bubble(1)</title>
    <desc>Created with Sketch.</desc>
    <g id="Website" stroke="none" stroke-width="1" fill="none" fill-rule="evenodd">
        <g id="Translator's-Hub" transform="translate(-150.000000, -1621.000000)" fill="#53A9E6" fill-rule="nonzero">
            <g id="Skills" transform="translate(149.000000, 980.000000)">
                <g id="tabs" transform="translate(0.000000, 419.000000)">
                    <g id="container">
                        <g id="Solutions" transform="translate(1.000000, 218.000000)">
                            <g id="speech-bubble(1)" transform="translate(0.000000, 4.000000)">
                                <path d="M17.875,0 L4.125,0 C1.8500625,0 0,1.8500625 0,4.125 L0,13.75 C0,16.0249375 1.8500625,17.875 4.125,17.875 L12.375,17.875 L12.375,21.3125 C12.375,21.59025 12.54275,21.8411875 12.7991875,21.94775 C12.8844375,21.9828125 12.9738125,22 13.0625,22 C13.24125,22 13.41725,21.929875 13.5485625,21.7985625 L17.472125,17.875 L17.875,17.875 C20.1499375,17.875 22,16.0249375 22,13.75 L22,4.125 C22,1.8500625 20.1499375,0 17.875,0 Z M20.625,13.75 C20.625,15.266625 19.391625,16.5 17.875,16.5 L17.1875,16.5 C17.0053125,16.5 16.83,16.5721875 16.7014375,16.7014375 L13.75,19.652875 L13.75,17.1875 C13.75,16.808 13.442,16.5 13.0625,16.5 L4.125,16.5 C2.608375,16.5 1.375,15.266625 1.375,13.75 L1.375,4.125 C1.375,2.608375 2.608375,1.375 4.125,1.375 L17.875,1.375 C19.391625,1.375 20.625,2.608375 20.625,4.125 L20.625,13.75 Z" id="Shape"></path>
                                <path d="M14.4271875,6.2445625 C14.4265,6.243875 14.4265,6.243875 14.4258125,6.2431875 C13.9775625,5.7619375 13.3780625,5.49725 12.736625,5.49725 C12.095875,5.49725 11.496375,5.762625 11.0501875,6.2418125 L11,6.2954375 L10.9525625,6.2445625 C10.5056875,5.764 9.9061875,5.5 9.266125,5.5 C9.266125,5.5 9.2654375,5.5 9.26475,5.5 C8.6246875,5.5 8.0245,5.7633125 7.5755625,6.2459375 C6.683875,7.2070625 6.683875,8.7704375 7.5783125,9.735 L10.5001875,12.84525 C10.630125,12.984125 10.811625,13.0625 11.001375,13.0625 C11.191125,13.0625 11.372625,12.984125 11.5025625,12.8459375 L14.4271875,9.73225 C15.318875,8.771125 15.318875,7.206375 14.4271875,6.2445625 Z M13.4014375,8.7938125 L10.960125,11.37125 L8.501625,8.79725 C8.0953125,8.358625 8.0128125,7.6175 8.4184375,7.18025 C8.6040625,6.9815625 8.9375,6.87225 8.9375,6.87225 L8.9375,6.9045625 C9.625,6.9045625 9.5975,7.0461875 9.7810625,7.2441875 L10.492625,7.90075 C10.6225625,8.0403125 10.80475,8.25 10.9951875,8.25 C10.995875,8.25 10.9965625,8.25 10.99725,8.25 C11.187,8.25 11.3678125,8.0416875 11.49775,7.9035 L12.0525625,7.18025 C12.2375,6.9815625 12.4774375,6.87225 12.7318125,6.87225 C12.986875,6.87225 13.2240625,6.9815625 13.4096875,7.1809375 C13.8153125,7.618875 13.805,8.358625 13.4014375,8.7938125 Z" id="Shape"></path>
                            </g>
                        </g>
                    </g>
                </g>
            </g>
        </g>
    </g>
</svg>