<?xml version="1.0" encoding="UTF-8"?>
<svg width="60px" height="60px" viewBox="0 0 60 60" version="1.1" xmlns="http://www.w3.org/2000/svg" xmlns:xlink="http://www.w3.org/1999/xlink">
    <!-- Generator: Sketch 52.6 (67491) - http://www.bohemiancoding.com/sketch -->
    <title>Group 25</title>
    <desc>Created with Sketch.</desc>
    <g id="Website-Second-Iteration" stroke="none" stroke-width="1" fill="none" fill-rule="evenodd">
        <g id="Product-Catalog" transform="translate(-1168.000000, -593.000000)">
            <g id="Group-25" transform="translate(1168.000000, 593.000000)">
                <g id="Group_65" fill="#FFF1D2">
                    <g id="Group-7">
                        <circle id="Oval" cx="30" cy="30" r="30"></circle>
                    </g>
                </g>
                <g id="star" transform="translate(9.000000, 11.000000)" fill="#FED159" fill-rule="nonzero">
                    <path d="M40.1422962,16.4164015 C40.920245,15.6667627 41.1948893,14.5665679 40.859241,13.5451778 C40.5235087,12.5237877 39.647131,11.7933938 38.5720495,11.6390198 L29.1713796,10.2886413 C28.9868569,10.2621796 28.8273401,10.1476226 28.7447706,9.98221596 L24.5406917,1.56132585 C24.0599594,0.598251091 23.0864115,0 22.0000018,0 C20.9135922,0 19.9400443,0.598251091 19.459312,1.56132585 L15.2552331,9.98229891 C15.1725797,10.1476226 15.0131467,10.2621796 14.8285401,10.2887243 L5.42803807,11.6390198 C4.35295655,11.7933938 3.47666274,12.5237877 3.14084661,13.5451778 C2.80503048,14.5665679 3.07975862,15.6667627 3.85779139,16.4164015 L10.6601238,22.9711994 C10.793628,23.0999412 10.854632,23.2853393 10.8230811,23.4670875 L9.2172557,32.7225595 C9.03365607,33.7811122 9.46546762,34.8307061 10.3443627,35.4619721 C11.2232578,36.0934041 12.3668116,36.1749461 13.3282761,35.6753251 L21.7363501,31.3054875 C21.901489,31.219632 22.0985985,31.219632 22.2638214,31.3054875 L30.6719793,35.6753251 C31.090197,35.8926598 31.5427349,36.0000829 31.993091,36 C32.5779582,36 33.1591332,35.8188324 33.6556409,35.4618892 C34.534536,34.8305402 34.9664315,33.7808633 34.782748,32.7224765 L33.1769226,23.4670046 C33.1454555,23.2852564 33.2063757,23.0998583 33.3398798,22.9711165 L40.1422962,16.4164015 Z M30.9430992,23.8459301 L32.5489246,33.101568 C32.6026283,33.4113114 32.409211,33.5879166 32.3235367,33.6493842 C32.2377786,33.7107688 32.0080273,33.8382663 31.7267541,33.6919386 L23.3185962,29.322101 C22.9058327,29.1076696 22.4530431,29.0003295 22.0001697,29.0003295 C21.5472962,29.0003295 21.0944227,29.1076696 20.6817431,29.322018 L12.2736692,33.6917727 C11.9922281,33.8380174 11.7625607,33.7106858 11.6768865,33.6492182 C11.5912122,33.5877507 11.397711,33.4111455 11.4514986,33.1014021 L13.057324,23.8459301 C13.2149948,22.937189 12.9104779,22.0104473 12.2424539,21.3668214 L5.44012141,14.8120234 C5.21246795,14.592532 5.26398996,14.3372881 5.29679958,14.2377455 C5.32944138,14.13812 5.43961794,13.9016233 5.75420431,13.8564973 L15.1546225,12.5061189 C16.0775714,12.3735613 16.8751557,11.8008595 17.2880031,10.9739092 L21.492082,2.55293616 C21.6328026,2.27114762 21.8942726,2.24070417 22.0002536,2.24070417 C22.1060667,2.24070417 22.3675367,2.27106467 22.5083412,2.55293616 L22.5083412,2.55301911 L26.7124201,10.9739922 C27.1251836,11.8009424 27.922684,12.3736442 28.8456329,12.5062018 L38.2462189,13.8565803 C38.5608053,13.9017063 38.6708979,14.1382029 38.7036236,14.2378285 C38.7363493,14.337454 38.7879553,14.5927808 38.5602179,14.8121064 L31.7578854,21.3669044 C31.0899453,22.0104473 30.7854284,22.937189 30.9430992,23.8459301 Z" id="Shape"></path>
                    <path d="M34.5960173,2.22077441 C34.1581037,1.84563289 33.5454165,1.96012636 33.227356,2.47645936 L32.1872024,4.16493846 C31.8691419,4.68127147 31.9661416,5.40408633 32.4039827,5.77922785 C32.5780308,5.92820627 32.779503,6 32.9791614,6 C33.282204,6 33.5809661,5.83476317 33.772644,5.52362846 L34.8127976,3.83514936 C35.1308581,3.31873079 35.0338584,2.59591592 34.5960173,2.22077441 Z" id="Path"></path>
                    <path d="M10.8127626,4.16483575 L9.7726143,2.47634088 C9.45462796,1.96017419 8.84187127,1.84567966 8.40395991,2.22065354 C7.96619365,2.59579855 7.86912184,3.31862017 8.18718073,3.834958 L9.22732904,5.52345287 C9.4190785,5.8348472 9.7178391,6 10.0209527,6 C10.2206827,6 10.4222264,5.9282056 10.596056,5.77914022 C11.0338222,5.40408077 11.130894,4.68125915 10.8127626,4.16483575 Z" id="Path"></path>
                    <path d="M3.9470528,24.8104156 C3.76344782,24.1946791 3.15655571,23.8575996 2.59140287,24.0576945 L0.743643809,24.712061 C0.178490965,24.9121558 -0.130650429,25.5737275 0.0529545476,26.189464 C0.200635079,26.6850568 0.622408766,27 1.07588518,27 C1.18604816,27 1.29812287,26.9813361 1.40860448,26.9421852 L3.25636354,26.2878187 C3.82143673,26.0877238 4.13065777,25.4263258 3.9470528,24.8104156 Z" id="Path"></path>
                    <path d="M21.5,38 C20.6715904,38 20,38.470547 20,39.0509688 L20,40.9490312 C20,41.529453 20.6715904,42 21.5,42 C22.3284096,42 23,41.529453 23,40.9490312 L23,39.0509688 C23,38.4704692 22.3285207,38 21.5,38 Z" id="Path"></path>
                    <path d="M42.2563635,24.712037 L40.4086045,24.0576387 C39.8436906,23.8577078 39.2365595,24.1945432 39.0529545,24.8104832 C38.8693496,25.4264231 39.178491,26.0878532 39.7436438,26.2879578 L41.5914029,26.942356 C41.7018845,26.981422 41.8138795,27 41.9240425,27 C42.3775986,27 42.7993723,26.6849547 42.9470528,26.1894247 C43.1306578,25.5735716 42.8214367,24.9121415 42.2563635,24.712037 Z" id="Path"></path>
                </g>
            </g>
        </g>
    </g>
</svg>