<?xml version="1.0" encoding="UTF-8"?>
<svg width="63px" height="63px" viewBox="0 0 63 63" version="1.1" xmlns="http://www.w3.org/2000/svg" xmlns:xlink="http://www.w3.org/1999/xlink">
    <!-- Generator: Sketch 52.6 (67491) - http://www.bohemiancoding.com/sketch -->
    <title>icon</title>
    <desc>Created with Sketch.</desc>
    <g id="Website" stroke="none" stroke-width="1" fill="none" fill-rule="evenodd">
        <g id="Translator's-Hub" transform="translate(-297.000000, -2308.000000)" fill="#53A9E6" fill-rule="nonzero">
            <g id="Tools" transform="translate(0.000000, 1881.000000)">
                <g id="features" transform="translate(145.000000, 384.000000)">
                    <g id="style-guide">
                        <g id="icon" transform="translate(152.000000, 43.000000)">
                            <path d="M27.9166667,20.1656887 L23.5833333,20.1656887 L23.5833333,19.0828443 C23.5833333,18.4848059 23.0983085,18 22.5,18 C21.9016915,18 21.4166667,18.4848059 21.4166667,19.0828443 L21.4166667,20.1656887 L17.0833333,20.1656887 C16.4850249,20.1656887 16,20.6504946 16,21.248533 C16,21.8465714 16.4850249,22.3313773 17.0833333,22.3313773 L24.32975,22.3313773 C23.9306801,23.4754049 23.3493913,24.5475064 22.6083333,25.5062769 C22.1074683,25.0061092 21.6467156,24.4673588 21.2303333,23.8950046 C20.8966055,23.4013142 20.2265541,23.2698652 19.7308976,23.6008489 C19.235241,23.9318325 19.1002206,24.6008829 19.42875,25.0980446 C19.927407,25.8007878 20.4859624,26.4590857 21.0981667,27.0655728 C20.1298932,27.8721778 19.0180974,28.4889919 17.8210833,28.8836684 C17.2526903,29.0726485 16.9451845,29.6864128 17.13425,30.2545493 C17.3233155,30.8226858 17.9373569,31.1300528 18.50575,30.9410726 C20.0583312,30.4327564 21.4923758,29.6166186 22.7220833,28.5414896 C23.842055,29.4526459 25.0582714,30.2387629 26.3490833,30.8858476 C26.6954821,31.0587754 27.1078653,31.0338491 27.4308921,30.8204583 C27.753919,30.6070674 27.9385141,30.2376312 27.9151422,29.8513126 C27.8917702,29.464994 27.6639821,29.120484 27.3175833,28.9475562 C26.2227347,28.3954065 25.1889734,27.7297716 24.2333333,26.9616197 C25.3138736,25.585174 26.1180152,24.0129152 26.6015,22.3313773 L27.9166667,22.3313773 C28.5149751,22.3313773 29,21.8465714 29,21.248533 C29,20.6504946 28.5149751,20.1656887 27.9166667,20.1656887 Z" id="Path"></path>
                            <path d="M17.4876181,46.5616996 C17.2807762,46.2133702 16.9066593,46 16.502751,46 C16.0988428,46 15.7247258,46.2133702 15.5178839,46.5616996 L11.1162434,55.4005668 C10.8445837,55.9466926 11.0653001,56.6105289 11.6092271,56.8832867 C12.1531542,57.1560445 12.8143179,56.934436 13.0859775,56.3883102 L16.497249,49.5260347 L18.0180158,52.5798633 L16.497249,52.5798633 C15.8895092,52.5798633 15.3968388,53.0745252 15.3968388,53.6847217 C15.3968388,54.2949181 15.8895092,54.7895801 16.497249,54.7895801 L19.1184259,54.7895801 L19.9140225,56.3883102 C20.1856821,56.934436 20.8468458,57.1560445 21.3907729,56.8832867 C21.9346999,56.6105289 22.1554163,55.9466926 21.8837566,55.4005668 L17.4876181,46.5616996 Z" id="Path"></path>
                            <path d="M31.6248046,46.0000644 L27.1249609,46.0000644 C26.5036622,46.0000644 26,46.4925454 26,47.1000515 L26,55.8999485 C26,56.5074546 26.5036622,56.9999356 27.1249609,56.9999356 L31.6248046,56.9999356 C32.9585745,57.0057072 34.1695765,56.2395904 34.7108246,55.0476252 C35.2520727,53.85566 35.0210943,52.4635169 34.1222178,51.5 C35.0210943,50.5364831 35.2520727,49.14434 34.7108246,47.9523748 C34.1695765,46.7604096 32.9585745,45.9942928 31.6248046,46.0000644 Z M31.6248046,54.7999614 L28.2499218,54.7999614 L28.2499218,48.2000386 L31.6248046,48.2000386 C32.2461033,48.2000386 32.7497655,48.6925197 32.7497655,49.3000258 C32.7497655,49.9075319 32.2461033,50.4000129 31.6248046,50.4000129 L30.4998437,50.4000129 C29.8785449,50.4000129 29.3748827,50.8924939 29.3748827,51.5 C29.3748827,52.1075061 29.8785449,52.5999871 30.4998437,52.5999871 L31.6248046,52.5999871 C32.2461033,52.5999871 32.7497655,53.0924681 32.7497655,53.6999742 C32.7497655,54.3074803 32.2461033,54.7999614 31.6248046,54.7999614 Z" id="Shape"></path>
                            <path d="M57.5689655,19.5517241 L49.9655172,19.5517241 L49.9655172,2.17241379 C49.9655172,0.972622785 48.9928945,0 47.7931034,0 L6.51724138,0 C5.31745037,0 4.34482759,0.972622785 4.34482759,2.17241379 L4.34482759,4.34482759 L2.17241379,4.34482759 C0.972622785,4.34482759 0,5.31745037 0,6.51724138 L0,60.8275862 C0,62.0273772 0.972622785,63 2.17241379,63 L43.4482759,63 C44.6480669,63 45.6206897,62.0273772 45.6206897,60.8275862 L45.6206897,58.6551724 L47.7931034,58.6551724 C48.9928945,58.6551724 49.9655172,57.6825496 49.9655172,56.4827586 L49.9655172,30.4137931 L57.5689655,30.4137931 C60.568443,30.4137931 63,27.9822361 63,24.9827586 C63,21.9832811 60.568443,19.5517241 57.5689655,19.5517241 Z M6.51724138,2.17241379 L47.7931034,2.17241379 L47.7931034,19.5517241 L45.6206897,19.5517241 L45.6206897,6.51724138 C45.6206897,5.31745037 44.6480669,4.34482759 43.4482759,4.34482759 L6.51724138,4.34482759 L6.51724138,2.17241379 Z M43.4482759,60.8275862 L2.17241379,60.8275862 L2.17241379,6.51724138 L43.4482759,6.51724138 L43.4482759,19.5517241 L41.2758621,19.5517241 C40.0760711,19.5517241 39.1034483,20.5243469 39.1034483,21.7241379 L36.5378276,21.7241379 C36.4846034,21.4949483 36.4292069,21.267931 36.3607759,21.0430862 C36.314069,20.8812414 36.2641034,20.7172241 36.2119655,20.5608103 C36.1098621,20.2479828 35.9947241,19.9427586 35.8741552,19.6407931 C35.841569,19.5615 35.8111552,19.4822069 35.7774828,19.4029138 C34.3498892,16.0594244 31.679959,13.4007876 28.3304483,11.9873793 L28.2674483,11.9613103 C27.8959655,11.8056207 27.5168793,11.6665862 27.1301897,11.5442069 C27.0585,11.5203103 26.9868103,11.4964138 26.9129483,11.4746897 C26.5718793,11.366069 26.2253793,11.2835172 25.8734483,11.2063966 C25.7648276,11.1835862 25.6627241,11.156431 25.5562759,11.1347069 C25.2195517,11.0695345 24.8784828,11.0260862 24.5352414,10.9782931 C24.4190172,10.9641724 24.3049655,10.9435345 24.1876552,10.9315862 C23.7347069,10.8881379 23.2752414,10.862069 22.8103448,10.862069 C15.0117033,10.862069 8.68965517,17.1841171 8.68965517,24.9827586 C8.68965517,32.7814002 15.0117033,39.1034483 22.8103448,39.1034483 C23.2752414,39.1034483 23.7347069,39.0773793 24.1887414,39.033931 C24.3060517,39.0219828 24.4201034,39.0013448 24.5363276,38.9872241 C24.879569,38.9448621 25.2206379,38.8959828 25.5573621,38.8308103 C25.6659828,38.8090862 25.7680862,38.7830172 25.8734483,38.7591207 C26.2253793,38.682 26.5729655,38.5940172 26.9151207,38.4908276 C26.9868103,38.4691034 27.0574138,38.4452069 27.1323621,38.4223966 C27.5197759,38.298569 27.8995862,38.1591724 28.2717931,38.0042069 L28.3337069,37.9781379 C31.6862539,36.5636525 34.357772,33.9014822 35.784,30.5539138 C35.8144138,30.4833103 35.8426552,30.4116207 35.8719828,30.3366724 C35.9979828,30.0271034 36.1142069,29.7121034 36.2184828,29.3905862 C36.2695345,29.2385172 36.3162414,29.0864483 36.3607759,28.9322069 C36.4270345,28.7030172 36.4867759,28.4716552 36.5421724,28.2381207 L39.1034483,28.2381207 C39.1034483,29.4379117 40.0760711,30.4105345 41.2758621,30.4105345 L43.4482759,30.4105345 L43.4482759,60.8275862 Z M27.4288966,36.0012414 C27.1149828,36.1326724 26.7923793,36.2488966 26.4643448,36.3542586 C26.4046034,36.3738103 26.3437759,36.3944483 26.2829483,36.4129138 C25.9951034,36.5008966 25.7007414,36.5736724 25.4042069,36.6388448 C25.3140517,36.6594828 25.2249828,36.6822931 25.1337414,36.7007586 C24.8502414,36.7561552 24.5613103,36.797431 24.2702069,36.8321897 C24.1724483,36.8441379 24.0757759,36.8626034 23.976931,36.8723793 C23.5935,36.9093103 23.2046379,36.9310345 22.8103448,36.9310345 C16.2114943,36.9310345 10.862069,31.5816092 10.862069,24.9827586 C10.862069,18.3839081 16.2114943,13.0344828 22.8103448,13.0344828 C23.2046379,13.0344828 23.5935,13.0562069 23.976931,13.0931379 C24.0757759,13.1029138 24.1724483,13.1213793 24.2702069,13.1333276 C24.5613103,13.1680862 24.8502414,13.2093621 25.1337414,13.2647586 C25.2249828,13.2832241 25.3140517,13.3060345 25.4042069,13.3266724 C25.7007414,13.3918448 25.9951034,13.4646207 26.2829483,13.5526034 C26.3448621,13.571069 26.4046034,13.5917069 26.465431,13.6112586 C26.7912931,13.7198793 27.1171552,13.8285 27.4267241,13.9642759 L27.4832069,13.9870862 C30.3051724,15.19406 32.5584613,17.4349128 33.7810345,20.2501552 C33.8136207,20.3272759 33.8440345,20.4043966 33.8755345,20.4815172 C33.9754655,20.7259138 34.0656207,20.9746552 34.1492586,21.2266552 C34.1970517,21.3722069 34.2426724,21.5177586 34.2850345,21.6611379 C34.3393448,21.8490517 34.3860517,22.0402241 34.4316724,22.2324828 C34.4772931,22.4247414 34.5218276,22.6235172 34.5576724,22.8222931 C34.5935172,23.021069 34.6185,23.1926897 34.6434828,23.3806034 C34.6662931,23.5478793 34.6912759,23.7162414 34.707569,23.8846034 C34.7401552,24.2452241 34.7629655,24.6091034 34.7629655,24.9784138 C34.7629655,25.3477241 34.7401552,25.7116034 34.707569,26.0722241 C34.6912759,26.2405862 34.6662931,26.4089483 34.6434828,26.5762241 C34.6174138,26.7663103 34.5913448,26.9563966 34.5565862,27.1432241 C34.5218276,27.3300517 34.4783793,27.5244828 34.434931,27.7134828 C34.3914828,27.9024828 34.3382586,28.1121207 34.2817759,28.3087241 C34.2415862,28.4477586 34.1981379,28.5867931 34.1525172,28.7236552 C34.0667069,28.985431 33.9732931,29.2428621 33.8701034,29.4959483 C33.8418621,29.5643793 33.8147069,29.6338966 33.7853793,29.7012414 C32.5647053,32.5208192 30.3102037,34.7656031 27.4853793,35.9740862 L27.4288966,36.0012414 Z M36.9310345,24.9827586 C36.9310345,24.6221379 36.9158276,24.2593448 36.8886724,23.8965517 L39.1034483,23.8965517 L39.1034483,26.0689655 L36.8886724,26.0689655 C36.9158276,25.7061724 36.9310345,25.3433793 36.9310345,24.9827586 Z M47.7931034,56.4827586 L45.6206897,56.4827586 L45.6206897,30.4137931 L47.7931034,30.4137931 L47.7931034,56.4827586 Z M59.8804138,27.2833448 C59.2669017,27.8957368 58.4358102,28.2402024 57.5689655,28.2413793 L41.2758621,28.2413793 L41.2758621,21.7241359 L57.5689655,21.7241379 C58.8866922,21.7226593 60.0756115,22.5149522 60.5815181,23.7316955 C61.0874246,24.9484388 60.8107302,26.3501154 59.8804138,27.2833448 Z" id="Shape"></path>
                        </g>
                    </g>
                </g>
            </g>
        </g>
    </g>
</svg>