<?xml version="1.0" encoding="UTF-8"?>
<svg width="672px" height="507px" viewBox="0 0 672 507" version="1.1" xmlns="http://www.w3.org/2000/svg" xmlns:xlink="http://www.w3.org/1999/xlink">
    <!-- Generator: Sketch 52.6 (67491) - http://www.bohemiancoding.com/sketch -->
    <title>style guides</title>
    <desc>Created with Sketch.</desc>
    <defs>
        <rect id="path-1" x="0" y="0" width="554" height="389" rx="20"></rect>
        <filter x="-18.1%" y="-20.6%" width="136.1%" height="151.4%" filterUnits="objectBoundingBox" id="filter-2">
            <feOffset dx="0" dy="20" in="SourceAlpha" result="shadowOffsetOuter1"></feOffset>
            <feGaussianBlur stdDeviation="30" in="shadowOffsetOuter1" result="shadowBlurOuter1"></feGaussianBlur>
            <feColorMatrix values="0 0 0 0 0   0 0 0 0 0   0 0 0 0 0  0 0 0 0.1 0" type="matrix" in="shadowBlurOuter1"></feColorMatrix>
        </filter>
    </defs>
    <g id="Website" stroke="none" stroke-width="1" fill="none" fill-rule="evenodd">
        <g id="Features" transform="translate(-676.000000, -6482.000000)">
            <g id="Quality-Control-Section" transform="translate(0.000000, 6116.000000)">
                <g id="feature" transform="translate(150.000000, 298.000000)">
                    <g id="style-guides" transform="translate(585.000000, 107.000000)">
                        <g id="Group-Copy">
                            <g id="Rectangle">
                                <use fill="black" fill-opacity="1" filter="url(#filter-2)" xlink:href="#path-1"></use>
                                <use fill="#F4F4F4" fill-rule="evenodd" xlink:href="#path-1"></use>
                            </g>
                            <path d="M20,0 L534,0 C545.045695,-2.02906125e-15 554,8.954305 554,20 L554,42 L0,42 L0,20 C-1.3527075e-15,8.954305 8.954305,2.02906125e-15 20,0 Z" id="Rectangle" fill="#3D566E"></path>
                            <path d="M0,133 L554,133 L554,369 C554,380.045695 545.045695,389 534,389 L20,389 C8.954305,389 1.3527075e-15,380.045695 0,369 L0,133 Z" id="Rectangle" fill="#FFFFFF"></path>
                            <rect id="Rectangle" fill="#3D566E" x="453" y="52" width="101" height="24"></rect>
                        </g>
                        <g id="Group-12" transform="translate(18.000000, 158.000000)">
                            <text id="Unit-of-measure" font-family="Helvetica" font-size="12" font-weight="normal" fill="#52677D">
                                <tspan x="0" y="16">Unit of measure</tspan>
                            </text>
                            <g id="Group-3" transform="translate(194.000000, 0.000000)">
                                <rect id="Rectangle" stroke="#DEDEDE" stroke-width="0.6" x="0.3" y="0.3" width="319.4" height="25.4" rx="2"></rect>
                                <g id="icons" transform="translate(290.000000, 11.000000)" fill="#0A1243" fill-rule="nonzero">
                                    <g id="next" transform="translate(4.500000, 3.166667) rotate(90.000000) translate(-4.500000, -3.166667) translate(2.000000, -1.000000)">
                                        <path d="M4.86424285,3.84149993 L1.07684511,0.133128999 C0.989247226,0.0472895884 0.872311658,0 0.747626515,0 C0.622941371,0 0.506005803,0.0472895884 0.418407916,0.133128999 L0.13949237,0.40616201 C-0.0419999347,0.584073842 -0.0419999347,0.873231383 0.13949237,1.05087222 L3.31986304,4.16493904 L0.135963545,7.28246112 C0.0483656579,7.36830053 0,7.48273049 0,7.60474847 C0,7.72690195 0.0483656579,7.84133191 0.135963545,7.92723907 L0.414879091,8.20020433 C0.502546171,8.28604374 0.619412546,8.33333333 0.74409769,8.33333333 C0.868782834,8.33333333 0.985718401,8.28604374 1.07331629,8.20020433 L4.86424285,4.48844589 C4.95204831,4.40233548 5.00027559,4.28736352 4.99999882,4.16514229 C5.00027559,4.04244681 4.95204831,3.92754259 4.86424285,3.84149993 Z" id="Path"></path>
                                    </g>
                                </g>
                                <text id="Metric-system" font-family="Helvetica" font-size="9" font-weight="normal" fill="#7D7D7D">
                                    <tspan x="12" y="17">Metric system</tspan>
                                </text>
                            </g>
                            <text id="Brand-name" font-family="Helvetica" font-size="12" font-weight="normal" fill="#52677D">
                                <tspan x="0" y="53">Brand name</tspan>
                            </text>
                            <g id="Group-7" transform="translate(194.000000, 36.000000)">
                                <rect id="Rectangle" stroke="#DEDEDE" stroke-width="0.6" x="0.3" y="0.3" width="319.4" height="25.4" rx="2"></rect>
                                <g id="icons" transform="translate(290.000000, 11.000000)" fill="#0A1243" fill-rule="nonzero">
                                    <g id="next" transform="translate(4.500000, 3.166667) rotate(90.000000) translate(-4.500000, -3.166667) translate(2.000000, -1.000000)">
                                        <path d="M4.86424285,3.84149993 L1.07684511,0.133128999 C0.989247226,0.0472895884 0.872311658,0 0.747626515,0 C0.622941371,0 0.506005803,0.0472895884 0.418407916,0.133128999 L0.13949237,0.40616201 C-0.0419999347,0.584073842 -0.0419999347,0.873231383 0.13949237,1.05087222 L3.31986304,4.16493904 L0.135963545,7.28246112 C0.0483656579,7.36830053 0,7.48273049 0,7.60474847 C0,7.72690195 0.0483656579,7.84133191 0.135963545,7.92723907 L0.414879091,8.20020433 C0.502546171,8.28604374 0.619412546,8.33333333 0.74409769,8.33333333 C0.868782834,8.33333333 0.985718401,8.28604374 1.07331629,8.20020433 L4.86424285,4.48844589 C4.95204831,4.40233548 5.00027559,4.28736352 4.99999882,4.16514229 C5.00027559,4.04244681 4.95204831,3.92754259 4.86424285,3.84149993 Z" id="Path"></path>
                                    </g>
                                </g>
                                <text id="Don’t-translate" font-family="Helvetica" font-size="9" font-weight="normal" fill="#7D7D7D">
                                    <tspan x="12" y="17">Don’t translate</tspan>
                                </text>
                            </g>
                            <text id="Slogans-and-tagline" font-family="Helvetica" font-size="12" font-weight="normal" fill="#52677D">
                                <tspan x="0" y="89">Slogans and tagline</tspan>
                            </text>
                            <g id="Group-8" transform="translate(194.000000, 72.000000)">
                                <rect id="Rectangle" stroke="#DEDEDE" stroke-width="0.6" x="0.3" y="0.3" width="319.4" height="25.4" rx="2"></rect>
                                <g id="icons" transform="translate(290.000000, 11.000000)" fill="#0A1243" fill-rule="nonzero">
                                    <g id="next" transform="translate(4.500000, 3.166667) rotate(90.000000) translate(-4.500000, -3.166667) translate(2.000000, -1.000000)">
                                        <path d="M4.86424285,3.84149993 L1.07684511,0.133128999 C0.989247226,0.0472895884 0.872311658,0 0.747626515,0 C0.622941371,0 0.506005803,0.0472895884 0.418407916,0.133128999 L0.13949237,0.40616201 C-0.0419999347,0.584073842 -0.0419999347,0.873231383 0.13949237,1.05087222 L3.31986304,4.16493904 L0.135963545,7.28246112 C0.0483656579,7.36830053 0,7.48273049 0,7.60474847 C0,7.72690195 0.0483656579,7.84133191 0.135963545,7.92723907 L0.414879091,8.20020433 C0.502546171,8.28604374 0.619412546,8.33333333 0.74409769,8.33333333 C0.868782834,8.33333333 0.985718401,8.28604374 1.07331629,8.20020433 L4.86424285,4.48844589 C4.95204831,4.40233548 5.00027559,4.28736352 4.99999882,4.16514229 C5.00027559,4.04244681 4.95204831,3.92754259 4.86424285,3.84149993 Z" id="Path"></path>
                                    </g>
                                </g>
                                <text id="Translate-between-pa" font-family="Helvetica" font-size="9" font-weight="normal" fill="#7D7D7D">
                                    <tspan x="12" y="17">Translate between parentheses on first occurrence</tspan>
                                </text>
                            </g>
                            <text id="Acronyms-and-abbrevi" font-family="Helvetica" font-size="12" font-weight="normal" fill="#52677D">
                                <tspan x="0" y="125">Acronyms and abbreviations</tspan>
                            </text>
                            <g id="Group-9" transform="translate(194.000000, 108.000000)">
                                <rect id="Rectangle" stroke="#DEDEDE" stroke-width="0.6" x="0.3" y="0.3" width="319.4" height="25.4" rx="2"></rect>
                                <g id="icons" transform="translate(290.000000, 11.000000)" fill="#0A1243" fill-rule="nonzero">
                                    <g id="next" transform="translate(4.500000, 3.166667) rotate(90.000000) translate(-4.500000, -3.166667) translate(2.000000, -1.000000)">
                                        <path d="M4.86424285,3.84149993 L1.07684511,0.133128999 C0.989247226,0.0472895884 0.872311658,0 0.747626515,0 C0.622941371,0 0.506005803,0.0472895884 0.418407916,0.133128999 L0.13949237,0.40616201 C-0.0419999347,0.584073842 -0.0419999347,0.873231383 0.13949237,1.05087222 L3.31986304,4.16493904 L0.135963545,7.28246112 C0.0483656579,7.36830053 0,7.48273049 0,7.60474847 C0,7.72690195 0.0483656579,7.84133191 0.135963545,7.92723907 L0.414879091,8.20020433 C0.502546171,8.28604374 0.619412546,8.33333333 0.74409769,8.33333333 C0.868782834,8.33333333 0.985718401,8.28604374 1.07331629,8.20020433 L4.86424285,4.48844589 C4.95204831,4.40233548 5.00027559,4.28736352 4.99999882,4.16514229 C5.00027559,4.04244681 4.95204831,3.92754259 4.86424285,3.84149993 Z" id="Path"></path>
                                    </g>
                                </g>
                                <text id="Translate-between-pa" font-family="Helvetica" font-size="9" font-weight="normal" fill="#7D7D7D">
                                    <tspan x="12" y="17">Translate between parenthese on first occurrence</tspan>
                                </text>
                            </g>
                            <text id="Formality" font-family="Helvetica" font-size="12" font-weight="normal" fill="#52677D">
                                <tspan x="0" y="161">Formality</tspan>
                            </text>
                            <g id="Group-10" transform="translate(194.000000, 144.000000)">
                                <rect id="Rectangle" stroke="#DEDEDE" stroke-width="0.6" x="0.3" y="0.3" width="319.4" height="25.4" rx="2"></rect>
                                <g id="icons" transform="translate(290.000000, 11.000000)" fill="#0A1243" fill-rule="nonzero">
                                    <g id="next" transform="translate(4.500000, 3.166667) rotate(90.000000) translate(-4.500000, -3.166667) translate(2.000000, -1.000000)">
                                        <path d="M4.86424285,3.84149993 L1.07684511,0.133128999 C0.989247226,0.0472895884 0.872311658,0 0.747626515,0 C0.622941371,0 0.506005803,0.0472895884 0.418407916,0.133128999 L0.13949237,0.40616201 C-0.0419999347,0.584073842 -0.0419999347,0.873231383 0.13949237,1.05087222 L3.31986304,4.16493904 L0.135963545,7.28246112 C0.0483656579,7.36830053 0,7.48273049 0,7.60474847 C0,7.72690195 0.0483656579,7.84133191 0.135963545,7.92723907 L0.414879091,8.20020433 C0.502546171,8.28604374 0.619412546,8.33333333 0.74409769,8.33333333 C0.868782834,8.33333333 0.985718401,8.28604374 1.07331629,8.20020433 L4.86424285,4.48844589 C4.95204831,4.40233548 5.00027559,4.28736352 4.99999882,4.16514229 C5.00027559,4.04244681 4.95204831,3.92754259 4.86424285,3.84149993 Z" id="Path"></path>
                                    </g>
                                </g>
                                <text id="Adapt-to-target-lang" font-family="Helvetica" font-size="9" font-weight="normal" fill="#7D7D7D">
                                    <tspan x="12" y="17">Adapt to target language</tspan>
                                </text>
                            </g>
                            <text id="Capitalization" font-family="Helvetica" font-size="12" font-weight="normal" fill="#52677D">
                                <tspan x="0" y="197">Capitalization</tspan>
                            </text>
                            <g id="Group-11" transform="translate(194.000000, 180.000000)">
                                <rect id="Rectangle" stroke="#DEDEDE" stroke-width="0.6" x="0.3" y="0.3" width="319.4" height="25.4" rx="2"></rect>
                                <g id="icons" transform="translate(290.000000, 11.000000)" fill="#0A1243" fill-rule="nonzero">
                                    <g id="next" transform="translate(4.500000, 3.166667) rotate(90.000000) translate(-4.500000, -3.166667) translate(2.000000, -1.000000)">
                                        <path d="M4.86424285,3.84149993 L1.07684511,0.133128999 C0.989247226,0.0472895884 0.872311658,0 0.747626515,0 C0.622941371,0 0.506005803,0.0472895884 0.418407916,0.133128999 L0.13949237,0.40616201 C-0.0419999347,0.584073842 -0.0419999347,0.873231383 0.13949237,1.05087222 L3.31986304,4.16493904 L0.135963545,7.28246112 C0.0483656579,7.36830053 0,7.48273049 0,7.60474847 C0,7.72690195 0.0483656579,7.84133191 0.135963545,7.92723907 L0.414879091,8.20020433 C0.502546171,8.28604374 0.619412546,8.33333333 0.74409769,8.33333333 C0.868782834,8.33333333 0.985718401,8.28604374 1.07331629,8.20020433 L4.86424285,4.48844589 C4.95204831,4.40233548 5.00027559,4.28736352 4.99999882,4.16514229 C5.00027559,4.04244681 4.95204831,3.92754259 4.86424285,3.84149993 Z" id="Path"></path>
                                    </g>
                                </g>
                                <text id="Adapt-to-the-norms-o" font-family="Helvetica" font-size="9" font-weight="normal" fill="#7D7D7D">
                                    <tspan x="12" y="17">Adapt to the norms of the target language</tspan>
                                </text>
                            </g>
                        </g>
                        <g id="Group-4" transform="translate(11.000000, 91.000000)">
                            <rect id="Rectangle" stroke="#F4F4F4" fill="#FFFFFF" x="0.5" y="0.5" width="105" height="33" rx="3"></rect>
                            <text id="General-Rules" font-family="Helvetica" font-size="12" font-weight="normal" fill="#52677D">
                                <tspan x="13" y="21">General Rules</tspan>
                            </text>
                        </g>
                        <g id="Group-5" transform="translate(127.000000, 91.000000)">
                            <rect id="Rectangle-Copy-2" fill="#FFFFFF" opacity="0.4" x="0" y="0" width="106" height="34" rx="3"></rect>
                            <text id="German" font-family="Helvetica" font-size="12" font-weight="normal" fill="#52677D">
                                <tspan x="30" y="21">German</tspan>
                            </text>
                        </g>
                        <g id="Group-6" transform="translate(243.000000, 91.000000)">
                            <rect id="Rectangle-Copy-3" fill="#FFFFFF" opacity="0.4" x="0" y="0" width="106" height="34" rx="3"></rect>
                            <text id="Italian" font-family="Helvetica" font-size="12" font-weight="normal" fill="#52677D">
                                <tspan x="36" y="21">Italian</tspan>
                            </text>
                        </g>
                        <g id="Group-6" transform="translate(359.000000, 91.000000)">
                            <rect id="Rectangle-Copy-3" fill="#FFFFFF" opacity="0.4" x="0" y="0" width="106" height="34" rx="3"></rect>
                            <text id="English" font-family="Helvetica" font-size="12" font-weight="normal" fill="#52677D">
                                <tspan x="36" y="21">English</tspan>
                            </text>
                        </g>
                        <text id="Style-guides-rules" font-family="Helvetica" font-size="16" font-weight="normal" fill="#52677D">
                            <tspan x="12" y="69">Style guides rules</tspan>
                        </text>
                    </g>
                </g>
            </g>
        </g>
    </g>
</svg>