<?xml version="1.0" encoding="UTF-8"?>
<svg width="648px" height="533px" viewBox="0 0 648 533" version="1.1" xmlns="http://www.w3.org/2000/svg" xmlns:xlink="http://www.w3.org/1999/xlink">
    <!-- Generator: Sketch 52.6 (67491) - http://www.bohemiancoding.com/sketch -->
    <title>Group 34</title>
    <desc>Created with Sketch.</desc>
    <defs>
        <rect id="path-1" x="0" y="0" width="530" height="415" rx="10"></rect>
        <filter x="-19.8%" y="-18.1%" width="139.6%" height="150.6%" filterUnits="objectBoundingBox" id="filter-3">
            <feOffset dx="0" dy="30" in="SourceAlpha" result="shadowOffsetOuter1"></feOffset>
            <feGaussianBlur stdDeviation="30" in="shadowOffsetOuter1" result="shadowBlurOuter1"></feGaussianBlur>
            <feColorMatrix values="0 0 0 0 0   0 0 0 0 0   0 0 0 0 0  0 0 0 0.0812390734 0" type="matrix" in="shadowBlurOuter1"></feColorMatrix>
        </filter>
        <linearGradient x1="6.4666748%" y1="90.3710604%" x2="46.9411214%" y2="46.0083838%" id="linearGradient-4">
            <stop stop-color="#FFFFFF" offset="0%"></stop>
            <stop stop-color="#FFFFFF" offset="100%"></stop>
        </linearGradient>
        <rect id="path-5" x="0" y="0" width="86" height="83" rx="10"></rect>
        <mask id="mask-6" maskContentUnits="userSpaceOnUse" maskUnits="objectBoundingBox" x="0" y="0" width="86" height="83" fill="white">
            <use xlink:href="#path-5"></use>
        </mask>
    </defs>
    <g id="Website-Second-Iteration" stroke="none" stroke-width="1" fill="none" fill-rule="evenodd">
        <g id="Customer-Service" transform="translate(-99.000000, -2729.000000)">
            <g id="Group-6" transform="translate(158.000000, 2758.000000)">
                <g id="Group-34">
                    <g id="Rectangle">
                        <g>
                            <mask id="mask-2" fill="white">
                                <use xlink:href="#path-1"></use>
                            </mask>
                            <g id="Mask">
                                <use fill="black" fill-opacity="1" filter="url(#filter-3)" xlink:href="#path-1"></use>
                                <use fill="#FFFFFF" fill-rule="evenodd" xlink:href="#path-1"></use>
                            </g>
                            <rect fill="#F6F6F6" mask="url(#mask-2)" x="0" y="0.275932203" width="533" height="58"></rect>
                        </g>
                    </g>
                    <g id="pdf" transform="translate(373.000000, 247.275932)" fill-rule="nonzero">
                        <path d="M4.66666667,0 C2.1,0 0,2.08125 0,4.625 L0,69.375 C0,71.91875 2.1,74 4.66666667,74 L51.3333333,74 C53.9,74 56,71.91875 56,69.375 L56,17.76 L38.6887079,0.305141602 L4.66666667,0 Z" id="Path" fill="#EFF0F0"></path>
                        <path d="M42.5,18 L56,18 L38.3795776,0 L38,13.4213321 C38,15.9395994 40.025,18 42.5,18 Z" id="Path" fill="url(#linearGradient-4)" opacity="0.828497024"></path>
                    </g>
                    <g id="pdf" transform="translate(421.000000, 298.275932)" fill-rule="nonzero">
                        <path d="M4.66666667,0 C2.1,0 0,2.08125 0,4.625 L0,69.375 C0,71.91875 2.1,74 4.66666667,74 L51.3333333,74 C53.9,74 56,71.91875 56,69.375 L56,17.76 L38.6887079,0.305141602 L4.66666667,0 Z" id="Path" fill="#F7F7F7"></path>
                        <path d="M42.5,18 L56,18 L38.3795776,0 L38,13.4213321 C38,15.9395994 40.025,18 42.5,18 Z" id="Path" fill="url(#linearGradient-4)" opacity="0.828497024"></path>
                    </g>
                    <g id="Group-7" transform="translate(24.000000, 25.275932)" fill="#4D5E6C">
                        <circle id="Oval" cx="4.5" cy="4.5" r="4.5"></circle>
                        <circle id="Oval" opacity="0.201758" cx="18.5" cy="4.5" r="4.5"></circle>
                        <circle id="Oval" opacity="0.201758" cx="32.5" cy="4.5" r="4.5"></circle>
                    </g>
                    <g id="Group-26" transform="translate(50.000000, 126.275932)">
                        <use id="Rectangle" stroke="#64B1E7" mask="url(#mask-6)" stroke-width="3" stroke-dasharray="6" xlink:href="#path-5"></use>
                        <path d="M41.3198093,38.3676349 L41.3198093,28.7278805 C41.3198093,28.3641162 41.3198093,28.2731751 41.4103852,28.091293 C41.6821131,27.3637643 42.3161447,27 43.1313283,27 C43.9465119,27.0909411 44.5805435,27.6365876 44.5805435,28.6369394 L44.5805435,38.2766938 C47.8412778,38.2766938 51.192588,38.2766938 54.4533222,38.3676349 C55.9025374,38.5495171 55.8119615,38.9132814 55.9931134,39.8226922 C56.0836893,40.732103 55.2685058,41.6415138 54.2721703,41.6415138 L44.5805435,41.6415138 L44.5805435,51.3722092 C44.5805435,52.6453843 44.2182397,52.5544433 43.674784,52.8272665 C42.6784486,53.372913 41.3198093,52.5544433 41.3198093,51.3722092 L41.3198093,41.6415138 L31.5376065,41.6415138 C29.8166635,41.5505727 29.1826318,38.3676349 31.5376065,38.2766938 C34.7983408,38.458576 38.059075,38.3676349 41.3198093,38.3676349 Z" id="Path" fill="#64B1E7" fill-rule="nonzero"></path>
                    </g>
                    <g id="translation" transform="translate(382.000000, 266.275932)" fill="#565966" fill-rule="nonzero">
                        <path d="M37.1637265,3.82457154 L21.3362735,3.82457154 L21.3362735,1.78918953 C21.3362735,0.801079792 20.5141126,0 19.5,0 C18.4858874,0 17.6637265,0.801079792 17.6637265,1.78918953 L17.6637265,3.82457154 L1.83627346,3.82457154 C0.822160839,3.82457154 0,4.62565133 0,5.61376106 C0,6.6018708 0.822160839,7.40295059 1.83627346,7.40295059 L28.8774813,7.40295059 C27.8200326,10.7127127 25.1704125,17.3873438 19.4911859,24.0493314 C16.0228326,19.9847699 13.6733819,15.8987382 12.1172013,12.521464 C11.7017139,11.6201896 10.6156193,11.2172641 9.68989265,11.6218595 C8.76465566,12.0266935 8.35137171,13.0854165 8.76661435,13.9869295 C10.4856111,17.7177475 13.1070751,22.2556093 17.0166238,26.7448051 C14.2296503,29.5619436 10.8548245,32.2934396 6.77903195,34.6764015 C5.90937284,35.1847699 5.62732124,36.2838094 6.14931257,37.1311696 C6.49355264,37.6903509 7.10172641,38 7.72556972,38 C8.04703999,38 8.37291732,37.9176973 8.66867977,37.7447423 C12.9895536,35.2186452 16.5585347,32.3287463 19.4904514,29.3935213 C22.4554209,32.3597589 26.0278297,35.2291418 30.3308306,37.7447423 C30.626593,37.9176973 30.9524703,38 31.2739406,38 C31.8977839,38 32.5059577,37.6903509 32.8501978,37.1311696 C33.3719443,36.2838094 33.0898926,35.1847699 32.2204784,34.6764015 C28.1375855,32.2896227 24.7595769,29.5600352 21.9667274,26.7407496 C24.8531044,23.4300333 26.9702053,20.1832507 28.476684,17.4574801 C30.9142758,13.0465315 32.1597589,9.3386151 32.7103961,7.40271203 L37.1637265,7.40271203 C38.1778392,7.40271203 39,6.60163224 39,5.61352251 C39,4.62541277 38.178084,3.82457154 37.1637265,3.82457154 Z" id="Path"></path>
                        <path d="M69.5339386,54.5921279 C69.1199283,53.6247802 68.1496848,53 67.0615427,53 C67.0607981,53 67.0598053,53 67.0588124,53 C65.9696775,53.0009542 64.999434,53.6276429 64.5871612,54.5966605 C64.5814525,54.6100197 64.5759919,54.6236174 64.5705313,54.6369766 L51.1223957,88.5735863 C50.7565377,89.4970395 51.2385569,90.5307061 52.1993685,90.8823387 C52.4175429,90.9622553 52.6414262,90.9999472 52.8615863,90.9999472 C53.6116697,90.9999472 54.3188131,90.5610028 54.6015216,89.8470023 L57.4941328,82.5474036 L76.5319034,82.5474036 L79.3962191,89.8419926 C79.7593468,90.7664001 80.8328446,91.2332558 81.7951454,90.8842472 C82.7569499,90.5354772 83.2426921,89.5030035 82.8795644,88.578596 L69.5537952,54.6405549 C69.54759,54.6245716 69.5408884,54.6083498 69.5339386,54.5921279 Z M58.912391,78.9695291 L67.0568268,58.4164316 L75.1270485,78.9695291 L58.912391,78.9695291 Z" id="Shape"></path>
                        <path d="M34.2450298,82.6125483 L26.1759081,77.2407193 C25.3421693,76.6856213 24.1588793,76.8357323 23.5335123,77.5757885 C22.9081453,78.3158446 23.0772586,79.3661748 23.9109974,79.9212727 L27.4502978,82.2774792 L21.0086402,82.2774792 C14.2627296,82.2774792 8.7748511,77.4060201 8.7748511,71.4183339 L8.7748511,60.6753459 C8.7748511,59.7501082 7.92978777,59 6.88742555,59 C5.84506333,59 5,59.7501082 5,60.6753459 L5,71.4183339 C5,79.2538149 12.1815284,85.6281709 21.0086402,85.6281709 L27.4502978,85.6281709 L23.9109974,87.9843774 C23.0772586,88.5394753 22.9081453,89.5898055 23.5335123,90.3298616 C23.9044543,90.7688023 24.4711853,91 25.0449627,91 C25.4390571,91 25.8364231,90.8907674 26.1759081,90.6649308 L34.2450298,85.2931018 C34.7204094,84.9765731 35,84.4802239 35,83.9528251 C35,83.4254262 34.7204094,82.9288536 34.2450298,82.6125483 Z" id="Path"></path>
                        <path d="M58.7549702,8.38751867 L66.8240919,13.7593325 C67.1635769,13.9853918 67.5609429,14.0944007 67.9550373,14.0944007 C68.5288147,14.0944007 69.0957973,13.8629803 69.4664877,13.4242643 C70.0918547,12.6842102 69.9227414,11.633883 69.0890026,11.0787867 L65.5497022,8.7225869 L71.9913598,8.7225869 C78.7372704,8.7225869 84.2251489,13.5940322 84.2251489,19.5817014 L84.2251489,30.3246589 C84.2251489,31.2498939 85.0702122,32 86.1125744,32 C87.1549367,32 88,31.2498939 88,30.3246589 L88,19.5817014 C88,11.7462426 80.8184716,5.37190463 71.9913598,5.37190463 L65.5497022,5.37190463 L69.0890026,3.01570485 C69.9227414,2.46060849 70.0918547,1.41028129 69.4664877,0.670227266 C68.8408691,-0.0700501365 67.6580824,-0.219937323 66.8240919,0.335159039 L58.7549702,5.70697285 C58.2795906,6.02350064 58,6.51984837 58,7.04724576 C58,7.57464315 58.2795906,8.07121426 58.7549702,8.38751867 Z" id="Path"></path>
                    </g>
                    <g id="pdf" transform="translate(194.000000, 131.275932)">
                        <path d="M4.66666667,0 C2.1,0 0,2.08125 0,4.625 L0,69.375 C0,71.91875 2.1,74 4.66666667,74 L51.3333333,74 C53.9,74 56,71.91875 56,69.375 L56,17.76 L38.6887079,0.305141602 L4.66666667,0 Z" id="Path" fill="#53A9E6" fill-rule="nonzero"></path>
                        <path d="M42.5,18 L56,18 L38.3795776,0 L38,13.4213321 C38,15.9395994 40.025,18 42.5,18 Z" id="Path" fill="url(#linearGradient-4)" fill-rule="nonzero" opacity="0.828497024"></path>
                        <text id="DOC" font-family="Helvetica" font-size="8" font-weight="normal" fill="#FFFFFF">
                            <tspan x="19" y="41">DOC</tspan>
                        </text>
                    </g>
                    <g id="pdf" transform="translate(314.000000, 131.275932)">
                        <path d="M4.66666667,0 C2.1,0 0,2.08125 0,4.625 L0,69.375 C0,71.91875 2.1,74 4.66666667,74 L51.3333333,74 C53.9,74 56,71.91875 56,69.375 L56,17.76 L38.6887079,0.305141602 L4.66666667,0 Z" id="Path" fill="#53A9E6" fill-rule="nonzero"></path>
                        <path d="M42.5,18 L56,18 L38.3795776,0 L38,13.4213321 C38,15.9395994 40.025,18 42.5,18 Z" id="Path" fill="url(#linearGradient-4)" fill-rule="nonzero" opacity="0.828497024"></path>
                        <text id="DOC" font-family="Helvetica" font-size="8" font-weight="normal" fill="#FFFFFF">
                            <tspan x="19" y="41">DOC</tspan>
                        </text>
                    </g>
                    <g id="pdf" transform="translate(434.000000, 131.275932)">
                        <path d="M4.66666667,0 C2.1,0 0,2.08125 0,4.625 L0,69.375 C0,71.91875 2.1,74 4.66666667,74 L51.3333333,74 C53.9,74 56,71.91875 56,69.375 L56,17.76 L38.6887079,0.305141602 L4.66666667,0 Z" id="Path" fill="#53A9E6" fill-rule="nonzero"></path>
                        <path d="M42.5,18 L56,18 L38.3795776,0 L38,13.4213321 C38,15.9395994 40.025,18 42.5,18 Z" id="Path" fill="url(#linearGradient-4)" fill-rule="nonzero" opacity="0.828497024"></path>
                        <text id="DOC" font-family="Helvetica" font-size="8" font-weight="normal" fill="#FFFFFF">
                            <tspan x="19" y="41">DOC</tspan>
                        </text>
                    </g>
                    <g id="Group-14" transform="translate(51.977202, 251.258814)" fill="#EFF0F0" fill-rule="nonzero">
                        <rect id="Rectangle" x="32.1042746" y="4.82881356" width="232.531606" height="11.9340678"></rect>
                        <rect id="Rectangle" opacity="0.530970982" x="32.0352332" y="27.2483051" width="103.838342" height="11.9340678"></rect>
                        <path d="M19.8148964,-3.83693077e-13 C20.2981865,-3.83693077e-13 20.7124352,0.206949153 21.0576425,0.551864407 C21.4028497,0.896779661 21.6099741,1.31067797 21.6099741,1.79355932 C21.6099741,5.86355932 21.6099741,15.7281356 21.6099741,19.7981356 C21.6099741,20.2810169 21.4028497,20.6949153 21.0576425,21.0398305 C20.7124352,21.3847458 20.2981865,21.5916949 19.8148964,21.5916949 C15.7414508,21.5916949 5.86852332,21.5916949 1.79507772,21.5916949 C1.31178756,21.5916949 0.89753886,21.3847458 0.552331606,21.0398305 C0.207124352,20.6949153 -8.95283847e-13,20.2810169 -8.95283847e-13,19.7981356 L-8.95283847e-13,1.79355932 C-8.95283847e-13,1.31067797 0.207124352,0.896779661 0.552331606,0.551864407 C0.89753886,0.206949153 1.31178756,-3.83693077e-13 1.79507772,-3.83693077e-13 L19.8148964,-3.83693077e-13 Z M17.467487,4.13898305 L4.14248705,4.13898305 L4.14248705,17.4527119 L17.467487,17.4527119 L17.467487,4.13898305 Z" id="Shape"></path>
                    </g>
                    <g id="Group-33" transform="translate(51.977202, 338.317966)" fill="#EFF0F0" fill-rule="nonzero">
                        <rect id="Rectangle" x="32.1042746" y="4.82881356" width="232.531606" height="11.9340678"></rect>
                        <rect id="Rectangle" opacity="0.530970982" x="32.0352332" y="27.2483051" width="103.838342" height="11.9340678"></rect>
                        <path d="M19.8148964,8.52651283e-14 C20.2981865,8.52651283e-14 20.7124352,0.206949153 21.0576425,0.551864407 C21.4028497,0.896779661 21.6099741,1.31067797 21.6099741,1.79355932 C21.6099741,5.86355932 21.6099741,15.7281356 21.6099741,19.7981356 C21.6099741,20.2810169 21.4028497,20.6949153 21.0576425,21.0398305 C20.7124352,21.3847458 20.2981865,21.5916949 19.8148964,21.5916949 C15.7414508,21.5916949 5.86852332,21.5916949 1.79507772,21.5916949 C1.31178756,21.5916949 0.89753886,21.3847458 0.552331606,21.0398305 C0.207124352,20.6949153 -8.95283847e-13,20.2810169 -8.95283847e-13,19.7981356 L-8.95283847e-13,1.79355932 C-8.95283847e-13,1.31067797 0.207124352,0.896779661 0.552331606,0.551864407 C0.89753886,0.206949153 1.31178756,1.63689777e-13 1.79507772,1.63689777e-13 L19.8148964,1.63689777e-13 Z M17.467487,4.13898305 L4.14248705,4.13898305 L4.14248705,17.4527119 L17.467487,17.4527119 L17.467487,4.13898305 Z" id="Shape"></path>
                    </g>
                    <text id="Documentation" font-family="Helvetica" font-size="14" font-weight="normal" fill="#474B59">
                        <tspan x="48" y="101.275932">Documentation</tspan>
                    </text>
                </g>
            </g>
        </g>
    </g>
</svg>