<?xml version="1.0" encoding="UTF-8"?>
<svg width="427px" height="345px" viewBox="0 0 427 345" version="1.1" xmlns="http://www.w3.org/2000/svg" xmlns:xlink="http://www.w3.org/1999/xlink">
    <!-- Generator: Sketch 52.6 (67491) - http://www.bohemiancoding.com/sketch -->
    <title>Group 38</title>
    <desc>Created with Sketch.</desc>
    <defs>
        <rect id="path-1" x="0" y="0" width="339" height="219" rx="12"></rect>
        <filter x="-24.6%" y="-39.5%" width="149.3%" height="193.6%" filterUnits="objectBoundingBox" id="filter-2">
            <feOffset dx="0" dy="36" in="SourceAlpha" result="shadowOffsetOuter1"></feOffset>
            <feGaussianBlur stdDeviation="21.5" in="shadowOffsetOuter1" result="shadowBlurOuter1"></feGaussianBlur>
            <feColorMatrix values="0 0 0 0 0   0 0 0 0 0   0 0 0 0 0  0 0 0 0.201115263 0" type="matrix" in="shadowBlurOuter1" result="shadowMatrixOuter1"></feColorMatrix>
            <feOffset dx="0" dy="-3" in="SourceAlpha" result="shadowOffsetOuter2"></feOffset>
            <feGaussianBlur stdDeviation="22" in="shadowOffsetOuter2" result="shadowBlurOuter2"></feGaussianBlur>
            <feColorMatrix values="0 0 0 0 0   0 0 0 0 0   0 0 0 0 0  0 0 0 0.0313632246 0" type="matrix" in="shadowBlurOuter2" result="shadowMatrixOuter2"></feColorMatrix>
            <feMerge>
                <feMergeNode in="shadowMatrixOuter1"></feMergeNode>
                <feMergeNode in="shadowMatrixOuter2"></feMergeNode>
            </feMerge>
        </filter>
        <rect id="path-3" x="0" y="0" width="339" height="173" rx="12"></rect>
    </defs>
    <g id="Website" stroke="none" stroke-width="1" fill="none" fill-rule="evenodd">
        <g id="20--Verification" transform="translate(-95.000000, -4592.000000)">
            <g id="Group-9-Copy" transform="translate(139.000000, 4487.000000)">
                <g id="Group-38" transform="translate(0.000000, 152.000000)">
                    <g id="Group-31">
                        <g id="mcokup-2">
                            <g id="Group-4">
                                <g id="Rectangle-5">
                                    <use fill="black" fill-opacity="1" filter="url(#filter-2)" xlink:href="#path-1"></use>
                                    <use fill="#FFFFFF" fill-rule="evenodd" xlink:href="#path-1"></use>
                                </g>
                                <g id="shield-check" transform="translate(0.000000, 47.000000)">
                                    <mask id="mask-4" fill="white">
                                        <use xlink:href="#path-3"></use>
                                    </mask>
                                    <use id="Mask" fill="#FFFFFF" xlink:href="#path-3"></use>
                                    <g mask="url(#mask-4)" fill="#BDDBDA" fill-rule="nonzero" id="Shape">
                                        <g transform="translate(248.000000, 57.000000)">
                                            <path d="M127.97058,13.3558592 C126.044005,11.8135589 123.515261,11.2177244 121.093085,11.7353518 C103.410108,15.4027951 84.9816911,11.6791237 70.1668716,1.4451304 C67.3602429,-0.481710135 63.6397571,-0.481710135 60.8331284,1.4451304 C46.0183089,11.6791237 27.5898924,15.4027951 9.90691526,11.7353518 C7.48473926,11.2177244 4.95599467,11.8135589 3.02942025,13.3558592 C1.10542902,14.9004461 -0.00837634834,17.224104 4.74401212e-05,19.6758377 L4.74401212e-05,80.0397351 C-0.0147213427,103.610221 11.483529,125.734259 30.8669001,139.431328 L60.7512534,160.497923 C63.5936592,162.500692 67.4063408,162.500692 70.2487466,160.497923 L100.1331,139.431328 C119.516471,125.734259 131.014721,103.610221 130.999953,80.0397351 L130.999953,19.6758377 C131.008376,17.224104 129.894571,14.9004461 127.97058,13.3558592 Z M113.999986,80.1912709 C114.012696,98.4829424 105.099784,115.653533 90.0716597,126.288832 L65,144 L39.9283403,126.288832 C24.9002157,115.653533 15.9873037,98.4829424 16.0000136,80.1912709 L16.0000136,29.241335 C33.1208406,30.6924623 50.2676687,26.7587216 65,18 C79.7323313,26.7587216 96.8791594,30.6924623 113.999986,29.241335 L113.999986,80.1912709 Z M77.8143271,60.5247972 L56.0597848,82.9422266 L48.8621853,75.4697501 C45.6910186,72.2140572 40.5495417,72.2140572 37.378375,75.4697502 C34.2072084,78.7254431 34.2072083,84.0039644 37.3783749,87.2596574 L50.3178796,100.54406 C51.8363839,102.115876 53.9034363,103 56.0597848,103 C58.2161333,103 60.2831858,102.115876 61.80169,100.54406 L89.6216251,72.231677 C92.7927917,68.9759839 92.7927916,63.6974627 89.621625,60.4417698 C86.4504583,57.1860768 81.3089814,57.1860767 78.1378147,60.4417697 L77.8143271,60.5247972 Z"></path>
                                        </g>
                                    </g>
                                </g>
                            </g>
                            <path d="M84,134 L231,134 C233.209139,134 235,135.790861 235,138 L235,138 C235,140.209139 233.209139,142 231,142 L84,142 C81.790861,142 80,140.209139 80,138 L80,138 C80,135.790861 81.790861,134 84,134 Z" id="Rectangle-7-Copy-3" fill="#E1E8EE"></path>
                            <rect id="Rectangle-7-Copy-2" fill="#E1E8EE" x="80" y="152" width="155" height="8" rx="4"></rect>
                            <path d="M84,170 L212,170 C214.209139,170 216,171.790861 216,174 L216,174 C216,176.209139 214.209139,178 212,178 L84,178 C81.790861,178 80,176.209139 80,174 L80,174 C80,171.790861 81.790861,170 84,170 Z" id="Rectangle-7-Copy-5" fill="#E1E8EE"></path>
                        </g>
                    </g>
                    <g id="Group-35" transform="translate(128.000000, 26.000000)" fill="#0B7A76" fill-rule="nonzero">
                        <path d="M80.2927423,6.18265183 L62.3485115,0.137166474 C61.8153115,-0.0457221581 61.2359692,-0.0457221581 60.6976423,0.137166474 L42.7534115,6.18265183 C41.7126462,6.53318837 41.0153846,7.49843393 41.0153846,8.59068549 L41.0153846,22.2006479 C41.0153846,38.813032 59.7235269,46.8804528 60.5233269,47.2208289 C60.8463231,47.3529151 61.1847,47.4240385 61.5230769,47.4240385 C61.8614538,47.4240385 62.2049577,47.3579953 62.5228269,47.2208289 C63.3226269,46.8804528 82.0307692,38.8079518 82.0307692,22.1955677 L82.0307692,8.59068549 C82.0307692,7.49843393 81.3335077,6.53318837 80.2927423,6.18265183 Z M72.7561654,19.025498 L63.3585154,30.8776975 C62.7843,31.6041717 61.9332308,32.0664736 61.0052577,32.1579179 C60.8975923,32.1680784 60.7796731,32.1731586 60.6720077,32.1731586 C59.8619538,32.1731586 59.0672808,31.8886652 58.4469231,31.3603202 L52.4638038,26.2800804 C51.0282654,25.0608229 50.8590769,22.9271222 52.0946654,21.504655 C53.3251269,20.0872681 55.4835615,19.9196202 56.9139731,21.1388778 L60.1900769,23.9177689 L67.3882769,14.8444607 C68.5520885,13.3762714 70.7002692,13.1171791 72.1870769,14.2754738 C73.6636308,15.4286882 73.9251038,17.5573087 72.7561654,19.025498 Z" id="Shape"></path>
                        <g id="Group" transform="translate(0.000000, 41.015385)">
                            <path d="M1.67650385,0.325559615 C0.748530769,0.346067308 0,1.10485192 0,2.03795192 L0,33.6454327 C0,34.1171096 0.384519231,34.5016288 0.856196154,34.5016288 L8.96186154,34.5016288 C9.72577308,34.5016288 10.3974,33.9940635 10.6076038,33.2609135 L18.1698154,6.60604038 C18.6568731,4.88339423 17.7340269,3.07359038 16.0523962,2.46348654 C12.9506077,1.33043654 8.20307692,0.217894231 1.67650385,0.325559615 Z" id="Path"></path>
                            <path d="M75.1965808,19.1208596 C68.3623923,19.1208596 54.6888885,27.7751058 47.8495731,27.7751058 C41.0153846,27.7751058 33.325,22.5405173 33.325,22.5405173 C33.325,22.5405173 42.5329538,24.2477827 47.8495731,24.2477827 C53.1713192,24.2477827 54.6837615,22.4328519 54.6837615,19.9770558 C54.6837615,13.9939365 44.5222,13.0659635 39.3850231,12.2866712 C34.3401308,9.47711731 31.7202731,7.25715962 23.3633885,6.54964423 C23.3121192,7.03670192 23.2352154,7.51863269 23.1019154,8.00569038 L16.2369654,32.2047673 C24.0145077,35.7423442 37.4060308,41.3460712 44.4350423,41.3460712 C54.6888885,41.3460712 82.0358962,27.6725673 82.0358962,24.2580365 C82.0307692,20.828125 78.6162385,19.1208596 75.1965808,19.1208596 Z" id="Path"></path>
                        </g>
                    </g>
                </g>
            </g>
        </g>
    </g>
</svg>