<?xml version="1.0" encoding="UTF-8"?>
<svg width="427px" height="374px" viewBox="0 0 427 374" version="1.1" xmlns="http://www.w3.org/2000/svg" xmlns:xlink="http://www.w3.org/1999/xlink">
    <!-- Generator: Sketch 52.6 (67491) - http://www.bohemiancoding.com/sketch -->
    <title>Group 36</title>
    <desc>Created with Sketch.</desc>
    <defs>
        <rect id="path-1" x="0" y="0" width="339" height="248" rx="12"></rect>
        <filter x="-24.6%" y="-34.9%" width="149.3%" height="182.7%" filterUnits="objectBoundingBox" id="filter-2">
            <feOffset dx="0" dy="36" in="SourceAlpha" result="shadowOffsetOuter1"></feOffset>
            <feGaussianBlur stdDeviation="21.5" in="shadowOffsetOuter1" result="shadowBlurOuter1"></feGaussianBlur>
            <feColorMatrix values="0 0 0 0 0   0 0 0 0 0   0 0 0 0 0  0 0 0 0.201115263 0" type="matrix" in="shadowBlurOuter1" result="shadowMatrixOuter1"></feColorMatrix>
            <feOffset dx="0" dy="-3" in="SourceAlpha" result="shadowOffsetOuter2"></feOffset>
            <feGaussianBlur stdDeviation="22" in="shadowOffsetOuter2" result="shadowBlurOuter2"></feGaussianBlur>
            <feColorMatrix values="0 0 0 0 0   0 0 0 0 0   0 0 0 0 0  0 0 0 0.0313632246 0" type="matrix" in="shadowBlurOuter2" result="shadowMatrixOuter2"></feColorMatrix>
            <feMerge>
                <feMergeNode in="shadowMatrixOuter1"></feMergeNode>
                <feMergeNode in="shadowMatrixOuter2"></feMergeNode>
            </feMerge>
        </filter>
    </defs>
    <g id="Website" stroke="none" stroke-width="1" fill="none" fill-rule="evenodd">
        <g id="20--Verification" transform="translate(-918.000000, -2755.000000)">
            <g id="Group-6" transform="translate(139.000000, 2801.000000)">
                <g id="Group-36" transform="translate(823.000000, 1.000000)">
                    <g id="Group-5">
                        <g id="Group-51" transform="translate(169.500000, 124.000000) scale(-1, 1) translate(-169.500000, -124.000000) ">
                            <g id="Group-31">
                                <g id="mcokup-2">
                                    <g id="Group-4">
                                        <g id="Rectangle-5">
                                            <use fill="black" fill-opacity="1" filter="url(#filter-2)" xlink:href="#path-1"></use>
                                            <use fill="#FFFFFF" fill-rule="evenodd" xlink:href="#path-1"></use>
                                        </g>
                                    </g>
                                    <path d="M168,39 L302.5,39 C304.709139,39 306.5,40.790861 306.5,43 L306.5,43 C306.5,45.209139 304.709139,47 302.5,47 L168,47 C165.790861,47 164,45.209139 164,43 L164,43 C164,40.790861 165.790861,39 168,39 Z" id="Rectangle-7" fill="#E1E8EE"></path>
                                    <path d="M225,57 L302.089928,57 C304.299067,57 306.089928,58.790861 306.089928,61 L306.089928,61 C306.089928,63.209139 304.299067,65 302.089928,65 L225,65 C222.790861,65 221,63.209139 221,61 L221,61 C221,58.790861 222.790861,57 225,57 Z" id="Rectangle-7-Copy" fill="#E1E8EE"></path>
                                    <path d="M168,82 L302.5,82 C304.709139,82 306.5,83.790861 306.5,86 L306.5,86 C306.5,88.209139 304.709139,90 302.5,90 L168,90 C165.790861,90 164,88.209139 164,86 L164,86 C164,83.790861 165.790861,82 168,82 Z" id="Rectangle-7" fill="#E1E8EE"></path>
                                    <path d="M225,100 L302.089928,100 C304.299067,100 306.089928,101.790861 306.089928,104 L306.089928,104 C306.089928,106.209139 304.299067,108 302.089928,108 L225,108 C222.790861,108 221,106.209139 221,104 L221,104 C221,101.790861 222.790861,100 225,100 Z" id="Rectangle-7-Copy" fill="#E1E8EE"></path>
                                    <g id="Group-3" transform="translate(25.000000, 156.000000)" fill="#E1E8EE">
                                        <path d="M4.5,0 L265.5,0 C267.985281,-4.56538782e-16 270,2.01471863 270,4.5 L270,4.5 C270,6.98528137 267.985281,9 265.5,9 L4.5,9 C2.01471863,9 3.04359188e-16,6.98528137 0,4.5 L0,4.5 C-3.04359188e-16,2.01471863 2.01471863,4.56538782e-16 4.5,0 Z" id="Rectangle-7-Copy-3"></path>
                                        <rect id="Rectangle-7-Copy-2" x="0" y="19" width="270" height="9" rx="4.5"></rect>
                                        <path d="M4.5,38 L233.5,38 C235.985281,38 238,40.0147186 238,42.5 L238,42.5 C238,44.9852814 235.985281,47 233.5,47 L4.5,47 C2.01471863,47 3.04359188e-16,44.9852814 0,42.5 L0,42.5 C-3.04359188e-16,40.0147186 2.01471863,38 4.5,38 Z" id="Rectangle-7-Copy-5"></path>
                                    </g>
                                </g>
                            </g>
                        </g>
                    </g>
                    <path d="M287.043901,106.627157 L270.115224,89.6929232 C273.604951,84.4216054 275.66479,78.12003 275.66479,71.3383346 C275.66479,52.9537384 260.705959,38 242.337395,38 C223.96883,38 209,52.9437359 209,71.3283321 C209,89.7129282 223.958831,104.666667 242.327396,104.666667 C249.106866,104.666667 255.406373,102.606152 260.675962,99.1152788 L277.604639,116.049512 C280.204436,118.650163 284.424106,118.650163 287.033902,116.049512 C289.653697,113.448862 289.653697,109.227807 287.043901,106.627157 Z M241.999996,90 C230.969998,90 222,81.03 222,70 C222,58.97 230.969998,50 241.999996,50 C253.029994,50 261.999992,58.97 261.999992,70 C262.009992,81.03 253.029994,90 241.999996,90 Z" id="Shape" fill="#0B7A76" fill-rule="nonzero"></path>
                </g>
            </g>
        </g>
    </g>
</svg>