<svg fill="none" height="42" viewBox="0 0 42 42" width="42" xmlns="http://www.w3.org/2000/svg"><circle cx="21" cy="21" fill="#3ad9cf" r="21"/><path clip-rule="evenodd" d="m28.94 17.67c.0295.0876.0496.1781.06.27v.06 10c0 1.6569-1.3431 3-3 3h-10c-1.6569 0-3-1.3431-3-3v-14c0-1.6569 1.3431-3 3-3h6.06c.1083.0209.2128.058.31.11h.1c.1028.0481.1973.1122.28.19l6 6c.0778.0827.1419.1772.19.28zm-7.56 2.41c.1228.0476.2349.119.33.21l2 2c.1893.1878.2958.4434.2958.71 0 .2667-.1065.5223-.2958.71-.1878.1893-.4434.2958-.71.2958s-.5222-.1065-.71-.2958l-.29-.3v2.59c0 .5523-.4477 1-1 1s-1-.4477-1-1v-2.59l-.29.3c-.3921.3921-1.0279.3921-1.42 0s-.3921-1.0279 0-1.42l2-2c.0951-.091.2073-.1624.33-.21.2435-.1.5165-.1.76 0zm1.62-5.67 2.59 2.59h-1.59c-.5523 0-1-.4477-1-1zm3 14.59c.5523 0 1-.4477 1-1v-9h-3c-1.6569 0-3-1.3431-3-3v-3h-5c-.5523 0-1 .4477-1 1v14c0 .5523.4477 1 1 1z" fill="#fff" fill-rule="evenodd"/></svg>