<svg fill="none" height="44" viewBox="0 0 44 44" width="44" xmlns="http://www.w3.org/2000/svg"><circle cx="22" cy="22" r="21" stroke="#f9fcff"/><path clip-rule="evenodd" d="m29 15.5h-6.28l-.32-1c-.4252-1.2026-1.5644-2.0049-2.84-2h-4.56c-1.6569 0-3 1.3432-3 3v13c0 1.6569 1.3431 3 3 3h14c1.6569 0 3-1.3431 3-3v-10c0-1.6568-1.3431-3-3-3zm-9.73 5c.5362-.9288 1.5275-1.5007 2.6-1.5 1.6568 0 3 1.3431 3 3s-1.3432 3-3 3c-.5523 0-1-.4477-1-1s.4477-1 1-1 1-.4477 1-1c.0032-.4554-.3017-.8554-.7417-.9731-.4399-.1176-.9038.0769-1.1283.4731-.1703.3255-.5053.5314-.8726.5364s-.7077-.1918-.8867-.5126c-.179-.3207-.1678-.7138.0293-1.0238zm3.15 5.67c.0564.0353.1071.0792.15.13.0941.083.1691.1853.22.3.0525.1233.0797.256.08.39-.0038.2638-.1116.5154-.3.7-.0913.0936-.2.1683-.32.22-.1209.0478-.25.0716-.38.07-.1334.0029-.266-.0209-.39-.07-.12-.0517-.2287-.1264-.32-.22-.1848-.1862-.2889-.4376-.29-.7-.0029-.1333.0209-.2659.07-.39.0517-.12.1265-.2287.22-.32.2344-.2377.5721-.3427.9-.28l.19.08zm6.58 3.33c.5523 0 1-.4477 1-1v-10c0-.5523-.4477-1-1-1h-7c-.4299.0011-.8124-.2727-.95-.68l-.54-1.64c-.1376-.4073-.5201-.6811-.95-.68h-4.56c-.5523 0-1 .4477-1 1v13c0 .5523.4477 1 1 1z" fill="#f9fcff" fill-rule="evenodd"/></svg>