<svg fill="none" height="44" viewBox="0 0 44 44" width="44" xmlns="http://www.w3.org/2000/svg"><circle cx="22" cy="22" r="21" stroke="#f9fcff"/><path clip-rule="evenodd" d="m29.0701 14.9301c-2.5108-2.5996-6.2288-3.6421-9.7251-2.727-3.4963.9152-6.2267 3.6456-7.1419 7.1419-.9151 3.4963.1274 7.2143 2.727 9.7251 2.5107 2.5995 6.2288 3.6421 9.7251 2.727 3.4963-.9152 6.2267-3.6457 7.1419-7.1419.9151-3.4963-.1275-7.2144-2.727-9.7251zm-3.36 3.36c-.1878-.1894-.4434-.2958-.71-.2958-.2667 0-.5223.1064-.71.2958l-2.29 2.3-2.29-2.3c-.3922-.3922-1.0279-.3922-1.42 0-.3922.3921-.3922 1.0278 0 1.42l2.3 2.29-2.3 2.29c-.1894.1877-.2958.4433-.2958.71 0 .2666.1064.5222.2958.71.1877.1893.4433.2958.71.2958.2666 0 .5222-.1065.71-.2958l2.29-2.3 2.29 2.3c.1877.1893.4433.2958.71.2958.2666 0 .5222-.1065.71-.2958.1893-.1878.2958-.4434.2958-.71 0-.2667-.1065-.5223-.2958-.71l-2.3-2.29 2.3-2.29c.1893-.1878.2958-.4434.2958-.71 0-.2667-.1065-.5223-.2958-.71zm-8.1505 10.3708c3.1745 2.1183 7.4034 1.6993 10.1005-1.0008 1.5046-1.4984 2.3472-3.5365 2.34-5.66-.003-3.8164-2.7014-7.0993-6.445-7.8411s-7.49 1.264-8.9481 4.7909-.2219 7.5926 2.9526 9.711z" fill="#f9fcff" fill-rule="evenodd"/></svg>