<svg fill="none" height="42" viewBox="0 0 42 42" width="42" xmlns="http://www.w3.org/2000/svg"><circle cx="21" cy="21" fill="#3ad9cf" r="21"/><path clip-rule="evenodd" d="m24.9397 10.0288c1.9507-.0279 3.7394 1.0812 4.5816 2.8409 1.7055.5719 2.7426 2.2983 2.4465 4.0726-.2962 1.7743-1.8377 3.0704-3.6365 3.0574h-7.33c-1.6568 0-3-1.3432-3-3 .0045-.7401.2823-1.4524.78-2h-2.78c-.5522 0-1 .4477-1 1v4c0 .5523-.4477 1-1 1-.5522 0-1-.4477-1-1v-4c0-1.6569 1.3432-3 3-3h4.44c.7915-1.7831 2.5478-2.9429 4.4984-2.9709zm-3.9384 7.9709h7.33c.443 0 .8677-.176 1.1809-.4892s.4891-.7379.4891-1.1808c.016-.8193-.5716-1.5261-1.38-1.66-.3637-.0624-.6635-.3199-.78-.67-.4747-1.3958-1.8933-2.2397-3.3465-1.9909-1.4531.2488-2.5101 1.5166-2.4935 2.9909 0 .5523-.4477 1-1 1-.5522 0-1 .4477-1 1s.4478 1 1 1zm7.0001 4.0001c-.5523 0-1 .4477-1 1v3c0 .5522-.4478 1-1 1h-2.26c-.3912-1.0017-1.2031-1.7806-2.22-2.13-.93-1.9736-3.0322-3.1163-5.1942-2.8235-2.1619.2928-3.8844 1.9536-4.2558 4.1035-1.3989.4597-2.2573 1.8668-2.0261 3.321s1.4836 2.5257 2.9561 2.529h7.33c1.7668 0 3.2813-1.2622 3.6-3h2.07c1.6568 0 3-1.3432 3-3v-3c0-.5523-.4478-1-1-1zm-15.0001 7.9999h7.33c.443 0 .8677-.176 1.1809-.4892s.4891-.7379.4891-1.1808c.016-.8193-.5716-1.5261-1.38-1.66-.3637-.0624-.6635-.3199-.78-.67-.4747-1.3958-1.8933-2.2397-3.3465-1.9909-1.4531.2488-2.5101 1.5166-2.4935 2.9909 0 .5523-.4477 1-1 1-.5522 0-1 .4477-1 1s.4478 1 1 1z" fill="#fff" fill-rule="evenodd"/></svg>