<svg fill="none" height="30" viewBox="0 0 30 30" width="30" xmlns="http://www.w3.org/2000/svg"><rect fill="#ff647c" height="30" rx="7" width="30"/><g fill="#fff" stroke="#fff"><path d="m14.3717 20.6943c0 .0125-.0026.0248-.0074.0358-.0051.0117-.0125.0222-.0212.0302-.1136.1038-.2141.2219-.2988.3508-.0793.1206-.0477.2839.0703.3648.044.0301.0939.0446.1432.0446.0829 0 .1643-.0409.2139-.1164.0609-.0926.1331-.1775.2148-.2521.0629-.0577.1126-.1272.1475-.2067.0343-.078.0524-.1648.0524-.251 0-.3396-.2704-.6159-.6029-.6159h-3.3729c-.1574 0-.2854-.1307-.2854-.2914v-3.4226c0-.1706-.0649-.3308-.1828-.4512-.1181-.1206-.2751-.1871-.4421-.1871-.17591 0-.34509.0769-.46408.211-.24676.2778-.59843.4371-.96487.4371-.36633 0-.70548-.1511-.95485-.4254-.2492-.2741-.37136-.6318-.3441-1.0072.04784-.655.56797-1.1815 1.20977-1.2248.40137-.027.7855.1313 1.05391.434.05842.0661.1286.1183.20921.1555.10894.0499.22955.0667.34861.0485.3029-.0462.5313-.3227.5313-.6432v-3.4105c0-.1607.128-.2914.2853-.2914h3.351c.3446 0 .6249-.28638.6249-.63833v-.05572c0-.17912-.0752-.35177-.2067-.47419-.2719-.25164-.4278-.6108-.4278-.98535 0-.37424.1479-.72064.4166-.97531.2683-.25443.6185-.37905.9861-.35107.6411.04855 1.1566.57983 1.1991 1.23567.0264.40978-.1286.80223-.4253 1.0768-.1312.12147-.2064.29401-.2064.47342v.05572c0 .35195.2804.63826.625.63826h.805c.1421 0 .2574-.11767.2574-.26286 0-.1452-.1152-.2629-.2574-.2629h-.805c-.0608 0-.1102-.05048-.1102-.1125v-.05572c0-.03133.0136-.06191.0373-.08385.4138-.38292.6301-.92999.5933-1.501-.0593-.91582-.7793-1.65758-1.6746-1.72536-.5119-.03913-1 .135-1.3745.49001-.3694.35015-.5812.8461-.5812 1.36065 0 .52267.2176 1.02382.5964 1.3745.0243.02254.0382.05351.0382.08505v.05572c0 .06205-.0495.1125-.1102.1125h-3.3509c-.4412 0-.8001.36657-.8001.81716v3.4105c0 .0612-.0407.1153-.0926.1233-.02182.0033-.04265.0005-.06123-.008-.01494-.0069-.02792-.0164-.03873-.0287-.37487-.4227-.91031-.6435-1.46957-.606-.89624.0605-1.62247.7958-1.68925 1.7105-.038.5229.13252 1.0215.4802 1.4039.34283.3772.82836.5935 1.33207.5935.51131 0 1.00194-.2222 1.34614-.6097.02172-.0244.05191-.0384.08277-.0384.0399 0 .0661.0207.0782.0331.012.0122.032.0387.032.0794v3.4226c0 .4506.3589.8172.8001.8172h3.3729c.0486 0 .0882.0404.0882.0901z"/><path d="m20.3691 13.0376c.3641-.0802.6283-.4157.6283-.7979v-1.9386c0-.45064-.3589-.81721-.8001-.81721h-1.3483c-.1422 0-.2574.1177-.2574.2629 0 .14519.1152.26291.2574.26291h1.3483c.1573 0 .2854.1307.2854.2914v1.9386c0 .1362-.0934.2556-.222.2839-1.0355.2279-1.787 1.1796-1.787 2.2629 0 1.0832.7515 2.0347 1.787 2.2625.1286.0283.222.1477.222.2839v2.4542c0 .1607-.128.2914-.2854.2914h-3.3729c-.161 0-.3124.064-.4263.1804-.1139.1163-.1766.2709-.1766.4354 0 .1746.0731.3416.2006.4584.2757.2522.4339.6134.4339.991 0 .3689-.1519.7246-.4168.9756-.2683.2544-.6182.379-.9858.3511-.5806-.0443-1.0649-.4838-1.1778-1.0688-.0275-.1424-.1628-.2352-.3023-.2071-.1394.0281-.2302.1663-.2028.3088.1575.8163.8338 1.4296 1.6446 1.4914.0472.0036.0941.0054.1408.0054.46 0 .8936-.1732 1.2335-.4954.3694-.3503.5813-.8463.5813-1.361 0-.5269-.2206-1.0308-.6051-1.3826-.0186-.0171-.0294-.0415-.0294-.0668 0-.0324.0162-.0538.0259-.0636.0096-.0099.0306-.0265.0623-.0265h3.3729c.4412 0 .8001-.3665.8001-.8171v-2.4542c0-.3822-.2642-.7178-.6283-.7979-.8-.176-1.3806-.9114-1.3806-1.7486 0-.8373.5806-1.5728 1.3806-1.7488z"/></g></svg>