<svg fill="none" height="30" viewBox="0 0 30 30" width="30" xmlns="http://www.w3.org/2000/svg"><rect fill="#00a0b6" height="30" rx="7" width="30"/><path clip-rule="evenodd" d="m16.873 11.5488c.2396-1.2021 1.2943-2.068 2.5201-2.06882 1.2492.02297 2.3011.94052 2.4935 2.17512.1924 1.2345-.5305 2.4286-1.7135 2.8306-.3393 1.5798-1.7356 2.7082-3.3514 2.7086h-3.4286c-.69.002-1.3115.4175-1.5771 1.0543 1.1448.4726 1.79 1.6941 1.5351 2.9061-.255 1.212-1.3377 2.0701-2.5759 2.0414-1.23819-.0286-2.28004-.9359-2.47863-2.1584-.1986-1.2225.5025-2.4129 1.66796-2.832v-7.1657c-1.18076-.4175-1.88904-1.62487-1.67726-2.85922.21178-1.23434 1.28202-2.13659 2.53443-2.13659 1.2523 0 2.3226.90225 2.5344 2.13659.2117 1.23435-.4965 2.44172-1.6773 2.85922v4.92c.5177-.3116 1.11-.4775 1.7143-.48h3.4286c.6931.0014 1.3188-.4146 1.5857-1.0543-1.1318-.4707-1.774-1.6748-1.5344-2.8769zm-5.194-2.92597c0-.47339-.3837-.85714-.8571-.85714s-.85718.38375-.85718.85714.38378.85714.85718.85714.8571-.38375.8571-.85714zm-.8571 12.85717c-.4734 0-.85718-.3838-.85718-.8572s.38378-.8571.85718-.8571.8571.3837.8571.8571-.3837.8572-.8571.8572zm7.7144-9.4287c0 .4734.3837.8571.8571.8571s.8571-.3837.8571-.8571-.3837-.8571-.8571-.8571-.8571.3837-.8571.8571z" fill="#fff" fill-rule="evenodd"/></svg>