<svg fill="none" height="30" viewBox="0 0 30 30" width="30" xmlns="http://www.w3.org/2000/svg"><rect fill="#ffc634" height="30" rx="7" width="30"/><path clip-rule="evenodd" d="m19.1318 12.298c0 1.2275-.5332 2.3944-1.4613 3.1977 2.4744 1.1001 4.0729 3.5499 4.0831 6.2579 0 .4747-.3849.8596-.8596.8596-.4748 0-.8596-.3849-.8596-.8596 0-2.8485-2.3091-5.1576-5.1576-5.1576s-5.1576 2.3091-5.1576 5.1576c0 .4747-.38486.8596-.8596.8596s-.8596-.3849-.8596-.8596c.00258-2.6979 1.58247-5.145 4.0401-6.2579-.9441-.7953-1.4935-1.9634-1.5043-3.1977 0-2.37372 1.9243-4.298 4.298-4.298s4.298 1.92428 4.298 4.298zm-6.8767 0c0 1.4243 1.1545 2.5788 2.5788 2.5788.6839 0 1.3398-.2717 1.8234-.7553.4837-.4836.7554-1.1395.7554-1.8235 0-1.4242-1.1546-2.57876-2.5788-2.57876-1.4243 0-2.5788 1.15456-2.5788 2.57876zm9.8853-1.7189c-.4748 0-.8596.3849-.8596.8596v1.7192c0 .4747.3848.8596.8596.8596.4747 0 .8596-.3849.8596-.8596v-1.7192c0-.4747-.3849-.8596-.8596-.8596zm-.894 5.1576c.0032-.2276.0922-.4456.2493-.6103.2459-.248.6174-.3225.94-.1886.3225.1339.5319.4497.5299.7989.0029.1128-.0206.2246-.0688.3266-.0781.216-.2482.3861-.4641.4642-.2081.092-.4453.092-.6533 0-.1042-.0435-.2001-.1046-.2837-.1805-.1609-.1622-.2506-.3818-.2493-.6103z" fill="#fff" fill-rule="evenodd"/></svg>