<svg fill="none" height="70" viewBox="0 0 70 70" width="70" xmlns="http://www.w3.org/2000/svg"><g fill="#00a0b6"><path d="m24.8369 4.51611c-4.9803 0-9.0322 4.05195-9.0322 9.03229h2.2581c0-3.73609 3.0381-6.77422 6.7741-6.77422z"/><path d="m60.9677 38.3871h-15.8064v-5.6452h14.6774c5.6022 0 10.1613-4.5591 10.1613-10.1613 0-5.6021-4.5591-10.1612-10.1613-10.1612h-1.1864c-.5772-6.94238-6.402-12.4194-13.491-12.4194-3.8976 0-7.5885 1.69796-10.1464 4.59496-2.5177-2.8755-6.175-4.59496-10.1762-4.59496-7.1165 0-12.9568 5.52002-13.4955 12.5004-1.52646-.1858-3.02761-.0199-4.47639.5105-4.23277 1.548-6.9280027 5.3618-6.86570743 9.7164.07883373 5.5222 4.63575743 10.0146 10.16019743 10.0146h16.9355v5.6452h-18.06454v11.2903h-9.03226v20.3226h20.3226v-20.3226h-9.0323v-9.0322h18.0645v-7.9033h4.5162v16.9355h-9.0323v20.3226h20.3226v-20.3226h-9.0323v-19.1935h-25.9677c-4.29618 0-7.84094-3.4935-7.90213-7.788-.04741-3.3816 2.06511-6.3508 5.3833-7.5648 1.21227-.4438 2.43613-.5441 3.71123-.3396.0755.8297.22 1.6517.446 2.451l2.1732-.6141c-.2823-.9978-.4245-2.0337-.4245-3.08 0-6.22568 5.0646-11.29034 11.2903-11.29034 4.6865 0 8.8167 2.82038 10.5202 7.18491l2.1037-.82142c-.2961-.75691-.6582-1.46807-1.0684-2.1434 2.1395-2.64617 5.3541-4.22009 8.7671-4.22009 5.8447 0 10.6646 4.46431 11.233 10.16134h-4.4588v2.258h7.9032c4.3579 0 7.9032 3.5453 7.9032 7.9032 0 4.358-3.5453 7.9033-7.9032 7.9033h-16.9355v10.1613h15.8065v9.0322h-9.0323v20.3226h20.3226v-20.3226h-9.0323zm-58.70964 29.3548v-6.7742h15.80644v6.7742zm15.80644-9.0322h-15.80644v-6.7742h15.80644zm9.0323 9.0322v-6.7742h15.8064v6.7742zm15.8064-9.0322h-15.8064v-6.7742h15.8064zm9.0323 9.0322v-6.7742h15.8064v6.7742zm15.8064-9.0322h-15.8064v-6.7742h15.8064z"/><path d="m29.3555 19.1936h2.258v2.2581h-2.258z"/><path d="m33.8711 19.1936h2.2581v2.2581h-2.2581z"/><path d="m38.3867 19.1936h2.2581v2.2581h-2.2581z"/><path d="m45.159 19.1936h-2.258v4.5161h-22.5807v2.2581h24.8387z"/><path d="m30.4844 54.1936h2.258v2.2581h-2.258z"/><path d="m37.2578 54.1936h2.2581v2.2581h-2.2581z"/><path d="m30.4844 63.2258h2.258v2.2581h-2.258z"/><path d="m37.2578 63.2258h2.2581v2.2581h-2.2581z"/><path d="m5.64453 54.1936h2.25807v2.2581h-2.25807z"/><path d="m12.418 54.1936h2.258v2.2581h-2.258z"/><path d="m5.64453 63.2258h2.25807v2.2581h-2.25807z"/><path d="m12.418 63.2258h2.258v2.2581h-2.258z"/><path d="m55.3203 54.1936h2.2581v2.2581h-2.2581z"/><path d="m62.0977 54.1936h2.258v2.2581h-2.258z"/><path d="m55.3203 63.2258h2.2581v2.2581h-2.2581z"/><path d="m62.0977 63.2258h2.258v2.2581h-2.258z"/></g></svg>