<svg fill="none" height="70" viewBox="0 0 70 70" width="70" xmlns="http://www.w3.org/2000/svg"><g fill="#00a0b6"><path d="m64.9528 19.7511c-.8139-2.1137-2.4842-3.7355-4.5237-4.521-1.1636-3.0274-4.0828-5.0482-7.3281-5.0482h-21.8676c-.5471-.57543-1.1135-1.0766-1.7012-1.50381l-2.6448-2.83408c-2.2113-2.40998-4.7384-3.58131-7.7258-3.58131h-11.31312c-4.32769 0-7.84848 3.52078-7.84848 7.8485v40.7273c0 3.2453 2.02081 6.1645 5.04806 7.328.78541 2.0397 2.40701 3.7098 4.52115 4.5236 1.13049 2.948 3.98889 5.0473 7.32979 5.0473h45.2525c4.3277 0 7.8485-3.5207 7.8485-7.8484v-32.8081c0-3.3409-2.0992-6.1993-5.0472-7.3298zm-2.6667-.5153c-.0449-.0007-.0895-.0034-.1346-.0034h-22.1654l-2.2435-2.404h19.8837c1.8738 0 3.5999.9251 4.6598 2.4074zm-4.5258-4.526c-.0447-.0007-.0892-.0027-.134-.0027h-21.495c-.1131 0-.2219.0181-.3241.0509-.9164-.9732-1.8865-1.7382-2.9211-2.296.0046-.0528.0061-.1059.0027-.1589h20.2122c1.874 0 3.5996.9247 4.6593 2.4067zm-55.63909 36.1287v-40.7273c0-3.15808 2.56921-5.72729 5.72727-5.72729h11.31312c2.214 0 4.0558.78937 5.7587 2.47644-.4026-.04652-.813-.0724-1.2334-.0724h-11.3132c-4.32766 0-7.84845 3.52075-7.84845 7.84845v40.7273c0 .0448.00184.0894.00269.1341-1.48202-1.0599-2.40673-2.7853-2.40673-4.6593zm4.52525 4.5252v-40.7273c0-3.158 2.56922-5.72724 5.72724-5.72724h11.3132c1.6515 0 3.0959.43867 4.4302 1.36154l1.0114 1.0838c-.3011-.0256-.6057-.0413-.9164-.0413h-11.3131c-4.3277 0-7.8485 3.5208-7.8485 7.8485v40.7273c0 .0451.00269.0896.0034.1346-1.4823-1.0598-2.40744-2.7855-2.40744-4.6599zm61.23234 4.5253c0 3.158-2.5692 5.7272-5.7273 5.7272h-45.2525c-3.1581 0-5.7273-2.5692-5.7273-5.7272v-26.0202c0-3.1581 2.5692-5.7273 5.7273-5.7273h45.2525c3.1581 0 5.7273 2.5692 5.7273 5.7273zm-5.7273-33.8687h-45.2525c-2.2575 0-4.2941.9593-5.7273 2.4903v-9.3489c0-3.1581 2.5692-5.7273 5.7273-5.7273h11.3131c2.3927 0 4.351.9196 6.1688 2.9007l4.369 4.6815c.2005.215.4814.337.7753.337h22.6263c3.1581 0 5.7273 2.5692 5.7273 5.7273v1.4297c-1.4332-1.531-3.4698-2.4903-5.7273-2.4903z"/><path d="m62.1496 32.8081h-12.4445c-.5857 0-1.0606.4747-1.0606 1.0606s.4749 1.0606 1.0606 1.0606h12.4445c.5857 0 1.0606-.4747 1.0606-1.0606s-.4749-1.0606-1.0606-1.0606z"/><path d="m62.1496 37.3333h-12.4445c-.5857 0-1.0606.4747-1.0606 1.0606 0 .5858.4749 1.0606 1.0606 1.0606h12.4445c.5857 0 1.0606-.4748 1.0606-1.0606 0-.5859-.4749-1.0606-1.0606-1.0606z"/></g></svg>