<svg width="579" height="442" viewBox="0 0 579 442" fill="none" xmlns="http://www.w3.org/2000/svg">
<rect x="3" width="573" height="283" rx="1" fill="#F4F8FB"/>
<path d="M228.33 176V163.184H236.25V164.426H229.788V168.872H235.89V170.114H229.788V176H228.33ZM245.533 174.92C245.137 175.292 244.627 175.586 244.003 175.802C243.391 176.018 242.761 176.126 242.113 176.126C241.177 176.126 240.367 175.94 239.683 175.568C239.011 175.196 238.489 174.662 238.117 173.966C237.757 173.258 237.577 172.418 237.577 171.446C237.577 170.51 237.757 169.688 238.117 168.98C238.477 168.272 238.975 167.72 239.611 167.324C240.259 166.928 241.003 166.73 241.843 166.73C242.647 166.73 243.337 166.91 243.913 167.27C244.489 167.618 244.927 168.122 245.227 168.782C245.539 169.442 245.695 170.234 245.695 171.158V171.428H238.855V170.474H244.867L244.399 171.14C244.423 170.084 244.213 169.274 243.769 168.71C243.337 168.146 242.701 167.864 241.861 167.864C240.985 167.864 240.295 168.176 239.791 168.8C239.299 169.412 239.053 170.264 239.053 171.356C239.053 172.532 239.311 173.42 239.827 174.02C240.355 174.62 241.123 174.92 242.131 174.92C242.659 174.92 243.163 174.836 243.643 174.668C244.135 174.488 244.603 174.218 245.047 173.858L245.533 174.92ZM255.324 174.92C254.928 175.292 254.418 175.586 253.794 175.802C253.182 176.018 252.552 176.126 251.904 176.126C250.968 176.126 250.158 175.94 249.474 175.568C248.802 175.196 248.28 174.662 247.908 173.966C247.548 173.258 247.368 172.418 247.368 171.446C247.368 170.51 247.548 169.688 247.908 168.98C248.268 168.272 248.766 167.72 249.402 167.324C250.05 166.928 250.794 166.73 251.634 166.73C252.438 166.73 253.128 166.91 253.704 167.27C254.28 167.618 254.718 168.122 255.018 168.782C255.33 169.442 255.486 170.234 255.486 171.158V171.428H248.646V170.474H254.658L254.19 171.14C254.214 170.084 254.004 169.274 253.56 168.71C253.128 168.146 252.492 167.864 251.652 167.864C250.776 167.864 250.086 168.176 249.582 168.8C249.09 169.412 248.844 170.264 248.844 171.356C248.844 172.532 249.102 173.42 249.618 174.02C250.146 174.62 250.914 174.92 251.922 174.92C252.45 174.92 252.954 174.836 253.434 174.668C253.926 174.488 254.394 174.218 254.838 173.858L255.324 174.92ZM265.673 176H264.233V173.57L264.449 173.768C264.245 174.524 263.855 175.106 263.279 175.514C262.703 175.922 262.001 176.126 261.173 176.126C260.381 176.126 259.679 175.934 259.067 175.55C258.467 175.154 257.999 174.602 257.663 173.894C257.327 173.174 257.159 172.34 257.159 171.392C257.159 170.444 257.321 169.622 257.645 168.926C257.981 168.23 258.449 167.69 259.049 167.306C259.661 166.922 260.369 166.73 261.173 166.73C262.001 166.73 262.703 166.94 263.279 167.36C263.855 167.768 264.245 168.344 264.449 169.088L264.215 169.268V162.752H265.673V176ZM261.461 174.92C262.337 174.92 263.015 174.62 263.495 174.02C263.987 173.408 264.233 172.544 264.233 171.428C264.233 170.324 263.993 169.472 263.513 168.872C263.033 168.26 262.349 167.954 261.461 167.954C260.573 167.954 259.877 168.254 259.373 168.854C258.881 169.454 258.635 170.3 258.635 171.392C258.635 172.508 258.881 173.378 259.373 174.002C259.877 174.614 260.573 174.92 261.461 174.92ZM268.492 176V162.752H269.95V169.268L269.752 169.088C269.956 168.344 270.346 167.768 270.922 167.36C271.498 166.94 272.194 166.73 273.01 166.73C273.814 166.73 274.516 166.922 275.116 167.306C275.716 167.69 276.184 168.23 276.52 168.926C276.868 169.622 277.042 170.444 277.042 171.392C277.042 172.34 276.868 173.174 276.52 173.894C276.184 174.602 275.71 175.154 275.098 175.55C274.498 175.934 273.802 176.126 273.01 176.126C272.194 176.126 271.498 175.922 270.922 175.514C270.346 175.106 269.956 174.524 269.752 173.768L269.95 173.57V176H268.492ZM272.74 174.92C273.616 174.92 274.3 174.614 274.792 174.002C275.284 173.378 275.53 172.508 275.53 171.392C275.53 170.3 275.284 169.454 274.792 168.854C274.3 168.254 273.616 167.954 272.74 167.954C271.84 167.954 271.15 168.26 270.67 168.872C270.19 169.472 269.95 170.324 269.95 171.428C269.95 172.544 270.19 173.408 270.67 174.02C271.15 174.62 271.84 174.92 272.74 174.92ZM282.759 176.126C281.955 176.126 281.247 175.94 280.635 175.568C280.035 175.184 279.567 174.644 279.231 173.948C278.907 173.24 278.745 172.412 278.745 171.464C278.745 170.516 278.913 169.688 279.249 168.98C279.585 168.272 280.053 167.72 280.653 167.324C281.265 166.928 281.967 166.73 282.759 166.73C283.587 166.73 284.289 166.934 284.865 167.342C285.441 167.75 285.831 168.332 286.035 169.088L285.819 169.232V166.946H287.259V176H285.819V173.66L286.035 173.768C285.831 174.524 285.441 175.106 284.865 175.514C284.289 175.922 283.587 176.126 282.759 176.126ZM283.047 174.92C283.935 174.92 284.619 174.62 285.099 174.02C285.579 173.408 285.819 172.544 285.819 171.428C285.819 170.312 285.573 169.454 285.081 168.854C284.601 168.254 283.923 167.954 283.047 167.954C282.159 167.954 281.463 168.266 280.959 168.89C280.467 169.502 280.221 170.36 280.221 171.464C280.221 172.568 280.467 173.42 280.959 174.02C281.463 174.62 282.159 174.92 283.047 174.92ZM293.876 176.126C292.988 176.126 292.22 175.934 291.572 175.55C290.924 175.166 290.42 174.626 290.06 173.93C289.712 173.234 289.538 172.412 289.538 171.464C289.538 170.528 289.718 169.706 290.078 168.998C290.438 168.278 290.948 167.72 291.608 167.324C292.268 166.928 293.048 166.73 293.948 166.73C294.56 166.73 295.148 166.838 295.712 167.054C296.288 167.258 296.762 167.546 297.134 167.918L296.648 168.998C296.204 168.65 295.766 168.392 295.334 168.224C294.914 168.044 294.476 167.954 294.02 167.954C293.108 167.954 292.382 168.26 291.842 168.872C291.314 169.484 291.05 170.348 291.05 171.464C291.05 172.568 291.314 173.42 291.842 174.02C292.37 174.62 293.096 174.92 294.02 174.92C294.464 174.92 294.902 174.836 295.334 174.668C295.766 174.488 296.204 174.224 296.648 173.876L297.134 174.956C296.75 175.316 296.264 175.604 295.676 175.82C295.1 176.024 294.5 176.126 293.876 176.126ZM305.092 176L300.16 171.374L304.714 166.964H306.568L301.528 171.788L301.582 170.87L307 176H305.092ZM298.99 176V162.752H300.448V176H298.99ZM311.669 168.098V166.946H317.483V168.098H311.669ZM317.447 174.704V175.946C317.243 176.006 317.039 176.048 316.835 176.072C316.643 176.108 316.427 176.126 316.187 176.126C315.347 176.126 314.675 175.886 314.171 175.406C313.679 174.926 313.433 174.206 313.433 173.246V164.624L314.891 164.102V173.048C314.891 173.528 314.957 173.9 315.089 174.164C315.233 174.428 315.425 174.614 315.665 174.722C315.905 174.818 316.175 174.866 316.475 174.866C316.655 174.866 316.817 174.854 316.961 174.83C317.105 174.806 317.267 174.764 317.447 174.704ZM318.913 180.086L318.607 178.952C319.159 178.82 319.621 178.664 319.993 178.484C320.377 178.316 320.695 178.094 320.947 177.818C321.211 177.542 321.439 177.176 321.631 176.72L322.207 175.388L322.531 174.938L325.843 166.946H327.301L323.071 176.828C322.747 177.56 322.381 178.142 321.973 178.574C321.565 179.018 321.103 179.354 320.587 179.582C320.083 179.81 319.525 179.978 318.913 180.086ZM322.225 176.468L318.157 166.946H319.687L322.963 174.938L322.225 176.468ZM328.908 179.888V169.484C328.908 169.064 328.896 168.644 328.872 168.224C328.86 167.792 328.824 167.366 328.764 166.946H330.15L330.312 168.818L330.168 169.088C330.372 168.332 330.762 167.75 331.338 167.342C331.914 166.934 332.61 166.73 333.426 166.73C334.218 166.73 334.914 166.928 335.514 167.324C336.126 167.72 336.6 168.272 336.936 168.98C337.284 169.688 337.458 170.516 337.458 171.464C337.458 172.412 337.284 173.24 336.936 173.948C336.6 174.644 336.132 175.184 335.532 175.568C334.932 175.94 334.23 176.126 333.426 176.126C332.61 176.126 331.914 175.922 331.338 175.514C330.762 175.106 330.372 174.524 330.168 173.768L330.366 173.588V179.888H328.908ZM333.156 174.92C334.032 174.92 334.716 174.62 335.208 174.02C335.7 173.42 335.946 172.568 335.946 171.464C335.946 170.36 335.7 169.502 335.208 168.89C334.716 168.266 334.032 167.954 333.156 167.954C332.256 167.954 331.566 168.254 331.086 168.854C330.606 169.454 330.366 170.312 330.366 171.428C330.366 172.544 330.606 173.408 331.086 174.02C331.566 174.62 332.256 174.92 333.156 174.92ZM347.117 174.92C346.721 175.292 346.211 175.586 345.587 175.802C344.975 176.018 344.345 176.126 343.697 176.126C342.761 176.126 341.951 175.94 341.267 175.568C340.595 175.196 340.073 174.662 339.701 173.966C339.341 173.258 339.161 172.418 339.161 171.446C339.161 170.51 339.341 169.688 339.701 168.98C340.061 168.272 340.559 167.72 341.195 167.324C341.843 166.928 342.587 166.73 343.427 166.73C344.231 166.73 344.921 166.91 345.497 167.27C346.073 167.618 346.511 168.122 346.811 168.782C347.123 169.442 347.279 170.234 347.279 171.158V171.428H340.439V170.474H346.451L345.983 171.14C346.007 170.084 345.797 169.274 345.353 168.71C344.921 168.146 344.285 167.864 343.445 167.864C342.569 167.864 341.879 168.176 341.375 168.8C340.883 169.412 340.637 170.264 340.637 171.356C340.637 172.532 340.895 173.42 341.411 174.02C341.939 174.62 342.707 174.92 343.715 174.92C344.243 174.92 344.747 174.836 345.227 174.668C345.719 174.488 346.187 174.218 346.631 173.858L347.117 174.92ZM349.24 174.146H351.094V176H349.24V174.146ZM349.24 167.144H351.094V169.016H349.24V167.144Z" fill="#1C3C55"/>
<path d="M277.869 259.18C276.469 259.18 275.242 258.88 274.189 258.28C273.149 257.68 272.349 256.833 271.789 255.74C271.229 254.633 270.949 253.34 270.949 251.86C270.949 250.393 271.229 249.113 271.789 248.02C272.349 246.913 273.149 246.067 274.189 245.48C275.242 244.88 276.469 244.58 277.869 244.58C278.829 244.58 279.729 244.733 280.569 245.04C281.422 245.333 282.129 245.747 282.689 246.28L281.849 248.16C281.209 247.64 280.569 247.267 279.929 247.04C279.302 246.8 278.629 246.68 277.909 246.68C276.536 246.68 275.469 247.127 274.709 248.02C273.962 248.913 273.589 250.193 273.589 251.86C273.589 253.54 273.962 254.833 274.709 255.74C275.456 256.633 276.522 257.08 277.909 257.08C278.629 257.08 279.302 256.967 279.929 256.74C280.569 256.5 281.209 256.12 281.849 255.6L282.689 257.48C282.129 258.013 281.422 258.433 280.569 258.74C279.729 259.033 278.829 259.18 277.869 259.18ZM285.101 244.76H294.621V246.8H287.621V250.74H294.201V252.78H287.621V256.96H294.621V259H285.101V244.76ZM301.62 259.18C300.526 259.18 299.5 259.033 298.54 258.74C297.593 258.447 296.786 258.027 296.12 257.48L297 255.6C297.693 256.12 298.413 256.507 299.16 256.76C299.92 257 300.746 257.12 301.64 257.12C302.626 257.12 303.386 256.947 303.92 256.6C304.466 256.253 304.74 255.767 304.74 255.14C304.74 254.607 304.486 254.2 303.98 253.92C303.486 253.627 302.666 253.353 301.52 253.1C299.733 252.713 298.433 252.213 297.62 251.6C296.806 250.987 296.4 250.093 296.4 248.92C296.4 248.08 296.626 247.333 297.08 246.68C297.533 246.027 298.173 245.513 299 245.14C299.84 244.767 300.806 244.58 301.9 244.58C302.9 244.58 303.846 244.733 304.74 245.04C305.646 245.333 306.386 245.747 306.96 246.28L306.1 248.16C304.833 247.147 303.433 246.64 301.9 246.64C300.98 246.64 300.253 246.833 299.72 247.22C299.186 247.593 298.92 248.107 298.92 248.76C298.92 249.32 299.153 249.747 299.62 250.04C300.1 250.333 300.913 250.607 302.06 250.86C303.246 251.14 304.213 251.447 304.96 251.78C305.706 252.1 306.28 252.52 306.68 253.04C307.08 253.547 307.28 254.187 307.28 254.96C307.28 255.813 307.053 256.56 306.6 257.2C306.146 257.827 305.493 258.313 304.64 258.66C303.786 259.007 302.78 259.18 301.62 259.18Z" fill="black"/>
<rect x="335.5" y="199.5" width="19" height="19" rx="1.5" fill="#1C3C55" stroke="#1C3C55"/>
<path d="M345.42 207.995C345.911 207.995 346.344 208.101 346.718 208.314C347.092 208.519 347.382 208.813 347.587 209.194C347.792 209.568 347.895 210.001 347.895 210.492C347.895 211.005 347.778 211.46 347.543 211.856C347.308 212.245 346.971 212.549 346.531 212.769C346.091 212.982 345.581 213.088 345.002 213.088C344.511 213.088 344.027 213.007 343.55 212.846C343.073 212.677 342.681 212.454 342.373 212.175L342.846 211.141C343.557 211.684 344.283 211.955 345.024 211.955C345.515 211.955 345.889 211.834 346.146 211.592C346.41 211.343 346.542 210.991 346.542 210.536C346.542 210.103 346.406 209.759 346.135 209.502C345.871 209.238 345.515 209.106 345.068 209.106C344.76 209.106 344.47 209.165 344.199 209.282C343.928 209.392 343.689 209.557 343.484 209.777H342.626V205.168H347.532V206.268H344.012V208.402C344.408 208.131 344.877 207.995 345.42 207.995Z" fill="white"/>
<rect x="307.5" y="199.5" width="19" height="19" rx="1.5" fill="#1C3C55" stroke="#1C3C55"/>
<path d="M320.038 211.471H318.927V213H317.541V211.471H314.131V210.415L317.794 205.168H318.927V210.36H320.038V211.471ZM317.541 210.36V207.379L315.473 210.36H317.541Z" fill="white"/>
<rect x="279.5" y="199.5" width="19" height="19" rx="1.5" fill="#1C3C55" stroke="#1C3C55"/>
<path d="M290.212 208.974C290.674 209.099 291.026 209.326 291.268 209.656C291.517 209.986 291.642 210.393 291.642 210.877C291.642 211.559 291.389 212.098 290.883 212.494C290.384 212.89 289.71 213.088 288.859 213.088C288.331 213.088 287.821 213.007 287.33 212.846C286.846 212.685 286.446 212.461 286.131 212.175L286.615 211.141C287.312 211.684 288.041 211.955 288.804 211.955C289.303 211.955 289.673 211.856 289.915 211.658C290.164 211.46 290.289 211.159 290.289 210.756C290.289 210.36 290.164 210.07 289.915 209.887C289.666 209.696 289.281 209.601 288.76 209.601H287.726V208.468H288.573C289.585 208.468 290.091 208.083 290.091 207.313C290.091 206.954 289.981 206.679 289.761 206.488C289.541 206.297 289.233 206.202 288.837 206.202C288.133 206.202 287.429 206.473 286.725 207.016L286.252 205.982C286.567 205.703 286.963 205.483 287.44 205.322C287.924 205.153 288.419 205.069 288.925 205.069C289.695 205.069 290.307 205.26 290.762 205.641C291.224 206.015 291.455 206.517 291.455 207.148C291.448 207.581 291.334 207.958 291.114 208.281C290.901 208.596 290.601 208.827 290.212 208.974Z" fill="white"/>
<rect x="251.5" y="199.5" width="19" height="19" rx="1.5" fill="#1C3C55" stroke="#1C3C55"/>
<path d="M263.736 211.845V213H258.478V211.955L261.14 209.084C261.455 208.739 261.686 208.424 261.833 208.138C261.979 207.852 262.053 207.57 262.053 207.291C262.053 206.932 261.946 206.66 261.734 206.477C261.528 206.294 261.231 206.202 260.843 206.202C260.153 206.202 259.446 206.473 258.72 207.016L258.247 205.982C258.555 205.703 258.951 205.483 259.435 205.322C259.919 205.153 260.406 205.069 260.898 205.069C261.682 205.069 262.302 205.263 262.757 205.652C263.219 206.033 263.45 206.55 263.45 207.203C263.45 207.65 263.351 208.072 263.153 208.468C262.962 208.864 262.639 209.308 262.185 209.799L260.26 211.845H263.736Z" fill="white"/>
<rect x="223.5" y="199.5" width="19" height="19" rx="1.5" fill="#1C3C55" stroke="#1C3C55"/>
<path d="M235.763 211.845V213H230.934V211.845H232.65V206.796L231.055 207.753V206.488L233.233 205.168H234.058V211.845H235.763Z" fill="white"/>
<path d="M198.151 38.444H193.687V37.184H204.109V38.444H199.645V50H198.151V38.444ZM210.238 40.73C212.41 40.73 213.496 41.924 213.496 44.312V50H212.038V44.384C212.038 43.544 211.87 42.932 211.534 42.548C211.198 42.152 210.67 41.954 209.95 41.954C209.11 41.954 208.438 42.212 207.934 42.728C207.43 43.244 207.178 43.94 207.178 44.816V50H205.72V36.752H207.178V42.422C207.466 41.87 207.874 41.45 208.402 41.162C208.942 40.874 209.554 40.73 210.238 40.73ZM223.828 45.428H217.186C217.198 46.58 217.462 47.45 217.978 48.038C218.506 48.626 219.268 48.92 220.264 48.92C221.32 48.92 222.292 48.566 223.18 47.858L223.666 48.92C223.27 49.292 222.76 49.586 222.136 49.802C221.524 50.018 220.894 50.126 220.246 50.126C218.83 50.126 217.72 49.712 216.916 48.884C216.112 48.044 215.71 46.898 215.71 45.446C215.71 44.522 215.89 43.706 216.25 42.998C216.61 42.278 217.114 41.72 217.762 41.324C218.41 40.928 219.148 40.73 219.976 40.73C221.176 40.73 222.118 41.126 222.802 41.918C223.486 42.698 223.828 43.778 223.828 45.158V45.428ZM219.994 41.864C219.238 41.864 218.62 42.092 218.14 42.548C217.672 43.004 217.372 43.646 217.24 44.474H222.514C222.442 43.622 222.19 42.974 221.758 42.53C221.338 42.086 220.75 41.864 219.994 41.864ZM234.208 37.94C233.728 37.94 233.35 38.078 233.074 38.354C232.81 38.618 232.678 39.08 232.678 39.74V40.946H234.892V42.098H232.678V50H231.22V42.098H229.456V40.946H231.22V39.56C231.22 38.612 231.454 37.898 231.922 37.418C232.402 36.926 233.068 36.68 233.92 36.68C234.34 36.68 234.748 36.734 235.144 36.842V38.084C234.808 37.988 234.496 37.94 234.208 37.94ZM244.289 45.428H237.647C237.659 46.58 237.923 47.45 238.439 48.038C238.967 48.626 239.729 48.92 240.725 48.92C241.781 48.92 242.753 48.566 243.641 47.858L244.127 48.92C243.731 49.292 243.221 49.586 242.597 49.802C241.985 50.018 241.355 50.126 240.707 50.126C239.291 50.126 238.181 49.712 237.377 48.884C236.573 48.044 236.171 46.898 236.171 45.446C236.171 44.522 236.351 43.706 236.711 42.998C237.071 42.278 237.575 41.72 238.223 41.324C238.871 40.928 239.609 40.73 240.437 40.73C241.637 40.73 242.579 41.126 243.263 41.918C243.947 42.698 244.289 43.778 244.289 45.158V45.428ZM240.455 41.864C239.699 41.864 239.081 42.092 238.601 42.548C238.133 43.004 237.833 43.646 237.701 44.474H242.975C242.903 43.622 242.651 42.974 242.219 42.53C241.799 42.086 241.211 41.864 240.455 41.864ZM254.08 45.428H247.438C247.45 46.58 247.714 47.45 248.23 48.038C248.758 48.626 249.52 48.92 250.516 48.92C251.572 48.92 252.544 48.566 253.432 47.858L253.918 48.92C253.522 49.292 253.012 49.586 252.388 49.802C251.776 50.018 251.146 50.126 250.498 50.126C249.082 50.126 247.972 49.712 247.168 48.884C246.364 48.044 245.962 46.898 245.962 45.446C245.962 44.522 246.142 43.706 246.502 42.998C246.862 42.278 247.366 41.72 248.014 41.324C248.662 40.928 249.4 40.73 250.228 40.73C251.428 40.73 252.37 41.126 253.054 41.918C253.738 42.698 254.08 43.778 254.08 45.158V45.428ZM250.246 41.864C249.49 41.864 248.872 42.092 248.392 42.548C247.924 43.004 247.624 43.646 247.492 44.474H252.766C252.694 43.622 252.442 42.974 252.01 42.53C251.59 42.086 251.002 41.864 250.246 41.864ZM264.267 36.752V50H262.827V48.362C262.563 48.926 262.161 49.364 261.621 49.676C261.093 49.976 260.475 50.126 259.767 50.126C258.975 50.126 258.273 49.928 257.661 49.532C257.061 49.136 256.593 48.584 256.257 47.876C255.921 47.156 255.753 46.328 255.753 45.392C255.753 44.456 255.915 43.64 256.239 42.944C256.575 42.236 257.049 41.69 257.661 41.306C258.273 40.922 258.975 40.73 259.767 40.73C260.475 40.73 261.093 40.886 261.621 41.198C262.149 41.498 262.545 41.924 262.809 42.476V36.752H264.267ZM260.055 48.92C260.943 48.92 261.627 48.62 262.107 48.02C262.587 47.408 262.827 46.544 262.827 45.428C262.827 44.324 262.587 43.472 262.107 42.872C261.627 42.26 260.943 41.954 260.055 41.954C259.167 41.954 258.471 42.254 257.967 42.854C257.475 43.454 257.229 44.3 257.229 45.392C257.229 46.508 257.475 47.378 257.967 48.002C258.471 48.614 259.167 48.92 260.055 48.92ZM271.604 40.73C272.396 40.73 273.098 40.922 273.71 41.306C274.322 41.69 274.796 42.236 275.132 42.944C275.468 43.64 275.636 44.456 275.636 45.392C275.636 46.328 275.468 47.156 275.132 47.876C274.796 48.584 274.322 49.136 273.71 49.532C273.098 49.928 272.396 50.126 271.604 50.126C270.896 50.126 270.278 49.97 269.75 49.658C269.222 49.346 268.82 48.902 268.544 48.326V50H267.086V36.752H268.544V42.548C268.808 41.96 269.204 41.51 269.732 41.198C270.272 40.886 270.896 40.73 271.604 40.73ZM271.334 48.92C272.21 48.92 272.894 48.614 273.386 48.002C273.878 47.378 274.124 46.508 274.124 45.392C274.124 44.3 273.878 43.454 273.386 42.854C272.906 42.254 272.222 41.954 271.334 41.954C270.434 41.954 269.744 42.254 269.264 42.854C268.784 43.454 268.544 44.312 268.544 45.428C268.544 46.544 268.784 47.408 269.264 48.02C269.744 48.62 270.434 48.92 271.334 48.92ZM285.853 40.946V50H284.413V48.362C284.149 48.926 283.747 49.364 283.207 49.676C282.679 49.976 282.061 50.126 281.353 50.126C280.549 50.126 279.841 49.934 279.229 49.55C278.629 49.166 278.161 48.626 277.825 47.93C277.501 47.222 277.339 46.4 277.339 45.464C277.339 44.528 277.507 43.706 277.843 42.998C278.179 42.278 278.647 41.72 279.247 41.324C279.859 40.928 280.561 40.73 281.353 40.73C282.061 40.73 282.679 40.886 283.207 41.198C283.735 41.51 284.137 41.948 284.413 42.512V40.946H285.853ZM281.641 48.92C282.529 48.92 283.213 48.62 283.693 48.02C284.173 47.408 284.413 46.544 284.413 45.428C284.413 44.312 284.173 43.454 283.693 42.854C283.213 42.254 282.529 41.954 281.641 41.954C280.753 41.954 280.057 42.266 279.553 42.89C279.061 43.502 278.815 44.36 278.815 45.464C278.815 46.568 279.061 47.42 279.553 48.02C280.045 48.62 280.741 48.92 281.641 48.92ZM292.47 50.126C291.594 50.126 290.826 49.934 290.166 49.55C289.518 49.166 289.014 48.626 288.654 47.93C288.306 47.222 288.132 46.4 288.132 45.464C288.132 44.528 288.312 43.706 288.672 42.998C289.032 42.278 289.542 41.72 290.202 41.324C290.874 40.928 291.654 40.73 292.542 40.73C293.154 40.73 293.742 40.838 294.306 41.054C294.882 41.258 295.356 41.546 295.728 41.918L295.242 42.998C294.786 42.638 294.342 42.374 293.91 42.206C293.49 42.038 293.058 41.954 292.614 41.954C291.69 41.954 290.964 42.266 290.436 42.89C289.908 43.502 289.644 44.36 289.644 45.464C289.644 46.556 289.902 47.408 290.418 48.02C290.946 48.62 291.678 48.92 292.614 48.92C293.058 48.92 293.49 48.836 293.91 48.668C294.342 48.5 294.786 48.236 295.242 47.876L295.728 48.956C295.344 49.316 294.858 49.604 294.27 49.82C293.694 50.024 293.094 50.126 292.47 50.126ZM303.686 50L299.042 45.644V50H297.584V36.752H299.042V45.104L303.308 40.964H305.162L300.626 45.302L305.594 50H303.686ZM319.659 40.946C319.563 41.702 319.515 42.548 319.515 43.484V53.888H318.057V48.398C317.793 48.95 317.397 49.376 316.869 49.676C316.341 49.976 315.723 50.126 315.015 50.126C314.211 50.126 313.503 49.934 312.891 49.55C312.291 49.166 311.823 48.626 311.487 47.93C311.163 47.222 311.001 46.4 311.001 45.464C311.001 44.528 311.169 43.706 311.505 42.998C311.841 42.278 312.309 41.72 312.909 41.324C313.521 40.928 314.223 40.73 315.015 40.73C315.747 40.73 316.383 40.898 316.923 41.234C317.463 41.558 317.865 42.026 318.129 42.638L318.309 40.946H319.659ZM315.303 48.92C316.191 48.92 316.875 48.62 317.355 48.02C317.835 47.408 318.075 46.544 318.075 45.428C318.075 44.312 317.835 43.454 317.355 42.854C316.875 42.254 316.191 41.954 315.303 41.954C314.415 41.954 313.719 42.266 313.215 42.89C312.723 43.502 312.477 44.36 312.477 45.464C312.477 46.568 312.723 47.42 313.215 48.02C313.707 48.62 314.403 48.92 315.303 48.92ZM329.912 40.946V50H328.49V48.434C328.202 48.986 327.8 49.406 327.284 49.694C326.768 49.982 326.186 50.126 325.538 50.126C324.47 50.126 323.66 49.826 323.108 49.226C322.556 48.626 322.28 47.738 322.28 46.562V40.946H323.738V46.526C323.738 47.342 323.906 47.942 324.242 48.326C324.578 48.71 325.088 48.902 325.772 48.902C326.576 48.902 327.224 48.644 327.716 48.128C328.208 47.6 328.454 46.91 328.454 46.058V40.946H329.912ZM340.3 45.428H333.658C333.67 46.58 333.934 47.45 334.45 48.038C334.978 48.626 335.74 48.92 336.736 48.92C337.792 48.92 338.764 48.566 339.652 47.858L340.138 48.92C339.742 49.292 339.232 49.586 338.608 49.802C337.996 50.018 337.366 50.126 336.718 50.126C335.302 50.126 334.192 49.712 333.388 48.884C332.584 48.044 332.182 46.898 332.182 45.446C332.182 44.522 332.362 43.706 332.722 42.998C333.082 42.278 333.586 41.72 334.234 41.324C334.882 40.928 335.62 40.73 336.448 40.73C337.648 40.73 338.59 41.126 339.274 41.918C339.958 42.698 340.3 43.778 340.3 45.158V45.428ZM336.466 41.864C335.71 41.864 335.092 42.092 334.612 42.548C334.144 43.004 333.844 43.646 333.712 44.474H338.986C338.914 43.622 338.662 42.974 338.23 42.53C337.81 42.086 337.222 41.864 336.466 41.864ZM345.573 50.126C344.049 50.126 342.843 49.736 341.955 48.956L342.441 47.876C342.933 48.26 343.431 48.536 343.935 48.704C344.439 48.872 345.003 48.956 345.627 48.956C346.311 48.956 346.827 48.842 347.175 48.614C347.535 48.374 347.715 48.032 347.715 47.588C347.715 47.228 347.595 46.94 347.355 46.724C347.115 46.508 346.719 46.34 346.167 46.22L344.637 45.86C343.881 45.692 343.293 45.392 342.873 44.96C342.465 44.528 342.261 44.012 342.261 43.412C342.261 42.62 342.579 41.978 343.215 41.486C343.851 40.982 344.691 40.73 345.735 40.73C346.371 40.73 346.971 40.832 347.535 41.036C348.099 41.24 348.573 41.534 348.957 41.918L348.471 42.98C347.619 42.272 346.707 41.918 345.735 41.918C345.087 41.918 344.583 42.044 344.223 42.296C343.875 42.536 343.701 42.878 343.701 43.322C343.701 43.694 343.809 43.988 344.025 44.204C344.253 44.42 344.613 44.588 345.105 44.708L346.635 45.086C347.475 45.278 348.099 45.578 348.507 45.986C348.915 46.382 349.119 46.904 349.119 47.552C349.119 48.332 348.801 48.956 348.165 49.424C347.529 49.892 346.665 50.126 345.573 50.126ZM353.299 42.098V47.048C353.299 47.72 353.437 48.194 353.713 48.47C353.989 48.734 354.379 48.866 354.883 48.866C355.219 48.866 355.543 48.812 355.855 48.704V49.946C355.483 50.066 355.063 50.126 354.595 50.126C353.731 50.126 353.053 49.886 352.561 49.406C352.081 48.914 351.841 48.194 351.841 47.246V42.098H350.077V40.946H351.841V38.624L353.299 38.102V40.946H355.891V42.098H353.299ZM357.648 40.946H359.106V50H357.648V40.946ZM359.286 37.112V38.768H357.504V37.112H359.286ZM365.681 50.126C364.829 50.126 364.079 49.934 363.431 49.55C362.783 49.166 362.279 48.62 361.919 47.912C361.571 47.204 361.397 46.376 361.397 45.428C361.397 44.48 361.571 43.652 361.919 42.944C362.279 42.236 362.783 41.69 363.431 41.306C364.079 40.922 364.829 40.73 365.681 40.73C366.533 40.73 367.283 40.922 367.931 41.306C368.579 41.69 369.077 42.236 369.425 42.944C369.785 43.652 369.965 44.48 369.965 45.428C369.965 46.376 369.785 47.204 369.425 47.912C369.077 48.62 368.579 49.166 367.931 49.55C367.283 49.934 366.533 50.126 365.681 50.126ZM365.681 48.92C366.581 48.92 367.271 48.626 367.751 48.038C368.231 47.438 368.471 46.568 368.471 45.428C368.471 44.324 368.225 43.472 367.733 42.872C367.241 42.26 366.557 41.954 365.681 41.954C364.793 41.954 364.103 42.26 363.611 42.872C363.119 43.472 362.873 44.324 362.873 45.428C362.873 46.568 363.113 47.438 363.593 48.038C364.085 48.626 364.781 48.92 365.681 48.92ZM376.756 40.73C378.928 40.73 380.014 41.924 380.014 44.312V50H378.556V44.384C378.556 43.544 378.388 42.932 378.052 42.548C377.716 42.152 377.188 41.954 376.468 41.954C375.628 41.954 374.956 42.212 374.452 42.728C373.948 43.244 373.696 43.94 373.696 44.816V50H372.238V43.484C372.238 42.548 372.19 41.702 372.094 40.946H373.48L373.624 42.566C373.9 41.978 374.314 41.528 374.866 41.216C375.418 40.892 376.048 40.73 376.756 40.73ZM384.369 41.144V43.016H382.515V41.144H384.369ZM384.369 48.146V50H382.515V48.146H384.369ZM28.689 66.375V69.85H25.189V67.55C25.189 66.6833 25.339 65.8917 25.639 65.175C25.939 64.4583 26.4473 63.7417 27.164 63.025L28.464 64.025C28.064 64.475 27.7473 64.8833 27.514 65.25C27.2973 65.6167 27.1556 65.9917 27.089 66.375H28.689ZM33.514 66.375V69.85H30.014V67.55C30.014 66.6833 30.164 65.8917 30.464 65.175C30.764 64.4583 31.2723 63.7417 31.989 63.025L33.289 64.025C32.889 64.475 32.5723 64.8833 32.339 65.25C32.1223 65.6167 31.9806 65.9917 31.914 66.375H33.514ZM44.6741 81.225C42.9575 81.225 41.4575 80.8583 40.1741 80.125C38.9075 79.375 37.9241 78.3167 37.2241 76.95C36.5408 75.5667 36.1991 73.9417 36.1991 72.075C36.1991 70.225 36.5408 68.6167 37.2241 67.25C37.9075 65.8667 38.8825 64.8083 40.1491 64.075C41.4325 63.3417 42.9408 62.975 44.6741 62.975C46.4075 62.975 47.9075 63.3417 49.1741 64.075C50.4575 64.8083 51.4325 65.8667 52.0991 67.25C52.7825 68.6167 53.1241 70.225 53.1241 72.075C53.1241 73.9417 52.7825 75.5667 52.0991 76.95C51.4158 78.3167 50.4408 79.375 49.1741 80.125C47.9075 80.8583 46.4075 81.225 44.6741 81.225ZM44.6741 78.65C46.3241 78.65 47.6075 78.0833 48.5241 76.95C49.4408 75.8167 49.8991 74.1917 49.8991 72.075C49.8991 69.975 49.4408 68.3667 48.5241 67.25C47.6075 66.1167 46.3241 65.55 44.6741 65.55C43.0241 65.55 41.7408 66.1083 40.8241 67.225C39.9075 68.3417 39.4491 69.9583 39.4491 72.075C39.4491 74.1917 39.9075 75.8167 40.8241 76.95C41.7408 78.0833 43.0241 78.65 44.6741 78.65ZM68.1524 68.4L62.6274 81H59.9024L54.4524 68.4H57.7274L61.3524 77.45L65.0524 68.4H68.1524ZM80.6069 74.85H71.9069C71.9736 76.2 72.3069 77.2 72.9069 77.85C73.5236 78.4833 74.4319 78.8 75.6319 78.8C77.0153 78.8 78.2986 78.35 79.4819 77.45L80.3819 79.6C79.7819 80.0833 79.0403 80.475 78.1569 80.775C77.2903 81.0583 76.4069 81.2 75.5069 81.2C73.4403 81.2 71.8153 80.6167 70.6319 79.45C69.4486 78.2833 68.8569 76.6833 68.8569 74.65C68.8569 73.3667 69.1153 72.225 69.6319 71.225C70.1486 70.225 70.8736 69.45 71.8069 68.9C72.7403 68.3333 73.7986 68.05 74.9819 68.05C76.7153 68.05 78.0819 68.6167 79.0819 69.75C80.0986 70.8667 80.6069 72.4083 80.6069 74.375V74.85ZM75.0569 70.3C74.2236 70.3 73.5403 70.55 73.0069 71.05C72.4903 71.5333 72.1569 72.2417 72.0069 73.175H77.8819C77.7819 72.225 77.4903 71.5083 77.0069 71.025C76.5403 70.5417 75.8903 70.3 75.0569 70.3ZM90.0532 68.075C90.5366 68.075 90.9532 68.1417 91.3032 68.275L91.2782 71.125C90.7449 70.9083 90.1949 70.8 89.6282 70.8C88.5616 70.8 87.7449 71.1083 87.1782 71.725C86.6282 72.3417 86.3532 73.1583 86.3532 74.175V81H83.2532V71.95C83.2532 70.6167 83.1866 69.425 83.0532 68.375H85.9782L86.2282 70.6C86.5449 69.7833 87.0449 69.1583 87.7282 68.725C88.4116 68.2917 89.1866 68.075 90.0532 68.075ZM104.874 68.375V81H101.799V78.975C101.416 79.675 100.866 80.225 100.149 80.625C99.4325 81.0083 98.6158 81.2 97.6991 81.2C96.5991 81.2 95.6241 80.9333 94.7741 80.4C93.9241 79.8667 93.2658 79.1083 92.7991 78.125C92.3325 77.1417 92.0991 76 92.0991 74.7C92.0991 73.4 92.3325 72.25 92.7991 71.25C93.2825 70.2333 93.9491 69.45 94.7991 68.9C95.6491 68.3333 96.6158 68.05 97.6991 68.05C98.6158 68.05 99.4325 68.25 100.149 68.65C100.866 69.0333 101.416 69.575 101.799 70.275V68.375H104.874ZM98.5491 78.75C99.5825 78.75 100.382 78.3917 100.949 77.675C101.516 76.9583 101.799 75.95 101.799 74.65C101.799 73.3167 101.516 72.2917 100.949 71.575C100.382 70.8583 99.5741 70.5 98.5241 70.5C97.4908 70.5 96.6825 70.875 96.0991 71.625C95.5325 72.3583 95.2491 73.3833 95.2491 74.7C95.2491 76 95.5325 77 96.0991 77.7C96.6825 78.4 97.4991 78.75 98.5491 78.75ZM108.278 62.6H111.378V81H108.278V62.6ZM114.796 62.6H117.896V81H114.796V62.6ZM124.49 77.5V79.8C124.49 80.6833 124.34 81.4833 124.04 82.2C123.74 82.9167 123.231 83.6333 122.515 84.35L121.24 83.325C122.023 82.4917 122.473 81.7167 122.59 81H120.99V77.5H124.49ZM141.675 68.05C144.691 68.05 146.2 69.7833 146.2 73.25V81H143.075V73.4C143.075 72.4 142.883 71.675 142.5 71.225C142.116 70.7583 141.525 70.525 140.725 70.525C139.775 70.525 139.008 70.8333 138.425 71.45C137.841 72.05 137.55 72.85 137.55 73.85V81H134.45V62.6H137.55V70.2C137.983 69.5167 138.558 68.9917 139.275 68.625C139.991 68.2417 140.791 68.05 141.675 68.05ZM155.238 81.2C153.955 81.2 152.821 80.9333 151.838 80.4C150.871 79.8667 150.121 79.1083 149.588 78.125C149.071 77.125 148.813 75.9583 148.813 74.625C148.813 73.2917 149.071 72.1333 149.588 71.15C150.121 70.15 150.871 69.3833 151.838 68.85C152.821 68.3167 153.955 68.05 155.238 68.05C156.505 68.05 157.621 68.3167 158.588 68.85C159.555 69.3833 160.296 70.15 160.813 71.15C161.346 72.1333 161.613 73.2917 161.613 74.625C161.613 75.9583 161.346 77.125 160.813 78.125C160.296 79.1083 159.555 79.8667 158.588 80.4C157.621 80.9333 156.505 81.2 155.238 81.2ZM155.213 78.75C156.28 78.75 157.088 78.4083 157.638 77.725C158.205 77.025 158.488 75.9917 158.488 74.625C158.488 73.275 158.205 72.25 157.638 71.55C157.071 70.8333 156.271 70.475 155.238 70.475C154.188 70.475 153.38 70.8333 152.813 71.55C152.246 72.25 151.963 73.275 151.963 74.625C151.963 75.9917 152.238 77.025 152.788 77.725C153.355 78.4083 154.163 78.75 155.213 78.75ZM184.188 68.375L179.238 81H176.513L173.388 72.725L170.338 81H167.588L162.638 68.375H165.838L169.088 77.275L172.363 68.375H174.613L177.888 77.35L181.138 68.375H184.188ZM204.069 74.85H195.369C195.436 76.2 195.769 77.2 196.369 77.85C196.986 78.4833 197.894 78.8 199.094 78.8C200.477 78.8 201.761 78.35 202.944 77.45L203.844 79.6C203.244 80.0833 202.502 80.475 201.619 80.775C200.752 81.0583 199.869 81.2 198.969 81.2C196.902 81.2 195.277 80.6167 194.094 79.45C192.911 78.2833 192.319 76.6833 192.319 74.65C192.319 73.3667 192.577 72.225 193.094 71.225C193.611 70.225 194.336 69.45 195.269 68.9C196.202 68.3333 197.261 68.05 198.444 68.05C200.177 68.05 201.544 68.6167 202.544 69.75C203.561 70.8667 204.069 72.4083 204.069 74.375V74.85ZM198.519 70.3C197.686 70.3 197.002 70.55 196.469 71.05C195.952 71.5333 195.619 72.2417 195.469 73.175H201.344C201.244 72.225 200.952 71.5083 200.469 71.025C200.002 70.5417 199.352 70.3 198.519 70.3ZM218.79 68.375V81H215.715V78.975C215.332 79.675 214.782 80.225 214.065 80.625C213.348 81.0083 212.532 81.2 211.615 81.2C210.515 81.2 209.54 80.9333 208.69 80.4C207.84 79.8667 207.182 79.1083 206.715 78.125C206.248 77.1417 206.015 76 206.015 74.7C206.015 73.4 206.248 72.25 206.715 71.25C207.198 70.2333 207.865 69.45 208.715 68.9C209.565 68.3333 210.532 68.05 211.615 68.05C212.532 68.05 213.348 68.25 214.065 68.65C214.782 69.0333 215.332 69.575 215.715 70.275V68.375H218.79ZM212.465 78.75C213.498 78.75 214.298 78.3917 214.865 77.675C215.432 76.9583 215.715 75.95 215.715 74.65C215.715 73.3167 215.432 72.2917 214.865 71.575C214.298 70.8583 213.49 70.5 212.44 70.5C211.407 70.5 210.598 70.875 210.015 71.625C209.448 72.3583 209.165 73.3833 209.165 74.7C209.165 76 209.448 77 210.015 77.7C210.598 78.4 211.415 78.75 212.465 78.75ZM226.819 81.2C224.535 81.2 222.719 80.6667 221.369 79.6L222.244 77.4C223.594 78.4 225.135 78.9 226.869 78.9C227.619 78.9 228.194 78.775 228.594 78.525C229.01 78.275 229.219 77.925 229.219 77.475C229.219 77.0917 229.077 76.7917 228.794 76.575C228.51 76.3417 228.027 76.1417 227.344 75.975L225.244 75.5C222.944 75 221.794 73.825 221.794 71.975C221.794 71.2083 222.01 70.5333 222.444 69.95C222.877 69.35 223.485 68.8833 224.269 68.55C225.052 68.2167 225.96 68.05 226.994 68.05C227.894 68.05 228.76 68.1917 229.594 68.475C230.427 68.7417 231.16 69.1333 231.794 69.65L230.869 71.775C229.602 70.8417 228.302 70.375 226.969 70.375C226.252 70.375 225.694 70.5083 225.294 70.775C224.894 71.0417 224.694 71.4083 224.694 71.875C224.694 72.2417 224.81 72.5333 225.044 72.75C225.294 72.9667 225.71 73.15 226.294 73.3L228.444 73.775C229.694 74.0583 230.602 74.5 231.169 75.1C231.752 75.6833 232.044 76.45 232.044 77.4C232.044 78.5667 231.577 79.4917 230.644 80.175C229.71 80.8583 228.435 81.2 226.819 81.2ZM246.497 68.375L240.622 81.85C239.956 83.4167 239.106 84.5583 238.072 85.275C237.039 85.9917 235.764 86.4667 234.247 86.7L233.547 84.3C234.731 84.0333 235.614 83.6917 236.197 83.275C236.797 82.875 237.281 82.275 237.647 81.475L238.047 80.55L232.797 68.375H236.072L239.697 77.45L243.397 68.375H246.497ZM275.082 68.375L270.132 81H267.407L264.282 72.725L261.232 81H258.482L253.532 68.375H256.732L259.982 77.275L263.257 68.375H265.507L268.782 77.35L272.032 68.375H275.082ZM288.907 68.375V81H285.832V78.975C285.449 79.675 284.899 80.225 284.182 80.625C283.466 81.0083 282.649 81.2 281.732 81.2C280.632 81.2 279.657 80.9333 278.807 80.4C277.957 79.8667 277.299 79.1083 276.832 78.125C276.366 77.1417 276.132 76 276.132 74.7C276.132 73.4 276.366 72.25 276.832 71.25C277.316 70.2333 277.982 69.45 278.832 68.9C279.682 68.3333 280.649 68.05 281.732 68.05C282.649 68.05 283.466 68.25 284.182 68.65C284.899 69.0333 285.449 69.575 285.832 70.275V68.375H288.907ZM282.582 78.75C283.616 78.75 284.416 78.3917 284.982 77.675C285.549 76.9583 285.832 75.95 285.832 74.65C285.832 73.3167 285.549 72.2917 284.982 71.575C284.416 70.8583 283.607 70.5 282.557 70.5C281.524 70.5 280.716 70.875 280.132 71.625C279.566 72.3583 279.282 73.3833 279.282 74.7C279.282 76 279.566 77 280.132 77.7C280.716 78.4 281.532 78.75 282.582 78.75ZM296.936 81.2C294.653 81.2 292.836 80.6667 291.486 79.6L292.361 77.4C293.711 78.4 295.253 78.9 296.986 78.9C297.736 78.9 298.311 78.775 298.711 78.525C299.128 78.275 299.336 77.925 299.336 77.475C299.336 77.0917 299.194 76.7917 298.911 76.575C298.628 76.3417 298.144 76.1417 297.461 75.975L295.361 75.5C293.061 75 291.911 73.825 291.911 71.975C291.911 71.2083 292.128 70.5333 292.561 69.95C292.994 69.35 293.603 68.8833 294.386 68.55C295.169 68.2167 296.078 68.05 297.111 68.05C298.011 68.05 298.878 68.1917 299.711 68.475C300.544 68.7417 301.278 69.1333 301.911 69.65L300.986 71.775C299.719 70.8417 298.419 70.375 297.086 70.375C296.369 70.375 295.811 70.5083 295.411 70.775C295.011 71.0417 294.811 71.4083 294.811 71.875C294.811 72.2417 294.928 72.5333 295.161 72.75C295.411 72.9667 295.828 73.15 296.411 73.3L298.561 73.775C299.811 74.0583 300.719 74.5 301.286 75.1C301.869 75.6833 302.161 76.45 302.161 77.4C302.161 78.5667 301.694 79.4917 300.761 80.175C299.828 80.8583 298.553 81.2 296.936 81.2ZM311.696 68.375H314.796V81H311.696V68.375ZM314.971 62.65V65.725H311.496V62.65H314.971ZM322.189 70.725V76.375C322.189 77.8583 322.881 78.6 324.264 78.6C324.647 78.6 325.064 78.5333 325.514 78.4V80.875C324.964 81.075 324.297 81.175 323.514 81.175C322.081 81.175 320.981 80.775 320.214 79.975C319.447 79.175 319.064 78.025 319.064 76.525V70.725H316.639V68.375H319.064V65.3L322.189 64.25V68.375H325.539V70.725H322.189ZM338.522 70.725V76.375C338.522 77.8583 339.214 78.6 340.597 78.6C340.981 78.6 341.397 78.5333 341.847 78.4V80.875C341.297 81.075 340.631 81.175 339.847 81.175C338.414 81.175 337.314 80.775 336.547 79.975C335.781 79.175 335.397 78.025 335.397 76.525V70.725H332.972V68.375H335.397V65.3L338.522 64.25V68.375H341.872V70.725H338.522ZM349.745 81.2C348.461 81.2 347.328 80.9333 346.345 80.4C345.378 79.8667 344.628 79.1083 344.095 78.125C343.578 77.125 343.32 75.9583 343.32 74.625C343.32 73.2917 343.578 72.1333 344.095 71.15C344.628 70.15 345.378 69.3833 346.345 68.85C347.328 68.3167 348.461 68.05 349.745 68.05C351.011 68.05 352.128 68.3167 353.095 68.85C354.061 69.3833 354.803 70.15 355.32 71.15C355.853 72.1333 356.12 73.2917 356.12 74.625C356.12 75.9583 355.853 77.125 355.32 78.125C354.803 79.1083 354.061 79.8667 353.095 80.4C352.128 80.9333 351.011 81.2 349.745 81.2ZM349.72 78.75C350.786 78.75 351.595 78.4083 352.145 77.725C352.711 77.025 352.995 75.9917 352.995 74.625C352.995 73.275 352.711 72.25 352.145 71.55C351.578 70.8333 350.778 70.475 349.745 70.475C348.695 70.475 347.886 70.8333 347.32 71.55C346.753 72.25 346.47 73.275 346.47 74.625C346.47 75.9917 346.745 77.025 347.295 77.725C347.861 78.4083 348.67 78.75 349.72 78.75ZM377.875 68.375V80.6C377.875 82.5667 377.333 84.0583 376.25 85.075C375.167 86.0917 373.575 86.6 371.475 86.6C369.525 86.6 367.808 86.1917 366.325 85.375L366.825 83C368.358 83.8 369.883 84.2 371.4 84.2C373.65 84.2 374.775 83.0833 374.775 80.85V78.35C374.392 79.0333 373.833 79.5917 373.1 80.025C372.367 80.4417 371.542 80.65 370.625 80.65C369.525 80.65 368.542 80.3917 367.675 79.875C366.825 79.3417 366.158 78.6 365.675 77.65C365.208 76.6833 364.975 75.5833 364.975 74.35C364.975 73.1167 365.208 72.025 365.675 71.075C366.158 70.1083 366.825 69.3667 367.675 68.85C368.542 68.3167 369.525 68.05 370.625 68.05C371.558 68.05 372.383 68.25 373.1 68.65C373.833 69.0333 374.392 69.575 374.775 70.275V68.375H377.875ZM371.45 78.2C372.483 78.2 373.292 77.8583 373.875 77.175C374.475 76.4917 374.775 75.55 374.775 74.35C374.775 73.15 374.483 72.2083 373.9 71.525C373.317 70.8417 372.5 70.5 371.45 70.5C370.417 70.5 369.6 70.8417 369 71.525C368.417 72.2083 368.125 73.15 368.125 74.35C368.125 75.55 368.417 76.4917 369 77.175C369.6 77.8583 370.417 78.2 371.45 78.2ZM392.301 74.85H383.601C383.668 76.2 384.001 77.2 384.601 77.85C385.218 78.4833 386.126 78.8 387.326 78.8C388.71 78.8 389.993 78.35 391.176 77.45L392.076 79.6C391.476 80.0833 390.735 80.475 389.851 80.775C388.985 81.0583 388.101 81.2 387.201 81.2C385.135 81.2 383.51 80.6167 382.326 79.45C381.143 78.2833 380.551 76.6833 380.551 74.65C380.551 73.3667 380.81 72.225 381.326 71.225C381.843 70.225 382.568 69.45 383.501 68.9C384.435 68.3333 385.493 68.05 386.676 68.05C388.41 68.05 389.776 68.6167 390.776 69.75C391.793 70.8667 392.301 72.4083 392.301 74.375V74.85ZM386.751 70.3C385.918 70.3 385.235 70.55 384.701 71.05C384.185 71.5333 383.851 72.2417 383.701 73.175H389.576C389.476 72.225 389.185 71.5083 388.701 71.025C388.235 70.5417 387.585 70.3 386.751 70.3ZM398.752 70.725V76.375C398.752 77.8583 399.443 78.6 400.827 78.6C401.21 78.6 401.627 78.5333 402.077 78.4V80.875C401.527 81.075 400.86 81.175 400.077 81.175C398.643 81.175 397.543 80.775 396.777 79.975C396.01 79.175 395.627 78.025 395.627 76.525V70.725H393.202V68.375H395.627V65.3L398.752 64.25V68.375H402.102V70.725H398.752ZM415.085 70.725V76.375C415.085 77.8583 415.776 78.6 417.16 78.6C417.543 78.6 417.96 78.5333 418.41 78.4V80.875C417.86 81.075 417.193 81.175 416.41 81.175C414.976 81.175 413.876 80.775 413.11 79.975C412.343 79.175 411.96 78.025 411.96 76.525V70.725H409.535V68.375H411.96V65.3L415.085 64.25V68.375H418.435V70.725H415.085ZM427.807 68.05C430.824 68.05 432.332 69.7833 432.332 73.25V81H429.207V73.4C429.207 72.4 429.016 71.675 428.632 71.225C428.249 70.7583 427.657 70.525 426.857 70.525C425.907 70.525 425.141 70.8333 424.557 71.45C423.974 72.05 423.682 72.85 423.682 73.85V81H420.582V62.6H423.682V70.2C424.116 69.5167 424.691 68.9917 425.407 68.625C426.124 68.2417 426.924 68.05 427.807 68.05ZM446.696 74.85H437.996C438.062 76.2 438.396 77.2 438.996 77.85C439.612 78.4833 440.521 78.8 441.721 78.8C443.104 78.8 444.387 78.35 445.571 77.45L446.471 79.6C445.871 80.0833 445.129 80.475 444.246 80.775C443.379 81.0583 442.496 81.2 441.596 81.2C439.529 81.2 437.904 80.6167 436.721 79.45C435.537 78.2833 434.946 76.6833 434.946 74.65C434.946 73.3667 435.204 72.225 435.721 71.225C436.237 70.225 436.962 69.45 437.896 68.9C438.829 68.3333 439.887 68.05 441.071 68.05C442.804 68.05 444.171 68.6167 445.171 69.75C446.187 70.8667 446.696 72.4083 446.696 74.375V74.85ZM441.146 70.3C440.312 70.3 439.629 70.55 439.096 71.05C438.579 71.5333 438.246 72.2417 438.096 73.175H443.971C443.871 72.225 443.579 71.5083 443.096 71.025C442.629 70.5417 441.979 70.3 441.146 70.3ZM463.427 68.05C466.444 68.05 467.952 69.7833 467.952 73.25V81H464.827V73.4C464.827 72.4 464.636 71.675 464.252 71.225C463.869 70.7583 463.277 70.525 462.477 70.525C461.527 70.525 460.761 70.8333 460.177 71.45C459.594 72.05 459.302 72.85 459.302 73.85V81H456.202V62.6H459.302V70.2C459.736 69.5167 460.311 68.9917 461.027 68.625C461.744 68.2417 462.544 68.05 463.427 68.05ZM482.316 74.85H473.616C473.683 76.2 474.016 77.2 474.616 77.85C475.233 78.4833 476.141 78.8 477.341 78.8C478.724 78.8 480.008 78.35 481.191 77.45L482.091 79.6C481.491 80.0833 480.749 80.475 479.866 80.775C478.999 81.0583 478.116 81.2 477.216 81.2C475.149 81.2 473.524 80.6167 472.341 79.45C471.158 78.2833 470.566 76.6833 470.566 74.65C470.566 73.3667 470.824 72.225 471.341 71.225C471.858 70.225 472.583 69.45 473.516 68.9C474.449 68.3333 475.508 68.05 476.691 68.05C478.424 68.05 479.791 68.6167 480.791 69.75C481.808 70.8667 482.316 72.4083 482.316 74.375V74.85ZM476.766 70.3C475.933 70.3 475.249 70.55 474.716 71.05C474.199 71.5333 473.866 72.2417 473.716 73.175H479.591C479.491 72.225 479.199 71.5083 478.716 71.025C478.249 70.5417 477.599 70.3 476.766 70.3ZM484.962 62.6H488.062V81H484.962V62.6ZM498.681 68.05C499.764 68.05 500.722 68.3333 501.556 68.9C502.406 69.45 503.064 70.2333 503.531 71.25C504.014 72.25 504.256 73.4 504.256 74.7C504.256 76 504.022 77.1417 503.556 78.125C503.089 79.1083 502.431 79.8667 501.581 80.4C500.747 80.9333 499.781 81.2 498.681 81.2C497.764 81.2 496.947 81.0083 496.231 80.625C495.514 80.225 494.964 79.675 494.581 78.975V86.4H491.481V71.95C491.481 70.6167 491.414 69.425 491.281 68.375H494.206L494.456 70.55C494.789 69.7667 495.331 69.1583 496.081 68.725C496.831 68.275 497.697 68.05 498.681 68.05ZM497.831 78.75C498.881 78.75 499.689 78.4 500.256 77.7C500.822 77 501.106 76 501.106 74.7C501.106 73.3833 500.822 72.3583 500.256 71.625C499.689 70.875 498.889 70.5 497.856 70.5C496.789 70.5 495.972 70.8583 495.406 71.575C494.839 72.2917 494.556 73.3167 494.556 74.65C494.556 75.9667 494.839 76.9833 495.406 77.7C495.972 78.4 496.781 78.75 497.831 78.75ZM525.794 68.375L519.919 81.85C519.252 83.4167 518.402 84.5583 517.369 85.275C516.336 85.9917 515.061 86.4667 513.544 86.7L512.844 84.3C514.027 84.0333 514.911 83.6917 515.494 83.275C516.094 82.875 516.577 82.275 516.944 81.475L517.344 80.55L512.094 68.375H515.369L518.994 77.45L522.694 68.375H525.794ZM532.924 81.2C531.64 81.2 530.507 80.9333 529.524 80.4C528.557 79.8667 527.807 79.1083 527.274 78.125C526.757 77.125 526.499 75.9583 526.499 74.625C526.499 73.2917 526.757 72.1333 527.274 71.15C527.807 70.15 528.557 69.3833 529.524 68.85C530.507 68.3167 531.64 68.05 532.924 68.05C534.19 68.05 535.307 68.3167 536.274 68.85C537.24 69.3833 537.982 70.15 538.499 71.15C539.032 72.1333 539.299 73.2917 539.299 74.625C539.299 75.9583 539.032 77.125 538.499 78.125C537.982 79.1083 537.24 79.8667 536.274 80.4C535.307 80.9333 534.19 81.2 532.924 81.2ZM532.899 78.75C533.965 78.75 534.774 78.4083 535.324 77.725C535.89 77.025 536.174 75.9917 536.174 74.625C536.174 73.275 535.89 72.25 535.324 71.55C534.757 70.8333 533.957 70.475 532.924 70.475C531.874 70.475 531.065 70.8333 530.499 71.55C529.932 72.25 529.649 73.275 529.649 74.625C529.649 75.9917 529.924 77.025 530.474 77.725C531.04 78.4083 531.849 78.75 532.899 78.75ZM553.493 68.375V81H550.443V79.05C550.043 79.75 549.51 80.2833 548.843 80.65C548.177 81.0167 547.41 81.2 546.543 81.2C543.46 81.2 541.918 79.4667 541.918 76V68.375H545.018V76.025C545.018 76.9417 545.202 77.6167 545.568 78.05C545.952 78.4833 546.535 78.7 547.318 78.7C548.235 78.7 548.968 78.4 549.518 77.8C550.068 77.2 550.343 76.4 550.343 75.4V68.375H553.493ZM216.732 99.375L211.782 112H209.057L205.932 103.725L202.882 112H200.132L195.182 99.375H198.382L201.632 108.275L204.907 99.375H207.157L210.432 108.35L213.682 99.375H216.732ZM230.558 99.375V112H227.483V109.975C227.099 110.675 226.549 111.225 225.833 111.625C225.116 112.008 224.299 112.2 223.383 112.2C222.283 112.2 221.308 111.933 220.458 111.4C219.608 110.867 218.949 110.108 218.483 109.125C218.016 108.142 217.783 107 217.783 105.7C217.783 104.4 218.016 103.25 218.483 102.25C218.966 101.233 219.633 100.45 220.483 99.9C221.333 99.3333 222.299 99.05 223.383 99.05C224.299 99.05 225.116 99.25 225.833 99.65C226.549 100.033 227.099 100.575 227.483 101.275V99.375H230.558ZM224.233 109.75C225.266 109.75 226.066 109.392 226.633 108.675C227.199 107.958 227.483 106.95 227.483 105.65C227.483 104.317 227.199 103.292 226.633 102.575C226.066 101.858 225.258 101.5 224.208 101.5C223.174 101.5 222.366 101.875 221.783 102.625C221.216 103.358 220.933 104.383 220.933 105.7C220.933 107 221.216 108 221.783 108.7C222.366 109.4 223.183 109.75 224.233 109.75ZM241.186 99.05C244.203 99.05 245.711 100.783 245.711 104.25V112H242.586V104.4C242.586 103.4 242.395 102.675 242.011 102.225C241.628 101.758 241.036 101.525 240.236 101.525C239.286 101.525 238.52 101.833 237.936 102.45C237.353 103.05 237.061 103.85 237.061 104.85V112H233.961V102.95C233.961 101.617 233.895 100.425 233.761 99.375H236.686L236.911 101.45C237.345 100.683 237.928 100.092 238.661 99.675C239.411 99.2583 240.253 99.05 241.186 99.05ZM253 101.725V107.375C253 108.858 253.691 109.6 255.075 109.6C255.458 109.6 255.875 109.533 256.325 109.4V111.875C255.775 112.075 255.108 112.175 254.325 112.175C252.891 112.175 251.791 111.775 251.025 110.975C250.258 110.175 249.875 109.025 249.875 107.525V101.725H247.45V99.375H249.875V96.3L253 95.25V99.375H256.35V101.725H253ZM269.547 105.85H260.847C260.914 107.2 261.247 108.2 261.847 108.85C262.464 109.483 263.372 109.8 264.572 109.8C265.956 109.8 267.239 109.35 268.422 108.45L269.322 110.6C268.722 111.083 267.981 111.475 267.097 111.775C266.231 112.058 265.347 112.2 264.447 112.2C262.381 112.2 260.756 111.617 259.572 110.45C258.389 109.283 257.797 107.683 257.797 105.65C257.797 104.367 258.056 103.225 258.572 102.225C259.089 101.225 259.814 100.45 260.747 99.9C261.681 99.3333 262.739 99.05 263.922 99.05C265.656 99.05 267.022 99.6167 268.022 100.75C269.039 101.867 269.547 103.408 269.547 105.375V105.85ZM263.997 101.3C263.164 101.3 262.481 101.55 261.947 102.05C261.431 102.533 261.097 103.242 260.947 104.175H266.822C266.722 103.225 266.431 102.508 265.947 102.025C265.481 101.542 264.831 101.3 263.997 101.3ZM284.269 93.6V112H281.194V109.975C280.81 110.675 280.26 111.225 279.544 111.625C278.827 112.008 278.01 112.2 277.094 112.2C276.01 112.2 275.044 111.925 274.194 111.375C273.344 110.825 272.677 110.05 272.194 109.05C271.727 108.033 271.494 106.875 271.494 105.575C271.494 104.275 271.727 103.133 272.194 102.15C272.66 101.167 273.319 100.408 274.169 99.875C275.019 99.325 275.994 99.05 277.094 99.05C277.994 99.05 278.794 99.2417 279.494 99.625C280.21 99.9917 280.76 100.517 281.144 101.2V93.6H284.269ZM277.919 109.75C278.952 109.75 279.752 109.392 280.319 108.675C280.902 107.958 281.194 106.942 281.194 105.625C281.194 104.308 280.91 103.292 280.344 102.575C279.777 101.858 278.977 101.5 277.944 101.5C276.894 101.5 276.077 101.858 275.494 102.575C274.927 103.275 274.644 104.275 274.644 105.575C274.644 106.892 274.927 107.917 275.494 108.65C276.077 109.383 276.885 109.75 277.919 109.75ZM298.508 101.725V107.375C298.508 108.858 299.199 109.6 300.583 109.6C300.966 109.6 301.383 109.533 301.833 109.4V111.875C301.283 112.075 300.616 112.175 299.833 112.175C298.399 112.175 297.299 111.775 296.533 110.975C295.766 110.175 295.383 109.025 295.383 107.525V101.725H292.958V99.375H295.383V96.3L298.508 95.25V99.375H301.858V101.725H298.508ZM309.73 112.2C308.447 112.2 307.314 111.933 306.33 111.4C305.364 110.867 304.614 110.108 304.08 109.125C303.564 108.125 303.305 106.958 303.305 105.625C303.305 104.292 303.564 103.133 304.08 102.15C304.614 101.15 305.364 100.383 306.33 99.85C307.314 99.3167 308.447 99.05 309.73 99.05C310.997 99.05 312.114 99.3167 313.08 99.85C314.047 100.383 314.789 101.15 315.305 102.15C315.839 103.133 316.105 104.292 316.105 105.625C316.105 106.958 315.839 108.125 315.305 109.125C314.789 110.108 314.047 110.867 313.08 111.4C312.114 111.933 310.997 112.2 309.73 112.2ZM309.705 109.75C310.772 109.75 311.58 109.408 312.13 108.725C312.697 108.025 312.98 106.992 312.98 105.625C312.98 104.275 312.697 103.25 312.13 102.55C311.564 101.833 310.764 101.475 309.73 101.475C308.68 101.475 307.872 101.833 307.305 102.55C306.739 103.25 306.455 104.275 306.455 105.625C306.455 106.992 306.73 108.025 307.28 108.725C307.847 109.408 308.655 109.75 309.705 109.75ZM330.875 93.6V112H327.8V109.975C327.417 110.675 326.867 111.225 326.15 111.625C325.433 112.008 324.617 112.2 323.7 112.2C322.617 112.2 321.65 111.925 320.8 111.375C319.95 110.825 319.283 110.05 318.8 109.05C318.333 108.033 318.1 106.875 318.1 105.575C318.1 104.275 318.333 103.133 318.8 102.15C319.267 101.167 319.925 100.408 320.775 99.875C321.625 99.325 322.6 99.05 323.7 99.05C324.6 99.05 325.4 99.2417 326.1 99.625C326.817 99.9917 327.367 100.517 327.75 101.2V93.6H330.875ZM324.525 109.75C325.558 109.75 326.358 109.392 326.925 108.675C327.508 107.958 327.8 106.942 327.8 105.625C327.8 104.308 327.517 103.292 326.95 102.575C326.383 101.858 325.583 101.5 324.55 101.5C323.5 101.5 322.683 101.858 322.1 102.575C321.533 103.275 321.25 104.275 321.25 105.575C321.25 106.892 321.533 107.917 322.1 108.65C322.683 109.383 323.492 109.75 324.525 109.75ZM346.354 99.375V112H343.279V109.975C342.895 110.675 342.345 111.225 341.629 111.625C340.912 112.008 340.095 112.2 339.179 112.2C338.079 112.2 337.104 111.933 336.254 111.4C335.404 110.867 334.745 110.108 334.279 109.125C333.812 108.142 333.579 107 333.579 105.7C333.579 104.4 333.812 103.25 334.279 102.25C334.762 101.233 335.429 100.45 336.279 99.9C337.129 99.3333 338.095 99.05 339.179 99.05C340.095 99.05 340.912 99.25 341.629 99.65C342.345 100.033 342.895 100.575 343.279 101.275V99.375H346.354ZM340.029 109.75C341.062 109.75 341.862 109.392 342.429 108.675C342.995 107.958 343.279 106.95 343.279 105.65C343.279 104.317 342.995 103.292 342.429 102.575C341.862 101.858 341.054 101.5 340.004 101.5C338.97 101.5 338.162 101.875 337.579 102.625C337.012 103.358 336.729 104.383 336.729 105.7C336.729 107 337.012 108 337.579 108.7C338.162 109.4 338.979 109.75 340.029 109.75ZM361.707 99.375L355.832 112.85C355.165 114.417 354.315 115.558 353.282 116.275C352.249 116.992 350.974 117.467 349.457 117.7L348.757 115.3C349.94 115.033 350.824 114.692 351.407 114.275C352.007 113.875 352.49 113.275 352.857 112.475L353.257 111.55L348.007 99.375H351.282L354.907 108.45L358.607 99.375H361.707ZM363.416 94.975C364.483 94.325 365.725 94 367.141 94C368.175 94 369.091 94.175 369.891 94.525C370.691 94.875 371.308 95.3583 371.741 95.975C372.191 96.5917 372.416 97.3083 372.416 98.125C372.416 99.0083 372.208 99.7667 371.791 100.4C371.391 101.033 370.783 101.767 369.966 102.6C369.283 103.3 368.766 103.9 368.416 104.4C368.066 104.883 367.85 105.433 367.766 106.05L367.666 106.75H365.816V105.725C365.816 104.792 365.983 104.008 366.316 103.375C366.65 102.725 367.133 102.025 367.766 101.275C368.25 100.708 368.608 100.217 368.841 99.8C369.091 99.3833 369.216 98.9167 369.216 98.4C369.216 97.8167 369.008 97.3667 368.591 97.05C368.191 96.7167 367.633 96.55 366.916 96.55C365.75 96.55 364.583 96.9083 363.416 97.625V94.975ZM365.016 108.5H368.541V112H365.016V108.5ZM377.834 94.2V96.5C377.834 97.3833 377.684 98.1833 377.384 98.9C377.084 99.6 376.576 100.308 375.859 101.025L374.584 100.025C375.334 99.225 375.784 98.45 375.934 97.7H374.334V94.2H377.834ZM382.659 94.2V96.5C382.659 97.3833 382.509 98.1833 382.209 98.9C381.909 99.6 381.401 100.308 380.684 101.025L379.409 100.025C380.159 99.225 380.609 98.45 380.759 97.7H379.159V94.2H382.659Z" fill="#1C3C55"/>
<path d="M290.667 370.135H287.132V375H282.722V370.135H271.872V366.775L283.527 350.08H287.132V366.6H290.667V370.135ZM282.722 366.6V357.115L276.142 366.6H282.722Z" fill="#9DC2D4"/>
<path d="M237 319.66H230.04L228.6 323H226L232.44 308.76H234.54L241 323H238.42L237 319.66ZM236.14 317.66L233.52 311.56L230.9 317.66H236.14ZM251.373 312.92L246.953 323H244.773L240.413 312.92H243.033L245.933 320.16L248.893 312.92H251.373ZM261.337 318.08H254.377C254.43 319.16 254.697 319.96 255.177 320.48C255.67 320.987 256.397 321.24 257.357 321.24C258.463 321.24 259.49 320.88 260.437 320.16L261.157 321.88C260.677 322.267 260.083 322.58 259.377 322.82C258.683 323.047 257.977 323.16 257.257 323.16C255.603 323.16 254.303 322.693 253.357 321.76C252.41 320.827 251.937 319.547 251.937 317.92C251.937 316.893 252.143 315.98 252.557 315.18C252.97 314.38 253.55 313.76 254.297 313.32C255.043 312.867 255.89 312.64 256.837 312.64C258.223 312.64 259.317 313.093 260.117 314C260.93 314.893 261.337 316.127 261.337 317.7V318.08ZM256.897 314.44C256.23 314.44 255.683 314.64 255.257 315.04C254.843 315.427 254.577 315.993 254.457 316.74H259.157C259.077 315.98 258.843 315.407 258.457 315.02C258.083 314.633 257.563 314.44 256.897 314.44ZM268.894 312.66C269.28 312.66 269.614 312.713 269.894 312.82L269.874 315.1C269.447 314.927 269.007 314.84 268.554 314.84C267.7 314.84 267.047 315.087 266.594 315.58C266.154 316.073 265.934 316.727 265.934 317.54V323H263.454V315.76C263.454 314.693 263.4 313.74 263.294 312.9H265.634L265.834 314.68C266.087 314.027 266.487 313.527 267.034 313.18C267.58 312.833 268.2 312.66 268.894 312.66ZM280.75 312.9V323H278.29V321.38C277.984 321.94 277.544 322.38 276.97 322.7C276.397 323.007 275.744 323.16 275.01 323.16C274.13 323.16 273.35 322.947 272.67 322.52C271.99 322.093 271.464 321.487 271.09 320.7C270.717 319.913 270.53 319 270.53 317.96C270.53 316.92 270.717 316 271.09 315.2C271.477 314.387 272.01 313.76 272.69 313.32C273.37 312.867 274.144 312.64 275.01 312.64C275.744 312.64 276.397 312.8 276.97 313.12C277.544 313.427 277.984 313.86 278.29 314.42V312.9H280.75ZM275.69 321.2C276.517 321.2 277.157 320.913 277.61 320.34C278.064 319.767 278.29 318.96 278.29 317.92C278.29 316.853 278.064 316.033 277.61 315.46C277.157 314.887 276.51 314.6 275.67 314.6C274.844 314.6 274.197 314.9 273.73 315.5C273.277 316.087 273.05 316.907 273.05 317.96C273.05 319 273.277 319.8 273.73 320.36C274.197 320.92 274.85 321.2 275.69 321.2ZM293.233 312.9V322.68C293.233 324.253 292.8 325.447 291.933 326.26C291.067 327.073 289.793 327.48 288.113 327.48C286.553 327.48 285.18 327.153 283.993 326.5L284.393 324.6C285.62 325.24 286.84 325.56 288.053 325.56C289.853 325.56 290.753 324.667 290.753 322.88V320.88C290.447 321.427 290 321.873 289.413 322.22C288.827 322.553 288.167 322.72 287.433 322.72C286.553 322.72 285.767 322.513 285.073 322.1C284.393 321.673 283.86 321.08 283.473 320.32C283.1 319.547 282.913 318.667 282.913 317.68C282.913 316.693 283.1 315.82 283.473 315.06C283.86 314.287 284.393 313.693 285.073 313.28C285.767 312.853 286.553 312.64 287.433 312.64C288.18 312.64 288.84 312.8 289.413 313.12C290 313.427 290.447 313.86 290.753 314.42V312.9H293.233ZM288.093 320.76C288.92 320.76 289.567 320.487 290.033 319.94C290.513 319.393 290.753 318.64 290.753 317.68C290.753 316.72 290.52 315.967 290.053 315.42C289.587 314.873 288.933 314.6 288.093 314.6C287.267 314.6 286.613 314.873 286.133 315.42C285.667 315.967 285.433 316.72 285.433 317.68C285.433 318.64 285.667 319.393 286.133 319.94C286.613 320.487 287.267 320.76 288.093 320.76ZM304.774 318.08H297.814C297.868 319.16 298.134 319.96 298.614 320.48C299.108 320.987 299.834 321.24 300.794 321.24C301.901 321.24 302.928 320.88 303.874 320.16L304.594 321.88C304.114 322.267 303.521 322.58 302.814 322.82C302.121 323.047 301.414 323.16 300.694 323.16C299.041 323.16 297.741 322.693 296.794 321.76C295.848 320.827 295.374 319.547 295.374 317.92C295.374 316.893 295.581 315.98 295.994 315.18C296.408 314.38 296.988 313.76 297.734 313.32C298.481 312.867 299.328 312.64 300.274 312.64C301.661 312.64 302.754 313.093 303.554 314C304.368 314.893 304.774 316.127 304.774 317.7V318.08ZM300.334 314.44C299.668 314.44 299.121 314.64 298.694 315.04C298.281 315.427 298.014 315.993 297.894 316.74H302.594C302.514 315.98 302.281 315.407 301.894 315.02C301.521 314.633 301.001 314.44 300.334 314.44ZM316.08 323.16C314.253 323.16 312.8 322.733 311.72 321.88L312.42 320.12C313.5 320.92 314.733 321.32 316.12 321.32C316.72 321.32 317.18 321.22 317.5 321.02C317.833 320.82 318 320.54 318 320.18C318 319.873 317.886 319.633 317.66 319.46C317.433 319.273 317.046 319.113 316.5 318.98L314.82 318.6C312.98 318.2 312.06 317.26 312.06 315.78C312.06 315.167 312.233 314.627 312.58 314.16C312.926 313.68 313.413 313.307 314.04 313.04C314.666 312.773 315.393 312.64 316.22 312.64C316.94 312.64 317.633 312.753 318.3 312.98C318.966 313.193 319.553 313.507 320.06 313.92L319.32 315.62C318.306 314.873 317.266 314.5 316.2 314.5C315.626 314.5 315.18 314.607 314.86 314.82C314.54 315.033 314.38 315.327 314.38 315.7C314.38 315.993 314.473 316.227 314.66 316.4C314.86 316.573 315.193 316.72 315.66 316.84L317.38 317.22C318.38 317.447 319.106 317.8 319.56 318.28C320.026 318.747 320.26 319.36 320.26 320.12C320.26 321.053 319.886 321.793 319.14 322.34C318.393 322.887 317.373 323.16 316.08 323.16ZM326.979 323.16C325.926 323.16 325.012 322.947 324.239 322.52C323.466 322.093 322.872 321.493 322.459 320.72C322.046 319.933 321.839 319.013 321.839 317.96C321.839 316.907 322.052 315.98 322.479 315.18C322.919 314.38 323.532 313.76 324.319 313.32C325.119 312.867 326.039 312.64 327.079 312.64C327.799 312.64 328.492 312.753 329.159 312.98C329.839 313.207 330.379 313.52 330.779 313.92L330.079 315.68C329.652 315.333 329.199 315.073 328.719 314.9C328.239 314.713 327.766 314.62 327.299 314.62C326.392 314.62 325.686 314.907 325.179 315.48C324.672 316.04 324.419 316.853 324.419 317.92C324.419 318.987 324.666 319.8 325.159 320.36C325.666 320.92 326.379 321.2 327.299 321.2C327.766 321.2 328.239 321.107 328.719 320.92C329.199 320.733 329.652 320.467 330.079 320.12L330.779 321.88C330.352 322.28 329.799 322.593 329.119 322.82C328.439 323.047 327.726 323.16 326.979 323.16ZM337.038 323.16C336.011 323.16 335.104 322.947 334.318 322.52C333.544 322.093 332.944 321.487 332.518 320.7C332.104 319.9 331.898 318.967 331.898 317.9C331.898 316.833 332.104 315.907 332.518 315.12C332.944 314.32 333.544 313.707 334.318 313.28C335.104 312.853 336.011 312.64 337.038 312.64C338.051 312.64 338.944 312.853 339.718 313.28C340.491 313.707 341.084 314.32 341.498 315.12C341.924 315.907 342.138 316.833 342.138 317.9C342.138 318.967 341.924 319.9 341.498 320.7C341.084 321.487 340.491 322.093 339.718 322.52C338.944 322.947 338.051 323.16 337.038 323.16ZM337.018 321.2C337.871 321.2 338.518 320.927 338.958 320.38C339.411 319.82 339.638 318.993 339.638 317.9C339.638 316.82 339.411 316 338.958 315.44C338.504 314.867 337.864 314.58 337.038 314.58C336.198 314.58 335.551 314.867 335.098 315.44C334.644 316 334.418 316.82 334.418 317.9C334.418 318.993 334.638 319.82 335.078 320.38C335.531 320.927 336.178 321.2 337.018 321.2ZM349.734 312.66C350.12 312.66 350.454 312.713 350.734 312.82L350.714 315.1C350.287 314.927 349.847 314.84 349.394 314.84C348.54 314.84 347.887 315.087 347.434 315.58C346.994 316.073 346.774 316.727 346.774 317.54V323H344.294V315.76C344.294 314.693 344.24 313.74 344.134 312.9H346.474L346.674 314.68C346.927 314.027 347.327 313.527 347.874 313.18C348.42 312.833 349.04 312.66 349.734 312.66ZM360.77 318.08H353.81C353.864 319.16 354.13 319.96 354.61 320.48C355.104 320.987 355.83 321.24 356.79 321.24C357.897 321.24 358.924 320.88 359.87 320.16L360.59 321.88C360.11 322.267 359.517 322.58 358.81 322.82C358.117 323.047 357.41 323.16 356.69 323.16C355.037 323.16 353.737 322.693 352.79 321.76C351.844 320.827 351.37 319.547 351.37 317.92C351.37 316.893 351.577 315.98 351.99 315.18C352.404 314.38 352.984 313.76 353.73 313.32C354.477 312.867 355.324 312.64 356.27 312.64C357.657 312.64 358.75 313.093 359.55 314C360.364 314.893 360.77 316.127 360.77 317.7V318.08ZM356.33 314.44C355.664 314.44 355.117 314.64 354.69 315.04C354.277 315.427 354.01 315.993 353.89 316.74H358.59C358.51 315.98 358.277 315.407 357.89 315.02C357.517 314.633 356.997 314.44 356.33 314.44Z" fill="#1C3C55"/>
<g filter="url(#filter0_d)">
<rect x="3" y="403" width="573" height="34.6014" rx="1.38406" fill="#D8D8D8"/>
<path d="M3 404.384C3 403.62 3.61966 403 4.38406 403H361.98V436.217C361.98 436.982 361.361 437.601 360.596 437.601H4.38406C3.61966 437.601 3 436.982 3 436.217V404.384Z" fill="#25AD75"/>
<path fill-rule="evenodd" clip-rule="evenodd" d="M417.974 403V437.601H361.98V403H417.974Z" fill="#65D1A4"/>
<path fill-rule="evenodd" clip-rule="evenodd" d="M503.83 403V437.601H417.352V403H503.83Z" fill="#9DC2D4"/>
<path fill-rule="evenodd" clip-rule="evenodd" d="M542.404 403V437.601H503.831V403H542.404Z" fill="#F5A393"/>
<path fill-rule="evenodd" clip-rule="evenodd" d="M542.404 403V437.601H503.831V403H542.404Z" fill="#F5A393"/>
<rect x="542.404" y="403" width="33.5961" height="34.6014" fill="#F06449"/>
<path d="M187.256 418.972C187.689 418.972 188.07 419.066 188.399 419.253C188.729 419.434 188.984 419.692 189.165 420.028C189.346 420.358 189.436 420.739 189.436 421.171C189.436 421.624 189.333 422.024 189.126 422.373C188.919 422.715 188.622 422.983 188.235 423.177C187.847 423.364 187.398 423.458 186.888 423.458C186.455 423.458 186.029 423.387 185.609 423.245C185.189 423.096 184.844 422.899 184.573 422.654L184.989 421.743C185.616 422.221 186.255 422.46 186.907 422.46C187.34 422.46 187.67 422.353 187.896 422.14C188.128 421.921 188.244 421.611 188.244 421.21C188.244 420.829 188.125 420.526 187.886 420.299C187.653 420.067 187.34 419.951 186.946 419.951C186.675 419.951 186.42 420.002 186.181 420.106C185.942 420.203 185.732 420.348 185.551 420.542H184.795V416.482H189.116V417.451H186.016V419.331C186.365 419.092 186.778 418.972 187.256 418.972Z" fill="#EBF3F6"/>
<path d="M392.326 422.034H391.348V423.38H390.127V422.034H387.124V421.104L390.35 416.482H391.348V421.055H392.326V422.034ZM390.127 421.055V418.43L388.306 421.055H390.127Z" fill="white"/>
<path d="M457.845 419.834C458.252 419.944 458.562 420.144 458.775 420.435C458.995 420.726 459.104 421.084 459.104 421.511C459.104 422.111 458.882 422.586 458.436 422.935C457.997 423.283 457.402 423.458 456.653 423.458C456.188 423.458 455.739 423.387 455.307 423.245C454.88 423.103 454.528 422.906 454.25 422.654L454.677 421.743C455.29 422.221 455.933 422.46 456.605 422.46C457.044 422.46 457.37 422.373 457.583 422.198C457.803 422.024 457.913 421.759 457.913 421.404C457.913 421.055 457.803 420.8 457.583 420.639C457.364 420.471 457.025 420.387 456.566 420.387H455.655V419.389H456.401C457.293 419.389 457.738 419.05 457.738 418.371C457.738 418.055 457.641 417.813 457.448 417.645C457.254 417.477 456.983 417.393 456.634 417.393C456.014 417.393 455.394 417.632 454.774 418.11L454.357 417.199C454.635 416.954 454.984 416.76 455.403 416.618C455.83 416.469 456.266 416.395 456.711 416.395C457.39 416.395 457.929 416.563 458.329 416.899C458.736 417.228 458.94 417.671 458.94 418.226C458.933 418.607 458.833 418.94 458.639 419.224C458.452 419.502 458.187 419.705 457.845 419.834Z" fill="white"/>
<path d="M526.314 422.363V423.38H521.683V422.46L524.027 419.931C524.305 419.628 524.509 419.35 524.638 419.098C524.767 418.846 524.831 418.598 524.831 418.352C524.831 418.036 524.738 417.797 524.55 417.635C524.37 417.474 524.108 417.393 523.766 417.393C523.159 417.393 522.535 417.632 521.896 418.11L521.479 417.199C521.751 416.954 522.099 416.76 522.526 416.618C522.952 416.469 523.381 416.395 523.814 416.395C524.505 416.395 525.051 416.566 525.452 416.909C525.858 417.244 526.062 417.7 526.062 418.275C526.062 418.669 525.975 419.04 525.8 419.389C525.632 419.738 525.348 420.128 524.948 420.561L523.252 422.363H526.314Z" fill="white"/>
<path d="M563.015 422.363V423.38H558.762V422.363H560.273V417.916L558.868 418.759V417.645L560.787 416.482H561.513V422.363H563.015Z" fill="#EBF3F6"/>
</g>
<defs>
<filter id="filter0_d" x="0.231884" y="401.616" width="578.536" height="40.1377" filterUnits="userSpaceOnUse" color-interpolation-filters="sRGB">
<feFlood flood-opacity="0" result="BackgroundImageFix"/>
<feColorMatrix in="SourceAlpha" type="matrix" values="0 0 0 0 0 0 0 0 0 0 0 0 0 0 0 0 0 0 127 0"/>
<feOffset dy="1.38406"/>
<feGaussianBlur stdDeviation="1.38406"/>
<feColorMatrix type="matrix" values="0 0 0 0 0 0 0 0 0 0 0 0 0 0 0 0 0 0 0.04 0"/>
<feBlend mode="normal" in2="BackgroundImageFix" result="effect1_dropShadow"/>
<feBlend mode="normal" in="SourceGraphic" in2="effect1_dropShadow" result="shape"/>
</filter>
</defs>
</svg>
