<svg width="445" height="380" viewBox="0 0 445 380" fill="none" xmlns="http://www.w3.org/2000/svg">
<rect x="14" y="15" width="431" height="365" rx="4" fill="#D6EFFA" fill-opacity="0.5"/>
<g clip-path="url(#clip0)">
<g filter="url(#filter0_d)">
<rect width="430" height="365" rx="4" fill="white"/>
<rect x="0.5" y="0.5" width="429" height="364" rx="3.5" stroke="#D8DCE6"/>
</g>
<path d="M57.7626 119.245L52.8943 133H50.8659L47.4079 123.109L43.9113 133H41.8829L37.0339 119.245H39.5646L43.0033 129.503L46.5772 119.245H48.3545L51.8511 129.581L55.3671 119.245H57.7626ZM65.1058 122.993C67.4369 122.993 68.6024 124.332 68.6024 127.011V133H66.1876V127.127C66.1876 126.354 66.0395 125.794 65.7433 125.447C65.4471 125.086 64.9899 124.906 64.3717 124.906C63.6376 124.906 63.0452 125.144 62.5944 125.62C62.1437 126.084 61.9183 126.702 61.9183 127.475V133H59.5228V118.782H61.9183V124.654C62.2531 124.126 62.6975 123.721 63.2513 123.437C63.805 123.141 64.4232 122.993 65.1058 122.993ZM80.4937 123.244V133H78.1175V131.435C77.8213 131.976 77.3963 132.401 76.8425 132.71C76.2887 133.006 75.6576 133.155 74.9493 133.155C74.0993 133.155 73.3459 132.948 72.689 132.536C72.0322 132.124 71.5235 131.538 71.1629 130.778C70.8023 130.019 70.622 129.136 70.622 128.132C70.622 127.127 70.8023 126.239 71.1629 125.466C71.5364 124.68 72.0515 124.075 72.7084 123.65C73.3652 123.212 74.1122 122.993 74.9493 122.993C75.6576 122.993 76.2887 123.148 76.8425 123.457C77.3963 123.753 77.8213 124.171 78.1175 124.712V123.244H80.4937ZM75.6061 131.261C76.4046 131.261 77.0228 130.984 77.4607 130.431C77.8986 129.877 78.1175 129.098 78.1175 128.093C78.1175 127.063 77.8986 126.271 77.4607 125.717C77.0228 125.163 76.3982 124.886 75.5868 124.886C74.7883 124.886 74.1637 125.176 73.7129 125.756C73.275 126.322 73.0561 127.114 73.0561 128.132C73.0561 129.136 73.275 129.909 73.7129 130.45C74.1637 130.991 74.7947 131.261 75.6061 131.261ZM86.1953 125.06V129.426C86.1953 130.572 86.7298 131.145 87.7987 131.145C88.095 131.145 88.4169 131.094 88.7647 130.991V132.903C88.3397 133.058 87.8245 133.135 87.2192 133.135C86.1116 133.135 85.2616 132.826 84.6692 132.208C84.0767 131.59 83.7805 130.701 83.7805 129.542V125.06H81.9066V123.244H83.7805V120.868L86.1953 120.057V123.244H88.784V125.06H86.1953ZM95.7448 123.244H98.1403V133H95.7448V123.244ZM98.2755 118.82V121.196H95.5902V118.82H98.2755ZM104.356 133.155C102.591 133.155 101.188 132.742 100.144 131.918L100.821 130.218C101.864 130.991 103.055 131.377 104.394 131.377C104.974 131.377 105.418 131.281 105.727 131.087C106.049 130.894 106.21 130.624 106.21 130.276C106.21 129.98 106.101 129.748 105.882 129.581C105.663 129.4 105.29 129.246 104.761 129.117L103.139 128.75C101.361 128.364 100.473 127.456 100.473 126.026C100.473 125.434 100.64 124.912 100.975 124.461C101.31 123.998 101.78 123.637 102.385 123.379C102.991 123.122 103.693 122.993 104.491 122.993C105.186 122.993 105.856 123.103 106.5 123.321C107.144 123.528 107.711 123.83 108.2 124.229L107.485 125.872C106.507 125.15 105.502 124.79 104.472 124.79C103.918 124.79 103.486 124.893 103.177 125.099C102.868 125.305 102.714 125.588 102.714 125.949C102.714 126.232 102.804 126.458 102.984 126.625C103.177 126.792 103.499 126.934 103.95 127.05L105.611 127.417C106.577 127.636 107.279 127.977 107.717 128.441C108.168 128.892 108.393 129.484 108.393 130.218C108.393 131.12 108.033 131.834 107.312 132.362C106.59 132.891 105.605 133.155 104.356 133.155ZM118.833 125.06V129.426C118.833 130.572 119.367 131.145 120.436 131.145C120.732 131.145 121.054 131.094 121.402 130.991V132.903C120.977 133.058 120.462 133.135 119.857 133.135C118.749 133.135 117.899 132.826 117.307 132.208C116.714 131.59 116.418 130.701 116.418 129.542V125.06H114.544V123.244H116.418V120.868L118.833 120.057V123.244H121.421V125.06H118.833ZM128.664 122.993C130.995 122.993 132.161 124.332 132.161 127.011V133H129.746V127.127C129.746 126.354 129.598 125.794 129.302 125.447C129.005 125.086 128.548 124.906 127.93 124.906C127.196 124.906 126.603 125.144 126.153 125.62C125.702 126.084 125.477 126.702 125.477 127.475V133H123.081V118.782H125.477V124.654C125.811 124.126 126.256 123.721 126.809 123.437C127.363 123.141 127.981 122.993 128.664 122.993ZM143.26 128.248H136.537C136.589 129.291 136.846 130.064 137.31 130.566C137.786 131.055 138.488 131.3 139.415 131.3C140.484 131.3 141.476 130.952 142.391 130.257L143.086 131.918C142.622 132.292 142.049 132.594 141.367 132.826C140.697 133.045 140.014 133.155 139.319 133.155C137.722 133.155 136.466 132.704 135.552 131.802C134.637 130.901 134.18 129.664 134.18 128.093C134.18 127.101 134.38 126.219 134.779 125.447C135.178 124.674 135.739 124.075 136.46 123.65C137.181 123.212 137.999 122.993 138.913 122.993C140.253 122.993 141.309 123.431 142.081 124.307C142.867 125.17 143.26 126.361 143.26 127.881V128.248ZM138.971 124.732C138.327 124.732 137.799 124.925 137.387 125.311C136.988 125.685 136.73 126.232 136.614 126.953H141.154C141.077 126.219 140.851 125.665 140.478 125.292C140.117 124.918 139.615 124.732 138.971 124.732ZM162.12 122.993C163.227 122.993 164.052 123.328 164.592 123.998C165.133 124.654 165.404 125.659 165.404 127.011V133H162.989V127.089C162.989 126.316 162.86 125.762 162.603 125.427C162.358 125.079 161.946 124.906 161.366 124.906C160.697 124.906 160.169 125.144 159.782 125.62C159.409 126.084 159.222 126.728 159.222 127.552V133H156.807V127.089C156.807 126.329 156.672 125.775 156.401 125.427C156.144 125.079 155.732 124.906 155.165 124.906C154.495 124.906 153.967 125.144 153.581 125.62C153.195 126.084 153.001 126.728 153.001 127.552V133H150.606V126.007C150.606 124.976 150.554 124.056 150.451 123.244H152.712L152.886 124.79C153.169 124.21 153.575 123.766 154.103 123.457C154.644 123.148 155.262 122.993 155.957 122.993C157.451 122.993 158.423 123.611 158.874 124.848C159.183 124.268 159.621 123.817 160.188 123.495C160.767 123.161 161.411 122.993 162.12 122.993ZM177.312 123.244V133H174.936V131.435C174.64 131.976 174.215 132.401 173.661 132.71C173.107 133.006 172.476 133.155 171.768 133.155C170.918 133.155 170.164 132.948 169.507 132.536C168.851 132.124 168.342 131.538 167.981 130.778C167.621 130.019 167.44 129.136 167.44 128.132C167.44 127.127 167.621 126.239 167.981 125.466C168.355 124.68 168.87 124.075 169.527 123.65C170.184 123.212 170.93 122.993 171.768 122.993C172.476 122.993 173.107 123.148 173.661 123.457C174.215 123.753 174.64 124.171 174.936 124.712V123.244H177.312ZM172.424 131.261C173.223 131.261 173.841 130.984 174.279 130.431C174.717 129.877 174.936 129.098 174.936 128.093C174.936 127.063 174.717 126.271 174.279 125.717C173.841 125.163 173.216 124.886 172.405 124.886C171.607 124.886 170.982 125.176 170.531 125.756C170.093 126.322 169.874 127.114 169.874 128.132C169.874 129.136 170.093 129.909 170.531 130.45C170.982 130.991 171.613 131.261 172.424 131.261ZM179.942 123.244H182.337V133H179.942V123.244ZM182.473 118.82V121.196H179.787V118.82H182.473ZM190.562 122.993C192.893 122.993 194.059 124.332 194.059 127.011V133H191.644V127.127C191.644 126.354 191.496 125.794 191.2 125.447C190.903 125.086 190.446 124.906 189.828 124.906C189.094 124.906 188.502 125.144 188.051 125.62C187.6 126.084 187.375 126.702 187.375 127.475V133H184.979V126.007C184.979 124.976 184.928 124.056 184.825 123.244H187.085L187.259 124.848C187.594 124.255 188.044 123.798 188.611 123.476C189.191 123.154 189.841 122.993 190.562 122.993ZM207.484 122.993C208.334 122.993 209.081 123.206 209.725 123.631C210.382 124.043 210.891 124.629 211.251 125.389C211.612 126.148 211.792 127.031 211.792 128.035C211.792 129.04 211.605 129.935 211.232 130.72C210.871 131.493 210.363 132.092 209.706 132.517C209.062 132.942 208.321 133.155 207.484 133.155C206.763 133.155 206.119 133 205.552 132.691C204.999 132.382 204.58 131.95 204.297 131.397V133H201.92V118.782H204.316V124.712C204.612 124.171 205.037 123.753 205.591 123.457C206.145 123.148 206.776 122.993 207.484 122.993ZM206.847 131.261C207.645 131.261 208.263 130.978 208.701 130.411C209.139 129.845 209.358 129.053 209.358 128.035C209.358 127.031 209.139 126.258 208.701 125.717C208.263 125.163 207.639 124.886 206.827 124.886C206.016 124.886 205.391 125.163 204.953 125.717C204.516 126.271 204.297 127.056 204.297 128.074C204.297 129.104 204.516 129.896 204.953 130.45C205.391 130.991 206.022 131.261 206.847 131.261ZM222.439 128.248H215.716C215.768 129.291 216.025 130.064 216.489 130.566C216.965 131.055 217.667 131.3 218.594 131.3C219.663 131.3 220.655 130.952 221.57 130.257L222.265 131.918C221.801 132.292 221.228 132.594 220.546 132.826C219.876 133.045 219.193 133.155 218.498 133.155C216.901 133.155 215.645 132.704 214.731 131.802C213.816 130.901 213.359 129.664 213.359 128.093C213.359 127.101 213.559 126.219 213.958 125.447C214.357 124.674 214.918 124.075 215.639 123.65C216.36 123.212 217.178 122.993 218.092 122.993C219.432 122.993 220.488 123.431 221.26 124.307C222.046 125.17 222.439 126.361 222.439 127.881V128.248ZM218.15 124.732C217.506 124.732 216.978 124.925 216.566 125.311C216.167 125.685 215.909 126.232 215.793 126.953H220.333C220.256 126.219 220.03 125.665 219.657 125.292C219.296 124.918 218.794 124.732 218.15 124.732ZM230.067 122.993C232.398 122.993 233.563 124.332 233.563 127.011V133H231.149V127.127C231.149 126.354 231 125.794 230.704 125.447C230.408 125.086 229.951 124.906 229.333 124.906C228.599 124.906 228.006 125.144 227.555 125.62C227.105 126.084 226.879 126.702 226.879 127.475V133H224.484V126.007C224.484 124.976 224.432 124.056 224.329 123.244H226.589L226.763 124.848C227.098 124.255 227.549 123.798 228.116 123.476C228.695 123.154 229.346 122.993 230.067 122.993ZM244.663 128.248H237.94C237.991 129.291 238.249 130.064 238.712 130.566C239.189 131.055 239.891 131.3 240.818 131.3C241.887 131.3 242.879 130.952 243.793 130.257L244.489 131.918C244.025 132.292 243.452 132.594 242.769 132.826C242.1 133.045 241.417 133.155 240.722 133.155C239.125 133.155 237.869 132.704 236.954 131.802C236.04 130.901 235.583 129.664 235.583 128.093C235.583 127.101 235.782 126.219 236.182 125.447C236.581 124.674 237.141 124.075 237.862 123.65C238.584 123.212 239.401 122.993 240.316 122.993C241.655 122.993 242.711 123.431 243.484 124.307C244.27 125.17 244.663 126.361 244.663 127.881V128.248ZM240.374 124.732C239.73 124.732 239.202 124.925 238.79 125.311C238.39 125.685 238.133 126.232 238.017 126.953H242.557C242.48 126.219 242.254 125.665 241.881 125.292C241.52 124.918 241.018 124.732 240.374 124.732ZM249.722 123.244H256.136V133H253.721V125.06H249.722V133H247.308V125.06H245.434V123.244H247.308V122.259C247.308 121.383 247.443 120.694 247.713 120.192C247.984 119.677 248.422 119.303 249.027 119.071C249.645 118.84 250.482 118.724 251.538 118.724H252.253V120.501H251.789C251.184 120.501 250.74 120.553 250.457 120.656C250.173 120.746 249.98 120.932 249.877 121.216C249.774 121.486 249.722 121.924 249.722 122.529V123.244ZM256.291 118.724V121.158H253.567V118.724H256.291ZM261.815 125.06V129.426C261.815 130.572 262.35 131.145 263.419 131.145C263.715 131.145 264.037 131.094 264.385 130.991V132.903C263.96 133.058 263.444 133.135 262.839 133.135C261.732 133.135 260.882 132.826 260.289 132.208C259.697 131.59 259.4 130.701 259.4 129.542V125.06H257.527V123.244H259.4V120.868L261.815 120.057V123.244H264.404V125.06H261.815ZM280.599 123.244L276.059 133.657C275.544 134.867 274.887 135.75 274.089 136.303C273.29 136.857 272.305 137.224 271.133 137.405L270.592 135.55C271.506 135.344 272.189 135.08 272.64 134.758C273.103 134.449 273.477 133.985 273.76 133.367L274.069 132.652L270.012 123.244H272.543L275.344 130.257L278.203 123.244H280.599ZM286.108 133.155C285.116 133.155 284.241 132.948 283.481 132.536C282.734 132.124 282.154 131.538 281.742 130.778C281.343 130.006 281.143 129.104 281.143 128.074C281.143 127.043 281.343 126.148 281.742 125.389C282.154 124.616 282.734 124.023 283.481 123.611C284.241 123.199 285.116 122.993 286.108 122.993C287.087 122.993 287.95 123.199 288.697 123.611C289.444 124.023 290.017 124.616 290.416 125.389C290.828 126.148 291.034 127.043 291.034 128.074C291.034 129.104 290.828 130.006 290.416 130.778C290.017 131.538 289.444 132.124 288.697 132.536C287.95 132.948 287.087 133.155 286.108 133.155ZM286.089 131.261C286.913 131.261 287.538 130.997 287.963 130.469C288.401 129.928 288.62 129.13 288.62 128.074C288.62 127.031 288.401 126.239 287.963 125.698C287.525 125.144 286.907 124.867 286.108 124.867C285.297 124.867 284.672 125.144 284.234 125.698C283.796 126.239 283.577 127.031 283.577 128.074C283.577 129.13 283.79 129.928 284.215 130.469C284.653 130.997 285.277 131.261 286.089 131.261ZM302.003 123.244V133H299.646V131.493C299.337 132.034 298.925 132.446 298.41 132.73C297.895 133.013 297.302 133.155 296.633 133.155C294.25 133.155 293.059 131.815 293.059 129.136V123.244H295.454V129.156C295.454 129.864 295.596 130.386 295.879 130.72C296.176 131.055 296.626 131.223 297.232 131.223C297.94 131.223 298.507 130.991 298.932 130.527C299.357 130.064 299.569 129.445 299.569 128.673V123.244H302.003ZM318.465 128.248H311.742C311.794 129.291 312.051 130.064 312.515 130.566C312.991 131.055 313.693 131.3 314.62 131.3C315.689 131.3 316.681 130.952 317.595 130.257L318.291 131.918C317.827 132.292 317.254 132.594 316.572 132.826C315.902 133.045 315.219 133.155 314.524 133.155C312.927 133.155 311.671 132.704 310.757 131.802C309.842 130.901 309.385 129.664 309.385 128.093C309.385 127.101 309.585 126.219 309.984 125.447C310.383 124.674 310.944 124.075 311.665 123.65C312.386 123.212 313.204 122.993 314.118 122.993C315.458 122.993 316.514 123.431 317.286 124.307C318.072 125.17 318.465 126.361 318.465 127.881V128.248ZM314.176 124.732C313.532 124.732 313.004 124.925 312.592 125.311C312.193 125.685 311.935 126.232 311.819 126.953H316.359C316.282 126.219 316.056 125.665 315.683 125.292C315.322 124.918 314.82 124.732 314.176 124.732ZM329.938 133H327.06L324.433 129.697L321.805 133H318.946L323.042 127.977L319.197 123.244H322.056L324.433 126.277L326.809 123.244H329.687L325.843 127.977L329.938 133ZM336.619 122.993C337.456 122.993 338.197 123.212 338.841 123.65C339.498 124.075 340.006 124.68 340.367 125.466C340.74 126.239 340.927 127.127 340.927 128.132C340.927 129.136 340.747 130.019 340.386 130.778C340.026 131.538 339.517 132.124 338.86 132.536C338.216 132.948 337.469 133.155 336.619 133.155C335.911 133.155 335.28 133.006 334.726 132.71C334.172 132.401 333.747 131.976 333.451 131.435V137.173H331.056V126.007C331.056 124.976 331.004 124.056 330.901 123.244H333.161L333.354 124.925C333.612 124.32 334.031 123.85 334.61 123.515C335.19 123.167 335.859 122.993 336.619 122.993ZM335.962 131.261C336.774 131.261 337.398 130.991 337.836 130.45C338.274 129.909 338.493 129.136 338.493 128.132C338.493 127.114 338.274 126.322 337.836 125.756C337.398 125.176 336.78 124.886 335.982 124.886C335.157 124.886 334.526 125.163 334.089 125.717C333.651 126.271 333.432 127.063 333.432 128.093C333.432 129.111 333.651 129.896 334.089 130.45C334.526 130.991 335.151 131.261 335.962 131.261ZM351.574 128.248H344.851C344.903 129.291 345.16 130.064 345.624 130.566C346.1 131.055 346.802 131.3 347.73 131.3C348.799 131.3 349.79 130.952 350.705 130.257L351.4 131.918C350.936 132.292 350.363 132.594 349.681 132.826C349.011 133.045 348.328 133.155 347.633 133.155C346.036 133.155 344.78 132.704 343.866 131.802C342.951 130.901 342.494 129.664 342.494 128.093C342.494 127.101 342.694 126.219 343.093 125.447C343.492 124.674 344.053 124.075 344.774 123.65C345.495 123.212 346.313 122.993 347.227 122.993C348.567 122.993 349.623 123.431 350.396 124.307C351.181 125.17 351.574 126.361 351.574 127.881V128.248ZM347.285 124.732C346.641 124.732 346.113 124.925 345.701 125.311C345.302 125.685 345.044 126.232 344.928 126.953H349.468C349.391 126.219 349.166 125.665 348.792 125.292C348.431 124.918 347.929 124.732 347.285 124.732ZM358.043 133.155C357.025 133.155 356.143 132.948 355.396 132.536C354.649 132.124 354.076 131.545 353.677 130.798C353.278 130.038 353.078 129.149 353.078 128.132C353.078 127.114 353.284 126.219 353.696 125.447C354.121 124.674 354.714 124.075 355.473 123.65C356.246 123.212 357.135 122.993 358.139 122.993C358.835 122.993 359.504 123.103 360.148 123.321C360.805 123.54 361.327 123.843 361.713 124.229L361.037 125.929C360.625 125.595 360.187 125.343 359.723 125.176C359.26 124.996 358.803 124.906 358.352 124.906C357.476 124.906 356.793 125.182 356.304 125.736C355.815 126.277 355.57 127.063 355.57 128.093C355.57 129.123 355.808 129.909 356.285 130.45C356.774 130.991 357.463 131.261 358.352 131.261C358.803 131.261 359.26 131.171 359.723 130.991C360.187 130.811 360.625 130.553 361.037 130.218L361.713 131.918C361.301 132.305 360.767 132.607 360.11 132.826C359.453 133.045 358.764 133.155 358.043 133.155ZM366.463 125.06V129.426C366.463 130.572 366.997 131.145 368.066 131.145C368.362 131.145 368.684 131.094 369.032 130.991V132.903C368.607 133.058 368.092 133.135 367.487 133.135C366.379 133.135 365.529 132.826 364.937 132.208C364.344 131.59 364.048 130.701 364.048 129.542V125.06H362.174V123.244H364.048V120.868L366.463 120.057V123.244H369.052V125.06H366.463ZM379.084 125.06V129.426C379.084 130.572 379.618 131.145 380.687 131.145C380.984 131.145 381.306 131.094 381.653 130.991V132.903C381.228 133.058 380.713 133.135 380.108 133.135C379 133.135 378.15 132.826 377.558 132.208C376.965 131.59 376.669 130.701 376.669 129.542V125.06H374.795V123.244H376.669V120.868L379.084 120.057V123.244H381.673V125.06H379.084ZM387.756 133.155C386.764 133.155 385.889 132.948 385.129 132.536C384.382 132.124 383.802 131.538 383.39 130.778C382.991 130.006 382.791 129.104 382.791 128.074C382.791 127.043 382.991 126.148 383.39 125.389C383.802 124.616 384.382 124.023 385.129 123.611C385.889 123.199 386.764 122.993 387.756 122.993C388.735 122.993 389.598 123.199 390.345 123.611C391.092 124.023 391.665 124.616 392.064 125.389C392.476 126.148 392.682 127.043 392.682 128.074C392.682 129.104 392.476 130.006 392.064 130.778C391.665 131.538 391.092 132.124 390.345 132.536C389.598 132.948 388.735 133.155 387.756 133.155ZM387.737 131.261C388.561 131.261 389.186 130.997 389.611 130.469C390.049 129.928 390.267 129.13 390.267 128.074C390.267 127.031 390.049 126.239 389.611 125.698C389.173 125.144 388.555 124.867 387.756 124.867C386.945 124.867 386.32 125.144 385.882 125.698C385.444 126.239 385.225 127.031 385.225 128.074C385.225 129.13 385.438 129.928 385.863 130.469C386.301 130.997 386.925 131.261 387.737 131.261ZM69.5127 147.012C69.8862 147.012 70.2081 147.064 70.4786 147.167L70.4593 149.369C70.0472 149.202 69.6221 149.118 69.1843 149.118C68.36 149.118 67.7289 149.356 67.2911 149.833C66.8661 150.309 66.6536 150.94 66.6536 151.726V157H64.2581V150.007C64.2581 148.976 64.2066 148.056 64.1035 147.244H66.3638L66.557 148.964C66.8017 148.332 67.188 147.85 67.7161 147.515C68.2441 147.18 68.843 147.012 69.5127 147.012ZM80.1733 152.248H73.4505C73.502 153.291 73.7596 154.064 74.2232 154.566C74.6997 155.055 75.4016 155.3 76.3289 155.3C77.3979 155.3 78.3895 154.952 79.3039 154.257L79.9994 155.918C79.5358 156.292 78.9626 156.594 78.2801 156.826C77.6104 157.045 76.9278 157.155 76.2323 157.155C74.6353 157.155 73.3796 156.704 72.4652 155.802C71.5508 154.901 71.0936 153.664 71.0936 152.093C71.0936 151.101 71.2932 150.219 71.6925 149.447C72.0917 148.674 72.652 148.075 73.3732 147.65C74.0944 147.212 74.9122 146.993 75.8266 146.993C77.166 146.993 78.2221 147.431 78.9948 148.307C79.7805 149.17 80.1733 150.361 80.1733 151.881V152.248ZM75.8846 148.732C75.2406 148.732 74.7126 148.925 74.3005 149.311C73.9012 149.685 73.6436 150.232 73.5277 150.953H78.0676C77.9903 150.219 77.7649 149.665 77.3914 149.292C77.0308 148.918 76.5285 148.732 75.8846 148.732ZM86.642 157.155C85.6246 157.155 84.7424 156.948 83.9954 156.536C83.2485 156.124 82.6753 155.545 82.2761 154.798C81.8768 154.038 81.6772 153.149 81.6772 152.132C81.6772 151.114 81.8833 150.219 82.2954 149.447C82.7204 148.674 83.3128 148.075 84.0727 147.65C84.8454 147.212 85.7341 146.993 86.7386 146.993C87.4341 146.993 88.1038 147.103 88.7478 147.321C89.4046 147.54 89.9262 147.843 90.3125 148.229L89.6364 149.929C89.2243 149.595 88.7864 149.343 88.3227 149.176C87.8591 148.996 87.4019 148.906 86.9511 148.906C86.0754 148.906 85.3928 149.182 84.9034 149.736C84.414 150.277 84.1693 151.063 84.1693 152.093C84.1693 153.123 84.4076 153.909 84.8841 154.45C85.3735 154.991 86.0625 155.261 86.9511 155.261C87.4019 155.261 87.8591 155.171 88.3227 154.991C88.7864 154.811 89.2243 154.553 89.6364 154.218L90.3125 155.918C89.9004 156.305 89.3659 156.607 88.7091 156.826C88.0523 157.045 87.3633 157.155 86.642 157.155ZM100.473 152.248H93.7499C93.8014 153.291 94.059 154.064 94.5226 154.566C94.9991 155.055 95.701 155.3 96.6283 155.3C97.6972 155.3 98.6889 154.952 99.6033 154.257L100.299 155.918C99.8351 156.292 99.262 156.594 98.5795 156.826C97.9097 157.045 97.2272 157.155 96.5317 157.155C94.9347 157.155 93.679 156.704 92.7646 155.802C91.8502 154.901 91.393 153.664 91.393 152.093C91.393 151.101 91.5926 150.219 91.9919 149.447C92.3911 148.674 92.9514 148.075 93.6726 147.65C94.3938 147.212 95.2116 146.993 96.126 146.993C97.4654 146.993 98.5215 147.431 99.2942 148.307C100.08 149.17 100.473 150.361 100.473 151.881V152.248ZM96.184 148.732C95.54 148.732 95.012 148.925 94.5999 149.311C94.2006 149.685 93.943 150.232 93.8271 150.953H98.367C98.2897 150.219 98.0643 149.665 97.6908 149.292C97.3302 148.918 96.8279 148.732 96.184 148.732ZM102.518 147.244H104.913V157H102.518V147.244ZM105.048 142.82V145.196H102.363V142.82H105.048ZM116.789 147.264L112.519 157H110.414L106.202 147.264H108.733L111.534 154.257L114.393 147.264H116.789ZM126.413 152.248H119.69C119.742 153.291 119.999 154.064 120.463 154.566C120.939 155.055 121.641 155.3 122.569 155.3C123.637 155.3 124.629 154.952 125.544 154.257L126.239 155.918C125.775 156.292 125.202 156.594 124.52 156.826C123.85 157.045 123.167 157.155 122.472 157.155C120.875 157.155 119.619 156.704 118.705 155.802C117.79 154.901 117.333 153.664 117.333 152.093C117.333 151.101 117.533 150.219 117.932 149.447C118.331 148.674 118.892 148.075 119.613 147.65C120.334 147.212 121.152 146.993 122.066 146.993C123.406 146.993 124.462 147.431 125.234 148.307C126.02 149.17 126.413 150.361 126.413 151.881V152.248ZM122.124 148.732C121.48 148.732 120.952 148.925 120.54 149.311C120.141 149.685 119.883 150.232 119.767 150.953H124.307C124.23 150.219 124.005 149.665 123.631 149.292C123.27 148.918 122.768 148.732 122.124 148.732ZM138.376 144.694C137.333 144.694 136.811 145.267 136.811 146.414V147.244H138.994V149.06H136.811V157H134.396V149.06H132.542V147.244H134.396V146.298C134.396 145.139 134.686 144.25 135.266 143.632C135.858 143.001 136.702 142.685 137.797 142.685C138.402 142.685 138.911 142.762 139.323 142.917V144.829C138.962 144.739 138.647 144.694 138.376 144.694ZM146.107 147.012C146.481 147.012 146.803 147.064 147.073 147.167L147.054 149.369C146.642 149.202 146.217 149.118 145.779 149.118C144.954 149.118 144.323 149.356 143.885 149.833C143.46 150.309 143.248 150.94 143.248 151.726V157H140.852V150.007C140.852 148.976 140.801 148.056 140.698 147.244H142.958L143.151 148.964C143.396 148.332 143.782 147.85 144.31 147.515C144.838 147.18 145.437 147.012 146.107 147.012ZM152.653 157.155C151.661 157.155 150.785 156.948 150.026 156.536C149.279 156.124 148.699 155.538 148.287 154.778C147.888 154.006 147.688 153.104 147.688 152.074C147.688 151.043 147.888 150.148 148.287 149.389C148.699 148.616 149.279 148.023 150.026 147.611C150.785 147.199 151.661 146.993 152.653 146.993C153.632 146.993 154.495 147.199 155.241 147.611C155.988 148.023 156.562 148.616 156.961 149.389C157.373 150.148 157.579 151.043 157.579 152.074C157.579 153.104 157.373 154.006 156.961 154.778C156.562 155.538 155.988 156.124 155.241 156.536C154.495 156.948 153.632 157.155 152.653 157.155ZM152.634 155.261C153.458 155.261 154.082 154.997 154.507 154.469C154.945 153.928 155.164 153.13 155.164 152.074C155.164 151.031 154.945 150.239 154.507 149.698C154.07 149.144 153.451 148.867 152.653 148.867C151.841 148.867 151.217 149.144 150.779 149.698C150.341 150.239 150.122 151.031 150.122 152.074C150.122 153.13 150.335 153.928 150.76 154.469C151.198 154.997 151.822 155.261 152.634 155.261ZM171.175 146.993C172.283 146.993 173.107 147.328 173.648 147.998C174.189 148.654 174.459 149.659 174.459 151.011V157H172.045V151.089C172.045 150.316 171.916 149.762 171.658 149.427C171.413 149.079 171.001 148.906 170.422 148.906C169.752 148.906 169.224 149.144 168.838 149.62C168.464 150.084 168.277 150.728 168.277 151.552V157H165.863V151.089C165.863 150.329 165.727 149.775 165.457 149.427C165.199 149.079 164.787 148.906 164.221 148.906C163.551 148.906 163.023 149.144 162.637 149.62C162.25 150.084 162.057 150.728 162.057 151.552V157H159.661V150.007C159.661 148.976 159.61 148.056 159.507 147.244H161.767L161.941 148.79C162.224 148.21 162.63 147.766 163.158 147.457C163.699 147.148 164.317 146.993 165.013 146.993C166.507 146.993 167.479 147.611 167.93 148.848C168.239 148.268 168.677 147.817 169.243 147.495C169.823 147.161 170.467 146.993 171.175 146.993ZM186.762 157.155C185.77 157.155 184.894 156.948 184.135 156.536C183.388 156.124 182.808 155.538 182.396 154.778C181.997 154.006 181.797 153.104 181.797 152.074C181.797 151.043 181.997 150.148 182.396 149.389C182.808 148.616 183.388 148.023 184.135 147.611C184.894 147.199 185.77 146.993 186.762 146.993C187.741 146.993 188.604 147.199 189.351 147.611C190.097 148.023 190.671 148.616 191.07 149.389C191.482 150.148 191.688 151.043 191.688 152.074C191.688 153.104 191.482 154.006 191.07 154.778C190.671 155.538 190.097 156.124 189.351 156.536C188.604 156.948 187.741 157.155 186.762 157.155ZM186.743 155.261C187.567 155.261 188.191 154.997 188.616 154.469C189.054 153.928 189.273 153.13 189.273 152.074C189.273 151.031 189.054 150.239 188.616 149.698C188.179 149.144 187.56 148.867 186.762 148.867C185.95 148.867 185.326 149.144 184.888 149.698C184.45 150.239 184.231 151.031 184.231 152.074C184.231 153.13 184.444 153.928 184.869 154.469C185.307 154.997 185.931 155.261 186.743 155.261ZM202.657 147.244V157H200.3V155.493C199.991 156.034 199.579 156.446 199.064 156.73C198.549 157.013 197.956 157.155 197.286 157.155C194.904 157.155 193.713 155.815 193.713 153.136V147.244H196.108V153.156C196.108 153.864 196.25 154.386 196.533 154.72C196.829 155.055 197.28 155.223 197.885 155.223C198.594 155.223 199.16 154.991 199.585 154.527C200.01 154.064 200.223 153.445 200.223 152.673V147.244H202.657ZM210.533 147.012C210.907 147.012 211.229 147.064 211.499 147.167L211.48 149.369C211.068 149.202 210.643 149.118 210.205 149.118C209.38 149.118 208.749 149.356 208.312 149.833C207.887 150.309 207.674 150.94 207.674 151.726V157H205.279V150.007C205.279 148.976 205.227 148.056 205.124 147.244H207.384L207.577 148.964C207.822 148.332 208.208 147.85 208.737 147.515C209.265 147.18 209.863 147.012 210.533 147.012ZM223.709 146.993C224.546 146.993 225.286 147.212 225.93 147.65C226.587 148.075 227.096 148.68 227.456 149.466C227.83 150.239 228.017 151.127 228.017 152.132C228.017 153.136 227.836 154.019 227.476 154.778C227.115 155.538 226.606 156.124 225.95 156.536C225.306 156.948 224.559 157.155 223.709 157.155C223 157.155 222.369 157.006 221.815 156.71C221.262 156.401 220.837 155.976 220.54 155.435V161.173H218.145V150.007C218.145 148.976 218.093 148.056 217.99 147.244H220.251L220.444 148.925C220.701 148.32 221.12 147.85 221.699 147.515C222.279 147.167 222.949 146.993 223.709 146.993ZM223.052 155.261C223.863 155.261 224.488 154.991 224.926 154.45C225.364 153.909 225.582 153.136 225.582 152.132C225.582 151.114 225.364 150.322 224.926 149.756C224.488 149.176 223.87 148.886 223.071 148.886C222.247 148.886 221.616 149.163 221.178 149.717C220.74 150.271 220.521 151.063 220.521 152.093C220.521 153.111 220.74 153.896 221.178 154.45C221.616 154.991 222.24 155.261 223.052 155.261ZM235.379 147.012C235.753 147.012 236.075 147.064 236.345 147.167L236.326 149.369C235.914 149.202 235.489 149.118 235.051 149.118C234.226 149.118 233.595 149.356 233.158 149.833C232.733 150.309 232.52 150.94 232.52 151.726V157H230.125V150.007C230.125 148.976 230.073 148.056 229.97 147.244H232.23L232.423 148.964C232.668 148.332 233.054 147.85 233.583 147.515C234.111 147.18 234.709 147.012 235.379 147.012ZM241.925 157.155C240.933 157.155 240.057 156.948 239.298 156.536C238.551 156.124 237.971 155.538 237.559 154.778C237.16 154.006 236.96 153.104 236.96 152.074C236.96 151.043 237.16 150.148 237.559 149.389C237.971 148.616 238.551 148.023 239.298 147.611C240.057 147.199 240.933 146.993 241.925 146.993C242.904 146.993 243.767 147.199 244.514 147.611C245.261 148.023 245.834 148.616 246.233 149.389C246.645 150.148 246.851 151.043 246.851 152.074C246.851 153.104 246.645 154.006 246.233 154.778C245.834 155.538 245.261 156.124 244.514 156.536C243.767 156.948 242.904 157.155 241.925 157.155ZM241.906 155.261C242.73 155.261 243.354 154.997 243.779 154.469C244.217 153.928 244.436 153.13 244.436 152.074C244.436 151.031 244.217 150.239 243.779 149.698C243.342 149.144 242.723 148.867 241.925 148.867C241.114 148.867 240.489 149.144 240.051 149.698C239.613 150.239 239.394 151.031 239.394 152.074C239.394 153.13 239.607 153.928 240.032 154.469C240.47 154.997 241.094 155.261 241.906 155.261ZM258.264 142.782V157H255.888V155.435C255.592 155.976 255.167 156.401 254.613 156.71C254.059 157.006 253.428 157.155 252.72 157.155C251.883 157.155 251.136 156.942 250.479 156.517C249.822 156.092 249.307 155.493 248.934 154.72C248.573 153.935 248.393 153.04 248.393 152.035C248.393 151.031 248.573 150.148 248.934 149.389C249.294 148.629 249.803 148.043 250.46 147.631C251.117 147.206 251.87 146.993 252.72 146.993C253.415 146.993 254.034 147.141 254.575 147.437C255.128 147.721 255.553 148.126 255.85 148.654V142.782H258.264ZM253.357 155.261C254.156 155.261 254.774 154.984 255.212 154.431C255.663 153.877 255.888 153.091 255.888 152.074C255.888 151.056 255.669 150.271 255.231 149.717C254.793 149.163 254.175 148.886 253.377 148.886C252.565 148.886 251.934 149.163 251.484 149.717C251.046 150.258 250.827 151.031 250.827 152.035C250.827 153.053 251.046 153.845 251.484 154.411C251.934 154.978 252.559 155.261 253.357 155.261ZM269.781 147.244V157H267.424V155.493C267.115 156.034 266.703 156.446 266.188 156.73C265.672 157.013 265.08 157.155 264.41 157.155C262.028 157.155 260.836 155.815 260.836 153.136V147.244H263.232V153.156C263.232 153.864 263.374 154.386 263.657 154.72C263.953 155.055 264.404 155.223 265.009 155.223C265.717 155.223 266.284 154.991 266.709 154.527C267.134 154.064 267.347 153.445 267.347 152.673V147.244H269.781ZM276.826 157.155C275.809 157.155 274.927 156.948 274.18 156.536C273.433 156.124 272.86 155.545 272.46 154.798C272.061 154.038 271.861 153.149 271.861 152.132C271.861 151.114 272.068 150.219 272.48 149.447C272.905 148.674 273.497 148.075 274.257 147.65C275.03 147.212 275.918 146.993 276.923 146.993C277.618 146.993 278.288 147.103 278.932 147.321C279.589 147.54 280.11 147.843 280.497 148.229L279.821 149.929C279.408 149.595 278.971 149.343 278.507 149.176C278.043 148.996 277.586 148.906 277.135 148.906C276.26 148.906 275.577 149.182 275.088 149.736C274.598 150.277 274.354 151.063 274.354 152.093C274.354 153.123 274.592 153.909 275.068 154.45C275.558 154.991 276.247 155.261 277.135 155.261C277.586 155.261 278.043 155.171 278.507 154.991C278.971 154.811 279.408 154.553 279.821 154.218L280.497 155.918C280.085 156.305 279.55 156.607 278.893 156.826C278.237 157.045 277.547 157.155 276.826 157.155ZM285.246 149.06V153.426C285.246 154.572 285.781 155.145 286.85 155.145C287.146 155.145 287.468 155.094 287.816 154.991V156.903C287.391 157.058 286.876 157.135 286.27 157.135C285.163 157.135 284.313 156.826 283.72 156.208C283.128 155.59 282.832 154.701 282.832 153.542V149.06H280.958V147.244H282.832V144.868L285.246 144.057V147.244H287.835V149.06H285.246ZM288.679 158.14L293.682 142.453H295.75L290.707 158.14H288.679ZM298.973 157.155C297.209 157.155 295.805 156.742 294.762 155.918L295.438 154.218C296.481 154.991 297.673 155.377 299.012 155.377C299.592 155.377 300.036 155.281 300.345 155.087C300.667 154.894 300.828 154.624 300.828 154.276C300.828 153.98 300.719 153.748 300.5 153.581C300.281 153.4 299.907 153.246 299.379 153.117L297.756 152.75C295.979 152.364 295.09 151.456 295.09 150.026C295.09 149.434 295.258 148.912 295.593 148.461C295.928 147.998 296.398 147.637 297.003 147.379C297.608 147.122 298.31 146.993 299.109 146.993C299.804 146.993 300.474 147.103 301.118 147.321C301.762 147.528 302.328 147.83 302.818 148.229L302.103 149.872C301.124 149.15 300.12 148.79 299.089 148.79C298.536 148.79 298.104 148.893 297.795 149.099C297.486 149.305 297.331 149.588 297.331 149.949C297.331 150.232 297.422 150.458 297.602 150.625C297.795 150.792 298.117 150.934 298.568 151.05L300.229 151.417C301.195 151.636 301.897 151.977 302.335 152.441C302.786 152.892 303.011 153.484 303.011 154.218C303.011 155.12 302.65 155.834 301.929 156.362C301.208 156.891 300.223 157.155 298.973 157.155ZM313.616 152.248H306.894C306.945 153.291 307.203 154.064 307.666 154.566C308.143 155.055 308.845 155.3 309.772 155.3C310.841 155.3 311.833 154.952 312.747 154.257L313.442 155.918C312.979 156.292 312.406 156.594 311.723 156.826C311.053 157.045 310.371 157.155 309.675 157.155C308.078 157.155 306.823 156.704 305.908 155.802C304.994 154.901 304.537 153.664 304.537 152.093C304.537 151.101 304.736 150.219 305.136 149.447C305.535 148.674 306.095 148.075 306.816 147.65C307.538 147.212 308.355 146.993 309.27 146.993C310.609 146.993 311.665 147.431 312.438 148.307C313.224 149.17 313.616 150.361 313.616 151.881V152.248ZM309.328 148.732C308.684 148.732 308.156 148.925 307.744 149.311C307.344 149.685 307.087 150.232 306.971 150.953H311.511C311.433 150.219 311.208 149.665 310.835 149.292C310.474 148.918 309.972 148.732 309.328 148.732ZM320.916 147.012C321.289 147.012 321.611 147.064 321.882 147.167L321.862 149.369C321.45 149.202 321.025 149.118 320.587 149.118C319.763 149.118 319.132 149.356 318.694 149.833C318.269 150.309 318.057 150.94 318.057 151.726V157H315.661V150.007C315.661 148.976 315.61 148.056 315.507 147.244H317.767L317.96 148.964C318.205 148.332 318.591 147.85 319.119 147.515C319.647 147.18 320.246 147.012 320.916 147.012ZM333.045 147.264L328.776 157H326.67L322.459 147.264H324.99L327.791 154.257L330.65 147.264H333.045ZM334.3 147.244H336.696V157H334.3V147.244ZM336.831 142.82V145.196H334.146V142.82H336.831ZM343.761 157.155C342.744 157.155 341.862 156.948 341.115 156.536C340.368 156.124 339.795 155.545 339.396 154.798C338.996 154.038 338.797 153.149 338.797 152.132C338.797 151.114 339.003 150.219 339.415 149.447C339.84 148.674 340.432 148.075 341.192 147.65C341.965 147.212 342.853 146.993 343.858 146.993C344.554 146.993 345.223 147.103 345.867 147.321C346.524 147.54 347.046 147.843 347.432 148.229L346.756 149.929C346.344 149.595 345.906 149.343 345.442 149.176C344.979 148.996 344.521 148.906 344.071 148.906C343.195 148.906 342.512 149.182 342.023 149.736C341.533 150.277 341.289 151.063 341.289 152.093C341.289 153.123 341.527 153.909 342.003 154.45C342.493 154.991 343.182 155.261 344.071 155.261C344.521 155.261 344.979 155.171 345.442 154.991C345.906 154.811 346.344 154.553 346.756 154.218L347.432 155.918C347.02 156.305 346.485 156.607 345.829 156.826C345.172 157.045 344.483 157.155 343.761 157.155ZM357.592 152.248H350.869C350.921 153.291 351.178 154.064 351.642 154.566C352.119 155.055 352.82 155.3 353.748 155.3C354.817 155.3 355.808 154.952 356.723 154.257L357.418 155.918C356.955 156.292 356.381 156.594 355.699 156.826C355.029 157.045 354.347 157.155 353.651 157.155C352.054 157.155 350.798 156.704 349.884 155.802C348.97 154.901 348.512 153.664 348.512 152.093C348.512 151.101 348.712 150.219 349.111 149.447C349.511 148.674 350.071 148.075 350.792 147.65C351.513 147.212 352.331 146.993 353.245 146.993C354.585 146.993 355.641 147.431 356.414 148.307C357.199 149.17 357.592 150.361 357.592 151.881V152.248ZM353.303 148.732C352.659 148.732 352.131 148.925 351.719 149.311C351.32 149.685 351.062 150.232 350.947 150.953H355.486C355.409 150.219 355.184 149.665 354.81 149.292C354.45 148.918 353.947 148.732 353.303 148.732ZM359.835 143.844C360.659 143.342 361.618 143.091 362.713 143.091C363.512 143.091 364.22 143.226 364.838 143.496C365.456 143.767 365.933 144.14 366.268 144.617C366.615 145.093 366.789 145.647 366.789 146.278C366.789 146.961 366.628 147.547 366.306 148.036C365.997 148.526 365.527 149.092 364.896 149.736C364.368 150.277 363.969 150.741 363.698 151.127C363.428 151.501 363.26 151.926 363.196 152.402L363.119 152.943H361.689V152.151C361.689 151.43 361.818 150.825 362.076 150.335C362.333 149.833 362.707 149.292 363.196 148.712C363.57 148.275 363.846 147.895 364.027 147.573C364.22 147.251 364.317 146.89 364.317 146.491C364.317 146.04 364.156 145.692 363.834 145.448C363.524 145.19 363.093 145.061 362.539 145.061C361.638 145.061 360.736 145.338 359.835 145.892V143.844ZM361.071 154.295H363.795V157H361.071V154.295Z" fill="black"/>
<g clip-path="url(#clip1)">
<g filter="url(#filter1_d)">
<rect x="50.8044" y="210.592" width="326.729" height="40.1228" rx="5.94412" fill="white"/>
<rect x="51.5475" y="211.335" width="325.243" height="38.6368" rx="5.2011" stroke="#D8DCE6" stroke-width="1.48603"/>
</g>
<path opacity="0.25" d="M76.263 224.325V237.022H74.9077V227.589L70.7885 237.022H69.7542L65.5992 227.66L65.6171 237.022H64.2618V224.325H65.4744L70.2891 235.274L75.0504 224.325H76.263ZM87.1163 228.052V237.022H85.6898V235.399C85.4282 235.958 85.03 236.392 84.495 236.701C83.9719 236.998 83.3597 237.147 82.6583 237.147C81.8617 237.147 81.1603 236.957 80.554 236.576C79.9596 236.196 79.496 235.661 79.1631 234.971C78.8421 234.27 78.6816 233.456 78.6816 232.528C78.6816 231.601 78.8481 230.787 79.1809 230.085C79.5138 229.372 79.9775 228.819 80.5719 228.427C81.1782 228.035 81.8736 227.838 82.6583 227.838C83.3597 227.838 83.9719 227.993 84.495 228.302C85.0181 228.611 85.4163 229.045 85.6898 229.604V228.052H87.1163ZM82.9436 235.952C83.8233 235.952 84.5009 235.655 84.9765 235.06C85.452 234.454 85.6898 233.598 85.6898 232.493C85.6898 231.387 85.452 230.537 84.9765 229.943C84.5009 229.348 83.8233 229.051 82.9436 229.051C82.0638 229.051 81.3743 229.36 80.875 229.978C80.3876 230.585 80.1439 231.435 80.1439 232.528C80.1439 233.622 80.3876 234.466 80.875 235.06C81.3624 235.655 82.052 235.952 82.9436 235.952ZM89.9091 228.052H91.3535V237.022H89.9091V228.052ZM91.5318 224.254V225.895H89.7664V224.254H91.5318ZM98.6341 227.838C100.786 227.838 101.862 229.021 101.862 231.387V237.022H100.417V231.458C100.417 230.626 100.251 230.02 99.918 229.639C99.5852 229.247 99.0621 229.051 98.3488 229.051C97.5166 229.051 96.8509 229.307 96.3516 229.818C95.8522 230.329 95.6026 231.018 95.6026 231.886V237.022H94.1582V230.567C94.1582 229.639 94.1106 228.801 94.0155 228.052H95.3886L95.5313 229.657C95.8047 229.075 96.2148 228.629 96.7617 228.32C97.3086 227.999 97.9327 227.838 98.6341 227.838ZM113.715 227.838C114.5 227.838 115.195 228.029 115.801 228.409C116.408 228.789 116.877 229.33 117.21 230.032C117.543 230.721 117.709 231.53 117.709 232.457C117.709 233.384 117.543 234.205 117.21 234.918C116.877 235.619 116.408 236.166 115.801 236.558C115.195 236.951 114.5 237.147 113.715 237.147C113.014 237.147 112.401 236.992 111.878 236.683C111.355 236.374 110.957 235.934 110.683 235.364V237.022H109.239V223.897H110.683V229.639C110.945 229.057 111.337 228.611 111.86 228.302C112.395 227.993 113.014 227.838 113.715 227.838ZM113.447 235.952C114.315 235.952 114.993 235.649 115.48 235.043C115.968 234.424 116.212 233.563 116.212 232.457C116.212 231.375 115.968 230.537 115.48 229.943C115.005 229.348 114.327 229.051 113.447 229.051C112.556 229.051 111.872 229.348 111.397 229.943C110.921 230.537 110.683 231.387 110.683 232.493C110.683 233.598 110.921 234.454 111.397 235.06C111.872 235.655 112.556 235.952 113.447 235.952ZM127.439 232.493H120.859C120.871 233.634 121.132 234.496 121.643 235.078C122.166 235.661 122.921 235.952 123.908 235.952C124.954 235.952 125.917 235.601 126.797 234.9L127.278 235.952C126.886 236.321 126.381 236.612 125.763 236.826C125.156 237.04 124.532 237.147 123.89 237.147C122.487 237.147 121.388 236.737 120.591 235.916C119.795 235.084 119.397 233.949 119.397 232.51C119.397 231.595 119.575 230.787 119.932 230.085C120.288 229.372 120.787 228.819 121.429 228.427C122.071 228.035 122.803 227.838 123.623 227.838C124.812 227.838 125.745 228.231 126.422 229.015C127.1 229.788 127.439 230.858 127.439 232.225V232.493ZM123.641 228.962C122.892 228.962 122.279 229.188 121.804 229.639C121.34 230.091 121.043 230.727 120.912 231.548H126.137C126.066 230.703 125.816 230.061 125.388 229.622C124.972 229.182 124.39 228.962 123.641 228.962ZM134.107 227.838C136.259 227.838 137.335 229.021 137.335 231.387V237.022H135.89V231.458C135.89 230.626 135.724 230.02 135.391 229.639C135.058 229.247 134.535 229.051 133.822 229.051C132.99 229.051 132.324 229.307 131.825 229.818C131.325 230.329 131.076 231.018 131.076 231.886V237.022H129.631V230.567C129.631 229.639 129.584 228.801 129.489 228.052H130.862L131.004 229.657C131.278 229.075 131.688 228.629 132.235 228.32C132.782 227.999 133.406 227.838 134.107 227.838ZM147.57 232.493H140.99C141.002 233.634 141.263 234.496 141.774 235.078C142.298 235.661 143.052 235.952 144.039 235.952C145.085 235.952 146.048 235.601 146.928 234.9L147.409 235.952C147.017 236.321 146.512 236.612 145.894 236.826C145.287 237.04 144.663 237.147 144.021 237.147C142.619 237.147 141.519 236.737 140.722 235.916C139.926 235.084 139.528 233.949 139.528 232.51C139.528 231.595 139.706 230.787 140.063 230.085C140.419 229.372 140.919 228.819 141.56 228.427C142.202 228.035 142.934 227.838 143.754 227.838C144.943 227.838 145.876 228.231 146.554 229.015C147.231 229.788 147.57 230.858 147.57 232.225V232.493ZM143.772 228.962C143.023 228.962 142.41 229.188 141.935 229.639C141.471 230.091 141.174 230.727 141.043 231.548H146.268C146.197 230.703 145.947 230.061 145.519 229.622C145.103 229.182 144.521 228.962 143.772 228.962ZM151.671 228.052H157.181V237.022H155.737V229.194H151.671V237.022H150.226V229.194H148.479V228.052H150.226V226.858C150.226 226.132 150.333 225.55 150.547 225.11C150.773 224.67 151.136 224.349 151.635 224.147C152.135 223.945 152.812 223.844 153.668 223.844H154.239V224.967H153.793C153.175 224.967 152.717 225.021 152.42 225.128C152.135 225.235 151.938 225.443 151.831 225.752C151.724 226.049 151.671 226.513 151.671 227.143V228.052ZM157.359 224.165V225.841H155.558V224.165H157.359ZM161.893 229.194V234.098C161.893 234.763 162.03 235.233 162.303 235.506C162.577 235.768 162.963 235.899 163.462 235.899C163.795 235.899 164.116 235.845 164.425 235.738V236.969C164.057 237.087 163.641 237.147 163.177 237.147C162.321 237.147 161.649 236.909 161.162 236.434C160.686 235.946 160.449 235.233 160.449 234.294V229.194H158.701V228.052H160.449V225.752L161.893 225.235V228.052H164.461V229.194H161.893ZM168.032 235.185V237.022H166.196V235.185H168.032ZM172.16 235.185V237.022H170.323V235.185H172.16ZM176.287 235.185V237.022H174.45V235.185H176.287Z" fill="black"/>
</g>
</g>
<defs>
<filter id="filter0_d" x="-4" y="-2" width="438" height="373" filterUnits="userSpaceOnUse" color-interpolation-filters="sRGB">
<feFlood flood-opacity="0" result="BackgroundImageFix"/>
<feColorMatrix in="SourceAlpha" type="matrix" values="0 0 0 0 0 0 0 0 0 0 0 0 0 0 0 0 0 0 127 0"/>
<feOffset dy="2"/>
<feGaussianBlur stdDeviation="2"/>
<feColorMatrix type="matrix" values="0 0 0 0 0 0 0 0 0 0 0 0 0 0 0 0 0 0 0.04 0"/>
<feBlend mode="normal" in2="BackgroundImageFix" result="effect1_dropShadow"/>
<feBlend mode="normal" in="SourceGraphic" in2="effect1_dropShadow" result="shape"/>
</filter>
<filter id="filter1_d" x="44.8603" y="207.62" width="338.617" height="52.011" filterUnits="userSpaceOnUse" color-interpolation-filters="sRGB">
<feFlood flood-opacity="0" result="BackgroundImageFix"/>
<feColorMatrix in="SourceAlpha" type="matrix" values="0 0 0 0 0 0 0 0 0 0 0 0 0 0 0 0 0 0 127 0"/>
<feOffset dy="2.97206"/>
<feGaussianBlur stdDeviation="2.97206"/>
<feColorMatrix type="matrix" values="0 0 0 0 0 0 0 0 0 0 0 0 0 0 0 0 0 0 0.04 0"/>
<feBlend mode="normal" in2="BackgroundImageFix" result="effect1_dropShadow"/>
<feBlend mode="normal" in="SourceGraphic" in2="effect1_dropShadow" result="shape"/>
</filter>
<clipPath id="clip0">
<rect width="430" height="365" fill="white"/>
</clipPath>
<clipPath id="clip1">
<rect width="326.927" height="40.1228" fill="white" transform="translate(50.8044 210.592)"/>
</clipPath>
</defs>
</svg>
