<svg width="573" height="490" viewBox="0 0 573 490" fill="none" xmlns="http://www.w3.org/2000/svg">
<rect width="573" height="490" rx="4" fill="#F4F8FB"/>
<circle cx="440" cy="422" r="7.5" stroke="white" stroke-linecap="round" stroke-linejoin="round"/>
<circle cx="437" cy="420" r="1" fill="white"/>
<circle cx="443" cy="420" r="1" fill="white"/>
<path fill-rule="evenodd" clip-rule="evenodd" d="M437.55 423.5C437.517 423.665 437.5 423.832 437.5 424C437.5 425.381 438.619 426.5 440 426.5C441.381 426.5 442.5 425.381 442.5 424C442.5 423.832 442.483 423.665 442.45 423.5H437.55Z" stroke="white" stroke-linecap="round" stroke-linejoin="round"/>
<rect x="40" y="364" width="10" height="10" rx="2" fill="#25AD75"/>
<path d="M65.2729 373V364.456H70.6729V365.272H66.2449V368.248H70.4329V369.076H66.2449V372.184H70.6729V373H65.2729ZM76.3836 373L74.4756 370.624L73.9116 369.892L71.5476 366.964H72.7236L74.4756 369.184L75.0636 369.892L77.5476 373H76.3836ZM72.5916 373H71.4036L73.9116 369.892L74.4756 369.184L76.2276 366.964H77.4156L75.0636 369.892L74.4756 370.624L72.5916 373ZM81.0443 373.084C80.4523 373.084 79.9403 372.956 79.5083 372.7C79.0763 372.444 78.7403 372.084 78.5003 371.62C78.2683 371.156 78.1523 370.608 78.1523 369.976C78.1523 369.352 78.2723 368.804 78.5123 368.332C78.7523 367.852 79.0923 367.48 79.5323 367.216C79.9723 366.952 80.4923 366.82 81.0923 366.82C81.5003 366.82 81.8923 366.892 82.2683 367.036C82.6523 367.172 82.9683 367.364 83.2163 367.612L82.8923 368.332C82.5963 368.1 82.3043 367.928 82.0163 367.816C81.7363 367.696 81.4443 367.636 81.1403 367.636C80.5323 367.636 80.0483 367.84 79.6883 368.248C79.3363 368.656 79.1603 369.232 79.1603 369.976C79.1603 370.712 79.3363 371.28 79.6883 371.68C80.0403 372.08 80.5243 372.28 81.1403 372.28C81.4363 372.28 81.7283 372.224 82.0163 372.112C82.3043 371.992 82.5963 371.816 82.8923 371.584L83.2163 372.304C82.9603 372.544 82.6363 372.736 82.2443 372.88C81.8603 373.016 81.4603 373.084 81.0443 373.084ZM84.4537 373V366.964H85.4257V373H84.4537ZM84.3577 364.408H85.5457V365.512H84.3577V364.408ZM86.4611 367.732V366.964H90.3371V367.732H86.4611ZM90.3131 372.136V372.964C90.1771 373.004 90.0411 373.032 89.9051 373.048C89.7771 373.072 89.6331 373.084 89.4731 373.084C88.9131 373.084 88.4651 372.924 88.1291 372.604C87.8011 372.284 87.6371 371.804 87.6371 371.164V365.416L88.6091 365.068V371.032C88.6091 371.352 88.6531 371.6 88.7411 371.776C88.8371 371.952 88.9651 372.076 89.1251 372.148C89.2851 372.212 89.4651 372.244 89.6651 372.244C89.7851 372.244 89.8931 372.236 89.9891 372.22C90.0851 372.204 90.1931 372.176 90.3131 372.136ZM96.4524 372.28C96.1884 372.528 95.8484 372.724 95.4324 372.868C95.0244 373.012 94.6044 373.084 94.1724 373.084C93.5484 373.084 93.0084 372.96 92.5524 372.712C92.1044 372.464 91.7564 372.108 91.5084 371.644C91.2684 371.172 91.1484 370.612 91.1484 369.964C91.1484 369.34 91.2684 368.792 91.5084 368.32C91.7484 367.848 92.0804 367.48 92.5044 367.216C92.9364 366.952 93.4324 366.82 93.9924 366.82C94.5284 366.82 94.9884 366.94 95.3724 367.18C95.7564 367.412 96.0484 367.748 96.2484 368.188C96.4564 368.628 96.5604 369.156 96.5604 369.772V369.952H92.0004V369.316H96.0084L95.6964 369.76C95.7124 369.056 95.5724 368.516 95.2764 368.14C94.9884 367.764 94.5644 367.576 94.0044 367.576C93.4204 367.576 92.9604 367.784 92.6244 368.2C92.2964 368.608 92.1324 369.176 92.1324 369.904C92.1324 370.688 92.3044 371.28 92.6484 371.68C93.0004 372.08 93.5124 372.28 94.1844 372.28C94.5364 372.28 94.8724 372.224 95.1924 372.112C95.5204 371.992 95.8324 371.812 96.1284 371.572L96.4524 372.28ZM103.352 373H102.392V371.38L102.536 371.512C102.4 372.016 102.14 372.404 101.756 372.676C101.372 372.948 100.904 373.084 100.352 373.084C99.8237 373.084 99.3557 372.956 98.9477 372.7C98.5477 372.436 98.2357 372.068 98.0117 371.596C97.7877 371.116 97.6757 370.56 97.6757 369.928C97.6757 369.296 97.7837 368.748 97.9997 368.284C98.2237 367.82 98.5357 367.46 98.9357 367.204C99.3437 366.948 99.8157 366.82 100.352 366.82C100.904 366.82 101.372 366.96 101.756 367.24C102.14 367.512 102.4 367.896 102.536 368.392L102.38 368.512V364.168H103.352V373ZM100.544 372.28C101.128 372.28 101.58 372.08 101.9 371.68C102.228 371.272 102.392 370.696 102.392 369.952C102.392 369.216 102.232 368.648 101.912 368.248C101.592 367.84 101.136 367.636 100.544 367.636C99.9517 367.636 99.4877 367.836 99.1517 368.236C98.8237 368.636 98.6597 369.2 98.6597 369.928C98.6597 370.672 98.8237 371.252 99.1517 371.668C99.4877 372.076 99.9517 372.28 100.544 372.28Z" fill="#333333"/>
<rect x="261" y="364" width="10" height="10" rx="2" fill="#9DC2D4"/>
<path d="M302.165 373.096C301.365 373.096 300.673 372.92 300.089 372.568C299.513 372.216 299.065 371.712 298.745 371.056C298.433 370.4 298.277 369.624 298.277 368.728C298.277 367.824 298.433 367.048 298.745 366.4C299.057 365.744 299.501 365.24 300.077 364.888C300.661 364.536 301.357 364.36 302.165 364.36C302.965 364.36 303.657 364.536 304.241 364.888C304.825 365.24 305.273 365.744 305.585 366.4C305.897 367.048 306.053 367.82 306.053 368.716C306.053 369.62 305.893 370.4 305.573 371.056C305.261 371.712 304.813 372.216 304.229 372.568C303.653 372.92 302.965 373.096 302.165 373.096ZM302.165 372.256C303.069 372.256 303.773 371.952 304.277 371.344C304.781 370.728 305.033 369.852 305.033 368.716C305.033 367.58 304.781 366.712 304.277 366.112C303.773 365.504 303.069 365.2 302.165 365.2C301.261 365.2 300.553 365.504 300.041 366.112C299.537 366.72 299.285 367.588 299.285 368.716C299.285 369.844 299.537 370.716 300.041 371.332C300.553 371.948 301.261 372.256 302.165 372.256ZM311.807 373L308.519 369.916L311.555 366.976H312.791L309.431 370.192L309.467 369.58L313.079 373H311.807ZM307.739 373V364.168H308.711V373H307.739Z" fill="black"/>
<rect x="153" y="364" width="10" height="10" rx="2" fill="#7CE0AD"/>
<path d="M187.238 373.096C186.382 373.096 185.646 372.924 185.03 372.58C184.422 372.228 183.954 371.728 183.626 371.08C183.306 370.424 183.146 369.636 183.146 368.716C183.146 367.804 183.306 367.024 183.626 366.376C183.954 365.72 184.418 365.22 185.018 364.876C185.626 364.532 186.342 364.36 187.166 364.36C187.758 364.36 188.302 364.452 188.798 364.636C189.302 364.812 189.738 365.08 190.106 365.44L189.722 366.196C189.306 365.844 188.898 365.592 188.498 365.44C188.098 365.28 187.654 365.2 187.166 365.2C186.198 365.2 185.454 365.504 184.934 366.112C184.422 366.712 184.166 367.58 184.166 368.716C184.166 369.876 184.43 370.76 184.958 371.368C185.486 371.968 186.254 372.268 187.262 372.268C187.678 372.268 188.082 372.232 188.474 372.16C188.874 372.08 189.234 371.976 189.554 371.848L189.314 372.352V369.328H187.19V368.548H190.214V372.508C189.99 372.628 189.714 372.732 189.386 372.82C189.066 372.908 188.718 372.976 188.342 373.024C187.974 373.072 187.606 373.096 187.238 373.096ZM194.612 373.084C194.036 373.084 193.532 372.956 193.1 372.7C192.676 372.444 192.344 372.084 192.104 371.62C191.872 371.148 191.756 370.592 191.756 369.952C191.756 369.32 191.872 368.768 192.104 368.296C192.344 367.824 192.676 367.46 193.1 367.204C193.532 366.948 194.036 366.82 194.612 366.82C195.188 366.82 195.688 366.948 196.112 367.204C196.544 367.46 196.876 367.824 197.108 368.296C197.348 368.768 197.468 369.32 197.468 369.952C197.468 370.592 197.348 371.148 197.108 371.62C196.876 372.084 196.544 372.444 196.112 372.7C195.688 372.956 195.188 373.084 194.612 373.084ZM194.612 372.28C195.204 372.28 195.66 372.084 195.98 371.692C196.308 371.292 196.472 370.712 196.472 369.952C196.472 369.208 196.308 368.636 195.98 368.236C195.652 367.836 195.196 367.636 194.612 367.636C194.028 367.636 193.568 367.836 193.232 368.236C192.904 368.636 192.74 369.208 192.74 369.952C192.74 370.712 192.9 371.292 193.22 371.692C193.548 372.084 194.012 372.28 194.612 372.28ZM201.479 373.084C200.903 373.084 200.399 372.956 199.967 372.7C199.543 372.444 199.211 372.084 198.971 371.62C198.739 371.148 198.623 370.592 198.623 369.952C198.623 369.32 198.739 368.768 198.971 368.296C199.211 367.824 199.543 367.46 199.967 367.204C200.399 366.948 200.903 366.82 201.479 366.82C202.055 366.82 202.555 366.948 202.979 367.204C203.411 367.46 203.743 367.824 203.975 368.296C204.215 368.768 204.335 369.32 204.335 369.952C204.335 370.592 204.215 371.148 203.975 371.62C203.743 372.084 203.411 372.444 202.979 372.7C202.555 372.956 202.055 373.084 201.479 373.084ZM201.479 372.28C202.071 372.28 202.527 372.084 202.847 371.692C203.175 371.292 203.339 370.712 203.339 369.952C203.339 369.208 203.175 368.636 202.847 368.236C202.519 367.836 202.063 367.636 201.479 367.636C200.895 367.636 200.435 367.836 200.099 368.236C199.771 368.636 199.607 369.208 199.607 369.952C199.607 370.712 199.767 371.292 200.087 371.692C200.415 372.084 200.879 372.28 201.479 372.28ZM211.166 373H210.206V371.38L210.35 371.512C210.214 372.016 209.954 372.404 209.57 372.676C209.186 372.948 208.718 373.084 208.166 373.084C207.638 373.084 207.17 372.956 206.762 372.7C206.362 372.436 206.05 372.068 205.826 371.596C205.602 371.116 205.49 370.56 205.49 369.928C205.49 369.296 205.598 368.748 205.814 368.284C206.038 367.82 206.35 367.46 206.75 367.204C207.158 366.948 207.63 366.82 208.166 366.82C208.718 366.82 209.186 366.96 209.57 367.24C209.954 367.512 210.214 367.896 210.35 368.392L210.194 368.512V364.168H211.166V373ZM208.358 372.28C208.942 372.28 209.394 372.08 209.714 371.68C210.042 371.272 210.206 370.696 210.206 369.952C210.206 369.216 210.046 368.648 209.726 368.248C209.406 367.84 208.95 367.636 208.358 367.636C207.766 367.636 207.302 367.836 206.966 368.236C206.638 368.636 206.474 369.2 206.474 369.928C206.474 370.672 206.638 371.252 206.966 371.668C207.302 372.076 207.766 372.28 208.358 372.28Z" fill="black"/>
<path d="M40 410.305C40 409.743 40.4553 409.288 41.017 409.288H289.678V433.696C289.678 434.258 289.222 434.713 288.661 434.713H41.017C40.4553 434.713 40 434.258 40 433.696V410.305Z" fill="#25AD75"/>
<path fill-rule="evenodd" clip-rule="evenodd" d="M447.315 409.287V434.713H289.678V409.287H447.315Z" fill="#65D1A4"/>
<path fill-rule="evenodd" clip-rule="evenodd" d="M548 409.287V434.713H447.315V409.287H548Z" fill="#9DC2D4"/>
<path d="M159.577 421.184C159.895 421.184 160.175 421.253 160.417 421.391C160.659 421.523 160.846 421.713 160.979 421.96C161.112 422.202 161.179 422.482 161.179 422.8C161.179 423.132 161.103 423.427 160.951 423.683C160.799 423.934 160.581 424.131 160.296 424.274C160.011 424.411 159.681 424.48 159.306 424.48C158.988 424.48 158.675 424.428 158.366 424.324C158.058 424.215 157.804 424.07 157.605 423.889L157.911 423.22C158.371 423.571 158.841 423.747 159.32 423.747C159.638 423.747 159.88 423.669 160.047 423.512C160.217 423.351 160.303 423.123 160.303 422.829C160.303 422.549 160.215 422.326 160.039 422.159C159.869 421.989 159.638 421.903 159.349 421.903C159.15 421.903 158.962 421.941 158.786 422.017C158.611 422.088 158.457 422.195 158.324 422.337H157.768V419.355H160.944V420.066H158.665V421.448C158.922 421.272 159.225 421.184 159.577 421.184ZM163.575 424.487C162.972 424.487 162.512 424.267 162.194 423.825C161.881 423.379 161.724 422.731 161.724 421.882C161.724 421.047 161.881 420.408 162.194 419.967C162.512 419.525 162.972 419.305 163.575 419.305C164.178 419.305 164.636 419.525 164.949 419.967C165.267 420.403 165.426 421.042 165.426 421.882C165.426 422.727 165.267 423.372 164.949 423.818C164.636 424.264 164.178 424.487 163.575 424.487ZM163.575 423.768C163.902 423.768 164.14 423.619 164.287 423.32C164.439 423.016 164.515 422.537 164.515 421.882C164.515 421.236 164.439 420.766 164.287 420.472C164.14 420.173 163.902 420.024 163.575 420.024C163.247 420.024 163.008 420.173 162.856 420.472C162.709 420.766 162.635 421.236 162.635 421.882C162.635 422.537 162.709 423.016 162.856 423.32C163.008 423.619 163.247 423.768 163.575 423.768ZM167.295 422.38C166.897 422.38 166.583 422.25 166.356 421.989C166.133 421.723 166.021 421.336 166.021 420.828C166.021 420.325 166.133 419.943 166.356 419.682C166.583 419.416 166.897 419.283 167.295 419.283C167.699 419.283 168.014 419.416 168.242 419.682C168.47 419.943 168.584 420.325 168.584 420.828C168.584 421.336 168.47 421.723 168.242 421.989C168.014 422.25 167.699 422.38 167.295 422.38ZM167.246 424.423L170.179 419.355H170.969L168.029 424.423H167.246ZM167.295 421.804C167.48 421.804 167.616 421.728 167.701 421.576C167.787 421.424 167.829 421.175 167.829 420.828C167.829 420.491 167.784 420.247 167.694 420.095C167.609 419.938 167.476 419.86 167.295 419.86C167.12 419.86 166.989 419.938 166.904 420.095C166.818 420.247 166.776 420.491 166.776 420.828C166.776 421.17 166.818 421.419 166.904 421.576C166.989 421.728 167.12 421.804 167.295 421.804ZM170.912 424.473C170.508 424.473 170.193 424.343 169.965 424.082C169.742 423.816 169.63 423.427 169.63 422.914C169.63 422.411 169.742 422.029 169.965 421.768C170.193 421.507 170.508 421.376 170.912 421.376C171.315 421.376 171.629 421.507 171.852 421.768C172.079 422.029 172.193 422.413 172.193 422.921C172.193 423.429 172.079 423.816 171.852 424.082C171.629 424.343 171.315 424.473 170.912 424.473ZM170.912 423.897C171.092 423.897 171.225 423.821 171.311 423.669C171.396 423.512 171.439 423.263 171.439 422.921C171.439 422.584 171.394 422.34 171.303 422.188C171.218 422.031 171.088 421.953 170.912 421.953C170.732 421.953 170.599 422.031 170.513 422.188C170.428 422.34 170.385 422.584 170.385 422.921C170.385 423.263 170.428 423.512 170.513 423.669C170.599 423.821 170.732 423.897 170.912 423.897Z" fill="white"/>
<path d="M363.747 421.818C364.046 421.898 364.274 422.046 364.43 422.259C364.592 422.473 364.672 422.736 364.672 423.049C364.672 423.491 364.509 423.84 364.181 424.096C363.859 424.352 363.422 424.48 362.871 424.48C362.53 424.48 362.2 424.428 361.882 424.324C361.569 424.219 361.31 424.075 361.106 423.889L361.419 423.22C361.87 423.571 362.342 423.747 362.836 423.747C363.158 423.747 363.398 423.683 363.555 423.555C363.716 423.427 363.797 423.232 363.797 422.971C363.797 422.715 363.716 422.527 363.555 422.409C363.393 422.285 363.144 422.224 362.807 422.224H362.138V421.49H362.686C363.341 421.49 363.669 421.241 363.669 420.743C363.669 420.51 363.597 420.332 363.455 420.209C363.313 420.085 363.113 420.024 362.857 420.024C362.401 420.024 361.946 420.199 361.49 420.551L361.184 419.881C361.388 419.701 361.644 419.559 361.953 419.454C362.266 419.345 362.587 419.29 362.914 419.29C363.412 419.29 363.809 419.414 364.103 419.661C364.402 419.903 364.551 420.228 364.551 420.636C364.547 420.916 364.473 421.16 364.331 421.369C364.193 421.573 363.999 421.723 363.747 421.818ZM367.233 424.487C366.63 424.487 366.169 424.267 365.851 423.825C365.538 423.379 365.382 422.731 365.382 421.882C365.382 421.047 365.538 420.408 365.851 419.967C366.169 419.525 366.63 419.305 367.233 419.305C367.835 419.305 368.293 419.525 368.607 419.967C368.925 420.403 369.084 421.042 369.084 421.882C369.084 422.727 368.925 423.372 368.607 423.818C368.293 424.264 367.835 424.487 367.233 424.487ZM367.233 423.768C367.56 423.768 367.797 423.619 367.944 423.32C368.096 423.016 368.172 422.537 368.172 421.882C368.172 421.236 368.096 420.766 367.944 420.472C367.797 420.173 367.56 420.024 367.233 420.024C366.905 420.024 366.665 420.173 366.514 420.472C366.366 420.766 366.293 421.236 366.293 421.882C366.293 422.537 366.366 423.016 366.514 423.32C366.665 423.619 366.905 423.768 367.233 423.768ZM370.953 422.38C370.554 422.38 370.241 422.25 370.013 421.989C369.79 421.723 369.679 421.336 369.679 420.828C369.679 420.325 369.79 419.943 370.013 419.682C370.241 419.416 370.554 419.283 370.953 419.283C371.357 419.283 371.672 419.416 371.9 419.682C372.128 419.943 372.242 420.325 372.242 420.828C372.242 421.336 372.128 421.723 371.9 421.989C371.672 422.25 371.357 422.38 370.953 422.38ZM370.903 424.423L373.836 419.355H374.627L371.686 424.423H370.903ZM370.953 421.804C371.138 421.804 371.273 421.728 371.359 421.576C371.444 421.424 371.487 421.175 371.487 420.828C371.487 420.491 371.442 420.247 371.352 420.095C371.266 419.938 371.133 419.86 370.953 419.86C370.777 419.86 370.647 419.938 370.562 420.095C370.476 420.247 370.433 420.491 370.433 420.828C370.433 421.17 370.476 421.419 370.562 421.576C370.647 421.728 370.777 421.804 370.953 421.804ZM374.57 424.473C374.166 424.473 373.851 424.343 373.623 424.082C373.4 423.816 373.288 423.427 373.288 422.914C373.288 422.411 373.4 422.029 373.623 421.768C373.851 421.507 374.166 421.376 374.57 421.376C374.973 421.376 375.286 421.507 375.509 421.768C375.737 422.029 375.851 422.413 375.851 422.921C375.851 423.429 375.737 423.816 375.509 424.082C375.286 424.343 374.973 424.473 374.57 424.473ZM374.57 423.897C374.75 423.897 374.883 423.821 374.968 423.669C375.054 423.512 375.096 423.263 375.096 422.921C375.096 422.584 375.051 422.34 374.961 422.188C374.876 422.031 374.745 421.953 374.57 421.953C374.389 421.953 374.256 422.031 374.171 422.188C374.086 422.34 374.043 422.584 374.043 422.921C374.043 423.263 374.086 423.512 374.171 423.669C374.256 423.821 374.389 423.897 374.57 423.897Z" fill="white"/>
<path d="M493.64 423.676V424.423H490.237V423.747L491.96 421.889C492.164 421.666 492.313 421.462 492.408 421.277C492.503 421.092 492.551 420.909 492.551 420.729C492.551 420.496 492.482 420.32 492.344 420.202C492.211 420.083 492.019 420.024 491.768 420.024C491.321 420.024 490.863 420.199 490.394 420.551L490.087 419.881C490.287 419.701 490.543 419.559 490.856 419.454C491.17 419.345 491.485 419.29 491.803 419.29C492.311 419.29 492.712 419.416 493.006 419.668C493.305 419.915 493.455 420.249 493.455 420.672C493.455 420.961 493.391 421.234 493.263 421.49C493.139 421.747 492.93 422.034 492.636 422.352L491.39 423.676H493.64ZM496.143 424.487C495.54 424.487 495.08 424.267 494.762 423.825C494.449 423.379 494.292 422.731 494.292 421.882C494.292 421.047 494.449 420.408 494.762 419.967C495.08 419.525 495.54 419.305 496.143 419.305C496.746 419.305 497.204 419.525 497.517 419.967C497.835 420.403 497.994 421.042 497.994 421.882C497.994 422.727 497.835 423.372 497.517 423.818C497.204 424.264 496.746 424.487 496.143 424.487ZM496.143 423.768C496.47 423.768 496.708 423.619 496.855 423.32C497.007 423.016 497.083 422.537 497.083 421.882C497.083 421.236 497.007 420.766 496.855 420.472C496.708 420.173 496.47 420.024 496.143 420.024C495.815 420.024 495.576 420.173 495.424 420.472C495.277 420.766 495.203 421.236 495.203 421.882C495.203 422.537 495.277 423.016 495.424 423.32C495.576 423.619 495.815 423.768 496.143 423.768ZM499.863 422.38C499.465 422.38 499.152 422.25 498.924 421.989C498.701 421.723 498.589 421.336 498.589 420.828C498.589 420.325 498.701 419.943 498.924 419.682C499.152 419.416 499.465 419.283 499.863 419.283C500.267 419.283 500.582 419.416 500.81 419.682C501.038 419.943 501.152 420.325 501.152 420.828C501.152 421.336 501.038 421.723 500.81 421.989C500.582 422.25 500.267 422.38 499.863 422.38ZM499.814 424.423L502.747 419.355H503.537L500.597 424.423H499.814ZM499.863 421.804C500.049 421.804 500.184 421.728 500.269 421.576C500.355 421.424 500.397 421.175 500.397 420.828C500.397 420.491 500.352 420.247 500.262 420.095C500.177 419.938 500.044 419.86 499.863 419.86C499.688 419.86 499.557 419.938 499.472 420.095C499.386 420.247 499.344 420.491 499.344 420.828C499.344 421.17 499.386 421.419 499.472 421.576C499.557 421.728 499.688 421.804 499.863 421.804ZM503.48 424.473C503.077 424.473 502.761 424.343 502.533 424.082C502.31 423.816 502.199 423.427 502.199 422.914C502.199 422.411 502.31 422.029 502.533 421.768C502.761 421.507 503.077 421.376 503.48 421.376C503.883 421.376 504.197 421.507 504.42 421.768C504.647 422.029 504.761 422.413 504.761 422.921C504.761 423.429 504.647 423.816 504.42 424.082C504.197 424.343 503.883 424.473 503.48 424.473ZM503.48 423.897C503.66 423.897 503.793 423.821 503.879 423.669C503.964 423.512 504.007 423.263 504.007 422.921C504.007 422.584 503.962 422.34 503.872 422.188C503.786 422.031 503.656 421.953 503.48 421.953C503.3 421.953 503.167 422.031 503.081 422.188C502.996 422.34 502.953 422.584 502.953 422.921C502.953 423.263 502.996 423.512 503.081 423.669C503.167 423.821 503.3 423.897 503.48 423.897Z" fill="white"/>
<g filter="url(#filter0_d)">
<path fill-rule="evenodd" clip-rule="evenodd" d="M28 28C28 25.7909 29.7909 24 32 24H544C546.209 24 548 25.7909 548 28V314C548 316.209 546.209 318 544 318H32C29.7909 318 28 316.209 28 314V28Z" fill="white"/>
<path d="M28.5 28C28.5 26.067 30.067 24.5 32 24.5H544C545.933 24.5 547.5 26.067 547.5 28V314C547.5 315.933 545.933 317.5 544 317.5H32C30.067 317.5 28.5 315.933 28.5 314V28Z" stroke="#EAEDF3"/>
</g>
<path fill-rule="evenodd" clip-rule="evenodd" d="M28 24H548V98H28V24Z" fill="white" fill-opacity="0.01"/>
<path d="M59.54 52.76H68.84V54.82H62.1V58.72H68.44V60.8H62.1V67H59.54V52.76ZM79.45 62.08H72.49C72.5433 63.16 72.81 63.96 73.29 64.48C73.7833 64.9867 74.51 65.24 75.47 65.24C76.5767 65.24 77.6033 64.88 78.55 64.16L79.27 65.88C78.79 66.2667 78.1967 66.58 77.49 66.82C76.7967 67.0467 76.09 67.16 75.37 67.16C73.7167 67.16 72.4167 66.6933 71.47 65.76C70.5233 64.8267 70.05 63.5467 70.05 61.92C70.05 60.8933 70.2567 59.98 70.67 59.18C71.0833 58.38 71.6633 57.76 72.41 57.32C73.1567 56.8667 74.0033 56.64 74.95 56.64C76.3367 56.64 77.43 57.0933 78.23 58C79.0433 58.8933 79.45 60.1267 79.45 61.7V62.08ZM75.01 58.44C74.3433 58.44 73.7967 58.64 73.37 59.04C72.9567 59.4267 72.69 59.9933 72.57 60.74H77.27C77.19 59.98 76.9567 59.4067 76.57 59.02C76.1967 58.6333 75.6767 58.44 75.01 58.44ZM90.407 62.08H83.447C83.5004 63.16 83.767 63.96 84.247 64.48C84.7404 64.9867 85.467 65.24 86.427 65.24C87.5337 65.24 88.5604 64.88 89.507 64.16L90.227 65.88C89.747 66.2667 89.1537 66.58 88.447 66.82C87.7537 67.0467 87.047 67.16 86.327 67.16C84.6737 67.16 83.3737 66.6933 82.427 65.76C81.4804 64.8267 81.007 63.5467 81.007 61.92C81.007 60.8933 81.2137 59.98 81.627 59.18C82.0404 58.38 82.6204 57.76 83.367 57.32C84.1137 56.8667 84.9604 56.64 85.907 56.64C87.2937 56.64 88.387 57.0933 89.187 58C90.0004 58.8933 90.407 60.1267 90.407 61.7V62.08ZM85.967 58.44C85.3004 58.44 84.7537 58.64 84.327 59.04C83.9137 59.4267 83.647 59.9933 83.527 60.74H88.227C88.147 59.98 87.9137 59.4067 87.527 59.02C87.1537 58.6333 86.6337 58.44 85.967 58.44ZM102.184 52.28V67H99.7241V65.38C99.4174 65.94 98.9774 66.38 98.4041 66.7C97.8307 67.0067 97.1774 67.16 96.4441 67.16C95.5774 67.16 94.8041 66.94 94.1241 66.5C93.4441 66.06 92.9107 65.44 92.5241 64.64C92.1507 63.8267 91.9641 62.9 91.9641 61.86C91.9641 60.82 92.1507 59.9067 92.5241 59.12C92.8974 58.3333 93.4241 57.7267 94.1041 57.3C94.7841 56.86 95.5641 56.64 96.4441 56.64C97.1641 56.64 97.8041 56.7933 98.3641 57.1C98.9374 57.3933 99.3774 57.8133 99.6841 58.36V52.28H102.184ZM97.1041 65.2C97.9307 65.2 98.5707 64.9133 99.0241 64.34C99.4907 63.7667 99.7241 62.9533 99.7241 61.9C99.7241 60.8467 99.4974 60.0333 99.0441 59.46C98.5907 58.8867 97.9507 58.6 97.1241 58.6C96.2841 58.6 95.6307 58.8867 95.1641 59.46C94.7107 60.02 94.4841 60.82 94.4841 61.86C94.4841 62.9133 94.7107 63.7333 95.1641 64.32C95.6307 64.9067 96.2774 65.2 97.1041 65.2ZM110.667 56.64C111.547 56.64 112.32 56.86 112.987 57.3C113.667 57.7267 114.194 58.3333 114.567 59.12C114.94 59.9067 115.127 60.82 115.127 61.86C115.127 62.9 114.934 63.8267 114.547 64.64C114.174 65.44 113.647 66.06 112.967 66.5C112.3 66.94 111.534 67.16 110.667 67.16C109.92 67.16 109.254 67 108.667 66.68C108.094 66.36 107.66 65.9133 107.367 65.34V67H104.907V52.28H107.387V58.42C107.694 57.86 108.134 57.4267 108.707 57.12C109.28 56.8 109.934 56.64 110.667 56.64ZM110.007 65.2C110.834 65.2 111.474 64.9067 111.927 64.32C112.38 63.7333 112.607 62.9133 112.607 61.86C112.607 60.82 112.38 60.02 111.927 59.46C111.474 58.8867 110.827 58.6 109.987 58.6C109.147 58.6 108.5 58.8867 108.047 59.46C107.594 60.0333 107.367 60.8467 107.367 61.9C107.367 62.9667 107.594 63.7867 108.047 64.36C108.5 64.92 109.154 65.2 110.007 65.2ZM126.969 56.9V67H124.509V65.38C124.203 65.94 123.763 66.38 123.189 66.7C122.616 67.0067 121.963 67.16 121.229 67.16C120.349 67.16 119.569 66.9467 118.889 66.52C118.209 66.0933 117.683 65.4867 117.309 64.7C116.936 63.9133 116.749 63 116.749 61.96C116.749 60.92 116.936 60 117.309 59.2C117.696 58.3867 118.229 57.76 118.909 57.32C119.589 56.8667 120.363 56.64 121.229 56.64C121.963 56.64 122.616 56.8 123.189 57.12C123.763 57.4267 124.203 57.86 124.509 58.42V56.9H126.969ZM121.909 65.2C122.736 65.2 123.376 64.9133 123.829 64.34C124.283 63.7667 124.509 62.96 124.509 61.92C124.509 60.8533 124.283 60.0333 123.829 59.46C123.376 58.8867 122.729 58.6 121.889 58.6C121.063 58.6 120.416 58.9 119.949 59.5C119.496 60.0867 119.269 60.9067 119.269 61.96C119.269 63 119.496 63.8 119.949 64.36C120.416 64.92 121.069 65.2 121.909 65.2ZM134.272 67.16C133.219 67.16 132.305 66.9467 131.532 66.52C130.759 66.0933 130.165 65.4933 129.752 64.72C129.339 63.9333 129.132 63.0133 129.132 61.96C129.132 60.9067 129.345 59.98 129.772 59.18C130.212 58.38 130.825 57.76 131.612 57.32C132.412 56.8667 133.332 56.64 134.372 56.64C135.092 56.64 135.785 56.7533 136.452 56.98C137.132 57.2067 137.672 57.52 138.072 57.92L137.372 59.68C136.945 59.3333 136.492 59.0733 136.012 58.9C135.532 58.7133 135.059 58.62 134.592 58.62C133.685 58.62 132.979 58.9067 132.472 59.48C131.965 60.04 131.712 60.8533 131.712 61.92C131.712 62.9867 131.959 63.8 132.452 64.36C132.959 64.92 133.672 65.2 134.592 65.2C135.059 65.2 135.532 65.1067 136.012 64.92C136.492 64.7333 136.945 64.4667 137.372 64.12L138.072 65.88C137.645 66.28 137.092 66.5933 136.412 66.82C135.732 67.0467 135.019 67.16 134.272 67.16ZM146.651 67L142.231 62.34V67H139.751V52.28H142.231V61.36L146.391 56.92H149.411L144.871 61.74L149.771 67H146.651ZM168.155 67H165.435L163.615 62.26C163.455 61.82 163.208 61.5133 162.875 61.34C162.541 61.1667 162.108 61.08 161.575 61.08H158.995V67H156.435V52.76H162.535C164.148 52.76 165.375 53.1133 166.215 53.82C167.055 54.5267 167.475 55.54 167.475 56.86C167.475 57.8067 167.221 58.6133 166.715 59.28C166.221 59.9333 165.515 60.4 164.595 60.68C165.435 60.8533 166.041 61.44 166.415 62.44L168.155 67ZM162.175 59.08C163.148 59.08 163.868 58.9 164.335 58.54C164.801 58.18 165.035 57.6333 165.035 56.9C165.035 56.18 164.801 55.6467 164.335 55.3C163.881 54.94 163.161 54.76 162.175 54.76H158.955V59.08H162.175ZM179.138 62.08H172.178C172.231 63.16 172.498 63.96 172.978 64.48C173.471 64.9867 174.198 65.24 175.158 65.24C176.264 65.24 177.291 64.88 178.238 64.16L178.958 65.88C178.478 66.2667 177.884 66.58 177.178 66.82C176.484 67.0467 175.778 67.16 175.058 67.16C173.404 67.16 172.104 66.6933 171.158 65.76C170.211 64.8267 169.738 63.5467 169.738 61.92C169.738 60.8933 169.944 59.98 170.358 59.18C170.771 58.38 171.351 57.76 172.098 57.32C172.844 56.8667 173.691 56.64 174.638 56.64C176.024 56.64 177.118 57.0933 177.918 58C178.731 58.8933 179.138 60.1267 179.138 61.7V62.08ZM174.698 58.44C174.031 58.44 173.484 58.64 173.058 59.04C172.644 59.4267 172.378 59.9933 172.258 60.74H176.958C176.878 59.98 176.644 59.4067 176.258 59.02C175.884 58.6333 175.364 58.44 174.698 58.44ZM184.955 67.16C183.128 67.16 181.675 66.7333 180.595 65.88L181.295 64.12C182.375 64.92 183.608 65.32 184.995 65.32C185.595 65.32 186.055 65.22 186.375 65.02C186.708 64.82 186.875 64.54 186.875 64.18C186.875 63.8733 186.761 63.6333 186.535 63.46C186.308 63.2733 185.921 63.1133 185.375 62.98L183.695 62.6C181.855 62.2 180.935 61.26 180.935 59.78C180.935 59.1667 181.108 58.6267 181.455 58.16C181.801 57.68 182.288 57.3067 182.915 57.04C183.541 56.7733 184.268 56.64 185.095 56.64C185.815 56.64 186.508 56.7533 187.175 56.98C187.841 57.1933 188.428 57.5067 188.935 57.92L188.195 59.62C187.181 58.8733 186.141 58.5 185.075 58.5C184.501 58.5 184.055 58.6067 183.735 58.82C183.415 59.0333 183.255 59.3267 183.255 59.7C183.255 59.9933 183.348 60.2267 183.535 60.4C183.735 60.5733 184.068 60.72 184.535 60.84L186.255 61.22C187.255 61.4467 187.981 61.8 188.435 62.28C188.901 62.7467 189.135 63.36 189.135 64.12C189.135 65.0533 188.761 65.7933 188.015 66.34C187.268 66.8867 186.248 67.16 184.955 67.16ZM197.034 56.64C197.901 56.64 198.667 56.8667 199.334 57.32C200.014 57.76 200.541 58.3867 200.914 59.2C201.301 60 201.494 60.92 201.494 61.96C201.494 63 201.307 63.9133 200.934 64.7C200.561 65.4867 200.034 66.0933 199.354 66.52C198.687 66.9467 197.914 67.16 197.034 67.16C196.301 67.16 195.647 67.0067 195.074 66.7C194.501 66.38 194.061 65.94 193.754 65.38V71.32H191.274V59.76C191.274 58.6933 191.221 57.74 191.114 56.9H193.454L193.654 58.64C193.921 58.0133 194.354 57.5267 194.954 57.18C195.554 56.82 196.247 56.64 197.034 56.64ZM196.354 65.2C197.194 65.2 197.841 64.92 198.294 64.36C198.747 63.8 198.974 63 198.974 61.96C198.974 60.9067 198.747 60.0867 198.294 59.5C197.841 58.9 197.201 58.6 196.374 58.6C195.521 58.6 194.867 58.8867 194.414 59.46C193.961 60.0333 193.734 60.8533 193.734 61.92C193.734 62.9733 193.961 63.7867 194.414 64.36C194.867 64.92 195.514 65.2 196.354 65.2ZM208.256 67.16C207.23 67.16 206.323 66.9467 205.536 66.52C204.763 66.0933 204.163 65.4867 203.736 64.7C203.323 63.9 203.116 62.9667 203.116 61.9C203.116 60.8333 203.323 59.9067 203.736 59.12C204.163 58.32 204.763 57.7067 205.536 57.28C206.323 56.8533 207.23 56.64 208.256 56.64C209.27 56.64 210.163 56.8533 210.936 57.28C211.71 57.7067 212.303 58.32 212.716 59.12C213.143 59.9067 213.356 60.8333 213.356 61.9C213.356 62.9667 213.143 63.9 212.716 64.7C212.303 65.4867 211.71 66.0933 210.936 66.52C210.163 66.9467 209.27 67.16 208.256 67.16ZM208.236 65.2C209.09 65.2 209.736 64.9267 210.176 64.38C210.63 63.82 210.856 62.9933 210.856 61.9C210.856 60.82 210.63 60 210.176 59.44C209.723 58.8667 209.083 58.58 208.256 58.58C207.416 58.58 206.77 58.8667 206.316 59.44C205.863 60 205.636 60.82 205.636 61.9C205.636 62.9933 205.856 63.82 206.296 64.38C206.75 64.9267 207.396 65.2 208.236 65.2ZM221.292 56.64C223.706 56.64 224.912 58.0267 224.912 60.8V67H222.412V60.92C222.412 60.12 222.259 59.54 221.952 59.18C221.646 58.8067 221.172 58.62 220.532 58.62C219.772 58.62 219.159 58.8667 218.692 59.36C218.226 59.84 217.992 60.48 217.992 61.28V67H215.512V59.76C215.512 58.6933 215.459 57.74 215.352 56.9H217.692L217.872 58.56C218.219 57.9467 218.686 57.4733 219.272 57.14C219.872 56.8067 220.546 56.64 221.292 56.64ZM231.263 67.16C229.436 67.16 227.983 66.7333 226.903 65.88L227.603 64.12C228.683 64.92 229.916 65.32 231.303 65.32C231.903 65.32 232.363 65.22 232.683 65.02C233.016 64.82 233.183 64.54 233.183 64.18C233.183 63.8733 233.07 63.6333 232.843 63.46C232.616 63.2733 232.23 63.1133 231.683 62.98L230.003 62.6C228.163 62.2 227.243 61.26 227.243 59.78C227.243 59.1667 227.416 58.6267 227.763 58.16C228.11 57.68 228.596 57.3067 229.223 57.04C229.85 56.7733 230.576 56.64 231.403 56.64C232.123 56.64 232.816 56.7533 233.483 56.98C234.15 57.1933 234.736 57.5067 235.243 57.92L234.503 59.62C233.49 58.8733 232.45 58.5 231.383 58.5C230.81 58.5 230.363 58.6067 230.043 58.82C229.723 59.0333 229.563 59.3267 229.563 59.7C229.563 59.9933 229.656 60.2267 229.843 60.4C230.043 60.5733 230.376 60.72 230.843 60.84L232.563 61.22C233.563 61.4467 234.29 61.8 234.743 62.28C235.21 62.7467 235.443 63.36 235.443 64.12C235.443 65.0533 235.07 65.7933 234.323 66.34C233.576 66.8867 232.556 67.16 231.263 67.16ZM246.423 62.08H239.463C239.516 63.16 239.783 63.96 240.263 64.48C240.756 64.9867 241.483 65.24 242.443 65.24C243.549 65.24 244.576 64.88 245.523 64.16L246.243 65.88C245.763 66.2667 245.169 66.58 244.463 66.82C243.769 67.0467 243.063 67.16 242.343 67.16C240.689 67.16 239.389 66.6933 238.443 65.76C237.496 64.8267 237.023 63.5467 237.023 61.92C237.023 60.8933 237.229 59.98 237.643 59.18C238.056 58.38 238.636 57.76 239.383 57.32C240.129 56.8667 240.976 56.64 241.923 56.64C243.309 56.64 244.403 57.0933 245.203 58C246.016 58.8933 246.423 60.1267 246.423 61.7V62.08ZM241.983 58.44C241.316 58.44 240.769 58.64 240.343 59.04C239.929 59.4267 239.663 59.9933 239.543 60.74H244.243C244.163 59.98 243.929 59.4067 243.543 59.02C243.169 58.6333 242.649 58.44 241.983 58.44ZM252.24 67.16C250.413 67.16 248.96 66.7333 247.88 65.88L248.58 64.12C249.66 64.92 250.893 65.32 252.28 65.32C252.88 65.32 253.34 65.22 253.66 65.02C253.993 64.82 254.16 64.54 254.16 64.18C254.16 63.8733 254.046 63.6333 253.82 63.46C253.593 63.2733 253.206 63.1133 252.66 62.98L250.98 62.6C249.14 62.2 248.22 61.26 248.22 59.78C248.22 59.1667 248.393 58.6267 248.74 58.16C249.086 57.68 249.573 57.3067 250.2 57.04C250.826 56.7733 251.553 56.64 252.38 56.64C253.1 56.64 253.793 56.7533 254.46 56.98C255.126 57.1933 255.713 57.5067 256.22 57.92L255.48 59.62C254.466 58.8733 253.426 58.5 252.36 58.5C251.786 58.5 251.34 58.6067 251.02 58.82C250.7 59.0333 250.54 59.3267 250.54 59.7C250.54 59.9933 250.633 60.2267 250.82 60.4C251.02 60.5733 251.353 60.72 251.82 60.84L253.54 61.22C254.54 61.4467 255.266 61.8 255.72 62.28C256.186 62.7467 256.42 63.36 256.42 64.12C256.42 65.0533 256.046 65.7933 255.3 66.34C254.553 66.8867 253.533 67.16 252.24 67.16Z" fill="#1C3C55"/>
<path fill-rule="evenodd" clip-rule="evenodd" d="M28 97H548V98H28V97Z" fill="#EAEDF3"/>
<path d="M517.033 293.286H515.943V286.062L513.758 286.865V285.88L516.863 284.714H517.033V293.286ZM524.463 284.749V285.669H524.264C523.42 285.685 522.748 285.935 522.248 286.419C521.748 286.904 521.459 287.585 521.381 288.464C521.83 287.948 522.443 287.691 523.221 287.691C523.963 287.691 524.555 287.952 524.996 288.476C525.441 288.999 525.664 289.675 525.664 290.503C525.664 291.382 525.424 292.085 524.943 292.613C524.467 293.14 523.826 293.404 523.021 293.404C522.205 293.404 521.543 293.091 521.035 292.466C520.527 291.837 520.273 291.029 520.273 290.04V289.624C520.273 288.054 520.607 286.855 521.275 286.027C521.947 285.195 522.945 284.769 524.27 284.749H524.463ZM523.039 288.593C522.668 288.593 522.326 288.704 522.014 288.927C521.701 289.15 521.484 289.429 521.363 289.765V290.163C521.363 290.866 521.521 291.433 521.838 291.863C522.154 292.292 522.549 292.507 523.021 292.507C523.51 292.507 523.893 292.327 524.17 291.968C524.451 291.609 524.592 291.138 524.592 290.556C524.592 289.97 524.449 289.497 524.164 289.138C523.883 288.775 523.508 288.593 523.039 288.593Z" fill="#9EA0A5"/>
<path d="M487.616 293.286H486.526V286.062L484.34 286.865V285.88L487.446 284.714H487.616V293.286ZM491.29 289.009L491.723 284.755H496.094V285.757H492.643L492.385 288.083C492.803 287.837 493.278 287.714 493.809 287.714C494.587 287.714 495.204 287.972 495.661 288.488C496.118 288.999 496.346 289.693 496.346 290.568C496.346 291.447 496.108 292.14 495.631 292.648C495.159 293.152 494.497 293.404 493.645 293.404C492.891 293.404 492.276 293.195 491.799 292.777C491.323 292.359 491.051 291.781 490.985 291.042H492.01C492.077 291.531 492.251 291.9 492.532 292.15C492.813 292.396 493.184 292.519 493.645 292.519C494.149 292.519 494.544 292.347 494.829 292.003C495.118 291.659 495.262 291.185 495.262 290.579C495.262 290.009 495.106 289.552 494.794 289.208C494.485 288.861 494.073 288.687 493.557 288.687C493.085 288.687 492.714 288.79 492.444 288.997L492.157 289.232L491.29 289.009Z" fill="#9EA0A5"/>
<path d="M458.199 293.286H457.109V286.062L454.923 286.865V285.88L458.029 284.714H458.199V293.286ZM465.951 290.421H467.134V291.306H465.951V293.286H464.861V291.306H460.976V290.667L464.796 284.755H465.951V290.421ZM462.206 290.421H464.861V286.238L464.732 286.472L462.206 290.421Z" fill="#9EA0A5"/>
<path d="M428.781 293.286H427.691V286.062L425.506 286.865V285.88L428.611 284.714H428.781V293.286ZM433.533 288.493H434.348C434.859 288.486 435.262 288.351 435.555 288.089C435.848 287.827 435.994 287.474 435.994 287.029C435.994 286.029 435.496 285.529 434.5 285.529C434.031 285.529 433.656 285.663 433.375 285.933C433.098 286.198 432.959 286.552 432.959 286.993H431.875C431.875 286.318 432.121 285.757 432.613 285.312C433.109 284.863 433.738 284.638 434.5 284.638C435.305 284.638 435.936 284.851 436.393 285.277C436.85 285.702 437.078 286.294 437.078 287.052C437.078 287.423 436.957 287.782 436.715 288.13C436.477 288.478 436.15 288.738 435.736 288.909C436.205 289.058 436.566 289.304 436.82 289.648C437.078 289.991 437.207 290.411 437.207 290.907C437.207 291.673 436.957 292.281 436.457 292.73C435.957 293.179 435.307 293.404 434.506 293.404C433.705 293.404 433.053 293.187 432.549 292.753C432.049 292.32 431.799 291.747 431.799 291.036H432.889C432.889 291.486 433.035 291.845 433.328 292.115C433.621 292.384 434.014 292.519 434.506 292.519C435.029 292.519 435.43 292.382 435.707 292.109C435.984 291.835 436.123 291.443 436.123 290.931C436.123 290.435 435.971 290.054 435.666 289.788C435.361 289.523 434.922 289.386 434.348 289.378H433.533V288.493Z" fill="#9EA0A5"/>
<path d="M399.364 293.286H398.274V286.062L396.089 286.865V285.88L399.194 284.714H399.364V293.286ZM408.13 293.286H402.54V292.507L405.493 289.226C405.93 288.73 406.231 288.327 406.395 288.019C406.563 287.706 406.647 287.384 406.647 287.052C406.647 286.607 406.512 286.241 406.243 285.956C405.973 285.671 405.614 285.529 405.165 285.529C404.626 285.529 404.206 285.683 403.905 285.991C403.608 286.296 403.46 286.722 403.46 287.269H402.376C402.376 286.484 402.628 285.849 403.131 285.365C403.639 284.88 404.317 284.638 405.165 284.638C405.958 284.638 406.585 284.847 407.046 285.265C407.506 285.679 407.737 286.232 407.737 286.923C407.737 287.763 407.202 288.763 406.131 289.923L403.846 292.402H408.13V293.286Z" fill="#9EA0A5"/>
<path d="M369.947 293.286H368.857V286.062L366.671 286.865V285.88L369.777 284.714H369.947V293.286ZM376.685 293.286H375.595V286.062L373.409 286.865V285.88L376.515 284.714H376.685V293.286Z" fill="#9EA0A5"/>
<path d="M340.529 293.286H339.439V286.062L337.254 286.865V285.88L340.359 284.714H340.529V293.286ZM349.055 289.648C349.055 290.917 348.838 291.861 348.404 292.478C347.971 293.095 347.293 293.404 346.371 293.404C345.461 293.404 344.787 293.103 344.349 292.501C343.912 291.896 343.685 290.993 343.67 289.794V288.347C343.67 287.093 343.887 286.161 344.32 285.552C344.754 284.943 345.433 284.638 346.359 284.638C347.277 284.638 347.953 284.933 348.387 285.523C348.82 286.109 349.043 287.015 349.055 288.241V289.648ZM347.971 288.165C347.971 287.247 347.842 286.579 347.584 286.161C347.326 285.74 346.918 285.529 346.359 285.529C345.805 285.529 345.4 285.738 345.146 286.156C344.892 286.573 344.762 287.216 344.754 288.083V289.818C344.754 290.74 344.887 291.421 345.152 291.863C345.422 292.3 345.828 292.519 346.371 292.519C346.906 292.519 347.303 292.312 347.56 291.898C347.822 291.484 347.959 290.831 347.971 289.941V288.165Z" fill="#9EA0A5"/>
<path d="M315.073 289.536C314.846 289.806 314.575 290.023 314.258 290.187C313.946 290.351 313.602 290.433 313.227 290.433C312.735 290.433 312.305 290.312 311.938 290.07C311.575 289.827 311.294 289.488 311.094 289.05C310.895 288.609 310.795 288.122 310.795 287.591C310.795 287.021 310.903 286.507 311.118 286.05C311.336 285.593 311.645 285.243 312.044 285.001C312.442 284.759 312.907 284.638 313.438 284.638C314.282 284.638 314.946 284.954 315.43 285.587C315.919 286.216 316.163 287.075 316.163 288.165V288.482C316.163 290.142 315.835 291.355 315.178 292.12C314.522 292.882 313.532 293.273 312.208 293.292H311.997V292.378H312.225C313.12 292.363 313.807 292.13 314.288 291.681C314.768 291.228 315.03 290.513 315.073 289.536ZM313.403 289.536C313.766 289.536 314.1 289.425 314.405 289.202C314.713 288.98 314.938 288.704 315.079 288.376V287.943C315.079 287.232 314.924 286.654 314.616 286.208C314.307 285.763 313.917 285.54 313.444 285.54C312.967 285.54 312.585 285.724 312.295 286.091C312.006 286.454 311.862 286.935 311.862 287.532C311.862 288.115 312.001 288.595 312.278 288.974C312.559 289.349 312.934 289.536 313.403 289.536Z" fill="#9EA0A5"/>
<path d="M286.675 286.982C286.675 287.407 286.562 287.786 286.335 288.118C286.113 288.45 285.81 288.71 285.427 288.898C285.872 289.089 286.224 289.368 286.482 289.736C286.743 290.103 286.874 290.519 286.874 290.984C286.874 291.722 286.624 292.31 286.124 292.747C285.628 293.185 284.974 293.404 284.161 293.404C283.341 293.404 282.683 293.185 282.187 292.747C281.695 292.306 281.448 291.718 281.448 290.984C281.448 290.523 281.573 290.107 281.823 289.736C282.077 289.365 282.427 289.083 282.872 288.892C282.493 288.704 282.195 288.445 281.976 288.113C281.757 287.781 281.648 287.404 281.648 286.982C281.648 286.263 281.878 285.693 282.339 285.271C282.8 284.849 283.407 284.638 284.161 284.638C284.911 284.638 285.517 284.849 285.978 285.271C286.443 285.693 286.675 286.263 286.675 286.982ZM285.79 290.96C285.79 290.484 285.638 290.095 285.333 289.794C285.032 289.493 284.638 289.343 284.15 289.343C283.661 289.343 283.269 289.491 282.972 289.788C282.679 290.085 282.532 290.476 282.532 290.96C282.532 291.445 282.675 291.825 282.96 292.103C283.249 292.38 283.65 292.519 284.161 292.519C284.669 292.519 285.068 292.38 285.357 292.103C285.646 291.822 285.79 291.441 285.79 290.96ZM284.161 285.529C283.736 285.529 283.39 285.661 283.124 285.927C282.863 286.189 282.732 286.546 282.732 286.999C282.732 287.433 282.861 287.784 283.118 288.054C283.38 288.32 283.728 288.452 284.161 288.452C284.595 288.452 284.941 288.32 285.198 288.054C285.46 287.784 285.591 287.433 285.591 286.999C285.591 286.566 285.456 286.212 285.187 285.939C284.917 285.665 284.575 285.529 284.161 285.529Z" fill="#9EA0A5"/>
<path d="M257.592 285.365L254.058 293.286H252.922L256.443 285.646H251.826V284.755H257.592V285.365Z" fill="#9EA0A5"/>
<path d="M226.92 284.749V285.669H226.721C225.877 285.685 225.206 285.935 224.706 286.419C224.206 286.904 223.917 287.585 223.838 288.464C224.288 287.948 224.901 287.691 225.678 287.691C226.42 287.691 227.012 287.952 227.454 288.476C227.899 288.999 228.122 289.675 228.122 290.503C228.122 291.382 227.881 292.085 227.401 292.613C226.924 293.14 226.284 293.404 225.479 293.404C224.663 293.404 224 293.091 223.493 292.466C222.985 291.837 222.731 291.029 222.731 290.04V289.624C222.731 288.054 223.065 286.855 223.733 286.027C224.405 285.195 225.403 284.769 226.727 284.749H226.92ZM225.497 288.593C225.125 288.593 224.784 288.704 224.471 288.927C224.159 289.15 223.942 289.429 223.821 289.765V290.163C223.821 290.866 223.979 291.433 224.295 291.863C224.612 292.292 225.006 292.507 225.479 292.507C225.967 292.507 226.35 292.327 226.627 291.968C226.909 291.609 227.049 291.138 227.049 290.556C227.049 289.97 226.907 289.497 226.622 289.138C226.34 288.775 225.965 288.593 225.497 288.593Z" fill="#9EA0A5"/>
<path d="M193.747 289.009L194.181 284.755H198.552V285.757H195.101L194.843 288.083C195.261 287.837 195.736 287.714 196.267 287.714C197.044 287.714 197.661 287.972 198.118 288.488C198.575 288.999 198.804 289.693 198.804 290.568C198.804 291.447 198.566 292.14 198.089 292.648C197.616 293.152 196.954 293.404 196.103 293.404C195.349 293.404 194.734 293.195 194.257 292.777C193.78 292.359 193.509 291.781 193.443 291.042H194.468C194.534 291.531 194.708 291.9 194.989 292.15C195.271 292.396 195.642 292.519 196.103 292.519C196.607 292.519 197.001 292.347 197.286 292.003C197.575 291.659 197.72 291.185 197.72 290.579C197.72 290.009 197.564 289.552 197.251 289.208C196.943 288.861 196.53 288.687 196.015 288.687C195.542 288.687 195.171 288.79 194.902 288.997L194.614 289.232L193.747 289.009Z" fill="#9EA0A5"/>
<path d="M168.408 290.421H169.592V291.306H168.408V293.286H167.318V291.306H163.433V290.667L167.254 284.755H168.408V290.421ZM164.664 290.421H167.318V286.238L167.189 286.472L164.664 290.421Z" fill="#9EA0A5"/>
<path d="M135.991 288.493H136.805C137.317 288.486 137.719 288.351 138.012 288.089C138.305 287.827 138.452 287.474 138.452 287.029C138.452 286.029 137.954 285.529 136.958 285.529C136.489 285.529 136.114 285.663 135.833 285.933C135.555 286.198 135.417 286.552 135.417 286.993H134.333C134.333 286.318 134.579 285.757 135.071 285.312C135.567 284.863 136.196 284.638 136.958 284.638C137.762 284.638 138.393 284.851 138.85 285.277C139.307 285.702 139.536 286.294 139.536 287.052C139.536 287.423 139.415 287.782 139.172 288.13C138.934 288.478 138.608 288.738 138.194 288.909C138.663 289.058 139.024 289.304 139.278 289.648C139.536 289.991 139.665 290.411 139.665 290.907C139.665 291.673 139.415 292.281 138.915 292.73C138.415 293.179 137.764 293.404 136.963 293.404C136.163 293.404 135.51 293.187 135.006 292.753C134.506 292.32 134.256 291.747 134.256 291.036H135.346C135.346 291.486 135.493 291.845 135.786 292.115C136.079 292.384 136.471 292.519 136.963 292.519C137.487 292.519 137.887 292.382 138.165 292.109C138.442 291.835 138.581 291.443 138.581 290.931C138.581 290.435 138.428 290.054 138.124 289.788C137.819 289.523 137.379 289.386 136.805 289.378H135.991V288.493Z" fill="#9EA0A5"/>
<path d="M110.587 293.286H104.997V292.507L107.95 289.226C108.388 288.73 108.689 288.327 108.853 288.019C109.021 287.706 109.105 287.384 109.105 287.052C109.105 286.607 108.97 286.241 108.7 285.956C108.431 285.671 108.071 285.529 107.622 285.529C107.083 285.529 106.663 285.683 106.362 285.991C106.066 286.296 105.917 286.722 105.917 287.269H104.833C104.833 286.484 105.085 285.849 105.589 285.365C106.097 284.88 106.775 284.638 107.622 284.638C108.415 284.638 109.042 284.847 109.503 285.265C109.964 285.679 110.194 286.232 110.194 286.923C110.194 287.763 109.659 288.763 108.589 289.923L106.304 292.402H110.587V293.286Z" fill="#9EA0A5"/>
<path d="M79.9023 293.3H78.8125V286.076L76.627 286.878V285.894L79.7324 284.728H79.9023V293.3Z" fill="#9EA0A5"/>
<path fill-rule="evenodd" clip-rule="evenodd" d="M58 122.937H548V123.937H58V122.937Z" fill="#EAEDF3"/>
<path fill-rule="evenodd" clip-rule="evenodd" d="M58 172.74H548V173.74H58V172.74Z" fill="#EAEDF3"/>
<path fill-rule="evenodd" clip-rule="evenodd" d="M58 222.543H548V223.543H58V222.543Z" fill="#EAEDF3"/>
<path fill-rule="evenodd" clip-rule="evenodd" d="M58 272.346H548V273.346H58V272.346Z" fill="#EAEDF3"/>
<rect x="175.137" y="123.874" width="2" height="148.535" fill="#EAEDF3"/>
<path fill-rule="evenodd" clip-rule="evenodd" d="M513.5 222.859C513.5 221.754 514.395 220.859 515.5 220.859H523.5C524.605 220.859 525.5 221.754 525.5 222.859V273.283H513.5V222.859Z" fill="#9DC2D4"/>
<path d="M484.09 249.071C484.09 247.966 484.985 247.071 486.09 247.071H494.09C495.194 247.071 496.09 247.966 496.09 249.071V273.283H484.09V249.071Z" fill="#9DC2D4"/>
<path fill-rule="evenodd" clip-rule="evenodd" d="M454.68 183.541C454.68 182.436 455.575 181.541 456.68 181.541H464.68C465.784 181.541 466.68 182.436 466.68 183.541V273.283H454.68V183.541Z" fill="#9DC2D4"/>
<path fill-rule="evenodd" clip-rule="evenodd" d="M425.269 205.384C425.269 204.279 426.165 203.384 427.269 203.384H435.269C436.374 203.384 437.269 204.279 437.269 205.384V273.283H425.269V205.384Z" fill="#9DC2D4"/>
<path d="M395.859 150.338C395.859 149.234 396.755 148.338 397.859 148.338H405.859C406.964 148.338 407.859 149.234 407.859 150.338V273.283H395.859V150.338Z" fill="#9DC2D4"/>
<path fill-rule="evenodd" clip-rule="evenodd" d="M366.449 222.859C366.449 221.754 367.345 220.859 368.449 220.859H376.449C377.554 220.859 378.449 221.754 378.449 222.859V273.283H366.449V222.859Z" fill="#9DC2D4"/>
<path fill-rule="evenodd" clip-rule="evenodd" d="M337.039 187.909C337.039 186.805 337.934 185.909 339.039 185.909H347.039C348.144 185.909 349.039 186.805 349.039 187.909V273.283H337.039V187.909Z" fill="#1C3C55"/>
<path d="M307.629 249.071C307.629 247.966 308.524 247.071 309.629 247.071H317.629C318.733 247.071 319.629 247.966 319.629 249.071V273.283H307.629V249.071Z" fill="#9DC2D4"/>
<path fill-rule="evenodd" clip-rule="evenodd" d="M278.219 198.394C278.219 197.289 279.114 196.394 280.219 196.394H288.219C289.323 196.394 290.219 197.289 290.219 198.394V273.283H278.219V198.394Z" fill="#9DC2D4"/>
<path fill-rule="evenodd" clip-rule="evenodd" d="M248.808 214.121C248.808 213.017 249.704 212.121 250.808 212.121H258.808C259.913 212.121 260.808 213.017 260.808 214.121V273.283H248.808V214.121Z" fill="#9DC2D4"/>
<path fill-rule="evenodd" clip-rule="evenodd" d="M219.398 183.541C219.398 182.436 220.294 181.541 221.398 181.541H229.398C230.503 181.541 231.398 182.436 231.398 183.541V273.283H219.398V183.541Z" fill="#9DC2D4"/>
<path fill-rule="evenodd" clip-rule="evenodd" d="M189.988 205.384C189.988 204.279 190.883 203.384 191.988 203.384H199.988C201.093 203.384 201.988 204.279 201.988 205.384V273.283H189.988V205.384Z" fill="#9DC2D4"/>
<path d="M160.578 249.071C160.578 247.966 161.473 247.071 162.578 247.071H170.578C171.682 247.071 172.578 247.966 172.578 249.071V273.283H160.578V249.071Z" fill="#9DC2D4"/>
<path fill-rule="evenodd" clip-rule="evenodd" d="M131.168 183.541C131.168 182.436 132.063 181.541 133.168 181.541H141.168C142.272 181.541 143.168 182.436 143.168 183.541V273.283H131.168V183.541Z" fill="#9DC2D4"/>
<path fill-rule="evenodd" clip-rule="evenodd" d="M101.758 205.384C101.758 204.279 102.653 203.384 103.758 203.384H111.758C112.862 203.384 113.758 204.279 113.758 205.384V273.283H101.758V205.384Z" fill="#9DC2D4"/>
<path fill-rule="evenodd" clip-rule="evenodd" d="M73 233.338C73 232.234 73.8954 231.338 75 231.338H83C84.1046 231.338 85 232.234 85 233.338V273.283H73V233.338Z" fill="#9DC2D4"/>
<g clip-path="url(#clip0)">
<g filter="url(#filter1_d)">
<mask id="path-60-inside-1" fill="white">
<path fill-rule="evenodd" clip-rule="evenodd" d="M361 160C358.791 160 357 161.791 357 164V193.979L351.479 199.5L357 205.021V296C357 298.209 358.791 300 361 300H521C523.209 300 525 298.209 525 296V164C525 161.791 523.209 160 521 160H361Z"/>
</mask>
<path fill-rule="evenodd" clip-rule="evenodd" d="M361 160C358.791 160 357 161.791 357 164V193.979L351.479 199.5L357 205.021V296C357 298.209 358.791 300 361 300H521C523.209 300 525 298.209 525 296V164C525 161.791 523.209 160 521 160H361Z" fill="white"/>
<path d="M357 193.979L357.707 194.686L358 194.393V193.979H357ZM351.479 199.5L350.772 198.793L350.065 199.5L350.772 200.207L351.479 199.5ZM357 205.021H358V204.607L357.707 204.314L357 205.021ZM358 164C358 162.343 359.343 161 361 161V159C358.239 159 356 161.239 356 164H358ZM358 193.979V164H356V193.979H358ZM352.186 200.207L357.707 194.686L356.293 193.272L350.772 198.793L352.186 200.207ZM357.707 204.314L352.186 198.793L350.772 200.207L356.293 205.728L357.707 204.314ZM358 296V205.021H356V296H358ZM361 299C359.343 299 358 297.657 358 296H356C356 298.761 358.239 301 361 301V299ZM521 299H361V301H521V299ZM524 296C524 297.657 522.657 299 521 299V301C523.761 301 526 298.761 526 296H524ZM524 164V296H526V164H524ZM521 161C522.657 161 524 162.343 524 164H526C526 161.239 523.761 159 521 159V161ZM361 161H521V159H361V161Z" fill="#EAEDF3" mask="url(#path-60-inside-1)"/>
</g>
<circle cx="381.5" cy="213.5" r="5.5" fill="#1C3C55"/>
<path d="M383.612 188.74V190H378.344V188.74H380.216V183.232L378.476 184.276V182.896L380.852 181.456H381.752V188.74H383.612ZM390.783 188.74V190H385.047V188.86L387.951 185.728C388.295 185.352 388.547 185.008 388.707 184.696C388.867 184.384 388.947 184.076 388.947 183.772C388.947 183.38 388.831 183.084 388.599 182.884C388.375 182.684 388.051 182.584 387.627 182.584C386.875 182.584 386.103 182.88 385.311 183.472L384.795 182.344C385.131 182.04 385.563 181.8 386.091 181.624C386.619 181.44 387.151 181.348 387.687 181.348C388.543 181.348 389.219 181.56 389.715 181.984C390.219 182.4 390.471 182.964 390.471 183.676C390.471 184.164 390.363 184.624 390.147 185.056C389.939 185.488 389.587 185.972 389.091 186.508L386.991 188.74H390.783ZM394.33 182.728H391.546V181.456H398.686V182.728H395.89V190H394.33V182.728ZM407.196 181.456V190H405.66V186.292H401.28V190H399.756V181.456H401.28V185.032H405.66V181.456H407.196ZM412.342 181.456H415.486C416.886 181.456 417.97 181.828 418.738 182.572C419.514 183.316 419.902 184.364 419.902 185.716C419.902 187.076 419.514 188.132 418.738 188.884C417.97 189.628 416.886 190 415.486 190H412.342V181.456ZM415.39 188.74C417.358 188.74 418.342 187.732 418.342 185.716C418.342 183.716 417.358 182.716 415.39 182.716H413.89V188.74H415.39ZM421.483 181.456H427.195V182.68H422.995V185.044H426.943V186.268H422.995V188.776H427.195V190H421.483V181.456ZM432.472 190.108C431.632 190.108 430.896 189.928 430.264 189.568C429.64 189.208 429.16 188.7 428.824 188.044C428.488 187.38 428.32 186.604 428.32 185.716C428.32 184.836 428.488 184.068 428.824 183.412C429.16 182.748 429.64 182.24 430.264 181.888C430.896 181.528 431.632 181.348 432.472 181.348C433.048 181.348 433.588 181.44 434.092 181.624C434.604 181.8 435.028 182.048 435.364 182.368L434.86 183.496C434.476 183.184 434.092 182.96 433.708 182.824C433.332 182.68 432.928 182.608 432.496 182.608C431.672 182.608 431.032 182.876 430.576 183.412C430.128 183.948 429.904 184.716 429.904 185.716C429.904 186.724 430.128 187.5 430.576 188.044C431.024 188.58 431.664 188.848 432.496 188.848C432.928 188.848 433.332 188.78 433.708 188.644C434.092 188.5 434.476 188.272 434.86 187.96L435.364 189.088C435.028 189.408 434.604 189.66 434.092 189.844C433.588 190.02 433.048 190.108 432.472 190.108ZM436.811 181.456H442.523V182.68H438.323V185.044H442.271V186.268H438.323V188.776H442.523V190H436.811V181.456ZM452.275 181.456V190H450.907V184.696L448.639 190H447.619L445.339 184.756V190H443.971V181.456H445.195L448.135 188.14L451.051 181.456H452.275ZM459.399 185.584C459.895 185.728 460.275 185.98 460.539 186.34C460.811 186.7 460.947 187.144 460.947 187.672C460.947 188.4 460.687 188.972 460.167 189.388C459.655 189.796 458.939 190 458.019 190H454.143V181.456H457.899C458.779 181.456 459.471 181.656 459.975 182.056C460.479 182.448 460.731 182.992 460.731 183.688C460.731 184.136 460.611 184.528 460.371 184.864C460.139 185.192 459.815 185.432 459.399 185.584ZM455.655 185.056H457.647C458.719 185.056 459.255 184.656 459.255 183.856C459.255 183.456 459.123 183.156 458.859 182.956C458.595 182.756 458.191 182.656 457.647 182.656H455.655V185.056ZM457.851 188.8C458.411 188.8 458.819 188.7 459.075 188.5C459.339 188.3 459.471 187.984 459.471 187.552C459.471 187.112 459.339 186.788 459.075 186.58C458.819 186.372 458.411 186.268 457.851 186.268H455.655V188.8H457.851ZM462.428 181.456H468.14V182.68H463.94V185.044H467.888V186.268H463.94V188.776H468.14V190H462.428V181.456ZM476.597 190H474.965L473.873 187.156C473.777 186.892 473.629 186.708 473.429 186.604C473.229 186.5 472.969 186.448 472.649 186.448H471.101V190H469.565V181.456H473.225C474.193 181.456 474.929 181.668 475.433 182.092C475.937 182.516 476.189 183.124 476.189 183.916C476.189 184.484 476.037 184.968 475.733 185.368C475.437 185.76 475.013 186.04 474.461 186.208C474.965 186.312 475.329 186.664 475.553 187.264L476.597 190ZM473.009 185.248C473.593 185.248 474.025 185.14 474.305 184.924C474.585 184.708 474.725 184.38 474.725 183.94C474.725 183.508 474.585 183.188 474.305 182.98C474.033 182.764 473.601 182.656 473.009 182.656H471.077V185.248H473.009ZM486.947 188.74V190H481.211V188.86L484.115 185.728C484.459 185.352 484.711 185.008 484.871 184.696C485.031 184.384 485.111 184.076 485.111 183.772C485.111 183.38 484.995 183.084 484.763 182.884C484.539 182.684 484.215 182.584 483.791 182.584C483.039 182.584 482.267 182.88 481.475 183.472L480.959 182.344C481.295 182.04 481.727 181.8 482.255 181.624C482.783 181.44 483.315 181.348 483.851 181.348C484.707 181.348 485.383 181.56 485.879 181.984C486.383 182.4 486.635 182.964 486.635 183.676C486.635 184.164 486.527 184.624 486.311 185.056C486.103 185.488 485.751 185.972 485.255 186.508L483.155 188.74H486.947ZM491.166 190.108C490.15 190.108 489.374 189.736 488.838 188.992C488.31 188.24 488.046 187.148 488.046 185.716C488.046 184.308 488.31 183.232 488.838 182.488C489.374 181.744 490.15 181.372 491.166 181.372C492.182 181.372 492.954 181.744 493.482 182.488C494.018 183.224 494.286 184.3 494.286 185.716C494.286 187.14 494.018 188.228 493.482 188.98C492.954 189.732 492.182 190.108 491.166 190.108ZM491.166 188.896C491.718 188.896 492.118 188.644 492.366 188.14C492.622 187.628 492.75 186.82 492.75 185.716C492.75 184.628 492.622 183.836 492.366 183.34C492.118 182.836 491.718 182.584 491.166 182.584C490.614 182.584 490.21 182.836 489.954 183.34C489.706 183.836 489.582 184.628 489.582 185.716C489.582 186.82 489.706 187.628 489.954 188.14C490.21 188.644 490.614 188.896 491.166 188.896ZM501.374 188.74V190H496.106V188.74H497.978V183.232L496.238 184.276V182.896L498.614 181.456H499.514V188.74H501.374ZM506.997 185.608C507.549 185.744 507.981 185.996 508.293 186.364C508.605 186.732 508.761 187.176 508.761 187.696C508.761 188.184 508.625 188.612 508.353 188.98C508.089 189.34 507.713 189.616 507.225 189.808C506.745 190 506.189 190.096 505.557 190.096C504.925 190.096 504.365 190 503.877 189.808C503.397 189.616 503.021 189.34 502.749 188.98C502.485 188.612 502.353 188.184 502.353 187.696C502.353 187.176 502.509 186.732 502.821 186.364C503.133 185.996 503.565 185.744 504.117 185.608C503.637 185.448 503.257 185.196 502.977 184.852C502.705 184.508 502.569 184.108 502.569 183.652C502.569 183.188 502.697 182.784 502.953 182.44C503.209 182.088 503.561 181.82 504.009 181.636C504.465 181.444 504.981 181.348 505.557 181.348C506.133 181.348 506.645 181.444 507.093 181.636C507.549 181.82 507.905 182.088 508.161 182.44C508.417 182.784 508.545 183.188 508.545 183.652C508.545 184.116 508.405 184.524 508.125 184.876C507.853 185.22 507.477 185.464 506.997 185.608ZM505.557 182.56C505.085 182.56 504.713 182.668 504.441 182.884C504.169 183.1 504.033 183.408 504.033 183.808C504.033 184.184 504.169 184.492 504.441 184.732C504.721 184.964 505.093 185.116 505.557 185.188C506.021 185.116 506.389 184.964 506.661 184.732C506.941 184.492 507.081 184.184 507.081 183.808C507.081 183.408 506.945 183.1 506.673 182.884C506.401 182.668 506.029 182.56 505.557 182.56ZM505.557 188.884C506.101 188.884 506.525 188.772 506.829 188.548C507.141 188.324 507.297 188.004 507.297 187.588C507.297 187.196 507.137 186.88 506.817 186.64C506.505 186.4 506.085 186.244 505.557 186.172C505.029 186.244 504.605 186.4 504.285 186.64C503.973 186.88 503.817 187.196 503.817 187.588C503.817 188.004 503.969 188.324 504.273 188.548C504.585 188.772 505.013 188.884 505.557 188.884Z" fill="#9EA0A5"/>
<path d="M400.282 217H398.378L397.104 213.682C396.992 213.374 396.819 213.159 396.586 213.038C396.353 212.917 396.049 212.856 395.676 212.856H393.87V217H392.078V207.032H396.348C397.477 207.032 398.336 207.279 398.924 207.774C399.512 208.269 399.806 208.978 399.806 209.902C399.806 210.565 399.629 211.129 399.274 211.596C398.929 212.053 398.434 212.38 397.79 212.576C398.378 212.697 398.803 213.108 399.064 213.808L400.282 217ZM396.096 211.456C396.777 211.456 397.281 211.33 397.608 211.078C397.935 210.826 398.098 210.443 398.098 209.93C398.098 209.426 397.935 209.053 397.608 208.81C397.291 208.558 396.787 208.432 396.096 208.432H393.842V211.456H396.096ZM407.97 213.556H403.098C403.135 214.312 403.322 214.872 403.658 215.236C404.003 215.591 404.512 215.768 405.184 215.768C405.959 215.768 406.677 215.516 407.34 215.012L407.844 216.216C407.508 216.487 407.093 216.706 406.598 216.874C406.113 217.033 405.618 217.112 405.114 217.112C403.957 217.112 403.047 216.785 402.384 216.132C401.721 215.479 401.39 214.583 401.39 213.444C401.39 212.725 401.535 212.086 401.824 211.526C402.113 210.966 402.519 210.532 403.042 210.224C403.565 209.907 404.157 209.748 404.82 209.748C405.791 209.748 406.556 210.065 407.116 210.7C407.685 211.325 407.97 212.189 407.97 213.29V213.556ZM404.862 211.008C404.395 211.008 404.013 211.148 403.714 211.428C403.425 211.699 403.238 212.095 403.154 212.618H406.444C406.388 212.086 406.225 211.685 405.954 211.414C405.693 211.143 405.329 211.008 404.862 211.008ZM412.042 217.112C410.763 217.112 409.746 216.813 408.99 216.216L409.48 214.984C410.236 215.544 411.099 215.824 412.07 215.824C412.49 215.824 412.812 215.754 413.036 215.614C413.269 215.474 413.386 215.278 413.386 215.026C413.386 214.811 413.307 214.643 413.148 214.522C412.989 214.391 412.719 214.279 412.336 214.186L411.16 213.92C409.872 213.64 409.228 212.982 409.228 211.946C409.228 211.517 409.349 211.139 409.592 210.812C409.835 210.476 410.175 210.215 410.614 210.028C411.053 209.841 411.561 209.748 412.14 209.748C412.644 209.748 413.129 209.827 413.596 209.986C414.063 210.135 414.473 210.355 414.828 210.644L414.31 211.834C413.601 211.311 412.873 211.05 412.126 211.05C411.725 211.05 411.412 211.125 411.188 211.274C410.964 211.423 410.852 211.629 410.852 211.89C410.852 212.095 410.917 212.259 411.048 212.38C411.188 212.501 411.421 212.604 411.748 212.688L412.952 212.954C413.652 213.113 414.161 213.36 414.478 213.696C414.805 214.023 414.968 214.452 414.968 214.984C414.968 215.637 414.707 216.155 414.184 216.538C413.661 216.921 412.947 217.112 412.042 217.112ZM420.498 209.748C421.104 209.748 421.641 209.907 422.108 210.224C422.584 210.532 422.952 210.971 423.214 211.54C423.484 212.1 423.62 212.744 423.62 213.472C423.62 214.2 423.489 214.839 423.228 215.39C422.966 215.941 422.598 216.365 422.122 216.664C421.655 216.963 421.114 217.112 420.498 217.112C419.984 217.112 419.527 217.005 419.126 216.79C418.724 216.566 418.416 216.258 418.202 215.866V220.024H416.466V211.932C416.466 211.185 416.428 210.518 416.354 209.93H417.992L418.132 211.148C418.318 210.709 418.622 210.369 419.042 210.126C419.462 209.874 419.947 209.748 420.498 209.748ZM420.022 215.74C420.61 215.74 421.062 215.544 421.38 215.152C421.697 214.76 421.856 214.2 421.856 213.472C421.856 212.735 421.697 212.161 421.38 211.75C421.062 211.33 420.614 211.12 420.036 211.12C419.438 211.12 418.981 211.321 418.664 211.722C418.346 212.123 418.188 212.697 418.188 213.444C418.188 214.181 418.346 214.751 418.664 215.152C418.981 215.544 419.434 215.74 420.022 215.74ZM428.353 217.112C427.635 217.112 427 216.963 426.449 216.664C425.908 216.365 425.488 215.941 425.189 215.39C424.9 214.83 424.755 214.177 424.755 213.43C424.755 212.683 424.9 212.035 425.189 211.484C425.488 210.924 425.908 210.495 426.449 210.196C427 209.897 427.635 209.748 428.353 209.748C429.063 209.748 429.688 209.897 430.229 210.196C430.771 210.495 431.186 210.924 431.475 211.484C431.774 212.035 431.923 212.683 431.923 213.43C431.923 214.177 431.774 214.83 431.475 215.39C431.186 215.941 430.771 216.365 430.229 216.664C429.688 216.963 429.063 217.112 428.353 217.112ZM428.339 215.74C428.937 215.74 429.389 215.549 429.697 215.166C430.015 214.774 430.173 214.195 430.173 213.43C430.173 212.674 430.015 212.1 429.697 211.708C429.38 211.307 428.932 211.106 428.353 211.106C427.765 211.106 427.313 211.307 426.995 211.708C426.678 212.1 426.519 212.674 426.519 213.43C426.519 214.195 426.673 214.774 426.981 215.166C427.299 215.549 427.751 215.74 428.339 215.74ZM437.478 209.748C439.168 209.748 440.012 210.719 440.012 212.66V217H438.262V212.744C438.262 212.184 438.155 211.778 437.94 211.526C437.726 211.265 437.394 211.134 436.946 211.134C436.414 211.134 435.985 211.307 435.658 211.652C435.332 211.988 435.168 212.436 435.168 212.996V217H433.432V211.932C433.432 211.185 433.395 210.518 433.32 209.93H434.958L435.084 211.092C435.327 210.663 435.654 210.331 436.064 210.098C436.484 209.865 436.956 209.748 437.478 209.748ZM444.458 217.112C443.179 217.112 442.162 216.813 441.406 216.216L441.896 214.984C442.652 215.544 443.515 215.824 444.486 215.824C444.906 215.824 445.228 215.754 445.452 215.614C445.685 215.474 445.802 215.278 445.802 215.026C445.802 214.811 445.723 214.643 445.564 214.522C445.405 214.391 445.135 214.279 444.752 214.186L443.576 213.92C442.288 213.64 441.644 212.982 441.644 211.946C441.644 211.517 441.765 211.139 442.008 210.812C442.251 210.476 442.591 210.215 443.03 210.028C443.469 209.841 443.977 209.748 444.556 209.748C445.06 209.748 445.545 209.827 446.012 209.986C446.479 210.135 446.889 210.355 447.244 210.644L446.726 211.834C446.017 211.311 445.289 211.05 444.542 211.05C444.141 211.05 443.828 211.125 443.604 211.274C443.38 211.423 443.268 211.629 443.268 211.89C443.268 212.095 443.333 212.259 443.464 212.38C443.604 212.501 443.837 212.604 444.164 212.688L445.368 212.954C446.068 213.113 446.577 213.36 446.894 213.696C447.221 214.023 447.384 214.452 447.384 214.984C447.384 215.637 447.123 216.155 446.6 216.538C446.077 216.921 445.363 217.112 444.458 217.112ZM455.07 213.556H450.198C450.235 214.312 450.422 214.872 450.758 215.236C451.103 215.591 451.612 215.768 452.284 215.768C453.058 215.768 453.777 215.516 454.44 215.012L454.944 216.216C454.608 216.487 454.192 216.706 453.698 216.874C453.212 217.033 452.718 217.112 452.214 217.112C451.056 217.112 450.146 216.785 449.484 216.132C448.821 215.479 448.49 214.583 448.49 213.444C448.49 212.725 448.634 212.086 448.924 211.526C449.213 210.966 449.619 210.532 450.142 210.224C450.664 209.907 451.257 209.748 451.92 209.748C452.89 209.748 453.656 210.065 454.216 210.7C454.785 211.325 455.07 212.189 455.07 213.29V213.556ZM451.962 211.008C451.495 211.008 451.112 211.148 450.814 211.428C450.524 211.699 450.338 212.095 450.254 212.618H453.544C453.488 212.086 453.324 211.685 453.054 211.414C452.792 211.143 452.428 211.008 451.962 211.008Z" fill="#3E3F42"/>
<path d="M475.567 207.032V208.376L471.045 217H469.113L473.621 208.502H468.623V207.032H475.567ZM479.019 215.04V216.328C479.019 216.823 478.935 217.271 478.767 217.672C478.599 218.073 478.314 218.475 477.913 218.876L477.199 218.302C477.638 217.835 477.89 217.401 477.955 217H477.059V215.04H479.019ZM484.003 217.126C482.817 217.126 481.912 216.692 481.287 215.824C480.671 214.947 480.363 213.673 480.363 212.002C480.363 210.359 480.671 209.104 481.287 208.236C481.912 207.368 482.817 206.934 484.003 206.934C485.188 206.934 486.089 207.368 486.705 208.236C487.33 209.095 487.643 210.35 487.643 212.002C487.643 213.663 487.33 214.933 486.705 215.81C486.089 216.687 485.188 217.126 484.003 217.126ZM484.003 215.712C484.647 215.712 485.113 215.418 485.403 214.83C485.701 214.233 485.851 213.29 485.851 212.002C485.851 210.733 485.701 209.809 485.403 209.23C485.113 208.642 484.647 208.348 484.003 208.348C483.359 208.348 482.887 208.642 482.589 209.23C482.299 209.809 482.155 210.733 482.155 212.002C482.155 213.29 482.299 214.233 482.589 214.83C482.887 215.418 483.359 215.712 484.003 215.712ZM495.911 215.53V217H489.765V215.53H491.949V209.104L489.919 210.322V208.712L492.691 207.032H493.741V215.53H495.911ZM504.278 215.53V217H497.586V215.67L500.974 212.016C501.375 211.577 501.669 211.176 501.856 210.812C502.042 210.448 502.136 210.089 502.136 209.734C502.136 209.277 502 208.931 501.73 208.698C501.468 208.465 501.09 208.348 500.596 208.348C499.718 208.348 498.818 208.693 497.894 209.384L497.292 208.068C497.684 207.713 498.188 207.433 498.804 207.228C499.42 207.013 500.04 206.906 500.666 206.906C501.664 206.906 502.453 207.153 503.032 207.648C503.62 208.133 503.914 208.791 503.914 209.622C503.914 210.191 503.788 210.728 503.536 211.232C503.293 211.736 502.882 212.301 502.304 212.926L499.854 215.53H504.278Z" fill="#3E3F42"/>
<path d="M483.49 240.95V242H478.71V241.05L481.13 238.44C481.417 238.127 481.627 237.84 481.76 237.58C481.893 237.32 481.96 237.063 481.96 236.81C481.96 236.483 481.863 236.237 481.67 236.07C481.483 235.903 481.213 235.82 480.86 235.82C480.233 235.82 479.59 236.067 478.93 236.56L478.5 235.62C478.78 235.367 479.14 235.167 479.58 235.02C480.02 234.867 480.463 234.79 480.91 234.79C481.623 234.79 482.187 234.967 482.6 235.32C483.02 235.667 483.23 236.137 483.23 236.73C483.23 237.137 483.14 237.52 482.96 237.88C482.787 238.24 482.493 238.643 482.08 239.09L480.33 240.95H483.49ZM485.956 240.6V241.52C485.956 241.873 485.896 242.193 485.776 242.48C485.656 242.767 485.453 243.053 485.166 243.34L484.656 242.93C484.969 242.597 485.149 242.287 485.196 242H484.556V240.6H485.956ZM489.516 242.09C488.669 242.09 488.022 241.78 487.576 241.16C487.136 240.533 486.916 239.623 486.916 238.43C486.916 237.257 487.136 236.36 487.576 235.74C488.022 235.12 488.669 234.81 489.516 234.81C490.362 234.81 491.006 235.12 491.446 235.74C491.892 236.353 492.116 237.25 492.116 238.43C492.116 239.617 491.892 240.523 491.446 241.15C491.006 241.777 490.362 242.09 489.516 242.09ZM489.516 241.08C489.976 241.08 490.309 240.87 490.516 240.45C490.729 240.023 490.836 239.35 490.836 238.43C490.836 237.523 490.729 236.863 490.516 236.45C490.309 236.03 489.976 235.82 489.516 235.82C489.056 235.82 488.719 236.03 488.506 236.45C488.299 236.863 488.196 237.523 488.196 238.43C488.196 239.35 488.299 240.023 488.506 240.45C488.719 240.87 489.056 241.08 489.516 241.08ZM495.282 234.79C496.182 234.79 496.875 235.097 497.362 235.71C497.855 236.317 498.102 237.183 498.102 238.31C498.102 239.097 497.985 239.773 497.752 240.34C497.518 240.907 497.182 241.34 496.742 241.64C496.308 241.94 495.792 242.09 495.192 242.09C494.765 242.09 494.348 242.02 493.942 241.88C493.542 241.733 493.195 241.527 492.902 241.26L493.332 240.32C493.965 240.813 494.568 241.06 495.142 241.06C495.668 241.06 496.075 240.837 496.362 240.39C496.655 239.937 496.808 239.29 496.822 238.45C496.668 238.757 496.435 239 496.122 239.18C495.815 239.36 495.465 239.45 495.072 239.45C494.652 239.45 494.275 239.353 493.942 239.16C493.615 238.967 493.358 238.697 493.172 238.35C492.985 238.003 492.892 237.607 492.892 237.16C492.892 236.707 492.992 236.3 493.192 235.94C493.398 235.58 493.682 235.3 494.042 235.1C494.408 234.893 494.822 234.79 495.282 234.79ZM495.352 238.42C495.725 238.42 496.028 238.3 496.262 238.06C496.495 237.82 496.612 237.507 496.612 237.12C496.612 236.733 496.495 236.42 496.262 236.18C496.028 235.933 495.725 235.81 495.352 235.81C494.978 235.81 494.678 235.93 494.452 236.17C494.232 236.41 494.122 236.727 494.122 237.12C494.122 237.513 494.232 237.83 494.452 238.07C494.678 238.303 494.978 238.42 495.352 238.42ZM503.998 240.95V242H499.218V241.05L501.638 238.44C501.924 238.127 502.134 237.84 502.268 237.58C502.401 237.32 502.468 237.063 502.468 236.81C502.468 236.483 502.371 236.237 502.178 236.07C501.991 235.903 501.721 235.82 501.368 235.82C500.741 235.82 500.098 236.067 499.438 236.56L499.008 235.62C499.288 235.367 499.648 235.167 500.088 235.02C500.528 234.867 500.971 234.79 501.418 234.79C502.131 234.79 502.694 234.967 503.108 235.32C503.528 235.667 503.738 236.137 503.738 236.73C503.738 237.137 503.648 237.52 503.468 237.88C503.294 238.24 503.001 238.643 502.588 239.09L500.838 240.95H503.998Z" fill="#838383"/>
<path d="M483.49 260.95V262H478.71V261.05L481.13 258.44C481.417 258.127 481.627 257.84 481.76 257.58C481.893 257.32 481.96 257.063 481.96 256.81C481.96 256.483 481.863 256.237 481.67 256.07C481.483 255.903 481.213 255.82 480.86 255.82C480.233 255.82 479.59 256.067 478.93 256.56L478.5 255.62C478.78 255.367 479.14 255.167 479.58 255.02C480.02 254.867 480.463 254.79 480.91 254.79C481.623 254.79 482.187 254.967 482.6 255.32C483.02 255.667 483.23 256.137 483.23 256.73C483.23 257.137 483.14 257.52 482.96 257.88C482.787 258.24 482.493 258.643 482.08 259.09L480.33 260.95H483.49ZM485.956 260.6V261.52C485.956 261.873 485.896 262.193 485.776 262.48C485.656 262.767 485.453 263.053 485.166 263.34L484.656 262.93C484.969 262.597 485.149 262.287 485.196 262H484.556V260.6H485.956ZM489.516 262.09C488.669 262.09 488.022 261.78 487.576 261.16C487.136 260.533 486.916 259.623 486.916 258.43C486.916 257.257 487.136 256.36 487.576 255.74C488.022 255.12 488.669 254.81 489.516 254.81C490.362 254.81 491.006 255.12 491.446 255.74C491.892 256.353 492.116 257.25 492.116 258.43C492.116 259.617 491.892 260.523 491.446 261.15C491.006 261.777 490.362 262.09 489.516 262.09ZM489.516 261.08C489.976 261.08 490.309 260.87 490.516 260.45C490.729 260.023 490.836 259.35 490.836 258.43C490.836 257.523 490.729 256.863 490.516 256.45C490.309 256.03 489.976 255.82 489.516 255.82C489.056 255.82 488.719 256.03 488.506 256.45C488.299 256.863 488.196 257.523 488.196 258.43C488.196 259.35 488.299 260.023 488.506 260.45C488.719 260.87 489.056 261.08 489.516 261.08ZM495.282 254.79C496.182 254.79 496.875 255.097 497.362 255.71C497.855 256.317 498.102 257.183 498.102 258.31C498.102 259.097 497.985 259.773 497.752 260.34C497.518 260.907 497.182 261.34 496.742 261.64C496.308 261.94 495.792 262.09 495.192 262.09C494.765 262.09 494.348 262.02 493.942 261.88C493.542 261.733 493.195 261.527 492.902 261.26L493.332 260.32C493.965 260.813 494.568 261.06 495.142 261.06C495.668 261.06 496.075 260.837 496.362 260.39C496.655 259.937 496.808 259.29 496.822 258.45C496.668 258.757 496.435 259 496.122 259.18C495.815 259.36 495.465 259.45 495.072 259.45C494.652 259.45 494.275 259.353 493.942 259.16C493.615 258.967 493.358 258.697 493.172 258.35C492.985 258.003 492.892 257.607 492.892 257.16C492.892 256.707 492.992 256.3 493.192 255.94C493.398 255.58 493.682 255.3 494.042 255.1C494.408 254.893 494.822 254.79 495.282 254.79ZM495.352 258.42C495.725 258.42 496.028 258.3 496.262 258.06C496.495 257.82 496.612 257.507 496.612 257.12C496.612 256.733 496.495 256.42 496.262 256.18C496.028 255.933 495.725 255.81 495.352 255.81C494.978 255.81 494.678 255.93 494.452 256.17C494.232 256.41 494.122 256.727 494.122 257.12C494.122 257.513 494.232 257.83 494.452 258.07C494.678 258.303 494.978 258.42 495.352 258.42ZM503.998 260.95V262H499.218V261.05L501.638 258.44C501.924 258.127 502.134 257.84 502.268 257.58C502.401 257.32 502.468 257.063 502.468 256.81C502.468 256.483 502.371 256.237 502.178 256.07C501.991 255.903 501.721 255.82 501.368 255.82C500.741 255.82 500.098 256.067 499.438 256.56L499.008 255.62C499.288 255.367 499.648 255.167 500.088 255.02C500.528 254.867 500.971 254.79 501.418 254.79C502.131 254.79 502.694 254.967 503.108 255.32C503.528 255.667 503.738 256.137 503.738 256.73C503.738 257.137 503.648 257.52 503.468 257.88C503.294 258.24 503.001 258.643 502.588 259.09L500.838 260.95H503.998Z" fill="#838383"/>
<path d="M483.49 281.95V283H478.71V282.05L481.13 279.44C481.417 279.127 481.627 278.84 481.76 278.58C481.893 278.32 481.96 278.063 481.96 277.81C481.96 277.483 481.863 277.237 481.67 277.07C481.483 276.903 481.213 276.82 480.86 276.82C480.233 276.82 479.59 277.067 478.93 277.56L478.5 276.62C478.78 276.367 479.14 276.167 479.58 276.02C480.02 275.867 480.463 275.79 480.91 275.79C481.623 275.79 482.187 275.967 482.6 276.32C483.02 276.667 483.23 277.137 483.23 277.73C483.23 278.137 483.14 278.52 482.96 278.88C482.787 279.24 482.493 279.643 482.08 280.09L480.33 281.95H483.49ZM485.956 281.6V282.52C485.956 282.873 485.896 283.193 485.776 283.48C485.656 283.767 485.453 284.053 485.166 284.34L484.656 283.93C484.969 283.597 485.149 283.287 485.196 283H484.556V281.6H485.956ZM489.516 283.09C488.669 283.09 488.022 282.78 487.576 282.16C487.136 281.533 486.916 280.623 486.916 279.43C486.916 278.257 487.136 277.36 487.576 276.74C488.022 276.12 488.669 275.81 489.516 275.81C490.362 275.81 491.006 276.12 491.446 276.74C491.892 277.353 492.116 278.25 492.116 279.43C492.116 280.617 491.892 281.523 491.446 282.15C491.006 282.777 490.362 283.09 489.516 283.09ZM489.516 282.08C489.976 282.08 490.309 281.87 490.516 281.45C490.729 281.023 490.836 280.35 490.836 279.43C490.836 278.523 490.729 277.863 490.516 277.45C490.309 277.03 489.976 276.82 489.516 276.82C489.056 276.82 488.719 277.03 488.506 277.45C488.299 277.863 488.196 278.523 488.196 279.43C488.196 280.35 488.299 281.023 488.506 281.45C488.719 281.87 489.056 282.08 489.516 282.08ZM495.282 275.79C496.182 275.79 496.875 276.097 497.362 276.71C497.855 277.317 498.102 278.183 498.102 279.31C498.102 280.097 497.985 280.773 497.752 281.34C497.518 281.907 497.182 282.34 496.742 282.64C496.308 282.94 495.792 283.09 495.192 283.09C494.765 283.09 494.348 283.02 493.942 282.88C493.542 282.733 493.195 282.527 492.902 282.26L493.332 281.32C493.965 281.813 494.568 282.06 495.142 282.06C495.668 282.06 496.075 281.837 496.362 281.39C496.655 280.937 496.808 280.29 496.822 279.45C496.668 279.757 496.435 280 496.122 280.18C495.815 280.36 495.465 280.45 495.072 280.45C494.652 280.45 494.275 280.353 493.942 280.16C493.615 279.967 493.358 279.697 493.172 279.35C492.985 279.003 492.892 278.607 492.892 278.16C492.892 277.707 492.992 277.3 493.192 276.94C493.398 276.58 493.682 276.3 494.042 276.1C494.408 275.893 494.822 275.79 495.282 275.79ZM495.352 279.42C495.725 279.42 496.028 279.3 496.262 279.06C496.495 278.82 496.612 278.507 496.612 278.12C496.612 277.733 496.495 277.42 496.262 277.18C496.028 276.933 495.725 276.81 495.352 276.81C494.978 276.81 494.678 276.93 494.452 277.17C494.232 277.41 494.122 277.727 494.122 278.12C494.122 278.513 494.232 278.83 494.452 279.07C494.678 279.303 494.978 279.42 495.352 279.42ZM503.998 281.95V283H499.218V282.05L501.638 279.44C501.924 279.127 502.134 278.84 502.268 278.58C502.401 278.32 502.468 278.063 502.468 277.81C502.468 277.483 502.371 277.237 502.178 277.07C501.991 276.903 501.721 276.82 501.368 276.82C500.741 276.82 500.098 277.067 499.438 277.56L499.008 276.62C499.288 276.367 499.648 276.167 500.088 276.02C500.528 275.867 500.971 275.79 501.418 275.79C502.131 275.79 502.694 275.967 503.108 276.32C503.528 276.667 503.738 277.137 503.738 277.73C503.738 278.137 503.648 278.52 503.468 278.88C503.294 279.24 503.001 279.643 502.588 280.09L500.838 281.95H503.998Z" fill="#838383"/>
</g>
<circle cx="458.371" cy="280.371" r="7.37069" fill="#9DC2D4"/>
<circle cx="458.371" cy="259.371" r="7.37069" fill="#7CE0AD"/>
<circle cx="458.371" cy="238.371" r="7.37069" fill="#25AD75"/>
<defs>
<filter id="filter0_d" x="25" y="22" width="526" height="300" filterUnits="userSpaceOnUse" color-interpolation-filters="sRGB">
<feFlood flood-opacity="0" result="BackgroundImageFix"/>
<feColorMatrix in="SourceAlpha" type="matrix" values="0 0 0 0 0 0 0 0 0 0 0 0 0 0 0 0 0 0 127 0"/>
<feOffset dy="1"/>
<feGaussianBlur stdDeviation="1.5"/>
<feColorMatrix type="matrix" values="0 0 0 0 0 0 0 0 0 0 0 0 0 0 0 0 0 0 0.04 0"/>
<feBlend mode="normal" in2="BackgroundImageFix" result="effect1_dropShadow"/>
<feBlend mode="normal" in="SourceGraphic" in2="effect1_dropShadow" result="shape"/>
</filter>
<filter id="filter1_d" x="344.479" y="153" width="193.521" height="160" filterUnits="userSpaceOnUse" color-interpolation-filters="sRGB">
<feFlood flood-opacity="0" result="BackgroundImageFix"/>
<feColorMatrix in="SourceAlpha" type="matrix" values="0 0 0 0 0 0 0 0 0 0 0 0 0 0 0 0 0 0 127 0"/>
<feOffset dx="3" dy="3"/>
<feGaussianBlur stdDeviation="5"/>
<feColorMatrix type="matrix" values="0 0 0 0 0.2 0 0 0 0 0.2 0 0 0 0 0.2 0 0 0 0.08 0"/>
<feBlend mode="normal" in2="BackgroundImageFix" result="effect1_dropShadow"/>
<feBlend mode="normal" in="SourceGraphic" in2="effect1_dropShadow" result="shape"/>
</filter>
<clipPath id="clip0">
<rect width="175" height="140" fill="white" transform="translate(351 160)"/>
</clipPath>
</defs>
</svg>
