<svg width="71" height="53" viewBox="0 0 71 53" fill="none" xmlns="http://www.w3.org/2000/svg">
<g clip-path="url(#clip0_4311_17856)">
<path d="M14.4648 20.9981C14.4648 15.6269 14.4648 12.9413 15.5101 10.8898C16.4296 9.08525 17.8968 7.61809 19.7013 6.69862C21.7529 5.65332 24.4384 5.65332 29.8096 5.65332H41.5201C46.8913 5.65332 49.5768 5.65332 51.6284 6.69862C53.4329 7.61809 54.9001 9.08525 55.8195 10.8898C56.8648 12.9413 56.8648 15.6269 56.8648 20.9981V32.7086C56.8648 38.0797 56.8648 40.7653 55.8195 42.8168C54.9001 44.6214 53.4329 46.0886 51.6284 47.008C49.5768 48.0533 46.8913 48.0533 41.5201 48.0533H29.8096C24.4384 48.0533 21.7529 48.0533 19.7013 47.008C17.8968 46.0886 16.4296 44.6214 15.5101 42.8168C14.4648 40.7653 14.4648 38.0797 14.4648 32.7086V20.9981Z" fill="#00005B"/>
<path d="M32.3168 32.25H25.7464L24.4096 36.5173C24.3724 36.6756 24.2267 36.7877 24.0682 36.7799H20.7404C20.5506 36.7799 20.4842 36.6729 20.5413 36.459L26.2299 19.725C26.2868 19.55 26.3437 19.3789 26.4006 19.155C26.475 18.7658 26.5131 18.3702 26.5144 17.9736C26.4981 17.8564 26.5992 17.7527 26.7135 17.7694H31.2359C31.3684 17.7694 31.4443 17.818 31.4635 17.9152L37.9202 36.4881C37.977 36.6828 37.9201 36.78 37.7494 36.7799H34.0518C33.9221 36.7946 33.7983 36.7057 33.7674 36.5757L32.3168 32.25ZM26.7703 28.6518H31.2644C30.526 26.1288 29.6927 23.6388 29.0174 21.0961C28.2521 23.7337 27.5454 26.1799 26.7703 28.6518Z" fill="#9999FF"/>
<path d="M42.7222 30.6022C42.9836 32.769 44.8032 33.8021 46.818 33.758C47.9541 33.7357 49.1683 33.5594 50.2299 33.1297C50.3245 33.0523 50.3722 33.1006 50.3722 33.2756V36.047C50.3811 36.1912 50.3209 36.32 50.2014 36.3971C48.882 36.9965 47.3673 37.1772 45.9362 37.1543C41.6693 37.1543 38.7389 34.1478 38.7401 29.7736C38.729 25.6284 41.4181 22.1313 45.5949 22.1313C49.1354 22.0395 51.5866 24.8742 51.5965 28.4025C51.5965 29.0451 51.5606 29.69 51.4827 30.3279C51.4676 30.4593 51.3557 30.5613 51.2267 30.5613C48.399 30.5613 45.5576 30.6022 42.7222 30.6022ZM42.7222 27.9447C44.298 27.9447 45.883 28.0004 47.4579 27.9301C47.6947 27.9058 47.8704 27.861 47.8704 27.6148C47.8376 26.3067 46.7337 25.231 45.4528 25.281C43.905 25.1851 42.9145 26.4915 42.7222 27.9447Z" fill="#9999FF"/>
</g>
<defs>
<clipPath id="clip0_4311_17856">
<rect width="42.4" height="42.4" fill="white" transform="translate(14.4648 5.65332)"/>
</clipPath>
</defs>
</svg>
