<svg width="67" height="50" viewBox="0 0 67 50" fill="none" xmlns="http://www.w3.org/2000/svg">
<g clip-path="url(#clip0_3758_17531)">
<path d="M46.696 7.33325C48.4311 7.33325 49.8414 8.7257 49.8694 10.4546L49.8698 10.5071V39.4239C49.8698 41.159 48.4769 42.5693 46.7485 42.5973L46.696 42.5977H21.3056C19.5705 42.5977 18.1603 41.2048 18.1323 39.4764L18.1318 39.4239V10.5071C18.1318 8.7715 19.5247 7.3617 21.2532 7.33368L21.3056 7.33325H46.696ZM46.696 9.09648H21.3056C20.5402 9.09648 19.9149 9.70985 19.8955 10.4707L19.8951 10.5071V39.4239C19.8951 40.1893 20.5084 40.8147 21.2693 40.834L21.3056 40.8345H46.696C47.4619 40.8345 48.0868 40.2211 48.1061 39.4603L48.1066 39.4239V10.5071C48.1066 9.72947 47.474 9.09648 46.696 9.09648ZM26.0663 30.2551L30.0336 33.7816L26.0663 37.308V30.2551ZM29.5928 12.6229V22.6341C31.3534 22.061 33.8144 21.439 36.2049 21.439C38.3846 21.439 39.6894 22.296 40.4 23.0149C41.9012 24.5336 41.937 26.464 41.935 26.7214L41.9349 26.7287L41.9353 37.308H38.4089V26.7772C38.3917 25.9542 37.995 24.9655 36.2049 24.9655C32.6552 24.9655 28.6778 26.7329 28.5597 26.7858L28.5573 26.7869L26.0663 27.9154V12.6229H29.5928ZM41.9353 12.6229C41.6973 14.6259 40.8853 16.5461 39.2905 18.3534H35.7641C37.1499 16.5351 38.0201 14.6215 38.4089 12.6229H41.9353Z" fill="#430098"/>
</g>
<defs>
<clipPath id="clip0_3758_17531">
<rect width="35.3333" height="35.3333" fill="white" transform="translate(16.334 7.33325)"/>
</clipPath>
</defs>
</svg>
