<svg width="72" height="53" viewBox="0 0 72 53" fill="none" xmlns="http://www.w3.org/2000/svg">
<g clip-path="url(#clip0_4311_17855)">
<path d="M14.7988 20.9981C14.7988 15.6269 14.7988 12.9413 15.8441 10.8898C16.7636 9.08525 18.2308 7.61809 20.0353 6.69862C22.0868 5.65332 24.7724 5.65332 30.1436 5.65332H41.8541C47.2252 5.65332 49.9108 5.65332 51.9623 6.69862C53.7669 7.61809 55.2341 9.08525 56.1535 10.8898C57.1988 12.9413 57.1988 15.6269 57.1988 20.9981V32.7086C57.1988 38.0797 57.1988 40.7653 56.1535 42.8168C55.2341 44.6214 53.7669 46.0886 51.9623 47.008C49.9108 48.0533 47.2252 48.0533 41.8541 48.0533H30.1436C24.7724 48.0533 22.0868 48.0533 20.0353 47.008C18.2308 46.0886 16.7636 44.6214 15.8441 42.8168C14.7988 40.7653 14.7988 38.0797 14.7988 32.7086V20.9981Z" fill="#330000"/>
<path d="M35.3461 32.2992H28.7757L27.4389 36.5584C27.4017 36.7166 27.256 36.8287 27.0975 36.821H23.7697C23.5799 36.821 23.5135 36.714 23.5706 36.5001L29.2592 19.6966C29.3161 19.5216 29.373 19.3223 29.4299 19.0986C29.5043 18.7093 29.5424 18.3137 29.5437 17.9171C29.5274 17.7999 29.6304 17.6964 29.7428 17.7129H34.2652C34.3977 17.7129 34.4736 17.7615 34.4928 17.8588L40.9495 36.5292C41.0063 36.7238 40.9494 36.8211 40.7788 36.8209H37.0811C36.9514 36.8357 36.8276 36.7468 36.7967 36.6167L35.3461 32.2992ZM29.7996 28.6234H34.2937C33.5553 26.1004 32.722 23.6105 32.0467 21.0677C31.318 23.6148 30.523 26.1515 29.7996 28.6234Z" fill="#FF9A00"/>
<path d="M44.7889 20.8051C44.4988 20.817 44.2095 20.766 43.94 20.6555C43.6704 20.5449 43.4266 20.3771 43.2246 20.1633C43.0231 19.9402 42.8666 19.6784 42.7641 19.393C42.6615 19.1077 42.615 18.8043 42.6272 18.5005C42.6169 18.1996 42.6685 17.8999 42.7788 17.6209C42.8891 17.3419 43.0555 17.0899 43.2672 16.8814C43.4768 16.675 43.7243 16.5133 43.9952 16.4056C44.2662 16.298 44.5553 16.2465 44.8458 16.2542C45.5285 16.2542 46.0642 16.4632 46.4529 16.8814C46.6491 17.0987 46.8016 17.3535 46.9016 17.6313C47.0017 17.9092 47.0473 18.2045 47.0359 18.5005C47.0478 18.8055 46.9998 19.1099 46.8948 19.3955C46.7897 19.6812 46.6298 19.9423 46.4244 20.1633C46.2098 20.3803 45.9537 20.5493 45.6722 20.6598C45.3907 20.7703 45.09 20.8197 44.7889 20.8051ZM42.8263 36.5291V22.5846C42.8263 22.4096 42.9019 22.322 43.0539 22.322H46.5524C46.704 22.322 46.7798 22.4096 46.78 22.5846V36.5291C46.78 36.7238 46.7041 36.821 46.5524 36.8209H43.0823C42.9117 36.8209 42.8263 36.7236 42.8263 36.5291Z" fill="#FF9A00"/>
</g>
<defs>
<clipPath id="clip0_4311_17855">
<rect width="42.4" height="42.4" fill="white" transform="translate(14.7988 5.65332)"/>
</clipPath>
</defs>
</svg>
