<svg width="40" height="40" viewBox="0 0 40 40" fill="none" xmlns="http://www.w3.org/2000/svg">
<path d="M40 12.3077C40 5.51034 34.4897 0 27.6923 0H12.3077C5.51034 0 0 5.51034 0 12.3077V27.6923C0 34.4897 5.51034 40 12.3077 40H27.6923C34.4897 40 40 34.4897 40 27.6923V12.3077Z" fill="#213B8B"/>
<path fill-rule="evenodd" clip-rule="evenodd" d="M20.4705 9.6176L20.3542 9.25818C20.2428 8.91394 19.7587 8.91394 19.6475 9.25818L19.5312 9.6176C19.4814 9.77129 19.3388 9.87559 19.1777 9.87559H18.8019C18.4419 9.87559 18.2923 10.3386 18.5835 10.5513L18.8877 10.7734C19.0178 10.8686 19.0725 11.0372 19.0226 11.1911L18.9064 11.5503C18.7952 11.8945 19.187 12.1807 19.4782 11.968L19.7824 11.7459C19.9128 11.6507 20.0892 11.6507 20.2193 11.7459L20.5235 11.968C20.8147 12.1807 21.2065 11.8945 21.0953 11.5503L20.9791 11.1911C20.9292 11.0372 20.9839 10.8686 21.114 10.7734L21.4182 10.5513C21.7096 10.3386 21.5598 9.87559 21.1998 9.87559H20.824C20.6629 9.87559 20.5203 9.77153 20.4705 9.6176ZM24.9266 10.829L24.8104 10.4698C24.6992 10.1255 24.2148 10.1255 24.1036 10.4698L23.9873 10.829C23.9375 10.9829 23.7949 11.0872 23.6338 11.0872H23.258C22.898 11.0872 22.7485 11.5502 23.0397 11.7629L23.3438 11.985C23.474 12.0802 23.5286 12.2488 23.4787 12.4027L23.3625 12.7621C23.2513 13.1064 23.6432 13.3926 23.9344 13.1798L24.2385 12.9577C24.3689 12.8626 24.5453 12.8626 24.6754 12.9577L24.9796 13.1798C25.2708 13.3926 25.6626 13.1064 25.5514 12.7621L25.4352 12.4027C25.3853 12.2488 25.4397 12.0802 25.5701 11.985L25.8743 11.7629C26.1657 11.5502 26.0159 11.0872 25.6559 11.0872H25.2801C25.1191 11.0872 24.9762 10.9829 24.9266 10.829ZM15.8229 10.4698L15.9392 10.829C15.989 10.9829 16.1316 11.0872 16.2927 11.0872H16.6685C17.0285 11.0872 17.1783 11.5502 16.8868 11.7629L16.5827 11.985C16.4526 12.0802 16.3979 12.2488 16.4478 12.4027L16.564 12.7621C16.6752 13.1064 16.2833 13.3926 15.9921 13.1798L15.688 12.9577C15.5579 12.8626 15.3815 12.8626 15.2511 12.9577L14.9469 13.1798C14.6557 13.3926 14.2639 13.1064 14.3751 12.7621L14.4913 12.4027C14.5412 12.2488 14.4865 12.0802 14.3564 11.985L14.0522 11.7629C13.761 11.5502 13.9106 11.0872 14.2706 11.0872H14.6464C14.8074 11.0872 14.95 10.9829 14.9999 10.829L15.1161 10.4698C15.2274 10.1255 15.7117 10.1255 15.8229 10.4698ZM12.081 14.4188L11.9648 14.0596C11.8533 13.7154 11.369 13.7154 11.258 14.0596L11.1418 14.4188C11.0919 14.5727 10.9493 14.677 10.7882 14.677H10.4124C10.0524 14.677 9.90288 15.14 10.1941 15.3527L10.4982 15.5748C10.6284 15.67 10.683 15.8386 10.6332 15.9925L10.5169 16.3517C10.4057 16.696 10.7976 16.9821 11.0888 16.7694L11.3929 16.5473C11.5233 16.4522 11.6997 16.4522 11.8299 16.5473L12.134 16.7694C12.4252 16.9821 12.8171 16.696 12.7059 16.3517L12.5896 15.9925C12.5398 15.8386 12.5944 15.67 12.7246 15.5748L13.0287 15.3527C13.3201 15.14 13.1703 14.677 12.8104 14.677H12.4345C12.2735 14.677 12.1309 14.5727 12.081 14.4188ZM28.7007 14.0596L28.817 14.4188C28.8668 14.5727 29.0094 14.677 29.1705 14.677H29.5463C29.9063 14.677 30.0561 15.14 29.7647 15.3527L29.4605 15.5748C29.3304 15.67 29.2757 15.8386 29.3256 15.9925L29.4418 16.3517C29.553 16.696 29.1612 16.9821 28.87 16.7694L28.5658 16.5473C28.4354 16.4522 28.2593 16.4522 28.1289 16.5473L27.8247 16.7694C27.5335 16.9821 27.1417 16.696 27.2529 16.3517L27.3691 15.9925C27.419 15.8386 27.3643 15.67 27.2342 15.5748L26.93 15.3527C26.6388 15.14 26.7884 14.677 27.1484 14.677H27.5242C27.6852 14.677 27.8279 14.5727 27.8777 14.4188L27.9939 14.0596C28.1052 13.7154 28.5895 13.7154 28.7007 14.0596ZM20.4705 28.5767L20.3542 28.2173C20.2428 27.873 19.7587 27.873 19.6475 28.2173L19.5312 28.5767C19.4814 28.7306 19.3388 28.8347 19.1777 28.8347H18.8019C18.4419 28.8347 18.2923 29.2977 18.5835 29.5104L18.8877 29.7325C19.0178 29.8277 19.0725 29.9963 19.0226 30.1502L18.9064 30.5094C18.7952 30.8536 19.187 31.1398 19.4782 30.9271L19.7824 30.705C19.9128 30.6098 20.0892 30.6098 20.2193 30.705L20.5235 30.9271C20.8147 31.1398 21.2065 30.8536 21.0953 30.5094L20.9791 30.1502C20.9292 29.9963 20.9839 29.8277 21.114 29.7325L21.4182 29.5104C21.7096 29.2977 21.5598 28.8347 21.1998 28.8347H20.824C20.6629 28.8347 20.5203 28.7306 20.4705 28.5767ZM15.5347 26.9278L15.6509 27.287C15.7008 27.4409 15.8434 27.545 16.0045 27.545H16.3803C16.7402 27.545 16.89 28.008 16.5986 28.2207L16.2945 28.4428C16.1643 28.5379 16.1097 28.7066 16.1595 28.8605L16.2758 29.2199C16.387 29.5641 15.9951 29.8503 15.7039 29.6376L15.3998 29.4155C15.2694 29.3204 15.0932 29.3204 14.9628 29.4155L14.6587 29.6376C14.3675 29.8503 13.9756 29.5641 14.0868 29.2199L14.2031 28.8605C14.2529 28.7066 14.1983 28.5379 14.0681 28.4428L13.764 28.2207C13.4728 28.008 13.6223 27.545 13.9823 27.545H14.3581C14.5192 27.545 14.6618 27.4407 14.7117 27.287L14.8279 26.9278C14.9391 26.5835 15.4235 26.5835 15.5347 26.9278ZM25.3688 27.287L25.2526 26.9278C25.1414 26.5835 24.657 26.5835 24.5458 26.9278L24.4295 27.287C24.3797 27.4407 24.2371 27.545 24.076 27.545H23.7002C23.3402 27.545 23.1907 28.008 23.4819 28.2207L23.786 28.4428C23.9162 28.5379 23.9708 28.7066 23.921 28.8605L23.8047 29.2199C23.6935 29.5641 24.0854 29.8503 24.3766 29.6376L24.6807 29.4155C24.8111 29.3204 24.9873 29.3204 25.1176 29.4155L25.4218 29.6376C25.713 29.8503 26.1049 29.5641 25.9936 29.2199L25.8774 28.8605C25.8276 28.7066 25.882 28.5379 26.0123 28.4428L26.3165 28.2207C26.6079 28.008 26.4581 27.545 26.0981 27.545H25.7223C25.5613 27.545 25.4187 27.4409 25.3688 27.287ZM29.7839 18.7377L29.9001 19.0969C29.95 19.2508 30.0926 19.3549 30.2536 19.3549H30.6295C30.9894 19.3549 31.1392 19.8179 30.8478 20.0306L30.5436 20.2527C30.4133 20.3479 30.3589 20.5165 30.4087 20.6704L30.525 21.0298C30.6362 21.3741 30.2443 21.6603 29.9531 21.4475L29.649 21.2254C29.5186 21.1303 29.3424 21.1303 29.212 21.2254L28.9079 21.4475C28.6167 21.6603 28.2248 21.3741 28.336 21.0298L28.4523 20.6704C28.5021 20.5165 28.4475 20.3479 28.3173 20.2527L28.0132 20.0306C27.722 19.8179 27.8715 19.3549 28.2315 19.3549H28.6073C28.7684 19.3549 28.911 19.2506 28.9609 19.0969L29.0771 18.7377C29.1881 18.3935 29.6727 18.3935 29.7839 18.7377ZM28.5001 23.7453L28.3839 23.3859C28.2726 23.0416 27.788 23.0416 27.6771 23.3859L27.5608 23.7453C27.511 23.899 27.3684 24.0033 27.2073 24.0033H26.8315C26.4715 24.0033 26.322 24.4663 26.6132 24.679L26.9173 24.9011C27.0474 24.9962 27.1021 25.1649 27.0522 25.3188L26.936 25.678C26.8248 26.0222 27.2167 26.3084 27.5079 26.0957L27.812 25.8736C27.9424 25.7784 28.1185 25.7784 28.2489 25.8736L28.5531 26.0957C28.8443 26.3084 29.2361 26.0222 29.1249 25.678L29.0087 25.3188C28.9588 25.1649 29.0132 24.9962 29.1436 24.9011L29.4478 24.679C29.7392 24.4663 29.5894 24.0033 29.2294 24.0033H28.8536C28.6926 24.0033 28.5499 23.8992 28.5001 23.7453ZM12.3712 23.3859L12.4874 23.7453C12.5373 23.8992 12.6799 24.0033 12.8409 24.0033H13.2168C13.5767 24.0033 13.7265 24.4663 13.4351 24.679L13.131 24.9011C13.0008 24.9962 12.9462 25.1649 12.996 25.3188L13.1123 25.678C13.2235 26.0222 12.8316 26.3084 12.5404 26.0957L12.2363 25.8736C12.1061 25.7784 11.9297 25.7784 11.7993 25.8736L11.4952 26.0957C11.204 26.3084 10.8121 26.0222 10.9233 25.678L11.0396 25.3188C11.0894 25.1649 11.0348 24.9962 10.9046 24.9011L10.6005 24.679C10.3093 24.4663 10.4588 24.0033 10.8188 24.0033H11.1946C11.3557 24.0033 11.4983 23.899 11.5482 23.7453L11.6644 23.3859C11.7756 23.0416 12.26 23.0416 12.3712 23.3859ZM11.0409 19.0969L10.9246 18.7377C10.8134 18.3935 10.3288 18.3935 10.2178 18.7377L10.1016 19.0969C10.0517 19.2506 9.90912 19.3549 9.74805 19.3549H9.37225C9.01226 19.3549 8.8627 19.8179 9.15391 20.0306L9.45805 20.2527C9.58819 20.3479 9.64284 20.5165 9.59299 20.6704L9.47675 21.0298C9.36554 21.3741 9.7574 21.6603 10.0486 21.4475L10.3527 21.2254C10.4831 21.1303 10.6593 21.1303 10.7897 21.2254L11.0938 21.4475C11.385 21.6603 11.7769 21.3741 11.6657 21.0298L11.5494 20.6704C11.4996 20.5165 11.554 20.3479 11.6844 20.2527L11.9885 20.0306C12.28 19.8179 12.1302 19.3549 11.7702 19.3549H11.3944C11.2333 19.3549 11.0905 19.2508 11.0409 19.0969Z" fill="#F2C004"/>
</svg>
