<svg width="44" height="44" viewBox="0 0 44 44" fill="none" xmlns="http://www.w3.org/2000/svg">
<rect width="44" height="44" rx="22" fill="#B2C9D7"/>
<path d="M26.0506 33.0476H24.3418V17.7333H18V18.6857H20.6962V30.8762C20.6962 32.019 20.2911 32.7048 19.481 32.9333C19.1266 33.0095 18.6329 33.0476 18 33.0476V34H27C27 33.4413 26.8354 33.1365 26.5063 33.0857C26.3797 33.0603 26.2278 33.0476 26.0506 33.0476ZM24.7595 12.4C24.7595 11.4349 24.3291 10.7238 23.4684 10.2667C23.1139 10.0889 22.7468 10 22.3671 10C21.4051 10 20.7089 10.4317 20.2785 11.2952C20.1013 11.6508 20.0127 12.019 20.0127 12.4C20.0127 13.4159 20.4557 14.127 21.3418 14.5333C21.6709 14.6857 22.0127 14.7619 22.3671 14.7619C23.3797 14.7619 24.1013 14.3302 24.5316 13.4667C24.6835 13.1365 24.7595 12.781 24.7595 12.4Z" fill="#F9FCFF"/>
</svg>
