<svg width="40" height="40" viewBox="0 0 40 40" fill="none" xmlns="http://www.w3.org/2000/svg">
<path d="M40 12.3077C40 5.51034 34.4897 0 27.6923 0H12.3077C5.51034 0 0 5.51034 0 12.3077V27.6923C0 34.4897 5.51034 40 12.3077 40H27.6923C34.4897 40 40 34.4897 40 27.6923V12.3077Z" fill="url(#paint0_linear_2941_10603)"/>
<path fill-rule="evenodd" clip-rule="evenodd" d="M27.7 14.1007H20.792L20.44 13.0393C19.9723 11.7628 18.7192 10.9113 17.316 10.9165H12.3C10.4775 10.9165 9 12.3421 9 14.1007V27.899C9 29.6576 10.4775 31.0832 12.3 31.0832H27.7C29.5225 31.0832 31 29.6576 31 27.899V17.2849C31 15.5264 29.5225 14.1007 27.7 14.1007ZM20.7805 19.7155C20.6759 19.6189 20.5525 19.5432 20.4175 19.4926C20.1497 19.3865 19.8493 19.3865 19.5815 19.4926C19.4465 19.5432 19.3231 19.6189 19.2185 19.7155L17.0185 21.8383C16.5872 22.2545 16.5872 22.9293 17.0185 23.3455C17.4498 23.7617 18.1492 23.7617 18.5805 23.3455L18.8995 23.0271V25.7761C18.8995 26.3623 19.392 26.8375 19.9995 26.8375C20.607 26.8375 21.0995 26.3623 21.0995 25.7761V23.0271L21.4185 23.3455C21.625 23.5465 21.9062 23.6595 22.1995 23.6595C22.4928 23.6595 22.7739 23.5465 22.9805 23.3455C23.1887 23.1462 23.3059 22.8749 23.3059 22.5919C23.3059 22.3089 23.1887 22.0376 22.9805 21.8383L20.7805 19.7155ZM27.7004 28.9602C28.3079 28.9602 28.8004 28.485 28.8004 27.8988V17.2847C28.8004 16.6985 28.3079 16.2233 27.7004 16.2233H20.0004C19.5275 16.2245 19.1067 15.9339 18.9554 15.5016L18.3614 13.7609C18.21 13.3286 17.7893 13.0379 17.3164 13.0391H12.3004C11.6928 13.0391 11.2004 13.5143 11.2004 14.1005V27.8988C11.2004 28.485 11.6928 28.9602 12.3004 28.9602H27.7004Z" fill="white"/>
<defs>
<linearGradient id="paint0_linear_2941_10603" x1="20" y1="0" x2="20" y2="40" gradientUnits="userSpaceOnUse">
<stop stop-color="#78BFFF"/>
<stop offset="1" stop-color="#4AA8FE"/>
</linearGradient>
</defs>
</svg>
