<svg width="479" height="431" viewBox="0 0 479 431" fill="none" xmlns="http://www.w3.org/2000/svg">
<path d="M513.405 418.482H52.4203C48.8537 418.482 46.1787 421.454 46.1787 424.723C46.1787 428.29 49.1509 430.965 52.4203 430.965H513.405C516.971 430.965 519.646 427.993 519.646 424.723C519.646 421.454 516.971 418.482 513.405 418.482Z" fill="#D7F1F9"/>
<path d="M138.614 283.546V257.39H127.022C125.536 250.852 122.861 244.61 119.295 238.963L127.617 230.641L109.189 212.213L100.867 220.535C95.22 216.969 88.9784 214.294 82.4396 212.808V201.216H56.2845V212.808C49.7457 214.294 43.5041 216.969 37.857 220.535L29.5349 212.213L11.1074 230.641L19.4295 238.963C15.8629 244.61 13.1879 250.852 11.7018 257.39H0.110352V283.546H11.7018C13.1879 290.084 15.8629 296.326 19.4295 301.973L11.1074 310.295L29.5349 328.723L37.857 320.401C43.5041 323.967 49.7457 326.642 56.2845 328.128V339.72H82.4396V328.128C88.9784 326.642 95.22 323.967 100.867 320.401L109.189 328.723L127.617 310.295L119.295 301.973C122.861 296.326 125.536 290.084 127.022 283.546H138.614ZM69.362 299.298C53.3123 299.298 40.5319 286.518 40.5319 270.468C40.5319 254.418 53.3123 241.638 69.362 241.638C85.4118 241.638 98.1922 254.418 98.1922 270.468C98.1922 286.221 85.1146 299.298 69.362 299.298Z" fill="#BADBFF"/>
<path d="M435.237 113.833H116.323C97.301 113.833 81.8457 129.288 81.8457 148.31V344.176C81.8457 363.198 97.301 378.654 116.323 378.654H435.237C454.259 378.654 469.715 363.198 469.715 344.176V148.31C469.417 129.288 454.259 113.833 435.237 113.833Z" fill="#5183BB"/>
<path d="M116.323 360.227C107.407 360.227 100.273 353.094 100.273 344.177V148.311C100.273 139.394 107.407 132.261 116.323 132.261H415.324C424.241 132.261 431.374 139.394 431.374 148.311V344.177C431.374 353.094 424.241 360.227 415.324 360.227H116.323Z" fill="url(#paint0_linear)"/>
<path d="M459.907 249.662C459.907 244.015 455.151 239.26 449.504 239.26C443.857 239.26 439.102 244.015 439.102 249.662C439.102 255.31 443.857 260.065 449.504 260.065C455.151 260.065 459.907 255.31 459.907 249.662Z" fill="white"/>
<path d="M197.76 276.115H135.641C133.561 276.115 131.777 277.898 131.777 279.978C131.777 282.059 133.561 283.842 135.641 283.842H197.76C199.84 283.842 201.623 282.059 201.623 279.978C201.326 277.601 199.84 276.115 197.76 276.115Z" fill="#5183BB"/>
<path d="M197.76 292.759H135.641C133.561 292.759 131.777 294.542 131.777 296.623C131.777 298.703 133.561 300.486 135.641 300.486H197.76C199.84 300.486 201.623 298.703 201.623 296.623C201.326 294.245 199.84 292.759 197.76 292.759Z" fill="#5183BB"/>
<path d="M197.76 309.04H135.641C133.561 309.04 131.777 310.823 131.777 312.903C131.777 314.984 133.561 316.767 135.641 316.767H197.76C199.84 316.767 201.623 314.984 201.623 312.903C201.326 310.526 199.84 309.04 197.76 309.04Z" fill="#5183BB"/>
<path d="M290.492 334.965H140.1C137.128 334.965 134.75 337.342 134.75 340.315C134.75 343.287 137.128 345.664 140.1 345.664H290.789C293.761 345.664 296.139 343.287 296.139 340.315C296.139 337.342 293.464 334.965 290.492 334.965Z" fill="#BADBFF"/>
<path d="M228.66 288.896H214.988V315.051H228.66V288.896Z" fill="#5183BB"/>
<path d="M252.142 279.384H238.47V315.05H252.142V279.384Z" fill="#BADBFF"/>
<path d="M276.512 270.765H262.84V315.05H276.512V270.765Z" fill="#5183BB"/>
<g filter="url(#filter0_d)">
<path d="M446.276 171.648C470.007 171.648 489.244 152.41 489.244 128.68C489.244 104.949 470.007 85.7119 446.276 85.7119C422.546 85.7119 403.309 104.949 403.309 128.68C403.309 152.41 422.546 171.648 446.276 171.648Z" fill="url(#paint1_linear)"/>
</g>
<g filter="url(#filter1_d)">
<path d="M330.535 101.869C330.535 73.0384 306.461 49.5582 277.333 50.7471C250.881 51.6388 229.184 73.3356 228.292 99.788C227.401 128.915 250.584 152.99 279.414 152.99C282.089 152.99 284.764 152.693 287.439 152.396C288.628 152.098 289.817 152.396 291.005 152.693L302.894 157.151L304.975 148.829C305.272 147.046 306.461 145.262 307.947 144.371C321.619 134.86 330.535 119.404 330.535 101.869Z" fill="#BADBFF"/>
</g>
<path d="M298.434 91.4651H260.687C258.31 91.4651 256.526 93.2484 256.526 95.6261C256.526 98.0039 258.31 99.7872 260.687 99.7872H298.434C300.812 99.7872 302.595 98.0039 302.595 95.6261C302.595 93.2484 300.812 91.4651 298.434 91.4651Z" fill="white"/>
<path d="M283.871 108.109H260.391C258.013 108.109 256.229 109.893 256.229 112.27C256.229 114.648 258.013 116.431 260.391 116.431H283.871C286.248 116.431 288.032 114.648 288.032 112.27C288.032 110.19 286.248 108.109 283.871 108.109Z" fill="white"/>
<path d="M282.019 206.269C282.019 206.269 281.722 186.058 278.155 185.166C274.589 184.572 276.669 197.352 276.669 197.352C276.669 197.352 271.914 197.055 270.428 199.135C268.942 201.513 268.347 211.321 272.508 212.51C276.372 213.996 282.019 206.269 282.019 206.269Z" fill="#FFE27C"/>
<path d="M374.155 283.545C375.938 284.734 371.777 329.614 369.994 343.88C368.211 357.85 379.208 412.835 379.208 412.835L368.211 412.24C368.211 412.24 348.594 353.986 348.297 346.555C348 339.125 339.678 290.084 339.678 290.084L374.155 283.545Z" fill="#004E82"/>
<path d="M377.721 283.545C377.721 283.545 370.588 305.242 359.888 315.05C349.189 325.156 335.814 347.15 335.814 347.15L339.678 412.835H327.492C327.492 412.835 314.414 346.853 314.414 341.206C314.414 335.558 332.247 276.412 332.247 276.412L377.721 283.545Z" fill="#5183BB"/>
<path d="M333.438 181.898C333.438 181.898 329.574 201.514 344.435 203.297C358.998 205.081 359.593 175.656 359.593 175.656C359.593 175.656 342.057 170.603 340.868 172.089C339.679 173.576 339.679 173.576 339.679 173.576L333.438 181.898Z" fill="#FFE27C"/>
<path d="M342.058 200.622H340.869C334.33 201.216 328.98 207.16 325.116 212.51L304.014 235.693L282.02 206.269L272.509 212.51C272.509 212.51 296.881 258.579 306.689 256.499C316.2 254.418 327.791 241.043 327.791 241.043C327.791 241.043 325.414 281.762 323.927 287.112C323.927 287.112 362.566 304.351 378.318 288.004L373.86 221.724C372.671 213.699 367.024 207.16 358.999 205.08L342.058 200.622Z" fill="url(#paint2_linear)"/>
<path d="M339.68 412.836V423.238H314.713C312.93 423.238 312.038 420.563 313.822 419.672C318.28 417.294 323.927 414.024 327.494 412.538C334.032 410.161 339.68 412.836 339.68 412.836Z" fill="#5183BB"/>
<path d="M379.208 412.836V423.238H355.133C353.053 423.238 352.161 420.266 353.944 419.077C358.105 416.699 363.455 414.024 366.725 412.538C373.561 410.161 379.208 412.836 379.208 412.836Z" fill="#5183BB"/>
<path d="M342.65 222.021C342.65 222.021 331.356 212.511 337.003 203C342.65 193.489 346.811 188.436 345.919 182.789C345.919 182.789 345.622 175.656 340.569 180.114C340.569 180.114 338.489 183.68 333.733 182.194C333.733 182.194 329.572 161.686 351.864 157.525C375.047 152.77 381.288 170.008 379.505 181.005C377.721 192.003 369.697 192.3 379.505 205.972C389.313 219.347 369.399 243.124 342.65 222.021Z" fill="#004E82"/>
<path d="M464.894 122.933L454.188 121.921C453.513 121.859 452.93 121.43 452.654 120.786L448.819 111.49C448.206 109.956 446.027 109.956 445.414 111.49L441.61 120.786C441.364 121.43 440.751 121.859 440.076 121.921L429.369 122.933C427.774 123.087 427.13 125.081 428.326 126.154L436.394 133.241C436.916 133.701 437.131 134.376 436.977 135.051L434.554 144.99C434.186 146.555 435.873 147.843 437.284 147.015L446.211 141.769C446.794 141.432 447.5 141.432 448.083 141.769L457.01 147.015C458.422 147.843 460.109 146.586 459.74 144.99L457.347 135.051C457.194 134.376 457.409 133.701 457.93 133.241L465.999 126.154C467.164 125.081 466.49 123.087 464.894 122.933Z" fill="white"/>
<path fill-rule="evenodd" clip-rule="evenodd" d="M200.585 184.089C200.585 195.751 191.131 205.206 179.468 205.206C167.806 205.206 158.351 195.751 158.351 184.089C158.351 172.426 167.806 162.972 179.468 162.972C191.131 162.972 200.585 172.426 200.585 184.089ZM135.314 253.437C135.314 229.091 155.122 209.283 179.468 209.283C203.815 209.283 223.622 229.091 223.622 253.437C223.622 254.497 222.762 255.357 221.703 255.357H137.234C136.175 255.357 135.314 254.497 135.314 253.437Z" fill="url(#paint3_linear)"/>
<circle cx="234.907" cy="184.097" r="21.1256" fill="#FFE27C"/>
<path d="M243.594 181.051L238.486 180.568C238.164 180.539 237.886 180.334 237.754 180.027L235.925 175.592C235.632 174.86 234.593 174.86 234.3 175.592L232.485 180.027C232.368 180.334 232.075 180.539 231.753 180.568L226.645 181.051C225.884 181.125 225.577 182.076 226.147 182.588L229.997 185.969C230.246 186.189 230.348 186.511 230.275 186.833L229.119 191.575C228.943 192.322 229.748 192.936 230.421 192.541L234.68 190.038C234.959 189.877 235.295 189.877 235.573 190.038L239.833 192.541C240.506 192.936 241.311 192.336 241.135 191.575L239.993 186.833C239.92 186.511 240.023 186.189 240.272 185.969L244.121 182.588C244.677 182.076 244.355 181.125 243.594 181.051Z" fill="white"/>
<defs>
<filter id="filter0_d" x="401.309" y="83.7119" width="93.9357" height="93.9357" filterUnits="userSpaceOnUse" color-interpolation-filters="sRGB">
<feFlood flood-opacity="0" result="BackgroundImageFix"/>
<feColorMatrix in="SourceAlpha" type="matrix" values="0 0 0 0 0 0 0 0 0 0 0 0 0 0 0 0 0 0 127 0" result="hardAlpha"/>
<feOffset dx="2" dy="2"/>
<feGaussianBlur stdDeviation="2"/>
<feColorMatrix type="matrix" values="0 0 0 0 0.0846528 0 0 0 0 0.150363 0 0 0 0 0.383333 0 0 0 0.25 0"/>
<feBlend mode="normal" in2="BackgroundImageFix" result="effect1_dropShadow"/>
<feBlend mode="normal" in="SourceGraphic" in2="effect1_dropShadow" result="shape"/>
</filter>
<filter id="filter1_d" x="226.268" y="48.7039" width="110.268" height="114.447" filterUnits="userSpaceOnUse" color-interpolation-filters="sRGB">
<feFlood flood-opacity="0" result="BackgroundImageFix"/>
<feColorMatrix in="SourceAlpha" type="matrix" values="0 0 0 0 0 0 0 0 0 0 0 0 0 0 0 0 0 0 127 0" result="hardAlpha"/>
<feOffset dx="2" dy="2"/>
<feGaussianBlur stdDeviation="2"/>
<feColorMatrix type="matrix" values="0 0 0 0 0.0846528 0 0 0 0 0.150363 0 0 0 0 0.383333 0 0 0 0.25 0"/>
<feBlend mode="normal" in2="BackgroundImageFix" result="effect1_dropShadow"/>
<feBlend mode="normal" in="SourceGraphic" in2="effect1_dropShadow" result="shape"/>
</filter>
<linearGradient id="paint0_linear" x1="265.824" y1="132.261" x2="265.824" y2="360.227" gradientUnits="userSpaceOnUse">
<stop stop-color="white"/>
<stop offset="1" stop-color="#D7F1F9"/>
</linearGradient>
<linearGradient id="paint1_linear" x1="446.276" y1="85.7119" x2="446.276" y2="171.648" gradientUnits="userSpaceOnUse">
<stop stop-color="#B0E7C6"/>
<stop offset="1" stop-color="#5DD1B3"/>
</linearGradient>
<linearGradient id="paint2_linear" x1="325.414" y1="200.622" x2="325.414" y2="295.045" gradientUnits="userSpaceOnUse">
<stop stop-color="#B0E7C6"/>
<stop offset="1" stop-color="#5DD1B3"/>
</linearGradient>
<linearGradient id="paint3_linear" x1="179.468" y1="162.972" x2="179.468" y2="255.357" gradientUnits="userSpaceOnUse">
<stop stop-color="#B0E7C6"/>
<stop offset="1" stop-color="#5DD1B3"/>
</linearGradient>
</defs>
</svg>
