<svg fill="none" height="431" viewBox="0 0 479 431" width="479" xmlns="http://www.w3.org/2000/svg" xmlns:xlink="http://www.w3.org/1999/xlink"><filter id="a" color-interpolation-filters="sRGB" filterUnits="userSpaceOnUse" height="93.9357" width="93.9357" x="401.309" y="83.7119"><feFlood flood-opacity="0" result="BackgroundImageFix"/><feColorMatrix in="SourceAlpha" result="hardAlpha" type="matrix" values="0 0 0 0 0 0 0 0 0 0 0 0 0 0 0 0 0 0 127 0"/><feOffset dx="2" dy="2"/><feGaussianBlur stdDeviation="2"/><feColorMatrix type="matrix" values="0 0 0 0 0.0846528 0 0 0 0 0.150363 0 0 0 0 0.383333 0 0 0 0.25 0"/><feBlend in2="BackgroundImageFix" mode="normal" result="effect1_dropShadow"/><feBlend in="SourceGraphic" in2="effect1_dropShadow" mode="normal" result="shape"/></filter><filter id="b" color-interpolation-filters="sRGB" filterUnits="userSpaceOnUse" height="114.447" width="110.268" x="226.268" y="48.7039"><feFlood flood-opacity="0" result="BackgroundImageFix"/><feColorMatrix in="SourceAlpha" result="hardAlpha" type="matrix" values="0 0 0 0 0 0 0 0 0 0 0 0 0 0 0 0 0 0 127 0"/><feOffset dx="2" dy="2"/><feGaussianBlur stdDeviation="2"/><feColorMatrix type="matrix" values="0 0 0 0 0.0846528 0 0 0 0 0.150363 0 0 0 0 0.383333 0 0 0 0.25 0"/><feBlend in2="BackgroundImageFix" mode="normal" result="effect1_dropShadow"/><feBlend in="SourceGraphic" in2="effect1_dropShadow" mode="normal" result="shape"/></filter><linearGradient id="c" gradientUnits="userSpaceOnUse" x1="265.824" x2="265.824" y1="132.261" y2="360.227"><stop offset="0" stop-color="#fff"/><stop offset="1" stop-color="#d7f1f9"/></linearGradient><linearGradient id="d"><stop offset="0" stop-color="#b0e7c6"/><stop offset="1" stop-color="#5dd1b3"/></linearGradient><linearGradient id="e" gradientUnits="userSpaceOnUse" x1="446.276" x2="446.276" xlink:href="#d" y1="85.7119" y2="171.648"/><linearGradient id="f" gradientUnits="userSpaceOnUse" x1="325.414" x2="325.414" xlink:href="#d" y1="200.622" y2="295.045"/><linearGradient id="g" gradientUnits="userSpaceOnUse" x1="179.468" x2="179.468" xlink:href="#d" y1="162.972" y2="255.357"/><path d="m513.405 418.482h-460.9847c-3.5666 0-6.2416 2.972-6.2416 6.241 0 3.567 2.9722 6.242 6.2416 6.242h460.9847c3.566 0 6.241-2.972 6.241-6.242 0-3.269-2.675-6.241-6.241-6.241z" fill="#d7f1f9"/><path d="m138.614 283.546v-26.156h-11.592c-1.486-6.538-4.161-12.78-7.727-18.427l8.322-8.322-18.428-18.428-8.322 8.322c-5.647-3.566-11.8886-6.241-18.4274-7.727v-11.592h-26.1551v11.592c-6.5388 1.486-12.7804 4.161-18.4275 7.727l-8.3221-8.322-18.4275 18.428 8.3221 8.322c-3.5666 5.647-6.2416 11.889-7.7277 18.427h-11.591448v26.156h11.591448c1.4861 6.538 4.1611 12.78 7.7277 18.427l-8.3221 8.322 18.4275 18.428 8.3221-8.322c5.6471 3.566 11.8887 6.241 18.4275 7.727v11.592h26.1551v-11.592c6.5388-1.486 12.7804-4.161 18.4274-7.727l8.322 8.322 18.428-18.428-8.322-8.322c3.566-5.647 6.241-11.889 7.727-18.427zm-69.252 15.752c-16.0497 0-28.8301-12.78-28.8301-28.83s12.7804-28.83 28.8301-28.83c16.0498 0 28.8302 12.78 28.8302 28.83 0 15.753-13.0776 28.83-28.8302 28.83z" fill="#badbff"/><path d="m435.237 113.833h-318.914c-19.022 0-34.4773 15.455-34.4773 34.477v195.866c0 19.022 15.4553 34.478 34.4773 34.478h318.914c19.022 0 34.478-15.456 34.478-34.478v-195.866c-.298-19.022-15.456-34.477-34.478-34.477z" fill="#5183bb"/><path d="m116.323 360.227c-8.916 0-16.05-7.133-16.05-16.05v-195.866c0-8.917 7.134-16.05 16.05-16.05h299.001c8.917 0 16.05 7.133 16.05 16.05v195.866c0 8.917-7.133 16.05-16.05 16.05z" fill="url(#c)"/><path d="m459.907 249.662c0-5.647-4.756-10.402-10.403-10.402s-10.402 4.755-10.402 10.402c0 5.648 4.755 10.403 10.402 10.403s10.403-4.755 10.403-10.403z" fill="#fff"/><g fill="#5183bb"><path d="m197.76 276.115h-62.119c-2.08 0-3.864 1.783-3.864 3.863 0 2.081 1.784 3.864 3.864 3.864h62.119c2.08 0 3.863-1.783 3.863-3.864-.297-2.377-1.783-3.863-3.863-3.863z"/><path d="m197.76 292.759h-62.119c-2.08 0-3.864 1.783-3.864 3.864 0 2.08 1.784 3.863 3.864 3.863h62.119c2.08 0 3.863-1.783 3.863-3.863-.297-2.378-1.783-3.864-3.863-3.864z"/><path d="m197.76 309.04h-62.119c-2.08 0-3.864 1.783-3.864 3.863 0 2.081 1.784 3.864 3.864 3.864h62.119c2.08 0 3.863-1.783 3.863-3.864-.297-2.377-1.783-3.863-3.863-3.863z"/></g><path d="m290.492 334.965h-150.392c-2.972 0-5.35 2.377-5.35 5.35 0 2.972 2.378 5.349 5.35 5.349h150.689c2.972 0 5.35-2.377 5.35-5.349 0-2.973-2.675-5.35-5.647-5.35z" fill="#badbff"/><path d="m228.66 288.896h-13.672v26.155h13.672z" fill="#5183bb"/><path d="m252.142 279.384h-13.672v35.666h13.672z" fill="#badbff"/><path d="m276.512 270.765h-13.672v44.285h13.672z" fill="#5183bb"/><g filter="url(#a)"><path d="m446.276 171.648c23.731 0 42.968-19.238 42.968-42.968 0-23.731-19.237-42.9681-42.968-42.9681-23.73 0-42.967 19.2371-42.967 42.9681 0 23.73 19.237 42.968 42.967 42.968z" fill="url(#e)"/></g><g filter="url(#b)"><path d="m330.535 101.869c0-28.8306-24.074-52.3108-53.202-51.1219-26.452.8917-48.149 22.5885-49.041 49.0409-.891 29.127 22.292 53.202 51.122 53.202 2.675 0 5.35-.297 8.025-.594 1.189-.298 2.378 0 3.566.297l11.889 4.458 2.081-8.322c.297-1.783 1.486-3.567 2.972-4.458 13.672-9.511 22.588-24.967 22.588-42.502z" fill="#badbff"/></g><path d="m298.434 91.4651h-37.747c-2.377 0-4.161 1.7833-4.161 4.161 0 2.3778 1.784 4.1611 4.161 4.1611h37.747c2.378 0 4.161-1.7833 4.161-4.1611 0-2.3777-1.783-4.161-4.161-4.161z" fill="#fff"/><path d="m283.871 108.109h-23.48c-2.378 0-4.162 1.784-4.162 4.161 0 2.378 1.784 4.161 4.162 4.161h23.48c2.377 0 4.161-1.783 4.161-4.161 0-2.08-1.784-4.161-4.161-4.161z" fill="#fff"/><path d="m282.019 206.269s-.297-20.211-3.864-21.103c-3.566-.594-1.486 12.186-1.486 12.186s-4.755-.297-6.241 1.783c-1.486 2.378-2.081 12.186 2.08 13.375 3.864 1.486 9.511-6.241 9.511-6.241z" fill="#ffe27c"/><path d="m374.155 283.545c1.783 1.189-2.378 46.069-4.161 60.335-1.783 13.97 9.214 68.955 9.214 68.955l-10.997-.595s-19.617-58.254-19.914-65.685c-.297-7.43-8.619-56.471-8.619-56.471z" fill="#004e82"/><path d="m377.721 283.545s-7.133 21.697-17.833 31.505c-10.699 10.106-24.074 32.1-24.074 32.1l3.864 65.685h-12.186s-13.078-65.982-13.078-71.629c0-5.648 17.833-64.794 17.833-64.794z" fill="#5183bb"/><path d="m333.438 181.898s-3.864 19.616 10.997 21.399c14.563 1.784 15.158-27.641 15.158-27.641s-17.536-5.053-18.725-3.567c-1.189 1.487-1.189 1.487-1.189 1.487z" fill="#ffe27c"/><path d="m342.058 200.622h-1.189c-6.539.594-11.889 6.538-15.753 11.888l-21.102 23.183-21.994-29.424-9.511 6.241s24.372 46.069 34.18 43.989c9.511-2.081 21.102-15.456 21.102-15.456s-2.377 40.719-3.864 46.069c0 0 38.639 17.239 54.391.892l-4.458-66.28c-1.189-8.025-6.836-14.564-14.861-16.644z" fill="url(#f)"/><path d="m339.68 412.836v10.402h-24.967c-1.783 0-2.675-2.675-.891-3.566 4.458-2.378 10.105-5.648 13.672-7.134 6.538-2.377 12.186.298 12.186.298z" fill="#5183bb"/><path d="m379.208 412.836v10.402h-24.075c-2.08 0-2.972-2.972-1.189-4.161 4.161-2.378 9.511-5.053 12.781-6.539 6.836-2.377 12.483.298 12.483.298z" fill="#5183bb"/><path d="m342.65 222.021s-11.294-9.51-5.647-19.021 9.808-14.564 8.916-20.211c0 0-.297-7.133-5.35-2.675 0 0-2.08 3.566-6.836 2.08 0 0-4.161-20.508 18.131-24.669 23.183-4.755 29.424 12.483 27.641 23.48-1.784 10.998-9.808 11.295 0 24.967 9.808 13.375-10.106 37.152-36.855 16.049z" fill="#004e82"/><path d="m464.894 122.933-10.706-1.012c-.675-.062-1.258-.491-1.534-1.135l-3.835-9.296c-.613-1.534-2.792-1.534-3.405 0l-3.804 9.296c-.246.644-.859 1.073-1.534 1.135l-10.707 1.012c-1.595.154-2.239 2.148-1.043 3.221l8.068 7.087c.522.46.737 1.135.583 1.81l-2.423 9.939c-.368 1.565 1.319 2.853 2.73 2.025l8.927-5.246c.583-.337 1.289-.337 1.872 0l8.927 5.246c1.412.828 3.099-.429 2.73-2.025l-2.393-9.939c-.153-.675.062-1.35.583-1.81l8.069-7.087c1.165-1.073.491-3.067-1.105-3.221z" fill="#fff"/><path clip-rule="evenodd" d="m200.585 184.089c0 11.662-9.454 21.117-21.117 21.117-11.662 0-21.117-9.455-21.117-21.117 0-11.663 9.455-21.117 21.117-21.117 11.663 0 21.117 9.454 21.117 21.117zm-65.271 69.348c0-24.346 19.808-44.154 44.154-44.154 24.347 0 44.154 19.808 44.154 44.154 0 1.06-.86 1.92-1.919 1.92h-84.469c-1.059 0-1.92-.86-1.92-1.92z" fill="url(#g)" fill-rule="evenodd"/><circle cx="234.907" cy="184.097" fill="#ffe27c" r="21.1256"/><path d="m243.594 181.051-5.108-.483c-.322-.029-.6-.234-.732-.541l-1.829-4.435c-.293-.732-1.332-.732-1.625 0l-1.815 4.435c-.117.307-.41.512-.732.541l-5.108.483c-.761.074-1.068 1.025-.498 1.537l3.85 3.381c.249.22.351.542.278.864l-1.156 4.742c-.176.747.629 1.361 1.302.966l4.259-2.503c.279-.161.615-.161.893 0l4.26 2.503c.673.395 1.478-.205 1.302-.966l-1.142-4.742c-.073-.322.03-.644.279-.864l3.849-3.381c.556-.512.234-1.463-.527-1.537z" fill="#fff"/></svg>