<svg fill="none" height="333" viewBox="0 0 456 333" width="456" xmlns="http://www.w3.org/2000/svg" xmlns:xlink="http://www.w3.org/1999/xlink"><filter id="a" color-interpolation-filters="sRGB" filterUnits="userSpaceOnUse" height="251" width="305" x="24" y="0"><feFlood flood-opacity="0" result="BackgroundImageFix"/><feColorMatrix in="SourceAlpha" result="hardAlpha" type="matrix" values="0 0 0 0 0 0 0 0 0 0 0 0 0 0 0 0 0 0 127 0"/><feOffset dx="13" dy="18"/><feGaussianBlur stdDeviation="17.5"/><feColorMatrix type="matrix" values="0 0 0 0 0 0 0 0 0 0.351917 0 0 0 0 0.429167 0 0 0 0.15 0"/><feBlend in2="BackgroundImageFix" mode="normal" result="effect1_dropShadow"/><feBlend in="SourceGraphic" in2="effect1_dropShadow" mode="normal" result="shape"/></filter><filter id="b" color-interpolation-filters="sRGB" filterUnits="userSpaceOnUse" height="122.851" width="122.851" x="292" y="48"><feFlood flood-opacity="0" result="BackgroundImageFix"/><feColorMatrix in="SourceAlpha" result="hardAlpha" type="matrix" values="0 0 0 0 0 0 0 0 0 0 0 0 0 0 0 0 0 0 127 0"/><feOffset dy="9"/><feGaussianBlur stdDeviation="15"/><feColorMatrix type="matrix" values="0 0 0 0 0.593438 0 0 0 0 0.707729 0 0 0 0 0.879167 0 0 0 0.25 0"/><feBlend in2="BackgroundImageFix" mode="normal" result="effect1_dropShadow"/><feBlend in="SourceGraphic" in2="effect1_dropShadow" mode="normal" result="shape"/></filter><filter id="c" color-interpolation-filters="sRGB" filterUnits="userSpaceOnUse" height="178" width="178" x="278" y="155"><feFlood flood-opacity="0" result="BackgroundImageFix"/><feColorMatrix in="SourceAlpha" result="hardAlpha" type="matrix" values="0 0 0 0 0 0 0 0 0 0 0 0 0 0 0 0 0 0 127 0"/><feOffset dy="9"/><feGaussianBlur stdDeviation="15"/><feColorMatrix type="matrix" values="0 0 0 0 0.593438 0 0 0 0 0.707729 0 0 0 0 0.879167 0 0 0 0.25 0"/><feBlend in2="BackgroundImageFix" mode="normal" result="effect1_dropShadow"/><feBlend in="SourceGraphic" in2="effect1_dropShadow" mode="normal" result="shape"/></filter><filter id="d" color-interpolation-filters="sRGB" filterUnits="userSpaceOnUse" height="91" width="92.0333" x="0" y="73"><feFlood flood-opacity="0" result="BackgroundImageFix"/><feColorMatrix in="SourceAlpha" result="hardAlpha" type="matrix" values="0 0 0 0 0 0 0 0 0 0 0 0 0 0 0 0 0 0 127 0"/><feOffset dy="9"/><feGaussianBlur stdDeviation="15"/><feColorMatrix type="matrix" values="0 0 0 0 0.593438 0 0 0 0 0.707729 0 0 0 0 0.879167 0 0 0 0.25 0"/><feBlend in2="BackgroundImageFix" mode="normal" result="effect1_dropShadow"/><feBlend in="SourceGraphic" in2="effect1_dropShadow" mode="normal" result="shape"/></filter><linearGradient id="e" gradientUnits="userSpaceOnUse" x1="31.4254" x2="31.4254" y1="15.3566" y2="62.8507"><stop offset="0" stop-color="#ffed49"/><stop offset="1" stop-color="#ffc369"/></linearGradient><linearGradient id="f" gradientUnits="userSpaceOnUse" x1="59" x2="59" y1="0" y2="118"><stop offset="0" stop-color="#b0e7c6"/><stop offset="1" stop-color="#5dd1b3"/></linearGradient><linearGradient id="g" gradientUnits="userSpaceOnUse" x1="16.0167" x2="16.0167" y1="0" y2="31"><stop offset="0" stop-color="#85beff"/><stop offset="1" stop-color="#5183bb"/></linearGradient><mask id="h" height="34" maskUnits="userSpaceOnUse" width="35" x="137" y="77"><ellipse cx="154.288" cy="94.1731" fill="#fff" rx="16.9587" ry="16.8147"/></mask><path d="m167 184v42c0 8.284 6.716 15 15 15h126" stroke="#5183bb" stroke-dasharray="3 3" stroke-width="1.5"/><path d="m167 48v42c0 8.2843 6.716 15 15 15h140" stroke="#5183bb" stroke-dasharray="3 3" stroke-width="1.5"/><g filter="url(#a)"><rect fill="#f7fbfd" height="181" rx="30" width="235" x="46" y="17"/></g><g filter="url(#b)"><rect fill="url(#e)" height="62.8507" rx="31.4254" transform="matrix(-1 0 0 1 384.851 69)" width="62.8507"/></g><g fill="#004e82"><path d="m122.334 73.5916h-13.334v-4.858h31.964v4.8582h-13.334v37.6192h-5.296z"/><path d="m177.476 64.5606 4.984-.5606v47.211h-4.984z"/><path clip-rule="evenodd" d="m206.729 111.024c1.641-.664 3.063-1.433 4.268-2.305v16.754l4.923-.623v-43.847c-.956 0-1.766-.0935-2.43-.2803-.665-.1867-1.371-.3834-2.119-.5916-.748-.2072-1.62-.4048-2.617-.5916-.997-.187-2.285-.2803-3.863-.2803-1.704 0-3.458.3329-5.265.9965-1.807.6647-3.448 1.6719-4.922 3.0207-1.475 1.3498-2.679 3.0626-3.614 5.1384-.935 2.0768-1.402 4.5263-1.402 7.3493 0 2.9898.332 5.5119.997 7.5679.664 2.055 1.567 3.727 2.71 5.014 1.142 1.287 2.471 2.221 3.988 2.802 1.516.581 3.125.872 4.829.872 1.371 0 2.876-.333 4.517-.996zm-1.152-3.862c-.957.333-1.891.498-2.805.498-1.329 0-2.471-.352-3.426-1.058-.956-.706-1.766-1.64-2.43-2.803-.665-1.162-1.153-2.47-1.465-3.9237-.311-1.4532-.467-2.9061-.467-4.36 0-1.6193.187-3.1453.561-4.5778s.966-2.6986 1.776-3.7993c.81-1.0996 1.838-1.9618 3.084-2.5847 1.246-.6227 2.742-.9342 4.486-.9342 1.122 0 2.077.0526 2.866.1556.789.1042 1.412.1977 1.869.2803.54.1663.997.3115 1.371.436v19.8678c-.914.623-1.807 1.163-2.679 1.62s-1.786.851-2.741 1.183z" fill-rule="evenodd"/></g><g mask="url(#h)"><path d="m165.005 77.205h6.337v34.387h-6.337z" fill="#b6ca94"/><path d="m160.781 77.205h4.259v34.378h-4.259z" fill="#8cab62"/><path d="m156.558 77.205h4.259v34.387h-4.259z" fill="#a1bc78"/><path d="m153.951 77.205h2.64v34.387h-2.64z" fill="#d9e5c5"/><path d="m146.84 77.205h7.181v34.387h-7.181z" fill="#b6ceb8"/><path d="m142.735 77.205h4.26v34.387h-4.26z" fill="#b9cfe4"/><path d="m140.222 77.205h2.535v34.378h-2.535z" fill="#5183bb"/><path d="m137.278 77.205h2.957v34.378h-2.957z" fill="#2c66ab"/></g><path d="m129.176 156c-.272-.72-.528-1.424-.768-2.112-.24-.704-.488-1.416-.744-2.136h-7.536l-1.512 4.248h-2.424c.64-1.76 1.24-3.384 1.8-4.872.56-1.504 1.104-2.928 1.632-4.272.544-1.344 1.08-2.624 1.608-3.84.528-1.232 1.08-2.448 1.656-3.648h2.136c.576 1.2 1.128 2.416 1.656 3.648.528 1.216 1.056 2.496 1.584 3.84.544 1.344 1.096 2.768 1.656 4.272.56 1.488 1.16 3.112 1.8 4.872zm-2.184-6.168c-.512-1.392-1.024-2.736-1.536-4.032-.496-1.312-1.016-2.568-1.56-3.768-.56 1.2-1.096 2.456-1.608 3.768-.496 1.296-.992 2.64-1.488 4.032zm10.902-10.632c2.336 0 4.128.448 5.376 1.344 1.264.88 1.896 2.2 1.896 3.96 0 .96-.176 1.784-.528 2.472-.336.672-.832 1.224-1.488 1.656-.64.416-1.424.72-2.352.912s-1.976.288-3.144.288h-1.848v6.168h-2.328v-16.392c.656-.16 1.384-.264 2.184-.312.816-.064 1.56-.096 2.232-.096zm.192 2.04c-.992 0-1.752.024-2.28.072v6.528h1.752c.8 0 1.52-.048 2.16-.144.64-.112 1.176-.288 1.608-.528.448-.256.792-.6 1.032-1.032s.36-.984.36-1.656c0-.64-.128-1.168-.384-1.584-.24-.416-.576-.744-1.008-.984-.416-.256-.904-.432-1.464-.528s-1.152-.144-1.776-.144zm9.494-1.872h2.328v16.632h-2.328z" fill="#004e82"/><g filter="url(#c)"><rect fill="url(#f)" height="118" rx="30" transform="matrix(-1 0 0 1 426 176)" width="118"/></g><path clip-rule="evenodd" d="m367.859 220.671-4.983-4.982v-5.732c0-3.285-2.672-5.957-5.957-5.957h-14.962c-3.285 0-5.957 2.672-5.957 5.957v10.484c0 3.285 2.672 5.957 5.957 5.957h14.962c2.463 0 4.611-1.478 5.512-3.693h4.585c.482 0 .916-.29 1.101-.735.184-.446.082-.958-.258-1.299zm-6.297-.349c-.555 0-1.037.383-1.161.925-.375 1.63-1.807 2.769-3.482 2.769h-14.962c-1.971 0-3.574-1.604-3.574-3.575v-10.484c0-1.971 1.603-3.574 3.574-3.574h14.962c1.971 0 3.574 1.603 3.574 3.574v6.225c0 .316.126.619.349.843l3.298 3.297zm25.381.92c-.086-.025-.174-.039-.263-.043 1.305-1.372 2.109-3.225 2.109-5.263v-6.268c0-.058-.006-.114-.013-.169.007-.113.013-.227.013-.342v-3.965c0-.658-.534-1.192-1.192-1.192h-7.991c-3.365 0-6.102 2.738-6.102 6.103v5.833c0 2.038.803 3.891 2.108 5.263-.089.004-.177.018-.263.043-5.63.51-10.056 5.255-10.056 11.016v5.09c0 .658.533 1.191 1.191 1.191h9.586c.658 0 1.192-.533 1.192-1.191s-.534-1.192-1.192-1.192h-8.394v-3.898c0-4.413 3.311-8.065 7.579-8.607l5.049 5.048c.232.233.537.349.842.349s.61-.116.843-.349l5.048-5.048c4.268.542 7.58 4.194 7.58 8.607v3.898h-8.777c-.658 0-1.191.534-1.191 1.192s.533 1.191 1.191 1.191h9.968c.658 0 1.191-.533 1.191-1.191v-5.09c0-5.761-4.426-10.506-10.056-11.016zm-5.797 4.93-2.593-2.594h5.186zm5.26-10.236c0 2.9-2.359 5.26-5.26 5.26-2.9 0-5.259-2.36-5.259-5.26v-1.863h7.986c.926 0 1.793-.258 2.533-.705zm0-6.779c0 1.397-1.136 2.533-2.533 2.533h-7.986v-.076-1.511c0-2.051 1.668-3.72 3.719-3.72h6.8zm-28.756 38.545c-.086-.024-.174-.038-.263-.043 1.305-1.371 2.109-3.224 2.109-5.263v-6.268c0-.057-.006-.113-.013-.168.008-.113.013-.227.013-.342v-3.966c0-.658-.533-1.191-1.191-1.191h-7.992c-3.365 0-6.102 2.738-6.102 6.103v5.832c0 2.039.803 3.892 2.109 5.263-.089.005-.177.019-.263.043-5.63.51-10.057 5.256-10.057 11.016v5.091c0 .658.533 1.191 1.191 1.191h29.324c.658 0 1.192-.533 1.192-1.191v-5.091c0-5.76-4.427-10.506-10.057-11.016zm-11.056-9.628v-1.511c0-2.051 1.668-3.719 3.719-3.719h6.8v2.774c0 1.396-1.136 2.533-2.533 2.533h-7.986zm0 2.46h7.986c.926 0 1.793-.258 2.533-.705v2.567c0 2.901-2.359 5.26-5.26 5.26-2.9 0-5.259-2.359-5.259-5.26zm7.852 9.505-2.593 2.593-2.593-2.593zm10.878 12.578h-26.941v-2.383h4.944c.658 0 1.192-.533 1.192-1.191s-.534-1.191-1.192-1.191h-4.901c.401-4.017 3.551-7.234 7.537-7.741l5.048 5.048c.223.224.526.349.842.349s.619-.125.843-.349l5.048-5.048c4.268.543 7.58 4.194 7.58 8.607zm15.823-26.461c.313 0 .621.127.842.349.222.222.349.529.349.842 0 .315-.127.621-.349.843-.221.222-.529.349-.842.349-.315 0-.621-.127-.842-.349-.223-.222-.349-.528-.349-.843 0-.313.126-.62.349-.842.221-.222.527-.349.842-.349zm-5.066 6.446h14.962c3.285 0 5.957 2.672 5.957 5.957v10.484c0 3.285-2.672 5.957-5.957 5.957h-14.962c-3.285 0-5.957-2.672-5.957-5.957v-5.732l-4.983-4.982c-.34-.341-.442-.854-.258-1.299s.619-.735 1.101-.735h4.585c.901-2.215 3.049-3.693 5.512-3.693zm14.962 20.015c1.971 0 3.574-1.603 3.574-3.574v-10.484c0-1.971-1.603-3.575-3.574-3.575h-14.962c-1.675 0-3.107 1.139-3.482 2.769-.124.541-.606.925-1.161.925h-2.578l3.298 3.297c.223.224.349.527.349.843v6.225c0 1.971 1.603 3.574 3.574 3.574zm-2.126-11.986c-.465-.466-1.219-.466-1.685 0l-3.167 3.167-1.473-1.473c-.465-.465-1.219-.465-1.685 0-.465.465-.465 1.22 0 1.685l2.316 2.315c.232.233.537.349.842.349s.61-.116.842-.349l4.01-4.009c.465-.466.465-1.22 0-1.685zm-37.893-42.566c2.043.141 3.69 1.787 3.831 3.83.134 1.956-1.084 3.696-2.93 4.247v.347c0 .658-.533 1.191-1.191 1.191s-1.192-.533-1.192-1.191v-.636c0-.947.648-1.754 1.576-1.962.848-.189 1.42-.96 1.36-1.832-.06-.862-.755-1.557-1.618-1.617-.492-.034-.961.131-1.318.465-.359.335-.556.789-.556 1.279 0 .658-.533 1.191-1.191 1.191s-1.192-.533-1.192-1.191c0-1.141.479-2.242 1.313-3.021.846-.789 1.95-1.18 3.108-1.1zm.552 12.141c-.222-.222-.529-.35-.842-.35-.315 0-.621.128-.843.35-.222.221-.349.529-.349.842s.127.621.349.842c.222.222.528.349.843.349.313 0 .62-.127.842-.349.222-.221.349-.529.349-.842s-.127-.621-.349-.842zm-3.483 37.646c.313 0 .621.127.842.349.222.221.349.529.349.842s-.127.621-.349.842c-.221.222-.529.349-.842.349-.314 0-.621-.127-.842-.349-.222-.221-.35-.529-.35-.842s.128-.621.35-.842c.221-.222.528-.349.842-.349z" fill="#fff" fill-rule="evenodd"/><path d="m366.068 95.0749-7.884-.7454c-.497-.0452-.926-.3614-1.129-.8358l-2.824-6.8443c-.451-1.1294-2.055-1.1294-2.507 0l-2.801 6.8443c-.181.4744-.633.7906-1.13.8358l-7.883.7454c-1.174.113-1.649 1.5812-.768 2.3718l5.941 5.2183c.384.338.542.835.429 1.332l-1.784 7.319c-.271 1.152.971 2.1 2.01 1.491l6.573-3.863c.429-.248.949-.248 1.378 0l6.574 3.863c1.039.609 2.281-.316 2.01-1.491l-1.762-7.319c-.113-.497.045-.994.429-1.332l5.941-5.2183c.858-.7906.361-2.2588-.813-2.3718z" fill="#fff"/><g filter="url(#d)"><rect fill="url(#g)" height="31" rx="15.5" transform="matrix(-1 0 0 1 62.0332 94)" width="32.0333"/></g></svg>