<svg width="456" height="333" viewBox="0 0 456 333" fill="none" xmlns="http://www.w3.org/2000/svg">
<path d="M167 184V226C167 234.284 173.716 241 182 241H308" stroke="#5183BB" stroke-width="1.5" stroke-dasharray="3 3"/>
<path d="M167 48V90C167 98.2843 173.716 105 182 105H322" stroke="#5183BB" stroke-width="1.5" stroke-dasharray="3 3"/>
<g filter="url(#filter0_d)">
<rect x="46" y="17" width="235" height="181" rx="30" fill="#F7FBFD"/>
</g>
<g filter="url(#filter1_d)">
<rect width="62.8507" height="62.8507" rx="31.4254" transform="matrix(-1 0 0 1 384.851 69)" fill="url(#paint0_linear)"/>
</g>
<path d="M122.334 73.5916H109V68.7336H140.964V73.5918H127.63V111.211H122.334V73.5916Z" fill="#004E82"/>
<path d="M177.476 64.5606L182.46 64V111.211H177.476V64.5606Z" fill="#004E82"/>
<path fill-rule="evenodd" clip-rule="evenodd" d="M206.729 111.024C208.37 110.36 209.792 109.591 210.997 108.719H210.997V125.473L215.92 124.85V81.003C214.964 81.003 214.154 80.9095 213.49 80.7227C212.825 80.536 212.119 80.3393 211.371 80.1311C210.623 79.9239 209.751 79.7263 208.754 79.5395C207.757 79.3525 206.469 79.2592 204.891 79.2592C203.187 79.2592 201.433 79.5921 199.626 80.2557C197.819 80.9204 196.178 81.9276 194.704 83.2764C193.229 84.6262 192.025 86.339 191.09 88.4148C190.155 90.4916 189.688 92.9411 189.688 95.7641C189.688 98.7539 190.02 101.276 190.685 103.332C191.349 105.387 192.252 107.059 193.395 108.346C194.537 109.633 195.866 110.567 197.383 111.148C198.899 111.729 200.508 112.02 202.212 112.02C203.583 112.02 205.088 111.687 206.729 111.024ZM205.577 107.162C204.62 107.495 203.686 107.66 202.772 107.66C201.443 107.66 200.301 107.308 199.346 106.602C198.39 105.896 197.58 104.962 196.916 103.799C196.251 102.637 195.763 101.329 195.451 99.8753C195.14 98.4221 194.984 96.9692 194.984 95.5153C194.984 93.896 195.171 92.37 195.545 90.9375C195.919 89.505 196.511 88.2389 197.321 87.1382C198.131 86.0386 199.159 85.1764 200.405 84.5535C201.651 83.9308 203.147 83.6193 204.891 83.6193C206.013 83.6193 206.968 83.6719 207.757 83.7749C208.546 83.8791 209.169 83.9726 209.626 84.0552C210.166 84.2215 210.623 84.3667 210.997 84.4912V104.359C210.083 104.982 209.19 105.522 208.318 105.979C207.446 106.436 206.532 106.83 205.577 107.162Z" fill="#004E82"/>
<mask id="mask0" mask-type="alpha" maskUnits="userSpaceOnUse" x="137" y="77" width="35" height="34">
<ellipse cx="154.288" cy="94.1731" rx="16.9587" ry="16.8147" fill="white"/>
</mask>
<g mask="url(#mask0)">
<path d="M165.005 77.205H171.342V111.592H165.005V77.205Z" fill="#B6CA94"/>
<path d="M160.781 77.205H165.04V111.583H160.781V77.205Z" fill="#8CAB62"/>
<path d="M156.558 77.205H160.817V111.592H156.558V77.205Z" fill="#A1BC78"/>
<path d="M153.951 77.205H156.591V111.592H153.951V77.205Z" fill="#D9E5C5"/>
<path d="M146.84 77.205H154.021V111.592H146.84V77.205Z" fill="#B6CEB8"/>
<path d="M142.735 77.205H146.995V111.592H142.735V77.205Z" fill="#B9CFE4"/>
<path d="M140.222 77.205H142.757V111.583H140.222V77.205Z" fill="#5183BB"/>
<path d="M137.278 77.205H140.235V111.583H137.278V77.205Z" fill="#2C66AB"/>
</g>
<path d="M129.176 156C128.904 155.28 128.648 154.576 128.408 153.888C128.168 153.184 127.92 152.472 127.664 151.752H120.128L118.616 156H116.192C116.832 154.24 117.432 152.616 117.992 151.128C118.552 149.624 119.096 148.2 119.624 146.856C120.168 145.512 120.704 144.232 121.232 143.016C121.76 141.784 122.312 140.568 122.888 139.368H125.024C125.6 140.568 126.152 141.784 126.68 143.016C127.208 144.232 127.736 145.512 128.264 146.856C128.808 148.2 129.36 149.624 129.92 151.128C130.48 152.616 131.08 154.24 131.72 156H129.176ZM126.992 149.832C126.48 148.44 125.968 147.096 125.456 145.8C124.96 144.488 124.44 143.232 123.896 142.032C123.336 143.232 122.8 144.488 122.288 145.8C121.792 147.096 121.296 148.44 120.8 149.832H126.992ZM137.894 139.2C140.23 139.2 142.022 139.648 143.27 140.544C144.534 141.424 145.166 142.744 145.166 144.504C145.166 145.464 144.99 146.288 144.638 146.976C144.302 147.648 143.806 148.2 143.15 148.632C142.51 149.048 141.726 149.352 140.798 149.544C139.87 149.736 138.822 149.832 137.654 149.832H135.806V156H133.478V139.608C134.134 139.448 134.862 139.344 135.662 139.296C136.478 139.232 137.222 139.2 137.894 139.2ZM138.086 141.24C137.094 141.24 136.334 141.264 135.806 141.312V147.84H137.558C138.358 147.84 139.078 147.792 139.718 147.696C140.358 147.584 140.894 147.408 141.326 147.168C141.774 146.912 142.118 146.568 142.358 146.136C142.598 145.704 142.718 145.152 142.718 144.48C142.718 143.84 142.59 143.312 142.334 142.896C142.094 142.48 141.758 142.152 141.326 141.912C140.91 141.656 140.422 141.48 139.862 141.384C139.302 141.288 138.71 141.24 138.086 141.24ZM147.58 139.368H149.908V156H147.58V139.368Z" fill="#004E82"/>
<g filter="url(#filter2_d)">
<rect width="118" height="118" rx="30" transform="matrix(-1 0 0 1 426 176)" fill="url(#paint1_linear)"/>
</g>
<path fill-rule="evenodd" clip-rule="evenodd" d="M367.859 220.671L362.876 215.689V209.957C362.876 206.672 360.204 204 356.919 204H341.957C338.672 204 336 206.672 336 209.957V220.441C336 223.726 338.672 226.398 341.957 226.398H356.919C359.382 226.398 361.53 224.92 362.431 222.705H367.016C367.498 222.705 367.932 222.415 368.117 221.97C368.301 221.524 368.199 221.012 367.859 220.671ZM361.562 220.322C361.007 220.322 360.525 220.705 360.401 221.247C360.026 222.877 358.594 224.016 356.919 224.016H341.957C339.986 224.016 338.383 222.412 338.383 220.441V209.957C338.383 207.986 339.986 206.383 341.957 206.383H356.919C358.89 206.383 360.493 207.986 360.493 209.957V216.182C360.493 216.498 360.619 216.801 360.842 217.025L364.14 220.322H361.562ZM386.943 221.242C386.857 221.217 386.769 221.203 386.68 221.199C387.985 219.827 388.789 217.974 388.789 215.936V209.668C388.789 209.61 388.783 209.554 388.776 209.499C388.783 209.386 388.789 209.272 388.789 209.157V205.192C388.789 204.534 388.255 204 387.597 204H379.606C376.241 204 373.504 206.738 373.504 210.103V215.936C373.504 217.974 374.307 219.827 375.612 221.199C375.523 221.203 375.435 221.217 375.349 221.242C369.719 221.752 365.293 226.497 365.293 232.258V237.348C365.293 238.006 365.826 238.539 366.484 238.539H376.07C376.728 238.539 377.262 238.006 377.262 237.348C377.262 236.69 376.728 236.156 376.07 236.156H367.676V232.258C367.676 227.845 370.987 224.193 375.255 223.651L380.304 228.699C380.536 228.932 380.841 229.048 381.146 229.048C381.451 229.048 381.756 228.932 381.989 228.699L387.037 223.651C391.305 224.193 394.617 227.845 394.617 232.258V236.156H385.84C385.182 236.156 384.649 236.69 384.649 237.348C384.649 238.006 385.182 238.539 385.84 238.539H395.808C396.466 238.539 396.999 238.006 396.999 237.348V232.258C396.999 226.497 392.573 221.752 386.943 221.242ZM381.146 226.172L378.553 223.578H383.739L381.146 226.172ZM386.406 215.936C386.406 218.836 384.047 221.196 381.146 221.196C378.246 221.196 375.887 218.836 375.887 215.936V214.073H383.873C384.799 214.073 385.666 213.815 386.406 213.368V215.936ZM386.406 209.157C386.406 210.554 385.27 211.69 383.873 211.69H375.887V211.614V210.103C375.887 208.052 377.555 206.383 379.606 206.383H386.406V209.157ZM357.65 247.702C357.564 247.678 357.476 247.664 357.387 247.659C358.692 246.288 359.496 244.435 359.496 242.396V236.128C359.496 236.071 359.49 236.015 359.483 235.96C359.491 235.847 359.496 235.733 359.496 235.618V231.652C359.496 230.994 358.963 230.461 358.305 230.461H350.313C346.948 230.461 344.211 233.199 344.211 236.564V242.396C344.211 244.435 345.014 246.288 346.32 247.659C346.231 247.664 346.143 247.678 346.057 247.702C340.427 248.212 336 252.958 336 258.718V263.809C336 264.467 336.533 265 337.191 265H366.515C367.173 265 367.707 264.467 367.707 263.809V258.718C367.707 252.958 363.28 248.212 357.65 247.702ZM346.594 238.074V236.563C346.594 234.512 348.262 232.844 350.313 232.844H357.113V235.618C357.113 237.014 355.977 238.151 354.58 238.151H346.594V238.074ZM346.594 240.534H354.58C355.506 240.534 356.373 240.276 357.113 239.829V242.396C357.113 245.297 354.754 247.656 351.853 247.656C348.953 247.656 346.594 245.297 346.594 242.396V240.534ZM354.446 250.039L351.853 252.632L349.26 250.039H354.446ZM365.324 262.617H338.383V260.234H343.327C343.985 260.234 344.519 259.701 344.519 259.043C344.519 258.385 343.985 257.852 343.327 257.852H338.426C338.827 253.835 341.977 250.618 345.963 250.111L351.011 255.159C351.234 255.383 351.537 255.508 351.853 255.508C352.169 255.508 352.472 255.383 352.696 255.159L357.744 250.111C362.012 250.654 365.324 254.305 365.324 258.718V262.617ZM381.147 236.156C381.46 236.156 381.768 236.283 381.989 236.505C382.211 236.727 382.338 237.034 382.338 237.347C382.338 237.662 382.211 237.968 381.989 238.19C381.768 238.412 381.46 238.539 381.147 238.539C380.832 238.539 380.526 238.412 380.305 238.19C380.082 237.968 379.956 237.662 379.956 237.347C379.956 237.034 380.082 236.727 380.305 236.505C380.526 236.283 380.832 236.156 381.147 236.156ZM376.081 242.602H391.043C394.328 242.602 397 245.274 397 248.559V259.043C397 262.328 394.328 265 391.043 265H376.081C372.796 265 370.124 262.328 370.124 259.043V253.311L365.141 248.329C364.801 247.988 364.699 247.475 364.883 247.03C365.067 246.585 365.502 246.295 365.984 246.295H370.569C371.47 244.08 373.618 242.602 376.081 242.602ZM391.043 262.617C393.014 262.617 394.617 261.014 394.617 259.043V248.559C394.617 246.588 393.014 244.984 391.043 244.984H376.081C374.406 244.984 372.974 246.123 372.599 247.753C372.475 248.294 371.993 248.678 371.438 248.678H368.86L372.158 251.975C372.381 252.199 372.507 252.502 372.507 252.818V259.043C372.507 261.014 374.11 262.617 376.081 262.617H391.043ZM388.917 250.631C388.452 250.165 387.698 250.165 387.232 250.631L384.065 253.798L382.592 252.325C382.127 251.86 381.373 251.86 380.907 252.325C380.442 252.79 380.442 253.545 380.907 254.01L383.223 256.325C383.455 256.558 383.76 256.674 384.065 256.674C384.37 256.674 384.675 256.558 384.907 256.325L388.917 252.316C389.382 251.85 389.382 251.096 388.917 250.631ZM351.024 208.065C353.067 208.206 354.714 209.852 354.855 211.895C354.989 213.851 353.771 215.591 351.925 216.142V216.489C351.925 217.147 351.392 217.68 350.734 217.68C350.076 217.68 349.542 217.147 349.542 216.489V215.853C349.542 214.906 350.19 214.099 351.118 213.891C351.966 213.702 352.538 212.931 352.478 212.059C352.418 211.197 351.723 210.502 350.86 210.442C350.368 210.408 349.899 210.573 349.542 210.907C349.183 211.242 348.986 211.696 348.986 212.186C348.986 212.844 348.453 213.377 347.795 213.377C347.137 213.377 346.603 212.844 346.603 212.186C346.603 211.045 347.082 209.944 347.916 209.165C348.762 208.376 349.866 207.985 351.024 208.065ZM351.576 220.206C351.354 219.984 351.047 219.856 350.734 219.856C350.419 219.856 350.113 219.984 349.891 220.206C349.669 220.427 349.542 220.735 349.542 221.048C349.542 221.361 349.669 221.669 349.891 221.89C350.113 222.112 350.419 222.239 350.734 222.239C351.047 222.239 351.354 222.112 351.576 221.89C351.798 221.669 351.925 221.361 351.925 221.048C351.925 220.735 351.798 220.427 351.576 220.206ZM348.093 257.852C348.406 257.852 348.714 257.979 348.935 258.201C349.157 258.422 349.284 258.73 349.284 259.043C349.284 259.356 349.157 259.664 348.935 259.885C348.714 260.107 348.406 260.234 348.093 260.234C347.779 260.234 347.472 260.107 347.251 259.885C347.029 259.664 346.901 259.356 346.901 259.043C346.901 258.73 347.029 258.422 347.251 258.201C347.472 257.979 347.779 257.852 348.093 257.852Z" fill="white"/>
<path d="M366.068 95.0749L358.184 94.3295C357.687 94.2843 357.258 93.9681 357.055 93.4937L354.231 86.6494C353.78 85.52 352.176 85.52 351.724 86.6494L348.923 93.4937C348.742 93.9681 348.29 94.2843 347.793 94.3295L339.91 95.0749C338.736 95.1879 338.261 96.6561 339.142 97.4467L345.083 102.665C345.467 103.003 345.625 103.5 345.512 103.997L343.728 111.316C343.457 112.468 344.699 113.416 345.738 112.807L352.311 108.944C352.74 108.696 353.26 108.696 353.689 108.944L360.263 112.807C361.302 113.416 362.544 112.491 362.273 111.316L360.511 103.997C360.398 103.5 360.556 103.003 360.94 102.665L366.881 97.4467C367.739 96.6561 367.242 95.1879 366.068 95.0749Z" fill="white"/>
<g filter="url(#filter3_d)">
<rect width="32.0333" height="31" rx="15.5" transform="matrix(-1 0 0 1 62.0332 94)" fill="url(#paint2_linear)"/>
</g>
<defs>
<filter id="filter0_d" x="24" y="0" width="305" height="251" filterUnits="userSpaceOnUse" color-interpolation-filters="sRGB">
<feFlood flood-opacity="0" result="BackgroundImageFix"/>
<feColorMatrix in="SourceAlpha" type="matrix" values="0 0 0 0 0 0 0 0 0 0 0 0 0 0 0 0 0 0 127 0" result="hardAlpha"/>
<feOffset dx="13" dy="18"/>
<feGaussianBlur stdDeviation="17.5"/>
<feColorMatrix type="matrix" values="0 0 0 0 0 0 0 0 0 0.351917 0 0 0 0 0.429167 0 0 0 0.15 0"/>
<feBlend mode="normal" in2="BackgroundImageFix" result="effect1_dropShadow"/>
<feBlend mode="normal" in="SourceGraphic" in2="effect1_dropShadow" result="shape"/>
</filter>
<filter id="filter1_d" x="292" y="48" width="122.851" height="122.851" filterUnits="userSpaceOnUse" color-interpolation-filters="sRGB">
<feFlood flood-opacity="0" result="BackgroundImageFix"/>
<feColorMatrix in="SourceAlpha" type="matrix" values="0 0 0 0 0 0 0 0 0 0 0 0 0 0 0 0 0 0 127 0" result="hardAlpha"/>
<feOffset dy="9"/>
<feGaussianBlur stdDeviation="15"/>
<feColorMatrix type="matrix" values="0 0 0 0 0.593438 0 0 0 0 0.707729 0 0 0 0 0.879167 0 0 0 0.25 0"/>
<feBlend mode="normal" in2="BackgroundImageFix" result="effect1_dropShadow"/>
<feBlend mode="normal" in="SourceGraphic" in2="effect1_dropShadow" result="shape"/>
</filter>
<filter id="filter2_d" x="278" y="155" width="178" height="178" filterUnits="userSpaceOnUse" color-interpolation-filters="sRGB">
<feFlood flood-opacity="0" result="BackgroundImageFix"/>
<feColorMatrix in="SourceAlpha" type="matrix" values="0 0 0 0 0 0 0 0 0 0 0 0 0 0 0 0 0 0 127 0" result="hardAlpha"/>
<feOffset dy="9"/>
<feGaussianBlur stdDeviation="15"/>
<feColorMatrix type="matrix" values="0 0 0 0 0.593438 0 0 0 0 0.707729 0 0 0 0 0.879167 0 0 0 0.25 0"/>
<feBlend mode="normal" in2="BackgroundImageFix" result="effect1_dropShadow"/>
<feBlend mode="normal" in="SourceGraphic" in2="effect1_dropShadow" result="shape"/>
</filter>
<filter id="filter3_d" x="0" y="73" width="92.0333" height="91" filterUnits="userSpaceOnUse" color-interpolation-filters="sRGB">
<feFlood flood-opacity="0" result="BackgroundImageFix"/>
<feColorMatrix in="SourceAlpha" type="matrix" values="0 0 0 0 0 0 0 0 0 0 0 0 0 0 0 0 0 0 127 0" result="hardAlpha"/>
<feOffset dy="9"/>
<feGaussianBlur stdDeviation="15"/>
<feColorMatrix type="matrix" values="0 0 0 0 0.593438 0 0 0 0 0.707729 0 0 0 0 0.879167 0 0 0 0.25 0"/>
<feBlend mode="normal" in2="BackgroundImageFix" result="effect1_dropShadow"/>
<feBlend mode="normal" in="SourceGraphic" in2="effect1_dropShadow" result="shape"/>
</filter>
<linearGradient id="paint0_linear" x1="31.4254" y1="15.3566" x2="31.4254" y2="62.8507" gradientUnits="userSpaceOnUse">
<stop stop-color="#FFED49"/>
<stop offset="1" stop-color="#FFC369"/>
</linearGradient>
<linearGradient id="paint1_linear" x1="59" y1="0" x2="59" y2="118" gradientUnits="userSpaceOnUse">
<stop stop-color="#B0E7C6"/>
<stop offset="1" stop-color="#5DD1B3"/>
</linearGradient>
<linearGradient id="paint2_linear" x1="16.0167" y1="0" x2="16.0167" y2="31" gradientUnits="userSpaceOnUse">
<stop stop-color="#85BEFF"/>
<stop offset="1" stop-color="#5183BB"/>
</linearGradient>
</defs>
</svg>
