<?xml version="1.0" encoding="UTF-8"?>
<svg width="32px" height="40px" viewBox="0 0 32 40" version="1.1" xmlns="http://www.w3.org/2000/svg" xmlns:xlink="http://www.w3.org/1999/xlink">
    <!-- Generator: Sketch 52.6 (67491) - http://www.bohemiancoding.com/sketch -->
    <title>bolt icon</title>
    <desc>Created with Sketch.</desc>
    <g id="15--Landing-page-Copy" stroke="none" stroke-width="1" fill="none" fill-rule="evenodd">
        <g id="2.0--Features" transform="translate(-226.000000, -516.000000)" fill="#7450C8" fill-rule="nonzero">
            <g id="General-features-1" transform="translate(0.000000, 404.000000)">
                <g id="Categories" transform="translate(185.000000, 104.000000)">
                    <g id="Group-6" transform="translate(0.000000, 8.000000)">
                        <path d="M72.2676203,13.198631 C71.9678675,12.4999221 71.302548,12.0346723 70.5519204,11.9988631 L61.5198451,11.9988631 L64.0243726,2.5206967 C64.186054,1.91951894 64.0620948,1.27627892 63.6891209,0.781033248 C63.3168089,0.290634161 62.7415352,0.00267166531 62.1311865,0.00118411346 L48.3267046,0.00118411346 C47.4099513,-0.0306567979 46.5925937,0.582635789 46.3546357,1.48089786 L41.0694913,21.4770295 C40.9078098,22.0782073 41.031769,22.7214473 41.404743,23.216693 C41.7812728,23.7126811 42.3651246,24.0012843 42.982398,23.9965421 L50.6143044,23.9965421 L47.0448598,37.4739348 C46.8040887,38.3686621 47.2016627,39.3138286 48.0051779,39.7569317 C48.808693,40.2000348 49.8072338,40.0247641 50.4170976,39.3335751 L71.9126479,15.3382171 C72.4354489,14.7577676 72.5743449,13.9205759 72.2676203,13.198631 Z M52.9557331,30.4761905 L55.0193782,22.444062 C55.1774992,21.8403531 55.0562698,21.1944048 54.6915094,20.697074 C54.3273964,20.2046102 53.7647913,19.9154353 53.1678835,19.9139415 L45.7619048,19.9139415 L49.889195,3.80952381 L59.3973917,3.80952381 L56.9480186,13.3275961 C56.7885476,13.9427164 56.9189172,14.6001318 57.2993372,15.0991924 C57.6797572,15.5982531 58.2650799,15.8797311 58.8766589,15.8577166 L65.7619048,15.8577166 L52.9557331,30.4761905 Z" id="bolt-icon"></path>
                    </g>
                </g>
            </g>
        </g>
    </g>
</svg>