<svg width="16" height="16" viewBox="0 0 16 16" fill="none" xmlns="http://www.w3.org/2000/svg">
<ellipse cx="7.76464" cy="7.78226" rx="7.18945" ry="7.20581" fill="white"/>
<path fill-rule="evenodd" clip-rule="evenodd" d="M0 8C0 3.58173 3.58172 0 8 0C12.4163 0.00471497 15.9953 3.58369 16 8C16 12.4183 12.4183 16 8 16C3.58172 16 0 12.4183 0 8ZM6.68945 11.2613L12.4038 5.54701C12.6176 5.32556 12.6176 4.9745 12.4038 4.75305C12.1845 4.52608 11.8228 4.51978 11.5958 4.73901L6.28545 10.0493L4.40372 8.16759C4.3991 8.16281 4.39441 8.15816 4.38966 8.15353C4.16265 7.9343 3.80091 7.94058 3.58166 8.16759C3.36242 8.39461 3.36872 8.75635 3.59573 8.97559L5.88146 11.2613C6.10458 11.4844 6.46629 11.4844 6.68945 11.2613Z" fill="url(#paint0_linear)"/>
<defs>
<linearGradient id="paint0_linear" x1="8" y1="0" x2="8" y2="16" gradientUnits="userSpaceOnUse">
<stop stop-color="#B0E7C6"/>
<stop offset="1" stop-color="#5DD1B3"/>
</linearGradient>
</defs>
</svg>
