<svg width="30" height="30" viewBox="0 0 30 30" fill="none" xmlns="http://www.w3.org/2000/svg">
<ellipse cx="14.5586" cy="14.592" rx="13.4802" ry="13.5109" fill="white"/>
<path fill-rule="evenodd" clip-rule="evenodd" d="M0 15C0 6.71573 6.71573 0 15 0C23.2806 0.0088501 29.9912 6.71942 30 15C30 23.2843 23.2843 30 15 30C6.71573 30 0 23.2843 0 15ZM12.5432 21.1145L23.2575 10.4002C23.6585 9.98499 23.6585 9.32675 23.2575 8.91153C22.8464 8.48596 22.1682 8.47415 21.7425 8.88522L11.7857 18.8421L8.25745 15.3138C8.24878 15.3048 8.23999 15.2961 8.23108 15.2874C7.80544 14.8764 7.12717 14.8882 6.71609 15.3138C6.30502 15.7394 6.31682 16.4177 6.74246 16.8288L11.0282 21.1145C11.4466 21.5328 12.1248 21.5328 12.5432 21.1145Z" fill="url(#paint0_linear)"/>
<defs>
<linearGradient id="paint0_linear" x1="15" y1="0" x2="15" y2="30" gradientUnits="userSpaceOnUse">
<stop stop-color="#B0E7C6"/>
<stop offset="1" stop-color="#5DD1B3"/>
</linearGradient>
</defs>
</svg>
