<?xml version="1.0" encoding="UTF-8"?>
<svg width="33px" height="34px" viewBox="0 0 33 34" version="1.1" xmlns="http://www.w3.org/2000/svg" xmlns:xlink="http://www.w3.org/1999/xlink">
    <!-- Generator: Sketch 52.6 (67491) - http://www.bohemiancoding.com/sketch -->
    <title>check-circle</title>
    <desc>Created with Sketch.</desc>
    <g id="15--Landing-page-Copy" stroke="none" stroke-width="1" fill="none" fill-rule="evenodd">
        <g id="2.0--Features" transform="translate(-1232.000000, -4907.000000)" fill="#7450C8" fill-rule="nonzero">
            <g id="Group-21" transform="translate(0.000000, 4662.000000)">
                <g id="Group-20" transform="translate(140.000000, 223.000000)">
                    <g id="Group-18" transform="translate(1055.000000, 0.500000)">
                        <g id="check-circle" transform="translate(37.000000, 22.000000)">
                            <path d="M20.988,11.2035 L13.9095,18.2985 L11.187,15.576 C10.7837567,15.1051293 10.1506046,14.9000248 9.5478587,15.0450133 C8.94511274,15.1900018 8.47450176,15.6606127 8.32951328,16.2633587 C8.18452479,16.8661046 8.38962934,17.4992567 8.8605,17.9025 L12.738,21.7965 C13.0493861,22.1053577 13.4709251,22.2775357 13.9095,22.275 C14.3423608,22.2731774 14.7571699,22.1013279 15.0645,21.7965 L23.3145,13.5465 C23.6268659,13.2366851 23.8025672,12.8149519 23.8025672,12.375 C23.8025672,11.9350481 23.6268659,11.5133149 23.3145,11.2035 C22.6709382,10.5637561 21.6315618,10.5637561 20.988,11.2035 Z M16.5,7.32747196e-16 C7.38730163,-3.66373598e-16 7.32747196e-16,7.38730163 0,16.5 C-7.32747196e-16,25.6126984 7.38730163,33 16.5,33 C25.6126984,33 33,25.6126984 33,16.5 C33,12.1239279 31.2616121,7.92708835 28.1672619,4.83273811 C25.0729116,1.73838787 20.8760721,3.66373598e-16 16.5,7.32747196e-16 Z M16.5,29.7 C9.2098413,29.7 3.3,23.7901587 3.3,16.5 C3.3,9.2098413 9.2098413,3.3 16.5,3.3 C23.7901587,3.3 29.7,9.2098413 29.7,16.5 C29.7,20.0008577 28.3092897,23.3583293 25.8338095,25.8338095 C23.3583293,28.3092897 20.0008577,29.7 16.5,29.7 Z" id="Shape"></path>
                        </g>
                    </g>
                </g>
            </g>
        </g>
    </g>
</svg>