<?xml version="1.0" encoding="UTF-8"?>
<svg width="32px" height="33px" viewBox="0 0 32 33" version="1.1" xmlns="http://www.w3.org/2000/svg" xmlns:xlink="http://www.w3.org/1999/xlink">
    <!-- Generator: Sketch 52.6 (67491) - http://www.bohemiancoding.com/sketch -->
    <title>cog</title>
    <desc>Created with Sketch.</desc>
    <g id="15--Landing-page-Copy" stroke="none" stroke-width="1" fill="none" fill-rule="evenodd">
        <g id="2.0--Features" transform="translate(-177.000000, -4909.000000)" fill="#7450C8" fill-rule="nonzero">
            <g id="Group-21" transform="translate(0.000000, 4662.000000)">
                <g id="Group-20" transform="translate(140.000000, 223.000000)">
                    <g id="Group-18" transform="translate(0.000000, 0.500000)">
                        <g id="cog" transform="translate(37.000000, 24.000000)">
                            <path d="M30.911995,12.0799993 L27.887996,11.0719998 L29.3119955,8.22400124 C29.6078312,7.61307058 29.4859799,6.88196284 29.0079956,6.40000216 L25.5999968,2.99200387 C25.1152289,2.5067472 24.3750883,2.38446312 23.7599974,2.68800403 L20.9119983,4.11200331 L19.9039987,1.08800483 C19.6857792,0.441864918 19.081975,0.00507045371 18.3999992,5.37776778e-06 L13.6000008,5.37776778e-06 C12.9121356,-0.00177023646 12.3001166,0.43630641 12.0800013,1.08800483 L11.0720017,4.11200331 L8.22400261,2.68800403 C7.61307185,2.39216836 6.88196399,2.51401965 6.40000323,2.99200387 L2.99200437,6.40000216 C2.50674762,6.88476991 2.38446352,7.6249104 2.68800447,8.24000123 L4.112004,11.0879998 L1.08800501,12.0959993 C0.441864992,12.3142187 0.00507045456,12.9180228 5.37776868e-06,13.5999985 L5.37776868e-06,18.3999961 C-0.00177023676,19.0878612 0.436306483,19.6998801 1.08800501,19.9199954 L4.112004,20.9279948 L2.68800447,23.7759934 C2.39216876,24.3869241 2.51402007,25.1180318 2.99200437,25.5999925 L6.40000323,29.0079908 C6.88477106,29.4932475 7.62491167,29.6155315 8.24000261,29.3119906 L11.0880017,27.8879913 L12.0960013,30.9119898 C12.3161166,31.5636882 12.9281356,32.0017649 13.6160008,31.9999893 L18.4159992,31.9999893 C19.1038644,32.0017649 19.7158834,31.5636882 19.9359987,30.9119898 L20.9439983,27.8879913 L23.7919974,29.3119906 C24.398728,29.6002217 25.1208918,29.478796 25.5999968,29.0079908 L29.0079956,25.5999925 C29.4932524,25.1152247 29.6155365,24.3750843 29.3119955,23.7599934 L27.887996,20.9119949 L30.911995,19.9039954 C31.558135,19.6857759 31.9949295,19.0819718 31.9999946,18.3999961 L31.9999946,13.5999985 C32.0017702,12.9121334 31.5636935,12.3001146 30.911995,12.0799993 Z M28.7999957,17.2479967 L26.8799963,17.8879964 C25.986402,18.1778522 25.2653131,18.8457263 24.9079355,19.7145234 C24.5505579,20.5833204 24.5929961,21.5652694 25.023997,22.3999941 L25.9359967,24.2239932 L24.1759973,25.9839923 L22.3999978,25.0239928 C21.5697921,24.6103769 20.6009652,24.5773336 19.7445075,24.9334235 C18.8880499,25.2895133 18.2282352,25.9996978 17.9359993,26.8799919 L17.2959996,28.7999909 L14.7520004,28.7999909 L14.1120006,26.8799919 C13.8221448,25.9863976 13.1542706,25.2653089 12.2854734,24.9079313 C11.4166762,24.5505538 10.434727,24.592992 9.60000215,25.0239928 L7.77600276,25.9359923 L6.01600336,24.1759932 L6.97600303,22.3999941 C7.40700391,21.5652694 7.44944207,20.5833204 7.0920645,19.7145234 C6.73468693,18.8457263 6.01359801,18.1778522 5.12000366,17.8879964 L3.2000043,17.2479967 L3.2000043,14.751998 L5.12000366,14.1119983 C6.01359801,13.8221425 6.73468693,13.1542684 7.0920645,12.2854713 C7.44944207,11.4166743 7.40700391,10.4347252 6.97600303,9.60000055 L6.06400334,7.82400144 L7.82400275,6.06400233 L9.60000215,6.97600187 C10.434727,7.40700267 11.4166762,7.44944082 12.2854734,7.09206331 C13.1542706,6.7346858 13.8221448,6.01359701 14.1120006,5.1200028 L14.7520004,3.20000377 L17.2479996,3.20000377 L17.8879994,5.1200028 C18.1778552,6.01359701 18.8457294,6.7346858 19.7145266,7.09206331 C20.5833238,7.44944082 21.565273,7.40700267 22.3999978,6.97600187 L24.2239972,6.06400233 L25.9839966,7.82400144 L25.023997,9.60000055 C24.610381,10.4302061 24.5773377,11.3990329 24.9334276,12.2554904 C25.2895175,13.1119479 25.9997021,13.7717625 26.8799963,14.0639983 L28.7999957,14.703998 L28.7999957,17.2479967 Z M16,9.60000055 C12.4653788,9.60000055 9.60000215,12.4653767 9.60000215,15.9999973 C9.60000215,19.5346179 12.4653788,22.3999941 16,22.3999941 C19.5346212,22.3999941 22.3999978,19.5346179 22.3999978,15.9999973 C22.3999978,14.3026126 21.7257143,12.6747484 20.5254819,11.4745162 C19.3252495,10.274284 17.697385,9.60000055 16,9.60000055 Z M16,19.1999957 C14.2326894,19.1999957 12.8000011,17.7673076 12.8000011,15.9999973 C12.8000011,14.232687 14.2326894,12.7999989 16,12.7999989 C17.7673106,12.7999989 19.1999989,14.232687 19.1999989,15.9999973 C19.1999989,17.7673076 17.7673106,19.1999957 16,19.1999957 Z" id="Shape"></path>
                        </g>
                    </g>
                </g>
            </g>
        </g>
    </g>
</svg>