<?xml version="1.0" encoding="UTF-8"?>
<svg width="40px" height="40px" viewBox="0 0 40 40" version="1.1" xmlns="http://www.w3.org/2000/svg" xmlns:xlink="http://www.w3.org/1999/xlink">
    <!-- Generator: Sketch 52.6 (67491) - http://www.bohemiancoding.com/sketch -->
    <title>Group 55</title>
    <desc>Created with Sketch.</desc>
    <g id="Website" stroke="none" stroke-width="1" fill="none" fill-rule="evenodd">
        <g id="6--Pricing" transform="translate(-582.000000, -1726.000000)">
            <g id="Group-55" transform="translate(582.000000, 1726.000000)">
                <rect id="Rectangle" fill="#1C3C55" x="0" y="0" width="40" height="40" rx="7"></rect>
                <g id="code-branch" transform="translate(11.000000, 8.000000)" fill="#FFFFFF" fill-rule="nonzero">
                    <path d="M14.8571429,4.64 C13.2228069,4.64108774 11.8164376,5.79560199 11.4969864,7.39841397 C11.1775351,9.00122594 12.0338195,10.6067024 13.5428571,11.2342857 C13.1870681,12.0871837 12.3527019,12.6419245 11.4285714,12.64 L6.85714286,12.64 C6.05147443,12.6433773 5.26170614,12.8645124 4.57142857,13.28 L4.57142857,6.72 C6.14576764,6.16338708 7.09013953,4.55352431 6.80776649,2.90773364 C6.52539345,1.26194298 5.09841018,0.0589404289 3.42857143,0.0589404289 C1.75873268,0.0589404289 0.331749403,1.26194298 0.0493763669,2.90773364 C-0.232996669,4.55352431 0.711375217,6.16338708 2.28571429,6.72 L2.28571429,16.2742857 C0.731766377,16.8331307 -0.203022685,18.4203115 0.0617704944,20.0503257 C0.326563673,21.68034 1.71569559,22.8900036 3.36663512,22.9282198 C5.01757466,22.966436 6.46119163,21.8223452 6.8011244,20.2063293 C7.14105716,18.5903134 6.28071059,16.9615785 4.75428571,16.3314286 C5.10847233,15.4823664 5.93717137,14.9283991 6.85714286,14.9257143 L11.4285714,14.9257143 C13.5830018,14.9252804 15.4447125,13.4206754 15.8971429,11.3142857 C17.4744713,10.7783381 18.4382896,9.1861468 18.1818018,7.54011552 C17.9253141,5.89408424 16.522756,4.67062624 14.8571429,4.64 Z M3.42857143,2.35428571 C4.059754,2.35428571 4.57142857,2.86596029 4.57142857,3.49714286 C4.57142857,4.12832543 4.059754,4.64 3.42857143,4.64 C2.79738886,4.64 2.28571429,4.12832543 2.28571429,3.49714286 C2.28571429,2.86596029 2.79738886,2.35428571 3.42857143,2.35428571 Z M3.42857143,20.64 C2.79738886,20.64 2.28571429,20.1283254 2.28571429,19.4971429 C2.28571429,18.8659603 2.79738886,18.3542857 3.42857143,18.3542857 C4.059754,18.3542857 4.57142857,18.8659603 4.57142857,19.4971429 C4.57142857,20.1283254 4.059754,20.64 3.42857143,20.64 Z M14.8571429,9.21142857 C14.2259603,9.21142857 13.7142857,8.699754 13.7142857,8.06857143 C13.7142857,7.43738886 14.2259603,6.92571429 14.8571429,6.92571429 C15.4883254,6.92571429 16,7.43738886 16,8.06857143 C16,8.699754 15.4883254,9.21142857 14.8571429,9.21142857 Z" id="Shape"></path>
                </g>
            </g>
        </g>
    </g>
</svg>