<?xml version="1.0" encoding="UTF-8"?>
<svg width="24px" height="20px" viewBox="0 0 24 20" version="1.1" xmlns="http://www.w3.org/2000/svg" xmlns:xlink="http://www.w3.org/1999/xlink">
    <!-- Generator: Sketch 52.6 (67491) - http://www.bohemiancoding.com/sketch -->
    <title>envelope</title>
    <desc>Created with Sketch.</desc>
    <g id="15--Landing-page-Copy" stroke="none" stroke-width="1" fill="none" fill-rule="evenodd">
        <g id="2.0--Features" transform="translate(-1025.000000, -4905.000000)" fill="#7450C8" fill-rule="nonzero">
            <g id="Group-21" transform="translate(0.000000, 4662.000000)">
                <g id="Group-20" transform="translate(140.000000, 223.000000)">
                    <g id="Group-18" transform="translate(844.000000, 0.500000)">
                        <g id="envelope" transform="translate(41.000000, 20.000000)">
                            <path d="M20.1875,1.05471187e-15 L3.5625,1.05471187e-15 C1.59498558,0 5.27355937e-16,1.59498558 0,3.5625 L0,15.4375 C5.27355937e-16,17.4050144 1.59498558,19 3.5625,19 L20.1875,19 C22.1550144,19 23.75,17.4050144 23.75,15.4375 L23.75,3.5625 C23.75,1.59498558 22.1550144,0 20.1875,1.05471187e-15 Z M19.700625,2.375 L12.718125,9.3575 C12.4951522,9.58230877 12.1916321,9.70876051 11.875,9.70876051 C11.5583679,9.70876051 11.2548478,9.58230877 11.031875,9.3575 L4.049375,2.375 L19.700625,2.375 Z M21.375,15.4375 C21.375,16.0933381 20.8433381,16.625 20.1875,16.625 L3.5625,16.625 C2.90666186,16.625 2.375,16.0933381 2.375,15.4375 L2.375,4.049375 L9.3575,11.031875 C10.7483833,12.4210285 13.0016167,12.4210285 14.3925,11.031875 L21.375,4.049375 L21.375,15.4375 Z" id="Shape"></path>
                        </g>
                    </g>
                </g>
            </g>
        </g>
    </g>
</svg>