<svg height="40" viewBox="0 0 40 40" width="40" xmlns="http://www.w3.org/2000/svg"><g fill="none" fill-rule="evenodd"><rect fill="#6c9cdb" height="40" rx="7" width="40"/><path d="m19.2 8.328c-.0124995-.11023813-.036634-.2188433-.072-.324v-.108c-.0576973-.1233843-.1346594-.2368022-.228-.336l-7.2-7.2c-.0991978-.09334055-.2126157-.1703027-.336-.228-.0358202-.00508778-.0721798-.00508778-.108 0-.1219022-.06991037-.256532-.11478696-.396-.132h-7.26c-1.9882251 0-3.6 1.6117749-3.6 3.6v16.8c0 1.9882251 1.6117749 3.6 3.6 3.6h12c1.9882251 0 3.6-1.6117749 3.6-3.6v-12s0 0 0-.072zm-7.2-4.236 3.108 3.108h-1.908c-.6627417 0-1.2-.5372583-1.2-1.2zm4.8 16.308c0 .6627417-.5372583 1.2-1.2 1.2h-12c-.6627417 0-1.2-.5372583-1.2-1.2v-16.8c0-.6627417.5372583-1.2 1.2-1.2h6v3.6c0 1.9882251 1.6117749 3.6 3.6 3.6h3.6zm-4.452-8.052-3.948 3.96-1.548-1.56c-.47054661-.4705466-1.23345339-.4705466-1.704 0s-.47054661 1.2334534 0 1.704l2.4 2.4c.22531992.2271752.53203496.354958.852.354958s.62668008-.1277828.852-.354958l4.8-4.8c.4705466-.4705466.4705466-1.2334534 0-1.704s-1.2334534-.4705466-1.704 0z" fill="#fff" fill-rule="nonzero" transform="translate(10 8)"/></g></svg>