<svg fill="none" height="321" viewBox="0 0 414 321" width="414" xmlns="http://www.w3.org/2000/svg" xmlns:xlink="http://www.w3.org/1999/xlink"><filter id="a" color-interpolation-filters="sRGB" filterUnits="userSpaceOnUse" height="317" width="315" x="42" y="0"><feFlood flood-opacity="0" result="BackgroundImageFix"/><feColorMatrix in="SourceAlpha" result="hardAlpha" type="matrix" values="0 0 0 0 0 0 0 0 0 0 0 0 0 0 0 0 0 0 127 0"/><feOffset dx="13" dy="18"/><feGaussianBlur stdDeviation="17.5"/><feColorMatrix type="matrix" values="0 0 0 0 0 0 0 0 0 0.351917 0 0 0 0 0.429167 0 0 0 0.15 0"/><feBlend in2="BackgroundImageFix" mode="normal" result="effect1_dropShadow"/><feBlend in="SourceGraphic" in2="effect1_dropShadow" mode="normal" result="shape"/></filter><filter id="b" color-interpolation-filters="sRGB" filterUnits="userSpaceOnUse" height="85.7143" width="86.5714" x="266" y="86"><feFlood flood-opacity="0" result="BackgroundImageFix"/><feColorMatrix in="SourceAlpha" result="hardAlpha" type="matrix" values="0 0 0 0 0 0 0 0 0 0 0 0 0 0 0 0 0 0 127 0"/><feOffset dy="9"/><feGaussianBlur stdDeviation="15"/><feColorMatrix type="matrix" values="0 0 0 0 0.593438 0 0 0 0 0.707729 0 0 0 0 0.879167 0 0 0 0.25 0"/><feBlend in2="BackgroundImageFix" mode="normal" result="effect1_dropShadow"/><feBlend in="SourceGraphic" in2="effect1_dropShadow" mode="normal" result="shape"/></filter><filter id="c" color-interpolation-filters="sRGB" filterUnits="userSpaceOnUse" height="96" width="97.2" x="72" y="225"><feFlood flood-opacity="0" result="BackgroundImageFix"/><feColorMatrix in="SourceAlpha" result="hardAlpha" type="matrix" values="0 0 0 0 0 0 0 0 0 0 0 0 0 0 0 0 0 0 127 0"/><feOffset dy="9"/><feGaussianBlur stdDeviation="15"/><feColorMatrix type="matrix" values="0 0 0 0 0.593438 0 0 0 0 0.707729 0 0 0 0 0.879167 0 0 0 0.25 0"/><feBlend in2="BackgroundImageFix" mode="normal" result="effect1_dropShadow"/><feBlend in="SourceGraphic" in2="effect1_dropShadow" mode="normal" result="shape"/></filter><filter id="d" color-interpolation-filters="sRGB" filterUnits="userSpaceOnUse" height="131" width="131" x="0" y="45"><feFlood flood-opacity="0" result="BackgroundImageFix"/><feColorMatrix in="SourceAlpha" result="hardAlpha" type="matrix" values="0 0 0 0 0 0 0 0 0 0 0 0 0 0 0 0 0 0 127 0"/><feOffset dx="2" dy="8"/><feGaussianBlur stdDeviation="17.5"/><feColorMatrix type="matrix" values="0 0 0 0 0 0 0 0 0 0.351917 0 0 0 0 0.429167 0 0 0 0.15 0"/><feBlend in2="BackgroundImageFix" mode="normal" result="effect1_dropShadow"/><feBlend in="SourceGraphic" in2="effect1_dropShadow" mode="normal" result="shape"/></filter><linearGradient id="e" gradientUnits="userSpaceOnUse" x1="13.2857" x2="13.2857" y1="0" y2="25.7143"><stop offset="0" stop-color="#b0e7c6"/><stop offset="1" stop-color="#5dd1b3"/></linearGradient><linearGradient id="f" gradientUnits="userSpaceOnUse" x1="18.6" x2="18.6" y1="0" y2="36"><stop offset="0" stop-color="#badbff"/><stop offset="1" stop-color="#89bcf4"/></linearGradient><linearGradient id="g" gradientUnits="userSpaceOnUse" x1="30.5" x2="30.5" y1="14.9044" y2="61"><stop offset="0" stop-color="#ffed49"/><stop offset="1" stop-color="#ffc369"/></linearGradient><mask id="h" height="63" maskUnits="userSpaceOnUse" width="227" x="187" y="169"><rect fill="#fff" height="63" rx="31.5" width="227" x="187" y="169"/></mask><g filter="url(#a)"><rect fill="#fff" height="247" rx="30" width="245" x="64" y="17"/></g><path clip-rule="evenodd" d="m235.412 101.065v14.183h-96.824v-14.183c0-4.6928 3.818-8.5103 8.51-8.5103h79.804c4.692 0 8.51 3.8175 8.51 8.5103zm-14.373 2.836h-17.019c-1.567 0-2.837 1.27-2.837 2.837 0 1.566 1.27 2.836 2.837 2.836h17.019c1.567 0 2.837-1.27 2.837-2.836 0-1.567-1.27-2.837-2.837-2.837zm-42.549 2.837c0-1.567-1.27-2.837-2.837-2.837-1.566 0-2.836 1.27-2.836 2.837 0 1.566 1.27 2.836 2.836 2.836 1.567 0 2.837-1.27 2.837-2.836zm-11.346 0c0-1.567-1.271-2.837-2.837-2.837-1.567 0-2.837 1.27-2.837 2.837 0 1.566 1.27 2.836 2.837 2.836 1.566 0 2.837-1.27 2.837-2.836zm-11.347 0c0-1.567-1.27-2.837-2.837-2.837-1.566 0-2.836 1.27-2.836 2.837 0 1.566 1.27 2.836 2.836 2.836 1.567 0 2.837-1.27 2.837-2.836zm-17.209 73.752v-59.569h96.824v59.569c0 4.692-3.818 8.51-8.51 8.51h-79.804c-4.692 0-8.51-3.818-8.51-8.51zm33.607-15.248c.979-1.223.781-3.008-.443-3.987l-11.414-9.131 11.414-9.132c1.224-.978 1.422-2.764.443-3.987s-2.764-1.422-3.987-.443l-14.183 11.347c-1.419 1.135-1.418 3.296 0 4.43l14.183 11.346c1.223.979 3.009.78 3.987-.443zm8.902 7.856 17.02-39.713c.617-1.44-.05-3.108-1.49-3.725s-3.107.05-3.724 1.49l-17.02 39.713c-.617 1.44.05 3.107 1.49 3.724 1.44.618 3.107-.05 3.724-1.489zm24.695-7.413 14.183-11.346c1.419-1.135 1.418-3.296 0-4.43l-14.183-11.346c-1.224-.979-3.009-.781-3.987.442-.979 1.224-.781 3.009.443 3.987l11.414 9.132-11.414 9.132c-1.224.978-1.422 2.763-.443 3.986.98 1.226 2.765 1.421 3.987.443z" fill="#d6e9fa" fill-rule="evenodd"/><rect fill="#000" height="63" rx="31.5" width="227" x="187" y="169"/><g mask="url(#h)"><path d="m187 169h227v63h-227z" fill="#5183bb"/><path d="m240.842 199.982h5.664v7.403c-.918.299-1.784.508-2.598.625-.807.123-1.634.185-2.48.185-2.155 0-3.802-.631-4.942-1.894-1.132-1.27-1.699-3.089-1.699-5.459 0-2.305.658-4.102 1.973-5.391 1.321-1.289 3.151-1.933 5.488-1.933 1.465 0 2.878.293 4.238.878l-1.006 2.422c-1.041-.52-2.125-.781-3.251-.781-1.309 0-2.357.44-3.145 1.318-.788.879-1.182 2.061-1.182 3.545 0 1.55.316 2.735.948 3.555.638.814 1.562 1.221 2.773 1.221.632 0 1.273-.065 1.924-.196v-2.978h-2.705zm13.359-.986c-.631 0-1.126.202-1.484.606-.358.397-.563.963-.615 1.699h4.179c-.013-.736-.205-1.302-.576-1.699-.371-.404-.872-.606-1.504-.606zm.42 9.199c-1.758 0-3.131-.485-4.121-1.455s-1.484-2.344-1.484-4.121c0-1.829.455-3.242 1.367-4.238.918-1.003 2.184-1.504 3.799-1.504 1.543 0 2.744.439 3.603 1.318.86.879 1.289 2.093 1.289 3.643v1.445h-7.041c.033.847.283 1.507.752 1.983.469.475 1.126.713 1.973.713.657 0 1.279-.069 1.865-.206.586-.136 1.198-.354 1.836-.654v2.305c-.521.26-1.077.452-1.67.576-.592.13-1.315.195-2.168.195zm16.953-.195h-2.978v-6.377c0-.788-.14-1.377-.42-1.768-.28-.397-.726-.595-1.338-.595-.833 0-1.436.28-1.807.84-.371.553-.556 1.474-.556 2.763v5.137h-2.979v-10.918h2.275l.401 1.397h.166c.332-.528.788-.925 1.367-1.192.586-.273 1.25-.41 1.992-.41 1.27 0 2.233.345 2.891 1.035.657.684.986 1.673.986 2.969zm7.588-9.004c-.631 0-1.126.202-1.484.606-.358.397-.563.963-.616 1.699h4.18c-.013-.736-.205-1.302-.576-1.699-.371-.404-.872-.606-1.504-.606zm.42 9.199c-1.758 0-3.131-.485-4.121-1.455s-1.484-2.344-1.484-4.121c0-1.829.455-3.242 1.367-4.238.918-1.003 2.184-1.504 3.799-1.504 1.543 0 2.744.439 3.603 1.318s1.289 2.093 1.289 3.643v1.445h-7.041c.033.847.283 1.507.752 1.983.469.475 1.126.713 1.973.713.657 0 1.279-.069 1.865-.206.586-.136 1.198-.354 1.836-.654v2.305c-.521.26-1.078.452-1.67.576-.592.13-1.315.195-2.168.195zm12.969-11.318c.403 0 .739.029 1.006.088l-.225 2.793c-.241-.065-.534-.098-.879-.098-.95 0-1.693.244-2.226.733-.528.488-.791 1.171-.791 2.05v5.557h-2.979v-10.918h2.256l.439 1.836h.147c.338-.612.794-1.104 1.367-1.475.579-.377 1.208-.566 1.885-.566zm9.922 11.123-.577-1.484h-.078c-.501.631-1.019 1.071-1.552 1.318-.528.241-1.218.361-2.071.361-1.048 0-1.875-.299-2.48-.898-.599-.599-.899-1.452-.899-2.559 0-1.159.404-2.011 1.211-2.558.814-.554 2.038-.86 3.672-.918l1.895-.059v-.478c0-1.107-.567-1.661-1.699-1.661-.873 0-1.898.264-3.077.791l-.986-2.011c1.257-.658 2.65-.987 4.18-.987 1.465 0 2.588.319 3.369.957s1.172 1.609 1.172 2.911v7.275zm-.879-5.059-1.153.039c-.865.027-1.51.183-1.933.469-.423.287-.635.723-.635 1.309 0 .84.482 1.26 1.445 1.26.69 0 1.241-.199 1.651-.596.416-.397.625-.925.625-1.582zm10.635 2.881c.52 0 1.145-.114 1.875-.342v2.217c-.743.332-1.654.498-2.735.498-1.191 0-2.06-.299-2.607-.898-.541-.606-.811-1.511-.811-2.715v-5.264h-1.426v-1.259l1.641-.997.859-2.304h1.905v2.324h3.056v2.236h-3.056v5.264c0 .423.117.736.351.938.241.201.557.302.948.302zm8.613-6.826c-.632 0-1.127.202-1.485.606-.358.397-.563.963-.615 1.699h4.18c-.013-.736-.205-1.302-.576-1.699-.371-.404-.873-.606-1.504-.606zm.42 9.199c-1.758 0-3.132-.485-4.121-1.455-.99-.97-1.485-2.344-1.485-4.121 0-1.829.456-3.242 1.367-4.238.918-1.003 2.185-1.504 3.799-1.504 1.543 0 2.744.439 3.604 1.318.859.879 1.289 2.093 1.289 3.643v1.445h-7.041c.032.847.283 1.507.752 1.983.469.475 1.126.713 1.972.713.658 0 1.28-.069 1.866-.206.586-.136 1.198-.354 1.836-.654v2.305c-.521.26-1.078.452-1.67.576-.593.13-1.315.195-2.168.195zm14.931-6.133 1.299-1.66 3.057-3.32h3.359l-4.336 4.736 4.6 6.182h-3.438l-3.144-4.424-1.279 1.026v3.398h-2.979v-15.195h2.979v6.777l-.157 2.48zm14.063-3.066c-.632 0-1.126.202-1.485.606-.358.397-.563.963-.615 1.699h4.18c-.013-.736-.205-1.302-.576-1.699-.371-.404-.873-.606-1.504-.606zm.42 9.199c-1.758 0-3.132-.485-4.121-1.455-.99-.97-1.485-2.344-1.485-4.121 0-1.829.456-3.242 1.368-4.238.917-1.003 2.184-1.504 3.798-1.504 1.543 0 2.744.439 3.604 1.318.859.879 1.289 2.093 1.289 3.643v1.445h-7.041c.032.847.283 1.507.752 1.983.469.475 1.126.713 1.972.713.658 0 1.28-.069 1.866-.206.586-.136 1.198-.354 1.836-.654v2.305c-.521.26-1.078.452-1.67.576-.593.13-1.315.195-2.168.195zm5.312-11.113h3.262l2.061 6.143c.175.533.296 1.165.361 1.894h.058c.072-.67.212-1.302.42-1.894l2.022-6.143h3.193l-4.619 12.314c-.423 1.14-1.029 1.993-1.816 2.559-.782.566-1.696.85-2.744.85-.515 0-1.019-.056-1.514-.166v-2.364c.358.085.749.127 1.172.127.527 0 .986-.162 1.377-.488.397-.319.706-.804.927-1.455l.176-.537z" fill="#fff"/></g><g filter="url(#b)"><rect fill="url(#e)" height="25.7143" rx="12.8571" transform="matrix(-1 0 0 1 322.572 107)" width="26.5714"/></g><g filter="url(#c)"><rect fill="url(#f)" height="36" rx="18" transform="matrix(-1 0 0 1 139.2 246)" width="37.2"/></g><g filter="url(#d)"><rect fill="url(#g)" height="61" rx="20" transform="matrix(-1 0 0 1 94 72)" width="61"/></g><path d="m77.3433 106.344-2.6459-2.069c.0336-.319.0624-.692.0624-1.086 0-.395-.0276-.768-.0624-1.087l2.6483-2.07c.4918-.3888.6261-1.0785.3131-1.6529l-2.7515-4.7606c-.2939-.5373-.9379-.8132-1.5916-.5721l-3.1221 1.2534c-.5985-.4318-1.2258-.7964-1.8747-1.0879l-.4749-3.3115c-.078-.6286-.625-1.1035-1.2714-1.1035h-5.5173c-.6465 0-1.1922.4749-1.269 1.0938l-.4762 3.3236c-.6285.2831-1.2461.6429-1.871 1.0879l-3.1305-1.257c-.5866-.2267-1.2883.0276-1.5797.5625l-2.755 4.7665c-.3251.5494-.1907 1.263.3118 1.6608l2.6459 2.069c-.042.405-.0623.756-.0623 1.086s.0204.681.0623 1.087l-2.6483 2.07c-.4918.39-.6249 1.079-.3118 1.653l2.7514 4.76c.2939.536.932.814 1.5916.572l3.1221-1.253c.5973.43 1.2246.795 1.8735 1.088l.475 3.31c.0779.631.6237 1.106 1.2714 1.106h5.5173c.6465 0 1.1934-.475 1.2702-1.094l.4761-3.322c.6285-.285 1.245-.643 1.8711-1.089l3.1305 1.257c.1511.058.3082.088.4702.088.4653 0 .8935-.254 1.1094-.65l2.7635-4.785c.307-.562.1727-1.251-.3215-1.644zm-13.5294 1.644c-2.6459 0-4.7976-2.152-4.7976-4.798s2.1517-4.7978 4.7976-4.7978 4.7977 2.1518 4.7977 4.7978-2.1518 4.798-4.7977 4.798z" fill="#fff"/></svg>