<?xml version="1.0" encoding="UTF-8"?>
<svg width="20px" height="20px" viewBox="0 0 20 20" version="1.1" xmlns="http://www.w3.org/2000/svg" xmlns:xlink="http://www.w3.org/1999/xlink">
    <!-- Generator: Sketch 52.6 (67491) - http://www.bohemiancoding.com/sketch -->
    <title>globe</title>
    <desc>Created with Sketch.</desc>
    <g id="Symbols" stroke="none" stroke-width="1" fill="none" fill-rule="evenodd">
        <g id="Footer" transform="translate(-1077.000000, -85.000000)" fill="#FFFFFF" fill-rule="nonzero">
            <g id="Language">
                <g transform="translate(1077.000000, 77.000000)">
                    <g id="globe" transform="translate(0.000000, 8.000000)">
                        <path d="M19.41,6.64 C19.41,6.64 19.41,6.64 19.41,6.59 C17.9667228,2.64940744 14.2165842,0.0291714118 10.02,0.0291714118 C5.82341581,0.0291714118 2.07327724,2.64940744 0.63,6.59 C0.63,6.59 0.63,6.59 0.63,6.64 C-0.156875226,8.81089591 -0.156875226,11.1891041 0.63,13.36 C0.63,13.36 0.63,13.36 0.63,13.41 C2.07327724,17.3505926 5.82341581,19.9708286 10.02,19.9708286 C14.2165842,19.9708286 17.9667228,17.3505926 19.41,13.41 C19.41,13.41 19.41,13.41 19.41,13.36 C20.1968752,11.1891041 20.1968752,8.81089591 19.41,6.64 Z M2.26,12 C1.91322751,10.6892138 1.91322751,9.31078624 2.26,8 L4.12,8 C3.96003211,9.32853526 3.96003211,10.6714647 4.12,12 L2.26,12 Z M3.08,14 L4.48,14 C4.7147188,14.8918416 5.05021256,15.7540606 5.48,16.57 C4.499298,15.90193 3.67949668,15.0240594 3.08,14 Z M4.48,6 L3.08,6 C3.67087,4.97908518 4.4801919,4.10146607 5.45,3.43 C5.03055414,4.24724391 4.70514158,5.10941945 4.48,6 Z M9,17.7 C7.77176492,16.7986814 6.90914838,15.4852323 6.57,14 L9,14 L9,17.7 Z M9,12 L6.14,12 C5.95338959,10.6731961 5.95338959,9.32680394 6.14,8 L9,8 L9,12 Z M9,6 L6.57,6 C6.90914838,4.51476768 7.77176492,3.20131862 9,2.3 L9,6 Z M16.92,6 L15.52,6 C15.2852812,5.10815839 14.9497874,4.24593942 14.52,3.43 C15.500702,4.09807001 16.3205033,4.97594059 16.92,6 Z M11,2.3 C12.2282351,3.20131862 13.0908516,4.51476768 13.43,6 L11,6 L11,2.3 Z M11,17.7 L11,14 L13.43,14 C13.0908516,15.4852323 12.2282351,16.7986814 11,17.7 Z M13.86,12 L11,12 L11,8 L13.86,8 C14.0466104,9.32680394 14.0466104,10.6731961 13.86,12 Z M14.55,16.57 C14.9797874,15.7540606 15.3152812,14.8918416 15.55,14 L16.95,14 C16.3505033,15.0240594 15.530702,15.90193 14.55,16.57 Z M17.74,12 L15.88,12 C15.9613296,11.3364572 16.0014066,10.668507 16,10 C16.0011005,9.33150188 15.9610247,8.66357061 15.88,8 L17.74,8 C18.0867725,9.31078624 18.0867725,10.6892138 17.74,12 Z" id="Shape"></path>
                    </g>
                </g>
            </g>
        </g>
    </g>
</svg>