<?xml version="1.0" encoding="UTF-8"?>
<svg width="24px" height="29px" viewBox="0 0 24 29" version="1.1" xmlns="http://www.w3.org/2000/svg" xmlns:xlink="http://www.w3.org/1999/xlink">
    <!-- Generator: Sketch 52.6 (67491) - http://www.bohemiancoding.com/sketch -->
    <title>Shape</title>
    <desc>Created with Sketch.</desc>
    <g id="15--Landing-page-Copy" stroke="none" stroke-width="1" fill="none" fill-rule="evenodd">
        <g id="2.0--Features" transform="translate(-814.000000, -4903.000000)" fill="#7450C8" fill-rule="nonzero">
            <g id="Group-21" transform="translate(0.000000, 4662.000000)">
                <g id="Group-20" transform="translate(140.000000, 223.000000)">
                    <g id="Group-18" transform="translate(633.000000, 1.000000)">
                        <path d="M63.6706056,19.3908637 C63.3293037,19.1147729 62.8813244,19.0081112 62.4522242,19.1007729 C59.3195995,19.7572905 56.0549166,19.0907073 53.4303998,17.2586962 C52.933192,16.9137679 52.27409,16.9137679 51.7768822,17.2586962 C49.1523654,19.0907073 45.8876825,19.7572905 42.7550578,19.1007729 C42.3259577,19.0081112 41.8779784,19.1147729 41.5366764,19.3908637 C41.1958321,19.6673638 40.9985161,20.0833273 41.0000084,20.5222179 L41.0000084,31.3281007 C40.997392,35.5475087 43.0343626,39.5079846 46.4682203,41.9599291 L51.7623777,45.7311097 C52.2659235,46.0896301 52.9413585,46.0896301 53.4449044,45.7311097 L58.7390618,41.9599291 C62.1729195,39.5079846 64.20989,35.5475087 64.2072736,31.3281007 L64.2072736,20.5222179 C64.2087659,20.0833273 64.01145,19.6673638 63.6706056,19.3908637 Z M61.3063655,31.3281007 C61.3086228,34.6087083 59.7256302,37.6882503 57.056535,39.595689 L52.603641,42.7721834 L48.150747,39.595689 C45.4816518,37.6882503 43.8986592,34.6087083 43.9009166,31.3281007 L43.9009166,22.19024 C46.9416897,22.4504994 49.9870807,21.7449838 52.603641,20.1741089 C55.2202013,21.7449838 58.2655924,22.4504994 61.3063655,22.19024 L61.3063655,31.3281007 Z M54.8373403,28.0065609 L50.9356188,31.9227869 L49.6447147,30.6173782 C49.0759595,30.048623 48.1538251,30.048623 47.5850699,30.6173782 C47.0163147,31.1861334 47.0163147,32.1082678 47.5850699,32.677023 L49.9057964,34.9977495 C50.1781433,35.2723388 50.5488733,35.4267914 50.9356188,35.4267914 C51.3223643,35.4267914 51.6930944,35.2723388 51.9654412,34.9977495 L56.9550032,30.0517011 C57.5237584,29.4829459 57.5237584,28.5608116 56.9550032,27.9920564 C56.386248,27.4233012 55.4641137,27.4233012 54.8953585,27.9920564 L54.8373403,28.0065609 Z" id="Shape"></path>
                    </g>
                </g>
            </g>
        </g>
    </g>
</svg>