<?xml version="1.0" encoding="UTF-8"?>
<svg width="33px" height="33px" viewBox="0 0 33 33" version="1.1" xmlns="http://www.w3.org/2000/svg" xmlns:xlink="http://www.w3.org/1999/xlink">
    <!-- Generator: Sketch 52.6 (67491) - http://www.bohemiancoding.com/sketch -->
    <title>Icon 3</title>
    <desc>Created with Sketch.</desc>
    <g id="15--Landing-page-Copy" stroke="none" stroke-width="1" fill="none" fill-rule="evenodd">
        <g id="2.0--Features" transform="translate(-1092.000000, -2754.000000)" fill="#7450C8" fill-rule="nonzero">
            <g id="Features-#8" transform="translate(0.000000, 1928.000000)">
                <g id="Fixed-features" transform="translate(181.000000, 825.000000)">
                    <g id="Icon-3" transform="translate(911.000000, 1.000000)">
                        <g id="history">
                            <path d="M16.5,7.32747196e-16 C12.2700363,0.0120651181 8.20625897,1.64820804 5.148,4.5705 L5.148,1.65 C5.148,0.738730163 4.40926984,7.32747196e-16 3.498,7.32747196e-16 C2.58673016,7.32747196e-16 1.848,0.738730163 1.848,1.65 L1.848,9.075 C1.848,9.98626984 2.58673016,10.725 3.498,10.725 L10.923,10.725 C11.8342698,10.725 12.573,9.98626984 12.573,9.075 C12.573,8.16373016 11.8342698,7.425 10.923,7.425 L6.963,7.425 C11.3390913,2.8519741 18.3452985,2.02889817 23.6620784,5.46322395 C28.9788582,8.89754974 31.1094946,15.6224871 28.7403844,21.4919042 C26.3712742,27.3613214 20.1693408,30.7229306 13.9582679,29.5041958 C7.74719499,28.285461 3.2754492,22.8294659 3.3,16.5 C3.3,15.5887302 2.56126984,14.85 1.65,14.85 C0.738730163,14.85 0,15.5887302 0,16.5 C6.59472477e-15,25.6126984 7.38730163,33 16.5,33 C25.6126984,33 33,25.6126984 33,16.5 C33,7.38730163 25.6126984,-3.66373598e-15 16.5,7.32747196e-16 Z M16.75,10 C15.7835017,10 15,10.7163444 15,11.6 L15,16.4 C15,17.2836556 15.7835017,18 16.75,18 L20.25,18 C21.2164983,18 22,17.2836556 22,16.4 C22,15.5163444 21.2164983,14.8 20.25,14.8 L18.5,14.8 L18.5,11.6 C18.5,10.7163444 17.7164983,10 16.75,10 Z" id="Shape"></path>
                        </g>
                    </g>
                </g>
            </g>
        </g>
    </g>
</svg>