<?xml version="1.0" encoding="UTF-8"?>
<svg width="24px" height="24px" viewBox="0 0 24 24" version="1.1" xmlns="http://www.w3.org/2000/svg" xmlns:xlink="http://www.w3.org/1999/xlink">
    <!-- Generator: Sketch 52.6 (67491) - http://www.bohemiancoding.com/sketch -->
    <title>Avatar</title>
    <desc>Created with Sketch.</desc>
    <defs>
        <circle id="path-1" cx="12" cy="12" r="12"></circle>
        <circle id="path-3" cx="12" cy="12" r="12"></circle>
    </defs>
    <g id="15--Landing-page" stroke="none" stroke-width="1" fill="none" fill-rule="evenodd">
        <g id="2--Legal-Pages" transform="translate(-150.000000, -761.000000)">
            <g id="Group-4" transform="translate(150.000000, 709.000000)">
                <g id="Avatar" transform="translate(0.000000, 52.000000)">
                    <mask id="mask-2" fill="white">
                        <use xlink:href="#path-1"></use>
                    </mask>
                    <use id="Photo" fill="#FFFFFF" xlink:href="#path-1"></use>
                    <mask id="mask-4" fill="white">
                        <use xlink:href="#path-3"></use>
                    </mask>
                    <use id="Photo" fill-opacity="0.3" fill="#F86B67" xlink:href="#path-3"></use>
                    <g id="question-circle" mask="url(#mask-4)" fill="#F86B67" fill-rule="nonzero">
                        <path d="M11.148,15.948 C11.0963937,16.0050239 11.0483048,16.065135 11.004,16.128 C10.9585843,16.1948942 10.922266,16.2675309 10.896,16.344 C10.8614013,16.4120228 10.8371347,16.4848226 10.824,16.56 C10.8181097,16.6398916 10.8181097,16.7201084 10.824,16.8 C10.8199439,16.9574118 10.8528224,17.1135847 10.92,17.256 C11.0291086,17.5574763 11.2665237,17.7948914 11.568,17.904 C11.8584479,18.0323721 12.1895521,18.0323721 12.48,17.904 C12.7814763,17.7948914 13.0188914,17.5574763 13.128,17.256 C13.1812872,17.1100926 13.2057396,16.9552274 13.2,16.8 C13.2018441,16.4810364 13.0766238,16.1744626 12.852,15.948 C12.6266801,15.7208248 12.319965,15.593042 12,15.593042 C11.680035,15.593042 11.3733199,15.7208248 11.148,15.948 Z M12,8.8817842e-17 C5.372583,-7.10542736e-16 2.30926389e-15,5.372583 1.77635684e-15,12 C1.24344979e-15,18.627417 5.372583,24 12,24 C18.627417,24 24,18.627417 24,12 C24,8.81740212 22.7357179,5.76515517 20.4852814,3.51471863 C18.2348448,1.26428208 15.1825979,-1.77635684e-16 12,8.8817842e-17 Z M12,21.6 C6.6980664,21.6 2.4,17.3019336 2.4,12 C2.4,6.6980664 6.6980664,2.4 12,2.4 C17.3019336,2.4 21.6,6.6980664 21.6,12 C21.6,14.5460783 20.5885743,16.9878759 18.7882251,18.7882251 C16.9878759,20.5885743 14.5460783,21.6 12,21.6 Z M12,6 C10.7130192,5.99917486 9.52349027,6.68544154 8.88,7.8 C8.64352875,8.17198689 8.63003073,8.64367438 8.84484254,9.02857538 C9.05965434,9.41347639 9.46819379,9.64962635 9.90894009,9.64366067 C10.3496864,9.63769499 10.7516846,9.39057406 10.956,9 C11.1712092,8.62723897 11.5695783,8.39829119 12,8.4 C12.6627417,8.4 13.2,8.9372583 13.2,9.6 C13.2,10.2627417 12.6627417,10.8 12,10.8 C11.3372583,10.8 10.8,11.3372583 10.8,12 L10.8,13.2 C10.8,13.8627417 11.3372583,14.4 12,14.4 C12.6627417,14.4 13.2,13.8627417 13.2,13.2 L13.2,12.984 C14.8379632,12.3896623 15.8151459,10.7075615 15.5200784,8.99026832 C15.2250108,7.2729751 13.7424058,6.0135183 12,6 Z" id="Shape"></path>
                    </g>
                </g>
            </g>
        </g>
    </g>
</svg>