<?xml version="1.0" encoding="UTF-8"?>
<svg width="477px" height="429px" viewBox="0 0 477 429" version="1.1" xmlns="http://www.w3.org/2000/svg" xmlns:xlink="http://www.w3.org/1999/xlink">
    <!-- Generator: Sketch 52.6 (67491) - http://www.bohemiancoding.com/sketch -->
    <title>Image</title>
    <desc>Created with Sketch.</desc>
    <defs>
        <rect id="path-1" x="0" y="0" width="212" height="154" rx="4"></rect>
        <filter x="-6.4%" y="-8.8%" width="115.6%" height="121.4%" filterUnits="objectBoundingBox" id="filter-2">
            <feOffset dx="3" dy="3" in="SourceAlpha" result="shadowOffsetOuter1"></feOffset>
            <feGaussianBlur stdDeviation="5" in="shadowOffsetOuter1" result="shadowBlurOuter1"></feGaussianBlur>
            <feComposite in="shadowBlurOuter1" in2="SourceAlpha" operator="out" result="shadowBlurOuter1"></feComposite>
            <feColorMatrix values="0 0 0 0 0   0 0 0 0 0   0 0 0 0 0  0 0 0 0.1 0" type="matrix" in="shadowBlurOuter1"></feColorMatrix>
        </filter>
        <rect id="path-3" x="0" y="9" width="212" height="154" rx="4"></rect>
        <filter x="-6.8%" y="-9.4%" width="116.5%" height="122.7%" filterUnits="objectBoundingBox" id="filter-4">
            <feMorphology radius="1" operator="dilate" in="SourceAlpha" result="shadowSpreadOuter1"></feMorphology>
            <feOffset dx="3" dy="3" in="shadowSpreadOuter1" result="shadowOffsetOuter1"></feOffset>
            <feMorphology radius="1" operator="erode" in="SourceAlpha" result="shadowInner"></feMorphology>
            <feOffset dx="3" dy="3" in="shadowInner" result="shadowInner"></feOffset>
            <feComposite in="shadowOffsetOuter1" in2="shadowInner" operator="out" result="shadowOffsetOuter1"></feComposite>
            <feGaussianBlur stdDeviation="5" in="shadowOffsetOuter1" result="shadowBlurOuter1"></feGaussianBlur>
            <feColorMatrix values="0 0 0 0 0   0 0 0 0 0   0 0 0 0 0  0 0 0 0.1 0" type="matrix" in="shadowBlurOuter1"></feColorMatrix>
        </filter>
        <circle id="path-5" cx="10" cy="10" r="10"></circle>
        <filter x="-22.5%" y="-22.5%" width="175.0%" height="175.0%" filterUnits="objectBoundingBox" id="filter-6">
            <feOffset dx="3" dy="3" in="SourceAlpha" result="shadowOffsetOuter1"></feOffset>
            <feGaussianBlur stdDeviation="2" in="shadowOffsetOuter1" result="shadowBlurOuter1"></feGaussianBlur>
            <feColorMatrix values="0 0 0 0 0.11372549   0 0 0 0 0.862745098   0 0 0 0 0.752941176  0 0 0 0.2 0" type="matrix" in="shadowBlurOuter1"></feColorMatrix>
        </filter>
        <circle id="path-7" cx="14.5" cy="60.5" r="14.5"></circle>
        <filter x="-48.3%" y="-48.3%" width="217.2%" height="217.2%" filterUnits="objectBoundingBox" id="filter-8">
            <feMorphology radius="0.5" operator="dilate" in="SourceAlpha" result="shadowSpreadOuter1"></feMorphology>
            <feOffset dx="3" dy="3" in="shadowSpreadOuter1" result="shadowOffsetOuter1"></feOffset>
            <feGaussianBlur stdDeviation="5" in="shadowOffsetOuter1" result="shadowBlurOuter1"></feGaussianBlur>
            <feComposite in="shadowBlurOuter1" in2="SourceAlpha" operator="out" result="shadowBlurOuter1"></feComposite>
            <feColorMatrix values="0 0 0 0 0.2   0 0 0 0 0.2   0 0 0 0 0.2  0 0 0 0.1 0" type="matrix" in="shadowBlurOuter1"></feColorMatrix>
        </filter>
        <circle id="path-9" cx="52.5" cy="60.5" r="14.5"></circle>
        <filter x="-46.6%" y="-46.6%" width="213.8%" height="213.8%" filterUnits="objectBoundingBox" id="filter-10">
            <feOffset dx="3" dy="3" in="SourceAlpha" result="shadowOffsetOuter1"></feOffset>
            <feGaussianBlur stdDeviation="5" in="shadowOffsetOuter1" result="shadowBlurOuter1"></feGaussianBlur>
            <feColorMatrix values="0 0 0 0 0.2   0 0 0 0 0.2   0 0 0 0 0.2  0 0 0 0.1 0" type="matrix" in="shadowBlurOuter1"></feColorMatrix>
        </filter>
        <circle id="path-11" cx="89.5" cy="60.5" r="14.5"></circle>
        <filter x="-46.6%" y="-46.6%" width="213.8%" height="213.8%" filterUnits="objectBoundingBox" id="filter-12">
            <feOffset dx="3" dy="3" in="SourceAlpha" result="shadowOffsetOuter1"></feOffset>
            <feGaussianBlur stdDeviation="5" in="shadowOffsetOuter1" result="shadowBlurOuter1"></feGaussianBlur>
            <feColorMatrix values="0 0 0 0 0.2   0 0 0 0 0.2   0 0 0 0 0.2  0 0 0 0.1 0" type="matrix" in="shadowBlurOuter1"></feColorMatrix>
        </filter>
        <circle id="path-13" cx="127.5" cy="60.5" r="14.5"></circle>
        <filter x="-48.3%" y="-48.3%" width="217.2%" height="217.2%" filterUnits="objectBoundingBox" id="filter-14">
            <feMorphology radius="0.5" operator="dilate" in="SourceAlpha" result="shadowSpreadOuter1"></feMorphology>
            <feOffset dx="3" dy="3" in="shadowSpreadOuter1" result="shadowOffsetOuter1"></feOffset>
            <feGaussianBlur stdDeviation="5" in="shadowOffsetOuter1" result="shadowBlurOuter1"></feGaussianBlur>
            <feComposite in="shadowBlurOuter1" in2="SourceAlpha" operator="out" result="shadowBlurOuter1"></feComposite>
            <feColorMatrix values="0 0 0 0 0.2   0 0 0 0 0.2   0 0 0 0 0.2  0 0 0 0.1 0" type="matrix" in="shadowBlurOuter1"></feColorMatrix>
        </filter>
        <circle id="path-15" cx="165.5" cy="60.5" r="14.5"></circle>
        <filter x="-48.3%" y="-48.3%" width="217.2%" height="217.2%" filterUnits="objectBoundingBox" id="filter-16">
            <feMorphology radius="0.5" operator="dilate" in="SourceAlpha" result="shadowSpreadOuter1"></feMorphology>
            <feOffset dx="3" dy="3" in="shadowSpreadOuter1" result="shadowOffsetOuter1"></feOffset>
            <feGaussianBlur stdDeviation="5" in="shadowOffsetOuter1" result="shadowBlurOuter1"></feGaussianBlur>
            <feComposite in="shadowBlurOuter1" in2="SourceAlpha" operator="out" result="shadowBlurOuter1"></feComposite>
            <feColorMatrix values="0 0 0 0 0.2   0 0 0 0 0.2   0 0 0 0 0.2  0 0 0 0.1 0" type="matrix" in="shadowBlurOuter1"></feColorMatrix>
        </filter>
        <path d="M4,0 L228.799615,0 L276,0 C278.209139,-4.05812251e-16 280,1.790861 280,4 L280,279 C280,281.209139 278.209139,283 276,283 L4,283 C1.790861,283 2.705415e-16,281.209139 0,279 L0,4 C-2.705415e-16,1.790861 1.790861,4.05812251e-16 4,0 Z" id="path-17"></path>
        <filter x="-4.8%" y="-4.8%" width="111.8%" height="111.7%" filterUnits="objectBoundingBox" id="filter-18">
            <feOffset dx="3" dy="3" in="SourceAlpha" result="shadowOffsetOuter1"></feOffset>
            <feGaussianBlur stdDeviation="5" in="shadowOffsetOuter1" result="shadowBlurOuter1"></feGaussianBlur>
            <feColorMatrix values="0 0 0 0 0   0 0 0 0 0   0 0 0 0 0  0 0 0 0.1 0" type="matrix" in="shadowBlurOuter1"></feColorMatrix>
        </filter>
    </defs>
    <g id="15--Landing-page-Copy" stroke="none" stroke-width="1" fill="none" fill-rule="evenodd">
        <g id="2.0--Features" transform="translate(-774.000000, -4164.000000)">
            <g id="Features-#8" transform="translate(0.000000, 3834.000000)">
                <g id="Group-5" transform="translate(150.000000, 304.000000)">
                    <g id="Image" transform="translate(632.000000, 27.000000)">
                        <g id="Group">
                            <g id="Popup" transform="translate(0.000000, 9.000000)">
                                <g id="browser">
                                    <g id="Rectangle">
                                        <use fill="black" fill-opacity="1" filter="url(#filter-2)" xlink:href="#path-1"></use>
                                        <rect stroke="#979797" stroke-width="1" stroke-linejoin="square" fill="#FFFFFF" fill-rule="evenodd" x="0.5" y="0.5" width="211" height="153" rx="4"></rect>
                                    </g>
                                    <rect id="Rectangle" fill="#DFE4EE" x="0" y="0" width="212" height="15"></rect>
                                    <rect id="Rectangle" stroke="#979797" x="0.5" y="0.5" width="211" height="153" rx="4"></rect>
                                    <g id="redo" transform="translate(21.000000, 7.000000)" fill="#969696" fill-rule="nonzero" stroke="#979797" stroke-width="0.3">
                                        <path d="M3.80000953,1.80021286 C3.68955784,1.80021286 3.60001905,1.88975099 3.60001905,2.00020187 C3.60493095,2.77290358 3.06015127,3.44011185 2.30207271,3.5898363 C1.54399415,3.73956074 0.786458268,3.32956654 0.497231307,2.61301852 C0.208004346,1.8964705 0.468672497,1.07549515 1.11827736,0.657031547 C1.76788223,0.238567947 2.62318091,0.340657837 3.1560402,0.90026235 L2.67606307,0.90026235 C2.56561138,0.90026235 2.4760726,0.989800477 2.4760726,1.10025135 C2.4760726,1.21070223 2.56561138,1.30024036 2.67606307,1.30024036 L3.58201991,1.30024036 C3.6924716,1.30024036 3.78201038,1.21070223 3.78201038,1.10025135 L3.78201038,0.200300841 C3.78201038,0.0898499642 3.6924716,0.000311837738 3.58201991,0.000311837738 C3.47156822,0.000311837738 3.38202944,0.0898499642 3.38202944,0.200300841 L3.38202944,0.554281376 C2.69543083,-0.102055368 1.64189084,-0.184908992 0.86113337,0.356030358 C0.0803759046,0.896969708 -0.2121822,1.91245281 0.161104344,2.78586443 C0.534390889,3.65927604 1.47052953,4.14963535 2.40108406,3.95918947 C3.33163859,3.76874359 3.99986205,2.95003797 4,2.00020187 C4,1.94716148 3.97892964,1.8962935 3.94142415,1.85878829 C3.90391866,1.82128307 3.8530503,1.80021286 3.80000953,1.80021286 Z" id="Path"></path>
                                    </g>
                                    <rect id="Rectangle" fill="#FFFFFF" x="29" y="7" width="171" height="5" rx="2.5"></rect>
                                    <g id="list-ul" transform="translate(202.000000, 8.000000)" fill="#969696" fill-rule="nonzero">
                                        <path d="M0.51306381,2.57245014 C0.484533029,2.54969042 0.450889929,2.53184952 0.414064962,2.51995116 C0.341027404,2.49494714 0.25910517,2.49494714 0.186067613,2.51995116 C0.149242646,2.53184952 0.115599545,2.54969042 0.0870687643,2.57245014 C0.0597568931,2.59622561 0.0383476474,2.62426131 0.024069497,2.65494854 C-0.0229089757,2.74804601 0.0019463856,2.85555448 0.0870687643,2.92744326 C0.116228707,2.94952556 0.149712568,2.96728202 0.186067613,2.97994224 C0.258678733,3.00668592 0.341453842,3.00668592 0.414064962,2.97994224 C0.450420007,2.96728202 0.483903867,2.94952556 0.51306381,2.92744326 C0.598186189,2.85555448 0.62304155,2.74804601 0.576063078,2.65494854 C0.561784927,2.62426131 0.540375681,2.59622561 0.51306381,2.57245014 Z M1.50005233,0.499990309 L5.70000349,0.499990309 C5.86568699,0.499990309 6,0.388063666 6,0.249995154 C6,0.111926643 5.86568699,0 5.70000349,0 L1.50005233,0 C1.33436883,0 1.20005582,0.111926643 1.20005582,0.249995154 C1.20005582,0.388063666 1.33436883,0.499990309 1.50005233,0.499990309 Z M0.51306381,1.32247437 C0.426796604,1.2515396 0.297785442,1.23082696 0.186067613,1.26997538 C0.149712568,1.28263561 0.116228707,1.30039206 0.0870687643,1.32247437 C0.0597568931,1.34624983 0.0383476474,1.37428553 0.024069497,1.40497277 C-0.00802316565,1.46548157 -0.00802316565,1.53446029 0.024069497,1.59496909 C0.0392618806,1.62526472 0.0605697918,1.65316772 0.0870687643,1.67746749 C0.116228707,1.69954979 0.149712568,1.71730625 0.186067613,1.72996647 C0.258678733,1.75671015 0.341453842,1.75671015 0.414064962,1.72996647 C0.450420007,1.71730625 0.483903867,1.69954979 0.51306381,1.67746749 C0.539562783,1.65316772 0.560870694,1.62526472 0.576063078,1.59496909 C0.60815574,1.53446029 0.60815574,1.46548157 0.576063078,1.40497277 C0.561784927,1.37428553 0.540375681,1.34624983 0.51306381,1.32247437 Z M5.70000349,1.24997577 L1.50005233,1.24997577 C1.33436883,1.24997577 1.20005582,1.36190242 1.20005582,1.49997093 C1.20005582,1.63803944 1.33436883,1.74996608 1.50005233,1.74996608 L5.70000349,1.74996608 C5.86568699,1.74996608 6,1.63803944 6,1.49997093 C6,1.36190242 5.86568699,1.24997577 5.70000349,1.24997577 Z M0.51306381,0.0724985948 C0.484533029,0.0497388786 0.450889929,0.0318979788 0.414064962,0.0199996124 C0.302347132,-0.0191488114 0.173335971,0.00156382915 0.0870687643,0.0724985948 C0.0605697918,0.0967983591 0.0392618806,0.12470136 0.024069497,0.154996996 C-0.00802316565,0.215505793 -0.00802316565,0.284484516 0.024069497,0.344993313 C0.0392618806,0.375288949 0.0605697918,0.40319195 0.0870687643,0.427491714 C0.116228707,0.44957402 0.149712568,0.467330475 0.186067613,0.479990697 C0.297785442,0.51913912 0.426796604,0.49842648 0.51306381,0.427491714 C0.539562783,0.40319195 0.560870694,0.375288949 0.576063078,0.344993313 C0.60815574,0.284484516 0.60815574,0.215505793 0.576063078,0.154996996 C0.560870694,0.12470136 0.539562783,0.0967983591 0.51306381,0.0724985948 Z M5.70000349,2.49995154 L1.50005233,2.49995154 C1.33436883,2.49995154 1.20005582,2.61187819 1.20005582,2.7499467 C1.20005582,2.88801521 1.33436883,2.99994185 1.50005233,2.99994185 L5.70000349,2.99994185 C5.86568699,2.99994185 6,2.88801521 6,2.7499467 C6,2.61187819 5.86568699,2.49995154 5.70000349,2.49995154 Z" id="Shape"></path>
                                    </g>
                                    <g id="arrow-right" transform="translate(3.000000, 7.000000)" fill="#969696" fill-rule="nonzero">
                                        <path d="M13.9761221,1.87315748 C13.9609722,1.83227414 13.9382557,1.79492334 13.9092762,1.76324827 L12.3177057,0.0979572469 C12.2369626,0.0134741795 12.119277,-0.0195202142 12.0089799,0.0114027347 C11.8986828,0.0423256835 11.8125309,0.132468043 11.7829769,0.24787406 C11.7534229,0.363280076 11.7849566,0.48641683 11.8656997,0.570899897 L12.9161362,1.66666139 L10.5001323,1.66666139 C10.3243323,1.66666139 10.1818182,1.81577663 10.1818182,1.99971959 C10.1818182,2.18366256 10.3243323,2.3327778 10.5001323,2.3327778 L12.9161362,2.3327778 L11.8656997,3.42853929 C11.8054388,3.4910765 11.7715429,3.5762048 11.7715429,3.66501062 C11.7715429,3.75381644 11.8054388,3.83894473 11.8656997,3.90148194 C11.9254685,3.96453407 12.0068282,4 12.0917027,4 C12.1765772,4 12.257937,3.96453407 12.3177057,3.90148194 L13.9092762,2.23619092 C13.9382557,2.20451585 13.9609722,2.16716505 13.9761221,2.12628171 C14.0079593,2.04519491 14.0079593,1.95424428 13.9761221,1.87315748 Z" id="Path"></path>
                                        <path d="M3.79430396,1.87315748 C3.779154,1.83227414 3.75643752,1.79492334 3.727458,1.76324827 L2.13588755,0.0979572469 C2.05514445,0.0134741795 1.93745882,-0.0195202142 1.8271617,0.0114027347 C1.71686458,0.0423256835 1.63071272,0.132468043 1.6011587,0.24787406 C1.57160467,0.363280076 1.60313844,0.48641683 1.68388154,0.570899897 L2.73431804,1.66666139 L0.318314091,1.66666139 C0.142514073,1.66666139 0,1.81577663 0,1.99971959 C0,2.18366256 0.142514073,2.3327778 0.318314091,2.3327778 L2.73431804,2.3327778 L1.68388154,3.42853929 C1.62362065,3.4910765 1.58972476,3.5762048 1.58972476,3.66501062 C1.58972476,3.75381644 1.62362065,3.83894473 1.68388154,3.90148194 C1.74365029,3.96453407 1.82501006,4 1.90988454,4 C1.99475903,4 2.07611879,3.96453407 2.13588755,3.90148194 L3.727458,2.23619092 C3.75643752,2.20451585 3.779154,2.16716505 3.79430396,2.12628171 C3.8261411,2.04519491 3.8261411,1.95424428 3.79430396,1.87315748 Z" id="Path" transform="translate(1.909091, 2.000000) scale(-1, 1) translate(-1.909091, -2.000000) "></path>
                                    </g>
                                    <g id="Group-2" transform="translate(4.000000, 2.000000)" fill="#969696">
                                        <ellipse id="Oval" cx="1.41891892" cy="1.5" rx="1.41891892" ry="1.5"></ellipse>
                                        <ellipse id="Oval" cx="7.5" cy="1.5" rx="1.41891892" ry="1.5"></ellipse>
                                        <ellipse id="Oval" cx="13.5810811" cy="1.5" rx="1.41891892" ry="1.5"></ellipse>
                                    </g>
                                    <path d="M0,15 L212,15" id="Path-2" stroke="#969696"></path>
                                </g>
                                <rect id="Rectangle" fill="#7450C8" x="7" y="120" width="54" height="26" rx="4"></rect>
                                <rect id="Rectangle" fill="#FFFFFF" x="19" y="124" width="30" height="3"></rect>
                                <rect id="Rectangle" fill="#FFFFFF" x="25" y="138" width="18" height="5"></rect>
                                <rect id="Rectangle" fill="#FFFFFF" x="13" y="130" width="42" height="1"></rect>
                                <rect id="Rectangle" fill="#FFFFFF" x="13" y="134" width="42" height="1"></rect>
                            </g>
                            <g id="Rectangle">
                                <use fill="black" fill-opacity="1" filter="url(#filter-4)" xlink:href="#path-3"></use>
                                <use stroke="#1DDCC0" stroke-width="2" xlink:href="#path-3"></use>
                            </g>
                            <g id="check-circle" transform="translate(202.000000, 0.000000)" fill-rule="nonzero">
                                <g id="Oval">
                                    <use fill="black" fill-opacity="1" filter="url(#filter-6)" xlink:href="#path-5"></use>
                                    <use fill="#1DDCC0" xlink:href="#path-5"></use>
                                </g>
                                <path d="M12.72,6.79 L8.43,11.09 L6.78,9.44 C6.53561012,9.15462384 6.1518816,9.03031806 5.78658103,9.11818987 C5.42128045,9.20606167 5.13606167,9.49128045 5.04818987,9.85658103 C4.96031806,10.2218816 5.08462384,10.6056101 5.37,10.85 L7.72,13.21 C7.90871883,13.3971865 8.16419702,13.5015368 8.43,13.5 C8.69233988,13.4988954 8.94373936,13.3947442 9.13,13.21 L14.13,8.21 C14.3193127,8.0222334 14.4257983,7.76663754 14.4257983,7.5 C14.4257983,7.23336246 14.3193127,6.9777666 14.13,6.79 C13.7399625,6.40227641 13.1100375,6.40227641 12.72,6.79 Z" id="Path" fill="#FFFFFF"></path>
                            </g>
                        </g>
                        <g id="Colors" transform="translate(276.000000, 29.000000)">
                            <text id="Name" font-family="Roboto-Medium, Roboto" font-size="14" font-weight="400" fill="#333333">
                                <tspan x="0" y="13">Color Scheme</tspan>
                            </text>
                            <g id="Oval">
                                <use fill="black" fill-opacity="1" filter="url(#filter-8)" xlink:href="#path-7"></use>
                                <use stroke="#979797" stroke-width="1" fill="#FAFAFA" fill-rule="evenodd" xlink:href="#path-7"></use>
                            </g>
                            <g id="Oval">
                                <use fill="black" fill-opacity="1" filter="url(#filter-10)" xlink:href="#path-9"></use>
                                <use fill="#7450C8" fill-rule="evenodd" xlink:href="#path-9"></use>
                            </g>
                            <g id="Oval">
                                <use fill="black" fill-opacity="1" filter="url(#filter-12)" xlink:href="#path-11"></use>
                                <use fill="#333333" fill-rule="evenodd" xlink:href="#path-11"></use>
                            </g>
                            <g id="Oval">
                                <use fill="black" fill-opacity="1" filter="url(#filter-14)" xlink:href="#path-13"></use>
                                <use stroke="#979797" stroke-width="1" fill="#F4F6FC" fill-rule="evenodd" xlink:href="#path-13"></use>
                            </g>
                            <g id="Oval">
                                <use fill="black" fill-opacity="1" filter="url(#filter-16)" xlink:href="#path-15"></use>
                                <use stroke="#979797" stroke-width="1" fill="#DFE4EE" fill-rule="evenodd" xlink:href="#path-15"></use>
                            </g>
                        </g>
                        <g id="title" transform="translate(10.000000, 233.000000)">
                            <text id="Name" font-family="Roboto-Bold, Roboto" font-size="14" font-weight="bold" line-spacing="19" fill="#969696">
                                <tspan x="0" y="13">Subtitle 2</tspan>
                            </text>
                            <rect id="Rectangle" stroke="#DFE4EE" fill="#7450C8" x="0.5" y="30.5" width="37" height="37" rx="4"></rect>
                            <g id="field" transform="translate(0.000000, 76.000000)">
                                <rect id="Rectangle" stroke="#B0BAC9" fill="#FFFFFF" x="0.5" y="0.5" width="222" height="37" rx="5"></rect>
                                <text id="↳-✏️-Value" font-family="Roboto-Regular, Roboto" font-size="14" font-weight="normal" line-spacing="26" fill="#B0BAC9">
                                    <tspan x="16" y="19">Font</tspan>
                                </text>
                                <g id="expand-more" opacity="0.54" transform="translate(197.000000, 15.000000)" fill="#333333">
                                    <polygon id="Shape" points="10.6 0.599975586 6 5.19997559 1.4 0.599975586 0 1.99997559 6 7.99997559 12 1.99997559"></polygon>
                                </g>
                            </g>
                            <g id="field" transform="translate(62.000000, 30.000000)">
                                <rect id="Rectangle" stroke="#B0BAC9" fill="#FFFFFF" x="0.5" y="0.5" width="72" height="37" rx="5"></rect>
                                <text id="↳-✏️-Value" font-family="Roboto-Regular, Roboto" font-size="14" font-weight="normal" line-spacing="26" fill="#B0BAC9">
                                    <tspan x="16" y="19">40</tspan>
                                </text>
                                <g id="expand-more" opacity="0.54" transform="translate(55.000000, 15.000000)" fill="#333333">
                                    <polygon id="Shape" points="10.6 0.599975586 6 5.19997559 1.4 0.599975586 0 1.99997559 6 7.99997559 12 1.99997559"></polygon>
                                </g>
                            </g>
                        </g>
                        <g id="Cookie-popup" transform="translate(147.000000, 132.000000)">
                            <g id="Rectangle">
                                <use fill="black" fill-opacity="1" filter="url(#filter-18)" xlink:href="#path-17"></use>
                                <use fill="#FFFFFF" fill-rule="evenodd" xlink:href="#path-17"></use>
                            </g>
                            <g id="Close-button" transform="translate(260.000000, 8.000000)" fill="#969696" fill-rule="nonzero">
                                <g id="times">
                                    <path d="M7.40863871,5.99914736 L11.7044873,1.7126801 C12.0962309,1.32088084 12.0962309,0.685648715 11.7044873,0.293849449 C11.3127437,-0.0979498165 10.6776018,-0.0979498165 10.2858582,0.293849449 L6,4.59030847 L1.7141418,0.293849449 C1.3223982,-0.0979498065 0.687256347,-0.0979498018 0.295512755,0.29384946 C-0.0962308371,0.685648722 -0.0962308418,1.32088083 0.295512745,1.7126801 L4.59136129,5.99914736 L0.295512745,10.2856146 C0.106382866,10.4732266 0,10.728612 0,10.9950299 C0,11.2614479 0.106382866,11.5168333 0.295512745,11.7044453 C0.483098064,11.893602 0.738447162,12 1.00482727,12 C1.27120738,12 1.52655648,11.893602 1.7141418,11.7044453 L6,7.40798624 L10.2858582,11.7044453 C10.4734435,11.893602 10.7287926,12 10.9951727,12 C11.2615528,12 11.5169019,11.893602 11.7044873,11.7044453 C11.8936171,11.5168333 12,11.2614479 12,10.9950299 C12,10.728612 11.8936171,10.4732266 11.7044873,10.2856146 L7.40863871,5.99914736 Z" id="Path"></path>
                                </g>
                            </g>
                            <text id="text" font-family="Roboto-Regular, Roboto" font-size="12" font-weight="normal" fill="#7450C8">
                                <tspan x="15.3515625" y="266">Get your LegalSite</tspan>
                            </text>
                            <text id="Text" font-family="Roboto-Regular, Roboto" font-size="14" font-weight="normal">
                                <tspan x="16" y="89" fill="#969696">This website uses cookies. Click on the </tspan>
                                <tspan x="16" y="105" fill="#969696">button bellow to consent to all cookies </tspan>
                                <tspan x="16" y="121" fill="#969696">in accordance with our </tspan>
                                <tspan x="162.494141" y="121" fill="#7450C8">Privacy Policy</tspan>
                                <tspan x="250.691406" y="121" fill="#969696"> </tspan>
                                <tspan x="16" y="137" fill="#969696">or customize your preferences at any </tspan>
                                <tspan x="16" y="153" fill="#969696">time on our legal page.</tspan>
                            </text>
                            <g id="Login-button" transform="translate(16.000000, 195.000000)">
                                <g id="Button-color">
                                    <rect id="Color" fill="#7450C8" x="0" y="0" width="96" height="36" rx="4"></rect>
                                    <text id="Text" font-family="Roboto-Bold, Roboto" font-size="14" font-weight="bold" line-spacing="26" fill="#FFFFFF">
                                        <tspan x="21.9291057" y="18">ACCEPT</tspan>
                                    </text>
                                </g>
                            </g>
                            <text id="Text" font-family="Roboto-Bold, Roboto" font-size="14" font-weight="bold" line-spacing="26" fill="#7450C8">
                                <tspan x="136.571289" y="213">OPTIONS</tspan>
                            </text>
                            <text id="Title" font-family="Roboto-Bold, Roboto" font-size="22" font-weight="bold" line-spacing="28" letter-spacing="-0.1571429" fill="#7450C8">
                                <tspan x="16" y="44">Cookies preferences</tspan>
                            </text>
                        </g>
                    </g>
                </g>
            </g>
        </g>
    </g>
</svg>