<?xml version="1.0" encoding="UTF-8"?>
<svg width="589px" height="435px" viewBox="0 0 589 435" version="1.1" xmlns="http://www.w3.org/2000/svg" xmlns:xlink="http://www.w3.org/1999/xlink">
    <!-- Generator: Sketch 52.6 (67491) - http://www.bohemiancoding.com/sketch -->
    <title>Image</title>
    <desc>Created with Sketch.</desc>
    <defs>
        <rect id="path-1" x="0" y="0" width="305" height="371" rx="4"></rect>
        <filter x="-4.4%" y="-3.6%" width="110.8%" height="108.9%" filterUnits="objectBoundingBox" id="filter-2">
            <feOffset dx="3" dy="3" in="SourceAlpha" result="shadowOffsetOuter1"></feOffset>
            <feGaussianBlur stdDeviation="5" in="shadowOffsetOuter1" result="shadowBlurOuter1"></feGaussianBlur>
            <feColorMatrix values="0 0 0 0 0   0 0 0 0 0   0 0 0 0 0  0 0 0 0.1 0" type="matrix" in="shadowBlurOuter1"></feColorMatrix>
        </filter>
        <rect id="path-3" x="0" y="0" width="280" height="59" rx="4"></rect>
        <filter x="-4.8%" y="-22.9%" width="111.8%" height="155.9%" filterUnits="objectBoundingBox" id="filter-4">
            <feOffset dx="3" dy="3" in="SourceAlpha" result="shadowOffsetOuter1"></feOffset>
            <feGaussianBlur stdDeviation="5" in="shadowOffsetOuter1" result="shadowBlurOuter1"></feGaussianBlur>
            <feColorMatrix values="0 0 0 0 0   0 0 0 0 0   0 0 0 0 0  0 0 0 0.1 0" type="matrix" in="shadowBlurOuter1"></feColorMatrix>
        </filter>
        <rect id="path-5" x="0" y="0" width="280" height="59" rx="4"></rect>
        <filter x="-4.8%" y="-22.9%" width="111.8%" height="155.9%" filterUnits="objectBoundingBox" id="filter-6">
            <feOffset dx="3" dy="3" in="SourceAlpha" result="shadowOffsetOuter1"></feOffset>
            <feGaussianBlur stdDeviation="5" in="shadowOffsetOuter1" result="shadowBlurOuter1"></feGaussianBlur>
            <feColorMatrix values="0 0 0 0 0   0 0 0 0 0   0 0 0 0 0  0 0 0 0.1 0" type="matrix" in="shadowBlurOuter1"></feColorMatrix>
        </filter>
        <rect id="path-7" x="0" y="0" width="280" height="59" rx="4"></rect>
        <filter x="-4.8%" y="-22.9%" width="111.8%" height="155.9%" filterUnits="objectBoundingBox" id="filter-8">
            <feOffset dx="3" dy="3" in="SourceAlpha" result="shadowOffsetOuter1"></feOffset>
            <feGaussianBlur stdDeviation="5" in="shadowOffsetOuter1" result="shadowBlurOuter1"></feGaussianBlur>
            <feColorMatrix values="0 0 0 0 0   0 0 0 0 0   0 0 0 0 0  0 0 0 0.1 0" type="matrix" in="shadowBlurOuter1"></feColorMatrix>
        </filter>
        <rect id="path-9" x="0" y="0" width="278" height="134" rx="4"></rect>
        <filter x="-4.9%" y="-10.1%" width="111.9%" height="124.6%" filterUnits="objectBoundingBox" id="filter-10">
            <feOffset dx="3" dy="3" in="SourceAlpha" result="shadowOffsetOuter1"></feOffset>
            <feGaussianBlur stdDeviation="5" in="shadowOffsetOuter1" result="shadowBlurOuter1"></feGaussianBlur>
            <feColorMatrix values="0 0 0 0 0   0 0 0 0 0   0 0 0 0 0  0 0 0 0.1 0" type="matrix" in="shadowBlurOuter1"></feColorMatrix>
        </filter>
        <rect id="path-11" x="0" y="0" width="278" height="134" rx="4"></rect>
        <filter x="-4.9%" y="-10.1%" width="111.9%" height="124.6%" filterUnits="objectBoundingBox" id="filter-12">
            <feOffset dx="3" dy="3" in="SourceAlpha" result="shadowOffsetOuter1"></feOffset>
            <feGaussianBlur stdDeviation="5" in="shadowOffsetOuter1" result="shadowBlurOuter1"></feGaussianBlur>
            <feColorMatrix values="0 0 0 0 0   0 0 0 0 0   0 0 0 0 0  0 0 0 0.1 0" type="matrix" in="shadowBlurOuter1"></feColorMatrix>
        </filter>
    </defs>
    <g id="15--Landing-page-Copy" stroke="none" stroke-width="1" fill="none" fill-rule="evenodd">
        <g id="2.2--Features---other-categories" transform="translate(-831.000000, -336.000000)">
            <g id="General-features-2" transform="translate(59.000000, 69.000000)">
                <g id="Image" transform="translate(779.000000, 267.000000)">
                    <g id="Legal-site-box" transform="translate(0.000000, 51.000000)">
                        <g id="Rectangle">
                            <use fill="black" fill-opacity="1" filter="url(#filter-2)" xlink:href="#path-1"></use>
                            <use fill="#FFFFFF" fill-rule="evenodd" xlink:href="#path-1"></use>
                        </g>
                        <g id="Small-button-color" transform="translate(157.000000, 317.000000)">
                            <g id="Button-color">
                                <rect id="Color" fill="#7450C8" x="0" y="0" width="136" height="36" rx="4"></rect>
                                <text id="Text" font-family="Roboto-Bold, Roboto" font-size="14" font-weight="bold" line-spacing="26" fill="#FFFFFF">
                                    <tspan x="13.1689453" y="18">Publish LegalSite</tspan>
                                </text>
                            </g>
                        </g>
                        <g id="Small-button-ghost" transform="translate(13.000000, 317.000000)">
                            <g id="Button-color">
                                <rect id="Color" stroke="#7450C8" fill-opacity="0" fill="#FFFFFF" x="0.5" y="0.5" width="135" height="35" rx="4"></rect>
                                <text id="Text" font-family="Roboto-Bold, Roboto" font-size="14" font-weight="bold" line-spacing="26" fill="#7450C8">
                                    <tspan x="11.9897461" y="18">Preview LegalSite</tspan>
                                </text>
                            </g>
                        </g>
                        <g id="Terms" transform="translate(12.000000, 84.000000)">
                            <g id="Rectangle">
                                <use fill="black" fill-opacity="1" filter="url(#filter-4)" xlink:href="#path-3"></use>
                                <use fill="#FFFFFF" fill-rule="evenodd" xlink:href="#path-3"></use>
                            </g>
                            <g id="check-circle" transform="translate(242.000000, 20.000000)" fill="#1DDCC0" fill-rule="nonzero">
                                <path d="M12.72,6.79 L8.43,11.09 L6.78,9.44 C6.53561012,9.15462384 6.1518816,9.03031806 5.78658103,9.11818987 C5.42128045,9.20606167 5.13606167,9.49128045 5.04818987,9.85658103 C4.96031806,10.2218816 5.08462384,10.6056101 5.37,10.85 L7.72,13.21 C7.90871883,13.3971865 8.16419702,13.5015368 8.43,13.5 C8.69233988,13.4988954 8.94373936,13.3947442 9.13,13.21 L14.13,8.21 C14.3193127,8.0222334 14.4257983,7.76663754 14.4257983,7.5 C14.4257983,7.23336246 14.3193127,6.9777666 14.13,6.79 C13.7399625,6.40227641 13.1100375,6.40227641 12.72,6.79 Z M10,0 C4.4771525,-6.66133815e-16 2.22044605e-15,4.4771525 1.77635684e-15,10 C1.33226763e-15,15.5228475 4.4771525,20 10,20 C15.5228475,20 20,15.5228475 20,10 C20,7.3478351 18.9464316,4.80429597 17.0710678,2.92893219 C15.195704,1.0535684 12.6521649,-2.22044605e-16 10,0 Z M10,18 C5.581722,18 2,14.418278 2,10 C2,5.581722 5.581722,2 10,2 C14.418278,2 18,5.581722 18,10 C18,12.1217319 17.1571453,14.1565632 15.6568542,15.6568542 C14.1565632,17.1571453 12.1217319,18 10,18 Z" id="Shape"></path>
                            </g>
                            <text id="Terms-&amp;-Condition" font-family="Roboto-Bold, Roboto" font-size="14" font-weight="bold" line-spacing="19" fill="#969696">
                                <tspan x="16" y="21">Terms &amp; Condition</tspan>
                            </text>
                            <text id="Done-and-up-to-date" font-family="Roboto-Regular, Roboto" font-size="12" font-weight="normal" fill="#969696">
                                <tspan x="16" y="39">Done and up-to-date</tspan>
                            </text>
                        </g>
                        <g id="Data" transform="translate(13.000000, 234.000000)">
                            <g id="Rectangle">
                                <use fill="black" fill-opacity="1" filter="url(#filter-6)" xlink:href="#path-5"></use>
                                <use fill="#FFFFFF" fill-rule="evenodd" xlink:href="#path-5"></use>
                            </g>
                            <g id="check-circle" transform="translate(242.000000, 20.000000)" fill="#1DDCC0" fill-rule="nonzero">
                                <path d="M12.72,6.79 L8.43,11.09 L6.78,9.44 C6.53561012,9.15462384 6.1518816,9.03031806 5.78658103,9.11818987 C5.42128045,9.20606167 5.13606167,9.49128045 5.04818987,9.85658103 C4.96031806,10.2218816 5.08462384,10.6056101 5.37,10.85 L7.72,13.21 C7.90871883,13.3971865 8.16419702,13.5015368 8.43,13.5 C8.69233988,13.4988954 8.94373936,13.3947442 9.13,13.21 L14.13,8.21 C14.3193127,8.0222334 14.4257983,7.76663754 14.4257983,7.5 C14.4257983,7.23336246 14.3193127,6.9777666 14.13,6.79 C13.7399625,6.40227641 13.1100375,6.40227641 12.72,6.79 Z M10,0 C4.4771525,-6.66133815e-16 2.22044605e-15,4.4771525 1.77635684e-15,10 C1.33226763e-15,15.5228475 4.4771525,20 10,20 C15.5228475,20 20,15.5228475 20,10 C20,7.3478351 18.9464316,4.80429597 17.0710678,2.92893219 C15.195704,1.0535684 12.6521649,-2.22044605e-16 10,0 Z M10,18 C5.581722,18 2,14.418278 2,10 C2,5.581722 5.581722,2 10,2 C14.418278,2 18,5.581722 18,10 C18,12.1217319 17.1571453,14.1565632 15.6568542,15.6568542 C14.1565632,17.1571453 12.1217319,18 10,18 Z" id="Shape"></path>
                            </g>
                            <text id="Privacy-compliance" font-family="Roboto-Bold, Roboto" font-size="14" font-weight="bold" line-spacing="19" fill="#969696">
                                <tspan x="16" y="21">Privacy compliance</tspan>
                            </text>
                            <text id="Done-and-up-to-date" font-family="Roboto-Regular, Roboto" font-size="12" font-weight="normal" fill="#969696">
                                <tspan x="16" y="39">Done and up-to-date</tspan>
                            </text>
                        </g>
                        <g id="Privacy" transform="translate(12.000000, 159.000000)">
                            <g id="Rectangle">
                                <use fill="black" fill-opacity="1" filter="url(#filter-8)" xlink:href="#path-7"></use>
                                <use fill="#FFFFFF" fill-rule="evenodd" xlink:href="#path-7"></use>
                            </g>
                            <text id="Privacy-Policy" font-family="Roboto-Bold, Roboto" font-size="14" font-weight="bold" line-spacing="19" fill="#969696">
                                <tspan x="16" y="21">Privacy Policy</tspan>
                            </text>
                            <text id="1-action-needed" font-family="Roboto-Regular, Roboto" font-size="12" font-weight="normal" fill="#969696">
                                <tspan x="16" y="39">1 action needed</tspan>
                            </text>
                            <g id="exclamation-triangle" transform="translate(240.000000, 19.000000)" fill="#F86B67" fill-rule="nonzero">
                                <path d="M11.4285714,14.2857143 C10.902586,14.2857143 10.4761905,14.7121098 10.4761905,15.2380952 C10.4761905,15.7640807 10.902586,16.1904762 11.4285714,16.1904762 C11.9545569,16.1904762 12.3809524,15.7640807 12.3809524,15.2380952 C12.3809524,14.7121098 11.9545569,14.2857143 11.4285714,14.2857143 Z M21.5904762,15.6857143 L13.9238095,2.35238095 C13.4192048,1.44770586 12.4644589,0.887018306 11.4285714,0.887018306 C10.3926839,0.887018306 9.43793804,1.44770586 8.93333333,2.35238095 L1.31428571,15.6857143 C0.792428951,16.5658321 0.781053649,17.6578226 1.28446272,18.5486207 C1.78787179,19.4394188 2.729203,19.9930143 3.75238095,20 L19.1047619,20 C20.1364502,20.0101672 21.0934815,19.4633272 21.6085517,18.5693548 C22.1236219,17.6753823 22.1167129,16.5731595 21.5904762,15.6857143 Z M19.9428571,17.5904762 C19.7728384,17.8929716 19.4517513,18.0790562 19.1047619,18.0761905 L3.75238095,18.0761905 C3.40539157,18.0790562 3.08430448,17.8929716 2.91428571,17.5904762 C2.74415924,17.2958085 2.74415924,16.9327629 2.91428571,16.6380952 L10.5333333,3.3047619 C10.6962819,2.98669884 11.0235782,2.78662907 11.3809524,2.78662907 C11.7383266,2.78662907 12.0656229,2.98669884 12.2285714,3.3047619 L19.8952381,16.6380952 C20.0877189,16.9287807 20.1059849,17.3014065 19.9428571,17.6095238 L19.9428571,17.5904762 Z M11.4285714,6.66666667 C10.902586,6.66666667 10.4761905,7.09306214 10.4761905,7.61904762 L10.4761905,11.4285714 C10.4761905,11.9545569 10.902586,12.3809524 11.4285714,12.3809524 C11.9545569,12.3809524 12.3809524,11.9545569 12.3809524,11.4285714 L12.3809524,7.61904762 C12.3809524,7.09306214 11.9545569,6.66666667 11.4285714,6.66666667 Z" id="Shape"></path>
                            </g>
                        </g>
                        <text id="Title" font-family=".SFNSDisplay, .SF NS Display" font-size="22" font-weight="normal" line-spacing="28" letter-spacing="-0.1571429" fill="#333333">
                            <tspan x="16" y="45">LegalSite status</tspan>
                        </text>
                    </g>
                    <g id="Solved" transform="translate(254.000000, 9.000000)">
                        <g id="Rectangle">
                            <use fill="black" fill-opacity="1" filter="url(#filter-10)" xlink:href="#path-9"></use>
                            <use fill="#FFFFFF" fill-rule="evenodd" xlink:href="#path-9"></use>
                        </g>
                        <g id="Progress-bar" transform="translate(24.000000, 23.000000)">
                            <path d="M-44.5,46.5 C-44.5,45.3954305 -43.6093694,44.5 -42.4928604,44.5 L46.4928604,44.5 C47.601373,44.5 48.5,45.3877296 48.5,46.5 L48.5,46.5 C48.5,47.6045695 47.6093694,48.5 46.4928604,48.5 L-42.4928604,48.5 C-43.601373,48.5 -44.5,47.6122704 -44.5,46.5 L-44.5,46.5 Z" id="Base" fill="#DFE4EE" transform="translate(2.000000, 46.500000) rotate(-90.000000) translate(-2.000000, -46.500000) "></path>
                            <path d="M-24.5,67.5 C-24.5,66.3954305 -23.6023238,65.5 -22.5030905,65.5 L26.5030905,65.5 C27.6059532,65.5 28.5,66.3877296 28.5,67.5 L28.5,67.5 C28.5,68.6045695 27.6023238,69.5 26.5030905,69.5 L-22.5030905,69.5 C-23.6059532,69.5 -24.5,68.6122704 -24.5,67.5 L-24.5,67.5 Z" id="Fill" fill="#1DDCC0" transform="translate(2.000000, 67.500000) rotate(-90.000000) translate(-2.000000, -67.500000) "></path>
                        </g>
                        <text id="1.216" font-family="Roboto-Regular, Roboto" font-size="28" font-weight="normal" line-spacing="37" letter-spacing="-0.2" fill="#1DDCC0">
                            <tspan x="43" y="50">1.216</tspan>
                        </text>
                        <text id="Solved-requests" font-family="Roboto-Bold, Roboto" font-size="14" font-weight="bold" line-spacing="19" fill="#969696">
                            <tspan x="43" y="90">Solved requests</tspan>
                        </text>
                    </g>
                    <g id="Pending" transform="translate(291.000000, 170.000000)">
                        <g id="Rectangle">
                            <use fill="black" fill-opacity="1" filter="url(#filter-12)" xlink:href="#path-11"></use>
                            <use fill="#FFFFFF" fill-rule="evenodd" xlink:href="#path-11"></use>
                        </g>
                        <g id="Progress-bar" transform="translate(24.000000, 23.000000)">
                            <path d="M-44.5,46.5 C-44.5,45.3954305 -43.6093694,44.5 -42.4928604,44.5 L46.4928604,44.5 C47.601373,44.5 48.5,45.3877296 48.5,46.5 L48.5,46.5 C48.5,47.6045695 47.6093694,48.5 46.4928604,48.5 L-42.4928604,48.5 C-43.601373,48.5 -44.5,47.6122704 -44.5,46.5 L-44.5,46.5 Z" id="Base" fill="#DFE4EE" transform="translate(2.000000, 46.500000) rotate(-90.000000) translate(-2.000000, -46.500000) "></path>
                            <path d="M-3,89 C-3,87.8954305 -2.11256671,87 -1.00038502,87 L5.00038502,87 C6.10474188,87 7,87.8877296 7,89 L7,89 C7,90.1045695 6.11256671,91 5.00038502,91 L-1.00038502,91 C-2.10474188,91 -3,90.1122704 -3,89 L-3,89 Z" id="Fill" fill="#EBA601" transform="translate(2.000000, 89.000000) rotate(-90.000000) translate(-2.000000, -89.000000) "></path>
                        </g>
                        <text id="36" font-family="Roboto-Regular, Roboto" font-size="28" font-weight="normal" line-spacing="37" letter-spacing="-0.2" fill="#EBA601">
                            <tspan x="44" y="50">36</tspan>
                        </text>
                        <text id="New-requests" font-family="Roboto-Bold, Roboto" font-size="14" font-weight="bold" line-spacing="19" fill="#969696">
                            <tspan x="44" y="90">New requests</tspan>
                        </text>
                    </g>
                    <g id="Icon-bubble" transform="translate(202.000000, 0.000000)">
                        <g id="circle">
                            <circle id="Oval" fill="#FFFFFF" cx="21" cy="21" r="21"></circle>
                            <circle id="Oval" fill-opacity="0.3" fill="#1DDCC0" cx="21" cy="21" r="21"></circle>
                        </g>
                        <g id="check-circle" transform="translate(9.000000, 9.000000)" fill="#1DDCC0" fill-rule="nonzero">
                            <path d="M15.264,8.148 L10.116,13.308 L8.136,11.328 C7.84273214,10.9855486 7.38225793,10.8363817 6.94389723,10.9418278 C6.50553654,11.047274 6.16327401,11.3895365 6.05782784,11.8278972 C5.95238167,12.2662579 6.10154861,12.7267321 6.444,13.02 L9.264,15.852 C9.4904626,16.0766238 9.79703642,16.2018441 10.116,16.2 C10.4308079,16.1986745 10.7324872,16.073693 10.956,15.852 L16.956,9.852 C17.1831752,9.62668008 17.310958,9.31996504 17.310958,9 C17.310958,8.68003496 17.1831752,8.37331992 16.956,8.148 C16.4879551,7.68273169 15.7320449,7.68273169 15.264,8.148 Z M12,5.32907052e-16 C5.372583,-2.66453526e-16 5.32907052e-16,5.372583 0,12 C-5.32907052e-16,18.627417 5.372583,24 12,24 C18.627417,24 24,18.627417 24,12 C24,8.81740212 22.7357179,5.76515517 20.4852814,3.51471863 C18.2348448,1.26428208 15.1825979,2.66453526e-16 12,5.32907052e-16 Z M12,21.6 C6.6980664,21.6 2.4,17.3019336 2.4,12 C2.4,6.6980664 6.6980664,2.4 12,2.4 C17.3019336,2.4 21.6,6.6980664 21.6,12 C21.6,14.5460783 20.5885743,16.9878759 18.7882251,18.7882251 C16.9878759,20.5885743 14.5460783,21.6 12,21.6 Z" id="Shape"></path>
                        </g>
                    </g>
                </g>
            </g>
        </g>
    </g>
</svg>