<?xml version="1.0" encoding="UTF-8"?>
<svg width="32px" height="35px" viewBox="0 0 32 35" version="1.1" xmlns="http://www.w3.org/2000/svg" xmlns:xlink="http://www.w3.org/1999/xlink">
    <!-- Generator: Sketch 52.6 (67491) - http://www.bohemiancoding.com/sketch -->
    <title>Group</title>
    <desc>Created with Sketch.</desc>
    <defs>
        <path d="M12.2525581,0.72428125 L5.45162791,7.407125 L2.79139535,4.78465625 C2.42686047,4.42715625 1.89523256,4.28759375 1.39709302,4.41821875 C0.898604651,4.54884375 0.509651163,4.93075 0.376046512,5.4195625 C0.24244186,5.90803125 0.385116279,6.4295 0.75,6.78665625 L4.4305814,10.396375 C4.7005814,10.6634688 5.06790698,10.8136875 5.45162791,10.8136875 C5.835,10.8136875 6.20232558,10.6634688 6.47232558,10.396375 L14.2943023,2.72628125 C14.6588372,2.3684375 14.8015116,1.84765625 14.667907,1.35884375 C14.5343023,0.87003125 14.1453488,0.48846875 13.6472093,0.3575 C13.5237209,0.3251875 13.3981395,0.309375 13.2736047,0.309375 C12.8954651,0.309375 12.5267442,0.455125 12.2525581,0.72428125 Z" id="path-1"></path>
    </defs>
    <g id="Symbols" stroke="none" stroke-width="1" fill="none" fill-rule="evenodd">
        <g id="Footer" transform="translate(-94.000000, -72.000000)">
            <g id="Group-18" transform="translate(94.000000, 72.000000)">
                <g id="Group">
                    <path d="M16,2.14609426 C15.348327,2.14609426 14.696654,2.3133201 14.1151177,2.64777179 L4.03868097,8.44692512 C2.87596097,9.11582849 2.15379871,10.3626447 2.15379871,11.7008028 L2.15379871,23.2991094 C2.15379871,24.6372675 2.87596097,25.8837324 4.03868097,26.5529871 L14.1151177,32.3517891 C15.2778377,33.0210438 16.7221623,33.0210438 17.8845298,32.3517891 L27.961319,26.5529871 C29.1236866,25.8837324 29.8462013,24.6372675 29.8462013,23.2991094 L29.8462013,11.7008028 C29.8462013,10.3626447 29.1236866,9.11582849 27.961319,8.44692512 L17.8845298,2.64777179 C17.303346,2.3133201 16.651673,2.14609426 16,2.14609426 M16,35 C14.9757914,35 13.9515827,34.7372165 13.0383946,34.2112983 L2.96160539,28.4124963 C1.13487675,27.3606598 0,25.4013772 0,23.2991094 L0,11.7008028 C0,9.5981837 1.13487675,7.63890109 2.96160539,6.5874159 L13.0383946,0.788613887 C14.8651232,-0.262871296 17.1348768,-0.262871296 18.9616054,0.788613887 L29.0383946,6.5874159 C30.8651232,7.63890109 32,9.5981837 32,11.7008028 L32,23.2991094 C32,25.4013772 30.8651232,27.3606598 29.0383946,28.4124963 L18.9616054,34.2112983 C18.0484173,34.7372165 17.0242086,35 16,35" id="Fill-66" fill="#FFFFFF"></path>
                    <g id="Group-76" transform="translate(8.000000, 12.000000)">
                        <mask id="mask-2" fill="white">
                            <use xlink:href="#path-1"></use>
                        </mask>
                        <g id="Clip-75"></g>
                        <polygon id="Fill-74" fill="#FFFFFF" mask="url(#mask-2)" points="-2.33790698 13.4395937 17.3822093 13.4395937 17.3822093 -2.31653125 -2.33790698 -2.31653125"></polygon>
                    </g>
                </g>
            </g>
        </g>
    </g>
</svg>