<svg fill="none" height="157" viewBox="0 0 157 157" width="157" xmlns="http://www.w3.org/2000/svg" xmlns:xlink="http://www.w3.org/1999/xlink"><filter id="a" color-interpolation-filters="sRGB" filterUnits="userSpaceOnUse" height="157" width="157" x="0" y="0"><feFlood flood-opacity="0" result="BackgroundImageFix"/><feColorMatrix in="SourceAlpha" result="hardAlpha" type="matrix" values="0 0 0 0 0 0 0 0 0 0 0 0 0 0 0 0 0 0 127 0"/><feOffset dy="9"/><feGaussianBlur stdDeviation="15"/><feColorMatrix type="matrix" values="0 0 0 0 0.593438 0 0 0 0 0.707729 0 0 0 0 0.879167 0 0 0 0.25 0"/><feBlend in2="BackgroundImageFix" mode="normal" result="effect1_dropShadow"/><feBlend in="SourceGraphic" in2="effect1_dropShadow" mode="normal" result="shape"/></filter><linearGradient id="b"><stop offset="0" stop-color="#b0e7c6"/><stop offset="1" stop-color="#5dd1b3"/></linearGradient><linearGradient id="c" gradientUnits="userSpaceOnUse" x1="117.909" x2="117.909" xlink:href="#b" y1="16" y2="43.7554"/><linearGradient id="d" gradientUnits="userSpaceOnUse" x1="73.5" x2="73.5" xlink:href="#b" y1="50" y2="88"/><linearGradient id="e" gradientUnits="userSpaceOnUse" x1="93" x2="93" y1="57" y2="81.4801"><stop offset="0" stop-color="#85beff"/><stop offset="1" stop-color="#5183bb"/></linearGradient><g filter="url(#a)"><rect fill="#fff" height="97" rx="25" width="97" x="30" y="21"/></g><circle cx="117.5" cy="29.5" fill="#fff" r="12.5"/><path clip-rule="evenodd" d="m104 29.8777c0-7.6644 6.227-13.8777 13.909-13.8777 7.679.0082 13.901 6.2167 13.91 13.8777 0 7.6644-6.228 13.8777-13.91 13.8777s-13.909-6.2133-13.909-13.8777zm11.631 5.6571 9.935-9.9127c.372-.3841.372-.9931 0-1.3772-.381-.3938-1.01-.4047-1.404-.0244l-9.233 9.2119-3.272-3.2643c-.008-.0083-.016-.0164-.024-.0244-.395-.3803-1.024-.3694-1.405.0244s-.371 1.0213.024 1.4016l3.974 3.9651c.388.387 1.017.387 1.405 0z" fill="url(#c)" fill-rule="evenodd"/><rect fill="url(#d)" height="38" rx="6" width="41" x="53" y="50"/><g fill="#fff"><rect height="10" opacity=".75" rx="2" width="21" x="57" y="55"/><rect height="10" opacity=".75" rx="2" transform="matrix(-1 0 0 1 90 68)" width="21"/><rect height="10" opacity=".75" rx="2" width="10" x="80" y="55"/><rect height="10" opacity=".75" rx="2" transform="matrix(-1 0 0 1 67 68)" width="10"/><rect height="3" opacity=".75" rx="1.5" transform="matrix(-1 0 0 1 90 81)" width="33"/></g><path d="m97.7202 71.5264c2.9388-4.1495 1.9557-9.8953-2.1938-12.8332-4.1495-2.9378-9.8953-1.9557-12.8332 2.1945-2.9378 4.1495-1.9557 9.8946 2.1945 12.8325 2.9617 2.0968 6.8774 2.2583 10.0013.4135l6.788 6.7469c.733.7714 1.952.8023 2.723.0694.772-.7321.803-1.9515.071-2.723-.024-.0246-.046-.047-.071-.0702zm-7.5191.629c-3.279.0007-5.9375-2.6556-5.9396-5.9347-.0007-3.279 2.6556-5.9375 5.9354-5.9389 3.2748-.0014 5.9318 2.6508 5.9382 5.9256.0056 3.2797-2.6494 5.9424-5.9298 5.948-.0014 0-.0021 0-.0042 0z" fill="url(#e)"/></svg>