<svg width="157" height="157" viewBox="0 0 157 157" fill="none" xmlns="http://www.w3.org/2000/svg">
<g filter="url(#filter0_d)">
<rect x="30" y="21" width="97" height="97" rx="25" fill="white"/>
</g>
<circle cx="117.5" cy="29.5" r="12.5" fill="white"/>
<path fill-rule="evenodd" clip-rule="evenodd" d="M104 29.8777C104 22.2133 110.227 16 117.909 16C125.588 16.0082 131.81 22.2167 131.819 29.8777C131.819 37.5421 125.591 43.7554 117.909 43.7554C110.227 43.7554 104 37.5421 104 29.8777ZM115.631 35.5348L125.566 25.6221C125.938 25.238 125.938 24.629 125.566 24.2449C125.185 23.8511 124.556 23.8402 124.162 24.2205L114.929 33.4324L111.657 30.1681C111.649 30.1598 111.641 30.1517 111.633 30.1437C111.238 29.7634 110.609 29.7743 110.228 30.1681C109.847 30.5619 109.857 31.1894 110.252 31.5697L114.226 35.5348C114.614 35.9218 115.243 35.9218 115.631 35.5348Z" fill="url(#paint0_linear)"/>
<rect x="53" y="50" width="41" height="38" rx="6" fill="url(#paint1_linear)"/>
<rect opacity="0.75" x="57" y="55" width="21" height="10" rx="2" fill="white"/>
<rect opacity="0.75" width="21" height="10" rx="2" transform="matrix(-1 0 0 1 90 68)" fill="white"/>
<rect opacity="0.75" x="80" y="55" width="10" height="10" rx="2" fill="white"/>
<rect opacity="0.75" width="10" height="10" rx="2" transform="matrix(-1 0 0 1 67 68)" fill="white"/>
<rect opacity="0.75" width="33" height="3" rx="1.5" transform="matrix(-1 0 0 1 90 81)" fill="white"/>
<path d="M97.7202 71.5264C100.659 67.3769 99.6759 61.6311 95.5264 58.6932C91.3769 55.7554 85.6311 56.7375 82.6932 60.8877C79.7554 65.0372 80.7375 70.7823 84.8877 73.7202C87.8494 75.817 91.7651 75.9785 94.889 74.1337L101.677 80.8806C102.41 81.652 103.629 81.6829 104.4 80.95C105.172 80.2179 105.203 78.9985 104.471 78.227C104.447 78.2024 104.425 78.18 104.4 78.1568L97.7202 71.5264ZM90.2011 72.1554C86.9221 72.1561 84.2636 69.4998 84.2615 66.2207C84.2608 62.9417 86.9171 60.2832 90.1969 60.2818C93.4717 60.2804 96.1287 62.9326 96.1351 66.2074C96.1407 69.4871 93.4857 72.1498 90.2053 72.1554C90.2039 72.1554 90.2032 72.1554 90.2011 72.1554Z" fill="url(#paint2_linear)"/>
<defs>
<filter id="filter0_d" x="0" y="0" width="157" height="157" filterUnits="userSpaceOnUse" color-interpolation-filters="sRGB">
<feFlood flood-opacity="0" result="BackgroundImageFix"/>
<feColorMatrix in="SourceAlpha" type="matrix" values="0 0 0 0 0 0 0 0 0 0 0 0 0 0 0 0 0 0 127 0" result="hardAlpha"/>
<feOffset dy="9"/>
<feGaussianBlur stdDeviation="15"/>
<feColorMatrix type="matrix" values="0 0 0 0 0.593438 0 0 0 0 0.707729 0 0 0 0 0.879167 0 0 0 0.25 0"/>
<feBlend mode="normal" in2="BackgroundImageFix" result="effect1_dropShadow"/>
<feBlend mode="normal" in="SourceGraphic" in2="effect1_dropShadow" result="shape"/>
</filter>
<linearGradient id="paint0_linear" x1="117.909" y1="16" x2="117.909" y2="43.7554" gradientUnits="userSpaceOnUse">
<stop stop-color="#B0E7C6"/>
<stop offset="1" stop-color="#5DD1B3"/>
</linearGradient>
<linearGradient id="paint1_linear" x1="73.5" y1="50" x2="73.5" y2="88" gradientUnits="userSpaceOnUse">
<stop stop-color="#B0E7C6"/>
<stop offset="1" stop-color="#5DD1B3"/>
</linearGradient>
<linearGradient id="paint2_linear" x1="93" y1="57" x2="93" y2="81.4801" gradientUnits="userSpaceOnUse">
<stop stop-color="#85BEFF"/>
<stop offset="1" stop-color="#5183BB"/>
</linearGradient>
</defs>
</svg>
