<svg width="421" height="289" viewBox="0 0 421 289" fill="none" xmlns="http://www.w3.org/2000/svg">
<g filter="url(#filter0_d)">
<rect x="40" y="22" width="341" height="209" rx="5" fill="#F0F5FA"/>
</g>
<path d="M60.056 51V42.456H63.464C64.344 42.456 65.028 42.668 65.516 43.092C66.012 43.516 66.26 44.1 66.26 44.844C66.26 45.58 66.012 46.164 65.516 46.596C65.02 47.028 64.336 47.244 63.464 47.244H61.04V51H60.056ZM61.04 46.428H63.38C64.012 46.428 64.488 46.292 64.808 46.02C65.128 45.74 65.288 45.348 65.288 44.844C65.288 44.34 65.128 43.952 64.808 43.68C64.488 43.408 64.012 43.272 63.38 43.272H61.04V46.428ZM67.8724 51V42.456H73.2724V43.272H68.8444V46.248H73.0324V47.076H68.8444V50.184H73.2724V51H67.8724ZM74.9271 51V42.456H78.3231C79.2431 42.456 79.9471 42.66 80.4351 43.068C80.9311 43.476 81.1791 44.064 81.1791 44.832C81.1791 45.568 80.9271 46.148 80.4231 46.572C79.9271 46.988 79.2271 47.196 78.3231 47.196L79.2111 47.028C79.5231 47.028 79.7911 47.116 80.0151 47.292C80.2391 47.46 80.4191 47.732 80.5551 48.108L81.6351 51H80.5911L79.5351 48.156C79.3991 47.796 79.2111 47.56 78.9711 47.448C78.7391 47.328 78.4271 47.268 78.0351 47.268H75.8991V51H74.9271ZM75.8991 46.452H78.2391C78.9031 46.452 79.3951 46.316 79.7151 46.044C80.0431 45.772 80.2071 45.372 80.2071 44.844C80.2071 44.316 80.0471 43.924 79.7271 43.668C79.4071 43.404 78.9111 43.272 78.2391 43.272H75.8991V46.452ZM83.2474 51V42.456H88.5274V43.284H84.2194V46.248H88.2874V47.076H84.2194V51H83.2474ZM93.3976 51.096C92.5976 51.096 91.9056 50.92 91.3216 50.568C90.7456 50.216 90.2976 49.712 89.9776 49.056C89.6656 48.4 89.5096 47.624 89.5096 46.728C89.5096 45.824 89.6656 45.048 89.9776 44.4C90.2896 43.744 90.7336 43.24 91.3096 42.888C91.8936 42.536 92.5896 42.36 93.3976 42.36C94.1976 42.36 94.8896 42.536 95.4736 42.888C96.0576 43.24 96.5056 43.744 96.8176 44.4C97.1296 45.048 97.2856 45.82 97.2856 46.716C97.2856 47.62 97.1256 48.4 96.8056 49.056C96.4936 49.712 96.0456 50.216 95.4616 50.568C94.8856 50.92 94.1976 51.096 93.3976 51.096ZM93.3976 50.256C94.3016 50.256 95.0056 49.952 95.5096 49.344C96.0136 48.728 96.2656 47.852 96.2656 46.716C96.2656 45.58 96.0136 44.712 95.5096 44.112C95.0056 43.504 94.3016 43.2 93.3976 43.2C92.4936 43.2 91.7856 43.504 91.2736 44.112C90.7696 44.72 90.5176 45.588 90.5176 46.716C90.5176 47.844 90.7696 48.716 91.2736 49.332C91.7856 49.948 92.4936 50.256 93.3976 50.256ZM99.0912 51V42.456H102.487C103.407 42.456 104.111 42.66 104.599 43.068C105.095 43.476 105.343 44.064 105.343 44.832C105.343 45.568 105.091 46.148 104.587 46.572C104.091 46.988 103.391 47.196 102.487 47.196L103.375 47.028C103.687 47.028 103.955 47.116 104.179 47.292C104.403 47.46 104.583 47.732 104.719 48.108L105.799 51H104.755L103.699 48.156C103.563 47.796 103.375 47.56 103.135 47.448C102.903 47.328 102.591 47.268 102.199 47.268H100.063V51H99.0912ZM100.063 46.452H102.403C103.067 46.452 103.559 46.316 103.879 46.044C104.207 45.772 104.371 45.372 104.371 44.844C104.371 44.316 104.211 43.924 103.891 43.668C103.571 43.404 103.075 43.272 102.403 43.272H100.063V46.452ZM107.411 51V42.456H108.227L111.695 50.34H111.239L114.671 42.456H115.487V51H114.575V43.752L114.947 43.8L111.803 51H111.107L107.915 43.8L108.311 43.752L108.323 51H107.411ZM117.775 51H116.755L120.511 42.456H121.375L125.131 51H124.123L120.775 43.176H121.135L117.775 51ZM118.351 48.804L118.699 47.988H123.187L123.535 48.804H118.351ZM126.408 51V42.456H127.164L132.612 49.716L132.324 49.788V42.456H133.26V51H132.492L127.056 43.752L127.332 43.668V51H126.408ZM139.009 51.096C138.193 51.096 137.489 50.92 136.897 50.568C136.305 50.216 135.849 49.712 135.529 49.056C135.209 48.4 135.049 47.62 135.049 46.716C135.049 45.812 135.209 45.036 135.529 44.388C135.849 43.74 136.305 43.24 136.897 42.888C137.489 42.536 138.193 42.36 139.009 42.36C139.593 42.36 140.133 42.452 140.629 42.636C141.125 42.812 141.553 43.08 141.913 43.44L141.541 44.196C141.133 43.844 140.729 43.592 140.329 43.44C139.929 43.288 139.493 43.212 139.021 43.212C138.085 43.212 137.357 43.516 136.837 44.124C136.325 44.732 136.069 45.596 136.069 46.716C136.069 47.844 136.325 48.716 136.837 49.332C137.349 49.94 138.077 50.244 139.021 50.244C139.493 50.244 139.929 50.168 140.329 50.016C140.729 49.864 141.133 49.612 141.541 49.26L141.913 50.016C141.553 50.376 141.125 50.648 140.629 50.832C140.133 51.008 139.593 51.096 139.009 51.096ZM143.564 51V42.456H148.964V43.272H144.536V46.248H148.724V47.076H144.536V50.184H148.964V51H143.564Z" fill="#9EA0A5"/>
<g clip-path="url(#clip0)">
<path d="M269.991 49V40.456H270.975V48.16H275.259V49H269.991ZM278.714 49.084C278.178 49.084 277.706 48.96 277.298 48.712C276.898 48.456 276.586 48.096 276.362 47.632C276.146 47.16 276.038 46.608 276.038 45.976C276.038 45.344 276.15 44.792 276.374 44.32C276.598 43.848 276.91 43.48 277.31 43.216C277.718 42.952 278.186 42.82 278.714 42.82C279.266 42.82 279.734 42.956 280.118 43.228C280.502 43.5 280.762 43.888 280.898 44.392L280.754 44.488V42.964H281.714V49H280.754V47.44L280.898 47.512C280.762 48.016 280.502 48.404 280.118 48.676C279.734 48.948 279.266 49.084 278.714 49.084ZM278.906 48.28C279.498 48.28 279.954 48.08 280.274 47.68C280.594 47.272 280.754 46.696 280.754 45.952C280.754 45.208 280.59 44.636 280.262 44.236C279.942 43.836 279.49 43.636 278.906 43.636C278.314 43.636 277.85 43.844 277.514 44.26C277.186 44.668 277.022 45.24 277.022 45.976C277.022 46.712 277.186 47.28 277.514 47.68C277.85 48.08 278.314 48.28 278.906 48.28ZM285.633 49.084C284.617 49.084 283.813 48.824 283.221 48.304L283.545 47.584C283.865 47.832 284.193 48.016 284.529 48.136C284.873 48.248 285.253 48.304 285.669 48.304C286.125 48.304 286.469 48.228 286.701 48.076C286.941 47.916 287.061 47.688 287.061 47.392C287.061 47.152 286.981 46.964 286.821 46.828C286.661 46.684 286.397 46.568 286.029 46.48L285.009 46.24C284.505 46.128 284.113 45.928 283.833 45.64C283.561 45.352 283.425 45.008 283.425 44.608C283.425 44.256 283.521 43.948 283.713 43.684C283.905 43.412 284.173 43.2 284.517 43.048C284.861 42.896 285.269 42.82 285.741 42.82C286.165 42.82 286.565 42.888 286.941 43.024C287.317 43.16 287.633 43.356 287.889 43.612L287.565 44.32C287.277 44.08 286.981 43.904 286.677 43.792C286.381 43.672 286.069 43.612 285.741 43.612C285.309 43.612 284.973 43.696 284.733 43.864C284.501 44.032 284.385 44.26 284.385 44.548C284.385 44.796 284.457 44.992 284.601 45.136C284.753 45.28 284.993 45.392 285.321 45.472L286.341 45.724C286.909 45.844 287.325 46.044 287.589 46.324C287.861 46.596 287.997 46.944 287.997 47.368C287.997 47.888 287.785 48.304 287.361 48.616C286.937 48.928 286.361 49.084 285.633 49.084ZM288.636 43.732V42.964H292.512V43.732H288.636ZM292.488 48.136V48.964C292.352 49.004 292.216 49.032 292.08 49.048C291.952 49.072 291.808 49.084 291.648 49.084C291.088 49.084 290.64 48.924 290.304 48.604C289.976 48.284 289.812 47.804 289.812 47.164V41.416L290.784 41.068V47.032C290.784 47.352 290.828 47.6 290.916 47.776C291.012 47.952 291.14 48.076 291.3 48.148C291.46 48.212 291.64 48.244 291.84 48.244C291.96 48.244 292.068 48.236 292.164 48.22C292.26 48.204 292.368 48.176 292.488 48.136ZM298.288 49H297.232L301.42 40.888L301.504 41.284H296.656V40.456H302.296V41.188L298.288 49ZM307.256 49V40.456H310.124C311.036 40.456 311.812 40.624 312.452 40.96C313.092 41.288 313.58 41.772 313.916 42.412C314.252 43.044 314.42 43.812 314.42 44.716C314.42 45.628 314.248 46.404 313.904 47.044C313.568 47.676 313.08 48.16 312.44 48.496C311.8 48.832 311.028 49 310.124 49H307.256ZM308.24 48.16H310.064C311.168 48.16 311.996 47.872 312.548 47.296C313.108 46.72 313.388 45.86 313.388 44.716C313.388 42.436 312.28 41.296 310.064 41.296H308.24V48.16ZM318.405 49.084C317.869 49.084 317.397 48.96 316.989 48.712C316.589 48.456 316.277 48.096 316.053 47.632C315.837 47.16 315.729 46.608 315.729 45.976C315.729 45.344 315.841 44.792 316.065 44.32C316.289 43.848 316.601 43.48 317.001 43.216C317.409 42.952 317.877 42.82 318.405 42.82C318.957 42.82 319.425 42.956 319.809 43.228C320.193 43.5 320.453 43.888 320.589 44.392L320.445 44.488V42.964H321.405V49H320.445V47.44L320.589 47.512C320.453 48.016 320.193 48.404 319.809 48.676C319.425 48.948 318.957 49.084 318.405 49.084ZM318.597 48.28C319.189 48.28 319.645 48.08 319.965 47.68C320.285 47.272 320.445 46.696 320.445 45.952C320.445 45.208 320.281 44.636 319.953 44.236C319.633 43.836 319.181 43.636 318.597 43.636C318.005 43.636 317.541 43.844 317.205 44.26C316.877 44.668 316.713 45.24 316.713 45.976C316.713 46.712 316.877 47.28 317.205 47.68C317.541 48.08 318.005 48.28 318.597 48.28ZM322.997 51.724L322.793 50.968C323.161 50.88 323.469 50.776 323.717 50.656C323.973 50.544 324.185 50.396 324.353 50.212C324.529 50.028 324.681 49.784 324.809 49.48L325.193 48.592L325.409 48.292L327.617 42.964H328.589L325.769 49.552C325.553 50.04 325.309 50.428 325.037 50.716C324.765 51.012 324.457 51.236 324.113 51.388C323.777 51.54 323.405 51.652 322.997 51.724ZM325.205 49.312L322.493 42.964H323.513L325.697 48.292L325.205 49.312ZM331.594 49.084C330.578 49.084 329.774 48.824 329.182 48.304L329.506 47.584C329.826 47.832 330.154 48.016 330.49 48.136C330.834 48.248 331.214 48.304 331.63 48.304C332.086 48.304 332.43 48.228 332.662 48.076C332.902 47.916 333.022 47.688 333.022 47.392C333.022 47.152 332.942 46.964 332.782 46.828C332.622 46.684 332.358 46.568 331.99 46.48L330.97 46.24C330.466 46.128 330.074 45.928 329.794 45.64C329.522 45.352 329.386 45.008 329.386 44.608C329.386 44.256 329.482 43.948 329.674 43.684C329.866 43.412 330.134 43.2 330.478 43.048C330.822 42.896 331.23 42.82 331.702 42.82C332.126 42.82 332.526 42.888 332.902 43.024C333.278 43.16 333.594 43.356 333.85 43.612L333.526 44.32C333.238 44.08 332.942 43.904 332.638 43.792C332.342 43.672 332.03 43.612 331.702 43.612C331.27 43.612 330.934 43.696 330.694 43.864C330.462 44.032 330.346 44.26 330.346 44.548C330.346 44.796 330.418 44.992 330.562 45.136C330.714 45.28 330.954 45.392 331.282 45.472L332.302 45.724C332.87 45.844 333.286 46.044 333.55 46.324C333.822 46.596 333.958 46.944 333.958 47.368C333.958 47.888 333.746 48.304 333.322 48.616C332.898 48.928 332.322 49.084 331.594 49.084Z" fill="#9EA0A5"/>
<path fill-rule="evenodd" clip-rule="evenodd" d="M358.509 41L355 44.0451L361.889 43.934L358.509 41ZM358.391 50.9976L361.911 47.9431L355 48.0545L358.391 50.9976Z" fill="white" fill-opacity="0.01"/>
<mask id="mask0" mask-type="alpha" maskUnits="userSpaceOnUse" x="355" y="41" width="7" height="10">
<path fill-rule="evenodd" clip-rule="evenodd" d="M358.509 41L355 44.0451L361.889 43.934L358.509 41ZM358.391 50.9976L361.911 47.9431L355 48.0545L358.391 50.9976Z" fill="white"/>
</mask>
<g mask="url(#mask0)">
<rect x="355" y="41" width="6.91335" height="10" fill="#9EA0A5"/>
</g>
</g>
<rect x="59" y="131" width="23" height="63" rx="2" fill="#9DC2D4"/>
<path d="M67.7051 204.469L70.4941 211.43L73.2832 204.469H74.7422V213H73.6172V209.678L73.7227 206.092L70.9219 213H70.0605L67.2656 206.109L67.377 209.678V213H66.252V204.469H67.7051Z" fill="#9EA0A5"/>
<g clip-path="url(#clip1)">
<rect x="107.898" y="147" width="23" height="47" rx="2" fill="#9DC2D4"/>
<path d="M123.425 205.395H120.683V213H119.563V205.395H116.827V204.469H123.425V205.395Z" fill="#9EA0A5"/>
</g>
<g clip-path="url(#clip2)">
<rect x="152.699" y="176" width="23" height="18" rx="2" fill="#9DC2D4"/>
<path d="M161.563 210.311L161.728 211.436L161.968 210.422L163.655 204.469H164.604L166.251 210.422L166.485 211.453L166.667 210.305L167.991 204.469H169.122L167.054 213H166.028L164.271 206.783L164.136 206.133L164.001 206.783L162.179 213H161.153L159.091 204.469H160.216L161.563 210.311Z" fill="#9EA0A5"/>
</g>
<g clip-path="url(#clip3)">
<rect x="198.929" y="145" width="23" height="49" rx="2" fill="#9DC2D4"/>
<path d="M212.733 205.395H209.991V213H208.872V205.395H206.136V204.469H212.733V205.395Z" fill="#9EA0A5"/>
</g>
<g clip-path="url(#clip4)">
<rect x="242.301" y="138" width="23" height="56" rx="2" fill="#9DC2D4"/>
<path d="M256.319 209.232H252.739V213H251.614V204.469H256.899V205.395H252.739V208.312H256.319V209.232Z" fill="#9EA0A5"/>
</g>
<g clip-path="url(#clip5)">
<rect x="287.102" y="150" width="23" height="44" rx="2" fill="#9DC2D4"/>
<path d="M297.821 209.197C296.856 208.92 296.153 208.58 295.712 208.178C295.274 207.771 295.056 207.271 295.056 206.678C295.056 206.006 295.323 205.451 295.858 205.014C296.397 204.572 297.097 204.352 297.956 204.352C298.542 204.352 299.063 204.465 299.521 204.691C299.981 204.918 300.337 205.23 300.587 205.629C300.841 206.027 300.968 206.463 300.968 206.936H299.837C299.837 206.42 299.673 206.016 299.345 205.723C299.017 205.426 298.554 205.277 297.956 205.277C297.401 205.277 296.968 205.4 296.655 205.646C296.347 205.889 296.192 206.227 296.192 206.66C296.192 207.008 296.339 207.303 296.632 207.545C296.929 207.783 297.431 208.002 298.138 208.201C298.849 208.4 299.403 208.621 299.802 208.863C300.204 209.102 300.501 209.381 300.692 209.701C300.888 210.021 300.985 210.398 300.985 210.832C300.985 211.523 300.716 212.078 300.177 212.496C299.638 212.91 298.917 213.117 298.015 213.117C297.429 213.117 296.882 213.006 296.374 212.783C295.866 212.557 295.474 212.248 295.196 211.857C294.923 211.467 294.786 211.023 294.786 210.527H295.917C295.917 211.043 296.106 211.451 296.485 211.752C296.868 212.049 297.378 212.197 298.015 212.197C298.608 212.197 299.063 212.076 299.38 211.834C299.696 211.592 299.854 211.262 299.854 210.844C299.854 210.426 299.708 210.104 299.415 209.877C299.122 209.646 298.591 209.42 297.821 209.197Z" fill="#9EA0A5"/>
</g>
<rect x="336" y="160" width="23" height="34" rx="2" fill="#9DC2D4"/>
<path d="M347.941 209.197C346.977 208.92 346.273 208.58 345.832 208.178C345.395 207.771 345.176 207.271 345.176 206.678C345.176 206.006 345.443 205.451 345.979 205.014C346.518 204.572 347.217 204.352 348.076 204.352C348.662 204.352 349.184 204.465 349.641 204.691C350.102 204.918 350.457 205.23 350.707 205.629C350.961 206.027 351.088 206.463 351.088 206.936H349.957C349.957 206.42 349.793 206.016 349.465 205.723C349.137 205.426 348.674 205.277 348.076 205.277C347.521 205.277 347.088 205.4 346.775 205.646C346.467 205.889 346.312 206.227 346.312 206.66C346.312 207.008 346.459 207.303 346.752 207.545C347.049 207.783 347.551 208.002 348.258 208.201C348.969 208.4 349.523 208.621 349.922 208.863C350.324 209.102 350.621 209.381 350.812 209.701C351.008 210.021 351.105 210.398 351.105 210.832C351.105 211.523 350.836 212.078 350.297 212.496C349.758 212.91 349.037 213.117 348.135 213.117C347.549 213.117 347.002 213.006 346.494 212.783C345.986 212.557 345.594 212.248 345.316 211.857C345.043 211.467 344.906 211.023 344.906 210.527H346.037C346.037 211.043 346.227 211.451 346.605 211.752C346.988 212.049 347.498 212.197 348.135 212.197C348.729 212.197 349.184 212.076 349.5 211.834C349.816 211.592 349.975 211.262 349.975 210.844C349.975 210.426 349.828 210.104 349.535 209.877C349.242 209.646 348.711 209.42 347.941 209.197Z" fill="#9EA0A5"/>
<path d="M316.627 102H314.264V90.584L310.777 91.7754V89.7734L316.324 87.7324H316.627V102ZM322.057 105.203L320.777 104.441C321.155 103.849 321.412 103.331 321.549 102.889C321.692 102.452 321.767 102.007 321.773 101.551V99.7051H323.912L323.902 101.414C323.896 102.104 323.72 102.794 323.375 103.484C323.036 104.181 322.597 104.754 322.057 105.203ZM333.99 96.9316H335.758V98.8359H333.99V102H331.617V98.8359H325.475L325.406 97.3906L331.539 87.7812H333.99V96.9316ZM327.896 96.9316H331.617V90.9941L331.441 91.3066L327.896 96.9316ZM345.357 96.9316H347.125V98.8359H345.357V102H342.984V98.8359H336.842L336.773 97.3906L342.906 87.7812H345.357V96.9316ZM339.264 96.9316H342.984V90.9941L342.809 91.3066L339.264 96.9316ZM356.08 87.7129V89.6758H355.787C354.459 89.6953 353.398 90.0599 352.604 90.7695C351.809 91.4792 351.337 92.485 351.188 93.7871C351.949 92.9863 352.923 92.5859 354.107 92.5859C355.364 92.5859 356.354 93.0286 357.076 93.9141C357.805 94.7995 358.17 95.9421 358.17 97.3418C358.17 98.7871 357.743 99.959 356.891 100.857C356.044 101.749 354.931 102.195 353.551 102.195C352.132 102.195 350.979 101.671 350.094 100.623C349.215 99.5749 348.775 98.2012 348.775 96.502V95.6914C348.775 93.1979 349.381 91.2448 350.592 89.832C351.809 88.4193 353.557 87.7129 355.836 87.7129H356.08ZM353.531 94.5C353.01 94.5 352.532 94.6465 352.096 94.9395C351.666 95.2324 351.35 95.623 351.148 96.1113V96.834C351.148 97.8887 351.37 98.7285 351.812 99.3535C352.255 99.972 352.828 100.281 353.531 100.281C354.234 100.281 354.791 100.018 355.201 99.4902C355.611 98.9629 355.816 98.2695 355.816 97.4102C355.816 96.5508 355.608 95.8509 355.191 95.3105C354.775 94.7702 354.221 94.5 353.531 94.5Z" fill="#3E3F42"/>
<g clip-path="url(#clip6)">
<path d="M60.232 90V80.032H64.194C65.2673 80.032 66.0887 80.27 66.658 80.746C67.2367 81.222 67.526 81.908 67.526 82.804C67.526 83.6627 67.232 84.3393 66.644 84.834C66.0653 85.3193 65.2487 85.562 64.194 85.562L65.23 85.366C65.594 85.366 65.9067 85.4687 66.168 85.674C66.4293 85.87 66.6393 86.1873 66.798 86.626L68.058 90H66.84L65.608 86.682C65.4493 86.262 65.23 85.9867 64.95 85.856C64.6793 85.716 64.3153 85.646 63.858 85.646H61.366V90H60.232ZM61.366 84.694H64.096C64.8707 84.694 65.4447 84.5353 65.818 84.218C66.2007 83.9007 66.392 83.434 66.392 82.818C66.392 82.202 66.2053 81.7447 65.832 81.446C65.4587 81.138 64.88 80.984 64.096 80.984H61.366V84.694ZM75.567 89.16C75.259 89.4493 74.8624 89.678 74.377 89.846C73.901 90.014 73.411 90.098 72.907 90.098C72.179 90.098 71.549 89.9533 71.017 89.664C70.4944 89.3747 70.0884 88.9593 69.799 88.418C69.519 87.8673 69.379 87.214 69.379 86.458C69.379 85.73 69.519 85.0907 69.799 84.54C70.079 83.9893 70.4664 83.56 70.961 83.252C71.465 82.944 72.0437 82.79 72.697 82.79C73.3224 82.79 73.859 82.93 74.307 83.21C74.755 83.4807 75.0957 83.8727 75.329 84.386C75.5717 84.8993 75.693 85.5153 75.693 86.234V86.444H70.373V85.702H75.049L74.685 86.22C74.7037 85.3987 74.5404 84.7687 74.195 84.33C73.859 83.8913 73.3644 83.672 72.711 83.672C72.0297 83.672 71.493 83.9147 71.101 84.4C70.7184 84.876 70.527 85.5387 70.527 86.388C70.527 87.3027 70.7277 87.9933 71.129 88.46C71.5397 88.9267 72.137 89.16 72.921 89.16C73.3317 89.16 73.7237 89.0947 74.097 88.964C74.4797 88.824 74.8437 88.614 75.189 88.334L75.567 89.16ZM79.7943 90.098C78.6089 90.098 77.6709 89.7947 76.9803 89.188L77.3583 88.348C77.7316 88.6373 78.1143 88.852 78.5063 88.992C78.9076 89.1227 79.3509 89.188 79.8363 89.188C80.3683 89.188 80.7696 89.0993 81.0403 88.922C81.3203 88.7353 81.4603 88.4693 81.4603 88.124C81.4603 87.844 81.3669 87.6247 81.1803 87.466C80.9936 87.298 80.6856 87.1627 80.2563 87.06L79.0663 86.78C78.4783 86.6493 78.0209 86.416 77.6943 86.08C77.3769 85.744 77.2183 85.3427 77.2183 84.876C77.2183 84.4653 77.3303 84.106 77.5543 83.798C77.7783 83.4807 78.0909 83.2333 78.4923 83.056C78.8936 82.8787 79.3696 82.79 79.9203 82.79C80.4149 82.79 80.8816 82.8693 81.3203 83.028C81.7589 83.1867 82.1276 83.4153 82.4263 83.714L82.0483 84.54C81.7123 84.26 81.3669 84.0547 81.0123 83.924C80.6669 83.784 80.3029 83.714 79.9203 83.714C79.4163 83.714 79.0243 83.812 78.7443 84.008C78.4736 84.204 78.3383 84.47 78.3383 84.806C78.3383 85.0953 78.4223 85.324 78.5903 85.492C78.7676 85.66 79.0476 85.7907 79.4303 85.884L80.6203 86.178C81.2829 86.318 81.7683 86.5513 82.0763 86.878C82.3936 87.1953 82.5523 87.6013 82.5523 88.096C82.5523 88.7027 82.3049 89.188 81.8103 89.552C81.3156 89.916 80.6436 90.098 79.7943 90.098ZM84.3596 93.024V84.932C84.3596 84.6053 84.3502 84.2787 84.3316 83.952C84.3222 83.616 84.2942 83.2847 84.2476 82.958H85.3256L85.4516 84.414L85.3396 84.624C85.4982 84.036 85.8016 83.5833 86.2496 83.266C86.6976 82.9487 87.2389 82.79 87.8736 82.79C88.4896 82.79 89.0309 82.944 89.4976 83.252C89.9736 83.56 90.3422 83.9893 90.6036 84.54C90.8742 85.0907 91.0096 85.7347 91.0096 86.472C91.0096 87.2093 90.8742 87.8533 90.6036 88.404C90.3422 88.9453 89.9782 89.3653 89.5116 89.664C89.0449 89.9533 88.4989 90.098 87.8736 90.098C87.2389 90.098 86.6976 89.9393 86.2496 89.622C85.8016 89.3047 85.4982 88.852 85.3396 88.264L85.4936 88.124V93.024H84.3596ZM87.6636 89.16C88.3449 89.16 88.8769 88.9267 89.2596 88.46C89.6422 87.9933 89.8336 87.3307 89.8336 86.472C89.8336 85.6133 89.6422 84.946 89.2596 84.47C88.8769 83.9847 88.3449 83.742 87.6636 83.742C86.9636 83.742 86.4269 83.9753 86.0536 84.442C85.6802 84.9087 85.4936 85.576 85.4936 86.444C85.4936 87.312 85.6802 87.984 86.0536 88.46C86.4269 88.9267 86.9636 89.16 87.6636 89.16ZM95.6661 90.098C94.9941 90.098 94.4061 89.9487 93.9021 89.65C93.4074 89.3513 93.0201 88.9313 92.7401 88.39C92.4694 87.8393 92.3341 87.1907 92.3341 86.444C92.3341 85.7067 92.4694 85.0627 92.7401 84.512C93.0201 83.9613 93.4074 83.5367 93.9021 83.238C94.4061 82.9393 94.9941 82.79 95.6661 82.79C96.3381 82.79 96.9214 82.9393 97.4161 83.238C97.9201 83.5367 98.3074 83.9613 98.5781 84.512C98.8581 85.0627 98.9981 85.7067 98.9981 86.444C98.9981 87.1907 98.8581 87.8393 98.5781 88.39C98.3074 88.9313 97.9201 89.3513 97.4161 89.65C96.9214 89.9487 96.3381 90.098 95.6661 90.098ZM95.6661 89.16C96.3568 89.16 96.8888 88.9313 97.2621 88.474C97.6448 88.0073 97.8361 87.3307 97.8361 86.444C97.8361 85.576 97.6448 84.9087 97.2621 84.442C96.8794 83.9753 96.3474 83.742 95.6661 83.742C94.9848 83.742 94.4481 83.9753 94.0561 84.442C93.6734 84.9087 93.4821 85.576 93.4821 86.444C93.4821 87.3307 93.6688 88.0073 94.0421 88.474C94.4248 88.9313 94.9661 89.16 95.6661 89.16ZM100.766 90V84.932C100.766 84.6053 100.756 84.2787 100.738 83.952C100.728 83.616 100.7 83.2847 100.654 82.958H101.732L101.858 84.414L101.718 84.526C101.914 83.9567 102.24 83.5273 102.698 83.238C103.155 82.9393 103.682 82.79 104.28 82.79C105.969 82.79 106.814 83.7187 106.814 85.576V90H105.68V85.632C105.68 84.9787 105.549 84.5027 105.288 84.204C105.026 83.896 104.616 83.742 104.056 83.742C103.402 83.742 102.88 83.9427 102.488 84.344C102.096 84.7453 101.9 85.2867 101.9 85.968V90H100.766ZM111.335 90.098C110.15 90.098 109.212 89.7947 108.521 89.188L108.899 88.348C109.273 88.6373 109.655 88.852 110.047 88.992C110.449 89.1227 110.892 89.188 111.377 89.188C111.909 89.188 112.311 89.0993 112.581 88.922C112.861 88.7353 113.001 88.4693 113.001 88.124C113.001 87.844 112.908 87.6247 112.721 87.466C112.535 87.298 112.227 87.1627 111.797 87.06L110.607 86.78C110.019 86.6493 109.562 86.416 109.235 86.08C108.918 85.744 108.759 85.3427 108.759 84.876C108.759 84.4653 108.871 84.106 109.095 83.798C109.319 83.4807 109.632 83.2333 110.033 83.056C110.435 82.8787 110.911 82.79 111.461 82.79C111.956 82.79 112.423 82.8693 112.861 83.028C113.3 83.1867 113.669 83.4153 113.967 83.714L113.589 84.54C113.253 84.26 112.908 84.0547 112.553 83.924C112.208 83.784 111.844 83.714 111.461 83.714C110.957 83.714 110.565 83.812 110.285 84.008C110.015 84.204 109.879 84.47 109.879 84.806C109.879 85.0953 109.963 85.324 110.131 85.492C110.309 85.66 110.589 85.7907 110.971 85.884L112.161 86.178C112.824 86.318 113.309 86.5513 113.617 86.878C113.935 87.1953 114.093 87.6013 114.093 88.096C114.093 88.7027 113.846 89.188 113.351 89.552C112.857 89.916 112.185 90.098 111.335 90.098ZM121.669 89.16C121.361 89.4493 120.964 89.678 120.479 89.846C120.003 90.014 119.513 90.098 119.009 90.098C118.281 90.098 117.651 89.9533 117.119 89.664C116.596 89.3747 116.19 88.9593 115.901 88.418C115.621 87.8673 115.481 87.214 115.481 86.458C115.481 85.73 115.621 85.0907 115.901 84.54C116.181 83.9893 116.568 83.56 117.063 83.252C117.567 82.944 118.145 82.79 118.799 82.79C119.424 82.79 119.961 82.93 120.409 83.21C120.857 83.4807 121.197 83.8727 121.431 84.386C121.673 84.8993 121.795 85.5153 121.795 86.234V86.444H116.475V85.702H121.151L120.787 86.22C120.805 85.3987 120.642 84.7687 120.297 84.33C119.961 83.8913 119.466 83.672 118.813 83.672C118.131 83.672 117.595 83.9147 117.203 84.4C116.82 84.876 116.629 85.5387 116.629 86.388C116.629 87.3027 116.829 87.9933 117.231 88.46C117.641 88.9267 118.239 89.16 119.023 89.16C119.433 89.16 119.825 89.0947 120.199 88.964C120.581 88.824 120.945 88.614 121.291 88.334L121.669 89.16ZM125.896 90.098C124.71 90.098 123.772 89.7947 123.082 89.188L123.46 88.348C123.833 88.6373 124.216 88.852 124.608 88.992C125.009 89.1227 125.452 89.188 125.938 89.188C126.47 89.188 126.871 89.0993 127.142 88.922C127.422 88.7353 127.562 88.4693 127.562 88.124C127.562 87.844 127.468 87.6247 127.282 87.466C127.095 87.298 126.787 87.1627 126.358 87.06L125.168 86.78C124.58 86.6493 124.122 86.416 123.796 86.08C123.478 85.744 123.32 85.3427 123.32 84.876C123.32 84.4653 123.432 84.106 123.656 83.798C123.88 83.4807 124.192 83.2333 124.594 83.056C124.995 82.8787 125.471 82.79 126.022 82.79C126.516 82.79 126.983 82.8693 127.422 83.028C127.86 83.1867 128.229 83.4153 128.528 83.714L128.15 84.54C127.814 84.26 127.468 84.0547 127.114 83.924C126.768 83.784 126.404 83.714 126.022 83.714C125.518 83.714 125.126 83.812 124.846 84.008C124.575 84.204 124.44 84.47 124.44 84.806C124.44 85.0953 124.524 85.324 124.692 85.492C124.869 85.66 125.149 85.7907 125.532 85.884L126.722 86.178C127.384 86.318 127.87 86.5513 128.178 86.878C128.495 87.1953 128.654 87.6013 128.654 88.096C128.654 88.7027 128.406 89.188 127.912 89.552C127.417 89.916 126.745 90.098 125.896 90.098Z" fill="#3E3F42"/>
<path d="M62.12 109V101.296H59.144V100.456H66.092V101.296H63.116V109H62.12ZM68.7367 109.084C68.1607 109.084 67.6567 108.956 67.2247 108.7C66.8007 108.444 66.4687 108.084 66.2287 107.62C65.9967 107.148 65.8807 106.592 65.8807 105.952C65.8807 105.32 65.9967 104.768 66.2287 104.296C66.4687 103.824 66.8007 103.46 67.2247 103.204C67.6567 102.948 68.1607 102.82 68.7367 102.82C69.3127 102.82 69.8127 102.948 70.2367 103.204C70.6687 103.46 71.0007 103.824 71.2327 104.296C71.4727 104.768 71.5927 105.32 71.5927 105.952C71.5927 106.592 71.4727 107.148 71.2327 107.62C71.0007 108.084 70.6687 108.444 70.2367 108.7C69.8127 108.956 69.3127 109.084 68.7367 109.084ZM68.7367 108.28C69.3287 108.28 69.7847 108.084 70.1047 107.692C70.4327 107.292 70.5967 106.712 70.5967 105.952C70.5967 105.208 70.4327 104.636 70.1047 104.236C69.7767 103.836 69.3207 103.636 68.7367 103.636C68.1527 103.636 67.6927 103.836 67.3567 104.236C67.0287 104.636 66.8647 105.208 66.8647 105.952C66.8647 106.712 67.0247 107.292 67.3447 107.692C67.6727 108.084 68.1367 108.28 68.7367 108.28ZM72.2442 103.732V102.964H76.1202V103.732H72.2442ZM76.0962 108.136V108.964C75.9602 109.004 75.8242 109.032 75.6882 109.048C75.5602 109.072 75.4162 109.084 75.2562 109.084C74.6962 109.084 74.2482 108.924 73.9122 108.604C73.5842 108.284 73.4202 107.804 73.4202 107.164V101.416L74.3922 101.068V107.032C74.3922 107.352 74.4362 107.6 74.5242 107.776C74.6202 107.952 74.7482 108.076 74.9082 108.148C75.0682 108.212 75.2482 108.244 75.4482 108.244C75.5682 108.244 75.6762 108.236 75.7722 108.22C75.8682 108.204 75.9762 108.176 76.0962 108.136ZM79.6075 109.084C79.0715 109.084 78.5995 108.96 78.1915 108.712C77.7915 108.456 77.4795 108.096 77.2555 107.632C77.0395 107.16 76.9315 106.608 76.9315 105.976C76.9315 105.344 77.0435 104.792 77.2675 104.32C77.4915 103.848 77.8035 103.48 78.2035 103.216C78.6115 102.952 79.0795 102.82 79.6075 102.82C80.1595 102.82 80.6275 102.956 81.0115 103.228C81.3955 103.5 81.6555 103.888 81.7915 104.392L81.6475 104.488V102.964H82.6075V109H81.6475V107.44L81.7915 107.512C81.6555 108.016 81.3955 108.404 81.0115 108.676C80.6275 108.948 80.1595 109.084 79.6075 109.084ZM79.7995 108.28C80.3915 108.28 80.8475 108.08 81.1675 107.68C81.4875 107.272 81.6475 106.696 81.6475 105.952C81.6475 105.208 81.4835 104.636 81.1555 104.236C80.8355 103.836 80.3835 103.636 79.7995 103.636C79.2075 103.636 78.7435 103.844 78.4075 104.26C78.0795 104.668 77.9155 105.24 77.9155 105.976C77.9155 106.712 78.0795 107.28 78.4075 107.68C78.7435 108.08 79.2075 108.28 79.7995 108.28ZM84.4868 109V100.168H85.4588V109H84.4868ZM89.6231 103.732V102.964H93.2471V103.732H89.6231ZM93.4151 101.056C93.1911 100.992 92.9831 100.96 92.7911 100.96C92.5991 100.96 92.4231 100.996 92.2631 101.068C92.1111 101.132 91.9911 101.252 91.9031 101.428C91.8151 101.604 91.7711 101.848 91.7711 102.16V109H90.7991V102.04C90.7991 101.392 90.9591 100.912 91.2791 100.6C91.5991 100.28 92.0391 100.12 92.5991 100.12C92.7351 100.12 92.8711 100.128 93.0071 100.144C93.1431 100.16 93.2791 100.188 93.4151 100.228V101.056ZM99.4034 108.28C99.1394 108.528 98.7994 108.724 98.3834 108.868C97.9754 109.012 97.5554 109.084 97.1234 109.084C96.4994 109.084 95.9594 108.96 95.5034 108.712C95.0554 108.464 94.7074 108.108 94.4594 107.644C94.2194 107.172 94.0994 106.612 94.0994 105.964C94.0994 105.34 94.2194 104.792 94.4594 104.32C94.6994 103.848 95.0314 103.48 95.4554 103.216C95.8874 102.952 96.3834 102.82 96.9434 102.82C97.4794 102.82 97.9394 102.94 98.3234 103.18C98.7074 103.412 98.9994 103.748 99.1994 104.188C99.4074 104.628 99.5114 105.156 99.5114 105.772V105.952H94.9514V105.316H98.9594L98.6474 105.76C98.6634 105.056 98.5234 104.516 98.2274 104.14C97.9394 103.764 97.5154 103.576 96.9554 103.576C96.3714 103.576 95.9114 103.784 95.5754 104.2C95.2474 104.608 95.0834 105.176 95.0834 105.904C95.0834 106.688 95.2554 107.28 95.5994 107.68C95.9514 108.08 96.4634 108.28 97.1354 108.28C97.4874 108.28 97.8234 108.224 98.1434 108.112C98.4714 107.992 98.7834 107.812 99.0794 107.572L99.4034 108.28ZM105.931 108.28C105.667 108.528 105.327 108.724 104.911 108.868C104.503 109.012 104.083 109.084 103.651 109.084C103.027 109.084 102.487 108.96 102.031 108.712C101.583 108.464 101.235 108.108 100.987 107.644C100.747 107.172 100.627 106.612 100.627 105.964C100.627 105.34 100.747 104.792 100.987 104.32C101.227 103.848 101.559 103.48 101.983 103.216C102.415 102.952 102.911 102.82 103.471 102.82C104.007 102.82 104.467 102.94 104.851 103.18C105.235 103.412 105.527 103.748 105.727 104.188C105.935 104.628 106.039 105.156 106.039 105.772V105.952H101.479V105.316H105.487L105.175 105.76C105.191 105.056 105.051 104.516 104.755 104.14C104.467 103.764 104.043 103.576 103.483 103.576C102.899 103.576 102.439 103.784 102.103 104.2C101.775 104.608 101.611 105.176 101.611 105.904C101.611 106.688 101.783 107.28 102.127 107.68C102.479 108.08 102.991 108.28 103.663 108.28C104.015 108.28 104.351 108.224 104.671 108.112C104.999 107.992 105.311 107.812 105.607 107.572L105.931 108.28ZM112.83 109H111.87V107.38L112.014 107.512C111.878 108.016 111.618 108.404 111.234 108.676C110.85 108.948 110.382 109.084 109.83 109.084C109.302 109.084 108.834 108.956 108.426 108.7C108.026 108.436 107.714 108.068 107.49 107.596C107.266 107.116 107.154 106.56 107.154 105.928C107.154 105.296 107.262 104.748 107.478 104.284C107.702 103.82 108.014 103.46 108.414 103.204C108.822 102.948 109.294 102.82 109.83 102.82C110.382 102.82 110.85 102.96 111.234 103.24C111.618 103.512 111.878 103.896 112.014 104.392L111.858 104.512V100.168H112.83V109ZM110.022 108.28C110.606 108.28 111.058 108.08 111.378 107.68C111.706 107.272 111.87 106.696 111.87 105.952C111.87 105.216 111.71 104.648 111.39 104.248C111.07 103.84 110.614 103.636 110.022 103.636C109.43 103.636 108.966 103.836 108.63 104.236C108.302 104.636 108.138 105.2 108.138 105.928C108.138 106.672 108.302 107.252 108.63 107.668C108.966 108.076 109.43 108.28 110.022 108.28ZM114.709 109V100.168H115.681V104.512L115.549 104.392C115.685 103.896 115.945 103.512 116.329 103.24C116.713 102.96 117.177 102.82 117.721 102.82C118.257 102.82 118.725 102.948 119.125 103.204C119.525 103.46 119.837 103.82 120.061 104.284C120.293 104.748 120.409 105.296 120.409 105.928C120.409 106.56 120.293 107.116 120.061 107.596C119.837 108.068 119.521 108.436 119.113 108.7C118.713 108.956 118.249 109.084 117.721 109.084C117.177 109.084 116.713 108.948 116.329 108.676C115.945 108.404 115.685 108.016 115.549 107.512L115.681 107.38V109H114.709ZM117.541 108.28C118.125 108.28 118.581 108.076 118.909 107.668C119.237 107.252 119.401 106.672 119.401 105.928C119.401 105.2 119.237 104.636 118.909 104.236C118.581 103.836 118.125 103.636 117.541 103.636C116.941 103.636 116.481 103.84 116.161 104.248C115.841 104.648 115.681 105.216 115.681 105.952C115.681 106.696 115.841 107.272 116.161 107.68C116.481 108.08 116.941 108.28 117.541 108.28ZM124.221 109.084C123.685 109.084 123.213 108.96 122.805 108.712C122.405 108.456 122.093 108.096 121.869 107.632C121.653 107.16 121.545 106.608 121.545 105.976C121.545 105.344 121.657 104.792 121.881 104.32C122.105 103.848 122.417 103.48 122.817 103.216C123.225 102.952 123.693 102.82 124.221 102.82C124.773 102.82 125.241 102.956 125.625 103.228C126.009 103.5 126.269 103.888 126.405 104.392L126.261 104.488V102.964H127.221V109H126.261V107.44L126.405 107.512C126.269 108.016 126.009 108.404 125.625 108.676C125.241 108.948 124.773 109.084 124.221 109.084ZM124.413 108.28C125.005 108.28 125.461 108.08 125.781 107.68C126.101 107.272 126.261 106.696 126.261 105.952C126.261 105.208 126.097 104.636 125.769 104.236C125.449 103.836 124.997 103.636 124.413 103.636C123.821 103.636 123.357 103.844 123.021 104.26C122.693 104.668 122.529 105.24 122.529 105.976C122.529 106.712 122.693 107.28 123.021 107.68C123.357 108.08 123.821 108.28 124.413 108.28ZM131.632 109.084C131.04 109.084 130.528 108.956 130.096 108.7C129.664 108.444 129.328 108.084 129.088 107.62C128.856 107.156 128.74 106.608 128.74 105.976C128.74 105.352 128.86 104.804 129.1 104.332C129.34 103.852 129.68 103.48 130.12 103.216C130.56 102.952 131.08 102.82 131.68 102.82C132.088 102.82 132.48 102.892 132.856 103.036C133.24 103.172 133.556 103.364 133.804 103.612L133.48 104.332C133.184 104.1 132.892 103.928 132.604 103.816C132.324 103.696 132.032 103.636 131.728 103.636C131.12 103.636 130.636 103.84 130.276 104.248C129.924 104.656 129.748 105.232 129.748 105.976C129.748 106.712 129.924 107.28 130.276 107.68C130.628 108.08 131.112 108.28 131.728 108.28C132.024 108.28 132.316 108.224 132.604 108.112C132.892 107.992 133.184 107.816 133.48 107.584L133.804 108.304C133.548 108.544 133.224 108.736 132.832 108.88C132.448 109.016 132.048 109.084 131.632 109.084ZM139.109 109L135.821 105.916L138.857 102.976H140.093L136.733 106.192L136.769 105.58L140.381 109H139.109ZM135.041 109V100.168H136.013V109H135.041ZM144.346 109V104.656C144.346 104.376 144.338 104.096 144.322 103.816C144.314 103.528 144.29 103.244 144.25 102.964H145.174L145.306 104.452L145.174 104.416C145.286 103.888 145.526 103.492 145.894 103.228C146.27 102.956 146.69 102.82 147.154 102.82C147.258 102.82 147.354 102.828 147.442 102.844C147.538 102.852 147.626 102.868 147.706 102.892L147.682 103.78C147.498 103.716 147.286 103.684 147.046 103.684C146.63 103.684 146.294 103.776 146.038 103.96C145.79 104.144 145.606 104.38 145.486 104.668C145.374 104.948 145.318 105.244 145.318 105.556V109H144.346ZM153.521 108.28C153.257 108.528 152.917 108.724 152.501 108.868C152.093 109.012 151.673 109.084 151.241 109.084C150.617 109.084 150.077 108.96 149.621 108.712C149.173 108.464 148.825 108.108 148.577 107.644C148.337 107.172 148.217 106.612 148.217 105.964C148.217 105.34 148.337 104.792 148.577 104.32C148.817 103.848 149.149 103.48 149.573 103.216C150.005 102.952 150.501 102.82 151.061 102.82C151.597 102.82 152.057 102.94 152.441 103.18C152.825 103.412 153.117 103.748 153.317 104.188C153.525 104.628 153.629 105.156 153.629 105.772V105.952H149.069V105.316H153.077L152.765 105.76C152.781 105.056 152.641 104.516 152.345 104.14C152.057 103.764 151.633 103.576 151.073 103.576C150.489 103.576 150.029 103.784 149.693 104.2C149.365 104.608 149.201 105.176 149.201 105.904C149.201 106.688 149.373 107.28 149.717 107.68C150.069 108.08 150.581 108.28 151.253 108.28C151.605 108.28 151.941 108.224 152.261 108.112C152.589 107.992 152.901 107.812 153.197 107.572L153.521 108.28ZM157.144 109.084C156.128 109.084 155.324 108.824 154.732 108.304L155.056 107.584C155.376 107.832 155.704 108.016 156.04 108.136C156.384 108.248 156.764 108.304 157.18 108.304C157.636 108.304 157.98 108.228 158.212 108.076C158.452 107.916 158.572 107.688 158.572 107.392C158.572 107.152 158.492 106.964 158.332 106.828C158.172 106.684 157.908 106.568 157.54 106.48L156.52 106.24C156.016 106.128 155.624 105.928 155.344 105.64C155.072 105.352 154.936 105.008 154.936 104.608C154.936 104.256 155.032 103.948 155.224 103.684C155.416 103.412 155.684 103.2 156.028 103.048C156.372 102.896 156.78 102.82 157.252 102.82C157.676 102.82 158.076 102.888 158.452 103.024C158.828 103.16 159.144 103.356 159.4 103.612L159.076 104.32C158.788 104.08 158.492 103.904 158.188 103.792C157.892 103.672 157.58 103.612 157.252 103.612C156.82 103.612 156.484 103.696 156.244 103.864C156.012 104.032 155.896 104.26 155.896 104.548C155.896 104.796 155.968 104.992 156.112 105.136C156.264 105.28 156.504 105.392 156.832 105.472L157.852 105.724C158.42 105.844 158.836 106.044 159.1 106.324C159.372 106.596 159.508 106.944 159.508 107.368C159.508 107.888 159.296 108.304 158.872 108.616C158.448 108.928 157.872 109.084 157.144 109.084ZM161.057 111.592V104.656C161.057 104.376 161.049 104.096 161.033 103.816C161.025 103.528 161.001 103.244 160.961 102.964H161.885L161.993 104.212L161.897 104.392C162.033 103.888 162.293 103.5 162.677 103.228C163.061 102.956 163.525 102.82 164.069 102.82C164.597 102.82 165.061 102.952 165.461 103.216C165.869 103.48 166.185 103.848 166.409 104.32C166.641 104.792 166.757 105.344 166.757 105.976C166.757 106.608 166.641 107.16 166.409 107.632C166.185 108.096 165.873 108.456 165.473 108.712C165.073 108.96 164.605 109.084 164.069 109.084C163.525 109.084 163.061 108.948 162.677 108.676C162.293 108.404 162.033 108.016 161.897 107.512L162.029 107.392V111.592H161.057ZM163.889 108.28C164.473 108.28 164.929 108.08 165.257 107.68C165.585 107.28 165.749 106.712 165.749 105.976C165.749 105.24 165.585 104.668 165.257 104.26C164.929 103.844 164.473 103.636 163.889 103.636C163.289 103.636 162.829 103.836 162.509 104.236C162.189 104.636 162.029 105.208 162.029 105.952C162.029 106.696 162.189 107.272 162.509 107.68C162.829 108.08 163.289 108.28 163.889 108.28ZM170.748 109.084C170.172 109.084 169.668 108.956 169.236 108.7C168.812 108.444 168.48 108.084 168.24 107.62C168.008 107.148 167.892 106.592 167.892 105.952C167.892 105.32 168.008 104.768 168.24 104.296C168.48 103.824 168.812 103.46 169.236 103.204C169.668 102.948 170.172 102.82 170.748 102.82C171.324 102.82 171.824 102.948 172.248 103.204C172.68 103.46 173.012 103.824 173.244 104.296C173.484 104.768 173.604 105.32 173.604 105.952C173.604 106.592 173.484 107.148 173.244 107.62C173.012 108.084 172.68 108.444 172.248 108.7C171.824 108.956 171.324 109.084 170.748 109.084ZM170.748 108.28C171.34 108.28 171.796 108.084 172.116 107.692C172.444 107.292 172.608 106.712 172.608 105.952C172.608 105.208 172.444 104.636 172.116 104.236C171.788 103.836 171.332 103.636 170.748 103.636C170.164 103.636 169.704 103.836 169.368 104.236C169.04 104.636 168.876 105.208 168.876 105.952C168.876 106.712 169.036 107.292 169.356 107.692C169.684 108.084 170.148 108.28 170.748 108.28ZM175.12 109V104.656C175.12 104.376 175.112 104.096 175.096 103.816C175.088 103.528 175.064 103.244 175.024 102.964H175.948L176.056 104.212L175.936 104.308C176.104 103.82 176.384 103.452 176.776 103.204C177.168 102.948 177.62 102.82 178.132 102.82C179.58 102.82 180.304 103.616 180.304 105.208V109H179.332V105.256C179.332 104.696 179.22 104.288 178.996 104.032C178.772 103.768 178.42 103.636 177.94 103.636C177.38 103.636 176.932 103.808 176.596 104.152C176.26 104.496 176.092 104.96 176.092 105.544V109H175.12ZM184.179 109.084C183.163 109.084 182.359 108.824 181.767 108.304L182.091 107.584C182.411 107.832 182.739 108.016 183.075 108.136C183.419 108.248 183.799 108.304 184.215 108.304C184.671 108.304 185.015 108.228 185.247 108.076C185.487 107.916 185.607 107.688 185.607 107.392C185.607 107.152 185.527 106.964 185.367 106.828C185.207 106.684 184.943 106.568 184.575 106.48L183.555 106.24C183.051 106.128 182.659 105.928 182.379 105.64C182.107 105.352 181.971 105.008 181.971 104.608C181.971 104.256 182.067 103.948 182.259 103.684C182.451 103.412 182.719 103.2 183.063 103.048C183.407 102.896 183.815 102.82 184.287 102.82C184.711 102.82 185.111 102.888 185.487 103.024C185.863 103.16 186.179 103.356 186.435 103.612L186.111 104.32C185.823 104.08 185.527 103.904 185.223 103.792C184.927 103.672 184.615 103.612 184.287 103.612C183.855 103.612 183.519 103.696 183.279 103.864C183.047 104.032 182.931 104.26 182.931 104.548C182.931 104.796 183.003 104.992 183.147 105.136C183.299 105.28 183.539 105.392 183.867 105.472L184.887 105.724C185.455 105.844 185.871 106.044 186.135 106.324C186.407 106.596 186.543 106.944 186.543 107.368C186.543 107.888 186.331 108.304 185.907 108.616C185.483 108.928 184.907 109.084 184.179 109.084ZM193.036 108.28C192.772 108.528 192.432 108.724 192.016 108.868C191.608 109.012 191.188 109.084 190.756 109.084C190.132 109.084 189.592 108.96 189.136 108.712C188.688 108.464 188.34 108.108 188.092 107.644C187.852 107.172 187.732 106.612 187.732 105.964C187.732 105.34 187.852 104.792 188.092 104.32C188.332 103.848 188.664 103.48 189.088 103.216C189.52 102.952 190.016 102.82 190.576 102.82C191.112 102.82 191.572 102.94 191.956 103.18C192.34 103.412 192.632 103.748 192.832 104.188C193.04 104.628 193.144 105.156 193.144 105.772V105.952H188.584V105.316H192.592L192.28 105.76C192.296 105.056 192.156 104.516 191.86 104.14C191.572 103.764 191.148 103.576 190.588 103.576C190.004 103.576 189.544 103.784 189.208 104.2C188.88 104.608 188.716 105.176 188.716 105.904C188.716 106.688 188.888 107.28 189.232 107.68C189.584 108.08 190.096 108.28 190.768 108.28C191.12 108.28 191.456 108.224 191.776 108.112C192.104 107.992 192.416 107.812 192.712 107.572L193.036 108.28ZM196.66 109.084C195.644 109.084 194.84 108.824 194.248 108.304L194.572 107.584C194.892 107.832 195.22 108.016 195.556 108.136C195.9 108.248 196.28 108.304 196.696 108.304C197.152 108.304 197.496 108.228 197.728 108.076C197.968 107.916 198.088 107.688 198.088 107.392C198.088 107.152 198.008 106.964 197.848 106.828C197.688 106.684 197.424 106.568 197.056 106.48L196.036 106.24C195.532 106.128 195.14 105.928 194.86 105.64C194.588 105.352 194.452 105.008 194.452 104.608C194.452 104.256 194.548 103.948 194.74 103.684C194.932 103.412 195.2 103.2 195.544 103.048C195.888 102.896 196.296 102.82 196.768 102.82C197.192 102.82 197.592 102.888 197.968 103.024C198.344 103.16 198.66 103.356 198.916 103.612L198.592 104.32C198.304 104.08 198.008 103.904 197.704 103.792C197.408 103.672 197.096 103.612 196.768 103.612C196.336 103.612 196 103.696 195.76 103.864C195.528 104.032 195.412 104.26 195.412 104.548C195.412 104.796 195.484 104.992 195.628 105.136C195.78 105.28 196.02 105.392 196.348 105.472L197.368 105.724C197.936 105.844 198.352 106.044 198.616 106.324C198.888 106.596 199.024 106.944 199.024 107.368C199.024 107.888 198.812 108.304 198.388 108.616C197.964 108.928 197.388 109.084 196.66 109.084Z" fill="#9EA0A5"/>
</g>
<defs>
<filter id="filter0_d" x="0" y="0" width="421" height="289" filterUnits="userSpaceOnUse" color-interpolation-filters="sRGB">
<feFlood flood-opacity="0" result="BackgroundImageFix"/>
<feColorMatrix in="SourceAlpha" type="matrix" values="0 0 0 0 0 0 0 0 0 0 0 0 0 0 0 0 0 0 127 0"/>
<feOffset dy="18"/>
<feGaussianBlur stdDeviation="20"/>
<feColorMatrix type="matrix" values="0 0 0 0 0.176471 0 0 0 0 0.262745 0 0 0 0 0.47451 0 0 0 0.1 0"/>
<feBlend mode="normal" in2="BackgroundImageFix" result="effect1_dropShadow"/>
<feBlend mode="normal" in="SourceGraphic" in2="effect1_dropShadow" result="shape"/>
</filter>
<clipPath id="clip0">
<rect width="116" height="18" fill="white" transform="translate(246 35)"/>
</clipPath>
<clipPath id="clip1">
<rect width="23" height="71" fill="white" transform="translate(107.898 147)"/>
</clipPath>
<clipPath id="clip2">
<rect width="23" height="42" fill="white" transform="translate(152.699 176)"/>
</clipPath>
<clipPath id="clip3">
<rect width="23" height="73" fill="white" transform="translate(198.929 145)"/>
</clipPath>
<clipPath id="clip4">
<rect width="23" height="80" fill="white" transform="translate(242.301 138)"/>
</clipPath>
<clipPath id="clip5">
<rect width="23" height="68" fill="white" transform="translate(287.102 150)"/>
</clipPath>
<clipPath id="clip6">
<rect width="138.689" height="39" fill="white" transform="translate(59 74)"/>
</clipPath>
</defs>
</svg>
