<svg width="445" height="412" viewBox="0 0 445 412" fill="none" xmlns="http://www.w3.org/2000/svg">
<path d="M70.1083 67.9636C69.1096 67.9636 68.3443 68.2762 67.8123 68.9016C67.2896 69.5176 67.0283 70.3762 67.0283 71.4776C67.0283 72.0002 67.0889 72.4809 67.2103 72.9196C67.3409 73.3489 67.5276 73.7176 67.7703 74.0256C68.0223 74.3336 68.3303 74.5762 68.6943 74.7536C69.0676 74.9216 69.5016 75.0056 69.9963 75.0056C70.3043 75.0056 70.5703 74.9962 70.7943 74.9776C71.0183 74.9496 71.1956 74.9169 71.3263 74.8796V71.3936H73.0903V76.0556C72.8476 76.1489 72.4369 76.2516 71.8583 76.3636C71.2796 76.4756 70.6123 76.5316 69.8563 76.5316C69.1563 76.5316 68.5169 76.4196 67.9383 76.1956C67.3596 75.9716 66.8649 75.6449 66.4543 75.2156C66.0529 74.7862 65.7403 74.2589 65.5163 73.6336C65.2923 73.0082 65.1803 72.2896 65.1803 71.4776C65.1803 70.6656 65.3016 69.9469 65.5443 69.3216C65.7963 68.6962 66.1369 68.1689 66.5663 67.7396C66.9956 67.3009 67.4996 66.9696 68.0783 66.7456C68.6569 66.5216 69.2729 66.4096 69.9263 66.4096C70.3743 66.4096 70.7709 66.4422 71.1163 66.5076C71.4709 66.5636 71.7743 66.6289 72.0263 66.7036C72.2783 66.7782 72.4836 66.8576 72.6423 66.9416C72.8103 67.0256 72.9269 67.0862 72.9923 67.1236L72.4603 68.5656C72.1803 68.3976 71.8303 68.2576 71.4103 68.1456C70.9996 68.0242 70.5656 67.9636 70.1083 67.9636ZM79.2169 70.5396C79.0769 70.4929 78.8809 70.4462 78.6289 70.3996C78.3862 70.3436 78.1016 70.3156 77.7749 70.3156C77.5882 70.3156 77.3876 70.3342 77.1729 70.3716C76.9676 70.4089 76.8229 70.4416 76.7389 70.4696V76.3356H75.0449V69.3636C75.3716 69.2422 75.7776 69.1302 76.2629 69.0276C76.7576 68.9156 77.3036 68.8596 77.9009 68.8596C78.0129 68.8596 78.1436 68.8689 78.2929 68.8876C78.4422 68.8969 78.5916 68.9156 78.7409 68.9436C78.8902 68.9622 79.0349 68.9902 79.1749 69.0276C79.3149 69.0556 79.4269 69.0836 79.5109 69.1116L79.2169 70.5396ZM83.2674 75.1456C83.7901 75.1456 84.1867 75.1176 84.4574 75.0616V73.1856C84.3641 73.1576 84.2287 73.1296 84.0514 73.1016C83.8741 73.0736 83.6781 73.0596 83.4634 73.0596C83.2767 73.0596 83.0854 73.0736 82.8894 73.1016C82.7027 73.1296 82.5301 73.1809 82.3714 73.2556C82.2221 73.3302 82.1007 73.4376 82.0074 73.5776C81.9141 73.7082 81.8674 73.8762 81.8674 74.0816C81.8674 74.4829 81.9934 74.7629 82.2454 74.9216C82.4974 75.0709 82.8381 75.1456 83.2674 75.1456ZM83.1274 68.8316C83.6874 68.8316 84.1587 68.9016 84.5414 69.0416C84.9241 69.1816 85.2274 69.3776 85.4514 69.6296C85.6847 69.8816 85.8481 70.1896 85.9414 70.5536C86.0441 70.9082 86.0954 71.3002 86.0954 71.7296V76.1676C85.8341 76.2236 85.4374 76.2889 84.9054 76.3636C84.3827 76.4476 83.7901 76.4896 83.1274 76.4896C82.6887 76.4896 82.2874 76.4476 81.9234 76.3636C81.5594 76.2796 81.2467 76.1442 80.9854 75.9576C80.7334 75.7709 80.5327 75.5282 80.3834 75.2296C80.2434 74.9309 80.1734 74.5622 80.1734 74.1236C80.1734 73.7036 80.2527 73.3489 80.4114 73.0596C80.5794 72.7702 80.8034 72.5369 81.0834 72.3596C81.3634 72.1729 81.6854 72.0422 82.0494 71.9676C82.4227 71.8836 82.8101 71.8416 83.2114 71.8416C83.3981 71.8416 83.5941 71.8556 83.7994 71.8836C84.0047 71.9022 84.2241 71.9396 84.4574 71.9956V71.7156C84.4574 71.5196 84.4341 71.3329 84.3874 71.1556C84.3407 70.9782 84.2567 70.8242 84.1354 70.6936C84.0234 70.5536 83.8694 70.4462 83.6734 70.3716C83.4867 70.2969 83.2487 70.2596 82.9594 70.2596C82.5674 70.2596 82.2081 70.2876 81.8814 70.3436C81.5547 70.3996 81.2887 70.4649 81.0834 70.5396L80.8734 69.1676C81.0881 69.0929 81.4007 69.0182 81.8114 68.9436C82.2221 68.8689 82.6607 68.8316 83.1274 68.8316ZM92.3419 72.4856C92.3419 71.7202 92.2439 71.1696 92.0479 70.8336C91.8612 70.4882 91.5066 70.3156 90.9839 70.3156C90.7972 70.3156 90.5919 70.3296 90.3679 70.3576C90.1439 70.3856 89.9759 70.4089 89.8639 70.4276V76.3356H88.1699V69.2516C88.4966 69.1582 88.9212 69.0696 89.4439 68.9856C89.9759 68.9016 90.5359 68.8596 91.1239 68.8596C91.6279 68.8596 92.0386 68.9249 92.3559 69.0556C92.6826 69.1862 92.9532 69.3589 93.1679 69.5736C93.2706 69.4989 93.4012 69.4196 93.5599 69.3356C93.7186 69.2516 93.8959 69.1769 94.0919 69.1116C94.2879 69.0369 94.4932 68.9762 94.7079 68.9296C94.9319 68.8829 95.1559 68.8596 95.3799 68.8596C95.9492 68.8596 96.4159 68.9436 96.7799 69.1116C97.1532 69.2702 97.4426 69.4989 97.6479 69.7976C97.8626 70.0869 98.0072 70.4416 98.0819 70.8616C98.1659 71.2722 98.2079 71.7249 98.2079 72.2196V76.3356H96.5139V72.4856C96.5139 71.7202 96.4206 71.1696 96.2339 70.8336C96.0472 70.4882 95.6879 70.3156 95.1559 70.3156C94.8852 70.3156 94.6286 70.3622 94.3859 70.4556C94.1432 70.5396 93.9612 70.6236 93.8399 70.7076C93.9146 70.9409 93.9659 71.1882 93.9939 71.4496C94.0219 71.7109 94.0359 71.9909 94.0359 72.2896V76.3356H92.3419V72.4856ZM104.455 72.4856C104.455 71.7202 104.357 71.1696 104.161 70.8336C103.975 70.4882 103.62 70.3156 103.097 70.3156C102.911 70.3156 102.705 70.3296 102.481 70.3576C102.257 70.3856 102.089 70.4089 101.977 70.4276V76.3356H100.283V69.2516C100.61 69.1582 101.035 69.0696 101.557 68.9856C102.089 68.9016 102.649 68.8596 103.237 68.8596C103.741 68.8596 104.152 68.9249 104.469 69.0556C104.796 69.1862 105.067 69.3589 105.281 69.5736C105.384 69.4989 105.515 69.4196 105.673 69.3356C105.832 69.2516 106.009 69.1769 106.205 69.1116C106.401 69.0369 106.607 68.9762 106.821 68.9296C107.045 68.8829 107.269 68.8596 107.493 68.8596C108.063 68.8596 108.529 68.9436 108.893 69.1116C109.267 69.2702 109.556 69.4989 109.761 69.7976C109.976 70.0869 110.121 70.4416 110.195 70.8616C110.279 71.2722 110.321 71.7249 110.321 72.2196V76.3356H108.627V72.4856C108.627 71.7202 108.534 71.1696 108.347 70.8336C108.161 70.4882 107.801 70.3156 107.269 70.3156C106.999 70.3156 106.742 70.3622 106.499 70.4556C106.257 70.5396 106.075 70.6236 105.953 70.7076C106.028 70.9409 106.079 71.1882 106.107 71.4496C106.135 71.7109 106.149 71.9909 106.149 72.2896V76.3356H104.455V72.4856ZM114.972 75.1456C115.495 75.1456 115.892 75.1176 116.162 75.0616V73.1856C116.069 73.1576 115.934 73.1296 115.756 73.1016C115.579 73.0736 115.383 73.0596 115.168 73.0596C114.982 73.0596 114.79 73.0736 114.594 73.1016C114.408 73.1296 114.235 73.1809 114.076 73.2556C113.927 73.3302 113.806 73.4376 113.712 73.5776C113.619 73.7082 113.572 73.8762 113.572 74.0816C113.572 74.4829 113.698 74.7629 113.95 74.9216C114.202 75.0709 114.543 75.1456 114.972 75.1456ZM114.832 68.8316C115.392 68.8316 115.864 68.9016 116.246 69.0416C116.629 69.1816 116.932 69.3776 117.156 69.6296C117.39 69.8816 117.553 70.1896 117.646 70.5536C117.749 70.9082 117.8 71.3002 117.8 71.7296V76.1676C117.539 76.2236 117.142 76.2889 116.61 76.3636C116.088 76.4476 115.495 76.4896 114.832 76.4896C114.394 76.4896 113.992 76.4476 113.628 76.3636C113.264 76.2796 112.952 76.1442 112.69 75.9576C112.438 75.7709 112.238 75.5282 112.088 75.2296C111.948 74.9309 111.878 74.5622 111.878 74.1236C111.878 73.7036 111.958 73.3489 112.116 73.0596C112.284 72.7702 112.508 72.5369 112.788 72.3596C113.068 72.1729 113.39 72.0422 113.754 71.9676C114.128 71.8836 114.515 71.8416 114.916 71.8416C115.103 71.8416 115.299 71.8556 115.504 71.8836C115.71 71.9022 115.929 71.9396 116.162 71.9956V71.7156C116.162 71.5196 116.139 71.3329 116.092 71.1556C116.046 70.9782 115.962 70.8242 115.84 70.6936C115.728 70.5536 115.574 70.4462 115.378 70.3716C115.192 70.2969 114.954 70.2596 114.664 70.2596C114.272 70.2596 113.913 70.2876 113.586 70.3436C113.26 70.3996 112.994 70.4649 112.788 70.5396L112.578 69.1676C112.793 69.0929 113.106 69.0182 113.516 68.9436C113.927 68.8689 114.366 68.8316 114.832 68.8316ZM124.047 70.5396C123.907 70.4929 123.711 70.4462 123.459 70.3996C123.216 70.3436 122.932 70.3156 122.605 70.3156C122.418 70.3156 122.218 70.3342 122.003 70.3716C121.798 70.4089 121.653 70.4416 121.569 70.4696V76.3356H119.875V69.3636C120.202 69.2422 120.608 69.1302 121.093 69.0276C121.588 68.9156 122.134 68.8596 122.731 68.8596C122.843 68.8596 122.974 68.8689 123.123 68.8876C123.272 68.8969 123.422 68.9156 123.571 68.9436C123.72 68.9622 123.865 68.9902 124.005 69.0276C124.145 69.0556 124.257 69.0836 124.341 69.1116L124.047 70.5396Z" fill="#48728E"/>
<path d="M52.532 327.023C53.9413 327.023 55.0193 327.28 55.766 327.793C56.522 328.307 56.9 329.109 56.9 330.201C56.9 330.771 56.7973 331.261 56.592 331.671C56.396 332.073 56.1066 332.404 55.724 332.665C55.3413 332.917 54.8746 333.104 54.324 333.225C53.7733 333.347 53.1433 333.407 52.434 333.407H51.552V336.823H49.788V327.261C50.1986 327.168 50.6513 327.107 51.146 327.079C51.65 327.042 52.112 327.023 52.532 327.023ZM52.658 328.549C52.21 328.549 51.8413 328.563 51.552 328.591V331.895H52.406C53.2553 331.895 53.9086 331.779 54.366 331.545C54.8233 331.303 55.052 330.85 55.052 330.187C55.052 329.87 54.9913 329.604 54.87 329.389C54.7486 329.175 54.5806 329.007 54.366 328.885C54.1513 328.764 53.8946 328.68 53.596 328.633C53.3066 328.577 52.994 328.549 52.658 328.549ZM64.4326 336.599C64.106 336.683 63.6813 336.767 63.1586 336.851C62.636 336.945 62.062 336.991 61.4366 336.991C60.8486 336.991 60.354 336.907 59.9526 336.739C59.5606 336.571 59.2433 336.338 59.0006 336.039C58.7673 335.741 58.5993 335.386 58.4966 334.975C58.394 334.555 58.3426 334.098 58.3426 333.603V329.501H60.0366V333.337C60.0366 334.121 60.1486 334.681 60.3726 335.017C60.606 335.353 61.0073 335.521 61.5766 335.521C61.782 335.521 61.9966 335.512 62.2206 335.493C62.454 335.475 62.6266 335.451 62.7386 335.423V329.501H64.4326V336.599ZM66.5887 329.739C66.9154 329.646 67.3401 329.557 67.8627 329.473C68.3854 329.389 68.9641 329.347 69.5987 329.347C70.1961 329.347 70.6954 329.431 71.0967 329.599C71.4981 329.758 71.8154 329.987 72.0487 330.285C72.2914 330.575 72.4594 330.929 72.5527 331.349C72.6554 331.76 72.7067 332.213 72.7067 332.707V336.823H71.0127V332.973C71.0127 332.581 70.9847 332.25 70.9287 331.979C70.8821 331.699 70.7981 331.475 70.6767 331.307C70.5647 331.13 70.4061 331.004 70.2007 330.929C70.0047 330.845 69.7621 330.803 69.4727 330.803C69.2581 330.803 69.0341 330.817 68.8007 330.845C68.5674 330.873 68.3947 330.897 68.2827 330.915V336.823H66.5887V329.739ZM74.3722 333.169C74.3722 332.628 74.4562 332.124 74.6242 331.657C74.7922 331.181 75.0302 330.771 75.3382 330.425C75.6555 330.08 76.0382 329.809 76.4862 329.613C76.9342 329.417 77.4382 329.319 77.9982 329.319C78.6889 329.319 79.3422 329.445 79.9582 329.697L79.5942 331.083C79.3982 330.999 79.1742 330.929 78.9222 330.873C78.6795 330.817 78.4182 330.789 78.1382 330.789C77.4755 330.789 76.9715 330.999 76.6262 331.419C76.2809 331.83 76.1082 332.413 76.1082 333.169C76.1082 333.897 76.2715 334.476 76.5982 334.905C76.9249 335.325 77.4755 335.535 78.2502 335.535C78.5395 335.535 78.8242 335.507 79.1042 335.451C79.3842 335.395 79.6269 335.325 79.8322 335.241L80.0702 336.641C79.8835 336.735 79.5989 336.819 79.2162 336.893C78.8429 336.968 78.4555 337.005 78.0542 337.005C77.4289 337.005 76.8829 336.912 76.4162 336.725C75.9589 336.529 75.5762 336.263 75.2682 335.927C74.9695 335.582 74.7455 335.176 74.5962 334.709C74.4469 334.233 74.3722 333.72 74.3722 333.169ZM81.2977 327.569L82.9917 327.289V329.501H85.5957V330.915H82.9917V333.897C82.9917 334.485 83.085 334.905 83.2717 335.157C83.4584 335.409 83.7757 335.535 84.2237 335.535C84.5317 335.535 84.8024 335.503 85.0357 335.437C85.2784 335.372 85.4697 335.311 85.6097 335.255L85.8897 336.599C85.6937 336.683 85.437 336.767 85.1197 336.851C84.8024 336.945 84.429 336.991 83.9997 336.991C83.477 336.991 83.0384 336.921 82.6837 336.781C82.3384 336.641 82.063 336.441 81.8577 336.179C81.6524 335.909 81.5077 335.587 81.4237 335.213C81.3397 334.831 81.2977 334.397 81.2977 333.911V327.569ZM93.2393 336.599C92.9126 336.683 92.4879 336.767 91.9653 336.851C91.4426 336.945 90.8686 336.991 90.2433 336.991C89.6553 336.991 89.1606 336.907 88.7593 336.739C88.3673 336.571 88.0499 336.338 87.8073 336.039C87.5739 335.741 87.4059 335.386 87.3033 334.975C87.2006 334.555 87.1493 334.098 87.1493 333.603V329.501H88.8433V333.337C88.8433 334.121 88.9553 334.681 89.1793 335.017C89.4126 335.353 89.8139 335.521 90.3833 335.521C90.5886 335.521 90.8033 335.512 91.0273 335.493C91.2606 335.475 91.4333 335.451 91.5453 335.423V329.501H93.2393V336.599ZM97.9714 335.633C98.494 335.633 98.8907 335.605 99.1614 335.549V333.673C99.068 333.645 98.9327 333.617 98.7554 333.589C98.578 333.561 98.382 333.547 98.1674 333.547C97.9807 333.547 97.7894 333.561 97.5934 333.589C97.4067 333.617 97.234 333.669 97.0754 333.743C96.926 333.818 96.8047 333.925 96.7114 334.065C96.618 334.196 96.5714 334.364 96.5714 334.569C96.5714 334.971 96.6974 335.251 96.9494 335.409C97.2014 335.559 97.542 335.633 97.9714 335.633ZM97.8314 329.319C98.3914 329.319 98.8627 329.389 99.2454 329.529C99.628 329.669 99.9314 329.865 100.155 330.117C100.389 330.369 100.552 330.677 100.645 331.041C100.748 331.396 100.799 331.788 100.799 332.217V336.655C100.538 336.711 100.141 336.777 99.6094 336.851C99.0867 336.935 98.494 336.977 97.8314 336.977C97.3927 336.977 96.9914 336.935 96.6274 336.851C96.2634 336.767 95.9507 336.632 95.6894 336.445C95.4374 336.259 95.2367 336.016 95.0874 335.717C94.9474 335.419 94.8774 335.05 94.8774 334.611C94.8774 334.191 94.9567 333.837 95.1154 333.547C95.2834 333.258 95.5074 333.025 95.7874 332.847C96.0674 332.661 96.3894 332.53 96.7534 332.455C97.1267 332.371 97.514 332.329 97.9154 332.329C98.102 332.329 98.298 332.343 98.5034 332.371C98.7087 332.39 98.928 332.427 99.1614 332.483V332.203C99.1614 332.007 99.138 331.821 99.0914 331.643C99.0447 331.466 98.9607 331.312 98.8394 331.181C98.7274 331.041 98.5734 330.934 98.3774 330.859C98.1907 330.785 97.9527 330.747 97.6634 330.747C97.2714 330.747 96.912 330.775 96.5854 330.831C96.2587 330.887 95.9927 330.953 95.7874 331.027L95.5774 329.655C95.792 329.581 96.1047 329.506 96.5154 329.431C96.926 329.357 97.3647 329.319 97.8314 329.319ZM102.79 327.569L104.484 327.289V329.501H107.088V330.915H104.484V333.897C104.484 334.485 104.577 334.905 104.764 335.157C104.951 335.409 105.268 335.535 105.716 335.535C106.024 335.535 106.295 335.503 106.528 335.437C106.771 335.372 106.962 335.311 107.102 335.255L107.382 336.599C107.186 336.683 106.929 336.767 106.612 336.851C106.295 336.945 105.921 336.991 105.492 336.991C104.969 336.991 104.531 336.921 104.176 336.781C103.831 336.641 103.555 336.441 103.35 336.179C103.145 335.909 103 335.587 102.916 335.213C102.832 334.831 102.79 334.397 102.79 333.911V327.569ZM110.433 336.823H108.739V329.501H110.433V336.823ZM110.615 327.359C110.615 327.677 110.513 327.929 110.307 328.115C110.102 328.302 109.859 328.395 109.579 328.395C109.29 328.395 109.043 328.302 108.837 328.115C108.632 327.929 108.529 327.677 108.529 327.359C108.529 327.033 108.632 326.776 108.837 326.589C109.043 326.403 109.29 326.309 109.579 326.309C109.859 326.309 110.102 326.403 110.307 326.589C110.513 326.776 110.615 327.033 110.615 327.359ZM119.217 333.155C119.217 333.734 119.133 334.261 118.965 334.737C118.797 335.213 118.559 335.619 118.251 335.955C117.943 336.291 117.569 336.553 117.131 336.739C116.701 336.926 116.225 337.019 115.703 337.019C115.18 337.019 114.704 336.926 114.275 336.739C113.845 336.553 113.477 336.291 113.169 335.955C112.861 335.619 112.618 335.213 112.441 334.737C112.273 334.261 112.189 333.734 112.189 333.155C112.189 332.577 112.273 332.054 112.441 331.587C112.618 331.111 112.861 330.705 113.169 330.369C113.486 330.033 113.859 329.777 114.289 329.599C114.718 329.413 115.189 329.319 115.703 329.319C116.216 329.319 116.687 329.413 117.117 329.599C117.555 329.777 117.929 330.033 118.237 330.369C118.545 330.705 118.783 331.111 118.951 331.587C119.128 332.054 119.217 332.577 119.217 333.155ZM117.481 333.155C117.481 332.427 117.322 331.853 117.005 331.433C116.697 331.004 116.263 330.789 115.703 330.789C115.143 330.789 114.704 331.004 114.387 331.433C114.079 331.853 113.925 332.427 113.925 333.155C113.925 333.893 114.079 334.476 114.387 334.905C114.704 335.335 115.143 335.549 115.703 335.549C116.263 335.549 116.697 335.335 117.005 334.905C117.322 334.476 117.481 333.893 117.481 333.155ZM120.962 329.739C121.288 329.646 121.713 329.557 122.236 329.473C122.758 329.389 123.337 329.347 123.972 329.347C124.569 329.347 125.068 329.431 125.47 329.599C125.871 329.758 126.188 329.987 126.422 330.285C126.664 330.575 126.832 330.929 126.926 331.349C127.028 331.76 127.08 332.213 127.08 332.707V336.823H125.386V332.973C125.386 332.581 125.358 332.25 125.302 331.979C125.255 331.699 125.171 331.475 125.05 331.307C124.938 331.13 124.779 331.004 124.574 330.929C124.378 330.845 124.135 330.803 123.846 330.803C123.631 330.803 123.407 330.817 123.174 330.845C122.94 330.873 122.768 330.897 122.656 330.915V336.823H120.962V329.739Z" fill="#48728E"/>
<path d="M7.3979 207.665V197.963H13.5299V199.461H9.1619V201.939H13.0399V203.437H9.1619V207.665H7.3979ZM17.5728 207.805C17.0688 207.796 16.6488 207.74 16.3128 207.637C15.9862 207.534 15.7248 207.39 15.5288 207.203C15.3328 207.007 15.1928 206.769 15.1088 206.489C15.0342 206.2 14.9968 205.873 14.9968 205.509V197.081L16.6908 196.801V205.187C16.6908 205.392 16.7048 205.565 16.7328 205.705C16.7702 205.845 16.8308 205.966 16.9148 206.069C16.9988 206.162 17.1108 206.237 17.2508 206.293C17.4002 206.34 17.5868 206.377 17.8108 206.405L17.5728 207.805ZM25.1871 207.441C24.8604 207.525 24.4358 207.609 23.9131 207.693C23.3904 207.786 22.8164 207.833 22.1911 207.833C21.6031 207.833 21.1084 207.749 20.7071 207.581C20.3151 207.413 19.9978 207.18 19.7551 206.881C19.5218 206.582 19.3538 206.228 19.2511 205.817C19.1484 205.397 19.0971 204.94 19.0971 204.445V200.343H20.7911V204.179C20.7911 204.963 20.9031 205.523 21.1271 205.859C21.3604 206.195 21.7618 206.363 22.3311 206.363C22.5364 206.363 22.7511 206.354 22.9751 206.335C23.2084 206.316 23.3811 206.293 23.4931 206.265V200.343H25.1871V207.441ZM26.9372 204.039C26.9372 203.395 27.0305 202.83 27.2172 202.345C27.4132 201.86 27.6699 201.458 27.9872 201.141C28.3045 200.814 28.6685 200.572 29.0792 200.413C29.4899 200.245 29.9099 200.161 30.3392 200.161C31.3472 200.161 32.1312 200.474 32.6912 201.099C33.2605 201.724 33.5452 202.658 33.5452 203.899C33.5452 203.992 33.5405 204.1 33.5312 204.221C33.5312 204.333 33.5265 204.436 33.5172 204.529H28.6872C28.7339 205.117 28.9392 205.574 29.3032 205.901C29.6765 206.218 30.2132 206.377 30.9132 206.377C31.3239 206.377 31.6972 206.34 32.0332 206.265C32.3785 206.19 32.6492 206.111 32.8452 206.027L33.0692 207.413C32.9759 207.46 32.8452 207.511 32.6772 207.567C32.5185 207.614 32.3319 207.656 32.1172 207.693C31.9119 207.74 31.6879 207.777 31.4452 207.805C31.2025 207.833 30.9552 207.847 30.7032 207.847C30.0592 207.847 29.4992 207.754 29.0232 207.567C28.5472 207.371 28.1552 207.105 27.8472 206.769C27.5392 206.424 27.3105 206.022 27.1612 205.565C27.0119 205.098 26.9372 204.59 26.9372 204.039ZM31.8512 203.283C31.8512 203.05 31.8185 202.83 31.7532 202.625C31.6879 202.41 31.5899 202.228 31.4592 202.079C31.3379 201.92 31.1839 201.799 30.9972 201.715C30.8199 201.622 30.6052 201.575 30.3532 201.575C30.0919 201.575 29.8632 201.626 29.6672 201.729C29.4712 201.822 29.3032 201.948 29.1632 202.107C29.0325 202.266 28.9299 202.448 28.8552 202.653C28.7805 202.858 28.7292 203.068 28.7012 203.283H31.8512ZM35.3412 200.581C35.6679 200.488 36.0926 200.399 36.6152 200.315C37.1379 200.231 37.7166 200.189 38.3512 200.189C38.9486 200.189 39.4479 200.273 39.8492 200.441C40.2506 200.6 40.5679 200.828 40.8012 201.127C41.0439 201.416 41.2119 201.771 41.3052 202.191C41.4079 202.602 41.4592 203.054 41.4592 203.549V207.665H39.7652V203.815C39.7652 203.423 39.7372 203.092 39.6812 202.821C39.6346 202.541 39.5506 202.317 39.4292 202.149C39.3172 201.972 39.1586 201.846 38.9532 201.771C38.7572 201.687 38.5146 201.645 38.2252 201.645C38.0106 201.645 37.7866 201.659 37.5532 201.687C37.3199 201.715 37.1472 201.738 37.0352 201.757V207.665H35.3412V200.581ZM43.1247 204.011C43.1247 203.47 43.2087 202.966 43.3767 202.499C43.5447 202.023 43.7827 201.612 44.0907 201.267C44.408 200.922 44.7907 200.651 45.2387 200.455C45.6867 200.259 46.1907 200.161 46.7507 200.161C47.4414 200.161 48.0947 200.287 48.7107 200.539L48.3467 201.925C48.1507 201.841 47.9267 201.771 47.6747 201.715C47.432 201.659 47.1707 201.631 46.8907 201.631C46.228 201.631 45.724 201.841 45.3787 202.261C45.0334 202.672 44.8607 203.255 44.8607 204.011C44.8607 204.739 45.024 205.318 45.3507 205.747C45.6774 206.167 46.228 206.377 47.0027 206.377C47.292 206.377 47.5767 206.349 47.8567 206.293C48.1367 206.237 48.3794 206.167 48.5847 206.083L48.8227 207.483C48.636 207.576 48.3514 207.66 47.9687 207.735C47.5954 207.81 47.208 207.847 46.8067 207.847C46.1814 207.847 45.6354 207.754 45.1687 207.567C44.7114 207.371 44.3287 207.105 44.0207 206.769C43.722 206.424 43.498 206.018 43.3487 205.551C43.1994 205.075 43.1247 204.562 43.1247 204.011ZM56.2353 200.343C55.4793 203.124 54.6019 205.644 53.6033 207.903C53.4166 208.323 53.2253 208.682 53.0293 208.981C52.8333 209.28 52.6139 209.527 52.3713 209.723C52.1286 209.919 51.8579 210.059 51.5593 210.143C51.2606 210.236 50.9153 210.283 50.5233 210.283C50.2619 210.283 50.0006 210.255 49.7393 210.199C49.4873 210.143 49.2959 210.082 49.1653 210.017L49.4733 208.659C49.8093 208.79 50.1406 208.855 50.4673 208.855C50.9059 208.855 51.2466 208.748 51.4893 208.533C51.7413 208.328 51.9606 208.006 52.1473 207.567C51.6153 206.54 51.1019 205.42 50.6073 204.207C50.1219 202.994 49.6879 201.706 49.3053 200.343H51.1113C51.2046 200.735 51.3166 201.16 51.4473 201.617C51.5873 202.074 51.7366 202.541 51.8953 203.017C52.0539 203.484 52.2219 203.95 52.3993 204.417C52.5766 204.884 52.7539 205.318 52.9313 205.719C53.2299 204.888 53.5099 204.006 53.7713 203.073C54.0326 202.13 54.2706 201.22 54.4853 200.343H56.2353Z" fill="#48728E"/>
<path d="M333.534 66.6336V68.1596H330.552V76.3356H328.774V68.1596H325.792V66.6336H333.534ZM333.624 72.7096C333.624 72.0656 333.717 71.5009 333.904 71.0156C334.1 70.5302 334.356 70.1289 334.674 69.8116C334.991 69.4849 335.355 69.2422 335.766 69.0836C336.176 68.9156 336.596 68.8316 337.026 68.8316C338.034 68.8316 338.818 69.1442 339.378 69.7696C339.947 70.3949 340.232 71.3282 340.232 72.5696C340.232 72.6629 340.227 72.7702 340.218 72.8916C340.218 73.0036 340.213 73.1062 340.204 73.1996H335.374C335.42 73.7876 335.626 74.2449 335.99 74.5716C336.363 74.8889 336.9 75.0476 337.6 75.0476C338.01 75.0476 338.384 75.0102 338.72 74.9356C339.065 74.8609 339.336 74.7816 339.532 74.6976L339.756 76.0836C339.662 76.1302 339.532 76.1816 339.364 76.2376C339.205 76.2842 339.018 76.3262 338.804 76.3636C338.598 76.4102 338.374 76.4476 338.132 76.4756C337.889 76.5036 337.642 76.5176 337.39 76.5176C336.746 76.5176 336.186 76.4242 335.71 76.2376C335.234 76.0416 334.842 75.7756 334.534 75.4396C334.226 75.0942 333.997 74.6929 333.848 74.2356C333.698 73.7689 333.624 73.2602 333.624 72.7096ZM338.538 71.9536C338.538 71.7202 338.505 71.5009 338.44 71.2956C338.374 71.0809 338.276 70.8989 338.146 70.7496C338.024 70.5909 337.87 70.4696 337.684 70.3856C337.506 70.2922 337.292 70.2456 337.04 70.2456C336.778 70.2456 336.55 70.2969 336.354 70.3996C336.158 70.4929 335.99 70.6189 335.85 70.7776C335.719 70.9362 335.616 71.1182 335.542 71.3236C335.467 71.5289 335.416 71.7389 335.388 71.9536H338.538ZM346.2 70.5396C346.06 70.4929 345.864 70.4462 345.612 70.3996C345.369 70.3436 345.084 70.3156 344.758 70.3156C344.571 70.3156 344.37 70.3342 344.156 70.3716C343.95 70.4089 343.806 70.4416 343.722 70.4696V76.3356H342.028V69.3636C342.354 69.2422 342.76 69.1302 343.246 69.0276C343.74 68.9156 344.286 68.8596 344.884 68.8596C344.996 68.8596 345.126 68.8689 345.276 68.8876C345.425 68.8969 345.574 68.9156 345.724 68.9436C345.873 68.9622 346.018 68.9902 346.158 69.0276C346.298 69.0556 346.41 69.0836 346.494 69.1116L346.2 70.5396ZM351.846 72.4856C351.846 71.7202 351.748 71.1696 351.552 70.8336C351.366 70.4882 351.011 70.3156 350.488 70.3156C350.302 70.3156 350.096 70.3296 349.872 70.3576C349.648 70.3856 349.48 70.4089 349.368 70.4276V76.3356H347.674V69.2516C348.001 69.1582 348.426 69.0696 348.948 68.9856C349.48 68.9016 350.04 68.8596 350.628 68.8596C351.132 68.8596 351.543 68.9249 351.86 69.0556C352.187 69.1862 352.458 69.3589 352.672 69.5736C352.775 69.4989 352.906 69.4196 353.064 69.3356C353.223 69.2516 353.4 69.1769 353.596 69.1116C353.792 69.0369 353.998 68.9762 354.212 68.9296C354.436 68.8829 354.66 68.8596 354.884 68.8596C355.454 68.8596 355.92 68.9436 356.284 69.1116C356.658 69.2702 356.947 69.4989 357.152 69.7976C357.367 70.0869 357.512 70.4416 357.586 70.8616C357.67 71.2722 357.712 71.7249 357.712 72.2196V76.3356H356.018V72.4856C356.018 71.7202 355.925 71.1696 355.738 70.8336C355.552 70.4882 355.192 70.3156 354.66 70.3156C354.39 70.3156 354.133 70.3622 353.89 70.4556C353.648 70.5396 353.466 70.6236 353.344 70.7076C353.419 70.9409 353.47 71.1882 353.498 71.4496C353.526 71.7109 353.54 71.9909 353.54 72.2896V76.3356H351.846V72.4856ZM361.495 76.3356H359.801V69.0136H361.495V76.3356ZM361.677 66.8716C361.677 67.1889 361.575 67.4409 361.369 67.6276C361.164 67.8142 360.921 67.9076 360.641 67.9076C360.352 67.9076 360.105 67.8142 359.899 67.6276C359.694 67.4409 359.591 67.1889 359.591 66.8716C359.591 66.5449 359.694 66.2882 359.899 66.1016C360.105 65.9149 360.352 65.8216 360.641 65.8216C360.921 65.8216 361.164 65.9149 361.369 66.1016C361.575 66.2882 361.677 66.5449 361.677 66.8716ZM363.657 69.2516C363.983 69.1582 364.408 69.0696 364.931 68.9856C365.453 68.9016 366.032 68.8596 366.667 68.8596C367.264 68.8596 367.763 68.9436 368.165 69.1116C368.566 69.2702 368.883 69.4989 369.117 69.7976C369.359 70.0869 369.527 70.4416 369.621 70.8616C369.723 71.2722 369.775 71.7249 369.775 72.2196V76.3356H368.081V72.4856C368.081 72.0936 368.053 71.7622 367.997 71.4916C367.95 71.2116 367.866 70.9876 367.745 70.8196C367.633 70.6422 367.474 70.5162 367.269 70.4416C367.073 70.3576 366.83 70.3156 366.541 70.3156C366.326 70.3156 366.102 70.3296 365.869 70.3576C365.635 70.3856 365.463 70.4089 365.351 70.4276V76.3356H363.657V69.2516ZM378.468 72.6676C378.468 73.2462 378.384 73.7736 378.216 74.2496C378.048 74.7256 377.81 75.1316 377.502 75.4676C377.194 75.8036 376.821 76.0649 376.382 76.2516C375.953 76.4382 375.477 76.5316 374.954 76.5316C374.431 76.5316 373.955 76.4382 373.526 76.2516C373.097 76.0649 372.728 75.8036 372.42 75.4676C372.112 75.1316 371.869 74.7256 371.692 74.2496C371.524 73.7736 371.44 73.2462 371.44 72.6676C371.44 72.0889 371.524 71.5662 371.692 71.0996C371.869 70.6236 372.112 70.2176 372.42 69.8816C372.737 69.5456 373.111 69.2889 373.54 69.1116C373.969 68.9249 374.441 68.8316 374.954 68.8316C375.467 68.8316 375.939 68.9249 376.368 69.1116C376.807 69.2889 377.18 69.5456 377.488 69.8816C377.796 70.2176 378.034 70.6236 378.202 71.0996C378.379 71.5662 378.468 72.0889 378.468 72.6676ZM376.732 72.6676C376.732 71.9396 376.573 71.3656 376.256 70.9456C375.948 70.5162 375.514 70.3016 374.954 70.3016C374.394 70.3016 373.955 70.5162 373.638 70.9456C373.33 71.3656 373.176 71.9396 373.176 72.6676C373.176 73.4049 373.33 73.9882 373.638 74.4176C373.955 74.8469 374.394 75.0616 374.954 75.0616C375.514 75.0616 375.948 74.8469 376.256 74.4176C376.573 73.9882 376.732 73.4049 376.732 72.6676ZM382.761 76.4756C382.257 76.4662 381.837 76.4102 381.501 76.3076C381.175 76.2049 380.913 76.0602 380.717 75.8736C380.521 75.6776 380.381 75.4396 380.297 75.1596C380.223 74.8702 380.185 74.5436 380.185 74.1796V65.7516L381.879 65.4716V73.8576C381.879 74.0629 381.893 74.2356 381.921 74.3756C381.959 74.5156 382.019 74.6369 382.103 74.7396C382.187 74.8329 382.299 74.9076 382.439 74.9636C382.589 75.0102 382.775 75.0476 382.999 75.0756L382.761 76.4756ZM390.992 72.6676C390.992 73.2462 390.908 73.7736 390.74 74.2496C390.572 74.7256 390.334 75.1316 390.026 75.4676C389.718 75.8036 389.344 76.0649 388.906 76.2516C388.476 76.4382 388 76.5316 387.478 76.5316C386.955 76.5316 386.479 76.4382 386.05 76.2516C385.62 76.0649 385.252 75.8036 384.944 75.4676C384.636 75.1316 384.393 74.7256 384.216 74.2496C384.048 73.7736 383.964 73.2462 383.964 72.6676C383.964 72.0889 384.048 71.5662 384.216 71.0996C384.393 70.6236 384.636 70.2176 384.944 69.8816C385.261 69.5456 385.634 69.2889 386.064 69.1116C386.493 68.9249 386.964 68.8316 387.478 68.8316C387.991 68.8316 388.462 68.9249 388.892 69.1116C389.33 69.2889 389.704 69.5456 390.012 69.8816C390.32 70.2176 390.558 70.6236 390.726 71.0996C390.903 71.5662 390.992 72.0889 390.992 72.6676ZM389.256 72.6676C389.256 71.9396 389.097 71.3656 388.78 70.9456C388.472 70.5162 388.038 70.3016 387.478 70.3016C386.918 70.3016 386.479 70.5162 386.162 70.9456C385.854 71.3656 385.7 71.9396 385.7 72.6676C385.7 73.4049 385.854 73.9882 386.162 74.4176C386.479 74.8469 386.918 75.0616 387.478 75.0616C388.038 75.0616 388.472 74.8469 388.78 74.4176C389.097 73.9882 389.256 73.4049 389.256 72.6676ZM394.067 72.4856C394.067 73.2042 394.221 73.7316 394.529 74.0676C394.846 74.3942 395.252 74.5576 395.747 74.5576C396.017 74.5576 396.269 74.5202 396.503 74.4456C396.745 74.3709 396.941 74.2822 397.091 74.1796V70.3856C396.969 70.3576 396.82 70.3342 396.643 70.3156C396.465 70.2876 396.241 70.2736 395.971 70.2736C395.355 70.2736 394.883 70.4789 394.557 70.8896C394.23 71.2909 394.067 71.8229 394.067 72.4856ZM398.785 75.5936C398.785 76.7602 398.486 77.6142 397.889 78.1556C397.301 78.6969 396.395 78.9676 395.173 78.9676C394.725 78.9676 394.286 78.9302 393.857 78.8556C393.437 78.7809 393.054 78.6829 392.709 78.5616L393.017 77.1196C393.306 77.2409 393.633 77.3389 393.997 77.4136C394.37 77.4882 394.771 77.5256 395.201 77.5256C395.882 77.5256 396.367 77.3856 396.657 77.1056C396.946 76.8256 397.091 76.4102 397.091 75.8596V75.5796C396.923 75.6636 396.699 75.7476 396.419 75.8316C396.148 75.9156 395.835 75.9576 395.481 75.9576C395.014 75.9576 394.585 75.8829 394.193 75.7336C393.81 75.5842 393.479 75.3649 393.199 75.0756C392.928 74.7862 392.713 74.4269 392.555 73.9976C392.405 73.5589 392.331 73.0549 392.331 72.4856C392.331 71.9536 392.41 71.4636 392.569 71.0156C392.737 70.5676 392.975 70.1849 393.283 69.8676C393.6 69.5502 393.983 69.3029 394.431 69.1256C394.879 68.9482 395.387 68.8596 395.957 68.8596C396.507 68.8596 397.03 68.9016 397.525 68.9856C398.019 69.0696 398.439 69.1582 398.785 69.2516V75.5936ZM406.918 69.0136C406.162 71.7949 405.284 74.3149 404.286 76.5736C404.099 76.9936 403.908 77.3529 403.712 77.6516C403.516 77.9502 403.296 78.1976 403.054 78.3936C402.811 78.5896 402.54 78.7296 402.242 78.8136C401.943 78.9069 401.598 78.9536 401.206 78.9536C400.944 78.9536 400.683 78.9256 400.422 78.8696C400.17 78.8136 399.978 78.7529 399.848 78.6876L400.156 77.3296C400.492 77.4602 400.823 77.5256 401.15 77.5256C401.588 77.5256 401.929 77.4182 402.172 77.2036C402.424 76.9982 402.643 76.6762 402.83 76.2376C402.298 75.2109 401.784 74.0909 401.29 72.8776C400.804 71.6642 400.37 70.3762 399.988 69.0136H401.794C401.887 69.4056 401.999 69.8302 402.13 70.2876C402.27 70.7449 402.419 71.2116 402.578 71.6876C402.736 72.1542 402.904 72.6209 403.082 73.0876C403.259 73.5542 403.436 73.9882 403.614 74.3896C403.912 73.5589 404.192 72.6769 404.454 71.7436C404.715 70.8009 404.953 69.8909 405.168 69.0136H406.918Z" fill="#48728E"/>
<path d="M333.212 336.823C333.081 336.441 332.946 336.063 332.806 335.689C332.666 335.316 332.531 334.933 332.4 334.541H328.312C328.181 334.933 328.046 335.321 327.906 335.703C327.775 336.077 327.645 336.45 327.514 336.823H325.68C326.044 335.787 326.389 334.831 326.716 333.953C327.043 333.076 327.36 332.245 327.668 331.461C327.985 330.677 328.298 329.931 328.606 329.221C328.914 328.512 329.231 327.812 329.558 327.121H331.224C331.551 327.812 331.868 328.512 332.176 329.221C332.484 329.931 332.792 330.677 333.1 331.461C333.417 332.245 333.739 333.076 334.066 333.953C334.402 334.831 334.752 335.787 335.116 336.823H333.212ZM330.356 328.997C330.141 329.492 329.894 330.094 329.614 330.803C329.343 331.513 329.059 332.283 328.76 333.113H331.952C331.653 332.283 331.364 331.508 331.084 330.789C330.804 330.071 330.561 329.473 330.356 328.997ZM335.661 333.169C335.661 332.628 335.745 332.124 335.913 331.657C336.081 331.181 336.319 330.771 336.627 330.425C336.944 330.08 337.327 329.809 337.775 329.613C338.223 329.417 338.727 329.319 339.287 329.319C339.977 329.319 340.631 329.445 341.247 329.697L340.883 331.083C340.687 330.999 340.463 330.929 340.211 330.873C339.968 330.817 339.707 330.789 339.427 330.789C338.764 330.789 338.26 330.999 337.915 331.419C337.569 331.83 337.397 332.413 337.397 333.169C337.397 333.897 337.56 334.476 337.887 334.905C338.213 335.325 338.764 335.535 339.539 335.535C339.828 335.535 340.113 335.507 340.393 335.451C340.673 335.395 340.915 335.325 341.121 335.241L341.359 336.641C341.172 336.735 340.887 336.819 340.505 336.893C340.131 336.968 339.744 337.005 339.343 337.005C338.717 337.005 338.171 336.912 337.705 336.725C337.247 336.529 336.865 336.263 336.557 335.927C336.258 335.582 336.034 335.176 335.885 334.709C335.735 334.233 335.661 333.72 335.661 333.169ZM342.264 333.169C342.264 332.628 342.348 332.124 342.516 331.657C342.684 331.181 342.922 330.771 343.23 330.425C343.548 330.08 343.93 329.809 344.378 329.613C344.826 329.417 345.33 329.319 345.89 329.319C346.581 329.319 347.234 329.445 347.85 329.697L347.486 331.083C347.29 330.999 347.066 330.929 346.814 330.873C346.572 330.817 346.31 330.789 346.03 330.789C345.368 330.789 344.864 330.999 344.518 331.419C344.173 331.83 344 332.413 344 333.169C344 333.897 344.164 334.476 344.49 334.905C344.817 335.325 345.368 335.535 346.142 335.535C346.432 335.535 346.716 335.507 346.996 335.451C347.276 335.395 347.519 335.325 347.724 335.241L347.962 336.641C347.776 336.735 347.491 336.819 347.108 336.893C346.735 336.968 346.348 337.005 345.946 337.005C345.321 337.005 344.775 336.912 344.308 336.725C343.851 336.529 343.468 336.263 343.16 335.927C342.862 335.582 342.638 335.176 342.488 334.709C342.339 334.233 342.264 333.72 342.264 333.169ZM355.28 336.599C354.953 336.683 354.528 336.767 354.006 336.851C353.483 336.945 352.909 336.991 352.284 336.991C351.696 336.991 351.201 336.907 350.8 336.739C350.408 336.571 350.09 336.338 349.848 336.039C349.614 335.741 349.446 335.386 349.344 334.975C349.241 334.555 349.19 334.098 349.19 333.603V329.501H350.884V333.337C350.884 334.121 350.996 334.681 351.22 335.017C351.453 335.353 351.854 335.521 352.424 335.521C352.629 335.521 352.844 335.512 353.068 335.493C353.301 335.475 353.474 335.451 353.586 335.423V329.501H355.28V336.599ZM361.608 331.027C361.468 330.981 361.272 330.934 361.02 330.887C360.777 330.831 360.493 330.803 360.166 330.803C359.979 330.803 359.779 330.822 359.564 330.859C359.359 330.897 359.214 330.929 359.13 330.957V336.823H357.436V329.851C357.763 329.73 358.169 329.618 358.654 329.515C359.149 329.403 359.695 329.347 360.292 329.347C360.404 329.347 360.535 329.357 360.684 329.375C360.833 329.385 360.983 329.403 361.132 329.431C361.281 329.45 361.426 329.478 361.566 329.515C361.706 329.543 361.818 329.571 361.902 329.599L361.608 331.027ZM365.658 335.633C366.181 335.633 366.578 335.605 366.848 335.549V333.673C366.755 333.645 366.62 333.617 366.442 333.589C366.265 333.561 366.069 333.547 365.854 333.547C365.668 333.547 365.476 333.561 365.28 333.589C365.094 333.617 364.921 333.669 364.762 333.743C364.613 333.818 364.492 333.925 364.398 334.065C364.305 334.196 364.258 334.364 364.258 334.569C364.258 334.971 364.384 335.251 364.636 335.409C364.888 335.559 365.229 335.633 365.658 335.633ZM365.518 329.319C366.078 329.319 366.55 329.389 366.932 329.529C367.315 329.669 367.618 329.865 367.842 330.117C368.076 330.369 368.239 330.677 368.332 331.041C368.435 331.396 368.486 331.788 368.486 332.217V336.655C368.225 336.711 367.828 336.777 367.296 336.851C366.774 336.935 366.181 336.977 365.518 336.977C365.08 336.977 364.678 336.935 364.314 336.851C363.95 336.767 363.638 336.632 363.376 336.445C363.124 336.259 362.924 336.016 362.774 335.717C362.634 335.419 362.564 335.05 362.564 334.611C362.564 334.191 362.644 333.837 362.802 333.547C362.97 333.258 363.194 333.025 363.474 332.847C363.754 332.661 364.076 332.53 364.44 332.455C364.814 332.371 365.201 332.329 365.602 332.329C365.789 332.329 365.985 332.343 366.19 332.371C366.396 332.39 366.615 332.427 366.848 332.483V332.203C366.848 332.007 366.825 331.821 366.778 331.643C366.732 331.466 366.648 331.312 366.526 331.181C366.414 331.041 366.26 330.934 366.064 330.859C365.878 330.785 365.64 330.747 365.35 330.747C364.958 330.747 364.599 330.775 364.272 330.831C363.946 330.887 363.68 330.953 363.474 331.027L363.264 329.655C363.479 329.581 363.792 329.506 364.202 329.431C364.613 329.357 365.052 329.319 365.518 329.319ZM370.155 333.169C370.155 332.628 370.239 332.124 370.407 331.657C370.575 331.181 370.813 330.771 371.121 330.425C371.438 330.08 371.821 329.809 372.269 329.613C372.717 329.417 373.221 329.319 373.781 329.319C374.472 329.319 375.125 329.445 375.741 329.697L375.377 331.083C375.181 330.999 374.957 330.929 374.705 330.873C374.462 330.817 374.201 330.789 373.921 330.789C373.258 330.789 372.754 330.999 372.409 331.419C372.064 331.83 371.891 332.413 371.891 333.169C371.891 333.897 372.054 334.476 372.381 334.905C372.708 335.325 373.258 335.535 374.033 335.535C374.322 335.535 374.607 335.507 374.887 335.451C375.167 335.395 375.41 335.325 375.615 335.241L375.853 336.641C375.666 336.735 375.382 336.819 374.999 336.893C374.626 336.968 374.238 337.005 373.837 337.005C373.212 337.005 372.666 336.912 372.199 336.725C371.742 336.529 371.359 336.263 371.051 335.927C370.752 335.582 370.528 335.176 370.379 334.709C370.23 334.233 370.155 333.72 370.155 333.169ZM383.265 329.501C382.509 332.283 381.632 334.803 380.633 337.061C380.447 337.481 380.255 337.841 380.059 338.139C379.863 338.438 379.644 338.685 379.401 338.881C379.159 339.077 378.888 339.217 378.589 339.301C378.291 339.395 377.945 339.441 377.553 339.441C377.292 339.441 377.031 339.413 376.769 339.357C376.517 339.301 376.326 339.241 376.195 339.175L376.503 337.817C376.839 337.948 377.171 338.013 377.497 338.013C377.936 338.013 378.277 337.906 378.519 337.691C378.771 337.486 378.991 337.164 379.177 336.725C378.645 335.699 378.132 334.579 377.637 333.365C377.152 332.152 376.718 330.864 376.335 329.501H378.141C378.235 329.893 378.347 330.318 378.477 330.775C378.617 331.233 378.767 331.699 378.925 332.175C379.084 332.642 379.252 333.109 379.429 333.575C379.607 334.042 379.784 334.476 379.961 334.877C380.26 334.047 380.54 333.165 380.801 332.231C381.063 331.289 381.301 330.379 381.515 329.501H383.265Z" fill="#48728E"/>
<path d="M404.622 199.055C404.771 199.559 404.93 200.086 405.098 200.637C405.266 201.178 405.439 201.724 405.616 202.275C405.803 202.816 405.985 203.353 406.162 203.885C406.349 204.408 406.526 204.902 406.694 205.369C406.834 204.865 406.969 204.319 407.1 203.731C407.231 203.134 407.361 202.518 407.492 201.883C407.623 201.239 407.749 200.586 407.87 199.923C408.001 199.26 408.122 198.607 408.234 197.963H410.054C409.727 199.718 409.363 201.407 408.962 203.031C408.561 204.646 408.113 206.19 407.618 207.665H405.938C405.21 205.78 404.505 203.722 403.824 201.491C403.479 202.62 403.129 203.694 402.774 204.711C402.419 205.728 402.065 206.713 401.71 207.665H400.03C399.526 206.19 399.073 204.646 398.672 203.031C398.28 201.407 397.921 199.718 397.594 197.963H399.484C399.596 198.598 399.713 199.246 399.834 199.909C399.965 200.572 400.095 201.225 400.226 201.869C400.366 202.504 400.506 203.12 400.646 203.717C400.786 204.314 400.926 204.865 401.066 205.369C401.243 204.893 401.421 204.394 401.598 203.871C401.785 203.339 401.967 202.802 402.144 202.261C402.321 201.71 402.489 201.164 402.648 200.623C402.816 200.082 402.97 199.559 403.11 199.055H404.622ZM415.386 201.869C415.246 201.822 415.05 201.776 414.798 201.729C414.556 201.673 414.271 201.645 413.944 201.645C413.758 201.645 413.557 201.664 413.342 201.701C413.137 201.738 412.992 201.771 412.908 201.799V207.665H411.214V200.693C411.541 200.572 411.947 200.46 412.432 200.357C412.927 200.245 413.473 200.189 414.07 200.189C414.182 200.189 414.313 200.198 414.462 200.217C414.612 200.226 414.761 200.245 414.91 200.273C415.06 200.292 415.204 200.32 415.344 200.357C415.484 200.385 415.596 200.413 415.68 200.441L415.386 201.869ZM423.483 203.997C423.483 204.576 423.399 205.103 423.231 205.579C423.063 206.055 422.825 206.461 422.517 206.797C422.209 207.133 421.836 207.394 421.397 207.581C420.968 207.768 420.492 207.861 419.969 207.861C419.446 207.861 418.97 207.768 418.541 207.581C418.112 207.394 417.743 207.133 417.435 206.797C417.127 206.461 416.884 206.055 416.707 205.579C416.539 205.103 416.455 204.576 416.455 203.997C416.455 203.418 416.539 202.896 416.707 202.429C416.884 201.953 417.127 201.547 417.435 201.211C417.752 200.875 418.126 200.618 418.555 200.441C418.984 200.254 419.456 200.161 419.969 200.161C420.482 200.161 420.954 200.254 421.383 200.441C421.822 200.618 422.195 200.875 422.503 201.211C422.811 201.547 423.049 201.953 423.217 202.429C423.394 202.896 423.483 203.418 423.483 203.997ZM421.747 203.997C421.747 203.269 421.588 202.695 421.271 202.275C420.963 201.846 420.529 201.631 419.969 201.631C419.409 201.631 418.97 201.846 418.653 202.275C418.345 202.695 418.191 203.269 418.191 203.997C418.191 204.734 418.345 205.318 418.653 205.747C418.97 206.176 419.409 206.391 419.969 206.391C420.529 206.391 420.963 206.176 421.271 205.747C421.588 205.318 421.747 204.734 421.747 203.997ZM425.228 200.581C425.555 200.488 425.979 200.399 426.502 200.315C427.025 200.231 427.603 200.189 428.238 200.189C428.835 200.189 429.335 200.273 429.736 200.441C430.137 200.6 430.455 200.828 430.688 201.127C430.931 201.416 431.099 201.771 431.192 202.191C431.295 202.602 431.346 203.054 431.346 203.549V207.665H429.652V203.815C429.652 203.423 429.624 203.092 429.568 202.821C429.521 202.541 429.437 202.317 429.316 202.149C429.204 201.972 429.045 201.846 428.84 201.771C428.644 201.687 428.401 201.645 428.112 201.645C427.897 201.645 427.673 201.659 427.44 201.687C427.207 201.715 427.034 201.738 426.922 201.757V207.665H425.228V200.581ZM434.748 203.815C434.748 204.534 434.902 205.061 435.21 205.397C435.527 205.724 435.933 205.887 436.428 205.887C436.698 205.887 436.95 205.85 437.184 205.775C437.426 205.7 437.622 205.612 437.772 205.509V201.715C437.65 201.687 437.501 201.664 437.324 201.645C437.146 201.617 436.922 201.603 436.652 201.603C436.036 201.603 435.564 201.808 435.238 202.219C434.911 202.62 434.748 203.152 434.748 203.815ZM439.466 206.923C439.466 208.09 439.167 208.944 438.57 209.485C437.982 210.026 437.076 210.297 435.854 210.297C435.406 210.297 434.967 210.26 434.538 210.185C434.118 210.11 433.735 210.012 433.39 209.891L433.698 208.449C433.987 208.57 434.314 208.668 434.678 208.743C435.051 208.818 435.452 208.855 435.882 208.855C436.563 208.855 437.048 208.715 437.338 208.435C437.627 208.155 437.772 207.74 437.772 207.189V206.909C437.604 206.993 437.38 207.077 437.1 207.161C436.829 207.245 436.516 207.287 436.162 207.287C435.695 207.287 435.266 207.212 434.874 207.063C434.491 206.914 434.16 206.694 433.88 206.405C433.609 206.116 433.394 205.756 433.236 205.327C433.086 204.888 433.012 204.384 433.012 203.815C433.012 203.283 433.091 202.793 433.25 202.345C433.418 201.897 433.656 201.514 433.964 201.197C434.281 200.88 434.664 200.632 435.112 200.455C435.56 200.278 436.068 200.189 436.638 200.189C437.188 200.189 437.711 200.231 438.206 200.315C438.7 200.399 439.12 200.488 439.466 200.581V206.923Z" fill="#48728E"/>
<path d="M77.6381 204.604L152.24 75.3903L301.443 75.3903L376.044 204.604L301.443 333.818L152.24 333.818L77.6381 204.604Z" stroke="#9BBDCE"/>
<path d="M191.602 204.604L209.222 174.085L244.461 174.085L262.081 204.604L244.461 235.122L209.222 235.122L191.602 204.604Z" stroke="#9BBDCE"/>
<path d="M151.443 204.604L189.143 139.307L264.541 139.307L302.24 204.604L264.541 269.901L189.143 269.901L151.443 204.604Z" stroke="#9BBDCE"/>
<path d="M113.455 204.604L170.148 106.409L283.535 106.409L340.228 204.604L283.535 302.799L170.148 302.799L113.455 204.604Z" stroke="#9BBDCE"/>
<path d="M152.494 75.8301L300.646 332.438" stroke="#9BBDCE" stroke-linecap="round" stroke-linejoin="round" stroke-dasharray="4 5"/>
<path d="M78.4177 204.134L374.723 204.134" stroke="#9BBDCE" stroke-linecap="round" stroke-linejoin="round" stroke-dasharray="4 5"/>
<path d="M300.646 75.8301L152.494 332.438" stroke="#9BBDCE" stroke-linecap="round" stroke-linejoin="round" stroke-dasharray="4 5"/>
<circle cx="151.951" cy="74.8901" r="9.76829" transform="rotate(-30 151.951 74.8901)" fill="#BFD6E1"/>
<circle cx="301.731" cy="334.318" r="9.76829" transform="rotate(-30 301.731 334.318)" fill="#BFD6E1"/>
<circle cx="77.061" cy="204.604" r="9.76829" transform="rotate(-90 77.061 204.604)" fill="#BFD6E1"/>
<circle cx="376.622" cy="204.604" r="9.76829" transform="rotate(-90 376.622 204.604)" fill="#BFD6E1"/>
<circle cx="151.951" cy="334.318" r="9.76829" transform="rotate(-150 151.951 334.318)" fill="#BFD6E1"/>
<circle cx="301.732" cy="74.8902" r="9.76829" transform="rotate(-150 301.732 74.8902)" fill="#BFD6E1"/>
<path d="M269.171 133.5L173.116 111.793L137.842 203.506L188.854 269.713L277.854 292.506L285.994 203.506L269.171 133.5Z" fill="url(#paint0_linear)" fill-opacity="0.25" stroke="url(#paint1_linear)" stroke-width="3" stroke-linecap="round" stroke-linejoin="round"/>
<path d="M274.055 122.646L164.976 97.1403L107.994 203.506L170.945 301.732L263.201 267L280.567 203.506L274.055 122.646Z" fill="#5183BB" fill-opacity="0.15" stroke="url(#paint2_linear)" stroke-width="3" stroke-linecap="round" stroke-linejoin="round"/>
<circle cx="100.5" cy="400.5" r="11.5" fill="url(#paint3_linear)"/>
<path d="M123.44 407V394.526H131.864V396.884H126.248V399.332H131.234V401.636H126.248V404.642H132.278V407H123.44ZM138.325 400.412L140.197 397.532H142.969L139.729 402.086C140.449 402.986 141.103 403.862 141.691 404.714C142.279 405.566 142.747 406.328 143.095 407H140.215C140.119 406.82 139.999 406.598 139.855 406.334C139.711 406.058 139.549 405.776 139.369 405.488C139.189 405.188 138.997 404.894 138.793 404.606C138.601 404.306 138.409 404.036 138.217 403.796C138.037 404.024 137.851 404.276 137.659 404.552C137.479 404.828 137.305 405.11 137.137 405.398C136.969 405.674 136.801 405.95 136.633 406.226C136.477 406.502 136.339 406.76 136.219 407H133.483C133.627 406.7 133.825 406.346 134.077 405.938C134.329 405.53 134.599 405.11 134.887 404.678C135.187 404.234 135.499 403.796 135.823 403.364C136.147 402.92 136.465 402.506 136.777 402.122C136.237 401.366 135.697 400.604 135.157 399.836C134.617 399.056 134.083 398.288 133.555 397.532H136.453L138.325 400.412ZM150.596 402.338C150.596 401.51 150.41 400.85 150.038 400.358C149.666 399.854 149.114 399.602 148.382 399.602C148.142 399.602 147.92 399.614 147.716 399.638C147.512 399.65 147.344 399.668 147.212 399.692V404.534C147.38 404.642 147.596 404.732 147.86 404.804C148.136 404.876 148.412 404.912 148.688 404.912C149.96 404.912 150.596 404.054 150.596 402.338ZM153.332 402.266C153.332 402.998 153.242 403.664 153.062 404.264C152.882 404.864 152.618 405.38 152.27 405.812C151.922 406.244 151.49 406.58 150.974 406.82C150.458 407.06 149.864 407.18 149.192 407.18C148.82 407.18 148.472 407.144 148.148 407.072C147.824 407 147.512 406.898 147.212 406.766V410.33H144.53V397.856C144.77 397.784 145.046 397.718 145.358 397.658C145.67 397.586 145.994 397.526 146.33 397.478C146.678 397.43 147.026 397.394 147.374 397.37C147.734 397.334 148.076 397.316 148.4 397.316C149.18 397.316 149.876 397.436 150.488 397.676C151.1 397.904 151.616 398.234 152.036 398.666C152.456 399.086 152.774 399.602 152.99 400.214C153.218 400.826 153.332 401.51 153.332 402.266ZM154.943 402.338C154.943 401.498 155.069 400.766 155.321 400.142C155.585 399.506 155.927 398.978 156.347 398.558C156.767 398.138 157.247 397.82 157.787 397.604C158.339 397.388 158.903 397.28 159.479 397.28C160.823 397.28 161.885 397.694 162.665 398.522C163.445 399.338 163.835 400.544 163.835 402.14C163.835 402.296 163.829 402.47 163.817 402.662C163.805 402.842 163.793 403.004 163.781 403.148H157.697C157.757 403.7 158.015 404.138 158.471 404.462C158.927 404.786 159.539 404.948 160.307 404.948C160.799 404.948 161.279 404.906 161.747 404.822C162.227 404.726 162.617 404.612 162.917 404.48L163.277 406.658C163.133 406.73 162.941 406.802 162.701 406.874C162.461 406.946 162.191 407.006 161.891 407.054C161.603 407.114 161.291 407.162 160.955 407.198C160.619 407.234 160.283 407.252 159.947 407.252C159.095 407.252 158.351 407.126 157.715 406.874C157.091 406.622 156.569 406.28 156.149 405.848C155.741 405.404 155.435 404.882 155.231 404.282C155.039 403.682 154.943 403.034 154.943 402.338ZM161.243 401.312C161.231 401.084 161.189 400.862 161.117 400.646C161.057 400.43 160.955 400.238 160.811 400.07C160.679 399.902 160.505 399.764 160.289 399.656C160.085 399.548 159.827 399.494 159.515 399.494C159.215 399.494 158.957 399.548 158.741 399.656C158.525 399.752 158.345 399.884 158.201 400.052C158.057 400.22 157.943 400.418 157.859 400.646C157.787 400.862 157.733 401.084 157.697 401.312H161.243ZM171.611 399.908C171.371 399.848 171.089 399.788 170.765 399.728C170.441 399.656 170.093 399.62 169.721 399.62C169.553 399.62 169.349 399.638 169.109 399.674C168.881 399.698 168.707 399.728 168.587 399.764V407H165.905V398.036C166.385 397.868 166.949 397.712 167.597 397.568C168.257 397.412 168.989 397.334 169.793 397.334C169.937 397.334 170.111 397.346 170.315 397.37C170.519 397.382 170.723 397.406 170.927 397.442C171.131 397.466 171.335 397.502 171.539 397.55C171.743 397.586 171.917 397.634 172.061 397.694L171.611 399.908ZM173.408 395.174L176.09 394.742V397.532H179.312V399.764H176.09V403.094C176.09 403.658 176.186 404.108 176.378 404.444C176.582 404.78 176.984 404.948 177.584 404.948C177.872 404.948 178.166 404.924 178.466 404.876C178.778 404.816 179.06 404.738 179.312 404.642L179.69 406.73C179.366 406.862 179.006 406.976 178.61 407.072C178.214 407.168 177.728 407.216 177.152 407.216C176.42 407.216 175.814 407.12 175.334 406.928C174.854 406.724 174.47 406.448 174.182 406.1C173.894 405.74 173.69 405.308 173.57 404.804C173.462 404.3 173.408 403.742 173.408 403.13V395.174Z" fill="#004E82"/>
<path d="M140.615 10.06C140.615 10.74 140.695 11.3533 140.855 11.9C141.028 12.4467 141.268 12.92 141.575 13.32C141.895 13.7067 142.281 14.0067 142.735 14.22C143.188 14.4333 143.708 14.54 144.295 14.54C144.868 14.54 145.381 14.4333 145.835 14.22C146.301 14.0067 146.688 13.7067 146.995 13.32C147.315 12.92 147.555 12.4467 147.715 11.9C147.888 11.3533 147.975 10.74 147.975 10.06C147.975 9.38 147.888 8.76667 147.715 8.22C147.555 7.66 147.315 7.18667 146.995 6.8C146.688 6.4 146.301 6.09333 145.835 5.88C145.381 5.66667 144.868 5.56 144.295 5.56C143.708 5.56 143.188 5.67333 142.735 5.9C142.281 6.11333 141.895 6.42 141.575 6.82C141.268 7.20667 141.028 7.68 140.855 8.24C140.695 8.78667 140.615 9.39333 140.615 10.06ZM151.195 10.06C151.195 11.0333 151.075 11.9133 150.835 12.7C150.595 13.4733 150.255 14.1533 149.815 14.74C149.388 15.3267 148.875 15.8133 148.275 16.2C147.675 16.5867 147.015 16.8667 146.295 17.04C146.361 17.3067 146.508 17.52 146.735 17.68C146.961 17.8533 147.248 17.9933 147.595 18.1C147.941 18.2067 148.341 18.2867 148.795 18.34C149.261 18.3933 149.761 18.44 150.295 18.48L149.655 20.76C148.615 20.72 147.721 20.6133 146.975 20.44C146.241 20.28 145.615 20.0533 145.095 19.76C144.588 19.4667 144.181 19.1067 143.875 18.68C143.581 18.2533 143.355 17.76 143.195 17.2C142.368 17.0933 141.601 16.8667 140.895 16.52C140.188 16.16 139.575 15.68 139.055 15.08C138.535 14.48 138.128 13.76 137.835 12.92C137.541 12.08 137.395 11.1267 137.395 10.06C137.395 8.87333 137.581 7.83333 137.955 6.94C138.328 6.03333 138.828 5.27333 139.455 4.66C140.095 4.04667 140.828 3.58667 141.655 3.28C142.495 2.97333 143.375 2.82 144.295 2.82C145.241 2.82 146.135 2.97333 146.975 3.28C147.815 3.58667 148.548 4.04667 149.175 4.66C149.801 5.27333 150.295 6.03333 150.655 6.94C151.015 7.83333 151.195 8.87333 151.195 10.06ZM162.575 16.64C162.069 16.7867 161.415 16.92 160.615 17.04C159.815 17.1733 158.975 17.24 158.095 17.24C157.202 17.24 156.455 17.12 155.855 16.88C155.269 16.64 154.802 16.3067 154.455 15.88C154.109 15.44 153.862 14.92 153.715 14.32C153.569 13.72 153.495 13.06 153.495 12.34V6.48H156.475V11.98C156.475 12.94 156.602 13.6333 156.855 14.06C157.109 14.4867 157.582 14.7 158.275 14.7C158.489 14.7 158.715 14.6933 158.955 14.68C159.195 14.6533 159.409 14.6267 159.595 14.6V6.48H162.575V16.64ZM169.393 14.92C169.686 14.92 169.966 14.9133 170.233 14.9C170.499 14.8867 170.713 14.8667 170.873 14.84V12.58C170.753 12.5533 170.573 12.5267 170.333 12.5C170.093 12.4733 169.873 12.46 169.673 12.46C169.393 12.46 169.126 12.48 168.873 12.52C168.633 12.5467 168.419 12.6067 168.233 12.7C168.046 12.7933 167.899 12.92 167.793 13.08C167.686 13.24 167.633 13.44 167.633 13.68C167.633 14.1467 167.786 14.4733 168.093 14.66C168.413 14.8333 168.846 14.92 169.393 14.92ZM169.153 6.2C170.033 6.2 170.766 6.3 171.353 6.5C171.939 6.7 172.406 6.98667 172.753 7.36C173.113 7.73333 173.366 8.18667 173.513 8.72C173.659 9.25333 173.733 9.84667 173.733 10.5V16.7C173.306 16.7933 172.713 16.9 171.953 17.02C171.193 17.1533 170.273 17.22 169.193 17.22C168.513 17.22 167.893 17.16 167.333 17.04C166.786 16.92 166.313 16.7267 165.913 16.46C165.513 16.18 165.206 15.82 164.993 15.38C164.779 14.94 164.673 14.4 164.673 13.76C164.673 13.1467 164.793 12.6267 165.033 12.2C165.286 11.7733 165.619 11.4333 166.033 11.18C166.446 10.9267 166.919 10.7467 167.453 10.64C167.986 10.52 168.539 10.46 169.113 10.46C169.499 10.46 169.839 10.48 170.133 10.52C170.439 10.5467 170.686 10.5867 170.873 10.64V10.36C170.873 9.85333 170.719 9.44667 170.413 9.14C170.106 8.83333 169.573 8.68 168.813 8.68C168.306 8.68 167.806 8.72 167.313 8.8C166.819 8.86667 166.393 8.96667 166.033 9.1L165.653 6.7C165.826 6.64667 166.039 6.59333 166.293 6.54C166.559 6.47333 166.846 6.42 167.153 6.38C167.459 6.32667 167.779 6.28667 168.113 6.26C168.459 6.22 168.806 6.2 169.153 6.2ZM180.627 17.2C179.761 17.1867 179.054 17.0933 178.507 16.92C177.974 16.7467 177.547 16.5067 177.227 16.2C176.921 15.88 176.707 15.5 176.587 15.06C176.481 14.6067 176.427 14.1 176.427 13.54V1.96L179.407 1.48V12.94C179.407 13.2067 179.427 13.4467 179.467 13.66C179.507 13.8733 179.581 14.0533 179.687 14.2C179.807 14.3467 179.974 14.4667 180.187 14.56C180.401 14.6533 180.687 14.7133 181.047 14.74L180.627 17.2ZM185.735 17H182.755V6.48H185.735V17ZM186.015 3.44C186.015 3.98667 185.835 4.42 185.475 4.74C185.129 5.04667 184.715 5.2 184.235 5.2C183.755 5.2 183.335 5.04667 182.975 4.74C182.629 4.42 182.455 3.98667 182.455 3.44C182.455 2.89333 182.629 2.46667 182.975 2.16C183.335 1.84 183.755 1.68 184.235 1.68C184.715 1.68 185.129 1.84 185.475 2.16C185.835 2.46667 186.015 2.89333 186.015 3.44ZM188.437 3.86L191.417 3.38V6.48H194.997V8.96H191.417V12.66C191.417 13.2867 191.523 13.7867 191.737 14.16C191.963 14.5333 192.41 14.72 193.077 14.72C193.397 14.72 193.723 14.6933 194.057 14.64C194.403 14.5733 194.717 14.4867 194.997 14.38L195.417 16.7C195.057 16.8467 194.657 16.9733 194.217 17.08C193.777 17.1867 193.237 17.24 192.597 17.24C191.783 17.24 191.11 17.1333 190.577 16.92C190.043 16.6933 189.617 16.3867 189.297 16C188.977 15.6 188.75 15.12 188.617 14.56C188.497 14 188.437 13.38 188.437 12.7V3.86ZM206.959 6.48C206.359 8.50667 205.732 10.4067 205.079 12.18C204.425 13.9533 203.712 15.6733 202.939 17.34C202.659 17.94 202.379 18.4467 202.099 18.86C201.819 19.2867 201.512 19.6333 201.179 19.9C200.845 20.18 200.465 20.38 200.039 20.5C199.625 20.6333 199.139 20.7 198.579 20.7C198.112 20.7 197.679 20.6533 197.279 20.56C196.892 20.48 196.572 20.3867 196.319 20.28L196.839 17.9C197.145 18.0067 197.419 18.08 197.659 18.12C197.899 18.16 198.152 18.18 198.419 18.18C198.952 18.18 199.359 18.0333 199.639 17.74C199.932 17.46 200.179 17.0667 200.379 16.56C199.699 15.2267 199.019 13.7333 198.339 12.08C197.659 10.4133 197.019 8.54667 196.419 6.48H199.579C199.712 7 199.865 7.56667 200.039 8.18C200.225 8.78 200.419 9.39333 200.619 10.02C200.819 10.6333 201.019 11.2333 201.219 11.82C201.432 12.4067 201.632 12.94 201.819 13.42C201.992 12.94 202.172 12.4067 202.359 11.82C202.545 11.2333 202.725 10.6333 202.899 10.02C203.085 9.39333 203.259 8.78 203.419 8.18C203.592 7.56667 203.745 7 203.879 6.48H206.959ZM216.681 14.46C216.828 14.4733 216.994 14.4867 217.181 14.5C217.381 14.5 217.614 14.5 217.881 14.5C219.441 14.5 220.594 14.1067 221.341 13.32C222.101 12.5333 222.481 11.4467 222.481 10.06C222.481 8.60667 222.121 7.50667 221.401 6.76C220.681 6.01333 219.541 5.64 217.981 5.64C217.768 5.64 217.548 5.64667 217.321 5.66C217.094 5.66 216.881 5.67333 216.681 5.7V14.46ZM225.701 10.06C225.701 11.26 225.514 12.3067 225.141 13.2C224.768 14.0933 224.234 14.8333 223.541 15.42C222.861 16.0067 222.028 16.4467 221.041 16.74C220.054 17.0333 218.948 17.18 217.721 17.18C217.161 17.18 216.508 17.1533 215.761 17.1C215.014 17.06 214.281 16.9667 213.561 16.82V3.32C214.281 3.18667 215.028 3.1 215.801 3.06C216.588 3.00667 217.261 2.98 217.821 2.98C219.008 2.98 220.081 3.11333 221.041 3.38C222.014 3.64667 222.848 4.06667 223.541 4.64C224.234 5.21333 224.768 5.94667 225.141 6.84C225.514 7.73333 225.701 8.80667 225.701 10.06ZM231.087 17H228.107V6.48H231.087V17ZM231.367 3.44C231.367 3.98667 231.187 4.42 230.827 4.74C230.48 5.04667 230.067 5.2 229.587 5.2C229.107 5.2 228.687 5.04667 228.327 4.74C227.98 4.42 227.807 3.98667 227.807 3.44C227.807 2.89333 227.98 2.46667 228.327 2.16C228.687 1.84 229.107 1.68 229.587 1.68C230.067 1.68 230.48 1.84 230.827 2.16C231.187 2.46667 231.367 2.89333 231.367 3.44ZM239.668 11.42C239.668 10.46 239.542 9.78 239.288 9.38C239.048 8.98 238.628 8.78 238.028 8.78C237.842 8.78 237.648 8.79333 237.448 8.82C237.248 8.83333 237.055 8.85333 236.868 8.88V17H233.888V6.84C234.142 6.77333 234.435 6.70667 234.768 6.64C235.115 6.56 235.475 6.49333 235.848 6.44C236.235 6.37333 236.628 6.32667 237.028 6.3C237.428 6.26 237.822 6.24 238.208 6.24C238.968 6.24 239.582 6.34 240.048 6.54C240.528 6.72667 240.922 6.95333 241.228 7.22C241.655 6.91333 242.142 6.67333 242.688 6.5C243.248 6.32667 243.762 6.24 244.228 6.24C245.068 6.24 245.755 6.36 246.288 6.6C246.835 6.82667 247.268 7.15333 247.588 7.58C247.908 8.00667 248.128 8.51333 248.248 9.1C248.368 9.68667 248.428 10.34 248.428 11.06V17H245.448V11.42C245.448 10.46 245.322 9.78 245.068 9.38C244.828 8.98 244.408 8.78 243.808 8.78C243.648 8.78 243.422 8.82 243.128 8.9C242.848 8.98 242.615 9.08 242.428 9.2C242.522 9.50667 242.582 9.83333 242.608 10.18C242.635 10.5133 242.648 10.8733 242.648 11.26V17H239.668V11.42ZM250.634 11.82C250.634 10.8867 250.774 10.0733 251.054 9.38C251.348 8.67333 251.728 8.08667 252.194 7.62C252.661 7.15333 253.194 6.8 253.794 6.56C254.408 6.32 255.034 6.2 255.674 6.2C257.168 6.2 258.348 6.66 259.214 7.58C260.081 8.48667 260.514 9.82667 260.514 11.6C260.514 11.7733 260.508 11.9667 260.494 12.18C260.481 12.38 260.468 12.56 260.454 12.72H253.694C253.761 13.3333 254.048 13.82 254.554 14.18C255.061 14.54 255.741 14.72 256.594 14.72C257.141 14.72 257.674 14.6733 258.194 14.58C258.728 14.4733 259.161 14.3467 259.494 14.2L259.894 16.62C259.734 16.7 259.521 16.78 259.254 16.86C258.988 16.94 258.688 17.0067 258.354 17.06C258.034 17.1267 257.688 17.18 257.314 17.22C256.941 17.26 256.568 17.28 256.194 17.28C255.248 17.28 254.421 17.14 253.714 16.86C253.021 16.58 252.441 16.2 251.974 15.72C251.521 15.2267 251.181 14.6467 250.954 13.98C250.741 13.3133 250.634 12.5933 250.634 11.82ZM257.634 10.68C257.621 10.4267 257.574 10.18 257.494 9.94C257.428 9.7 257.314 9.48667 257.154 9.3C257.008 9.11333 256.814 8.96 256.574 8.84C256.348 8.72 256.061 8.66 255.714 8.66C255.381 8.66 255.094 8.72 254.854 8.84C254.614 8.94667 254.414 9.09333 254.254 9.28C254.094 9.46667 253.968 9.68667 253.874 9.94C253.794 10.18 253.734 10.4267 253.694 10.68H257.634ZM262.814 6.84C263.321 6.69333 263.974 6.56 264.774 6.44C265.574 6.30667 266.414 6.24 267.294 6.24C268.187 6.24 268.927 6.36 269.514 6.6C270.114 6.82667 270.587 7.15333 270.934 7.58C271.281 8.00667 271.527 8.51333 271.674 9.1C271.821 9.68667 271.894 10.34 271.894 11.06V17H268.914V11.42C268.914 10.46 268.787 9.78 268.534 9.38C268.281 8.98 267.807 8.78 267.114 8.78C266.901 8.78 266.674 8.79333 266.434 8.82C266.194 8.83333 265.981 8.85333 265.794 8.88V17H262.814V6.84ZM277.611 14.86C278.158 14.86 278.545 14.8067 278.771 14.7C278.998 14.5933 279.111 14.3867 279.111 14.08C279.111 13.84 278.965 13.6333 278.671 13.46C278.378 13.2733 277.931 13.0667 277.331 12.84C276.865 12.6667 276.438 12.4867 276.051 12.3C275.678 12.1133 275.358 11.8933 275.091 11.64C274.825 11.3733 274.618 11.06 274.471 10.7C274.325 10.34 274.251 9.90667 274.251 9.4C274.251 8.41333 274.618 7.63333 275.351 7.06C276.085 6.48667 277.091 6.2 278.371 6.2C279.011 6.2 279.625 6.26 280.211 6.38C280.798 6.48667 281.265 6.60667 281.611 6.74L281.091 9.06C280.745 8.94 280.365 8.83333 279.951 8.74C279.551 8.64667 279.098 8.6 278.591 8.6C277.658 8.6 277.191 8.86 277.191 9.38C277.191 9.5 277.211 9.60667 277.251 9.7C277.291 9.79333 277.371 9.88667 277.491 9.98C277.611 10.06 277.771 10.1533 277.971 10.26C278.185 10.3533 278.451 10.46 278.771 10.58C279.425 10.82 279.965 11.06 280.391 11.3C280.818 11.5267 281.151 11.78 281.391 12.06C281.645 12.3267 281.818 12.6267 281.911 12.96C282.018 13.2933 282.071 13.68 282.071 14.12C282.071 15.16 281.678 15.9467 280.891 16.48C280.118 17.0133 279.018 17.28 277.591 17.28C276.658 17.28 275.878 17.2 275.251 17.04C274.638 16.88 274.211 16.7467 273.971 16.64L274.471 14.22C274.978 14.42 275.498 14.58 276.031 14.7C276.565 14.8067 277.091 14.86 277.611 14.86ZM287.278 17H284.298V6.48H287.278V17ZM287.558 3.44C287.558 3.98667 287.378 4.42 287.018 4.74C286.672 5.04667 286.258 5.2 285.778 5.2C285.298 5.2 284.878 5.04667 284.518 4.74C284.172 4.42 283.998 3.98667 283.998 3.44C283.998 2.89333 284.172 2.46667 284.518 2.16C284.878 1.84 285.298 1.68 285.778 1.68C286.258 1.68 286.672 1.84 287.018 2.16C287.378 2.46667 287.558 2.89333 287.558 3.44ZM299.92 11.72C299.92 12.5467 299.8 13.3067 299.56 14C299.32 14.68 298.973 15.2667 298.52 15.76C298.066 16.24 297.52 16.6133 296.88 16.88C296.253 17.1467 295.546 17.28 294.76 17.28C293.986 17.28 293.28 17.1467 292.64 16.88C292.013 16.6133 291.473 16.24 291.02 15.76C290.566 15.2667 290.213 14.68 289.96 14C289.706 13.3067 289.58 12.5467 289.58 11.72C289.58 10.8933 289.706 10.14 289.96 9.46C290.226 8.78 290.586 8.2 291.04 7.72C291.506 7.24 292.053 6.86667 292.68 6.6C293.32 6.33333 294.013 6.2 294.76 6.2C295.52 6.2 296.213 6.33333 296.84 6.6C297.48 6.86667 298.026 7.24 298.48 7.72C298.933 8.2 299.286 8.78 299.54 9.46C299.793 10.14 299.92 10.8933 299.92 11.72ZM296.88 11.72C296.88 10.8 296.693 10.08 296.32 9.56C295.96 9.02667 295.44 8.76 294.76 8.76C294.08 8.76 293.553 9.02667 293.18 9.56C292.806 10.08 292.62 10.8 292.62 11.72C292.62 12.64 292.806 13.3733 293.18 13.92C293.553 14.4533 294.08 14.72 294.76 14.72C295.44 14.72 295.96 14.4533 296.32 13.92C296.693 13.3733 296.88 12.64 296.88 11.72ZM302.228 6.84C302.735 6.69333 303.388 6.56 304.188 6.44C304.988 6.30667 305.828 6.24 306.708 6.24C307.601 6.24 308.341 6.36 308.928 6.6C309.528 6.82667 310.001 7.15333 310.348 7.58C310.695 8.00667 310.941 8.51333 311.088 9.1C311.235 9.68667 311.308 10.34 311.308 11.06V17H308.328V11.42C308.328 10.46 308.201 9.78 307.948 9.38C307.695 8.98 307.221 8.78 306.528 8.78C306.315 8.78 306.088 8.79333 305.848 8.82C305.608 8.83333 305.395 8.85333 305.208 8.88V17H302.228V6.84Z" fill="#004E82"/>
<circle cx="242.5" cy="400.5" r="11.5" fill="url(#paint4_linear)"/>
<path d="M273.774 404.588V407H265.44V394.526H268.248V404.588H273.774ZM284.259 402.248C284.259 402.992 284.151 403.676 283.935 404.3C283.719 404.912 283.407 405.44 282.999 405.884C282.591 406.316 282.099 406.652 281.523 406.892C280.959 407.132 280.323 407.252 279.615 407.252C278.919 407.252 278.283 407.132 277.707 406.892C277.143 406.652 276.657 406.316 276.249 405.884C275.841 405.44 275.523 404.912 275.295 404.3C275.067 403.676 274.953 402.992 274.953 402.248C274.953 401.504 275.067 400.826 275.295 400.214C275.535 399.602 275.859 399.08 276.267 398.648C276.687 398.216 277.179 397.88 277.743 397.64C278.319 397.4 278.943 397.28 279.615 397.28C280.299 397.28 280.923 397.4 281.487 397.64C282.063 397.88 282.555 398.216 282.963 398.648C283.371 399.08 283.689 399.602 283.917 400.214C284.145 400.826 284.259 401.504 284.259 402.248ZM281.523 402.248C281.523 401.42 281.355 400.772 281.019 400.304C280.695 399.824 280.227 399.584 279.615 399.584C279.003 399.584 278.529 399.824 278.193 400.304C277.857 400.772 277.689 401.42 277.689 402.248C277.689 403.076 277.857 403.736 278.193 404.228C278.529 404.708 279.003 404.948 279.615 404.948C280.227 404.948 280.695 404.708 281.019 404.228C281.355 403.736 281.523 403.076 281.523 402.248ZM285.886 402.266C285.886 401.582 285.994 400.94 286.21 400.34C286.438 399.728 286.762 399.2 287.182 398.756C287.602 398.3 288.112 397.94 288.712 397.676C289.312 397.412 289.996 397.28 290.764 397.28C291.268 397.28 291.73 397.328 292.15 397.424C292.57 397.508 292.978 397.634 293.374 397.802L292.816 399.944C292.564 399.848 292.288 399.764 291.988 399.692C291.688 399.62 291.352 399.584 290.98 399.584C290.188 399.584 289.594 399.83 289.198 400.322C288.814 400.814 288.622 401.462 288.622 402.266C288.622 403.118 288.802 403.778 289.162 404.246C289.534 404.714 290.176 404.948 291.088 404.948C291.412 404.948 291.76 404.918 292.132 404.858C292.504 404.798 292.846 404.702 293.158 404.57L293.536 406.766C293.224 406.898 292.834 407.012 292.366 407.108C291.898 407.204 291.382 407.252 290.818 407.252C289.954 407.252 289.21 407.126 288.586 406.874C287.962 406.61 287.446 406.256 287.038 405.812C286.642 405.368 286.348 404.846 286.156 404.246C285.976 403.634 285.886 402.974 285.886 402.266ZM298.497 405.128C298.761 405.128 299.013 405.122 299.253 405.11C299.493 405.098 299.685 405.08 299.829 405.056V403.022C299.721 402.998 299.559 402.974 299.343 402.95C299.127 402.926 298.929 402.914 298.749 402.914C298.497 402.914 298.257 402.932 298.029 402.968C297.813 402.992 297.621 403.046 297.453 403.13C297.285 403.214 297.153 403.328 297.057 403.472C296.961 403.616 296.913 403.796 296.913 404.012C296.913 404.432 297.051 404.726 297.327 404.894C297.615 405.05 298.005 405.128 298.497 405.128ZM298.281 397.28C299.073 397.28 299.733 397.37 300.261 397.55C300.789 397.73 301.209 397.988 301.521 398.324C301.845 398.66 302.073 399.068 302.205 399.548C302.337 400.028 302.403 400.562 302.403 401.15V406.73C302.019 406.814 301.485 406.91 300.801 407.018C300.117 407.138 299.289 407.198 298.317 407.198C297.705 407.198 297.147 407.144 296.643 407.036C296.151 406.928 295.725 406.754 295.365 406.514C295.005 406.262 294.729 405.938 294.537 405.542C294.345 405.146 294.249 404.66 294.249 404.084C294.249 403.532 294.357 403.064 294.573 402.68C294.801 402.296 295.101 401.99 295.473 401.762C295.845 401.534 296.271 401.372 296.751 401.276C297.231 401.168 297.729 401.114 298.245 401.114C298.593 401.114 298.899 401.132 299.163 401.168C299.439 401.192 299.661 401.228 299.829 401.276V401.024C299.829 400.568 299.691 400.202 299.415 399.926C299.139 399.65 298.659 399.512 297.975 399.512C297.519 399.512 297.069 399.548 296.625 399.62C296.181 399.68 295.797 399.77 295.473 399.89L295.131 397.73C295.287 397.682 295.479 397.634 295.707 397.586C295.947 397.526 296.205 397.478 296.481 397.442C296.757 397.394 297.045 397.358 297.345 397.334C297.657 397.298 297.969 397.28 298.281 397.28ZM308.608 407.18C307.828 407.168 307.192 407.084 306.7 406.928C306.22 406.772 305.836 406.556 305.548 406.28C305.272 405.992 305.08 405.65 304.972 405.254C304.876 404.846 304.828 404.39 304.828 403.886V393.464L307.51 393.032V403.346C307.51 403.586 307.528 403.802 307.564 403.994C307.6 404.186 307.666 404.348 307.762 404.48C307.87 404.612 308.02 404.72 308.212 404.804C308.404 404.888 308.662 404.942 308.986 404.966L308.608 407.18ZM313.206 407H310.524V397.532H313.206V407ZM313.458 394.796C313.458 395.288 313.296 395.678 312.972 395.966C312.66 396.242 312.288 396.38 311.856 396.38C311.424 396.38 311.046 396.242 310.722 395.966C310.41 395.678 310.254 395.288 310.254 394.796C310.254 394.304 310.41 393.92 310.722 393.644C311.046 393.356 311.424 393.212 311.856 393.212C312.288 393.212 312.66 393.356 312.972 393.644C313.296 393.92 313.458 394.304 313.458 394.796ZM322.837 399.332C322.621 399.572 322.327 399.896 321.955 400.304C321.595 400.712 321.205 401.162 320.785 401.654C320.365 402.146 319.939 402.662 319.507 403.202C319.087 403.742 318.703 404.264 318.355 404.768H322.927V407H315.097V405.416C315.349 404.984 315.649 404.522 315.997 404.03C316.357 403.526 316.729 403.022 317.113 402.518C317.509 402.014 317.899 401.528 318.283 401.06C318.667 400.58 319.021 400.148 319.345 399.764H315.313V397.532H322.837V399.332ZM328.081 405.128C328.345 405.128 328.597 405.122 328.837 405.11C329.077 405.098 329.269 405.08 329.413 405.056V403.022C329.305 402.998 329.143 402.974 328.927 402.95C328.711 402.926 328.513 402.914 328.333 402.914C328.081 402.914 327.841 402.932 327.613 402.968C327.397 402.992 327.205 403.046 327.037 403.13C326.869 403.214 326.737 403.328 326.641 403.472C326.545 403.616 326.497 403.796 326.497 404.012C326.497 404.432 326.635 404.726 326.911 404.894C327.199 405.05 327.589 405.128 328.081 405.128ZM327.865 397.28C328.657 397.28 329.317 397.37 329.845 397.55C330.373 397.73 330.793 397.988 331.105 398.324C331.429 398.66 331.657 399.068 331.789 399.548C331.921 400.028 331.987 400.562 331.987 401.15V406.73C331.603 406.814 331.069 406.91 330.385 407.018C329.701 407.138 328.873 407.198 327.901 407.198C327.289 407.198 326.731 407.144 326.227 407.036C325.735 406.928 325.309 406.754 324.949 406.514C324.589 406.262 324.313 405.938 324.121 405.542C323.929 405.146 323.833 404.66 323.833 404.084C323.833 403.532 323.941 403.064 324.157 402.68C324.385 402.296 324.685 401.99 325.057 401.762C325.429 401.534 325.855 401.372 326.335 401.276C326.815 401.168 327.313 401.114 327.829 401.114C328.177 401.114 328.483 401.132 328.747 401.168C329.023 401.192 329.245 401.228 329.413 401.276V401.024C329.413 400.568 329.275 400.202 328.999 399.926C328.723 399.65 328.243 399.512 327.559 399.512C327.103 399.512 326.653 399.548 326.209 399.62C325.765 399.68 325.381 399.77 325.057 399.89L324.715 397.73C324.871 397.682 325.063 397.634 325.291 397.586C325.531 397.526 325.789 397.478 326.065 397.442C326.341 397.394 326.629 397.358 326.929 397.334C327.241 397.298 327.553 397.28 327.865 397.28ZM334.322 395.174L337.004 394.742V397.532H340.226V399.764H337.004V403.094C337.004 403.658 337.1 404.108 337.292 404.444C337.496 404.78 337.898 404.948 338.498 404.948C338.786 404.948 339.08 404.924 339.38 404.876C339.692 404.816 339.974 404.738 340.226 404.642L340.604 406.73C340.28 406.862 339.92 406.976 339.524 407.072C339.128 407.168 338.642 407.216 338.066 407.216C337.334 407.216 336.728 407.12 336.248 406.928C335.768 406.724 335.384 406.448 335.096 406.1C334.808 405.74 334.604 405.308 334.484 404.804C334.376 404.3 334.322 403.742 334.322 403.13V395.174ZM345.092 407H342.41V397.532H345.092V407ZM345.344 394.796C345.344 395.288 345.182 395.678 344.858 395.966C344.546 396.242 344.174 396.38 343.742 396.38C343.31 396.38 342.932 396.242 342.608 395.966C342.296 395.678 342.14 395.288 342.14 394.796C342.14 394.304 342.296 393.92 342.608 393.644C342.932 393.356 343.31 393.212 343.742 393.212C344.174 393.212 344.546 393.356 344.858 393.644C345.182 393.92 345.344 394.304 345.344 394.796ZM356.47 402.248C356.47 402.992 356.362 403.676 356.146 404.3C355.93 404.912 355.618 405.44 355.21 405.884C354.802 406.316 354.31 406.652 353.734 406.892C353.17 407.132 352.534 407.252 351.826 407.252C351.13 407.252 350.494 407.132 349.918 406.892C349.354 406.652 348.868 406.316 348.46 405.884C348.052 405.44 347.734 404.912 347.506 404.3C347.278 403.676 347.164 402.992 347.164 402.248C347.164 401.504 347.278 400.826 347.506 400.214C347.746 399.602 348.07 399.08 348.478 398.648C348.898 398.216 349.39 397.88 349.954 397.64C350.53 397.4 351.154 397.28 351.826 397.28C352.51 397.28 353.134 397.4 353.698 397.64C354.274 397.88 354.766 398.216 355.174 398.648C355.582 399.08 355.9 399.602 356.128 400.214C356.356 400.826 356.47 401.504 356.47 402.248ZM353.734 402.248C353.734 401.42 353.566 400.772 353.23 400.304C352.906 399.824 352.438 399.584 351.826 399.584C351.214 399.584 350.74 399.824 350.404 400.304C350.068 400.772 349.9 401.42 349.9 402.248C349.9 403.076 350.068 403.736 350.404 404.228C350.74 404.708 351.214 404.948 351.826 404.948C352.438 404.948 352.906 404.708 353.23 404.228C353.566 403.736 353.734 403.076 353.734 402.248ZM358.547 397.856C359.003 397.724 359.591 397.604 360.311 397.496C361.031 397.376 361.787 397.316 362.579 397.316C363.383 397.316 364.049 397.424 364.577 397.64C365.117 397.844 365.543 398.138 365.855 398.522C366.167 398.906 366.389 399.362 366.521 399.89C366.653 400.418 366.719 401.006 366.719 401.654V407H364.037V401.978C364.037 401.114 363.923 400.502 363.695 400.142C363.467 399.782 363.041 399.602 362.417 399.602C362.225 399.602 362.021 399.614 361.805 399.638C361.589 399.65 361.397 399.668 361.229 399.692V407H358.547V397.856Z" fill="#004E82"/>
<defs>
<linearGradient id="paint0_linear" x1="211.918" y1="111.793" x2="211.918" y2="292.506" gradientUnits="userSpaceOnUse">
<stop stop-color="#B0E7C6"/>
<stop offset="1" stop-color="#5DD1B3"/>
</linearGradient>
<linearGradient id="paint1_linear" x1="211.918" y1="111.793" x2="211.918" y2="292.506" gradientUnits="userSpaceOnUse">
<stop stop-color="#B0E7C6"/>
<stop offset="1" stop-color="#5DD1B3"/>
</linearGradient>
<linearGradient id="paint2_linear" x1="194.28" y1="97.1403" x2="194.28" y2="301.732" gradientUnits="userSpaceOnUse">
<stop stop-color="#85BEFF"/>
<stop offset="1" stop-color="#5183BB"/>
</linearGradient>
<linearGradient id="paint3_linear" x1="100.5" y1="389" x2="100.5" y2="412" gradientUnits="userSpaceOnUse">
<stop stop-color="#B0E7C6"/>
<stop offset="1" stop-color="#5DD1B3"/>
</linearGradient>
<linearGradient id="paint4_linear" x1="242.5" y1="389" x2="242.5" y2="412" gradientUnits="userSpaceOnUse">
<stop stop-color="#85BEFF"/>
<stop offset="1" stop-color="#5183BB"/>
</linearGradient>
</defs>
</svg>
