<svg width="25" height="24" viewBox="0 0 25 24" fill="none" xmlns="http://www.w3.org/2000/svg">
<ellipse cx="12.3203" cy="12" rx="12.3203" ry="12" fill="white"/>
<ellipse cx="12.3203" cy="12" rx="12.3203" ry="12" fill="#7450C8" fill-opacity="0.02"/>
<mask id="mask0" mask-type="alpha" maskUnits="userSpaceOnUse" x="0" y="0" width="25" height="24">
<ellipse cx="12.3203" cy="12" rx="12.3203" ry="12" fill="white"/>
</mask>
<g mask="url(#mask0)">
<path fill-rule="evenodd" clip-rule="evenodd" d="M0 12C0 5.37258 5.516 0 12.3203 0C15.5879 0 18.7216 1.26428 21.0321 3.51472C23.3426 5.76515 24.6407 8.8174 24.6407 12C24.6407 18.6274 19.1247 24 12.3203 24C5.516 24 0 18.6274 0 12ZM11.2977 16.128C11.3432 16.0651 11.3926 16.005 11.4456 15.948C11.6769 15.7208 11.9918 15.593 12.3203 15.593C12.6488 15.593 12.9637 15.7208 13.1951 15.948C13.4257 16.1745 13.5543 16.481 13.5524 16.8C13.5583 16.9552 13.5331 17.1101 13.4784 17.256C13.3664 17.5575 13.1227 17.7949 12.8131 17.904C12.5149 18.0324 12.175 18.0324 11.8768 17.904C11.5673 17.7949 11.3235 17.5575 11.2115 17.256C11.1425 17.1136 11.1088 16.9574 11.1129 16.8C11.1069 16.7201 11.1069 16.6399 11.1129 16.56C11.1264 16.4848 11.1513 16.412 11.1869 16.344C11.2138 16.2675 11.2511 16.1949 11.2977 16.128ZM12.3203 21.6C6.87686 21.6 2.46406 17.3019 2.46406 12C2.46406 6.69807 6.87686 2.4 12.3203 2.4C17.7638 2.4 22.1766 6.69807 22.1766 12C22.1766 14.5461 21.1382 16.9879 19.2897 18.7882C17.4413 20.5886 14.9344 21.6 12.3203 21.6ZM9.11703 7.8C9.7777 6.68544 10.999 5.99917 12.3203 6C14.1092 6.01352 15.6314 7.27297 15.9344 8.99027C16.2373 10.7076 15.234 12.3897 13.5524 12.984V13.2C13.5524 13.8627 13.0008 14.4 12.3203 14.4C11.6399 14.4 11.0883 13.8627 11.0883 13.2V12C11.0883 11.3373 11.6399 10.8 12.3203 10.8C13.0008 10.8 13.5524 10.2627 13.5524 9.6C13.5524 8.93726 13.0008 8.4 12.3203 8.4C11.8784 8.39829 11.4694 8.62724 11.2485 9C11.0387 9.39057 10.626 9.6377 10.1734 9.64366C9.72093 9.64963 9.30148 9.41348 9.08094 9.02857C8.86039 8.64367 8.87425 8.17199 9.11703 7.8Z" fill="#7450C8"/>
</g>
</svg>
