<svg width="480" height="433" viewBox="0 0 480 433" fill="none" xmlns="http://www.w3.org/2000/svg">
<path d="M235.231 101.19L239.015 94.13L240.337 94.8385L240.907 93.7755L241.476 94.8385L242.798 94.13L246.582 101.19L245.26 101.899L249.043 108.959L250.365 108.25L254.149 115.31L252.827 116.019L256.61 123.079L257.933 122.37L261.716 129.43L260.394 130.139L264.178 137.199L265.5 136.49L269.283 143.55L267.961 144.259L271.745 151.319L273.067 150.61L276.85 157.67L275.528 158.379L279.312 165.439L280.634 164.73L284.417 171.79L283.095 172.499L286.879 179.559L288.201 178.85L291.984 185.91L290.662 186.618L294.446 193.679L295.768 192.97L299.551 200.03L298.229 200.739L302.013 207.799L303.335 207.09L307.119 214.15L305.796 214.859L309.58 221.919L310.902 221.21L314.686 228.27L313.364 228.979L317.147 236.038L318.469 235.33L322.253 242.39L320.931 243.099L324.714 250.159L326.036 249.45L329.82 256.51L328.498 257.219L332.281 264.279L333.603 263.57L337.387 270.63L336.065 271.339L339.848 278.398L341.17 277.69L344.954 284.75L343.632 285.458L347.415 292.518L348.738 291.81L352.521 298.87L351.199 299.579L351.907 300.9H350.359V302.4H342.251V300.9H334.144V302.4H326.036V300.9H317.929V302.4H309.821V300.9H301.713V302.4H293.606V300.9H285.498V302.4H277.391V300.9H269.283V302.4H261.176V300.9H253.068V302.4H244.96V300.9H236.853V302.4H228.745V300.9H220.638V302.4H212.53V300.9H204.422V302.4H196.315V300.9H188.207V302.4H180.1V300.9H171.992V302.4H163.884V300.9H155.777V302.4H147.669V300.9H139.562V302.4H131.454V300.9H129.906L130.614 299.579L129.292 298.87L133.076 291.81L134.398 292.518L138.181 285.459L136.859 284.75L140.643 277.69L141.965 278.398L145.748 271.339L144.426 270.63L148.21 263.57L149.532 264.279L153.315 257.219L151.993 256.51L155.777 249.45L157.099 250.159L160.883 243.098L159.56 242.39L163.344 235.33L164.666 236.038L168.45 228.979L167.128 228.27L170.911 221.21L172.233 221.919L176.017 214.858L174.695 214.15L178.478 207.09L179.8 207.799L183.584 200.739L182.262 200.03L186.045 192.97L187.367 193.679L191.151 186.618L189.829 185.91L193.612 178.85L194.934 179.559L198.718 172.499L197.396 171.79L201.179 164.73L202.502 165.439L206.285 158.379L204.963 157.67L208.746 150.61L210.069 151.319L213.852 144.259L212.53 143.55L216.314 136.49L217.636 137.199L221.419 130.139L220.097 129.43L223.881 122.37L225.203 123.079L228.986 116.019L227.664 115.31L231.448 108.25L232.77 108.959L236.553 101.899L235.231 101.19Z" stroke="black" stroke-opacity="0.1" stroke-width="3" stroke-dasharray="8 8"/>
<g filter="url(#filter0_d)">
<ellipse cx="241.814" cy="98.2936" rx="78.4581" ry="78.2936" fill="white"/>
</g>
<g clip-path="url(#clip0)">
<path d="M278.162 114.986H202.744C201.028 114.986 199.637 113.598 199.637 111.886V59.3058C199.637 57.5933 201.028 56.2051 202.744 56.2051H278.162C279.878 56.2051 281.269 57.5933 281.269 59.3058V111.886C281.269 113.598 279.878 114.986 278.162 114.986Z" fill="url(#paint0_linear)"/>
<path d="M281.269 68.7556H199.637V59.3058C199.637 57.5933 201.028 56.2051 202.744 56.2051H278.162C279.878 56.2051 281.269 57.5933 281.269 59.3058V68.7556Z" fill="url(#paint1_linear)"/>
<path d="M206.176 64.9942H204.538C203.599 64.9942 202.838 64.2345 202.838 63.2974V61.6634C202.838 60.7263 203.599 59.9666 204.538 59.9666H206.176C207.115 59.9666 207.876 60.7263 207.876 61.6634V63.2972C207.876 64.2345 207.115 64.9942 206.176 64.9942Z" fill="url(#paint2_linear)"/>
<path d="M212.6 64.9942H210.962C210.023 64.9942 209.262 64.2345 209.262 63.2974V61.6634C209.262 60.7263 210.023 59.9666 210.962 59.9666H212.599C213.538 59.9666 214.3 60.7263 214.3 61.6634V63.2972C214.3 64.2345 213.539 64.9942 212.6 64.9942Z" fill="url(#paint3_linear)"/>
<path d="M219.023 64.9942H217.386C216.447 64.9942 215.686 64.2345 215.686 63.2974V61.6634C215.686 60.7263 216.447 59.9666 217.386 59.9666H219.023C219.962 59.9666 220.724 60.7263 220.724 61.6634V63.2972C220.724 64.2345 219.962 64.9942 219.023 64.9942Z" fill="url(#paint4_linear)"/>
<path d="M199.637 100.689V111.886C199.637 113.598 201.028 114.986 202.744 114.986H278.162C279.878 114.986 281.269 113.598 281.269 111.886V100.689H199.637Z" fill="url(#paint5_linear)"/>
<path d="M226.225 101.789H209.515C208.354 101.789 207.413 100.85 207.413 99.6919V79.5332C207.413 78.3749 208.354 77.4358 209.515 77.4358H226.225C227.386 77.4358 228.327 78.3749 228.327 79.5332V99.6919C228.327 100.85 227.386 101.789 226.225 101.789Z" fill="#B5DBFF"/>
<path d="M245.498 83.5045H234.038C233.198 83.5045 232.518 82.8252 232.518 81.9871V78.9522C232.518 78.1141 233.198 77.4348 234.038 77.4348H245.498C246.338 77.4348 247.019 78.1141 247.019 78.9522V81.9871C247.019 82.8252 246.338 83.5045 245.498 83.5045Z" fill="#B5DBFF"/>
<path d="M271.973 83.5045H251.965C251.125 83.5045 250.444 82.8252 250.444 81.9871V78.9522C250.444 78.1141 251.125 77.4348 251.965 77.4348H271.973C272.813 77.4348 273.494 78.1141 273.494 78.9522V81.9871C273.494 82.8252 272.813 83.5045 271.973 83.5045Z" fill="#B5DBFF"/>
<path d="M260.512 92.6466H271.972C272.812 92.6466 273.493 91.9672 273.493 91.1291V88.0943C273.493 87.2562 272.812 86.5769 271.972 86.5769H260.512C259.672 86.5769 258.991 87.2562 258.991 88.0943V91.1291C258.991 91.9672 259.672 92.6466 260.512 92.6466Z" fill="#B5DBFF"/>
<path d="M234.038 92.6466H254.046C254.886 92.6466 255.567 91.9672 255.567 91.1291V88.0943C255.567 87.2562 254.886 86.5769 254.046 86.5769H234.038C233.198 86.5769 232.518 87.2562 232.518 88.0943V91.1291C232.518 91.9672 233.198 92.6466 234.038 92.6466Z" fill="#B5DBFF"/>
<path d="M245.498 101.788H234.038C233.198 101.788 232.518 101.109 232.518 100.271V97.2362C232.518 96.3981 233.198 95.7188 234.038 95.7188H245.498C246.338 95.7188 247.019 96.3981 247.019 97.2362V100.271C247.019 101.109 246.338 101.788 245.498 101.788Z" fill="#B5DBFF"/>
<path d="M271.973 101.788H251.965C251.125 101.788 250.444 101.109 250.444 100.271V97.2362C250.444 96.3981 251.125 95.7188 251.965 95.7188H271.973C272.813 95.7188 273.494 96.3981 273.494 97.2362V100.271C273.494 101.109 272.813 101.788 271.973 101.788Z" fill="#B5DBFF"/>
<path d="M264.034 83.2529C257.104 83.2529 250.386 80.8702 245.011 76.5061C242.356 74.3514 238.551 74.3512 235.897 76.5061C230.521 80.8702 223.803 83.2529 216.873 83.2529C214.709 83.2529 212.955 85.0033 212.955 87.1629V97.6419C212.955 111.085 219.021 123.813 229.471 132.297L232.696 134.916C237.215 138.584 243.693 138.584 248.211 134.916L251.437 132.297C261.886 123.813 267.952 111.084 267.952 97.6414C267.952 93.6181 267.952 89.8375 267.952 87.1619C267.952 85.0024 266.198 83.2529 264.034 83.2529Z" fill="url(#paint6_linear)"/>
<path d="M240.453 134.217C239.698 134.217 238.959 133.955 238.373 133.479L232.204 128.471C227.698 124.813 223.998 120.113 221.504 114.878C219.009 109.644 217.69 103.813 217.69 98.0166V89.7007C217.69 88.6947 218.515 87.8392 219.521 87.786C226.387 87.4238 233.024 84.8833 238.373 80.5406C238.959 80.0648 239.698 79.8028 240.453 79.8028C241.209 79.8028 241.947 80.0648 242.533 80.5406C247.883 84.8834 254.52 87.4239 261.385 87.786C262.392 87.8392 263.216 88.6944 263.216 89.7004V98.016C263.216 103.812 261.897 109.643 259.403 114.878C256.908 120.112 253.208 124.813 248.702 128.471L242.533 133.479C241.947 133.955 241.209 134.217 240.453 134.217Z" fill="url(#paint7_linear)"/>
<path d="M240.453 131.921C239.762 131.921 239.085 131.681 238.549 131.245L232.9 126.66C228.775 123.311 225.387 119.007 223.103 114.214C220.819 109.421 219.611 104.083 219.611 98.7755V91.1614C219.611 90.2402 220.366 89.4571 221.288 89.4084C227.574 89.0766 233.651 86.7507 238.549 82.7744C239.085 82.3386 239.762 82.0987 240.453 82.0987C241.145 82.0987 241.821 82.3386 242.358 82.7742C247.256 86.7505 253.333 89.0766 259.619 89.4084C260.541 89.4569 261.295 90.2401 261.295 91.1611V98.775C261.295 104.082 260.088 109.421 257.804 114.214C255.52 119.007 252.132 123.31 248.006 126.66L242.358 131.245C241.821 131.681 241.145 131.921 240.453 131.921Z" fill="url(#paint8_linear)"/>
<path d="M267.952 87.1618C267.952 85.0024 266.197 83.2528 264.034 83.2528C257.104 83.2528 250.386 80.8701 245.01 76.506C243.683 75.4286 242.068 74.8899 240.453 74.8899V137.667C243.202 137.667 245.951 136.75 248.211 134.915L251.436 132.297C261.886 123.813 267.952 111.084 267.952 97.6411C267.952 93.618 267.952 89.8373 267.952 87.1618Z" fill="url(#paint9_linear)"/>
<path d="M240.453 122.154C249.446 122.154 256.736 114.879 256.736 105.905C256.736 96.9307 249.446 89.6558 240.453 89.6558C231.46 89.6558 224.17 96.9307 224.17 105.905C224.17 114.879 231.46 122.154 240.453 122.154Z" fill="url(#paint10_linear)"/>
<path d="M253.602 96.3206L241.143 108.753C240.994 108.903 240.57 109.186 240.453 109.186C240.336 109.186 240.165 109.155 240.015 109.005L234.121 103.124C232.889 101.894 231.017 101.894 229.785 103.124C228.552 104.353 228.426 106.095 229.658 107.325L244.106 121.743C251.34 120.088 256.736 113.625 256.736 105.905C256.736 102.32 255.572 99.0076 253.602 96.3206Z" fill="url(#paint11_linear)"/>
<path d="M240.453 115.232C238.602 115.232 236.861 114.513 235.552 113.206L229.659 107.325C228.426 106.095 228.426 104.101 229.659 102.872C230.891 101.642 232.889 101.642 234.121 102.872L240.015 108.753C240.165 108.903 240.336 108.934 240.453 108.934C240.57 108.934 240.741 108.903 240.891 108.753L256.519 93.158C257.751 91.9283 259.749 91.9284 260.982 93.158C262.214 94.3878 262.214 96.3816 260.982 97.6114L245.354 113.207C244.045 114.513 242.304 115.232 240.453 115.232Z" fill="url(#paint12_linear)"/>
</g>
<g filter="url(#filter1_d)">
<ellipse cx="361.542" cy="294.706" rx="78.4581" ry="78.2936" fill="white"/>
</g>
<g clip-path="url(#clip1)">
<path d="M398.282 323.957H323.896C321.895 323.957 320.272 322.339 320.272 320.342V292.438C320.272 290.441 321.895 288.822 323.896 288.822H398.282C400.283 288.822 401.905 290.441 401.905 292.438V320.342C401.905 322.339 400.283 323.957 398.282 323.957Z" fill="url(#paint13_linear)"/>
<path d="M394.658 319.601H327.52C325.878 319.601 324.547 318.273 324.547 316.634V296.145C324.547 294.507 325.878 293.178 327.52 293.178H394.658C396.3 293.178 397.631 294.507 397.631 296.145V316.634C397.631 318.273 396.3 319.601 394.658 319.601Z" fill="url(#paint14_linear)"/>
<path d="M359.089 319.602H337.181L330.031 312.467C329.527 312.158 329.122 311.676 329.122 311.048C329.122 310.595 329.296 310.212 329.54 309.931L330.673 308.322L327.936 305.515C327.319 305.253 327.022 304.619 327.022 303.822C327.022 302.914 327.827 301.9 328.946 301.9C329.051 301.9 329.227 301.9 329.471 302.005L333.145 303.193L332.969 299.632C333.005 298.478 333.88 297.956 334.858 297.956C335.594 297.956 336.251 298.25 336.547 298.884L339.921 302.129L340.284 302.005C340.457 301.936 340.633 301.9 340.807 301.9C341.437 301.9 341.949 302.291 342.266 302.815L348.018 308.555L359.089 319.602Z" fill="url(#paint15_linear)"/>
<path d="M376.599 319.602H354.692L347.542 312.466C347.038 312.158 346.633 311.675 346.633 311.048C346.633 310.595 346.806 310.211 347.051 309.931L348.02 308.555L348.184 308.322L345.446 305.514C344.829 305.253 344.533 304.618 344.533 303.821C344.533 302.914 345.337 301.9 346.457 301.9C346.562 301.9 346.738 301.9 346.982 302.005L350.656 303.192L350.48 299.631C350.516 298.478 351.391 297.956 352.369 297.956C353.105 297.956 353.76 298.249 354.058 298.884L357.431 302.129L357.792 302.005C357.968 301.936 358.144 301.9 358.318 301.9C358.948 301.9 359.46 302.291 359.777 302.815L376.599 319.602Z" fill="url(#paint16_linear)"/>
<path d="M394.106 319.602H372.201L365.051 312.466C364.546 312.158 364.139 311.675 364.139 311.048C364.139 310.595 364.315 310.211 364.56 309.931L365.528 308.555L365.693 308.322L362.953 305.514C362.338 305.253 362.04 304.618 362.04 303.821C362.04 302.914 362.846 301.9 363.966 301.9C364.071 301.9 364.244 301.9 364.491 302.005L368.164 303.192L367.989 299.631C368.025 298.478 368.898 297.956 369.878 297.956C370.613 297.956 371.269 298.249 371.567 298.884L374.94 302.129L375.301 302.005C375.477 301.936 375.651 301.9 375.826 301.9C376.457 301.9 376.967 302.291 377.286 302.815L383.038 308.555L394.106 319.602Z" fill="url(#paint17_linear)"/>
<path d="M397.631 305.644V316.634C397.631 318.273 396.3 319.602 394.659 319.602H389.709L382.559 312.466C382.057 312.158 381.65 311.675 381.65 311.048C381.65 310.595 381.826 310.211 382.07 309.931L383.039 308.555L383.203 308.322L380.464 305.514C379.849 305.253 379.551 304.618 379.551 303.821C379.551 302.914 380.357 301.9 381.476 301.9C381.581 301.9 381.755 301.9 382 302.005L385.675 303.192L385.499 299.631C385.534 298.478 386.409 297.956 387.389 297.956C388.124 297.956 388.779 298.249 389.077 298.884L392.449 302.129L392.812 302.005C392.988 301.936 393.161 301.9 393.337 301.9C393.968 301.9 394.478 302.291 394.797 302.815L397.631 305.644Z" fill="url(#paint18_linear)"/>
<path d="M340.318 309.966C340.493 310.176 340.598 310.595 340.598 310.979C340.598 312.096 339.478 312.864 338.464 312.864C338.079 312.864 337.519 312.795 337.134 312.201L334.86 308.709L332.551 312.236C332.236 312.76 331.816 312.864 331.326 312.864C330.486 312.864 329.122 312.201 329.122 311.049C329.122 310.595 329.297 310.211 329.542 309.931L331.851 306.649L328.212 305.602C327.407 305.427 327.022 304.729 327.022 303.821C327.022 302.913 327.827 301.901 328.947 301.901C329.052 301.901 329.363 301.912 329.607 302.017L333.146 303.193L332.97 299.631C333.005 298.479 333.88 297.955 334.86 297.955C335.84 297.955 336.679 298.479 336.714 299.631L336.574 303.263L340.283 302.006C340.458 301.936 340.633 301.901 340.808 301.901C341.893 301.901 342.627 303.053 342.627 304.066C342.627 304.764 342.278 305.427 341.438 305.602L337.869 306.44L340.318 309.966Z" fill="url(#paint19_linear)"/>
<path d="M357.828 309.966C358.003 310.176 358.108 310.595 358.108 310.979C358.108 312.096 356.988 312.864 355.974 312.864C355.589 312.864 355.029 312.795 354.644 312.201L352.37 308.709L350.061 312.236C349.746 312.76 349.326 312.864 348.836 312.864C347.996 312.864 346.632 312.201 346.632 311.049C346.632 310.595 346.807 310.211 347.051 309.931L349.361 306.649L345.722 305.602C344.917 305.427 344.532 304.729 344.532 303.821C344.532 302.913 345.337 301.901 346.457 301.901C346.562 301.901 346.737 301.901 346.982 302.006L350.655 303.193L350.48 299.631C350.515 298.479 351.39 297.955 352.37 297.955C353.35 297.955 354.189 298.479 354.224 299.631L354.084 303.263L357.793 302.006C357.968 301.936 358.143 301.901 358.318 301.901C359.403 301.901 360.137 303.053 360.137 304.066C360.137 304.764 359.787 305.427 358.948 305.602L355.379 306.44L357.828 309.966Z" fill="url(#paint20_linear)"/>
<path d="M375.337 309.966C375.512 310.176 375.617 310.595 375.617 310.979C375.617 312.096 374.497 312.864 373.482 312.864C373.098 312.864 372.538 312.795 372.153 312.201L369.879 308.709L367.569 312.236C367.254 312.76 366.835 312.864 366.345 312.864C365.505 312.864 364.14 312.201 364.14 311.049C364.14 310.595 364.315 310.211 364.56 309.931L366.87 306.649L363.231 305.602C362.426 305.427 362.041 304.729 362.041 303.821C362.041 302.913 362.846 301.901 363.965 301.901C364.07 301.901 364.245 301.901 364.49 302.006L368.164 303.193L367.989 299.631C368.024 298.479 368.899 297.955 369.879 297.955C370.858 297.955 371.698 298.479 371.733 299.631L371.593 303.263L375.302 302.006C375.477 301.936 375.652 301.901 375.827 301.901C376.911 301.901 377.646 303.053 377.646 304.066C377.646 304.764 377.296 305.427 376.457 305.602L372.888 306.44L375.337 309.966Z" fill="url(#paint21_linear)"/>
<path d="M392.847 309.966C393.022 310.176 393.126 310.595 393.126 310.979C393.126 312.096 392.007 312.864 390.992 312.864C390.607 312.864 390.048 312.795 389.663 312.201L387.388 308.709L385.079 312.236C384.764 312.76 384.344 312.864 383.854 312.864C383.015 312.864 381.65 312.201 381.65 311.049C381.65 310.595 381.825 310.211 382.07 309.931L384.379 306.649L380.741 305.602C379.936 305.427 379.551 304.729 379.551 303.821C379.551 302.913 380.356 301.901 381.475 301.901C381.58 301.901 381.755 301.901 382 302.006L385.674 303.193L385.499 299.631C385.534 298.479 386.409 297.955 387.388 297.955C388.368 297.955 389.208 298.479 389.243 299.631L389.103 303.263L392.812 302.006C392.987 301.936 393.162 301.901 393.336 301.901C394.421 301.901 395.156 303.053 395.156 304.066C395.156 304.764 394.806 305.427 393.966 305.602L390.397 306.44L392.847 309.966Z" fill="url(#paint22_linear)"/>
<path d="M374.64 273.517H369.527V271.36C369.527 266.426 365.504 262.412 360.56 262.412C355.615 262.412 351.593 266.426 351.593 271.36V273.517H346.479V271.36C346.479 263.612 352.796 257.309 360.56 257.309C368.323 257.309 374.64 263.612 374.64 271.36V273.517Z" fill="url(#paint23_linear)"/>
<path d="M360.56 260.072C354.12 260.072 348.88 265.301 348.88 271.728V273.517H351.593V271.36C351.593 266.426 355.616 262.412 360.56 262.412C365.504 262.412 369.527 266.426 369.527 271.36V273.517H372.24V271.728C372.24 265.301 367 260.072 360.56 260.072Z" fill="url(#paint24_linear)"/>
<path d="M374.071 299.302H348.105C346.131 299.302 344.531 297.705 344.531 295.735V275.908C344.531 273.938 346.132 272.341 348.105 272.341H374.072C376.046 272.341 377.646 273.938 377.646 275.908V295.735C377.646 297.705 376.045 299.302 374.071 299.302Z" fill="url(#paint25_linear)"/>
<path d="M367.437 283.28C367.437 279.782 364.595 276.946 361.09 276.946C357.584 276.946 354.742 279.782 354.742 283.28C354.742 285.757 356.167 287.9 358.243 288.942V291.856C358.243 293.425 359.518 294.697 361.09 294.697C362.662 294.697 363.936 293.425 363.936 291.856V288.942C366.012 287.9 367.437 285.757 367.437 283.28Z" fill="url(#paint26_linear)"/>
<path d="M361.089 293.05C360.429 293.05 359.892 292.515 359.892 291.856V287.926L358.984 287.47C357.385 286.668 356.392 285.063 356.392 283.28C356.392 280.695 358.499 278.593 361.089 278.593C363.679 278.593 365.786 280.696 365.786 283.28C365.786 285.062 364.793 286.668 363.194 287.47L362.285 287.926V291.856C362.285 292.515 361.748 293.05 361.089 293.05Z" fill="url(#paint27_linear)"/>
<path d="M344.532 290.337V295.735C344.532 297.705 346.133 299.302 348.106 299.302H374.073C376.047 299.302 377.647 297.705 377.647 295.735V290.337H344.532Z" fill="url(#paint28_linear)"/>
<path d="M320.272 312.864V320.342C320.272 322.339 321.895 323.957 323.896 323.957H398.282C400.283 323.957 401.905 322.339 401.905 320.342V312.864H320.272Z" fill="url(#paint29_linear)"/>
</g>
<g filter="url(#filter2_d)">
<ellipse cx="118.458" cy="294.706" rx="78.4581" ry="78.2936" fill="white"/>
</g>
<g clip-path="url(#clip2)">
<path d="M134.868 262.573H107.006V254.654C107.006 252.03 109.138 249.903 111.767 249.903H130.107C132.736 249.903 134.868 252.03 134.868 254.654V262.573Z" fill="url(#paint30_linear)"/>
<path d="M127.709 262.573H99.8467V254.654C99.8467 252.03 101.978 249.903 104.608 249.903H122.948C125.577 249.903 127.709 252.03 127.709 254.654V262.573Z" fill="url(#paint31_linear)"/>
<path d="M120.126 258.921V254.654C120.126 252.03 117.994 249.903 115.365 249.903H97.0249C94.3954 249.903 92.2637 252.03 92.2637 254.654V305.956C92.2637 309.694 95.3006 312.725 99.0467 312.725H151.007C154.753 312.725 157.79 309.694 157.79 305.956V267.758C157.79 264.019 154.753 260.989 151.007 260.989H122.198C121.054 260.989 120.126 260.063 120.126 258.921Z" fill="url(#paint32_linear)"/>
<path d="M138.198 270.301H136.565C135.628 270.301 134.868 269.543 134.868 268.608V266.978C134.868 266.043 135.628 265.285 136.565 265.285H138.198C139.135 265.285 139.894 266.043 139.894 266.978V268.608C139.895 269.543 139.135 270.301 138.198 270.301Z" fill="url(#paint33_linear)"/>
<path d="M144.607 270.301H142.974C142.037 270.301 141.277 269.543 141.277 268.608V266.978C141.277 266.043 142.037 265.285 142.974 265.285H144.607C145.544 265.285 146.304 266.043 146.304 266.978V268.608C146.304 269.543 145.544 270.301 144.607 270.301Z" fill="url(#paint34_linear)"/>
<path d="M151.016 270.301H149.382C148.445 270.301 147.686 269.543 147.686 268.608V266.978C147.686 266.043 148.445 265.285 149.382 265.285H151.016C151.952 265.285 152.712 266.043 152.712 266.978V268.608C152.712 269.543 151.953 270.301 151.016 270.301Z" fill="url(#paint35_linear)"/>
<path d="M151.007 312.725C154.753 312.725 157.79 309.694 157.79 305.956V281.306L149.089 272.623C147.845 271.205 146.02 270.308 143.984 270.308H136.028L126.787 260.989H122.198H92.2637V305.884C92.2637 309.662 95.3326 312.725 99.1183 312.725H151.007V312.725Z" fill="url(#paint36_linear)"/>
<path d="M92.2637 298.471V305.956C92.2637 309.694 95.3006 312.725 99.0467 312.725H151.007C154.753 312.725 157.79 309.694 157.79 305.956V298.471H92.2637Z" fill="url(#paint37_linear)"/>
<path d="M127.844 271.892H99.9824V263.974C99.9824 261.35 102.114 259.222 104.744 259.222H123.083C125.713 259.222 127.845 261.35 127.845 263.974V271.892H127.844Z" fill="url(#paint38_linear)"/>
<path d="M120.685 271.892H92.8232V263.974C92.8232 261.35 94.955 259.222 97.5845 259.222H115.924C118.554 259.222 120.685 261.35 120.685 263.974V271.892H120.685Z" fill="url(#paint39_linear)"/>
<path d="M113.103 268.241V263.974C113.103 261.35 110.972 259.222 108.342 259.222H90.0025C87.3729 259.222 85.2412 261.35 85.2412 263.974V315.276C85.2412 319.014 88.2781 322.045 92.0242 322.045H143.984C147.73 322.045 150.767 319.014 150.767 315.276V277.077C150.767 273.339 147.73 270.309 143.984 270.309H115.175C114.031 270.309 113.103 269.383 113.103 268.241Z" fill="url(#paint40_linear)"/>
<path d="M131.175 279.62H129.541C128.604 279.62 127.845 278.862 127.845 277.928V276.297C127.845 275.363 128.604 274.605 129.541 274.605H131.175C132.112 274.605 132.871 275.363 132.871 276.297V277.928C132.871 278.862 132.112 279.62 131.175 279.62Z" fill="url(#paint41_linear)"/>
<path d="M137.584 279.62H135.95C135.013 279.62 134.254 278.862 134.254 277.928V276.297C134.254 275.363 135.013 274.605 135.95 274.605H137.584C138.521 274.605 139.28 275.363 139.28 276.297V277.928C139.28 278.862 138.521 279.62 137.584 279.62Z" fill="url(#paint42_linear)"/>
<path d="M143.992 279.62H142.358C141.422 279.62 140.662 278.862 140.662 277.928V276.297C140.662 275.363 141.422 274.605 142.358 274.605H143.992C144.929 274.605 145.688 275.363 145.688 276.297V277.928C145.689 278.862 144.929 279.62 143.992 279.62Z" fill="url(#paint43_linear)"/>
<path d="M143.983 322.045C147.729 322.045 150.766 319.014 150.766 315.276V290.625L142.065 281.943C140.822 280.525 138.996 279.628 136.96 279.628H129.004L119.764 270.309H115.174H85.2402V315.204C85.2402 318.982 88.3091 322.045 92.0948 322.045H143.983Z" fill="url(#paint44_linear)"/>
<path d="M85.2402 307.791V315.276C85.2402 319.014 88.2771 322.045 92.0233 322.045H143.983C147.729 322.045 150.766 319.014 150.766 315.276V307.791H85.2402Z" fill="url(#paint45_linear)"/>
<path d="M120.823 281.212H92.9609V273.293C92.9609 270.669 95.0927 268.542 97.7222 268.542H116.062C118.691 268.542 120.823 270.669 120.823 273.293V281.212H120.823Z" fill="url(#paint46_linear)"/>
<path d="M113.664 281.212H85.8018V273.293C85.8018 270.669 87.9335 268.542 90.563 268.542H108.903C111.532 268.542 113.664 270.669 113.664 273.293V281.212H113.664Z" fill="url(#paint47_linear)"/>
<path d="M106.081 277.56V273.293C106.081 270.669 103.949 268.542 101.32 268.542H82.98C80.3505 268.542 78.2188 270.669 78.2188 273.293V324.595C78.2188 328.334 81.2555 331.364 85.0018 331.364H136.962C140.708 331.364 143.745 328.334 143.745 324.595V286.397C143.745 282.659 140.708 279.628 136.962 279.628H108.153C107.009 279.628 106.081 278.702 106.081 277.56Z" fill="url(#paint48_linear)"/>
<path d="M124.153 288.94H122.52C121.583 288.94 120.823 288.182 120.823 287.247V285.617C120.823 284.682 121.583 283.924 122.52 283.924H124.153C125.09 283.924 125.85 284.682 125.85 285.617V287.247C125.85 288.182 125.09 288.94 124.153 288.94Z" fill="url(#paint49_linear)"/>
<path d="M130.562 288.94H128.929C127.992 288.94 127.232 288.182 127.232 287.247V285.617C127.232 284.682 127.992 283.924 128.929 283.924H130.562C131.499 283.924 132.259 284.682 132.259 285.617V287.247C132.259 288.182 131.499 288.94 130.562 288.94Z" fill="url(#paint50_linear)"/>
<path d="M136.971 288.94H135.337C134.4 288.94 133.641 288.182 133.641 287.247V285.617C133.641 284.682 134.4 283.924 135.337 283.924H136.971C137.907 283.924 138.667 284.682 138.667 285.617V287.247C138.667 288.182 137.908 288.94 136.971 288.94Z" fill="url(#paint51_linear)"/>
<path d="M78.2188 317.11V324.595C78.2188 328.334 81.2555 331.364 85.0018 331.364H136.962C140.708 331.364 143.745 328.334 143.745 324.595V317.11H78.2188Z" fill="url(#paint52_linear)"/>
</g>
<defs>
<filter id="filter0_d" x="123.356" y="0" width="236.916" height="236.587" filterUnits="userSpaceOnUse" color-interpolation-filters="sRGB">
<feFlood flood-opacity="0" result="BackgroundImageFix"/>
<feColorMatrix in="SourceAlpha" type="matrix" values="0 0 0 0 0 0 0 0 0 0 0 0 0 0 0 0 0 0 127 0"/>
<feOffset dy="20"/>
<feGaussianBlur stdDeviation="20"/>
<feColorMatrix type="matrix" values="0 0 0 0 0 0 0 0 0 0 0 0 0 0 0 0 0 0 0.1 0"/>
<feBlend mode="normal" in2="BackgroundImageFix" result="effect1_dropShadow"/>
<feBlend mode="normal" in="SourceGraphic" in2="effect1_dropShadow" result="shape"/>
</filter>
<filter id="filter1_d" x="243.084" y="196.413" width="236.916" height="236.587" filterUnits="userSpaceOnUse" color-interpolation-filters="sRGB">
<feFlood flood-opacity="0" result="BackgroundImageFix"/>
<feColorMatrix in="SourceAlpha" type="matrix" values="0 0 0 0 0 0 0 0 0 0 0 0 0 0 0 0 0 0 127 0"/>
<feOffset dy="20"/>
<feGaussianBlur stdDeviation="20"/>
<feColorMatrix type="matrix" values="0 0 0 0 0 0 0 0 0 0 0 0 0 0 0 0 0 0 0.1 0"/>
<feBlend mode="normal" in2="BackgroundImageFix" result="effect1_dropShadow"/>
<feBlend mode="normal" in="SourceGraphic" in2="effect1_dropShadow" result="shape"/>
</filter>
<filter id="filter2_d" x="0" y="196.413" width="236.916" height="236.587" filterUnits="userSpaceOnUse" color-interpolation-filters="sRGB">
<feFlood flood-opacity="0" result="BackgroundImageFix"/>
<feColorMatrix in="SourceAlpha" type="matrix" values="0 0 0 0 0 0 0 0 0 0 0 0 0 0 0 0 0 0 127 0"/>
<feOffset dy="20"/>
<feGaussianBlur stdDeviation="20"/>
<feColorMatrix type="matrix" values="0 0 0 0 0 0 0 0 0 0 0 0 0 0 0 0 0 0 0.1 0"/>
<feBlend mode="normal" in2="BackgroundImageFix" result="effect1_dropShadow"/>
<feBlend mode="normal" in="SourceGraphic" in2="effect1_dropShadow" result="shape"/>
</filter>
<linearGradient id="paint0_linear" x1="218.509" y1="63.698" x2="264.32" y2="109.605" gradientUnits="userSpaceOnUse">
<stop stop-color="#EDF5FF"/>
<stop offset="1" stop-color="#D5E8FE"/>
</linearGradient>
<linearGradient id="paint1_linear" x1="239.884" y1="55.2918" x2="241.133" y2="74.4348" gradientUnits="userSpaceOnUse">
<stop stop-color="#B5DBFF"/>
<stop offset="1" stop-color="#48B2E3"/>
</linearGradient>
<linearGradient id="paint2_linear" x1="204.797" y1="62.0549" x2="207.095" y2="63.8095" gradientUnits="userSpaceOnUse">
<stop stop-color="#FF637B"/>
<stop offset="1" stop-color="#E63950"/>
</linearGradient>
<linearGradient id="paint3_linear" x1="211.221" y1="62.0549" x2="213.519" y2="63.8095" gradientUnits="userSpaceOnUse">
<stop stop-color="#FFDA2D"/>
<stop offset="1" stop-color="#FDBF00"/>
</linearGradient>
<linearGradient id="paint4_linear" x1="216.981" y1="61.2597" x2="222.425" y2="66.7152" gradientUnits="userSpaceOnUse">
<stop stop-color="#B9DD39"/>
<stop offset="1" stop-color="#0B799D"/>
</linearGradient>
<linearGradient id="paint5_linear" x1="240.453" y1="107.507" x2="240.453" y2="123.319" gradientUnits="userSpaceOnUse">
<stop stop-color="#B5DBFF" stop-opacity="0"/>
<stop offset="0.2428" stop-color="#93CEF6" stop-opacity="0.243"/>
<stop offset="0.5763" stop-color="#6ABFEC" stop-opacity="0.576"/>
<stop offset="0.8403" stop-color="#51B5E5" stop-opacity="0.84"/>
<stop offset="1" stop-color="#48B2E3"/>
</linearGradient>
<linearGradient id="paint6_linear" x1="217.414" y1="77.8536" x2="264.739" y2="125.278" gradientUnits="userSpaceOnUse">
<stop stop-color="#76E2F8"/>
<stop offset="1" stop-color="#48B2E3"/>
</linearGradient>
<linearGradient id="paint7_linear" x1="271.398" y1="132.478" x2="229.526" y2="90.518" gradientUnits="userSpaceOnUse">
<stop stop-color="#B5DBFF" stop-opacity="0"/>
<stop offset="0.2428" stop-color="#93CEF6" stop-opacity="0.243"/>
<stop offset="0.5763" stop-color="#6ABFEC" stop-opacity="0.576"/>
<stop offset="0.8403" stop-color="#51B5E5" stop-opacity="0.84"/>
<stop offset="1" stop-color="#48B2E3"/>
</linearGradient>
<linearGradient id="paint8_linear" x1="232.34" y1="93.959" x2="250.734" y2="112.391" gradientUnits="userSpaceOnUse">
<stop stop-color="#EDF5FF"/>
<stop offset="1" stop-color="#D5E8FE"/>
</linearGradient>
<linearGradient id="paint9_linear" x1="246.169" y1="107.336" x2="208.331" y2="89.1354" gradientUnits="userSpaceOnUse">
<stop stop-color="#B5DBFF" stop-opacity="0"/>
<stop offset="0.1734" stop-color="#8FC5E9" stop-opacity="0.173"/>
<stop offset="0.4541" stop-color="#56A4C8" stop-opacity="0.454"/>
<stop offset="0.6955" stop-color="#2D8DB1" stop-opacity="0.696"/>
<stop offset="0.8853" stop-color="#147EA2" stop-opacity="0.885"/>
<stop offset="1" stop-color="#0B799D"/>
</linearGradient>
<linearGradient id="paint10_linear" x1="232.879" y1="98.3471" x2="248.541" y2="114.042" gradientUnits="userSpaceOnUse">
<stop stop-color="#B9DD39"/>
<stop offset="1" stop-color="#90CC1C"/>
</linearGradient>
<linearGradient id="paint11_linear" x1="255.253" y1="115.417" x2="249.429" y2="109.581" gradientUnits="userSpaceOnUse">
<stop stop-color="#66BB00" stop-opacity="0"/>
<stop offset="1" stop-color="#66BB00"/>
</linearGradient>
<linearGradient id="paint12_linear" x1="239.02" y1="93.9544" x2="255.241" y2="110.21" gradientUnits="userSpaceOnUse">
<stop stop-color="#0B799D"/>
<stop offset="1" stop-color="#07485E"/>
</linearGradient>
<linearGradient id="paint13_linear" x1="342.841" y1="288.18" x2="379.289" y2="324.705" gradientUnits="userSpaceOnUse">
<stop stop-color="#76E2F8"/>
<stop offset="1" stop-color="#48B2E3"/>
</linearGradient>
<linearGradient id="paint14_linear" x1="345.518" y1="290.851" x2="376.62" y2="322.018" gradientUnits="userSpaceOnUse">
<stop stop-color="#EDF5FF"/>
<stop offset="1" stop-color="#D5E8FE"/>
</linearGradient>
<linearGradient id="paint15_linear" x1="342.994" y1="312.92" x2="301.97" y2="287.252" gradientUnits="userSpaceOnUse">
<stop stop-color="#B5DBFF" stop-opacity="0"/>
<stop offset="0.1734" stop-color="#8FC5E9" stop-opacity="0.173"/>
<stop offset="0.4541" stop-color="#56A4C8" stop-opacity="0.454"/>
<stop offset="0.6955" stop-color="#2D8DB1" stop-opacity="0.696"/>
<stop offset="0.8853" stop-color="#147EA2" stop-opacity="0.885"/>
<stop offset="1" stop-color="#0B799D"/>
</linearGradient>
<linearGradient id="paint16_linear" x1="359.416" y1="312.242" x2="318.392" y2="286.573" gradientUnits="userSpaceOnUse">
<stop stop-color="#B5DBFF" stop-opacity="0"/>
<stop offset="0.1734" stop-color="#8FC5E9" stop-opacity="0.173"/>
<stop offset="0.4541" stop-color="#56A4C8" stop-opacity="0.454"/>
<stop offset="0.6955" stop-color="#2D8DB1" stop-opacity="0.696"/>
<stop offset="0.8853" stop-color="#147EA2" stop-opacity="0.885"/>
<stop offset="1" stop-color="#0B799D"/>
</linearGradient>
<linearGradient id="paint17_linear" x1="377.55" y1="312.631" x2="336.527" y2="286.963" gradientUnits="userSpaceOnUse">
<stop stop-color="#B5DBFF" stop-opacity="0"/>
<stop offset="0.1734" stop-color="#8FC5E9" stop-opacity="0.173"/>
<stop offset="0.4541" stop-color="#56A4C8" stop-opacity="0.454"/>
<stop offset="0.6955" stop-color="#2D8DB1" stop-opacity="0.696"/>
<stop offset="0.8853" stop-color="#147EA2" stop-opacity="0.885"/>
<stop offset="1" stop-color="#0B799D"/>
</linearGradient>
<linearGradient id="paint18_linear" x1="390.995" y1="310.099" x2="364.835" y2="293.731" gradientUnits="userSpaceOnUse">
<stop stop-color="#B5DBFF" stop-opacity="0"/>
<stop offset="0.1734" stop-color="#8FC5E9" stop-opacity="0.173"/>
<stop offset="0.4541" stop-color="#56A4C8" stop-opacity="0.454"/>
<stop offset="0.6955" stop-color="#2D8DB1" stop-opacity="0.696"/>
<stop offset="0.8853" stop-color="#147EA2" stop-opacity="0.885"/>
<stop offset="1" stop-color="#0B799D"/>
</linearGradient>
<linearGradient id="paint19_linear" x1="334.825" y1="301.229" x2="334.825" y2="317.415" gradientUnits="userSpaceOnUse">
<stop stop-color="#B9DD39"/>
<stop offset="1" stop-color="#0B799D"/>
</linearGradient>
<linearGradient id="paint20_linear" x1="352.335" y1="301.229" x2="352.335" y2="317.415" gradientUnits="userSpaceOnUse">
<stop stop-color="#B9DD39"/>
<stop offset="1" stop-color="#0B799D"/>
</linearGradient>
<linearGradient id="paint21_linear" x1="369.843" y1="301.229" x2="369.843" y2="317.415" gradientUnits="userSpaceOnUse">
<stop stop-color="#B9DD39"/>
<stop offset="1" stop-color="#0B799D"/>
</linearGradient>
<linearGradient id="paint22_linear" x1="387.353" y1="301.229" x2="387.353" y2="317.415" gradientUnits="userSpaceOnUse">
<stop stop-color="#B9DD39"/>
<stop offset="1" stop-color="#0B799D"/>
</linearGradient>
<linearGradient id="paint23_linear" x1="352.481" y1="261.471" x2="365.628" y2="274.646" gradientUnits="userSpaceOnUse">
<stop stop-color="#EDF5FF"/>
<stop offset="1" stop-color="#B5DBFF"/>
</linearGradient>
<linearGradient id="paint24_linear" x1="360.56" y1="270.927" x2="360.56" y2="239.404" gradientUnits="userSpaceOnUse">
<stop stop-color="#B5DBFF" stop-opacity="0"/>
<stop offset="0.2428" stop-color="#93CEF6" stop-opacity="0.243"/>
<stop offset="0.5763" stop-color="#6ABFEC" stop-opacity="0.576"/>
<stop offset="0.8403" stop-color="#51B5E5" stop-opacity="0.84"/>
<stop offset="1" stop-color="#48B2E3"/>
</linearGradient>
<linearGradient id="paint25_linear" x1="352.335" y1="277.086" x2="366.98" y2="291.762" gradientUnits="userSpaceOnUse">
<stop stop-color="#FFDA2D"/>
<stop offset="1" stop-color="#FDBF00"/>
</linearGradient>
<linearGradient id="paint26_linear" x1="367.505" y1="291.5" x2="352.897" y2="276.861" gradientUnits="userSpaceOnUse">
<stop stop-color="#FFDA2D"/>
<stop offset="1" stop-color="#FDBF00"/>
</linearGradient>
<linearGradient id="paint27_linear" x1="366.117" y1="290.116" x2="354.668" y2="278.644" gradientUnits="userSpaceOnUse">
<stop stop-color="#0B799D"/>
<stop offset="1" stop-color="#07485E"/>
</linearGradient>
<linearGradient id="paint28_linear" x1="361.09" y1="295.053" x2="361.09" y2="299.464" gradientUnits="userSpaceOnUse">
<stop stop-color="#FF9100" stop-opacity="0"/>
<stop offset="1" stop-color="#FF9100"/>
</linearGradient>
<linearGradient id="paint29_linear" x1="361.089" y1="317.971" x2="361.089" y2="324.886" gradientUnits="userSpaceOnUse">
<stop stop-color="#B5DBFF" stop-opacity="0"/>
<stop offset="0.1734" stop-color="#8FC5E9" stop-opacity="0.173"/>
<stop offset="0.4541" stop-color="#56A4C8" stop-opacity="0.454"/>
<stop offset="0.6955" stop-color="#2D8DB1" stop-opacity="0.696"/>
<stop offset="0.8853" stop-color="#147EA2" stop-opacity="0.885"/>
<stop offset="1" stop-color="#0B799D"/>
</linearGradient>
<linearGradient id="paint30_linear" x1="120.937" y1="252.542" x2="120.937" y2="262.579" gradientUnits="userSpaceOnUse">
<stop stop-color="#66BB00"/>
<stop offset="1" stop-color="#0B799D"/>
</linearGradient>
<linearGradient id="paint31_linear" x1="113.778" y1="252.542" x2="113.778" y2="262.579" gradientUnits="userSpaceOnUse">
<stop stop-color="#90CC1C"/>
<stop offset="1" stop-color="#66BB00"/>
</linearGradient>
<linearGradient id="paint32_linear" x1="114.185" y1="253.157" x2="143.413" y2="344.391" gradientUnits="userSpaceOnUse">
<stop stop-color="#B9DD39"/>
<stop offset="1" stop-color="#0B799D"/>
</linearGradient>
<linearGradient id="paint33_linear" x1="136.823" y1="267.368" x2="139.116" y2="269.119" gradientUnits="userSpaceOnUse">
<stop stop-color="#FDBF00"/>
<stop offset="1" stop-color="#FF9100"/>
</linearGradient>
<linearGradient id="paint34_linear" x1="143.232" y1="267.368" x2="145.525" y2="269.119" gradientUnits="userSpaceOnUse">
<stop stop-color="#FDBF00"/>
<stop offset="1" stop-color="#FF9100"/>
</linearGradient>
<linearGradient id="paint35_linear" x1="149.64" y1="267.368" x2="151.933" y2="269.119" gradientUnits="userSpaceOnUse">
<stop stop-color="#FDBF00"/>
<stop offset="1" stop-color="#FF9100"/>
</linearGradient>
<linearGradient id="paint36_linear" x1="123.934" y1="286.921" x2="148.369" y2="223.742" gradientUnits="userSpaceOnUse">
<stop stop-color="#0B799D" stop-opacity="0"/>
<stop offset="0.3645" stop-color="#096380" stop-opacity="0.365"/>
<stop offset="0.76" stop-color="#084F67" stop-opacity="0.76"/>
<stop offset="1" stop-color="#07485E"/>
</linearGradient>
<linearGradient id="paint37_linear" x1="125.027" y1="304.454" x2="125.027" y2="317.657" gradientUnits="userSpaceOnUse">
<stop stop-color="#0B799D" stop-opacity="0"/>
<stop offset="0.3645" stop-color="#096380" stop-opacity="0.365"/>
<stop offset="0.76" stop-color="#084F67" stop-opacity="0.76"/>
<stop offset="1" stop-color="#07485E"/>
</linearGradient>
<linearGradient id="paint38_linear" x1="113.913" y1="261.862" x2="113.913" y2="271.899" gradientUnits="userSpaceOnUse">
<stop stop-color="#0095FF"/>
<stop offset="1" stop-color="#0B799D"/>
</linearGradient>
<linearGradient id="paint39_linear" x1="106.754" y1="261.862" x2="106.754" y2="271.899" gradientUnits="userSpaceOnUse">
<stop stop-color="#48B2E3"/>
<stop offset="1" stop-color="#0095FF"/>
</linearGradient>
<linearGradient id="paint40_linear" x1="89.8435" y1="268.075" x2="131.836" y2="310.156" gradientUnits="userSpaceOnUse">
<stop stop-color="#76E2F8"/>
<stop offset="1" stop-color="#48B2E3"/>
</linearGradient>
<linearGradient id="paint41_linear" x1="129.799" y1="276.688" x2="132.092" y2="278.439" gradientUnits="userSpaceOnUse">
<stop stop-color="#EDF5FF"/>
<stop offset="1" stop-color="#D5E8FE"/>
</linearGradient>
<linearGradient id="paint42_linear" x1="136.209" y1="276.688" x2="138.502" y2="278.439" gradientUnits="userSpaceOnUse">
<stop stop-color="#EDF5FF"/>
<stop offset="1" stop-color="#D5E8FE"/>
</linearGradient>
<linearGradient id="paint43_linear" x1="142.617" y1="276.688" x2="144.91" y2="278.439" gradientUnits="userSpaceOnUse">
<stop stop-color="#EDF5FF"/>
<stop offset="1" stop-color="#D5E8FE"/>
</linearGradient>
<linearGradient id="paint44_linear" x1="117.229" y1="322.696" x2="118.596" y2="269.746" gradientUnits="userSpaceOnUse">
<stop stop-color="#B5DBFF" stop-opacity="0"/>
<stop offset="0.1734" stop-color="#8FC5E9" stop-opacity="0.173"/>
<stop offset="0.4541" stop-color="#56A4C8" stop-opacity="0.454"/>
<stop offset="0.6955" stop-color="#2D8DB1" stop-opacity="0.696"/>
<stop offset="0.8853" stop-color="#147EA2" stop-opacity="0.885"/>
<stop offset="1" stop-color="#0B799D"/>
</linearGradient>
<linearGradient id="paint45_linear" x1="118.003" y1="313.774" x2="118.003" y2="326.976" gradientUnits="userSpaceOnUse">
<stop stop-color="#B5DBFF" stop-opacity="0"/>
<stop offset="0.1734" stop-color="#8FC5E9" stop-opacity="0.173"/>
<stop offset="0.4541" stop-color="#56A4C8" stop-opacity="0.454"/>
<stop offset="0.6955" stop-color="#2D8DB1" stop-opacity="0.696"/>
<stop offset="0.8853" stop-color="#147EA2" stop-opacity="0.885"/>
<stop offset="1" stop-color="#0B799D"/>
</linearGradient>
<linearGradient id="paint46_linear" x1="106.892" y1="271.182" x2="106.892" y2="281.218" gradientUnits="userSpaceOnUse">
<stop stop-color="#FF9100"/>
<stop offset="1" stop-color="#E63950"/>
</linearGradient>
<linearGradient id="paint47_linear" x1="99.7328" y1="271.182" x2="99.7328" y2="281.218" gradientUnits="userSpaceOnUse">
<stop stop-color="#FDBF00"/>
<stop offset="1" stop-color="#FF9100"/>
</linearGradient>
<linearGradient id="paint48_linear" x1="82.8209" y1="277.394" x2="124.814" y2="319.476" gradientUnits="userSpaceOnUse">
<stop stop-color="#FFDA2D"/>
<stop offset="1" stop-color="#FDBF00"/>
</linearGradient>
<linearGradient id="paint49_linear" x1="122.778" y1="286.007" x2="125.071" y2="287.758" gradientUnits="userSpaceOnUse">
<stop stop-color="#FF637B"/>
<stop offset="1" stop-color="#E63950"/>
</linearGradient>
<linearGradient id="paint50_linear" x1="129.187" y1="286.007" x2="131.48" y2="287.758" gradientUnits="userSpaceOnUse">
<stop stop-color="#FF637B"/>
<stop offset="1" stop-color="#E63950"/>
</linearGradient>
<linearGradient id="paint51_linear" x1="135.595" y1="286.007" x2="137.888" y2="287.758" gradientUnits="userSpaceOnUse">
<stop stop-color="#FF637B"/>
<stop offset="1" stop-color="#E63950"/>
</linearGradient>
<linearGradient id="paint52_linear" x1="110.982" y1="323.093" x2="110.982" y2="336.296" gradientUnits="userSpaceOnUse">
<stop stop-color="#FF9100" stop-opacity="0"/>
<stop offset="1" stop-color="#FF9100"/>
</linearGradient>
<clipPath id="clip0">
<rect width="81.6327" height="81.4615" fill="white" transform="translate(199.637 56.2051)"/>
</clipPath>
<clipPath id="clip1">
<rect width="81.6327" height="81.4615" fill="white" transform="translate(320.272 249.903)"/>
</clipPath>
<clipPath id="clip2">
<rect width="81.6327" height="81.4615" fill="white" transform="translate(77.1885 249.903)"/>
</clipPath>
</defs>
</svg>
