<svg width="472" height="152" viewBox="0 0 472 152" fill="none" xmlns="http://www.w3.org/2000/svg">
<path d="M54.088 20.144C53.2133 20.144 52.392 20.0267 51.624 19.792C50.8667 19.5573 50.2213 19.2213 49.688 18.784L50.392 17.28C50.9467 17.696 51.5227 18.0053 52.12 18.208C52.728 18.4 53.3893 18.496 54.104 18.496C54.8933 18.496 55.5013 18.3573 55.928 18.08C56.3653 17.8027 56.584 17.4133 56.584 16.912C56.584 16.4853 56.3813 16.16 55.976 15.936C55.5813 15.7013 54.9253 15.4827 54.008 15.28C52.5787 14.9707 51.5387 14.5707 50.888 14.08C50.2373 13.5893 49.912 12.8747 49.912 11.936C49.912 11.264 50.0933 10.6667 50.456 10.144C50.8187 9.62133 51.3307 9.21067 51.992 8.912C52.664 8.61333 53.4373 8.464 54.312 8.464C55.112 8.464 55.8693 8.58667 56.584 8.832C57.3093 9.06667 57.9013 9.39733 58.36 9.824L57.672 11.328C56.6587 10.5173 55.5387 10.112 54.312 10.112C53.576 10.112 52.9947 10.2667 52.568 10.576C52.1413 10.8747 51.928 11.2853 51.928 11.808C51.928 12.256 52.1147 12.5973 52.488 12.832C52.872 13.0667 53.5227 13.2853 54.44 13.488C55.3893 13.712 56.1627 13.9573 56.76 14.224C57.3573 14.48 57.816 14.816 58.136 15.232C58.456 15.6373 58.616 16.1493 58.616 16.768C58.616 17.4507 58.4347 18.048 58.072 18.56C57.7093 19.0613 57.1867 19.4507 56.504 19.728C55.8213 20.0053 55.016 20.144 54.088 20.144ZM67.4569 16.064H61.8889C61.9315 16.928 62.1449 17.568 62.5289 17.984C62.9235 18.3893 63.5049 18.592 64.2729 18.592C65.1582 18.592 65.9795 18.304 66.7369 17.728L67.3129 19.104C66.9289 19.4133 66.4542 19.664 65.8889 19.856C65.3342 20.0373 64.7689 20.128 64.1929 20.128C62.8702 20.128 61.8302 19.7547 61.0729 19.008C60.3155 18.2613 59.9369 17.2373 59.9369 15.936C59.9369 15.1147 60.1022 14.384 60.4329 13.744C60.7635 13.104 61.2275 12.608 61.8249 12.256C62.4222 11.8933 63.0995 11.712 63.8569 11.712C64.9662 11.712 65.8409 12.0747 66.4809 12.8C67.1315 13.5147 67.4569 14.5013 67.4569 15.76V16.064ZM63.9049 13.152C63.3715 13.152 62.9342 13.312 62.5929 13.632C62.2622 13.9413 62.0489 14.3947 61.9529 14.992H65.7129C65.6489 14.384 65.4622 13.9253 65.1529 13.616C64.8542 13.3067 64.4382 13.152 63.9049 13.152ZM73.7745 11.712C75.7052 11.712 76.6705 12.8213 76.6705 15.04V20H74.6705V15.136C74.6705 14.496 74.5478 14.032 74.3025 13.744C74.0572 13.4453 73.6785 13.296 73.1665 13.296C72.5585 13.296 72.0678 13.4933 71.6945 13.888C71.3212 14.272 71.1345 14.784 71.1345 15.424V20H69.1505V14.208C69.1505 13.3547 69.1078 12.592 69.0225 11.92H70.8945L71.0385 13.248C71.3158 12.7573 71.6892 12.3787 72.1585 12.112C72.6385 11.8453 73.1772 11.712 73.7745 11.712ZM86.5191 8.224V20H84.5511V18.704C84.3058 19.152 83.9538 19.504 83.4951 19.76C83.0365 20.0053 82.5138 20.128 81.9271 20.128C81.2338 20.128 80.6151 19.952 80.0711 19.6C79.5271 19.248 79.1005 18.752 78.7911 18.112C78.4925 17.4613 78.3431 16.72 78.3431 15.888C78.3431 15.056 78.4925 14.3253 78.7911 13.696C79.0898 13.0667 79.5111 12.5813 80.0551 12.24C80.5991 11.888 81.2231 11.712 81.9271 11.712C82.5031 11.712 83.0151 11.8347 83.4631 12.08C83.9218 12.3147 84.2738 12.6507 84.5191 13.088V8.224H86.5191ZM82.4551 18.56C83.1165 18.56 83.6285 18.3307 83.9911 17.872C84.3645 17.4133 84.5511 16.7627 84.5511 15.92C84.5511 15.0773 84.3698 14.4267 84.0071 13.968C83.6445 13.5093 83.1325 13.28 82.4711 13.28C81.7991 13.28 81.2765 13.5093 80.9031 13.968C80.5405 14.416 80.3591 15.056 80.3591 15.888C80.3591 16.7307 80.5405 17.3867 80.9031 17.856C81.2765 18.3253 81.7938 18.56 82.4551 18.56ZM100.16 16.064H94.592C94.6347 16.928 94.848 17.568 95.232 17.984C95.6267 18.3893 96.208 18.592 96.976 18.592C97.8613 18.592 98.6827 18.304 99.44 17.728L100.016 19.104C99.632 19.4133 99.1573 19.664 98.592 19.856C98.0373 20.0373 97.472 20.128 96.896 20.128C95.5733 20.128 94.5333 19.7547 93.776 19.008C93.0187 18.2613 92.64 17.2373 92.64 15.936C92.64 15.1147 92.8053 14.384 93.136 13.744C93.4667 13.104 93.9307 12.608 94.528 12.256C95.1253 11.8933 95.8027 11.712 96.56 11.712C97.6693 11.712 98.544 12.0747 99.184 12.8C99.8347 13.5147 100.16 14.5013 100.16 15.76V16.064ZM96.608 13.152C96.0747 13.152 95.6373 13.312 95.296 13.632C94.9653 13.9413 94.752 14.3947 94.656 14.992H98.416C98.352 14.384 98.1653 13.9253 97.856 13.616C97.5573 13.3067 97.1413 13.152 96.608 13.152ZM111.39 11.712C112.307 11.712 112.99 11.9893 113.438 12.544C113.886 13.088 114.11 13.92 114.11 15.04V20H112.11V15.104C112.11 14.464 112.003 14.0053 111.79 13.728C111.587 13.44 111.246 13.296 110.766 13.296C110.211 13.296 109.774 13.4933 109.454 13.888C109.144 14.272 108.99 14.8053 108.99 15.488V20H106.99V15.104C106.99 14.4747 106.878 14.016 106.654 13.728C106.44 13.44 106.099 13.296 105.63 13.296C105.075 13.296 104.638 13.4933 104.318 13.888C103.998 14.272 103.838 14.8053 103.838 15.488V20H101.854V14.208C101.854 13.3547 101.811 12.592 101.726 11.92H103.598L103.742 13.2C103.976 12.72 104.312 12.352 104.75 12.096C105.198 11.84 105.71 11.712 106.286 11.712C107.523 11.712 108.328 12.224 108.702 13.248C108.958 12.768 109.32 12.3947 109.79 12.128C110.27 11.8507 110.803 11.712 111.39 11.712ZM123.972 11.92V20H122.004V18.704C121.759 19.152 121.407 19.504 120.948 19.76C120.49 20.0053 119.967 20.128 119.38 20.128C118.676 20.128 118.052 19.9573 117.508 19.616C116.964 19.2747 116.543 18.7893 116.244 18.16C115.946 17.5307 115.796 16.8 115.796 15.968C115.796 15.136 115.946 14.4 116.244 13.76C116.554 13.1093 116.98 12.608 117.524 12.256C118.068 11.8933 118.687 11.712 119.38 11.712C119.967 11.712 120.49 11.84 120.948 12.096C121.407 12.3413 121.759 12.688 122.004 13.136V11.92H123.972ZM119.924 18.56C120.586 18.56 121.098 18.3307 121.46 17.872C121.823 17.4133 122.004 16.768 122.004 15.936C122.004 15.0827 121.823 14.4267 121.46 13.968C121.098 13.5093 120.58 13.28 119.908 13.28C119.247 13.28 118.73 13.52 118.356 14C117.994 14.4693 117.812 15.1253 117.812 15.968C117.812 16.8 117.994 17.44 118.356 17.888C118.73 18.336 119.252 18.56 119.924 18.56ZM126.151 11.92H128.135V20H126.151V11.92ZM128.247 8.256V10.224H126.023V8.256H128.247ZM130.322 8.224H132.306V20H130.322V8.224ZM146.613 11.92V20H144.645V18.704C144.4 19.152 144.048 19.504 143.589 19.76C143.13 20.0053 142.608 20.128 142.021 20.128C141.317 20.128 140.693 19.9573 140.149 19.616C139.605 19.2747 139.184 18.7893 138.885 18.16C138.586 17.5307 138.437 16.8 138.437 15.968C138.437 15.136 138.586 14.4 138.885 13.76C139.194 13.1093 139.621 12.608 140.165 12.256C140.709 11.8933 141.328 11.712 142.021 11.712C142.608 11.712 143.13 11.84 143.589 12.096C144.048 12.3413 144.4 12.688 144.645 13.136V11.92H146.613ZM142.565 18.56C143.226 18.56 143.738 18.3307 144.101 17.872C144.464 17.4133 144.645 16.768 144.645 15.936C144.645 15.0827 144.464 14.4267 144.101 13.968C143.738 13.5093 143.221 13.28 142.549 13.28C141.888 13.28 141.37 13.52 140.997 14C140.634 14.4693 140.453 15.1253 140.453 15.968C140.453 16.8 140.634 17.44 140.997 17.888C141.37 18.336 141.893 18.56 142.565 18.56ZM148.791 8.224H150.775V20H148.791V8.224ZM160.035 16.064H154.467C154.51 16.928 154.723 17.568 155.107 17.984C155.502 18.3893 156.083 18.592 156.851 18.592C157.736 18.592 158.558 18.304 159.315 17.728L159.891 19.104C159.507 19.4133 159.032 19.664 158.467 19.856C157.912 20.0373 157.347 20.128 156.771 20.128C155.448 20.128 154.408 19.7547 153.651 19.008C152.894 18.2613 152.515 17.2373 152.515 15.936C152.515 15.1147 152.68 14.384 153.011 13.744C153.342 13.104 153.806 12.608 154.403 12.256C155 11.8933 155.678 11.712 156.435 11.712C157.544 11.712 158.419 12.0747 159.059 12.8C159.71 13.5147 160.035 14.5013 160.035 15.76V16.064ZM156.483 13.152C155.95 13.152 155.512 13.312 155.171 13.632C154.84 13.9413 154.627 14.3947 154.531 14.992H158.291C158.227 14.384 158.04 13.9253 157.731 13.616C157.432 13.3067 157.016 13.152 156.483 13.152ZM166.081 11.728C166.39 11.728 166.657 11.7707 166.881 11.856L166.865 13.68C166.523 13.5413 166.171 13.472 165.809 13.472C165.126 13.472 164.603 13.6693 164.241 14.064C163.889 14.4587 163.713 14.9813 163.713 15.632V20H161.729V14.208C161.729 13.3547 161.686 12.592 161.601 11.92H163.473L163.633 13.344C163.835 12.8213 164.155 12.4213 164.593 12.144C165.03 11.8667 165.526 11.728 166.081 11.728ZM171.273 13.424V17.04C171.273 17.9893 171.715 18.464 172.601 18.464C172.846 18.464 173.113 18.4213 173.401 18.336V19.92C173.049 20.048 172.622 20.112 172.121 20.112C171.203 20.112 170.499 19.856 170.009 19.344C169.518 18.832 169.273 18.096 169.273 17.136V13.424H167.721V11.92H169.273V9.952L171.273 9.28V11.92H173.417V13.424H171.273ZM177.751 20.128C176.29 20.128 175.127 19.7867 174.263 19.104L174.823 17.696C175.687 18.336 176.674 18.656 177.783 18.656C178.263 18.656 178.631 18.576 178.887 18.416C179.154 18.256 179.287 18.032 179.287 17.744C179.287 17.4987 179.196 17.3067 179.015 17.168C178.834 17.0187 178.524 16.8907 178.087 16.784L176.743 16.48C175.271 16.16 174.535 15.408 174.535 14.224C174.535 13.7333 174.674 13.3013 174.951 12.928C175.228 12.544 175.618 12.2453 176.119 12.032C176.62 11.8187 177.202 11.712 177.863 11.712C178.439 11.712 178.994 11.8027 179.527 11.984C180.06 12.1547 180.53 12.4053 180.935 12.736L180.343 14.096C179.532 13.4987 178.7 13.2 177.847 13.2C177.388 13.2 177.031 13.2853 176.775 13.456C176.519 13.6267 176.391 13.8613 176.391 14.16C176.391 14.3947 176.466 14.5813 176.615 14.72C176.775 14.8587 177.042 14.976 177.415 15.072L178.791 15.376C179.591 15.5573 180.172 15.84 180.535 16.224C180.908 16.5973 181.095 17.088 181.095 17.696C181.095 18.4427 180.796 19.0347 180.199 19.472C179.602 19.9093 178.786 20.128 177.751 20.128ZM191.021 9.808C190.157 9.808 189.725 10.2827 189.725 11.232V11.92H191.533V13.424H189.725V20H187.725V13.424H186.189V11.92H187.725V11.136C187.725 10.176 187.965 9.44 188.445 8.928C188.936 8.40533 189.635 8.144 190.541 8.144C191.043 8.144 191.464 8.208 191.805 8.336V9.92C191.507 9.84533 191.245 9.808 191.021 9.808ZM196.658 20.128C195.837 20.128 195.112 19.9573 194.482 19.616C193.864 19.2747 193.384 18.7893 193.042 18.16C192.712 17.52 192.546 16.7733 192.546 15.92C192.546 15.0667 192.712 14.3253 193.042 13.696C193.384 13.056 193.864 12.5653 194.482 12.224C195.112 11.8827 195.837 11.712 196.658 11.712C197.469 11.712 198.184 11.8827 198.802 12.224C199.421 12.5653 199.896 13.056 200.226 13.696C200.568 14.3253 200.738 15.0667 200.738 15.92C200.738 16.7733 200.568 17.52 200.226 18.16C199.896 18.7893 199.421 19.2747 198.802 19.616C198.184 19.9573 197.469 20.128 196.658 20.128ZM196.642 18.56C197.325 18.56 197.842 18.3413 198.194 17.904C198.557 17.456 198.738 16.7947 198.738 15.92C198.738 15.056 198.557 14.4 198.194 13.952C197.832 13.4933 197.32 13.264 196.658 13.264C195.986 13.264 195.469 13.4933 195.106 13.952C194.744 14.4 194.562 15.056 194.562 15.92C194.562 16.7947 194.738 17.456 195.09 17.904C195.453 18.3413 195.97 18.56 196.642 18.56ZM206.815 11.728C207.124 11.728 207.391 11.7707 207.615 11.856L207.599 13.68C207.258 13.5413 206.906 13.472 206.543 13.472C205.86 13.472 205.338 13.6693 204.975 14.064C204.623 14.4587 204.447 14.9813 204.447 15.632V20H202.463V14.208C202.463 13.3547 202.42 12.592 202.335 11.92H204.207L204.367 13.344C204.57 12.8213 204.89 12.4213 205.327 12.144C205.764 11.8667 206.26 11.728 206.815 11.728ZM211.026 12.096V14.32H208.786V12.096H211.026ZM211.026 17.76V20H208.786V17.76H211.026Z" fill="black"/>
<g filter="url(#filter0_d)">
<rect x="40" y="36" width="392" height="58" rx="10" fill="white"/>
</g>
<path d="M55.528 71L51.528 59.608H52.872L56.36 69.88H55.848L59.416 59.608L60.424 59.624L63.928 69.88H63.432L66.952 59.608H68.248L64.264 71H63.144L59.72 61.176H60.072L56.632 71H55.528ZM70.0449 71V59.224H71.3409V64.584L71.1329 64.744C71.3569 64.0933 71.7302 63.6027 72.2529 63.272C72.7755 62.9307 73.3782 62.76 74.0609 62.76C75.9915 62.76 76.9569 63.8213 76.9569 65.944V71H75.6609V66.008C75.6609 65.2613 75.5115 64.7173 75.2129 64.376C74.9142 64.024 74.4449 63.848 73.8049 63.848C73.0582 63.848 72.4609 64.0773 72.0129 64.536C71.5649 64.9947 71.3409 65.6133 71.3409 66.392V71H70.0449ZM85.9963 70.04C85.6443 70.3707 85.1909 70.632 84.6363 70.824C84.0923 71.016 83.5323 71.112 82.9563 71.112C82.1243 71.112 81.4043 70.9467 80.7963 70.616C80.1989 70.2853 79.7349 69.8107 79.4043 69.192C79.0843 68.5627 78.9243 67.816 78.9243 66.952C78.9243 66.12 79.0843 65.3893 79.4043 64.76C79.7243 64.1307 80.1669 63.64 80.7323 63.288C81.3083 62.936 81.9696 62.76 82.7163 62.76C83.4309 62.76 84.0443 62.92 84.5563 63.24C85.0683 63.5493 85.4576 63.9973 85.7243 64.584C86.0016 65.1707 86.1403 65.8747 86.1403 66.696V66.936H80.0603V66.088H85.4043L84.9883 66.68C85.0096 65.7413 84.8229 65.0213 84.4283 64.52C84.0443 64.0187 83.4789 63.768 82.7323 63.768C81.9536 63.768 81.3403 64.0453 80.8923 64.6C80.4549 65.144 80.2363 65.9013 80.2363 66.872C80.2363 67.9173 80.4656 68.7067 80.9243 69.24C81.3936 69.7733 82.0763 70.04 82.9723 70.04C83.4416 70.04 83.8896 69.9653 84.3163 69.816C84.7536 69.656 85.1696 69.416 85.5643 69.096L85.9963 70.04ZM88.1074 71V65.208C88.1074 64.8347 88.0967 64.4613 88.0754 64.088C88.0647 63.704 88.0327 63.3253 87.9794 62.952H89.2114L89.3554 64.616L89.1954 64.744C89.4194 64.0933 89.7927 63.6027 90.3154 63.272C90.838 62.9307 91.4407 62.76 92.1234 62.76C94.054 62.76 95.0194 63.8213 95.0194 65.944V71H93.7234V66.008C93.7234 65.2613 93.574 64.7173 93.2754 64.376C92.9767 64.024 92.5074 63.848 91.8674 63.848C91.1207 63.848 90.5234 64.0773 90.0754 64.536C89.6274 64.9947 89.4034 65.6133 89.4034 66.392V71H88.1074ZM101.799 71V59.608H102.807L110.071 69.288L109.687 69.384V59.608H110.935V71H109.911L102.663 61.336L103.031 61.224V71H101.799ZM113.736 71V59.608H118.28C119.453 59.608 120.365 59.8907 121.016 60.456C121.677 61.0213 122.008 61.8 122.008 62.792C122.008 63.7733 121.677 64.552 121.016 65.128C120.355 65.704 119.443 65.992 118.28 65.992H115.048V71H113.736ZM115.048 64.904H118.168C119.011 64.904 119.645 64.7227 120.072 64.36C120.499 63.9867 120.712 63.464 120.712 62.792C120.712 62.12 120.499 61.6027 120.072 61.24C119.645 60.8773 119.011 60.696 118.168 60.696H115.048V64.904ZM127.774 71.128C127.187 71.128 126.638 71.08 126.126 70.984C125.614 70.8773 125.139 70.7173 124.702 70.504C124.265 70.28 123.87 70.008 123.518 69.688L124.014 68.68C124.59 69.16 125.166 69.5013 125.742 69.704C126.329 69.9067 127.011 70.008 127.79 70.008C128.697 70.008 129.401 69.832 129.902 69.48C130.403 69.1173 130.654 68.6107 130.654 67.96C130.654 67.5653 130.526 67.2507 130.27 67.016C130.025 66.7707 129.683 66.5787 129.246 66.44C128.819 66.2907 128.334 66.152 127.79 66.024C127.246 65.9067 126.729 65.7733 126.238 65.624C125.747 65.464 125.31 65.2667 124.926 65.032C124.553 64.7973 124.259 64.4987 124.046 64.136C123.833 63.7733 123.726 63.32 123.726 62.776C123.726 62.1253 123.897 61.5547 124.238 61.064C124.579 60.5627 125.059 60.1733 125.678 59.896C126.297 59.6187 127.027 59.48 127.87 59.48C128.393 59.48 128.894 59.5387 129.374 59.656C129.854 59.7627 130.297 59.9227 130.702 60.136C131.118 60.3493 131.486 60.6107 131.806 60.92L131.294 61.928C130.771 61.4693 130.233 61.1333 129.678 60.92C129.123 60.7067 128.521 60.6 127.87 60.6C126.985 60.6 126.291 60.7867 125.79 61.16C125.289 61.5333 125.038 62.056 125.038 62.728C125.038 63.144 125.15 63.48 125.374 63.736C125.598 63.992 125.913 64.2 126.318 64.36C126.723 64.5093 127.187 64.648 127.71 64.776C128.265 64.904 128.798 65.0427 129.31 65.192C129.822 65.3413 130.275 65.528 130.67 65.752C131.075 65.9653 131.395 66.248 131.63 66.6C131.865 66.9413 131.982 67.3787 131.982 67.912C131.982 68.5627 131.811 69.128 131.47 69.608C131.129 70.088 130.643 70.4613 130.014 70.728C129.385 70.9947 128.638 71.128 127.774 71.128ZM140.859 71.112C139.504 71.112 138.432 70.7653 137.643 70.072L138.075 69.112C138.501 69.4427 138.939 69.688 139.387 69.848C139.845 69.9973 140.352 70.072 140.907 70.072C141.515 70.072 141.973 69.9707 142.283 69.768C142.603 69.5547 142.763 69.2507 142.763 68.856C142.763 68.536 142.656 68.2853 142.443 68.104C142.229 67.912 141.877 67.7573 141.387 67.64L140.027 67.32C139.355 67.1707 138.832 66.904 138.459 66.52C138.096 66.136 137.915 65.6773 137.915 65.144C137.915 64.6747 138.043 64.264 138.299 63.912C138.555 63.5493 138.912 63.2667 139.371 63.064C139.829 62.8613 140.373 62.76 141.003 62.76C141.568 62.76 142.101 62.8507 142.603 63.032C143.104 63.2133 143.525 63.4747 143.867 63.816L143.435 64.76C143.051 64.44 142.656 64.2053 142.251 64.056C141.856 63.896 141.44 63.816 141.003 63.816C140.427 63.816 139.979 63.928 139.659 64.152C139.349 64.376 139.195 64.68 139.195 65.064C139.195 65.3947 139.291 65.656 139.483 65.848C139.685 66.04 140.005 66.1893 140.443 66.296L141.803 66.632C142.56 66.792 143.115 67.0587 143.467 67.432C143.829 67.7947 144.011 68.2587 144.011 68.824C144.011 69.5173 143.728 70.072 143.163 70.488C142.597 70.904 141.829 71.112 140.859 71.112ZM149.452 71.112C148.663 71.112 147.98 70.9413 147.404 70.6C146.828 70.2587 146.38 69.7787 146.06 69.16C145.751 68.5413 145.596 67.8107 145.596 66.968C145.596 66.136 145.756 65.4053 146.076 64.776C146.396 64.136 146.849 63.64 147.436 63.288C148.023 62.936 148.716 62.76 149.516 62.76C150.06 62.76 150.583 62.856 151.084 63.048C151.596 63.2293 152.017 63.4853 152.348 63.816L151.916 64.776C151.521 64.4667 151.132 64.2373 150.748 64.088C150.375 63.928 149.985 63.848 149.58 63.848C148.769 63.848 148.124 64.12 147.644 64.664C147.175 65.208 146.94 65.976 146.94 66.968C146.94 67.9493 147.175 68.7067 147.644 69.24C148.113 69.7733 148.759 70.04 149.58 70.04C149.975 70.04 150.364 69.9653 150.748 69.816C151.132 69.656 151.521 69.4213 151.916 69.112L152.348 70.072C152.007 70.392 151.575 70.648 151.052 70.84C150.54 71.0213 150.007 71.112 149.452 71.112ZM157.326 71.112C156.558 71.112 155.886 70.9413 155.31 70.6C154.745 70.2587 154.302 69.7787 153.982 69.16C153.673 68.5307 153.518 67.7893 153.518 66.936C153.518 66.0933 153.673 65.3573 153.982 64.728C154.302 64.0987 154.745 63.6133 155.31 63.272C155.886 62.9307 156.558 62.76 157.326 62.76C158.094 62.76 158.761 62.9307 159.326 63.272C159.902 63.6133 160.345 64.0987 160.654 64.728C160.974 65.3573 161.134 66.0933 161.134 66.936C161.134 67.7893 160.974 68.5307 160.654 69.16C160.345 69.7787 159.902 70.2587 159.326 70.6C158.761 70.9413 158.094 71.112 157.326 71.112ZM157.326 70.04C158.115 70.04 158.723 69.7787 159.15 69.256C159.587 68.7227 159.806 67.9493 159.806 66.936C159.806 65.944 159.587 65.1813 159.15 64.648C158.713 64.1147 158.105 63.848 157.326 63.848C156.547 63.848 155.934 64.1147 155.486 64.648C155.049 65.1813 154.83 65.944 154.83 66.936C154.83 67.9493 155.043 68.7227 155.47 69.256C155.907 69.7787 156.526 70.04 157.326 70.04ZM163.154 71V65.208C163.154 64.8347 163.144 64.4613 163.122 64.088C163.112 63.704 163.08 63.3253 163.026 62.952H164.258L164.434 64.936L164.258 64.888C164.408 64.184 164.728 63.656 165.218 63.304C165.72 62.9413 166.28 62.76 166.898 62.76C167.037 62.76 167.165 62.7707 167.282 62.792C167.41 62.8027 167.528 62.824 167.634 62.856L167.602 64.04C167.357 63.9547 167.074 63.912 166.754 63.912C166.2 63.912 165.752 64.0347 165.41 64.28C165.08 64.5253 164.834 64.84 164.674 65.224C164.525 65.5973 164.45 65.992 164.45 66.408V71H163.154ZM175.387 70.04C175.035 70.3707 174.582 70.632 174.027 70.824C173.483 71.016 172.923 71.112 172.347 71.112C171.515 71.112 170.795 70.9467 170.187 70.616C169.59 70.2853 169.126 69.8107 168.795 69.192C168.475 68.5627 168.315 67.816 168.315 66.952C168.315 66.12 168.475 65.3893 168.795 64.76C169.115 64.1307 169.558 63.64 170.123 63.288C170.699 62.936 171.36 62.76 172.107 62.76C172.822 62.76 173.435 62.92 173.947 63.24C174.459 63.5493 174.848 63.9973 175.115 64.584C175.392 65.1707 175.531 65.8747 175.531 66.696V66.936H169.451V66.088H174.795L174.379 66.68C174.4 65.7413 174.214 65.0213 173.819 64.52C173.435 64.0187 172.87 63.768 172.123 63.768C171.344 63.768 170.731 64.0453 170.283 64.6C169.846 65.144 169.627 65.9013 169.627 66.872C169.627 67.9173 169.856 68.7067 170.315 69.24C170.784 69.7733 171.467 70.04 172.363 70.04C172.832 70.04 173.28 69.9653 173.707 69.816C174.144 69.656 174.56 69.416 174.955 69.096L175.387 70.04ZM181.67 71V62.952H182.966V71H181.67ZM181.542 59.544H183.126V61.016H181.542V59.544ZM188.202 71.112C186.848 71.112 185.776 70.7653 184.986 70.072L185.418 69.112C185.845 69.4427 186.282 69.688 186.73 69.848C187.189 69.9973 187.696 70.072 188.25 70.072C188.858 70.072 189.317 69.9707 189.626 69.768C189.946 69.5547 190.106 69.2507 190.106 68.856C190.106 68.536 190 68.2853 189.786 68.104C189.573 67.912 189.221 67.7573 188.73 67.64L187.37 67.32C186.698 67.1707 186.176 66.904 185.802 66.52C185.44 66.136 185.258 65.6773 185.258 65.144C185.258 64.6747 185.386 64.264 185.642 63.912C185.898 63.5493 186.256 63.2667 186.714 63.064C187.173 62.8613 187.717 62.76 188.346 62.76C188.912 62.76 189.445 62.8507 189.946 63.032C190.448 63.2133 190.869 63.4747 191.21 63.816L190.778 64.76C190.394 64.44 190 64.2053 189.594 64.056C189.2 63.896 188.784 63.816 188.346 63.816C187.77 63.816 187.322 63.928 187.002 64.152C186.693 64.376 186.538 64.68 186.538 65.064C186.538 65.3947 186.634 65.656 186.826 65.848C187.029 66.04 187.349 66.1893 187.786 66.296L189.146 66.632C189.904 66.792 190.458 67.0587 190.81 67.432C191.173 67.7947 191.354 68.2587 191.354 68.824C191.354 69.5173 191.072 70.072 190.506 70.488C189.941 70.904 189.173 71.112 188.202 71.112ZM200.68 71.112C199.965 71.112 199.336 70.9467 198.792 70.616C198.258 70.2747 197.842 69.7947 197.544 69.176C197.256 68.5467 197.112 67.8107 197.112 66.968C197.112 66.1253 197.261 65.3893 197.56 64.76C197.858 64.1307 198.274 63.64 198.808 63.288C199.352 62.936 199.976 62.76 200.68 62.76C201.416 62.76 202.04 62.9413 202.552 63.304C203.064 63.6667 203.41 64.184 203.592 64.856L203.4 64.984V62.952H204.68V71H203.4V68.92L203.592 69.016C203.41 69.688 203.064 70.2053 202.552 70.568C202.04 70.9307 201.416 71.112 200.68 71.112ZM200.936 70.04C201.725 70.04 202.333 69.7733 202.76 69.24C203.186 68.696 203.4 67.928 203.4 66.936C203.4 65.944 203.181 65.1813 202.744 64.648C202.317 64.1147 201.714 63.848 200.936 63.848C200.146 63.848 199.528 64.1253 199.08 64.68C198.642 65.224 198.424 65.9867 198.424 66.968C198.424 67.9493 198.642 68.7067 199.08 69.24C199.528 69.7733 200.146 70.04 200.936 70.04Z" fill="black"/>
<g clip-path="url(#clip0)">
<g filter="url(#filter1_d)">
<rect x="222" y="46" width="198" height="38" rx="4" fill="white"/>
<rect x="222.5" y="46.5" width="197" height="37" rx="3.5" stroke="#D8DCE6"/>
</g>
<path fill-rule="evenodd" clip-rule="evenodd" d="M403.045 60L400 63.0451L405.979 62.934L403.045 60ZM402.943 69.9976L405.998 66.9431L400 67.0545L402.943 69.9976Z" fill="white" fill-opacity="0.01"/>
<mask id="mask0" mask-type="alpha" maskUnits="userSpaceOnUse" x="400" y="60" width="6" height="10">
<path fill-rule="evenodd" clip-rule="evenodd" d="M403.045 60L400 63.0451L405.979 62.934L403.045 60ZM402.943 69.9976L405.998 66.9431L400 67.0545L402.943 69.9976Z" fill="white"/>
</mask>
<g mask="url(#mask0)">
<rect x="400" y="60" width="6" height="10" fill="#9EA0A5"/>
</g>
<path d="M242.088 65.5635C240.962 65.2399 240.142 64.8434 239.627 64.374C239.117 63.9001 238.861 63.3167 238.861 62.624C238.861 61.8402 239.174 61.193 239.798 60.6826C240.427 60.1676 241.243 59.9102 242.245 59.9102C242.929 59.9102 243.537 60.0423 244.07 60.3066C244.608 60.571 245.023 60.9355 245.314 61.4004C245.611 61.8652 245.759 62.3734 245.759 62.9248H244.439C244.439 62.3232 244.248 61.8516 243.865 61.5098C243.482 61.1634 242.942 60.9902 242.245 60.9902C241.598 60.9902 241.092 61.1338 240.728 61.4209C240.368 61.7035 240.188 62.0977 240.188 62.6035C240.188 63.0091 240.358 63.3532 240.7 63.6357C241.047 63.9137 241.632 64.1689 242.457 64.4014C243.286 64.6338 243.934 64.8913 244.398 65.1738C244.868 65.4518 245.214 65.7777 245.438 66.1514C245.665 66.5251 245.779 66.9648 245.779 67.4707C245.779 68.2773 245.465 68.9245 244.836 69.4121C244.207 69.8952 243.366 70.1367 242.313 70.1367C241.63 70.1367 240.992 70.0068 240.399 69.7471C239.807 69.4827 239.349 69.1227 239.025 68.667C238.706 68.2113 238.547 67.694 238.547 67.1152H239.866C239.866 67.7168 240.087 68.193 240.529 68.5439C240.976 68.8903 241.571 69.0635 242.313 69.0635C243.006 69.0635 243.537 68.9222 243.906 68.6396C244.275 68.3571 244.46 67.972 244.46 67.4844C244.46 66.9967 244.289 66.6208 243.947 66.3564C243.605 66.0876 242.986 65.8232 242.088 65.5635ZM250.339 70.1367C249.336 70.1367 248.521 69.8086 247.892 69.1523C247.263 68.4915 246.948 67.6097 246.948 66.5068V66.2744C246.948 65.5407 247.087 64.8867 247.365 64.3125C247.648 63.7337 248.04 63.2826 248.541 62.959C249.047 62.6309 249.594 62.4668 250.182 62.4668C251.143 62.4668 251.891 62.7835 252.424 63.417C252.957 64.0505 253.224 64.9574 253.224 66.1377V66.6641H248.213C248.231 67.3932 248.443 67.9834 248.849 68.4346C249.259 68.8812 249.778 69.1045 250.407 69.1045C250.854 69.1045 251.232 69.0133 251.542 68.8311C251.852 68.6488 252.123 68.4072 252.355 68.1064L253.128 68.708C252.508 69.6605 251.578 70.1367 250.339 70.1367ZM250.182 63.5059C249.671 63.5059 249.243 63.6927 248.896 64.0664C248.55 64.4355 248.336 64.9551 248.254 65.625H251.959V65.5293C251.923 64.8867 251.749 64.39 251.439 64.0391C251.13 63.6836 250.71 63.5059 250.182 63.5059ZM256.067 70H254.803V59.5H256.067V70ZM261.167 70.1367C260.164 70.1367 259.349 69.8086 258.72 69.1523C258.091 68.4915 257.776 67.6097 257.776 66.5068V66.2744C257.776 65.5407 257.915 64.8867 258.193 64.3125C258.476 63.7337 258.868 63.2826 259.369 62.959C259.875 62.6309 260.422 62.4668 261.01 62.4668C261.971 62.4668 262.719 62.7835 263.252 63.417C263.785 64.0505 264.052 64.9574 264.052 66.1377V66.6641H259.041C259.059 67.3932 259.271 67.9834 259.677 68.4346C260.087 68.8812 260.606 69.1045 261.235 69.1045C261.682 69.1045 262.06 69.0133 262.37 68.8311C262.68 68.6488 262.951 68.4072 263.184 68.1064L263.956 68.708C263.336 69.6605 262.407 70.1367 261.167 70.1367ZM261.01 63.5059C260.499 63.5059 260.071 63.6927 259.725 64.0664C259.378 64.4355 259.164 64.9551 259.082 65.625H262.787V65.5293C262.751 64.8867 262.577 64.39 262.268 64.0391C261.958 63.6836 261.538 63.5059 261.01 63.5059ZM268.488 69.1045C268.939 69.1045 269.334 68.9678 269.671 68.6943C270.008 68.4209 270.195 68.0791 270.231 67.6689H271.428C271.405 68.0928 271.259 68.4961 270.99 68.8789C270.721 69.2617 270.361 69.5671 269.91 69.7949C269.464 70.0228 268.99 70.1367 268.488 70.1367C267.481 70.1367 266.679 69.8018 266.082 69.1318C265.49 68.4574 265.193 67.5368 265.193 66.3701V66.1582C265.193 65.4382 265.326 64.7979 265.59 64.2373C265.854 63.6768 266.232 63.2415 266.725 62.9316C267.221 62.6217 267.807 62.4668 268.481 62.4668C269.311 62.4668 269.999 62.7152 270.546 63.2119C271.097 63.7087 271.391 64.3535 271.428 65.1465H270.231C270.195 64.668 270.013 64.276 269.685 63.9707C269.361 63.6608 268.96 63.5059 268.481 63.5059C267.839 63.5059 267.34 63.7383 266.984 64.2031C266.633 64.6634 266.458 65.3311 266.458 66.2061V66.4453C266.458 67.2975 266.633 67.9538 266.984 68.4141C267.335 68.8743 267.837 69.1045 268.488 69.1045ZM274.565 60.8125V62.6035H275.946V63.5811H274.565V68.168C274.565 68.4642 274.627 68.6875 274.75 68.8379C274.873 68.9837 275.083 69.0566 275.379 69.0566C275.525 69.0566 275.725 69.0293 275.98 68.9746V70C275.648 70.0911 275.324 70.1367 275.01 70.1367C274.445 70.1367 274.019 69.9658 273.731 69.624C273.444 69.2822 273.301 68.7969 273.301 68.168V63.5811H271.954V62.6035H273.301V60.8125H274.565ZM277.457 69.3369C277.457 69.1182 277.521 68.9359 277.648 68.79C277.781 68.6442 277.977 68.5713 278.236 68.5713C278.496 68.5713 278.692 68.6442 278.824 68.79C278.961 68.9359 279.029 69.1182 279.029 69.3369C279.029 69.5465 278.961 69.722 278.824 69.8633C278.692 70.0046 278.496 70.0752 278.236 70.0752C277.977 70.0752 277.781 70.0046 277.648 69.8633C277.521 69.722 277.457 69.5465 277.457 69.3369ZM281.148 69.3369C281.148 69.1182 281.212 68.9359 281.34 68.79C281.472 68.6442 281.668 68.5713 281.928 68.5713C282.188 68.5713 282.383 68.6442 282.516 68.79C282.652 68.9359 282.721 69.1182 282.721 69.3369C282.721 69.5465 282.652 69.722 282.516 69.8633C282.383 70.0046 282.188 70.0752 281.928 70.0752C281.668 70.0752 281.472 70.0046 281.34 69.8633C281.212 69.722 281.148 69.5465 281.148 69.3369Z" fill="#3E3F42"/>
</g>
<rect x="44.5" y="114.5" width="168" height="37" rx="7.5" fill="#1C3C55" stroke="#1C3C55"/>
<path d="M91.0298 139.128C89.9418 139.128 89.0031 138.893 88.2138 138.424C87.4245 137.955 86.8165 137.283 86.3898 136.408C85.9631 135.533 85.7498 134.493 85.7498 133.288C85.7498 132.083 85.9631 131.048 86.3898 130.184C86.8165 129.32 87.4245 128.653 88.2138 128.184C89.0031 127.715 89.9418 127.48 91.0298 127.48C91.8085 127.48 92.5285 127.603 93.1898 127.848C93.8511 128.083 94.4218 128.44 94.9018 128.92L94.4058 129.928C93.8618 129.459 93.3231 129.123 92.7898 128.92C92.2565 128.717 91.6751 128.616 91.0458 128.616C89.7978 128.616 88.8271 129.021 88.1338 129.832C87.4511 130.643 87.1098 131.795 87.1098 133.288C87.1098 134.792 87.4511 135.955 88.1338 136.776C88.8165 137.587 89.7871 137.992 91.0458 137.992C91.6751 137.992 92.2565 137.891 92.7898 137.688C93.3231 137.485 93.8618 137.149 94.4058 136.68L94.9018 137.688C94.4218 138.168 93.8511 138.531 93.1898 138.776C92.5285 139.011 91.8085 139.128 91.0298 139.128ZM96.9433 139V133.208C96.9433 132.835 96.9326 132.461 96.9113 132.088C96.9006 131.704 96.8686 131.325 96.8153 130.952H98.0473L98.2233 132.936L98.0473 132.888C98.1966 132.184 98.5166 131.656 99.0073 131.304C99.5086 130.941 100.069 130.76 100.687 130.76C100.826 130.76 100.954 130.771 101.071 130.792C101.199 130.803 101.317 130.824 101.423 130.856L101.391 132.04C101.146 131.955 100.863 131.912 100.543 131.912C99.9886 131.912 99.5406 132.035 99.1993 132.28C98.8686 132.525 98.6233 132.84 98.4633 133.224C98.314 133.597 98.2393 133.992 98.2393 134.408V139H96.9433ZM109.176 138.04C108.824 138.371 108.371 138.632 107.816 138.824C107.272 139.016 106.712 139.112 106.136 139.112C105.304 139.112 104.584 138.947 103.976 138.616C103.379 138.285 102.915 137.811 102.584 137.192C102.264 136.563 102.104 135.816 102.104 134.952C102.104 134.12 102.264 133.389 102.584 132.76C102.904 132.131 103.347 131.64 103.912 131.288C104.488 130.936 105.149 130.76 105.896 130.76C106.611 130.76 107.224 130.92 107.736 131.24C108.248 131.549 108.637 131.997 108.904 132.584C109.181 133.171 109.32 133.875 109.32 134.696V134.936H103.24V134.088H108.584L108.168 134.68C108.189 133.741 108.003 133.021 107.608 132.52C107.224 132.019 106.659 131.768 105.912 131.768C105.133 131.768 104.52 132.045 104.072 132.6C103.635 133.144 103.416 133.901 103.416 134.872C103.416 135.917 103.645 136.707 104.104 137.24C104.573 137.773 105.256 138.04 106.152 138.04C106.621 138.04 107.069 137.965 107.496 137.816C107.933 137.656 108.349 137.416 108.744 137.096L109.176 138.04ZM114.375 139.112C113.66 139.112 113.031 138.947 112.487 138.616C111.954 138.275 111.538 137.795 111.239 137.176C110.951 136.547 110.807 135.811 110.807 134.968C110.807 134.125 110.956 133.389 111.255 132.76C111.554 132.131 111.97 131.64 112.503 131.288C113.047 130.936 113.671 130.76 114.375 130.76C115.111 130.76 115.735 130.941 116.247 131.304C116.759 131.667 117.106 132.184 117.287 132.856L117.095 132.984V130.952H118.375V139H117.095V136.92L117.287 137.016C117.106 137.688 116.759 138.205 116.247 138.568C115.735 138.931 115.111 139.112 114.375 139.112ZM114.631 138.04C115.42 138.04 116.028 137.773 116.455 137.24C116.882 136.696 117.095 135.928 117.095 134.936C117.095 133.944 116.876 133.181 116.439 132.648C116.012 132.115 115.41 131.848 114.631 131.848C113.842 131.848 113.223 132.125 112.775 132.68C112.338 133.224 112.119 133.987 112.119 134.968C112.119 135.949 112.338 136.707 112.775 137.24C113.223 137.773 113.842 138.04 114.631 138.04ZM119.745 131.976V130.952H124.913V131.976H119.745ZM124.881 137.848V138.952C124.699 139.005 124.518 139.043 124.337 139.064C124.166 139.096 123.974 139.112 123.761 139.112C123.014 139.112 122.417 138.899 121.969 138.472C121.531 138.045 121.313 137.405 121.313 136.552V128.888L122.609 128.424V136.376C122.609 136.803 122.667 137.133 122.785 137.368C122.913 137.603 123.083 137.768 123.297 137.864C123.51 137.949 123.75 137.992 124.017 137.992C124.177 137.992 124.321 137.981 124.449 137.96C124.577 137.939 124.721 137.901 124.881 137.848ZM133.067 138.04C132.715 138.371 132.261 138.632 131.707 138.824C131.163 139.016 130.603 139.112 130.027 139.112C129.195 139.112 128.475 138.947 127.867 138.616C127.269 138.285 126.805 137.811 126.475 137.192C126.155 136.563 125.995 135.816 125.995 134.952C125.995 134.12 126.155 133.389 126.475 132.76C126.795 132.131 127.237 131.64 127.803 131.288C128.379 130.936 129.04 130.76 129.787 130.76C130.501 130.76 131.115 130.92 131.627 131.24C132.139 131.549 132.528 131.997 132.795 132.584C133.072 133.171 133.211 133.875 133.211 134.696V134.936H127.131V134.088H132.475L132.059 134.68C132.08 133.741 131.893 133.021 131.499 132.52C131.115 132.019 130.549 131.768 129.803 131.768C129.024 131.768 128.411 132.045 127.963 132.6C127.525 133.144 127.307 133.901 127.307 134.872C127.307 135.917 127.536 136.707 127.995 137.24C128.464 137.773 129.147 138.04 130.043 138.04C130.512 138.04 130.96 137.965 131.387 137.816C131.824 137.656 132.24 137.416 132.635 137.096L133.067 138.04ZM142.438 139.112C141.723 139.112 141.094 138.947 140.55 138.616C140.016 138.275 139.6 137.795 139.302 137.176C139.014 136.547 138.87 135.811 138.87 134.968C138.87 134.125 139.019 133.389 139.318 132.76C139.616 132.131 140.032 131.64 140.566 131.288C141.11 130.936 141.734 130.76 142.438 130.76C143.174 130.76 143.798 130.941 144.31 131.304C144.822 131.667 145.168 132.184 145.35 132.856L145.158 132.984V130.952H146.438V139H145.158V136.92L145.35 137.016C145.168 137.688 144.822 138.205 144.31 138.568C143.798 138.931 143.174 139.112 142.438 139.112ZM142.694 138.04C143.483 138.04 144.091 137.773 144.518 137.24C144.944 136.696 145.158 135.928 145.158 134.936C145.158 133.944 144.939 133.181 144.502 132.648C144.075 132.115 143.472 131.848 142.694 131.848C141.904 131.848 141.286 132.125 140.838 132.68C140.4 133.224 140.182 133.987 140.182 134.968C140.182 135.949 140.4 136.707 140.838 137.24C141.286 137.773 141.904 138.04 142.694 138.04ZM148.943 139V127.224H150.239V139H148.943ZM159.348 138.04C158.996 138.371 158.542 138.632 157.988 138.824C157.444 139.016 156.884 139.112 156.308 139.112C155.476 139.112 154.756 138.947 154.148 138.616C153.55 138.285 153.086 137.811 152.756 137.192C152.436 136.563 152.276 135.816 152.276 134.952C152.276 134.12 152.436 133.389 152.756 132.76C153.076 132.131 153.518 131.64 154.084 131.288C154.66 130.936 155.321 130.76 156.068 130.76C156.782 130.76 157.396 130.92 157.908 131.24C158.42 131.549 158.809 131.997 159.076 132.584C159.353 133.171 159.492 133.875 159.492 134.696V134.936H153.412V134.088H158.756L158.34 134.68C158.361 133.741 158.174 133.021 157.78 132.52C157.396 132.019 156.83 131.768 156.084 131.768C155.305 131.768 154.692 132.045 154.244 132.6C153.806 133.144 153.588 133.901 153.588 134.872C153.588 135.917 153.817 136.707 154.276 137.24C154.745 137.773 155.428 138.04 156.324 138.04C156.793 138.04 157.241 137.965 157.668 137.816C158.105 137.656 158.521 137.416 158.916 137.096L159.348 138.04ZM161.459 139V133.208C161.459 132.835 161.448 132.461 161.427 132.088C161.416 131.704 161.384 131.325 161.331 130.952H162.563L162.739 132.936L162.563 132.888C162.712 132.184 163.032 131.656 163.523 131.304C164.024 130.941 164.584 130.76 165.203 130.76C165.342 130.76 165.47 130.771 165.587 130.792C165.715 130.803 165.832 130.824 165.939 130.856L165.907 132.04C165.662 131.955 165.379 131.912 165.059 131.912C164.504 131.912 164.056 132.035 163.715 132.28C163.384 132.525 163.139 132.84 162.979 133.224C162.83 133.597 162.755 133.992 162.755 134.408V139H161.459ZM166.76 131.976V130.952H171.928V131.976H166.76ZM171.896 137.848V138.952C171.715 139.005 171.534 139.043 171.352 139.064C171.182 139.096 170.99 139.112 170.776 139.112C170.03 139.112 169.432 138.899 168.984 138.472C168.547 138.045 168.328 137.405 168.328 136.552V128.888L169.624 128.424V136.376C169.624 136.803 169.683 137.133 169.8 137.368C169.928 137.603 170.099 137.768 170.312 137.864C170.526 137.949 170.766 137.992 171.032 137.992C171.192 137.992 171.336 137.981 171.464 137.96C171.592 137.939 171.736 137.901 171.896 137.848Z" fill="#F2F2F2"/>
<defs>
<filter id="filter0_d" x="0" y="0" width="472" height="138" filterUnits="userSpaceOnUse" color-interpolation-filters="sRGB">
<feFlood flood-opacity="0" result="BackgroundImageFix"/>
<feColorMatrix in="SourceAlpha" type="matrix" values="0 0 0 0 0 0 0 0 0 0 0 0 0 0 0 0 0 0 127 0"/>
<feOffset dy="4"/>
<feGaussianBlur stdDeviation="20"/>
<feColorMatrix type="matrix" values="0 0 0 0 0.176471 0 0 0 0 0.262745 0 0 0 0 0.47451 0 0 0 0.1 0"/>
<feBlend mode="normal" in2="BackgroundImageFix" result="effect1_dropShadow"/>
<feBlend mode="normal" in="SourceGraphic" in2="effect1_dropShadow" result="shape"/>
</filter>
<filter id="filter1_d" x="220" y="45" width="202" height="42" filterUnits="userSpaceOnUse" color-interpolation-filters="sRGB">
<feFlood flood-opacity="0" result="BackgroundImageFix"/>
<feColorMatrix in="SourceAlpha" type="matrix" values="0 0 0 0 0 0 0 0 0 0 0 0 0 0 0 0 0 0 127 0"/>
<feOffset dy="1"/>
<feGaussianBlur stdDeviation="1"/>
<feColorMatrix type="matrix" values="0 0 0 0 0 0 0 0 0 0 0 0 0 0 0 0 0 0 0.08 0"/>
<feBlend mode="normal" in2="BackgroundImageFix" result="effect1_dropShadow"/>
<feBlend mode="normal" in="SourceGraphic" in2="effect1_dropShadow" result="shape"/>
</filter>
<clipPath id="clip0">
<rect width="198" height="38" fill="white" transform="translate(222 46)"/>
</clipPath>
</defs>
</svg>
