<svg fill="none" height="157" viewBox="0 0 157 157" width="157" xmlns="http://www.w3.org/2000/svg" xmlns:xlink="http://www.w3.org/1999/xlink"><filter id="a" color-interpolation-filters="sRGB" filterUnits="userSpaceOnUse" height="157" width="157" x="0" y="0"><feFlood flood-opacity="0" result="BackgroundImageFix"/><feColorMatrix in="SourceAlpha" result="hardAlpha" type="matrix" values="0 0 0 0 0 0 0 0 0 0 0 0 0 0 0 0 0 0 127 0"/><feOffset dy="9"/><feGaussianBlur stdDeviation="15"/><feColorMatrix type="matrix" values="0 0 0 0 0.593438 0 0 0 0 0.707729 0 0 0 0 0.879167 0 0 0 0.25 0"/><feBlend in2="BackgroundImageFix" mode="normal" result="effect1_dropShadow"/><feBlend in="SourceGraphic" in2="effect1_dropShadow" mode="normal" result="shape"/></filter><linearGradient id="b" gradientUnits="userSpaceOnUse" x1="117.909" x2="117.909" y1="16" y2="43.7554"><stop offset="0" stop-color="#b0e7c6"/><stop offset="1" stop-color="#5dd1b3"/></linearGradient><linearGradient id="c" gradientUnits="userSpaceOnUse" x1="79.0628" x2="79.0628" y1="56.8979" y2="84.4167"><stop offset="0" stop-color="#ffed49"/><stop offset="1" stop-color="#ffc369"/></linearGradient><g filter="url(#a)"><rect fill="#fff" height="97" rx="25" width="97" x="30" y="21"/></g><circle cx="117.5" cy="29.5" fill="#fff" r="12.5"/><path clip-rule="evenodd" d="m104 29.8777c0-7.6644 6.227-13.8777 13.909-13.8777 7.679.0082 13.901 6.2167 13.91 13.8777 0 7.6644-6.228 13.8777-13.91 13.8777s-13.909-6.2133-13.909-13.8777zm11.631 5.6571 9.935-9.9127c.372-.3841.372-.9931 0-1.3772-.381-.3938-1.01-.4047-1.404-.0244l-9.233 9.2119-3.272-3.2643c-.008-.0083-.016-.0164-.024-.0244-.395-.3803-1.024-.3694-1.405.0244s-.371 1.0213.024 1.4016l3.974 3.9651c.388.387 1.017.387 1.405 0z" fill="url(#b)" fill-rule="evenodd"/><path d="m79.0628 84.4167c10.1621 0 18.4-8.1522 18.4-18.2084s-8.2379-18.2083-18.4-18.2083c-10.162 0-18.4 8.1521-18.4 18.2083s8.238 18.2084 18.4 18.2084z" fill="url(#c)"/><path d="m64.2843 76.9495-6.2843 10.8933 7.3346-.3894 3.3323 6.5468 5.8134-10.0783c-4.1653-1.0776-7.7421-3.5858-10.196-6.9724z" fill="#5183bb"/><path d="m93.9125 76.895c-2.4358 3.3957-6.0125 5.913-10.1688 7.0087l5.8314 10.0964 3.3323-6.5468 7.3346.3894z" fill="#5183bb"/><path d="m88.0569 64.9805c.4039-.3961.1795-1.0892-.377-1.1702l-5.1792-.7561c-.2244-.036-.4129-.171-.5117-.3781l-2.3158-4.7078c-.2514-.5131-.9784-.5131-1.2298 0l-2.3068 4.7078c-.0988.1981-.2962.3421-.5117.3781l-5.1792.7561c-.5565.081-.7809.7741-.377 1.1702l3.7431 3.6636c.1615.1621.2333.3871.1974.6031l-.8796 5.1669c-.0988.5581.4937.9902.9963.7202l4.6317-2.4395c.1975-.108.4398-.108.6373 0l4.6317 2.4395c.5027.261 1.0861-.1621.9963-.7202l-.8886-5.1669c-.0359-.225.0359-.45.1975-.6031z" fill="#fff"/></svg>