<svg width="460" height="431" viewBox="0 0 460 431" fill="none" xmlns="http://www.w3.org/2000/svg">
<g filter="url(#filter0_d)">
<rect x="22" y="10" width="390" height="209" rx="15" fill="#F7FBFD"/>
</g>
<g filter="url(#filter1_d)">
<rect width="26.5714" height="25.7143" rx="12.8571" transform="matrix(-1 0 0 1 424 36.4285)" fill="url(#paint0_linear)"/>
</g>
<rect x="52.2102" y="93.0913" width="158.721" height="18" rx="3" fill="#E6F0F9"/>
<rect x="225.279" y="93.0913" width="158.721" height="18" rx="3" fill="#E6F0F9"/>
<path d="M62.0967 50H60.9482L58.9316 43.3076C58.8359 43.0114 58.7288 42.6377 58.6104 42.1865C58.4919 41.7354 58.4303 41.4642 58.4258 41.373C58.3255 41.9746 58.166 42.6331 57.9473 43.3486L55.9922 50H54.8438L52.1846 40.0059H53.415L54.9941 46.1787C55.2129 47.0446 55.3724 47.8285 55.4727 48.5303C55.5957 47.6963 55.778 46.8805 56.0195 46.083L57.8105 40.0059H59.041L60.9209 46.1377C61.1396 46.8441 61.3242 47.6416 61.4746 48.5303C61.5612 47.8831 61.7253 47.0947 61.9668 46.165L63.5391 40.0059H64.7695L62.0967 50ZM72.6309 46.2471C72.6309 47.4684 72.3232 48.4232 71.708 49.1113C71.0928 49.7949 70.2428 50.1367 69.1582 50.1367C68.4883 50.1367 67.8936 49.9795 67.374 49.665C66.8545 49.3506 66.4535 48.8994 66.1709 48.3115C65.8883 47.7236 65.7471 47.0355 65.7471 46.2471C65.7471 45.0257 66.0524 44.0755 66.6631 43.3965C67.2738 42.7129 68.1214 42.3711 69.2061 42.3711C70.2542 42.3711 71.0859 42.7197 71.7012 43.417C72.321 44.1143 72.6309 45.0576 72.6309 46.2471ZM66.9229 46.2471C66.9229 47.2041 67.1143 47.9333 67.4971 48.4346C67.8799 48.9359 68.4427 49.1865 69.1855 49.1865C69.9284 49.1865 70.4912 48.9382 70.874 48.4414C71.2614 47.9401 71.4551 47.2087 71.4551 46.2471C71.4551 45.2946 71.2614 44.5723 70.874 44.0801C70.4912 43.5833 69.9238 43.335 69.1719 43.335C68.429 43.335 67.8685 43.5788 67.4902 44.0664C67.112 44.554 66.9229 45.2809 66.9229 46.2471ZM78.0449 42.3711C78.3776 42.3711 78.6761 42.3984 78.9404 42.4531L78.7832 43.5059C78.4733 43.4375 78.1999 43.4033 77.9629 43.4033C77.3568 43.4033 76.8372 43.6494 76.4043 44.1416C75.9759 44.6338 75.7617 45.2467 75.7617 45.9805V50H74.627V42.5078H75.5635L75.6934 43.8955H75.748C76.026 43.4079 76.361 43.0319 76.7529 42.7676C77.1449 42.5033 77.5755 42.3711 78.0449 42.3711ZM85.4414 48.9951H85.3799C84.8558 49.7562 84.0719 50.1367 83.0283 50.1367C82.0485 50.1367 81.2852 49.8018 80.7383 49.1318C80.196 48.4619 79.9248 47.5094 79.9248 46.2744C79.9248 45.0394 80.1982 44.0801 80.7451 43.3965C81.292 42.7129 82.0531 42.3711 83.0283 42.3711C84.0446 42.3711 84.8239 42.7402 85.3662 43.4785H85.4551L85.4072 42.9385L85.3799 42.4121V39.3633H86.5146V50H85.5918L85.4414 48.9951ZM83.1719 49.1865C83.9466 49.1865 84.5072 48.9769 84.8535 48.5576C85.2044 48.1338 85.3799 47.4525 85.3799 46.5137V46.2744C85.3799 45.2126 85.2021 44.4561 84.8467 44.0049C84.4958 43.5492 83.9329 43.3213 83.1582 43.3213C82.4928 43.3213 81.9824 43.5811 81.627 44.1006C81.276 44.6156 81.1006 45.3447 81.1006 46.2881C81.1006 47.2451 81.276 47.9674 81.627 48.4551C81.9779 48.9427 82.4928 49.1865 83.1719 49.1865ZM93.7607 47.9561C93.7607 48.6533 93.501 49.1911 92.9814 49.5693C92.4619 49.9476 91.7327 50.1367 90.7939 50.1367C89.8005 50.1367 89.0257 49.9795 88.4697 49.665V48.6123C88.8298 48.7946 89.2148 48.9382 89.625 49.043C90.0397 49.1478 90.4385 49.2002 90.8213 49.2002C91.4137 49.2002 91.8695 49.1068 92.1885 48.9199C92.5075 48.7285 92.667 48.4391 92.667 48.0518C92.667 47.7601 92.5394 47.5117 92.2842 47.3066C92.0335 47.097 91.5413 46.8509 90.8076 46.5684C90.1104 46.3086 89.6136 46.083 89.3174 45.8916C89.0257 45.6956 88.807 45.4746 88.6611 45.2285C88.5199 44.9824 88.4492 44.6885 88.4492 44.3467C88.4492 43.736 88.6976 43.2552 89.1943 42.9043C89.6911 42.5488 90.3724 42.3711 91.2383 42.3711C92.0449 42.3711 92.8333 42.5352 93.6035 42.8633L93.2002 43.7861C92.4482 43.4762 91.7669 43.3213 91.1562 43.3213C90.6185 43.3213 90.2129 43.4056 89.9395 43.5742C89.666 43.7428 89.5293 43.9753 89.5293 44.2715C89.5293 44.472 89.5794 44.6429 89.6797 44.7842C89.7845 44.9255 89.9508 45.0599 90.1787 45.1875C90.4066 45.3151 90.8441 45.4997 91.4912 45.7412C92.3799 46.0648 92.9792 46.3906 93.2891 46.7188C93.6035 47.0469 93.7607 47.4593 93.7607 47.9561ZM101.67 49.2002C101.87 49.2002 102.064 49.1865 102.251 49.1592C102.438 49.1273 102.586 49.0954 102.695 49.0635V49.9316C102.572 49.9909 102.39 50.0387 102.148 50.0752C101.911 50.1162 101.697 50.1367 101.506 50.1367C100.057 50.1367 99.332 49.3734 99.332 47.8467V43.3896H98.2588V42.8428L99.332 42.3711L99.8105 40.7715H100.467V42.5078H102.641V43.3896H100.467V47.7988C100.467 48.25 100.574 48.5964 100.788 48.8379C101.002 49.0794 101.296 49.2002 101.67 49.2002ZM110.666 46.2471C110.666 47.4684 110.358 48.4232 109.743 49.1113C109.128 49.7949 108.278 50.1367 107.193 50.1367C106.523 50.1367 105.929 49.9795 105.409 49.665C104.89 49.3506 104.489 48.8994 104.206 48.3115C103.924 47.7236 103.782 47.0355 103.782 46.2471C103.782 45.0257 104.088 44.0755 104.698 43.3965C105.309 42.7129 106.157 42.3711 107.241 42.3711C108.289 42.3711 109.121 42.7197 109.736 43.417C110.356 44.1143 110.666 45.0576 110.666 46.2471ZM104.958 46.2471C104.958 47.2041 105.149 47.9333 105.532 48.4346C105.915 48.9359 106.478 49.1865 107.221 49.1865C107.964 49.1865 108.526 48.9382 108.909 48.4414C109.297 47.9401 109.49 47.2087 109.49 46.2471C109.49 45.2946 109.297 44.5723 108.909 44.0801C108.526 43.5833 107.959 43.335 107.207 43.335C106.464 43.335 105.904 43.5788 105.525 44.0664C105.147 44.554 104.958 45.2809 104.958 46.2471ZM118.719 49.2002C118.919 49.2002 119.113 49.1865 119.3 49.1592C119.487 49.1273 119.635 49.0954 119.744 49.0635V49.9316C119.621 49.9909 119.439 50.0387 119.197 50.0752C118.96 50.1162 118.746 50.1367 118.555 50.1367C117.105 50.1367 116.381 49.3734 116.381 47.8467V43.3896H115.308V42.8428L116.381 42.3711L116.859 40.7715H117.516V42.5078H119.689V43.3896H117.516V47.7988C117.516 48.25 117.623 48.5964 117.837 48.8379C118.051 49.0794 118.345 49.2002 118.719 49.2002ZM124.666 42.3711C124.999 42.3711 125.297 42.3984 125.562 42.4531L125.404 43.5059C125.094 43.4375 124.821 43.4033 124.584 43.4033C123.978 43.4033 123.458 43.6494 123.025 44.1416C122.597 44.6338 122.383 45.2467 122.383 45.9805V50H121.248V42.5078H122.185L122.314 43.8955H122.369C122.647 43.4079 122.982 43.0319 123.374 42.7676C123.766 42.5033 124.197 42.3711 124.666 42.3711ZM131.57 50L131.345 48.9336H131.29C130.916 49.403 130.543 49.722 130.169 49.8906C129.8 50.0547 129.337 50.1367 128.781 50.1367C128.038 50.1367 127.455 49.9453 127.031 49.5625C126.612 49.1797 126.402 48.6351 126.402 47.9287C126.402 46.4157 127.612 45.6227 130.032 45.5498L131.304 45.5088V45.0439C131.304 44.4561 131.176 44.0231 130.921 43.7451C130.67 43.4626 130.267 43.3213 129.711 43.3213C129.087 43.3213 128.38 43.5127 127.592 43.8955L127.243 43.0273C127.612 42.8268 128.016 42.6696 128.453 42.5557C128.895 42.4417 129.337 42.3848 129.779 42.3848C130.673 42.3848 131.333 42.583 131.762 42.9795C132.195 43.376 132.411 44.0117 132.411 44.8867V50H131.57ZM129.007 49.2002C129.713 49.2002 130.267 49.0065 130.668 48.6191C131.074 48.2318 131.276 47.6895 131.276 46.9922V46.3154L130.142 46.3633C129.239 46.3952 128.588 46.5365 128.187 46.7871C127.79 47.0332 127.592 47.4183 127.592 47.9424C127.592 48.3525 127.715 48.6647 127.961 48.8789C128.212 49.0931 128.56 49.2002 129.007 49.2002ZM139.883 50V45.1533C139.883 44.5426 139.744 44.0869 139.466 43.7861C139.188 43.4854 138.753 43.335 138.16 43.335C137.376 43.335 136.802 43.5469 136.438 43.9707C136.073 44.3945 135.891 45.0941 135.891 46.0693V50H134.756V42.5078H135.679L135.863 43.5332H135.918C136.15 43.1641 136.476 42.8792 136.896 42.6787C137.315 42.4736 137.782 42.3711 138.297 42.3711C139.199 42.3711 139.878 42.5898 140.334 43.0273C140.79 43.4603 141.018 44.1553 141.018 45.1123V50H139.883ZM148.188 47.9561C148.188 48.6533 147.929 49.1911 147.409 49.5693C146.89 49.9476 146.16 50.1367 145.222 50.1367C144.228 50.1367 143.453 49.9795 142.897 49.665V48.6123C143.257 48.7946 143.643 48.9382 144.053 49.043C144.467 49.1478 144.866 49.2002 145.249 49.2002C145.841 49.2002 146.297 49.1068 146.616 48.9199C146.935 48.7285 147.095 48.4391 147.095 48.0518C147.095 47.7601 146.967 47.5117 146.712 47.3066C146.461 47.097 145.969 46.8509 145.235 46.5684C144.538 46.3086 144.041 46.083 143.745 45.8916C143.453 45.6956 143.235 45.4746 143.089 45.2285C142.948 44.9824 142.877 44.6885 142.877 44.3467C142.877 43.736 143.125 43.2552 143.622 42.9043C144.119 42.5488 144.8 42.3711 145.666 42.3711C146.473 42.3711 147.261 42.5352 148.031 42.8633L147.628 43.7861C146.876 43.4762 146.195 43.3213 145.584 43.3213C145.046 43.3213 144.641 43.4056 144.367 43.5742C144.094 43.7428 143.957 43.9753 143.957 44.2715C143.957 44.472 144.007 44.6429 144.107 44.7842C144.212 44.9255 144.379 45.0599 144.606 45.1875C144.834 45.3151 145.272 45.4997 145.919 45.7412C146.808 46.0648 147.407 46.3906 147.717 46.7188C148.031 47.0469 148.188 47.4593 148.188 47.9561ZM151.176 50H150.041V39.3633H151.176V50ZM158.189 50L157.964 48.9336H157.909C157.535 49.403 157.162 49.722 156.788 49.8906C156.419 50.0547 155.956 50.1367 155.4 50.1367C154.658 50.1367 154.074 49.9453 153.65 49.5625C153.231 49.1797 153.021 48.6351 153.021 47.9287C153.021 46.4157 154.231 45.6227 156.651 45.5498L157.923 45.5088V45.0439C157.923 44.4561 157.795 44.0231 157.54 43.7451C157.289 43.4626 156.886 43.3213 156.33 43.3213C155.706 43.3213 154.999 43.5127 154.211 43.8955L153.862 43.0273C154.231 42.8268 154.635 42.6696 155.072 42.5557C155.514 42.4417 155.956 42.3848 156.398 42.3848C157.292 42.3848 157.952 42.583 158.381 42.9795C158.814 43.376 159.03 44.0117 159.03 44.8867V50H158.189ZM155.626 49.2002C156.332 49.2002 156.886 49.0065 157.287 48.6191C157.693 48.2318 157.896 47.6895 157.896 46.9922V46.3154L156.761 46.3633C155.858 46.3952 155.207 46.5365 154.806 46.7871C154.409 47.0332 154.211 47.4183 154.211 47.9424C154.211 48.3525 154.334 48.6647 154.58 48.8789C154.831 49.0931 155.179 49.2002 155.626 49.2002ZM163.795 49.2002C163.995 49.2002 164.189 49.1865 164.376 49.1592C164.563 49.1273 164.711 49.0954 164.82 49.0635V49.9316C164.697 49.9909 164.515 50.0387 164.273 50.0752C164.036 50.1162 163.822 50.1367 163.631 50.1367C162.182 50.1367 161.457 49.3734 161.457 47.8467V43.3896H160.384V42.8428L161.457 42.3711L161.936 40.7715H162.592V42.5078H164.766V43.3896H162.592V47.7988C162.592 48.25 162.699 48.5964 162.913 48.8379C163.127 49.0794 163.421 49.2002 163.795 49.2002ZM169.489 50.1367C168.382 50.1367 167.507 49.7995 166.864 49.125C166.226 48.4505 165.907 47.514 165.907 46.3154C165.907 45.1077 166.203 44.1484 166.796 43.4375C167.393 42.7266 168.193 42.3711 169.195 42.3711C170.134 42.3711 170.877 42.681 171.424 43.3008C171.971 43.916 172.244 44.7295 172.244 45.7412V46.459H167.083C167.106 47.3385 167.327 48.0062 167.746 48.4619C168.17 48.9176 168.765 49.1455 169.53 49.1455C170.337 49.1455 171.134 48.9769 171.923 48.6396V49.6514C171.522 49.8245 171.141 49.9476 170.781 50.0205C170.426 50.098 169.995 50.1367 169.489 50.1367ZM169.182 43.3213C168.58 43.3213 168.099 43.5173 167.739 43.9092C167.384 44.3011 167.174 44.8434 167.11 45.5361H171.027C171.027 44.8206 170.868 44.2738 170.549 43.8955C170.23 43.5127 169.774 43.3213 169.182 43.3213ZM174.021 49.2754C174.021 48.9701 174.09 48.7399 174.227 48.585C174.368 48.4255 174.568 48.3457 174.828 48.3457C175.092 48.3457 175.298 48.4255 175.443 48.585C175.594 48.7399 175.669 48.9701 175.669 49.2754C175.669 49.5716 175.594 49.7995 175.443 49.959C175.293 50.1185 175.088 50.1982 174.828 50.1982C174.596 50.1982 174.402 50.1276 174.247 49.9863C174.097 49.8405 174.021 49.6035 174.021 49.2754ZM174.021 43.2393C174.021 42.624 174.29 42.3164 174.828 42.3164C175.389 42.3164 175.669 42.624 175.669 43.2393C175.669 43.5355 175.594 43.7633 175.443 43.9229C175.293 44.0824 175.088 44.1621 174.828 44.1621C174.596 44.1621 174.402 44.0915 174.247 43.9502C174.097 43.8044 174.021 43.5674 174.021 43.2393ZM186.135 50H184.022V44.2168L184.043 43.2666L184.077 42.2275C183.726 42.5785 183.482 42.8086 183.346 42.918L182.197 43.8408L181.179 42.5693L184.398 40.0059H186.135V50ZM196.122 47.9287H194.919V50H192.854V47.9287H188.589V46.459L192.971 40.0059H194.919V46.2881H196.122V47.9287ZM192.854 46.2881V44.5928C192.854 44.3102 192.866 43.9001 192.889 43.3623C192.911 42.8245 192.93 42.5124 192.943 42.4258H192.889C192.72 42.7995 192.517 43.1641 192.28 43.5195L190.448 46.2881H192.854ZM203.84 45.0029C203.84 46.7484 203.553 48.0404 202.979 48.8789C202.409 49.7174 201.529 50.1367 200.34 50.1367C199.187 50.1367 198.316 49.7038 197.729 48.8379C197.145 47.972 196.854 46.6937 196.854 45.0029C196.854 43.2393 197.138 41.9404 197.708 41.1064C198.278 40.2679 199.155 39.8486 200.34 39.8486C201.493 39.8486 202.363 40.2861 202.951 41.1611C203.544 42.0361 203.84 43.3167 203.84 45.0029ZM198.952 45.0029C198.952 46.2288 199.057 47.1084 199.267 47.6416C199.481 48.1702 199.839 48.4346 200.34 48.4346C200.832 48.4346 201.188 48.1657 201.406 47.6279C201.625 47.0902 201.734 46.2152 201.734 45.0029C201.734 43.777 201.623 42.8975 201.399 42.3643C201.181 41.8265 200.827 41.5576 200.34 41.5576C199.843 41.5576 199.488 41.8265 199.273 42.3643C199.059 42.8975 198.952 43.777 198.952 45.0029Z" fill="#42556C"/>
<path d="M52.9814 83.9958V76.8572H53.8115V83.2439H56.9609V83.9958H52.9814ZM61.3457 83.9958L61.1846 83.2341H61.1455C60.8786 83.5694 60.6117 83.7973 60.3447 83.9177C60.0811 84.0349 59.7507 84.0935 59.3535 84.0935C58.8229 84.0935 58.4062 83.9568 58.1035 83.6833C57.804 83.4099 57.6543 83.0209 57.6543 82.5164C57.6543 81.4356 58.5186 80.8692 60.2471 80.8171L61.1553 80.7878V80.4558C61.1553 80.0359 61.0641 79.7266 60.8818 79.5281C60.7028 79.3263 60.4147 79.2253 60.0176 79.2253C59.5716 79.2253 59.0671 79.3621 58.5039 79.6355L58.2549 79.0154C58.5186 78.8722 58.8066 78.7598 59.1191 78.6785C59.4349 78.5971 59.7507 78.5564 60.0664 78.5564C60.7044 78.5564 61.1764 78.698 61.4824 78.9812C61.7917 79.2644 61.9463 79.7185 61.9463 80.3435V83.9958H61.3457ZM59.5146 83.4246C60.0192 83.4246 60.4147 83.2862 60.7012 83.0095C60.9909 82.7328 61.1357 82.3455 61.1357 81.8474V81.364L60.3252 81.3982C59.6807 81.421 59.2152 81.5219 58.9287 81.7009C58.6455 81.8767 58.5039 82.1518 58.5039 82.5261C58.5039 82.8191 58.5918 83.0421 58.7676 83.1951C58.9466 83.3481 59.1956 83.4246 59.5146 83.4246ZM67.2832 83.9958V80.5339C67.2832 80.0977 67.1839 79.7722 66.9854 79.5574C66.7868 79.3425 66.4759 79.2351 66.0527 79.2351C65.4928 79.2351 65.0827 79.3865 64.8223 79.6892C64.5618 79.9919 64.4316 80.4916 64.4316 81.1882V83.9958H63.6211V78.6443H64.2803L64.4121 79.3767H64.4512C64.6172 79.113 64.8499 78.9096 65.1494 78.7664C65.4489 78.6199 65.7826 78.5466 66.1504 78.5466C66.7949 78.5466 67.2799 78.7029 67.6055 79.0154C67.931 79.3246 68.0938 79.821 68.0938 80.5046V83.9958H67.2832ZM74.1436 78.6443V79.157L73.1523 79.2742C73.2435 79.3881 73.3249 79.5378 73.3965 79.7234C73.4681 79.9057 73.5039 80.1124 73.5039 80.3435C73.5039 80.8676 73.3249 81.2859 72.9668 81.5984C72.6087 81.9109 72.1172 82.0671 71.4922 82.0671C71.3327 82.0671 71.1829 82.0541 71.043 82.0281C70.6979 82.2104 70.5254 82.4399 70.5254 82.7166C70.5254 82.863 70.5856 82.9721 70.7061 83.0437C70.8265 83.1121 71.0332 83.1462 71.3262 83.1462H72.2734C72.8529 83.1462 73.2972 83.2683 73.6064 83.5125C73.9189 83.7566 74.0752 84.1114 74.0752 84.5769C74.0752 85.1694 73.8376 85.6202 73.3623 85.9294C72.887 86.2419 72.1937 86.3982 71.2822 86.3982C70.5824 86.3982 70.042 86.268 69.6611 86.0076C69.2835 85.7472 69.0947 85.3793 69.0947 84.9041C69.0947 84.5785 69.1989 84.297 69.4072 84.0593C69.6156 83.8217 69.9085 83.6606 70.2861 83.5759C70.1494 83.5141 70.0339 83.4181 69.9395 83.2878C69.8483 83.1576 69.8027 83.0063 69.8027 82.8337C69.8027 82.6384 69.8548 82.4675 69.959 82.321C70.0632 82.1746 70.2275 82.033 70.4521 81.8962C70.1755 81.7823 69.9492 81.5886 69.7734 81.3152C69.6009 81.0417 69.5146 80.7292 69.5146 80.3777C69.5146 79.7917 69.6904 79.3409 70.042 79.0251C70.3936 78.7061 70.8916 78.5466 71.5361 78.5466C71.8161 78.5466 72.0684 78.5792 72.293 78.6443H74.1436ZM69.876 84.8943C69.876 85.184 69.998 85.4037 70.2422 85.5535C70.4863 85.7032 70.8363 85.7781 71.292 85.7781C71.9723 85.7781 72.4753 85.6755 72.8008 85.4705C73.1296 85.2686 73.2939 84.9936 73.2939 84.6453C73.2939 84.3556 73.2044 84.1537 73.0254 84.0398C72.8464 83.9291 72.5094 83.8738 72.0146 83.8738H71.043C70.6751 83.8738 70.3887 83.9617 70.1836 84.1375C69.9785 84.3132 69.876 84.5655 69.876 84.8943ZM70.3154 80.3582C70.3154 80.7325 70.4212 81.0157 70.6328 81.2078C70.8444 81.3998 71.139 81.4958 71.5166 81.4958C72.3076 81.4958 72.7031 81.1117 72.7031 80.3435C72.7031 79.5395 72.3027 79.1375 71.502 79.1375C71.1211 79.1375 70.8281 79.24 70.623 79.4451C70.418 79.6501 70.3154 79.9545 70.3154 80.3582ZM76.0039 78.6443V82.116C76.0039 82.5522 76.1032 82.8777 76.3018 83.0925C76.5003 83.3074 76.8112 83.4148 77.2344 83.4148C77.7943 83.4148 78.2028 83.2618 78.46 82.9558C78.7204 82.6498 78.8506 82.1501 78.8506 81.4568V78.6443H79.6611V83.9958H78.9922L78.875 83.2781H78.8311C78.665 83.5417 78.4339 83.7436 78.1377 83.8835C77.8447 84.0235 77.5094 84.0935 77.1318 84.0935C76.4808 84.0935 75.9925 83.9389 75.667 83.6296C75.3447 83.3204 75.1836 82.8256 75.1836 82.1453V78.6443H76.0039ZM84.6758 83.9958L84.5146 83.2341H84.4756C84.2087 83.5694 83.9417 83.7973 83.6748 83.9177C83.4111 84.0349 83.0807 84.0935 82.6836 84.0935C82.153 84.0935 81.7363 83.9568 81.4336 83.6833C81.1341 83.4099 80.9844 83.0209 80.9844 82.5164C80.9844 81.4356 81.8486 80.8692 83.5771 80.8171L84.4854 80.7878V80.4558C84.4854 80.0359 84.3942 79.7266 84.2119 79.5281C84.0329 79.3263 83.7448 79.2253 83.3477 79.2253C82.9017 79.2253 82.3971 79.3621 81.834 79.6355L81.585 79.0154C81.8486 78.8722 82.1367 78.7598 82.4492 78.6785C82.765 78.5971 83.0807 78.5564 83.3965 78.5564C84.0345 78.5564 84.5065 78.698 84.8125 78.9812C85.1217 79.2644 85.2764 79.7185 85.2764 80.3435V83.9958H84.6758ZM82.8447 83.4246C83.3493 83.4246 83.7448 83.2862 84.0312 83.0095C84.321 82.7328 84.4658 82.3455 84.4658 81.8474V81.364L83.6553 81.3982C83.0107 81.421 82.5452 81.5219 82.2588 81.7009C81.9756 81.8767 81.834 82.1518 81.834 82.5261C81.834 82.8191 81.9219 83.0421 82.0977 83.1951C82.2767 83.3481 82.5257 83.4246 82.8447 83.4246ZM91.3311 78.6443V79.157L90.3398 79.2742C90.431 79.3881 90.5124 79.5378 90.584 79.7234C90.6556 79.9057 90.6914 80.1124 90.6914 80.3435C90.6914 80.8676 90.5124 81.2859 90.1543 81.5984C89.7962 81.9109 89.3047 82.0671 88.6797 82.0671C88.5202 82.0671 88.3704 82.0541 88.2305 82.0281C87.8854 82.2104 87.7129 82.4399 87.7129 82.7166C87.7129 82.863 87.7731 82.9721 87.8936 83.0437C88.014 83.1121 88.2207 83.1462 88.5137 83.1462H89.4609C90.0404 83.1462 90.4847 83.2683 90.7939 83.5125C91.1064 83.7566 91.2627 84.1114 91.2627 84.5769C91.2627 85.1694 91.0251 85.6202 90.5498 85.9294C90.0745 86.2419 89.3812 86.3982 88.4697 86.3982C87.7699 86.3982 87.2295 86.268 86.8486 86.0076C86.471 85.7472 86.2822 85.3793 86.2822 84.9041C86.2822 84.5785 86.3864 84.297 86.5947 84.0593C86.8031 83.8217 87.096 83.6606 87.4736 83.5759C87.3369 83.5141 87.2214 83.4181 87.127 83.2878C87.0358 83.1576 86.9902 83.0063 86.9902 82.8337C86.9902 82.6384 87.0423 82.4675 87.1465 82.321C87.2507 82.1746 87.415 82.033 87.6396 81.8962C87.363 81.7823 87.1367 81.5886 86.9609 81.3152C86.7884 81.0417 86.7021 80.7292 86.7021 80.3777C86.7021 79.7917 86.8779 79.3409 87.2295 79.0251C87.5811 78.7061 88.0791 78.5466 88.7236 78.5466C89.0036 78.5466 89.2559 78.5792 89.4805 78.6443H91.3311ZM87.0635 84.8943C87.0635 85.184 87.1855 85.4037 87.4297 85.5535C87.6738 85.7032 88.0238 85.7781 88.4795 85.7781C89.1598 85.7781 89.6628 85.6755 89.9883 85.4705C90.3171 85.2686 90.4814 84.9936 90.4814 84.6453C90.4814 84.3556 90.3919 84.1537 90.2129 84.0398C90.0339 83.9291 89.6969 83.8738 89.2021 83.8738H88.2305C87.8626 83.8738 87.5762 83.9617 87.3711 84.1375C87.166 84.3132 87.0635 84.5655 87.0635 84.8943ZM87.5029 80.3582C87.5029 80.7325 87.6087 81.0157 87.8203 81.2078C88.0319 81.3998 88.3265 81.4958 88.7041 81.4958C89.4951 81.4958 89.8906 81.1117 89.8906 80.3435C89.8906 79.5395 89.4902 79.1375 88.6895 79.1375C88.3086 79.1375 88.0156 79.24 87.8105 79.4451C87.6055 79.6501 87.5029 79.9545 87.5029 80.3582ZM94.6904 84.0935C93.8994 84.0935 93.2744 83.8526 92.8154 83.3708C92.3597 82.8891 92.1318 82.2201 92.1318 81.364C92.1318 80.5014 92.3434 79.8162 92.7666 79.3083C93.193 78.8005 93.7643 78.5466 94.4805 78.5466C95.151 78.5466 95.6816 78.768 96.0723 79.2107C96.4629 79.6501 96.6582 80.2312 96.6582 80.9539V81.4666H92.9717C92.988 82.0948 93.1458 82.5717 93.4453 82.8972C93.748 83.2227 94.1729 83.3855 94.7197 83.3855C95.2959 83.3855 95.8656 83.2651 96.4287 83.0242V83.7468C96.1423 83.8705 95.8704 83.9584 95.6133 84.0105C95.3594 84.0658 95.0518 84.0935 94.6904 84.0935ZM94.4707 79.2253C94.041 79.2253 93.6976 79.3653 93.4404 79.6453C93.1865 79.9252 93.0368 80.3126 92.9912 80.8074H95.7891C95.7891 80.2963 95.6751 79.9057 95.4473 79.6355C95.2194 79.3621 94.8939 79.2253 94.4707 79.2253ZM103.133 84.0935C102.785 84.0935 102.465 84.03 102.176 83.9031C101.889 83.7729 101.648 83.5743 101.453 83.3074H101.395C101.434 83.6199 101.453 83.9161 101.453 84.196V86.3982H100.643V78.6443H101.302L101.414 79.3767H101.453C101.661 79.0837 101.904 78.8722 102.181 78.7419C102.457 78.6117 102.775 78.5466 103.133 78.5466C103.842 78.5466 104.389 78.7891 104.773 79.2742C105.161 79.7592 105.354 80.4395 105.354 81.3152C105.354 82.1941 105.158 82.8777 104.764 83.366C104.373 83.851 103.829 84.0935 103.133 84.0935ZM103.016 79.2351C102.469 79.2351 102.073 79.3865 101.829 79.6892C101.585 79.9919 101.46 80.4737 101.453 81.1345V81.3152C101.453 82.0671 101.578 82.6059 101.829 82.9314C102.08 83.2537 102.482 83.4148 103.035 83.4148C103.497 83.4148 103.859 83.2276 104.119 82.8533C104.383 82.4789 104.515 81.963 104.515 81.3054C104.515 80.6381 104.383 80.127 104.119 79.7722C103.859 79.4141 103.491 79.2351 103.016 79.2351ZM110.066 83.9958L109.905 83.2341H109.866C109.599 83.5694 109.332 83.7973 109.065 83.9177C108.802 84.0349 108.471 84.0935 108.074 84.0935C107.544 84.0935 107.127 83.9568 106.824 83.6833C106.525 83.4099 106.375 83.0209 106.375 82.5164C106.375 81.4356 107.239 80.8692 108.968 80.8171L109.876 80.7878V80.4558C109.876 80.0359 109.785 79.7266 109.603 79.5281C109.424 79.3263 109.135 79.2253 108.738 79.2253C108.292 79.2253 107.788 79.3621 107.225 79.6355L106.976 79.0154C107.239 78.8722 107.527 78.7598 107.84 78.6785C108.156 78.5971 108.471 78.5564 108.787 78.5564C109.425 78.5564 109.897 78.698 110.203 78.9812C110.512 79.2644 110.667 79.7185 110.667 80.3435V83.9958H110.066ZM108.235 83.4246C108.74 83.4246 109.135 83.2862 109.422 83.0095C109.712 82.7328 109.856 82.3455 109.856 81.8474V81.364L109.046 81.3982C108.401 81.421 107.936 81.5219 107.649 81.7009C107.366 81.8767 107.225 82.1518 107.225 82.5261C107.225 82.8191 107.312 83.0421 107.488 83.1951C107.667 83.3481 107.916 83.4246 108.235 83.4246ZM113.152 83.9958H112.342V78.6443H113.152V83.9958ZM112.273 77.1941C112.273 77.0085 112.319 76.8735 112.41 76.7888C112.501 76.7009 112.615 76.657 112.752 76.657C112.882 76.657 112.994 76.7009 113.089 76.7888C113.183 76.8767 113.23 77.0118 113.23 77.1941C113.23 77.3764 113.183 77.5131 113.089 77.6042C112.994 77.6921 112.882 77.7361 112.752 77.7361C112.615 77.7361 112.501 77.6921 112.41 77.6042C112.319 77.5131 112.273 77.3764 112.273 77.1941ZM117.312 78.5466C117.55 78.5466 117.763 78.5662 117.952 78.6052L117.84 79.3572C117.618 79.3083 117.423 79.2839 117.254 79.2839C116.821 79.2839 116.45 79.4597 116.141 79.8113C115.835 80.1628 115.682 80.6007 115.682 81.1248V83.9958H114.871V78.6443H115.54L115.633 79.6355H115.672C115.87 79.2872 116.11 79.0186 116.39 78.8298C116.67 78.641 116.977 78.5466 117.312 78.5466Z" fill="#004E82"/>
<path d="M59.1777 130.718C59.1777 131.632 58.9938 132.392 58.626 132.998C58.2581 133.603 57.7389 134.013 57.0684 134.228L58.7676 135.996H57.5615L56.1699 134.385L55.9014 134.394C54.8499 134.394 54.0378 134.074 53.4648 133.432C52.8952 132.788 52.6104 131.88 52.6104 130.708C52.6104 129.546 52.8968 128.646 53.4697 128.008C54.0426 127.366 54.8564 127.046 55.9111 127.046C56.9365 127.046 57.7373 127.371 58.3135 128.022C58.8896 128.673 59.1777 129.572 59.1777 130.718ZM53.4893 130.718C53.4893 131.684 53.6943 132.418 54.1045 132.92C54.5179 133.418 55.1169 133.667 55.9014 133.667C56.6924 133.667 57.2897 133.418 57.6934 132.92C58.097 132.422 58.2988 131.688 58.2988 130.718C58.2988 129.757 58.097 129.03 57.6934 128.535C57.293 128.037 56.6989 127.788 55.9111 127.788C55.1201 127.788 54.5179 128.038 54.1045 128.54C53.6943 129.038 53.4893 129.764 53.4893 130.718ZM61.4141 128.945V132.417C61.4141 132.853 61.5133 133.178 61.7119 133.393C61.9105 133.608 62.2214 133.716 62.6445 133.716C63.2044 133.716 63.613 133.563 63.8701 133.257C64.1305 132.951 64.2607 132.451 64.2607 131.758V128.945H65.0713V134.297H64.4023L64.2852 133.579H64.2412C64.0752 133.843 63.8441 134.044 63.5479 134.184C63.2549 134.324 62.9196 134.394 62.542 134.394C61.891 134.394 61.4027 134.24 61.0771 133.93C60.7549 133.621 60.5938 133.126 60.5938 132.446V128.945H61.4141ZM70.0859 134.297L69.9248 133.535H69.8857C69.6188 133.87 69.3519 134.098 69.085 134.219C68.8213 134.336 68.4909 134.394 68.0938 134.394C67.5632 134.394 67.1465 134.258 66.8438 133.984C66.5443 133.711 66.3945 133.322 66.3945 132.817C66.3945 131.736 67.2588 131.17 68.9873 131.118L69.8955 131.089V130.757C69.8955 130.337 69.8044 130.027 69.6221 129.829C69.443 129.627 69.1549 129.526 68.7578 129.526C68.3118 129.526 67.8073 129.663 67.2441 129.936L66.9951 129.316C67.2588 129.173 67.5469 129.061 67.8594 128.979C68.1751 128.898 68.4909 128.857 68.8066 128.857C69.4447 128.857 69.9167 128.999 70.2227 129.282C70.5319 129.565 70.6865 130.019 70.6865 130.644V134.297H70.0859ZM68.2549 133.725C68.7594 133.725 69.1549 133.587 69.4414 133.31C69.7311 133.034 69.876 132.646 69.876 132.148V131.665L69.0654 131.699C68.4209 131.722 67.9554 131.823 67.6689 132.002C67.3857 132.177 67.2441 132.453 67.2441 132.827C67.2441 133.12 67.332 133.343 67.5078 133.496C67.6868 133.649 67.9359 133.725 68.2549 133.725ZM73.1719 134.297H72.3613V126.699H73.1719V134.297ZM75.7012 134.297H74.8906V128.945H75.7012V134.297ZM74.8223 127.495C74.8223 127.309 74.8678 127.174 74.959 127.09C75.0501 127.002 75.1641 126.958 75.3008 126.958C75.431 126.958 75.5433 127.002 75.6377 127.09C75.7321 127.177 75.7793 127.313 75.7793 127.495C75.7793 127.677 75.7321 127.814 75.6377 127.905C75.5433 127.993 75.431 128.037 75.3008 128.037C75.1641 128.037 75.0501 127.993 74.959 127.905C74.8678 127.814 74.8223 127.677 74.8223 127.495ZM79.1484 133.725C79.2917 133.725 79.43 133.716 79.5635 133.696C79.6969 133.673 79.8027 133.65 79.8809 133.628V134.248C79.793 134.29 79.6628 134.324 79.4902 134.35C79.321 134.38 79.168 134.394 79.0312 134.394C77.9961 134.394 77.4785 133.849 77.4785 132.759V129.575H76.7119V129.184L77.4785 128.847L77.8203 127.705H78.2891V128.945H79.8418V129.575H78.2891V132.724C78.2891 133.047 78.3656 133.294 78.5186 133.467C78.6715 133.639 78.8815 133.725 79.1484 133.725ZM80.1055 128.945H80.9746L82.1465 131.997C82.4036 132.693 82.5632 133.196 82.625 133.506H82.6641C82.7064 133.34 82.7943 133.056 82.9277 132.656C83.0645 132.252 83.5072 131.015 84.2559 128.945H85.125L82.8252 135.039C82.5973 135.641 82.3304 136.067 82.0244 136.318C81.7217 136.572 81.349 136.699 80.9062 136.699C80.6589 136.699 80.4147 136.671 80.1738 136.616V135.967C80.3529 136.006 80.5531 136.025 80.7744 136.025C81.3311 136.025 81.7282 135.713 81.9658 135.088L82.2637 134.326L80.1055 128.945Z" fill="#004E82"/>
<path d="M230.289 132.397C230.289 133.025 230.061 133.515 229.605 133.867C229.149 134.219 228.531 134.394 227.75 134.394C226.903 134.394 226.252 134.285 225.796 134.067V133.266C226.089 133.39 226.408 133.488 226.753 133.559C227.098 133.631 227.44 133.667 227.779 133.667C228.332 133.667 228.749 133.563 229.029 133.354C229.309 133.143 229.449 132.85 229.449 132.475C229.449 132.228 229.398 132.026 229.297 131.87C229.2 131.71 229.034 131.564 228.799 131.43C228.568 131.297 228.215 131.146 227.74 130.976C227.076 130.739 226.6 130.457 226.314 130.132C226.031 129.806 225.889 129.381 225.889 128.857C225.889 128.307 226.096 127.869 226.509 127.544C226.923 127.218 227.47 127.055 228.15 127.055C228.86 127.055 229.512 127.186 230.108 127.446L229.849 128.169C229.26 127.921 228.687 127.798 228.13 127.798C227.691 127.798 227.347 127.892 227.1 128.081C226.853 128.27 226.729 128.532 226.729 128.867C226.729 129.114 226.775 129.318 226.866 129.477C226.957 129.634 227.11 129.778 227.325 129.912C227.543 130.042 227.875 130.187 228.321 130.346C229.069 130.613 229.584 130.9 229.864 131.206C230.147 131.512 230.289 131.909 230.289 132.397ZM233.355 133.725C233.498 133.725 233.637 133.716 233.77 133.696C233.903 133.673 234.009 133.65 234.087 133.628V134.248C234 134.29 233.869 134.324 233.697 134.35C233.528 134.38 233.375 134.394 233.238 134.394C232.203 134.394 231.685 133.849 231.685 132.759V129.575H230.918V129.184L231.685 128.847L232.027 127.705H232.496V128.945H234.048V129.575H232.496V132.724C232.496 133.047 232.572 133.294 232.725 133.467C232.878 133.639 233.088 133.725 233.355 133.725ZM234.312 128.945H235.181L236.353 131.997C236.61 132.693 236.77 133.196 236.832 133.506H236.871C236.913 133.34 237.001 133.056 237.134 132.656C237.271 132.252 237.714 131.015 238.462 128.945H239.332L237.032 135.039C236.804 135.641 236.537 136.067 236.231 136.318C235.928 136.572 235.556 136.699 235.113 136.699C234.865 136.699 234.621 136.671 234.38 136.616V135.967C234.559 136.006 234.76 136.025 234.981 136.025C235.538 136.025 235.935 135.713 236.172 135.088L236.47 134.326L234.312 128.945ZM241.011 134.297H240.201V126.699H241.011V134.297ZM244.991 134.394C244.2 134.394 243.575 134.153 243.116 133.672C242.66 133.19 242.432 132.521 242.432 131.665C242.432 130.802 242.644 130.117 243.067 129.609C243.493 129.101 244.065 128.847 244.781 128.847C245.451 128.847 245.982 129.069 246.373 129.511C246.763 129.951 246.958 130.532 246.958 131.255V131.767H243.272C243.288 132.396 243.446 132.872 243.746 133.198C244.048 133.524 244.473 133.686 245.02 133.686C245.596 133.686 246.166 133.566 246.729 133.325V134.048C246.443 134.171 246.171 134.259 245.914 134.311C245.66 134.367 245.352 134.394 244.991 134.394ZM244.771 129.526C244.341 129.526 243.998 129.666 243.741 129.946C243.487 130.226 243.337 130.613 243.292 131.108H246.089C246.089 130.597 245.975 130.206 245.748 129.936C245.52 129.663 245.194 129.526 244.771 129.526ZM255.323 128.945V129.458L254.332 129.575C254.423 129.689 254.504 129.839 254.576 130.024C254.647 130.206 254.683 130.413 254.683 130.644C254.683 131.168 254.504 131.587 254.146 131.899C253.788 132.212 253.296 132.368 252.671 132.368C252.512 132.368 252.362 132.355 252.222 132.329C251.877 132.511 251.705 132.741 251.705 133.017C251.705 133.164 251.765 133.273 251.885 133.344C252.006 133.413 252.212 133.447 252.505 133.447H253.453C254.032 133.447 254.476 133.569 254.786 133.813C255.098 134.057 255.254 134.412 255.254 134.878C255.254 135.47 255.017 135.921 254.542 136.23C254.066 136.543 253.373 136.699 252.461 136.699C251.762 136.699 251.221 136.569 250.84 136.308C250.463 136.048 250.274 135.68 250.274 135.205C250.274 134.879 250.378 134.598 250.586 134.36C250.795 134.122 251.088 133.961 251.465 133.877C251.329 133.815 251.213 133.719 251.119 133.589C251.028 133.458 250.982 133.307 250.982 133.135C250.982 132.939 251.034 132.768 251.138 132.622C251.242 132.475 251.407 132.334 251.631 132.197C251.355 132.083 251.128 131.889 250.953 131.616C250.78 131.343 250.694 131.03 250.694 130.678C250.694 130.093 250.87 129.642 251.221 129.326C251.573 129.007 252.071 128.847 252.715 128.847C252.995 128.847 253.248 128.88 253.472 128.945H255.323ZM251.055 135.195C251.055 135.485 251.177 135.705 251.421 135.854C251.666 136.004 252.015 136.079 252.471 136.079C253.152 136.079 253.654 135.976 253.98 135.771C254.309 135.569 254.473 135.294 254.473 134.946C254.473 134.656 254.384 134.455 254.205 134.341C254.026 134.23 253.689 134.175 253.194 134.175H252.222C251.854 134.175 251.568 134.262 251.363 134.438C251.158 134.614 251.055 134.866 251.055 135.195ZM251.495 130.659C251.495 131.033 251.6 131.316 251.812 131.509C252.024 131.701 252.318 131.797 252.696 131.797C253.487 131.797 253.882 131.413 253.882 130.644C253.882 129.84 253.482 129.438 252.681 129.438C252.3 129.438 252.007 129.541 251.802 129.746C251.597 129.951 251.495 130.255 251.495 130.659ZM257.183 128.945V132.417C257.183 132.853 257.282 133.178 257.481 133.393C257.68 133.608 257.99 133.716 258.414 133.716C258.973 133.716 259.382 133.563 259.639 133.257C259.9 132.951 260.03 132.451 260.03 131.758V128.945H260.84V134.297H260.171L260.054 133.579H260.01C259.844 133.843 259.613 134.044 259.317 134.184C259.024 134.324 258.689 134.394 258.311 134.394C257.66 134.394 257.172 134.24 256.846 133.93C256.524 133.621 256.363 133.126 256.363 132.446V128.945H257.183ZM263.375 134.297H262.564V128.945H263.375V134.297ZM262.496 127.495C262.496 127.309 262.541 127.174 262.632 127.09C262.723 127.002 262.837 126.958 262.974 126.958C263.104 126.958 263.217 127.002 263.311 127.09C263.405 127.177 263.453 127.313 263.453 127.495C263.453 127.677 263.405 127.814 263.311 127.905C263.217 127.993 263.104 128.037 262.974 128.037C262.837 128.037 262.723 127.993 262.632 127.905C262.541 127.814 262.496 127.677 262.496 127.495ZM268.736 133.579H268.692C268.318 134.122 267.758 134.394 267.012 134.394C266.312 134.394 265.767 134.155 265.376 133.677C264.989 133.198 264.795 132.518 264.795 131.635C264.795 130.753 264.991 130.068 265.381 129.58C265.772 129.092 266.316 128.847 267.012 128.847C267.738 128.847 268.295 129.111 268.682 129.638H268.746L268.711 129.253L268.692 128.877V126.699H269.502V134.297H268.843L268.736 133.579ZM267.115 133.716C267.668 133.716 268.069 133.566 268.316 133.266C268.567 132.964 268.692 132.477 268.692 131.806V131.635C268.692 130.877 268.565 130.337 268.311 130.014C268.06 129.689 267.658 129.526 267.105 129.526C266.63 129.526 266.265 129.712 266.011 130.083C265.761 130.451 265.635 130.971 265.635 131.645C265.635 132.329 265.761 132.845 266.011 133.193C266.262 133.541 266.63 133.716 267.115 133.716ZM273.487 134.394C272.696 134.394 272.071 134.153 271.612 133.672C271.156 133.19 270.928 132.521 270.928 131.665C270.928 130.802 271.14 130.117 271.563 129.609C271.989 129.101 272.561 128.847 273.277 128.847C273.947 128.847 274.478 129.069 274.869 129.511C275.259 129.951 275.455 130.532 275.455 131.255V131.767H271.768C271.784 132.396 271.942 132.872 272.242 133.198C272.544 133.524 272.969 133.686 273.516 133.686C274.092 133.686 274.662 133.566 275.225 133.325V134.048C274.939 134.171 274.667 134.259 274.41 134.311C274.156 134.367 273.848 134.394 273.487 134.394ZM273.267 129.526C272.837 129.526 272.494 129.666 272.237 129.946C271.983 130.226 271.833 130.613 271.788 131.108H274.585C274.585 130.597 274.472 130.206 274.244 129.936C274.016 129.663 273.69 129.526 273.267 129.526Z" fill="#004E82"/>
<rect x="52.2102" y="144.091" width="158.721" height="17" rx="3" fill="#E6F0F9"/>
<rect x="225.279" y="144.091" width="158.721" height="17" rx="3" fill="#E6F0F9"/>
<path d="M201.269 103.583L203.656 100.864C203.711 100.801 203.741 100.717 203.741 100.628C203.741 100.538 203.711 100.455 203.656 100.392L203.48 100.191C203.365 100.061 203.179 100.061 203.065 100.191L201.06 102.474L199.054 100.189C198.998 100.126 198.925 100.091 198.846 100.091C198.768 100.091 198.694 100.126 198.639 100.189L198.463 100.389C198.408 100.452 198.377 100.536 198.377 100.625C198.377 100.715 198.408 100.799 198.463 100.862L200.852 103.583C200.908 103.646 200.982 103.681 201.06 103.681C201.139 103.681 201.213 103.646 201.269 103.583Z" fill="#004E82"/>
<path d="M201.269 154.583L203.656 151.864C203.711 151.801 203.741 151.717 203.741 151.628C203.741 151.538 203.711 151.455 203.656 151.392L203.48 151.191C203.365 151.061 203.179 151.061 203.065 151.191L201.06 153.474L199.054 151.189C198.998 151.126 198.925 151.091 198.846 151.091C198.768 151.091 198.694 151.126 198.639 151.189L198.463 151.389C198.408 151.452 198.377 151.536 198.377 151.625C198.377 151.715 198.408 151.799 198.463 151.862L200.852 154.583C200.908 154.646 200.982 154.681 201.06 154.681C201.139 154.681 201.213 154.646 201.269 154.583Z" fill="#004E82"/>
<path d="M374.547 103.583L376.935 100.864C376.99 100.801 377.02 100.717 377.02 100.628C377.02 100.538 376.99 100.455 376.935 100.392L376.759 100.191C376.644 100.061 376.458 100.061 376.344 100.191L374.339 102.474L372.332 100.189C372.277 100.126 372.204 100.091 372.125 100.091C372.046 100.091 371.973 100.126 371.917 100.189L371.742 100.389C371.686 100.452 371.656 100.536 371.656 100.625C371.656 100.715 371.686 100.799 371.742 100.862L374.131 103.583C374.186 103.646 374.26 103.681 374.339 103.681C374.418 103.681 374.492 103.646 374.547 103.583Z" fill="#004E82"/>
<path d="M374.337 154.583L376.724 151.864C376.78 151.801 376.81 151.717 376.81 151.628C376.81 151.538 376.78 151.455 376.724 151.392L376.549 151.191C376.434 151.061 376.248 151.061 376.134 151.191L374.129 153.474L372.122 151.189C372.067 151.126 371.993 151.091 371.915 151.091C371.836 151.091 371.763 151.126 371.707 151.189L371.532 151.389C371.476 151.452 371.446 151.536 371.446 151.625C371.446 151.715 371.476 151.799 371.532 151.862L373.921 154.583C373.976 154.646 374.05 154.681 374.129 154.681C374.208 154.681 374.282 154.646 374.337 154.583Z" fill="#004E82"/>
<rect x="57.7935" y="99.915" width="33.7948" height="4.30705" rx="2" fill="#B8D0E4"/>
<rect x="235.143" y="99.915" width="33.7948" height="4.30705" rx="2" fill="#B8D0E4"/>
<rect x="57.7935" y="150.216" width="33.7948" height="4.30705" rx="2" fill="#B8D0E4"/>
<rect x="235.143" y="150.216" width="33.7948" height="4.30705" rx="2" fill="#B8D0E4"/>
<path d="M219.45 102.591L216.312 99.0913V106.091L219.45 102.591Z" fill="#42556C"/>
<g filter="url(#filter2_d)">
<rect x="52" y="176" width="222" height="202" rx="15" fill="white"/>
</g>
<path d="M106.625 215L102.75 204.875H102.688C102.76 205.677 102.797 206.63 102.797 207.734V215H101.57V203.578H103.57L107.188 213H107.25L110.898 203.578H112.883V215H111.555V207.641C111.555 206.797 111.591 205.88 111.664 204.891H111.602L107.695 215H106.625ZM121.094 215L120.836 213.781H120.773C120.346 214.318 119.919 214.682 119.492 214.875C119.07 215.062 118.542 215.156 117.906 215.156C117.057 215.156 116.391 214.938 115.906 214.5C115.427 214.062 115.188 213.44 115.188 212.633C115.188 210.904 116.57 209.997 119.336 209.914L120.789 209.867V209.336C120.789 208.664 120.643 208.169 120.352 207.852C120.065 207.529 119.604 207.367 118.969 207.367C118.255 207.367 117.448 207.586 116.547 208.023L116.148 207.031C116.57 206.802 117.031 206.622 117.531 206.492C118.036 206.362 118.542 206.297 119.047 206.297C120.068 206.297 120.823 206.523 121.312 206.977C121.807 207.43 122.055 208.156 122.055 209.156V215H121.094ZM118.164 214.086C118.971 214.086 119.604 213.865 120.062 213.422C120.526 212.979 120.758 212.359 120.758 211.562V210.789L119.461 210.844C118.43 210.88 117.685 211.042 117.227 211.328C116.773 211.609 116.547 212.049 116.547 212.648C116.547 213.117 116.688 213.474 116.969 213.719C117.255 213.964 117.654 214.086 118.164 214.086ZM128.156 215.156C126.917 215.156 125.956 214.776 125.273 214.016C124.596 213.25 124.258 212.169 124.258 210.773C124.258 209.341 124.602 208.234 125.289 207.453C125.982 206.672 126.966 206.281 128.242 206.281C128.654 206.281 129.065 206.326 129.477 206.414C129.888 206.503 130.211 206.607 130.445 206.727L130.047 207.828C129.76 207.714 129.448 207.62 129.109 207.547C128.771 207.469 128.471 207.43 128.211 207.43C126.471 207.43 125.602 208.539 125.602 210.758C125.602 211.81 125.812 212.617 126.234 213.18C126.661 213.742 127.292 214.023 128.125 214.023C128.839 214.023 129.57 213.87 130.32 213.562V214.711C129.747 215.008 129.026 215.156 128.156 215.156ZM138.219 215V209.461C138.219 208.763 138.06 208.242 137.742 207.898C137.424 207.555 136.927 207.383 136.25 207.383C135.349 207.383 134.69 207.628 134.273 208.117C133.862 208.607 133.656 209.409 133.656 210.523V215H132.359V202.844H133.656V206.523C133.656 206.966 133.635 207.333 133.594 207.625H133.672C133.927 207.214 134.289 206.891 134.758 206.656C135.232 206.417 135.771 206.297 136.375 206.297C137.422 206.297 138.206 206.547 138.727 207.047C139.253 207.542 139.516 208.331 139.516 209.414V215H138.219ZM143.484 215H142.188V206.438H143.484V215ZM142.078 204.117C142.078 203.82 142.151 203.604 142.297 203.469C142.443 203.328 142.625 203.258 142.844 203.258C143.052 203.258 143.232 203.328 143.383 203.469C143.534 203.609 143.609 203.826 143.609 204.117C143.609 204.409 143.534 204.628 143.383 204.773C143.232 204.914 143.052 204.984 142.844 204.984C142.625 204.984 142.443 204.914 142.297 204.773C142.151 204.628 142.078 204.409 142.078 204.117ZM152.094 215V209.461C152.094 208.763 151.935 208.242 151.617 207.898C151.299 207.555 150.802 207.383 150.125 207.383C149.229 207.383 148.573 207.625 148.156 208.109C147.74 208.594 147.531 209.393 147.531 210.508V215H146.234V206.438H147.289L147.5 207.609H147.562C147.828 207.188 148.201 206.862 148.68 206.633C149.159 206.398 149.693 206.281 150.281 206.281C151.312 206.281 152.089 206.531 152.609 207.031C153.13 207.526 153.391 208.32 153.391 209.414V215H152.094ZM159.68 215.156C158.414 215.156 157.414 214.771 156.68 214C155.951 213.229 155.586 212.159 155.586 210.789C155.586 209.409 155.924 208.312 156.602 207.5C157.284 206.688 158.198 206.281 159.344 206.281C160.417 206.281 161.266 206.635 161.891 207.344C162.516 208.047 162.828 208.977 162.828 210.133V210.953H156.93C156.956 211.958 157.208 212.721 157.688 213.242C158.172 213.763 158.852 214.023 159.727 214.023C160.648 214.023 161.56 213.831 162.461 213.445V214.602C162.003 214.799 161.568 214.94 161.156 215.023C160.75 215.112 160.258 215.156 159.68 215.156ZM159.328 207.367C158.641 207.367 158.091 207.591 157.68 208.039C157.273 208.487 157.034 209.107 156.961 209.898H161.438C161.438 209.081 161.255 208.456 160.891 208.023C160.526 207.586 160.005 207.367 159.328 207.367ZM108.812 239.906C108.812 241.062 108.417 241.953 107.625 242.578C106.839 243.198 105.711 243.508 104.242 243.508H102.898V248H101.57V236.578H104.531C107.385 236.578 108.812 237.688 108.812 239.906ZM102.898 242.367H104.094C105.271 242.367 106.122 242.177 106.648 241.797C107.174 241.417 107.438 240.807 107.438 239.969C107.438 239.214 107.19 238.651 106.695 238.281C106.201 237.911 105.43 237.727 104.383 237.727H102.898V242.367ZM118.406 243.711C118.406 245.107 118.055 246.198 117.352 246.984C116.648 247.766 115.677 248.156 114.438 248.156C113.672 248.156 112.992 247.977 112.398 247.617C111.805 247.258 111.346 246.742 111.023 246.07C110.701 245.398 110.539 244.612 110.539 243.711C110.539 242.315 110.888 241.229 111.586 240.453C112.284 239.672 113.253 239.281 114.492 239.281C115.69 239.281 116.641 239.68 117.344 240.477C118.052 241.273 118.406 242.352 118.406 243.711ZM111.883 243.711C111.883 244.805 112.102 245.638 112.539 246.211C112.977 246.784 113.62 247.07 114.469 247.07C115.318 247.07 115.961 246.786 116.398 246.219C116.841 245.646 117.062 244.81 117.062 243.711C117.062 242.622 116.841 241.797 116.398 241.234C115.961 240.667 115.312 240.383 114.453 240.383C113.604 240.383 112.964 240.661 112.531 241.219C112.099 241.776 111.883 242.607 111.883 243.711ZM126.211 245.664C126.211 246.461 125.914 247.076 125.32 247.508C124.727 247.94 123.893 248.156 122.82 248.156C121.685 248.156 120.799 247.977 120.164 247.617V246.414C120.576 246.622 121.016 246.786 121.484 246.906C121.958 247.026 122.414 247.086 122.852 247.086C123.529 247.086 124.049 246.979 124.414 246.766C124.779 246.547 124.961 246.216 124.961 245.773C124.961 245.44 124.815 245.156 124.523 244.922C124.237 244.682 123.674 244.401 122.836 244.078C122.039 243.781 121.471 243.523 121.133 243.305C120.799 243.081 120.549 242.828 120.383 242.547C120.221 242.266 120.141 241.93 120.141 241.539C120.141 240.841 120.424 240.292 120.992 239.891C121.56 239.484 122.339 239.281 123.328 239.281C124.25 239.281 125.151 239.469 126.031 239.844L125.57 240.898C124.711 240.544 123.932 240.367 123.234 240.367C122.62 240.367 122.156 240.464 121.844 240.656C121.531 240.849 121.375 241.115 121.375 241.453C121.375 241.682 121.432 241.878 121.547 242.039C121.667 242.201 121.857 242.354 122.117 242.5C122.378 242.646 122.878 242.857 123.617 243.133C124.633 243.503 125.318 243.875 125.672 244.25C126.031 244.625 126.211 245.096 126.211 245.664ZM131.094 247.086C131.323 247.086 131.544 247.07 131.758 247.039C131.971 247.003 132.141 246.966 132.266 246.93V247.922C132.125 247.99 131.917 248.044 131.641 248.086C131.37 248.133 131.125 248.156 130.906 248.156C129.25 248.156 128.422 247.284 128.422 245.539V240.445H127.195V239.82L128.422 239.281L128.969 237.453H129.719V239.438H132.203V240.445H129.719V245.484C129.719 246 129.841 246.396 130.086 246.672C130.331 246.948 130.667 247.086 131.094 247.086ZM141.758 248.156C140.492 248.156 139.492 247.771 138.758 247C138.029 246.229 137.664 245.159 137.664 243.789C137.664 242.409 138.003 241.312 138.68 240.5C139.362 239.688 140.276 239.281 141.422 239.281C142.495 239.281 143.344 239.635 143.969 240.344C144.594 241.047 144.906 241.977 144.906 243.133V243.953H139.008C139.034 244.958 139.286 245.721 139.766 246.242C140.25 246.763 140.93 247.023 141.805 247.023C142.727 247.023 143.638 246.831 144.539 246.445V247.602C144.081 247.799 143.646 247.94 143.234 248.023C142.828 248.112 142.336 248.156 141.758 248.156ZM141.406 240.367C140.719 240.367 140.169 240.591 139.758 241.039C139.352 241.487 139.112 242.107 139.039 242.898H143.516C143.516 242.081 143.333 241.456 142.969 241.023C142.604 240.586 142.083 240.367 141.406 240.367ZM152.953 246.852H152.883C152.284 247.721 151.388 248.156 150.195 248.156C149.076 248.156 148.203 247.773 147.578 247.008C146.958 246.242 146.648 245.154 146.648 243.742C146.648 242.331 146.961 241.234 147.586 240.453C148.211 239.672 149.081 239.281 150.195 239.281C151.357 239.281 152.247 239.703 152.867 240.547H152.969L152.914 239.93L152.883 239.328V235.844H154.18V248H153.125L152.953 246.852ZM150.359 247.07C151.245 247.07 151.885 246.831 152.281 246.352C152.682 245.867 152.883 245.089 152.883 244.016V243.742C152.883 242.529 152.68 241.664 152.273 241.148C151.872 240.628 151.229 240.367 150.344 240.367C149.583 240.367 149 240.664 148.594 241.258C148.193 241.846 147.992 242.68 147.992 243.758C147.992 244.852 148.193 245.677 148.594 246.234C148.995 246.792 149.583 247.07 150.359 247.07ZM158.234 248H156.938V239.438H158.234V248ZM156.828 237.117C156.828 236.82 156.901 236.604 157.047 236.469C157.193 236.328 157.375 236.258 157.594 236.258C157.802 236.258 157.982 236.328 158.133 236.469C158.284 236.609 158.359 236.826 158.359 237.117C158.359 237.409 158.284 237.628 158.133 237.773C157.982 237.914 157.802 237.984 157.594 237.984C157.375 237.984 157.193 237.914 157.047 237.773C156.901 237.628 156.828 237.409 156.828 237.117ZM163.75 247.086C163.979 247.086 164.201 247.07 164.414 247.039C164.628 247.003 164.797 246.966 164.922 246.93V247.922C164.781 247.99 164.573 248.044 164.297 248.086C164.026 248.133 163.781 248.156 163.562 248.156C161.906 248.156 161.078 247.284 161.078 245.539V240.445H159.852V239.82L161.078 239.281L161.625 237.453H162.375V239.438H164.859V240.445H162.375V245.484C162.375 246 162.497 246.396 162.742 246.672C162.987 246.948 163.323 247.086 163.75 247.086ZM167.938 248H166.641V239.438H167.938V248ZM166.531 237.117C166.531 236.82 166.604 236.604 166.75 236.469C166.896 236.328 167.078 236.258 167.297 236.258C167.505 236.258 167.685 236.328 167.836 236.469C167.987 236.609 168.062 236.826 168.062 237.117C168.062 237.409 167.987 237.628 167.836 237.773C167.685 237.914 167.505 237.984 167.297 237.984C167.078 237.984 166.896 237.914 166.75 237.773C166.604 237.628 166.531 237.409 166.531 237.117ZM176.547 248V242.461C176.547 241.763 176.388 241.242 176.07 240.898C175.753 240.555 175.255 240.383 174.578 240.383C173.682 240.383 173.026 240.625 172.609 241.109C172.193 241.594 171.984 242.393 171.984 243.508V248H170.688V239.438H171.742L171.953 240.609H172.016C172.281 240.188 172.654 239.862 173.133 239.633C173.612 239.398 174.146 239.281 174.734 239.281C175.766 239.281 176.542 239.531 177.062 240.031C177.583 240.526 177.844 241.32 177.844 242.414V248H176.547ZM187.523 239.438V240.258L185.938 240.445C186.083 240.628 186.214 240.867 186.328 241.164C186.443 241.456 186.5 241.786 186.5 242.156C186.5 242.995 186.214 243.664 185.641 244.164C185.068 244.664 184.281 244.914 183.281 244.914C183.026 244.914 182.786 244.893 182.562 244.852C182.01 245.143 181.734 245.51 181.734 245.953C181.734 246.188 181.831 246.362 182.023 246.477C182.216 246.586 182.547 246.641 183.016 246.641H184.531C185.458 246.641 186.169 246.836 186.664 247.227C187.164 247.617 187.414 248.185 187.414 248.93C187.414 249.878 187.034 250.599 186.273 251.094C185.513 251.594 184.404 251.844 182.945 251.844C181.826 251.844 180.961 251.635 180.352 251.219C179.747 250.802 179.445 250.214 179.445 249.453C179.445 248.932 179.612 248.482 179.945 248.102C180.279 247.721 180.747 247.464 181.352 247.328C181.133 247.229 180.948 247.076 180.797 246.867C180.651 246.659 180.578 246.417 180.578 246.141C180.578 245.828 180.661 245.555 180.828 245.32C180.995 245.086 181.258 244.859 181.617 244.641C181.174 244.458 180.812 244.148 180.531 243.711C180.255 243.273 180.117 242.773 180.117 242.211C180.117 241.273 180.398 240.552 180.961 240.047C181.523 239.536 182.32 239.281 183.352 239.281C183.799 239.281 184.203 239.333 184.562 239.438H187.523ZM180.695 249.438C180.695 249.901 180.891 250.253 181.281 250.492C181.672 250.732 182.232 250.852 182.961 250.852C184.049 250.852 184.854 250.688 185.375 250.359C185.901 250.036 186.164 249.596 186.164 249.039C186.164 248.576 186.021 248.253 185.734 248.07C185.448 247.893 184.909 247.805 184.117 247.805H182.562C181.974 247.805 181.516 247.945 181.188 248.227C180.859 248.508 180.695 248.911 180.695 249.438ZM181.398 242.18C181.398 242.779 181.568 243.232 181.906 243.539C182.245 243.846 182.716 244 183.32 244C184.586 244 185.219 243.385 185.219 242.156C185.219 240.87 184.578 240.227 183.297 240.227C182.688 240.227 182.219 240.391 181.891 240.719C181.562 241.047 181.398 241.534 181.398 242.18ZM105.086 281H103.758V270.758H100.141V269.578H108.703V270.758H105.086V281ZM114.141 272.281C114.521 272.281 114.862 272.312 115.164 272.375L114.984 273.578C114.63 273.5 114.318 273.461 114.047 273.461C113.354 273.461 112.76 273.742 112.266 274.305C111.776 274.867 111.531 275.568 111.531 276.406V281H110.234V272.438H111.305L111.453 274.023H111.516C111.833 273.466 112.216 273.036 112.664 272.734C113.112 272.432 113.604 272.281 114.141 272.281ZM122.031 281L121.773 279.781H121.711C121.284 280.318 120.857 280.682 120.43 280.875C120.008 281.062 119.479 281.156 118.844 281.156C117.995 281.156 117.328 280.938 116.844 280.5C116.365 280.062 116.125 279.44 116.125 278.633C116.125 276.904 117.508 275.997 120.273 275.914L121.727 275.867V275.336C121.727 274.664 121.581 274.169 121.289 273.852C121.003 273.529 120.542 273.367 119.906 273.367C119.193 273.367 118.385 273.586 117.484 274.023L117.086 273.031C117.508 272.802 117.969 272.622 118.469 272.492C118.974 272.362 119.479 272.297 119.984 272.297C121.005 272.297 121.76 272.523 122.25 272.977C122.745 273.43 122.992 274.156 122.992 275.156V281H122.031ZM119.102 280.086C119.909 280.086 120.542 279.865 121 279.422C121.464 278.979 121.695 278.359 121.695 277.562V276.789L120.398 276.844C119.367 276.88 118.622 277.042 118.164 277.328C117.711 277.609 117.484 278.049 117.484 278.648C117.484 279.117 117.625 279.474 117.906 279.719C118.193 279.964 118.591 280.086 119.102 280.086ZM131.531 281V275.461C131.531 274.763 131.372 274.242 131.055 273.898C130.737 273.555 130.24 273.383 129.562 273.383C128.667 273.383 128.01 273.625 127.594 274.109C127.177 274.594 126.969 275.393 126.969 276.508V281H125.672V272.438H126.727L126.938 273.609H127C127.266 273.188 127.638 272.862 128.117 272.633C128.596 272.398 129.13 272.281 129.719 272.281C130.75 272.281 131.526 272.531 132.047 273.031C132.568 273.526 132.828 274.32 132.828 275.414V281H131.531ZM141.023 278.664C141.023 279.461 140.727 280.076 140.133 280.508C139.539 280.94 138.706 281.156 137.633 281.156C136.497 281.156 135.612 280.977 134.977 280.617V279.414C135.388 279.622 135.828 279.786 136.297 279.906C136.771 280.026 137.227 280.086 137.664 280.086C138.341 280.086 138.862 279.979 139.227 279.766C139.591 279.547 139.773 279.216 139.773 278.773C139.773 278.44 139.628 278.156 139.336 277.922C139.049 277.682 138.487 277.401 137.648 277.078C136.852 276.781 136.284 276.523 135.945 276.305C135.612 276.081 135.362 275.828 135.195 275.547C135.034 275.266 134.953 274.93 134.953 274.539C134.953 273.841 135.237 273.292 135.805 272.891C136.372 272.484 137.151 272.281 138.141 272.281C139.062 272.281 139.964 272.469 140.844 272.844L140.383 273.898C139.523 273.544 138.745 273.367 138.047 273.367C137.432 273.367 136.969 273.464 136.656 273.656C136.344 273.849 136.188 274.115 136.188 274.453C136.188 274.682 136.245 274.878 136.359 275.039C136.479 275.201 136.669 275.354 136.93 275.5C137.19 275.646 137.69 275.857 138.43 276.133C139.445 276.503 140.13 276.875 140.484 277.25C140.844 277.625 141.023 278.096 141.023 278.664ZM144.438 281H143.141V268.844H144.438V281ZM152.453 281L152.195 279.781H152.133C151.706 280.318 151.279 280.682 150.852 280.875C150.43 281.062 149.901 281.156 149.266 281.156C148.417 281.156 147.75 280.938 147.266 280.5C146.786 280.062 146.547 279.44 146.547 278.633C146.547 276.904 147.93 275.997 150.695 275.914L152.148 275.867V275.336C152.148 274.664 152.003 274.169 151.711 273.852C151.424 273.529 150.964 273.367 150.328 273.367C149.615 273.367 148.807 273.586 147.906 274.023L147.508 273.031C147.93 272.802 148.391 272.622 148.891 272.492C149.396 272.362 149.901 272.297 150.406 272.297C151.427 272.297 152.182 272.523 152.672 272.977C153.167 273.43 153.414 274.156 153.414 275.156V281H152.453ZM149.523 280.086C150.331 280.086 150.964 279.865 151.422 279.422C151.885 278.979 152.117 278.359 152.117 277.562V276.789L150.82 276.844C149.789 276.88 149.044 277.042 148.586 277.328C148.133 277.609 147.906 278.049 147.906 278.648C147.906 279.117 148.047 279.474 148.328 279.719C148.615 279.964 149.013 280.086 149.523 280.086ZM158.859 280.086C159.089 280.086 159.31 280.07 159.523 280.039C159.737 280.003 159.906 279.966 160.031 279.93V280.922C159.891 280.99 159.682 281.044 159.406 281.086C159.135 281.133 158.891 281.156 158.672 281.156C157.016 281.156 156.188 280.284 156.188 278.539V273.445H154.961V272.82L156.188 272.281L156.734 270.453H157.484V272.438H159.969V273.445H157.484V278.484C157.484 279 157.607 279.396 157.852 279.672C158.096 279.948 158.432 280.086 158.859 280.086ZM163.047 281H161.75V272.438H163.047V281ZM161.641 270.117C161.641 269.82 161.714 269.604 161.859 269.469C162.005 269.328 162.188 269.258 162.406 269.258C162.615 269.258 162.794 269.328 162.945 269.469C163.096 269.609 163.172 269.826 163.172 270.117C163.172 270.409 163.096 270.628 162.945 270.773C162.794 270.914 162.615 270.984 162.406 270.984C162.188 270.984 162.005 270.914 161.859 270.773C161.714 270.628 161.641 270.409 161.641 270.117ZM173.188 276.711C173.188 278.107 172.836 279.198 172.133 279.984C171.43 280.766 170.458 281.156 169.219 281.156C168.453 281.156 167.773 280.977 167.18 280.617C166.586 280.258 166.128 279.742 165.805 279.07C165.482 278.398 165.32 277.612 165.32 276.711C165.32 275.315 165.669 274.229 166.367 273.453C167.065 272.672 168.034 272.281 169.273 272.281C170.471 272.281 171.422 272.68 172.125 273.477C172.833 274.273 173.188 275.352 173.188 276.711ZM166.664 276.711C166.664 277.805 166.883 278.638 167.32 279.211C167.758 279.784 168.401 280.07 169.25 280.07C170.099 280.07 170.742 279.786 171.18 279.219C171.622 278.646 171.844 277.81 171.844 276.711C171.844 275.622 171.622 274.797 171.18 274.234C170.742 273.667 170.094 273.383 169.234 273.383C168.385 273.383 167.745 273.661 167.312 274.219C166.88 274.776 166.664 275.607 166.664 276.711ZM181.328 281V275.461C181.328 274.763 181.169 274.242 180.852 273.898C180.534 273.555 180.036 273.383 179.359 273.383C178.464 273.383 177.807 273.625 177.391 274.109C176.974 274.594 176.766 275.393 176.766 276.508V281H175.469V272.438H176.523L176.734 273.609H176.797C177.062 273.188 177.435 272.862 177.914 272.633C178.393 272.398 178.927 272.281 179.516 272.281C180.547 272.281 181.323 272.531 181.844 273.031C182.365 273.526 182.625 274.32 182.625 275.414V281H181.328ZM107.938 347H101.57V335.578H107.938V336.758H102.898V340.438H107.633V341.609H102.898V345.812H107.938V347ZM112.344 342.617L109.367 338.438H110.844L113.102 341.719L115.352 338.438H116.812L113.836 342.617L116.969 347H115.5L113.102 343.531L110.68 347H109.211L112.344 342.617ZM122.656 347.156C122.099 347.156 121.589 347.055 121.125 346.852C120.667 346.643 120.281 346.326 119.969 345.898H119.875C119.938 346.398 119.969 346.872 119.969 347.32V350.844H118.672V338.438H119.727L119.906 339.609H119.969C120.302 339.141 120.69 338.802 121.133 338.594C121.576 338.385 122.083 338.281 122.656 338.281C123.792 338.281 124.667 338.669 125.281 339.445C125.901 340.221 126.211 341.31 126.211 342.711C126.211 344.117 125.896 345.211 125.266 345.992C124.641 346.768 123.771 347.156 122.656 347.156ZM122.469 339.383C121.594 339.383 120.961 339.625 120.57 340.109C120.18 340.594 119.979 341.365 119.969 342.422V342.711C119.969 343.914 120.169 344.776 120.57 345.297C120.971 345.812 121.615 346.07 122.5 346.07C123.24 346.07 123.818 345.771 124.234 345.172C124.656 344.573 124.867 343.747 124.867 342.695C124.867 341.628 124.656 340.81 124.234 340.242C123.818 339.669 123.229 339.383 122.469 339.383ZM132.102 347.156C130.836 347.156 129.836 346.771 129.102 346C128.372 345.229 128.008 344.159 128.008 342.789C128.008 341.409 128.346 340.312 129.023 339.5C129.706 338.688 130.62 338.281 131.766 338.281C132.839 338.281 133.688 338.635 134.312 339.344C134.938 340.047 135.25 340.977 135.25 342.133V342.953H129.352C129.378 343.958 129.63 344.721 130.109 345.242C130.594 345.763 131.273 346.023 132.148 346.023C133.07 346.023 133.982 345.831 134.883 345.445V346.602C134.424 346.799 133.99 346.94 133.578 347.023C133.172 347.112 132.68 347.156 132.102 347.156ZM131.75 339.367C131.062 339.367 130.513 339.591 130.102 340.039C129.695 340.487 129.456 341.107 129.383 341.898H133.859C133.859 341.081 133.677 340.456 133.312 340.023C132.948 339.586 132.427 339.367 131.75 339.367ZM141.375 338.281C141.755 338.281 142.096 338.312 142.398 338.375L142.219 339.578C141.865 339.5 141.552 339.461 141.281 339.461C140.589 339.461 139.995 339.742 139.5 340.305C139.01 340.867 138.766 341.568 138.766 342.406V347H137.469V338.438H138.539L138.688 340.023H138.75C139.068 339.466 139.451 339.036 139.898 338.734C140.346 338.432 140.839 338.281 141.375 338.281ZM146.766 346.086C146.995 346.086 147.216 346.07 147.43 346.039C147.643 346.003 147.812 345.966 147.938 345.93V346.922C147.797 346.99 147.589 347.044 147.312 347.086C147.042 347.133 146.797 347.156 146.578 347.156C144.922 347.156 144.094 346.284 144.094 344.539V339.445H142.867V338.82L144.094 338.281L144.641 336.453H145.391V338.438H147.875V339.445H145.391V344.484C145.391 345 145.513 345.396 145.758 345.672C146.003 345.948 146.339 346.086 146.766 346.086Z" fill="#004E82"/>
<path d="M101.438 314V302.578H103.859V312H108.492V314H101.438ZM112.195 309.617C112.195 310.482 112.336 311.135 112.617 311.578C112.904 312.021 113.367 312.242 114.008 312.242C114.643 312.242 115.099 312.023 115.375 311.586C115.656 311.143 115.797 310.487 115.797 309.617C115.797 308.753 115.656 308.104 115.375 307.672C115.094 307.24 114.633 307.023 113.992 307.023C113.357 307.023 112.898 307.24 112.617 307.672C112.336 308.099 112.195 308.747 112.195 309.617ZM118.234 309.617C118.234 311.039 117.859 312.151 117.109 312.953C116.359 313.755 115.315 314.156 113.977 314.156C113.138 314.156 112.398 313.974 111.758 313.609C111.117 313.24 110.625 312.711 110.281 312.023C109.938 311.336 109.766 310.534 109.766 309.617C109.766 308.19 110.138 307.081 110.883 306.289C111.628 305.497 112.674 305.102 114.023 305.102C114.862 305.102 115.602 305.284 116.242 305.648C116.883 306.013 117.375 306.536 117.719 307.219C118.062 307.901 118.234 308.701 118.234 309.617ZM123.75 314.156C121.031 314.156 119.672 312.664 119.672 309.68C119.672 308.195 120.042 307.062 120.781 306.281C121.521 305.495 122.581 305.102 123.961 305.102C124.971 305.102 125.878 305.299 126.68 305.695L125.977 307.539C125.602 307.388 125.253 307.266 124.93 307.172C124.607 307.073 124.284 307.023 123.961 307.023C122.721 307.023 122.102 307.904 122.102 309.664C122.102 311.372 122.721 312.227 123.961 312.227C124.419 312.227 124.844 312.167 125.234 312.047C125.625 311.922 126.016 311.729 126.406 311.469V313.508C126.021 313.753 125.63 313.922 125.234 314.016C124.844 314.109 124.349 314.156 123.75 314.156ZM133.984 314L133.523 312.812H133.461C133.06 313.318 132.646 313.669 132.219 313.867C131.797 314.06 131.245 314.156 130.562 314.156C129.724 314.156 129.062 313.917 128.578 313.438C128.099 312.958 127.859 312.276 127.859 311.391C127.859 310.464 128.182 309.781 128.828 309.344C129.479 308.901 130.458 308.656 131.766 308.609L133.281 308.562V308.18C133.281 307.294 132.828 306.852 131.922 306.852C131.224 306.852 130.404 307.062 129.461 307.484L128.672 305.875C129.677 305.349 130.792 305.086 132.016 305.086C133.188 305.086 134.086 305.341 134.711 305.852C135.336 306.362 135.648 307.138 135.648 308.18V314H133.984ZM133.281 309.953L132.359 309.984C131.667 310.005 131.151 310.13 130.812 310.359C130.474 310.589 130.305 310.938 130.305 311.406C130.305 312.078 130.69 312.414 131.461 312.414C132.013 312.414 132.453 312.255 132.781 311.938C133.115 311.62 133.281 311.198 133.281 310.672V309.953ZM140.492 314H138.109V301.844H140.492V314ZM142.898 303.008C142.898 302.232 143.331 301.844 144.195 301.844C145.06 301.844 145.492 302.232 145.492 303.008C145.492 303.378 145.383 303.667 145.164 303.875C144.951 304.078 144.628 304.18 144.195 304.18C143.331 304.18 142.898 303.789 142.898 303.008ZM145.383 314H143V305.266H145.383V314ZM153.969 314H147.07V312.594L151.117 307.086H147.312V305.266H153.828V306.812L149.891 312.18H153.969V314ZM161.25 314L160.789 312.812H160.727C160.326 313.318 159.911 313.669 159.484 313.867C159.062 314.06 158.51 314.156 157.828 314.156C156.99 314.156 156.328 313.917 155.844 313.438C155.365 312.958 155.125 312.276 155.125 311.391C155.125 310.464 155.448 309.781 156.094 309.344C156.745 308.901 157.724 308.656 159.031 308.609L160.547 308.562V308.18C160.547 307.294 160.094 306.852 159.188 306.852C158.49 306.852 157.669 307.062 156.727 307.484L155.938 305.875C156.943 305.349 158.057 305.086 159.281 305.086C160.453 305.086 161.352 305.341 161.977 305.852C162.602 306.362 162.914 307.138 162.914 308.18V314H161.25ZM160.547 309.953L159.625 309.984C158.932 310.005 158.417 310.13 158.078 310.359C157.74 310.589 157.57 310.938 157.57 311.406C157.57 312.078 157.956 312.414 158.727 312.414C159.279 312.414 159.719 312.255 160.047 311.938C160.38 311.62 160.547 311.198 160.547 310.672V309.953ZM169.055 312.258C169.471 312.258 169.971 312.167 170.555 311.984V313.758C169.961 314.023 169.232 314.156 168.367 314.156C167.414 314.156 166.719 313.917 166.281 313.438C165.849 312.953 165.633 312.229 165.633 311.266V307.055H164.492V306.047L165.805 305.25L166.492 303.406H168.016V305.266H170.461V307.055H168.016V311.266C168.016 311.604 168.109 311.854 168.297 312.016C168.49 312.177 168.742 312.258 169.055 312.258ZM172.227 303.008C172.227 302.232 172.659 301.844 173.523 301.844C174.388 301.844 174.82 302.232 174.82 303.008C174.82 303.378 174.711 303.667 174.492 303.875C174.279 304.078 173.956 304.18 173.523 304.18C172.659 304.18 172.227 303.789 172.227 303.008ZM174.711 314H172.328V305.266H174.711V314ZM179.117 309.617C179.117 310.482 179.258 311.135 179.539 311.578C179.826 312.021 180.289 312.242 180.93 312.242C181.565 312.242 182.021 312.023 182.297 311.586C182.578 311.143 182.719 310.487 182.719 309.617C182.719 308.753 182.578 308.104 182.297 307.672C182.016 307.24 181.555 307.023 180.914 307.023C180.279 307.023 179.82 307.24 179.539 307.672C179.258 308.099 179.117 308.747 179.117 309.617ZM185.156 309.617C185.156 311.039 184.781 312.151 184.031 312.953C183.281 313.755 182.237 314.156 180.898 314.156C180.06 314.156 179.32 313.974 178.68 313.609C178.039 313.24 177.547 312.711 177.203 312.023C176.859 311.336 176.688 310.534 176.688 309.617C176.688 308.19 177.06 307.081 177.805 306.289C178.549 305.497 179.596 305.102 180.945 305.102C181.784 305.102 182.523 305.284 183.164 305.648C183.805 306.013 184.297 306.536 184.641 307.219C184.984 307.901 185.156 308.701 185.156 309.617ZM195.188 314H192.805V308.898C192.805 308.268 192.693 307.797 192.469 307.484C192.245 307.167 191.888 307.008 191.398 307.008C190.732 307.008 190.25 307.232 189.953 307.68C189.656 308.122 189.508 308.859 189.508 309.891V314H187.125V305.266H188.945L189.266 306.383H189.398C189.664 305.961 190.029 305.643 190.492 305.43C190.961 305.211 191.492 305.102 192.086 305.102C193.102 305.102 193.872 305.378 194.398 305.93C194.924 306.477 195.188 307.268 195.188 308.305V314Z" fill="#376B97"/>
<circle cx="83" cy="209" r="7" fill="#E6F0F9"/>
<circle cx="83" cy="242" r="7" fill="#E6F0F9"/>
<circle cx="83" cy="275" r="7" fill="#E6F0F9"/>
<circle cx="83" cy="341" r="7" fill="#E6F0F9"/>
<g filter="url(#filter3_d)">
<rect width="75" height="75" rx="20" transform="matrix(-1 0 0 1 371 243)" fill="url(#paint1_linear)"/>
</g>
<mask id="path-27-inside-1" fill="white">
<path fill-rule="evenodd" clip-rule="evenodd" d="M327.847 272.577C327.847 265.642 333.489 260 340.423 260H341.681V260.002L341.681 260H353V285.908H345.248L341.681 287.691L341.681 287.689V287.691L334.638 291.213V285.908H327.847V272.577Z"/>
</mask>
<path fill-rule="evenodd" clip-rule="evenodd" d="M327.847 272.577C327.847 265.642 333.489 260 340.423 260H341.681V260.002L341.681 260H353V285.908H345.248L341.681 287.691L341.681 287.689V287.691L334.638 291.213V285.908H327.847V272.577Z" fill="#659AD5"/>
<path d="M341.681 260H342.681V259H341.681V260ZM341.681 260.002H340.681L342.679 260.061L341.681 260.002ZM341.681 260V259H340.739L340.683 259.941L341.681 260ZM353 260H354V259H353V260ZM353 285.908V286.908H354V285.908H353ZM345.248 285.908V284.908H345.012L344.801 285.014L345.248 285.908ZM341.681 287.691L340.683 287.753L340.777 289.262L342.128 288.586L341.681 287.691ZM341.681 287.689L342.679 287.628L340.681 287.689H341.681ZM341.681 287.691L342.128 288.586L342.681 288.309V287.691H341.681ZM334.638 291.213H333.638V292.831L335.085 292.107L334.638 291.213ZM334.638 285.908H335.638V284.908H334.638V285.908ZM327.847 285.908H326.847V286.908H327.847V285.908ZM340.423 259C332.936 259 326.847 265.09 326.847 272.577H328.847C328.847 266.194 334.041 261 340.423 261V259ZM341.681 259H340.423V261H341.681V259ZM342.681 260.002V260H340.681V260.002H342.681ZM340.683 259.941L340.683 259.943L342.679 260.061L342.679 260.059L340.683 259.941ZM353 259H341.681V261H353V259ZM354 285.908V260H352V285.908H354ZM345.248 286.908H353V284.908H345.248V286.908ZM342.128 288.586L345.695 286.802L344.801 285.014L341.234 286.797L342.128 288.586ZM340.683 287.751L340.683 287.753L342.679 287.63L342.679 287.628L340.683 287.751ZM342.681 287.691V287.689H340.681V287.691H342.681ZM335.085 292.107L342.128 288.586L341.234 286.797L334.191 290.319L335.085 292.107ZM333.638 285.908V291.213H335.638V285.908H333.638ZM327.847 286.908H334.638V284.908H327.847V286.908ZM326.847 272.577V285.908H328.847V272.577H326.847Z" fill="white" mask="url(#path-27-inside-1)"/>
<path fill-rule="evenodd" clip-rule="evenodd" d="M348.335 269.565V272.08H346.077C345.904 273.966 345.144 275.684 343.882 277.051C344.972 277.484 346.223 277.714 347.561 277.714V280.229C345.376 280.229 343.347 279.723 341.681 278.782L341.681 278.781V278.782C340.016 279.723 337.987 280.229 335.801 280.229H334.869V277.714H335.801C337.14 277.714 338.39 277.484 339.48 277.051C338.218 275.684 337.459 273.966 337.285 272.08H335.028V269.565H340.424V266.982H341.681V266.983L341.681 266.982H342.939V269.565H348.335ZM341.681 275.696L341.681 275.695C342.733 274.728 343.368 273.493 343.547 272.08H341.681L341.681 272.079V272.08H339.816C339.994 273.493 340.629 274.728 341.681 275.695V275.696Z" fill="white"/>
<mask id="path-30-inside-2" fill="white">
<path fill-rule="evenodd" clip-rule="evenodd" d="M312 297.562V271.654H323.319L324.577 271.654C331.512 271.654 337.153 277.296 337.153 284.231V297.562H330.362V302.867L323.319 299.346L323.319 299.346L319.752 297.562H312Z"/>
</mask>
<path fill-rule="evenodd" clip-rule="evenodd" d="M312 297.562V271.654H323.319L324.577 271.654C331.512 271.654 337.153 277.296 337.153 284.231V297.562H330.362V302.867L323.319 299.346L323.319 299.346L319.752 297.562H312Z" fill="#659AD5"/>
<path d="M312 271.654V270.654H311V271.654H312ZM312 297.562H311V298.562H312V297.562ZM323.319 271.654L323.319 270.654H323.319V271.654ZM324.577 271.654L324.577 272.654H324.577V271.654ZM337.153 297.562V298.562H338.153V297.562H337.153ZM330.362 297.562V296.562H329.362V297.562H330.362ZM330.362 302.867L329.915 303.762L331.362 304.485V302.867H330.362ZM323.319 299.346L322.322 299.421L322.364 299.986L322.872 300.24L323.319 299.346ZM323.319 299.346L324.316 299.271L324.274 298.705L323.766 298.451L323.319 299.346ZM319.752 297.562L320.199 296.668L319.988 296.562H319.752V297.562ZM311 271.654V297.562H313V271.654H311ZM323.319 270.654H312V272.654H323.319V270.654ZM324.577 270.654L323.319 270.654L323.319 272.654L324.577 272.654L324.577 270.654ZM338.153 284.231C338.153 276.744 332.064 270.654 324.577 270.654V272.654C330.959 272.654 336.153 277.848 336.153 284.231H338.153ZM338.153 297.562V284.231H336.153V297.562H338.153ZM330.362 298.562H337.153V296.562H330.362V298.562ZM331.362 302.867V297.562H329.362V302.867H331.362ZM322.872 300.24L329.915 303.762L330.809 301.973L323.766 298.451L322.872 300.24ZM322.322 299.421L322.322 299.421L324.316 299.271L324.316 299.271L322.322 299.421ZM319.305 298.457L322.872 300.24L323.766 298.451L320.199 296.668L319.305 298.457ZM312 298.562H319.752V296.562H312V298.562Z" fill="white" mask="url(#path-30-inside-2)"/>
<path fill-rule="evenodd" clip-rule="evenodd" d="M323.319 278.578L324.406 278.577L328.714 289.992L326.361 290.88L325.338 288.17H323.319L323.319 288.17V288.171H321.308L320.275 290.883L317.924 289.988L322.269 278.58L323.319 278.579L323.319 278.578ZM323.319 282.889V282.89L322.266 285.655H323.076L323.077 285.655H324.389L323.332 282.855L323.319 282.889L323.319 282.889Z" fill="white"/>
<circle cx="82.7659" cy="307.766" r="7.19047" fill="white"/>
<path fill-rule="evenodd" clip-rule="evenodd" d="M75 307.983C75 303.574 78.5822 300 83.0011 300C87.4181 300.005 90.9976 303.576 91.0023 307.983C91.0023 312.392 87.42 315.966 83.0011 315.966C78.5822 315.966 75 312.392 75 307.983ZM81.6904 311.237L87.4055 305.535C87.6194 305.314 87.6194 304.964 87.4055 304.743C87.1862 304.516 86.8245 304.51 86.5974 304.729L81.2863 310.028L79.4043 308.15C79.3997 308.145 79.395 308.141 79.3903 308.136C79.1632 307.917 78.8014 307.923 78.5822 308.15C78.3629 308.376 78.3692 308.737 78.5962 308.956L80.8823 311.237C81.1055 311.46 81.4672 311.46 81.6904 311.237Z" fill="url(#paint2_linear)"/>
<defs>
<filter id="filter0_d" x="0" y="0" width="460" height="279" filterUnits="userSpaceOnUse" color-interpolation-filters="sRGB">
<feFlood flood-opacity="0" result="BackgroundImageFix"/>
<feColorMatrix in="SourceAlpha" type="matrix" values="0 0 0 0 0 0 0 0 0 0 0 0 0 0 0 0 0 0 127 0" result="hardAlpha"/>
<feOffset dx="13" dy="25"/>
<feGaussianBlur stdDeviation="17.5"/>
<feColorMatrix type="matrix" values="0 0 0 0 0 0 0 0 0 0.351917 0 0 0 0 0.429167 0 0 0 0.15 0"/>
<feBlend mode="normal" in2="BackgroundImageFix" result="effect1_dropShadow"/>
<feBlend mode="normal" in="SourceGraphic" in2="effect1_dropShadow" result="shape"/>
</filter>
<filter id="filter1_d" x="367.429" y="15.4285" width="86.5714" height="85.7143" filterUnits="userSpaceOnUse" color-interpolation-filters="sRGB">
<feFlood flood-opacity="0" result="BackgroundImageFix"/>
<feColorMatrix in="SourceAlpha" type="matrix" values="0 0 0 0 0 0 0 0 0 0 0 0 0 0 0 0 0 0 127 0" result="hardAlpha"/>
<feOffset dy="9"/>
<feGaussianBlur stdDeviation="15"/>
<feColorMatrix type="matrix" values="0 0 0 0 0.593438 0 0 0 0 0.707729 0 0 0 0 0.879167 0 0 0 0.25 0"/>
<feBlend mode="normal" in2="BackgroundImageFix" result="effect1_dropShadow"/>
<feBlend mode="normal" in="SourceGraphic" in2="effect1_dropShadow" result="shape"/>
</filter>
<filter id="filter2_d" x="30" y="159" width="292" height="272" filterUnits="userSpaceOnUse" color-interpolation-filters="sRGB">
<feFlood flood-opacity="0" result="BackgroundImageFix"/>
<feColorMatrix in="SourceAlpha" type="matrix" values="0 0 0 0 0 0 0 0 0 0 0 0 0 0 0 0 0 0 127 0" result="hardAlpha"/>
<feOffset dx="13" dy="18"/>
<feGaussianBlur stdDeviation="17.5"/>
<feColorMatrix type="matrix" values="0 0 0 0 0 0 0 0 0 0.351917 0 0 0 0 0.429167 0 0 0 0.15 0"/>
<feBlend mode="normal" in2="BackgroundImageFix" result="effect1_dropShadow"/>
<feBlend mode="normal" in="SourceGraphic" in2="effect1_dropShadow" result="shape"/>
</filter>
<filter id="filter3_d" x="263" y="216" width="145" height="145" filterUnits="userSpaceOnUse" color-interpolation-filters="sRGB">
<feFlood flood-opacity="0" result="BackgroundImageFix"/>
<feColorMatrix in="SourceAlpha" type="matrix" values="0 0 0 0 0 0 0 0 0 0 0 0 0 0 0 0 0 0 127 0" result="hardAlpha"/>
<feOffset dx="2" dy="8"/>
<feGaussianBlur stdDeviation="17.5"/>
<feColorMatrix type="matrix" values="0 0 0 0 0 0 0 0 0 0.351917 0 0 0 0 0.429167 0 0 0 0.15 0"/>
<feBlend mode="normal" in2="BackgroundImageFix" result="effect1_dropShadow"/>
<feBlend mode="normal" in="SourceGraphic" in2="effect1_dropShadow" result="shape"/>
</filter>
<linearGradient id="paint0_linear" x1="13.2857" y1="6.2829" x2="13.2857" y2="25.7143" gradientUnits="userSpaceOnUse">
<stop stop-color="#FFED49"/>
<stop offset="1" stop-color="#FFC369"/>
</linearGradient>
<linearGradient id="paint1_linear" x1="37.5" y1="0" x2="37.5" y2="75" gradientUnits="userSpaceOnUse">
<stop stop-color="#85BEFF"/>
<stop offset="1" stop-color="#5183BB"/>
</linearGradient>
<linearGradient id="paint2_linear" x1="83.0011" y1="300" x2="83.0011" y2="315.966" gradientUnits="userSpaceOnUse">
<stop stop-color="#B0E7C6"/>
<stop offset="1" stop-color="#5DD1B3"/>
</linearGradient>
</defs>
</svg>
