<svg fill="none" height="431" viewBox="0 0 460 431" width="460" xmlns="http://www.w3.org/2000/svg" xmlns:xlink="http://www.w3.org/1999/xlink"><filter id="a" color-interpolation-filters="sRGB" filterUnits="userSpaceOnUse" height="279" width="460" x="0" y="0"><feFlood flood-opacity="0" result="BackgroundImageFix"/><feColorMatrix in="SourceAlpha" result="hardAlpha" type="matrix" values="0 0 0 0 0 0 0 0 0 0 0 0 0 0 0 0 0 0 127 0"/><feOffset dx="13" dy="25"/><feGaussianBlur stdDeviation="17.5"/><feColorMatrix type="matrix" values="0 0 0 0 0 0 0 0 0 0.351917 0 0 0 0 0.429167 0 0 0 0.15 0"/><feBlend in2="BackgroundImageFix" mode="normal" result="effect1_dropShadow"/><feBlend in="SourceGraphic" in2="effect1_dropShadow" mode="normal" result="shape"/></filter><filter id="b" color-interpolation-filters="sRGB" filterUnits="userSpaceOnUse" height="85.7143" width="86.5714" x="367.429" y="15.4285"><feFlood flood-opacity="0" result="BackgroundImageFix"/><feColorMatrix in="SourceAlpha" result="hardAlpha" type="matrix" values="0 0 0 0 0 0 0 0 0 0 0 0 0 0 0 0 0 0 127 0"/><feOffset dy="9"/><feGaussianBlur stdDeviation="15"/><feColorMatrix type="matrix" values="0 0 0 0 0.593438 0 0 0 0 0.707729 0 0 0 0 0.879167 0 0 0 0.25 0"/><feBlend in2="BackgroundImageFix" mode="normal" result="effect1_dropShadow"/><feBlend in="SourceGraphic" in2="effect1_dropShadow" mode="normal" result="shape"/></filter><filter id="c" color-interpolation-filters="sRGB" filterUnits="userSpaceOnUse" height="272" width="292" x="30" y="159"><feFlood flood-opacity="0" result="BackgroundImageFix"/><feColorMatrix in="SourceAlpha" result="hardAlpha" type="matrix" values="0 0 0 0 0 0 0 0 0 0 0 0 0 0 0 0 0 0 127 0"/><feOffset dx="13" dy="18"/><feGaussianBlur stdDeviation="17.5"/><feColorMatrix type="matrix" values="0 0 0 0 0 0 0 0 0 0.351917 0 0 0 0 0.429167 0 0 0 0.15 0"/><feBlend in2="BackgroundImageFix" mode="normal" result="effect1_dropShadow"/><feBlend in="SourceGraphic" in2="effect1_dropShadow" mode="normal" result="shape"/></filter><filter id="d" color-interpolation-filters="sRGB" filterUnits="userSpaceOnUse" height="145" width="145" x="263" y="216"><feFlood flood-opacity="0" result="BackgroundImageFix"/><feColorMatrix in="SourceAlpha" result="hardAlpha" type="matrix" values="0 0 0 0 0 0 0 0 0 0 0 0 0 0 0 0 0 0 127 0"/><feOffset dx="2" dy="8"/><feGaussianBlur stdDeviation="17.5"/><feColorMatrix type="matrix" values="0 0 0 0 0 0 0 0 0 0.351917 0 0 0 0 0.429167 0 0 0 0.15 0"/><feBlend in2="BackgroundImageFix" mode="normal" result="effect1_dropShadow"/><feBlend in="SourceGraphic" in2="effect1_dropShadow" mode="normal" result="shape"/></filter><linearGradient id="e" gradientUnits="userSpaceOnUse" x1="13.2857" x2="13.2857" y1="6.2829" y2="25.7143"><stop offset="0" stop-color="#ffed49"/><stop offset="1" stop-color="#ffc369"/></linearGradient><linearGradient id="f" gradientUnits="userSpaceOnUse" x1="37.5" x2="37.5" y1="0" y2="75"><stop offset="0" stop-color="#85beff"/><stop offset="1" stop-color="#5183bb"/></linearGradient><linearGradient id="g" gradientUnits="userSpaceOnUse" x1="83.0011" x2="83.0011" y1="300" y2="315.966"><stop offset="0" stop-color="#b0e7c6"/><stop offset="1" stop-color="#5dd1b3"/></linearGradient><mask id="h" fill="#fff"><path clip-rule="evenodd" d="m327.847 272.577c0-6.935 5.642-12.577 12.576-12.577h1.258v.002-.002h11.319v25.908h-7.752l-3.567 1.783v-.002.002l-7.043 3.522v-5.305h-6.791z" fill="#fff" fill-rule="evenodd"/></mask><mask id="i" fill="#fff"><path clip-rule="evenodd" d="m312 297.562v-25.908h11.319 1.258c6.935 0 12.576 5.642 12.576 12.577v13.331h-6.791v5.305l-7.043-3.521-3.567-1.784z" fill="#fff" fill-rule="evenodd"/></mask><g filter="url(#a)"><rect fill="#f7fbfd" height="209" rx="15" width="390" x="22" y="10"/></g><g filter="url(#b)"><rect fill="url(#e)" height="25.7143" rx="12.8571" transform="matrix(-1 0 0 1 424 36.4285)" width="26.5714"/></g><rect fill="#e6f0f9" height="18" rx="3" width="158.721" x="52.2102" y="93.0913"/><rect fill="#e6f0f9" height="18" rx="3" width="158.721" x="225.279" y="93.0913"/><path d="m62.0967 50h-1.1485l-2.0166-6.6924c-.0957-.2962-.2028-.6699-.3212-1.1211-.1185-.4511-.1801-.7223-.1846-.8135-.1003.6016-.2598 1.2601-.4785 1.9756l-1.9551 6.6514h-1.1484l-2.6592-9.9941h1.2304l1.5791 6.1728c.2188.8659.3783 1.6498.4786 2.3516.123-.834.3053-1.6498.5468-2.4473l1.791-6.0771h1.2305l1.8799 6.1318c.2187.7064.4033 1.5039.5537 2.3926.0866-.6472.2507-1.4356.4922-2.3653l1.5723-6.1591h1.2304zm10.5342-3.7529c0 1.2213-.3077 2.1761-.9229 2.8642-.6152.6836-1.4652 1.0254-2.5498 1.0254-.6699 0-1.2646-.1572-1.7842-.4717-.5195-.3144-.9205-.7656-1.2031-1.3535s-.4238-1.276-.4238-2.0644c0-1.2214.3053-2.1716.916-2.8506.6107-.6836 1.4583-1.0254 2.543-1.0254 1.0481 0 1.8798.3486 2.4951 1.0459.6198.6973.9297 1.6406.9297 2.8301zm-5.708 0c0 .957.1914 1.6862.5742 2.1875s.9456.7519 1.6884.7519c.7429 0 1.3057-.2483 1.6885-.7451.3874-.5013.5811-1.2327.5811-2.1943 0-.9525-.1937-1.6748-.5811-2.167-.3828-.4968-.9502-.7451-1.7021-.7451-.7429 0-1.3034.2438-1.6817.7314-.3782.4876-.5673 1.2145-.5673 2.1807zm11.122-3.876c.3327 0 .6312.0273.8955.082l-.1572 1.0528c-.3099-.0684-.5833-.1026-.8203-.1026-.6061 0-1.1257.2461-1.5586.7383-.4284.4922-.6426 1.1051-.6426 1.8389v4.0195h-1.1347v-7.4922h.9365l.1299 1.3877h.0546c.278-.4876.613-.8636 1.0049-1.1279.392-.2643.8226-.3965 1.292-.3965zm7.3965 6.624h-.0615c-.5241.7611-1.308 1.1416-2.3516 1.1416-.9798 0-1.7431-.3349-2.29-1.0049-.5423-.6699-.8135-1.6224-.8135-2.8574s.2734-2.1943.8203-2.8779 1.308-1.0254 2.2832-1.0254c1.0163 0 1.7956.3691 2.3379 1.1074h.0889l-.0479-.54-.0273-.5264v-3.0488h1.1347v10.6367h-.9228zm-2.2695.1914c.7747 0 1.3353-.2096 1.6816-.6289.3509-.4238.5264-1.1051.5264-2.0439v-.2393c0-1.0618-.1778-1.8183-.5332-2.2695-.3509-.4557-.9138-.6836-1.6885-.6836-.6654 0-1.1758.2598-1.5312.7793-.351.515-.5264 1.2441-.5264 2.1875 0 .957.1754 1.6793.5264 2.167.3509.4876.8658.7314 1.5449.7314zm10.5888-1.2304c0 .6972-.2597 1.235-.7793 1.6132-.5195.3783-1.2487.5674-2.1875.5674-.9934 0-1.7682-.1572-2.3242-.4717v-1.0527c.3601.1823.7451.3259 1.1553.4307.4147.1048.8135.1572 1.1963.1572.5924 0 1.0482-.0934 1.3672-.2803.319-.1914.4785-.4808.4785-.8681 0-.2917-.1276-.5401-.3828-.7452-.2507-.2096-.7429-.4557-1.4766-.7382-.6972-.2598-1.194-.4854-1.4902-.6768-.2917-.196-.5104-.417-.6563-.6631-.1412-.2461-.2119-.54-.2119-.8818 0-.6107.2484-1.0915.7451-1.4424.4968-.3555 1.1781-.5332 2.044-.5332.8066 0 1.595.1641 2.3652.4922l-.4033.9228c-.752-.3099-1.4333-.4648-2.044-.4648-.5377 0-.9433.0843-1.2167.2529-.2735.1686-.4102.4011-.4102.6973 0 .2005.0501.3714.1504.5127.1048.1413.2711.2757.499.4033s.6654.3122 1.3125.5537c.8887.3236 1.488.6494 1.7979.9776.3144.3281.4716.7405.4716 1.2373zm7.9093 1.2441c.2 0 .394-.0137.581-.041.187-.0319.335-.0638.444-.0957v.8681c-.123.0593-.305.1071-.547.1436-.237.041-.451.0615-.642.0615-1.449 0-2.174-.7633-2.174-2.29v-4.4571h-1.0732v-.5468l1.0732-.4717.4785-1.5996h.6565v1.7363h2.174v.8818h-2.174v4.4092c0 .4512.107.7976.321 1.0391s.508.3623.882.3623zm8.996-2.9531c0 1.2213-.308 2.1761-.923 2.8642-.615.6836-1.465 1.0254-2.55 1.0254-.67 0-1.264-.1572-1.784-.4717-.519-.3144-.92-.7656-1.203-1.3535-.282-.5879-.424-1.276-.424-2.0644 0-1.2214.306-2.1716.916-2.8506.611-.6836 1.459-1.0254 2.543-1.0254 1.048 0 1.88.3486 2.495 1.0459.62.6973.93 1.6406.93 2.8301zm-5.708 0c0 .957.191 1.6862.574 2.1875s.946.7519 1.689.7519 1.305-.2483 1.688-.7451c.388-.5013.581-1.2327.581-2.1943 0-.9525-.193-1.6748-.581-2.167-.383-.4968-.95-.7451-1.702-.7451-.743 0-1.303.2438-1.682.7314-.378.4876-.567 1.2145-.567 2.1807zm13.761 2.9531c.2 0 .394-.0137.581-.041.187-.0319.335-.0638.444-.0957v.8681c-.123.0593-.305.1071-.547.1436-.237.041-.451.0615-.642.0615-1.45 0-2.174-.7633-2.174-2.29v-4.4571h-1.073v-.5468l1.073-.4717.478-1.5996h.657v1.7363h2.173v.8818h-2.173v4.4092c0 .4512.107.7976.321 1.0391s.508.3623.882.3623zm5.947-6.8291c.333 0 .631.0273.896.082l-.158 1.0528c-.31-.0684-.583-.1026-.82-.1026-.606 0-1.126.2461-1.559.7383-.428.4922-.642 1.1051-.642 1.8389v4.0195h-1.135v-7.4922h.937l.129 1.3877h.055c.278-.4876.613-.8636 1.005-1.1279s.823-.3965 1.292-.3965zm6.904 7.6289-.225-1.0664h-.055c-.374.4694-.747.7884-1.121.957-.369.1641-.832.2461-1.388.2461-.743 0-1.326-.1914-1.75-.5742-.419-.3828-.629-.9274-.629-1.6338 0-1.513 1.21-2.306 3.63-2.3789l1.272-.041v-.4649c0-.5878-.128-1.0208-.383-1.2988-.251-.2825-.654-.4238-1.21-.4238-.624 0-1.331.1914-2.119.5742l-.349-.8682c.369-.2005.773-.3577 1.21-.4716.442-.114.884-.1709 1.326-.1709.894 0 1.554.1982 1.983.5947.433.3965.649 1.0322.649 1.9072v5.1133zm-2.563-.7998c.706 0 1.26-.1937 1.661-.5811.406-.3873.608-.9296.608-1.6269v-.6768l-1.134.0479c-.903.0319-1.554.1732-1.955.4238-.397.2461-.595.6312-.595 1.1553 0 .4101.123.7223.369.9365.251.2142.599.3213 1.046.3213zm10.876.7998v-4.8467c0-.6107-.139-1.0664-.417-1.3672-.278-.3007-.713-.4511-1.306-.4511-.784 0-1.358.2119-1.722.6357-.365.4238-.547 1.1234-.547 2.0986v3.9307h-1.135v-7.4922h.923l.184 1.0254h.055c.232-.3691.558-.654.978-.8545.419-.2051.886-.3076 1.401-.3076.902 0 1.581.2187 2.037.6562.456.433.684 1.128.684 2.085v4.8877zm8.305-2.0439c0 .6972-.259 1.235-.779 1.6132-.519.3783-1.249.5674-2.187.5674-.994 0-1.769-.1572-2.325-.4717v-1.0527c.36.1823.746.3259 1.156.4307.414.1048.813.1572 1.196.1572.592 0 1.048-.0934 1.367-.2803.319-.1914.479-.4808.479-.8681 0-.2917-.128-.5401-.383-.7452-.251-.2096-.743-.4557-1.477-.7382-.697-.2598-1.194-.4854-1.49-.6768-.292-.196-.51-.417-.656-.6631-.141-.2461-.212-.54-.212-.8818 0-.6107.248-1.0915.745-1.4424.497-.3555 1.178-.5332 2.044-.5332.807 0 1.595.1641 2.365.4922l-.403.9228c-.752-.3099-1.433-.4648-2.044-.4648-.538 0-.943.0843-1.217.2529-.273.1686-.41.4011-.41.6973 0 .2005.05.3714.15.5127.105.1413.272.2757.499.4033.228.1276.666.3122 1.313.5537.889.3236 1.488.6494 1.798.9776.314.3281.471.7405.471 1.2373zm2.988 2.0439h-1.135v-10.6367h1.135zm7.013 0-.225-1.0664h-.055c-.374.4694-.747.7884-1.121.957-.369.1641-.832.2461-1.388.2461-.742 0-1.326-.1914-1.75-.5742-.419-.3828-.629-.9274-.629-1.6338 0-1.513 1.21-2.306 3.63-2.3789l1.272-.041v-.4649c0-.5878-.128-1.0208-.383-1.2988-.251-.2825-.654-.4238-1.21-.4238-.624 0-1.331.1914-2.119.5742l-.349-.8682c.369-.2005.773-.3577 1.21-.4716.442-.114.884-.1709 1.326-.1709.894 0 1.554.1982 1.983.5947.433.3965.649 1.0322.649 1.9072v5.1133zm-2.563-.7998c.706 0 1.26-.1937 1.661-.5811.406-.3873.609-.9296.609-1.6269v-.6768l-1.135.0479c-.903.0319-1.554.1732-1.955.4238-.397.2461-.595.6312-.595 1.1553 0 .4101.123.7223.369.9365.251.2142.599.3213 1.046.3213zm8.169 0c.2 0 .394-.0137.581-.041.187-.0319.335-.0638.444-.0957v.8681c-.123.0593-.305.1071-.547.1436-.237.041-.451.0615-.642.0615-1.449 0-2.174-.7633-2.174-2.29v-4.4571h-1.073v-.5468l1.073-.4717.479-1.5996h.656v1.7363h2.174v.8818h-2.174v4.4092c0 .4512.107.7976.321 1.0391s.508.3623.882.3623zm5.694.9365c-1.107 0-1.982-.3372-2.625-1.0117-.638-.6745-.957-1.611-.957-2.8096 0-1.2077.296-2.167.889-2.8779.597-.7109 1.397-1.0664 2.399-1.0664.939 0 1.682.3099 2.229.9297.547.6152.82 1.4287.82 2.4404v.7178h-5.161c.023.8795.244 1.5472.663 2.0029.424.4557 1.019.6836 1.784.6836.807 0 1.604-.1686 2.393-.5059v1.0118c-.401.1731-.782.2962-1.142.3691-.355.0775-.786.1162-1.292.1162zm-.307-6.8154c-.602 0-1.083.196-1.443.5879-.355.3919-.565.9342-.629 1.6269h3.917c0-.7155-.159-1.2623-.478-1.6406-.319-.3828-.775-.5742-1.367-.5742zm4.839 5.9541c0-.3053.069-.5355.206-.6904.141-.1595.341-.2393.601-.2393.264 0 .47.0798.615.2393.151.1549.226.3851.226.6904 0 .2962-.075.5241-.226.6836-.15.1595-.355.2392-.615.2392-.232 0-.426-.0706-.581-.2119-.15-.1458-.226-.3828-.226-.7109zm0-6.0361c0-.6153.269-.9229.807-.9229.561 0 .841.3076.841.9229 0 .2962-.075.524-.226.6836-.15.1595-.355.2392-.615.2392-.232 0-.426-.0706-.581-.2119-.15-.1458-.226-.3828-.226-.7109zm12.114 6.7607h-2.113v-5.7832l.021-.9502.034-1.0391c-.351.351-.595.5811-.731.6905l-1.149.9228-1.018-1.2715 3.219-2.5634h1.737zm9.987-2.0713h-1.203v2.0713h-2.065v-2.0713h-4.265v-1.4697l4.382-6.4531h1.948v6.2822h1.203zm-3.268-1.6406v-1.6953c0-.2826.012-.6927.035-1.2305.022-.5378.041-.8499.054-.9365h-.054c-.169.3737-.372.7383-.609 1.0937l-1.832 2.7686zm10.986-1.2852c0 1.7455-.287 3.0375-.861 3.876-.57.8385-1.45 1.2578-2.639 1.2578-1.153 0-2.024-.4329-2.611-1.2988-.584-.8659-.875-2.1442-.875-3.835 0-1.7636.284-3.0625.854-3.8965.57-.8385 1.447-1.2578 2.632-1.2578 1.153 0 2.023.4375 2.611 1.3125.593.875.889 2.1556.889 3.8418zm-4.888 0c0 1.2259.105 2.1055.315 2.6387.214.5286.572.793 1.073.793.492 0 .848-.2689 1.066-.8067.219-.5377.328-1.4127.328-2.625 0-1.2259-.111-2.1054-.335-2.6386-.218-.5378-.572-.8067-1.059-.8067-.497 0-.852.2689-1.067.8067-.214.5332-.321 1.4127-.321 2.6386z" fill="#42556c"/><path d="m52.9814 83.9958v-7.1386h.8301v6.3867h3.1494v.7519zm8.3643 0-.1611-.7617h-.0391c-.2669.3353-.5338.5632-.8008.6836-.2636.1172-.594.1758-.9912.1758-.5306 0-.9473-.1367-1.25-.4102-.2995-.2734-.4492-.6624-.4492-1.1669 0-1.0808.8643-1.6472 2.5928-1.6993l.9082-.0293v-.332c0-.4199-.0912-.7292-.2735-.9277-.179-.2018-.4671-.3028-.8642-.3028-.446 0-.9505.1368-1.5137.4102l-.249-.6201c.2637-.1432.5517-.2556.8642-.3369.3158-.0814.6316-.1221.9473-.1221.638 0 1.11.1416 1.416.4248.3093.2832.4639.7373.4639 1.3623v3.6523zm-1.8311-.5712c.5046 0 .9001-.1384 1.1866-.4151.2897-.2767.4345-.664.4345-1.1621v-.4834l-.8105.0342c-.6445.0228-1.11.1237-1.3965.3027-.2832.1758-.4248.4509-.4248.8252 0 .293.0879.516.2637.669.179.153.428.2295.747.2295zm7.7686.5712v-3.4619c0-.4362-.0993-.7617-.2978-.9765-.1986-.2149-.5095-.3223-.9327-.3223-.5599 0-.97.1514-1.2304.4541-.2605.3027-.3907.8024-.3907 1.499v2.8076h-.8105v-5.3515h.6592l.1318.7324h.0391c.166-.2637.3987-.4671.6982-.6103.2995-.1465.6332-.2198 1.001-.2198.6445 0 1.1295.1563 1.4551.4688.3255.3092.4883.8056.4883 1.4892v3.4912zm6.8604-5.3515v.5127l-.9913.1172c.0912.1139.1726.2636.2442.4492.0716.1823.1074.389.1074.6201 0 .5241-.179.9424-.5371 1.2549s-.8496.4687-1.4746.4687c-.1595 0-.3093-.013-.4492-.039-.3451.1823-.5176.4118-.5176.6885 0 .1464.0602.2555.1807.3271.1204.0684.3271.1025.6201.1025h.9472c.5795 0 1.0238.1221 1.333.3663.3125.2441.4688.5989.4688 1.0644 0 .5925-.2376 1.0433-.7129 1.3525-.4753.3125-1.1686.4688-2.0801.4688-.6998 0-1.2402-.1302-1.6211-.3906-.3776-.2604-.5664-.6283-.5664-1.1035 0-.3256.1042-.6071.3125-.8448.2084-.2376.5013-.3987.8789-.4834-.1367-.0618-.2522-.1578-.3466-.2881-.0912-.1302-.1368-.2815-.1368-.4541 0-.1953.0521-.3662.1563-.5127.1042-.1464.2685-.288.4931-.4248-.2766-.1139-.5029-.3076-.6787-.581-.1725-.2735-.2588-.586-.2588-.9375 0-.586.1758-1.0368.5274-1.3526.3516-.319.8496-.4785 1.4941-.4785.28 0 .5323.0326.7569.0977zm-4.2676 6.25c0 .2897.122.5094.3662.6592.2441.1497.5941.2246 1.0498.2246.6803 0 1.1833-.1026 1.5088-.3076.3288-.2019.4931-.4769.4931-.8252 0-.2897-.0895-.4916-.2685-.6055-.179-.1107-.516-.166-1.0108-.166h-.9716c-.3679 0-.6543.0879-.8594.2637-.2051.1757-.3076.428-.3076.7568zm.4394-4.5361c0 .3743.1058.6575.3174.8496.2116.192.5062.288.8838.288.791 0 1.1865-.3841 1.1865-1.1523 0-.804-.4004-1.206-1.2011-1.206-.3809 0-.6739.1025-.879.3076-.205.205-.3076.5094-.3076.9131zm5.6885-1.7139v3.4717c0 .4362.0993.7617.2979.9765.1985.2149.5094.3223.9326.3223.5599 0 .9684-.153 1.2256-.459.2604-.306.3906-.8057.3906-1.499v-2.8125h.8105v5.3515h-.6689l-.1172-.7177h-.0439c-.1661.2636-.3972.4655-.6934.6054-.293.14-.6283.21-1.0059.21-.651 0-1.1393-.1546-1.4648-.4639-.3223-.3092-.4834-.804-.4834-1.4843v-3.501zm8.6719 5.3515-.1612-.7617h-.039c-.2669.3353-.5339.5632-.8008.6836-.2637.1172-.5941.1758-.9912.1758-.5306 0-.9473-.1367-1.25-.4102-.2995-.2734-.4492-.6624-.4492-1.1669 0-1.0808.8642-1.6472 2.5927-1.6993l.9083-.0293v-.332c0-.4199-.0912-.7292-.2735-.9277-.179-.2018-.4671-.3028-.8642-.3028-.446 0-.9506.1368-1.5137.4102l-.249-.6201c.2636-.1432.5517-.2556.8642-.3369.3158-.0814.6315-.1221.9473-.1221.638 0 1.11.1416 1.416.4248.3092.2832.4639.7373.4639 1.3623v3.6523zm-1.8311-.5712c.5046 0 .9001-.1384 1.1865-.4151.2898-.2767.4346-.664.4346-1.1621v-.4834l-.8105.0342c-.6446.0228-1.1101.1237-1.3965.3027-.2832.1758-.4248.4509-.4248.8252 0 .293.0879.516.2637.669.179.153.428.2295.747.2295zm8.4864-4.7803v.5127l-.9913.1172c.0912.1139.1726.2636.2442.4492.0716.1823.1074.389.1074.6201 0 .5241-.179.9424-.5371 1.2549s-.8496.4687-1.4746.4687c-.1595 0-.3093-.013-.4492-.039-.3451.1823-.5176.4118-.5176.6885 0 .1464.0602.2555.1807.3271.1204.0684.3271.1025.6201.1025h.9472c.5795 0 1.0238.1221 1.333.3663.3125.2441.4688.5989.4688 1.0644 0 .5925-.2376 1.0433-.7129 1.3525-.4753.3125-1.1686.4688-2.0801.4688-.6998 0-1.2402-.1302-1.6211-.3906-.3776-.2604-.5664-.6283-.5664-1.1035 0-.3256.1042-.6071.3125-.8448.2084-.2376.5013-.3987.8789-.4834-.1367-.0618-.2522-.1578-.3466-.2881-.0912-.1302-.1368-.2815-.1368-.4541 0-.1953.0521-.3662.1563-.5127.1042-.1464.2685-.288.4931-.4248-.2766-.1139-.5029-.3076-.6787-.581-.1725-.2735-.2588-.586-.2588-.9375 0-.586.1758-1.0368.5274-1.3526.3516-.319.8496-.4785 1.4941-.4785.28 0 .5323.0326.7569.0977zm-4.2676 6.25c0 .2897.122.5094.3662.6592.2441.1497.5941.2246 1.0498.2246.6803 0 1.1833-.1026 1.5088-.3076.3288-.2019.4931-.4769.4931-.8252 0-.2897-.0895-.4916-.2685-.6055-.179-.1107-.516-.166-1.0108-.166h-.9716c-.3679 0-.6543.0879-.8594.2637-.2051.1757-.3076.428-.3076.7568zm.4394-4.5361c0 .3743.1058.6575.3174.8496.2116.192.5062.288.8838.288.791 0 1.1865-.3841 1.1865-1.1523 0-.804-.4004-1.206-1.2011-1.206-.3809 0-.6739.1025-.879.3076-.205.205-.3076.5094-.3076.9131zm7.1875 3.7353c-.791 0-1.416-.2409-1.875-.7227-.4557-.4817-.6836-1.1507-.6836-2.0068 0-.8626.2116-1.5478.6348-2.0557.4264-.5078.9977-.7617 1.7139-.7617.6705 0 1.2011.2214 1.5918.6641.3906.4394.5859 1.0205.5859 1.7432v.5127h-3.6865c.0163.6282.1741 1.1051.4736 1.4306.3027.3255.7276.4883 1.2744.4883.5762 0 1.1459-.1204 1.709-.3613v.7226c-.2864.1237-.5583.2116-.8154.2637-.2539.0553-.5615.083-.9229.083zm-.2197-4.8682c-.4297 0-.7731.14-1.0303.42-.2539.2799-.4036.6673-.4492 1.1621h2.7979c0-.5111-.114-.9017-.3418-1.1719-.2279-.2734-.5534-.4102-.9766-.4102zm8.6623 4.8682c-.348 0-.668-.0635-.957-.1904-.287-.1302-.528-.3288-.723-.5957h-.058c.039.3125.058.6087.058.8886v2.2022h-.81v-7.7539h.659l.112.7324h.039c.208-.293.451-.5045.728-.6348.276-.1302.594-.1953.952-.1953.709 0 1.256.2425 1.64.7276.388.485.581 1.1653.581 2.041 0 .8789-.196 1.5625-.59 2.0508-.391.485-.935.7275-1.631.7275zm-.117-4.8584c-.547 0-.943.1514-1.187.4541s-.369.7845-.376 1.4453v.1807c0 .7519.125 1.2907.376 1.6162.251.3223.653.4834 1.206.4834.462 0 .824-.1872 1.084-.5615.264-.3744.396-.8903.396-1.5479 0-.6673-.132-1.1784-.396-1.5332-.26-.3581-.628-.5371-1.103-.5371zm7.05 4.7607-.161-.7617h-.039c-.267.3353-.534.5632-.801.6836-.263.1172-.594.1758-.991.1758-.53 0-.947-.1367-1.25-.4102-.299-.2734-.449-.6624-.449-1.1669 0-1.0808.864-1.6472 2.593-1.6993l.908-.0293v-.332c0-.4199-.091-.7292-.273-.9277-.179-.2018-.468-.3028-.865-.3028-.446 0-.95.1368-1.513.4102l-.249-.6201c.263-.1432.551-.2556.864-.3369.316-.0814.631-.1221.947-.1221.638 0 1.11.1416 1.416.4248.309.2832.464.7373.464 1.3623v3.6523zm-1.831-.5712c.505 0 .9-.1384 1.187-.4151.29-.2767.434-.664.434-1.1621v-.4834l-.81.0342c-.645.0228-1.11.1237-1.397.3027-.283.1758-.424.4509-.424.8252 0 .293.087.516.263.669.179.153.428.2295.747.2295zm4.917.5712h-.81v-5.3515h.81zm-.879-6.8017c0-.1856.046-.3206.137-.4053.091-.0879.205-.1318.342-.1318.13 0 .242.0439.337.1318.094.0879.141.223.141.4053s-.047.319-.141.4101c-.095.0879-.207.1319-.337.1319-.137 0-.251-.044-.342-.1319-.091-.0911-.137-.2278-.137-.4101zm5.039 1.3525c.238 0 .451.0196.64.0586l-.112.752c-.222-.0489-.417-.0733-.586-.0733-.433 0-.804.1758-1.113.5274-.306.3515-.459.7894-.459 1.3135v2.871h-.811v-5.3515h.669l.093.9912h.039c.198-.3483.438-.6169.718-.8057s.587-.2832.922-.2832z" fill="#004e82"/><path d="m59.1777 130.718c0 .914-.1839 1.674-.5517 2.28-.3679.605-.8871 1.015-1.5576 1.23l1.6992 1.768h-1.2061l-1.3916-1.611-.2685.009c-1.0515 0-1.8636-.32-2.4366-.962-.5696-.644-.8544-1.552-.8544-2.724 0-1.162.2864-2.062.8593-2.7.5729-.642 1.3867-.962 2.4414-.962 1.0254 0 1.8262.325 2.4024.976.5761.651.8642 1.55.8642 2.696zm-5.6884 0c0 .966.205 1.7.6152 2.202.4134.498 1.0124.747 1.7969.747.791 0 1.3883-.249 1.792-.747.4036-.498.6054-1.232.6054-2.202 0-.961-.2018-1.688-.6054-2.183-.4004-.498-.9945-.747-1.7823-.747-.791 0-1.3932.25-1.8066.752-.4102.498-.6152 1.224-.6152 2.178zm7.9248-1.773v3.472c0 .436.0992.761.2978.976s.5095.323.9326.323c.5599 0 .9685-.153 1.2256-.459.2604-.306.3906-.806.3906-1.499v-2.813h.8106v5.352h-.669l-.1171-.718h-.044c-.166.264-.3971.465-.6933.605-.293.14-.6283.21-1.0059.21-.651 0-1.1393-.154-1.4649-.464-.3222-.309-.4833-.804-.4833-1.484v-3.501zm8.6718 5.352-.1611-.762h-.0391c-.2669.335-.5338.563-.8007.684-.2637.117-.5941.175-.9912.175-.5306 0-.9473-.136-1.25-.41-.2995-.273-.4493-.662-.4493-1.167 0-1.081.8643-1.647 2.5928-1.699l.9082-.029v-.332c0-.42-.0911-.73-.2734-.928-.1791-.202-.4672-.303-.8643-.303-.446 0-.9505.137-1.5137.41l-.249-.62c.2637-.143.5518-.255.8643-.337.3157-.081.6315-.122.9472-.122.6381 0 1.1101.142 1.4161.425.3092.283.4638.737.4638 1.362v3.653zm-1.831-.572c.5045 0 .9-.138 1.1865-.415.2897-.276.4346-.664.4346-1.162v-.483l-.8106.034c-.6445.023-1.11.124-1.3965.303-.2832.175-.4248.451-.4248.825 0 .293.0879.516.2637.669.179.153.4281.229.7471.229zm4.917.572h-.8106v-7.598h.8106zm2.5293 0h-.8106v-5.352h.8106zm-.8789-6.802c0-.186.0455-.321.1367-.405.0911-.088.2051-.132.3418-.132.1302 0 .2425.044.3369.132.0944.087.1416.223.1416.405s-.0472.319-.1416.41c-.0944.088-.2067.132-.3369.132-.1367 0-.2507-.044-.3418-.132-.0912-.091-.1367-.228-.1367-.41zm4.3261 6.23c.1433 0 .2816-.009.4151-.029.1334-.023.2392-.046.3174-.068v.62c-.0879.042-.2181.076-.3907.102-.1692.03-.3222.044-.459.044-1.0351 0-1.5527-.545-1.5527-1.635v-3.184h-.7666v-.391l.7666-.337.3418-1.142h.4688v1.24h1.5527v.63h-1.5527v3.149c0 .323.0765.57.2295.743.1529.172.3629.258.6298.258zm.9571-4.78h.8691l1.1719 3.052c.2571.696.4167 1.199.4785 1.509h.0391c.0423-.166.1302-.45.2636-.85.1368-.404.5795-1.641 1.3282-3.711h.8691l-2.2998 6.094c-.2279.602-.4948 1.028-.8008 1.279-.3027.254-.6754.381-1.1182.381-.2473 0-.4915-.028-.7324-.083v-.649c.1791.039.3793.058.6006.058.5567 0 .9538-.312 1.1914-.937l.2979-.762z" fill="#004e82"/><path d="m230.289 132.397c0 .628-.228 1.118-.684 1.47s-1.074.527-1.855.527c-.847 0-1.498-.109-1.954-.327v-.801c.293.124.612.222.957.293.345.072.687.108 1.026.108.553 0 .97-.104 1.25-.313.28-.211.42-.504.42-.879 0-.247-.051-.449-.152-.605-.097-.16-.263-.306-.498-.44-.231-.133-.584-.284-1.059-.454-.664-.237-1.14-.519-1.426-.844-.283-.326-.425-.751-.425-1.275 0-.55.207-.988.62-1.313.414-.326.961-.489 1.641-.489.71 0 1.362.131 1.958.391l-.259.723c-.589-.248-1.162-.371-1.719-.371-.439 0-.783.094-1.03.283s-.371.451-.371.786c0 .247.046.451.137.61.091.157.244.301.459.435.218.13.55.275.996.434.748.267 1.263.554 1.543.86.283.306.425.703.425 1.191zm3.066 1.328c.143 0 .282-.009.415-.029.133-.023.239-.046.317-.068v.62c-.087.042-.218.076-.39.102-.169.03-.322.044-.459.044-1.035 0-1.553-.545-1.553-1.635v-3.184h-.767v-.391l.767-.337.342-1.142h.469v1.24h1.552v.63h-1.552v3.149c0 .323.076.57.229.743.153.172.363.258.63.258zm.957-4.78h.869l1.172 3.052c.257.696.417 1.199.479 1.509h.039c.042-.166.13-.45.263-.85.137-.404.58-1.641 1.328-3.711h.87l-2.3 6.094c-.228.602-.495 1.028-.801 1.279-.303.254-.675.381-1.118.381-.248 0-.492-.028-.733-.083v-.649c.179.039.38.058.601.058.557 0 .954-.312 1.191-.937l.298-.762zm6.699 5.352h-.81v-7.598h.81zm3.98.097c-.791 0-1.416-.241-1.875-.722-.456-.482-.684-1.151-.684-2.007 0-.863.212-1.548.635-2.056.426-.508.998-.762 1.714-.762.67 0 1.201.222 1.592.664.39.44.585 1.021.585 1.744v.512h-3.686c.016.629.174 1.105.474 1.431.302.326.727.488 1.274.488.576 0 1.146-.12 1.709-.361v.723c-.286.123-.558.211-.815.263-.254.056-.562.083-.923.083zm-.22-4.868c-.43 0-.773.14-1.03.42-.254.28-.404.667-.449 1.162h2.797c0-.511-.114-.902-.341-1.172-.228-.273-.554-.41-.977-.41zm10.552-.581v.513l-.991.117c.091.114.172.264.244.449.071.182.107.389.107.62 0 .524-.179.943-.537 1.255-.358.313-.85.469-1.475.469-.159 0-.309-.013-.449-.039-.345.182-.517.412-.517.688 0 .147.06.256.18.327.121.069.327.103.62.103h.948c.579 0 1.023.122 1.333.366.312.244.468.599.468 1.065 0 .592-.237 1.043-.712 1.352-.476.313-1.169.469-2.081.469-.699 0-1.24-.13-1.621-.391-.377-.26-.566-.628-.566-1.103 0-.326.104-.607.312-.845.209-.238.502-.399.879-.483-.136-.062-.252-.158-.346-.288-.091-.131-.137-.282-.137-.454 0-.196.052-.367.156-.513.104-.147.269-.288.493-.425-.276-.114-.503-.308-.678-.581-.173-.273-.259-.586-.259-.938 0-.585.176-1.036.527-1.352.352-.319.85-.479 1.494-.479.28 0 .533.033.757.098zm-4.268 6.25c0 .29.122.51.366.659.245.15.594.225 1.05.225.681 0 1.183-.103 1.509-.308.329-.202.493-.477.493-.825 0-.29-.089-.491-.268-.605-.179-.111-.516-.166-1.011-.166h-.972c-.368 0-.654.087-.859.263s-.308.428-.308.757zm.44-4.536c0 .374.105.657.317.85.212.192.506.288.884.288.791 0 1.186-.384 1.186-1.153 0-.804-.4-1.206-1.201-1.206-.381 0-.674.103-.879.308s-.307.509-.307.913zm5.688-1.714v3.472c0 .436.099.761.298.976s.509.323.933.323c.559 0 .968-.153 1.225-.459.261-.306.391-.806.391-1.499v-2.813h.81v5.352h-.669l-.117-.718h-.044c-.166.264-.397.465-.693.605-.293.14-.628.21-1.006.21-.651 0-1.139-.154-1.465-.464-.322-.309-.483-.804-.483-1.484v-3.501zm6.192 5.352h-.811v-5.352h.811zm-.879-6.802c0-.186.045-.321.136-.405.091-.088.205-.132.342-.132.13 0 .243.044.337.132.094.087.142.223.142.405s-.048.319-.142.41c-.094.088-.207.132-.337.132-.137 0-.251-.044-.342-.132-.091-.091-.136-.228-.136-.41zm6.24 6.084h-.044c-.374.543-.934.815-1.68.815-.7 0-1.245-.239-1.636-.717-.387-.479-.581-1.159-.581-2.042 0-.882.196-1.567.586-2.055.391-.488.935-.733 1.631-.733.726 0 1.283.264 1.67.791h.064l-.035-.385-.019-.376v-2.178h.81v7.598h-.659zm-1.621.137c.553 0 .954-.15 1.201-.45.251-.302.376-.789.376-1.46v-.171c0-.758-.127-1.298-.381-1.621-.251-.325-.653-.488-1.206-.488-.475 0-.84.186-1.094.557-.25.368-.376.888-.376 1.562 0 .684.126 1.2.376 1.548.251.348.619.523 1.104.523zm6.372.678c-.791 0-1.416-.241-1.875-.722-.456-.482-.684-1.151-.684-2.007 0-.863.212-1.548.635-2.056.426-.508.998-.762 1.714-.762.67 0 1.201.222 1.592.664.39.44.586 1.021.586 1.744v.512h-3.687c.016.629.174 1.105.474 1.431.302.326.727.488 1.274.488.576 0 1.146-.12 1.709-.361v.723c-.286.123-.558.211-.815.263-.254.056-.562.083-.923.083zm-.22-4.868c-.43 0-.773.14-1.03.42-.254.28-.404.667-.449 1.162h2.797c0-.511-.113-.902-.341-1.172-.228-.273-.554-.41-.977-.41z" fill="#004e82"/><rect fill="#e6f0f9" height="17" rx="3" width="158.721" x="52.2102" y="144.091"/><rect fill="#e6f0f9" height="17" rx="3" width="158.721" x="225.279" y="144.091"/><path d="m201.269 103.583 2.387-2.719c.055-.063.085-.147.085-.236 0-.09-.03-.173-.085-.236l-.176-.201c-.115-.13-.301-.13-.415 0l-2.005 2.283-2.006-2.285c-.056-.063-.129-.098-.208-.098-.078 0-.152.035-.207.098l-.176.2c-.055.063-.086.147-.086.236 0 .09.031.174.086.237l2.389 2.721c.056.063.13.098.208.098.079 0 .153-.035.209-.098z" fill="#004e82"/><path d="m201.269 154.583 2.387-2.719c.055-.063.085-.147.085-.236 0-.09-.03-.173-.085-.236l-.176-.201c-.115-.13-.301-.13-.415 0l-2.005 2.283-2.006-2.285c-.056-.063-.129-.098-.208-.098-.078 0-.152.035-.207.098l-.176.2c-.055.063-.086.147-.086.236 0 .09.031.174.086.237l2.389 2.721c.056.063.13.098.208.098.079 0 .153-.035.209-.098z" fill="#004e82"/><path d="m374.547 103.583 2.388-2.719c.055-.063.085-.147.085-.236 0-.09-.03-.173-.085-.236l-.176-.201c-.115-.13-.301-.13-.415 0l-2.005 2.283-2.007-2.285c-.055-.063-.128-.098-.207-.098s-.152.035-.208.098l-.175.2c-.056.063-.086.147-.086.236 0 .09.03.174.086.237l2.389 2.721c.055.063.129.098.208.098s.153-.035.208-.098z" fill="#004e82"/><path d="m374.337 154.583 2.387-2.719c.056-.063.086-.147.086-.236 0-.09-.03-.173-.086-.236l-.175-.201c-.115-.13-.301-.13-.415 0l-2.005 2.283-2.007-2.285c-.055-.063-.129-.098-.207-.098-.079 0-.152.035-.208.098l-.175.2c-.056.063-.086.147-.086.236 0 .09.03.174.086.237l2.389 2.721c.055.063.129.098.208.098s.153-.035.208-.098z" fill="#004e82"/><rect fill="#b8d0e4" height="4.30705" rx="2" width="33.7948" x="57.7935" y="99.915"/><rect fill="#b8d0e4" height="4.30705" rx="2" width="33.7948" x="235.143" y="99.915"/><rect fill="#b8d0e4" height="4.30705" rx="2" width="33.7948" x="57.7935" y="150.216"/><rect fill="#b8d0e4" height="4.30705" rx="2" width="33.7948" x="235.143" y="150.216"/><path d="m219.45 102.591-3.138-3.4997v6.9997z" fill="#42556c"/><g filter="url(#c)"><rect fill="#fff" height="202" rx="15" width="222" x="52" y="176"/></g><path d="m106.625 215-3.875-10.125h-.062c.072.802.109 1.755.109 2.859v7.266h-1.227v-11.422h2l3.618 9.422h.062l3.648-9.422h1.985v11.422h-1.328v-7.359c0-.844.036-1.761.109-2.75h-.062l-3.907 10.109zm14.469 0-.258-1.219h-.063c-.427.537-.854.901-1.281 1.094-.422.187-.95.281-1.586.281-.849 0-1.515-.218-2-.656-.479-.438-.718-1.06-.718-1.867 0-1.729 1.382-2.636 4.148-2.719l1.453-.047v-.531c0-.672-.146-1.167-.437-1.484-.287-.323-.748-.485-1.383-.485-.714 0-1.521.219-2.422.656l-.399-.992c.422-.229.883-.409 1.383-.539.505-.13 1.011-.195 1.516-.195 1.021 0 1.776.226 2.265.68.495.453.743 1.179.743 2.179v5.844zm-2.93-.914c.807 0 1.44-.221 1.898-.664.464-.443.696-1.063.696-1.86v-.773l-1.297.055c-1.031.036-1.776.198-2.234.484-.454.281-.68.721-.68 1.32 0 .469.141.826.422 1.071.286.245.685.367 1.195.367zm9.992 1.07c-1.239 0-2.2-.38-2.883-1.14-.677-.766-1.015-1.847-1.015-3.243 0-1.432.344-2.539 1.031-3.32.693-.781 1.677-1.172 2.953-1.172.412 0 .823.045 1.235.133.411.089.734.193.968.313l-.398 1.101c-.287-.114-.599-.208-.938-.281-.338-.078-.638-.117-.898-.117-1.74 0-2.609 1.109-2.609 3.328 0 1.052.21 1.859.632 2.422.427.562 1.058.843 1.891.843.714 0 1.445-.153 2.195-.461v1.149c-.573.297-1.294.445-2.164.445zm10.063-.156v-5.539c0-.698-.159-1.219-.477-1.563-.318-.343-.815-.515-1.492-.515-.901 0-1.56.245-1.977.734-.411.49-.617 1.292-.617 2.406v4.477h-1.297v-12.156h1.297v3.679c0 .443-.021.81-.062 1.102h.078c.255-.411.617-.734 1.086-.969.474-.239 1.013-.359 1.617-.359 1.047 0 1.831.25 2.352.75.526.495.789 1.284.789 2.367v5.586zm5.265 0h-1.296v-8.562h1.296zm-1.406-10.883c0-.297.073-.513.219-.648.146-.141.328-.211.547-.211.208 0 .388.07.539.211.151.14.226.357.226.648 0 .292-.075.511-.226.656-.151.141-.331.211-.539.211-.219 0-.401-.07-.547-.211-.146-.145-.219-.364-.219-.656zm10.016 10.883v-5.539c0-.698-.159-1.219-.477-1.563-.318-.343-.815-.515-1.492-.515-.896 0-1.552.242-1.969.726-.416.485-.625 1.284-.625 2.399v4.492h-1.297v-8.562h1.055l.211 1.171h.062c.266-.421.639-.747 1.118-.976.479-.235 1.013-.352 1.601-.352 1.031 0 1.808.25 2.328.75.521.495.782 1.289.782 2.383v5.586zm7.586.156c-1.266 0-2.266-.385-3-1.156-.729-.771-1.094-1.841-1.094-3.211 0-1.38.338-2.477 1.016-3.289.682-.812 1.596-1.219 2.742-1.219 1.073 0 1.922.354 2.547 1.063.625.703.937 1.633.937 2.789v.82h-5.898c.026 1.005.278 1.768.758 2.289.484.521 1.164.781 2.039.781.921 0 1.833-.192 2.734-.578v1.157c-.458.197-.893.338-1.305.421-.406.089-.898.133-1.476.133zm-.352-7.789c-.687 0-1.237.224-1.648.672-.407.448-.646 1.068-.719 1.859h4.477c0-.817-.183-1.442-.547-1.875-.365-.437-.886-.656-1.563-.656zm-50.516 32.539c0 1.156-.395 2.047-1.187 2.672-.786.62-1.914.93-3.383.93h-1.344v4.492h-1.328v-11.422h2.961c2.854 0 4.281 1.11 4.281 3.328zm-5.914 2.461h1.196c1.177 0 2.028-.19 2.554-.57s.79-.99.79-1.828c0-.755-.248-1.318-.743-1.688-.494-.37-1.265-.554-2.312-.554h-1.485zm15.508 1.344c0 1.396-.351 2.487-1.054 3.273-.704.782-1.675 1.172-2.914 1.172-.766 0-1.446-.179-2.04-.539-.593-.359-1.052-.875-1.375-1.547-.322-.672-.484-1.458-.484-2.359 0-1.396.349-2.482 1.047-3.258.698-.781 1.667-1.172 2.906-1.172 1.198 0 2.149.399 2.852 1.196.708.796 1.062 1.875 1.062 3.234zm-6.523 0c0 1.094.219 1.927.656 2.5.438.573 1.081.859 1.93.859s1.492-.284 1.929-.851c.443-.573.664-1.409.664-2.508 0-1.089-.221-1.914-.664-2.477-.437-.567-1.086-.851-1.945-.851-.849 0-1.489.278-1.922.836-.432.557-.648 1.388-.648 2.492zm14.328 1.953c0 .797-.297 1.412-.891 1.844-.593.432-1.427.648-2.5.648-1.135 0-2.021-.179-2.656-.539v-1.203c.412.208.852.372 1.32.492.474.12.93.18 1.368.18.677 0 1.197-.107 1.562-.32.365-.219.547-.55.547-.993 0-.333-.146-.617-.438-.851-.286-.24-.849-.521-1.687-.844-.797-.297-1.365-.555-1.703-.773-.334-.224-.584-.477-.75-.758-.162-.281-.242-.617-.242-1.008 0-.698.283-1.247.851-1.648.568-.407 1.347-.61 2.336-.61.922 0 1.823.188 2.703.563l-.461 1.054c-.859-.354-1.638-.531-2.336-.531-.614 0-1.078.097-1.39.289-.313.193-.469.459-.469.797 0 .229.057.425.172.586.12.162.31.315.57.461.261.146.761.357 1.5.633 1.016.37 1.701.742 2.055 1.117.359.375.539.846.539 1.414zm4.883 1.422c.229 0 .45-.016.664-.047.213-.036.383-.073.508-.109v.992c-.141.068-.349.122-.625.164-.271.047-.516.07-.735.07-1.656 0-2.484-.872-2.484-2.617v-5.094h-1.227v-.625l1.227-.539.547-1.828h.75v1.985h2.484v1.007h-2.484v5.039c0 .516.122.912.367 1.188s.581.414 1.008.414zm10.664 1.07c-1.266 0-2.266-.385-3-1.156-.729-.771-1.094-1.841-1.094-3.211 0-1.38.339-2.477 1.016-3.289.682-.812 1.596-1.219 2.742-1.219 1.073 0 1.922.354 2.547 1.063.625.703.937 1.633.937 2.789v.82h-5.898c.026 1.005.278 1.768.758 2.289.484.521 1.164.781 2.039.781.922 0 1.833-.192 2.734-.578v1.157c-.458.197-.893.338-1.305.421-.406.089-.898.133-1.476.133zm-.352-7.789c-.687 0-1.237.224-1.648.672-.406.448-.646 1.068-.719 1.859h4.477c0-.817-.183-1.442-.547-1.875-.365-.437-.886-.656-1.563-.656zm11.547 6.485h-.07c-.599.869-1.495 1.304-2.688 1.304-1.119 0-1.992-.383-2.617-1.148-.62-.766-.93-1.854-.93-3.266 0-1.411.313-2.508.938-3.289s1.495-1.172 2.609-1.172c1.162 0 2.052.422 2.672 1.266h.102l-.055-.617-.031-.602v-3.484h1.297v12.156h-1.055zm-2.594.218c.886 0 1.526-.239 1.922-.718.401-.485.602-1.263.602-2.336v-.274c0-1.213-.203-2.078-.61-2.594-.401-.52-1.044-.781-1.929-.781-.761 0-1.344.297-1.75.891-.401.588-.602 1.422-.602 2.5 0 1.094.201 1.919.602 2.476.401.558.989.836 1.765.836zm7.875.93h-1.296v-8.562h1.296zm-1.406-10.883c0-.297.073-.513.219-.648.146-.141.328-.211.547-.211.208 0 .388.07.539.211.151.14.226.357.226.648 0 .292-.075.511-.226.656-.151.141-.331.211-.539.211-.219 0-.401-.07-.547-.211-.146-.145-.219-.364-.219-.656zm6.922 9.969c.229 0 .451-.016.664-.047.214-.036.383-.073.508-.109v.992c-.141.068-.349.122-.625.164-.271.047-.516.07-.735.07-1.656 0-2.484-.872-2.484-2.617v-5.094h-1.226v-.625l1.226-.539.547-1.828h.75v1.985h2.484v1.007h-2.484v5.039c0 .516.122.912.367 1.188s.581.414 1.008.414zm4.188.914h-1.297v-8.562h1.297zm-1.407-10.883c0-.297.073-.513.219-.648.146-.141.328-.211.547-.211.208 0 .388.07.539.211.151.14.226.357.226.648 0 .292-.075.511-.226.656-.151.141-.331.211-.539.211-.219 0-.401-.07-.547-.211-.146-.145-.219-.364-.219-.656zm10.016 10.883v-5.539c0-.698-.159-1.219-.477-1.563-.317-.343-.815-.515-1.492-.515-.896 0-1.552.242-1.969.726-.416.485-.625 1.284-.625 2.399v4.492h-1.296v-8.562h1.054l.211 1.171h.063c.265-.421.638-.747 1.117-.976.479-.235 1.013-.352 1.601-.352 1.032 0 1.808.25 2.328.75.521.495.782 1.289.782 2.383v5.586zm10.976-8.562v.82l-1.585.187c.145.183.276.422.39.719.115.292.172.622.172.992 0 .839-.286 1.508-.859 2.008s-1.36.75-2.36.75c-.255 0-.495-.021-.719-.062-.552.291-.828.658-.828 1.101 0 .235.097.409.289.524.193.109.524.164.993.164h1.515c.927 0 1.638.195 2.133.586.5.39.75.958.75 1.703 0 .948-.38 1.669-1.141 2.164-.76.5-1.869.75-3.328.75-1.119 0-1.984-.209-2.593-.625-.605-.417-.907-1.005-.907-1.766 0-.521.167-.971.5-1.351.334-.381.802-.638 1.407-.774-.219-.099-.404-.252-.555-.461-.146-.208-.219-.45-.219-.726 0-.313.083-.586.25-.821.167-.234.43-.461.789-.679-.443-.183-.805-.493-1.086-.93-.276-.438-.414-.938-.414-1.5 0-.938.281-1.659.844-2.164.562-.511 1.359-.766 2.391-.766.447 0 .851.052 1.21.157zm-6.828 10c0 .463.196.815.586 1.054.391.24.951.36 1.68.36 1.088 0 1.893-.164 2.414-.493.526-.323.789-.763.789-1.32 0-.463-.143-.786-.43-.969-.286-.177-.825-.265-1.617-.265h-1.555c-.588 0-1.046.14-1.374.422-.329.281-.493.684-.493 1.211zm.703-7.258c0 .599.17 1.052.508 1.359.339.307.81.461 1.414.461 1.266 0 1.899-.615 1.899-1.844 0-1.286-.641-1.929-1.922-1.929-.609 0-1.078.164-1.406.492-.329.328-.493.815-.493 1.461zm-76.312 38.82h-1.328v-10.242h-3.617v-1.18h8.562v1.18h-3.617zm9.055-8.719c.38 0 .721.031 1.023.094l-.18 1.203c-.354-.078-.666-.117-.937-.117-.693 0-1.287.281-1.781.844-.49.562-.735 1.263-.735 2.101v4.594h-1.297v-8.562h1.071l.148 1.585h.063c.317-.557.7-.987 1.148-1.289s.94-.453 1.477-.453zm7.89 8.719-.258-1.219h-.062c-.427.537-.854.901-1.281 1.094-.422.187-.951.281-1.586.281-.849 0-1.516-.218-2-.656-.479-.438-.719-1.06-.719-1.867 0-1.729 1.383-2.636 4.148-2.719l1.454-.047v-.531c0-.672-.146-1.167-.438-1.484-.286-.323-.747-.485-1.383-.485-.713 0-1.521.219-2.422.656l-.398-.992c.422-.229.883-.409 1.383-.539.505-.13 1.01-.195 1.515-.195 1.021 0 1.776.226 2.266.68.495.453.742 1.179.742 2.179v5.844zm-2.929-.914c.807 0 1.44-.221 1.898-.664.464-.443.695-1.063.695-1.86v-.773l-1.297.055c-1.031.036-1.776.198-2.234.484-.453.281-.68.721-.68 1.32 0 .469.141.826.422 1.071.287.245.685.367 1.196.367zm12.429.914v-5.539c0-.698-.159-1.219-.476-1.563-.318-.343-.815-.515-1.493-.515-.895 0-1.552.242-1.968.726-.417.485-.625 1.284-.625 2.399v4.492h-1.297v-8.562h1.055l.211 1.171h.062c.266-.421.638-.747 1.117-.976.479-.235 1.013-.352 1.602-.352 1.031 0 1.807.25 2.328.75.521.495.781 1.289.781 2.383v5.586zm9.492-2.336c0 .797-.296 1.412-.89 1.844s-1.427.648-2.5.648c-1.136 0-2.021-.179-2.656-.539v-1.203c.411.208.851.372 1.32.492.474.12.93.18 1.367.18.677 0 1.198-.107 1.563-.32.364-.219.546-.55.546-.993 0-.333-.145-.617-.437-.851-.287-.24-.849-.521-1.688-.844-.796-.297-1.364-.555-1.703-.773-.333-.224-.583-.477-.75-.758-.161-.281-.242-.617-.242-1.008 0-.698.284-1.247.852-1.648.567-.407 1.346-.61 2.336-.61.921 0 1.823.188 2.703.563l-.461 1.054c-.86-.354-1.638-.531-2.336-.531-.615 0-1.078.097-1.391.289-.312.193-.468.459-.468.797 0 .229.057.425.171.586.12.162.31.315.571.461.26.146.76.357 1.5.633 1.015.37 1.7.742 2.054 1.117.36.375.539.846.539 1.414zm3.415 2.336h-1.297v-12.156h1.297zm8.015 0-.258-1.219h-.062c-.427.537-.854.901-1.281 1.094-.422.187-.951.281-1.586.281-.849 0-1.516-.218-2-.656-.48-.438-.719-1.06-.719-1.867 0-1.729 1.383-2.636 4.148-2.719l1.453-.047v-.531c0-.672-.145-1.167-.437-1.484-.287-.323-.747-.485-1.383-.485-.713 0-1.521.219-2.422.656l-.398-.992c.422-.229.883-.409 1.383-.539.505-.13 1.01-.195 1.515-.195 1.021 0 1.776.226 2.266.68.495.453.742 1.179.742 2.179v5.844zm-2.93-.914c.808 0 1.441-.221 1.899-.664.463-.443.695-1.063.695-1.86v-.773l-1.297.055c-1.031.036-1.776.198-2.234.484-.453.281-.68.721-.68 1.32 0 .469.141.826.422 1.071.287.245.685.367 1.195.367zm9.336 0c.23 0 .451-.016.664-.047.214-.036.383-.073.508-.109v.992c-.14.068-.349.122-.625.164-.271.047-.515.07-.734.07-1.656 0-2.484-.872-2.484-2.617v-5.094h-1.227v-.625l1.227-.539.546-1.828h.75v1.985h2.485v1.007h-2.485v5.039c0 .516.123.912.368 1.188.244.276.58.414 1.007.414zm4.188.914h-1.297v-8.562h1.297zm-1.406-10.883c0-.297.073-.513.218-.648.146-.141.329-.211.547-.211.209 0 .388.07.539.211.151.14.227.357.227.648 0 .292-.076.511-.227.656-.151.141-.33.211-.539.211-.218 0-.401-.07-.547-.211-.145-.145-.218-.364-.218-.656zm11.547 6.594c0 1.396-.352 2.487-1.055 3.273-.703.782-1.675 1.172-2.914 1.172-.766 0-1.446-.179-2.039-.539-.594-.359-1.052-.875-1.375-1.547s-.485-1.458-.485-2.359c0-1.396.349-2.482 1.047-3.258.698-.781 1.667-1.172 2.906-1.172 1.198 0 2.149.399 2.852 1.196.708.796 1.063 1.875 1.063 3.234zm-6.524 0c0 1.094.219 1.927.656 2.5.438.573 1.081.859 1.93.859s1.492-.284 1.93-.851c.442-.573.664-1.409.664-2.508 0-1.089-.222-1.914-.664-2.477-.438-.567-1.086-.851-1.946-.851-.849 0-1.489.278-1.922.836-.432.557-.648 1.388-.648 2.492zm14.664 4.289v-5.539c0-.698-.159-1.219-.476-1.563-.318-.343-.816-.515-1.493-.515-.895 0-1.552.242-1.968.726-.417.485-.625 1.284-.625 2.399v4.492h-1.297v-8.562h1.054l.211 1.171h.063c.265-.421.638-.747 1.117-.976.479-.235 1.013-.352 1.602-.352 1.031 0 1.807.25 2.328.75.521.495.781 1.289.781 2.383v5.586zm-73.39 66h-6.368v-11.422h6.368v1.18h-5.04v3.68h4.735v1.171h-4.735v4.203h5.04zm4.406-4.383-2.977-4.179h1.477l2.258 3.281 2.25-3.281h1.46l-2.976 4.179 3.133 4.383h-1.469l-2.398-3.469-2.422 3.469h-1.469zm10.312 4.539c-.557 0-1.067-.101-1.531-.304-.458-.209-.844-.526-1.156-.954h-.094c.063.5.094.974.094 1.422v3.524h-1.297v-12.406h1.055l.179 1.171h.063c.333-.468.721-.807 1.164-1.015.443-.209.95-.313 1.523-.313 1.136 0 2.011.388 2.625 1.164.62.776.93 1.865.93 3.266 0 1.406-.315 2.5-.945 3.281-.625.776-1.495 1.164-2.61 1.164zm-.187-7.773c-.875 0-1.508.242-1.899.726-.39.485-.591 1.256-.601 2.313v.289c0 1.203.2 2.065.601 2.586.401.515 1.045.773 1.93.773.74 0 1.318-.299 1.734-.898.422-.599.633-1.425.633-2.477 0-1.067-.211-1.885-.633-2.453-.416-.573-1.005-.859-1.765-.859zm9.633 7.773c-1.266 0-2.266-.385-3-1.156-.73-.771-1.094-1.841-1.094-3.211 0-1.38.338-2.477 1.015-3.289.683-.812 1.597-1.219 2.743-1.219 1.073 0 1.922.354 2.546 1.063.626.703.938 1.633.938 2.789v.82h-5.898c.026 1.005.278 1.768.757 2.289.485.521 1.164.781 2.039.781.922 0 1.834-.192 2.735-.578v1.157c-.459.197-.893.338-1.305.421-.406.089-.898.133-1.476.133zm-.352-7.789c-.688 0-1.237.224-1.648.672-.407.448-.646 1.068-.719 1.859h4.476c0-.817-.182-1.442-.547-1.875-.364-.437-.885-.656-1.562-.656zm9.625-1.086c.38 0 .721.031 1.023.094l-.179 1.203c-.354-.078-.667-.117-.938-.117-.692 0-1.286.281-1.781.844-.49.562-.734 1.263-.734 2.101v4.594h-1.297v-8.562h1.07l.149 1.585h.062c.318-.557.701-.987 1.148-1.289.448-.302.941-.453 1.477-.453zm5.391 7.805c.229 0 .45-.016.664-.047.213-.036.382-.073.508-.109v.992c-.141.068-.349.122-.626.164-.27.047-.515.07-.734.07-1.656 0-2.484-.872-2.484-2.617v-5.094h-1.227v-.625l1.227-.539.547-1.828h.75v1.985h2.484v1.007h-2.484v5.039c0 .516.122.912.367 1.188s.581.414 1.008.414z" fill="#004e82"/><path d="m101.438 314v-11.422h2.421v9.422h4.633v2zm10.757-4.383c0 .865.141 1.518.422 1.961.287.443.75.664 1.391.664.635 0 1.091-.219 1.367-.656.281-.443.422-1.099.422-1.969 0-.864-.141-1.513-.422-1.945s-.742-.649-1.383-.649c-.635 0-1.094.217-1.375.649-.281.427-.422 1.075-.422 1.945zm6.039 0c0 1.422-.375 2.534-1.125 3.336s-1.794 1.203-3.132 1.203c-.839 0-1.579-.182-2.219-.547-.641-.369-1.133-.898-1.477-1.586-.343-.687-.515-1.489-.515-2.406 0-1.427.372-2.536 1.117-3.328s1.791-1.187 3.14-1.187c.839 0 1.579.182 2.219.546.641.365 1.133.888 1.477 1.571.343.682.515 1.482.515 2.398zm5.516 4.539c-2.719 0-4.078-1.492-4.078-4.476 0-1.485.37-2.618 1.109-3.399.74-.786 1.8-1.179 3.18-1.179 1.01 0 1.917.197 2.719.593l-.703 1.844c-.375-.151-.724-.273-1.047-.367-.323-.099-.646-.149-.969-.149-1.24 0-1.859.881-1.859 2.641 0 1.708.619 2.563 1.859 2.563.458 0 .883-.06 1.273-.18.391-.125.782-.318 1.172-.578v2.039c-.385.245-.776.414-1.172.508-.39.093-.885.14-1.484.14zm10.234-.156-.461-1.188h-.062c-.401.506-.815.857-1.242 1.055-.422.193-.974.289-1.657.289-.838 0-1.5-.239-1.984-.718-.479-.48-.719-1.162-.719-2.047 0-.927.323-1.61.969-2.047.651-.443 1.63-.688 2.938-.735l1.515-.047v-.382c0-.886-.453-1.328-1.359-1.328-.698 0-1.518.21-2.461.632l-.789-1.609c1.005-.526 2.12-.789 3.344-.789 1.172 0 2.07.255 2.695.766.625.51.937 1.286.937 2.328v5.82zm-.703-4.047-.922.031c-.692.021-1.208.146-1.547.375-.338.23-.507.579-.507 1.047 0 .672.385 1.008 1.156 1.008.552 0 .992-.159 1.32-.476.334-.318.5-.74.5-1.266zm7.211 4.047h-2.383v-12.156h2.383zm2.406-10.992c0-.776.433-1.164 1.297-1.164.865 0 1.297.388 1.297 1.164 0 .37-.109.659-.328.867-.213.203-.536.305-.969.305-.864 0-1.297-.391-1.297-1.172zm2.485 10.992h-2.383v-8.734h2.383zm8.586 0h-6.899v-1.406l4.047-5.508h-3.805v-1.82h6.516v1.546l-3.937 5.368h4.078zm7.281 0-.461-1.188h-.062c-.401.506-.816.857-1.243 1.055-.422.193-.974.289-1.656.289-.838 0-1.5-.239-1.984-.718-.479-.48-.719-1.162-.719-2.047 0-.927.323-1.61.969-2.047.651-.443 1.63-.688 2.937-.735l1.516-.047v-.382c0-.886-.453-1.328-1.359-1.328-.698 0-1.519.21-2.461.632l-.789-1.609c1.005-.526 2.119-.789 3.343-.789 1.172 0 2.071.255 2.696.766.625.51.937 1.286.937 2.328v5.82zm-.703-4.047-.922.031c-.693.021-1.208.146-1.547.375-.338.23-.508.579-.508 1.047 0 .672.386 1.008 1.157 1.008.552 0 .992-.159 1.32-.476.333-.318.5-.74.5-1.266zm8.508 2.305c.416 0 .916-.091 1.5-.274v1.774c-.594.265-1.323.398-2.188.398-.953 0-1.648-.239-2.086-.718-.432-.485-.648-1.209-.648-2.172v-4.211h-1.141v-1.008l1.313-.797.687-1.844h1.524v1.86h2.445v1.789h-2.445v4.211c0 .338.093.588.281.75.193.161.445.242.758.242zm3.172-9.25c0-.776.432-1.164 1.296-1.164.865 0 1.297.388 1.297 1.164 0 .37-.109.659-.328.867-.213.203-.536.305-.969.305-.864 0-1.296-.391-1.296-1.172zm2.484 10.992h-2.383v-8.734h2.383zm4.406-4.383c0 .865.141 1.518.422 1.961.287.443.75.664 1.391.664.635 0 1.091-.219 1.367-.656.281-.443.422-1.099.422-1.969 0-.864-.141-1.513-.422-1.945s-.742-.649-1.383-.649c-.635 0-1.094.217-1.375.649-.281.427-.422 1.075-.422 1.945zm6.039 0c0 1.422-.375 2.534-1.125 3.336s-1.794 1.203-3.133 1.203c-.838 0-1.578-.182-2.218-.547-.641-.369-1.133-.898-1.477-1.586-.344-.687-.515-1.489-.515-2.406 0-1.427.372-2.536 1.117-3.328.744-.792 1.791-1.187 3.14-1.187.839 0 1.578.182 2.219.546.641.365 1.133.888 1.477 1.571.343.682.515 1.482.515 2.398zm10.032 4.383h-2.383v-5.102c0-.63-.112-1.101-.336-1.414-.224-.317-.581-.476-1.071-.476-.666 0-1.148.224-1.445.672-.297.442-.445 1.179-.445 2.211v4.109h-2.383v-8.734h1.82l.321 1.117h.132c.266-.422.631-.74 1.094-.953.469-.219 1-.328 1.594-.328 1.016 0 1.786.276 2.312.828.526.547.79 1.338.79 2.375z" fill="#376b97"/><g fill="#e6f0f9"><circle cx="83" cy="209" r="7"/><circle cx="83" cy="242" r="7"/><circle cx="83" cy="275" r="7"/><circle cx="83" cy="341" r="7"/></g><g filter="url(#d)"><rect fill="url(#f)" height="75" rx="20" transform="matrix(-1 0 0 1 371 243)" width="75"/></g><path clip-rule="evenodd" d="m327.847 272.577c0-6.935 5.642-12.577 12.576-12.577h1.258v.002-.002h11.319v25.908h-7.752l-3.567 1.783v-.002.002l-7.043 3.522v-5.305h-6.791z" fill="#659ad5" fill-rule="evenodd"/><path d="m341.681 260h1v-1h-1zm0 .002h-1l1.998.059zm0-.002v-1h-.942l-.056.941zm11.319 0h1v-1h-1zm0 25.908v1h1v-1zm-7.752 0v-1h-.236l-.211.106zm-3.567 1.783-.998.062.094 1.509 1.351-.676zm0-.002.998-.061-1.998.061zm0 .002.447.895.553-.277v-.618zm-7.043 3.522h-1v1.618l1.447-.724zm0-5.305h1v-1h-1zm-6.791 0h-1v1h1zm12.576-26.908c-7.487 0-13.576 6.09-13.576 13.577h2c0-6.383 5.194-11.577 11.576-11.577zm1.258 0h-1.258v2h1.258zm1 1.002v-.002h-2v.002zm-1.998-.061v.002l1.996.118v-.002zm12.317-.941h-11.319v2h11.319zm1 26.908v-25.908h-2v25.908zm-8.752 1h7.752v-2h-7.752zm-3.12 1.678 3.567-1.784-.894-1.788-3.567 1.783zm-1.445-.835v.002l1.996-.123v-.002zm1.998-.06v-.002h-2v.002zm-7.596 4.416 7.043-3.521-.894-1.789-7.043 3.522zm-1.447-6.199v5.305h2v-5.305zm-5.791 1h6.791v-2h-6.791zm-1-14.331v13.331h2v-13.331z" fill="#fff" mask="url(#h)"/><path clip-rule="evenodd" d="m348.335 269.565v2.515h-2.258c-.173 1.886-.933 3.604-2.195 4.971 1.09.433 2.341.663 3.679.663v2.515c-2.185 0-4.214-.506-5.88-1.447v-.001.001c-1.665.941-3.694 1.447-5.88 1.447h-.932v-2.515h.932c1.339 0 2.589-.23 3.679-.663-1.262-1.367-2.021-3.085-2.195-4.971h-2.257v-2.515h5.396v-2.583h1.257v.001-.001h1.258v2.583zm-6.654 6.131v-.001c1.052-.967 1.687-2.202 1.866-3.615h-1.866v-.001.001h-1.865c.178 1.413.813 2.648 1.865 3.615z" fill="#fff" fill-rule="evenodd"/><path clip-rule="evenodd" d="m312 297.562v-25.908h11.319 1.258c6.935 0 12.576 5.642 12.576 12.577v13.331h-6.791v5.305l-7.043-3.521-3.567-1.784z" fill="#659ad5" fill-rule="evenodd"/><path d="m312 271.654v-1h-1v1zm0 25.908h-1v1h1zm11.319-25.908v-1zm1.258 0v1zm12.576 25.908v1h1v-1zm-6.791 0v-1h-1v1zm0 5.305-.447.895 1.447.723v-1.618zm-7.043-3.521-.997.075.042.565.508.254zm0 0 .997-.075-.042-.566-.508-.254zm-3.567-1.784.447-.894-.211-.106h-.236zm-8.752-25.908v25.908h2v-25.908zm12.319-1h-11.319v2h11.319zm1.258 0h-1.258v2h1.258zm13.576 13.577c0-7.487-6.089-13.577-13.576-13.577v2c6.382 0 11.576 5.194 11.576 11.577zm0 13.331v-13.331h-2v13.331zm-7.791 1h6.791v-2h-6.791zm1 4.305v-5.305h-2v5.305zm-8.49-2.627 7.043 3.522.894-1.789-7.043-3.522zm-.55-.819 1.994-.15zm-3.017-.964 3.567 1.783.894-1.789-3.567-1.783zm-7.305.105h7.752v-2h-7.752z" fill="#fff" mask="url(#i)"/><path clip-rule="evenodd" d="m323.319 278.578 1.087-.001 4.308 11.415-2.353.888-1.023-2.71h-2.019v.001h-2.011l-1.033 2.712-2.351-.895 4.345-11.408 1.05-.001zm0 4.311v.001l-1.053 2.765h.81.001 1.312l-1.057-2.8z" fill="#fff" fill-rule="evenodd"/><circle cx="82.7659" cy="307.766" fill="#fff" r="7.19047"/><path clip-rule="evenodd" d="m75 307.983c0-4.409 3.5822-7.983 8.0011-7.983 4.417.005 7.9965 3.576 8.0012 7.983 0 4.409-3.5823 7.983-8.0012 7.983s-8.0011-3.574-8.0011-7.983zm6.6904 3.254 5.7151-5.702c.2139-.221.2139-.571 0-.792-.2193-.227-.581-.233-.8081-.014l-5.3111 5.299-1.882-1.878c-.0046-.005-.0093-.009-.014-.014-.2271-.219-.5889-.213-.8081.014-.2193.226-.213.587.014.806l2.2861 2.281c.2232.223.5849.223.8081 0z" fill="url(#g)" fill-rule="evenodd"/></svg>