<svg fill="none" height="396" viewBox="0 0 337 396" width="337" xmlns="http://www.w3.org/2000/svg" xmlns:xlink="http://www.w3.org/1999/xlink"><filter id="a" color-interpolation-filters="sRGB" filterUnits="userSpaceOnUse" height="119" width="119" x="218" y="52"><feFlood flood-opacity="0" result="BackgroundImageFix"/><feColorMatrix in="SourceAlpha" result="hardAlpha" type="matrix" values="0 0 0 0 0 0 0 0 0 0 0 0 0 0 0 0 0 0 127 0"/><feOffset dy="9"/><feGaussianBlur stdDeviation="15"/><feColorMatrix type="matrix" values="0 0 0 0 0.061493 0 0 0 0 0.165229 0 0 0 0 0.320833 0 0 0 0.25 0"/><feBlend in2="BackgroundImageFix" mode="normal" result="effect1_dropShadow"/><feBlend in="SourceGraphic" in2="effect1_dropShadow" mode="normal" result="shape"/></filter><filter id="b" color-interpolation-filters="sRGB" filterUnits="userSpaceOnUse" height="119" width="119" x="0" y="202"><feFlood flood-opacity="0" result="BackgroundImageFix"/><feColorMatrix in="SourceAlpha" result="hardAlpha" type="matrix" values="0 0 0 0 0 0 0 0 0 0 0 0 0 0 0 0 0 0 127 0"/><feOffset dy="9"/><feGaussianBlur stdDeviation="15"/><feColorMatrix type="matrix" values="0 0 0 0 0.061493 0 0 0 0 0.165229 0 0 0 0 0.320833 0 0 0 0.25 0"/><feBlend in2="BackgroundImageFix" mode="normal" result="effect1_dropShadow"/><feBlend in="SourceGraphic" in2="effect1_dropShadow" mode="normal" result="shape"/></filter><filter id="c" color-interpolation-filters="sRGB" filterUnits="userSpaceOnUse" height="119" width="119" x="0" y="52"><feFlood flood-opacity="0" result="BackgroundImageFix"/><feColorMatrix in="SourceAlpha" result="hardAlpha" type="matrix" values="0 0 0 0 0 0 0 0 0 0 0 0 0 0 0 0 0 0 127 0"/><feOffset dy="9"/><feGaussianBlur stdDeviation="15"/><feColorMatrix type="matrix" values="0 0 0 0 0.061493 0 0 0 0 0.165229 0 0 0 0 0.320833 0 0 0 0.25 0"/><feBlend in2="BackgroundImageFix" mode="normal" result="effect1_dropShadow"/><feBlend in="SourceGraphic" in2="effect1_dropShadow" mode="normal" result="shape"/></filter><linearGradient id="d"><stop offset="0" stop-color="#85beff"/><stop offset="1" stop-color="#5183bb"/></linearGradient><linearGradient id="e" gradientUnits="userSpaceOnUse" x1="19.5" x2="19.5" xlink:href="#d" y1="373" y2="396"/><linearGradient id="f"><stop offset="0" stop-color="#b0e7c6"/><stop offset="1" stop-color="#5dd1b3"/></linearGradient><linearGradient id="g" gradientUnits="userSpaceOnUse" x1="160.5" x2="160.5" xlink:href="#f" y1="373" y2="396"/><linearGradient id="h"><stop offset="0" stop-color="#ffed49"/><stop offset="1" stop-color="#ffc369"/></linearGradient><linearGradient id="i" gradientUnits="userSpaceOnUse" x1="282.5" x2="282.5" xlink:href="#h" y1="378.62" y2="396"/><linearGradient id="j" gradientUnits="userSpaceOnUse" x1="104.763" x2="104.763" xlink:href="#f" y1="58" y2="193.528"/><linearGradient id="k" gradientUnits="userSpaceOnUse" x1="89.4111" x2="89.4111" xlink:href="#h" y1="221.682" y2="309.997"/><linearGradient id="l" gradientUnits="userSpaceOnUse" x1="205.745" x2="205.745" xlink:href="#d" y1="58.0225" y2="327.999"/><circle cx="19.5" cy="384.5" fill="url(#e)" r="11.5"/><path d="m45.842 388.858c.396 0 .72-.03.972-.09.264-.072.474-.162.63-.27.156-.12.264-.258.324-.414s.09-.33.09-.522c0-.408-.192-.744-.576-1.008-.384-.276-1.044-.57-1.98-.882-.408-.144-.816-.306-1.224-.486-.408-.192-.774-.426-1.098-.702-.324-.288-.588-.63-.792-1.026-.204-.408-.306-.9-.306-1.476s.108-1.092.324-1.548c.216-.468.522-.864.918-1.188s.876-.57 1.44-.738c.564-.18 1.2-.27 1.908-.27.84 0 1.566.09 2.178.27s1.116.378 1.512.594l-.81 2.214c-.348-.18-.738-.336-1.17-.468-.42-.144-.93-.216-1.53-.216-.672 0-1.158.096-1.458.288-.288.18-.432.462-.432.846 0 .228.054.42.162.576s.258.3.45.432c.204.12.432.234.684.342.264.096.552.198.864.306.648.24 1.212.48 1.692.72.48.228.876.498 1.188.81.324.312.564.678.72 1.098s.234.93.234 1.53c0 1.164-.408 2.07-1.224 2.718-.816.636-2.046.954-3.69.954-.552 0-1.05-.036-1.494-.108-.444-.06-.84-.138-1.188-.234-.336-.096-.63-.198-.882-.306-.24-.108-.444-.21-.612-.306l.792-2.232c.372.204.828.39 1.368.558.552.156 1.224.234 2.016.234zm6.8046-9.684 2.682-.432v2.79h3.222v2.232h-3.222v3.33c0 .564.096 1.014.288 1.35.204.336.606.504 1.206.504.288 0 .582-.024.882-.072.312-.06.594-.138.846-.234l.378 2.088c-.324.132-.684.246-1.08.342s-.882.144-1.458.144c-.732 0-1.338-.096-1.818-.288-.48-.204-.864-.48-1.152-.828-.288-.36-.492-.792-.612-1.296-.108-.504-.162-1.062-.162-1.674zm11.3544 9.954c.264 0 .516-.006.756-.018s.432-.03.576-.054v-2.034c-.108-.024-.27-.048-.486-.072s-.414-.036-.594-.036c-.252 0-.492.018-.72.054-.216.024-.408.078-.576.162s-.3.198-.396.342-.144.324-.144.54c0 .42.138.714.414.882.288.156.678.234 1.17.234zm-.216-7.848c.792 0 1.452.09 1.98.27s.948.438 1.26.774c.324.336.552.744.684 1.224s.198 1.014.198 1.602v5.58c-.384.084-.918.18-1.602.288-.684.12-1.512.18-2.484.18-.612 0-1.17-.054-1.674-.162-.492-.108-.918-.282-1.278-.522-.36-.252-.636-.576-.828-.972s-.288-.882-.288-1.458c0-.552.108-1.02.324-1.404.228-.384.528-.69.9-.918s.798-.39 1.278-.486c.48-.108.978-.162 1.494-.162.348 0 .654.018.918.054.276.024.498.06.666.108v-.252c0-.456-.138-.822-.414-1.098s-.756-.414-1.44-.414c-.456 0-.906.036-1.35.108-.444.06-.828.15-1.152.27l-.342-2.16c.156-.048.348-.096.576-.144.24-.06.498-.108.774-.144.276-.048.564-.084.864-.108.312-.036.624-.054.936-.054zm6.5473.576c.456-.132 1.044-.252 1.764-.36.72-.12 1.476-.18 2.268-.18.804 0 1.47.108 1.998.324.54.204.966.498 1.278.882s.534.84.666 1.368.198 1.116.198 1.764v5.346h-2.682v-5.022c0-.864-.114-1.476-.342-1.836s-.654-.54-1.278-.54c-.192 0-.396.012-.612.036-.216.012-.408.03-.576.054v7.308h-2.682zm12.8856 4.338c0 .828.186 1.494.558 1.998s.924.756 1.656.756c.24 0 .462-.006.666-.018.204-.024.372-.048.504-.072v-4.878c-.168-.108-.39-.198-.666-.27-.264-.072-.534-.108-.81-.108-1.272 0-1.908.864-1.908 2.592zm6.066 4.5c-.24.072-.516.144-.828.216-.312.06-.642.114-.99.162-.336.048-.684.084-1.044.108-.348.036-.684.054-1.008.054-.78 0-1.476-.114-2.088-.342s-1.128-.552-1.548-.972c-.42-.432-.744-.948-.972-1.548-.216-.612-.324-1.296-.324-2.052 0-.768.096-1.458.288-2.07.192-.624.468-1.152.828-1.584s.798-.762 1.314-.99c.528-.228 1.128-.342 1.8-.342.372 0 .702.036.99.108.3.072.6.174.9.306v-4.284l2.682-.432zm6.1293-1.566c.264 0 .516-.006.756-.018s.432-.03.576-.054v-2.034c-.108-.024-.27-.048-.486-.072s-.414-.036-.594-.036c-.252 0-.492.018-.72.054-.216.024-.408.078-.576.162s-.3.198-.396.342-.144.324-.144.54c0 .42.138.714.414.882.288.156.678.234 1.17.234zm-.216-7.848c.792 0 1.452.09 1.98.27s.948.438 1.26.774c.324.336.552.744.684 1.224s.198 1.014.198 1.602v5.58c-.384.084-.918.18-1.602.288-.684.12-1.512.18-2.484.18-.612 0-1.17-.054-1.674-.162-.492-.108-.918-.282-1.278-.522-.36-.252-.636-.576-.828-.972s-.288-.882-.288-1.458c0-.552.108-1.02.324-1.404.228-.384.528-.69.9-.918s.798-.39 1.278-.486c.48-.108.978-.162 1.494-.162.348 0 .654.018.918.054.276.024.498.06.666.108v-.252c0-.456-.138-.822-.414-1.098s-.756-.414-1.44-.414c-.456 0-.906.036-1.35.108-.444.06-.828.15-1.152.27l-.342-2.16c.156-.048.348-.096.576-.144.24-.06.498-.108.774-.144.276-.048.564-.084.864-.108.312-.036.624-.054.936-.054zm12.2528 2.628c-.24-.06-.522-.12-.846-.18-.324-.072-.672-.108-1.044-.108-.168 0-.372.018-.612.054-.228.024-.402.054-.522.09v7.236h-2.682v-8.964c.48-.168 1.044-.324 1.692-.468.66-.156 1.392-.234 2.196-.234.144 0 .318.012.522.036.204.012.408.036.612.072.204.024.408.06.612.108.204.036.378.084.522.144zm3.998 2.286c0 .828.186 1.494.558 1.998s.924.756 1.656.756c.24 0 .462-.006.666-.018.204-.024.372-.048.504-.072v-4.878c-.168-.108-.39-.198-.666-.27-.264-.072-.534-.108-.81-.108-1.272 0-1.908.864-1.908 2.592zm6.066 4.5c-.24.072-.516.144-.828.216-.312.06-.642.114-.99.162-.336.048-.684.084-1.044.108-.348.036-.684.054-1.008.054-.78 0-1.476-.114-2.088-.342s-1.128-.552-1.548-.972c-.42-.432-.744-.948-.972-1.548-.216-.612-.324-1.296-.324-2.052 0-.768.096-1.458.288-2.07.192-.624.468-1.152.828-1.584s.798-.762 1.314-.99c.528-.228 1.128-.342 1.8-.342.372 0 .702.036.99.108.3.072.6.174.9.306v-4.284l2.682-.432z" fill="#004e82"/><circle cx="160.5" cy="384.5" fill="url(#g)" r="11.5"/><path d="m183.44 391v-12.474h8.424v2.358h-5.616v2.448h4.986v2.304h-4.986v3.006h6.03v2.358zm14.885-6.588 1.872-2.88h2.772l-3.24 4.554c.72.9 1.374 1.776 1.962 2.628s1.056 1.614 1.404 2.286h-2.88c-.096-.18-.216-.402-.36-.666-.144-.276-.306-.558-.486-.846-.18-.3-.372-.594-.576-.882-.192-.3-.384-.57-.576-.81-.18.228-.366.48-.558.756-.18.276-.354.558-.522.846-.168.276-.336.552-.504.828-.156.276-.294.534-.414.774h-2.736c.144-.3.342-.654.594-1.062s.522-.828.81-1.26c.3-.444.612-.882.936-1.314.324-.444.642-.858.954-1.242-.54-.756-1.08-1.518-1.62-2.286-.54-.78-1.074-1.548-1.602-2.304h2.898zm12.271 1.926c0-.828-.186-1.488-.558-1.98-.372-.504-.924-.756-1.656-.756-.24 0-.462.012-.666.036-.204.012-.372.03-.504.054v4.842c.168.108.384.198.648.27.276.072.552.108.828.108 1.272 0 1.908-.858 1.908-2.574zm2.736-.072c0 .732-.09 1.398-.27 1.998s-.444 1.116-.792 1.548-.78.768-1.296 1.008-1.11.36-1.782.36c-.372 0-.72-.036-1.044-.108s-.636-.174-.936-.306v3.564h-2.682v-12.474c.24-.072.516-.138.828-.198.312-.072.636-.132.972-.18.348-.048.696-.084 1.044-.108.36-.036.702-.054 1.026-.054.78 0 1.476.12 2.088.36.612.228 1.128.558 1.548.99.42.42.738.936.954 1.548.228.612.342 1.296.342 2.052zm1.611.072c0-.84.126-1.572.378-2.196.264-.636.606-1.164 1.026-1.584s.9-.738 1.44-.954c.552-.216 1.116-.324 1.692-.324 1.344 0 2.406.414 3.186 1.242.78.816 1.17 2.022 1.17 3.618 0 .156-.006.33-.018.522-.012.18-.024.342-.036.486h-6.084c.06.552.318.99.774 1.314s1.068.486 1.836.486c.492 0 .972-.042 1.44-.126.48-.096.87-.21 1.17-.342l.36 2.178c-.144.072-.336.144-.576.216s-.51.132-.81.18c-.288.06-.6.108-.936.144s-.672.054-1.008.054c-.852 0-1.596-.126-2.232-.378-.624-.252-1.146-.594-1.566-1.026-.408-.444-.714-.966-.918-1.566-.192-.6-.288-1.248-.288-1.944zm6.3-1.026c-.012-.228-.054-.45-.126-.666-.06-.216-.162-.408-.306-.576-.132-.168-.306-.306-.522-.414-.204-.108-.462-.162-.774-.162-.3 0-.558.054-.774.162-.216.096-.396.228-.54.396s-.258.366-.342.594c-.072.216-.126.438-.162.666zm10.368-1.404c-.24-.06-.522-.12-.846-.18-.324-.072-.672-.108-1.044-.108-.168 0-.372.018-.612.054-.228.024-.402.054-.522.09v7.236h-2.682v-8.964c.48-.168 1.044-.324 1.692-.468.66-.156 1.392-.234 2.196-.234.144 0 .318.012.522.036.204.012.408.036.612.072.204.024.408.06.612.108.204.036.378.084.522.144zm1.797-4.734 2.682-.432v2.79h3.222v2.232h-3.222v3.33c0 .564.096 1.014.288 1.35.204.336.606.504 1.206.504.288 0 .582-.024.882-.072.312-.06.594-.138.846-.234l.378 2.088c-.324.132-.684.246-1.08.342s-.882.144-1.458.144c-.732 0-1.338-.096-1.818-.288-.48-.204-.864-.48-1.152-.828-.288-.36-.492-.792-.612-1.296-.108-.504-.162-1.062-.162-1.674z" fill="#004e82"/><path d="m136.866 17c-.546-1.16-1.086-2.3667-1.62-3.62-.533-1.2533-1.04-2.4933-1.52-3.72-.48-1.22667-.926-2.4-1.34-3.52-.4-1.12-.746-2.12-1.04-3h3.44c.267.8.554 1.66667.86 2.6.32.92.64 1.84.96 2.76.334.92.654 1.8.96 2.64.307.84.594 1.5667.86 2.18.254-.6133.534-1.34.84-2.18.32-.84.64-1.72.96-2.64.334-.92.654-1.84.96-2.76.32-.93333.614-1.8.88-2.6h3.32c-.306.88-.66 1.88-1.06 3s-.84 2.29333-1.32 3.52c-.48 1.2267-.986 2.4667-1.52 3.72-.533 1.2533-1.073 2.46-1.62 3.62zm8.52-5.18c0-.9333.14-1.7467.42-2.44.294-.70667.674-1.29333 1.14-1.76.467-.46667 1-.82 1.6-1.06.614-.24 1.24-.36 1.88-.36 1.494 0 2.674.46 3.54 1.38.867.90667 1.3 2.24667 1.3 4.02 0 .1733-.006.3667-.02.58-.013.2-.026.38-.04.54h-6.76c.067.6133.354 1.1.86 1.46.507.36 1.187.54 2.04.54.547 0 1.08-.0467 1.6-.14.534-.1067.967-.2333 1.3-.38l.4 2.42c-.16.08-.373.16-.64.24-.266.08-.566.1467-.9.2-.32.0667-.666.12-1.04.16-.373.04-.746.06-1.12.06-.946 0-1.773-.14-2.48-.42-.693-.28-1.273-.66-1.74-1.14-.453-.4933-.793-1.0733-1.02-1.74-.213-.6667-.32-1.3867-.32-2.16zm7-1.14c-.013-.2533-.06-.5-.14-.74-.066-.24-.18-.45333-.34-.64-.146-.18667-.34-.34-.58-.46-.226-.12-.513-.18-.86-.18-.333 0-.62.06-.86.18-.24.10667-.44.25333-.6.44s-.286.40667-.38.66c-.08.24-.14.4867-.18.74zm11.52-1.56c-.267-.06667-.58-.13333-.94-.2-.36-.08-.747-.12-1.16-.12-.187 0-.413.02-.68.06-.253.02667-.447.06-.58.1v8.04h-2.98v-9.96c.533-.18667 1.16-.36 1.88-.52.733-.17333 1.547-.26 2.44-.26.16 0 .353.01333.58.04.227.01333.453.04.68.08.227.02667.453.06667.68.12.227.04.42.09333.58.16zm4.442 2.54c0 .92.207 1.66.62 2.22.414.56 1.027.84 1.84.84.267 0 .514-.0067.74-.02.227-.0267.414-.0533.56-.08v-5.42c-.186-.12-.433-.22-.74-.3-.293-.08-.593-.12-.9-.12-1.413 0-2.12.96-2.12 2.88zm6.74 5c-.266.08-.573.16-.92.24-.346.0667-.713.1267-1.1.18-.373.0533-.76.0933-1.16.12-.386.04-.76.06-1.12.06-.866 0-1.64-.1267-2.32-.38s-1.253-.6133-1.72-1.08c-.466-.48-.826-1.0533-1.08-1.72-.24-.68-.36-1.44-.36-2.28 0-.8533.107-1.62.32-2.3.214-.69333.52-1.28.92-1.76s.887-.84667 1.46-1.1c.587-.25333 1.254-.38 2-.38.414 0 .78.04 1.1.12.334.08.667.19333 1 .34v-4.76l2.98-.48zm5.771.34h-2.98v-10.52h2.98zm.28-13.56c0 .54667-.18.98-.54 1.3-.347.30667-.76.46-1.24.46s-.9-.15333-1.26-.46c-.347-.32-.52-.75333-.52-1.3s.173-.97333.52-1.28c.36-.32.78-.48 1.26-.48s.893.16 1.24.48c.36.30667.54.73333.54 1.28zm2.021 8.3c0-.76.12-1.4733.36-2.14.253-.68.613-1.26667 1.08-1.76.466-.50667 1.033-.90667 1.7-1.2.666-.29333 1.426-.44 2.28-.44.56 0 1.073.05333 1.54.16.466.09333.92.23333 1.36.42l-.62 2.38c-.28-.10667-.587-.2-.92-.28-.334-.08-.707-.12-1.12-.12-.88 0-1.54.27333-1.98.82-.427.5467-.64 1.2667-.64 2.16 0 .9467.2 1.68.6 2.2.413.52 1.126.78 2.14.78.36 0 .746-.0333 1.16-.1.413-.0667.793-.1733 1.14-.32l.42 2.44c-.347.1467-.78.2733-1.3.38s-1.094.16-1.72.16c-.96 0-1.787-.14-2.48-.42-.694-.2933-1.267-.6867-1.72-1.18-.44-.4933-.767-1.0733-.98-1.74-.2-.68-.3-1.4133-.3-2.2zm10.4-7.88 2.98-.48v3.1h3.58v2.48h-3.58v3.7c0 .6267.106 1.1267.32 1.5.226.3733.673.56 1.34.56.32 0 .646-.0267.98-.08.346-.0667.66-.1533.94-.26l.42 2.32c-.36.1467-.76.2733-1.2.38s-.98.16-1.62.16c-.814 0-1.487-.1067-2.02-.32-.534-.2267-.96-.5333-1.28-.92-.32-.4-.547-.88-.68-1.44-.12-.56-.18-1.18-.18-1.86zm12.006 11c.547 0 .934-.0533 1.16-.16.227-.1067.34-.3133.34-.62 0-.24-.146-.4467-.44-.62-.293-.1867-.74-.3933-1.34-.62-.466-.1733-.893-.3533-1.28-.54-.373-.1867-.693-.4067-.96-.66-.266-.2667-.473-.58-.62-.94-.146-.36-.22-.79333-.22-1.3 0-.98667.367-1.76667 1.1-2.34.734-.57333 1.74-.86 3.02-.86.64 0 1.254.06 1.84.18.587.10667 1.054.22667 1.4.36l-.52 2.32c-.346-.12-.726-.22667-1.14-.32-.4-.09333-.853-.14-1.36-.14-.933 0-1.4.26-1.4.78 0 .12.02.22667.06.32s.12.18667.24.28c.12.08.28.1733.48.28.214.0933.48.2.8.32.654.24 1.194.48 1.62.72.427.2267.76.48 1 .76.254.2667.427.5667.52.9.107.3333.16.72.16 1.16 0 1.04-.393 1.8267-1.18 2.36-.773.5333-1.873.8-3.3.8-.933 0-1.713-.08-2.34-.24-.613-.16-1.04-.2933-1.28-.4l.5-2.42c.507.2 1.027.36 1.56.48.534.1067 1.06.16 1.58.16z" fill="#004e82"/><circle cx="282.5" cy="384.5" fill="url(#i)" r="11.5"/><path d="m309.598 391.162c-.684 0-1.368-.024-2.052-.072-.672-.036-1.374-.132-2.106-.288v-12.096c.576-.108 1.206-.186 1.89-.234.684-.06 1.32-.09 1.908-.09.792 0 1.518.06 2.178.18.672.108 1.248.3 1.728.576s.852.642 1.116 1.098c.276.444.414.996.414 1.656 0 .996-.48 1.782-1.44 2.358.792.3 1.332.708 1.62 1.224s.432 1.098.432 1.746c0 1.308-.48 2.292-1.44 2.952-.948.66-2.364.99-4.248.99zm-1.422-5.598v3.222c.204.024.426.042.666.054s.504.018.792.018c.84 0 1.518-.12 2.034-.36s.774-.684.774-1.332c0-.576-.216-.984-.648-1.224-.432-.252-1.05-.378-1.854-.378zm0-2.142h1.368c.864 0 1.482-.108 1.854-.324.372-.228.558-.588.558-1.08 0-.504-.192-.858-.576-1.062s-.948-.306-1.692-.306c-.24 0-.498.006-.774.018-.276 0-.522.012-.738.036zm12.796 5.706c.264 0 .516-.006.756-.018s.432-.03.576-.054v-2.034c-.108-.024-.27-.048-.486-.072s-.414-.036-.594-.036c-.252 0-.492.018-.72.054-.216.024-.408.078-.576.162s-.3.198-.396.342-.144.324-.144.54c0 .42.138.714.414.882.288.156.678.234 1.17.234zm-.216-7.848c.792 0 1.452.09 1.98.27s.948.438 1.26.774c.324.336.552.744.684 1.224s.198 1.014.198 1.602v5.58c-.384.084-.918.18-1.602.288-.684.12-1.512.18-2.484.18-.612 0-1.17-.054-1.674-.162-.492-.108-.918-.282-1.278-.522-.36-.252-.636-.576-.828-.972s-.288-.882-.288-1.458c0-.552.108-1.02.324-1.404.228-.384.528-.69.9-.918s.798-.39 1.278-.486c.48-.108.978-.162 1.494-.162.348 0 .654.018.918.054.276.024.498.06.666.108v-.252c0-.456-.138-.822-.414-1.098s-.756-.414-1.44-.414c-.456 0-.906.036-1.35.108-.444.06-.828.15-1.152.27l-.342-2.16c.156-.048.348-.096.576-.144.24-.06.498-.108.774-.144.276-.048.564-.084.864-.108.312-.036.624-.054.936-.054zm8.833 4.914c0 .828.186 1.494.558 1.998s.924.756 1.656.756c.24 0 .462-.006.666-.018.204-.024.372-.048.504-.072v-4.878c-.168-.108-.39-.198-.666-.27-.264-.072-.534-.108-.81-.108-1.272 0-1.908.864-1.908 2.592zm6.066 4.5c-.24.072-.516.144-.828.216-.312.06-.642.114-.99.162-.336.048-.684.084-1.044.108-.348.036-.684.054-1.008.054-.78 0-1.476-.114-2.088-.342s-1.128-.552-1.548-.972c-.42-.432-.744-.948-.972-1.548-.216-.612-.324-1.296-.324-2.052 0-.768.096-1.458.288-2.07.192-.624.468-1.152.828-1.584s.798-.762 1.314-.99c.528-.228 1.128-.342 1.8-.342.372 0 .702.036.99.108.3.072.6.174.9.306v-4.284l2.682-.432z" fill="#004e82"/><g clip-rule="evenodd" fill-rule="evenodd"><path d="m172.508 58 .019.0226v75.0364h-.206c-10.954 0-21.227 2.915-30.085 8.012-9 5.179-16.54 12.609-21.85 21.523l-.415.707-.436.768-.508.93-.483.922-.452.899-.247.506-.199.42c-3.565 7.564-5.605 15.988-5.725 24.875l-.006.906-74.915.001c0-24.68 6.5986-47.818 18.1281-67.748l.029-.005c12.3416-21.373 29.6272-38.1123 49.5789-49.6083l.027.0102c21.377-12.3397 44.717-18.1952 67.745-18.1769z" fill="url(#j)"/><path d="m111.585 193.528-.002-.402c0 10.76 2.827 20.859 7.779 29.596l.561.968c5.301 8.96 12.862 16.425 21.899 21.61l-37.357 64.697c-21.2748-12.283-37.9384-29.483-49.3816-49.338l.0101-.027c-12.2264-21.177-18.0589-44.29-18.0935-67.104z" fill="url(#k)"/><path d="m119.923 223.69-.29-.499.063-.036.212.36m21.914 21.785c8.812 5.055 19.033 7.787 29.92 7.787l.996-.008c10.387-.169 20.135-2.968 28.605-7.76l.595-.34c8.908-5.176 16.367-12.57 21.617-21.427l.336-.575c4.981-8.617 7.885-18.584 8.029-29.218l.006-.833c0-4.928-.593-9.717-1.711-14.301-1.355-5.556-3.482-10.809-6.261-15.641-5.252-9.131-12.832-16.754-21.93-22.06-8.64-5.038-18.647-7.986-29.33-8.151l-.167-.002-.001-74.7485h-.579c24.592 0 47.649 6.5718 67.508 18.0544l.005.0289c21.298 12.2914 37.979 29.5072 49.434 49.3772l-.01.027c12.296 21.29 18.131 44.536 18.115 67.469l-.025.019c0 24.583-6.574 47.631-18.061 67.483l-.029.005c-12.296 21.29-29.518 37.964-49.396 49.415l-.028-.01c-21.297 12.291-44.552 18.124-67.494 18.107l-.019-.024c-24.571 0-47.608-6.56-67.456-18.024z" fill="url(#l)"/></g><g filter="url(#a)"><rect fill="#fff" height="59" rx="29.5" width="59" x="248" y="73"/></g><path d="m262.48 102.48c-.293 0-.607.027-.94.08s-.593.127-.78.22c0 .053-.007.133-.02.24v.28c0 .48.033.933.1 1.36s.18.8.34 1.12.373.573.64.76c.267.173.6.26 1 .26.333 0 .613-.067.84-.2.24-.147.433-.327.58-.54.16-.213.273-.447.34-.7.08-.267.12-.52.12-.76 0-.68-.173-1.2-.52-1.56-.333-.373-.9-.56-1.7-.56zm.38-2.32c.867 0 1.6.12 2.2.36.613.227 1.113.54 1.5.94s.667.867.84 1.4.26 1.1.26 1.7c0 .533-.1 1.08-.3 1.64-.187.56-.48 1.067-.88 1.52-.387.453-.887.827-1.5 1.12-.6.293-1.313.44-2.14.44-1.667 0-2.933-.527-3.8-1.58s-1.3-2.507-1.3-4.36c0-1.333.207-2.513.62-3.54.413-1.0267 1-1.8867 1.76-2.58.773-.7067 1.7-1.24 2.78-1.6 1.093-.3733 2.32-.5667 3.68-.58.027.4133.053.82.08 1.22.027.3867.053.7933.08 1.22-.68.0133-1.32.08-1.92.2-.587.1067-1.127.28-1.62.52-.48.24-.9.5533-1.26.94-.36.3733-.64.8333-.84 1.38.293-.133.593-.227.9-.28s.593-.08.86-.08zm11.887-1.38c-.52.68-1.073 1.42-1.66 2.22-.586.8-1.08 1.62-1.48 2.46h3.14zm2.92-3.64v8.32h1.48v2.44h-1.48v3.1h-2.92v-3.1h-5.98v-2.18c.294-.587.66-1.247 1.1-1.98.44-.747.927-1.507 1.46-2.28.547-.7867 1.12-1.5533 1.72-2.3s1.2-1.42 1.8-2.02zm9.847 3.56c0 1.2533-.32 2.213-.96 2.88s-1.5 1-2.58 1-1.94-.333-2.58-1-.96-1.6267-.96-2.88.32-2.2133.96-2.88 1.5-1 2.58-1 1.94.3333 2.58 1 .96 1.6267.96 2.88zm-2.26 0c0-.68-.12-1.1733-.36-1.48s-.546-.46-.92-.46c-.386 0-.7.1533-.94.46-.226.3067-.34.8-.34 1.48s.114 1.18.34 1.5c.24.307.554.46.94.46.374 0 .68-.153.92-.46.24-.32.36-.82.36-1.5zm6.16-3.56h2.78l-7.82 13.86h-2.78zm5.98 10.3c0 1.253-.32 2.213-.96 2.88s-1.5 1-2.58 1-1.94-.333-2.58-1-.96-1.627-.96-2.88.32-2.213.96-2.88 1.5-1 2.58-1 1.94.333 2.58 1 .96 1.627.96 2.88zm-2.26 0c0-.68-.12-1.173-.36-1.48s-.546-.46-.92-.46c-.386 0-.7.153-.94.46-.226.307-.34.8-.34 1.48s.114 1.18.34 1.5c.24.307.554.46.94.46.374 0 .68-.153.92-.46.24-.32.36-.82.36-1.5z" fill="#004e82"/><g filter="url(#b)"><rect fill="#fff" height="59" rx="29.5" width="59" x="30" y="223"/></g><path d="m44.48 252.48c-.2933 0-.6067.027-.94.08s-.5933.127-.78.22c0 .053-.0067.133-.02.24v.28c0 .48.0333.933.1 1.36s.18.8.34 1.12.3733.573.64.76c.2667.173.6.26 1 .26.3333 0 .6133-.067.84-.2.24-.147.4333-.327.58-.54.16-.213.2733-.447.34-.7.08-.267.12-.52.12-.76 0-.68-.1733-1.2-.52-1.56-.3333-.373-.9-.56-1.7-.56zm.38-2.32c.8667 0 1.6.12 2.2.36.6133.227 1.1133.54 1.5.94s.6667.867.84 1.4.26 1.1.26 1.7c0 .533-.1 1.08-.3 1.64-.1867.56-.48 1.067-.88 1.52-.3867.453-.8867.827-1.5 1.12-.6.293-1.3133.44-2.14.44-1.6667 0-2.9333-.527-3.8-1.58s-1.3-2.507-1.3-4.36c0-1.333.2067-2.513.62-3.54s1-1.887 1.76-2.58c.7733-.707 1.7-1.24 2.78-1.6 1.0933-.373 2.32-.567 3.68-.58.0267.413.0533.82.08 1.22.0267.387.0533.793.08 1.22-.68.013-1.32.08-1.92.2-.5867.107-1.1267.28-1.62.52-.48.24-.9.553-1.26.94-.36.373-.64.833-.84 1.38.2933-.133.5933-.227.9-.28s.5933-.08.86-.08zm11.8872-1.38c-.52.68-1.0733 1.42-1.66 2.22s-1.08 1.62-1.48 2.46h3.14zm2.92-3.64v8.32h1.48v2.44h-1.48v3.1h-2.92v-3.1h-5.98v-2.18c.2933-.587.66-1.247 1.1-1.98.44-.747.9267-1.507 1.46-2.28.5467-.787 1.12-1.553 1.72-2.3s1.2-1.42 1.8-2.02zm9.8472 3.56c0 1.253-.32 2.213-.96 2.88s-1.5 1-2.58 1-1.94-.333-2.58-1-.96-1.627-.96-2.88.32-2.213.96-2.88 1.5-1 2.58-1 1.94.333 2.58 1 .96 1.627.96 2.88zm-2.26 0c0-.68-.12-1.173-.36-1.48s-.5467-.46-.92-.46c-.3867 0-.7.153-.94.46-.2267.307-.34.8-.34 1.48s.1133 1.18.34 1.5c.24.307.5533.46.94.46.3733 0 .68-.153.92-.46.24-.32.36-.82.36-1.5zm6.16-3.56h2.78l-7.82 13.86h-2.78zm5.98 10.3c0 1.253-.32 2.213-.96 2.88s-1.5 1-2.58 1-1.94-.333-2.58-1-.96-1.627-.96-2.88.32-2.213.96-2.88 1.5-1 2.58-1 1.94.333 2.58 1 .96 1.627.96 2.88zm-2.26 0c0-.68-.12-1.173-.36-1.48s-.5467-.46-.92-.46c-.3867 0-.7.153-.94.46-.2267.307-.34.8-.34 1.48s.1133 1.18.34 1.5c.24.307.5533.46.94.46.3733 0 .68-.153.92-.46.24-.32.36-.82.36-1.5z" fill="#004e82"/><g filter="url(#c)"><rect fill="#fff" height="59" rx="29.5" width="59" x="30" y="73"/></g><path d="m44.48 102.48c-.2933 0-.6067.027-.94.08s-.5933.127-.78.22c0 .053-.0067.133-.02.24v.28c0 .48.0333.933.1 1.36s.18.8.34 1.12.3733.573.64.76c.2667.173.6.26 1 .26.3333 0 .6133-.067.84-.2.24-.147.4333-.327.58-.54.16-.213.2733-.447.34-.7.08-.267.12-.52.12-.76 0-.68-.1733-1.2-.52-1.56-.3333-.373-.9-.56-1.7-.56zm.38-2.32c.8667 0 1.6.12 2.2.36.6133.227 1.1133.54 1.5.94s.6667.867.84 1.4.26 1.1.26 1.7c0 .533-.1 1.08-.3 1.64-.1867.56-.48 1.067-.88 1.52-.3867.453-.8867.827-1.5 1.12-.6.293-1.3133.44-2.14.44-1.6667 0-2.9333-.527-3.8-1.58s-1.3-2.507-1.3-4.36c0-1.333.2067-2.513.62-3.54.4133-1.0267 1-1.8867 1.76-2.58.7733-.7067 1.7-1.24 2.78-1.6 1.0933-.3733 2.32-.5667 3.68-.58.0267.4133.0533.82.08 1.22.0267.3867.0533.7933.08 1.22-.68.0133-1.32.08-1.92.2-.5867.1067-1.1267.28-1.62.52-.48.24-.9.5533-1.26.94-.36.3733-.64.8333-.84 1.38.2933-.133.5933-.227.9-.28s.5933-.08.86-.08zm11.8872-1.38c-.52.68-1.0733 1.42-1.66 2.22s-1.08 1.62-1.48 2.46h3.14zm2.92-3.64v8.32h1.48v2.44h-1.48v3.1h-2.92v-3.1h-5.98v-2.18c.2933-.587.66-1.247 1.1-1.98.44-.747.9267-1.507 1.46-2.28.5467-.7867 1.12-1.5533 1.72-2.3s1.2-1.42 1.8-2.02zm9.8472 3.56c0 1.2533-.32 2.213-.96 2.88s-1.5 1-2.58 1-1.94-.333-2.58-1-.96-1.6267-.96-2.88.32-2.2133.96-2.88 1.5-1 2.58-1 1.94.3333 2.58 1 .96 1.6267.96 2.88zm-2.26 0c0-.68-.12-1.1733-.36-1.48s-.5467-.46-.92-.46c-.3867 0-.7.1533-.94.46-.2267.3067-.34.8-.34 1.48s.1133 1.18.34 1.5c.24.307.5533.46.94.46.3733 0 .68-.153.92-.46.24-.32.36-.82.36-1.5zm6.16-3.56h2.78l-7.82 13.86h-2.78zm5.98 10.3c0 1.253-.32 2.213-.96 2.88s-1.5 1-2.58 1-1.94-.333-2.58-1-.96-1.627-.96-2.88.32-2.213.96-2.88 1.5-1 2.58-1 1.94.333 2.58 1 .96 1.627.96 2.88zm-2.26 0c0-.68-.12-1.173-.36-1.48s-.5467-.46-.92-.46c-.3867 0-.7.153-.94.46-.2267.307-.34.8-.34 1.48s.1133 1.18.34 1.5c.24.307.5533.46.94.46.3733 0 .68-.153.92-.46.24-.32.36-.82.36-1.5z" fill="#004e82"/></svg>