<svg width="358" height="160" viewBox="0 0 358 160" fill="none" xmlns="http://www.w3.org/2000/svg">
<g filter="url(#filter0_d)">
<rect width="154" height="90" rx="20" transform="matrix(1 0 0 -1 33 117)" fill="#F7FBFD"/>
</g>
<rect width="78" height="48.0698" transform="translate(71 54)" fill="#F7FBFD"/>
<path d="M80.1231 60.5867H71V57.2507H92.8701V60.5869H83.747V86.4202H80.1231V60.5867Z" fill="#004E82"/>
<path d="M117.852 54.385L121.262 54V86.4201H117.852V54.385Z" fill="#004E82"/>
<path fill-rule="evenodd" clip-rule="evenodd" d="M137.868 86.2916C138.99 85.8358 139.963 85.3078 140.788 84.709H140.788V96.2139L144.156 95.7863V65.676C143.502 65.676 142.947 65.6118 142.493 65.4835C142.038 65.3553 141.555 65.2203 141.044 65.0773C140.532 64.935 139.935 64.7993 139.253 64.671C138.571 64.5426 137.69 64.4785 136.61 64.4785C135.444 64.4785 134.244 64.7071 133.008 65.1629C131.771 65.6193 130.648 66.311 129.64 67.2372C128.63 68.1641 127.807 69.3403 127.167 70.7658C126.528 72.192 126.208 73.874 126.208 75.8127C126.208 77.8658 126.435 79.598 126.89 81.0093C127.344 82.4208 127.962 83.5689 128.744 84.4524C129.526 85.3366 130.435 85.9781 131.473 86.3771C132.51 86.7759 133.611 86.9758 134.777 86.9758C135.715 86.9758 136.744 86.7472 137.868 86.2916ZM137.079 83.6398C136.425 83.8684 135.785 83.982 135.16 83.982C134.25 83.982 133.469 83.7401 132.816 83.255C132.161 82.7705 131.607 82.1288 131.153 81.3304C130.698 80.5323 130.364 79.6342 130.151 78.6358C129.938 77.6379 129.831 76.6402 129.831 75.6418C129.831 74.5298 129.959 73.4819 130.215 72.4982C130.471 71.5144 130.876 70.645 131.43 69.8892C131.984 69.1341 132.688 68.542 133.54 68.1142C134.393 67.6866 135.416 67.4727 136.61 67.4727C137.377 67.4727 138.031 67.5088 138.571 67.5796C139.11 67.6511 139.537 67.7153 139.85 67.7721C140.219 67.8863 140.532 67.9859 140.788 68.0714V81.7152C140.162 82.1428 139.551 82.5138 138.955 82.8273C138.358 83.1414 137.732 83.412 137.079 83.6398Z" fill="#004E82"/>
<mask id="mask0" mask-type="alpha" maskUnits="userSpaceOnUse" x="90" y="63" width="24" height="24">
<ellipse cx="101.987" cy="74.7202" rx="11.6033" ry="11.5468" fill="white"/>
</mask>
<g mask="url(#mask0)">
<path d="M109.319 63.0679H113.655V86.6821H109.319V63.0679Z" fill="#B6CA94"/>
<path d="M106.429 63.0679H109.343V86.6755H106.429V63.0679Z" fill="#8CAB62"/>
<path d="M103.539 63.0679H106.454V86.6821H103.539V63.0679Z" fill="#A1BC78"/>
<path d="M101.756 63.0679H103.562V86.6821H101.756V63.0679Z" fill="#D9E5C5"/>
<path d="M96.8904 63.0679H101.804V86.6821H96.8904V63.0679Z" fill="#B6CEB8"/>
<path d="M94.0818 63.0679H96.9964V86.6821H94.0818V63.0679Z" fill="#B9CFE4"/>
<path d="M92.3623 63.0679H94.0968V86.6755H92.3623V63.0679Z" fill="#5183BB"/>
<path d="M90.3481 63.0679H92.3713V86.6755H90.3481V63.0679Z" fill="#2C66AB"/>
</g>
<path d="M262 70H187" stroke="#5183BB" stroke-width="1.5" stroke-dasharray="3 3"/>
<g filter="url(#filter1_d)">
<rect width="66" height="66" rx="20" transform="matrix(-1 0 0 1 321 37)" fill="url(#paint0_linear)"/>
</g>
<mask id="path-16-inside-1" fill="white">
<path fill-rule="evenodd" clip-rule="evenodd" d="M305.16 51.96V74.759H298.338L295.2 76.3284L295.199 76.3226V76.3285L289.001 79.4274V74.759H283.025V63.0275C283.025 56.9248 287.99 51.96 294.092 51.96H295.199V51.9661L295.2 51.96H305.16Z"/>
</mask>
<path fill-rule="evenodd" clip-rule="evenodd" d="M305.16 51.96V74.759H298.338L295.2 76.3284L295.199 76.3226V76.3285L289.001 79.4274V74.759H283.025V63.0275C283.025 56.9248 287.99 51.96 294.092 51.96H295.199V51.9661L295.2 51.96H305.16Z" fill="#6EA4E1"/>
<path d="M305.16 74.759V75.759H306.16V74.759H305.16ZM305.16 51.96H306.16V50.96H305.16V51.96ZM298.338 74.759V73.759H298.102L297.891 73.8646L298.338 74.759ZM295.2 76.3284L294.201 76.3903L294.295 77.8988L295.647 77.2229L295.2 76.3284ZM295.199 76.3226L296.197 76.2607L294.199 76.3226H295.199ZM295.199 76.3285L295.646 77.2229L296.199 76.9465V76.3285H295.199ZM289.001 79.4274H288.001V81.0454L289.449 80.3218L289.001 79.4274ZM289.001 74.759H290.001V73.759H289.001V74.759ZM283.025 74.759H282.025V75.759H283.025V74.759ZM295.199 51.96H296.199V50.96H295.199V51.96ZM295.199 51.9661H294.199L296.197 52.0252L295.199 51.9661ZM295.2 51.96V50.96H294.257L294.201 51.9008L295.2 51.96ZM306.16 74.759V51.96H304.16V74.759H306.16ZM298.338 75.759H305.16V73.759H298.338V75.759ZM295.647 77.2229L298.786 75.6534L297.891 73.8646L294.752 75.434L295.647 77.2229ZM294.201 76.3844L294.201 76.3903L296.198 76.2666L296.197 76.2607L294.201 76.3844ZM296.199 76.3285V76.3226H294.199V76.3285H296.199ZM289.449 80.3218L295.646 77.2229L294.752 75.4341L288.554 78.533L289.449 80.3218ZM288.001 74.759V79.4274H290.001V74.759H288.001ZM283.025 75.759H289.001V73.759H283.025V75.759ZM282.025 63.0275V74.759H284.025V63.0275H282.025ZM294.092 50.96C287.438 50.96 282.025 56.3725 282.025 63.0275H284.025C284.025 57.4771 288.542 52.96 294.092 52.96V50.96ZM295.199 50.96H294.092V52.96H295.199V50.96ZM296.199 51.9661V51.96H294.199V51.9661H296.199ZM294.201 51.9008L294.201 51.907L296.197 52.0252L296.198 52.0191L294.201 51.9008ZM305.16 50.96H295.2V52.96H305.16V50.96Z" fill="white" mask="url(#path-16-inside-1)"/>
<path fill-rule="evenodd" clip-rule="evenodd" d="M301.054 60.3769V62.5903H299.068C298.915 64.2497 298.247 65.7615 297.136 66.9648C298.095 67.3456 299.196 67.5483 300.374 67.5483V69.7618C298.451 69.7618 296.665 69.3163 295.199 68.4881V68.4881C293.734 69.3163 291.948 69.7618 290.025 69.7618H289.205V67.5483H290.025C291.203 67.5483 292.303 67.3457 293.263 66.9649C292.152 65.7615 291.484 64.2498 291.331 62.5904H289.344V60.3769H294.093V58.104H295.199L295.199 58.104H296.306V60.3769H301.054ZM295.199 65.7719L295.199 65.7719C296.125 64.9205 296.684 63.834 296.841 62.5904H295.199V62.5904H293.558C293.715 63.834 294.274 64.9205 295.199 65.7719Z" fill="white"/>
<mask id="path-19-inside-2" fill="white">
<path fill-rule="evenodd" clip-rule="evenodd" d="M279.04 62.2158H280.147C286.25 62.2158 291.215 67.1807 291.215 73.2833V85.0149H285.238V89.6832L279.041 86.5843L279.04 86.5843L275.902 85.0149H269.08V62.2159H279.04L279.04 62.2158Z"/>
</mask>
<path fill-rule="evenodd" clip-rule="evenodd" d="M279.04 62.2158H280.147C286.25 62.2158 291.215 67.1807 291.215 73.2833V85.0149H285.238V89.6832L279.041 86.5843L279.04 86.5843L275.902 85.0149H269.08V62.2159H279.04L279.04 62.2158Z" fill="#659AD5"/>
<path d="M279.04 62.2158V61.2158H278.101L278.042 62.1534L279.04 62.2158ZM291.215 85.0149V86.0149H292.215V85.0149H291.215ZM285.238 85.0149V84.0149H284.238V85.0149H285.238ZM285.238 89.6832L284.791 90.5776L286.238 91.3012V89.6832H285.238ZM279.041 86.5843L279.488 85.6899L279.48 85.6862L279.473 85.6825L279.041 86.5843ZM279.04 86.5843L278.593 87.4787L278.601 87.4825L278.608 87.4861L279.04 86.5843ZM275.902 85.0149L276.349 84.1205L276.138 84.0149H275.902V85.0149ZM269.08 85.0149H268.08V86.0149H269.08V85.0149ZM269.08 62.2159V61.2159H268.08V62.2159H269.08ZM279.04 62.2159V63.2159H279.98L280.039 62.2782L279.04 62.2159ZM280.147 61.2158H279.04V63.2158H280.147V61.2158ZM292.215 73.2833C292.215 66.6284 286.802 61.2158 280.147 61.2158V63.2158C285.698 63.2158 290.215 67.733 290.215 73.2833H292.215ZM292.215 85.0149V73.2833H290.215V85.0149H292.215ZM285.238 86.0149H291.215V84.0149H285.238V86.0149ZM286.238 89.6832V85.0149H284.238V89.6832H286.238ZM278.593 87.4788L284.791 90.5776L285.685 88.7888L279.488 85.6899L278.593 87.4788ZM278.608 87.4861L278.608 87.4862L279.473 85.6825L279.473 85.6825L278.608 87.4861ZM275.455 85.9093L278.593 87.4787L279.488 85.6899L276.349 84.1205L275.455 85.9093ZM269.08 86.0149H275.902V84.0149H269.08V86.0149ZM268.08 62.2159V85.0149H270.08V62.2159H268.08ZM279.04 61.2159H269.08V63.2159H279.04V61.2159ZM278.042 62.1534L278.042 62.1535L280.039 62.2782L280.039 62.2782L278.042 62.1534Z" fill="white" mask="url(#path-19-inside-2)"/>
<path fill-rule="evenodd" clip-rule="evenodd" d="M279.041 68.3086L279.997 68.3076L283.788 78.3526L281.717 79.1341L280.817 76.7494H279.041L279.041 76.7492V76.7502H277.271L276.362 79.1368L274.293 78.3491L278.117 68.3104L279.04 68.3094L279.041 68.3086ZM279.041 72.1019V72.1031L278.114 74.5367H278.827L278.827 74.5359H279.982L279.052 72.0721L279.041 72.1022L279.041 72.1019Z" fill="white"/>
<g filter="url(#filter2_d)">
<rect width="19.4286" height="18.8018" rx="9.40092" transform="matrix(-1 0 0 1 196.428 61)" fill="url(#paint1_linear)"/>
</g>
<defs>
<filter id="filter0_d" x="0" y="0" width="224" height="160" filterUnits="userSpaceOnUse" color-interpolation-filters="sRGB">
<feFlood flood-opacity="0" result="BackgroundImageFix"/>
<feColorMatrix in="SourceAlpha" type="matrix" values="0 0 0 0 0 0 0 0 0 0 0 0 0 0 0 0 0 0 127 0" result="hardAlpha"/>
<feOffset dx="2" dy="8"/>
<feGaussianBlur stdDeviation="17.5"/>
<feColorMatrix type="matrix" values="0 0 0 0 0 0 0 0 0 0.351917 0 0 0 0 0.429167 0 0 0 0.15 0"/>
<feBlend mode="normal" in2="BackgroundImageFix" result="effect1_dropShadow"/>
<feBlend mode="normal" in="SourceGraphic" in2="effect1_dropShadow" result="shape"/>
</filter>
<filter id="filter1_d" x="222" y="10" width="136" height="136" filterUnits="userSpaceOnUse" color-interpolation-filters="sRGB">
<feFlood flood-opacity="0" result="BackgroundImageFix"/>
<feColorMatrix in="SourceAlpha" type="matrix" values="0 0 0 0 0 0 0 0 0 0 0 0 0 0 0 0 0 0 127 0" result="hardAlpha"/>
<feOffset dx="2" dy="8"/>
<feGaussianBlur stdDeviation="17.5"/>
<feColorMatrix type="matrix" values="0 0 0 0 0 0 0 0 0 0.351917 0 0 0 0 0.429167 0 0 0 0.15 0"/>
<feBlend mode="normal" in2="BackgroundImageFix" result="effect1_dropShadow"/>
<feBlend mode="normal" in="SourceGraphic" in2="effect1_dropShadow" result="shape"/>
</filter>
<filter id="filter2_d" x="147" y="40" width="79.4286" height="78.8018" filterUnits="userSpaceOnUse" color-interpolation-filters="sRGB">
<feFlood flood-opacity="0" result="BackgroundImageFix"/>
<feColorMatrix in="SourceAlpha" type="matrix" values="0 0 0 0 0 0 0 0 0 0 0 0 0 0 0 0 0 0 127 0" result="hardAlpha"/>
<feOffset dy="9"/>
<feGaussianBlur stdDeviation="15"/>
<feColorMatrix type="matrix" values="0 0 0 0 0.593438 0 0 0 0 0.707729 0 0 0 0 0.879167 0 0 0 0.25 0"/>
<feBlend mode="normal" in2="BackgroundImageFix" result="effect1_dropShadow"/>
<feBlend mode="normal" in="SourceGraphic" in2="effect1_dropShadow" result="shape"/>
</filter>
<linearGradient id="paint0_linear" x1="33" y1="0" x2="33" y2="66" gradientUnits="userSpaceOnUse">
<stop stop-color="#85BEFF"/>
<stop offset="1" stop-color="#5183BB"/>
</linearGradient>
<linearGradient id="paint1_linear" x1="9.71429" y1="0" x2="9.71429" y2="18.8018" gradientUnits="userSpaceOnUse">
<stop stop-color="#B0E7C6"/>
<stop offset="1" stop-color="#5DD1B3"/>
</linearGradient>
</defs>
</svg>
