<svg height="40" viewBox="0 0 40 40" width="40" xmlns="http://www.w3.org/2000/svg"><g fill="none" fill-rule="evenodd"><rect fill="#1c3c55" height="40" rx="7" width="40"/><path d="m14.8571429 4.64c-1.634336.00108774-3.0407053 1.15560199-3.3601565 2.75841397-.3194513 1.60281197.5368331 3.20828843 2.0458707 3.83587173-.355789.852898-1.1901552 1.4076388-2.1142857 1.4057143h-4.57142854c-.80566843.0033773-1.59543672.2245124-2.28571429.64v-6.56c1.57433907-.55661292 2.51871096-2.16647569 2.23633792-3.81226636-.28237304-1.64579066-1.70935631-2.84879321-3.37919506-2.84879321s-3.09682203 1.20300255-3.37919506 2.84879321c-.28237304 1.64579067.66199885 3.25565344 2.23633792 3.81226636v9.5542857c-1.55394791.558845-2.48873698 2.1460258-2.2239438 3.77604.26479318 1.6300143 1.6539251 2.8396779 3.30486463 2.8778941 1.65093954.0382162 3.09455651-1.1058746 3.43448928-2.7218905.33993276-1.6160159-.52041381-3.2447508-2.04683869-3.8749007.35418662-.8490622 1.18288566-1.4030295 2.10285715-1.4057143h4.57142854c2.1544304-.0004339 4.0161411-1.5050389 4.4685715-3.6114286 1.5773284-.5359476 2.5411467-2.1281389 2.2846589-3.77417018-.2564877-1.64603128-1.6590458-2.86948928-3.3246589-2.90011552zm-11.42857147-2.28571429c.63118257 0 1.14285714.51167458 1.14285714 1.14285715s-.51167457 1.14285714-1.14285714 1.14285714-1.14285714-.51167457-1.14285714-1.14285714.51167457-1.14285715 1.14285714-1.14285715zm0 18.28571429c-.63118257 0-1.14285714-.5116746-1.14285714-1.1428571 0-.6311826.51167457-1.1428572 1.14285714-1.1428572s1.14285714.5116746 1.14285714 1.1428572c0 .6311825-.51167457 1.1428571-1.14285714 1.1428571zm11.42857147-11.42857143c-.6311826 0-1.1428572-.51167457-1.1428572-1.14285714s.5116746-1.14285714 1.1428572-1.14285714c.6311825 0 1.1428571.51167457 1.1428571 1.14285714s-.5116746 1.14285714-1.1428571 1.14285714z" fill="#fff" fill-rule="nonzero" transform="translate(11 8)"/></g></svg>