<?xml version="1.0" encoding="UTF-8"?>
<svg width="32px" height="40px" viewBox="0 0 32 40" version="1.1" xmlns="http://www.w3.org/2000/svg" xmlns:xlink="http://www.w3.org/1999/xlink">
    <!-- Generator: Sketch 52.6 (67491) - http://www.bohemiancoding.com/sketch -->
    <title>file-check</title>
    <desc>Created with Sketch.</desc>
    <g id="15--Landing-page-Copy" stroke="none" stroke-width="1" fill="none" fill-rule="evenodd">
        <g id="2.0--Features" transform="translate(-574.000000, -516.000000)" fill="#7450C8" fill-rule="nonzero">
            <g id="General-features-1" transform="translate(0.000000, 404.000000)">
                <g id="Categories" transform="translate(185.000000, 112.000000)">
                    <g id="Group-7" transform="translate(331.000000, 0.000000)">
                        <g id="file-check" transform="translate(58.000000, 0.000000)">
                            <path d="M32,13.88 C31.9791674,13.6962698 31.9389433,13.5152612 31.88,13.34 L31.88,13.16 C31.7838378,12.9543595 31.6555676,12.7653297 31.5,12.6 L19.5,0.6 C19.3346703,0.44443241 19.1456405,0.316162162 18.94,0.22 C18.8802996,0.211520369 18.8197004,0.211520369 18.76,0.22 C18.5568296,0.103482709 18.3324467,0.0286884075 18.1,0 L6,0 C2.6862915,-4.4408921e-16 0,2.6862915 0,6 L0,34 C0,37.3137085 2.6862915,40 6,40 L26,40 C29.3137085,40 32,37.3137085 32,34 L32,14 C32,14 32,14 32,13.88 Z M20,6.82 L25.18,12 L22,12 C20.8954305,12 20,11.1045695 20,10 L20,6.82 Z M28,34 C28,35.1045695 27.1045695,36 26,36 L6,36 C4.8954305,36 4,35.1045695 4,34 L4,6 C4,4.8954305 4.8954305,4 6,4 L16,4 L16,10 C16,13.3137085 18.6862915,16 22,16 L28,16 L28,34 Z M20.58,20.58 L14,27.18 L11.42,24.58 C10.6357557,23.7957557 9.36424434,23.7957557 8.58,24.58 C7.79575566,25.3642443 7.79575566,26.6357557 8.58,27.42 L12.58,31.42 C12.9555332,31.7986253 13.4667249,32.0115966 14,32.0115966 C14.5332751,32.0115966 15.0444668,31.7986253 15.42,31.42 L23.42,23.42 C24.2042443,22.6357557 24.2042443,21.3642444 23.42,20.58 C22.6357556,19.7957557 21.3642443,19.7957557 20.58,20.58 Z" id="Shape"></path>
                        </g>
                    </g>
                </g>
            </g>
        </g>
    </g>
</svg>