<?xml version="1.0" encoding="UTF-8"?>
<svg width="26px" height="29px" viewBox="0 0 26 29" version="1.1" xmlns="http://www.w3.org/2000/svg" xmlns:xlink="http://www.w3.org/1999/xlink">
    <!-- Generator: Sketch 52.6 (67491) - http://www.bohemiancoding.com/sketch -->
    <title>file-edit-alt</title>
    <desc>Created with Sketch.</desc>
    <g id="15--Landing-page-Copy" stroke="none" stroke-width="1" fill="none" fill-rule="evenodd">
        <g id="2.0--Features" transform="translate(-391.000000, -4910.000000)" fill="#7450C8" fill-rule="nonzero">
            <g id="Group-21" transform="translate(0.000000, 4662.000000)">
                <g id="Group-20" transform="translate(140.000000, 223.000000)">
                    <g id="Group-18" transform="translate(211.000000, 0.500000)">
                        <g id="file-edit-alt" transform="translate(40.000000, 25.000000)">
                            <path d="M24.794,20.594 L21.406,17.206 C21.1431268,16.9409623 20.7852926,16.7918823 20.412,16.7918823 C20.0387074,16.7918823 19.6808732,16.9409623 19.418,17.206 L14.406,22.218 C14.1439389,22.4822064 13.9978485,22.8398758 14,23.212 L14,26.6 C14,27.3731986 14.6268014,28 15.4,28 L18.788,28 C19.1601242,28.0021515 19.5177936,27.8560611 19.782,27.594 L24.794,22.582 C25.0590377,22.3191268 25.2081177,21.9612926 25.2081177,21.588 C25.2081177,21.2147074 25.0590377,20.8568732 24.794,20.594 Z M18.2,25.2 L16.8,25.2 L16.8,23.8 L20.412,20.188 L21.812,21.588 L18.2,25.2 Z M9.8,25.2 L4.2,25.2 C3.42680135,25.2 2.8,24.5731986 2.8,23.8 L2.8,4.2 C2.8,3.42680135 3.42680135,2.8 4.2,2.8 L11.2,2.8 L11.2,7 C11.2,9.31959595 13.0804041,11.2 15.4,11.2 L19.6,11.2 L19.6,12.6 C19.6,13.3731986 20.2268014,14 21,14 C21.7731986,14 22.4,13.3731986 22.4,12.6 L22.4,9.8 C22.4,9.8 22.4,9.8 22.4,9.716 C22.3854172,9.58738885 22.3572603,9.46068281 22.316,9.338 L22.316,9.212 C22.2486865,9.06805165 22.1588973,8.93573077 22.05,8.82 L13.65,0.42 C13.5342692,0.311102687 13.4019483,0.221313513 13.258,0.154 C13.2162097,0.148064258 13.1737903,0.148064258 13.132,0.154 L12.684,0 L4.2,0 C1.88040405,-6.21724894e-16 0,1.88040405 0,4.2 L0,23.8 C0,26.1195959 1.88040405,28 4.2,28 L9.8,28 C10.5731986,28 11.2,27.3731986 11.2,26.6 C11.2,25.8268014 10.5731986,25.2 9.8,25.2 Z M14,4.774 L17.626,8.4 L15.4,8.4 C14.6268014,8.4 14,7.77319865 14,7 L14,4.774 Z M7,16.8 L15.4,16.8 C16.1731986,16.8 16.8,16.1731986 16.8,15.4 C16.8,14.6268014 16.1731986,14 15.4,14 L7,14 C6.22680135,14 5.6,14.6268014 5.6,15.4 C5.6,16.1731986 6.22680135,16.8 7,16.8 Z M7,11.2 L8.4,11.2 C9.17319865,11.2 9.8,10.5731986 9.8,9.8 C9.8,9.02680135 9.17319865,8.4 8.4,8.4 L7,8.4 C6.22680135,8.4 5.6,9.02680135 5.6,9.8 C5.6,10.5731986 6.22680135,11.2 7,11.2 Z M9.8,19.6 L7,19.6 C6.22680135,19.6 5.6,20.2268014 5.6,21 C5.6,21.7731986 6.22680135,22.4 7,22.4 L9.8,22.4 C10.5731986,22.4 11.2,21.7731986 11.2,21 C11.2,20.2268014 10.5731986,19.6 9.8,19.6 Z" id="Shape"></path>
                        </g>
                    </g>
                </g>
            </g>
        </g>
    </g>
</svg>