<?xml version="1.0" encoding="UTF-8"?>
<svg width="549px" height="466px" viewBox="0 0 549 466" version="1.1" xmlns="http://www.w3.org/2000/svg" xmlns:xlink="http://www.w3.org/1999/xlink">
    <!-- Generator: Sketch 52.6 (67491) - http://www.bohemiancoding.com/sketch -->
    <title>Group 2</title>
    <desc>Created with Sketch.</desc>
    <defs>
        <rect id="path-1" x="0" y="0" width="285" height="193" rx="4"></rect>
        <filter x="-4.7%" y="-7.0%" width="111.6%" height="117.1%" filterUnits="objectBoundingBox" id="filter-2">
            <feOffset dx="3" dy="3" in="SourceAlpha" result="shadowOffsetOuter1"></feOffset>
            <feGaussianBlur stdDeviation="5" in="shadowOffsetOuter1" result="shadowBlurOuter1"></feGaussianBlur>
            <feColorMatrix values="0 0 0 0 0   0 0 0 0 0   0 0 0 0 0  0 0 0 0.1 0" type="matrix" in="shadowBlurOuter1"></feColorMatrix>
        </filter>
        <path d="M236,9 L244.727922,0.272077939 L253.455844,9 L270,9 C271.104569,9 272,9.8954305 272,11 L272,323 C272,324.104569 271.104569,325 270,325 L2,325 C0.8954305,325 1.3527075e-16,324.104569 0,323 L0,11 C-1.3527075e-16,9.8954305 0.8954305,9 2,9 L236,9 Z" id="path-3"></path>
        <filter x="-15.4%" y="-9.2%" width="130.9%" height="125.9%" filterUnits="objectBoundingBox" id="filter-4">
            <feOffset dx="0" dy="12" in="SourceAlpha" result="shadowOffsetOuter1"></feOffset>
            <feGaussianBlur stdDeviation="12" in="shadowOffsetOuter1" result="shadowBlurOuter1"></feGaussianBlur>
            <feColorMatrix values="0 0 0 0 0   0 0 0 0 0   0 0 0 0 0  0 0 0 0.5 0" type="matrix" in="shadowBlurOuter1"></feColorMatrix>
        </filter>
        <path d="M124.336306,15 L138.538644,0.819910181 L152.740982,15 L274.003288,15 C276.210611,15 278,16.783296 278,18.9919565 L278,126.008043 C278,128.21274 276.206508,130 274.003288,130 L3.9967119,130 C1.78938887,130 0,128.216704 0,126.008043 L0,18.9919565 C0,16.7872598 1.7934923,15 3.9967119,15 L124.336306,15 Z" id="path-5"></path>
        <filter x="-5.8%" y="-10.8%" width="111.5%" height="124.8%" filterUnits="objectBoundingBox" id="filter-6">
            <feOffset dx="0" dy="2" in="SourceAlpha" result="shadowOffsetOuter1"></feOffset>
            <feGaussianBlur stdDeviation="5" in="shadowOffsetOuter1" result="shadowBlurOuter1"></feGaussianBlur>
            <feColorMatrix values="0 0 0 0 0   0 0 0 0 0   0 0 0 0 0  0 0 0 0.15 0" type="matrix" in="shadowBlurOuter1"></feColorMatrix>
        </filter>
    </defs>
    <g id="15--Landing-page-Copy" stroke="none" stroke-width="1" fill="none" fill-rule="evenodd">
        <g id="2.2--Features---other-categories" transform="translate(-3824.000000, -343.000000)">
            <g id="General-features-1" transform="translate(3057.000000, 69.000000)">
                <g id="Group-2" transform="translate(777.000000, 283.000000)">
                    <g id="Group-13" transform="translate(241.000000, 47.000000)">
                        <g id="Rectangle">
                            <use fill="black" fill-opacity="1" filter="url(#filter-2)" xlink:href="#path-1"></use>
                            <use fill="#FFFFFF" fill-rule="evenodd" xlink:href="#path-1"></use>
                        </g>
                        <rect id="Rectangle" fill="#7450C8" x="124" y="23" width="143" height="30" rx="4"></rect>
                        <rect id="Rectangle" stroke="#7450C8" fill="#FFFFFF" x="124.5" y="69.5" width="142" height="29" rx="4"></rect>
                        <rect id="Rectangle" fill="#F4F6FC" x="124" y="115" width="143" height="30" rx="4"></rect>
                        <text id="Publish" font-family="Roboto-Medium, Roboto" font-size="14" font-weight="400" fill="#FFFFFF">
                            <tspan x="172" y="41">Publish</tspan>
                        </text>
                        <text id="Preview" font-family="Roboto-Medium, Roboto" font-size="14" font-weight="400" fill="#7450C8">
                            <tspan x="172" y="88">Preview</tspan>
                        </text>
                        <text id="Previous-versions" font-family="Roboto-Medium, Roboto" font-size="14" font-weight="400" fill="#7450C8">
                            <tspan x="139" y="134">Previous versions</tspan>
                        </text>
                    </g>
                    <g id="Group-15">
                        <g id="Dropdown" transform="translate(50.000000, 0.000000)">
                            <g id="Combined-Shape">
                                <use fill="black" fill-opacity="1" filter="url(#filter-4)" xlink:href="#path-3"></use>
                                <use fill="#333333" fill-rule="evenodd" xlink:href="#path-3"></use>
                            </g>
                            <circle id="Oval" fill="#FFFFFF" cx="24" cy="45" r="16"></circle>
                            <circle id="Oval" fill-opacity="0.3" fill="#1DDCC0" cx="24" cy="45" r="16"></circle>
                            <text id="Leon-Hunt" font-family="Roboto-Regular, Roboto" font-size="14" font-weight="normal" line-spacing="26" fill="#FFFFFF">
                                <tspan x="56" y="35">Leon Hunt</tspan>
                            </text>
                            <text id="huntleon@company.com" font-family="Roboto-Regular, Roboto" font-size="12" font-weight="normal" line-spacing="26" fill="#969696">
                                <tspan x="56" y="59">huntleon@company.com</tspan>
                            </text>
                            <g id="options" transform="translate(13.000000, 101.000000)">
                                <polygon id="Line" fill="#B0BAC9" fill-rule="nonzero" points="1.42108547e-14 31 1.42108547e-14 30 248 30 248 31"></polygon>
                                <text id="Account-settings" font-family="Helvetica" font-size="12" font-weight="normal" fill="#FFFFFF">
                                    <tspan x="31" y="11">Account settings</tspan>
                                </text>
                                <g id="user-exclamation" transform="translate(3.000000, 0.000000)" fill="#FFFFFF" fill-rule="nonzero">
                                    <path d="M8.4375,6.66823529 C9.2472369,5.95358051 9.7125117,4.91548641 9.7125,3.82352941 C9.7125,1.71185243 8.03356781,0 5.9625,0 C3.89143219,0 2.2125,1.71185243 2.2125,3.82352941 C2.22186966,4.92162397 2.70129957,5.96073793 3.525,6.66823529 C1.38070572,7.65825254 0.00225457508,9.83525073 0,12.2352941 C0,12.6576295 0.335786438,13 0.75,13 C1.16421356,13 1.5,12.6576295 1.5,12.2352941 C1.5,9.70128174 3.51471863,7.64705882 6,7.64705882 C8.48528137,7.64705882 10.5,9.70128174 10.5,12.2352941 C10.5,12.6576295 10.8357864,13 11.25,13 C11.6642136,13 12,12.6576295 12,12.2352941 C11.9911042,9.82628959 10.5964476,7.64688324 8.4375,6.66823529 Z M5.9625,6.11764706 C4.71985931,6.11764706 3.7125,5.0905356 3.7125,3.82352941 C3.7125,2.55652322 4.71985931,1.52941176 5.9625,1.52941176 C7.20514069,1.52941176 8.2125,2.55652322 8.2125,3.82352941 C8.2125,4.43196724 7.97544711,5.01548504 7.55349026,5.44571556 C7.13153341,5.87594607 6.5592371,6.11764706 5.9625,6.11764706 Z" id="Shape"></path>
                                </g>
                            </g>
                            <g id="options" transform="translate(13.000000, 151.000000)">
                                <polygon id="Line" fill="#B0BAC9" fill-rule="nonzero" points="0 31 0 30 248 30 248 31"></polygon>
                                <text id="Upgrade" font-family="Helvetica" font-size="12" font-weight="normal" fill="#FFFFFF">
                                    <tspan x="31" y="11">Upgrade</tspan>
                                </text>
                                <g id="arrow-circle-down" transform="translate(9.500000, 6.500000) scale(1, -1) translate(-9.500000, -6.500000) translate(3.000000, 0.000000)" fill="#FFFFFF" fill-rule="nonzero">
                                    <path d="M6.0385,8.9115 C6.10031741,8.97067641 6.17321164,9.01706365 6.253,9.048 C6.41124988,9.11301171 6.58875012,9.11301171 6.747,9.048 C6.82678836,9.01706365 6.89968259,8.97067641 6.9615,8.9115 L8.9115,6.9615 C9.16637941,6.70662059 9.16637941,6.29337941 8.9115,6.0385 C8.65662059,5.78362059 8.24337941,5.78362059 7.9885,6.0385 L7.15,6.8835 L7.15,4.55 C7.15,4.19101491 6.85898509,3.9 6.5,3.9 C6.14101491,3.9 5.85,4.19101491 5.85,4.55 L5.85,6.8835 L5.0115,6.0385 C4.88945171,5.91544678 4.7233144,5.84623109 4.55,5.84623109 C4.3766856,5.84623109 4.21054829,5.91544678 4.0885,6.0385 C3.96544678,6.16054829 3.89623109,6.3266856 3.89623109,6.5 C3.89623109,6.6733144 3.96544678,6.83945171 4.0885,6.9615 L6.0385,8.9115 Z M6.5,13 C10.0898509,13 13,10.0898509 13,6.5 C13,2.91014913 10.0898509,-5.77315973e-16 6.5,0 C2.91014913,5.77315973e-16 2.88657986e-16,2.91014913 0,6.5 C1.44328993e-16,8.22390718 0.684819462,9.87720762 1.90380592,11.0961941 C3.12279238,12.3151805 4.77609282,13 6.5,13 Z M6.5,1.3 C9.3718807,1.3 11.7,3.6281193 11.7,6.5 C11.7,9.3718807 9.3718807,11.7 6.5,11.7 C3.6281193,11.7 1.3,9.3718807 1.3,6.5 C1.3,3.6281193 3.6281193,1.3 6.5,1.3 Z" id="Shape"></path>
                                </g>
                            </g>
                            <g id="options" transform="translate(13.000000, 198.000000)">
                                <polygon id="Line" fill="#B0BAC9" fill-rule="nonzero" points="0 31 0 30 248 30 248 31"></polygon>
                                <text id="Help" font-family="Helvetica" font-size="12" font-weight="normal" fill="#FFFFFF">
                                    <tspan x="31" y="11">Help</tspan>
                                </text>
                                <g id="question-circle" transform="translate(3.000000, 0.000000)" fill="#FFFFFF" fill-rule="nonzero">
                                    <path d="M6.0385,8.6385 C6.01054659,8.66938794 5.98449846,8.7019481 5.9605,8.736 C5.93589983,8.77223438 5.91622741,8.81157924 5.902,8.853 C5.88325906,8.88984566 5.87011464,8.9292789 5.863,8.97 C5.85980941,9.0132746 5.85980941,9.0567254 5.863,9.1 C5.86080293,9.18526475 5.87861212,9.2698584 5.915,9.347 C5.97410047,9.51029967 6.10270033,9.63889953 6.266,9.698 C6.42332592,9.76753491 6.60267408,9.76753491 6.76,9.698 C6.92329967,9.63889953 7.05189953,9.51029967 7.111,9.347 C7.13986387,9.26796684 7.15310893,9.18408149 7.15,9.1 C7.15099889,8.92722806 7.08317123,8.76116724 6.9615,8.6385 C6.83945171,8.51544678 6.6733144,8.44623109 6.5,8.44623109 C6.3266856,8.44623109 6.16054829,8.51544678 6.0385,8.6385 Z M6.5,2.88657986e-16 C2.91014913,-1.44328993e-16 2.88657986e-16,2.91014913 0,6.5 C-2.88657986e-16,10.0898509 2.91014913,13 6.5,13 C10.0898509,13 13,10.0898509 13,6.5 C13,4.77609282 12.3151805,3.12279238 11.0961941,1.90380592 C9.87720762,0.684819462 8.22390718,1.44328993e-16 6.5,2.88657986e-16 Z M6.5,11.7 C3.6281193,11.7 1.3,9.3718807 1.3,6.5 C1.3,3.6281193 3.6281193,1.3 6.5,1.3 C9.3718807,1.3 11.7,3.6281193 11.7,6.5 C11.7,7.87912575 11.1521444,9.20176609 10.1769553,10.1769553 C9.20176609,11.1521444 7.87912575,11.7 6.5,11.7 Z M6.5,3.25 C5.80288539,3.24955305 5.15855723,3.62128083 4.81,4.225 C4.68191141,4.4264929 4.67459998,4.68199029 4.79095637,4.89047833 C4.90731277,5.09896638 5.12860497,5.22688094 5.36734255,5.22364953 C5.60608013,5.22041812 5.82382914,5.08656095 5.9345,4.875 C6.05107163,4.67308777 6.26685491,4.5490744 6.5,4.55 C6.85898509,4.55 7.15,4.84101491 7.15,5.2 C7.15,5.55898509 6.85898509,5.85 6.5,5.85 C6.14101491,5.85 5.85,6.14101491 5.85,6.5 L5.85,7.15 C5.85,7.50898509 6.14101491,7.8 6.5,7.8 C6.85898509,7.8 7.15,7.50898509 7.15,7.15 L7.15,7.033 C8.03723008,6.71106706 8.56653738,5.79992917 8.40670911,4.86972868 C8.24688085,3.93952818 7.44380317,3.25732241 6.5,3.25 Z" id="Shape"></path>
                                </g>
                            </g>
                            <g id="options" transform="translate(13.000000, 245.000000)">
                                <polygon id="Line" fill="#B0BAC9" fill-rule="nonzero" points="0 31 0 30 248 30 248 31"></polygon>
                                <text id="Sign-out" font-family="Helvetica" font-size="12" font-weight="normal" fill="#FFFFFF">
                                    <tspan x="31" y="11">Sign out</tspan>
                                </text>
                                <g id="sign-out-alt-(1)" transform="translate(3.000000, 0.000000)" fill="#FFFFFF" fill-rule="nonzero">
                                    <path d="M6.88296124,7.14950552 L5.38807825,8.63788902 C5.26503466,8.75992776 5.19582439,8.92605207 5.19582439,9.0993529 C5.19582439,9.27265373 5.26503466,9.43877804 5.38807825,9.56081678 C5.51011699,9.68386037 5.6762413,9.75307064 5.84954213,9.75307064 C6.02284297,9.75307064 6.18896728,9.68386037 6.31100601,9.56081678 L8.91080252,6.96102028 C8.96997429,6.8992077 9.0163579,6.82631918 9.04729183,6.74653706 C9.11229846,6.58829957 9.11229846,6.41081322 9.04729183,6.25257573 C9.0163579,6.17279362 8.96997429,6.09990509 8.91080252,6.03809252 L6.31100601,3.43829601 C6.14614085,3.27343084 5.90584463,3.20904366 5.68063462,3.26938849 C5.45542461,3.32973333 5.27951557,3.50564237 5.21917074,3.73085238 C5.1588259,3.95606239 5.22321308,4.19635861 5.38807825,4.36122377 L6.88296124,5.84960727 L0.649949126,5.84960727 C0.290992136,5.84960727 -8.57980353e-13,6.14059941 -8.57980353e-13,6.4995564 C-8.57980353e-13,6.85851339 0.290992136,7.14950552 0.649949126,7.14950552 L6.88296124,7.14950552 Z M6.49949126,6.51366023e-05 C4.02141235,-0.0109983047 1.75268053,1.38805298 0.649949126,3.60728279 C0.48841848,3.93034408 0.619364941,4.32318346 0.942426233,4.48471411 C1.26548752,4.64624475 1.65832691,4.51529829 1.81985755,4.192237 C2.9570437,1.89574383 5.5978799,0.770226567 8.04205174,1.54035463 C10.4862236,2.31048269 12.0048362,4.7465904 11.6201239,7.2801787 C11.2354116,9.81376699 9.06210237,11.6892755 6.49949126,11.6991494 C4.52185524,11.7077136 2.7137106,10.5839366 1.84585552,8.80687579 C1.68432487,8.48381451 1.29148549,8.35286806 0.968424206,8.5143987 C0.645362922,8.67592935 0.514416458,9.06876872 0.675947091,9.39183001 C2.10213973,12.2619395 5.40760923,13.6640088 8.46240365,12.6945838 C11.5171981,11.7251587 13.4093449,8.67364969 12.9195976,5.50636355 C12.4298504,2.33907741 9.7044174,0.00156980399 6.49949126,6.51366023e-05 Z" id="Shape"></path>
                                </g>
                            </g>
                            <g id="options" transform="translate(17.000000, 292.000000)" fill="#FFFFFF">
                                <text id="Getting-Started" font-family="Helvetica" font-size="12" font-weight="normal">
                                    <tspan x="27" y="11">Getting Started </tspan>
                                </text>
                                <g id="comment-heart" transform="translate(0.000000, 1.000000)" fill-rule="nonzero">
                                    <path d="M5.51804867,3.12731626 C4.75656099,2.73688839 3.83090452,2.87547538 3.2171511,3.47180092 C2.45680617,4.23309265 2.45680617,5.46638651 3.2171511,6.22767824 L5.05656922,8.0995949 C5.17861207,8.22264265 5.34474199,8.29185525 5.51804867,8.29185525 C5.69135536,8.29185525 5.85748527,8.22264265 5.97952813,8.0995949 L7.81894624,6.26017679 C8.57929117,5.49888506 8.57929117,4.26559121 7.81894624,3.50429948 C7.21280032,2.89701633 6.28629691,2.74521634 5.51804867,3.12731626 Z M6.89598733,5.31121904 L5.51804867,6.68915769 L4.14011002,5.31121904 C4.01706227,5.18917618 3.94784966,5.02304626 3.94784966,4.84973958 C3.94784966,4.6764329 4.01706227,4.51030298 4.14011002,4.38826012 C4.39362307,4.13625101 4.80305616,4.13625101 5.05656922,4.38826012 C5.17861207,4.51130787 5.34474199,4.58052048 5.51804867,4.58052048 C5.69135536,4.58052048 5.85748527,4.51130787 5.97952813,4.38826012 C6.23304119,4.13625101 6.64247427,4.13625101 6.89598733,4.38826012 C7.01903507,4.51030298 7.08824768,4.6764329 7.08824768,4.84973958 C7.08824768,5.02304626 7.01903507,5.18917618 6.89598733,5.31121904 Z M5.51804867,-1 C1.92835761,-1 -0.981661972,1.91001958 -0.981661972,5.49971064 C-0.98734413,7.00058116 -0.467669923,8.45612883 0.487272634,9.61402748 L-0.812669495,10.9139696 C-0.99709525,11.1008757 -1.05094676,11.3803907 -0.949163419,11.6224381 C-0.838753938,11.8616194 -0.594892651,12.0105031 -0.331690908,11.9994213 L5.51804867,11.9994213 C9.1077397,11.9994212 12.0177592,9.08940167 12.0177592,5.49971064 C12.0177592,1.91001961 9.1077397,-0.999999947 5.51804867,-1 Z M5.51804867,10.6994792 L1.23473936,10.6994792 L1.83921245,10.0950061 C2.09122157,9.84149301 2.09122157,9.43205993 1.83921245,9.17854687 C0.0842147385,7.42549898 -0.188122578,4.67688635 1.18873901,2.61352839 C2.56560059,0.550170438 5.20822272,-0.253314021 7.50060082,0.69441827 C9.79297893,1.64215056 11.096715,4.07716827 10.6145541,6.51042016 C10.1323933,8.94367206 7.99861112,10.6975286 5.51804867,10.6994792 Z" id="Shape"></path>
                                </g>
                            </g>
                            <polygon id="Line" fill="#B0BAC9" fill-rule="nonzero" points="0 85 0 84 272 84 272 85"></polygon>
                        </g>
                        <g id="Preview" transform="translate(0.000000, 315.000000)">
                            <g id="base">
                                <use fill="black" fill-opacity="1" filter="url(#filter-6)" xlink:href="#path-5"></use>
                                <use fill="#7450C8" fill-rule="evenodd" xlink:href="#path-5"></use>
                            </g>
                            <g id="Close-button" transform="translate(250.000000, 31.000000)" fill="#FFFFFF" fill-rule="nonzero">
                                <g id="times">
                                    <path d="M7.40863871,5.99914736 L11.7044873,1.7126801 C12.0962309,1.32088084 12.0962309,0.685648715 11.7044873,0.293849449 C11.3127437,-0.0979498165 10.6776018,-0.0979498165 10.2858582,0.293849449 L6,4.59030847 L1.7141418,0.293849449 C1.3223982,-0.0979498065 0.687256347,-0.0979498018 0.295512755,0.29384946 C-0.0962308371,0.685648722 -0.0962308418,1.32088083 0.295512745,1.7126801 L4.59136129,5.99914736 L0.295512745,10.2856146 C0.106382866,10.4732266 0,10.728612 0,10.9950299 C0,11.2614479 0.106382866,11.5168333 0.295512745,11.7044453 C0.483098064,11.893602 0.738447162,12 1.00482727,12 C1.27120738,12 1.52655648,11.893602 1.7141418,11.7044453 L6,7.40798624 L10.2858582,11.7044453 C10.4734435,11.893602 10.7287926,12 10.9951727,12 C11.2615528,12 11.5169019,11.893602 11.7044873,11.7044453 C11.8936171,11.5168333 12,11.2614479 12,10.9950299 C12,10.728612 11.8936171,10.4732266 11.7044873,10.2856146 L7.40863871,5.99914736 Z" id="Path"></path>
                                </g>
                            </g>
                            <text id="Getting-started" font-family="Roboto-Bold, Roboto" font-size="18" font-weight="bold" line-spacing="28" fill="#FFFFFF">
                                <tspan x="16" y="56">Getting started</tspan>
                            </text>
                            <text id="Click-here-to-see-yo" font-family="Roboto-Regular, Roboto" font-size="12" font-weight="normal" fill="#FFFFFF">
                                <tspan x="16" y="94">Click here to see your next steps!</tspan>
                            </text>
                        </g>
                    </g>
                </g>
            </g>
        </g>
    </g>
</svg>