<svg height="40" viewBox="0 0 40 40" width="40" xmlns="http://www.w3.org/2000/svg"><g fill="none" fill-rule="evenodd"><rect fill="#0b7a76" height="40" rx="7" width="40"/><g fill="#fff" fill-rule="nonzero" stroke="#fff" stroke-width=".5" transform="translate(8 8)"><path d="m4.40625 0h-1.125c-1.80928125 0-3.28125 1.47196875-3.28125 3.28125v17.4375c0 1.8092813 1.47196875 3.28125 3.28125 3.28125h1.125c1.80928125 0 3.28125-1.4719687 3.28125-3.28125v-17.4375c0-1.80928125-1.47196875-3.28125-3.28125-3.28125zm1.40625 20.71875c0 .7754063-.63084375 1.40625-1.40625 1.40625h-1.125c-.77540625 0-1.40625-.6308438-1.40625-1.40625v-17.4375c0-.77540625.63084375-1.40625 1.40625-1.40625h1.125c.77540625 0 1.40625.63084375 1.40625 1.40625z"/><path d="m20.71875 0h-7.78125c-1.8092813 0-3.28125 1.47196875-3.28125 3.28125v1.125c0 1.80928125 1.4719687 3.28125 3.28125 3.28125h7.78125c1.8092813 0 3.28125-1.47196875 3.28125-3.28125v-1.125c0-1.80928125-1.4719687-3.28125-3.28125-3.28125zm1.40625 4.40625c0 .77540625-.6308438 1.40625-1.40625 1.40625h-7.78125c-.7754063 0-1.40625-.63084375-1.40625-1.40625v-1.125c0-.77540625.6308438-1.40625 1.40625-1.40625h7.78125c.7754063 0 1.40625.63084375 1.40625 1.40625z"/><path d="m20.71875 9.703125h-7.78125c-1.8092813 0-3.28125 1.4719687-3.28125 3.28125v7.734375c0 1.8092812 1.4719687 3.28125 3.28125 3.28125h7.78125c1.8092813 0 3.28125-1.4719688 3.28125-3.28125 0-.5177812-.4197188-.9375-.9375-.9375s-.9375.4197188-.9375.9375c0 .7754063-.6308438 1.40625-1.40625 1.40625h-7.78125c-.7754063 0-1.40625-.6308438-1.40625-1.40625v-7.734375c0-.7754063.6308438-1.40625 1.40625-1.40625h7.78125c.7754063 0 1.40625.6308438 1.40625 1.40625v3.046875c0 .5177812.4197188.9375.9375.9375s.9375-.4197188.9375-.9375v-3.046875c0-1.8092813-1.4719687-3.28125-3.28125-3.28125z"/></g></g></svg>