<?xml version="1.0" encoding="UTF-8"?>
<svg width="32px" height="35px" viewBox="0 0 32 35" version="1.1" xmlns="http://www.w3.org/2000/svg" xmlns:xlink="http://www.w3.org/1999/xlink">
    <!-- Generator: Sketch 52.6 (67491) - http://www.bohemiancoding.com/sketch -->
    <title>Group 5</title>
    <desc>Created with Sketch.</desc>
    <defs>
        <path d="M13.297618,0.774642857 L2.61788764,6.89892857 C1.02867416,7.81071429 0.0499775281,9.495 0.0499775281,11.3178571 L0.0499775281,23.5671429 C0.0499775281,25.3896429 1.02867416,27.0739286 2.61788764,27.9857143 L13.297618,34.11 C14.8868315,35.0214286 16.8449438,35.0214286 18.4341573,34.11 L29.1135281,27.9857143 C30.7027416,27.0739286 31.6821573,25.3896429 31.6821573,23.5671429 L31.6821573,11.3178571 C31.6821573,9.495 30.7027416,7.81071429 29.1135281,6.89892857 L18.4341573,0.774642857 C17.639191,0.318928571 16.7525393,0.0910714286 15.8655281,0.0910714286 C14.9788764,0.0910714286 14.0918652,0.318928571 13.297618,0.774642857 Z M21.2167191,12.2210714 C21.607191,11.835 22.1763596,11.6842857 22.7099326,11.8253571 C23.2431461,11.9667857 23.6602247,12.3785714 23.8029663,12.9060714 C23.9460674,13.4332143 23.793618,13.9957143 23.4031461,14.3821429 L15.0270562,22.6610714 C14.7383371,22.9492857 14.3442697,23.1110714 13.9340225,23.1110714 C13.5237753,23.1110714 13.1300674,22.9492857 12.8409888,22.6610714 L8.89923596,18.7653571 C8.5091236,18.3789286 8.35631461,17.8164286 8.49941573,17.2892857 C8.6421573,16.7617857 9.0588764,16.35 9.59244944,16.2085714 C10.1260225,16.0671429 10.695191,16.2178571 11.0856629,16.6039286 L13.9340225,19.4346429 L21.2167191,12.2210714 Z" id="path-1"></path>
    </defs>
    <g id="Symbols" stroke="none" stroke-width="1" fill="none" fill-rule="evenodd">
        <g id="Landing-page-Top-navigation-bar" transform="translate(-139.000000, -29.000000)">
            <g id="Group-21" transform="translate(139.000000, 29.000000)">
                <g id="Group-5">
                    <mask id="mask-2" fill="white">
                        <use xlink:href="#path-1"></use>
                    </mask>
                    <g id="Clip-4"></g>
                    <polygon id="Fill-3" fill="#7450C8" mask="url(#mask-2)" points="-2.80377528 37.6282143 34.5355506 37.6282143 34.5355506 -2.74357143 -2.80377528 -2.74357143"></polygon>
                </g>
            </g>
        </g>
    </g>
</svg>