<svg width="33" height="34" viewBox="0 0 33 34" fill="none" xmlns="http://www.w3.org/2000/svg">
<path fill-rule="evenodd" clip-rule="evenodd" d="M5.148 5.54549C8.20626 2.6363 12.27 1.00749 16.5 0.995483C25.6127 0.995483 33 8.34966 33 17.4215C33 26.4933 25.6127 33.8475 16.5 33.8475C7.3873 33.8475 0 26.4933 0 17.4215C0 16.5143 0.73873 15.7789 1.65 15.7789C2.56127 15.7789 3.3 16.5143 3.3 17.4215C3.27545 23.7226 7.7472 29.1541 13.9583 30.3674C20.1693 31.5806 26.3713 28.2341 28.7404 22.391C31.1095 16.5479 28.9789 9.85313 23.6621 6.43421C18.3453 3.01528 11.3391 3.83467 6.963 8.38719H10.923C11.8343 8.38719 12.573 9.1226 12.573 10.0298C12.573 10.937 11.8343 11.6724 10.923 11.6724H3.498C2.58673 11.6724 1.848 10.937 1.848 10.0298V2.63808C1.848 1.7309 2.58673 0.995483 3.498 0.995483C4.40927 0.995483 5.148 1.7309 5.148 2.63808V5.54549ZM15 12.5435C15 11.6638 15.7835 10.9507 16.75 10.9507C17.7165 10.9507 18.5 11.6638 18.5 12.5435V15.7291H20.25C21.2165 15.7291 22 16.4423 22 17.322C22 18.2017 21.2165 18.9148 20.25 18.9148H16.75C15.7835 18.9148 15 18.2017 15 17.322V12.5435Z" fill="#7450C8"/>
</svg>
