<svg width="400" height="284" viewBox="0 0 400 284" fill="none" xmlns="http://www.w3.org/2000/svg">
<path d="M46.4 206.144C45.28 206.144 44.2987 205.904 43.456 205.424C42.624 204.944 41.984 204.267 41.536 203.392C41.088 202.507 40.864 201.472 40.864 200.288C40.864 199.115 41.088 198.091 41.536 197.216C41.984 196.331 42.624 195.653 43.456 195.184C44.2987 194.704 45.28 194.464 46.4 194.464C47.168 194.464 47.888 194.587 48.56 194.832C49.2427 195.067 49.808 195.397 50.256 195.824L49.584 197.328C49.072 196.912 48.56 196.613 48.048 196.432C47.5467 196.24 47.008 196.144 46.432 196.144C45.3333 196.144 44.48 196.501 43.872 197.216C43.2747 197.931 42.976 198.955 42.976 200.288C42.976 201.632 43.2747 202.667 43.872 203.392C44.4693 204.107 45.3227 204.464 46.432 204.464C47.008 204.464 47.5467 204.373 48.048 204.192C48.56 204 49.072 203.696 49.584 203.28L50.256 204.784C49.808 205.211 49.2427 205.547 48.56 205.792C47.888 206.027 47.168 206.144 46.4 206.144ZM56.6651 197.712C58.5958 197.712 59.5611 198.821 59.5611 201.04V206H57.5611V201.136C57.5611 200.496 57.4385 200.032 57.1931 199.744C56.9478 199.445 56.5691 199.296 56.0571 199.296C55.4491 199.296 54.9585 199.493 54.5851 199.888C54.2118 200.272 54.0251 200.784 54.0251 201.424V206H52.0411V194.224H54.0251V199.088C54.3025 198.651 54.6705 198.315 55.1291 198.08C55.5878 197.835 56.0998 197.712 56.6651 197.712ZM69.4097 197.92V206H67.4418V204.704C67.1964 205.152 66.8444 205.504 66.3858 205.76C65.9271 206.005 65.4044 206.128 64.8177 206.128C64.1138 206.128 63.4898 205.957 62.9457 205.616C62.4018 205.275 61.9804 204.789 61.6818 204.16C61.3831 203.531 61.2338 202.8 61.2338 201.968C61.2338 201.136 61.3831 200.4 61.6818 199.76C61.9911 199.109 62.4178 198.608 62.9618 198.256C63.5058 197.893 64.1244 197.712 64.8177 197.712C65.4044 197.712 65.9271 197.84 66.3858 198.096C66.8444 198.341 67.1964 198.688 67.4418 199.136V197.92H69.4097ZM65.3618 204.56C66.0231 204.56 66.5351 204.331 66.8978 203.872C67.2604 203.413 67.4418 202.768 67.4418 201.936C67.4418 201.083 67.2604 200.427 66.8978 199.968C66.5351 199.509 66.0178 199.28 65.3458 199.28C64.6844 199.28 64.1671 199.52 63.7938 200C63.4311 200.469 63.2498 201.125 63.2498 201.968C63.2498 202.8 63.4311 203.44 63.7938 203.888C64.1671 204.336 64.6898 204.56 65.3618 204.56ZM76.212 197.712C78.1427 197.712 79.108 198.821 79.108 201.04V206H77.108V201.136C77.108 200.496 76.9853 200.032 76.74 199.744C76.4947 199.445 76.116 199.296 75.604 199.296C74.996 199.296 74.5053 199.493 74.132 199.888C73.7587 200.272 73.572 200.784 73.572 201.424V206H71.588V200.208C71.588 199.355 71.5453 198.592 71.46 197.92H73.332L73.476 199.248C73.7533 198.757 74.1267 198.379 74.596 198.112C75.076 197.845 75.6147 197.712 76.212 197.712ZM85.8526 197.712C87.7833 197.712 88.7486 198.821 88.7486 201.04V206H86.7486V201.136C86.7486 200.496 86.626 200.032 86.3806 199.744C86.1353 199.445 85.7566 199.296 85.2446 199.296C84.6366 199.296 84.146 199.493 83.7726 199.888C83.3993 200.272 83.2126 200.784 83.2126 201.424V206H81.2286V200.208C81.2286 199.355 81.186 198.592 81.1006 197.92H82.9726L83.1166 199.248C83.394 198.757 83.7673 198.379 84.2366 198.112C84.7166 197.845 85.2553 197.712 85.8526 197.712ZM97.9413 202.064H92.3733C92.4159 202.928 92.6293 203.568 93.0133 203.984C93.4079 204.389 93.9893 204.592 94.7573 204.592C95.6426 204.592 96.4639 204.304 97.2213 203.728L97.7973 205.104C97.4133 205.413 96.9386 205.664 96.3733 205.856C95.8186 206.037 95.2533 206.128 94.6773 206.128C93.3546 206.128 92.3146 205.755 91.5573 205.008C90.7999 204.261 90.4213 203.237 90.4213 201.936C90.4213 201.115 90.5866 200.384 90.9173 199.744C91.2479 199.104 91.7119 198.608 92.3093 198.256C92.9066 197.893 93.5839 197.712 94.3413 197.712C95.4506 197.712 96.3253 198.075 96.9653 198.8C97.6159 199.515 97.9413 200.501 97.9413 201.76V202.064ZM94.3893 199.152C93.8559 199.152 93.4186 199.312 93.0773 199.632C92.7466 199.941 92.5333 200.395 92.4373 200.992H96.1973C96.1333 200.384 95.9466 199.925 95.6373 199.616C95.3386 199.307 94.9226 199.152 94.3893 199.152ZM99.6349 194.224H101.619V206H99.6349V194.224ZM106.767 206.128C105.305 206.128 104.143 205.787 103.279 205.104L103.839 203.696C104.703 204.336 105.689 204.656 106.799 204.656C107.279 204.656 107.647 204.576 107.903 204.416C108.169 204.256 108.303 204.032 108.303 203.744C108.303 203.499 108.212 203.307 108.031 203.168C107.849 203.019 107.54 202.891 107.103 202.784L105.759 202.48C104.287 202.16 103.551 201.408 103.551 200.224C103.551 199.733 103.689 199.301 103.967 198.928C104.244 198.544 104.633 198.245 105.135 198.032C105.636 197.819 106.217 197.712 106.879 197.712C107.455 197.712 108.009 197.803 108.543 197.984C109.076 198.155 109.545 198.405 109.951 198.736L109.359 200.096C108.548 199.499 107.716 199.2 106.863 199.2C106.404 199.2 106.047 199.285 105.791 199.456C105.535 199.627 105.407 199.861 105.407 200.16C105.407 200.395 105.481 200.581 105.631 200.72C105.791 200.859 106.057 200.976 106.431 201.072L107.807 201.376C108.607 201.557 109.188 201.84 109.551 202.224C109.924 202.597 110.111 203.088 110.111 203.696C110.111 204.443 109.812 205.035 109.215 205.472C108.617 205.909 107.801 206.128 106.767 206.128ZM113.854 198.096V200.32H111.614V198.096H113.854ZM113.854 203.76V206H111.614V203.76H113.854Z" fill="black"/>
<rect x="40" y="220" width="102" height="24" rx="4" fill="white" fill-opacity="0.01"/>
<mask id="mask0" mask-type="alpha" maskUnits="userSpaceOnUse" x="40" y="220" width="102" height="24">
<rect x="40" y="220" width="102" height="24" rx="4" fill="white"/>
</mask>
<g mask="url(#mask0)">
<rect x="40.5" y="220.5" width="101" height="23" rx="3.5" fill="#FBFBFD" stroke="#EAEDF3"/>
</g>
<path d="M58.6211 231.957C58.6211 232.793 58.4766 233.527 58.1875 234.16C57.8984 234.789 57.4844 235.273 56.9453 235.613C56.4102 235.949 55.793 236.117 55.0938 236.117C54.4023 236.117 53.7852 235.949 53.2422 235.613C52.7031 235.273 52.2852 234.791 51.9883 234.166C51.6953 233.541 51.5469 232.82 51.543 232.004V231.523C51.543 230.691 51.6895 229.957 51.9824 229.32C52.2793 228.684 52.6953 228.197 53.2305 227.861C53.7695 227.521 54.3867 227.352 55.082 227.352C55.7773 227.352 56.3926 227.52 56.9277 227.855C57.4668 228.188 57.8828 228.668 58.1758 229.297C58.4688 229.922 58.6172 230.65 58.6211 231.482V231.957ZM57.1387 231.512C57.1387 230.566 56.959 229.842 56.5996 229.338C56.2441 228.834 55.7383 228.582 55.082 228.582C54.4414 228.582 53.9395 228.834 53.5762 229.338C53.2168 229.838 53.0332 230.547 53.0254 231.465V231.957C53.0254 232.895 53.207 233.619 53.5703 234.131C53.9375 234.643 54.4453 234.898 55.0938 234.898C55.75 234.898 56.2539 234.648 56.6055 234.148C56.9609 233.648 57.1387 232.918 57.1387 231.957V231.512ZM65.0137 232.385H61.5801V236H60.0977V227.469H65.5176V228.664H61.5801V231.201H65.0137V232.385ZM71.6113 232.385H68.1777V236H66.6953V227.469H72.1152V228.664H68.1777V231.201H71.6113V232.385ZM74.8574 236H73.3809V227.469H74.8574V236ZM83.1895 233.223C83.1035 234.133 82.7676 234.844 82.1816 235.355C81.5957 235.863 80.8164 236.117 79.8438 236.117C79.1641 236.117 78.5645 235.957 78.0449 235.637C77.5293 235.312 77.1309 234.854 76.8496 234.26C76.5684 233.666 76.4219 232.977 76.4102 232.191V231.395C76.4102 230.59 76.5527 229.881 76.8379 229.268C77.123 228.654 77.5312 228.182 78.0625 227.85C78.5977 227.518 79.2148 227.352 79.9141 227.352C80.8555 227.352 81.6133 227.607 82.1875 228.119C82.7617 228.631 83.0957 229.354 83.1895 230.287H81.7129C81.6426 229.674 81.4629 229.232 81.1738 228.963C80.8887 228.689 80.4688 228.553 79.9141 228.553C79.2695 228.553 78.7734 228.789 78.4258 229.262C78.082 229.73 77.9062 230.42 77.8984 231.33V232.086C77.8984 233.008 78.0625 233.711 78.3906 234.195C78.7227 234.68 79.207 234.922 79.8438 234.922C80.4258 234.922 80.8633 234.791 81.1562 234.529C81.4492 234.268 81.6348 233.832 81.7129 233.223H83.1895ZM89.5059 232.191H86.002V234.816H90.0977V236H84.5195V227.469H90.0566V228.664H86.002V231.02H89.5059V232.191ZM100.803 233.223C100.717 234.133 100.381 234.844 99.7949 235.355C99.209 235.863 98.4297 236.117 97.457 236.117C96.7773 236.117 96.1777 235.957 95.6582 235.637C95.1426 235.312 94.7441 234.854 94.4629 234.26C94.1816 233.666 94.0352 232.977 94.0234 232.191V231.395C94.0234 230.59 94.166 229.881 94.4512 229.268C94.7363 228.654 95.1445 228.182 95.6758 227.85C96.2109 227.518 96.8281 227.352 97.5273 227.352C98.4688 227.352 99.2266 227.607 99.8008 228.119C100.375 228.631 100.709 229.354 100.803 230.287H99.3262C99.2559 229.674 99.0762 229.232 98.7871 228.963C98.502 228.689 98.082 228.553 97.5273 228.553C96.8828 228.553 96.3867 228.789 96.0391 229.262C95.6953 229.73 95.5195 230.42 95.5117 231.33V232.086C95.5117 233.008 95.6758 233.711 96.0039 234.195C96.3359 234.68 96.8203 234.922 97.457 234.922C98.0391 234.922 98.4766 234.791 98.7695 234.529C99.0625 234.268 99.248 233.832 99.3262 233.223H100.803ZM103.615 234.816H107.488V236H102.133V227.469H103.615V234.816ZM113.611 232.191H110.107V234.816H114.203V236H108.625V227.469H114.162V228.664H110.107V231.02H113.611V232.191ZM120.186 234.014H116.881L116.189 236H114.648L117.871 227.469H119.201L122.43 236H120.883L120.186 234.014ZM117.297 232.818H119.77L118.533 229.279L117.297 232.818ZM130.17 236H128.688L124.885 229.947V236H123.402V227.469H124.885L128.699 233.545V227.469H130.17V236Z" fill="#3E3F42"/>
<rect x="158" y="220" width="102" height="24" rx="4" fill="white" fill-opacity="0.01"/>
<mask id="mask1" mask-type="alpha" maskUnits="userSpaceOnUse" x="158" y="220" width="102" height="24">
<rect x="158" y="220" width="102" height="24" rx="4" fill="white"/>
</mask>
<g mask="url(#mask1)">
<rect x="158.5" y="220.5" width="101" height="23" rx="3.5" fill="#FBFBFD" stroke="#EAEDF3"/>
</g>
<path d="M174.717 232.385H171.283V236H169.801V227.469H175.221V228.664H171.283V231.201H174.717V232.385ZM179.533 232.713H177.881V236H176.398V227.469H179.398C180.383 227.469 181.143 227.689 181.678 228.131C182.213 228.572 182.48 229.211 182.48 230.047C182.48 230.617 182.342 231.096 182.064 231.482C181.791 231.865 181.408 232.16 180.916 232.367L182.832 235.924V236H181.244L179.533 232.713ZM177.881 231.523H179.404C179.904 231.523 180.295 231.398 180.576 231.148C180.857 230.895 180.998 230.549 180.998 230.111C180.998 229.654 180.867 229.301 180.605 229.051C180.348 228.801 179.961 228.672 179.445 228.664H177.881V231.523ZM190.695 231.957C190.695 232.793 190.551 233.527 190.262 234.16C189.973 234.789 189.559 235.273 189.02 235.613C188.484 235.949 187.867 236.117 187.168 236.117C186.477 236.117 185.859 235.949 185.316 235.613C184.777 235.273 184.359 234.791 184.062 234.166C183.77 233.541 183.621 232.82 183.617 232.004V231.523C183.617 230.691 183.764 229.957 184.057 229.32C184.354 228.684 184.77 228.197 185.305 227.861C185.844 227.521 186.461 227.352 187.156 227.352C187.852 227.352 188.467 227.52 189.002 227.855C189.541 228.188 189.957 228.668 190.25 229.297C190.543 229.922 190.691 230.65 190.695 231.482V231.957ZM189.213 231.512C189.213 230.566 189.033 229.842 188.674 229.338C188.318 228.834 187.812 228.582 187.156 228.582C186.516 228.582 186.014 228.834 185.65 229.338C185.291 229.838 185.107 230.547 185.1 231.465V231.957C185.1 232.895 185.281 233.619 185.645 234.131C186.012 234.643 186.52 234.898 187.168 234.898C187.824 234.898 188.328 234.648 188.68 234.148C189.035 233.648 189.213 232.918 189.213 231.957V231.512ZM198.939 236H197.457L193.654 229.947V236H192.172V227.469H193.654L197.469 233.545V227.469H198.939V236ZM206.68 228.664H204.02V236H202.549V228.664H199.912V227.469H206.68V228.664ZM217.25 231.957C217.25 232.793 217.105 233.527 216.816 234.16C216.527 234.789 216.113 235.273 215.574 235.613C215.039 235.949 214.422 236.117 213.723 236.117C213.031 236.117 212.414 235.949 211.871 235.613C211.332 235.273 210.914 234.791 210.617 234.166C210.324 233.541 210.176 232.82 210.172 232.004V231.523C210.172 230.691 210.318 229.957 210.611 229.32C210.908 228.684 211.324 228.197 211.859 227.861C212.398 227.521 213.016 227.352 213.711 227.352C214.406 227.352 215.021 227.52 215.557 227.855C216.096 228.188 216.512 228.668 216.805 229.297C217.098 229.922 217.246 230.65 217.25 231.482V231.957ZM215.768 231.512C215.768 230.566 215.588 229.842 215.229 229.338C214.873 228.834 214.367 228.582 213.711 228.582C213.07 228.582 212.568 228.834 212.205 229.338C211.846 229.838 211.662 230.547 211.654 231.465V231.957C211.654 232.895 211.836 233.619 212.199 234.131C212.566 234.643 213.074 234.898 213.723 234.898C214.379 234.898 214.883 234.648 215.234 234.148C215.59 233.648 215.768 232.918 215.768 231.957V231.512ZM223.643 232.385H220.209V236H218.727V227.469H224.146V228.664H220.209V231.201H223.643V232.385ZM230.24 232.385H226.807V236H225.324V227.469H230.744V228.664H226.807V231.201H230.24V232.385ZM233.486 236H232.01V227.469H233.486V236ZM241.818 233.223C241.732 234.133 241.396 234.844 240.811 235.355C240.225 235.863 239.445 236.117 238.473 236.117C237.793 236.117 237.193 235.957 236.674 235.637C236.158 235.312 235.76 234.854 235.479 234.26C235.197 233.666 235.051 232.977 235.039 232.191V231.395C235.039 230.59 235.182 229.881 235.467 229.268C235.752 228.654 236.16 228.182 236.691 227.85C237.227 227.518 237.844 227.352 238.543 227.352C239.484 227.352 240.242 227.607 240.816 228.119C241.391 228.631 241.725 229.354 241.818 230.287H240.342C240.271 229.674 240.092 229.232 239.803 228.963C239.518 228.689 239.098 228.553 238.543 228.553C237.898 228.553 237.402 228.789 237.055 229.262C236.711 229.73 236.535 230.42 236.527 231.33V232.086C236.527 233.008 236.691 233.711 237.02 234.195C237.352 234.68 237.836 234.922 238.473 234.922C239.055 234.922 239.492 234.791 239.785 234.529C240.078 234.268 240.264 233.832 240.342 233.223H241.818ZM248.135 232.191H244.631V234.816H248.727V236H243.148V227.469H248.686V228.664H244.631V231.02H248.135V232.191Z" fill="#3E3F42"/>
<rect x="40" y="260" width="102" height="24" rx="4" fill="white" fill-opacity="0.01"/>
<mask id="mask2" mask-type="alpha" maskUnits="userSpaceOnUse" x="40" y="260" width="102" height="24">
<rect x="40" y="260" width="102" height="24" rx="4" fill="white"/>
</mask>
<g mask="url(#mask2)">
<rect x="40.5" y="260.5" width="101" height="23" rx="3.5" fill="#FBFBFD" stroke="#EAEDF3"/>
</g>
<path d="M65.5625 276H64.0859V272.209H60.2715V276H58.7891V267.469H60.2715V271.02H64.0859V267.469H65.5625V276ZM72.2012 274.014H68.8965L68.2051 276H66.6641L69.8867 267.469H71.2168L74.4453 276H72.8984L72.2012 274.014ZM69.3125 272.818H71.7852L70.5488 269.279L69.3125 272.818ZM76.9004 272.83V276H75.418V267.469H78.6816C79.6348 267.469 80.3906 267.717 80.9492 268.213C81.5117 268.709 81.793 269.365 81.793 270.182C81.793 271.018 81.5176 271.668 80.9668 272.133C80.4199 272.598 79.6523 272.83 78.6641 272.83H76.9004ZM76.9004 271.641H78.6816C79.209 271.641 79.6113 271.518 79.8887 271.271C80.166 271.021 80.3047 270.662 80.3047 270.193C80.3047 269.732 80.1641 269.365 79.8828 269.092C79.6016 268.814 79.2148 268.672 78.7227 268.664H76.9004V271.641ZM84.5762 272.83V276H83.0938V267.469H86.3574C87.3105 267.469 88.0664 267.717 88.625 268.213C89.1875 268.709 89.4688 269.365 89.4688 270.182C89.4688 271.018 89.1934 271.668 88.6426 272.133C88.0957 272.598 87.3281 272.83 86.3398 272.83H84.5762ZM84.5762 271.641H86.3574C86.8848 271.641 87.2871 271.518 87.5645 271.271C87.8418 271.021 87.9805 270.662 87.9805 270.193C87.9805 269.732 87.8398 269.365 87.5586 269.092C87.2773 268.814 86.8906 268.672 86.3984 268.664H84.5762V271.641ZM92.334 276H90.8574V267.469H92.334V276ZM100.924 276H99.4414L95.6387 269.947V276H94.1562V267.469H95.6387L99.4531 273.545V267.469H100.924V276ZM107.662 272.191H104.158V274.816H108.254V276H102.676V267.469H108.213V268.664H104.158V271.02H107.662V272.191ZM113.92 273.803C113.92 273.428 113.787 273.139 113.521 272.936C113.26 272.732 112.785 272.527 112.098 272.32C111.41 272.113 110.863 271.883 110.457 271.629C109.68 271.141 109.291 270.504 109.291 269.719C109.291 269.031 109.57 268.465 110.129 268.02C110.691 267.574 111.42 267.352 112.314 267.352C112.908 267.352 113.438 267.461 113.902 267.68C114.367 267.898 114.732 268.211 114.998 268.617C115.264 269.02 115.396 269.467 115.396 269.959H113.92C113.92 269.514 113.779 269.166 113.498 268.916C113.221 268.662 112.822 268.535 112.303 268.535C111.818 268.535 111.441 268.639 111.172 268.846C110.906 269.053 110.773 269.342 110.773 269.713C110.773 270.025 110.918 270.287 111.207 270.498C111.496 270.705 111.973 270.908 112.637 271.107C113.301 271.303 113.834 271.527 114.236 271.781C114.639 272.031 114.934 272.32 115.121 272.648C115.309 272.973 115.402 273.354 115.402 273.791C115.402 274.502 115.129 275.068 114.582 275.49C114.039 275.908 113.301 276.117 112.367 276.117C111.75 276.117 111.182 276.004 110.662 275.777C110.146 275.547 109.744 275.23 109.455 274.828C109.17 274.426 109.027 273.957 109.027 273.422H110.51C110.51 273.906 110.67 274.281 110.99 274.547C111.311 274.812 111.77 274.945 112.367 274.945C112.883 274.945 113.27 274.842 113.527 274.635C113.789 274.424 113.92 274.146 113.92 273.803ZM121.162 273.803C121.162 273.428 121.029 273.139 120.764 272.936C120.502 272.732 120.027 272.527 119.34 272.32C118.652 272.113 118.105 271.883 117.699 271.629C116.922 271.141 116.533 270.504 116.533 269.719C116.533 269.031 116.812 268.465 117.371 268.02C117.934 267.574 118.662 267.352 119.557 267.352C120.15 267.352 120.68 267.461 121.145 267.68C121.609 267.898 121.975 268.211 122.24 268.617C122.506 269.02 122.639 269.467 122.639 269.959H121.162C121.162 269.514 121.021 269.166 120.74 268.916C120.463 268.662 120.064 268.535 119.545 268.535C119.061 268.535 118.684 268.639 118.414 268.846C118.148 269.053 118.016 269.342 118.016 269.713C118.016 270.025 118.16 270.287 118.449 270.498C118.738 270.705 119.215 270.908 119.879 271.107C120.543 271.303 121.076 271.527 121.479 271.781C121.881 272.031 122.176 272.32 122.363 272.648C122.551 272.973 122.645 273.354 122.645 273.791C122.645 274.502 122.371 275.068 121.824 275.49C121.281 275.908 120.543 276.117 119.609 276.117C118.992 276.117 118.424 276.004 117.904 275.777C117.389 275.547 116.986 275.23 116.697 274.828C116.412 274.426 116.27 273.957 116.27 273.422H117.752C117.752 273.906 117.912 274.281 118.232 274.547C118.553 274.812 119.012 274.945 119.609 274.945C120.125 274.945 120.512 274.842 120.77 274.635C121.031 274.424 121.162 274.146 121.162 273.803Z" fill="#3E3F42"/>
<rect x="158" y="260" width="102" height="24" rx="4" fill="white" fill-opacity="0.01"/>
<mask id="mask3" mask-type="alpha" maskUnits="userSpaceOnUse" x="158" y="260" width="102" height="24">
<rect x="158" y="260" width="102" height="24" rx="4" fill="white"/>
</mask>
<g mask="url(#mask3)">
<rect x="158.5" y="260.5" width="101" height="23" rx="3.5" fill="#FBFBFD" stroke="#EAEDF3"/>
</g>
<path d="M179.398 267.469L181.859 274.008L184.314 267.469H186.23V276H184.754V273.188L184.9 269.426L182.381 276H181.32L178.807 269.432L178.953 273.188V276H177.477V267.469H179.398ZM192.869 274.014H189.564L188.873 276H187.332L190.555 267.469H191.885L195.113 276H193.566L192.869 274.014ZM189.98 272.818H192.453L191.217 269.279L189.98 272.818ZM202.854 276H201.371L197.568 269.947V276H196.086V267.469H197.568L201.383 273.545V267.469H202.854V276ZM209.486 274.014H206.182L205.49 276H203.949L207.172 267.469H208.502L211.73 276H210.184L209.486 274.014ZM206.598 272.818H209.07L207.834 269.279L206.598 272.818ZM219.113 274.893C218.805 275.295 218.377 275.6 217.83 275.807C217.283 276.014 216.662 276.117 215.967 276.117C215.252 276.117 214.619 275.955 214.068 275.631C213.518 275.307 213.092 274.844 212.791 274.242C212.494 273.637 212.34 272.932 212.328 272.127V271.459C212.328 270.17 212.637 269.164 213.254 268.441C213.871 267.715 214.732 267.352 215.838 267.352C216.787 267.352 217.541 267.586 218.1 268.055C218.658 268.523 218.994 269.199 219.107 270.082H217.654C217.49 269.055 216.895 268.541 215.867 268.541C215.203 268.541 214.697 268.781 214.35 269.262C214.006 269.738 213.828 270.439 213.816 271.365V272.021C213.816 272.943 214.01 273.66 214.396 274.172C214.787 274.68 215.328 274.934 216.02 274.934C216.777 274.934 217.316 274.762 217.637 274.418V272.748H215.879V271.623H219.113V274.893ZM225.729 272.191H222.225V274.816H226.32V276H220.742V267.469H226.279V268.664H222.225V271.02H225.729V272.191ZM230.662 272.713H229.01V276H227.527V267.469H230.527C231.512 267.469 232.271 267.689 232.807 268.131C233.342 268.572 233.609 269.211 233.609 270.047C233.609 270.617 233.471 271.096 233.193 271.482C232.92 271.865 232.537 272.16 232.045 272.367L233.961 275.924V276H232.373L230.662 272.713ZM229.01 271.523H230.533C231.033 271.523 231.424 271.398 231.705 271.148C231.986 270.895 232.127 270.549 232.127 270.111C232.127 269.654 231.996 269.301 231.734 269.051C231.477 268.801 231.09 268.672 230.574 268.664H229.01V271.523ZM239.475 273.803C239.475 273.428 239.342 273.139 239.076 272.936C238.814 272.732 238.34 272.527 237.652 272.32C236.965 272.113 236.418 271.883 236.012 271.629C235.234 271.141 234.846 270.504 234.846 269.719C234.846 269.031 235.125 268.465 235.684 268.02C236.246 267.574 236.975 267.352 237.869 267.352C238.463 267.352 238.992 267.461 239.457 267.68C239.922 267.898 240.287 268.211 240.553 268.617C240.818 269.02 240.951 269.467 240.951 269.959H239.475C239.475 269.514 239.334 269.166 239.053 268.916C238.775 268.662 238.377 268.535 237.857 268.535C237.373 268.535 236.996 268.639 236.727 268.846C236.461 269.053 236.328 269.342 236.328 269.713C236.328 270.025 236.473 270.287 236.762 270.498C237.051 270.705 237.527 270.908 238.191 271.107C238.855 271.303 239.389 271.527 239.791 271.781C240.193 272.031 240.488 272.32 240.676 272.648C240.863 272.973 240.957 273.354 240.957 273.791C240.957 274.502 240.684 275.068 240.137 275.49C239.594 275.908 238.855 276.117 237.922 276.117C237.305 276.117 236.736 276.004 236.217 275.777C235.701 275.547 235.299 275.23 235.01 274.828C234.725 274.426 234.582 273.957 234.582 273.422H236.064C236.064 273.906 236.225 274.281 236.545 274.547C236.865 274.812 237.324 274.945 237.922 274.945C238.438 274.945 238.824 274.842 239.082 274.635C239.344 274.424 239.475 274.146 239.475 273.803Z" fill="#3E3F42"/>
<rect x="276" y="220" width="102" height="24" rx="4" fill="white" fill-opacity="0.01"/>
<mask id="mask4" mask-type="alpha" maskUnits="userSpaceOnUse" x="276" y="220" width="102" height="24">
<rect x="276" y="220" width="102" height="24" rx="4" fill="white"/>
</mask>
<g mask="url(#mask4)">
<rect x="276.5" y="220.5" width="101" height="23" rx="3.5" fill="#FBFBFD" stroke="#EAEDF3"/>
</g>
<path d="M298.506 234.014H295.201L294.51 236H292.969L296.191 227.469H297.521L300.75 236H299.203L298.506 234.014ZM295.617 232.818H298.09L296.854 229.279L295.617 232.818ZM303.205 232.83V236H301.723V227.469H304.986C305.939 227.469 306.695 227.717 307.254 228.213C307.816 228.709 308.098 229.365 308.098 230.182C308.098 231.018 307.822 231.668 307.271 232.133C306.725 232.598 305.957 232.83 304.969 232.83H303.205ZM303.205 231.641H304.986C305.514 231.641 305.916 231.518 306.193 231.271C306.471 231.021 306.609 230.662 306.609 230.193C306.609 229.732 306.469 229.365 306.188 229.092C305.906 228.814 305.52 228.672 305.027 228.664H303.205V231.641ZM310.881 232.83V236H309.398V227.469H312.662C313.615 227.469 314.371 227.717 314.93 228.213C315.492 228.709 315.773 229.365 315.773 230.182C315.773 231.018 315.498 231.668 314.947 232.133C314.4 232.598 313.633 232.83 312.645 232.83H310.881ZM310.881 231.641H312.662C313.189 231.641 313.592 231.518 313.869 231.271C314.146 231.021 314.285 230.662 314.285 230.193C314.285 229.732 314.145 229.365 313.863 229.092C313.582 228.814 313.195 228.672 312.703 228.664H310.881V231.641ZM320.062 236V227.469H322.582C323.336 227.469 324.004 227.637 324.586 227.973C325.172 228.309 325.625 228.785 325.945 229.402C326.266 230.02 326.426 230.727 326.426 231.523V231.951C326.426 232.76 326.264 233.471 325.939 234.084C325.619 234.697 325.16 235.17 324.562 235.502C323.969 235.834 323.287 236 322.518 236H320.062ZM321.545 228.664V234.816H322.512C323.289 234.816 323.885 234.574 324.299 234.09C324.717 233.602 324.93 232.902 324.938 231.992V231.518C324.938 230.592 324.736 229.885 324.334 229.396C323.932 228.908 323.348 228.664 322.582 228.664H321.545ZM332.889 232.191H329.385V234.816H333.48V236H327.902V227.469H333.439V228.664H329.385V231.02H332.889V232.191ZM339.146 233.803C339.146 233.428 339.014 233.139 338.748 232.936C338.486 232.732 338.012 232.527 337.324 232.32C336.637 232.113 336.09 231.883 335.684 231.629C334.906 231.141 334.518 230.504 334.518 229.719C334.518 229.031 334.797 228.465 335.355 228.02C335.918 227.574 336.646 227.352 337.541 227.352C338.135 227.352 338.664 227.461 339.129 227.68C339.594 227.898 339.959 228.211 340.225 228.617C340.49 229.02 340.623 229.467 340.623 229.959H339.146C339.146 229.514 339.006 229.166 338.725 228.916C338.447 228.662 338.049 228.535 337.529 228.535C337.045 228.535 336.668 228.639 336.398 228.846C336.133 229.053 336 229.342 336 229.713C336 230.025 336.145 230.287 336.434 230.498C336.723 230.705 337.199 230.908 337.863 231.107C338.527 231.303 339.061 231.527 339.463 231.781C339.865 232.031 340.16 232.32 340.348 232.648C340.535 232.973 340.629 233.354 340.629 233.791C340.629 234.502 340.355 235.068 339.809 235.49C339.266 235.908 338.527 236.117 337.594 236.117C336.977 236.117 336.408 236.004 335.889 235.777C335.373 235.547 334.971 235.23 334.682 234.828C334.396 234.426 334.254 233.957 334.254 233.422H335.736C335.736 233.906 335.896 234.281 336.217 234.547C336.537 234.812 336.996 234.945 337.594 234.945C338.109 234.945 338.496 234.842 338.754 234.635C339.016 234.424 339.146 234.146 339.146 233.803ZM343.494 236H342.018V227.469H343.494V236ZM351.855 234.893C351.547 235.295 351.119 235.6 350.572 235.807C350.025 236.014 349.404 236.117 348.709 236.117C347.994 236.117 347.361 235.955 346.811 235.631C346.26 235.307 345.834 234.844 345.533 234.242C345.236 233.637 345.082 232.932 345.07 232.127V231.459C345.07 230.17 345.379 229.164 345.996 228.441C346.613 227.715 347.475 227.352 348.58 227.352C349.529 227.352 350.283 227.586 350.842 228.055C351.4 228.523 351.736 229.199 351.85 230.082H350.396C350.232 229.055 349.637 228.541 348.609 228.541C347.945 228.541 347.439 228.781 347.092 229.262C346.748 229.738 346.57 230.439 346.559 231.365V232.021C346.559 232.943 346.752 233.66 347.139 234.172C347.529 234.68 348.07 234.934 348.762 234.934C349.52 234.934 350.059 234.762 350.379 234.418V232.748H348.621V231.623H351.855V234.893ZM360.252 236H358.77L354.967 229.947V236H353.484V227.469H354.967L358.781 233.545V227.469H360.252V236Z" fill="#3E3F42"/>
<g filter="url(#filter0_d)">
<rect x="40" y="22" width="320" height="140" rx="5" fill="#F0F5FA"/>
</g>
<path d="M67.888 138.338V139.584H65.06V142.412H63.828V139.584H61V138.338H63.828V135.51H65.06V138.338H67.888Z" fill="#9CC9DE"/>
<path d="M82.8862 133.032V143H81.5422L76.1662 136.014V143H74.4862V133.032H75.8302L81.1922 140.004V133.032H82.8862ZM91.1166 139.556H86.2446C86.2819 140.312 86.4686 140.872 86.8046 141.236C87.1499 141.591 87.6586 141.768 88.3306 141.768C89.1052 141.768 89.8239 141.516 90.4866 141.012L90.9906 142.216C90.6546 142.487 90.2392 142.706 89.7446 142.874C89.2592 143.033 88.7646 143.112 88.2606 143.112C87.1032 143.112 86.1932 142.785 85.5306 142.132C84.8679 141.479 84.5366 140.583 84.5366 139.444C84.5366 138.725 84.6812 138.086 84.9706 137.526C85.2599 136.966 85.6659 136.532 86.1886 136.224C86.7112 135.907 87.3039 135.748 87.9666 135.748C88.9372 135.748 89.7026 136.065 90.2626 136.7C90.8319 137.325 91.1166 138.189 91.1166 139.29V139.556ZM88.0086 137.008C87.5419 137.008 87.1592 137.148 86.8606 137.428C86.5712 137.699 86.3846 138.095 86.3006 138.618H89.5906C89.5346 138.086 89.3712 137.685 89.1006 137.414C88.8392 137.143 88.4752 137.008 88.0086 137.008ZM103.731 135.93L100.959 143H99.4334L97.6834 138.366L95.9754 143H94.4354L91.6634 135.93H93.4554L95.2754 140.914L97.1094 135.93H98.3694L100.203 140.956L102.023 135.93H103.731ZM117.119 137.61V142.398C116.661 142.622 116.111 142.799 115.467 142.93C114.823 143.061 114.165 143.126 113.493 143.126C112.466 143.126 111.575 142.921 110.819 142.51C110.063 142.099 109.484 141.511 109.083 140.746C108.681 139.981 108.481 139.066 108.481 138.002C108.481 136.957 108.681 136.051 109.083 135.286C109.484 134.521 110.053 133.933 110.791 133.522C111.537 133.111 112.41 132.906 113.409 132.906C114.109 132.906 114.762 133.009 115.369 133.214C115.985 133.419 116.498 133.709 116.909 134.082L116.293 135.398C115.826 135.034 115.369 134.773 114.921 134.614C114.473 134.455 113.983 134.376 113.451 134.376C112.424 134.376 111.645 134.684 111.113 135.3C110.59 135.916 110.329 136.817 110.329 138.002C110.329 139.225 110.599 140.149 111.141 140.774C111.682 141.39 112.489 141.698 113.563 141.698C114.216 141.698 114.86 141.609 115.495 141.432V138.912H113.339V137.61H117.119ZM122.834 135.762C123.105 135.762 123.338 135.799 123.534 135.874L123.52 137.47C123.222 137.349 122.914 137.288 122.596 137.288C121.999 137.288 121.542 137.461 121.224 137.806C120.916 138.151 120.762 138.609 120.762 139.178V143H119.026V137.932C119.026 137.185 118.989 136.518 118.914 135.93H120.552L120.692 137.176C120.87 136.719 121.15 136.369 121.532 136.126C121.915 135.883 122.349 135.762 122.834 135.762ZM127.578 143.112C126.859 143.112 126.225 142.963 125.674 142.664C125.133 142.365 124.713 141.941 124.414 141.39C124.125 140.83 123.98 140.177 123.98 139.43C123.98 138.683 124.125 138.035 124.414 137.484C124.713 136.924 125.133 136.495 125.674 136.196C126.225 135.897 126.859 135.748 127.578 135.748C128.287 135.748 128.913 135.897 129.454 136.196C129.995 136.495 130.411 136.924 130.7 137.484C130.999 138.035 131.148 138.683 131.148 139.43C131.148 140.177 130.999 140.83 130.7 141.39C130.411 141.941 129.995 142.365 129.454 142.664C128.913 142.963 128.287 143.112 127.578 143.112ZM127.564 141.74C128.161 141.74 128.614 141.549 128.922 141.166C129.239 140.774 129.398 140.195 129.398 139.43C129.398 138.674 129.239 138.1 128.922 137.708C128.605 137.307 128.157 137.106 127.578 137.106C126.99 137.106 126.537 137.307 126.22 137.708C125.903 138.1 125.744 138.674 125.744 139.43C125.744 140.195 125.898 140.774 126.206 141.166C126.523 141.549 126.976 141.74 127.564 141.74ZM139.097 135.93V143H137.389V141.908C137.165 142.3 136.866 142.599 136.493 142.804C136.12 143.009 135.69 143.112 135.205 143.112C133.478 143.112 132.615 142.141 132.615 140.2V135.93H134.351V140.214C134.351 140.727 134.454 141.105 134.659 141.348C134.874 141.591 135.2 141.712 135.639 141.712C136.152 141.712 136.563 141.544 136.871 141.208C137.179 140.872 137.333 140.424 137.333 139.864V135.93H139.097ZM145.029 135.748C145.636 135.748 146.172 135.907 146.639 136.224C147.115 136.532 147.484 136.971 147.745 137.54C148.016 138.1 148.151 138.744 148.151 139.472C148.151 140.2 148.02 140.839 147.759 141.39C147.498 141.941 147.129 142.365 146.653 142.664C146.186 142.963 145.645 143.112 145.029 143.112C144.516 143.112 144.058 143.005 143.657 142.79C143.256 142.566 142.948 142.258 142.733 141.866V146.024H140.997V137.932C140.997 137.185 140.96 136.518 140.885 135.93H142.523L142.663 137.148C142.85 136.709 143.153 136.369 143.573 136.126C143.993 135.874 144.478 135.748 145.029 135.748ZM144.553 141.74C145.141 141.74 145.594 141.544 145.911 141.152C146.228 140.76 146.387 140.2 146.387 139.472C146.387 138.735 146.228 138.161 145.911 137.75C145.594 137.33 145.146 137.12 144.567 137.12C143.97 137.12 143.512 137.321 143.195 137.722C142.878 138.123 142.719 138.697 142.719 139.444C142.719 140.181 142.878 140.751 143.195 141.152C143.512 141.544 143.965 141.74 144.553 141.74Z" fill="#9CC9DE"/>
<g clip-path="url(#clip0)">
<path d="M62.232 78V68.032H63.114L69.47 76.502L69.134 76.586V68.032H70.226V78H69.33L62.988 69.544L63.31 69.446V78H62.232ZM72.6773 78V68.032H76.6533C77.68 68.032 78.478 68.2793 79.0473 68.774C79.626 69.2687 79.9153 69.95 79.9153 70.818C79.9153 71.6767 79.626 72.358 79.0473 72.862C78.4686 73.366 77.6706 73.618 76.6533 73.618H73.8253V78H72.6773ZM73.8253 72.666H76.5553C77.2926 72.666 77.848 72.5073 78.2213 72.19C78.5946 71.8633 78.7813 71.406 78.7813 70.818C78.7813 70.23 78.5946 69.7773 78.2213 69.46C77.848 69.1427 77.2926 68.984 76.5553 68.984H73.8253V72.666ZM84.9605 78.112C84.4471 78.112 83.9665 78.07 83.5185 77.986C83.0705 77.8927 82.6551 77.7527 82.2725 77.566C81.8898 77.37 81.5445 77.132 81.2365 76.852L81.6705 75.97C82.1745 76.39 82.6785 76.6887 83.1825 76.866C83.6958 77.0433 84.2931 77.132 84.9745 77.132C85.7678 77.132 86.3838 76.978 86.8225 76.67C87.2611 76.3527 87.4805 75.9093 87.4805 75.34C87.4805 74.9947 87.3685 74.7193 87.1445 74.514C86.9298 74.2993 86.6311 74.1313 86.2485 74.01C85.8751 73.8793 85.4505 73.758 84.9745 73.646C84.4985 73.5433 84.0458 73.4267 83.6165 73.296C83.1871 73.156 82.8045 72.9833 82.4685 72.778C82.1418 72.5727 81.8851 72.3113 81.6985 71.994C81.5118 71.6767 81.4185 71.28 81.4185 70.804C81.4185 70.2347 81.5678 69.7353 81.8665 69.306C82.1651 68.8673 82.5851 68.5267 83.1265 68.284C83.6678 68.0413 84.3071 67.92 85.0445 67.92C85.5018 67.92 85.9405 67.9713 86.3605 68.074C86.7805 68.1673 87.1678 68.3073 87.5225 68.494C87.8865 68.6807 88.2085 68.9093 88.4885 69.18L88.0405 70.062C87.5831 69.6607 87.1118 69.3667 86.6265 69.18C86.1411 68.9933 85.6138 68.9 85.0445 68.9C84.2698 68.9 83.6631 69.0633 83.2245 69.39C82.7858 69.7167 82.5665 70.174 82.5665 70.762C82.5665 71.126 82.6645 71.42 82.8605 71.644C83.0565 71.868 83.3318 72.05 83.6865 72.19C84.0411 72.3207 84.4471 72.442 84.9045 72.554C85.3898 72.666 85.8565 72.7873 86.3045 72.918C86.7525 73.0487 87.1491 73.212 87.4945 73.408C87.8491 73.5947 88.1291 73.842 88.3345 74.15C88.5398 74.4487 88.6425 74.8313 88.6425 75.298C88.6425 75.8673 88.4931 76.362 88.1945 76.782C87.8958 77.202 87.4711 77.5287 86.9205 77.762C86.3698 77.9953 85.7165 78.112 84.9605 78.112Z" fill="#9EA0A5"/>
<path d="M124.344 78V68.032H125.492V78H124.344ZM117.232 78V68.032H118.366V78H117.232ZM117.764 73.422V72.456H124.988V73.422H117.764ZM130.513 78.098C129.887 78.098 129.337 77.9533 128.861 77.664C128.394 77.3653 128.03 76.9453 127.769 76.404C127.517 75.8533 127.391 75.2093 127.391 74.472C127.391 73.7347 127.521 73.0907 127.783 72.54C128.044 71.9893 128.408 71.56 128.875 71.252C129.351 70.944 129.897 70.79 130.513 70.79C131.157 70.79 131.703 70.9487 132.151 71.266C132.599 71.5833 132.902 72.036 133.061 72.624L132.893 72.736V70.958H134.013V78H132.893V76.18L133.061 76.264C132.902 76.852 132.599 77.3047 132.151 77.622C131.703 77.9393 131.157 78.098 130.513 78.098ZM130.737 77.16C131.427 77.16 131.959 76.9267 132.333 76.46C132.706 75.984 132.893 75.312 132.893 74.444C132.893 73.576 132.701 72.9087 132.319 72.442C131.945 71.9753 131.418 71.742 130.737 71.742C130.046 71.742 129.505 71.9847 129.113 72.47C128.73 72.946 128.539 73.6133 128.539 74.472C128.539 75.3307 128.73 75.9933 129.113 76.46C129.505 76.9267 130.046 77.16 130.737 77.16ZM136.205 81.024V72.932C136.205 72.6053 136.196 72.2787 136.177 71.952C136.168 71.616 136.14 71.2847 136.093 70.958H137.171L137.297 72.414L137.185 72.624C137.344 72.036 137.647 71.5833 138.095 71.266C138.543 70.9487 139.085 70.79 139.719 70.79C140.335 70.79 140.877 70.944 141.343 71.252C141.819 71.56 142.188 71.9893 142.449 72.54C142.72 73.0907 142.855 73.7347 142.855 74.472C142.855 75.2093 142.72 75.8533 142.449 76.404C142.188 76.9453 141.824 77.3653 141.357 77.664C140.891 77.9533 140.345 78.098 139.719 78.098C139.085 78.098 138.543 77.9393 138.095 77.622C137.647 77.3047 137.344 76.852 137.185 76.264L137.339 76.124V81.024H136.205ZM139.509 77.16C140.191 77.16 140.723 76.9267 141.105 76.46C141.488 75.9933 141.679 75.3307 141.679 74.472C141.679 73.6133 141.488 72.946 141.105 72.47C140.723 71.9847 140.191 71.742 139.509 71.742C138.809 71.742 138.273 71.9753 137.899 72.442C137.526 72.9087 137.339 73.576 137.339 74.444C137.339 75.312 137.526 75.984 137.899 76.46C138.273 76.9267 138.809 77.16 139.509 77.16ZM144.6 81.024V72.932C144.6 72.6053 144.59 72.2787 144.572 71.952C144.562 71.616 144.534 71.2847 144.488 70.958H145.566L145.692 72.414L145.58 72.624C145.738 72.036 146.042 71.5833 146.49 71.266C146.938 70.9487 147.479 70.79 148.114 70.79C148.73 70.79 149.271 70.944 149.738 71.252C150.214 71.56 150.582 71.9893 150.844 72.54C151.114 73.0907 151.25 73.7347 151.25 74.472C151.25 75.2093 151.114 75.8533 150.844 76.404C150.582 76.9453 150.218 77.3653 149.752 77.664C149.285 77.9533 148.739 78.098 148.114 78.098C147.479 78.098 146.938 77.9393 146.49 77.622C146.042 77.3047 145.738 76.852 145.58 76.264L145.734 76.124V81.024H144.6ZM147.904 77.16C148.585 77.16 149.117 76.9267 149.5 76.46C149.882 75.9933 150.074 75.3307 150.074 74.472C150.074 73.6133 149.882 72.946 149.5 72.47C149.117 71.9847 148.585 71.742 147.904 71.742C147.204 71.742 146.667 71.9753 146.294 72.442C145.92 72.9087 145.734 73.576 145.734 74.444C145.734 75.312 145.92 75.984 146.294 76.46C146.667 76.9267 147.204 77.16 147.904 77.16ZM152.994 78V70.958H154.128V78H152.994ZM152.882 67.976H154.268V69.264H152.882V67.976ZM156.33 78V72.932C156.33 72.6053 156.321 72.2787 156.302 71.952C156.293 71.616 156.265 71.2847 156.218 70.958H157.296L157.422 72.414L157.282 72.526C157.478 71.9567 157.805 71.5273 158.262 71.238C158.72 70.9393 159.247 70.79 159.844 70.79C161.534 70.79 162.378 71.7187 162.378 73.576V78H161.244V73.632C161.244 72.9787 161.114 72.5027 160.852 72.204C160.591 71.896 160.18 71.742 159.62 71.742C158.967 71.742 158.444 71.9427 158.052 72.344C157.66 72.7453 157.464 73.2867 157.464 73.968V78H156.33ZM170.288 77.16C169.98 77.4493 169.583 77.678 169.098 77.846C168.622 78.014 168.132 78.098 167.628 78.098C166.9 78.098 166.27 77.9533 165.738 77.664C165.215 77.3747 164.809 76.9593 164.52 76.418C164.24 75.8673 164.1 75.214 164.1 74.458C164.1 73.73 164.24 73.0907 164.52 72.54C164.8 71.9893 165.187 71.56 165.682 71.252C166.186 70.944 166.764 70.79 167.418 70.79C168.043 70.79 168.58 70.93 169.028 71.21C169.476 71.4807 169.816 71.8727 170.05 72.386C170.292 72.8993 170.414 73.5153 170.414 74.234V74.444H165.094V73.702H169.77L169.406 74.22C169.424 73.3987 169.261 72.7687 168.916 72.33C168.58 71.8913 168.085 71.672 167.432 71.672C166.75 71.672 166.214 71.9147 165.822 72.4C165.439 72.876 165.248 73.5387 165.248 74.388C165.248 75.3027 165.448 75.9933 165.85 76.46C166.26 76.9267 166.858 77.16 167.642 77.16C168.052 77.16 168.444 77.0947 168.818 76.964C169.2 76.824 169.564 76.614 169.91 76.334L170.288 77.16ZM174.515 78.098C173.33 78.098 172.392 77.7947 171.701 77.188L172.079 76.348C172.452 76.6373 172.835 76.852 173.227 76.992C173.628 77.1227 174.072 77.188 174.557 77.188C175.089 77.188 175.49 77.0993 175.761 76.922C176.041 76.7353 176.181 76.4693 176.181 76.124C176.181 75.844 176.088 75.6247 175.901 75.466C175.714 75.298 175.406 75.1627 174.977 75.06L173.787 74.78C173.199 74.6493 172.742 74.416 172.415 74.08C172.098 73.744 171.939 73.3427 171.939 72.876C171.939 72.4653 172.051 72.106 172.275 71.798C172.499 71.4807 172.812 71.2333 173.213 71.056C173.614 70.8787 174.09 70.79 174.641 70.79C175.136 70.79 175.602 70.8693 176.041 71.028C176.48 71.1867 176.848 71.4153 177.147 71.714L176.769 72.54C176.433 72.26 176.088 72.0547 175.733 71.924C175.388 71.784 175.024 71.714 174.641 71.714C174.137 71.714 173.745 71.812 173.465 72.008C173.194 72.204 173.059 72.47 173.059 72.806C173.059 73.0953 173.143 73.324 173.311 73.492C173.488 73.66 173.768 73.7907 174.151 73.884L175.341 74.178C176.004 74.318 176.489 74.5513 176.797 74.878C177.114 75.1953 177.273 75.6013 177.273 76.096C177.273 76.7027 177.026 77.188 176.531 77.552C176.036 77.916 175.364 78.098 174.515 78.098ZM181.46 78.098C180.275 78.098 179.337 77.7947 178.646 77.188L179.024 76.348C179.398 76.6373 179.78 76.852 180.172 76.992C180.574 77.1227 181.017 77.188 181.502 77.188C182.034 77.188 182.436 77.0993 182.706 76.922C182.986 76.7353 183.126 76.4693 183.126 76.124C183.126 75.844 183.033 75.6247 182.846 75.466C182.66 75.298 182.352 75.1627 181.922 75.06L180.732 74.78C180.144 74.6493 179.687 74.416 179.36 74.08C179.043 73.744 178.884 73.3427 178.884 72.876C178.884 72.4653 178.996 72.106 179.22 71.798C179.444 71.4807 179.757 71.2333 180.158 71.056C180.56 70.8787 181.036 70.79 181.586 70.79C182.081 70.79 182.548 70.8693 182.986 71.028C183.425 71.1867 183.794 71.4153 184.092 71.714L183.714 72.54C183.378 72.26 183.033 72.0547 182.678 71.924C182.333 71.784 181.969 71.714 181.586 71.714C181.082 71.714 180.69 71.812 180.41 72.008C180.14 72.204 180.004 72.47 180.004 72.806C180.004 73.0953 180.088 73.324 180.256 73.492C180.434 73.66 180.714 73.7907 181.096 73.884L182.286 74.178C182.949 74.318 183.434 74.5513 183.742 74.878C184.06 75.1953 184.218 75.6013 184.218 76.096C184.218 76.7027 183.971 77.188 183.476 77.552C182.982 77.916 182.31 78.098 181.46 78.098Z" fill="#3E3F42"/>
</g>
<g clip-path="url(#clip1)">
<path d="M65.354 108.098C64.7473 108.098 64.15 107.991 63.562 107.776C62.974 107.552 62.4793 107.249 62.078 106.866L62.512 105.984C62.9693 106.357 63.4313 106.642 63.898 106.838C64.374 107.034 64.8593 107.132 65.354 107.132C66.054 107.132 66.6 106.936 66.992 106.544C67.3933 106.143 67.594 105.601 67.594 104.92C67.594 104.481 67.5053 104.099 67.328 103.772C67.1507 103.436 66.8987 103.175 66.572 102.988C66.2547 102.801 65.8767 102.708 65.438 102.708C64.962 102.708 64.5327 102.806 64.15 103.002C63.7767 103.189 63.4453 103.478 63.156 103.87H62.358V98.032H68.336V98.984H63.506V103.016L63.142 102.974C63.4127 102.582 63.758 102.279 64.178 102.064C64.6073 101.849 65.088 101.742 65.62 101.742C66.2547 101.742 66.8053 101.877 67.272 102.148C67.7387 102.409 68.098 102.778 68.35 103.254C68.602 103.73 68.728 104.281 68.728 104.906C68.728 105.531 68.588 106.087 68.308 106.572C68.0373 107.048 67.65 107.421 67.146 107.692C66.642 107.963 66.0447 108.098 65.354 108.098ZM70.4165 104.71V103.772H74.3785V104.71H70.4165ZM78.9095 108.098C77.7242 108.098 76.7862 107.795 76.0955 107.188L76.4735 106.348C76.8468 106.637 77.2295 106.852 77.6215 106.992C78.0228 107.123 78.4662 107.188 78.9515 107.188C79.4835 107.188 79.8848 107.099 80.1555 106.922C80.4355 106.735 80.5755 106.469 80.5755 106.124C80.5755 105.844 80.4822 105.625 80.2955 105.466C80.1088 105.298 79.8008 105.163 79.3715 105.06L78.1815 104.78C77.5935 104.649 77.1362 104.416 76.8095 104.08C76.4922 103.744 76.3335 103.343 76.3335 102.876C76.3335 102.465 76.4455 102.106 76.6695 101.798C76.8935 101.481 77.2062 101.233 77.6075 101.056C78.0088 100.879 78.4848 100.79 79.0355 100.79C79.5302 100.79 79.9968 100.869 80.4355 101.028C80.8742 101.187 81.2428 101.415 81.5415 101.714L81.1635 102.54C80.8275 102.26 80.4822 102.055 80.1275 101.924C79.7822 101.784 79.4182 101.714 79.0355 101.714C78.5315 101.714 78.1395 101.812 77.8595 102.008C77.5888 102.204 77.4535 102.47 77.4535 102.806C77.4535 103.095 77.5375 103.324 77.7055 103.492C77.8828 103.66 78.1628 103.791 78.5455 103.884L79.7355 104.178C80.3982 104.318 80.8835 104.551 81.1915 104.878C81.5088 105.195 81.6675 105.601 81.6675 106.096C81.6675 106.703 81.4202 107.188 80.9255 107.552C80.4308 107.916 79.7588 108.098 78.9095 108.098ZM82.4125 101.854V100.958H86.9345V101.854H82.4125ZM86.9065 106.992V107.958C86.7478 108.005 86.5891 108.037 86.4305 108.056C86.2811 108.084 86.1131 108.098 85.9265 108.098C85.2731 108.098 84.7505 107.911 84.3585 107.538C83.9758 107.165 83.7845 106.605 83.7845 105.858V99.152L84.9185 98.746V105.704C84.9185 106.077 84.9698 106.367 85.0725 106.572C85.1845 106.777 85.3338 106.922 85.5205 107.006C85.7071 107.081 85.9171 107.118 86.1505 107.118C86.2905 107.118 86.4165 107.109 86.5285 107.09C86.6405 107.071 86.7665 107.039 86.9065 106.992ZM91.003 108.098C90.3777 108.098 89.827 107.953 89.351 107.664C88.8843 107.365 88.5203 106.945 88.259 106.404C88.007 105.853 87.881 105.209 87.881 104.472C87.881 103.735 88.0117 103.091 88.273 102.54C88.5343 101.989 88.8983 101.56 89.365 101.252C89.841 100.944 90.387 100.79 91.003 100.79C91.647 100.79 92.193 100.949 92.641 101.266C93.089 101.583 93.3923 102.036 93.551 102.624L93.383 102.736V100.958H94.503V108H93.383V106.18L93.551 106.264C93.3923 106.852 93.089 107.305 92.641 107.622C92.193 107.939 91.647 108.098 91.003 108.098ZM91.227 107.16C91.9177 107.16 92.4497 106.927 92.823 106.46C93.1963 105.984 93.383 105.312 93.383 104.444C93.383 103.576 93.1917 102.909 92.809 102.442C92.4357 101.975 91.9083 101.742 91.227 101.742C90.5363 101.742 89.995 101.985 89.603 102.47C89.2203 102.946 89.029 103.613 89.029 104.472C89.029 105.331 89.2203 105.993 89.603 106.46C89.995 106.927 90.5363 107.16 91.227 107.16ZM96.6955 108V102.932C96.6955 102.605 96.6862 102.279 96.6675 101.952C96.6582 101.616 96.6302 101.285 96.5835 100.958H97.6615L97.8155 102.694L97.6615 102.652C97.7922 102.036 98.0722 101.574 98.5015 101.266C98.9402 100.949 99.4302 100.79 99.9715 100.79C100.093 100.79 100.205 100.799 100.308 100.818C100.42 100.827 100.522 100.846 100.616 100.874L100.588 101.91C100.373 101.835 100.126 101.798 99.8455 101.798C99.3602 101.798 98.9682 101.905 98.6695 102.12C98.3802 102.335 98.1655 102.61 98.0255 102.946C97.8948 103.273 97.8295 103.618 97.8295 103.982V108H96.6955Z" fill="#9EA0A5"/>
<path d="M117.232 108V98.032H118.184L122.23 107.23H121.698L125.702 98.032H126.654V108H125.59V99.544L126.024 99.6L122.356 108H121.544L117.82 99.6L118.282 99.544L118.296 108H117.232ZM131.675 108.098C131.05 108.098 130.499 107.953 130.023 107.664C129.556 107.365 129.192 106.945 128.931 106.404C128.679 105.853 128.553 105.209 128.553 104.472C128.553 103.735 128.684 103.091 128.945 102.54C129.206 101.989 129.57 101.56 130.037 101.252C130.513 100.944 131.059 100.79 131.675 100.79C132.319 100.79 132.865 100.949 133.313 101.266C133.761 101.583 134.064 102.036 134.223 102.624L134.055 102.736V100.958H135.175V108H134.055V106.18L134.223 106.264C134.064 106.852 133.761 107.305 133.313 107.622C132.865 107.939 132.319 108.098 131.675 108.098ZM131.899 107.16C132.59 107.16 133.122 106.927 133.495 106.46C133.868 105.984 134.055 105.312 134.055 104.444C134.055 103.576 133.864 102.909 133.481 102.442C133.108 101.975 132.58 101.742 131.899 101.742C131.208 101.742 130.667 101.985 130.275 102.47C129.892 102.946 129.701 103.613 129.701 104.472C129.701 105.331 129.892 105.993 130.275 106.46C130.667 106.927 131.208 107.16 131.899 107.16ZM137.367 108V102.932C137.367 102.605 137.358 102.279 137.339 101.952C137.33 101.616 137.302 101.285 137.255 100.958H138.333L138.459 102.414L138.319 102.526C138.515 101.957 138.842 101.527 139.299 101.238C139.757 100.939 140.284 100.79 140.881 100.79C142.571 100.79 143.415 101.719 143.415 103.576V108H142.281V103.632C142.281 102.979 142.151 102.503 141.889 102.204C141.628 101.896 141.217 101.742 140.657 101.742C140.004 101.742 139.481 101.943 139.089 102.344C138.697 102.745 138.501 103.287 138.501 103.968V108H137.367ZM148.259 108.098C147.634 108.098 147.083 107.953 146.607 107.664C146.14 107.365 145.776 106.945 145.515 106.404C145.263 105.853 145.137 105.209 145.137 104.472C145.137 103.735 145.268 103.091 145.529 102.54C145.79 101.989 146.154 101.56 146.621 101.252C147.097 100.944 147.643 100.79 148.259 100.79C148.903 100.79 149.449 100.949 149.897 101.266C150.345 101.583 150.648 102.036 150.807 102.624L150.639 102.736V100.958H151.759V108H150.639V106.18L150.807 106.264C150.648 106.852 150.345 107.305 149.897 107.622C149.449 107.939 148.903 108.098 148.259 108.098ZM148.483 107.16C149.174 107.16 149.706 106.927 150.079 106.46C150.452 105.984 150.639 105.312 150.639 104.444C150.639 103.576 150.448 102.909 150.065 102.442C149.692 101.975 149.164 101.742 148.483 101.742C147.792 101.742 147.251 101.985 146.859 102.47C146.476 102.946 146.285 103.613 146.285 104.472C146.285 105.331 146.476 105.993 146.859 106.46C147.251 106.927 147.792 107.16 148.483 107.16ZM157.045 111.122C155.981 111.122 155.057 110.879 154.273 110.394L154.469 109.47C154.908 109.722 155.323 109.904 155.715 110.016C156.107 110.128 156.551 110.184 157.045 110.184C157.717 110.184 158.226 110.002 158.571 109.638C158.926 109.283 159.103 108.751 159.103 108.042V106.138L159.257 105.956C159.145 106.329 158.968 106.656 158.725 106.936C158.492 107.207 158.203 107.417 157.857 107.566C157.512 107.715 157.12 107.79 156.681 107.79C156.056 107.79 155.505 107.645 155.029 107.356C154.563 107.057 154.194 106.647 153.923 106.124C153.662 105.601 153.531 104.99 153.531 104.29C153.531 103.59 153.662 102.979 153.923 102.456C154.194 101.933 154.563 101.527 155.029 101.238C155.505 100.939 156.056 100.79 156.681 100.79C157.335 100.79 157.885 100.953 158.333 101.28C158.791 101.597 159.099 102.045 159.257 102.624L159.089 102.47V100.958H160.223V107.944C160.223 108.999 159.953 109.792 159.411 110.324C158.879 110.856 158.091 111.122 157.045 111.122ZM156.905 106.838C157.587 106.838 158.119 106.614 158.501 106.166C158.893 105.709 159.089 105.083 159.089 104.29C159.089 103.497 158.893 102.876 158.501 102.428C158.119 101.971 157.587 101.742 156.905 101.742C156.215 101.742 155.669 101.971 155.267 102.428C154.875 102.876 154.679 103.497 154.679 104.29C154.679 105.093 154.875 105.718 155.267 106.166C155.669 106.614 156.215 106.838 156.905 106.838ZM168.169 107.16C167.861 107.449 167.464 107.678 166.979 107.846C166.503 108.014 166.013 108.098 165.509 108.098C164.781 108.098 164.151 107.953 163.619 107.664C163.096 107.375 162.69 106.959 162.401 106.418C162.121 105.867 161.981 105.214 161.981 104.458C161.981 103.73 162.121 103.091 162.401 102.54C162.681 101.989 163.068 101.56 163.563 101.252C164.067 100.944 164.645 100.79 165.299 100.79C165.924 100.79 166.461 100.93 166.909 101.21C167.357 101.481 167.697 101.873 167.931 102.386C168.173 102.899 168.295 103.515 168.295 104.234V104.444H162.975V103.702H167.651L167.287 104.22C167.305 103.399 167.142 102.769 166.797 102.33C166.461 101.891 165.966 101.672 165.313 101.672C164.631 101.672 164.095 101.915 163.703 102.4C163.32 102.876 163.129 103.539 163.129 104.388C163.129 105.303 163.329 105.993 163.731 106.46C164.141 106.927 164.739 107.16 165.523 107.16C165.933 107.16 166.325 107.095 166.699 106.964C167.081 106.824 167.445 106.614 167.791 106.334L168.169 107.16ZM170.016 108V102.932C170.016 102.605 170.006 102.279 169.988 101.952C169.978 101.616 169.95 101.285 169.904 100.958H170.982L171.136 102.694L170.982 102.652C171.112 102.036 171.392 101.574 171.822 101.266C172.26 100.949 172.75 100.79 173.292 100.79C173.413 100.79 173.525 100.799 173.628 100.818C173.74 100.827 173.842 100.846 173.936 100.874L173.908 101.91C173.693 101.835 173.446 101.798 173.166 101.798C172.68 101.798 172.288 101.905 171.99 102.12C171.7 102.335 171.486 102.61 171.346 102.946C171.215 103.273 171.15 103.618 171.15 103.982V108H170.016ZM177.4 108.098C176.214 108.098 175.276 107.795 174.586 107.188L174.964 106.348C175.337 106.637 175.72 106.852 176.112 106.992C176.513 107.123 176.956 107.188 177.442 107.188C177.974 107.188 178.375 107.099 178.646 106.922C178.926 106.735 179.066 106.469 179.066 106.124C179.066 105.844 178.972 105.625 178.786 105.466C178.599 105.298 178.291 105.163 177.862 105.06L176.672 104.78C176.084 104.649 175.626 104.416 175.3 104.08C174.982 103.744 174.824 103.343 174.824 102.876C174.824 102.465 174.936 102.106 175.16 101.798C175.384 101.481 175.696 101.233 176.098 101.056C176.499 100.879 176.975 100.79 177.526 100.79C178.02 100.79 178.487 100.869 178.926 101.028C179.364 101.187 179.733 101.415 180.032 101.714L179.654 102.54C179.318 102.26 178.972 102.055 178.618 101.924C178.272 101.784 177.908 101.714 177.526 101.714C177.022 101.714 176.63 101.812 176.35 102.008C176.079 102.204 175.944 102.47 175.944 102.806C175.944 103.095 176.028 103.324 176.196 103.492C176.373 103.66 176.653 103.791 177.036 103.884L178.226 104.178C178.888 104.318 179.374 104.551 179.682 104.878C179.999 105.195 180.158 105.601 180.158 106.096C180.158 106.703 179.91 107.188 179.416 107.552C178.921 107.916 178.249 108.098 177.4 108.098Z" fill="#3E3F42"/>
</g>
<path d="M71.794 39.032V49H70.198V42.812L67.552 49H66.362L63.702 42.882V49H62.106V39.032H63.534L66.964 46.83L70.366 39.032H71.794ZM80.6085 41.93V49H78.8865V47.866C78.6719 48.258 78.3639 48.566 77.9625 48.79C77.5612 49.0047 77.1039 49.112 76.5905 49.112C75.9745 49.112 75.4285 48.9627 74.9525 48.664C74.4765 48.3653 74.1079 47.9407 73.8465 47.39C73.5852 46.8393 73.4545 46.2 73.4545 45.472C73.4545 44.744 73.5852 44.1 73.8465 43.54C74.1172 42.9707 74.4905 42.532 74.9665 42.224C75.4425 41.9067 75.9839 41.748 76.5905 41.748C77.1039 41.748 77.5612 41.86 77.9625 42.084C78.3639 42.2987 78.6719 42.602 78.8865 42.994V41.93H80.6085ZM77.0665 47.74C77.6452 47.74 78.0932 47.5393 78.4105 47.138C78.7279 46.7367 78.8865 46.172 78.8865 45.444C78.8865 44.6973 78.7279 44.1233 78.4105 43.722C78.0932 43.3207 77.6405 43.12 77.0525 43.12C76.4739 43.12 76.0212 43.33 75.6945 43.75C75.3772 44.1607 75.2185 44.7347 75.2185 45.472C75.2185 46.2 75.3772 46.76 75.6945 47.152C76.0212 47.544 76.4785 47.74 77.0665 47.74ZM86.3225 41.762C86.5932 41.762 86.8265 41.7993 87.0225 41.874L87.0085 43.47C86.7098 43.3487 86.4018 43.288 86.0845 43.288C85.4872 43.288 85.0298 43.4607 84.7125 43.806C84.4045 44.1513 84.2505 44.6087 84.2505 45.178V49H82.5145V43.932C82.5145 43.1853 82.4772 42.518 82.4025 41.93H84.0405L84.1805 43.176C84.3578 42.7187 84.6378 42.3687 85.0205 42.126C85.4032 41.8833 85.8372 41.762 86.3225 41.762ZM92.8269 49L89.7329 45.738V49H87.9969V38.696H89.7329V45.052L92.6449 41.944H94.7589L91.5809 45.318L95.0109 49H92.8269ZM101.8 45.556H96.9282C96.9655 46.312 97.1522 46.872 97.4882 47.236C97.8335 47.5907 98.3422 47.768 99.0142 47.768C99.7888 47.768 100.507 47.516 101.17 47.012L101.674 48.216C101.338 48.4867 100.923 48.706 100.428 48.874C99.9428 49.0327 99.4482 49.112 98.9442 49.112C97.7868 49.112 96.8768 48.7853 96.2142 48.132C95.5515 47.4787 95.2202 46.5827 95.2202 45.444C95.2202 44.7253 95.3648 44.086 95.6542 43.526C95.9435 42.966 96.3495 42.532 96.8722 42.224C97.3948 41.9067 97.9875 41.748 98.6502 41.748C99.6208 41.748 100.386 42.0653 100.946 42.7C101.515 43.3253 101.8 44.1887 101.8 45.29V45.556ZM98.6922 43.008C98.2255 43.008 97.8428 43.148 97.5442 43.428C97.2548 43.6987 97.0682 44.0953 96.9842 44.618H100.274C100.218 44.086 100.055 43.6847 99.7842 43.414C99.5228 43.1433 99.1588 43.008 98.6922 43.008ZM105.412 43.246V46.41C105.412 47.2407 105.8 47.656 106.574 47.656C106.789 47.656 107.022 47.6187 107.274 47.544V48.93C106.966 49.042 106.593 49.098 106.154 49.098C105.352 49.098 104.736 48.874 104.306 48.426C103.877 47.978 103.662 47.334 103.662 46.494V43.246H102.304V41.93H103.662V40.208L105.412 39.62V41.93H107.288V43.246H105.412ZM108.491 41.93H110.227V49H108.491V41.93ZM110.325 38.724V40.446H108.379V38.724H110.325ZM116.187 41.748C117.877 41.748 118.721 42.7187 118.721 44.66V49H116.971V44.744C116.971 44.184 116.864 43.778 116.649 43.526C116.435 43.2647 116.103 43.134 115.655 43.134C115.123 43.134 114.694 43.3067 114.367 43.652C114.041 43.988 113.877 44.436 113.877 44.996V49H112.141V43.932C112.141 43.1853 112.104 42.518 112.029 41.93H113.667L113.793 43.092C114.036 42.6627 114.363 42.3313 114.773 42.098C115.193 41.8647 115.665 41.748 116.187 41.748ZM127.409 41.93V48.776C127.409 49.8773 127.106 50.7127 126.499 51.282C125.892 51.8513 125.001 52.136 123.825 52.136C122.733 52.136 121.772 51.9073 120.941 51.45L121.221 50.12C122.08 50.568 122.934 50.792 123.783 50.792C125.043 50.792 125.673 50.1667 125.673 48.916V47.516C125.458 47.8987 125.146 48.2113 124.735 48.454C124.324 48.6873 123.862 48.804 123.349 48.804C122.733 48.804 122.182 48.6593 121.697 48.37C121.221 48.0713 120.848 47.656 120.577 47.124C120.316 46.5827 120.185 45.9667 120.185 45.276C120.185 44.5853 120.316 43.974 120.577 43.442C120.848 42.9007 121.221 42.4853 121.697 42.196C122.182 41.8973 122.733 41.748 123.349 41.748C123.872 41.748 124.334 41.86 124.735 42.084C125.146 42.2987 125.458 42.602 125.673 42.994V41.93H127.409ZM123.811 47.432C124.39 47.432 124.842 47.2407 125.169 46.858C125.505 46.4753 125.673 45.948 125.673 45.276C125.673 44.604 125.51 44.0767 125.183 43.694C124.856 43.3113 124.399 43.12 123.811 43.12C123.232 43.12 122.775 43.3113 122.439 43.694C122.112 44.0767 121.949 44.604 121.949 45.276C121.949 45.948 122.112 46.4753 122.439 46.858C122.775 47.2407 123.232 47.432 123.811 47.432ZM135.367 43.246V46.41C135.367 47.2407 135.755 47.656 136.529 47.656C136.744 47.656 136.977 47.6187 137.229 47.544V48.93C136.921 49.042 136.548 49.098 136.109 49.098C135.307 49.098 134.691 48.874 134.261 48.426C133.832 47.978 133.617 47.334 133.617 46.494V43.246H132.259V41.93H133.617V40.208L135.367 39.62V41.93H137.243V43.246H135.367ZM144.634 45.556H139.762C139.799 46.312 139.986 46.872 140.322 47.236C140.667 47.5907 141.176 47.768 141.848 47.768C142.623 47.768 143.341 47.516 144.004 47.012L144.508 48.216C144.172 48.4867 143.757 48.706 143.262 48.874C142.777 49.0327 142.282 49.112 141.778 49.112C140.621 49.112 139.711 48.7853 139.048 48.132C138.385 47.4787 138.054 46.5827 138.054 45.444C138.054 44.7253 138.199 44.086 138.488 43.526C138.777 42.966 139.183 42.532 139.706 42.224C140.229 41.9067 140.821 41.748 141.484 41.748C142.455 41.748 143.22 42.0653 143.78 42.7C144.349 43.3253 144.634 44.1887 144.634 45.29V45.556ZM141.526 43.008C141.059 43.008 140.677 43.148 140.378 43.428C140.089 43.6987 139.902 44.0953 139.818 44.618H143.108C143.052 44.086 142.889 43.6847 142.618 43.414C142.357 43.1433 141.993 43.008 141.526 43.008ZM152.878 41.93V49H151.156V47.866C150.941 48.258 150.633 48.566 150.232 48.79C149.831 49.0047 149.373 49.112 148.86 49.112C148.244 49.112 147.698 48.9627 147.222 48.664C146.746 48.3653 146.377 47.9407 146.116 47.39C145.855 46.8393 145.724 46.2 145.724 45.472C145.724 44.744 145.855 44.1 146.116 43.54C146.387 42.9707 146.76 42.532 147.236 42.224C147.712 41.9067 148.253 41.748 148.86 41.748C149.373 41.748 149.831 41.86 150.232 42.084C150.633 42.2987 150.941 42.602 151.156 42.994V41.93H152.878ZM149.336 47.74C149.915 47.74 150.363 47.5393 150.68 47.138C150.997 46.7367 151.156 46.172 151.156 45.444C151.156 44.6973 150.997 44.1233 150.68 43.722C150.363 43.3207 149.91 43.12 149.322 43.12C148.743 43.12 148.291 43.33 147.964 43.75C147.647 44.1607 147.488 44.7347 147.488 45.472C147.488 46.2 147.647 46.76 147.964 47.152C148.291 47.544 148.748 47.74 149.336 47.74ZM163.128 41.748C163.931 41.748 164.528 41.9907 164.92 42.476C165.312 42.952 165.508 43.68 165.508 44.66V49H163.758V44.716C163.758 44.156 163.665 43.7547 163.478 43.512C163.301 43.26 163.002 43.134 162.582 43.134C162.097 43.134 161.714 43.3067 161.434 43.652C161.163 43.988 161.028 44.4547 161.028 45.052V49H159.278V44.716C159.278 44.1653 159.18 43.764 158.984 43.512C158.797 43.26 158.499 43.134 158.088 43.134C157.603 43.134 157.22 43.3067 156.94 43.652C156.66 43.988 156.52 44.4547 156.52 45.052V49H154.784V43.932C154.784 43.1853 154.747 42.518 154.672 41.93H156.31L156.436 43.05C156.641 42.63 156.935 42.308 157.318 42.084C157.71 41.86 158.158 41.748 158.662 41.748C159.745 41.748 160.449 42.196 160.776 43.092C161 42.672 161.317 42.3453 161.728 42.112C162.148 41.8693 162.615 41.748 163.128 41.748ZM178.05 41.93V48.776C178.05 49.8773 177.746 50.7127 177.14 51.282C176.533 51.8513 175.642 52.136 174.466 52.136C173.374 52.136 172.412 51.9073 171.582 51.45L171.862 50.12C172.72 50.568 173.574 50.792 174.424 50.792C175.684 50.792 176.314 50.1667 176.314 48.916V47.516C176.099 47.8987 175.786 48.2113 175.376 48.454C174.965 48.6873 174.503 48.804 173.99 48.804C173.374 48.804 172.823 48.6593 172.338 48.37C171.862 48.0713 171.488 47.656 171.218 47.124C170.956 46.5827 170.826 45.9667 170.826 45.276C170.826 44.5853 170.956 43.974 171.218 43.442C171.488 42.9007 171.862 42.4853 172.338 42.196C172.823 41.8973 173.374 41.748 173.99 41.748C174.512 41.748 174.974 41.86 175.376 42.084C175.786 42.2987 176.099 42.602 176.314 42.994V41.93H178.05ZM174.452 47.432C175.03 47.432 175.483 47.2407 175.81 46.858C176.146 46.4753 176.314 45.948 176.314 45.276C176.314 44.604 176.15 44.0767 175.824 43.694C175.497 43.3113 175.04 43.12 174.452 43.12C173.873 43.12 173.416 43.3113 173.08 43.694C172.753 44.0767 172.59 44.604 172.59 45.276C172.59 45.948 172.753 46.4753 173.08 46.858C173.416 47.2407 173.873 47.432 174.452 47.432ZM183.748 41.762C184.019 41.762 184.252 41.7993 184.448 41.874L184.434 43.47C184.136 43.3487 183.828 43.288 183.51 43.288C182.913 43.288 182.456 43.4607 182.138 43.806C181.83 44.1513 181.676 44.6087 181.676 45.178V49H179.94V43.932C179.94 43.1853 179.903 42.518 179.828 41.93H181.466L181.606 43.176C181.784 42.7187 182.064 42.3687 182.446 42.126C182.829 41.8833 183.263 41.762 183.748 41.762ZM188.492 49.112C187.773 49.112 187.139 48.9627 186.588 48.664C186.047 48.3653 185.627 47.9407 185.328 47.39C185.039 46.83 184.894 46.1767 184.894 45.43C184.894 44.6833 185.039 44.0347 185.328 43.484C185.627 42.924 186.047 42.4947 186.588 42.196C187.139 41.8973 187.773 41.748 188.492 41.748C189.201 41.748 189.827 41.8973 190.368 42.196C190.909 42.4947 191.325 42.924 191.614 43.484C191.913 44.0347 192.062 44.6833 192.062 45.43C192.062 46.1767 191.913 46.83 191.614 47.39C191.325 47.9407 190.909 48.3653 190.368 48.664C189.827 48.9627 189.201 49.112 188.492 49.112ZM188.478 47.74C189.075 47.74 189.528 47.5487 189.836 47.166C190.153 46.774 190.312 46.1953 190.312 45.43C190.312 44.674 190.153 44.1 189.836 43.708C189.519 43.3067 189.071 43.106 188.492 43.106C187.904 43.106 187.451 43.3067 187.134 43.708C186.817 44.1 186.658 44.674 186.658 45.43C186.658 46.1953 186.812 46.774 187.12 47.166C187.437 47.5487 187.89 47.74 188.478 47.74ZM200.011 41.93V49H198.303V47.908C198.079 48.3 197.78 48.5987 197.407 48.804C197.034 49.0093 196.604 49.112 196.119 49.112C194.392 49.112 193.529 48.1413 193.529 46.2V41.93H195.265V46.214C195.265 46.7273 195.368 47.1053 195.573 47.348C195.788 47.5907 196.114 47.712 196.553 47.712C197.066 47.712 197.477 47.544 197.785 47.208C198.093 46.872 198.247 46.424 198.247 45.864V41.93H200.011ZM205.943 41.748C206.55 41.748 207.086 41.9067 207.553 42.224C208.029 42.532 208.398 42.9707 208.659 43.54C208.93 44.1 209.065 44.744 209.065 45.472C209.065 46.2 208.934 46.8393 208.673 47.39C208.412 47.9407 208.043 48.3653 207.567 48.664C207.1 48.9627 206.559 49.112 205.943 49.112C205.43 49.112 204.972 49.0047 204.571 48.79C204.17 48.566 203.862 48.258 203.647 47.866V52.024H201.911V43.932C201.911 43.1853 201.874 42.518 201.799 41.93H203.437L203.577 43.148C203.764 42.7093 204.067 42.3687 204.487 42.126C204.907 41.874 205.392 41.748 205.943 41.748ZM205.467 47.74C206.055 47.74 206.508 47.544 206.825 47.152C207.142 46.76 207.301 46.2 207.301 45.472C207.301 44.7347 207.142 44.1607 206.825 43.75C206.508 43.33 206.06 43.12 205.481 43.12C204.884 43.12 204.426 43.3207 204.109 43.722C203.792 44.1233 203.633 44.6973 203.633 45.444C203.633 46.1813 203.792 46.7507 204.109 47.152C204.426 47.544 204.879 47.74 205.467 47.74Z" fill="#9DC2D4"/>
<defs>
<filter id="filter0_d" x="0" y="0" width="400" height="220" filterUnits="userSpaceOnUse" color-interpolation-filters="sRGB">
<feFlood flood-opacity="0" result="BackgroundImageFix"/>
<feColorMatrix in="SourceAlpha" type="matrix" values="0 0 0 0 0 0 0 0 0 0 0 0 0 0 0 0 0 0 127 0"/>
<feOffset dy="18"/>
<feGaussianBlur stdDeviation="20"/>
<feColorMatrix type="matrix" values="0 0 0 0 0.176471 0 0 0 0 0.262745 0 0 0 0 0.47451 0 0 0 0.1 0"/>
<feBlend mode="normal" in2="BackgroundImageFix" result="effect1_dropShadow"/>
<feBlend mode="normal" in="SourceGraphic" in2="effect1_dropShadow" result="shape"/>
</filter>
<clipPath id="clip0">
<rect x="61" y="62" width="235" height="22" rx="5" fill="white"/>
</clipPath>
<clipPath id="clip1">
<rect width="248" height="22" fill="white" transform="translate(61 92)"/>
</clipPath>
</defs>
</svg>
