<?xml version="1.0" encoding="UTF-8"?>
<svg width="40px" height="40px" viewBox="0 0 40 40" version="1.1" xmlns="http://www.w3.org/2000/svg" xmlns:xlink="http://www.w3.org/1999/xlink">
    <!-- Generator: Sketch 52.6 (67491) - http://www.bohemiancoding.com/sketch -->
    <title>Path</title>
    <desc>Created with Sketch.</desc>
    <g id="15--Landing-page-Copy" stroke="none" stroke-width="1" fill="none" fill-rule="evenodd">
        <g id="2.0--Features" transform="translate(-883.000000, -520.000000)" fill="#7450C8" fill-rule="nonzero">
            <g id="General-features-1" transform="translate(0.000000, 404.000000)">
                <g id="Categories" transform="translate(185.000000, 112.000000)">
                    <g id="Group-8" transform="translate(645.000000, 4.000000)">
                        <path d="M78.44,13.58 L69.86,22.18 L66.56,18.88 C66.0712202,18.3092477 65.3037632,18.0606361 64.5731621,18.2363797 C63.8425609,18.4121233 63.2721233,18.9825609 63.0963797,19.7131621 C62.9206361,20.4437632 63.1692477,21.2112202 63.74,21.7 L68.44,26.42 C68.8174377,26.794373 69.328394,27.0030735 69.86,27 C70.3846798,26.9977908 70.8874787,26.7894883 71.26,26.42 L81.26,16.42 C81.6386253,16.0444668 81.8515966,15.5332751 81.8515966,15 C81.8515966,14.4667249 81.6386253,13.9555332 81.26,13.58 C80.4799251,12.8045528 79.2200749,12.8045528 78.44,13.58 Z M73,8.8817842e-16 C61.954305,-4.4408921e-16 53,8.954305 53,20 C53,31.045695 61.954305,40 73,40 C84.045695,40 93,31.045695 93,20 C93,14.6956702 90.8928632,9.60859195 87.1421356,5.85786438 C83.3914081,2.10713681 78.3043298,4.4408921e-16 73,8.8817842e-16 Z M73,36 C64.163444,36 57,28.836556 57,20 C57,11.163444 64.163444,4 73,4 C81.836556,4 89,11.163444 89,20 C89,24.2434638 87.3142906,28.3131264 84.3137085,31.3137085 C81.3131264,34.3142906 77.2434638,36 73,36 Z" id="Shape"></path>
                    </g>
                </g>
            </g>
        </g>
    </g>
</svg>