<svg width="157" height="157" viewBox="0 0 157 157" fill="none" xmlns="http://www.w3.org/2000/svg">
<g filter="url(#filter0_d)">
<rect x="30" y="21" width="97" height="97" rx="25" fill="white"/>
</g>
<path d="M100.954 65.516L95.4549 64.1666C95.152 63.2027 94.7664 62.2664 94.2982 61.3576L97.1072 56.676C97.4377 56.1252 97.3551 55.4367 96.9145 54.9961L93.0039 51.0855C92.5633 50.6449 91.8748 50.5623 91.324 50.8928L86.6424 53.7018C85.7336 53.2336 84.7973 52.848 83.8334 52.5451L82.5115 47.0465C82.3463 46.4406 81.7955 46 81.1621 46H75.6543C75.0209 46 74.4701 46.4406 74.3049 47.0465L72.983 52.5451C72.0191 52.848 71.0828 53.2336 70.174 53.7018L65.4924 50.8928C64.9416 50.5623 64.2531 50.6449 63.8125 51.0855L59.902 54.9961C59.4613 55.4367 59.3787 56.1252 59.7092 56.676L62.5182 61.3576C62.05 62.2664 61.6645 63.2027 61.3615 64.1666L56.0465 65.516C55.4406 65.6537 55 66.2045 55 66.8379V72.3457C55 72.9791 55.4406 73.5299 56.0465 73.6676L61.3615 75.017C61.6645 75.9809 62.05 76.9172 62.5182 77.826L59.7092 82.5076C59.3787 83.0584 59.4613 83.7469 59.902 84.1875L63.8125 88.098C64.2531 88.5387 64.9416 88.6213 65.4924 88.2908L70.174 85.4818C71.0828 85.95 72.0191 86.3355 72.983 86.6385L74.3049 91.9535C74.4701 92.5594 75.0209 93 75.6543 93H81.1621C81.7955 93 82.3463 92.5594 82.5115 91.9535L83.8334 86.6385C84.7973 86.3355 85.7336 85.95 86.6424 85.4818L91.324 88.2908C91.8748 88.6213 92.5633 88.5387 93.0039 88.098L96.9145 84.1875C97.3551 83.7469 97.4377 83.0584 97.1072 82.5076L94.2982 77.826C94.7664 76.9172 95.152 75.9809 95.4549 75.017L100.954 73.6676C101.559 73.5299 102 72.9791 102 72.3457V66.8379C102 66.2045 101.559 65.6537 100.954 65.516ZM78.4082 76.4766C74.6078 76.4766 71.5234 73.3922 71.5234 69.5918C71.5234 65.7914 74.6078 62.707 78.4082 62.707C82.2086 62.707 85.293 65.7914 85.293 69.5918C85.293 73.3922 82.2086 76.4766 78.4082 76.4766Z" fill="url(#paint0_linear)"/>
<circle cx="117.5" cy="29.5" r="12.5" fill="white"/>
<path fill-rule="evenodd" clip-rule="evenodd" d="M104 29.8777C104 22.2133 110.227 16 117.909 16C125.588 16.0082 131.81 22.2167 131.819 29.8777C131.819 37.5421 125.591 43.7554 117.909 43.7554C110.227 43.7554 104 37.5421 104 29.8777ZM115.631 35.5348L125.566 25.6221C125.938 25.238 125.938 24.629 125.566 24.2449C125.185 23.8511 124.556 23.8402 124.162 24.2205L114.929 33.4324L111.657 30.1681C111.649 30.1598 111.641 30.1517 111.633 30.1437C111.238 29.7634 110.609 29.7743 110.228 30.1681C109.847 30.5619 109.857 31.1894 110.252 31.5697L114.226 35.5348C114.614 35.9218 115.243 35.9218 115.631 35.5348Z" fill="url(#paint1_linear)"/>
<defs>
<filter id="filter0_d" x="0" y="0" width="157" height="157" filterUnits="userSpaceOnUse" color-interpolation-filters="sRGB">
<feFlood flood-opacity="0" result="BackgroundImageFix"/>
<feColorMatrix in="SourceAlpha" type="matrix" values="0 0 0 0 0 0 0 0 0 0 0 0 0 0 0 0 0 0 127 0" result="hardAlpha"/>
<feOffset dy="9"/>
<feGaussianBlur stdDeviation="15"/>
<feColorMatrix type="matrix" values="0 0 0 0 0.593438 0 0 0 0 0.707729 0 0 0 0 0.879167 0 0 0 0.25 0"/>
<feBlend mode="normal" in2="BackgroundImageFix" result="effect1_dropShadow"/>
<feBlend mode="normal" in="SourceGraphic" in2="effect1_dropShadow" result="shape"/>
</filter>
<linearGradient id="paint0_linear" x1="78.5" y1="46" x2="78.5" y2="93" gradientUnits="userSpaceOnUse">
<stop stop-color="#85BEFF"/>
<stop offset="1" stop-color="#5183BB"/>
</linearGradient>
<linearGradient id="paint1_linear" x1="117.909" y1="16" x2="117.909" y2="43.7554" gradientUnits="userSpaceOnUse">
<stop stop-color="#B0E7C6"/>
<stop offset="1" stop-color="#5DD1B3"/>
</linearGradient>
</defs>
</svg>
