<svg fill="none" height="157" viewBox="0 0 157 157" width="157" xmlns="http://www.w3.org/2000/svg" xmlns:xlink="http://www.w3.org/1999/xlink"><filter id="a" color-interpolation-filters="sRGB" filterUnits="userSpaceOnUse" height="157" width="157" x="0" y="0"><feFlood flood-opacity="0" result="BackgroundImageFix"/><feColorMatrix in="SourceAlpha" result="hardAlpha" type="matrix" values="0 0 0 0 0 0 0 0 0 0 0 0 0 0 0 0 0 0 127 0"/><feOffset dy="9"/><feGaussianBlur stdDeviation="15"/><feColorMatrix type="matrix" values="0 0 0 0 0.593438 0 0 0 0 0.707729 0 0 0 0 0.879167 0 0 0 0.25 0"/><feBlend in2="BackgroundImageFix" mode="normal" result="effect1_dropShadow"/><feBlend in="SourceGraphic" in2="effect1_dropShadow" mode="normal" result="shape"/></filter><linearGradient id="b" gradientUnits="userSpaceOnUse" x1="78.5" x2="78.5" y1="46" y2="93"><stop offset="0" stop-color="#85beff"/><stop offset="1" stop-color="#5183bb"/></linearGradient><linearGradient id="c" gradientUnits="userSpaceOnUse" x1="117.909" x2="117.909" y1="16" y2="43.7554"><stop offset="0" stop-color="#b0e7c6"/><stop offset="1" stop-color="#5dd1b3"/></linearGradient><g filter="url(#a)"><rect fill="#fff" height="97" rx="25" width="97" x="30" y="21"/></g><path d="m100.954 65.516-5.4991-1.3494c-.3029-.9639-.6885-1.9002-1.1567-2.809l2.809-4.6816c.3305-.5508.2479-1.2393-.1927-1.6799l-3.9106-3.9106c-.4406-.4406-1.1291-.5232-1.6799-.1927l-4.6816 2.809c-.9088-.4682-1.8451-.8538-2.809-1.1567l-1.3219-5.4986c-.1652-.6059-.716-1.0465-1.3494-1.0465h-5.5078c-.6334 0-1.1842.4406-1.3494 1.0465l-1.3219 5.4986c-.9639.3029-1.9002.6885-2.809 1.1567l-4.6816-2.809c-.5508-.3305-1.2393-.2479-1.6799.1927l-3.9105 3.9106c-.4407.4406-.5233 1.1291-.1928 1.6799l2.809 4.6816c-.4682.9088-.8537 1.8451-1.1567 2.809l-5.315 1.3494c-.6059.1377-1.0465.6885-1.0465 1.3219v5.5078c0 .6334.4406 1.1842 1.0465 1.3219l5.315 1.3494c.303.9639.6885 1.9002 1.1567 2.809l-2.809 4.6816c-.3305.5508-.2479 1.2393.1928 1.6799l3.9105 3.9105c.4406.4407 1.1291.5233 1.6799.1928l4.6816-2.809c.9088.4682 1.8451.8537 2.809 1.1567l1.3219 5.315c.1652.6059.716 1.0465 1.3494 1.0465h5.5078c.6334 0 1.1842-.4406 1.3494-1.0465l1.3219-5.315c.9639-.303 1.9002-.6885 2.809-1.1567l4.6816 2.809c.5508.3305 1.2393.2479 1.6799-.1928l3.9106-3.9105c.4406-.4406.5232-1.1291.1927-1.6799l-2.809-4.6816c.4682-.9088.8538-1.8451 1.1567-2.809l5.4991-1.3494c.605-.1377 1.046-.6885 1.046-1.3219v-5.5078c0-.6334-.441-1.1842-1.046-1.3219zm-22.5458 10.9606c-3.8004 0-6.8848-3.0844-6.8848-6.8848s3.0844-6.8848 6.8848-6.8848 6.8848 3.0844 6.8848 6.8848-3.0844 6.8848-6.8848 6.8848z" fill="url(#b)"/><circle cx="117.5" cy="29.5" fill="#fff" r="12.5"/><path clip-rule="evenodd" d="m104 29.8777c0-7.6644 6.227-13.8777 13.909-13.8777 7.679.0082 13.901 6.2167 13.91 13.8777 0 7.6644-6.228 13.8777-13.91 13.8777s-13.909-6.2133-13.909-13.8777zm11.631 5.6571 9.935-9.9127c.372-.3841.372-.9931 0-1.3772-.381-.3938-1.01-.4047-1.404-.0244l-9.233 9.2119-3.272-3.2643c-.008-.0083-.016-.0164-.024-.0244-.395-.3803-1.024-.3694-1.405.0244s-.371 1.0213.024 1.4016l3.974 3.9651c.388.387 1.017.387 1.405 0z" fill="url(#c)" fill-rule="evenodd"/></svg>