<svg height="40" viewBox="0 0 40 40" width="40" xmlns="http://www.w3.org/2000/svg"><g fill="none" fill-rule="evenodd"><rect fill="#eb8b30" height="40" rx="7" width="40"/><g fill="#fff" fill-rule="nonzero" stroke="#fff" transform="translate(9 8)"><path d="m10.1609614 19.5923438c0 .0166875-.0033503.0330937-.0097754.0477656-.0068841.0156094-.0166594.0295312-.0283164.0402187-.15144931.1384688-.28550487.295875-.39840342.4678125-.10564734.1607344-.06360869.3784688.09376087.4863282.05869807.0402187.12515218.0594843.19087195.0594843.110558 0 .2190967-.0544687.2852754-.15525.0811401-.1234687.177471-.2365781.2863309-.3361406.0839855-.0768281.1502102-.1695937.1967005-.2754844.045756-.1040625.069942-.2197968.069942-.3347343 0-.4528125-.3606328-.8211563-.8039203-.8211563h-4.49726325c-.20978019 0-.38041304-.1743281-.38041304-.3885469v-4.5634687c0-.2274375-.08655556-.4410938-.24374155-.6016406-.15746135-.1608282-.3668285-.2494219-.58950483-.2494219-.2345628 0-.46013043.1025625-.61878502.2813437-.32901208.3703594-.79790822.5827969-1.28649276.5827969-.48844686 0-.94063768-.2014687-1.27313768-.5672344-.33227053-.3654375-.49514734-.8424375-.45879951-1.3429218.06379227-.8732813.75729227-1.5753282 1.61302657-1.6330782.53516666-.0360468 1.04734057.175125 1.4052198.5786719.07788164.088125.17145894.1577344.27894203.2073281.14525362.0666094.30606522.0889219.46485749.0647344.40381884-.0615937.70836956-.4302656.70836956-.8576719v-4.54734372c0-.21426563.17063285-.38854688.38041305-.38854688h4.46793724c.459442 0 .8332463-.38179687.8332463-.8510625v-.07429687c0-.23882813-.1002319-.46903125-.2755918-.63225-.3625144-.33553125-.5704589-.81440625-.5704589-1.3138125 0-.49898438.1972971-.96084375.5554517-1.30040625.3578333-.33923438.824756-.50540625 1.3148551-.46809375.8548623.06473437 1.5421666.77310937 1.5987995 1.6475625.0352005.546375-.1714589 1.06964062-.5671087 1.43573437-.1748551.16195313-.2751329.39201563-.2751329.63121875v.07429688c0 .46926562.3738044.8510625.8332464.8510625h1.0733623c.1895411 0 .3431933-.1569375.3431933-.35053125s-.1536063-.35053125-.3431933-.35053125h-1.0733623c-.0809565 0-.1468599-.0673125-.1468599-.15v-.07429688c0-.04176562.018128-.08254687.0497029-.11179687.5517802-.5105625.8401304-1.23998438.7910242-2.00132813-.0789831-1.22109375-1.0389421-2.21010937-2.2327295-2.30048437-.6824855-.05217188-1.3333961.18-1.8326739.65334375-.49248552.466875-.77491547 1.12814062-.77491547 1.81420312 0 .69689063.2900942 1.36509375.79524637 1.83267188.0323092.03004687.0508044.07134375.0508044.11339062v.07429688c0 .08273437-.0659034.15-.14686.15h-4.46793715c-.58821981 0-1.06675362.48876562-1.06675362 1.0895625v4.54734377c0 .0815625-.05420049.15375-.12345411.1643437-.02909662.0044532-.05686232.00075-.08164493-.0105937-.01991787-.0091875-.0372198-.0219375-.05163043-.0382969-.4998285-.56357812-1.21375121-.85795312-1.95943237-.80798437-1.19498067.080625-2.16329227 1.06106247-2.25232608 2.28060937-.05066667.6972188.17669082 1.362.64026328 1.8719531.45710145.502875 1.10447826.79125 1.77608696.79125.6817512 0 1.33592029-.29625 1.79485748-.8128593.02895894-.032625.06920773-.0512813.11042029-.0512813.05309904 0 .08807005.0276563.10417875.0441094.01597101.0162656.04268116.0517031.04268116.1059375v4.5634687c0 .6007969.47853381 1.0895625 1.06675362 1.0895625h4.49726325c.064802 0 .1175339.0538594.1175339.1201407z"/><path d="m18.158401 9.38334375c.4854178-.10682812.837698-.55420313.837698-1.06382812v-2.58482813c0-.60079688-.4785338-1.0895625-1.0667536-1.0895625h-1.7978406c-.189541 0-.3431932.1569375-.3431932.35053125s.1536063.35053125.3431932.35053125h1.7978406c.2097343 0 .3804131.17428125.3804131.38854687v2.58482813c0 .18159375-.1244638.34078125-.2959228.3785625-1.3806207.30379687-2.3826642 1.5727031-2.3826642 3.0171094 0 1.4442656 1.0020435 2.7129375 2.3826642 3.0166875.1715049.0377343.2959228.1969218.2959228.3785156v3.27225c0 .2142656-.1706329.3885469-.3804131.3885469h-4.4972174c-.2146449 0-.4165314.0854062-.5684396.2405156-.1518623.1551094-.2355266.3613125-.2355266.5806406 0 .2326875.0974783.4553906.2675145.6111094.3676546.3363281.5785363.8179219.5785363 1.3213594 0 .4919062-.202529.9660937-.5557271 1.300875-.3577415.3391875-.8242053.5052656-1.314442.4680468-.7740894-.0590156-1.4198599-.645-1.5703913-1.4249999-.03657732-.1899376-.21703143-.3136407-.40303867-.2761407-.18591546.0374063-.3069831.2217188-.27035991.4116563.20996377 1.0884843 1.11163768 1.9062187 2.19271018 1.9885781.0629662.0048281.1255652.0071719.187843.0071719.6132318 0 1.191355-.2308594 1.6446014-.6605156.4925773-.4670157.7751449-1.1284219.7751449-1.8146719 0-.7024688-.2941328-1.3744219-.8068116-1.8434063-.0249202-.0228281-.0392391-.0553125-.0392391-.0890625 0-.0432656.0215701-.0717656.0344662-.0848906.0128502-.0131719.0408454-.03525.0831594-.03525h4.4972174c.5882198 0 1.0667536-.4887656 1.0667536-1.0895625v-3.27225c0-.509625-.3523261-.9570469-.8377898-1.063875-1.0666619-.2346563-1.8407971-1.2151406-1.8407971-2.331375 0-1.1164219.7741811-2.09709375 1.8408889-2.33184375z"/></g></g></svg>