<svg width="488" height="245" viewBox="0 0 488 245" fill="none" xmlns="http://www.w3.org/2000/svg">
<g filter="url(#filter0_d)">
<rect x="40" y="98" width="408" height="89" rx="10" fill="white"/>
</g>
<path d="M75.152 113.608V125H73.104V120.056H67.264V125H65.232V113.608H67.264V118.376H73.104V113.608H75.152ZM81.1426 125.128C80.3213 125.128 79.596 124.957 78.9666 124.616C78.348 124.275 77.868 123.789 77.5266 123.16C77.196 122.52 77.0306 121.773 77.0306 120.92C77.0306 120.067 77.196 119.325 77.5266 118.696C77.868 118.056 78.348 117.565 78.9666 117.224C79.596 116.883 80.3213 116.712 81.1426 116.712C81.9533 116.712 82.668 116.883 83.2866 117.224C83.9053 117.565 84.38 118.056 84.7106 118.696C85.052 119.325 85.2226 120.067 85.2226 120.92C85.2226 121.773 85.052 122.52 84.7106 123.16C84.38 123.789 83.9053 124.275 83.2866 124.616C82.668 124.957 81.9533 125.128 81.1426 125.128ZM81.1266 123.56C81.8093 123.56 82.3266 123.341 82.6786 122.904C83.0413 122.456 83.2226 121.795 83.2226 120.92C83.2226 120.056 83.0413 119.4 82.6786 118.952C82.316 118.493 81.804 118.264 81.1426 118.264C80.4706 118.264 79.9533 118.493 79.5906 118.952C79.228 119.4 79.0466 120.056 79.0466 120.92C79.0466 121.795 79.2226 122.456 79.5746 122.904C79.9373 123.341 80.4546 123.56 81.1266 123.56ZM99.6708 116.92L96.5028 125H94.7587L92.7588 119.704L90.8068 125H89.0468L85.8788 116.92H87.9268L90.0068 122.616L92.1028 116.92H93.5428L95.6388 122.664L97.7188 116.92H99.6708ZM108.986 125.128C108.165 125.128 107.44 124.957 106.81 124.616C106.192 124.275 105.712 123.789 105.37 123.16C105.04 122.52 104.874 121.773 104.874 120.92C104.874 120.067 105.04 119.325 105.37 118.696C105.712 118.056 106.192 117.565 106.81 117.224C107.44 116.883 108.165 116.712 108.986 116.712C109.797 116.712 110.512 116.883 111.13 117.224C111.749 117.565 112.224 118.056 112.554 118.696C112.896 119.325 113.066 120.067 113.066 120.92C113.066 121.773 112.896 122.52 112.554 123.16C112.224 123.789 111.749 124.275 111.13 124.616C110.512 124.957 109.797 125.128 108.986 125.128ZM108.97 123.56C109.653 123.56 110.17 123.341 110.522 122.904C110.885 122.456 111.066 121.795 111.066 120.92C111.066 120.056 110.885 119.4 110.522 118.952C110.16 118.493 109.648 118.264 108.986 118.264C108.314 118.264 107.797 118.493 107.434 118.952C107.072 119.4 106.89 120.056 106.89 120.92C106.89 121.795 107.066 122.456 107.418 122.904C107.781 123.341 108.298 123.56 108.97 123.56ZM118.568 114.808C117.704 114.808 117.272 115.283 117.272 116.232V116.92H119.08V118.424H117.272V125H115.272V118.424H113.736V116.92H115.272V116.136C115.272 115.176 115.512 114.44 115.992 113.928C116.483 113.405 117.182 113.144 118.088 113.144C118.59 113.144 119.011 113.208 119.352 113.336V114.92C119.054 114.845 118.792 114.808 118.568 114.808ZM122.726 118.424V122.04C122.726 122.989 123.168 123.464 124.054 123.464C124.299 123.464 124.566 123.421 124.854 123.336V124.92C124.502 125.048 124.075 125.112 123.574 125.112C122.656 125.112 121.952 124.856 121.462 124.344C120.971 123.832 120.726 123.096 120.726 122.136V118.424H119.174V116.92H120.726V114.952L122.726 114.28V116.92H124.87V118.424H122.726ZM133.316 121.064H127.748C127.791 121.928 128.004 122.568 128.388 122.984C128.783 123.389 129.364 123.592 130.132 123.592C131.018 123.592 131.839 123.304 132.596 122.728L133.172 124.104C132.788 124.413 132.314 124.664 131.748 124.856C131.194 125.037 130.628 125.128 130.052 125.128C128.73 125.128 127.69 124.755 126.932 124.008C126.175 123.261 125.796 122.237 125.796 120.936C125.796 120.115 125.962 119.384 126.292 118.744C126.623 118.104 127.087 117.608 127.684 117.256C128.282 116.893 128.959 116.712 129.716 116.712C130.826 116.712 131.7 117.075 132.34 117.8C132.991 118.515 133.316 119.501 133.316 120.76V121.064ZM129.764 118.152C129.231 118.152 128.794 118.312 128.452 118.632C128.122 118.941 127.908 119.395 127.812 119.992H131.572C131.508 119.384 131.322 118.925 131.012 118.616C130.714 118.307 130.298 118.152 129.764 118.152ZM139.634 116.712C141.565 116.712 142.53 117.821 142.53 120.04V125H140.53V120.136C140.53 119.496 140.407 119.032 140.162 118.744C139.917 118.445 139.538 118.296 139.026 118.296C138.418 118.296 137.927 118.493 137.554 118.888C137.181 119.272 136.994 119.784 136.994 120.424V125H135.01V119.208C135.01 118.355 134.967 117.592 134.882 116.92H136.754L136.898 118.248C137.175 117.757 137.549 117.379 138.018 117.112C138.498 116.845 139.037 116.712 139.634 116.712ZM156.769 113.224V125H154.801V123.704C154.556 124.152 154.204 124.504 153.745 124.76C153.286 125.005 152.764 125.128 152.177 125.128C151.484 125.128 150.865 124.952 150.321 124.6C149.777 124.248 149.35 123.752 149.041 123.112C148.742 122.461 148.593 121.72 148.593 120.888C148.593 120.056 148.742 119.325 149.041 118.696C149.34 118.067 149.761 117.581 150.305 117.24C150.849 116.888 151.473 116.712 152.177 116.712C152.753 116.712 153.265 116.835 153.713 117.08C154.172 117.315 154.524 117.651 154.769 118.088V113.224H156.769ZM152.705 123.56C153.366 123.56 153.878 123.331 154.241 122.872C154.614 122.413 154.801 121.763 154.801 120.92C154.801 120.077 154.62 119.427 154.257 118.968C153.894 118.509 153.382 118.28 152.721 118.28C152.049 118.28 151.526 118.509 151.153 118.968C150.79 119.416 150.609 120.056 150.609 120.888C150.609 121.731 150.79 122.387 151.153 122.856C151.526 123.325 152.044 123.56 152.705 123.56ZM162.611 125.128C161.79 125.128 161.065 124.957 160.435 124.616C159.817 124.275 159.337 123.789 158.995 123.16C158.665 122.52 158.499 121.773 158.499 120.92C158.499 120.067 158.665 119.325 158.995 118.696C159.337 118.056 159.817 117.565 160.435 117.224C161.065 116.883 161.79 116.712 162.611 116.712C163.422 116.712 164.137 116.883 164.755 117.224C165.374 117.565 165.849 118.056 166.179 118.696C166.521 119.325 166.691 120.067 166.691 120.92C166.691 121.773 166.521 122.52 166.179 123.16C165.849 123.789 165.374 124.275 164.755 124.616C164.137 124.957 163.422 125.128 162.611 125.128ZM162.595 123.56C163.278 123.56 163.795 123.341 164.147 122.904C164.51 122.456 164.691 121.795 164.691 120.92C164.691 120.056 164.51 119.4 164.147 118.952C163.785 118.493 163.273 118.264 162.611 118.264C161.939 118.264 161.422 118.493 161.059 118.952C160.697 119.4 160.515 120.056 160.515 120.92C160.515 121.795 160.691 122.456 161.043 122.904C161.406 123.341 161.923 123.56 162.595 123.56ZM180.455 116.92L176.695 125.544C176.268 126.547 175.724 127.277 175.063 127.736C174.401 128.195 173.585 128.499 172.615 128.648L172.167 127.112C172.924 126.941 173.489 126.723 173.863 126.456C174.247 126.2 174.556 125.816 174.791 125.304L175.047 124.712L171.687 116.92H173.783L176.103 122.728L178.471 116.92H180.455ZM185.018 125.128C184.196 125.128 183.471 124.957 182.842 124.616C182.223 124.275 181.743 123.789 181.402 123.16C181.071 122.52 180.906 121.773 180.906 120.92C180.906 120.067 181.071 119.325 181.402 118.696C181.743 118.056 182.223 117.565 182.842 117.224C183.471 116.883 184.196 116.712 185.018 116.712C185.828 116.712 186.543 116.883 187.162 117.224C187.78 117.565 188.255 118.056 188.586 118.696C188.927 119.325 189.098 120.067 189.098 120.92C189.098 121.773 188.927 122.52 188.586 123.16C188.255 123.789 187.78 124.275 187.162 124.616C186.543 124.957 185.828 125.128 185.018 125.128ZM185.002 123.56C185.684 123.56 186.202 123.341 186.554 122.904C186.916 122.456 187.098 121.795 187.098 120.92C187.098 120.056 186.916 119.4 186.554 118.952C186.191 118.493 185.679 118.264 185.018 118.264C184.346 118.264 183.828 118.493 183.466 118.952C183.103 119.4 182.922 120.056 182.922 120.92C182.922 121.795 183.098 122.456 183.45 122.904C183.812 123.341 184.33 123.56 185.002 123.56ZM198.182 116.92V125H196.23V123.752C195.974 124.2 195.633 124.541 195.206 124.776C194.78 125.011 194.289 125.128 193.734 125.128C191.761 125.128 190.774 124.019 190.774 121.8V116.92H192.758V121.816C192.758 122.403 192.876 122.835 193.11 123.112C193.356 123.389 193.729 123.528 194.23 123.528C194.817 123.528 195.286 123.336 195.638 122.952C195.99 122.568 196.166 122.056 196.166 121.416V116.92H198.182ZM217.608 116.92L214.44 125H212.696L210.696 119.704L208.744 125H206.984L203.816 116.92H205.864L207.944 122.616L210.04 116.92H211.48L213.576 122.664L215.656 116.92H217.608ZM226.457 116.92V125H224.489V123.704C224.243 124.152 223.891 124.504 223.433 124.76C222.974 125.005 222.451 125.128 221.865 125.128C221.161 125.128 220.537 124.957 219.993 124.616C219.449 124.275 219.027 123.789 218.729 123.16C218.43 122.531 218.281 121.8 218.281 120.968C218.281 120.136 218.43 119.4 218.729 118.76C219.038 118.109 219.465 117.608 220.009 117.256C220.553 116.893 221.171 116.712 221.865 116.712C222.451 116.712 222.974 116.84 223.433 117.096C223.891 117.341 224.243 117.688 224.489 118.136V116.92H226.457ZM222.409 123.56C223.07 123.56 223.582 123.331 223.945 122.872C224.307 122.413 224.489 121.768 224.489 120.936C224.489 120.083 224.307 119.427 223.945 118.968C223.582 118.509 223.065 118.28 222.393 118.28C221.731 118.28 221.214 118.52 220.841 119C220.478 119.469 220.297 120.125 220.297 120.968C220.297 121.8 220.478 122.44 220.841 122.888C221.214 123.336 221.737 123.56 222.409 123.56ZM233.259 116.712C235.19 116.712 236.155 117.821 236.155 120.04V125H234.155V120.136C234.155 119.496 234.032 119.032 233.787 118.744C233.542 118.445 233.163 118.296 232.651 118.296C232.043 118.296 231.552 118.493 231.179 118.888C230.806 119.272 230.619 119.784 230.619 120.424V125H228.635V119.208C228.635 118.355 228.592 117.592 228.507 116.92H230.379L230.523 118.248C230.8 117.757 231.174 117.379 231.643 117.112C232.123 116.845 232.662 116.712 233.259 116.712ZM240.82 118.424V122.04C240.82 122.989 241.262 123.464 242.148 123.464C242.393 123.464 242.66 123.421 242.948 123.336V124.92C242.596 125.048 242.169 125.112 241.668 125.112C240.75 125.112 240.046 124.856 239.556 124.344C239.065 123.832 238.82 123.096 238.82 122.136V118.424H237.268V116.92H238.82V114.952L240.82 114.28V116.92H242.964V118.424H240.82ZM251.273 118.424V122.04C251.273 122.989 251.715 123.464 252.601 123.464C252.846 123.464 253.113 123.421 253.401 123.336V124.92C253.049 125.048 252.622 125.112 252.121 125.112C251.203 125.112 250.499 124.856 250.009 124.344C249.518 123.832 249.273 123.096 249.273 122.136V118.424H247.721V116.92H249.273V114.952L251.273 114.28V116.92H253.417V118.424H251.273ZM258.455 125.128C257.634 125.128 256.908 124.957 256.279 124.616C255.66 124.275 255.18 123.789 254.839 123.16C254.508 122.52 254.343 121.773 254.343 120.92C254.343 120.067 254.508 119.325 254.839 118.696C255.18 118.056 255.66 117.565 256.279 117.224C256.908 116.883 257.634 116.712 258.455 116.712C259.266 116.712 259.98 116.883 260.599 117.224C261.218 117.565 261.692 118.056 262.023 118.696C262.364 119.325 262.535 120.067 262.535 120.92C262.535 121.773 262.364 122.52 262.023 123.16C261.692 123.789 261.218 124.275 260.599 124.616C259.98 124.957 259.266 125.128 258.455 125.128ZM258.439 123.56C259.122 123.56 259.639 123.341 259.991 122.904C260.354 122.456 260.535 121.795 260.535 120.92C260.535 120.056 260.354 119.4 259.991 118.952C259.628 118.493 259.116 118.264 258.455 118.264C257.783 118.264 257.266 118.493 256.903 118.952C256.54 119.4 256.359 120.056 256.359 120.92C256.359 121.795 256.535 122.456 256.887 122.904C257.25 123.341 257.767 123.56 258.439 123.56ZM271.611 125.128C270.149 125.128 268.987 124.787 268.123 124.104L268.683 122.696C269.547 123.336 270.533 123.656 271.643 123.656C272.123 123.656 272.491 123.576 272.747 123.416C273.013 123.256 273.147 123.032 273.147 122.744C273.147 122.499 273.056 122.307 272.875 122.168C272.693 122.019 272.384 121.891 271.947 121.784L270.603 121.48C269.131 121.16 268.395 120.408 268.395 119.224C268.395 118.733 268.533 118.301 268.811 117.928C269.088 117.544 269.477 117.245 269.979 117.032C270.48 116.819 271.061 116.712 271.723 116.712C272.299 116.712 272.853 116.803 273.387 116.984C273.92 117.155 274.389 117.405 274.795 117.736L274.203 119.096C273.392 118.499 272.56 118.2 271.707 118.2C271.248 118.2 270.891 118.285 270.635 118.456C270.379 118.627 270.251 118.861 270.251 119.16C270.251 119.395 270.325 119.581 270.475 119.72C270.635 119.859 270.901 119.976 271.275 120.072L272.651 120.376C273.451 120.557 274.032 120.84 274.395 121.224C274.768 121.597 274.955 122.088 274.955 122.696C274.955 123.443 274.656 124.035 274.059 124.472C273.461 124.909 272.645 125.128 271.611 125.128ZM283.738 121.064H278.17C278.213 121.928 278.426 122.568 278.81 122.984C279.205 123.389 279.786 123.592 280.554 123.592C281.439 123.592 282.261 123.304 283.018 122.728L283.594 124.104C283.21 124.413 282.735 124.664 282.17 124.856C281.615 125.037 281.05 125.128 280.474 125.128C279.151 125.128 278.111 124.755 277.354 124.008C276.597 123.261 276.218 122.237 276.218 120.936C276.218 120.115 276.383 119.384 276.714 118.744C277.045 118.104 277.509 117.608 278.106 117.256C278.703 116.893 279.381 116.712 280.138 116.712C281.247 116.712 282.122 117.075 282.762 117.8C283.413 118.515 283.738 119.501 283.738 120.76V121.064ZM280.186 118.152C279.653 118.152 279.215 118.312 278.874 118.632C278.543 118.941 278.33 119.395 278.234 119.992H281.994C281.93 119.384 281.743 118.925 281.434 118.616C281.135 118.307 280.719 118.152 280.186 118.152ZM290.056 116.712C291.986 116.712 292.952 117.821 292.952 120.04V125H290.952V120.136C290.952 119.496 290.829 119.032 290.584 118.744C290.338 118.445 289.96 118.296 289.448 118.296C288.84 118.296 288.349 118.493 287.976 118.888C287.602 119.272 287.416 119.784 287.416 120.424V125H285.432V119.208C285.432 118.355 285.389 117.592 285.304 116.92H287.176L287.32 118.248C287.597 117.757 287.97 117.379 288.44 117.112C288.92 116.845 289.458 116.712 290.056 116.712ZM302.8 113.224V125H300.832V123.704C300.587 124.152 300.235 124.504 299.776 124.76C299.318 125.005 298.795 125.128 298.208 125.128C297.515 125.128 296.896 124.952 296.352 124.6C295.808 124.248 295.382 123.752 295.072 123.112C294.774 122.461 294.624 121.72 294.624 120.888C294.624 120.056 294.774 119.325 295.072 118.696C295.371 118.067 295.792 117.581 296.336 117.24C296.88 116.888 297.504 116.712 298.208 116.712C298.784 116.712 299.296 116.835 299.744 117.08C300.203 117.315 300.555 117.651 300.8 118.088V113.224H302.8ZM298.736 123.56C299.398 123.56 299.91 123.331 300.272 122.872C300.646 122.413 300.832 121.763 300.832 120.92C300.832 120.077 300.651 119.427 300.288 118.968C299.926 118.509 299.414 118.28 298.752 118.28C298.08 118.28 297.558 118.509 297.184 118.968C296.822 119.416 296.64 120.056 296.64 120.888C296.64 121.731 296.822 122.387 297.184 122.856C297.558 123.325 298.075 123.56 298.736 123.56ZM317.097 116.92V125H315.129V123.704C314.884 124.152 314.532 124.504 314.073 124.76C313.615 125.005 313.092 125.128 312.505 125.128C311.801 125.128 311.177 124.957 310.633 124.616C310.089 124.275 309.668 123.789 309.369 123.16C309.071 122.531 308.921 121.8 308.921 120.968C308.921 120.136 309.071 119.4 309.369 118.76C309.679 118.109 310.105 117.608 310.649 117.256C311.193 116.893 311.812 116.712 312.505 116.712C313.092 116.712 313.615 116.84 314.073 117.096C314.532 117.341 314.884 117.688 315.129 118.136V116.92H317.097ZM313.049 123.56C313.711 123.56 314.223 123.331 314.585 122.872C314.948 122.413 315.129 121.768 315.129 120.936C315.129 120.083 314.948 119.427 314.585 118.968C314.223 118.509 313.705 118.28 313.033 118.28C312.372 118.28 311.855 118.52 311.481 119C311.119 119.469 310.937 120.125 310.937 120.968C310.937 121.8 311.119 122.44 311.481 122.888C311.855 123.336 312.377 123.56 313.049 123.56ZM327.49 114.808C326.626 114.808 326.194 115.283 326.194 116.232V116.92H328.002V118.424H326.194V125H324.194V118.424H322.658V116.92H324.194V116.136C324.194 115.176 324.434 114.44 324.914 113.928C325.405 113.405 326.103 113.144 327.01 113.144C327.511 113.144 327.933 113.208 328.274 113.336V114.92C327.975 114.845 327.714 114.808 327.49 114.808ZM336.535 121.064H330.967C331.01 121.928 331.223 122.568 331.607 122.984C332.002 123.389 332.583 123.592 333.351 123.592C334.236 123.592 335.058 123.304 335.815 122.728L336.391 124.104C336.007 124.413 335.532 124.664 334.967 124.856C334.412 125.037 333.847 125.128 333.271 125.128C331.948 125.128 330.908 124.755 330.151 124.008C329.394 123.261 329.015 122.237 329.015 120.936C329.015 120.115 329.18 119.384 329.511 118.744C329.842 118.104 330.306 117.608 330.903 117.256C331.5 116.893 332.178 116.712 332.935 116.712C334.044 116.712 334.919 117.075 335.559 117.8C336.21 118.515 336.535 119.501 336.535 120.76V121.064ZM332.983 118.152C332.45 118.152 332.012 118.312 331.671 118.632C331.34 118.941 331.127 119.395 331.031 119.992H334.791C334.727 119.384 334.54 118.925 334.231 118.616C333.932 118.307 333.516 118.152 332.983 118.152ZM345.301 121.064H339.733C339.775 121.928 339.989 122.568 340.373 122.984C340.767 123.389 341.349 123.592 342.117 123.592C343.002 123.592 343.823 123.304 344.581 122.728L345.157 124.104C344.773 124.413 344.298 124.664 343.733 124.856C343.178 125.037 342.613 125.128 342.037 125.128C340.714 125.128 339.674 124.755 338.917 124.008C338.159 123.261 337.781 122.237 337.781 120.936C337.781 120.115 337.946 119.384 338.277 118.744C338.607 118.104 339.071 117.608 339.669 117.256C340.266 116.893 340.943 116.712 341.701 116.712C342.81 116.712 343.685 117.075 344.325 117.8C344.975 118.515 345.301 119.501 345.301 120.76V121.064ZM341.749 118.152C341.215 118.152 340.778 118.312 340.437 118.632C340.106 118.941 339.893 119.395 339.797 119.992H343.557C343.493 119.384 343.306 118.925 342.997 118.616C342.698 118.307 342.282 118.152 341.749 118.152ZM354.722 113.224V125H352.754V123.704C352.509 124.152 352.157 124.504 351.698 124.76C351.24 125.005 350.717 125.128 350.13 125.128C349.437 125.128 348.818 124.952 348.274 124.6C347.73 124.248 347.304 123.752 346.994 123.112C346.696 122.461 346.546 121.72 346.546 120.888C346.546 120.056 346.696 119.325 346.994 118.696C347.293 118.067 347.714 117.581 348.258 117.24C348.802 116.888 349.426 116.712 350.13 116.712C350.706 116.712 351.218 116.835 351.666 117.08C352.125 117.315 352.477 117.651 352.722 118.088V113.224H354.722ZM350.658 123.56C351.32 123.56 351.832 123.331 352.194 122.872C352.568 122.413 352.754 121.763 352.754 120.92C352.754 120.077 352.573 119.427 352.21 118.968C351.848 118.509 351.336 118.28 350.674 118.28C350.002 118.28 349.48 118.509 349.106 118.968C348.744 119.416 348.562 120.056 348.562 120.888C348.562 121.731 348.744 122.387 349.106 122.856C349.48 123.325 349.997 123.56 350.658 123.56ZM361.509 116.712C362.213 116.712 362.831 116.888 363.365 117.24C363.909 117.581 364.33 118.067 364.628 118.696C364.927 119.325 365.077 120.056 365.077 120.888C365.077 121.72 364.922 122.461 364.613 123.112C364.314 123.752 363.893 124.248 363.349 124.6C362.815 124.952 362.202 125.128 361.509 125.128C360.911 125.128 360.378 125 359.909 124.744C359.45 124.488 359.103 124.131 358.869 123.672V125H356.901V113.224H358.885V118.136C359.13 117.688 359.482 117.341 359.941 117.096C360.399 116.84 360.922 116.712 361.509 116.712ZM360.981 123.56C361.642 123.56 362.154 123.325 362.517 122.856C362.879 122.387 363.061 121.731 363.061 120.888C363.061 120.056 362.879 119.416 362.517 118.968C362.154 118.509 361.637 118.28 360.965 118.28C360.293 118.28 359.775 118.509 359.413 118.968C359.05 119.427 358.869 120.077 358.869 120.92C358.869 121.773 359.05 122.429 359.413 122.888C359.775 123.336 360.298 123.56 360.981 123.56ZM374.55 116.92V125H372.582V123.704C372.337 124.152 371.985 124.504 371.526 124.76C371.068 125.005 370.545 125.128 369.958 125.128C369.254 125.128 368.63 124.957 368.086 124.616C367.542 124.275 367.121 123.789 366.822 123.16C366.524 122.531 366.374 121.8 366.374 120.968C366.374 120.136 366.524 119.4 366.822 118.76C367.132 118.109 367.558 117.608 368.102 117.256C368.646 116.893 369.265 116.712 369.958 116.712C370.545 116.712 371.068 116.84 371.526 117.096C371.985 117.341 372.337 117.688 372.582 118.136V116.92H374.55ZM370.502 123.56C371.164 123.56 371.676 123.331 372.038 122.872C372.401 122.413 372.582 121.768 372.582 120.936C372.582 120.083 372.401 119.427 372.038 118.968C371.676 118.509 371.158 118.28 370.486 118.28C369.825 118.28 369.308 118.52 368.934 119C368.572 119.469 368.39 120.125 368.39 120.968C368.39 121.8 368.572 122.44 368.934 122.888C369.308 123.336 369.83 123.56 370.502 123.56ZM380.393 125.128C379.55 125.128 378.819 124.957 378.201 124.616C377.582 124.275 377.107 123.795 376.777 123.176C376.446 122.547 376.281 121.811 376.281 120.968C376.281 120.125 376.451 119.384 376.793 118.744C377.145 118.104 377.635 117.608 378.265 117.256C378.905 116.893 379.641 116.712 380.473 116.712C381.049 116.712 381.603 116.803 382.137 116.984C382.681 117.165 383.113 117.416 383.433 117.736L382.873 119.144C382.531 118.867 382.169 118.659 381.785 118.52C381.401 118.371 381.022 118.296 380.649 118.296C379.923 118.296 379.358 118.525 378.953 118.984C378.547 119.432 378.345 120.083 378.345 120.936C378.345 121.789 378.542 122.44 378.937 122.888C379.342 123.336 379.913 123.56 380.649 123.56C381.022 123.56 381.401 123.485 381.785 123.336C382.169 123.187 382.531 122.973 382.873 122.696L383.433 124.104C383.091 124.424 382.649 124.675 382.105 124.856C381.561 125.037 380.99 125.128 380.393 125.128ZM390.296 125L386.76 121.272V125H384.776V113.224H386.76V120.488L390.088 116.936H392.503L388.872 120.792L392.792 125H390.296ZM393.642 114.104C394.325 113.688 395.12 113.48 396.026 113.48C396.688 113.48 397.274 113.592 397.786 113.816C398.298 114.04 398.693 114.349 398.97 114.744C399.258 115.139 399.402 115.597 399.402 116.12C399.402 116.685 399.269 117.171 399.002 117.576C398.746 117.981 398.357 118.451 397.834 118.984C397.397 119.432 397.066 119.816 396.842 120.136C396.618 120.445 396.48 120.797 396.426 121.192L396.362 121.64H395.178V120.984C395.178 120.387 395.285 119.885 395.498 119.48C395.712 119.064 396.021 118.616 396.426 118.136C396.736 117.773 396.965 117.459 397.114 117.192C397.274 116.925 397.354 116.627 397.354 116.296C397.354 115.923 397.221 115.635 396.954 115.432C396.698 115.219 396.341 115.112 395.882 115.112C395.136 115.112 394.389 115.341 393.642 115.8V114.104ZM394.666 122.76H396.922V125H394.666V122.76Z" fill="black"/>
<g clip-path="url(#clip0)">
<g filter="url(#filter1_d)">
<rect x="64" y="140" width="336" height="38" rx="4" fill="white"/>
<rect x="64.5" y="140.5" width="335" height="37" rx="3.5" stroke="#D8DCE6"/>
</g>
<path fill-rule="evenodd" clip-rule="evenodd" d="M380.045 154L377 157.045L382.979 156.934L380.045 154ZM379.943 163.998L382.998 160.943L377 161.055L379.943 163.998Z" fill="white" fill-opacity="0.01"/>
<mask id="mask0" mask-type="alpha" maskUnits="userSpaceOnUse" x="377" y="154" width="6" height="10">
<path fill-rule="evenodd" clip-rule="evenodd" d="M380.045 154L377 157.045L382.979 156.934L380.045 154ZM379.943 163.998L382.998 160.943L377 161.055L379.943 163.998Z" fill="white"/>
</mask>
<g mask="url(#mask0)">
<rect x="377" y="154" width="6" height="10" fill="#9EA0A5"/>
</g>
<path d="M82.8506 154.047L86.1045 162.168L89.3584 154.047H91.0605V164H89.748V160.124L89.8711 155.94L86.6035 164H85.5986L82.3379 155.961L82.4678 160.124V164H81.1553V154.047H82.8506ZM92.8447 160.233C92.8447 159.509 92.986 158.857 93.2686 158.278C93.5557 157.7 93.9521 157.253 94.458 156.938C94.9684 156.624 95.5495 156.467 96.2012 156.467C97.2083 156.467 98.0218 156.815 98.6416 157.513C99.266 158.21 99.5781 159.137 99.5781 160.295V160.384C99.5781 161.104 99.4391 161.751 99.1611 162.325C98.8877 162.895 98.4935 163.339 97.9785 163.658C97.4681 163.977 96.8802 164.137 96.2148 164.137C95.2122 164.137 94.3988 163.788 93.7744 163.091C93.1546 162.394 92.8447 161.471 92.8447 160.322V160.233ZM94.1162 160.384C94.1162 161.204 94.3053 161.863 94.6836 162.359C95.0664 162.856 95.5768 163.104 96.2148 163.104C96.8574 163.104 97.3678 162.854 97.7461 162.353C98.1243 161.847 98.3135 161.14 98.3135 160.233C98.3135 159.422 98.1198 158.766 97.7324 158.265C97.3496 157.759 96.8392 157.506 96.2012 157.506C95.5768 157.506 95.0732 157.754 94.6904 158.251C94.3076 158.748 94.1162 159.459 94.1162 160.384ZM102.36 156.604L102.401 157.533C102.966 156.822 103.705 156.467 104.616 156.467C106.179 156.467 106.968 157.349 106.981 159.112V164H105.717V159.105C105.712 158.572 105.589 158.178 105.348 157.923C105.111 157.668 104.739 157.54 104.233 157.54C103.823 157.54 103.463 157.649 103.153 157.868C102.843 158.087 102.602 158.374 102.429 158.729V164H101.164V156.604H102.36ZM110.604 154.812V156.604H111.985V157.581H110.604V162.168C110.604 162.464 110.666 162.688 110.789 162.838C110.912 162.984 111.122 163.057 111.418 163.057C111.564 163.057 111.764 163.029 112.02 162.975V164C111.687 164.091 111.363 164.137 111.049 164.137C110.484 164.137 110.058 163.966 109.771 163.624C109.483 163.282 109.34 162.797 109.34 162.168V157.581H107.993V156.604H109.34V154.812H110.604ZM114.733 157.499C115.294 156.811 116.023 156.467 116.921 156.467C118.484 156.467 119.272 157.349 119.286 159.112V164H118.021V159.105C118.017 158.572 117.894 158.178 117.652 157.923C117.415 157.668 117.044 157.54 116.538 157.54C116.128 157.54 115.768 157.649 115.458 157.868C115.148 158.087 114.907 158.374 114.733 158.729V164H113.469V153.5H114.733V157.499ZM122.554 164H121.289V153.5H122.554V164ZM127.004 162.147L128.727 156.604H130.08L127.106 165.142C126.646 166.372 125.915 166.987 124.912 166.987L124.673 166.967L124.201 166.878V165.853L124.543 165.88C124.971 165.88 125.304 165.793 125.541 165.62C125.783 165.447 125.981 165.13 126.136 164.67L126.416 163.918L123.777 156.604H125.158L127.004 162.147Z" fill="#3E3F42"/>
</g>
<g opacity="0.6">
<rect x="2.41894" y="0.418944" width="483.162" height="66.1621" rx="2.9326" fill="white" stroke="#D8DCE6" stroke-width="0.837887"/>
<path d="M2 33.5154L484.81 34.3533" stroke="#D8DCE6" stroke-width="0.837887" stroke-linecap="square"/>
<path d="M97.1006 0.418944V66.612" stroke="#D8DCE6" stroke-width="0.837887" stroke-linecap="square"/>
<path d="M27.4786 22.7031V13.1579H33.3773V14.0829H28.5645V17.3943H33.1092V18.3193H28.5645V22.7031H27.4786ZM34.7677 22.7031V17.8501C34.7677 17.5373 34.7587 17.2245 34.7409 16.9116C34.7319 16.5899 34.7051 16.2726 34.6604 15.9598H35.6927L35.8402 17.6222L35.6927 17.582C35.8178 16.9921 36.0859 16.5497 36.4971 16.2547C36.9171 15.9509 37.3863 15.7989 37.9047 15.7989C38.0209 15.7989 38.1282 15.8079 38.2265 15.8257C38.3337 15.8347 38.432 15.8526 38.5214 15.8794L38.4946 16.8714C38.289 16.7999 38.0522 16.7642 37.7841 16.7642C37.3193 16.7642 36.9439 16.867 36.6579 17.0725C36.3809 17.2781 36.1753 17.5417 36.0413 17.8635C35.9161 18.1763 35.8536 18.507 35.8536 18.8555V22.7031H34.7677ZM42.2824 22.797C41.6389 22.797 41.0758 22.654 40.5932 22.368C40.1195 22.082 39.7486 21.6798 39.4805 21.1614C39.2213 20.6341 39.0917 20.0129 39.0917 19.298C39.0917 18.5919 39.2213 17.9752 39.4805 17.4479C39.7486 16.9206 40.1195 16.5139 40.5932 16.2279C41.0758 15.9419 41.6389 15.7989 42.2824 15.7989C42.9259 15.7989 43.4845 15.9419 43.9581 16.2279C44.4408 16.5139 44.8117 16.9206 45.0709 17.4479C45.339 17.9752 45.473 18.5919 45.473 19.298C45.473 20.0129 45.339 20.6341 45.0709 21.1614C44.8117 21.6798 44.4408 22.082 43.9581 22.368C43.4845 22.654 42.9259 22.797 42.2824 22.797ZM42.2824 21.8988C42.9437 21.8988 43.4532 21.6798 43.8107 21.2418C44.1771 20.795 44.3603 20.147 44.3603 19.298C44.3603 18.4668 44.1771 17.8277 43.8107 17.3809C43.4442 16.934 42.9348 16.7106 42.2824 16.7106C41.6299 16.7106 41.116 16.934 40.7406 17.3809C40.3742 17.8277 40.191 18.4668 40.191 19.298C40.191 20.147 40.3697 20.795 40.7272 21.2418C41.0937 21.6798 41.6121 21.8988 42.2824 21.8988ZM47.1658 22.7031V17.8501C47.1658 17.5373 47.1568 17.2245 47.139 16.9116C47.13 16.5899 47.1032 16.2726 47.0585 15.9598H48.0908L48.2115 17.3541L48.0774 17.4479C48.2383 16.9206 48.5153 16.5139 48.9086 16.2279C49.3108 15.9419 49.7845 15.7989 50.3296 15.7989C50.9821 15.7989 51.487 15.9598 51.8445 16.2816C52.211 16.6033 52.4433 17.0949 52.5417 17.7562L52.2199 17.582C52.3629 17.0368 52.6489 16.6033 53.0779 16.2816C53.5158 15.9598 54.0387 15.7989 54.6464 15.7989C55.3882 15.7989 55.9468 16.0224 56.3222 16.4692C56.6976 16.9072 56.8853 17.573 56.8853 18.4668V22.7031H55.7994V18.5204C55.7994 17.8948 55.6876 17.439 55.4642 17.153C55.2408 16.858 54.8877 16.7106 54.4051 16.7106C53.8421 16.7106 53.3952 16.9027 53.0645 17.287C52.7428 17.6713 52.5819 18.1942 52.5819 18.8555V22.7031H51.496V18.5204C51.496 17.8948 51.3798 17.439 51.1474 17.153C50.924 16.858 50.571 16.7106 50.0883 16.7106C49.5163 16.7106 49.065 16.9027 48.7343 17.287C48.4126 17.6713 48.2517 18.1942 48.2517 18.8555V22.7031H47.1658Z" fill="black"/>
<path d="M30.5084 55.4879C30.0168 55.4879 29.5565 55.4476 29.1275 55.3672C28.6985 55.2778 28.3008 55.1438 27.9344 54.965C27.5679 54.7773 27.2373 54.5494 26.9423 54.2813L27.3579 53.4367C27.8405 53.8389 28.3232 54.1249 28.8058 54.2947C29.2973 54.4645 29.8693 54.5494 30.5218 54.5494C31.2815 54.5494 31.8713 54.402 32.2914 54.107C32.7115 53.8032 32.9215 53.3786 32.9215 52.8334C32.9215 52.5028 32.8142 52.2391 32.5997 52.0425C32.3942 51.8369 32.1082 51.676 31.7417 51.5598C31.3842 51.4347 30.9776 51.3185 30.5218 51.2113C30.066 51.113 29.6325 51.0013 29.2214 50.8761C28.8103 50.7421 28.4438 50.5767 28.1221 50.3801C27.8093 50.1835 27.5635 49.9332 27.3847 49.6294C27.206 49.3255 27.1166 48.9456 27.1166 48.4898C27.1166 47.9446 27.2596 47.4665 27.5456 47.0554C27.8316 46.6353 28.2338 46.3091 28.7522 46.0767C29.2705 45.8443 29.8828 45.7282 30.5888 45.7282C31.0267 45.7282 31.4468 45.7773 31.849 45.8756C32.2512 45.965 32.6221 46.0991 32.9617 46.2778C33.3103 46.4566 33.6186 46.6755 33.8867 46.9347L33.4577 47.7793C33.0198 47.395 32.5685 47.1135 32.1037 46.9347C31.639 46.756 31.134 46.6666 30.5888 46.6666C29.847 46.6666 29.2661 46.823 28.846 47.1358C28.4259 47.4486 28.2159 47.8866 28.2159 48.4496C28.2159 48.7982 28.3098 49.0797 28.4974 49.2942C28.6851 49.5087 28.9488 49.683 29.2884 49.817C29.628 49.9422 30.0168 50.0584 30.4547 50.1656C30.9195 50.2729 31.3664 50.389 31.7954 50.5142C32.2244 50.6393 32.6042 50.7957 32.9349 50.9834C33.2745 51.1621 33.5426 51.399 33.7393 51.6939C33.9359 51.9799 34.0342 52.3463 34.0342 52.7932C34.0342 53.3384 33.8912 53.8121 33.6052 54.2143C33.3192 54.6165 32.9126 54.9293 32.3852 55.1527C31.8579 55.3761 31.2323 55.4879 30.5084 55.4879ZM38.0835 55.4745C37.2791 55.4745 36.6714 55.251 36.2603 54.8041C35.8581 54.3573 35.657 53.6959 35.657 52.82V48.6373H36.7429V52.7932C36.7429 53.401 36.868 53.8478 37.1183 54.1338C37.3685 54.4198 37.7483 54.5628 38.2578 54.5628C38.8566 54.5628 39.3392 54.3707 39.7056 53.9864C40.0721 53.6021 40.2553 53.0882 40.2553 52.4447V48.6373H41.3412V55.3806H40.2821V53.9193L40.443 53.8389C40.2642 54.3752 39.9604 54.7818 39.5314 55.0589C39.1113 55.3359 38.6287 55.4745 38.0835 55.4745ZM43.4346 55.3806V45.5137H44.5205V50.3667L44.373 50.2326C44.5249 49.6785 44.8154 49.2495 45.2444 48.9456C45.6734 48.6328 46.1918 48.4764 46.7995 48.4764C47.3983 48.4764 47.9212 48.6194 48.368 48.9054C48.8149 49.1914 49.1635 49.5936 49.4137 50.112C49.6729 50.6304 49.8025 51.2426 49.8025 51.9486C49.8025 52.6547 49.6729 53.2758 49.4137 53.8121C49.1635 54.3394 48.8104 54.7505 48.3546 55.0455C47.9078 55.3315 47.3894 55.4745 46.7995 55.4745C46.1918 55.4745 45.6734 55.3225 45.2444 55.0186C44.8154 54.7148 44.5249 54.2813 44.373 53.7182L44.5205 53.5708V55.3806H43.4346ZM46.5984 54.5762C47.2509 54.5762 47.7603 54.3483 48.1267 53.8925C48.4932 53.4278 48.6764 52.7798 48.6764 51.9486C48.6764 51.1353 48.4932 50.5052 48.1267 50.0584C47.7603 49.6115 47.2509 49.388 46.5984 49.388C45.9281 49.388 45.4142 49.616 45.0567 50.0718C44.6992 50.5186 44.5205 51.1532 44.5205 51.9754C44.5205 52.8066 44.6992 53.4501 45.0567 53.9059C45.4142 54.3528 45.9281 54.5762 46.5984 54.5762ZM49.69 57.2843C49.8241 57.32 49.9447 57.3469 50.052 57.3647C50.1503 57.3826 50.2486 57.3915 50.3469 57.3915C50.5525 57.3915 50.7402 57.3513 50.91 57.2709C51.0887 57.1994 51.2273 57.0653 51.3256 56.8687C51.4239 56.681 51.473 56.4084 51.473 56.0509V48.6373H52.5589V56.185C52.5589 56.9089 52.3802 57.4452 52.0227 57.7937C51.6652 58.1512 51.1826 58.33 50.5748 58.33C50.4318 58.33 50.2844 58.321 50.1324 58.3032C49.9805 58.2853 49.833 58.254 49.69 58.2093V57.2843ZM51.3524 45.7818H52.6796V47.0152H51.3524V45.7818ZM60.1908 54.5762C59.8959 54.8533 59.5161 55.0723 59.0513 55.2331C58.5955 55.394 58.1263 55.4745 57.6437 55.4745C56.9465 55.4745 56.3433 55.3359 55.8338 55.0589C55.3333 54.7818 54.9445 54.3841 54.6675 53.8657C54.3994 53.3384 54.2653 52.7128 54.2653 51.9888C54.2653 51.2917 54.3994 50.6795 54.6675 50.1522C54.9356 49.6249 55.3065 49.2138 55.7802 48.9188C56.2628 48.6239 56.8169 48.4764 57.4426 48.4764C58.0414 48.4764 58.5553 48.6105 58.9843 48.8786C59.4133 49.1378 59.7395 49.5132 59.9629 50.0047C60.1953 50.4963 60.3115 51.0862 60.3115 51.7743V51.9754H55.2171V51.2649H59.6948L59.3462 51.7609C59.3641 50.9744 59.2077 50.3712 58.877 49.9511C58.5553 49.531 58.0816 49.321 57.456 49.321C56.8035 49.321 56.2896 49.5534 55.9143 50.0181C55.5478 50.4739 55.3646 51.1085 55.3646 51.9218C55.3646 52.7977 55.5568 53.4591 55.9411 53.9059C56.3343 54.3528 56.9063 54.5762 57.6571 54.5762C58.0503 54.5762 58.4257 54.5137 58.7832 54.3886C59.1496 54.2545 59.4982 54.0534 59.8289 53.7853L60.1908 54.5762ZM64.7884 55.4745C64.1271 55.4745 63.5551 55.3315 63.0724 55.0455C62.5898 54.7595 62.2144 54.3573 61.9463 53.8389C61.6871 53.3205 61.5575 52.7083 61.5575 52.0023C61.5575 51.3051 61.6916 50.6929 61.9597 50.1656C62.2278 49.6294 62.6077 49.2138 63.0992 48.9188C63.5908 48.6239 64.1717 48.4764 64.8421 48.4764C65.2979 48.4764 65.7358 48.5569 66.1559 48.7177C66.5849 48.8697 66.9379 49.0842 67.2149 49.3612L66.853 50.1656C66.5223 49.9064 66.1961 49.7143 65.8743 49.5891C65.5615 49.4551 65.2353 49.388 64.8957 49.388C64.2164 49.388 63.6757 49.616 63.2735 50.0718C62.8803 50.5276 62.6837 51.1711 62.6837 52.0023C62.6837 52.8245 62.8803 53.4591 63.2735 53.9059C63.6668 54.3528 64.2075 54.5762 64.8957 54.5762C65.2264 54.5762 65.5526 54.5137 65.8743 54.3886C66.1961 54.2545 66.5223 54.0579 66.853 53.7987L67.2149 54.6031C66.9289 54.8712 66.567 55.0857 66.129 55.2466C65.7 55.3985 65.2532 55.4745 64.7884 55.4745ZM67.6586 49.4953V48.6373H71.9888V49.4953H67.6586ZM71.962 54.4154V55.3404C71.8101 55.3851 71.6581 55.4164 71.5062 55.4342C71.3632 55.4611 71.2023 55.4745 71.0236 55.4745C70.3979 55.4745 69.8974 55.2957 69.5221 54.9382C69.1556 54.5807 68.9724 54.0445 68.9724 53.3295V46.9079L70.0583 46.5191V53.182C70.0583 53.5395 70.1075 53.8166 70.2058 54.0132C70.313 54.2098 70.456 54.3483 70.6348 54.4288C70.8135 54.5003 71.0146 54.536 71.2381 54.536C71.3721 54.536 71.4928 54.5271 71.6 54.5092C71.7073 54.4913 71.8279 54.4601 71.962 54.4154Z" fill="black"/>
<path d="M121.403 18.8421V22.7031H120.303V18.8287L116.55 13.1579H117.837L120.866 17.8501L123.896 13.1579H125.156L121.403 18.8421ZM127.734 22.797C127.1 22.797 126.541 22.654 126.058 22.368C125.576 22.082 125.2 21.6753 124.932 21.148C124.673 20.6207 124.543 20.004 124.543 19.298C124.543 18.5919 124.673 17.9752 124.932 17.4479C125.2 16.9206 125.576 16.5139 126.058 16.2279C126.541 15.9419 127.1 15.7989 127.734 15.7989C128.369 15.7989 128.927 15.9419 129.41 16.2279C129.893 16.5139 130.263 16.9206 130.523 17.4479C130.791 17.9752 130.925 18.5919 130.925 19.298C130.925 20.004 130.791 20.6207 130.523 21.148C130.263 21.6753 129.893 22.082 129.41 22.368C128.927 22.654 128.369 22.797 127.734 22.797ZM127.734 21.8988C128.404 21.8988 128.918 21.6798 129.276 21.2418C129.633 20.795 129.812 20.147 129.812 19.298C129.812 18.4757 129.629 17.8411 129.262 17.3943C128.896 16.9385 128.387 16.7106 127.734 16.7106C127.073 16.7106 126.559 16.9385 126.192 17.3943C125.826 17.8411 125.643 18.4757 125.643 19.298C125.643 20.147 125.822 20.795 126.179 21.2418C126.545 21.6798 127.064 21.8988 127.734 21.8988ZM138.262 15.9598V22.7031H137.202V21.5368C136.988 21.9479 136.689 22.2607 136.304 22.4752C135.92 22.6897 135.486 22.797 135.004 22.797C134.208 22.797 133.605 22.5735 133.194 22.1267C132.783 21.6798 132.577 21.0184 132.577 20.1425V15.9598H133.663V20.1157C133.663 20.7235 133.788 21.1704 134.039 21.4563C134.289 21.7423 134.669 21.8853 135.178 21.8853C135.777 21.8853 136.26 21.6932 136.626 21.3089C136.992 20.9156 137.176 20.4017 137.176 19.7672V15.9598H138.262ZM143.492 15.7989C143.715 15.7989 143.921 15.8257 144.109 15.8794L144.082 16.8714C143.876 16.7999 143.639 16.7642 143.371 16.7642C142.719 16.7642 142.232 16.9697 141.91 17.3809C141.597 17.7831 141.441 18.2746 141.441 18.8555V22.7031H140.355V17.8501C140.355 17.153 140.319 16.5229 140.248 15.9598H141.28L141.387 17.2066C141.557 16.7508 141.83 16.4022 142.205 16.1609C142.58 15.9196 143.009 15.7989 143.492 15.7989ZM151.536 22.797C150.884 22.797 150.312 22.654 149.82 22.368C149.338 22.082 148.962 21.6798 148.694 21.1614C148.435 20.6341 148.305 20.0219 148.305 19.3248C148.305 18.6276 148.439 18.0154 148.708 17.4881C148.976 16.9519 149.356 16.5363 149.847 16.2413C150.348 15.9464 150.929 15.7989 151.59 15.7989C152.046 15.7989 152.484 15.8794 152.904 16.0402C153.333 16.1922 153.686 16.4067 153.963 16.6837L153.601 17.4881C153.261 17.22 152.931 17.0234 152.609 16.8982C152.296 16.7731 151.974 16.7106 151.644 16.7106C150.955 16.7106 150.415 16.9429 150.021 17.4077C149.628 17.8635 149.432 18.5025 149.432 19.3248C149.432 20.1381 149.624 20.7726 150.008 21.2284C150.401 21.6753 150.946 21.8988 151.644 21.8988C151.974 21.8988 152.296 21.8362 152.609 21.7111C152.931 21.5859 153.261 21.3893 153.601 21.1212L153.963 21.9256C153.677 22.1937 153.315 22.4082 152.877 22.5691C152.448 22.721 152.001 22.797 151.536 22.797ZM158.134 22.797C157.499 22.797 156.941 22.654 156.458 22.368C155.975 22.082 155.6 21.6753 155.332 21.148C155.073 20.6207 154.943 20.004 154.943 19.298C154.943 18.5919 155.073 17.9752 155.332 17.4479C155.6 16.9206 155.975 16.5139 156.458 16.2279C156.941 15.9419 157.499 15.7989 158.134 15.7989C158.768 15.7989 159.327 15.9419 159.809 16.2279C160.292 16.5139 160.663 16.9206 160.922 17.4479C161.19 17.9752 161.324 18.5919 161.324 19.298C161.324 20.004 161.19 20.6207 160.922 21.148C160.663 21.6753 160.292 22.082 159.809 22.368C159.327 22.654 158.768 22.797 158.134 22.797ZM158.134 21.8988C158.804 21.8988 159.318 21.6798 159.675 21.2418C160.033 20.795 160.212 20.147 160.212 19.298C160.212 18.4757 160.028 17.8411 159.662 17.3943C159.296 16.9385 158.786 16.7106 158.134 16.7106C157.472 16.7106 156.958 16.9385 156.592 17.3943C156.226 17.8411 156.042 18.4757 156.042 19.298C156.042 20.147 156.221 20.795 156.579 21.2418C156.945 21.6798 157.463 21.8988 158.134 21.8988ZM170.498 15.7989C171.99 15.7989 172.737 16.6882 172.737 18.4668V22.7031H171.651V18.5204C171.651 17.8858 171.539 17.4256 171.316 17.1396C171.101 16.8536 170.748 16.7106 170.256 16.7106C169.684 16.7106 169.238 16.9027 168.916 17.287C168.594 17.6713 168.433 18.1942 168.433 18.8555V22.7031H167.347V18.5204C167.347 17.8948 167.236 17.439 167.012 17.153C166.789 16.858 166.431 16.7106 165.94 16.7106C165.368 16.7106 164.916 16.9027 164.586 17.287C164.264 17.6713 164.103 18.1942 164.103 18.8555V22.7031H163.017V17.8501C163.017 17.153 162.981 16.5229 162.91 15.9598H163.942L164.049 17.1396C164.237 16.7106 164.514 16.3799 164.881 16.1475C165.256 15.9151 165.689 15.7989 166.181 15.7989C166.717 15.7989 167.155 15.9062 167.495 16.1207C167.834 16.3352 168.085 16.6659 168.246 17.1127C168.451 16.7106 168.751 16.3933 169.144 16.1609C169.546 15.9196 169.997 15.7989 170.498 15.7989ZM178.165 15.7989C178.755 15.7989 179.278 15.9464 179.733 16.2413C180.189 16.5363 180.542 16.9519 180.792 17.4881C181.043 18.0154 181.168 18.6276 181.168 19.3248C181.168 20.0219 181.043 20.6341 180.792 21.1614C180.542 21.6798 180.189 22.082 179.733 22.368C179.287 22.654 178.764 22.797 178.165 22.797C177.638 22.797 177.177 22.6808 176.784 22.4484C176.391 22.216 176.091 21.8853 175.886 21.4563V25.5989H174.8V17.8501C174.8 17.153 174.764 16.5229 174.693 15.9598H175.725L175.832 17.2602C176.02 16.7955 176.315 16.438 176.717 16.1877C177.128 15.9285 177.611 15.7989 178.165 15.7989ZM177.964 21.8988C178.625 21.8988 179.135 21.6753 179.492 21.2284C179.859 20.7816 180.042 20.147 180.042 19.3248C180.042 18.5025 179.859 17.8635 179.492 17.4077C179.126 16.9429 178.616 16.7106 177.964 16.7106C177.293 16.7106 176.78 16.934 176.422 17.3809C176.065 17.8277 175.886 18.4668 175.886 19.298C175.886 20.1291 176.065 20.7726 176.422 21.2284C176.78 21.6753 177.293 21.8988 177.964 21.8988ZM188.777 15.9598V22.7031H187.705V21.4832C187.508 21.9032 187.209 22.2294 186.807 22.4618C186.413 22.6853 185.953 22.797 185.426 22.797C184.827 22.797 184.3 22.654 183.844 22.368C183.397 22.082 183.048 21.6798 182.798 21.1614C182.557 20.6341 182.436 20.0219 182.436 19.3248C182.436 18.6276 182.561 18.0154 182.812 17.4881C183.062 16.9519 183.41 16.5363 183.857 16.2413C184.313 15.9464 184.836 15.7989 185.426 15.7989C185.953 15.7989 186.413 15.9151 186.807 16.1475C187.2 16.3799 187.499 16.7061 187.705 17.1261V15.9598H188.777ZM185.64 21.8988C186.302 21.8988 186.811 21.6753 187.169 21.2284C187.526 20.7726 187.705 20.1291 187.705 19.298C187.705 18.4668 187.526 17.8277 187.169 17.3809C186.811 16.934 186.302 16.7106 185.64 16.7106C184.979 16.7106 184.461 16.9429 184.085 17.4077C183.719 17.8635 183.536 18.5025 183.536 19.3248C183.536 20.147 183.719 20.7816 184.085 21.2284C184.452 21.6753 184.97 21.8988 185.64 21.8988ZM194.242 15.7989C195.86 15.7989 196.668 16.6882 196.668 18.4668V22.7031H195.582V18.5204C195.582 17.8948 195.457 17.439 195.207 17.153C194.957 16.858 194.564 16.7106 194.027 16.7106C193.402 16.7106 192.901 16.9027 192.526 17.287C192.15 17.6713 191.963 18.1897 191.963 18.8421V22.7031H190.877V17.8501C190.877 17.153 190.841 16.5229 190.77 15.9598H191.802L191.909 17.1664C192.115 16.7284 192.423 16.3933 192.834 16.1609C193.245 15.9196 193.715 15.7989 194.242 15.7989ZM204.645 15.9598L201.494 23.3198C201.163 24.0884 200.748 24.6515 200.247 25.009C199.747 25.3665 199.13 25.6123 198.397 25.7463L198.169 24.9017C198.804 24.7587 199.282 24.5666 199.604 24.3253C199.934 24.0929 200.207 23.7309 200.422 23.2394L200.69 22.6361L197.834 15.9598H198.974L201.253 21.5234L203.559 15.9598H204.645Z" fill="black"/>
<path d="M227.41 19.68V23.541H226.31V19.6666L222.557 13.9958H223.844L226.873 18.688L229.903 13.9958H231.163L227.41 19.68ZM233.741 23.6349C233.106 23.6349 232.548 23.4919 232.065 23.2059C231.583 22.9199 231.207 22.5132 230.939 21.9859C230.68 21.4586 230.55 20.8419 230.55 20.1358C230.55 19.4298 230.68 18.8131 230.939 18.2858C231.207 17.7585 231.583 17.3518 232.065 17.0658C232.548 16.7798 233.106 16.6368 233.741 16.6368C234.376 16.6368 234.934 16.7798 235.417 17.0658C235.899 17.3518 236.27 17.7585 236.529 18.2858C236.798 18.8131 236.932 19.4298 236.932 20.1358C236.932 20.8419 236.798 21.4586 236.529 21.9859C236.27 22.5132 235.899 22.9199 235.417 23.2059C234.934 23.4919 234.376 23.6349 233.741 23.6349ZM233.741 22.7366C234.411 22.7366 234.925 22.5177 235.283 22.0797C235.64 21.6329 235.819 20.9849 235.819 20.1358C235.819 19.3136 235.636 18.679 235.269 18.2322C234.903 17.7764 234.393 17.5484 233.741 17.5484C233.08 17.5484 232.566 17.7764 232.199 18.2322C231.833 18.679 231.65 19.3136 231.65 20.1358C231.65 20.9849 231.828 21.6329 232.186 22.0797C232.552 22.5177 233.071 22.7366 233.741 22.7366ZM244.268 16.7977V23.541H243.209V22.3747C242.995 22.7858 242.695 23.0986 242.311 23.3131C241.927 23.5276 241.493 23.6349 241.011 23.6349C240.215 23.6349 239.612 23.4114 239.201 22.9645C238.79 22.5177 238.584 21.8563 238.584 20.9804V16.7977H239.67V20.9536C239.67 21.5614 239.795 22.0082 240.045 22.2942C240.296 22.5802 240.676 22.7232 241.185 22.7232C241.784 22.7232 242.266 22.5311 242.633 22.1468C242.999 21.7535 243.182 21.2396 243.182 20.6051V16.7977H244.268ZM249.499 16.6368C249.722 16.6368 249.928 16.6636 250.115 16.7173L250.089 17.7093C249.883 17.6378 249.646 17.6021 249.378 17.6021C248.726 17.6021 248.239 17.8076 247.917 18.2188C247.604 18.6209 247.448 19.1125 247.448 19.6934V23.541H246.362V18.688C246.362 17.9909 246.326 17.3608 246.255 16.7977H247.287L247.394 18.0445C247.564 17.5887 247.836 17.2401 248.212 16.9988C248.587 16.7575 249.016 16.6368 249.499 16.6368ZM252.111 22.1602V23.541H250.73V22.1602H252.111ZM256.614 23.6349C255.961 23.6349 255.389 23.4919 254.898 23.2059C254.415 22.9199 254.04 22.5177 253.771 21.9993C253.512 21.472 253.383 20.8598 253.383 20.1627C253.383 19.4655 253.517 18.8533 253.785 18.326C254.053 17.7898 254.433 17.3742 254.924 17.0792C255.425 16.7843 256.006 16.6368 256.667 16.6368C257.123 16.6368 257.561 16.7173 257.981 16.8781C258.41 17.0301 258.763 17.2446 259.04 17.5216L258.678 18.326C258.339 18.0579 258.008 17.8613 257.686 17.7361C257.373 17.611 257.052 17.5484 256.721 17.5484C256.033 17.5484 255.492 17.7808 255.099 18.2456C254.705 18.7014 254.509 19.3404 254.509 20.1627C254.509 20.976 254.701 21.6105 255.085 22.0663C255.479 22.5132 256.024 22.7366 256.721 22.7366C257.052 22.7366 257.373 22.6741 257.686 22.549C258.008 22.4238 258.339 22.2272 258.678 21.9591L259.04 22.7635C258.754 23.0316 258.392 23.2461 257.954 23.407C257.525 23.5589 257.078 23.6349 256.614 23.6349ZM263.211 23.6349C262.576 23.6349 262.018 23.4919 261.535 23.2059C261.053 22.9199 260.677 22.5132 260.409 21.9859C260.15 21.4586 260.02 20.8419 260.02 20.1358C260.02 19.4298 260.15 18.8131 260.409 18.2858C260.677 17.7585 261.053 17.3518 261.535 17.0658C262.018 16.7798 262.576 16.6368 263.211 16.6368C263.846 16.6368 264.404 16.7798 264.887 17.0658C265.369 17.3518 265.74 17.7585 266 18.2858C266.268 18.8131 266.402 19.4298 266.402 20.1358C266.402 20.8419 266.268 21.4586 266 21.9859C265.74 22.5132 265.369 22.9199 264.887 23.2059C264.404 23.4919 263.846 23.6349 263.211 23.6349ZM263.211 22.7366C263.881 22.7366 264.395 22.5177 264.753 22.0797C265.11 21.6329 265.289 20.9849 265.289 20.1358C265.289 19.3136 265.106 18.679 264.739 18.2322C264.373 17.7764 263.863 17.5484 263.211 17.5484C262.55 17.5484 262.036 17.7764 261.669 18.2322C261.303 18.679 261.12 19.3136 261.12 20.1358C261.12 20.9849 261.298 21.6329 261.656 22.0797C262.022 22.5177 262.541 22.7366 263.211 22.7366ZM275.575 16.6368C277.068 16.6368 277.814 17.5261 277.814 19.3047V23.541H276.728V19.3583C276.728 18.7237 276.616 18.2634 276.393 17.9774C276.178 17.6914 275.825 17.5484 275.334 17.5484C274.762 17.5484 274.315 17.7406 273.993 18.1249C273.671 18.5092 273.511 19.0321 273.511 19.6934V23.541H272.425V19.3583C272.425 18.7327 272.313 18.2769 272.089 17.9909C271.866 17.6959 271.509 17.5484 271.017 17.5484C270.445 17.5484 269.994 17.7406 269.663 18.1249C269.341 18.5092 269.18 19.0321 269.18 19.6934V23.541H268.094V18.688C268.094 17.9909 268.059 17.3608 267.987 16.7977H269.019L269.127 17.9774C269.314 17.5484 269.591 17.2178 269.958 16.9854C270.333 16.753 270.767 16.6368 271.258 16.6368C271.795 16.6368 272.232 16.7441 272.572 16.9586C272.912 17.1731 273.162 17.5038 273.323 17.9506C273.528 17.5484 273.828 17.2312 274.221 16.9988C274.623 16.7575 275.075 16.6368 275.575 16.6368ZM283.242 16.6368C283.832 16.6368 284.355 16.7843 284.811 17.0792C285.267 17.3742 285.62 17.7898 285.87 18.326C286.12 18.8533 286.245 19.4655 286.245 20.1627C286.245 20.8598 286.12 21.472 285.87 21.9993C285.62 22.5177 285.267 22.9199 284.811 23.2059C284.364 23.4919 283.841 23.6349 283.242 23.6349C282.715 23.6349 282.255 23.5187 281.861 23.2863C281.468 23.0539 281.169 22.7232 280.963 22.2942V26.4368H279.877V18.688C279.877 17.9909 279.841 17.3608 279.77 16.7977H280.802L280.91 18.0981C281.097 17.6334 281.392 17.2759 281.794 17.0256C282.205 16.7664 282.688 16.6368 283.242 16.6368ZM283.041 22.7366C283.702 22.7366 284.212 22.5132 284.569 22.0663C284.936 21.6195 285.119 20.9849 285.119 20.1627C285.119 19.3404 284.936 18.7014 284.569 18.2456C284.203 17.7808 283.694 17.5484 283.041 17.5484C282.371 17.5484 281.857 17.7719 281.499 18.2188C281.142 18.6656 280.963 19.3047 280.963 20.1358C280.963 20.967 281.142 21.6105 281.499 22.0663C281.857 22.5132 282.371 22.7366 283.041 22.7366ZM293.855 16.7977V23.541H292.782V22.3211C292.586 22.7411 292.286 23.0673 291.884 23.2997C291.491 23.5231 291.03 23.6349 290.503 23.6349C289.904 23.6349 289.377 23.4919 288.921 23.2059C288.474 22.9199 288.126 22.5177 287.875 21.9993C287.634 21.472 287.514 20.8598 287.514 20.1627C287.514 19.4655 287.639 18.8533 287.889 18.326C288.139 17.7898 288.488 17.3742 288.935 17.0792C289.39 16.7843 289.913 16.6368 290.503 16.6368C291.03 16.6368 291.491 16.753 291.884 16.9854C292.277 17.2178 292.577 17.544 292.782 17.964V16.7977H293.855ZM290.718 22.7366C291.379 22.7366 291.888 22.5132 292.246 22.0663C292.603 21.6105 292.782 20.967 292.782 20.1358C292.782 19.3047 292.603 18.6656 292.246 18.2188C291.888 17.7719 291.379 17.5484 290.718 17.5484C290.056 17.5484 289.538 17.7808 289.162 18.2456C288.796 18.7014 288.613 19.3404 288.613 20.1627C288.613 20.9849 288.796 21.6195 289.162 22.0663C289.529 22.5132 290.047 22.7366 290.718 22.7366ZM299.319 16.6368C300.937 16.6368 301.746 17.5261 301.746 19.3047V23.541H300.66V19.3583C300.66 18.7327 300.535 18.2769 300.284 17.9909C300.034 17.6959 299.641 17.5484 299.105 17.5484C298.479 17.5484 297.979 17.7406 297.603 18.1249C297.228 18.5092 297.04 19.0276 297.04 19.68V23.541H295.954V18.688C295.954 17.9909 295.918 17.3608 295.847 16.7977H296.879L296.986 18.0043C297.192 17.5663 297.5 17.2312 297.911 16.9988C298.323 16.7575 298.792 16.6368 299.319 16.6368ZM309.722 16.7977L306.571 24.1577C306.241 24.9263 305.825 25.4894 305.325 25.8469C304.824 26.2044 304.207 26.4502 303.475 26.5842L303.247 25.7396C303.881 25.5966 304.359 25.4045 304.681 25.1632C305.012 24.9308 305.284 24.5688 305.499 24.0773L305.767 23.474L302.911 16.7977H304.051L306.33 22.3613L308.636 16.7977H309.722ZM316.281 25.5922C315.119 25.5922 314.105 25.3509 313.238 24.8682C312.371 24.3945 311.705 23.7242 311.24 22.8573C310.775 21.9904 310.543 20.9849 310.543 19.8409C310.543 18.6522 310.793 17.611 311.294 16.7173C311.794 15.8235 312.478 15.1353 313.345 14.6527C314.221 14.1611 315.199 13.9154 316.281 13.9154C317.434 13.9154 318.421 14.1522 319.244 14.6259C320.075 15.0996 320.7 15.7163 321.12 16.476C321.54 17.2356 321.751 18.04 321.751 18.8891C321.751 19.7739 321.616 20.4978 321.348 21.0609C321.089 21.6239 320.754 22.0351 320.343 22.2942C319.932 22.5445 319.494 22.6696 319.029 22.6696C318.546 22.6696 318.167 22.5668 317.89 22.3613C317.612 22.1468 317.461 21.8474 317.434 21.4631H317.407C317.183 21.8384 316.897 22.1334 316.549 22.3479C316.209 22.5624 315.812 22.6696 315.356 22.6696C314.766 22.6696 314.288 22.4641 313.921 22.0529C313.555 21.6329 313.372 21.0519 313.372 20.3101C313.372 19.6934 313.488 19.117 313.72 18.5807C313.962 18.0355 314.297 17.6021 314.726 17.2803C315.164 16.9496 315.664 16.7843 316.227 16.7843C316.656 16.7843 317.027 16.8871 317.34 17.0926C317.653 17.2982 317.858 17.5619 317.957 17.8836H317.97L318.131 16.9452H319.016L318.372 20.6185C318.336 20.8687 318.319 21.0296 318.319 21.1011C318.319 21.405 318.39 21.6239 318.533 21.758C318.676 21.8831 318.895 21.9457 319.19 21.9457C319.449 21.9457 319.708 21.8474 319.968 21.6507C320.227 21.4452 320.446 21.1145 320.624 20.6587C320.803 20.2029 320.893 19.613 320.893 18.8891C320.893 18.1741 320.723 17.4993 320.383 16.8647C320.043 16.2302 319.525 15.7163 318.828 15.323C318.131 14.9298 317.282 14.7331 316.281 14.7331C315.36 14.7331 314.529 14.9432 313.787 15.3632C313.054 15.7744 312.473 16.3642 312.044 17.1329C311.624 17.9015 311.414 18.8042 311.414 19.8409C311.414 20.8419 311.607 21.7133 311.991 22.4551C312.384 23.1969 312.947 23.7689 313.68 24.1711C314.413 24.5822 315.28 24.7878 316.281 24.7878C317.04 24.7878 317.697 24.6761 318.252 24.4526C318.815 24.2381 319.244 23.9343 319.539 23.541H320.718C320.334 24.1756 319.757 24.6761 318.989 25.0425C318.22 25.4089 317.318 25.5922 316.281 25.5922ZM315.543 21.9457C315.999 21.9457 316.393 21.8116 316.723 21.5435C317.054 21.2664 317.304 20.9134 317.474 20.4844C317.644 20.0465 317.729 19.5862 317.729 19.1036C317.729 18.5941 317.604 18.2054 317.353 17.9372C317.103 17.6691 316.763 17.535 316.334 17.535C315.905 17.535 315.53 17.6691 315.208 17.9372C314.895 18.1964 314.654 18.536 314.484 18.9561C314.315 19.3762 314.23 19.8141 314.23 20.2699C314.23 20.7972 314.355 21.2083 314.605 21.5033C314.864 21.7982 315.177 21.9457 315.543 21.9457ZM323.581 13.9958H329.48V14.9208H324.667V18.2322H329.212V19.1572H324.667V23.541H323.581V13.9958ZM336.515 20.1358H331.568C331.577 20.9938 331.773 21.6418 332.158 22.0797C332.551 22.5177 333.118 22.7366 333.86 22.7366C334.647 22.7366 335.371 22.473 336.032 21.9457L336.394 22.7366C336.099 23.0137 335.719 23.2327 335.254 23.3935C334.799 23.5544 334.329 23.6349 333.847 23.6349C332.792 23.6349 331.965 23.3265 331.367 22.7098C330.768 22.0842 330.468 21.2307 330.468 20.1492C330.468 19.4611 330.602 18.8533 330.871 18.326C331.139 17.7898 331.514 17.3742 331.997 17.0792C332.479 16.7843 333.029 16.6368 333.646 16.6368C334.539 16.6368 335.241 16.9318 335.75 17.5216C336.26 18.1026 336.515 18.9069 336.515 19.9347V20.1358ZM333.659 17.4814C333.096 17.4814 332.636 17.6512 332.278 17.9909C331.93 18.3305 331.706 18.8086 331.608 19.4253H335.536C335.482 18.7908 335.295 18.3081 334.973 17.9774C334.66 17.6468 334.222 17.4814 333.659 17.4814ZM343.807 20.1358H338.86C338.869 20.9938 339.065 21.6418 339.45 22.0797C339.843 22.5177 340.411 22.7366 341.152 22.7366C341.939 22.7366 342.663 22.473 343.324 21.9457L343.686 22.7366C343.391 23.0137 343.011 23.2327 342.547 23.3935C342.091 23.5544 341.622 23.6349 341.139 23.6349C340.084 23.6349 339.258 23.3265 338.659 22.7098C338.06 22.0842 337.761 21.2307 337.761 20.1492C337.761 19.4611 337.895 18.8533 338.163 18.326C338.431 17.7898 338.806 17.3742 339.289 17.0792C339.771 16.7843 340.321 16.6368 340.938 16.6368C341.832 16.6368 342.533 16.9318 343.043 17.5216C343.552 18.1026 343.807 18.9069 343.807 19.9347V20.1358ZM340.951 17.4814C340.388 17.4814 339.928 17.6512 339.57 17.9909C339.222 18.3305 338.998 18.8086 338.9 19.4253H342.828C342.774 18.7908 342.587 18.3081 342.265 17.9774C341.952 17.6468 341.514 17.4814 340.951 17.4814ZM351.394 13.6741V23.541H350.321V22.3211C350.125 22.7411 349.825 23.0673 349.423 23.2997C349.03 23.5231 348.57 23.6349 348.042 23.6349C347.453 23.6349 346.93 23.4874 346.474 23.1925C346.027 22.8975 345.678 22.4864 345.428 21.9591C345.178 21.4228 345.053 20.8062 345.053 20.109C345.053 19.4119 345.173 18.8042 345.415 18.2858C345.665 17.7585 346.018 17.3518 346.474 17.0658C346.93 16.7798 347.453 16.6368 348.042 16.6368C348.57 16.6368 349.03 16.753 349.423 16.9854C349.816 17.2088 350.111 17.5261 350.308 17.9372V13.6741H351.394ZM348.257 22.7366C348.918 22.7366 349.428 22.5132 349.785 22.0663C350.143 21.6105 350.321 20.967 350.321 20.1358C350.321 19.3136 350.143 18.679 349.785 18.2322C349.428 17.7764 348.918 17.5484 348.257 17.5484C347.596 17.5484 347.077 17.7719 346.702 18.2188C346.335 18.6656 346.152 19.2957 346.152 20.109C346.152 20.9402 346.335 21.5882 346.702 22.0529C347.077 22.5087 347.596 22.7366 348.257 22.7366ZM356.858 16.6368C357.448 16.6368 357.971 16.7798 358.427 17.0658C358.883 17.3518 359.236 17.7585 359.486 18.2858C359.736 18.8042 359.861 19.4119 359.861 20.109C359.861 20.8062 359.736 21.4228 359.486 21.9591C359.236 22.4864 358.883 22.8975 358.427 23.1925C357.971 23.4874 357.448 23.6349 356.858 23.6349C356.331 23.6349 355.871 23.5187 355.478 23.2863C355.084 23.0539 354.785 22.7232 354.579 22.2942V23.541H353.493V13.6741H354.579V17.9909C354.776 17.5529 355.071 17.2178 355.464 16.9854C355.866 16.753 356.331 16.6368 356.858 16.6368ZM356.657 22.7366C357.31 22.7366 357.819 22.5087 358.186 22.0529C358.552 21.5882 358.735 20.9402 358.735 20.109C358.735 19.2957 358.552 18.6656 358.186 18.2188C357.828 17.7719 357.319 17.5484 356.657 17.5484C355.987 17.5484 355.473 17.7719 355.116 18.2188C354.758 18.6656 354.579 19.3047 354.579 20.1358C354.579 20.967 354.758 21.6105 355.116 22.0663C355.473 22.5132 355.987 22.7366 356.657 22.7366ZM367.471 16.7977V23.541H366.398V22.3211C366.202 22.7411 365.902 23.0673 365.5 23.2997C365.107 23.5231 364.647 23.6349 364.119 23.6349C363.521 23.6349 362.993 23.4919 362.537 23.2059C362.091 22.9199 361.742 22.5177 361.492 21.9993C361.25 21.472 361.13 20.8598 361.13 20.1627C361.13 19.4655 361.255 18.8533 361.505 18.326C361.755 17.7898 362.104 17.3742 362.551 17.0792C363.007 16.7843 363.529 16.6368 364.119 16.6368C364.647 16.6368 365.107 16.753 365.5 16.9854C365.893 17.2178 366.193 17.544 366.398 17.964V16.7977H367.471ZM364.334 22.7366C364.995 22.7366 365.505 22.5132 365.862 22.0663C366.22 21.6105 366.398 20.967 366.398 20.1358C366.398 19.3047 366.22 18.6656 365.862 18.2188C365.505 17.7719 364.995 17.5484 364.334 17.5484C363.672 17.5484 363.154 17.7808 362.779 18.2456C362.412 18.7014 362.229 19.3404 362.229 20.1627C362.229 20.9849 362.412 21.6195 362.779 22.0663C363.145 22.5132 363.664 22.7366 364.334 22.7366ZM372.399 23.6349C371.747 23.6349 371.175 23.4919 370.683 23.2059C370.201 22.9199 369.825 22.5177 369.557 21.9993C369.298 21.472 369.168 20.8598 369.168 20.1627C369.168 19.4655 369.302 18.8533 369.57 18.326C369.839 17.7898 370.218 17.3742 370.71 17.0792C371.21 16.7843 371.791 16.6368 372.453 16.6368C372.909 16.6368 373.346 16.7173 373.767 16.8781C374.196 17.0301 374.549 17.2446 374.826 17.5216L374.464 18.326C374.124 18.0579 373.793 17.8613 373.472 17.7361C373.159 17.611 372.837 17.5484 372.506 17.5484C371.818 17.5484 371.277 17.7808 370.884 18.2456C370.491 18.7014 370.294 19.3404 370.294 20.1627C370.294 20.976 370.487 21.6105 370.871 22.0663C371.264 22.5132 371.809 22.7366 372.506 22.7366C372.837 22.7366 373.159 22.6741 373.472 22.549C373.793 22.4238 374.124 22.2272 374.464 21.9591L374.826 22.7635C374.54 23.0316 374.178 23.2461 373.74 23.407C373.311 23.5589 372.864 23.6349 372.399 23.6349ZM380.753 23.541L377.294 20.2967V23.541H376.208V13.6741H377.294V19.8945L380.471 16.8111H381.852L378.474 20.042L382.174 23.541H380.753ZM383.242 13.9958H384.341V22.6026H389.127V23.541H383.242V13.9958ZM396.339 16.7977V23.541H395.266V22.3211C395.07 22.7411 394.77 23.0673 394.368 23.2997C393.975 23.5231 393.514 23.6349 392.987 23.6349C392.388 23.6349 391.861 23.4919 391.405 23.2059C390.958 22.9199 390.61 22.5177 390.36 21.9993C390.118 21.472 389.998 20.8598 389.998 20.1627C389.998 19.4655 390.123 18.8533 390.373 18.326C390.623 17.7898 390.972 17.3742 391.419 17.0792C391.874 16.7843 392.397 16.6368 392.987 16.6368C393.514 16.6368 393.975 16.753 394.368 16.9854C394.761 17.2178 395.061 17.544 395.266 17.964V16.7977H396.339ZM393.202 22.7366C393.863 22.7366 394.372 22.5132 394.73 22.0663C395.087 21.6105 395.266 20.967 395.266 20.1358C395.266 19.3047 395.087 18.6656 394.73 18.2188C394.372 17.7719 393.863 17.5484 393.202 17.5484C392.54 17.5484 392.022 17.7808 391.647 18.2456C391.28 18.7014 391.097 19.3404 391.097 20.1627C391.097 20.9849 391.28 21.6195 391.647 22.0663C392.013 22.5132 392.531 22.7366 393.202 22.7366ZM401.803 16.6368C402.393 16.6368 402.916 16.7798 403.372 17.0658C403.828 17.3518 404.181 17.7585 404.431 18.2858C404.681 18.8042 404.806 19.4119 404.806 20.109C404.806 20.8062 404.681 21.4228 404.431 21.9591C404.181 22.4864 403.828 22.8975 403.372 23.1925C402.916 23.4874 402.393 23.6349 401.803 23.6349C401.276 23.6349 400.816 23.5187 400.422 23.2863C400.029 23.0539 399.73 22.7232 399.524 22.2942V23.541H398.438V13.6741H399.524V17.9909C399.721 17.5529 400.016 17.2178 400.409 16.9854C400.811 16.753 401.276 16.6368 401.803 16.6368ZM401.602 22.7366C402.255 22.7366 402.764 22.5087 403.13 22.0529C403.497 21.5882 403.68 20.9402 403.68 20.109C403.68 19.2957 403.497 18.6656 403.13 18.2188C402.773 17.7719 402.263 17.5484 401.602 17.5484C400.932 17.5484 400.418 17.7719 400.06 18.2188C399.703 18.6656 399.524 19.3047 399.524 20.1358C399.524 20.967 399.703 21.6105 400.06 22.0663C400.418 22.5132 400.932 22.7366 401.602 22.7366ZM408.756 23.6349C407.621 23.6349 406.723 23.3444 406.061 22.7635L406.423 21.9591C406.79 22.2451 407.16 22.4506 407.536 22.5758C407.911 22.7009 408.331 22.7635 408.796 22.7635C409.305 22.7635 409.69 22.6786 409.949 22.5087C410.217 22.33 410.351 22.0753 410.351 21.7446C410.351 21.4765 410.262 21.262 410.083 21.1011C409.904 20.9402 409.609 20.8151 409.198 20.7257L408.059 20.4576C407.496 20.3325 407.058 20.109 406.745 19.7873C406.441 19.4655 406.289 19.0812 406.289 18.6343C406.289 18.0445 406.526 17.5663 407 17.1999C407.473 16.8245 408.099 16.6368 408.876 16.6368C409.35 16.6368 409.797 16.7128 410.217 16.8647C410.637 17.0167 410.99 17.2356 411.276 17.5216L410.914 18.3126C410.28 17.7853 409.6 17.5216 408.876 17.5216C408.394 17.5216 408.018 17.6155 407.75 17.8032C407.491 17.9819 407.362 18.2366 407.362 18.5673C407.362 18.8444 407.442 19.0633 407.603 19.2242C407.773 19.3851 408.041 19.5102 408.407 19.5996L409.547 19.8811C410.172 20.0241 410.637 20.2476 410.941 20.5514C411.245 20.8464 411.397 21.2352 411.397 21.7178C411.397 22.2987 411.16 22.7635 410.686 23.112C410.213 23.4606 409.569 23.6349 408.756 23.6349ZM414.255 22.1602V23.541H412.874V22.1602H414.255ZM418.758 23.6349C418.105 23.6349 417.533 23.4919 417.042 23.2059C416.559 22.9199 416.184 22.5177 415.916 21.9993C415.657 21.472 415.527 20.8598 415.527 20.1627C415.527 19.4655 415.661 18.8533 415.929 18.326C416.197 17.7898 416.577 17.3742 417.069 17.0792C417.569 16.7843 418.15 16.6368 418.811 16.6368C419.267 16.6368 419.705 16.7173 420.125 16.8781C420.554 17.0301 420.907 17.2446 421.184 17.5216L420.822 18.326C420.483 18.0579 420.152 17.8613 419.83 17.7361C419.518 17.611 419.196 17.5484 418.865 17.5484C418.177 17.5484 417.636 17.7808 417.243 18.2456C416.85 18.7014 416.653 19.3404 416.653 20.1627C416.653 20.976 416.845 21.6105 417.23 22.0663C417.623 22.5132 418.168 22.7366 418.865 22.7366C419.196 22.7366 419.518 22.6741 419.83 22.549C420.152 22.4238 420.483 22.2272 420.822 21.9591L421.184 22.7635C420.898 23.0316 420.536 23.2461 420.098 23.407C419.669 23.5589 419.223 23.6349 418.758 23.6349ZM425.355 23.6349C424.721 23.6349 424.162 23.4919 423.679 23.2059C423.197 22.9199 422.821 22.5132 422.553 21.9859C422.294 21.4586 422.165 20.8419 422.165 20.1358C422.165 19.4298 422.294 18.8131 422.553 18.2858C422.821 17.7585 423.197 17.3518 423.679 17.0658C424.162 16.7798 424.721 16.6368 425.355 16.6368C425.99 16.6368 426.548 16.7798 427.031 17.0658C427.514 17.3518 427.885 17.7585 428.144 18.2858C428.412 18.8131 428.546 19.4298 428.546 20.1358C428.546 20.8419 428.412 21.4586 428.144 21.9859C427.885 22.5132 427.514 22.9199 427.031 23.2059C426.548 23.4919 425.99 23.6349 425.355 23.6349ZM425.355 22.7366C426.026 22.7366 426.539 22.5177 426.897 22.0797C427.254 21.6329 427.433 20.9849 427.433 20.1358C427.433 19.3136 427.25 18.679 426.884 18.2322C426.517 17.7764 426.008 17.5484 425.355 17.5484C424.694 17.5484 424.18 17.7764 423.814 18.2322C423.447 18.679 423.264 19.3136 423.264 20.1358C423.264 20.9849 423.443 21.6329 423.8 22.0797C424.167 22.5177 424.685 22.7366 425.355 22.7366ZM437.719 16.6368C439.212 16.6368 439.958 17.5261 439.958 19.3047V23.541H438.872V19.3583C438.872 18.7237 438.761 18.2634 438.537 17.9774C438.323 17.6914 437.97 17.5484 437.478 17.5484C436.906 17.5484 436.459 17.7406 436.137 18.1249C435.816 18.5092 435.655 19.0321 435.655 19.6934V23.541H434.569V19.3583C434.569 18.7327 434.457 18.2769 434.234 17.9909C434.01 17.6959 433.653 17.5484 433.161 17.5484C432.589 17.5484 432.138 17.7406 431.807 18.1249C431.485 18.5092 431.325 19.0321 431.325 19.6934V23.541H430.239V18.688C430.239 17.9909 430.203 17.3608 430.131 16.7977H431.164L431.271 17.9774C431.459 17.5484 431.736 17.2178 432.102 16.9854C432.478 16.753 432.911 16.6368 433.403 16.6368C433.939 16.6368 434.377 16.7441 434.716 16.9586C435.056 17.1731 435.306 17.5038 435.467 17.9506C435.673 17.5484 435.972 17.2312 436.365 16.9988C436.767 16.7575 437.219 16.6368 437.719 16.6368Z" fill="#767676"/>
<path d="M127.089 45.4548V55H125.99V50.6162H120.266V55H119.18V45.4548H120.266V49.6911H125.99V45.4548H127.089ZM132.098 55.0938C131.464 55.0938 130.905 54.9508 130.423 54.6648C129.94 54.3788 129.565 53.9722 129.296 53.4449C129.037 52.9176 128.908 52.3009 128.908 51.5948C128.908 50.8888 129.037 50.2721 129.296 49.7448C129.565 49.2175 129.94 48.8108 130.423 48.5248C130.905 48.2388 131.464 48.0958 132.098 48.0958C132.733 48.0958 133.291 48.2388 133.774 48.5248C134.257 48.8108 134.628 49.2175 134.887 49.7448C135.155 50.2721 135.289 50.8888 135.289 51.5948C135.289 52.3009 135.155 52.9176 134.887 53.4449C134.628 53.9722 134.257 54.3788 133.774 54.6648C133.291 54.9508 132.733 55.0938 132.098 55.0938ZM132.098 54.1956C132.769 54.1956 133.283 53.9767 133.64 53.5387C133.997 53.0919 134.176 52.4439 134.176 51.5948C134.176 50.7726 133.993 50.138 133.627 49.6911C133.26 49.2353 132.751 49.0074 132.098 49.0074C131.437 49.0074 130.923 49.2353 130.557 49.6911C130.19 50.138 130.007 50.7726 130.007 51.5948C130.007 52.4439 130.186 53.0919 130.543 53.5387C130.91 53.9767 131.428 54.1956 132.098 54.1956ZM147.145 48.2567L144.652 55H143.606L141.676 49.7314L139.759 55H138.713L136.219 48.2567H137.359L139.263 53.6996L141.233 48.2567H142.185L144.129 53.713L146.073 48.2567H147.145ZM162.293 48.2567L159.799 55H158.754L156.823 49.7314L154.906 55H153.86L151.367 48.2567H152.506L154.41 53.6996L156.381 48.2567H157.333L159.277 53.713L161.22 48.2567H162.293ZM166.412 55.0938C165.778 55.0938 165.219 54.9508 164.737 54.6648C164.254 54.3788 163.879 53.9722 163.61 53.4449C163.351 52.9176 163.222 52.3009 163.222 51.5948C163.222 50.8888 163.351 50.2721 163.61 49.7448C163.879 49.2175 164.254 48.8108 164.737 48.5248C165.219 48.2388 165.778 48.0958 166.412 48.0958C167.047 48.0958 167.606 48.2388 168.088 48.5248C168.571 48.8108 168.942 49.2175 169.201 49.7448C169.469 50.2721 169.603 50.8888 169.603 51.5948C169.603 52.3009 169.469 52.9176 169.201 53.4449C168.942 53.9722 168.571 54.3788 168.088 54.6648C167.606 54.9508 167.047 55.0938 166.412 55.0938ZM166.412 54.1956C167.083 54.1956 167.597 53.9767 167.954 53.5387C168.312 53.0919 168.49 52.4439 168.49 51.5948C168.49 50.7726 168.307 50.138 167.941 49.6911C167.574 49.2353 167.065 49.0074 166.412 49.0074C165.751 49.0074 165.237 49.2353 164.871 49.6911C164.504 50.138 164.321 50.7726 164.321 51.5948C164.321 52.4439 164.5 53.0919 164.857 53.5387C165.224 53.9767 165.742 54.1956 166.412 54.1956ZM176.94 48.2567V55H175.881V53.8337C175.666 54.2448 175.367 54.5576 174.982 54.7721C174.598 54.9866 174.165 55.0938 173.682 55.0938C172.887 55.0938 172.283 54.8704 171.872 54.4235C171.461 53.9767 171.256 53.3153 171.256 52.4394V48.2567H172.341V52.4126C172.341 53.0204 172.467 53.4672 172.717 53.7532C172.967 54.0392 173.347 54.1822 173.856 54.1822C174.455 54.1822 174.938 53.9901 175.304 53.6058C175.671 53.2125 175.854 52.6986 175.854 52.064V48.2567H176.94ZM179.033 45.133H180.119V55H179.033V45.133ZM188.167 45.133V55H187.094V53.78C186.897 54.2001 186.598 54.5263 186.196 54.7587C185.803 54.9821 185.342 55.0938 184.815 55.0938C184.225 55.0938 183.702 54.9464 183.246 54.6514C182.8 54.3565 182.451 53.9454 182.201 53.4181C181.951 52.8818 181.825 52.2651 181.825 51.568C181.825 50.8709 181.946 50.2631 182.187 49.7448C182.438 49.2175 182.791 48.8108 183.246 48.5248C183.702 48.2388 184.225 48.0958 184.815 48.0958C185.342 48.0958 185.803 48.212 186.196 48.4444C186.589 48.6678 186.884 48.9851 187.081 49.3962V45.133H188.167ZM185.029 54.1956C185.691 54.1956 186.2 53.9722 186.558 53.5253C186.915 53.0695 187.094 52.426 187.094 51.5948C187.094 50.7726 186.915 50.138 186.558 49.6911C186.2 49.2353 185.691 49.0074 185.029 49.0074C184.368 49.0074 183.85 49.2309 183.474 49.6777C183.108 50.1246 182.925 50.7547 182.925 51.568C182.925 52.3992 183.108 53.0472 183.474 53.5119C183.85 53.9677 184.368 54.1956 185.029 54.1956ZM199.687 48.2567L196.537 55.6167C196.206 56.3853 195.79 56.9484 195.29 57.3059C194.789 57.6634 194.173 57.9091 193.44 58.0432L193.212 57.1986C193.847 57.0556 194.325 56.8635 194.646 56.6221C194.977 56.3898 195.25 56.0278 195.464 55.5362L195.732 54.933L192.877 48.2567H194.016L196.295 53.8203L198.601 48.2567H199.687ZM203.594 55.0938C202.959 55.0938 202.4 54.9508 201.918 54.6648C201.435 54.3788 201.06 53.9722 200.792 53.4449C200.533 52.9176 200.403 52.3009 200.403 51.5948C200.403 50.8888 200.533 50.2721 200.792 49.7448C201.06 49.2175 201.435 48.8108 201.918 48.5248C202.4 48.2388 202.959 48.0958 203.594 48.0958C204.228 48.0958 204.787 48.2388 205.269 48.5248C205.752 48.8108 206.123 49.2175 206.382 49.7448C206.65 50.2721 206.784 50.8888 206.784 51.5948C206.784 52.3009 206.65 52.9176 206.382 53.4449C206.123 53.9722 205.752 54.3788 205.269 54.6648C204.787 54.9508 204.228 55.0938 203.594 55.0938ZM203.594 54.1956C204.264 54.1956 204.778 53.9767 205.135 53.5387C205.493 53.0919 205.672 52.4439 205.672 51.5948C205.672 50.7726 205.488 50.138 205.122 49.6911C204.755 49.2353 204.246 49.0074 203.594 49.0074C202.932 49.0074 202.418 49.2353 202.052 49.6911C201.685 50.138 201.502 50.7726 201.502 51.5948C201.502 52.4439 201.681 53.0919 202.038 53.5387C202.405 53.9767 202.923 54.1956 203.594 54.1956ZM214.121 48.2567V55H213.062V53.8337C212.847 54.2448 212.548 54.5576 212.164 54.7721C211.779 54.9866 211.346 55.0938 210.863 55.0938C210.068 55.0938 209.465 54.8704 209.054 54.4235C208.642 53.9767 208.437 53.3153 208.437 52.4394V48.2567H209.523V52.4126C209.523 53.0204 209.648 53.4672 209.898 53.7532C210.148 54.0392 210.528 54.1822 211.038 54.1822C211.636 54.1822 212.119 53.9901 212.485 53.6058C212.852 53.2125 213.035 52.6986 213.035 52.064V48.2567H214.121ZM222.847 48.0958C223.07 48.0958 223.276 48.1226 223.464 48.1762L223.437 49.1683C223.231 49.0968 222.994 49.0611 222.726 49.0611C222.074 49.0611 221.587 49.2666 221.265 49.6777C220.952 50.0799 220.796 50.5715 220.796 51.1524V55H219.71V50.147C219.71 49.4498 219.674 48.8197 219.603 48.2567H220.635L220.742 49.5035C220.912 49.0477 221.185 48.6991 221.56 48.4578C221.935 48.2165 222.364 48.0958 222.847 48.0958ZM230.375 48.2567V55H229.303V53.78C229.106 54.2001 228.807 54.5263 228.404 54.7587C228.011 54.9821 227.551 55.0938 227.024 55.0938C226.425 55.0938 225.897 54.9508 225.442 54.6648C224.995 54.3788 224.646 53.9767 224.396 53.4583C224.155 52.931 224.034 52.3188 224.034 51.6216C224.034 50.9245 224.159 50.3123 224.409 49.785C224.66 49.2487 225.008 48.8332 225.455 48.5382C225.911 48.2433 226.434 48.0958 227.024 48.0958C227.551 48.0958 228.011 48.212 228.404 48.4444C228.798 48.6767 229.097 49.003 229.303 49.423V48.2567H230.375ZM227.238 54.1956C227.899 54.1956 228.409 53.9722 228.766 53.5253C229.124 53.0695 229.303 52.426 229.303 51.5948C229.303 50.7636 229.124 50.1246 228.766 49.6777C228.409 49.2309 227.899 49.0074 227.238 49.0074C226.577 49.0074 226.058 49.2398 225.683 49.7046C225.317 50.1604 225.133 50.7994 225.133 51.6216C225.133 52.4439 225.317 53.0784 225.683 53.5253C226.049 53.9722 226.568 54.1956 227.238 54.1956ZM233.923 49.1147V52.8014C233.923 53.3019 234.025 53.6549 234.231 53.8605C234.436 54.0571 234.727 54.1554 235.102 54.1554C235.353 54.1554 235.594 54.1152 235.826 54.0348V54.9598C235.549 55.0492 235.236 55.0938 234.888 55.0938C234.244 55.0938 233.739 54.9151 233.373 54.5576C233.015 54.1912 232.837 53.6549 232.837 52.9489V49.1147H231.523V48.2567H232.837V46.5273L233.923 46.1385V48.2567H235.853V49.1147H233.923ZM242.806 51.5948H237.859C237.868 52.4528 238.064 53.1008 238.449 53.5387C238.842 53.9767 239.409 54.1956 240.151 54.1956C240.938 54.1956 241.662 53.932 242.323 53.4047L242.685 54.1956C242.39 54.4727 242.01 54.6917 241.545 54.8525C241.09 55.0134 240.62 55.0938 240.138 55.0938C239.083 55.0938 238.256 54.7855 237.658 54.1688C237.059 53.5432 236.759 52.6897 236.759 51.6082C236.759 50.92 236.893 50.3123 237.162 49.785C237.43 49.2487 237.805 48.8332 238.288 48.5382C238.77 48.2433 239.32 48.0958 239.937 48.0958C240.83 48.0958 241.532 48.3907 242.041 48.9806C242.551 49.5616 242.806 50.3659 242.806 51.3937V51.5948ZM239.95 48.9404C239.387 48.9404 238.927 49.1102 238.569 49.4498C238.221 49.7895 237.997 50.2676 237.899 50.8843H241.827C241.773 50.2497 241.586 49.7671 241.264 49.4364C240.951 49.1057 240.513 48.9404 239.95 48.9404ZM253.875 48.2567L250.724 55.6167C250.394 56.3853 249.978 56.9484 249.478 57.3059C248.977 57.6634 248.36 57.9091 247.628 58.0432L247.4 57.1986C248.034 57.0556 248.512 56.8635 248.834 56.6221C249.165 56.3898 249.437 56.0278 249.652 55.5362L249.92 54.933L247.065 48.2567H248.204L250.483 53.8203L252.789 48.2567H253.875ZM257.781 55.0938C257.147 55.0938 256.588 54.9508 256.106 54.6648C255.623 54.3788 255.248 53.9722 254.979 53.4449C254.72 52.9176 254.591 52.3009 254.591 51.5948C254.591 50.8888 254.72 50.2721 254.979 49.7448C255.248 49.2175 255.623 48.8108 256.106 48.5248C256.588 48.2388 257.147 48.0958 257.781 48.0958C258.416 48.0958 258.974 48.2388 259.457 48.5248C259.94 48.8108 260.311 49.2175 260.57 49.7448C260.838 50.2721 260.972 50.8888 260.972 51.5948C260.972 52.3009 260.838 52.9176 260.57 53.4449C260.311 53.9722 259.94 54.3788 259.457 54.6648C258.974 54.9508 258.416 55.0938 257.781 55.0938ZM257.781 54.1956C258.452 54.1956 258.966 53.9767 259.323 53.5387C259.681 53.0919 259.859 52.4439 259.859 51.5948C259.859 50.7726 259.676 50.138 259.31 49.6911C258.943 49.2353 258.434 49.0074 257.781 49.0074C257.12 49.0074 256.606 49.2353 256.24 49.6911C255.873 50.138 255.69 50.7726 255.69 51.5948C255.69 52.4439 255.869 53.0919 256.226 53.5387C256.593 53.9767 257.111 54.1956 257.781 54.1956ZM268.309 48.2567V55H267.25V53.8337C267.035 54.2448 266.736 54.5576 266.351 54.7721C265.967 54.9866 265.534 55.0938 265.051 55.0938C264.256 55.0938 263.652 54.8704 263.241 54.4235C262.83 53.9767 262.625 53.3153 262.625 52.4394V48.2567H263.71V52.4126C263.71 53.0204 263.836 53.4672 264.086 53.7532C264.336 54.0392 264.716 54.1822 265.225 54.1822C265.824 54.1822 266.307 53.9901 266.673 53.6058C267.04 53.2125 267.223 52.6986 267.223 52.064V48.2567H268.309ZM273.539 48.0958C273.763 48.0958 273.968 48.1226 274.156 48.1762L274.129 49.1683C273.923 49.0968 273.687 49.0611 273.419 49.0611C272.766 49.0611 272.279 49.2666 271.957 49.6777C271.644 50.0799 271.488 50.5715 271.488 51.1524V55H270.402V50.147C270.402 49.4498 270.366 48.8197 270.295 48.2567H271.327L271.434 49.5035C271.604 49.0477 271.877 48.6991 272.252 48.4578C272.628 48.2165 273.057 48.0958 273.539 48.0958ZM284.399 51.5948H279.452C279.461 52.4528 279.657 53.1008 280.042 53.5387C280.435 53.9767 281.003 54.1956 281.744 54.1956C282.531 54.1956 283.255 53.932 283.916 53.4047L284.278 54.1956C283.983 54.4727 283.603 54.6917 283.139 54.8525C282.683 55.0134 282.214 55.0938 281.731 55.0938C280.676 55.0938 279.85 54.7855 279.251 54.1688C278.652 53.5432 278.353 52.6897 278.353 51.6082C278.353 50.92 278.487 50.3123 278.755 49.785C279.023 49.2487 279.398 48.8332 279.881 48.5382C280.364 48.2433 280.913 48.0958 281.53 48.0958C282.424 48.0958 283.125 48.3907 283.635 48.9806C284.144 49.5616 284.399 50.3659 284.399 51.3937V51.5948ZM281.543 48.9404C280.98 48.9404 280.52 49.1102 280.162 49.4498C279.814 49.7895 279.59 50.2676 279.492 50.8843H283.42C283.367 50.2497 283.179 49.7671 282.857 49.4364C282.544 49.1057 282.106 48.9404 281.543 48.9404ZM291.921 55H290.621L288.489 52.3456L286.384 55H285.057L287.859 51.5278L285.218 48.2567H286.532L288.489 50.7368L290.446 48.2567H291.774L289.146 51.5278L291.921 55ZM296.495 48.0958C297.085 48.0958 297.607 48.2433 298.063 48.5382C298.519 48.8332 298.872 49.2487 299.122 49.785C299.373 50.3123 299.498 50.9245 299.498 51.6216C299.498 52.3188 299.373 52.931 299.122 53.4583C298.872 53.9767 298.519 54.3788 298.063 54.6648C297.616 54.9508 297.094 55.0938 296.495 55.0938C295.967 55.0938 295.507 54.9777 295.114 54.7453C294.721 54.5129 294.421 54.1822 294.216 53.7532V57.8957H293.13V50.147C293.13 49.4498 293.094 48.8197 293.023 48.2567H294.055L294.162 49.5571C294.35 49.0923 294.645 48.7348 295.047 48.4846C295.458 48.2254 295.941 48.0958 296.495 48.0958ZM296.294 54.1956C296.955 54.1956 297.464 53.9722 297.822 53.5253C298.188 53.0784 298.372 52.4439 298.372 51.6216C298.372 50.7994 298.188 50.1604 297.822 49.7046C297.456 49.2398 296.946 49.0074 296.294 49.0074C295.623 49.0074 295.109 49.2309 294.752 49.6777C294.394 50.1246 294.216 50.7636 294.216 51.5948C294.216 52.426 294.394 53.0695 294.752 53.5253C295.109 53.9722 295.623 54.1956 296.294 54.1956ZM306.812 51.5948H301.865C301.874 52.4528 302.071 53.1008 302.455 53.5387C302.849 53.9767 303.416 54.1956 304.158 54.1956C304.944 54.1956 305.668 53.932 306.33 53.4047L306.692 54.1956C306.397 54.4727 306.017 54.6917 305.552 54.8525C305.096 55.0134 304.627 55.0938 304.144 55.0938C303.09 55.0938 302.263 54.7855 301.664 54.1688C301.066 53.5432 300.766 52.6897 300.766 51.6082C300.766 50.92 300.9 50.3123 301.168 49.785C301.436 49.2487 301.812 48.8332 302.294 48.5382C302.777 48.2433 303.327 48.0958 303.943 48.0958C304.837 48.0958 305.539 48.3907 306.048 48.9806C306.558 49.5616 306.812 50.3659 306.812 51.3937V51.5948ZM303.957 48.9404C303.394 48.9404 302.933 49.1102 302.576 49.4498C302.227 49.7895 302.004 50.2676 301.906 50.8843H305.834C305.78 50.2497 305.592 49.7671 305.271 49.4364C304.958 49.1057 304.52 48.9404 303.957 48.9404ZM311.598 48.0958C311.821 48.0958 312.027 48.1226 312.214 48.1762L312.187 49.1683C311.982 49.0968 311.745 49.0611 311.477 49.0611C310.824 49.0611 310.337 49.2666 310.016 49.6777C309.703 50.0799 309.546 50.5715 309.546 51.1524V55H308.461V50.147C308.461 49.4498 308.425 48.8197 308.353 48.2567H309.386L309.493 49.5035C309.663 49.0477 309.935 48.6991 310.311 48.4578C310.686 48.2165 311.115 48.0958 311.598 48.0958ZM313.318 48.2567H314.404V55H313.318V48.2567ZM314.538 45.4012V46.6345H313.21V45.4012H314.538ZM322.156 51.5948H317.209C317.218 52.4528 317.415 53.1008 317.799 53.5387C318.192 53.9767 318.76 54.1956 319.502 54.1956C320.288 54.1956 321.012 53.932 321.673 53.4047L322.035 54.1956C321.741 54.4727 321.361 54.6917 320.896 54.8525C320.44 55.0134 319.971 55.0938 319.488 55.0938C318.434 55.0938 317.607 54.7855 317.008 54.1688C316.409 53.5432 316.11 52.6897 316.11 51.6082C316.11 50.92 316.244 50.3123 316.512 49.785C316.78 49.2487 317.156 48.8332 317.638 48.5382C318.121 48.2433 318.67 48.0958 319.287 48.0958C320.181 48.0958 320.883 48.3907 321.392 48.9806C321.901 49.5616 322.156 50.3659 322.156 51.3937V51.5948ZM319.301 48.9404C318.738 48.9404 318.277 49.1102 317.92 49.4498C317.571 49.7895 317.348 50.2676 317.249 50.8843H321.177C321.124 50.2497 320.936 49.7671 320.614 49.4364C320.302 49.1057 319.864 48.9404 319.301 48.9404ZM327.169 48.0958C328.787 48.0958 329.596 48.9851 329.596 50.7636V55H328.51V50.8173C328.51 50.1916 328.385 49.7358 328.135 49.4498C327.884 49.1549 327.491 49.0074 326.955 49.0074C326.329 49.0074 325.829 49.1996 325.453 49.5839C325.078 49.9682 324.89 50.4866 324.89 51.139V55H323.804V50.147C323.804 49.4498 323.769 48.8197 323.697 48.2567H324.729L324.837 49.4632C325.042 49.0253 325.351 48.6902 325.762 48.4578C326.173 48.2165 326.642 48.0958 327.169 48.0958ZM334.475 55.0938C333.823 55.0938 333.251 54.9508 332.759 54.6648C332.277 54.3788 331.901 53.9767 331.633 53.4583C331.374 52.931 331.244 52.3188 331.244 51.6216C331.244 50.9245 331.378 50.3123 331.646 49.785C331.915 49.2487 332.294 48.8332 332.786 48.5382C333.286 48.2433 333.867 48.0958 334.529 48.0958C334.985 48.0958 335.423 48.1762 335.843 48.3371C336.272 48.4891 336.625 48.7036 336.902 48.9806L336.54 49.785C336.2 49.5169 335.869 49.3202 335.548 49.1951C335.235 49.07 334.913 49.0074 334.582 49.0074C333.894 49.0074 333.353 49.2398 332.96 49.7046C332.567 50.1604 332.37 50.7994 332.37 51.6216C332.37 52.4349 332.563 53.0695 332.947 53.5253C333.34 53.9722 333.885 54.1956 334.582 54.1956C334.913 54.1956 335.235 54.1331 335.548 54.0079C335.869 53.8828 336.2 53.6862 336.54 53.4181L336.902 54.2224C336.616 54.4906 336.254 54.7051 335.816 54.8659C335.387 55.0179 334.94 55.0938 334.475 55.0938ZM343.928 51.5948H338.981C338.99 52.4528 339.187 53.1008 339.571 53.5387C339.964 53.9767 340.532 54.1956 341.274 54.1956C342.06 54.1956 342.784 53.932 343.445 53.4047L343.807 54.1956C343.512 54.4727 343.133 54.6917 342.668 54.8525C342.212 55.0134 341.743 55.0938 341.26 55.0938C340.206 55.0938 339.379 54.7855 338.78 54.1688C338.181 53.5432 337.882 52.6897 337.882 51.6082C337.882 50.92 338.016 50.3123 338.284 49.785C338.552 49.2487 338.928 48.8332 339.41 48.5382C339.893 48.2433 340.442 48.0958 341.059 48.0958C341.953 48.0958 342.654 48.3907 343.164 48.9806C343.673 49.5616 343.928 50.3659 343.928 51.3937V51.5948ZM341.073 48.9404C340.509 48.9404 340.049 49.1102 339.692 49.4498C339.343 49.7895 339.12 50.2676 339.021 50.8843H342.949C342.896 50.2497 342.708 49.7671 342.386 49.4364C342.074 49.1057 341.636 48.9404 341.073 48.9404ZM359.314 48.2567L356.821 55H355.775L353.844 49.7314L351.927 55H350.882L348.388 48.2567H349.528L351.431 53.6996L353.402 48.2567H354.354L356.298 53.713L358.242 48.2567H359.314ZM360.724 48.2567H361.81V55H360.724V48.2567ZM361.944 45.4012V46.6345H360.616V45.4012H361.944ZM365.366 49.1147V52.8014C365.366 53.3019 365.469 53.6549 365.674 53.8605C365.88 54.0571 366.17 54.1554 366.546 54.1554C366.796 54.1554 367.037 54.1152 367.27 54.0348V54.9598C366.993 55.0492 366.68 55.0938 366.331 55.0938C365.688 55.0938 365.183 54.9151 364.816 54.5576C364.459 54.1912 364.28 53.6549 364.28 52.9489V49.1147H362.966V48.2567H364.28V46.5273L365.366 46.1385V48.2567H367.297V49.1147H365.366ZM371.97 48.0958C373.588 48.0958 374.397 48.9851 374.397 50.7636V55H373.311V50.8173C373.311 50.1916 373.186 49.7358 372.935 49.4498C372.685 49.1549 372.292 49.0074 371.756 49.0074C371.13 49.0074 370.629 49.1996 370.254 49.5839C369.879 49.9682 369.691 50.4866 369.691 51.139V55H368.605V45.133H369.691V49.356C369.906 48.9449 370.209 48.6321 370.603 48.4176C371.005 48.2031 371.461 48.0958 371.97 48.0958ZM383.509 51.139V55H382.41V51.1256L378.656 45.4548H379.943L382.973 50.147L386.002 45.4548H387.263L383.509 51.139ZM389.84 55.0938C389.206 55.0938 388.647 54.9508 388.164 54.6648C387.682 54.3788 387.306 53.9722 387.038 53.4449C386.779 52.9176 386.65 52.3009 386.65 51.5948C386.65 50.8888 386.779 50.2721 387.038 49.7448C387.306 49.2175 387.682 48.8108 388.164 48.5248C388.647 48.2388 389.206 48.0958 389.84 48.0958C390.475 48.0958 391.033 48.2388 391.516 48.5248C391.999 48.8108 392.37 49.2175 392.629 49.7448C392.897 50.2721 393.031 50.8888 393.031 51.5948C393.031 52.3009 392.897 52.9176 392.629 53.4449C392.37 53.9722 391.999 54.3788 391.516 54.6648C391.033 54.9508 390.475 55.0938 389.84 55.0938ZM389.84 54.1956C390.511 54.1956 391.024 53.9767 391.382 53.5387C391.739 53.0919 391.918 52.4439 391.918 51.5948C391.918 50.7726 391.735 50.138 391.369 49.6911C391.002 49.2353 390.493 49.0074 389.84 49.0074C389.179 49.0074 388.665 49.2353 388.299 49.6911C387.932 50.138 387.749 50.7726 387.749 51.5948C387.749 52.4439 387.928 53.0919 388.285 53.5387C388.652 53.9767 389.17 54.1956 389.84 54.1956ZM400.368 48.2567V55H399.309V53.8337C399.094 54.2448 398.795 54.5576 398.41 54.7721C398.026 54.9866 397.593 55.0938 397.11 55.0938C396.314 55.0938 395.711 54.8704 395.3 54.4235C394.889 53.9767 394.683 53.3153 394.683 52.4394V48.2567H395.769V52.4126C395.769 53.0204 395.894 53.4672 396.145 53.7532C396.395 54.0392 396.775 54.1822 397.284 54.1822C397.883 54.1822 398.366 53.9901 398.732 53.6058C399.098 53.2125 399.282 52.6986 399.282 52.064V48.2567H400.368ZM405.598 48.0958C405.821 48.0958 406.027 48.1226 406.215 48.1762L406.188 49.1683C405.982 49.0968 405.745 49.0611 405.477 49.0611C404.825 49.0611 404.338 49.2666 404.016 49.6777C403.703 50.0799 403.547 50.5715 403.547 51.1524V55H402.461V50.147C402.461 49.4498 402.425 48.8197 402.354 48.2567H403.386L403.493 49.5035C403.663 49.0477 403.936 48.6991 404.311 48.4578C404.686 48.2165 405.115 48.0958 405.598 48.0958ZM406.937 50.9513H410.731V51.8495H406.937V50.9513ZM416.961 55.1072C416.058 55.1072 415.272 54.9106 414.601 54.5174C413.94 54.1241 413.431 53.5611 413.073 52.8282C412.716 52.0864 412.537 51.215 412.537 50.214C412.537 49.213 412.716 48.3505 413.073 47.6266C413.431 46.8937 413.94 46.3307 414.601 45.9374C415.272 45.5442 416.058 45.3475 416.961 45.3475C417.622 45.3475 418.225 45.4503 418.771 45.6559C419.325 45.8525 419.803 46.1519 420.205 46.5541L419.79 47.3987C419.334 47.0054 418.882 46.7239 418.436 46.5541C417.998 46.3843 417.51 46.2994 416.974 46.2994C415.929 46.2994 415.115 46.639 414.534 47.3183C413.962 47.9975 413.676 48.9627 413.676 50.214C413.676 51.4742 413.962 52.4484 414.534 53.1365C415.106 53.8158 415.92 54.1554 416.974 54.1554C417.51 54.1554 417.998 54.0705 418.436 53.9007C418.882 53.7309 419.334 53.4494 419.79 53.0561L420.205 53.9007C419.803 54.3029 419.325 54.6068 418.771 54.8123C418.225 55.0089 417.622 55.1072 416.961 55.1072ZM424.573 55.0938C423.939 55.0938 423.38 54.9508 422.897 54.6648C422.415 54.3788 422.039 53.9722 421.771 53.4449C421.512 52.9176 421.383 52.3009 421.383 51.5948C421.383 50.8888 421.512 50.2721 421.771 49.7448C422.039 49.2175 422.415 48.8108 422.897 48.5248C423.38 48.2388 423.939 48.0958 424.573 48.0958C425.208 48.0958 425.766 48.2388 426.249 48.5248C426.732 48.8108 427.103 49.2175 427.362 49.7448C427.63 50.2721 427.764 50.8888 427.764 51.5948C427.764 52.3009 427.63 52.9176 427.362 53.4449C427.103 53.9722 426.732 54.3788 426.249 54.6648C425.766 54.9508 425.208 55.0938 424.573 55.0938ZM424.573 54.1956C425.244 54.1956 425.757 53.9767 426.115 53.5387C426.472 53.0919 426.651 52.4439 426.651 51.5948C426.651 50.7726 426.468 50.138 426.102 49.6911C425.735 49.2353 425.226 49.0074 424.573 49.0074C423.912 49.0074 423.398 49.2353 423.032 49.6911C422.665 50.138 422.482 50.7726 422.482 51.5948C422.482 52.4439 422.661 53.0919 423.018 53.5387C423.385 53.9767 423.903 54.1956 424.573 54.1956ZM436.937 48.0958C438.43 48.0958 439.176 48.9851 439.176 50.7636V55H438.09V50.8173C438.09 50.1827 437.979 49.7224 437.755 49.4364C437.541 49.1504 437.188 49.0074 436.696 49.0074C436.124 49.0074 435.677 49.1996 435.355 49.5839C435.034 49.9682 434.873 50.4911 434.873 51.1524V55H433.787V50.8173C433.787 50.1916 433.675 49.7358 433.452 49.4498C433.228 49.1549 432.871 49.0074 432.379 49.0074C431.807 49.0074 431.356 49.1996 431.025 49.5839C430.703 49.9682 430.543 50.4911 430.543 51.1524V55H429.457V50.147C429.457 49.4498 429.421 48.8197 429.349 48.2567H430.382L430.489 49.4364C430.677 49.0074 430.954 48.6767 431.32 48.4444C431.695 48.212 432.129 48.0958 432.621 48.0958C433.157 48.0958 433.595 48.2031 433.934 48.4176C434.274 48.6321 434.524 48.9627 434.685 49.4096C434.891 49.0074 435.19 48.6902 435.583 48.4578C435.985 48.2165 436.437 48.0958 436.937 48.0958ZM444.604 48.0958C445.194 48.0958 445.717 48.2433 446.173 48.5382C446.629 48.8332 446.982 49.2487 447.232 49.785C447.482 50.3123 447.607 50.9245 447.607 51.6216C447.607 52.3188 447.482 52.931 447.232 53.4583C446.982 53.9767 446.629 54.3788 446.173 54.6648C445.726 54.9508 445.203 55.0938 444.604 55.0938C444.077 55.0938 443.617 54.9777 443.224 54.7453C442.83 54.5129 442.531 54.1822 442.325 53.7532V57.8957H441.239V50.147C441.239 49.4498 441.204 48.8197 441.132 48.2567H442.164L442.272 49.5571C442.459 49.0923 442.754 48.7348 443.157 48.4846C443.568 48.2254 444.05 48.0958 444.604 48.0958ZM444.403 54.1956C445.065 54.1956 445.574 53.9722 445.932 53.5253C446.298 53.0784 446.481 52.4439 446.481 51.6216C446.481 50.7994 446.298 50.1604 445.932 49.7046C445.565 49.2398 445.056 49.0074 444.403 49.0074C443.733 49.0074 443.219 49.2309 442.862 49.6777C442.504 50.1246 442.325 50.7636 442.325 51.5948C442.325 52.426 442.504 53.0695 442.862 53.5253C443.219 53.9722 443.733 54.1956 444.403 54.1956ZM455.217 48.2567V55H454.144V53.78C453.948 54.2001 453.648 54.5263 453.246 54.7587C452.853 54.9821 452.393 55.0938 451.865 55.0938C451.267 55.0938 450.739 54.9508 450.283 54.6648C449.837 54.3788 449.488 53.9767 449.238 53.4583C448.996 52.931 448.876 52.3188 448.876 51.6216C448.876 50.9245 449.001 50.3123 449.251 49.785C449.501 49.2487 449.85 48.8332 450.297 48.5382C450.753 48.2433 451.275 48.0958 451.865 48.0958C452.393 48.0958 452.853 48.212 453.246 48.4444C453.639 48.6767 453.939 49.003 454.144 49.423V48.2567H455.217ZM452.08 54.1956C452.741 54.1956 453.251 53.9722 453.608 53.5253C453.966 53.0695 454.144 52.426 454.144 51.5948C454.144 50.7636 453.966 50.1246 453.608 49.6777C453.251 49.2309 452.741 49.0074 452.08 49.0074C451.418 49.0074 450.9 49.2398 450.525 49.7046C450.158 50.1604 449.975 50.7994 449.975 51.6216C449.975 52.4439 450.158 53.0784 450.525 53.5253C450.891 53.9722 451.41 54.1956 452.08 54.1956ZM460.681 48.0958C462.299 48.0958 463.108 48.9851 463.108 50.7636V55H462.022V50.8173C462.022 50.1916 461.897 49.7358 461.647 49.4498C461.396 49.1549 461.003 49.0074 460.467 49.0074C459.841 49.0074 459.341 49.1996 458.965 49.5839C458.59 49.9682 458.402 50.4866 458.402 51.139V55H457.316V50.147C457.316 49.4498 457.281 48.8197 457.209 48.2567H458.241L458.349 49.4632C458.554 49.0253 458.863 48.6902 459.274 48.4578C459.685 48.2165 460.154 48.0958 460.681 48.0958ZM471.084 48.2567L467.934 55.6167C467.603 56.3853 467.187 56.9484 466.687 57.3059C466.186 57.6634 465.57 57.9091 464.837 58.0432L464.609 57.1986C465.243 57.0556 465.722 56.8635 466.043 56.6221C466.374 56.3898 466.647 56.0278 466.861 55.5362L467.129 54.933L464.274 48.2567H465.413L467.692 53.8203L469.998 48.2567H471.084ZM472.166 45.8436C472.452 45.6827 472.76 45.562 473.091 45.4816C473.422 45.3922 473.748 45.3475 474.07 45.3475C474.838 45.3475 475.459 45.5442 475.933 45.9374C476.416 46.3217 476.657 46.8312 476.657 47.4657C476.657 47.7964 476.599 48.1003 476.483 48.3773C476.375 48.6544 476.241 48.9047 476.08 49.1281C475.92 49.3426 475.701 49.6107 475.424 49.9325C475.039 50.3615 474.74 50.7458 474.525 51.0854C474.32 51.425 474.195 51.8183 474.15 52.2651L474.11 52.5064H473.466V52.1713C473.466 51.6082 473.565 51.1345 473.761 50.7502C473.958 50.357 474.248 49.9191 474.633 49.4364C474.936 49.0521 475.16 48.7259 475.303 48.4578C475.455 48.1807 475.531 47.8724 475.531 47.5328C475.531 47.1484 475.397 46.8446 475.129 46.6211C474.861 46.3977 474.49 46.286 474.016 46.286C473.39 46.286 472.774 46.4737 472.166 46.849V45.8436ZM473.104 53.6192H474.485V55H473.104V53.6192Z" fill="black"/>
</g>
<defs>
<filter id="filter0_d" x="0" y="76" width="488" height="169" filterUnits="userSpaceOnUse" color-interpolation-filters="sRGB">
<feFlood flood-opacity="0" result="BackgroundImageFix"/>
<feColorMatrix in="SourceAlpha" type="matrix" values="0 0 0 0 0 0 0 0 0 0 0 0 0 0 0 0 0 0 127 0"/>
<feOffset dy="18"/>
<feGaussianBlur stdDeviation="20"/>
<feColorMatrix type="matrix" values="0 0 0 0 0.176471 0 0 0 0 0.262745 0 0 0 0 0.47451 0 0 0 0.1 0"/>
<feBlend mode="normal" in2="BackgroundImageFix" result="effect1_dropShadow"/>
<feBlend mode="normal" in="SourceGraphic" in2="effect1_dropShadow" result="shape"/>
</filter>
<filter id="filter1_d" x="62" y="139" width="340" height="42" filterUnits="userSpaceOnUse" color-interpolation-filters="sRGB">
<feFlood flood-opacity="0" result="BackgroundImageFix"/>
<feColorMatrix in="SourceAlpha" type="matrix" values="0 0 0 0 0 0 0 0 0 0 0 0 0 0 0 0 0 0 127 0"/>
<feOffset dy="1"/>
<feGaussianBlur stdDeviation="1"/>
<feColorMatrix type="matrix" values="0 0 0 0 0 0 0 0 0 0 0 0 0 0 0 0 0 0 0.08 0"/>
<feBlend mode="normal" in2="BackgroundImageFix" result="effect1_dropShadow"/>
<feBlend mode="normal" in="SourceGraphic" in2="effect1_dropShadow" result="shape"/>
</filter>
<clipPath id="clip0">
<rect width="336" height="38" fill="white" transform="translate(64 140)"/>
</clipPath>
</defs>
</svg>
