<svg width="528" height="395" viewBox="0 0 528 395" fill="none" xmlns="http://www.w3.org/2000/svg">
<g filter="url(#filter0_d)">
<rect x="89" y="10" width="144" height="180" rx="15" fill="#E4F2FA"/>
</g>
<g filter="url(#filter1_d)">
<rect x="64" y="51" width="420" height="244" rx="15" fill="white"/>
</g>
<path d="M122.45 36H121.288V27.0381H118.123V26.0059H125.615V27.0381H122.45V36ZM130.373 28.3711C130.706 28.3711 131.004 28.3984 131.269 28.4531L131.111 29.5059C130.801 29.4375 130.528 29.4033 130.291 29.4033C129.685 29.4033 129.165 29.6494 128.732 30.1416C128.304 30.6338 128.09 31.2467 128.09 31.9805V36H126.955V28.5078H127.892L128.021 29.8955H128.076C128.354 29.4079 128.689 29.0319 129.081 28.7676C129.473 28.5033 129.904 28.3711 130.373 28.3711ZM137.277 36L137.052 34.9336H136.997C136.623 35.403 136.25 35.722 135.876 35.8906C135.507 36.0547 135.044 36.1367 134.488 36.1367C133.745 36.1367 133.162 35.9453 132.738 35.5625C132.319 35.1797 132.109 34.6351 132.109 33.9287C132.109 32.4157 133.319 31.6227 135.739 31.5498L137.011 31.5088V31.0439C137.011 30.4561 136.883 30.0231 136.628 29.7451C136.377 29.4626 135.974 29.3213 135.418 29.3213C134.794 29.3213 134.087 29.5127 133.299 29.8955L132.95 29.0273C133.319 28.8268 133.723 28.6696 134.16 28.5557C134.602 28.4417 135.044 28.3848 135.486 28.3848C136.38 28.3848 137.04 28.583 137.469 28.9795C137.902 29.376 138.118 30.0117 138.118 30.8867V36H137.277ZM134.714 35.2002C135.42 35.2002 135.974 35.0065 136.375 34.6191C136.781 34.2318 136.983 33.6895 136.983 32.9922V32.3154L135.849 32.3633C134.946 32.3952 134.295 32.5365 133.894 32.7871C133.497 33.0332 133.299 33.4183 133.299 33.9424C133.299 34.3525 133.422 34.6647 133.668 34.8789C133.919 35.0931 134.267 35.2002 134.714 35.2002ZM145.59 36V31.1533C145.59 30.5426 145.451 30.0869 145.173 29.7861C144.895 29.4854 144.46 29.335 143.867 29.335C143.083 29.335 142.509 29.5469 142.145 29.9707C141.78 30.3945 141.598 31.0941 141.598 32.0693V36H140.463V28.5078H141.386L141.57 29.5332H141.625C141.857 29.1641 142.183 28.8792 142.603 28.6787C143.022 28.4736 143.489 28.3711 144.004 28.3711C144.906 28.3711 145.585 28.5898 146.041 29.0273C146.497 29.4603 146.725 30.1553 146.725 31.1123V36H145.59ZM153.896 33.9561C153.896 34.6533 153.636 35.1911 153.116 35.5693C152.597 35.9476 151.868 36.1367 150.929 36.1367C149.935 36.1367 149.16 35.9795 148.604 35.665V34.6123C148.965 34.7946 149.35 34.9382 149.76 35.043C150.174 35.1478 150.573 35.2002 150.956 35.2002C151.549 35.2002 152.004 35.1068 152.323 34.9199C152.642 34.7285 152.802 34.4391 152.802 34.0518C152.802 33.7601 152.674 33.5117 152.419 33.3066C152.168 33.097 151.676 32.8509 150.942 32.5684C150.245 32.3086 149.748 32.083 149.452 31.8916C149.16 31.6956 148.942 31.4746 148.796 31.2285C148.655 30.9824 148.584 30.6885 148.584 30.3467C148.584 29.736 148.832 29.2552 149.329 28.9043C149.826 28.5488 150.507 28.3711 151.373 28.3711C152.18 28.3711 152.968 28.5352 153.738 28.8633L153.335 29.7861C152.583 29.4762 151.902 29.3213 151.291 29.3213C150.753 29.3213 150.348 29.4056 150.074 29.5742C149.801 29.7428 149.664 29.9753 149.664 30.2715C149.664 30.472 149.714 30.6429 149.814 30.7842C149.919 30.9255 150.086 31.0599 150.313 31.1875C150.541 31.3151 150.979 31.4997 151.626 31.7412C152.515 32.0648 153.114 32.3906 153.424 32.7188C153.738 33.0469 153.896 33.4593 153.896 33.9561ZM156.883 36H155.748V25.3633H156.883V36ZM163.896 36L163.671 34.9336H163.616C163.243 35.403 162.869 35.722 162.495 35.8906C162.126 36.0547 161.663 36.1367 161.107 36.1367C160.365 36.1367 159.781 35.9453 159.357 35.5625C158.938 35.1797 158.729 34.6351 158.729 33.9287C158.729 32.4157 159.938 31.6227 162.358 31.5498L163.63 31.5088V31.0439C163.63 30.4561 163.502 30.0231 163.247 29.7451C162.996 29.4626 162.593 29.3213 162.037 29.3213C161.413 29.3213 160.706 29.5127 159.918 29.8955L159.569 29.0273C159.938 28.8268 160.342 28.6696 160.779 28.5557C161.221 28.4417 161.663 28.3848 162.105 28.3848C162.999 28.3848 163.66 28.583 164.088 28.9795C164.521 29.376 164.737 30.0117 164.737 30.8867V36H163.896ZM161.333 35.2002C162.039 35.2002 162.593 35.0065 162.994 34.6191C163.4 34.2318 163.603 33.6895 163.603 32.9922V32.3154L162.468 32.3633C161.565 32.3952 160.914 32.5365 160.513 32.7871C160.116 33.0332 159.918 33.4183 159.918 33.9424C159.918 34.3525 160.041 34.6647 160.287 34.8789C160.538 35.0931 160.886 35.2002 161.333 35.2002ZM169.502 35.2002C169.702 35.2002 169.896 35.1865 170.083 35.1592C170.27 35.1273 170.418 35.0954 170.527 35.0635V35.9316C170.404 35.9909 170.222 36.0387 169.98 36.0752C169.743 36.1162 169.529 36.1367 169.338 36.1367C167.889 36.1367 167.164 35.3734 167.164 33.8467V29.3896H166.091V28.8428L167.164 28.3711L167.643 26.7715H168.299V28.5078H170.473V29.3896H168.299V33.7988C168.299 34.25 168.406 34.5964 168.62 34.8379C168.834 35.0794 169.128 35.2002 169.502 35.2002ZM175.196 36.1367C174.089 36.1367 173.214 35.7995 172.571 35.125C171.933 34.4505 171.614 33.514 171.614 32.3154C171.614 31.1077 171.91 30.1484 172.503 29.4375C173.1 28.7266 173.9 28.3711 174.902 28.3711C175.841 28.3711 176.584 28.681 177.131 29.3008C177.678 29.916 177.951 30.7295 177.951 31.7412V32.459H172.79C172.813 33.3385 173.034 34.0062 173.453 34.4619C173.877 34.9176 174.472 35.1455 175.237 35.1455C176.044 35.1455 176.841 34.9769 177.63 34.6396V35.6514C177.229 35.8245 176.848 35.9476 176.488 36.0205C176.133 36.098 175.702 36.1367 175.196 36.1367ZM174.889 29.3213C174.287 29.3213 173.806 29.5173 173.446 29.9092C173.091 30.3011 172.881 30.8434 172.817 31.5361H176.734C176.734 30.8206 176.575 30.2738 176.256 29.8955C175.937 29.5127 175.481 29.3213 174.889 29.3213ZM186.906 29.3896H184.999V36H183.864V29.3896H182.524V28.877L183.864 28.4668V28.0498C183.864 26.2087 184.669 25.2881 186.277 25.2881C186.674 25.2881 187.139 25.3678 187.672 25.5273L187.378 26.4365C186.94 26.2952 186.567 26.2246 186.257 26.2246C185.828 26.2246 185.512 26.3682 185.307 26.6553C185.102 26.9378 184.999 27.3936 184.999 28.0225V28.5078H186.906V29.3896ZM189.408 36H188.273V28.5078H189.408V36ZM188.178 26.4775C188.178 26.2178 188.242 26.0286 188.369 25.9102C188.497 25.7871 188.656 25.7256 188.848 25.7256C189.03 25.7256 189.187 25.7871 189.319 25.9102C189.451 26.0332 189.518 26.2223 189.518 26.4775C189.518 26.7327 189.451 26.9242 189.319 27.0518C189.187 27.1748 189.03 27.2363 188.848 27.2363C188.656 27.2363 188.497 27.1748 188.369 27.0518C188.242 26.9242 188.178 26.7327 188.178 26.4775ZM192.949 36H191.814V25.3633H192.949V36ZM198.521 36.1367C197.413 36.1367 196.538 35.7995 195.896 35.125C195.257 34.4505 194.938 33.514 194.938 32.3154C194.938 31.1077 195.235 30.1484 195.827 29.4375C196.424 28.7266 197.224 28.3711 198.227 28.3711C199.165 28.3711 199.908 28.681 200.455 29.3008C201.002 29.916 201.275 30.7295 201.275 31.7412V32.459H196.114C196.137 33.3385 196.358 34.0062 196.777 34.4619C197.201 34.9176 197.796 35.1455 198.562 35.1455C199.368 35.1455 200.166 34.9769 200.954 34.6396V35.6514C200.553 35.8245 200.173 35.9476 199.812 36.0205C199.457 36.098 199.026 36.1367 198.521 36.1367ZM198.213 29.3213C197.611 29.3213 197.131 29.5173 196.771 29.9092C196.415 30.3011 196.205 30.8434 196.142 31.5361H200.059C200.059 30.8206 199.899 30.2738 199.58 29.8955C199.261 29.5127 198.805 29.3213 198.213 29.3213Z" fill="#42556C"/>
<path d="M214.47 85.1504V93.4648C214.47 94.9297 214.027 96.0811 213.143 96.9189C212.258 97.7568 211.042 98.1758 209.495 98.1758C207.948 98.1758 206.75 97.7539 205.9 96.9102C205.057 96.0664 204.635 94.9062 204.635 93.4297V85.1504H206.129V93.5352C206.129 94.6074 206.422 95.4307 207.008 96.0049C207.594 96.5791 208.455 96.8662 209.592 96.8662C210.676 96.8662 211.511 96.5791 212.097 96.0049C212.683 95.4248 212.976 94.5957 212.976 93.5176V85.1504H214.47ZM222.143 98.1758C221.516 98.1758 220.941 98.0615 220.42 97.833C219.904 97.5986 219.471 97.2412 219.119 96.7607H219.014C219.084 97.3232 219.119 97.8564 219.119 98.3604V102.324H217.66V88.3672H218.847L219.049 89.6855H219.119C219.494 89.1582 219.931 88.7773 220.429 88.543C220.927 88.3086 221.498 88.1914 222.143 88.1914C223.42 88.1914 224.404 88.6279 225.096 89.501C225.793 90.374 226.142 91.5986 226.142 93.1748C226.142 94.7568 225.787 95.9873 225.078 96.8662C224.375 97.7393 223.396 98.1758 222.143 98.1758ZM221.932 89.4307C220.947 89.4307 220.235 89.7031 219.796 90.248C219.356 90.793 219.131 91.6602 219.119 92.8496V93.1748C219.119 94.5283 219.345 95.498 219.796 96.084C220.247 96.6641 220.971 96.9541 221.967 96.9541C222.799 96.9541 223.449 96.6172 223.918 95.9434C224.393 95.2695 224.63 94.3408 224.63 93.1572C224.63 91.9561 224.393 91.0361 223.918 90.3975C223.449 89.7529 222.787 89.4307 221.932 89.4307ZM230.158 98H228.699V84.3242H230.158V98ZM241.566 93.1748C241.566 94.7451 241.171 95.9727 240.38 96.8574C239.589 97.7363 238.496 98.1758 237.102 98.1758C236.24 98.1758 235.476 97.9736 234.808 97.5693C234.14 97.165 233.624 96.585 233.261 95.8291C232.897 95.0732 232.716 94.1885 232.716 93.1748C232.716 91.6045 233.108 90.3828 233.894 89.5098C234.679 88.6309 235.769 88.1914 237.163 88.1914C238.511 88.1914 239.58 88.6396 240.371 89.5361C241.168 90.4326 241.566 91.6455 241.566 93.1748ZM234.228 93.1748C234.228 94.4053 234.474 95.3428 234.966 95.9873C235.458 96.6318 236.182 96.9541 237.137 96.9541C238.092 96.9541 238.815 96.6348 239.308 95.9961C239.806 95.3516 240.055 94.4111 240.055 93.1748C240.055 91.9502 239.806 91.0215 239.308 90.3887C238.815 89.75 238.086 89.4307 237.119 89.4307C236.164 89.4307 235.443 89.7441 234.957 90.3711C234.471 90.998 234.228 91.9326 234.228 93.1748ZM250.057 98L249.767 96.6289H249.696C249.216 97.2324 248.735 97.6426 248.255 97.8594C247.78 98.0703 247.186 98.1758 246.471 98.1758C245.516 98.1758 244.766 97.9297 244.221 97.4375C243.682 96.9453 243.412 96.2451 243.412 95.3369C243.412 93.3916 244.968 92.3721 248.079 92.2783L249.714 92.2256V91.6279C249.714 90.8721 249.55 90.3154 249.222 89.958C248.899 89.5947 248.381 89.4131 247.666 89.4131C246.863 89.4131 245.955 89.6592 244.941 90.1514L244.493 89.0352C244.968 88.7773 245.486 88.5752 246.049 88.4287C246.617 88.2822 247.186 88.209 247.754 88.209C248.902 88.209 249.752 88.4639 250.303 88.9736C250.859 89.4834 251.138 90.3008 251.138 91.4258V98H250.057ZM246.761 96.9717C247.669 96.9717 248.381 96.7227 248.896 96.2246C249.418 95.7266 249.679 95.0293 249.679 94.1328V93.2627L248.22 93.3242C247.06 93.3652 246.222 93.5469 245.706 93.8691C245.196 94.1855 244.941 94.6807 244.941 95.3545C244.941 95.8818 245.1 96.2832 245.416 96.5586C245.738 96.834 246.187 96.9717 246.761 96.9717ZM260.709 96.708H260.63C259.956 97.6865 258.948 98.1758 257.606 98.1758C256.347 98.1758 255.365 97.7451 254.662 96.8838C253.965 96.0225 253.616 94.7979 253.616 93.21C253.616 91.6221 253.968 90.3887 254.671 89.5098C255.374 88.6309 256.353 88.1914 257.606 88.1914C258.913 88.1914 259.915 88.666 260.612 89.6152H260.727L260.665 88.9209L260.63 88.2441V84.3242H262.089V98H260.902L260.709 96.708ZM257.791 96.9541C258.787 96.9541 259.508 96.6846 259.953 96.1455C260.404 95.6006 260.63 94.7246 260.63 93.5176V93.21C260.63 91.8447 260.401 90.8721 259.944 90.292C259.493 89.7061 258.77 89.4131 257.773 89.4131C256.918 89.4131 256.262 89.7471 255.805 90.415C255.354 91.0771 255.128 92.0146 255.128 93.2275C255.128 94.458 255.354 95.3867 255.805 96.0137C256.256 96.6406 256.918 96.9541 257.791 96.9541ZM268.338 88.3672H269.902L272.012 93.8604C272.475 95.1143 272.762 96.0195 272.873 96.5762H272.943C273.02 96.2773 273.178 95.7676 273.418 95.0469C273.664 94.3203 274.461 92.0938 275.809 88.3672H277.373L273.233 99.3359C272.823 100.42 272.343 101.188 271.792 101.639C271.247 102.096 270.576 102.324 269.779 102.324C269.334 102.324 268.895 102.274 268.461 102.175V101.006C268.783 101.076 269.144 101.111 269.542 101.111C270.544 101.111 271.259 100.549 271.687 99.4238L272.223 98.0527L268.338 88.3672ZM287.252 93.1748C287.252 94.7451 286.856 95.9727 286.065 96.8574C285.274 97.7363 284.182 98.1758 282.787 98.1758C281.926 98.1758 281.161 97.9736 280.493 97.5693C279.825 97.165 279.31 96.585 278.946 95.8291C278.583 95.0732 278.401 94.1885 278.401 93.1748C278.401 91.6045 278.794 90.3828 279.579 89.5098C280.364 88.6309 281.454 88.1914 282.849 88.1914C284.196 88.1914 285.266 88.6396 286.057 89.5361C286.854 90.4326 287.252 91.6455 287.252 93.1748ZM279.913 93.1748C279.913 94.4053 280.159 95.3428 280.651 95.9873C281.144 96.6318 281.867 96.9541 282.822 96.9541C283.777 96.9541 284.501 96.6348 284.993 95.9961C285.491 95.3516 285.74 94.4111 285.74 93.1748C285.74 91.9502 285.491 91.0215 284.993 90.3887C284.501 89.75 283.771 89.4307 282.805 89.4307C281.85 89.4307 281.129 89.7441 280.643 90.3711C280.156 90.998 279.913 91.9326 279.913 93.1748ZM291.189 88.3672V94.6162C291.189 95.4014 291.368 95.9873 291.726 96.374C292.083 96.7607 292.643 96.9541 293.404 96.9541C294.412 96.9541 295.147 96.6787 295.61 96.1279C296.079 95.5771 296.313 94.6777 296.313 93.4297V88.3672H297.772V98H296.568L296.357 96.708H296.278C295.979 97.1826 295.563 97.5459 295.03 97.7979C294.503 98.0498 293.899 98.1758 293.22 98.1758C292.048 98.1758 291.169 97.8975 290.583 97.3408C290.003 96.7842 289.713 95.8936 289.713 94.6689V88.3672H291.189ZM305.27 88.1914C305.697 88.1914 306.081 88.2266 306.421 88.2969L306.219 89.6504C305.82 89.5625 305.469 89.5186 305.164 89.5186C304.385 89.5186 303.717 89.835 303.16 90.4678C302.609 91.1006 302.334 91.8887 302.334 92.832V98H300.875V88.3672H302.079L302.246 90.1514H302.316C302.674 89.5244 303.104 89.041 303.608 88.7012C304.112 88.3613 304.666 88.1914 305.27 88.1914ZM317.24 89.501H314.788V98H313.329V89.501H311.606V88.8418L313.329 88.3145V87.7783C313.329 85.4111 314.363 84.2275 316.432 84.2275C316.941 84.2275 317.539 84.3301 318.225 84.5352L317.847 85.7041C317.284 85.5225 316.804 85.4316 316.405 85.4316C315.854 85.4316 315.447 85.6162 315.184 85.9854C314.92 86.3486 314.788 86.9346 314.788 87.7432V88.3672H317.24V89.501ZM320.457 98H318.998V88.3672H320.457V98ZM318.875 85.7568C318.875 85.4229 318.957 85.1797 319.121 85.0273C319.285 84.8691 319.49 84.79 319.736 84.79C319.971 84.79 320.173 84.8691 320.343 85.0273C320.513 85.1855 320.598 85.4287 320.598 85.7568C320.598 86.085 320.513 86.3311 320.343 86.4951C320.173 86.6533 319.971 86.7324 319.736 86.7324C319.49 86.7324 319.285 86.6533 319.121 86.4951C318.957 86.3311 318.875 86.085 318.875 85.7568ZM325.01 98H323.551V84.3242H325.01V98ZM332.173 98.1758C330.749 98.1758 329.624 97.7422 328.798 96.875C327.978 96.0078 327.567 94.8037 327.567 93.2627C327.567 91.71 327.948 90.4766 328.71 89.5625C329.478 88.6484 330.506 88.1914 331.795 88.1914C333.002 88.1914 333.957 88.5898 334.66 89.3867C335.363 90.1777 335.715 91.2236 335.715 92.5244V93.4473H329.079C329.108 94.5781 329.393 95.4365 329.932 96.0225C330.477 96.6084 331.241 96.9014 332.226 96.9014C333.263 96.9014 334.288 96.6846 335.302 96.251V97.5518C334.786 97.7744 334.297 97.9326 333.834 98.0264C333.377 98.126 332.823 98.1758 332.173 98.1758ZM331.777 89.4131C331.004 89.4131 330.386 89.665 329.923 90.1689C329.466 90.6729 329.196 91.3701 329.114 92.2607H334.15C334.15 91.3408 333.945 90.6377 333.535 90.1514C333.125 89.6592 332.539 89.4131 331.777 89.4131ZM344.425 95.3721C344.425 96.2686 344.091 96.96 343.423 97.4463C342.755 97.9326 341.817 98.1758 340.61 98.1758C339.333 98.1758 338.337 97.9736 337.622 97.5693V96.2158C338.085 96.4502 338.58 96.6348 339.107 96.7695C339.641 96.9043 340.153 96.9717 340.646 96.9717C341.407 96.9717 341.993 96.8516 342.403 96.6113C342.813 96.3652 343.019 95.9932 343.019 95.4951C343.019 95.1201 342.854 94.8008 342.526 94.5371C342.204 94.2676 341.571 93.9512 340.628 93.5879C339.731 93.2539 339.093 92.9639 338.712 92.7178C338.337 92.4658 338.056 92.1816 337.868 91.8652C337.687 91.5488 337.596 91.1709 337.596 90.7314C337.596 89.9463 337.915 89.3281 338.554 88.877C339.192 88.4199 340.068 88.1914 341.182 88.1914C342.219 88.1914 343.232 88.4023 344.223 88.8242L343.704 90.0107C342.737 89.6123 341.861 89.4131 341.076 89.4131C340.385 89.4131 339.863 89.5215 339.512 89.7383C339.16 89.9551 338.984 90.2539 338.984 90.6348C338.984 90.8926 339.049 91.1123 339.178 91.2939C339.312 91.4756 339.526 91.6484 339.819 91.8125C340.112 91.9766 340.675 92.2139 341.507 92.5244C342.649 92.9404 343.42 93.3594 343.818 93.7812C344.223 94.2031 344.425 94.7334 344.425 95.3721Z" fill="#42556C"/>
<path d="M223.68 116.362C223.68 117.541 223.359 118.442 222.718 119.067C222.08 119.689 221.16 120 219.959 120H217.981V112.861H220.169C221.279 112.861 222.142 113.169 222.757 113.784C223.372 114.399 223.68 115.259 223.68 116.362ZM222.801 116.392C222.801 115.461 222.566 114.759 222.098 114.287C221.632 113.815 220.939 113.579 220.018 113.579H218.812V119.282H219.822C220.812 119.282 221.556 119.04 222.054 118.555C222.552 118.066 222.801 117.345 222.801 116.392ZM227.596 114.551C227.833 114.551 228.047 114.57 228.235 114.609L228.123 115.361C227.902 115.312 227.706 115.288 227.537 115.288C227.104 115.288 226.733 115.464 226.424 115.815C226.118 116.167 225.965 116.605 225.965 117.129V120H225.154V114.648H225.823L225.916 115.64H225.955C226.154 115.291 226.393 115.023 226.673 114.834C226.953 114.645 227.26 114.551 227.596 114.551ZM232.527 120L232.366 119.238H232.327C232.06 119.574 231.793 119.801 231.526 119.922C231.263 120.039 230.932 120.098 230.535 120.098C230.005 120.098 229.588 119.961 229.285 119.688C228.986 119.414 228.836 119.025 228.836 118.521C228.836 117.44 229.7 116.873 231.429 116.821L232.337 116.792V116.46C232.337 116.04 232.246 115.731 232.063 115.532C231.884 115.33 231.596 115.229 231.199 115.229C230.753 115.229 230.249 115.366 229.686 115.64L229.437 115.02C229.7 114.876 229.988 114.764 230.301 114.683C230.617 114.601 230.932 114.561 231.248 114.561C231.886 114.561 232.358 114.702 232.664 114.985C232.973 115.269 233.128 115.723 233.128 116.348V120H232.527ZM230.696 119.429C231.201 119.429 231.596 119.29 231.883 119.014C232.173 118.737 232.317 118.35 232.317 117.852V117.368L231.507 117.402C230.862 117.425 230.397 117.526 230.11 117.705C229.827 117.881 229.686 118.156 229.686 118.53C229.686 118.823 229.773 119.046 229.949 119.199C230.128 119.352 230.377 119.429 230.696 119.429ZM239.183 114.648V115.161L238.191 115.278C238.283 115.392 238.364 115.542 238.436 115.728C238.507 115.91 238.543 116.117 238.543 116.348C238.543 116.872 238.364 117.29 238.006 117.603C237.648 117.915 237.156 118.071 236.531 118.071C236.372 118.071 236.222 118.058 236.082 118.032C235.737 118.215 235.564 118.444 235.564 118.721C235.564 118.867 235.625 118.976 235.745 119.048C235.866 119.116 236.072 119.15 236.365 119.15H237.312C237.892 119.15 238.336 119.272 238.646 119.517C238.958 119.761 239.114 120.116 239.114 120.581C239.114 121.174 238.877 121.624 238.401 121.934C237.926 122.246 237.233 122.402 236.321 122.402C235.621 122.402 235.081 122.272 234.7 122.012C234.323 121.751 234.134 121.383 234.134 120.908C234.134 120.583 234.238 120.301 234.446 120.063C234.655 119.826 234.948 119.665 235.325 119.58C235.188 119.518 235.073 119.422 234.979 119.292C234.887 119.162 234.842 119.01 234.842 118.838C234.842 118.643 234.894 118.472 234.998 118.325C235.102 118.179 235.267 118.037 235.491 117.9C235.215 117.786 234.988 117.593 234.812 117.319C234.64 117.046 234.554 116.733 234.554 116.382C234.554 115.796 234.729 115.345 235.081 115.029C235.433 114.71 235.931 114.551 236.575 114.551C236.855 114.551 237.107 114.583 237.332 114.648H239.183ZM234.915 120.898C234.915 121.188 235.037 121.408 235.281 121.558C235.525 121.707 235.875 121.782 236.331 121.782C237.011 121.782 237.514 121.68 237.84 121.475C238.169 121.273 238.333 120.998 238.333 120.649C238.333 120.36 238.243 120.158 238.064 120.044C237.885 119.933 237.549 119.878 237.054 119.878H236.082C235.714 119.878 235.428 119.966 235.223 120.142C235.018 120.317 234.915 120.57 234.915 120.898ZM235.354 116.362C235.354 116.737 235.46 117.02 235.672 117.212C235.883 117.404 236.178 117.5 236.556 117.5C237.347 117.5 237.742 117.116 237.742 116.348C237.742 115.544 237.342 115.142 236.541 115.142C236.16 115.142 235.867 115.244 235.662 115.449C235.457 115.654 235.354 115.959 235.354 116.362ZM246.17 120L246.009 119.238H245.97C245.703 119.574 245.436 119.801 245.169 119.922C244.905 120.039 244.575 120.098 244.178 120.098C243.647 120.098 243.23 119.961 242.928 119.688C242.628 119.414 242.479 119.025 242.479 118.521C242.479 117.44 243.343 116.873 245.071 116.821L245.979 116.792V116.46C245.979 116.04 245.888 115.731 245.706 115.532C245.527 115.33 245.239 115.229 244.842 115.229C244.396 115.229 243.891 115.366 243.328 115.64L243.079 115.02C243.343 114.876 243.631 114.764 243.943 114.683C244.259 114.601 244.575 114.561 244.891 114.561C245.529 114.561 246.001 114.702 246.307 114.985C246.616 115.269 246.771 115.723 246.771 116.348V120H246.17ZM244.339 119.429C244.843 119.429 245.239 119.29 245.525 119.014C245.815 118.737 245.96 118.35 245.96 117.852V117.368L245.149 117.402C244.505 117.425 244.039 117.526 243.753 117.705C243.47 117.881 243.328 118.156 243.328 118.53C243.328 118.823 243.416 119.046 243.592 119.199C243.771 119.352 244.02 119.429 244.339 119.429ZM252.107 120V116.538C252.107 116.102 252.008 115.776 251.81 115.562C251.611 115.347 251.3 115.239 250.877 115.239C250.317 115.239 249.907 115.391 249.646 115.693C249.386 115.996 249.256 116.496 249.256 117.192V120H248.445V114.648H249.104L249.236 115.381H249.275C249.441 115.117 249.674 114.914 249.974 114.771C250.273 114.624 250.607 114.551 250.975 114.551C251.619 114.551 252.104 114.707 252.43 115.02C252.755 115.329 252.918 115.825 252.918 116.509V120H252.107ZM258.23 119.282H258.187C257.812 119.826 257.252 120.098 256.507 120.098C255.807 120.098 255.262 119.858 254.871 119.38C254.484 118.901 254.29 118.221 254.29 117.339C254.29 116.457 254.485 115.771 254.876 115.283C255.267 114.795 255.81 114.551 256.507 114.551C257.233 114.551 257.789 114.814 258.177 115.342H258.24L258.206 114.956L258.187 114.58V112.402H258.997V120H258.338L258.23 119.282ZM256.609 119.419C257.163 119.419 257.563 119.269 257.811 118.97C258.061 118.667 258.187 118.18 258.187 117.51V117.339C258.187 116.58 258.06 116.04 257.806 115.718C257.555 115.392 257.153 115.229 256.6 115.229C256.124 115.229 255.76 115.415 255.506 115.786C255.255 116.154 255.13 116.675 255.13 117.349C255.13 118.032 255.255 118.548 255.506 118.896C255.757 119.245 256.124 119.419 256.609 119.419ZM266.961 119.282H266.917C266.543 119.826 265.983 120.098 265.237 120.098C264.537 120.098 263.992 119.858 263.602 119.38C263.214 118.901 263.021 118.221 263.021 117.339C263.021 116.457 263.216 115.771 263.606 115.283C263.997 114.795 264.541 114.551 265.237 114.551C265.963 114.551 266.52 114.814 266.907 115.342H266.971L266.937 114.956L266.917 114.58V112.402H267.728V120H267.068L266.961 119.282ZM265.34 119.419C265.893 119.419 266.294 119.269 266.541 118.97C266.792 118.667 266.917 118.18 266.917 117.51V117.339C266.917 116.58 266.79 116.04 266.536 115.718C266.285 115.392 265.883 115.229 265.33 115.229C264.855 115.229 264.49 115.415 264.236 115.786C263.986 116.154 263.86 116.675 263.86 117.349C263.86 118.032 263.986 118.548 264.236 118.896C264.487 119.245 264.855 119.419 265.34 119.419ZM271.893 114.551C272.13 114.551 272.343 114.57 272.532 114.609L272.42 115.361C272.199 115.312 272.003 115.288 271.834 115.288C271.401 115.288 271.03 115.464 270.721 115.815C270.415 116.167 270.262 116.605 270.262 117.129V120H269.451V114.648H270.12L270.213 115.64H270.252C270.451 115.291 270.69 115.023 270.97 114.834C271.25 114.645 271.557 114.551 271.893 114.551ZM278.152 117.319C278.152 118.192 277.933 118.874 277.493 119.365C277.054 119.854 276.447 120.098 275.672 120.098C275.193 120.098 274.769 119.985 274.397 119.761C274.026 119.536 273.74 119.214 273.538 118.794C273.336 118.374 273.235 117.882 273.235 117.319C273.235 116.447 273.453 115.768 273.89 115.283C274.326 114.795 274.931 114.551 275.706 114.551C276.455 114.551 277.049 114.8 277.488 115.298C277.931 115.796 278.152 116.47 278.152 117.319ZM274.075 117.319C274.075 118.003 274.212 118.524 274.485 118.882C274.759 119.24 275.161 119.419 275.691 119.419C276.222 119.419 276.624 119.242 276.897 118.887C277.174 118.529 277.312 118.006 277.312 117.319C277.312 116.639 277.174 116.123 276.897 115.771C276.624 115.417 276.219 115.239 275.682 115.239C275.151 115.239 274.751 115.413 274.48 115.762C274.21 116.11 274.075 116.629 274.075 117.319ZM282.068 120.098C281.72 120.098 281.401 120.034 281.111 119.907C280.825 119.777 280.584 119.578 280.389 119.312H280.33C280.369 119.624 280.389 119.92 280.389 120.2V122.402H279.578V114.648H280.237L280.35 115.381H280.389C280.597 115.088 280.84 114.876 281.116 114.746C281.393 114.616 281.71 114.551 282.068 114.551C282.778 114.551 283.325 114.793 283.709 115.278C284.096 115.763 284.29 116.444 284.29 117.319C284.29 118.198 284.093 118.882 283.699 119.37C283.309 119.855 282.765 120.098 282.068 120.098ZM281.951 115.239C281.404 115.239 281.009 115.391 280.765 115.693C280.521 115.996 280.395 116.478 280.389 117.139V117.319C280.389 118.071 280.514 118.61 280.765 118.936C281.015 119.258 281.417 119.419 281.971 119.419C282.433 119.419 282.794 119.232 283.055 118.857C283.318 118.483 283.45 117.967 283.45 117.31C283.45 116.642 283.318 116.131 283.055 115.776C282.794 115.418 282.426 115.239 281.951 115.239ZM290.037 119.429C290.18 119.429 290.319 119.419 290.452 119.399C290.586 119.377 290.691 119.354 290.77 119.331V119.951C290.682 119.993 290.551 120.028 290.379 120.054C290.21 120.083 290.057 120.098 289.92 120.098C288.885 120.098 288.367 119.552 288.367 118.462V115.278H287.601V114.888L288.367 114.551L288.709 113.408H289.178V114.648H290.73V115.278H289.178V118.428C289.178 118.75 289.254 118.997 289.407 119.17C289.56 119.342 289.77 119.429 290.037 119.429ZM296.463 117.319C296.463 118.192 296.243 118.874 295.804 119.365C295.364 119.854 294.757 120.098 293.982 120.098C293.504 120.098 293.079 119.985 292.708 119.761C292.337 119.536 292.05 119.214 291.849 118.794C291.647 118.374 291.546 117.882 291.546 117.319C291.546 116.447 291.764 115.768 292.2 115.283C292.636 114.795 293.242 114.551 294.017 114.551C294.765 114.551 295.359 114.8 295.799 115.298C296.242 115.796 296.463 116.47 296.463 117.319ZM292.386 117.319C292.386 118.003 292.522 118.524 292.796 118.882C293.069 119.24 293.471 119.419 294.002 119.419C294.533 119.419 294.935 119.242 295.208 118.887C295.485 118.529 295.623 118.006 295.623 117.319C295.623 116.639 295.485 116.123 295.208 115.771C294.935 115.417 294.529 115.239 293.992 115.239C293.462 115.239 293.061 115.413 292.791 115.762C292.521 116.11 292.386 116.629 292.386 117.319ZM301.248 114.648V118.12C301.248 118.556 301.347 118.882 301.546 119.097C301.744 119.312 302.055 119.419 302.479 119.419C303.038 119.419 303.447 119.266 303.704 118.96C303.965 118.654 304.095 118.154 304.095 117.461V114.648H304.905V120H304.236L304.119 119.282H304.075C303.909 119.546 303.678 119.748 303.382 119.888C303.089 120.028 302.754 120.098 302.376 120.098C301.725 120.098 301.237 119.943 300.911 119.634C300.589 119.325 300.428 118.83 300.428 118.149V114.648H301.248ZM309.119 120.098C308.771 120.098 308.452 120.034 308.162 119.907C307.876 119.777 307.635 119.578 307.439 119.312H307.381C307.42 119.624 307.439 119.92 307.439 120.2V122.402H306.629V114.648H307.288L307.4 115.381H307.439C307.648 115.088 307.89 114.876 308.167 114.746C308.444 114.616 308.761 114.551 309.119 114.551C309.829 114.551 310.376 114.793 310.76 115.278C311.147 115.763 311.341 116.444 311.341 117.319C311.341 118.198 311.144 118.882 310.75 119.37C310.359 119.855 309.816 120.098 309.119 120.098ZM309.002 115.239C308.455 115.239 308.06 115.391 307.815 115.693C307.571 115.996 307.446 116.478 307.439 117.139V117.319C307.439 118.071 307.565 118.61 307.815 118.936C308.066 119.258 308.468 119.419 309.021 119.419C309.484 119.419 309.845 119.232 310.105 118.857C310.369 118.483 310.501 117.967 310.501 117.31C310.501 116.642 310.369 116.131 310.105 115.776C309.845 115.418 309.477 115.239 309.002 115.239ZM313.572 120H312.762V112.402H313.572V120ZM319.91 117.319C319.91 118.192 319.69 118.874 319.251 119.365C318.812 119.854 318.204 120.098 317.43 120.098C316.951 120.098 316.526 119.985 316.155 119.761C315.784 119.536 315.498 119.214 315.296 118.794C315.094 118.374 314.993 117.882 314.993 117.319C314.993 116.447 315.211 115.768 315.647 115.283C316.084 114.795 316.689 114.551 317.464 114.551C318.213 114.551 318.807 114.8 319.246 115.298C319.689 115.796 319.91 116.47 319.91 117.319ZM315.833 117.319C315.833 118.003 315.97 118.524 316.243 118.882C316.517 119.24 316.919 119.419 317.449 119.419C317.98 119.419 318.382 119.242 318.655 118.887C318.932 118.529 319.07 118.006 319.07 117.319C319.07 116.639 318.932 116.123 318.655 115.771C318.382 115.417 317.977 115.239 317.439 115.239C316.909 115.239 316.508 115.413 316.238 115.762C315.968 116.11 315.833 116.629 315.833 117.319ZM324.627 120L324.466 119.238H324.427C324.16 119.574 323.893 119.801 323.626 119.922C323.362 120.039 323.032 120.098 322.635 120.098C322.104 120.098 321.688 119.961 321.385 119.688C321.085 119.414 320.936 119.025 320.936 118.521C320.936 117.44 321.8 116.873 323.528 116.821L324.437 116.792V116.46C324.437 116.04 324.345 115.731 324.163 115.532C323.984 115.33 323.696 115.229 323.299 115.229C322.853 115.229 322.348 115.366 321.785 115.64L321.536 115.02C321.8 114.876 322.088 114.764 322.4 114.683C322.716 114.601 323.032 114.561 323.348 114.561C323.986 114.561 324.458 114.702 324.764 114.985C325.073 115.269 325.228 115.723 325.228 116.348V120H324.627ZM322.796 119.429C323.3 119.429 323.696 119.29 323.982 119.014C324.272 118.737 324.417 118.35 324.417 117.852V117.368L323.606 117.402C322.962 117.425 322.496 117.526 322.21 117.705C321.927 117.881 321.785 118.156 321.785 118.53C321.785 118.823 321.873 119.046 322.049 119.199C322.228 119.352 322.477 119.429 322.796 119.429ZM330.545 119.282H330.501C330.127 119.826 329.567 120.098 328.821 120.098C328.121 120.098 327.576 119.858 327.186 119.38C326.798 118.901 326.604 118.221 326.604 117.339C326.604 116.457 326.8 115.771 327.19 115.283C327.581 114.795 328.125 114.551 328.821 114.551C329.547 114.551 330.104 114.814 330.491 115.342H330.555L330.521 114.956L330.501 114.58V112.402H331.312V120H330.652L330.545 119.282ZM328.924 119.419C329.477 119.419 329.878 119.269 330.125 118.97C330.376 118.667 330.501 118.18 330.501 117.51V117.339C330.501 116.58 330.374 116.04 330.12 115.718C329.869 115.392 329.467 115.229 328.914 115.229C328.439 115.229 328.074 115.415 327.82 115.786C327.57 116.154 327.444 116.675 327.444 117.349C327.444 118.032 327.57 118.548 327.82 118.896C328.071 119.245 328.439 119.419 328.924 119.419Z" fill="#94AAC5"/>
<g filter="url(#filter2_d)">
<rect x="102" y="142" width="344" height="193" rx="25" fill="#F7FBFD"/>
</g>
<path fill-rule="evenodd" clip-rule="evenodd" d="M291.401 184.013C295.214 187.5 297.707 192.094 298.554 197.129C307.092 199.378 313.333 207.509 313.349 216.65C313.349 221.701 311.475 226.557 308.037 230.337C304.583 234.15 299.939 236.431 294.969 236.789H294.806H285.975C284.753 236.789 283.775 235.812 283.775 234.59C283.775 233.368 284.753 232.39 285.975 232.39H294.725C302.579 231.787 308.95 224.748 308.95 216.65C308.95 209.008 303.475 202.311 296.224 201.073C295.246 200.91 294.497 200.111 294.399 199.117C293.486 189.569 285.551 182.367 275.938 182.367C268.784 182.367 262.202 186.538 259.155 193.007C258.666 194.033 257.476 194.522 256.401 194.131C255.521 193.805 254.576 193.642 253.615 193.642C249.117 193.642 245.451 197.309 245.451 201.806C245.451 202.8 245.614 203.729 245.94 204.608C246.298 205.619 245.907 206.743 244.979 207.281C240.987 209.611 238.51 213.912 238.51 218.524C238.51 225.661 244.115 231.999 250.779 232.406H261.468C262.69 232.406 263.668 233.384 263.668 234.606C263.668 235.828 262.69 236.806 261.468 236.806H250.714H250.584C246.152 236.561 241.997 234.459 238.852 230.907C235.789 227.437 234.11 223.053 234.11 218.54C234.11 212.951 236.831 207.704 241.312 204.445C241.149 203.598 241.052 202.735 241.052 201.838C241.052 194.913 246.689 189.276 253.615 189.276C254.429 189.276 255.244 189.357 256.026 189.504C257.835 186.343 260.393 183.654 263.473 181.666C267.171 179.271 271.489 178 275.921 178C281.657 178 287.164 180.135 291.401 184.013ZM286.936 210.931C287.8 211.794 287.8 213.179 286.936 214.043C286.073 214.906 284.688 214.906 283.84 214.043L275.938 206.14V242.46C275.938 243.682 274.96 244.66 273.738 244.66C272.516 244.66 271.538 243.682 271.538 242.46V206.14L263.635 214.043C263.212 214.483 262.642 214.695 262.088 214.695C261.534 214.695 260.963 214.466 260.54 214.043C259.676 213.179 259.676 211.794 260.54 210.931L272.19 199.28C272.597 198.857 273.168 198.628 273.738 198.628C274.308 198.628 274.878 198.873 275.286 199.28L286.936 210.931Z" fill="#5183BB"/>
<g filter="url(#filter3_d)">
<rect x="182" y="269.981" width="30.0472" height="30.0472" rx="15.0236" fill="white"/>
</g>
<g filter="url(#filter4_d)">
<rect x="232.651" y="269.981" width="30.0472" height="30.0472" rx="15.0236" fill="white"/>
</g>
<g filter="url(#filter5_d)">
<rect x="283.302" y="269.981" width="30.0472" height="30.0472" rx="15.0236" fill="white"/>
</g>
<g filter="url(#filter6_d)">
<rect x="333.953" y="269.981" width="30.0472" height="30.0472" rx="15.0236" fill="white"/>
</g>
<path d="M262.384 285.004C262.384 289.835 260.103 294.134 256.56 296.882C254.018 298.854 250.826 300.028 247.36 300.028C243.925 300.028 240.759 298.875 238.229 296.935C234.646 294.19 232.336 289.866 232.336 285.004C232.336 276.707 239.063 269.981 247.36 269.981C255.657 269.981 262.384 276.707 262.384 285.004Z" fill="white"/>
<path fill-rule="evenodd" clip-rule="evenodd" d="M249.588 292.314L249.578 292.313C249.578 293.125 248.863 293.75 248.058 293.642L240.647 292.643C239.655 292.509 238.915 291.662 238.915 290.661V279.24C238.915 278.236 239.659 277.388 240.654 277.257L248.103 276.279C248.884 276.176 249.578 276.785 249.578 277.573L249.595 277.572C249.613 277.571 249.631 277.569 249.65 277.569H255.113C255.752 277.569 256.272 278.081 256.272 278.71V291.176C256.272 291.805 255.752 292.316 255.113 292.316H249.65C249.629 292.316 249.609 292.315 249.588 292.314ZM251.346 287.034H249.578V287.686H251.346V287.034ZM249.578 286.952V286.288H251.346V286.952H249.578ZM249.578 285.445V286.207H251.346V285.445H249.578ZM249.578 285.364V284.511H251.346V285.364H249.578ZM249.578 283.629V284.441H251.346V283.629H249.578ZM249.578 283.559V282.747H251.311H251.346V283.559H249.578ZM255.113 278.22H249.65C249.625 278.22 249.602 278.224 249.578 278.227L249.578 278.227V281.795H251.311V281.795H253.339H253.41H255.438V282.596H255.442V287.755H251.417V287.755H249.578V291.656C249.602 291.66 249.625 291.664 249.65 291.664H255.113C255.387 291.664 255.61 291.444 255.61 291.175V278.709C255.61 278.44 255.387 278.22 255.113 278.22ZM255.359 282.747V287.674H254.586V282.984H254.055V287.674H253.613V283.466H253.083V287.674H252.693V283.942H252.163V287.674H251.417V284.511V284.441V283.629V283.559V282.747H253.339H253.41H255.359ZM253.41 281.865V282.678H255.359V282.596H255.367V281.865H253.41ZM253.339 282.678H251.417H251.382V281.865H253.339V282.678ZM242.219 285.73C242.074 285.789 241.828 285.835 241.609 285.831C240.968 285.821 240.597 285.395 240.597 284.73C240.597 283.99 241.034 283.623 241.604 283.613C241.862 283.609 242.069 283.666 242.219 283.729L242.37 283.115C242.238 283.047 241.949 282.973 241.571 282.983C240.615 283.008 239.867 283.652 239.867 284.773C239.867 285.709 240.413 286.431 241.5 286.459C241.891 286.47 242.195 286.402 242.331 286.335L242.219 285.73ZM243.645 286.516C243.258 286.505 242.88 286.394 242.693 286.282L242.846 285.643C243.049 285.753 243.363 285.866 243.69 285.871C244.046 285.877 244.236 285.729 244.236 285.501C244.236 285.282 244.072 285.156 243.66 285.004C243.099 284.802 242.737 284.485 242.737 283.986C242.737 283.401 243.213 282.94 244.016 282.919C244.407 282.909 244.697 282.985 244.906 283.075L244.728 283.724C244.588 283.658 244.339 283.563 244.001 283.568C243.665 283.573 243.504 283.731 243.504 283.911C243.504 284.132 243.695 284.229 244.139 284.397C244.754 284.625 245.048 284.951 245.048 285.452C245.048 286.047 244.593 286.541 243.645 286.516ZM246.454 286.536L247.442 286.561L248.743 282.858L247.81 282.881L247.325 284.459C247.196 284.878 247.078 285.311 246.984 285.748L246.967 285.748C246.879 285.293 246.763 284.877 246.635 284.446L246.187 282.922L245.291 282.945L246.454 286.536Z" fill="black"/>
<path d="M313.233 285.517C313.233 290.348 310.952 294.647 307.409 297.395C304.867 299.367 301.676 300.541 298.209 300.541C294.774 300.541 291.609 299.388 289.078 297.448C285.495 294.703 283.186 290.38 283.186 285.517C283.186 277.22 289.912 270.494 298.209 270.494C306.506 270.494 313.233 277.22 313.233 285.517Z" fill="white"/>
<path d="M306.916 292.039H298.612C298.285 292.039 298.019 291.775 298.019 291.446C298.019 291.118 298.019 279.916 298.019 279.589C298.019 279.261 298.285 278.996 298.612 278.996H306.916C307.243 278.996 307.509 279.261 307.509 279.589V291.446C307.509 291.775 307.243 292.039 306.916 292.039Z" fill="#ECEFF1"/>
<path d="M304.662 282.449H298.968C298.654 282.449 298.399 282.192 298.399 281.873C298.399 281.554 298.654 281.298 298.968 281.298H304.662C304.977 281.298 305.232 281.556 305.232 281.873C305.232 282.191 304.977 282.449 304.662 282.449Z" fill="#1976D2"/>
<path d="M304.662 284.75H298.968C298.654 284.75 298.398 284.494 298.398 284.175C298.398 283.856 298.654 283.599 298.968 283.599H304.662C304.976 283.599 305.231 283.857 305.231 284.175C305.231 284.493 304.976 284.75 304.662 284.75Z" fill="#1976D2"/>
<path d="M304.662 287.052H298.968C298.654 287.052 298.398 286.795 298.398 286.477C298.398 286.158 298.654 285.901 298.968 285.901H304.662C304.976 285.901 305.231 286.159 305.231 286.477C305.231 286.794 304.976 287.052 304.662 287.052Z" fill="#1976D2"/>
<path d="M304.662 289.354H298.968C298.654 289.354 298.398 289.097 298.398 288.778C298.398 288.46 298.654 288.203 298.968 288.203H304.662C304.976 288.203 305.231 288.461 305.231 288.778C305.231 289.096 304.976 289.354 304.662 289.354Z" fill="#1976D2"/>
<path d="M299.324 276.831C299.189 276.718 299.009 276.671 298.838 276.705L289.391 278.47C289.112 278.521 288.909 278.765 288.909 279.047V291.988C288.909 292.27 289.111 292.514 289.391 292.566L298.838 294.33C298.875 294.337 298.911 294.341 298.947 294.341C299.084 294.341 299.218 294.294 299.324 294.205C299.46 294.094 299.538 293.928 299.538 293.753V277.283C299.538 277.107 299.46 276.943 299.324 276.831Z" fill="#1565C0"/>
<path d="M296.308 288.444C296.278 288.715 296.073 288.932 295.812 288.965C295.788 288.969 295.766 288.97 295.742 288.97C295.507 288.97 295.293 288.818 295.209 288.586L294.034 285.323L292.858 288.586C292.767 288.84 292.528 288.995 292.264 288.967C292.005 288.938 291.798 288.729 291.762 288.46L291.192 284.311C291.148 283.988 291.364 283.687 291.675 283.641C291.987 283.594 292.275 283.82 292.32 284.144L292.574 285.998L293.499 283.426C293.666 282.964 294.399 282.964 294.567 283.426L295.439 285.847L295.745 282.976C295.78 282.651 296.07 282.417 296.374 282.452C296.687 282.49 296.911 282.783 296.877 283.107L296.308 288.444Z" fill="#FAFAFA"/>
<path d="M363.569 285.004C363.569 289.835 361.289 294.134 357.746 296.882C355.204 298.854 352.012 300.028 348.546 300.028C345.11 300.028 341.945 298.875 339.414 296.935C335.832 294.19 333.522 289.866 333.522 285.004C333.522 276.707 340.248 269.981 348.546 269.981C356.843 269.981 363.569 276.707 363.569 285.004Z" fill="white"/>
<path d="M356.923 291.096H349.323C349.023 291.096 348.78 290.865 348.78 290.581C348.78 290.296 348.78 280.56 348.78 280.275C348.78 279.991 349.023 279.76 349.323 279.76H356.923C357.223 279.76 357.466 279.991 357.466 280.275V290.581C357.466 290.865 357.223 291.096 356.923 291.096Z" fill="#ECEFF1"/>
<path d="M351.576 282.671H349.339C349.03 282.671 348.78 282.442 348.78 282.16C348.78 281.878 349.03 281.65 349.339 281.65H351.576C351.885 281.65 352.136 281.878 352.136 282.16C352.136 282.442 351.885 282.671 351.576 282.671Z" fill="#388E3C"/>
<path d="M351.576 284.713H349.339C349.03 284.713 348.78 284.484 348.78 284.202C348.78 283.921 349.03 283.692 349.339 283.692H351.576C351.885 283.692 352.136 283.921 352.136 284.202C352.136 284.484 351.885 284.713 351.576 284.713Z" fill="#388E3C"/>
<path d="M351.576 286.755H349.339C349.03 286.755 348.78 286.526 348.78 286.245C348.78 285.963 349.03 285.734 349.339 285.734H351.576C351.885 285.734 352.136 285.963 352.136 286.245C352.136 286.526 351.885 286.755 351.576 286.755Z" fill="#388E3C"/>
<path d="M351.576 288.797H349.339C349.03 288.797 348.78 288.569 348.78 288.287C348.78 288.005 349.03 287.776 349.339 287.776H351.576C351.885 287.776 352.136 288.005 352.136 288.287C352.136 288.569 351.885 288.797 351.576 288.797Z" fill="#388E3C"/>
<path d="M354.932 282.671H353.813C353.504 282.671 353.254 282.442 353.254 282.16C353.254 281.878 353.504 281.65 353.813 281.65H354.932C355.241 281.65 355.491 281.878 355.491 282.16C355.491 282.442 355.241 282.671 354.932 282.671Z" fill="#388E3C"/>
<path d="M354.932 284.713H353.813C353.504 284.713 353.254 284.484 353.254 284.202C353.254 283.921 353.504 283.692 353.813 283.692H354.932C355.241 283.692 355.491 283.921 355.491 284.202C355.491 284.484 355.241 284.713 354.932 284.713Z" fill="#388E3C"/>
<path d="M354.932 286.755H353.813C353.504 286.755 353.254 286.526 353.254 286.245C353.254 285.963 353.504 285.734 353.813 285.734H354.932C355.241 285.734 355.491 285.963 355.491 286.245C355.491 286.526 355.241 286.755 354.932 286.755Z" fill="#388E3C"/>
<path d="M354.932 288.797H353.813C353.504 288.797 353.254 288.569 353.254 288.287C353.254 288.005 353.504 287.776 353.813 287.776H354.932C355.241 287.776 355.491 288.005 355.491 288.287C355.491 288.569 355.241 288.797 354.932 288.797Z" fill="#388E3C"/>
<path d="M349.766 277.612C349.641 277.514 349.473 277.472 349.315 277.503L340.542 279.052C340.282 279.097 340.095 279.31 340.095 279.559V290.92C340.095 291.168 340.282 291.382 340.542 291.427L349.315 292.976C349.348 292.983 349.382 292.986 349.416 292.986C349.544 292.986 349.667 292.944 349.766 292.867C349.892 292.769 349.965 292.622 349.965 292.469V278.01C349.965 277.856 349.892 277.71 349.766 277.612Z" fill="#2E7D32"/>
<path d="M347.466 286.841L345.801 284.978L347.485 282.859C347.663 282.635 347.621 282.311 347.393 282.136C347.164 281.961 346.834 282.002 346.654 282.226L345.095 284.188L343.781 282.718C343.588 282.502 343.256 282.482 343.039 282.67C342.82 282.857 342.798 283.183 342.989 283.396L344.437 285.017L342.969 286.864C342.791 287.088 342.833 287.412 343.061 287.587C343.158 287.66 343.273 287.695 343.385 287.695C343.542 287.695 343.697 287.627 343.801 287.496L345.143 285.806L346.674 287.518C346.778 287.636 346.923 287.695 347.07 287.695C347.193 287.695 347.316 287.653 347.416 287.567C347.635 287.38 347.657 287.054 347.466 286.841Z" fill="#FAFAFA"/>
<path d="M212.047 285.517C212.047 290.348 209.767 294.647 206.224 297.395C203.682 299.367 200.49 300.541 197.024 300.541C193.588 300.541 190.423 299.388 187.892 297.448C184.31 294.703 182 290.38 182 285.517C182 277.22 188.726 270.494 197.024 270.494C205.321 270.494 212.047 277.22 212.047 285.517Z" fill="white"/>
<path d="M189.631 277.171L191.021 292.624L197.262 294.341L203.501 292.625L204.893 277.171H189.631Z" fill="#FF5722"/>
<path d="M201.879 282.224H197.263H194.564L194.739 284.166H197.263H201.705L201.181 289.986L197.263 291.062L197.259 291.063L193.343 289.986L193.07 286.942H194.988L195.131 288.521L197.26 289.091L197.263 289.09L199.394 288.52L199.616 286.062H197.263H192.991L192.475 280.33H197.263H202.049L201.879 282.224Z" fill="#FAFAFA"/>
<g filter="url(#filter7_d)">
<rect width="69" height="69" rx="20" transform="matrix(-1 0 0 1 102 89)" fill="url(#paint0_linear)"/>
</g>
<path d="M75.7392 125.999L60.4212 110.675C59.8602 110.229 59.0164 110.655 59.0164 111.322V132.263C59.0164 132.731 59.3964 133.112 59.8647 133.112C60.0853 133.112 60.2968 133.027 60.4179 132.904L64.6618 129.204L68.1232 137.296C68.182 137.434 68.2928 137.543 68.432 137.6C68.4999 137.626 68.5712 137.639 68.6424 137.639C68.7182 137.639 68.794 137.623 68.8653 137.593L72.5075 136.031C72.7948 135.909 72.9284 135.576 72.8051 135.288L69.4545 127.452H75.1352C75.6035 127.452 75.9836 127.072 75.9836 126.603C75.9836 126.466 75.9486 126.26 75.7392 125.999Z" fill="white"/>
<g filter="url(#filter8_d)">
<rect width="26.5714" height="25.7143" rx="12.8571" transform="matrix(-1 0 0 1 497.571 98)" fill="url(#paint1_linear)"/>
</g>
<defs>
<filter id="filter0_d" x="67" y="0" width="214" height="250" filterUnits="userSpaceOnUse" color-interpolation-filters="sRGB">
<feFlood flood-opacity="0" result="BackgroundImageFix"/>
<feColorMatrix in="SourceAlpha" type="matrix" values="0 0 0 0 0 0 0 0 0 0 0 0 0 0 0 0 0 0 127 0" result="hardAlpha"/>
<feOffset dx="13" dy="25"/>
<feGaussianBlur stdDeviation="17.5"/>
<feColorMatrix type="matrix" values="0 0 0 0 0 0 0 0 0 0.351917 0 0 0 0 0.429167 0 0 0 0.15 0"/>
<feBlend mode="normal" in2="BackgroundImageFix" result="effect1_dropShadow"/>
<feBlend mode="normal" in="SourceGraphic" in2="effect1_dropShadow" result="shape"/>
</filter>
<filter id="filter1_d" x="57" y="48" width="450" height="274" filterUnits="userSpaceOnUse" color-interpolation-filters="sRGB">
<feFlood flood-opacity="0" result="BackgroundImageFix"/>
<feColorMatrix in="SourceAlpha" type="matrix" values="0 0 0 0 0 0 0 0 0 0 0 0 0 0 0 0 0 0 127 0" result="hardAlpha"/>
<feOffset dx="8" dy="12"/>
<feGaussianBlur stdDeviation="7.5"/>
<feColorMatrix type="matrix" values="0 0 0 0 0.466875 0 0 0 0 0.610742 0 0 0 0 0.691667 0 0 0 0.25 0"/>
<feBlend mode="normal" in2="BackgroundImageFix" result="effect1_dropShadow"/>
<feBlend mode="normal" in="SourceGraphic" in2="effect1_dropShadow" result="shape"/>
</filter>
<filter id="filter2_d" x="80" y="132" width="414" height="263" filterUnits="userSpaceOnUse" color-interpolation-filters="sRGB">
<feFlood flood-opacity="0" result="BackgroundImageFix"/>
<feColorMatrix in="SourceAlpha" type="matrix" values="0 0 0 0 0 0 0 0 0 0 0 0 0 0 0 0 0 0 127 0" result="hardAlpha"/>
<feOffset dx="13" dy="25"/>
<feGaussianBlur stdDeviation="17.5"/>
<feColorMatrix type="matrix" values="0 0 0 0 0 0 0 0 0 0.351917 0 0 0 0 0.429167 0 0 0 0.15 0"/>
<feBlend mode="normal" in2="BackgroundImageFix" result="effect1_dropShadow"/>
<feBlend mode="normal" in="SourceGraphic" in2="effect1_dropShadow" result="shape"/>
</filter>
<filter id="filter3_d" x="175" y="266.981" width="60.0472" height="60.0472" filterUnits="userSpaceOnUse" color-interpolation-filters="sRGB">
<feFlood flood-opacity="0" result="BackgroundImageFix"/>
<feColorMatrix in="SourceAlpha" type="matrix" values="0 0 0 0 0 0 0 0 0 0 0 0 0 0 0 0 0 0 127 0" result="hardAlpha"/>
<feOffset dx="8" dy="12"/>
<feGaussianBlur stdDeviation="7.5"/>
<feColorMatrix type="matrix" values="0 0 0 0 0.466875 0 0 0 0 0.610742 0 0 0 0 0.691667 0 0 0 0.25 0"/>
<feBlend mode="normal" in2="BackgroundImageFix" result="effect1_dropShadow"/>
<feBlend mode="normal" in="SourceGraphic" in2="effect1_dropShadow" result="shape"/>
</filter>
<filter id="filter4_d" x="225.651" y="266.981" width="60.0472" height="60.0472" filterUnits="userSpaceOnUse" color-interpolation-filters="sRGB">
<feFlood flood-opacity="0" result="BackgroundImageFix"/>
<feColorMatrix in="SourceAlpha" type="matrix" values="0 0 0 0 0 0 0 0 0 0 0 0 0 0 0 0 0 0 127 0" result="hardAlpha"/>
<feOffset dx="8" dy="12"/>
<feGaussianBlur stdDeviation="7.5"/>
<feColorMatrix type="matrix" values="0 0 0 0 0.466875 0 0 0 0 0.610742 0 0 0 0 0.691667 0 0 0 0.25 0"/>
<feBlend mode="normal" in2="BackgroundImageFix" result="effect1_dropShadow"/>
<feBlend mode="normal" in="SourceGraphic" in2="effect1_dropShadow" result="shape"/>
</filter>
<filter id="filter5_d" x="276.302" y="266.981" width="60.0472" height="60.0472" filterUnits="userSpaceOnUse" color-interpolation-filters="sRGB">
<feFlood flood-opacity="0" result="BackgroundImageFix"/>
<feColorMatrix in="SourceAlpha" type="matrix" values="0 0 0 0 0 0 0 0 0 0 0 0 0 0 0 0 0 0 127 0" result="hardAlpha"/>
<feOffset dx="8" dy="12"/>
<feGaussianBlur stdDeviation="7.5"/>
<feColorMatrix type="matrix" values="0 0 0 0 0.466875 0 0 0 0 0.610742 0 0 0 0 0.691667 0 0 0 0.25 0"/>
<feBlend mode="normal" in2="BackgroundImageFix" result="effect1_dropShadow"/>
<feBlend mode="normal" in="SourceGraphic" in2="effect1_dropShadow" result="shape"/>
</filter>
<filter id="filter6_d" x="326.953" y="266.981" width="60.0472" height="60.0472" filterUnits="userSpaceOnUse" color-interpolation-filters="sRGB">
<feFlood flood-opacity="0" result="BackgroundImageFix"/>
<feColorMatrix in="SourceAlpha" type="matrix" values="0 0 0 0 0 0 0 0 0 0 0 0 0 0 0 0 0 0 127 0" result="hardAlpha"/>
<feOffset dx="8" dy="12"/>
<feGaussianBlur stdDeviation="7.5"/>
<feColorMatrix type="matrix" values="0 0 0 0 0.466875 0 0 0 0 0.610742 0 0 0 0 0.691667 0 0 0 0.25 0"/>
<feBlend mode="normal" in2="BackgroundImageFix" result="effect1_dropShadow"/>
<feBlend mode="normal" in="SourceGraphic" in2="effect1_dropShadow" result="shape"/>
</filter>
<filter id="filter7_d" x="0" y="62" width="139" height="139" filterUnits="userSpaceOnUse" color-interpolation-filters="sRGB">
<feFlood flood-opacity="0" result="BackgroundImageFix"/>
<feColorMatrix in="SourceAlpha" type="matrix" values="0 0 0 0 0 0 0 0 0 0 0 0 0 0 0 0 0 0 127 0" result="hardAlpha"/>
<feOffset dx="2" dy="8"/>
<feGaussianBlur stdDeviation="17.5"/>
<feColorMatrix type="matrix" values="0 0 0 0 0 0 0 0 0 0.351917 0 0 0 0 0.429167 0 0 0 0.15 0"/>
<feBlend mode="normal" in2="BackgroundImageFix" result="effect1_dropShadow"/>
<feBlend mode="normal" in="SourceGraphic" in2="effect1_dropShadow" result="shape"/>
</filter>
<filter id="filter8_d" x="441" y="77" width="86.5714" height="85.7143" filterUnits="userSpaceOnUse" color-interpolation-filters="sRGB">
<feFlood flood-opacity="0" result="BackgroundImageFix"/>
<feColorMatrix in="SourceAlpha" type="matrix" values="0 0 0 0 0 0 0 0 0 0 0 0 0 0 0 0 0 0 127 0" result="hardAlpha"/>
<feOffset dy="9"/>
<feGaussianBlur stdDeviation="15"/>
<feColorMatrix type="matrix" values="0 0 0 0 0.593438 0 0 0 0 0.707729 0 0 0 0 0.879167 0 0 0 0.25 0"/>
<feBlend mode="normal" in2="BackgroundImageFix" result="effect1_dropShadow"/>
<feBlend mode="normal" in="SourceGraphic" in2="effect1_dropShadow" result="shape"/>
</filter>
<linearGradient id="paint0_linear" x1="34.5" y1="0" x2="34.5" y2="69" gradientUnits="userSpaceOnUse">
<stop stop-color="#B0E7C6"/>
<stop offset="1" stop-color="#5DD1B3"/>
</linearGradient>
<linearGradient id="paint1_linear" x1="13.2857" y1="6.2829" x2="13.2857" y2="25.7143" gradientUnits="userSpaceOnUse">
<stop stop-color="#FFED49"/>
<stop offset="1" stop-color="#FFC369"/>
</linearGradient>
</defs>
</svg>
