<svg width="157" height="157" viewBox="0 0 157 157" fill="none" xmlns="http://www.w3.org/2000/svg">
<g filter="url(#filter0_d)">
<rect x="30" y="21" width="97" height="97" rx="25" fill="white"/>
</g>
<circle cx="117.5" cy="29.5" r="12.5" fill="white"/>
<path fill-rule="evenodd" clip-rule="evenodd" d="M104 29.8777C104 22.2133 110.227 16 117.909 16C125.588 16.0082 131.81 22.2167 131.819 29.8777C131.819 37.5421 125.591 43.7554 117.909 43.7554C110.227 43.7554 104 37.5421 104 29.8777ZM115.631 35.5348L125.566 25.6221C125.938 25.238 125.938 24.629 125.566 24.2449C125.185 23.8511 124.556 23.8402 124.162 24.2205L114.929 33.4324L111.657 30.1681C111.649 30.1598 111.641 30.1517 111.633 30.1437C111.238 29.7634 110.609 29.7743 110.228 30.1681C109.847 30.5619 109.857 31.1894 110.252 31.5697L114.226 35.5348C114.614 35.9218 115.243 35.9218 115.631 35.5348Z" fill="url(#paint0_linear)"/>
<path d="M79.0628 84.4167C89.2249 84.4167 97.4628 76.2645 97.4628 66.2083C97.4628 56.1521 89.2249 48 79.0628 48C68.9008 48 60.6628 56.1521 60.6628 66.2083C60.6628 76.2645 68.9008 84.4167 79.0628 84.4167Z" fill="url(#paint1_linear)"/>
<path d="M64.2843 76.9495L58 87.8428L65.3346 87.4534L68.6669 94.0002L74.4803 83.9219C70.315 82.8443 66.7382 80.3361 64.2843 76.9495Z" fill="#5183BB"/>
<path d="M93.9125 76.895C91.4767 80.2907 87.9 82.808 83.7437 83.9037L89.5751 94.0001L92.9074 87.4533L100.242 87.8427L93.9125 76.895Z" fill="#5183BB"/>
<path d="M88.0569 64.9805C88.4608 64.5844 88.2364 63.8913 87.6799 63.8103L82.5007 63.0542C82.2763 63.0182 82.0878 62.8832 81.989 62.6761L79.6732 57.9683C79.4218 57.4552 78.6948 57.4552 78.4434 57.9683L76.1366 62.6761C76.0378 62.8742 75.8404 63.0182 75.6249 63.0542L70.4457 63.8103C69.8892 63.8913 69.6648 64.5844 70.0687 64.9805L73.8118 68.6441C73.9733 68.8062 74.0451 69.0312 74.0092 69.2472L73.1296 74.4141C73.0308 74.9722 73.6233 75.4043 74.1259 75.1343L78.7576 72.6948C78.9551 72.5868 79.1974 72.5868 79.3949 72.6948L84.0266 75.1343C84.5293 75.3953 85.1127 74.9722 85.0229 74.4141L84.1343 69.2472C84.0984 69.0222 84.1702 68.7972 84.3318 68.6441L88.0569 64.9805Z" fill="white"/>
<defs>
<filter id="filter0_d" x="0" y="0" width="157" height="157" filterUnits="userSpaceOnUse" color-interpolation-filters="sRGB">
<feFlood flood-opacity="0" result="BackgroundImageFix"/>
<feColorMatrix in="SourceAlpha" type="matrix" values="0 0 0 0 0 0 0 0 0 0 0 0 0 0 0 0 0 0 127 0" result="hardAlpha"/>
<feOffset dy="9"/>
<feGaussianBlur stdDeviation="15"/>
<feColorMatrix type="matrix" values="0 0 0 0 0.593438 0 0 0 0 0.707729 0 0 0 0 0.879167 0 0 0 0.25 0"/>
<feBlend mode="normal" in2="BackgroundImageFix" result="effect1_dropShadow"/>
<feBlend mode="normal" in="SourceGraphic" in2="effect1_dropShadow" result="shape"/>
</filter>
<linearGradient id="paint0_linear" x1="117.909" y1="16" x2="117.909" y2="43.7554" gradientUnits="userSpaceOnUse">
<stop stop-color="#B0E7C6"/>
<stop offset="1" stop-color="#5DD1B3"/>
</linearGradient>
<linearGradient id="paint1_linear" x1="79.0628" y1="56.8979" x2="79.0628" y2="84.4167" gradientUnits="userSpaceOnUse">
<stop stop-color="#FFED49"/>
<stop offset="1" stop-color="#FFC369"/>
</linearGradient>
</defs>
</svg>
