<svg fill="none" height="395" viewBox="0 0 528 395" width="528" xmlns="http://www.w3.org/2000/svg" xmlns:xlink="http://www.w3.org/1999/xlink"><filter id="a" color-interpolation-filters="sRGB" filterUnits="userSpaceOnUse" height="250" width="214" x="67" y="0"><feFlood flood-opacity="0" result="BackgroundImageFix"/><feColorMatrix in="SourceAlpha" result="hardAlpha" type="matrix" values="0 0 0 0 0 0 0 0 0 0 0 0 0 0 0 0 0 0 127 0"/><feOffset dx="13" dy="25"/><feGaussianBlur stdDeviation="17.5"/><feColorMatrix type="matrix" values="0 0 0 0 0 0 0 0 0 0.351917 0 0 0 0 0.429167 0 0 0 0.15 0"/><feBlend in2="BackgroundImageFix" mode="normal" result="effect1_dropShadow"/><feBlend in="SourceGraphic" in2="effect1_dropShadow" mode="normal" result="shape"/></filter><filter id="b" color-interpolation-filters="sRGB" filterUnits="userSpaceOnUse" height="274" width="450" x="57" y="48"><feFlood flood-opacity="0" result="BackgroundImageFix"/><feColorMatrix in="SourceAlpha" result="hardAlpha" type="matrix" values="0 0 0 0 0 0 0 0 0 0 0 0 0 0 0 0 0 0 127 0"/><feOffset dx="8" dy="12"/><feGaussianBlur stdDeviation="7.5"/><feColorMatrix type="matrix" values="0 0 0 0 0.466875 0 0 0 0 0.610742 0 0 0 0 0.691667 0 0 0 0.25 0"/><feBlend in2="BackgroundImageFix" mode="normal" result="effect1_dropShadow"/><feBlend in="SourceGraphic" in2="effect1_dropShadow" mode="normal" result="shape"/></filter><filter id="c" color-interpolation-filters="sRGB" filterUnits="userSpaceOnUse" height="263" width="414" x="80" y="132"><feFlood flood-opacity="0" result="BackgroundImageFix"/><feColorMatrix in="SourceAlpha" result="hardAlpha" type="matrix" values="0 0 0 0 0 0 0 0 0 0 0 0 0 0 0 0 0 0 127 0"/><feOffset dx="13" dy="25"/><feGaussianBlur stdDeviation="17.5"/><feColorMatrix type="matrix" values="0 0 0 0 0 0 0 0 0 0.351917 0 0 0 0 0.429167 0 0 0 0.15 0"/><feBlend in2="BackgroundImageFix" mode="normal" result="effect1_dropShadow"/><feBlend in="SourceGraphic" in2="effect1_dropShadow" mode="normal" result="shape"/></filter><filter id="d" color-interpolation-filters="sRGB" filterUnits="userSpaceOnUse" height="60.0472" width="60.0472" x="175" y="266.981"><feFlood flood-opacity="0" result="BackgroundImageFix"/><feColorMatrix in="SourceAlpha" result="hardAlpha" type="matrix" values="0 0 0 0 0 0 0 0 0 0 0 0 0 0 0 0 0 0 127 0"/><feOffset dx="8" dy="12"/><feGaussianBlur stdDeviation="7.5"/><feColorMatrix type="matrix" values="0 0 0 0 0.466875 0 0 0 0 0.610742 0 0 0 0 0.691667 0 0 0 0.25 0"/><feBlend in2="BackgroundImageFix" mode="normal" result="effect1_dropShadow"/><feBlend in="SourceGraphic" in2="effect1_dropShadow" mode="normal" result="shape"/></filter><filter id="e" color-interpolation-filters="sRGB" filterUnits="userSpaceOnUse" height="60.0472" width="60.0472" x="225.651" y="266.981"><feFlood flood-opacity="0" result="BackgroundImageFix"/><feColorMatrix in="SourceAlpha" result="hardAlpha" type="matrix" values="0 0 0 0 0 0 0 0 0 0 0 0 0 0 0 0 0 0 127 0"/><feOffset dx="8" dy="12"/><feGaussianBlur stdDeviation="7.5"/><feColorMatrix type="matrix" values="0 0 0 0 0.466875 0 0 0 0 0.610742 0 0 0 0 0.691667 0 0 0 0.25 0"/><feBlend in2="BackgroundImageFix" mode="normal" result="effect1_dropShadow"/><feBlend in="SourceGraphic" in2="effect1_dropShadow" mode="normal" result="shape"/></filter><filter id="f" color-interpolation-filters="sRGB" filterUnits="userSpaceOnUse" height="60.0472" width="60.0472" x="276.302" y="266.981"><feFlood flood-opacity="0" result="BackgroundImageFix"/><feColorMatrix in="SourceAlpha" result="hardAlpha" type="matrix" values="0 0 0 0 0 0 0 0 0 0 0 0 0 0 0 0 0 0 127 0"/><feOffset dx="8" dy="12"/><feGaussianBlur stdDeviation="7.5"/><feColorMatrix type="matrix" values="0 0 0 0 0.466875 0 0 0 0 0.610742 0 0 0 0 0.691667 0 0 0 0.25 0"/><feBlend in2="BackgroundImageFix" mode="normal" result="effect1_dropShadow"/><feBlend in="SourceGraphic" in2="effect1_dropShadow" mode="normal" result="shape"/></filter><filter id="g" color-interpolation-filters="sRGB" filterUnits="userSpaceOnUse" height="60.0472" width="60.0472" x="326.953" y="266.981"><feFlood flood-opacity="0" result="BackgroundImageFix"/><feColorMatrix in="SourceAlpha" result="hardAlpha" type="matrix" values="0 0 0 0 0 0 0 0 0 0 0 0 0 0 0 0 0 0 127 0"/><feOffset dx="8" dy="12"/><feGaussianBlur stdDeviation="7.5"/><feColorMatrix type="matrix" values="0 0 0 0 0.466875 0 0 0 0 0.610742 0 0 0 0 0.691667 0 0 0 0.25 0"/><feBlend in2="BackgroundImageFix" mode="normal" result="effect1_dropShadow"/><feBlend in="SourceGraphic" in2="effect1_dropShadow" mode="normal" result="shape"/></filter><filter id="h" color-interpolation-filters="sRGB" filterUnits="userSpaceOnUse" height="139" width="139" x="0" y="62"><feFlood flood-opacity="0" result="BackgroundImageFix"/><feColorMatrix in="SourceAlpha" result="hardAlpha" type="matrix" values="0 0 0 0 0 0 0 0 0 0 0 0 0 0 0 0 0 0 127 0"/><feOffset dx="2" dy="8"/><feGaussianBlur stdDeviation="17.5"/><feColorMatrix type="matrix" values="0 0 0 0 0 0 0 0 0 0.351917 0 0 0 0 0.429167 0 0 0 0.15 0"/><feBlend in2="BackgroundImageFix" mode="normal" result="effect1_dropShadow"/><feBlend in="SourceGraphic" in2="effect1_dropShadow" mode="normal" result="shape"/></filter><filter id="i" color-interpolation-filters="sRGB" filterUnits="userSpaceOnUse" height="85.7143" width="86.5714" x="441" y="77"><feFlood flood-opacity="0" result="BackgroundImageFix"/><feColorMatrix in="SourceAlpha" result="hardAlpha" type="matrix" values="0 0 0 0 0 0 0 0 0 0 0 0 0 0 0 0 0 0 127 0"/><feOffset dy="9"/><feGaussianBlur stdDeviation="15"/><feColorMatrix type="matrix" values="0 0 0 0 0.593438 0 0 0 0 0.707729 0 0 0 0 0.879167 0 0 0 0.25 0"/><feBlend in2="BackgroundImageFix" mode="normal" result="effect1_dropShadow"/><feBlend in="SourceGraphic" in2="effect1_dropShadow" mode="normal" result="shape"/></filter><linearGradient id="j" gradientUnits="userSpaceOnUse" x1="34.5" x2="34.5" y1="0" y2="69"><stop offset="0" stop-color="#b0e7c6"/><stop offset="1" stop-color="#5dd1b3"/></linearGradient><linearGradient id="k" gradientUnits="userSpaceOnUse" x1="13.2857" x2="13.2857" y1="6.2829" y2="25.7143"><stop offset="0" stop-color="#ffed49"/><stop offset="1" stop-color="#ffc369"/></linearGradient><g filter="url(#a)"><rect fill="#e4f2fa" height="180" rx="15" width="144" x="89" y="10"/></g><g filter="url(#b)"><rect fill="#fff" height="244" rx="15" width="420" x="64" y="51"/></g><path d="m122.45 36h-1.162v-8.9619h-3.165v-1.0322h7.492v1.0322h-3.165zm7.923-7.6289c.333 0 .631.0273.896.082l-.158 1.0528c-.31-.0684-.583-.1026-.82-.1026-.606 0-1.126.2461-1.559.7383-.428.4922-.642 1.1051-.642 1.8389v4.0195h-1.135v-7.4922h.937l.129 1.3877h.055c.278-.4876.613-.8636 1.005-1.1279s.823-.3965 1.292-.3965zm6.904 7.6289-.225-1.0664h-.055c-.374.4694-.747.7884-1.121.957-.369.1641-.832.2461-1.388.2461-.743 0-1.326-.1914-1.75-.5742-.419-.3828-.629-.9274-.629-1.6338 0-1.513 1.21-2.306 3.63-2.3789l1.272-.041v-.4649c0-.5878-.128-1.0208-.383-1.2988-.251-.2825-.654-.4238-1.21-.4238-.624 0-1.331.1914-2.119.5742l-.349-.8682c.369-.2005.773-.3577 1.21-.4716.442-.114.884-.1709 1.326-.1709.894 0 1.554.1982 1.983.5947.433.3965.649 1.0322.649 1.9072v5.1133zm-2.563-.7998c.706 0 1.26-.1937 1.661-.5811.406-.3873.608-.9296.608-1.6269v-.6768l-1.134.0479c-.903.0319-1.554.1732-1.955.4238-.397.2461-.595.6312-.595 1.1553 0 .4101.123.7223.369.9365.251.2142.599.3213 1.046.3213zm10.876.7998v-4.8467c0-.6107-.139-1.0664-.417-1.3672-.278-.3007-.713-.4511-1.306-.4511-.784 0-1.358.2119-1.722.6357-.365.4238-.547 1.1234-.547 2.0986v3.9307h-1.135v-7.4922h.923l.184 1.0254h.055c.232-.3691.558-.654.978-.8545.419-.2051.886-.3076 1.401-.3076.902 0 1.581.2187 2.037.6562.456.433.684 1.128.684 2.085v4.8877zm8.306-2.0439c0 .6972-.26 1.235-.78 1.6132-.519.3783-1.248.5674-2.187.5674-.994 0-1.769-.1572-2.325-.4717v-1.0527c.361.1823.746.3259 1.156.4307.414.1048.813.1572 1.196.1572.593 0 1.048-.0934 1.367-.2803.319-.1914.479-.4808.479-.8681 0-.2917-.128-.5401-.383-.7452-.251-.2096-.743-.4557-1.477-.7382-.697-.2598-1.194-.4854-1.49-.6768-.292-.196-.51-.417-.656-.6631-.141-.2461-.212-.54-.212-.8818 0-.6107.248-1.0915.745-1.4424.497-.3555 1.178-.5332 2.044-.5332.807 0 1.595.1641 2.365.4922l-.403.9228c-.752-.3099-1.433-.4648-2.044-.4648-.538 0-.943.0843-1.217.2529-.273.1686-.41.4011-.41.6973 0 .2005.05.3714.15.5127.105.1413.272.2757.499.4033.228.1276.666.3122 1.313.5537.889.3236 1.488.6494 1.798.9776.314.3281.472.7405.472 1.2373zm2.987 2.0439h-1.135v-10.6367h1.135zm7.013 0-.225-1.0664h-.055c-.373.4694-.747.7884-1.121.957-.369.1641-.832.2461-1.388.2461-.742 0-1.326-.1914-1.75-.5742-.419-.3828-.628-.9274-.628-1.6338 0-1.513 1.209-2.306 3.629-2.3789l1.272-.041v-.4649c0-.5878-.128-1.0208-.383-1.2988-.251-.2825-.654-.4238-1.21-.4238-.624 0-1.331.1914-2.119.5742l-.349-.8682c.369-.2005.773-.3577 1.21-.4716.442-.114.884-.1709 1.326-.1709.894 0 1.555.1982 1.983.5947.433.3965.649 1.0322.649 1.9072v5.1133zm-2.563-.7998c.706 0 1.26-.1937 1.661-.5811.406-.3873.609-.9296.609-1.6269v-.6768l-1.135.0479c-.903.0319-1.554.1732-1.955.4238-.397.2461-.595.6312-.595 1.1553 0 .4101.123.7223.369.9365.251.2142.599.3213 1.046.3213zm8.169 0c.2 0 .394-.0137.581-.041.187-.0319.335-.0638.444-.0957v.8681c-.123.0593-.305.1071-.547.1436-.237.041-.451.0615-.642.0615-1.449 0-2.174-.7633-2.174-2.29v-4.4571h-1.073v-.5468l1.073-.4717.479-1.5996h.656v1.7363h2.174v.8818h-2.174v4.4092c0 .4512.107.7976.321 1.0391s.508.3623.882.3623zm5.694.9365c-1.107 0-1.982-.3372-2.625-1.0117-.638-.6745-.957-1.611-.957-2.8096 0-1.2077.296-2.167.889-2.8779.597-.7109 1.397-1.0664 2.399-1.0664.939 0 1.682.3099 2.229.9297.547.6152.82 1.4287.82 2.4404v.7178h-5.161c.023.8795.244 1.5472.663 2.0029.424.4557 1.019.6836 1.784.6836.807 0 1.604-.1686 2.393-.5059v1.0118c-.401.1731-.782.2962-1.142.3691-.355.0775-.786.1162-1.292.1162zm-.307-6.8154c-.602 0-1.083.196-1.443.5879-.355.3919-.565.9342-.629 1.6269h3.917c0-.7155-.159-1.2623-.478-1.6406-.319-.3828-.775-.5742-1.367-.5742zm12.017.0683h-1.907v6.6104h-1.135v-6.6104h-1.34v-.5126l1.34-.4102v-.417c0-1.8411.805-2.7617 2.413-2.7617.397 0 .862.0797 1.395.2392l-.294.9092c-.438-.1413-.811-.2119-1.121-.2119-.429 0-.745.1436-.95.4307-.205.2825-.308.7383-.308 1.3672v.4853h1.907zm2.502 6.6104h-1.135v-7.4922h1.135zm-1.23-9.5225c0-.2597.064-.4489.191-.5673.128-.1231.287-.1846.479-.1846.182 0 .339.0615.471.1846.132.123.199.3121.199.5673s-.067.4467-.199.5743c-.132.123-.289.1845-.471.1845-.192 0-.351-.0615-.479-.1845-.127-.1276-.191-.3191-.191-.5743zm4.771 9.5225h-1.135v-10.6367h1.135zm5.572.1367c-1.108 0-1.983-.3372-2.625-1.0117-.639-.6745-.958-1.611-.958-2.8096 0-1.2077.297-2.167.889-2.8779.597-.7109 1.397-1.0664 2.4-1.0664.938 0 1.681.3099 2.228.9297.547.6152.82 1.4287.82 2.4404v.7178h-5.161c.023.8795.244 1.5472.663 2.0029.424.4557 1.019.6836 1.785.6836.806 0 1.604-.1686 2.392-.5059v1.0118c-.401.1731-.781.2962-1.142.3691-.355.0775-.786.1162-1.291.1162zm-.308-6.8154c-.602 0-1.082.196-1.442.5879-.356.3919-.566.9342-.629 1.6269h3.917c0-.7155-.16-1.2623-.479-1.6406-.319-.3828-.775-.5742-1.367-.5742z" fill="#42556c"/><path d="m214.47 85.1504v8.3144c0 1.4649-.443 2.6163-1.327 3.4541-.885.8379-2.101 1.2569-3.648 1.2569s-2.745-.4219-3.595-1.2656c-.843-.8438-1.265-2.004-1.265-3.4805v-8.2793h1.494v8.3848c0 1.0722.293 1.8955.879 2.4697s1.447.8613 2.584.8613c1.084 0 1.919-.2871 2.505-.8613.586-.5801.879-1.4092.879-2.4873v-8.3672zm7.673 13.0254c-.627 0-1.202-.1143-1.723-.3428-.516-.2344-.949-.5918-1.301-1.0723h-.105c.07.5625.105 1.0957.105 1.5997v3.9636h-1.459v-13.9568h1.187l.202 1.3183h.07c.375-.5273.812-.9082 1.31-1.1425.498-.2344 1.069-.3516 1.714-.3516 1.277 0 2.261.4365 2.953 1.3096.697.873 1.046 2.0976 1.046 3.6738 0 1.582-.355 2.8125-1.064 3.6914-.703.8731-1.682 1.3096-2.935 1.3096zm-.211-8.7451c-.985 0-1.697.2724-2.136.8173-.44.545-.665 1.4122-.677 2.6016v.3252c0 1.3535.226 2.3232.677 2.9092.451.5801 1.175.8701 2.171.8701.832 0 1.482-.3369 1.951-1.0107.475-.6739.712-1.6026.712-2.7862 0-1.2011-.237-2.1211-.712-2.7597-.469-.6446-1.131-.9668-1.986-.9668zm8.226 8.5693h-1.459v-13.6758h1.459zm11.408-4.8252c0 1.5703-.395 2.7979-1.186 3.6826-.791.8789-1.884 1.3184-3.278 1.3184-.862 0-1.626-.2022-2.294-.6065s-1.184-.9843-1.547-1.7402c-.364-.7559-.545-1.6406-.545-2.6543 0-1.5703.392-2.792 1.178-3.665.785-.8789 1.875-1.3184 3.269-1.3184 1.348 0 2.417.4482 3.208 1.3447.797.8965 1.195 2.1094 1.195 3.6387zm-7.338 0c0 1.2305.246 2.168.738 2.8125s1.216.9668 2.171.9668 1.678-.3193 2.171-.958c.498-.6445.747-1.585.747-2.8213 0-1.2246-.249-2.1533-.747-2.7861-.493-.6387-1.222-.958-2.189-.958-.955 0-1.676.3134-2.162.9404-.486.6269-.729 1.5615-.729 2.8037zm15.829 4.8252-.29-1.3711h-.071c-.48.6035-.961 1.0137-1.441 1.2305-.475.2109-1.069.3164-1.784.3164-.955 0-1.705-.2461-2.25-.7383-.539-.4922-.809-1.1924-.809-2.1006 0-1.9453 1.556-2.9648 4.667-3.0586l1.635-.0527v-.5977c0-.7558-.164-1.3125-.492-1.6699-.323-.3633-.841-.5449-1.556-.5449-.803 0-1.711.2461-2.725.7383l-.448-1.1162c.475-.2579.993-.46 1.556-.6065.568-.1465 1.137-.2197 1.705-.2197 1.148 0 1.998.2549 2.549.7646.556.5098.835 1.3272.835 2.4522v6.5742zm-3.296-1.0283c.908 0 1.62-.249 2.135-.7471.522-.498.783-1.1953.783-2.0918v-.8701l-1.459.0615c-1.16.041-1.998.2227-2.514.5449-.51.3164-.765.8116-.765 1.4854 0 .5273.159.9287.475 1.2041.322.2754.771.4131 1.345.4131zm13.948-.2637h-.079c-.674.9785-1.682 1.4678-3.024 1.4678-1.259 0-2.241-.4307-2.944-1.292-.697-.8613-1.046-2.0859-1.046-3.6738s.352-2.8213 1.055-3.7002 1.682-1.3184 2.935-1.3184c1.307 0 2.309.4746 3.006 1.4238h.115l-.062-.6943-.035-.6768v-3.9199h1.459v13.6758h-1.187zm-2.918.2461c.996 0 1.717-.2695 2.162-.8086.451-.5449.677-1.4209.677-2.6279v-.3076c0-1.3653-.229-2.3379-.686-2.918-.451-.5859-1.174-.8789-2.171-.8789-.855 0-1.511.334-1.968 1.0019-.451.6621-.677 1.5996-.677 2.8125 0 1.2305.226 2.1592.677 2.7862.451.6269 1.113.9404 1.986.9404zm10.547-8.5869h1.564l2.11 5.4932c.463 1.2539.75 2.1591.861 2.7158h.07c.077-.2989.235-.8086.475-1.5293.246-.7266 1.043-2.9531 2.391-6.6797h1.564l-4.14 10.9687c-.41 1.0841-.89 1.8521-1.441 2.3031-.545.457-1.216.685-2.013.685-.445 0-.884-.05-1.318-.149v-1.169c.322.07.683.105 1.081.105 1.002 0 1.717-.562 2.145-1.6872l.536-1.3711zm18.914 4.8076c0 1.5703-.396 2.7979-1.187 3.6826-.791.8789-1.883 1.3184-3.278 1.3184-.861 0-1.626-.2022-2.294-.6065s-1.183-.9843-1.547-1.7402c-.363-.7559-.545-1.6406-.545-2.6543 0-1.5703.393-2.792 1.178-3.665.785-.8789 1.875-1.3184 3.27-1.3184 1.347 0 2.417.4482 3.208 1.3447.797.8965 1.195 2.1094 1.195 3.6387zm-7.339 0c0 1.2305.246 2.168.738 2.8125.493.6445 1.216.9668 2.171.9668s1.679-.3193 2.171-.958c.498-.6445.747-1.585.747-2.8213 0-1.2246-.249-2.1533-.747-2.7861-.492-.6387-1.222-.958-2.188-.958-.955 0-1.676.3134-2.162.9404-.487.6269-.73 1.5615-.73 2.8037zm11.276-4.8076v6.249c0 .7852.179 1.3711.537 1.7578.357.3867.917.5801 1.678.5801 1.008 0 1.743-.2754 2.206-.8262.469-.5508.703-1.4502.703-2.6982v-5.0625h1.459v9.6328h-1.204l-.211-1.292h-.079c-.299.4746-.715.8379-1.248 1.0899-.527.2519-1.131.3779-1.81.3779-1.172 0-2.051-.2783-2.637-.835-.58-.5566-.87-1.4472-.87-2.6719v-6.3017zm14.081-.1758c.427 0 .811.0352 1.151.1055l-.202 1.3535c-.399-.0879-.75-.1318-1.055-.1318-.779 0-1.447.3164-2.004.9492-.551.6328-.826 1.4209-.826 2.3642v5.168h-1.459v-9.6328h1.204l.167 1.7842h.07c.358-.627.788-1.1104 1.292-1.4502.504-.3399 1.058-.5098 1.662-.5098zm11.97 1.3096h-2.452v8.499h-1.459v-8.499h-1.723v-.6592l1.723-.5273v-.5362c0-2.3672 1.034-3.5508 3.103-3.5508.509 0 1.107.1026 1.793.3077l-.378 1.1689c-.563-.1816-1.043-.2725-1.442-.2725-.551 0-.958.1846-1.221.5538-.264.3632-.396.9492-.396 1.7578v.624h2.452zm3.217 8.499h-1.459v-9.6328h1.459zm-1.582-12.2432c0-.3339.082-.5771.246-.7295.164-.1582.369-.2373.615-.2373.235 0 .437.0791.607.2373s.255.4014.255.7295c0 .3282-.085.5743-.255.7383-.17.1582-.372.2373-.607.2373-.246 0-.451-.0791-.615-.2373-.164-.164-.246-.4101-.246-.7383zm6.135 12.2432h-1.459v-13.6758h1.459zm7.163.1758c-1.424 0-2.549-.4336-3.375-1.3008-.82-.8672-1.231-2.0713-1.231-3.6123 0-1.5527.381-2.7861 1.143-3.7002.768-.9141 1.796-1.3711 3.085-1.3711 1.207 0 2.162.3984 2.865 1.1953.703.791 1.055 1.8369 1.055 3.1377v.9229h-6.636c.029 1.1308.314 1.9892.853 2.5752.545.5859 1.309.8789 2.294.8789 1.037 0 2.062-.2168 3.076-.6504v1.3008c-.516.2226-1.005.3808-1.468.4746-.457.0996-1.011.1494-1.661.1494zm-.396-8.7627c-.773 0-1.391.2519-1.854.7558-.457.504-.727 1.2012-.809 2.0918h5.036c0-.9199-.205-1.623-.615-2.1093-.41-.4922-.996-.7383-1.758-.7383zm12.648 5.959c0 .8965-.334 1.5879-1.002 2.0742s-1.606.7295-2.813.7295c-1.277 0-2.273-.2022-2.988-.6065v-1.3535c.463.2344.958.419 1.485.5537.534.1348 1.046.2022 1.539.2022.761 0 1.347-.1201 1.757-.3604.41-.2461.616-.6181.616-1.1162 0-.375-.165-.6943-.493-.958-.322-.2695-.955-.5859-1.898-.9492-.897-.334-1.535-.624-1.916-.8701-.375-.252-.656-.5362-.844-.8526-.181-.3164-.272-.6943-.272-1.1338 0-.7851.319-1.4033.958-1.8544.638-.4571 1.514-.6856 2.628-.6856 1.037 0 2.05.2109 3.041.6328l-.519 1.1865c-.967-.3984-1.843-.5976-2.628-.5976-.691 0-1.213.1084-1.564.3252-.352.2168-.528.5156-.528.8965 0 .2578.065.4775.194.6591.134.1817.348.3545.641.5186s.856.4014 1.688.7119c1.142.416 1.913.835 2.311 1.2568.405.4219.607.9522.607 1.5909z" fill="#42556c"/><path d="m223.68 116.362c0 1.179-.321 2.08-.962 2.705-.638.622-1.558.933-2.759.933h-1.978v-7.139h2.188c1.11 0 1.973.308 2.588.923s.923 1.475.923 2.578zm-.879.03c0-.931-.235-1.633-.703-2.105-.466-.472-1.159-.708-2.08-.708h-1.206v5.703h1.01c.99 0 1.734-.242 2.232-.727.498-.489.747-1.21.747-2.163zm4.795-1.841c.237 0 .451.019.639.058l-.112.752c-.221-.049-.417-.073-.586-.073-.433 0-.804.176-1.113.527-.306.352-.459.79-.459 1.314v2.871h-.811v-5.352h.669l.093.992h.039c.199-.349.438-.617.718-.806s.587-.283.923-.283zm4.931 5.449-.161-.762h-.039c-.267.336-.534.563-.801.684-.263.117-.594.176-.991.176-.53 0-.947-.137-1.25-.41-.299-.274-.449-.663-.449-1.167 0-1.081.864-1.648 2.593-1.7l.908-.029v-.332c0-.42-.091-.729-.274-.928-.179-.202-.467-.303-.864-.303-.446 0-.95.137-1.513.411l-.249-.62c.263-.144.551-.256.864-.337.316-.082.631-.122.947-.122.638 0 1.11.141 1.416.424.309.284.464.738.464 1.363v3.652zm-1.831-.571c.505 0 .9-.139 1.187-.415.29-.277.434-.664.434-1.162v-.484l-.81.034c-.645.023-1.11.124-1.397.303-.283.176-.424.451-.424.825 0 .293.087.516.263.669.179.153.428.23.747.23zm8.487-4.781v.513l-.992.117c.092.114.173.264.245.45.071.182.107.389.107.62 0 .524-.179.942-.537 1.255-.358.312-.85.468-1.475.468-.159 0-.309-.013-.449-.039-.345.183-.518.412-.518.689 0 .146.061.255.181.327.121.068.327.102.62.102h.947c.58 0 1.024.122 1.334.367.312.244.468.599.468 1.064 0 .593-.237 1.043-.713 1.353-.475.312-1.168.468-2.08.468-.7 0-1.24-.13-1.621-.39-.377-.261-.566-.629-.566-1.104 0-.325.104-.607.312-.845.209-.237.502-.398.879-.483-.137-.062-.252-.158-.346-.288-.092-.13-.137-.282-.137-.454 0-.195.052-.366.156-.513.104-.146.269-.288.493-.425-.276-.114-.503-.307-.679-.581-.172-.273-.258-.586-.258-.937 0-.586.175-1.037.527-1.353.352-.319.85-.478 1.494-.478.28 0 .532.032.757.097zm-4.268 6.25c0 .29.122.51.366.66.244.149.594.224 1.05.224.68 0 1.183-.102 1.509-.307.329-.202.493-.477.493-.826 0-.289-.09-.491-.269-.605-.179-.111-.515-.166-1.01-.166h-.972c-.368 0-.654.088-.859.264-.205.175-.308.428-.308.756zm.439-4.536c0 .375.106.658.318.85.211.192.506.288.884.288.791 0 1.186-.384 1.186-1.152 0-.804-.4-1.206-1.201-1.206-.381 0-.674.102-.879.307s-.308.51-.308.913zm10.816 3.638-.161-.762h-.039c-.267.336-.534.563-.801.684-.264.117-.594.176-.991.176-.531 0-.948-.137-1.25-.41-.3-.274-.449-.663-.449-1.167 0-1.081.864-1.648 2.592-1.7l.908-.029v-.332c0-.42-.091-.729-.273-.928-.179-.202-.467-.303-.864-.303-.446 0-.951.137-1.514.411l-.249-.62c.264-.144.552-.256.864-.337.316-.082.632-.122.948-.122.638 0 1.11.141 1.416.424.309.284.464.738.464 1.363v3.652zm-1.831-.571c.504 0 .9-.139 1.186-.415.29-.277.435-.664.435-1.162v-.484l-.811.034c-.644.023-1.11.124-1.396.303-.283.176-.425.451-.425.825 0 .293.088.516.264.669.179.153.428.23.747.23zm7.768.571v-3.462c0-.436-.099-.762-.297-.976-.199-.215-.51-.323-.933-.323-.56 0-.97.152-1.231.454-.26.303-.39.803-.39 1.499v2.808h-.811v-5.352h.659l.132.733h.039c.166-.264.399-.467.699-.61.299-.147.633-.22 1.001-.22.644 0 1.129.156 1.455.469.325.309.488.805.488 1.489v3.491zm6.123-.718h-.043c-.375.544-.935.816-1.68.816-.7 0-1.245-.24-1.636-.718-.387-.479-.581-1.159-.581-2.041s.195-1.568.586-2.056.934-.732 1.631-.732c.726 0 1.282.263 1.67.791h.063l-.034-.386-.019-.376v-2.178h.81v7.598h-.659zm-1.621.137c.554 0 .954-.15 1.202-.449.25-.303.376-.79.376-1.46v-.171c0-.759-.127-1.299-.381-1.621-.251-.326-.653-.489-1.206-.489-.476 0-.84.186-1.094.557-.251.368-.376.889-.376 1.563 0 .683.125 1.199.376 1.547.251.349.618.523 1.103.523zm10.352-.137h-.044c-.374.544-.934.816-1.68.816-.7 0-1.245-.24-1.635-.718-.388-.479-.581-1.159-.581-2.041s.195-1.568.585-2.056c.391-.488.935-.732 1.631-.732.726 0 1.283.263 1.67.791h.064l-.034-.386-.02-.376v-2.178h.811v7.598h-.66zm-1.621.137c.553 0 .954-.15 1.201-.449.251-.303.376-.79.376-1.46v-.171c0-.759-.127-1.299-.381-1.621-.251-.326-.653-.489-1.206-.489-.475 0-.84.186-1.094.557-.25.368-.376.889-.376 1.563 0 .683.126 1.199.376 1.547.251.349.619.523 1.104.523zm6.553-4.868c.237 0 .45.019.639.058l-.112.752c-.221-.049-.417-.073-.586-.073-.433 0-.804.176-1.113.527-.306.352-.459.79-.459 1.314v2.871h-.811v-5.352h.669l.093.992h.039c.199-.349.438-.617.718-.806s.587-.283.923-.283zm6.259 2.768c0 .873-.219 1.555-.659 2.046-.439.489-1.046.733-1.821.733-.479 0-.903-.113-1.275-.337-.371-.225-.657-.547-.859-.967s-.303-.912-.303-1.475c0-.872.218-1.551.655-2.036.436-.488 1.041-.732 1.816-.732.749 0 1.343.249 1.782.747.443.498.664 1.172.664 2.021zm-4.077 0c0 .684.137 1.205.41 1.563.274.358.676.537 1.206.537.531 0 .933-.177 1.206-.532.277-.358.415-.881.415-1.568 0-.68-.138-1.196-.415-1.548-.273-.354-.678-.532-1.215-.532-.531 0-.931.174-1.202.523-.27.348-.405.867-.405 1.557zm7.993 2.779c-.348 0-.667-.064-.957-.191-.286-.13-.527-.329-.722-.595h-.059c.039.312.059.608.059.888v2.202h-.811v-7.754h.659l.113.733h.039c.208-.293.451-.505.727-.635.277-.13.594-.195.952-.195.71 0 1.257.242 1.641.727.387.485.581 1.166.581 2.041 0 .879-.197 1.563-.591 2.051-.39.485-.934.728-1.631.728zm-.117-4.859c-.547 0-.942.152-1.186.454-.244.303-.37.785-.376 1.446v.18c0 .752.125 1.291.376 1.617.25.322.652.483 1.206.483.462 0 .823-.187 1.084-.562.263-.374.395-.89.395-1.547 0-.668-.132-1.179-.395-1.534-.261-.358-.629-.537-1.104-.537zm8.086 4.19c.143 0 .282-.01.415-.03.134-.022.239-.045.318-.068v.62c-.088.042-.219.077-.391.103-.169.029-.322.044-.459.044-1.035 0-1.553-.546-1.553-1.636v-3.184h-.766v-.39l.766-.337.342-1.143h.469v1.24h1.552v.63h-1.552v3.15c0 .322.076.569.229.742.153.172.363.259.63.259zm6.426-2.11c0 .873-.22 1.555-.659 2.046-.44.489-1.047.733-1.822.733-.478 0-.903-.113-1.274-.337-.371-.225-.658-.547-.859-.967-.202-.42-.303-.912-.303-1.475 0-.872.218-1.551.654-2.036.436-.488 1.042-.732 1.817-.732.748 0 1.342.249 1.782.747.443.498.664 1.172.664 2.021zm-4.077 0c0 .684.136 1.205.41 1.563.273.358.675.537 1.206.537s.933-.177 1.206-.532c.277-.358.415-.881.415-1.568 0-.68-.138-1.196-.415-1.548-.273-.354-.679-.532-1.216-.532-.53 0-.931.174-1.201.523-.27.348-.405.867-.405 1.557zm8.862-2.671v3.472c0 .436.099.762.298.977.198.215.509.322.933.322.559 0 .968-.153 1.225-.459.261-.306.391-.806.391-1.499v-2.813h.81v5.352h-.669l-.117-.718h-.044c-.166.264-.397.466-.693.606-.293.14-.628.21-1.006.21-.651 0-1.139-.155-1.465-.464-.322-.309-.483-.804-.483-1.485v-3.501zm7.871 5.45c-.348 0-.667-.064-.957-.191-.286-.13-.527-.329-.723-.595h-.058c.039.312.058.608.058.888v2.202h-.81v-7.754h.659l.112.733h.039c.209-.293.451-.505.728-.635s.594-.195.952-.195c.71 0 1.257.242 1.641.727.387.485.581 1.166.581 2.041 0 .879-.197 1.563-.591 2.051-.391.485-.934.728-1.631.728zm-.117-4.859c-.547 0-.942.152-1.187.454-.244.303-.369.785-.376 1.446v.18c0 .752.126 1.291.376 1.617.251.322.653.483 1.206.483.463 0 .824-.187 1.084-.562.264-.374.396-.89.396-1.547 0-.668-.132-1.179-.396-1.534-.26-.358-.628-.537-1.103-.537zm4.57 4.761h-.81v-7.598h.81zm6.338-2.681c0 .873-.22 1.555-.659 2.046-.439.489-1.047.733-1.821.733-.479 0-.904-.113-1.275-.337-.371-.225-.657-.547-.859-.967s-.303-.912-.303-1.475c0-.872.218-1.551.654-2.036.437-.488 1.042-.732 1.817-.732.749 0 1.343.249 1.782.747.443.498.664 1.172.664 2.021zm-4.077 0c0 .684.137 1.205.41 1.563.274.358.676.537 1.206.537.531 0 .933-.177 1.206-.532.277-.358.415-.881.415-1.568 0-.68-.138-1.196-.415-1.548-.273-.354-.678-.532-1.216-.532-.53 0-.931.174-1.201.523-.27.348-.405.867-.405 1.557zm8.794 2.681-.161-.762h-.039c-.267.336-.534.563-.801.684-.264.117-.594.176-.991.176-.531 0-.947-.137-1.25-.41-.3-.274-.449-.663-.449-1.167 0-1.081.864-1.648 2.592-1.7l.909-.029v-.332c0-.42-.092-.729-.274-.928-.179-.202-.467-.303-.864-.303-.446 0-.951.137-1.514.411l-.249-.62c.264-.144.552-.256.864-.337.316-.082.632-.122.948-.122.638 0 1.11.141 1.416.424.309.284.464.738.464 1.363v3.652zm-1.831-.571c.504 0 .9-.139 1.186-.415.29-.277.435-.664.435-1.162v-.484l-.811.034c-.644.023-1.11.124-1.396.303-.283.176-.425.451-.425.825 0 .293.088.516.264.669.179.153.428.23.747.23zm7.749-.147h-.044c-.374.544-.934.816-1.68.816-.7 0-1.245-.24-1.635-.718-.388-.479-.582-1.159-.582-2.041s.196-1.568.586-2.056c.391-.488.935-.732 1.631-.732.726 0 1.283.263 1.67.791h.064l-.034-.386-.02-.376v-2.178h.811v7.598h-.66zm-1.621.137c.553 0 .954-.15 1.201-.449.251-.303.376-.79.376-1.46v-.171c0-.759-.127-1.299-.381-1.621-.251-.326-.653-.489-1.206-.489-.475 0-.84.186-1.094.557-.25.368-.376.889-.376 1.563 0 .683.126 1.199.376 1.547.251.349.619.523 1.104.523z" fill="#94aac5"/><g filter="url(#c)"><rect fill="#f7fbfd" height="193" rx="25" width="344" x="102" y="142"/></g><path clip-rule="evenodd" d="m291.401 184.013c3.813 3.487 6.306 8.081 7.153 13.116 8.538 2.249 14.779 10.38 14.795 19.521 0 5.051-1.874 9.907-5.312 13.687-3.454 3.813-8.098 6.094-13.068 6.452h-.163-8.831c-1.222 0-2.2-.977-2.2-2.199s.978-2.2 2.2-2.2h8.75c7.854-.603 14.225-7.642 14.225-15.74 0-7.642-5.475-14.339-12.726-15.577-.978-.163-1.727-.962-1.825-1.956-.913-9.548-8.848-16.75-18.461-16.75-7.154 0-13.736 4.171-16.783 10.64-.489 1.026-1.679 1.515-2.754 1.124-.88-.326-1.825-.489-2.786-.489-4.498 0-8.164 3.667-8.164 8.164 0 .994.163 1.923.489 2.802.358 1.011-.033 2.135-.961 2.673-3.992 2.33-6.469 6.631-6.469 11.243 0 7.137 5.605 13.475 12.269 13.882h10.689c1.222 0 2.2.978 2.2 2.2s-.978 2.2-2.2 2.2h-10.754-.13c-4.432-.245-8.587-2.347-11.732-5.899-3.063-3.47-4.742-7.854-4.742-12.367 0-5.589 2.721-10.836 7.202-14.095-.163-.847-.26-1.71-.26-2.607 0-6.925 5.637-12.562 12.563-12.562.814 0 1.629.081 2.411.228 1.809-3.161 4.367-5.85 7.447-7.838 3.698-2.395 8.016-3.666 12.448-3.666 5.736 0 11.243 2.135 15.48 6.013zm-4.465 26.918c.864.863.864 2.248 0 3.112-.863.863-2.248.863-3.096 0l-7.902-7.903v36.32c0 1.222-.978 2.2-2.2 2.2s-2.2-.978-2.2-2.2v-36.32l-7.903 7.903c-.423.44-.993.652-1.547.652s-1.125-.229-1.548-.652c-.864-.864-.864-2.249 0-3.112l11.65-11.651c.407-.423.978-.652 1.548-.652s1.14.245 1.548.652z" fill="#5183bb" fill-rule="evenodd"/><g filter="url(#d)"><rect fill="#fff" height="30.0472" rx="15.0236" width="30.0472" x="182" y="269.981"/></g><g filter="url(#e)"><rect fill="#fff" height="30.0472" rx="15.0236" width="30.0472" x="232.651" y="269.981"/></g><g filter="url(#f)"><rect fill="#fff" height="30.0472" rx="15.0236" width="30.0472" x="283.302" y="269.981"/></g><g filter="url(#g)"><rect fill="#fff" height="30.0472" rx="15.0236" width="30.0472" x="333.953" y="269.981"/></g><path d="m262.384 285.004c0 4.831-2.281 9.13-5.824 11.878-2.542 1.972-5.734 3.146-9.2 3.146-3.435 0-6.601-1.153-9.131-3.093-3.583-2.745-5.893-7.069-5.893-11.931 0-8.297 6.727-15.023 15.024-15.023s15.024 6.726 15.024 15.023z" fill="#fff"/><path clip-rule="evenodd" d="m249.588 292.314-.01-.001c0 .812-.715 1.437-1.52 1.329l-7.411-.999c-.992-.134-1.732-.981-1.732-1.982v-11.421c0-1.004.744-1.852 1.739-1.983l7.449-.978c.781-.103 1.475.506 1.475 1.294l.017-.001c.018-.001.036-.003.055-.003h5.463c.639 0 1.159.512 1.159 1.141v12.466c0 .629-.52 1.14-1.159 1.14h-5.463c-.021 0-.041-.001-.062-.002zm1.758-5.28h-1.768v.652h1.768zm-1.768-.082v-.664h1.768v.664zm0-1.507v.762h1.768v-.762zm0-.081v-.853h1.768v.853zm0-1.735v.812h1.768v-.812zm0-.07v-.812h1.733.035v.812zm5.535-5.339h-5.463c-.025 0-.048.004-.072.007v3.568h1.733 2.028.071 2.028v.801h.004v5.159h-4.025-1.839v3.901c.024.004.047.008.072.008h5.463c.274 0 .497-.22.497-.489v-12.466c0-.269-.223-.489-.497-.489zm.246 4.527v4.927h-.773v-4.69h-.531v4.69h-.442v-4.208h-.53v4.208h-.39v-3.732h-.53v3.732h-.746v-3.163-.07-.812-.07-.812h1.922.071zm-1.949-.882v.813h1.949v-.082h.008v-.731zm-.071.813h-1.922-.035v-.813h1.957zm-11.12 3.052c-.145.059-.391.105-.61.101-.641-.01-1.012-.436-1.012-1.101 0-.74.437-1.107 1.007-1.117.258-.004.465.053.615.116l.151-.614c-.132-.068-.421-.142-.799-.132-.956.025-1.704.669-1.704 1.79 0 .936.546 1.658 1.633 1.686.391.011.695-.057.831-.124zm1.426.786c-.387-.011-.765-.122-.952-.234l.153-.639c.203.11.517.223.844.228.356.006.546-.142.546-.37 0-.219-.164-.345-.576-.497-.561-.202-.923-.519-.923-1.018 0-.585.476-1.046 1.279-1.067.391-.01.681.066.89.156l-.178.649c-.14-.066-.389-.161-.727-.156-.336.005-.497.163-.497.343 0 .221.191.318.635.486.615.228.909.554.909 1.055 0 .595-.455 1.089-1.403 1.064zm2.809.02.988.025 1.301-3.703-.933.023-.485 1.578c-.129.419-.247.852-.341 1.289h-.017c-.088-.455-.204-.871-.332-1.302l-.448-1.524-.896.023z" fill="#000" fill-rule="evenodd"/><path d="m313.233 285.517c0 4.831-2.281 9.13-5.824 11.878-2.542 1.972-5.733 3.146-9.2 3.146-3.435 0-6.6-1.153-9.131-3.093-3.583-2.745-5.892-7.068-5.892-11.931 0-8.297 6.726-15.023 15.023-15.023s15.024 6.726 15.024 15.023z" fill="#fff"/><path d="m306.916 292.039h-8.304c-.327 0-.593-.264-.593-.593 0-.328 0-11.53 0-11.857 0-.328.266-.593.593-.593h8.304c.327 0 .593.265.593.593v11.857c0 .329-.266.593-.593.593z" fill="#eceff1"/><path d="m304.662 282.449h-5.694c-.314 0-.569-.257-.569-.576s.255-.575.569-.575h5.694c.315 0 .57.258.57.575 0 .318-.255.576-.57.576z" fill="#1976d2"/><path d="m304.662 284.75h-5.694c-.314 0-.57-.256-.57-.575s.256-.576.57-.576h5.694c.314 0 .569.258.569.576s-.255.575-.569.575z" fill="#1976d2"/><path d="m304.662 287.052h-5.694c-.314 0-.57-.257-.57-.575 0-.319.256-.576.57-.576h5.694c.314 0 .569.258.569.576 0 .317-.255.575-.569.575z" fill="#1976d2"/><path d="m304.662 289.354h-5.694c-.314 0-.57-.257-.57-.576 0-.318.256-.575.57-.575h5.694c.314 0 .569.258.569.575 0 .318-.255.576-.569.576z" fill="#1976d2"/><path d="m299.324 276.831c-.135-.113-.315-.16-.486-.126l-9.447 1.765c-.279.051-.482.295-.482.577v12.941c0 .282.202.526.482.578l9.447 1.764c.037.007.073.011.109.011.137 0 .271-.047.377-.136.136-.111.214-.277.214-.452v-16.47c0-.176-.078-.34-.214-.452z" fill="#1565c0"/><path d="m296.308 288.444c-.03.271-.235.488-.496.521-.024.004-.046.005-.07.005-.235 0-.449-.152-.533-.384l-1.175-3.263-1.176 3.263c-.091.254-.33.409-.594.381-.259-.029-.466-.238-.502-.507l-.57-4.149c-.044-.323.172-.624.483-.67.312-.047.6.179.645.503l.254 1.854.925-2.572c.167-.462.9-.462 1.068 0l.872 2.421.306-2.871c.035-.325.325-.559.629-.524.313.038.537.331.503.655z" fill="#fafafa"/><path d="m363.569 285.004c0 4.831-2.28 9.13-5.823 11.878-2.542 1.972-5.734 3.146-9.2 3.146-3.436 0-6.601-1.153-9.132-3.093-3.582-2.745-5.892-7.069-5.892-11.931 0-8.297 6.726-15.023 15.024-15.023 8.297 0 15.023 6.726 15.023 15.023z" fill="#fff"/><path d="m356.923 291.096h-7.6c-.3 0-.543-.231-.543-.515 0-.285 0-10.021 0-10.306 0-.284.243-.515.543-.515h7.6c.3 0 .543.231.543.515v10.306c0 .284-.243.515-.543.515z" fill="#eceff1"/><g fill="#388e3c"><path d="m351.576 282.671h-2.237c-.309 0-.559-.229-.559-.511s.25-.51.559-.51h2.237c.309 0 .56.228.56.51s-.251.511-.56.511z"/><path d="m351.576 284.713h-2.237c-.309 0-.559-.229-.559-.511 0-.281.25-.51.559-.51h2.237c.309 0 .56.229.56.51 0 .282-.251.511-.56.511z"/><path d="m351.576 286.755h-2.237c-.309 0-.559-.229-.559-.51 0-.282.25-.511.559-.511h2.237c.309 0 .56.229.56.511 0 .281-.251.51-.56.51z"/><path d="m351.576 288.797h-2.237c-.309 0-.559-.228-.559-.51s.25-.511.559-.511h2.237c.309 0 .56.229.56.511s-.251.51-.56.51z"/><path d="m354.932 282.671h-1.119c-.309 0-.559-.229-.559-.511s.25-.51.559-.51h1.119c.309 0 .559.228.559.51s-.25.511-.559.511z"/><path d="m354.932 284.713h-1.119c-.309 0-.559-.229-.559-.511 0-.281.25-.51.559-.51h1.119c.309 0 .559.229.559.51 0 .282-.25.511-.559.511z"/><path d="m354.932 286.755h-1.119c-.309 0-.559-.229-.559-.51 0-.282.25-.511.559-.511h1.119c.309 0 .559.229.559.511 0 .281-.25.51-.559.51z"/><path d="m354.932 288.797h-1.119c-.309 0-.559-.228-.559-.51s.25-.511.559-.511h1.119c.309 0 .559.229.559.511s-.25.51-.559.51z"/></g><path d="m349.766 277.612c-.125-.098-.293-.14-.451-.109l-8.773 1.549c-.26.045-.447.258-.447.507v11.361c0 .248.187.462.447.507l8.773 1.549c.033.007.067.01.101.01.128 0 .251-.042.35-.119.126-.098.199-.245.199-.398v-14.459c0-.154-.073-.3-.199-.398z" fill="#2e7d32"/><path d="m347.466 286.841-1.665-1.863 1.684-2.119c.178-.224.136-.548-.092-.723-.229-.175-.559-.134-.739.09l-1.559 1.962-1.314-1.47c-.193-.216-.525-.236-.742-.048-.219.187-.241.513-.05.726l1.448 1.621-1.468 1.847c-.178.224-.136.548.092.723.097.073.212.108.324.108.157 0 .312-.068.416-.199l1.342-1.69 1.531 1.712c.104.118.249.177.396.177.123 0 .246-.042.346-.128.219-.187.241-.513.05-.726z" fill="#fafafa"/><path d="m212.047 285.517c0 4.831-2.28 9.13-5.823 11.878-2.542 1.972-5.734 3.146-9.2 3.146-3.436 0-6.601-1.153-9.132-3.093-3.582-2.745-5.892-7.068-5.892-11.931 0-8.297 6.726-15.023 15.024-15.023 8.297 0 15.023 6.726 15.023 15.023z" fill="#fff"/><path d="m189.631 277.171 1.39 15.453 6.241 1.717 6.239-1.716 1.392-15.454z" fill="#ff5722"/><path d="m201.879 282.224h-4.616-2.699l.175 1.942h2.524 4.442l-.524 5.82-3.918 1.076-.004.001-3.916-1.077-.273-3.044h1.918l.143 1.579 2.129.57.003-.001 2.131-.57.222-2.458h-2.353-4.272l-.516-5.732h4.788 4.786z" fill="#fafafa"/><g filter="url(#h)"><rect fill="url(#j)" height="69" rx="20" transform="matrix(-1 0 0 1 102 89)" width="69"/></g><path d="m75.7392 125.999-15.318-15.324c-.561-.446-1.4048-.02-1.4048.647v20.941c0 .468.38.849.8483.849.2206 0 .4321-.085.5532-.208l4.2439-3.7 3.4614 8.092c.0588.138.1696.247.3088.304.0679.026.1392.039.2104.039.0758 0 .1516-.016.2229-.046l3.6422-1.562c.2873-.122.4209-.455.2976-.743l-3.3506-7.836h5.6807c.4683 0 .8484-.38.8484-.849 0-.137-.035-.343-.2444-.604z" fill="#fff"/><g filter="url(#i)"><rect fill="url(#k)" height="25.7143" rx="12.8571" transform="matrix(-1 0 0 1 497.571 98)" width="26.5714"/></g></svg>