<?xml version="1.0" encoding="UTF-8"?>
<svg width="26px" height="27px" viewBox="0 0 26 27" version="1.1" xmlns="http://www.w3.org/2000/svg" xmlns:xlink="http://www.w3.org/1999/xlink">
    <!-- Generator: Sketch 52.6 (67491) - http://www.bohemiancoding.com/sketch -->
    <title>pantone-outline</title>
    <desc>Created with Sketch.</desc>
    <g id="15--Landing-page" stroke="none" stroke-width="1" fill="none" fill-rule="evenodd">
        <g id="3--Legal-Pages---how-it-works" transform="translate(-706.000000, -242.000000)" fill="#7450C8" fill-rule="nonzero">
            <g id="Group-21">
                <g id="Group-20" transform="translate(350.000000, 224.000000)">
                    <g id="Group-18" transform="translate(317.000000, 0.000000)">
                        <g id="pantone-outline" transform="translate(39.000000, 18.500000)">
                            <path d="M24.5555556,14.7044444 L18.6911111,14.7044444 L22.0133333,11.1366667 C22.5733785,10.5732792 22.5733785,9.66338743 22.0133333,9.1 L15.9611111,3.52444444 C15.6878708,3.25967122 15.3151667,3.12318803 14.9355556,3.14888889 C14.5524653,3.15811861 14.1887423,3.31919593 13.9244444,3.59666667 L11.2955556,6.48555556 L11.2955556,1.44444444 C11.2955556,0.646699806 10.6488557,0 9.85111111,0 L1.44444444,0 C0.646699806,0 0,0.646699806 0,1.44444444 L0,20.3522222 C1.28292438e-15,23.4714038 2.52859624,26 5.64777778,26 L24.5555556,26 C25.3533002,26 26,25.3533002 26,24.5555556 L26,16.1488889 C26,15.3511443 25.3533002,14.7044444 24.5555556,14.7044444 Z M15.0511111,6.63 L18.9077778,10.2266667 L11.2955556,18.4022222 L11.2955556,10.66 L15.0511111,6.63 Z M8.40666667,10.1111111 L8.40666667,14.4444444 L2.88888889,14.4444444 L2.88888889,10.1111111 L8.40666667,10.1111111 Z M8.40666667,2.88888889 L8.40666667,7.22222222 L2.88888889,7.22222222 L2.88888889,2.88888889 L8.40666667,2.88888889 Z M2.88888889,20.3522222 L2.88888889,17.3333333 L8.40666667,17.3333333 L8.40666667,20.3522222 C8.40666667,21.8759145 7.17147004,23.1111111 5.64777778,23.1111111 C4.12408552,23.1111111 2.88888889,21.8759145 2.88888889,20.3522222 Z M23.1111111,23.1111111 L10.8477778,23.1111111 L15.99,17.5933333 L23.1111111,17.5933333 L23.1111111,23.1111111 Z" id="Shape"></path>
                        </g>
                    </g>
                </g>
            </g>
        </g>
    </g>
</svg>