<?xml version="1.0" encoding="UTF-8"?>
<svg width="24px" height="30px" viewBox="0 0 24 30" version="1.1" xmlns="http://www.w3.org/2000/svg" xmlns:xlink="http://www.w3.org/1999/xlink">
    <!-- Generator: Sketch 52.6 (67491) - http://www.bohemiancoding.com/sketch -->
    <title>Shape</title>
    <desc>Created with Sketch.</desc>
    <g id="App-10--Data-Processors" stroke="none" stroke-width="1" fill="none" fill-rule="evenodd">
        <g id="3.2--Landing-page-DP" transform="translate(-1068.000000, -3740.000000)" fill="#7450C8" fill-rule="nonzero">
            <g id="Group-20" transform="translate(308.000000, 3726.000000)">
                <g id="Group-18" transform="translate(719.000000, 0.000000)">
                    <path d="M63.6706056,16.8908637 C63.3293037,16.6147729 62.8813244,16.5081112 62.4522242,16.6007729 C59.3195995,17.2572905 56.0549166,16.5907073 53.4303998,14.7586962 C52.933192,14.4137679 52.27409,14.4137679 51.7768822,14.7586962 C49.1523654,16.5907073 45.8876825,17.2572905 42.7550578,16.6007729 C42.3259577,16.5081112 41.8779784,16.6147729 41.5366764,16.8908637 C41.1958321,17.1673638 40.9985161,17.5833273 41.0000084,18.0222179 L41.0000084,28.8281007 C40.997392,33.0475087 43.0343626,37.0079846 46.4682203,39.4599291 L51.7623777,43.2311097 C52.2659235,43.5896301 52.9413585,43.5896301 53.4449044,43.2311097 L58.7390618,39.4599291 C62.1729195,37.0079846 64.20989,33.0475087 64.2072736,28.8281007 L64.2072736,18.0222179 C64.2087659,17.5833273 64.01145,17.1673638 63.6706056,16.8908637 Z M61.3063655,28.8281007 C61.3086228,32.1087083 59.7256302,35.1882503 57.056535,37.095689 L52.603641,40.2721834 L48.150747,37.095689 C45.4816518,35.1882503 43.8986592,32.1087083 43.9009166,28.8281007 L43.9009166,19.69024 C46.9416897,19.9504994 49.9870807,19.2449838 52.603641,17.6741089 C55.2202013,19.2449838 58.2655924,19.9504994 61.3063655,19.69024 L61.3063655,28.8281007 Z M54.8373403,25.5065609 L50.9356188,29.4227869 L49.6447147,28.1173782 C49.0759595,27.548623 48.1538251,27.548623 47.5850699,28.1173782 C47.0163147,28.6861334 47.0163147,29.6082678 47.5850699,30.177023 L49.9057964,32.4977495 C50.1781433,32.7723388 50.5488733,32.9267914 50.9356188,32.9267914 C51.3223643,32.9267914 51.6930944,32.7723388 51.9654412,32.4977495 L56.9550032,27.5517011 C57.5237584,26.9829459 57.5237584,26.0608116 56.9550032,25.4920564 C56.386248,24.9233012 55.4641137,24.9233012 54.8953585,25.4920564 L54.8373403,25.5065609 Z" id="Shape"></path>
                </g>
            </g>
        </g>
    </g>
</svg>