<?xml version="1.0" encoding="UTF-8"?>
<svg width="519px" height="461px" viewBox="0 0 519 461" version="1.1" xmlns="http://www.w3.org/2000/svg" xmlns:xlink="http://www.w3.org/1999/xlink">
    <!-- Generator: Sketch 52.6 (67491) - http://www.bohemiancoding.com/sketch -->
    <title>Group 8</title>
    <desc>Created with Sketch.</desc>
    <defs>
        <rect id="path-1" x="0" y="0" width="300" height="202" rx="4"></rect>
        <filter x="-4.5%" y="-6.7%" width="111.0%" height="116.3%" filterUnits="objectBoundingBox" id="filter-2">
            <feOffset dx="3" dy="3" in="SourceAlpha" result="shadowOffsetOuter1"></feOffset>
            <feGaussianBlur stdDeviation="5" in="shadowOffsetOuter1" result="shadowBlurOuter1"></feGaussianBlur>
            <feColorMatrix values="0 0 0 0 0   0 0 0 0 0   0 0 0 0 0  0 0 0 0.1 0" type="matrix" in="shadowBlurOuter1"></feColorMatrix>
        </filter>
        <rect id="path-3" x="0" y="0" width="305" height="371" rx="4"></rect>
        <filter x="-4.4%" y="-3.6%" width="110.8%" height="108.9%" filterUnits="objectBoundingBox" id="filter-4">
            <feOffset dx="3" dy="3" in="SourceAlpha" result="shadowOffsetOuter1"></feOffset>
            <feGaussianBlur stdDeviation="5" in="shadowOffsetOuter1" result="shadowBlurOuter1"></feGaussianBlur>
            <feColorMatrix values="0 0 0 0 0   0 0 0 0 0   0 0 0 0 0  0 0 0 0.1 0" type="matrix" in="shadowBlurOuter1"></feColorMatrix>
        </filter>
        <rect id="path-5" x="0" y="0" width="280" height="59" rx="4"></rect>
        <filter x="-4.8%" y="-22.9%" width="111.8%" height="155.9%" filterUnits="objectBoundingBox" id="filter-6">
            <feOffset dx="3" dy="3" in="SourceAlpha" result="shadowOffsetOuter1"></feOffset>
            <feGaussianBlur stdDeviation="5" in="shadowOffsetOuter1" result="shadowBlurOuter1"></feGaussianBlur>
            <feColorMatrix values="0 0 0 0 0   0 0 0 0 0   0 0 0 0 0  0 0 0 0.1 0" type="matrix" in="shadowBlurOuter1"></feColorMatrix>
        </filter>
        <rect id="path-7" x="0" y="0" width="280" height="59" rx="4"></rect>
        <filter x="-4.8%" y="-22.9%" width="111.8%" height="155.9%" filterUnits="objectBoundingBox" id="filter-8">
            <feOffset dx="3" dy="3" in="SourceAlpha" result="shadowOffsetOuter1"></feOffset>
            <feGaussianBlur stdDeviation="5" in="shadowOffsetOuter1" result="shadowBlurOuter1"></feGaussianBlur>
            <feColorMatrix values="0 0 0 0 0   0 0 0 0 0   0 0 0 0 0  0 0 0 0.1 0" type="matrix" in="shadowBlurOuter1"></feColorMatrix>
        </filter>
        <rect id="path-9" x="0" y="0" width="280" height="59" rx="4"></rect>
        <filter x="-4.8%" y="-22.9%" width="111.8%" height="155.9%" filterUnits="objectBoundingBox" id="filter-10">
            <feOffset dx="3" dy="3" in="SourceAlpha" result="shadowOffsetOuter1"></feOffset>
            <feGaussianBlur stdDeviation="5" in="shadowOffsetOuter1" result="shadowBlurOuter1"></feGaussianBlur>
            <feColorMatrix values="0 0 0 0 0   0 0 0 0 0   0 0 0 0 0  0 0 0 0.1 0" type="matrix" in="shadowBlurOuter1"></feColorMatrix>
        </filter>
    </defs>
    <g id="Journey-10--Data-Processors" stroke="none" stroke-width="1" fill="none" fill-rule="evenodd">
        <g id="3.2--Landing-page-DP" transform="translate(-81.000000, -6706.000000)">
            <g id="Value-proposition" transform="translate(0.000000, 6620.000000)">
                <g id="Group-8" transform="translate(88.000000, 86.000000)">
                    <g id="Group-2" transform="translate(0.000000, 12.000000)">
                        <g id="Rectangle">
                            <use fill="black" fill-opacity="1" filter="url(#filter-2)" xlink:href="#path-1"></use>
                            <use fill="#FFFFFF" fill-rule="evenodd" xlink:href="#path-1"></use>
                        </g>
                        <text id="Title-" font-family="Roboto-Bold, Roboto" font-size="14" font-weight="bold" line-spacing="19" fill="#7450C8">
                            <tspan x="19.2685547" y="37">Cookies Settings</tspan>
                        </text>
                        <text id="Text-" font-family="Roboto-Regular, Roboto" font-size="12" font-weight="normal" fill="#969696">
                            <tspan x="19" y="65">This website uses cookies to improve user </tspan>
                            <tspan x="19" y="79">experience. By using our website you consent to </tspan>
                            <tspan x="19" y="93">all cookies in accordance with our Cookie Policy.</tspan>
                        </text>
                        <g id="popup-Button-color" transform="translate(198.000000, 152.000000)">
                            <rect id="Color" fill="#7450C8" x="0" y="0" width="86" height="34" rx="17"></rect>
                            <text id="Text" font-family="Roboto-Bold, Roboto" font-size="14" font-weight="bold" line-spacing="26" fill="#FFFFFF">
                                <tspan x="34.2236328" y="17">OK</tspan>
                            </text>
                        </g>
                        <g id="Popup-Button-word" transform="translate(109.000000, 156.000000)" fill="#7450C8" font-family="Roboto-Bold, Roboto" font-size="14" font-weight="bold" line-spacing="26">
                            <text id="Text">
                                <tspan x="1.07128906" y="13">OPTIONS</tspan>
                            </text>
                        </g>
                    </g>
                    <g id="Icon-bubble" transform="translate(24.000000, 236.000000)">
                        <g id="circle">
                            <circle id="Oval" fill="#FFFFFF" cx="21" cy="21" r="21"></circle>
                            <circle id="Oval" fill-opacity="0.3" fill="#1DDCC0" cx="21" cy="21" r="21"></circle>
                        </g>
                        <g id="data-sharing" transform="translate(10.000000, 10.000000)" fill="#1DDCC0" fill-rule="nonzero">
                            <path d="M19.52,2.87 C18.677776,1.11033963 16.8890285,0.00121241754 14.9383963,0.0291399709 C12.9877641,0.0570675243 11.2315024,1.21694928 10.44,3 L6,3 C4.34314575,3 3,4.34314575 3,6 L3,10 C3,10.5522847 3.44771525,11 4,11 C4.55228475,11 5,10.5522847 5,10 L5,6 C5,5.44771525 5.44771525,5 6,5 L8.78,5 C8.28221087,5.54763701 8.00441061,6.25994537 8,7 C8,8.65685425 9.34314575,10 11,10 L18.33,10 C20.1287667,10.012959 21.6703056,8.71688758 21.9664322,6.94261632 C22.2625588,5.16834505 21.225479,3.44190106 19.52,2.87 Z M18.33,8 L11,8 C10.4477153,8 10,7.55228475 10,7 C10,6.44771525 10.4477153,6 11,6 C11.5522847,6 12,5.55228475 12,5 C11.9833305,3.52578138 13.040316,2.25794627 14.4934789,2.00911701 C15.9466418,1.76028774 17.3652319,2.60422291 17.84,4 C17.9564705,4.35013872 18.2562981,4.60768288 18.62,4.67 C19.4283652,4.80392509 20.0159848,5.51077189 20,6.33 C20,6.77291154 19.8240541,7.19768257 19.5108683,7.51086832 C19.1976826,7.82405408 18.7729115,8 18.33,8 Z M18,12 C17.4477153,12 17,12.4477153 17,13 L17,16 C17,16.5522847 16.5522847,17 16,17 L13.74,17 C13.3488309,15.9983529 12.5369693,15.2194047 11.52,14.87 C10.5900352,12.8964455 8.48781929,11.7537092 6.32587579,12.0465439 C4.16393228,12.3393786 2.44145333,14.0001688 2.07,16.15 C0.671142611,16.6097697 -0.187250803,18.0167998 0.0439322747,19.4710159 C0.275115352,20.925232 1.52752614,21.9966983 3,22 L10.33,22 C12.0968037,22 13.6113961,20.7378397 13.93,19 L16,19 C17.6568542,19 19,17.6568542 19,16 L19,13 C19,12.4477153 18.5522847,12 18,12 Z M10.33,20 L3,20 C2.44771525,20 2,19.5522847 2,19 C2,18.4477153 2.44771525,18 3,18 C3.55228475,18 4,17.5522847 4,17 C3.98333048,15.5257814 5.04031604,14.2579463 6.49347894,14.009117 C7.94664184,13.7602877 9.3652319,14.6042229 9.84,16 C9.95647055,16.3501387 10.2562981,16.6076829 10.62,16.67 C11.4283652,16.8039251 12.0159848,17.5107719 12,18.33 C12,18.7729115 11.8240541,19.1976826 11.5108683,19.5108683 C11.1976826,19.8240541 10.7729115,20 10.33,20 Z" id="Shape"></path>
                        </g>
                    </g>
                    <g id="Legal-site-box" transform="translate(194.000000, 77.000000)">
                        <g id="Rectangle">
                            <use fill="black" fill-opacity="1" filter="url(#filter-4)" xlink:href="#path-3"></use>
                            <use fill="#FFFFFF" fill-rule="evenodd" xlink:href="#path-3"></use>
                        </g>
                        <g id="Small-button-color" transform="translate(157.000000, 317.000000)">
                            <g id="Button-color">
                                <rect id="Color" fill="#7450C8" x="0" y="0" width="136" height="36" rx="4"></rect>
                                <text id="Text" font-family="Roboto-Bold, Roboto" font-size="14" font-weight="bold" line-spacing="26" fill="#FFFFFF">
                                    <tspan x="13.1689453" y="18">Publish LegalSite</tspan>
                                </text>
                            </g>
                        </g>
                        <g id="Small-button-ghost" transform="translate(13.000000, 317.000000)">
                            <g id="Button-color">
                                <rect id="Color" stroke="#7450C8" fill-opacity="0" fill="#FFFFFF" x="0.5" y="0.5" width="135" height="35" rx="4"></rect>
                                <text id="Text" font-family="Roboto-Bold, Roboto" font-size="14" font-weight="bold" line-spacing="26" fill="#7450C8">
                                    <tspan x="11.9897461" y="18">Preview LegalSite</tspan>
                                </text>
                            </g>
                        </g>
                        <g id="Terms" transform="translate(12.000000, 84.000000)">
                            <g id="Rectangle">
                                <use fill="black" fill-opacity="1" filter="url(#filter-6)" xlink:href="#path-5"></use>
                                <use fill="#FFFFFF" fill-rule="evenodd" xlink:href="#path-5"></use>
                            </g>
                            <g id="check-circle" transform="translate(242.000000, 20.000000)" fill="#1DDCC0" fill-rule="nonzero">
                                <path d="M12.72,6.79 L8.43,11.09 L6.78,9.44 C6.53561012,9.15462384 6.1518816,9.03031806 5.78658103,9.11818987 C5.42128045,9.20606167 5.13606167,9.49128045 5.04818987,9.85658103 C4.96031806,10.2218816 5.08462384,10.6056101 5.37,10.85 L7.72,13.21 C7.90871883,13.3971865 8.16419702,13.5015368 8.43,13.5 C8.69233988,13.4988954 8.94373936,13.3947442 9.13,13.21 L14.13,8.21 C14.3193127,8.0222334 14.4257983,7.76663754 14.4257983,7.5 C14.4257983,7.23336246 14.3193127,6.9777666 14.13,6.79 C13.7399625,6.40227641 13.1100375,6.40227641 12.72,6.79 Z M10,0 C4.4771525,-6.66133815e-16 2.22044605e-15,4.4771525 1.77635684e-15,10 C1.33226763e-15,15.5228475 4.4771525,20 10,20 C15.5228475,20 20,15.5228475 20,10 C20,7.3478351 18.9464316,4.80429597 17.0710678,2.92893219 C15.195704,1.0535684 12.6521649,-2.22044605e-16 10,0 Z M10,18 C5.581722,18 2,14.418278 2,10 C2,5.581722 5.581722,2 10,2 C14.418278,2 18,5.581722 18,10 C18,12.1217319 17.1571453,14.1565632 15.6568542,15.6568542 C14.1565632,17.1571453 12.1217319,18 10,18 Z" id="Shape"></path>
                            </g>
                            <text id="Terms-&amp;-Condition" font-family="Roboto-Bold, Roboto" font-size="14" font-weight="bold" line-spacing="19" fill="#969696">
                                <tspan x="16" y="21">Terms &amp; Condition</tspan>
                            </text>
                            <text id="Done-and-up-to-date" font-family="Roboto-Regular, Roboto" font-size="12" font-weight="normal" fill="#969696">
                                <tspan x="16" y="39">Done and up-to-date</tspan>
                            </text>
                        </g>
                        <g id="Data" transform="translate(13.000000, 234.000000)">
                            <g id="Rectangle">
                                <use fill="black" fill-opacity="1" filter="url(#filter-8)" xlink:href="#path-7"></use>
                                <use fill="#FFFFFF" fill-rule="evenodd" xlink:href="#path-7"></use>
                            </g>
                            <g id="check-circle" transform="translate(242.000000, 20.000000)" fill="#1DDCC0" fill-rule="nonzero">
                                <path d="M12.72,6.79 L8.43,11.09 L6.78,9.44 C6.53561012,9.15462384 6.1518816,9.03031806 5.78658103,9.11818987 C5.42128045,9.20606167 5.13606167,9.49128045 5.04818987,9.85658103 C4.96031806,10.2218816 5.08462384,10.6056101 5.37,10.85 L7.72,13.21 C7.90871883,13.3971865 8.16419702,13.5015368 8.43,13.5 C8.69233988,13.4988954 8.94373936,13.3947442 9.13,13.21 L14.13,8.21 C14.3193127,8.0222334 14.4257983,7.76663754 14.4257983,7.5 C14.4257983,7.23336246 14.3193127,6.9777666 14.13,6.79 C13.7399625,6.40227641 13.1100375,6.40227641 12.72,6.79 Z M10,0 C4.4771525,-6.66133815e-16 2.22044605e-15,4.4771525 1.77635684e-15,10 C1.33226763e-15,15.5228475 4.4771525,20 10,20 C15.5228475,20 20,15.5228475 20,10 C20,7.3478351 18.9464316,4.80429597 17.0710678,2.92893219 C15.195704,1.0535684 12.6521649,-2.22044605e-16 10,0 Z M10,18 C5.581722,18 2,14.418278 2,10 C2,5.581722 5.581722,2 10,2 C14.418278,2 18,5.581722 18,10 C18,12.1217319 17.1571453,14.1565632 15.6568542,15.6568542 C14.1565632,17.1571453 12.1217319,18 10,18 Z" id="Shape"></path>
                            </g>
                            <text id="Privacy-compliance" font-family="Roboto-Bold, Roboto" font-size="14" font-weight="bold" line-spacing="19" fill="#969696">
                                <tspan x="16" y="21">Privacy compliance</tspan>
                            </text>
                            <text id="Done-and-up-to-date" font-family="Roboto-Regular, Roboto" font-size="12" font-weight="normal" fill="#969696">
                                <tspan x="16" y="39">Done and up-to-date</tspan>
                            </text>
                        </g>
                        <g id="Privacy" transform="translate(12.000000, 159.000000)">
                            <g id="Rectangle">
                                <use fill="black" fill-opacity="1" filter="url(#filter-10)" xlink:href="#path-9"></use>
                                <use fill="#FFFFFF" fill-rule="evenodd" xlink:href="#path-9"></use>
                            </g>
                            <text id="Privacy-Policy" font-family="Roboto-Bold, Roboto" font-size="14" font-weight="bold" line-spacing="19" fill="#969696">
                                <tspan x="16" y="21">Privacy Policy</tspan>
                            </text>
                            <text id="1-action-needed" font-family="Roboto-Regular, Roboto" font-size="12" font-weight="normal" fill="#969696">
                                <tspan x="16" y="39">1 action needed</tspan>
                            </text>
                            <g id="exclamation-triangle" transform="translate(240.000000, 19.000000)" fill="#F86B67" fill-rule="nonzero">
                                <path d="M11.4285714,14.2857143 C10.902586,14.2857143 10.4761905,14.7121098 10.4761905,15.2380952 C10.4761905,15.7640807 10.902586,16.1904762 11.4285714,16.1904762 C11.9545569,16.1904762 12.3809524,15.7640807 12.3809524,15.2380952 C12.3809524,14.7121098 11.9545569,14.2857143 11.4285714,14.2857143 Z M21.5904762,15.6857143 L13.9238095,2.35238095 C13.4192048,1.44770586 12.4644589,0.887018306 11.4285714,0.887018306 C10.3926839,0.887018306 9.43793804,1.44770586 8.93333333,2.35238095 L1.31428571,15.6857143 C0.792428951,16.5658321 0.781053649,17.6578226 1.28446272,18.5486207 C1.78787179,19.4394188 2.729203,19.9930143 3.75238095,20 L19.1047619,20 C20.1364502,20.0101672 21.0934815,19.4633272 21.6085517,18.5693548 C22.1236219,17.6753823 22.1167129,16.5731595 21.5904762,15.6857143 Z M19.9428571,17.5904762 C19.7728384,17.8929716 19.4517513,18.0790562 19.1047619,18.0761905 L3.75238095,18.0761905 C3.40539157,18.0790562 3.08430448,17.8929716 2.91428571,17.5904762 C2.74415924,17.2958085 2.74415924,16.9327629 2.91428571,16.6380952 L10.5333333,3.3047619 C10.6962819,2.98669884 11.0235782,2.78662907 11.3809524,2.78662907 C11.7383266,2.78662907 12.0656229,2.98669884 12.2285714,3.3047619 L19.8952381,16.6380952 C20.0877189,16.9287807 20.1059849,17.3014065 19.9428571,17.6095238 L19.9428571,17.5904762 Z M11.4285714,6.66666667 C10.902586,6.66666667 10.4761905,7.09306214 10.4761905,7.61904762 L10.4761905,11.4285714 C10.4761905,11.9545569 10.902586,12.3809524 11.4285714,12.3809524 C11.9545569,12.3809524 12.3809524,11.9545569 12.3809524,11.4285714 L12.3809524,7.61904762 C12.3809524,7.09306214 11.9545569,6.66666667 11.4285714,6.66666667 Z" id="Shape"></path>
                            </g>
                        </g>
                        <text id="Title" font-family="Bookmania-Semibold, Bookmania" font-size="22" font-weight="500" line-spacing="28" letter-spacing="-0.1571429" fill="#333333">
                            <tspan x="16" y="46">LegalSite status</tspan>
                        </text>
                    </g>
                    <g id="Icon-bubble" transform="translate(334.000000, 0.000000)">
                        <g id="circle">
                            <circle id="Oval" fill="#FFFFFF" cx="21" cy="21" r="21"></circle>
                            <circle id="Oval" fill-opacity="0.3" fill="#EBA601" cx="21" cy="21" r="21"></circle>
                        </g>
                        <g id="data-sharing" transform="translate(10.000000, 10.000000)" fill="#EBA601" fill-rule="nonzero">
                            <path d="M19.52,2.87 C18.677776,1.11033963 16.8890285,0.00121241754 14.9383963,0.0291399709 C12.9877641,0.0570675243 11.2315024,1.21694928 10.44,3 L6,3 C4.34314575,3 3,4.34314575 3,6 L3,10 C3,10.5522847 3.44771525,11 4,11 C4.55228475,11 5,10.5522847 5,10 L5,6 C5,5.44771525 5.44771525,5 6,5 L8.78,5 C8.28221087,5.54763701 8.00441061,6.25994537 8,7 C8,8.65685425 9.34314575,10 11,10 L18.33,10 C20.1287667,10.012959 21.6703056,8.71688758 21.9664322,6.94261632 C22.2625588,5.16834505 21.225479,3.44190106 19.52,2.87 Z M18.33,8 L11,8 C10.4477153,8 10,7.55228475 10,7 C10,6.44771525 10.4477153,6 11,6 C11.5522847,6 12,5.55228475 12,5 C11.9833305,3.52578138 13.040316,2.25794627 14.4934789,2.00911701 C15.9466418,1.76028774 17.3652319,2.60422291 17.84,4 C17.9564705,4.35013872 18.2562981,4.60768288 18.62,4.67 C19.4283652,4.80392509 20.0159848,5.51077189 20,6.33 C20,6.77291154 19.8240541,7.19768257 19.5108683,7.51086832 C19.1976826,7.82405408 18.7729115,8 18.33,8 Z M18,12 C17.4477153,12 17,12.4477153 17,13 L17,16 C17,16.5522847 16.5522847,17 16,17 L13.74,17 C13.3488309,15.9983529 12.5369693,15.2194047 11.52,14.87 C10.5900352,12.8964455 8.48781929,11.7537092 6.32587579,12.0465439 C4.16393228,12.3393786 2.44145333,14.0001688 2.07,16.15 C0.671142611,16.6097697 -0.187250803,18.0167998 0.0439322747,19.4710159 C0.275115352,20.925232 1.52752614,21.9966983 3,22 L10.33,22 C12.0968037,22 13.6113961,20.7378397 13.93,19 L16,19 C17.6568542,19 19,17.6568542 19,16 L19,13 C19,12.4477153 18.5522847,12 18,12 Z M10.33,20 L3,20 C2.44771525,20 2,19.5522847 2,19 C2,18.4477153 2.44771525,18 3,18 C3.55228475,18 4,17.5522847 4,17 C3.98333048,15.5257814 5.04031604,14.2579463 6.49347894,14.009117 C7.94664184,13.7602877 9.3652319,14.6042229 9.84,16 C9.95647055,16.3501387 10.2562981,16.6076829 10.62,16.67 C11.4283652,16.8039251 12.0159848,17.5107719 12,18.33 C12,18.7729115 11.8240541,19.1976826 11.5108683,19.5108683 C11.1976826,19.8240541 10.7729115,20 10.33,20 Z" id="Shape"></path>
                        </g>
                    </g>
                </g>
            </g>
        </g>
    </g>
</svg>