<svg width="460" height="376" viewBox="0 0 460 376" fill="none" xmlns="http://www.w3.org/2000/svg">
<rect x="18" y="19.4041" width="442" height="355.944" rx="5" fill="#7450C8"/>
<g filter="url(#filter0_d)">
<rect x="7" y="7" width="433" height="348.696" rx="4.89819" fill="white"/>
<g clip-path="url(#clip0)">
<rect x="239.889" y="308.689" width="84.1108" height="22.2646" rx="2.47385" fill="#7450C8"/>
<path d="M268.885 322.781H267.617L265.148 318.731V322.781H263.879V316.626H265.148L267.621 320.685V316.626H268.885V322.781ZM272.018 322.866C271.347 322.866 270.8 322.66 270.377 322.249C269.957 321.837 269.748 321.289 269.748 320.604V320.486C269.748 320.026 269.836 319.616 270.014 319.256C270.191 318.892 270.442 318.613 270.766 318.418C271.093 318.221 271.465 318.122 271.883 318.122C272.508 318.122 273 318.32 273.358 318.714C273.719 319.109 273.899 319.668 273.899 320.393V320.892H270.986C271.026 321.19 271.144 321.43 271.341 321.61C271.541 321.791 271.794 321.881 272.098 321.881C272.569 321.881 272.937 321.71 273.202 321.369L273.802 322.042C273.619 322.301 273.371 322.504 273.058 322.65C272.745 322.794 272.398 322.866 272.018 322.866ZM271.878 319.112C271.636 319.112 271.439 319.194 271.286 319.357C271.137 319.52 271.041 319.754 270.999 320.059H272.698V319.962C272.693 319.691 272.62 319.482 272.479 319.336C272.338 319.186 272.138 319.112 271.878 319.112ZM276.339 319.573L277.108 318.207H278.414L277.112 320.448L278.469 322.781H277.159L276.343 321.344L275.531 322.781H274.216L275.573 320.448L274.275 318.207H275.586L276.339 319.573ZM280.465 317.082V318.207H281.247V319.103H280.465V321.386C280.465 321.555 280.497 321.677 280.562 321.75C280.627 321.823 280.751 321.86 280.934 321.86C281.069 321.86 281.189 321.85 281.294 321.83V322.756C281.054 322.829 280.807 322.866 280.554 322.866C279.697 322.866 279.26 322.433 279.243 321.568V319.103H278.575V318.207H279.243V317.082H280.465ZM286.561 321.517C286.561 321.368 286.487 321.251 286.337 321.166C286.191 321.079 285.954 321.002 285.627 320.934C284.539 320.706 283.995 320.243 283.995 319.547C283.995 319.141 284.163 318.803 284.498 318.533C284.836 318.259 285.277 318.122 285.821 318.122C286.402 318.122 286.866 318.259 287.212 318.533C287.562 318.806 287.737 319.161 287.737 319.598H286.515C286.515 319.423 286.458 319.279 286.346 319.167C286.233 319.051 286.057 318.993 285.817 318.993C285.611 318.993 285.452 319.04 285.339 319.133C285.227 319.226 285.17 319.344 285.17 319.488C285.17 319.623 285.234 319.733 285.361 319.818C285.49 319.9 285.707 319.971 286.012 320.033C286.316 320.093 286.573 320.16 286.781 320.236C287.427 320.473 287.749 320.883 287.749 321.467C287.749 321.884 287.57 322.222 287.212 322.481C286.854 322.738 286.392 322.866 285.826 322.866C285.442 322.866 285.101 322.798 284.803 322.663C284.507 322.525 284.274 322.338 284.105 322.101C283.936 321.861 283.851 321.603 283.851 321.327H285.01C285.021 321.544 285.101 321.71 285.251 321.826C285.4 321.942 285.6 321.999 285.851 321.999C286.085 321.999 286.261 321.956 286.38 321.868C286.501 321.778 286.561 321.661 286.561 321.517ZM290.003 317.082V318.207H290.785V319.103H290.003V321.386C290.003 321.555 290.035 321.677 290.1 321.75C290.165 321.823 290.289 321.86 290.472 321.86C290.607 321.86 290.727 321.85 290.831 321.83V322.756C290.592 322.829 290.345 322.866 290.092 322.866C289.235 322.866 288.798 322.433 288.781 321.568V319.103H288.113V318.207H288.781V317.082H290.003ZM293.571 322.866C292.9 322.866 292.353 322.66 291.931 322.249C291.511 321.837 291.301 321.289 291.301 320.604V320.486C291.301 320.026 291.389 319.616 291.567 319.256C291.745 318.892 291.995 318.613 292.32 318.418C292.646 318.221 293.019 318.122 293.436 318.122C294.061 318.122 294.553 318.32 294.911 318.714C295.272 319.109 295.452 319.668 295.452 320.393V320.892H292.539C292.579 321.19 292.697 321.43 292.895 321.61C293.095 321.791 293.347 321.881 293.651 321.881C294.122 321.881 294.49 321.71 294.755 321.369L295.355 322.042C295.172 322.301 294.924 322.504 294.611 322.65C294.298 322.794 293.951 322.866 293.571 322.866ZM293.431 319.112C293.189 319.112 292.992 319.194 292.84 319.357C292.69 319.52 292.594 319.754 292.552 320.059H294.252V319.962C294.246 319.691 294.173 319.482 294.032 319.336C293.891 319.186 293.691 319.112 293.431 319.112ZM300.268 320.537C300.268 321.241 300.107 321.806 299.786 322.232C299.467 322.655 299.036 322.866 298.492 322.866C298.03 322.866 297.656 322.705 297.372 322.384V324.54H296.15V318.207H297.283L297.325 318.655C297.621 318.3 298.007 318.122 298.484 318.122C299.047 318.122 299.486 318.331 299.798 318.748C300.111 319.165 300.268 319.74 300.268 320.473V320.537ZM299.046 320.448C299.046 320.022 298.97 319.694 298.818 319.463C298.668 319.232 298.45 319.116 298.162 319.116C297.779 319.116 297.515 319.263 297.372 319.556V321.429C297.521 321.73 297.787 321.881 298.171 321.881C298.754 321.881 299.046 321.403 299.046 320.448Z" fill="white"/>
</g>
<g clip-path="url(#clip1)">
<rect x="123.309" y="117.275" width="200.382" height="22.8831" rx="2.78308" fill="white" stroke="#B0BAC9" stroke-width="0.618462"/>
<path d="M137.005 128.432H134.421V131.151H133.61V124.995H137.423V125.663H134.421V127.768H137.005V128.432ZM139.123 131.151H138.341V126.576H139.123V131.151ZM138.277 125.363C138.277 125.236 138.315 125.129 138.391 125.042C138.47 124.954 138.586 124.91 138.738 124.91C138.89 124.91 139.006 124.954 139.085 125.042C139.164 125.129 139.203 125.236 139.203 125.363C139.203 125.49 139.164 125.595 139.085 125.68C139.006 125.764 138.89 125.807 138.738 125.807C138.586 125.807 138.47 125.764 138.391 125.68C138.315 125.595 138.277 125.49 138.277 125.363ZM142.59 127.278C142.471 127.258 142.343 127.248 142.205 127.248C141.692 127.248 141.344 127.467 141.161 127.904V131.151H140.378V126.576H141.139L141.152 127.105C141.409 126.696 141.772 126.492 142.243 126.492C142.395 126.492 142.511 126.511 142.59 126.551V127.278ZM145.976 129.937C145.976 129.726 145.896 129.562 145.735 129.447C145.577 129.328 145.3 129.227 144.902 129.142C144.508 129.058 144.193 128.956 143.959 128.838C143.728 128.72 143.556 128.579 143.444 128.415C143.334 128.252 143.279 128.057 143.279 127.832C143.279 127.457 143.436 127.14 143.752 126.881C144.071 126.621 144.477 126.492 144.97 126.492C145.488 126.492 145.908 126.626 146.23 126.893C146.554 127.161 146.716 127.503 146.716 127.921H145.929C145.929 127.706 145.838 127.522 145.655 127.367C145.474 127.212 145.246 127.134 144.97 127.134C144.685 127.134 144.462 127.196 144.302 127.32C144.141 127.444 144.061 127.606 144.061 127.806C144.061 127.995 144.135 128.138 144.285 128.233C144.434 128.329 144.703 128.421 145.092 128.508C145.484 128.596 145.801 128.7 146.044 128.821C146.286 128.942 146.465 129.089 146.581 129.261C146.699 129.43 146.758 129.637 146.758 129.882C146.758 130.291 146.595 130.619 146.268 130.867C145.941 131.113 145.517 131.235 144.995 131.235C144.629 131.235 144.305 131.17 144.023 131.041C143.741 130.911 143.52 130.731 143.359 130.5C143.201 130.266 143.122 130.013 143.122 129.743H143.904C143.918 130.005 144.023 130.213 144.217 130.368C144.415 130.521 144.674 130.597 144.995 130.597C145.291 130.597 145.528 130.538 145.705 130.419C145.886 130.298 145.976 130.137 145.976 129.937ZM148.838 125.469V126.576H149.692V127.181H148.838V130.018C148.838 130.201 148.876 130.339 148.952 130.432C149.028 130.522 149.158 130.567 149.341 130.567C149.431 130.567 149.555 130.55 149.713 130.516V131.151C149.508 131.207 149.307 131.235 149.113 131.235C148.763 131.235 148.5 131.129 148.322 130.918C148.145 130.707 148.056 130.407 148.056 130.018V127.181H147.223V126.576H148.056V125.469H148.838ZM153.497 126.576L153.523 127.151C153.872 126.711 154.329 126.492 154.892 126.492C155.859 126.492 156.347 127.037 156.355 128.128V131.151H155.573V128.124C155.57 127.794 155.494 127.55 155.345 127.392C155.198 127.234 154.968 127.155 154.656 127.155C154.402 127.155 154.179 127.223 153.988 127.358C153.796 127.494 153.647 127.671 153.539 127.891V131.151H152.757V126.576H153.497ZM160.359 131.151C160.314 131.06 160.277 130.9 160.249 130.669C159.885 131.046 159.451 131.235 158.947 131.235C158.496 131.235 158.125 131.108 157.835 130.855C157.547 130.598 157.404 130.274 157.404 129.882C157.404 129.406 157.584 129.037 157.945 128.775C158.308 128.51 158.819 128.377 159.475 128.377H160.236V128.018C160.236 127.744 160.154 127.527 159.991 127.367C159.828 127.203 159.587 127.122 159.268 127.122C158.989 127.122 158.755 127.192 158.566 127.333C158.377 127.474 158.283 127.644 158.283 127.845H157.497C157.497 127.616 157.577 127.396 157.738 127.185C157.901 126.971 158.121 126.802 158.397 126.678C158.676 126.554 158.982 126.492 159.315 126.492C159.842 126.492 160.255 126.624 160.553 126.889C160.852 127.151 161.007 127.513 161.018 127.976V130.081C161.018 130.501 161.072 130.835 161.179 131.083V131.151H160.359ZM159.061 130.555C159.306 130.555 159.539 130.491 159.758 130.364C159.978 130.237 160.138 130.073 160.236 129.87V128.931H159.623C158.665 128.931 158.186 129.212 158.186 129.772C158.186 130.018 158.267 130.209 158.431 130.347C158.594 130.485 158.804 130.555 159.061 130.555ZM162.98 126.576L163.001 127.084C163.337 126.689 163.789 126.492 164.358 126.492C164.998 126.492 165.434 126.737 165.665 127.227C165.817 127.007 166.014 126.83 166.257 126.695C166.502 126.559 166.791 126.492 167.123 126.492C168.127 126.492 168.637 127.023 168.654 128.086V131.151H167.872V128.132C167.872 127.805 167.797 127.561 167.647 127.401C167.498 127.237 167.247 127.155 166.895 127.155C166.605 127.155 166.364 127.243 166.172 127.418C165.98 127.589 165.869 127.822 165.838 128.115V131.151H165.052V128.153C165.052 127.488 164.726 127.155 164.075 127.155C163.562 127.155 163.211 127.374 163.022 127.811V131.151H162.24V126.576H162.98ZM171.736 131.235C171.116 131.235 170.611 131.032 170.222 130.626C169.833 130.218 169.639 129.672 169.639 128.99V128.847C169.639 128.393 169.725 127.988 169.897 127.633C170.071 127.275 170.314 126.996 170.624 126.796C170.937 126.593 171.275 126.492 171.638 126.492C172.233 126.492 172.695 126.688 173.025 127.079C173.355 127.471 173.52 128.032 173.52 128.762V129.087H170.421C170.432 129.538 170.563 129.903 170.814 130.182C171.068 130.459 171.389 130.597 171.778 130.597C172.054 130.597 172.288 130.54 172.48 130.428C172.671 130.315 172.839 130.166 172.983 129.98L173.461 130.352C173.077 130.941 172.502 131.235 171.736 131.235ZM171.638 127.134C171.323 127.134 171.058 127.25 170.844 127.481C170.629 127.709 170.497 128.031 170.446 128.445H172.738V128.386C172.715 127.988 172.608 127.681 172.416 127.464C172.225 127.244 171.965 127.134 171.638 127.134Z" fill="#B0BAC9"/>
</g>
<g clip-path="url(#clip2)">
<rect x="123.309" y="155.62" width="200.382" height="22.8831" rx="2.78308" fill="white" stroke="#B0BAC9" stroke-width="0.618462"/>
<path d="M134.426 168.832H137.343V169.495H133.61V163.34H134.426V168.832ZM140.97 169.495C140.925 169.405 140.889 169.245 140.86 169.013C140.497 169.391 140.063 169.58 139.558 169.58C139.107 169.58 138.737 169.453 138.446 169.199C138.159 168.943 138.015 168.619 138.015 168.227C138.015 167.751 138.195 167.381 138.556 167.119C138.92 166.854 139.43 166.722 140.087 166.722H140.848V166.363C140.848 166.089 140.766 165.872 140.602 165.712C140.439 165.548 140.198 165.466 139.88 165.466C139.6 165.466 139.367 165.537 139.178 165.678C138.989 165.819 138.894 165.989 138.894 166.189H138.108C138.108 165.961 138.188 165.741 138.349 165.53C138.513 165.316 138.732 165.146 139.009 165.022C139.288 164.898 139.593 164.836 139.926 164.836C140.453 164.836 140.866 164.969 141.165 165.234C141.464 165.496 141.619 165.858 141.63 166.32V168.426C141.63 168.846 141.683 169.18 141.79 169.428V169.495H140.97ZM139.672 168.899C139.918 168.899 140.15 168.836 140.37 168.709C140.59 168.582 140.749 168.417 140.848 168.214V167.276H140.235C139.276 167.276 138.797 167.556 138.797 168.117C138.797 168.362 138.879 168.554 139.042 168.692C139.206 168.83 139.416 168.899 139.672 168.899ZM145.519 168.282C145.519 168.071 145.439 167.907 145.278 167.792C145.121 167.673 144.843 167.572 144.446 167.487C144.051 167.403 143.737 167.301 143.503 167.183C143.272 167.064 143.1 166.923 142.987 166.76C142.877 166.597 142.822 166.402 142.822 166.177C142.822 165.802 142.98 165.485 143.296 165.225C143.614 164.966 144.02 164.836 144.513 164.836C145.032 164.836 145.452 164.97 145.773 165.238C146.097 165.506 146.259 165.848 146.259 166.265H145.473C145.473 166.051 145.381 165.867 145.198 165.712C145.018 165.556 144.789 165.479 144.513 165.479C144.228 165.479 144.006 165.541 143.845 165.665C143.685 165.789 143.604 165.951 143.604 166.151C143.604 166.34 143.679 166.482 143.828 166.578C143.978 166.674 144.247 166.766 144.636 166.853C145.028 166.94 145.345 167.045 145.587 167.166C145.829 167.287 146.008 167.434 146.124 167.606C146.242 167.775 146.302 167.982 146.302 168.227C146.302 168.636 146.138 168.964 145.811 169.212C145.484 169.457 145.06 169.58 144.539 169.58C144.172 169.58 143.848 169.515 143.566 169.385C143.284 169.256 143.063 169.075 142.902 168.844C142.745 168.61 142.666 168.358 142.666 168.088H143.448C143.462 168.35 143.566 168.558 143.761 168.713C143.958 168.865 144.217 168.942 144.539 168.942C144.834 168.942 145.071 168.882 145.249 168.764C145.429 168.643 145.519 168.482 145.519 168.282ZM148.382 163.813V164.921H149.236V165.525H148.382V168.362C148.382 168.546 148.42 168.684 148.496 168.777C148.572 168.867 148.701 168.912 148.885 168.912C148.975 168.912 149.099 168.895 149.257 168.861V169.495C149.051 169.552 148.851 169.58 148.656 169.58C148.307 169.58 148.043 169.474 147.866 169.263C147.688 169.051 147.599 168.751 147.599 168.362V165.525H146.767V164.921H147.599V163.813H148.382ZM153.041 164.921L153.066 165.496C153.415 165.056 153.872 164.836 154.436 164.836C155.402 164.836 155.89 165.382 155.899 166.473V169.495H155.116V166.468C155.114 166.139 155.037 165.895 154.888 165.737C154.742 165.579 154.512 165.5 154.199 165.5C153.945 165.5 153.723 165.568 153.531 165.703C153.339 165.838 153.19 166.016 153.083 166.236V169.495H152.301V164.921H153.041ZM159.902 169.495C159.857 169.405 159.82 169.245 159.792 169.013C159.429 169.391 158.995 169.58 158.49 169.58C158.039 169.58 157.669 169.453 157.378 169.199C157.091 168.943 156.947 168.619 156.947 168.227C156.947 167.751 157.127 167.381 157.488 167.119C157.852 166.854 158.362 166.722 159.019 166.722H159.78V166.363C159.78 166.089 159.698 165.872 159.534 165.712C159.371 165.548 159.13 165.466 158.811 165.466C158.532 165.466 158.298 165.537 158.11 165.678C157.921 165.819 157.826 165.989 157.826 166.189H157.04C157.04 165.961 157.12 165.741 157.281 165.53C157.444 165.316 157.664 165.146 157.941 165.022C158.22 164.898 158.525 164.836 158.858 164.836C159.385 164.836 159.798 164.969 160.097 165.234C160.395 165.496 160.55 165.858 160.562 166.32V168.426C160.562 168.846 160.615 169.18 160.722 169.428V169.495H159.902ZM158.604 168.899C158.85 168.899 159.082 168.836 159.302 168.709C159.522 168.582 159.681 168.417 159.78 168.214V167.276H159.167C158.208 167.276 157.729 167.556 157.729 168.117C157.729 168.362 157.811 168.554 157.974 168.692C158.138 168.83 158.348 168.899 158.604 168.899ZM162.523 164.921L162.545 165.428C162.88 165.034 163.332 164.836 163.902 164.836C164.541 164.836 164.977 165.082 165.208 165.572C165.36 165.352 165.558 165.175 165.8 165.039C166.045 164.904 166.334 164.836 166.667 164.836C167.67 164.836 168.18 165.368 168.197 166.43V169.495H167.415V166.477C167.415 166.15 167.34 165.906 167.191 165.745C167.042 165.582 166.791 165.5 166.438 165.5C166.148 165.5 165.907 165.587 165.715 165.762C165.524 165.934 165.412 166.167 165.381 166.46V169.495H164.595V166.498C164.595 165.833 164.27 165.5 163.618 165.5C163.105 165.5 162.755 165.719 162.566 166.155V169.495H161.784V164.921H162.523ZM171.279 169.58C170.659 169.58 170.155 169.377 169.766 168.971C169.377 168.562 169.182 168.017 169.182 167.335V167.191C169.182 166.737 169.268 166.333 169.44 165.978C169.615 165.62 169.857 165.341 170.167 165.141C170.48 164.938 170.818 164.836 171.182 164.836C171.777 164.836 172.239 165.032 172.569 165.424C172.898 165.816 173.063 166.377 173.063 167.107V167.432H169.964C169.976 167.883 170.107 168.248 170.357 168.527C170.611 168.803 170.932 168.942 171.321 168.942C171.598 168.942 171.832 168.885 172.023 168.772C172.215 168.66 172.383 168.51 172.526 168.324L173.004 168.696C172.621 169.285 172.046 169.58 171.279 169.58ZM171.182 165.479C170.866 165.479 170.601 165.595 170.387 165.826C170.173 166.054 170.04 166.375 169.99 166.79H172.281V166.73C172.259 166.333 172.151 166.026 171.96 165.809C171.768 165.589 171.509 165.479 171.182 165.479Z" fill="#B0BAC9"/>
</g>
<g clip-path="url(#clip3)">
<rect x="123.309" y="193.965" width="200.382" height="22.8831" rx="2.78308" fill="white" stroke="#B0BAC9" stroke-width="0.618462"/>
<path d="M137.089 204.995H134.421V207.176H137.52V207.84H133.61V201.684H137.478V202.352H134.421V204.331H137.089V204.995ZM140.036 205.544H137.973V204.906H140.036V205.544ZM141.537 203.265L141.558 203.773C141.893 203.378 142.346 203.181 142.915 203.181C143.555 203.181 143.99 203.426 144.221 203.916C144.374 203.697 144.571 203.519 144.813 203.384C145.059 203.248 145.347 203.181 145.68 203.181C146.683 203.181 147.194 203.712 147.21 204.775V207.84H146.428V204.821C146.428 204.494 146.354 204.25 146.204 204.09C146.055 203.926 145.804 203.845 145.452 203.845C145.161 203.845 144.92 203.932 144.729 204.107C144.537 204.279 144.426 204.511 144.395 204.804V207.84H143.608V204.842C143.608 204.177 143.283 203.845 142.632 203.845C142.119 203.845 141.768 204.063 141.579 204.5V207.84H140.797V203.265H141.537ZM151.218 207.84C151.173 207.75 151.137 207.589 151.108 207.358C150.745 207.736 150.311 207.924 149.806 207.924C149.355 207.924 148.985 207.798 148.694 207.544C148.407 207.287 148.263 206.963 148.263 206.572C148.263 206.095 148.444 205.726 148.804 205.464C149.168 205.199 149.678 205.066 150.335 205.066H151.096V204.707C151.096 204.434 151.014 204.217 150.851 204.056C150.687 203.893 150.446 203.811 150.128 203.811C149.849 203.811 149.615 203.881 149.426 204.022C149.237 204.163 149.143 204.334 149.143 204.534H148.356C148.356 204.305 148.437 204.086 148.597 203.874C148.761 203.66 148.98 203.491 149.257 203.367C149.536 203.243 149.842 203.181 150.174 203.181C150.701 203.181 151.114 203.313 151.413 203.578C151.712 203.84 151.867 204.203 151.878 204.665V206.77C151.878 207.19 151.931 207.524 152.039 207.772V207.84H151.218ZM149.92 207.244C150.166 207.244 150.398 207.18 150.618 207.053C150.838 206.927 150.997 206.762 151.096 206.559V205.62H150.483C149.524 205.62 149.045 205.901 149.045 206.462C149.045 206.707 149.127 206.898 149.291 207.037C149.454 207.175 149.664 207.244 149.92 207.244ZM153.954 207.84H153.172V203.265H153.954V207.84ZM153.108 202.052C153.108 201.925 153.146 201.818 153.222 201.731C153.301 201.643 153.417 201.6 153.569 201.6C153.721 201.6 153.837 201.643 153.916 201.731C153.995 201.818 154.034 201.925 154.034 202.052C154.034 202.179 153.995 202.285 153.916 202.369C153.837 202.454 153.721 202.496 153.569 202.496C153.417 202.496 153.301 202.454 153.222 202.369C153.146 202.285 153.108 202.179 153.108 202.052ZM156.059 207.84H155.277V201.346H156.059V207.84Z" fill="#B0BAC9"/>
</g>
<g clip-path="url(#clip4)">
<rect x="123.309" y="232.309" width="200.382" height="22.8831" rx="2.78308" fill="white" stroke="#B0BAC9" stroke-width="0.618462"/>
<path d="M134.421 243.775V246.185H133.61V240.029H135.88C136.554 240.029 137.081 240.201 137.461 240.545C137.845 240.889 138.036 241.344 138.036 241.91C138.036 242.508 137.849 242.969 137.474 243.293C137.102 243.614 136.568 243.775 135.872 243.775H134.421ZM134.421 243.111H135.88C136.314 243.111 136.647 243.01 136.878 242.807C137.109 242.601 137.224 242.305 137.224 241.919C137.224 241.552 137.109 241.259 136.878 241.039C136.647 240.82 136.33 240.705 135.927 240.697H134.421V243.111ZM141.723 246.185C141.678 246.094 141.641 245.934 141.613 245.703C141.249 246.08 140.815 246.269 140.311 246.269C139.86 246.269 139.489 246.142 139.199 245.889C138.911 245.632 138.768 245.308 138.768 244.916C138.768 244.44 138.948 244.071 139.309 243.809C139.672 243.544 140.183 243.411 140.839 243.411H141.6V243.052C141.6 242.778 141.518 242.561 141.355 242.401C141.192 242.237 140.951 242.156 140.632 242.156C140.353 242.156 140.119 242.226 139.93 242.367C139.741 242.508 139.647 242.678 139.647 242.878H138.861C138.861 242.65 138.941 242.43 139.102 242.219C139.265 242.005 139.485 241.836 139.761 241.712C140.04 241.588 140.346 241.526 140.679 241.526C141.206 241.526 141.619 241.658 141.917 241.923C142.216 242.185 142.371 242.547 142.382 243.01V245.115C142.382 245.535 142.436 245.869 142.543 246.117V246.185H141.723ZM140.425 245.588C140.67 245.588 140.903 245.525 141.122 245.398C141.342 245.271 141.502 245.106 141.6 244.904V243.965H140.987C140.029 243.965 139.55 244.245 139.55 244.806C139.55 245.052 139.632 245.243 139.795 245.381C139.958 245.519 140.168 245.588 140.425 245.588ZM146.272 244.971C146.272 244.76 146.192 244.596 146.031 244.481C145.873 244.362 145.595 244.261 145.198 244.176C144.803 244.092 144.489 243.99 144.255 243.872C144.024 243.754 143.852 243.613 143.739 243.449C143.63 243.286 143.575 243.091 143.575 242.866C143.575 242.491 143.732 242.174 144.048 241.915C144.367 241.655 144.772 241.526 145.266 241.526C145.784 241.526 146.204 241.659 146.526 241.927C146.85 242.195 147.012 242.537 147.012 242.955H146.225C146.225 242.74 146.134 242.556 145.951 242.401C145.77 242.246 145.542 242.168 145.266 242.168C144.981 242.168 144.758 242.23 144.598 242.354C144.437 242.478 144.357 242.64 144.357 242.84C144.357 243.029 144.431 243.172 144.581 243.267C144.73 243.363 144.999 243.455 145.388 243.542C145.78 243.63 146.097 243.734 146.34 243.855C146.582 243.976 146.761 244.123 146.876 244.295C146.995 244.464 147.054 244.671 147.054 244.916C147.054 245.325 146.891 245.653 146.564 245.901C146.237 246.147 145.812 246.269 145.291 246.269C144.925 246.269 144.601 246.204 144.319 246.075C144.037 245.945 143.816 245.765 143.655 245.533C143.497 245.3 143.418 245.047 143.418 244.777H144.2C144.214 245.039 144.319 245.247 144.513 245.402C144.71 245.555 144.97 245.631 145.291 245.631C145.587 245.631 145.824 245.572 146.001 245.453C146.182 245.332 146.272 245.171 146.272 244.971ZM150.736 244.971C150.736 244.76 150.656 244.596 150.495 244.481C150.338 244.362 150.06 244.261 149.663 244.176C149.268 244.092 148.954 243.99 148.72 243.872C148.489 243.754 148.317 243.613 148.204 243.449C148.094 243.286 148.039 243.091 148.039 242.866C148.039 242.491 148.197 242.174 148.513 241.915C148.831 241.655 149.237 241.526 149.73 241.526C150.249 241.526 150.669 241.659 150.99 241.927C151.314 242.195 151.476 242.537 151.476 242.955H150.69C150.69 242.74 150.598 242.556 150.415 242.401C150.235 242.246 150.006 242.168 149.73 242.168C149.446 242.168 149.223 242.23 149.062 242.354C148.902 242.478 148.821 242.64 148.821 242.84C148.821 243.029 148.896 243.172 149.045 243.267C149.195 243.363 149.464 243.455 149.853 243.542C150.245 243.63 150.562 243.734 150.804 243.855C151.046 243.976 151.225 244.123 151.341 244.295C151.459 244.464 151.519 244.671 151.519 244.916C151.519 245.325 151.355 245.653 151.028 245.901C150.701 246.147 150.277 246.269 149.756 246.269C149.389 246.269 149.065 246.204 148.783 246.075C148.501 245.945 148.28 245.765 148.119 245.533C147.962 245.3 147.883 245.047 147.883 244.777H148.665C148.679 245.039 148.783 245.247 148.978 245.402C149.175 245.555 149.434 245.631 149.756 245.631C150.052 245.631 150.288 245.572 150.466 245.453C150.646 245.332 150.736 245.171 150.736 244.971ZM156.588 245.106L157.467 241.61H158.249L156.917 246.185H156.283L155.171 242.718L154.089 246.185H153.455L152.127 241.61H152.905L153.806 245.035L154.871 241.61H155.501L156.588 245.106ZM158.841 243.855C158.841 243.407 158.928 243.004 159.103 242.646C159.281 242.288 159.526 242.012 159.839 241.817C160.154 241.623 160.514 241.526 160.917 241.526C161.54 241.526 162.043 241.741 162.426 242.172C162.812 242.604 163.005 243.177 163.005 243.893V243.948C163.005 244.393 162.919 244.794 162.748 245.149C162.578 245.501 162.335 245.776 162.016 245.973C161.7 246.17 161.337 246.269 160.925 246.269C160.305 246.269 159.802 246.054 159.416 245.622C159.033 245.191 158.841 244.62 158.841 243.91V243.855ZM159.627 243.948C159.627 244.455 159.744 244.863 159.978 245.17C160.215 245.477 160.531 245.631 160.925 245.631C161.323 245.631 161.638 245.476 161.872 245.166C162.106 244.853 162.223 244.416 162.223 243.855C162.223 243.353 162.103 242.948 161.864 242.637C161.627 242.325 161.311 242.168 160.917 242.168C160.531 242.168 160.219 242.322 159.983 242.629C159.746 242.936 159.627 243.376 159.627 243.948ZM166.197 242.312C166.079 242.292 165.951 242.282 165.813 242.282C165.3 242.282 164.952 242.501 164.768 242.938V246.185H163.986V241.61H164.747L164.76 242.139C165.016 241.73 165.38 241.526 165.851 241.526C166.003 241.526 166.118 241.545 166.197 241.585V242.312ZM166.646 243.859C166.646 243.157 166.812 242.594 167.144 242.168C167.477 241.74 167.912 241.526 168.451 241.526C168.986 241.526 169.41 241.709 169.723 242.075V239.691H170.505V246.185H169.787L169.749 245.694C169.436 246.077 169 246.269 168.442 246.269C167.912 246.269 167.48 246.052 167.144 245.618C166.812 245.184 166.646 244.617 166.646 243.918V243.859ZM167.428 243.948C167.428 244.467 167.535 244.873 167.749 245.166C167.963 245.459 168.259 245.605 168.637 245.605C169.133 245.605 169.495 245.383 169.723 244.937V242.836C169.489 242.405 169.13 242.189 168.645 242.189C168.262 242.189 167.963 242.337 167.749 242.633C167.535 242.929 167.428 243.367 167.428 243.948Z" fill="#B0BAC9"/>
</g>
<g clip-path="url(#clip5)">
<rect x="123.309" y="270.654" width="200.382" height="22.8831" rx="2.78308" fill="white" stroke="#B0BAC9" stroke-width="0.618462"/>
<path d="M138.138 282.576C138.062 283.227 137.821 283.73 137.415 284.085C137.012 284.438 136.475 284.614 135.804 284.614C135.077 284.614 134.493 284.353 134.054 283.832C133.617 283.31 133.398 282.613 133.398 281.739V281.147C133.398 280.575 133.5 280.072 133.703 279.638C133.909 279.204 134.199 278.871 134.574 278.64C134.949 278.406 135.383 278.289 135.876 278.289C136.53 278.289 137.054 278.472 137.449 278.839C137.843 279.202 138.073 279.707 138.138 280.352H137.322C137.251 279.862 137.098 279.507 136.861 279.287C136.627 279.067 136.299 278.957 135.876 278.957C135.357 278.957 134.95 279.149 134.654 279.532C134.361 279.915 134.214 280.461 134.214 281.168V281.764C134.214 282.432 134.354 282.964 134.633 283.358C134.912 283.753 135.302 283.95 135.804 283.95C136.255 283.95 136.6 283.849 136.84 283.646C137.082 283.44 137.243 283.083 137.322 282.576H138.138ZM138.92 282.2C138.92 281.752 139.007 281.349 139.182 280.991C139.36 280.633 139.605 280.356 139.918 280.162C140.233 279.968 140.593 279.87 140.996 279.87C141.619 279.87 142.122 280.086 142.505 280.517C142.891 280.948 143.084 281.522 143.084 282.238V282.293C143.084 282.738 142.998 283.138 142.826 283.493C142.657 283.846 142.413 284.121 142.095 284.318C141.779 284.515 141.416 284.614 141.004 284.614C140.384 284.614 139.881 284.398 139.495 283.967C139.111 283.536 138.92 282.965 138.92 282.255V282.2ZM139.706 282.293C139.706 282.8 139.823 283.207 140.057 283.515C140.294 283.822 140.61 283.975 141.004 283.975C141.402 283.975 141.717 283.82 141.951 283.51C142.185 283.198 142.302 282.761 142.302 282.2C142.302 281.698 142.182 281.292 141.943 280.982C141.706 280.669 141.39 280.513 140.996 280.513C140.61 280.513 140.298 280.667 140.061 280.974C139.825 281.281 139.706 281.721 139.706 282.293ZM144.805 279.955L144.83 280.53C145.18 280.09 145.636 279.87 146.2 279.87C147.167 279.87 147.654 280.416 147.663 281.506V284.529H146.881V281.502C146.878 281.172 146.802 280.929 146.652 280.771C146.506 280.613 146.276 280.534 145.963 280.534C145.71 280.534 145.487 280.602 145.295 280.737C145.104 280.872 144.954 281.05 144.847 281.27V284.529H144.065V279.955H144.805ZM149.105 284.529V280.559H148.382V279.955H149.105V279.566C149.105 279.056 149.25 278.658 149.54 278.374C149.833 278.089 150.246 277.947 150.779 277.947C151.094 277.947 151.493 278.033 151.975 278.205L151.844 278.864C151.492 278.723 151.156 278.653 150.838 278.653C150.502 278.653 150.26 278.729 150.111 278.881C149.964 279.03 149.891 279.256 149.891 279.557V279.955H150.825V280.559H149.891V284.529H149.105ZM152.364 284.529H151.578V279.955H152.364V284.529ZM155.848 280.657C155.729 280.637 155.601 280.627 155.463 280.627C154.95 280.627 154.602 280.846 154.419 281.282V284.529H153.637V279.955H154.398L154.41 280.483C154.667 280.075 155.03 279.87 155.501 279.87C155.653 279.87 155.769 279.89 155.848 279.929V280.657ZM157.306 279.955L157.328 280.462C157.663 280.068 158.115 279.87 158.685 279.87C159.324 279.87 159.76 280.116 159.991 280.606C160.143 280.386 160.341 280.209 160.583 280.073C160.828 279.938 161.117 279.87 161.45 279.87C162.453 279.87 162.963 280.402 162.98 281.464V284.529H162.198V281.511C162.198 281.184 162.123 280.94 161.974 280.779C161.824 280.616 161.574 280.534 161.221 280.534C160.931 280.534 160.69 280.621 160.498 280.796C160.307 280.968 160.195 281.201 160.164 281.494V284.529H159.378V281.532C159.378 280.867 159.052 280.534 158.401 280.534C157.888 280.534 157.537 280.752 157.349 281.189V284.529H156.567V279.955H157.306ZM170.176 282.293C170.176 282.989 170.016 283.55 169.698 283.975C169.379 284.401 168.948 284.614 168.404 284.614C167.849 284.614 167.412 284.438 167.094 284.085V286.288H166.312V279.955H167.026L167.064 280.462C167.383 280.068 167.825 279.87 168.392 279.87C168.941 279.87 169.375 280.077 169.694 280.492C170.015 280.906 170.176 281.482 170.176 282.221V282.293ZM169.394 282.204C169.394 281.688 169.284 281.281 169.064 280.982C168.844 280.683 168.542 280.534 168.159 280.534C167.686 280.534 167.33 280.744 167.094 281.164V283.35C167.328 283.767 167.686 283.975 168.168 283.975C168.542 283.975 168.84 283.827 169.06 283.532C169.282 283.233 169.394 282.79 169.394 282.204ZM173.998 284.529C173.952 284.439 173.916 284.278 173.888 284.047C173.524 284.425 173.09 284.614 172.586 284.614C172.135 284.614 171.764 284.487 171.474 284.233C171.186 283.977 171.042 283.653 171.042 283.261C171.042 282.785 171.223 282.415 171.584 282.153C171.947 281.888 172.457 281.756 173.114 281.756H173.875V281.397C173.875 281.123 173.793 280.906 173.63 280.745C173.466 280.582 173.225 280.5 172.907 280.5C172.628 280.5 172.394 280.571 172.205 280.712C172.016 280.853 171.922 281.023 171.922 281.223H171.135C171.135 280.995 171.216 280.775 171.376 280.564C171.54 280.349 171.76 280.18 172.036 280.056C172.315 279.932 172.621 279.87 172.953 279.87C173.48 279.87 173.893 280.003 174.192 280.268C174.491 280.53 174.646 280.892 174.657 281.354V283.46C174.657 283.88 174.711 284.214 174.818 284.462V284.529H173.998ZM172.7 283.933C172.945 283.933 173.177 283.87 173.397 283.743C173.617 283.616 173.776 283.451 173.875 283.248V282.31H173.262C172.304 282.31 171.825 282.59 171.825 283.151C171.825 283.396 171.906 283.588 172.07 283.726C172.233 283.864 172.443 283.933 172.7 283.933ZM178.547 283.316C178.547 283.105 178.466 282.941 178.306 282.826C178.148 282.707 177.87 282.606 177.473 282.521C177.078 282.437 176.764 282.335 176.53 282.217C176.299 282.098 176.127 281.957 176.014 281.794C175.904 281.63 175.849 281.436 175.849 281.211C175.849 280.836 176.007 280.519 176.323 280.259C176.641 280 177.047 279.87 177.54 279.87C178.059 279.87 178.479 280.004 178.8 280.272C179.124 280.54 179.287 280.882 179.287 281.299H178.5C178.5 281.085 178.409 280.9 178.225 280.745C178.045 280.59 177.817 280.513 177.54 280.513C177.256 280.513 177.033 280.575 176.872 280.699C176.712 280.823 176.631 280.985 176.631 281.185C176.631 281.374 176.706 281.516 176.856 281.612C177.005 281.708 177.274 281.8 177.663 281.887C178.055 281.974 178.372 282.079 178.614 282.2C178.857 282.321 179.036 282.468 179.151 282.639C179.27 282.809 179.329 283.016 179.329 283.261C179.329 283.67 179.165 283.998 178.838 284.246C178.511 284.491 178.087 284.614 177.566 284.614C177.199 284.614 176.875 284.549 176.593 284.419C176.312 284.29 176.09 284.109 175.93 283.878C175.772 283.644 175.693 283.392 175.693 283.121H176.475C176.489 283.384 176.593 283.592 176.788 283.747C176.985 283.899 177.245 283.975 177.566 283.975C177.862 283.975 178.099 283.916 178.276 283.798C178.456 283.677 178.547 283.516 178.547 283.316ZM183.011 283.316C183.011 283.105 182.931 282.941 182.77 282.826C182.612 282.707 182.335 282.606 181.937 282.521C181.543 282.437 181.228 282.335 180.995 282.217C180.763 282.098 180.591 281.957 180.479 281.794C180.369 281.63 180.314 281.436 180.314 281.211C180.314 280.836 180.472 280.519 180.787 280.259C181.106 280 181.512 279.87 182.005 279.87C182.524 279.87 182.944 280.004 183.265 280.272C183.589 280.54 183.751 280.882 183.751 281.299H182.965C182.965 281.085 182.873 280.9 182.69 280.745C182.509 280.59 182.281 280.513 182.005 280.513C181.72 280.513 181.498 280.575 181.337 280.699C181.176 280.823 181.096 280.985 181.096 281.185C181.096 281.374 181.171 281.516 181.32 281.612C181.469 281.708 181.739 281.8 182.128 281.887C182.519 281.974 182.836 282.079 183.079 282.2C183.321 282.321 183.5 282.468 183.616 282.639C183.734 282.809 183.793 283.016 183.793 283.261C183.793 283.67 183.63 283.998 183.303 284.246C182.976 284.491 182.552 284.614 182.03 284.614C181.664 284.614 181.34 284.549 181.058 284.419C180.776 284.29 180.555 284.109 180.394 283.878C180.236 283.644 180.157 283.392 180.157 283.121H180.94C180.954 283.384 181.058 283.592 181.252 283.747C181.45 283.899 181.709 283.975 182.03 283.975C182.326 283.975 182.563 283.916 182.741 283.798C182.921 283.677 183.011 283.516 183.011 283.316ZM188.862 283.451L189.742 279.955H190.524L189.192 284.529H188.558L187.446 281.063L186.364 284.529H185.73L184.402 279.955H185.18L186.081 283.379L187.146 279.955H187.776L188.862 283.451ZM191.116 282.2C191.116 281.752 191.203 281.349 191.378 280.991C191.555 280.633 191.801 280.356 192.114 280.162C192.429 279.968 192.789 279.87 193.192 279.87C193.815 279.87 194.318 280.086 194.701 280.517C195.087 280.948 195.28 281.522 195.28 282.238V282.293C195.28 282.738 195.194 283.138 195.022 283.493C194.853 283.846 194.609 284.121 194.291 284.318C193.975 284.515 193.612 284.614 193.2 284.614C192.58 284.614 192.077 284.398 191.691 283.967C191.307 283.536 191.116 282.965 191.116 282.255V282.2ZM191.902 282.293C191.902 282.8 192.019 283.207 192.253 283.515C192.49 283.822 192.806 283.975 193.2 283.975C193.598 283.975 193.913 283.82 194.147 283.51C194.381 283.198 194.498 282.761 194.498 282.2C194.498 281.698 194.378 281.292 194.139 280.982C193.902 280.669 193.586 280.513 193.192 280.513C192.806 280.513 192.494 280.667 192.257 280.974C192.021 281.281 191.902 281.721 191.902 282.293ZM198.472 280.657C198.354 280.637 198.225 280.627 198.087 280.627C197.574 280.627 197.226 280.846 197.043 281.282V284.529H196.261V279.955H197.022L197.035 280.483C197.291 280.075 197.655 279.87 198.125 279.87C198.278 279.87 198.393 279.89 198.472 279.929V280.657ZM198.92 282.204C198.92 281.502 199.087 280.939 199.419 280.513C199.752 280.085 200.187 279.87 200.726 279.87C201.261 279.87 201.685 280.054 201.998 280.42V278.035H202.78V284.529H202.061L202.023 284.039C201.711 284.422 201.275 284.614 200.717 284.614C200.187 284.614 199.755 284.397 199.419 283.963C199.087 283.529 198.92 282.962 198.92 282.263V282.204ZM199.702 282.293C199.702 282.811 199.81 283.217 200.024 283.51C200.238 283.804 200.534 283.95 200.912 283.95C201.408 283.95 201.77 283.727 201.998 283.282V281.181C201.764 280.75 201.405 280.534 200.92 280.534C200.537 280.534 200.238 280.682 200.024 280.978C199.81 281.274 199.702 281.712 199.702 282.293Z" fill="#B0BAC9"/>
</g>
<g clip-path="url(#clip6)">
<path d="M228.432 82.8655H231.349V83.5293H227.616V77.3737H228.432V82.8655ZM231.945 81.1998C231.945 80.7517 232.033 80.3486 232.207 79.9907C232.385 79.6327 232.63 79.3565 232.943 79.162C233.259 78.9675 233.618 78.8703 234.021 78.8703C234.644 78.8703 235.147 79.0859 235.53 79.5171C235.917 79.9484 236.11 80.5219 236.11 81.2378V81.2928C236.11 81.7381 236.024 82.1384 235.852 82.4935C235.683 82.8458 235.439 83.1206 235.12 83.3179C234.805 83.5152 234.441 83.6139 234.03 83.6139C233.41 83.6139 232.906 83.3982 232.52 82.967C232.137 82.5358 231.945 81.965 231.945 81.2548V81.1998ZM232.732 81.2928C232.732 81.8001 232.849 82.2074 233.083 82.5146C233.319 82.8219 233.635 82.9755 234.03 82.9755C234.427 82.9755 234.743 82.8204 234.977 82.5104C235.211 82.1976 235.328 81.7607 235.328 81.1998C235.328 80.6981 235.208 80.2922 234.968 79.9822C234.731 79.6693 234.416 79.5129 234.021 79.5129C233.635 79.5129 233.324 79.6665 233.087 79.9737C232.85 80.281 232.732 80.7207 232.732 81.2928ZM236.905 81.204C236.905 80.4909 237.069 79.9244 237.399 79.5045C237.729 79.0817 238.166 78.8703 238.71 78.8703C239.268 78.8703 239.703 79.0676 240.016 79.4622L240.054 78.9549H240.769V83.4194C240.769 84.0113 240.593 84.4777 240.24 84.8188C239.891 85.1598 239.42 85.3303 238.828 85.3303C238.498 85.3303 238.176 85.2599 237.86 85.1189C237.544 84.978 237.303 84.7849 237.137 84.5397L237.543 84.0705C237.878 84.4848 238.288 84.6919 238.773 84.6919C239.154 84.6919 239.45 84.5848 239.661 84.3706C239.875 84.1564 239.982 83.8548 239.982 83.4659V83.0727C239.669 83.4335 239.242 83.6139 238.701 83.6139C238.166 83.6139 237.732 83.3982 237.399 82.967C237.069 82.5358 236.905 81.9481 236.905 81.204ZM237.691 81.2928C237.691 81.8086 237.797 82.2145 238.008 82.5104C238.219 82.8035 238.515 82.9501 238.896 82.9501C239.389 82.9501 239.751 82.726 239.982 82.2779V80.1894C239.743 79.7525 239.383 79.5341 238.904 79.5341C238.524 79.5341 238.226 79.682 238.012 79.978C237.798 80.2739 237.691 80.7122 237.691 81.2928ZM244.95 83.5293H244.168V78.9549H244.95V83.5293ZM244.104 77.7415C244.104 77.6147 244.142 77.5076 244.219 77.4202C244.297 77.3328 244.413 77.2891 244.565 77.2891C244.717 77.2891 244.833 77.3328 244.912 77.4202C244.991 77.5076 245.03 77.6147 245.03 77.7415C245.03 77.8683 244.991 77.974 244.912 78.0586C244.833 78.1431 244.717 78.1854 244.565 78.1854C244.413 78.1854 244.297 78.1431 244.219 78.0586C244.142 77.974 244.104 77.8683 244.104 77.7415ZM246.945 78.9549L246.971 79.5298C247.32 79.0901 247.777 78.8703 248.341 78.8703C249.307 78.8703 249.795 79.4157 249.803 80.5064V83.5293H249.021V80.5022C249.018 80.1725 248.942 79.9287 248.793 79.7708C248.646 79.613 248.417 79.5341 248.104 79.5341C247.85 79.5341 247.628 79.6017 247.436 79.737C247.244 79.8723 247.095 80.0498 246.988 80.2697V83.5293H246.206V78.9549H246.945Z" fill="#7450C8"/>
<path d="M127.256 81.9227H124.678L124.098 83.5293H123.261L125.612 77.3737H126.322L128.677 83.5293H127.844L127.256 81.9227ZM124.923 81.2548H127.015L125.967 78.3757L124.923 81.2548ZM130.233 83.5293H129.451V77.0355H130.233V83.5293ZM133.7 79.6567C133.581 79.6369 133.453 79.6271 133.315 79.6271C132.802 79.6271 132.454 79.8455 132.271 80.2824V83.5293H131.488V78.9549H132.249L132.262 79.4833C132.519 79.0746 132.882 78.8703 133.353 78.8703C133.505 78.8703 133.621 78.89 133.7 78.9295V79.6567ZM136.236 83.6139C135.616 83.6139 135.112 83.4109 134.723 83.0051C134.334 82.5964 134.139 82.051 134.139 81.3689V81.2252C134.139 80.7714 134.225 80.3669 134.397 80.0118C134.572 79.6538 134.814 79.3748 135.124 79.1747C135.437 78.9718 135.775 78.8703 136.139 78.8703C136.734 78.8703 137.196 79.0662 137.526 79.458C137.855 79.8497 138.02 80.4106 138.02 81.1406V81.4661H134.921C134.933 81.9171 135.064 82.2821 135.315 82.5611C135.568 82.8374 135.89 82.9755 136.278 82.9755C136.555 82.9755 136.789 82.9191 136.98 82.8063C137.172 82.6936 137.34 82.5442 137.483 82.3582L137.961 82.7302C137.578 83.3193 137.003 83.6139 136.236 83.6139ZM136.139 79.5129C135.823 79.5129 135.558 79.6285 135.344 79.8596C135.13 80.0879 134.997 80.4092 134.947 80.8235H137.238V80.7643C137.216 80.3669 137.109 80.0597 136.917 79.8427C136.725 79.6228 136.466 79.5129 136.139 79.5129ZM141.753 83.5293C141.708 83.4391 141.672 83.2784 141.644 83.0473C141.28 83.425 140.846 83.6139 140.341 83.6139C139.89 83.6139 139.52 83.487 139.229 83.2334C138.942 82.9769 138.798 82.6527 138.798 82.261C138.798 81.7846 138.979 81.4154 139.339 81.1533C139.703 80.8884 140.213 80.7559 140.87 80.7559H141.631V80.3965C141.631 80.1231 141.549 79.9061 141.386 79.7454C141.222 79.582 140.981 79.5002 140.663 79.5002C140.384 79.5002 140.15 79.5707 139.961 79.7116C139.772 79.8526 139.678 80.0231 139.678 80.2232H138.891C138.891 79.9949 138.972 79.775 139.132 79.5637C139.296 79.3494 139.516 79.1803 139.792 79.0563C140.071 78.9323 140.377 78.8703 140.709 78.8703C141.236 78.8703 141.649 79.0028 141.948 79.2677C142.247 79.5298 142.402 79.892 142.413 80.3542V82.4597C142.413 82.8796 142.467 83.2136 142.574 83.4617V83.5293H141.753ZM140.456 82.9332C140.701 82.9332 140.933 82.8698 141.153 82.7429C141.373 82.6161 141.532 82.4512 141.631 82.2483V81.3097H141.018C140.06 81.3097 139.58 81.5902 139.58 82.151C139.58 82.3963 139.662 82.5879 139.826 82.726C139.989 82.8641 140.199 82.9332 140.456 82.9332ZM143.449 81.204C143.449 80.5022 143.615 79.9385 143.948 79.5129C144.28 79.0845 144.716 78.8703 145.254 78.8703C145.79 78.8703 146.214 79.0535 146.527 79.4199V77.0355H147.309V83.5293H146.59L146.552 83.0389C146.239 83.4222 145.804 83.6139 145.246 83.6139C144.716 83.6139 144.283 83.3968 143.948 82.9628C143.615 82.5287 143.449 81.9622 143.449 81.2632V81.204ZM144.231 81.2928C144.231 81.8114 144.338 82.2173 144.552 82.5104C144.766 82.8035 145.062 82.9501 145.44 82.9501C145.936 82.9501 146.298 82.7274 146.527 82.2821V80.1809C146.293 79.7497 145.933 79.5341 145.449 79.5341C145.065 79.5341 144.766 79.682 144.552 79.978C144.338 80.2739 144.231 80.7122 144.231 81.2928ZM150.023 82.3836L151.088 78.9549H151.925L150.086 84.2353C149.802 84.9963 149.349 85.3768 148.729 85.3768L148.581 85.3641L148.29 85.3092V84.675L148.501 84.6919C148.766 84.6919 148.972 84.6384 149.118 84.5313C149.268 84.4242 149.39 84.2283 149.486 83.9436L149.659 83.4786L148.027 78.9549H148.881L150.023 82.3836ZM155.557 79.5087C155.904 79.0831 156.355 78.8703 156.91 78.8703C157.877 78.8703 158.364 79.4157 158.373 80.5064V83.5293H157.591V80.5022C157.588 80.1725 157.512 79.9287 157.362 79.7708C157.216 79.613 156.986 79.5341 156.673 79.5341C156.42 79.5341 156.197 79.6017 156.005 79.737C155.814 79.8723 155.664 80.0498 155.557 80.2697V83.5293H154.775V77.0355H155.557V79.5087ZM162.368 83.5293C162.323 83.4391 162.286 83.2784 162.258 83.0473C161.895 83.425 161.46 83.6139 160.956 83.6139C160.505 83.6139 160.134 83.487 159.844 83.2334C159.557 82.9769 159.413 82.6527 159.413 82.261C159.413 81.7846 159.593 81.4154 159.954 81.1533C160.318 80.8884 160.828 80.7559 161.484 80.7559H162.245V80.3965C162.245 80.1231 162.164 79.9061 162 79.7454C161.837 79.582 161.596 79.5002 161.277 79.5002C160.998 79.5002 160.764 79.5707 160.575 79.7116C160.387 79.8526 160.292 80.0231 160.292 80.2232H159.506C159.506 79.9949 159.586 79.775 159.747 79.5637C159.91 79.3494 160.13 79.1803 160.406 79.0563C160.685 78.9323 160.991 78.8703 161.324 78.8703C161.851 78.8703 162.264 79.0028 162.562 79.2677C162.861 79.5298 163.016 79.892 163.028 80.3542V82.4597C163.028 82.8796 163.081 83.2136 163.188 83.4617V83.5293H162.368ZM161.07 82.9332C161.315 82.9332 161.548 82.8698 161.768 82.7429C161.988 82.6161 162.147 82.4512 162.245 82.2483V81.3097H161.632C160.674 81.3097 160.195 81.5902 160.195 82.151C160.195 82.3963 160.277 82.5879 160.44 82.726C160.604 82.8641 160.814 82.9332 161.07 82.9332ZM165.695 82.4681L166.828 78.9549H167.627L165.987 83.5293H165.391L163.734 78.9549H164.533L165.695 82.4681ZM170.219 83.6139C169.599 83.6139 169.094 83.4109 168.705 83.0051C168.316 82.5964 168.122 82.051 168.122 81.3689V81.2252C168.122 80.7714 168.208 80.3669 168.38 80.0118C168.555 79.6538 168.797 79.3748 169.107 79.1747C169.42 78.9718 169.758 78.8703 170.122 78.8703C170.716 78.8703 171.179 79.0662 171.508 79.458C171.838 79.8497 172.003 80.4106 172.003 81.1406V81.4661H168.904C168.915 81.9171 169.046 82.2821 169.297 82.5611C169.551 82.8374 169.872 82.9755 170.261 82.9755C170.537 82.9755 170.771 82.9191 170.963 82.8063C171.155 82.6936 171.322 82.5442 171.466 82.3582L171.944 82.7302C171.561 83.3193 170.986 83.6139 170.219 83.6139ZM170.122 79.5129C169.806 79.5129 169.541 79.6285 169.327 79.8596C169.113 80.0879 168.98 80.4092 168.93 80.8235H171.221V80.7643C171.198 80.3669 171.091 80.0597 170.9 79.8427C170.708 79.6228 170.449 79.5129 170.122 79.5129ZM177.884 83.5293C177.839 83.4391 177.802 83.2784 177.774 83.0473C177.41 83.425 176.976 83.6139 176.472 83.6139C176.021 83.6139 175.65 83.487 175.36 83.2334C175.072 82.9769 174.929 82.6527 174.929 82.261C174.929 81.7846 175.109 81.4154 175.47 81.1533C175.833 80.8884 176.344 80.7559 177 80.7559H177.761V80.3965C177.761 80.1231 177.68 79.9061 177.516 79.7454C177.353 79.582 177.112 79.5002 176.793 79.5002C176.514 79.5002 176.28 79.5707 176.091 79.7116C175.903 79.8526 175.808 80.0231 175.808 80.2232H175.022C175.022 79.9949 175.102 79.775 175.263 79.5637C175.426 79.3494 175.646 79.1803 175.922 79.0563C176.201 78.9323 176.507 78.8703 176.84 78.8703C177.367 78.8703 177.78 79.0028 178.078 79.2677C178.377 79.5298 178.532 79.892 178.543 80.3542V82.4597C178.543 82.8796 178.597 83.2136 178.704 83.4617V83.5293H177.884ZM176.586 82.9332C176.831 82.9332 177.064 82.8698 177.284 82.7429C177.503 82.6161 177.663 82.4512 177.761 82.2483V81.3097H177.148C176.19 81.3097 175.711 81.5902 175.711 82.151C175.711 82.3963 175.793 82.5879 175.956 82.726C176.12 82.8641 176.33 82.9332 176.586 82.9332ZM180.509 78.9549L180.535 79.5298C180.884 79.0901 181.341 78.8703 181.905 78.8703C182.871 78.8703 183.359 79.4157 183.367 80.5064V83.5293H182.585V80.5022C182.582 80.1725 182.506 79.9287 182.357 79.7708C182.21 79.613 181.981 79.5341 181.668 79.5341C181.414 79.5341 181.191 79.6017 181 79.737C180.808 79.8723 180.659 80.0498 180.552 80.2697V83.5293H179.769V78.9549H180.509ZM189.519 83.5293C189.474 83.4391 189.437 83.2784 189.409 83.0473C189.045 83.425 188.611 83.6139 188.107 83.6139C187.656 83.6139 187.285 83.487 186.995 83.2334C186.707 82.9769 186.564 82.6527 186.564 82.261C186.564 81.7846 186.744 81.4154 187.105 81.1533C187.468 80.8884 187.978 80.7559 188.635 80.7559H189.396V80.3965C189.396 80.1231 189.314 79.9061 189.151 79.7454C188.987 79.582 188.746 79.5002 188.428 79.5002C188.149 79.5002 187.915 79.5707 187.726 79.7116C187.537 79.8526 187.443 80.0231 187.443 80.2232H186.657C186.657 79.9949 186.737 79.775 186.898 79.5637C187.061 79.3494 187.281 79.1803 187.557 79.0563C187.836 78.9323 188.142 78.8703 188.474 78.8703C189.002 78.8703 189.414 79.0028 189.713 79.2677C190.012 79.5298 190.167 79.892 190.178 80.3542V82.4597C190.178 82.8796 190.232 83.2136 190.339 83.4617V83.5293H189.519ZM188.221 82.9332C188.466 82.9332 188.699 82.8698 188.918 82.7429C189.138 82.6161 189.297 82.4512 189.396 82.2483V81.3097H188.783C187.825 81.3097 187.346 81.5902 187.346 82.151C187.346 82.3963 187.427 82.5879 187.591 82.726C187.754 82.8641 187.964 82.9332 188.221 82.9332ZM193.239 82.9755C193.518 82.9755 193.762 82.8909 193.971 82.7218C194.179 82.5527 194.295 82.3413 194.317 82.0876H195.057C195.043 82.3498 194.953 82.5992 194.787 82.8359C194.62 83.0727 194.398 83.2615 194.119 83.4025C193.842 83.5434 193.549 83.6139 193.239 83.6139C192.616 83.6139 192.12 83.4067 191.751 82.9924C191.385 82.5752 191.201 82.0059 191.201 81.2844V81.1533C191.201 80.708 191.283 80.312 191.447 79.9653C191.61 79.6186 191.844 79.3494 192.148 79.1578C192.456 78.9661 192.818 78.8703 193.235 78.8703C193.748 78.8703 194.173 79.0239 194.512 79.3311C194.853 79.6383 195.035 80.0372 195.057 80.5276H194.317C194.295 80.2316 194.182 79.9892 193.979 79.8004C193.779 79.6087 193.531 79.5129 193.235 79.5129C192.838 79.5129 192.529 79.6567 192.309 79.9442C192.092 80.2288 191.984 80.6417 191.984 81.1829V81.3309C191.984 81.8579 192.092 82.2638 192.309 82.5485C192.526 82.8331 192.836 82.9755 193.239 82.9755ZM197.771 82.9755C198.05 82.9755 198.294 82.8909 198.503 82.7218C198.711 82.5527 198.827 82.3413 198.849 82.0876H199.589C199.575 82.3498 199.485 82.5992 199.319 82.8359C199.152 83.0727 198.93 83.2615 198.651 83.4025C198.374 83.5434 198.081 83.6139 197.771 83.6139C197.148 83.6139 196.652 83.4067 196.283 82.9924C195.917 82.5752 195.734 82.0059 195.734 81.2844V81.1533C195.734 80.708 195.815 80.312 195.979 79.9653C196.142 79.6186 196.376 79.3494 196.681 79.1578C196.988 78.9661 197.35 78.8703 197.767 78.8703C198.28 78.8703 198.706 79.0239 199.044 79.3311C199.385 79.6383 199.567 80.0372 199.589 80.5276H198.849C198.827 80.2316 198.714 79.9892 198.511 79.8004C198.311 79.6087 198.063 79.5129 197.767 79.5129C197.37 79.5129 197.061 79.6567 196.841 79.9442C196.624 80.2288 196.516 80.6417 196.516 81.1829V81.3309C196.516 81.8579 196.624 82.2638 196.841 82.5485C197.058 82.8331 197.368 82.9755 197.771 82.9755ZM200.261 81.1998C200.261 80.7517 200.349 80.3486 200.524 79.9907C200.701 79.6327 200.946 79.3565 201.259 79.162C201.575 78.9675 201.934 78.8703 202.337 78.8703C202.96 78.8703 203.463 79.0859 203.847 79.5171C204.233 79.9484 204.426 80.5219 204.426 81.2378V81.2928C204.426 81.7381 204.34 82.1384 204.168 82.4935C203.999 82.8458 203.755 83.1206 203.437 83.3179C203.121 83.5152 202.757 83.6139 202.346 83.6139C201.726 83.6139 201.223 83.3982 200.836 82.967C200.453 82.5358 200.261 81.965 200.261 81.2548V81.1998ZM201.048 81.2928C201.048 81.8001 201.165 82.2074 201.399 82.5146C201.635 82.8219 201.951 82.9755 202.346 82.9755C202.743 82.9755 203.059 82.8204 203.293 82.5104C203.527 82.1976 203.644 81.7607 203.644 81.1998C203.644 80.6981 203.524 80.2922 203.284 79.9822C203.048 79.6693 202.732 79.5129 202.337 79.5129C201.951 79.5129 201.64 79.6665 201.403 79.9737C201.166 80.281 201.048 80.7207 201.048 81.2928ZM208.231 83.0769C207.926 83.4349 207.48 83.6139 206.891 83.6139C206.403 83.6139 206.031 83.4729 205.774 83.1911C205.521 82.9064 205.393 82.4864 205.39 81.9312V78.9549H206.172V81.9101C206.172 82.6034 206.454 82.9501 207.017 82.9501C207.615 82.9501 208.012 82.7274 208.21 82.2821V78.9549H208.992V83.5293H208.248L208.231 83.0769ZM210.924 78.9549L210.949 79.5298C211.299 79.0901 211.755 78.8703 212.319 78.8703C213.286 78.8703 213.773 79.4157 213.782 80.5064V83.5293H213V80.5022C212.997 80.1725 212.921 79.9287 212.771 79.7708C212.625 79.613 212.395 79.5341 212.082 79.5341C211.829 79.5341 211.606 79.6017 211.414 79.737C211.223 79.8723 211.073 80.0498 210.966 80.2697V83.5293H210.184V78.9549H210.924ZM216.023 77.8472V78.9549H216.877V79.5594H216.023V82.3963C216.023 82.5795 216.061 82.7176 216.137 82.8106C216.213 82.9008 216.342 82.9459 216.526 82.9459C216.616 82.9459 216.74 82.929 216.898 82.8951V83.5293C216.692 83.5857 216.492 83.6139 216.297 83.6139C215.948 83.6139 215.684 83.5082 215.507 83.2968C215.329 83.0854 215.24 82.7852 215.24 82.3963V79.5594H214.408V78.9549H215.24V77.8472H216.023ZM218.711 81.7959C218.717 81.4605 218.755 81.1956 218.826 81.0011C218.896 80.8066 219.04 80.591 219.257 80.3542L219.811 79.7835C220.047 79.5157 220.166 79.2283 220.166 78.921C220.166 78.6251 220.088 78.394 219.933 78.2277C219.778 78.0586 219.553 77.974 219.257 77.974C218.969 77.974 218.738 78.0501 218.563 78.2023C218.389 78.3545 218.301 78.5589 218.301 78.8153H217.519C217.525 78.3587 217.687 77.9909 218.005 77.7119C218.327 77.43 218.744 77.2891 219.257 77.2891C219.79 77.2891 220.204 77.4329 220.5 77.7203C220.799 78.005 220.948 78.3968 220.948 78.8957C220.948 79.3889 220.72 79.8751 220.263 80.3542L219.802 80.8108C219.596 81.0391 219.494 81.3675 219.494 81.7959H218.711ZM218.678 83.1361C218.678 83.0093 218.716 82.9036 218.792 82.819C218.871 82.7317 218.986 82.688 219.138 82.688C219.291 82.688 219.406 82.7317 219.485 82.819C219.564 82.9036 219.603 83.0093 219.603 83.1361C219.603 83.2629 219.564 83.3686 219.485 83.4532C219.406 83.5349 219.291 83.5758 219.138 83.5758C218.986 83.5758 218.871 83.5349 218.792 83.4532C218.716 83.3686 218.678 83.2629 218.678 83.1361Z" fill="#292E31"/>
</g>
<path d="M128.762 39.7067C128.762 40.2963 128.938 40.7816 129.292 41.1625C129.646 41.5344 130.109 41.8565 130.68 42.1286C131.261 42.3916 131.918 42.6229 132.653 42.8225C133.388 43.013 134.141 43.2171 134.912 43.4348C135.683 43.6525 136.435 43.9019 137.17 44.1831C137.905 44.4643 138.558 44.8271 139.129 45.2716C139.71 45.707 140.177 46.2467 140.531 46.8907C140.885 47.5348 141.061 48.3239 141.061 49.2582C141.061 50.1744 140.862 51.0134 140.463 51.7753C140.073 52.5282 139.529 53.1768 138.83 53.721C138.141 54.2562 137.324 54.6735 136.381 54.9728C135.447 55.2631 134.431 55.4082 133.333 55.4082C132.181 55.4082 131.115 55.2767 130.136 55.0136C129.156 54.7596 128.299 54.4195 127.564 53.9931L127.129 55H126.068L124.435 49.0133L125.278 48.7412C125.677 49.5485 126.154 50.2741 126.707 50.9182C127.269 51.5531 127.886 52.0974 128.557 52.5509C129.238 52.9954 129.963 53.34 130.734 53.585C131.515 53.8208 132.326 53.9387 133.17 53.9387C133.778 53.9387 134.345 53.8571 134.871 53.6938C135.397 53.5215 135.855 53.2856 136.245 52.9863C136.644 52.687 136.952 52.3332 137.17 51.925C137.397 51.5168 137.506 51.0724 137.497 50.5916C137.497 50.0746 137.379 49.6301 137.143 49.2582C136.916 48.8772 136.608 48.5507 136.218 48.2786C135.828 47.9974 135.374 47.757 134.857 47.5574C134.34 47.3579 133.787 47.1719 133.197 46.9996C132.617 46.8182 132.018 46.6458 131.401 46.4825C130.784 46.3102 130.186 46.1152 129.605 45.8975C129.025 45.6798 128.476 45.4303 127.959 45.1491C127.442 44.8679 126.988 44.5323 126.598 44.1423C126.208 43.7432 125.9 43.276 125.673 42.7409C125.446 42.2057 125.333 41.5753 125.333 40.8496C125.333 40.0332 125.51 39.2985 125.863 38.6454C126.226 37.9923 126.716 37.4345 127.333 36.9718C127.95 36.5092 128.666 36.1555 129.483 35.9106C130.308 35.6657 131.183 35.5432 132.109 35.5432C133.324 35.5432 134.358 35.6702 135.211 35.9242C136.073 36.1691 136.789 36.4684 137.361 36.8222L137.742 35.9514H138.803L140.3 41.3394L139.483 41.5843C139.138 40.8677 138.73 40.2283 138.259 39.6659C137.796 39.1035 137.265 38.6273 136.667 38.2372C136.077 37.8381 135.424 37.5342 134.707 37.3256C134 37.117 133.233 37.0127 132.408 37.0127C131.827 37.0127 131.31 37.0807 130.857 37.2168C130.412 37.3528 130.031 37.5433 129.714 37.7882C129.406 38.0331 129.17 38.3189 129.006 38.6454C128.843 38.9719 128.762 39.3257 128.762 39.7067ZM142.316 55V54.0748C142.652 54.0385 142.928 53.9931 143.146 53.9387C143.364 53.8843 143.531 53.8117 143.649 53.721C143.776 53.6212 143.862 53.4988 143.908 53.3537C143.953 53.1995 143.976 53.0135 143.976 52.7958V46.0471C143.976 45.7297 143.917 45.512 143.799 45.3941C143.681 45.2671 143.486 45.2036 143.214 45.2036H142.316V44.3872L146.098 42.183H147.269V52.7958C147.269 53.0135 147.291 53.1995 147.337 53.3537C147.391 53.4988 147.477 53.6212 147.595 53.721C147.722 53.8117 147.894 53.8843 148.112 53.9387C148.33 53.9931 148.611 54.0385 148.956 54.0748V55H142.316ZM143.704 38.0195C143.704 37.7746 143.749 37.5388 143.84 37.312C143.931 37.0762 144.058 36.8675 144.221 36.6861C144.393 36.5047 144.602 36.3596 144.847 36.2507C145.092 36.1419 145.373 36.0874 145.69 36.0874C145.999 36.0874 146.275 36.1419 146.52 36.2507C146.774 36.3596 146.987 36.5047 147.16 36.6861C147.341 36.8675 147.477 37.0762 147.568 37.312C147.659 37.5388 147.704 37.7746 147.704 38.0195C147.704 38.2554 147.659 38.4867 147.568 38.7134C147.477 38.9402 147.341 39.1443 147.16 39.3257C146.987 39.4981 146.774 39.6387 146.52 39.7475C146.275 39.8473 145.999 39.8972 145.69 39.8972C145.373 39.8972 145.092 39.8473 144.847 39.7475C144.602 39.6387 144.393 39.4981 144.221 39.3257C144.058 39.1443 143.931 38.9402 143.84 38.7134C143.749 38.4867 143.704 38.2554 143.704 38.0195ZM163.39 41.8837C163.39 42.2284 163.276 42.5277 163.05 42.7817C162.832 43.0357 162.537 43.1626 162.165 43.1626C161.957 43.1626 161.784 43.1264 161.648 43.0538C161.512 42.9812 161.39 42.9041 161.281 42.8225C161.172 42.7409 161.063 42.6638 160.954 42.5912C160.846 42.5186 160.705 42.4823 160.533 42.4823C160.342 42.4823 160.165 42.5504 160.002 42.6864C159.848 42.8134 159.707 42.9812 159.58 43.1899C159.934 43.462 160.229 43.7477 160.465 44.047C160.7 44.3464 160.891 44.6548 161.036 44.9723C161.181 45.2807 161.281 45.5981 161.335 45.9247C161.399 46.2512 161.431 46.5733 161.431 46.8907C161.431 47.562 161.304 48.1879 161.05 48.7684C160.805 49.3398 160.446 49.8387 159.975 50.2651C159.503 50.6823 158.927 51.0089 158.247 51.2447C157.566 51.4805 156.795 51.5985 155.934 51.5985C155.589 51.5985 155.262 51.5803 154.954 51.544C154.646 51.5078 154.346 51.4533 154.056 51.3808C153.739 51.2991 153.457 51.2628 153.212 51.2719C152.977 51.281 152.777 51.3218 152.614 51.3944C152.46 51.4669 152.342 51.5622 152.26 51.6801C152.187 51.798 152.151 51.925 152.151 52.0611C152.151 52.2516 152.237 52.4058 152.41 52.5237C152.582 52.6416 152.872 52.7368 153.28 52.8094C153.689 52.882 154.228 52.9409 154.9 52.9863C155.571 53.0226 156.405 53.0589 157.403 53.0951C158.401 53.1314 159.245 53.2267 159.934 53.3809C160.632 53.5351 161.195 53.7573 161.621 54.0476C162.056 54.3288 162.369 54.6735 162.56 55.0816C162.75 55.4989 162.846 55.9796 162.846 56.5239C162.846 57.1679 162.682 57.7303 162.356 58.2111C162.038 58.7009 161.589 59.1091 161.009 59.4356C160.437 59.7622 159.752 60.0071 158.954 60.1703C158.156 60.3336 157.285 60.4152 156.342 60.4152C155.507 60.4152 154.709 60.3654 153.947 60.2656C153.185 60.1749 152.514 60.0116 151.933 59.7758C151.362 59.549 150.904 59.2406 150.559 58.8505C150.215 58.4696 150.038 57.9934 150.029 57.4219C150.01 56.9049 150.137 56.4785 150.41 56.1429C150.682 55.8073 151.035 55.5352 151.471 55.3265C150.981 55.0816 150.623 54.7687 150.396 54.3877C150.169 53.9977 150.056 53.5215 150.056 52.9591C150.056 52.2606 150.246 51.6937 150.627 51.2583C151.008 50.8138 151.498 50.5281 152.097 50.4011C151.562 49.9748 151.153 49.4668 150.872 48.8772C150.6 48.2786 150.464 47.6164 150.464 46.8907C150.464 46.2195 150.586 45.5981 150.831 45.0267C151.085 44.4462 151.444 43.9473 151.906 43.53C152.378 43.1037 152.949 42.7726 153.621 42.5368C154.301 42.3009 155.072 42.183 155.934 42.183C156.215 42.183 156.464 42.1921 156.682 42.2102C156.9 42.2284 157.099 42.2556 157.281 42.2919C157.462 42.3281 157.634 42.369 157.798 42.4143C157.961 42.4597 158.129 42.5095 158.301 42.564C158.51 42.2828 158.746 42.0152 159.009 41.7612C159.272 41.5072 159.548 41.2895 159.839 41.1081C160.129 40.9176 160.433 40.768 160.75 40.6591C161.068 40.5503 161.385 40.4958 161.703 40.4958C162.165 40.4958 162.56 40.6138 162.886 40.8496C163.222 41.0764 163.39 41.4211 163.39 41.8837ZM153.621 46.8907C153.621 47.4168 153.657 47.8885 153.729 48.3058C153.811 48.723 153.943 49.0768 154.124 49.3671C154.305 49.6573 154.541 49.8796 154.832 50.0338C155.131 50.188 155.498 50.2651 155.934 50.2651C156.369 50.2651 156.736 50.188 157.036 50.0338C157.335 49.8796 157.575 49.6573 157.757 49.3671C157.938 49.0768 158.07 48.723 158.151 48.3058C158.233 47.8885 158.274 47.4168 158.274 46.8907C158.274 46.3737 158.233 45.9066 158.151 45.4893C158.07 45.072 157.938 44.7183 157.757 44.428C157.575 44.1378 157.335 43.9155 157.036 43.7613C156.736 43.598 156.369 43.5164 155.934 43.5164C155.498 43.5164 155.131 43.598 154.832 43.7613C154.541 43.9155 154.305 44.1378 154.124 44.428C153.943 44.7183 153.811 45.072 153.729 45.4893C153.657 45.9066 153.621 46.3737 153.621 46.8907ZM156.641 56.1973C155.961 56.1701 155.344 56.1293 154.791 56.0749C154.237 56.0205 153.729 55.9524 153.267 55.8708C152.895 56.0069 152.618 56.1837 152.437 56.4014C152.265 56.6282 152.178 56.8867 152.178 57.177C152.178 57.7484 152.528 58.2065 153.226 58.5512C153.934 58.905 154.963 59.0818 156.315 59.0818C156.968 59.0818 157.539 59.032 158.029 58.9322C158.519 58.8415 158.927 58.7145 159.254 58.5512C159.58 58.3879 159.825 58.202 159.988 57.9934C160.152 57.7938 160.233 57.5852 160.233 57.3675C160.233 57.1316 160.179 56.9411 160.07 56.796C159.961 56.6509 159.771 56.5375 159.498 56.4559C159.226 56.3742 158.859 56.3153 158.396 56.279C157.934 56.2427 157.349 56.2155 156.641 56.1973ZM172.061 55V54.0748C172.397 54.0385 172.674 53.9931 172.891 53.9387C173.118 53.8843 173.29 53.8117 173.408 53.721C173.535 53.6212 173.622 53.4988 173.667 53.3537C173.721 53.1995 173.749 53.0135 173.749 52.7958V46.0744C173.749 45.3578 173.563 44.8407 173.191 44.5233C172.828 44.1967 172.361 44.0334 171.789 44.0334C171.245 44.0334 170.723 44.1241 170.225 44.3056C169.735 44.4779 169.258 44.7137 168.796 45.0131V52.7958C168.796 53.0135 168.819 53.1995 168.864 53.3537C168.918 53.4988 169.004 53.6212 169.122 53.721C169.249 53.8117 169.422 53.8843 169.639 53.9387C169.857 53.9931 170.138 54.0385 170.483 54.0748V55H163.843V54.0748C164.179 54.0385 164.456 53.9931 164.673 53.9387C164.891 53.8843 165.059 53.8117 165.177 53.721C165.304 53.6212 165.39 53.4988 165.435 53.3537C165.48 53.1995 165.503 53.0135 165.503 52.7958V46.0471C165.503 45.7297 165.444 45.512 165.326 45.3941C165.208 45.2671 165.013 45.2036 164.741 45.2036H163.843V44.3872L167.626 42.183H168.796V43.5164C169.059 43.3441 169.354 43.1808 169.68 43.0266C170.016 42.8633 170.365 42.7227 170.728 42.6048C171.091 42.4778 171.458 42.378 171.83 42.3055C172.211 42.2238 172.587 42.183 172.959 42.183C173.404 42.183 173.866 42.2374 174.347 42.3463C174.837 42.4461 175.277 42.6411 175.667 42.9313C176.066 43.2125 176.393 43.6116 176.647 44.1287C176.91 44.6366 177.041 45.3033 177.041 46.1288V52.7958C177.041 53.0135 177.064 53.1995 177.109 53.3537C177.155 53.4988 177.236 53.6212 177.354 53.721C177.481 53.8117 177.649 53.8843 177.858 53.9387C178.075 53.9931 178.356 54.0385 178.701 54.0748V55H172.061ZM187.604 44.3872L191.359 42.183H192.557V52.7958C192.557 53.0135 192.579 53.1995 192.625 53.3537C192.679 53.4988 192.765 53.6212 192.883 53.721C193.01 53.8117 193.182 53.8843 193.4 53.9387C193.618 53.9931 193.899 54.0385 194.244 54.0748V55C192.584 55 190.924 55.1361 189.264 55.4082V54.0748C189.001 54.2471 188.702 54.4149 188.366 54.5782C188.039 54.7324 187.695 54.873 187.332 55C186.978 55.1179 186.611 55.2132 186.23 55.2857C185.858 55.3674 185.49 55.4082 185.128 55.4082C184.674 55.4082 184.202 55.3538 183.713 55.2449C183.232 55.1451 182.792 54.9501 182.393 54.6598C182.003 54.3696 181.681 53.9659 181.427 53.4489C181.173 52.9319 181.046 52.2606 181.046 51.4352V46.0471C181.046 45.7297 180.987 45.512 180.869 45.3941C180.751 45.2671 180.556 45.2036 180.284 45.2036H179.359V44.3872L183.141 42.183H184.338V51.4896C184.338 52.2243 184.515 52.755 184.869 53.0815C185.232 53.399 185.699 53.5577 186.271 53.5577C186.815 53.5577 187.332 53.4716 187.822 53.2992C188.321 53.1178 188.801 52.8684 189.264 52.5509V46.0471C189.264 45.7297 189.205 45.512 189.087 45.3941C188.969 45.2671 188.774 45.2036 188.502 45.2036H187.604V44.3872ZM194.961 60.0071V59.1091C195.296 59.0728 195.573 59.0274 195.791 58.973C196.008 58.9186 196.176 58.8415 196.294 58.7417C196.421 58.6419 196.507 58.5149 196.553 58.3607C196.598 58.2156 196.621 58.0296 196.621 57.8029V46.0471C196.621 45.7297 196.562 45.512 196.444 45.3941C196.326 45.2671 196.131 45.2036 195.859 45.2036H194.879V44.3872L198.743 42.183H199.913V43.5164C200.349 43.0901 200.861 42.7635 201.451 42.5368C202.04 42.3009 202.725 42.183 203.505 42.183C204.376 42.183 205.161 42.3463 205.859 42.6728C206.567 42.9903 207.17 43.4438 207.669 44.0334C208.168 44.614 208.549 45.3124 208.812 46.1288C209.084 46.9361 209.22 47.825 209.22 48.7956C209.22 49.7662 209.084 50.6551 208.812 51.4624C208.54 52.2697 208.141 52.9681 207.614 53.5577C207.097 54.1383 206.458 54.5918 205.696 54.9184C204.943 55.2449 204.086 55.4082 203.124 55.4082C202.444 55.4082 201.836 55.3175 201.301 55.1361C200.775 54.9546 200.312 54.6916 199.913 54.3469V57.8029C199.913 58.0296 199.936 58.2156 199.981 58.3607C200.036 58.5149 200.122 58.6419 200.24 58.7417C200.367 58.8415 200.539 58.9186 200.757 58.973C200.975 59.0274 201.256 59.0728 201.601 59.1091V60.0071H194.961ZM202.526 43.7341C201.936 43.7341 201.428 43.8475 201.002 44.0743C200.576 44.292 200.213 44.614 199.913 45.0403V52.5509C200.213 52.9772 200.576 53.3038 201.002 53.5305C201.428 53.7482 201.936 53.8571 202.526 53.8571C203.106 53.8571 203.601 53.7437 204.009 53.5169C204.426 53.2902 204.762 52.9591 205.016 52.5237C205.279 52.0883 205.469 51.5576 205.587 50.9318C205.705 50.3059 205.764 49.5938 205.764 48.7956C205.764 47.9974 205.705 47.2853 205.587 46.6594C205.469 46.0335 205.279 45.5029 205.016 45.0675C204.762 44.6321 204.426 44.301 204.009 44.0743C203.601 43.8475 203.106 43.7341 202.526 43.7341Z" fill="#333333"/>
</g>
<defs>
<filter id="filter0_d" x="0.142534" y="0.142534" width="452.593" height="368.289" filterUnits="userSpaceOnUse" color-interpolation-filters="sRGB">
<feFlood flood-opacity="0" result="BackgroundImageFix"/>
<feColorMatrix in="SourceAlpha" type="matrix" values="0 0 0 0 0 0 0 0 0 0 0 0 0 0 0 0 0 0 127 0"/>
<feOffset dx="2.93891" dy="2.93891"/>
<feGaussianBlur stdDeviation="4.89819"/>
<feColorMatrix type="matrix" values="0 0 0 0 0.2 0 0 0 0 0.2 0 0 0 0 0.2 0 0 0 0.1 0"/>
<feBlend mode="normal" in2="BackgroundImageFix" result="effect1_dropShadow"/>
<feBlend mode="normal" in="SourceGraphic" in2="effect1_dropShadow" result="shape"/>
</filter>
<clipPath id="clip0">
<rect width="84.1108" height="22.2646" fill="white" transform="translate(239.889 308.689)"/>
</clipPath>
<clipPath id="clip1">
<rect width="201" height="23.5015" fill="white" transform="translate(123 116.966)"/>
</clipPath>
<clipPath id="clip2">
<rect width="201" height="23.5015" fill="white" transform="translate(123 155.311)"/>
</clipPath>
<clipPath id="clip3">
<rect width="201" height="23.5015" fill="white" transform="translate(123 193.655)"/>
</clipPath>
<clipPath id="clip4">
<rect width="201" height="23.5015" fill="white" transform="translate(123 232)"/>
</clipPath>
<clipPath id="clip5">
<rect width="201" height="23.5015" fill="white" transform="translate(123 270.345)"/>
</clipPath>
<clipPath id="clip6">
<rect width="130.495" height="9.89538" fill="white" transform="translate(123.143 75.5293)"/>
</clipPath>
</defs>
</svg>
