<svg fill="none" height="335" viewBox="0 0 488 335" width="488" xmlns="http://www.w3.org/2000/svg" xmlns:xlink="http://www.w3.org/1999/xlink"><filter id="a" color-interpolation-filters="sRGB" filterUnits="userSpaceOnUse" height="335" width="424" x="27" y="0"><feFlood flood-opacity="0" result="BackgroundImageFix"/><feColorMatrix in="SourceAlpha" result="hardAlpha" type="matrix" values="0 0 0 0 0 0 0 0 0 0 0 0 0 0 0 0 0 0 127 0"/><feOffset dx="2" dy="8"/><feGaussianBlur stdDeviation="17.5"/><feColorMatrix type="matrix" values="0 0 0 0 0 0 0 0 0 0.351917 0 0 0 0 0.429167 0 0 0 0.15 0"/><feBlend in2="BackgroundImageFix" mode="normal" result="effect1_dropShadow"/><feBlend in="SourceGraphic" in2="effect1_dropShadow" mode="normal" result="shape"/></filter><filter id="b" color-interpolation-filters="sRGB" filterUnits="userSpaceOnUse" height="78.8571" width="78.8571" x="375" y="216"><feFlood flood-opacity="0" result="BackgroundImageFix"/><feColorMatrix in="SourceAlpha" result="hardAlpha" type="matrix" values="0 0 0 0 0 0 0 0 0 0 0 0 0 0 0 0 0 0 127 0"/><feOffset dy="9"/><feGaussianBlur stdDeviation="15"/><feColorMatrix type="matrix" values="0 0 0 0 0.593438 0 0 0 0 0.707729 0 0 0 0 0.879167 0 0 0 0.25 0"/><feBlend in2="BackgroundImageFix" mode="normal" result="effect1_dropShadow"/><feBlend in="SourceGraphic" in2="effect1_dropShadow" mode="normal" result="shape"/></filter><filter id="c" color-interpolation-filters="sRGB" filterUnits="userSpaceOnUse" height="140.235" width="141.098" x="346.902" y="52.902"><feFlood flood-opacity="0" result="BackgroundImageFix"/><feColorMatrix in="SourceAlpha" result="hardAlpha" type="matrix" values="0 0 0 0 0 0 0 0 0 0 0 0 0 0 0 0 0 0 127 0"/><feOffset dy="9"/><feGaussianBlur stdDeviation="15"/><feColorMatrix type="matrix" values="0 0 0 0 0.593438 0 0 0 0 0.707729 0 0 0 0 0.879167 0 0 0 0.25 0"/><feBlend in2="BackgroundImageFix" mode="normal" result="effect1_dropShadow"/><feBlend in="SourceGraphic" in2="effect1_dropShadow" mode="normal" result="shape"/></filter><filter id="d" color-interpolation-filters="sRGB" filterUnits="userSpaceOnUse" height="149.373" width="149.373" x="337" y="40"><feFlood flood-opacity="0" result="BackgroundImageFix"/><feColorMatrix in="SourceAlpha" result="hardAlpha" type="matrix" values="0 0 0 0 0 0 0 0 0 0 0 0 0 0 0 0 0 0 127 0"/><feOffset dx="2" dy="8"/><feGaussianBlur stdDeviation="17.5"/><feColorMatrix type="matrix" values="0 0 0 0 0 0 0 0 0 0.351917 0 0 0 0 0.429167 0 0 0 0.15 0"/><feBlend in2="BackgroundImageFix" mode="normal" result="effect1_dropShadow"/><feBlend in="SourceGraphic" in2="effect1_dropShadow" mode="normal" result="shape"/></filter><filter id="e" color-interpolation-filters="sRGB" filterUnits="userSpaceOnUse" height="95" width="168" x="237" y="177"><feFlood flood-opacity="0" result="BackgroundImageFix"/><feColorMatrix in="SourceAlpha" result="hardAlpha" type="matrix" values="0 0 0 0 0 0 0 0 0 0 0 0 0 0 0 0 0 0 127 0"/><feOffset dy="9"/><feGaussianBlur stdDeviation="15"/><feColorMatrix type="matrix" values="0 0 0 0 0.593438 0 0 0 0 0.707729 0 0 0 0 0.879167 0 0 0 0.25 0"/><feBlend in2="BackgroundImageFix" mode="normal" result="effect1_dropShadow"/><feBlend in="SourceGraphic" in2="effect1_dropShadow" mode="normal" result="shape"/></filter><filter id="f" color-interpolation-filters="sRGB" filterUnits="userSpaceOnUse" height="116.335" width="177.184" x="229" y="164"><feFlood flood-opacity="0" result="BackgroundImageFix"/><feColorMatrix in="SourceAlpha" result="hardAlpha" type="matrix" values="0 0 0 0 0 0 0 0 0 0 0 0 0 0 0 0 0 0 127 0"/><feOffset dx="2" dy="8"/><feGaussianBlur stdDeviation="17.5"/><feColorMatrix type="matrix" values="0 0 0 0 0 0 0 0 0 0.351917 0 0 0 0 0.429167 0 0 0 0.15 0"/><feBlend in2="BackgroundImageFix" mode="normal" result="effect1_dropShadow"/><feBlend in="SourceGraphic" in2="effect1_dropShadow" mode="normal" result="shape"/></filter><filter id="g" color-interpolation-filters="sRGB" filterUnits="userSpaceOnUse" height="96" width="153" x="11" y="62"><feFlood flood-opacity="0" result="BackgroundImageFix"/><feColorMatrix in="SourceAlpha" result="hardAlpha" type="matrix" values="0 0 0 0 0 0 0 0 0 0 0 0 0 0 0 0 0 0 127 0"/><feOffset dy="9"/><feGaussianBlur stdDeviation="15"/><feColorMatrix type="matrix" values="0 0 0 0 0.593438 0 0 0 0 0.707729 0 0 0 0 0.879167 0 0 0 0.25 0"/><feBlend in2="BackgroundImageFix" mode="normal" result="effect1_dropShadow"/><feBlend in="SourceGraphic" in2="effect1_dropShadow" mode="normal" result="shape"/></filter><filter id="h" color-interpolation-filters="sRGB" filterUnits="userSpaceOnUse" height="118" width="164" x="0" y="49"><feFlood flood-opacity="0" result="BackgroundImageFix"/><feColorMatrix in="SourceAlpha" result="hardAlpha" type="matrix" values="0 0 0 0 0 0 0 0 0 0 0 0 0 0 0 0 0 0 127 0"/><feOffset dx="2" dy="8"/><feGaussianBlur stdDeviation="17.5"/><feColorMatrix type="matrix" values="0 0 0 0 0 0 0 0 0 0.351917 0 0 0 0 0.429167 0 0 0 0.15 0"/><feBlend in2="BackgroundImageFix" mode="normal" result="effect1_dropShadow"/><feBlend in="SourceGraphic" in2="effect1_dropShadow" mode="normal" result="shape"/></filter><filter id="i" color-interpolation-filters="sRGB" filterUnits="userSpaceOnUse" height="123.976" width="123.976" x="0" y="156"><feFlood flood-opacity="0" result="BackgroundImageFix"/><feColorMatrix in="SourceAlpha" result="hardAlpha" type="matrix" values="0 0 0 0 0 0 0 0 0 0 0 0 0 0 0 0 0 0 127 0"/><feOffset dx="2" dy="8"/><feGaussianBlur stdDeviation="17.5"/><feColorMatrix type="matrix" values="0 0 0 0 0 0 0 0 0 0.351917 0 0 0 0 0.429167 0 0 0 0.15 0"/><feBlend in2="BackgroundImageFix" mode="normal" result="effect1_dropShadow"/><feBlend in="SourceGraphic" in2="effect1_dropShadow" mode="normal" result="shape"/></filter><linearGradient id="j"><stop offset="0" stop-color="#ffed49"/><stop offset="1" stop-color="#ffc369"/></linearGradient><linearGradient id="k" gradientUnits="userSpaceOnUse" x1="9.42857" x2="9.42857" xlink:href="#j" y1="4.60746" y2="18.8571"/><linearGradient id="l" gradientUnits="userSpaceOnUse" x1="417.451" x2="417.451" y1="73.902" y2="154.137"><stop offset="0" stop-color="#b0e7c6"/><stop offset="1" stop-color="#5dd1b3"/></linearGradient><linearGradient id="m"><stop offset="0" stop-color="#85beff"/><stop offset="1" stop-color="#5183bb"/></linearGradient><linearGradient id="n" gradientUnits="userSpaceOnUse" x1="321" x2="321" xlink:href="#m" y1="198" y2="233"/><linearGradient id="o" gradientUnits="userSpaceOnUse" x1="87.5" x2="87.5" xlink:href="#j" y1="91.7961" y2="119"/><linearGradient id="p" gradientUnits="userSpaceOnUse" x1="148" x2="148" xlink:href="#m" y1="16" y2="46"/><linearGradient id="q" gradientUnits="userSpaceOnUse" x1="65" x2="65" xlink:href="#m" y1="189" y2="243"/><g filter="url(#a)"><rect fill="#f7fbfd" height="265" rx="15" width="354" x="60" y="27"/></g><path d="m60 42c0-8.2843 6.7157-15 15-15h324c8.284 0 15 6.7157 15 15v14h-354z" fill="#d4e7f0"/><circle cx="79.5" cy="41.5" fill="#004e82" r="4.5"/><circle cx="93.5" cy="41.5" fill="#004e82" opacity=".201758" r="4.5"/><circle cx="107.5" cy="41.5" fill="#004e82" opacity=".201758" r="4.5"/><g filter="url(#b)"><rect fill="url(#k)" height="18.8571" rx="9.42857" transform="matrix(-1 0 0 1 423.857 237)" width="18.8571"/></g><g fill="#d4e7f0"><rect height="170" rx="5" width="274" x="72" y="67"/><rect height="35" opacity=".5" rx="5" width="45" x="357" y="67"/><rect height="35" opacity=".5" rx="5" width="45" x="357" y="112"/><rect height="35" opacity=".5" rx="5" width="45" x="357" y="157"/></g><path d="m231 148.536c2.667 1.54 2.667 5.389 0 6.928l-30 17.321c-2.667 1.539-6-.385-6-3.464v-34.642c0-3.079 3.333-5.003 6-3.464z" fill="#fff"/><rect fill="#d4e7f0" height="4" rx="2" width="274" x="72" y="268"/><rect fill="#ffa077" height="4" rx="2" width="100" x="72" y="268"/><circle cx="171" cy="270" fill="#ffa077" r="6"/><path d="m310.368 251.851v5.701h-1.438v-2.332h-2.825v2.332h-1.438v-5.701h1.438v2.246h2.825v-2.246z" fill="#5183bb"/><path clip-rule="evenodd" d="m315.794 251.851h-2.575v5.7h2.575c.563.01 1.12-.111 1.628-.354.456-.219.84-.566 1.107-.998.521-.93.521-2.066 0-2.996-.269-.43-.652-.776-1.107-.998-.508-.243-1.065-.364-1.628-.354zm1.294 4.143c-.375.33-.864.5-1.362.473h-1.197v-3.532h1.197c.499-.024.987.148 1.362.48.674.725.674 1.853 0 2.579z" fill="#5183bb" fill-rule="evenodd"/><rect fill="#5183bb" height="9.97701" rx="3.97" width="18.5287" x="327.472" y="249"/><path d="m335.753 254.053c0-.591.479-1.069 1.069-1.069s1.069.478 1.069 1.069c0 .59-.479 1.069-1.069 1.069s-1.069-.479-1.069-1.069z" fill="#fff"/><path d="m339.316 254.053c0-.591.479-1.069 1.069-1.069.591 0 1.069.478 1.069 1.069 0 .59-.478 1.069-1.069 1.069-.59 0-1.069-.479-1.069-1.069z" fill="#fff"/><path d="m332.189 254.053c0-.591.479-1.069 1.069-1.069.591 0 1.069.478 1.069 1.069 0 .59-.478 1.069-1.069 1.069-.59 0-1.069-.479-1.069-1.069z" fill="#fff"/><path clip-rule="evenodd" d="m295.274 249h-9.186c-1.151 0-2.088.959-2.088 2.138v6.414c0 1.179.937 2.138 2.088 2.138h9.186c1.152 0 2.088-.959 2.088-2.138v-3.742c0-.295-.234-.534-.522-.534s-.522.239-.522.534v3.742c0 .589-.468 1.069-1.044 1.069h-9.186c-.576 0-1.044-.48-1.044-1.069v-6.414c0-.589.468-1.069 1.044-1.069h9.186c.576 0 1.044.48 1.044 1.069 0 .295.234.534.522.534s.522-.239.522-.534c0-1.179-.936-2.138-2.088-2.138zm-5.737 4.49c-.217 0-.407-.143-.482-.352-.136-.381-.487-.653-.908-.664-.557-.013-1.015.448-1.015 1.016v1.691c0 .555.426 1.021.968 1.034.437.011.813-.27.955-.666.074-.208.264-.349.48-.349h.027c.351 0 .598.354.482.693-.282.816-1.046 1.4-1.941 1.391-1.108-.011-2.015-.975-2.015-2.111v-1.657c0-1.147.895-2.1 2.015-2.111.894-.009 1.658.575 1.94 1.39.117.339-.131.695-.483.695zm4.633-.352c.075.209.265.352.482.352h.024c.351 0 .599-.356.482-.695-.282-.815-1.046-1.399-1.939-1.39-1.121.011-2.016.964-2.016 2.111v1.657c0 1.136.907 2.1 2.016 2.111.894.009 1.658-.575 1.94-1.391.116-.339-.131-.693-.482-.693h-.026c-.217 0-.406.141-.481.349-.142.396-.518.677-.955.666-.542-.013-.968-.479-.968-1.034v-1.691c0-.568.458-1.029 1.015-1.016.421.011.772.283.908.664z" fill="#5183bb" fill-rule="evenodd"/><g filter="url(#c)"><path d="m458 109.102c0-12.3212 0-18.4818-2.398-23.1878-2.109-4.1396-5.475-7.5052-9.614-9.6144-4.706-2.3978-10.867-2.3978-23.188-2.3978h-10.698c-12.321 0-18.482 0-23.188 2.3978-4.139 2.1092-7.505 5.4748-9.614 9.6144-2.398 4.706-2.398 10.8666-2.398 23.1878v9.835c0 12.321 0 18.482 2.398 23.188 2.109 4.14 5.475 7.505 9.614 9.614 4.706 2.398 10.867 2.398 23.188 2.398h2.698c15.121 0 22.682 0 28.458-2.943 5.08-2.588 9.211-6.719 11.799-11.799 2.943-5.776 2.943-13.336 2.943-28.458z" fill="url(#l)"/></g><g filter="url(#d)"><rect fill="#fff" height="79.3726" rx="22" transform="matrix(-1 0 0 1 449.372 67)" width="79.3726"/></g><g filter="url(#e)"><path d="m375 215.5c0-2.322 0-3.483-.128-4.458-.886-6.731-6.183-12.028-12.914-12.914-.975-.128-2.136-.128-4.458-.128h-75.692c-3.542 0-5.313 0-6.762.404-3.709 1.034-6.608 3.933-7.642 7.642-.404 1.449-.404 3.22-.404 6.762 0 4.829 0 7.244.551 9.22 1.41 5.058 5.363 9.011 10.421 10.421 1.976.551 4.391.551 9.22.551h70.308c2.322 0 3.483 0 4.458-.128 6.731-.886 12.028-6.183 12.914-12.914.128-.975.128-2.136.128-4.458z" fill="url(#n)"/></g><g filter="url(#f)"><path clip-rule="evenodd" d="m301.636 226.728-10.607 10.607v-10.607h-11.165c-2.66 0-3.991 0-5.105-.168-6.503-.983-11.608-6.087-12.591-12.591-.168-1.114-.168-2.444-.168-5.105s0-3.991.168-5.105c.983-6.503 6.088-11.608 12.591-12.591 1.114-.168 2.445-.168 5.105-.168h71.456c2.661 0 3.991 0 5.106.168 6.503.983 11.608 6.088 12.59 12.591.169 1.114.169 2.444.169 5.105s0 3.991-.169 5.105c-.982 6.504-6.087 11.608-12.59 12.591-1.115.168-2.445.168-5.105.168z" fill="#fff" fill-rule="evenodd"/></g><path d="m280.913 213v-7.623h4.895v1.177h-3.509v1.881h3.124v1.155h-3.124v2.233h3.773v1.177zm6.379-5.566c.257-.073.591-.143 1.001-.209.411-.066.866-.099 1.364-.099.47 0 .862.066 1.177.198.316.125.565.304.748.539.191.227.323.506.396.836.081.323.121.678.121 1.067v3.234h-1.331v-3.025c0-.308-.022-.568-.066-.781-.036-.22-.102-.396-.198-.528-.088-.139-.212-.238-.374-.297-.154-.066-.344-.099-.572-.099-.168 0-.344.011-.528.033-.183.022-.319.04-.407.055v4.642h-1.331zm7.48 2.541c0 .565.121.979.363 1.243.249.257.568.385.957.385.213 0 .411-.029.594-.088.191-.059.345-.128.462-.209v-2.981c-.095-.022-.213-.04-.352-.055-.139-.022-.315-.033-.528-.033-.484 0-.854.161-1.111.484-.257.315-.385.733-.385 1.254zm3.707 2.442c0 .917-.235 1.588-.704 2.013-.462.425-1.173.638-2.134.638-.352 0-.697-.029-1.034-.088-.33-.059-.631-.136-.902-.231l.242-1.133c.227.095.484.172.77.231.293.059.609.088.946.088.535 0 .917-.11 1.144-.33s.341-.546.341-.979v-.22c-.132.066-.308.132-.528.198-.213.066-.458.099-.737.099-.367 0-.704-.059-1.012-.176-.301-.117-.561-.29-.781-.517-.213-.227-.381-.51-.506-.847-.117-.345-.176-.741-.176-1.188 0-.418.062-.803.187-1.155.132-.352.319-.653.561-.902.249-.249.55-.444.902-.583s.752-.209 1.199-.209c.433 0 .843.033 1.232.099s.719.136.99.209zm3.695.693c-.396-.007-.726-.051-.99-.132-.256-.081-.462-.194-.616-.341-.154-.154-.264-.341-.33-.561-.058-.227-.088-.484-.088-.77v-6.622l1.331-.22v6.589c0 .161.011.297.033.407.03.11.077.205.143.286.066.073.154.132.264.176.118.037.264.066.44.088zm2.606-.11h-1.331v-5.753h1.331zm.143-7.436c0 .249-.081.447-.242.594-.162.147-.352.22-.572.22-.228 0-.422-.073-.583-.22-.162-.147-.242-.345-.242-.594 0-.257.08-.458.242-.605.161-.147.355-.22.583-.22.22 0 .41.073.572.22.161.147.242.348.242.605zm2.996 6.479c.352 0 .609-.04.77-.121.161-.088.242-.235.242-.44 0-.191-.088-.348-.264-.473-.169-.125-.451-.26-.847-.407-.242-.088-.466-.18-.671-.275-.198-.103-.37-.22-.517-.352s-.264-.29-.352-.473c-.081-.191-.121-.422-.121-.693 0-.528.194-.942.583-1.243.389-.308.917-.462 1.584-.462.337 0 .66.033.968.099.308.059.539.117.693.176l-.242 1.078c-.147-.066-.334-.125-.561-.176-.227-.059-.491-.088-.792-.088-.271 0-.491.048-.66.143-.169.088-.253.227-.253.418 0 .095.015.18.044.253.037.073.095.143.176.209.081.059.187.121.319.187.132.059.293.121.484.187.315.117.583.235.803.352.22.11.4.238.539.385.147.139.253.301.319.484s.099.403.099.66c0 .55-.205.968-.616 1.254-.403.279-.983.418-1.738.418-.506 0-.913-.044-1.221-.132-.308-.081-.524-.147-.649-.198l.231-1.111c.198.081.433.158.704.231.279.073.594.11.946.11zm3.586.957v-8.316l1.331-.22v2.849c.147-.051.316-.095.506-.132.198-.037.393-.055.583-.055.462 0 .844.066 1.144.198.308.125.554.304.737.539.184.227.312.502.385.825.081.323.121.682.121 1.078v3.234h-1.331v-3.025c0-.308-.022-.568-.066-.781-.036-.22-.102-.396-.198-.528-.088-.139-.209-.238-.363-.297-.154-.066-.344-.099-.572-.099-.176 0-.355.018-.539.055-.183.037-.319.07-.407.099v4.576zm10.268-3.289c0 .902.136 1.749.407 2.541s.649 1.514 1.133 2.167l-.935.616c-.594-.711-1.063-1.518-1.408-2.42-.345-.909-.517-1.877-.517-2.904s.172-1.991.517-2.893c.345-.909.814-1.72 1.408-2.431l.935.616c-.484.66-.862 1.386-1.133 2.178-.271.785-.407 1.628-.407 2.53zm7.555 3.289c-.102-.301-.209-.598-.319-.891s-.216-.594-.319-.902h-3.212c-.102.308-.209.612-.319.913-.102.293-.205.587-.308.88h-1.441c.286-.814.558-1.566.814-2.255.257-.689.506-1.342.748-1.958.25-.616.495-1.203.737-1.76s.492-1.107.748-1.65h1.309c.257.543.506 1.093.748 1.65s.484 1.144.726 1.76c.25.616.503 1.269.759 1.958.264.689.539 1.441.825 2.255zm-2.244-6.149c-.168.389-.363.862-.583 1.419-.212.557-.436 1.162-.671 1.815h2.508c-.234-.653-.462-1.261-.682-1.826s-.41-1.034-.572-1.408zm9.217 5.973c-.256.066-.59.132-1.001.198-.41.073-.861.11-1.353.11-.462 0-.85-.066-1.166-.198-.308-.132-.557-.315-.748-.55-.183-.235-.315-.513-.396-.836-.08-.33-.121-.689-.121-1.078v-3.223h1.331v3.014c0 .616.088 1.056.264 1.32.184.264.499.396.946.396.162 0 .33-.007.506-.022.184-.015.319-.033.407-.055v-4.653h1.331zm1.628-7.095 1.331-.22v1.738h2.046v1.111h-2.046v2.343c0 .462.074.792.22.99.147.198.396.297.748.297.242 0 .455-.026.638-.077.191-.051.341-.099.451-.143l.22 1.056c-.154.066-.355.132-.605.198-.249.073-.542.11-.88.11-.41 0-.755-.055-1.034-.165-.271-.11-.487-.268-.649-.473-.161-.213-.275-.466-.341-.759-.066-.301-.099-.642-.099-1.023zm9.738 4.389c0 .455-.066.869-.198 1.243s-.319.693-.561.957-.535.469-.88.616c-.337.147-.711.22-1.122.22-.41 0-.784-.073-1.122-.22-.337-.147-.627-.352-.869-.616s-.432-.583-.572-.957c-.132-.374-.198-.788-.198-1.243s.066-.865.198-1.232c.14-.374.33-.693.572-.957.25-.264.543-.466.88-.605.338-.147.708-.22 1.111-.22.404 0 .774.073 1.111.22.345.139.638.341.88.605s.429.583.561.957c.14.367.209.777.209 1.232zm-1.364 0c0-.572-.124-1.023-.374-1.353-.242-.337-.583-.506-1.023-.506s-.784.169-1.034.506c-.242.33-.363.781-.363 1.353 0 .579.121 1.038.363 1.375.25.337.594.506 1.034.506s.781-.169 1.023-.506c.25-.337.374-.796.374-1.375zm3.204-.407c0-.902-.136-1.745-.407-2.53-.271-.792-.649-1.518-1.133-2.178l.935-.616c.594.711 1.063 1.522 1.408 2.431.345.902.517 1.866.517 2.893s-.172 1.995-.517 2.904c-.345.902-.814 1.709-1.408 2.42l-.935-.616c.484-.653.862-1.375 1.133-2.167s.407-1.639.407-2.541z" fill="#004e82"/><g filter="url(#g)"><path d="m134 101c0-2.787 0-4.1805-.185-5.3465-1.016-6.4184-6.05-11.4523-12.468-12.4688-1.166-.1847-2.56-.1847-5.347-.1847h-59.7692c-3.9367 0-5.905 0-7.5033.4981-3.4514 1.0754-6.154 3.778-7.2294 7.2294-.4981 1.5983-.4981 3.5666-.4981 7.5033 0 5.3682 0 8.0522.6792 10.2322 1.4665 4.706 5.1519 8.391 9.8583 9.858 2.1795.679 4.8636.679 10.2317.679h54.2308c2.787 0 4.181 0 5.347-.185 6.418-1.016 11.452-6.05 12.468-12.468.185-1.166.185-2.56.185-5.347z" fill="url(#o)"/></g><g filter="url(#h)"><path clip-rule="evenodd" d="m85.9639 113 11 11v-11h11.5361c3.252 0 4.878 0 6.234-.251 6.106-1.132 10.883-5.909 12.015-12.015.251-1.3557.251-2.9818.251-6.234s0-4.8783-.251-6.2335c-1.132-6.1062-5.909-10.8836-12.015-12.0153-1.356-.2512-2.982-.2512-6.234-.2512h-57c-3.2522 0-4.8783 0-6.2335.2512-6.1062 1.1317-10.8836 5.9091-12.0153 12.0153-.2512 1.3552-.2512 2.9813-.2512 6.2335s0 4.8783.2512 6.234c1.1317 6.106 5.9091 10.883 12.0153 12.015 1.3552.251 2.9813.251 6.2335.251z" fill="#fff" fill-rule="evenodd"/></g><path d="m57.996 98v-8.316h5.256v1.284h-3.744v2.124h3.324v1.284h-3.324v3.624zm9.8087-4.968c-.12-.04-.288-.08-.504-.12-.208-.048-.452-.072-.732-.072-.16 0-.332.016-.516.048-.176.032-.3.06-.372.084v5.028h-1.452v-5.976c.28-.104.628-.2 1.044-.288.424-.096.892-.144 1.404-.144.096 0 .208.008.336.024.128.008.256.024.384.048.128.016.252.04.372.072.12.024.216.048.288.072zm3.4718 3.948c.448 0 .788-.024 1.02-.072v-1.608c-.08-.024-.196-.048-.348-.072s-.32-.036-.504-.036c-.16 0-.324.012-.492.036-.16.024-.308.068-.444.132-.128.064-.232.156-.312.276-.08.112-.12.256-.12.432 0 .344.108.584.324.72.216.128.508.192.876.192zm-.12-5.412c.48 0 .884.06 1.212.18s.588.288.78.504c.2.216.34.48.42.792.088.304.132.64.132 1.008v3.804c-.224.048-.564.104-1.02.168-.448.072-.956.108-1.524.108-.376 0-.72-.036-1.032-.108s-.58-.188-.804-.348c-.216-.16-.388-.368-.516-.624-.12-.256-.18-.572-.18-.948 0-.36.068-.664.204-.912.144-.248.336-.448.576-.6.24-.16.516-.272.828-.336.32-.072.652-.108.996-.108.16 0 .328.012.504.036.176.016.364.048.564.096v-.24c0-.168-.02-.328-.06-.48s-.112-.284-.216-.396c-.096-.12-.228-.212-.396-.276-.16-.064-.364-.096-.612-.096-.336 0-.644.024-.924.072s-.508.104-.684.168l-.18-1.176c.184-.064.452-.128.804-.192s.728-.096 1.128-.096zm4.3222.36c.28-.08.644-.156 1.092-.228s.944-.108 1.488-.108c.512 0 .94.072 1.284.216.344.136.616.332.816.588.208.248.352.552.432.912.088.352.132.74.132 1.164v3.528h-1.452v-3.3c0-.336-.024-.62-.072-.852-.04-.24-.112-.432-.216-.576-.096-.152-.232-.26-.408-.324-.168-.072-.376-.108-.624-.108-.184 0-.376.012-.576.036s-.348.044-.444.06v5.064h-1.452zm9.8995 6.54c.256.12.432.256.528.408.104.152.156.34.156.564 0 .28-.12.52-.36.72s-.6.3-1.08.3c-.384 0-.724-.052-1.02-.156l.168-.864c.08.024.184.052.312.084s.26.048.396.048.24-.024.312-.072c.08-.048.12-.12.12-.216 0-.128-.056-.224-.168-.288-.112-.056-.224-.104-.336-.144l-.12-.036c.032-.104.076-.224.132-.36.056-.128.112-.248.168-.36-.416-.072-.776-.2-1.08-.384s-.556-.416-.756-.696c-.2-.288-.352-.612-.456-.972-.096-.36-.144-.752-.144-1.176 0-.464.072-.896.216-1.296.144-.408.348-.76.612-1.056.272-.296.6-.528.984-.696s.816-.252 1.296-.252c.592 0 1.152.108 1.68.324l-.312 1.188c-.168-.072-.36-.132-.576-.18-.208-.048-.432-.072-.672-.072-.568 0-1 .18-1.296.54-.296.352-.444.852-.444 1.5 0 .624.14 1.12.42 1.488.28.36.752.54 1.416.54.248 0 .492-.024.732-.072s.448-.108.624-.18l.204 1.2c-.144.072-.356.136-.636.192s-.572.092-.876.108c-.032.064-.06.124-.084.18s-.044.104-.06.144zm4.9882-1.488c.448 0 .788-.024 1.02-.072v-1.608c-.08-.024-.196-.048-.348-.072s-.32-.036-.504-.036c-.16 0-.324.012-.492.036-.16.024-.308.068-.444.132-.128.064-.232.156-.312.276-.08.112-.12.256-.12.432 0 .344.108.584.324.72.216.128.508.192.876.192zm-.12-5.412c.48 0 .884.06 1.212.18s.588.288.78.504c.2.216.34.48.42.792.088.304.132.64.132 1.008v3.804c-.224.048-.564.104-1.02.168-.448.072-.956.108-1.524.108-.376 0-.72-.036-1.032-.108s-.58-.188-.804-.348c-.216-.16-.388-.368-.516-.624-.12-.256-.18-.572-.18-.948 0-.36.068-.664.204-.912.144-.248.336-.448.576-.6.24-.16.516-.272.828-.336.32-.072.652-.108.996-.108.16 0 .328.012.504.036.176.016.364.048.564.096v-.24c0-.168-.02-.328-.06-.48s-.112-.284-.216-.396c-.096-.12-.228-.212-.396-.276-.16-.064-.364-.096-.612-.096-.336 0-.644.024-.924.072s-.508.104-.684.168l-.18-1.176c.184-.064.452-.128.804-.192s.728-.096 1.128-.096zm5.7861 6.432h-1.452v-6.276h1.452zm.156-8.112c0 .272-.088.488-.264.648s-.384.24-.624.24c-.248 0-.46-.08-.636-.24s-.264-.376-.264-.648c0-.28.088-.5.264-.66s.388-.24.636-.24c.24 0 .448.08.624.24s.264.38.264.66zm3.2684 7.068c.384 0 .6641-.044.8401-.132.176-.096.264-.256.264-.48 0-.208-.096-.38-.288-.516-.184-.136-.4921-.284-.9241-.444-.264-.096-.508-.196-.732-.3-.216-.112-.404-.24-.564-.384s-.288-.316-.384-.516c-.088-.208-.132-.46-.132-.756 0-.576.212-1.028.636-1.356.424-.336 1-.504 1.728-.504.3681 0 .7201.036 1.0561.108.336.064.588.128.756.192l-.264 1.176c-.16-.072-.364-.136-.612-.192-.248-.064-.536-.096-.8641-.096-.296 0-.536.052-.72.156-.184.096-.276.248-.276.456 0 .104.016.196.048.276.04.08.104.156.192.228.088.064.204.132.348.204.144.064.32.132.5281.204.344.128.636.256.876.384.24.12.436.26.588.42.16.152.276.328.348.528s.108.44.108.72c0 .6-.224 1.056-.672 1.368-.44.304-1.072.456-1.8961.456-.552 0-.996-.048-1.332-.144-.336-.088-.572-.16-.708-.216l.252-1.212c.216.088.472.172.768.252.304.08.648.12 1.032.12z" fill="#004e82"/><path d="m409.445 130.999c13.5 0 24.444-10.944 24.444-24.444 0-13.5001-10.944-24.4442-24.444-24.4442s-24.444 10.9441-24.444 24.4442c0 13.5 10.944 24.444 24.444 24.444z" fill="#54c0eb"/><path d="m414.95 82.6607c-6.056 1.5415-12.663 5.2852-18.389 11.0109-5.505 5.5054-9.469 12.0014-11.01 18.3884-.221-1.432-.441-2.753-.551-4.184 0-.441 0-.881 0-1.322 0-13.5431 10.901-24.554 24.444-24.554h1.432c1.431.1101 2.752.3303 4.074.6607z" fill="#54c0eb"/><path d="m398.214 119.218c-.33-.111-.11-.551-.22-.881-.11-.441-.551-.661-.991-.661-.441 0-.881.22-1.321.11-.661-.11-1.102-.881-1.652-1.321-.661-.551-1.652-.771-2.312-1.431-.331-.441-.441-.991-.661-1.432-.22-.881-.44-1.762-.661-2.643-.11-.22-.11-.44-.33-.66-.11-.22-.33-.22-.55-.441-.991-.66-1.542-2.092-1.212-3.303.221-.881.771-1.652 1.432-2.422.881-1.101 1.872-2.202 2.973-3.083.44-.331.77-.551 1.101-.991.991-.9913 1.101-2.4227.44-3.5238-.22-.3303-.44-.6606-.66-.9909-.331-.5506-.331-1.3213-.551-1.8719-.22-.6607-.881-1.2112-1.431-1.1012l-4.075 2.8628c-1.541 3.3034-2.532 7.157-2.532 11.121 0 9.029 4.955 16.957 12.332 21.141.551-.22 1.101-.551 1.652-.991.22-.11.33-.22.33-.33.441-.661-.33-1.432-.33-2.202 0-.771.881-1.432 1.101-2.203.11-.22.11-.33.22-.55.661-1.322-.661-2.753-2.092-2.202 0-.111 0 0 0 0z" fill="#b0e7c6"/><path d="m402.619 84.7535c-.551.3304-1.322.4405-1.982.5505-.441.1102-.881.1102-1.432.2203-.22 0-.33.1102-.44.1102-.331.1101-.441.4404-.661.7708-.22.4404-.55.9909-.771 1.4314-.33.6607-.77 1.3213-1.431 1.5415-.771.3303-1.652 0-2.092-.6606-.11-.2202-.22-.4405-.331-.7708 2.753-2.4225 6.057-4.1842 9.69-5.0651 0 .1102.11.1102.11.2202.331.5505-.11 1.3213-.66 1.6516z" fill="#b0e7c6"/><path d="m431.027 110.078c-1.211-.33.22-2.642-.11-3.853s-.771-2.313-1.652-3.193c-.88-.881-2.202-1.212-3.303-.661.22.771 1.432.881 1.982 1.541.331.551.22 1.322-.22 1.762-.44.441-.991.881-1.431 1.322-.221.22-.441.44-.441.77 0 .331.33.661.441.991.22.441 0 .991-.441 1.432-.33.33-.771.66-1.211.881-1.321.88-2.202 2.422-2.423 3.963-.11.661-.11 1.212-.22 1.872-.22.661-.771 1.322-1.211 1.872-.55.991-.771 2.092-1.211 3.083-.551 1.322-1.321 2.423-2.312 3.303-.441.441-.991.881-1.652.991-1.321.221-2.643-.88-3.193-2.092-.551-1.101-.661-2.422-.441-3.633.221-1.101.881-2.423.111-3.304-.331-.33-.661-.55-.991-.88-1.212-1.212-.771-3.193-.991-4.845 0-.22-.111-.551-.331-.771-.11-.11-.22-.11-.44-.11-1.321-.22-2.753-.11-4.074-.22-1.322-.22-2.753-.771-3.414-1.982-.55-.991-.55-2.202-.55-3.303 0-.881.11-1.762.55-2.533.551-.991 1.652-1.431 2.643-1.872 1.762-.7705 3.634-1.6514 5.616-1.2109 1.101.2202 2.092.7709 3.193.8809.66.11 1.321 0 1.871-.11 1.872-.3305 3.634-.771 5.396-1.5417.991-.4405 2.202-1.2112 1.982-2.3123-.11-.6606-.771-1.1011-1.432-1.2112-.66-.1101-1.321 0-1.982.3304-.88.3303-1.761.8808-2.422 1.5415-.22.2201-.551.5505-.881.5505-1.211.2202-1.431-2.0921-2.642-1.982.33.4405.22 1.1011-.111 1.4315-.44.3303-1.101.3303-1.541 0-.551-.3304-.771-1.1012-1.432-1.3213-.66-.2202-1.321.2201-1.871.5505-1.102.6606-2.313 1.1011-3.524 1.2111-.771.1102-1.651 0-1.982-.6606-.44-.7708.22-1.7618.991-2.0921.771-.3304 1.652-.3304 2.533-.5505.22-.5506.22-1.1012.22-1.6517-.991-.5505-2.312 0-3.193-.6606-.551-.4405-.771-1.2112-.551-1.8718.22-.6607.661-1.2112 1.322-1.5415.77-.4405 2.092-.3304 2.312.5505.11.4404-.11.7708-.11 1.2111-.11.4405.11.8809.44.991h.551c2.312-.5505 4.734-.991 7.047-1.5415.44-.1101.881-.2202 1.211-.4404.33-.3304.44-.8809.22-1.2112-.44-.6607-1.431 0-2.092.2202-1.101.3303-2.092.1101-2.973-.1102-.44-.1101-1.101-.3303-1.101-.8808 0-.3303.22-.5505.44-.7708 1.762-1.6516 4.405-2.2021 6.717-1.5415 1.211.3303 2.312.991 3.524 1.2112.77.1101 1.541 0 2.312-.2202 6.496 4.0741 10.901 11.0109 11.451 19.0484-.22.331-.55.661-.771.991-.77 1.102.661 4.955-2.202 4.184z" fill="#b0e7c6"/><circle cx="148" cy="31" fill="url(#p)" r="15"/><circle cx="65" cy="216" fill="url(#q)" r="27"/><path d="m144.5 42c8.008 0 14.5-6.4919 14.5-14.5s-6.492-14.5-14.5-14.5-14.5 6.4919-14.5 14.5 6.492 14.5 14.5 14.5z" fill="#fff"/><path d="m159 27.5c0-6.2345-3.934-11.5494-9.456-13.5981v27.1962c5.522-2.0488 9.456-7.3636 9.456-13.5981z" fill="#d80027"/><path d="m130 27.5c0 6.2345 3.935 11.5493 9.457 13.5981v-27.1962c-5.522 2.0487-9.457 7.3636-9.457 13.5981z" fill="#0052b4"/><g filter="url(#i)"><path d="m59.9882 236.976c14.9052 0 26.9882-12.083 26.9882-26.988s-12.083-26.988-26.9882-26.988-26.9882 12.083-26.9882 26.988 12.083 26.988 26.9882 26.988z" fill="#fff"/></g><path clip-rule="evenodd" d="m86.748 206.468h-23.2394-.0001v-23.24c-1.1524-.15-2.3272-.228-3.5203-.228-1.1933 0-2.3679.078-3.5202.228v23.24h-23.2395c-.1501 1.152-.2285 2.327-.2285 3.52s.0784 2.368.2285 3.52h23.2393.0001v23.24c1.1524.15 2.327.228 3.5203.228 1.1931 0 2.3679-.078 3.5202-.228v-23.239-.001h23.2396c.15-1.152.2284-2.327.2284-3.52s-.0784-2.368-.2284-3.52zm-19.7205 10.561 12.0431 12.043c.5539-.554 1.0822-1.133 1.5864-1.733l-10.3106-10.31zm-14.0791 0h.0002v3.318l-10.3106 10.311c-.6-.504-1.1789-1.032-1.7326-1.586zm-.0006-14.081-12.043-12.043c-.5539.553-1.0823 1.132-1.5864 1.732l10.3106 10.311zm26.1229-12.043-12.0432 12.043v-3.319l10.3106-10.311c.6.504 1.1789 1.033 1.7326 1.587z" fill="#d80027" fill-rule="evenodd"/><path clip-rule="evenodd" d="m67.0288 183.93c3.4535.931 6.6324 2.529 9.3906 4.649l-9.3906 9.391zm-33.0991 19.018c.9308-3.453 2.5293-6.633 4.6492-9.391l9.3908 9.391zm47.4664-9.391c2.1198 2.758 3.7185 5.938 4.6492 9.391h-14.0397zm-47.4664 23.472c.9309 3.453 2.5294 6.632 4.6492 9.39l9.3904-9.39zm9.6277 14.368c2.7581 2.12 5.9372 3.719 9.3906 4.65v-14.04zm0-42.818c2.758-2.12 5.937-3.718 9.3905-4.649v14.04zm23.4714 47.468c3.4534-.931 6.6324-2.53 9.3905-4.65l-9.3905-9.39zm14.3673-9.628-9.3905-9.39h14.0397c-.9307 3.453-2.5294 6.632-4.6492 9.39z" fill="#0052b4" fill-rule="evenodd"/></svg>