<svg width="494" height="395" viewBox="0 0 494 395" fill="none" xmlns="http://www.w3.org/2000/svg">
<g filter="url(#filter0_d)">
<rect x="58" y="27" width="271" height="219" rx="15" fill="white"/>
</g>
<path d="M58 42C58 33.7157 64.7157 27 73 27H314C322.284 27 329 33.7157 329 42V51H58V42Z" fill="#EDF5F9"/>
<circle cx="73.6573" cy="40.6573" r="3.6573" fill="#004E82"/>
<circle opacity="0.201758" cx="85.0352" cy="40.6573" r="3.6573" fill="#004E82"/>
<circle opacity="0.201758" cx="96.4132" cy="40.6573" r="3.6573" fill="#004E82"/>
<rect opacity="0.3" x="70" y="63" width="118" height="107" rx="5" fill="#D4E7F0"/>
<rect opacity="0.3" x="70" y="180" width="118" height="46" rx="5" fill="#D4E7F0"/>
<rect opacity="0.5" x="198" y="124" width="118" height="102" rx="5" fill="#D4E7F0"/>
<rect opacity="0.4" x="198" y="63" width="91" height="9" rx="4.5" fill="#D4E7F0"/>
<rect opacity="0.4" x="198" y="82" width="118" height="9" rx="4.5" fill="#D4E7F0"/>
<rect opacity="0.4" x="198" y="100" width="91" height="9" rx="4.5" fill="#D4E7F0"/>
<g filter="url(#filter1_d)">
<rect x="168" y="119" width="271" height="219" rx="15" fill="#F7FBFD"/>
</g>
<path d="M168 134C168 125.716 174.716 119 183 119H424C432.284 119 439 125.716 439 134V143H168V134Z" fill="#D4E7F0"/>
<circle cx="183.657" cy="132.657" r="3.6573" fill="#004E82"/>
<circle opacity="0.201758" cx="195.035" cy="132.657" r="3.6573" fill="#004E82"/>
<circle opacity="0.201758" cx="206.413" cy="132.657" r="3.6573" fill="#004E82"/>
<rect opacity="0.5" x="180" y="155" width="118" height="107" rx="5" fill="#D4E7F0"/>
<rect opacity="0.5" x="180" y="272" width="118" height="46" rx="5" fill="#D4E7F0"/>
<rect opacity="0.5" x="308" y="216" width="118" height="102" rx="5" fill="#D4E7F0"/>
<rect x="308" y="155" width="91" height="9" rx="4.5" fill="#D4E7F0"/>
<rect x="308" y="174" width="118" height="9" rx="4.5" fill="#D4E7F0"/>
<rect x="308" y="192" width="91" height="9" rx="4.5" fill="#D4E7F0"/>
<g filter="url(#filter2_d)">
<g filter="url(#filter3_d)">
<rect width="53.1413" height="53.1413" rx="15" transform="matrix(-1 0 0 1 86.1416 166)" fill="url(#paint0_linear)"/>
</g>
</g>
<path d="M69.7941 184.684H61.7059V181.132C61.7059 179.954 60.7182 179 59.5 179C58.2818 179 57.2941 179.954 57.2941 181.132V184.684H49.2059C47.9876 184.684 47 185.639 47 186.816C47 187.993 47.9876 188.947 49.2059 188.947H50.6774C50.6975 193.547 52.5768 197.742 55.6609 200.83C54.4916 201.298 53.2357 201.614 51.9162 201.748C50.7046 201.872 49.8259 202.921 49.9534 204.091C50.0726 205.186 51.0299 206 52.1444 206C52.2216 206 52.2996 205.996 52.3781 205.988C54.9696 205.725 57.379 204.937 59.5001 203.743C61.6213 204.937 64.0306 205.725 66.6222 205.988C66.7007 205.996 66.7785 206 66.8559 206C67.9703 206 68.9276 205.186 69.0469 204.091C69.1744 202.921 68.2957 201.872 67.0841 201.748C65.7646 201.614 64.5087 201.298 63.3394 200.83C66.4234 197.742 68.3026 193.547 68.3229 188.947H69.7941C71.0124 188.947 72 187.993 72 186.816C72 185.639 71.0124 184.684 69.7941 184.684ZM59.5 198.485C56.7947 196.124 55.1121 192.718 55.09 188.947H63.9099C63.8879 192.718 62.2053 196.124 59.5 198.485Z" fill="#004E82"/>
<g filter="url(#filter4_d)">
<rect width="79.3726" height="79.3726" rx="22" transform="matrix(-1 0 0 1 456.372 96)" fill="url(#paint1_linear)"/>
</g>
<path d="M419.142 118.493C418.572 116.988 417.148 115.998 415.554 116C413.962 115.998 412.541 116.984 411.969 118.486L400.206 149.705C399.59 151.339 400.402 153.169 402.019 153.791C403.635 154.414 405.445 153.593 406.061 151.959L408.222 146.223H422.798L424.936 151.95C425.545 153.603 427.396 154.409 428.973 153.795C430.591 153.177 431.408 151.35 430.797 149.714L419.142 118.493ZM410.609 139.89L415.544 126.793L420.433 139.89H410.609Z" fill="white"/>
<path d="M58 219V261C58 269.284 64.7157 276 73 276H168" stroke="#5183BB" stroke-width="1.5" stroke-dasharray="3 3"/>
<g filter="url(#filter5_d)">
<rect width="18.8571" height="18.8571" rx="9.42857" transform="matrix(-1 0 0 1 338.858 40)" fill="url(#paint2_linear)"/>
</g>
<path d="M339 50H392C405.807 50 417 61.1929 417 75V96" stroke="#5183BB" stroke-width="1.5"/>
<path d="M254.981 226.288L252.555 198.503C252.488 197.745 251.87 197.163 251.129 197.163H246.126V194.843C246.126 190.518 242.705 187 238.499 187C234.294 187 230.873 190.518 230.873 194.843V197.163H225.867C225.126 197.163 224.508 197.745 224.441 198.503L222.006 226.397C221.97 226.809 222.104 227.217 222.375 227.521C222.646 227.826 223.029 228 223.431 228H253.565C253.566 228 253.568 228 253.569 228C254.359 228 255 227.341 255 226.528C255 226.447 254.993 226.366 254.981 226.288ZM233.736 194.843C233.736 192.141 235.873 189.943 238.5 189.943C241.127 189.943 243.264 192.141 243.264 194.843V197.163H233.736V194.843ZM224.996 225.057L227.175 200.107H230.873V202.738C230.873 203.551 231.514 204.21 232.305 204.21C233.095 204.21 233.736 203.551 233.736 202.738V200.107H243.264V202.738C243.264 203.551 243.905 204.21 244.695 204.21C245.486 204.21 246.126 203.551 246.126 202.738V200.107H249.821L252 225.057H224.996Z" fill="#5183BB"/>
<path d="M351.037 264.22C359.689 260.76 365.399 256.584 366.014 256.215C366.224 256.075 366.47 256 366.723 256H372.004C372.71 256 373.282 256.572 373.282 257.278V259.833C373.282 260.538 373.855 261.111 374.56 261.111H379.671C380.375 261.111 380.949 260.538 380.949 259.833C380.949 257.72 382.668 256 384.782 256H387.337C388.043 256 388.615 256.572 388.615 257.278V277.722C388.615 278.428 388.043 279 387.337 279H346.278C345.573 279 345 278.428 345 277.722V270.96C345 265.495 350.426 264.637 351.037 264.22ZM384.782 258.556C384.077 258.556 383.504 259.129 383.504 259.833C383.504 261.947 381.784 263.667 379.671 263.667H374.56C372.446 263.667 370.726 261.947 370.726 259.833V258.556H367.11C366.672 258.846 366.293 259.104 365.657 259.516L367.626 261.485C368.125 261.984 368.125 262.793 367.626 263.292C367.127 263.791 366.318 263.792 365.819 263.292L363.431 260.904C362.583 261.414 361.726 261.908 360.86 262.386L362.515 264.041C363.014 264.54 363.014 265.349 362.515 265.848C362.016 266.347 361.207 266.347 360.708 265.848L358.499 263.639C357.598 264.098 356.688 264.54 355.771 264.963L357.404 266.597C357.903 267.096 357.903 267.905 357.404 268.404C356.905 268.903 356.096 268.903 355.597 268.404L353.262 266.068C352.096 266.558 351.78 266.672 349.966 267.401C348.502 267.987 347.556 269.384 347.556 270.96V271.333H378.522C379.115 268.421 381.696 266.222 384.782 266.222H386.06V258.556H384.782ZM386.06 268.778H384.782C383.116 268.778 381.696 269.846 381.168 271.333H386.06V268.778ZM386.06 276.444V273.889H347.556V276.444H386.06Z" fill="#5183BB"/>
<circle cx="253" cy="192" r="10" fill="#F76E6E"/>
<path d="M256.012 195.689H250.023V194.43L252.174 192.256C252.811 191.604 253.227 191.152 253.422 190.902C253.617 190.648 253.758 190.414 253.844 190.199C253.93 189.984 253.973 189.762 253.973 189.531C253.973 189.188 253.877 188.932 253.686 188.764C253.498 188.596 253.246 188.512 252.93 188.512C252.598 188.512 252.275 188.588 251.963 188.74C251.65 188.893 251.324 189.109 250.984 189.391L250 188.225C250.422 187.865 250.771 187.611 251.049 187.463C251.326 187.314 251.629 187.201 251.957 187.123C252.285 187.041 252.652 187 253.059 187C253.594 187 254.066 187.098 254.477 187.293C254.887 187.488 255.205 187.762 255.432 188.113C255.658 188.465 255.771 188.867 255.771 189.32C255.771 189.715 255.701 190.086 255.561 190.434C255.424 190.777 255.209 191.131 254.916 191.494C254.627 191.857 254.115 192.375 253.381 193.047L252.279 194.084V194.166H256.012V195.689Z" fill="white"/>
<g filter="url(#filter6_d)">
<rect width="34" height="34" rx="17" transform="matrix(-1 0 0 1 431 298)" fill="#5183BB"/>
</g>
<path fill-rule="evenodd" clip-rule="evenodd" d="M416 307H412V313H406V317H412V323H416V317H422V313H416V307Z" fill="#F3F8FC"/>
<defs>
<filter id="filter0_d" x="25" y="0" width="341" height="289" filterUnits="userSpaceOnUse" color-interpolation-filters="sRGB">
<feFlood flood-opacity="0" result="BackgroundImageFix"/>
<feColorMatrix in="SourceAlpha" type="matrix" values="0 0 0 0 0 0 0 0 0 0 0 0 0 0 0 0 0 0 127 0" result="hardAlpha"/>
<feOffset dx="2" dy="8"/>
<feGaussianBlur stdDeviation="17.5"/>
<feColorMatrix type="matrix" values="0 0 0 0 0 0 0 0 0 0.351917 0 0 0 0 0.429167 0 0 0 0.15 0"/>
<feBlend mode="normal" in2="BackgroundImageFix" result="effect1_dropShadow"/>
<feBlend mode="normal" in="SourceGraphic" in2="effect1_dropShadow" result="shape"/>
</filter>
<filter id="filter1_d" x="129" y="86" width="361" height="309" filterUnits="userSpaceOnUse" color-interpolation-filters="sRGB">
<feFlood flood-opacity="0" result="BackgroundImageFix"/>
<feColorMatrix in="SourceAlpha" type="matrix" values="0 0 0 0 0 0 0 0 0 0 0 0 0 0 0 0 0 0 127 0" result="hardAlpha"/>
<feOffset dx="6" dy="12"/>
<feGaussianBlur stdDeviation="22.5"/>
<feColorMatrix type="matrix" values="0 0 0 0 0 0 0 0 0 0.351917 0 0 0 0 0.429167 0 0 0 0.15 0"/>
<feBlend mode="normal" in2="BackgroundImageFix" result="effect1_dropShadow"/>
<feBlend mode="normal" in="SourceGraphic" in2="effect1_dropShadow" result="shape"/>
</filter>
<filter id="filter2_d" x="0" y="139" width="123.141" height="123.141" filterUnits="userSpaceOnUse" color-interpolation-filters="sRGB">
<feFlood flood-opacity="0" result="BackgroundImageFix"/>
<feColorMatrix in="SourceAlpha" type="matrix" values="0 0 0 0 0 0 0 0 0 0 0 0 0 0 0 0 0 0 127 0" result="hardAlpha"/>
<feOffset dx="2" dy="8"/>
<feGaussianBlur stdDeviation="17.5"/>
<feColorMatrix type="matrix" values="0 0 0 0 0 0 0 0 0 0.351917 0 0 0 0 0.429167 0 0 0 0.15 0"/>
<feBlend mode="normal" in2="BackgroundImageFix" result="effect1_dropShadow"/>
<feBlend mode="normal" in="SourceGraphic" in2="effect1_dropShadow" result="shape"/>
</filter>
<filter id="filter3_d" x="3" y="145" width="113.141" height="113.141" filterUnits="userSpaceOnUse" color-interpolation-filters="sRGB">
<feFlood flood-opacity="0" result="BackgroundImageFix"/>
<feColorMatrix in="SourceAlpha" type="matrix" values="0 0 0 0 0 0 0 0 0 0 0 0 0 0 0 0 0 0 127 0" result="hardAlpha"/>
<feOffset dy="9"/>
<feGaussianBlur stdDeviation="15"/>
<feColorMatrix type="matrix" values="0 0 0 0 0.593438 0 0 0 0 0.707729 0 0 0 0 0.879167 0 0 0 0.25 0"/>
<feBlend mode="normal" in2="BackgroundImageFix" result="effect1_dropShadow"/>
<feBlend mode="normal" in="SourceGraphic" in2="effect1_dropShadow" result="shape"/>
</filter>
<filter id="filter4_d" x="344" y="69" width="149.373" height="149.373" filterUnits="userSpaceOnUse" color-interpolation-filters="sRGB">
<feFlood flood-opacity="0" result="BackgroundImageFix"/>
<feColorMatrix in="SourceAlpha" type="matrix" values="0 0 0 0 0 0 0 0 0 0 0 0 0 0 0 0 0 0 127 0" result="hardAlpha"/>
<feOffset dx="2" dy="8"/>
<feGaussianBlur stdDeviation="17.5"/>
<feColorMatrix type="matrix" values="0 0 0 0 0 0 0 0 0 0.351917 0 0 0 0 0.429167 0 0 0 0.15 0"/>
<feBlend mode="normal" in2="BackgroundImageFix" result="effect1_dropShadow"/>
<feBlend mode="normal" in="SourceGraphic" in2="effect1_dropShadow" result="shape"/>
</filter>
<filter id="filter5_d" x="290.001" y="19" width="78.8571" height="78.8571" filterUnits="userSpaceOnUse" color-interpolation-filters="sRGB">
<feFlood flood-opacity="0" result="BackgroundImageFix"/>
<feColorMatrix in="SourceAlpha" type="matrix" values="0 0 0 0 0 0 0 0 0 0 0 0 0 0 0 0 0 0 127 0" result="hardAlpha"/>
<feOffset dy="9"/>
<feGaussianBlur stdDeviation="15"/>
<feColorMatrix type="matrix" values="0 0 0 0 0.593438 0 0 0 0 0.707729 0 0 0 0 0.879167 0 0 0 0.25 0"/>
<feBlend mode="normal" in2="BackgroundImageFix" result="effect1_dropShadow"/>
<feBlend mode="normal" in="SourceGraphic" in2="effect1_dropShadow" result="shape"/>
</filter>
<filter id="filter6_d" x="367" y="277" width="94" height="94" filterUnits="userSpaceOnUse" color-interpolation-filters="sRGB">
<feFlood flood-opacity="0" result="BackgroundImageFix"/>
<feColorMatrix in="SourceAlpha" type="matrix" values="0 0 0 0 0 0 0 0 0 0 0 0 0 0 0 0 0 0 127 0" result="hardAlpha"/>
<feOffset dy="9"/>
<feGaussianBlur stdDeviation="15"/>
<feColorMatrix type="matrix" values="0 0 0 0 0.593438 0 0 0 0 0.707729 0 0 0 0 0.879167 0 0 0 0.25 0"/>
<feBlend mode="normal" in2="BackgroundImageFix" result="effect1_dropShadow"/>
<feBlend mode="normal" in="SourceGraphic" in2="effect1_dropShadow" result="shape"/>
</filter>
<linearGradient id="paint0_linear" x1="26.5706" y1="12.9843" x2="26.5706" y2="53.1413" gradientUnits="userSpaceOnUse">
<stop stop-color="#FFED49"/>
<stop offset="1" stop-color="#FFC369"/>
</linearGradient>
<linearGradient id="paint1_linear" x1="39.6863" y1="0" x2="39.6863" y2="79.3726" gradientUnits="userSpaceOnUse">
<stop stop-color="#B0E7C6"/>
<stop offset="1" stop-color="#5DD1B3"/>
</linearGradient>
<linearGradient id="paint2_linear" x1="9.42857" y1="0" x2="9.42857" y2="18.8571" gradientUnits="userSpaceOnUse">
<stop stop-color="#85BEFF"/>
<stop offset="1" stop-color="#5183BB"/>
</linearGradient>
</defs>
</svg>
