<svg width="35" height="36" viewBox="0 0 35 36" fill="none" xmlns="http://www.w3.org/2000/svg">
<path d="M11.6667 2.91675V7.29175" stroke="#417BD2" stroke-width="3" stroke-miterlimit="10" stroke-linecap="round" stroke-linejoin="round"/>
<path d="M23.3333 2.91675V7.29175" stroke="#417BD2" stroke-width="3" stroke-miterlimit="10" stroke-linecap="round" stroke-linejoin="round"/>
<path d="M5.10416 13.2563H29.8958" stroke="#417BD2" stroke-width="3" stroke-miterlimit="10" stroke-linecap="round" stroke-linejoin="round"/>
<path d="M32.0833 27.7083C32.0833 28.8021 31.7771 29.8375 31.2375 30.7125C30.2312 32.4042 28.3792 33.5417 26.25 33.5417C24.7771 33.5417 23.4354 33.0021 22.4146 32.0833C21.9625 31.7042 21.5687 31.2375 21.2625 30.7125C20.7229 29.8375 20.4167 28.8021 20.4167 27.7083C20.4167 24.4854 23.0271 21.875 26.25 21.875C28 21.875 29.5604 22.6479 30.625 23.8583C31.5292 24.8937 32.0833 26.2354 32.0833 27.7083Z" stroke="#417BD2" stroke-width="3" stroke-miterlimit="10" stroke-linecap="round" stroke-linejoin="round"/>
<path d="M23.975 27.7082L25.4188 29.152L28.525 26.2791" stroke="#417BD2" stroke-width="3" stroke-linecap="round" stroke-linejoin="round"/>
<path d="M30.625 12.3959V23.8584C29.5604 22.648 28 21.8751 26.25 21.8751C23.0271 21.8751 20.4167 24.4855 20.4167 27.7084C20.4167 28.8022 20.7229 29.8376 21.2625 30.7126C21.5688 31.2376 21.9625 31.7042 22.4146 32.0834H11.6667C6.5625 32.0834 4.375 29.1667 4.375 24.7917V12.3959C4.375 8.02091 6.5625 5.10425 11.6667 5.10425H23.3333C28.4375 5.10425 30.625 8.02091 30.625 12.3959Z" stroke="#417BD2" stroke-width="3" stroke-miterlimit="10" stroke-linecap="round" stroke-linejoin="round"/>
<path d="M17.4934 19.9792H17.5065" stroke="#417BD2" stroke-width="3" stroke-linecap="round" stroke-linejoin="round"/>
<path d="M12.0959 19.9792H12.109" stroke="#417BD2" stroke-width="3" stroke-linecap="round" stroke-linejoin="round"/>
<path d="M12.0959 24.3542H12.109" stroke="#417BD2" stroke-width="3" stroke-linecap="round" stroke-linejoin="round"/>
</svg>
