<svg width="35" height="35" viewBox="0 0 35 35" fill="none" xmlns="http://www.w3.org/2000/svg">
<path d="M32.0833 17.5001C32.0833 9.45008 25.55 2.91675 17.5 2.91675C9.44999 2.91675 2.91666 9.45008 2.91666 17.5001C2.91666 25.5501 9.44999 32.0834 17.5 32.0834" stroke="#417BD2" stroke-width="3" stroke-linecap="round" stroke-linejoin="round"/>
<path d="M11.6667 4.375H13.125C10.2813 12.8917 10.2813 22.1083 13.125 30.625H11.6667" stroke="#417BD2" stroke-width="3" stroke-linecap="round" stroke-linejoin="round"/>
<path d="M21.875 4.375C23.2896 8.63333 24.0042 13.0667 24.0042 17.5" stroke="#417BD2" stroke-width="3" stroke-linecap="round" stroke-linejoin="round"/>
<path d="M4.375 23.3333V21.875C8.63333 23.2896 13.0667 24.0042 17.5 24.0042" stroke="#417BD2" stroke-width="3" stroke-linecap="round" stroke-linejoin="round"/>
<path d="M4.375 13.125C12.8917 10.2813 22.1083 10.2813 30.625 13.125" stroke="#417BD2" stroke-width="3" stroke-linecap="round" stroke-linejoin="round"/>
<path d="M26.5417 31.2084C29.119 31.2084 31.2083 29.119 31.2083 26.5417C31.2083 23.9644 29.119 21.875 26.5417 21.875C23.9643 21.875 21.875 23.9644 21.875 26.5417C21.875 29.119 23.9643 31.2084 26.5417 31.2084Z" stroke="#417BD2" stroke-width="3" stroke-linecap="round" stroke-linejoin="round"/>
<path d="M32.0833 32.0833L30.625 30.625" stroke="#417BD2" stroke-width="3" stroke-linecap="round" stroke-linejoin="round"/>
</svg>
