<svg width="35" height="35" viewBox="0 0 35 35" fill="none" xmlns="http://www.w3.org/2000/svg">
<path d="M28.175 14.5834H6.83959C4.68126 14.5834 2.93124 12.8188 2.93124 10.675V6.83962C2.93124 4.68129 4.69584 2.93127 6.83959 2.93127H28.175C30.3333 2.93127 32.0833 4.69587 32.0833 6.83962V10.675C32.0833 12.8188 30.3188 14.5834 28.175 14.5834Z" stroke="#417BD2" stroke-width="3" stroke-linecap="round" stroke-linejoin="round"/>
<path d="M28.175 32.0834H6.83959C4.68126 32.0834 2.93124 30.3188 2.93124 28.175V24.3396C2.93124 22.1813 4.69584 20.4313 6.83959 20.4313H28.175C30.3333 20.4313 32.0833 22.1959 32.0833 24.3396V28.175C32.0833 30.3188 30.3188 32.0834 28.175 32.0834Z" stroke="#417BD2" stroke-width="3" stroke-linecap="round" stroke-linejoin="round"/>
<path d="M8.75 7.29163V10.2083" stroke="#417BD2" stroke-width="3" stroke-linecap="round" stroke-linejoin="round"/>
<path d="M14.5833 7.29163V10.2083" stroke="#417BD2" stroke-width="3" stroke-linecap="round" stroke-linejoin="round"/>
<path d="M8.75 24.7916V27.7083" stroke="#417BD2" stroke-width="3" stroke-linecap="round" stroke-linejoin="round"/>
<path d="M14.5833 24.7916V27.7083" stroke="#417BD2" stroke-width="3" stroke-linecap="round" stroke-linejoin="round"/>
<path d="M20.4167 8.75H26.25" stroke="#417BD2" stroke-width="3" stroke-linecap="round" stroke-linejoin="round"/>
<path d="M20.4167 26.25H26.25" stroke="#417BD2" stroke-width="3" stroke-linecap="round" stroke-linejoin="round"/>
</svg>
