<svg width="32" height="32" viewBox="0 0 32 32" fill="none" xmlns="http://www.w3.org/2000/svg">
<rect width="32" height="32" rx="10" fill="#417BD2"/>
<path d="M13.2358 8.5H18.7642C18.9852 8.5 19.1972 8.5878 19.3535 8.74408L23.2559 12.6465C23.4122 12.8028 23.5 13.0148 23.5 13.2358V18.7642C23.5 18.9852 23.4122 19.1972 23.2559 19.3535L19.3535 23.2559C19.1972 23.4122 18.9852 23.5 18.7642 23.5H13.2358C13.0148 23.5 12.8028 23.4122 12.6465 23.2559L8.74408 19.3534C8.5878 19.1972 8.5 18.9852 8.5 18.7642V13.2358C8.5 13.0148 8.5878 12.8028 8.74408 12.6465L12.6465 8.74408C12.8028 8.5878 13.0148 8.5 13.2358 8.5Z" stroke="white" stroke-width="2" stroke-miterlimit="10" stroke-linecap="round" stroke-linejoin="round"/>
<path d="M18.5 14.3333L15.1667 17.6667L13.5 16" stroke="white" stroke-width="2" stroke-linecap="round" stroke-linejoin="round"/>
</svg>
