<svg width="25" height="25" viewBox="0 0 25 25" fill="none" xmlns="http://www.w3.org/2000/svg">
<circle cx="12.5" cy="12.5" r="12.5" fill="#CDF2F8"/>
<path fill-rule="evenodd" clip-rule="evenodd" d="M15.3048 5.1908C15.6604 5.1908 15.9487 5.4791 15.9487 5.83474V6.47867H17.2366C17.9479 6.47867 18.5245 7.05528 18.5245 7.76655V9.69837V16.7817C18.5245 17.493 17.9479 18.0696 17.2366 18.0696H8.22147C7.5102 18.0696 6.93359 17.493 6.93359 16.7817V9.69837V7.76655C6.93359 7.05528 7.5102 6.47867 8.22147 6.47867H9.50935V5.83474C9.50935 5.4791 9.79765 5.1908 10.1533 5.1908C10.5089 5.1908 10.7972 5.4791 10.7972 5.83474V6.47867H14.6609V5.83474C14.6609 5.4791 14.9492 5.1908 15.3048 5.1908ZM10.1539 7.76655C10.1537 7.76655 10.1535 7.76655 10.1533 7.76655C10.1531 7.76655 10.1529 7.76655 10.1527 7.76655H8.22147V9.05443H17.2366V7.76655H15.3054L15.3048 7.76655L15.3042 7.76655H10.1539ZM17.2366 10.3423H8.22147V16.7817H17.2366V10.3423ZM15.1162 12.7295C15.3677 12.478 15.3677 12.0703 15.1162 11.8188C14.8647 11.5673 14.457 11.5673 14.2055 11.8188L12.0851 13.9392L11.2526 13.1067C11.0011 12.8552 10.5934 12.8552 10.3419 13.1067C10.0904 13.3581 10.0904 13.7659 10.3419 14.0173L11.6298 15.3052C11.8812 15.5567 12.289 15.5567 12.5404 15.3052L15.1162 12.7295Z" fill="#009CB7"/>
</svg>
