<svg width="32" height="32" viewBox="0 0 32 32" fill="none" xmlns="http://www.w3.org/2000/svg">
<rect width="32" height="32" rx="10" fill="url(#paint0_linear_18494_1496)"/>
<path fill-rule="evenodd" clip-rule="evenodd" d="M9.33464 11.8334L9.33464 21.8334L22.668 21.8334L22.668 11.8334L9.33464 11.8334ZM8.5013 10.1667L22.668 10.1667C23.5884 10.1667 24.3346 10.9129 24.3346 11.8334L24.3346 21.8334C24.3346 22.7538 23.5884 23.5 22.668 23.5H9.33464C8.41416 23.5 7.66797 22.7538 7.66797 21.8334L7.66797 11C7.66797 10.779 7.75577 10.567 7.91205 10.4108C8.06833 10.2545 8.28029 10.1667 8.5013 10.1667Z" fill="white"/>
<path fill-rule="evenodd" clip-rule="evenodd" d="M16.0013 13.5C16.4615 13.5 16.8346 13.8731 16.8346 14.3333L16.8346 19.3333C16.8346 19.7936 16.4615 20.1667 16.0013 20.1667C15.5411 20.1667 15.168 19.7936 15.168 19.3333L15.168 14.3333C15.168 13.8731 15.5411 13.5 16.0013 13.5Z" fill="white"/>
<path fill-rule="evenodd" clip-rule="evenodd" d="M12.808 17.2044C13.0633 16.8215 13.5807 16.718 13.9636 16.9733L16.0014 18.3318L18.0391 16.9733C18.4221 16.718 18.9395 16.8215 19.1948 17.2044C19.4501 17.5874 19.3466 18.1048 18.9636 18.3601L16.4636 20.0267C16.1837 20.2133 15.8191 20.2133 15.5391 20.0267L13.0391 18.36C12.6562 18.1048 12.5527 17.5874 12.808 17.2044Z" fill="white"/>
<path fill-rule="evenodd" clip-rule="evenodd" d="M7.66797 10.1667C7.66797 9.24619 8.41416 8.5 9.33464 8.5H13.9895C14.4315 8.5 14.8554 8.67559 15.168 8.98816L16.5906 10.4107C16.916 10.7362 16.916 11.2638 16.5906 11.5893C16.2651 11.9147 15.7375 11.9147 15.412 11.5893L13.9895 10.1667H9.33464V11C9.33464 11.4602 8.96154 11.8333 8.5013 11.8333C8.04106 11.8333 7.66797 11.4602 7.66797 11V10.1667Z" fill="white"/>
<defs>
<linearGradient id="paint0_linear_18494_1496" x1="16" y1="0" x2="16" y2="32" gradientUnits="userSpaceOnUse">
<stop stop-color="#45B4C8"/>
<stop offset="1" stop-color="#2FA0B3"/>
</linearGradient>
</defs>
</svg>
