<svg width="25" height="25" viewBox="0 0 25 25" fill="none" xmlns="http://www.w3.org/2000/svg">
<circle cx="12.5" cy="12.5" r="12.5" fill="#CDF2F8"/>
<path fill-rule="evenodd" clip-rule="evenodd" d="M8.07903 6.81824C7.3817 6.81824 6.81641 7.38353 6.81641 8.08086V11.9728C6.81641 17.0671 11.1542 18.9825 12.0909 19.3382L12.315 18.7481L12.0909 19.3382C12.3554 19.4387 12.6411 19.4387 12.9056 19.3382L12.6814 18.7481L12.9056 19.3382C13.8422 18.9825 18.18 17.0671 18.18 11.9728V8.08086C18.18 7.38353 17.6147 6.81824 16.9174 6.81824H8.07903ZM8.07903 8.08086L16.9174 8.08086V11.9728C16.9174 16.1357 13.4393 17.7761 12.4982 18.1421C11.5571 17.7761 8.07903 16.1357 8.07903 11.9728V8.08086ZM14.8383 11.6831C15.0848 11.4365 15.0848 11.0368 14.8383 10.7903C14.5917 10.5437 14.192 10.5437 13.9454 10.7903L11.8666 12.8691L11.0504 12.0529C10.8038 11.8063 10.4041 11.8063 10.1576 12.0529C9.91102 12.2994 9.91102 12.6991 10.1576 12.9457L11.4202 14.2083C11.6667 14.4549 12.0665 14.4549 12.313 14.2083L14.8383 11.6831Z" fill="#009CB7"/>
</svg>
