<svg width="24" height="24" viewBox="0 0 24 24" fill="none" xmlns="http://www.w3.org/2000/svg">
<path d="M24 7.38461C24 3.3062 20.6938 0 16.6154 0H7.38461C3.3062 0 0 3.30621 0 7.38462V16.6154C0 20.6938 3.30621 24 7.38462 24H16.6154C20.6938 24 24 20.6938 24 16.6154V7.38461Z" fill="#213B8B"/>
<path fill-rule="evenodd" clip-rule="evenodd" d="M12.2831 5.77095L12.2134 5.5553C12.1465 5.34875 11.856 5.34875 11.7893 5.5553L11.7195 5.77095C11.6896 5.86316 11.6041 5.92575 11.5074 5.92575H11.2819C11.0659 5.92575 10.9762 6.20355 11.1509 6.33117L11.3334 6.46444C11.4115 6.52153 11.4443 6.6227 11.4144 6.71506L11.3446 6.93057C11.2779 7.13711 11.513 7.30882 11.6878 7.18119L11.8702 7.04793C11.9485 6.99084 12.0543 6.99084 12.1324 7.04793L12.3149 7.18119C12.4896 7.30882 12.7247 7.13711 12.658 6.93057L12.5883 6.71506C12.5583 6.6227 12.5911 6.52153 12.6692 6.46444L12.8517 6.33117C13.0266 6.20355 12.9367 5.92575 12.7207 5.92575H12.4952C12.3986 5.92575 12.313 5.86331 12.2831 5.77095ZM14.9589 6.49737L14.8891 6.28186C14.8224 6.07532 14.5318 6.07532 14.4651 6.28186L14.3953 6.49737C14.3654 6.58973 14.2798 6.65231 14.1832 6.65231H13.9577C13.7417 6.65231 13.652 6.93011 13.8267 7.05774L14.0092 7.191C14.0873 7.24809 14.1201 7.34927 14.0902 7.44163L14.0204 7.65728C13.9537 7.86382 14.1888 8.03553 14.3635 7.9079L14.546 7.77464C14.6243 7.71755 14.7301 7.71755 14.8082 7.77464L14.9907 7.9079C15.1654 8.03553 15.4005 7.86382 15.3338 7.65728L15.264 7.44163C15.2341 7.34927 15.2668 7.24809 15.345 7.191L15.5275 7.05774C15.7023 6.93011 15.6125 6.65231 15.3965 6.65231H15.171C15.0744 6.65231 14.9887 6.58973 14.9589 6.49737ZM9.49461 6.28186L9.56435 6.49737C9.59426 6.58973 9.67983 6.65231 9.77646 6.65231H10.0019C10.2179 6.65231 10.3078 6.93011 10.133 7.05774L9.95047 7.191C9.87238 7.24809 9.83959 7.34927 9.86951 7.44163L9.93925 7.65728C10.006 7.86382 9.77086 8.03553 9.59613 7.9079L9.41365 7.77464C9.33556 7.71755 9.22972 7.71755 9.15149 7.77464L8.96901 7.9079C8.79429 8.03553 8.55917 7.86382 8.62589 7.65728L8.69564 7.44163C8.72555 7.34927 8.69276 7.24809 8.61468 7.191L8.43219 7.05774C8.25747 6.93011 8.3472 6.65231 8.56319 6.65231H8.78868C8.88531 6.65231 8.97088 6.58973 9.00079 6.49737L9.07053 6.28186C9.13726 6.07532 9.42788 6.07532 9.49461 6.28186ZM7.25185 8.65163L7.18211 8.43613C7.11524 8.22958 6.82461 8.22958 6.75803 8.43613L6.68829 8.65163C6.65838 8.74399 6.57281 8.80658 6.47618 8.80658H6.25069C6.0347 8.80658 5.94497 9.08438 6.11969 9.212L6.30217 9.34526C6.38026 9.40236 6.41305 9.50353 6.38314 9.59589L6.31339 9.8114C6.24667 10.0179 6.48179 10.1896 6.65651 10.062L6.83899 9.92876C6.91722 9.87167 7.02306 9.87167 7.10115 9.92876L7.28364 10.062C7.45836 10.1896 7.69347 10.0179 7.62675 9.8114L7.557 9.59589C7.52709 9.50353 7.55988 9.40236 7.63797 9.34526L7.82045 9.212C7.99532 9.08438 7.90544 8.80658 7.68945 8.80658H7.46396C7.36733 8.80658 7.28177 8.74399 7.25185 8.65163ZM17.2212 8.43613L17.2909 8.65164C17.3208 8.744 17.4064 8.80658 17.503 8.80658H17.7285C17.9445 8.80658 18.0344 9.08438 17.8595 9.21201L17.677 9.34527C17.5989 9.40236 17.5662 9.50354 17.5961 9.5959L17.6658 9.8114C17.7325 10.0179 17.4974 10.1897 17.3227 10.062L17.1402 9.92877C17.062 9.87167 16.9563 9.87167 16.8781 9.92877L16.6956 10.062C16.5208 10.1897 16.2857 10.0179 16.3525 9.8114L16.4222 9.5959C16.4521 9.50354 16.4193 9.40236 16.3412 9.34527L16.1587 9.21201C15.984 9.08438 16.0738 8.80658 16.2898 8.80658H16.5152C16.6119 8.80658 16.6974 8.744 16.7274 8.65164L16.7971 8.43613C16.8638 8.22959 17.1544 8.22959 17.2212 8.43613ZM12.2831 17.1459L12.2134 16.9303C12.1465 16.7238 11.856 16.7238 11.7893 16.9303L11.7195 17.1459C11.6896 17.2383 11.6041 17.3007 11.5074 17.3007H11.2819C11.0659 17.3007 10.9762 17.5785 11.1509 17.7062L11.3334 17.8394C11.4115 17.8965 11.4443 17.9977 11.4144 18.0901L11.3446 18.3056C11.2779 18.5121 11.513 18.6838 11.6878 18.5562L11.8702 18.4229C11.9485 18.3658 12.0543 18.3658 12.1324 18.4229L12.3149 18.5562C12.4896 18.6838 12.7247 18.5121 12.658 18.3056L12.5883 18.0901C12.5583 17.9977 12.5911 17.8965 12.6692 17.8394L12.8517 17.7062C13.0266 17.5785 12.9367 17.3007 12.7207 17.3007H12.4952C12.3986 17.3007 12.313 17.2383 12.2831 17.1459ZM9.32273 16.157L9.39248 16.3725C9.42239 16.4649 9.50795 16.5273 9.60459 16.5273H9.83007C10.0461 16.5273 10.1359 16.8051 9.96108 16.9328L9.77859 17.066C9.70051 17.1231 9.66772 17.2243 9.69763 17.3167L9.76738 17.5323C9.8341 17.7388 9.59898 17.9106 9.42426 17.7829L9.24177 17.6497C9.16354 17.5926 9.05785 17.5926 8.97962 17.6497L8.79713 17.7829C8.62241 17.9106 8.38729 17.7388 8.45402 17.5323L8.52376 17.3167C8.55367 17.2243 8.52089 17.1231 8.4428 17.066L8.26031 16.9328C8.08559 16.8051 8.17533 16.5273 8.39132 16.5273H8.6168C8.71344 16.5273 8.799 16.4648 8.82891 16.3725L8.89866 16.157C8.96538 15.9505 9.25601 15.9505 9.32273 16.157ZM15.2245 16.3725L15.1548 16.157C15.088 15.9505 14.7974 15.9505 14.7307 16.157L14.6609 16.3725C14.631 16.4648 14.5455 16.5273 14.4488 16.5273H14.2233C14.0074 16.5273 13.9176 16.8051 14.0923 16.9328L14.2748 17.066C14.3529 17.1231 14.3857 17.2243 14.3558 17.3167L14.286 17.5323C14.2193 17.7389 14.4544 17.9106 14.6292 17.7829L14.8117 17.6497C14.8899 17.5926 14.9956 17.5926 15.0738 17.6497L15.2563 17.7829C15.431 17.9106 15.6661 17.7389 15.5994 17.5323L15.5297 17.3167C15.4998 17.2243 15.5324 17.1231 15.6106 17.066L15.7931 16.9328C15.968 16.8051 15.8781 16.5273 15.6621 16.5273H15.4366C15.34 16.5273 15.2544 16.4649 15.2245 16.3725ZM17.8735 11.243L17.9433 11.4585C17.9732 11.5508 18.0587 11.6133 18.1554 11.6133H18.3809C18.5968 11.6133 18.6867 11.8911 18.5119 12.0187L18.3294 12.152C18.2511 12.2091 18.2185 12.3102 18.2484 12.4026L18.3182 12.6183C18.3849 12.8248 18.1498 12.9965 17.975 12.8689L17.7926 12.7356C17.7143 12.6785 17.6086 12.6785 17.5304 12.7356L17.3479 12.8689C17.1732 12.9965 16.9381 12.8248 17.0048 12.6183L17.0745 12.4026C17.1045 12.3102 17.0717 12.2091 16.9936 12.152L16.8111 12.0187C16.6364 11.8911 16.7261 11.6133 16.9421 11.6133H17.1676C17.2642 11.6133 17.3498 11.5507 17.3797 11.4585L17.4494 11.243C17.516 11.0364 17.8068 11.0364 17.8735 11.243ZM17.1034 14.2476L17.0337 14.0319C16.9669 13.8254 16.6762 13.8254 16.6096 14.0319L16.5398 14.2476C16.5099 14.3398 16.4244 14.4024 16.3277 14.4024H16.1023C15.8863 14.4024 15.7965 14.6802 15.9713 14.8078L16.1537 14.941C16.2318 14.9981 16.2646 15.0993 16.2347 15.1917L16.165 15.4072C16.0982 15.6137 16.3333 15.7854 16.5081 15.6578L16.6906 15.5245C16.7688 15.4675 16.8745 15.4675 16.9527 15.5245L17.1352 15.6578C17.3099 15.7854 17.545 15.6137 17.4783 15.4072L17.4086 15.1917C17.3787 15.0993 17.4113 14.9981 17.4895 14.941L17.672 14.8078C17.8469 14.6802 17.757 14.4024 17.541 14.4024H17.3155C17.2189 14.4024 17.1333 14.3399 17.1034 14.2476ZM7.4243 14.0319L7.49404 14.2476C7.52395 14.3399 7.60952 14.4024 7.70615 14.4024H7.93164C8.14763 14.4024 8.23751 14.6802 8.06264 14.8078L7.88016 14.941C7.80207 14.9981 7.76928 15.0993 7.79919 15.1917L7.86894 15.4072C7.93566 15.6137 7.70054 15.7854 7.52582 15.6578L7.34334 15.5245C7.26525 15.4675 7.15941 15.4675 7.08118 15.5245L6.89869 15.6578C6.72397 15.7854 6.48885 15.6137 6.55558 15.4072L6.62532 15.1917C6.65523 15.0993 6.62245 14.9981 6.54436 14.941L6.36188 14.8078C6.18715 14.6802 6.27689 14.4024 6.49288 14.4024H6.71836C6.815 14.4024 6.90056 14.3398 6.93048 14.2476L7.00022 14.0319C7.06694 13.8254 7.35757 13.8254 7.4243 14.0319ZM6.62685 11.4585L6.55711 11.243C6.49038 11.0364 6.19961 11.0364 6.13303 11.243L6.06329 11.4585C6.03338 11.5507 5.94781 11.6133 5.85118 11.6133H5.62569C5.4097 11.6133 5.31997 11.8911 5.49469 12.0187L5.67717 12.152C5.75526 12.2091 5.78805 12.3103 5.75814 12.4026L5.68839 12.6183C5.62167 12.8248 5.85678 12.9965 6.03151 12.8689L6.21399 12.7356C6.29222 12.6785 6.39792 12.6785 6.47615 12.7356L6.65863 12.8689C6.83336 12.9965 7.06847 12.8248 7.00175 12.6183L6.932 12.4026C6.90209 12.3103 6.93474 12.2091 7.01297 12.152L7.19545 12.0187C7.37032 11.8911 7.28044 11.6133 7.06445 11.6133H6.83896C6.74233 11.6133 6.65662 11.5509 6.62685 11.4585Z" fill="#F2C004"/>
</svg>
