<svg width="24" height="24" viewBox="0 0 24 24" fill="none" xmlns="http://www.w3.org/2000/svg">
<path d="M24 7.38461C24 3.3062 20.6938 0 16.6154 0H7.38461C3.3062 0 0 3.30621 0 7.38462V16.6154C0 20.6938 3.30621 24 7.38462 24H16.6154C20.6938 24 24 20.6938 24 16.6154V7.38461Z" fill="#417BD2"/>
<path d="M11.9164 19.0993C11.9227 19.5457 11.929 19.871 11.9353 20.0305C11.9416 20.0496 11.9416 20.0751 11.9353 20.0942C11.9353 20.1198 11.9353 20.1389 11.9353 20.1389C11.9353 20.2282 11.9479 20.3175 11.9732 20.4004C11.9984 20.3175 12.011 20.2282 12.011 20.1389C12.011 20.107 12.0236 19.6414 12.0426 18.8952C12.0363 18.9016 12.03 18.9079 12.03 18.9143C11.9858 18.9717 11.9479 19.0355 11.9164 19.0993ZM10.6039 9.78747C10.7048 9.67905 10.7995 9.55149 10.8689 9.41755C10.8184 9.53236 10.6228 9.96606 10.8121 10.0043C11.0204 10.0426 11.2538 9.97881 11.6766 9.43669C11.664 8.74149 11.6514 8.13558 11.645 7.67637H11.4179C11.4053 7.67637 11.399 7.67637 11.3863 7.67637C11.2601 7.67637 11.0519 7.66362 10.9131 7.45314C10.7616 7.22354 10.7553 6.98755 10.749 6.81535C10.7427 6.56661 10.6796 6.11377 10.3704 5.85865C10.1559 5.68645 9.57535 5.55251 9.039 5.76936C8.86232 5.83952 8.50896 6.02448 8.1619 6.19669C7.8464 6.35614 7.44256 6.55385 7.31636 6.55385C7.52459 6.45818 7.80223 6.31787 8.10511 6.14566C8.45217 5.95432 8.81815 5.75023 9.00114 5.67369C9.36712 5.527 10.0675 5.48236 10.4272 5.77574C10.7679 6.05637 10.8374 6.5411 10.8437 6.80259C10.85 6.9748 10.8563 7.18527 10.9888 7.39574C11.1087 7.57432 11.298 7.57432 11.4116 7.57432H11.4368H11.6387C11.6387 7.51692 11.6387 7.4659 11.6387 7.4085C11.4368 7.42125 11.1466 7.43401 11.0204 7.15976C10.8689 6.8281 11.033 5.97984 10.5282 5.62267C10.0234 5.26551 9.21568 5.3548 8.49634 5.77574C7.7833 6.19031 6.83679 6.73243 5.66944 7.2044C4.50208 7.67637 3.77642 7.86771 3.6376 7.88684C3.50509 7.91236 3.74487 8.00165 4.24337 8.0144C4.74186 8.02716 5.15832 7.98889 5.15832 7.98889L8.81815 6.30511C8.81815 6.30511 5.66313 7.89322 5.3981 8.06543C5.13308 8.23763 4.91854 8.29503 4.93747 8.45448C4.9564 8.61393 5.15832 8.5948 5.71361 8.58204C6.26889 8.56929 6.38878 8.51826 6.57808 8.46086C6.76738 8.40346 8.81815 7.44677 8.81815 7.44677C8.81815 7.44677 6.62225 8.55015 6.30675 8.80527C5.99125 9.06039 6.33199 9.1433 6.54653 9.14968C6.76738 9.15606 7.35422 9.12417 7.68234 8.95834C8.01046 8.79251 9.03269 8.12921 9.03269 8.12921C9.03269 8.12921 8.02308 8.86267 7.82747 9.0285C7.66972 9.16244 7.58769 9.27724 7.62555 9.41755C7.68234 9.59614 7.98522 9.577 8.38906 9.43031C8.38906 9.43031 8.80553 9.28362 8.96328 9.1433C9.12103 8.99661 9.56273 8.60118 9.56273 8.60118C9.56273 8.60118 9.039 9.14968 8.90649 9.38566C8.78029 9.62165 8.75505 9.67905 8.81815 9.81299C8.90649 10.0043 9.57535 9.80661 9.76465 9.60251C9.90347 9.44307 10.036 9.27724 10.1559 9.09865C10.1559 9.09865 9.95395 9.43031 9.90978 9.62165C9.86561 9.81299 9.81513 9.96606 9.99813 9.98519C10.2 10.0171 10.3893 10.0235 10.6039 9.78747ZM11.8533 14.1309C11.8722 14.1181 11.8911 14.1053 11.9101 14.0926C11.9479 14.0671 11.9795 14.0479 12.0047 14.0224C12.0552 13.9905 12.1057 13.9523 12.1562 13.9204C12.1625 13.5568 12.1751 13.1869 12.1814 12.8234C12.0804 12.7787 11.9732 12.7341 11.8596 12.6894C11.8533 12.6894 11.847 12.6831 11.8407 12.6831C11.828 12.6767 11.8217 12.6767 11.8091 12.6703C11.7334 12.6448 11.664 12.6129 11.5819 12.5874C11.4873 12.5491 11.3926 12.5172 11.298 12.479C10.667 12.817 10.5408 12.9765 10.5408 13.289C10.5408 13.7291 10.9131 13.9268 11.5567 14.3413C11.6577 14.2648 11.7586 14.1946 11.8533 14.1309ZM11.0771 13.3464C11.0771 13.3464 11.033 13.0657 11.746 12.7405C11.7649 12.7341 11.7839 12.7213 11.8028 12.715C11.8091 13.155 11.8154 13.5951 11.828 14.0352C11.4747 13.7928 11.0771 13.5632 11.0771 13.3464ZM12.1562 18.7613C12.1246 18.7995 12.0931 18.8378 12.0615 18.8697C12.2445 19.1184 12.2319 19.3608 12.1309 19.6733C12.2256 19.5649 12.4149 19.2906 12.2571 18.9335C12.2256 18.8761 12.194 18.8187 12.1562 18.7613ZM11.8659 16.1463C11.9353 16.2165 12.0173 16.2994 12.0994 16.3823C12.1498 16.4333 12.2003 16.4843 12.2571 16.5417C12.2634 16.5481 12.276 16.5545 12.2887 16.5672C12.7178 16.1909 13.109 15.8338 13.109 15.3873C13.109 15.0365 12.7745 14.7176 12.4401 14.4625C12.4086 14.4816 12.377 14.5008 12.3455 14.5263C12.2697 14.5773 12.2003 14.622 12.1372 14.6666C12.1372 14.6666 12.1309 14.6666 12.1309 14.673C12.1183 14.6857 12.0994 14.6921 12.0867 14.7049C11.9984 14.7687 11.9164 14.8261 11.8407 14.8835C11.8533 15.3108 11.8596 15.7381 11.8659 16.1463ZM12.1372 14.7368C12.5537 15.0429 12.7178 15.2406 12.7178 15.4575C12.7178 15.6807 12.4843 15.9422 12.1057 16.3249C12.112 15.8146 12.1246 15.2853 12.1372 14.7368ZM14.4404 8.60755C14.4404 8.60755 14.8821 9.00299 15.0398 9.14968C15.1976 9.29637 15.6141 9.43669 15.6141 9.43669C16.0179 9.58338 16.3208 9.60251 16.3776 9.42393C16.4217 9.28362 16.3334 9.16243 16.1757 9.03488C15.98 8.86905 14.9704 8.13558 14.9704 8.13558C14.9704 8.13558 15.9927 8.79889 16.3208 8.96472C16.6489 9.13055 17.2357 9.16244 17.4566 9.15606C17.6774 9.14968 18.0119 9.06677 17.6964 8.81165C17.3809 8.55653 15.185 7.45314 15.185 7.45314C15.185 7.45314 17.2294 8.41621 17.425 8.46724C17.6143 8.52464 17.7342 8.56928 18.2895 8.58842C18.8448 8.60117 19.0404 8.62031 19.0657 8.46086C19.0909 8.30779 18.87 8.25039 18.605 8.0718C18.34 7.8996 15.185 6.31149 15.185 6.31149L18.8448 7.99527C18.8448 7.99527 19.2613 8.03354 19.7598 8.02078C20.2582 8.00803 20.498 7.91873 20.3655 7.89322C20.233 7.86771 19.501 7.68275 18.3337 7.21078C17.1663 6.73881 16.2198 6.20306 15.5068 5.78212C14.7938 5.36755 13.9798 5.27188 13.475 5.62905C12.9702 5.98621 13.1342 6.8281 12.9828 7.16614C12.8566 7.44039 12.5663 7.42763 12.3644 7.41488C12.3644 7.4659 12.3644 7.5233 12.3581 7.5807H12.5663H12.5916C12.7051 7.5807 12.8944 7.5807 13.0143 7.40212C13.1468 7.19803 13.1531 6.98117 13.1595 6.80897C13.1658 6.54747 13.2352 6.06275 13.5759 5.78212C13.9356 5.48873 14.636 5.53338 15.002 5.68007C15.185 5.75023 15.551 5.95432 15.898 6.15204C16.2009 6.32425 16.4785 6.46456 16.6868 6.56023C16.5543 6.56023 16.1567 6.36251 15.8412 6.20306C15.5005 6.02448 15.1471 5.8459 14.9641 5.77574C14.4278 5.55889 13.8472 5.69283 13.6327 5.86503C13.3172 6.12015 13.2604 6.57299 13.2541 6.82173C13.2478 6.99393 13.2415 7.23629 13.09 7.45952C12.9575 7.66999 12.7493 7.68275 12.6168 7.68275C12.6042 7.68275 12.5979 7.68275 12.5852 7.68275H12.3581C12.3455 8.14196 12.3328 8.74149 12.3202 9.42393C12.7493 9.97881 12.9954 10.049 13.1973 10.0043C13.3866 9.96606 13.1973 9.53236 13.1405 9.41755C13.2162 9.55149 13.3046 9.67267 13.4055 9.78747C13.6138 10.0235 13.8094 10.0171 13.9987 9.99157C14.188 9.96606 14.1312 9.81936 14.087 9.62803C14.0429 9.43669 13.8409 9.10503 13.8409 9.10503C13.9608 9.27724 14.0933 9.44944 14.2322 9.60889C14.4215 9.81299 15.0903 10.0171 15.1787 9.81936C15.2355 9.6918 15.2165 9.62803 15.0903 9.39204C14.9704 9.15606 14.4404 8.60755 14.4404 8.60755ZM12.011 6.6559C12.112 6.6559 12.2129 6.62401 12.295 6.56661C12.377 6.50921 12.4464 6.42629 12.4843 6.337C12.5221 6.24133 12.5348 6.13928 12.5158 6.03724C12.4969 5.93519 12.4464 5.8459 12.377 5.76936C12.3076 5.69921 12.2129 5.64818 12.112 5.62905C12.011 5.60991 11.9101 5.61629 11.8154 5.66094C11.7208 5.69921 11.6387 5.76936 11.5883 5.85228C11.5315 5.93519 11.4999 6.03724 11.4999 6.13928C11.4999 6.20944 11.5125 6.27322 11.5378 6.337C11.563 6.40078 11.6009 6.45818 11.6514 6.50283C11.7018 6.55385 11.7523 6.59212 11.8154 6.61763C11.8722 6.64314 11.9416 6.6559 12.011 6.6559ZM13.6895 10.5337C13.6895 10.5337 13.6769 10.1765 13.1027 10.1383C12.5158 10.1 12.4906 10.3551 12.5032 10.4508C12.5474 10.4508 12.5852 10.4635 12.5852 10.4763C12.5852 10.489 12.5537 10.5018 12.5158 10.5018C12.5474 10.5975 12.6357 10.7123 12.8881 10.8398C13.0964 10.9419 13.1973 10.9355 13.3172 10.9164C13.3172 10.9164 13.456 10.9993 13.456 11.1332C13.456 11.2608 13.2352 11.5095 12.2003 12.0325C12.2634 9.21346 12.3202 6.73881 12.3202 6.73881H12.3833C12.4086 6.73881 12.4338 6.72606 12.4527 6.70692C12.4717 6.68779 12.4843 6.66228 12.4843 6.63677V6.60488C12.4843 6.59212 12.4843 6.57936 12.478 6.56661C12.4717 6.55385 12.4654 6.5411 12.4527 6.53472C12.3959 6.5985 12.3328 6.64952 12.2571 6.68779C12.1814 6.72606 12.0994 6.73881 12.0173 6.73881C11.9353 6.73881 11.8533 6.71968 11.7776 6.68779C11.7018 6.6559 11.6324 6.5985 11.5819 6.53472C11.5693 6.54747 11.563 6.55385 11.5567 6.56661C11.5504 6.57936 11.5504 6.59212 11.5504 6.60488V6.63677C11.5504 6.66228 11.563 6.68779 11.5819 6.70692C11.6009 6.72606 11.6261 6.73881 11.6514 6.73881H11.7145C11.7145 6.73881 11.7586 9.1433 11.8028 11.9113C11.8911 11.956 11.9795 12.0006 12.0804 12.0516C12.0931 12.058 12.112 12.0644 12.1246 12.0708C12.3581 12.1856 12.5537 12.2813 12.7178 12.3705C13.273 12.1537 13.8157 11.905 13.9798 11.5542C14.27 10.9036 13.6895 10.5337 13.6895 10.5337ZM12.9197 10.387C12.8566 10.387 12.8061 10.3551 12.8061 10.3168C12.8061 10.2786 12.8566 10.2467 12.9197 10.2467C12.9828 10.2467 13.0333 10.2786 13.0333 10.3168C13.0333 10.3551 12.9828 10.387 12.9197 10.387ZM11.9164 18.4615C11.9669 18.3977 12.011 18.3339 12.0615 18.2765C12.0678 17.913 12.0804 17.5048 12.0867 17.0647C12.0236 17.0009 11.9542 16.9372 11.8785 16.867C11.8533 16.8479 11.8343 16.8224 11.8091 16.8032C11.7776 16.7713 11.746 16.7458 11.7145 16.7203C11.5378 16.8861 11.1907 17.2561 11.1907 17.575C11.1907 17.9513 11.5504 18.3339 11.8217 18.6082C11.847 18.5508 11.8785 18.5061 11.9164 18.4615ZM11.8785 16.9435C11.8911 17.4857 11.8974 17.9831 11.9038 18.4105C11.6955 18.1298 11.4747 17.8428 11.4747 17.6451C11.4747 17.4602 11.5819 17.2497 11.8785 16.9435ZM12.0236 12.1346C10.7932 11.535 10.5408 11.2608 10.5408 11.1268C10.5408 10.9929 10.6796 10.91 10.6796 10.91C10.7995 10.9355 10.9005 10.9355 11.1087 10.8335C11.3611 10.7123 11.4494 10.5911 11.481 10.4954C11.4431 10.4954 11.4116 10.4827 11.4116 10.4699C11.4116 10.4572 11.4494 10.4444 11.4936 10.4444V10.438C11.4999 10.3424 11.4684 10.0936 10.8878 10.1319C10.3136 10.1702 10.301 10.5273 10.301 10.5273C10.301 10.5273 9.72048 10.9036 10.0234 11.5414C10.2884 12.109 11.5315 12.4088 12.2508 12.7341C12.9638 13.0594 12.9197 13.34 12.9197 13.34C12.9197 13.5824 12.4401 13.8375 12.0615 14.1053C11.6829 14.3732 10.8815 14.8388 10.8815 15.3873C10.8815 15.8912 11.38 16.2802 11.8659 16.7139C12.3581 17.1476 12.5158 17.4091 12.5158 17.6515C12.5158 17.9831 11.9732 18.4296 11.6955 18.9845C11.4179 19.5394 11.9669 20.4004 11.7965 19.9476C11.6198 19.4947 11.7145 19.1758 11.9416 18.8569C12.2193 18.4679 12.8124 18.0852 12.8124 17.5686C12.8124 17.1349 12.1877 16.6246 12.1877 16.6246C11.6324 16.0634 11.2791 15.7445 11.2791 15.4639C11.2791 15.1832 11.5441 14.9345 12.2887 14.4434C13.0269 13.9587 13.4623 13.7673 13.4623 13.2953C13.4623 12.8808 13.2541 12.7341 12.0236 12.1346ZM11.0771 10.2531C11.1402 10.2531 11.1907 10.285 11.1907 10.3232C11.1907 10.3615 11.1402 10.3934 11.0771 10.3934C11.014 10.3934 10.9636 10.3615 10.9636 10.3232C10.9636 10.285 11.014 10.2531 11.0771 10.2531Z" fill="white"/>
</svg>
