<svg width="25" height="25" viewBox="0 0 25 25" fill="none" xmlns="http://www.w3.org/2000/svg">
<circle cx="12.5" cy="12.5" r="12.5" fill="#CDF2F8"/>
<path fill-rule="evenodd" clip-rule="evenodd" d="M8.90245 8.45023C8.90245 8.26537 9.07172 7.89538 9.80829 7.52676C10.4999 7.18064 11.5079 6.94484 12.6625 6.94484C13.817 6.94484 14.8251 7.18064 15.5167 7.52676C16.2524 7.89497 16.4221 8.26455 16.4225 8.44962C16.4225 8.44982 16.4225 8.45003 16.4225 8.45023C16.4225 8.45047 16.4225 8.45071 16.4225 8.45096C16.4221 8.63606 16.2523 9.00556 15.5167 9.37371C14.8251 9.71982 13.817 9.95562 12.6625 9.95562C11.5079 9.95562 10.4999 9.71982 9.80829 9.37371C9.07172 9.00508 8.90245 8.63509 8.90245 8.45023ZM8.90245 10.5954C8.97942 10.6394 9.05734 10.681 9.13568 10.7202C10.0771 11.1913 11.3251 11.461 12.6625 11.461C13.9999 11.461 15.2478 11.1913 16.1893 10.7202C16.2676 10.681 16.3455 10.6394 16.4225 10.5954V12.2137V12.2142C16.4222 12.3992 16.2526 12.7689 15.5167 13.1372C14.8251 13.4833 13.817 13.7191 12.6625 13.7191C11.5079 13.7191 10.4999 13.4833 9.80829 13.1372C9.07235 12.7689 8.90274 12.3992 8.90245 12.2142L8.90245 12.2137V10.5954ZM17.9265 8.45023V12.2137V15.9772C17.9265 17.0394 17.0857 17.7985 16.1893 18.2471C15.2478 18.7183 13.9999 18.988 12.6625 18.988C11.3251 18.988 10.0771 18.7183 9.13568 18.2471C8.23922 17.7985 7.39844 17.0394 7.39844 15.9772V12.2137V8.45023C7.39844 7.38799 8.23922 6.62893 9.13568 6.18029C10.0771 5.70914 11.3251 5.43945 12.6625 5.43945C13.9999 5.43945 15.2478 5.70914 16.1893 6.18029C17.0857 6.62893 17.9265 7.38799 17.9265 8.45023ZM16.1893 14.4836C16.2676 14.4444 16.3455 14.4029 16.4225 14.3589V15.9772C16.4225 16.162 16.2532 16.532 15.5167 16.9007C14.8251 17.2468 13.817 17.4826 12.6625 17.4826C11.5079 17.4826 10.4999 17.2468 9.80829 16.9007C9.07248 16.5324 8.9028 16.1628 8.90245 15.9778L8.90245 15.9772L8.90245 14.3589C8.97942 14.4029 9.05734 14.4444 9.13568 14.4836C10.0771 14.9548 11.3251 15.2245 12.6625 15.2245C13.9999 15.2245 15.2478 14.9548 16.1893 14.4836Z" fill="#009CB7"/>
</svg>
