<svg fill="none" height="157" viewBox="0 0 157 157" width="157" xmlns="http://www.w3.org/2000/svg" xmlns:xlink="http://www.w3.org/1999/xlink"><filter id="a" color-interpolation-filters="sRGB" filterUnits="userSpaceOnUse" height="157" width="157" x="0" y="0"><feFlood flood-opacity="0" result="BackgroundImageFix"/><feColorMatrix in="SourceAlpha" result="hardAlpha" type="matrix" values="0 0 0 0 0 0 0 0 0 0 0 0 0 0 0 0 0 0 127 0"/><feOffset dy="9"/><feGaussianBlur stdDeviation="15"/><feColorMatrix type="matrix" values="0 0 0 0 0.593438 0 0 0 0 0.707729 0 0 0 0 0.879167 0 0 0 0.25 0"/><feBlend in2="BackgroundImageFix" mode="normal" result="effect1_dropShadow"/><feBlend in="SourceGraphic" in2="effect1_dropShadow" mode="normal" result="shape"/></filter><filter id="b" color-interpolation-filters="sRGB" filterUnits="userSpaceOnUse" height="43.3208" width="43.3208" x="49.8115" y="46.3285"><feFlood flood-opacity="0" result="BackgroundImageFix"/><feColorMatrix in="SourceAlpha" result="hardAlpha" type="matrix" values="0 0 0 0 0 0 0 0 0 0 0 0 0 0 0 0 0 0 127 0"/><feOffset dx="2" dy="2"/><feGaussianBlur stdDeviation="2"/><feColorMatrix type="matrix" values="0 0 0 0 0.0846528 0 0 0 0 0.150363 0 0 0 0 0.383333 0 0 0 0.25 0"/><feBlend in2="BackgroundImageFix" mode="normal" result="effect1_dropShadow"/><feBlend in="SourceGraphic" in2="effect1_dropShadow" mode="normal" result="shape"/></filter><linearGradient id="c" gradientUnits="userSpaceOnUse" x1="89.6384" x2="89.6384" y1="61.6792" y2="97"><stop offset="0" stop-color="#b0e7c6"/><stop offset="1" stop-color="#5dd1b3"/></linearGradient><linearGradient id="d" gradientUnits="userSpaceOnUse" x1="69.4719" x2="69.4719" y1="48.3285" y2="83.6493"><stop offset="0" stop-color="#85beff"/><stop offset="1" stop-color="#5183bb"/></linearGradient><linearGradient id="e" gradientUnits="userSpaceOnUse" x1="94.4297" x2="94.4297" y1="45.6232" y2="59.9216"><stop offset="0" stop-color="#ffed49"/><stop offset="1" stop-color="#ffc369"/></linearGradient><g filter="url(#a)"><rect fill="#fff" height="97" rx="25" width="97" x="30" y="21"/></g><path d="m72.2773 76.4011v10.863c0 2.0006 1.6357 3.6227 3.6546 3.6227h16.5619l7.5382 6.1132v-6.1132h3.312c2.019 0 3.655-1.6221 3.655-3.6227v-21.9623c0-2.0005-1.636-3.6226-3.655-3.6226h-17.1272z" fill="url(#c)"/><g filter="url(#b)"><path d="m69.4717 48.3285c-9.7533 0-17.6602 7.9069-17.6602 17.6602 0 3.8809 1.2527 7.4685 3.3745 10.3829l-2.177 4.7829 5.3878-1.4084v-.0022c3.0291 2.4422 6.8811 3.9054 11.0749 3.9054 9.7537 0 17.6606-7.907 17.6606-17.6606 0-9.7533-7.9069-17.6602-17.6606-17.6602z" fill="url(#d)"/></g><path clip-rule="evenodd" d="m92.5834 69.9954 1.2121-.0013 4.8031 12.7271-2.6239.9902-1.1404-3.0214h-2.2509v-.0001.0005h-2.2425l-1.1517 3.0238-2.6208-.9981 4.8441-12.7191 1.1708-.0012zm0 4.8065v.0005l-1.1743 3.0835h.9038l.0002-.0005h1.4629l-1.178-3.1216z" fill="#fff" fill-rule="evenodd"/><path clip-rule="evenodd" d="m69.3985 64.0214h-2.0608c.1972 1.5612.8987 2.9251 2.0608 3.9939v.003l.0007-.0031c1.1621-1.0686 1.8636-2.4325 2.0608-3.9937h-2.0608l-.0007-.0047zm0-5.626v-.0058h-1.3893v2.8532h-5.9605v2.7786h2.4938c.1918 2.0831 1.0305 3.9808 2.4247 5.4913-1.2041.4781-2.5855.7325-4.0639.7325h-1.0303v2.7786h1.0303c2.4138 0 4.6558-.5592 6.4952-1.5989v-.0033l.0007.0033c1.8394 1.0397 4.0813 1.5989 6.4952 1.5989v-2.7786c-1.4784 0-2.8599-.2544-4.0639-.7325 1.3942-1.5105 2.2329-3.4082 2.4247-5.4913h2.4938v-2.7785h-5.9605v-2.8532h-1.3893z" fill="#fff" fill-rule="evenodd"/><path d="m97.801 61.7888v.818c0 1.86-1.5101 3.3677-3.3722 3.3677s-3.3722-1.5077-3.3722-3.3677v-.818z" fill="#48578b"/><path d="m102.859 49.4196c0 2.0556-.737 3.9389-1.962 5.4003-1.0367 1.237-1.594 2.8052-1.594 4.4188l-4.8733.6829-4.8734-.6829c0-1.6136-.5573-3.1823-1.5941-4.4193-1.2248-1.4619-1.9622-3.3442-1.9622-5.3993-.0005-4.6529 3.7506-8.4094 8.4091-8.4201h.0206c4.656 0 8.4293 3.7696 8.4293 8.4196z" fill="url(#e)"/><path d="m89.5566 59.2386h9.7468v3.3682h-9.7468z" fill="#5183bb"/><path d="m93 59v-7.5c0-.8284.6716-1.5 1.5-1.5.8284 0 1.5.6716 1.5 1.5v7.5" stroke="#fff"/></svg>