<svg width="93" height="68" viewBox="0 0 93 68" fill="none" xmlns="http://www.w3.org/2000/svg">
<path d="M80.9267 66.4617H1.08039C0.463026 66.4617 0 66.8279 0 67.2307C0 67.6702 0.514473 67.9998 1.08039 67.9998H80.8752C81.4926 67.9998 81.9556 67.6336 81.9556 67.2307C82.0071 66.8279 81.4926 66.4617 80.9267 66.4617Z" fill="#D7F1F9"/>
<path d="M65.5577 7.78418H12.2074C9.19685 7.78418 6.77856 10.2027 6.77856 13.2134V49.7869C6.77856 52.7977 9.19685 55.2162 12.2074 55.2162H65.5577C68.5682 55.2162 70.9865 52.7977 70.9865 49.7869V13.2134C70.9865 10.252 68.5682 7.78418 65.5577 7.78418Z" fill="#5183BB"/>
<path d="M12.0101 41.1989C10.8257 41.1989 9.83862 40.2117 9.83862 39.0272L9.98668 13.1641C9.98668 11.9796 10.9737 10.9924 12.1582 10.9924H65.6566C66.841 10.9924 67.8281 11.9796 67.8281 13.1641L67.68 39.0765C67.68 40.2611 66.693 41.2482 65.5085 41.2482H12.0101V41.1989Z" fill="#D7F1F9"/>
<path d="M6.81177 44.9263V49.8444C6.81177 52.8445 9.22829 55.2544 12.2366 55.2544H65.548C68.5563 55.2544 70.9729 52.8445 70.9729 49.8444V44.9263H6.81177Z" fill="#DCF3FA"/>
<path d="M48.3408 55.2546H29.4441V62.5063H48.3408V55.2546Z" fill="#BDE6EF"/>
<path d="M48.3408 55.2546H29.4441V57.4521H48.3408V55.2546Z" fill="#A4D3DD"/>
<path d="M52.3588 62.5063H25.3752C22.7414 62.5063 20.6543 64.6155 20.6543 67.1662V68.0001H57.1294V67.1662C57.1294 64.5665 54.9926 62.5063 52.3588 62.5063Z" fill="#D9F2FA"/>
<path d="M41.0899 50.4202C41.0899 51.7574 40.0591 52.8374 38.7827 52.8374C37.5064 52.8374 36.4756 51.7574 36.4756 50.4202C36.4756 49.083 37.5064 48.0029 38.7827 48.0029C40.0591 48.0029 41.0899 49.1344 41.0899 50.4202Z" fill="#5183BB"/>
<path d="M48.8097 14.377H42.0923C40.8995 14.377 39.9578 15.3187 39.9578 16.5116V23.2297C39.9578 24.4226 40.8995 25.3644 42.0923 25.3644H48.8097C50.0026 25.3644 50.9443 24.4226 50.9443 23.2297V16.4489C50.9443 15.3187 50.0026 14.377 48.8097 14.377Z" fill="white"/>
<path d="M35.6679 14.377H28.9504C27.7576 14.377 26.8159 15.3187 26.8159 16.5116V23.2297C26.8159 24.4226 27.7576 25.3644 28.9504 25.3644H35.6679C36.8607 25.3644 37.8024 24.4226 37.8024 23.2297V16.4489C37.8024 15.3187 36.8607 14.377 35.6679 14.377Z" fill="white"/>
<path d="M22.4748 14.377H15.7573C14.5645 14.377 13.6228 15.3187 13.6228 16.5116V23.2297C13.6228 24.4226 14.5645 25.3644 15.7573 25.3644H22.4748C23.6676 25.3644 24.6093 24.4226 24.6093 23.2297V16.4489C24.5465 15.3187 23.6048 14.377 22.4748 14.377Z" fill="#F7FBFD"/>
<path d="M48.8097 27.562H42.0923C40.8995 27.562 39.9578 28.5038 39.9578 29.6967V36.4147C39.9578 37.6077 40.8995 38.5494 42.0923 38.5494H48.8097C50.0026 38.5494 50.9443 37.6077 50.9443 36.4147V29.6339C50.9443 28.5038 50.0026 27.562 48.8097 27.562Z" fill="white"/>
<path d="M62.0263 27.562H55.3088C54.116 27.562 53.1743 28.5038 53.1743 29.6967V36.4147C53.1743 37.6077 54.116 38.5494 55.3088 38.5494H62.0263C63.2191 38.5494 64.1608 37.6077 64.1608 36.4147V29.6339C64.1608 28.5038 63.2191 27.562 62.0263 27.562Z" fill="white"/>
<path d="M35.6679 27.562H28.9504C27.7576 27.562 26.8159 28.5038 26.8159 29.6967V36.4147C26.8159 37.6077 27.7576 38.5494 28.9504 38.5494H35.6679C36.8607 38.5494 37.8024 37.6077 37.8024 36.4147V29.6339C37.8024 28.5038 36.8607 27.562 35.6679 27.562Z" fill="white"/>
<path d="M22.4748 27.562H15.7573C14.5645 27.562 13.6228 28.5038 13.6228 29.6967V36.4147C13.6228 37.6077 14.5645 38.5494 15.7573 38.5494H22.4748C23.6676 38.5494 24.6093 37.6077 24.6093 36.4147V29.6339C24.5465 28.5038 23.6048 27.562 22.4748 27.562Z" fill="#F7FBFD"/>
<path fill-rule="evenodd" clip-rule="evenodd" d="M20.7697 17.9558C20.7697 18.8402 20.0528 19.5572 19.1685 19.5572C18.2842 19.5572 17.5673 18.8402 17.5673 17.9558C17.5673 17.0714 18.2842 16.3545 19.1685 16.3545C20.0528 16.3545 20.7697 17.0714 20.7697 17.9558ZM15.8206 23.2147C15.8206 21.3685 17.3225 19.8665 19.1685 19.8665C21.0146 19.8665 22.5165 21.3685 22.5165 23.2147C22.5165 23.2951 22.4513 23.3603 22.3709 23.3603H15.9661C15.8858 23.3603 15.8206 23.2951 15.8206 23.2147Z" fill="url(#paint0_linear_704_22111)"/>
<path fill-rule="evenodd" clip-rule="evenodd" d="M33.9528 17.9558C33.9528 18.8402 33.2359 19.5572 32.3516 19.5572C31.4673 19.5572 30.7504 18.8402 30.7504 17.9558C30.7504 17.0714 31.4673 16.3545 32.3516 16.3545C33.2359 16.3545 33.9528 17.0714 33.9528 17.9558ZM29.0037 23.2147C29.0037 21.3685 30.5056 19.8665 32.3516 19.8665C34.1977 19.8665 35.6996 21.3685 35.6996 23.2147C35.6996 23.2951 35.6344 23.3603 35.554 23.3603H29.1492C29.0689 23.3603 29.0037 23.2951 29.0037 23.2147Z" fill="url(#paint1_linear_704_22111)"/>
<path fill-rule="evenodd" clip-rule="evenodd" d="M47.1373 17.9558C47.1373 18.8402 46.4205 19.5572 45.5361 19.5572C44.6518 19.5572 43.9349 18.8402 43.9349 17.9558C43.9349 17.0714 44.6518 16.3545 45.5361 16.3545C46.4205 16.3545 47.1373 17.0714 47.1373 17.9558ZM42.1882 23.2147C42.1882 21.3685 43.6902 19.8665 45.5362 19.8665C47.3822 19.8665 48.8842 21.3685 48.8842 23.2147C48.8842 23.2951 48.819 23.3603 48.7386 23.3603H42.3338C42.2534 23.3603 42.1882 23.2951 42.1882 23.2147Z" fill="url(#paint2_linear_704_22111)"/>
<path fill-rule="evenodd" clip-rule="evenodd" d="M20.7697 31.1404C20.7697 32.0248 20.0528 32.7417 19.1685 32.7417C18.2842 32.7417 17.5673 32.0248 17.5673 31.1404C17.5673 30.256 18.2842 29.5391 19.1685 29.5391C20.0528 29.5391 20.7697 30.256 20.7697 31.1404ZM15.8206 36.3994C15.8206 34.5532 17.3225 33.0511 19.1685 33.0511C21.0146 33.0511 22.5165 34.5532 22.5165 36.3994C22.5165 36.4798 22.4513 36.545 22.3709 36.545H15.9661C15.8858 36.545 15.8206 36.4798 15.8206 36.3994Z" fill="url(#paint3_linear_704_22111)"/>
<path fill-rule="evenodd" clip-rule="evenodd" d="M33.9528 31.1404C33.9528 32.0248 33.2359 32.7417 32.3516 32.7417C31.4673 32.7417 30.7504 32.0248 30.7504 31.1404C30.7504 30.256 31.4673 29.5391 32.3516 29.5391C33.2359 29.5391 33.9528 30.256 33.9528 31.1404ZM29.0037 36.3994C29.0037 34.5532 30.5056 33.0511 32.3516 33.0511C34.1977 33.0511 35.6996 34.5532 35.6996 36.3994C35.6996 36.4798 35.6344 36.545 35.554 36.545H29.1492C29.0689 36.545 29.0037 36.4798 29.0037 36.3994Z" fill="url(#paint4_linear_704_22111)"/>
<path fill-rule="evenodd" clip-rule="evenodd" d="M47.1373 31.1404C47.1373 32.0248 46.4205 32.7417 45.5361 32.7417C44.6518 32.7417 43.9349 32.0248 43.9349 31.1404C43.9349 30.256 44.6518 29.5391 45.5361 29.5391C46.4205 29.5391 47.1373 30.256 47.1373 31.1404ZM42.1882 36.3994C42.1882 34.5532 43.6902 33.0511 45.5362 33.0511C47.3822 33.0511 48.8842 34.5532 48.8842 36.3994C48.8842 36.4798 48.819 36.545 48.7386 36.545H42.3338C42.2534 36.545 42.1882 36.4798 42.1882 36.3994Z" fill="url(#paint5_linear_704_22111)"/>
<path fill-rule="evenodd" clip-rule="evenodd" d="M60.3209 31.1404C60.3209 32.0248 59.6041 32.7417 58.7197 32.7417C57.8354 32.7417 57.1185 32.0248 57.1185 31.1404C57.1185 30.256 57.8354 29.5391 58.7197 29.5391C59.6041 29.5391 60.3209 30.256 60.3209 31.1404ZM55.3718 36.3994C55.3718 34.5532 56.8737 33.0511 58.7198 33.0511C60.5658 33.0511 62.0678 34.5532 62.0678 36.3994C62.0678 36.4798 62.0026 36.545 61.9222 36.545H55.5174C55.437 36.545 55.3718 36.4798 55.3718 36.3994Z" fill="url(#paint6_linear_704_22111)"/>
<g filter="url(#filter0_d_704_22111)">
<path d="M67.415 21.1164V27.1897C67.415 28.3082 68.3294 29.2151 69.458 29.2151H78.7167L82.9309 32.6328V29.2151H84.7825C85.9109 29.2151 86.8258 28.3082 86.8258 27.1897V14.9111C86.8258 13.7926 85.9109 12.8857 84.7825 12.8857H75.2076L67.415 21.1164Z" fill="url(#paint7_linear_704_22111)"/>
</g>
<g filter="url(#filter1_d_704_22111)">
<path d="M65.24 2C59.7876 2 55.3674 6.42058 55.3674 11.8734C55.3674 14.0432 56.0677 16.0489 57.2539 17.6783L56.0369 20.3523L59.0488 19.5649V19.5637C60.7422 20.929 62.8956 21.7471 65.24 21.7471C70.6926 21.7471 75.1128 17.3265 75.1128 11.8734C75.1128 6.42058 70.6926 2 65.24 2Z" fill="url(#paint8_linear_704_22111)"/>
</g>
<path fill-rule="evenodd" clip-rule="evenodd" d="M77.137 17.5353L77.8146 17.5347L80.4997 24.6501L79.0328 25.2037L78.3953 23.5145H77.137V23.5152H75.8834L75.2395 25.2058L73.7744 24.6478L76.4825 17.5368L77.1367 17.5361L77.137 17.5353ZM77.137 20.2225V20.2234L76.4805 21.9473H76.9856L76.9859 21.9465H77.8037L77.1451 20.2013L77.137 20.2225Z" fill="white"/>
<path fill-rule="evenodd" clip-rule="evenodd" d="M69.3078 9.22015V10.7736H67.9136C67.8064 11.9381 67.3376 12.9991 66.5582 13.8436C67.2313 14.1109 68.0035 14.2531 68.83 14.2531V15.8066C67.4806 15.8066 66.2273 15.4939 65.199 14.9127L65.1989 14.9122V14.9127C64.1706 15.494 62.9173 15.8067 61.5679 15.8067H60.9919V14.2532H61.5679C62.3943 14.2532 63.1666 14.1109 63.8397 13.8437C63.0603 12.9992 62.5915 11.9382 62.4842 10.7736H61.0901V9.22017H64.4222V7.62501H65.1989V7.62578L65.199 7.625H65.9757V9.22015H69.3078ZM65.1989 13.0068L65.199 13.0064C65.8486 12.409 66.2408 11.6464 66.351 10.7736H65.199L65.1989 10.773V10.7736H64.0468C64.1571 11.6464 64.5492 12.409 65.1989 13.0065V13.0068Z" fill="white"/>
<path d="M71.1083 50.3093L75.3777 66.4546H77.5527L75.6597 49.7053L71.1083 50.3093Z" fill="#004E82"/>
<path d="M75.2969 49.9468C75.2969 49.9468 75.2566 51.0339 74.3302 52.3223C73.4038 53.6107 69.5774 57.4759 69.5774 57.4759L69.9802 66.3739H68.0468L66.4357 56.5499L70.383 50.1078L75.2969 49.9468Z" fill="#5183BB"/>
<path d="M65.5506 37.3446L65.2686 36.5796L64.9867 37.0627L64.4228 36.7406C63.9797 36.4991 63.4158 36.6601 63.1742 37.103C62.9325 37.5459 63.0936 38.1096 63.5367 38.3511C64.02 38.633 64.5436 38.7135 65.1075 38.6733H65.3089L65.8728 37.6667L65.5506 37.3446Z" fill="#FFE27C"/>
<path d="M69.4162 33.5598C69.4162 33.5598 68.8926 31.4258 71.0273 31.305C73.162 31.1843 74.4106 32.5129 74.7329 33.6C75.2162 35.2105 74.4106 36.821 73.5648 37.2639L72.3967 34.6871L69.4162 33.5598Z" fill="#004E82"/>
<path d="M72.9612 34.6868C72.9612 34.6868 73.5251 33.9218 73.8071 34.566C74.089 35.2102 74.0487 36.1363 73.0418 36.096C73.0418 36.096 72.639 38.0286 70.7862 37.4649C68.9334 36.9012 69.1751 34.405 69.457 33.5192C69.457 33.5192 71.1084 33.801 72.1959 33.3179C72.1557 33.3984 72.5584 34.566 72.9612 34.6868Z" fill="#FFE27C"/>
<path d="M71.3897 36.9819L71.6314 39.3574L73.7258 37.9885L73.4842 35.4922L71.3897 36.9819Z" fill="#FFE27C"/>
<path d="M74.5319 37.908C74.5319 37.908 75.9417 38.5119 76.2639 39.1561C76.4653 39.5587 77.0292 41.6926 77.3514 43.0213C77.5125 43.6655 77.2708 44.3903 76.7069 44.7929L73.968 46.806L74.5319 37.908Z" fill="#64D3B5"/>
<path d="M73.6051 37.707C73.6051 37.707 74.2496 37.546 74.894 38.311C75.5385 39.0759 76.0218 40.0825 75.8204 43.1022C75.619 46.1219 76.626 50.3495 76.626 50.3495C74.5718 51.4366 72.0746 51.5171 69.9398 50.5508L69.5371 50.3495C69.5371 50.3495 69.6579 42.6191 71.2287 39.1967L73.6051 37.707Z" fill="url(#paint9_linear_704_22111)"/>
<path d="M71.9137 38.7131L68.3692 41.2094L65.7512 37.2637L64.8248 38.995C64.8248 38.995 67.1206 43.6654 67.9665 44.5512L73.6054 41.6523C74.4109 41.2497 74.7331 40.2834 74.3706 39.4379C73.9679 38.5118 72.7998 38.1495 71.9137 38.7131Z" fill="#B0E7C6"/>
<path d="M70.0203 66.3735V67.9034H65.8716C65.63 67.9034 65.5091 67.5813 65.7105 67.4203C66.1939 67.0579 67.0397 66.5748 68.248 66.3735H70.0203Z" fill="#004E82"/>
<path d="M77.5127 66.3735V67.9034H73.3641C73.1224 67.9034 73.0016 67.5813 73.203 67.4203C73.6863 67.0579 74.5321 66.5748 75.7405 66.3735H77.5127Z" fill="#004E82"/>
<defs>
<filter id="filter0_d_704_22111" x="65.415" y="10.8857" width="27.4106" height="27.7471" filterUnits="userSpaceOnUse" color-interpolation-filters="sRGB">
<feFlood flood-opacity="0" result="BackgroundImageFix"/>
<feColorMatrix in="SourceAlpha" type="matrix" values="0 0 0 0 0 0 0 0 0 0 0 0 0 0 0 0 0 0 127 0" result="hardAlpha"/>
<feOffset dx="2" dy="2"/>
<feGaussianBlur stdDeviation="2"/>
<feColorMatrix type="matrix" values="0 0 0 0 0.0846528 0 0 0 0 0.150363 0 0 0 0 0.383333 0 0 0 0.25 0"/>
<feBlend mode="normal" in2="BackgroundImageFix" result="effect1_dropShadow_704_22111"/>
<feBlend mode="normal" in="SourceGraphic" in2="effect1_dropShadow_704_22111" result="shape"/>
</filter>
<filter id="filter1_d_704_22111" x="53.3674" y="0" width="27.7454" height="27.7471" filterUnits="userSpaceOnUse" color-interpolation-filters="sRGB">
<feFlood flood-opacity="0" result="BackgroundImageFix"/>
<feColorMatrix in="SourceAlpha" type="matrix" values="0 0 0 0 0 0 0 0 0 0 0 0 0 0 0 0 0 0 127 0" result="hardAlpha"/>
<feOffset dx="2" dy="2"/>
<feGaussianBlur stdDeviation="2"/>
<feColorMatrix type="matrix" values="0 0 0 0 0.0846528 0 0 0 0 0.150363 0 0 0 0 0.383333 0 0 0 0.25 0"/>
<feBlend mode="normal" in2="BackgroundImageFix" result="effect1_dropShadow_704_22111"/>
<feBlend mode="normal" in="SourceGraphic" in2="effect1_dropShadow_704_22111" result="shape"/>
</filter>
<linearGradient id="paint0_linear_704_22111" x1="19.1685" y1="16.3545" x2="19.1685" y2="23.3602" gradientUnits="userSpaceOnUse">
<stop stop-color="#85BEFF"/>
<stop offset="1" stop-color="#5183BB"/>
</linearGradient>
<linearGradient id="paint1_linear_704_22111" x1="32.3516" y1="16.3545" x2="32.3516" y2="23.3602" gradientUnits="userSpaceOnUse">
<stop stop-color="#B0E7C6"/>
<stop offset="1" stop-color="#5DD1B3"/>
</linearGradient>
<linearGradient id="paint2_linear_704_22111" x1="45.5362" y1="16.3545" x2="45.5362" y2="23.3602" gradientUnits="userSpaceOnUse">
<stop stop-color="#85BEFF"/>
<stop offset="1" stop-color="#5183BB"/>
</linearGradient>
<linearGradient id="paint3_linear_704_22111" x1="19.1685" y1="29.5391" x2="19.1685" y2="36.545" gradientUnits="userSpaceOnUse">
<stop stop-color="#B0E7C6"/>
<stop offset="1" stop-color="#5DD1B3"/>
</linearGradient>
<linearGradient id="paint4_linear_704_22111" x1="32.3516" y1="29.5391" x2="32.3516" y2="36.545" gradientUnits="userSpaceOnUse">
<stop stop-color="#85BEFF"/>
<stop offset="1" stop-color="#5183BB"/>
</linearGradient>
<linearGradient id="paint5_linear_704_22111" x1="45.5362" y1="31.2509" x2="45.5362" y2="36.545" gradientUnits="userSpaceOnUse">
<stop stop-color="#FFED49"/>
<stop offset="1" stop-color="#FFC369"/>
</linearGradient>
<linearGradient id="paint6_linear_704_22111" x1="58.7198" y1="29.5391" x2="58.7198" y2="36.545" gradientUnits="userSpaceOnUse">
<stop stop-color="#B0E7C6"/>
<stop offset="1" stop-color="#5DD1B3"/>
</linearGradient>
<linearGradient id="paint7_linear_704_22111" x1="77.1204" y1="12.8857" x2="77.1204" y2="32.6328" gradientUnits="userSpaceOnUse">
<stop stop-color="#B0E7C6"/>
<stop offset="1" stop-color="#5DD1B3"/>
</linearGradient>
<linearGradient id="paint8_linear_704_22111" x1="65.2401" y1="2" x2="65.2401" y2="21.7471" gradientUnits="userSpaceOnUse">
<stop stop-color="#BBDBFE"/>
<stop offset="1" stop-color="#84B9F2"/>
</linearGradient>
<linearGradient id="paint9_linear_704_22111" x1="73.0815" y1="37.6929" x2="73.0815" y2="51.2238" gradientUnits="userSpaceOnUse">
<stop stop-color="#B0E7C6"/>
<stop offset="1" stop-color="#5DD1B3"/>
</linearGradient>
</defs>
</svg>
