<svg width="444" height="346" viewBox="0 0 444 346" fill="none" xmlns="http://www.w3.org/2000/svg">
<path d="M363.426 295H253.569C251 295 249 296.905 249 299C249 301.286 251 303 253.569 303H363.426C366 303 367.995 301.095 367.995 299C368.07 296.905 366 295 363.426 295Z" fill="#D7F1F9"/>
<g filter="url(#filter0_d)">
<rect width="285" height="218" rx="40" transform="matrix(-1 0 0 1 395.93 17)" fill="#F7FBFD"/>
</g>
<g filter="url(#filter1_d)">
<rect x="381" y="67" width="29.0233" height="28.087" rx="14.0435" fill="url(#paint0_linear)"/>
</g>
<g filter="url(#filter2_d)">
<rect x="64.209" y="171.302" width="131.698" height="131.698" rx="35" fill="url(#paint1_linear)"/>
</g>
<rect y="66" width="76.186" height="76.186" rx="20" fill="url(#paint2_linear)"/>
<path d="M308.076 196.926L332.882 290.724H345.52L334.521 193.417L308.076 196.926Z" fill="#004E82"/>
<path d="M332.414 194.819C332.414 194.819 332.18 201.135 326.798 208.62C321.415 216.105 299.183 238.561 299.183 238.561L301.523 290.255H290.29L280.93 233.181L303.864 195.755L332.414 194.819Z" fill="#5183BB"/>
<path d="M281.633 104.062L269.932 125.114C268.996 126.985 266.655 127.687 264.783 126.517C262.911 125.582 262.209 123.243 263.379 121.371L275.08 100.319L281.633 104.062Z" fill="url(#paint3_linear)"/>
<path d="M254.719 89.0916L249.336 98.9159C246.762 97.2785 245.826 94.0038 247.23 91.4307C248.868 88.8577 252.145 87.6881 254.719 89.0916Z" fill="#BADBFF"/>
<path d="M262.209 78.3316L262.677 78.5655C263.379 79.0333 263.847 79.9689 263.379 80.6707L247.466 110.144C246.998 110.845 246.061 111.313 245.359 110.845L244.891 110.611C244.189 110.144 243.721 109.208 244.189 108.506L260.103 79.0333C260.571 78.0977 261.507 77.8637 262.209 78.3316Z" fill="url(#paint4_linear)"/>
<path d="M262.676 81.8408C262.676 82.7765 275.547 96.1094 283.972 102.191C287.014 104.53 287.95 108.741 286.078 112.015C284.206 115.29 280.228 116.928 276.717 115.524C266.888 112.015 248.869 108.273 247.933 108.975L262.676 81.8408Z" fill="#5183BB"/>
<path d="M276.718 96.3433L267.825 112.951C258.698 110.612 248.635 108.741 247.933 108.975L262.677 81.8408C262.677 82.5426 269.697 90.0277 276.718 96.3433Z" fill="#BADBFF"/>
<path d="M275.781 121.606L274.143 117.162L272.505 119.969L269.229 118.097C266.654 116.694 263.378 117.629 261.974 120.202C260.57 122.776 261.506 126.05 264.08 127.454C266.888 129.091 269.931 129.559 273.207 129.325H274.377L277.653 123.477L275.781 121.606Z" fill="#FFE27C"/>
<path d="M298.248 99.6183C298.248 99.6183 295.206 87.2209 307.609 86.5192C320.012 85.8175 327.267 93.5366 329.139 99.8522C331.947 109.209 327.267 118.565 322.352 121.138L315.566 106.168L298.248 99.6183Z" fill="#004E82"/>
<path d="M318.841 106.168C318.841 106.168 322.117 101.724 323.755 105.466C325.393 109.209 325.159 114.589 319.309 114.355C319.309 114.355 316.969 125.582 306.204 122.308C295.439 119.033 296.843 104.53 298.481 99.3844C298.481 99.3844 308.076 101.022 314.394 98.2148C314.16 98.6827 316.501 105.466 318.841 106.168Z" fill="#FFE27C"/>
<path d="M309.715 119.5L311.119 133.301L323.288 125.348L321.884 110.846L309.715 119.5Z" fill="#FFE27C"/>
<path d="M327.969 124.88C327.969 124.88 336.159 128.389 338.032 132.131C339.202 134.47 342.478 146.868 344.35 154.587C345.286 158.329 343.882 162.54 340.606 164.879L324.692 176.574L327.969 124.88Z" fill="#64D3B5"/>
<path d="M322.586 123.711C322.586 123.711 326.331 122.775 330.075 127.22C333.819 131.664 336.627 137.512 335.457 155.055C334.287 172.599 340.138 197.159 340.138 197.159C328.203 203.475 313.693 203.943 301.29 198.329L298.95 197.159C298.95 197.159 299.652 152.248 308.779 132.366L322.586 123.711Z" fill="url(#paint5_linear)"/>
<path d="M312.757 129.559L292.163 144.061L276.952 121.138L271.569 131.196C271.569 131.196 284.909 158.33 289.823 163.476L322.586 146.634C327.266 144.295 329.138 138.681 327.032 133.769C324.692 128.389 317.905 126.284 312.757 129.559Z" fill="#B0E7C6"/>
<path d="M301.758 290.256V299.145H277.654C276.25 299.145 275.548 297.274 276.718 296.338C279.526 294.233 284.44 291.426 291.461 290.256H301.758Z" fill="#004E82"/>
<path d="M345.285 290.256V299.145H321.181C319.777 299.145 319.075 297.274 320.245 296.338C323.053 294.233 327.968 291.426 334.988 290.256H345.285Z" fill="#004E82"/>
<path d="M103.707 226.681C104.559 227.282 107.128 229.068 111.414 232.038C115.7 235.008 118.984 237.295 121.265 238.899C121.515 239.075 122.048 239.457 122.862 240.046C123.677 240.635 124.353 241.112 124.892 241.475C125.431 241.838 126.083 242.246 126.847 242.697C127.612 243.147 128.333 243.486 129.009 243.711C129.686 243.937 130.313 244.049 130.889 244.049H130.927H130.965C131.541 244.049 132.168 243.937 132.845 243.711C133.522 243.486 134.243 243.147 135.007 242.697C135.771 242.245 136.423 241.838 136.962 241.475C137.501 241.112 138.177 240.635 138.992 240.046C139.806 239.457 140.339 239.075 140.59 238.899C142.895 237.295 148.761 233.222 158.185 226.68C160.015 225.402 161.543 223.86 162.771 222.056C164 220.252 164.614 218.359 164.614 216.379C164.614 214.725 164.018 213.309 162.828 212.131C161.637 210.953 160.227 210.364 158.598 210.364H103.255C101.326 210.364 99.8405 211.015 98.8003 212.319C97.7603 213.622 97.2402 215.251 97.2402 217.206C97.2402 218.785 97.9297 220.496 99.3081 222.338C100.686 224.181 102.153 225.628 103.707 226.681Z" fill="white"/>
<path d="M160.854 231.439C152.633 237.003 146.392 241.327 142.131 244.41C140.702 245.462 139.544 246.284 138.653 246.872C137.763 247.461 136.58 248.063 135.101 248.677C133.622 249.291 132.244 249.598 130.966 249.598H130.927H130.889C129.611 249.598 128.232 249.291 126.754 248.677C125.275 248.063 124.091 247.461 123.201 246.872C122.311 246.284 121.152 245.462 119.724 244.41C116.34 241.929 110.111 237.604 101.038 231.439C99.6089 230.487 98.3431 229.396 97.2402 228.168V258.019C97.2402 259.674 97.829 261.09 99.0072 262.268C100.185 263.446 101.602 264.035 103.256 264.035H158.599C160.253 264.035 161.669 263.446 162.847 262.268C164.026 261.089 164.614 259.674 164.614 258.019V228.168C163.536 229.371 162.283 230.462 160.854 231.439Z" fill="white"/>
<path d="M157.569 75.5724C173.006 60.1437 197.99 60.1414 213.428 75.5724C225.842 87.9793 228.187 106.427 220.849 121.119L224.917 139.006C225.446 141.331 223.361 143.416 221.034 142.887L203.138 138.821C177.117 151.806 146 133.006 146 103.488C146 92.9434 150.109 83.0293 157.569 75.5724ZM177.259 113.319H201.978C203.77 113.319 205.222 111.868 205.222 110.077C205.222 108.286 203.77 106.834 201.978 106.834H177.259C175.468 106.834 174.015 108.286 174.015 110.077C174.015 111.868 175.468 113.319 177.259 113.319ZM169.02 100.143H201.978C203.77 100.143 205.222 98.6909 205.222 96.9C205.222 95.1091 203.77 93.6573 201.978 93.6573H169.02C167.228 93.6573 165.775 95.1091 165.775 96.9C165.775 98.6909 167.228 100.143 169.02 100.143Z" fill="url(#paint6_linear)"/>
<path d="M48.6752 84H26.3267C22.2806 84 19.001 87.3821 19.001 91.5683V126.201C19.001 127.67 20.6319 128.529 21.7829 127.638L28.7686 122.225H48.6752C52.7214 122.225 56.001 118.843 56.001 114.657V91.5683C56.001 87.3882 52.7273 84 48.6752 84ZM37.5007 113.567C36.5413 113.567 35.762 112.762 35.762 111.771C35.762 110.779 36.5413 109.974 37.5007 109.974C38.4607 109.974 39.2395 110.779 39.2395 111.771C39.2395 112.762 38.4607 113.567 37.5007 113.567ZM39.2395 105.623V105.999C39.2395 106.991 38.4611 107.795 37.5007 107.795C36.5408 107.795 35.762 106.991 35.762 105.999V104.075C35.762 103.082 36.5408 102.278 37.5007 102.278C39.1095 102.278 40.4181 100.926 40.4181 99.2643C40.4181 97.6027 39.1095 96.2508 37.5007 96.2508C35.8838 96.2508 34.5839 97.6018 34.5839 99.2624C34.5839 100.255 33.8051 101.06 32.8451 101.06C31.8848 101.06 31.1064 100.256 31.1064 99.2648V99.2624C31.1064 95.609 33.969 92.6582 37.4989 92.6582C41.0271 92.6582 43.8955 95.6217 43.8955 99.2648C43.8955 102.285 41.9236 104.838 39.2395 105.623Z" fill="white"/>
<defs>
<filter id="filter0_d" x="88.9297" y="0" width="355" height="288" filterUnits="userSpaceOnUse" color-interpolation-filters="sRGB">
<feFlood flood-opacity="0" result="BackgroundImageFix"/>
<feColorMatrix in="SourceAlpha" type="matrix" values="0 0 0 0 0 0 0 0 0 0 0 0 0 0 0 0 0 0 127 0" result="hardAlpha"/>
<feOffset dx="13" dy="18"/>
<feGaussianBlur stdDeviation="17.5"/>
<feColorMatrix type="matrix" values="0 0 0 0 0 0 0 0 0 0.351917 0 0 0 0 0.429167 0 0 0 0.15 0"/>
<feBlend mode="normal" in2="BackgroundImageFix" result="effect1_dropShadow"/>
<feBlend mode="normal" in="SourceGraphic" in2="effect1_dropShadow" result="shape"/>
</filter>
<filter id="filter1_d" x="351" y="46" width="89.0233" height="88.087" filterUnits="userSpaceOnUse" color-interpolation-filters="sRGB">
<feFlood flood-opacity="0" result="BackgroundImageFix"/>
<feColorMatrix in="SourceAlpha" type="matrix" values="0 0 0 0 0 0 0 0 0 0 0 0 0 0 0 0 0 0 127 0" result="hardAlpha"/>
<feOffset dy="9"/>
<feGaussianBlur stdDeviation="15"/>
<feColorMatrix type="matrix" values="0 0 0 0 0.593438 0 0 0 0 0.707729 0 0 0 0 0.879167 0 0 0 0.25 0"/>
<feBlend mode="normal" in2="BackgroundImageFix" result="effect1_dropShadow"/>
<feBlend mode="normal" in="SourceGraphic" in2="effect1_dropShadow" result="shape"/>
</filter>
<filter id="filter2_d" x="31.209" y="144.302" width="201.698" height="201.698" filterUnits="userSpaceOnUse" color-interpolation-filters="sRGB">
<feFlood flood-opacity="0" result="BackgroundImageFix"/>
<feColorMatrix in="SourceAlpha" type="matrix" values="0 0 0 0 0 0 0 0 0 0 0 0 0 0 0 0 0 0 127 0" result="hardAlpha"/>
<feOffset dx="2" dy="8"/>
<feGaussianBlur stdDeviation="17.5"/>
<feColorMatrix type="matrix" values="0 0 0 0 0 0 0 0 0 0.351917 0 0 0 0 0.429167 0 0 0 0.15 0"/>
<feBlend mode="normal" in2="BackgroundImageFix" result="effect1_dropShadow"/>
<feBlend mode="normal" in="SourceGraphic" in2="effect1_dropShadow" result="shape"/>
</filter>
<linearGradient id="paint0_linear" x1="395.512" y1="73.8626" x2="395.512" y2="95.087" gradientUnits="userSpaceOnUse">
<stop stop-color="#FFED49"/>
<stop offset="1" stop-color="#FFC369"/>
</linearGradient>
<linearGradient id="paint1_linear" x1="130.058" y1="171.302" x2="130.058" y2="303" gradientUnits="userSpaceOnUse">
<stop stop-color="#B0E7C6"/>
<stop offset="1" stop-color="#5DD1B3"/>
</linearGradient>
<linearGradient id="paint2_linear" x1="38.093" y1="84.6149" x2="38.093" y2="142.186" gradientUnits="userSpaceOnUse">
<stop stop-color="#FFED49"/>
<stop offset="1" stop-color="#FFC369"/>
</linearGradient>
<linearGradient id="paint3_linear" x1="272.22" y1="100.319" x2="272.22" y2="127.089" gradientUnits="userSpaceOnUse">
<stop stop-color="#B0E7C6"/>
<stop offset="1" stop-color="#5DD1B3"/>
</linearGradient>
<linearGradient id="paint4_linear" x1="253.784" y1="78.0977" x2="253.784" y2="111.034" gradientUnits="userSpaceOnUse">
<stop stop-color="#B0E7C6"/>
<stop offset="1" stop-color="#5DD1B3"/>
</linearGradient>
<linearGradient id="paint5_linear" x1="319.544" y1="123.629" x2="319.544" y2="202.239" gradientUnits="userSpaceOnUse">
<stop stop-color="#B0E7C6"/>
<stop offset="1" stop-color="#5DD1B3"/>
</linearGradient>
<linearGradient id="paint6_linear" x1="185.5" y1="64" x2="185.5" y2="143" gradientUnits="userSpaceOnUse">
<stop stop-color="#BADBFF"/>
<stop offset="1" stop-color="#89BCF4"/>
</linearGradient>
</defs>
</svg>
