<svg fill="none" height="43" viewBox="0 0 43 43" width="43" xmlns="http://www.w3.org/2000/svg" xmlns:xlink="http://www.w3.org/1999/xlink"><linearGradient id="a" gradientUnits="userSpaceOnUse" x1="21.5" x2="21.5" y1="0" y2="43"><stop offset="0" stop-color="#b0e7c6"/><stop offset="1" stop-color="#5dd1b3"/></linearGradient><rect fill="url(#a)" height="43" rx="13" transform="matrix(-1 0 0 1 43 0)" width="43"/><path clip-rule="evenodd" d="m11.9167 12h19.1666c1.0566 0 1.9167.8528 1.9167 1.9015v13.3106c0 1.0487-.8601 1.9015-1.9167 1.9015h-6.7099c.0209.76.1678 1.9749.7147 2.545.2003.2098.4305.3073.7244.3073.2648 0 .4792.2126.4792.4754 0 .2627-.2144.4754-.4792.4754h-8.625c-.2649 0-.4792-.2127-.4792-.4754 0-.2628.2143-.4754.4792-.4754.2939 0 .5241-.098.7253-.3078.5482-.5729.6942-1.786.7143-2.5445h-6.7104c-1.0566 0-1.9167-.8528-1.9167-1.9015v-13.3106c0-1.0487.8601-1.9015 1.9167-1.9015zm0 1.9015v12.0985h19.0833l-.0008-12.0985zm9.0833 2.0985h-7v8h7zm1 0h7v3h-7zm7 4h-7v4h7z" fill="#fff" fill-rule="evenodd"/></svg>