<svg fill="none" height="157" viewBox="0 0 157 157" width="157" xmlns="http://www.w3.org/2000/svg" xmlns:xlink="http://www.w3.org/1999/xlink"><filter id="a" color-interpolation-filters="sRGB" filterUnits="userSpaceOnUse" height="157" width="157" x="0" y="0"><feFlood flood-opacity="0" result="BackgroundImageFix"/><feColorMatrix in="SourceAlpha" result="hardAlpha" type="matrix" values="0 0 0 0 0 0 0 0 0 0 0 0 0 0 0 0 0 0 127 0"/><feOffset dy="9"/><feGaussianBlur stdDeviation="15"/><feColorMatrix type="matrix" values="0 0 0 0 0.593438 0 0 0 0 0.707729 0 0 0 0 0.879167 0 0 0 0.25 0"/><feBlend in2="BackgroundImageFix" mode="normal" result="effect1_dropShadow"/><feBlend in="SourceGraphic" in2="effect1_dropShadow" mode="normal" result="shape"/></filter><linearGradient id="b" gradientUnits="userSpaceOnUse" x1="74.4507" x2="74.4507" y1="49.9666" y2="92.5679"><stop offset="0" stop-color="#85beff"/><stop offset="1" stop-color="#5183bb"/></linearGradient><linearGradient id="c" gradientUnits="userSpaceOnUse" x1="93.4014" x2="93.4014" y1="67.1084" y2="86"><stop offset="0" stop-color="#ffed49"/><stop offset="1" stop-color="#ffc369"/></linearGradient><g filter="url(#a)"><rect fill="#fff" height="97" rx="25" width="97" x="30" y="21"/></g><path d="m90.5205 55.0104h-23.291v-3.6629c0-.7627-.6183-1.3809-1.3809-1.3809h-7.4677c-.7626 0-1.3809.6182-1.3809 1.3809v34.8509c0 3.5121 2.8608 6.3695 6.3771 6.3695h24.4342c2.2553 0 4.0902-1.8331 4.0902-4.0861v-32.0905c0-.7626-.6183-1.3809-1.381-1.3809z" fill="url(#b)"/><path d="m90.5124 56.3888h-27.5273c-2.5202 0-4.5632-2.0399-4.5632-4.5563v-.4635c0-2.5163 2.043-4.5563 4.5632-4.5563h27.5273z" fill="#fff1c1"/><path d="m90.4968 57.7698h-27.5273c-3.2776 0-5.9441-2.6634-5.9441-5.9373v-.4634c-.0001-3.2738 2.6665-5.9372 5.9441-5.9372h27.5273c.7627 0 1.381.6183 1.381 1.3809 0 .7627-.6183 1.381-1.381 1.381h-27.5273c-1.7547 0-3.1822 1.4244-3.1822 3.1753v.4634c0 1.751 1.4276 3.1755 3.1822 3.1755h27.5273c.7627 0 1.381.6182 1.381 1.3809 0 .7626-.6183 1.3809-1.381 1.3809z" fill="#5385be"/><circle cx="93.4014" cy="73.5" fill="url(#c)" r="12.5"/><path clip-rule="evenodd" d="m97.888 68.3379.6744.6744c.2252.2252.3492.5248.3492.8434s-.124.6182-.3492.8432l-.8261.8262-2.3611-2.3611.8262-.8261c.4502-.4503 1.2358-.4508 1.6866 0zm-9.2461 7.5597 6.0587-6.0592 2.3611 2.3612-6.0592 6.0586c-.0305.0305-.0686.0524-.1107.0629l-2.6954.6717c-.0191.0048-.0386.0071-.0577.0071-.0625 0-.1235-.0248-.1683-.0696-.0593-.0592-.0831-.1455-.063-.2266l.6715-2.6955c.0105-.0415.0325-.0801.063-.1106z" fill="#5183bb" fill-rule="evenodd"/></svg>