<svg fill="none" height="152" viewBox="0 0 152 152" width="152" xmlns="http://www.w3.org/2000/svg" xmlns:xlink="http://www.w3.org/1999/xlink"><filter id="a" color-interpolation-filters="sRGB" filterUnits="userSpaceOnUse" height="151.892" width="151.892" x="0" y="0"><feFlood flood-opacity="0" result="BackgroundImageFix"/><feColorMatrix in="SourceAlpha" result="hardAlpha" type="matrix" values="0 0 0 0 0 0 0 0 0 0 0 0 0 0 0 0 0 0 127 0"/><feOffset dx="2" dy="8"/><feGaussianBlur stdDeviation="17.5"/><feColorMatrix type="matrix" values="0 0 0 0 0 0 0 0 0 0.351917 0 0 0 0 0.429167 0 0 0 0.15 0"/><feBlend in2="BackgroundImageFix" mode="normal" result="effect1_dropShadow_704_22014"/><feBlend in="SourceGraphic" in2="effect1_dropShadow_704_22014" mode="normal" result="shape"/></filter><filter id="b" color-interpolation-filters="sRGB" filterUnits="userSpaceOnUse" height="39.4216" width="39.4216" x="46.6628" y="40.6624"><feFlood flood-opacity="0" result="BackgroundImageFix"/><feColorMatrix in="SourceAlpha" result="hardAlpha" type="matrix" values="0 0 0 0 0 0 0 0 0 0 0 0 0 0 0 0 0 0 127 0"/><feOffset dx="2" dy="2"/><feGaussianBlur stdDeviation="2"/><feColorMatrix type="matrix" values="0 0 0 0 0.0846528 0 0 0 0 0.150363 0 0 0 0 0.383333 0 0 0 0.25 0"/><feBlend in2="BackgroundImageFix" mode="normal" result="effect1_dropShadow_704_22014"/><feBlend in="SourceGraphic" in2="effect1_dropShadow_704_22014" mode="normal" result="shape"/></filter><filter id="c" color-interpolation-filters="sRGB" filterUnits="userSpaceOnUse" height="28.6868" width="32.8516" x="86.946" y="33.1082"><feFlood flood-opacity="0" result="BackgroundImageFix"/><feColorMatrix in="SourceAlpha" result="hardAlpha" type="matrix" values="0 0 0 0 0 0 0 0 0 0 0 0 0 0 0 0 0 0 127 0"/><feOffset dx="2" dy="2"/><feGaussianBlur stdDeviation="2"/><feColorMatrix type="matrix" values="0 0 0 0 0.0846528 0 0 0 0 0.150363 0 0 0 0 0.383333 0 0 0 0.25 0"/><feBlend in2="BackgroundImageFix" mode="normal" result="effect1_dropShadow_704_22014"/><feBlend in="SourceGraphic" in2="effect1_dropShadow_704_22014" mode="normal" result="shape"/></filter><filter id="d" color-interpolation-filters="sRGB" filterUnits="userSpaceOnUse" height="23.2148" width="23.2148" x="33.2375" y="84.5171"><feFlood flood-opacity="0" result="BackgroundImageFix"/><feColorMatrix in="SourceAlpha" result="hardAlpha" type="matrix" values="0 0 0 0 0 0 0 0 0 0 0 0 0 0 0 0 0 0 127 0"/><feOffset dx="2" dy="2"/><feGaussianBlur stdDeviation="2"/><feColorMatrix type="matrix" values="0 0 0 0 0.0846528 0 0 0 0 0.150363 0 0 0 0 0.383333 0 0 0 0.25 0"/><feBlend in2="BackgroundImageFix" mode="normal" result="effect1_dropShadow_704_22014"/><feBlend in="SourceGraphic" in2="effect1_dropShadow_704_22014" mode="normal" result="shape"/></filter><linearGradient id="e"><stop offset="0" stop-color="#b0e7c6"/><stop offset="1" stop-color="#5dd1b3"/></linearGradient><linearGradient id="f" gradientUnits="userSpaceOnUse" x1="83.2797" x2="83.2797" xlink:href="#e" y1="61.3027" y2="92.7243"/><linearGradient id="g" gradientUnits="userSpaceOnUse" x1="64.3736" x2="64.3736" y1="42.6624" y2="74.084"><stop offset="0" stop-color="#85beff"/><stop offset="1" stop-color="#5183bb"/></linearGradient><linearGradient id="h" gradientUnits="userSpaceOnUse" x1="42.845" x2="42.845" xlink:href="#e" y1="86.5171" y2="101.732"/><g filter="url(#a)"><path clip-rule="evenodd" d="m39.5764 45.6816c-4.1602 6.4088-6.5764 14.0544-6.5764 22.2643 0 22.6138 18.3321 40.9461 40.9459 40.9461s40.9461-18.3323 40.9461-40.9461-18.3323-40.9459-40.9461-40.9459c-7.6716 0-14.8504 2.1097-20.988 5.7807l-15.5296-3.7059z" fill="#fff" fill-rule="evenodd"/></g><path d="m67.8352 74.3994v9.6639c0 1.7797 1.4551 3.2227 3.2511 3.2227h14.7336l6.7062 5.4383v-5.4383h2.9467c1.7956 0 3.2514-1.443 3.2514-3.2227v-19.5378c0-1.7798-1.4558-3.2228-3.2514-3.2228h-15.237z" fill="url(#f)"/><g filter="url(#b)"><path d="m64.3735 42.6624c-8.6766 0-15.7107 7.034-15.7107 15.7106 0 3.4525 1.1145 6.6441 3.002 9.2367l-1.9366 4.2549 4.7929-1.2529v-.002c2.6948 2.1726 6.1216 3.4743 9.8524 3.4743 8.6769 0 15.711-7.0341 15.711-15.711 0-8.6766-7.0341-15.7106-15.711-15.7106z" fill="url(#g)"/></g><path clip-rule="evenodd" d="m83.3057 68.7008 1.0783-.0011 4.2728 11.3221-2.3343.8809-1.0144-2.6879h-2.0024l-.0001-.0001v.0008h-1.9949l-1.0246 2.69-2.3315-.8879 4.3094-11.315 1.0414-.0011zm-.0001 4.2759v.0008l-1.0447 2.7431h.804l.0003-.0007h1.3014l-1.048-2.7771-.0129.034z" fill="#fff" fill-rule="evenodd"/><path clip-rule="evenodd" d="m70.8465 54.151v2.4718h-2.2185c-.1707 1.8531-.9168 3.5413-2.1571 4.8851 1.0712.4252 2.3001.6516 3.6153.6516v2.4719c-2.1474 0-4.1418-.4975-5.7782-1.4224l-.0003-.0015v.0016c-1.6363.9249-3.6308 1.4224-5.7782 1.4224h-.9165v-2.4719h.9165c1.3152 0 2.5442-.2264 3.6153-.6516-1.2403-1.3438-1.9864-3.032-2.157-4.8851h-2.2185v-2.4719h5.3025v-2.5382h1.2359v.0025l.0003-.0025h1.236v2.5382zm-6.5388 6.0261.0003-.0014c1.0338-.9507 1.6579-2.164 1.8333-3.5528h-1.8333l-.0003-.0021v.0021h-1.8333c.1754 1.3888.7995 2.6022 1.8333 3.5529z" fill="#fff" fill-rule="evenodd"/><g filter="url(#c)"><path d="m111.174 35.1082h-19.7501c-1.3847 0-2.4779 1.0931-2.4779 2.4778v17.4908c0 .6559.8017.9475 1.239.5102l4.5184-4.5185c.3644-.3644.9475-.583 1.5305-.583h15.0131c1.385 0 2.551-1.166 2.551-2.5507v-10.3488c-.073-1.3847-1.239-2.4778-2.624-2.4778z" fill="#badbff"/></g><path d="m108.77 39.6267h-14.0659c-.5101 0-.8745.4373-.8745.8746 0 .5101.4373.8745.8745.8745h14.0659c.51 0 .874-.4373.874-.8745.073-.4373-.364-.8746-.874-.8746z" fill="#5183bb"/><path d="m103.304 44.8735h-8.5999c-.5101 0-.8745.4373-.8745.8746 0 .5101.4373.8745.8745.8745h8.5999c.51 0 .874-.4372.874-.8745 0-.5102-.437-.8746-.874-.8746z" fill="#5183bb"/><g filter="url(#d)"><path d="m42.845 101.732c4.2015 0 7.6074-3.406 7.6074-7.6075 0-4.2014-3.4059-7.6074-7.6074-7.6074s-7.6075 3.406-7.6075 7.6074c0 4.2015 3.406 7.6075 7.6075 7.6075z" fill="url(#h)"/></g><path clip-rule="evenodd" d="m45.363 93.3695c0 .7208-.2371 1.3856-.6335 1.9269l2.1438 2.1438-.7119.7119-2.1437-2.1438c-.5413.3964-1.2063.6335-1.927.6335-1.8043 0-3.2723-1.468-3.2723-3.2723s1.468-3.2723 3.2723-3.2723c1.8042 0 3.2723 1.468 3.2723 3.2723zm-5.5384.0001c0 1.2492 1.0162 2.2654 2.2654 2.2654 1.2493 0 2.2655-1.0162 2.2655-2.2654 0-1.2493-1.0162-2.2655-2.2655-2.2655-1.2492 0-2.2654 1.0162-2.2654 2.2655z" fill="#fff" fill-rule="evenodd"/></svg>