<svg width="152" height="152" viewBox="0 0 152 152" fill="none" xmlns="http://www.w3.org/2000/svg">
<g filter="url(#filter0_d_704_22014)">
<path fill-rule="evenodd" clip-rule="evenodd" d="M39.5764 45.6816C35.4162 52.0904 33 59.736 33 67.9459C33 90.5597 51.3321 108.892 73.9459 108.892C96.5597 108.892 114.892 90.5597 114.892 67.9459C114.892 45.3321 96.5597 27 73.9459 27C66.2743 27 59.0955 29.1097 52.9579 32.7807L37.4283 29.0748L39.5764 45.6816Z" fill="white"/>
</g>
<path d="M67.8352 74.3994V84.0633C67.8352 85.843 69.2903 87.286 71.0863 87.286H85.8199L92.5261 92.7243V87.286H95.4728C97.2684 87.286 98.7242 85.843 98.7242 84.0633V64.5255C98.7242 62.7457 97.2684 61.3027 95.4728 61.3027H80.2358L67.8352 74.3994Z" fill="url(#paint0_linear_704_22014)"/>
<g filter="url(#filter1_d_704_22014)">
<path d="M64.3735 42.6624C55.6969 42.6624 48.6628 49.6964 48.6628 58.373C48.6628 61.8255 49.7773 65.0171 51.6648 67.6097L49.7282 71.8646L54.5211 70.6117V70.6097C57.2159 72.7823 60.6427 74.084 64.3735 74.084C73.0504 74.084 80.0845 67.0499 80.0845 58.373C80.0845 49.6964 73.0504 42.6624 64.3735 42.6624Z" fill="url(#paint1_linear_704_22014)"/>
</g>
<path fill-rule="evenodd" clip-rule="evenodd" d="M83.3057 68.7008L84.384 68.6997L88.6568 80.0218L86.3225 80.9027L85.3081 78.2148H83.3057L83.3056 78.2147V78.2155H81.3107L80.2861 80.9055L77.9546 80.0176L82.264 68.7026L83.3054 68.7015L83.3057 68.7008ZM83.3056 72.9767V72.9775L82.2609 75.7206H83.0649L83.0652 75.7199H84.3666L83.3186 72.9428L83.3057 72.9768L83.3056 72.9767Z" fill="white"/>
<path fill-rule="evenodd" clip-rule="evenodd" d="M70.8465 54.151V56.6228H68.628C68.4573 58.4759 67.7112 60.1641 66.4709 61.5079C67.5421 61.9331 68.771 62.1595 70.0862 62.1595V64.6314C67.9388 64.6314 65.9444 64.1339 64.308 63.209L64.3077 63.2075V63.2091C62.6714 64.134 60.6769 64.6315 58.5295 64.6315H57.613V62.1596H58.5295C59.8447 62.1596 61.0737 61.9332 62.1448 61.508C60.9045 60.1642 60.1584 58.476 59.9878 56.6229H57.7693V54.151H63.0718V51.6128H64.3077V51.6153L64.308 51.6128H65.544V54.151H70.8465ZM64.3077 60.1771L64.308 60.1757C65.3418 59.225 65.9659 58.0117 66.1413 56.6229H64.308L64.3077 56.6208V56.6229H62.4744C62.6498 58.0117 63.2739 59.2251 64.3077 60.1758V60.1771Z" fill="white"/>
<g filter="url(#filter2_d_704_22014)">
<path d="M111.174 35.1082H91.4239C90.0392 35.1082 88.946 36.2013 88.946 37.586V55.0768C88.946 55.7327 89.7477 56.0243 90.185 55.587L94.7034 51.0685C95.0678 50.7041 95.6509 50.4855 96.2339 50.4855H111.247C112.632 50.4855 113.798 49.3195 113.798 47.9348V37.586C113.725 36.2013 112.559 35.1082 111.174 35.1082Z" fill="#BADBFF"/>
</g>
<path d="M108.77 39.6267H94.7041C94.194 39.6267 93.8296 40.064 93.8296 40.5013C93.8296 41.0114 94.2669 41.3758 94.7041 41.3758H108.77C109.28 41.3758 109.644 40.9385 109.644 40.5013C109.717 40.064 109.28 39.6267 108.77 39.6267Z" fill="#5183BB"/>
<path d="M103.304 44.8735H94.7041C94.194 44.8735 93.8296 45.3108 93.8296 45.7481C93.8296 46.2582 94.2669 46.6226 94.7041 46.6226H103.304C103.814 46.6226 104.178 46.1854 104.178 45.7481C104.178 45.2379 103.741 44.8735 103.304 44.8735Z" fill="#5183BB"/>
<g filter="url(#filter3_d_704_22014)">
<path d="M42.845 101.732C47.0465 101.732 50.4524 98.326 50.4524 94.1245C50.4524 89.9231 47.0465 86.5171 42.845 86.5171C38.6435 86.5171 35.2375 89.9231 35.2375 94.1245C35.2375 98.326 38.6435 101.732 42.845 101.732Z" fill="url(#paint2_linear_704_22014)"/>
</g>
<path fill-rule="evenodd" clip-rule="evenodd" d="M45.363 93.3695C45.363 94.0903 45.1259 94.7551 44.7295 95.2964L46.8733 97.4402L46.1614 98.1521L44.0177 96.0083C43.4764 96.4047 42.8114 96.6418 42.0907 96.6418C40.2864 96.6418 38.8184 95.1738 38.8184 93.3695C38.8184 91.5652 40.2864 90.0972 42.0907 90.0972C43.8949 90.0972 45.363 91.5652 45.363 93.3695ZM39.8246 93.3696C39.8246 94.6188 40.8408 95.635 42.09 95.635C43.3393 95.635 44.3555 94.6188 44.3555 93.3696C44.3555 92.1203 43.3393 91.1041 42.09 91.1041C40.8408 91.1041 39.8246 92.1203 39.8246 93.3696Z" fill="white"/>
<defs>
<filter id="filter0_d_704_22014" x="0" y="0" width="151.892" height="151.892" filterUnits="userSpaceOnUse" color-interpolation-filters="sRGB">
<feFlood flood-opacity="0" result="BackgroundImageFix"/>
<feColorMatrix in="SourceAlpha" type="matrix" values="0 0 0 0 0 0 0 0 0 0 0 0 0 0 0 0 0 0 127 0" result="hardAlpha"/>
<feOffset dx="2" dy="8"/>
<feGaussianBlur stdDeviation="17.5"/>
<feColorMatrix type="matrix" values="0 0 0 0 0 0 0 0 0 0.351917 0 0 0 0 0.429167 0 0 0 0.15 0"/>
<feBlend mode="normal" in2="BackgroundImageFix" result="effect1_dropShadow_704_22014"/>
<feBlend mode="normal" in="SourceGraphic" in2="effect1_dropShadow_704_22014" result="shape"/>
</filter>
<filter id="filter1_d_704_22014" x="46.6628" y="40.6624" width="39.4216" height="39.4216" filterUnits="userSpaceOnUse" color-interpolation-filters="sRGB">
<feFlood flood-opacity="0" result="BackgroundImageFix"/>
<feColorMatrix in="SourceAlpha" type="matrix" values="0 0 0 0 0 0 0 0 0 0 0 0 0 0 0 0 0 0 127 0" result="hardAlpha"/>
<feOffset dx="2" dy="2"/>
<feGaussianBlur stdDeviation="2"/>
<feColorMatrix type="matrix" values="0 0 0 0 0.0846528 0 0 0 0 0.150363 0 0 0 0 0.383333 0 0 0 0.25 0"/>
<feBlend mode="normal" in2="BackgroundImageFix" result="effect1_dropShadow_704_22014"/>
<feBlend mode="normal" in="SourceGraphic" in2="effect1_dropShadow_704_22014" result="shape"/>
</filter>
<filter id="filter2_d_704_22014" x="86.946" y="33.1082" width="32.8516" height="28.6868" filterUnits="userSpaceOnUse" color-interpolation-filters="sRGB">
<feFlood flood-opacity="0" result="BackgroundImageFix"/>
<feColorMatrix in="SourceAlpha" type="matrix" values="0 0 0 0 0 0 0 0 0 0 0 0 0 0 0 0 0 0 127 0" result="hardAlpha"/>
<feOffset dx="2" dy="2"/>
<feGaussianBlur stdDeviation="2"/>
<feColorMatrix type="matrix" values="0 0 0 0 0.0846528 0 0 0 0 0.150363 0 0 0 0 0.383333 0 0 0 0.25 0"/>
<feBlend mode="normal" in2="BackgroundImageFix" result="effect1_dropShadow_704_22014"/>
<feBlend mode="normal" in="SourceGraphic" in2="effect1_dropShadow_704_22014" result="shape"/>
</filter>
<filter id="filter3_d_704_22014" x="33.2375" y="84.5171" width="23.2148" height="23.2148" filterUnits="userSpaceOnUse" color-interpolation-filters="sRGB">
<feFlood flood-opacity="0" result="BackgroundImageFix"/>
<feColorMatrix in="SourceAlpha" type="matrix" values="0 0 0 0 0 0 0 0 0 0 0 0 0 0 0 0 0 0 127 0" result="hardAlpha"/>
<feOffset dx="2" dy="2"/>
<feGaussianBlur stdDeviation="2"/>
<feColorMatrix type="matrix" values="0 0 0 0 0.0846528 0 0 0 0 0.150363 0 0 0 0 0.383333 0 0 0 0.25 0"/>
<feBlend mode="normal" in2="BackgroundImageFix" result="effect1_dropShadow_704_22014"/>
<feBlend mode="normal" in="SourceGraphic" in2="effect1_dropShadow_704_22014" result="shape"/>
</filter>
<linearGradient id="paint0_linear_704_22014" x1="83.2797" y1="61.3027" x2="83.2797" y2="92.7243" gradientUnits="userSpaceOnUse">
<stop stop-color="#B0E7C6"/>
<stop offset="1" stop-color="#5DD1B3"/>
</linearGradient>
<linearGradient id="paint1_linear_704_22014" x1="64.3736" y1="42.6624" x2="64.3736" y2="74.084" gradientUnits="userSpaceOnUse">
<stop stop-color="#85BEFF"/>
<stop offset="1" stop-color="#5183BB"/>
</linearGradient>
<linearGradient id="paint2_linear_704_22014" x1="42.845" y1="86.5171" x2="42.845" y2="101.732" gradientUnits="userSpaceOnUse">
<stop stop-color="#B0E7C6"/>
<stop offset="1" stop-color="#5DD1B3"/>
</linearGradient>
</defs>
</svg>
