<svg fill="none" height="60" viewBox="0 0 60 60" width="60" xmlns="http://www.w3.org/2000/svg" xmlns:xlink="http://www.w3.org/1999/xlink"><linearGradient id="a" gradientUnits="userSpaceOnUse" x1="22.8386" x2="22.8386" y1="0" y2="51.2721"><stop offset="0" stop-color="#85beff"/><stop offset="1" stop-color="#5183bb"/></linearGradient><linearGradient id="b" gradientUnits="userSpaceOnUse" x1="41.9999" x2="41.9999" y1="28.8" y2="60"><stop offset="0" stop-color="#b0e7c6"/><stop offset="1" stop-color="#5dd1b3"/></linearGradient><path d="m30.9924 9.51086-1.4351-9.51086h-21.05645c-3.17065 0-5.68835 2.58325-5.68835 5.75354v39.81736c0 3.1703 2.5177 5.7012 5.68835 5.7012h19.97385l14.3899-21.7877v-15.5376z" fill="url(#a)"/><path d="m29.5573.0131836 13.2681 13.9336164h-8.8322c-2.4529 0-4.4359-1.9831-4.4359-4.43594z" fill="#5183bb"/><g fill="#fff"><path d="m29.0485 29.876h-16.9992c-.7174 0-1.3048.5874-1.3048 1.3048 0 .7178.5874 1.3044 1.3048 1.3044h16.9992c.7174 0 1.3048-.5866 1.3048-1.3044 0-.7174-.5739-1.3048-1.3048-1.3048z"/><path d="m12.0493 25.9623h13.2158c.7174 0 1.3048-.5871 1.3048-1.3048 0-.7174-.5874-1.3045-1.3048-1.3045h-13.2158c-.7174 0-1.3048.5871-1.3048 1.3045 0 .7177.5874 1.3048 1.3048 1.3048z"/><path d="m24.7561 36.5295h-12.7068c-.7174 0-1.3048.5874-1.3048 1.3045 0 .7178.5874 1.3048 1.3048 1.3048h12.7068c.7178 0 1.3048-.587 1.3048-1.3048 0-.7171-.587-1.3045-1.3048-1.3045z"/></g><path d="m44.1779 28.9593c7.5861 1.0636 13.422 7.5704 13.422 15.4466 0 8.6102-6.9861 15.5941-15.5998 15.5941-5.9218 0-11.0852-3.3022-13.716-8.17-1.199-2.2137-1.8842-4.7453-1.8842-7.4361 0-8.6102 6.9865-15.5939 15.6002-15.5939.7343.0124 1.4559.0615 2.1778.1593z" fill="url(#b)"/><path d="m42.7628 36.3229c-.1991-.2017-.4721-.3229-.7658-.3229-.294 0-.5667.1212-.7662.3229l-6.1494 6.347c-.3986.4036-.3671 1.0494.0527 1.4224.1991.1818.4618.2728.7137.2728.2831 0 .5767-.1114.7868-.3229l4.3444-4.4703v11.0189c0 .5549.4722 1.0092 1.0492 1.0092.5774 0 1.0495-.4543 1.0495-1.0092v-11.0189l4.313 4.4703c.3988.4036 1.0495.4336 1.4795.0501.4198-.3832.4407-1.0188.0524-1.4224z" fill="#fff"/></svg>