<svg width="830" height="50" viewBox="0 0 830 50" fill="none" xmlns="http://www.w3.org/2000/svg">
<path d="M18 25L798 25" stroke="#F7FBFD" stroke-linecap="round" stroke-linejoin="round" stroke-dasharray="4 6"/>
<g opacity="0.45">
<rect width="50" height="50" rx="25" transform="matrix(-1 0 0 1 50 0)" fill="url(#paint0_linear)"/>
</g>
<g opacity="0.45">
<rect width="50" height="50" rx="25" transform="matrix(-1 0 0 1 440 0)" fill="url(#paint1_linear)"/>
</g>
<g opacity="0.45">
<rect width="50" height="50" rx="25" transform="matrix(-1 0 0 1 830 0)" fill="url(#paint2_linear)"/>
</g>
<rect width="28" height="28" rx="14" transform="matrix(-1 0 0 1 39 11)" fill="url(#paint3_linear)"/>
<rect width="28" height="28" rx="14" transform="matrix(-1 0 0 1 429 11)" fill="url(#paint4_linear)"/>
<rect width="28" height="28" rx="14" transform="matrix(-1 0 0 1 819 11)" fill="url(#paint5_linear)"/>
<defs>
<linearGradient id="paint0_linear" x1="25" y1="0" x2="25" y2="50" gradientUnits="userSpaceOnUse">
<stop stop-color="#B0E7C6"/>
<stop offset="1" stop-color="#5DD1B3"/>
</linearGradient>
<linearGradient id="paint1_linear" x1="25" y1="0" x2="25" y2="50" gradientUnits="userSpaceOnUse">
<stop stop-color="#B0E7C6"/>
<stop offset="1" stop-color="#5DD1B3"/>
</linearGradient>
<linearGradient id="paint2_linear" x1="25" y1="0" x2="25" y2="50" gradientUnits="userSpaceOnUse">
<stop stop-color="#B0E7C6"/>
<stop offset="1" stop-color="#5DD1B3"/>
</linearGradient>
<linearGradient id="paint3_linear" x1="14" y1="0" x2="14" y2="28" gradientUnits="userSpaceOnUse">
<stop stop-color="#B0E7C6"/>
<stop offset="1" stop-color="#5DD1B3"/>
</linearGradient>
<linearGradient id="paint4_linear" x1="14" y1="0" x2="14" y2="28" gradientUnits="userSpaceOnUse">
<stop stop-color="#B0E7C6"/>
<stop offset="1" stop-color="#5DD1B3"/>
</linearGradient>
<linearGradient id="paint5_linear" x1="14" y1="0" x2="14" y2="28" gradientUnits="userSpaceOnUse">
<stop stop-color="#B0E7C6"/>
<stop offset="1" stop-color="#5DD1B3"/>
</linearGradient>
</defs>
</svg>
