<svg width="139" height="131" viewBox="0 0 139 131" fill="none" xmlns="http://www.w3.org/2000/svg">
<path d="M35.3949 8.23633H77.2442L95.3386 26.3238V92.2168C95.3386 97.1965 91.3002 101.233 86.3187 101.233H35.3949C30.4133 101.233 26.375 97.1965 26.375 92.2168V17.2528C26.375 12.2731 30.4133 8.23633 35.3949 8.23633Z" fill="#E1EEFE"/>
<path d="M28.1937 1H70.043L88.1374 19.0875V84.9805C88.1374 89.9601 84.0991 93.9969 79.1175 93.9969H28.1937C23.2122 93.9969 19.1738 89.9601 19.1738 84.9805V10.0164C19.1738 5.0368 23.2122 1 28.1937 1Z" fill="#FAFDFF" stroke="#417BD2" stroke-width="1.5" stroke-linejoin="round"/>
<path d="M88.1369 19.5994H69.6094V1L88.1369 19.5994Z" fill="#417BD2" stroke="#417BD2" stroke-width="1.5" stroke-linejoin="round"/>
<rect x="29.832" y="29.4854" width="46.1204" height="4.07026" rx="2.03513" fill="#87B7FF"/>
<rect x="29.832" y="17.7822" width="22.3" height="4.07026" rx="2.03513" fill="#87B7FF"/>
<rect x="29.832" y="41.1895" width="46.1204" height="4.07026" rx="2.03513" fill="#87B7FF"/>
<rect x="29.832" y="52.8896" width="46.1204" height="4.07026" rx="2.03513" fill="#87B7FF"/>
<rect x="29.832" y="64.5942" width="46.1204" height="4.07026" rx="2.03513" fill="#87B7FF"/>
<rect x="29.832" y="76.2935" width="46.1204" height="4.07026" rx="2.03513" fill="#ABE6EA"/>
<path d="M66.057 38.0029H107.906L126.001 56.0904V121.983C126.001 126.963 121.962 131 116.981 131H66.057C61.0755 131 57.0371 126.963 57.0371 121.983V47.0194C57.0371 42.0397 61.0754 38.0029 66.057 38.0029Z" fill="#E1EEFE"/>
<path d="M58.8539 30.7666H100.703L118.798 48.8541V114.747C118.798 119.727 114.759 123.764 109.778 123.764H58.8539C53.8723 123.764 49.834 119.727 49.834 114.747V39.783C49.834 34.8034 53.8723 30.7666 58.8539 30.7666Z" fill="#FAFDFF" stroke="#6598E4" stroke-width="1.5" stroke-linejoin="round"/>
<path d="M118.797 49.366H100.27V30.7666L118.797 49.366Z" fill="#6598E4" stroke="#6598E4" stroke-width="2" stroke-linejoin="round"/>
<rect x="60.4824" y="59.2554" width="46.1204" height="4.07026" rx="2.03513" fill="#87B7FF"/>
<rect x="60.4824" y="47.5542" width="22.3" height="4.07026" rx="2.03513" fill="#87B7FF"/>
<path d="M4.52524 68.4717H17.8974C18.7732 68.4717 19.5821 68.9388 20.0191 69.6966L22.22 72.6989C22.657 73.4567 23.466 73.9239 24.3417 73.9239H56.9134V108.201C56.9134 110.002 55.4518 111.461 53.649 111.461H4.26435C2.46156 111.461 1 110.002 1 108.201V77.7263C1 75.2067 1.38984 72.702 2.15578 70.3012C2.43636 69.2238 3.41042 68.4717 4.52524 68.4717Z" fill="#0DA2BC" stroke="#00A0B6" stroke-width="2"/>
<path d="M49.034 73.4561H3.0957V91.5431H49.034V73.4561Z" fill="#FAFDFF" stroke="#00A0B6" stroke-width="2"/>
<path d="M54.4652 69.8755H40.9898C40.0315 69.8755 39.1612 70.4338 38.763 71.3042L36.4571 76.3436C36.0588 77.214 35.1886 77.7723 34.2303 77.7723H1V108.79C1 110.59 2.46156 112.05 4.26436 112.05H53.6491C55.4519 112.05 56.9135 110.59 56.9135 108.79V72.3203C56.9135 70.9701 55.8173 69.8755 54.4652 69.8755Z" fill="#0DA2BC" stroke="#00A0B6" stroke-width="2"/>
<path d="M41.4195 95.6045L35.4107 89.6043C35.2239 89.4177 34.8933 89.4177 34.7064 89.6043L33.4037 90.9051C33.2092 91.0994 33.2092 91.4144 33.4037 91.6087L37.7578 95.956L33.404 100.304C33.2094 100.498 33.2094 100.813 33.404 101.008L34.7067 102.308C34.8001 102.402 34.9269 102.454 35.059 102.454C35.1907 102.454 35.3178 102.402 35.4112 102.308L41.4195 96.3085C41.614 96.114 41.614 95.7988 41.4195 95.6045Z" fill="#FAFDFF"/>
<path d="M24.6087 100.309L20.2554 95.9618L24.6094 91.6145C24.7028 91.5212 24.7554 91.3948 24.7554 91.2627C24.7554 91.1309 24.7031 91.0043 24.6094 90.911L23.3067 89.6101C23.2133 89.5168 23.0865 89.4644 22.9545 89.4644C22.8224 89.4644 22.6956 89.5168 22.6022 89.6101L16.5932 95.6098C16.3986 95.8041 16.3986 96.1191 16.5932 96.3136L22.6019 102.314C22.6954 102.407 22.8222 102.46 22.9542 102.46C23.0862 102.46 23.213 102.407 23.3065 102.314L24.6092 101.013C24.8037 100.819 24.8037 100.504 24.6087 100.309Z" fill="#FAFDFF"/>
<path d="M32.4217 87.5912C32.3584 87.4752 32.2518 87.3891 32.1252 87.3518L31.0692 87.0406C30.8056 86.9625 30.528 87.1135 30.4503 87.377L25.5477 103.956C25.5103 104.083 25.5248 104.219 25.5878 104.334C25.6508 104.451 25.7577 104.536 25.8843 104.574L26.9403 104.885C26.9874 104.899 27.035 104.906 27.0816 104.906C27.2966 104.906 27.4952 104.766 27.5592 104.549L32.4618 87.9695C32.4992 87.8429 32.485 87.7068 32.4217 87.5912Z" fill="#FAFDFF"/>
<path fill-rule="evenodd" clip-rule="evenodd" d="M72.6034 92.8967C72.6034 86.4961 77.4011 81.2144 83.6014 80.4421V92.8967C83.6014 92.8968 83.6014 92.8968 83.6014 92.8968C83.6014 93.3125 83.7633 93.6904 84.0275 93.9711L92.4778 103.113C90.4191 104.583 87.8973 105.449 85.173 105.449C78.231 105.449 72.6034 99.8289 72.6034 92.8967ZM88.7613 94.4658L94.7864 100.984C96.3129 99.1761 97.3374 96.9321 97.6454 94.4658H88.7613ZM97.6455 91.3279C96.9365 85.65 92.4298 81.1499 86.7438 80.442V91.3279H97.6455ZM69.4609 92.8967C69.4609 84.2316 76.4955 77.207 85.173 77.207C93.8506 77.207 100.885 84.2316 100.885 92.8967C100.885 101.562 93.8506 108.586 85.173 108.586C76.4955 108.586 69.4609 101.562 69.4609 92.8967Z" fill="#87B7FF"/>
<path fill-rule="evenodd" clip-rule="evenodd" d="M99.1389 46.3775C96.5357 42.8051 95 38.4067 95 33.6499C95 21.693 104.704 12 116.674 12C128.644 12 138.348 21.693 138.348 33.6499C138.348 45.6069 128.644 55.2999 116.674 55.2999C112.371 55.2999 108.36 54.0472 104.988 51.8869L97.4903 53.1709L99.1389 46.3775Z" fill="#FFB932"/>
<path d="M118.135 37.8828H114.523V35.9541C114.523 35.1467 114.614 34.5487 114.797 34.1599C115.011 33.7413 115.468 33.1881 116.169 32.5003L118.501 30.2127C118.988 29.7044 119.232 29.0465 119.232 28.2391C119.232 27.4616 118.973 26.8187 118.455 26.3104C117.967 25.802 117.312 25.5478 116.489 25.5478C115.666 25.5478 114.98 25.802 114.432 26.3104C113.883 26.7888 113.578 27.4317 113.517 28.2391H109.631C109.844 26.3851 110.576 24.9348 111.825 23.8882C113.106 22.8117 114.706 22.2734 116.626 22.2734C118.546 22.2734 120.101 22.7967 121.29 23.8433C122.478 24.8601 123.073 26.2655 123.073 28.0597C123.073 29.2857 122.707 30.3323 121.975 31.1995C121.518 31.7976 120.939 32.4106 120.238 33.0385C119.506 33.6964 119.004 34.1898 118.729 34.5187C118.333 35.057 118.135 35.7149 118.135 36.4924V37.8828ZM113.929 42.5477C113.929 41.9198 114.172 41.3815 114.66 40.933C115.148 40.4545 115.727 40.2153 116.397 40.2153C117.068 40.2153 117.647 40.4396 118.135 40.8881C118.623 41.3367 118.866 41.8749 118.866 42.5029C118.866 43.1607 118.623 43.7289 118.135 44.2073C117.678 44.6559 117.114 44.8802 116.443 44.8802C115.773 44.8802 115.178 44.6559 114.66 44.2073C114.172 43.7289 113.929 43.1757 113.929 42.5477Z" fill="white"/>
</svg>
