<svg width="396" height="312" viewBox="0 0 396 312" fill="none" xmlns="http://www.w3.org/2000/svg">
<path fill-rule="evenodd" clip-rule="evenodd" d="M381.756 183.014C381.756 81.9401 300.225 0 199.656 0C99.0858 0 17.5547 81.9401 17.5547 183.014C17.5547 209.945 23.391 235.489 33.7799 258.508H365.531C375.92 235.489 381.756 209.945 381.756 183.014Z" fill="#F4F6FC"/>
<path d="M1 258.507H10.9328" stroke="#7450C8" stroke-linecap="round" stroke-linejoin="round"/>
<path d="M385.067 258.507H395" stroke="#7450C8" stroke-linecap="round" stroke-linejoin="round"/>
<path d="M20.8655 258.507H375.134" stroke="#7450C8" stroke-linecap="round" stroke-linejoin="round"/>
<path fill-rule="evenodd" clip-rule="evenodd" d="M295.507 301.598C295.507 307.087 251.849 311.535 198 311.535C144.146 311.535 100.494 307.087 100.494 301.598C100.494 296.109 144.146 291.661 198 291.661C251.849 291.661 295.507 296.109 295.507 301.598Z" fill="#DFE4EE"/>
<path fill-rule="evenodd" clip-rule="evenodd" d="M318.644 215.476L318.619 91.808C318.619 83.2756 311.651 76.3564 303.052 76.3564H92.9178C84.3249 76.3564 77.3567 83.2756 77.3567 91.808L77.3814 215.476H318.644Z" fill="#DFE4EE"/>
<path fill-rule="evenodd" clip-rule="evenodd" d="M108.608 215.476L249.232 76.3564H92.9761C84.351 76.3564 77.3567 83.2756 77.3567 91.808L77.3815 215.476H108.608Z" fill="white"/>
<path fill-rule="evenodd" clip-rule="evenodd" d="M318.644 215.476V246.392C318.644 254.93 311.675 261.849 303.068 261.849H92.9194C84.3256 261.849 77.3567 254.93 77.3567 246.392V215.476H318.644Z" fill="white"/>
<path fill-rule="evenodd" clip-rule="evenodd" d="M318.644 215.476V246.392C318.644 254.93 311.675 261.849 303.068 261.849H92.9194C84.3256 261.849 77.3567 254.93 77.3567 246.392V215.476H318.644Z" stroke="#7450C8" stroke-linecap="round" stroke-linejoin="round"/>
<path fill-rule="evenodd" clip-rule="evenodd" d="M206.263 240.319C206.263 244.893 202.571 248.599 198 248.599C193.435 248.599 189.737 244.893 189.737 240.319C189.737 235.751 193.435 232.038 198 232.038C202.571 232.038 206.263 235.751 206.263 240.319Z" fill="#F4F6FC"/>
<path fill-rule="evenodd" clip-rule="evenodd" d="M206.263 240.319C206.263 244.893 202.571 248.599 198 248.599C193.435 248.599 189.737 244.893 189.737 240.319C189.737 235.751 193.435 232.038 198 232.038C202.571 232.038 206.263 235.751 206.263 240.319Z" stroke="#7450C8" stroke-linecap="round" stroke-linejoin="round"/>
<path fill-rule="evenodd" clip-rule="evenodd" d="M236.011 294.973H156.684L160.65 265.162H232.045L236.011 294.973Z" fill="white"/>
<path fill-rule="evenodd" clip-rule="evenodd" d="M236.011 294.973H156.684L160.65 265.162H232.045L236.011 294.973Z" stroke="#7450C8" stroke-linecap="round" stroke-linejoin="round"/>
<path d="M133.547 294.974H259.148" stroke="#7450C8" stroke-linecap="round" stroke-linejoin="round"/>
<path fill-rule="evenodd" clip-rule="evenodd" d="M318.644 215.476L318.619 91.808C318.619 83.2756 311.651 76.3564 303.052 76.3564H92.9178C84.3249 76.3564 77.3567 83.2756 77.3567 91.808L77.3814 215.476H318.644Z" stroke="#7450C8" stroke-linecap="round" stroke-linejoin="round"/>
<g clip-path="url(#clip0)">
<path d="M197 112L238.569 183.25H155.431L197 112Z" fill="#7450C8"/>
<path d="M242.65 181.807L199.473 106.473C198.494 105.041 196.37 104.573 194.728 105.426C194.234 105.683 193.822 106.043 193.528 106.473L150.351 181.807C149.531 183.239 150.196 184.979 151.837 185.694C152.299 185.896 152.808 186 153.324 186H239.677C241.511 186.001 242.999 184.704 243 183.104C243 182.654 242.88 182.21 242.65 181.807ZM158.697 180.205L196.5 114.247L234.303 180.205H158.697Z" fill="#7450C8"/>
<path d="M196.501 126.141C194.666 126.141 193.179 127.628 193.179 129.462V152.712C193.179 154.546 194.666 156.033 196.501 156.033C198.335 156.033 199.822 154.546 199.822 152.712V129.462C199.822 127.628 198.335 126.141 196.501 126.141Z" fill="white"/>
<path d="M196.501 162.675C194.666 162.675 193.179 164.162 193.179 165.997V169.318C193.179 171.152 194.666 172.639 196.501 172.639C198.335 172.639 199.822 171.152 199.822 169.318V165.997C199.822 164.162 198.335 162.675 196.501 162.675Z" fill="white"/>
</g>
<defs>
<clipPath id="clip0">
<rect width="93" height="93" fill="white" transform="translate(150 93)"/>
</clipPath>
</defs>
</svg>
