<svg width="1038" height="176" viewBox="0 0 1038 176" fill="none" xmlns="http://www.w3.org/2000/svg">
<path fill-rule="evenodd" clip-rule="evenodd" d="M98 73.2025C98 69.2236 94.8032 66 90.8573 66H30.1427C26.1997 66 23 69.2236 23 73.2025V129.024C23 133 26.1968 136.226 30.1427 136.226H43.2467C44.8861 136.226 46.2146 137.566 46.2146 139.219V147.009C46.2146 148.217 46.9382 149.309 48.0462 149.773C49.157 150.235 50.4318 149.978 51.2798 149.123L63.2022 137.101C63.759 136.543 64.5137 136.226 65.2995 136.226H90.8573C94.8032 136.226 98 133 98 129.024V73.2025Z" fill="white"/>
<path fill-rule="evenodd" clip-rule="evenodd" d="M98 73.2025C98 69.2236 94.8032 66 90.8573 66H30.1427C26.1997 66 23 69.2236 23 73.2025V129.024C23 133 26.1968 136.226 30.1427 136.226H43.2467C44.8861 136.226 46.2146 137.566 46.2146 139.219V147.009C46.2146 148.217 46.9382 149.309 48.0462 149.773C49.157 150.235 50.4318 149.978 51.2798 149.123L63.2022 137.101C63.759 136.543 64.5137 136.226 65.2995 136.226H90.8573C94.8032 136.226 98 133 98 129.024V73.2025Z" stroke="#7450C8" stroke-linejoin="round"/>
<path fill-rule="evenodd" clip-rule="evenodd" d="M86.0981 119H36.9019C35.3001 119 34 117.7 34 116.098V88.9019C34 87.3 35.3001 86 36.9019 86H86.0981C87.6999 86 89 87.3 89 88.9019V116.098C89 117.7 87.6999 119 86.0981 119Z" fill="white"/>
<path fill-rule="evenodd" clip-rule="evenodd" d="M85.1842 85H37.813C37.1159 85 36.506 85.2782 36 85.6801L58.4615 99.159C60.3307 100.28 62.6665 100.28 64.5357 99.159L87 85.6801C86.494 85.2754 85.8813 85 85.1842 85Z" fill="white"/>
<path fill-rule="evenodd" clip-rule="evenodd" d="M85.1842 86H37.813C37.1159 86 36.506 86.2782 36 86.6801L58.4615 100.159C60.3307 101.28 62.6665 101.28 64.5357 100.159L87 86.6801C86.494 86.2754 85.8813 86 85.1842 86Z" stroke="#7450C8" stroke-linecap="round" stroke-linejoin="round"/>
<path fill-rule="evenodd" clip-rule="evenodd" d="M86.0981 119H36.9019C35.3001 119 34 117.7 34 116.098V88.9019C34 87.3 35.3001 86 36.9019 86H86.0981C87.6999 86 89 87.3 89 88.9019V116.098C89 117.7 87.6999 119 86.0981 119Z" stroke="#7450C8" stroke-linecap="round" stroke-linejoin="round"/>
<path fill-rule="evenodd" clip-rule="evenodd" d="M674.822 89V93.9551H656.052V89H674.822ZM674.822 98.0913V103.046H656.052V98.0913H674.822Z" fill="#7450C8"/>
<path fill-rule="evenodd" clip-rule="evenodd" d="M868.159 107.505C868.159 66.3577 834.935 33 793.952 33C752.97 33 719.746 66.3577 719.746 107.505C719.746 118.468 722.124 128.867 726.358 138.238H861.547C865.78 128.867 868.159 118.468 868.159 107.505Z" fill="#F4F6FC"/>
<path d="M713 138.238H717.048" stroke="#7450C8" stroke-linecap="round" stroke-linejoin="round"/>
<path d="M869.508 138.238H873.556" stroke="#7450C8" stroke-linecap="round" stroke-linejoin="round"/>
<path d="M721.095 138.238H865.46" stroke="#7450C8" stroke-linecap="round" stroke-linejoin="round"/>
<path fill-rule="evenodd" clip-rule="evenodd" d="M833.079 155.778C833.079 158.013 815.258 159.825 793.278 159.825C771.295 159.825 753.476 158.013 753.476 155.778C753.476 153.542 771.295 151.73 793.278 151.73C815.258 151.73 833.079 153.542 833.079 155.778Z" fill="#DFE4EE"/>
<path fill-rule="evenodd" clip-rule="evenodd" d="M842.524 120.698L842.514 70.3255C842.514 66.8501 839.669 64.0317 836.159 64.0317H750.384C746.876 64.0317 744.032 66.8501 744.032 70.3255L744.042 120.698H842.524Z" fill="#DFE4EE"/>
<path fill-rule="evenodd" clip-rule="evenodd" d="M756.788 120.698L814.19 64.0317H750.408C746.887 64.0317 744.032 66.8501 744.032 70.3255L744.042 120.698H756.788Z" fill="white"/>
<path fill-rule="evenodd" clip-rule="evenodd" d="M842.524 120.698V133.291C842.524 136.769 839.679 139.587 836.166 139.587H750.384C746.876 139.587 744.032 136.769 744.032 133.291V120.698H842.524Z" fill="white"/>
<path fill-rule="evenodd" clip-rule="evenodd" d="M842.524 120.698V133.291C842.524 136.769 839.679 139.587 836.166 139.587H750.384C746.876 139.587 744.032 136.769 744.032 133.291V120.698H842.524Z" stroke="#7450C8" stroke-linecap="round" stroke-linejoin="round"/>
<path fill-rule="evenodd" clip-rule="evenodd" d="M796.651 130.817C796.651 132.681 795.144 134.19 793.278 134.19C791.415 134.19 789.905 132.681 789.905 130.817C789.905 128.957 791.415 127.444 793.278 127.444C795.144 127.444 796.651 128.957 796.651 130.817Z" fill="#F4F6FC"/>
<path fill-rule="evenodd" clip-rule="evenodd" d="M796.651 130.817C796.651 132.681 795.144 134.19 793.278 134.19C791.415 134.19 789.905 132.681 789.905 130.817C789.905 128.957 791.415 127.444 793.278 127.444C795.144 127.444 796.651 128.957 796.651 130.817Z" stroke="#7450C8" stroke-linecap="round" stroke-linejoin="round"/>
<path fill-rule="evenodd" clip-rule="evenodd" d="M808.794 153.079H776.413L778.032 140.937H807.175L808.794 153.079Z" fill="white"/>
<path fill-rule="evenodd" clip-rule="evenodd" d="M808.794 153.079H776.413L778.032 140.937H807.175L808.794 153.079Z" stroke="#7450C8" stroke-linecap="round" stroke-linejoin="round"/>
<path d="M766.968 153.08H818.238" stroke="#7450C8" stroke-linecap="round" stroke-linejoin="round"/>
<path fill-rule="evenodd" clip-rule="evenodd" d="M842.524 120.698L842.514 70.3255C842.514 66.8501 839.669 64.0317 836.159 64.0317H750.384C746.876 64.0317 744.032 66.8501 744.032 70.3255L744.042 120.698H842.524Z" stroke="#7450C8" stroke-linecap="round" stroke-linejoin="round"/>
<path fill-rule="evenodd" clip-rule="evenodd" d="M847.194 107.206H777.139C774.513 107.206 772.365 105.039 772.365 102.39V54.5874H851.968V102.39C851.968 105.039 849.82 107.206 847.194 107.206Z" fill="white"/>
<path fill-rule="evenodd" clip-rule="evenodd" d="M847.194 107.206H777.139C774.513 107.206 772.365 105.039 772.365 102.39V54.5874H851.968V102.39C851.968 105.039 849.82 107.206 847.194 107.206Z" stroke="#7450C8" stroke-linecap="round" stroke-linejoin="round"/>
<path fill-rule="evenodd" clip-rule="evenodd" d="M851.968 54.5874H772.365V43.0899C772.365 40.5088 774.513 38.397 777.139 38.397H847.194C849.82 38.397 851.968 40.5088 851.968 43.0899V54.5874Z" fill="white"/>
<path fill-rule="evenodd" clip-rule="evenodd" d="M851.968 54.5874H772.365V43.0899C772.365 40.5088 774.513 38.397 777.139 38.397H847.194C849.82 38.397 851.968 40.5088 851.968 43.0899V54.5874Z" stroke="#7450C8" stroke-linecap="round" stroke-linejoin="round"/>
<path fill-rule="evenodd" clip-rule="evenodd" d="M783.159 46.4924C783.159 47.9824 781.95 49.1908 780.46 49.1908C778.97 49.1908 777.762 47.9824 777.762 46.4924C777.762 45.0024 778.97 43.7939 780.46 43.7939C781.95 43.7939 783.159 45.0024 783.159 46.4924Z" fill="#DFE4EE"/>
<path fill-rule="evenodd" clip-rule="evenodd" d="M783.159 46.4924C783.159 47.9824 781.95 49.1908 780.46 49.1908C778.97 49.1908 777.762 47.9824 777.762 46.4924C777.762 45.0024 778.97 43.7939 780.46 43.7939C781.95 43.7939 783.159 45.0024 783.159 46.4924Z" stroke="#7450C8" stroke-linecap="round" stroke-linejoin="round"/>
<path fill-rule="evenodd" clip-rule="evenodd" d="M793.952 46.4924C793.952 47.9824 792.744 49.1908 791.254 49.1908C789.764 49.1908 788.556 47.9824 788.556 46.4924C788.556 45.0024 789.764 43.7939 791.254 43.7939C792.744 43.7939 793.952 45.0024 793.952 46.4924Z" fill="#DFE4EE"/>
<path fill-rule="evenodd" clip-rule="evenodd" d="M793.952 46.4924C793.952 47.9824 792.744 49.1908 791.254 49.1908C789.764 49.1908 788.556 47.9824 788.556 46.4924C788.556 45.0024 789.764 43.7939 791.254 43.7939C792.744 43.7939 793.952 45.0024 793.952 46.4924Z" stroke="#7450C8" stroke-linecap="round" stroke-linejoin="round"/>
<path fill-rule="evenodd" clip-rule="evenodd" d="M804.746 46.4924C804.746 47.9824 803.538 49.1908 802.048 49.1908C800.558 49.1908 799.349 47.9824 799.349 46.4924C799.349 45.0024 800.558 43.7939 802.048 43.7939C803.538 43.7939 804.746 45.0024 804.746 46.4924Z" fill="#DFE4EE"/>
<path fill-rule="evenodd" clip-rule="evenodd" d="M804.746 46.4924C804.746 47.9824 803.538 49.1908 802.048 49.1908C800.558 49.1908 799.349 47.9824 799.349 46.4924C799.349 45.0024 800.558 43.7939 802.048 43.7939C803.538 43.7939 804.746 45.0024 804.746 46.4924Z" stroke="#7450C8" stroke-linecap="round" stroke-linejoin="round"/>
<path fill-rule="evenodd" clip-rule="evenodd" d="M805.489 82.9211H798.606C797.527 82.9211 796.651 82.0451 796.651 80.9657V74.0828C796.651 73.0034 797.527 72.1274 798.606 72.1274H805.489C806.568 72.1274 807.444 73.0034 807.444 74.0828V80.9657C807.444 82.0451 806.568 82.9211 805.489 82.9211Z" fill="#DFE4EE"/>
<path fill-rule="evenodd" clip-rule="evenodd" d="M805.489 82.9211H798.606C797.527 82.9211 796.651 82.0451 796.651 80.9657V74.0828C796.651 73.0034 797.527 72.1274 798.606 72.1274H805.489C806.568 72.1274 807.444 73.0034 807.444 74.0828V80.9657C807.444 82.0451 806.568 82.9211 805.489 82.9211Z" stroke="#7450C8" stroke-linecap="round" stroke-linejoin="round"/>
<path fill-rule="evenodd" clip-rule="evenodd" d="M824.378 82.9211H817.495C816.416 82.9211 815.54 82.0451 815.54 80.9657V74.0828C815.54 73.0034 816.416 72.1274 817.495 72.1274H824.378C825.457 72.1274 826.333 73.0034 826.333 74.0828V80.9657C826.333 82.0451 825.457 82.9211 824.378 82.9211Z" fill="#DFE4EE"/>
<path fill-rule="evenodd" clip-rule="evenodd" d="M824.378 82.9211H817.495C816.416 82.9211 815.54 82.0451 815.54 80.9657V74.0828C815.54 73.0034 816.416 72.1274 817.495 72.1274H824.378C825.457 72.1274 826.333 73.0034 826.333 74.0828V80.9657C826.333 82.0451 825.457 82.9211 824.378 82.9211Z" stroke="#7450C8" stroke-linecap="round" stroke-linejoin="round"/>
<path fill-rule="evenodd" clip-rule="evenodd" d="M841.918 82.9211H835.035C833.955 82.9211 833.079 82.0451 833.079 80.9657V74.0828C833.079 73.0034 833.955 72.1274 835.035 72.1274H841.918C842.999 72.1274 843.873 73.0034 843.873 74.0828V80.9657C843.873 82.0451 842.999 82.9211 841.918 82.9211Z" fill="#DFE4EE"/>
<path fill-rule="evenodd" clip-rule="evenodd" d="M841.918 82.9211H835.035C833.955 82.9211 833.079 82.0451 833.079 80.9657V74.0828C833.079 73.0034 833.955 72.1274 835.035 72.1274H841.918C842.999 72.1274 843.873 73.0034 843.873 74.0828V80.9657C843.873 82.0451 842.999 82.9211 841.918 82.9211Z" stroke="#7450C8" stroke-linecap="round" stroke-linejoin="round"/>
<path fill-rule="evenodd" clip-rule="evenodd" d="M805.489 99.1115H798.606C797.527 99.1115 796.651 98.2355 796.651 97.1561V90.2732C796.651 89.1939 797.527 88.3179 798.606 88.3179H805.489C806.568 88.3179 807.444 89.1939 807.444 90.2732V97.1561C807.444 98.2355 806.568 99.1115 805.489 99.1115Z" fill="#DFE4EE"/>
<path fill-rule="evenodd" clip-rule="evenodd" d="M805.489 99.1115H798.606C797.527 99.1115 796.651 98.2355 796.651 97.1562V90.2732C796.651 89.1939 797.527 88.3179 798.606 88.3179H805.489C806.568 88.3179 807.444 89.1939 807.444 90.2732V97.1562C807.444 98.2355 806.568 99.1115 805.489 99.1115Z" stroke="#7450C8" stroke-linecap="round" stroke-linejoin="round"/>
<path fill-rule="evenodd" clip-rule="evenodd" d="M824.378 99.1115H817.495C816.416 99.1115 815.54 98.2355 815.54 97.1561V90.2732C815.54 89.1939 816.416 88.3179 817.495 88.3179H824.378C825.457 88.3179 826.333 89.1939 826.333 90.2732V97.1561C826.333 98.2355 825.457 99.1115 824.378 99.1115Z" fill="#DFE4EE"/>
<path fill-rule="evenodd" clip-rule="evenodd" d="M824.378 99.1115H817.495C816.416 99.1115 815.54 98.2355 815.54 97.1562V90.2732C815.54 89.1939 816.416 88.3179 817.495 88.3179H824.378C825.457 88.3179 826.333 89.1939 826.333 90.2732V97.1562C826.333 98.2355 825.457 99.1115 824.378 99.1115Z" stroke="#7450C8" stroke-linecap="round" stroke-linejoin="round"/>
<path fill-rule="evenodd" clip-rule="evenodd" d="M841.918 99.1115H835.035C833.955 99.1115 833.079 98.2355 833.079 97.1561V90.2732C833.079 89.1939 833.955 88.3179 835.035 88.3179H841.918C842.999 88.3179 843.873 89.1939 843.873 90.2732V97.1561C843.873 98.2355 842.999 99.1115 841.918 99.1115Z" fill="#DFE4EE"/>
<path fill-rule="evenodd" clip-rule="evenodd" d="M841.918 99.1115H835.035C833.955 99.1115 833.079 98.2355 833.079 97.1562V90.2732C833.079 89.1939 833.955 88.3179 835.035 88.3179H841.918C842.999 88.3179 843.873 89.1939 843.873 90.2732V97.1562C843.873 98.2355 842.999 99.1115 841.918 99.1115Z" stroke="#7450C8" stroke-linecap="round" stroke-linejoin="round"/>
<path fill-rule="evenodd" clip-rule="evenodd" d="M789.299 65.3812H782.416C781.336 65.3812 780.46 64.5052 780.46 63.4258V61.9397C780.46 60.8604 781.336 59.9844 782.416 59.9844H789.299C790.378 59.9844 791.254 60.8604 791.254 61.9397V63.4258C791.254 64.5052 790.378 65.3812 789.299 65.3812Z" fill="#DFE4EE"/>
<path fill-rule="evenodd" clip-rule="evenodd" d="M789.299 65.3812H782.416C781.336 65.3812 780.46 64.5052 780.46 63.4258V61.9397C780.46 60.8604 781.336 59.9844 782.416 59.9844H789.299C790.378 59.9844 791.254 60.8604 791.254 61.9397V63.4258C791.254 64.5052 790.378 65.3812 789.299 65.3812Z" stroke="#7450C8" stroke-linecap="round" stroke-linejoin="round"/>
<path fill-rule="evenodd" clip-rule="evenodd" d="M841.86 65.3812H798.664C797.553 65.3812 796.651 64.5052 796.651 63.4258V61.9397C796.651 60.8604 797.553 59.9844 798.664 59.9844H841.86C842.973 59.9844 843.873 60.8604 843.873 61.9397V63.4258C843.873 64.5052 842.973 65.3812 841.86 65.3812Z" fill="#DFE4EE"/>
<path fill-rule="evenodd" clip-rule="evenodd" d="M841.86 65.3812H798.664C797.553 65.3812 796.651 64.5052 796.651 63.4258V61.9397C796.651 60.8604 797.553 59.9844 798.664 59.9844H841.86C842.973 59.9844 843.873 60.8604 843.873 61.9397V63.4258C843.873 64.5052 842.973 65.3812 841.86 65.3812Z" stroke="#7450C8" stroke-linejoin="round"/>
<path d="M780.46 72.1274H791.254" stroke="#7450C8" stroke-linecap="round" stroke-linejoin="round"/>
<path d="M780.46 77.5239H791.254" stroke="#7450C8" stroke-linecap="round" stroke-linejoin="round"/>
<path d="M780.46 82.9209H791.254" stroke="#7450C8" stroke-linecap="round" stroke-linejoin="round"/>
<path d="M780.46 88.3179H791.254" stroke="#7450C8" stroke-linecap="round" stroke-linejoin="round"/>
<path d="M780.46 93.7144H791.254" stroke="#7450C8" stroke-linecap="round" stroke-linejoin="round"/>
<path d="M780.46 99.1113H787.206" stroke="#7450C8" stroke-linecap="round" stroke-linejoin="round"/>
<path fill-rule="evenodd" clip-rule="evenodd" d="M869.696 129.017C869.298 130.472 868.499 130.524 867.919 129.133L858.924 107.544C858.344 106.151 859.01 105.487 860.401 106.068L881.988 115.063C883.381 115.643 883.33 116.44 881.873 116.84L874.951 118.726C873.496 119.123 871.979 120.64 871.584 122.095L869.696 129.017Z" fill="white"/>
<path fill-rule="evenodd" clip-rule="evenodd" d="M869.696 129.017C869.298 130.472 868.499 130.524 867.919 129.133L858.924 107.544C858.344 106.151 859.01 105.487 860.401 106.068L881.988 115.063C883.381 115.643 883.33 116.44 881.873 116.84L874.951 118.726C873.496 119.123 871.979 120.64 871.584 122.095L869.696 129.017Z" stroke="#7450C8" stroke-linejoin="round"/>
<path d="M133 104.637C176.667 104.884 220.333 105.132 264 105.379" stroke="#7450C8" stroke-width="1.5" stroke-dasharray="3"/>
<path d="M265.633 98C277.087 106.267 276.319 101.567 265.621 112.285" stroke="#7450C8" stroke-width="1.5"/>
<path fill-rule="evenodd" clip-rule="evenodd" d="M464.319 92.5245C464.319 49.2132 429.348 14.1011 386.21 14.1011C343.072 14.1011 308.101 49.2132 308.101 92.5245C308.101 104.065 310.604 115.01 315.06 124.874H457.36C461.816 115.01 464.319 104.065 464.319 92.5245Z" fill="#F4F6FC"/>
<path fill-rule="evenodd" clip-rule="evenodd" d="M454.378 94.246C454.378 57.0427 424.176 26.8823 386.92 26.8823C349.665 26.8823 319.462 57.0427 319.462 94.246C319.462 104.157 321.624 113.559 325.473 122.034H448.368C452.218 113.559 454.378 104.157 454.378 94.246Z" fill="#F0F2FF"/>
<path d="M319.462 123.454H451.538" stroke="#7450C8" stroke-linecap="round" stroke-linejoin="round"/>
<path d="M312.361 123.454H316.622" stroke="#7450C8" stroke-linecap="round" stroke-linejoin="round"/>
<path d="M454.378 123.454H458.639" stroke="#7450C8" stroke-linecap="round" stroke-linejoin="round"/>
<mask id="mask0" mask-type="alpha" maskUnits="userSpaceOnUse" x="301" y="7" width="169" height="169">
<path fill-rule="evenodd" clip-rule="evenodd" d="M301 176H470V7H301V176Z" fill="white"/>
</mask>
<g mask="url(#mask0)">
<path fill-rule="evenodd" clip-rule="evenodd" d="M410.353 117.773H440.176V60.9663H410.353V117.773Z" fill="white"/>
<path fill-rule="evenodd" clip-rule="evenodd" d="M410.353 117.773H440.176V60.9663H410.353V117.773Z" stroke="#7450C8" stroke-linecap="round" stroke-linejoin="round"/>
<path fill-rule="evenodd" clip-rule="evenodd" d="M410.353 59.5464H440.176V56.7061H410.353V59.5464Z" fill="white"/>
<path fill-rule="evenodd" clip-rule="evenodd" d="M410.353 59.5464H440.176V56.7061H410.353V59.5464Z" stroke="#7450C8" stroke-linecap="round" stroke-linejoin="round"/>
<path fill-rule="evenodd" clip-rule="evenodd" d="M407.513 123.454H410.353V56.9898C410.353 56.0491 409.717 55.2856 408.933 55.2856C408.147 55.2856 407.513 56.0491 407.513 56.9898V123.454Z" fill="white"/>
<path fill-rule="evenodd" clip-rule="evenodd" d="M407.513 123.454H410.353V56.9898C410.353 56.0491 409.717 55.2856 408.933 55.2856C408.147 55.2856 407.513 56.0491 407.513 56.9898V123.454Z" stroke="#7450C8" stroke-linecap="round" stroke-linejoin="round"/>
<path fill-rule="evenodd" clip-rule="evenodd" d="M441.597 123.454H444.437V56.9898C444.437 56.0491 443.801 55.2856 443.017 55.2856C442.231 55.2856 441.597 56.0491 441.597 56.9898V123.454Z" fill="white"/>
<path fill-rule="evenodd" clip-rule="evenodd" d="M441.597 123.454H444.437V56.9898C444.437 56.0491 443.801 55.2856 443.017 55.2856C442.231 55.2856 441.597 56.0491 441.597 56.9898V123.454Z" stroke="#7450C8" stroke-linecap="round" stroke-linejoin="round"/>
<path fill-rule="evenodd" clip-rule="evenodd" d="M374.849 117.773H404.672V60.9663H374.849V117.773Z" fill="white"/>
<path fill-rule="evenodd" clip-rule="evenodd" d="M374.849 117.773H404.672V60.9663H374.849V117.773Z" stroke="#7450C8" stroke-linecap="round" stroke-linejoin="round"/>
<path fill-rule="evenodd" clip-rule="evenodd" d="M400.412 69.4873H377.689V65.7002C377.689 64.655 378.441 63.8066 379.372 63.8066H398.729C399.658 63.8066 400.412 64.655 400.412 65.7002V69.4873Z" fill="white"/>
<path fill-rule="evenodd" clip-rule="evenodd" d="M400.412 69.4873H377.689V65.7002C377.689 64.655 378.441 63.8066 379.372 63.8066H398.729C399.658 63.8066 400.412 64.655 400.412 65.7002V69.4873Z" stroke="#7450C8" stroke-linecap="round" stroke-linejoin="round"/>
<path fill-rule="evenodd" clip-rule="evenodd" d="M391.417 63.8066L386.21 69.4873H401.832V65.7002C401.832 64.655 401.054 63.8066 400.096 63.8066H391.417Z" fill="#DFE4EE"/>
<path fill-rule="evenodd" clip-rule="evenodd" d="M391.417 63.8066L386.21 69.4873H401.832V65.7002C401.832 64.655 401.054 63.8066 400.096 63.8066H391.417Z" stroke="#7450C8" stroke-linecap="round" stroke-linejoin="round"/>
<path fill-rule="evenodd" clip-rule="evenodd" d="M400.412 96.4707H377.689V92.6836C377.689 91.6384 378.441 90.79 379.372 90.79H398.729C399.658 90.79 400.412 91.6384 400.412 92.6836V96.4707Z" fill="white"/>
<path fill-rule="evenodd" clip-rule="evenodd" d="M400.412 96.4707H377.689V92.6836C377.689 91.6384 378.441 90.79 379.372 90.79H398.729C399.658 90.79 400.412 91.6384 400.412 92.6836V96.4707Z" stroke="#7450C8" stroke-linecap="round" stroke-linejoin="round"/>
<path fill-rule="evenodd" clip-rule="evenodd" d="M391.417 90.79L386.21 96.4707H401.832V92.6836C401.832 91.6384 401.054 90.79 400.096 90.79H391.417Z" fill="#DFE4EE"/>
<path fill-rule="evenodd" clip-rule="evenodd" d="M391.417 90.79L386.21 96.4707H401.832V92.6836C401.832 91.6384 401.054 90.79 400.096 90.79H391.417Z" stroke="#7450C8" stroke-linecap="round" stroke-linejoin="round"/>
<path fill-rule="evenodd" clip-rule="evenodd" d="M400.412 71.8545C400.412 72.8997 399.658 73.7481 398.729 73.7481H379.372C378.441 73.7481 377.689 72.8997 377.689 71.8545V68.0674H400.412V71.8545Z" fill="white"/>
<path fill-rule="evenodd" clip-rule="evenodd" d="M400.412 71.8545C400.412 72.8997 399.658 73.7481 398.729 73.7481H379.372C378.441 73.7481 377.689 72.8997 377.689 71.8545V68.0674H400.412V71.8545Z" stroke="#7450C8" stroke-linecap="round" stroke-linejoin="round"/>
<path fill-rule="evenodd" clip-rule="evenodd" d="M391.417 68.0674L386.21 73.7481H400.096C401.054 73.7481 401.832 72.8997 401.832 71.8545V68.0674H391.417Z" fill="#DFE4EE"/>
<path fill-rule="evenodd" clip-rule="evenodd" d="M391.417 68.0674L386.21 73.7481H400.096C401.054 73.7481 401.832 72.8997 401.832 71.8545V68.0674H391.417Z" stroke="#7450C8" stroke-linecap="round" stroke-linejoin="round"/>
<path fill-rule="evenodd" clip-rule="evenodd" d="M437.336 69.4873H414.613V65.7002C414.613 64.655 415.366 63.8066 416.297 63.8066H435.653C436.582 63.8066 437.336 64.655 437.336 65.7002V69.4873Z" fill="white"/>
<path fill-rule="evenodd" clip-rule="evenodd" d="M437.336 69.4873H414.613V65.7002C414.613 64.655 415.366 63.8066 416.297 63.8066H435.653C436.582 63.8066 437.336 64.655 437.336 65.7002V69.4873Z" stroke="#7450C8" stroke-linecap="round" stroke-linejoin="round"/>
<path fill-rule="evenodd" clip-rule="evenodd" d="M426.922 63.8066L421.714 69.4873H437.336V65.7002C437.336 64.655 436.559 63.8066 435.6 63.8066H426.922Z" fill="#DFE4EE"/>
<path fill-rule="evenodd" clip-rule="evenodd" d="M426.922 63.8066L421.714 69.4873H437.336V65.7002C437.336 64.655 436.559 63.8066 435.6 63.8066H426.922Z" stroke="#7450C8" stroke-linecap="round" stroke-linejoin="round"/>
<path fill-rule="evenodd" clip-rule="evenodd" d="M437.336 71.8545C437.336 72.8997 436.582 73.7481 435.653 73.7481H416.297C415.366 73.7481 414.613 72.8997 414.613 71.8545V68.0674H437.336V71.8545Z" fill="white"/>
<path fill-rule="evenodd" clip-rule="evenodd" d="M437.336 71.8545C437.336 72.8997 436.582 73.7481 435.653 73.7481H416.297C415.366 73.7481 414.613 72.8997 414.613 71.8545V68.0674H437.336V71.8545Z" stroke="#7450C8" stroke-linecap="round" stroke-linejoin="round"/>
<path fill-rule="evenodd" clip-rule="evenodd" d="M426.922 68.0674L421.714 73.7481H435.6C436.559 73.7481 437.336 72.8997 437.336 71.8545V68.0674H426.922Z" fill="#DFE4EE"/>
<path fill-rule="evenodd" clip-rule="evenodd" d="M426.922 68.0674L421.714 73.7481H435.6C436.559 73.7481 437.336 72.8997 437.336 71.8545V68.0674H426.922Z" stroke="#7450C8" stroke-linecap="round" stroke-linejoin="round"/>
<path fill-rule="evenodd" clip-rule="evenodd" d="M437.336 82.2691H414.613V78.4819C414.613 77.4367 415.366 76.5884 416.297 76.5884H435.653C436.582 76.5884 437.336 77.4367 437.336 78.4819V82.2691Z" fill="white"/>
<path fill-rule="evenodd" clip-rule="evenodd" d="M437.336 82.2691H414.613V78.4819C414.613 77.4367 415.366 76.5884 416.297 76.5884H435.653C436.582 76.5884 437.336 77.4367 437.336 78.4819V82.2691Z" stroke="#7450C8" stroke-linecap="round" stroke-linejoin="round"/>
<path fill-rule="evenodd" clip-rule="evenodd" d="M426.922 76.5884L421.714 82.2691H437.336V78.4819C437.336 77.4367 436.559 76.5884 435.6 76.5884H426.922Z" fill="#DFE4EE"/>
<path fill-rule="evenodd" clip-rule="evenodd" d="M426.922 76.5884L421.714 82.2691H437.336V78.4819C437.336 77.4367 436.559 76.5884 435.6 76.5884H426.922Z" stroke="#7450C8" stroke-linecap="round" stroke-linejoin="round"/>
<path fill-rule="evenodd" clip-rule="evenodd" d="M437.336 86.0562C437.336 87.1014 436.582 87.9497 435.653 87.9497H416.297C415.366 87.9497 414.613 87.1014 414.613 86.0562V82.269H437.336V86.0562Z" fill="white"/>
<path fill-rule="evenodd" clip-rule="evenodd" d="M437.336 86.0562C437.336 87.1014 436.582 87.9497 435.653 87.9497H416.297C415.366 87.9497 414.613 87.1014 414.613 86.0562V82.269H437.336V86.0562Z" stroke="#7450C8" stroke-linecap="round" stroke-linejoin="round"/>
<path fill-rule="evenodd" clip-rule="evenodd" d="M426.922 82.269L421.714 87.9497H435.6C436.559 87.9497 437.336 87.1014 437.336 86.0562V82.269H426.922Z" fill="#DFE4EE"/>
<path fill-rule="evenodd" clip-rule="evenodd" d="M426.922 82.269L421.714 87.9497H435.6C436.559 87.9497 437.336 87.1014 437.336 86.0562V82.269H426.922Z" stroke="#7450C8" stroke-linecap="round" stroke-linejoin="round"/>
<path fill-rule="evenodd" clip-rule="evenodd" d="M400.412 109.252H377.689V105.465C377.689 104.42 378.441 103.571 379.372 103.571H398.729C399.658 103.571 400.412 104.42 400.412 105.465V109.252Z" fill="white"/>
<path fill-rule="evenodd" clip-rule="evenodd" d="M400.412 109.252H377.689V105.465C377.689 104.42 378.441 103.571 379.372 103.571H398.729C399.658 103.571 400.412 104.42 400.412 105.465V109.252Z" stroke="#7450C8" stroke-linecap="round" stroke-linejoin="round"/>
<path fill-rule="evenodd" clip-rule="evenodd" d="M391.417 103.571L386.21 109.252H401.832V105.465C401.832 104.42 401.054 103.571 400.096 103.571H391.417Z" fill="#DFE4EE"/>
<path fill-rule="evenodd" clip-rule="evenodd" d="M391.417 103.571L386.21 109.252H401.832V105.465C401.832 104.42 401.054 103.571 400.096 103.571H391.417Z" stroke="#7450C8" stroke-linecap="round" stroke-linejoin="round"/>
<path fill-rule="evenodd" clip-rule="evenodd" d="M400.412 113.039C400.412 114.084 399.658 114.933 398.729 114.933H379.372C378.441 114.933 377.689 114.084 377.689 113.039V109.252H400.412V113.039Z" fill="white"/>
<path fill-rule="evenodd" clip-rule="evenodd" d="M400.412 113.039C400.412 114.084 399.658 114.933 398.729 114.933H379.372C378.441 114.933 377.689 114.084 377.689 113.039V109.252H400.412V113.039Z" stroke="#7450C8" stroke-linecap="round" stroke-linejoin="round"/>
<path fill-rule="evenodd" clip-rule="evenodd" d="M391.417 109.252L386.21 114.933H400.096C401.054 114.933 401.832 114.084 401.832 113.039V109.252H391.417Z" fill="#DFE4EE"/>
<path fill-rule="evenodd" clip-rule="evenodd" d="M391.417 109.252L386.21 114.933H400.096C401.054 114.933 401.832 114.084 401.832 113.039V109.252H391.417Z" stroke="#7450C8" stroke-linecap="round" stroke-linejoin="round"/>
<path fill-rule="evenodd" clip-rule="evenodd" d="M400.412 82.2691H377.689V78.4819C377.689 77.4367 378.441 76.5884 379.372 76.5884H398.729C399.658 76.5884 400.412 77.4367 400.412 78.4819V82.2691Z" fill="white"/>
<path fill-rule="evenodd" clip-rule="evenodd" d="M400.412 82.2691H377.689V78.4819C377.689 77.4367 378.441 76.5884 379.372 76.5884H398.729C399.658 76.5884 400.412 77.4367 400.412 78.4819V82.2691Z" stroke="#7450C8" stroke-linecap="round" stroke-linejoin="round"/>
<path fill-rule="evenodd" clip-rule="evenodd" d="M391.417 76.5884L386.21 82.2691H401.832V78.4819C401.832 77.4367 401.054 76.5884 400.096 76.5884H391.417Z" fill="#DFE4EE"/>
<path fill-rule="evenodd" clip-rule="evenodd" d="M391.417 76.5884L386.21 82.2691H401.832V78.4819C401.832 77.4367 401.054 76.5884 400.096 76.5884H391.417Z" stroke="#7450C8" stroke-linecap="round" stroke-linejoin="round"/>
<path fill-rule="evenodd" clip-rule="evenodd" d="M400.412 86.0562C400.412 87.1014 399.658 87.9497 398.729 87.9497H379.372C378.441 87.9497 377.689 87.1014 377.689 86.0562V82.269H400.412V86.0562Z" fill="white"/>
<path fill-rule="evenodd" clip-rule="evenodd" d="M400.412 86.0562C400.412 87.1014 399.658 87.9497 398.729 87.9497H379.372C378.441 87.9497 377.689 87.1014 377.689 86.0562V82.269H400.412V86.0562Z" stroke="#7450C8" stroke-linecap="round" stroke-linejoin="round"/>
<path fill-rule="evenodd" clip-rule="evenodd" d="M391.417 82.269L386.21 87.9497H400.096C401.054 87.9497 401.832 87.1014 401.832 86.0562V82.269H391.417Z" fill="#DFE4EE"/>
<path fill-rule="evenodd" clip-rule="evenodd" d="M391.417 82.269L386.21 87.9497H400.096C401.054 87.9497 401.832 87.1014 401.832 86.0562V82.269H391.417Z" stroke="#7450C8" stroke-linecap="round" stroke-linejoin="round"/>
<path fill-rule="evenodd" clip-rule="evenodd" d="M437.336 96.4707H414.613V92.6836C414.613 91.6384 415.366 90.79 416.297 90.79H435.653C436.582 90.79 437.336 91.6384 437.336 92.6836V96.4707Z" fill="white"/>
<path fill-rule="evenodd" clip-rule="evenodd" d="M437.336 96.4707H414.613V92.6836C414.613 91.6384 415.366 90.79 416.297 90.79H435.653C436.582 90.79 437.336 91.6384 437.336 92.6836V96.4707Z" stroke="#7450C8" stroke-linecap="round" stroke-linejoin="round"/>
<path fill-rule="evenodd" clip-rule="evenodd" d="M426.922 90.79L421.714 96.4707H437.336V92.6836C437.336 91.6384 436.559 90.79 435.6 90.79H426.922Z" fill="#DFE4EE"/>
<path fill-rule="evenodd" clip-rule="evenodd" d="M426.922 90.79L421.714 96.4707H437.336V92.6836C437.336 91.6384 436.559 90.79 435.6 90.79H426.922Z" stroke="#7450C8" stroke-linecap="round" stroke-linejoin="round"/>
<path fill-rule="evenodd" clip-rule="evenodd" d="M437.336 98.8374C437.336 99.8827 436.582 100.731 435.653 100.731H416.297C415.366 100.731 414.613 99.8827 414.613 98.8374V95.0503H437.336V98.8374Z" fill="white"/>
<path fill-rule="evenodd" clip-rule="evenodd" d="M437.336 98.8374C437.336 99.8827 436.582 100.731 435.653 100.731H416.297C415.366 100.731 414.613 99.8827 414.613 98.8374V95.0503H437.336V98.8374Z" stroke="#7450C8" stroke-linecap="round" stroke-linejoin="round"/>
<path fill-rule="evenodd" clip-rule="evenodd" d="M426.922 95.0503L421.714 100.731H435.6C436.559 100.731 437.336 99.8827 437.336 98.8374V95.0503H426.922Z" fill="#DFE4EE"/>
<path fill-rule="evenodd" clip-rule="evenodd" d="M426.922 95.0503L421.714 100.731H435.6C436.559 100.731 437.336 99.8827 437.336 98.8374V95.0503H426.922Z" stroke="#7450C8" stroke-linecap="round" stroke-linejoin="round"/>
<path fill-rule="evenodd" clip-rule="evenodd" d="M437.336 109.252H414.613V105.465C414.613 104.42 415.366 103.571 416.297 103.571H435.653C436.582 103.571 437.336 104.42 437.336 105.465V109.252Z" fill="white"/>
<path fill-rule="evenodd" clip-rule="evenodd" d="M437.336 109.252H414.613V105.465C414.613 104.42 415.366 103.571 416.297 103.571H435.653C436.582 103.571 437.336 104.42 437.336 105.465V109.252Z" stroke="#7450C8" stroke-linecap="round" stroke-linejoin="round"/>
<path fill-rule="evenodd" clip-rule="evenodd" d="M426.922 103.571L421.714 109.252H437.336V105.465C437.336 104.42 436.559 103.571 435.6 103.571H426.922Z" fill="#DFE4EE"/>
<path fill-rule="evenodd" clip-rule="evenodd" d="M426.922 103.571L421.714 109.252H437.336V105.465C437.336 104.42 436.559 103.571 435.6 103.571H426.922Z" stroke="#7450C8" stroke-linecap="round" stroke-linejoin="round"/>
<path fill-rule="evenodd" clip-rule="evenodd" d="M437.336 113.039C437.336 114.084 436.582 114.933 435.653 114.933H416.297C415.366 114.933 414.613 114.084 414.613 113.039V109.252H437.336V113.039Z" fill="white"/>
<path fill-rule="evenodd" clip-rule="evenodd" d="M437.336 113.039C437.336 114.084 436.582 114.933 435.653 114.933H416.297C415.366 114.933 414.613 114.084 414.613 113.039V109.252H437.336V113.039Z" stroke="#7450C8" stroke-linecap="round" stroke-linejoin="round"/>
<path fill-rule="evenodd" clip-rule="evenodd" d="M426.922 109.252L421.714 114.933H435.6C436.559 114.933 437.336 114.084 437.336 113.039V109.252H426.922Z" fill="#DFE4EE"/>
<path fill-rule="evenodd" clip-rule="evenodd" d="M426.922 109.252L421.714 114.933H435.6C436.559 114.933 437.336 114.084 437.336 113.039V109.252H426.922Z" stroke="#7450C8" stroke-linecap="round" stroke-linejoin="round"/>
<path fill-rule="evenodd" clip-rule="evenodd" d="M400.412 98.8374C400.412 99.8827 399.658 100.731 398.729 100.731H379.372C378.441 100.731 377.689 99.8827 377.689 98.8374V95.0503H400.412V98.8374Z" fill="white"/>
<path fill-rule="evenodd" clip-rule="evenodd" d="M400.412 98.8374C400.412 99.8827 399.658 100.731 398.729 100.731H379.372C378.441 100.731 377.689 99.8827 377.689 98.8374V95.0503H400.412V98.8374Z" stroke="#7450C8" stroke-linecap="round" stroke-linejoin="round"/>
<path fill-rule="evenodd" clip-rule="evenodd" d="M391.417 95.0503L386.21 100.731H400.096C401.054 100.731 401.832 99.8827 401.832 98.8374V95.0503H391.417Z" fill="#DFE4EE"/>
<path fill-rule="evenodd" clip-rule="evenodd" d="M391.417 95.0503L386.21 100.731H400.096C401.054 100.731 401.832 99.8827 401.832 98.8374V95.0503H391.417Z" stroke="#7450C8" stroke-linecap="round" stroke-linejoin="round"/>
<path fill-rule="evenodd" clip-rule="evenodd" d="M374.849 59.5464H404.672V56.7061H374.849V59.5464Z" fill="white"/>
<path fill-rule="evenodd" clip-rule="evenodd" d="M374.849 59.5464H404.672V56.7061H374.849V59.5464Z" stroke="#7450C8" stroke-linecap="round" stroke-linejoin="round"/>
<path fill-rule="evenodd" clip-rule="evenodd" d="M372.008 123.454H374.849V56.9898C374.849 56.0491 374.214 55.2856 373.429 55.2856C372.645 55.2856 372.008 56.0491 372.008 56.9898V123.454Z" fill="white"/>
<path fill-rule="evenodd" clip-rule="evenodd" d="M372.008 123.454H374.849V56.9898C374.849 56.0491 374.214 55.2856 373.429 55.2856C372.645 55.2856 372.008 56.0491 372.008 56.9898V123.454Z" stroke="#7450C8" stroke-linecap="round" stroke-linejoin="round"/>
<path fill-rule="evenodd" clip-rule="evenodd" d="M404.672 123.454H407.513V56.9898C407.513 56.0491 406.876 55.2856 406.092 55.2856C405.307 55.2856 404.672 56.0491 404.672 56.9898V123.454Z" fill="white"/>
<path fill-rule="evenodd" clip-rule="evenodd" d="M404.672 123.454H407.513V56.9898C407.513 56.0491 406.876 55.2856 406.092 55.2856C405.307 55.2856 404.672 56.0491 404.672 56.9898V123.454Z" stroke="#7450C8" stroke-linecap="round" stroke-linejoin="round"/>
<path d="M379.109 102.151V102.151C381.793 102.151 383.968 104.322 383.968 106.999V141.906C383.968 145.833 387.158 149.017 391.096 149.017H397.571" stroke="#7450C8" stroke-linecap="round" stroke-linejoin="round"/>
<path fill-rule="evenodd" clip-rule="evenodd" d="M399.6 150.437H404.672V146.176H399.6C398.48 146.176 397.571 147.13 397.571 148.307C397.571 149.483 398.48 150.437 399.6 150.437Z" fill="#DFE4EE"/>
<path fill-rule="evenodd" clip-rule="evenodd" d="M399.6 150.437H404.672V146.176H399.6C398.48 146.176 397.571 147.13 397.571 148.307C397.571 149.483 398.48 150.437 399.6 150.437Z" stroke="#7450C8" stroke-linecap="round" stroke-linejoin="round"/>
<path d="M398.992 117.773V128.849C398.992 131.359 401.08 133.395 403.659 133.395H408.014C412.444 133.395 416.034 136.891 416.034 141.206C416.034 145.519 412.444 149.017 408.014 149.017H404.004" stroke="#7450C8" stroke-linecap="round" stroke-linejoin="round"/>
<path d="M393.311 117.773V128.712C393.311 131.298 395.343 133.395 397.852 133.395H407.513" stroke="#7450C8" stroke-linecap="round" stroke-linejoin="round"/>
<path fill-rule="evenodd" clip-rule="evenodd" d="M335.084 153.277C335.084 154.847 343.667 156.118 354.256 156.118C364.844 156.118 373.429 154.847 373.429 153.277C373.429 151.708 364.844 150.437 354.256 150.437C343.667 150.437 335.084 151.708 335.084 153.277Z" fill="#F4F6FC"/>
<path fill-rule="evenodd" clip-rule="evenodd" d="M350.269 48.1851C343.752 48.1851 338.471 53.3621 338.471 59.7493V61.2929C337.357 61.5225 336.504 62.4443 336.504 63.604C336.504 64.8493 337.481 65.8398 338.719 65.9655C339.83 71.2197 344.578 75.1683 350.269 75.1683C356.785 75.1683 362.067 69.9912 362.067 63.604V59.7493C362.067 53.3621 356.785 48.1851 350.269 48.1851Z" fill="white"/>
<path fill-rule="evenodd" clip-rule="evenodd" d="M350.269 48.1851C343.752 48.1851 338.471 53.3621 338.471 59.7493V61.2929C337.357 61.5225 336.504 62.4443 336.504 63.604C336.504 64.8493 337.481 65.8398 338.719 65.9655C339.83 71.2197 344.578 75.1683 350.269 75.1683C356.785 75.1683 362.067 69.9912 362.067 63.604V59.7493C362.067 53.3621 356.785 48.1851 350.269 48.1851Z" stroke="#7450C8" stroke-linecap="round" stroke-linejoin="round"/>
<path fill-rule="evenodd" clip-rule="evenodd" d="M330.824 97.6606C330.824 87.5909 339.089 79.4287 349.286 79.4287C359.481 79.4287 367.748 87.5909 367.748 97.6606V100.539H362.889L362.884 114.933H337.625L337.619 100.539H330.824V97.6606Z" fill="white"/>
<path fill-rule="evenodd" clip-rule="evenodd" d="M330.824 97.6606C330.824 87.5909 339.089 79.4287 349.286 79.4287C359.481 79.4287 367.748 87.5909 367.748 97.6606V100.539H362.889L362.884 114.933H337.625L337.619 100.539H330.824V97.6606Z" stroke="#7450C8" stroke-linecap="round" stroke-linejoin="round"/>
<path fill-rule="evenodd" clip-rule="evenodd" d="M350.706 60.9666C350.706 61.7508 350.07 62.3867 349.285 62.3867C348.501 62.3867 347.866 61.7508 347.866 60.9666C347.866 60.1823 348.501 59.5464 349.285 59.5464C350.07 59.5464 350.706 60.1823 350.706 60.9666Z" fill="#7450C8"/>
<path fill-rule="evenodd" clip-rule="evenodd" d="M354.966 60.9666C354.966 61.7508 355.602 62.3867 356.386 62.3867C357.171 62.3867 357.807 61.7508 357.807 60.9666C357.807 60.1823 357.171 59.5464 356.386 59.5464C355.602 59.5464 354.966 60.1823 354.966 60.9666Z" fill="#7450C8"/>
<path fill-rule="evenodd" clip-rule="evenodd" d="M346.445 65.226C346.445 66.0114 345.81 66.647 345.026 66.647C344.242 66.647 343.605 66.0114 343.605 65.226C343.605 64.4422 344.242 63.8066 345.026 63.8066C345.81 63.8066 346.445 64.4422 346.445 65.226Z" fill="#DFE4EE"/>
<path d="M349.286 68.0674C351.005 69.0558 353.247 69.0558 354.966 68.0674" stroke="#7450C8" stroke-linecap="round" stroke-linejoin="round"/>
<path fill-rule="evenodd" clip-rule="evenodd" d="M363.487 56.9564C363.487 49.7596 357.764 43.9243 350.706 43.9243C343.646 43.9243 337.924 49.7596 337.924 56.9564V60.9663C341.418 60.0057 343.502 57.8194 344.807 54.9515C350.314 58.733 357.588 57.9589 363.487 56.9564Z" fill="white"/>
<path fill-rule="evenodd" clip-rule="evenodd" d="M363.487 56.9564C363.487 49.7596 357.764 43.9243 350.706 43.9243C343.646 43.9243 337.924 49.7596 337.924 56.9564V60.9663C341.418 60.0057 343.502 57.8194 344.807 54.9515C350.314 58.733 357.588 57.9589 363.487 56.9564Z" stroke="#7450C8" stroke-linecap="round" stroke-linejoin="round"/>
<path d="M343.605 52.4453C343.605 52.4453 344.155 53.3641 345.025 53.8655" stroke="#7450C8" stroke-linecap="round" stroke-linejoin="round"/>
<path fill-rule="evenodd" clip-rule="evenodd" d="M330.824 120.141C330.824 121.97 332.413 123.454 334.373 123.454C336.335 123.454 337.924 121.97 337.924 120.141V100.731H330.824V120.141Z" fill="white"/>
<path fill-rule="evenodd" clip-rule="evenodd" d="M330.824 120.141C330.824 121.97 332.413 123.454 334.373 123.454C336.335 123.454 337.924 121.97 337.924 120.141V100.731H330.824V120.141Z" stroke="#7450C8" stroke-linecap="round" stroke-linejoin="round"/>
<path d="M337.924 100.731V95.0503" stroke="#7450C8" stroke-linecap="round" stroke-linejoin="round"/>
<path d="M363.487 100.731V95.0503" stroke="#7450C8" stroke-linecap="round" stroke-linejoin="round"/>
<path fill-rule="evenodd" clip-rule="evenodd" d="M345.025 79.8486L350.092 86.5296L354.966 80.332C353.106 79.748 351.123 79.4287 349.066 79.4287C347.68 79.4287 346.329 79.5769 345.025 79.8486Z" fill="white"/>
<path fill-rule="evenodd" clip-rule="evenodd" d="M345.025 79.8486L350.092 86.5296L354.966 80.332C353.106 79.748 351.123 79.4287 349.066 79.4287C347.68 79.4287 346.329 79.5769 345.025 79.8486Z" stroke="#7450C8" stroke-linecap="round" stroke-linejoin="round"/>
<path fill-rule="evenodd" clip-rule="evenodd" d="M350.706 85.8591L354.425 86.5053C355.571 86.703 356.561 85.6633 356.361 84.4716L355.51 79.4287L350.706 85.8591Z" fill="#DFE4EE"/>
<path fill-rule="evenodd" clip-rule="evenodd" d="M350.706 85.8591L354.425 86.5053C355.571 86.703 356.561 85.6633 356.361 84.4716L355.51 79.4287L350.706 85.8591Z" stroke="#7450C8" stroke-linecap="round" stroke-linejoin="round"/>
<path fill-rule="evenodd" clip-rule="evenodd" d="M345.785 79.4287L345.042 84.6683C344.886 85.7606 345.853 86.6891 346.958 86.5065L350.706 85.8921L345.785 79.4287Z" fill="#DFE4EE"/>
<path fill-rule="evenodd" clip-rule="evenodd" d="M345.785 79.4287L345.042 84.6683C344.886 85.7606 345.853 86.6891 346.958 86.5065L350.706 85.8921L345.785 79.4287Z" stroke="#7450C8" stroke-linecap="round" stroke-linejoin="round"/>
<path d="M350.706 85.1094V114.933" stroke="#7450C8" stroke-linecap="round" stroke-linejoin="round"/>
<path fill-rule="evenodd" clip-rule="evenodd" d="M377.391 92.21H358.105C357.156 92.21 356.387 92.9476 356.387 93.8565V104.765C356.387 105.674 357.156 106.412 358.105 106.412H377.391C378.34 106.412 379.109 105.674 379.109 104.765V93.8565C379.109 92.9476 378.34 92.21 377.391 92.21Z" fill="white"/>
<path fill-rule="evenodd" clip-rule="evenodd" d="M377.391 92.21H358.105C357.156 92.21 356.387 92.9476 356.387 93.8565V104.765C356.387 105.674 357.156 106.412 358.105 106.412H377.391C378.34 106.412 379.109 105.674 379.109 104.765V93.8565C379.109 92.9476 378.34 92.21 377.391 92.21Z" stroke="#7450C8" stroke-linecap="round" stroke-linejoin="round"/>
<path fill-rule="evenodd" clip-rule="evenodd" d="M369.168 101.441C369.168 102.618 368.214 103.572 367.038 103.572C365.862 103.572 364.908 102.618 364.908 101.441C364.908 100.265 365.862 99.311 367.038 99.311C368.214 99.311 369.168 100.265 369.168 101.441Z" fill="#DFE4EE"/>
<path fill-rule="evenodd" clip-rule="evenodd" d="M369.168 101.441C369.168 102.618 368.214 103.572 367.038 103.572C365.862 103.572 364.908 102.618 364.908 101.441C364.908 100.265 365.862 99.311 367.038 99.311C368.214 99.311 369.168 100.265 369.168 101.441Z" stroke="#7450C8" stroke-linecap="round" stroke-linejoin="round"/>
<path d="M367.748 97.2873L368.564 96.4707" stroke="#7450C8" stroke-linecap="round" stroke-linejoin="round"/>
<path fill-rule="evenodd" clip-rule="evenodd" d="M368.734 110.672H365.342C364.317 110.672 363.487 109.875 363.487 108.892V107.616C363.487 106.951 364.048 106.412 364.741 106.412H369.335C370.026 106.412 370.588 106.951 370.588 107.616V108.892C370.588 109.875 369.759 110.672 368.734 110.672Z" fill="white"/>
<path fill-rule="evenodd" clip-rule="evenodd" d="M368.734 110.672H365.342C364.317 110.672 363.487 109.875 363.487 108.892V107.616C363.487 106.951 364.048 106.412 364.741 106.412H369.335C370.026 106.412 370.588 106.951 370.588 107.616V108.892C370.588 109.875 369.759 110.672 368.734 110.672Z" stroke="#7450C8" stroke-linecap="round" stroke-linejoin="round"/>
<path fill-rule="evenodd" clip-rule="evenodd" d="M362.504 144.639C362.839 144.639 363.168 144.668 363.487 144.721V114.933H337.924V144.639H345.79C346.197 144.639 346.595 144.679 346.978 144.756L347.647 126.43C347.708 124.827 349.059 123.557 350.706 123.557C352.353 123.557 353.703 124.827 353.765 126.43L354.639 144.639H362.504Z" fill="#DFE4EE"/>
<path fill-rule="evenodd" clip-rule="evenodd" d="M362.504 144.639C362.839 144.639 363.168 144.668 363.487 144.721V114.933H337.924V144.639H345.79C346.197 144.639 346.595 144.679 346.978 144.756L347.647 126.43C347.708 124.827 349.059 123.557 350.706 123.557C352.353 123.557 353.703 124.827 353.765 126.43L354.639 144.639H362.504Z" stroke="#7450C8" stroke-linecap="round" stroke-linejoin="round"/>
<path fill-rule="evenodd" clip-rule="evenodd" d="M369.168 150.437C369.168 147.3 366.442 144.756 363.082 144.756H354.966V148.543C354.966 149.589 355.875 150.437 356.995 150.437H369.168Z" fill="white"/>
<path fill-rule="evenodd" clip-rule="evenodd" d="M369.168 150.437C369.168 147.3 366.442 144.756 363.082 144.756H354.966V148.543C354.966 149.589 355.875 150.437 356.995 150.437H369.168Z" stroke="#7450C8" stroke-linecap="round" stroke-linejoin="round"/>
<path fill-rule="evenodd" clip-rule="evenodd" d="M352.126 150.437C352.126 147.3 349.402 144.756 346.04 144.756H337.924V148.543C337.924 149.589 338.833 150.437 339.953 150.437H352.126Z" fill="white"/>
<path fill-rule="evenodd" clip-rule="evenodd" d="M352.126 150.437C352.126 147.3 349.402 144.756 346.04 144.756H337.924V148.543C337.924 149.589 338.833 150.437 339.953 150.437H352.126Z" stroke="#7450C8" stroke-linecap="round" stroke-linejoin="round"/>
</g>
<path d="M33.3814 16H31.2054L29.7494 12.208C29.6214 11.856 29.4241 11.6107 29.1574 11.472C28.8908 11.3333 28.5441 11.264 28.1174 11.264H26.0534V16H24.0054V4.608H28.8854C30.1761 4.608 31.1574 4.89067 31.8294 5.456C32.5014 6.02133 32.8374 6.832 32.8374 7.888C32.8374 8.64533 32.6348 9.29067 32.2294 9.824C31.8348 10.3467 31.2694 10.72 30.5334 10.944C31.2054 11.0827 31.6908 11.552 31.9894 12.352L33.3814 16ZM28.5974 9.664C29.3761 9.664 29.9521 9.52 30.3254 9.232C30.6988 8.944 30.8854 8.50667 30.8854 7.92C30.8854 7.344 30.6988 6.91733 30.3254 6.64C29.9628 6.352 29.3868 6.208 28.5974 6.208H26.0214V9.664H28.5974ZM42.1678 12.064H36.5998C36.6425 12.928 36.8558 13.568 37.2398 13.984C37.6345 14.3893 38.2158 14.592 38.9838 14.592C39.8691 14.592 40.6905 14.304 41.4478 13.728L42.0238 15.104C41.6398 15.4133 41.1651 15.664 40.5998 15.856C40.0451 16.0373 39.4798 16.128 38.9038 16.128C37.5811 16.128 36.5411 15.7547 35.7838 15.008C35.0265 14.2613 34.6478 13.2373 34.6478 11.936C34.6478 11.1147 34.8131 10.384 35.1438 9.744C35.4745 9.104 35.9385 8.608 36.5358 8.256C37.1331 7.89333 37.8105 7.712 38.5678 7.712C39.6771 7.712 40.5518 8.07467 41.1918 8.8C41.8425 9.51467 42.1678 10.5013 42.1678 11.76V12.064ZM38.6158 9.152C38.0825 9.152 37.6451 9.312 37.3038 9.632C36.9731 9.94133 36.7598 10.3947 36.6638 10.992H40.4238C40.3598 10.384 40.1731 9.92533 39.8638 9.616C39.5651 9.30667 39.1491 9.152 38.6158 9.152ZM47.5254 16.128C46.6828 16.128 45.9521 15.9573 45.3334 15.616C44.7148 15.2747 44.2401 14.7947 43.9094 14.176C43.5788 13.5467 43.4134 12.8107 43.4134 11.968C43.4134 11.1253 43.5841 10.384 43.9254 9.744C44.2774 9.104 44.7681 8.608 45.3974 8.256C46.0374 7.89333 46.7734 7.712 47.6054 7.712C48.1814 7.712 48.7361 7.80267 49.2694 7.984C49.8134 8.16533 50.2454 8.416 50.5654 8.736L50.0054 10.144C49.6641 9.86667 49.3014 9.65867 48.9174 9.52C48.5334 9.37067 48.1548 9.296 47.7814 9.296C47.0561 9.296 46.4908 9.52533 46.0854 9.984C45.6801 10.432 45.4774 11.0827 45.4774 11.936C45.4774 12.7893 45.6748 13.44 46.0694 13.888C46.4748 14.336 47.0454 14.56 47.7814 14.56C48.1548 14.56 48.5334 14.4853 48.9174 14.336C49.3014 14.1867 49.6641 13.9733 50.0054 13.696L50.5654 15.104C50.2241 15.424 49.7814 15.6747 49.2374 15.856C48.6934 16.0373 48.1228 16.128 47.5254 16.128ZM58.9803 12.064H53.4123C53.455 12.928 53.6683 13.568 54.0523 13.984C54.447 14.3893 55.0283 14.592 55.7963 14.592C56.6816 14.592 57.503 14.304 58.2603 13.728L58.8363 15.104C58.4523 15.4133 57.9776 15.664 57.4123 15.856C56.8576 16.0373 56.2923 16.128 55.7163 16.128C54.3936 16.128 53.3536 15.7547 52.5963 15.008C51.839 14.2613 51.4603 13.2373 51.4603 11.936C51.4603 11.1147 51.6256 10.384 51.9563 9.744C52.287 9.104 52.751 8.608 53.3483 8.256C53.9456 7.89333 54.623 7.712 55.3803 7.712C56.4896 7.712 57.3643 8.07467 58.0043 8.8C58.655 9.51467 58.9803 10.5013 58.9803 11.76V12.064ZM55.4283 9.152C54.895 9.152 54.4576 9.312 54.1163 9.632C53.7856 9.94133 53.5723 10.3947 53.4763 10.992H57.2363C57.1723 10.384 56.9856 9.92533 56.6763 9.616C56.3776 9.30667 55.9616 9.152 55.4283 9.152ZM60.6739 7.92H62.6579V16H60.6739V7.92ZM62.7699 4.256V6.224H60.5459V4.256H62.7699ZM72.4938 7.936L68.9578 16H67.2138L63.7258 7.936H65.8218L68.1418 13.728L70.5098 7.936H72.4938ZM73.5333 7.92H75.5173V16H73.5333V7.92ZM75.6293 4.256V6.224H73.4053V4.256H75.6293ZM82.3292 7.712C84.2599 7.712 85.2252 8.82133 85.2252 11.04V16H83.2252V11.136C83.2252 10.496 83.1025 10.032 82.8572 9.744C82.6119 9.44533 82.2332 9.296 81.7212 9.296C81.1132 9.296 80.6225 9.49333 80.2492 9.888C79.8759 10.272 79.6892 10.784 79.6892 11.424V16H77.7052V10.208C77.7052 9.35467 77.6625 8.592 77.5772 7.92H79.4492L79.5932 9.248C79.8705 8.75733 80.2439 8.37867 80.7132 8.112C81.1932 7.84533 81.7319 7.712 82.3292 7.712ZM95.1538 7.92V15.744C95.1538 17.0027 94.8071 17.9573 94.1138 18.608C93.4205 19.2587 92.4018 19.584 91.0578 19.584C89.8098 19.584 88.7111 19.3227 87.7618 18.8L88.0818 17.28C89.0631 17.792 90.0391 18.048 91.0098 18.048C92.4498 18.048 93.1698 17.3333 93.1698 15.904V14.304C92.9245 14.7413 92.5671 15.0987 92.0978 15.376C91.6285 15.6427 91.1005 15.776 90.5138 15.776C89.8098 15.776 89.1805 15.6107 88.6258 15.28C88.0818 14.9387 87.6551 14.464 87.3458 13.856C87.0471 13.2373 86.8978 12.5333 86.8978 11.744C86.8978 10.9547 87.0471 10.256 87.3458 9.648C87.6551 9.02933 88.0818 8.55467 88.6258 8.224C89.1805 7.88267 89.8098 7.712 90.5138 7.712C91.1111 7.712 91.6391 7.84 92.0978 8.096C92.5671 8.34133 92.9245 8.688 93.1698 9.136V7.92H95.1538ZM91.0418 14.208C91.7031 14.208 92.2205 13.9893 92.5938 13.552C92.9778 13.1147 93.1698 12.512 93.1698 11.744C93.1698 10.976 92.9831 10.3733 92.6098 9.936C92.2365 9.49867 91.7138 9.28 91.0418 9.28C90.3805 9.28 89.8578 9.49867 89.4738 9.936C89.1005 10.3733 88.9138 10.976 88.9138 11.744C88.9138 12.512 89.1005 13.1147 89.4738 13.552C89.8578 13.9893 90.3805 14.208 91.0418 14.208ZM8.99569 34.32V36H1.97169V34.32H4.46769V26.976L2.14769 28.368V26.528L5.31569 24.608H6.51569V34.32H8.99569ZM15.3961 24.608H19.5881C21.4547 24.608 22.9001 25.104 23.9241 26.096C24.9587 27.088 25.4761 28.4853 25.4761 30.288C25.4761 32.1013 24.9587 33.5093 23.9241 34.512C22.9001 35.504 21.4547 36 19.5881 36H15.3961V24.608ZM19.4601 34.32C22.0841 34.32 23.3961 32.976 23.3961 30.288C23.3961 27.6213 22.0841 26.288 19.4601 26.288H17.4601V34.32H19.4601ZM35.1676 27.92V36H33.1996V34.704C32.9542 35.152 32.6022 35.504 32.1436 35.76C31.6849 36.0053 31.1622 36.128 30.5756 36.128C29.8716 36.128 29.2476 35.9573 28.7036 35.616C28.1596 35.2747 27.7382 34.7893 27.4396 34.16C27.1409 33.5307 26.9916 32.8 26.9916 31.968C26.9916 31.136 27.1409 30.4 27.4396 29.76C27.7489 29.1093 28.1756 28.608 28.7196 28.256C29.2636 27.8933 29.8822 27.712 30.5756 27.712C31.1622 27.712 31.6849 27.84 32.1436 28.096C32.6022 28.3413 32.9542 28.688 33.1996 29.136V27.92H35.1676ZM31.1196 34.56C31.7809 34.56 32.2929 34.3307 32.6556 33.872C33.0182 33.4133 33.1996 32.768 33.1996 31.936C33.1996 31.0827 33.0182 30.4267 32.6556 29.968C32.2929 29.5093 31.7756 29.28 31.1036 29.28C30.4422 29.28 29.9249 29.52 29.5516 30C29.1889 30.4693 29.0076 31.1253 29.0076 31.968C29.0076 32.8 29.1889 33.44 29.5516 33.888C29.9249 34.336 30.4476 34.56 31.1196 34.56ZM39.8898 29.424V33.04C39.8898 33.9893 40.3325 34.464 41.2178 34.464C41.4631 34.464 41.7298 34.4213 42.0178 34.336V35.92C41.6658 36.048 41.2391 36.112 40.7378 36.112C39.8205 36.112 39.1165 35.856 38.6258 35.344C38.1351 34.832 37.8898 34.096 37.8898 33.136V29.424H36.3378V27.92H37.8898V25.952L39.8898 25.28V27.92H42.0338V29.424H39.8898ZM51.1363 27.92V36H49.1683V34.704C48.923 35.152 48.571 35.504 48.1123 35.76C47.6536 36.0053 47.131 36.128 46.5443 36.128C45.8403 36.128 45.2163 35.9573 44.6723 35.616C44.1283 35.2747 43.707 34.7893 43.4083 34.16C43.1096 33.5307 42.9603 32.8 42.9603 31.968C42.9603 31.136 43.1096 30.4 43.4083 29.76C43.7176 29.1093 44.1443 28.608 44.6883 28.256C45.2323 27.8933 45.851 27.712 46.5443 27.712C47.131 27.712 47.6536 27.84 48.1123 28.096C48.571 28.3413 48.923 28.688 49.1683 29.136V27.92H51.1363ZM47.0883 34.56C47.7496 34.56 48.2616 34.3307 48.6243 33.872C48.987 33.4133 49.1683 32.768 49.1683 31.936C49.1683 31.0827 48.987 30.4267 48.6243 29.968C48.2616 29.5093 47.7443 29.28 47.0723 29.28C46.411 29.28 45.8936 29.52 45.5203 30C45.1576 30.4693 44.9763 31.1253 44.9763 31.968C44.9763 32.8 45.1576 33.44 45.5203 33.888C45.8936 34.336 46.4163 34.56 47.0883 34.56ZM67.2252 36H65.0492L63.5932 32.208C63.4652 31.856 63.2679 31.6107 63.0012 31.472C62.7345 31.3333 62.3879 31.264 61.9612 31.264H59.8972V36H57.8492V24.608H62.7292C64.0199 24.608 65.0012 24.8907 65.6732 25.456C66.3452 26.0213 66.6812 26.832 66.6812 27.888C66.6812 28.6453 66.4785 29.2907 66.0732 29.824C65.6785 30.3467 65.1132 30.72 64.3772 30.944C65.0492 31.0827 65.5345 31.552 65.8332 32.352L67.2252 36ZM62.4412 29.664C63.2199 29.664 63.7959 29.52 64.1692 29.232C64.5425 28.944 64.7292 28.5067 64.7292 27.92C64.7292 27.344 64.5425 26.9173 64.1692 26.64C63.8065 26.352 63.2305 26.208 62.4412 26.208H59.8652V29.664H62.4412ZM76.0116 32.064H70.4436C70.4862 32.928 70.6996 33.568 71.0836 33.984C71.4782 34.3893 72.0596 34.592 72.8276 34.592C73.7129 34.592 74.5342 34.304 75.2916 33.728L75.8676 35.104C75.4836 35.4133 75.0089 35.664 74.4436 35.856C73.8889 36.0373 73.3236 36.128 72.7476 36.128C71.4249 36.128 70.3849 35.7547 69.6276 35.008C68.8702 34.2613 68.4916 33.2373 68.4916 31.936C68.4916 31.1147 68.6569 30.384 68.9876 29.744C69.3182 29.104 69.7822 28.608 70.3796 28.256C70.9769 27.8933 71.6542 27.712 72.4116 27.712C73.5209 27.712 74.3956 28.0747 75.0356 28.8C75.6862 29.5147 76.0116 30.5013 76.0116 31.76V32.064ZM72.4596 29.152C71.9262 29.152 71.4889 29.312 71.1476 29.632C70.8169 29.9413 70.6036 30.3947 70.5076 30.992H74.2676C74.2036 30.384 74.0169 29.9253 73.7076 29.616C73.4089 29.3067 72.9929 29.152 72.4596 29.152ZM85.5772 27.92C85.4812 28.56 85.4332 29.3227 85.4332 30.208V39.456H83.4332V34.768C83.1879 35.2053 82.8359 35.5413 82.3772 35.776C81.9292 36.0107 81.4172 36.128 80.8412 36.128C80.1372 36.128 79.5132 35.9573 78.9692 35.616C78.4252 35.2747 78.0039 34.7893 77.7052 34.16C77.4065 33.5307 77.2572 32.8 77.2572 31.968C77.2572 31.136 77.4065 30.4 77.7052 29.76C78.0145 29.1093 78.4412 28.608 78.9852 28.256C79.5292 27.8933 80.1479 27.712 80.8412 27.712C81.4599 27.712 82.0092 27.8507 82.4892 28.128C82.9692 28.4053 83.3212 28.7947 83.5452 29.296L83.6892 27.92H85.5772ZM81.3852 34.56C82.0465 34.56 82.5585 34.3307 82.9212 33.872C83.2839 33.4133 83.4652 32.768 83.4652 31.936C83.4652 31.0827 83.2839 30.4267 82.9212 29.968C82.5585 29.5093 82.0412 29.28 81.3692 29.28C80.7079 29.28 80.1905 29.52 79.8172 30C79.4545 30.4693 79.2732 31.1253 79.2732 31.968C79.2732 32.8 79.4545 33.44 79.8172 33.888C80.1905 34.336 80.7132 34.56 81.3852 34.56ZM94.9714 27.92V36H93.0194V34.752C92.7634 35.2 92.4221 35.5413 91.9954 35.776C91.5688 36.0107 91.0781 36.128 90.5234 36.128C88.5501 36.128 87.5634 35.0187 87.5634 32.8V27.92H89.5474V32.816C89.5474 33.4027 89.6648 33.8347 89.8994 34.112C90.1448 34.3893 90.5181 34.528 91.0194 34.528C91.6061 34.528 92.0754 34.336 92.4274 33.952C92.7794 33.568 92.9554 33.056 92.9554 32.416V27.92H94.9714ZM104.215 32.064H98.6467C98.6894 32.928 98.9027 33.568 99.2867 33.984C99.6814 34.3893 100.263 34.592 101.031 34.592C101.916 34.592 102.737 34.304 103.495 33.728L104.071 35.104C103.687 35.4133 103.212 35.664 102.647 35.856C102.092 36.0373 101.527 36.128 100.951 36.128C99.628 36.128 98.588 35.7547 97.8307 35.008C97.0734 34.2613 96.6947 33.2373 96.6947 31.936C96.6947 31.1147 96.86 30.384 97.1907 29.744C97.5214 29.104 97.9854 28.608 98.5827 28.256C99.18 27.8933 99.8574 27.712 100.615 27.712C101.724 27.712 102.599 28.0747 103.239 28.8C103.889 29.5147 104.215 30.5013 104.215 31.76V32.064ZM100.663 29.152C100.129 29.152 99.692 29.312 99.3507 29.632C99.02 29.9413 98.8067 30.3947 98.7107 30.992H102.471C102.407 30.384 102.22 29.9253 101.911 29.616C101.612 29.3067 101.196 29.152 100.663 29.152ZM108.868 36.128C107.407 36.128 106.244 35.7867 105.38 35.104L105.94 33.696C106.804 34.336 107.791 34.656 108.9 34.656C109.38 34.656 109.748 34.576 110.004 34.416C110.271 34.256 110.404 34.032 110.404 33.744C110.404 33.4987 110.314 33.3067 110.132 33.168C109.951 33.0187 109.642 32.8907 109.204 32.784L107.86 32.48C106.388 32.16 105.652 31.408 105.652 30.224C105.652 29.7333 105.791 29.3013 106.068 28.928C106.346 28.544 106.735 28.2453 107.236 28.032C107.738 27.8187 108.319 27.712 108.98 27.712C109.556 27.712 110.111 27.8027 110.644 27.984C111.178 28.1547 111.647 28.4053 112.052 28.736L111.46 30.096C110.65 29.4987 109.818 29.2 108.964 29.2C108.506 29.2 108.148 29.2853 107.892 29.456C107.636 29.6267 107.508 29.8613 107.508 30.16C107.508 30.3947 107.583 30.5813 107.732 30.72C107.892 30.8587 108.159 30.976 108.532 31.072L109.908 31.376C110.708 31.5573 111.29 31.84 111.652 32.224C112.026 32.5973 112.212 33.088 112.212 33.696C112.212 34.4427 111.914 35.0347 111.316 35.472C110.719 35.9093 109.903 36.128 108.868 36.128ZM116.39 29.424V33.04C116.39 33.9893 116.832 34.464 117.718 34.464C117.963 34.464 118.23 34.4213 118.518 34.336V35.92C118.166 36.048 117.739 36.112 117.238 36.112C116.32 36.112 115.616 35.856 115.126 35.344C114.635 34.832 114.39 34.096 114.39 33.136V29.424H112.838V27.92H114.39V25.952L116.39 25.28V27.92H118.534V29.424H116.39Z" fill="#7450C8"/>
<path d="M175.858 87H173.682L172.226 83.208C172.098 82.856 171.901 82.6107 171.634 82.472C171.367 82.3333 171.021 82.264 170.594 82.264H168.53V87H166.482V75.608H171.362C172.653 75.608 173.634 75.8907 174.306 76.456C174.978 77.0213 175.314 77.832 175.314 78.888C175.314 79.6453 175.111 80.2907 174.706 80.824C174.311 81.3467 173.746 81.72 173.01 81.944C173.682 82.0827 174.167 82.552 174.466 83.352L175.858 87ZM171.074 80.664C171.853 80.664 172.429 80.52 172.802 80.232C173.175 79.944 173.362 79.5067 173.362 78.92C173.362 78.344 173.175 77.9173 172.802 77.64C172.439 77.352 171.863 77.208 171.074 77.208H168.498V80.664H171.074ZM184.644 83.064H179.076C179.119 83.928 179.332 84.568 179.716 84.984C180.111 85.3893 180.692 85.592 181.46 85.592C182.346 85.592 183.167 85.304 183.924 84.728L184.5 86.104C184.116 86.4133 183.642 86.664 183.076 86.856C182.522 87.0373 181.956 87.128 181.38 87.128C180.058 87.128 179.018 86.7547 178.26 86.008C177.503 85.2613 177.124 84.2373 177.124 82.936C177.124 82.1147 177.29 81.384 177.62 80.744C177.951 80.104 178.415 79.608 179.012 79.256C179.61 78.8933 180.287 78.712 181.044 78.712C182.154 78.712 183.028 79.0747 183.668 79.8C184.319 80.5147 184.644 81.5013 184.644 82.76V83.064ZM181.092 80.152C180.559 80.152 180.122 80.312 179.78 80.632C179.45 80.9413 179.236 81.3947 179.14 81.992H182.9C182.836 81.384 182.65 80.9253 182.34 80.616C182.042 80.3067 181.626 80.152 181.092 80.152ZM194.21 78.92C194.114 79.56 194.066 80.3227 194.066 81.208V90.456H192.066V85.768C191.821 86.2053 191.469 86.5413 191.01 86.776C190.562 87.0107 190.05 87.128 189.474 87.128C188.77 87.128 188.146 86.9573 187.602 86.616C187.058 86.2747 186.637 85.7893 186.338 85.16C186.039 84.5307 185.89 83.8 185.89 82.968C185.89 82.136 186.039 81.4 186.338 80.76C186.647 80.1093 187.074 79.608 187.618 79.256C188.162 78.8933 188.781 78.712 189.474 78.712C190.093 78.712 190.642 78.8507 191.122 79.128C191.602 79.4053 191.954 79.7947 192.178 80.296L192.322 78.92H194.21ZM190.018 85.56C190.679 85.56 191.191 85.3307 191.554 84.872C191.917 84.4133 192.098 83.768 192.098 82.936C192.098 82.0827 191.917 81.4267 191.554 80.968C191.191 80.5093 190.674 80.28 190.002 80.28C189.341 80.28 188.823 80.52 188.45 81C188.087 81.4693 187.906 82.1253 187.906 82.968C187.906 83.8 188.087 84.44 188.45 84.888C188.823 85.336 189.346 85.56 190.018 85.56ZM203.604 78.92V87H201.652V85.752C201.396 86.2 201.055 86.5413 200.628 86.776C200.202 87.0107 199.711 87.128 199.156 87.128C197.183 87.128 196.196 86.0187 196.196 83.8V78.92H198.18V83.816C198.18 84.4027 198.298 84.8347 198.532 85.112C198.778 85.3893 199.151 85.528 199.652 85.528C200.239 85.528 200.708 85.336 201.06 84.952C201.412 84.568 201.588 84.056 201.588 83.416V78.92H203.604ZM205.776 78.92H207.76V87H205.776V78.92ZM207.872 75.256V77.224H205.648V75.256H207.872ZM214.299 78.728C214.609 78.728 214.875 78.7707 215.099 78.856L215.083 80.68C214.742 80.5413 214.39 80.472 214.027 80.472C213.345 80.472 212.822 80.6693 212.459 81.064C212.107 81.4587 211.931 81.9813 211.931 82.632V87H209.947V81.208C209.947 80.3547 209.905 79.592 209.819 78.92H211.691L211.851 80.344C212.054 79.8213 212.374 79.4213 212.811 79.144C213.249 78.8667 213.745 78.728 214.299 78.728ZM223.129 83.064H217.561C217.603 83.928 217.817 84.568 218.201 84.984C218.595 85.3893 219.177 85.592 219.945 85.592C220.83 85.592 221.651 85.304 222.409 84.728L222.985 86.104C222.601 86.4133 222.126 86.664 221.561 86.856C221.006 87.0373 220.441 87.128 219.865 87.128C218.542 87.128 217.502 86.7547 216.745 86.008C215.987 85.2613 215.609 84.2373 215.609 82.936C215.609 82.1147 215.774 81.384 216.105 80.744C216.435 80.104 216.899 79.608 217.497 79.256C218.094 78.8933 218.771 78.712 219.529 78.712C220.638 78.712 221.513 79.0747 222.153 79.8C222.803 80.5147 223.129 81.5013 223.129 82.76V83.064ZM219.577 80.152C219.043 80.152 218.606 80.312 218.265 80.632C217.934 80.9413 217.721 81.3947 217.625 81.992H221.385C221.321 81.384 221.134 80.9253 220.825 80.616C220.526 80.3067 220.11 80.152 219.577 80.152ZM227.782 87.128C226.321 87.128 225.158 86.7867 224.294 86.104L224.854 84.696C225.718 85.336 226.705 85.656 227.814 85.656C228.294 85.656 228.662 85.576 228.918 85.416C229.185 85.256 229.318 85.032 229.318 84.744C229.318 84.4987 229.228 84.3067 229.046 84.168C228.865 84.0187 228.556 83.8907 228.118 83.784L226.774 83.48C225.302 83.16 224.566 82.408 224.566 81.224C224.566 80.7333 224.705 80.3013 224.982 79.928C225.26 79.544 225.649 79.2453 226.15 79.032C226.652 78.8187 227.233 78.712 227.894 78.712C228.47 78.712 229.025 78.8027 229.558 78.984C230.092 79.1547 230.561 79.4053 230.966 79.736L230.374 81.096C229.564 80.4987 228.732 80.2 227.878 80.2C227.42 80.2 227.062 80.2853 226.806 80.456C226.55 80.6267 226.422 80.8613 226.422 81.16C226.422 81.3947 226.497 81.5813 226.646 81.72C226.806 81.8587 227.073 81.976 227.446 82.072L228.822 82.376C229.622 82.5573 230.204 82.84 230.566 83.224C230.94 83.5973 231.126 84.088 231.126 84.696C231.126 85.4427 230.828 86.0347 230.23 86.472C229.633 86.9093 228.817 87.128 227.782 87.128Z" fill="#7450C8"/>
<path fill-rule="evenodd" clip-rule="evenodd" d="M555.362 91.0981V95.9902H534.408V91.833L544.297 81.293C545.655 79.8092 546.659 78.5145 547.31 77.4087C547.961 76.3029 548.287 75.2531 548.287 74.2593C548.287 72.9015 547.944 71.8342 547.258 71.0574C546.572 70.2805 545.592 69.8921 544.318 69.8921C542.947 69.8921 541.865 70.3645 541.074 71.3093C540.284 72.2542 539.888 73.4964 539.888 75.0361H533.799C533.799 73.1745 534.244 71.4738 535.133 69.9341C536.021 68.3944 537.278 67.1871 538.901 66.3123C540.525 65.4374 542.366 65 544.423 65C547.573 65 550.019 65.7559 551.761 67.2676C553.504 68.7793 554.375 70.9139 554.375 73.6714C554.375 75.1831 553.984 76.7228 553.2 78.2905C552.416 79.8582 551.072 81.6849 549.168 83.7705L542.219 91.0981H555.362ZM575.057 95.1189C573.503 95.9797 571.669 96.4102 569.556 96.4102C567.708 96.4102 565.993 96.0357 564.412 95.2869C562.83 94.538 561.581 93.4847 560.664 92.127C559.747 90.7692 559.261 89.2225 559.205 87.4868H565.209C565.335 88.7606 565.78 89.7509 566.543 90.4578C567.306 91.1646 568.303 91.5181 569.535 91.5181C570.906 91.5181 571.963 91.0247 572.705 90.0378C573.447 89.051 573.818 87.6548 573.818 85.8491C573.818 84.1134 573.391 82.7837 572.537 81.8599C571.683 80.936 570.472 80.4741 568.905 80.4741C567.463 80.4741 566.294 80.8521 565.398 81.6079L564.811 82.1538L559.981 80.957L561.745 65.4199H578.878V70.48H566.721L565.965 77.0518C567.407 76.2819 568.94 75.897 570.563 75.897C573.475 75.897 575.757 76.7998 577.408 78.6055C579.06 80.4111 579.886 82.9377 579.886 86.1851C579.886 88.1587 579.469 89.9259 578.636 91.4866C577.804 93.0473 576.61 94.2581 575.057 95.1189Z" fill="#7450C8"/>
<path d="M499.709 111.598H503.901C505.767 111.598 507.213 112.094 508.237 113.086C509.271 114.078 509.789 115.476 509.789 117.278C509.789 119.092 509.271 120.5 508.237 121.502C507.213 122.494 505.767 122.99 503.901 122.99H499.709V111.598ZM503.773 121.31C506.397 121.31 507.709 119.966 507.709 117.278C507.709 114.612 506.397 113.278 503.773 113.278H501.773V121.31H503.773ZM519.48 114.91V122.99H517.512V121.694C517.267 122.142 516.915 122.494 516.456 122.75C515.997 122.996 515.475 123.118 514.888 123.118C514.184 123.118 513.56 122.948 513.016 122.606C512.472 122.265 512.051 121.78 511.752 121.15C511.453 120.521 511.304 119.79 511.304 118.958C511.304 118.126 511.453 117.39 511.752 116.75C512.061 116.1 512.488 115.598 513.032 115.246C513.576 114.884 514.195 114.702 514.888 114.702C515.475 114.702 515.997 114.83 516.456 115.086C516.915 115.332 517.267 115.678 517.512 116.126V114.91H519.48ZM515.432 121.55C516.093 121.55 516.605 121.321 516.968 120.862C517.331 120.404 517.512 119.758 517.512 118.926C517.512 118.073 517.331 117.417 516.968 116.958C516.605 116.5 516.088 116.27 515.416 116.27C514.755 116.27 514.237 116.51 513.864 116.99C513.501 117.46 513.32 118.116 513.32 118.958C513.32 119.79 513.501 120.43 513.864 120.878C514.237 121.326 514.76 121.55 515.432 121.55ZM524.202 116.414V120.03C524.202 120.98 524.645 121.454 525.53 121.454C525.776 121.454 526.042 121.412 526.33 121.326V122.91C525.978 123.038 525.552 123.102 525.05 123.102C524.133 123.102 523.429 122.846 522.938 122.334C522.448 121.822 522.202 121.086 522.202 120.126V116.414H520.65V114.91H522.202V112.942L524.202 112.27V114.91H526.346V116.414H524.202ZM535.449 114.91V122.99H533.481V121.694C533.235 122.142 532.883 122.494 532.425 122.75C531.966 122.996 531.443 123.118 530.857 123.118C530.153 123.118 529.529 122.948 528.985 122.606C528.441 122.265 528.019 121.78 527.721 121.15C527.422 120.521 527.273 119.79 527.273 118.958C527.273 118.126 527.422 117.39 527.721 116.75C528.03 116.1 528.457 115.598 529.001 115.246C529.545 114.884 530.163 114.702 530.857 114.702C531.443 114.702 531.966 114.83 532.425 115.086C532.883 115.332 533.235 115.678 533.481 116.126V114.91H535.449ZM531.401 121.55C532.062 121.55 532.574 121.321 532.937 120.862C533.299 120.404 533.481 119.758 533.481 118.926C533.481 118.073 533.299 117.417 532.937 116.958C532.574 116.5 532.057 116.27 531.385 116.27C530.723 116.27 530.206 116.51 529.833 116.99C529.47 117.46 529.289 118.116 529.289 118.958C529.289 119.79 529.47 120.43 529.833 120.878C530.206 121.326 530.729 121.55 531.401 121.55ZM542.162 111.598H547.106C548.332 111.598 549.287 111.897 549.97 112.494C550.652 113.081 550.994 113.886 550.994 114.91C550.994 115.934 550.647 116.745 549.954 117.342C549.271 117.94 548.322 118.238 547.106 118.238H544.226V122.99H542.162V111.598ZM546.866 116.638C547.58 116.638 548.119 116.494 548.482 116.206C548.855 115.908 549.042 115.481 549.042 114.926C549.042 114.361 548.86 113.934 548.498 113.646C548.135 113.348 547.591 113.198 546.866 113.198H544.226V116.638H546.866ZM556.87 114.718C557.179 114.718 557.446 114.761 557.67 114.846L557.654 116.67C557.312 116.532 556.96 116.462 556.598 116.462C555.915 116.462 555.392 116.66 555.03 117.054C554.678 117.449 554.502 117.972 554.502 118.622V122.99H552.518V117.198C552.518 116.345 552.475 115.582 552.39 114.91H554.262L554.422 116.334C554.624 115.812 554.944 115.412 555.382 115.134C555.819 114.857 556.315 114.718 556.87 114.718ZM562.291 123.118C561.47 123.118 560.744 122.948 560.115 122.606C559.496 122.265 559.016 121.78 558.675 121.15C558.344 120.51 558.179 119.764 558.179 118.91C558.179 118.057 558.344 117.316 558.675 116.686C559.016 116.046 559.496 115.556 560.115 115.214C560.744 114.873 561.47 114.702 562.291 114.702C563.102 114.702 563.816 114.873 564.435 115.214C565.054 115.556 565.528 116.046 565.859 116.686C566.2 117.316 566.371 118.057 566.371 118.91C566.371 119.764 566.2 120.51 565.859 121.15C565.528 121.78 565.054 122.265 564.435 122.606C563.816 122.948 563.102 123.118 562.291 123.118ZM562.275 121.55C562.958 121.55 563.475 121.332 563.827 120.894C564.19 120.446 564.371 119.785 564.371 118.91C564.371 118.046 564.19 117.39 563.827 116.942C563.464 116.484 562.952 116.254 562.291 116.254C561.619 116.254 561.102 116.484 560.739 116.942C560.376 117.39 560.195 118.046 560.195 118.91C560.195 119.785 560.371 120.446 560.723 120.894C561.086 121.332 561.603 121.55 562.275 121.55ZM571.76 123.118C570.917 123.118 570.186 122.948 569.568 122.606C568.949 122.265 568.474 121.785 568.144 121.166C567.813 120.537 567.648 119.801 567.648 118.958C567.648 118.116 567.818 117.374 568.16 116.734C568.512 116.094 569.002 115.598 569.632 115.246C570.272 114.884 571.008 114.702 571.84 114.702C572.416 114.702 572.97 114.793 573.504 114.974C574.048 115.156 574.48 115.406 574.8 115.726L574.24 117.134C573.898 116.857 573.536 116.649 573.152 116.51C572.768 116.361 572.389 116.286 572.016 116.286C571.29 116.286 570.725 116.516 570.32 116.974C569.914 117.422 569.712 118.073 569.712 118.926C569.712 119.78 569.909 120.43 570.304 120.878C570.709 121.326 571.28 121.55 572.016 121.55C572.389 121.55 572.768 121.476 573.152 121.326C573.536 121.177 573.898 120.964 574.24 120.686L574.8 122.094C574.458 122.414 574.016 122.665 573.472 122.846C572.928 123.028 572.357 123.118 571.76 123.118ZM583.215 119.054H577.647C577.689 119.918 577.903 120.558 578.287 120.974C578.681 121.38 579.263 121.582 580.031 121.582C580.916 121.582 581.737 121.294 582.495 120.718L583.071 122.094C582.687 122.404 582.212 122.654 581.647 122.846C581.092 123.028 580.527 123.118 579.951 123.118C578.628 123.118 577.588 122.745 576.831 121.998C576.073 121.252 575.695 120.228 575.695 118.926C575.695 118.105 575.86 117.374 576.191 116.734C576.521 116.094 576.985 115.598 577.583 115.246C578.18 114.884 578.857 114.702 579.615 114.702C580.724 114.702 581.599 115.065 582.239 115.79C582.889 116.505 583.215 117.492 583.215 118.75V119.054ZM579.663 116.142C579.129 116.142 578.692 116.302 578.351 116.622C578.02 116.932 577.807 117.385 577.711 117.982H581.471C581.407 117.374 581.22 116.916 580.911 116.606C580.612 116.297 580.196 116.142 579.663 116.142ZM587.868 123.118C586.407 123.118 585.244 122.777 584.38 122.094L584.94 120.686C585.804 121.326 586.791 121.646 587.9 121.646C588.38 121.646 588.748 121.566 589.004 121.406C589.271 121.246 589.404 121.022 589.404 120.734C589.404 120.489 589.314 120.297 589.132 120.158C588.951 120.009 588.642 119.881 588.204 119.774L586.86 119.47C585.388 119.15 584.652 118.398 584.652 117.214C584.652 116.724 584.791 116.292 585.068 115.918C585.346 115.534 585.735 115.236 586.236 115.022C586.738 114.809 587.319 114.702 587.98 114.702C588.556 114.702 589.111 114.793 589.644 114.974C590.178 115.145 590.647 115.396 591.052 115.726L590.46 117.086C589.65 116.489 588.818 116.19 587.964 116.19C587.506 116.19 587.148 116.276 586.892 116.446C586.636 116.617 586.508 116.852 586.508 117.15C586.508 117.385 586.583 117.572 586.732 117.71C586.892 117.849 587.159 117.966 587.532 118.062L588.908 118.366C589.708 118.548 590.29 118.83 590.652 119.214C591.026 119.588 591.212 120.078 591.212 120.686C591.212 121.433 590.914 122.025 590.316 122.462C589.719 122.9 588.903 123.118 587.868 123.118ZM595.884 123.118C594.423 123.118 593.26 122.777 592.396 122.094L592.956 120.686C593.82 121.326 594.807 121.646 595.916 121.646C596.396 121.646 596.764 121.566 597.02 121.406C597.287 121.246 597.42 121.022 597.42 120.734C597.42 120.489 597.329 120.297 597.148 120.158C596.967 120.009 596.657 119.881 596.22 119.774L594.876 119.47C593.404 119.15 592.668 118.398 592.668 117.214C592.668 116.724 592.807 116.292 593.084 115.918C593.361 115.534 593.751 115.236 594.252 115.022C594.753 114.809 595.335 114.702 595.996 114.702C596.572 114.702 597.127 114.793 597.66 114.974C598.193 115.145 598.663 115.396 599.068 115.726L598.476 117.086C597.665 116.489 596.833 116.19 595.98 116.19C595.521 116.19 595.164 116.276 594.908 116.446C594.652 116.617 594.524 116.852 594.524 117.15C594.524 117.385 594.599 117.572 594.748 117.71C594.908 117.849 595.175 117.966 595.548 118.062L596.924 118.366C597.724 118.548 598.305 118.83 598.668 119.214C599.041 119.588 599.228 120.078 599.228 120.686C599.228 121.433 598.929 122.025 598.332 122.462C597.735 122.9 596.919 123.118 595.884 123.118ZM604.604 123.118C603.782 123.118 603.057 122.948 602.428 122.606C601.809 122.265 601.329 121.78 600.988 121.15C600.657 120.51 600.492 119.764 600.492 118.91C600.492 118.057 600.657 117.316 600.988 116.686C601.329 116.046 601.809 115.556 602.428 115.214C603.057 114.873 603.782 114.702 604.604 114.702C605.414 114.702 606.129 114.873 606.748 115.214C607.366 115.556 607.841 116.046 608.172 116.686C608.513 117.316 608.684 118.057 608.684 118.91C608.684 119.764 608.513 120.51 608.172 121.15C607.841 121.78 607.366 122.265 606.748 122.606C606.129 122.948 605.414 123.118 604.604 123.118ZM604.588 121.55C605.27 121.55 605.788 121.332 606.14 120.894C606.502 120.446 606.684 119.785 606.684 118.91C606.684 118.046 606.502 117.39 606.14 116.942C605.777 116.484 605.265 116.254 604.604 116.254C603.932 116.254 603.414 116.484 603.052 116.942C602.689 117.39 602.508 118.046 602.508 118.91C602.508 119.785 602.684 120.446 603.036 120.894C603.398 121.332 603.916 121.55 604.588 121.55ZM614.76 114.718C615.07 114.718 615.336 114.761 615.56 114.846L615.544 116.67C615.203 116.532 614.851 116.462 614.488 116.462C613.806 116.462 613.283 116.66 612.92 117.054C612.568 117.449 612.392 117.972 612.392 118.622V122.99H610.408V117.198C610.408 116.345 610.366 115.582 610.28 114.91H612.152L612.312 116.334C612.515 115.812 612.835 115.412 613.272 115.134C613.71 114.857 614.206 114.718 614.76 114.718ZM619.556 123.118C618.094 123.118 616.932 122.777 616.068 122.094L616.628 120.686C617.492 121.326 618.478 121.646 619.588 121.646C620.068 121.646 620.436 121.566 620.692 121.406C620.958 121.246 621.092 121.022 621.092 120.734C621.092 120.489 621.001 120.297 620.82 120.158C620.638 120.009 620.329 119.881 619.892 119.774L618.548 119.47C617.076 119.15 616.34 118.398 616.34 117.214C616.34 116.724 616.478 116.292 616.756 115.918C617.033 115.534 617.422 115.236 617.924 115.022C618.425 114.809 619.006 114.702 619.668 114.702C620.244 114.702 620.798 114.793 621.332 114.974C621.865 115.145 622.334 115.396 622.74 115.726L622.148 117.086C621.337 116.489 620.505 116.19 619.652 116.19C619.193 116.19 618.836 116.276 618.58 116.446C618.324 116.617 618.196 116.852 618.196 117.15C618.196 117.385 618.27 117.572 618.42 117.71C618.58 117.849 618.846 117.966 619.22 118.062L620.596 118.366C621.396 118.548 621.977 118.83 622.34 119.214C622.713 119.588 622.9 120.078 622.9 120.686C622.9 121.433 622.601 122.025 622.004 122.462C621.406 122.9 620.59 123.118 619.556 123.118Z" fill="#7450C8"/>
<path fill-rule="evenodd" clip-rule="evenodd" d="M971.362 90.0981V94.9902H950.408V90.833L960.297 80.293C961.655 78.8092 962.659 77.5145 963.31 76.4087C963.961 75.3029 964.287 74.2531 964.287 73.2593C964.287 71.9015 963.944 70.8342 963.258 70.0574C962.572 69.2805 961.592 68.8921 960.318 68.8921C958.947 68.8921 957.865 69.3645 957.074 70.3093C956.284 71.2542 955.888 72.4964 955.888 74.0361H949.799C949.799 72.1745 950.244 70.4738 951.133 68.9341C952.021 67.3944 953.278 66.1871 954.901 65.3123C956.525 64.4374 958.366 64 960.423 64C963.573 64 966.019 64.7559 967.761 66.2676C969.504 67.7793 970.375 69.9139 970.375 72.6714C970.375 74.1831 969.984 75.7228 969.2 77.2905C968.416 78.8582 967.072 80.6849 965.168 82.7705L958.219 90.0981H971.362ZM991.057 94.1189C989.503 94.9797 987.669 95.4102 985.556 95.4102C983.708 95.4102 981.993 95.0357 980.412 94.2869C978.83 93.538 977.581 92.4847 976.664 91.127C975.747 89.7692 975.261 88.2225 975.205 86.4868H981.209C981.335 87.7606 981.78 88.7509 982.543 89.4578C983.306 90.1646 984.303 90.5181 985.535 90.5181C986.906 90.5181 987.963 90.0247 988.705 89.0378C989.447 88.051 989.818 86.6548 989.818 84.8491C989.818 83.1134 989.391 81.7837 988.537 80.8599C987.683 79.936 986.472 79.4741 984.905 79.4741C983.463 79.4741 982.294 79.8521 981.398 80.6079L980.811 81.1538L975.981 79.957L977.745 64.4199H994.878V69.48H982.721L981.965 76.0518C983.407 75.2819 984.94 74.897 986.563 74.897C989.475 74.897 991.757 75.7998 993.408 77.6055C995.06 79.4111 995.886 81.9377 995.886 85.1851C995.886 87.1587 995.469 88.9259 994.636 90.4866C993.804 92.0473 992.61 93.2581 991.057 94.1189Z" fill="#7450C8"/>
<path d="M918.56 114.294H914.848V112.598H924.368V114.294H920.64V123.99H918.56V114.294ZM932.113 115.91V123.99H930.145V122.694C929.9 123.142 929.548 123.494 929.089 123.75C928.63 123.996 928.108 124.118 927.521 124.118C926.817 124.118 926.193 123.948 925.649 123.606C925.105 123.265 924.684 122.78 924.385 122.15C924.086 121.521 923.937 120.79 923.937 119.958C923.937 119.126 924.086 118.39 924.385 117.75C924.694 117.1 925.121 116.598 925.665 116.246C926.209 115.884 926.828 115.702 927.521 115.702C928.108 115.702 928.63 115.83 929.089 116.086C929.548 116.332 929.9 116.678 930.145 117.126V115.91H932.113ZM928.065 122.55C928.726 122.55 929.238 122.321 929.601 121.862C929.964 121.404 930.145 120.758 930.145 119.926C930.145 119.073 929.964 118.417 929.601 117.958C929.238 117.5 928.721 117.27 928.049 117.27C927.388 117.27 926.87 117.51 926.497 117.99C926.134 118.46 925.953 119.116 925.953 119.958C925.953 120.79 926.134 121.43 926.497 121.878C926.87 122.326 927.393 122.55 928.065 122.55ZM937.251 124.118C935.79 124.118 934.627 123.777 933.763 123.094L934.323 121.686C935.187 122.326 936.174 122.646 937.283 122.646C937.763 122.646 938.131 122.566 938.387 122.406C938.654 122.246 938.787 122.022 938.787 121.734C938.787 121.489 938.696 121.297 938.515 121.158C938.334 121.009 938.024 120.881 937.587 120.774L936.243 120.47C934.771 120.15 934.035 119.398 934.035 118.214C934.035 117.724 934.174 117.292 934.451 116.918C934.728 116.534 935.118 116.236 935.619 116.022C936.12 115.809 936.702 115.702 937.363 115.702C937.939 115.702 938.494 115.793 939.027 115.974C939.56 116.145 940.03 116.396 940.435 116.726L939.843 118.086C939.032 117.489 938.2 117.19 937.347 117.19C936.888 117.19 936.531 117.276 936.275 117.446C936.019 117.617 935.891 117.852 935.891 118.15C935.891 118.385 935.966 118.572 936.115 118.71C936.275 118.849 936.542 118.966 936.915 119.062L938.291 119.366C939.091 119.548 939.672 119.83 940.035 120.214C940.408 120.588 940.595 121.078 940.595 121.686C940.595 122.433 940.296 123.025 939.699 123.462C939.102 123.9 938.286 124.118 937.251 124.118ZM947.827 123.99L944.291 120.262V123.99H942.307V112.214H944.291V119.478L947.619 115.926H950.035L946.403 119.782L950.323 123.99H947.827ZM953.97 124.118C952.509 124.118 951.346 123.777 950.482 123.094L951.042 121.686C951.906 122.326 952.893 122.646 954.002 122.646C954.482 122.646 954.85 122.566 955.106 122.406C955.373 122.246 955.506 122.022 955.506 121.734C955.506 121.489 955.415 121.297 955.234 121.158C955.053 121.009 954.743 120.881 954.306 120.774L952.962 120.47C951.49 120.15 950.754 119.398 950.754 118.214C950.754 117.724 950.893 117.292 951.17 116.918C951.447 116.534 951.837 116.236 952.338 116.022C952.839 115.809 953.421 115.702 954.082 115.702C954.658 115.702 955.213 115.793 955.746 115.974C956.279 116.145 956.749 116.396 957.154 116.726L956.562 118.086C955.751 117.489 954.919 117.19 954.066 117.19C953.607 117.19 953.25 117.276 952.994 117.446C952.738 117.617 952.61 117.852 952.61 118.15C952.61 118.385 952.685 118.572 952.834 118.71C952.994 118.849 953.261 118.966 953.634 119.062L955.01 119.366C955.81 119.548 956.391 119.83 956.754 120.214C957.127 120.588 957.314 121.078 957.314 121.686C957.314 122.433 957.015 123.025 956.418 123.462C955.821 123.9 955.005 124.118 953.97 124.118ZM971.064 115.91L967.304 124.534C966.877 125.537 966.333 126.268 965.672 126.726C965.011 127.185 964.195 127.489 963.224 127.638L962.776 126.102C963.533 125.932 964.099 125.713 964.472 125.446C964.856 125.19 965.165 124.806 965.4 124.294L965.656 123.702L962.296 115.91H964.392L966.712 121.718L969.08 115.91H971.064ZM975.627 124.118C974.806 124.118 974.08 123.948 973.451 123.606C972.832 123.265 972.352 122.78 972.011 122.15C971.68 121.51 971.515 120.764 971.515 119.91C971.515 119.057 971.68 118.316 972.011 117.686C972.352 117.046 972.832 116.556 973.451 116.214C974.08 115.873 974.806 115.702 975.627 115.702C976.438 115.702 977.152 115.873 977.771 116.214C978.39 116.556 978.864 117.046 979.195 117.686C979.536 118.316 979.707 119.057 979.707 119.91C979.707 120.764 979.536 121.51 979.195 122.15C978.864 122.78 978.39 123.265 977.771 123.606C977.152 123.948 976.438 124.118 975.627 124.118ZM975.611 122.55C976.294 122.55 976.811 122.332 977.163 121.894C977.526 121.446 977.707 120.785 977.707 119.91C977.707 119.046 977.526 118.39 977.163 117.942C976.8 117.484 976.288 117.254 975.627 117.254C974.955 117.254 974.438 117.484 974.075 117.942C973.712 118.39 973.531 119.046 973.531 119.91C973.531 120.785 973.707 121.446 974.059 121.894C974.422 122.332 974.939 122.55 975.611 122.55ZM988.792 115.91V123.99H986.84V122.742C986.584 123.19 986.242 123.532 985.816 123.766C985.389 124.001 984.898 124.118 984.344 124.118C982.37 124.118 981.384 123.009 981.384 120.79V115.91H983.368V120.806C983.368 121.393 983.485 121.825 983.72 122.102C983.965 122.38 984.338 122.518 984.84 122.518C985.426 122.518 985.896 122.326 986.248 121.942C986.6 121.558 986.776 121.046 986.776 120.406V115.91H988.792ZM999.978 115.702C1001.91 115.702 1002.87 116.812 1002.87 119.03V123.99H1000.87V119.126C1000.87 118.486 1000.75 118.022 1000.51 117.734C1000.26 117.436 999.882 117.286 999.37 117.286C998.762 117.286 998.271 117.484 997.898 117.878C997.524 118.262 997.338 118.774 997.338 119.414V123.99H995.354V118.198C995.354 117.345 995.311 116.582 995.226 115.91H997.098L997.242 117.238C997.519 116.748 997.892 116.369 998.362 116.102C998.842 115.836 999.38 115.702 999.978 115.702ZM1012.07 120.054H1006.5C1006.54 120.918 1006.75 121.558 1007.14 121.974C1007.53 122.38 1008.11 122.582 1008.88 122.582C1009.77 122.582 1010.59 122.294 1011.35 121.718L1011.92 123.094C1011.54 123.404 1011.06 123.654 1010.5 123.846C1009.94 124.028 1009.38 124.118 1008.8 124.118C1007.48 124.118 1006.44 123.745 1005.68 122.998C1004.92 122.252 1004.55 121.228 1004.55 119.926C1004.55 119.105 1004.71 118.374 1005.04 117.734C1005.37 117.094 1005.84 116.598 1006.43 116.246C1007.03 115.884 1007.71 115.702 1008.47 115.702C1009.58 115.702 1010.45 116.065 1011.09 116.79C1011.74 117.505 1012.07 118.492 1012.07 119.75V120.054ZM1008.51 117.142C1007.98 117.142 1007.54 117.302 1007.2 117.622C1006.87 117.932 1006.66 118.385 1006.56 118.982H1010.32C1010.26 118.374 1010.07 117.916 1009.76 117.606C1009.46 117.297 1009.05 117.142 1008.51 117.142ZM1020.83 120.054H1015.26C1015.31 120.918 1015.52 121.558 1015.9 121.974C1016.3 122.38 1016.88 122.582 1017.65 122.582C1018.53 122.582 1019.35 122.294 1020.11 121.718L1020.69 123.094C1020.3 123.404 1019.83 123.654 1019.26 123.846C1018.71 124.028 1018.14 124.118 1017.57 124.118C1016.25 124.118 1015.21 123.745 1014.45 122.998C1013.69 122.252 1013.31 121.228 1013.31 119.926C1013.31 119.105 1013.48 118.374 1013.81 117.734C1014.14 117.094 1014.6 116.598 1015.2 116.246C1015.8 115.884 1016.47 115.702 1017.23 115.702C1018.34 115.702 1019.22 116.065 1019.86 116.79C1020.51 117.505 1020.83 118.492 1020.83 119.75V120.054ZM1017.28 117.142C1016.75 117.142 1016.31 117.302 1015.97 117.622C1015.64 117.932 1015.42 118.385 1015.33 118.982H1019.09C1019.02 118.374 1018.84 117.916 1018.53 117.606C1018.23 117.297 1017.81 117.142 1017.28 117.142ZM1030.25 112.214V123.99H1028.29V122.694C1028.04 123.142 1027.69 123.494 1027.23 123.75C1026.77 123.996 1026.25 124.118 1025.66 124.118C1024.97 124.118 1024.35 123.942 1023.81 123.59C1023.26 123.238 1022.83 122.742 1022.53 122.102C1022.23 121.452 1022.08 120.71 1022.08 119.878C1022.08 119.046 1022.23 118.316 1022.53 117.686C1022.82 117.057 1023.25 116.572 1023.79 116.23C1024.33 115.878 1024.96 115.702 1025.66 115.702C1026.24 115.702 1026.75 115.825 1027.2 116.07C1027.66 116.305 1028.01 116.641 1028.25 117.078V112.214H1030.25ZM1026.19 122.55C1026.85 122.55 1027.36 122.321 1027.73 121.862C1028.1 121.404 1028.29 120.753 1028.29 119.91C1028.29 119.068 1028.1 118.417 1027.74 117.958C1027.38 117.5 1026.87 117.27 1026.21 117.27C1025.53 117.27 1025.01 117.5 1024.64 117.958C1024.27 118.406 1024.09 119.046 1024.09 119.878C1024.09 120.721 1024.27 121.377 1024.64 121.846C1025.01 122.316 1025.53 122.55 1026.19 122.55ZM935.866 137.414V141.03C935.866 141.98 936.309 142.454 937.194 142.454C937.44 142.454 937.706 142.412 937.994 142.326V143.91C937.642 144.038 937.216 144.102 936.714 144.102C935.797 144.102 935.093 143.846 934.602 143.334C934.112 142.822 933.866 142.086 933.866 141.126V137.414H932.314V135.91H933.866V133.942L935.866 133.27V135.91H938.01V137.414H935.866ZM943.049 144.118C942.228 144.118 941.502 143.948 940.873 143.606C940.254 143.265 939.774 142.78 939.433 142.15C939.102 141.51 938.937 140.764 938.937 139.91C938.937 139.057 939.102 138.316 939.433 137.686C939.774 137.046 940.254 136.556 940.873 136.214C941.502 135.873 942.228 135.702 943.049 135.702C943.86 135.702 944.574 135.873 945.193 136.214C945.812 136.556 946.286 137.046 946.617 137.686C946.958 138.316 947.129 139.057 947.129 139.91C947.129 140.764 946.958 141.51 946.617 142.15C946.286 142.78 945.812 143.265 945.193 143.606C944.574 143.948 943.86 144.118 943.049 144.118ZM943.033 142.55C943.716 142.55 944.233 142.332 944.585 141.894C944.948 141.446 945.129 140.785 945.129 139.91C945.129 139.046 944.948 138.39 944.585 137.942C944.222 137.484 943.71 137.254 943.049 137.254C942.377 137.254 941.86 137.484 941.497 137.942C941.134 138.39 940.953 139.046 940.953 139.91C940.953 140.785 941.129 141.446 941.481 141.894C941.844 142.332 942.361 142.55 943.033 142.55ZM957.852 135.702C958.546 135.702 959.159 135.884 959.692 136.246C960.236 136.598 960.658 137.1 960.956 137.75C961.266 138.39 961.42 139.126 961.42 139.958C961.42 140.79 961.271 141.521 960.972 142.15C960.674 142.78 960.252 143.265 959.708 143.606C959.175 143.948 958.556 144.118 957.852 144.118C957.266 144.118 956.743 143.996 956.284 143.75C955.826 143.494 955.474 143.142 955.228 142.694V147.446H953.244V138.198C953.244 137.345 953.202 136.582 953.116 135.91H954.988L955.148 137.302C955.362 136.801 955.708 136.412 956.188 136.134C956.668 135.846 957.223 135.702 957.852 135.702ZM957.308 142.55C957.98 142.55 958.498 142.326 958.86 141.878C959.223 141.43 959.404 140.79 959.404 139.958C959.404 139.116 959.223 138.46 958.86 137.99C958.498 137.51 957.986 137.27 957.324 137.27C956.642 137.27 956.119 137.5 955.756 137.958C955.394 138.417 955.212 139.073 955.212 139.926C955.212 140.769 955.394 141.42 955.756 141.878C956.119 142.326 956.636 142.55 957.308 142.55ZM970.238 140.054H964.67C964.713 140.918 964.926 141.558 965.31 141.974C965.705 142.38 966.286 142.582 967.054 142.582C967.939 142.582 968.761 142.294 969.518 141.718L970.094 143.094C969.71 143.404 969.235 143.654 968.67 143.846C968.115 144.028 967.55 144.118 966.974 144.118C965.651 144.118 964.611 143.745 963.854 142.998C963.097 142.252 962.718 141.228 962.718 139.926C962.718 139.105 962.883 138.374 963.214 137.734C963.545 137.094 964.009 136.598 964.606 136.246C965.203 135.884 965.881 135.702 966.638 135.702C967.747 135.702 968.622 136.065 969.262 136.79C969.913 137.505 970.238 138.492 970.238 139.75V140.054ZM966.686 137.142C966.153 137.142 965.715 137.302 965.374 137.622C965.043 137.932 964.83 138.385 964.734 138.982H968.494C968.43 138.374 968.243 137.916 967.934 137.606C967.635 137.297 967.219 137.142 966.686 137.142ZM976.284 135.718C976.593 135.718 976.86 135.761 977.084 135.846L977.068 137.67C976.726 137.532 976.374 137.462 976.012 137.462C975.329 137.462 974.806 137.66 974.444 138.054C974.092 138.449 973.916 138.972 973.916 139.622V143.99H971.932V138.198C971.932 137.345 971.889 136.582 971.804 135.91H973.676L973.836 137.334C974.038 136.812 974.358 136.412 974.796 136.134C975.233 135.857 975.729 135.718 976.284 135.718ZM982.756 133.798C981.892 133.798 981.46 134.273 981.46 135.222V135.91H983.268V137.414H981.46V143.99H979.46V137.414H977.924V135.91H979.46V135.126C979.46 134.166 979.7 133.43 980.18 132.918C980.67 132.396 981.369 132.134 982.276 132.134C982.777 132.134 983.198 132.198 983.54 132.326V133.91C983.241 133.836 982.98 133.798 982.756 133.798ZM988.393 144.118C987.571 144.118 986.846 143.948 986.217 143.606C985.598 143.265 985.118 142.78 984.777 142.15C984.446 141.51 984.281 140.764 984.281 139.91C984.281 139.057 984.446 138.316 984.777 137.686C985.118 137.046 985.598 136.556 986.217 136.214C986.846 135.873 987.571 135.702 988.393 135.702C989.203 135.702 989.918 135.873 990.537 136.214C991.155 136.556 991.63 137.046 991.961 137.686C992.302 138.316 992.473 139.057 992.473 139.91C992.473 140.764 992.302 141.51 991.961 142.15C991.63 142.78 991.155 143.265 990.537 143.606C989.918 143.948 989.203 144.118 988.393 144.118ZM988.377 142.55C989.059 142.55 989.577 142.332 989.929 141.894C990.291 141.446 990.473 140.785 990.473 139.91C990.473 139.046 990.291 138.39 989.929 137.942C989.566 137.484 989.054 137.254 988.393 137.254C987.721 137.254 987.203 137.484 986.841 137.942C986.478 138.39 986.297 139.046 986.297 139.91C986.297 140.785 986.473 141.446 986.825 141.894C987.187 142.332 987.705 142.55 988.377 142.55ZM998.549 135.718C998.859 135.718 999.125 135.761 999.349 135.846L999.333 137.67C998.992 137.532 998.64 137.462 998.277 137.462C997.595 137.462 997.072 137.66 996.709 138.054C996.357 138.449 996.181 138.972 996.181 139.622V143.99H994.197V138.198C994.197 137.345 994.155 136.582 994.069 135.91H995.941L996.101 137.334C996.304 136.812 996.624 136.412 997.061 136.134C997.499 135.857 997.995 135.718 998.549 135.718ZM1010 135.702C1010.92 135.702 1011.6 135.98 1012.05 136.534C1012.5 137.078 1012.72 137.91 1012.72 139.03V143.99H1010.72V139.094C1010.72 138.454 1010.61 137.996 1010.4 137.718C1010.2 137.43 1009.86 137.286 1009.38 137.286C1008.82 137.286 1008.38 137.484 1008.06 137.878C1007.75 138.262 1007.6 138.796 1007.6 139.478V143.99H1005.6V139.094C1005.6 138.465 1005.49 138.006 1005.26 137.718C1005.05 137.43 1004.71 137.286 1004.24 137.286C1003.68 137.286 1003.25 137.484 1002.93 137.878C1002.61 138.262 1002.45 138.796 1002.45 139.478V143.99H1000.46V138.198C1000.46 137.345 1000.42 136.582 1000.34 135.91H1002.21L1002.35 137.19C1002.59 136.71 1002.92 136.342 1003.36 136.086C1003.81 135.83 1004.32 135.702 1004.9 135.702C1006.13 135.702 1006.94 136.214 1007.31 137.238C1007.57 136.758 1007.93 136.385 1008.4 136.118C1008.88 135.841 1009.41 135.702 1010 135.702Z" fill="#7450C8"/>
</svg>
