<?xml version="1.0" encoding="UTF-8"?>
<svg width="23px" height="26px" viewBox="0 0 23 26" version="1.1" xmlns="http://www.w3.org/2000/svg" xmlns:xlink="http://www.w3.org/1999/xlink">
    <!-- Generator: Sketch 52.6 (67491) - http://www.bohemiancoding.com/sketch -->
    <title>envelope-open</title>
    <desc>Created with Sketch.</desc>
    <g id="15--Landing-page" stroke="none" stroke-width="1" fill="none" fill-rule="evenodd">
        <g id="7--Privacy-Operations" transform="translate(-348.000000, -6105.000000)" fill="#7450C8" fill-rule="nonzero">
            <g id="Group-21" transform="translate(-1.000000, 5862.000000)">
                <g id="Group-20" transform="translate(308.000000, 223.000000)">
                    <g id="Group-18" transform="translate(0.000000, 1.000000)">
                        <g id="envelope-open" transform="translate(41.000000, 19.500000)">
                            <path d="M21.9905556,8.52407288 L14.0555556,0.973841141 C12.6595745,-0.324613714 10.4682032,-0.324613714 9.07222222,0.973841141 L1.13722222,8.47407135 C0.424136239,9.0830493 0.0104426319,9.96068468 0,10.8866454 L0,21.6119746 C0.0280412047,23.5056549 1.61643391,25.0204377 3.55222222,24.9995786 L19.4477778,24.9995786 C21.3835661,25.0204377 22.9719588,23.5056549 23,21.6119746 L23,10.8866454 C22.9979875,9.99914666 22.6347401,9.14897771 21.9905556,8.52407288 Z M10.7844444,2.77389639 C11.1895985,2.41158083 11.8104015,2.41158083 12.2155556,2.77389639 L19.1666667,9.37409897 L12.1772222,15.9743016 C11.7720681,16.3366171 11.1512652,16.3366171 10.7461111,15.9743016 L3.83333333,9.37409897 L10.7844444,2.77389639 Z M20.4444444,21.6119746 C20.4102901,22.1219028 19.9699279,22.5140433 19.4477778,22.4995018 L3.55222222,22.4995018 C3.03007206,22.5140433 2.58970993,22.1219028 2.55555556,21.6119746 L2.55555556,11.6866699 L7.73055556,16.5618196 L5.60944444,18.561881 C5.11401985,19.0494428 5.11401985,19.8368733 5.60944444,20.3244351 C5.84942241,20.5707117 6.18164915,20.7106485 6.52944444,20.711947 C6.85843331,20.7106653 7.17423986,20.585294 7.41111111,20.3619362 L9.67277778,18.236871 C10.8180311,18.9215156 12.2586356,18.9215156 13.4038889,18.236871 L15.6655556,20.3619362 C15.9024268,20.585294 16.2182334,20.7106653 16.5472222,20.711947 C16.8950175,20.7106485 17.2272443,20.5707117 17.4672222,20.3244351 C17.9626468,19.8368733 17.9626468,19.0494428 17.4672222,18.561881 L15.3333333,16.5618196 L20.4444444,11.6866699 L20.4444444,21.6119746 Z" id="Shape"></path>
                        </g>
                    </g>
                </g>
            </g>
        </g>
    </g>
</svg>