<svg height="544" viewBox="0 0 1440 544" width="1440" xmlns="http://www.w3.org/2000/svg" xmlns:xlink="http://www.w3.org/1999/xlink"><defs><rect id="a" height="40" rx="4" width="168"/><filter id="b" height="182.5%" width="119.6%" x="-8%" y="-33.8%"><feOffset dx="3" dy="3" in="SourceAlpha" result="shadowOffsetOuter1"/><feGaussianBlur in="shadowOffsetOuter1" result="shadowBlurOuter1" stdDeviation="5"/><feColorMatrix in="shadowBlurOuter1" type="matrix" values="0 0 0 0 0.2   0 0 0 0 0.2   0 0 0 0 0.2  0 0 0 0.2 0"/></filter><rect id="c" height="40" rx="4" width="168"/><filter id="d" height="182.5%" width="119.6%" x="-8%" y="-33.8%"><feOffset dx="3" dy="3" in="SourceAlpha" result="shadowOffsetOuter1"/><feGaussianBlur in="shadowOffsetOuter1" result="shadowBlurOuter1" stdDeviation="5"/><feColorMatrix in="shadowBlurOuter1" type="matrix" values="0 0 0 0 0.2   0 0 0 0 0.2   0 0 0 0 0.2  0 0 0 0.2 0"/></filter><mask id="e" fill="#fff"><path d="m0 119h119v-119h-119z" fill="#fff" fill-rule="evenodd"/></mask></defs><g fill="none" fill-rule="evenodd"><path d="m0 0h1440v544h-1440z" fill="#fff"/><g transform="translate(133 72)"><g transform="translate(478 123)"><path d="m92 62h-30v-60.56481481c0-.79222223.6573529-1.43518519 1.4705882-1.43518519h27.0588236c.8117647 0 1.4705882.64296296 1.4705882 1.43518519z" fill="#fff"/><path d="m92 62h-30v-60.56481481c0-.79222223.6573529-1.43518519 1.4705882-1.43518519h27.0588236c.8117647 0 1.4705882.64296296 1.4705882 1.43518519z" stroke="#7450c8" stroke-linecap="round" stroke-linejoin="round"/><path d="m6 19h56v-3h-56z" fill="#fff"/><path d="m6 19h56v-3h-56z" stroke="#7450c8" stroke-linecap="round" stroke-linejoin="round"/><path d="m6 30h56v-3h-56z" fill="#fff"/><path d="m6 30h56v-3h-56z" stroke="#7450c8" stroke-linecap="round" stroke-linejoin="round"/><path d="m45.8787879 30h-23.7575758-16.1212121v32h16.1212121 23.7575758 16.1212121v-32z" fill="#dfe4ee"/><path d="m51 30h-45v32h12.5808898z" fill="#fff"/><path d="m16.3636364 59h-5.7272728c-.90409087 0-1.6363636.6725-1.6363636 1.5 0 .82875.73227273 1.5 1.6363636 1.5h5.7272728c.9040909 0 1.6363636-.67125 1.6363636-1.5 0-.8275-.7322727-1.5-1.6363636-1.5" fill="#dfe4ee"/><path d="m16.3636364 59h-5.7272728c-.90409087 0-1.6363636.6725-1.6363636 1.5 0 .82875.73227273 1.5 1.6363636 1.5h5.7272728c.9040909 0 1.6363636-.67125 1.6363636-1.5 0-.8275-.7322727-1.5-1.6363636-1.5z" stroke="#7450c8" stroke-linecap="round" stroke-linejoin="round"/><path d="m9 60v-8.2981307c0-.7229432.27545455-1.4201691.76363636-1.9316586l1.69090914-1.7702107h4.090909l1.6909091 1.7702107c.4881819.5114895.7636364 1.2087154.7636364 1.9316586v8.2981307" stroke="#7450c8" stroke-linecap="round" stroke-linejoin="round"/><path d="m15 47h-4v-1.75c0-.69125.5973333-1.25 1.3333333-1.25h1.3333334c.7373333 0 1.3333333.55875 1.3333333 1.25z" fill="#dfe4ee"/><path d="m15 47h-4v-1.75c0-.69125.5973333-1.25 1.3333333-1.25h1.3333334c.7373333 0 1.3333333.55875 1.3333333 1.25z" stroke="#7450c8" stroke-linecap="round" stroke-linejoin="round"/><path d="m36 60.5c0-.8275-.7322727-1.5-1.6363636-1.5h-5.7272728c-.9040909 0-1.6363636.6725-1.6363636 1.5 0 .82875.7322727 1.5 1.6363636 1.5h5.7272728c.9040909 0 1.6363636-.67125 1.6363636-1.5" fill="#dfe4ee"/><path d="m36 60.5c0-.8275-.7322727-1.5-1.6363636-1.5h-5.7272728c-.9040909 0-1.6363636.6725-1.6363636 1.5 0 .82875.7322727 1.5 1.6363636 1.5h5.7272728c.9040909 0 1.6363636-.67125 1.6363636-1.5z" stroke="#7450c8" stroke-linecap="round" stroke-linejoin="round"/><path d="m27 60v-8.2981307c0-.7229432.2754545-1.4201691.765-1.9316586l1.6895455-1.7702107h4.090909l1.6909091 1.7702107c.4881819.5114895.7636364 1.2087154.7636364 1.9316586v8.2981307" stroke="#7450c8" stroke-linecap="round" stroke-linejoin="round"/><path d="m34 47h-4v-1.75c0-.69125.596-1.25 1.3333333-1.25h1.3333334c.736 0 1.3333333.55875 1.3333333 1.25z" fill="#dfe4ee"/><path d="m34 47h-4v-1.75c0-.69125.596-1.25 1.3333333-1.25h1.3333334c.736 0 1.3333333.55875 1.3333333 1.25z" stroke="#7450c8" stroke-linecap="round" stroke-linejoin="round"/><path d="m55 60.5c0-.8275-.7322727-1.5-1.6363636-1.5h-5.7272728c-.9027272 0-1.6363636.6725-1.6363636 1.5 0 .82875.7336364 1.5 1.6363636 1.5h5.7272728c.9040909 0 1.6363636-.67125 1.6363636-1.5" fill="#dfe4ee"/><path d="m55 60.5c0-.8275-.7322727-1.5-1.6363636-1.5h-5.7272728c-.9027272 0-1.6363636.6725-1.6363636 1.5 0 .82875.7336364 1.5 1.6363636 1.5h5.7272728c.9040909 0 1.6363636-.67125 1.6363636-1.5z" stroke="#7450c8" stroke-linecap="round" stroke-linejoin="round"/><path d="m46 60v-8.2981307c0-.7229432.2754545-1.4201691.765-1.9316586l1.6895455-1.7702107h4.090909l1.6909091 1.7702107c.4881819.5114895.7636364 1.2087154.7636364 1.9316586v8.2981307" stroke="#7450c8" stroke-linecap="round" stroke-linejoin="round"/><path d="m52 47h-4v-1.75c0-.69125.5973333-1.25 1.3333333-1.25h1.3333334c.736 0 1.3333333.55875 1.3333333 1.25z" fill="#dfe4ee"/><path d="m52 47h-4v-1.75c0-.69125.5973333-1.25 1.3333333-1.25h1.3333334c.736 0 1.3333333.55875 1.3333333 1.25z" stroke="#7450c8" stroke-linecap="round" stroke-linejoin="round"/><path d="m45.8787879 30h-23.7575758-16.1212121v32h16.1212121 23.7575758 16.1212121v-32z" stroke="#7450c8" stroke-linecap="round" stroke-linejoin="round"/><path d="m94 62h-36v-24.5555556c0-.7987777.64-1.4444444 1.4285714-1.4444444h33.1428572c.7885714 0 1.4285714.6456667 1.4285714 1.4444444z" fill="#fff"/><path d="m94 62h-36v-24.5555556c0-.7987777.64-1.4444444 1.4285714-1.4444444h33.1428572c.7885714 0 1.4285714.6456667 1.4285714 1.4444444z" stroke="#7450c8" stroke-linecap="round" stroke-linejoin="round"/><path d="m0 62h6v-47.5672515c0-.7908772-.74666667-1.4327485-1.66666667-1.4327485h-2.66666666c-.92 0-1.66666667.6418713-1.66666667 1.4327485z" fill="#fff"/><path d="m0 62h6v-47.5672515c0-.7908772-.74666667-1.4327485-1.66666667-1.4327485h-2.66666666c-.92 0-1.66666667.6418713-1.66666667 1.4327485z" stroke="#7450c8" stroke-linecap="round" stroke-linejoin="round"/><path d="m6 26h56v-6h-56z" fill="#dfe4ee"/><path d="m6 26h56v-6h-56z" stroke="#7450c8" stroke-linecap="round" stroke-linejoin="round"/><path d="m63 62h26v-20h-26z" fill="#dfe4ee"/><path d="m75 42h-11v11z" fill="#fff"/><path d="m63 62h26v-20h-26z" stroke="#7450c8" stroke-linecap="round" stroke-linejoin="round"/><path d="m71 62h6v-12h-6z" stroke="#7450c8" stroke-linecap="round" stroke-linejoin="round"/><path d="m76 62h6v-12h-6z" fill="#d6daff"/><path d="m76 62h6v-12h-6z" fill="#dfe4ee"/><path d="m76 62h6v-12h-6z" stroke="#7450c8" stroke-linecap="round" stroke-linejoin="round"/><path d="m87 16.4992708c0 5.8001944-4.7016667 10.5007292-10.5 10.5007292-5.7997917 0-10.5-4.7005348-10.5-10.5007292 0-5.8001945 4.7002083-10.4992708 10.5-10.4992708 5.7983333 0 10.5 4.6990763 10.5 10.4992708" fill="#fff"/><path d="m87 16.4992708c0 5.8001944-4.7016667 10.5007292-10.5 10.5007292-5.7997917 0-10.5-4.7005348-10.5-10.5007292 0-5.8001945 4.7002083-10.4992708 10.5-10.4992708 5.7983333 0 10.5 4.6990763 10.5 10.4992708z" stroke="#7450c8" stroke-linecap="round" stroke-linejoin="round"/><path d="m75.770788 20.6619504-1.1075316 1.1088376c-.3069221.305616-.8019155.305616-1.1088376 0l-3.3252068-3.3239008c-.305616-.306922-.305616-.8032215 0-1.1088376l1.1088376-1.1088376c.3056161-.305616.8019156-.305616 1.1088376 0l3.3239008 3.3239008c.305616.306922.305616.8032215 0 1.1088376" fill="#dfe4ee"/><path d="m75.770788 20.6619504-1.1075316 1.1088376c-.3069221.305616-.8019155.305616-1.1088376 0l-3.3252068-3.3239008c-.305616-.306922-.305616-.8032215 0-1.1088376l1.1088376-1.1088376c.3056161-.305616.8019156-.305616 1.1088376 0l3.3239008 3.3239008c.305616.306922.305616.8032215 0 1.1088376z" stroke="#7450c8" stroke-linecap="round" stroke-linejoin="round"/><path d="m82.770788 12.6620232-1.1088376 1.1087773c-.3056161.3055993-.8019156.3055993-1.1075316 0l-3.3252068-3.3250259c-.305616-.3069054-.305616-.80317788 0-1.10877727l1.1088376-1.10877727c.3056161-.30429341.8019156-.30429341 1.1088376 0l3.3239008 3.32502584c.305616.3069054.305616.8031779 0 1.1087773" fill="#dfe4ee"/><path d="m82.770788 12.6620232-1.1088376 1.1087773c-.3056161.3055993-.8019156.3055993-1.1075316 0l-3.3252068-3.3250259c-.305616-.3069054-.305616-.80317788 0-1.10877727l1.1088376-1.10877727c.3056161-.30429341.8019156-.30429341 1.1088376 0l3.3239008 3.32502584c.305616.3069054.305616.8031779 0 1.1087773z" stroke="#7450c8" stroke-linecap="round" stroke-linejoin="round"/><path d="m74.3328751 19-2.3328751-2.3333333 4.6657502-4.6666667 2.3342498 2.3319584z" fill="#dfe4ee"/><g stroke="#7450c8" stroke-linecap="round" stroke-linejoin="round"><path d="m74.3328751 19-2.3328751-2.3333333 4.6657502-4.6666667 2.3342498 2.3319584z"/><path d="m71 50v-8"/><path d="m81 50v-8"/><path d="m81 55h8"/><path d="m71 55h-8"/><path d="m21 30v32"/><path d="m45 30v32"/><path d="m6 37h53"/><path d="m6 54h53"/></g></g><g transform="translate(585 114)"><path d="m66 68c0 1.6571429-13.2085079 3-29.5 3-16.2933651 0-29.5-1.3428571-29.5-3s13.2066349-3 29.5-3c16.2914921 0 29.5 1.3428571 29.5 3" fill="#dfe4ee"/><path d="m73 42-.0074759-37.33518519c0-2.57592592-2.1081953-4.66481481-4.709798-4.66481481h-63.57479707c-2.59973374 0-4.70792903 2.08888889-4.70792903 4.66481481l.00747587 37.33518519z" fill="#dfe4ee"/><path d="m9.45488654 42 42.54511346-42h-47.2744327c-2.60947365 0-4.7255673 2.08888889-4.7255673 4.66481481l.00750388 37.33518519z" fill="#fff"/><path d="m73 42v9.3333333c0 2.5777778-2.1084112 4.6666667-4.7121495 4.6666667h-63.57943929c-2.6 0-4.70841121-2.0888889-4.70841121-4.6666667v-9.3333333z" fill="#fff"/><path d="m73 42v9.3333333c0 2.5777778-2.1084112 4.6666667-4.7121495 4.6666667h-63.57943929c-2.6 0-4.70841121-2.0888889-4.70841121-4.6666667v-9.3333333z" stroke="#7450c8" stroke-linecap="round" stroke-linejoin="round"/><path d="m39 49.5c0 1.3809524-1.1170635 2.5-2.5 2.5-1.3809524 0-2.5-1.1190476-2.5-2.5 0-1.3789683 1.1190476-2.5 2.5-2.5 1.3829365 0 2.5 1.1210317 2.5 2.5" fill="#f4f6fc"/><path d="m39 49.5c0 1.3809524-1.1170635 2.5-2.5 2.5-1.3809524 0-2.5-1.1190476-2.5-2.5 0-1.3789683 1.1190476-2.5 2.5-2.5 1.3829365 0 2.5 1.1210317 2.5 2.5z" stroke="#7450c8" stroke-linecap="round" stroke-linejoin="round"/><path d="m48 66h-24l1.2-9h21.6z" fill="#fff"/><g stroke="#7450c8" stroke-linecap="round" stroke-linejoin="round"><path d="m48 66h-24l1.2-9h21.6z"/><path d="m17 66h38"/><path d="m73 42-.0074759-37.33518519c0-2.57592592-2.1081953-4.66481481-4.709798-4.66481481h-63.57479707c-2.59973374 0-4.70792903 2.08888889-4.70792903 4.66481481l.00747587 37.33518519z"/></g></g><g transform="translate(606 95)"><path d="m55.4617691 51h-51.92353822c-1.94602698 0-3.53823088-1.6064073-3.53823088-3.5697941v-35.4302059h59v35.4302059c0 1.9633868-1.5922039 3.5697941-3.5382309 3.5697941" fill="#fff"/><path d="m55.4617691 51h-51.92353822c-1.94602698 0-3.53823088-1.6064073-3.53823088-3.5697941v-35.4302059h59v35.4302059c0 1.9633868-1.5922039 3.5697941-3.5382309 3.5697941z" stroke="#7450c8" stroke-linecap="round" stroke-linejoin="round"/><path d="m59 12h-59v-8.52173913c0-1.91304348 1.5922039-3.47826087 3.53823088-3.47826087h51.92353822c1.946027 0 3.5382309 1.56521739 3.5382309 3.47826087z" fill="#fff"/><path d="m59 12h-59v-8.52173913c0-1.91304348 1.5922039-3.47826087 3.53823088-3.47826087h51.92353822c1.946027 0 3.5382309 1.56521739 3.5382309 3.47826087z" stroke="#7450c8" stroke-linecap="round" stroke-linejoin="round"/><path d="m8 6c0 1.10434783-.89565217 2-2 2s-2-.89565217-2-2 .89565217-2 2-2 2 .89565217 2 2" fill="#dfe4ee"/><path d="m8 6c0 1.10434783-.89565217 2-2 2s-2-.89565217-2-2 .89565217-2 2-2 2 .89565217 2 2z" stroke="#7450c8" stroke-linecap="round" stroke-linejoin="round"/><path d="m16 6c0 1.10434783-.8956522 2-2 2s-2-.89565217-2-2 .8956522-2 2-2 2 .89565217 2 2" fill="#dfe4ee"/><path d="m16 6c0 1.10434783-.8956522 2-2 2s-2-.89565217-2-2 .8956522-2 2-2 2 .89565217 2 2z" stroke="#7450c8" stroke-linecap="round" stroke-linejoin="round"/><path d="m24 6c0 1.10434783-.8956522 2-2 2s-2-.89565217-2-2 .8956522-2 2-2 2 .89565217 2 2" fill="#dfe4ee"/><path d="m24 6c0 1.10434783-.8956522 2-2 2s-2-.89565217-2-2 .8956522-2 2-2 2 .89565217 2 2z" stroke="#7450c8" stroke-linecap="round" stroke-linejoin="round"/><path d="m24.5507246 33h-5.1014492c-.8 0-1.4492754-.6492754-1.4492754-1.4492754v-5.1014492c0-.8.6492754-1.4492754 1.4492754-1.4492754h5.1014492c.8 0 1.4492754.6492754 1.4492754 1.4492754v5.1014492c0 .8-.6492754 1.4492754-1.4492754 1.4492754" fill="#dfe4ee"/><path d="m24.5507246 33h-5.1014492c-.8 0-1.4492754-.6492754-1.4492754-1.4492754v-5.1014492c0-.8.6492754-1.4492754 1.4492754-1.4492754h5.1014492c.8 0 1.4492754.6492754 1.4492754 1.4492754v5.1014492c0 .8-.6492754 1.4492754-1.4492754 1.4492754z" stroke="#7450c8" stroke-linecap="round" stroke-linejoin="round"/><path d="m38.5507246 33h-5.1014492c-.8 0-1.4492754-.6492754-1.4492754-1.4492754v-5.1014492c0-.8.6492754-1.4492754 1.4492754-1.4492754h5.1014492c.8 0 1.4492754.6492754 1.4492754 1.4492754v5.1014492c0 .8-.6492754 1.4492754-1.4492754 1.4492754" fill="#dfe4ee"/><path d="m38.5507246 33h-5.1014492c-.8 0-1.4492754-.6492754-1.4492754-1.4492754v-5.1014492c0-.8.6492754-1.4492754 1.4492754-1.4492754h5.1014492c.8 0 1.4492754.6492754 1.4492754 1.4492754v5.1014492c0 .8-.6492754 1.4492754-1.4492754 1.4492754z" stroke="#7450c8" stroke-linecap="round" stroke-linejoin="round"/><path d="m51.5507246 33h-5.1014492c-.8 0-1.4492754-.6492754-1.4492754-1.4492754v-5.1014492c0-.8.6492754-1.4492754 1.4492754-1.4492754h5.1014492c.8014493 0 1.4492754.6492754 1.4492754 1.4492754v5.1014492c0 .8-.6478261 1.4492754-1.4492754 1.4492754" fill="#dfe4ee"/><path d="m51.5507246 33h-5.1014492c-.8 0-1.4492754-.6492754-1.4492754-1.4492754v-5.1014492c0-.8.6492754-1.4492754 1.4492754-1.4492754h5.1014492c.8014493 0 1.4492754.6492754 1.4492754 1.4492754v5.1014492c0 .8-.6478261 1.4492754-1.4492754 1.4492754z" stroke="#7450c8" stroke-linecap="round" stroke-linejoin="round"/><path d="m24.5507246 45h-5.1014492c-.8 0-1.4492754-.6492754-1.4492754-1.4492754v-5.1014492c0-.8.6492754-1.4492754 1.4492754-1.4492754h5.1014492c.8 0 1.4492754.6492754 1.4492754 1.4492754v5.1014492c0 .8-.6492754 1.4492754-1.4492754 1.4492754" fill="#dfe4ee"/><path d="m24.5507246 45h-5.1014492c-.8 0-1.4492754-.6492754-1.4492754-1.4492754v-5.1014492c0-.8.6492754-1.4492754 1.4492754-1.4492754h5.1014492c.8 0 1.4492754.6492754 1.4492754 1.4492754v5.1014492c0 .8-.6492754 1.4492754-1.4492754 1.4492754z" stroke="#7450c8" stroke-linecap="round" stroke-linejoin="round"/><path d="m38.5507246 45h-5.1014492c-.8 0-1.4492754-.6492754-1.4492754-1.4492754v-5.1014492c0-.8.6492754-1.4492754 1.4492754-1.4492754h5.1014492c.8 0 1.4492754.6492754 1.4492754 1.4492754v5.1014492c0 .8-.6492754 1.4492754-1.4492754 1.4492754" fill="#dfe4ee"/><path d="m38.5507246 45h-5.1014492c-.8 0-1.4492754-.6492754-1.4492754-1.4492754v-5.1014492c0-.8.6492754-1.4492754 1.4492754-1.4492754h5.1014492c.8 0 1.4492754.6492754 1.4492754 1.4492754v5.1014492c0 .8-.6492754 1.4492754-1.4492754 1.4492754z" stroke="#7450c8" stroke-linecap="round" stroke-linejoin="round"/><path d="m51.5507246 45h-5.1014492c-.8 0-1.4492754-.6492754-1.4492754-1.4492754v-5.1014492c0-.8.6492754-1.4492754 1.4492754-1.4492754h5.1014492c.8014493 0 1.4492754.6492754 1.4492754 1.4492754v5.1014492c0 .8-.6478261 1.4492754-1.4492754 1.4492754" fill="#dfe4ee"/><path d="m51.5507246 45h-5.1014492c-.8 0-1.4492754-.6492754-1.4492754-1.4492754v-5.1014492c0-.8.6492754-1.4492754 1.4492754-1.4492754h5.1014492c.8014493 0 1.4492754.6492754 1.4492754 1.4492754v5.1014492c0 .8-.6478261 1.4492754-1.4492754 1.4492754z" stroke="#7450c8" stroke-linecap="round" stroke-linejoin="round"/><path d="m12.5507246 20h-5.10144924c-.8 0-1.44927536-.6492754-1.44927536-1.4492754v-1.1014492c0-.8.64927536-1.4492754 1.44927536-1.4492754h5.10144924c.8 0 1.4492754.6492754 1.4492754 1.4492754v1.1014492c0 .8-.6492754 1.4492754-1.4492754 1.4492754" fill="#dfe4ee"/><path d="m12.5507246 20h-5.10144924c-.8 0-1.44927536-.6492754-1.44927536-1.4492754v-1.1014492c0-.8.64927536-1.4492754 1.44927536-1.4492754h5.10144924c.8 0 1.4492754.6492754 1.4492754 1.4492754v1.1014492c0 .8-.6492754 1.4492754-1.4492754 1.4492754z" stroke="#7450c8" stroke-linecap="round" stroke-linejoin="round"/><path d="m51.5080989 20h-32.0161978c-.8235294 0-1.4919011-.6492754-1.4919011-1.4492754v-1.1014492c0-.8.6683717-1.4492754 1.4919011-1.4492754h32.0161978c.8250213 0 1.4919011.6492754 1.4919011 1.4492754v1.1014492c0 .8-.6668798 1.4492754-1.4919011 1.4492754" fill="#dfe4ee"/><g stroke="#7450c8" stroke-linejoin="round"><path d="m51.5080989 20h-32.0161978c-.8235294 0-1.4919011-.6492754-1.4919011-1.4492754v-1.1014492c0-.8.6683717-1.4492754 1.4919011-1.4492754h32.0161978c.8250213 0 1.4919011.6492754 1.4919011 1.4492754v1.1014492c0 .8-.6668798 1.4492754-1.4919011 1.4492754z"/><path d="m6 25h8" stroke-linecap="round"/><path d="m6 29h8" stroke-linecap="round"/><path d="m6 33h8" stroke-linecap="round"/><path d="m6 37h8" stroke-linecap="round"/><path d="m6 41h8" stroke-linecap="round"/><path d="m6 45h5" stroke-linecap="round"/></g><path d="m72.1392802 67.1655474c-.2946044 1.0783061-.8867592 1.1166066-1.3168816.0854395l-6.6668971-16.0007664c-.4301224-1.0326401.0633399-1.5246541 1.0944553-1.0945101l15.9999639 6.6672315c1.0325884.430144.9942898 1.0208554-.0854353 1.3169476l-5.1305353 1.3979679c-1.078252.2946192-2.2021677 1.4185913-2.4952991 2.4968974z" fill="#fff"/><path d="m72.1392802 67.1655474c-.2946044 1.0783061-.8867592 1.1166066-1.3168816.0854395l-6.6668971-16.0007664c-.4301224-1.0326401.0633399-1.5246541 1.0944553-1.0945101l15.9999639 6.6672315c1.0325884.430144.9942898 1.0208554-.0854353 1.3169476l-5.1305353 1.3979679c-1.078252.2946192-2.2021677 1.4185913-2.4952991 2.4968974z" stroke="#7450c8" stroke-linejoin="round"/></g><g transform="translate(492 196)"><rect fill="#fff" height="39" rx="4" stroke="#b0bac9" width="167" x=".5" y=".5"/><text fill="#7450c8" font-family="Roboto-Bold, Roboto" font-size="14" font-weight="bold"><tspan x="38.759766" y="20">Your Business</tspan></text></g><g transform="translate(80 140)"><use fill="#000" filter="url(#b)" xlink:href="#a"/><use fill="#fff" fill-rule="evenodd" xlink:href="#a"/><text fill="#7450c8" font-family="Roboto-Bold, Roboto" font-size="14" font-weight="bold"><tspan x="40.458496" y="20">Data Subjects</tspan></text></g><g transform="translate(0 119)"><path d="m89.7272727 43.125c0-23.6689286-19.1300682-42.85714286-42.7272727-42.85714286s-42.72727273 19.18821426-42.72727273 42.85714286c0 6.3053571 1.36834091 12.2946429 3.80593182 17.685h77.84161361c2.4386591-5.3903571 3.807-11.3796429 3.807-17.685" fill="#f4f6fc"/><g stroke="#7450c8"><path d="m5.340909 60.810321h83.318182" stroke-linecap="round" stroke-linejoin="round"/><path d="m.534091 60.810321h2.670454" stroke-linecap="round" stroke-linejoin="round"/><path d="m90.795455 60.810321h2.670454" stroke-linecap="round" stroke-linejoin="round"/></g><path d="m19.6956705 73.125c0 .8882143 8.6084772 1.6071429 19.2272727 1.6071429 10.6177273 0 19.2272727-.7189286 19.2272727-1.6071429s-8.6095454-1.6071429-19.2272727-1.6071429c-10.6187955 0-19.2272727.7189286-19.2272727 1.6071429" fill="#f0f2ff"/><path d="m61.3140636 37.6606071c3.5388864 0 6.4090909-2.8778571 6.4090909-6.4285714v-12.8571428c0-7.3842858-6.2061363-13.3146429-13.671659-12.82928576-6.8128637.4425-11.9647046 6.42214286-11.9647046 13.26964286v12.4167857c0 3.5507143 2.8702046 6.4285714 6.4090909 6.4285714z" fill="#fff"/><path d="m61.3140636 37.6606071c3.5388864 0 6.4090909-2.8778571 6.4090909-6.4285714v-12.8571428c0-7.3842858-6.2061363-13.3146429-13.671659-12.82928576-6.8128637.4425-11.9647046 6.42214286-11.9647046 13.26964286v12.4167857c0 3.5507143 2.8702046 6.4285714 6.4090909 6.4285714z" stroke="#7450c8" stroke-linecap="round" stroke-linejoin="round"/><path d="m54.9049727 35.7311786c-9.2023863 0-16.6636363 7.4828571-16.6636363 16.7142857v4.5021428c0 8.4739286-2.9994546 9.6407143-6.3279091 9.6407143h-1.363-1.2818182v5.7857143h1.2818182 1.363c4.6562045 0 12.737-3.8903571 12.737-11.5703571h20.5101591c0 4.89-3.5944319 5.7846428-6.3289773 5.7846428h-1.363-1.2818182v5.7857143h1.2818182 1.363c5.2618636 0 12.7380682-1.1260714 12.7380682-11.5725v-8.3560714c0-9.2314286-7.46125-16.7142857-16.6647046-16.7142857" fill="#fff"/><path d="m54.9049727 35.7311786c-9.2023863 0-16.6636363 7.4828571-16.6636363 16.7142857v4.5021428c0 8.4739286-2.9994546 9.6407143-6.3279091 9.6407143h-2.6448182v5.7857143h2.6448182c4.6562045 0 12.737-3.8903571 12.737-11.5703571h20.5101591c0 4.89-3.5944319 5.7846428-6.3289773 5.7846428h-2.6448182v5.7857143h2.6448182c5.2618636 0 12.7380682-1.1260714 12.7380682-11.5725v-8.3560714c0-9.2314286-7.46125-16.7142857-16.6647046-16.7142857z" stroke="#7450c8" stroke-linecap="round" stroke-linejoin="round"/><path d="m44.650855 53.088536v7.714285" stroke="#7450c8" stroke-linecap="round" stroke-linejoin="round"/><path d="m65.160159 53.088536v7.714285" stroke="#7450c8" stroke-linecap="round" stroke-linejoin="round"/><path d="m56.1870045 71.7323571h-1.9227272c-1.4153409 0-2.5636364-1.1517857-2.5636364-2.5714285 0-1.4207143 1.1482955-2.5714286 2.5636364-2.5714286h1.9227272z" fill="#fff"/><path d="m56.1870045 71.7323571h-1.9227272c-1.4153409 0-2.5636364-1.1517857-2.5636364-2.5714285 0-1.4207143 1.1482955-2.5714286 2.5636364-2.5714286h1.9227272z" stroke="#7450c8" stroke-linecap="round" stroke-linejoin="round"/><path d="m29.2686091 71.7323571h-1.9227273c-1.4164091 0-2.5636363-1.1517857-2.5636363-2.5714285 0-1.4207143 1.1472272-2.5714286 2.5636363-2.5714286h1.9227273z" fill="#fff"/><path d="m29.2686091 71.7323571h-1.9227273c-1.4164091 0-2.5636363-1.1517857-2.5636363-2.5714285 0-1.4207143 1.1472272-2.5714286 2.5636363-2.5714286h1.9227273z" stroke="#7450c8" stroke-linecap="round" stroke-linejoin="round"/><path d="m54.904973 44.089179v16.714285" stroke="#7450c8" stroke-linecap="round" stroke-linejoin="round"/><path d="m58.7510682 36.3752143-3.8465227 7.7142857-3.8443864-7.7142857v-3.2142857h7.6909091z" fill="#fff"/><path d="m58.7510682 36.3752143-3.8465227 7.7142857-3.8443864-7.7142857v-3.2142857h7.6909091z" stroke="#7450c8" stroke-linecap="round" stroke-linejoin="round"/><path d="m48.8995477 42.3010714c.2061591.2689286.5266137.4242857.8662955.4178572.3375454-.0053572.6526591-.1725.8492045-.4478572l1.9120455-2.6860714c.2713182-.3803571.2659773-.8925-.0138864-1.2653571l-1.5787727-2.1117858c-1.8148409.4457143-3.5121818 1.1882143-5.0396818 2.175z" fill="#fff"/><path d="m48.8995477 42.3010714c.2061591.2689286.5266137.4242857.8662955.4178572.3375454-.0053572.6526591-.1725.8492045-.4478572l1.9120455-2.6860714c.2713182-.3803571.2659773-.8925-.0138864-1.2653571l-1.5787727-2.1117858c-1.8148409.4457143-3.5121818 1.1882143-5.0396818 2.175z" stroke="#7450c8" stroke-linecap="round" stroke-linejoin="round"/><path d="m60.9103977 42.3010714c-.2061591.2689286-.5266136.4242857-.8662954.4178572-.3375455-.0053572-.6526591-.1725-.8492046-.4478572l-1.9120454-2.6860714c-.2713182-.3803571-.2659773-.8925.0138863-1.2653571l1.5787728-2.1117858c1.8137727.4457143 3.5121818 1.1882143 5.0396818 2.175z" fill="#fff"/><path d="m60.9103977 42.3010714c-.2061591.2689286-.5266136.4242857-.8662954.4178572-.3375455-.0053572-.6526591-.1725-.8492046-.4478572l-1.9120454-2.6860714c-.2713182-.3803571-.2659773-.8925.0138863-1.2653571l1.5787728-2.1117858c1.8137727.4457143 3.5121818 1.1882143 5.0396818 2.175z" stroke="#7450c8" stroke-linecap="round" stroke-linejoin="round"/><path d="m65.8026705 21.5891786v-2.5714286c0-.3010714-.0224319-.5967857-.0448637-.8914286-1.6887954.9707143-3.6403636 1.5342857-5.7254545 1.5342857-3.5410228 0-6.7039091-1.6028571-8.8189091-4.1207142-.9635 2.7953571-3.2504773 4.7635714-5.922 4.7635714-.4379546 0-.8662955-.0535714-1.2796818-.1542857v1.44c-1.0628409 0-1.9227273.8635714-1.9227273 1.9285714v.6428571c0 1.065.8598864 1.9285715 1.9227273 1.9285715.0598181 0 .1175-.0128572.1773181-.0171429.9004773 5.1225 5.3505228 9.0171429 10.7181364 9.0171429 5.3654773 0 9.8155227-3.8946429 10.7181364-9.0171429.0598182.0042857.1153636.0171429.1773182.0171429 1.0617727 0 1.9227272-.8635715 1.9227272-1.9285715v-.6428571c0-1.065-.8609545-1.9285714-1.9227272-1.9285714" fill="#fff"/><path d="m65.8026705 21.5891786v-2.5714286c0-.3010714-.0224319-.5967857-.0448637-.8914286-1.6887954.9707143-3.6403636 1.5342857-5.7254545 1.5342857-3.5410228 0-6.7039091-1.6028571-8.8189091-4.1207142-.9635 2.7953571-3.2504773 4.7635714-5.922 4.7635714-.4379546 0-.8662955-.0535714-1.2796818-.1542857v1.44c-1.0628409 0-1.9227273.8635714-1.9227273 1.9285714v.6428571c0 1.065.8598864 1.9285715 1.9227273 1.9285715.0598181 0 .1175-.0128572.1773181-.0171429.9004773 5.1225 5.3505228 9.0171429 10.7181364 9.0171429 5.3654773 0 9.8155227-3.8946429 10.7181364-9.0171429.0598182.0042857.1153636.0171429.1773182.0171429 1.0617727 0 1.9227272-.8635715 1.9227272-1.9285715v-.6428571c0-1.065-.8609545-1.9285714-1.9227272-1.9285714z" stroke="#7450c8" stroke-linecap="round" stroke-linejoin="round"/><path d="m49.7799432 26.0893929c0 .7103571-.5736137 1.2857142-1.2818182 1.2857142s-1.2818182-.5753571-1.2818182-1.2857142c0-.7103572.5736137-1.2857143 1.2818182-1.2857143s1.2818182.5753571 1.2818182 1.2857143" fill="#f4f6fc"/><path d="m62.598125 26.0893929c0 .7103571-.5736136 1.2857142-1.2818182 1.2857142-.7082045 0-1.2818182-.5753571-1.2818182-1.2857142 0-.7103572.5736137-1.2857143 1.2818182-1.2857143.7082046 0 1.2818182.5753571 1.2818182 1.2857143" fill="#f4f6fc"/><path d="m51.7024568 28.6607143c1.9398182 1.7142857 4.4692727 1.7142857 6.4090909 0" stroke="#7450c8" stroke-linecap="round" stroke-linejoin="round"/><path d="m60.6756114 22.8751071c-.3300682-.6289285-.9100909-1.0714285-1.6022728-1.0714285-.69325 0-1.2732727.4425-1.6022727 1.0714285" stroke="#7450c8" stroke-linecap="round" stroke-linejoin="round"/><path d="m52.3430455 22.6606071c-.3300682-.6289285-.9090228-1.0714285-1.6022728-1.0714285-.6921818 0-1.2722045.4425-1.6022727 1.0714285" stroke="#7450c8" stroke-linecap="round" stroke-linejoin="round"/><path d="m42.8629318 69.9107143h2.3884546l-5.1027046-15.8646429c-.1420682-.4425-.5533182-.7425-1.0158409-.7425h-1.6108182z" fill="#f4f6fc"/><path d="m42.8629318 69.9107143h2.3884546l-5.1027046-15.8646429c-.1420682-.4425-.5533182-.7425-1.0158409-.7425h-1.6108182z" stroke="#7450c8" stroke-linejoin="round"/><path d="m22.0333864 69.9107143h20.8295454l-5.3409091-16.6071429h-19.3618636c-.3418182 0-.6622727.1639286-.8641591.4403572-.2018864.2775-.2574318.6332143-.1538182.96z" fill="#f4f6fc"/><path d="m22.0333864 69.9107143h21.8977272v2.6785714h-19.7613636c-1.1792727 0-2.1363636-.96-2.1363636-2.1428571z" fill="#f4f6fc"/><path d="m22.0333864 69.9107143h21.8977272v2.6785714h-19.7613636c-1.1792727 0-2.1363636-.96-2.1363636-2.1428571z" stroke="#7450c8" stroke-linejoin="round"/><path d="m43.9311136 69.9107143h9.6659773c.29375 0 .5340909.24.5340909.5357143 0 1.1828571-.9570909 2.1428571-2.1363636 2.1428571h-8.0637046z" fill="#f4f6fc"/><path d="m43.9311136 69.9107143h9.6659773c.29375 0 .5340909.24.5340909.5357143 0 1.1828571-.9570909 2.1428571-2.1363636 2.1428571h-8.0637046z" stroke="#7450c8" stroke-linejoin="round"/><path d="m30.9439455 61.0159286c-.0085455-.6664286.5415681-.9857143.5650681-1.0028572-.3076363-.4510714-.78725-.5132143-.9581591-.5207143-.4091136-.0417857-.7979318.2410715-1.005159.2410715-.2072273 0-.5276819-.2357143-.8662955-.2292857-.4454318.0075-.8556136.2603571-1.0863409.66-.4625227.8057142-.1164318 1.9982142.3343409 2.6517857.2200455.3203571.4828182.6792857.8267727.6664285.3343409-.0139285.4593182-.2153571.8598864-.2153571.4027045 0 .5148636.2153571.8662954.2078571.3567728-.0053571.5842955-.3246428.8022046-.6460714.2542273-.3707143.3567727-.7296428.36425-.7489286-.0085455-.0032142-.6975227-.2678571-.7028636-1.0639285" fill="#fff"/><path d="m30.9439455 61.0159286c-.0085455-.6664286.5415681-.9857143.5650681-1.0028572-.3076363-.4510714-.78725-.5132143-.9581591-.5207143-.4091136-.0417857-.7979318.2410715-1.005159.2410715-.2072273 0-.5276819-.2357143-.8662955-.2292857-.4454318.0075-.8556136.2603571-1.0863409.66-.4625227.8057142-.1164318 1.9982142.3343409 2.6517857.2200455.3203571.4828182.6792857.8267727.6664285.3343409-.0139285.4593182-.2153571.8598864-.2153571.4027045 0 .5148636.2153571.8662954.2078571.3567728-.0053571.5842955-.3246428.8022046-.6460714.2542273-.3707143.3567727-.7296428.36425-.7489286-.0085455-.0032142-.6975227-.2678571-.7028636-1.0639285z" stroke="#7450c8" stroke-linejoin="round"/><path d="m30.04475 58.125.480682-.483214" stroke="#7450c8" stroke-linecap="round" stroke-linejoin="round"/><path d="m22.0333864 69.9107143h20.8295454l-5.3409091-16.6071429h-19.3618636c-.3418182 0-.6622727.1639286-.8641591.4403572-.2018864.2775-.2574318.6332143-.1538182.96z" stroke="#7450c8" stroke-linejoin="round"/></g><g transform="translate(1003 148)"><use fill="#000" filter="url(#d)" xlink:href="#c"/><use fill="#fff" fill-rule="evenodd" xlink:href="#c"/><text fill="#7450c8" font-family="Roboto-Bold, Roboto" font-size="14" font-weight="bold"><tspan x="32.067383" y="20">Data Processors</tspan></text></g><path d="m115 55.2212389c0-30.4973097-24.624875-55.2212389-55-55.2212389s-55 24.7239292-55 55.2212389c0 8.1258053 1.76275 15.8333098 4.9005 22.7787611h100.199c3.13775-6.9454513 4.9005-14.6529558 4.9005-22.7787611" fill="#f4f6fc" transform="translate(898 113)"/><g transform="translate(898 108)"><path d="m108 61.4336283c0-26.1964071-21.2669375-47.4336283-47.5-47.4336283s-47.5 21.2372212-47.5 47.4336283c0 6.9786726 1.522375 13.5992213 4.23225 19.5663717h86.5355c2.711062-5.9671504 4.23225-12.5876991 4.23225-19.5663717" fill="#f0f2ff"/><g stroke="#7450c8" stroke-linecap="round" stroke-linejoin="round"><path d="m13 82h93"/><path d="m8 82h3"/><path d="m108 82h3"/></g><path d="m77 78h21v-40h-21z" fill="#fff" mask="url(#e)"/><path d="m77 78h21v-40h-21z" mask="url(#e)" stroke="#7450c8" stroke-linecap="round" stroke-linejoin="round"/><path d="m77 37h21v-2h-21z" fill="#fff" mask="url(#e)"/><path d="m77 37h21v-2h-21z" mask="url(#e)" stroke="#7450c8" stroke-linecap="round" stroke-linejoin="round"/><path d="m75 82h2v-46.8c0-.6624-.448-1.2-1-1.2-.553 0-1 .5376-1 1.2z" fill="#fff" mask="url(#e)"/><path d="m75 82h2v-46.8c0-.6624-.448-1.2-1-1.2-.553 0-1 .5376-1 1.2z" mask="url(#e)" stroke="#7450c8" stroke-linecap="round" stroke-linejoin="round"/><path d="m99 82h2v-46.8c0-.6624-.448-1.2-1-1.2-.553 0-1 .5376-1 1.2z" fill="#fff" mask="url(#e)"/><path d="m99 82h2v-46.8c0-.6624-.448-1.2-1-1.2-.553 0-1 .5376-1 1.2z" mask="url(#e)" stroke="#7450c8" stroke-linecap="round" stroke-linejoin="round"/><path d="m52 78h21v-40h-21z" fill="#fff" mask="url(#e)"/><path d="m52 78h21v-40h-21z" mask="url(#e)" stroke="#7450c8" stroke-linecap="round" stroke-linejoin="round"/><path d="m70 44h-16v-2.6666667c0-.736.5297778-1.3333333 1.1851852-1.3333333h13.6296296c.6542222 0 1.1851852.5973333 1.1851852 1.3333333z" fill="#fff" mask="url(#e)"/><path d="m70 44h-16v-2.6666667c0-.736.5297778-1.3333333 1.1851852-1.3333333h13.6296296c.6542222 0 1.1851852.5973333 1.1851852 1.3333333z" mask="url(#e)" stroke="#7450c8" stroke-linecap="round" stroke-linejoin="round"/><path d="m63.6666667 40-3.6666667 4h11v-2.6666667c0-.736-.5475556-1.3333333-1.2222222-1.3333333z" fill="#dfe4ee" mask="url(#e)"/><path d="m63.6666667 40-3.6666667 4h11v-2.6666667c0-.736-.5475556-1.3333333-1.2222222-1.3333333z" mask="url(#e)" stroke="#7450c8" stroke-linecap="round" stroke-linejoin="round"/><path d="m70 63h-16v-2.6666667c0-.736.5297778-1.3333333 1.1851852-1.3333333h13.6296296c.6542222 0 1.1851852.5973333 1.1851852 1.3333333z" fill="#fff" mask="url(#e)"/><path d="m70 63h-16v-2.6666667c0-.736.5297778-1.3333333 1.1851852-1.3333333h13.6296296c.6542222 0 1.1851852.5973333 1.1851852 1.3333333z" mask="url(#e)" stroke="#7450c8" stroke-linecap="round" stroke-linejoin="round"/><path d="m63.6666667 59-3.6666667 4h11v-2.6666667c0-.736-.5475556-1.3333333-1.2222222-1.3333333z" fill="#dfe4ee" mask="url(#e)"/><path d="m63.6666667 59-3.6666667 4h11v-2.6666667c0-.736-.5475556-1.3333333-1.2222222-1.3333333z" mask="url(#e)" stroke="#7450c8" stroke-linecap="round" stroke-linejoin="round"/><path d="m70 45.6666667c0 .736-.530963 1.3333333-1.1851852 1.3333333h-13.6296296c-.6554074 0-1.1851852-.5973333-1.1851852-1.3333333v-2.6666667h16z" fill="#fff" mask="url(#e)"/><path d="m70 45.6666667c0 .736-.530963 1.3333333-1.1851852 1.3333333h-13.6296296c-.6554074 0-1.1851852-.5973333-1.1851852-1.3333333v-2.6666667h16z" mask="url(#e)" stroke="#7450c8" stroke-linecap="round" stroke-linejoin="round"/><path d="m63.6666667 43-3.6666667 4h9.7777778c.6746666 0 1.2222222-.5973333 1.2222222-1.3333333v-2.6666667z" fill="#dfe4ee" mask="url(#e)"/><path d="m63.6666667 43-3.6666667 4h9.7777778c.6746666 0 1.2222222-.5973333 1.2222222-1.3333333v-2.6666667z" mask="url(#e)" stroke="#7450c8" stroke-linecap="round" stroke-linejoin="round"/><path d="m96 44h-16v-2.6666667c0-.736.5297778-1.3333333 1.1851852-1.3333333h13.6296296c.6542222 0 1.1851852.5973333 1.1851852 1.3333333z" fill="#fff" mask="url(#e)"/><path d="m96 44h-16v-2.6666667c0-.736.5297778-1.3333333 1.1851852-1.3333333h13.6296296c.6542222 0 1.1851852.5973333 1.1851852 1.3333333z" mask="url(#e)" stroke="#7450c8" stroke-linecap="round" stroke-linejoin="round"/><path d="m88.6666667 40-3.6666667 4h11v-2.6666667c0-.736-.5475556-1.3333333-1.2222222-1.3333333z" fill="#dfe4ee" mask="url(#e)"/><path d="m88.6666667 40-3.6666667 4h11v-2.6666667c0-.736-.5475556-1.3333333-1.2222222-1.3333333z" mask="url(#e)" stroke="#7450c8" stroke-linecap="round" stroke-linejoin="round"/><path d="m96 45.6666667c0 .736-.530963 1.3333333-1.1851852 1.3333333h-13.6296296c-.6554074 0-1.1851852-.5973333-1.1851852-1.3333333v-2.6666667h16z" fill="#fff" mask="url(#e)"/><path d="m96 45.6666667c0 .736-.530963 1.3333333-1.1851852 1.3333333h-13.6296296c-.6554074 0-1.1851852-.5973333-1.1851852-1.3333333v-2.6666667h16z" mask="url(#e)" stroke="#7450c8" stroke-linecap="round" stroke-linejoin="round"/><path d="m88.6666667 43-3.6666667 4h9.7777778c.6746666 0 1.2222222-.5973333 1.2222222-1.3333333v-2.6666667z" fill="#dfe4ee" mask="url(#e)"/><path d="m88.6666667 43-3.6666667 4h9.7777778c.6746666 0 1.2222222-.5973333 1.2222222-1.3333333v-2.6666667z" mask="url(#e)" stroke="#7450c8" stroke-linecap="round" stroke-linejoin="round"/><path d="m96 53h-16v-2.6666667c0-.736.5297778-1.3333333 1.1851852-1.3333333h13.6296296c.6542222 0 1.1851852.5973333 1.1851852 1.3333333z" fill="#fff" mask="url(#e)"/><path d="m96 53h-16v-2.6666667c0-.736.5297778-1.3333333 1.1851852-1.3333333h13.6296296c.6542222 0 1.1851852.5973333 1.1851852 1.3333333z" mask="url(#e)" stroke="#7450c8" stroke-linecap="round" stroke-linejoin="round"/><path d="m88.6666667 49-3.6666667 4h11v-2.6666667c0-.736-.5475556-1.3333333-1.2222222-1.3333333z" fill="#dfe4ee" mask="url(#e)"/><path d="m88.6666667 49-3.6666667 4h11v-2.6666667c0-.736-.5475556-1.3333333-1.2222222-1.3333333z" mask="url(#e)" stroke="#7450c8" stroke-linecap="round" stroke-linejoin="round"/><path d="m96 55.6666667c0 .736-.530963 1.3333333-1.1851852 1.3333333h-13.6296296c-.6554074 0-1.1851852-.5973333-1.1851852-1.3333333v-2.6666667h16z" fill="#fff" mask="url(#e)"/><path d="m96 55.6666667c0 .736-.530963 1.3333333-1.1851852 1.3333333h-13.6296296c-.6554074 0-1.1851852-.5973333-1.1851852-1.3333333v-2.6666667h16z" mask="url(#e)" stroke="#7450c8" stroke-linecap="round" stroke-linejoin="round"/><path d="m88.6666667 53-3.6666667 4h9.7777778c.6746666 0 1.2222222-.5973333 1.2222222-1.3333333v-2.6666667z" fill="#dfe4ee" mask="url(#e)"/><path d="m88.6666667 53-3.6666667 4h9.7777778c.6746666 0 1.2222222-.5973333 1.2222222-1.3333333v-2.6666667z" mask="url(#e)" stroke="#7450c8" stroke-linecap="round" stroke-linejoin="round"/><path d="m70 72h-16v-2.6666667c0-.736.5297778-1.3333333 1.1851852-1.3333333h13.6296296c.6542222 0 1.1851852.5973333 1.1851852 1.3333333z" fill="#fff" mask="url(#e)"/><path d="m70 72h-16v-2.6666667c0-.736.5297778-1.3333333 1.1851852-1.3333333h13.6296296c.6542222 0 1.1851852.5973333 1.1851852 1.3333333z" mask="url(#e)" stroke="#7450c8" stroke-linecap="round" stroke-linejoin="round"/><path d="m63.6666667 68-3.6666667 4h11v-2.6666667c0-.736-.5475556-1.3333333-1.2222222-1.3333333z" fill="#dfe4ee" mask="url(#e)"/><path d="m63.6666667 68-3.6666667 4h11v-2.6666667c0-.736-.5475556-1.3333333-1.2222222-1.3333333z" mask="url(#e)" stroke="#7450c8" stroke-linecap="round" stroke-linejoin="round"/><path d="m70 74.6666667c0 .736-.530963 1.3333333-1.1851852 1.3333333h-13.6296296c-.6554074 0-1.1851852-.5973333-1.1851852-1.3333333v-2.6666667h16z" fill="#fff" mask="url(#e)"/><path d="m70 74.6666667c0 .736-.530963 1.3333333-1.1851852 1.3333333h-13.6296296c-.6554074 0-1.1851852-.5973333-1.1851852-1.3333333v-2.6666667h16z" mask="url(#e)" stroke="#7450c8" stroke-linecap="round" stroke-linejoin="round"/><path d="m63.6666667 72-3.6666667 4h9.7777778c.6746666 0 1.2222222-.5973333 1.2222222-1.3333333v-2.6666667z" fill="#dfe4ee" mask="url(#e)"/><path d="m63.6666667 72-3.6666667 4h9.7777778c.6746666 0 1.2222222-.5973333 1.2222222-1.3333333v-2.6666667z" mask="url(#e)" stroke="#7450c8" stroke-linecap="round" stroke-linejoin="round"/><path d="m70 53h-16v-2.6666667c0-.736.5297778-1.3333333 1.1851852-1.3333333h13.6296296c.6542222 0 1.1851852.5973333 1.1851852 1.3333333z" fill="#fff" mask="url(#e)"/><path d="m70 53h-16v-2.6666667c0-.736.5297778-1.3333333 1.1851852-1.3333333h13.6296296c.6542222 0 1.1851852.5973333 1.1851852 1.3333333z" mask="url(#e)" stroke="#7450c8" stroke-linecap="round" stroke-linejoin="round"/><path d="m63.6666667 49-3.6666667 4h11v-2.6666667c0-.736-.5475556-1.3333333-1.2222222-1.3333333z" fill="#dfe4ee" mask="url(#e)"/><path d="m63.6666667 49-3.6666667 4h11v-2.6666667c0-.736-.5475556-1.3333333-1.2222222-1.3333333z" mask="url(#e)" stroke="#7450c8" stroke-linecap="round" stroke-linejoin="round"/><path d="m70 55.6666667c0 .736-.530963 1.3333333-1.1851852 1.3333333h-13.6296296c-.6554074 0-1.1851852-.5973333-1.1851852-1.3333333v-2.6666667h16z" fill="#fff" mask="url(#e)"/><path d="m70 55.6666667c0 .736-.530963 1.3333333-1.1851852 1.3333333h-13.6296296c-.6554074 0-1.1851852-.5973333-1.1851852-1.3333333v-2.6666667h16z" mask="url(#e)" stroke="#7450c8" stroke-linecap="round" stroke-linejoin="round"/><path d="m63.6666667 53-3.6666667 4h9.7777778c.6746666 0 1.2222222-.5973333 1.2222222-1.3333333v-2.6666667z" fill="#dfe4ee" mask="url(#e)"/><path d="m63.6666667 53-3.6666667 4h9.7777778c.6746666 0 1.2222222-.5973333 1.2222222-1.3333333v-2.6666667z" mask="url(#e)" stroke="#7450c8" stroke-linecap="round" stroke-linejoin="round"/><path d="m96 63h-16v-2.6666667c0-.736.5297778-1.3333333 1.1851852-1.3333333h13.6296296c.6542222 0 1.1851852.5973333 1.1851852 1.3333333z" fill="#fff" mask="url(#e)"/><path d="m96 63h-16v-2.6666667c0-.736.5297778-1.3333333 1.1851852-1.3333333h13.6296296c.6542222 0 1.1851852.5973333 1.1851852 1.3333333z" mask="url(#e)" stroke="#7450c8" stroke-linecap="round" stroke-linejoin="round"/><path d="m88.6666667 59-3.6666667 4h11v-2.6666667c0-.736-.5475556-1.3333333-1.2222222-1.3333333z" fill="#dfe4ee" mask="url(#e)"/><path d="m88.6666667 59-3.6666667 4h11v-2.6666667c0-.736-.5475556-1.3333333-1.2222222-1.3333333z" mask="url(#e)" stroke="#7450c8" stroke-linecap="round" stroke-linejoin="round"/><path d="m96 64.6666667c0 .736-.530963 1.3333333-1.1851852 1.3333333h-13.6296296c-.6554074 0-1.1851852-.5973333-1.1851852-1.3333333v-2.6666667h16z" fill="#fff" mask="url(#e)"/><path d="m96 64.6666667c0 .736-.530963 1.3333333-1.1851852 1.3333333h-13.6296296c-.6554074 0-1.1851852-.5973333-1.1851852-1.3333333v-2.6666667h16z" mask="url(#e)" stroke="#7450c8" stroke-linecap="round" stroke-linejoin="round"/><path d="m88.6666667 62-3.6666667 4h9.7777778c.6746666 0 1.2222222-.5973333 1.2222222-1.3333333v-2.6666667z" fill="#dfe4ee" mask="url(#e)"/><path d="m88.6666667 62-3.6666667 4h9.7777778c.6746666 0 1.2222222-.5973333 1.2222222-1.3333333v-2.6666667z" mask="url(#e)" stroke="#7450c8" stroke-linecap="round" stroke-linejoin="round"/><path d="m96 72h-16v-2.6666667c0-.736.5297778-1.3333333 1.1851852-1.3333333h13.6296296c.6542222 0 1.1851852.5973333 1.1851852 1.3333333z" fill="#fff" mask="url(#e)"/><path d="m96 72h-16v-2.6666667c0-.736.5297778-1.3333333 1.1851852-1.3333333h13.6296296c.6542222 0 1.1851852.5973333 1.1851852 1.3333333z" mask="url(#e)" stroke="#7450c8" stroke-linecap="round" stroke-linejoin="round"/><path d="m88.6666667 68-3.6666667 4h11v-2.6666667c0-.736-.5475556-1.3333333-1.2222222-1.3333333z" fill="#dfe4ee" mask="url(#e)"/><path d="m88.6666667 68-3.6666667 4h11v-2.6666667c0-.736-.5475556-1.3333333-1.2222222-1.3333333z" mask="url(#e)" stroke="#7450c8" stroke-linecap="round" stroke-linejoin="round"/><path d="m96 74.6666667c0 .736-.530963 1.3333333-1.1851852 1.3333333h-13.6296296c-.6554074 0-1.1851852-.5973333-1.1851852-1.3333333v-2.6666667h16z" fill="#fff" mask="url(#e)"/><path d="m96 74.6666667c0 .736-.530963 1.3333333-1.1851852 1.3333333h-13.6296296c-.6554074 0-1.1851852-.5973333-1.1851852-1.3333333v-2.6666667h16z" mask="url(#e)" stroke="#7450c8" stroke-linecap="round" stroke-linejoin="round"/><path d="m88.6666667 72-3.6666667 4h9.7777778c.6746666 0 1.2222222-.5973333 1.2222222-1.3333333v-2.6666667z" fill="#dfe4ee" mask="url(#e)"/><path d="m88.6666667 72-3.6666667 4h9.7777778c.6746666 0 1.2222222-.5973333 1.2222222-1.3333333v-2.6666667z" mask="url(#e)" stroke="#7450c8" stroke-linecap="round" stroke-linejoin="round"/><path d="m70 64.6666667c0 .736-.530963 1.3333333-1.1851852 1.3333333h-13.6296296c-.6554074 0-1.1851852-.5973333-1.1851852-1.3333333v-2.6666667h16z" fill="#fff" mask="url(#e)"/><path d="m70 64.6666667c0 .736-.530963 1.3333333-1.1851852 1.3333333h-13.6296296c-.6554074 0-1.1851852-.5973333-1.1851852-1.3333333v-2.6666667h16z" mask="url(#e)" stroke="#7450c8" stroke-linecap="round" stroke-linejoin="round"/><path d="m63.6666667 62-3.6666667 4h9.7777778c.6746666 0 1.2222222-.5973333 1.2222222-1.3333333v-2.6666667z" fill="#dfe4ee" mask="url(#e)"/><path d="m63.6666667 62-3.6666667 4h9.7777778c.6746666 0 1.2222222-.5973333 1.2222222-1.3333333v-2.6666667z" mask="url(#e)" stroke="#7450c8" stroke-linecap="round" stroke-linejoin="round"/><path d="m52 37h21v-2h-21z" fill="#fff" mask="url(#e)"/><path d="m52 37h21v-2h-21z" mask="url(#e)" stroke="#7450c8" stroke-linecap="round" stroke-linejoin="round"/><path d="m50 82h2v-46.8c0-.6624-.447-1.2-1-1.2-.552 0-1 .5376-1 1.2z" fill="#fff" mask="url(#e)"/><path d="m50 82h2v-46.8c0-.6624-.447-1.2-1-1.2-.552 0-1 .5376-1 1.2z" mask="url(#e)" stroke="#7450c8" stroke-linecap="round" stroke-linejoin="round"/><path d="m73 82h2v-46.8c0-.6624-.448-1.2-1-1.2-.553 0-1 .5376-1 1.2z" fill="#fff" mask="url(#e)"/><path d="m73 82h2v-46.8c0-.6624-.448-1.2-1-1.2-.553 0-1 .5376-1 1.2z" mask="url(#e)" stroke="#7450c8" stroke-linecap="round" stroke-linejoin="round"/><path d="m55 67c1.889611 0 3.4210526 1.5281736 3.4210526 3.4137522v24.5790155c0 2.7654361 2.2465904 5.0072323 5.0191305 5.0072323h4.5598169" mask="url(#e)" stroke="#7450c8" stroke-linecap="round" stroke-linejoin="round"/><path d="m69.4285714 101h3.5714286v-3h-3.5714286c-.7888198 0-1.4285714.6717391-1.4285714 1.5 0 .828261.6397516 1.5 1.4285714 1.5" fill="#dfe4ee" mask="url(#e)"/><path d="m69.4285714 101h3.5714286v-3h-3.5714286c-.7888198 0-1.4285714.6717391-1.4285714 1.5 0 .828261.6397516 1.5 1.4285714 1.5z" mask="url(#e)" stroke="#7450c8" stroke-linecap="round" stroke-linejoin="round"/><path d="m69 78v7.7992391c0 1.7671739 1.4706905 3.2007609 3.2863427 3.2007609h3.0665985c3.1193862 0 5.6470588 2.4618478 5.6470588 5.5 0 3.0369565-2.5276726 5.5-5.6470588 5.5h-2.8235294" mask="url(#e)" stroke="#7450c8" stroke-linecap="round" stroke-linejoin="round"/><path d="m65 78v7.7023913c0 1.8209783 1.4307246 3.2976087 3.1976812 3.2976087h6.8023188" mask="url(#e)" stroke="#7450c8" stroke-linecap="round" stroke-linejoin="round"/><path d="m24 103c0 1.104928 6.0433043 2 13.5 2 7.4555217 0 13.5-.895072 13.5-2s-6.0444783-2-13.5-2c-7.4566957 0-13.5.895072-13.5 2" fill="#f4f6fc" mask="url(#e)"/><path d="m34.6923077 29c-4.588495 0-8.3076923 3.6454037-8.3076923 8.1428571v1.0868945c-.7838127.161677-1.3846154.8107453-1.3846154 1.6273913 0 .8768323.6874916 1.5742857 1.5591973 1.662795.7826087 3.6996894 4.1261539 6.4800621 8.1331104 6.4800621 4.588495 0 8.3076923-3.6454037 8.3076923-8.1428571v-2.7142858c0-4.4974534-3.7191973-8.1428571-8.3076923-8.1428571" fill="#fff" mask="url(#e)"/><path d="m34.6923077 29c-4.588495 0-8.3076923 3.6454037-8.3076923 8.1428571v1.0868945c-.7838127.161677-1.3846154.8107453-1.3846154 1.6273913 0 .8768323.6874916 1.5742857 1.5591973 1.662795.7826087 3.6996894 4.1261539 6.4800621 8.1331104 6.4800621 4.588495 0 8.3076923-3.6454037 8.3076923-8.1428571v-2.7142858c0-4.4974534-3.7191973-8.1428571-8.3076923-8.1428571z" mask="url(#e)" stroke="#7450c8" stroke-linecap="round" stroke-linejoin="round"/><path d="m21 63.8378378c0-7.0904817 5.8199542-12.8378378 13-12.8378378 7.1788558 0 13 5.7473561 13 12.8378378v2.0270271h-3.4210526l-.0035698 10.1351351h-17.7859039l-.0047597-10.1351351h-4.784714z" fill="#fff" mask="url(#e)"/><path d="m21 63.8378378c0-7.0904817 5.8199542-12.8378378 13-12.8378378 7.1788558 0 13 5.7473561 13 12.8378378v2.0270271h-3.4210526l-.0035698 10.1351351h-17.7859039l-.0047597-10.1351351h-4.784714z" mask="url(#e)" stroke="#7450c8" stroke-linecap="round" stroke-linejoin="round"/><path d="m35 38c0 .5522042-.4475362 1-1.0005797 1-.5518841 0-.9994203-.4477958-.9994203-1s.4475362-1 .9994203-1c.5530435 0 1.0005797.4477958 1.0005797 1" fill="#7450c8" mask="url(#e)"/><path d="m38 38c0 .5522042.4475362 1 .9994203 1 .5530435 0 1.0005797-.4477958 1.0005797-1s-.4475362-1-1.0005797-1c-.5518841 0-.9994203.4477958-.9994203 1" fill="#7450c8" mask="url(#e)"/><path d="m32 40.9994203c0 .5530435-.4475362 1.0005797-.9994203 1.0005797-.551884 0-1.0005797-.4475362-1.0005797-1.0005797 0-.5518841.4486957-.9994203 1.0005797-.9994203.5518841 0 .9994203.4475362.9994203.9994203" fill="#dfe4ee" mask="url(#e)"/><path d="m34 43c1.2104348.696 2.7895652.696 4 0" mask="url(#e)" stroke="#7450c8" stroke-linecap="round" stroke-linejoin="round"/><path d="m44 35.1764706c0-5.0676215-4.0298328-9.1764706-9-9.1764706-4.9713712 0-9 4.1088491-9 9.1764706v2.8235294c2.4597993-.6764194 3.9274916-2.2158568 4.8461538-4.2352941 3.8781271 2.662711 9 2.117647 13.1538462 1.4117647" fill="#fff" mask="url(#e)"/><path d="m44 35.1764706c0-5.0676215-4.0298328-9.1764706-9-9.1764706-4.9713712 0-9 4.1088491-9 9.1764706v2.8235294c2.4597993-.6764194 3.9274916-2.2158568 4.8461538-4.2352941 3.8781271 2.662711 9 2.117647 13.1538462 1.4117647z" mask="url(#e)" stroke="#7450c8" stroke-linecap="round" stroke-linejoin="round"/><path d="m30 32s.3869565.6469565 1 1" mask="url(#e)" stroke="#7450c8" stroke-linecap="round" stroke-linejoin="round"/><path d="m21 79.6672464c0 1.2881159 1.1192547 2.3327536 2.4993789 2.3327536 1.3813664 0 2.5006211-1.0446377 2.5006211-2.3327536v-13.6672464h-5z" fill="#fff" mask="url(#e)"/><path d="m21 79.6672464c0 1.2881159 1.1192547 2.3327536 2.4993789 2.3327536 1.3813664 0 2.5006211-1.0446377 2.5006211-2.3327536v-13.6672464h-5z" mask="url(#e)" stroke="#7450c8" stroke-linecap="round" stroke-linejoin="round"/><path d="m26 66v-4" mask="url(#e)" stroke="#7450c8" stroke-linecap="round" stroke-linejoin="round"/><path d="m44 66v-4" mask="url(#e)" stroke="#7450c8" stroke-linecap="round" stroke-linejoin="round"/><path d="m31 51.2956522 3.5678392 4.7043478 3.4321608-4.3639752c-1.3103015-.4111801-2.7060302-.6360248-4.1545226-.6360248-.9761307 0-1.9271357.1043478-2.8454774.2956522" fill="#fff" mask="url(#e)"/><path d="m31 51.2956522 3.5678392 4.7043478 3.4321608-4.3639752c-1.3103015-.4111801-2.7060302-.6360248-4.1545226-.6360248-.9761307 0-1.9271357.1043478-2.8454774.2956522z" mask="url(#e)" stroke="#7450c8" stroke-linecap="round" stroke-linejoin="round"/><path d="m35 55.5279252 2.6185716.4549837c.8072381.1392018 1.5042857-.5928966 1.3631429-1.4319741l-.5992381-3.5509348z" fill="#dfe4ee" mask="url(#e)"/><path d="m35 55.5279252 2.6185716.4549837c.8072381.1392018 1.5042857-.5928966 1.3631429-1.4319741l-.5992381-3.5509348z" mask="url(#e)" stroke="#7450c8" stroke-linecap="round" stroke-linejoin="round"/><path d="m31.5350795 51-.5233982 3.6894466c-.1098039.7691355.5709798 1.4229006 1.3493669 1.2943108l2.6389518-.4326387z" fill="#dfe4ee" mask="url(#e)"/><path d="m31.5350795 51-.5233982 3.6894466c-.1098039.7691355.5709798 1.4229006 1.3493669 1.2943108l2.6389518-.4326387z" mask="url(#e)" stroke="#7450c8" stroke-linecap="round" stroke-linejoin="round"/><path d="m35 55v21" mask="url(#e)" stroke="#7450c8" stroke-linecap="round" stroke-linejoin="round"/><path d="m53.7901701 60h-13.5803402c-.6678261 0-1.2098299.5194203-1.2098299 1.1594203v7.6811594c0 .64.5420038 1.1594203 1.2098299 1.1594203h13.5803402c.6678261 0 1.2098299-.5194203 1.2098299-1.1594203v-7.6811594c0-.64-.5420038-1.1594203-1.2098299-1.1594203" fill="#fff" mask="url(#e)"/><path d="m53.7901701 60h-13.5803402c-.6678261 0-1.2098299.5194203-1.2098299 1.1594203v7.6811594c0 .64.5420038 1.1594203 1.2098299 1.1594203h13.5803402c.6678261 0 1.2098299-.5194203 1.2098299-1.1594203v-7.6811594c0-.64-.5420038-1.1594203-1.2098299-1.1594203z" mask="url(#e)" stroke="#7450c8" stroke-linecap="round" stroke-linejoin="round"/><path d="m48 66.5c0 .8282609-.6717391 1.5-1.5 1.5s-1.5-.6717391-1.5-1.5.6717391-1.5 1.5-1.5 1.5.6717391 1.5 1.5" fill="#dfe4ee" mask="url(#e)"/><path d="m48 66.5c0 .8282609-.6717391 1.5-1.5 1.5s-1.5-.6717391-1.5-1.5.6717391-1.5 1.5-1.5 1.5.6717391 1.5 1.5z" mask="url(#e)" stroke="#7450c8" stroke-linecap="round" stroke-linejoin="round"/><path d="m47 63.575.575-.575" mask="url(#e)" stroke="#7450c8" stroke-linecap="round" stroke-linejoin="round"/><path d="m47.6942814 73h-2.3885628c-.721896 0-1.3057186-.5613913-1.3057186-1.2532174v-.8984348c0-.4685217.394651-.8483478.8828006-.8483478h3.2343988c.4870624 0 .8828006.3798261.8828006.8483478v.8984348c0 .6918261-.5838226 1.2532174-1.3057186 1.2532174" fill="#fff" mask="url(#e)"/><path d="m47.6942814 73h-2.3885628c-.721896 0-1.3057186-.5613913-1.3057186-1.2532174v-.8984348c0-.4685217.394651-.8483478.8828006-.8483478h3.2343988c.4870624 0 .8828006.3798261.8828006.8483478v.8984348c0 .6918261-.5838226 1.2532174-1.3057186 1.2532174z" mask="url(#e)" stroke="#7450c8" stroke-linecap="round" stroke-linejoin="round"/><path d="m43.3076923 96.9178541c.2359866 0 .4671572.0199498.6923077.0575021v-20.9753562h-18v20.9178541h5.5384615c.2865552 0 .5670903.0281643.8367893.0821459l.4707693-12.9039396c.0433444-1.1289187.994515-2.023135 2.1539799-2.023135s2.1106355.8942163 2.1539799 2.023135l.6152509 12.8217937z" fill="#dfe4ee" mask="url(#e)"/><path d="m43.3076923 96.9178541c.2359866 0 .4671572.0199498.6923077.0575021v-20.9753562h-18v20.9178541h5.5384615c.2865552 0 .5670903.0281643.8367893.0821459l.4707693-12.9039396c.0433444-1.1289187.994515-2.023135 2.1539799-2.023135s2.1106355.8942163 2.1539799 2.023135l.6152509 12.8217937z" mask="url(#e)" stroke="#7450c8" stroke-linecap="round" stroke-linejoin="round"/><path d="m48 101c0-2.2086957-1.9192547-4-4.2857143-4h-5.7142857v2.6666667c0 .7362323.6397516 1.3333333 1.4285714 1.3333333z" fill="#fff" mask="url(#e)"/><path d="m48 101c0-2.2086957-1.9192547-4-4.2857143-4h-5.7142857v2.6666667c0 .7362323.6397516 1.3333333 1.4285714 1.3333333z" mask="url(#e)" stroke="#7450c8" stroke-linecap="round" stroke-linejoin="round"/><path d="m36 101c0-2.2086957-1.9180124-4-4.2857143-4h-5.7142857v2.6666667c0 .7362323.6397516 1.3333333 1.4285714 1.3333333z" fill="#fff" mask="url(#e)"/><path d="m36 101c0-2.2086957-1.9180124-4-4.2857143-4h-5.7142857v2.6666667c0 .7362323.6397516 1.3333333 1.4285714 1.3333333z" mask="url(#e)" stroke="#7450c8" stroke-linecap="round" stroke-linejoin="round"/></g><g fill="#f86b67" font-family="Roboto-Bold, Roboto" font-size="14" font-weight="bold" transform="translate(286)"><text><tspan x=".46582" y="39">Data Request</tspan></text><text><tspan x="9.660156" y="13">1. Sends a</tspan></text></g><g fill="#7450c8" font-family="Roboto-Bold, Roboto" font-size="14" font-weight="bold" transform="translate(768)"><text><tspan x="10.160156" y="13">3. Sends a</tspan></text><text><tspan x=".46582" y="43">Data Request</tspan></text></g><text fill="#7450c8" font-family="Roboto-Bold, Roboto" font-size="14" font-weight="bold"><tspan x="517.676758" y="32">2. Collects data from </tspan><tspan x="534.828125" y="58">internal system</tspan></text><text fill="#7450c8" font-family="Roboto-Bold, Roboto" font-size="14" font-weight="bold"><tspan x="749.788574" y="329">4. Sends the data </tspan><tspan x="791.002441" y="355">files</tspan></text><g fill="#1ddcc0" font-family="Roboto-Bold, Roboto" font-size="14" font-weight="bold" transform="translate(263 315)"><text><tspan x=".047852" y="13">5. Sends the data files</tspan></text><text><tspan x="19.803711" y="42">Request solved!</tspan></text></g><g stroke="#7450c8" stroke-width="2"><path d="m482.814453 95c1.739483 17.179685 5.537718 13.387681-11.814453 10.939453"/><path d="m160.939453 136c83.373698-83.7261905 189.060547-95.3928571 317.060547-35" stroke-dasharray="3"/><path d="m688 103c82.177083-49.3684048 166.510417-50.0350714 253-2" stroke-dasharray="3"/><path d="m941.982422 94.0214844c2.893854 16.9457416 6.014665 12.4520556-13.193359 9.7636716"/><path d="m944.5 236c-67 79.885417-168.5 87.856771-304.5 23.914062" stroke-dasharray="3"/><path d="m633.421875 267.552734c.663794-17.805613-3.863463-13.484652 14.566406-11.845703"/><path d="m512 247.15625c-166.110326 81.304687-285.649388 65.438151-358.617188-47.599609" stroke-dasharray="3"/><path d="m162.578125 199.710938c-17.683886-6.368597-12.968857-10.084773-17.345703 4.847656"/></g></g></g></svg>