<?xml version="1.0" encoding="UTF-8"?>
<svg width="168px" height="126px" viewBox="0 0 168 126" version="1.1" xmlns="http://www.w3.org/2000/svg" xmlns:xlink="http://www.w3.org/1999/xlink">
    <!-- Generator: Sketch 52.6 (67491) - http://www.bohemiancoding.com/sketch -->
    <title>Illustration</title>
    <desc>Created with Sketch.</desc>
    <g id="15--Landing-page" stroke="none" stroke-width="1" fill="none" fill-rule="evenodd">
        <g id="3--GDPR-&amp;-Privacy" transform="translate(-637.000000, -2338.000000)">
            <g id="who-is-it-for" transform="translate(0.000000, 1986.000000)">
                <g id="Group-10" transform="translate(204.000000, 352.000000)">
                    <g id="Illustration" transform="translate(434.000000, 0.000000)">
                        <g id="stamp-document">
                            <path d="M160.420168,76.9572585 C160.420168,34.4556886 126.069502,0 83.697479,0 C41.3254559,0 6.97478992,34.4556886 6.97478992,76.9572585 C6.97478992,88.2815191 9.4337521,99.0228285 13.8107815,108.702128 L153.584176,108.702128 C157.961206,99.0228285 160.420168,88.2815191 160.420168,76.9572585" id="Fill-1" fill="#F4F6FC"></path>
                            <path d="M0,108.702128 L4.18487395,108.702128" id="Stroke-5" stroke="#7450C8" stroke-linecap="round" stroke-linejoin="round"></path>
                            <path d="M161.815126,108.702128 L166,108.702128" id="Stroke-7" stroke="#7450C8" stroke-linecap="round" stroke-linejoin="round"></path>
                            <path d="M8.3697479,108.702128 L157.630252,108.702128" id="Stroke-3" stroke="#7450C8" stroke-linecap="round" stroke-linejoin="round"></path>
                        </g>
                        <g id="Group" transform="translate(21.000000, 44.000000)">
                            <path d="M120,81 L81,81 L81,1.875 C81,0.84 81.8545588,0 82.9117647,0 L118.088235,0 C119.143529,0 120,0.84 120,1.875 L120,81 Z" id="Fill-9" fill="#FFFFFF"></path>
                            <path d="M120,81 L81,81 L81,1.875 C81,0.84 81.8545588,0 82.9117647,0 L118.088235,0 C119.143529,0 120,0.84 120,1.875 L120,81 Z" id="Stroke-11" stroke="#7450C8" stroke-linecap="round" stroke-linejoin="round"></path>
                            <polygon id="Fill-13" fill="#FFFFFF" points="7 26 82 26 82 21 7 21"></polygon>
                            <polygon id="Stroke-15" stroke="#7450C8" stroke-linecap="round" stroke-linejoin="round" points="7 26 82 26 82 21 7 21"></polygon>
                            <polygon id="Fill-16" fill="#FFFFFF" points="7 39 82 39 82 34 7 34"></polygon>
                            <polygon id="Stroke-17" stroke="#7450C8" stroke-linecap="round" stroke-linejoin="round" points="7 39 82 39 82 34 7 34"></polygon>
                            <polygon id="Fill-18" fill="#DFE4EE" points="60.4090909 38 28.5909091 38 7 38 7 81 28.5909091 81 60.4090909 81 82 81 82 38"></polygon>
                            <polygon id="Fill-19" fill="#FFFFFF" points="66 38 7 38 7 81 23.4949444 81"></polygon>
                            <path d="M21.6363636,76 L13.3636364,76 C12.0577273,76 11,77.1208333 11,78.5 C11,79.88125 12.0577273,81 13.3636364,81 L21.6363636,81 C22.9422727,81 24,79.88125 24,78.5 C24,77.1208333 22.9422727,76 21.6363636,76" id="Fill-20" fill="#DFE4EE"></path>
                            <path d="M21.6363636,76 L13.3636364,76 C12.0577273,76 11,77.1208333 11,78.5 C11,79.88125 12.0577273,81 13.3636364,81 L21.6363636,81 C22.9422727,81 24,79.88125 24,78.5 C24,77.1208333 22.9422727,76 21.6363636,76 Z" id="Stroke-21" stroke="#7450C8" stroke-linecap="round" stroke-linejoin="round"></path>
                            <path d="M11,79 L11,67.9358257 C11,66.9719014 11.3978788,66.0422669 12.1030303,65.360281 L14.5454545,63 L20.4545455,63 L22.8969697,65.360281 C23.6021212,66.0422669 24,66.9719014 24,67.9358257 L24,79" id="Stroke-22" stroke="#7450C8" stroke-linecap="round" stroke-linejoin="round"></path>
                            <path d="M21,63 L15,63 L15,60.0833333 C15,58.93125 15.896,58 17,58 L19,58 C20.106,58 21,58.93125 21,60.0833333 L21,63 Z" id="Fill-23" fill="#DFE4EE"></path>
                            <path d="M21,63 L15,63 L15,60.0833333 C15,58.93125 15.896,58 17,58 L19,58 C20.106,58 21,58.93125 21,60.0833333 L21,63 Z" id="Stroke-24" stroke="#7450C8" stroke-linecap="round" stroke-linejoin="round"></path>
                            <path d="M48,78.5 C48,77.1208333 46.9422727,76 45.6363636,76 L37.3636364,76 C36.0577273,76 35,77.1208333 35,78.5 C35,79.88125 36.0577273,81 37.3636364,81 L45.6363636,81 C46.9422727,81 48,79.88125 48,78.5" id="Fill-25" fill="#DFE4EE"></path>
                            <path d="M48,78.5 C48,77.1208333 46.9422727,76 45.6363636,76 L37.3636364,76 C36.0577273,76 35,77.1208333 35,78.5 C35,79.88125 36.0577273,81 37.3636364,81 L45.6363636,81 C46.9422727,81 48,79.88125 48,78.5 Z" id="Stroke-26" stroke="#7450C8" stroke-linecap="round" stroke-linejoin="round"></path>
                            <path d="M35,79 L35,67.9358257 C35,66.9719014 35.3978788,66.0422669 36.105,65.360281 L38.5454545,63 L44.4545455,63 L46.8969697,65.360281 C47.6021212,66.0422669 48,66.9719014 48,67.9358257 L48,79" id="Stroke-27" stroke="#7450C8" stroke-linecap="round" stroke-linejoin="round"></path>
                            <path d="M45,63 L39,63 L39,60.0833333 C39,58.93125 39.894,58 41,58 L43,58 C44.104,58 45,58.93125 45,60.0833333 L45,63 Z" id="Fill-28" fill="#DFE4EE"></path>
                            <path d="M45,63 L39,63 L39,60.0833333 C39,58.93125 39.894,58 41,58 L43,58 C44.104,58 45,58.93125 45,60.0833333 L45,63 Z" id="Stroke-29" stroke="#7450C8" stroke-linecap="round" stroke-linejoin="round"></path>
                            <path d="M73,78.5 C73,77.1208333 71.9422727,76 70.6363636,76 L62.3636364,76 C61.059697,76 60,77.1208333 60,78.5 C60,79.88125 61.059697,81 62.3636364,81 L70.6363636,81 C71.9422727,81 73,79.88125 73,78.5" id="Fill-30" fill="#DFE4EE"></path>
                            <path d="M73,78.5 C73,77.1208333 71.9422727,76 70.6363636,76 L62.3636364,76 C61.059697,76 60,77.1208333 60,78.5 C60,79.88125 61.059697,81 62.3636364,81 L70.6363636,81 C71.9422727,81 73,79.88125 73,78.5 Z" id="Stroke-31" stroke="#7450C8" stroke-linecap="round" stroke-linejoin="round"></path>
                            <path d="M60,79 L60,67.9358257 C60,66.9719014 60.3978788,66.0422669 61.105,65.360281 L63.5454545,63 L69.4545455,63 L71.8969697,65.360281 C72.6021212,66.0422669 73,66.9719014 73,67.9358257 L73,79" id="Stroke-32" stroke="#7450C8" stroke-linecap="round" stroke-linejoin="round"></path>
                            <path d="M70,63 L64,63 L64,60.0833333 C64,58.93125 64.896,58 66,58 L68,58 C69.104,58 70,58.93125 70,60.0833333 L70,63 Z" id="Fill-33" fill="#DFE4EE"></path>
                            <path d="M70,63 L64,63 L64,60.0833333 C64,58.93125 64.896,58 66,58 L68,58 C69.104,58 70,58.93125 70,60.0833333 L70,63 Z" id="Stroke-34" stroke="#7450C8" stroke-linecap="round" stroke-linejoin="round"></path>
                            <polygon id="Stroke-35" stroke="#7450C8" stroke-linecap="round" stroke-linejoin="round" points="60.4090909 38 28.5909091 38 7 38 7 81 28.5909091 81 60.4090909 81 82 81 82 38"></polygon>
                            <path d="M124,81 L76,81 L76,48.8888889 C76,47.8443333 76.8533333,47 77.9047619,47 L122.095238,47 C123.146667,47 124,47.8443333 124,48.8888889 L124,81 Z" id="Fill-36" fill="#FFFFFF"></path>
                            <path d="M124,81 L76,81 L76,48.8888889 C76,47.8443333 76.8533333,47 77.9047619,47 L122.095238,47 C123.146667,47 124,47.8443333 124,48.8888889 L124,81 Z" id="Stroke-37" stroke="#7450C8" stroke-linecap="round" stroke-linejoin="round"></path>
                            <path d="M0,81 L7,81 L7,18.871345 C7,17.8383626 6.12888889,17 5.05555556,17 L1.94444444,17 C0.871111111,17 0,17.8383626 0,18.871345 L0,81 Z" id="Fill-38" fill="#FFFFFF"></path>
                            <path d="M0,81 L7,81 L7,18.871345 C7,17.8383626 6.12888889,17 5.05555556,17 L1.94444444,17 C0.871111111,17 0,17.8383626 0,18.871345 L0,81 Z" id="Stroke-39" stroke="#7450C8" stroke-linecap="round" stroke-linejoin="round"></path>
                            <polygon id="Fill-40" fill="#DFE4EE" points="7 34 82 34 82 26 7 26"></polygon>
                            <polygon id="Stroke-41" stroke="#7450C8" stroke-linecap="round" stroke-linejoin="round" points="7 34 82 34 82 26 7 26"></polygon>
                            <polygon id="Fill-42" fill="#DFE4EE" points="83 81 117 81 117 55 83 55"></polygon>
                            <polygon id="Fill-43" fill="#FFFFFF" points="99 56 84 56 84 71"></polygon>
                            <polygon id="Stroke-44" stroke="#7450C8" stroke-linecap="round" stroke-linejoin="round" points="83 81 117 81 117 55 83 55"></polygon>
                            <polygon id="Stroke-45" stroke="#7450C8" stroke-linecap="round" stroke-linejoin="round" points="93 81 100 81 100 65 93 65"></polygon>
                            <polygon id="Fill-46" fill="#DFE4EE" points="100 81 107 81 107 65 100 65"></polygon>
                            <polygon id="Fill-47" fill="#DFE4EE" points="100 81 107 81 107 65 100 65"></polygon>
                            <polygon id="Stroke-48" stroke="#7450C8" stroke-linecap="round" stroke-linejoin="round" points="100 81 107 81 107 65 100 65"></polygon>
                            <path d="M114,20.4990624 C114,27.9564553 107.955,34 100.5,34 C93.043125,34 87,27.9564553 87,20.4990624 C87,13.0416696 93.043125,7 100.5,7 C107.955,7 114,13.0416696 114,20.4990624" id="Fill-49" fill="#FFFFFF"></path>
                            <path d="M114,20.4990624 C114,27.9564553 107.955,34 100.5,34 C93.043125,34 87,27.9564553 87,20.4990624 C87,13.0416696 93.043125,7 100.5,7 C107.955,7 114,13.0416696 114,20.4990624 Z" id="Stroke-50" stroke="#7450C8" stroke-linecap="round" stroke-linejoin="round"></path>
                            <path d="M99.656182,27.9929256 L97.9948846,29.656182 C97.5345015,30.114606 96.7920113,30.114606 96.3316282,29.656182 L91.343818,24.6703309 C90.885394,24.2099478 90.885394,23.4654985 91.343818,23.0070744 L93.0070744,21.343818 C93.4654985,20.885394 94.2099478,20.885394 94.6703309,21.343818 L99.656182,26.3296691 C100.114606,26.7900522 100.114606,27.5345015 99.656182,27.9929256" id="Fill-51" fill="#DFE4EE"></path>
                            <path d="M99.656182,27.9929256 L97.9948846,29.656182 C97.5345015,30.114606 96.7920113,30.114606 96.3316282,29.656182 L91.343818,24.6703309 C90.885394,24.2099478 90.885394,23.4654985 91.343818,23.0070744 L93.0070744,21.343818 C93.4654985,20.885394 94.2099478,20.885394 94.6703309,21.343818 L99.656182,26.3296691 C100.114606,26.7900522 100.114606,27.5345015 99.656182,27.9929256 Z" id="Stroke-52" stroke="#7450C8" stroke-linecap="round" stroke-linejoin="round"></path>
                            <path d="M109.656182,17.9930348 L107.992926,19.6562007 C107.534502,20.1145998 106.790052,20.1145998 106.331628,19.6562007 L101.343818,14.6686619 C100.885394,14.2083039 100.885394,13.4638951 101.343818,13.005496 L103.007074,11.3423301 C103.465498,10.88589 104.209948,10.88589 104.670331,11.3423301 L109.656182,16.3298689 C110.114606,16.7902269 110.114606,17.5346357 109.656182,17.9930348" id="Fill-53" fill="#DFE4EE"></path>
                            <path d="M109.656182,17.9930348 L107.992926,19.6562007 C107.534502,20.1145998 106.790052,20.1145998 106.331628,19.6562007 L101.343818,14.6686619 C100.885394,14.2083039 100.885394,13.4638951 101.343818,13.005496 L103.007074,11.3423301 C103.465498,10.88589 104.209948,10.88589 104.670331,11.3423301 L109.656182,16.3298689 C110.114606,16.7902269 110.114606,17.5346357 109.656182,17.9930348 Z" id="Stroke-54" stroke="#7450C8" stroke-linecap="round" stroke-linejoin="round"></path>
                            <polygon id="Fill-55" fill="#DFE4EE" points="98.9994108 25 96 22 101.998822 16 105 18.9982322"></polygon>
                            <polygon id="Stroke-56" stroke="#7450C8" stroke-linecap="round" stroke-linejoin="round" points="98.9994108 25 96 22 101.998822 16 105 18.9982322"></polygon>
                            <path d="M93,65 L93,55" id="Stroke-57" stroke="#7450C8" stroke-linecap="round" stroke-linejoin="round"></path>
                            <path d="M107,65 L107,55" id="Stroke-58" stroke="#7450C8" stroke-linecap="round" stroke-linejoin="round"></path>
                            <path d="M107,73 L117,73" id="Stroke-59" stroke="#7450C8" stroke-linecap="round" stroke-linejoin="round"></path>
                            <path d="M94,73 L84,73" id="Stroke-60" stroke="#7450C8" stroke-linecap="round" stroke-linejoin="round"></path>
                            <path d="M29,38 L29,81" id="Stroke-61" stroke="#7450C8" stroke-linecap="round" stroke-linejoin="round"></path>
                            <path d="M59,38 L59,81" id="Stroke-62" stroke="#7450C8" stroke-linecap="round" stroke-linejoin="round"></path>
                            <path d="M7,48 L78,48" id="Stroke-63" stroke="#7450C8" stroke-linecap="round" stroke-linejoin="round"></path>
                            <path d="M7,71 L78,71" id="Stroke-64" stroke="#7450C8" stroke-linecap="round" stroke-linejoin="round"></path>
                        </g>
                    </g>
                </g>
            </g>
        </g>
    </g>
</svg>