<?xml version="1.0" encoding="UTF-8"?>
<svg width="27px" height="27px" viewBox="0 0 27 27" version="1.1" xmlns="http://www.w3.org/2000/svg" xmlns:xlink="http://www.w3.org/1999/xlink">
    <!-- Generator: Sketch 52.6 (67491) - http://www.bohemiancoding.com/sketch -->
    <title>window</title>
    <desc>Created with Sketch.</desc>
    <g id="15--Landing-page" stroke="none" stroke-width="1" fill="none" fill-rule="evenodd">
        <g id="3--GDPR-&amp;-Privacy" transform="translate(-1093.000000, -3997.000000)" fill="#7450C8" fill-rule="nonzero">
            <g id="who-is-it-for" transform="translate(0.000000, 3423.000000)">
                <g id="Fixed-features" transform="translate(181.000000, 568.000000)">
                    <g id="window" transform="translate(912.000000, 6.000000)">
                        <path d="M11.0454545,4.90909091 C10.3676505,4.90909091 9.81818182,5.45855963 9.81818182,6.13636364 C9.81818182,6.81416765 10.3676505,7.36363636 11.0454545,7.36363636 C11.7232586,7.36363636 12.2727273,6.81416765 12.2727273,6.13636364 C12.2727273,5.45855963 11.7232586,4.90909091 11.0454545,4.90909091 Z M6.13636364,4.90909091 C5.45855963,4.90909091 4.90909091,5.45855963 4.90909091,6.13636364 C4.90909091,6.81416765 5.45855963,7.36363636 6.13636364,7.36363636 C6.81416765,7.36363636 7.36363636,6.81416765 7.36363636,6.13636364 C7.36363636,5.45855963 6.81416765,4.90909091 6.13636364,4.90909091 Z M15.9545455,4.90909091 C15.2767414,4.90909091 14.7272727,5.45855963 14.7272727,6.13636364 C14.7272727,6.81416765 15.2767414,7.36363636 15.9545455,7.36363636 C16.6323495,7.36363636 17.1818182,6.81416765 17.1818182,6.13636364 C17.1818182,5.45855963 16.6323495,4.90909091 15.9545455,4.90909091 Z M23.3181818,2.72509288e-16 L3.68181818,2.72509288e-16 C1.64840615,-2.72509288e-16 2.72509288e-16,1.64840615 0,3.68181818 L0,23.3181818 C2.72509288e-16,25.3515939 1.64840615,27 3.68181818,27 L23.3181818,27 C25.3515939,27 27,25.3515939 27,23.3181818 L27,3.68181818 C27,1.64840615 25.3515939,2.72509288e-16 23.3181818,2.72509288e-16 Z M24.5454545,23.3181818 C24.5454545,23.9959858 23.9959858,24.5454545 23.3181818,24.5454545 L3.68181818,24.5454545 C3.00401417,24.5454545 2.45454545,23.9959858 2.45454545,23.3181818 L2.45454545,12.2727273 L24.5454545,12.2727273 L24.5454545,23.3181818 Z M24.5454545,9.81818182 L2.45454545,9.81818182 L2.45454545,3.68181818 C2.45454545,3.00401417 3.00401417,2.45454545 3.68181818,2.45454545 L23.3181818,2.45454545 C23.9959858,2.45454545 24.5454545,3.00401417 24.5454545,3.68181818 L24.5454545,9.81818182 Z" id="Shape"></path>
                    </g>
                </g>
            </g>
        </g>
    </g>
</svg>