<svg width="491" height="338" viewBox="0 0 491 338" fill="none" xmlns="http://www.w3.org/2000/svg">
<g filter="url(#filter0_d)">
<rect x="20" y="16" width="451" height="298" rx="5" fill="white"/>
<rect x="20.5" y="16.5" width="450" height="297" rx="4.5" stroke="#EEEDED"/>
</g>
<path fill-rule="evenodd" clip-rule="evenodd" d="M425.969 295.298H303.656V44.5822C303.656 41.3027 306.336 38.6411 309.652 38.6411H419.973C423.283 38.6411 425.969 41.3027 425.969 44.5822V295.298Z" fill="white"/>
<path fill-rule="evenodd" clip-rule="evenodd" d="M425.969 295.298H303.656V44.5822C303.656 41.3027 306.336 38.6411 309.652 38.6411H419.973C423.283 38.6411 425.969 41.3027 425.969 44.5822V295.298Z" stroke="#7450C8" stroke-linecap="round" stroke-linejoin="round"/>
<path fill-rule="evenodd" clip-rule="evenodd" d="M69.0564 118.846H303.656V104.811H69.0564V118.846Z" fill="white"/>
<path fill-rule="evenodd" clip-rule="evenodd" d="M69.0564 118.846H303.656V104.811H69.0564V118.846Z" stroke="#7450C8" stroke-linecap="round" stroke-linejoin="round"/>
<path fill-rule="evenodd" clip-rule="evenodd" d="M69.0564 160.954H303.656V146.918H69.0564V160.954Z" fill="white"/>
<path fill-rule="evenodd" clip-rule="evenodd" d="M69.0564 160.954H303.656V146.918H69.0564V160.954Z" stroke="#7450C8" stroke-linecap="round" stroke-linejoin="round"/>
<path fill-rule="evenodd" clip-rule="evenodd" d="M236.12 160.954H136.593H69.0564V295.298H136.593H236.12H303.656V160.954H236.12Z" fill="#DFE4EE"/>
<path fill-rule="evenodd" clip-rule="evenodd" d="M257.538 160.954H69.0564V295.298H121.751L257.538 160.954Z" fill="white"/>
<path fill-rule="evenodd" clip-rule="evenodd" d="M114.263 281.262H90.0191C86.1921 281.262 83.0923 284.408 83.0923 288.28C83.0923 292.157 86.1921 295.298 90.0191 295.298H114.263C118.09 295.298 121.19 292.157 121.19 288.28C121.19 284.408 118.09 281.262 114.263 281.262Z" fill="#DFE4EE"/>
<path fill-rule="evenodd" clip-rule="evenodd" d="M114.263 281.262H90.0191C86.1921 281.262 83.0923 284.408 83.0923 288.28C83.0923 292.157 86.1921 295.298 90.0191 295.298H114.263C118.09 295.298 121.19 292.157 121.19 288.28C121.19 284.408 118.09 281.262 114.263 281.262Z" stroke="#7450C8" stroke-linecap="round" stroke-linejoin="round"/>
<path d="M83.0923 287.277V252.613C83.0923 249.593 84.2583 246.68 86.3248 244.544L93.4825 237.149H110.8L117.957 244.544C120.024 246.68 121.19 249.593 121.19 252.613V287.277" stroke="#7450C8" stroke-linecap="round" stroke-linejoin="round"/>
<path fill-rule="evenodd" clip-rule="evenodd" d="M111.164 237.149H93.1179V228.961C93.1179 225.727 95.8128 223.113 99.1333 223.113H105.149C108.475 223.113 111.164 225.727 111.164 228.961V237.149Z" fill="#DFE4EE"/>
<path fill-rule="evenodd" clip-rule="evenodd" d="M111.164 237.149H93.1179V228.961C93.1179 225.727 95.8128 223.113 99.1333 223.113H105.149C108.475 223.113 111.164 225.727 111.164 228.961V237.149Z" stroke="#7450C8" stroke-linecap="round" stroke-linejoin="round"/>
<path fill-rule="evenodd" clip-rule="evenodd" d="M199.39 288.28C199.39 284.408 196.29 281.262 192.463 281.262H168.219C164.392 281.262 161.292 284.408 161.292 288.28C161.292 292.157 164.392 295.298 168.219 295.298H192.463C196.29 295.298 199.39 292.157 199.39 288.28Z" fill="#DFE4EE"/>
<path fill-rule="evenodd" clip-rule="evenodd" d="M199.39 288.28C199.39 284.408 196.29 281.262 192.463 281.262H168.219C164.392 281.262 161.292 284.408 161.292 288.28C161.292 292.157 164.392 295.298 168.219 295.298H192.463C196.29 295.298 199.39 292.157 199.39 288.28Z" stroke="#7450C8" stroke-linecap="round" stroke-linejoin="round"/>
<path d="M161.292 287.277V252.613C161.292 249.593 162.458 246.68 164.531 244.544L171.683 237.149H189L196.157 244.544C198.224 246.68 199.39 249.593 199.39 252.613V287.277" stroke="#7450C8" stroke-linecap="round" stroke-linejoin="round"/>
<path fill-rule="evenodd" clip-rule="evenodd" d="M189.364 237.149H171.318V228.961C171.318 225.727 174.007 223.113 177.333 223.113H183.349C186.669 223.113 189.364 225.727 189.364 228.961V237.149Z" fill="#DFE4EE"/>
<path fill-rule="evenodd" clip-rule="evenodd" d="M189.364 237.149H171.318V228.961C171.318 225.727 174.007 223.113 177.333 223.113H183.349C186.669 223.113 189.364 225.727 189.364 228.961V237.149Z" stroke="#7450C8" stroke-linecap="round" stroke-linejoin="round"/>
<path fill-rule="evenodd" clip-rule="evenodd" d="M273.579 288.28C273.579 284.408 270.48 281.262 266.653 281.262H242.409C238.588 281.262 235.482 284.408 235.482 288.28C235.482 292.157 238.588 295.298 242.409 295.298H266.653C270.48 295.298 273.579 292.157 273.579 288.28Z" fill="#DFE4EE"/>
<path fill-rule="evenodd" clip-rule="evenodd" d="M273.579 288.28C273.579 284.408 270.48 281.262 266.653 281.262H242.409C238.588 281.262 235.482 284.408 235.482 288.28C235.482 292.157 238.588 295.298 242.409 295.298H266.653C270.48 295.298 273.579 292.157 273.579 288.28Z" stroke="#7450C8" stroke-linecap="round" stroke-linejoin="round"/>
<path d="M235.482 287.277V252.613C235.482 249.593 236.648 246.68 238.72 244.544L245.872 237.149H263.189L270.347 244.544C272.413 246.68 273.579 249.593 273.579 252.613V287.277" stroke="#7450C8" stroke-linecap="round" stroke-linejoin="round"/>
<path fill-rule="evenodd" clip-rule="evenodd" d="M263.554 237.149H245.508V228.961C245.508 225.727 248.203 223.113 251.523 223.113H257.538C260.859 223.113 263.554 225.727 263.554 228.961V237.149Z" fill="#DFE4EE"/>
<path fill-rule="evenodd" clip-rule="evenodd" d="M263.554 237.149H245.508V228.961C245.508 225.727 248.203 223.113 251.523 223.113H257.538C260.859 223.113 263.554 225.727 263.554 228.961V237.149Z" stroke="#7450C8" stroke-linecap="round" stroke-linejoin="round"/>
<path fill-rule="evenodd" clip-rule="evenodd" d="M236.12 160.954H136.593H69.0564V295.298H136.593H236.12H303.656V160.954H236.12Z" stroke="#7450C8" stroke-linecap="round" stroke-linejoin="round"/>
<path fill-rule="evenodd" clip-rule="evenodd" d="M438 295.298H287.615V194.93C287.615 191.665 290.289 189.026 293.583 189.026H432.032C435.326 189.026 438 191.665 438 194.93V295.298Z" fill="white"/>
<path fill-rule="evenodd" clip-rule="evenodd" d="M438 295.298H287.615V194.93C287.615 191.665 290.289 189.026 293.583 189.026H432.032C435.326 189.026 438 191.665 438 194.93V295.298Z" stroke="#7450C8" stroke-linecap="round" stroke-linejoin="round"/>
<path fill-rule="evenodd" clip-rule="evenodd" d="M47 295.298H69.0564V98.7014C69.0564 95.4327 66.3116 92.7798 62.9296 92.7798H53.1268C49.7448 92.7798 47 95.4327 47 98.7014V295.298Z" fill="white"/>
<path fill-rule="evenodd" clip-rule="evenodd" d="M47 295.298H69.0564V98.7014C69.0564 95.4327 66.3116 92.7798 62.9296 92.7798H53.1268C49.7448 92.7798 47 95.4327 47 98.7014V295.298Z" stroke="#7450C8" stroke-linecap="round" stroke-linejoin="round"/>
<path fill-rule="evenodd" clip-rule="evenodd" d="M69.0564 144.913H303.656V118.846H69.0564V144.913Z" fill="#DFE4EE"/>
<path fill-rule="evenodd" clip-rule="evenodd" d="M69.0564 144.913H303.656V118.846H69.0564V144.913Z" stroke="#7450C8" stroke-linecap="round" stroke-linejoin="round"/>
<path fill-rule="evenodd" clip-rule="evenodd" d="M309.672 295.298H415.944V213.087H309.672V295.298Z" fill="#DFE4EE"/>
<path fill-rule="evenodd" clip-rule="evenodd" d="M355.79 213.087H309.672V259.205L355.79 213.087Z" fill="white"/>
<path fill-rule="evenodd" clip-rule="evenodd" d="M309.672 295.298H415.944V213.087H309.672V295.298Z" stroke="#7450C8" stroke-linecap="round" stroke-linejoin="round"/>
<path fill-rule="evenodd" clip-rule="evenodd" d="M341.754 295.298H363.81V245.169H341.754V295.298Z" stroke="#7450C8" stroke-linecap="round" stroke-linejoin="round"/>
<path fill-rule="evenodd" clip-rule="evenodd" d="M363.81 295.298H385.867V245.169H363.81V295.298Z" fill="#D6DAFF"/>
<path fill-rule="evenodd" clip-rule="evenodd" d="M363.81 295.298H385.867V245.169H363.81V295.298Z" fill="#DFE4EE"/>
<path fill-rule="evenodd" clip-rule="evenodd" d="M363.81 295.298H385.867V245.169H363.81V295.298Z" stroke="#7450C8" stroke-linecap="round" stroke-linejoin="round"/>
<path fill-rule="evenodd" clip-rule="evenodd" d="M405.918 103.805C405.918 127.619 386.614 146.918 362.808 146.918C338.995 146.918 319.697 127.619 319.697 103.805C319.697 79.9904 338.995 60.6973 362.808 60.6973C386.614 60.6973 405.918 79.9904 405.918 103.805Z" fill="white"/>
<path fill-rule="evenodd" clip-rule="evenodd" d="M405.918 103.805C405.918 127.619 386.614 146.918 362.808 146.918C338.995 146.918 319.697 127.619 319.697 103.805C319.697 79.9904 338.995 60.6973 362.808 60.6973C386.614 60.6973 405.918 79.9904 405.918 103.805Z" stroke="#7450C8" stroke-linecap="round" stroke-linejoin="round"/>
<path fill-rule="evenodd" clip-rule="evenodd" d="M362.738 126.622L357.556 131.81C356.12 133.24 353.804 133.24 352.368 131.81L336.811 116.259C335.381 114.823 335.381 112.501 336.811 111.071L341.999 105.883C343.429 104.453 345.751 104.453 347.186 105.883L362.738 121.434C364.168 122.87 364.168 125.192 362.738 126.622Z" fill="#DFE4EE"/>
<path fill-rule="evenodd" clip-rule="evenodd" d="M362.738 126.622L357.556 131.81C356.12 133.24 353.804 133.24 352.368 131.81L336.811 116.259C335.381 114.823 335.381 112.501 336.811 111.071L341.999 105.883C343.429 104.453 345.751 104.453 347.186 105.883L362.738 121.434C364.168 122.87 364.168 125.192 362.738 126.622Z" stroke="#7450C8" stroke-linecap="round" stroke-linejoin="round"/>
<path fill-rule="evenodd" clip-rule="evenodd" d="M392.815 94.5404L387.627 99.728C386.197 101.158 383.875 101.158 382.445 99.728L366.888 84.1714C365.458 82.7355 365.458 80.4136 366.888 78.9838L372.076 73.7963C373.506 72.3726 375.828 72.3726 377.264 73.7963L392.815 89.3528C394.245 90.7887 394.245 93.1106 392.815 94.5404Z" fill="#DFE4EE"/>
<path fill-rule="evenodd" clip-rule="evenodd" d="M392.815 94.5404L387.627 99.728C386.197 101.158 383.875 101.158 382.445 99.728L366.888 84.1714C365.458 82.7355 365.458 80.4136 366.888 78.9838L372.076 73.7963C373.506 72.3726 375.828 72.3726 377.264 73.7963L392.815 89.3528C394.245 90.7887 394.245 93.1106 392.815 94.5404Z" stroke="#7450C8" stroke-linecap="round" stroke-linejoin="round"/>
<path fill-rule="evenodd" clip-rule="evenodd" d="M357.793 118.846L347.769 108.821L367.817 88.7695L377.846 98.7893L357.793 118.846Z" fill="#DFE4EE"/>
<path fill-rule="evenodd" clip-rule="evenodd" d="M357.793 118.846L347.769 108.821L367.817 88.7695L377.846 98.7893L357.793 118.846Z" stroke="#7450C8" stroke-linecap="round" stroke-linejoin="round"/>
<path d="M341.754 245.169V213.087" stroke="#7450C8" stroke-linecap="round" stroke-linejoin="round"/>
<path d="M383.862 245.169V213.087" stroke="#7450C8" stroke-linecap="round" stroke-linejoin="round"/>
<path d="M383.862 269.231H415.944" stroke="#7450C8" stroke-linecap="round" stroke-linejoin="round"/>
<path d="M341.754 269.231H309.672" stroke="#7450C8" stroke-linecap="round" stroke-linejoin="round"/>
<path d="M137.231 160.954V295.298" stroke="#7450C8" stroke-linecap="round" stroke-linejoin="round"/>
<path d="M235.482 160.954V295.298" stroke="#7450C8" stroke-linecap="round" stroke-linejoin="round"/>
<path d="M69.0564 191.031H289.621" stroke="#7450C8" stroke-linecap="round" stroke-linejoin="round"/>
<path d="M69.0564 263.215H289.621" stroke="#7450C8" stroke-linecap="round" stroke-linejoin="round"/>
<defs>
<filter id="filter0_d" x="0" y="0" width="491" height="338" filterUnits="userSpaceOnUse" color-interpolation-filters="sRGB">
<feFlood flood-opacity="0" result="BackgroundImageFix"/>
<feColorMatrix in="SourceAlpha" type="matrix" values="0 0 0 0 0 0 0 0 0 0 0 0 0 0 0 0 0 0 127 0"/>
<feOffset dy="4"/>
<feGaussianBlur stdDeviation="10"/>
<feColorMatrix type="matrix" values="0 0 0 0 0 0 0 0 0 0 0 0 0 0 0 0 0 0 0.04 0"/>
<feBlend mode="normal" in2="BackgroundImageFix" result="effect1_dropShadow"/>
<feBlend mode="normal" in="SourceGraphic" in2="effect1_dropShadow" result="shape"/>
</filter>
</defs>
</svg>
