<svg width="32" height="32" viewBox="0 0 32 32" fill="none" xmlns="http://www.w3.org/2000/svg">
<circle cx="16" cy="16" r="16" fill="#A7CAFF"/>
<path fill-rule="evenodd" clip-rule="evenodd" d="M9.60668 12.4057C10.8631 10.1755 13.2546 8.66675 16 8.66675C19.4365 8.66675 22.3196 11.0297 23.1155 14.2197C25.3151 14.5562 27 16.4564 27 18.7501C27 21.2814 24.948 23.3334 22.4167 23.3334H10.5C7.46243 23.3334 5 20.871 5 17.8334C5 15.0999 6.99361 12.8328 9.60668 12.4057ZM16 10.5001C13.804 10.5001 11.9068 11.787 11.0248 13.6519C10.8825 13.9528 10.5882 14.153 10.256 14.1747C8.34517 14.2998 6.83333 15.8904 6.83333 17.8334C6.83333 19.8585 8.47496 21.5001 10.5 21.5001H22.4167C23.9354 21.5001 25.1667 20.2689 25.1667 18.7501C25.1667 17.2313 23.9354 16.0001 22.4167 16.0001C22.4004 16.0001 22.3841 16.0002 22.3677 16.0005C21.9055 16.0085 21.5097 15.6712 21.4443 15.2137C21.0634 12.5489 18.7702 10.5001 16 10.5001Z" fill="#164995"/>
</svg>
