<svg width="50" height="50" viewBox="0 0 50 50" fill="none" xmlns="http://www.w3.org/2000/svg">
<path fill-rule="evenodd" clip-rule="evenodd" d="M10.4167 6.25C8.11548 6.25 6.25 8.11548 6.25 10.4167V39.5833C6.25 41.8845 8.11548 43.75 10.4167 43.75H16.6667H39.5833C41.8845 43.75 43.75 41.8845 43.75 39.5833V10.4167C43.75 8.11548 41.8845 6.25 39.5833 6.25H16.6667H10.4167ZM14.5833 10.4167H10.4167V39.5833H14.5833L14.5833 10.4167ZM18.75 39.5833L18.75 10.4167H39.5833V39.5833H18.75ZM27 31.2498C27 30.0992 27.9327 29.1665 29.0833 29.1665H29.2917C30.4423 29.1665 31.375 30.0992 31.375 31.2498V31.4582C31.375 32.6088 30.4423 33.5415 29.2917 33.5415H29.0833C27.9327 33.5415 27 32.6088 27 31.4582V31.2498ZM31.2702 16.6668C31.2702 15.5162 30.3374 14.5835 29.1868 14.5835C28.0363 14.5835 27.1035 15.5162 27.1035 16.6668V25.0002C27.1035 26.1508 28.0363 27.0835 29.1868 27.0835C30.3374 27.0835 31.2702 26.1508 31.2702 25.0002V16.6668Z" fill="#EE5E5E"/>
</svg>
