<svg width="32" height="32" viewBox="0 0 32 32" fill="none" xmlns="http://www.w3.org/2000/svg">
<circle cx="16" cy="16" r="16" fill="#A7CAFF"/>
<path fill-rule="evenodd" clip-rule="evenodd" d="M11.119 13.2584C11.119 11.834 12.2737 10.6793 13.6981 10.6793C15.1224 10.6793 16.2771 11.834 16.2771 13.2584C16.2771 14.6827 15.1224 15.8374 13.6981 15.8374C12.2737 15.8374 11.119 14.6827 11.119 13.2584ZM13.6981 8.96C11.3241 8.96 9.39969 10.8844 9.39969 13.2584C9.39969 15.6323 11.3241 17.5567 13.6981 17.5567C16.072 17.5567 17.9964 15.6323 17.9964 13.2584C17.9964 10.8844 16.072 8.96 13.6981 8.96ZM24.6203 14.369C24.9561 14.7047 24.9561 15.249 24.6203 15.5847L21.1816 19.0234C20.8459 19.3591 20.3016 19.3591 19.9659 19.0234L18.2465 17.3041C17.9108 16.9684 17.9108 16.424 18.2465 16.0883C18.5823 15.7526 19.1266 15.7526 19.4623 16.0883L20.5738 17.1998L23.4046 14.369C23.7403 14.0333 24.2846 14.0333 24.6203 14.369ZM10.527 21.0001C9.74725 21.5199 9.39903 22.1436 9.39903 22.7163C9.39903 23.1911 9.01414 23.576 8.53936 23.576C8.06458 23.576 7.67969 23.1911 7.67969 22.7163C7.67969 21.3899 8.48614 20.2943 9.57325 19.5695C10.6664 18.8408 12.127 18.418 13.6974 18.418C15.2678 18.418 16.7284 18.8408 17.8215 19.5695C18.9086 20.2943 19.7151 21.3899 19.7151 22.7163C19.7151 23.1911 19.3302 23.576 18.8554 23.576C18.3806 23.576 17.9957 23.1911 17.9957 22.7163C17.9957 22.1436 17.6475 21.5199 16.8678 21.0001C16.0941 20.4843 14.9757 20.1373 13.6974 20.1373C12.4191 20.1373 11.3007 20.4843 10.527 21.0001Z" fill="#164995"/>
</svg>
