<svg width="18" height="18" viewBox="0 0 18 18" fill="none" xmlns="http://www.w3.org/2000/svg">
<path fill-rule="evenodd" clip-rule="evenodd" d="M2.25 3C2.25 2.17157 2.92157 1.5 3.75 1.5H14.25C15.0784 1.5 15.75 2.17157 15.75 3V7.62364C15.75 13.6756 10.5967 15.9511 9.48394 16.3738L9.21764 15.6726L9.48393 16.3738C9.16972 16.4931 8.83028 16.4931 8.51607 16.3738L8.78236 15.6726L8.51606 16.3738C7.40331 15.9511 2.25 13.6756 2.25 7.62364V3ZM14.25 3L3.75 3V7.62364C3.75 12.5691 7.88195 14.5179 9 14.9528C10.118 14.5179 14.25 12.5691 14.25 7.62364V3Z" fill="#164995"/>
<path fill-rule="evenodd" clip-rule="evenodd" d="M11.7803 6.21967C12.0732 6.51256 12.0732 6.98744 11.7803 7.28033L8.78033 10.2803C8.48744 10.5732 8.01256 10.5732 7.71967 10.2803L6.21967 8.78033C5.92678 8.48744 5.92678 8.01256 6.21967 7.71967C6.51256 7.42678 6.98744 7.42678 7.28033 7.71967L8.25 8.68934L10.7197 6.21967C11.0126 5.92678 11.4874 5.92678 11.7803 6.21967Z" fill="#164995"/>
</svg>
