<svg width="50" height="50" viewBox="0 0 50 50" fill="none" xmlns="http://www.w3.org/2000/svg">
<path fill-rule="evenodd" clip-rule="evenodd" d="M33.3327 12.5002C32.2642 12.5002 31.294 12.8996 30.5554 13.5606C29.6981 14.328 28.381 14.255 27.6137 13.3977C26.8463 12.5403 26.9193 11.2233 27.7766 10.4559C29.2496 9.13759 31.1997 8.3335 33.3327 8.3335C37.9351 8.3335 41.666 12.0645 41.666 16.6668C41.666 19.1351 40.5903 21.3548 38.8888 22.8777C38.0314 23.6451 36.7144 23.5721 35.947 22.7148C35.1797 21.8574 35.2526 20.5404 36.11 19.773C36.9657 19.0071 37.4994 17.9007 37.4994 16.6668C37.4994 14.3656 35.6339 12.5002 33.3327 12.5002ZM20.8327 22.9168C20.8327 20.6156 22.6982 18.7502 24.9993 18.7502C27.3005 18.7502 29.166 20.6156 29.166 22.9168C29.166 25.218 27.3005 27.0835 24.9993 27.0835C22.6982 27.0835 20.8327 25.218 20.8327 22.9168ZM24.9993 14.5835C20.397 14.5835 16.666 18.3145 16.666 22.9168C16.666 27.5192 20.397 31.2502 24.9993 31.2502C29.6017 31.2502 33.3327 27.5192 33.3327 22.9168C33.3327 18.3145 29.6017 14.5835 24.9993 14.5835ZM14.5146 29.1578C14.8064 30.2708 14.1406 31.4096 13.0276 31.7014C11.4287 32.1205 10.1881 32.7811 9.38779 33.5008C8.59316 34.2154 8.33268 34.8817 8.33268 35.4161C8.33268 36.5667 7.39994 37.4994 6.24935 37.4994C5.09876 37.4994 4.16602 36.5667 4.16602 35.4161C4.16602 33.3875 5.19105 31.6711 6.60168 30.4026C8.00664 29.1392 9.89099 28.2162 11.9711 27.6709C13.084 27.3791 14.2228 28.0449 14.5146 29.1578ZM38.0282 27.6709C36.9152 27.3791 35.7764 28.0449 35.4846 29.1578C35.1929 30.2708 35.8586 31.4096 36.9716 31.7014C38.5705 32.1205 39.8111 32.7811 40.6114 33.5008C41.406 34.2154 41.6665 34.8817 41.6665 35.4161C41.6665 36.5667 42.5993 37.4994 43.7499 37.4994C44.9005 37.4994 45.8332 36.5667 45.8332 35.4161C45.8332 33.3875 44.8082 31.6711 43.3975 30.4026C41.9926 29.1392 40.1082 28.2162 38.0282 27.6709ZM16.666 41.6668C16.666 40.9602 17.1543 39.9646 18.7055 39.0339C20.2153 38.128 22.4355 37.5002 24.9993 37.5002C27.5632 37.5002 29.7834 38.128 31.2932 39.0339C32.8444 39.9646 33.3327 40.9602 33.3327 41.6668C33.3327 42.8174 34.2654 43.7502 35.416 43.7502C36.5666 43.7502 37.4993 42.8174 37.4993 41.6668C37.4993 38.9216 35.6557 36.7923 33.4369 35.461C31.1766 34.1048 28.1885 33.3335 24.9993 33.3335C21.8102 33.3335 18.8221 34.1048 16.5618 35.461C14.3429 36.7923 12.4993 38.9216 12.4993 41.6668C12.4993 42.8174 13.4321 43.7502 14.5827 43.7502C15.7333 43.7502 16.666 42.8174 16.666 41.6668ZM16.666 8.3335C12.0636 8.3335 8.33268 12.0645 8.33268 16.6668C8.33268 19.1351 9.40841 21.3548 11.1099 22.8777C11.9673 23.6451 13.2844 23.5721 14.0517 22.7148C14.8191 21.8574 14.7461 20.5404 13.8888 19.773C13.033 19.0071 12.4993 17.9007 12.4993 16.6668C12.4993 14.3656 14.3648 12.5002 16.666 12.5002C17.7345 12.5002 18.7047 12.8996 19.4433 13.5606C20.3006 14.328 21.6177 14.255 22.385 13.3977C23.1524 12.5403 23.0794 11.2233 22.2221 10.4559C20.7491 9.13759 18.799 8.3335 16.666 8.3335Z" fill="#EE5E5E"/>
</svg>
