<svg width="50" height="50" viewBox="0 0 50 50" fill="none" xmlns="http://www.w3.org/2000/svg">
<path fill-rule="evenodd" clip-rule="evenodd" d="M22.2883 7.23264C23.8485 5.92245 26.1515 5.92245 27.7117 7.23265L42.295 19.4793C43.2054 20.2439 43.75 21.3705 43.75 22.5794V39.6672C43.75 42.0019 41.803 43.75 39.5833 43.75H10.4167C8.197 43.75 6.25 42.0019 6.25 39.6672V22.5794C6.25 21.3705 6.79456 20.2439 7.70501 19.4793L22.2883 7.23264ZM24.9689 10.4227L24.9679 10.4234L10.4167 22.6431V39.5833H39.5833V22.6431L25.0321 10.4234L26.3719 8.82804L25.0321 10.4234L25.0311 10.4227L25.0264 10.4207C25.0208 10.4187 25.0116 10.4167 25 10.4167C24.9884 10.4167 24.9792 10.4187 24.9736 10.4207L24.9689 10.4227ZM39.6155 22.6701C39.6154 22.6701 39.6154 22.67 39.6153 22.67L39.6155 22.6701Z" fill="#EE5E5E"/>
<path fill-rule="evenodd" clip-rule="evenodd" d="M30.6397 23.5267C31.4533 24.3403 31.4533 25.6594 30.6397 26.473L22.3065 34.8062C21.4929 35.6198 20.1738 35.6198 19.3602 34.8062C18.5466 33.9926 18.5466 32.6736 19.3602 31.86L27.6935 23.5267C28.5071 22.7131 29.8261 22.7131 30.6397 23.5267Z" fill="#EE5E5E"/>
<path fill-rule="evenodd" clip-rule="evenodd" d="M19.3602 23.5267C20.1738 22.7131 21.4929 22.7131 22.3065 23.5267L30.6397 31.86C31.4533 32.6736 31.4533 33.9926 30.6397 34.8062C29.8261 35.6198 28.507 35.6198 27.6935 34.8062L19.3602 26.473C18.5466 25.6594 18.5466 24.3403 19.3602 23.5267Z" fill="#EE5E5E"/>
</svg>
