<?xml version="1.0" encoding="UTF-8"?>
<svg width="63px" height="63px" viewBox="0 0 63 63" version="1.1" xmlns="http://www.w3.org/2000/svg" xmlns:xlink="http://www.w3.org/1999/xlink">
    <!-- Generator: Sketch 52.6 (67491) - http://www.bohemiancoding.com/sketch -->
    <title>icon</title>
    <desc>Created with Sketch.</desc>
    <defs>
        <linearGradient x1="139.22371%" y1="90.8823165%" x2="-135.568576%" y2="-43.8492063%" id="linearGradient-1">
            <stop stop-color="#FFFFFF" stop-opacity="0.219241696" offset="0%"></stop>
            <stop stop-color="#0099FF" offset="100%"></stop>
        </linearGradient>
    </defs>
    <g id="Website" stroke="none" stroke-width="1" fill="none" fill-rule="evenodd">
        <g id="Solutions-Catalog" transform="translate(-150.000000, -1582.000000)">
            <g id="Solutions-Section" transform="translate(150.000000, 1420.000000)">
                <g id="features" transform="translate(0.000000, 162.000000)">
                    <g id="technology">
                        <g id="icon">
                            <rect id="Rectangle" fill="url(#linearGradient-1)" x="0" y="0" width="63" height="63" rx="9"></rect>
                            <g id="connector" transform="translate(14.000000, 16.000000)" fill="#0099FF" fill-rule="nonzero">
                                <path d="M31.5441463,23.6329008 L31.5441463,18.0180431 C31.5441463,17.1889514 30.8565181,16.5144512 30.0112896,16.5144512 L18.351587,16.5144512 L18.351587,11.676672 C21.248459,11.2699226 23.4827963,8.82073843 23.4827963,5.86857493 C23.4827963,2.63262238 20.7989346,0 17.5,0 C14.2010654,0 11.5172037,2.63273375 11.5172037,5.86857493 C11.5172037,8.82084981 13.751541,11.2699226 16.648413,11.676672 L16.648413,16.5144512 L4.98871039,16.5144512 C4.14348187,16.5144512 3.45585373,17.1889514 3.45585373,18.0180431 L3.45585373,23.6329008 C1.48732514,24.0217185 0,25.7310241 0,27.7749067 C0,30.1046945 1.93230775,32 4.30744076,32 C6.68257377,32 8.61499507,30.1046945 8.61499507,27.7749067 C8.61499507,25.7310241 7.12778347,24.0218299 5.1590278,23.6327894 L5.1590278,18.1851089 L16.648413,18.1851089 L16.648413,23.6329008 C14.6797708,24.0217185 13.1925592,25.7310241 13.1925592,27.7749067 C13.1925592,30.1046945 15.124867,32 17.5,32 C19.875133,32 21.8074408,30.1046945 21.8074408,27.7749067 C21.8074408,25.7310241 20.3202292,24.0218299 18.351587,23.6329008 L18.351587,18.1851089 L29.8409722,18.1851089 L29.8409722,23.6327894 C27.8723301,24.0217185 26.3850049,25.7310241 26.3850049,27.7749067 C26.3850049,30.1046945 28.3173127,32 30.6925592,32 C33.0676922,32 35,30.1046945 35,27.7749067 C35,25.7310241 33.5126749,24.0217185 31.5441463,23.6329008 Z M13.2203777,5.86857493 C13.2203777,3.55382302 15.1401956,1.67065768 17.5,1.67065768 C19.8598044,1.67065768 21.7796223,3.55382302 21.7796223,5.86857493 C21.7796223,8.18332684 19.8598044,10.0664922 17.5,10.0664922 C15.1401956,10.0666036 13.2203777,8.18332684 13.2203777,5.86857493 Z M6.911821,27.7749067 C6.911821,29.1833825 5.74355714,30.3293423 4.30744076,30.3293423 C2.87143793,30.3293423 1.70317407,29.1833825 1.70317407,27.7749067 C1.70317407,26.3662082 2.87143793,25.2202484 4.30744076,25.2202484 C5.74344359,25.2202484 6.911821,26.3662082 6.911821,27.7749067 Z M20.1042667,27.7749067 C20.1042667,29.1833825 18.9360028,30.3293423 17.5,30.3293423 C16.0639972,30.3293423 14.8957333,29.1833825 14.8957333,27.7749067 C14.8957333,26.3662082 16.0639972,25.2202484 17.5,25.2202484 C18.9360028,25.2202484 20.1042667,26.3662082 20.1042667,27.7749067 Z M30.6925592,30.3293423 C29.2565564,30.3293423 28.088179,29.1833825 28.088179,27.7749067 C28.088179,26.3662082 29.2564429,25.2202484 30.6925592,25.2202484 C32.1285621,25.2202484 33.2968259,26.3662082 33.2968259,27.7749067 C33.2968259,29.1833825 32.1285621,30.3293423 30.6925592,30.3293423 Z" id="Shape"></path>
                            </g>
                        </g>
                    </g>
                </g>
            </g>
        </g>
    </g>
</svg>