<?xml version="1.0" encoding="UTF-8"?>
<svg width="53px" height="42px" viewBox="0 0 53 42" version="1.1" xmlns="http://www.w3.org/2000/svg" xmlns:xlink="http://www.w3.org/1999/xlink">
    <!-- Generator: Sketch 52.6 (67491) - http://www.bohemiancoding.com/sketch -->
    <title>Group 78</title>
    <desc>Created with Sketch.</desc>
    <g id="Website-Second-Iteration" stroke="none" stroke-width="1" fill="none" fill-rule="evenodd">
        <g id="Marketing" transform="translate(-1267.000000, -462.000000)" fill="#FF3D0D" fill-rule="nonzero">
            <g id="Hero" transform="translate(1.000000, 0.000000)">
                <g id="heading" transform="translate(120.000000, 315.000000)">
                    <g id="Group-42">
                        <g id="Group-41" transform="translate(993.000000, 28.000000)">
                            <g id="Group-78" transform="translate(153.456949, 119.875742)">
                                <polyline id="Path" points="40.2737695 23.492536 52.0781502 35.438914 52.0781502 5.55904534 40.2737695 17.5193469"></polyline>
                                <path d="M35.7107086,3.81192144e-14 L5.95181163,3.81192144e-14 C2.66473464,0 3.22442441e-05,2.57604192 3.22442441e-05,5.75375067 L3.22442441e-05,34.535916 C-0.00365287636,36.064228 0.621780581,37.531165 1.7383554,38.6131051 C2.85493022,39.6950451 4.37089489,40.3030828 5.95181163,40.3030787 L35.7107086,40.3030787 C37.2916253,40.3030828 38.80759,39.6950451 39.9241648,38.6131051 C41.0407396,37.531165 41.6661731,36.064228 41.6624879,34.535916 L41.6624879,5.75375067 C41.6624879,2.57604192 38.9977855,0 35.7107086,0 Z M22.3087997,23.9136071 L17.2449315,27.6823808 L17.2449315,12.6072858 L22.3087997,16.3760596 L27.372668,20.1448333 L22.3087997,23.9136071 Z" id="Shape"></path>
                            </g>
                        </g>
                    </g>
                </g>
            </g>
        </g>
    </g>
</svg>