<?xml version="1.0" encoding="UTF-8"?>
<svg width="65px" height="66px" viewBox="0 0 65 66" version="1.1" xmlns="http://www.w3.org/2000/svg" xmlns:xlink="http://www.w3.org/1999/xlink">
    <!-- Generator: Sketch 52.6 (67491) - http://www.bohemiancoding.com/sketch -->
    <title>Group 58</title>
    <desc>Created with Sketch.</desc>
    <g id="Website-Second-Iteration" stroke="none" stroke-width="1" fill="none" fill-rule="evenodd">
        <g id="Customer-Service" transform="translate(-120.000000, -460.000000)" fill-rule="nonzero">
            <g id="Group-71" transform="translate(120.000000, 300.000000)">
                <g id="Group-68" transform="translate(0.000000, 11.000000)">
                    <g id="Group-2" transform="translate(0.000000, 149.000000)">
                        <g id="Group-58">
                            <g id="Group-49">
                                <path d="M64.9063542,48.5551705 C64.9063542,51.4266178 62.6129034,53.7543857 59.7837886,53.7543857 L56.3728495,53.7543857 L56.3728495,65.9025519 L44.4284056,53.7668838 L5.12256561,53.7668838 C2.29345074,53.7668838 -5.24971411e-13,51.4391159 -5.24971411e-13,48.5676686 L-5.24971411e-13,5.19921517 C-5.07472364e-13,2.32776792 2.29345074,1.77608874e-14 5.12256561,1.77608874e-14 L59.7837886,1.77608874e-14 C62.6129034,1.77608874e-14 64.9063542,2.32776792 64.9063542,5.19921517 L64.9063542,48.5551705 Z" id="Path" fill="#ECE7F9"></path>
                                <rect id="Rectangle" fill="#6736E4" opacity="0.833914621" x="10.2574451" y="15.6101436" width="44.4037779" height="3.47447552" rx="1.73723776"></rect>
                                <rect id="Rectangle" fill="#6736E4" opacity="0.833914621" x="10.2574451" y="24.2838343" width="44.4037779" height="3.46197741" rx="1.73098871"></rect>
                                <rect id="Rectangle" fill="#6736E4" opacity="0.833914621" x="10.2574451" y="32.9450269" width="44.4160917" height="3.46197741" rx="1.73098871"></rect>
                            </g>
                        </g>
                    </g>
                </g>
            </g>
        </g>
    </g>
</svg>