<?xml version="1.0" encoding="UTF-8"?>
<svg width="142px" height="37px" viewBox="0 0 142 37" version="1.1" xmlns="http://www.w3.org/2000/svg" xmlns:xlink="http://www.w3.org/1999/xlink">
    <!-- Generator: Sketch 52.6 (67491) - http://www.bohemiancoding.com/sketch -->
    <title>CODEKEEPER_logo</title>
    <desc>Created with Sketch.</desc>
    <defs>
        <linearGradient x1="-9.25948609%" y1="7.00591979%" x2="79.5489404%" y2="90.6609442%" id="linearGradient-1">
            <stop stop-color="#1AB1A1" offset="0%"></stop>
            <stop stop-color="#16B0A0" offset="41.66%"></stop>
            <stop stop-color="#03AB9C" offset="56.67%"></stop>
            <stop stop-color="#00A396" offset="67.36%"></stop>
            <stop stop-color="#00998E" offset="76.01%"></stop>
            <stop stop-color="#008B83" offset="83.42%"></stop>
            <stop stop-color="#007C76" offset="89.86%"></stop>
            <stop stop-color="#00726F" offset="93%"></stop>
        </linearGradient>
        <linearGradient x1="109.391679%" y1="92.8903704%" x2="20.4607756%" y2="9.03318519%" id="linearGradient-2">
            <stop stop-color="#1AB1A1" offset="0%"></stop>
            <stop stop-color="#16B0A0" offset="41.66%"></stop>
            <stop stop-color="#03AB9C" offset="56.67%"></stop>
            <stop stop-color="#00A396" offset="67.36%"></stop>
            <stop stop-color="#00998E" offset="76.01%"></stop>
            <stop stop-color="#008B83" offset="83.42%"></stop>
            <stop stop-color="#007C76" offset="89.86%"></stop>
            <stop stop-color="#00726F" offset="93%"></stop>
        </linearGradient>
    </defs>
    <g id="Symbols" stroke="none" stroke-width="1" fill="none" fill-rule="evenodd">
        <g id="Landing-top-navbar" transform="translate(-146.000000, -31.000000)" fill-rule="nonzero">
            <g id="top-navbar">
                <g id="CODEKEEPER_logo" transform="translate(139.000000, 27.000000)">
                    <rect id="Rectangle" fill="#FFFFFF" opacity="0" x="0" y="0" width="154" height="44"></rect>
                    <g id="Group" transform="translate(51.000000, 17.000000)" fill="#00887F">
                        <path d="M7.64757353,10.4189744 C7.64757353,10.4189744 5.67514706,10.7912821 4.34477941,10.7912821 C0.821617647,10.7912821 0.0136029412,9.00589744 0.0136029412,5.49717949 C0.0136029412,1.74871795 1.04198529,0.174871795 4.34477941,0.174871795 C5.81117647,0.174871795 7.66661765,0.575384615 7.66661765,0.575384615 L7.59860294,2.10692308 C7.59860294,2.10692308 5.62617647,1.88410256 4.61411765,1.88410256 C2.57367647,1.88410256 2.05132353,2.74717949 2.05132353,5.49717949 C2.05132353,8.11461538 2.45669118,9.08205128 4.68213235,9.08205128 C5.59080882,9.08205128 7.59860294,8.84512821 7.59860294,8.84512821 L7.64757353,10.4189744 Z" id="Path"></path>
                        <path d="M9.02691176,5.55641026 C9.02691176,2.10692308 10.1233088,0.172051282 13.7308088,0.172051282 C17.3383088,0.172051282 18.4347059,2.10410256 18.4347059,5.55641026 C18.4347059,9.03692308 17.3383088,10.7912821 13.7308088,10.7912821 C10.1233088,10.7912821 9.02691176,9.00589744 9.02691176,5.55641026 Z M16.3942647,5.55641026 C16.3942647,3.16179487 15.8719118,1.85307692 13.7308088,1.85307692 C11.5897059,1.85307692 11.0673529,3.16179487 11.0673529,5.55641026 C11.0673529,7.95102564 11.5733824,9.11025641 13.7308088,9.11025641 C15.8882353,9.11025641 16.3942647,7.97923077 16.3942647,5.55641026 Z" id="Shape"></path>
                        <path d="M19.7650735,10.6276923 L19.7650735,0.335641026 L23.6936029,0.335641026 C27.4861029,0.335641026 28.3784559,2.06179487 28.3784559,5.3025641 C28.3784559,8.6025641 27.5867647,10.6248718 23.6936029,10.6248718 L19.7650735,10.6248718 L19.7650735,10.6276923 Z M23.6908824,2.0025641 L21.7184559,2.0025641 L21.7184559,8.96076923 L23.6908824,8.96076923 C26.0006618,8.96076923 26.3380147,7.42923077 26.3380147,5.3025641 C26.3380147,3.19282051 26.0006618,2.0025641 23.6908824,2.0025641 Z" id="Shape"></path>
                        <polygon id="Path" points="29.6925 0.335641026 36.9727941 0.335641026 36.9727941 2.0025641 31.6458824 2.0025641 31.6458824 4.69333333 35.9607353 4.69333333 35.9607353 6.32923077 31.6458824 6.32923077 31.6458824 8.96076923 36.9727941 8.96076923 36.9727941 10.6276923 29.6925 10.6276923"></polygon>
                    </g>
                    <g id="Group" transform="translate(90.000000, 17.000000)" fill="#7C7C7B">
                        <polygon id="Path" points="3.98059849 6.50232941 2.14567576 6.62893944 2.14567576 11 0 11 0 0 2.14567576 0 2.14567576 4.83228282 3.9421243 4.70567279 6.39855311 0 8.87273923 0 5.86583361 5.48342012 9 10.9969855 6.48733969 10.9969855"></polygon>
                        <polygon id="Path" points="11 0 19 0 19 1.781584 13.1464873 1.781584 13.1464873 4.65744039 17.8878924 4.65744039 17.8878924 6.40586462 13.1464873 6.40586462 13.1464873 9.218416 19 9.218416 19 11 11 11"></polygon>
                        <polygon id="Path" points="20 0 28 0 28 1.781584 22.1464873 1.781584 22.1464873 4.65744039 26.8878924 4.65744039 26.8878924 6.40586462 22.1464873 6.40586462 22.1464873 9.218416 28 9.218416 28 11 20 11"></polygon>
                        <path d="M32.1670541,7.67799397 L32.1670541,11 L30,11 L30,0 L34.6479575,0 C37.5562936,0 39,1.23896958 39,3.73499589 C39,6.2310222 37.5562936,7.67799397 34.6479575,7.67799397 L32.1670541,7.67799397 Z M34.6300232,5.88133735 C36.0916639,5.88133735 36.7791431,5.07043025 36.7791431,3.73499589 C36.7791431,2.41463415 36.0946529,1.79665662 34.6300232,1.79665662 L32.1670541,1.79665662 L32.1670541,5.88133735 L34.6300232,5.88133735 Z" id="Shape"></path>
                        <polygon id="Path" points="40 0 48 0 48 1.781584 42.1464873 1.781584 42.1464873 4.65744039 46.8878924 4.65744039 46.8878924 6.40586462 42.1464873 6.40586462 42.1464873 9.218416 48 9.218416 48 11 40 11"></polygon>
                        <path d="M54.9269645,7.24993149 L52.1274861,7.24993149 L52.1274861,11 L50,11 L50,0 L54.7450277,0 C57.6178676,0 59,1.03398191 59,3.54508084 C59,5.19704029 58.310401,6.15264456 57.019237,6.70731707 L59,11 L56.6553635,11 L54.9269645,7.24993149 Z M54.7450277,1.781584 L52.1274861,1.781584 L52.1274861,5.46834749 L54.7831757,5.46834749 C56.2562765,5.46834749 56.8020867,4.70567279 56.8020867,3.57824061 C56.7991523,2.36941628 56.1271601,1.781584 54.7450277,1.781584 Z" id="Shape"></path>
                    </g>
                    <polygon id="Path" fill="url(#linearGradient-1)" points="43 17.5352967 37.0491579 22 25 13.083913 25 4"></polygon>
                    <polygon id="Path" fill="url(#linearGradient-2)" points="7 27.4133333 12.8716431 23 25 31.8666667 25 41"></polygon>
                    <polygon id="Path" fill="#00887F" points="7 17.2415179 25 4 25 13.2717815 7 27"></polygon>
                    <polygon id="Path" fill="#00887F" points="43 27.7492618 25 41 25 31.712531 43 18"></polygon>
                </g>
            </g>
        </g>
    </g>
</svg>