<?xml version="1.0" encoding="UTF-8"?>
<svg width="650px" height="519px" viewBox="0 0 650 519" version="1.1" xmlns="http://www.w3.org/2000/svg" xmlns:xlink="http://www.w3.org/1999/xlink">
    <!-- Generator: Sketch 52.6 (67491) - http://www.bohemiancoding.com/sketch -->
    <title>Group 39</title>
    <desc>Created with Sketch.</desc>
    <defs>
        <rect id="path-1" x="0" y="0" width="249" height="210" rx="10"></rect>
        <filter x="-42.2%" y="-35.7%" width="184.3%" height="200.0%" filterUnits="objectBoundingBox" id="filter-3">
            <feOffset dx="0" dy="30" in="SourceAlpha" result="shadowOffsetOuter1"></feOffset>
            <feGaussianBlur stdDeviation="30" in="shadowOffsetOuter1" result="shadowBlurOuter1"></feGaussianBlur>
            <feColorMatrix values="0 0 0 0 0   0 0 0 0 0   0 0 0 0 0  0 0 0 0.0812390734 0" type="matrix" in="shadowBlurOuter1"></feColorMatrix>
        </filter>
        <rect id="path-4" x="0" y="0" width="249" height="210" rx="10"></rect>
        <filter x="-42.2%" y="-35.7%" width="184.3%" height="200.0%" filterUnits="objectBoundingBox" id="filter-6">
            <feOffset dx="0" dy="30" in="SourceAlpha" result="shadowOffsetOuter1"></feOffset>
            <feGaussianBlur stdDeviation="30" in="shadowOffsetOuter1" result="shadowBlurOuter1"></feGaussianBlur>
            <feColorMatrix values="0 0 0 0 0   0 0 0 0 0   0 0 0 0 0  0 0 0 0.0812390734 0" type="matrix" in="shadowBlurOuter1"></feColorMatrix>
        </filter>
        <path d="M122,11.9470499 C122,5.33207262 116.676509,0 110.112205,0 L11.9278215,0 C5.32349081,0 0,5.33207262 0,11.9470499 C0,32.3532526 0,73.6467474 0,94.0529501 C0,100.667927 5.32349081,106 11.9278215,106 C35.2631234,106 86.7769029,106 110.112205,106 C116.676509,106 122,100.667927 122,94.0529501 C122,73.6467474 122,32.3131619 122,11.9470499 Z" id="path-7"></path>
        <filter x="-86.1%" y="-70.8%" width="272.1%" height="298.1%" filterUnits="objectBoundingBox" id="filter-8">
            <feOffset dx="0" dy="30" in="SourceAlpha" result="shadowOffsetOuter1"></feOffset>
            <feGaussianBlur stdDeviation="30" in="shadowOffsetOuter1" result="shadowBlurOuter1"></feGaussianBlur>
            <feColorMatrix values="0 0 0 0 0   0 0 0 0 0   0 0 0 0 0  0 0 0 0.0793542395 0" type="matrix" in="shadowBlurOuter1"></feColorMatrix>
        </filter>
        <path d="M63.6557398,10.7581425 C63.6557398,4.97621103 59.0393605,0.278391716 53.1557398,0.278391716 C41.4790156,0.278391716 22.7419467,0.278391716 11.1557398,0.278391716 C5.36263632,0.278391716 0.655739773,4.97621103 0.655739773,10.7581425 C0.655739773,21.2378933 0.655739773,37.3188902 0.655739773,47.7986409 C0.655739773,53.5805724 5.36263632,58.2783917 11.1557398,58.2783917 C22.7419467,58.2783917 41.4790156,58.2783917 53.1557398,58.2783917 C58.9488432,58.2783917 63.6557398,53.5805724 63.6557398,47.7986409 C63.6557398,37.3188902 63.6557398,21.328236 63.6557398,10.7581425 Z" id="path-9"></path>
        <filter x="-158.7%" y="-137.9%" width="417.5%" height="444.8%" filterUnits="objectBoundingBox" id="filter-10">
            <feOffset dx="0" dy="20" in="SourceAlpha" result="shadowOffsetOuter1"></feOffset>
            <feGaussianBlur stdDeviation="30" in="shadowOffsetOuter1" result="shadowBlurOuter1"></feGaussianBlur>
            <feColorMatrix values="0 0 0 0 0   0 0 0 0 0   0 0 0 0 0  0 0 0 0.0760762675 0" type="matrix" in="shadowBlurOuter1"></feColorMatrix>
        </filter>
    </defs>
    <g id="Website-Second-Iteration" stroke="none" stroke-width="1" fill="none" fill-rule="evenodd">
        <g id="Marketing" transform="translate(-91.000000, -2718.000000)">
            <g id="Group-39" transform="translate(150.000000, 2743.000000)">
                <g id="Group-37" transform="translate(0.000000, 24.000000)">
                    <g id="Group-26" transform="translate(0.000000, 25.000000)">
                        <g id="Group-34" transform="translate(0.000000, 60.000000)">
                            <g id="Rectangle">
                                <g transform="translate(0.000000, 0.275932)">
                                    <mask id="mask-2" fill="white">
                                        <use xlink:href="#path-1"></use>
                                    </mask>
                                    <g id="Mask">
                                        <use fill="black" fill-opacity="1" filter="url(#filter-3)" xlink:href="#path-1"></use>
                                        <use fill="#FFFFFF" fill-rule="evenodd" xlink:href="#path-1"></use>
                                    </g>
                                    <rect fill="#F6F6F6" mask="url(#mask-2)" x="0" y="0.257710265" width="498" height="54.1698113"></rect>
                                </g>
                            </g>
                            <g id="Group-7" transform="translate(24.000000, 25.275932)" fill="#4D5E6C">
                                <circle id="Oval" cx="4.5" cy="4.5" r="4.5"></circle>
                                <circle id="Oval" opacity="0.201758" cx="18.5" cy="4.5" r="4.5"></circle>
                                <circle id="Oval" opacity="0.201758" cx="32.5" cy="4.5" r="4.5"></circle>
                            </g>
                        </g>
                        <g id="Group-28" transform="translate(164.000000, 110.275932)" stroke="#53A9E6" stroke-width="5">
                            <path d="M159,0.360966239 C90.9288818,-5.4918885 104.375029,61.39788 104.375029,87.3176652 C104.375029,87.3176652 108.997142,117 72.860622,117 L12,117" id="Path"></path>
                            <circle id="Oval" cx="6" cy="116" r="6"></circle>
                        </g>
                        <g id="Group-34" transform="translate(283.000000, 0.000000)">
                            <g id="Rectangle">
                                <g transform="translate(0.000000, 0.275932)">
                                    <mask id="mask-5" fill="white">
                                        <use xlink:href="#path-4"></use>
                                    </mask>
                                    <g id="Mask">
                                        <use fill="black" fill-opacity="1" filter="url(#filter-6)" xlink:href="#path-4"></use>
                                        <use fill="#FFFFFF" fill-rule="evenodd" xlink:href="#path-4"></use>
                                    </g>
                                    <rect fill="#F6F6F6" mask="url(#mask-5)" x="0" y="0.257710265" width="498" height="54.1698113"></rect>
                                </g>
                            </g>
                            <g id="Group-7" transform="translate(24.000000, 25.275932)" fill="#4D5E6C">
                                <circle id="Oval" cx="4.5" cy="4.5" r="4.5"></circle>
                                <circle id="Oval" opacity="0.201758" cx="18.5" cy="4.5" r="4.5"></circle>
                                <circle id="Oval" opacity="0.201758" cx="32.5" cy="4.5" r="4.5"></circle>
                            </g>
                        </g>
                        <path d="M283,54.2759322 L532,54.2759322 L532,200.275932 C532,205.79878 527.522847,210.275932 522,210.275932 L293,210.275932 C287.477153,210.275932 283,205.79878 283,200.275932 L283,54.2759322 Z" id="Rectangle" fill="#FFFFFF"></path>
                        <g id="Group-14" transform="translate(15.000000, 134.275932)">
                            <rect id="Rectangle" fill="#BFE4FE" x="0" y="0" width="45" height="37"></rect>
                            <path d="M34.7287338,8.6168121 L23.7712662,8.6168121 L23.7712662,7.22418231 C23.7712662,6.54810723 23.202078,6 22.5,6 C21.797922,6 21.2287338,6.54810723 21.2287338,7.22418231 L21.2287338,8.6168121 L10.2712662,8.6168121 C9.56918827,8.6168121 9,9.16491933 9,9.84099441 C9,10.5170695 9.56918827,11.0651767 10.2712662,11.0651767 L28.9921025,11.0651767 C28.2600226,13.3297508 26.4256702,17.8966037 22.4938979,22.4548057 C20.0927302,19.6737899 18.4661875,16.878084 17.3888317,14.5673175 C17.1011865,13.950656 16.3492749,13.6749702 15.7083872,13.9517986 C15.0678385,14.2287903 14.7817189,14.9531797 15.0691946,15.5700044 C16.2592693,18.1226693 18.0741289,21.2275221 20.7807395,24.2990772 C18.8512964,26.226593 16.5148785,28.0955113 13.693176,29.7259589 C13.0911043,30.0737899 12.8958378,30.8257643 13.2572164,31.4055371 C13.4955364,31.7881348 13.9165798,32 14.3484713,32 C14.5710277,32 14.7966351,31.9436876 15.0013937,31.82535 C17.9927679,30.0969678 20.463601,28.1196685 22.4933894,26.1113566 C24.5460606,28.1408877 27.0192667,30.1041497 29.9982673,31.82535 C30.2030259,31.9436876 30.4286333,32 30.6511897,32 C31.0830812,32 31.5041246,31.7881348 31.7424446,31.4055371 C32.1036537,30.8257643 31.9083872,30.0737899 31.306485,29.7259589 C28.4798669,28.0928997 26.1412455,26.2252872 24.2077343,24.2963023 C26.2059954,22.0310754 27.6716806,19.8095926 28.7146274,17.9445916 C30.402191,14.9265742 31.2644485,12.3895788 31.6456589,11.0650135 L34.7287338,11.0650135 C35.4308117,11.0650135 36,10.5169063 36,9.84083119 C36,9.16475611 35.4309812,8.6168121 34.7287338,8.6168121 Z" id="Path" fill="#059BFF" fill-rule="nonzero"></path>
                            <rect id="Rectangle" fill="#EFF0F0" fill-rule="nonzero" x="56" y="0" width="159" height="11.9340678"></rect>
                            <rect id="Rectangle" fill="#EFF0F0" fill-rule="nonzero" opacity="0.530970982" x="56" y="22.4194915" width="71" height="11.9340678"></rect>
                            <rect id="Rectangle" fill="#EFF0F0" fill-rule="nonzero" x="0" y="45" width="215" height="11.9340678"></rect>
                            <rect id="Rectangle" fill="#EFF0F0" fill-rule="nonzero" opacity="0.530970982" x="0" y="67.4194915" width="145" height="11.9340678"></rect>
                            <rect id="Rectangle" fill="#EFF0F0" fill-rule="nonzero" opacity="0.530970982" x="0" y="89.4194915" width="105" height="11.9340678"></rect>
                        </g>
                        <g id="Group-29" transform="translate(298.000000, 70.275932)">
                            <rect id="Rectangle" fill="#FFF1D2" x="0" y="4" width="45" height="37"></rect>
                            <text id="A" font-family="Helvetica" font-size="38" font-weight="normal" fill="#FEC62E">
                                <tspan x="11" y="37">A</tspan>
                            </text>
                            <rect id="Rectangle" fill="#EFF0F0" fill-rule="nonzero" x="56" y="4" width="159" height="11.9340678"></rect>
                            <rect id="Rectangle" fill="#EFF0F0" fill-rule="nonzero" opacity="0.530970982" x="56" y="26.4194915" width="71" height="11.9340678"></rect>
                            <rect id="Rectangle" fill="#EFF0F0" fill-rule="nonzero" x="0" y="49" width="215" height="11.9340678"></rect>
                            <rect id="Rectangle" fill="#EFF0F0" fill-rule="nonzero" opacity="0.530970982" x="0" y="71.4194915" width="145" height="11.9340678"></rect>
                            <rect id="Rectangle" fill="#EFF0F0" fill-rule="nonzero" opacity="0.530970982" x="0" y="93.4194915" width="105" height="11.9340678"></rect>
                        </g>
                    </g>
                    <g id="Group" transform="translate(71.000000, 0.000000)" fill-rule="nonzero">
                        <path d="M164,7.49922197 C164,4.46017825 161.432494,2 158.185355,2 C136.437071,2 59.4874142,2 37.7391304,2 C34.6430206,2 32,4.46017825 32,7.49922197 C32,7.49922197 32,7.49922197 32,7.49922197 C32,10.5382657 34.5675057,12.9984439 37.7391304,12.9984439 C59.4874142,12.9984439 136.437071,12.9984439 158.185355,12.9984439 C161.432494,13.0708021 164,10.6106239 164,7.49922197 C164,7.49922197 164,7.49922197 164,7.49922197 Z" id="Path" fill="#FFFFFF" opacity="0.963774182"></path>
                        <circle id="Oval" fill="#FEFEFE" cx="7.5" cy="7.5" r="7.5"></circle>
                    </g>
                    <g id="Group" transform="translate(316.000000, 275.000000)" fill-rule="nonzero">
                        <g id="Path">
                            <use fill="black" fill-opacity="1" filter="url(#filter-8)" xlink:href="#path-7"></use>
                            <use fill="#EBFAF2" xlink:href="#path-7"></use>
                        </g>
                        <path d="M0,81 L122,81 L122,94.0608974 C122,100.671474 116.676509,106 110.112205,106 C86.7769029,106 35.2631234,106 11.9278215,106 C5.32349081,106 0,100.671474 0,94.0608974 L0,81 Z" id="Path" fill="#FFFFFF"></path>
                        <path d="M62,90.5 C62,89.6538462 61.2759777,89 60.4312849,89 C54.4782123,89 33.4815642,89 27.5687151,89 C26.7240223,89 26,89.6923077 26,90.5 C26,90.5 26,90.5 26,90.5 C26,91.3461538 26.7240223,92 27.5687151,92 C33.5217877,92 54.5184358,92 60.4312849,92 C61.2759777,92 62,91.3076923 62,90.5 C62,90.5 62,90.5 62,90.5 Z" id="Path" fill="#EFF0F0"></path>
                        <path d="M50,96.5 C50,95.6538462 49.2952692,95 48.4730832,95 C42.6786297,95 33.3213703,95 27.5269168,95 C26.7047308,95 26,95.6923077 26,96.5 C26,96.5 26,96.5 26,96.5 C26,97.3461538 26.7047308,98 27.5269168,98 C33.3213703,98 42.6786297,98 48.4730832,98 C49.3344209,98 50,97.3461538 50,96.5 C50,96.5 50,96.5 50,96.5 Z" id="Path" fill="#EFF0F0"></path>
                        <path d="M114.295181,26.0790021 L114.895945,26.5135135 C115.016097,26.8690229 115.016097,26.8690229 114.976047,27.2245322 L114.815843,27.5405405 C110.490344,32.9126819 105.203623,37.8898129 98.5551711,39.2328482 C93.3485521,40.2993763 87.9817294,38.7588358 82.7350595,37.4948025 C78.209306,36.3887734 73.3230943,35.8752599 69.0776973,37.8108108 C63.8710783,40.1413721 60.3465977,44.960499 56.3415062,49.1871102 C52.5366692,53.1372141 48.851985,57.2058212 44.1259769,59.8918919 C42.203533,60.997921 39.9206308,61.7089397 37.6377286,61.2744283 C33.3122297,60.4449064 30.3885129,56.1787942 26.1431158,55.8627859 C20.0954276,55.3887734 14.3681467,59.9313929 10.6834624,63.6839917 L10.3230042,63.960499 L9.56203681,64 C9.24162949,63.8024948 9.24162949,63.8024948 9.04137491,63.4864865 C9.04137491,63.4864865 8.84112034,62.8149688 9.32173132,62.3409563 C9.76229139,61.9064449 9.88244414,61.7879418 10.1628005,61.5114345 C14.0477394,57.9168399 18.6535946,54.7567568 23.6599591,54.045738 C26.2632686,53.6902287 29.0267818,54.2432432 31.2295821,55.7047817 C31.5900404,55.9417879 31.9504986,56.1787942 32.2709059,56.4158004 C34.7540627,58.1143451 37.4775249,59.970894 40.3211399,59.3388773 C43.9657733,58.5488565 46.8093883,55.7047817 49.6930542,53.018711 C53.8583494,49.1476091 57.5430336,44.6839917 61.5080743,40.8128898 C65.2328094,37.1787942 70.1190211,34.5322245 75.3256401,34.4927235 C84.1368415,34.4137214 92.5875847,40.1413721 101.55899,36.2702703 C106.3651,34.1767152 110.129886,30.3056133 113.253857,26.3555094 L113.894672,26 C114.054875,26.0790021 114.175028,26.0790021 114.295181,26.0790021 Z" id="Path" fill="#65D397"></path>
                    </g>
                </g>
                <g id="Group-28" transform="translate(102.000000, 0.000000)" fill-rule="nonzero">
                    <g id="Group" transform="translate(0.000000, 14.000000)">
                        <g id="Path">
                            <use fill="black" fill-opacity="1" filter="url(#filter-10)" xlink:href="#path-9"></use>
                            <use fill="#EDE8FA" xlink:href="#path-9"></use>
                        </g>
                    </g>
                    <g id="Group-38" transform="translate(16.000000, 25.000000)" fill="#6736E3">
                        <path d="M9.23758735,31.880228 C7.53655042,31.880228 6.15758754,33.2591909 6.15758754,34.9602278 C6.15758754,36.6612647 7.53655042,38.0402276 9.23758735,38.0402276 C10.9386243,38.0402276 12.3175872,36.6612647 12.3175872,34.9602278 C12.3175872,33.2591909 10.9386243,31.880228 9.23758735,31.880228 Z" id="Path"></path>
                        <path d="M22.2175866,31.880228 C20.5165497,31.880228 19.1375868,33.2591909 19.1375868,34.9602278 C19.1375868,36.6612647 20.5165497,38.0402276 22.2175866,38.0402276 C23.9186235,38.0402276 25.2975864,36.6612647 25.2975864,34.9602278 C25.2975864,33.2591909 23.9186235,31.880228 22.2175866,31.880228 Z" id="Path"></path>
                        <path d="M36.4575857,0.000229905407 L30.9175861,0.000229905407 C30.1526079,-0.00910856715 29.4967554,0.54453315 29.3775862,1.30022983 L28.4775862,7.02022949 L1.55758781,7.02022949 C1.10449912,7.02032794 0.673838172,7.21741007 0.377587881,7.56022945 C0.0808645776,7.90832167 -0.0504492048,8.36791991 0.0175879024,8.82022938 L3.07758772,28.4602282 C3.19579662,29.2194407 3.84922802,29.7795248 4.61758763,29.7802281 L26.6175863,29.7802281 C27.3859459,29.7795248 28.0393773,29.2194407 28.1575862,28.4602282 L28.6375862,25.3002284 L32.177586,3.10022972 L36.3975857,3.10022972 C36.8094733,3.10557936 37.206336,2.94569457 37.4994822,2.65630671 C37.7926283,2.36691884 37.9576204,1.97215214 37.9575856,1.56022981 C37.9582062,0.721563403 37.2956318,0.032486085 36.4575857,0.000229905407 Z M4.45758764,16.6602289 L26.9575863,16.6602289 L26.3975863,20.3202287 L4.97758761,20.3202287 L4.45758764,16.6602289 Z M27.9175862,10.1202293 L27.3775863,13.5402291 L3.91758767,13.5402291 L3.3775877,10.1202293 L27.9175862,10.1202293 Z M5.91758755,26.6602283 L5.41758758,23.4402285 L25.8375864,23.4402285 L25.6175864,24.8602284 L25.3375864,26.6602283 L5.91758755,26.6602283 Z" id="Shape"></path>
                    </g>
                    <g id="tick" transform="translate(50.000000, 0.000000)">
                        <circle id="Oval" fill="#FFFFFF" cx="14" cy="14" r="14"></circle>
                        <path d="M14,0 C6.26801656,0 0,6.26801656 0,14 C0,21.7319834 6.26801656,28 14,28 C21.7319834,28 28,21.7319834 28,14 C27.9917969,6.27147359 21.728585,0.00826173028 14,0 Z M21.7070225,9.70700573 L11.706989,19.7070392 C11.3164611,20.0974499 10.6834719,20.0974499 10.2930026,19.7070392 L6.29297753,15.7070141 C5.89571135,15.3233417 5.88469571,14.6902939 6.26836812,14.2930278 C6.65204053,13.8957616 7.28508829,13.8847459 7.68235447,14.2684183 C7.69067479,14.2765043 7.69887793,14.2846488 7.70696388,14.2930278 L10.9999958,17.5860597 L20.2930361,8.29301938 C20.6903023,7.90934697 21.3233501,7.92036261 21.7070225,8.3175702 C22.0813199,8.7051098 22.0813199,9.31946613 21.7070225,9.70700573 Z" id="Shape" fill="#3BB665"></path>
                    </g>
                </g>
            </g>
        </g>
    </g>
</svg>