<?xml version="1.0" encoding="UTF-8"?>
<svg width="87px" height="63px" viewBox="0 0 87 63" version="1.1" xmlns="http://www.w3.org/2000/svg" xmlns:xlink="http://www.w3.org/1999/xlink">
    <!-- Generator: Sketch 52.6 (67491) - http://www.bohemiancoding.com/sketch -->
    <title>icon</title>
    <desc>Created with Sketch.</desc>
    <g id="Website" stroke="none" stroke-width="1" fill="none" fill-rule="evenodd">
        <g id="Features" transform="translate(-677.000000, -1257.000000)" fill="#53A9E6" fill-rule="nonzero">
            <g id="Process-Section" transform="translate(147.000000, 980.000000)">
                <g id="features" transform="translate(1.000000, 235.000000)">
                    <g id="Quality" transform="translate(389.000000, 0.000000)">
                        <g id="icon" transform="translate(140.000000, 42.000000)">
                            <path d="M79.8574219,0 L6.76757812,0 C3.03593555,0 0,3.03593555 0,6.76757812 L0,55.4941406 C0,59.2257832 3.03593555,62.2617188 6.76757812,62.2617188 L79.8574219,62.2617188 C83.5890645,62.2617188 86.625,59.2257832 86.625,55.4941406 L86.625,6.76757812 C86.625,3.03593555 83.5890645,0 79.8574219,0 Z M2.70703125,55.4941406 L2.70703125,10.828125 L20.3027344,10.828125 L20.3027344,59.5546875 L6.76757812,59.5546875 C4.5285249,59.5546875 2.70703125,57.7330247 2.70703125,55.4941406 Z M79.8574219,59.5546875 L23.0097656,59.5546875 L23.0097656,10.828125 L75.796875,10.828125 C76.544354,10.828125 77.1503906,10.2220884 77.1503906,9.47460938 C77.1503906,8.72713037 76.544354,8.12109375 75.796875,8.12109375 L2.70703125,8.12109375 L2.70703125,6.76757812 C2.70703125,4.52869409 4.5285249,2.70703125 6.76757812,2.70703125 L79.8574219,2.70703125 C82.0964751,2.70703125 83.9179688,4.52869409 83.9179688,6.76757812 L83.9179688,8.12109375 L81.2109375,8.12109375 C80.4634585,8.12109375 79.8574219,8.72713037 79.8574219,9.47460938 C79.8574219,10.2220884 80.4634585,10.828125 81.2109375,10.828125 L83.9179688,10.828125 L83.9179688,55.4941406 C83.9179688,57.7330247 82.0964751,59.5546875 79.8574219,59.5546875 Z" id="Shape"></path>
                            <path d="M6.76757812,4.06054688 C6.41228027,4.06054688 6.06205811,4.20435791 5.80996582,4.4564502 C5.55787354,4.70854248 5.4140625,5.05707275 5.4140625,5.4140625 C5.4140625,5.77088306 5.55787354,6.11958252 5.80996582,6.3716748 C6.06205811,6.6235979 6.41228027,6.76757812 6.76757812,6.76757812 C7.12287598,6.76757812 7.47140625,6.6235979 7.72519043,6.3716748 C7.97728271,6.11958252 8.12109375,5.77088306 8.12109375,5.4140625 C8.12109375,5.05707275 7.97728271,4.70854248 7.72519043,4.4564502 C7.47309814,4.20435791 7.12287598,4.06054688 6.76757812,4.06054688 Z" id="Path"></path>
                            <path d="M10.828125,4.06054688 C10.4728271,4.06054688 10.122605,4.20435791 9.8705127,4.4564502 C9.61842041,4.70854248 9.47460938,5.05707275 9.47460938,5.4140625 C9.47460938,5.77088306 9.61842041,6.11958252 9.8705127,6.3716748 C10.122605,6.6235979 10.4728271,6.76757812 10.828125,6.76757812 C11.1834229,6.76757812 11.5319531,6.6235979 11.7857373,6.3716748 C12.0378296,6.11958252 12.1816406,5.77088306 12.1816406,5.4140625 C12.1816406,5.05707275 12.0378296,4.70854248 11.7857373,4.4564502 C11.533645,4.20435791 11.1834229,4.06054688 10.828125,4.06054688 Z" id="Path"></path>
                            <path d="M14.8886719,4.06054688 C14.533374,4.06054688 14.1831519,4.20435791 13.9310596,4.4564502 C13.6789673,4.70854248 13.5351562,5.05707275 13.5351562,5.4140625 C13.5351562,5.77088306 13.6789673,6.11958252 13.9310596,6.3716748 C14.1831519,6.6235979 14.533374,6.76757812 14.8886719,6.76757812 C15.2439697,6.76757812 15.5941919,6.6235979 15.8462842,6.3716748 C16.0983765,6.11958252 16.2421875,5.76936035 16.2421875,5.4140625 C16.2421875,5.05859546 16.0983765,4.70854248 15.8462842,4.4564502 C15.5941919,4.20435791 15.2456616,4.06054688 14.8886719,4.06054688 Z" id="Path"></path>
                            <path d="M6.76757812,16.2421875 L16.2421875,16.2421875 C16.9896665,16.2421875 17.5957031,15.6361509 17.5957031,14.8886719 C17.5957031,14.1411929 16.9896665,13.5351562 16.2421875,13.5351562 L6.76757812,13.5351562 C6.02009912,13.5351562 5.4140625,14.1411929 5.4140625,14.8886719 C5.4140625,15.6361509 6.02009912,16.2421875 6.76757812,16.2421875 Z" id="Path"></path>
                            <path d="M16.2421875,18.9492188 L6.76757812,18.9492188 C6.02009912,18.9492188 5.4140625,19.5552554 5.4140625,20.3027344 C5.4140625,21.0502134 6.02009912,21.65625 6.76757812,21.65625 L16.2421875,21.65625 C16.9896665,21.65625 17.5957031,21.0502134 17.5957031,20.3027344 C17.5957031,19.5552554 16.9896665,18.9492188 16.2421875,18.9492188 Z" id="Path"></path>
                            <path d="M16.2421875,24.3632812 L6.76757812,24.3632812 C6.02009912,24.3632812 5.4140625,24.9693179 5.4140625,25.7167969 C5.4140625,26.4642759 6.02009912,27.0703125 6.76757812,27.0703125 L16.2421875,27.0703125 C16.9896665,27.0703125 17.5957031,26.4642759 17.5957031,25.7167969 C17.5957031,24.9693179 16.9896665,24.3632812 16.2421875,24.3632812 Z" id="Path"></path>
                            <path d="M12.1816406,29.7773438 L6.76757812,29.7773438 C6.02009912,29.7773438 5.4140625,30.3833804 5.4140625,31.1308594 C5.4140625,31.8783384 6.02009912,32.484375 6.76757812,32.484375 L12.1816406,32.484375 C12.9291196,32.484375 13.5351562,31.8783384 13.5351562,31.1308594 C13.5351562,30.3833804 12.9291196,29.7773438 12.1816406,29.7773438 Z" id="Path"></path>
                            <path d="M12.1816406,35.1914062 L6.76757812,35.1914062 C6.02009912,35.1914062 5.4140625,35.7974429 5.4140625,36.5449219 C5.4140625,37.2924009 6.02009912,37.8984375 6.76757812,37.8984375 L12.1816406,37.8984375 C12.9291196,37.8984375 13.5351562,37.2924009 13.5351562,36.5449219 C13.5351562,35.7974429 12.9291196,35.1914062 12.1816406,35.1914062 Z" id="Path"></path>
                            <path d="M8.12109375,40.6054688 L6.76757812,40.6054688 C6.02009912,40.6054688 5.4140625,41.2115054 5.4140625,41.9589844 C5.4140625,42.7064634 6.02009912,43.3125 6.76757812,43.3125 L8.12109375,43.3125 C8.86857275,43.3125 9.47460938,42.7064634 9.47460938,41.9589844 C9.47460938,41.2115054 8.86857275,40.6054688 8.12109375,40.6054688 Z" id="Path"></path>
                            <path d="M36.5449219,28.4238281 C38.352542,28.4238281 40.05205,29.1276563 41.3302764,30.4060518 C41.8588242,30.9344304 42.7157688,30.9344304 43.2443167,30.4060518 C43.7730337,29.8773347 43.7730337,29.0205593 43.2443167,28.4918423 C39.5502341,24.7977598 33.5392712,24.7980981 29.8453579,28.4918423 C28.0558411,30.2813591 27.0703125,32.6606704 27.0703125,35.1914063 C27.0703125,37.7221421 28.0558411,40.1014534 29.8453579,41.8911394 C31.6923992,43.7381807 34.1185759,44.6616167 36.5449219,44.6616167 C38.9712678,44.6616167 41.3974446,43.7381807 43.2444858,41.8911394 C43.7732029,41.3624224 43.7732029,40.505647 43.2444858,39.9769299 C42.715938,39.4485513 41.8589934,39.4485513 41.3304456,39.9769299 C40.05205,41.2551563 38.352542,41.9589844 36.5449219,41.9589844 C34.7373018,41.9589844 33.0377937,41.2551563 31.7595674,39.9767607 C30.4813411,38.6985344 29.7773438,36.9991956 29.7773438,35.1914063 C29.7773438,33.3836169 30.4813411,31.6842781 31.7595674,30.4060518 C33.0377937,29.1276563 34.7373018,28.4238281 36.5449219,28.4238281 Z" id="Path"></path>
                            <path d="M55.4976936,38.6882139 C57.8874946,37.642623 59.5614551,35.2553599 59.5614551,32.484375 C59.5614551,28.7527324 56.5255195,25.7167969 52.793877,25.7167969 L47.3730469,25.7167969 C46.6255679,25.7167969 46.0195312,26.3228335 46.0195312,27.0703125 C46.0195312,27.1156553 46.0217307,27.1604905 46.0261296,27.2048181 L46.0261296,43.3125 C46.0261296,44.059979 46.6321663,44.6660156 47.3796453,44.6660156 C48.1271243,44.6660156 48.7331609,44.059979 48.7331609,43.3125 L48.7331609,28.4238281 L52.7937078,28.4238281 C55.0325918,28.4238281 56.8542546,30.245491 56.8542546,32.484375 C56.8542546,34.723259 55.0325918,36.5449219 52.7937078,36.5449219 C52.2462107,36.5449219 51.7526851,36.8746721 51.5432285,37.3803794 C51.333772,37.8860867 51.4494976,38.4684368 51.836603,38.8555422 L57.2506655,44.2696047 C57.5149395,44.5338787 57.8612703,44.6660156 58.2077703,44.6660156 C58.5542703,44.6660156 58.9006011,44.5338787 59.164875,44.2696047 C59.693592,43.7408877 59.693592,42.8841123 59.164875,42.3553953 L55.4976936,38.6882139 Z" id="Path"></path>
                            <path d="M77.4965522,25.7601094 C76.8994827,25.606147 76.2733125,25.8738047 75.9738472,26.4130115 L70.3894109,36.4648953 L64.8049746,26.4130115 C64.5055093,25.8736355 63.8795083,25.6051318 63.2822695,25.7601094 C62.6852,25.9147485 62.2683171,26.4536169 62.2683171,27.0703125 L62.2683171,43.3125 C62.2683171,44.059979 62.8743538,44.6660156 63.6218328,44.6660156 C64.3693118,44.6660156 64.9753484,44.059979 64.9753484,43.3125 L64.9753484,32.2936985 L69.206269,39.9092542 C69.4449954,40.3389954 69.8979155,40.6054688 70.3894109,40.6054688 C70.8809063,40.6054688 71.3339956,40.3389954 71.5725527,39.9092542 L75.8034734,32.2936985 L75.8034734,43.3125 C75.8034734,44.059979 76.40951,44.6660156 77.156989,44.6660156 C77.904468,44.6660156 78.5105046,44.059979 78.5105046,43.3125 L78.5105046,27.0703125 C78.5105046,26.4534478 78.0936218,25.9147485 77.4965522,25.7601094 Z" id="Path"></path>
                        </g>
                    </g>
                </g>
            </g>
        </g>
    </g>
</svg>