<?xml version="1.0" encoding="UTF-8"?>
<svg width="160px" height="80px" viewBox="0 0 160 80" version="1.1" xmlns="http://www.w3.org/2000/svg" xmlns:xlink="http://www.w3.org/1999/xlink">
    <title>Group 73</title>
    <defs>
        <path d="M21.7168873,15.2685992 C22.1124498,14.9515433 21.9146686,14.5125428 21.9146686,14.1467091 C21.9393913,9.8542602 21.9393913,5.53742236 21.9146686,1.24497344 C21.9146686,0.342583604 22.0630045,-0.0232501109 23.1013561,0.00113880341 C26.2905788,0.0499166321 26.2905788,0.00113880341 26.2905788,3.19608658 C26.2905788,5.58620019 26.2905788,7.9763138 26.2905788,10.3420385 C26.8097546,10.488372 26.9333679,10.0981493 27.1558718,9.90303803 C31.3092781,6.46420111 38.2068994,6.85442374 41.8905752,10.75665 C43.4975479,12.463874 44.2886729,14.5125428 44.4370089,16.8051008 C44.4864542,17.609935 44.4617315,18.4391581 44.4617315,19.2439922 C44.2886729,19.9756597 44.1156143,20.7073271 43.9425557,21.4146056 C42.6075323,24.5119977 40.4566611,26.707 37.0696572,27.5118342 C33.2376454,28.414224 29.7270281,27.8288901 26.710864,25.1461095 C26.5872507,25.0485538 26.4636374,24.9753871 26.3400241,24.8778314 C26.2658562,24.999776 26.1916882,25.0485538 26.1916882,25.0973317 C26.0927976,27.1947783 26.0927976,27.1947783 23.9666491,27.1947783 C21.7663327,27.1947783 21.815778,27.1947783 21.8899459,25.0485538 C21.9641139,22.9754961 21.8899459,20.9024384 21.8899459,18.8293807 C22.0135592,17.6343239 21.8405006,16.463656 21.7168873,15.2685992 Z M33.0151415,10.5371498 C28.9359031,10.5615387 26.2411335,13.4394306 26.2658562,17.7318795 C26.2905788,21.9999396 29.0347937,24.9509982 33.0645868,24.975529 C37.0696572,24.999776 39.962208,21.877995 39.9127627,17.6343239 C39.8633174,13.3662639 37.0943798,10.5127609 33.0151415,10.5371498 Z" id="path-1"></path>
        <filter x="-96.7%" y="-71.7%" width="293.4%" height="257.7%" filterUnits="objectBoundingBox" id="filter-2">
            <feOffset dx="0" dy="2" in="SourceAlpha" result="shadowOffsetOuter1"></feOffset>
            <feGaussianBlur stdDeviation="7" in="shadowOffsetOuter1" result="shadowBlurOuter1"></feGaussianBlur>
            <feColorMatrix values="0 0 0 0 0.937254902   0 0 0 0 0.756862745   0 0 0 0 0.305882353  0 0 0 0.299606643 0" type="matrix" in="shadowBlurOuter1"></feColorMatrix>
        </filter>
        <path d="M44.4679122,21.3223407 C44.6396551,20.5785351 44.8113979,19.8347294 44.9831408,19.1157173 C46.7005696,16.2148754 49.5956639,15.6942115 52.5643623,15.3471022 C54.9196932,15.0743735 57.2995589,15.099167 59.6794245,15.1735476 C60.7098818,15.1983411 60.8325553,14.7768513 60.7098818,13.9338716 C60.4890695,12.3222927 59.7039592,11.1569973 58.1337386,10.6363333 C56.4163098,10.0660824 54.6743463,10.0164953 52.9569174,10.5371593 C51.9019255,10.859475 51.0432111,11.479313 50.6506559,12.5702279 C50.5279824,12.9173372 50.4053089,13.1404789 49.9882191,13.1404789 C48.8350883,13.1156854 47.7064922,13.1404789 46.5533614,13.1404789 C46.0381328,13.1404789 45.9645287,12.9421307 46.0872022,12.4462603 C46.5042921,10.6363333 47.559284,9.27268971 49.2031088,8.55367761 C53.2022644,6.8429247 57.2750242,6.81813118 61.3477839,8.35532945 C61.9611514,8.57847114 62.3291718,9.29748323 63.1142821,9.14872211 C63.1142821,9.14872211 63.0897474,9.12392859 63.0897474,9.12392859 C62.8198658,9.47103787 63.1878862,9.54541843 63.3596291,9.71897308 C64.0466006,10.6859204 64.8071763,11.5784871 64.8562457,12.8429567 C65.2488008,14.7520577 65.0279885,16.6859523 65.0770579,18.6198469 C65.1261273,21.2231666 65.0770579,23.8264862 65.150662,26.4298059 C65.150662,27.0000569 65.0770579,27.2975791 64.4636905,27.2231985 C64.341017,27.198405 64.2183435,27.2231985 64.09567,27.2231985 C63.2369556,27.2231985 62.2801024,27.4463402 61.5440615,27.1240245 C60.6362777,26.7273281 61.4459227,25.5372392 60.9306941,24.719053 C60.5136042,25.1157493 60.0965144,25.4876521 59.6794245,25.8347614 C56.5389833,28.4132875 50.3071701,28.6116357 46.9704513,26.2810448 C45.2284878,25.1157493 44.566051,23.3554094 44.4679122,21.3223407 Z M57.1032813,18.0743895 C55.3122484,18.0743895 53.4966808,18.099183 51.7547173,18.5702599 C50.0127538,19.0413368 49.1540394,19.958697 49.10497,21.3719277 C49.0559006,22.9339195 49.8900803,24.1240085 51.5093703,24.719053 C52.7851746,25.1901299 54.0855135,25.1157493 55.3858525,24.9669882 C58.5508284,24.6198789 60.7344165,22.0909398 60.7344165,18.9173692 C60.7344165,18.2975312 60.611743,18.0248024 59.9247715,18.049596 C58.992453,18.1239765 58.0601345,18.0743895 57.1032813,18.0743895 Z" id="path-3"></path>
        <filter x="-106.4%" y="-96.8%" width="312.7%" height="312.9%" filterUnits="objectBoundingBox" id="filter-4">
            <feOffset dx="0" dy="2" in="SourceAlpha" result="shadowOffsetOuter1"></feOffset>
            <feGaussianBlur stdDeviation="7" in="shadowOffsetOuter1" result="shadowBlurOuter1"></feGaussianBlur>
            <feColorMatrix values="0 0 0 0 0.937254902   0 0 0 0 0.756862745   0 0 0 0 0.305882353  0 0 0 0.299606643 0" type="matrix" in="shadowBlurOuter1"></feColorMatrix>
        </filter>
        <path d="M21.5097527,16.0412299 C21.656219,17.2534784 21.8026853,18.4409871 21.656219,19.6779754 C16.3346088,19.6779754 11.0129986,19.7027151 5.69138842,19.6779754 C4.61730196,19.6779754 4.34878035,19.9501128 4.61730196,21.0139227 C5.25198941,23.6363378 7.10722967,25.4176009 9.84126793,25.8876564 C12.5753062,26.3577119 15.089645,25.3681213 16.3834309,23.191022 C16.6519525,22.7457062 16.9448852,22.5725279 17.4575174,22.5972676 C18.3851375,22.6220074 19.3371687,22.6467472 20.2647888,22.5972676 C20.9971205,22.5725279 21.0947647,22.8941448 20.8750652,23.4878992 C20.2159667,25.4423406 18.8977697,26.8277675 17.0913515,27.61944 C13.1367605,29.3264837 9.0845252,29.4254428 5.15434519,27.6441797 C1.44386469,25.9866155 -0.41137556,21.9045542 0.0768455582,17.4513965 C0.833588292,10.6974407 5.37404469,8.14924485 11.598864,8.27294368 C12.8682389,8.29768344 14.1132027,8.44612203 15.3093445,8.84195827 C18.8001255,9.9552477 20.8262431,12.4044844 21.5097527,16.0412299 Z M10.8421212,16.7586831 C12.6241283,16.7586831 14.4061354,16.7092036 16.1881425,16.7834229 C17.0669405,16.8081626 17.2134068,16.4865457 17.0669405,15.719613 C16.7251857,13.7899113 15.6755103,12.4044844 13.8935032,11.6622915 C12.4288399,11.0685371 10.9153544,11.0190576 9.35304681,11.291195 C6.93635227,11.711771 5.17875625,13.4188148 4.64171302,15.818572 C4.49524668,16.4865457 4.56847985,16.7834229 5.34963364,16.7586831 C7.20487389,16.7339433 9.01129203,16.7586831 10.8421212,16.7586831 Z" id="path-5"></path>
        <filter x="-101.3%" y="-96.8%" width="302.6%" height="312.9%" filterUnits="objectBoundingBox" id="filter-6">
            <feOffset dx="0" dy="2" in="SourceAlpha" result="shadowOffsetOuter1"></feOffset>
            <feGaussianBlur stdDeviation="7" in="shadowOffsetOuter1" result="shadowBlurOuter1"></feGaussianBlur>
            <feColorMatrix values="0 0 0 0 0.937254902   0 0 0 0 0.756862745   0 0 0 0 0.305882353  0 0 0 0.299606643 0" type="matrix" in="shadowBlurOuter1"></feColorMatrix>
        </filter>
        <path d="M64.979868,13.3353612 C64.9554009,12.060894 64.1724562,11.1362805 63.4873795,10.1866774 C63.5118465,9.9367819 63.5363135,9.68688636 63.2182422,9.58692815 C63.2182422,9.58692815 63.2427092,9.6119177 63.2427092,9.6119177 C62.9001709,8.73728332 63.0714401,8.51237734 64.0990551,8.36244002 C66.9372299,7.93761761 68.4541854,9.01216841 69.5307345,11.7610193 C70.9253549,15.3345255 72.8337827,18.7081152 74.5220074,22.1566736 C74.6932766,22.5065274 74.9134798,22.8563811 75.2315511,23.3811618 C76.4059683,21.0071542 77.5069844,18.8080734 78.5835334,16.6089927 C79.7579506,14.185006 80.9568348,11.7860089 82.0823179,9.33703261 C82.4003892,8.63732511 82.7918616,8.28747136 83.5748064,8.38742957 C84.6758225,8.53736689 86.241712,7.86264894 86.7799866,8.68730421 C87.195926,9.31204306 86.0215088,10.6114998 85.5321683,11.611082 C81.8621147,19.0079899 78.143127,26.4048977 74.4975404,33.8267952 C74.0081999,34.8513669 73.4209913,35.2262102 72.3444423,35.126252 C71.2923602,35.0262937 70.2402782,35.1012624 68.9924599,35.1012624 C70.1179431,32.9021817 71.1455581,30.8280487 72.2465742,28.8038949 C72.6625136,28.0542083 72.7114476,27.454459 72.2710412,26.6547933 C70.044542,22.5065274 67.8914438,18.3082824 65.7138787,14.1350269 C65.5670765,13.8351523 65.5670765,13.3103716 64.979868,13.3353612 Z" id="path-7"></path>
        <filter x="-92.5%" y="-74.4%" width="285.0%" height="263.7%" filterUnits="objectBoundingBox" id="filter-8">
            <feOffset dx="0" dy="2" in="SourceAlpha" result="shadowOffsetOuter1"></feOffset>
            <feGaussianBlur stdDeviation="7" in="shadowOffsetOuter1" result="shadowBlurOuter1"></feGaussianBlur>
            <feColorMatrix values="0 0 0 0 0.937254902   0 0 0 0 0.756862745   0 0 0 0 0.305882353  0 0 0 0.299606643 0" type="matrix" in="shadowBlurOuter1"></feColorMatrix>
        </filter>
    </defs>
    <g id="Website-Second-Iteration" stroke="none" stroke-width="1" fill="none" fill-rule="evenodd">
        <g id="Customer-Service" transform="translate(-38.000000, -4682.000000)">
            <g id="Group-70" transform="translate(0.000000, 4345.000000)">
                <g id="Group-64" transform="translate(38.000000, 120.000000)">
                    <g id="Group-63" transform="translate(0.000000, 217.000000)">
                        <g id="Group-59">
                            <g id="Group-51">
                                <g id="Group-73">
                                    <rect id="Rectangle" fill="#FFFFFF" x="0" y="0" width="160" height="80" rx="6"></rect>
                                    <g id="Group-61" transform="translate(37.000000, 22.000000)" fill-rule="nonzero">
                                        <g id="Shape">
                                            <use fill="black" fill-opacity="1" filter="url(#filter-2)" xlink:href="#path-1"></use>
                                            <use fill="#0466D2" xlink:href="#path-1"></use>
                                        </g>
                                        <g id="Shape">
                                            <use fill="black" fill-opacity="1" filter="url(#filter-4)" xlink:href="#path-3"></use>
                                            <use fill="#F4B006" xlink:href="#path-3"></use>
                                        </g>
                                        <g id="Shape">
                                            <use fill="black" fill-opacity="1" filter="url(#filter-6)" xlink:href="#path-5"></use>
                                            <use fill="#E5363C" xlink:href="#path-5"></use>
                                        </g>
                                        <g id="Path">
                                            <use fill="black" fill-opacity="1" filter="url(#filter-8)" xlink:href="#path-7"></use>
                                            <use fill="#88B91B" xlink:href="#path-7"></use>
                                        </g>
                                    </g>
                                </g>
                            </g>
                        </g>
                    </g>
                </g>
            </g>
        </g>
    </g>
</svg>