<?xml version="1.0" encoding="UTF-8"?>
<svg width="626px" height="422px" viewBox="0 0 626 422" version="1.1" xmlns="http://www.w3.org/2000/svg" xmlns:xlink="http://www.w3.org/1999/xlink">
    <!-- Generator: Sketch 52.6 (67491) - http://www.bohemiancoding.com/sketch -->
    <title>image card</title>
    <desc>Created with Sketch.</desc>
    <defs>
        <filter x="-42.3%" y="-63.2%" width="184.6%" height="226.3%" filterUnits="objectBoundingBox" id="filter-1">
            <feOffset dx="0" dy="40" in="SourceAlpha" result="shadowOffsetOuter1"></feOffset>
            <feGaussianBlur stdDeviation="30" in="shadowOffsetOuter1" result="shadowBlurOuter1"></feGaussianBlur>
            <feColorMatrix values="0 0 0 0 0   0 0 0 0 0   0 0 0 0 0  0 0 0 0.05 0" type="matrix" in="shadowBlurOuter1" result="shadowMatrixOuter1"></feColorMatrix>
            <feMerge>
                <feMergeNode in="shadowMatrixOuter1"></feMergeNode>
                <feMergeNode in="SourceGraphic"></feMergeNode>
            </feMerge>
        </filter>
        <filter x="-108.0%" y="-108.0%" width="316.0%" height="316.0%" filterUnits="objectBoundingBox" id="filter-2">
            <feOffset dx="0" dy="12" in="SourceAlpha" result="shadowOffsetOuter1"></feOffset>
            <feGaussianBlur stdDeviation="22" in="shadowOffsetOuter1" result="shadowBlurOuter1"></feGaussianBlur>
            <feColorMatrix values="0 0 0 0 0   0 0 0 0 0   0 0 0 0 0  0 0 0 0.05 0" type="matrix" in="shadowBlurOuter1" result="shadowMatrixOuter1"></feColorMatrix>
            <feMerge>
                <feMergeNode in="shadowMatrixOuter1"></feMergeNode>
                <feMergeNode in="SourceGraphic"></feMergeNode>
            </feMerge>
        </filter>
    </defs>
    <g id="Website" stroke="none" stroke-width="1" fill="none" fill-rule="evenodd">
        <g id="Homepage" transform="translate(-149.000000, -2539.000000)">
            <g id="Operations-Section" transform="translate(193.000000, 2238.000000)">
                <g id="Features" transform="translate(0.000000, 320.000000)">
                    <g id="Efficient">
                        <g id="image-card">
                            <g id="card" filter="url(#filter-1)" transform="translate(69.000000, 0.000000)">
                                <g>
                                    <g id="container" fill="#FAFAFA">
                                        <path d="M20.5110816,-8.28672246e-16 L433.488918,8.28672246e-16 C440.621068,-4.81482439e-16 443.207358,0.742604889 445.814766,2.13706163 C448.422173,3.53151837 450.468482,5.57782696 451.862938,8.18523437 C453.257395,10.7926418 454,13.3789317 454,20.5110816 L454,283.488918 C454,290.621068 453.257395,293.207358 451.862938,295.814766 C450.468482,298.422173 448.422173,300.468482 445.814766,301.862938 C443.207358,303.257395 440.621068,304 433.488918,304 L20.5110816,304 C13.3789317,304 10.7926418,303.257395 8.18523437,301.862938 C5.57782696,300.468482 3.53151837,298.422173 2.13706163,295.814766 C0.742604889,293.207358 3.20988293e-16,290.621068 -5.52448164e-16,283.488918 L5.52448164e-16,20.5110816 C-3.20988293e-16,13.3789317 0.742604889,10.7926418 2.13706163,8.18523437 C3.53151837,5.57782696 5.57782696,3.53151837 8.18523437,2.13706163 C10.7926418,0.742604889 13.3789317,4.81482439e-16 20.5110816,-8.28672246e-16 Z" id="reactangle"></path>
                                    </g>
                                    <g id="top">
                                        <g>
                                            <path d="M20.5110816,-8.28672246e-16 L433.488918,8.28672246e-16 C440.621068,-4.81482439e-16 443.207358,0.742604889 445.814766,2.13706163 C448.422173,3.53151837 450.468482,5.57782696 451.862938,8.18523437 C453.257395,10.7926418 454,13.3789317 454,20.5110816 L454,44 L0,44 L5.52448164e-16,20.5110816 C-3.20988293e-16,13.3789317 0.742604889,10.7926418 2.13706163,8.18523437 C3.53151837,5.57782696 5.57782696,3.53151837 8.18523437,2.13706163 C10.7926418,0.742604889 13.3789317,4.81482439e-16 20.5110816,-8.28672246e-16 Z" id="ðŸŒ¥-0%"></path>
                                            <path d="M20.5110816,-8.28672246e-16 L433.488918,8.28672246e-16 C440.621068,-4.81482439e-16 443.207358,0.742604889 445.814766,2.13706163 C448.422173,3.53151837 450.468482,5.57782696 451.862938,8.18523437 C453.257395,10.7926418 454,13.3789317 454,20.5110816 L454,44 L0,44 L5.52448164e-16,20.5110816 C-3.20988293e-16,13.3789317 0.742604889,10.7926418 2.13706163,8.18523437 C3.53151837,5.57782696 5.57782696,3.53151837 8.18523437,2.13706163 C10.7926418,0.742604889 13.3789317,4.81482439e-16 20.5110816,-8.28672246e-16 Z" id="â˜˜ï¸-Card-" fill="#FFFFFF"></path>
                                        </g>
                                        <g id="icon" transform="translate(418.000000, 14.000000)">
                                            <g id="More">
                                                <rect id="bound" x="0" y="0" width="16" height="16"></rect>
                                                <path d="M3.33333333,9.33333333 C2.59695367,9.33333333 2,8.73637967 2,8 C2,7.26362033 2.59695367,6.66666667 3.33333333,6.66666667 C4.069713,6.66666667 4.66666667,7.26362033 4.66666667,8 C4.66666667,8.73637967 4.069713,9.33333333 3.33333333,9.33333333 Z M12.6666667,9.33333333 C11.930287,9.33333333 11.3333333,8.73637967 11.3333333,8 C11.3333333,7.26362033 11.930287,6.66666667 12.6666667,6.66666667 C13.4030463,6.66666667 14,7.26362033 14,8 C14,8.73637967 13.4030463,9.33333333 12.6666667,9.33333333 Z" id="Main" fill="#040A45"></path>
                                            </g>
                                        </g>
                                    </g>
                                </g>
                            </g>
                            <g id="chart" transform="translate(69.000000, 110.897338)">
                                <g id="Column-Line-Copy" transform="translate(75.000000, 0.102662)" fill="#F7F8FA">
                                    <rect id="2" x="0.249038621" y="0" width="1" height="111.334451"></rect>
                                    <rect id="3" x="75.1997021" y="0" width="1" height="111.334451"></rect>
                                    <rect id="4" x="150.907443" y="0" width="1" height="111.334451"></rect>
                                    <rect id="5" x="225.858106" y="0" width="1" height="111.334451"></rect>
                                    <rect id="6" x="301.565847" y="0" width="1" height="111.334451"></rect>
                                </g>
                                <g id="Row-Line-Copy" transform="translate(0.000000, 0.102662)">
                                    <rect id="line-copy-2" stroke="#F7F8FA" x="0.5" y="0.5" width="452.421079" height="110.334451" rx="11"></rect>
                                    <rect id="line-copy-3" fill="#F7F8FA" x="0" y="37.3605541" width="453.421079" height="1"></rect>
                                    <rect id="line-copy-4" fill="#F7F8FA" x="0" y="73.9738972" width="453.421079" height="1"></rect>
                                </g>
                                <path d="M0,29.3817878 L13.1780104,43.9339895 C16.0071871,47.0581902 19.5195023,49.4869832 23.4412974,51.0311314 L23.4412974,51.0311314 C27.2734052,52.5399665 30.3924708,55.4432306 32.17172,59.1575146 L34.2379947,63.4709808 C37.363262,69.9951543 42.6614783,75.2284231 49.2237011,78.2729867 L60.3422382,83.4314666 C60.5718272,83.5379851 60.8010109,83.6453749 61.0297845,83.7536335 L71.7574672,88.830114 C77.9721221,91.7709703 85.4018682,89.3530267 88.695349,83.3178336 L96.429661,69.1449661 C98.7810503,64.8361241 102.893854,61.7662818 107.693516,60.7374994 L107.693516,60.7374994 C112.58583,59.6888578 116.972061,56.997818 120.123411,53.111512 L126.743836,44.9470754 C127.825834,43.6127346 128.942036,42.3064969 130.091332,41.0296629 L140.348594,29.6341377 C146.757266,22.5142863 157.305322,20.9182694 165.533489,25.8234338 L172.783364,30.1453967 C177.381228,32.8863814 182.191751,35.2537648 187.168563,37.2247267 L187.359124,37.3001942 C192.245169,39.2352098 196.095006,43.1317413 197.970977,48.040759 L203.392415,62.2275077 C204.70031,65.6499909 206.939609,68.6383178 209.857135,70.8546267 L209.857135,70.8546267 C212.744537,73.0480526 214.788403,76.1690047 215.644893,79.6924459 L215.715733,79.9838679 C216.566161,83.4823758 219.37229,86.1676759 222.904818,86.8633998 L224.429741,87.16373 C229.281616,88.1192964 234.249509,88.3406033 239.167132,87.8202431 L241.674259,87.5549505 C246.560113,87.037952 251.221745,85.2356067 255.184618,82.3313871 L256.41087,81.43272 C259.57641,79.1128318 263.273571,77.6245303 267.163532,77.1042095 L267.163532,77.1042095 C271.010441,76.5896472 274.584431,74.8340225 277.342976,72.1038364 L280.140975,69.3346014 C284.721561,64.8011051 290.624449,61.8407079 296.997289,60.8808775 L303.615246,59.8841293 C306.872925,59.3934815 309.796294,57.6130121 311.727042,54.9436633 L311.727042,54.9436633 C313.242677,52.8482268 316.170029,52.3782049 318.265465,53.8938401 C318.385795,53.9808747 318.501916,54.0735842 318.613434,54.1716545 L324.272539,59.1483143 C327.787708,62.2395808 331.751656,64.7794801 336.028989,66.6812592 L337.107421,67.1607494 C340.613198,68.7194805 343.583834,71.2737522 345.650376,74.5063232 L345.650376,74.5063232 C347.650676,77.6352751 350.976699,79.6727325 354.672849,80.0333146 L357.132096,80.2732292 C362.631198,80.8097005 368.181835,80.3707389 373.528257,78.9765699 L376.573747,78.1824072 C381.247893,76.9635454 386.131407,76.7772085 390.884841,77.6363487 L393.119524,78.0402473 C396.288899,78.6130831 399.552203,77.8082161 402.091723,75.8273286 L402.091723,75.8273286 C404.702527,73.7908383 407.821386,72.5085727 411.109612,72.1197782 L413.512519,71.8356624 C417.761696,71.3332467 421.684168,69.3058747 424.551549,66.130021 L424.551549,66.130021 C427.459023,62.9097602 431.2072,60.5644433 435.374629,59.3577817 L437.328734,58.7919786 C442.65997,57.2483411 447.154895,53.6412551 449.816456,48.7708351 L453,42.945232" id="Path-34-Copy" stroke="#50CBFA" stroke-width="2" fill-rule="nonzero"></path>
                                <path d="M0,80.1026616 L3.09309218,78.1046031 C7.0348366,75.558337 9.88287616,71.6310705 11.0784538,67.0932941 L11.0784538,67.0932941 C12.3110726,62.4149289 14.2048145,57.9363367 16.7024451,53.7928729 L18.8214503,50.2775328 C19.9889763,48.3406565 22.5055915,47.7169749 24.4424677,48.8845009 C25.4893835,49.5155692 26.1996195,50.5813576 26.3790291,51.7905276 L28.2574961,64.4508578 C28.8513913,68.4535415 32.5776547,71.2169106 36.5803383,70.6230154 C37.4851084,70.4887708 38.3567427,70.1863001 39.1501844,69.7312387 L41.0117899,68.6635549 C45.4281567,66.1306427 50.9868662,66.8205368 54.6500582,70.3562069 L54.6500582,70.3562069 C58.6100127,74.1783087 63.9233795,76.2751473 69.4262882,76.1874193 L73.3506646,76.1248564 C81.039668,76.0022773 88.0184722,71.601928 91.4434738,64.7167872 L94.2739029,59.0268912 C96.9438819,53.6595416 100.091091,48.5431512 103.677512,43.739526 L109.477344,35.9712742 C112.864451,31.4346092 119.287937,30.5027079 123.824601,33.8898144 C124.812932,34.6277091 125.659987,35.537906 126.325045,36.5766477 L127.296185,38.0934533 C130.441755,43.0064629 136.974525,44.4392556 141.887534,41.2936853 C142.501667,40.900485 143.073431,40.444746 143.593679,39.9337598 L144.47166,39.0714095 C149.503764,34.1288929 157.112509,32.9122071 163.434955,36.0390604 L168.044821,38.3189337 C171.843062,40.1974064 174.702637,43.5539851 175.953738,47.6024467 L175.953738,47.6024467 C177.229514,51.7307533 179.738626,55.3695102 183.143748,58.0295213 L185.595128,59.9444888 C190.644934,63.8892923 196.554611,66.5863655 202.84343,67.8163121 L218.296613,70.8385949 C227.481294,72.6349047 236.983382,71.8650577 245.759102,68.6136195 L251.037764,66.6578545 C256.454192,64.6510467 262.034312,63.1173095 267.715524,62.0738495 L269.620073,61.7240436 C276.358146,60.4864712 283.316646,61.7021913 289.235939,65.1511329 L294.309822,68.1074876 C299.367059,71.0541429 305.066906,72.7223221 310.914847,72.9672942 L310.914847,72.9672942 C316.730109,73.2108973 322.49404,71.7891111 327.528936,68.869105 L342.385128,60.2532026 C349.490672,56.1323164 357.623471,54.1217712 365.830663,54.4571284 L371.25476,54.6787644 C375.903319,54.8687109 380.380873,56.4843083 384.079737,59.3062904 L384.079737,59.3062904 C387.82908,62.1667847 392.121619,64.2338778 396.695758,65.3815969 L397.410135,65.5608447 C402.487507,66.8348325 407.380658,68.7543199 411.969999,71.2723938 L416.352429,73.6769401 C423.765951,77.7445819 432.074303,79.905667 440.530212,79.9658217 L453,80.054531" id="Path-35-Copy" stroke="#FE8800" stroke-width="2" fill-rule="nonzero"></path>
                            </g>
                            <g id="small-card" filter="url(#filter-2)" transform="translate(0.000000, 102.000000)">
                                <path d="M20.5110816,-8.28672246e-16 L79.4889184,8.28672246e-16 C86.6210683,-4.81482439e-16 89.2073582,0.742604889 91.8147656,2.13706163 C94.422173,3.53151837 96.4684816,5.57782696 97.8629384,8.18523437 C99.2573951,10.7926418 100,13.3789317 100,20.5110816 L100,79.4889184 C100,86.6210683 99.2573951,89.2073582 97.8629384,91.8147656 C96.4684816,94.422173 94.422173,96.4684816 91.8147656,97.8629384 C89.2073582,99.2573951 86.6210683,100 79.4889184,100 L20.5110816,100 C13.3789317,100 10.7926418,99.2573951 8.18523437,97.8629384 C5.57782696,96.4684816 3.53151837,94.422173 2.13706163,91.8147656 C0.742604889,89.2073582 3.20988293e-16,86.6210683 -5.52448164e-16,79.4889184 L5.52448164e-16,20.5110816 C-3.20988293e-16,13.3789317 0.742604889,10.7926418 2.13706163,8.18523437 C3.53151837,5.57782696 5.57782696,3.53151837 8.18523437,2.13706163 C10.7926418,0.742604889 13.3789317,4.81482439e-16 20.5110816,-8.28672246e-16 Z" id="Card-" fill="#FFF1D2"></path>
                                <g id="icon" transform="translate(20.000000, 20.000000)" fill="#FEC93D" fill-rule="nonzero">
                                    <path d="M44,60 C43.7415385,60 43.4830769,59.9175 43.264,59.7525 C42.6387692,59.28 28,48.0775 28,39.075 C28,34.07 32.0098462,30 36.9378462,30 C39.744,30 42.3335385,31.3275 44,33.51 C45.6664615,31.3275 48.256,30 51.0621538,30 C55.9901538,30 60,34.07 60,39.075 C60,48.0775 45.3612308,59.28 44.736,59.7525 C44.5169231,59.9175 44.2584615,60 44,60 Z M36.9378462,32.5 C33.3686154,32.5 30.4615385,35.45 30.4615385,39.075 C30.4615385,45.15 39.6258462,53.6975 44,57.175 C48.3716923,53.695 57.5384615,45.1425 57.5384615,39.075 C57.5384615,35.45 54.6313846,32.5 51.0621538,32.5 C48.4824615,32.5 46.1538462,34.0475 45.1298462,36.445 C44.736,37.3575 43.264,37.3575 42.8701538,36.445 C41.8461538,34.0475 39.5175385,32.5 36.9378462,32.5 Z" id="Shape"></path>
                                    <path d="M26.25,53 L6.25,53 C2.8025,53 0,50.1682857 0,46.6904762 L0,6.30952381 C0,2.83171429 2.8025,0 6.25,0 L33.75,0 C37.1975,0 40,2.83171429 40,6.30952381 L40,23.9761905 C40,24.6727619 39.44,25.2380952 38.75,25.2380952 C38.06,25.2380952 37.5,24.6727619 37.5,23.9761905 L37.5,6.30952381 C37.5,4.22233333 35.8175,2.52380952 33.75,2.52380952 L6.25,2.52380952 C4.1825,2.52380952 2.5,4.22233333 2.5,6.30952381 L2.5,46.6904762 C2.5,48.7776667 4.1825,50.4761905 6.25,50.4761905 L26.25,50.4761905 C26.94,50.4761905 27.5,51.0415238 27.5,51.7380952 C27.5,52.4346667 26.94,53 26.25,53 Z" id="Path"></path>
                                    <path d="M23.25,33 C22.56,33 22,32.44 22,31.75 L22,14.25 C22,13.56 22.56,13 23.25,13 L30.75,13 C31.44,13 32,13.56 32,14.25 L32,25.55 C32,26.24 31.44,26.8 30.75,26.8 C30.06,26.8 29.5,26.24 29.5,25.55 L29.5,15.5 L24.5,15.5 L24.5,31.75 C24.5,32.44 23.94,33 23.25,33 Z" id="Path"></path>
                                    <path d="M15.75,38 L8.25,38 C7.56,38 7,37.44 7,36.75 L7,24.25 C7,23.56 7.56,23 8.25,23 L15.75,23 C16.44,23 17,23.56 17,24.25 L17,36.75 C17,37.44 16.44,38 15.75,38 Z M9.5,35.5 L14.5,35.5 L14.5,25.5 L9.5,25.5 L9.5,35.5 Z" id="Shape"></path>
                                    <path d="M20.7891738,38 L6.21082621,38 C5.54245014,38 5,37.552 5,37 C5,36.448 5.54245014,36 6.21082621,36 L20.7891738,36 C21.4575499,36 22,36.448 22,37 C22,37.552 21.4575499,38 20.7891738,38 Z" id="Path"></path>
                                </g>
                            </g>
                        </g>
                    </g>
                </g>
            </g>
        </g>
    </g>
</svg>