<svg width="30" height="30" viewBox="0 0 30 30" fill="none" xmlns="http://www.w3.org/2000/svg">
<path fill-rule="evenodd" clip-rule="evenodd" d="M3.75 0H26.25C28.3181 0 30 1.68187 30 3.75V26.25C30 28.3181 28.3181 30 26.25 30H20.625V19.6875H23.4375L25.3125 15H20.625V11.25C20.625 10.2987 21.3347 10.3041 22.2532 10.3112C22.334 10.3119 22.4163 10.3125 22.5 10.3125H24.375V5.625H20.625C17.5181 5.625 15 8.14313 15 11.25V15H11.25V19.6875H15V30H3.75C1.68187 30 0 28.3181 0 26.25V3.75C0 1.68187 1.68187 0 3.75 0Z" fill="#46B8C8"/>
</svg>
