<?xml version="1.0" encoding="UTF-8"?>
<svg width="675px" height="505px" viewBox="0 0 675 505" version="1.1" xmlns="http://www.w3.org/2000/svg" xmlns:xlink="http://www.w3.org/1999/xlink">
    <!-- Generator: Sketch 52.6 (67491) - http://www.bohemiancoding.com/sketch -->
    <title>filters</title>
    <desc>Created with Sketch.</desc>
    <defs>
        <rect id="path-1" x="0" y="0" width="557" height="387" rx="20"></rect>
        <filter x="-18.0%" y="-20.7%" width="135.9%" height="151.7%" filterUnits="objectBoundingBox" id="filter-2">
            <feOffset dx="0" dy="20" in="SourceAlpha" result="shadowOffsetOuter1"></feOffset>
            <feGaussianBlur stdDeviation="30" in="shadowOffsetOuter1" result="shadowBlurOuter1"></feGaussianBlur>
            <feColorMatrix values="0 0 0 0 0   0 0 0 0 0   0 0 0 0 0  0 0 0 0.1 0" type="matrix" in="shadowBlurOuter1"></feColorMatrix>
        </filter>
    </defs>
    <g id="Website" stroke="none" stroke-width="1" fill="none" fill-rule="evenodd">
        <g id="Features" transform="translate(-673.000000, -3548.000000)">
            <g id="Translation-Management-Section" transform="translate(150.000000, 3379.000000)">
                <g id="feature" transform="translate(0.000000, 179.000000)">
                    <g id="filters" transform="translate(582.000000, 29.000000)">
                        <g id="Rectangle">
                            <use fill="black" fill-opacity="1" filter="url(#filter-2)" xlink:href="#path-1"></use>
                            <use fill="#F4F4F4" fill-rule="evenodd" xlink:href="#path-1"></use>
                        </g>
                        <rect id="Rectangle" fill="#FFFFFF" x="12" y="106" width="140" height="281" rx="2"></rect>
                        <path d="M20,0 L537,0 C548.045695,-2.02906125e-15 557,8.954305 557,20 L557,42 L0,42 L0,20 C-1.3527075e-15,8.954305 8.954305,2.02906125e-15 20,0 Z" id="Rectangle" fill="#3D566E"></path>
                        <text id="Filters" font-family="Helvetica" font-size="16" font-weight="normal" fill="#52677D">
                            <tspan x="12" y="69">Filters</tspan>
                        </text>
                        <g id="Group-37" transform="translate(22.000000, 116.000000)">
                            <text id="Search" font-family="Helvetica" font-size="14" font-weight="normal" fill="#52677D">
                                <tspan x="0" y="14">Search</tspan>
                            </text>
                            <text id="Enter-a-title,-PO-co" font-family="Helvetica" font-size="10" font-weight="normal" fill="#52677D">
                                <tspan x="0" y="52">Enter a title, PO code</tspan>
                            </text>
                            <text id="Language-pair" font-family="Helvetica" font-size="10" font-weight="normal" fill="#52677D">
                                <tspan x="0" y="107">Language pair</tspan>
                            </text>
                            <rect id="Rectangle-Copy" stroke="#DEDEDE" stroke-width="0.6" x="0.3" y="116.3" width="119.4" height="15.4" rx="2"></rect>
                            <text id="Any-language" font-family="Helvetica" font-size="9" font-weight="normal" fill="#7D7D7D">
                                <tspan x="5" y="128">Any language</tspan>
                            </text>
                            <text id="Date-range" font-family="Helvetica" font-size="10" font-weight="normal" fill="#52677D">
                                <tspan x="0" y="162">Date range</tspan>
                            </text>
                            <rect id="Rectangle-Copy" stroke="#DEDEDE" stroke-width="0.6" x="0.3" y="171.3" width="119.4" height="15.4" rx="2"></rect>
                            <text id="Jun-19,-2020---Oct-2" font-family="Helvetica" font-size="9" font-weight="normal" fill="#7D7D7D">
                                <tspan x="5" y="182">Jun 19, 2020 - Oct 2021</tspan>
                            </text>
                            <text id="Quality" font-family="Helvetica" font-size="10" font-weight="normal" fill="#52677D">
                                <tspan x="0" y="217">Quality</tspan>
                            </text>
                            <rect id="Rectangle-Copy" stroke="#DEDEDE" stroke-width="0.6" x="0.3" y="226.3" width="119.4" height="15.4" rx="2"></rect>
                            <text id="Any" font-family="Helvetica" font-size="9" font-weight="normal" fill="#7D7D7D">
                                <tspan x="5" y="237">Any</tspan>
                            </text>
                            <g id="icons" transform="translate(109.000000, 232.000000)" fill="#0A1243" fill-rule="nonzero">
                                <g id="next" transform="translate(3.000000, 2.111111) rotate(90.000000) translate(-3.000000, -2.111111) translate(1.333333, -0.666667)">
                                    <path d="M3.24282857,2.56099996 L0.717896742,0.088752666 C0.659498151,0.0315263923 0.581541106,0 0.498417676,0 C0.415294247,0 0.337337202,0.0315263923 0.278938611,0.088752666 L0.0929949131,0.270774673 C-0.0279999565,0.389382561 -0.0279999565,0.582154255 0.0929949131,0.700581477 L2.21324203,2.77662603 L0.0906423632,4.85497408 C0.0322437719,4.91220035 0,4.988487 0,5.06983231 C0,5.15126797 0.0322437719,5.22755461 0.0906423632,5.28482605 L0.276586061,5.46680289 C0.335030781,5.52402916 0.412941697,5.55555556 0.496065127,5.55555556 C0.579188556,5.55555556 0.657145601,5.52402916 0.715544192,5.46680289 L3.24282857,2.99229726 C3.30136554,2.93489032 3.33351706,2.85824234 3.33333254,2.77676153 C3.33351706,2.69496454 3.30136554,2.61836173 3.24282857,2.56099996 Z" id="Path"></path>
                                </g>
                            </g>
                            <rect id="Rectangle" stroke="#DEDEDE" stroke-width="0.6" x="0.3" y="61.3" width="119.4" height="15.4" rx="2"></rect>
                        </g>
                        <g id="Group-2" transform="translate(329.000000, 106.000000)">
                            <rect id="Rectangle" fill="#FFFFFF" x="0" y="0" width="133" height="75" rx="2"></rect>
                            <rect id="Rectangle" fill="#C8CFD5" x="29" y="15" width="75" height="23"></rect>
                            <rect id="Rectangle" fill="#F3F3F3" x="17" y="45" width="98" height="15"></rect>
                        </g>
                        <g id="Group-2-Copy-2" transform="translate(167.000000, 106.000000)">
                            <rect id="Rectangle" fill="#FFFFFF" x="0" y="0" width="133" height="75" rx="2"></rect>
                            <rect id="Rectangle" fill="#C8CFD5" x="29" y="15" width="75" height="23"></rect>
                            <rect id="Rectangle" fill="#F3F3F3" x="17" y="45" width="98" height="15"></rect>
                        </g>
                        <path d="M170,234 L557,234 L557,367.94852 C557,378.994215 548.045695,387.94852 537,387.94852 C536.982862,387.94852 536.965724,387.948498 536.948586,387.948454 L168,387 L168,236 C168,234.895431 168.895431,234 170,234 Z" id="Rectangle" fill="#FFFFFF"></path>
                        <g id="chart" transform="translate(167.000000, 251.788870)">
                            <g id="column" transform="translate(0.000000, 29.211130)">
                                <g id="Charts-line" transform="translate(0.609293, 0.304610)">
                                    <path d="M1.73613641,81.1274779 C12.7431081,59.0554936 23.8461673,48.2888675 35.0453139,48.8275995 C51.8440339,49.6356976 54.9276521,96.9660615 65.5431365,96.9660615 C76.1586209,96.9660615 90.0551474,63.3852912 99.571821,56.5613732 C109.088495,49.7374553 118.851674,56.4774815 129.99839,50.647311 C141.145106,44.8171404 152.943691,15.1629375 164.098328,15.1629375 C173.203031,15.1629375 183.842658,45.1004453 194.453643,48.8275995 C208.23346,53.6678197 215.948609,22.8249469 229.215612,48.1923182 C242.482614,73.5596895 248.338674,86.1316844 258.908896,84.2280813 C269.479119,82.3244782 282.977112,3.76145417e-16 295.227039,0 C303.393658,0 312.988779,16.5791131 324.012402,49.7373392 C332.712689,72.7462886 343.934505,81.8448846 357.677849,77.0331271 C371.421193,72.2213697 381.684102,55.6006396 388.466573,27.1709368" id="Path-2" stroke="#53A9E6" stroke-width="2" stroke-linecap="round"></path>
                                    <path d="M0,81.9925573 C11.0736081,59.920573 22.2438853,49.1539468 33.5108318,49.6926789 C50.4112514,50.500777 53.5135379,97.8311409 64.1932886,97.8311409 C74.8730393,97.8311409 88.8536956,64.2503706 98.4279832,57.4264526 C108.002271,50.6025346 117.824557,57.3425609 129.038755,51.5123903 C140.252953,45.6822198 152.122967,16.0280169 163.345135,16.0280169 C172.504958,16.0280169 183.208997,45.9655246 193.884221,49.6926789 C207.747461,54.532899 215.509318,23.6900262 228.856639,49.0573976 C242.203961,74.4247689 248.095473,86.9967638 258.729687,85.0931607 C269.363902,83.1895575 282.943612,0.865079365 295.267701,0.865079365 C303.48376,0.865079365 313.13697,17.4441924 324.227331,50.6024186 C332.98029,73.611368 344.270042,82.7099639 358.096589,77.8982065 C371.923136,73.0864491 382.248176,56.465719 389.071709,28.0360162 L389.584636,86.302818 C389.681868,97.348085 380.806733,106.380866 369.761466,106.478098 C369.688634,106.478739 369.6158,106.478982 369.542966,106.478828 L0.390707033,105.69539 L0,81.9925573 Z" id="Path-2" fill-opacity="0.2" fill="#79DFFF"></path>
                                    <ellipse id="Oval" stroke="#53A9E6" stroke-width="2" fill="#FAFAFA" cx="163.595918" cy="15.326819" rx="5.06460276" ry="5.62301587"></ellipse>
                                </g>
                                <path d="M31.1411422,61.1958579 L40.1680716,61.1958579 C44.5863496,61.1958579 48.1680716,64.7775799 48.1680716,69.1958579 L48.1680716,105.778789 L23.1411422,105.778789 L23.1411422,69.1958579 C23.1411422,64.7775799 26.7228642,61.1958579 31.1411422,61.1958579 Z" id="1" fill="#5BC689"></path>
                                <path d="M95.6676493,57.1999998 L104.694579,57.1999998 C109.112857,57.1999998 112.694579,60.7817218 112.694579,65.1999998 L112.694579,106.332209 L87.6676493,106.332209 L87.6676493,65.1999998 C87.6676493,60.7817218 91.2493713,57.1999998 95.6676493,57.1999998 Z" id="2" fill="#5BC689"></path>
                                <path d="M160.194156,36.1999998 L169.221086,36.1999998 C173.639364,36.1999998 177.221086,39.7817218 177.221086,44.1999998 L177.221086,106.258891 L152.194156,106.258891 L152.194156,44.1999998 C152.194156,39.7817218 155.775878,36.1999998 160.194156,36.1999998 Z" id="3" fill="#5BC689"></path>
                                <path d="M224.720663,66.7451365 L233.747593,66.7451365 C238.165871,66.7451365 241.747593,70.3268585 241.747593,74.7451365 L241.747593,106.778789 L216.720663,106.778789 L216.720663,74.7451365 C216.720663,70.3268585 220.302385,66.7451365 224.720663,66.7451365 Z" id="4" fill="#5BC689"></path>
                                <path d="M289.24717,79.4831168 L298.2741,79.4831168 C302.692378,79.4831168 306.2741,83.0648388 306.2741,87.4831168 L306.2741,106.778789 L281.24717,106.778789 L281.24717,87.4831168 C281.24717,83.0648388 284.828892,79.4831168 289.24717,79.4831168 Z" id="5" fill="#5BC689"></path>
                                <path d="M353.773678,36.7198975 L362.800607,36.7198975 C367.218885,36.7198975 370.800607,40.3016195 370.800607,44.7198975 L370.800607,106.778789 L345.773678,106.778789 L345.773678,44.7198975 C345.773678,40.3016195 349.3554,36.7198975 353.773678,36.7198975 Z" id="6" fill="#5BC689"></path>
                            </g>
                        </g>
                        <g id="Group-2-Copy" transform="translate(483.000000, 106.000000)">
                            <path d="M2,0 L74,0 L74,75 L2,75 C0.8954305,75 1.3527075e-16,74.1045695 0,73 L0,2 C-1.3527075e-16,0.8954305 0.8954305,2.02906125e-16 2,0 Z" id="Rectangle" fill="#FFFFFF"></path>
                            <rect id="Rectangle" fill="#C8CFD5" x="27" y="15" width="47" height="23"></rect>
                            <rect id="Rectangle" fill="#F3F3F3" x="17" y="45" width="57" height="15"></rect>
                        </g>
                        <rect id="Rectangle" fill="#3D566E" x="453" y="52" width="104" height="24"></rect>
                    </g>
                </g>
            </g>
        </g>
    </g>
</svg>