<?xml version="1.0" encoding="UTF-8"?>
<svg width="179px" height="30px" viewBox="0 0 179 30" version="1.1" xmlns="http://www.w3.org/2000/svg" xmlns:xlink="http://www.w3.org/1999/xlink">
    <title>shift_gv_logo_horizontal_fullcolour_print_aw_21oct2014-01</title>
    <g id="Website" stroke="none" stroke-width="1" fill="none" fill-rule="evenodd">
        <g id="Homepage-Second-Iteration" transform="translate(-1117.000000, -975.000000)" fill="#6B7C93" fill-rule="nonzero">
            <g id="shift_gv_logo_horizontal_fullcolour_print_aw_21oct2014-01" transform="translate(1117.000000, 975.000000)">
                <g id="Group">
                    <g transform="translate(130.432927, 7.297297)" id="Path" opacity="0.41531808">
                        <path d="M21.9826211,0.121621622 C21.2105882,0.121621622 20.6010885,0.72972973 20.6010885,1.5 C20.6010885,2.27027027 21.2105882,2.87837838 21.9826211,2.87837838 C22.754654,2.87837838 23.3641536,2.27027027 23.3641536,1.5 C23.3641536,0.72972973 22.7140207,0.121621622 21.9826211,0.121621622"></path>
                        <path d="M18.3256231,1.2972973 C17.5535902,1.2972973 16.9440905,1.90540541 16.9440905,2.67567568 C16.9440905,3.44594595 17.5535902,4.05405405 18.3256231,4.05405405 C19.097656,4.05405405 19.7071557,3.44594595 19.7071557,2.67567568 C19.7071557,1.90540541 19.097656,1.2972973 18.3256231,1.2972973"></path>
                        <path d="M16.090791,4.37837838 C15.3187581,4.37837838 14.7092585,4.98648649 14.7092585,5.75675676 C14.7092585,6.52702703 15.3187581,7.13513514 16.090791,7.13513514 C16.8628239,7.13513514 17.4723236,6.52702703 17.4723236,5.75675676 C17.4723236,4.98648649 16.8221906,4.37837838 16.090791,4.37837838"></path>
                        <path d="M19.4633558,18.7297297 C18.569423,18.7297297 17.8380234,18 17.8380234,17.1081081 C17.8380234,16.2162162 18.569423,15.4864865 19.4633558,15.4864865 C20.3572886,15.4864865 21.0886882,16.2162162 21.0886882,17.1081081 C21.0886882,18 20.3572886,18.7297297 19.4633558,18.7297297"></path>
                        <path d="M10.0364277,16.4594595 C9.22376152,16.4594595 8.53299524,15.8108108 8.53299524,14.9594595 C8.53299524,14.1486486 9.18312821,13.4594595 10.0364277,13.4594595 C10.8490939,13.4594595 11.5398602,14.1486486 11.5398602,14.9594595 C11.5398602,15.8108108 10.8490939,16.4594595 10.0364277,16.4594595"></path>
                        <path d="M14.912425,17.472973 C14.0184922,17.472973 13.2870926,16.7432432 13.2870926,15.8513514 C13.2870926,14.9594595 14.0184922,14.2297297 14.912425,14.2297297 C15.8063578,14.2297297 16.5377574,14.9594595 16.5377574,15.8513514 C16.4971241,16.7432432 15.8063578,17.472973 14.912425,17.472973"></path>
                        <path d="M21.9826211,15.2027027 C21.2105882,15.2027027 20.6010885,14.5945946 20.6010885,13.8243243 C20.6010885,13.0540541 21.2105882,12.4459459 21.9826211,12.4459459 C22.754654,12.4459459 23.3641536,13.0540541 23.3641536,13.8243243 C23.3641536,14.5945946 22.7140207,15.2027027 21.9826211,15.2027027"></path>
                        <path d="M18.3256231,14.027027 C17.5535902,14.027027 16.9440905,13.4189189 16.9440905,12.6486486 C16.9440905,11.8783784 17.5535902,11.2702703 18.3256231,11.2702703 C19.097656,11.2702703 19.7071557,11.8783784 19.7071557,12.6486486 C19.7071557,13.4189189 19.097656,14.027027 18.3256231,14.027027"></path>
                        <path d="M16.090791,10.9459459 C15.3187581,10.9459459 14.7092585,10.3378378 14.7092585,9.56756757 C14.7092585,8.7972973 15.3187581,8.18918919 16.090791,8.18918919 C16.8628239,8.18918919 17.4723236,8.7972973 17.4723236,9.56756757 C17.4723236,10.3378378 16.8221906,10.9459459 16.090791,10.9459459"></path>
                        <path d="M1.42216587,12.2027027 C0.812666213,12.2027027 0.325066485,11.7162162 0.325066485,11.1081081 C0.325066485,10.5 0.812666213,10.0135135 1.42216587,10.0135135 C2.03166553,10.0135135 2.51926526,10.5 2.51926526,11.1081081 C2.51926526,11.7162162 2.03166553,12.2027027 1.42216587,12.2027027"></path>
                        <path d="M5.28233039,14.3918919 C4.55093079,14.3918919 3.98206444,13.7837838 3.98206444,13.0945946 C3.98206444,12.3648649 4.5915641,11.7972973 5.28233039,11.7972973 C6.01372998,11.7972973 6.58259633,12.4054054 6.58259633,13.0945946 C6.58259633,13.7837838 6.01372998,14.3918919 5.28233039,14.3918919"></path>
                        <path d="M25.5989857,1.2972973 C26.3710186,1.2972973 26.9805183,1.90540541 26.9805183,2.67567568 C26.9805183,3.44594595 26.3710186,4.05405405 25.5989857,4.05405405 C24.8269528,4.05405405 24.2174532,3.44594595 24.2174532,2.67567568 C24.2580865,1.90540541 24.8675861,1.2972973 25.5989857,1.2972973"></path>
                        <path d="M27.8744511,4.37837838 C28.646484,4.37837838 29.2559837,4.98648649 29.2559837,5.75675676 C29.2559837,6.52702703 28.646484,7.13513514 27.8744511,7.13513514 C27.1024182,7.13513514 26.4929185,6.52702703 26.4929185,5.75675676 C26.4929185,4.98648649 27.1024182,4.37837838 27.8744511,4.37837838"></path>
                        <path d="M24.461253,18.7297297 C25.3551858,18.7297297 26.0865854,18 26.0865854,17.1081081 C26.0865854,16.2162162 25.3551858,15.4864865 24.461253,15.4864865 C23.5673202,15.4864865 22.8359206,16.2162162 22.8359206,17.1081081 C22.8359206,18 23.5673202,18.7297297 24.461253,18.7297297"></path>
                        <path d="M33.8881811,16.4594595 C34.7008473,16.4594595 35.3916136,15.8108108 35.3916136,14.9594595 C35.3916136,14.1486486 34.7414806,13.4594595 33.8881811,13.4594595 C33.0755149,13.4594595 32.3847486,14.1486486 32.3847486,14.9594595 C32.4253819,15.8108108 33.0755149,16.4594595 33.8881811,16.4594595"></path>
                        <path d="M29.0528171,17.472973 C29.94675,17.472973 30.6781495,16.7432432 30.6781495,15.8513514 C30.6781495,14.9594595 29.94675,14.2297297 29.0528171,14.2297297 C28.1588843,14.2297297 27.4274847,14.9594595 27.4274847,15.8513514 C27.4274847,16.7432432 28.1588843,17.472973 29.0528171,17.472973"></path>
                        <path d="M25.5989857,14.027027 C26.3710186,14.027027 26.9805183,13.4189189 26.9805183,12.6486486 C26.9805183,11.8783784 26.3710186,11.2702703 25.5989857,11.2702703 C24.8269528,11.2702703 24.2174532,11.8783784 24.2174532,12.6486486 C24.2580865,13.4189189 24.8675861,14.027027 25.5989857,14.027027"></path>
                        <path d="M27.8744511,10.9459459 C28.646484,10.9459459 29.2559837,10.3378378 29.2559837,9.56756757 C29.2559837,8.7972973 28.646484,8.18918919 27.8744511,8.18918919 C27.1024182,8.18918919 26.4929185,8.7972973 26.4929185,9.56756757 C26.4929185,10.3378378 27.1024182,10.9459459 27.8744511,10.9459459"></path>
                        <path d="M42.5430763,12.2027027 C43.1525759,12.2027027 43.6401756,11.7162162 43.6401756,11.1081081 C43.6401756,10.5 43.1525759,10.0135135 42.5430763,10.0135135 C41.9335766,10.0135135 41.4459769,10.5 41.4459769,11.1081081 C41.4459769,11.7162162 41.9335766,12.2027027 42.5430763,12.2027027"></path>
                        <path d="M38.6829117,14.3918919 C39.4143113,14.3918919 39.9831777,13.7837838 39.9831777,13.0945946 C39.9831777,12.3648649 39.4143113,11.7972973 38.6829117,11.7972973 C37.9515122,11.7972973 37.3826458,12.4054054 37.3826458,13.0945946 C37.3420125,13.7837838 37.9515122,14.3918919 38.6829117,14.3918919"></path>
                    </g>
                    <g transform="translate(127.182262, 0.000000)" id="Path">
                        <path d="M15.440658,13.4189189 C14.5873585,13.4189189 13.8965922,14.1081081 13.8965922,14.9594595 C13.8965922,15.8108108 14.5873585,16.5 15.440658,16.5 C16.2939576,16.5 16.9847239,15.8108108 16.9847239,14.9594595 C16.9847239,14.1081081 16.2939576,13.4189189 15.440658,13.4189189"></path>
                        <path d="M11.377327,13.6216216 C10.6459274,13.6216216 10.0364277,14.2297297 10.0364277,14.9594595 C10.0364277,15.6891892 10.6459274,16.2972973 11.377327,16.2972973 C12.1087266,16.2972973 12.7182262,15.6891892 12.7182262,14.9594595 C12.7588595,14.2297297 12.1493599,13.6216216 11.377327,13.6216216"></path>
                        <path d="M4.55093079,13.9054054 C3.98206444,13.9054054 3.49446472,14.3918919 3.49446472,14.9594595 C3.49446472,15.527027 3.98206444,16.0135135 4.55093079,16.0135135 C5.11979714,16.0135135 5.60739687,15.527027 5.60739687,14.9594595 C5.60739687,14.3918919 5.11979714,13.9054054 4.55093079,13.9054054"></path>
                        <path d="M1.34089925,13.9864865 C0.812666213,13.9864865 0.365699796,14.4324324 0.365699796,14.9594595 C0.365699796,15.4864865 0.812666213,15.9324324 1.34089925,15.9324324 C1.86913229,15.9324324 2.31609871,15.4864865 2.31609871,14.9594595 C2.31609871,14.4324324 1.86913229,13.9864865 1.34089925,13.9864865"></path>
                        <path d="M25.2332859,0.0405405405 C24.3393531,0.0405405405 23.6079535,0.77027027 23.6079535,1.66216216 C23.6079535,2.55405405 24.3393531,3.28378378 25.2332859,3.28378378 C26.1272188,3.28378378 26.8586183,2.55405405 26.8586183,1.66216216 C26.8586183,0.72972973 26.1272188,0.0405405405 25.2332859,0.0405405405"></path>
                        <path d="M22.7140207,3.89189189 C21.8200878,3.89189189 21.0886882,4.62162162 21.0886882,5.51351351 C21.0886882,6.40540541 21.8200878,7.13513514 22.7140207,7.13513514 C23.6079535,7.13513514 24.3393531,6.40540541 24.3393531,5.51351351 C24.3393531,4.62162162 23.6079535,3.89189189 22.7140207,3.89189189"></path>
                        <path d="M13.2870926,6.16216216 C12.4744264,6.16216216 11.7836601,6.81081081 11.7836601,7.66216216 C11.7836601,8.47297297 12.4337931,9.16216216 13.2870926,9.16216216 C14.0997588,9.16216216 14.7905251,8.47297297 14.7905251,7.66216216 C14.7905251,6.85135135 14.0997588,6.16216216 13.2870926,6.16216216"></path>
                        <path d="M11.90556,10.0135135 C11.1335271,10.0135135 10.5240275,10.6216216 10.5240275,11.3918919 C10.5240275,12.1621622 11.1335271,12.7702703 11.90556,12.7702703 C12.6775929,12.7702703 13.2870926,12.1621622 13.2870926,11.3918919 C13.2870926,10.6216216 12.6775929,10.0135135 11.90556,10.0135135"></path>
                        <path d="M9.71136125,4.05405405 C8.89869503,4.05405405 8.20792875,4.74324324 8.20792875,5.55405405 C8.20792875,6.36486486 8.89869503,7.05405405 9.71136125,7.05405405 C10.5240275,7.05405405 11.2147937,6.40540541 11.2147937,5.55405405 C11.2147937,4.74324324 10.5646608,4.05405405 9.71136125,4.05405405"></path>
                        <path d="M18.1630899,5.14864865 C17.269157,5.14864865 16.5377574,5.87837838 16.5377574,6.77027027 C16.5377574,7.66216216 17.269157,8.39189189 18.1630899,8.39189189 C19.0570227,8.39189189 19.7884223,7.66216216 19.7884223,6.77027027 C19.747789,5.87837838 19.0570227,5.14864865 18.1630899,5.14864865"></path>
                        <path d="M16.212691,9.12162162 C15.3593914,9.12162162 14.6279918,9.81081081 14.6279918,10.7027027 C14.6279918,11.5540541 15.3187581,12.2837838 16.212691,12.2837838 C17.0659905,12.2837838 17.7973901,11.5945946 17.7973901,10.7027027 C17.7973901,9.85135135 17.0659905,9.12162162 16.212691,9.12162162"></path>
                        <path d="M19.8696889,0.567567568 C18.9757561,0.567567568 18.2443565,1.2972973 18.2443565,2.18918919 C18.2443565,3.08108108 18.9757561,3.81081081 19.8696889,3.81081081 C20.7636217,3.81081081 21.4950213,3.08108108 21.4950213,2.18918919 C21.4950213,1.2972973 20.7636217,0.567567568 19.8696889,0.567567568"></path>
                        <path d="M14.6686251,1.98648649 C13.7746923,1.98648649 13.0432927,2.71621622 13.0432927,3.60810811 C13.0432927,4.5 13.7746923,5.22972973 14.6686251,5.22972973 C15.562558,5.22972973 16.2939576,4.5 16.2939576,3.60810811 C16.2939576,2.67567568 15.562558,1.98648649 14.6686251,1.98648649"></path>
                        <path d="M4.67283073,10.4189189 C4.06333107,10.4189189 3.57573134,10.9054054 3.57573134,11.5135135 C3.57573134,12.1216216 4.06333107,12.6081081 4.67283073,12.6081081 C5.28233039,12.6081081 5.76993011,12.1216216 5.76993011,11.5135135 C5.76993011,10.9054054 5.28233039,10.4189189 4.67283073,10.4189189"></path>
                        <path d="M7.92349558,12.0405405 C7.27336261,12.0405405 6.74512957,12.5675676 6.74512957,13.2162162 C6.74512957,13.8648649 7.27336261,14.3918919 7.92349558,14.3918919 C8.57362855,14.3918919 9.10186159,13.8648649 9.10186159,13.2162162 C9.06122828,12.5675676 8.57362855,12.0405405 7.92349558,12.0405405"></path>
                        <path d="M1.34089925,9.56756757 C0.812666213,9.56756757 0.365699796,10.0135135 0.365699796,10.5405405 C0.365699796,11.0675676 0.812666213,11.5135135 1.34089925,11.5135135 C1.86913229,11.5135135 2.31609871,11.0675676 2.31609871,10.5405405 C2.31609871,9.97297297 1.86913229,9.56756757 1.34089925,9.56756757"></path>
                        <path d="M8.53299524,8.27027027 C7.80159565,8.27027027 7.2327293,8.87837838 7.2327293,9.56756757 C7.2327293,10.2972973 7.84222896,10.8648649 8.53299524,10.8648649 C9.26439483,10.8648649 9.83326118,10.2567568 9.83326118,9.56756757 C9.83326118,8.83783784 9.26439483,8.27027027 8.53299524,8.27027027"></path>
                        <path d="M5.24169707,6.60810811 C4.55093079,6.60810811 4.02269775,7.17567568 4.02269775,7.82432432 C4.02269775,8.51351351 4.5915641,9.04054054 5.24169707,9.04054054 C5.93246336,9.04054054 6.46069639,8.47297297 6.46069639,7.82432432 C6.46069639,7.17567568 5.89183005,6.60810811 5.24169707,6.60810811"></path>
                        <path d="M25.2332859,29.9189189 C24.3393531,29.9189189 23.6079535,29.1891892 23.6079535,28.2972973 C23.6079535,27.4054054 24.3393531,26.6756757 25.2332859,26.6756757 C26.1272188,26.6756757 26.8586183,27.4054054 26.8586183,28.2972973 C26.8586183,29.1891892 26.1272188,29.9189189 25.2332859,29.9189189"></path>
                        <path d="M11.90556,19.9459459 C11.1335271,19.9459459 10.5240275,19.3378378 10.5240275,18.5675676 C10.5240275,17.7972973 11.1335271,17.1891892 11.90556,17.1891892 C12.6775929,17.1891892 13.2870926,17.7972973 13.2870926,18.5675676 C13.2870926,19.2972973 12.6775929,19.9459459 11.90556,19.9459459"></path>
                        <path d="M9.71136125,25.8648649 C8.89869503,25.8648649 8.20792875,25.1756757 8.20792875,24.3648649 C8.20792875,23.5540541 8.89869503,22.8648649 9.71136125,22.8648649 C10.5240275,22.8648649 11.2147937,23.5135135 11.2147937,24.3648649 C11.2147937,25.1756757 10.5646608,25.8648649 9.71136125,25.8648649"></path>
                        <path d="M16.212691,20.7972973 C15.3593914,20.7972973 14.6279918,20.1081081 14.6279918,19.2162162 C14.6279918,18.3648649 15.3187581,17.6351351 16.212691,17.6351351 C17.0659905,17.6351351 17.7973901,18.3243243 17.7973901,19.2162162 C17.7973901,20.0675676 17.0659905,20.7972973 16.212691,20.7972973"></path>
                        <path d="M19.8696889,29.3513514 C18.9757561,29.3513514 18.2443565,28.6216216 18.2443565,27.7297297 C18.2443565,26.8378378 18.9757561,26.1081081 19.8696889,26.1081081 C20.7636217,26.1081081 21.4950213,26.8378378 21.4950213,27.7297297 C21.4950213,28.6621622 20.7636217,29.3513514 19.8696889,29.3513514"></path>
                        <path d="M14.6686251,27.972973 C13.7746923,27.972973 13.0432927,27.2432432 13.0432927,26.3513514 C13.0432927,25.4594595 13.7746923,24.7297297 14.6686251,24.7297297 C15.562558,24.7297297 16.2939576,25.4594595 16.2939576,26.3513514 C16.2939576,27.2432432 15.562558,27.972973 14.6686251,27.972973"></path>
                        <path d="M7.92349558,17.8783784 C7.27336261,17.8783784 6.74512957,17.3513514 6.74512957,16.7027027 C6.74512957,16.0540541 7.27336261,15.527027 7.92349558,15.527027 C8.57362855,15.527027 9.10186159,16.0540541 9.10186159,16.7027027 C9.06122828,17.3513514 8.57362855,17.8783784 7.92349558,17.8783784"></path>
                        <path d="M1.34089925,20.3918919 C0.812666213,20.3918919 0.365699796,19.9459459 0.365699796,19.4189189 C0.365699796,18.8918919 0.812666213,18.4459459 1.34089925,18.4459459 C1.86913229,18.4459459 2.31609871,18.8918919 2.31609871,19.4189189 C2.31609871,19.9459459 1.86913229,20.3918919 1.34089925,20.3918919"></path>
                        <path d="M5.24169707,23.3108108 C4.55093079,23.3108108 4.02269775,22.7432432 4.02269775,22.0945946 C4.02269775,21.4054054 4.5915641,20.8783784 5.24169707,20.8783784 C5.93246336,20.8783784 6.46069639,21.4459459 6.46069639,22.0945946 C6.46069639,22.7432432 5.89183005,23.3108108 5.24169707,23.3108108"></path>
                        <path d="M34.9852805,13.4189189 C35.83858,13.4189189 36.5293463,14.1081081 36.5293463,14.9594595 C36.5293463,15.8108108 35.83858,16.5 34.9852805,16.5 C34.131981,16.5 33.4412147,15.8108108 33.4412147,14.9594595 C33.4412147,14.1081081 34.131981,13.4189189 34.9852805,13.4189189"></path>
                        <path d="M39.0486115,13.6216216 C39.7800111,13.6216216 40.3895108,14.2297297 40.3895108,14.9594595 C40.3895108,15.6891892 39.7800111,16.2972973 39.0486115,16.2972973 C38.3172119,16.2972973 37.7077123,15.6891892 37.7077123,14.9594595 C37.7077123,14.2297297 38.3172119,13.6216216 39.0486115,13.6216216"></path>
                        <path d="M45.8750077,13.9054054 C46.4438741,13.9054054 46.9314738,14.3918919 46.9314738,14.9594595 C46.9314738,15.527027 46.4438741,16.0135135 45.8750077,16.0135135 C45.3061414,16.0135135 44.8185417,15.527027 44.8185417,14.9594595 C44.859175,14.3918919 45.3061414,13.9054054 45.8750077,13.9054054"></path>
                        <path d="M49.1256726,13.9864865 C49.6539056,13.9864865 50.100872,14.4324324 50.100872,14.9594595 C50.100872,15.4864865 49.6539056,15.9324324 49.1256726,15.9324324 C48.5974395,15.9324324 48.1504731,15.4864865 48.1504731,14.9594595 C48.1504731,14.4324324 48.5568062,13.9864865 49.1256726,13.9864865"></path>
                        <path d="M27.7119179,3.89189189 C28.6058507,3.89189189 29.3372503,4.62162162 29.3372503,5.51351351 C29.3372503,6.40540541 28.6058507,7.13513514 27.7119179,7.13513514 C26.817985,7.13513514 26.0865854,6.40540541 26.0865854,5.51351351 C26.0865854,4.62162162 26.817985,3.89189189 27.7119179,3.89189189"></path>
                        <path d="M37.1388459,6.16216216 C37.9515122,6.16216216 38.6422784,6.81081081 38.6422784,7.66216216 C38.6422784,8.47297297 37.9921455,9.16216216 37.1388459,9.16216216 C36.3261797,9.16216216 35.6354134,8.47297297 35.6354134,7.66216216 C35.6760468,6.85135135 36.3261797,6.16216216 37.1388459,6.16216216"></path>
                        <path d="M38.5610118,10.0135135 C39.3330447,10.0135135 39.9425444,10.6216216 39.9425444,11.3918919 C39.9425444,12.1621622 39.3330447,12.7702703 38.5610118,12.7702703 C37.7889789,12.7702703 37.1794793,12.1621622 37.1794793,11.3918919 C37.1388459,10.6216216 37.7889789,10.0135135 38.5610118,10.0135135"></path>
                        <path d="M40.7145773,4.05405405 C41.5272435,4.05405405 42.2180098,4.74324324 42.2180098,5.55405405 C42.2180098,6.36486486 41.5678768,7.05405405 40.7145773,7.05405405 C39.9019111,7.05405405 39.2111448,6.40540541 39.2111448,5.55405405 C39.2517781,4.74324324 39.9019111,4.05405405 40.7145773,4.05405405"></path>
                        <path d="M32.303482,5.14864865 C33.1974148,5.14864865 33.9288144,5.87837838 33.9288144,6.77027027 C33.9288144,7.66216216 33.1974148,8.39189189 32.303482,8.39189189 C31.4095491,8.39189189 30.6781495,7.66216216 30.6781495,6.77027027 C30.6781495,5.87837838 31.4095491,5.14864865 32.303482,5.14864865"></path>
                        <path d="M34.2538809,9.12162162 C35.1071804,9.12162162 35.83858,9.81081081 35.83858,10.7027027 C35.83858,11.5540541 35.1478137,12.2837838 34.2538809,12.2837838 C33.4005814,12.2837838 32.6691818,11.5945946 32.6691818,10.7027027 C32.6691818,9.85135135 33.359948,9.12162162 34.2538809,9.12162162"></path>
                        <path d="M30.5562496,0.567567568 C31.4501824,0.567567568 32.181582,1.2972973 32.181582,2.18918919 C32.181582,3.08108108 31.4501824,3.81081081 30.5562496,3.81081081 C29.6623168,3.81081081 28.9309172,3.08108108 28.9309172,2.18918919 C28.9715505,1.2972973 29.6623168,0.567567568 30.5562496,0.567567568"></path>
                        <path d="M35.7573134,1.98648649 C36.6512462,1.98648649 37.3826458,2.71621622 37.3826458,3.60810811 C37.3826458,4.5 36.6512462,5.22972973 35.7573134,5.22972973 C34.8633805,5.22972973 34.131981,4.5 34.131981,3.60810811 C34.131981,2.67567568 34.8633805,1.98648649 35.7573134,1.98648649"></path>
                        <path d="M45.7937411,10.4189189 C46.4032408,10.4189189 46.8908405,10.9054054 46.8908405,11.5135135 C46.8908405,12.1216216 46.4032408,12.6081081 45.7937411,12.6081081 C45.1842414,12.6081081 44.6966417,12.1216216 44.6966417,11.5135135 C44.6966417,10.9054054 45.1842414,10.4189189 45.7937411,10.4189189"></path>
                        <path d="M42.5430763,12.0405405 C43.1932092,12.0405405 43.7214423,12.5675676 43.7214423,13.2162162 C43.7214423,13.8648649 43.1932092,14.3918919 42.5430763,14.3918919 C41.8929433,14.3918919 41.3647102,13.8648649 41.3647102,13.2162162 C41.3647102,12.5675676 41.8929433,12.0405405 42.5430763,12.0405405"></path>
                        <path d="M49.1256726,9.56756757 C49.6539056,9.56756757 50.100872,10.0135135 50.100872,10.5405405 C50.100872,11.0675676 49.6539056,11.5135135 49.1256726,11.5135135 C48.5974395,11.5135135 48.1504731,11.0675676 48.1504731,10.5405405 C48.1504731,9.97297297 48.5568062,9.56756757 49.1256726,9.56756757"></path>
                        <path d="M41.9335766,8.27027027 C42.6649762,8.27027027 43.2338425,8.87837838 43.2338425,9.56756757 C43.2338425,10.2972973 42.6649762,10.8648649 41.9335766,10.8648649 C41.202177,10.8648649 40.6333107,10.2567568 40.6333107,9.56756757 C40.5926773,8.83783784 41.202177,8.27027027 41.9335766,8.27027027"></path>
                        <path d="M45.2248748,6.60810811 C45.915641,6.60810811 46.4438741,7.17567568 46.4438741,7.82432432 C46.4438741,8.51351351 45.8750077,9.04054054 45.2248748,9.04054054 C44.5341085,9.04054054 44.0058754,8.47297297 44.0058754,7.82432432 C44.0058754,7.17567568 44.5341085,6.60810811 45.2248748,6.60810811"></path>
                        <path d="M38.5610118,19.9459459 C39.3330447,19.9459459 39.9425444,19.3378378 39.9425444,18.5675676 C39.9425444,17.7972973 39.3330447,17.1891892 38.5610118,17.1891892 C37.7889789,17.1891892 37.1794793,17.7972973 37.1794793,18.5675676 C37.1388459,19.2972973 37.7889789,19.9459459 38.5610118,19.9459459"></path>
                        <path d="M40.7145773,25.8648649 C41.5272435,25.8648649 42.2180098,25.1756757 42.2180098,24.3648649 C42.2180098,23.5540541 41.5678768,22.8648649 40.7145773,22.8648649 C39.9019111,22.8648649 39.2111448,23.5135135 39.2111448,24.3648649 C39.2517781,25.1756757 39.9019111,25.8648649 40.7145773,25.8648649"></path>
                        <path d="M34.2538809,20.7972973 C35.1071804,20.7972973 35.83858,20.1081081 35.83858,19.2162162 C35.83858,18.3648649 35.1478137,17.6351351 34.2538809,17.6351351 C33.4005814,17.6351351 32.6691818,18.3243243 32.6691818,19.2162162 C32.6691818,20.0675676 33.359948,20.7972973 34.2538809,20.7972973"></path>
                        <path d="M30.5562496,29.3513514 C31.4501824,29.3513514 32.181582,28.6216216 32.181582,27.7297297 C32.181582,26.8378378 31.4501824,26.1081081 30.5562496,26.1081081 C29.6623168,26.1081081 28.9309172,26.8378378 28.9309172,27.7297297 C28.9715505,28.6621622 29.6623168,29.3513514 30.5562496,29.3513514"></path>
                        <path d="M35.7573134,27.972973 C36.6512462,27.972973 37.3826458,27.2432432 37.3826458,26.3513514 C37.3826458,25.4594595 36.6512462,24.7297297 35.7573134,24.7297297 C34.8633805,24.7297297 34.131981,25.4594595 34.131981,26.3513514 C34.131981,27.2432432 34.8633805,27.972973 35.7573134,27.972973"></path>
                        <path d="M42.5430763,17.8783784 C43.1932092,17.8783784 43.7214423,17.3513514 43.7214423,16.7027027 C43.7214423,16.0540541 43.1932092,15.527027 42.5430763,15.527027 C41.8929433,15.527027 41.3647102,16.0540541 41.3647102,16.7027027 C41.3647102,17.3513514 41.8929433,17.8783784 42.5430763,17.8783784"></path>
                        <path d="M49.1256726,20.3918919 C49.6539056,20.3918919 50.100872,19.9459459 50.100872,19.4189189 C50.100872,18.8918919 49.6539056,18.4459459 49.1256726,18.4459459 C48.5974395,18.4459459 48.1504731,18.8918919 48.1504731,19.4189189 C48.1504731,19.9459459 48.5568062,20.3918919 49.1256726,20.3918919"></path>
                        <path d="M45.2248748,23.3108108 C45.915641,23.3108108 46.4438741,22.7432432 46.4438741,22.0945946 C46.4438741,21.4054054 45.8750077,20.8783784 45.2248748,20.8783784 C44.5341085,20.8783784 44.0058754,21.4459459 44.0058754,22.0945946 C44.0058754,22.7432432 44.5341085,23.3108108 45.2248748,23.3108108"></path>
                    </g>
                    <g transform="translate(0.000000, 6.486486)">
                        <g>
                            <path d="M13.8153256,3 C13.7746923,3.2027027 13.6527924,3.24324324 13.4902591,3.24324324 C13.4089925,3.24324324 13.3277259,3.2027027 13.2870926,3.2027027 C12.4744264,3.04054054 10.6865607,2.43243243 8.28919537,2.43243243 C4.26649762,2.43243243 3.0474983,4.01351351 3.0474983,8.75675676 C3.0474983,13.5405405 4.26649762,15.0405405 8.45172862,15.0405405 C9.79262787,15.0405405 11.0928938,14.7972973 11.377327,14.7162162 L11.377327,9.72972973 L8.61426186,9.40540541 C8.49236193,9.36486486 8.370462,9.28378378 8.370462,9.16216216 L8.370462,7.66216216 C8.370462,7.54054054 8.49236193,7.41891892 8.65489517,7.41891892 L13.6934257,7.41891892 C13.8965922,7.41891892 14.0184922,7.54054054 14.0184922,7.74324324 L14.0184922,14.4324324 C14.0184922,15.6486486 13.8965922,16.1756757 12.8401262,16.5405405 C11.7430268,16.9054054 9.58946131,17.0675676 8.41109531,17.0675676 C2.35673202,17.0675676 0.365699796,14.8783784 0.365699796,8.71621622 C0.365699796,3.08108108 2.15356546,0.364864865 8.0047622,0.364864865 C11.0928938,0.364864865 13.4496258,1.13513514 13.8153256,1.25675676 C14.0591255,1.33783784 14.1810254,1.45945946 14.1810254,1.66216216 C14.1810254,1.7027027 14.1810254,1.74324324 14.1403921,1.82432432 L13.8153256,3 Z" id="Path"></path>
                            <path d="M16.1720576,7.17567568 C16.1720576,6.28378378 16.5783907,6 17.5129569,5.67567568 C18.447523,5.35135135 20.0322222,5.06756757 21.8200878,5.06756757 C22.0638877,5.06756757 22.3076876,5.10810811 22.3076876,5.43243243 L22.3076876,6.68918919 C22.3076876,6.85135135 22.2670542,7.01351351 21.9826211,7.01351351 C20.6417218,7.01351351 19.4633558,7.13513514 18.6506896,7.37837838 L18.6506896,16.5 C18.6506896,16.7027027 18.5287897,16.8243243 18.3256231,16.8243243 L16.4971241,16.8243243 C16.2939576,16.8243243 16.1720576,16.7027027 16.1720576,16.5 L16.1720576,7.17567568 Z" id="Path"></path>
                            <path d="M31.3282825,16.7837838 C30.5968829,16.9459459 29.5810502,17.1081081 28.3620508,17.1081081 C26.1678521,17.1081081 23.1609871,16.9459459 23.1609871,13.4594595 C23.1609871,10.5810811 24.8675861,10.3783784 26.7773517,10.0135135 L30.7594162,9.36486486 L30.7594162,8.55405405 C30.7594162,7.90540541 30.7187829,7.41891892 30.0686499,7.17567568 C29.7029501,7.01351351 29.1340837,6.97297297 28.2807842,6.97297297 C26.6960851,6.97297297 25.1926526,7.41891892 24.461253,7.58108108 C24.3393531,7.62162162 24.3393531,7.62162162 24.2987198,7.62162162 C24.2174532,7.62162162 24.0955532,7.58108108 24.0549199,7.41891892 L23.81112,6.2027027 C23.7704867,6 23.93302,5.87837838 24.0549199,5.83783784 C24.6644196,5.63513514 26.6148185,5.10810811 28.7683839,5.10810811 C30.3124497,5.10810811 31.3689158,5.31081081 32.0190488,5.71621622 C33.1567815,6.36486486 33.2786814,7.37837838 33.2786814,8.51351351 L33.2786814,14.5540541 C33.2786814,16.0945946 32.831715,16.4189189 31.3282825,16.7837838 M30.8000495,11.0675676 L27.468118,11.5945946 C26.5741852,11.7567568 25.7208856,11.8783784 25.7208856,13.3783784 C25.7208856,15.2432432 27.2649515,15.4054054 28.4433175,15.4054054 C29.3372503,15.4054054 30.1905498,15.2837838 30.8000495,15.0405405 L30.8000495,11.0675676 Z" id="Shape"></path>
                            <path d="M45.3061414,16.7837838 L43.4776424,16.7837838 C43.2744758,16.7837838 43.1119426,16.6621622 43.1119426,16.4594595 L43.1119426,8.63513514 C43.1119426,7.2972973 42.6243429,6.85135135 41.3240769,6.85135135 C39.9019111,6.85135135 38.3984786,7.21621622 38.0734121,7.2972973 L38.0734121,16.4594595 C38.0734121,16.6621622 37.9515122,16.7837838 37.7483456,16.7837838 L35.9198466,16.7837838 C35.7166801,16.7837838 35.5541468,16.6621622 35.5541468,16.4594595 L35.5541468,7.17567568 C35.5541468,6.36486486 35.83858,6 37.016946,5.63513514 C38.1140454,5.31081081 40.1050776,5.02702703 41.4866102,5.02702703 C44.1684087,5.02702703 45.5499412,5.75675676 45.5499412,8.27027027 L45.5499412,16.4189189 C45.6312079,16.6621622 45.5093079,16.7837838 45.3061414,16.7837838" id="Path"></path>
                            <path d="M57.5774012,0.689189189 L55.7895355,1.05405405 C55.586369,1.09459459 55.464469,1.21621622 55.464469,1.45945946 L55.464469,5.43243243 C54.8549694,5.31081081 53.8391366,5.06756757 52.4982374,5.06756757 C48.6380729,5.06756757 47.5409735,7.13513514 47.5409735,11.1081081 C47.5409735,15.4459459 48.7599728,17.1081081 53.0264704,17.1081081 C54.5705362,17.1081081 55.7082689,16.8648649 56.5615684,16.6621622 C57.8618344,16.2972973 57.9024677,15.6486486 57.9024677,14.9594595 L57.9024677,1.05405405 C57.9837343,0.810810811 57.8618344,0.648648649 57.5774012,0.689189189 M55.5051024,15 C55.3019358,15.0810811 54.286103,15.3243243 53.1483703,15.3243243 C51.1573381,15.3243243 50.1415053,14.9189189 50.1415053,11.0675676 C50.1415053,7.41891892 50.9948049,6.89189189 53.0671037,6.89189189 C54.1642031,6.89189189 55.2613025,7.13513514 55.5051024,7.21621622 L55.5051024,15 L55.5051024,15 Z" id="Shape"></path>
                        </g>
                        <path d="M76.7563238,16.7837838 L74.9684582,16.7837838 C74.7652916,16.7837838 74.6027584,16.6621622 74.6027584,16.4594595 L74.6027584,5.55405405 C74.6027584,5.39189189 74.7652916,5.22972973 74.9684582,5.22972973 L76.7563238,5.22972973 C76.9594904,5.22972973 77.0813903,5.35135135 77.0813903,5.55405405 L77.0813903,16.4594595 C77.0813903,16.6621622 76.9594904,16.7837838 76.7563238,16.7837838" id="Path"></path>
                        <path d="M83.0951203,17.0675676 C81.1853547,17.0675676 79.4381223,16.5 79.1536892,16.3783784 C79.0317892,16.3378378 78.9098893,16.2162162 78.9505226,16.0540541 L79.1943225,14.8783784 C79.2349558,14.7162162 79.3162224,14.6351351 79.4381223,14.6351351 C79.4787556,14.6351351 79.519389,14.6351351 79.6006556,14.6756757 C79.8444554,14.7567568 81.3478879,15.2432432 82.9732204,15.2432432 C84.4360195,15.2432432 85.411219,14.7972973 85.411219,13.6216216 C85.411219,12.1621622 84.3547529,12.1621622 82.8919537,11.9189189 C81.3478879,11.6756757 79.1130558,11.2702703 79.1130558,8.51351351 C79.1130558,5.51351351 81.7948544,5.02702703 83.70462,5.02702703 C85.5331189,5.02702703 86.9552848,5.43243243 87.239718,5.51351351 C87.4022512,5.55405405 87.4835178,5.67567568 87.4835178,5.83783784 L87.2803513,7.01351351 C87.239718,7.17567568 87.1584514,7.21621622 86.9552848,7.21621622 C86.7114849,7.17567568 85.2080524,6.85135135 83.9890531,6.85135135 C82.7294205,6.85135135 81.5510545,7.17567568 81.5510545,8.35135135 C81.5510545,9.60810811 82.7294205,9.72972973 84.0703197,9.93243243 C85.8988187,10.2162162 87.8492176,10.5405405 87.8492176,13.4189189 C87.8492176,16.2567568 85.6956522,17.0675676 83.0951203,17.0675676" id="Path"></path>
                        <path d="M99.6328777,17.0675676 C94.8787804,17.0675676 94.309914,14.3918919 94.309914,11.0675676 C94.309914,7.74324324 94.9194137,5.02702703 99.6328777,5.02702703 C104.386975,5.02702703 104.955841,7.7027027 104.955841,11.0675676 C104.955841,14.3918919 104.386975,17.0675676 99.6328777,17.0675676 M99.6328777,6.85135135 C96.9510792,6.85135135 96.8698126,8.39189189 96.8698126,11.0675676 C96.8698126,13.7432432 96.9917125,15.2837838 99.6328777,15.2837838 C102.274043,15.2837838 102.395943,13.7432432 102.395943,11.0675676 C102.395943,8.39189189 102.314676,6.85135135 99.6328777,6.85135135" id="Shape"></path>
                        <path d="M116.739502,16.7837838 L114.911003,16.7837838 C114.707836,16.7837838 114.545303,16.6621622 114.545303,16.4594595 L114.545303,8.63513514 C114.545303,7.2972973 114.057703,6.85135135 112.757437,6.85135135 C111.335271,6.85135135 109.831839,7.21621622 109.506772,7.2972973 L109.506772,16.4594595 C109.506772,16.6621622 109.384872,16.7837838 109.181706,16.7837838 L107.353207,16.7837838 C107.15004,16.7837838 106.987507,16.6621622 106.987507,16.4594595 L106.987507,7.17567568 C106.987507,6.36486486 107.27194,6 108.450306,5.63513514 C109.547406,5.31081081 111.538438,5.02702703 112.91997,5.02702703 C115.601769,5.02702703 116.983301,5.75675676 116.983301,8.27027027 L116.983301,16.4189189 C117.064568,16.6621622 116.942668,16.7837838 116.739502,16.7837838" id="Path"></path>
                        <path d="M91.9125487,16.7837838 L90.124683,16.7837838 C89.9215165,16.7837838 89.7589832,16.6621622 89.7589832,16.4594595 L89.7589832,5.55405405 C89.7589832,5.39189189 89.9215165,5.22972973 90.124683,5.22972973 L91.9125487,5.22972973 C92.1157153,5.22972973 92.2376152,5.35135135 92.2376152,5.55405405 L92.2376152,16.4594595 C92.2376152,16.6621622 92.1157153,16.7837838 91.9125487,16.7837838" id="Path"></path>
                        <path d="M73.8307255,0.648648649 L71.7990599,0.648648649 C71.5958934,0.648648649 71.4333601,0.72972973 71.3927268,0.932432432 C71.3927268,0.932432432 67.2887624,13.9864865 67.2481291,14.1891892 C67.1668625,14.3918919 67.0449626,14.5135135 66.841796,14.5135135 C66.6386295,14.5135135 66.4760962,14.3918919 66.4354629,14.1891892 C66.3541963,13.9864865 62.2908652,0.932432432 62.2908652,0.932432432 C62.2095986,0.72972973 62.0876987,0.648648649 61.8845321,0.648648649 L59.8528666,0.648648649 C59.6090667,0.648648649 59.5278001,0.851351351 59.5684334,1.05405405 L64.5663306,16.4189189 C64.6475973,16.6216216 64.7694972,16.7837838 64.9726637,16.7837838 L68.7921949,16.7837838 C68.9953615,16.7837838 69.1578947,16.6216216 69.198528,16.4189189 L74.1964253,1.05405405 C74.1964253,0.891891892 74.0745253,0.648648649 73.8307255,0.648648649 Z" id="Path"></path>
                    </g>
                </g>
            </g>
        </g>
    </g>
</svg>