<?xml version="1.0" encoding="UTF-8"?>
<svg width="63px" height="63px" viewBox="0 0 63 63" version="1.1" xmlns="http://www.w3.org/2000/svg" xmlns:xlink="http://www.w3.org/1999/xlink">
    <!-- Generator: Sketch 52.6 (67491) - http://www.bohemiancoding.com/sketch -->
    <title>icon</title>
    <desc>Created with Sketch.</desc>
    <defs>
        <linearGradient x1="139.22371%" y1="90.8823165%" x2="-135.568576%" y2="-43.8492063%" id="linearGradient-1">
            <stop stop-color="#FFFFFF" stop-opacity="0.219241696" offset="0%"></stop>
            <stop stop-color="#0099FF" offset="100%"></stop>
        </linearGradient>
    </defs>
    <g id="Website" stroke="none" stroke-width="1" fill="none" fill-rule="evenodd">
        <g id="Solutions-Catalog" transform="translate(-935.000000, -1582.000000)">
            <g id="Solutions-Section" transform="translate(150.000000, 1420.000000)">
                <g id="features" transform="translate(0.000000, 162.000000)">
                    <g id="brand" transform="translate(785.000000, 0.000000)">
                        <g id="icon">
                            <rect id="Rectangle" fill="url(#linearGradient-1)" x="0" y="0" width="63" height="63" rx="9"></rect>
                            <g id="lover" transform="translate(14.000000, 17.000000)" fill="#029AFF" fill-rule="nonzero">
                                <path d="M34.9836824,9.37968861 C34.8517125,6.88093172 33.8073251,4.53462302 32.0428594,2.77293613 C30.2519997,0.984798333 27.9133244,1.01045675e-15 25.4578418,1.01045675e-15 C21.7807951,1.01045675e-15 19.1773377,2.87689101 17.7787374,4.42256222 C17.6991343,4.51044747 17.6136347,4.60487434 17.5301005,4.69617261 C17.485315,4.6446929 17.4408102,4.5933554 17.3984114,4.54443545 C16.119988,3.06929999 13.4595308,0 9.54283241,0 C7.08734976,0 4.74881491,0.984798333 2.95795518,2.77293613 C1.19334903,4.53462302 0.148961644,6.88093172 0.016991736,9.37968861 C-0.114135811,11.8636558 0.509351808,14.0191198 2.03809684,16.3686993 C3.40819719,18.4749589 6.97615809,21.8050705 9.61513508,24.0167071 C12.3275379,26.2900625 15.9001318,29 17.5153592,29 C19.1559979,29 22.7159563,26.2957509 25.413337,24.0272306 C28.0318165,21.825122 31.5801223,18.4977124 32.9629985,16.367846 C33.9919426,14.7830673 35.1515931,12.5564987 34.9836824,9.37968861 Z M31.2035869,15.1957582 C30.1987905,16.7437048 27.3664917,19.6035307 24.1556919,22.3124727 C20.327301,25.5426113 18.0606476,26.8156675 17.5170439,26.866294 C16.9742826,26.8089837 14.7020135,25.5231286 10.8549502,22.2870173 C7.62533773,19.5702538 4.78882706,16.7200981 3.79652567,15.194905 C2.53143967,13.2506216 2.01437033,11.4923477 2.11980587,9.49345593 C2.33418677,5.43494912 5.66418066,2.13299497 9.54269202,2.13299497 C12.505978,2.13299497 14.659053,4.61710433 15.8158956,5.95145274 C16.4959618,6.7361628 16.8706722,7.1683364 17.5004775,7.1683364 C18.1506399,7.1683364 18.5699953,6.70487679 19.331209,5.8637097 C20.5939083,4.46821135 22.7072519,2.13299497 25.4578418,2.13299497 C29.3364935,2.13299497 32.666347,5.43494912 32.8808683,9.49345593 C32.9875674,11.5149589 32.4859413,13.2204732 31.2035869,15.1957582 Z" id="Shape"></path>
                            </g>
                        </g>
                    </g>
                </g>
            </g>
        </g>
    </g>
</svg>