<?xml version="1.0" encoding="UTF-8"?>
<svg width="48px" height="35px" viewBox="0 0 48 35" version="1.1" xmlns="http://www.w3.org/2000/svg" xmlns:xlink="http://www.w3.org/1999/xlink">
    <!-- Generator: Sketch 52.4 (67378) - http://www.bohemiancoding.com/sketch -->
    <title>Rectangle 23</title>
    <desc>Created with Sketch.</desc>
    <defs>
        <path d="M8.36363636,15.5508508 L8.36363636,15.5508508 L8.36363636,37.3582401 C8.36363636,38.551067 9.33402027,39.5454545 10.5310495,39.5454545 L45.4689505,39.5454545 C46.6655717,39.5454545 47.6363636,38.5662053 47.6363636,37.3582401 L47.6363636,15.5508508 C47.6363636,14.3580239 46.6659797,13.3636364 45.4689505,13.3636364 L10.5310495,13.3636364 C9.33442827,13.3636364 8.36363636,14.3428856 8.36363636,15.5508508 L8.36363636,15.5508508 Z M4,15.5508508 L4,15.5508508 C4,11.9417711 6.91551763,9 10.5310495,9 L45.4689505,9 C49.0844388,9 52,11.9562637 52,15.5508508 L52,37.3582401 C52,40.9673198 49.0844824,43.9090909 45.4689505,43.9090909 L10.5310495,43.9090909 C6.91556124,43.9090909 4,40.9528272 4,37.3582401 L4,15.5508508 Z M8.36363636,17.7272727 L47.6363636,17.7272727 L47.6363636,24.2727273 L8.36363636,24.2727273 L8.36363636,17.7272727 Z" id="path-1"></path>
    </defs>
    <g id="Symbols" stroke="none" stroke-width="1" fill="none" fill-rule="evenodd">
        <g id="Icon-/-Simple-Outlined-/-Card" transform="translate(-4.000000, -9.000000)">
            <mask id="mask-2" fill="white">
                <use xlink:href="#path-1"></use>
            </mask>
            <use id="Rectangle-23" fill="#8BA266" fill-rule="nonzero" xlink:href="#path-1"></use>
        </g>
    </g>
</svg>
