<?xml version="1.0" encoding="UTF-8"?>
<svg width="48px" height="41px" viewBox="0 0 48 41" version="1.1" xmlns="http://www.w3.org/2000/svg" xmlns:xlink="http://www.w3.org/1999/xlink">
    <!-- Generator: Sketch 52.4 (67378) - http://www.bohemiancoding.com/sketch -->
    <title>icon-camera</title>
    <desc>Created with Sketch.</desc>
    <defs>
        <path d="M7.51219512,20.4730965 L7.51219512,20.4730965 L7.51219512,43.5269035 C7.51219512,44.598008 8.42194663,45.4634146 9.54418198,45.4634146 L46.455818,45.4634146 C47.5549837,45.4634146 48.4878049,44.5964091 48.4878049,43.5269035 L48.4878049,20.4730965 C48.4878049,19.401992 47.5780534,18.5365854 46.455818,18.5365854 L9.54418198,18.5365854 C8.4450163,18.5365854 7.51219512,19.4035909 7.51219512,20.4730965 L7.51219512,20.4730965 Z M14.5796806,15.0243902 L17.7227013,10.6340592 C18.8074622,9.11881015 21.0401798,8 22.9779681,8 L31.8513002,8 C33.8054637,8 36.0125917,9.10593889 37.106567,10.6340592 L40.2495877,15.0243902 L46.0163938,15.0243902 C49.334685,15.0243902 52,17.5746888 52,20.6958386 L52,43.3041614 C52,46.4229369 49.3128156,48.9756098 46.0163938,48.9756098 L9.98360622,48.9756098 C6.665315,48.9756098 4,46.4253112 4,43.3041614 L4,20.6958386 C4,17.5770631 6.6871844,15.0243902 9.98360622,15.0243902 L14.5796806,15.0243902 Z M19.8874155,15.0243902 L34.9418528,15.0243902 L33.4319813,12.915325 C33.1550224,12.5284547 32.3251197,12.1126104 31.8513002,12.1126104 L22.9779681,12.1126104 C22.5205543,12.1126104 21.665048,12.5413028 21.397287,12.915325 L19.8874155,15.0243902 Z M28,41.9512195 C21.857516,41.9512195 16.8780488,37.2338296 16.8780488,31.4146341 C16.8780488,25.5954387 21.857516,20.8780488 28,20.8780488 C34.142484,20.8780488 39.1219512,25.5954387 39.1219512,31.4146341 C39.1219512,37.2338296 34.142484,41.9512195 28,41.9512195 Z M28,38.4390244 C31.556175,38.4390244 34.4390244,35.556175 34.4390244,32 C34.4390244,28.443825 31.556175,25.5609756 28,25.5609756 C24.443825,25.5609756 21.5609756,28.443825 21.5609756,32 C21.5609756,35.556175 24.443825,38.4390244 28,38.4390244 Z M26.6292834,28.5268596 C24.9564624,29.3632701 23.902439,30.9443051 23.902439,33.1707317 C23.902439,34.1405976 24.6886707,34.9268293 25.6585366,34.9268293 C26.6284025,34.9268293 27.4146341,34.1405976 27.4146341,33.1707317 C27.4146341,32.3239876 27.677684,31.9294128 28.1999849,31.6682624 C28.5708634,31.4828231 28.9799971,31.4146341 29.1707317,31.4146341 C30.1405976,31.4146341 30.9268293,30.6284025 30.9268293,29.6585366 C30.9268293,28.6886707 30.1405976,27.902439 29.1707317,27.902439 C28.4834175,27.902439 27.575478,28.0537623 26.6292834,28.5268596 Z" id="path-1"></path>
    </defs>
    <g id="Symbols" stroke="none" stroke-width="1" fill="none" fill-rule="evenodd">
        <g id="Icon-/-Simple-Outlined-/-Camera" transform="translate(-4.000000, -8.000000)">
            <mask id="mask-2" fill="white">
                <use xlink:href="#path-1"></use>
            </mask>
            <use id="icon-camera" fill="#4A4A4A" fill-rule="nonzero" xlink:href="#path-1"></use>
        </g>
    </g>
</svg>