<svg width="30" height="30" viewBox="0 0 30 30" fill="none" xmlns="http://www.w3.org/2000/svg">
<g clip-path="url(#clip0)">
<path fill-rule="evenodd" clip-rule="evenodd" d="M21.1848 0.0952099C18.4248 -0.0335401 11.5885 -0.0272901 8.82605 0.0952099C6.39855 0.20896 4.2573 0.79521 2.53105 2.52146C-0.0505917 5.1031 -0.0267773 8.48749 0.00677582 13.2559C0.0107186 13.8163 0.0147958 14.3957 0.0147958 14.9952C0.0147958 15.5563 0.0117907 16.0985 0.00888461 16.6229C-0.0184306 21.5517 -0.036992 24.9009 2.53105 27.469C5.11741 30.0542 8.53911 30.0288 13.2537 29.9937H13.2537C13.8186 29.9895 14.402 29.9852 15.0048 29.9852H15.0862C20.8036 29.9852 22.7894 29.9852 24.8235 29.1977C27.6023 28.119 29.6998 25.6352 29.9048 21.174C30.0348 18.4127 30.0273 11.5777 29.9048 8.81521C29.6573 3.54896 26.831 0.35521 21.1848 0.0952099ZM25.5535 25.5602C23.8118 27.302 21.4488 27.2965 16.3448 27.2848C15.9067 27.2838 15.4484 27.2827 14.9685 27.2827C14.6742 27.2827 14.3881 27.2829 14.11 27.2831C8.48396 27.2871 6.12616 27.2888 4.38355 25.5415C2.57062 23.7371 2.6006 20.9919 2.64411 17.0077C2.65115 16.363 2.65855 15.686 2.65855 14.9752C2.65855 14.3725 2.65315 13.7844 2.6479 13.2129C2.59303 7.23596 2.55473 3.06423 8.88105 2.74021L8.95278 2.73767C10.4886 2.68339 11.0031 2.66521 14.951 2.66521L15.0073 2.70271C15.5781 2.70271 16.1383 2.69759 16.6858 2.69258C22.5281 2.63918 26.9217 2.59902 27.2085 8.93521C27.2798 10.5165 27.296 10.9915 27.296 14.994C27.296 15.3537 27.2963 15.701 27.2966 16.0365V16.0371C27.3018 21.463 27.304 23.8015 25.5535 25.5602ZM15.0049 7.29733C10.7512 7.29733 7.30745 10.7448 7.30745 14.9948C7.30745 19.2486 10.7549 22.6923 15.0049 22.6923C19.2587 22.6923 22.7024 19.2448 22.7024 14.9948C22.7024 10.7411 19.2549 7.29733 15.0049 7.29733ZM15.0049 19.9911C12.2437 19.9911 10.0087 17.7548 10.0087 14.9948C10.0087 12.2348 12.2449 9.99858 15.0049 9.99858C17.7649 9.99858 20.0012 12.2348 20.0012 14.9948C20.0024 17.7548 17.7662 19.9911 15.0049 19.9911ZM24.8062 6.99366C24.8062 7.98708 24.0009 8.79241 23.0074 8.79241C22.014 8.79241 21.2087 7.98708 21.2087 6.99366C21.2087 6.00024 22.014 5.19491 23.0074 5.19491C24.0009 5.19491 24.8062 6.00024 24.8062 6.99366Z" fill="#46B8C8"/>
</g>
<defs>
<clipPath id="clip0">
<rect width="30" height="30" fill="white"/>
</clipPath>
</defs>
</svg>
