<?xml version="1.0" encoding="UTF-8"?>
<svg width="35px" height="26px" viewBox="0 0 35 26" version="1.1" xmlns="http://www.w3.org/2000/svg" xmlns:xlink="http://www.w3.org/1999/xlink">
    <!-- Generator: Sketch 52.6 (67491) - http://www.bohemiancoding.com/sketch -->
    <title>setup(1)</title>
    <desc>Created with Sketch.</desc>
    <g id="Website" stroke="none" stroke-width="1" fill="none" fill-rule="evenodd">
        <g id="Solutions-Customer-Service" transform="translate(-945.000000, -1685.000000)" fill="#029AFF" fill-rule="nonzero">
            <g id="Solutions" transform="translate(146.000000, 1504.000000)">
                <g id="features" transform="translate(0.000000, 162.000000)">
                    <g id="integrations" transform="translate(785.000000, 0.000000)">
                        <g id="icon">
                            <g id="setup(1)" transform="translate(14.000000, 19.000000)">
                                <path d="M19.5639093,12.4233144 C18.9727762,12.4233144 18.4499575,12.0797592 18.2324221,11.5492068 C18.00983,11.0040793 18.1543909,10.3680312 18.5911473,9.96736544 C19.0858074,9.51524079 19.1480737,8.74871105 18.7332295,8.22252125 C18.2410482,7.59747875 17.680949,7.0320255 17.0690935,6.5420255 C16.842238,6.36008499 16.5567847,6.25994334 16.2653824,6.25994334 C15.9017989,6.25994334 15.5537819,6.41432011 15.3103683,6.68371105 C15.0580312,6.9632153 14.6393201,7.13692635 14.2176346,7.1370255 C14.0381728,7.1370255 13.8646601,7.1042068 13.718017,7.04303116 C13.1674363,6.81131728 12.8204108,6.25270538 12.8545184,5.65473088 C12.8947734,4.97525496 12.3961473,4.38094901 11.719051,4.30212465 C10.9360623,4.21140227 10.1374079,4.20912181 9.35699717,4.29587819 C8.69269122,4.36934844 8.1901983,4.95036827 8.21290368,5.61913598 C8.23362606,6.21413598 7.88223796,6.76352691 7.33909348,6.98601983 C7.19443343,7.04511331 7.02548159,7.07634561 6.85038244,7.07634561 C6.42869688,7.07634561 6.00929178,6.90313031 5.75507082,6.62352691 C5.51195467,6.35681303 5.16542493,6.20392351 4.80432011,6.20392351 C4.51886686,6.20392351 4.2375779,6.30069405 4.01042493,6.4777762 C3.37983003,6.97253541 2.80822946,7.53788952 2.311983,8.1571813 C1.8870255,8.68575071 1.94730878,9.45753541 2.4505949,9.91541076 C2.89607649,10.3187535 3.04024079,10.9598584 2.80951841,11.5102408 C2.5903966,12.0319688 2.0305949,12.3698725 1.38155807,12.372847 C0.702379603,12.3576771 0.151798867,12.8394476 0.0707932011,13.5091076 C-0.0214164306,14.2962606 -0.0230028329,15.0994759 0.0661331445,15.8962465 C0.144957507,16.6010057 0.843271955,17.0372663 1.44491501,17.0372663 L1.49558074,17.0365722 C2.03882436,17.0365722 2.54865439,17.3888527 2.7640085,17.9122663 C2.98709632,18.4563031 2.84243626,19.0920538 2.40349858,19.4946034 C1.91002833,19.9478187 1.84885269,20.7139518 2.26220963,21.2359773 C2.74794618,21.85517 3.30695467,22.4209207 3.92376771,22.9175637 C4.15141643,23.1008924 4.43766289,23.2018272 4.72966006,23.2018272 C5.09195467,23.2018272 5.43947592,23.0477479 5.68398017,22.7783569 C5.93780453,22.497762 6.35671388,22.3234561 6.77730878,22.3234561 C6.95617564,22.3234561 7.12869688,22.3562748 7.2772238,22.4186402 C7.82830028,22.6491643 8.17572238,23.2073796 8.14181303,23.8055524 C8.10126062,24.4866147 8.60048159,25.0808215 9.27589235,25.1580595 C9.67348442,25.2047592 10.0807932,25.2283569 10.4864164,25.2283569 C10.8700283,25.2283569 11.2578045,25.2069405 11.6389377,25.1648017 C12.3031445,25.0913314 12.8057365,24.5101133 12.7830312,23.8401558 C12.7616147,23.2463456 13.1126062,22.6976487 13.6557507,22.4751558 C13.8017989,22.4154674 13.9717422,22.3839377 14.1471388,22.3839377 C14.567238,22.3839377 14.9862465,22.5575496 15.2427479,22.839136 C15.4862606,23.1042635 15.8320963,23.2563598 16.1915156,23.2563598 C16.4753824,23.2563598 16.7558782,23.1603824 16.9854108,22.9830028 C17.612932,22.4908215 18.1844334,21.9257649 18.6837535,21.303796 C19.1099008,20.7742351 19.0493201,20.0018555 18.5453399,19.5447734 C18.0993626,19.1412323 17.9548017,18.5006232 18.1858215,17.9503399 C18.4016714,17.4349575 18.9235977,17.087932 19.4864731,17.0842635 L19.5802691,17.0867422 C19.6057507,17.0883286 19.6311331,17.0890227 19.6563173,17.0890227 C19.6563173,17.0890227 19.6564164,17.0890227 19.6564164,17.0890227 C20.3034703,17.0890227 20.8488952,16.6004108 20.9252408,15.9519688 C21.0177479,15.1639235 21.0193343,14.3605099 20.9299008,13.564136 C20.8505807,12.8595751 20.1590085,12.4233144 19.5639093,12.4233144 Z M19.4674363,15.5972096 C18.3198725,15.6085127 17.2558924,16.3205099 16.8139802,17.3753683 C16.364136,18.446983 16.6052691,19.6840793 17.4084844,20.5134703 C17.0456941,20.9468555 16.642153,21.3457365 16.2077762,21.7004958 C15.6748442,21.1943343 14.9184278,20.8967847 14.1468414,20.8967847 C13.7752266,20.8967847 13.4207649,20.9647025 13.0925779,21.0986544 C12.0324646,21.5328329 11.3284986,22.5651841 11.295779,23.7046176 C10.7412323,23.7544901 10.1804391,23.7530028 9.63084986,23.700255 C9.62033994,22.5458499 8.92351275,21.4953541 7.85179887,21.0469972 C7.51875354,20.9071955 7.15715297,20.836204 6.77701133,20.836204 C6.00373938,20.836204 5.2468272,21.1352408 4.71478754,21.6429887 C4.28834278,21.2850567 3.89600567,20.8879603 3.54402266,20.4579462 C4.33296034,19.6335127 4.57409348,18.4075212 4.13922096,17.3472096 C3.70077904,16.2813456 2.65296034,15.5621105 1.52522663,15.5495184 C1.47327195,14.9829745 1.47456091,14.4145467 1.52879603,13.8565297 C2.71671388,13.801204 3.74688385,13.1186544 4.18056657,12.0856091 C4.63021246,11.0132011 4.38927762,9.77550992 3.58705382,8.94701133 C3.94736544,8.51600567 4.35041076,8.1178187 4.78766289,7.76038244 C5.31990085,8.26634561 6.07671388,8.56379603 6.85008499,8.56379603 C7.22150142,8.56379603 7.57507082,8.49617564 7.90186969,8.36291785 C8.9611898,7.92883853 9.66535411,6.8965864 9.69946176,5.75635977 C10.2523229,5.70628895 10.811034,5.70767705 11.3648867,5.76042493 C11.3751983,6.91314448 12.0706374,7.96364023 13.1430453,8.41487252 C13.476289,8.55388102 13.8377904,8.62437677 14.2174363,8.62437677 C14.9917989,8.62427762 15.7486119,8.32583569 16.2800567,7.81818697 C16.7036261,8.17225212 17.0966572,8.56954674 17.451813,9.00243626 C16.663966,9.82577904 16.4225354,11.0512748 16.8557224,12.1122805 C17.2917847,13.1761615 18.3112465,13.8733853 19.469915,13.9090793 C19.5221671,14.4729462 19.5211756,15.0391926 19.4674363,15.5972096 Z" id="Shape"></path>
                                <path d="M10.513187,10.7538244 C8.30917847,10.7538244 6.51614731,12.5470538 6.51614731,14.7511615 C6.51614731,16.9552691 8.30917847,18.7483003 10.513187,18.7483003 C12.7172946,18.7483003 14.5104249,16.95517 14.5104249,14.7511615 C14.5104249,12.5470538 12.7172946,10.7538244 10.513187,10.7538244 Z M10.513187,17.2611473 C9.12924929,17.2611473 8.00339943,16.1351983 8.00339943,14.7512606 C8.00339943,13.3671246 9.12924929,12.2411756 10.513187,12.2411756 C11.8971246,12.2411756 13.0231728,13.3672238 13.0231728,14.7512606 C13.0231728,16.1351983 11.8971246,17.2611473 10.513187,17.2611473 Z" id="Shape"></path>
                                <path d="M27.2620255,4.65926346 C26.8556091,4.65926346 26.4582153,4.73858357 26.0807507,4.89514164 C24.5061473,5.54814448 23.7563739,7.36050992 24.4092776,8.93541076 C24.8898584,10.0940793 26.0121388,10.8428612 27.2683711,10.8428612 C27.6746884,10.8428612 28.071983,10.7635411 28.4493484,10.6070822 C30.0241501,9.95407932 30.7740227,8.14161473 30.1210198,6.56691218 C29.6405382,5.40794618 28.5183569,4.65926346 27.2620255,4.65926346 Z M27.9556799,9.41648725 C27.7356657,9.50770538 27.5044476,9.55390935 27.2684703,9.55390935 C26.5351558,9.55390935 25.8802691,9.11735127 25.6000708,8.44164306 C25.2193343,7.52331445 25.6564873,6.46657224 26.5746176,6.08563739 C26.7947309,5.99441926 27.0260482,5.94811615 27.2621246,5.94811615 C27.9954391,5.94811615 28.6503258,6.38467422 28.9305241,7.06058074 C29.3111615,7.9788102 28.8739093,9.03565156 27.9556799,9.41648725 Z" id="Shape"></path>
                                <path d="M34.2555807,8.68753541 C33.8633428,8.54763456 33.6009915,8.17661473 33.6028754,7.76385269 C33.6042635,7.38371105 33.8508499,7.01576487 34.2036261,6.86604816 L34.2670822,6.84175637 C34.7822663,6.66298867 35.077932,6.09406516 34.9274221,5.5626204 C34.762932,4.98239377 34.5301275,4.41773371 34.235255,3.88410765 C34.0570822,3.56196884 33.6948867,3.3617847 33.2898584,3.3617847 C33.1371671,3.3617847 32.98517,3.39143059 32.8504249,3.44735127 C32.7232153,3.5 32.5905524,3.52677054 32.4558074,3.52686969 C32.1935552,3.52686969 31.9486544,3.42563739 31.7665156,3.24230878 C31.4797734,2.95288952 31.4036261,2.50790368 31.5767422,2.13589235 C31.8089518,1.63885269 31.6156091,1.03978754 31.1372096,0.772478754 C30.6093343,0.476813031 30.0512181,0.242620397 29.4789235,0.0767422096 C29.3836402,0.04898017 29.2849858,0.0349008499 29.1859348,0.0349008499 C28.7413456,0.0349008499 28.3426629,0.316288952 28.1938385,0.7351983 C28.0661331,1.09451841 27.6522805,1.38691218 27.2717422,1.38691218 C26.8582861,1.38473088 26.4883569,1.11950425 26.3516289,0.72825779 C26.2048867,0.305283286 25.8056091,0.0212181303 25.3581445,0.0212181303 C25.2606799,0.0212181303 25.1636119,0.0348016997 25.0691218,0.0616713881 C24.4909773,0.226558074 23.9322663,0.456586402 23.4087535,0.745113314 C22.9295609,1.00875354 22.7316572,1.60553824 22.9585127,2.10416431 C23.1296459,2.47934844 23.0507224,2.92393768 22.7626912,3.20988669 C22.5946317,3.37645892 22.320779,3.47997167 22.0479178,3.47997167 C21.9043484,3.47997167 21.7684136,3.45171388 21.6535977,3.39767705 C21.5126062,3.33164306 21.3624929,3.29813031 21.2071246,3.29813031 C20.828272,3.29813031 20.4767847,3.5029745 20.2890935,3.83443343 C19.9903541,4.36558074 19.7534844,4.92915014 19.5852266,5.50858357 C19.4297592,6.04181303 19.7174929,6.60627479 20.241204,6.79406516 C20.6330453,6.93396601 20.8952975,7.30558074 20.8936119,7.71834278 C20.8918272,8.10939093 20.6211473,8.47456091 20.2034278,8.65045326 C19.6862606,8.8524221 19.419745,9.3831728 19.5699575,9.91987252 C19.7344476,10.4996034 19.967153,11.063966 20.261728,11.5975921 C20.4389093,11.9184419 20.8014023,12.117932 21.2078187,12.117932 C21.3635836,12.117932 21.5184561,12.0875921 21.6558782,12.0305807 L21.6706516,12.0243343 C21.7835836,11.9740652 21.9058357,11.9486827 22.034136,11.9486827 C22.2926204,11.9486827 22.5469405,12.0549717 22.7311615,12.240085 C23.0180028,12.5286119 23.0938527,12.9733994 22.9198442,13.3473938 C22.6888244,13.8449292 22.882762,14.443102 23.3589802,14.7082295 C23.8803116,15.0016147 24.4376346,15.2360057 25.0158782,15.4053541 C25.1120538,15.4335127 25.2116006,15.4477904 25.3114448,15.4477904 C25.7546459,15.4477904 26.152932,15.1670963 26.3027479,14.7482861 C26.430949,14.3885694 26.8431161,14.0958782 27.2257365,14.0958782 C27.6389943,14.0971671 28.0089235,14.3619972 28.1458499,14.7532436 C28.2925921,15.1762181 28.6918697,15.4603824 29.1393343,15.4603824 C29.2371955,15.4603824 29.3346601,15.4466997 29.4274646,15.4201275 C29.7213456,15.3366431 30.0142351,15.2346176 30.2977054,15.1170255 C30.5669972,15.0054816 30.8333144,14.8774788 31.0886261,14.7366856 C31.568017,14.4730453 31.7659207,13.8761615 31.5385694,13.3767422 C31.3673371,13.0025496 31.4461615,12.5586544 31.7341926,12.2727054 C31.9054249,12.1030595 32.1724363,12.0018272 32.4484703,12.0018272 C32.5923371,12.0018272 32.728966,12.0302833 32.8461615,12.0852125 C32.9866572,12.1504533 33.1359773,12.1834703 33.2901558,12.1834703 C33.290255,12.1834703 33.290255,12.1834703 33.290255,12.1834703 C33.6674221,12.1834703 34.0183144,11.9796176 34.2083853,11.6475637 C34.5056374,11.1191926 34.7425071,10.5558215 34.912153,9.9738102 C35.0677195,9.43998584 34.7797875,8.87522663 34.2555807,8.68753541 Z M33.1833711,10.8336402 C32.9522521,10.7544193 32.7017989,10.7130737 32.4479745,10.7130737 C31.8307649,10.7130737 31.23983,10.9478612 30.8260765,11.3577479 C30.2088669,11.9705949 30.0032295,12.8902125 30.282932,13.7052266 C30.1260765,13.7854391 29.9656516,13.8595042 29.8038385,13.9266289 C29.6316147,13.998017 29.4553258,14.0625637 29.2772521,14.1193768 C28.9086119,13.3287535 28.1112465,12.8099008 27.2212748,12.8072238 C26.3722521,12.8072238 25.5464306,13.342238 25.176204,14.1061898 C24.8304674,13.9929603 24.494745,13.8516714 24.1727054,13.683711 C24.4576629,12.8695892 24.2581728,11.9486827 23.6447309,11.3313739 C23.2198725,10.9046317 22.6327054,10.6600283 22.0338385,10.6600283 C21.7767422,10.6600283 21.5274788,10.7032578 21.2908074,10.7888244 C21.1209632,10.457068 20.9791785,10.113017 20.867932,9.76252125 C21.6687677,9.35769122 22.1784986,8.5763881 22.1822663,7.72389518 C22.1857365,6.84126062 21.6723371,6.04092068 20.8845892,5.66752125 C20.9985127,5.3178187 21.1422805,4.97634561 21.3134136,4.64885269 C21.5440368,4.7279745 21.7939943,4.76922096 22.0476204,4.76922096 C22.6658215,4.76912181 23.2570538,4.53463173 23.6701133,4.12524079 C24.2868272,3.51288952 24.4925637,2.5931728 24.2135552,1.77716714 C24.5361898,1.6123796 24.8733003,1.47347025 25.2195326,1.36271955 C25.5873796,2.15215297 26.3833569,2.67130312 27.2707507,2.67606232 C28.1227479,2.67606232 28.950255,2.14094901 29.3202833,1.37660057 C29.6634419,1.48834278 29.9996601,1.62953258 30.3241785,1.79848442 C30.0397167,2.61151558 30.2389093,3.5322238 30.8513598,4.15032578 C31.2778045,4.57954674 31.8475212,4.81601983 32.4557082,4.81601983 C32.7112181,4.81592068 32.9624646,4.77398017 33.2045892,4.69089235 C33.3738385,5.02066572 33.5151275,5.36263456 33.6264731,5.71243626 C32.8405099,6.08038244 32.3169972,6.89063739 32.3138244,7.75879603 C32.3100567,8.64113314 32.8236544,9.44127479 33.6119972,9.81467422 C33.4972805,10.1663598 33.3534136,10.5082295 33.1833711,10.8336402 Z" id="Shape"></path>
                            </g>
                        </g>
                    </g>
                </g>
            </g>
        </g>
    </g>
</svg>