<?xml version="1.0" encoding="UTF-8"?>
<svg width="34px" height="35px" viewBox="0 0 34 35" version="1.1" xmlns="http://www.w3.org/2000/svg" xmlns:xlink="http://www.w3.org/1999/xlink">
    <!-- Generator: Sketch 52.6 (67491) - http://www.bohemiancoding.com/sketch -->
    <title>icon</title>
    <desc>Created with Sketch.</desc>
    <g id="Website" stroke="none" stroke-width="1" fill="none" fill-rule="evenodd">
        <g id="Translator's-Hub" transform="translate(-1045.000000, -3749.000000)" fill="#61B0E8" fill-rule="nonzero">
            <g id="Financially" transform="translate(0.000000, 3335.000000)">
                <g id="features" transform="translate(150.000000, 384.000000)">
                    <g id="invoices" transform="translate(877.000000, 0.000000)">
                        <g id="icon" transform="translate(18.000000, 30.000000)">
                            <path d="M34,34.1050882 C34,34.1050882 34,17.9394017 34,12.5556124 C34,12.3336743 33.7219543,12.0544618 33.451038,11.8468422 L27.8402181,7.7588852 L27.8402181,3.24137049 C27.8402181,2.79749425 27.4694905,2.49680389 27.0987628,2.49680389 L20.7037115,2.49680389 L17.4455861,0.112758885 C17.2245754,-0.0375862951 16.8538478,-0.0375862951 16.6257077,0.112758885 L13.3675823,2.49680389 L6.97253093,2.49680389 C6.53050954,2.49680389 6.2310757,2.86908719 6.2310757,3.24137049 L6.2310757,7.70877014 L0.548962047,11.8540015 C0.213881317,12.0616211 0,12.3336743 0,12.5627717 C0,17.9823575 0,34.2554334 0,34.2554334 C0,34.6778318 0.33508073,34.9713628 0.684420214,35 C0.705808346,35 0.7200671,35 0.741455232,35 L33.2514154,35 C33.7290837,34.9928407 34,34.6205574 34,34.1050882 Z M32.5883833,13.8944004 L32.5883833,32.7663002 L20.3187251,22.9007926 L32.5883833,13.8944004 Z M32.0394213,12.5842496 L27.8402181,15.6555868 L27.8402181,9.48427512 L32.0394213,12.5842496 Z M17.0035647,1.52313986 L18.3082407,2.48964459 L15.6917593,2.48964459 L17.0035647,1.52313986 Z M26.3573076,3.9859371 L26.3573076,16.7437995 L17.0035647,23.5880849 L7.64982177,16.7437995 L7.64982177,3.9859371 L26.3573076,3.9859371 Z M1.41874607,13.8944004 L13.6884043,22.9007926 L1.41874607,32.8235745 L1.41874607,13.8944004 Z M6.23820507,15.7128612 L1.93206123,12.5627717 L6.23820507,9.41984147 L6.23820507,15.7128612 Z M2.75193961,33.5753004 L14.8790103,23.7742265 L16.5544139,25.0056252 C16.8752359,25.2490412 17.1176347,25.2490412 17.4455861,25.0056252 L19.1209897,23.7742265 L31.3193542,33.5753004 L2.75193961,33.5753004 Z" id="Shape"></path>
                            <rect id="Rectangle" x="12" y="8" width="10" height="1"></rect>
                            <rect id="Rectangle" x="12" y="13" width="10" height="1"></rect>
                            <rect id="Rectangle" x="12" y="17" width="10" height="1"></rect>
                        </g>
                    </g>
                </g>
            </g>
        </g>
    </g>
</svg>