<?xml version="1.0" encoding="UTF-8"?>
<svg width="112px" height="30px" viewBox="0 0 112 30" version="1.1" xmlns="http://www.w3.org/2000/svg" xmlns:xlink="http://www.w3.org/1999/xlink">
    <!-- Generator: Sketch 52.6 (67491) - http://www.bohemiancoding.com/sketch -->
    <title>logo_slogan</title>
    <desc>Created with Sketch.</desc>
    <g id="Website" stroke="none" stroke-width="1" fill="none" fill-rule="evenodd">
        <g id="Homepage" transform="translate(-673.000000, -975.000000)" fill="#CCCCCC">
            <g id="Testimonials-Section" transform="translate(148.000000, 891.000000)">
                <g id="logos" transform="translate(0.000000, 80.000000)">
                    <g id="logo_slogan" transform="translate(525.000000, 4.000000)">
                        <polygon id="Path" points="0 -1.4828718e-13 4.36453504 -1.4828718e-13 4.36453504 8.07890384 7.55458583 4.31355864 12.8120786 4.31355864 8.8141692 8.28588842 13.0434783 15.6521739 8.2312986 15.6521739 5.97384077 11.1067925 4.36453504 12.7058963 4.36453504 15.6521739 0 15.6521739"></polygon>
                        <path d="M18.0094839,4.50336517 L20.0606973,4.50336517 L20.0606973,7.42691844 L18.0094839,7.42691844 L18.0094839,15.6521739 L13.6956522,15.6521739 L13.6956522,7.63159042 L13.6956522,4.50336517 L13.6956522,3.99924411 C13.6956522,3.54454668 13.74498,3.0433329 13.8436355,2.49792857 C13.9417038,1.95194278 14.1272702,1.50596718 14.398573,1.16000174 C14.6698758,0.813454857 15.0504044,0.533193784 15.5401587,0.31979998 C16.0299131,0.106406175 16.7475149,-1.4828718e-13 17.6917895,-1.4828718e-13 C18.4457998,-1.4828718e-13 20.0835995,0.0872181763 21.5217391,0.261654529 L21.0460784,2.84447546 C20.5316601,2.7595831 19.5744663,2.71829983 19.256772,2.71829983 C18.8691966,2.71829983 18.590847,2.78284128 18.4217231,2.91250563 C18.2525993,3.04158853 18.1328033,3.24684198 18.062335,3.52652159 C18.0271009,3.68118849 18.0094839,4.00622156 18.0094839,4.50336517" id="Path"></path>
                        <polygon id="Path" points="21.2892038 4.56521739 31.6108001 4.56521739 31.6108001 7.04999558 25.9936959 12.7504711 31.9565217 12.7504711 31.9565217 15.6521739 20.8695652 15.6521739 20.8695652 12.8961923 26.2043882 7.46749845 21.2892038 7.46749845"></polygon>
                        <path d="M33.2608696,11.9504124 C33.2608696,13.1955576 33.3767593,14.0956696 33.6090987,14.6519121 C33.8408783,15.2081545 34.198625,15.6224272 34.6823388,15.8953118 C35.1660527,16.1681964 35.9184965,16.3043478 36.94023,16.3043478 C37.8208803,16.3043478 38.7681533,16.1891428 39.7826087,15.9575691 L39.4802875,13.0058766 C38.9361095,13.1879937 38.5123,13.2793431 38.2099788,13.2793431 C37.8740664,13.2793431 37.6389278,13.1600652 37.5045628,12.922673 C37.4172256,12.7690663 37.373557,12.4548708 37.373557,11.9795046 L37.373557,8.02704118 L39.6314481,8.02704118 L39.6314481,4.89672277 L37.373557,4.89672277 L37.373557,0.652173913 L33.2608696,2.84805155 L33.2608696,11.9504124 Z" id="Path"></path>
                        <path d="M54.1304348,11.502429 L45.4781686,11.502429 C45.556499,12.1936897 45.7431962,12.7080346 46.040616,13.0466351 C46.4575926,13.5328609 47.0017826,13.7765596 47.6731857,13.7765596 C48.0966408,13.7765596 48.5012496,13.6699414 48.8823003,13.4584625 C49.1155245,13.3248969 49.3664173,13.0888138 49.6343896,12.7502132 L53.8866094,13.141537 C53.2358196,14.2698152 52.451338,15.0788246 51.5325758,15.569151 C50.6132247,16.0588917 49.2945654,16.3043478 47.5771868,16.3043478 C46.0853762,16.3043478 44.9121875,16.0940405 44.057032,15.6751834 C43.2012874,15.2557404 42.4927805,14.5890839 41.9303331,13.6763854 C41.3690636,12.7631011 41.0869565,11.6898895 41.0869565,10.4561648 C41.0869565,8.6998939 41.6511707,7.27929451 42.7790102,6.19378082 C43.9068497,5.10768133 45.4628559,4.56521739 47.4499736,4.56521739 C49.062519,4.56521739 50.3346513,4.80891609 51.2669593,5.29455605 C52.1998563,5.78136764 52.911308,6.48668792 53.3989587,7.40993107 C53.8866094,8.33376004 54.1304348,9.53585074 54.1304348,11.0162032 L54.1304348,11.502429 Z M49.7409896,9.43977722 C49.6555918,8.60850689 49.4312018,8.01214805 49.0672306,7.65304396 C48.7032594,7.29335405 48.224443,7.11350909 47.6307813,7.11350909 C46.9446544,7.11350909 46.3963418,7.38474106 45.9870215,7.92779081 C45.7255277,8.26639141 45.5588548,8.77077742 45.4887697,9.44036303 L49.7409896,9.43977722 Z" id="Shape" fill-rule="nonzero"></path>
                        <path d="M56.0869565,-1.4828718e-13 L60.6521739,-1.4828718e-13 L60.6521739,2.95788182 L56.0869565,2.95788182 L56.0869565,-1.4828718e-13 Z M56.0869565,4.31382405 L60.6521739,4.31382405 L60.6521739,15.6521739 L56.0869565,15.6521739 L56.0869565,4.31382405 Z" id="Shape" fill-rule="nonzero"></path>
                        <rect id="Rectangle" x="62.6086957" y="-1.4828718e-13" width="4.56521739" height="15.6521739"></rect>
                        <path d="M81.5217391,11.502429 L72.8694729,11.502429 C72.9478033,12.1936897 73.1339116,12.7080346 73.4319203,13.0466351 C73.848308,13.5328609 74.392498,13.7765596 75.0639011,13.7765596 C75.4879452,13.7765596 75.8907871,13.6699414 76.2730157,13.4584625 C76.5062399,13.3248969 76.7571327,13.0888138 77.025105,12.7502132 L81.2779138,13.141537 C80.6271239,14.2698152 79.8426423,15.0788246 78.9232912,15.569151 C78.0039401,16.0588917 76.6858697,16.3043478 74.9684912,16.3043478 C73.4772695,16.3043478 72.3034919,16.0940405 71.4483363,15.6751834 C70.5925918,15.2557404 69.8840848,14.5890839 69.3222264,13.6763854 C68.760368,12.7636869 68.4782609,11.6898895 68.4782609,10.4561648 C68.4782609,8.6998939 69.043064,7.27929451 70.1703146,6.19378082 C71.2975651,5.10826714 72.8547492,4.56521739 74.840689,4.56521739 C76.4532344,4.56521739 77.7253667,4.80891609 78.6582637,5.29455605 C79.5911606,5.78136764 80.3020234,6.48668792 80.7896741,7.40993107 C81.2767359,8.33376004 81.5205612,9.53585074 81.5205612,11.0162032 L81.5217391,11.502429 Z M77.131705,9.43977722 C77.0463072,8.60850689 76.8225061,8.01214805 76.4573571,7.65304396 C76.0933859,7.29335405 75.6151584,7.11350909 75.0209077,7.11350909 C74.3359587,7.11350909 73.7876462,7.38474106 73.377148,7.92779081 C73.116832,8.26639141 72.9489812,8.77077742 72.8794851,9.44036303 L77.131705,9.43977722 Z" id="Shape" fill-rule="nonzero"></path>
                        <path d="M96.5217391,15.6521739 L83.4782609,15.6521739 C83.6282541,14.3851845 84.0817907,13.1937843 84.8394638,12.0773916 C85.5971369,10.9615804 87.0188114,9.64400448 89.1027088,8.1252453 C90.3767615,7.19433663 91.191349,6.48845086 91.5470641,6.00468071 C91.9039648,5.52149201 92.0806367,5.06330586 92.0806367,4.6295408 C92.0806367,4.16030701 91.9045577,3.76026631 91.5535855,3.42767433 C91.2002419,3.09508235 90.7573766,2.92878636 90.2243969,2.92878636 C89.6694814,2.92878636 89.214759,3.10031544 88.863194,3.4433736 C88.5104432,3.78643176 88.2744855,4.3917259 88.1529496,5.25925603 L83.7989973,4.91270914 C83.9685548,3.70909831 84.281584,2.76946782 84.7374922,2.09381768 C85.1934003,1.41816755 85.8360588,0.901254488 86.6636892,0.540752693 C87.493691,0.180250898 88.6402792,-1.4828718e-13 90.1064181,-1.4828718e-13 C91.6371785,-1.4828718e-13 92.8264526,0.17152908 93.6772044,0.514005785 C94.5273634,0.857063945 95.1961077,1.38386173 95.6840302,2.09381768 C96.1713598,2.80435509 96.4150246,3.60036632 96.4150246,4.48243281 C96.4150246,5.41973747 96.1351954,6.31575887 95.5767228,7.16991554 C95.0182502,8.02349076 94.0026837,8.96137688 92.5294305,9.98357391 C91.6537786,10.5778204 91.0680345,10.9947233 90.7733838,11.2325382 C90.4787332,11.4703531 90.1307253,11.7820127 89.7329173,12.1669356 L96.5205534,12.1669356 L96.5205534,15.6521739 L96.5217391,15.6521739 Z" id="Path"></path>
                        <path d="M105.759149,12.7761931 L97.826087,12.7761931 L97.826087,9.25884409 L105.759149,-1.4828718e-13 L109.554359,-1.4828718e-13 L109.554359,9.45887187 L111.521739,9.45887187 L111.521739,12.7761931 L109.554359,12.7761931 L109.554359,15.6521739 L105.759149,15.6521739 L105.759149,12.7761931 Z M105.759149,9.45887187 L105.759149,4.61517588 L101.566663,9.45887187 L105.759149,9.45887187 Z" id="Shape" fill-rule="nonzero"></path>
                        <polygon id="Path" points="36.498345 26.8073232 36.5181699 26.8073232 38.0452923 22.173913 39.5531905 22.173913 40.9835911 26.8073232 41.0034161 26.8073232 42.3755433 22.173913 44.3478261 22.173913 42.0174926 29.3478261 40.0848598 29.3478261 38.8088535 25.1897282 38.7896293 25.1897282 37.3592287 29.3478261 35.4356072 29.3478261 33.2608696 22.173913 35.2325516 22.173913"></polygon>
                        <rect id="Rectangle" x="44.3478261" y="22.173913" width="1.95652174" height="7.17391304"></rect>
                        <path d="M53.4782609,29.3478261 L51.1945531,29.3478261 L49.4630081,26.588538 L49.4443894,26.588538 L49.4443894,29.3478261 L47.6086957,29.3478261 L47.6086957,22.173913 L50.3520541,22.173913 C51.7467159,22.173913 52.8044944,22.8497293 52.8044944,24.3812255 C52.8044944,25.3707715 52.2610592,26.2270412 51.2603007,26.4080845 L53.4782609,29.3478261 Z M49.4443894,25.3896424 L49.6218495,25.3896424 C50.2211409,25.3896424 50.8954893,25.2758269 50.8954893,24.495041 C50.8954893,23.7142551 50.2211409,23.6004396 49.6218495,23.6004396 L49.4443894,23.6004396 L49.4443894,25.3896424 Z" id="Shape" fill-rule="nonzero"></path>
                        <path d="M60.9360948,24.2843666 C60.5984749,23.9893307 60.1677185,23.7914184 59.7177527,23.7914184 C59.3807149,23.7914184 58.9307491,23.9984933 58.9307491,24.412643 C58.9307491,24.8463397 59.4272832,25.01371 59.7456936,25.1224396 L60.2148689,25.2696521 C61.1980412,25.5756831 61.9565217,26.0973408 61.9565217,27.2994747 C61.9565217,28.0392024 61.7882939,28.7978661 61.2254001,29.2999769 C60.6729841,29.7929251 59.9325488,30 59.2212186,30 C58.3317649,30 57.4603563,29.6841955 56.7391304,29.1515427 L57.526134,27.5951214 C57.9854135,28.0184338 58.5285158,28.3635586 59.1560231,28.3635586 C59.5867795,28.3635586 60.0454768,28.1369368 60.0454768,27.6140575 C60.0454768,27.0722421 59.3242509,26.8853249 58.9307491,26.766211 C57.7787668,26.4216971 57.0202863,26.1065034 57.0202863,24.6673635 C57.0202863,23.1591986 58.0412954,22.173913 59.4558062,22.173913 C60.1677185,22.173913 61.0385449,22.4103083 61.6666343,22.7847534 L60.9360948,24.2843666 Z" id="Path"></path>
                        <rect id="Rectangle" x="62.6086957" y="22.173913" width="1.95652174" height="7.17391304"></rect>
                        <polygon id="Path" points="65.8695652 22.173913 67.7370563 22.173913 71.157632 26.5596419 71.1765793 26.5596419 71.1765793 22.173913 73.0434783 22.173913 73.0434783 29.3478261 71.1765793 29.3478261 67.7560036 24.9520721 67.7370563 24.9520721 67.7370563 29.3478261 65.8695652 29.3478261"></polygon>
                        <path d="M73.6956522,22.173913 L76.4383881,22.173913 C78.5103095,22.173913 80.2173913,23.743741 80.2173913,25.7605747 C80.2173913,27.7779982 78.4998855,29.3478261 76.4383881,29.3478261 L73.6956522,29.3478261 L73.6956522,22.173913 Z M75.6289959,27.7685627 L76.0631244,27.7685627 C77.2177347,27.7685627 78.2037216,27.1599743 78.2037216,25.7605747 C78.2037216,24.4761701 77.3256536,23.7537662 76.082746,23.7537662 L75.6289959,23.7537662 L75.6289959,27.7685627 Z" id="Shape" fill-rule="nonzero"></path>
                        <path d="M86.4977808,28.1017531 L86.0240852,29.3478261 L84.1304348,29.3478261 L86.7705661,22.173913 L88.7185472,22.173913 L91.3043478,29.3478261 L89.4016423,29.3478261 L88.955112,28.1017531 L86.4977808,28.1017531 Z M87.7451226,24.3912507 L87.7270124,24.3912507 L86.9890207,26.6740471 L88.4729273,26.6740471 L87.7451226,24.3912507 Z" id="Shape" fill-rule="nonzero"></path>
                        <path d="M97.826087,22.826087 L97.826087,26.7559988 C97.826087,27.6550358 97.7906012,28.5448813 97.1208076,29.2216006 C96.5591347,29.7960651 95.6758722,30 94.8907499,30 C94.1056276,30 93.2223651,29.7960651 92.6612466,29.2216006 C91.9920075,28.5448813 91.9565217,27.6550358 91.9565217,26.7559988 L91.9565217,22.826087 L93.704195,22.826087 L93.704195,26.5055323 C93.704195,27.4137607 93.7668496,28.4058609 94.8913043,28.4058609 C96.0157591,28.4058609 96.0784137,27.4137607 96.0784137,26.5055323 L96.0784137,22.826087 L97.826087,22.826087 Z" id="Path"></path>
                        <polygon id="Path" points="101.621248 29.3478261 99.9004912 29.3478261 99.9004912 23.7531764 98.4782609 23.7531764 98.4782609 22.173913 103.043478 22.173913 103.043478 23.7531764 101.621248 23.7531764"></polygon>
                        <path d="M110.869565,25.9512126 C110.869565,28.3258255 109.227831,30 106.95623,30 C104.685213,30 103.043478,28.3258255 103.043478,25.9512126 C103.043478,23.7310461 104.920246,22.173913 106.95623,22.173913 C108.992214,22.173913 110.869565,23.7310461 110.869565,25.9512126 M104.957572,25.9608655 C104.957572,27.2266018 105.85863,28.1508667 106.956813,28.1508667 C108.05558,28.1508667 108.956055,27.2266018 108.956055,25.9608655 C108.956055,24.9485179 108.05558,24.0236496 106.956813,24.0236496 C105.85863,24.0236496 104.957572,24.9485179 104.957572,25.9608655" id="Shape" fill-rule="nonzero"></path>
                    </g>
                </g>
            </g>
        </g>
    </g>
</svg>