<svg fill="none" height="65" viewBox="0 0 166 65" width="166" xmlns="http://www.w3.org/2000/svg" xmlns:xlink="http://www.w3.org/1999/xlink"><clipPath id="a"><path d="m0 0h166v65h-166z"/></clipPath><g clip-path="url(#a)" fill="#141416"><path d="m46.7718 34.7077h-3.4499c.033-.2698.0024-.5435-.0893-.7996-.0918-.2562-.2422-.488-.4396-.6772-.1974-.1891-.4364-.3306-.6982-.4133-.2619-.0828-.5396-.1045-.8114-.0636-1.0974 0-1.7243.6136-1.7243 1.4653 0 2.9625 7.3381 3.7565 7.3381 8.4284 0 2.7183-1.8497 4.6106-5.5194 4.6106-3.5443 0-5.7391-1.8629-5.7391-4.98h3.512c-.0253.2927.0154.5872.1194.8623.1039.2751.2684.5239.4815.7285s.4696.3598.7508.4544c.2813.0946.5803.1263.8754.0926 1.2538 0 2.0384-.6418 2.0384-1.7095 0-2.4102-7.4324-3.7846-7.4324-8.3339 0-2.6262 1.8187-4.4891 5.2053-4.4891 3.5753 0 5.5827 1.588 5.5827 4.8241z"/><path d="m48.5906 33.0903v-2.7784c1.9751 0 2.571-.7363 2.571-3.176h2.4158v2.9625h2.7584v2.9612h-2.7584v8.6726c0 1.6187.2483 2.382 2.1005 2.382.2316.0045.4631-.0161.6902-.0613v2.9919s-.5959.0614-1.4115.0614c-4.4219 0-4.9235-2.5035-4.9235-6.4122v-7.6675h-1.4425z"/><path d="m62.9849 47.2583c-2.8726-.0319-4.3909-1.8273-4.3909-5.191v-6.9951c-.105-1.4046.3304-2.7966 1.2191-3.8976.4124-.4108.9085-.7302 1.4554-.9369.5468-.2068 1.1319-.2961 1.7164-.262.6689-.0348 1.3358.0981 1.9388.3865.6029.2884 1.1223.7228 1.5099 1.2628v-1.4653h3.2935v16.8557h-3.2935v-1.4665c-.3797.5519-.8959.9987-1.4995 1.2979s-1.2746.4409-1.9492.4115zm1.1955-14.3202c-1.3519 0-2.0384.8591-2.0384 2.5649v6.136c0 1.7254.6666 2.5648 2.0384 2.5648 1.3656-.0319 2.0384-.8701 2.0384-2.5648v-6.4723c.0407-.2838.0177-.5729-.0673-.847-.0849-.2741-.2297-.5263-.4242-.7389s-.4338-.3804-.7011-.4915c-.2673-.111-.5561-.1626-.8458-.1512z"/><path d="m79.7305 33.2731h-.4705c-2.54 0-3.1992 1.2518-3.1992 4.0351v9.6801h-3.512v-16.8605h3.3246v1.68c.2818-.9167 1.4735-1.8629 3.574-1.8629h.2818z"/><path d="m81.8 33.0903v-2.7784c1.9752 0 2.571-.7363 2.571-3.176h2.4159v2.9625h2.7584v2.9612h-2.7584v8.6726c0 1.6187.2483 2.382 2.1005 2.382.2316.0045.4631-.0161.6902-.0613v2.9919s-.5959.0614-1.4115.0614c-4.422 0-4.9235-2.5035-4.9235-6.4122v-7.6675h-1.4426z"/><path d="m99.4866 30.1278h3.5134v11.6952c.05.7295-.06 1.461-.322 2.1445-.263.6836-.671 1.3029-1.199 1.8158-.527.5128-1.16.9069-1.8553 1.1554-.6956.2484-1.4373.3453-2.1742.284-3.512 0-5.5865-2.0764-5.5865-5.3997v-11.6952h3.5158v12.1837c-.0113.2668.0357.5329.1377.7802.1021.2473.2567.47.4535.653.1967.183.431.322.687.4076.2559.0855.5274.1157.7962.0883.2636.0131.5271-.0273.7744-.1185.2472-.0913.473-.2316.6634-.4123.1905-.1806.3415-.3979.444-.6383.1024-.2405.154-.4991.1516-.76z"/><path d="m109.114 52.755h-3.543v-22.6579h3.324v1.4653c.377-.5455.889-.9862 1.488-1.2802.598-.2939 1.263-.4311 1.93-.3986.592-.0291 1.184.0652 1.738.2766.553.2114 1.055.5352 1.474.9506.884 1.1046 1.316 2.4976 1.21 3.9025v7.0196c0 3.3355-1.529 5.099-4.422 5.099-.61.0291-1.217-.0874-1.772-.3394-.554-.2521-1.039-.6323-1.414-1.1087l-.013-.0184v7.0834zm2.007-19.8476c-1.333 0-2.038.8873-2.038 2.5649v6.1679c0 1.6383.705 2.5035 2.038 2.5035 1.374 0 2.071-.8529 2.071-2.5342v-6.136c0-1.7034-.698-2.5661-2.071-2.5661z"/><path d="m128.464 46.9834h-10.192l5.586-13.8674h-5.021v-2.9882h9.815l-5.551 13.8674h5.363v2.9919z"/><path d="m131.82 47.1982c-.199.0046-.397-.0299-.582-.1013s-.354-.1784-.496-.3148c-.143-.1364-.258-.2995-.336-.4798-.079-.1803-.121-.3742-.123-.5706.004-.3996.168-.7814.456-1.0618.288-.2803.676-.4365 1.081-.4342.202-.004.403.0315.592.1046.188.0731.36.1823.506.3213.145.139.262.3051.342.4888.08.1836.123.3812.126.5813-.003.1986-.046.3946-.127.5764-.081.1819-.198.3459-.344.4825s-.318.243-.506.313-.389.1021-.589.0946z"/><path d="m142.67 43.2282c.053.537-.013 1.0792-.195 1.5881-.181.5089-.474.972-.857 1.3566-.383.3847-.847.6814-1.359.8692-.511.1877-1.059.262-1.603.2175-.546.0495-1.097-.0211-1.613-.2066-.516-.1856-.984-.4815-1.371-.8668-.386-.3852-.682-.8501-.865-1.3615-.184-.5114-.251-1.0566-.197-1.5965v-4.4879c-.044-.5351.03-1.0734.218-1.5771.188-.5038.485-.9608.87-1.339.386-.3783.85-.6686 1.361-.8506.511-.1821 1.056-.2515 1.597-.2033.539-.0432 1.08.0298 1.587.214.507.1843.967.4754 1.349.853.382.3777.676.833.862 1.3343.186.5012.26 1.0365.216 1.5687v.1829h-2.54v-.4909c.02-.198-.003-.398-.069-.586-.067-.1879-.174-.3592-.314-.5016-.141-.1425-.312-.2527-.5-.3229-.188-.0701-.39-.0984-.591-.083-.202-.0165-.406.0109-.597.0804s-.364.1793-.507.3217c-.144.1425-.254.3142-.323.5031-.07.1889-.096.3905-.079.5907v5.1297c-.023.2015 0 .4055.067.597.067.1916.177.3656.322.5093.145.1438.32.2534.514.3209.193.0674.399.091.603.0688.201.0157.403-.0125.592-.0827s.359-.1807.5-.3235.248-.3144.314-.5028c.066-.1883.089-.3887.068-.587v-.4577h2.54z"/><path d="m148.095 47.2596c-.547.0479-1.097-.0237-1.612-.2098s-.982-.4821-1.369-.867c-.386-.3849-.682-.8492-.866-1.3598-.184-.5107-.252-1.0552-.199-1.5948v-4.4879c-.025-.5268.055-1.0534.237-1.5494.181-.4959.46-.9516.821-1.3407.399-.3687.869-.6542 1.383-.8398.513-.1855 1.059-.2671 1.605-.2401.538-.0432 1.08.0298 1.586.214.507.1843.968.4753 1.35.853.381.3777.676.833.862 1.3343.186.5012.259 1.0365.215 1.5687v4.4879c.054 1.0857-.329 2.1484-1.066 2.9551-.393.3662-.856.6503-1.363.8352-.506.185-1.045.267-1.584.2411zm0-10.3208c-.204-.0205-.409.0041-.602.0722-.193.068-.368.1777-.512.321-.144.1434-.254.3168-.322.5075-.068.1908-.092.3942-.07.5952v5.1297c-.024.2015-.001.4055.066.597.068.1916.178.3656.322.5093.145.1438.321.2534.514.3209.194.0674.4.091.604.0688.201.0157.402-.0125.591-.0827.189-.0701.359-.1804.5-.3231.141-.1426.248-.3142.314-.5023.066-.1882.089-.3885.068-.5866v-5.131c.021-.1982-.002-.3986-.068-.5869-.066-.1884-.173-.3601-.313-.5029-.141-.1428-.312-.2532-.501-.3234-.188-.0702-.39-.0984-.591-.0827z"/><path d="m155.965 47.046h-2.54v-12.1836h2.415v1.0075c.22-.3677.538-.6681.92-.8676s.813-.2904 1.244-.2626c.507-.0337 1.014.0781 1.459.3219.445.2437.809.6092 1.05 1.0525.276-.4323.661-.7862 1.118-1.0271.456-.2409.968-.3606 1.485-.3473 1.788 0 2.885 1.0688 2.885 3.5723v8.7328h-2.572v-8.7929c0-1.0075-.565-1.3438-1.223-1.3438-.171-.0053-.342.0259-.5.0914-.158.0656-.299.164-.415.2886s-.204.2724-.257.4335c-.053.161-.07.3314-.051.4996v8.8248h-2.571v-8.7941c0-.9818-.565-1.3438-1.223-1.3438-.172-.0081-.343.0212-.503.0859-.159.0646-.302.163-.418.2883-.117.1252-.204.2741-.256.4364-.052.1622-.068.3338-.046.5025z"/><path d="m13.7197 48.6635c-.6207 0-1.0341-.4799-1.0664-1.253v-7.6945l-.0732-.0123c-.1416-.0281-.2853-.0445-.4296-.0491-.3376 0-.6877 0-1.0018 0h-.3128-.0634c-.3227 0-.81185-.0061-1.26621-.0061-.51147 0-.9497 0-1.33826.0147-.26439.022-.51054.1421-.68899.3362-.869 1.1843-1.738 2.3845-2.56976 3.5442l-.01241.0172-.0869.1227v.0074l-.08442.1227c-.84045 1.1658-1.70945 2.3709-2.57348 3.5515-.03352.043-.06331.0871-.08938.1227l-.00745.0111c-.04432.0713-.09591.1379-.15394.1988-.09963.1178-.22419.2126-.36489.2777-.14071.0651-.29414.0989-.44949.099-.213661.0003-.422091-.0653-.596302-.1876s-.305543-.2952-.375732-.4947c-.0645834-.2075-.0964071-.4235-.0943489-.6406 0-1.1941 0-2.5059-.0062071-3.4632v-.535c-.00620714-2.5968-.01365571-5.277.0074486-7.9413-.0509454-1.4081.2833474-2.8038.9676434-4.0398.684298-1.2361 1.693248-2.2668 2.920508-2.9834.61876-.3682 1.28248-.6569 1.97511-.8591.16933-.0279.32052-.1212.42037-.2592.09985-.1381.1402-.3097.1122-.4771-.01365-1.0075-.00993-2.0163-.0062-2.9907v-.0172c0-1.3094.01117-2.663-.02483-4.0141-.07907-4.5246.95219-9.0007 3.0055-13.04521.86902-1.75121 1.83112-3.39076 3.01042-5.313782.3191-.531379.6928-.812408 1.0813-.812408.2431.033588.4743.125083.6737.266606s.361.328833.4709.545802c2.8686 4.116872 4.8155 8.791472 5.7106 13.711492.1865 1.2128.2807 2.4377.2818 3.6645.0298 2.6679.0298 5.3911 0 8.0909-.0126.0728-.0103.1473.0067.2192.0169.0719.0483.1397.0921.1995s.0992.1103.1631.1486c.0638.0383.1347.0637.2086.0745 1.7176.4966 3.2339 1.514 4.3351 2.9085 1.0437 1.4146 1.5916 3.1275 1.5604 4.8781.0199 2.6999.0137 5.4243.0062 8.064v.0221c0 1.2971-.0062 2.6839-.0062 4.0375.0402.2548-.0139.5154-.1523.734s-.3518.3806-.6012.4564c-.1144.0364-.2337.0558-.3538.0576-.1992-.0135-.3917-.0761-.5601-.1823-.1683-.1061-.3069-.2523-.4033-.4251-1.8509-2.5956-3.615-5.0316-5.3927-7.4504-.1289-.1574-.3015-.2743-.4966-.3362-.4072-.0086-.8367-.0135-1.3507-.0135-.4022 0-.8007 0-1.2799 0h-.2011c-.4643 0-.9447.0061-1.4351.0061v7.7314c-.0074.7621-.4134 1.2542-1.0403 1.2542zm7.024-19.6647c-.0014.0281-.0051.056-.0112.0834v.0234c-.0087.0346-.0141.0699-.0161.1055v8.4284c.0233.232.1091.4536.2483.6419 1.1818 1.6493 2.3587 3.2704 3.6684 5.0658.0909.1145.1905.222.2979.3216l.0162.0159v-9.7391c-.0036-.1451-.0202-.2897-.0497-.4319v-.0221-.0221c-.0124-.0687-.0273-.146-.036-.2258-.235-1.0075-.7407-1.9336-1.4637-2.6807-.723-.747-1.6365-1.2875-2.6442-1.5642zm-14.30002-.0626c-.22491.0663-.44478.1484-.65795.2454-1.08794.427-2.01712 1.1737-2.66205 2.1393-.64493.9657-.97454 2.1037-.9443 3.2604-.0211 1.9439-.0149 3.8976-.00745 5.7863v.567 2.3501c.00508.0919.01921.1832.04221.2724v.016c0 .0245.01117.0503.01614.0773.04487-.0571.09609-.1089.15269-.1547h.00621c.02359-.0196.04221-.0356.06083-.0527.59837-.8296 1.20295-1.6666 1.80876-2.5023l.07945-.1105.15891-.2196c.58512-.8083 1.16777-1.6146 1.74793-2.4188.14521-.2273.21468-.4938.19862-.7621.02111-1.3917.01366-2.8103.00745-4.1823v-.1964c0-.605-.0062-1.3585-.0062-2.0641v-2.0507zm7.26732-2.3219c.2417.0137.4712.1094.6497.2711s.295.3794.3298.6162c.0259.2125.0362.4266.031.6406v9.4666h3.8261v-19.4818c-.0024-2.6914-.4813-5.3616-1.4152-7.8897-.9494-2.54137-2.1342-4.99063-3.5393-7.31656-.0745.12272-.1465.22581-.1987.30435-.0919.1255-.1721.25899-.2396.39884-.206.40866-.4183.82345-.6207 1.2272l-.0111.02086c-.735 1.43215-1.4898 2.9097-2.1241 4.40198-1.22182 2.91393-1.85039 6.03743-1.84975 9.19173.0422 4.0976.02731 8.2689.01365 12.3015-.00621 2.0114-.01365 4.0915-.01365 6.1421v.702h4.07565v-9.5611c0-.0442 0-.0908 0-.1387-.0154-.1477-.0036-.297.0347-.4406.0383-.2371.16-.4534.3437-.6105.1838-.1571.4177-.2452.6606-.2485z"/><path d="m7.94738 55.5334v-7.848c-.00528-.214.00509-.4281.03104-.6406.04075-.2331.16426-.4442.34835-.5954.18409-.1511.41667-.2324.65596-.2293.24028-.0075.47502.0722.65984.2242.18483.152.30693.3656.34324.6005.02599.1718.03629.3455.03099.5191v16.1537c-.03099.7363-.43942 1.1609-1.06634 1.1302-.62693-.0307-1.00308-.4283-1.00308-1.1609.03145-2.6876.03145-5.4054 0-8.1535z"/><path d="m17.8566 56.5483v-6.9681c-.0173-.2383.0148-.4776.0943-.7032.0571-.2129.19-.3983.3743-.5221.1843-.1237.4076-.1776.6288-.1516.223-.0038.44.0708.6124.2107.1724.1398.2889.3357.3286.5526.0534.2508.0747.5073.0633.7633v14.0184c-.031.7633-.4394 1.2517-1.0664 1.2517-.6269 0-1.0353-.5179-1.0353-1.2517z"/><path d="m12.8076 59.6862v-3.9086c0-.7916.4395-1.2825 1.0664-1.2825.1541.0149.3035.0602.4395.1332.136.0729.2559.1722.3524.2917.0965.1196.1678.2571.2097.4044.0418.1473.0533.3014.0338.4532v7.9093c.0185.1564.0044.3149-.0416.4657-.0459.1508-.1227.2907-.2256.4109s-.2297.2183-.3725.2881-.2986.1099-.4577.1177c-.6282-.0307-1.0354-.4884-1.0354-1.2824.031-1.3438.031-2.6569.031-4.0007z"/><path d="m13.7114 20.9373h-.0559c-.9744-.0095-1.9066-.3948-2.5979-1.0738s-1.08695-1.598-1.10277-2.5612c.01712-.9639.41427-1.8832 1.10697-2.5619.6926-.6788 1.6259-1.0633 2.6012-1.0718h.0546c.498.0045.9901.1062 1.4482.2993.458.1931.8729.4739 1.2209.826.3375.3332.6051.7291.7875 1.1648.1823.4357.2758.9028.2751 1.3743-.0094.4756-.1138.9448-.307 1.3805s-.4715.8294-.8189 1.1586c-.6954.6804-1.6336 1.0631-2.612 1.0652zm-.0248-5.2524c-.433.0013-.8478.1723-1.1534.4755-.3055.3032-.477.7139-.4766 1.1419.0181.4248.2006.8264.5097 1.1219.3091.2956.7213.4624 1.1513.4661.4363-.0127.8503-.1938 1.1533-.5044.149-.151.2654-.3303.3422-.5271.0769-.1968.1125-.407.1047-.6178-.0187-.4165-.1983-.81-.5018-1.0995s-.7077-.453-1.1294-.4566z"/></g></svg>