<?xml version="1.0" encoding="UTF-8"?>
<svg width="91px" height="51px" viewBox="0 0 91 51" version="1.1" xmlns="http://www.w3.org/2000/svg" xmlns:xlink="http://www.w3.org/1999/xlink">
    <!-- Generator: Sketch 52.4 (67378) - http://www.bohemiancoding.com/sketch -->
    <title>logo</title>
    <desc>Created with Sketch.</desc>
    <defs>
        <ellipse id="path-1" cx="14.5346682" cy="14.0005091" rx="14.4297409" ry="13.9321636"></ellipse>
    </defs>
    <g id="Symbols" stroke="none" stroke-width="1" fill="none" fill-rule="evenodd">
        <g id="Element-/-Logo-/-Logo">
            <g id="logo">
                <g id="Group" fill="#4D5E6C" fill-rule="nonzero">
                    <polygon id="Shape" points="11.3454545 7.94730827 0 7.94730827 0 3.92214286 27.1974444 3.92214286 27.1974444 7.94743609 15.8519899 7.94743609 15.8519899 39.1173835 11.3454545 39.1173835"></polygon>
                    <polygon id="Shape" points="58.2644242 0.464496241 62.5057071 0 62.5057071 39.1173835 58.2644242 39.1173835"></polygon>
                    <path d="M86.7873434,37.0529699 C85.7616566,37.775406 84.5514747,38.4125865 83.1557475,38.9624662 C81.7589697,39.512218 80.478404,39.7880526 79.3120808,39.7880526 C77.8625152,39.7880526 76.4929192,39.5468571 75.2031616,39.0656165 C73.9126162,38.5842481 72.7818788,37.8101729 71.8102929,36.743391 C70.8377879,35.6773759 70.0688182,34.2920677 69.5041717,32.589 C68.9383434,30.886188 68.6557576,28.7960827 68.6557576,26.318812 C68.6557576,23.9797143 69.0535051,21.9501955 69.8486061,20.2293609 C70.6439697,18.5094211 71.6684747,17.0902406 72.923697,15.9718195 C74.1778687,14.8542932 75.5746465,14.0197594 77.1119293,13.468985 C78.6494747,12.9191053 80.1421111,12.6432707 81.5919394,12.6432707 C82.9346162,12.6432707 84.0306869,12.7206015 84.8788384,12.8755188 C85.7269899,13.0303083 86.4691717,13.1940451 87.1055152,13.3657068 C87.7418586,13.5382632 88.3422222,13.7012331 88.9080505,13.8558947 C89.4730909,14.0106842 90.1622222,14.0881429 90.9757071,14.0881429 L90.9757071,50.4185489 L86.7874747,50.9345564 L86.7874747,37.0529699 L86.7873434,37.0529699 Z M79.7890101,36.1757444 C80.5661212,36.1757444 81.3614848,36.0387218 82.1749697,35.7628872 C82.9875354,35.4880752 83.765303,35.1614962 84.5076162,34.7825113 C85.249798,34.4042932 86.0095758,33.9566692 86.7873434,33.4406617 L86.7873434,16.9783985 C86.4690404,16.8752481 86.079697,16.7549699 85.6208889,16.6171805 C85.2315455,16.5486692 84.7014343,16.4712105 84.0305556,16.3849323 C83.3586263,16.2995489 82.5460606,16.2559624 81.5918081,16.2559624 C80.1073131,16.2559624 78.8347576,16.5140301 77.7745354,17.0300376 C76.7143131,17.5461729 75.8395051,18.2605564 75.1503737,19.1716541 C74.4609798,20.0836466 73.9575253,21.1326617 73.6392222,22.319594 C73.3211818,23.5065263 73.1621616,24.7709173 73.1621616,26.1126391 C73.1621616,27.3173383 73.2947879,28.5211429 73.5596465,29.725203 C73.824899,30.9297744 74.2398485,32.0134286 74.8055455,32.9764211 C75.3705859,33.939797 76.0597172,34.714 76.873202,35.2986466 C77.685899,35.8839323 78.6574848,36.1757444 79.7890101,36.1757444 Z" id="Shape"></path>
                </g>
                <g id="Clipped" transform="translate(24.000000, 11.000000)">
                    <mask id="mask-2" fill="white">
                        <use xlink:href="#path-1"></use>
                    </mask>
                    <g id="SVGID_1_"></g>
                    <g id="Group" mask="url(#mask-2)">
                        <g transform="translate(0.000000, -0.127273)">
                            <g id="Shape_12" transform="translate(23.595455, 0.000000)">
                                <polygon id="Rectangle-path" fill="#B6CA94" fill-rule="nonzero" points="0.0577363636 0.0684727273 5.44975909 0.0684727273 5.44975909 28.5608909 0.0577363636 28.5608909"></polygon>
                            </g>
                            <g id="Shape_11" transform="translate(20.036364, 0.000000)">
                                <polygon id="Rectangle-path" fill="#8CAB62" fill-rule="nonzero" points="0.0224090909 0.0684727273 3.64622273 0.0684727273 3.64622273 28.553 0.0224090909 28.553"></polygon>
                            </g>
                            <g id="Shape_10" transform="translate(16.345455, 0.000000)">
                                <polygon id="Rectangle-path" fill="#A1BC78" fill-rule="nonzero" points="0.120086364 0.0684727273 3.74455909 0.0684727273 3.74455909 28.5608909 0.120086364 28.5608909"></polygon>
                            </g>
                            <g id="Shape_9" transform="translate(14.236364, 0.000000)">
                                <polygon id="Rectangle-path" fill="#D9E5C5" fill-rule="nonzero" points="0.0110727273 0.0684727273 2.25751818 0.0684727273 2.25751818 28.5608909 0.0110727273 28.5608909"></polygon>
                            </g>
                            <g id="Shape_8" transform="translate(8.172727, 0.000000)">
                                <polygon id="Rectangle-path" fill="#B6CEB8" fill-rule="nonzero" points="0.0242545455 0.0684727273 6.13481818 0.0684727273 6.13481818 28.5608909 0.0242545455 28.5608909"></polygon>
                            </g>
                            <g id="Shape_7" transform="translate(4.613636, 0.000000)">
                                <polygon id="Rectangle-path" fill="#B9CFE4" fill-rule="nonzero" points="0.0905590909 0.0684727273 3.71516364 0.0684727273 3.71516364 28.5608909 0.0905590909 28.5608909"></polygon>
                            </g>
                            <g id="Shape_6" transform="translate(2.504545, 0.000000)">
                                <polygon id="Rectangle-path" fill="#5183BB" fill-rule="nonzero" points="0.0612954545 0.0684727273 2.21823636 0.0684727273 2.21823636 28.553 0.0612954545 28.553"></polygon>
                            </g>
                            <g id="Shape_5">
                                <polygon id="Rectangle-path" fill="#2C66AB" fill-rule="nonzero" points="0.0611636364 0.0684727273 2.57717727 0.0684727273 2.57717727 28.553 0.0611636364 28.553"></polygon>
                            </g>
                        </g>
                    </g>
                </g>
            </g>
        </g>
    </g>
</svg>