<?xml version="1.0" encoding="UTF-8"?>
<svg width="54px" height="39px" viewBox="0 0 54 39" version="1.1" xmlns="http://www.w3.org/2000/svg" xmlns:xlink="http://www.w3.org/1999/xlink">
    <!-- Generator: Sketch 52.6 (67491) - http://www.bohemiancoding.com/sketch -->
    <title>Group 65</title>
    <desc>Created with Sketch.</desc>
    <g id="Website-Second-Iteration" stroke="none" stroke-width="1" fill="none" fill-rule="evenodd">
        <g id="Customer-Service" transform="translate(-220.000000, -621.000000)" fill-rule="nonzero">
            <g id="Group-71" transform="translate(120.000000, 300.000000)">
                <g id="Group-68" transform="translate(0.000000, 11.000000)">
                    <g id="Group-2" transform="translate(0.000000, 149.000000)">
                        <g id="Group-65" transform="translate(100.000000, 161.000000)">
                            <g id="Group-47">
                                <rect id="Rectangle" fill="#FFBF0D" x="1.42178982e-12" y="1.37634178e-14" width="53.97796" height="38.9536502" rx="3.01600004"></rect>
                                <rect id="Rectangle" fill="#FFBF0D" x="1.42178982e-12" y="1.37634178e-14" width="53.97796" height="38.9536502" rx="3.01600004"></rect>
                                <path d="M50.2883273,6.8817089e-15 L3.67987177,6.8817089e-15 C2.7039091,2.06451267e-14 1.76791931,0.384689367 1.07780949,1.06944083 C0.387699663,1.7541923 4.16133606e-13,2.68291458 4.16133606e-13,3.65129939 L4.16133606e-13,5.58832824 L42.8212135,38.9730205 L50.2883273,38.9730205 C51.26429,38.9730205 52.2002797,38.5883312 52.8903896,37.9035797 C53.5804994,37.2188282 53.9681991,36.290106 53.9681991,35.3217211 L53.9681991,3.65129939 C53.9681991,1.63474242 52.3206643,2.06451267e-14 50.2883273,2.06451267e-14 Z" id="Path" fill="#F3AA06"></path>
                                <path d="M26.9792191,24.3484527 L53.9681991,5.72392026 L53.9681991,3.65129939 C53.9681991,1.63474242 52.3206643,6.19353801e-14 50.2883273,6.19353801e-14 L3.67987177,6.19353801e-14 C2.7039091,6.19353801e-14 1.76791931,0.384689367 1.07780949,1.06944083 C0.387699663,1.7541923 4.43875846e-13,2.68291458 4.43875846e-13,3.65129939 L4.43875846e-13,5.72392026 L26.9792191,24.3484527 Z" id="Path" fill="#FECE40"></path>
                            </g>
                        </g>
                    </g>
                </g>
            </g>
        </g>
    </g>
</svg>