<?xml version="1.0" encoding="UTF-8"?>
<svg width="22px" height="20px" viewBox="0 0 22 20" version="1.1" xmlns="http://www.w3.org/2000/svg" xmlns:xlink="http://www.w3.org/1999/xlink">
    <!-- Generator: Sketch 52.6 (67491) - http://www.bohemiancoding.com/sketch -->
    <title>mail(3)</title>
    <desc>Created with Sketch.</desc>
    <g id="Website" stroke="none" stroke-width="1" fill="none" fill-rule="evenodd">
        <g id="Translator's-Hub" transform="translate(-151.000000, -1696.000000)" fill="#53A9E6" fill-rule="nonzero">
            <g id="Skills" transform="translate(149.000000, 980.000000)">
                <g id="tabs" transform="translate(0.000000, 419.000000)">
                    <g id="container">
                        <g id="Intuitive" transform="translate(2.000000, 291.000000)">
                            <g id="mail(3)" transform="translate(0.000000, 6.000000)">
                                <path d="M21.3125,0 L0.6875,0 C0.308,0 0,0.319407407 0,0.712962963 L0,16.3981481 C0,16.7917037 0.308,17.1111111 0.6875,17.1111111 L8.25,17.1111111 L8.25,15.6851852 L1.375,15.6851852 L1.375,2.19592593 L10.5703125,9.82462963 C10.696125,9.92943519 10.8480625,9.98148148 11,9.98148148 C11.1519375,9.98148148 11.303875,9.92943519 11.4296875,9.82534259 L20.625,2.19592593 L20.625,7.12962963 L22,7.12962963 L22,0.712962963 C22,0.319407407 21.692,0 21.3125,0 Z M11,8.35521296 L2.6475625,1.42592593 L19.353125,1.42592593 L11,8.35521296 Z" id="Shape"></path>
                                <path d="M21.7983907,10.8196296 L19.7358914,8.75716178 C19.467079,8.48835348 19.0325791,8.48835348 18.7637667,8.75716178 L11.888769,15.6320544 C11.800769,15.720053 11.7382066,15.8307388 11.7079566,15.9510494 L11.0204568,18.7010064 C10.9620193,18.9354402 11.0307693,19.1829364 11.2012692,19.3541212 C11.3318942,19.4847442 11.5072066,19.5555556 11.6873316,19.5555556 C11.7430191,19.5555556 11.7987065,19.5486807 11.854394,19.5349309 L14.6043931,18.8474416 C14.7253931,18.8171921 14.835393,18.7546306 14.923393,18.6666319 L21.7983907,11.7917394 C22.0672031,11.5229311 22.0672031,11.0884379 21.7983907,10.8196296 Z M14.0860183,17.5597742 L12.6326438,17.9227686 L12.9956436,16.4694163 L19.249829,10.2153265 L20.3402037,11.3056845 L14.0860183,17.5597742 Z" id="Shape"></path>
                            </g>
                        </g>
                    </g>
                </g>
            </g>
        </g>
    </g>
</svg>