<?xml version="1.0" encoding="UTF-8"?>
<svg width="63px" height="63px" viewBox="0 0 63 63" version="1.1" xmlns="http://www.w3.org/2000/svg" xmlns:xlink="http://www.w3.org/1999/xlink">
    <!-- Generator: Sketch 52.6 (67491) - http://www.bohemiancoding.com/sketch -->
    <title>Group 36</title>
    <desc>Created with Sketch.</desc>
    <g id="Website-Second-Iteration" stroke="none" stroke-width="1" fill="none" fill-rule="evenodd">
        <g id="Customer-Service" transform="translate(-1179.000000, -300.000000)">
            <g id="Group-71" transform="translate(120.000000, 300.000000)">
                <g id="Group-69" transform="translate(970.000000, 0.000000)">
                    <g id="Group-52">
                        <g id="Group-36" transform="translate(89.000000, 0.000000)">
                            <g id="Group-4">
                                <g id="Group_65" transform="translate(0.503099, 0.589557)">
                                    <g id="Group-7">
                                        <ellipse id="Oval" fill="#EBFAF2" cx="30.8624043" cy="30.8987323" rx="30.8624043" ry="30.8987323"></ellipse>
                                        <path d="M37.300406,44.6412123 C26.2433947,44.6344413 17.2797046,35.687281 17.2661314,24.6438824 L17.2661314,19.6414772 C17.2661314,18.2838594 18.3680541,17.1832928 19.7273445,17.1832928 L24.7236071,17.1832928 C25.050439,17.1581974 25.3737891,17.2643735 25.6219499,17.4782749 C25.9665197,17.8347117 25.9911318,18.4246759 25.9788258,19.358786 L25.9788258,25.01261 C25.9788258,25.959011 25.9788258,26.5489753 25.6219499,26.8931211 C25.4006634,27.1106067 25.0940827,27.2186785 24.7851374,27.1881032 L23.394552,27.1881032 L23.566837,28.5646865 C24.2033695,33.6679853 28.2282663,37.6879292 33.3378529,38.3236784 L34.7161323,38.4957513 L34.7161323,37.1191681 C34.69272,36.8099968 34.7947106,36.5044014 34.9991718,36.2710945 C35.4573018,35.9615654 36.0148003,35.8344192 36.5620421,35.9146577 L42.8750537,35.9146577 C43.4183697,35.8351594 43.9717646,35.9623714 44.4256179,36.2710945 C44.6489614,36.513668 44.7566158,36.8407137 44.7209635,37.1683318 L44.7209635,42.170737 C44.7209635,43.5283547 43.6190409,44.6289214 42.2597504,44.6289214 L37.300406,44.6412123 Z" id="Path" fill="#4DCD87" fill-rule="nonzero"></path>
                                    </g>
                                </g>
                            </g>
                        </g>
                    </g>
                </g>
            </g>
        </g>
    </g>
</svg>