<?xml version="1.0" encoding="UTF-8"?>
<svg width="476px" height="289px" viewBox="0 0 476 289" version="1.1" xmlns="http://www.w3.org/2000/svg" xmlns:xlink="http://www.w3.org/1999/xlink">
    <!-- Generator: Sketch 52.6 (67491) - http://www.bohemiancoding.com/sketch -->
    <title>illustration</title>
    <desc>Created with Sketch.</desc>
    <g id="Website" stroke="none" stroke-width="1" fill="none" fill-rule="evenodd">
        <g id="Homepage" transform="translate(-152.000000, -5582.000000)" fill-rule="nonzero">
            <g id="High-quality" transform="translate(2.000000, 5379.000000)">
                <g id="illustration" transform="translate(149.000000, 202.000000)">
                    <rect id="Rectangle_3" fill="#FFFFFF" x="46.8621479" y="66.4747535" width="43.4932394" height="36.0377394" rx="2.018"></rect>
                    <rect id="Rectangle_4" fill="#FFFFFF" x="68.6087676" y="64.4389718" width="294.51088" height="187.64081" rx="4.035"></rect>
                    <g id="Group_86" transform="translate(0.743732, 0.398225)">
                        <rect id="Rectangle_5" fill="#ADDCF7" x="272.161317" y="0.989098592" width="59.9827324" height="42.1078239" rx="2.073"></rect>
                        <path d="M272.405204,115.507746 L272.201965,117.645148 C272.201965,117.645148 270.484592,117.485944 270.16957,120.067085 C269.854549,122.648225 269.336289,126.235401 269.336289,126.235401 C269.336289,126.235401 264.458542,127.695338 264.800662,128.914775 C265.698438,130.756957 266.746405,132.522073 267.933937,134.192225 L268.58769,134.622415 C268.58769,134.622415 265.034387,146.37643 278.509162,147.399401 C280.240951,141.612034 284.996428,137.233358 290.906768,135.98412 C290.906768,135.98412 297.468014,138.829472 299.449599,133.274261 C300.184011,131.496769 300.102015,129.486626 299.22527,127.774855 C298.348525,126.063085 296.765231,124.821886 294.893648,124.379148 C293.149206,124.545978 291.431593,124.924762 289.778789,125.507127 C286.281577,125.055578 283.554683,122.257145 283.193831,118.749415 C282.346089,114.973075 282.061863,111.092069 282.350387,107.232514 C281.38651,108.601457 280.818125,110.209344 280.707535,111.879923 C280.608031,113.509496 280.661332,115.144808 280.866739,116.764444 L272.405204,115.507746 Z" id="Path_1" fill="#FFFFFF"></path>
                        <path d="M271.710803,105.853873 C268.978807,102.292772 265.899236,99.0123598 262.517606,96.0611197 C259.672254,94.2895493 256.589789,93.6459577 255.126465,96.6505141 C255.126465,96.6505141 252.457254,94.892493 250.668746,95.8782042 C249.58943,96.506134 248.829164,97.5645915 248.578768,98.7879155 C248.578768,98.7879155 245.489528,98.249331 244.073627,100.027676 C242.657725,101.806021 244.307352,104.712345 246.46169,107.818521 C248.616028,110.924697 253.744437,117.89581 255.126465,119.250739 C256.508493,120.605669 260.41069,125.114197 257.893908,127.041585 C255.377127,128.968972 253.114394,126.946739 250.326627,126.858669 C248.299213,126.584092 246.394294,127.892625 245.923106,129.883549 C245.452268,131.492528 248.240035,133.724775 252.050775,134.514021 C254.970583,135.269946 257.78462,136.387368 260.427627,137.840373 L267.405514,132.457915 L275.836563,121.618479 L272.679577,115.169014 L269.36,114.793021 C269.404903,111.666459 270.211829,108.598046 271.710803,105.853873 Z" id="Path_2" fill="#FFFFFF"></path>
                        <path d="M215.599782,152.747986 C216.727667,149.292262 217.676253,145.780572 218.441746,142.226958 C218.929521,139.05981 220.897556,134.273521 216.612592,133.758648 C212.327627,133.243775 212.44957,138.270563 211.999056,139.462901 C211.548542,140.655239 210.711873,142.850225 208.273,142.376 C205.834127,141.901775 204.75357,138.114746 203.429127,133.541859 C202.158646,129.063276 200.6376,124.659593 198.873176,120.35162 C197.809556,118.126148 197.081282,115.880352 194.076725,116.191986 C193.320165,116.176424 192.591561,116.477913 192.0672,117.023506 C191.542839,117.569098 191.270493,118.309089 191.316056,119.064437 C191.316056,119.064437 188.836535,118.112599 187.508704,118.891683 C186.180873,119.670768 185.960697,123.105514 185.960697,123.105514 C185.069758,122.631062 183.996447,122.652861 183.125507,123.163099 C181.299739,123.965894 181.496204,127.84438 181.750254,129.544817 C182.23329,132.888424 182.924518,136.198627 183.819908,139.456127 C184.991923,143.561563 189.151556,155.461232 191.454937,158.154155 C194.423909,155.604878 197.981846,153.836387 201.806599,153.00881 C206.380953,152.417708 211.006351,152.330244 215.599782,152.747986 Z" id="Path_3" fill="#FFFFFF"></path>
                        <rect id="Rectangle_6" fill="#ADDCF7" x="0.643591549" y="159.326169" width="122.868401" height="80.8859085" rx="3.534"></rect>
                        <path d="M129.612563,149.48938 L33.9443732,149.48938 C26.4430556,149.509843 20.3665984,155.584786 20.3442676,163.086099 L20.3442676,169.664282 L143.212669,169.664282 L143.212669,163.086099 C143.190338,155.584786 137.113881,149.509843 129.612563,149.48938 Z" id="Path_4" fill="#4D5E6C"></path>
                        <path d="M280.859965,157.510563 C271.980403,159.224458 264.527728,165.228212 260.962824,173.53938 C254.716599,187.766141 251.021028,202.233401 243.545204,201.48819 C236.06938,200.742979 236.035507,198.029732 232.007979,185.723585 C227.980451,173.417437 222.347331,156.233542 222.347331,156.233542 C222.347331,156.233542 217.889613,150.925606 203.432514,152.785246 C188.975415,154.644887 188.165845,161.931021 188.165845,161.931021 C188.165845,161.931021 193.707507,194.720317 198.07038,205.397162 C198.07038,205.397162 205.973007,230.188986 220.826423,236.560542 C235.679838,242.932099 243.423261,241.367155 253.466676,239.229754 L253.466676,242.186887 C253.466676,242.186887 251.434282,286.411789 251.661232,288.955669 L326.704007,288.901472 C324.266735,275.626078 322.535637,262.230702 321.518014,248.771845 C321.62091,237.700277 322.450328,226.647397 324.000923,215.684465 C320.573488,215.525988 317.638324,213.177584 316.731725,209.86843 C314.577387,202.707627 316.731725,195.67893 316.84012,190.899415 C316.948514,186.119901 318.225535,175.405796 311.572831,171.784746 C304.920127,168.163697 300.841789,169.88107 293.826641,166.80538 C286.811493,163.72969 281.130951,159.305845 280.859965,157.510563 Z" id="Path_5" fill="#90A073"></path>
                        <path d="M266.819507,132.90843 C262.564603,135.320434 259.455366,139.338769 258.188606,144.062887 L269.346451,165.667239 L280.287507,157.652831 C278.591528,154.514616 277.970456,150.90716 278.519324,147.382465 C274.841189,147.257042 271.422342,145.456532 269.238056,142.494556 C267.634255,139.973584 267.434789,136.806423 268.709634,134.104155 L266.819507,132.90843 Z" id="Path_6" fill="#90A073"></path>
                        <path d="M71.9264366,53.2385704 C71.9264366,55.9238579 70.3088585,58.3447347 67.8279763,59.3723498 C65.3470941,60.3999648 62.4914752,59.8319469 60.5926902,57.9331619 C58.6939052,56.0343769 58.1258873,53.178758 59.1535023,50.6978758 C60.1811174,48.2169937 62.6019942,46.5994155 65.2872817,46.5994155 C67.0483706,46.5985163 68.7375881,47.2977079 69.9828662,48.542986 C71.2281442,49.788264 71.9273358,51.4774815 71.9264366,53.2385704 Z" id="Path_8" fill="#90A073"></path>
                        <path d="M174.137028,70.2385704 C174.137028,73.9048334 171.165265,76.8771012 167.499002,76.8777244 C163.832739,76.8783476 160.859966,73.9070902 160.858719,70.2408275 C160.857472,66.5745647 163.828223,63.601286 167.494486,63.5994155 C169.255886,63.5985168 170.945451,64.2976005 172.191267,65.5427809 C173.437083,66.7879614 174.137028,68.47717 174.137028,70.2385704 Z" id="Path_9" fill="#ADDCF7"></path>
                        <path d="M290.91693,135.967183 C285.931211,137.135176 281.721812,140.457276 279.427127,145.035049 C276.378535,152.321183 279.481324,155.874486 283.024465,160.051056 C286.396945,163.664458 290.729031,166.242326 295.513528,167.482845 C299.036345,168.465169 310.868268,168.922458 313.855887,173.613901 C316.610528,178.933442 317.655127,184.973896 316.846894,190.909577 C316.369282,196.762873 314.960155,202.863444 316.30831,207.395683 C317.656465,211.927923 319.052042,216.202725 332.926521,216.524521 C346.801,216.846317 348.169479,201.393345 348.017049,198.006021 C347.623315,188.485735 345.07536,179.178754 340.564937,170.785486 C334.017239,159.082282 327.466155,157.795099 322.85262,155.434134 C318.239085,153.073169 309.858845,147.558606 309.215254,141.26157 C309.067749,137.942871 309.603875,134.629267 310.790359,131.526401 C312.033454,128.015469 313.051712,124.42894 313.838951,120.788585 C313.838951,120.788585 314.286077,110.06093 310.065472,107.195254 C307.132652,105.328909 303.917182,103.94938 300.543704,103.110141 C296.133018,101.305385 291.47684,100.171597 286.730197,99.7465282 C280.717697,99.6042606 277.713141,100.105585 274.776331,102.679951 C271.243748,105.70371 269.246236,110.147179 269.329514,114.796408 L280.57543,116.78138 C280.57543,116.78138 279.532134,109.559606 282.343613,107.195254 C282.343613,107.195254 280.717697,123.867662 289.456993,125.14807 L290.317373,125.435993 C291.41561,124.410717 292.956164,124.007117 294.416035,124.362211 C296.973465,124.934669 301.221169,127.434514 299.920437,131.980303 C299.383274,133.79849 298.074494,135.288906 296.340973,136.056534 C294.607451,136.824162 292.624227,136.791492 290.91693,135.967183 Z" id="Path_10" fill="#1A1A1A"></path>
                        <path d="M284.474239,121.652352 L283.966141,125.852634 L288.528866,126.713014 C290.013163,124.613919 292.64527,123.657772 295.130761,124.314789 C297.225935,124.797575 298.990324,126.202113 299.930599,128.13569 L304.85238,128.457486 L305.353704,124.314789 L284.474239,121.652352 Z" id="Path_11" fill="#FFFFFF"></path>
                        <polygon id="Path_12" fill="#FFFFFF" points="305.499359 124.274141 307.145599 124.44012 306.607014 129.019782 305.069169 128.660725"></polygon>
                        <path d="M106.924268,159.082282 C106.924267,161.096657 105.291623,162.729805 103.277248,162.730428 C101.262873,162.731051 99.6292191,161.098913 99.6279725,159.084538 C99.6267259,157.070163 101.258358,155.436004 103.272732,155.434134 C105.288098,155.434133 106.922398,157.066917 106.924268,159.082282 Z" id="Path_13" fill="#FFFFFF"></path>
                        <path d="M119.484465,159.082282 C119.484464,160.997506 117.932198,162.550277 116.016973,162.5509 C114.101749,162.551522 112.548473,160.999762 112.547226,159.084538 C112.54598,157.169313 114.097234,155.615532 116.012458,155.613662 C117.928672,155.613661 119.482595,157.166068 119.484465,159.082282 Z" id="Path_14" fill="#FFFFFF"></path>
                        <path d="M132.227577,159.082282 C132.228948,160.486885 131.38389,161.753944 130.086599,162.292412 C128.789308,162.83088 127.29538,162.534667 126.301691,161.541947 C125.308001,160.549227 125.01033,159.055589 125.547531,157.757773 C126.084733,156.459957 127.350967,155.613663 128.75557,155.613662 C130.671785,155.613661 132.225708,157.166068 132.227577,159.082282 Z" id="Path_15" fill="#FFFFFF"></path>
                        <path d="M425.109155,197.751972 C416.775545,180.889105 403.440117,167.009519 386.923852,158.0085 C386.923852,158.0085 385.138732,180.253056 425.109155,197.751972 Z" id="Path_16" fill="#1A1A1A"></path>
                        <path d="M431.782183,173.627451 C441.530973,168.842679 450.599448,162.781462 458.748669,155.6035 C464.893565,150.296039 468.724321,142.799814 469.425514,134.710486 C469.425514,134.710486 460.513465,137.298401 447.069176,151.359183 C433.624887,165.419965 431.826218,173.183711 431.826218,173.183711 L431.782183,173.627451 Z" id="Path_17" fill="#90A073"></path>
                        <path d="M427.429472,173.183711 C427.815914,165.821352 426.715746,158.456564 424.194577,151.528549 C421.699652,145.913226 417.539787,141.199973 412.277972,138.026676 C412.87291,145.273815 414.82639,152.344261 418.036423,158.86888 C420.402749,164.100597 423.571987,168.930457 427.429472,173.183711 Z" id="Path_18" fill="#90A073"></path>
                        <path d="M433.48262,193.815901 C443.145433,191.865572 452.450049,188.438036 461.068986,183.65393 C472.92462,176.462641 475.295746,167.469296 475.295746,167.469296 C466.424354,169.759783 458.054914,173.676318 450.612317,179.02007 C444.322965,183.238363 438.570724,188.206879 433.48262,193.815901 Z" id="Path_19" fill="#90A073"></path>
                        <path d="M426.995894,232.536401 C426.995894,232.536401 437.096894,214.329535 446.74738,206.413359 C452.401157,201.74619 458.415504,197.533882 464.73407,193.815901 C464.73407,193.815901 466.061901,204.685824 451.445599,217.577979 C444.408067,224.188479 436.085598,229.280198 426.995894,232.536401 Z" id="Path_20" fill="#1A1A1A"></path>
                        <path d="M426.894275,261.914662 C426.894275,261.914662 443.238113,254.49981 452.031606,245.838423 C457.891339,240.500693 462.175737,233.658778 464.419049,226.056451 C464.602168,224.773511 464.602168,223.471067 464.419049,222.188127 C455.474145,227.278281 447.456818,233.847907 440.707782,241.617817 C429.543162,254.496423 426.894275,261.914662 426.894275,261.914662 Z" id="Path_21" fill="#90A073"></path>
                        <path d="M419.113592,246.448141 C412.008812,239.614715 406.070258,231.664605 401.53338,222.913014 C394.684211,208.472852 399.145317,198.280394 399.145317,198.280394 C405.39937,204.316695 410.168321,211.72115 413.07738,219.911845 C416.075256,228.503776 418.099983,237.404849 419.113592,246.448141 Z" id="Path_22" fill="#90A073"></path>
                        <path d="M409.720542,247.193352 C409.720542,247.193352 389.836951,238.508254 382.936972,230.097528 C376.036993,221.686803 371.166021,215.914803 371.474268,207.968141 C371.474268,207.968141 380.183077,210.732197 392.048873,222.774134 C399.155892,229.960275 405.116047,238.196188 409.720542,247.193352 Z" id="Path_23" fill="#1A1A1A"></path>
                        <path d="M407.881225,276.605486 C405.619697,268.062011 402.200712,259.867845 397.719254,252.250627 C391.178331,242.112366 381.504134,234.951563 374.207838,233.772775 C377.129301,243.230728 382.154095,251.904548 388.905437,259.143831 C394.853821,265.450539 401.18908,271.380794 407.874451,276.900183 L407.881225,276.605486 Z" id="Path_24" fill="#1A1A1A"></path>
                        <path d="M300.316754,19.8802042 C299.956311,18.8591413 298.991181,18.1763398 297.908366,18.1763398 C296.825551,18.1763398 295.860421,18.8591413 295.499979,19.8802042 L285.338007,37.3079859 C284.013563,39.5741056 285.077183,41.4303592 287.709134,41.4303592 L308.151634,41.4303592 C310.780197,41.4303592 311.843817,39.5741056 310.522761,37.3079859 L300.316754,19.8802042 Z" id="Path_25" fill="#FFFFFF"></path>
                        <rect id="Rectangle_8" fill="#ADDCF7" x="325.708134" y="124.97193" width="20.1850634" height="20.1850634"></rect>
                        <path d="M291.750211,192.799704 C291.750211,192.799704 283.49869,239.636232 252.569035,252.870507 L253.466676,239.229754 C264.218665,235.129438 273.540092,227.980028 280.287507,218.658535 C291.032099,203.391866 291.750211,192.799704 291.750211,192.799704 Z" id="Path_26" fill="#1A1A1A"></path>
                        <path d="M275.833176,115.988746 C277.032289,98.0359296 293.785993,100.925317 294.399099,101.047261 C291.907816,100.317108 289.339747,99.8805702 286.747134,99.7465282 C280.734634,99.6042606 277.730077,100.105585 274.793268,102.679951 C271.260684,105.70371 269.263173,110.147179 269.346451,114.796408 L275.132,115.812606 L275.833176,115.988746 Z" id="Path_27" fill="#FFFFFF"></path>
                        <path d="M283.369972,147.992183 C284.864067,142.17038 289.60296,137.746092 295.513528,136.65481 L295.252704,136.438021 C293.809492,136.935006 292.219819,136.762377 290.91693,135.967183 C285.931211,137.135176 281.721812,140.457276 279.427127,145.035049 C276.378535,152.321183 279.481324,155.874486 283.024465,160.051056 C286.396945,163.664458 290.729031,166.242326 295.513528,167.482845 C296.669282,167.757841 297.838295,167.97378 299.016021,168.129824 C292.620754,165.728211 280.470423,160.376239 283.369972,147.992183 Z" id="Path_28" fill="#FFFFFF"></path>
                        <path d="M259.428366,236.8925 C252.660736,239.955462 245.265163,241.376081 237.844338,241.038585 C231.936479,240.654365 226.158239,239.133897 220.826423,236.560542 C220.826423,236.560542 223.830979,224.461021 240.134169,224.366176 C256.437359,224.271331 259.428366,236.8925 259.428366,236.8925 Z" id="Path_29" fill="#1A1A1A"></path>
                        <g id="Group_4" transform="translate(277.760563, 118.556338)" fill="#000000">
                            <g id="Group_3">
                                <g id="Group_1" transform="translate(23.711268, 3.387324)">
                                    <path d="M5.28761268,7.42501408 C5.22325352,7.42501408 3.31280282,7.19806338 3.31280282,7.19806338 C3.0030443,7.15925019 2.78238338,6.87813423 2.81825352,6.56802113 C2.82289755,6.41341964 2.89590961,6.26885075 3.01757581,6.17334933 C3.13924201,6.0778479 3.2970154,6.04126262 3.44829577,6.07347183 L4.80322535,6.22928873 L5.16905634,3.09262676 L3.81412676,2.93342254 C3.66496514,2.91642567 3.52867743,2.84083303 3.43528182,2.72329434 C3.34188621,2.60575565 3.29904353,2.45591209 3.31619014,2.30676761 C3.32332001,2.15288883 3.3968225,2.00966177 3.51767896,1.91414617 C3.63853542,1.81863058 3.79487037,1.78021193 3.94623239,1.80883099 L5.85329577,2.03239437 C6.003039,2.05044179 6.13949291,2.12719711 6.23267606,2.24579577 C6.32694506,2.36291175 6.36972009,2.51323541 6.35123239,2.66243662 L5.84990845,6.92707746 C5.81560007,7.21149238 5.57408918,7.42536046 5.28761268,7.42501408 Z" id="Path_30"></path>
                                </g>
                                <g id="Group_2">
                                    <path d="M27.0985915,10.592162 L21.7838803,9.96889437 C21.4727538,9.9317771 21.2501661,9.65013545 21.2859437,9.33885211 C21.2905877,9.18425063 21.3635998,9.03968174 21.485266,8.94418031 C21.6069321,8.84867889 21.7647055,8.81209361 21.9159859,8.84430282 L26.6006549,9.39643662 L26.9698732,6.24961268 L6.79835915,3.6786338 L3.00794366,5.03356338 L5.98540141,6.9745 L11.2222042,7.59099296 C11.3713658,7.60798982 11.5076536,7.68358246 11.6010492,7.80112115 C11.6944448,7.91865984 11.7372875,8.0685034 11.7201408,8.21764789 C11.7068287,8.36903126 11.6317101,8.50823491 11.5124826,8.60246308 C11.3932551,8.69669125 11.2404613,8.73761197 11.0900986,8.71558451 L5.71780282,8.08554225 C5.63110741,8.07411565 5.54790936,8.04407191 5.47391549,7.99747183 L1.4294507,5.3621338 C1.24958574,5.24388213 1.15242103,5.03379626 1.17878873,4.82016197 C1.20085752,4.6059534 1.34473551,4.42379594 1.54800704,4.35271127 L6.54430986,2.56420423 C6.62892347,2.53407275 6.71955268,2.52477744 6.80852113,2.53710563 L27.6710493,5.19615493 C27.9790573,5.23660797 28.1968129,5.51787554 28.1588239,5.82619718 L27.6608873,10.090838 C27.6449851,10.2403436 27.5676927,10.3765253 27.4474859,10.466831 C27.3491079,10.5475697 27.2258584,10.5918437 27.0985915,10.592162 Z" id="Path_31"></path>
                                </g>
                            </g>
                        </g>
                        <g id="Group_5" transform="translate(281.147887, 16.936620)" fill="#000000">
                            <path d="M26.9901972,25.0661972 L6.54430986,25.0661972 C5.27834976,25.2907938 4.00756667,24.6970032 3.36762381,23.5818477 C2.72768095,22.4666923 2.85616073,21.0699211 3.68879577,20.0902183 L13.8507676,2.66243662 C14.3157672,1.46757671 15.4664708,0.680621944 16.7486232,0.680621944 C18.0307757,0.680621944 19.1814793,1.46757671 19.6464789,2.66243662 L29.8287746,20.0902183 C30.6605225,21.0694787 30.7890433,22.4650964 30.1501251,23.5797887 C29.5112068,24.694481 28.2420074,25.2889547 26.9766479,25.0661972 L26.9901972,25.0661972 Z M16.7604789,1.81560563 C15.9139641,1.9127841 15.1833581,2.4536391 14.8432535,3.23489437 L4.68128169,20.6626761 C4.06761222,21.289072 3.94529052,22.2471152 4.38188394,23.0076073 C4.81847735,23.7680995 5.70749199,24.1455413 6.55785915,23.9314437 L27.0037465,23.9314437 C27.8535016,24.1432531 28.7405648,23.7649936 29.1759934,23.0051588 C29.611422,22.245324 29.4892986,21.288743 28.8769366,20.6626761 L18.6946408,3.23489437 C18.3500624,2.44887365 17.6132371,1.9056102 16.7604789,1.80883099 L16.7604789,1.81560563 Z" id="Path_32"></path>
                        </g>
                        <g id="Group_6" transform="translate(50.809859, 284.535211)" fill="#000000">
                            <path d="M303.934415,4.98952817 L2.00190845,4.98952817 C1.70552053,4.96661016 1.47671009,4.71942407 1.47671009,4.42215141 C1.47671009,4.12487874 1.70552053,3.87769266 2.00190845,3.85477465 L303.934415,3.85477465 C304.230803,3.87769266 304.459614,4.12487874 304.459614,4.42215141 C304.459614,4.71942407 304.230803,4.96661016 303.934415,4.98952817 Z" id="Path_33"></path>
                        </g>
                        <g id="Group_7" transform="translate(389.542254, 284.535211)" fill="#000000">
                            <path d="M58.1637394,4.98952817 L3.38732394,4.98952817 C3.09093602,4.96661016 2.86212558,4.71942407 2.86212558,4.42215141 C2.86212558,4.12487874 3.09093602,3.87769266 3.38732394,3.85477465 L58.1637394,3.85477465 C58.4601274,3.87769266 58.6889378,4.12487874 58.6889378,4.42215141 C58.6889378,4.71942407 58.4601274,4.96661016 58.1637394,4.98952817 Z" id="Path_34"></path>
                        </g>
                        <g id="Group_8" transform="translate(270.985915, 115.169014)" fill="#000000">
                            <path d="M8.46830986,5.44004225 C8.27092695,5.43926312 8.08786902,5.33685309 7.98392254,5.16905634 C7.13809126,3.71719787 5.40190611,3.04154653 3.79719014,3.53975352 C3.50067351,3.63983957 3.17916352,3.48060113 3.07907746,3.18408451 C2.97899141,2.88756788 3.13822985,2.56605788 3.43474648,2.46597183 C5.5410883,1.79788905 7.82969567,2.67315141 8.95269718,4.57627465 C9.0588525,4.75163228 9.06249418,4.97053137 8.96223061,5.14932306 C8.86196704,5.32811474 8.67329397,5.43916674 8.46830986,5.44004225 Z" id="Path_35"></path>
                        </g>
                        <path d="M275.80269,121.977535 C275.358951,121.858979 275.037155,122.018183 274.728908,123.623775 C274.390176,125.412282 274.820366,125.784887 275.226845,125.811986 C275.633324,125.839085 276.100775,125.327599 276.226106,124.037028 C276.351437,122.746458 276.381923,122.136739 275.80269,121.977535 Z" id="Path_36" fill="#000000"></path>
                        <g id="Group_9" transform="translate(287.922535, 121.943662)" fill="#000000">
                            <path d="M6.02943662,15.2429577 C4.64650469,15.2427752 3.2971275,14.8170296 2.1645,14.0235211 C1.99810104,13.9079495 1.90599879,13.7123841 1.92288729,13.5104925 C1.93977579,13.308601 2.06308926,13.1310554 2.24637672,13.0447355 C2.42966419,12.9584156 2.64507991,12.9764354 2.81147887,13.092007 C4.68896277,14.4092452 7.17945557,14.4500182 9.09905193,13.1949437 C11.0186483,11.9398692 11.9801532,9.64210394 11.5264961,7.39393638 C11.072839,5.14576882 9.29552555,3.40066892 7.03943703,2.98820468 C4.78334852,2.57574044 2.50355264,3.57910856 1.28379577,5.52133803 C1.1163621,5.78605161 0.766037525,5.86491255 0.501323944,5.69747887 C0.236610363,5.53004519 0.15774942,5.17972062 0.325183099,4.91500704 C2.04927184,2.17206196 5.48084287,1.04361397 8.49639424,2.22796175 C11.5119456,3.41230952 13.2584157,6.57441593 12.6550654,9.75752733 C12.0517152,12.9406387 9.26922487,15.2442928 6.02943662,15.2429577 Z" id="Path_37"></path>
                        </g>
                        <g id="Group_10" transform="translate(287.922535, 125.330986)" fill="#000000">
                            <path d="M7.56728169,8.46830986 C7.457289,8.46870669 7.34977905,8.43562671 7.25903521,8.37346479 L3.01133099,5.56876056 C2.8552006,5.46667722 2.75901502,5.29455565 2.75389437,5.10808451 C2.74829321,4.92368724 2.83459843,4.7485384 2.98423239,4.6406338 L7.25564789,1.47009859 C7.41841633,1.34908116 7.6333826,1.32409238 7.81957099,1.40454527 C8.00575938,1.48499816 8.13488344,1.65867002 8.15830338,1.86014034 C8.18172333,2.06161066 8.09588112,2.2602713 7.93311268,2.38128873 L4.30867606,5.06743662 L7.88230282,7.43856338 C8.09279044,7.57543732 8.18787104,7.83467456 8.11579656,8.07518399 C8.04372207,8.31569341 7.82174157,8.4799156 7.57066901,8.47847183 L7.56728169,8.46830986 Z" id="Path_38"></path>
                        </g>
                        <g id="Group_11" transform="translate(250.661972, 237.112676)" fill="#000000">
                            <path d="M1.01619718,51.6668521 C0.867066258,51.6677532 0.723685683,51.6093739 0.617598933,51.5045577 C0.511512183,51.3997414 0.451409758,51.2570746 0.450514085,51.1079437 C0.315021127,40.3531901 2.17127465,3.51942958 2.2491831,1.95787324 C2.2543025,1.80677828 2.32078146,1.66429603 2.43328095,1.56330217 C2.54578044,1.46230831 2.69458209,1.41152728 2.84535211,1.42267606 C2.99516227,1.42967415 3.13596927,1.49622879 3.23647185,1.60754495 C3.33697444,1.7188611 3.38884375,1.86571377 3.3805493,2.01545775 C3.30264085,3.57701408 1.44977465,40.3735141 1.58188028,51.0943944 C1.58368783,51.244426 1.52581593,51.3890297 1.42099796,51.4963887 C1.31617999,51.6037477 1.17300374,51.6650661 1.02297183,51.6668521 L1.01619718,51.6668521 Z" id="Path_39"></path>
                        </g>
                        <g id="Group_12" transform="translate(257.436620, 132.105634)" fill="#000000">
                            <path d="M10.5007042,32.1287676 C10.2915096,32.1291043 10.0989966,32.0146371 9.99938028,31.8306831 C6.63915493,25.5810704 3.98010563,20.0292465 0.616492958,12.997162 L0.233725352,12.2045282 C0.195041805,12.1172683 0.17762768,12.0220711 0.182915493,11.9267676 C0.182915493,11.6625563 0.663915493,5.42988028 9.47095775,0.311633803 C9.74128363,0.154489345 10.0878168,0.246241018 10.2449613,0.516566901 C10.4021057,0.786892784 10.3103541,1.13342596 10.0400282,1.29057042 C2.49307042,5.69409155 1.45316197,10.9546056 1.32783099,11.8590211 L1.63946479,12.5093873 C4.99630282,19.5245352 7.64857746,25.0695845 10.9986408,31.2954859 C11.1461964,31.5705124 11.0431227,31.9130811 10.7683028,32.0610211 C10.6862781,32.1058965 10.594201,32.1292071 10.5007042,32.1287676 Z" id="Path_40"></path>
                        </g>
                        <g id="Group_13" transform="translate(318.408451, 213.401408)" fill="#000000">
                            <path d="M8.29894366,75.5000634 C8.03606336,75.4994208 7.80783504,75.3187984 7.74680986,75.0630986 C7.6824507,74.7751761 1.11442958,46.2708451 2.53710563,24.9611901 C2.69630986,22.5900634 2.94019718,19.9818239 3.21457042,17.2143803 C3.70573239,12.0114507 4.20705634,6.62899296 4.23076761,2.03578169 C4.23076761,1.72336354 4.48403256,1.47009859 4.7964507,1.47009859 C5.10886885,1.47009859 5.3621338,1.72336354 5.3621338,2.03578169 C5.3621338,6.67980282 4.84726056,12.0859718 4.34593662,17.316 C4.0885,20.076669 3.84461268,22.6849085 3.68879577,25.0323239 C2.27966901,46.1726127 8.80704225,74.5177394 8.87140141,74.8022746 C8.94109861,75.1061977 8.75171668,75.4092088 8.44798592,75.4797394 C8.39950968,75.4934967 8.34933346,75.5003389 8.29894366,75.5000634 Z" id="Path_41"></path>
                        </g>
                        <g id="Group_14" transform="translate(187.302817, 151.042254)" fill="#000000">
                            <path d="M52.621338,90.4739437 C51.083493,90.4739437 49.5027418,90.4073263 47.8790845,90.2740915 L46.1854225,90.0945634 C37.8827351,89.0658148 30.1678478,85.272801 24.2829859,79.3262606 C15.2354437,70.0958028 10.7709507,57.3493028 7.60041549,46.0966127 C4.5161147,34.6444537 2.09691132,23.0234557 0.354929577,11.2918592 L0.304119718,10.9802254 C0.284625982,10.8654509 0.299963715,10.7474684 0.34815493,10.641493 C0.514133803,10.3027606 4.50778873,2.26125352 18.5008239,1.00116901 C31.101669,-0.130197183 35.305338,4.61883099 35.4747042,4.82207042 C35.5216642,4.87846569 35.5583531,4.94267131 35.5830986,5.01176056 L47.5945493,41.7201901 C48.1061833,44.6363452 49.7298417,47.2400279 52.1234014,48.9826127 C54.8053174,50.4717494 58.1336624,50.1151894 60.4392817,48.0917465 C62.6967254,45.9034071 64.3911723,43.2013569 65.378,40.2162183 C65.9911056,38.7291831 66.5940493,37.2319859 67.2003803,35.7280141 C69.0796039,30.7704448 71.2478228,25.9272975 73.6938803,21.223493 C76.5001185,15.3871259 81.1694591,10.6510463 86.9654155,7.76226761 C89.0264337,6.80780432 91.2244292,6.18258146 93.4792394,5.90940141 C93.6293603,5.88321744 93.7835892,5.92103779 93.9045662,6.01370097 C94.0255431,6.10636415 94.1022321,6.24541713 94.1160563,6.39717606 C94.1542354,6.706921 93.9372786,6.99017003 93.6282817,7.03399296 C91.4791423,7.29429094 89.384071,7.88978038 87.4193169,8.79878873 C81.8575078,11.5935247 77.3794845,16.1537463 74.6863662,21.7654648 C72.2656402,26.4327619 70.1167504,31.2360962 68.2504507,36.1514296 C67.647507,37.6576596 67.0377887,39.157115 66.4212958,40.6497958 C65.3628032,43.8030337 63.5594431,46.6544806 61.164169,48.9622887 C58.4996633,51.2966391 54.6551699,51.7034637 51.5611056,49.9784859 C48.913213,48.1041249 47.1021585,45.2696424 46.513993,42.0792465 L42.3577465,29.2954859 L34.5669014,5.48937324 C33.9944437,4.92030282 29.7433521,1.12988732 18.6227676,2.12914789 C6.34710563,3.23341549 2.08923944,9.89628169 1.47952113,10.9836127 C3.22356635,22.719257 5.64732079,34.3437778 8.73855634,45.7985282 C11.871831,56.912338 16.2719648,69.5097958 25.1365915,78.5404014 C30.8422679,84.3049658 38.322272,87.981133 46.3717254,88.9767465 L48.0179648,89.1562746 C49.5964577,89.2883803 51.1343028,89.3493521 52.6315,89.3493521 C94.0787958,89.3493521 104.14931,40.7412535 104.247542,40.2331549 C104.275131,40.0824365 104.363031,39.9495039 104.490912,39.8651024 C104.618793,39.7807009 104.775579,39.752141 104.925007,39.7860282 C105.074339,39.8162031 105.205482,39.9046587 105.289403,40.0318112 C105.373323,40.1589637 105.403098,40.3143231 105.372134,40.463493 C105.236641,40.9715915 94.9798239,90.4739437 52.621338,90.4739437 Z" id="Path_42"></path>
                        </g>
                        <g id="Group_15" transform="translate(264.211268, 111.781690)" fill="#000000">
                            <path d="M14.3080563,36.1664577 C10.6563188,36.1132114 7.22914101,34.3940083 5.00307746,31.4987254 C3.44029335,28.8557242 2.98726341,25.7015641 3.74299296,22.7255563 C2.82502817,21.8414648 0.0169366197,18.9995 0.0169366197,17.1093732 C0.0338732394,15.6121761 3.74299296,13.9083521 5.4603662,13.2071761 C6.63380643,10.677678 7.29682484,7.94157596 7.41146479,5.15550704 L7.61470423,3.63121127 C7.63320802,3.48150837 7.71108395,3.34551734 7.83083421,3.25379373 C7.95058448,3.16207012 8.10216633,3.12230626 8.25152113,3.14343662 C8.56200715,3.18723601 8.77947759,3.47266596 8.73929577,3.78364085 L8.53605634,5.28761268 C8.41411268,6.51721127 7.72309859,12.8379577 6.12089437,14.1319155 C4.24879565,14.7203436 2.54408117,15.7468882 1.14830282,17.1263099 C1.14830282,18.3457465 3.34667606,20.8523662 4.74564085,22.126 C4.90603825,22.2721783 4.96799905,22.4976101 4.90484507,22.7052324 C3.88277567,25.6587883 4.41117361,28.928138 6.31161987,31.409352 C8.21206613,33.8905659 11.2308711,35.252428 14.3487042,35.0350915 C14.6611224,35.0509931 14.9014965,35.3171488 14.885595,35.6295669 C14.8696935,35.941985 14.6035378,36.1823592 14.2911197,36.1664577 L14.3080563,36.1664577 Z" id="Path_43"></path>
                        </g>
                        <g id="Group_17" transform="translate(386.154930, 57.584507)" fill="#4D5E6C">
                            <g id="Group_16">
                                <path d="M2.97745775,6.52059859 C4.34124715,6.52059859 5.4468169,5.41502884 5.4468169,4.05123944 C5.4468169,2.68745003 4.34124715,1.58188028 2.97745775,1.58188028 C1.61366834,1.58188028 0.508098592,2.68745003 0.508098592,4.05123944 C0.507197985,4.70642988 0.767072645,5.33504445 1.23036269,5.79833449 C1.69365273,6.26162454 2.3222673,6.5214992 2.97745775,6.52059859 Z" id="Path_44"></path>
                                <path d="M22.1598732,6.6493169 C23.2110046,6.65068735 24.1593971,6.01855573 24.5625976,5.04782999 C24.9657981,4.07710426 24.7443545,2.95906969 24.0015767,2.21532222 C23.258799,1.47157476 22.1410543,1.24867273 21.1698033,1.65060648 C20.1985524,2.05254022 19.565184,3.00010713 19.5651831,4.05123944 C19.564284,4.73998075 19.8372553,5.40082089 20.3239516,5.88815255 C20.8106479,6.3754842 21.4711313,6.64931749 22.1598732,6.6493169 Z" id="Path_45"></path>
                                <path d="M41.3253521,6.45623944 C42.2980838,6.45623944 43.1750341,5.87028 43.5472824,4.97159309 C43.9195307,4.07290618 43.7137691,3.03847281 43.0259439,2.35064763 C42.3381187,1.66282245 41.3036854,1.45706086 40.4049985,1.82930916 C39.5063116,2.20155747 38.9203521,3.07850774 38.9203521,4.05123944 C38.9203521,5.37948426 39.9971073,6.45623944 41.3253521,6.45623944 Z" id="Path_46"></path>
                                <path d="M2.97745775,25.8317324 C4.02859005,25.8317315 4.97615696,25.1983631 5.37809071,24.2271122 C5.78002445,23.2558612 5.55712242,22.1381165 4.81337496,21.3953387 C4.0696275,20.652561 2.95159293,20.4311174 1.98086719,20.8343179 C1.01014146,21.2375184 0.378009835,22.1859108 0.379380282,23.2370423 C0.379379695,23.9257842 0.653212983,24.5862676 1.14054464,25.0729639 C1.62787629,25.5596602 2.28871643,25.8326315 2.97745775,25.8317324 Z" id="Path_47"></path>
                                <path d="M22.1598732,25.9604507 C23.6564871,25.9604507 24.8697324,24.7472054 24.8697324,23.2505915 C24.8697324,21.7539777 23.6564871,20.5407324 22.1598732,20.5407324 C20.6632594,20.5407324 19.4500141,21.7539777 19.4500141,23.2505915 C19.4500141,24.7472054 20.6632594,25.9604507 22.1598732,25.9604507 Z" id="Path_48"></path>
                                <circle id="Ellipse_1" cx="41.3456761" cy="23.2370423" r="2.53371831"></circle>
                                <path d="M2.97745775,44.8244577 C4.30570257,44.8244577 5.38245775,43.7477026 5.38245775,42.4194577 C5.38245775,41.0912129 4.30570257,40.0144577 2.97745775,40.0144577 C1.64921292,40.0144577 0.572457746,41.0912129 0.572457746,42.4194577 C0.572457746,43.7477026 1.64921292,44.8244577 2.97745775,44.8244577 Z" id="Path_49"></path>
                                <path d="M22.1598732,44.9497887 C23.556894,44.9479186 24.6880623,43.814224 24.6868159,42.4172026 C24.6855695,41.0201811 23.5523802,39.8885067 22.1553583,39.8891293 C20.7583365,39.8897518 19.6261562,41.0224357 19.6261549,42.4194577 C19.6252518,43.0914071 19.8920148,43.7360455 20.3674729,44.210868 C20.842931,44.6856904 21.4879257,44.9515908 22.1598732,44.9497887 Z" id="Path_50"></path>
                                <path d="M41.3253521,44.7804225 C42.2843834,44.7804225 43.1489822,44.202716 43.5159876,43.3166867 C43.882993,42.4306574 43.6801294,41.4107935 43.0019919,40.732656 C42.3238544,40.0545185 41.3039905,39.8516549 40.4179612,40.2186603 C39.5319318,40.5856657 38.9542254,41.4502645 38.9542254,42.4092958 C38.9542254,43.7188329 40.015815,44.7804225 41.3253521,44.7804225 Z" id="Path_51"></path>
                            </g>
                        </g>
                        <g id="Group_18" transform="translate(64.359155, 60.971831)" fill="#000000">
                            <path d="M3.50588028,83.3518803 C3.35526306,83.351883 3.21086362,83.2918196 3.10467955,83.1849997 C2.99849548,83.0781798 2.93929528,82.9334244 2.94019718,82.7828099 L2.94019718,16.6690211 C2.94952967,8.84934094 9.28630573,2.51256488 17.1059859,2.50323239 L40.9866197,2.50323239 C41.2830076,2.52615041 41.5118181,2.77333649 41.5118181,3.07060915 C41.5118181,3.36788182 41.2830076,3.6150679 40.9866197,3.63798592 L17.1059859,3.63798592 C9.91168952,3.64545058 4.0808979,9.47472691 4.07156338,16.6690211 L4.07156338,82.7828099 C4.07156892,83.0957807 3.81884556,83.3500174 3.50588028,83.3518803 Z" id="Path_52"></path>
                        </g>
                        <g id="Group_19" transform="translate(64.359155, 237.112676)" fill="#000000">
                            <path d="M187.959218,14.7145352 L17.1059859,14.7145352 C9.59709057,14.7522108 3.37248212,8.90566319 2.94019718,1.40912676 C2.94019718,1.09670861 3.19346213,0.843443662 3.50588028,0.843443662 C3.81829843,0.843443662 4.07156338,1.09670861 4.07156338,1.40912676 C4.48924972,8.28638 10.2162728,13.6338836 17.1059859,13.5797817 L187.959218,13.5797817 C188.255606,13.6026997 188.484417,13.8498858 188.484417,14.1471585 C188.484417,14.4444311 188.255606,14.6916172 187.959218,14.7145352 Z" id="Path_53"></path>
                        </g>
                        <g id="Group_20" transform="translate(331.957746, 172.753521)" fill="#000000">
                            <path d="M16.6757958,79.0736901 L2.70985915,79.0736901 C2.41347123,79.0507721 2.18466079,78.803586 2.18466079,78.5063134 C2.18466079,78.2090407 2.41347123,77.9618546 2.70985915,77.9389366 L16.6757958,77.9389366 C23.8695421,77.9314684 29.6993628,72.1016477 29.706831,64.9079014 L29.706831,3.49233099 C29.706831,3.17991284 29.9600959,2.92664789 30.2725141,2.92664789 C30.5849322,2.92664789 30.8381972,3.17991284 30.8381972,3.49233099 L30.8381972,64.9079014 C30.8307311,72.7270336 24.494926,79.0643541 16.6757958,79.0736901 Z" id="Path_54"></path>
                        </g>
                        <g id="Group_21" transform="translate(123.943662, 62.971831)" fill="#000000">
                            <path d="M238.286599,44.7891056 C237.97418,44.7891056 237.720915,44.5358407 237.720915,44.2234225 L237.720915,14.6690211 C237.713447,7.47527481 231.883627,1.64545412 224.68988,1.63798592 L1.36022535,1.63798592 C1.06383743,1.6150679 0.835026986,1.36788182 0.835026986,1.07060915 C0.835026986,0.77333649 1.06383743,0.526150407 1.36022535,0.503232394 L224.68988,0.503232394 C232.50901,0.512568457 238.844816,6.84988891 238.852282,14.6690211 L238.852282,44.2234225 C238.852282,44.373451 238.792683,44.5173347 238.686597,44.6234209 C238.580511,44.729507 238.436627,44.7891056 238.286599,44.7891056 Z" id="Path_55"></path>
                        </g>
                        <g id="Group_22" transform="translate(18.936620, 148.654930)" fill="#000000">
                            <path d="M112.305246,82.2860423 L13.3953873,82.2860423 C6.4735481,82.2860423 0.862288732,76.6747829 0.862288732,69.7529437 L0.862288732,12.8052535 C0.873478615,5.8880546 6.47818841,0.283344812 13.3953873,0.27215493 L112.305246,0.27215493 C119.222445,0.283344812 124.827155,5.8880546 124.838345,12.8052535 L124.838345,69.7495563 C124.839244,73.0741276 123.519193,76.2628406 121.168683,78.6139851 C118.818174,80.9651297 115.629818,82.2860424 112.305246,82.2860423 Z M13.3784507,1.40352113 C7.08267217,1.41098722 1.98079708,6.51286231 1.97333099,12.8086408 L1.97333099,69.7495563 C1.98266276,76.044012 7.08399254,81.1438267 13.3784507,81.1512887 L112.28831,81.1512887 C118.58354,81.1456891 123.68596,76.044785 123.69343,69.7495563 L123.69343,12.8052535 C123.687827,6.50870203 118.584861,1.40573655 112.28831,1.4001338 L13.3784507,1.40352113 Z" id="Path_56"></path>
                        </g>
                        <g id="Group_23" transform="translate(267.598592, 6.774648)" fill="#000000">
                            <path d="M47.5580282,44.4247535 L8.12957746,44.4247535 C3.66824772,44.4191547 0.053021366,40.8039283 0.0474225352,36.3425986 L0.0474225352,9.71484507 C0.0548816772,5.25428749 3.66901988,1.64014928 8.12957746,1.63269014 L52.794831,1.63269014 C57.2553886,1.64014928 60.8695268,5.25428749 60.8769859,9.71484507 L60.8769859,31.630831 C60.8769859,31.9432491 60.623721,32.1965141 60.3113028,32.1965141 C59.9988847,32.1965141 59.7456197,31.9432491 59.7456197,31.630831 L59.7456197,9.71484507 C59.7400189,5.87890133 56.630777,2.77117467 52.794831,2.76744366 L8.12957746,2.76744366 C4.29363145,2.77117467 1.18438957,5.87890133 1.17878873,9.71484507 L1.17878873,36.3425986 C1.18438957,40.1785423 4.29363145,43.286269 8.12957746,43.29 L47.5580282,43.29 C47.8544161,43.312918 48.0832265,43.5601041 48.0832265,43.8573768 C48.0832265,44.1546494 47.8544161,44.4018355 47.5580282,44.4247535 Z" id="Path_57"></path>
                        </g>
                        <g id="Group_42" transform="translate(369.218310, 133.105634)" fill="#000000">
                            <g id="Group_24" transform="translate(0.000000, 73.521127)">
                                <path d="M40.5022324,41.1322746 L39.7265352,41.1322746 C39.6433084,41.132566 39.5610925,41.1140385 39.4860352,41.0780775 C-0.589394366,22.3190775 1.61575352,1.56833099 1.72753521,0.694401408 C1.75218424,0.512360563 1.86319415,0.353414552 2.02561972,0.267598592 C2.18793357,0.182663567 2.38156643,0.182663567 2.54388028,0.267598592 C27.5050704,12.7803732 40.8782254,40.0517183 41.010331,40.3260915 C41.096696,40.5014073 41.0864502,40.7088844 40.9832324,40.874838 C40.8767275,41.0364448 40.6957757,41.1332923 40.5022324,41.1322746 Z M2.82502817,1.69366197 C2.886,5.73473944 5.19615493,23.6333592 39.4826479,39.8417042 C36.8744085,34.8894366 24.2701761,12.8040845 2.82502817,1.69366197 Z" id="Path_58"></path>
                            </g>
                            <g id="Group_25" transform="translate(56.197183, 88.070423)">
                                <path d="M1.47878169,41.3042887 C1.41103521,41.3042887 0.801316901,41.2263803 0.801316901,41.2263803 C0.615614282,41.2039536 0.453004353,41.091178 0.366920932,40.9251115 C0.280837512,40.7590451 0.282411904,40.5611616 0.371126761,40.3964859 C0.523556338,40.115338 15.7495775,12.1733028 39.0306549,0.503971831 C39.1962449,0.422758234 39.3901001,0.422758234 39.5556901,0.503971831 C39.7167954,0.591659339 39.8253841,0.752017109 39.847,0.934161972 C39.9587817,1.80470423 42.0555352,22.4572183 1.72266901,41.2433169 C1.64681714,41.2812501 1.56356075,41.3020642 1.47878169,41.3042887 Z M38.7393451,1.92326056 C18.7541338,12.3460563 4.91691549,34.7803028 1.95978169,39.8883873 C36.229338,23.6935915 38.6478873,5.95417606 38.7393451,1.92326056 Z" id="Path_59"></path>
                            </g>
                            <g id="Group_26" transform="translate(4.387324, 99.232394)">
                                <path d="M34.2755915,44.8365282 C34.1540361,44.837277 34.0353978,44.7993127 33.9368592,44.7281338 L32.8292042,43.925338 C26.7320211,39.3930986 6.32000704,22.9611901 0.0534577465,1.58378873 C-0.00128604482,1.39793225 0.0435112896,1.19698421 0.172014085,1.05197887 C0.299137809,0.907956437 0.489708528,0.836810035 0.680112676,0.862288732 C0.920612676,0.899549296 24.8351197,4.88642958 34.8175634,44.1184155 C34.8588513,44.2878363 34.8206662,44.466838 34.7138362,44.6046619 C34.6070061,44.7424858 34.4431813,44.8241018 34.2688169,44.8263662 L34.2755915,44.8365282 Z M1.4185493,2.20028169 C7.98995775,23.0458732 28.6898944,39.4235845 33.3135915,42.8786549 C24.4692887,10.0995211 5.77464789,3.34519718 1.43209859,2.20028169 L1.4185493,2.20028169 Z" id="Path_60"></path>
                            </g>
                            <g id="Group_27" transform="translate(27.098592, 63.359155)">
                                <path d="M22.7933028,50.5524225 C22.6450624,50.5519138 22.5028717,50.4935792 22.3969859,50.389831 C-7.72309859,20.7473592 2.03916901,2.05271831 2.46597183,1.2736338 C2.5539303,1.11636988 2.71080048,1.00969816 2.88938732,0.985711268 C3.06751697,0.962598162 3.24603699,1.02545732 3.37038732,1.15507746 C20.3781408,18.8369085 23.3555986,44.6889648 23.7586901,49.6920423 C23.7754115,49.9043826 23.6721537,50.1082841 23.4910915,50.2204648 L23.0947746,50.4711268 C23.003901,50.5259719 22.8994303,50.5541438 22.7933028,50.5524225 Z M3.14682394,2.55065493 C1.72076056,6.24283803 -2.89277465,23.5520634 22.5561901,48.956993 C21.9125986,42.5210775 18.5828592,19.1011197 3.1400493,2.55065493 L3.14682394,2.55065493 Z" id="Path_61"></path>
                            </g>
                            <g id="Group_28" transform="translate(16.936620, 22.711268)">
                                <path d="M38.9542254,42.5007535 C38.8748901,42.5021062 38.796236,42.4859127 38.7238873,42.453331 L37.5044507,41.9079718 C-1.69366197,23.2472042 0.105007042,2.98084507 0.203239437,2.12723944 C0.2219589,1.94411843 0.32964469,1.7819563 0.491161972,1.69366197 C0.65586747,1.60390159 0.854879009,1.60390159 1.01958451,1.69366197 C25.7470493,14.0878803 38.9101901,40.5733662 39.4589366,41.6945704 C39.5659856,41.9076631 39.5250901,42.1653046 39.3573169,42.3347746 C39.2503102,42.4414113 39.1052938,42.501124 38.9542254,42.5007535 Z M1.32105634,3.10956338 C1.45993662,7.13709155 4.07833803,24.6529437 37.7009155,40.7427324 C34.6184507,35.007993 22.261493,13.9828732 1.31766901,3.10956338 L1.32105634,3.10956338 Z" id="Path_62"></path>
                            </g>
                            <g id="Group_29" transform="translate(41.647887, 3.387324)">
                                <path d="M16.5632746,37.2564366 C16.3976545,37.241819 16.2426965,37.1685443 16.1263099,37.0498099 C15.9738803,36.8668944 1.11707746,18.6092183 0.846091549,1.54049296 C0.842701215,1.35419927 0.931265864,1.17818353 1.08288437,1.0698846 C1.23450288,0.961585665 1.42972793,0.934894481 1.60485211,0.998521127 C2.2823169,1.24579577 17.9588521,7.32604225 17.3965563,36.3892817 C17.3910775,36.5142832 17.3433039,36.6337172 17.2610634,36.7280141 L16.9900775,37.0396479 C16.8878395,37.1726459 16.7309771,37.252322 16.5632746,37.2564366 Z M1.99778169,2.4381338 C2.67524648,16.6648944 13.3554789,31.5962183 16.2651901,35.4035704 C16.4277817,11.6956901 5.13105634,4.08098592 2.00794366,2.4381338 L1.99778169,2.4381338 Z" id="Path_63"></path>
                            </g>
                            <g id="Group_30" transform="translate(61.971831, 0.000000)">
                                <path d="M0.595429577,41.0908873 C0.430295345,41.0919312 0.273050292,41.020332 0.165419141,40.8950885 C0.0577879901,40.7698449 0.0106529129,40.60362 0.0365211268,40.4405211 L0.209274648,39.2414085 C0.217737681,39.1771039 0.238434193,39.1150144 0.270246479,39.058493 C3.65757042,32.7479085 16.3668099,11.3264718 37.9542254,0.503971831 C38.1189192,0.418983372 38.3145668,0.418983372 38.4792606,0.503971831 C38.641273,0.592329551 38.750002,0.754158867 38.7705704,0.937549296 C38.8688028,1.8013169 40.7047324,22.2776901 0.832542254,41.0265282 C0.758724934,41.0639377 0.678030996,41.0858403 0.595429577,41.0908873 Z M1.31692958,39.5056197 C34.9124085,23.4666408 37.5206479,5.97111268 37.6561408,1.93003521 C16.9528169,12.6746268 4.68392958,33.2424577 1.31692958,39.5056197 Z" id="Path_64"></path>
                            </g>
                            <g id="Group_31" transform="translate(54.197183, 56.584507)">
                                <path d="M3.80396479,43.8455211 C3.72831284,43.8462737 3.65333184,43.8312775 3.58378873,43.8014859 L3.21795775,43.645669 C3.07050844,43.5823927 2.95711477,43.4591387 2.90632394,43.3069366 C2.85559871,43.1590669 2.86533832,42.9971459 2.93342254,42.8564225 C4.36287324,40.048331 17.566662,15.0803662 41.1763099,3.24505634 C41.3410037,3.16006788 41.5366513,3.16006788 41.7013451,3.24505634 C41.8645782,3.33206869 41.9737935,3.49462173 41.9926549,3.6786338 C42.0942746,4.54240141 43.9302042,25.0390986 4.05462676,43.771 C3.97840792,43.8159279 3.89234894,43.841513 3.80396479,43.8455211 Z M40.8816127,4.67789437 C19.9310141,15.5545915 7.4555,36.8371479 4.50175352,42.3212254 C38.2157887,26.1907887 40.7630563,8.69526056 40.8816127,4.67789437 Z" id="Path_65"></path>
                            </g>
                            <g id="Group_32" transform="translate(62.971831, 32.873239)">
                                <path d="M1.16714789,28.484007 C1.0898551,28.4854396 1.01366621,28.4655133 0.946971831,28.4264225 L0.489683099,28.1351127 C0.347494312,28.0432707 0.253241402,27.8932102 0.232246479,27.7252465 C0.211271329,27.5565863 0.267241128,27.3874331 0.384676056,27.2645704 C0.581140845,27.0579437 20.3935986,6.36139437 42.9667254,0.951838028 C43.1497603,0.910719599 43.3412457,0.963589352 43.4772532,1.09279649 C43.6132607,1.22200362 43.6758743,1.41052787 43.6441901,1.59542958 C43.5222465,2.35080282 40.1654085,20.1681268 1.57701408,28.3552887 C1.45147242,28.4277051 1.31155036,28.4716475 1.16714789,28.484007 Z M42.2960352,2.28644366 C23.2389507,7.2285493 6.3328169,22.972831 2.17657042,27.0681056 C34.3527606,20.0292465 41.0765986,5.93797887 42.2960352,2.28644366 Z" id="Path_66"></path>
                            </g>
                            <g id="Group_33" transform="translate(47.422535, 39.647887)">
                                <path d="M1.40912676,116.771218 C1.24829982,116.76631 1.09666288,116.69511 0.990164327,116.574497 C0.88366577,116.453884 0.831788498,116.294599 0.846830986,116.134401 L14.565493,0.806183099 C14.602598,0.496921162 14.8827311,0.275843154 15.1921479,0.311633803 C15.5023007,0.35048419 15.7239509,0.630939515 15.6900845,0.941676056 L1.95448592,116.269894 C1.92260852,116.549342 1.69026478,116.762925 1.40912676,116.771218 Z" id="Path_67"></path>
                            </g>
                            <g id="Group_34" transform="translate(37.260563, 110.781690)">
                                <path d="M5.16905634,45.6374155 C4.86636357,45.6359569 4.61778383,45.3977967 4.60337324,45.0954437 L2.67598592,3.32973944 C2.66258324,3.01848465 2.90337118,2.75498087 3.21457042,2.74034507 C3.51832623,2.74817712 3.7705202,2.97731336 3.80735211,3.27892958 L5.73473944,45.0412465 C5.74210116,45.1913194 5.6894553,45.3381556 5.58841555,45.4493629 C5.4873758,45.5605701 5.34624439,45.6270109 5.19615493,45.6340282 L5.16905634,45.6374155 Z" id="Path_68"></path>
                            </g>
                            <g id="Group_35" transform="translate(33.873239, 141.267606)">
                                <path d="M5.18938028,15.0939155 C4.88417414,15.0922933 4.63459325,14.8501849 4.62369718,14.545169 L4.22399296,2.25257042 C4.2185048,2.10251575 4.27290078,1.95643561 4.37519571,1.84651621 C4.47749064,1.73659682 4.61929048,1.67185784 4.76935211,1.66656338 C5.08170998,1.65890381 5.34251126,1.90312236 5.35535915,2.21530986 L5.75506338,14.5079085 C5.76055154,14.6579631 5.70615556,14.8040433 5.60386063,14.9139627 C5.5015657,15.0238821 5.35976586,15.088621 5.20970423,15.0939155 L5.18938028,15.0939155 Z" id="Path_69"></path>
                            </g>
                            <g id="Group_36" transform="translate(54.197183, 127.718310)">
                                <path d="M1.55139437,28.6432113 C1.3962417,28.6424638 1.24812121,28.5783985 1.1413259,28.4658478 C1.03453059,28.353297 0.978321159,28.2020206 0.985711268,28.0470423 L2.30338028,0.989098592 C2.30374666,0.837341312 2.36772295,0.692689466 2.479752,0.590318093 C2.59178105,0.487946719 2.74159903,0.437234842 2.89277465,0.450514085 C3.04346361,0.456656436 3.18546124,0.522717137 3.28722595,0.634022288 C3.38899066,0.74532744 3.44209624,0.892660871 3.43474648,1.04329577 L2.11707746,28.1046268 C2.10260415,28.4064144 1.85352871,28.6435581 1.55139437,28.6432113 Z" id="Path_70"></path>
                            </g>
                            <g id="Group_37" transform="translate(47.422535, 110.781690)">
                                <path d="M4.99630282,11.4525423 C4.73540478,11.4526661 4.50784054,11.2753615 4.44416901,11.0223521 L2.15433803,1.73769718 C2.0934635,1.44028477 2.27820199,1.14784696 2.5729291,1.07507484 C2.86765622,1.00230271 3.16727873,1.1751452 3.25183099,1.46671127 L5.5450493,10.7513662 C5.61155931,11.0515193 5.42911263,11.3506122 5.13179577,11.428831 C5.08721883,11.4397859 5.04195084,11.4477078 4.99630282,11.4525423 Z" id="Path_71"></path>
                            </g>
                            <g id="Group_38" transform="translate(54.197183, 97.232394)">
                                <path d="M0.633429577,8.78333099 C0.54783902,8.78200838 0.463523944,8.76237336 0.38615493,8.72574648 C0.105811736,8.58893961 -0.0108724412,8.25101011 0.125330986,7.97037324 L2.93003521,2.22885915 C3.06952555,1.9495692 3.4070666,1.83353946 3.68879577,1.96803521 C3.96913897,2.10484208 4.08582315,2.44277158 3.94961972,2.72340845 L1.14491549,8.46492254 C1.04982633,8.6605779 0.850965521,8.78437205 0.633429577,8.78333099 Z" id="Path_72"></path>
                            </g>
                            <g id="Group_39" transform="translate(54.197183, 63.359155)">
                                <path d="M3.18408451,19.1790282 C2.88872142,19.1782973 2.64301417,18.951717 2.61840141,18.6573803 L1.12459155,1.33460563 C1.09196754,1.12426123 1.17946101,0.913295557 1.35137599,0.787779294 C1.52329097,0.662263031 1.75088183,0.643183558 1.94129506,0.738325001 C2.13170829,0.833466444 2.2531052,1.02692035 2.25595775,1.23976056 L3.74976761,18.5625352 C3.76291382,18.7121401 3.71602995,18.8608323 3.61944939,18.9758394 C3.52286883,19.0908465 3.38451957,19.162728 3.23489437,19.1756408 L3.18408451,19.1790282 Z" id="Path_73"></path>
                            </g>
                            <g id="Group_40" transform="translate(57.584507, 36.260563)">
                                <path d="M3.14343662,18.0205634 C2.87057551,18.0201004 2.63693214,17.8249227 2.58791549,17.5565 L0.0677464789,3.9191338 C0.0106880745,3.61139257 0.213906657,3.31566404 0.521647887,3.25860563 C0.829389118,3.20154723 1.12511765,3.40476581 1.18217606,3.71250704 L3.69895775,17.3498732 C3.72664249,17.4976882 3.69432967,17.6504431 3.60915909,17.7743854 C3.5239885,17.8983277 3.3929711,17.9832548 3.24505634,18.0104014 L3.14343662,18.0205634 Z" id="Path_74"></path>
                            </g>
                            <g id="Group_41" transform="translate(57.584507, 59.971831)">
                                <path d="M1.13814085,13.2952465 C1.06032543,13.295694 0.983191665,13.2807277 0.911190141,13.2512113 C0.773722383,13.1910394 0.665795584,13.0787128 0.611161685,12.9389516 C0.556527786,12.7991905 0.559664056,12.6434483 0.619880282,12.506 L5.81603521,0.433577465 C5.93857047,0.147350059 6.26993809,0.0146513578 6.55616549,0.13718662 C6.8423929,0.259721882 6.9750916,0.591089496 6.85255634,0.877316901 L1.65640141,12.9531268 C1.56728109,13.1602721 1.36364326,13.2946997 1.13814085,13.2952465 Z" id="Path_75"></path>
                            </g>
                        </g>
                        <g id="Group_44" transform="translate(121.943662, 152.429577)" fill="#000000">
                            <path d="M6.81190845,10.5007042 C5.24944397,10.5034454 3.83930512,9.56434906 3.23947551,8.12160612 C2.6396459,6.67886318 2.96834936,5.01683203 4.07220986,3.91103153 C5.17607036,2.80523103 6.83752177,2.47360968 8.28131574,3.07090502 C9.72510971,3.66820035 10.6666807,5.07668805 10.6666831,6.63915493 C10.6648243,8.76841604 8.94116302,10.4951066 6.81190845,10.5007042 Z M6.81190845,3.91574648 C5.31529457,3.91574648 4.1020493,5.12899175 4.1020493,6.62560563 C4.1020493,8.12221952 5.31529457,9.33546479 6.81190845,9.33546479 C8.30852234,9.33546479 9.52176761,8.12221952 9.52176761,6.62560563 C9.50336098,5.13889337 8.2986943,3.94025002 6.81190845,3.92929577 L6.81190845,3.91574648 Z" id="Path_77"></path>
                        </g>
                        <g id="Group_45" transform="translate(111.781690, 152.429577)" fill="#000000">
                            <path d="M4.23415493,10.5007042 C2.10379203,10.5007034 0.376617522,8.77403317 0.37599461,6.64367037 C0.375371697,4.51330757 2.10153617,2.78562759 4.2318987,2.78438094 C6.36226123,2.7831343 8.09044652,4.50879286 8.0923169,6.63915493 C8.09045288,8.76973514 6.36473269,10.4969705 4.23415493,10.5007042 Z M4.23415493,3.91574648 C2.73754104,3.91574648 1.52429577,5.12899175 1.52429577,6.62560563 C1.52429577,8.12221952 2.73754104,9.33546479 4.23415493,9.33546479 C5.73076882,9.33546479 6.94401408,8.12221952 6.94401408,6.62560563 C6.92560746,5.13889337 5.72094078,3.94025002 4.23415493,3.92929577 L4.23415493,3.91574648 Z" id="Path_78"></path>
                        </g>
                        <g id="Group_46" transform="translate(98.232394, 152.429577)" fill="#000000">
                            <path d="M5.04033803,10.5007042 C2.90997513,10.5007034 1.18280062,8.77403317 1.18217771,6.64367037 C1.1815548,4.51330757 2.90771926,2.78562759 5.03808179,2.78438094 C7.16844432,2.7831343 8.89662962,4.50879286 8.8985,6.63915493 C8.89850082,8.77050758 7.17168986,10.4988346 5.04033803,10.5007042 Z M5.04033803,3.91574648 C3.54372414,3.91574648 2.33047887,5.12899175 2.33047887,6.62560563 C2.33047887,8.12221952 3.54372414,9.33546479 5.04033803,9.33546479 C6.53695191,9.33546479 7.75019718,8.12221952 7.75019718,6.62560563 C7.73359412,5.13813118 6.52787702,3.93844266 5.04033803,3.92929577 L5.04033803,3.91574648 Z" id="Path_79"></path>
                        </g>
                        <g id="Group_54" transform="translate(105.007042, 40.647887)" fill="#000000">
                            <path d="M14.545169,16.6554718 L13.6407535,16.6554718 C13.3443656,16.6325538 13.1155552,16.3853677 13.1155552,16.0880951 C13.1155552,15.7908224 13.3443656,15.5436363 13.6407535,15.5207183 L14.545169,15.5207183 C15.8314834,15.5188527 16.8737823,14.4765538 16.8756479,13.1902394 L16.8756479,5.35197183 C16.8756492,4.0643348 15.8328047,3.01997448 14.545169,3.01810563 L5.63311972,3.01810563 C4.34548404,3.01997448 3.30263949,4.0643348 3.30264085,5.35197183 L3.30264085,13.1902394 C3.30450642,14.4765538 4.34680532,15.5188527 5.63311972,15.5207183 L6.73738732,15.5207183 C7.03377525,15.5436363 7.26258569,15.7908224 7.26258569,16.0880951 C7.26258569,16.3853677 7.03377525,16.6325538 6.73738732,16.6554718 L5.63311972,16.6554718 C3.72142166,16.6517389 2.1731379,15.1019402 2.17127465,13.1902394 L2.17127465,5.35197183 C2.171271,3.43894861 3.72010014,1.88708849 5.63311972,1.88335211 L14.545169,1.88335211 C16.4581886,1.88708849 18.0070177,3.43894861 18.0070141,5.35197183 L18.0070141,13.1902394 C18.0051508,15.1019402 16.4568671,16.6517389 14.545169,16.6554718 Z" id="Path_86"></path>
                        </g>
                        <g id="Group_55" transform="translate(64.359155, 16.936620)" fill="#000000">
                            <path d="M1.26685915,31.4309789 C1.10538299,31.4261417 0.953164139,31.3544759 0.846556491,31.2330974 C0.739948844,31.1117188 0.688523931,30.951525 0.70456338,30.7907746 C2.73695775,14.4943592 13.3765423,2.67598592 25.9807746,2.67598592 C36.1935563,2.67598592 45.4172394,10.6158732 49.4854155,22.9016972 C49.5602156,23.1912631 49.3981109,23.4893195 49.1143872,23.583894 C48.8306635,23.6784686 48.5221459,23.5372864 48.4082465,23.2607535 C44.4992746,11.4457676 35.6922324,3.81073944 25.9807746,3.81073944 C13.9557746,3.81073944 3.80057746,15.2226338 1.82915493,30.9432042 C1.78879404,31.2228354 1.54938768,31.4305132 1.26685915,31.4309789 Z" id="Path_87"></path>
                        </g>
                        <g id="Group_56" transform="translate(139.605634, 67.084507) rotate(50.000000) translate(-139.605634, -67.084507) translate(117.105634, 52.584507)" fill="#000000">
                            <path d="M8.89424238,28.3487697 C6.30522357,28.3459596 3.72910506,28.0989457 1.23849808,27.6146905 C0.8130404,27.5314344 0.566682119,27.2277188 0.688241455,26.9363226 C0.809800791,26.6449264 1.2532457,26.4761955 1.67870337,26.5594516 C4.03192483,27.0181261 6.46672225,27.2508392 8.91338174,27.250928 C25.9856915,27.250928 40.3497818,16.1414253 43.0627862,0.833906949 C43.0800842,0.687252789 43.1860054,0.552206774 43.3549872,0.461360469 C43.523969,0.370514165 43.7406606,0.332120251 43.9527665,0.355444591 C44.1635315,0.372660643 44.3556352,0.446602835 44.4866939,0.560957385 C44.6177526,0.675311934 44.676996,0.8206812 44.6513531,0.964992527 C41.8235126,16.8296246 26.779975,28.3487697 8.89424238,28.3487697 Z" id="Path_88"></path>
                        </g>
                        <g id="Group_57" transform="translate(57.584507, 47.422535)" fill="#000000">
                            <path d="M7.70277465,11.063 C4.80495601,11.063 2.45580986,8.71385385 2.45580986,5.81603521 C2.45580986,2.91821658 4.80495601,0.569070423 7.70277465,0.569070423 C10.6005933,0.569070423 12.9497394,2.91821658 12.9497394,5.81603521 C12.947871,8.71307955 10.599819,11.0611315 7.70277465,11.063 Z M7.70277465,1.70382394 C5.43210496,1.70569435 3.59270464,3.54762145 3.59395132,5.81829157 C3.595198,8.08896168 5.43661978,9.92886788 7.70729015,9.92824493 C9.97796052,9.92762197 11.8183725,8.08670567 11.8183732,5.81603521 C11.8201719,4.72333728 11.3873596,3.67477741 10.6153401,2.9014871 C9.84332065,2.1281968 8.79547406,1.69366049 7.70277465,1.69366197 L7.70277465,1.70382394 Z" id="Path_89"></path>
                        </g>
                        <g id="Group_58" transform="translate(167.030915, 71.376423) rotate(50.000000) translate(-167.030915, -71.376423) translate(160.256268, 64.601775)" fill="#000000">
                            <path d="M6.29026056,11.063 C3.39244193,11.063 1.04329577,8.71385385 1.04329577,5.81603521 C1.04329577,2.91821658 3.39244193,0.569070423 6.29026056,0.569070423 C9.1880792,0.569070423 11.5372254,2.91821658 11.5372254,5.81603521 C11.5353569,8.71307955 9.18730491,11.0611315 6.29026056,11.063 Z M6.29026056,1.70382394 C4.01959088,1.70569435 2.18019056,3.54762145 2.18143724,5.81829157 C2.18268392,8.08896168 4.02410569,9.92886788 6.29477607,9.92824493 C8.56544644,9.92762197 10.4058584,8.08670567 10.4058592,5.81603521 C10.4076578,4.72333728 9.97484555,3.67477741 9.20282606,2.9014871 C8.43080656,2.1281968 7.38295997,1.69366049 6.29026056,1.69366197 L6.29026056,1.70382394 Z" id="Path_90"></path>
                        </g>
                        <g id="Group_64" transform="translate(179.528169, 115.169014)" fill="#000000">
                            <g id="Group_61" transform="translate(10.161972, 0.000000)">
                                <g id="Group_60">
                                    <g id="Group_59">
                                        <path d="M26.1264296,37.8330211 C26.0416473,37.8340656 25.9579036,37.8142928 25.8825423,37.7754366 C25.6013026,37.6397048 25.4807341,37.3036201 25.6115563,37.0200634 C26.299423,35.0801054 26.8284585,33.0874428 27.1934366,31.0617606 C27.5863662,29.2868028 27.9521972,27.6066901 28.273993,26.705662 C29.1356493,24.9024114 29.4590728,22.8889531 29.205507,20.9065634 C29.0328795,20.2461533 28.597017,19.6854088 27.9996197,19.355169 C27.1775906,19.0237261 26.2438169,19.1294603 25.5167113,19.6363169 C24.7224251,20.1960291 24.0826885,20.9476322 23.6570704,21.8211408 C23.4442002,22.3109015 23.2796978,22.8202915 23.1659085,23.3420493 C22.7289437,25.0052254 22.1497113,27.281507 20.1511901,27.7455704 C17.2821268,28.4230352 15.1684366,26.1196549 13.813507,20.8828521 C13.4036408,19.3111338 12.8548944,17.2380915 12.2248521,15.1447254 C11.1415647,11.3586763 9.74453683,7.66952561 8.04828169,4.11559859 L7.86875352,3.74299296 C7.56422176,2.92122094 7.05882895,2.18875071 6.39865493,1.6123662 C5.96443234,1.31324376 5.4407281,1.17215449 4.91500704,1.21266197 C4.1526898,1.23486453 3.44408767,1.6104487 2.99778169,2.22885915 C2.31905081,3.32911825 2.13347293,4.6638042 2.48629577,5.90749296 C3.18408451,8.69187324 9.04754225,25.3608944 9.10512676,25.5268732 C9.1891675,25.7218601 9.15766641,25.9474172 9.02341995,26.1119182 C8.88917348,26.2764193 8.67451158,26.352502 8.46663461,26.3092599 C8.25875765,26.2660177 8.09224293,26.1106435 8.03473239,25.9062535 C7.79423239,25.2287887 2.09675352,9.01705634 1.38880282,6.1818662 C0.941318159,4.61478313 1.18802538,2.93100638 2.06626761,1.55816901 C2.71318614,0.672138282 3.73060501,0.131595499 4.82693662,0.0914577465 C5.61920532,0.0291309849 6.40816548,0.247354007 7.05579577,0.707950704 C7.87022727,1.39142357 8.4963866,2.27177793 8.87478873,3.26538028 L9.05092958,3.62782394 C10.7733766,7.23784487 12.1930282,10.9846828 13.2952465,14.8297042 C13.9286761,16.940007 14.4808099,19.0232113 14.8940634,20.6084789 C16.0626901,25.1305563 17.7224789,27.1561761 19.8700423,26.6548521 C21.1910986,26.3364437 21.6687113,24.5174507 22.0548662,23.0541268 C22.1841249,22.4407138 22.3830071,21.8440672 22.6476479,21.2757817 C23.1643554,20.2356275 23.9357437,19.3430543 24.8900563,18.6810915 C25.9480771,17.9591168 27.3027679,17.8311951 28.4772324,18.3423592 C29.3655688,18.8101108 30.0177596,19.6281128 30.2759014,20.5983169 C30.6201229,22.7881471 30.2966962,25.030887 29.3477746,27.0342324 C29.0090423,27.9352606 28.6703099,29.5781127 28.2841549,31.3191972 C27.9056669,33.4309044 27.3492929,35.5068254 26.6209789,37.5247746 C26.5252351,37.7105379 26.3353738,37.8288761 26.1264296,37.8330211 Z" id="Path_91"></path>
                                    </g>
                                </g>
                            </g>
                            <g id="Group_62" transform="translate(3.387324, 0.000000)">
                                <path d="M9.62677465,29.1546972 C9.40014063,29.1556719 9.19426924,29.0228516 9.10173944,28.8159648 C1.80883099,11.4762535 2.05271831,6.83900704 2.87583803,4.85742254 C3.18964448,4.04631708 3.83013158,3.40460064 4.6406338,3.08923944 C6.07040837,2.32487634 7.8303426,2.57277369 8.99334507,3.70234507 C9.19819393,3.93899716 9.1724124,4.29690437 8.9357604,4.50175333 C8.6991084,4.70660229 8.34120118,4.68082092 8.13635211,4.44416901 C7.28628073,3.70946257 6.06648528,3.58748303 5.08776056,4.13930986 C4.55846295,4.34336112 4.14012168,4.76170238 3.93607042,5.291 C2.77421831,8.10247887 4.81338732,15.6528239 10.1653592,28.3756127 C10.2246544,28.5142751 10.2257647,28.6709444 10.1684405,28.8104332 C10.1111163,28.9499221 10.0001629,29.0605378 9.8605,29.1174366 C9.78625846,29.1468164 9.70647133,29.1595361 9.62677465,29.1546972 Z" id="Path_92"></path>
                            </g>
                            <g id="Group_63" transform="translate(0.000000, 6.774648)">
                                <path d="M11.7845,36.786338 C11.6035837,36.7855492 11.4338219,36.6987821 11.3272113,36.5526127 C5.65683099,28.7041831 0.182915493,5.93120423 1.69027465,2.60823944 C2.06052884,1.62592731 2.84694386,0.858118325 3.83783803,0.511485915 C4.82839629,0.267751292 5.87485498,0.417071964 6.75771127,0.928126761 C6.88622286,1.00539552 6.97854783,1.13079439 7.01416781,1.27645464 C7.04978778,1.42211489 7.02575172,1.57596887 6.94740141,1.70382394 C6.7851725,1.96952095 6.43955573,2.05554783 6.17170423,1.89690141 C5.56310709,1.54960555 4.84675543,1.4420924 4.16302113,1.59542958 C3.49125929,1.85683341 2.96601126,2.39691197 2.72340845,3.07569014 C1.47348592,5.81942254 6.54769718,28.003007 12.2451761,35.8886972 C12.4277859,36.1432923 12.3702481,36.4976043 12.1164577,36.681331 C12.019808,36.750785 11.9035106,36.7875729 11.7845,36.786338 Z" id="Path_93"></path>
                            </g>
                        </g>
                        <g id="Group_70" transform="translate(240.500000, 91.457746)" fill="#000000">
                            <g id="Group_67" transform="translate(0.000000, 6.774648)">
                                <g id="Group_66">
                                    <g id="Group_65">
                                        <path d="M20.6626761,40.1770493 C18.8117326,39.7362849 17.0113764,39.1051386 15.2903803,38.2936972 C14.0960697,37.7575979 12.8724251,37.2894011 11.6252958,36.8913451 C9.41626079,36.5385647 7.36089939,35.5403473 5.71780282,34.0222817 C5.06206637,33.2620909 4.75382847,32.2624668 4.86758451,31.265 C5.1087302,30.0060995 5.98002187,28.9595259 7.17435211,28.494169 C8.25804829,28.0743656 9.4312001,27.9390916 10.582,28.1012394 C11.1994751,28.2041231 11.8037833,28.3745108 12.3840563,28.609338 C13.8101197,29.1174366 15.5749155,29.7542535 16.5911127,28.8362887 C18.2102535,27.3661901 17.4718169,24.8358592 14.3961268,21.3198169 C12.8210211,19.5143732 11.6252958,18.1052465 10.5210282,16.7435423 C7.96587292,13.6636777 5.66936991,10.3781036 3.65492254,6.92030282 L3.4516831,6.58157042 C2.84545247,5.70779316 2.47341798,4.69315364 2.37112676,3.63459859 C2.35306821,2.84163903 2.61581133,2.06780655 3.1129507,1.44977465 C3.76705219,0.563837361 4.79308245,0.0289519168 5.89394366,-2.40683842e-14 C7.5216736,0.0516079696 9.05143898,0.790030518 10.1043873,2.03239437 C12.0588732,4.22738028 21.8313028,19.4669507 22.2445563,20.1139296 C22.3540772,20.2839591 22.364569,20.4995015 22.2720796,20.6793641 C22.1795901,20.8592267 21.9981707,20.976084 21.7961604,20.985917 C21.5941501,20.99575 21.402239,20.8970648 21.2927183,20.7270352 C21.1910986,20.567831 11.1544577,4.91500704 9.25755634,2.77421831 C8.41567239,1.79946623 7.21668762,1.20485769 5.93120423,1.12459155 C5.1704988,1.14936902 4.46399644,1.52450302 4.0173662,2.14078873 C3.68976246,2.55270582 3.51286811,3.06426516 3.51604225,3.59056338 C3.62050908,4.46112989 3.93941843,5.29215646 4.44416901,6.00911268 L4.6541831,6.34784507 C6.64144947,9.75087462 8.90742627,12.9832905 11.428831,16.0118803 C12.5229366,17.3668099 13.7118873,18.7623873 15.276831,20.5542817 C18.8402958,24.6190704 19.5482465,27.6913732 17.3803592,29.6594085 C15.873,31.014338 13.6543028,30.2386408 12.0317746,29.6594085 C11.5384203,29.4598827 11.0267661,29.3089958 10.5040915,29.2088944 C9.54027733,29.0748884 8.55828799,29.1807664 7.64519014,29.5171408 C6.81768135,29.8305841 6.20553075,30.5422092 6.01927465,31.4072676 C5.95275969,32.0875743 6.16965226,32.7652104 6.61883099,33.2804577 C8.10007407,34.5982179 9.93023046,35.4603674 11.889507,35.7633662 C13.2065809,36.1715015 14.4973263,36.6601974 15.7544437,37.2266901 C17.3692697,37.9821825 19.0510141,38.5854785 20.7778451,39.0287465 C21.0631726,39.0826491 21.2621545,39.3427299 21.2395514,39.6322232 C21.2169483,39.9217166 20.9800107,40.1477616 20.6897746,40.1567254 L20.6626761,40.1770493 Z" id="Path_94"></path>
                                    </g>
                                </g>
                            </g>
                            <g id="Group_68" transform="translate(6.774648, 3.387324)">
                                <path d="M20.9539859,19.7074507 C20.761877,19.7066751 20.5832916,19.6084531 20.4797606,19.4466268 C13.0276479,7.92972535 7.94666197,2.00529577 4.99630282,1.38880282 C4.44107325,1.25504307 3.85513806,1.36606237 3.38732394,1.69366197 C2.36608073,2.18806497 1.7724355,3.27732229 1.9104507,4.40352113 C1.97565851,4.70133975 1.79743899,4.99837228 1.50397183,5.08098592 C1.20702897,5.15415188 0.906056937,4.97657838 0.826507042,4.68128169 C0.54075423,3.08474472 1.32741533,1.48808353 2.76744366,0.741823944 C3.48922166,0.239020511 4.39111814,0.0677587473 5.24696479,0.270985915 C7.33016901,0.70456338 11.2764014,3.10278873 21.4519225,18.8233592 C21.5628401,18.9981827 21.5700569,19.2194534 21.4707669,19.401133 C21.3714769,19.5828127 21.1813482,19.6962317 20.9743099,19.6972887 L20.9539859,19.7074507 Z" id="Path_95"></path>
                            </g>
                            <g id="Group_69" transform="translate(13.549296, 0.000000)">
                                <path d="M17.661507,14.9651972 C17.4847667,14.9646795 17.3182993,14.8820716 17.210993,14.7416338 C11.418669,7.19806338 6.37155634,3.90219718 4.56272535,3.56346479 C3.86802458,3.37984964 3.12792951,3.50319882 2.53033099,3.90219718 C2.018428,4.37936264 1.70314046,5.03047371 1.64623944,5.72796479 C1.62940236,6.0403828 1.36248846,6.27999855 1.05007044,6.26316165 C0.737652417,6.24632475 0.498036518,5.97941099 0.514873239,5.66699296 C0.590769006,4.65033449 1.05684565,3.70240256 1.81560563,3.02149296 C2.66101267,2.39866646 3.73860628,2.18165969 4.75919014,2.42871127 C6.82545775,2.78776761 12.0859718,6.15476761 18.1187958,14.0269085 C18.3081,14.2768079 18.2596319,14.6327455 18.0104014,14.8229296 C17.9140755,14.9093052 17.7907663,14.9595866 17.661507,14.9651972 Z" id="Path_96"></path>
                            </g>
                        </g>
                        <g id="Group_71" transform="translate(230.338028, 81.295775)" fill="#000000">
                            <path d="M34.4727958,17.316 C34.1603776,17.316 33.9071127,17.062735 33.9071127,16.7503169 L33.9071127,14.7924437 C33.8959168,7.59892216 28.0662143,1.77073471 20.8726901,1.76140845 L3.86493662,1.76140845 C3.56854869,1.73849044 3.33973825,1.49130436 3.33973825,1.19403169 C3.33973825,0.896759025 3.56854869,0.649572942 3.86493662,0.62665493 L20.8726901,0.62665493 C28.6923703,0.635987414 35.0291464,6.97276348 35.0384789,14.7924437 L35.0384789,16.7503169 C35.0384789,17.062735 34.7852139,17.316 34.4727958,17.316 Z" id="Path_97"></path>
                        </g>
                        <g id="Group_72" transform="translate(162.591549, 81.295775)" fill="#000000">
                            <path d="M18.9114296,48.4929296 L14.5079085,48.4929296 C6.68823041,48.4817275 0.352969461,42.143436 0.345507042,34.3237535 L0.345507042,14.7924437 C0.35297317,6.97331145 6.68877824,0.635990992 14.5079085,0.62665493 L45.6374155,0.62665493 C45.9338034,0.649572942 46.1626139,0.896759025 46.1626139,1.19403169 C46.1626139,1.49130436 45.9338034,1.73849044 45.6374155,1.76140845 L14.5079085,1.76140845 C7.31493485,1.77073908 1.48620387,7.59947006 1.47687324,14.7924437 L1.47687324,34.3237535 C1.4861995,41.5172777 7.31438695,47.3469801 14.5079085,47.3581761 L18.9114296,47.3581761 C19.2078175,47.3810941 19.4366279,47.6282802 19.4366279,47.9255528 C19.4366279,48.2228255 19.2078175,48.4700116 18.9114296,48.4929296 Z" id="Path_98"></path>
                        </g>
                        <g id="Group_73" transform="translate(199.852113, 125.330986)" fill="#000000">
                            <path d="M45.810169,4.45771831 L2.3203169,4.45771831 C2.02392898,4.4348003 1.79511854,4.18761421 1.79511854,3.89034155 C1.79511854,3.59306888 2.02392898,3.3458828 2.3203169,3.32296479 L45.810169,3.32296479 C46.1065569,3.3458828 46.3353674,3.59306888 46.3353674,3.89034155 C46.3353674,4.18761421 46.1065569,4.4348003 45.810169,4.45771831 Z" id="Path_99"></path>
                        </g>
                        <g id="Group_74" transform="translate(274.373239, 132.105634)" fill="#000000">
                            <path d="M56.5310493,84.9845704 C54.9954615,84.9784689 53.4624421,84.8584541 51.9446127,84.6255141 C39.7299225,82.8031338 40.5361056,74.1959437 41.4439085,64.2270493 C42.1470495,58.97652 42.1664057,53.6569791 41.501493,48.4014718 C40.0246197,39.6215282 34.9504085,38.6934014 27.9250986,37.4062183 C20.8995444,36.6572211 14.2757249,33.7604829 8.95608451,29.110662 C1.91383803,22.5629648 2.66921127,16.5369155 4.55256338,12.6347183 C7.30645775,6.89320423 13.9693239,2.88938732 16.9366197,3.32635211 C17.0852129,3.34805598 17.2189507,3.4282957 17.3080313,3.5491908 C17.3971119,3.67008591 17.4341331,3.82159053 17.4108451,3.96994366 C17.358895,4.27476072 17.0778708,4.48590059 16.7706408,4.45094366 C14.5316197,4.0885 8.2481338,7.55034507 5.57214789,13.1258803 C3.8615493,16.6825704 3.20102113,22.2039085 9.73855634,28.2807676 C14.8878159,32.7981379 21.3169904,35.5983217 28.1317254,36.2917887 C35.0418662,37.5552606 41.0035563,38.6629155 42.6193099,48.2117817 C43.3028918,53.5645106 43.2869505,58.983442 42.5718873,64.3320563 C41.6268239,74.4940282 40.9425845,81.8411338 52.0936549,83.5043099 C57.4790294,84.7769861 63.1511955,83.5564564 67.5364648,80.1813451 C71.326618,76.3756053 73.333059,71.1460647 73.0611901,65.781831 C72.8952113,56.0297254 67.9632676,33.6022535 53.7534437,26.5667817 C37.8330211,18.6743169 32.7791338,13.1902394 34.4050493,5.6161831 C34.4399165,5.41077064 34.5848761,5.24115281 34.782347,5.1747055 C34.9798179,5.10825819 35.1978295,5.15573924 35.3497828,5.29828814 C35.5017361,5.44083704 35.5630299,5.65537509 35.5093169,5.8566831 C34.0222817,12.7939225 38.9271268,17.9460423 54.2547676,25.5505845 C70.100669,33.4091761 74.0502887,57.8283944 74.1823944,65.7648944 C74.4620069,71.4604124 72.3154461,77.0077459 68.2749014,81.0315634 C64.9849196,83.7581482 60.8001304,85.1667576 56.5310493,84.9845704 Z" id="Path_100"></path>
                        </g>
                        <g id="Group_75" transform="translate(267.598592, 98.232394)" fill="#000000">
                            <path d="M41.6200493,41.240669 C41.4608082,41.2365504 41.3102916,41.1670338 41.2039065,41.0484721 C41.0975214,40.9299104 41.0446586,40.7727692 41.0577535,40.6140141 C41.9905029,34.727158 43.4043664,28.9266922 45.2851338,23.2709155 C45.3799789,22.952507 45.4409507,22.7560423 45.4545,22.7052324 C46.3407575,18.4827762 45.399415,14.0824611 42.8631972,10.592162 C40.1613977,7.57315354 36.4402682,5.65770665 32.4133028,5.21309155 C32.3498165,5.20704858 32.2878949,5.18984814 32.2303873,5.16228169 C30.5367254,4.4136831 18.0036268,0.616492958 12.4551901,2.39483803 C6.43591686,4.27154186 2.33203103,9.8389458 2.3203169,16.1439859 L12.5940704,17.9968521 C12.3467958,15.9034859 11.9538662,10.2906901 14.5180704,8.42766197 C14.7001544,8.29706981 14.9419246,8.28548602 15.1356598,8.39807178 C15.329395,8.51065753 15.4390279,8.7264529 15.4157113,8.94930986 C14.8817107,13.6729488 15.4713133,18.4559255 17.1364718,22.9084718 C17.2795855,23.1890869 17.1681186,23.532587 16.8875035,23.6757007 C16.6068884,23.8188144 16.2633884,23.7073475 16.1202746,23.4267324 C14.4798841,19.442531 13.7999065,15.1282703 14.1353028,10.832662 C13.4540106,13.3655144 13.3383658,16.0172488 13.7965704,18.5997958 C13.8271138,18.7823803 13.7663868,18.9683565 13.6339789,19.0977324 C13.5069923,19.2313114 13.3195815,19.289075 13.1394296,19.250162 L1.62252817,17.1737324 C1.36371475,17.1294559 1.17061834,16.9109892 1.15846479,16.6486972 C0.994971079,9.68408297 5.43565507,3.44286085 12.0690352,1.31428169 C17.9392676,-0.57584507 30.438493,3.20102113 32.5623451,4.09188732 C36.8716844,4.55051325 40.8503725,6.61483563 43.7066408,9.8740493 C46.4571683,13.6228679 47.4853907,18.3637734 46.5350563,22.9152465 C46.5350563,22.9389577 46.4639225,23.1828451 46.3352042,23.5927113 C44.4585303,29.1753273 43.0579494,34.9068305 42.1484718,40.7257958 C42.1238816,41.0044757 41.8992738,41.2233243 41.6200493,41.240669 Z" id="Path_101"></path>
                        </g>
                        <g id="Group_76" transform="translate(267.598592, 132.105634)" fill="#000000">
                            <path d="M2.83857746,5.79909859 C1.98190202,5.79963462 1.1351271,5.61595493 0.355669014,5.26051408 C0.0975837341,5.11299342 -0.0022868039,4.79087972 0.127076447,4.52323161 C0.256439699,4.2555835 0.570895562,4.13372756 0.846830986,4.2443169 C2.416198,5.0150583 4.30087214,4.71383609 5.55182394,3.49233099 C5.65048696,3.37860253 5.79063811,3.30919223 5.94089571,3.29964196 C6.0911533,3.29009169 6.23896449,3.3411993 6.35123239,3.44152113 C6.5856171,3.6479643 6.60980527,4.00473994 6.40542958,4.24092958 C5.50450038,5.26099208 4.19915402,5.83122886 2.83857746,5.79909859 Z" id="Path_102"></path>
                        </g>
                        <g id="Group_77" transform="translate(281.147887, 118.556338)" fill="#000000">
                            <path d="M2.6319507,8.12957746 C2.46814102,8.12322411 2.31448187,8.04854589 2.20827365,7.92367078 C2.10206544,7.79879568 2.05301973,7.63514211 2.07304225,7.47243662 L2.78438028,3.02149296 C2.84424859,2.7187239 3.12868668,2.51428402 3.43474648,2.55404225 C3.7420861,2.60426827 3.95102864,2.89345685 3.90219718,3.20102113 L3.19085915,7.65196479 C3.14750552,7.92703304 2.91041448,8.1296381 2.6319507,8.12957746 Z" id="Path_103"></path>
                        </g>
                        <g id="Group_78" transform="translate(47.422535, 165.978873)" fill="#000000">
                            <path d="M2.70985915,56.8020352 C2.39744101,56.8020352 2.14417606,56.5487703 2.14417606,56.2363521 L2.14417606,3.68202113 C2.14417606,3.36960298 2.39744101,3.11633803 2.70985915,3.11633803 C3.0222773,3.11633803 3.27554225,3.36960298 3.27554225,3.68202113 L3.27554225,56.2295775 C3.27735315,56.3807763 3.21855496,56.5264066 3.11227189,56.6339625 C3.00598882,56.7415184 2.86106883,56.8020461 2.70985915,56.8020352 Z" id="Path_104"></path>
                        </g>
                        <g id="Group_79" transform="translate(223.563380, 94.845070)" fill="#000000">
                            <path d="M15.1785986,4.70499296 L3.72605634,4.70499296 C3.42966841,4.68207494 3.20085797,4.43488886 3.20085797,4.1376162 C3.20085797,3.84034353 3.42966841,3.59315745 3.72605634,3.57023944 L15.1684366,3.57023944 C15.4648245,3.59315745 15.693635,3.84034353 15.693635,4.1376162 C15.693635,4.43488886 15.4648245,4.68207494 15.1684366,4.70499296 L15.1785986,4.70499296 Z" id="Path_105"></path>
                        </g>
                        <g id="Group_80" transform="translate(186.302817, 94.845070)" fill="#000000">
                            <path d="M31.5495352,4.70499296 L3.00455634,4.70499296 C2.70816841,4.68207494 2.47935797,4.43488886 2.47935797,4.1376162 C2.47935797,3.84034353 2.70816841,3.59315745 3.00455634,3.57023944 L31.5495352,3.57023944 C31.8459231,3.59315745 32.0747336,3.84034353 32.0747336,4.1376162 C32.0747336,4.43488886 31.8459231,4.68207494 31.5495352,4.70499296 Z" id="Path_106"></path>
                        </g>
                        <g id="Group_81" transform="translate(186.302817, 108.394366)" fill="#000000">
                            <path d="M34.987669,4.89807042 L3.00455634,4.89807042 C2.70816841,4.87515241 2.47935797,4.62796633 2.47935797,4.33069366 C2.47935797,4.033421 2.70816841,3.78623491 3.00455634,3.7633169 L34.987669,3.7633169 C35.2840569,3.78623491 35.5128674,4.033421 35.5128674,4.33069366 C35.5128674,4.62796633 35.2840569,4.87515241 34.987669,4.89807042 Z" id="Path_107"></path>
                        </g>
                        <g id="Group_82" transform="translate(169.366197, 182.915493)" fill="#000000">
                            <path d="M32.0068239,31.4784014 L3.8344507,31.4784014 C3.52148543,31.4765385 3.26876206,31.2223018 3.26876761,30.909331 L3.26876761,1.93416197 C3.26876761,1.62174382 3.52203256,1.36847887 3.8344507,1.36847887 L23.1997817,1.36847887 C23.4961696,1.39139689 23.7249801,1.63858297 23.7249801,1.93585563 C23.7249801,2.2331283 23.4961696,2.48031438 23.1997817,2.50323239 L4.40352113,2.50323239 L4.40352113,30.3436479 L32.0102113,30.3436479 C32.3065992,30.3665659 32.5354096,30.613752 32.5354096,30.9110246 C32.5354096,31.2082973 32.3065992,31.4554834 32.0102113,31.4784014 L32.0068239,31.4784014 Z" id="Path_108"></path>
                        </g>
                        <g id="Group_83" transform="translate(318.408451, 77.908451)" fill="#000000">
                            <path d="M21.3062676,24.5140634 L1.12120423,24.5140634 C0.970587,24.5140661 0.826187562,24.4540027 0.720003491,24.3471828 C0.61381942,24.2403629 0.554619227,24.0956075 0.555521127,23.944993 L0.555521127,3.75992958 C0.555521127,3.44751143 0.808786077,3.19424648 1.12120423,3.19424648 L21.3062676,3.19424648 C21.6186858,3.19424648 21.8719507,3.44751143 21.8719507,3.75992958 L21.8719507,23.944993 C21.8728526,24.0956075 21.8136524,24.2403629 21.7074683,24.3471828 C21.6012843,24.4540027 21.4568848,24.5140661 21.3062676,24.5140634 Z M1.69366197,23.3725352 L20.7473592,23.3725352 L20.7473592,4.329 L1.69366197,4.329 L1.69366197,23.3725352 Z" id="Path_109"></path>
                        </g>
                        <g id="Group_84" transform="translate(318.408451, 118.556338)" fill="#000000">
                            <path d="M21.3062676,22.5528028 L1.12120423,22.5528028 C0.970587,22.5528055 0.826187562,22.4927422 0.720003491,22.3859223 C0.61381942,22.2791024 0.554619227,22.1343469 0.555521127,21.9837324 L0.555521127,1.79866901 C0.555521127,1.48625087 0.808786077,1.23298592 1.12120423,1.23298592 L21.3062676,1.23298592 C21.6186858,1.23298592 21.8719507,1.48625087 21.8719507,1.79866901 L21.8719507,21.9837324 C21.8728526,22.1343469 21.8136524,22.2791024 21.7074683,22.3859223 C21.6012843,22.4927422 21.4568848,22.5528055 21.3062676,22.5528028 Z M1.68688732,21.4180493 L20.7405845,21.4180493 L20.7405845,2.37112676 L1.69366197,2.37112676 L1.68688732,21.4180493 Z" id="Path_110"></path>
                        </g>
                        <g id="Group_85" transform="translate(216.788732, 223.563380)" fill="#000000">
                            <path d="M42.6396338,13.8880282 C42.3905108,13.8859112 42.1713607,13.7229182 42.097662,13.4849366 C39.9196127,6.34107042 32.1186056,1.34815493 23.1286479,1.34815493 C15.0261414,0.940328028 7.52232541,5.60708854 4.30528873,13.0547465 C4.23933427,13.2459541 4.07638179,13.3874509 3.87781392,13.4259364 C3.67924606,13.4644219 3.47523,13.3940493 3.34261666,13.2413272 C3.21000331,13.0886051 3.16893981,12.8767357 3.23489437,12.6855282 C6.61087673,4.78163756 14.5435036,-0.191618369 23.1286479,0.213401408 C32.6131549,0.213401408 40.8545141,5.53488732 43.1782183,13.1529789 C43.2685552,13.4521728 43.1006962,13.7682316 42.8022254,13.8609296 C42.7495144,13.8773216 42.6948118,13.8864387 42.6396338,13.8880282 Z" id="Path_111"></path>
                        </g>
                    </g>
                </g>
            </g>
        </g>
    </g>
</svg>