<?xml version="1.0" encoding="UTF-8"?>
<svg width="35px" height="35px" viewBox="0 0 35 35" version="1.1" xmlns="http://www.w3.org/2000/svg" xmlns:xlink="http://www.w3.org/1999/xlink">
    <!-- Generator: Sketch 52.6 (67491) - http://www.bohemiancoding.com/sketch -->
    <title>icon</title>
    <desc>Created with Sketch.</desc>
    <g id="Website" stroke="none" stroke-width="1" fill="none" fill-rule="evenodd">
        <g id="Translator's-Hub" transform="translate(-168.000000, -3749.000000)" fill="#61B0E8" fill-rule="nonzero">
            <g id="Financially" transform="translate(0.000000, 3335.000000)">
                <g id="features" transform="translate(150.000000, 384.000000)">
                    <g id="rates">
                        <g id="icon" transform="translate(18.000000, 30.000000)">
                            <path d="M35,16.7571429 L30.7357143,16.7571429 C30.3571429,10.05 24.95,4.64285714 18.2428571,4.26428571 L18.2428571,-1.01506105e-15 L16.75,-1.01506105e-15 L16.75,4.26428571 C10.05,4.64285714 4.64285714,10.05 4.26428571,16.7571429 L-3.04518315e-15,16.7571429 L-3.04518315e-15,18.25 L4.26428571,18.25 C4.64285714,24.95 10.05,30.3571429 16.7571429,30.7357143 L16.7571429,35 L18.25,35 L18.25,30.7357143 C24.9571429,30.3571429 30.3642857,24.9571429 30.7357143,18.25 L35,18.25 L35,16.7571429 Z M29.2428571,16.7571429 L25.8071429,16.7571429 C25.4571429,12.7357143 22.2642857,9.55 18.2428571,9.19285714 L18.2428571,5.75714286 C24.1357143,6.12857143 28.8714286,10.8642857 29.2428571,16.7571429 Z M24.3071429,18.2428571 C23.9571429,21.4357143 21.3857143,23.9571429 18.2428571,24.3071429 L18.2428571,22.0428571 L16.75,22.0428571 L16.75,24.3142857 C13.55,23.9714286 11.0285714,21.45 10.6857143,18.25 L12.9571429,18.25 L12.9571429,16.7571429 L10.6928571,16.7571429 C11.0428571,13.5642857 13.6142857,11.0428571 16.7571429,10.6928571 L16.7571429,12.9571429 L18.25,12.9571429 L18.25,10.6928571 C21.3928571,11.0428571 23.9642857,13.5642857 24.3142857,16.7571429 L22.05,16.7571429 L22.05,18.25 L24.3071429,18.25 L24.3071429,18.2428571 Z M16.7571429,5.75 L16.7571429,9.18571429 C12.7357143,9.53571429 9.55,12.7285714 9.19285714,16.75 L5.75714286,16.75 C6.12857143,10.8571429 10.8642857,6.12142857 16.7571429,5.75 Z M5.75714286,18.2357143 L9.19285714,18.2357143 C9.54285714,22.2571429 12.7357143,25.4428571 16.7571429,25.8 L16.7571429,29.2357143 C10.8642857,28.8642857 6.12857143,24.1285714 5.75714286,18.2357143 Z M18.2428571,29.2357143 L18.2428571,25.8 C22.2642857,25.45 25.45,22.2571429 25.8071429,18.2357143 L29.2428571,18.2357143 C28.8714286,24.1285714 24.1357143,28.8642857 18.2428571,29.2357143 Z" id="Shape"></path>
                        </g>
                    </g>
                </g>
            </g>
        </g>
    </g>
</svg>