<?xml version="1.0" encoding="UTF-8"?>
<svg width="100px" height="61px" viewBox="0 0 100 61" version="1.1" xmlns="http://www.w3.org/2000/svg" xmlns:xlink="http://www.w3.org/1999/xlink">
    <!-- Generator: Sketch 52.4 (67378) - http://www.bohemiancoding.com/sketch -->
    <title>path3041</title>
    <desc>Created with Sketch.</desc>
    <g id="Page-1" stroke="none" stroke-width="1" fill="none" fill-rule="evenodd">
        <g id="Retweet_font_awesome" transform="translate(0.362694, -0.419689)" fill="#8BA266" fill-rule="nonzero">
            <g id="g3039" transform="translate(50.030737, 30.697021) scale(-1, 1) rotate(-180.000000) translate(-50.030737, -30.697021) translate(0.030737, 0.697021)">
                <path d="M66.3212435,1.65803109 C66.3212435,1.208981 66.1571675,0.820379965 65.8290155,0.492227979 C65.5008636,0.164075993 65.1122625,0 64.6632124,0 L14.9222798,0 C14.6459413,0 14.4127807,0.0345423143 14.2227979,0.103626943 C14.0328152,0.172711572 13.8773748,0.293609672 13.7564767,0.466321244 C13.6355786,0.639032815 13.5405872,0.777202073 13.4715026,0.880829016 C13.402418,0.984455959 13.3506045,1.18307427 13.3160622,1.47668394 C13.2815199,1.77029361 13.2642487,1.96891192 13.2642487,2.07253886 L13.2642487,2.74611399 L13.2642487,3.31606218 L13.2642487,11.6062176 L13.2642487,33.1606218 L3.31606218,33.1606218 C2.417962,33.1606218 1.64075993,33.4887737 0.984455959,34.1450777 C0.328151986,34.8013817 0,35.5785838 0,36.4766839 C0,37.3056995 0.259067358,38.0138169 0.777202073,38.6010363 L17.357513,58.4974093 C18.0138169,59.2573402 18.8601036,59.6373057 19.8963731,59.6373057 C20.9326425,59.6373057 21.7789292,59.2573402 22.4352332,58.4974093 L39.015544,38.6010363 C39.5336788,38.0138169 39.7927461,37.3056995 39.7927461,36.4766839 C39.7927461,35.5785838 39.4645941,34.8013817 38.8082902,34.1450777 C38.1519862,33.4887737 37.3747841,33.1606218 36.4766839,33.1606218 L26.5284974,33.1606218 L26.5284974,13.2642487 L56.373057,13.2642487 C56.925734,13.2642487 57.357513,13.074266 57.6683938,12.6943005 L65.9585492,2.74611399 C66.2003454,2.36614853 66.3212435,2.00345423 66.3212435,1.65803109 Z M99.4818653,23.2124352 C99.4818653,22.3834197 99.2227979,21.6753022 98.7046632,21.0880829 L82.1243523,1.19170984 C81.433506,0.397236615 80.5872193,0 79.5854922,0 C78.5837651,0 77.7374784,0.397236615 77.0466321,1.19170984 L60.4663212,21.0880829 C59.9481865,21.6753022 59.6891192,22.3834197 59.6891192,23.2124352 C59.6891192,24.1105354 60.0172712,24.8877375 60.6735751,25.5440415 C61.3298791,26.2003454 62.1070812,26.5284974 63.0051813,26.5284974 L72.9533679,26.5284974 L72.9533679,46.4248705 L43.1088083,46.4248705 C42.5561313,46.4248705 42.1243523,46.6321244 41.8134715,47.0466321 L33.5233161,56.9948187 C33.2815199,57.3056995 33.1606218,57.6511226 33.1606218,58.0310881 C33.1606218,58.4801382 33.3246978,58.8687392 33.6528497,59.1968912 C33.9810017,59.5250432 34.3696028,59.6891192 34.8186528,59.6891192 L84.5595855,59.6891192 C84.835924,59.6891192 85.0690846,59.6545769 85.2590674,59.5854922 C85.4490501,59.5164076 85.6044905,59.3955095 85.7253886,59.2227979 C85.8462867,59.0500864 85.9412781,58.9119171 86.0103627,58.8082902 C86.0794473,58.7046632 86.1312608,58.5060449 86.1658031,58.2124352 C86.2003454,57.9188256 86.2176166,57.7202073 86.2176166,57.6165803 L86.2176166,56.9430052 L86.2176166,56.373057 L86.2176166,48.0829016 L86.2176166,26.5284974 L96.1658031,26.5284974 C97.0639033,26.5284974 97.8411054,26.2003454 98.4974093,25.5440415 C99.1537133,24.8877375 99.4818653,24.1105354 99.4818653,23.2124352 Z" id="path3041"></path>
            </g>
        </g>
    </g>
</svg>