<?xml version="1.0" encoding="UTF-8"?>
<svg width="19px" height="19px" viewBox="0 0 19 19" version="1.1" xmlns="http://www.w3.org/2000/svg" xmlns:xlink="http://www.w3.org/1999/xlink">
    <!-- Generator: Sketch 52.4 (67378) - http://www.bohemiancoding.com/sketch -->
    <title>Icon / Social / Slack</title>
    <desc>Created with Sketch.</desc>
    <defs>
        <path d="M17.6165647,9.94010901 C17.501895,9.58567568 17.2500396,9.29193833 16.9172608,9.12451547 C16.5844821,8.95709262 16.1985089,8.92993485 15.8455647,9.04910901 L14.3605647,9.55510901 L13.3545647,6.52410901 L14.8005647,6.03010901 C15.5389487,5.77419827 15.9317812,4.96976299 15.6795647,4.23010901 C15.5648702,3.87565507 15.3130673,3.58185889 14.9803396,3.41427387 C14.647612,3.24668886 14.2616475,3.21926059 13.9085647,3.33810901 L12.4625647,3.83210901 L11.9755647,2.36510901 C11.8611021,2.01049216 11.6093324,1.71651866 11.27653,1.54889599 C10.9437276,1.38127331 10.5576404,1.3539773 10.2045647,1.47310901 L10.2045647,1.47310901 C9.46735557,1.73034423 9.07511507,2.5335671 9.32556469,3.27310901 L9.81256469,4.74110901 L6.76056469,5.78210901 L6.27956469,4.33310901 C6.16488361,3.97841915 5.91292149,3.68443649 5.57995904,3.51682786 C5.2469966,3.34921922 4.86077508,3.32194917 4.50756469,3.44110901 C3.77035557,3.69834423 3.37811507,4.5015671 3.62856469,5.24110901 L4.10956469,6.69110901 L2.65456469,7.19110901 C1.91735557,7.44834423 1.52511507,8.2515671 1.77556469,8.99110901 L1.77556469,8.99110901 C1.89000213,9.34570556 2.14182437,9.63962059 2.47467809,9.80708116 C2.80753181,9.97454172 3.19362781,10.0015669 3.54656469,9.88210901 L5.00156469,9.38210901 L6.00756469,12.406109 L4.59156469,12.889109 C3.85435557,13.1463442 3.46211507,13.9495671 3.71256469,14.689109 C3.8272592,15.043563 4.07906209,15.3373591 4.41178974,15.5049441 C4.74451739,15.6725292 5.13048187,15.6999574 5.48356469,15.581109 L6.89956469,15.097109 L7.41656469,16.654109 C7.53123437,17.0085423 7.7830898,17.3022797 8.11586857,17.4697025 C8.44864734,17.6371254 8.83462045,17.6642832 9.18756469,17.545109 C9.92477381,17.2878738 10.3170143,16.4846509 10.0665647,15.745109 L9.55056469,14.190109 L12.6025647,13.148109 L13.1135647,14.686109 C13.2282592,15.040563 13.4800621,15.3343591 13.8127897,15.5019441 C14.1455174,15.6695292 14.5314819,15.6969574 14.8845647,15.578109 C15.6221646,15.321314 16.0146018,14.5176884 15.7635647,13.778109 L15.2535647,12.240109 L16.7375647,11.733109 C17.4715074,11.4762934 17.8630691,10.6775789 17.6165647,9.94010901 Z M8.65856469,11.506109 L7.65256469,8.47510901 L10.7045647,7.43310901 L11.7105647,10.464109 L8.65856469,11.506109 Z" id="path-1"></path>
    </defs>
    <g id="Icon-/-Social-/-Slack" stroke="none" stroke-width="1" fill="none" fill-rule="evenodd">
        <mask id="mask-2" fill="white">
            <use xlink:href="#path-1"></use>
        </mask>
        <use id="Slack" fill="#333333" xlink:href="#path-1"></use>
        <g id="Base-/-Fill-/-Black" mask="url(#mask-2)" fill="#333333">
            <rect id="Fill" x="0" y="0" width="25" height="23"></rect>
        </g>
    </g>
</svg>