<?xml version="1.0" encoding="UTF-8"?>
<svg width="61px" height="63px" viewBox="0 0 61 63" version="1.1" xmlns="http://www.w3.org/2000/svg" xmlns:xlink="http://www.w3.org/1999/xlink">
    <!-- Generator: Sketch 52.6 (67491) - http://www.bohemiancoding.com/sketch -->
    <title>Group 67</title>
    <desc>Created with Sketch.</desc>
    <g id="Website-Second-Iteration" stroke="none" stroke-width="1" fill="none" fill-rule="evenodd">
        <g id="Marketing" transform="translate(-121.000000, -437.000000)" fill-rule="nonzero">
            <g id="Hero" transform="translate(1.000000, 0.000000)">
                <g id="heading" transform="translate(120.000000, 315.000000)">
                    <g id="Group-42">
                        <g id="Group-40">
                            <g id="Group-67" transform="translate(0.000000, 121.495869)">
                                <g id="Group-44" transform="translate(0.210367, 0.565472)">
                                    <path d="M45.489117,55.0268635 L45.489117,62.6162866 L36.9811774,55.0268635 L3.80021302,55.0268635 C2.79364,55.0306351 1.82700082,54.6332491 1.11391208,53.9225237 C0.400823333,53.2117982 -7.05988337e-06,52.2462465 -3.06292903e-12,51.2392449 L-3.06292903e-12,3.80180444 C-3.06292903e-12,1.70212583 1.70141332,4.0318575e-14 3.80021302,4.0318575e-14 L56.903936,4.0318575e-14 C58.9971959,0.00781399679 60.6899837,1.70765329 60.6899691,3.80180444 L60.6899691,51.2392449 C60.6899691,52.2437838 60.2910846,53.2071794 59.5810657,53.9174957 C58.8710467,54.627812 57.9080544,55.0268635 56.903936,55.0268635 L51.2319762,55.0268635" id="Path" fill="#5890FF"></path>
                                    <path d="M13.244026,43.6781936 L13.244026,41.7772913 C13.244026,35.509594 18.3228717,30.4286214 24.5879454,30.4286214 L35.9318649,30.4286214 C42.1969386,30.4286214 47.2757843,35.509594 47.2757843,41.7772913 L47.2757843,43.6781936 L13.244026,43.6781936 Z" id="Path" fill="#FFFFFF"></path>
                                    <path d="M22.7303786,17.0797483 C22.7303786,21.2712709 26.1268567,24.6691714 30.3166247,24.6691714 C34.5063928,24.6691714 37.9028709,21.2712709 37.9028709,17.0797483 C37.9028709,12.8882257 34.5063928,9.49032526 30.3166247,9.49032526 C26.1268567,9.49032526 22.7303786,12.8882257 22.7303786,17.0797483 Z" id="Path" fill="#FFFFFF"></path>
                                </g>
                            </g>
                        </g>
                    </g>
                </g>
            </g>
        </g>
    </g>
</svg>