<?xml version="1.0" encoding="UTF-8"?>
<svg width="580px" height="525px" viewBox="0 0 580 525" version="1.1" xmlns="http://www.w3.org/2000/svg" xmlns:xlink="http://www.w3.org/1999/xlink">
    <!-- Generator: Sketch 52.6 (67491) - http://www.bohemiancoding.com/sketch -->
    <title>Group 24</title>
    <desc>Created with Sketch.</desc>
    <defs>
        <rect id="path-1" x="0" y="0" width="270" height="187" rx="10"></rect>
        <filter x="-37.0%" y="-42.8%" width="174.1%" height="207.0%" filterUnits="objectBoundingBox" id="filter-3">
            <feOffset dx="0" dy="20" in="SourceAlpha" result="shadowOffsetOuter1"></feOffset>
            <feGaussianBlur stdDeviation="30" in="shadowOffsetOuter1" result="shadowBlurOuter1"></feGaussianBlur>
            <feColorMatrix values="0 0 0 0 0   0 0 0 0 0   0 0 0 0 0  0 0 0 0.0794908217 0" type="matrix" in="shadowBlurOuter1"></feColorMatrix>
        </filter>
        <ellipse id="path-4" cx="17.6813489" cy="16.8971661" rx="17.5537054" ry="16.8146803"></ellipse>
        <rect id="path-6" x="0" y="0" width="270" height="187" rx="10"></rect>
        <filter x="-37.0%" y="-42.8%" width="174.1%" height="207.0%" filterUnits="objectBoundingBox" id="filter-8">
            <feOffset dx="0" dy="20" in="SourceAlpha" result="shadowOffsetOuter1"></feOffset>
            <feGaussianBlur stdDeviation="30" in="shadowOffsetOuter1" result="shadowBlurOuter1"></feGaussianBlur>
            <feColorMatrix values="0 0 0 0 0   0 0 0 0 0   0 0 0 0 0  0 0 0 0.0794908217 0" type="matrix" in="shadowBlurOuter1"></feColorMatrix>
        </filter>
    </defs>
    <g id="Website-Second-Iteration" stroke="none" stroke-width="1" fill="none" fill-rule="evenodd">
        <g id="Customer-Service" transform="translate(-756.000000, -2072.000000)">
            <g id="Group-11" transform="translate(150.000000, 2082.000000)">
                <g id="Group-24" transform="translate(606.000000, 0.000000)">
                    <path d="M552,355.5 C552,291.711111 500.288889,240 436.5,240 C372.711111,240 321,291.711111 321,355.5" id="Path" stroke="#E5E5E5" stroke-width="1.5" stroke-dasharray="6" transform="translate(436.500000, 297.750000) rotate(90.000000) translate(-436.500000, -297.750000) "></path>
                    <g id="Group-38">
                        <path d="M266,175.5 C266,111.711111 214.288889,60 150.5,60 C86.7111114,60 35,111.711111 35,175.5" id="Path" stroke="#E5E5E5" stroke-width="1.5" stroke-dasharray="6" transform="translate(150.500000, 117.750000) rotate(180.000000) translate(-150.500000, -117.750000) "></path>
                        <g id="Group-29">
                            <circle id="Oval" fill="#FFF1D2" cx="36" cy="36" r="36"></circle>
                            <g id="star" transform="translate(19.000000, 20.000000)" fill="#FEC62E" fill-rule="nonzero">
                                <path d="M32.3945798,11.747307 C32.0173804,11.3240155 31.5019251,11.0487034 30.9403386,10.9705361 L30.9403386,10.9693622 L22.1691741,9.75783706 L18.6982073,1.46477681 C18.1913844,0.250903926 16.7963957,-0.3223004 15.5824792,0.184475476 C15.003766,0.426089973 14.5436269,0.886117345 14.3020591,1.46477681 L10.8310923,9.75783706 L2.05992781,10.9693622 C0.753127203,11.1512463 -0.158794902,12.3580758 0.0231061072,13.6647552 C0.101280725,14.2262897 0.376618357,14.7416971 0.799949103,15.1188615 L7.40839757,21.0113136 L6.05056247,30.2577119 C5.90346712,31.196618 6.33473964,32.1320714 7.14431653,32.6300086 C7.94249871,33.1403752 8.96919662,33.1213167 9.74783515,32.5816718 L16.5000641,27.9902368 L23.2522931,32.5863674 C24.3418346,33.325781 25.8245971,33.0420445 26.5641484,31.9526041 C26.9001887,31.4574981 27.037823,30.8541869 26.9496349,30.2624075 L25.5918688,21.0124185 L32.2003173,15.1199664 C33.1853727,14.2423098 33.2723869,12.732271 32.3945798,11.747307 Z M23.5481412,19.6807421 C23.2525003,19.9448677 23.1094794,20.3398477 23.1674198,20.7319965 L24.581745,30.6313547 L17.1659986,25.5897668 C16.7662169,25.3181145 16.2410244,25.3181145 15.8412427,25.5897668 L8.38185111,30.6006954 L9.83270847,20.7273009 C9.88906049,20.3367403 9.74610868,19.943901 9.45198704,19.6808112 L2.38036087,13.3074779 L11.8186338,12.0052179 C12.231882,11.9482496 12.5841511,11.6770806 12.7449892,11.2922514 L16.5141521,2.35693437 C16.5184338,2.36218236 16.5216105,2.36818992 16.5236132,2.3746118 L20.253896,11.2875558 C20.4147341,11.6723851 20.7670723,11.943554 21.1802514,12.0005223 L30.6303334,13.3605101 L23.5481412,19.6807421 Z" id="Shape"></path>
                            </g>
                        </g>
                    </g>
                    <g id="Group-10" transform="translate(128.000000, 29.000000)">
                        <g id="Group-30">
                            <g id="Rectangle">
                                <mask id="mask-2" fill="white">
                                    <use xlink:href="#path-1"></use>
                                </mask>
                                <g id="Mask">
                                    <use fill="black" fill-opacity="1" filter="url(#filter-3)" xlink:href="#path-1"></use>
                                    <use fill="#FFFFFF" fill-rule="evenodd" xlink:href="#path-1"></use>
                                </g>
                                <rect fill="#F6F6F6" mask="url(#mask-2)" x="0" y="0" width="270" height="34"></rect>
                            </g>
                            <g id="Group-7" transform="translate(15.000000, 13.000000)" fill="#4D5E6C">
                                <circle id="Oval" cx="4.5" cy="4.5" r="4.5"></circle>
                                <circle id="Oval" opacity="0.201758" cx="18.5" cy="4.5" r="4.5"></circle>
                                <circle id="Oval" opacity="0.201758" cx="32.5" cy="4.5" r="4.5"></circle>
                            </g>
                            <g id="Group-23" transform="translate(60.000000, 64.000000)">
                                <g id="brand">
                                    <g id="Element-/-Logo-/-Logo">
                                        <g id="logo">
                                            <g id="Group" fill="#4D5E6C" fill-rule="nonzero">
                                                <polygon id="Shape" points="13.801687 9.59157895 0 9.59157895 0 4.73362069 33.085551 4.73362069 33.085551 9.59173321 19.283864 9.59173321 19.283864 47.2106352 13.801687 47.2106352"></polygon>
                                                <polygon id="Shape" points="70.8783718 0.560598911 76.0378705 0 76.0378705 47.2106352 70.8783718 47.2106352"></polygon>
                                                <path d="M105.576356,44.7191016 C104.328613,45.5910073 102.856433,46.3600181 101.158538,47.0236661 C99.4593652,47.6871597 97.9015637,48.0200635 96.4827375,48.0200635 C94.7193483,48.0200635 93.0532419,47.7289655 91.4842585,47.1481579 C89.9143166,46.567196 88.5387804,45.6329673 87.3568512,44.3454719 C86.1738038,43.058902 85.2383561,41.3869782 84.5514666,39.3315517 C83.8631394,37.2764338 83.5193752,34.7538929 83.5193752,31.7640835 C83.5193752,28.9410345 84.0032329,26.4916152 84.9704692,24.4147459 C85.938025,22.3389564 87.1843301,20.6261525 88.7113015,19.2763339 C90.2369949,17.9275953 91.9361679,16.9203993 93.8062645,16.2556715 C95.6766806,15.5920236 97.4924651,15.2591198 99.2561737,15.2591198 C100.889533,15.2591198 102.222897,15.3524501 103.254669,15.5394192 C104.286441,15.7262341 105.189302,15.9238475 105.96341,16.1310254 C106.737519,16.3392831 107.467858,16.535971 108.156185,16.7226316 C108.843554,16.9094465 109.681879,17.002931 110.671479,17.002931 L110.671479,60.8499728 L105.576516,61.4727405 L105.576516,44.7191016 L105.576356,44.7191016 Z M97.0629195,43.6603811 C98.0082712,43.6603811 98.9758269,43.4950091 99.9654271,43.1621053 C100.953909,42.8304356 101.900059,42.4362886 102.803079,41.9788929 C103.70594,41.5224229 104.630206,40.9821869 105.576356,40.3594192 L105.576356,20.4911706 C105.189142,20.3666788 104.715508,20.2215154 104.15737,20.0552178 C103.683736,19.9725318 103.038858,19.8790472 102.222738,19.7749183 C101.405339,19.6718693 100.416857,19.619265 99.256014,19.619265 C97.4501335,19.619265 95.9020762,19.930726 94.6123214,20.5534936 C93.3225665,21.1764156 92.258367,22.0386025 91.4200423,23.1382033 C90.5813981,24.2388838 89.9689482,25.5049365 89.5817342,26.937441 C89.1948397,28.3699456 89.0013925,29.8959347 89.0013925,31.5152541 C89.0013925,32.9692015 89.1627316,34.422069 89.4849308,35.875245 C89.8076091,37.3290381 90.312393,38.6368966 91.0005604,39.7991289 C91.6879292,40.961824 92.5262539,41.8962069 93.515854,42.6018149 C94.5044957,43.3081942 95.6864249,43.6603811 97.0629195,43.6603811 Z" id="Shape"></path>
                                            </g>
                                            <g id="Clipped" transform="translate(29.195876, 13.275862)">
                                                <mask id="mask-5" fill="white">
                                                    <use xlink:href="#path-4"></use>
                                                </mask>
                                                <g id="SVGID_1_"></g>
                                                <g id="Group" mask="url(#mask-5)">
                                                    <g transform="translate(0.000000, -0.153605)">
                                                        <g id="Shape_12" transform="translate(28.703749, 0.000000)">
                                                            <polygon id="Rectangle-path" fill="#B6CA94" fill-rule="nonzero" points="0.0702359888 0.0826394984 6.62960384 0.0826394984 6.62960384 34.4700408 0.0702359888 34.4700408"></polygon>
                                                        </g>
                                                        <g id="Shape_11" transform="translate(24.374133, 0.000000)">
                                                            <polygon id="Rectangle-path" fill="#8CAB62" fill-rule="nonzero" points="0.0272605436 0.0826394984 4.43561115 0.0826394984 4.43561115 34.4605172 0.0272605436 34.4605172"></polygon>
                                                        </g>
                                                        <g id="Shape_10" transform="translate(19.884161, 0.000000)">
                                                            <polygon id="Rectangle-path" fill="#A1BC78" fill-rule="nonzero" points="0.146084442 0.0826394984 4.55523683 0.0826394984 4.55523683 34.4700408 0.146084442 34.4700408"></polygon>
                                                        </g>
                                                        <g id="Shape_9" transform="translate(17.318463, 0.000000)">
                                                            <polygon id="Rectangle-path" fill="#D9E5C5" fill-rule="nonzero" points="0.0134699157 0.0826394984 2.74625923 0.0826394984 2.74625923 34.4700408 0.0134699157 34.4700408"></polygon>
                                                        </g>
                                                        <g id="Shape_8" transform="translate(9.942081, 0.000000)">
                                                            <polygon id="Rectangle-path" fill="#B6CEB8" fill-rule="nonzero" points="0.0295055295 0.0826394984 7.4629747 0.0826394984 7.4629747 34.4700408 0.0295055295 34.4700408"></polygon>
                                                        </g>
                                                        <g id="Shape_7" transform="translate(5.612465, 0.000000)">
                                                            <polygon id="Rectangle-path" fill="#B9CFE4" fill-rule="nonzero" points="0.110164667 0.0826394984 4.51947741 0.0826394984 4.51947741 34.4700408 0.110164667 34.4700408"></polygon>
                                                        </g>
                                                        <g id="Shape_6" transform="translate(3.046767, 0.000000)">
                                                            <polygon id="Rectangle-path" fill="#5183BB" fill-rule="nonzero" points="0.0745656045 0.0826394984 2.6984731 0.0826394984 2.6984731 34.4605172 0.0745656045 34.4605172"></polygon>
                                                        </g>
                                                        <g id="Shape_5">
                                                            <polygon id="Rectangle-path" fill="#2C66AB" fill-rule="nonzero" points="0.0744052484 0.0826394984 3.13512287 0.0826394984 3.13512287 34.4605172 0.0744052484 34.4605172"></polygon>
                                                        </g>
                                                    </g>
                                                </g>
                                            </g>
                                        </g>
                                    </g>
                                </g>
                                <text id="API" font-family="Helvetica" font-size="28" font-weight="normal" fill="#53A9E6">
                                    <tspan x="37" y="94">API</tspan>
                                </text>
                            </g>
                        </g>
                        <g id="Group-37" transform="translate(123.000000, 220.000000)">
                            <g id="Group-31">
                                <g id="Rectangle">
                                    <mask id="mask-7" fill="white">
                                        <use xlink:href="#path-6"></use>
                                    </mask>
                                    <g id="Mask">
                                        <use fill="black" fill-opacity="1" filter="url(#filter-8)" xlink:href="#path-6"></use>
                                        <use fill="#FFFFFF" fill-rule="evenodd" xlink:href="#path-6"></use>
                                    </g>
                                    <rect fill="#F6F6F6" mask="url(#mask-7)" x="0" y="0" width="270" height="34"></rect>
                                </g>
                                <g id="Group-15" transform="translate(53.000000, 79.000000)">
                                    <text id="custom-service" font-family="Helvetica" font-size="18" font-weight="normal" fill="#191E2F">
                                        <tspan x="0" y="66">custom service</tspan>
                                    </text>
                                    <g id="tick" transform="translate(48.000000, 0.000000)" fill="#53A9E6" fill-rule="nonzero">
                                        <path d="M17.7777778,0 C7.9593861,0 0,7.94407959 0,17.7435897 C0,27.5430999 7.9593861,35.4871795 17.7777778,35.4871795 C27.5961695,35.4871795 35.5555556,27.5430999 35.5555556,17.7435897 C35.5451389,7.94846104 27.591854,0.0104709109 17.7777778,0 Z M27.564473,12.302652 L14.8660178,24.9766871 C14.3701093,25.4714933 13.5663136,25.4714933 13.0704795,24.9766871 L7.99108258,19.9070582 C7.48661759,19.420792 7.47262947,18.6184678 7.95983253,18.1149729 C8.44703559,17.611478 9.25090576,17.5975168 9.75537075,18.083783 C9.76593624,18.0940311 9.77635292,18.1043535 9.7866208,18.1149729 L13.9682487,22.2885592 L25.7689348,10.5105667 C26.2733997,10.0243006 27.0772699,10.0382618 27.564473,10.5416824 C28.0397713,11.0328498 28.0397713,11.8114845 27.564473,12.302652 Z" id="Shape"></path>
                                    </g>
                                </g>
                            </g>
                            <g id="Group-7" transform="translate(15.000000, 14.000000)" fill="#4D5E6C">
                                <circle id="Oval" cx="4.5" cy="4.5" r="4.5"></circle>
                                <circle id="Oval" opacity="0.201758" cx="18.5" cy="4.5" r="4.5"></circle>
                                <circle id="Oval" opacity="0.201758" cx="32.5" cy="4.5" r="4.5"></circle>
                            </g>
                        </g>
                    </g>
                </g>
            </g>
        </g>
    </g>
</svg>