<?xml version="1.0" encoding="UTF-8"?>
<svg width="20px" height="20px" viewBox="0 0 20 20" version="1.1" xmlns="http://www.w3.org/2000/svg" xmlns:xlink="http://www.w3.org/1999/xlink">
    <!-- Generator: Sketch 52.6 (67491) - http://www.bohemiancoding.com/sketch -->
    <title>tick</title>
    <desc>Created with Sketch.</desc>
    <g id="Website" stroke="none" stroke-width="1" fill="none" fill-rule="evenodd">
        <g id="Features" transform="translate(-745.000000, -4514.000000)" fill="#53A9E6" fill-rule="nonzero">
            <g id="Translation-Management-Section" transform="translate(150.000000, 3379.000000)">
                <g id="feature" transform="translate(0.000000, 866.000000)">
                    <g id="content" transform="translate(595.000000, 0.000000)">
                        <g id="Group-14" transform="translate(0.000000, 269.000000)">
                            <g id="Group-13">
                                <g id="tick">
                                    <path d="M18.7784023,3.21979078 C18.482199,2.92719596 18.001596,2.92669182 17.7053927,3.21854982 L8.60170107,12.1721452 L5.31711566,8.65429845 C5.03329999,8.35049622 4.55344425,8.33079599 4.2448532,8.61063221 C3.9364981,8.8905072 3.91675646,9.36393299 4.20057213,9.66800668 L8.02014832,13.758556 C8.16003087,13.9084793 8.35579565,13.9955403 8.56221777,13.9997673 C8.56776274,14 8.57311107,14 8.57842008,14 C8.77902196,14 8.9719946,13.9214318 9.11415806,13.7817464 L18.7769079,4.27813475 C19.0738585,3.98631552 19.0743697,3.5123856 18.7784023,3.21979078 Z" id="Path"></path>
                                    <path d="M19.2462109,9.24621094 C18.8298828,9.24621094 18.4924609,9.58363281 18.4924609,10 C18.4924609,14.6829297 14.6829297,18.4924609 10,18.4924609 C5.31734375,18.4924609 1.50753906,14.6829297 1.50753906,10 C1.50753906,5.31734375 5.31734375,1.50753906 10,1.50753906 C10.4163281,1.50753906 10.7537891,1.17011719 10.7537891,0.753789062 C10.7537891,0.337421875 10.4163281,0 10,0 C4.4859375,0 0,4.4859375 0,10 C0,15.5138281 4.4859375,20 10,20 C15.5138281,20 20,15.5138281 20,10 C20,9.58367188 19.6625781,9.24621094 19.2462109,9.24621094 Z" id="Path"></path>
                                </g>
                            </g>
                        </g>
                    </g>
                </g>
            </g>
        </g>
    </g>
</svg>