<?xml version="1.0" encoding="UTF-8"?>
<svg width="63px" height="63px" viewBox="0 0 63 63" version="1.1" xmlns="http://www.w3.org/2000/svg" xmlns:xlink="http://www.w3.org/1999/xlink">
    <!-- Generator: Sketch 52.6 (67491) - http://www.bohemiancoding.com/sketch -->
    <title>icon</title>
    <desc>Created with Sketch.</desc>
    <defs>
        <linearGradient x1="139.22371%" y1="90.8823165%" x2="-135.568576%" y2="-43.8492063%" id="linearGradient-1">
            <stop stop-color="#FFFFFF" stop-opacity="0.219241696" offset="0%"></stop>
            <stop stop-color="#0099FF" offset="100%"></stop>
        </linearGradient>
    </defs>
    <g id="Website" stroke="none" stroke-width="1" fill="none" fill-rule="evenodd">
        <g id="Solutions-Catalog" transform="translate(-543.000000, -1934.000000)">
            <g id="Solutions-Section" transform="translate(150.000000, 1420.000000)">
                <g id="features" transform="translate(0.000000, 162.000000)">
                    <g id="integrations" transform="translate(393.000000, 352.000000)">
                        <g id="icon">
                            <rect id="Rectangle" fill="url(#linearGradient-1)" x="0" y="0" width="63" height="63" rx="9"></rect>
                            <g id="finger" transform="translate(21.000000, 15.000000)" fill="#029AFF" fill-rule="nonzero">
                                <path d="M1.98984,13.12656 C2.14188,13.12656 2.29584,13.08804 2.4372,13.00692 C2.86824,12.75948 3.01704,12.2094 2.76972,11.77836 C2.19396,10.77564 1.88976,9.63024 1.88976,8.466 C1.88976,4.7904 4.88016,1.8 8.55588,1.8 C12.2316,1.8 15.222,4.79028 15.222,8.466 C15.222,9.61056 14.92728,10.73916 14.36976,11.73 C14.12604,12.1632 14.27952,12.71196 14.71272,12.95568 C15.1458,13.19928 15.69456,13.04592 15.9384,12.61272 C16.64724,11.35308 17.02188,9.9192 17.02188,8.466 C17.02188,3.79788 13.224,1.70530257e-15 8.55576,1.70530257e-15 C3.88752,3.94430453e-31 0.08964,3.79776 0.08964,8.466 C0.08964,9.94416 0.47652,11.3994 1.2084,12.67452 C1.37484,12.96432 1.67796,13.12656 1.98984,13.12656 Z" id="Path"></path>
                                <path d="M17.29932,17.17164 C15.87264,16.64484 14.0136,16.30416 12.20148,16.22772 L12.20148,10.83588 C12.20148,9.03288 10.7346,7.566 8.93172,7.566 C7.12884,7.566 5.66196,9.03288 5.66196,10.83588 L5.66196,15.64536 C5.10708,15.22824 4.42272,14.9928 3.69612,14.9928 C3.18924,14.9928 2.6808,15.114 2.22576,15.34344 C0.64668,16.13964 -0.00828,18.0504 0.73344,19.64256 C0.97908,20.58216 2.95692,28.10244 4.09932,31.12752 C4.67424,32.64756 5.86188,32.96652 6.75684,32.96652 L17.64492,32.96652 C18.97464,32.96652 19.34484,31.48236 19.4664,30.99504 C20.18112,28.13496 20.84472,21.43332 20.87268,21.1494 L20.877,21.06144 C20.87688,19.88952 20.25624,18.2634 17.29932,17.17164 Z M17.7198,30.55896 C17.63148,30.91344 17.559,31.08504 17.514,31.16652 L6.7566,31.16652 C6.15276,31.16652 5.94852,30.92904 5.78292,30.49116 C4.62324,27.42024 2.4744,19.18608 2.4528,19.10316 L2.42868,19.01052 L2.3856,18.92496 C2.02068,18.20124 2.31264,17.31552 3.03612,16.95072 C3.24396,16.84584 3.46608,16.7928 3.69612,16.7928 C4.24356,16.7928 4.7376,17.08968 4.99404,17.56992 C5.45712,18.73524 5.73864,19.34304 6.43776,19.34304 C6.438,19.34304 6.43836,19.34304 6.4386,19.34304 L6.55788,19.34244 L6.669,19.31352 C7.25532,19.16112 7.52376,18.65976 7.46676,17.82324 C7.4646,17.79204 7.46232,17.76348 7.46184,17.74236 L7.46184,10.83588 C7.46184,10.0254 8.12112,9.366 8.9316,9.366 C9.74208,9.366 10.40136,10.0254 10.40136,10.83588 L10.40136,16.87032 C10.40136,17.61156 10.935,18.01152 11.43708,18.01152 C14.61912,18.01152 19.01892,19.05744 19.07616,21.02244 C19.014,21.6438 18.37224,27.94872 17.7198,30.55896 Z" id="Shape"></path>
                            </g>
                        </g>
                    </g>
                </g>
            </g>
        </g>
    </g>
</svg>