<?xml version="1.0" encoding="UTF-8"?>
<svg width="15px" height="12px" viewBox="0 0 15 12" version="1.1" xmlns="http://www.w3.org/2000/svg" xmlns:xlink="http://www.w3.org/1999/xlink">
    <!-- Generator: Sketch 52.6 (67491) - http://www.bohemiancoding.com/sketch -->
    <title>twitter(1)</title>
    <desc>Created with Sketch.</desc>
    <g id="Symbols" stroke="none" stroke-width="1" fill="none" fill-rule="evenodd" opacity="0.753836496">
        <g id="Tolq-Footer" transform="translate(-1252.000000, -122.000000)" fill="#4D5E6C" fill-rule="nonzero">
            <g id="Footer">
                <g id="navigation" transform="translate(150.000000, 79.000000)">
                    <g id="social" transform="translate(1050.000000, 0.000000)">
                        <g id="Group-6" transform="translate(24.000000, 40.000000)">
                            <g id="twitter(1)" transform="translate(28.000000, 3.000000)">
                                <path d="M14.6600429,1.38488452 C14.4243985,1.48700976 14.1821251,1.57320158 13.9345775,1.64317628 C14.2276572,1.31930687 14.4511081,0.938228411 14.5875109,0.521216993 C14.6180914,0.427744025 14.586398,0.325429659 14.5077692,0.264296352 C14.4292372,0.203115766 14.3201246,0.195787334 14.2336572,0.245857072 C13.7079331,0.55053072 13.1407414,0.769485355 12.5460175,0.897520153 C11.9469389,0.325524219 11.1332641,0 10.2921056,0 C8.51654687,0 7.07200322,1.41145599 7.07200322,3.14635588 C7.07200322,3.28299567 7.08085803,3.41887899 7.0983741,3.55287109 C4.89507487,3.36384483 2.84671061,2.30566653 1.44010232,0.619701662 C1.38997345,0.55960852 1.3127479,0.527221579 1.23368364,0.533415286 C1.154571,0.539467152 1.08349058,0.583059502 1.04352297,0.650055554 C0.758233584,1.1283894 0.607411498,1.67546867 0.607411498,2.23209853 C0.607411498,2.99023664 0.884426719,3.70955769 1.37376383,4.27162478 C1.22497399,4.22127136 1.08058737,4.15834141 0.942781367,4.0835914 C0.868797738,4.04335595 0.778507711,4.04397059 0.705007952,4.08515165 C0.631459806,4.12633271 0.585347054,4.2020756 0.583411577,4.28486324 C0.583072868,4.2988109 0.583072868,4.31275856 0.583072868,4.32689535 C0.583072868,5.45854708 1.20639341,6.47738824 2.15937415,7.03269426 C2.07750346,7.02470391 1.99568114,7.01312026 1.91439109,6.99794331 C1.83058491,6.98229356 1.74440777,7.01099265 1.68789183,7.0734498 C1.63127911,7.13585967 1.61255337,7.22285525 1.63863393,7.302286 C1.99137471,8.37838349 2.89954915,9.16990142 3.99744878,9.41121959 C3.08685499,9.96851138 2.04551969,10.2604194 0.952361981,10.2604194 C0.724265954,10.2604194 0.49486348,10.2473228 0.270348086,10.2213659 C0.158816194,10.2084111 0.0521713817,10.2727595 0.0141876352,10.3763977 C-0.0237961113,10.4800832 0.0164618213,10.5956833 0.111348607,10.6551145 C1.51568272,11.5349519 3.13949998,12 4.8071558,12 C8.08556441,12 10.1364448,10.4893974 11.2795862,9.22214605 C12.7050654,7.64199428 13.5226111,5.5504598 13.5226111,3.48388927 C13.5226111,3.39755561 13.5212563,3.31037091 13.5185466,3.22346989 C14.080948,2.80943713 14.5651561,2.3083615 14.9591709,1.73244131 C15.0190256,1.64497293 15.0125417,1.52937283 14.9432032,1.44885464 C14.8739615,1.36828917 14.7585587,1.34223777 14.6600429,1.38488452 Z" id="XMLID_827_"></path>
                            </g>
                        </g>
                    </g>
                </g>
            </g>
        </g>
    </g>
</svg>