<svg height="12" viewBox="0 0 15 12" width="15" xmlns="http://www.w3.org/2000/svg"><path d="m14.6600429 1.38488452c-.2356444.10212524-.4779178.18831706-.7254654.25829176.2930797-.32386941.5165306-.70494787.6529334-1.12195929.0305805-.09347296-.0011129-.19578733-.0797417-.25692064-.078532-.06118058-.1876446-.06850902-.274112-.01843928-.5257241.30467365-1.0929158.52362829-1.6876397.65166308-.5990786-.57199593-1.4127534-.89752015-2.2539119-.89752015-1.77555873 0-3.22010238 1.41145599-3.22010238 3.14635588 0 .13663979.00885481.27252311.02637088.40651521-2.20329923-.18902626-4.25166349-1.24720456-5.65827178-2.93316943-.05012887-.06009314-.12735442-.09248008-.20641868-.08628637-.07911264.00605186-.15019306.04964421-.19016067.11664026-.28528939.47833385-.43611147 1.02541312-.43611147 1.58204298 0 .75813811.27701522 1.47745916.76635233 2.03952625-.14878984-.05035342-.29317646-.11328337-.43098246-.18803338-.07398363-.04023545-.16427366-.03962081-.23777342.00156025-.07354814.04118106-.1196609.11692395-.12159637.19971159-.00033871.01394766-.00033871.02789532-.00033871.04203211 0 1.13165173.62332054 2.15049289 1.57630128 2.70579891-.08187069-.00799035-.16369301-.019574-.24498306-.03475095-.08380618-.01564975-.16998332.01304934-.22649926.07550649-.05661272.06240987-.07533846.14940545-.0492579.2288362.35274078 1.07609749 1.26091522 1.86761542 2.35881485 2.10893359-.91059379.55729179-1.95192909.84919981-3.0450868.84919981-.22809603 0-.4574985-.0130966-.68201389-.0390535-.1115319-.0129548-.21817671.0513936-.25616045.1550318-.03798375.1036855.00227418.2192856.09716097.2787168 1.40433411.8798374 3.02815137 1.3448855 4.69580719 1.3448855 3.27840861 0 5.329289-1.5106026 6.4724304-2.77785395 1.4254792-1.58015177 2.2430249-3.67168625 2.2430249-5.73825678 0-.08633366-.0013548-.17351836-.0040645-.26041938.5624014-.41403276 1.0466095-.91510839 1.4406243-1.49102858.0598547-.08746838.0533708-.20306848-.0159677-.28358667-.0692417-.08056547-.1846445-.10661687-.2831603-.06397012z" fill="#4d5e6c" opacity=".753836"/></svg>