<?xml version="1.0" encoding="UTF-8"?>
<svg width="19px" height="19px" viewBox="0 0 19 19" version="1.1" xmlns="http://www.w3.org/2000/svg" xmlns:xlink="http://www.w3.org/1999/xlink">
    <!-- Generator: Sketch 52.4 (67378) - http://www.bohemiancoding.com/sketch -->
    <title>Icon / Social / Twitter</title>
    <desc>Created with Sketch.</desc>
    <defs>
        <path d="M17.752,4.589 C17.1643503,4.86179689 16.5378745,5.04160928 15.895,5.122 C16.5784078,4.68808796 17.0830868,4.02299065 17.317,3.248 C16.686687,3.64130135 15.991575,3.919617 15.264,4.07 C14.6669257,3.39288524 13.8087569,3.00347026 12.906,3 C11.0784401,3.04421466 9.63208065,4.56038602 9.674,6.388 C9.6733514,6.64731825 9.70152432,6.9059054 9.758,7.159 C7.12799548,7.00636207 4.69530522,5.71442899 3.096,3.621 C2.80805037,4.14124976 2.65763748,4.72638 2.659,5.321 C2.6503161,6.43885541 3.18692895,7.49081065 4.097,8.14 C3.58127859,8.12210704 3.07813452,7.97604405 2.633,7.715 L2.633,7.758 C2.60642905,9.33771243 3.68624229,10.7216397 5.225,11.08 C4.7499745,11.2158123 4.2493021,11.2357021 3.765,11.138 C4.15630831,12.4927187 5.37471821,13.4419403 6.784,13.49 C5.65571608,14.4254039 4.23660625,14.9381647 2.771,14.94 C2.51324717,14.9402015 2.25573749,14.9241698 2,14.892 C3.46214205,15.8829767 5.18767799,16.4131071 6.954,16.414 C12.898,16.414 16.148,11.253 16.148,6.778 C16.148,6.63 16.148,6.485 16.139,6.34 C16.7758903,5.85621009 17.3220016,5.26337631 17.752,4.589 L17.752,4.589 Z" id="path-1"></path>
    </defs>
    <g id="Icon-/-Social-/-Twitter" stroke="none" stroke-width="1" fill="none" fill-rule="evenodd">
        <mask id="mask-2" fill="white">
            <use xlink:href="#path-1"></use>
        </mask>
        <use id="Twitter" fill="#333333" xlink:href="#path-1"></use>
        <g id="Base-/-Fill-/-Black" mask="url(#mask-2)" fill="#333333">
            <g transform="translate(-4.000000, -5.000000)" id="Fill">
                <rect x="0" y="0" width="25" height="23"></rect>
            </g>
        </g>
    </g>
</svg>