<svg width="26" height="21" viewBox="0 0 26 21" fill="none" xmlns="http://www.w3.org/2000/svg">
<g opacity="0.753837">
<path d="M25.2448 2.6146C24.8513 2.78515 24.4467 2.9291 24.0333 3.04596C24.5227 2.50508 24.8959 1.86865 25.1237 1.17222C25.1748 1.01612 25.1219 0.845244 24.9905 0.743148C24.8594 0.640973 24.6772 0.628734 24.5328 0.712353C23.6548 1.22118 22.7075 1.58684 21.7143 1.80067C20.7138 0.845402 19.3549 0.301758 17.9501 0.301758C14.9848 0.301758 12.5724 2.65897 12.5724 5.55636C12.5724 5.78455 12.5872 6.01148 12.6164 6.23526C8.93678 5.91957 5.51589 4.15236 3.16677 1.3367C3.08306 1.23634 2.95408 1.18225 2.82204 1.19259C2.68992 1.2027 2.57121 1.2755 2.50446 1.38739C2.02801 2.18623 1.77613 3.09989 1.77613 4.02949C1.77613 5.29563 2.23876 6.49693 3.05598 7.43562C2.8075 7.35153 2.56636 7.24643 2.33622 7.12159C2.21266 7.0544 2.06187 7.05542 1.93912 7.1242C1.81629 7.19297 1.73928 7.31947 1.73605 7.45773C1.73548 7.48102 1.73548 7.50432 1.73548 7.52793C1.73548 9.41785 2.77647 11.1194 4.368 12.0468C4.23127 12.0334 4.09462 12.0141 3.95886 11.9887C3.8189 11.9626 3.67498 12.0105 3.5806 12.1148C3.48605 12.2191 3.45478 12.3643 3.49833 12.497C4.08743 14.2941 5.60413 15.616 7.43769 16.019C5.91695 16.9498 4.17786 17.4373 2.35222 17.4373C1.97128 17.4373 1.58817 17.4154 1.21322 17.372C1.02695 17.3504 0.848848 17.4579 0.785413 17.6309C0.721978 17.8041 0.789211 17.9972 0.947677 18.0964C3.293 19.5658 6.00487 20.3425 8.78995 20.3425C14.2651 20.3425 17.6902 17.8197 19.5993 15.7033C21.9799 13.0643 23.3453 9.57135 23.3453 6.12006C23.3453 5.97587 23.343 5.83027 23.3385 5.68514C24.2777 4.99368 25.0864 4.15686 25.7444 3.19504C25.8444 3.04896 25.8335 2.8559 25.7177 2.72143C25.6021 2.58688 25.4094 2.54337 25.2448 2.6146Z" fill="#5183BB"/>
</g>
</svg>
