<?xml version="1.0" encoding="UTF-8"?>
<svg width="63px" height="63px" viewBox="0 0 63 63" version="1.1" xmlns="http://www.w3.org/2000/svg" xmlns:xlink="http://www.w3.org/1999/xlink">
    <!-- Generator: Sketch 52.6 (67491) - http://www.bohemiancoding.com/sketch -->
    <title>icon</title>
    <desc>Created with Sketch.</desc>
    <defs>
        <linearGradient x1="139.22371%" y1="90.8823165%" x2="-135.568576%" y2="-43.8492063%" id="linearGradient-1">
            <stop stop-color="#FFFFFF" stop-opacity="0.219241696" offset="0%"></stop>
            <stop stop-color="#0099FF" offset="100%"></stop>
        </linearGradient>
    </defs>
    <g id="Website" stroke="none" stroke-width="1" fill="none" fill-rule="evenodd">
        <g id="Solutions-Marketing" transform="translate(-150.000000, -2013.000000)">
            <g id="Solutions" transform="translate(150.000000, 1474.000000)">
                <g id="features" transform="translate(0.000000, 162.000000)">
                    <g id="video" transform="translate(0.000000, 377.000000)">
                        <g id="icon">
                            <rect id="Rectangle" fill="url(#linearGradient-1)" x="0" y="0" width="63" height="63" rx="9"></rect>
                            <g id="arrow(1)" transform="translate(14.000000, 14.000000)" fill="#029AFF" fill-rule="nonzero">
                                <path d="M25.4507234,16.3295324 L15.371809,9.6939192 C15.1238409,9.53076115 14.8513471,9.44444444 14.5836294,9.44444444 C13.8709632,9.44444444 13.3333333,10.0280233 13.3333333,10.8018883 L13.3333333,24.1981117 C13.3333333,24.9719767 13.8708341,25.5555556 14.5835003,25.5555556 C14.8513471,25.5555556 15.12397,25.4692388 15.3716799,25.305951 L25.4507234,18.6694292 C25.8703716,18.3930859 26.1112401,17.9665645 26.111111,17.4994159 C26.1112401,17.0322673 25.8705007,16.6060055 25.4507234,16.3295324 Z M15.2697045,23.0460108 L15.2697045,11.9538594 L23.6931319,17.4995457 L15.2697045,23.0460108 Z" id="Shape"></path>
                                <path d="M17.5,0 C7.85048454,0 0,7.85038225 0,17.4999341 C0,27.1494859 7.85048454,35 17.5,35 C27.1495155,35 35,27.1494859 35,17.4999341 C35,7.85038225 27.1496473,0 17.5,0 Z M17.5,33.0218762 C8.94121792,33.0218762 1.97811638,26.0587484 1.97811638,17.4999341 C1.97811638,8.94111973 8.94121792,1.97812383 17.5,1.97812383 C26.0587821,1.97812383 33.0218836,8.94111973 33.0218836,17.4999341 C33.0218836,26.0587484 26.058914,33.0218762 17.5,33.0218762 Z" id="Shape"></path>
                            </g>
                        </g>
                    </g>
                </g>
            </g>
        </g>
    </g>
</svg>