<?xml version="1.0" encoding="UTF-8"?>
<svg width="160px" height="80px" viewBox="0 0 160 80" version="1.1" xmlns="http://www.w3.org/2000/svg" xmlns:xlink="http://www.w3.org/1999/xlink">
    <title>Group 63</title>
    <defs>
        <path d="M6.12528067,0 L59.8479332,0 C63.2477595,0 66,2.78777473 66,6.23149643 L66,27.0031512 C66,30.4468729 63.2477595,33.2346477 59.8479332,33.2346477 L40.5822507,33.2346477 L43.22656,39.7941176 L31.5969955,33.2346477 L6.15226343,33.2346477 C2.75243708,33.2346477 0,30.4468729 0,27.0031512 L0,6.23149643 C-0.0267860278,2.81510584 2.72545433,0 6.12528067,0 L6.12528067,0 Z" id="path-1"></path>
        <filter x="-33.3%" y="-50.3%" width="166.7%" height="210.6%" filterUnits="objectBoundingBox" id="filter-2">
            <feOffset dx="0" dy="2" in="SourceAlpha" result="shadowOffsetOuter1"></feOffset>
            <feGaussianBlur stdDeviation="7" in="shadowOffsetOuter1" result="shadowBlurOuter1"></feGaussianBlur>
            <feColorMatrix values="0 0 0 0 0.607843137   0 0 0 0 0.360784314   0 0 0 0 0.560784314  0 0 0 0.243607955 0" type="matrix" in="shadowBlurOuter1"></feColorMatrix>
        </filter>
        <path d="M6.12528067,0 L59.8479332,0 C63.2477595,0 66,2.78777473 66,6.23149643 L66,27.0031512 C66,30.4468729 63.2477595,33.2346477 59.8479332,33.2346477 L40.5822507,33.2346477 L43.22656,39.7941176 L31.5969955,33.2346477 L6.15226343,33.2346477 C2.75243708,33.2346477 0,30.4468729 0,27.0031512 L0,6.23149643 C-0.0267860278,2.81510584 2.72545433,0 6.12528067,0 L6.12528067,0 Z" id="path-3"></path>
        <filter x="-33.3%" y="-50.3%" width="166.7%" height="210.6%" filterUnits="objectBoundingBox" id="filter-4">
            <feOffset dx="0" dy="2" in="SourceAlpha" result="shadowOffsetOuter1"></feOffset>
            <feGaussianBlur stdDeviation="7" in="shadowOffsetOuter1" result="shadowBlurOuter1"></feGaussianBlur>
            <feColorMatrix values="0 0 0 0 0.607843137   0 0 0 0 0.360784314   0 0 0 0 0.560784314  0 0 0 0.243607955 0" type="matrix" in="shadowBlurOuter1"></feColorMatrix>
        </filter>
    </defs>
    <g id="Website-Second-Iteration" stroke="none" stroke-width="1" fill="none" fill-rule="evenodd">
        <g id="Customer-Service" transform="translate(-356.000000, -4787.000000)">
            <g id="Group-70" transform="translate(0.000000, 4345.000000)">
                <g id="Group-63" transform="translate(356.000000, 442.000000)">
                    <rect id="Rectangle" fill="#FFFFFF" x="0" y="0" width="160" height="80" rx="6"></rect>
                    <g id="Group-60" transform="translate(45.000000, 21.000000)" fill-rule="nonzero">
                        <g id="Path">
                            <use fill="black" fill-opacity="1" filter="url(#filter-2)" xlink:href="#path-1"></use>
                            <use fill="#9B5C8F" xlink:href="#path-1"></use>
                        </g>
                        <g id="Path">
                            <use fill="black" fill-opacity="1" filter="url(#filter-4)" xlink:href="#path-3"></use>
                            <use fill="#9B5C8F" xlink:href="#path-3"></use>
                        </g>
                        <path d="M3.37965424,6.83510166 C3.76012953,6.32155159 4.33084251,6.05126208 5.09179312,5.99720418 C6.47781033,5.88908839 7.26593776,6.53778319 7.45617542,7.94328864 C8.29865645,13.5923393 9.22266792,18.3764636 10.201033,22.2956614 L16.1527539,11.024589 C16.6962901,9.99748889 17.3757103,9.45690985 18.1910145,9.40285197 C19.3867941,9.3217651 20.1205679,10.0785757 20.4195127,11.6732838 C21.098933,15.2681343 21.9685908,18.3224057 23.0013095,20.9171849 C23.7079065,14.0518315 24.9036861,9.1055335 26.5886481,6.05126208 C26.9963003,5.29445148 27.5941901,4.91604616 28.3823175,4.86198825 C29.0073841,4.80793035 29.5780971,4.997133 30.0944563,5.40256726 C30.6108157,5.80800154 30.8825836,6.32155159 30.9369375,6.94321747 C30.9641143,7.42973857 30.8825836,7.83517283 30.6651693,8.24060708 C29.6052739,10.1866915 28.7356159,13.4571946 28.0290189,17.9980583 C27.3495987,22.4037772 27.1050075,25.8364539 27.2680683,28.2960885 C27.3224219,28.9718123 27.2137147,29.5664492 26.9419467,30.0799991 C26.6158249,30.674636 26.1266423,30.9989835 25.5015758,31.0530414 C24.7949788,31.1070993 24.061205,30.782752 23.354608,30.0529701 C20.8271649,27.48522 18.8160811,23.6471089 17.3485335,18.5386373 C15.582041,21.9983429 14.2775542,24.5931222 13.4350731,26.322975 C11.8316415,29.3772464 10.4728011,30.9449257 9.33137516,31.0260125 C8.59760135,31.0800704 7.97253475,30.4584045 7.42899859,29.1610148 C6.04298139,25.6202223 4.54825696,18.7818978 2.9448253,8.64604134 C2.83611806,7.94328864 2.99917892,7.32162276 3.37965424,6.83510166 Z M61.7826144,11.0786469 C60.8042492,9.37582301 59.3638784,8.3487229 57.434325,7.94328864 C56.9179656,7.83517283 56.4287832,7.78111492 55.9667774,7.78111492 C53.3578038,7.78111492 51.2380129,9.13256247 49.5802275,11.8354575 C48.1670335,14.1329183 47.4604365,16.6736397 47.4604365,19.4576216 C47.4604365,21.5388508 47.8952655,23.3227615 48.7649233,24.8093538 C49.7432885,26.5121777 51.1836593,27.5392779 53.1132127,27.944712 C53.6295721,28.0528278 54.1187544,28.1068857 54.5807602,28.1068857 C57.2169106,28.1068857 59.3367016,26.7554383 60.9673099,24.0525432 C62.3805042,21.7280534 63.0871012,19.1873321 63.0871012,16.4033502 C63.114278,14.295092 62.6522722,12.5382102 61.7826144,11.0786469 Z M58.3583366,18.5656662 C57.9778612,20.349577 57.298441,21.6739955 56.2928993,22.5659509 C55.5047716,23.2687036 54.7709978,23.5660221 54.0915776,23.4308773 C53.4393342,23.2957326 52.895798,22.7281246 52.4881461,21.6739955 C52.1620242,20.8360981 51.9989635,19.9982006 51.9989635,19.214361 C51.9989635,18.5386373 52.0533171,17.8629135 52.189201,17.2412476 C52.4337925,16.1330607 52.895798,15.0519027 53.6295721,14.0248025 C54.5264066,12.7003839 55.4775948,12.1598049 56.45596,12.3490076 C57.1082034,12.4841523 57.6517396,13.0517603 58.0593916,14.1058894 C58.3855134,14.9437868 58.5485742,15.7816843 58.5485742,16.5655239 C58.5485742,17.2682766 58.4942206,17.9440004 58.3583366,18.5656662 Z M44.7699325,11.0786469 C43.7915676,9.37582301 42.32402,8.3487229 40.4216434,7.94328864 C39.905284,7.83517283 39.4161014,7.78111492 38.9540958,7.78111492 C36.3451222,7.78111492 34.225331,9.13256247 32.5675459,11.8354575 C31.1543519,14.1329183 30.4477549,16.6736397 30.4477549,19.4576216 C30.4477549,21.5388508 30.8825836,23.3227615 31.7522417,24.8093538 C32.7306066,26.5121777 34.1709774,27.5392779 36.1005308,27.944712 C36.6168902,28.0528278 37.1060728,28.1068857 37.5680784,28.1068857 C40.2042288,28.1068857 42.32402,26.7554383 43.9546283,24.0525432 C45.3678223,21.7280534 46.0744193,19.1873321 46.0744193,16.4033502 C46.0744193,14.295092 45.6395906,12.5382102 44.7699325,11.0786469 Z M41.318478,18.5656662 C40.9380028,20.349577 40.2585826,21.6739955 39.2530406,22.5659509 C38.4649132,23.2687036 37.7311394,23.5660221 37.0517192,23.4308773 C36.3994758,23.2957326 35.8559396,22.7281246 35.4482874,21.6739955 C35.1221658,20.8360981 34.9591051,19.9982006 34.9591051,19.214361 C34.9591051,18.5386373 35.0134587,17.8629135 35.1493426,17.2412476 C35.3939338,16.1330607 35.8559396,15.0519027 36.5897134,14.0248025 C37.486548,12.7003839 38.4377364,12.1598049 39.4161014,12.3490076 C40.0683448,12.4841523 40.611881,13.0517603 41.0195332,14.1058894 C41.3456548,14.9437868 41.5087155,15.7816843 41.5087155,16.5655239 C41.5358923,17.2682766 41.454362,17.9440004 41.318478,18.5656662 L41.318478,18.5656662 L41.318478,18.5656662 Z" id="Shape" fill="#FFFFFF"></path>
                    </g>
                </g>
            </g>
        </g>
    </g>
</svg>