<?xml version="1.0" encoding="UTF-8"?>
<svg width="35px" height="33px" viewBox="0 0 35 33" version="1.1" xmlns="http://www.w3.org/2000/svg" xmlns:xlink="http://www.w3.org/1999/xlink">
    <!-- Generator: Sketch 52.6 (67491) - http://www.bohemiancoding.com/sketch -->
    <title>screen</title>
    <desc>Created with Sketch.</desc>
    <g id="Website" stroke="none" stroke-width="1" fill="none" fill-rule="evenodd">
        <g id="Solutions-Marketing" transform="translate(-164.000000, -1651.000000)" fill="#029AFF" fill-rule="nonzero">
            <g id="Solutions" transform="translate(150.000000, 1474.000000)">
                <g id="features" transform="translate(0.000000, 162.000000)">
                    <g id="web">
                        <g id="icon">
                            <g id="screen" transform="translate(14.000000, 15.000000)">
                                <path d="M31.617265,0.124145299 L3.36538462,0.124145299 C1.50963675,0.124145299 0,1.63378205 0,3.48952991 L0,24.5486111 C0,26.404359 1.50963675,27.9139957 3.36538462,27.9139957 L11.9599786,27.9139957 L11.9599786,30.5208974 L8.17623932,30.5208974 C7.5567094,30.5208974 7.05444444,31.0231624 7.05444444,31.6426923 C7.05444444,32.2622222 7.5567094,32.7644872 8.17623932,32.7644872 L11.9599786,32.7644872 L23.0225214,32.7644872 L26.8062607,32.7644872 C27.4257906,32.7644872 27.9280556,32.2622222 27.9280556,31.6426923 C27.9280556,31.0231624 27.4257906,30.5208974 26.8062607,30.5208974 L23.0225214,30.5208974 L23.0225214,27.9139957 L31.617265,27.9139957 C33.4730128,27.9139957 34.9826496,26.404359 34.9826496,24.5486111 L34.9826496,3.48952991 C34.9826496,1.63378205 33.4728632,0.124145299 31.617265,0.124145299 Z M3.36538462,2.36773504 L31.617265,2.36773504 C32.2358974,2.36773504 32.7390598,2.87089744 32.7390598,3.48952991 L32.7390598,20.1115385 L2.24358974,20.1115385 L2.24358974,3.48952991 C2.24358974,2.87089744 2.74675214,2.36773504 3.36538462,2.36773504 Z M20.7789316,30.5208974 L14.2035684,30.5208974 L14.2035684,27.9139957 L20.7789316,27.9139957 L20.7789316,30.5208974 Z M31.617265,25.670406 L3.36538462,25.670406 C2.74675214,25.670406 2.24358974,25.167094 2.24358974,24.5486111 L2.24358974,22.3551282 L32.7390598,22.3551282 L32.7390598,24.5486111 C32.7390598,25.1672436 32.2358974,25.670406 31.617265,25.670406 Z" id="Shape"></path>
                            </g>
                        </g>
                    </g>
                </g>
            </g>
        </g>
    </g>
</svg>