<?xml version="1.0" encoding="UTF-8"?>
<svg width="160px" height="80px" viewBox="0 0 160 80" version="1.1" xmlns="http://www.w3.org/2000/svg" xmlns:xlink="http://www.w3.org/1999/xlink">
    <!-- Generator: Sketch 52.6 (67491) - http://www.bohemiancoding.com/sketch -->
    <title>Group 67</title>
    <desc>Created with Sketch.</desc>
    <g id="Website-Second-Iteration" stroke="none" stroke-width="1" fill="none" fill-rule="evenodd">
        <g id="Solutions-Catalog-Illustrations" transform="translate(-607.000000, -9471.000000)">
            <g id="Group-64" transform="translate(-25.000000, 8919.000000)">
                <g id="Group-63" transform="translate(0.000000, 442.000000)">
                    <g id="Group-59">
                        <g id="Group-51" transform="translate(62.000000, 110.000000)">
                            <g id="Group-67" transform="translate(570.000000, 0.000000)">
                                <rect id="Rectangle" fill="#FFFFFF" x="0" y="0" width="160" height="80" rx="6"></rect>
                                <g id="iconfinder_zendesk_4691530" transform="translate(49.000000, 16.000000)" fill="#000000" fill-rule="nonzero">
                                    <path d="M27.465067,45 L0,45 L27.465067,11.8919736 L27.465067,45 Z M59.4642857,45 L31.9992187,45 C31.9992187,37.4224849 38.1413839,31.2872457 45.7329911,31.2872457 C53.3221205,31.2872457 59.4642857,37.4274327 59.4642857,45 Z M31.9992187,33.115448 L31.9992187,7.10542736e-15 L59.4642857,7.10542736e-15 L31.9992187,33.115448 Z M27.465067,0 C27.465067,7.57256734 21.3179464,13.7152281 13.7312946,13.7152281 C6.14959821,13.7152281 0,7.57751512 0,0.0049477735 L27.465067,0.0049477735 L27.465067,0 Z" id="Shape"></path>
                                </g>
                            </g>
                        </g>
                    </g>
                </g>
            </g>
        </g>
    </g>
</svg>