<svg width="50" height="50" viewBox="0 0 50 50" fill="none" xmlns="http://www.w3.org/2000/svg">
<path fill-rule="evenodd" clip-rule="evenodd" d="M18.7062 39.0336C17.1549 39.9644 16.6667 40.96 16.6667 41.6666C16.6667 42.8172 15.7339 43.7499 14.5833 43.7499C13.4327 43.7499 12.5 42.8172 12.5 41.6666C12.5 38.9214 14.3436 36.792 16.5624 35.4607C18.8227 34.1045 21.8108 33.3333 25 33.3333C28.1892 33.3333 31.1773 34.1045 33.4376 35.4607C35.6564 36.792 37.5 38.9214 37.5 41.6666C37.5 42.8172 36.5673 43.7499 35.4167 43.7499C34.2661 43.7499 33.3333 42.8172 33.3333 41.6666C33.3333 40.96 32.8451 39.9644 31.2938 39.0336C29.784 38.1277 27.5638 37.4999 25 37.4999C22.4362 37.4999 20.216 38.1277 18.7062 39.0336Z" fill="#EE5E5E"/>
<path fill-rule="evenodd" clip-rule="evenodd" d="M35.4846 29.1581C35.7764 28.0451 36.9152 27.3794 38.0282 27.6711C40.1082 28.2164 41.9926 29.1394 43.3975 30.4028C44.8082 31.6714 45.8332 33.3878 45.8332 35.4163C45.8332 36.5669 44.9005 37.4997 43.7499 37.4997C42.5993 37.4997 41.6665 36.5669 41.6665 35.4163C41.6665 34.882 41.406 34.2156 40.6114 33.501C39.8111 32.7813 38.5705 32.1208 36.9716 31.7016C35.8586 31.4098 35.1929 30.2711 35.4846 29.1581Z" fill="#EE5E5E"/>
<path fill-rule="evenodd" clip-rule="evenodd" d="M14.5146 29.1581C14.8064 30.2711 14.1406 31.4098 13.0276 31.7016C11.4287 32.1208 10.1881 32.7813 9.38779 33.501C8.59316 34.2156 8.33268 34.882 8.33268 35.4163C8.33268 36.5669 7.39994 37.4997 6.24935 37.4997C5.09876 37.4997 4.16602 36.5669 4.16602 35.4163C4.16602 33.3878 5.19105 31.6714 6.60168 30.4028C8.00664 29.1394 9.89099 28.2164 11.9711 27.6711C13.084 27.3794 14.2228 28.0451 14.5146 29.1581Z" fill="#EE5E5E"/>
<path fill-rule="evenodd" clip-rule="evenodd" d="M24.9993 18.7499C22.6982 18.7499 20.8327 20.6154 20.8327 22.9166C20.8327 25.2178 22.6982 27.0833 24.9993 27.0833C27.3005 27.0833 29.166 25.2178 29.166 22.9166C29.166 20.6154 27.3005 18.7499 24.9993 18.7499ZM16.666 22.9166C16.666 18.3142 20.397 14.5833 24.9993 14.5833C29.6017 14.5833 33.3327 18.3142 33.3327 22.9166C33.3327 27.519 29.6017 31.2499 24.9993 31.2499C20.397 31.2499 16.666 27.519 16.666 22.9166Z" fill="#EE5E5E"/>
<path fill-rule="evenodd" clip-rule="evenodd" d="M33.334 12.4999C32.2655 12.4999 31.2953 12.8994 30.5567 13.5604C29.6994 14.3277 28.3823 14.2548 27.615 13.3974C26.8476 12.5401 26.9206 11.223 27.7779 10.4557C29.2509 9.13735 31.201 8.33325 33.334 8.33325C37.9364 8.33325 41.6673 12.0642 41.6673 16.6666C41.6673 19.1348 40.5916 21.3546 38.8901 22.8775C38.0327 23.6448 36.7157 23.5719 35.9483 22.7145C35.181 21.8572 35.2539 20.5401 36.1113 19.7728C36.967 19.0069 37.5007 17.9004 37.5007 16.6666C37.5007 14.3654 35.6352 12.4999 33.334 12.4999Z" fill="#EE5E5E"/>
<path fill-rule="evenodd" clip-rule="evenodd" d="M8.33398 16.6666C8.33398 12.0642 12.0649 8.33325 16.6673 8.33325C18.8003 8.33325 20.7504 9.13735 22.2234 10.4557C23.0807 11.223 23.1537 12.5401 22.3863 13.3974C21.619 14.2548 20.3019 14.3277 19.4446 13.5604C18.706 12.8994 17.7358 12.4999 16.6673 12.4999C14.3661 12.4999 12.5007 14.3654 12.5007 16.6666C12.5007 17.9004 13.0343 19.0069 13.8901 19.7728C14.7474 20.5401 14.8204 21.8572 14.053 22.7145C13.2857 23.5719 11.9686 23.6448 11.1112 22.8775C9.40972 21.3546 8.33398 19.1348 8.33398 16.6666Z" fill="#EE5E5E"/>
</svg>
