<svg width="18" height="18" viewBox="0 0 18 18" fill="none" xmlns="http://www.w3.org/2000/svg">
<path fill-rule="evenodd" clip-rule="evenodd" d="M9 4.5C6.10051 4.5 3.75 6.85051 3.75 9.75C3.75 12.6495 6.10051 15 9 15C11.8995 15 14.25 12.6495 14.25 9.75C14.25 6.85051 11.8995 4.5 9 4.5ZM2.25 9.75C2.25 6.02208 5.27208 3 9 3C12.7279 3 15.75 6.02208 15.75 9.75C15.75 13.4779 12.7279 16.5 9 16.5C5.27208 16.5 2.25 13.4779 2.25 9.75Z" fill="#164995"/>
<path fill-rule="evenodd" clip-rule="evenodd" d="M13.7197 2.46967C14.0126 2.17678 14.4874 2.17678 14.7803 2.46967L16.2803 3.96967C16.5732 4.26256 16.5732 4.73744 16.2803 5.03033C15.9874 5.32322 15.5126 5.32322 15.2197 5.03033L13.7197 3.53033C13.4268 3.23744 13.4268 2.76256 13.7197 2.46967Z" fill="#164995"/>
<path fill-rule="evenodd" clip-rule="evenodd" d="M6.75 1.5C6.75 1.08579 7.08579 0.75 7.5 0.75H10.5C10.9142 0.75 11.25 1.08579 11.25 1.5C11.25 1.91421 10.9142 2.25 10.5 2.25H7.5C7.08579 2.25 6.75 1.91421 6.75 1.5Z" fill="#164995"/>
<path fill-rule="evenodd" clip-rule="evenodd" d="M11.7803 7.71967C12.0732 8.01256 12.0732 8.48744 11.7803 8.78033L8.78033 11.7803C8.48744 12.0732 8.01256 12.0732 7.71967 11.7803L6.21967 10.2803C5.92678 9.98744 5.92678 9.51256 6.21967 9.21967C6.51256 8.92678 6.98744 8.92678 7.28033 9.21967L8.25 10.1893L10.7197 7.71967C11.0126 7.42678 11.4874 7.42678 11.7803 7.71967Z" fill="#164995"/>
</svg>
