<svg width="36" height="36" viewBox="0 0 36 36" fill="none" xmlns="http://www.w3.org/2000/svg">
<path fill-rule="evenodd" clip-rule="evenodd" d="M12.4681 25.5054C11.1076 26.4124 10.5 27.5007 10.5 28.5C10.5 29.3284 9.82843 30 9 30C8.17157 30 7.5 29.3284 7.5 28.5C7.5 26.1856 8.90713 24.2739 10.804 23.0093C12.7113 21.7377 15.2599 21 18 21C20.7401 21 23.2887 21.7377 25.196 23.0093C27.0929 24.2739 28.5 26.1856 28.5 28.5C28.5 29.3284 27.8284 30 27 30C26.1716 30 25.5 29.3284 25.5 28.5C25.5 27.5007 24.8924 26.4124 23.5319 25.5054C22.1819 24.6054 20.2305 24 18 24C15.7696 24 13.8181 24.6054 12.4681 25.5054Z" fill="#164995"/>
<path fill-rule="evenodd" clip-rule="evenodd" d="M18 7.5C15.5147 7.5 13.5 9.51472 13.5 12C13.5 14.4853 15.5147 16.5 18 16.5C20.4853 16.5 22.5 14.4853 22.5 12C22.5 9.51472 20.4853 7.5 18 7.5ZM10.5 12C10.5 7.85786 13.8579 4.5 18 4.5C22.1421 4.5 25.5 7.85786 25.5 12C25.5 16.1421 22.1421 19.5 18 19.5C13.8579 19.5 10.5 16.1421 10.5 12Z" fill="#164995"/>
</svg>
