<svg width="32" height="32" viewBox="0 0 32 32" fill="none" xmlns="http://www.w3.org/2000/svg">
<circle cx="16" cy="16" r="16" fill="#A7CAFF"/>
<path fill-rule="evenodd" clip-rule="evenodd" d="M10.9997 7.66675L17.3022 7.66675C17.7665 7.66675 18.2098 7.8604 18.5252 8.20107L22.2226 12.1943C22.5079 12.5024 22.6663 12.9068 22.6663 13.3266V22.6667C22.6663 23.5872 21.9202 24.3334 20.9997 24.3334H10.9997C10.0792 24.3334 9.33301 23.5872 9.33301 22.6667L9.33301 9.33342C9.33301 8.41294 10.0792 7.66675 10.9997 7.66675ZM17.3022 9.33341L10.9997 9.33342L10.9997 22.6667H20.9997L20.9997 13.3266L17.3022 9.33341Z" fill="#164995"/>
<path fill-rule="evenodd" clip-rule="evenodd" d="M17.0771 16.2441C17.4025 15.9186 17.9302 15.9186 18.2556 16.2441L19.9223 17.9107C20.2477 18.2362 20.2477 18.7638 19.9223 19.0893L18.2556 20.7559C17.9302 21.0814 17.4025 21.0814 17.0771 20.7559C16.7516 20.4305 16.7516 19.9028 17.0771 19.5774L18.1545 18.5L17.0771 17.4226C16.7516 17.0972 16.7516 16.5695 17.0771 16.2441Z" fill="#164995"/>
<path fill-rule="evenodd" clip-rule="evenodd" d="M14.9223 16.2441C15.2477 16.5695 15.2477 17.0972 14.9223 17.4226L13.8449 18.5L14.9223 19.5774C15.2477 19.9028 15.2477 20.4305 14.9223 20.7559C14.5968 21.0814 14.0692 21.0814 13.7438 20.7559L12.0771 19.0893C11.9208 18.933 11.833 18.721 11.833 18.5C11.833 18.279 11.9208 18.067 12.0771 17.9107L13.7438 16.2441C14.0692 15.9186 14.5968 15.9186 14.9223 16.2441Z" fill="#164995"/>
<path fill-rule="evenodd" clip-rule="evenodd" d="M16.8333 7.66675C17.2936 7.66675 17.6667 8.03984 17.6667 8.50008L17.6667 12.6667L21.8333 12.6667C22.2936 12.6667 22.6667 13.0398 22.6667 13.5001C22.6667 13.9603 22.2936 14.3334 21.8333 14.3334L17.6667 14.3334C16.7462 14.3334 16 13.5872 16 12.6667L16 8.50008C16 8.03984 16.3731 7.66675 16.8333 7.66675Z" fill="#164995"/>
</svg>
