<svg width="36" height="36" viewBox="0 0 36 36" fill="none" xmlns="http://www.w3.org/2000/svg">
<path fill-rule="evenodd" clip-rule="evenodd" d="M13.4684 28.1043C12.3515 28.7744 12 29.4912 12 30C12 30.8284 11.3284 31.5 10.5 31.5C9.67157 31.5 9 30.8284 9 30C9 28.0235 10.3274 26.4903 11.925 25.5318C13.5524 24.5553 15.7038 24 18 24C20.2962 24 22.4476 24.5553 24.075 25.5318C25.6726 26.4903 27 28.0235 27 30C27 30.8284 26.3284 31.5 25.5 31.5C24.6716 31.5 24 30.8284 24 30C24 29.4912 23.6485 28.7744 22.5316 28.1043C21.4445 27.452 19.8459 27 18 27C16.1541 27 14.5555 27.452 13.4684 28.1043Z" fill="#164995"/>
<path fill-rule="evenodd" clip-rule="evenodd" d="M25.5494 20.994C25.7595 20.1927 26.5794 19.7133 27.3807 19.9234C28.8784 20.316 30.2351 20.9806 31.2467 21.8902C32.2623 22.8036 33.0004 24.0394 33.0004 25.5C33.0004 26.3284 32.3288 27 31.5004 27C30.6719 27 30.0004 26.3284 30.0004 25.5C30.0004 25.1152 29.8128 24.6354 29.2407 24.1209C28.6645 23.6028 27.7712 23.1272 26.62 22.8254C25.8186 22.6153 25.3393 21.7954 25.5494 20.994Z" fill="#164995"/>
<path fill-rule="evenodd" clip-rule="evenodd" d="M10.451 20.994C10.661 21.7954 10.1817 22.6153 9.38037 22.8254C8.22916 23.1272 7.33589 23.6028 6.75968 24.1209C6.18754 24.6354 6 25.1152 6 25.5C6 26.3284 5.32843 27 4.5 27C3.67157 27 3 26.3284 3 25.5C3 24.0394 3.73803 22.8036 4.75368 21.8902C5.76525 20.9806 7.12198 20.316 8.61963 19.9234C9.42098 19.7133 10.2409 20.1927 10.451 20.994Z" fill="#164995"/>
<path fill-rule="evenodd" clip-rule="evenodd" d="M18 13.5C16.3431 13.5 15 14.8431 15 16.5C15 18.1569 16.3431 19.5 18 19.5C19.6569 19.5 21 18.1569 21 16.5C21 14.8431 19.6569 13.5 18 13.5ZM12 16.5C12 13.1863 14.6863 10.5 18 10.5C21.3137 10.5 24 13.1863 24 16.5C24 19.8137 21.3137 22.5 18 22.5C14.6863 22.5 12 19.8137 12 16.5Z" fill="#164995"/>
<path fill-rule="evenodd" clip-rule="evenodd" d="M24 9C23.2307 9 22.5321 9.28761 22.0004 9.76354C21.3831 10.316 20.4348 10.2635 19.8823 9.64621C19.3298 9.02892 19.3824 8.08063 19.9996 7.52814C21.0602 6.57895 22.4643 6 24 6C27.3137 6 30 8.68629 30 12C30 13.7771 29.2255 15.3754 28.0004 16.4719C27.3831 17.0244 26.4348 16.9718 25.8823 16.3545C25.3298 15.7372 25.3824 14.7889 25.9996 14.2365C26.6158 13.685 27 12.8884 27 12C27 10.3431 25.6569 9 24 9Z" fill="#164995"/>
<path fill-rule="evenodd" clip-rule="evenodd" d="M6 12C6 8.68629 8.68629 6 12 6C13.5357 6 14.9399 6.57895 16.0004 7.52814C16.6177 8.08063 16.6702 9.02892 16.1177 9.64621C15.5652 10.2635 14.6169 10.316 13.9996 9.76354C13.4679 9.28761 12.7693 9 12 9C10.3431 9 9 10.3431 9 12C9 12.8884 9.38422 13.685 10.0004 14.2365C10.6177 14.7889 10.6702 15.7372 10.1177 16.3545C9.56521 16.9718 8.61692 17.0244 7.99963 16.4719C6.77453 15.3754 6 13.7771 6 12Z" fill="#164995"/>
</svg>
