<svg height="322" viewBox="0 0 422 322" width="422" xmlns="http://www.w3.org/2000/svg" xmlns:xlink="http://www.w3.org/1999/xlink"><mask id="a" fill="#fff"><rect fill="#fff" fill-rule="evenodd" height="322" rx="16" width="422"/></mask><g fill="none" fill-rule="evenodd"><rect fill="#d8e5e5" height="322" rx="16" width="422"/><g mask="url(#a)"><g fill-rule="nonzero" transform="translate(54 85)"><path d="m251.987384 235.602375-251.05058103.595475c-.62453531-85.456524 5.75514927-131.87703 19.13905373-139.2615181 20.0758567-11.0767324 27.2258229-6.9820138 49.5313163-8.605738 3.7722525-.3247448 7.7085161-.4871172 11.9728016-.6494896 7.7085161-.3247449 16.0730761-.4871173 25.2576914-.4871173 10.660713 0 26.241757.1623724 43.46291.4871173 2.788186 0 5.740384.1623724 8.528571.1623724 102.342852-1.948469 89.549995 34.7476973 93.158237 147.7588983z" fill="#3377c6"/><g transform="translate(50.298397 147.205755)"><path d="m140.020858 88.3966192h-80.3653803c24.4376362-13.8016553 49.5313163-27.9280554 67.9005463-23.868745 9.676648 1.948469 12.464834 13.314538 12.464834 23.868745z" fill="#ffa79b"/><path d="m21.2769082 88.3966192h-2.1321428c-6.2324172-29.0646623-12.6288455-58.1293246-19.02527376-87.03161456-.32802196-1.29897933 1.64010981-1.78609657 1.96813177-.48711725 6.56043924 29.06466231 12.95686749 58.29169711 19.18928479 87.51873181z" fill="#fff"/></g><g transform="translate(80.923931)"><path d="m116.775818 48.7117246c0 11.3660691-6.068406 16.8867312-13.612911 16.8867312-7.5445051 0-13.7769224-7.6315035-13.7769224-16.8867312s6.3964283-16.8867312 13.7769224-16.8867312c7.380494 0 13.612911 7.6315035 13.612911 16.8867312z" fill="#2252b2"/><path d="m66.0964253 88.0058491c7.3804942 29.2270349-11.9728016 41.7297109-25.585713 40.5931039-21.4854385-1.948469-36.08241581-18.672828-40.01867936-40.7554763 7.70851611-.3247449 16.07307616-.4871173 25.25769106-.4871173 10.6607138 0 26.241757.1623724 43.46291.4871173 2.9521976 0-6.0684063.1623724-3.1162087.1623724z" fill="#ffa79b"/><path d="m7.87252709 95.4749802 50.84340411 17.0491038 6.7244502-13.3145383 8.528571-17.0491036 14.7609883-29.5517795-36.7384597-16.0748692c-1.6401099 3.7345656-44.11895391 58.9411868-44.11895391 58.9411868z" fill="#ffa79b"/><path d="m65.2763704 99.2095457-.3280219.6494897c-6.2324173-6.657269-9.8406589-15.4253794-10.8247248-25.0053519-1.3120878-12.6650484 2.9521977-23.2192554 7.2164832-34.2605797l27.0618118 11.8531863-14.7609883 29.5517796z" fill="#000"/><path d="m55.1076896 5.68303454c15.0890102-12.82742081 60.0280194 5.19591726 55.9277444 24.19348986-3.116209 14.1264001-11.9728015 53.4205246-20.8293945 58.9411868-17.5491749 11.2036968-37.5585146-3.2474483-42.970877-20.4589244-5.5763733-17.3738484-7.0524722-50.0107039 7.8725271-62.67575226z" fill="#ffa79b"/><path d="m53.9596127 35.7219314c6.7244502 6.657269 19.8453287-6.9820139 22.9615374-13.1521657 8.692582 3.5721932 24.7656579 3.5721932 32.9662069-.6494896-7.052472-15.5877519-41.9868109-27.2785658-54.9436784-16.23724156-6.8884612 5.84540696-10.3326918 16.23724156-11.4807687 27.11619336 3.6082416-.1623724 8.0365381.4871172 10.4967028 2.9227035z" fill="#d24a43"/><path d="m32.1461523 28.7399175c4.4282964-5.3582897 15.2530212-5.5206621 20.1733506 2.5979587-2.2961537 7.1443862-4.4282965 14.4511449-6.3964282 21.7579036-4.2642855.4871172-12.1368126-1.948469-15.4170322-6.9820139-3.6082416-6.0077793-3.1162087-11.5284414 1.6401098-17.3738484z" fill="#ffa79b"/><g fill="#2252b2" transform="translate(27.314862)"><path d="m27.7928281 41.4049659c0 11.3660691-6.0684063 16.8867312-13.6129114 16.8867312-7.54450516 0-13.77692243-7.6315035-13.77692243-16.8867312s6.39642825-16.8867312 13.77692243-16.8867312c7.5445051 0 13.6129114 7.6315035 13.6129114 16.8867312z"/><path d="m84.5406275 10.3918346c-2.7881867-3.40982074-7.0524722-4.38405523-11.1527467-5.0335449-6.8884612-.97423449-13.7769224-1.62372415-20.5013726-2.43558622-6.8884612-.81186208-13.7769224-1.78609657-20.6653836-2.43558623-4.7563185-.32474483-9.6766479-.16237242-13.6129114 2.76033106-9.18461498 6.65726902-7.0524722 19.32231739-5.0843405 28.73991749.328022 1.2989793 2.2961538.6494897 1.9681318-.4871172-2.2961537-10.3918346-4.1002745-26.1419589 10.0046699-28.73991754 4.9203294-.81186208 10.0046698.16237242 14.9249992.81186208 5.4123624.64948966 10.8247248 1.29897932 16.2370871 1.94846898 9.020604 1.13660691 25.4217021-.32474483 28.5379107 10.55420698 2.6241757 9.0928553-2.4601647 18.3480829-.4920329 27.4409382.3280219 1.2989793 2.1321427.6494897 1.9681317-.4871172-2.1321427-10.3918346 5.4123624-23.3816278-2.1321427-32.6368555z"/><path d="m36.977443 70.6320007c-12.6288455-2.1108414-20.6653836-13.3145381-18.3692298-25.8172141.1640109-1.2989793-1.6401099-1.7860965-1.9681318-.4871172-2.4601647 13.4769104 6.0684063 25.9795864 19.6813177 28.2528002 1.3120878.1623725 1.9681318-1.7860965.6560439-1.9484689z"/></g><path d="m82.1695015 74.0418214c-2.9521977.3247448-5.7403844-3.0850759-4.4282965-5.845407.4920329-1.1366069-1.1480769-2.1108414-1.8041208-.9742345-1.9681318 4.0593104 1.4760988 9.4176001 6.0684063 8.9304829 1.4760988-.3247449 1.4760988-2.2732138.164011-2.1108414z" fill="#d24a43"/><path d="m97.7505446 54.5571315c-.3280219-1.2989793-2.1321427-.6494896-1.9681317.4871173.6560439 2.9227035-2.6241757 4.5464276-4.9203295 2.9227035-.9840658-.8118621-1.9681317.9742345-.9840658 1.7860965 3.9362635 2.7603311 8.8565929-.811862 7.872527-5.1959173z" fill="#d24a43"/><path d="m82.9895564 39.6188693c-.656044 1.4613518-1.4760989 3.0850759-2.1321428 4.5464277-.4920329 1.1366069 1.1480769 2.1108414 1.8041208.9742345.6560439-1.4613518 1.4760988-3.0850759 2.1321427-4.5464277.492033-1.1366069-1.3120878-2.1108414-1.8041207-.9742345z" fill="#000"/><path d="m103.490929 42.8663176c-.656044 1.4613518-1.476099 3.0850759-2.132143 4.5464277-.492033 1.1366069 1.148077 2.1108414 1.804121.9742345.656044-1.4613518 1.476099-3.0850759 2.132143-4.5464277.492033-1.1366069-1.312088-2.1108414-1.804121-.9742345z" fill="#000"/><g fill="#952c28"><path d="m89.0579627 32.1497382c-1.1480769-.1623724-2.2961538-.4871172-3.2802197-.6494896s-2.1321427.3247448-2.4601647 1.4613517c-.3280219.9742345.328022 2.2732138 1.4760988 2.4355862 1.1480769.1623724 2.2961538.4871173 3.2802197.6494897s2.1321427-.3247448 2.4601647-1.4613517c.3280219-.9742345-.328022-2.1108414-1.4760988-2.4355863z"/><path d="m105.951094 32.7992279c-.820055-.1623724-1.64011-.4871173-2.296154-.6494897-2.460165-.6494896-3.608242 3.0850759-1.148077 3.896938.820055.1623724 1.64011.4871172 2.296154.6494897 2.460165.6494896 3.608241-3.2474483 1.148077-3.896938z"/></g></g><g transform="translate(136 114)"><path d="m241.509707.32472584h-178.8179635l-62.2440519 121.60982816h241.0620154z" fill="#000"/><g fill="#fff"><path d="m145.655143 47.2476101c-13.618326 15.0997516-27.400728 30.1995033-41.019054 45.1368921-.820381.9741775.492229 2.4354438 1.476686 1.4612662l41.019054-45.136892c.820381-.9741776-.656305-2.4354439-1.476686-1.4612663z"/><path d="m150.249277 58.4506516c-10.172725 10.8783157-20.345451 21.9189944-30.682252 32.7973101-.820381.9741775.492228 2.4354438 1.476686 1.4612663 10.172725-10.8783157 20.34545-21.9189944 30.682252-32.7973101.820381-.9741775-.656305-2.4354438-1.476686-1.4612663z"/></g></g><g fill="#feca55" transform="translate(221 62)"><path d="m49.0976865 25.1069763c-11.7649297-3.1983409-24.0200649 1.1194193-31.0463424 11.0342762-1.4706162 2.0789216 1.9608217 3.9979262 3.4314379 1.9190045 5.8824648-8.3156864 16.503582-11.8338614 26.4710919-9.1152716 2.6144288.6396682 3.5948396-3.1983409 1.1438126-3.8380091z"/><path d="m54.6533477 4.63759435c-20.588627-9.75493984-44.1184864-2.23883865-54.08599635 18.07062625-1.14381261 2.2388386 2.28762523 4.3177602 3.43143784 1.9190045 8.98709911-18.23054324 29.57572611-25.58672738 48.53033511-16.63137278 2.2876252 1.11941933 4.4118487-2.23883865 2.1242234-3.35825797z"/></g></g></g></g></svg>