<svg width="52" height="52" viewBox="0 0 52 52" fill="none" xmlns="http://www.w3.org/2000/svg">
<g filter="url(#filter0_d_10439_20039)">
<circle cx="26" cy="24" r="20" fill="#3874CD"/>
<circle cx="26" cy="24" r="20" stroke="#87B7FF"/>
</g>
<path fill-rule="evenodd" clip-rule="evenodd" d="M32.7264 15.6616C32.7264 15.1716 32.3295 14.7744 31.84 14.7744C31.3505 14.7744 30.9537 15.1716 30.9537 15.6616V17.6948C30.137 16.9637 29.1737 16.4045 28.1204 16.0589C26.4993 15.5269 24.7504 15.5292 23.1307 16.0654C21.5109 16.6016 20.1055 17.6434 19.1209 19.0379C18.1363 20.4324 17.6242 22.1062 17.66 23.8134C17.6957 25.5206 18.2773 27.1714 19.3194 28.5234C20.3615 29.8755 21.8093 30.8575 23.45 31.3253C25.0908 31.7931 26.8382 31.7221 28.4357 31.1227C30.0332 30.5233 31.3966 29.427 32.3258 27.9949C32.5924 27.584 32.4757 27.0345 32.0652 26.7676C31.6546 26.5008 31.1057 26.6176 30.839 27.0285C30.1164 28.1424 29.0559 28.995 27.8134 29.4612C26.5709 29.9274 25.2118 29.9827 23.9357 29.6188C22.6595 29.255 21.5335 28.4912 20.723 27.4396C19.9124 26.388 19.4601 25.1041 19.4323 23.7762C19.4045 22.4484 19.8028 21.1466 20.5686 20.062C21.3344 18.9774 22.4275 18.167 23.6873 17.75C24.9471 17.333 26.3073 17.3312 27.5682 17.7449C28.4778 18.0434 29.301 18.5466 29.9778 19.2103H27.4082C26.9187 19.2103 26.5218 19.6075 26.5218 20.0975C26.5218 20.5874 26.9187 20.9846 27.4082 20.9846H31.84C32.3295 20.9846 32.7264 20.5874 32.7264 20.0975V15.6616Z" fill="white"/>
<defs>
<filter id="filter0_d_10439_20039" x="0.5" y="0.5" width="51" height="51" filterUnits="userSpaceOnUse" color-interpolation-filters="sRGB">
<feFlood flood-opacity="0" result="BackgroundImageFix"/>
<feColorMatrix in="SourceAlpha" type="matrix" values="0 0 0 0 0 0 0 0 0 0 0 0 0 0 0 0 0 0 127 0" result="hardAlpha"/>
<feOffset dy="2"/>
<feGaussianBlur stdDeviation="2.5"/>
<feComposite in2="hardAlpha" operator="out"/>
<feColorMatrix type="matrix" values="0 0 0 0 0.0147917 0 0 0 0 0.176317 0 0 0 0 0.591667 0 0 0 0.25 0"/>
<feBlend mode="normal" in2="BackgroundImageFix" result="effect1_dropShadow_10439_20039"/>
<feBlend mode="normal" in="SourceGraphic" in2="effect1_dropShadow_10439_20039" result="shape"/>
</filter>
</defs>
</svg>
