<svg width="34" height="30" viewBox="0 0 34 30" fill="none" xmlns="http://www.w3.org/2000/svg">
<path fill-rule="evenodd" clip-rule="evenodd" d="M0.973929 0.534835C1.17529 0.297507 1.46962 0.162795 1.77798 0.166836L32.2415 0.172139C32.5499 0.168098 32.8442 0.30281 33.0456 0.540138C33.2469 0.777466 33.3347 1.09312 33.2853 1.40242L28.8544 29.0413C28.7717 29.56 28.3277 29.9389 27.8106 29.9322H6.5534C5.86447 29.9264 5.2791 29.4188 5.16514 28.7284L0.734173 1.39712C0.684805 1.08781 0.772572 0.772164 0.973929 0.534835ZM13.6507 19.9211H20.4354L22.0794 10.169H11.8136L13.6507 19.9211Z" fill="#2684FF"/>
<path d="M31.9414 10.3142H21.8046L20.1034 19.9943H13.0828L4.79297 29.585C5.05572 29.8064 5.39071 29.9296 5.73806 29.9324H27.7398C28.2749 29.9391 28.7343 29.5629 28.8199 29.0481L31.9414 10.3142Z" fill="url(#paint0_linear_10408_19074)"/>
<defs>
<linearGradient id="paint0_linear_10408_19074" x1="25.4677" y1="6.97216" x2="14.1559" y2="23.4506" gradientUnits="userSpaceOnUse">
<stop offset="0.18" stop-color="#0052CC"/>
<stop offset="1" stop-color="#2684FF"/>
</linearGradient>
</defs>
</svg>
