<svg width="40" height="40" viewBox="0 0 40 40" fill="none" xmlns="http://www.w3.org/2000/svg">
<path d="M40 12.3077C40 5.51034 34.4897 0 27.6923 0H12.3077C5.51034 0 0 5.51034 0 12.3077V27.6923C0 34.4897 5.51034 40 12.3077 40H27.6923C34.4897 40 40 34.4897 40 27.6923V12.3077Z" fill="url(#paint0_linear_11300_17579)"/>
<path fill-rule="evenodd" clip-rule="evenodd" d="M11.0415 8.30664C11.7696 8.30664 12.3597 8.89681 12.3597 9.62482V12.1518C12.9738 11.6266 13.6467 11.1684 14.3677 10.7874C16.1849 9.82733 18.2349 9.39626 20.2848 9.5432C22.3347 9.69014 24.3023 10.4092 25.9639 11.6186C27.6255 12.8281 28.9145 14.4794 29.6844 16.3849C29.9571 17.0599 29.631 17.8282 28.956 18.1009C28.281 18.3737 27.5127 18.0475 27.24 17.3725C26.6549 15.9243 25.6752 14.6693 24.4124 13.7502C23.1496 12.831 21.6542 12.2845 20.0963 12.1728C18.5384 12.0611 16.9804 12.3888 15.5993 13.1184C14.9647 13.4537 14.3792 13.8677 13.8554 14.3483H17.0832C17.8112 14.3483 18.4014 14.9385 18.4014 15.6665C18.4014 16.3945 17.8112 16.9847 17.0832 16.9847H11.0415C10.3135 16.9847 9.72337 16.3945 9.72337 15.6665V9.62482C9.72337 8.89681 10.3135 8.30664 11.0415 8.30664ZM11.7595 23.6272C11.4868 22.9522 10.7185 22.6261 10.0435 22.8988C9.36848 23.1715 9.04237 23.9398 9.31508 24.6148C10.085 26.5203 11.374 28.1716 13.0356 29.3811C14.6972 30.5905 16.6648 31.3096 18.7147 31.4565C20.7646 31.6035 22.8146 31.1724 24.6317 30.2123C25.3529 29.8313 26.0259 29.373 26.64 28.8477V31.3749C26.64 32.1029 27.2302 32.6931 27.9582 32.6931C28.6862 32.6931 29.2764 32.1029 29.2764 31.3749V25.3333C29.2764 24.6053 28.6862 24.0151 27.9582 24.0151H21.9165C21.1885 24.0151 20.5984 24.6053 20.5984 25.3333C20.5984 26.0613 21.1885 26.6514 21.9165 26.6514H25.144C24.6202 27.132 24.0347 27.546 23.4001 27.8813C22.0191 28.611 20.4611 28.9386 18.9032 28.8269C17.3452 28.7152 15.8499 28.1688 14.5871 27.2496C13.3242 26.3304 12.3446 25.0754 11.7595 23.6272Z" fill="white"/>
<defs>
<linearGradient id="paint0_linear_11300_17579" x1="20" y1="0" x2="20" y2="40" gradientUnits="userSpaceOnUse">
<stop stop-color="#FF7890"/>
<stop offset="1" stop-color="#DA5454"/>
</linearGradient>
</defs>
</svg>
