<svg width="40" height="40" viewBox="0 0 40 40" fill="none" xmlns="http://www.w3.org/2000/svg">
<path d="M40 12.3077C40 5.51034 34.4897 0 27.6923 0H12.3077C5.51034 0 0 5.51034 0 12.3077V27.6923C0 34.4897 5.51034 40 12.3077 40H27.6923C34.4897 40 40 34.4897 40 27.6923V12.3077Z" fill="url(#paint0_linear_11300_17561)"/>
<path fill-rule="evenodd" clip-rule="evenodd" d="M10.0981 17.7989C10.7057 17.7989 11.1983 17.3063 11.1983 16.6988V11.1983H16.6988C17.3063 11.1983 17.7989 10.7057 17.7989 10.0981C17.7989 9.49058 17.3063 8.99805 16.6988 8.99805H10.0981C9.49058 8.99805 8.99805 9.49058 8.99805 10.0981V16.6988C8.99805 17.3063 9.49058 17.7989 10.0981 17.7989ZM29.899 8.99805H23.2984C22.6908 8.99805 22.1983 9.49058 22.1983 10.0981C22.1983 10.7057 22.6908 11.1983 23.2984 11.1983H28.7989V16.6988C28.7989 17.3063 29.2915 17.7989 29.899 17.7989C30.5066 17.7989 30.9991 17.3063 30.9991 16.6988V10.0981C30.9991 9.49058 30.5066 8.99805 29.899 8.99805ZM29.899 22.2001C29.2915 22.2001 28.7989 22.6926 28.7989 23.3002V28.8007H23.2984C22.6908 28.8007 22.1983 29.2932 22.1983 29.9008C22.1983 30.5084 22.6908 31.0009 23.2984 31.0009H29.899C30.5066 31.0009 30.9991 30.5084 30.9991 29.9008V23.3002C30.9991 22.6926 30.5066 22.2001 29.899 22.2001ZM16.699 16.699C16.699 14.8763 18.1766 13.3987 19.9993 13.3987C21.822 13.3987 23.2996 14.8763 23.2996 16.699V17.7991C24.5147 17.7991 25.4998 18.7842 25.4998 19.9993V24.3997C25.4998 25.6148 24.5147 26.5999 23.2996 26.5999H16.699C15.4838 26.5999 14.4988 25.6148 14.4988 24.3997V19.9993C14.4988 18.7842 15.4838 17.7991 16.699 17.7991V16.699ZM18.8982 16.6985C18.8982 16.0909 19.3908 15.5984 19.9983 15.5984C20.6059 15.5984 21.0984 16.0909 21.0984 16.6985V17.7986H18.8982V16.6985ZM16.6976 24.3994H23.2982V19.999H16.6976V24.3994ZM11.1983 28.8007H16.6988C17.3063 28.8007 17.7989 29.2932 17.7989 29.9008C17.7989 30.5084 17.3063 31.0009 16.6988 31.0009H10.0981C9.49058 31.0009 8.99805 30.5084 8.99805 29.9008V23.3002C8.99805 22.6926 9.49058 22.2001 10.0981 22.2001C10.7057 22.2001 11.1983 22.6926 11.1983 23.3002V28.8007Z" fill="white"/>
<defs>
<linearGradient id="paint0_linear_11300_17561" x1="20" y1="0" x2="20" y2="40" gradientUnits="userSpaceOnUse">
<stop stop-color="#30DFB5"/>
<stop offset="1" stop-color="#0AB9A4"/>
</linearGradient>
</defs>
</svg>
