<svg width="55" height="55" viewBox="0 0 55 55" fill="none" xmlns="http://www.w3.org/2000/svg">
<circle cx="27.5" cy="27.5" r="27.5" fill="#DFFBFF"/>
<path fill-rule="evenodd" clip-rule="evenodd" d="M17.7778 15C16.2437 15 15 16.2437 15 17.7778V26.3401C15 37.5474 24.5432 41.7614 26.6038 42.544L27.097 41.2456L26.6038 42.544C27.1857 42.765 27.8143 42.765 28.3962 42.544L27.903 41.2456L28.3962 42.544C30.4568 41.7614 40 37.5474 40 26.3401V17.7778C40 16.2437 38.7563 15 37.2222 15H17.7778ZM17.7778 17.7778L37.2222 17.7778V26.3401C37.2222 35.4984 29.5705 39.1073 27.5 39.9126C25.4295 39.1073 17.7778 35.4984 17.7778 26.3401V17.7778ZM32.6488 25.7043C33.1912 25.1619 33.1912 24.2825 32.6488 23.7401C32.1064 23.1977 31.227 23.1977 30.6846 23.7401L26.1111 28.3136L24.3154 26.5179C23.773 25.9755 22.8936 25.9755 22.3512 26.5179C21.8088 27.0603 21.8088 27.9397 22.3512 28.4821L25.129 31.2599C25.6714 31.8023 26.5508 31.8023 27.0932 31.2599L32.6488 25.7043Z" fill="#009CB7"/>
</svg>
