<svg width="36" height="36" viewBox="0 0 36 36" fill="none" xmlns="http://www.w3.org/2000/svg">
<path d="M35.6898 18.6835C35.6898 19.3555 35.6535 20.0188 35.5822 20.6719C35.5744 20.7447 35.5665 20.8182 35.558 20.891C35.5132 21.2609 35.4569 21.6278 35.3906 21.9904C35.3778 22.0625 35.3642 22.1338 35.35 22.2045C34.1162 28.506 29.6352 33.6077 23.7651 35.6077C22.8804 35.7825 22.5663 35.2269 22.5663 34.7515C22.5663 34.164 22.5863 32.2432 22.5863 29.8566C22.5863 28.1922 22.0285 27.1066 21.4031 26.5532C24.4254 26.2096 27.5674 25.2208 28.8139 21.5732C28.8389 21.5018 28.8624 21.429 28.8851 21.3555C28.9549 21.1334 29.0169 20.9019 29.0725 20.6602C29.0888 20.5881 29.1053 20.5153 29.1202 20.441C29.2833 19.6511 29.3717 18.7591 29.3717 17.7514C29.3717 15.8045 28.6943 14.213 27.5753 12.9636C27.7569 12.5144 28.3545 10.7 27.4043 8.24273C27.4043 8.24273 25.9412 7.76368 22.6098 10.0717C21.2151 9.67632 19.7214 9.47829 18.2385 9.47105C16.7554 9.47829 15.2625 9.67639 13.8699 10.0717C10.5356 7.76368 9.06968 8.24273 9.06968 8.24273C8.12233 10.7 8.71997 12.5144 8.90089 12.9636C7.78469 14.213 7.10231 15.8046 7.10231 17.7514C7.10231 18.7584 7.19066 19.6503 7.35447 20.4402C7.3694 20.5145 7.38508 20.5873 7.40151 20.6594C7.45707 20.9011 7.51978 21.1333 7.58959 21.3554C7.61236 21.4289 7.63663 21.5017 7.66083 21.5731C8.90662 25.2142 12.04 26.2168 15.0538 26.567C14.5544 27.0126 14.1021 27.7997 13.9454 28.953C12.9496 29.4087 10.4238 30.1965 8.86742 27.4698C8.86742 27.4698 7.94427 25.7574 6.19205 25.6314C6.19205 25.6314 4.48891 25.6088 6.07309 26.7155C6.07309 26.7155 7.21636 27.2645 8.01053 29.3257C8.01053 29.3257 9.03485 32.5096 13.8899 31.4306C13.8977 32.921 13.9134 34.3262 13.9134 34.7514C13.9134 35.2225 13.5935 35.7751 12.721 35.6098C6.84736 33.6113 2.36128 28.509 1.12687 22.2045V22.2038C1.11262 22.1331 1.09905 22.0618 1.08699 21.9904C1.02004 21.6278 0.963736 21.2609 0.919562 20.891C0.910291 20.8182 0.902452 20.7454 0.894612 20.6719C0.823444 20.0188 0.787109 19.3555 0.787109 18.6835C0.787109 8.83181 8.60177 0.845459 18.2385 0.845459C27.8759 0.845459 35.6898 8.83181 35.6898 18.6835Z" fill="#222123"/>
</svg>
