<svg width="40" height="40" viewBox="0 0 40 40" fill="none" xmlns="http://www.w3.org/2000/svg">
<rect width="40.0004" height="40" rx="12" transform="matrix(-1 0 0 1 40 0)" fill="#EE5E5E"/>
<path fill-rule="evenodd" clip-rule="evenodd" d="M30.638 10.6262C30.9894 10.2748 30.9894 9.70492 30.638 9.35345C30.2865 9.00198 29.7166 9.00198 29.3652 9.35345L27.2605 11.4581C27.1292 11.3873 26.9971 11.324 26.8686 11.2678C26.8537 11.2613 26.8388 11.2552 26.8236 11.2496L21.8327 9.37923C21.2863 9.17517 20.6244 9.08984 20.0078 9.08984C19.3912 9.08984 18.7293 9.17517 18.1829 9.37923L18.1811 9.37992L13.1817 11.2597C12.4008 11.5519 11.7419 12.1349 11.282 12.7983C10.8219 13.4617 10.5078 14.2822 10.5078 15.1123V22.5423C10.5078 23.3111 10.7555 24.1332 11.1125 24.843C11.4063 25.4269 11.8056 25.9971 12.2811 26.4375L9.36517 29.3534C9.01369 29.7049 9.01369 30.2748 9.36517 30.6262C9.71664 30.9777 10.2865 30.9777 10.638 30.6262L30.638 10.6262ZM13.5554 25.1632L25.8949 12.8238L21.2029 11.0655C20.9193 10.9596 20.4861 10.8898 20.0078 10.8898C19.5299 10.8898 19.0972 10.9594 18.8136 11.0651L13.813 12.9453C13.4443 13.0832 13.0585 13.395 12.7612 13.8239C12.4637 14.253 12.3078 14.7225 12.3078 15.1123V22.5423C12.3078 22.9536 12.4501 23.4965 12.7206 24.0342C12.9583 24.5067 13.2595 24.9046 13.5554 25.1632ZM28.4336 14.293C28.9306 14.293 29.3336 14.6959 29.3336 15.193L29.3335 22.6707C29.3335 23.4394 29.0858 24.2615 28.7288 24.9714C28.3715 25.6815 27.8589 26.3708 27.2423 26.8316L22.9443 30.0401L22.9431 30.041C22.0548 30.7083 20.9231 31.0157 19.8335 31.0157C18.7438 31.0157 17.612 30.7082 16.7237 30.0408L16.7227 30.0401L15.1342 28.8512C14.7363 28.5534 14.6551 27.9894 14.9529 27.5914C15.2508 27.1935 15.8148 27.1123 16.2128 27.4102L17.8043 28.6013C18.3258 28.9934 19.0586 29.2157 19.8335 29.2157C20.6084 29.2157 21.3411 28.9934 21.8627 28.6013L21.8651 28.5995L26.1647 25.3898C26.4981 25.1406 26.8504 24.6999 27.1207 24.1625C27.3912 23.6249 27.5335 23.082 27.5335 22.6707L27.5336 15.193C27.5336 14.6959 27.9365 14.293 28.4336 14.293Z" fill="white"/>
</svg>
