<svg width="40" height="40" viewBox="0 0 40 40" fill="none" xmlns="http://www.w3.org/2000/svg">
<rect width="40.0004" height="40" rx="12" transform="matrix(-1 0 0 1 40 0)" fill="#EE5E5E"/>
<path fill-rule="evenodd" clip-rule="evenodd" d="M10.9016 19.9898C10.9016 14.9669 14.9786 10.8898 20.0016 10.8898C25.0245 10.8898 29.1016 14.9669 29.1016 19.9898C29.1016 25.0128 25.0245 29.0898 20.0016 29.0898C14.9786 29.0898 10.9016 25.0128 10.9016 19.9898ZM20.0016 9.08984C13.9845 9.08984 9.10156 13.9728 9.10156 19.9898C9.10156 26.0069 13.9845 30.8898 20.0016 30.8898C26.0186 30.8898 30.9016 26.0069 30.9016 19.9898C30.9016 13.9728 26.0186 9.08984 20.0016 9.08984ZM20.5109 15.5094C20.5109 15.0123 20.108 14.6094 19.6109 14.6094C19.1139 14.6094 18.7109 15.0123 18.7109 15.5094V19.6094C18.7109 20.1181 18.8826 20.621 19.1166 21.0315C19.3504 21.4414 19.695 21.8442 20.1307 22.1028L20.1321 22.1036L23.2297 23.9522C23.6566 24.2069 24.2091 24.0674 24.4638 23.6406C24.7185 23.2138 24.579 22.6613 24.1522 22.4065L21.0522 20.5565L21.0498 20.5551C20.9461 20.4937 20.8012 20.3519 20.6802 20.1398C20.5593 19.9277 20.5109 19.7306 20.5109 19.6094V15.5094Z" fill="white"/>
</svg>
