<svg width="55" height="55" viewBox="0 0 55 55" fill="none" xmlns="http://www.w3.org/2000/svg">
<circle cx="27.5" cy="27.5" r="27.5" fill="#DFFBFF"/>
<path fill-rule="evenodd" clip-rule="evenodd" d="M19.5803 18.5915C19.5803 18.1848 19.9527 17.3708 21.5732 16.5598C23.0947 15.7984 25.3124 15.2796 27.8524 15.2796C30.3923 15.2796 32.6101 15.7984 34.1316 16.5598C35.7502 17.3699 36.1236 18.183 36.1244 18.5901C36.1244 18.5906 36.1244 18.591 36.1244 18.5915C36.1244 18.592 36.1244 18.5925 36.1244 18.5931C36.1235 19.0003 35.7499 19.8132 34.1316 20.6231C32.6101 21.3846 30.3923 21.9033 27.8524 21.9033C25.3124 21.9033 23.0947 21.3846 21.5732 20.6231C19.9527 19.8122 19.5803 18.9982 19.5803 18.5915ZM19.5803 23.3109C19.7496 23.4076 19.9211 23.4991 20.0934 23.5853C22.1646 24.6219 24.9101 25.2152 27.8524 25.2152C30.7946 25.2152 33.5402 24.6219 35.6113 23.5853C35.7837 23.4991 35.9551 23.4076 36.1244 23.3109V26.8711V26.8723C36.1237 27.2793 35.7505 28.0925 34.1316 28.9028C32.6101 29.6642 30.3923 30.183 27.8524 30.183C25.3124 30.183 23.0947 29.6642 21.5732 28.9028C19.9542 28.0925 19.581 27.2793 19.5803 26.8723L19.5803 26.8711V23.3109ZM39.4333 18.5956V26.8693L39.4333 26.8711V26.874V35.1508C39.4333 37.4877 37.5835 39.1576 35.6113 40.1446C33.5402 41.1812 30.7946 41.7745 27.8524 41.7745C24.9101 41.7745 22.1646 41.1812 20.0934 40.1446C18.1212 39.1576 16.2715 37.4877 16.2715 35.1508V35.1486L16.2715 26.8736L16.2715 26.8711L16.2715 26.8696L16.2715 18.5915C16.2715 16.2545 18.1212 14.5846 20.0934 13.5976C22.1646 12.5611 24.9101 11.9678 27.8524 11.9678C30.7946 11.9678 33.5402 12.5611 35.6113 13.5976C37.5835 14.5846 39.4333 16.2545 39.4333 18.5915C39.4333 18.5929 39.4333 18.5942 39.4333 18.5956ZM35.6113 31.865C35.7837 31.7787 35.9551 31.6873 36.1244 31.5906V35.1508C36.1244 35.5575 35.752 36.3714 34.1316 37.1824C32.6101 37.9439 30.3923 38.4626 27.8524 38.4626C25.3124 38.4626 23.0947 37.9439 21.5732 37.1824C19.9545 36.3723 19.5811 35.5593 19.5803 35.1521L19.5803 35.1508L19.5803 31.5906C19.7496 31.6873 19.9211 31.7787 20.0934 31.865C22.1646 32.9015 24.9101 33.4948 27.8524 33.4948C30.7946 33.4948 33.5402 32.9015 35.6113 31.865Z" fill="#009CB7"/>
</svg>
