<svg fill="none" height="20" viewBox="0 0 19 20" width="19" xmlns="http://www.w3.org/2000/svg"><path d="m18.7111 18.2168-4.6838-4.9506c1.2043-1.4549 1.8641-3.28551 1.8641-5.19121 0-4.45248-3.5645-8.07499-7.94569-8.07499s-7.94571 3.62251-7.94571 8.07499c0 4.45251 3.56452 8.07501 7.94571 8.07501 1.64477 0 3.21219-.5042 4.55219-1.4612l4.7194 4.9882c.1973.2082.4626.323.7469.323.2691 0 .5244-.1043.7182-.2939.4118-.4027.425-1.0704.0287-1.4893zm-10.76539-16.11028c3.23839 0 5.87289 2.67739 5.87289 5.96847 0 3.29111-2.6345 5.96851-5.87289 5.96851s-5.87292-2.6774-5.87292-5.96851c0-3.29108 2.63453-5.96847 5.87292-5.96847z" fill="#00a0b6"/></svg>