<svg width="30" height="30" viewBox="0 0 30 30" fill="none" xmlns="http://www.w3.org/2000/svg">
<path fill-rule="evenodd" clip-rule="evenodd" d="M13.6875 10.6875C13.6875 11.3779 14.2471 11.9375 14.9375 11.9375H15.0625C15.7529 11.9375 16.3125 11.3779 16.3125 10.6875V10.5625C16.3125 9.87214 15.7529 9.3125 15.0625 9.3125H14.9375C14.2471 9.3125 13.6875 9.87214 13.6875 10.5625V10.6875Z" fill="#45B4C8"/>
<path fill-rule="evenodd" clip-rule="evenodd" d="M15 20.6875C15.6904 20.6875 16.25 20.1279 16.25 19.4375V14.4375C16.25 13.7471 15.6904 13.1875 15 13.1875C14.3096 13.1875 13.75 13.7471 13.75 14.4375V19.4375C13.75 20.1279 14.3096 20.6875 15 20.6875Z" fill="#45B4C8"/>
<path fill-rule="evenodd" clip-rule="evenodd" d="M2.5 25C2.5 26.3807 3.61929 27.5 5 27.5H25C26.3807 27.5 27.5 26.3807 27.5 25V5C27.5 3.61929 26.3807 2.5 25 2.5H5C3.61929 2.5 2.5 3.61929 2.5 5V25ZM25 25L5 25V5H25V25Z" fill="#45B4C8"/>
</svg>
