<svg width="30" height="30" viewBox="0 0 30 30" fill="none" xmlns="http://www.w3.org/2000/svg">
<path fill-rule="evenodd" clip-rule="evenodd" d="M4.37538 6.87695C4.37538 5.49624 5.49467 4.37695 6.87538 4.37695L11.8754 4.37695C13.2561 4.37695 14.3754 5.49624 14.3754 6.87695V11.877C14.3754 13.2577 13.2561 14.377 11.8754 14.377H6.87538C5.49467 14.377 4.37538 13.2577 4.37538 11.877L4.37538 6.87695ZM6.87538 6.87695L6.87538 11.877L11.8754 11.877V6.87695L6.87538 6.87695Z" fill="#45B4C8"/>
<path fill-rule="evenodd" clip-rule="evenodd" d="M4.37489 18.125C4.37489 16.7443 5.49418 15.625 6.87489 15.625L11.8749 15.625C13.2556 15.625 14.3749 16.7443 14.3749 18.125V23.125C14.3749 24.5057 13.2556 25.625 11.8749 25.625H6.87489C5.49418 25.625 4.37489 24.5057 4.37489 23.125L4.37489 18.125ZM11.8749 18.125L6.87489 18.125L6.87489 23.125L11.8749 23.125V18.125Z" fill="#45B4C8"/>
<path fill-rule="evenodd" clip-rule="evenodd" d="M15.6244 6.875C15.6244 5.49429 16.7437 4.375 18.1244 4.375L23.1244 4.375C24.5051 4.375 25.6244 5.49429 25.6244 6.875V11.875C25.6244 13.2557 24.5051 14.375 23.1244 14.375H18.1244C16.7437 14.375 15.6244 13.2557 15.6244 11.875L15.6244 6.875ZM23.1244 6.875L18.1244 6.875L18.1244 11.875L23.1244 11.875V6.875Z" fill="#45B4C8"/>
<path fill-rule="evenodd" clip-rule="evenodd" d="M15.6244 18.125C15.6244 16.7443 16.7437 15.625 18.1244 15.625L23.1244 15.625C24.5051 15.625 25.6244 16.7443 25.6244 18.125V23.125C25.6244 24.5057 24.5051 25.625 23.1244 25.625H18.1244C16.7437 25.625 15.6244 24.5057 15.6244 23.125L15.6244 18.125ZM23.1244 18.125L18.1244 18.125L18.1244 23.125L23.1244 23.125V18.125Z" fill="#45B4C8"/>
</svg>
