<svg width="30" height="30" viewBox="0 0 30 30" fill="none" xmlns="http://www.w3.org/2000/svg">
<path fill-rule="evenodd" clip-rule="evenodd" d="M3.75 6.25C3.75 4.86929 4.86929 3.75 6.25 3.75H12.5C13.1904 3.75 13.75 4.30964 13.75 5C13.75 5.69036 13.1904 6.25 12.5 6.25H6.25V23.75H23.75V17.5C23.75 16.8096 24.3096 16.25 25 16.25C25.6904 16.25 26.25 16.8096 26.25 17.5V23.75C26.25 25.1307 25.1307 26.25 23.75 26.25H6.25C4.86929 26.25 3.75 25.1307 3.75 23.75V6.25Z" fill="#45B4C8"/>
<path fill-rule="evenodd" clip-rule="evenodd" d="M22.8661 1.61612C23.3543 1.12796 24.1457 1.12796 24.6339 1.61612L28.3839 5.36612C28.872 5.85427 28.872 6.64573 28.3839 7.13388L17.1339 18.3839C16.8995 18.6183 16.5815 18.75 16.25 18.75H12.5C11.8096 18.75 11.25 18.1904 11.25 17.5V13.75C11.25 13.4185 11.3817 13.1005 11.6161 12.8661L22.8661 1.61612ZM13.75 14.2678V16.25H15.7322L25.7322 6.25L23.75 4.26777L13.75 14.2678Z" fill="#45B4C8"/>
<path fill-rule="evenodd" clip-rule="evenodd" d="M19.1161 5.36612C19.6043 4.87796 20.3957 4.87796 20.8839 5.36612L24.6339 9.11612C25.122 9.60427 25.122 10.3957 24.6339 10.8839C24.1457 11.372 23.3543 11.372 22.8661 10.8839L19.1161 7.13388C18.628 6.64573 18.628 5.85427 19.1161 5.36612Z" fill="#45B4C8"/>
</svg>
