<svg width="30" height="30" viewBox="0 0 30 30" fill="none" xmlns="http://www.w3.org/2000/svg">
<path fill-rule="evenodd" clip-rule="evenodd" d="M15 5C9.47715 5 5 9.47715 5 15C5 20.5228 9.47715 25 15 25C20.5228 25 25 20.5228 25 15C25 9.47715 20.5228 5 15 5ZM2.5 15C2.5 8.09644 8.09644 2.5 15 2.5C21.9036 2.5 27.5 8.09644 27.5 15C27.5 21.9036 21.9036 27.5 15 27.5C8.09644 27.5 2.5 21.9036 2.5 15Z" fill="#45B4C8"/>
<path fill-rule="evenodd" clip-rule="evenodd" d="M11.8841 10.1623C12.276 9.94037 12.757 9.94644 13.1431 10.1781L19.3931 13.9281C19.7696 14.154 20 14.5609 20 15C20 15.4391 19.7696 15.846 19.3931 16.0719L13.1431 19.8219C12.757 20.0536 12.276 20.0596 11.8841 19.8377C11.4922 19.6159 11.25 19.2003 11.25 18.75V11.25C11.25 10.7997 11.4922 10.3841 11.8841 10.1623ZM13.75 13.4577V16.5423L16.3204 15L13.75 13.4577Z" fill="#45B4C8"/>
</svg>
