<svg width="28" height="28" viewBox="0 0 28 28" fill="none" xmlns="http://www.w3.org/2000/svg">
<path fill-rule="evenodd" clip-rule="evenodd" d="M11.5755 1.16634L11.6673 1.16662H16.334L16.4258 1.16634C16.9332 1.16409 17.844 1.16005 18.5853 1.65423C19.2452 2.09415 19.6013 2.77491 19.7496 3.61303C21.3746 3.81186 22.828 4.31 23.8973 5.4658C25.1729 6.84473 25.6673 8.90741 25.6673 11.667V18.667C25.6673 21.021 25.3933 23.1686 24.0662 24.6853C22.7053 26.2405 20.5179 26.8337 17.5007 26.8337H10.5007C7.48339 26.8337 5.29597 26.2405 3.93514 24.6853C2.60804 23.1686 2.33398 21.021 2.33398 18.667V11.667C2.33398 8.91246 2.82869 6.85068 4.10349 5.47076C5.17234 4.31378 6.62545 3.81298 8.25162 3.61327C8.39989 2.77504 8.75606 2.09419 9.416 1.65423C10.1573 1.16005 11.0681 1.16409 11.5755 1.16634ZM8.3011 5.96097C7.1018 6.13806 6.33268 6.49633 5.81739 7.05411C5.14677 7.78003 4.66732 9.10158 4.66732 11.667V18.667C4.66732 20.9797 4.97659 22.3321 5.69116 23.1488C6.372 23.9269 7.68458 24.5004 10.5007 24.5004H17.5007C20.3167 24.5004 21.6293 23.9269 22.3101 23.1488C23.0247 22.3321 23.334 20.9797 23.334 18.667V11.667C23.334 9.09496 22.8542 7.77431 22.1845 7.05032C21.6747 6.49931 20.9161 6.14423 19.7362 5.96597C19.6664 6.2856 19.5478 6.61585 19.3464 6.91794C18.7339 7.83659 17.6547 8.16662 16.334 8.16662H11.6673L11.5755 8.1669C11.0681 8.16916 10.1573 8.1732 9.416 7.67902C8.82051 7.28202 8.47235 6.68889 8.3011 5.96097ZM17.5007 4.68296C17.5006 4.68828 17.5006 4.69359 17.5006 4.69889C17.5005 4.98949 17.4979 5.19281 17.4744 5.3692C17.4513 5.54252 17.4168 5.60578 17.4049 5.62364L17.4049 5.62366C17.4045 5.6246 17.3857 5.66326 17.2601 5.7121C17.1118 5.76975 16.8305 5.83329 16.334 5.83329H11.6673C11.3594 5.83329 11.1476 5.83145 10.9647 5.80707C10.7914 5.78396 10.7282 5.74947 10.7103 5.73756L10.7103 5.73756C10.7094 5.7371 10.6707 5.71832 10.6218 5.59273C10.5642 5.44449 10.5007 5.16317 10.5007 4.66662C10.5007 4.17008 10.5642 3.88876 10.6218 3.74052C10.6707 3.61493 10.7093 3.59615 10.7103 3.59569L10.7103 3.59568C10.7282 3.58378 10.7914 3.54929 10.9647 3.52618C11.1476 3.5018 11.3594 3.49996 11.6673 3.49996H16.334C16.6419 3.49996 16.8537 3.5018 17.0366 3.52618C17.2099 3.54929 17.2731 3.58378 17.291 3.59568L17.291 3.59569C17.292 3.59615 17.3306 3.61493 17.3795 3.74052C17.4371 3.88876 17.5007 4.17008 17.5007 4.66662C17.5007 4.6721 17.5007 4.67755 17.5007 4.68296ZM12.5386 13.4083C12.083 12.9527 11.3443 12.9527 10.8887 13.4083C10.4331 13.8639 10.4331 14.6026 10.8887 15.0582L12.3741 16.5437L10.8424 18.0754C10.3867 18.531 10.3867 19.2697 10.8424 19.7253C11.298 20.181 12.0367 20.181 12.4923 19.7253L14.024 18.1936L15.5087 19.6782C15.9643 20.1339 16.703 20.1339 17.1586 19.6782C17.6142 19.2226 17.6142 18.4839 17.1586 18.0283L15.6739 16.5437L17.1123 15.1053C17.5679 14.6497 17.5679 13.911 17.1123 13.4554C16.6567 12.9998 15.918 12.9998 15.4624 13.4554L14.024 14.8938L12.5386 13.4083Z" fill="#EE5E5E"/>
</svg>
