<svg width="28" height="28" viewBox="0 0 28 28" fill="none" xmlns="http://www.w3.org/2000/svg">
<path fill-rule="evenodd" clip-rule="evenodd" d="M4.66732 8.1665C4.66732 6.59535 5.06028 5.46428 5.74099 4.7312C6.3999 4.02161 7.49054 3.51109 9.27461 3.50002L9.28718 4.14108L9.28717 4.14108L9.28731 4.14701C9.32611 5.71834 10.6189 6.99984 12.2036 6.99984H15.727C17.3447 6.99984 18.6436 5.67911 18.6436 4.08317V3.49984H18.6673C20.4866 3.49984 21.5941 4.01377 22.2603 4.7312C22.941 5.46428 23.334 6.59535 23.334 8.1665V16.3332C23.334 16.9775 23.8563 17.4998 24.5007 17.4998C25.145 17.4998 25.6673 16.9775 25.6673 16.3332V8.1665C25.6673 6.23766 25.1853 4.45206 23.9702 3.14348C22.7405 1.81924 20.9314 1.1665 18.6673 1.1665H10.4191H9.33398C7.06995 1.1665 5.26079 1.81924 4.03114 3.14348C2.81603 4.45206 2.33398 6.23766 2.33398 8.1665V19.8332C2.33398 21.762 2.81603 23.5476 4.03114 24.8562C5.26079 26.1804 7.06995 26.8332 9.33398 26.8332H15.1673C15.8117 26.8332 16.334 26.3108 16.334 25.6665C16.334 25.0222 15.8117 24.4998 15.1673 24.4998H9.33398C7.51468 24.4998 6.40718 23.9859 5.74099 23.2685C5.06028 22.5354 4.66732 21.4043 4.66732 19.8332V8.1665ZM11.6084 3.49984L11.62 4.09158C11.629 4.40925 11.899 4.66651 12.2036 4.66651H15.727C16.0459 4.66651 16.3103 4.40057 16.3103 4.08317V3.49984H11.6084ZM20.325 20.9916C20.7806 20.536 20.7806 19.7973 20.325 19.3417C19.8693 18.8861 19.1307 18.8861 18.675 19.3417L16.3417 21.675C15.8861 22.1307 15.8861 22.8693 16.3417 23.325L18.675 25.6583C19.1307 26.1139 19.8693 26.1139 20.325 25.6583C20.7806 25.2027 20.7806 24.464 20.325 24.0084L18.8166 22.5L20.325 20.9916ZM22.1757 19.3417C22.6313 18.8861 23.37 18.8861 23.8256 19.3417L26.1589 21.675C26.6146 22.1307 26.6146 22.8693 26.1589 23.325L23.8256 25.6583C23.37 26.1139 22.6313 26.1139 22.1757 25.6583C21.7201 25.2027 21.7201 24.464 22.1757 24.0084L23.6841 22.5L22.1757 20.9916C21.7201 20.536 21.7201 19.7973 22.1757 19.3417Z" fill="#EE5E5E"/>
<path fill-rule="evenodd" clip-rule="evenodd" d="M12.3284 10.3896C11.8077 9.86884 10.9634 9.86884 10.4426 10.3896C9.9219 10.9103 9.9219 11.7546 10.4426 12.2754L12.1409 13.9737L10.3906 15.7241C9.86981 16.2448 9.86981 17.0891 10.3906 17.6098C10.9113 18.1306 11.7556 18.1306 12.2763 17.6098L14.0267 15.8594L15.7231 17.5558C16.2438 18.0765 17.0881 18.0765 17.6089 17.5558C18.1296 17.035 18.1296 16.1908 17.6089 15.67L15.9125 13.9737L17.5568 12.3294C18.0775 11.8086 18.0775 10.9644 17.5568 10.4436C17.036 9.92288 16.1917 9.92288 15.671 10.4436L14.0267 12.0879L12.3284 10.3896Z" fill="#EE5E5E"/>
</svg>
