<svg fill="none" height="339" viewBox="0 0 507 339" width="507" xmlns="http://www.w3.org/2000/svg" xmlns:xlink="http://www.w3.org/1999/xlink"><filter id="a" color-interpolation-filters="sRGB" filterUnits="userSpaceOnUse" height="339" width="424" x="31" y="0"><feFlood flood-opacity="0" result="BackgroundImageFix"/><feColorMatrix in="SourceAlpha" result="hardAlpha" type="matrix" values="0 0 0 0 0 0 0 0 0 0 0 0 0 0 0 0 0 0 127 0"/><feOffset dx="2" dy="8"/><feGaussianBlur stdDeviation="17.5"/><feColorMatrix type="matrix" values="0 0 0 0 0 0 0 0 0 0.351917 0 0 0 0 0.429167 0 0 0 0.15 0"/><feBlend in2="BackgroundImageFix" mode="normal" result="effect1_dropShadow"/><feBlend in="SourceGraphic" in2="effect1_dropShadow" mode="normal" result="shape"/></filter><filter id="b" color-interpolation-filters="sRGB" filterUnits="userSpaceOnUse" height="153" width="154" x="353" y="163"><feFlood flood-opacity="0" result="BackgroundImageFix"/><feColorMatrix in="SourceAlpha" result="hardAlpha" type="matrix" values="0 0 0 0 0 0 0 0 0 0 0 0 0 0 0 0 0 0 127 0"/><feOffset dy="9"/><feGaussianBlur stdDeviation="15"/><feColorMatrix type="matrix" values="0 0 0 0 0.593438 0 0 0 0 0.707729 0 0 0 0 0.879167 0 0 0 0.25 0"/><feBlend in2="BackgroundImageFix" mode="normal" result="effect1_dropShadow"/><feBlend in="SourceGraphic" in2="effect1_dropShadow" mode="normal" result="shape"/></filter><filter id="c" color-interpolation-filters="sRGB" filterUnits="userSpaceOnUse" height="162" width="162" x="342" y="149"><feFlood flood-opacity="0" result="BackgroundImageFix"/><feColorMatrix in="SourceAlpha" result="hardAlpha" type="matrix" values="0 0 0 0 0 0 0 0 0 0 0 0 0 0 0 0 0 0 127 0"/><feOffset dx="2" dy="8"/><feGaussianBlur stdDeviation="17.5"/><feColorMatrix type="matrix" values="0 0 0 0 0 0 0 0 0 0.351917 0 0 0 0 0.429167 0 0 0 0.15 0"/><feBlend in2="BackgroundImageFix" mode="normal" result="effect1_dropShadow"/><feBlend in="SourceGraphic" in2="effect1_dropShadow" mode="normal" result="shape"/></filter><filter id="d" color-interpolation-filters="sRGB" filterUnits="userSpaceOnUse" height="124.851" width="124.851" x="85" y="68"><feFlood flood-opacity="0" result="BackgroundImageFix"/><feColorMatrix in="SourceAlpha" result="hardAlpha" type="matrix" values="0 0 0 0 0 0 0 0 0 0 0 0 0 0 0 0 0 0 127 0"/><feOffset dy="9"/><feGaussianBlur stdDeviation="15"/><feColorMatrix type="matrix" values="0 0 0 0 0.593438 0 0 0 0 0.707729 0 0 0 0 0.879167 0 0 0 0.25 0"/><feBlend in2="BackgroundImageFix" mode="normal" result="effect1_dropShadow"/><feBlend in="SourceGraphic" in2="effect1_dropShadow" mode="normal" result="shape"/></filter><filter id="e" color-interpolation-filters="sRGB" filterUnits="userSpaceOnUse" height="44.5226" width="44.5226" x="389.812" y="190.811"><feFlood flood-opacity="0" result="BackgroundImageFix"/><feColorMatrix in="SourceAlpha" result="hardAlpha" type="matrix" values="0 0 0 0 0 0 0 0 0 0 0 0 0 0 0 0 0 0 127 0"/><feOffset dx="2" dy="2"/><feGaussianBlur stdDeviation="2"/><feColorMatrix type="matrix" values="0 0 0 0 0.0846528 0 0 0 0 0.150363 0 0 0 0 0.383333 0 0 0 0.25 0"/><feBlend in2="BackgroundImageFix" mode="normal" result="effect1_dropShadow"/><feBlend in="SourceGraphic" in2="effect1_dropShadow" mode="normal" result="shape"/></filter><filter id="f" color-interpolation-filters="sRGB" filterUnits="userSpaceOnUse" height="131" width="131" x="0" y="112"><feFlood flood-opacity="0" result="BackgroundImageFix"/><feColorMatrix in="SourceAlpha" result="hardAlpha" type="matrix" values="0 0 0 0 0 0 0 0 0 0 0 0 0 0 0 0 0 0 127 0"/><feOffset dx="2" dy="8"/><feGaussianBlur stdDeviation="17.5"/><feColorMatrix type="matrix" values="0 0 0 0 0 0 0 0 0 0.351917 0 0 0 0 0.429167 0 0 0 0.15 0"/><feBlend in2="BackgroundImageFix" mode="normal" result="effect1_dropShadow"/><feBlend in="SourceGraphic" in2="effect1_dropShadow" mode="normal" result="shape"/></filter><filter id="g" color-interpolation-filters="sRGB" filterUnits="userSpaceOnUse" height="85" width="85" x="86" y="165"><feFlood flood-opacity="0" result="BackgroundImageFix"/><feColorMatrix in="SourceAlpha" result="hardAlpha" type="matrix" values="0 0 0 0 0 0 0 0 0 0 0 0 0 0 0 0 0 0 127 0"/><feOffset dy="9"/><feGaussianBlur stdDeviation="15"/><feColorMatrix type="matrix" values="0 0 0 0 0.593438 0 0 0 0 0.707729 0 0 0 0 0.879167 0 0 0 0.25 0"/><feBlend in2="BackgroundImageFix" mode="normal" result="effect1_dropShadow"/><feBlend in="SourceGraphic" in2="effect1_dropShadow" mode="normal" result="shape"/></filter><filter id="h" color-interpolation-filters="sRGB" filterUnits="userSpaceOnUse" height="77" width="77" x="379" y="68"><feFlood flood-opacity="0" result="BackgroundImageFix"/><feColorMatrix in="SourceAlpha" result="hardAlpha" type="matrix" values="0 0 0 0 0 0 0 0 0 0 0 0 0 0 0 0 0 0 127 0"/><feOffset dy="9"/><feGaussianBlur stdDeviation="15"/><feColorMatrix type="matrix" values="0 0 0 0 0.593438 0 0 0 0 0.707729 0 0 0 0 0.879167 0 0 0 0.25 0"/><feBlend in2="BackgroundImageFix" mode="normal" result="effect1_dropShadow"/><feBlend in="SourceGraphic" in2="effect1_dropShadow" mode="normal" result="shape"/></filter><filter id="i" color-interpolation-filters="sRGB" filterUnits="userSpaceOnUse" height="85" width="85" x="86" y="218"><feFlood flood-opacity="0" result="BackgroundImageFix"/><feColorMatrix in="SourceAlpha" result="hardAlpha" type="matrix" values="0 0 0 0 0 0 0 0 0 0 0 0 0 0 0 0 0 0 127 0"/><feOffset dy="9"/><feGaussianBlur stdDeviation="15"/><feColorMatrix type="matrix" values="0 0 0 0 0.593438 0 0 0 0 0.707729 0 0 0 0 0.879167 0 0 0 0.25 0"/><feBlend in2="BackgroundImageFix" mode="normal" result="effect1_dropShadow"/><feBlend in="SourceGraphic" in2="effect1_dropShadow" mode="normal" result="shape"/></filter><linearGradient id="j"><stop offset="0" stop-color="#b0e7c6"/><stop offset="1" stop-color="#5dd1b3"/></linearGradient><linearGradient id="k" gradientUnits="userSpaceOnUse" x1="430" x2="430" xlink:href="#j" y1="184" y2="277"/><linearGradient id="l"><stop offset="0" stop-color="#85beff"/><stop offset="1" stop-color="#5183bb"/></linearGradient><linearGradient id="m" gradientUnits="userSpaceOnUse" x1="336" x2="336" xlink:href="#l" y1="90" y2="153"/><linearGradient id="n" gradientUnits="userSpaceOnUse" x1="245" x2="245" xlink:href="#l" y1="90" y2="153"/><linearGradient id="o" gradientUnits="userSpaceOnUse" x1="432.048" x2="432.048" xlink:href="#j" y1="214.478" y2="251"/><linearGradient id="p" gradientUnits="userSpaceOnUse" x1="410.073" x2="410.073" xlink:href="#l" y1="192.811" y2="229.334"/><linearGradient id="q" gradientUnits="userSpaceOnUse" x1="30.5" x2="30.5" y1="14.9044" y2="61"><stop offset="0" stop-color="#ffed49"/><stop offset="1" stop-color="#ffc369"/></linearGradient><linearGradient id="r" gradientUnits="userSpaceOnUse" x1="12.5" x2="12.5" xlink:href="#l" y1="0" y2="25"/><linearGradient id="s" gradientUnits="userSpaceOnUse" x1="8.5" x2="8.5" xlink:href="#j" y1="0" y2="17"/><g filter="url(#a)"><rect fill="#f7fbfd" height="269" rx="15" width="354" x="64" y="27"/></g><path d="m64 42c0-8.2843 6.7157-15 15-15h324c8.284 0 15 6.7157 15 15v14h-354z" fill="#d4e7f0"/><circle cx="83.5" cy="41.5" fill="#004e82" r="4.5"/><circle cx="97.5" cy="41.5" fill="#004e82" opacity=".201758" r="4.5"/><circle cx="111.5" cy="41.5" fill="#004e82" opacity=".201758" r="4.5"/><g filter="url(#b)"><path d="m477 219.2c0-12.321 0-18.482-2.398-23.188-2.109-4.139-5.475-7.505-9.614-9.614-4.706-2.398-10.867-2.398-23.188-2.398h-23.6c-12.321 0-18.482 0-23.188 2.398-4.139 2.109-7.505 5.475-9.614 9.614-2.398 4.706-2.398 10.867-2.398 23.188v22.6c0 12.321 0 18.482 2.398 23.188 2.109 4.139 5.475 7.505 9.614 9.614 4.706 2.398 10.867 2.398 23.188 2.398h15.6c15.121 0 22.682 0 28.458-2.943 5.08-2.588 9.211-6.719 11.799-11.799 2.943-5.776 2.943-13.337 2.943-28.458z" fill="url(#k)"/></g><g filter="url(#c)"><rect fill="#fff" height="92" rx="22" transform="matrix(-1 0 0 1 467 176)" width="92"/></g><g filter="url(#d)"><rect height="62.8507" rx="15" stroke="#5183bb" stroke-dasharray="4 4" stroke-width="2" transform="matrix(-1 0 0 1 178.851 90)" width="62.8507"/></g><path d="m147 112v19" stroke="#5183bb" stroke-linecap="round" stroke-linejoin="round" stroke-miterlimit="1.41421" stroke-width="2"/><path d="m137.5 121.5h19" stroke="#5183bb" stroke-linecap="round" stroke-linejoin="round" stroke-miterlimit="1.41421" stroke-width="2"/><path d="m316 90c-2.2 0-4 1.7719-4 3.9375v55.1245c0 2.166 1.8 3.938 4 3.938h40c2.2 0 4-1.772 4-3.938v-43.942l-15.021-15.12z" fill="url(#m)"/><path d="m328.91 122.651c0 1.073-.296 1.899-.888 2.479-.589.58-1.418.87-2.487.87h-2.079v-6.425h2.224c1.031 0 1.826.264 2.386.791.562.528.844 1.289.844 2.285zm-1.802.062c0-.589-.117-1.025-.352-1.31-.231-.284-.584-.426-1.059-.426h-.505v3.599h.387c.527 0 .914-.152 1.16-.457.246-.307.369-.776.369-1.406zm8.969.066c0 1.081-.265 1.903-.795 2.465-.53.563-1.307.844-2.329.844-1.008 0-1.782-.283-2.321-.848-.536-.566-.804-1.389-.804-2.47 0-1.069.267-1.885.8-2.448.536-.565 1.314-.848 2.334-.848 1.022 0 1.797.28 2.324.839.528.56.791 1.382.791 2.466zm-4.421 0c0 1.242.432 1.863 1.297 1.863.439 0 .764-.151.975-.453.214-.301.321-.772.321-1.41 0-.642-.108-1.115-.325-1.42-.214-.307-.535-.461-.962-.461-.871 0-1.306.627-1.306 1.881zm8.442-1.872c-.413 0-.735.17-.967.51-.231.336-.347.802-.347 1.397 0 1.236.47 1.854 1.411 1.854.284 0 .559-.039.826-.118s.535-.175.804-.286v1.468c-.536.237-1.142.356-1.819.356-.97 0-1.714-.281-2.232-.844-.516-.562-.774-1.375-.774-2.439 0-.665.125-1.249.374-1.753.252-.504.612-.891 1.081-1.16.471-.273 1.025-.409 1.661-.409.694 0 1.358.151 1.991.453l-.532 1.366c-.238-.111-.475-.205-.712-.281s-.492-.114-.765-.114zm8.772 5.093h-2.009l-1.252-2.008-1.239 2.008h-1.965l2.132-3.287-2.004-3.138h1.925l1.16 1.987 1.116-1.987h1.982l-2.035 3.274z" fill="#fff"/><path d="m348.496 105h11.504l-15-15v11.42c0 2.099 1.387 3.58 3.496 3.58z" fill="#5183bb"/><path d="m225 90c-2.2 0-4 1.7719-4 3.9375v55.1245c0 2.166 1.8 3.938 4 3.938h40c2.2 0 4-1.772 4-3.938v-43.942l-15.021-15.12z" fill="url(#n)"/><path d="m237.91 122.651c0 1.073-.296 1.899-.888 2.479-.589.58-1.418.87-2.487.87h-2.079v-6.425h2.224c1.031 0 1.826.264 2.386.791.562.528.844 1.289.844 2.285zm-1.802.062c0-.589-.117-1.025-.352-1.31-.231-.284-.584-.426-1.059-.426h-.505v3.599h.387c.527 0 .914-.152 1.16-.457.246-.307.369-.776.369-1.406zm8.969.066c0 1.081-.265 1.903-.795 2.465-.53.563-1.307.844-2.329.844-1.008 0-1.782-.283-2.321-.848-.536-.566-.804-1.389-.804-2.47 0-1.069.267-1.885.8-2.448.536-.565 1.314-.848 2.334-.848 1.022 0 1.797.28 2.324.839.528.56.791 1.382.791 2.466zm-4.421 0c0 1.242.432 1.863 1.297 1.863.439 0 .764-.151.975-.453.214-.301.321-.772.321-1.41 0-.642-.108-1.115-.325-1.42-.214-.307-.535-.461-.962-.461-.871 0-1.306.627-1.306 1.881zm8.442-1.872c-.413 0-.735.17-.967.51-.231.336-.347.802-.347 1.397 0 1.236.47 1.854 1.411 1.854.284 0 .559-.039.826-.118s.535-.175.804-.286v1.468c-.536.237-1.142.356-1.819.356-.97 0-1.714-.281-2.232-.844-.516-.562-.774-1.375-.774-2.439 0-.665.125-1.249.374-1.753.252-.504.612-.891 1.081-1.16.471-.273 1.025-.409 1.661-.409.694 0 1.358.151 1.991.453l-.532 1.366c-.238-.111-.475-.205-.712-.281s-.492-.114-.765-.114zm8.772 5.093h-2.009l-1.252-2.008-1.239 2.008h-1.965l2.132-3.287-2.004-3.138h1.925l1.16 1.987 1.116-1.987h1.982l-2.035 3.274z" fill="#fff"/><path d="m257.496 105h11.504l-15-15v11.42c0 2.099 1.387 3.58 3.496 3.58z" fill="#5183bb"/><path d="m414.097 229.701v11.232c0 2.069 1.691 3.746 3.779 3.746h17.125l7.795 6.321v-6.321h3.425c2.087 0 3.779-1.677 3.779-3.746v-22.709c0-2.069-1.692-3.746-3.779-3.746h-17.711z" fill="url(#o)"/><g filter="url(#e)"><path d="m410.073 192.811c-10.086 0-18.261 8.176-18.261 18.261 0 4.013 1.295 7.723 3.489 10.737l-2.251 4.945 5.571-1.456v-.002c3.132 2.525 7.115 4.038 11.452 4.038 10.085 0 18.261-8.176 18.261-18.262 0-10.085-8.176-18.261-18.261-18.261z" fill="url(#p)"/></g><path clip-rule="evenodd" d="m432.079 223.077 1.253-.001 4.967 13.16-2.714 1.024-1.179-3.125h-2.327v.001h-2.319l-1.191 3.127-2.71-1.033 5.009-13.151zm0 4.969v.001l-1.214 3.189h.934v-.001h1.513l-1.218-3.227z" fill="#fff" fill-rule="evenodd"/><path clip-rule="evenodd" d="m409.996 209.038h-2.131c.204 1.615.93 3.025 2.131 4.13v.001l.001-.001c1.201-1.105 1.927-2.515 2.131-4.13h-2.131l-.001-.001zm0-5.821v-.002h-1.436v2.95h-6.164v2.873h2.579c.198 2.154 1.066 4.116 2.507 5.678-1.245.495-2.673.758-4.202.758h-1.065v2.873h1.065c2.496 0 4.814-.578 6.716-1.653v-.002l.001.002c1.902 1.075 4.22 1.653 6.716 1.653v-2.873c-1.529 0-2.957-.263-4.202-.758 1.441-1.561 2.308-3.524 2.507-5.678h2.578v-2.873h-6.163v-2.95h-1.436z" fill="#fff" fill-rule="evenodd"/><g filter="url(#f)"><rect fill="url(#q)" height="61" rx="20" transform="matrix(-1 0 0 1 94 139)" width="61"/></g><path d="m77.3431 173.344-2.6459-2.069c.0336-.319.0623-.692.0623-1.086 0-.395-.0276-.768-.0623-1.087l2.6483-2.07c.4918-.389.6261-1.078.313-1.653l-2.7514-4.76c-.2939-.538-.938-.814-1.5916-.573l-3.1221 1.254c-.5985-.432-1.2259-.797-1.8747-1.088l-.475-3.312c-.078-.628-.6249-1.103-1.2714-1.103h-5.5173c-.6465 0-1.1922.475-1.269 1.094l-.4761 3.323c-.6285.283-1.2462.643-1.8711 1.088l-3.1305-1.257c-.5865-.226-1.2882.028-1.5797.563l-2.755 4.766c-.325.55-.1907 1.263.3119 1.661l2.6459 2.069c-.042.405-.0624.756-.0624 1.086s.0204.681.0624 1.087l-2.6483 2.07c-.4918.39-.6249 1.079-.3119 1.653l2.7515 4.76c.2939.536.9319.814 1.5916.572l3.1221-1.253c.5973.43 1.2246.795 1.8735 1.088l.475 3.31c.0779.631.6236 1.106 1.2713 1.106h5.5173c.6465 0 1.1935-.475 1.2702-1.094l.4762-3.322c.6285-.285 1.245-.643 1.871-1.089l3.1305 1.257c.1511.058.3083.088.4702.088.4654 0 .8936-.254 1.1095-.65l2.7634-4.785c.3071-.562.1727-1.251-.3214-1.644zm-13.5294 1.644c-2.6459 0-4.7977-2.152-4.7977-4.798s2.1518-4.798 4.7977-4.798 4.7976 2.152 4.7976 4.798-2.1517 4.798-4.7976 4.798z" fill="#fff"/><g filter="url(#g)"><rect fill="url(#r)" height="25" rx="12.5" transform="matrix(-1 0 0 1 141 186)" width="25"/></g><g filter="url(#h)"><rect fill="url(#s)" height="17" rx="8.5" transform="matrix(-1 0 0 1 426 89)" width="17"/></g><g filter="url(#i)"><rect fill="url(#r)" height="25" rx="12.5" transform="matrix(-1 0 0 1 141 239)" width="25"/></g><g fill="#d4e7f0"><rect height="6" rx="3" width="63" x="153" y="189"/><rect height="6" rx="3" width="125" x="153" y="202"/><rect height="6" rx="3" width="63" x="153" y="241"/><rect height="6" rx="3" width="125" x="153" y="254"/></g></svg>