<svg width="507" height="339" viewBox="0 0 507 339" fill="none" xmlns="http://www.w3.org/2000/svg">
<g filter="url(#filter0_d)">
<rect x="64" y="27" width="354" height="269" rx="15" fill="#F7FBFD"/>
</g>
<path d="M64 42C64 33.7157 70.7157 27 79 27H403C411.284 27 418 33.7157 418 42V56H64V42Z" fill="#D4E7F0"/>
<circle cx="83.5" cy="41.5" r="4.5" fill="#004E82"/>
<circle opacity="0.201758" cx="97.5" cy="41.5" r="4.5" fill="#004E82"/>
<circle opacity="0.201758" cx="111.5" cy="41.5" r="4.5" fill="#004E82"/>
<g filter="url(#filter1_d)">
<path d="M477 219.2C477 206.879 477 200.718 474.602 196.012C472.493 191.873 469.127 188.507 464.988 186.398C460.282 184 454.121 184 441.8 184H418.2C405.879 184 399.718 184 395.012 186.398C390.873 188.507 387.507 191.873 385.398 196.012C383 200.718 383 206.879 383 219.2V241.8C383 254.121 383 260.282 385.398 264.988C387.507 269.127 390.873 272.493 395.012 274.602C399.718 277 405.879 277 418.2 277H433.8C448.921 277 456.482 277 462.258 274.057C467.338 271.469 471.469 267.338 474.057 262.258C477 256.482 477 248.921 477 233.8V219.2Z" fill="url(#paint0_linear)"/>
</g>
<g filter="url(#filter2_d)">
<rect width="92" height="92" rx="22" transform="matrix(-1 0 0 1 467 176)" fill="white"/>
</g>
<g filter="url(#filter3_d)">
<rect width="62.8507" height="62.8507" rx="15" transform="matrix(-1 0 0 1 178.851 90)" stroke="#5183BB" stroke-width="2" stroke-dasharray="4 4"/>
</g>
<path d="M147 112V131" stroke="#5183BB" stroke-width="2" stroke-miterlimit="1.41421" stroke-linecap="round" stroke-linejoin="round"/>
<path d="M137.5 121.5L156.5 121.5" stroke="#5183BB" stroke-width="2" stroke-miterlimit="1.41421" stroke-linecap="round" stroke-linejoin="round"/>
<path d="M316 90C313.8 90 312 91.7719 312 93.9375V149.062C312 151.228 313.8 153 316 153H356C358.2 153 360 151.228 360 149.062V105.12L344.979 90H316Z" fill="url(#paint1_linear)"/>
<path d="M328.91 122.651C328.91 123.724 328.614 124.55 328.022 125.13C327.433 125.71 326.604 126 325.535 126H323.456V119.575H325.68C326.711 119.575 327.506 119.839 328.066 120.366C328.628 120.894 328.91 121.655 328.91 122.651ZM327.108 122.713C327.108 122.124 326.991 121.688 326.756 121.403C326.525 121.119 326.172 120.977 325.697 120.977H325.192V124.576H325.579C326.106 124.576 326.493 124.424 326.739 124.119C326.985 123.812 327.108 123.343 327.108 122.713ZM336.077 122.779C336.077 123.86 335.812 124.682 335.282 125.244C334.752 125.807 333.975 126.088 332.953 126.088C331.945 126.088 331.171 125.805 330.632 125.24C330.096 124.674 329.828 123.851 329.828 122.77C329.828 121.701 330.095 120.885 330.628 120.322C331.164 119.757 331.942 119.474 332.962 119.474C333.984 119.474 334.759 119.754 335.286 120.313C335.814 120.873 336.077 121.695 336.077 122.779ZM331.656 122.779C331.656 124.021 332.088 124.642 332.953 124.642C333.392 124.642 333.717 124.491 333.928 124.189C334.142 123.888 334.249 123.417 334.249 122.779C334.249 122.137 334.141 121.664 333.924 121.359C333.71 121.052 333.389 120.898 332.962 120.898C332.091 120.898 331.656 121.525 331.656 122.779ZM340.098 120.907C339.685 120.907 339.363 121.077 339.131 121.417C338.9 121.753 338.784 122.219 338.784 122.814C338.784 124.05 339.254 124.668 340.195 124.668C340.479 124.668 340.754 124.629 341.021 124.55C341.288 124.471 341.556 124.375 341.825 124.264V125.732C341.289 125.969 340.683 126.088 340.006 126.088C339.036 126.088 338.292 125.807 337.774 125.244C337.258 124.682 337 123.869 337 122.805C337 122.14 337.125 121.556 337.374 121.052C337.626 120.548 337.986 120.161 338.455 119.892C338.926 119.619 339.48 119.483 340.116 119.483C340.81 119.483 341.474 119.634 342.107 119.936L341.575 121.302C341.337 121.191 341.1 121.097 340.863 121.021C340.626 120.945 340.371 120.907 340.098 120.907ZM348.87 126H346.861L345.609 123.992L344.37 126H342.405L344.537 122.713L342.533 119.575H344.458L345.618 121.562L346.734 119.575H348.716L346.681 122.849L348.87 126Z" fill="white"/>
<path d="M348.496 105H360L345 90V101.42C345 103.519 346.387 105 348.496 105Z" fill="#5183BB"/>
<path d="M225 90C222.8 90 221 91.7719 221 93.9375V149.062C221 151.228 222.8 153 225 153H265C267.2 153 269 151.228 269 149.062V105.12L253.979 90H225Z" fill="url(#paint2_linear)"/>
<path d="M237.91 122.651C237.91 123.724 237.614 124.55 237.022 125.13C236.433 125.71 235.604 126 234.535 126H232.456V119.575H234.68C235.711 119.575 236.506 119.839 237.066 120.366C237.628 120.894 237.91 121.655 237.91 122.651ZM236.108 122.713C236.108 122.124 235.991 121.688 235.756 121.403C235.525 121.119 235.172 120.977 234.697 120.977H234.192V124.576H234.579C235.106 124.576 235.493 124.424 235.739 124.119C235.985 123.812 236.108 123.343 236.108 122.713ZM245.077 122.779C245.077 123.86 244.812 124.682 244.282 125.244C243.752 125.807 242.975 126.088 241.953 126.088C240.945 126.088 240.171 125.805 239.632 125.24C239.096 124.674 238.828 123.851 238.828 122.77C238.828 121.701 239.095 120.885 239.628 120.322C240.164 119.757 240.942 119.474 241.962 119.474C242.984 119.474 243.759 119.754 244.286 120.313C244.814 120.873 245.077 121.695 245.077 122.779ZM240.656 122.779C240.656 124.021 241.088 124.642 241.953 124.642C242.392 124.642 242.717 124.491 242.928 124.189C243.142 123.888 243.249 123.417 243.249 122.779C243.249 122.137 243.141 121.664 242.924 121.359C242.71 121.052 242.389 120.898 241.962 120.898C241.091 120.898 240.656 121.525 240.656 122.779ZM249.098 120.907C248.685 120.907 248.363 121.077 248.131 121.417C247.9 121.753 247.784 122.219 247.784 122.814C247.784 124.05 248.254 124.668 249.195 124.668C249.479 124.668 249.754 124.629 250.021 124.55C250.288 124.471 250.556 124.375 250.825 124.264V125.732C250.289 125.969 249.683 126.088 249.006 126.088C248.036 126.088 247.292 125.807 246.774 125.244C246.258 124.682 246 123.869 246 122.805C246 122.14 246.125 121.556 246.374 121.052C246.626 120.548 246.986 120.161 247.455 119.892C247.926 119.619 248.48 119.483 249.116 119.483C249.81 119.483 250.474 119.634 251.107 119.936L250.575 121.302C250.337 121.191 250.1 121.097 249.863 121.021C249.626 120.945 249.371 120.907 249.098 120.907ZM257.87 126H255.861L254.609 123.992L253.37 126H251.405L253.537 122.713L251.533 119.575H253.458L254.618 121.562L255.734 119.575H257.716L255.681 122.849L257.87 126Z" fill="white"/>
<path d="M257.496 105H269L254 90V101.42C254 103.519 255.387 105 257.496 105Z" fill="#5183BB"/>
<path d="M414.097 229.701V240.933C414.097 243.002 415.788 244.679 417.876 244.679H435.001L442.796 251V244.679H446.221C448.308 244.679 450 243.002 450 240.933V218.224C450 216.155 448.308 214.478 446.221 214.478H428.51L414.097 229.701Z" fill="url(#paint3_linear)"/>
<g filter="url(#filter4_d)">
<path d="M410.073 192.811C399.987 192.811 391.812 200.987 391.812 211.072C391.812 215.085 393.107 218.795 395.301 221.809L393.05 226.754L398.621 225.298V225.296C401.753 227.821 405.736 229.334 410.073 229.334C420.158 229.334 428.334 221.158 428.334 211.072C428.334 200.987 420.158 192.811 410.073 192.811Z" fill="url(#paint4_linear)"/>
</g>
<path fill-rule="evenodd" clip-rule="evenodd" d="M432.079 223.077L433.332 223.076L438.299 236.236L435.585 237.26L434.406 234.135H432.079V234.136H429.76L428.569 237.263L425.859 236.23L430.868 223.079L432.079 223.077L432.079 223.077ZM432.079 228.046V228.047L430.865 231.236H431.799L431.799 231.235H433.312L432.094 228.008L432.079 228.046Z" fill="white"/>
<path fill-rule="evenodd" clip-rule="evenodd" d="M409.996 209.038H407.865C408.069 210.653 408.795 212.063 409.996 213.168V213.169L409.997 213.168C411.198 212.063 411.924 210.653 412.128 209.038H409.997L409.996 209.037V209.038ZM409.996 203.217V203.215H408.56V206.165H402.396V209.038H404.975C405.173 211.192 406.041 213.154 407.482 214.716C406.237 215.211 404.809 215.474 403.28 215.474H402.215V218.347H403.28C405.776 218.347 408.094 217.769 409.996 216.694V216.692L409.997 216.694C411.899 217.769 414.217 218.347 416.713 218.347V215.474C415.184 215.474 413.756 215.211 412.511 214.716C413.952 213.155 414.819 211.192 415.018 209.038H417.596V206.165H411.433V203.215H409.997L409.996 203.217Z" fill="white"/>
<g filter="url(#filter5_d)">
<rect width="61" height="61" rx="20" transform="matrix(-1 0 0 1 94 139)" fill="url(#paint5_linear)"/>
</g>
<path d="M77.3431 173.344L74.6972 171.275C74.7308 170.956 74.7595 170.583 74.7595 170.189C74.7595 169.794 74.7319 169.421 74.6972 169.102L77.3455 167.032C77.8373 166.643 77.9716 165.954 77.6585 165.379L74.9071 160.619C74.6132 160.081 73.9691 159.805 73.3155 160.046L70.1934 161.3C69.5949 160.868 68.9675 160.503 68.3187 160.212L67.8437 156.9C67.7657 156.272 67.2188 155.797 66.5723 155.797H61.055C60.4085 155.797 59.8628 156.272 59.786 156.891L59.3099 160.214C58.6814 160.497 58.0637 160.857 57.4388 161.302L54.3083 160.045C53.7218 159.819 53.0201 160.073 52.7286 160.608L49.9736 165.374C49.6486 165.924 49.7829 166.637 50.2855 167.035L52.9314 169.104C52.8894 169.509 52.869 169.86 52.869 170.19C52.869 170.52 52.8894 170.871 52.9314 171.277L50.2831 173.347C49.7913 173.737 49.6582 174.426 49.9712 175L52.7227 179.76C53.0166 180.296 53.6546 180.574 54.3143 180.332L57.4364 179.079C58.0337 179.509 58.661 179.874 59.3099 180.167L59.7849 183.477C59.8628 184.108 60.4085 184.583 61.0562 184.583H66.5735C67.22 184.583 67.767 184.108 67.8437 183.489L68.3199 180.167C68.9484 179.882 69.5649 179.524 70.1909 179.078L73.3214 180.335C73.4725 180.393 73.6297 180.423 73.7916 180.423C74.257 180.423 74.6852 180.169 74.9011 179.773L77.6645 174.988C77.9716 174.426 77.8372 173.737 77.3431 173.344ZM63.8137 174.988C61.1678 174.988 59.016 172.836 59.016 170.19C59.016 167.544 61.1678 165.392 63.8137 165.392C66.4596 165.392 68.6113 167.544 68.6113 170.19C68.6113 172.836 66.4596 174.988 63.8137 174.988Z" fill="white"/>
<g filter="url(#filter6_d)">
<rect width="25" height="25" rx="12.5" transform="matrix(-1 0 0 1 141 186)" fill="url(#paint6_linear)"/>
</g>
<g filter="url(#filter7_d)">
<rect width="17" height="17" rx="8.5" transform="matrix(-1 0 0 1 426 89)" fill="url(#paint7_linear)"/>
</g>
<g filter="url(#filter8_d)">
<rect width="25" height="25" rx="12.5" transform="matrix(-1 0 0 1 141 239)" fill="url(#paint8_linear)"/>
</g>
<rect x="153" y="189" width="63" height="6" rx="3" fill="#D4E7F0"/>
<rect x="153" y="202" width="125" height="6" rx="3" fill="#D4E7F0"/>
<rect x="153" y="241" width="63" height="6" rx="3" fill="#D4E7F0"/>
<rect x="153" y="254" width="125" height="6" rx="3" fill="#D4E7F0"/>
<defs>
<filter id="filter0_d" x="31" y="0" width="424" height="339" filterUnits="userSpaceOnUse" color-interpolation-filters="sRGB">
<feFlood flood-opacity="0" result="BackgroundImageFix"/>
<feColorMatrix in="SourceAlpha" type="matrix" values="0 0 0 0 0 0 0 0 0 0 0 0 0 0 0 0 0 0 127 0" result="hardAlpha"/>
<feOffset dx="2" dy="8"/>
<feGaussianBlur stdDeviation="17.5"/>
<feColorMatrix type="matrix" values="0 0 0 0 0 0 0 0 0 0.351917 0 0 0 0 0.429167 0 0 0 0.15 0"/>
<feBlend mode="normal" in2="BackgroundImageFix" result="effect1_dropShadow"/>
<feBlend mode="normal" in="SourceGraphic" in2="effect1_dropShadow" result="shape"/>
</filter>
<filter id="filter1_d" x="353" y="163" width="154" height="153" filterUnits="userSpaceOnUse" color-interpolation-filters="sRGB">
<feFlood flood-opacity="0" result="BackgroundImageFix"/>
<feColorMatrix in="SourceAlpha" type="matrix" values="0 0 0 0 0 0 0 0 0 0 0 0 0 0 0 0 0 0 127 0" result="hardAlpha"/>
<feOffset dy="9"/>
<feGaussianBlur stdDeviation="15"/>
<feColorMatrix type="matrix" values="0 0 0 0 0.593438 0 0 0 0 0.707729 0 0 0 0 0.879167 0 0 0 0.25 0"/>
<feBlend mode="normal" in2="BackgroundImageFix" result="effect1_dropShadow"/>
<feBlend mode="normal" in="SourceGraphic" in2="effect1_dropShadow" result="shape"/>
</filter>
<filter id="filter2_d" x="342" y="149" width="162" height="162" filterUnits="userSpaceOnUse" color-interpolation-filters="sRGB">
<feFlood flood-opacity="0" result="BackgroundImageFix"/>
<feColorMatrix in="SourceAlpha" type="matrix" values="0 0 0 0 0 0 0 0 0 0 0 0 0 0 0 0 0 0 127 0" result="hardAlpha"/>
<feOffset dx="2" dy="8"/>
<feGaussianBlur stdDeviation="17.5"/>
<feColorMatrix type="matrix" values="0 0 0 0 0 0 0 0 0 0.351917 0 0 0 0 0.429167 0 0 0 0.15 0"/>
<feBlend mode="normal" in2="BackgroundImageFix" result="effect1_dropShadow"/>
<feBlend mode="normal" in="SourceGraphic" in2="effect1_dropShadow" result="shape"/>
</filter>
<filter id="filter3_d" x="85" y="68" width="124.851" height="124.851" filterUnits="userSpaceOnUse" color-interpolation-filters="sRGB">
<feFlood flood-opacity="0" result="BackgroundImageFix"/>
<feColorMatrix in="SourceAlpha" type="matrix" values="0 0 0 0 0 0 0 0 0 0 0 0 0 0 0 0 0 0 127 0" result="hardAlpha"/>
<feOffset dy="9"/>
<feGaussianBlur stdDeviation="15"/>
<feColorMatrix type="matrix" values="0 0 0 0 0.593438 0 0 0 0 0.707729 0 0 0 0 0.879167 0 0 0 0.25 0"/>
<feBlend mode="normal" in2="BackgroundImageFix" result="effect1_dropShadow"/>
<feBlend mode="normal" in="SourceGraphic" in2="effect1_dropShadow" result="shape"/>
</filter>
<filter id="filter4_d" x="389.812" y="190.811" width="44.5226" height="44.5226" filterUnits="userSpaceOnUse" color-interpolation-filters="sRGB">
<feFlood flood-opacity="0" result="BackgroundImageFix"/>
<feColorMatrix in="SourceAlpha" type="matrix" values="0 0 0 0 0 0 0 0 0 0 0 0 0 0 0 0 0 0 127 0" result="hardAlpha"/>
<feOffset dx="2" dy="2"/>
<feGaussianBlur stdDeviation="2"/>
<feColorMatrix type="matrix" values="0 0 0 0 0.0846528 0 0 0 0 0.150363 0 0 0 0 0.383333 0 0 0 0.25 0"/>
<feBlend mode="normal" in2="BackgroundImageFix" result="effect1_dropShadow"/>
<feBlend mode="normal" in="SourceGraphic" in2="effect1_dropShadow" result="shape"/>
</filter>
<filter id="filter5_d" x="0" y="112" width="131" height="131" filterUnits="userSpaceOnUse" color-interpolation-filters="sRGB">
<feFlood flood-opacity="0" result="BackgroundImageFix"/>
<feColorMatrix in="SourceAlpha" type="matrix" values="0 0 0 0 0 0 0 0 0 0 0 0 0 0 0 0 0 0 127 0" result="hardAlpha"/>
<feOffset dx="2" dy="8"/>
<feGaussianBlur stdDeviation="17.5"/>
<feColorMatrix type="matrix" values="0 0 0 0 0 0 0 0 0 0.351917 0 0 0 0 0.429167 0 0 0 0.15 0"/>
<feBlend mode="normal" in2="BackgroundImageFix" result="effect1_dropShadow"/>
<feBlend mode="normal" in="SourceGraphic" in2="effect1_dropShadow" result="shape"/>
</filter>
<filter id="filter6_d" x="86" y="165" width="85" height="85" filterUnits="userSpaceOnUse" color-interpolation-filters="sRGB">
<feFlood flood-opacity="0" result="BackgroundImageFix"/>
<feColorMatrix in="SourceAlpha" type="matrix" values="0 0 0 0 0 0 0 0 0 0 0 0 0 0 0 0 0 0 127 0" result="hardAlpha"/>
<feOffset dy="9"/>
<feGaussianBlur stdDeviation="15"/>
<feColorMatrix type="matrix" values="0 0 0 0 0.593438 0 0 0 0 0.707729 0 0 0 0 0.879167 0 0 0 0.25 0"/>
<feBlend mode="normal" in2="BackgroundImageFix" result="effect1_dropShadow"/>
<feBlend mode="normal" in="SourceGraphic" in2="effect1_dropShadow" result="shape"/>
</filter>
<filter id="filter7_d" x="379" y="68" width="77" height="77" filterUnits="userSpaceOnUse" color-interpolation-filters="sRGB">
<feFlood flood-opacity="0" result="BackgroundImageFix"/>
<feColorMatrix in="SourceAlpha" type="matrix" values="0 0 0 0 0 0 0 0 0 0 0 0 0 0 0 0 0 0 127 0" result="hardAlpha"/>
<feOffset dy="9"/>
<feGaussianBlur stdDeviation="15"/>
<feColorMatrix type="matrix" values="0 0 0 0 0.593438 0 0 0 0 0.707729 0 0 0 0 0.879167 0 0 0 0.25 0"/>
<feBlend mode="normal" in2="BackgroundImageFix" result="effect1_dropShadow"/>
<feBlend mode="normal" in="SourceGraphic" in2="effect1_dropShadow" result="shape"/>
</filter>
<filter id="filter8_d" x="86" y="218" width="85" height="85" filterUnits="userSpaceOnUse" color-interpolation-filters="sRGB">
<feFlood flood-opacity="0" result="BackgroundImageFix"/>
<feColorMatrix in="SourceAlpha" type="matrix" values="0 0 0 0 0 0 0 0 0 0 0 0 0 0 0 0 0 0 127 0" result="hardAlpha"/>
<feOffset dy="9"/>
<feGaussianBlur stdDeviation="15"/>
<feColorMatrix type="matrix" values="0 0 0 0 0.593438 0 0 0 0 0.707729 0 0 0 0 0.879167 0 0 0 0.25 0"/>
<feBlend mode="normal" in2="BackgroundImageFix" result="effect1_dropShadow"/>
<feBlend mode="normal" in="SourceGraphic" in2="effect1_dropShadow" result="shape"/>
</filter>
<linearGradient id="paint0_linear" x1="430" y1="184" x2="430" y2="277" gradientUnits="userSpaceOnUse">
<stop stop-color="#B0E7C6"/>
<stop offset="1" stop-color="#5DD1B3"/>
</linearGradient>
<linearGradient id="paint1_linear" x1="336" y1="90" x2="336" y2="153" gradientUnits="userSpaceOnUse">
<stop stop-color="#85BEFF"/>
<stop offset="1" stop-color="#5183BB"/>
</linearGradient>
<linearGradient id="paint2_linear" x1="245" y1="90" x2="245" y2="153" gradientUnits="userSpaceOnUse">
<stop stop-color="#85BEFF"/>
<stop offset="1" stop-color="#5183BB"/>
</linearGradient>
<linearGradient id="paint3_linear" x1="432.048" y1="214.478" x2="432.048" y2="251" gradientUnits="userSpaceOnUse">
<stop stop-color="#B0E7C6"/>
<stop offset="1" stop-color="#5DD1B3"/>
</linearGradient>
<linearGradient id="paint4_linear" x1="410.073" y1="192.811" x2="410.073" y2="229.334" gradientUnits="userSpaceOnUse">
<stop stop-color="#85BEFF"/>
<stop offset="1" stop-color="#5183BB"/>
</linearGradient>
<linearGradient id="paint5_linear" x1="30.5" y1="14.9044" x2="30.5" y2="61" gradientUnits="userSpaceOnUse">
<stop stop-color="#FFED49"/>
<stop offset="1" stop-color="#FFC369"/>
</linearGradient>
<linearGradient id="paint6_linear" x1="12.5" y1="0" x2="12.5" y2="25" gradientUnits="userSpaceOnUse">
<stop stop-color="#85BEFF"/>
<stop offset="1" stop-color="#5183BB"/>
</linearGradient>
<linearGradient id="paint7_linear" x1="8.5" y1="0" x2="8.5" y2="17" gradientUnits="userSpaceOnUse">
<stop stop-color="#B0E7C6"/>
<stop offset="1" stop-color="#5DD1B3"/>
</linearGradient>
<linearGradient id="paint8_linear" x1="12.5" y1="0" x2="12.5" y2="25" gradientUnits="userSpaceOnUse">
<stop stop-color="#85BEFF"/>
<stop offset="1" stop-color="#5183BB"/>
</linearGradient>
</defs>
</svg>
