<svg width="70" height="70" viewBox="0 0 70 70" fill="none" xmlns="http://www.w3.org/2000/svg">
<path d="M70 22C70 9.84973 60.1503 0 48 0H22C9.84974 0 0 9.84974 0 22V48C0 60.1503 9.84974 70 22 70H48C60.1503 70 70 60.1503 70 48V22Z" fill="#417BD2"/>
<g clip-path="url(#clip0_10403_17852)">
<path d="M50 37.0539V32.9462C50.618 32.3147 51 31.4513 51 30.5001C51 29.5488 50.618 28.6854 50 28.0539V21.875C50 20.2897 48.7103 19 47.125 19H21.875C20.2897 19 19 20.2897 19 21.875V48.125C19 49.7103 20.2897 51 21.875 51H47.125C48.7103 51 50 49.7103 50 48.125V41.9461C50.618 41.3146 51 40.4513 51 39.5C51 38.5487 50.618 37.6853 50 37.0539ZM49 30.5C49 31.3271 48.3271 32 47.5 32H46.5V29H47.5C48.3271 29 49 29.6729 49 30.5ZM44.5 28V33V37V42V44.625C44.5 45.1075 44.1075 45.5 43.625 45.5H25.375C24.8925 45.5 24.5 45.1075 24.5 44.625V25.375C24.5 24.8925 24.8925 24.5 25.375 24.5H43.625C44.1075 24.5 44.5 24.8925 44.5 25.375V28ZM46.5 34H47.5C47.6698 34 47.8366 33.9872 48 33.9637V36.0362C47.8366 36.0127 47.6698 35.9999 47.5 35.9999H46.5V34ZM46.5 38H47.5C48.3271 38 49 38.6729 49 39.5C49 40.3271 48.3271 41 47.5 41H46.5V38ZM47.125 49H21.875C21.3925 49 21 48.6075 21 48.125V21.875C21 21.3925 21.3925 21 21.875 21H47.125C47.6075 21 48 21.3925 48 21.875V27.0363C47.8366 27.0128 47.6698 27 47.5 27H46.5V25.375C46.5 23.7898 45.2103 22.5 43.625 22.5H25.375C23.7898 22.5 22.5 23.7898 22.5 25.375V44.625C22.5 46.2103 23.7898 47.5 25.375 47.5H43.625C45.2103 47.5 46.5 46.2103 46.5 44.625V43H47.5C47.6698 43 47.8366 42.9872 48 42.9637V48.125C48 48.6075 47.6075 49 47.125 49Z" fill="white"/>
</g>
<path fill-rule="evenodd" clip-rule="evenodd" d="M35.962 29.5871C36.4965 29.7261 36.8172 30.272 36.6782 30.8066L34.3672 39.6954C34.2282 40.23 33.6822 40.5506 33.1477 40.4116C32.6132 40.2727 32.2925 39.7267 32.4315 39.1922L34.7426 30.3033C34.8815 29.7688 35.4275 29.4481 35.962 29.5871ZM31.8092 32.084C32.192 32.4821 32.1796 33.1152 31.7815 33.498L30.2201 34.9994L31.7815 36.5008C32.1796 36.8836 32.192 37.5166 31.8092 37.9147C31.4264 38.3128 30.7934 38.3252 30.3953 37.9424L28.0842 35.7202C27.8882 35.5317 27.7773 35.2714 27.7773 34.9994C27.7773 34.7274 27.8882 34.4671 28.0842 34.2786L30.3953 32.0563C30.7934 31.6735 31.4264 31.6859 31.8092 32.084ZM37.301 32.084C37.6838 31.6859 38.3169 31.6735 38.715 32.0563L41.026 34.2786C41.2221 34.4671 41.3329 34.7274 41.3329 34.9994C41.3329 35.2714 41.2221 35.5317 41.026 35.7202L38.715 37.9424C38.3169 38.3252 37.6838 38.3128 37.301 37.9147C36.9182 37.5166 36.9306 36.8836 37.3287 36.5008L38.8901 34.9994L37.3287 33.498C36.9306 33.1152 36.9182 32.4821 37.301 32.084Z" fill="white"/>
<defs>
<clipPath id="clip0_10403_17852">
<rect width="32" height="32" fill="white" transform="translate(19 19)"/>
</clipPath>
</defs>
</svg>
