<svg width="70" height="70" viewBox="0 0 70 70" fill="none" xmlns="http://www.w3.org/2000/svg">
<rect width="70" height="70" rx="22" transform="matrix(-1 0 0 1 70 0)" fill="white"/>
<path d="M31.6706 39.9114C31.6706 40.2216 31.8243 40.5116 32.0813 40.687C32.3928 40.899 32.6565 41.0078 32.7574 41.0294C33.2124 41.0961 38.4263 41.6533 41.8453 42.0145L41.599 44.3451C38.9357 44.0638 32.7022 43.4025 32.3412 43.336C31.7043 43.2188 31.0781 42.8394 30.7615 42.6237C30.4599 42.4181 30.2001 42.1665 29.9868 41.8827L29.976 41.8937L24.3519 36.3745C24.1285 36.1551 23.8332 36.0365 23.5202 36.0391C23.2073 36.042 22.9142 36.1665 22.6948 36.3899C22.4756 36.6136 22.3566 36.9088 22.3594 37.2219C22.3623 37.5348 22.487 37.828 22.7104 38.0474L31.4079 46.5825C32.1028 47.2651 33.0223 47.6406 33.9961 47.6406H50.0156V49.9844H33.9961C32.4043 49.9844 30.9021 49.3702 29.7662 48.2555L21.0688 39.7202C20.3985 39.0623 20.0246 38.183 20.0158 37.2439C20.0068 36.3049 20.3644 35.4187 21.022 34.7485C21.6799 34.0782 22.5591 33.7043 23.4983 33.6955C24.4358 33.6871 25.3233 34.0439 25.9938 34.7017L29.7187 38.3575C30.0205 37.7991 30.479 37.3376 31.0351 37.0326C28.7556 35.2973 27.2812 32.556 27.2812 29.4766C27.2812 24.2425 31.5393 19.9844 36.7734 19.9844C38.6766 19.9844 40.4504 20.548 41.9377 21.5161L40.294 23.2572C39.2543 22.6661 38.0526 22.3281 36.7734 22.3281C32.8319 22.3281 29.625 25.535 29.625 29.4766C29.625 33.4181 32.8319 36.625 36.7734 36.625C40.6538 36.625 43.8221 33.517 43.9195 29.6595L46.0393 27.4141C46.187 28.0784 46.2656 28.7683 46.2656 29.4766C46.2656 32.4136 44.9245 35.0431 42.8227 36.7858C44.9731 37.1122 47.0127 37.9388 48.8051 39.2214L50.0156 40.0875V42.9696L47.4411 41.1276C45.5103 39.7458 43.235 39.0002 40.8611 38.9717C40.8127 38.9709 40.7651 38.9706 40.7159 38.9708L32.6087 38.9741C32.0912 38.9739 31.6706 39.3945 31.6706 39.9114ZM33.5379 26.9807L31.923 28.6791L37.0345 33.5386L46.5318 23.478L44.8275 21.8693L36.9448 30.2192L33.5379 26.9807Z" fill="#417BD2"/>
</svg>
