<svg width="70" height="70" viewBox="0 0 70 70" fill="none" xmlns="http://www.w3.org/2000/svg">
<rect width="70" height="70" rx="22" transform="matrix(-1 0 0 1 70 0)" fill="#419ED2"/>
<g clip-path="url(#clip0_10403_17842)">
<path d="M50.4501 26.7492C50.3982 26.3144 50.0515 25.9735 49.6159 25.928C49.5964 25.926 47.6456 25.7164 46.2979 25.0675C45.1614 24.5203 44.2685 23.711 43.8672 23.3118V19.9375C43.8672 19.4197 43.4474 19 42.9297 19H20.4297C19.9119 19 19.4922 19.4197 19.4922 19.9375V50.0625C19.4922 50.5802 19.9119 51 20.4297 51H36.9359H36.936H36.9361C37.1897 51 37.432 50.8924 37.5989 50.7254L43.587 44.7373C43.757 44.5699 43.8671 44.3313 43.8671 44.0694V40.856C46.9762 38.9215 49.0968 35.9317 50.0136 32.1744C50.7336 29.2242 50.4621 26.8489 50.4501 26.7492ZM21.3673 20.875H41.9923V23.3118C41.5903 23.7117 40.6976 24.5205 39.5616 25.0676C38.2139 25.7164 36.2631 25.9259 36.2441 25.928C35.808 25.9729 35.4614 26.3141 35.4094 26.7493C35.3974 26.849 35.1259 29.2242 35.8458 32.1744C36.7626 35.9318 38.8832 38.9216 41.9923 40.8561V43.1319H36.936C36.4183 43.1319 35.9985 43.5517 35.9985 44.0694V49.125H21.3673V20.875ZM40.6659 45.0069L37.8734 47.7994V45.0069H40.6659ZM48.1921 31.7299C47.3882 35.0249 45.6187 37.5464 42.9298 39.2327C38.887 36.6975 37.1161 32.2232 37.2305 27.6802C39.4921 27.297 41.1435 26.6257 42.9298 25.0072C44.7124 26.6224 46.3629 27.2963 48.6304 27.6804C48.6525 28.5173 48.6108 30.0145 48.1921 31.7299Z" fill="white"/>
<path d="M46.9685 29.2548C46.5765 28.9167 45.9844 28.9606 45.6463 29.3525L42.7879 32.6672L41.1981 31.0775C40.832 30.7114 40.2384 30.7114 39.8723 31.0775C39.5061 31.4435 39.5061 32.0372 39.8723 32.4033L42.1758 34.7067C42.5602 35.0912 43.1919 35.0697 43.5486 34.656L47.0662 30.5769C47.4043 30.185 47.3606 29.593 46.9685 29.2548Z" fill="white"/>
<path d="M27.9297 22.75H24.1797C23.6619 22.75 23.2422 23.1697 23.2422 23.6875V27.4375C23.2422 27.9552 23.6619 28.375 24.1797 28.375H27.9297C28.4474 28.375 28.8672 27.9552 28.8672 27.4375V23.6875C28.8672 23.1697 28.4474 22.75 27.9297 22.75ZM26.9922 26.5H25.1172V24.625H26.9922V26.5Z" fill="white"/>
<path d="M27.9297 30.25H24.1797C23.6619 30.25 23.2422 30.6697 23.2422 31.1875V34.9375C23.2422 35.4552 23.6619 35.875 24.1797 35.875H27.9297C28.4474 35.875 28.8672 35.4552 28.8672 34.9375V31.1875C28.8672 30.6697 28.4474 30.25 27.9297 30.25ZM26.9922 34H25.1172V32.125H26.9922V34Z" fill="white"/>
<path d="M27.9297 37.75H24.1797C23.6619 37.75 23.2422 38.1697 23.2422 38.6875V42.4375C23.2422 42.9552 23.6619 43.375 24.1797 43.375H27.9297C28.4474 43.375 28.8672 42.9552 28.8672 42.4375V38.6875C28.8672 38.1697 28.4474 37.75 27.9297 37.75ZM26.9922 41.5H25.1172V39.625H26.9922V41.5Z" fill="white"/>
</g>
<defs>
<clipPath id="clip0_10403_17842">
<rect width="32" height="32" fill="white" transform="translate(19 19)"/>
</clipPath>
</defs>
</svg>
