<?xml version="1.0" encoding="UTF-8"?>
<svg width="90px" height="90px" viewBox="0 0 90 90" version="1.1" xmlns="http://www.w3.org/2000/svg" xmlns:xlink="http://www.w3.org/1999/xlink">
    <!-- Generator: Sketch 52.6 (67491) - http://www.bohemiancoding.com/sketch -->
    <title>Group 28</title>
    <desc>Created with Sketch.</desc>
    <g id="Website" stroke="none" stroke-width="1" fill="none" fill-rule="evenodd">
        <g id="19--Resources" transform="translate(-770.000000, -3962.000000)">
            <g id="Group-6" transform="translate(285.000000, 3756.000000)">
                <g id="Group-28" transform="translate(485.000000, 206.000000)">
                    <rect id="Rectangle" fill="#127D7A" x="0" y="0" width="90" height="90" rx="9"></rect>
                    <rect id="Rectangle" fill="#FFFFFF" fill-rule="nonzero" x="29.9166667" y="32.5833333" width="12.8333333" height="1.83333333"></rect>
                    <rect id="Rectangle" fill="#FFFFFF" fill-rule="nonzero" x="29.9166667" y="38.0833333" width="12.8333333" height="1.83333333"></rect>
                    <rect id="Rectangle" fill="#FFFFFF" fill-rule="nonzero" x="29.9166667" y="43.5833333" width="17.4166667" height="1.83333333"></rect>
                    <rect id="Rectangle" fill="#FFFFFF" fill-rule="nonzero" x="29.9166667" y="49.0833333" width="11.9166667" height="1.83333333"></rect>
                    <rect id="Rectangle" fill="#FFFFFF" fill-rule="nonzero" x="29.9166667" y="54.5833333" width="7.33333333" height="1.83333333"></rect>
                    <rect id="Rectangle" fill="#FFFFFF" fill-rule="nonzero" x="29.9166667" y="60.0833333" width="5.5" height="1.83333333"></rect>
                    <path d="M69.4900833,28 C68.5587065,27.9973032 67.6650411,28.3677106 67.0086667,29.0285 L63.8333333,32.2038333 L63.8333333,19.75 C63.8333333,18.2312169 62.6021164,17 61.0833333,17 L20.75,17 C19.2312169,17 18,18.2312169 18,19.75 L18,69.25 C18,70.7687831 19.2312169,72 20.75,72 L61.0833333,72 C62.6021164,72 63.8333333,70.7687831 63.8333333,69.25 L63.8333333,42.1295 L71.9715,33.9913333 C72.975874,32.9878463 73.2765765,31.4780104 72.7333045,30.1662906 C72.1900326,28.8545707 70.9098555,27.999484 69.4900833,28 Z M19.8333333,19.75 C19.8333333,19.243739 20.243739,18.8333333 20.75,18.8333333 L61.0833333,18.8333333 C61.5895944,18.8333333 62,19.243739 62,19.75 L62,22.5 L19.8333333,22.5 L19.8333333,19.75 Z M62,69.25 C62,69.756261 61.5895944,70.1666667 61.0833333,70.1666667 L20.75,70.1666667 C20.243739,70.1666667 19.8333333,69.756261 19.8333333,69.25 L19.8333333,24.3333333 L62,24.3333333 L62,34.0371667 L56.5,39.5371667 L56.5,36.7871667 L46.7961667,27.0833333 L25.3333333,27.0833333 L25.3333333,67.4166667 L56.5,67.4166667 L56.5,49.4628333 L62,43.9628333 L62,69.25 Z M40.1155,55.9216667 L37.6340833,63.3659167 L45.0783333,60.8845 L47.7128333,58.25 L54.6666667,51.2961667 L54.6666667,65.5833333 L27.1666667,65.5833333 L27.1666667,28.9166667 L45.5,28.9166667 L45.5,38.0833333 L54.6666667,38.0833333 L54.6666667,41.3705 L42.75,53.2871667 L40.1155,55.9216667 Z M42.75,55.8795 L45.1205,58.25 L44.0883333,59.2821667 L40.5325833,60.4674167 L41.7178333,56.9116667 L42.75,55.8795 Z M47.3333333,30.2128333 L53.3705,36.25 L47.3333333,36.25 L47.3333333,30.2128333 Z M46.4166667,56.9538333 L44.0461667,54.5833333 L65.6666667,32.9628333 L68.0371667,35.3333333 L46.4166667,56.9538333 Z M70.6753333,32.6951667 L69.3333333,34.0371667 L66.9628333,31.6666667 L68.3048333,30.3246667 C68.7251248,29.8859216 69.3498918,29.7088899 69.9378708,29.8619351 C70.5258498,30.0149803 70.9850197,30.4741502 71.1380649,31.0621292 C71.2911101,31.6501082 71.1140784,32.2748752 70.6753333,32.6951667 Z" id="Shape" fill="#FFFFFF" fill-rule="nonzero"></path>
                </g>
            </g>
        </g>
    </g>
</svg>