<svg height="90" viewBox="0 0 90 90" width="90" xmlns="http://www.w3.org/2000/svg"><g fill="none" fill-rule="evenodd"><rect fill="#127d7a" height="90" rx="9" width="90"/><g fill="#fff" fill-rule="nonzero"><path d="m29.916667 32.583333h12.833333v1.833333h-12.833333z"/><path d="m29.916667 38.083333h12.833333v1.833333h-12.833333z"/><path d="m29.916667 43.583333h17.416667v1.833333h-17.416667z"/><path d="m29.916667 49.083333h11.916667v1.833333h-11.916667z"/><path d="m29.916667 54.583333h7.333333v1.833333h-7.333333z"/><path d="m29.916667 60.083333h5.5v1.833333h-5.5z"/><path d="m69.4900833 28c-.9313768-.0026968-1.8250422.3677106-2.4814166 1.0285l-3.1753334 3.1753333v-12.4538333c0-1.5187831-1.2312169-2.75-2.75-2.75h-40.3333333c-1.5187831 0-2.75 1.2312169-2.75 2.75v49.5c0 1.5187831 1.2312169 2.75 2.75 2.75h40.3333333c1.5187831 0 2.75-1.2312169 2.75-2.75v-27.1205l8.1381667-8.1381667c1.004374-1.003487 1.3050765-2.5133229.7618045-3.8250427-.5432719-1.3117199-1.823449-2.1668066-3.2432212-2.1662906zm-49.65675-8.25c0-.506261.4104057-.9166667.9166667-.9166667h40.3333333c.5062611 0 .9166667.4104057.9166667.9166667v2.75h-42.1666667zm42.1666667 49.5c0 .506261-.4104056.9166667-.9166667.9166667h-40.3333333c-.506261 0-.9166667-.4104057-.9166667-.9166667v-44.9166667h42.1666667v9.7038334l-5.5 5.5v-2.75l-9.7038333-9.7038334h-21.4628334v40.3333334h31.1666667v-17.9538334l5.5-5.5zm-21.8845-13.3283333-2.4814167 7.44425 7.44425-2.4814167 2.6345-2.6345 6.9538334-6.9538333v14.2871666h-27.5v-36.6666666h18.3333333v9.1666666h9.1666667v3.2871667l-11.9166667 11.9166667zm2.6345-.0421667 2.3705 2.3705-1.0321667 1.0321667-3.55575 1.18525 1.18525-3.55575zm4.5833333-25.6666667 6.0371667 6.0371667h-6.0371667zm-.9166666 26.741-2.3705-2.3705 21.6205-21.6205 2.3705 2.3705zm24.2586666-24.2586666-1.342 1.342-2.3705-2.3705 1.342-1.342c.4202915-.4387451 1.0450585-.6157768 1.6330375-.4627316s1.0471489.6122151 1.2001941 1.2001941-.0239865 1.212746-.4627316 1.6330375z"/></g></g></svg>