<svg width="25" height="25" viewBox="0 0 25 25" fill="none" xmlns="http://www.w3.org/2000/svg">
<circle cx="12.5" cy="12.5" r="12.5" fill="#CDF2F8"/>
<path fill-rule="evenodd" clip-rule="evenodd" d="M8.68699 10.3581C8.68699 9.24532 9.58907 8.34324 10.7018 8.34324C11.8146 8.34324 12.7167 9.24532 12.7167 10.3581C12.7167 11.4709 11.8146 12.3729 10.7018 12.3729C9.58907 12.3729 8.68699 11.4709 8.68699 10.3581ZM10.7018 7C8.84722 7 7.34375 8.50347 7.34375 10.3581C7.34375 12.2127 8.84722 13.7162 10.7018 13.7162C12.5565 13.7162 14.0599 12.2127 14.0599 10.3581C14.0599 8.50347 12.5565 7 10.7018 7ZM19.2348 11.226C19.4971 11.4883 19.4971 11.9135 19.2348 12.1758L16.5484 14.8623C16.2861 15.1246 15.8608 15.1246 15.5985 14.8623L14.2553 13.5191C13.993 13.2568 13.993 12.8315 14.2553 12.5692C14.5176 12.307 14.9428 12.307 15.2051 12.5692L16.0734 13.4376L18.285 11.226C18.5473 10.9637 18.9725 10.9637 19.2348 11.226ZM8.22444 16.406C7.61528 16.8121 7.34324 17.2993 7.34324 17.7468C7.34324 18.1177 7.04254 18.4184 6.67162 18.4184C6.30069 18.4184 6 18.1177 6 17.7468C6 16.7105 6.63004 15.8545 7.47935 15.2883C8.33335 14.719 9.47445 14.3887 10.7013 14.3887C11.9282 14.3887 13.0693 14.719 13.9233 15.2883C14.7726 15.8545 15.4027 16.7105 15.4027 17.7468C15.4027 18.1177 15.102 18.4184 14.731 18.4184C14.3601 18.4184 14.0594 18.1177 14.0594 17.7468C14.0594 17.2993 13.7874 16.8121 13.1782 16.406C12.5737 16.003 11.7 15.7319 10.7013 15.7319C9.70265 15.7319 8.8289 16.003 8.22444 16.406Z" fill="#009CB7"/>
</svg>
