<svg width="32" height="32" viewBox="0 0 32 32" fill="none" xmlns="http://www.w3.org/2000/svg">
<rect width="32" height="32" rx="10" fill="url(#paint0_linear_18494_1475)"/>
<path fill-rule="evenodd" clip-rule="evenodd" d="M12.668 23.5C12.668 23.0398 13.0411 22.6667 13.5013 22.6667H18.5013C18.9615 22.6667 19.3346 23.0398 19.3346 23.5C19.3346 23.9603 18.9615 24.3334 18.5013 24.3334H13.5013C13.0411 24.3334 12.668 23.9603 12.668 23.5Z" fill="white"/>
<path fill-rule="evenodd" clip-rule="evenodd" d="M7.66797 10.3056C7.66797 9.3372 8.43249 8.5 9.4388 8.5H22.5638C23.5701 8.5 24.3346 9.3372 24.3346 10.3056V20.0278C24.3346 20.9961 23.5701 21.8333 22.5638 21.8333H9.4388C8.43249 21.8333 7.66797 20.9961 7.66797 20.0278V10.3056ZM9.37576 10.1965C9.35283 10.2203 9.33464 10.2572 9.33464 10.3056V20.0278C9.33464 20.0761 9.35283 20.113 9.37576 20.1368C9.39818 20.16 9.41996 20.1667 9.4388 20.1667H22.5638C22.5826 20.1667 22.6044 20.16 22.6268 20.1368C22.6498 20.113 22.668 20.0761 22.668 20.0278V10.3056C22.668 10.2572 22.6498 10.2203 22.6268 10.1965C22.6044 10.1733 22.5826 10.1667 22.5638 10.1667H9.4388C9.41996 10.1667 9.39818 10.1733 9.37576 10.1965Z" fill="white"/>
<defs>
<linearGradient id="paint0_linear_18494_1475" x1="16" y1="0" x2="16" y2="32" gradientUnits="userSpaceOnUse">
<stop stop-color="#45B4C8"/>
<stop offset="1" stop-color="#2FA0B3"/>
</linearGradient>
</defs>
</svg>
