<svg width="25" height="25" viewBox="0 0 25 25" fill="none" xmlns="http://www.w3.org/2000/svg">
<circle cx="12.5" cy="12.5" r="12.5" fill="#CDF2F8"/>
<path fill-rule="evenodd" clip-rule="evenodd" d="M5 12.1816C5 9.98194 6.75729 8.18164 8.93674 8.18164C10.2531 8.18164 11.3905 8.84103 12.0953 9.82989C12.339 10.1717 12.2615 10.6477 11.9223 10.8932C11.5832 11.1387 11.1107 11.0606 10.8671 10.7188C10.4256 10.0993 9.73151 9.70545 8.93674 9.70545C7.60702 9.70545 6.5122 10.8088 6.5122 12.1816C6.5122 13.5545 7.60702 14.6578 8.93674 14.6578C9.84842 14.6578 10.7003 14.1687 11.1737 13.3654L12.1026 11.7939L12.1039 11.7917L13.0254 10.2211L13.0261 10.2198C13.7691 8.95922 15.1122 8.18164 16.5633 8.18164C18.7427 8.18164 20.5 9.98194 20.5 12.1816C20.5 14.3813 18.7427 16.1816 16.5633 16.1816C15.2523 16.1816 14.1172 15.5211 13.4072 14.5369C13.1617 14.1966 13.2364 13.7201 13.5741 13.4727C13.9119 13.2252 14.3848 13.3005 14.6303 13.6409C15.0807 14.2651 15.7771 14.6578 16.5633 14.6578C17.893 14.6578 18.9878 13.5545 18.9878 12.1816C18.9878 10.8087 17.893 9.70545 16.5633 9.70545C15.6518 9.70545 14.8002 10.1944 14.3267 10.9973C14.3266 10.9975 14.3264 10.9977 14.3263 10.9979L13.4044 12.5694L13.4031 12.5715L12.4739 14.1435C12.4737 14.1438 12.4736 14.144 12.4734 14.1443C12.4734 14.1443 12.4734 14.1443 12.4734 14.1443C11.7304 15.4044 10.3875 16.1816 8.93674 16.1816C6.75729 16.1816 5 14.3813 5 12.1816Z" fill="#009CB7"/>
</svg>
