<svg width="25" height="25" viewBox="0 0 25 25" fill="none" xmlns="http://www.w3.org/2000/svg">
<circle cx="12.5" cy="12.5" r="12.5" fill="#CDF2F8"/>
<path fill-rule="evenodd" clip-rule="evenodd" d="M15.5004 7.64872C15.1157 7.64872 14.7664 7.79255 14.5004 8.03056C14.1917 8.30686 13.7175 8.28059 13.4412 7.97188C13.1649 7.66318 13.1912 7.18895 13.4999 6.91265C14.0302 6.43797 14.7324 6.14844 15.5004 6.14844C17.1576 6.14844 18.501 7.49183 18.501 9.149C18.501 10.0377 18.1137 10.837 17.501 11.3854C17.1923 11.6616 16.7181 11.6354 16.4418 11.3267C16.1655 11.018 16.1917 10.5437 16.5004 10.2674C16.8086 9.99165 17.0007 9.59326 17.0007 9.149C17.0007 8.32042 16.329 7.64872 15.5004 7.64872ZM11.0042 11.4005C11.0042 10.5719 11.6759 9.90018 12.5045 9.90018C13.3331 9.90018 14.0048 10.5719 14.0048 11.4005C14.0048 12.229 13.3331 12.9007 12.5045 12.9007C11.6759 12.9007 11.0042 12.229 11.0042 11.4005ZM12.5045 8.3999C10.8473 8.3999 9.50391 9.7433 9.50391 11.4005C9.50391 13.0576 10.8473 14.401 12.5045 14.401C14.1616 14.401 15.505 13.0576 15.505 11.4005C15.505 9.7433 14.1616 8.3999 12.5045 8.3999ZM8.72618 13.648C8.83124 14.0487 8.59153 14.4588 8.19078 14.5638C7.61507 14.7148 7.16835 14.9526 6.88019 15.2117C6.59407 15.469 6.50028 15.709 6.50028 15.9014C6.50028 16.3157 6.16443 16.6515 5.75014 16.6515C5.33585 16.6515 5 16.3157 5 15.9014C5 15.171 5.36908 14.553 5.877 14.0962C6.38288 13.6413 7.06138 13.3089 7.81034 13.1126C8.21109 13.0075 8.62113 13.2472 8.72618 13.648ZM17.1905 13.1126C16.7898 13.0075 16.3798 13.2472 16.2747 13.648C16.1696 14.0487 16.4094 14.4588 16.8101 14.5638C17.3858 14.7148 17.8325 14.9526 18.1207 15.2117C18.4068 15.469 18.5006 15.709 18.5006 15.9014C18.5006 16.3157 18.8365 16.6515 19.2507 16.6515C19.665 16.6515 20.0009 16.3157 20.0009 15.9014C20.0009 15.171 19.6318 14.553 19.1239 14.0962C18.618 13.6413 17.9395 13.3089 17.1905 13.1126ZM9.50419 18.1507C9.50419 17.8963 9.67999 17.5378 10.2385 17.2027C10.7822 16.8765 11.5816 16.6504 12.5048 16.6504C13.4279 16.6504 14.2273 16.8765 14.771 17.2027C15.3295 17.5378 15.5053 17.8963 15.5053 18.1507C15.5053 18.565 15.8412 18.9009 16.2555 18.9009C16.6697 18.9009 17.0056 18.565 17.0056 18.1507C17.0056 17.1623 16.3418 16.3955 15.5428 15.9162C14.729 15.4279 13.6531 15.1501 12.5048 15.1501C11.3564 15.1501 10.2805 15.4279 9.46666 15.9162C8.66773 16.3955 8.00391 17.1623 8.00391 18.1507C8.00391 18.565 8.33976 18.9009 8.75405 18.9009C9.16834 18.9009 9.50419 18.565 9.50419 18.1507ZM9.50056 6.14844C7.8434 6.14844 6.5 7.49183 6.5 9.149C6.5 10.0377 6.88734 10.837 7.5 11.3854C7.80871 11.6616 8.28294 11.6354 8.55924 11.3267C8.83553 11.018 8.80926 10.5437 8.50056 10.2674C8.19243 9.99165 8.00028 9.59326 8.00028 9.149C8.00028 8.32042 8.67198 7.64872 9.50056 7.64872C9.88529 7.64872 10.2346 7.79255 10.5006 8.03056C10.8093 8.30686 11.2835 8.28059 11.5598 7.97188C11.8361 7.66318 11.8098 7.18895 11.5011 6.91265C10.9708 6.43797 10.2686 6.14844 9.50056 6.14844Z" fill="#009CB7"/>
</svg>
