<svg width="445" height="380" viewBox="0 0 445 380" fill="none" xmlns="http://www.w3.org/2000/svg">
<rect x="14" y="15" width="431" height="365" rx="4" fill="#D6EFFA" fill-opacity="0.5"/>
<g clip-path="url(#clip0)">
<g filter="url(#filter0_d)">
<rect width="430" height="365" rx="4" fill="white"/>
<rect x="0.5" y="0.5" width="429" height="364" rx="3.5" stroke="#D8DCE6"/>
</g>
<path d="M135.725 130.32L130.883 144H128.866L125.427 134.163L121.949 144H119.932L115.11 130.32H117.626L121.046 140.522L124.601 130.32H126.368L129.846 140.599L133.343 130.32H135.725ZM143.028 134.048C145.346 134.048 146.506 135.38 146.506 138.044V144H144.104V138.159C144.104 137.391 143.957 136.834 143.662 136.488C143.368 136.129 142.913 135.95 142.298 135.95C141.568 135.95 140.979 136.187 140.53 136.661C140.082 137.122 139.858 137.737 139.858 138.505V144H137.476V129.859H139.858V135.7C140.191 135.175 140.633 134.771 141.184 134.49C141.734 134.195 142.349 134.048 143.028 134.048ZM158.332 134.298V144H155.969V142.444C155.674 142.982 155.251 143.404 154.701 143.712C154.15 144.006 153.522 144.154 152.818 144.154C151.972 144.154 151.223 143.949 150.57 143.539C149.917 143.129 149.411 142.546 149.052 141.791C148.693 141.035 148.514 140.157 148.514 139.158C148.514 138.159 148.693 137.276 149.052 136.507C149.424 135.726 149.936 135.124 150.589 134.701C151.242 134.265 151.985 134.048 152.818 134.048C153.522 134.048 154.15 134.201 154.701 134.509C155.251 134.803 155.674 135.22 155.969 135.758V134.298H158.332ZM153.471 142.271C154.265 142.271 154.88 141.995 155.316 141.445C155.751 140.894 155.969 140.119 155.969 139.12C155.969 138.095 155.751 137.308 155.316 136.757C154.88 136.206 154.259 135.931 153.452 135.931C152.658 135.931 152.037 136.219 151.588 136.795C151.153 137.359 150.935 138.146 150.935 139.158C150.935 140.157 151.153 140.926 151.588 141.464C152.037 142.002 152.664 142.271 153.471 142.271ZM164.002 136.104V140.446C164.002 141.586 164.534 142.156 165.597 142.156C165.892 142.156 166.212 142.104 166.558 142.002V143.904C166.135 144.058 165.623 144.134 165.021 144.134C163.919 144.134 163.074 143.827 162.485 143.212C161.895 142.597 161.601 141.714 161.601 140.561V136.104H159.737V134.298H161.601V131.934L164.002 131.127V134.298H166.577V136.104H164.002ZM173.5 134.298H175.882V144H173.5V134.298ZM176.017 129.898V132.261H173.346V129.898H176.017ZM182.064 144.154C180.309 144.154 178.913 143.744 177.875 142.924L178.548 141.233C179.585 142.002 180.77 142.386 182.102 142.386C182.679 142.386 183.12 142.29 183.428 142.098C183.748 141.906 183.908 141.637 183.908 141.291C183.908 140.996 183.799 140.766 183.582 140.599C183.364 140.42 182.992 140.266 182.467 140.138L180.853 139.773C179.086 139.389 178.202 138.486 178.202 137.064C178.202 136.475 178.368 135.956 178.701 135.508C179.034 135.047 179.502 134.688 180.104 134.432C180.706 134.176 181.404 134.048 182.198 134.048C182.89 134.048 183.556 134.157 184.196 134.374C184.837 134.579 185.4 134.88 185.887 135.277L185.176 136.91C184.203 136.193 183.204 135.835 182.179 135.835C181.628 135.835 181.199 135.937 180.892 136.142C180.584 136.347 180.431 136.629 180.431 136.987C180.431 137.269 180.52 137.493 180.7 137.66C180.892 137.826 181.212 137.967 181.66 138.082L183.313 138.447C184.273 138.665 184.971 139.005 185.407 139.466C185.855 139.914 186.079 140.503 186.079 141.233C186.079 142.13 185.721 142.841 185.003 143.366C184.286 143.891 183.306 144.154 182.064 144.154ZM202.591 134.298L198.076 144.653C197.563 145.857 196.91 146.735 196.116 147.285C195.322 147.836 194.342 148.201 193.176 148.381L192.638 146.536C193.548 146.331 194.227 146.069 194.675 145.748C195.136 145.441 195.507 144.98 195.789 144.365L196.097 143.654L192.062 134.298H194.579L197.365 141.272L200.208 134.298H202.591ZM208.07 144.154C207.083 144.154 206.212 143.949 205.457 143.539C204.714 143.129 204.137 142.546 203.728 141.791C203.33 141.022 203.132 140.125 203.132 139.101C203.132 138.076 203.33 137.186 203.728 136.43C204.137 135.662 204.714 135.072 205.457 134.663C206.212 134.253 207.083 134.048 208.07 134.048C209.043 134.048 209.901 134.253 210.644 134.663C211.387 135.072 211.957 135.662 212.354 136.43C212.764 137.186 212.969 138.076 212.969 139.101C212.969 140.125 212.764 141.022 212.354 141.791C211.957 142.546 211.387 143.129 210.644 143.539C209.901 143.949 209.043 144.154 208.07 144.154ZM208.05 142.271C208.87 142.271 209.491 142.008 209.914 141.483C210.35 140.945 210.567 140.151 210.567 139.101C210.567 138.063 210.35 137.276 209.914 136.738C209.479 136.187 208.864 135.911 208.07 135.911C207.263 135.911 206.641 136.187 206.206 136.738C205.771 137.276 205.553 138.063 205.553 139.101C205.553 140.151 205.764 140.945 206.187 141.483C206.622 142.008 207.243 142.271 208.05 142.271ZM223.878 134.298V144H221.534V142.501C221.227 143.039 220.817 143.449 220.304 143.731C219.792 144.013 219.203 144.154 218.537 144.154C216.167 144.154 214.982 142.822 214.982 140.157V134.298H217.365V140.177C217.365 140.881 217.506 141.4 217.787 141.733C218.082 142.066 218.53 142.232 219.132 142.232C219.837 142.232 220.4 142.002 220.823 141.541C221.246 141.08 221.457 140.465 221.457 139.696V134.298H223.878ZM231.711 134.067C232.082 134.067 232.403 134.118 232.672 134.221L232.652 136.411C232.243 136.244 231.82 136.161 231.384 136.161C230.565 136.161 229.937 136.398 229.502 136.872C229.079 137.346 228.868 137.974 228.868 138.755V144H226.485V137.045C226.485 136.02 226.434 135.104 226.331 134.298H228.579L228.771 136.007C229.015 135.38 229.399 134.9 229.924 134.566C230.449 134.233 231.045 134.067 231.711 134.067ZM236.803 146.133C237.149 146.235 237.462 146.286 237.744 146.286C238.205 146.286 238.577 146.152 238.859 145.883C239.14 145.614 239.281 145.178 239.281 144.576V134.298H241.664V144.692C241.664 145.844 241.369 146.728 240.78 147.343C240.203 147.958 239.377 148.265 238.301 148.265C237.725 148.265 237.225 148.195 236.803 148.054V146.133ZM241.798 129.898V132.261H239.128V129.898H241.798ZM248.691 144.154C247.704 144.154 246.833 143.949 246.078 143.539C245.335 143.129 244.758 142.546 244.348 141.791C243.951 141.022 243.753 140.125 243.753 139.101C243.753 138.076 243.951 137.186 244.348 136.43C244.758 135.662 245.335 135.072 246.078 134.663C246.833 134.253 247.704 134.048 248.691 134.048C249.664 134.048 250.522 134.253 251.265 134.663C252.008 135.072 252.578 135.662 252.975 136.43C253.385 137.186 253.59 138.076 253.59 139.101C253.59 140.125 253.385 141.022 252.975 141.791C252.578 142.546 252.008 143.129 251.265 143.539C250.522 143.949 249.664 144.154 248.691 144.154ZM248.671 142.271C249.491 142.271 250.112 142.008 250.535 141.483C250.97 140.945 251.188 140.151 251.188 139.101C251.188 138.063 250.97 137.276 250.535 136.738C250.1 136.187 249.485 135.911 248.691 135.911C247.884 135.911 247.262 136.187 246.827 136.738C246.391 137.276 246.174 138.063 246.174 139.101C246.174 140.151 246.385 140.945 246.808 141.483C247.243 142.008 247.864 142.271 248.671 142.271ZM261.194 134.048C262.04 134.048 262.783 134.259 263.423 134.682C264.076 135.092 264.582 135.674 264.941 136.43C265.299 137.186 265.479 138.063 265.479 139.062C265.479 140.061 265.293 140.952 264.922 141.733C264.563 142.501 264.057 143.097 263.404 143.52C262.763 143.942 262.027 144.154 261.194 144.154C260.477 144.154 259.837 144 259.273 143.693C258.722 143.385 258.306 142.956 258.024 142.405V144H255.661V129.859H258.043V135.758C258.338 135.22 258.761 134.803 259.311 134.509C259.862 134.201 260.49 134.048 261.194 134.048ZM260.56 142.271C261.354 142.271 261.969 141.989 262.405 141.425C262.84 140.862 263.058 140.074 263.058 139.062C263.058 138.063 262.84 137.295 262.405 136.757C261.969 136.206 261.348 135.931 260.541 135.931C259.734 135.931 259.113 136.206 258.677 136.757C258.242 137.308 258.024 138.089 258.024 139.101C258.024 140.125 258.242 140.913 258.677 141.464C259.113 142.002 259.74 142.271 260.56 142.271ZM275.902 136.104V140.446C275.902 141.586 276.434 142.156 277.497 142.156C277.792 142.156 278.112 142.104 278.458 142.002V143.904C278.035 144.058 277.523 144.134 276.921 144.134C275.819 144.134 274.974 143.827 274.384 143.212C273.795 142.597 273.501 141.714 273.501 140.561V136.104H271.637V134.298H273.501V131.934L275.902 131.127V134.298H278.477V136.104H275.902ZM280.127 134.298H282.51V144H280.127V134.298ZM282.644 129.898V132.261H279.974V129.898H282.644ZM288.192 136.104V140.446C288.192 141.586 288.723 142.156 289.786 142.156C290.081 142.156 290.401 142.104 290.747 142.002V143.904C290.324 144.058 289.812 144.134 289.21 144.134C288.108 144.134 287.263 143.827 286.674 143.212C286.085 142.597 285.79 141.714 285.79 140.561V136.104H283.926V134.298H285.79V131.934L288.192 131.127V134.298H290.766V136.104H288.192ZM292.417 129.859H294.799V144H292.417V129.859ZM305.918 139.274H299.232C299.284 140.311 299.54 141.08 300.001 141.579C300.475 142.066 301.173 142.309 302.095 142.309C303.158 142.309 304.144 141.963 305.054 141.272L305.746 142.924C305.284 143.296 304.714 143.597 304.036 143.827C303.37 144.045 302.691 144.154 301.999 144.154C300.411 144.154 299.162 143.705 298.252 142.809C297.343 141.912 296.888 140.683 296.888 139.12C296.888 138.134 297.087 137.256 297.484 136.488C297.881 135.719 298.438 135.124 299.156 134.701C299.873 134.265 300.686 134.048 301.596 134.048C302.928 134.048 303.978 134.483 304.746 135.354C305.528 136.212 305.918 137.397 305.918 138.909V139.274ZM301.653 135.777C301.013 135.777 300.488 135.969 300.078 136.353C299.681 136.725 299.424 137.269 299.309 137.986H303.824C303.747 137.256 303.523 136.706 303.152 136.334C302.793 135.963 302.294 135.777 301.653 135.777ZM308.149 130.916C308.969 130.417 309.923 130.167 311.012 130.167C311.806 130.167 312.51 130.301 313.125 130.57C313.74 130.839 314.214 131.211 314.547 131.685C314.893 132.158 315.065 132.709 315.065 133.337C315.065 134.016 314.905 134.599 314.585 135.085C314.278 135.572 313.81 136.136 313.183 136.776C312.657 137.314 312.26 137.775 311.991 138.159C311.722 138.531 311.556 138.953 311.492 139.427L311.415 139.965H309.993V139.178C309.993 138.46 310.121 137.858 310.377 137.372C310.634 136.872 311.005 136.334 311.492 135.758C311.863 135.322 312.139 134.944 312.318 134.624C312.51 134.304 312.606 133.945 312.606 133.548C312.606 133.1 312.446 132.754 312.126 132.511C311.818 132.255 311.389 132.126 310.839 132.126C309.942 132.126 309.045 132.402 308.149 132.953V130.916ZM309.378 141.31H312.087V144H309.378V141.31Z" fill="black"/>
<g clip-path="url(#clip1)">
<g filter="url(#filter1_d)">
<rect x="53.1687" y="200.373" width="324.944" height="39.9036" rx="5.91165" fill="white"/>
<rect x="53.9077" y="201.112" width="323.466" height="38.4257" rx="5.17269" stroke="#D8DCE6" stroke-width="1.47791"/>
</g>
<path opacity="0.25" d="M70.5607 226.905C68.5862 226.905 67.0137 226.373 65.8432 225.309L66.393 224.191C67.0196 224.724 67.6581 225.102 68.3084 225.327C68.9587 225.551 69.7153 225.663 70.5785 225.663C71.5953 225.663 72.3756 225.468 72.9195 225.078C73.4752 224.676 73.753 224.115 73.753 223.393C73.753 222.968 73.617 222.625 73.3451 222.365C73.085 222.093 72.7362 221.88 72.2987 221.726C71.8731 221.573 71.2997 221.413 70.5785 221.247C69.6089 221.035 68.8109 220.804 68.1842 220.556C67.5576 220.308 67.0492 219.953 66.659 219.492C66.2689 219.019 66.0738 218.404 66.0738 217.647C66.0738 216.926 66.2629 216.294 66.6413 215.75C67.0196 215.194 67.5517 214.762 68.2374 214.455C68.935 214.148 69.7449 213.994 70.6671 213.994C71.542 213.994 72.3579 214.13 73.1145 214.402C73.8712 214.674 74.5097 215.07 75.0299 215.59L74.4624 216.707C73.8712 216.199 73.2682 215.827 72.6534 215.59C72.0505 215.354 71.3883 215.235 70.6671 215.235C69.6858 215.235 68.9173 215.448 68.3616 215.874C67.8059 216.288 67.528 216.861 67.528 217.594C67.528 218.233 67.7704 218.711 68.2552 219.031C68.7399 219.35 69.4848 219.628 70.4898 219.864C71.5775 220.124 72.4288 220.367 73.0436 220.591C73.6702 220.804 74.1905 221.135 74.6043 221.584C75.0181 222.022 75.225 222.607 75.225 223.34C75.225 224.05 75.0358 224.676 74.6575 225.22C74.2791 225.752 73.7353 226.166 73.0259 226.462C72.3283 226.757 71.5066 226.905 70.5607 226.905ZM84.8914 222.258H78.3472C78.359 223.393 78.6191 224.251 79.1275 224.83C79.6477 225.409 80.3985 225.699 81.3799 225.699C82.4203 225.699 83.378 225.35 84.2529 224.653L84.7318 225.699C84.3416 226.065 83.8391 226.355 83.2243 226.568C82.6213 226.781 82.0006 226.887 81.3621 226.887C79.967 226.887 78.8733 226.479 78.0812 225.663C77.289 224.836 76.8929 223.707 76.8929 222.276C76.8929 221.366 77.0703 220.562 77.425 219.864C77.7797 219.155 78.2762 218.605 78.9147 218.215C79.5532 217.825 80.2803 217.63 81.0961 217.63C82.2784 217.63 83.2066 218.02 83.8805 218.8C84.5544 219.569 84.8914 220.633 84.8914 221.992V222.258ZM81.1138 218.747C80.369 218.747 79.7601 218.972 79.2871 219.421C78.826 219.87 78.5304 220.503 78.4004 221.318H83.5967C83.5258 220.479 83.2775 219.841 82.8519 219.403C82.438 218.966 81.8587 218.747 81.1138 218.747ZM87.0718 213.71H88.5083V226.763H87.0718V213.71ZM98.7641 222.258H92.2199C92.2318 223.393 92.4919 224.251 93.0003 224.83C93.5205 225.409 94.2713 225.699 95.2526 225.699C96.2931 225.699 97.2507 225.35 98.1257 224.653L98.6045 225.699C98.2143 226.065 97.7118 226.355 97.097 226.568C96.494 226.781 95.8733 226.887 95.2349 226.887C93.8397 226.887 92.7461 226.479 91.9539 225.663C91.1617 224.836 90.7657 223.707 90.7657 222.276C90.7657 221.366 90.943 220.562 91.2977 219.864C91.6524 219.155 92.149 218.605 92.7874 218.215C93.4259 217.825 94.153 217.63 94.9688 217.63C96.1512 217.63 97.0793 218.02 97.7532 218.8C98.4272 219.569 98.7641 220.633 98.7641 221.992V222.258ZM94.9866 218.747C94.2417 218.747 93.6328 218.972 93.1599 219.421C92.6988 219.87 92.4032 220.503 92.2731 221.318H97.4695C97.3985 220.479 97.1502 219.841 96.7246 219.403C96.3108 218.966 95.7314 218.747 94.9866 218.747ZM104.687 226.887C103.824 226.887 103.067 226.698 102.417 226.32C101.778 225.941 101.282 225.409 100.927 224.724C100.584 224.026 100.412 223.216 100.412 222.294C100.412 221.372 100.59 220.562 100.945 219.864C101.299 219.155 101.802 218.605 102.452 218.215C103.114 217.825 103.883 217.63 104.758 217.63C105.361 217.63 105.94 217.736 106.496 217.949C107.063 218.15 107.53 218.434 107.897 218.8L107.418 219.864C106.969 219.509 106.531 219.249 106.105 219.084C105.692 218.918 105.266 218.836 104.829 218.836C103.918 218.836 103.203 219.143 102.683 219.758C102.162 220.361 101.902 221.206 101.902 222.294C101.902 223.37 102.156 224.209 102.665 224.812C103.185 225.403 103.906 225.699 104.829 225.699C105.266 225.699 105.692 225.616 106.105 225.451C106.531 225.285 106.969 225.025 107.418 224.67L107.897 225.734C107.518 226.089 107.039 226.373 106.46 226.586C105.893 226.787 105.301 226.887 104.687 226.887ZM111.658 218.977V223.855C111.658 224.517 111.794 224.984 112.066 225.256C112.338 225.516 112.722 225.646 113.219 225.646C113.55 225.646 113.869 225.593 114.176 225.486V226.71C113.81 226.828 113.396 226.887 112.935 226.887C112.084 226.887 111.416 226.651 110.931 226.178C110.458 225.693 110.222 224.984 110.222 224.05V218.977H108.484V217.842H110.222V215.555L111.658 215.04V217.842H114.212V218.977H111.658Z" fill="black"/>
<path fill-rule="evenodd" clip-rule="evenodd" d="M348.818 213.675L344.317 218.175L353.154 218.011L348.818 213.675ZM348.667 228.45L353.181 223.936L344.317 224.101L348.667 228.45Z" fill="white" fill-opacity="0.01"/>
<mask id="mask0" mask-type="alpha" maskUnits="userSpaceOnUse" x="344" y="213" width="10" height="16">
<path fill-rule="evenodd" clip-rule="evenodd" d="M348.818 213.675L344.317 218.175L353.154 218.011L348.818 213.675ZM348.667 228.45L353.181 223.936L344.317 224.101L348.667 228.45Z" fill="white"/>
</mask>
<g mask="url(#mask0)">
<rect x="344.317" y="213.675" width="8.86747" height="14.7791" fill="#9EA0A5"/>
</g>
</g>
</g>
<defs>
<filter id="filter0_d" x="-4" y="-2" width="438" height="373" filterUnits="userSpaceOnUse" color-interpolation-filters="sRGB">
<feFlood flood-opacity="0" result="BackgroundImageFix"/>
<feColorMatrix in="SourceAlpha" type="matrix" values="0 0 0 0 0 0 0 0 0 0 0 0 0 0 0 0 0 0 127 0"/>
<feOffset dy="2"/>
<feGaussianBlur stdDeviation="2"/>
<feColorMatrix type="matrix" values="0 0 0 0 0 0 0 0 0 0 0 0 0 0 0 0 0 0 0.04 0"/>
<feBlend mode="normal" in2="BackgroundImageFix" result="effect1_dropShadow"/>
<feBlend mode="normal" in="SourceGraphic" in2="effect1_dropShadow" result="shape"/>
</filter>
<filter id="filter1_d" x="47.2571" y="197.418" width="336.767" height="51.7269" filterUnits="userSpaceOnUse" color-interpolation-filters="sRGB">
<feFlood flood-opacity="0" result="BackgroundImageFix"/>
<feColorMatrix in="SourceAlpha" type="matrix" values="0 0 0 0 0 0 0 0 0 0 0 0 0 0 0 0 0 0 127 0"/>
<feOffset dy="2.95582"/>
<feGaussianBlur stdDeviation="2.95582"/>
<feColorMatrix type="matrix" values="0 0 0 0 0 0 0 0 0 0 0 0 0 0 0 0 0 0 0.04 0"/>
<feBlend mode="normal" in2="BackgroundImageFix" result="effect1_dropShadow"/>
<feBlend mode="normal" in="SourceGraphic" in2="effect1_dropShadow" result="shape"/>
</filter>
<clipPath id="clip0">
<rect width="430" height="365" fill="white"/>
</clipPath>
<clipPath id="clip1">
<rect width="325.141" height="39.9036" fill="white" transform="translate(53.1687 200.373)"/>
</clipPath>
</defs>
</svg>
