<svg width="35" height="35" viewBox="0 0 35 35" fill="none" xmlns="http://www.w3.org/2000/svg">
<path d="M8.0792 16.2168C1.2542 16.698 1.2542 26.6293 8.0792 27.1105H10.8793" stroke="#417BD2" stroke-width="3" stroke-miterlimit="10" stroke-linecap="round" stroke-linejoin="round"/>
<path d="M8.15221 16.2168C3.47096 3.19385 23.2167 -2.01239 25.4771 11.6668C31.7917 12.4689 34.3439 20.8834 29.5605 25.0689C28.1022 26.3959 26.2209 27.1251 24.2522 27.1105H24.1209" stroke="#417BD2" stroke-width="3" stroke-miterlimit="10" stroke-linecap="round" stroke-linejoin="round"/>
<path d="M24.7918 24.1064C24.7918 25.1855 24.5585 26.2064 24.121 27.1105C24.0043 27.373 23.8731 27.621 23.7273 27.8543C22.4731 29.9689 20.1543 31.398 17.5002 31.398C14.846 31.398 12.5272 29.9689 11.2731 27.8543C11.1272 27.621 10.996 27.373 10.8794 27.1105C10.4419 26.2064 10.2085 25.1855 10.2085 24.1064C10.2085 20.0814 13.4752 16.8147 17.5002 16.8147C21.5252 16.8147 24.7918 20.0814 24.7918 24.1064Z" stroke="#417BD2" stroke-width="3" stroke-miterlimit="10" stroke-linecap="round" stroke-linejoin="round"/>
<path d="M15.2251 24.1062L16.6688 25.5499L19.7751 22.677" stroke="#417BD2" stroke-width="3" stroke-linecap="round" stroke-linejoin="round"/>
</svg>
