<svg width="50" height="50" viewBox="0 0 50 50" fill="none" xmlns="http://www.w3.org/2000/svg">
<path fill-rule="evenodd" clip-rule="evenodd" d="M6.25 8.33317C6.25 6.03198 8.11548 4.1665 10.4167 4.1665H39.5833C41.8845 4.1665 43.75 6.03198 43.75 8.33317V21.1766C43.75 37.9876 29.4353 44.3085 26.3443 45.4825L25.6046 43.5349L26.3443 45.4825C25.4714 45.814 24.5286 45.814 23.6557 45.4825L24.3954 43.5349L23.6557 45.4825C20.5647 44.3085 6.25 37.9876 6.25 21.1766V8.33317ZM39.5833 8.33317L10.4167 8.33317V21.1766C10.4167 34.9141 21.8943 40.3275 25 41.5354C28.1057 40.3275 39.5833 34.9141 39.5833 21.1766V8.33317ZM22.8129 31.2498C22.8129 30.0992 23.7456 29.1665 24.8962 29.1665H25.1046C26.2552 29.1665 27.1879 30.0992 27.1879 31.2498V31.4582C27.1879 32.6088 26.2552 33.5415 25.1046 33.5415H24.8962C23.7456 33.5415 22.8129 32.6088 22.8129 31.4582V31.2498ZM27.0833 16.6665C27.0833 15.5159 26.1506 14.5832 25 14.5832C23.8494 14.5832 22.9167 15.5159 22.9167 16.6665V24.9998C22.9167 26.1504 23.8494 27.0832 25 27.0832C26.1506 27.0832 27.0833 26.1504 27.0833 24.9998V16.6665Z" fill="#EE5E5E"/>
</svg>
