<svg width="32" height="32" viewBox="0 0 32 32" fill="none" xmlns="http://www.w3.org/2000/svg">
<circle cx="16" cy="16" r="16" fill="#D3E7FF"/>
<path fill-rule="evenodd" clip-rule="evenodd" d="M10.3432 8.72754C9.45063 8.72754 8.72705 9.45112 8.72705 10.3437V15.3254C8.72705 21.846 14.2794 24.2978 15.4784 24.7531L15.7653 23.9977L15.4784 24.7531C15.8169 24.8817 16.1826 24.8817 16.5212 24.7531L16.2343 23.9977L16.5212 24.7531C17.7201 24.2978 23.2725 21.846 23.2725 15.3254V10.3437C23.2725 9.45112 22.5489 8.72754 21.6563 8.72754H10.3432ZM10.3432 10.3437L21.6563 10.3437V15.3254C21.6563 20.6539 17.2044 22.7536 15.9998 23.2221C14.7951 22.7536 10.3432 20.6539 10.3432 15.3254V10.3437ZM18.995 14.9545C19.3106 14.6389 19.3106 14.1273 18.995 13.8117C18.6794 13.4961 18.1678 13.4961 17.8522 13.8117L15.1913 16.4726L14.1465 15.4278C13.831 15.1123 13.3193 15.1123 13.0037 15.4278C12.6882 15.7434 12.6882 16.2551 13.0037 16.5706L14.6199 18.1868C14.9355 18.5024 15.4471 18.5024 15.7627 18.1868L18.995 14.9545Z" fill="#245CB0"/>
</svg>
