<svg width="36" height="36" viewBox="0 0 36 36" fill="none" xmlns="http://www.w3.org/2000/svg">
<path fill-rule="evenodd" clip-rule="evenodd" d="M1.5 30C1.5 29.1716 2.17157 28.5 3 28.5H33C33.8284 28.5 34.5 29.1716 34.5 30C34.5 30.8284 33.8284 31.5 33 31.5H3C2.17157 31.5 1.5 30.8284 1.5 30Z" fill="#417BD2"/>
<path fill-rule="evenodd" clip-rule="evenodd" d="M9 15C9 14.1716 9.67157 13.5 10.5 13.5H16.5C17.3284 13.5 18 14.1716 18 15C18 15.8284 17.3284 16.5 16.5 16.5H10.5C9.67157 16.5 9 15.8284 9 15Z" fill="#417BD2"/>
<path fill-rule="evenodd" clip-rule="evenodd" d="M19.5 15C19.5 13.3431 20.8431 12 22.5 12H28.5C30.1569 12 31.5 13.3431 31.5 15V30C31.5 30.8284 30.8284 31.5 30 31.5H21C20.1716 31.5 19.5 30.8284 19.5 30V15ZM28.5 15L22.5 15V28.5H28.5V15Z" fill="#417BD2"/>
<path fill-rule="evenodd" clip-rule="evenodd" d="M9 10.5C9 9.67157 9.67157 9 10.5 9L16.5 9C17.3284 9 18 9.67157 18 10.5C18 11.3284 17.3284 12 16.5 12L10.5 12C9.67157 12 9 11.3284 9 10.5Z" fill="#417BD2"/>
<path fill-rule="evenodd" clip-rule="evenodd" d="M4.5 6C4.5 4.34315 5.84315 3 7.5 3H19.5C21.1569 3 22.5 4.34315 22.5 6V30C22.5 30.8284 21.8284 31.5 21 31.5H6C5.17157 31.5 4.5 30.8284 4.5 30V6ZM19.5 6H7.5V28.5H19.5V6Z" fill="#417BD2"/>
</svg>
