<svg width="122" height="123" viewBox="0 0 122 123" fill="none" xmlns="http://www.w3.org/2000/svg">
<ellipse cx="93.8246" cy="28.0098" rx="12.0287" ry="11.9546" fill="#417BD2"/>
<ellipse cx="92.6223" cy="72.242" rx="18.845" ry="18.7288" fill="#FFE19F"/>
<path d="M1.60352 43.9214V108.504H93.8235V41.1135L90.0594 40.1775L85.3543 36.4336L81.5902 32.6897V28.0098L58.0647 28.9457L44.8904 43.9214H1.60352Z" fill="url(#paint0_linear_17748_1416)"/>
<path d="M94.0735 42.4233C92.97 42.4233 91.8664 42.3319 90.7629 42.0577C87.1764 41.2351 84.1416 39.0416 82.2104 35.8428C80.2792 32.7353 79.7274 29.0795 80.5551 25.5151C81.3827 21.9506 83.5898 18.9346 86.8085 17.0153C89.9352 15.096 93.6137 14.5476 97.2002 15.3702C100.787 16.1927 103.822 18.3862 105.753 21.5851C109.707 28.0741 107.684 36.4826 101.155 40.4126C99.0395 41.6921 96.5565 42.4233 94.0735 42.4233ZM94.0735 17.7464C92.0503 17.7464 90.1191 18.2948 88.3719 19.3916C85.8889 20.9453 84.0496 23.3216 83.4059 26.1548C82.6702 28.9881 83.222 31.9128 84.6934 34.4718C86.1648 37.0309 88.6477 38.7674 91.4986 39.4072C94.3494 40.1384 97.2922 39.59 99.8671 38.1277C105.017 35.0202 106.672 28.2569 103.546 23.0474C101.982 20.5797 99.5913 18.7518 96.7404 18.112C95.8208 17.8378 94.9012 17.7464 94.0735 17.7464Z" fill="#417BD2"/>
<path d="M94.0855 99.7279C93.3498 99.7279 92.7061 99.0881 92.7061 98.3569C92.7061 97.6258 93.3498 96.986 94.0855 96.986C98.6836 96.986 103.19 95.7065 107.144 93.3302C112.846 89.8571 116.892 84.3734 118.455 77.9757C120.019 71.4866 119.007 64.8147 115.513 59.1482C110.915 51.6538 102.914 47.2668 94.1775 47.2668C93.4418 47.2668 92.798 46.627 92.798 45.8958C92.798 45.1647 93.4418 44.5249 94.1775 44.5249C103.925 44.5249 112.846 49.4603 117.904 57.7773C121.766 64.0836 122.962 71.4866 121.214 78.6155C119.467 85.7443 115.053 91.8678 108.708 95.7065C104.201 98.2655 99.1434 99.7279 94.0855 99.7279Z" fill="#417BD2"/>
<path d="M94.0774 110.055H1.37943C0.643736 110.055 0 109.415 0 108.684V43.8845C0 43.1533 0.643736 42.5136 1.37943 42.5136L44.6937 42.2394L53.0622 32.0945L53.1542 32.0031L56.6488 27.7989C56.9246 27.5247 57.2925 27.2505 57.7523 27.2505H81.7544C82.4901 27.2505 83.1339 27.8903 83.1339 28.6214C83.1339 29.3526 82.4901 29.9924 81.7544 29.9924H58.396L55.2693 33.831L55.1773 33.9224L46.5329 44.4329C46.257 44.7071 45.8892 44.8899 45.4293 44.8899L2.85084 45.164V107.222H92.7899V40.9598C92.7899 40.2287 93.4336 39.5889 94.1693 39.5889C94.905 39.5889 95.5488 40.2287 95.5488 40.9598V108.593C95.4568 109.415 94.8131 110.055 94.0774 110.055Z" fill="#417BD2"/>
<path d="M18.2229 45.1657C17.9471 45.1657 17.6712 45.0743 17.3953 44.8915C16.7516 44.4345 16.6596 43.612 17.1194 42.9722L25.1201 32.1875C25.396 31.822 25.7639 31.6392 26.2237 31.6392H54.0882C54.8239 31.6392 55.4677 32.2789 55.4677 33.0101C55.4677 33.7413 54.8239 34.381 54.0882 34.381H26.8674L19.2345 44.6173C19.0506 44.9829 18.6828 45.1657 18.2229 45.1657Z" fill="#417BD2"/>
<path d="M94.0855 82.8169C93.3498 82.8169 92.7061 82.1772 92.7061 81.446C92.7061 80.7148 93.3498 80.0751 94.0855 80.0751C95.5569 80.0751 97.0283 79.7095 98.3158 78.8869C102.086 76.602 103.374 71.5753 100.983 67.8281C99.5113 65.4518 96.9363 63.9894 94.0855 63.9894C93.3498 63.9894 92.7061 63.3497 92.7061 62.6185C92.7061 61.8873 93.3498 61.2476 94.0855 61.2476C97.8559 61.2476 101.351 63.1669 103.374 66.4571C106.5 71.4839 104.845 78.1558 99.7872 81.2632C98.0399 82.2686 96.1087 82.8169 94.0855 82.8169Z" fill="#417BD2"/>
<path d="M94.0855 77.4286C93.3498 77.4286 92.7061 76.7888 92.7061 76.0576C92.7061 75.3265 93.3498 74.6867 94.0855 74.6867C94.5453 74.6867 95.0051 74.5953 95.4649 74.3211C96.6604 73.5899 97.1203 71.9448 96.2926 70.7567C95.8328 70.0255 95.0051 69.5685 94.0855 69.5685C93.3498 69.5685 92.7061 68.9288 92.7061 68.1976C92.7061 67.4664 93.3498 66.8267 94.0855 66.8267C95.9247 66.8267 97.672 67.7406 98.6836 69.3857C99.4193 70.5739 99.6952 72.0362 99.3274 73.4071C98.9595 74.7781 98.1318 75.9662 96.9363 76.6974C96.0167 77.1544 95.0971 77.4286 94.0855 77.4286Z" fill="#417BD2"/>
<path d="M108.243 122.85H14.9009C14.1652 122.85 13.5215 122.21 13.5215 121.479V108.683C13.5215 107.952 14.1652 107.312 14.9009 107.312C15.6366 107.312 16.2804 107.952 16.2804 108.683V120.108H106.863V94.4256C106.863 93.6945 107.507 93.0547 108.243 93.0547C108.978 93.0547 109.622 93.6945 109.622 94.4256V121.479C109.622 122.21 108.978 122.85 108.243 122.85Z" fill="#417BD2"/>
<path d="M20.0508 117.271V108.732H94.079V99.2442L103.45 97.3467V117.271H20.0508Z" fill="#417BD2"/>
<path d="M26.1061 32.7949L18.4434 43.1556H46.2207L52.9256 32.7949H26.1061Z" fill="#417BD2"/>
<rect x="13.6299" y="58.2944" width="68.1626" height="48.6153" fill="#EEF6FF"/>
<rect x="22.457" y="66.2661" width="50.5205" height="3.18789" rx="1.59394" fill="#417BD2"/>
<rect x="22.457" y="75.8296" width="50.5205" height="3.18789" rx="1.59394" fill="#417BD2"/>
<rect x="22.457" y="85.3936" width="25.6612" height="3.18789" rx="1.59394" fill="#417BD2"/>
<path fill-rule="evenodd" clip-rule="evenodd" d="M89.2695 22.9473C88.5247 22.9473 87.9209 23.5511 87.9209 24.2959V28.453C87.9209 33.8942 92.5542 35.9402 93.5547 36.3201L93.7941 35.6897L93.5547 36.3201C93.8372 36.4274 94.1424 36.4274 94.4249 36.3201L94.1854 35.6897L94.4249 36.3201C95.4253 35.9402 100.059 33.8942 100.059 28.453V24.2959C100.059 23.5511 99.4548 22.9473 98.71 22.9473H89.2695ZM89.2695 24.2959L98.71 24.2959V28.453C98.71 32.8994 94.995 34.6516 93.9898 35.0426C92.9845 34.6516 89.2695 32.8994 89.2695 28.453V24.2959ZM96.4895 28.1443C96.7529 27.881 96.7529 27.454 96.4895 27.1907C96.2262 26.9273 95.7992 26.9273 95.5359 27.1907L93.3154 29.4111L92.4436 28.5393C92.1803 28.276 91.7533 28.276 91.49 28.5393C91.2267 28.8027 91.2267 29.2296 91.49 29.4929L92.8386 30.8416C93.102 31.1049 93.5289 31.1049 93.7923 30.8416L96.4895 28.1443Z" fill="white"/>
<path fill-rule="evenodd" clip-rule="evenodd" d="M78.1389 34.3775C75.5357 30.8051 74 26.4067 74 21.6499C74 9.69301 83.7037 0 95.6738 0C107.644 0 117.348 9.69301 117.348 21.6499C117.348 33.6069 107.644 43.2999 95.6738 43.2999C91.3706 43.2999 87.3603 42.0472 83.9884 39.8869L76.4903 41.1709L78.1389 34.3775Z" fill="#FFB932"/>
<path d="M97.1359 25.8828H93.5239V23.9541C93.5239 23.1467 93.6154 22.5487 93.7983 22.1599C94.0116 21.7413 94.4688 21.1881 95.1699 20.5003L97.5016 18.2127C97.9893 17.7044 98.2331 17.0465 98.2331 16.2391C98.2331 15.4616 97.9741 14.8187 97.4559 14.3104C96.9682 13.802 96.3129 13.5478 95.4899 13.5478C94.6669 13.5478 93.9811 13.802 93.4325 14.3104C92.8838 14.7888 92.579 15.4317 92.5181 16.2391H88.6318C88.8452 14.3851 89.5767 12.9348 90.8264 11.8882C92.1066 10.8117 93.7068 10.2734 95.6271 10.2734C97.5473 10.2734 99.1018 10.7967 100.291 11.8433C101.479 12.8601 102.074 14.2655 102.074 16.0597C102.074 17.2857 101.708 18.3323 100.976 19.1995C100.519 19.7976 99.94 20.4106 99.239 21.0385C98.5075 21.6964 98.0045 22.1898 97.7302 22.5187C97.334 23.057 97.1359 23.7149 97.1359 24.4924V25.8828ZM92.9296 30.5477C92.9296 29.9198 93.1734 29.3815 93.6611 28.933C94.1488 28.4545 94.7279 28.2153 95.3985 28.2153C96.069 28.2153 96.6482 28.4396 97.1359 28.8881C97.6235 29.3367 97.8674 29.8749 97.8674 30.5029C97.8674 31.1607 97.6235 31.7289 97.1359 32.2073C96.6786 32.6559 96.1148 32.8802 95.4442 32.8802C94.7736 32.8802 94.1793 32.6559 93.6611 32.2073C93.1734 31.7289 92.9296 31.1757 92.9296 30.5477Z" fill="white"/>
<defs>
<linearGradient id="paint0_linear_17748_1416" x1="50.066" y1="28.0098" x2="50.066" y2="108.504" gradientUnits="userSpaceOnUse">
<stop stop-color="#417BD2"/>
<stop offset="1" stop-color="#81AFF4"/>
</linearGradient>
</defs>
</svg>
