<svg width="18" height="18" viewBox="0 0 18 18" fill="none" xmlns="http://www.w3.org/2000/svg">
<path fill-rule="evenodd" clip-rule="evenodd" d="M3.7691 6.05914C4.79709 4.2344 6.75373 3 9 3C11.8116 3 14.1706 4.93334 14.8218 7.54331C16.6215 7.81864 18 9.37333 18 11.25C18 13.3211 16.3211 15 14.25 15H4.5C2.01472 15 0 12.9853 0 10.5C0 8.26352 1.63113 6.40856 3.7691 6.05914ZM9 4.5C7.20328 4.5 5.651 5.55296 4.92938 7.07877C4.81293 7.32499 4.57215 7.48872 4.30036 7.50651C2.73695 7.60884 1.5 8.91027 1.5 10.5C1.5 12.1569 2.84315 13.5 4.5 13.5H14.25C15.4926 13.5 16.5 12.4926 16.5 11.25C16.5 10.0074 15.4926 9 14.25 9C14.2367 9 14.2233 9.00012 14.2099 9.00035C13.8318 9.00691 13.508 8.73095 13.4544 8.3566C13.1428 6.17634 11.2665 4.5 9 4.5Z" fill="#417BD2"/>
<path fill-rule="evenodd" clip-rule="evenodd" d="M11.7803 7.71967C12.0732 8.01256 12.0732 8.48744 11.7803 8.78033L8.78033 11.7803C8.48744 12.0732 8.01256 12.0732 7.71967 11.7803L6.21967 10.2803C5.92678 9.98744 5.92678 9.51256 6.21967 9.21967C6.51256 8.92678 6.98744 8.92678 7.28033 9.21967L8.25 10.1893L10.7197 7.71967C11.0126 7.42678 11.4874 7.42678 11.7803 7.71967Z" fill="#417BD2"/>
</svg>
