<svg width="50" height="50" viewBox="0 0 50 50" fill="none" xmlns="http://www.w3.org/2000/svg">
<path fill-rule="evenodd" clip-rule="evenodd" d="M33.3333 2.0835C34.4839 2.0835 35.4167 3.01624 35.4167 4.16683V6.25016H39.5833C41.8845 6.25016 43.75 8.11564 43.75 10.4168V16.6668V39.5835C43.75 41.8847 41.8845 43.7502 39.5833 43.7502H10.4167C8.11548 43.7502 6.25 41.8847 6.25 39.5835V16.6668V10.4168C6.25 8.11564 8.11548 6.25016 10.4167 6.25016H14.5833V4.16683C14.5833 3.01624 15.5161 2.0835 16.6667 2.0835C17.8173 2.0835 18.75 3.01624 18.75 4.16683V6.25016H31.25V4.16683C31.25 3.01624 32.1827 2.0835 33.3333 2.0835ZM16.6667 10.4168H10.4167V14.5835H39.5833V10.4168H33.3333H16.6667ZM10.4167 18.7502H39.5833V39.5835H10.4167V18.7502ZM19.3602 23.527C20.1738 22.7134 21.4929 22.7134 22.3065 23.527L25 26.2206L27.6936 23.527C28.5071 22.7134 29.8262 22.7134 30.6398 23.527C31.4534 24.3406 31.4534 25.6597 30.6398 26.4733L27.9463 29.1668L30.6398 31.8603C31.4534 32.6739 31.4534 33.993 30.6398 34.8066C29.8262 35.6202 28.5071 35.6202 27.6935 34.8066L25 32.1131L22.3065 34.8067C21.4929 35.6203 20.1738 35.6203 19.3602 34.8067C18.5466 33.9931 18.5466 32.674 19.3602 31.8604L22.0537 29.1668L19.3602 26.4733C18.5466 25.6597 18.5466 24.3406 19.3602 23.527Z" fill="#EE5E5E"/>
</svg>
