<svg fill="none" height="34" viewBox="0 0 34 34" width="34" xmlns="http://www.w3.org/2000/svg" xmlns:xlink="http://www.w3.org/1999/xlink"><linearGradient id="a" gradientUnits="userSpaceOnUse" x1="16.9999" x2="16.9999" y1="0" y2="34"><stop offset="0" stop-color="#85beff"/><stop offset="1" stop-color="#5183bb"/></linearGradient><rect fill="url(#a)" height="34" rx="16.9999" width="33.9998"/><path clip-rule="evenodd" d="m21.5994 11.662c-1.9401-.8826-8.1926-.8827-10.1328 0-.4591.2089-.6919.4871-.6919.8269 0 .3399.2328.6181.6919.8269 1.9421.8836 8.1944.8819 10.1328 0 .4591-.2088.6918-.487.6918-.8269 0-.3398-.2327-.618-.6918-.8269zm1.6003 1.145c-.0534.2734-.1892.6016-.5035.9035.8678 0 1.3645.6406 1.3645 1.2979 0 .7157-.5784 1.2979-1.2894 1.2979h-.48v-2.2891c-1.9756 1.1927-9.478 1.2307-11.5166 0v1.7285c0 3.1961 2.5832 5.7963 5.7583 5.7963 2.6577 0 4.9003-1.822 5.5607-4.2901h.6776c1.2289 0 2.2287-1.0064 2.2287-2.2435 0-1.0895-.7757-1.9997-1.8003-2.2014zm-11.7804 7.2872c2.7029 3.2156 7.6013 3.18 10.2661-.044 1.0469.3199 1.5583.7456 1.5583 1.2937 0 .6457-.7091 1.1215-2.1677 1.4546-2.4733.5649-6.4366.5645-8.9083 0-1.4587-.3331-2.1677-.8089-2.1677-1.4546 0-.5233.466-.9351 1.4193-1.2497z" fill="#fff" fill-rule="evenodd"/></svg>