<svg width="94" height="94" viewBox="0 0 94 94" fill="none" xmlns="http://www.w3.org/2000/svg">
<g filter="url(#filter0_d)">
<rect x="30" y="21" width="33.9998" height="34" rx="16.9999" fill="url(#paint0_linear)"/>
</g>
<path fill-rule="evenodd" clip-rule="evenodd" d="M51.5994 32.662C49.6593 31.7794 43.4068 31.7793 41.4666 32.662C41.0075 32.8709 40.7747 33.1491 40.7747 33.4889C40.7747 33.8288 41.0075 34.107 41.4666 34.3158C43.4087 35.1994 49.661 35.1977 51.5994 34.3158C52.0585 34.107 52.2912 33.8288 52.2912 33.4889C52.2912 33.1491 52.0585 32.8709 51.5994 32.662ZM53.1997 33.807C53.1463 34.0804 53.0105 34.4086 52.6962 34.7105C53.564 34.7105 54.0607 35.3511 54.0607 36.0084C54.0607 36.7241 53.4823 37.3063 52.7713 37.3063H52.2913V35.0172C50.3157 36.2099 42.8133 36.2479 40.7747 35.0172V36.7457C40.7747 39.9418 43.3579 42.542 46.533 42.542C49.1907 42.542 51.4333 40.72 52.0937 38.2519H52.7713C54.0002 38.2519 55 37.2455 55 36.0084C55 34.9189 54.2243 34.0087 53.1997 33.807ZM41.4193 41.0942C44.1222 44.3098 49.0206 44.2742 51.6854 41.0502C52.7323 41.3701 53.2437 41.7958 53.2437 42.3439C53.2437 42.9896 52.5346 43.4654 51.076 43.7985C48.6027 44.3634 44.6394 44.363 42.1677 43.7985C40.709 43.4654 40 42.9896 40 42.3439C40 41.8206 40.466 41.4088 41.4193 41.0942Z" fill="white"/>
<defs>
<filter id="filter0_d" x="0" y="0" width="93.9998" height="94" filterUnits="userSpaceOnUse" color-interpolation-filters="sRGB">
<feFlood flood-opacity="0" result="BackgroundImageFix"/>
<feColorMatrix in="SourceAlpha" type="matrix" values="0 0 0 0 0 0 0 0 0 0 0 0 0 0 0 0 0 0 127 0" result="hardAlpha"/>
<feOffset dy="9"/>
<feGaussianBlur stdDeviation="15"/>
<feColorMatrix type="matrix" values="0 0 0 0 0.593438 0 0 0 0 0.707729 0 0 0 0 0.879167 0 0 0 0.25 0"/>
<feBlend mode="normal" in2="BackgroundImageFix" result="effect1_dropShadow"/>
<feBlend mode="normal" in="SourceGraphic" in2="effect1_dropShadow" result="shape"/>
</filter>
<linearGradient id="paint0_linear" x1="46.9999" y1="21" x2="46.9999" y2="55" gradientUnits="userSpaceOnUse">
<stop stop-color="#85BEFF"/>
<stop offset="1" stop-color="#5183BB"/>
</linearGradient>
</defs>
</svg>
