<svg width="459" height="346" viewBox="0 0 459 346" fill="none" xmlns="http://www.w3.org/2000/svg">
<path d="M378.426 295H268.569C266 295 264 296.905 264 299C264 301.286 266 303 268.569 303H378.426C381 303 382.995 301.095 382.995 299C383.07 296.905 381 295 378.426 295Z" fill="#D7F1F9"/>
<g filter="url(#filter0_d)">
<rect width="285" height="218" rx="40" transform="matrix(-1 0 0 1 410.931 17)" fill="white"/>
</g>
<g filter="url(#filter1_d)">
<rect x="396.001" y="67" width="29.0233" height="28.087" rx="14.0435" fill="url(#paint0_linear)"/>
</g>
<g filter="url(#filter2_d)">
<rect x="30.001" y="188" width="29.0233" height="28.087" rx="14.0435" fill="url(#paint1_linear)"/>
</g>
<g filter="url(#filter3_d)">
<rect x="79.209" y="171.302" width="131.698" height="131.698" rx="35" fill="url(#paint2_linear)"/>
</g>
<rect x="15" y="75" width="76.186" height="76.186" rx="20" fill="url(#paint3_linear)"/>
<path d="M323.077 196.925L347.883 290.724H360.521L349.522 193.417L323.077 196.925Z" fill="#004E82"/>
<path d="M347.415 194.82C347.415 194.82 347.181 201.135 341.799 208.62C336.416 216.106 314.184 238.561 314.184 238.561L316.524 290.256H305.291L295.931 233.181L318.865 195.755L347.415 194.82Z" fill="#5183BB"/>
<path d="M296.634 104.062L284.933 125.114C283.997 126.985 281.656 127.687 279.784 126.517C277.912 125.582 277.21 123.243 278.38 121.371L290.081 100.319L296.634 104.062Z" fill="url(#paint4_linear)"/>
<path d="M269.72 89.0914L264.337 98.9157C261.763 97.2783 260.827 94.0035 262.231 91.4305C263.869 88.8575 267.146 87.6879 269.72 89.0914Z" fill="#BADBFF"/>
<path d="M277.21 78.3318L277.678 78.5657C278.38 79.0336 278.848 79.9692 278.38 80.6709L262.467 110.144C261.999 110.846 261.062 111.313 260.36 110.846L259.892 110.612C259.19 110.144 258.722 109.208 259.19 108.506L275.104 79.0336C275.572 78.0979 276.508 77.864 277.21 78.3318Z" fill="url(#paint5_linear)"/>
<path d="M277.677 81.8406C277.677 82.7762 290.548 96.1092 298.973 102.191C302.015 104.53 302.951 108.74 301.079 112.015C299.207 115.29 295.229 116.927 291.718 115.524C281.889 112.015 263.87 108.273 262.934 108.974L277.677 81.8406Z" fill="#5183BB"/>
<path d="M291.719 96.3431L282.826 112.951C273.699 110.612 263.636 108.74 262.934 108.974L277.678 81.8406C277.678 82.5423 284.698 90.0275 291.719 96.3431Z" fill="#BADBFF"/>
<path d="M290.782 121.606L289.144 117.162L287.506 119.969L284.23 118.097C281.655 116.694 278.379 117.629 276.975 120.202C275.571 122.776 276.507 126.05 279.081 127.454C281.889 129.091 284.932 129.559 288.208 129.325H289.378L292.654 123.477L290.782 121.606Z" fill="#FFE27C"/>
<path d="M313.248 99.6183C313.248 99.6183 310.206 87.2209 322.609 86.5192C335.012 85.8175 342.267 93.5366 344.139 99.8522C346.947 109.209 342.267 118.565 337.352 121.138L330.566 106.168L313.248 99.6183Z" fill="#004E82"/>
<path d="M333.842 106.168C333.842 106.168 337.118 101.723 338.756 105.466C340.394 109.208 340.16 114.588 334.31 114.354C334.31 114.354 331.97 125.582 321.205 122.307C310.44 119.033 311.844 104.53 313.482 99.3842C313.482 99.3842 323.077 101.022 329.395 98.2146C329.161 98.6824 331.502 105.466 333.842 106.168Z" fill="#FFE27C"/>
<path d="M324.716 119.501L326.12 133.301L338.289 125.348L336.885 110.846L324.716 119.501Z" fill="#FFE27C"/>
<path d="M342.97 124.88C342.97 124.88 351.16 128.389 353.033 132.131C354.203 134.47 357.479 146.868 359.351 154.587C360.287 158.329 358.883 162.54 355.607 164.879L339.693 176.575L342.97 124.88Z" fill="#FFC668"/>
<path d="M337.587 123.711C337.587 123.711 341.331 122.775 345.076 127.219C348.82 131.664 351.628 137.512 350.458 155.055C349.288 172.598 355.139 197.159 355.139 197.159C343.204 203.475 328.694 203.942 316.291 198.329L313.951 197.159C313.951 197.159 314.653 152.248 323.78 132.366L337.587 123.711Z" fill="url(#paint6_linear)"/>
<path d="M327.758 129.559L307.164 144.061L291.953 121.138L286.57 131.196C286.57 131.196 299.91 158.33 304.824 163.476L337.587 146.634C342.267 144.295 344.139 138.681 342.033 133.769C339.693 128.389 332.906 126.284 327.758 129.559Z" fill="#FFC668"/>
<path d="M316.759 290.256V299.145H292.655C291.251 299.145 290.549 297.274 291.719 296.338C294.527 294.233 299.441 291.426 306.462 290.256H316.759Z" fill="#004E82"/>
<path d="M360.286 290.256V299.145H336.182C334.778 299.145 334.076 297.274 335.246 296.338C338.054 294.233 342.969 291.426 349.989 290.256H360.286Z" fill="#004E82"/>
<path d="M118.527 227.113C119.387 227.707 121.98 229.471 126.306 232.403C130.631 235.336 133.945 237.595 136.247 239.178C136.5 239.352 137.038 239.729 137.86 240.311C138.682 240.893 139.365 241.363 139.909 241.722C140.453 242.081 141.11 242.483 141.882 242.928C142.654 243.373 143.381 243.708 144.064 243.93C144.748 244.153 145.38 244.264 145.962 244.264H146H146.038C146.62 244.264 147.252 244.153 147.936 243.93C148.618 243.708 149.346 243.373 150.117 242.928C150.889 242.482 151.547 242.081 152.09 241.722C152.634 241.363 153.317 240.893 154.14 240.311C154.961 239.729 155.499 239.352 155.752 239.178C158.079 237.595 164 233.572 173.511 227.112C175.358 225.85 176.9 224.328 178.14 222.546C179.38 220.764 180 218.895 180 216.94C180 215.307 179.398 213.908 178.197 212.745C176.995 211.581 175.572 211 173.928 211H118.071C116.123 211 114.624 211.643 113.575 212.93C112.525 214.217 112 215.826 112 217.757C112 219.316 112.696 221.006 114.087 222.825C115.478 224.644 116.958 226.073 118.527 227.113Z" fill="white"/>
<path d="M176.205 231.811C167.908 237.306 161.608 241.576 157.308 244.62C155.866 245.659 154.696 246.471 153.798 247.052C152.9 247.633 151.705 248.227 150.212 248.834C148.72 249.441 147.329 249.743 146.039 249.743H146H145.962C144.672 249.743 143.28 249.441 141.788 248.834C140.295 248.227 139.1 247.633 138.202 247.052C137.304 246.471 136.134 245.659 134.692 244.62C131.277 242.17 124.991 237.9 115.833 231.811C114.391 230.872 113.113 229.794 112 228.582V258.059C112 259.694 112.594 261.091 113.783 262.255C114.972 263.418 116.402 264 118.072 264H173.929C175.598 264 177.027 263.418 178.216 262.255C179.406 261.091 180 259.694 180 258.059V228.582C178.912 229.769 177.647 230.846 176.205 231.811Z" fill="white"/>
<path d="M172.569 75.5724C188.006 60.1437 212.99 60.1414 228.428 75.5724C240.842 87.9793 243.187 106.427 235.849 121.119L239.917 139.006C240.446 141.331 238.361 143.416 236.034 142.887L218.138 138.821C192.117 151.806 161 133.006 161 103.488C161 92.9434 165.109 83.0293 172.569 75.5724ZM192.259 113.319H216.978C218.77 113.319 220.222 111.868 220.222 110.077C220.222 108.286 218.77 106.834 216.978 106.834H192.259C190.468 106.834 189.015 108.286 189.015 110.077C189.015 111.868 190.468 113.319 192.259 113.319ZM184.02 100.143H216.978C218.77 100.143 220.222 98.6909 220.222 96.9C220.222 95.1091 218.77 93.6573 216.978 93.6573H184.02C182.228 93.6573 180.775 95.1091 180.775 96.9C180.775 98.6909 182.228 100.143 184.02 100.143Z" fill="url(#paint7_linear)"/>
<path d="M68.0319 120.286C65.7666 120.286 63.5424 119.932 61.4347 119.235C60.4018 118.883 59.1322 119.206 58.5018 119.854L54.3416 122.994C49.5169 120.419 46.545 117.448 44.0047 112.659L47.0528 108.607C47.8448 107.817 48.1288 106.661 47.7885 105.577C47.089 103.458 46.7336 101.235 46.7336 98.969C46.7337 97.3319 45.4018 96 43.7648 96H36.9699C35.3329 96 34.001 97.3319 34.001 98.9689C34.001 117.734 49.267 133 68.0319 133C69.6689 133 71.0008 131.668 71.0008 130.031V123.255C71.0007 121.618 69.6688 120.286 68.0319 120.286Z" fill="white"/>
<defs>
<filter id="filter0_d" x="103.931" y="0" width="355" height="288" filterUnits="userSpaceOnUse" color-interpolation-filters="sRGB">
<feFlood flood-opacity="0" result="BackgroundImageFix"/>
<feColorMatrix in="SourceAlpha" type="matrix" values="0 0 0 0 0 0 0 0 0 0 0 0 0 0 0 0 0 0 127 0" result="hardAlpha"/>
<feOffset dx="13" dy="18"/>
<feGaussianBlur stdDeviation="17.5"/>
<feColorMatrix type="matrix" values="0 0 0 0 0 0 0 0 0 0.351917 0 0 0 0 0.429167 0 0 0 0.15 0"/>
<feBlend mode="normal" in2="BackgroundImageFix" result="effect1_dropShadow"/>
<feBlend mode="normal" in="SourceGraphic" in2="effect1_dropShadow" result="shape"/>
</filter>
<filter id="filter1_d" x="366.001" y="46" width="89.0233" height="88.087" filterUnits="userSpaceOnUse" color-interpolation-filters="sRGB">
<feFlood flood-opacity="0" result="BackgroundImageFix"/>
<feColorMatrix in="SourceAlpha" type="matrix" values="0 0 0 0 0 0 0 0 0 0 0 0 0 0 0 0 0 0 127 0" result="hardAlpha"/>
<feOffset dy="9"/>
<feGaussianBlur stdDeviation="15"/>
<feColorMatrix type="matrix" values="0 0 0 0 0.593438 0 0 0 0 0.707729 0 0 0 0 0.879167 0 0 0 0.25 0"/>
<feBlend mode="normal" in2="BackgroundImageFix" result="effect1_dropShadow"/>
<feBlend mode="normal" in="SourceGraphic" in2="effect1_dropShadow" result="shape"/>
</filter>
<filter id="filter2_d" x="0.000976562" y="167" width="89.0233" height="88.087" filterUnits="userSpaceOnUse" color-interpolation-filters="sRGB">
<feFlood flood-opacity="0" result="BackgroundImageFix"/>
<feColorMatrix in="SourceAlpha" type="matrix" values="0 0 0 0 0 0 0 0 0 0 0 0 0 0 0 0 0 0 127 0" result="hardAlpha"/>
<feOffset dy="9"/>
<feGaussianBlur stdDeviation="15"/>
<feColorMatrix type="matrix" values="0 0 0 0 0.593438 0 0 0 0 0.707729 0 0 0 0 0.879167 0 0 0 0.25 0"/>
<feBlend mode="normal" in2="BackgroundImageFix" result="effect1_dropShadow"/>
<feBlend mode="normal" in="SourceGraphic" in2="effect1_dropShadow" result="shape"/>
</filter>
<filter id="filter3_d" x="46.209" y="144.302" width="201.698" height="201.698" filterUnits="userSpaceOnUse" color-interpolation-filters="sRGB">
<feFlood flood-opacity="0" result="BackgroundImageFix"/>
<feColorMatrix in="SourceAlpha" type="matrix" values="0 0 0 0 0 0 0 0 0 0 0 0 0 0 0 0 0 0 127 0" result="hardAlpha"/>
<feOffset dx="2" dy="8"/>
<feGaussianBlur stdDeviation="17.5"/>
<feColorMatrix type="matrix" values="0 0 0 0 0 0 0 0 0 0.351917 0 0 0 0 0.429167 0 0 0 0.15 0"/>
<feBlend mode="normal" in2="BackgroundImageFix" result="effect1_dropShadow"/>
<feBlend mode="normal" in="SourceGraphic" in2="effect1_dropShadow" result="shape"/>
</filter>
<linearGradient id="paint0_linear" x1="410.513" y1="67" x2="410.513" y2="95.087" gradientUnits="userSpaceOnUse">
<stop stop-color="#B0E7C6"/>
<stop offset="1" stop-color="#5DD1B3"/>
</linearGradient>
<linearGradient id="paint1_linear" x1="44.5126" y1="188" x2="44.5126" y2="216.087" gradientUnits="userSpaceOnUse">
<stop stop-color="#BADBFF"/>
<stop offset="1" stop-color="#89BCF4"/>
</linearGradient>
<linearGradient id="paint2_linear" x1="145.058" y1="171.302" x2="145.058" y2="303" gradientUnits="userSpaceOnUse">
<stop stop-color="#B0E7C6"/>
<stop offset="1" stop-color="#5DD1B3"/>
</linearGradient>
<linearGradient id="paint3_linear" x1="53.093" y1="93.6149" x2="53.093" y2="151.186" gradientUnits="userSpaceOnUse">
<stop stop-color="#FFED49"/>
<stop offset="1" stop-color="#FFC369"/>
</linearGradient>
<linearGradient id="paint4_linear" x1="287.221" y1="100.319" x2="287.221" y2="127.089" gradientUnits="userSpaceOnUse">
<stop stop-color="#B0E7C6"/>
<stop offset="1" stop-color="#5DD1B3"/>
</linearGradient>
<linearGradient id="paint5_linear" x1="268.785" y1="78.0979" x2="268.785" y2="111.034" gradientUnits="userSpaceOnUse">
<stop stop-color="#B0E7C6"/>
<stop offset="1" stop-color="#5DD1B3"/>
</linearGradient>
<linearGradient id="paint6_linear" x1="334.545" y1="142.836" x2="334.545" y2="202.238" gradientUnits="userSpaceOnUse">
<stop stop-color="#FFED49"/>
<stop offset="1" stop-color="#FFC369"/>
</linearGradient>
<linearGradient id="paint7_linear" x1="200.5" y1="64" x2="200.5" y2="143" gradientUnits="userSpaceOnUse">
<stop stop-color="#BADBFF"/>
<stop offset="1" stop-color="#89BCF4"/>
</linearGradient>
</defs>
</svg>
