<svg height="386" viewBox="0 0 485 386" width="485" xmlns="http://www.w3.org/2000/svg" xmlns:xlink="http://www.w3.org/1999/xlink"><defs><path id="a" d="m10 0h221c5.522847 0 10 4.4771525 10 10v142c0 5.522847-4.477153 10-10 10h-221c-5.5228475 0-10-4.477153-10-10v-142c0-5.5228475 4.4771525-10 10-10z"/><filter id="b" height="169.1%" width="146.5%" x="-23.2%" y="-28.4%"><feOffset dx="0" dy="10" in="SourceAlpha" result="shadowOffsetOuter1"/><feGaussianBlur in="shadowOffsetOuter1" result="shadowBlurOuter1" stdDeviation="17"/><feColorMatrix in="shadowBlurOuter1" type="matrix" values="0 0 0 0 0.2   0 0 0 0 0.2   0 0 0 0 0.2  0 0 0 0.5 0"/></filter><path id="c" d="m10 0h257c5.522847 0 10 4.4771525 10 10v166c0 5.522847-4.477153 10-10 10h-257c-5.5228475 0-10-4.477153-10-10v-166c0-5.5228475 4.4771525-10 10-10z"/><filter id="d" height="160.2%" width="140.4%" x="-20.2%" y="-24.7%"><feOffset dx="0" dy="10" in="SourceAlpha" result="shadowOffsetOuter1"/><feGaussianBlur in="shadowOffsetOuter1" result="shadowBlurOuter1" stdDeviation="17"/><feColorMatrix in="shadowBlurOuter1" type="matrix" values="0 0 0 0 0.2   0 0 0 0 0.2   0 0 0 0 0.2  0 0 0 0.5 0"/></filter><path id="e" d="m10 0h50c5.5228475 0 10 4.4771525 10 10v40c0 5.5228475-4.4771525 10-10 10h-50c-5.5228475 0-10-4.4771525-10-10v-40c0-5.5228475 4.4771525-10 10-10z"/><filter id="f" height="286.7%" width="260%" x="-80%" y="-76.7%"><feOffset dx="0" dy="10" in="SourceAlpha" result="shadowOffsetOuter1"/><feGaussianBlur in="shadowOffsetOuter1" result="shadowBlurOuter1" stdDeviation="17"/><feColorMatrix in="shadowBlurOuter1" type="matrix" values="0 0 0 0 0.2   0 0 0 0 0.2   0 0 0 0 0.2  0 0 0 0.5 0"/></filter><mask id="g" fill="#fff"><path d="m10 0h221c5.522847 0 10 4.4771525 10 10v142c0 5.522847-4.477153 10-10 10h-221c-5.5228475 0-10-4.477153-10-10v-142c0-5.5228475 4.4771525-10 10-10z" fill="#fff" fill-rule="evenodd"/></mask><mask id="h" fill="#fff"><path d="m10 0h257c5.522847 0 10 4.4771525 10 10v166c0 5.522847-4.477153 10-10 10h-257c-5.5228475 0-10-4.477153-10-10v-166c0-5.5228475 4.4771525-10 10-10z" fill="#fff" fill-rule="evenodd"/></mask></defs><g fill="none" fill-rule="evenodd"><g transform="translate(34 180)"><use fill="#000" filter="url(#b)" xlink:href="#a"/><use fill="#fff" fill-rule="evenodd" xlink:href="#a"/></g><g transform="translate(34 180)"><g fill="#0b7a76" fill-opacity=".27" fill-rule="nonzero" mask="url(#g)"><path d="m51 0c-20.2488412.03843959-38.5645918 12.020461-46.69697233 30.5487957-8.13238053 18.5283346-4.54689603 40.10688 9.14138193 55.0156397 9.6732769 10.4765985 23.2896323 16.4355646 37.5555904 16.4355646s27.8823135-5.9589661 37.5555904-16.4355646c13.6882776-14.9087597 17.2737626-36.4873051 9.1413819-55.0156397-8.1323805-18.5283347-26.4481311-30.51035611-46.6969723-30.5487957zm0 91.8949783c-10.5847235-.0160731-20.7505364-4.133858-28.358303-11.4868723 4.723998-11.490461 15.9256532-18.9926365 28.358303-18.9926365s23.634305 7.5021755 28.358303 18.9926365c-7.6077666 7.3530143-17.7735795 11.4707992-28.358303 11.4868723zm-10.2192083-51.0527657c0-5.6391328 4.5752954-10.2105532 10.2192083-10.2105532s10.2192083 4.5714204 10.2192083 10.2105532-4.5752954 10.2105531-10.2192083 10.2105531-10.2192083-4.5714203-10.2192083-10.2105531zm45.5265729 30.6316594c-4.5652715-7.8020929-11.591638-13.870892-19.9785522-17.2558348 7.2465852-8.209896 6.7253652-20.6686363-1.1816761-28.2456433-7.9070413-7.5770069-20.3872313-7.5770069-28.2942726 0-7.9070413 7.577007-8.4282613 20.0357473-1.1816761 28.2456433-8.3869142 3.3849428-15.4132807 9.4537419-19.9785522 17.2558348-3.6383255-6.1921795-5.5606797-13.2407157-5.5694685-20.4211063 0-22.5565311 18.3011815-40.8422126 40.8768331-40.8422126s40.8768331 18.2856815 40.8768331 40.8422126c-.0087888 7.1803906-1.931143 14.2289268-5.5694685 20.4211063z" transform="translate(70 74)"/></g><g fill="#e1e8ee"><path d="m37.5 23h166c2.485281 0 4.5 2.0147186 4.5 4.5 0 2.4852814-2.014719 4.5-4.5 4.5h-166c-2.4852814 0-4.5-2.0147186-4.5-4.5 0-2.4852814 2.0147186-4.5 4.5-4.5z" mask="url(#g)"/><rect height="9" mask="url(#g)" rx="4.5" width="175" x="33" y="42"/></g></g><g transform="translate(174 31)"><use fill="#000" filter="url(#d)" xlink:href="#c"/><use fill="#fff" fill-rule="evenodd" xlink:href="#c"/></g><g fill="#0b7a76" fill-opacity=".27" fill-rule="nonzero" mask="url(#h)" transform="translate(174 31)"><path d="m183.233778 169.429586c12.467671-16.69491 16.67765-38.139869 11.445654-58.302335-5.231996-20.1624654-19.340602-36.8637017-38.357018-45.405592-5.601816-32.1963735-30.586168-57.55708777-62.7221393-63.66697941-32.1359709-6.10989164-64.6991953 8.30951761-81.7485705 36.19930511-17.04937526 27.8897875-15.01736559 63.4140903 5.1012726 89.1822303l-13.65211539 13.539919c-2.78684424 2.821412-3.60059054 7.040786-2.0625498 10.694573 1.50667886 3.663878 5.0709075 6.063381 9.03593249 6.083152h55.8852781c11.3587722 23.921843 35.4708328 39.19106 61.9747108 39.246141h58.929994c3.965025-.019772 7.529254-2.419274 9.035933-6.083152 1.538041-3.653787.724294-7.873161-2.06255-10.694573zm-123.8512052-41.110332c.0134914 3.285641.2761542 6.565539.7857333 9.811535h-26.2238476l3.437583-3.335922c1.8593656-1.842279 2.9052323-4.350067 2.9052323-6.96619 0-2.616124-1.0458667-5.123912-2.9052323-6.96619-11.1194463-10.986116-17.3488823-25.9779145-17.2861317-41.6009095 0-32.5125676 26.3838572-58.8692112 58.9299945-58.8692112 25.0054567-.1501137 47.3259507 15.6357067 55.4924117 39.2461408-2.160767 0-4.223317 0-6.384083 0-37.9704935 0-68.7516602 30.7494176-68.7516602 68.6807469zm103.5203572 49.057676.491083.490576h-35.25978c-23.425864-.041794-43.5606716-16.606954-48.092809-39.566559-4.5321375-22.959605 7.800384-45.9204758 29.456731-54.8429768 21.656346-8.922501 46.606235-1.3221315 59.593827 18.1537928 12.987592 19.475924 10.396449 45.404266-6.189052 61.930902-1.850542 1.811508-2.9096 4.280093-2.9465 6.868075.010896 2.622092 1.071979 5.130732 2.9465 6.96619z" transform="translate(83.6639 15.333333)"/></g><g transform="translate(61 24)"><use fill="#000" filter="url(#f)" xlink:href="#e"/><use fill="#fff" fill-rule="evenodd" xlink:href="#e"/></g><g fill="#e1e8ee" transform="translate(66 29)"><path d="m12 7h31c2.209139 0 4 1.790861 4 4 0 2.209139-1.790861 4-4 4h-31c-2.209139 0-4-1.790861-4-4 0-2.209139 1.790861-4 4-4z"/><path d="m12 35h13c2.209139 0 4 1.790861 4 4 0 2.209139-1.790861 4-4 4h-13c-2.209139 0-4-1.790861-4-4 0-2.209139 1.790861-4 4-4z"/><rect height="8" rx="4" width="46" x="8" y="21"/></g></g></svg>