<svg fill="none" height="223" viewBox="0 0 312 223" width="312" xmlns="http://www.w3.org/2000/svg" xmlns:xlink="http://www.w3.org/1999/xlink"><filter id="a" color-interpolation-filters="sRGB" filterUnits="userSpaceOnUse" height="223" width="304" x="8" y="0"><feFlood flood-opacity="0" result="BackgroundImageFix"/><feColorMatrix in="SourceAlpha" type="matrix" values="0 0 0 0 0 0 0 0 0 0 0 0 0 0 0 0 0 0 127 0"/><feOffset dy="15"/><feGaussianBlur stdDeviation="22.5"/><feColorMatrix type="matrix" values="0 0 0 0 0.719566 0 0 0 0 0.748166 0 0 0 0 0.795833 0 0 0 0.25 0"/><feBlend in2="BackgroundImageFix" mode="normal" result="effect1_dropShadow"/><feBlend in="SourceGraphic" in2="effect1_dropShadow" mode="normal" result="shape"/></filter><filter id="b" color-interpolation-filters="sRGB" filterUnits="userSpaceOnUse" height="137" width="137" x="0" y="35"><feFlood flood-opacity="0" result="BackgroundImageFix"/><feColorMatrix in="SourceAlpha" type="matrix" values="0 0 0 0 0 0 0 0 0 0 0 0 0 0 0 0 0 0 127 0"/><feOffset dx="9" dy="20"/><feGaussianBlur stdDeviation="20"/><feColorMatrix type="matrix" values="0 0 0 0 0 0 0 0 0 0.351917 0 0 0 0 0.429167 0 0 0 0.25 0"/><feBlend in2="BackgroundImageFix" mode="normal" result="effect1_dropShadow"/><feBlend in="SourceGraphic" in2="effect1_dropShadow" mode="normal" result="shape"/></filter><g filter="url(#a)"><rect fill="#fff" height="133" rx="30" width="214" x="53" y="30"/></g><g filter="url(#b)"><rect fill="#00a0b6" height="57" rx="17" width="57" x="31" y="55"/></g><rect fill="#9cd7eb" height="20" rx="10" transform="matrix(-1 0 0 -1 418 80)" width="43" x="209" y="40"/><rect fill="#9cd7eb" height="20" rx="10" transform="matrix(-1 0 0 -1 224 350)" width="31" x="112" y="175"/><rect fill="#ff647c" height="30" rx="7" width="30" x="252" y="90"/><g clip-rule="evenodd" fill-rule="evenodd"><path d="m203.515 127.834c5.011-6.711 6.704-15.331 4.601-23.435s-7.774-14.817-15.418-18.2504c-2.251-12.9412-12.294-23.1348-25.211-25.5907-12.917-2.4558-26.005 3.34-32.858 14.5502s-6.037 25.4889 2.05 35.8469l-5.487 5.442c-1.12 1.134-1.448 2.83-.829 4.299.605 1.472 2.038 2.437 3.632 2.445h22.462c4.566 9.615 14.258 15.752 24.911 15.774h23.687c1.593-.007 3.026-.972 3.632-2.445.618-1.468.291-3.164-.829-4.298zm-49.782-16.525c.006 1.321.111 2.639.316 3.944h-10.54l1.381-1.341c.748-.74 1.168-1.748 1.168-2.8 0-1.051-.42-2.059-1.168-2.8-4.469-4.416-6.973-10.4416-6.948-16.7212 0-13.0683 10.605-23.6623 23.687-23.6623 10.051-.0603 19.022 6.2847 22.305 15.7748h-2.566c-15.262 0-27.635 12.3597-27.635 27.6057zm41.808 19.916-.197-.197c-.754-.738-1.18-1.746-1.185-2.8.015-1.04.441-2.032 1.185-2.76 6.666-6.643 7.708-17.065 2.487-24.893-5.22-7.8287-15.248-10.8836-23.953-7.2972-8.705 3.5863-13.662 12.8152-11.84 22.0442 1.822 9.228 9.915 15.887 19.331 15.903z" fill="#d9f1f4"/><path d="m259.675 101.792c1.276-2.9064 4.149-4.786 7.325-4.792 3.176.006 6.049 1.8856 7.325 4.792 1.276 2.906.713 6.291-1.434 8.63-1.517 1.643-3.653 2.578-5.891 2.578s-4.374-.935-5.891-2.578c-2.147-2.339-2.71-5.724-1.434-8.63zm2.877 7.821c1.193 1.153 2.788 1.799 4.448 1.802 1.66-.003 3.255-.649 4.448-1.802-.741-1.802-2.498-2.979-4.448-2.979s-3.707 1.177-4.448 2.979zm2.845-6.206c0-.885.718-1.602 1.603-1.602s1.603.717 1.603 1.602c0 .884-.718 1.601-1.603 1.601s-1.603-.717-1.603-1.601zm4.008 2.098c1.315.531 2.417 1.483 3.133 2.707.571-.972.873-2.077.874-3.204 0-3.538-2.871-6.4064-6.412-6.4064s-6.412 2.8684-6.412 6.4064c.001 1.127.303 2.232.874 3.204.716-1.224 1.818-2.176 3.133-2.707-1.136-1.288-1.054-3.242.186-4.431 1.24-1.1885 3.198-1.1885 4.438 0 1.24 1.189 1.322 3.143.186 4.431z" fill="#fff"/><path d="m48.3984 72h22.2032c1.8739 0 3.3984 1.5749 3.3984 3.5106v14.9788c0 1.9357-1.5245 3.5106-3.3984 3.5106h-22.2032c-1.8739 0-3.3984-1.5749-3.3984-3.5106v-14.9788c0-1.9357 1.5245-3.5106 3.3984-3.5106zm22.2032 19.6596c.6246 0 1.1328-.525 1.1328-1.1702v-14.2608l-12.2339 9.4001-12.2349-9.4009v14.2616c0 .6452.5082 1.1702 1.1328 1.1702zm-21.9961-17.3192 10.895 8.3714 10.895-8.3714z" fill="#fcfdfd"/></g></svg>