<svg fill="none" height="19" viewBox="0 0 24 19" width="24" xmlns="http://www.w3.org/2000/svg"><path d="m21.8906 0h-19.78122c-1.161661 0-2.10938.946687-2.10938 2.10938v14.06252c0 1.1587.9435 2.1093 2.10938 2.1093h19.78122c1.1588 0 2.1094-.9435 2.1094-2.1093v-14.06252c0-1.158755-.9435-2.10938-2.1094-2.10938zm-.2913 1.40625-9.5546 9.55465-9.63725-9.55465zm-20.19305 14.47445v-13.48684l6.77245 6.71437zm.99436.9943 6.77672-6.7767 2.37457 2.3541c.2748.2726.7184.2717.9922-.0021l2.3153-2.3153 6.74 6.74zm20.19319-.9944-6.7401-6.73998 6.7401-6.74006z" fill="#ffc634"/></svg>