<svg width="94" height="94" viewBox="0 0 94 94" fill="none" xmlns="http://www.w3.org/2000/svg">
<g filter="url(#filter0_d)">
<rect x="30" y="21" width="33.9998" height="34" rx="16.9999" fill="url(#paint0_linear)"/>
</g>
<path d="M46.76 30C43.5839 30 41 32.5994 41 35.7946C41 39.7598 46.1546 45.581 46.3741 45.8269C46.5802 46.0579 46.9401 46.0575 47.1459 45.8269C47.3654 45.581 52.52 39.7598 52.52 35.7946C52.5199 32.5994 49.9361 30 46.76 30ZM46.76 38.71C45.162 38.71 43.862 37.4021 43.862 35.7946C43.862 34.187 45.1621 32.8792 46.76 32.8792C48.3579 32.8792 49.6579 34.187 49.6579 35.7946C49.6579 37.4022 48.3579 38.71 46.76 38.71Z" fill="white"/>
<defs>
<filter id="filter0_d" x="0" y="0" width="93.9998" height="94" filterUnits="userSpaceOnUse" color-interpolation-filters="sRGB">
<feFlood flood-opacity="0" result="BackgroundImageFix"/>
<feColorMatrix in="SourceAlpha" type="matrix" values="0 0 0 0 0 0 0 0 0 0 0 0 0 0 0 0 0 0 127 0" result="hardAlpha"/>
<feOffset dy="9"/>
<feGaussianBlur stdDeviation="15"/>
<feColorMatrix type="matrix" values="0 0 0 0 0.593438 0 0 0 0 0.707729 0 0 0 0 0.879167 0 0 0 0.25 0"/>
<feBlend mode="normal" in2="BackgroundImageFix" result="effect1_dropShadow"/>
<feBlend mode="normal" in="SourceGraphic" in2="effect1_dropShadow" result="shape"/>
</filter>
<linearGradient id="paint0_linear" x1="46.9999" y1="21" x2="46.9999" y2="55" gradientUnits="userSpaceOnUse">
<stop stop-color="#B0E7C6"/>
<stop offset="1" stop-color="#5DD1B3"/>
</linearGradient>
</defs>
</svg>
