<svg fill="none" height="212" viewBox="0 0 212 212" width="212" xmlns="http://www.w3.org/2000/svg" xmlns:xlink="http://www.w3.org/1999/xlink"><filter id="a" color-interpolation-filters="sRGB" filterUnits="userSpaceOnUse" height="165" width="165" x="47" y="47"><feFlood flood-opacity="0" result="BackgroundImageFix"/><feColorMatrix in="SourceAlpha" result="hardAlpha" type="matrix" values="0 0 0 0 0 0 0 0 0 0 0 0 0 0 0 0 0 0 127 0"/><feOffset dx="2" dy="8"/><feGaussianBlur stdDeviation="17.5"/><feColorMatrix type="matrix" values="0 0 0 0 0 0 0 0 0 0.351917 0 0 0 0 0.429167 0 0 0 0.15 0"/><feBlend in2="BackgroundImageFix" mode="normal" result="effect1_dropShadow"/><feBlend in="SourceGraphic" in2="effect1_dropShadow" mode="normal" result="shape"/></filter><filter id="b" color-interpolation-filters="sRGB" filterUnits="userSpaceOnUse" height="105" width="105" x="0" y="107"><feFlood flood-opacity="0" result="BackgroundImageFix"/><feColorMatrix in="SourceAlpha" result="hardAlpha" type="matrix" values="0 0 0 0 0 0 0 0 0 0 0 0 0 0 0 0 0 0 127 0"/><feOffset dx="2" dy="8"/><feGaussianBlur stdDeviation="17.5"/><feColorMatrix type="matrix" values="0 0 0 0 0 0 0 0 0 0.351917 0 0 0 0 0.429167 0 0 0 0.15 0"/><feBlend in2="BackgroundImageFix" mode="normal" result="effect1_dropShadow"/><feBlend in="SourceGraphic" in2="effect1_dropShadow" mode="normal" result="shape"/></filter><filter id="c" color-interpolation-filters="sRGB" filterUnits="userSpaceOnUse" height="105" width="105" x="81" y="0"><feFlood flood-opacity="0" result="BackgroundImageFix"/><feColorMatrix in="SourceAlpha" result="hardAlpha" type="matrix" values="0 0 0 0 0 0 0 0 0 0 0 0 0 0 0 0 0 0 127 0"/><feOffset dx="2" dy="8"/><feGaussianBlur stdDeviation="17.5"/><feColorMatrix type="matrix" values="0 0 0 0 0 0 0 0 0 0.351917 0 0 0 0 0.429167 0 0 0 0.15 0"/><feBlend in2="BackgroundImageFix" mode="normal" result="effect1_dropShadow"/><feBlend in="SourceGraphic" in2="effect1_dropShadow" mode="normal" result="shape"/></filter><linearGradient id="d" gradientUnits="userSpaceOnUse" x1="47.5" x2="47.5" y1="0" y2="95"><stop offset="0" stop-color="#b0e7c6"/><stop offset="1" stop-color="#5dd1b3"/></linearGradient><linearGradient id="e" gradientUnits="userSpaceOnUse" x1="17.5" x2="17.5" y1="8.55172" y2="35"><stop offset="0" stop-color="#ffed49"/><stop offset="1" stop-color="#ffc369"/></linearGradient><linearGradient id="f" gradientUnits="userSpaceOnUse" x1="17.5" x2="17.5" y1="0" y2="35"><stop offset="0" stop-color="#85beff"/><stop offset="1" stop-color="#5183bb"/></linearGradient><g filter="url(#a)"><rect fill="url(#d)" height="95" rx="25" transform="matrix(-1 0 0 1 175 74)" width="95"/></g><g filter="url(#b)"><rect fill="url(#e)" height="35" rx="9" transform="matrix(-1 0 0 1 68 134)" width="35"/></g><g filter="url(#c)"><rect fill="url(#f)" height="35" rx="9" transform="matrix(-1 0 0 1 149 27)" width="35"/></g><g fill="#fff"><path d="m125.445 119.549c-3.172 3.172-8.333 3.172-11.504 0-1.68-1.679-1.68-4.411 0-6.09l8.395-8.395c.221-.221.449-.432.683-.633h-18.583c-.793 0-1.436.643-1.436 1.436v17.459c0 .792.643 1.435 1.436 1.435h7.322l11.343 11.343c1.826 1.826 4.514 2.277 6.766 1.353l-5.413-5.413c-.561-.561-.561-1.469 0-2.03s1.47-.561 2.03 0l5.752 5.752 2.707-2.707-5.752-5.752c-.561-.56-.561-1.469 0-2.03s1.469-.561 2.03 0l5.752 5.752 2.707-2.707-11.504-11.504z"/><path d="m150.564 104.431h-19.769c-2.428 0-4.711.946-6.428 2.663l-8.396 8.395c-.56.561-.56 1.47 0 2.03 2.056 2.056 5.388 2.056 7.444 0l3.871-3.87c.464-.464 1.188-.562 1.748-.218 1.728 1.06 4.149 1.087 5.571-.335.56-.56 1.469-.56 2.03 0 .561.561.561 1.47 0 2.03-1.114 1.115-2.601 1.758-4.181 1.909l9.257 9.257 1.531-1.531h7.322c.792 0 1.435-.642 1.435-1.435v-17.459c0-.793-.643-1.436-1.435-1.436z"/><path clip-rule="evenodd" d="m128.337 44.8294c0-.8261.288-1.5855.77-2.1842-.702 0-1.354-.2197-1.891-.5928-.536.3733-1.188.5928-1.89.5928-.191 0-.347-.1554-.347-.3471 0-.1916.156-.3468.347-.3468.492 0 .952-.1362 1.346-.3721-.475-.5128-.791-1.175-.868-1.9078h-.478c-.191 0-.347-.1553-.347-.3469s.156-.347.347-.347h1.544v-.8425c0-.1917.155-.347.347-.347.191 0 .346.1553.346.347v.8425h1.544c.191 0 .347.1554.347.347s-.156.3469-.347.3469h-.478c-.077.7328-.393 1.395-.868 1.9078.394.2362.854.3721 1.346.3721.183 0 .333.1419.346.3218.624-.5806 1.459-.9368 2.377-.9368h1.603v-1.4621l2.049-1.4634c.162-.1154.258-.3019.258-.5005 0-.1989-.096-.3854-.258-.5007l-2.073-1.4811c-.163-1.0898-1.105-1.9285-2.239-1.9285h-7.907c-1.248 0-2.263 1.015-2.263 2.2626v7.908c0 1.2476 1.015 2.2626 2.263 2.2626h5.074zm3.492-2.2627h7.908c1.248 0 2.263 1.015 2.263 2.2626v7.9078c0 1.2478-1.015 2.2628-2.263 2.2628h-7.908c-1.134 0-2.076-.8388-2.238-1.9286l-2.073-1.481c-.162-.1154-.258-.3019-.258-.5007 0-.1987.096-.3852.258-.5005l2.049-1.4634v-4.2964c0-1.2476 1.015-2.2626 2.262-2.2626zm4.959 8.4737c.033.1253.145.1713.29.1713.231 0 .541-.1516.541-.3557 0-.0157-.004-.0312-.009-.0501l-.005-.0159-1.272-4.1451c-.059-.1977-.303-.2902-.553-.2902-.244 0-.488.0925-.547.2902l-1.272 4.1451v.0009c-.007.0262-.013.052-.013.0651 0 .2109.31.3557.54.3557.145 0 .257-.046.29-.1713l.251-.8765h1.509zm-.435-1.5486h-1.146l.573-2.0231zm-8.424-9.8203c-.075.5686-.333 1.0802-.713 1.4742-.379-.394-.637-.9056-.713-1.4742z" fill-rule="evenodd"/><path d="m57.1094 143h-12.9537c-.2164 0-.392.176-.392.392v17.216c0 .216.1756.392.392.392h3.7979c.2164 0 .392-.176.392-.392v-3.119h4.5737v3.119c0 .216.1756.392.392.392h3.7979c.2164 0 .392-.176.392-.392v-17.216c.0002-.217-.1756-.392-.3918-.392zm-9.0088 11.565c0 .162-.1315.294-.294.294h-1.7479c-.1625 0-.2941-.132-.2941-.294v-1.748c0-.163.1316-.294.2941-.294h1.7479c.1625 0 .294.131.294.294zm0-3.7c0 .162-.1315.294-.294.294h-1.7479c-.1625 0-.2941-.132-.2941-.294v-1.748c0-.163.1316-.294.2941-.294h1.7479c.1625 0 .294.131.294.294zm0-3.7c0 .162-.1315.294-.294.294h-1.7479c-.1625 0-.2941-.132-.2941-.294v-1.748c0-.163.1316-.294.2941-.294h1.7479c.1625 0 .294.131.294.294zm3.6998 7.4c0 .162-.1315.294-.294.294h-1.7479c-.1625 0-.294-.132-.294-.294v-1.748c0-.163.1315-.294.294-.294h1.7479c.1625 0 .294.131.294.294zm0-3.7c0 .162-.1315.294-.294.294h-1.7479c-.1625 0-.294-.132-.294-.294v-1.748c0-.163.1315-.294.294-.294h1.7479c.1625 0 .294.131.294.294zm0-3.7c0 .162-.1315.294-.294.294h-1.7479c-.1625 0-.294-.132-.294-.294v-1.748c0-.163.1315-.294.294-.294h1.7479c.1625 0 .294.131.294.294zm3.6999 7.4c0 .162-.1315.294-.294.294h-1.7479c-.1625 0-.2941-.132-.2941-.294v-1.748c0-.163.1316-.294.2941-.294h1.7479c.1625 0 .294.131.294.294zm0-3.7c0 .162-.1315.294-.294.294h-1.7479c-.1625 0-.2941-.132-.2941-.294v-1.748c0-.163.1316-.294.2941-.294h1.7479c.1625 0 .294.131.294.294zm0-3.7c0 .162-.1315.294-.294.294h-1.7479c-.1625 0-.2941-.132-.2941-.294v-1.748c0-.163.1316-.294.2941-.294h1.7479c.1625 0 .294.131.294.294z"/></g></svg>