<svg width="212" height="212" viewBox="0 0 212 212" fill="none" xmlns="http://www.w3.org/2000/svg">
<g filter="url(#filter0_d)">
<rect width="95" height="95" rx="25" transform="matrix(-1 0 0 1 175 74)" fill="url(#paint0_linear)"/>
</g>
<path d="M144.223 96.3489H123.555V110.371C123.555 111.299 122.803 112.052 121.875 112.052H107.853V143.76C107.853 145.085 108.927 146.16 110.253 146.16H144.223C145.549 146.16 146.624 145.085 146.624 143.76V98.7497C146.624 97.4238 145.549 96.3489 144.223 96.3489ZM134.76 136.214H121.077C120.149 136.214 119.397 135.461 119.397 134.533C119.397 133.605 120.149 132.853 121.077 132.853H134.76C135.689 132.853 136.441 133.605 136.441 134.533C136.441 135.461 135.689 136.214 134.76 136.214ZM134.76 128.308H121.077C120.149 128.308 119.397 127.556 119.397 126.628C119.397 125.699 120.149 124.947 121.077 124.947H134.76C135.689 124.947 136.441 125.699 136.441 126.628C136.441 127.556 135.689 128.308 134.76 128.308ZM134.76 120.403H121.077C120.149 120.403 119.397 119.65 119.397 118.722C119.397 117.794 120.149 117.042 121.077 117.042H134.76C135.689 117.042 136.441 117.794 136.441 118.722C136.441 119.65 135.689 120.403 134.76 120.403Z" fill="white"/>
<path d="M120.174 96.3489C119.537 96.3489 118.927 96.6017 118.477 97.0522L108.556 106.973C108.106 107.423 107.853 108.033 107.853 108.67V108.691H120.194V96.3489H120.174Z" fill="white"/>
<g filter="url(#filter1_d)">
<rect width="35" height="35" rx="9" transform="matrix(-1 0 0 1 68 115)" fill="url(#paint1_linear)"/>
</g>
<g filter="url(#filter2_d)">
<rect width="35" height="35" rx="9" transform="matrix(-1 0 0 1 175 27)" fill="url(#paint2_linear)"/>
</g>
<path d="M162.634 35H152.366C150.507 35 149 36.5373 149 38.4401V54.1822C149 54.85 149.749 55.2406 150.278 54.8354L153.488 52.375H162.634C164.493 52.375 166 50.8377 166 48.9349V38.4401C166 36.5401 164.496 35 162.634 35ZM157.5 48.4395C157.059 48.4395 156.701 48.0738 156.701 47.623C156.701 47.1724 157.059 46.8065 157.5 46.8065C157.941 46.8065 158.299 47.1724 158.299 47.623C158.299 48.0738 157.941 48.4395 157.5 48.4395ZM158.299 44.8286V44.9993C158.299 45.4503 157.941 45.8158 157.5 45.8158C157.059 45.8158 156.701 45.4503 156.701 44.9993V44.1248C156.701 43.6738 157.059 43.3083 157.5 43.3083C158.239 43.3083 158.84 42.6938 158.84 41.9383C158.84 41.1831 158.239 40.5686 157.5 40.5686C156.757 40.5686 156.16 41.1826 156.16 41.9375C156.16 42.3885 155.802 42.7546 155.361 42.7546C154.92 42.7546 154.562 42.3893 154.562 41.9385V41.9375C154.562 40.2768 155.877 38.9356 157.499 38.9356C159.12 38.9356 160.438 40.2826 160.438 41.9385C160.438 43.3113 159.532 44.472 158.299 44.8286Z" fill="white"/>
<path d="M49.6193 133.479C48.26 134.839 46.0483 134.839 44.689 133.479C43.9693 132.76 43.9693 131.589 44.689 130.869L48.2872 127.271C48.3817 127.176 48.4795 127.086 48.5799 127H40.6152C40.2755 127 40 127.275 40 127.615V135.098C40 135.438 40.2755 135.713 40.6152 135.713H43.7533L48.6148 140.575C49.3975 141.357 50.5495 141.55 51.5148 141.154L49.1948 138.834C48.9546 138.594 48.9546 138.205 49.1948 137.964C49.4351 137.724 49.8246 137.724 50.0649 137.964L52.5301 140.43L53.6902 139.269L51.225 136.804C50.9847 136.564 50.9847 136.174 51.225 135.934C51.4652 135.694 51.8548 135.694 52.095 135.934L54.5602 138.399L55.7203 137.239L50.7898 132.309L49.6193 133.479Z" fill="white"/>
<path d="M60.3848 127L51.9125 127C50.8718 127 49.8934 127.405 49.1573 128.141L45.5591 131.739C45.3188 131.979 45.3188 132.369 45.5591 132.609C46.4401 133.49 47.8684 133.49 48.7494 132.609L50.4082 130.951C50.6072 130.752 50.9177 130.71 51.1575 130.857C51.8982 131.311 52.936 131.323 53.5452 130.714C53.7854 130.474 54.175 130.474 54.4152 130.714C54.6555 130.954 54.6555 131.344 54.4152 131.584C53.9376 132.061 53.3003 132.337 52.6233 132.402L56.5905 136.369L57.2467 135.713H60.3848C60.7246 135.713 61 135.438 61 135.098V127.615C61 127.275 60.7246 127 60.3848 127Z" fill="white"/>
<defs>
<filter id="filter0_d" x="47" y="47" width="165" height="165" filterUnits="userSpaceOnUse" color-interpolation-filters="sRGB">
<feFlood flood-opacity="0" result="BackgroundImageFix"/>
<feColorMatrix in="SourceAlpha" type="matrix" values="0 0 0 0 0 0 0 0 0 0 0 0 0 0 0 0 0 0 127 0" result="hardAlpha"/>
<feOffset dx="2" dy="8"/>
<feGaussianBlur stdDeviation="17.5"/>
<feColorMatrix type="matrix" values="0 0 0 0 0 0 0 0 0 0.351917 0 0 0 0 0.429167 0 0 0 0.15 0"/>
<feBlend mode="normal" in2="BackgroundImageFix" result="effect1_dropShadow"/>
<feBlend mode="normal" in="SourceGraphic" in2="effect1_dropShadow" result="shape"/>
</filter>
<filter id="filter1_d" x="0" y="88" width="105" height="105" filterUnits="userSpaceOnUse" color-interpolation-filters="sRGB">
<feFlood flood-opacity="0" result="BackgroundImageFix"/>
<feColorMatrix in="SourceAlpha" type="matrix" values="0 0 0 0 0 0 0 0 0 0 0 0 0 0 0 0 0 0 127 0" result="hardAlpha"/>
<feOffset dx="2" dy="8"/>
<feGaussianBlur stdDeviation="17.5"/>
<feColorMatrix type="matrix" values="0 0 0 0 0 0 0 0 0 0.351917 0 0 0 0 0.429167 0 0 0 0.15 0"/>
<feBlend mode="normal" in2="BackgroundImageFix" result="effect1_dropShadow"/>
<feBlend mode="normal" in="SourceGraphic" in2="effect1_dropShadow" result="shape"/>
</filter>
<filter id="filter2_d" x="107" y="0" width="105" height="105" filterUnits="userSpaceOnUse" color-interpolation-filters="sRGB">
<feFlood flood-opacity="0" result="BackgroundImageFix"/>
<feColorMatrix in="SourceAlpha" type="matrix" values="0 0 0 0 0 0 0 0 0 0 0 0 0 0 0 0 0 0 127 0" result="hardAlpha"/>
<feOffset dx="2" dy="8"/>
<feGaussianBlur stdDeviation="17.5"/>
<feColorMatrix type="matrix" values="0 0 0 0 0 0 0 0 0 0.351917 0 0 0 0 0.429167 0 0 0 0.15 0"/>
<feBlend mode="normal" in2="BackgroundImageFix" result="effect1_dropShadow"/>
<feBlend mode="normal" in="SourceGraphic" in2="effect1_dropShadow" result="shape"/>
</filter>
<linearGradient id="paint0_linear" x1="47.5" y1="0" x2="47.5" y2="95" gradientUnits="userSpaceOnUse">
<stop stop-color="#85BEFF"/>
<stop offset="1" stop-color="#5183BB"/>
</linearGradient>
<linearGradient id="paint1_linear" x1="17.5" y1="8.55172" x2="17.5" y2="35" gradientUnits="userSpaceOnUse">
<stop stop-color="#FFED49"/>
<stop offset="1" stop-color="#FFC369"/>
</linearGradient>
<linearGradient id="paint2_linear" x1="17.5" y1="0" x2="17.5" y2="35" gradientUnits="userSpaceOnUse">
<stop stop-color="#B0E7C6"/>
<stop offset="1" stop-color="#5DD1B3"/>
</linearGradient>
</defs>
</svg>
