<svg fill="none" height="212" viewBox="0 0 212 212" width="212" xmlns="http://www.w3.org/2000/svg" xmlns:xlink="http://www.w3.org/1999/xlink"><filter id="a" color-interpolation-filters="sRGB" filterUnits="userSpaceOnUse" height="165" width="165" x="47" y="47"><feFlood flood-opacity="0" result="BackgroundImageFix"/><feColorMatrix in="SourceAlpha" result="hardAlpha" type="matrix" values="0 0 0 0 0 0 0 0 0 0 0 0 0 0 0 0 0 0 127 0"/><feOffset dx="2" dy="8"/><feGaussianBlur stdDeviation="17.5"/><feColorMatrix type="matrix" values="0 0 0 0 0 0 0 0 0 0.351917 0 0 0 0 0.429167 0 0 0 0.15 0"/><feBlend in2="BackgroundImageFix" mode="normal" result="effect1_dropShadow"/><feBlend in="SourceGraphic" in2="effect1_dropShadow" mode="normal" result="shape"/></filter><filter id="b" color-interpolation-filters="sRGB" filterUnits="userSpaceOnUse" height="105" width="105" x="0" y="88"><feFlood flood-opacity="0" result="BackgroundImageFix"/><feColorMatrix in="SourceAlpha" result="hardAlpha" type="matrix" values="0 0 0 0 0 0 0 0 0 0 0 0 0 0 0 0 0 0 127 0"/><feOffset dx="2" dy="8"/><feGaussianBlur stdDeviation="17.5"/><feColorMatrix type="matrix" values="0 0 0 0 0 0 0 0 0 0.351917 0 0 0 0 0.429167 0 0 0 0.15 0"/><feBlend in2="BackgroundImageFix" mode="normal" result="effect1_dropShadow"/><feBlend in="SourceGraphic" in2="effect1_dropShadow" mode="normal" result="shape"/></filter><filter id="c" color-interpolation-filters="sRGB" filterUnits="userSpaceOnUse" height="105" width="105" x="107" y="0"><feFlood flood-opacity="0" result="BackgroundImageFix"/><feColorMatrix in="SourceAlpha" result="hardAlpha" type="matrix" values="0 0 0 0 0 0 0 0 0 0 0 0 0 0 0 0 0 0 127 0"/><feOffset dx="2" dy="8"/><feGaussianBlur stdDeviation="17.5"/><feColorMatrix type="matrix" values="0 0 0 0 0 0 0 0 0 0.351917 0 0 0 0 0.429167 0 0 0 0.15 0"/><feBlend in2="BackgroundImageFix" mode="normal" result="effect1_dropShadow"/><feBlend in="SourceGraphic" in2="effect1_dropShadow" mode="normal" result="shape"/></filter><linearGradient id="d" gradientUnits="userSpaceOnUse" x1="47.5" x2="47.5" y1="0" y2="95"><stop offset="0" stop-color="#85beff"/><stop offset="1" stop-color="#5183bb"/></linearGradient><linearGradient id="e" gradientUnits="userSpaceOnUse" x1="17.5" x2="17.5" y1="8.55172" y2="35"><stop offset="0" stop-color="#ffed49"/><stop offset="1" stop-color="#ffc369"/></linearGradient><linearGradient id="f" gradientUnits="userSpaceOnUse" x1="17.5" x2="17.5" y1="0" y2="35"><stop offset="0" stop-color="#b0e7c6"/><stop offset="1" stop-color="#5dd1b3"/></linearGradient><g filter="url(#a)"><rect fill="url(#d)" height="95" rx="25" transform="matrix(-1 0 0 1 175 74)" width="95"/></g><path d="m144.223 96.3489h-20.668v14.0221c0 .928-.752 1.681-1.68 1.681h-14.022v31.708c0 1.325 1.074 2.4 2.4 2.4h33.97c1.326 0 2.401-1.075 2.401-2.4v-45.0103c0-1.3259-1.075-2.4008-2.401-2.4008zm-9.463 39.8651h-13.683c-.928 0-1.68-.753-1.68-1.681s.752-1.68 1.68-1.68h13.683c.929 0 1.681.752 1.681 1.68s-.752 1.681-1.681 1.681zm0-7.906h-13.683c-.928 0-1.68-.752-1.68-1.68 0-.929.752-1.681 1.68-1.681h13.683c.929 0 1.681.752 1.681 1.681 0 .928-.752 1.68-1.681 1.68zm0-7.905h-13.683c-.928 0-1.68-.753-1.68-1.681s.752-1.68 1.68-1.68h13.683c.929 0 1.681.752 1.681 1.68s-.752 1.681-1.681 1.681z" fill="#fff"/><path d="m120.174 96.3489c-.637 0-1.247.2528-1.697.7033l-9.921 9.9208c-.45.45-.703 1.06-.703 1.697v.021h12.341v-12.3421z" fill="#fff"/><g filter="url(#b)"><rect fill="url(#e)" height="35" rx="9" transform="matrix(-1 0 0 1 68 115)" width="35"/></g><g filter="url(#c)"><rect fill="url(#f)" height="35" rx="9" transform="matrix(-1 0 0 1 175 27)" width="35"/></g><g fill="#fff"><path d="m162.634 35h-10.268c-1.859 0-3.366 1.5373-3.366 3.4401v15.7421c0 .6678.749 1.0584 1.278.6532l3.21-2.4604h9.146c1.859 0 3.366-1.5373 3.366-3.4401v-10.4948c0-1.9-1.504-3.4401-3.366-3.4401zm-5.134 13.4395c-.441 0-.799-.3657-.799-.8165 0-.4506.358-.8165.799-.8165s.799.3659.799.8165c0 .4508-.358.8165-.799.8165zm.799-3.6109v.1707c0 .451-.358.8165-.799.8165s-.799-.3655-.799-.8165v-.8745c0-.451.358-.8165.799-.8165.739 0 1.34-.6145 1.34-1.37 0-.7552-.601-1.3697-1.34-1.3697-.743 0-1.34.614-1.34 1.3689 0 .451-.358.8171-.799.8171s-.799-.3653-.799-.8161v-.001c0-1.6607 1.315-3.0019 2.937-3.0019 1.621 0 2.939 1.347 2.939 3.0029 0 1.3728-.906 2.5335-2.139 2.8901z"/><path d="m49.6193 133.479c-1.3593 1.36-3.571 1.36-4.9303 0-.7197-.719-.7197-1.89 0-2.61l3.5982-3.598c.0945-.095.1923-.185.2927-.271h-7.9647c-.3397 0-.6152.275-.6152.615v7.483c0 .34.2755.615.6152.615h3.1381l4.8615 4.862c.7827.782 1.9347.975 2.9.579l-2.32-2.32c-.2402-.24-.2402-.629 0-.87.2403-.24.6298-.24.8701 0l2.4652 2.466 1.1601-1.161-2.4652-2.465c-.2403-.24-.2403-.63 0-.87.2402-.24.6298-.24.87 0l2.4652 2.465 1.1601-1.16-4.9305-4.93z"/><path d="m60.3848 127h-8.4723c-1.0407 0-2.0191.405-2.7552 1.141l-3.5982 3.598c-.2403.24-.2403.63 0 .87.881.881 2.3093.881 3.1903 0l1.6588-1.658c.199-.199.5095-.241.7493-.094.7407.454 1.7785.466 2.3877-.143.2402-.24.6298-.24.87 0 .2403.24.2403.63 0 .87-.4776.477-1.1149.753-1.7919.818l3.9672 3.967.6562-.656h3.1381c.3398 0 .6152-.275.6152-.615v-7.483c0-.34-.2754-.615-.6152-.615z"/></g></svg>