<?xml version="1.0" encoding="UTF-8"?>
<svg width="24px" height="24px" viewBox="0 0 24 24" version="1.1" xmlns="http://www.w3.org/2000/svg" xmlns:xlink="http://www.w3.org/1999/xlink">
    <!-- Generator: Sketch 52.6 (67491) - http://www.bohemiancoding.com/sketch -->
    <title>Avatar</title>
    <desc>Created with Sketch.</desc>
    <defs>
        <circle id="path-1" cx="12" cy="12" r="12"></circle>
        <circle id="path-3" cx="12" cy="12" r="12"></circle>
    </defs>
    <g id="15--Landing-page" stroke="none" stroke-width="1" fill="none" fill-rule="evenodd">
        <g id="19--Pricing-with-features" transform="translate(-490.000000, -554.000000)">
            <g id="Group-27" transform="translate(158.000000, 418.000000)">
                <g id="Group-24">
                    <g id="Group-18" transform="translate(332.000000, 131.000000)">
                        <g id="Group-16">
                            <g id="Avatar" transform="translate(0.000000, 5.000000)">
                                <mask id="mask-2" fill="white">
                                    <use xlink:href="#path-1"></use>
                                </mask>
                                <use id="Photo" fill="#FFFFFF" xlink:href="#path-1"></use>
                                <mask id="mask-4" fill="white">
                                    <use xlink:href="#path-3"></use>
                                </mask>
                                <use id="Photo" fill="#BDA8EE" xlink:href="#path-3"></use>
                                <g id="check-circle" mask="url(#mask-4)" fill="#7450C8" fill-rule="nonzero">
                                    <g transform="translate(7.200000, 8.400000)" id="Path">
                                        <path d="M3.91514631,5.50831429 L2.02048476,3.52854322 C1.73985681,3.18613142 1.29922913,3.03698173 0.879761885,3.14241571 C0.460294636,3.24784969 0.132783697,3.59007264 0.0318822793,4.02838265 C-0.0690191383,4.46669266 0.0737186746,4.92711364 0.401410335,5.22034759 L3.0998677,8.05202015 C3.31656971,8.276618 3.60993013,8.40182382 3.91514631,8.39997992 C4.21638588,8.39865453 4.50506281,8.27368752 4.71894212,8.05202015 L10.4603408,2.05271387 C10.6777247,1.82742 10.8,1.52074043 10.8,1.20081238 C10.8,0.880884332 10.6777247,0.574204758 10.4603408,0.34891089 C10.0124687,-0.11630363 9.28913846,-0.11630363 8.84126636,0.34891089 L3.91514631,5.50831429 Z"></path>
                                    </g>
                                </g>
                            </g>
                        </g>
                    </g>
                </g>
            </g>
        </g>
    </g>
</svg>