<svg width="491" height="338" viewBox="0 0 491 338" fill="none" xmlns="http://www.w3.org/2000/svg">
<g filter="url(#filter0_d)">
<rect x="20" y="16" width="451" height="298" rx="5" fill="white"/>
<rect x="20.5" y="16.5" width="450" height="297" rx="4.5" stroke="#EEEDED"/>
</g>
<path d="M79.1562 77V65.625H82.5156C83.5208 65.625 84.4115 65.849 85.1875 66.2969C85.9688 66.7448 86.5729 67.3802 87 68.2031C87.4271 69.026 87.6406 69.9688 87.6406 71.0312V71.6016C87.6406 72.6797 87.4245 73.6276 86.9922 74.4453C86.5651 75.263 85.9531 75.8932 85.1562 76.3359C84.3646 76.7786 83.4557 77 82.4297 77H79.1562ZM81.1328 67.2188V75.4219H82.4219C83.4583 75.4219 84.2526 75.099 84.8047 74.4531C85.362 73.8021 85.6458 72.8698 85.6562 71.6562V71.0234C85.6562 69.7891 85.388 68.8464 84.8516 68.1953C84.3151 67.5443 83.5365 67.2188 82.5156 67.2188H81.1328ZM94.4766 77C94.3932 76.8385 94.3203 76.5755 94.2578 76.2109C93.6536 76.8411 92.9141 77.1562 92.0391 77.1562C91.1901 77.1562 90.4974 76.9141 89.9609 76.4297C89.4245 75.9453 89.1562 75.3464 89.1562 74.6328C89.1562 73.7318 89.4896 73.0417 90.1562 72.5625C90.8281 72.0781 91.7865 71.8359 93.0312 71.8359H94.1953V71.2812C94.1953 70.8438 94.0729 70.4948 93.8281 70.2344C93.5833 69.9688 93.2109 69.8359 92.7109 69.8359C92.2786 69.8359 91.9245 69.9453 91.6484 70.1641C91.3724 70.3776 91.2344 70.651 91.2344 70.9844H89.3359C89.3359 70.5208 89.4896 70.0885 89.7969 69.6875C90.1042 69.2812 90.5208 68.9635 91.0469 68.7344C91.5781 68.5052 92.1693 68.3906 92.8203 68.3906C93.8099 68.3906 94.599 68.6406 95.1875 69.1406C95.776 69.6354 96.0781 70.3333 96.0938 71.2344V75.0469C96.0938 75.8073 96.2005 76.4141 96.4141 76.8672V77H94.4766ZM92.3906 75.6328C92.7656 75.6328 93.1172 75.5417 93.4453 75.3594C93.7786 75.1771 94.0286 74.9323 94.1953 74.625V73.0312H93.1719C92.4688 73.0312 91.9401 73.1536 91.5859 73.3984C91.2318 73.6432 91.0547 73.9896 91.0547 74.4375C91.0547 74.8021 91.1745 75.0938 91.4141 75.3125C91.6589 75.526 91.9844 75.6328 92.3906 75.6328ZM100.461 66.4922V68.5469H101.953V69.9531H100.461V74.6719C100.461 74.9948 100.523 75.2292 100.648 75.375C100.779 75.5156 101.008 75.5859 101.336 75.5859C101.555 75.5859 101.776 75.5599 102 75.5078V76.9766C101.568 77.0964 101.151 77.1562 100.75 77.1562C99.2917 77.1562 98.5625 76.3516 98.5625 74.7422V69.9531H97.1719V68.5469H98.5625V66.4922H100.461ZM108.461 77C108.378 76.8385 108.305 76.5755 108.242 76.2109C107.638 76.8411 106.898 77.1562 106.023 77.1562C105.174 77.1562 104.482 76.9141 103.945 76.4297C103.409 75.9453 103.141 75.3464 103.141 74.6328C103.141 73.7318 103.474 73.0417 104.141 72.5625C104.812 72.0781 105.771 71.8359 107.016 71.8359H108.18V71.2812C108.18 70.8438 108.057 70.4948 107.812 70.2344C107.568 69.9688 107.195 69.8359 106.695 69.8359C106.263 69.8359 105.909 69.9453 105.633 70.1641C105.357 70.3776 105.219 70.651 105.219 70.9844H103.32C103.32 70.5208 103.474 70.0885 103.781 69.6875C104.089 69.2812 104.505 68.9635 105.031 68.7344C105.562 68.5052 106.154 68.3906 106.805 68.3906C107.794 68.3906 108.583 68.6406 109.172 69.1406C109.76 69.6354 110.062 70.3333 110.078 71.2344V75.0469C110.078 75.8073 110.185 76.4141 110.398 76.8672V77H108.461ZM106.375 75.6328C106.75 75.6328 107.102 75.5417 107.43 75.3594C107.763 75.1771 108.013 74.9323 108.18 74.625V73.0312H107.156C106.453 73.0312 105.924 73.1536 105.57 73.3984C105.216 73.6432 105.039 73.9896 105.039 74.4375C105.039 74.8021 105.159 75.0938 105.398 75.3125C105.643 75.526 105.969 75.6328 106.375 75.6328ZM122.18 74.0703C122.18 73.5703 122.003 73.1849 121.648 72.9141C121.299 72.6432 120.667 72.3698 119.75 72.0938C118.833 71.8177 118.104 71.5104 117.562 71.1719C116.526 70.5208 116.008 69.6719 116.008 68.625C116.008 67.7083 116.38 66.9531 117.125 66.3594C117.875 65.7656 118.846 65.4688 120.039 65.4688C120.831 65.4688 121.536 65.6146 122.156 65.9062C122.776 66.1979 123.263 66.6146 123.617 67.1562C123.971 67.6927 124.148 68.2891 124.148 68.9453H122.18C122.18 68.3516 121.992 67.888 121.617 67.5547C121.247 67.2161 120.716 67.0469 120.023 67.0469C119.378 67.0469 118.875 67.1849 118.516 67.4609C118.161 67.737 117.984 68.1224 117.984 68.6172C117.984 69.0339 118.177 69.3828 118.562 69.6641C118.948 69.9401 119.583 70.2109 120.469 70.4766C121.354 70.737 122.065 71.0365 122.602 71.375C123.138 71.7083 123.531 72.0938 123.781 72.5312C124.031 72.9635 124.156 73.4714 124.156 74.0547C124.156 75.0026 123.792 75.7578 123.062 76.3203C122.339 76.8776 121.354 77.1562 120.109 77.1562C119.286 77.1562 118.529 77.0052 117.836 76.7031C117.148 76.3958 116.612 75.974 116.227 75.4375C115.846 74.901 115.656 74.276 115.656 73.5625H117.633C117.633 74.2083 117.846 74.7083 118.273 75.0625C118.701 75.4167 119.312 75.5938 120.109 75.5938C120.797 75.5938 121.312 75.4557 121.656 75.1797C122.005 74.8984 122.18 74.5286 122.18 74.0703ZM130.828 76.1719C130.271 76.8281 129.479 77.1562 128.453 77.1562C127.536 77.1562 126.841 76.888 126.367 76.3516C125.898 75.8151 125.664 75.0391 125.664 74.0234V68.5469H127.562V74C127.562 75.0729 128.008 75.6094 128.898 75.6094C129.82 75.6094 130.443 75.2786 130.766 74.6172V68.5469H132.664V77H130.875L130.828 76.1719ZM142.016 72.8594C142.016 74.1719 141.721 75.2161 141.133 75.9922C140.549 76.7682 139.745 77.1562 138.719 77.1562C137.729 77.1562 136.958 76.7995 136.406 76.0859L136.312 77H134.594V65H136.492V69.3594C137.039 68.7135 137.776 68.3906 138.703 68.3906C139.734 68.3906 140.544 68.7734 141.133 69.5391C141.721 70.3047 142.016 71.375 142.016 72.75V72.8594ZM140.117 72.6953C140.117 71.7786 139.956 71.0911 139.633 70.6328C139.31 70.1745 138.841 69.9453 138.227 69.9453C137.404 69.9453 136.826 70.3047 136.492 71.0234V74.5078C136.831 75.2422 137.414 75.6094 138.242 75.6094C138.836 75.6094 139.294 75.388 139.617 74.9453C139.94 74.5026 140.107 73.8333 140.117 72.9375V72.6953ZM145.594 68.5469V77.75C145.594 78.6146 145.378 79.2734 144.945 79.7266C144.518 80.1849 143.891 80.4141 143.062 80.4141C142.714 80.4141 142.378 80.3698 142.055 80.2812V78.7812C142.253 78.8281 142.477 78.8516 142.727 78.8516C143.357 78.8516 143.68 78.5078 143.695 77.8203V68.5469H145.594ZM143.531 66.3516C143.531 66.0599 143.622 65.8177 143.805 65.625C143.992 65.4323 144.258 65.3359 144.602 65.3359C144.945 65.3359 145.211 65.4323 145.398 65.625C145.586 65.8177 145.68 66.0599 145.68 66.3516C145.68 66.638 145.586 66.8776 145.398 67.0703C145.211 67.2578 144.945 67.3516 144.602 67.3516C144.258 67.3516 143.992 67.2578 143.805 67.0703C143.622 66.8776 143.531 66.638 143.531 66.3516ZM151.352 77.1562C150.148 77.1562 149.172 76.7786 148.422 76.0234C147.677 75.263 147.305 74.2526 147.305 72.9922V72.7578C147.305 71.9141 147.466 71.1615 147.789 70.5C148.117 69.8333 148.576 69.3151 149.164 68.9453C149.753 68.5755 150.409 68.3906 151.133 68.3906C152.284 68.3906 153.172 68.7578 153.797 69.4922C154.427 70.2266 154.742 71.2656 154.742 72.6094V73.375H149.219C149.276 74.0729 149.508 74.625 149.914 75.0312C150.326 75.4375 150.841 75.6406 151.461 75.6406C152.331 75.6406 153.039 75.2891 153.586 74.5859L154.609 75.5625C154.271 76.0677 153.818 76.4609 153.25 76.7422C152.688 77.0182 152.055 77.1562 151.352 77.1562ZM151.125 69.9141C150.604 69.9141 150.182 70.0964 149.859 70.4609C149.542 70.8255 149.339 71.3333 149.25 71.9844H152.867V71.8438C152.826 71.2083 152.656 70.7292 152.359 70.4062C152.062 70.0781 151.651 69.9141 151.125 69.9141ZM159.695 75.6406C160.169 75.6406 160.562 75.5026 160.875 75.2266C161.188 74.9505 161.354 74.6094 161.375 74.2031H163.164C163.143 74.7292 162.979 75.2214 162.672 75.6797C162.365 76.1328 161.948 76.4922 161.422 76.7578C160.896 77.0234 160.328 77.1562 159.719 77.1562C158.536 77.1562 157.599 76.7734 156.906 76.0078C156.214 75.2422 155.867 74.1849 155.867 72.8359V72.6406C155.867 71.3542 156.211 70.3255 156.898 69.5547C157.586 68.7786 158.523 68.3906 159.711 68.3906C160.716 68.3906 161.534 68.6849 162.164 69.2734C162.799 69.8568 163.133 70.625 163.164 71.5781H161.375C161.354 71.0938 161.188 70.6953 160.875 70.3828C160.568 70.0703 160.174 69.9141 159.695 69.9141C159.081 69.9141 158.607 70.138 158.273 70.5859C157.94 71.0286 157.771 71.7031 157.766 72.6094V72.9141C157.766 73.8307 157.93 74.5156 158.258 74.9688C158.591 75.4167 159.07 75.6406 159.695 75.6406ZM166.977 66.4922V68.5469H168.469V69.9531H166.977V74.6719C166.977 74.9948 167.039 75.2292 167.164 75.375C167.294 75.5156 167.523 75.5859 167.852 75.5859C168.07 75.5859 168.292 75.5599 168.516 75.5078V76.9766C168.083 77.0964 167.667 77.1562 167.266 77.1562C165.807 77.1562 165.078 76.3516 165.078 74.7422V69.9531H163.688V68.5469H165.078V66.4922H166.977ZM174.664 74.7031C174.664 74.3646 174.523 74.1068 174.242 73.9297C173.966 73.7526 173.505 73.5964 172.859 73.4609C172.214 73.3255 171.674 73.1536 171.242 72.9453C170.294 72.487 169.82 71.8229 169.82 70.9531C169.82 70.224 170.128 69.6146 170.742 69.125C171.357 68.6354 172.138 68.3906 173.086 68.3906C174.096 68.3906 174.911 68.6406 175.531 69.1406C176.156 69.6406 176.469 70.2891 176.469 71.0859H174.57C174.57 70.7214 174.435 70.4193 174.164 70.1797C173.893 69.9349 173.534 69.8125 173.086 69.8125C172.669 69.8125 172.328 69.9089 172.062 70.1016C171.802 70.2943 171.672 70.5521 171.672 70.875C171.672 71.1667 171.794 71.3932 172.039 71.5547C172.284 71.7161 172.779 71.8802 173.523 72.0469C174.268 72.2083 174.852 72.4036 175.273 72.6328C175.701 72.8568 176.016 73.1276 176.219 73.4453C176.427 73.763 176.531 74.1484 176.531 74.6016C176.531 75.362 176.216 75.9792 175.586 76.4531C174.956 76.9219 174.13 77.1562 173.109 77.1562C172.417 77.1562 171.799 77.0312 171.258 76.7812C170.716 76.5312 170.294 76.1875 169.992 75.75C169.69 75.3125 169.539 74.8411 169.539 74.3359H171.383C171.409 74.7839 171.578 75.1302 171.891 75.375C172.203 75.6146 172.617 75.7344 173.133 75.7344C173.633 75.7344 174.013 75.6406 174.273 75.4531C174.534 75.2604 174.664 75.0104 174.664 74.7031Z" fill="#7450C8"/>
<path d="M300.156 77V65.625H303.516C304.521 65.625 305.411 65.849 306.188 66.2969C306.969 66.7448 307.573 67.3802 308 68.2031C308.427 69.026 308.641 69.9688 308.641 71.0312V71.6016C308.641 72.6797 308.424 73.6276 307.992 74.4453C307.565 75.263 306.953 75.8932 306.156 76.3359C305.365 76.7786 304.456 77 303.43 77H300.156ZM302.133 67.2188V75.4219H303.422C304.458 75.4219 305.253 75.099 305.805 74.4531C306.362 73.8021 306.646 72.8698 306.656 71.6562V71.0234C306.656 69.7891 306.388 68.8464 305.852 68.1953C305.315 67.5443 304.536 67.2188 303.516 67.2188H302.133ZM315.477 77C315.393 76.8385 315.32 76.5755 315.258 76.2109C314.654 76.8411 313.914 77.1562 313.039 77.1562C312.19 77.1562 311.497 76.9141 310.961 76.4297C310.424 75.9453 310.156 75.3464 310.156 74.6328C310.156 73.7318 310.49 73.0417 311.156 72.5625C311.828 72.0781 312.786 71.8359 314.031 71.8359H315.195V71.2812C315.195 70.8438 315.073 70.4948 314.828 70.2344C314.583 69.9688 314.211 69.8359 313.711 69.8359C313.279 69.8359 312.924 69.9453 312.648 70.1641C312.372 70.3776 312.234 70.651 312.234 70.9844H310.336C310.336 70.5208 310.49 70.0885 310.797 69.6875C311.104 69.2812 311.521 68.9635 312.047 68.7344C312.578 68.5052 313.169 68.3906 313.82 68.3906C314.81 68.3906 315.599 68.6406 316.188 69.1406C316.776 69.6354 317.078 70.3333 317.094 71.2344V75.0469C317.094 75.8073 317.201 76.4141 317.414 76.8672V77H315.477ZM313.391 75.6328C313.766 75.6328 314.117 75.5417 314.445 75.3594C314.779 75.1771 315.029 74.9323 315.195 74.625V73.0312H314.172C313.469 73.0312 312.94 73.1536 312.586 73.3984C312.232 73.6432 312.055 73.9896 312.055 74.4375C312.055 74.8021 312.174 75.0938 312.414 75.3125C312.659 75.526 312.984 75.6328 313.391 75.6328ZM321.461 66.4922V68.5469H322.953V69.9531H321.461V74.6719C321.461 74.9948 321.523 75.2292 321.648 75.375C321.779 75.5156 322.008 75.5859 322.336 75.5859C322.555 75.5859 322.776 75.5599 323 75.5078V76.9766C322.568 77.0964 322.151 77.1562 321.75 77.1562C320.292 77.1562 319.562 76.3516 319.562 74.7422V69.9531H318.172V68.5469H319.562V66.4922H321.461ZM329.461 77C329.378 76.8385 329.305 76.5755 329.242 76.2109C328.638 76.8411 327.898 77.1562 327.023 77.1562C326.174 77.1562 325.482 76.9141 324.945 76.4297C324.409 75.9453 324.141 75.3464 324.141 74.6328C324.141 73.7318 324.474 73.0417 325.141 72.5625C325.812 72.0781 326.771 71.8359 328.016 71.8359H329.18V71.2812C329.18 70.8438 329.057 70.4948 328.812 70.2344C328.568 69.9688 328.195 69.8359 327.695 69.8359C327.263 69.8359 326.909 69.9453 326.633 70.1641C326.357 70.3776 326.219 70.651 326.219 70.9844H324.32C324.32 70.5208 324.474 70.0885 324.781 69.6875C325.089 69.2812 325.505 68.9635 326.031 68.7344C326.562 68.5052 327.154 68.3906 327.805 68.3906C328.794 68.3906 329.583 68.6406 330.172 69.1406C330.76 69.6354 331.062 70.3333 331.078 71.2344V75.0469C331.078 75.8073 331.185 76.4141 331.398 76.8672V77H329.461ZM327.375 75.6328C327.75 75.6328 328.102 75.5417 328.43 75.3594C328.763 75.1771 329.013 74.9323 329.18 74.625V73.0312H328.156C327.453 73.0312 326.924 73.1536 326.57 73.3984C326.216 73.6432 326.039 73.9896 326.039 74.4375C326.039 74.8021 326.159 75.0938 326.398 75.3125C326.643 75.526 326.969 75.6328 327.375 75.6328ZM345.914 73.2969C345.799 74.5104 345.352 75.4583 344.57 76.1406C343.789 76.8177 342.75 77.1562 341.453 77.1562C340.547 77.1562 339.747 76.9427 339.055 76.5156C338.367 76.0833 337.836 75.4714 337.461 74.6797C337.086 73.888 336.891 72.9688 336.875 71.9219V70.8594C336.875 69.7865 337.065 68.8411 337.445 68.0234C337.826 67.2057 338.37 66.5755 339.078 66.1328C339.792 65.6901 340.615 65.4688 341.547 65.4688C342.802 65.4688 343.812 65.8099 344.578 66.4922C345.344 67.1745 345.789 68.138 345.914 69.3828H343.945C343.852 68.5651 343.612 67.9766 343.227 67.6172C342.846 67.2526 342.286 67.0703 341.547 67.0703C340.688 67.0703 340.026 67.3854 339.562 68.0156C339.104 68.6406 338.87 69.5599 338.859 70.7734V71.7812C338.859 73.0104 339.078 73.9479 339.516 74.5938C339.958 75.2396 340.604 75.5625 341.453 75.5625C342.229 75.5625 342.812 75.388 343.203 75.0391C343.594 74.6901 343.841 74.1094 343.945 73.2969H345.914ZM347.148 72.6953C347.148 71.8672 347.312 71.1224 347.641 70.4609C347.969 69.7943 348.43 69.2839 349.023 68.9297C349.617 68.5703 350.299 68.3906 351.07 68.3906C352.211 68.3906 353.135 68.7578 353.844 69.4922C354.557 70.2266 354.943 71.2005 355 72.4141L355.008 72.8594C355.008 73.6927 354.846 74.4375 354.523 75.0938C354.206 75.75 353.747 76.2578 353.148 76.6172C352.555 76.9766 351.867 77.1562 351.086 77.1562C349.893 77.1562 348.938 76.7604 348.219 75.9688C347.505 75.1719 347.148 74.112 347.148 72.7891V72.6953ZM349.047 72.8594C349.047 73.7292 349.227 74.4115 349.586 74.9062C349.945 75.3958 350.445 75.6406 351.086 75.6406C351.727 75.6406 352.224 75.3906 352.578 74.8906C352.938 74.3906 353.117 73.6589 353.117 72.6953C353.117 71.8411 352.932 71.1641 352.562 70.6641C352.198 70.1641 351.701 69.9141 351.07 69.9141C350.451 69.9141 349.958 70.1615 349.594 70.6562C349.229 71.1458 349.047 71.8802 349.047 72.8594ZM358.375 68.5469L358.43 69.5234C359.055 68.7682 359.875 68.3906 360.891 68.3906C362.651 68.3906 363.547 69.3984 363.578 71.4141V77H361.68V71.5234C361.68 70.987 361.562 70.5911 361.328 70.3359C361.099 70.0755 360.721 69.9453 360.195 69.9453C359.43 69.9453 358.859 70.2917 358.484 70.9844V77H356.586V68.5469H358.375ZM367.898 66.4922V68.5469H369.391V69.9531H367.898V74.6719C367.898 74.9948 367.961 75.2292 368.086 75.375C368.216 75.5156 368.445 75.5859 368.773 75.5859C368.992 75.5859 369.214 75.5599 369.438 75.5078V76.9766C369.005 77.0964 368.589 77.1562 368.188 77.1562C366.729 77.1562 366 76.3516 366 74.7422V69.9531H364.609V68.5469H366V66.4922H367.898ZM375.273 70.2812C375.023 70.2396 374.766 70.2188 374.5 70.2188C373.63 70.2188 373.044 70.5521 372.742 71.2188V77H370.844V68.5469H372.656L372.703 69.4922C373.161 68.7578 373.797 68.3906 374.609 68.3906C374.88 68.3906 375.104 68.4271 375.281 68.5L375.273 70.2812ZM375.836 72.6953C375.836 71.8672 376 71.1224 376.328 70.4609C376.656 69.7943 377.117 69.2839 377.711 68.9297C378.305 68.5703 378.987 68.3906 379.758 68.3906C380.898 68.3906 381.823 68.7578 382.531 69.4922C383.245 70.2266 383.63 71.2005 383.688 72.4141L383.695 72.8594C383.695 73.6927 383.534 74.4375 383.211 75.0938C382.893 75.75 382.435 76.2578 381.836 76.6172C381.242 76.9766 380.555 77.1562 379.773 77.1562C378.581 77.1562 377.625 76.7604 376.906 75.9688C376.193 75.1719 375.836 74.112 375.836 72.7891V72.6953ZM377.734 72.8594C377.734 73.7292 377.914 74.4115 378.273 74.9062C378.633 75.3958 379.133 75.6406 379.773 75.6406C380.414 75.6406 380.911 75.3906 381.266 74.8906C381.625 74.3906 381.805 73.6589 381.805 72.6953C381.805 71.8411 381.62 71.1641 381.25 70.6641C380.885 70.1641 380.388 69.9141 379.758 69.9141C379.138 69.9141 378.646 70.1615 378.281 70.6562C377.917 71.1458 377.734 71.8802 377.734 72.8594ZM387.32 77H385.422V65H387.32V77ZM391.414 77H389.516V65H391.414V77ZM397.211 77.1562C396.008 77.1562 395.031 76.7786 394.281 76.0234C393.536 75.263 393.164 74.2526 393.164 72.9922V72.7578C393.164 71.9141 393.326 71.1615 393.648 70.5C393.977 69.8333 394.435 69.3151 395.023 68.9453C395.612 68.5755 396.268 68.3906 396.992 68.3906C398.143 68.3906 399.031 68.7578 399.656 69.4922C400.286 70.2266 400.602 71.2656 400.602 72.6094V73.375H395.078C395.135 74.0729 395.367 74.625 395.773 75.0312C396.185 75.4375 396.701 75.6406 397.32 75.6406C398.19 75.6406 398.898 75.2891 399.445 74.5859L400.469 75.5625C400.13 76.0677 399.677 76.4609 399.109 76.7422C398.547 77.0182 397.914 77.1562 397.211 77.1562ZM396.984 69.9141C396.464 69.9141 396.042 70.0964 395.719 70.4609C395.401 70.8255 395.198 71.3333 395.109 71.9844H398.727V71.8438C398.685 71.2083 398.516 70.7292 398.219 70.4062C397.922 70.0781 397.51 69.9141 396.984 69.9141ZM406.508 70.2812C406.258 70.2396 406 70.2188 405.734 70.2188C404.865 70.2188 404.279 70.5521 403.977 71.2188V77H402.078V68.5469H403.891L403.938 69.4922C404.396 68.7578 405.031 68.3906 405.844 68.3906C406.115 68.3906 406.339 68.4271 406.516 68.5L406.508 70.2812ZM412.445 74.7031C412.445 74.3646 412.305 74.1068 412.023 73.9297C411.747 73.7526 411.286 73.5964 410.641 73.4609C409.995 73.3255 409.456 73.1536 409.023 72.9453C408.076 72.487 407.602 71.8229 407.602 70.9531C407.602 70.224 407.909 69.6146 408.523 69.125C409.138 68.6354 409.919 68.3906 410.867 68.3906C411.878 68.3906 412.693 68.6406 413.312 69.1406C413.938 69.6406 414.25 70.2891 414.25 71.0859H412.352C412.352 70.7214 412.216 70.4193 411.945 70.1797C411.674 69.9349 411.315 69.8125 410.867 69.8125C410.451 69.8125 410.109 69.9089 409.844 70.1016C409.583 70.2943 409.453 70.5521 409.453 70.875C409.453 71.1667 409.576 71.3932 409.82 71.5547C410.065 71.7161 410.56 71.8802 411.305 72.0469C412.049 72.2083 412.633 72.4036 413.055 72.6328C413.482 72.8568 413.797 73.1276 414 73.4453C414.208 73.763 414.312 74.1484 414.312 74.6016C414.312 75.362 413.997 75.9792 413.367 76.4531C412.737 76.9219 411.911 77.1562 410.891 77.1562C410.198 77.1562 409.581 77.0312 409.039 76.7812C408.497 76.5312 408.076 76.1875 407.773 75.75C407.471 75.3125 407.32 74.8411 407.32 74.3359H409.164C409.19 74.7839 409.359 75.1302 409.672 75.375C409.984 75.6146 410.398 75.7344 410.914 75.7344C411.414 75.7344 411.794 75.6406 412.055 75.4531C412.315 75.2604 412.445 75.0104 412.445 74.7031Z" fill="#7450C8"/>
<path fill-rule="evenodd" clip-rule="evenodd" d="M430.563 179.277C430.563 138.526 397.627 105.49 357 105.49C316.373 105.49 283.437 138.526 283.437 179.277C283.437 190.132 285.793 200.444 289.989 209.725H424.009C428.207 200.444 430.563 190.132 430.563 179.277Z" fill="#F4F6FC"/>
<path d="M285.276 209.725H428.724" stroke="#7450C8" stroke-linecap="round" stroke-linejoin="round"/>
<path d="M277 209.725H281.598" stroke="#7450C8" stroke-linecap="round" stroke-linejoin="round"/>
<path d="M432.402 209.725H437" stroke="#7450C8" stroke-linecap="round" stroke-linejoin="round"/>
<path fill-rule="evenodd" clip-rule="evenodd" d="M309.99 230.927C309.99 232.456 324.812 233.694 343.094 233.694C361.374 233.694 376.197 232.456 376.197 230.927C376.197 229.398 361.374 228.16 343.094 228.16C324.812 228.16 309.99 229.398 309.99 230.927Z" fill="#F0F2FF"/>
<path fill-rule="evenodd" clip-rule="evenodd" d="M381.644 169.869C387.737 169.869 392.679 164.914 392.679 158.801V136.665C392.679 123.951 381.994 113.741 369.141 114.577C357.411 115.339 348.541 125.634 348.541 137.423V158.801C348.541 164.914 353.483 169.869 359.575 169.869H381.644Z" fill="white"/>
<path fill-rule="evenodd" clip-rule="evenodd" d="M381.644 169.869C387.737 169.869 392.679 164.914 392.679 158.801V136.665C392.679 123.951 381.994 113.741 369.141 114.577C357.411 115.339 348.541 125.634 348.541 137.423V158.801C348.541 164.914 353.483 169.869 359.575 169.869H381.644Z" stroke="#7450C8" stroke-linecap="round" stroke-linejoin="round"/>
<path fill-rule="evenodd" clip-rule="evenodd" d="M370.61 166.547C354.766 166.547 341.92 179.43 341.92 195.324V203.075C341.92 217.665 336.756 219.673 331.026 219.673H328.679H326.472V229.635H328.679H331.026C339.042 229.635 352.955 222.937 352.955 209.714H388.267C388.267 218.133 382.078 219.673 377.37 219.673H375.024H372.817V229.635H375.024H377.37C386.43 229.635 399.301 227.696 399.301 209.71V195.324C399.301 179.43 386.455 166.547 370.61 166.547Z" fill="white"/>
<path fill-rule="evenodd" clip-rule="evenodd" d="M370.61 166.547C354.766 166.547 341.92 179.43 341.92 195.324V203.075C341.92 217.665 336.756 219.673 331.026 219.673H326.472V229.635H331.026C339.042 229.635 352.955 222.937 352.955 209.714H388.267C388.267 218.133 382.078 219.673 377.37 219.673H372.817V229.635H377.37C386.43 229.635 399.301 227.696 399.301 209.71V195.324C399.301 179.43 386.455 166.547 370.61 166.547Z" stroke="#7450C8" stroke-linecap="round" stroke-linejoin="round"/>
<path d="M352.955 196.431V209.712" stroke="#7450C8" stroke-linecap="round" stroke-linejoin="round"/>
<path d="M388.266 196.431V209.712" stroke="#7450C8" stroke-linecap="round" stroke-linejoin="round"/>
<path fill-rule="evenodd" clip-rule="evenodd" d="M372.817 228.53H369.507C367.07 228.53 365.093 226.547 365.093 224.103C365.093 221.656 367.07 219.675 369.507 219.675H372.817V228.53Z" fill="white"/>
<path fill-rule="evenodd" clip-rule="evenodd" d="M372.817 228.53H369.507C367.07 228.53 365.093 226.547 365.093 224.103C365.093 221.656 367.07 219.675 369.507 219.675H372.817V228.53Z" stroke="#7450C8" stroke-linecap="round" stroke-linejoin="round"/>
<path fill-rule="evenodd" clip-rule="evenodd" d="M326.472 228.53H323.162C320.723 228.53 318.748 226.547 318.748 224.103C318.748 221.656 320.723 219.675 323.162 219.675H326.472V228.53Z" fill="white"/>
<path fill-rule="evenodd" clip-rule="evenodd" d="M326.472 228.53H323.162C320.723 228.53 318.748 226.547 318.748 224.103C318.748 221.656 320.723 219.675 323.162 219.675H326.472V228.53Z" stroke="#7450C8" stroke-linecap="round" stroke-linejoin="round"/>
<path d="M370.61 180.937V209.713" stroke="#7450C8" stroke-linecap="round" stroke-linejoin="round"/>
<path fill-rule="evenodd" clip-rule="evenodd" d="M377.232 167.656L370.609 180.937L363.99 167.656V162.122H377.232V167.656Z" fill="white"/>
<path fill-rule="evenodd" clip-rule="evenodd" d="M377.232 167.656L370.609 180.937L363.99 167.656V162.122H377.232V167.656Z" stroke="#7450C8" stroke-linecap="round" stroke-linejoin="round"/>
<path fill-rule="evenodd" clip-rule="evenodd" d="M360.27 177.858C360.625 178.321 361.177 178.589 361.762 178.578C362.343 178.569 362.886 178.281 363.224 177.807L366.516 173.182C366.983 172.527 366.974 171.645 366.492 171.004L363.774 167.368C360.649 168.135 357.727 169.413 355.097 171.112L360.27 177.858Z" fill="white"/>
<path fill-rule="evenodd" clip-rule="evenodd" d="M360.27 177.858C360.625 178.321 361.177 178.589 361.762 178.578C362.343 178.569 362.886 178.281 363.224 177.807L366.516 173.182C366.983 172.527 366.974 171.645 366.492 171.004L363.774 167.368C360.649 168.135 357.727 169.413 355.097 171.112L360.27 177.858Z" stroke="#7450C8" stroke-linecap="round" stroke-linejoin="round"/>
<path fill-rule="evenodd" clip-rule="evenodd" d="M380.949 177.858C380.594 178.321 380.043 178.589 379.458 178.578C378.877 178.569 378.334 178.281 377.996 177.807L374.704 173.182C374.237 172.527 374.246 171.645 374.728 171.004L377.446 167.368C380.569 168.135 383.493 169.413 386.123 171.112L380.949 177.858Z" fill="white"/>
<path fill-rule="evenodd" clip-rule="evenodd" d="M380.949 177.858C380.594 178.321 380.043 178.589 379.458 178.578C378.877 178.569 378.334 178.281 377.996 177.807L374.704 173.182C374.237 172.527 374.246 171.645 374.728 171.004L377.446 167.368C380.569 168.135 383.493 169.413 386.123 171.112L380.949 177.858Z" stroke="#7450C8" stroke-linecap="round" stroke-linejoin="round"/>
<path fill-rule="evenodd" clip-rule="evenodd" d="M389.372 142.199V137.771C389.372 137.253 389.334 136.744 389.295 136.237C386.388 137.908 383.028 138.878 379.438 138.878C373.341 138.878 367.896 136.119 364.254 131.784C362.595 136.596 358.658 139.985 354.058 139.985C353.304 139.985 352.567 139.893 351.855 139.719V142.199C350.025 142.199 348.545 143.686 348.545 145.519V146.626C348.545 148.46 350.025 149.946 351.855 149.946C351.958 149.946 352.057 149.924 352.16 149.917C353.711 158.736 361.372 165.442 370.614 165.442C379.851 165.442 387.513 158.736 389.067 149.917C389.17 149.924 389.266 149.946 389.372 149.946C391.2 149.946 392.683 148.46 392.683 146.626V145.519C392.683 143.686 391.2 142.199 389.372 142.199Z" fill="white"/>
<path fill-rule="evenodd" clip-rule="evenodd" d="M389.372 142.199V137.771C389.372 137.253 389.334 136.744 389.295 136.237C386.388 137.908 383.028 138.878 379.438 138.878C373.341 138.878 367.896 136.119 364.254 131.784C362.595 136.596 358.658 139.985 354.058 139.985C353.304 139.985 352.567 139.893 351.855 139.719V142.199C350.025 142.199 348.545 143.686 348.545 145.519V146.626C348.545 148.46 350.025 149.946 351.855 149.946C351.958 149.946 352.057 149.924 352.16 149.917C353.711 158.736 361.372 165.442 370.614 165.442C379.851 165.442 387.513 158.736 389.067 149.917C389.17 149.924 389.266 149.946 389.372 149.946C391.2 149.946 392.683 148.46 392.683 146.626V145.519C392.683 143.686 391.2 142.199 389.372 142.199Z" stroke="#7450C8" stroke-linecap="round" stroke-linejoin="round"/>
<path fill-rule="evenodd" clip-rule="evenodd" d="M361.786 149.947C361.786 151.17 360.799 152.16 359.579 152.16C358.36 152.16 357.372 151.17 357.372 149.947C357.372 148.723 358.36 147.733 359.579 147.733C360.799 147.733 361.786 148.723 361.786 149.947Z" fill="#F4F6FC"/>
<path fill-rule="evenodd" clip-rule="evenodd" d="M383.855 149.947C383.855 151.17 382.868 152.16 381.648 152.16C380.429 152.16 379.441 151.17 379.441 149.947C379.441 148.723 380.429 147.733 381.648 147.733C382.868 147.733 383.855 148.723 383.855 149.947Z" fill="#F4F6FC"/>
<path d="M365.096 154.374C368.436 157.325 372.791 157.325 376.131 154.374" stroke="#7450C8" stroke-linecap="round" stroke-linejoin="round"/>
<path d="M380.545 144.413C379.977 143.33 378.978 142.568 377.787 142.568C376.593 142.568 375.594 143.33 375.028 144.413" stroke="#7450C8" stroke-linecap="round" stroke-linejoin="round"/>
<path d="M366.199 144.043C365.631 142.961 364.634 142.199 363.44 142.199C362.249 142.199 361.25 142.961 360.682 144.043" stroke="#7450C8" stroke-linecap="round" stroke-linejoin="round"/>
<path fill-rule="evenodd" clip-rule="evenodd" d="M349.877 225.393H353.989L345.204 198.079C344.96 197.317 344.251 196.801 343.455 196.801H340.682L349.877 225.393Z" fill="#F4F6FC"/>
<path fill-rule="evenodd" clip-rule="evenodd" d="M349.877 225.393H353.989L345.204 198.079C344.96 197.317 344.251 196.801 343.455 196.801H340.682L349.877 225.393Z" stroke="#7450C8" stroke-linejoin="round"/>
<path fill-rule="evenodd" clip-rule="evenodd" d="M314.015 225.393H349.877L340.682 196.801H307.347C306.758 196.801 306.206 197.083 305.859 197.559C305.511 198.037 305.416 198.649 305.594 199.212L314.015 225.393Z" fill="#F4F6FC"/>
<path fill-rule="evenodd" clip-rule="evenodd" d="M314.015 225.394H351.716V230.005H317.693C315.663 230.005 314.015 228.352 314.015 226.316V225.394Z" fill="#F4F6FC"/>
<path fill-rule="evenodd" clip-rule="evenodd" d="M314.015 225.394H351.716V230.005H317.693C315.663 230.005 314.015 228.352 314.015 226.316V225.394Z" stroke="#7450C8" stroke-linejoin="round"/>
<path fill-rule="evenodd" clip-rule="evenodd" d="M351.716 225.394H368.358C368.864 225.394 369.278 225.807 369.278 226.316C369.278 228.352 367.63 230.005 365.6 230.005H351.716V225.394Z" fill="#F4F6FC"/>
<path fill-rule="evenodd" clip-rule="evenodd" d="M351.716 225.394H368.358C368.864 225.394 369.278 225.807 369.278 226.316C369.278 228.352 367.63 230.005 365.6 230.005H351.716V225.394Z" stroke="#7450C8" stroke-linejoin="round"/>
<path fill-rule="evenodd" clip-rule="evenodd" d="M329.356 210.079C329.342 208.932 330.289 208.382 330.329 208.352C329.8 207.576 328.974 207.469 328.68 207.456C327.975 207.384 327.306 207.871 326.949 207.871C326.592 207.871 326.041 207.465 325.458 207.476C324.691 207.489 323.984 207.925 323.587 208.613C322.791 210 323.387 212.053 324.163 213.178C324.542 213.73 324.994 214.348 325.586 214.326C326.162 214.302 326.377 213.955 327.067 213.955C327.76 213.955 327.953 214.326 328.558 214.313C329.172 214.303 329.564 213.754 329.939 213.2C330.377 212.562 330.554 211.944 330.567 211.911C330.552 211.905 329.366 211.45 329.356 210.079Z" fill="white"/>
<path fill-rule="evenodd" clip-rule="evenodd" d="M329.356 210.079C329.342 208.932 330.289 208.382 330.329 208.352C329.8 207.576 328.974 207.469 328.68 207.456C327.975 207.384 327.306 207.871 326.949 207.871C326.592 207.871 326.041 207.465 325.458 207.476C324.691 207.489 323.984 207.925 323.587 208.613C322.791 210 323.387 212.053 324.163 213.178C324.542 213.73 324.994 214.348 325.586 214.326C326.162 214.302 326.377 213.955 327.067 213.955C327.76 213.955 327.953 214.326 328.558 214.313C329.172 214.303 329.564 213.754 329.939 213.2C330.377 212.562 330.554 211.944 330.567 211.911C330.552 211.905 329.366 211.45 329.356 210.079Z" stroke="#7450C8" stroke-linejoin="round"/>
<path d="M327.808 205.102L328.636 204.27" stroke="#7450C8" stroke-linecap="round" stroke-linejoin="round"/>
<path fill-rule="evenodd" clip-rule="evenodd" d="M314.015 225.393H349.877L340.682 196.801H307.347C306.758 196.801 306.206 197.083 305.859 197.559C305.511 198.037 305.416 198.649 305.594 199.212L314.015 225.393Z" stroke="#7450C8" stroke-linejoin="round"/>
<path fill-rule="evenodd" clip-rule="evenodd" d="M202.622 178.97C202.622 137.965 169.513 104.723 128.672 104.723C87.8318 104.723 54.7227 137.965 54.7227 178.97C54.7227 189.895 57.0928 200.258 61.3116 209.597H196.033C200.252 200.258 202.622 189.895 202.622 178.97Z" fill="#F4F6FC"/>
<path fill-rule="evenodd" clip-rule="evenodd" d="M193.21 180.6C193.21 145.378 164.616 116.824 129.345 116.824C94.0732 116.824 65.479 145.378 65.479 180.6C65.479 189.983 67.5259 198.885 71.1694 206.908H187.52C191.165 198.885 193.21 189.983 193.21 180.6Z" fill="#F0F2FF"/>
<path d="M65.479 208.252H190.521" stroke="#7450C8" stroke-linecap="round" stroke-linejoin="round"/>
<path d="M58.7563 208.252H62.7899" stroke="#7450C8" stroke-linecap="round" stroke-linejoin="round"/>
<path d="M193.21 208.252H197.244" stroke="#7450C8" stroke-linecap="round" stroke-linejoin="round"/>
<mask id="mask0" mask-type="alpha" maskUnits="userSpaceOnUse" x="48" y="98" width="160" height="160">
<path fill-rule="evenodd" clip-rule="evenodd" d="M48 258H208V98H48V258Z" fill="white"/>
</mask>
<g mask="url(#mask0)">
<path fill-rule="evenodd" clip-rule="evenodd" d="M151.529 202.874H179.765V149.092H151.529V202.874Z" fill="white"/>
<path fill-rule="evenodd" clip-rule="evenodd" d="M151.529 202.874H179.765V149.092H151.529V202.874Z" stroke="#7450C8" stroke-linecap="round" stroke-linejoin="round"/>
<path fill-rule="evenodd" clip-rule="evenodd" d="M151.529 147.748H179.765V145.059H151.529V147.748Z" fill="white"/>
<path fill-rule="evenodd" clip-rule="evenodd" d="M151.529 147.748H179.765V145.059H151.529V147.748Z" stroke="#7450C8" stroke-linecap="round" stroke-linejoin="round"/>
<path fill-rule="evenodd" clip-rule="evenodd" d="M148.84 208.252H151.529V145.328C151.529 144.437 150.927 143.714 150.185 143.714C149.441 143.714 148.84 144.437 148.84 145.328V208.252Z" fill="white"/>
<path fill-rule="evenodd" clip-rule="evenodd" d="M148.84 208.252H151.529V145.328C151.529 144.437 150.927 143.714 150.185 143.714C149.441 143.714 148.84 144.437 148.84 145.328V208.252Z" stroke="#7450C8" stroke-linecap="round" stroke-linejoin="round"/>
<path fill-rule="evenodd" clip-rule="evenodd" d="M181.109 208.252H183.798V145.328C183.798 144.437 183.196 143.714 182.454 143.714C181.71 143.714 181.109 144.437 181.109 145.328V208.252Z" fill="white"/>
<path fill-rule="evenodd" clip-rule="evenodd" d="M181.109 208.252H183.798V145.328C183.798 144.437 183.196 143.714 182.454 143.714C181.71 143.714 181.109 144.437 181.109 145.328V208.252Z" stroke="#7450C8" stroke-linecap="round" stroke-linejoin="round"/>
<path fill-rule="evenodd" clip-rule="evenodd" d="M117.916 202.874H146.151V149.092H117.916V202.874Z" fill="white"/>
<path fill-rule="evenodd" clip-rule="evenodd" d="M117.916 202.874H146.151V149.092H117.916V202.874Z" stroke="#7450C8" stroke-linecap="round" stroke-linejoin="round"/>
<path fill-rule="evenodd" clip-rule="evenodd" d="M142.118 157.16H120.605V153.574C120.605 152.585 121.317 151.782 122.199 151.782H140.524C141.404 151.782 142.118 152.585 142.118 153.574V157.16Z" fill="white"/>
<path fill-rule="evenodd" clip-rule="evenodd" d="M142.118 157.16H120.605V153.574C120.605 152.585 121.317 151.782 122.199 151.782H140.524C141.404 151.782 142.118 152.585 142.118 153.574V157.16Z" stroke="#7450C8" stroke-linecap="round" stroke-linejoin="round"/>
<path fill-rule="evenodd" clip-rule="evenodd" d="M133.602 151.782L128.672 157.16H143.462V153.574C143.462 152.585 142.726 151.782 141.819 151.782H133.602Z" fill="#DFE4EE"/>
<path fill-rule="evenodd" clip-rule="evenodd" d="M133.602 151.782L128.672 157.16H143.462V153.574C143.462 152.585 142.726 151.782 141.819 151.782H133.602Z" stroke="#7450C8" stroke-linecap="round" stroke-linejoin="round"/>
<path fill-rule="evenodd" clip-rule="evenodd" d="M142.118 182.706H120.605V179.12C120.605 178.131 121.317 177.328 122.199 177.328H140.524C141.404 177.328 142.118 178.131 142.118 179.12V182.706Z" fill="white"/>
<path fill-rule="evenodd" clip-rule="evenodd" d="M142.118 182.706H120.605V179.12C120.605 178.131 121.317 177.328 122.199 177.328H140.524C141.404 177.328 142.118 178.131 142.118 179.12V182.706Z" stroke="#7450C8" stroke-linecap="round" stroke-linejoin="round"/>
<path fill-rule="evenodd" clip-rule="evenodd" d="M133.602 177.328L128.672 182.706H143.462V179.12C143.462 178.131 142.726 177.328 141.819 177.328H133.602Z" fill="#DFE4EE"/>
<path fill-rule="evenodd" clip-rule="evenodd" d="M133.602 177.328L128.672 182.706H143.462V179.12C143.462 178.131 142.726 177.328 141.819 177.328H133.602Z" stroke="#7450C8" stroke-linecap="round" stroke-linejoin="round"/>
<path fill-rule="evenodd" clip-rule="evenodd" d="M142.118 159.401C142.118 160.39 141.404 161.194 140.524 161.194H122.199C121.317 161.194 120.605 160.39 120.605 159.401V155.815H142.118V159.401Z" fill="white"/>
<path fill-rule="evenodd" clip-rule="evenodd" d="M142.118 159.401C142.118 160.39 141.404 161.194 140.524 161.194H122.199C121.317 161.194 120.605 160.39 120.605 159.401V155.815H142.118V159.401Z" stroke="#7450C8" stroke-linecap="round" stroke-linejoin="round"/>
<path fill-rule="evenodd" clip-rule="evenodd" d="M133.602 155.815L128.672 161.194H141.819C142.726 161.194 143.462 160.39 143.462 159.401V155.815H133.602Z" fill="#DFE4EE"/>
<path fill-rule="evenodd" clip-rule="evenodd" d="M133.602 155.815L128.672 161.194H141.819C142.726 161.194 143.462 160.39 143.462 159.401V155.815H133.602Z" stroke="#7450C8" stroke-linecap="round" stroke-linejoin="round"/>
<path fill-rule="evenodd" clip-rule="evenodd" d="M177.076 157.16H155.563V153.574C155.563 152.585 156.275 151.782 157.157 151.782H175.482C176.362 151.782 177.076 152.585 177.076 153.574V157.16Z" fill="white"/>
<path fill-rule="evenodd" clip-rule="evenodd" d="M177.076 157.16H155.563V153.574C155.563 152.585 156.275 151.782 157.157 151.782H175.482C176.362 151.782 177.076 152.585 177.076 153.574V157.16Z" stroke="#7450C8" stroke-linecap="round" stroke-linejoin="round"/>
<path fill-rule="evenodd" clip-rule="evenodd" d="M167.216 151.782L162.286 157.16H177.076V153.574C177.076 152.585 176.339 151.782 175.432 151.782H167.216Z" fill="#DFE4EE"/>
<path fill-rule="evenodd" clip-rule="evenodd" d="M167.216 151.782L162.286 157.16H177.076V153.574C177.076 152.585 176.339 151.782 175.432 151.782H167.216Z" stroke="#7450C8" stroke-linecap="round" stroke-linejoin="round"/>
<path fill-rule="evenodd" clip-rule="evenodd" d="M177.076 159.401C177.076 160.39 176.362 161.194 175.482 161.194H157.157C156.275 161.194 155.563 160.39 155.563 159.401V155.815H177.076V159.401Z" fill="white"/>
<path fill-rule="evenodd" clip-rule="evenodd" d="M177.076 159.401C177.076 160.39 176.362 161.194 175.482 161.194H157.157C156.275 161.194 155.563 160.39 155.563 159.401V155.815H177.076V159.401Z" stroke="#7450C8" stroke-linecap="round" stroke-linejoin="round"/>
<path fill-rule="evenodd" clip-rule="evenodd" d="M167.216 155.815L162.286 161.194H175.432C176.339 161.194 177.076 160.39 177.076 159.401V155.815H167.216Z" fill="#DFE4EE"/>
<path fill-rule="evenodd" clip-rule="evenodd" d="M167.216 155.815L162.286 161.194H175.432C176.339 161.194 177.076 160.39 177.076 159.401V155.815H167.216Z" stroke="#7450C8" stroke-linecap="round" stroke-linejoin="round"/>
<path fill-rule="evenodd" clip-rule="evenodd" d="M177.076 169.26H155.563V165.675C155.563 164.685 156.275 163.882 157.157 163.882H175.482C176.362 163.882 177.076 164.685 177.076 165.675V169.26Z" fill="white"/>
<path fill-rule="evenodd" clip-rule="evenodd" d="M177.076 169.26H155.563V165.675C155.563 164.685 156.275 163.882 157.157 163.882H175.482C176.362 163.882 177.076 164.685 177.076 165.675V169.26Z" stroke="#7450C8" stroke-linecap="round" stroke-linejoin="round"/>
<path fill-rule="evenodd" clip-rule="evenodd" d="M167.216 163.882L162.286 169.26H177.076V165.675C177.076 164.685 176.339 163.882 175.432 163.882H167.216Z" fill="#DFE4EE"/>
<path fill-rule="evenodd" clip-rule="evenodd" d="M167.216 163.882L162.286 169.26H177.076V165.675C177.076 164.685 176.339 163.882 175.432 163.882H167.216Z" stroke="#7450C8" stroke-linecap="round" stroke-linejoin="round"/>
<path fill-rule="evenodd" clip-rule="evenodd" d="M177.076 172.846C177.076 173.836 176.362 174.639 175.482 174.639H157.157C156.275 174.639 155.563 173.836 155.563 172.846V169.261H177.076V172.846Z" fill="white"/>
<path fill-rule="evenodd" clip-rule="evenodd" d="M177.076 172.846C177.076 173.836 176.362 174.639 175.482 174.639H157.157C156.275 174.639 155.563 173.836 155.563 172.846V169.261H177.076V172.846Z" stroke="#7450C8" stroke-linecap="round" stroke-linejoin="round"/>
<path fill-rule="evenodd" clip-rule="evenodd" d="M167.216 169.261L162.286 174.639H175.432C176.339 174.639 177.076 173.836 177.076 172.846V169.261H167.216Z" fill="#DFE4EE"/>
<path fill-rule="evenodd" clip-rule="evenodd" d="M167.216 169.261L162.286 174.639H175.432C176.339 174.639 177.076 173.836 177.076 172.846V169.261H167.216Z" stroke="#7450C8" stroke-linecap="round" stroke-linejoin="round"/>
<path fill-rule="evenodd" clip-rule="evenodd" d="M142.118 194.807H120.605V191.221C120.605 190.232 121.317 189.429 122.199 189.429H140.524C141.404 189.429 142.118 190.232 142.118 191.221V194.807Z" fill="white"/>
<path fill-rule="evenodd" clip-rule="evenodd" d="M142.118 194.807H120.605V191.221C120.605 190.232 121.317 189.429 122.199 189.429H140.524C141.404 189.429 142.118 190.232 142.118 191.221V194.807Z" stroke="#7450C8" stroke-linecap="round" stroke-linejoin="round"/>
<path fill-rule="evenodd" clip-rule="evenodd" d="M133.602 189.429L128.672 194.807H143.462V191.221C143.462 190.232 142.726 189.429 141.819 189.429H133.602Z" fill="#DFE4EE"/>
<path fill-rule="evenodd" clip-rule="evenodd" d="M133.602 189.429L128.672 194.807H143.462V191.221C143.462 190.232 142.726 189.429 141.819 189.429H133.602Z" stroke="#7450C8" stroke-linecap="round" stroke-linejoin="round"/>
<path fill-rule="evenodd" clip-rule="evenodd" d="M142.118 198.393C142.118 199.382 141.404 200.185 140.524 200.185H122.199C121.317 200.185 120.605 199.382 120.605 198.393V194.807H142.118V198.393Z" fill="white"/>
<path fill-rule="evenodd" clip-rule="evenodd" d="M142.118 198.393C142.118 199.382 141.404 200.185 140.524 200.185H122.199C121.317 200.185 120.605 199.382 120.605 198.393V194.807H142.118V198.393Z" stroke="#7450C8" stroke-linecap="round" stroke-linejoin="round"/>
<path fill-rule="evenodd" clip-rule="evenodd" d="M133.602 194.807L128.672 200.185H141.819C142.726 200.185 143.462 199.382 143.462 198.393V194.807H133.602Z" fill="#DFE4EE"/>
<path fill-rule="evenodd" clip-rule="evenodd" d="M133.602 194.807L128.672 200.185H141.819C142.726 200.185 143.462 199.382 143.462 198.393V194.807H133.602Z" stroke="#7450C8" stroke-linecap="round" stroke-linejoin="round"/>
<path fill-rule="evenodd" clip-rule="evenodd" d="M142.118 169.26H120.605V165.675C120.605 164.685 121.317 163.882 122.199 163.882H140.524C141.404 163.882 142.118 164.685 142.118 165.675V169.26Z" fill="white"/>
<path fill-rule="evenodd" clip-rule="evenodd" d="M142.118 169.26H120.605V165.675C120.605 164.685 121.317 163.882 122.199 163.882H140.524C141.404 163.882 142.118 164.685 142.118 165.675V169.26Z" stroke="#7450C8" stroke-linecap="round" stroke-linejoin="round"/>
<path fill-rule="evenodd" clip-rule="evenodd" d="M133.602 163.882L128.672 169.26H143.462V165.675C143.462 164.685 142.726 163.882 141.819 163.882H133.602Z" fill="#DFE4EE"/>
<path fill-rule="evenodd" clip-rule="evenodd" d="M133.602 163.882L128.672 169.26H143.462V165.675C143.462 164.685 142.726 163.882 141.819 163.882H133.602Z" stroke="#7450C8" stroke-linecap="round" stroke-linejoin="round"/>
<path fill-rule="evenodd" clip-rule="evenodd" d="M142.118 172.846C142.118 173.836 141.404 174.639 140.524 174.639H122.199C121.317 174.639 120.605 173.836 120.605 172.846V169.261H142.118V172.846Z" fill="white"/>
<path fill-rule="evenodd" clip-rule="evenodd" d="M142.118 172.846C142.118 173.836 141.404 174.639 140.524 174.639H122.199C121.317 174.639 120.605 173.836 120.605 172.846V169.261H142.118V172.846Z" stroke="#7450C8" stroke-linecap="round" stroke-linejoin="round"/>
<path fill-rule="evenodd" clip-rule="evenodd" d="M133.602 169.261L128.672 174.639H141.819C142.726 174.639 143.462 173.836 143.462 172.846V169.261H133.602Z" fill="#DFE4EE"/>
<path fill-rule="evenodd" clip-rule="evenodd" d="M133.602 169.261L128.672 174.639H141.819C142.726 174.639 143.462 173.836 143.462 172.846V169.261H133.602Z" stroke="#7450C8" stroke-linecap="round" stroke-linejoin="round"/>
<path fill-rule="evenodd" clip-rule="evenodd" d="M177.076 182.706H155.563V179.12C155.563 178.131 156.275 177.328 157.157 177.328H175.482C176.362 177.328 177.076 178.131 177.076 179.12V182.706Z" fill="white"/>
<path fill-rule="evenodd" clip-rule="evenodd" d="M177.076 182.706H155.563V179.12C155.563 178.131 156.275 177.328 157.157 177.328H175.482C176.362 177.328 177.076 178.131 177.076 179.12V182.706Z" stroke="#7450C8" stroke-linecap="round" stroke-linejoin="round"/>
<path fill-rule="evenodd" clip-rule="evenodd" d="M167.216 177.328L162.286 182.706H177.076V179.12C177.076 178.131 176.339 177.328 175.432 177.328H167.216Z" fill="#DFE4EE"/>
<path fill-rule="evenodd" clip-rule="evenodd" d="M167.216 177.328L162.286 182.706H177.076V179.12C177.076 178.131 176.339 177.328 175.432 177.328H167.216Z" stroke="#7450C8" stroke-linecap="round" stroke-linejoin="round"/>
<path fill-rule="evenodd" clip-rule="evenodd" d="M177.076 184.947C177.076 185.936 176.362 186.739 175.482 186.739H157.157C156.275 186.739 155.563 185.936 155.563 184.947V181.361H177.076V184.947Z" fill="white"/>
<path fill-rule="evenodd" clip-rule="evenodd" d="M177.076 184.947C177.076 185.936 176.362 186.739 175.482 186.739H157.157C156.275 186.739 155.563 185.936 155.563 184.947V181.361H177.076V184.947Z" stroke="#7450C8" stroke-linecap="round" stroke-linejoin="round"/>
<path fill-rule="evenodd" clip-rule="evenodd" d="M167.216 181.361L162.286 186.739H175.432C176.339 186.739 177.076 185.936 177.076 184.947V181.361H167.216Z" fill="#DFE4EE"/>
<path fill-rule="evenodd" clip-rule="evenodd" d="M167.216 181.361L162.286 186.739H175.432C176.339 186.739 177.076 185.936 177.076 184.947V181.361H167.216Z" stroke="#7450C8" stroke-linecap="round" stroke-linejoin="round"/>
<path fill-rule="evenodd" clip-rule="evenodd" d="M177.076 194.807H155.563V191.221C155.563 190.232 156.275 189.429 157.157 189.429H175.482C176.362 189.429 177.076 190.232 177.076 191.221V194.807Z" fill="white"/>
<path fill-rule="evenodd" clip-rule="evenodd" d="M177.076 194.807H155.563V191.221C155.563 190.232 156.275 189.429 157.157 189.429H175.482C176.362 189.429 177.076 190.232 177.076 191.221V194.807Z" stroke="#7450C8" stroke-linecap="round" stroke-linejoin="round"/>
<path fill-rule="evenodd" clip-rule="evenodd" d="M167.216 189.429L162.286 194.807H177.076V191.221C177.076 190.232 176.339 189.429 175.432 189.429H167.216Z" fill="#DFE4EE"/>
<path fill-rule="evenodd" clip-rule="evenodd" d="M167.216 189.429L162.286 194.807H177.076V191.221C177.076 190.232 176.339 189.429 175.432 189.429H167.216Z" stroke="#7450C8" stroke-linecap="round" stroke-linejoin="round"/>
<path fill-rule="evenodd" clip-rule="evenodd" d="M177.076 198.393C177.076 199.382 176.362 200.185 175.482 200.185H157.157C156.275 200.185 155.563 199.382 155.563 198.393V194.807H177.076V198.393Z" fill="white"/>
<path fill-rule="evenodd" clip-rule="evenodd" d="M177.076 198.393C177.076 199.382 176.362 200.185 175.482 200.185H157.157C156.275 200.185 155.563 199.382 155.563 198.393V194.807H177.076V198.393Z" stroke="#7450C8" stroke-linecap="round" stroke-linejoin="round"/>
<path fill-rule="evenodd" clip-rule="evenodd" d="M167.216 194.807L162.286 200.185H175.432C176.339 200.185 177.076 199.382 177.076 198.393V194.807H167.216Z" fill="#DFE4EE"/>
<path fill-rule="evenodd" clip-rule="evenodd" d="M167.216 194.807L162.286 200.185H175.432C176.339 200.185 177.076 199.382 177.076 198.393V194.807H167.216Z" stroke="#7450C8" stroke-linecap="round" stroke-linejoin="round"/>
<path fill-rule="evenodd" clip-rule="evenodd" d="M142.118 184.947C142.118 185.936 141.404 186.739 140.524 186.739H122.199C121.317 186.739 120.605 185.936 120.605 184.947V181.361H142.118V184.947Z" fill="white"/>
<path fill-rule="evenodd" clip-rule="evenodd" d="M142.118 184.947C142.118 185.936 141.404 186.739 140.524 186.739H122.199C121.317 186.739 120.605 185.936 120.605 184.947V181.361H142.118V184.947Z" stroke="#7450C8" stroke-linecap="round" stroke-linejoin="round"/>
<path fill-rule="evenodd" clip-rule="evenodd" d="M133.602 181.361L128.672 186.739H141.819C142.726 186.739 143.462 185.936 143.462 184.947V181.361H133.602Z" fill="#DFE4EE"/>
<path fill-rule="evenodd" clip-rule="evenodd" d="M133.602 181.361L128.672 186.739H141.819C142.726 186.739 143.462 185.936 143.462 184.947V181.361H133.602Z" stroke="#7450C8" stroke-linecap="round" stroke-linejoin="round"/>
<path fill-rule="evenodd" clip-rule="evenodd" d="M117.916 147.748H146.151V145.059H117.916V147.748Z" fill="white"/>
<path fill-rule="evenodd" clip-rule="evenodd" d="M117.916 147.748H146.151V145.059H117.916V147.748Z" stroke="#7450C8" stroke-linecap="round" stroke-linejoin="round"/>
<path fill-rule="evenodd" clip-rule="evenodd" d="M115.227 208.252H117.916V145.328C117.916 144.437 117.315 143.714 116.571 143.714C115.829 143.714 115.227 144.437 115.227 145.328V208.252Z" fill="white"/>
<path fill-rule="evenodd" clip-rule="evenodd" d="M115.227 208.252H117.916V145.328C117.916 144.437 117.315 143.714 116.571 143.714C115.829 143.714 115.227 144.437 115.227 145.328V208.252Z" stroke="#7450C8" stroke-linecap="round" stroke-linejoin="round"/>
<path fill-rule="evenodd" clip-rule="evenodd" d="M146.151 208.252H148.84V145.328C148.84 144.437 148.238 143.714 147.496 143.714C146.752 143.714 146.151 144.437 146.151 145.328V208.252Z" fill="white"/>
<path fill-rule="evenodd" clip-rule="evenodd" d="M146.151 208.252H148.84V145.328C148.84 144.437 148.238 143.714 147.496 143.714C146.752 143.714 146.151 144.437 146.151 145.328V208.252Z" stroke="#7450C8" stroke-linecap="round" stroke-linejoin="round"/>
<path d="M121.95 188.084V188.084C124.49 188.084 126.549 190.139 126.549 192.674V225.721C126.549 229.44 129.57 232.454 133.298 232.454H139.429" stroke="#7450C8" stroke-linecap="round" stroke-linejoin="round"/>
<path fill-rule="evenodd" clip-rule="evenodd" d="M141.349 233.798H146.151V229.765H141.349C140.289 229.765 139.429 230.668 139.429 231.781C139.429 232.895 140.289 233.798 141.349 233.798Z" fill="#DFE4EE"/>
<path fill-rule="evenodd" clip-rule="evenodd" d="M141.349 233.798H146.151V229.765H141.349C140.289 229.765 139.429 230.668 139.429 231.781C139.429 232.895 140.289 233.798 141.349 233.798Z" stroke="#7450C8" stroke-linecap="round" stroke-linejoin="round"/>
<path d="M140.773 202.874V213.36C140.773 215.736 142.751 217.664 145.192 217.664H149.315C153.509 217.664 156.908 220.974 156.908 225.059C156.908 229.142 153.509 232.454 149.315 232.454H145.519" stroke="#7450C8" stroke-linecap="round" stroke-linejoin="round"/>
<path d="M135.395 202.874V213.23C135.395 215.679 137.319 217.664 139.694 217.664H148.84" stroke="#7450C8" stroke-linecap="round" stroke-linejoin="round"/>
<path fill-rule="evenodd" clip-rule="evenodd" d="M80.2689 236.487C80.2689 237.973 88.3944 239.176 98.4202 239.176C108.444 239.176 116.571 237.973 116.571 236.487C116.571 235.001 108.444 233.798 98.4202 233.798C88.3944 233.798 80.2689 235.001 80.2689 236.487Z" fill="#F4F6FC"/>
<path fill-rule="evenodd" clip-rule="evenodd" d="M94.6451 136.992C88.4757 136.992 83.4751 141.893 83.4751 147.94V149.401C82.4212 149.619 81.6134 150.492 81.6134 151.59C81.6134 152.768 82.5378 153.706 83.7098 153.825C84.7621 158.8 89.2576 162.538 94.6451 162.538C100.815 162.538 105.815 157.637 105.815 151.59V147.94C105.815 141.893 100.815 136.992 94.6451 136.992Z" fill="white"/>
<path fill-rule="evenodd" clip-rule="evenodd" d="M94.6451 136.992C88.4757 136.992 83.4751 141.893 83.4751 147.94V149.401C82.4212 149.619 81.6134 150.492 81.6134 151.59C81.6134 152.768 82.5378 153.706 83.7098 153.825C84.7621 158.8 89.2576 162.538 94.6451 162.538C100.815 162.538 105.815 157.637 105.815 151.59V147.94C105.815 141.893 100.815 136.992 94.6451 136.992Z" stroke="#7450C8" stroke-linecap="round" stroke-linejoin="round"/>
<path fill-rule="evenodd" clip-rule="evenodd" d="M76.2353 183.832C76.2353 174.299 84.0604 166.571 93.7143 166.571C103.367 166.571 111.193 174.299 111.193 183.832V186.558H106.594L106.589 200.185H82.6749L82.6685 186.558H76.2353V183.832Z" fill="white"/>
<path fill-rule="evenodd" clip-rule="evenodd" d="M76.2353 183.832C76.2353 174.299 84.0604 166.571 93.7143 166.571C103.367 166.571 111.193 174.299 111.193 183.832V186.558H106.594L106.589 200.185H82.6749L82.6685 186.558H76.2353V183.832Z" stroke="#7450C8" stroke-linecap="round" stroke-linejoin="round"/>
<path fill-rule="evenodd" clip-rule="evenodd" d="M95.0588 149.093C95.0588 149.835 94.4571 150.437 93.7135 150.437C92.9715 150.437 92.3697 149.835 92.3697 149.093C92.3697 148.35 92.9715 147.748 93.7135 147.748C94.4571 147.748 95.0588 148.35 95.0588 149.093Z" fill="#7450C8"/>
<path fill-rule="evenodd" clip-rule="evenodd" d="M99.0924 149.093C99.0924 149.835 99.6942 150.437 100.436 150.437C101.18 150.437 101.782 149.835 101.782 149.093C101.782 148.35 101.18 147.748 100.436 147.748C99.6942 147.748 99.0924 148.35 99.0924 149.093Z" fill="#7450C8"/>
<path fill-rule="evenodd" clip-rule="evenodd" d="M91.0252 153.125C91.0252 153.869 90.4235 154.471 89.6815 154.471C88.9394 154.471 88.3361 153.869 88.3361 153.125C88.3361 152.383 88.9394 151.782 89.6815 151.782C90.4235 151.782 91.0252 152.383 91.0252 153.125Z" fill="#DFE4EE"/>
<path d="M93.7143 155.815C95.3418 156.751 97.465 156.751 99.0924 155.815" stroke="#7450C8" stroke-linecap="round" stroke-linejoin="round"/>
<path fill-rule="evenodd" clip-rule="evenodd" d="M107.16 145.296C107.16 138.483 101.741 132.958 95.0588 132.958C88.3746 132.958 82.958 138.483 82.958 145.296V149.092C86.2653 148.183 88.2386 146.113 89.4738 143.398C94.6881 146.978 101.575 146.245 107.16 145.296Z" fill="white"/>
<path fill-rule="evenodd" clip-rule="evenodd" d="M107.16 145.296C107.16 138.483 101.741 132.958 95.0588 132.958C88.3746 132.958 82.958 138.483 82.958 145.296V149.092C86.2653 148.183 88.2386 146.113 89.4738 143.398C94.6881 146.978 101.575 146.245 107.16 145.296Z" stroke="#7450C8" stroke-linecap="round" stroke-linejoin="round"/>
<path d="M88.3361 141.025C88.3361 141.025 88.8564 141.895 89.6807 142.369" stroke="#7450C8" stroke-linecap="round" stroke-linejoin="round"/>
<path fill-rule="evenodd" clip-rule="evenodd" d="M76.2353 205.115C76.2353 206.847 77.7402 208.252 79.5958 208.252C81.4531 208.252 82.958 206.847 82.958 205.115V186.739H76.2353V205.115Z" fill="white"/>
<path fill-rule="evenodd" clip-rule="evenodd" d="M76.2353 205.115C76.2353 206.847 77.7402 208.252 79.5958 208.252C81.4531 208.252 82.958 206.847 82.958 205.115V186.739H76.2353V205.115Z" stroke="#7450C8" stroke-linecap="round" stroke-linejoin="round"/>
<path d="M82.958 186.739V181.361" stroke="#7450C8" stroke-linecap="round" stroke-linejoin="round"/>
<path d="M107.16 186.739V181.361" stroke="#7450C8" stroke-linecap="round" stroke-linejoin="round"/>
<path fill-rule="evenodd" clip-rule="evenodd" d="M89.6807 166.969L94.4778 173.294L99.0924 167.426C97.3307 166.874 95.4541 166.571 93.5065 166.571C92.1941 166.571 90.9154 166.712 89.6807 166.969Z" fill="white"/>
<path fill-rule="evenodd" clip-rule="evenodd" d="M89.6807 166.969L94.4778 173.294L99.0924 167.426C97.3307 166.874 95.4541 166.571 93.5065 166.571C92.1941 166.571 90.9154 166.712 89.6807 166.969Z" stroke="#7450C8" stroke-linecap="round" stroke-linejoin="round"/>
<path fill-rule="evenodd" clip-rule="evenodd" d="M95.0588 172.659L98.5796 173.271C99.665 173.458 100.602 172.474 100.412 171.346L99.6067 166.571L95.0588 172.659Z" fill="#DFE4EE"/>
<path fill-rule="evenodd" clip-rule="evenodd" d="M95.0588 172.659L98.5796 173.271C99.665 173.458 100.602 172.474 100.412 171.346L99.6067 166.571L95.0588 172.659Z" stroke="#7450C8" stroke-linecap="round" stroke-linejoin="round"/>
<path fill-rule="evenodd" clip-rule="evenodd" d="M90.4001 166.571L89.6964 171.532C89.5487 172.566 90.4641 173.445 91.5107 173.272L95.0588 172.69L90.4001 166.571Z" fill="#DFE4EE"/>
<path fill-rule="evenodd" clip-rule="evenodd" d="M90.4001 166.571L89.6964 171.532C89.5487 172.566 90.4641 173.445 91.5107 173.272L95.0588 172.69L90.4001 166.571Z" stroke="#7450C8" stroke-linecap="round" stroke-linejoin="round"/>
<path d="M95.0588 171.95V200.185" stroke="#7450C8" stroke-linecap="round" stroke-linejoin="round"/>
<path fill-rule="evenodd" clip-rule="evenodd" d="M120.323 178.672H102.064C101.166 178.672 100.437 179.371 100.437 180.231V190.559C100.437 191.419 101.166 192.118 102.064 192.118H120.323C121.221 192.118 121.95 191.419 121.95 190.559V180.231C121.95 179.371 121.221 178.672 120.323 178.672Z" fill="white"/>
<path fill-rule="evenodd" clip-rule="evenodd" d="M120.323 178.672H102.064C101.166 178.672 100.437 179.371 100.437 180.231V190.559C100.437 191.419 101.166 192.118 102.064 192.118H120.323C121.221 192.118 121.95 191.419 121.95 190.559V180.231C121.95 179.371 121.221 178.672 120.323 178.672Z" stroke="#7450C8" stroke-linecap="round" stroke-linejoin="round"/>
<path fill-rule="evenodd" clip-rule="evenodd" d="M112.538 187.412C112.538 188.525 111.635 189.429 110.521 189.429C109.407 189.429 108.504 188.525 108.504 187.412C108.504 186.298 109.407 185.395 110.521 185.395C111.635 185.395 112.538 186.298 112.538 187.412Z" fill="#DFE4EE"/>
<path fill-rule="evenodd" clip-rule="evenodd" d="M112.538 187.412C112.538 188.525 111.635 189.429 110.521 189.429C109.407 189.429 108.504 188.525 108.504 187.412C108.504 186.298 109.407 185.395 110.521 185.395C111.635 185.395 112.538 186.298 112.538 187.412Z" stroke="#7450C8" stroke-linecap="round" stroke-linejoin="round"/>
<path d="M111.193 183.479L111.966 182.706" stroke="#7450C8" stroke-linecap="round" stroke-linejoin="round"/>
<path fill-rule="evenodd" clip-rule="evenodd" d="M112.127 196.151H108.915C107.945 196.151 107.16 195.396 107.16 194.466V193.258C107.16 192.628 107.69 192.118 108.347 192.118H112.695C113.35 192.118 113.882 192.628 113.882 193.258V194.466C113.882 195.396 113.097 196.151 112.127 196.151Z" fill="white"/>
<path fill-rule="evenodd" clip-rule="evenodd" d="M112.127 196.151H108.915C107.945 196.151 107.16 195.396 107.16 194.466V193.258C107.16 192.628 107.69 192.118 108.347 192.118H112.695C113.35 192.118 113.882 192.628 113.882 193.258V194.466C113.882 195.396 113.097 196.151 112.127 196.151Z" stroke="#7450C8" stroke-linecap="round" stroke-linejoin="round"/>
<path fill-rule="evenodd" clip-rule="evenodd" d="M106.229 228.309C106.546 228.309 106.857 228.336 107.16 228.387V200.185H82.958V228.309H90.4046C90.7899 228.309 91.1671 228.347 91.5297 228.42L92.1627 211.07C92.221 209.552 93.4999 208.35 95.0588 208.35C96.6178 208.35 97.8966 209.552 97.9549 211.07L98.7822 228.309H106.229Z" fill="#DFE4EE"/>
<path fill-rule="evenodd" clip-rule="evenodd" d="M106.229 228.309C106.546 228.309 106.857 228.336 107.16 228.387V200.185H82.958V228.309H90.4046C90.7899 228.309 91.1671 228.347 91.5297 228.42L92.1627 211.07C92.221 209.552 93.4999 208.35 95.0588 208.35C96.6178 208.35 97.8966 209.552 97.9549 211.07L98.7822 228.309H106.229Z" stroke="#7450C8" stroke-linecap="round" stroke-linejoin="round"/>
<path fill-rule="evenodd" clip-rule="evenodd" d="M112.538 233.799C112.538 230.829 109.957 228.42 106.776 228.42H99.0924V232.006C99.0924 232.996 99.9526 233.799 101.013 233.799H112.538Z" fill="white"/>
<path fill-rule="evenodd" clip-rule="evenodd" d="M112.538 233.799C112.538 230.829 109.957 228.42 106.776 228.42H99.0924V232.006C99.0924 232.996 99.9526 233.799 101.013 233.799H112.538Z" stroke="#7450C8" stroke-linecap="round" stroke-linejoin="round"/>
<path fill-rule="evenodd" clip-rule="evenodd" d="M96.4034 233.799C96.4034 230.829 93.8245 228.42 90.6411 228.42H82.958V232.006C82.958 232.996 83.8181 233.799 84.8787 233.799H96.4034Z" fill="white"/>
<path fill-rule="evenodd" clip-rule="evenodd" d="M96.4034 233.799C96.4034 230.829 93.8245 228.42 90.6411 228.42H82.958V232.006C82.958 232.996 83.8181 233.799 84.8787 233.799H96.4034Z" stroke="#7450C8" stroke-linecap="round" stroke-linejoin="round"/>
</g>
<defs>
<filter id="filter0_d" x="0" y="0" width="491" height="338" filterUnits="userSpaceOnUse" color-interpolation-filters="sRGB">
<feFlood flood-opacity="0" result="BackgroundImageFix"/>
<feColorMatrix in="SourceAlpha" type="matrix" values="0 0 0 0 0 0 0 0 0 0 0 0 0 0 0 0 0 0 127 0"/>
<feOffset dy="4"/>
<feGaussianBlur stdDeviation="10"/>
<feColorMatrix type="matrix" values="0 0 0 0 0 0 0 0 0 0 0 0 0 0 0 0 0 0 0.04 0"/>
<feBlend mode="normal" in2="BackgroundImageFix" result="effect1_dropShadow"/>
<feBlend mode="normal" in="SourceGraphic" in2="effect1_dropShadow" result="shape"/>
</filter>
</defs>
</svg>
