<?xml version="1.0" encoding="UTF-8"?>
<svg width="1440px" height="544px" viewBox="0 0 1440 544" version="1.1" xmlns="http://www.w3.org/2000/svg" xmlns:xlink="http://www.w3.org/1999/xlink">
    <!-- Generator: Sketch 60.1 (88133) - https://sketch.com -->
    <title>Group 29</title>
    <desc>Created with Sketch.</desc>
    <defs>
        <rect id="path-1" x="0" y="0" width="168" height="40" rx="4"></rect>
        <filter x="-8.0%" y="-33.8%" width="119.6%" height="182.5%" filterUnits="objectBoundingBox" id="filter-2">
            <feOffset dx="3" dy="3" in="SourceAlpha" result="shadowOffsetOuter1"></feOffset>
            <feGaussianBlur stdDeviation="5" in="shadowOffsetOuter1" result="shadowBlurOuter1"></feGaussianBlur>
            <feColorMatrix values="0 0 0 0 0.2   0 0 0 0 0.2   0 0 0 0 0.2  0 0 0 0.2 0" type="matrix" in="shadowBlurOuter1"></feColorMatrix>
        </filter>
        <rect id="path-3" x="0" y="0" width="168" height="40" rx="4"></rect>
        <filter x="-8.0%" y="-33.8%" width="119.6%" height="182.5%" filterUnits="objectBoundingBox" id="filter-4">
            <feOffset dx="3" dy="3" in="SourceAlpha" result="shadowOffsetOuter1"></feOffset>
            <feGaussianBlur stdDeviation="5" in="shadowOffsetOuter1" result="shadowBlurOuter1"></feGaussianBlur>
            <feColorMatrix values="0 0 0 0 0.2   0 0 0 0 0.2   0 0 0 0 0.2  0 0 0 0.2 0" type="matrix" in="shadowBlurOuter1"></feColorMatrix>
        </filter>
        <rect id="path-5" x="0" y="0" width="168" height="40" rx="4"></rect>
        <filter x="-8.0%" y="-33.8%" width="119.6%" height="182.5%" filterUnits="objectBoundingBox" id="filter-6">
            <feOffset dx="3" dy="3" in="SourceAlpha" result="shadowOffsetOuter1"></feOffset>
            <feGaussianBlur stdDeviation="5" in="shadowOffsetOuter1" result="shadowBlurOuter1"></feGaussianBlur>
            <feColorMatrix values="0 0 0 0 0.2   0 0 0 0 0.2   0 0 0 0 0.2  0 0 0 0.2 0" type="matrix" in="shadowBlurOuter1"></feColorMatrix>
        </filter>
        <rect id="path-7" x="0" y="0" width="131" height="40" rx="4"></rect>
        <filter x="-10.3%" y="-33.8%" width="125.2%" height="182.5%" filterUnits="objectBoundingBox" id="filter-8">
            <feOffset dx="3" dy="3" in="SourceAlpha" result="shadowOffsetOuter1"></feOffset>
            <feGaussianBlur stdDeviation="5" in="shadowOffsetOuter1" result="shadowBlurOuter1"></feGaussianBlur>
            <feColorMatrix values="0 0 0 0 0.2   0 0 0 0 0.2   0 0 0 0 0.2  0 0 0 0.2 0" type="matrix" in="shadowBlurOuter1"></feColorMatrix>
        </filter>
        <rect id="path-9" x="0" y="0" width="105" height="40" rx="4"></rect>
        <filter x="-12.9%" y="-33.8%" width="131.4%" height="182.5%" filterUnits="objectBoundingBox" id="filter-10">
            <feOffset dx="3" dy="3" in="SourceAlpha" result="shadowOffsetOuter1"></feOffset>
            <feGaussianBlur stdDeviation="5" in="shadowOffsetOuter1" result="shadowBlurOuter1"></feGaussianBlur>
            <feColorMatrix values="0 0 0 0 0.2   0 0 0 0 0.2   0 0 0 0 0.2  0 0 0 0.2 0" type="matrix" in="shadowBlurOuter1"></feColorMatrix>
        </filter>
        <rect id="path-11" x="0" y="0" width="168" height="40" rx="4"></rect>
        <filter x="-8.0%" y="-33.8%" width="119.6%" height="182.5%" filterUnits="objectBoundingBox" id="filter-12">
            <feOffset dx="3" dy="3" in="SourceAlpha" result="shadowOffsetOuter1"></feOffset>
            <feGaussianBlur stdDeviation="5" in="shadowOffsetOuter1" result="shadowBlurOuter1"></feGaussianBlur>
            <feColorMatrix values="0 0 0 0 0.2   0 0 0 0 0.2   0 0 0 0 0.2  0 0 0 0.2 0" type="matrix" in="shadowBlurOuter1"></feColorMatrix>
        </filter>
        <rect id="path-13" x="0" y="0" width="168" height="40" rx="4"></rect>
        <filter x="-8.0%" y="-33.8%" width="119.6%" height="182.5%" filterUnits="objectBoundingBox" id="filter-14">
            <feOffset dx="3" dy="3" in="SourceAlpha" result="shadowOffsetOuter1"></feOffset>
            <feGaussianBlur stdDeviation="5" in="shadowOffsetOuter1" result="shadowBlurOuter1"></feGaussianBlur>
            <feColorMatrix values="0 0 0 0 0.2   0 0 0 0 0.2   0 0 0 0 0.2  0 0 0 0.2 0" type="matrix" in="shadowBlurOuter1"></feColorMatrix>
        </filter>
        <polygon id="path-15" points="0 119 119 119 119 0 0 0"></polygon>
    </defs>
    <g id="15--Landing-page" stroke="none" stroke-width="1" fill="none" fill-rule="evenodd">
        <g id="7--Privacy-Operations" transform="translate(0.000000, -769.000000)">
            <g id="Group-29" transform="translate(0.000000, 769.000000)">
                <rect id="Rectangle" fill="#FFFFFF" x="0" y="0" width="1440" height="544"></rect>
                <g id="Group-2" transform="translate(130.000000, 58.000000)">
                    <g id="Group" transform="translate(435.000000, 163.000000)">
                        <path d="M189,128 L128,128 L128,2.96296296 C128,1.32740741 129.336618,0 130.990196,0 L186.009804,0 C187.660392,0 189,1.32740741 189,2.96296296 L189,128 Z" id="Fill-9" fill="#FFFFFF"></path>
                        <path d="M189,128 L128,128 L128,2.96296296 C128,1.32740741 129.336618,0 130.990196,0 L186.009804,0 C187.660392,0 189,1.32740741 189,2.96296296 L189,128 Z" id="Stroke-11" stroke="#7450C8" stroke-linecap="round" stroke-linejoin="round"></path>
                        <polygon id="Fill-13" fill="#FFFFFF" points="11 40 128 40 128 33 11 33"></polygon>
                        <polygon id="Stroke-15" stroke="#7450C8" stroke-linecap="round" stroke-linejoin="round" points="11 40 128 40 128 33 11 33"></polygon>
                        <polygon id="Fill-16" fill="#FFFFFF" points="11 61 128 61 128 54 11 54"></polygon>
                        <polygon id="Stroke-17" stroke="#7450C8" stroke-linecap="round" stroke-linejoin="round" points="11 61 128 61 128 54 11 54"></polygon>
                        <polygon id="Fill-18" fill="#DFE4EE" points="94.3181818 61 44.6818182 61 11 61 11 128 44.6818182 128 94.3181818 128 128 128 128 61"></polygon>
                        <polygon id="Fill-19" fill="#FFFFFF" points="105 61 11 61 11 128 37.2800809 128"></polygon>
                        <path d="M33.5454545,121 L21.4545455,121 C19.5459091,121 18,122.569167 18,124.5 C18,126.43375 19.5459091,128 21.4545455,128 L33.5454545,128 C35.4540909,128 37,126.43375 37,124.5 C37,122.569167 35.4540909,121 33.5454545,121" id="Fill-20" fill="#DFE4EE"></path>
                        <path d="M33.5454545,121 L21.4545455,121 C19.5459091,121 18,122.569167 18,124.5 C18,126.43375 19.5459091,128 21.4545455,128 L33.5454545,128 C35.4540909,128 37,126.43375 37,124.5 C37,122.569167 35.4540909,121 33.5454545,121 Z" id="Stroke-21" stroke="#7450C8" stroke-linecap="round" stroke-linejoin="round"></path>
                        <path d="M18,124 L18,106.712228 C18,105.206096 18.5815152,103.753542 19.6121212,102.687939 L23.1818182,99 L31.8181818,99 L35.3878788,102.687939 C36.4184848,103.753542 37,105.206096 37,106.712228 L37,124" id="Stroke-22" stroke="#7450C8" stroke-linecap="round" stroke-linejoin="round"></path>
                        <path d="M32,99 L23,99 L23,94.9166667 C23,93.30375 24.344,92 26,92 L29,92 C30.659,92 32,93.30375 32,94.9166667 L32,99 Z" id="Fill-23" fill="#DFE4EE"></path>
                        <path d="M32,99 L23,99 L23,94.9166667 C23,93.30375 24.344,92 26,92 L29,92 C30.659,92 32,93.30375 32,94.9166667 L32,99 Z" id="Stroke-24" stroke="#7450C8" stroke-linecap="round" stroke-linejoin="round"></path>
                        <path d="M76,124.5 C76,122.569167 74.4540909,121 72.5454545,121 L60.4545455,121 C58.5459091,121 57,122.569167 57,124.5 C57,126.43375 58.5459091,128 60.4545455,128 L72.5454545,128 C74.4540909,128 76,126.43375 76,124.5" id="Fill-25" fill="#DFE4EE"></path>
                        <path d="M76,124.5 C76,122.569167 74.4540909,121 72.5454545,121 L60.4545455,121 C58.5459091,121 57,122.569167 57,124.5 C57,126.43375 58.5459091,128 60.4545455,128 L72.5454545,128 C74.4540909,128 76,126.43375 76,124.5 Z" id="Stroke-26" stroke="#7450C8" stroke-linecap="round" stroke-linejoin="round"></path>
                        <path d="M57,124 L57,106.712228 C57,105.206096 57.5815152,103.753542 58.615,102.687939 L62.1818182,99 L70.8181818,99 L74.3878788,102.687939 C75.4184848,103.753542 76,105.206096 76,106.712228 L76,124" id="Stroke-27" stroke="#7450C8" stroke-linecap="round" stroke-linejoin="round"></path>
                        <path d="M71,99 L62,99 L62,94.9166667 C62,93.30375 63.341,92 65,92 L68,92 C69.656,92 71,93.30375 71,94.9166667 L71,99 Z" id="Fill-28" fill="#DFE4EE"></path>
                        <path d="M71,99 L62,99 L62,94.9166667 C62,93.30375 63.341,92 65,92 L68,92 C69.656,92 71,93.30375 71,94.9166667 L71,99 Z" id="Stroke-29" stroke="#7450C8" stroke-linecap="round" stroke-linejoin="round"></path>
                        <path d="M113,124.5 C113,122.569167 111.454091,121 109.545455,121 L97.4545455,121 C95.5487879,121 94,122.569167 94,124.5 C94,126.43375 95.5487879,128 97.4545455,128 L109.545455,128 C111.454091,128 113,126.43375 113,124.5" id="Fill-30" fill="#DFE4EE"></path>
                        <path d="M113,124.5 C113,122.569167 111.454091,121 109.545455,121 L97.4545455,121 C95.5487879,121 94,122.569167 94,124.5 C94,126.43375 95.5487879,128 97.4545455,128 L109.545455,128 C111.454091,128 113,126.43375 113,124.5 Z" id="Stroke-31" stroke="#7450C8" stroke-linecap="round" stroke-linejoin="round"></path>
                        <path d="M94,124 L94,106.712228 C94,105.206096 94.5815152,103.753542 95.615,102.687939 L99.1818182,99 L107.818182,99 L111.387879,102.687939 C112.418485,103.753542 113,105.206096 113,106.712228 L113,124" id="Stroke-32" stroke="#7450C8" stroke-linecap="round" stroke-linejoin="round"></path>
                        <path d="M108,99 L99,99 L99,94.9166667 C99,93.30375 100.344,92 102,92 L105,92 C106.656,92 108,93.30375 108,94.9166667 L108,99 Z" id="Fill-33" fill="#DFE4EE"></path>
                        <path d="M108,99 L99,99 L99,94.9166667 C99,93.30375 100.344,92 102,92 L105,92 C106.656,92 108,93.30375 108,94.9166667 L108,99 Z" id="Stroke-34" stroke="#7450C8" stroke-linecap="round" stroke-linejoin="round"></path>
                        <polygon id="Stroke-35" stroke="#7450C8" stroke-linecap="round" stroke-linejoin="round" points="94.3181818 61 44.6818182 61 11 61 11 128 44.6818182 128 94.3181818 128 128 128 128 61"></polygon>
                        <path d="M195,128 L120,128 L120,77.9444444 C120,76.3161667 121.333333,75 122.97619,75 L192.02381,75 C193.666667,75 195,76.3161667 195,77.9444444 L195,128 Z" id="Fill-36" fill="#FFFFFF"></path>
                        <path d="M195,128 L120,128 L120,77.9444444 C120,76.3161667 121.333333,75 122.97619,75 L192.02381,75 C193.666667,75 195,76.3161667 195,77.9444444 L195,128 Z" id="Stroke-37" stroke="#7450C8" stroke-linecap="round" stroke-linejoin="round"></path>
                        <path d="M0,128 L11,128 L11,29.9532164 C11,28.3230409 9.63111111,27 7.94444444,27 L3.05555556,27 C1.36888889,27 0,28.3230409 0,29.9532164 L0,128 Z" id="Fill-38" fill="#FFFFFF"></path>
                        <path d="M0,128 L11,128 L11,29.9532164 C11,28.3230409 9.63111111,27 7.94444444,27 L3.05555556,27 C1.36888889,27 0,28.3230409 0,29.9532164 L0,128 Z" id="Stroke-39" stroke="#7450C8" stroke-linecap="round" stroke-linejoin="round"></path>
                        <polygon id="Fill-40" fill="#DFE4EE" points="11 53 128 53 128 40 11 40"></polygon>
                        <polygon id="Stroke-41" stroke="#7450C8" stroke-linecap="round" stroke-linejoin="round" points="11 53 128 53 128 40 11 40"></polygon>
                        <polygon id="Fill-42" fill="#DFE4EE" points="131 128 184 128 184 87 131 87"></polygon>
                        <polygon id="Fill-43" fill="#FFFFFF" points="154 87 131 87 131 110"></polygon>
                        <polygon id="Stroke-44" stroke="#7450C8" stroke-linecap="round" stroke-linejoin="round" points="131 128 184 128 184 87 131 87"></polygon>
                        <polygon id="Stroke-45" stroke="#7450C8" stroke-linecap="round" stroke-linejoin="round" points="147 128 158 128 158 103 147 103"></polygon>
                        <polygon id="Fill-46" fill="#D6DAFF" points="158 128 169 128 169 103 158 103"></polygon>
                        <polygon id="Fill-47" fill="#DFE4EE" points="158 128 169 128 169 103 158 103"></polygon>
                        <polygon id="Stroke-48" stroke="#7450C8" stroke-linecap="round" stroke-linejoin="round" points="158 128 169 128 169 103 158 103"></polygon>
                        <path d="M179,32.4985068 C179,44.3750955 169.372778,54 157.5,54 C145.624236,54 136,44.3750955 136,32.4985068 C136,20.6219182 145.624236,11 157.5,11 C169.372778,11 179,20.6219182 179,32.4985068" id="Fill-49" fill="#FFFFFF"></path>
                        <path d="M179,32.4985068 C179,44.3750955 169.372778,54 157.5,54 C145.624236,54 136,44.3750955 136,32.4985068 C136,20.6219182 145.624236,11 157.5,11 C169.372778,11 179,20.6219182 179,32.4985068 Z" id="Stroke-50" stroke="#7450C8" stroke-linecap="round" stroke-linejoin="round"></path>
                        <path d="M157.465172,43.8778842 L154.880932,46.465172 C154.16478,47.178276 153.009795,47.178276 152.293644,46.465172 L144.534828,38.7094036 C143.821724,37.9932521 143.821724,36.8352199 144.534828,36.1221158 L147.122116,33.534828 C147.83522,32.821724 148.993252,32.821724 149.709404,33.534828 L157.465172,41.2905964 C158.178276,42.0067479 158.178276,43.1647801 157.465172,43.8778842" id="Fill-51" fill="#DFE4EE"></path>
                        <path d="M157.465172,43.8778842 L154.880932,46.465172 C154.16478,47.178276 153.009795,47.178276 152.293644,46.465172 L144.534828,38.7094036 C143.821724,37.9932521 143.821724,36.8352199 144.534828,36.1221158 L147.122116,33.534828 C147.83522,32.821724 148.993252,32.821724 149.709404,33.534828 L157.465172,41.2905964 C158.178276,42.0067479 158.178276,43.1647801 157.465172,43.8778842 Z" id="Stroke-52" stroke="#7450C8" stroke-linecap="round" stroke-linejoin="round"></path>
                        <path d="M172.465172,27.8780541 L169.877884,30.4652011 C169.16478,31.1782663 168.006748,31.1782663 167.293644,30.4652011 L159.534828,22.7068074 C158.821724,21.9906949 158.821724,20.8327257 159.534828,20.1196604 L162.122116,17.5325135 C162.83522,16.8224955 163.993252,16.8224955 164.709404,17.5325135 L172.465172,25.2909071 C173.178276,26.0070196 173.178276,27.1649888 172.465172,27.8780541" id="Fill-53" fill="#DFE4EE"></path>
                        <path d="M172.465172,27.8780541 L169.877884,30.4652011 C169.16478,31.1782663 168.006748,31.1782663 167.293644,30.4652011 L159.534828,22.7068074 C158.821724,21.9906949 158.821724,20.8327257 159.534828,20.1196604 L162.122116,17.5325135 C162.83522,16.8224955 163.993252,16.8224955 164.709404,17.5325135 L172.465172,25.2909071 C173.178276,26.0070196 173.178276,27.1649888 172.465172,27.8780541 Z" id="Stroke-54" stroke="#7450C8" stroke-linecap="round" stroke-linejoin="round"></path>
                        <polygon id="Fill-55" fill="#DFE4EE" points="154.999018 40 150 35 159.998036 25 165 29.9970536"></polygon>
                        <polygon id="Stroke-56" stroke="#7450C8" stroke-linecap="round" stroke-linejoin="round" points="154.999018 40 150 35 159.998036 25 165 29.9970536"></polygon>
                        <line x1="147" y1="103" x2="147" y2="87" id="Stroke-57" stroke="#7450C8" stroke-linecap="round" stroke-linejoin="round"></line>
                        <line x1="168" y1="103" x2="168" y2="87" id="Stroke-58" stroke="#7450C8" stroke-linecap="round" stroke-linejoin="round"></line>
                        <line x1="168" y1="115" x2="184" y2="115" id="Stroke-59" stroke="#7450C8" stroke-linecap="round" stroke-linejoin="round"></line>
                        <line x1="147" y1="115" x2="131" y2="115" id="Stroke-60" stroke="#7450C8" stroke-linecap="round" stroke-linejoin="round"></line>
                        <line x1="45" y1="61" x2="45" y2="128" id="Stroke-61" stroke="#7450C8" stroke-linecap="round" stroke-linejoin="round"></line>
                        <line x1="94" y1="61" x2="94" y2="128" id="Stroke-62" stroke="#7450C8" stroke-linecap="round" stroke-linejoin="round"></line>
                        <line x1="11" y1="76" x2="121" y2="76" id="Stroke-63" stroke="#7450C8" stroke-linecap="round" stroke-linejoin="round"></line>
                        <line x1="11" y1="112" x2="121" y2="112" id="Stroke-64" stroke="#7450C8" stroke-linecap="round" stroke-linejoin="round"></line>
                    </g>
                    <g id="Group-12" transform="translate(843.000000, 91.000000)">
                        <g id="phone-new-message-2" transform="translate(15.000000, 0.000000)">
                            <g id="phone-new-message">
                                <path d="M38.2144575,80.197765 C28.2727825,80.197765 20.2134575,79.24484 20.2134575,78.06984 C20.2134575,76.89484 28.2727825,75.94074 38.2144575,75.94074 C48.1561325,75.94074 56.2154575,76.89484 56.2154575,78.06984 C56.2154575,79.24484 48.1561325,80.197765 38.2144575,80.197765 Z" id="Fill-3" fill="#DFE4EE"></path>
                                <path d="M43.50043,69.0978925 C42.55103,70.8274925 40.37963,71.4608175 38.65003,70.5125925 L23.007255,61.9327425 C21.27648,60.9833425 20.64433,58.8119425 21.592555,57.0811675 L40.92718,21.8382175 C41.875405,20.1086175 44.04798,19.4764675 45.77758,20.4246925 L61.41918,29.0045425 C63.149955,29.9539425 63.78328,32.1253425 62.83388,33.8549425 L43.50043,69.0978925 Z" id="Fill-5" fill="#FFFFFF"></path>
                                <path d="M43.50043,69.0978925 C42.55103,70.8274925 40.37963,71.4608175 38.65003,70.5125925 L23.007255,61.9327425 C21.27648,60.9833425 20.64433,58.8119425 21.592555,57.0811675 L40.92718,21.8382175 C41.875405,20.1086175 44.04798,19.4764675 45.77758,20.4246925 L61.41918,29.0045425 C63.149955,29.9539425 63.78328,32.1253425 62.83388,33.8549425 L43.50043,69.0978925 Z" id="Stroke-7" stroke="#7450C8" stroke-linecap="round" stroke-linejoin="round"></path>
                                <polygon id="Fill-9" fill="#DFE4EE" points="45.21875 65.9653425 23.31205 53.9486175 39.20745 24.9719425 61.115325 36.9874925"></polygon>
                                <polygon id="Fill-11" fill="#FFFFFF" points="25.0612725 50.757435 60.2536975 36.51526 39.2082725 24.97206"></polygon>
                                <polygon id="Stroke-13" stroke="#7450C8" stroke-linecap="round" stroke-linejoin="round" points="45.21875 65.9653425 23.31205 53.9486175 39.20745 24.9719425 61.115325 36.9874925"></polygon>
                                <line x1="55.023185" y1="29.571245" x2="55.80691" y2="30.001295" id="Stroke-15" stroke="#7450C8" stroke-linecap="round" stroke-linejoin="round"></line>
                                <line x1="47.6680375" y1="25.5735425" x2="52.7076125" y2="28.4111675" id="Stroke-17" stroke="#7450C8" stroke-linecap="round" stroke-linejoin="round"></line>
                                <path d="M0.1378775,11.7127725 C0.1378775,10.3568225 1.2376775,9.2570225 2.5936275,9.2570225 L29.6057025,9.2570225 C30.9616525,9.2570225 32.0602775,10.3568225 32.0602775,11.7127725 L32.0602775,30.7442475 C32.0602775,32.1001975 30.9616525,33.1999975 29.6057025,33.1999975 L21.0105775,33.1999975 L21.0105775,35.9130725 C21.0105775,36.4876475 20.6651275,37.0046475 20.1352025,37.2243725 C19.6041025,37.4440975 18.9942775,37.3218975 18.5889025,36.9165225 L14.8712025,33.1999975 L2.5936275,33.1999975 C1.2376775,33.1999975 0.1378775,32.1001975 0.1378775,30.7442475 L0.1378775,11.7127725 Z" id="Fill-19" fill="#FFFFFF"></path>
                                <path d="M0.1378775,11.7127725 C0.1378775,10.3568225 1.2376775,9.2570225 2.5936275,9.2570225 L29.6057025,9.2570225 C30.9616525,9.2570225 32.0602775,10.3568225 32.0602775,11.7127725 L32.0602775,30.7442475 C32.0602775,32.1001975 30.9616525,33.1999975 29.6057025,33.1999975 L21.0105775,33.1999975 L21.0105775,35.9130725 C21.0105775,36.4876475 20.6651275,37.0046475 20.1352025,37.2243725 C19.6041025,37.4440975 18.9942775,37.3218975 18.5889025,36.9165225 L14.8712025,33.1999975 L2.5936275,33.1999975 C1.2376775,33.1999975 0.1378775,32.1001975 0.1378775,30.7442475 L0.1378775,11.7127725 Z" id="Stroke-21" stroke="#7450C8" stroke-linejoin="round"></path>
                                <path d="M36.3173025,9.2572575 C36.3173025,13.9584325 32.5056025,17.7701325 27.8044275,17.7701325 C23.1032525,17.7701325 19.2915525,13.9584325 19.2915525,9.2572575 C19.2915525,4.5560825 23.1032525,0.7443825 27.8044275,0.7443825 C32.5056025,0.7443825 36.3173025,4.5560825 36.3173025,9.2572575" id="Fill-23" fill="#FFFFFF"></path>
                                <path d="M36.3173025,9.2572575 C36.3173025,13.9584325 32.5056025,17.7701325 27.8044275,17.7701325 C23.1032525,17.7701325 19.2915525,13.9584325 19.2915525,9.2572575 C19.2915525,4.5560825 23.1032525,0.7443825 27.8044275,0.7443825 C32.5056025,0.7443825 36.3173025,4.5560825 36.3173025,9.2572575 Z" id="Stroke-25" stroke="#7450C8" stroke-linecap="round" stroke-linejoin="round"></path>
                                <line x1="27.80431" y1="4.29159" x2="27.80431" y2="8.548615" id="Stroke-27" stroke="#7450C8" stroke-linecap="round" stroke-linejoin="round"></line>
                                <path d="M27.80431,11.7402675 C27.020585,11.7402675 26.38491,12.3759425 26.38491,13.1596675 C26.38491,13.9422175 27.020585,14.5778925 27.80431,14.5778925 C28.588035,14.5778925 29.22371,13.9422175 29.22371,13.1596675 C29.22371,12.3759425 28.588035,11.7402675 27.80431,11.7402675 M27.80431,12.9152675 C27.939435,12.9152675 28.04871,13.0245425 28.04871,13.1596675 C28.04871,13.2936175 27.939435,13.4028925 27.80431,13.4028925 C27.67036,13.4028925 27.55991,13.2936175 27.55991,13.1596675 C27.55991,13.0245425 27.67036,12.9152675 27.80431,12.9152675" id="Fill-29" fill="#7450C8"></path>
                                <line x1="5.8126575" y1="17.77025" x2="19.2922575" y2="17.77025" id="Stroke-31" stroke="#7450C8" stroke-linecap="round" stroke-linejoin="round"></line>
                                <line x1="5.8126575" y1="22.0266875" x2="24.2578075" y2="22.0266875" id="Stroke-33" stroke="#7450C8" stroke-linecap="round" stroke-linejoin="round"></line>
                                <line x1="5.8126575" y1="26.2832425" x2="24.2578075" y2="26.2832425" id="Stroke-35" stroke="#7450C8" stroke-linecap="round" stroke-linejoin="round"></line>
                                <path d="M33.2667675,63.0955225 C33.2667675,63.4867975 32.9495175,63.8052225 32.5570675,63.8052225 C32.1657925,63.8052225 31.8473675,63.4867975 31.8473675,63.0955225 C31.8473675,62.7042475 32.1657925,62.3858225 32.5570675,62.3858225 C32.9495175,62.3858225 33.2667675,62.7042475 33.2667675,63.0955225" id="Fill-37" fill="#FFFFFF"></path>
                                <path d="M33.2667675,63.0955225 C33.2667675,63.4867975 32.9495175,63.8052225 32.5570675,63.8052225 C32.1657925,63.8052225 31.8473675,63.4867975 31.8473675,63.0955225 C31.8473675,62.7042475 32.1657925,62.3858225 32.5570675,62.3858225 C32.9495175,62.3858225 33.2667675,62.7042475 33.2667675,63.0955225 Z" id="Stroke-39" stroke="#7450C8" stroke-linejoin="round"></path>
                            </g>
                        </g>
                        <g id="Group-3" transform="translate(148.000000, 126.000000)">
                            <path d="M54,5.14462058 C54,2.30255872 51.6982739,0 48.8572398,0 L5.14276023,0 C2.30376121,0 0,2.30255872 0,5.14462058 L0,45.016957 C0,47.856983 2.30172609,50.1615775 5.14276023,50.1615775 L14.5775986,50.1615775 C15.7579709,50.1615775 16.7144795,51.1184322 16.7144795,52.2992315 L16.7144795,57.8632394 C16.7144795,58.7264445 17.2354715,59.5061792 18.0332404,59.8380245 C18.8330444,60.167834 19.7508857,59.9846065 20.3614231,59.3738483 L28.9455793,50.7865868 C29.3464988,50.3875581 29.8898771,50.1615775 30.4556418,50.1615775 L48.8572398,50.1615775 C51.6982739,50.1615775 54,47.856983 54,45.016957 L54,5.14462058 Z" id="Fill-3" fill="#FFFFFF"></path>
                            <path d="M54,5.14462058 C54,2.30255872 51.6982739,0 48.8572398,0 L5.14276023,0 C2.30376121,0 0,2.30255872 0,5.14462058 L0,45.016957 C0,47.856983 2.30172609,50.1615775 5.14276023,50.1615775 L14.5775986,50.1615775 C15.7579709,50.1615775 16.7144795,51.1184322 16.7144795,52.2992315 L16.7144795,57.8632394 C16.7144795,58.7264445 17.2354715,59.5061792 18.0332404,59.8380245 C18.8330444,60.167834 19.7508857,59.9846065 20.3614231,59.3738483 L28.9455793,50.7865868 C29.3464988,50.3875581 29.8898771,50.1615775 30.4556418,50.1615775 L48.8572398,50.1615775 C51.6982739,50.1615775 54,47.856983 54,45.016957 L54,5.14462058 Z" id="Stroke-5" stroke="#7450C8" stroke-linejoin="round"></path>
                            <path d="M44.9422783,38 L10.0577217,38 C8.92185934,38 8,37.0939149 8,35.9774886 L8,17.0225114 C8,15.9060851 8.92185934,15 10.0577217,15 L44.9422783,15 C46.0781407,15 47,15.9060851 47,17.0225114 L47,35.9774886 C47,37.0939149 46.0781407,38 44.9422783,38" id="Fill-92" fill="#FFFFFF"></path>
                            <path d="M44.6826499,15 L10.3153108,15 C9.80957892,15 9.36706349,15.2040377 9,15.4987587 L25.2955798,25.3832498 C26.6516755,26.2055834 28.3462853,26.2055834 29.702381,25.3832498 L46,15.4987587 C45.6329365,15.2019767 45.1883818,15 44.6826499,15" id="Fill-93" fill="#FFFFFF"></path>
                            <path d="M44.6826499,15 L10.3153108,15 C9.80957892,15 9.36706349,15.2040377 9,15.4987587 L25.2955798,25.3832498 C26.6516755,26.2055834 28.3462853,26.2055834 29.702381,25.3832498 L46,15.4987587 C45.6329365,15.2019767 45.1883818,15 44.6826499,15 Z" id="Stroke-94" stroke="#7450C8" stroke-linecap="round" stroke-linejoin="round"></path>
                            <path d="M44.9422783,38 L10.0577217,38 C8.92185934,38 8,37.0939149 8,35.9774886 L8,17.0225114 C8,15.9060851 8.92185934,15 10.0577217,15 L44.9422783,15 C46.0781407,15 47,15.9060851 47,17.0225114 L47,35.9774886 C47,37.0939149 46.0781407,38 44.9422783,38 Z" id="Stroke-95" stroke="#7450C8" stroke-linecap="round" stroke-linejoin="round"></path>
                        </g>
                        <g id="Button" transform="translate(108.000000, 37.000000)">
                            <g id="Base">
                                <g>
                                    <use fill="black" fill-opacity="1" filter="url(#filter-2)" xlink:href="#path-1"></use>
                                    <use fill="#FFFFFF" fill-rule="evenodd" xlink:href="#path-1"></use>
                                </g>
                            </g>
                            <text id="↳-✏️-Value" font-family="Roboto-Bold, Roboto" font-size="14" font-weight="bold" line-spacing="26" fill="#7450C8">
                                <tspan x="67.809082" y="20">Apps</tspan>
                            </text>
                        </g>
                        <g id="Button" transform="translate(97.000000, 240.000000)">
                            <g id="Base">
                                <g>
                                    <use fill="black" fill-opacity="1" filter="url(#filter-4)" xlink:href="#path-3"></use>
                                    <use fill="#FFFFFF" fill-rule="evenodd" xlink:href="#path-3"></use>
                                </g>
                            </g>
                            <text id="↳-✏️-Value" font-family="Roboto-Bold, Roboto" font-size="14" font-weight="bold" line-spacing="26" fill="#7450C8">
                                <tspan x="65.2216797" y="20">CRMs</tspan>
                            </text>
                        </g>
                        <g id="Button" transform="translate(24.000000, 320.000000)">
                            <g id="Base">
                                <g>
                                    <use fill="black" fill-opacity="1" filter="url(#filter-6)" xlink:href="#path-5"></use>
                                    <use fill="#FFFFFF" fill-rule="evenodd" xlink:href="#path-5"></use>
                                </g>
                            </g>
                            <text id="↳-✏️-Value" font-family="Roboto-Bold, Roboto" font-size="14" font-weight="bold" line-spacing="26" fill="#7450C8">
                                <tspan x="44.7617188" y="20">Many others</tspan>
                            </text>
                        </g>
                        <g id="Button" transform="translate(0.000000, 146.000000)">
                            <g id="Base">
                                <g>
                                    <use fill="black" fill-opacity="1" filter="url(#filter-8)" xlink:href="#path-7"></use>
                                    <use fill="#FFFFFF" fill-rule="evenodd" xlink:href="#path-7"></use>
                                </g>
                            </g>
                            <text id="↳-✏️-Value" font-family="Roboto-Bold, Roboto" font-size="14" font-weight="bold" line-spacing="26" fill="#7450C8">
                                <tspan x="28.2246094" y="20">Newsletters</tspan>
                            </text>
                        </g>
                        <g id="Button" transform="translate(234.000000, 106.000000)">
                            <g id="Base">
                                <g>
                                    <use fill="black" fill-opacity="1" filter="url(#filter-10)" xlink:href="#path-9"></use>
                                    <use fill="#FFFFFF" fill-rule="evenodd" xlink:href="#path-9"></use>
                                </g>
                            </g>
                            <text id="↳-✏️-Value" font-family="Roboto-Bold, Roboto" font-size="14" font-weight="bold" line-spacing="26" fill="#7450C8">
                                <tspan x="43.0869141" y="20">HR</tspan>
                            </text>
                        </g>
                        <g id="Group" transform="translate(15.000000, 246.000000)">
                            <path d="M55.4617691,51 L3.53823088,51 C1.5922039,51 0,49.3935927 0,47.4302059 L0,12 L59,12 L59,47.4302059 C59,49.3935927 57.4077961,51 55.4617691,51" id="Fill-27" fill="#FFFFFF"></path>
                            <path d="M55.4617691,51 L3.53823088,51 C1.5922039,51 0,49.3935927 0,47.4302059 L0,12 L59,12 L59,47.4302059 C59,49.3935927 57.4077961,51 55.4617691,51 Z" id="Stroke-29" stroke="#7450C8" stroke-linecap="round" stroke-linejoin="round"></path>
                            <path d="M59,12 L0,12 L0,3.47826087 C0,1.56521739 1.5922039,0 3.53823088,0 L55.4617691,0 C57.4077961,0 59,1.56521739 59,3.47826087 L59,12 Z" id="Fill-31" fill="#FFFFFF"></path>
                            <path d="M59,12 L0,12 L0,3.47826087 C0,1.56521739 1.5922039,0 3.53823088,0 L55.4617691,0 C57.4077961,0 59,1.56521739 59,3.47826087 L59,12 Z" id="Stroke-33" stroke="#7450C8" stroke-linecap="round" stroke-linejoin="round"></path>
                            <path d="M8,6 C8,7.10434783 7.10434783,8 6,8 C4.89565217,8 4,7.10434783 4,6 C4,4.89565217 4.89565217,4 6,4 C7.10434783,4 8,4.89565217 8,6" id="Fill-35" fill="#DFE4EE"></path>
                            <path d="M8,6 C8,7.10434783 7.10434783,8 6,8 C4.89565217,8 4,7.10434783 4,6 C4,4.89565217 4.89565217,4 6,4 C7.10434783,4 8,4.89565217 8,6 Z" id="Stroke-37" stroke="#7450C8" stroke-linecap="round" stroke-linejoin="round"></path>
                            <path d="M16,6 C16,7.10434783 15.1043478,8 14,8 C12.8956522,8 12,7.10434783 12,6 C12,4.89565217 12.8956522,4 14,4 C15.1043478,4 16,4.89565217 16,6" id="Fill-39" fill="#DFE4EE"></path>
                            <path d="M16,6 C16,7.10434783 15.1043478,8 14,8 C12.8956522,8 12,7.10434783 12,6 C12,4.89565217 12.8956522,4 14,4 C15.1043478,4 16,4.89565217 16,6 Z" id="Stroke-41" stroke="#7450C8" stroke-linecap="round" stroke-linejoin="round"></path>
                            <path d="M24,6 C24,7.10434783 23.1043478,8 22,8 C20.8956522,8 20,7.10434783 20,6 C20,4.89565217 20.8956522,4 22,4 C23.1043478,4 24,4.89565217 24,6" id="Fill-43" fill="#DFE4EE"></path>
                            <path d="M24,6 C24,7.10434783 23.1043478,8 22,8 C20.8956522,8 20,7.10434783 20,6 C20,4.89565217 20.8956522,4 22,4 C23.1043478,4 24,4.89565217 24,6 Z" id="Stroke-45" stroke="#7450C8" stroke-linecap="round" stroke-linejoin="round"></path>
                            <path d="M24.5507246,33 L19.4492754,33 C18.6492754,33 18,32.3507246 18,31.5507246 L18,26.4492754 C18,25.6492754 18.6492754,25 19.4492754,25 L24.5507246,25 C25.3507246,25 26,25.6492754 26,26.4492754 L26,31.5507246 C26,32.3507246 25.3507246,33 24.5507246,33" id="Fill-47" fill="#DFE4EE"></path>
                            <path d="M24.5507246,33 L19.4492754,33 C18.6492754,33 18,32.3507246 18,31.5507246 L18,26.4492754 C18,25.6492754 18.6492754,25 19.4492754,25 L24.5507246,25 C25.3507246,25 26,25.6492754 26,26.4492754 L26,31.5507246 C26,32.3507246 25.3507246,33 24.5507246,33 Z" id="Stroke-49" stroke="#7450C8" stroke-linecap="round" stroke-linejoin="round"></path>
                            <path d="M38.5507246,33 L33.4492754,33 C32.6492754,33 32,32.3507246 32,31.5507246 L32,26.4492754 C32,25.6492754 32.6492754,25 33.4492754,25 L38.5507246,25 C39.3507246,25 40,25.6492754 40,26.4492754 L40,31.5507246 C40,32.3507246 39.3507246,33 38.5507246,33" id="Fill-51" fill="#DFE4EE"></path>
                            <path d="M38.5507246,33 L33.4492754,33 C32.6492754,33 32,32.3507246 32,31.5507246 L32,26.4492754 C32,25.6492754 32.6492754,25 33.4492754,25 L38.5507246,25 C39.3507246,25 40,25.6492754 40,26.4492754 L40,31.5507246 C40,32.3507246 39.3507246,33 38.5507246,33 Z" id="Stroke-53" stroke="#7450C8" stroke-linecap="round" stroke-linejoin="round"></path>
                            <path d="M51.5507246,33 L46.4492754,33 C45.6492754,33 45,32.3507246 45,31.5507246 L45,26.4492754 C45,25.6492754 45.6492754,25 46.4492754,25 L51.5507246,25 C52.3521739,25 53,25.6492754 53,26.4492754 L53,31.5507246 C53,32.3507246 52.3521739,33 51.5507246,33" id="Fill-55" fill="#DFE4EE"></path>
                            <path d="M51.5507246,33 L46.4492754,33 C45.6492754,33 45,32.3507246 45,31.5507246 L45,26.4492754 C45,25.6492754 45.6492754,25 46.4492754,25 L51.5507246,25 C52.3521739,25 53,25.6492754 53,26.4492754 L53,31.5507246 C53,32.3507246 52.3521739,33 51.5507246,33 Z" id="Stroke-57" stroke="#7450C8" stroke-linecap="round" stroke-linejoin="round"></path>
                            <path d="M24.5507246,45 L19.4492754,45 C18.6492754,45 18,44.3507246 18,43.5507246 L18,38.4492754 C18,37.6492754 18.6492754,37 19.4492754,37 L24.5507246,37 C25.3507246,37 26,37.6492754 26,38.4492754 L26,43.5507246 C26,44.3507246 25.3507246,45 24.5507246,45" id="Fill-59" fill="#DFE4EE"></path>
                            <path d="M24.5507246,45 L19.4492754,45 C18.6492754,45 18,44.3507246 18,43.5507246 L18,38.4492754 C18,37.6492754 18.6492754,37 19.4492754,37 L24.5507246,37 C25.3507246,37 26,37.6492754 26,38.4492754 L26,43.5507246 C26,44.3507246 25.3507246,45 24.5507246,45 Z" id="Stroke-61" stroke="#7450C8" stroke-linecap="round" stroke-linejoin="round"></path>
                            <path d="M38.5507246,45 L33.4492754,45 C32.6492754,45 32,44.3507246 32,43.5507246 L32,38.4492754 C32,37.6492754 32.6492754,37 33.4492754,37 L38.5507246,37 C39.3507246,37 40,37.6492754 40,38.4492754 L40,43.5507246 C40,44.3507246 39.3507246,45 38.5507246,45" id="Fill-63" fill="#DFE4EE"></path>
                            <path d="M38.5507246,45 L33.4492754,45 C32.6492754,45 32,44.3507246 32,43.5507246 L32,38.4492754 C32,37.6492754 32.6492754,37 33.4492754,37 L38.5507246,37 C39.3507246,37 40,37.6492754 40,38.4492754 L40,43.5507246 C40,44.3507246 39.3507246,45 38.5507246,45 Z" id="Stroke-65" stroke="#7450C8" stroke-linecap="round" stroke-linejoin="round"></path>
                            <path d="M51.5507246,45 L46.4492754,45 C45.6492754,45 45,44.3507246 45,43.5507246 L45,38.4492754 C45,37.6492754 45.6492754,37 46.4492754,37 L51.5507246,37 C52.3521739,37 53,37.6492754 53,38.4492754 L53,43.5507246 C53,44.3507246 52.3521739,45 51.5507246,45" id="Fill-67" fill="#DFE4EE"></path>
                            <path d="M51.5507246,45 L46.4492754,45 C45.6492754,45 45,44.3507246 45,43.5507246 L45,38.4492754 C45,37.6492754 45.6492754,37 46.4492754,37 L51.5507246,37 C52.3521739,37 53,37.6492754 53,38.4492754 L53,43.5507246 C53,44.3507246 52.3521739,45 51.5507246,45 Z" id="Stroke-69" stroke="#7450C8" stroke-linecap="round" stroke-linejoin="round"></path>
                            <path d="M12.5507246,20 L7.44927536,20 C6.64927536,20 6,19.3507246 6,18.5507246 L6,17.4492754 C6,16.6492754 6.64927536,16 7.44927536,16 L12.5507246,16 C13.3507246,16 14,16.6492754 14,17.4492754 L14,18.5507246 C14,19.3507246 13.3507246,20 12.5507246,20" id="Fill-71" fill="#DFE4EE"></path>
                            <path d="M12.5507246,20 L7.44927536,20 C6.64927536,20 6,19.3507246 6,18.5507246 L6,17.4492754 C6,16.6492754 6.64927536,16 7.44927536,16 L12.5507246,16 C13.3507246,16 14,16.6492754 14,17.4492754 L14,18.5507246 C14,19.3507246 13.3507246,20 12.5507246,20 Z" id="Stroke-73" stroke="#7450C8" stroke-linecap="round" stroke-linejoin="round"></path>
                            <path d="M51.5080989,20 L19.4919011,20 C18.6683717,20 18,19.3507246 18,18.5507246 L18,17.4492754 C18,16.6492754 18.6683717,16 19.4919011,16 L51.5080989,16 C52.3331202,16 53,16.6492754 53,17.4492754 L53,18.5507246 C53,19.3507246 52.3331202,20 51.5080989,20" id="Fill-75" fill="#DFE4EE"></path>
                            <path d="M51.5080989,20 L19.4919011,20 C18.6683717,20 18,19.3507246 18,18.5507246 L18,17.4492754 C18,16.6492754 18.6683717,16 19.4919011,16 L51.5080989,16 C52.3331202,16 53,16.6492754 53,17.4492754 L53,18.5507246 C53,19.3507246 52.3331202,20 51.5080989,20 Z" id="Stroke-77" stroke="#7450C8" stroke-linejoin="round"></path>
                            <line x1="6" y1="25" x2="14" y2="25" id="Stroke-79" stroke="#7450C8" stroke-linecap="round" stroke-linejoin="round"></line>
                            <line x1="6" y1="29" x2="14" y2="29" id="Stroke-81" stroke="#7450C8" stroke-linecap="round" stroke-linejoin="round"></line>
                            <line x1="6" y1="33" x2="14" y2="33" id="Stroke-83" stroke="#7450C8" stroke-linecap="round" stroke-linejoin="round"></line>
                            <line x1="6" y1="37" x2="14" y2="37" id="Stroke-85" stroke="#7450C8" stroke-linecap="round" stroke-linejoin="round"></line>
                            <line x1="6" y1="41" x2="14" y2="41" id="Stroke-87" stroke="#7450C8" stroke-linecap="round" stroke-linejoin="round"></line>
                            <line x1="6" y1="45" x2="11" y2="45" id="Stroke-89" stroke="#7450C8" stroke-linecap="round" stroke-linejoin="round"></line>
                        </g>
                    </g>
                    <g id="Button" transform="translate(459.000000, 0.000000)" fill="#7450C8" font-family="Roboto-Bold, Roboto" font-size="14" font-weight="bold" line-spacing="26">
                        <text id="↳-✏️-Value">
                            <tspan x="31.6171875" y="13">YOUR BUSINESS</tspan>
                        </text>
                    </g>
                    <g id="Button" transform="translate(891.000000, 0.000000)" fill="#7450C8" font-family="Roboto-Bold, Roboto" font-size="14" font-weight="bold" line-spacing="26">
                        <text id="↳-✏️-Value">
                            <tspan x="33.1074219" y="13">DATA STORAGE</tspan>
                        </text>
                    </g>
                    <g id="Button" transform="translate(76.000000, 0.000000)" fill="#7450C8" font-family="Roboto-Bold, Roboto" font-size="14" font-weight="bold" line-spacing="26">
                        <text id="↳-✏️-Value">
                            <tspan x="18.5537109" y="13">SENDING REQUESTS</tspan>
                        </text>
                    </g>
                    <g id="Button" transform="translate(105.000000, 146.062990)">
                        <g id="Base">
                            <g>
                                <use fill="black" fill-opacity="1" filter="url(#filter-12)" xlink:href="#path-11"></use>
                                <use fill="#FFFFFF" fill-rule="evenodd" xlink:href="#path-11"></use>
                            </g>
                        </g>
                        <text id="↳-✏️-Value" font-family="Roboto-Bold, Roboto" font-size="14" font-weight="bold" line-spacing="26" fill="#7450C8">
                            <tspan x="40.4584961" y="20">Data Subjects</tspan>
                        </text>
                    </g>
                    <g id="Button" transform="translate(105.000000, 311.062990)">
                        <g id="Base">
                            <g>
                                <use fill="black" fill-opacity="1" filter="url(#filter-14)" xlink:href="#path-13"></use>
                                <use fill="#FFFFFF" fill-rule="evenodd" xlink:href="#path-13"></use>
                            </g>
                        </g>
                        <text id="↳-✏️-Value" font-family="Roboto-Bold, Roboto" font-size="14" font-weight="bold" line-spacing="26" fill="#7450C8">
                            <tspan x="32.8535156" y="20">Data Controllers</tspan>
                        </text>
                    </g>
                    <g id="Illustration" transform="translate(0.000000, 271.062990)">
                        <g id="stamp-document" transform="translate(0.000000, 5.000000)" fill="#F4F6FC">
                            <path d="M115,55.2212389 C115,24.7239292 90.375125,0 60,0 C29.624875,0 5,24.7239292 5,55.2212389 C5,63.3470442 6.76275,71.0545487 9.9005,78 L110.0995,78 C113.23725,71.0545487 115,63.3470442 115,55.2212389" id="Fill-1"></path>
                        </g>
                        <g id="programmer-male">
                            <path d="M108,61.4336283 C108,35.2372212 86.7330625,14 60.5,14 C34.2669375,14 13,35.2372212 13,61.4336283 C13,68.4123009 14.522375,75.0328496 17.23225,81 L103.76775,81 C106.478812,75.0328496 108,68.4123009 108,61.4336283" id="Fill-1" fill="#F0F2FF"></path>
                            <line x1="13" y1="82" x2="106" y2="82" id="Stroke-3" stroke="#7450C8" stroke-linecap="round" stroke-linejoin="round"></line>
                            <line x1="8" y1="82" x2="11" y2="82" id="Stroke-5" stroke="#7450C8" stroke-linecap="round" stroke-linejoin="round"></line>
                            <line x1="108" y1="82" x2="111" y2="82" id="Stroke-7" stroke="#7450C8" stroke-linecap="round" stroke-linejoin="round"></line>
                            <mask id="mask-16" fill="white">
                                <use xlink:href="#path-15"></use>
                            </mask>
                            <g id="Clip-10"></g>
                            <polygon id="Fill-9" fill="#FFFFFF" mask="url(#mask-16)" points="77 78 98 78 98 38 77 38"></polygon>
                            <polygon id="Stroke-11" stroke="#7450C8" stroke-linecap="round" stroke-linejoin="round" mask="url(#mask-16)" points="77 78 98 78 98 38 77 38"></polygon>
                            <polygon id="Fill-12" fill="#FFFFFF" mask="url(#mask-16)" points="77 37 98 37 98 35 77 35"></polygon>
                            <polygon id="Stroke-13" stroke="#7450C8" stroke-linecap="round" stroke-linejoin="round" mask="url(#mask-16)" points="77 37 98 37 98 35 77 35"></polygon>
                            <path d="M75,82 L77,82 L77,35.2 C77,34.5376 76.552,34 76,34 C75.447,34 75,34.5376 75,35.2 L75,82 Z" id="Fill-14" fill="#FFFFFF" mask="url(#mask-16)"></path>
                            <path d="M75,82 L77,82 L77,35.2 C77,34.5376 76.552,34 76,34 C75.447,34 75,34.5376 75,35.2 L75,82 Z" id="Stroke-15" stroke="#7450C8" stroke-linecap="round" stroke-linejoin="round" mask="url(#mask-16)"></path>
                            <path d="M99,82 L101,82 L101,35.2 C101,34.5376 100.552,34 100,34 C99.447,34 99,34.5376 99,35.2 L99,82 Z" id="Fill-16" fill="#FFFFFF" mask="url(#mask-16)"></path>
                            <path d="M99,82 L101,82 L101,35.2 C101,34.5376 100.552,34 100,34 C99.447,34 99,34.5376 99,35.2 L99,82 Z" id="Stroke-17" stroke="#7450C8" stroke-linecap="round" stroke-linejoin="round" mask="url(#mask-16)"></path>
                            <polygon id="Fill-18" fill="#FFFFFF" mask="url(#mask-16)" points="52 78 73 78 73 38 52 38"></polygon>
                            <polygon id="Stroke-19" stroke="#7450C8" stroke-linecap="round" stroke-linejoin="round" mask="url(#mask-16)" points="52 78 73 78 73 38 52 38"></polygon>
                            <path d="M70,44 L54,44 L54,41.3333333 C54,40.5973333 54.5297778,40 55.1851852,40 L68.8148148,40 C69.469037,40 70,40.5973333 70,41.3333333 L70,44 Z" id="Fill-20" fill="#FFFFFF" mask="url(#mask-16)"></path>
                            <path d="M70,44 L54,44 L54,41.3333333 C54,40.5973333 54.5297778,40 55.1851852,40 L68.8148148,40 C69.469037,40 70,40.5973333 70,41.3333333 L70,44 Z" id="Stroke-21" stroke="#7450C8" stroke-linecap="round" stroke-linejoin="round" mask="url(#mask-16)"></path>
                            <path d="M63.6666667,40 L60,44 L71,44 L71,41.3333333 C71,40.5973333 70.4524444,40 69.7777778,40 L63.6666667,40 Z" id="Fill-22" fill="#DFE4EE" mask="url(#mask-16)"></path>
                            <path d="M63.6666667,40 L60,44 L71,44 L71,41.3333333 C71,40.5973333 70.4524444,40 69.7777778,40 L63.6666667,40 Z" id="Stroke-23" stroke="#7450C8" stroke-linecap="round" stroke-linejoin="round" mask="url(#mask-16)"></path>
                            <path d="M70,63 L54,63 L54,60.3333333 C54,59.5973333 54.5297778,59 55.1851852,59 L68.8148148,59 C69.469037,59 70,59.5973333 70,60.3333333 L70,63 Z" id="Fill-24" fill="#FFFFFF" mask="url(#mask-16)"></path>
                            <path d="M70,63 L54,63 L54,60.3333333 C54,59.5973333 54.5297778,59 55.1851852,59 L68.8148148,59 C69.469037,59 70,59.5973333 70,60.3333333 L70,63 Z" id="Stroke-25" stroke="#7450C8" stroke-linecap="round" stroke-linejoin="round" mask="url(#mask-16)"></path>
                            <path d="M63.6666667,59 L60,63 L71,63 L71,60.3333333 C71,59.5973333 70.4524444,59 69.7777778,59 L63.6666667,59 Z" id="Fill-26" fill="#DFE4EE" mask="url(#mask-16)"></path>
                            <path d="M63.6666667,59 L60,63 L71,63 L71,60.3333333 C71,59.5973333 70.4524444,59 69.7777778,59 L63.6666667,59 Z" id="Stroke-27" stroke="#7450C8" stroke-linecap="round" stroke-linejoin="round" mask="url(#mask-16)"></path>
                            <path d="M70,45.6666667 C70,46.4026667 69.469037,47 68.8148148,47 L55.1851852,47 C54.5297778,47 54,46.4026667 54,45.6666667 L54,43 L70,43 L70,45.6666667 Z" id="Fill-28" fill="#FFFFFF" mask="url(#mask-16)"></path>
                            <path d="M70,45.6666667 C70,46.4026667 69.469037,47 68.8148148,47 L55.1851852,47 C54.5297778,47 54,46.4026667 54,45.6666667 L54,43 L70,43 L70,45.6666667 Z" id="Stroke-29" stroke="#7450C8" stroke-linecap="round" stroke-linejoin="round" mask="url(#mask-16)"></path>
                            <path d="M63.6666667,43 L60,47 L69.7777778,47 C70.4524444,47 71,46.4026667 71,45.6666667 L71,43 L63.6666667,43 Z" id="Fill-30" fill="#DFE4EE" mask="url(#mask-16)"></path>
                            <path d="M63.6666667,43 L60,47 L69.7777778,47 C70.4524444,47 71,46.4026667 71,45.6666667 L71,43 L63.6666667,43 Z" id="Stroke-31" stroke="#7450C8" stroke-linecap="round" stroke-linejoin="round" mask="url(#mask-16)"></path>
                            <path d="M96,44 L80,44 L80,41.3333333 C80,40.5973333 80.5297778,40 81.1851852,40 L94.8148148,40 C95.469037,40 96,40.5973333 96,41.3333333 L96,44 Z" id="Fill-32" fill="#FFFFFF" mask="url(#mask-16)"></path>
                            <path d="M96,44 L80,44 L80,41.3333333 C80,40.5973333 80.5297778,40 81.1851852,40 L94.8148148,40 C95.469037,40 96,40.5973333 96,41.3333333 L96,44 Z" id="Stroke-33" stroke="#7450C8" stroke-linecap="round" stroke-linejoin="round" mask="url(#mask-16)"></path>
                            <path d="M88.6666667,40 L85,44 L96,44 L96,41.3333333 C96,40.5973333 95.4524444,40 94.7777778,40 L88.6666667,40 Z" id="Fill-34" fill="#DFE4EE" mask="url(#mask-16)"></path>
                            <path d="M88.6666667,40 L85,44 L96,44 L96,41.3333333 C96,40.5973333 95.4524444,40 94.7777778,40 L88.6666667,40 Z" id="Stroke-35" stroke="#7450C8" stroke-linecap="round" stroke-linejoin="round" mask="url(#mask-16)"></path>
                            <path d="M96,45.6666667 C96,46.4026667 95.469037,47 94.8148148,47 L81.1851852,47 C80.5297778,47 80,46.4026667 80,45.6666667 L80,43 L96,43 L96,45.6666667 Z" id="Fill-36" fill="#FFFFFF" mask="url(#mask-16)"></path>
                            <path d="M96,45.6666667 C96,46.4026667 95.469037,47 94.8148148,47 L81.1851852,47 C80.5297778,47 80,46.4026667 80,45.6666667 L80,43 L96,43 L96,45.6666667 Z" id="Stroke-37" stroke="#7450C8" stroke-linecap="round" stroke-linejoin="round" mask="url(#mask-16)"></path>
                            <path d="M88.6666667,43 L85,47 L94.7777778,47 C95.4524444,47 96,46.4026667 96,45.6666667 L96,43 L88.6666667,43 Z" id="Fill-38" fill="#DFE4EE" mask="url(#mask-16)"></path>
                            <path d="M88.6666667,43 L85,47 L94.7777778,47 C95.4524444,47 96,46.4026667 96,45.6666667 L96,43 L88.6666667,43 Z" id="Stroke-39" stroke="#7450C8" stroke-linecap="round" stroke-linejoin="round" mask="url(#mask-16)"></path>
                            <path d="M96,53 L80,53 L80,50.3333333 C80,49.5973333 80.5297778,49 81.1851852,49 L94.8148148,49 C95.469037,49 96,49.5973333 96,50.3333333 L96,53 Z" id="Fill-40" fill="#FFFFFF" mask="url(#mask-16)"></path>
                            <path d="M96,53 L80,53 L80,50.3333333 C80,49.5973333 80.5297778,49 81.1851852,49 L94.8148148,49 C95.469037,49 96,49.5973333 96,50.3333333 L96,53 Z" id="Stroke-41" stroke="#7450C8" stroke-linecap="round" stroke-linejoin="round" mask="url(#mask-16)"></path>
                            <path d="M88.6666667,49 L85,53 L96,53 L96,50.3333333 C96,49.5973333 95.4524444,49 94.7777778,49 L88.6666667,49 Z" id="Fill-42" fill="#DFE4EE" mask="url(#mask-16)"></path>
                            <path d="M88.6666667,49 L85,53 L96,53 L96,50.3333333 C96,49.5973333 95.4524444,49 94.7777778,49 L88.6666667,49 Z" id="Stroke-43" stroke="#7450C8" stroke-linecap="round" stroke-linejoin="round" mask="url(#mask-16)"></path>
                            <path d="M96,55.6666667 C96,56.4026667 95.469037,57 94.8148148,57 L81.1851852,57 C80.5297778,57 80,56.4026667 80,55.6666667 L80,53 L96,53 L96,55.6666667 Z" id="Fill-44" fill="#FFFFFF" mask="url(#mask-16)"></path>
                            <path d="M96,55.6666667 C96,56.4026667 95.469037,57 94.8148148,57 L81.1851852,57 C80.5297778,57 80,56.4026667 80,55.6666667 L80,53 L96,53 L96,55.6666667 Z" id="Stroke-45" stroke="#7450C8" stroke-linecap="round" stroke-linejoin="round" mask="url(#mask-16)"></path>
                            <path d="M88.6666667,53 L85,57 L94.7777778,57 C95.4524444,57 96,56.4026667 96,55.6666667 L96,53 L88.6666667,53 Z" id="Fill-46" fill="#DFE4EE" mask="url(#mask-16)"></path>
                            <path d="M88.6666667,53 L85,57 L94.7777778,57 C95.4524444,57 96,56.4026667 96,55.6666667 L96,53 L88.6666667,53 Z" id="Stroke-47" stroke="#7450C8" stroke-linecap="round" stroke-linejoin="round" mask="url(#mask-16)"></path>
                            <path d="M70,72 L54,72 L54,69.3333333 C54,68.5973333 54.5297778,68 55.1851852,68 L68.8148148,68 C69.469037,68 70,68.5973333 70,69.3333333 L70,72 Z" id="Fill-48" fill="#FFFFFF" mask="url(#mask-16)"></path>
                            <path d="M70,72 L54,72 L54,69.3333333 C54,68.5973333 54.5297778,68 55.1851852,68 L68.8148148,68 C69.469037,68 70,68.5973333 70,69.3333333 L70,72 Z" id="Stroke-49" stroke="#7450C8" stroke-linecap="round" stroke-linejoin="round" mask="url(#mask-16)"></path>
                            <path d="M63.6666667,68 L60,72 L71,72 L71,69.3333333 C71,68.5973333 70.4524444,68 69.7777778,68 L63.6666667,68 Z" id="Fill-50" fill="#DFE4EE" mask="url(#mask-16)"></path>
                            <path d="M63.6666667,68 L60,72 L71,72 L71,69.3333333 C71,68.5973333 70.4524444,68 69.7777778,68 L63.6666667,68 Z" id="Stroke-51" stroke="#7450C8" stroke-linecap="round" stroke-linejoin="round" mask="url(#mask-16)"></path>
                            <path d="M70,74.6666667 C70,75.4026667 69.469037,76 68.8148148,76 L55.1851852,76 C54.5297778,76 54,75.4026667 54,74.6666667 L54,72 L70,72 L70,74.6666667 Z" id="Fill-52" fill="#FFFFFF" mask="url(#mask-16)"></path>
                            <path d="M70,74.6666667 C70,75.4026667 69.469037,76 68.8148148,76 L55.1851852,76 C54.5297778,76 54,75.4026667 54,74.6666667 L54,72 L70,72 L70,74.6666667 Z" id="Stroke-53" stroke="#7450C8" stroke-linecap="round" stroke-linejoin="round" mask="url(#mask-16)"></path>
                            <path d="M63.6666667,72 L60,76 L69.7777778,76 C70.4524444,76 71,75.4026667 71,74.6666667 L71,72 L63.6666667,72 Z" id="Fill-54" fill="#DFE4EE" mask="url(#mask-16)"></path>
                            <path d="M63.6666667,72 L60,76 L69.7777778,76 C70.4524444,76 71,75.4026667 71,74.6666667 L71,72 L63.6666667,72 Z" id="Stroke-55" stroke="#7450C8" stroke-linecap="round" stroke-linejoin="round" mask="url(#mask-16)"></path>
                            <path d="M70,53 L54,53 L54,50.3333333 C54,49.5973333 54.5297778,49 55.1851852,49 L68.8148148,49 C69.469037,49 70,49.5973333 70,50.3333333 L70,53 Z" id="Fill-56" fill="#FFFFFF" mask="url(#mask-16)"></path>
                            <path d="M70,53 L54,53 L54,50.3333333 C54,49.5973333 54.5297778,49 55.1851852,49 L68.8148148,49 C69.469037,49 70,49.5973333 70,50.3333333 L70,53 Z" id="Stroke-57" stroke="#7450C8" stroke-linecap="round" stroke-linejoin="round" mask="url(#mask-16)"></path>
                            <path d="M63.6666667,49 L60,53 L71,53 L71,50.3333333 C71,49.5973333 70.4524444,49 69.7777778,49 L63.6666667,49 Z" id="Fill-58" fill="#DFE4EE" mask="url(#mask-16)"></path>
                            <path d="M63.6666667,49 L60,53 L71,53 L71,50.3333333 C71,49.5973333 70.4524444,49 69.7777778,49 L63.6666667,49 Z" id="Stroke-59" stroke="#7450C8" stroke-linecap="round" stroke-linejoin="round" mask="url(#mask-16)"></path>
                            <path d="M70,55.6666667 C70,56.4026667 69.469037,57 68.8148148,57 L55.1851852,57 C54.5297778,57 54,56.4026667 54,55.6666667 L54,53 L70,53 L70,55.6666667 Z" id="Fill-60" fill="#FFFFFF" mask="url(#mask-16)"></path>
                            <path d="M70,55.6666667 C70,56.4026667 69.469037,57 68.8148148,57 L55.1851852,57 C54.5297778,57 54,56.4026667 54,55.6666667 L54,53 L70,53 L70,55.6666667 Z" id="Stroke-61" stroke="#7450C8" stroke-linecap="round" stroke-linejoin="round" mask="url(#mask-16)"></path>
                            <path d="M63.6666667,53 L60,57 L69.7777778,57 C70.4524444,57 71,56.4026667 71,55.6666667 L71,53 L63.6666667,53 Z" id="Fill-62" fill="#DFE4EE" mask="url(#mask-16)"></path>
                            <path d="M63.6666667,53 L60,57 L69.7777778,57 C70.4524444,57 71,56.4026667 71,55.6666667 L71,53 L63.6666667,53 Z" id="Stroke-63" stroke="#7450C8" stroke-linecap="round" stroke-linejoin="round" mask="url(#mask-16)"></path>
                            <path d="M96,63 L80,63 L80,60.3333333 C80,59.5973333 80.5297778,59 81.1851852,59 L94.8148148,59 C95.469037,59 96,59.5973333 96,60.3333333 L96,63 Z" id="Fill-64" fill="#FFFFFF" mask="url(#mask-16)"></path>
                            <path d="M96,63 L80,63 L80,60.3333333 C80,59.5973333 80.5297778,59 81.1851852,59 L94.8148148,59 C95.469037,59 96,59.5973333 96,60.3333333 L96,63 Z" id="Stroke-65" stroke="#7450C8" stroke-linecap="round" stroke-linejoin="round" mask="url(#mask-16)"></path>
                            <path d="M88.6666667,59 L85,63 L96,63 L96,60.3333333 C96,59.5973333 95.4524444,59 94.7777778,59 L88.6666667,59 Z" id="Fill-66" fill="#DFE4EE" mask="url(#mask-16)"></path>
                            <path d="M88.6666667,59 L85,63 L96,63 L96,60.3333333 C96,59.5973333 95.4524444,59 94.7777778,59 L88.6666667,59 Z" id="Stroke-67" stroke="#7450C8" stroke-linecap="round" stroke-linejoin="round" mask="url(#mask-16)"></path>
                            <path d="M96,64.6666667 C96,65.4026667 95.469037,66 94.8148148,66 L81.1851852,66 C80.5297778,66 80,65.4026667 80,64.6666667 L80,62 L96,62 L96,64.6666667 Z" id="Fill-68" fill="#FFFFFF" mask="url(#mask-16)"></path>
                            <path d="M96,64.6666667 C96,65.4026667 95.469037,66 94.8148148,66 L81.1851852,66 C80.5297778,66 80,65.4026667 80,64.6666667 L80,62 L96,62 L96,64.6666667 Z" id="Stroke-69" stroke="#7450C8" stroke-linecap="round" stroke-linejoin="round" mask="url(#mask-16)"></path>
                            <path d="M88.6666667,62 L85,66 L94.7777778,66 C95.4524444,66 96,65.4026667 96,64.6666667 L96,62 L88.6666667,62 Z" id="Fill-70" fill="#DFE4EE" mask="url(#mask-16)"></path>
                            <path d="M88.6666667,62 L85,66 L94.7777778,66 C95.4524444,66 96,65.4026667 96,64.6666667 L96,62 L88.6666667,62 Z" id="Stroke-71" stroke="#7450C8" stroke-linecap="round" stroke-linejoin="round" mask="url(#mask-16)"></path>
                            <path d="M96,72 L80,72 L80,69.3333333 C80,68.5973333 80.5297778,68 81.1851852,68 L94.8148148,68 C95.469037,68 96,68.5973333 96,69.3333333 L96,72 Z" id="Fill-72" fill="#FFFFFF" mask="url(#mask-16)"></path>
                            <path d="M96,72 L80,72 L80,69.3333333 C80,68.5973333 80.5297778,68 81.1851852,68 L94.8148148,68 C95.469037,68 96,68.5973333 96,69.3333333 L96,72 Z" id="Stroke-73" stroke="#7450C8" stroke-linecap="round" stroke-linejoin="round" mask="url(#mask-16)"></path>
                            <path d="M88.6666667,68 L85,72 L96,72 L96,69.3333333 C96,68.5973333 95.4524444,68 94.7777778,68 L88.6666667,68 Z" id="Fill-74" fill="#DFE4EE" mask="url(#mask-16)"></path>
                            <path d="M88.6666667,68 L85,72 L96,72 L96,69.3333333 C96,68.5973333 95.4524444,68 94.7777778,68 L88.6666667,68 Z" id="Stroke-75" stroke="#7450C8" stroke-linecap="round" stroke-linejoin="round" mask="url(#mask-16)"></path>
                            <path d="M96,74.6666667 C96,75.4026667 95.469037,76 94.8148148,76 L81.1851852,76 C80.5297778,76 80,75.4026667 80,74.6666667 L80,72 L96,72 L96,74.6666667 Z" id="Fill-76" fill="#FFFFFF" mask="url(#mask-16)"></path>
                            <path d="M96,74.6666667 C96,75.4026667 95.469037,76 94.8148148,76 L81.1851852,76 C80.5297778,76 80,75.4026667 80,74.6666667 L80,72 L96,72 L96,74.6666667 Z" id="Stroke-77" stroke="#7450C8" stroke-linecap="round" stroke-linejoin="round" mask="url(#mask-16)"></path>
                            <path d="M88.6666667,72 L85,76 L94.7777778,76 C95.4524444,76 96,75.4026667 96,74.6666667 L96,72 L88.6666667,72 Z" id="Fill-78" fill="#DFE4EE" mask="url(#mask-16)"></path>
                            <path d="M88.6666667,72 L85,76 L94.7777778,76 C95.4524444,76 96,75.4026667 96,74.6666667 L96,72 L88.6666667,72 Z" id="Stroke-79" stroke="#7450C8" stroke-linecap="round" stroke-linejoin="round" mask="url(#mask-16)"></path>
                            <path d="M70,64.6666667 C70,65.4026667 69.469037,66 68.8148148,66 L55.1851852,66 C54.5297778,66 54,65.4026667 54,64.6666667 L54,62 L70,62 L70,64.6666667 Z" id="Fill-80" fill="#FFFFFF" mask="url(#mask-16)"></path>
                            <path d="M70,64.6666667 C70,65.4026667 69.469037,66 68.8148148,66 L55.1851852,66 C54.5297778,66 54,65.4026667 54,64.6666667 L54,62 L70,62 L70,64.6666667 Z" id="Stroke-81" stroke="#7450C8" stroke-linecap="round" stroke-linejoin="round" mask="url(#mask-16)"></path>
                            <path d="M63.6666667,62 L60,66 L69.7777778,66 C70.4524444,66 71,65.4026667 71,64.6666667 L71,62 L63.6666667,62 Z" id="Fill-82" fill="#DFE4EE" mask="url(#mask-16)"></path>
                            <path d="M63.6666667,62 L60,66 L69.7777778,66 C70.4524444,66 71,65.4026667 71,64.6666667 L71,62 L63.6666667,62 Z" id="Stroke-83" stroke="#7450C8" stroke-linecap="round" stroke-linejoin="round" mask="url(#mask-16)"></path>
                            <polygon id="Fill-84" fill="#FFFFFF" mask="url(#mask-16)" points="52 37 73 37 73 35 52 35"></polygon>
                            <polygon id="Stroke-85" stroke="#7450C8" stroke-linecap="round" stroke-linejoin="round" mask="url(#mask-16)" points="52 37 73 37 73 35 52 35"></polygon>
                            <path d="M50,82 L52,82 L52,35.2 C52,34.5376 51.553,34 51,34 C50.448,34 50,34.5376 50,35.2 L50,82 Z" id="Fill-86" fill="#FFFFFF" mask="url(#mask-16)"></path>
                            <path d="M50,82 L52,82 L52,35.2 C52,34.5376 51.553,34 51,34 C50.448,34 50,34.5376 50,35.2 L50,82 Z" id="Stroke-87" stroke="#7450C8" stroke-linecap="round" stroke-linejoin="round" mask="url(#mask-16)"></path>
                            <path d="M73,82 L75,82 L75,35.2 C75,34.5376 74.552,34 74,34 C73.447,34 73,34.5376 73,35.2 L73,82 Z" id="Fill-88" fill="#FFFFFF" mask="url(#mask-16)"></path>
                            <path d="M73,82 L75,82 L75,35.2 C75,34.5376 74.552,34 74,34 C73.447,34 73,34.5376 73,35.2 L73,82 Z" id="Stroke-89" stroke="#7450C8" stroke-linecap="round" stroke-linejoin="round" mask="url(#mask-16)"></path>
                            <path d="M55,67 L55,67 C56.889611,67 58.4210526,68.5281736 58.4210526,70.4137522 L58.4210526,94.9927677 C58.4210526,97.7582038 60.667643,100 63.4401831,100 L68,100" id="Stroke-90" stroke="#7450C8" stroke-linecap="round" stroke-linejoin="round" mask="url(#mask-16)"></path>
                            <path d="M69.4285714,101 L73,101 L73,98 L69.4285714,98 C68.6397516,98 68,98.6717391 68,99.5 C68,100.328261 68.6397516,101 69.4285714,101" id="Fill-91" fill="#DFE4EE" mask="url(#mask-16)"></path>
                            <path d="M69.4285714,101 L73,101 L73,98 L69.4285714,98 C68.6397516,98 68,98.6717391 68,99.5 C68,100.328261 68.6397516,101 69.4285714,101 Z" id="Stroke-92" stroke="#7450C8" stroke-linecap="round" stroke-linejoin="round" mask="url(#mask-16)"></path>
                            <path d="M69,78 L69,85.7992391 C69,87.566413 70.4706905,89 72.2863427,89 L75.3529412,89 C78.4723274,89 81,91.4618478 81,94.5 C81,97.5369565 78.4723274,100 75.3529412,100 L72.5294118,100" id="Stroke-93" stroke="#7450C8" stroke-linecap="round" stroke-linejoin="round" mask="url(#mask-16)"></path>
                            <path d="M65,78 L65,85.7023913 C65,87.5233696 66.4307246,89 68.1976812,89 L75,89" id="Stroke-94" stroke="#7450C8" stroke-linecap="round" stroke-linejoin="round" mask="url(#mask-16)"></path>
                            <path d="M24,103 C24,104.104928 30.0433043,105 37.5,105 C44.9555217,105 51,104.104928 51,103 C51,101.895072 44.9555217,101 37.5,101 C30.0433043,101 24,101.895072 24,103" id="Fill-95" fill="#F4F6FC" mask="url(#mask-16)"></path>
                            <path d="M34.6923077,29 C30.1038127,29 26.3846154,32.6454037 26.3846154,37.1428571 L26.3846154,38.2297516 C25.6008027,38.3914286 25,39.0404969 25,39.8571429 C25,40.7339752 25.6874916,41.4314286 26.5591973,41.5199379 C27.341806,45.2196273 30.6853512,48 34.6923077,48 C39.2808027,48 43,44.3545963 43,39.8571429 L43,37.1428571 C43,32.6454037 39.2808027,29 34.6923077,29" id="Fill-96" fill="#FFFFFF" mask="url(#mask-16)"></path>
                            <path d="M34.6923077,29 C30.1038127,29 26.3846154,32.6454037 26.3846154,37.1428571 L26.3846154,38.2297516 C25.6008027,38.3914286 25,39.0404969 25,39.8571429 C25,40.7339752 25.6874916,41.4314286 26.5591973,41.5199379 C27.341806,45.2196273 30.6853512,48 34.6923077,48 C39.2808027,48 43,44.3545963 43,39.8571429 L43,37.1428571 C43,32.6454037 39.2808027,29 34.6923077,29 Z" id="Stroke-97" stroke="#7450C8" stroke-linecap="round" stroke-linejoin="round" mask="url(#mask-16)"></path>
                            <path d="M21,63.8378378 C21,56.7473561 26.8199542,51 34,51 C41.1788558,51 47,56.7473561 47,63.8378378 L47,65.8648649 L43.5789474,65.8648649 L43.5753776,76 L25.7894737,76 L25.784714,65.8648649 L21,65.8648649 L21,63.8378378 Z" id="Fill-98" fill="#FFFFFF" mask="url(#mask-16)"></path>
                            <path d="M21,63.8378378 C21,56.7473561 26.8199542,51 34,51 C41.1788558,51 47,56.7473561 47,63.8378378 L47,65.8648649 L43.5789474,65.8648649 L43.5753776,76 L25.7894737,76 L25.784714,65.8648649 L21,65.8648649 L21,63.8378378 Z" id="Stroke-99" stroke="#7450C8" stroke-linecap="round" stroke-linejoin="round" mask="url(#mask-16)"></path>
                            <path d="M35,38 C35,38.5522042 34.5524638,39 33.9994203,39 C33.4475362,39 33,38.5522042 33,38 C33,37.4477958 33.4475362,37 33.9994203,37 C34.5524638,37 35,37.4477958 35,38" id="Fill-100" fill="#7450C8" mask="url(#mask-16)"></path>
                            <path d="M38,38 C38,38.5522042 38.4475362,39 38.9994203,39 C39.5524638,39 40,38.5522042 40,38 C40,37.4477958 39.5524638,37 38.9994203,37 C38.4475362,37 38,37.4477958 38,38" id="Fill-101" fill="#7450C8" mask="url(#mask-16)"></path>
                            <path d="M32,40.9994203 C32,41.5524638 31.5524638,42 31.0005797,42 C30.4486957,42 30,41.5524638 30,40.9994203 C30,40.4475362 30.4486957,40 31.0005797,40 C31.5524638,40 32,40.4475362 32,40.9994203" id="Fill-102" fill="#DFE4EE" mask="url(#mask-16)"></path>
                            <path d="M34,43 C35.2104348,43.696 36.7895652,43.696 38,43" id="Stroke-103" stroke="#7450C8" stroke-linecap="round" stroke-linejoin="round" mask="url(#mask-16)"></path>
                            <path d="M44,35.1764706 C44,30.1088491 39.9701672,26 35,26 C30.0286288,26 26,30.1088491 26,35.1764706 L26,38 C28.4597993,37.3235806 29.9274916,35.7841432 30.8461538,33.7647059 C34.7242809,36.4274169 39.8461538,35.8823529 44,35.1764706" id="Fill-104" fill="#FFFFFF" mask="url(#mask-16)"></path>
                            <path d="M44,35.1764706 C44,30.1088491 39.9701672,26 35,26 C30.0286288,26 26,30.1088491 26,35.1764706 L26,38 C28.4597993,37.3235806 29.9274916,35.7841432 30.8461538,33.7647059 C34.7242809,36.4274169 39.8461538,35.8823529 44,35.1764706 Z" id="Stroke-105" stroke="#7450C8" stroke-linecap="round" stroke-linejoin="round" mask="url(#mask-16)"></path>
                            <path d="M30,32 C30,32 30.3869565,32.6469565 31,33" id="Stroke-106" stroke="#7450C8" stroke-linecap="round" stroke-linejoin="round" mask="url(#mask-16)"></path>
                            <path d="M21,79.6672464 C21,80.9553623 22.1192547,82 23.4993789,82 C24.8807453,82 26,80.9553623 26,79.6672464 L26,66 L21,66 L21,79.6672464 Z" id="Fill-107" fill="#FFFFFF" mask="url(#mask-16)"></path>
                            <path d="M21,79.6672464 C21,80.9553623 22.1192547,82 23.4993789,82 C24.8807453,82 26,80.9553623 26,79.6672464 L26,66 L21,66 L21,79.6672464 Z" id="Stroke-108" stroke="#7450C8" stroke-linecap="round" stroke-linejoin="round" mask="url(#mask-16)"></path>
                            <line x1="26" y1="66" x2="26" y2="62" id="Stroke-109" stroke="#7450C8" stroke-linecap="round" stroke-linejoin="round" mask="url(#mask-16)"></line>
                            <line x1="44" y1="66" x2="44" y2="62" id="Stroke-110" stroke="#7450C8" stroke-linecap="round" stroke-linejoin="round" mask="url(#mask-16)"></line>
                            <path d="M31,51.2956522 L34.5678392,56 L38,51.6360248 C36.6896985,51.2248447 35.2939698,51 33.8454774,51 C32.8693467,51 31.9183417,51.1043478 31,51.2956522" id="Fill-111" fill="#FFFFFF" mask="url(#mask-16)"></path>
                            <path d="M31,51.2956522 L34.5678392,56 L38,51.6360248 C36.6896985,51.2248447 35.2939698,51 33.8454774,51 C32.8693467,51 31.9183417,51.1043478 31,51.2956522 Z" id="Stroke-112" stroke="#7450C8" stroke-linecap="round" stroke-linejoin="round" mask="url(#mask-16)"></path>
                            <path d="M35,55.5279252 L37.6185716,55.9829089 C38.4258097,56.1221107 39.1228573,55.3900123 38.9817145,54.5509348 L38.3824764,51 L35,55.5279252 Z" id="Fill-113" fill="#DFE4EE" mask="url(#mask-16)"></path>
                            <path d="M35,55.5279252 L37.6185716,55.9829089 C38.4258097,56.1221107 39.1228573,55.3900123 38.9817145,54.5509348 L38.3824764,51 L35,55.5279252 Z" id="Stroke-114" stroke="#7450C8" stroke-linecap="round" stroke-linejoin="round" mask="url(#mask-16)"></path>
                            <path d="M31.5350795,51 L31.0116813,54.6894466 C30.9018774,55.4585821 31.5826611,56.1123472 32.3610482,55.9837574 L35,55.5511187 L31.5350795,51 Z" id="Fill-115" fill="#DFE4EE" mask="url(#mask-16)"></path>
                            <path d="M31.5350795,51 L31.0116813,54.6894466 C30.9018774,55.4585821 31.5826611,56.1123472 32.3610482,55.9837574 L35,55.5511187 L31.5350795,51 Z" id="Stroke-116" stroke="#7450C8" stroke-linecap="round" stroke-linejoin="round" mask="url(#mask-16)"></path>
                            <line x1="35" y1="55" x2="35" y2="76" id="Stroke-117" stroke="#7450C8" stroke-linecap="round" stroke-linejoin="round" mask="url(#mask-16)"></line>
                            <path d="M53.7901701,60 L40.2098299,60 C39.5420038,60 39,60.5194203 39,61.1594203 L39,68.8405797 C39,69.4805797 39.5420038,70 40.2098299,70 L53.7901701,70 C54.4579962,70 55,69.4805797 55,68.8405797 L55,61.1594203 C55,60.5194203 54.4579962,60 53.7901701,60" id="Fill-118" fill="#FFFFFF" mask="url(#mask-16)"></path>
                            <path d="M53.7901701,60 L40.2098299,60 C39.5420038,60 39,60.5194203 39,61.1594203 L39,68.8405797 C39,69.4805797 39.5420038,70 40.2098299,70 L53.7901701,70 C54.4579962,70 55,69.4805797 55,68.8405797 L55,61.1594203 C55,60.5194203 54.4579962,60 53.7901701,60 Z" id="Stroke-119" stroke="#7450C8" stroke-linecap="round" stroke-linejoin="round" mask="url(#mask-16)"></path>
                            <path d="M48,66.5 C48,67.3282609 47.3282609,68 46.5,68 C45.6717391,68 45,67.3282609 45,66.5 C45,65.6717391 45.6717391,65 46.5,65 C47.3282609,65 48,65.6717391 48,66.5" id="Fill-120" fill="#DFE4EE" mask="url(#mask-16)"></path>
                            <path d="M48,66.5 C48,67.3282609 47.3282609,68 46.5,68 C45.6717391,68 45,67.3282609 45,66.5 C45,65.6717391 45.6717391,65 46.5,65 C47.3282609,65 48,65.6717391 48,66.5 Z" id="Stroke-121" stroke="#7450C8" stroke-linecap="round" stroke-linejoin="round" mask="url(#mask-16)"></path>
                            <line x1="47" y1="63.575" x2="47.575" y2="63" id="Stroke-122" stroke="#7450C8" stroke-linecap="round" stroke-linejoin="round" mask="url(#mask-16)"></line>
                            <path d="M47.6942814,73 L45.3057186,73 C44.5838226,73 44,72.4386087 44,71.7467826 L44,70.8483478 C44,70.3798261 44.394651,70 44.8828006,70 L48.1171994,70 C48.6042618,70 49,70.3798261 49,70.8483478 L49,71.7467826 C49,72.4386087 48.4161774,73 47.6942814,73" id="Fill-123" fill="#FFFFFF" mask="url(#mask-16)"></path>
                            <path d="M47.6942814,73 L45.3057186,73 C44.5838226,73 44,72.4386087 44,71.7467826 L44,70.8483478 C44,70.3798261 44.394651,70 44.8828006,70 L48.1171994,70 C48.6042618,70 49,70.3798261 49,70.8483478 L49,71.7467826 C49,72.4386087 48.4161774,73 47.6942814,73 Z" id="Stroke-124" stroke="#7450C8" stroke-linecap="round" stroke-linejoin="round" mask="url(#mask-16)"></path>
                            <path d="M43.3076923,96.9178541 C43.5436789,96.9178541 43.7748495,96.9378039 44,96.9753562 L44,76 L26,76 L26,96.9178541 L31.5384615,96.9178541 C31.8250167,96.9178541 32.1055518,96.9460184 32.3752508,97 L32.8460201,84.0960604 C32.8893645,82.9671417 33.8405351,82.0729254 35,82.0729254 C36.1594649,82.0729254 37.1106355,82.9671417 37.1539799,84.0960604 L37.7692308,96.9178541 L43.3076923,96.9178541 Z" id="Fill-125" fill="#DFE4EE" mask="url(#mask-16)"></path>
                            <path d="M43.3076923,96.9178541 C43.5436789,96.9178541 43.7748495,96.9378039 44,96.9753562 L44,76 L26,76 L26,96.9178541 L31.5384615,96.9178541 C31.8250167,96.9178541 32.1055518,96.9460184 32.3752508,97 L32.8460201,84.0960604 C32.8893645,82.9671417 33.8405351,82.0729254 35,82.0729254 C36.1594649,82.0729254 37.1106355,82.9671417 37.1539799,84.0960604 L37.7692308,96.9178541 L43.3076923,96.9178541 Z" id="Stroke-126" stroke="#7450C8" stroke-linecap="round" stroke-linejoin="round" mask="url(#mask-16)"></path>
                            <path d="M48,101 C48,98.7913043 46.0807453,97 43.7142857,97 L38,97 L38,99.6666667 C38,100.402899 38.6397516,101 39.4285714,101 L48,101 Z" id="Fill-127" fill="#FFFFFF" mask="url(#mask-16)"></path>
                            <path d="M48,101 C48,98.7913043 46.0807453,97 43.7142857,97 L38,97 L38,99.6666667 C38,100.402899 38.6397516,101 39.4285714,101 L48,101 Z" id="Stroke-128" stroke="#7450C8" stroke-linecap="round" stroke-linejoin="round" mask="url(#mask-16)"></path>
                            <path d="M36,101 C36,98.7913043 34.0819876,97 31.7142857,97 L26,97 L26,99.6666667 C26,100.402899 26.6397516,101 27.4285714,101 L36,101 Z" id="Fill-129" fill="#FFFFFF" mask="url(#mask-16)"></path>
                            <path d="M36,101 C36,98.7913043 34.0819876,97 31.7142857,97 L26,97 L26,99.6666667 C26,100.402899 26.6397516,101 27.4285714,101 L36,101 Z" id="Stroke-130" stroke="#7450C8" stroke-linecap="round" stroke-linejoin="round" mask="url(#mask-16)"></path>
                        </g>
                    </g>
                    <g id="customer-service-woman-2" transform="translate(25.000000, 125.062990)">
                        <g id="customer-service-woman">
                            <path d="M89.7272727,43.125 C89.7272727,19.4560714 70.5972045,0.267857143 47,0.267857143 C23.4027955,0.267857143 4.27272727,19.4560714 4.27272727,43.125 C4.27272727,49.4303571 5.64106818,55.4196429 8.07865909,60.81 L85.9202727,60.81 C88.3589318,55.4196429 89.7272727,49.4303571 89.7272727,43.125" id="Fill-1" fill="#F4F6FC"></path>
                            <line x1="5.34090909" y1="60.8103214" x2="88.6590909" y2="60.8103214" id="Stroke-3" stroke="#7450C8" stroke-linecap="round" stroke-linejoin="round"></line>
                            <line x1="0.534090909" y1="60.8103214" x2="3.20454545" y2="60.8103214" id="Stroke-5" stroke="#7450C8" stroke-linecap="round" stroke-linejoin="round"></line>
                            <line x1="90.7954545" y1="60.8103214" x2="93.4659091" y2="60.8103214" id="Stroke-7" stroke="#7450C8" stroke-linecap="round" stroke-linejoin="round"></line>
                            <path d="M19.6956705,73.125 C19.6956705,74.0132143 28.3041477,74.7321429 38.9229432,74.7321429 C49.5406705,74.7321429 58.1502159,74.0132143 58.1502159,73.125 C58.1502159,72.2367857 49.5406705,71.5178571 38.9229432,71.5178571 C28.3041477,71.5178571 19.6956705,72.2367857 19.6956705,73.125" id="Fill-9" fill="#F0F2FF"></path>
                            <path d="M61.3140636,37.6606071 C64.85295,37.6606071 67.7231545,34.78275 67.7231545,31.2320357 L67.7231545,18.3748929 C67.7231545,10.9906071 61.5170182,5.06025 54.0514955,5.54560714 C47.2386318,5.98810714 42.0867909,11.96775 42.0867909,18.81525 L42.0867909,31.2320357 C42.0867909,34.78275 44.9569955,37.6606071 48.4958818,37.6606071 L61.3140636,37.6606071 Z" id="Fill-11" fill="#FFFFFF"></path>
                            <path d="M61.3140636,37.6606071 C64.85295,37.6606071 67.7231545,34.78275 67.7231545,31.2320357 L67.7231545,18.3748929 C67.7231545,10.9906071 61.5170182,5.06025 54.0514955,5.54560714 C47.2386318,5.98810714 42.0867909,11.96775 42.0867909,18.81525 L42.0867909,31.2320357 C42.0867909,34.78275 44.9569955,37.6606071 48.4958818,37.6606071 L61.3140636,37.6606071 Z" id="Stroke-13" stroke="#7450C8" stroke-linecap="round" stroke-linejoin="round"></path>
                            <path d="M54.9049727,35.7311786 C45.7025864,35.7311786 38.2413364,43.2140357 38.2413364,52.4454643 L38.2413364,56.9476071 C38.2413364,65.4215357 35.2418818,66.5883214 31.9134273,66.5883214 L30.5504273,66.5883214 L29.2686091,66.5883214 L29.2686091,72.3740357 L30.5504273,72.3740357 L31.9134273,72.3740357 C36.5696318,72.3740357 44.6504273,68.4836786 44.6504273,60.8036786 L65.1605864,60.8036786 C65.1605864,65.6936786 61.5661545,66.5883214 58.8316091,66.5883214 L57.4686091,66.5883214 L56.1867909,66.5883214 L56.1867909,72.3740357 L57.4686091,72.3740357 L58.8316091,72.3740357 C64.0934727,72.3740357 71.5696773,71.2479643 71.5696773,60.8015357 L71.5696773,52.4454643 C71.5696773,43.2140357 64.1084273,35.7311786 54.9049727,35.7311786" id="Fill-15" fill="#FFFFFF"></path>
                            <path d="M54.9049727,35.7311786 C45.7025864,35.7311786 38.2413364,43.2140357 38.2413364,52.4454643 L38.2413364,56.9476071 C38.2413364,65.4215357 35.2418818,66.5883214 31.9134273,66.5883214 L29.2686091,66.5883214 L29.2686091,72.3740357 L31.9134273,72.3740357 C36.5696318,72.3740357 44.6504273,68.4836786 44.6504273,60.8036786 L65.1605864,60.8036786 C65.1605864,65.6936786 61.5661545,66.5883214 58.8316091,66.5883214 L56.1867909,66.5883214 L56.1867909,72.3740357 L58.8316091,72.3740357 C64.0934727,72.3740357 71.5696773,71.2479643 71.5696773,60.8015357 L71.5696773,52.4454643 C71.5696773,43.2140357 64.1084273,35.7311786 54.9049727,35.7311786 Z" id="Stroke-17" stroke="#7450C8" stroke-linecap="round" stroke-linejoin="round"></path>
                            <line x1="44.6508545" y1="53.0885357" x2="44.6508545" y2="60.8028214" id="Stroke-19" stroke="#7450C8" stroke-linecap="round" stroke-linejoin="round"></line>
                            <line x1="65.1601591" y1="53.0885357" x2="65.1601591" y2="60.8028214" id="Stroke-21" stroke="#7450C8" stroke-linecap="round" stroke-linejoin="round"></line>
                            <path d="M56.1870045,71.7323571 L54.2642773,71.7323571 C52.8489364,71.7323571 51.7006409,70.5805714 51.7006409,69.1609286 C51.7006409,67.7402143 52.8489364,66.5895 54.2642773,66.5895 L56.1870045,66.5895 L56.1870045,71.7323571 Z" id="Fill-23" fill="#FFFFFF"></path>
                            <path d="M56.1870045,71.7323571 L54.2642773,71.7323571 C52.8489364,71.7323571 51.7006409,70.5805714 51.7006409,69.1609286 C51.7006409,67.7402143 52.8489364,66.5895 54.2642773,66.5895 L56.1870045,66.5895 L56.1870045,71.7323571 Z" id="Stroke-25" stroke="#7450C8" stroke-linecap="round" stroke-linejoin="round"></path>
                            <path d="M29.2686091,71.7323571 L27.3458818,71.7323571 C25.9294727,71.7323571 24.7822455,70.5805714 24.7822455,69.1609286 C24.7822455,67.7402143 25.9294727,66.5895 27.3458818,66.5895 L29.2686091,66.5895 L29.2686091,71.7323571 Z" id="Fill-27" fill="#FFFFFF"></path>
                            <path d="M29.2686091,71.7323571 L27.3458818,71.7323571 C25.9294727,71.7323571 24.7822455,70.5805714 24.7822455,69.1609286 C24.7822455,67.7402143 25.9294727,66.5895 27.3458818,66.5895 L29.2686091,66.5895 L29.2686091,71.7323571 Z" id="Stroke-29" stroke="#7450C8" stroke-linecap="round" stroke-linejoin="round"></path>
                            <line x1="54.9049727" y1="44.0891786" x2="54.9049727" y2="60.8034643" id="Stroke-31" stroke="#7450C8" stroke-linecap="round" stroke-linejoin="round"></line>
                            <polygon id="Fill-33" fill="#FFFFFF" points="58.7510682 36.3752143 54.9045455 44.0895 51.0601591 36.3752143 51.0601591 33.1609286 58.7510682 33.1609286"></polygon>
                            <polygon id="Stroke-35" stroke="#7450C8" stroke-linecap="round" stroke-linejoin="round" points="58.7510682 36.3752143 54.9045455 44.0895 51.0601591 36.3752143 51.0601591 33.1609286 58.7510682 33.1609286"></polygon>
                            <path d="M48.8995477,42.3010714 C49.1057068,42.57 49.4261614,42.7253571 49.7658432,42.7189286 C50.1033886,42.7135714 50.4185023,42.5464286 50.6150477,42.2710714 L52.5270932,39.585 C52.7984114,39.2046429 52.7930705,38.6925 52.5132068,38.3196429 L50.9344341,36.2078571 C49.1195932,36.6535714 47.4222523,37.3960714 45.8947523,38.3828571 L48.8995477,42.3010714 Z" id="Fill-37" fill="#FFFFFF"></path>
                            <path d="M48.8995477,42.3010714 C49.1057068,42.57 49.4261614,42.7253571 49.7658432,42.7189286 C50.1033886,42.7135714 50.4185023,42.5464286 50.6150477,42.2710714 L52.5270932,39.585 C52.7984114,39.2046429 52.7930705,38.6925 52.5132068,38.3196429 L50.9344341,36.2078571 C49.1195932,36.6535714 47.4222523,37.3960714 45.8947523,38.3828571 L48.8995477,42.3010714 Z" id="Stroke-39" stroke="#7450C8" stroke-linecap="round" stroke-linejoin="round"></path>
                            <path d="M60.9103977,42.3010714 C60.7042386,42.57 60.3837841,42.7253571 60.0441023,42.7189286 C59.7065568,42.7135714 59.3914432,42.5464286 59.1948977,42.2710714 L57.2828523,39.585 C57.0115341,39.2046429 57.016875,38.6925 57.2967386,38.3196429 L58.8755114,36.2078571 C60.6892841,36.6535714 62.3876932,37.3960714 63.9151932,38.3828571 L60.9103977,42.3010714 Z" id="Fill-41" fill="#FFFFFF"></path>
                            <path d="M60.9103977,42.3010714 C60.7042386,42.57 60.3837841,42.7253571 60.0441023,42.7189286 C59.7065568,42.7135714 59.3914432,42.5464286 59.1948977,42.2710714 L57.2828523,39.585 C57.0115341,39.2046429 57.016875,38.6925 57.2967386,38.3196429 L58.8755114,36.2078571 C60.6892841,36.6535714 62.3876932,37.3960714 63.9151932,38.3828571 L60.9103977,42.3010714 Z" id="Stroke-43" stroke="#7450C8" stroke-linecap="round" stroke-linejoin="round"></path>
                            <path d="M65.8026705,21.5891786 L65.8026705,19.01775 C65.8026705,18.7166786 65.7802386,18.4209643 65.7578068,18.1263214 C64.0690114,19.0970357 62.1174432,19.6606071 60.0323523,19.6606071 C56.4913295,19.6606071 53.3284432,18.05775 51.2134432,15.5398929 C50.2499432,18.33525 47.9629659,20.3034643 45.2914432,20.3034643 C44.8534886,20.3034643 44.4251477,20.2498929 44.0117614,20.1491786 L44.0117614,21.5891786 C42.9489205,21.5891786 42.0890341,22.45275 42.0890341,23.51775 L42.0890341,24.1606071 C42.0890341,25.2256071 42.9489205,26.0891786 44.0117614,26.0891786 C44.0715795,26.0891786 44.1292614,26.0763214 44.1890795,26.0720357 C45.0895568,31.1945357 49.5396023,35.0891786 54.9072159,35.0891786 C60.2726932,35.0891786 64.7227386,31.1945357 65.6253523,26.0720357 C65.6851705,26.0763214 65.7407159,26.0891786 65.8026705,26.0891786 C66.8644432,26.0891786 67.7253977,25.2256071 67.7253977,24.1606071 L67.7253977,23.51775 C67.7253977,22.45275 66.8644432,21.5891786 65.8026705,21.5891786" id="Fill-45" fill="#FFFFFF"></path>
                            <path d="M65.8026705,21.5891786 L65.8026705,19.01775 C65.8026705,18.7166786 65.7802386,18.4209643 65.7578068,18.1263214 C64.0690114,19.0970357 62.1174432,19.6606071 60.0323523,19.6606071 C56.4913295,19.6606071 53.3284432,18.05775 51.2134432,15.5398929 C50.2499432,18.33525 47.9629659,20.3034643 45.2914432,20.3034643 C44.8534886,20.3034643 44.4251477,20.2498929 44.0117614,20.1491786 L44.0117614,21.5891786 C42.9489205,21.5891786 42.0890341,22.45275 42.0890341,23.51775 L42.0890341,24.1606071 C42.0890341,25.2256071 42.9489205,26.0891786 44.0117614,26.0891786 C44.0715795,26.0891786 44.1292614,26.0763214 44.1890795,26.0720357 C45.0895568,31.1945357 49.5396023,35.0891786 54.9072159,35.0891786 C60.2726932,35.0891786 64.7227386,31.1945357 65.6253523,26.0720357 C65.6851705,26.0763214 65.7407159,26.0891786 65.8026705,26.0891786 C66.8644432,26.0891786 67.7253977,25.2256071 67.7253977,24.1606071 L67.7253977,23.51775 C67.7253977,22.45275 66.8644432,21.5891786 65.8026705,21.5891786 Z" id="Stroke-47" stroke="#7450C8" stroke-linecap="round" stroke-linejoin="round"></path>
                            <path d="M49.7799432,26.0893929 C49.7799432,26.79975 49.2063295,27.3751071 48.498125,27.3751071 C47.7899205,27.3751071 47.2163068,26.79975 47.2163068,26.0893929 C47.2163068,25.3790357 47.7899205,24.8036786 48.498125,24.8036786 C49.2063295,24.8036786 49.7799432,25.3790357 49.7799432,26.0893929" id="Fill-49" fill="#F4F6FC"></path>
                            <path d="M62.598125,26.0893929 C62.598125,26.79975 62.0245114,27.3751071 61.3163068,27.3751071 C60.6081023,27.3751071 60.0344886,26.79975 60.0344886,26.0893929 C60.0344886,25.3790357 60.6081023,24.8036786 61.3163068,24.8036786 C62.0245114,24.8036786 62.598125,25.3790357 62.598125,26.0893929" id="Fill-51" fill="#F4F6FC"></path>
                            <path d="M51.7024568,28.6607143 C53.642275,30.375 56.1717295,30.375 58.1115477,28.6607143" id="Stroke-53" stroke="#7450C8" stroke-linecap="round" stroke-linejoin="round"></path>
                            <path d="M60.6756114,22.8751071 C60.3455432,22.2461786 59.7655205,21.8036786 59.0733386,21.8036786 C58.3800886,21.8036786 57.8000659,22.2461786 57.4710659,22.8751071" id="Stroke-55" stroke="#7450C8" stroke-linecap="round" stroke-linejoin="round"></path>
                            <path d="M52.3430455,22.6606071 C52.0129773,22.0316786 51.4340227,21.5891786 50.7407727,21.5891786 C50.0485909,21.5891786 49.4685682,22.0316786 49.1385,22.6606071" id="Stroke-57" stroke="#7450C8" stroke-linecap="round" stroke-linejoin="round"></path>
                            <path d="M42.8629318,69.9107143 L45.2513864,69.9107143 L40.1486818,54.0460714 C40.0066136,53.6035714 39.5953636,53.3035714 39.1328409,53.3035714 L37.5220227,53.3035714 L42.8629318,69.9107143 Z" id="Fill-83" fill="#F4F6FC"></path>
                            <path d="M42.8629318,69.9107143 L45.2513864,69.9107143 L40.1486818,54.0460714 C40.0066136,53.6035714 39.5953636,53.3035714 39.1328409,53.3035714 L37.5220227,53.3035714 L42.8629318,69.9107143 Z" id="Stroke-85" stroke="#7450C8" stroke-linejoin="round"></path>
                            <path d="M22.0333864,69.9107143 L42.8629318,69.9107143 L37.5220227,53.3035714 L18.1601591,53.3035714 C17.8183409,53.3035714 17.4978864,53.4675 17.296,53.7439286 C17.0941136,54.0214286 17.0385682,54.3771429 17.1421818,54.7039286 L22.0333864,69.9107143 Z" id="Fill-87" fill="#F4F6FC"></path>
                            <path d="M22.0333864,69.9107143 L43.9311136,69.9107143 L43.9311136,72.5892857 L24.16975,72.5892857 C22.9904773,72.5892857 22.0333864,71.6292857 22.0333864,70.4464286 L22.0333864,69.9107143 Z" id="Fill-89" fill="#F4F6FC"></path>
                            <path d="M22.0333864,69.9107143 L43.9311136,69.9107143 L43.9311136,72.5892857 L24.16975,72.5892857 C22.9904773,72.5892857 22.0333864,71.6292857 22.0333864,70.4464286 L22.0333864,69.9107143 Z" id="Stroke-91" stroke="#7450C8" stroke-linejoin="round"></path>
                            <path d="M43.9311136,69.9107143 L53.5970909,69.9107143 C53.8908409,69.9107143 54.1311818,70.1507143 54.1311818,70.4464286 C54.1311818,71.6292857 53.1740909,72.5892857 51.9948182,72.5892857 L43.9311136,72.5892857 L43.9311136,69.9107143 Z" id="Fill-93" fill="#F4F6FC"></path>
                            <path d="M43.9311136,69.9107143 L53.5970909,69.9107143 C53.8908409,69.9107143 54.1311818,70.1507143 54.1311818,70.4464286 C54.1311818,71.6292857 53.1740909,72.5892857 51.9948182,72.5892857 L43.9311136,72.5892857 L43.9311136,69.9107143 Z" id="Stroke-95" stroke="#7450C8" stroke-linejoin="round"></path>
                            <path d="M30.9439455,61.0159286 C30.9354,60.3495 31.4855136,60.0302143 31.5090136,60.0130714 C31.2013773,59.562 30.7217636,59.4998571 30.5508545,59.4923571 C30.1417409,59.4505714 29.7529227,59.7334286 29.5456955,59.7334286 C29.3384682,59.7334286 29.0180136,59.4977143 28.6794,59.5041429 C28.2339682,59.5116429 27.8237864,59.7645 27.5930591,60.1641429 C27.1305364,60.9698571 27.4766273,62.1623571 27.9274,62.8159286 C28.1474455,63.1362857 28.4102182,63.4952143 28.7541727,63.4823571 C29.0885136,63.4684286 29.2134909,63.267 29.6140591,63.267 C30.0167636,63.267 30.1289227,63.4823571 30.4803545,63.4748571 C30.8371273,63.4695 31.06465,63.1502143 31.2825591,62.8287857 C31.5367864,62.4580714 31.6393318,62.0991429 31.6468091,62.0798571 C31.6382636,62.0766429 30.9492864,61.812 30.9439455,61.0159286" id="Fill-97" fill="#FFFFFF"></path>
                            <path d="M30.9439455,61.0159286 C30.9354,60.3495 31.4855136,60.0302143 31.5090136,60.0130714 C31.2013773,59.562 30.7217636,59.4998571 30.5508545,59.4923571 C30.1417409,59.4505714 29.7529227,59.7334286 29.5456955,59.7334286 C29.3384682,59.7334286 29.0180136,59.4977143 28.6794,59.5041429 C28.2339682,59.5116429 27.8237864,59.7645 27.5930591,60.1641429 C27.1305364,60.9698571 27.4766273,62.1623571 27.9274,62.8159286 C28.1474455,63.1362857 28.4102182,63.4952143 28.7541727,63.4823571 C29.0885136,63.4684286 29.2134909,63.267 29.6140591,63.267 C30.0167636,63.267 30.1289227,63.4823571 30.4803545,63.4748571 C30.8371273,63.4695 31.06465,63.1502143 31.2825591,62.8287857 C31.5367864,62.4580714 31.6393318,62.0991429 31.6468091,62.0798571 C31.6382636,62.0766429 30.9492864,61.812 30.9439455,61.0159286 Z" id="Stroke-99" stroke="#7450C8" stroke-linejoin="round"></path>
                            <line x1="30.04475" y1="58.125" x2="30.5254318" y2="57.6417857" id="Stroke-101" stroke="#7450C8" stroke-linecap="round" stroke-linejoin="round"></line>
                            <path d="M22.0333864,69.9107143 L42.8629318,69.9107143 L37.5220227,53.3035714 L18.1601591,53.3035714 C17.8183409,53.3035714 17.4978864,53.4675 17.296,53.7439286 C17.0941136,54.0214286 17.0385682,54.3771429 17.1421818,54.7039286 L22.0333864,69.9107143 Z" id="Stroke-103" stroke="#7450C8" stroke-linejoin="round"></path>
                        </g>
                    </g>
                    <path d="M211.925781,137.383303 C229.925409,115.28903 265.084352,116.344933 291.039062,118.488771 C298.871364,119.135713 326.263932,119.320264 330.199219,130.863771 C339.080014,156.914105 292.052388,159.770721 282.941406,135.598146 C275.147189,114.919113 308.47985,112.314587 318.171875,112.039553 C365.671603,110.691633 364.62629,144.087081 391.858337,167.618836" id="Path-9" stroke="#7450C8" stroke-width="1.5" stroke-dasharray="3"></path>
                    <path d="M398.052734,161.06299 C400.118111,178.945453 403.701555,174.4646 384,171.002443" id="Path-10" stroke="#7450C8" stroke-width="1.5"></path>
                    <path d="M383.416016,300.832521 C397.811078,299.310795 394.601008,296.107106 392.935547,310.553225" id="Path-12" stroke="#7450C8" stroke-width="1.5"></path>
                    <path d="M241.609375,361.012209 C273.795851,388.738611 323.092079,398.725119 357.001953,367.152834 C373.476637,351.813838 368.640067,322.972395 386.619141,307.518068" id="Path-11" stroke="#7450C8" stroke-width="1.5" stroke-dasharray="3"></path>
                    <g id="Group-11" transform="translate(666.378906, 225.000000)" stroke="#7450C8" stroke-width="1.5">
                        <path d="M0,6.63671875 C43.6666667,6.88411458 87.3333333,7.13151042 131,7.37890625" id="Path-13" stroke-dasharray="3"></path>
                        <path d="M132.632812,0 C144.087062,8.26651013 143.318943,3.56715126 132.621094,14.2851562" id="Path-14"></path>
                    </g>
                    <g id="Group-11" transform="translate(736.500000, 260.500000) scale(-1, 1) translate(-736.500000, -260.500000) translate(666.000000, 253.000000)" stroke="#7450C8" stroke-width="1.5">
                        <path d="M0,6.63671875 C43.6666667,6.88411458 87.3333333,7.13151042 131,7.37890625" id="Path-13" stroke-dasharray="3"></path>
                        <path d="M132.632812,0 C144.087062,8.26651013 143.318943,3.56715126 132.621094,14.2851562" id="Path-14"></path>
                    </g>
                </g>
            </g>
        </g>
    </g>
</svg>