<?xml version="1.0" encoding="UTF-8"?>
<svg width="274px" height="205px" viewBox="0 0 274 205" version="1.1" xmlns="http://www.w3.org/2000/svg" xmlns:xlink="http://www.w3.org/1999/xlink">
    <!-- Generator: Sketch 52.6 (67491) - http://www.bohemiancoding.com/sketch -->
    <title>Group 11</title>
    <desc>Created with Sketch.</desc>
    <g id="15--Landing-page" stroke="none" stroke-width="1" fill="none" fill-rule="evenodd">
        <g id="5--Privacy-Compliance" transform="translate(-240.000000, -1370.000000)">
            <g id="Group-11" transform="translate(240.000000, 1370.000000)">
                <g id="chip-head" transform="translate(62.000000, 63.000000)">
                    <path d="M203,99.1150442 C203,44.3762832 159.570675,0 106,0 C52.429325,0 9,44.3762832 9,99.1150442 C9,113.697345 12.106425,127.531327 17.6427,140 L194.3573,140 C199.893575,127.531327 203,113.697345 203,99.1150442" id="Fill-1" fill="#F4F6FC"></path>
                    <path d="M10,141 L200,141" id="Stroke-3" stroke="#7450C8" stroke-linecap="round" stroke-linejoin="round"></path>
                    <path d="M0,141 L6,141" id="Stroke-5" stroke="#7450C8" stroke-linecap="round" stroke-linejoin="round"></path>
                    <path d="M205,141 L211,141" id="Stroke-7" stroke="#7450C8" stroke-linecap="round" stroke-linejoin="round"></path>
                    <path d="M164.098641,65.7997829 C164.098641,41.0680313 141.200003,28 120.415348,28 C90.6055201,28 75,51.4341286 75,77.7786048 C75,92.7372455 78.5200604,102.939589 91.2696366,111.685519 L91.2696366,140 L140.073681,140 L140.073681,123.406305 L151.706666,123.406305 C158.508386,123.406305 164.475703,119.086684 164.475703,112.149487 L164.475703,98.520724 C164.475703,98.520724 168.708533,98.6472608 171.815041,98.520724 C182.127091,98.0815666 164.098641,69.9482067 164.098641,65.7997829" id="Fill-9" fill="#FFFFFF"></path>
                    <path d="M164.098641,65.7997829 C164.098641,41.0680313 141.200003,28 120.415348,28 C90.6055201,28 75,51.4341286 75,77.7786048 C75,92.7372455 78.5200604,102.939589 91.2696366,111.685519 L91.2696366,140 L140.073681,140 L140.073681,123.406305 L151.706666,123.406305 C158.508386,123.406305 164.475703,119.086684 164.475703,112.149487 L164.475703,98.520724 C164.475703,98.520724 168.708533,98.6472608 171.815041,98.520724 C182.127091,98.0815666 164.098641,69.9482067 164.098641,65.7997829 Z" id="Stroke-11" stroke="#7450C8" stroke-linecap="round" stroke-linejoin="round"></path>
                    <g id="Group-2" transform="translate(23.000000, 7.000000)">
                        <path d="M39.9039162,13.371442 C57.408317,-4.45714733 85.7877715,-4.45714733 103.292172,13.371442 C120.794136,31.2000313 120.796573,60.1050847 103.292172,77.9336741 C86.7602383,94.7717862 60.540196,95.6877914 42.9309931,80.7214081 L35.5826544,88.2058409 L29.8185347,82.3374498 L37.1668733,74.8505346 C22.4726333,56.9152021 23.3719822,30.2095541 39.9039162,13.371442" id="Fill-13" fill="#FFFFFF"></path>
                        <path d="M39.9039162,13.371442 C57.408317,-4.45714733 85.7877715,-4.45714733 103.292172,13.371442 C120.794136,31.2000313 120.796573,60.1050847 103.292172,77.9336741 C86.7602383,94.7717862 60.540196,95.6877914 42.9309931,80.7214081 L35.5826544,88.2058409 L29.8185347,82.3374498 L37.1668733,74.8505346 C22.4726333,56.9152021 23.3719822,30.2095541 39.9039162,13.371442 Z" id="Stroke-15" stroke="#7450C8" stroke-linecap="round" stroke-linejoin="round"></path>
                        <path d="M36.5716945,45.6523098 C36.5716945,65.4221351 52.3066445,81.4485027 71.7169826,81.4485027 C91.1297578,81.4485027 106.864708,65.4221351 106.864708,45.6523098 C106.864708,25.8824845 91.1297578,9.85611682 71.7169826,9.85611682 C52.3066445,9.85611682 36.5716945,25.8824845 36.5716945,45.6523098" id="Fill-17" fill="#F4F6FC"></path>
                        <path d="M24.8521301,81.5244641 C25.4078254,80.9609596 26.1560642,80.6456949 26.9359874,80.6456949 C27.7183478,80.6456949 28.4665866,80.9609596 29.0222819,81.5244641 L36.3779323,89.0188266 C37.528319,90.1905189 37.528319,92.0895541 36.3779323,93.2637288 L13.9112703,116.146482 C10.7282089,119.386013 5.56852961,119.386013 2.38546815,116.146482 C-0.79515605,112.904469 -0.79515605,107.649231 2.38546815,104.407218 L24.8521301,81.5244641 Z" id="Fill-19" fill="#F4F6FC"></path>
                        <path d="M24.8521301,81.5244641 C25.4078254,80.9609596 26.1560642,80.6456949 26.9359874,80.6456949 C27.7183478,80.6456949 28.4665866,80.9609596 29.0222819,81.5244641 L36.3779323,89.0188266 C37.528319,90.1905189 37.528319,92.0895541 36.3779323,93.2637288 L13.9112703,116.146482 C10.7282089,119.386013 5.56852961,119.386013 2.38546815,116.146482 C-0.79515605,112.904469 -0.79515605,107.649231 2.38546815,104.407218 L24.8521301,81.5244641 Z" id="Stroke-21" stroke="#7450C8" stroke-linecap="round" stroke-linejoin="round"></path>
                        <path d="M36.5716945,45.6523098 C36.5716945,65.4221351 52.3066445,81.4485027 71.7169826,81.4485027 C91.1297578,81.4485027 106.864708,65.4221351 106.864708,45.6523098 C106.864708,25.8824845 91.1297578,9.85611682 71.7169826,9.85611682 C52.3066445,9.85611682 36.5716945,25.8824845 36.5716945,45.6523098 Z" id="Stroke-23" stroke="#7450C8" stroke-linecap="round" stroke-linejoin="round"></path>
                    </g>
                    <g id="Group" transform="translate(77.000000, 34.000000)">
                        <path d="M6.0899098,28.9954301 C6.0899098,30.1375287 6.99805425,31.0640902 8.11987974,31.0640902 L28.4171509,31.0640902 C29.5389764,31.0640902 30.4471208,30.1375287 30.4471208,28.9954301 L30.4471208,8.28405469 C30.4471208,7.13947868 29.5389764,6.21291714 28.4171509,6.21291714 L8.11987974,6.21291714 C6.99805425,6.21291714 6.0899098,7.13947868 6.0899098,8.28405469 L6.0899098,28.9954301 Z" id="Fill-25" fill="#FFFFFF"></path>
                        <path d="M6.0899098,28.9954301 C6.0899098,30.1375287 6.99805425,31.0640902 8.11987974,31.0640902 L28.4171509,31.0640902 C29.5389764,31.0640902 30.4471208,30.1375287 30.4471208,28.9954301 L30.4471208,8.28405469 C30.4471208,7.13947868 29.5389764,6.21291714 28.4171509,6.21291714 L8.11987974,6.21291714 C6.99805425,6.21291714 6.0899098,7.13947868 6.0899098,8.28405469 L6.0899098,28.9954301 Z" id="Stroke-27" stroke="#7450C8" stroke-linecap="round" stroke-linejoin="round"></path>
                        <path d="M28.4181222,6.21341263 L28.4181222,8.65973959e-15" id="Stroke-29" stroke="#7450C8" stroke-linecap="round" stroke-linejoin="round"></path>
                        <path d="M18.269001,6.21341263 L18.269001,8.65973959e-15" id="Stroke-31" stroke="#7450C8" stroke-linecap="round" stroke-linejoin="round"></path>
                        <path d="M8.11987974,6.21341263 L8.11987974,8.65973959e-15" id="Stroke-33" stroke="#7450C8" stroke-linecap="round" stroke-linejoin="round"></path>
                        <path d="M28.4181222,37.2782461 L28.4181222,31.0648335" id="Stroke-35" stroke="#7450C8" stroke-linecap="round" stroke-linejoin="round"></path>
                        <path d="M18.269001,37.2782461 L18.269001,31.0648335" id="Stroke-37" stroke="#7450C8" stroke-linecap="round" stroke-linejoin="round"></path>
                        <path d="M8.11987974,37.2782461 L8.11987974,31.0648335" id="Stroke-39" stroke="#7450C8" stroke-linecap="round" stroke-linejoin="round"></path>
                        <path d="M36.5372734,8.28331146 L30.4473636,8.28331146" id="Stroke-41" stroke="#7450C8" stroke-linecap="round" stroke-linejoin="round"></path>
                        <path d="M36.5372734,18.6382559 L30.4473636,18.6382559" id="Stroke-43" stroke="#7450C8" stroke-linecap="round" stroke-linejoin="round"></path>
                        <path d="M36.5372734,28.9929527 L30.4473636,28.9929527" id="Stroke-45" stroke="#7450C8" stroke-linecap="round" stroke-linejoin="round"></path>
                        <path d="M6.0899098,8.28331146 L4.26325641e-14,8.28331146" id="Stroke-47" stroke="#7450C8" stroke-linecap="round" stroke-linejoin="round"></path>
                        <path d="M6.0899098,18.6382559 L4.26325641e-14,18.6382559" id="Stroke-49" stroke="#7450C8" stroke-linecap="round" stroke-linejoin="round"></path>
                        <path d="M6.0899098,28.9929527 L4.26325641e-14,28.9929527" id="Stroke-51" stroke="#7450C8" stroke-linecap="round" stroke-linejoin="round"></path>
                        <path d="M20.2987281,22.7800355 L14.2088183,22.7800355" id="Stroke-53" stroke="#7450C8" stroke-linecap="round" stroke-linejoin="round"></path>
                    </g>
                    <path d="M150,78.5012407 C150,79.3275434 149.328099,80 148.5,80 C147.67438,80 147,79.3275434 147,78.5012407 C147,77.6724566 147.67438,77 148.5,77 C149.328099,77 150,77.6724566 150,78.5012407 Z" id="Stroke-55" stroke="#7450C8" stroke-linecap="round" stroke-linejoin="round"></path>
                </g>
                <g id="gdpr" fill-rule="nonzero">
                    <g id="Group" fill="#EBA601">
                        <path d="M63.90575,0.3415 L66.009,4.82375 C66.08875,4.9895 66.2445,5.1055 66.426,5.135 L71.173,5.85875 C71.3775,5.89 71.5475,6.033 71.61325,6.22925 C71.679,6.4255 71.629,6.642 71.48425,6.79 L68.015,10.34525 C67.894,10.4715 67.8385,10.64675 67.865,10.81975 L68.67925,15.81175 C68.71275,16.01975 68.62475,16.22875 68.45275,16.35025 C68.28075,16.47175 68.05425,16.4845 67.8695,16.38325 L63.67425,14.06375 C63.50775,13.973 63.30675,13.973 63.14025,14.06375 L58.94725,16.38325 C58.7625,16.4845 58.536,16.47175 58.364,16.35025 C58.19175,16.22875 58.104,16.01975 58.1375,15.81175 L58.94975,10.81975 C58.97625,10.64675 58.92075,10.4715 58.79975,10.34525 L55.3305,6.781 C55.18575,6.633 55.136,6.4165 55.2015,6.22025 C55.267,6.024 55.437,5.88075 55.64175,5.84975 L60.38875,5.126 C60.57025,5.09675 60.726,4.9805 60.80575,4.81475 L62.909,0.3325 C63.0005,0.139 63.1965,0.01625 63.4105,0.018 C63.624,0.02 63.81775,0.14625 63.90575,0.3415 Z" id="Path"></path>
                        <path d="M63.90575,110.68625 L66.009,115.1685 C66.08875,115.33425 66.2445,115.45025 66.426,115.47975 L71.173,116.2035 C71.3775,116.23475 71.5475,116.37775 71.61325,116.574 C71.67875,116.77025 71.629,116.98675 71.48425,117.13475 L68.015,120.69 C67.894,120.81625 67.8385,120.9915 67.865,121.1645 L68.67925,126.1565 C68.71275,126.3645 68.62475,126.5735 68.45275,126.695 C68.2805,126.8165 68.05425,126.82925 67.8695,126.728 L63.6765,124.4085 C63.51,124.31775 63.309,124.31775 63.1425,124.4085 L58.9495,126.728 C58.76475,126.82925 58.53825,126.8165 58.36625,126.695 C58.194,126.5735 58.10625,126.3645 58.13975,126.1565 L58.954,121.1645 C58.9805,120.9915 58.925,120.81625 58.804,120.69 L55.33025,117.12575 C55.1855,116.97775 55.13575,116.76125 55.20125,116.565 C55.26675,116.36875 55.43675,116.2255 55.6415,116.1945 L60.3885,115.47075 C60.57,115.4415 60.72575,115.32525 60.8055,115.1595 L62.90875,110.67725 C63.00025,110.48375 63.19625,110.361 63.41025,110.36275 C63.624,110.36475 63.81775,110.491 63.90575,110.68625 Z" id="Path"></path>
                        <path d="M37.0325,7.803 L39.13125,12.28525 C39.2105,12.4515 39.3665,12.56775 39.54825,12.5965 L44.29525,13.32025 C44.49975,13.3515 44.66975,13.4945 44.7355,13.69075 C44.801,13.887 44.75125,14.1035 44.6065,14.2515 L41.14175,17.81575 C41.01875,17.941 40.963,18.11725 40.99175,18.29025 L41.806,23.28225 C41.84025,23.491 41.752,23.70075 41.579,23.8225 C41.406,23.94425 41.17875,23.95625 40.99375,23.85375 L36.80075,21.53425 C36.63425,21.4435 36.43325,21.4435 36.26675,21.53425 L32.07375,23.85375 C31.88875,23.95625 31.6615,23.94425 31.4885,23.8225 C31.3155,23.70075 31.2275,23.491 31.2615,23.28225 L32.06925,18.2815 C32.09775,18.10875 32.04275,17.933 31.9215,17.807 L28.4545,14.25175 C28.30975,14.1035 28.26,13.8865 28.32625,13.69025 C28.39225,13.49375 28.563,13.351 28.768,13.3205 L33.515,12.59675 C33.69625,12.56825 33.85175,12.45175 33.93,12.2855 L36.042,7.80325 C36.13475,7.61425 36.32675,7.49425 36.5375,7.49425 C36.7475,7.494 36.93975,7.61375 37.0325,7.803 Z" id="Path"></path>
                        <path d="M92.20475,103.36375 L94.3035,107.857 C94.38275,108.02325 94.53875,108.1395 94.7205,108.16825 L99.4675,108.89425 C99.67225,108.9245 99.8425,109.06725 99.90825,109.26325 C99.974,109.4595 99.924,109.67575 99.77875,109.82325 L96.314,113.37425 C96.19075,113.49825 96.135,113.674 96.164,113.8465 L96.97825,118.8385 C97.0125,119.04725 96.92425,119.257 96.75125,119.37875 C96.57825,119.5005 96.351,119.5125 96.166,119.41 L91.973,117.09275 C91.807,117 91.60475,117 91.439,117.09275 L87.246,119.41 C87.061,119.5125 86.83375,119.5005 86.66075,119.37875 C86.48775,119.257 86.39975,119.04725 86.43375,118.8385 L87.248,113.8465 C87.27675,113.6745 87.22175,113.499 87.10025,113.37425 L83.62875,109.81675 C83.48525,109.6685 83.4365,109.45225 83.5025,109.25675 C83.5685,109.06125 83.738,108.91875 83.94225,108.88775 L88.68925,108.16175 C88.8705,108.13325 89.026,108.01675 89.10425,107.8505 L91.2075,103.36825 C91.299,103.1765 91.49225,103.054 91.705,103.053 C91.91725,103.052 92.1115,103.17275 92.20475,103.36375 Z" id="Path"></path>
                        <path d="M17.00275,26.86375 L19.106,31.346 C19.18575,31.51175 19.3415,31.62775 19.523,31.65725 L24.27,32.381 C24.4745,32.41225 24.6445,32.55525 24.71025,32.7515 C24.776,32.94775 24.726,33.16425 24.58125,33.31225 L21.112,36.8675 C20.991,36.99375 20.9355,37.169 20.962,37.342 L21.77625,42.334 C21.80975,42.542 21.72175,42.751 21.54975,42.8725 C21.3775,42.994 21.15125,43.00675 20.9665,42.9055 L16.7735,40.586 C16.607,40.49525 16.406,40.49525 16.2395,40.586 L12.0465,42.9055 C11.86175,43.00675 11.63525,42.994 11.46325,42.8725 C11.291,42.751 11.20325,42.542 11.23675,42.334 L12.051,37.342 C12.0775,37.169 12.022,36.99375 11.901,36.8675 L8.42725,33.30775 C8.285,33.1595 8.237,32.94475 8.30225,32.75 C8.3675,32.55525 8.53575,32.413 8.7385,32.38075 L13.4855,31.657 C13.667,31.62775 13.82275,31.5115 13.9025,31.34575 L16.00575,26.8635 C16.09575,26.669 16.29025,26.54475 16.5045,26.54475 C16.71875,26.54475 16.91275,26.6695 17.00275,26.86375 Z" id="Path"></path>
                        <path d="M112.56575,82.03625 L114.669,86.5185 C114.74725,86.6845 114.9025,86.801 115.084,86.82975 L119.831,87.5535 C120.036,87.584 120.2065,87.72675 120.27275,87.92325 C120.339,88.11975 120.28925,88.3365 120.1445,88.48475 L116.673,92.04 C116.5515,92.166 116.49675,92.34175 116.52525,92.5145 L117.3395,97.5065 C117.37375,97.71525 117.2855,97.925 117.1125,98.04675 C116.9395,98.1685 116.71225,98.1805 116.52725,98.078 L112.33425,95.7585 C112.16775,95.66775 111.96675,95.66775 111.80025,95.7585 L107.60725,98.078 C107.42225,98.1805 107.195,98.1685 107.022,98.04675 C106.849,97.925 106.761,97.71525 106.795,97.5065 L107.60925,92.5145 C107.63775,92.3415 107.582,92.16525 107.45925,92.04 L103.98775,88.48025 C103.8455,88.332 103.7975,88.11725 103.86275,87.9225 C103.928,87.72775 104.09625,87.5855 104.299,87.55325 L109.046,86.8295 C109.22775,86.80075 109.38375,86.6845 109.463,86.51825 L111.56625,82.036 C111.657,81.84175 111.85175,81.71775 112.066,81.71775 C112.28025,81.71775 112.475,81.84225 112.56575,82.03625 Z" id="Path"></path>
                        <path d="M8.7335,55.51375 L10.83675,59.996 C10.9165,60.16175 11.07225,60.27775 11.25375,60.30725 L16.00075,61.031 C16.20525,61.06225 16.37525,61.20525 16.441,61.4015 C16.5065,61.59775 16.45675,61.81425 16.312,61.96225 L12.84275,65.5175 C12.72175,65.64375 12.66625,65.819 12.69275,65.992 L13.507,70.984 C13.5405,71.192 13.4525,71.401 13.2805,71.5225 C13.1085,71.644 12.882,71.65675 12.69725,71.5555 L8.502,69.236 C8.3355,69.14525 8.1345,69.14525 7.968,69.236 L3.775,71.5555 C3.59025,71.65675 3.36375,71.644 3.19175,71.5225 C3.0195,71.401 2.93175,71.192 2.96525,70.984 L3.7775,65.992 C3.804,65.819 3.7485,65.64375 3.6275,65.5175 L0.1575,61.9535 C0.01275,61.8055 -0.037,61.589 0.0285,61.39275 C0.094,61.1965 0.264,61.05325 0.46875,61.02225 L5.21575,60.2985 C5.39725,60.26925 5.553,60.153 5.63275,59.98725 L7.736,55.505 C7.8275,55.3115 8.0235,55.18875 8.2375,55.1905 C8.45175,55.1925 8.64525,55.3185 8.7335,55.51375 Z" id="Path"></path>
                        <path d="M119.07825,55.51375 L121.1815,59.996 C121.26125,60.16175 121.417,60.27775 121.5985,60.30725 L126.3455,61.031 C126.55,61.06225 126.72,61.20525 126.78575,61.4015 C126.85125,61.59775 126.8015,61.81425 126.65675,61.96225 L123.1875,65.5175 C123.0665,65.64375 123.011,65.819 123.0375,65.992 L123.85175,70.984 C123.88525,71.192 123.79725,71.401 123.62525,71.5225 C123.45325,71.644 123.22675,71.65675 123.042,71.5555 L118.849,69.236 C118.6825,69.14525 118.4815,69.14525 118.315,69.236 L114.122,71.5555 C113.93725,71.65675 113.71075,71.644 113.53875,71.5225 C113.3665,71.401 113.27875,71.192 113.31225,70.984 L114.1265,65.992 C114.153,65.819 114.0975,65.64375 113.9765,65.5175 L110.50275,61.95325 C110.358,61.80525 110.30825,61.58875 110.37375,61.3925 C110.43925,61.19625 110.60925,61.053 110.814,61.022 L115.561,60.29825 C115.7425,60.269 115.89825,60.15275 115.978,59.987 L118.08125,55.50475 C118.17275,55.31125 118.36875,55.1885 118.58275,55.19025 C118.7965,55.1925 118.99,55.3185 119.07825,55.51375 Z" id="Path"></path>
                        <path d="M17.976,81.5795 L20.07925,86.06175 C20.1585,86.228 20.3145,86.34425 20.49625,86.373 L25.24325,87.09675 C25.44775,87.128 25.61775,87.271 25.6835,87.46725 C25.749,87.6635 25.69925,87.88 25.5545,88.028 L22.08525,91.5855 C21.962,91.7095 21.90625,91.88525 21.93525,92.05775 L22.7495,97.04975 C22.78375,97.2585 22.6955,97.46825 22.5225,97.59 C22.3495,97.71175 22.12225,97.72375 21.93725,97.62125 L17.74425,95.304 C17.57825,95.21125 17.376,95.21125 17.21025,95.304 L13.01725,97.62125 C12.83125,97.72375 12.603,97.7105 12.43025,97.58725 C12.2575,97.464 12.17075,97.25225 12.20725,97.043 L13.0195,92.051 C13.04825,91.879 12.99325,91.7035 12.87175,91.57875 L9.4,88.028 C9.25525,87.88 9.2055,87.6635 9.271,87.46725 C9.3365,87.271 9.5065,87.12775 9.71125,87.09675 L14.45825,86.373 C14.6395,86.3445 14.795,86.228 14.87325,86.06175 L16.9765,81.5795 C17.0685,81.387 17.263,81.26425 17.47625,81.26425 C17.6895,81.26425 17.884,81.38675 17.976,81.5795 Z" id="Path"></path>
                        <path d="M113.53675,26.407 L115.64,30.88925 C115.71975,31.055 115.8755,31.171 116.057,31.2005 L120.804,31.92425 C121.0085,31.9555 121.1785,32.0985 121.24425,32.29475 C121.31,32.491 121.26,32.7075 121.11525,32.8555 L117.646,36.413 C117.52475,36.53825 117.46925,36.713 117.496,36.88525 L118.31025,41.87725 C118.34375,42.08525 118.256,42.29425 118.08375,42.41575 C117.9115,42.53725 117.68525,42.55 117.5005,42.44875 L113.3075,40.1315 C113.1415,40.03875 112.93925,40.03875 112.7735,40.1315 L108.5805,42.44875 C108.39425,42.554 108.164,42.542 107.98975,42.41825 C107.81525,42.2945 107.72825,42.081 107.76625,41.8705 L108.5805,36.8785 C108.60825,36.70625 108.5525,36.531 108.4305,36.40625 L104.96125,32.84875 C104.8165,32.70075 104.76675,32.48425 104.83225,32.288 C104.89775,32.09175 105.06775,31.9485 105.2725,31.9175 L110.0195,31.19375 C110.20125,31.165 110.35725,31.04875 110.4365,30.8825 L112.53975,26.40025 C112.63225,26.208 112.82725,26.08625 113.0405,26.08775 C113.2535,26.08925 113.44675,26.2135 113.53675,26.407 Z" id="Path"></path>
                        <path d="M36.05925,100.636 L38.1625,105.11825 C38.24175,105.2845 38.39775,105.40075 38.5795,105.4295 L43.3265,106.15325 C43.531,106.1845 43.701,106.3275 43.76675,106.52375 C43.8325,106.72 43.7825,106.9365 43.63775,107.0845 L40.1685,110.63975 C40.0475,110.766 39.992,110.94125 40.0185,111.11425 L40.83275,116.10625 C40.86625,116.31425 40.77825,116.52325 40.60625,116.64475 C40.434,116.76625 40.20775,116.779 40.023,116.67775 L35.83,114.35825 C35.6635,114.2675 35.4625,114.2675 35.296,114.35825 L31.0985,116.68425 C30.91375,116.7855 30.68725,116.77275 30.51525,116.65125 C30.343,116.52975 30.25525,116.32075 30.28875,116.11275 L31.103,111.12075 C31.1295,110.94775 31.074,110.7725 30.953,110.64625 L27.48375,107.08425 C27.339,106.93625 27.28925,106.71975 27.35475,106.5235 C27.42025,106.32725 27.59025,106.184 27.795,106.153 L32.542,105.42925 C32.7235,105.4 32.87925,105.28375 32.959,105.118 L35.06225,100.63575 C35.1535,100.443 35.34775,100.32 35.561,100.32 C35.77375,100.32025 35.968,100.44325 36.05925,100.636 Z" id="Path"></path>
                        <path d="M91.23175,5.07525 L93.335,9.5575 C93.41425,9.72375 93.57025,9.84 93.752,9.86875 L98.499,10.5925 C98.7035,10.62375 98.8735,10.76675 98.93925,10.963 C99.00475,11.15925 98.955,11.37575 98.81025,11.52375 L95.341,15.079 C95.22,15.20525 95.1645,15.3805 95.191,15.5535 L96.00525,20.5455 C96.03875,20.7535 95.95075,20.9625 95.77875,21.084 C95.6065,21.2055 95.38025,21.21825 95.1955,21.117 L90.9935,18.7975 C90.827,18.70675 90.626,18.70675 90.4595,18.7975 L86.27075,21.12575 C86.086,21.227 85.8595,21.21425 85.6875,21.09275 C85.5155,20.97125 85.4275,20.76225 85.461,20.55425 L86.27525,15.56225 C86.30175,15.38925 86.24625,15.214 86.12525,15.08775 L82.656,11.5235 C82.51125,11.3755 82.4615,11.159 82.527,10.96275 C82.5925,10.7665 82.7625,10.62325 82.96725,10.59225 L87.71425,9.8705 C87.89575,9.84125 88.0515,9.725 88.13125,9.55925 L90.2345,5.077 C90.324,4.8825 90.51825,4.7575 90.7325,4.757 C90.94625,4.757 91.14125,4.881 91.23175,5.07525 Z" id="Path"></path>
                    </g>
                    <g id="Group" transform="translate(31.000000, 53.000000)" fill="#7450C8">
                        <path d="M10.5,22 L3.5,22 C1.56692155,22 0,20.3582709 0,18.3333679 L0,3.66663205 C0,1.64152137 1.56692155,0 3.5,0 L10.5,0 C12.4330784,0 14,1.64152137 14,3.66663205 C14,4.67908355 13.2165392,5.50005192 12.2499009,5.50005192 C11.2832625,5.50005192 10.4998018,4.67929124 10.4998018,3.66663205 L3.49980176,3.66663205 L3.49980176,18.3333679 L10.4998018,18.3333679 L10.4998018,14.6667359 L8.74970263,14.6667359 C7.78326253,14.6667359 6.99960351,13.8459752 6.99960351,12.833316 C6.99960351,11.8206568 7.78306429,10.9998962 8.74970263,10.9998962 L12.2497026,10.9998962 C13.2161427,10.9998962 13.9998018,11.8206568 13.9998018,12.833316 L13.9998018,18.3333679 C14,20.3584786 12.4330784,22 10.5,22 Z" id="Path"></path>
                        <path d="M24.0000991,22 L18.7500743,22 C17.7836479,22 17,21.1792471 17,20.1665974 L17,1.83340256 C17,0.820960616 17.7834497,0 18.7500743,0 L24.0000991,0 C27.866003,0 31,3.28321942 31,7.33319488 L31,14.6663898 C31.0001982,18.7167806 27.8662013,22 24.0000991,22 Z M20.5001487,18.3334026 L24.0000991,18.3334026 C25.9331502,18.3334026 27.5000496,16.691689 27.5000496,14.6668051 L27.5000496,7.33361024 C27.5000496,5.30851867 25.9331502,3.6670128 24.0000991,3.6670128 L20.5001487,3.6670128 L20.5001487,18.3334026 Z" id="Shape"></path>
                        <path d="M36,22 C34.8955596,22 34,21.1792471 34,20.1665974 L34,1.83340256 C34,0.820960616 34.895333,0 36,0 C37.104667,0 38,0.820752936 38,1.83340256 L38,20.1665974 C38,21.1792471 37.104667,22 36,22 Z" id="Path"></path>
                        <path d="M43.7499752,15 L36.7500743,15 C35.7836479,15 35,14.1606015 35,13.1249469 L35,1.8750531 C35,0.839610886 35.7834497,0 36.7500743,0 L43.7499752,0 C46.6494527,0 49,2.51840786 49,5.6249469 L49,9.3748407 C49,12.4815921 46.6494527,15 43.7499752,15 Z M38.4999504,11.2501062 L43.7499752,11.2501062 C44.7164016,11.2501062 45.5000496,10.4107077 45.5000496,9.3750531 L45.5000496,5.6251593 C45.5000496,4.58971709 44.7165999,3.7501062 43.7499752,3.7501062 L38.4999504,3.7501062 L38.4999504,11.2501062 Z" id="Shape"></path>
                        <path d="M52,22 C50.8955596,22 50,21.1792471 50,20.1665974 L50,1.83340256 C50,0.820960616 50.895333,0 52,0 C53.104667,0 54,0.820752936 54,1.83340256 L54,20.1665974 C53.9997734,21.1792471 53.1044404,22 52,22 Z" id="Path"></path>
                        <path d="M59.7499752,15 L52.7500743,15 C51.7836479,15 51,14.1606015 51,13.1249469 L51,1.8750531 C51,0.839610886 51.7834497,0 52.7500743,0 L59.7499752,0 C62.6494527,0 65,2.51840786 65,5.6249469 L65,9.3748407 C65,12.4815921 62.6494527,15 59.7499752,15 Z M54.4999504,11.2501062 L59.7499752,11.2501062 C60.7164016,11.2501062 61.5000496,10.4107077 61.5000496,9.3750531 L61.5000496,5.6251593 C61.5000496,4.58971709 60.7165999,3.7501062 59.7499752,3.7501062 L54.4999504,3.7501062 L54.4999504,11.2501062 Z" id="Shape"></path>
                        <path d="M63.1430074,22 C62.1174224,22 61.2858044,21.1792626 61.2858044,20.1666321 L61.2858044,16.5001038 C61.2858044,15.487681 60.4543968,14.6667359 59.4286015,14.6667359 L53.857203,14.6667359 C52.831618,14.6667359 52,13.8459985 52,12.8333679 C52,11.8207374 52.8314076,11 53.857203,11 L59.4286015,11 C62.5055669,11 65,13.46242 65,16.4998962 L65,20.1664244 C65.0002103,21.1792626 64.1688028,22 63.1430074,22 Z" id="Path"></path>
                    </g>
                </g>
            </g>
        </g>
    </g>
</svg>