<?xml version="1.0" encoding="UTF-8"?>
<svg width="26px" height="20px" viewBox="0 0 26 20" version="1.1" xmlns="http://www.w3.org/2000/svg" xmlns:xlink="http://www.w3.org/1999/xlink">
    <!-- Generator: Sketch 52.6 (67491) - http://www.bohemiancoding.com/sketch -->
    <title>Shape</title>
    <desc>Created with Sketch.</desc>
    <g id="18--Lead-Magnets" stroke="none" stroke-width="1" fill="none" fill-rule="evenodd">
        <g id="1.5--Lead-1---confirmation-message" transform="translate(-291.000000, -489.000000)" fill="#7450C8" fill-rule="nonzero">
            <g id="Group-6" transform="translate(139.000000, 465.000000)">
                <g id="Group-4">
                    <path d="M177.36848,31.0477387 L176.130204,30.3567839 L164.985728,24.0753769 L164.849518,24.0753769 C164.7736,24.0428125 164.694828,24.0175754 164.614245,24 L164.378973,24 L164.156083,24 C164.071482,24.017587 163.988601,24.0428131 163.908428,24.0753769 L163.772218,24.0753769 L152.627741,30.3567839 C152.239777,30.5798508 152,30.9973279 152,31.4497487 C152,31.9021695 152.239777,32.3196467 152.627741,32.5427136 L155.711047,34.2763819 L155.711047,40.2311558 C155.711047,42.312631 157.374231,44 159.425872,44 L169.332074,44 C171.383715,44 173.046899,42.312631 173.046899,40.2311558 L173.046899,34.2763819 L175.52345,32.8693467 L175.52345,36.4623116 C175.52345,37.1561366 176.077844,37.718593 176.761725,37.718593 C177.445605,37.718593 178,37.1561366 178,36.4623116 L178,32.1407035 C177.99923,31.6874823 177.757901,31.2698167 177.36848,31.0477387 Z M170.352941,40.3631833 C170.352941,41.0972384 169.805148,41.6923077 169.129412,41.6923077 L159.341176,41.6923077 C158.66544,41.6923077 158.117647,41.0972384 158.117647,40.3631833 L158.117647,35.5384615 L163.635765,38.8612726 L163.819294,38.9410201 L163.929412,38.9410201 C164.030971,38.9549197 164.133735,38.9549197 164.235294,38.9410201 C164.336853,38.9549197 164.439617,38.9549197 164.541176,38.9410201 L164.651294,38.9410201 C164.716249,38.9261441 164.778343,38.8991631 164.834824,38.8612726 L170.352941,35.5384615 L170.352941,40.3631833 Z M164.235294,36.3076923 L155.823529,31.3076923 L164.235294,26.3076923 L172.647059,31.3076923 L164.235294,36.3076923 Z" id="Shape"></path>
                </g>
            </g>
        </g>
    </g>
</svg>