<?xml version="1.0" encoding="UTF-8"?>
<svg width="422px" height="322px" viewBox="0 0 422 322" version="1.1" xmlns="http://www.w3.org/2000/svg" xmlns:xlink="http://www.w3.org/1999/xlink">
    <!-- Generator: Sketch 52.6 (67491) - http://www.bohemiancoding.com/sketch -->
    <title>Group 6</title>
    <desc>Created with Sketch.</desc>
    <defs>
        <rect id="path-1" x="0" y="0" width="422" height="322" rx="16"></rect>
    </defs>
    <g id="Website" stroke="none" stroke-width="1" fill="none" fill-rule="evenodd">
        <g id="15--Software-Escrow" transform="translate(-139.000000, -3374.000000)">
            <g id="Group-19" transform="translate(139.000000, 2700.000000)">
                <g id="Group-16" transform="translate(0.000000, 674.000000)">
                    <g id="Group-6">
                        <rect id="Rectangle" fill="#D8E5E5" x="0" y="0" width="422" height="322" rx="16"></rect>
                        <g id="Teammates-8">
                            <mask id="mask-2" fill="white">
                                <use xlink:href="#path-1"></use>
                            </mask>
                            <g id="Mask"></g>
                            <g mask="url(#mask-2)">
                                <g transform="translate(-495.000000, 60.000000)">
                                    <g id="Code" transform="translate(558.000000, 8.000000)">
                                        <rect id="XMLID_642_" fill="#FF647C" fill-rule="nonzero" x="26.3832258" y="24.6048" width="114.985161" height="90.0768"></rect>
                                        <path d="M111.972903,43.4016 L52.0393548,43.4016 C50.3774194,43.4016 50.3774194,46.0416 52.0393548,46.0416 L111.972903,46.0416 C113.634839,45.936 113.634839,43.4016 111.972903,43.4016 Z" id="XMLID_120_" fill="#FFFFFF" fill-rule="nonzero"></path>
                                        <path d="M111.972903,58.9248 L52.0393548,58.9248 C50.3774194,58.9248 50.3774194,61.5648 52.0393548,61.5648 L111.972903,61.5648 C113.634839,61.5648 113.634839,58.9248 111.972903,58.9248 Z" id="XMLID_119_" fill="#FFFFFF" fill-rule="nonzero"></path>
                                        <path d="M111.972903,74.448 L52.0393548,74.448 C50.3774194,74.448 50.3774194,77.088 52.0393548,77.088 L111.972903,77.088 C113.634839,77.088 113.634839,74.448 111.972903,74.448 Z" id="XMLID_118_" fill="#FFFFFF" fill-rule="nonzero"></path>
                                        <path d="M95.7690323,90.0768 L51.7277419,90.0768 C50.4812903,90.0768 50.4812903,92.7168 51.7277419,92.7168 L95.7690323,92.7168 C96.9116129,92.6112 96.9116129,90.0768 95.7690323,90.0768 Z" id="XMLID_117_" fill="#FFFFFF" fill-rule="nonzero"></path>
                                        <path d="M46.6380645,51.8496 C46.3264516,51.8496 46.0148387,51.744 45.7032258,51.4272 L39.3670968,44.6688 C38.8477419,44.1408 38.9516129,43.4016 39.3670968,42.8736 L45.7032258,36.432 C46.2225806,35.904 47.0535484,35.904 47.4690323,36.432 C47.9883871,36.96 47.9883871,37.8048 47.4690323,38.2272 L41.963871,43.824 L47.4690323,49.7376 C47.9883871,50.2656 47.8845161,51.1104 47.4690323,51.5328 C47.2612903,51.6384 46.9496774,51.8496 46.6380645,51.8496 Z" id="XMLID_2010_" fill="#FFFFFF" fill-rule="nonzero"></path>
                                        <path d="M101.481935,100.1088 C101.170323,100.1088 100.85871,100.0032 100.547097,99.6864 C100.027742,99.1584 100.027742,98.3136 100.547097,97.8912 L106.052258,92.2944 L100.547097,86.3808 C100.027742,85.8528 100.131613,85.008 100.547097,84.5856 C101.066452,84.0576 101.897419,84.1632 102.312903,84.5856 L108.649032,91.344 C109.168387,91.872 109.064516,92.6112 108.649032,93.1392 L102.312903,99.5808 C102.105161,100.0032 101.793548,100.1088 101.481935,100.1088 Z" id="XMLID_2007_" fill="#FFFFFF" fill-rule="nonzero"></path>
                                        <path d="M18.4890323,18.48 C13.3993548,12.672 8.20580645,6.864 3.11612903,1.056 C1.97354839,-0.2112 0.207741935,1.6896 1.35032258,2.8512 L16.7232258,20.2752 C17.7619355,21.5424 19.6316129,19.7472 18.4890323,18.48 Z" id="XMLID_105_" fill="#BCD7FD" fill-rule="nonzero"></path>
                                        <path d="M158.299355,7.4976 C154.248387,11.4048 150.197419,15.312 146.146452,19.1136 C145.003871,20.2752 146.769677,22.0704 147.912258,20.9088 C151.963226,17.0016 156.014194,13.0944 160.065161,9.2928 C161.311613,8.1312 159.441935,6.336 158.299355,7.4976 Z" id="XMLID_353_" fill="#BCD7FD" fill-rule="nonzero"></path>
                                        <path d="M23.0593548,116.2656 C19.6316129,120.5952 16.203871,124.8192 12.776129,129.1488 C11.7374194,130.416 13.5032258,132.3168 14.5419355,130.944 C17.9696774,126.6144 21.3974194,122.3904 24.8251613,118.0608 C25.863871,116.8992 24.0980645,114.9984 23.0593548,116.2656 Z" id="XMLID_352_" fill="#BCD7FD" fill-rule="nonzero"></path>
                                    </g>
                                    <g id="Man_2" transform="translate(601.000000, 0.000000)">
                                        <g id="Head_2_" transform="translate(124.516556, 0.000000)" fill-rule="nonzero">
                                            <path d="M39.6569536,75.7870186 C41.0172185,76.3118594 69.792053,118.719 69.792053,118.719 L99.9271523,84.1844721 L60.584106,54.7933846 L39.6569536,75.7870186 Z" id="XMLID_604_" fill="#952C28"></path>
                                            <path d="M48.8649007,88.3831989 C44.0516556,81.4552997 40.0754967,75.9969549 39.5523179,75.7870186 L47.2953642,67.9144058 C50.5390728,74.3174642 51.6900662,82.4000132 48.8649007,88.3831989 Z" id="XMLID_603_" fill="#000000"></path>
                                            <path d="M53.992053,7.66267639 C45.6211921,-0.629809018 24.3801325,3.14904509 13.184106,11.756435 C8.26622517,15.5352891 3.76688742,13.016053 4.60397351,18.0545252 C6.59205298,30.5457374 13.184106,70.7485464 20.9271523,77.3615411 C34.5298013,88.8030716 52.4225166,76.7317321 57.8635762,62.2461247 C63.2,47.6555491 65.9205298,19.5240796 53.992053,7.66267639 Z" id="XMLID_602_" fill="#952C28"></path>
                                            <path d="M0.941721854,16.5849708 C3.03443709,26.5569469 21.3456954,21.4135066 30.6582781,16.689939 C33.1695364,27.3966923 40.7033113,53.9536392 61.7350993,55.4231936 C70.210596,36.4239549 69.3735099,7.87261273 57.1311258,8.81732626 C45.9350993,-6.82293103 24.2754967,3.25401326 13.0794702,11.9663714 C7.95231788,6.9278992 1.56953642,8.08254907 0.941721854,16.5849708 Z" id="XMLID_601_" fill="#000000"></path>
                                            <path d="M54.8291391,32.9600053 C51.3761589,27.186756 41.0172185,25.7172016 35.0529801,32.750069 C36.2039735,39.9928727 37.1456954,47.1307082 38.0874172,54.4784801 C42.1682119,55.5281618 50.015894,54.1635756 53.8874172,49.7549125 C58.1774834,44.7164403 58.4913907,39.1531273 54.8291391,32.9600053 Z" id="XMLID_599_" fill="#952C28"></path>
                                            <path d="M5.75496689,47.5505809 C5.4410596,44.7164403 7.84768212,42.5121087 10.5682119,42.6170769 C11.405298,42.6170769 12.1377483,43.6667586 12.0331126,44.4015358 C12.0331126,44.506504 11.9284768,44.506504 11.9284768,44.6114721 C12.2423841,44.6114721 12.4516556,44.7164403 12.7655629,44.7164403 C14.7536424,45.3462493 13.602649,48.3903263 11.6145695,47.7605172 C11.6145695,47.7605172 11.5099338,47.8654854 11.7192053,47.8654854 C13.2887417,48.0754217 13.7072848,50.3847215 12.2423841,51.0145305 C9.41721854,52.1691804 6.06887417,50.4896896 5.75496689,47.5505809 Z" id="XMLID_595_" fill="#952C28"></path>
                                            <path d="M13.3933775,34.7444642 C13.0794702,36.3189867 12.6609272,37.7885411 12.3470199,39.3630637 C12.1377483,40.202809 13.4980132,40.6226817 13.7072848,39.7829363 C14.0211921,38.2084138 14.4397351,36.7388594 14.7536424,35.1643369 C14.8582781,34.2196233 13.4980132,33.7997507 13.3933775,34.7444642 Z" id="XMLID_545_" fill="#000000"></path>
                                            <path d="M47.0860927,36.3189867 C46.1443709,37.4736366 45.202649,38.6282865 44.2609272,39.8879045 C44.2609272,39.8879045 44.2609272,39.8879045 44.2609272,39.8879045 L43.5284768,40.832618 C43.005298,41.5673952 43.9470199,42.5121087 44.5748344,41.8822997 C45.7258278,40.4127454 46.981457,38.943191 48.1324503,37.3686684 C48.6556291,36.6338912 47.6092715,35.5842095 47.0860927,36.3189867 Z" id="XMLID_543_" fill="#000000"></path>
                                            <path d="M30.5536424,63.9256154 C30.4490066,62.9809018 29.0887417,63.4007745 29.1933775,64.3454881 C29.6119205,67.0746605 28.3562914,69.8038329 26.0543046,71.2733873 C25.3218543,71.7982281 26.0543046,72.952878 26.786755,72.5330053 C29.6119205,70.6435782 30.9721854,67.389565 30.5536424,63.9256154 Z" id="XMLID_540_" fill="#000000"></path>
                                            <path d="M16.5324503,27.186756 C15.381457,26.9768196 14.2304636,26.7668833 12.9748344,26.4519788 C12.2423841,26.3470106 11.405298,26.6619151 11.1960265,27.3966923 C10.986755,28.1314695 11.405298,28.9712148 12.1377483,29.1811512 C13.2887417,29.3910875 14.4397351,29.6010239 15.6953642,29.9159284 C16.4278146,30.0208965 17.2649007,29.705992 17.4741722,28.9712148 C17.6834437,28.2364377 17.2649007,27.2917241 16.5324503,27.186756 Z" id="XMLID_539_" fill="#000000"></path>
                                        </g>
                                        <g id="Hand_2_" transform="translate(61.735099, 79.775809)" fill-rule="nonzero">
                                            <path d="M122.319205,54.4784801 C94.381457,92.2670212 87.0569536,112.106005 87.0569536,112.106005 C87.0569536,112.106005 56.5033113,49.5449761 44.1562914,36.7388594 C44.1562914,36.7388594 8.05695364,23.7228064 3.55761589,30.3358011 C-0.941721854,36.9487957 0.941721854,49.9648488 3.66225166,57.7324934 C6.38278146,65.5001379 16.9509934,69.8038329 27.1006623,68.7541512 C27.1006623,68.7541512 50.4344371,177.081302 71.0476821,181.594934 C91.5562914,186.108565 112.169536,183.589329 114.680795,183.274424 C128.492715,181.594934 182.275497,79.3559363 182.380132,75.8919867 C182.380132,72.4280371 122.319205,54.4784801 122.319205,54.4784801 Z" id="XMLID_548_" fill="#841E1E"></path>
                                            <path d="M90.1960265,118.509064 C89.4635762,116.724605 88.7311258,114.835178 87.9986755,113.050719 C87.6847682,112.315942 86.4291391,112.630846 86.7430464,113.365623 C87.4754967,115.150082 88.207947,117.039509 88.9403974,118.823968 C89.2543046,119.558745 90.5099338,119.243841 90.1960265,118.509064 Z" id="XMLID_164_" fill="#FFFFFF"></path>
                                            <g id="Cup_1_" transform="translate(4.185430, 0.000000)">
                                                <polygon id="XMLID_170_" fill="#2252B2" transform="translate(18.951169, 43.762521) rotate(8.870752) translate(-18.951169, -43.762521) " points="3.50731163 24.0232943 34.3759836 24.0382344 34.3950259 63.5017478 3.52635386 63.4868078"></polygon>
                                                <path d="M16.0092715,30.4407692 C14.8582781,38.2084138 13.7072848,45.8710902 12.6609272,53.6387347 C12.4516556,55.2132573 14.8582781,55.9480345 15.1721854,54.3735119 C16.3231788,46.6058674 17.4741722,38.943191 18.5205298,31.1755464 C18.7298013,29.4960557 16.218543,28.7612785 16.0092715,30.4407692 Z" id="XMLID_166_" fill="#FFFFFF"></path>
                                                <path d="M26.2635762,0.419872679 C20.613245,3.14904509 17.7880795,9.76203979 19.6715232,15.7452255 C20.194702,17.319748 22.6013245,16.689939 22.1827815,15.0104483 C20.613245,10.0769443 23.0198675,4.82853581 27.6238411,2.62420424 C29.0887417,1.88942706 27.7284768,-0.314904509 26.2635762,0.419872679 Z" id="XMLID_141_" fill="#BCD7FD"></path>
                                                <path d="M29.8211921,4.82853581 C26.1589404,7.24280371 24.2754967,11.3365623 24.9033113,15.6402573 C25.1125828,17.319748 27.6238411,16.5849708 27.4145695,14.9054801 C26.9960265,11.756435 28.4609272,8.71235809 31.181457,7.03286737 C32.4370861,6.19312201 31.181457,3.98879045 29.8211921,4.82853581 Z" id="XMLID_140_" fill="#BCD7FD"></path>
                                            </g>
                                            <g id="XMLID_29_" transform="translate(0.000000, 27.291724)">
                                                <path d="M8.68476821,2.4142679 C7.42913907,1.99439523 6.8013245,3.4639496 7.32450331,4.30369496 C6.48741722,4.30369496 5.75496689,4.5136313 5.02251656,5.14344032 C2.92980132,6.82293103 3.24370861,10.2868806 5.4410596,11.756435 C5.65033113,11.9663714 5.96423841,11.9663714 6.17350993,11.9663714 C6.2781457,13.1210212 6.48741722,14.2756711 6.90596026,15.1154164 C6.90596026,15.2203846 6.8013245,15.430321 6.8013245,15.5352891 C6.06887417,15.6402573 5.33642384,16.06013 4.60397351,16.7949072 C4.0807947,17.319748 3.66225166,18.2644615 3.45298013,19.3141432 C1.3602649,22.1482838 -1.04635762,25.8221698 0.732450331,29.4960557 C1.77880795,31.5954191 4.0807947,32.9600053 6.48741722,32.3301963 C9.94039735,31.3854828 10.986755,27.5016605 9.94039735,24.3526154 C10.0450331,24.142679 10.0450331,23.9327427 10.1496689,23.7228064 C10.2543046,23.4079019 10.3589404,23.1979655 10.4635762,22.883061 C10.6728477,22.3582202 10.7774834,21.7284111 10.8821192,20.9936339 C12.1377483,19.6290477 12.7655629,17.949557 12.7655629,16.1650981 C13.8119205,15.0104483 14.6490066,13.5408939 14.9629139,12.2812759 C15.9046358,7.87261273 12.8701987,3.88382228 8.68476821,2.4142679 Z M6.8013245,7.13783554 C6.8013245,7.34777188 6.8013245,7.45274005 6.8013245,7.66267639 C6.8013245,7.9775809 6.90596026,8.18751724 7.01059603,8.39745358 C6.8013245,8.60738992 6.69668874,8.92229443 6.59205298,9.23719894 C5.96423841,8.60738992 6.17350993,7.55770822 6.8013245,7.13783554 Z" id="XMLID_167_" fill="#841E1E"></path>
                                                <path d="M11.3006623,13.4359257 C7.95231788,12.5961804 5.54569536,9.86700796 4.91788079,6.50802652 C4.81324503,5.87821751 3.76688742,6.08815385 3.87152318,6.82293103 C4.49933775,10.496817 7.32450331,13.5408939 10.986755,14.4856074 C11.7192053,14.5905756 11.9284768,13.5408939 11.3006623,13.4359257 Z" id="XMLID_209_" fill="#000000"></path>
                                                <path d="M8.1615894,20.1538886 C5.96423841,19.6290477 4.29006623,18.0545252 3.66225166,15.9551618 C3.45298013,15.3253528 2.51125828,15.5352891 2.61589404,16.2700663 C3.34834437,18.7893024 5.33642384,20.6787294 7.84768212,21.2035703 C8.58013245,21.3085385 8.78940397,20.2588568 8.1615894,20.1538886 Z" id="XMLID_210_" fill="#000000"></path>
                                                <path d="M7.74304636,27.9215332 C5.65033113,27.5016605 3.97615894,25.8221698 3.66225166,23.6178382 C3.55761589,22.9880292 2.51125828,23.1979655 2.61589404,23.9327427 C3.03443709,26.4519788 5.02251656,28.446374 7.42913907,28.9712148 C8.1615894,29.076183 8.47549669,28.0265013 7.74304636,27.9215332 Z" id="XMLID_211_" fill="#000000"></path>
                                                <path d="M56.0847682,28.1314695 C55.7708609,21.9383475 52.8410596,13.8557984 47.6092715,9.44713528 C33.0649007,0.10496817 31.181457,-0.944713528 29.402649,0.629809018 C25.8450331,3.77885411 28.8794702,7.66267639 32.1231788,9.97197613 C32.7509934,11.0216578 35.1576159,13.5408939 35.6807947,13.9607666 C35.8900662,14.8005119 41.9589404,28.1314695 43.7377483,30.3358011 C44.3655629,31.1755464 45.5165563,30.8606419 45.9350993,30.2308329 C46.981457,30.4407692 48.1324503,30.2308329 48.9695364,29.6010239 C50.7483444,29.3910875 52.1086093,28.3414058 53.0503311,26.9768196 C53.2596026,27.6066286 53.3642384,28.1314695 53.5735099,28.7612785 C53.992053,29.9159284 56.189404,29.4960557 56.0847682,28.1314695 Z" id="XMLID_169_" fill="#841E1E"></path>
                                                <path d="M43.4238411,27.816565 C42.2728477,25.6122334 41.0172185,23.4079019 39.8662252,21.2035703 C39.5523179,20.5737613 38.610596,21.0986021 38.9245033,21.7284111 L42.4821192,28.3414058 C42.9006623,28.9712148 43.7377483,28.446374 43.4238411,27.816565 Z" id="XMLID_212_" fill="#000000"></path>
                                            </g>
                                        </g>
                                        <g id="Body" transform="translate(177.880795, 71.378355)" fill-rule="nonzero">
                                            <path d="M130.899338,194.715955 L8.9986755,194.715955 C8.89403974,193.141432 8.68476821,191.461942 8.58013245,189.572515 C7.95231788,182.749584 7.21986755,174.247162 6.48741722,164.695058 C6.38278146,163.015568 6.17350993,161.336077 6.06887417,159.551618 C5.85960265,157.347286 5.75496689,155.037987 5.54569536,152.623719 C5.4410596,150.944228 5.33642384,149.264737 5.12715232,147.480278 C4.49933775,139.502698 3.97615894,131.105244 3.45298013,122.602822 C3.34834437,120.923332 3.24370861,119.138873 3.13907285,117.459382 C3.03443709,115.150082 2.82516556,112.840782 2.7205298,110.636451 C2.61589404,108.95696 2.51125828,107.172501 2.40662252,105.493011 C1.98807947,97.9353024 1.67417219,90.4825623 1.3602649,83.1347904 C1.25562914,81.4552997 1.25562914,79.6708408 1.15099338,77.9913501 C1.04635762,75.6820504 1.04635762,73.3727506 0.941721854,71.1684191 C0.941721854,69.3839602 0.837086093,67.7044695 0.837086093,66.0249788 C0.62781457,55.9480345 0.62781457,46.5008992 0.941721854,38.5233183 C1.04635762,36.7388594 1.04635762,35.0593687 1.15099338,33.379878 C1.25562914,32.3301963 1.25562914,31.3854828 1.3602649,30.3358011 C1.46490066,28.9712148 1.67417219,27.7115968 1.88344371,26.4519788 C2.19735099,24.6675199 2.61589404,22.883061 3.13907285,21.3085385 C8.47549669,4.93350398 23.9615894,-3.04407692 32.6463576,1.57452255 C38.192053,4.61859947 47.6092715,11.4415305 47.6092715,11.4415305 C51.794702,14.4856074 55.6662252,17.8445889 59.4331126,21.3085385 C61.2119205,22.9880292 62.9907285,24.6675199 64.6649007,26.4519788 C66.8622517,28.6563103 68.9549669,30.9656101 70.9430464,33.379878 C72.407947,35.0593687 73.8728477,36.7388594 75.2331126,38.5233183 C82.0344371,47.02574 87.9986755,56.262939 93.3350993,66.0249788 C94.2768212,67.7044695 95.218543,69.4889284 96.0556291,71.1684191 C97.2066225,73.4777188 98.3576159,75.6820504 99.4039735,77.9913501 C100.24106,79.6708408 100.97351,81.4552997 101.810596,83.1347904 C105.054305,90.3775941 107.984106,97.9353024 110.6,105.493011 C111.227815,107.172501 111.750993,108.95696 112.378808,110.636451 C113.111258,112.945751 113.843709,115.150082 114.576159,117.459382 C115.099338,119.138873 115.622517,120.923332 116.145695,122.602822 C118.552318,130.895308 120.645033,139.187793 122.528477,147.480278 C122.94702,149.159769 123.260927,150.944228 123.67947,152.623719 C124.202649,154.933019 124.621192,157.242318 125.039735,159.551618 C125.353642,161.231109 125.66755,163.015568 125.981457,164.695058 C127.550993,173.092512 128.806623,181.489965 129.957616,189.572515 C130.166887,191.042069 130.376159,192.406655 130.58543,193.87621 C130.794702,194.086146 130.899338,194.40105 130.899338,194.715955 Z" id="XMLID_2045_" fill="#FECA55"></path>
                                            <path d="M31.3907285,106.962565 C29.5072848,90.6924987 27.7284768,74.4224323 25.8450331,58.152366 C25.7403974,57.3126207 24.4847682,57.3126207 24.589404,58.152366 C26.4728477,74.4224323 28.2516556,90.6924987 30.1350993,106.962565 C30.5536424,106.962565 30.9721854,106.962565 31.3907285,106.962565 Z" id="XMLID_150_" fill="#FFFFFF"></path>
                                            <g id="XMLID_208_" transform="translate(0.000000, 20.993634)" fill="#FFFFFF">
                                                <path d="M130.899338,173.722321 L8.9986755,173.722321 C8.89403974,172.147798 8.68476821,170.468308 8.58013245,168.578881 L130.271523,168.578881 C130.480795,170.048435 130.690066,171.413021 130.899338,172.882576 C130.794702,173.092512 130.899338,173.407416 130.899338,173.722321 Z" id="XMLID_190_"></path>
                                                <path d="M123.784106,131.630085 L5.4410596,131.630085 C5.33642384,129.950594 5.23178808,128.271103 5.02251656,126.486645 L122.633113,126.486645 C123.051656,128.166135 123.470199,129.845626 123.784106,131.630085 Z" id="XMLID_189_"></path>
                                                <path d="M126.190728,143.596456 L6.38278146,143.596456 C6.2781457,141.916965 6.06887417,140.237475 5.96423841,138.453016 L125.144371,138.453016 C125.562914,140.237475 125.876821,141.916965 126.190728,143.596456 Z" id="XMLID_497_"></path>
                                                <path d="M64.7695364,5.35337666 L1.98807947,5.35337666 C2.30198675,3.56891777 2.7205298,1.78445889 3.24370861,0.209936339 L59.5377483,0.209936339 C61.3165563,1.88942706 63.0953642,3.56891777 64.7695364,5.35337666 Z" id="XMLID_412_"></path>
                                                <path d="M75.4423841,17.319748 L1.04635762,17.319748 C1.15099338,15.5352891 1.15099338,13.8557984 1.25562914,12.1763077 L71.1523179,12.1763077 C72.6172185,13.8557984 73.9774834,15.6402573 75.4423841,17.319748 Z" id="XMLID_134_"></path>
                                                <path d="M96.2649007,49.9648488 L1.04635762,49.9648488 C1.04635762,48.1803899 0.941721854,46.5008992 0.941721854,44.8214085 L93.5443709,44.8214085 C94.4860927,46.5008992 95.3231788,48.2853581 96.2649007,49.9648488 Z" id="XMLID_410_"></path>
                                                <path d="M102.019868,62.0361883 L1.3602649,62.0361883 C1.25562914,60.3566976 1.25562914,58.5722387 1.15099338,56.892748 L99.613245,56.892748 C100.450331,58.5722387 101.287417,60.2517294 102.019868,62.0361883 Z" id="XMLID_133_"></path>
                                                <path d="M112.588079,89.5378488 L2.7205298,89.5378488 C2.61589404,87.8583581 2.51125828,86.0738992 2.40662252,84.3944085 L110.809272,84.3944085 C111.437086,86.0738992 112.064901,87.7533899 112.588079,89.5378488 Z" id="XMLID_132_"></path>
                                            </g>
                                        </g>
                                        <g id="Hand" transform="translate(56.503311, 187.893024)" fill-rule="nonzero">
                                            <g id="XMLID_67_" transform="translate(0.000000, 2.099363)">
                                                <path d="M218.165563,1.99439523 C217.537748,0.419872679 169.61457,-1.36458621 154.128477,1.78445889 L155.174834,12.9110849 C102.647682,13.7508302 68.5364238,22.883061 49.0741722,30.5457374 C36.3086093,33.5898143 15.4860927,37.6835729 9.73112583,44.1915995 C2.92980132,51.959244 -2.40662252,56.6828117 2.82516556,61.6163156 C2.19735099,62.7709655 4.49933775,67.4945331 7.01059603,66.2349151 C6.48741722,67.0746605 8.05695364,69.5938965 12.1377483,69.8038329 C15.1721854,72.4280371 21.4503311,68.9640875 25.1125828,63.4007745 C28.3562914,62.456061 32.2278146,61.7212838 35.2622517,57.7324934 C35.2622517,57.7324934 50.5390728,65.1852334 69.792053,54.1635756 C69.792053,54.1635756 110.181457,76.2068912 189.286093,68.9640875 C238.674172,64.4504562 233.54702,41.2524907 218.165563,1.99439523 Z" id="XMLID_171_" fill="#952C28"></path>
                                                <path d="M161.766887,13.2259894 C160.301987,13.016053 158.73245,12.8061167 157.26755,12.5961804 C156.430464,12.4912122 156.116556,13.7508302 156.953642,13.8557984 C158.418543,14.0657347 159.988079,14.2756711 161.45298,14.4856074 C162.290066,14.5905756 162.603974,13.3309576 161.766887,13.2259894 Z" id="XMLID_165_" fill="#FFFFFF"></path>
                                                <path d="M22.9152318,54.5834483 C18.8344371,58.4672705 15.381457,62.9809018 12.6609272,67.9144058 C12.2423841,68.649183 13.3933775,69.278992 13.8119205,68.5442148 C16.5324503,63.715679 19.8807947,59.3070159 23.8569536,55.5281618 C24.4847682,54.8983528 23.5430464,53.9536392 22.9152318,54.5834483 Z" id="XMLID_163_" fill="#000000"></path>
                                                <path d="M17.5788079,49.5449761 C13.0794702,54.0586074 9.73112583,59.3070159 7.53377483,65.2902016 C7.21986755,66.0249788 8.47549669,66.4448514 8.78940397,65.6051061 C10.8821192,59.8318568 14.1258278,54.6884164 18.5205298,50.3847215 C19.1483444,49.8598806 18.2066225,48.9151671 17.5788079,49.5449761 Z" id="XMLID_162_" fill="#000000"></path>
                                                <path d="M14.9629139,45.136313 C7.6384106,46.5008992 5.02251656,53.7437029 3.03443709,60.0417931 C2.82516556,60.8815385 4.0807947,61.196443 4.29006623,60.3566976 C6.06887417,54.4784801 8.47549669,47.6555491 15.2768212,46.395931 C16.1139073,46.2909629 15.6953642,45.0313448 14.9629139,45.136313 Z" id="XMLID_161_" fill="#000000"></path>
                                            </g>
                                            <path d="M237.73245,5.98318568 L124.830464,5.98318568 C124.725828,4.30369496 124.621192,2.51923607 124.516556,0.839745358 L236.26755,0.839745358 C236.686093,2.62420424 237.209272,4.30369496 237.73245,5.98318568 Z" id="Stripe" fill="#FFFFFF"></path>
                                        </g>
                                    </g>
                                    <g id="Chair_3" transform="translate(700.000000, 110.000000)">
                                        <path d="M172.680755,274.293709 L13.5886792,274.293709 C11.4981132,274.293709 9.72113208,272.617354 9.72113208,270.417137 C9.72113208,268.321692 11.3935849,266.540564 13.5886792,266.540564 L172.680755,266.540564 C191.077736,266.540564 206.966038,254.072668 211.460755,236.156616 L269.055849,3.6670282 C269.578491,1.57158351 271.669057,0.314316703 273.759623,0.838177874 C275.850189,1.36203905 277.104528,3.45748373 276.581887,5.55292842 L218.986792,238.042516 C213.551321,259.416052 194.52717,274.293709 172.680755,274.293709 Z" id="XMLID_2021_" fill="#D4D4D4" fill-rule="nonzero"></path>
                                    </g>
                                    <g id="Notebook_1_" transform="translate(621.000000, 151.000000)">
                                        <path d="M39.2503937,107.369159 C24.9007874,73.8616822 17.0929134,56.6411215 2.74330709,23.1336449 C2.11023622,21.6813084 -0.422047244,22.3037383 0.211023622,23.8598131 C14.5606299,57.3672897 22.3685039,74.5878505 36.7181102,108.095327 C37.4566929,109.547664 39.9889764,108.925234 39.2503937,107.369159 Z" id="XMLID_194_" fill="#000000" fill-rule="nonzero"></path>
                                        <path d="M132.206299,107.369159 L39.5669291,107.369159 C37.8787402,107.369159 37.8787402,109.962617 39.5669291,109.962617 L132.206299,109.962617 C133.894488,109.858879 133.894488,107.369159 132.206299,107.369159 Z" id="XMLID_513_" fill="#000000" fill-rule="nonzero"></path>
                                        <path d="M32.8141732,0.829906542 L18.992126,19.5028037 C18.0425197,20.8514019 20.2582677,22.0962617 21.207874,20.7476636 C25.8503937,14.5233645 30.3874016,8.29906542 35.0299213,2.07476636 C35.9795276,0.829906542 33.7637795,-0.414953271 32.8141732,0.829906542 Z" id="XMLID_143_" fill="#FECA55" fill-rule="nonzero"></path>
                                        <path d="M40.9385827,18.1542056 L23.6346457,27.4906542 C22.1574803,28.3205607 23.5291339,30.4990654 24.9007874,29.6691589 L42.2047244,20.3327103 C43.7874016,19.6065421 42.415748,17.4280374 40.9385827,18.1542056 Z" id="XMLID_142_" fill="#FECA55" fill-rule="nonzero"></path>
                                    </g>
                                </g>
                            </g>
                        </g>
                    </g>
                </g>
            </g>
        </g>
    </g>
</svg>