<?xml version="1.0" encoding="UTF-8"?>
<svg width="32px" height="32px" viewBox="0 0 32 32" version="1.1" xmlns="http://www.w3.org/2000/svg" xmlns:xlink="http://www.w3.org/1999/xlink">
    <!-- Generator: Sketch 52.6 (67491) - http://www.bohemiancoding.com/sketch -->
    <title>bulb-outline (1)</title>
    <desc>Created with Sketch.</desc>
    <g id="Lead-Magnets" stroke="none" stroke-width="1" fill="none" fill-rule="evenodd">
        <g id="2.3--Lead-2---Landing-page" transform="translate(-1127.000000, -1168.000000)" fill="#9DC2D4" fill-rule="nonzero">
            <g id="bulb-outline-(1)" transform="translate(1127.000000, 1168.000000)">
                <path d="M16,8.38095238 C12.7205302,8.38095238 9.80899618,10.4794674 8.77193678,13.5906456 C7.73487738,16.7018238 8.80499561,20.1275562 11.4285714,22.0952381 L11.4285714,28.1904762 C11.4285714,29.8736297 12.793037,31.2380952 14.4761905,31.2380952 L17.5238095,31.2380952 C19.206963,31.2380952 20.5714286,29.8736297 20.5714286,28.1904762 L20.5714286,22.0952381 C23.1950044,20.1275562 24.2651226,16.7018238 23.2280632,13.5906456 C22.1910038,10.4794674 19.2794698,8.38095238 16,8.38095238 Z M18.2857143,19.9466667 C17.8123669,20.2199481 17.5216396,20.7258137 17.5238095,21.272381 L17.5238095,28.1904762 L14.4761905,28.1904762 L14.4761905,21.272381 C14.4783604,20.7258137 14.1876331,20.2199481 13.7142857,19.9466667 C12.3036814,19.1322618 11.4329597,17.6288157 11.4285714,16 C11.4285714,13.4752697 13.4752697,11.4285714 16,11.4285714 C18.5247303,11.4285714 20.5714286,13.4752697 20.5714286,16 C20.5670403,17.6288157 19.6963186,19.1322618 18.2857143,19.9466667 Z" id="Shape"></path>
                <path d="M16,6.85714286 C16.8415768,6.85714286 17.5238095,6.17491009 17.5238095,5.33333333 L17.5238095,2.28571429 C17.5238095,1.44413752 16.8415768,0.761904762 16,0.761904762 C15.1584232,0.761904762 14.4761905,1.44413752 14.4761905,2.28571429 L14.4761905,5.33333333 C14.4761905,6.17491009 15.1584232,6.85714286 16,6.85714286 Z" id="Path"></path>
                <path d="M29.7142857,14.4761905 L26.6666667,14.4761905 C25.8250899,14.4761905 25.1428571,15.1584232 25.1428571,16 C25.1428571,16.8415768 25.8250899,17.5238095 26.6666667,17.5238095 L29.7142857,17.5238095 C30.5558625,17.5238095 31.2380952,16.8415768 31.2380952,16 C31.2380952,15.1584232 30.5558625,14.4761905 29.7142857,14.4761905 Z" id="Path"></path>
                <path d="M5.33333333,14.4761905 L2.28571429,14.4761905 C1.44413752,14.4761905 0.761904762,15.1584232 0.761904762,16 C0.761904762,16.8415768 1.44413752,17.5238095 2.28571429,17.5238095 L5.33333333,17.5238095 C6.17491009,17.5238095 6.85714286,16.8415768 6.85714286,16 C6.85714286,15.1584232 6.17491009,14.4761905 5.33333333,14.4761905 Z" id="Path"></path>
                <path d="M9.38666667,7.49714286 L7.19238095,5.33333333 C6.57382203,4.74843751 5.5982292,4.77572683 5.01333336,5.39428574 C4.42843752,6.01284465 4.45572682,6.98843748 5.07428571,7.57333333 L7.26857143,9.69142857 C7.56609742,9.97871775 7.96762116,10.1327268 8.38095238,10.1180952 C8.79571447,10.1165124 9.19191033,9.94592803 9.47809524,9.64571429 C10.0443886,9.02650961 10.0035159,8.06600104 9.38666667,7.49714286 Z" id="Path"></path>
                <path d="M26.9561905,5.40952381 C26.3618477,4.8187069 25.4019618,4.8187069 24.807619,5.40952381 L22.6133333,7.49714286 C22.0225164,8.09148564 22.0225164,9.0513715 22.6133333,9.64571429 C22.8995182,9.94592803 23.2957141,10.1165124 23.7104762,10.1180952 C24.1028107,10.1165328 24.4794248,9.96370395 24.7619048,9.69142857 L26.9561905,7.57333333 C27.2446669,7.2872128 27.4069308,6.89773339 27.4069308,6.49142857 C27.4069308,6.08512375 27.2446669,5.69564434 26.9561905,5.40952381 Z" id="Path"></path>
            </g>
        </g>
    </g>
</svg>