<svg width="55" height="55" viewBox="0 0 55 55" fill="none" xmlns="http://www.w3.org/2000/svg">
<circle cx="27.5" cy="27.5" r="27.5" fill="#DFF1FF"/>
<path fill-rule="evenodd" clip-rule="evenodd" d="M39.7963 17.2552L16.1553 17.2552L16.1553 18.733L39.7963 18.733V17.2552ZM16.1553 37.941L16.1553 21.6882L39.7963 21.6882L39.7963 37.941H16.1553ZM42.7514 37.941L42.7514 20.2355L42.7516 20.2106L42.7514 20.1857V17.2552C42.7514 15.6231 41.4283 14.3 39.7963 14.3L16.1553 14.3001C14.5232 14.3001 13.2002 15.6231 13.2002 17.2552V37.941C13.2002 39.5731 14.5233 40.8961 16.1553 40.8961L39.7963 40.8961C41.4283 40.8961 42.7514 39.5731 42.7514 37.941ZM33.4531 28.6429C34.0301 28.0659 34.0301 27.1303 33.4531 26.5533C32.8761 25.9763 31.9405 25.9763 31.3635 26.5533L26.4981 31.4187L24.5877 29.5084C24.0107 28.9314 23.0752 28.9314 22.4982 29.5084C21.9211 30.0854 21.9211 31.021 22.4982 31.598L25.4533 34.5531C26.0303 35.1301 26.9658 35.1301 27.5429 34.5531L33.4531 28.6429Z" fill="#417BD2"/>
</svg>
