<svg width="55" height="55" viewBox="0 0 55 55" fill="none" xmlns="http://www.w3.org/2000/svg">
<circle cx="27.5" cy="27.5" r="27.5" fill="#DFF1FF"/>
<path fill-rule="evenodd" clip-rule="evenodd" d="M26.4987 13.2C24.8666 13.2 23.5436 14.523 23.5436 16.1551V17.6331L23.5427 17.6331L23.541 17.6331L16.1553 17.6331C14.5232 17.6331 13.2002 18.9562 13.2002 20.5882L13.2002 39.7965C13.2002 41.4286 14.5232 42.7516 16.1553 42.7516L29.4534 42.7516C31.0854 42.7516 32.4085 41.4286 32.4085 39.7965V38.3185L39.7967 38.3185C41.4288 38.3185 42.7519 36.9954 42.7519 35.3633V22.0807C42.7519 22.0756 42.7519 22.0704 42.7519 22.0653C42.7519 22.0602 42.7519 22.0551 42.7519 22.0499V21.1998C42.7519 20.416 42.4405 19.6644 41.8863 19.1102L36.8416 14.0655C36.2874 13.5113 35.5358 13.2 34.752 13.2L33.888 13.2C33.8876 13.2 33.8871 13.2 33.8866 13.2C33.8861 13.2 33.8856 13.2 33.8851 13.2L26.4987 13.2ZM32.409 16.1551L26.4987 16.1551V18.4991L31.5429 23.5434C32.0971 24.0975 32.4085 24.8492 32.4085 25.6329V35.3633L39.7967 35.3633V23.5429L35.3641 23.5429C33.7321 23.5429 32.409 22.2198 32.409 20.5877V16.1551ZM39.1847 20.5877L35.3641 16.7672L35.3641 20.5877L39.1847 20.5877ZM16.1553 20.5882L22.0652 20.5882L22.0652 25.0209C22.0652 26.653 23.3882 27.976 25.0203 27.976L29.4534 27.976V39.7965L16.1553 39.7965L16.1553 20.5882ZM25.0203 25.0209L28.8413 25.0209L25.0203 21.1999L25.0203 25.0209Z" fill="#417BD2"/>
</svg>
