<svg width="55" height="55" viewBox="0 0 55 55" fill="none" xmlns="http://www.w3.org/2000/svg">
<circle cx="27.5" cy="27.5" r="27.5" fill="#DFF1FF"/>
<path fill-rule="evenodd" clip-rule="evenodd" d="M9.90039 27.5C9.90039 22.6606 13.7664 18.7 18.5612 18.7C21.4572 18.7 23.9595 20.1506 25.5102 22.3261C26.0461 23.078 25.8757 24.1253 25.1295 24.6654C24.3834 25.2054 23.344 25.0337 22.8081 24.2818C21.8366 22.9189 20.3097 22.0523 18.5612 22.0523C15.6358 22.0523 13.2272 24.4796 13.2272 27.5C13.2272 30.5203 15.6358 32.9476 18.5612 32.9476C20.5669 32.9476 22.441 31.8715 23.4825 30.1042L25.5262 26.6469L25.529 26.6422L27.5562 23.1867L27.5579 23.1839C29.1923 20.4106 32.1472 18.7 35.3396 18.7C40.1344 18.7 44.0004 22.6606 44.0004 27.5C44.0004 32.3393 40.1344 36.3 35.3396 36.3C32.4556 36.3 29.9583 34.8467 28.3962 32.6816C27.856 31.9328 28.0205 30.8846 28.7635 30.3402C29.5066 29.7958 30.5469 29.9615 31.0871 30.7103C32.0779 32.0836 33.61 32.9476 35.3396 32.9476C38.265 32.9476 40.6736 30.5203 40.6736 27.5C40.6736 24.4796 38.265 22.0523 35.3396 22.0523C33.3344 22.0523 31.4607 23.1279 30.4191 24.8944C30.4188 24.8948 30.4186 24.8953 30.4183 24.8957L28.39 28.353L28.3872 28.3577L26.3429 31.816C26.3426 31.8166 26.3422 31.8172 26.3419 31.8179C26.3418 31.8179 26.3419 31.8178 26.3419 31.8179C24.7072 34.59 21.7529 36.3 18.5612 36.3C13.7664 36.3 9.90039 32.3393 9.90039 27.5Z" fill="#417BD2"/>
</svg>
