<svg width="55" height="55" viewBox="0 0 55 55" fill="none" xmlns="http://www.w3.org/2000/svg">
<circle cx="27.5" cy="27.5" r="27.5" fill="#DFF1FF"/>
<path fill-rule="evenodd" clip-rule="evenodd" d="M19.1108 22.7879C19.1108 20.3398 21.0953 18.3553 23.5434 18.3553C25.9915 18.3553 27.9761 20.3398 27.9761 22.7879C27.9761 25.236 25.9915 27.2206 23.5434 27.2206C21.0953 27.2206 19.1108 25.236 19.1108 22.7879ZM23.5434 15.4001C19.4633 15.4001 16.1556 18.7078 16.1556 22.7879C16.1556 26.8681 19.4633 30.1757 23.5434 30.1757C27.6236 30.1757 30.9312 26.8681 30.9312 22.7879C30.9312 18.7078 27.6236 15.4001 23.5434 15.4001ZM42.3183 24.6981C42.8954 25.2752 42.8954 26.2107 42.3183 26.7877L36.4081 32.698C35.8311 33.275 34.8955 33.275 34.3185 32.698L31.3634 29.7428C30.7864 29.1658 30.7864 28.2303 31.3634 27.6532C31.9404 27.0762 32.876 27.0762 33.453 27.6532L35.3633 29.5636L40.2287 24.6981C40.8058 24.1211 41.7413 24.1211 42.3183 24.6981ZM18.094 36.0913C16.7538 36.9848 16.1553 38.0568 16.1553 39.0411C16.1553 39.8571 15.4938 40.5187 14.6778 40.5187C13.8617 40.5187 13.2002 39.8571 13.2002 39.0411C13.2002 36.7613 14.5863 34.8782 16.4548 33.6325C18.3336 32.38 20.844 31.6533 23.5431 31.6533C26.2422 31.6533 28.7527 32.38 30.6315 33.6325C32.4999 34.8782 33.886 36.7613 33.886 39.0411C33.886 39.8571 33.2245 40.5187 32.4085 40.5187C31.5924 40.5187 30.9309 39.8571 30.9309 39.0411C30.9309 38.0568 30.3324 36.9848 28.9923 36.0913C27.6624 35.2048 25.7402 34.6084 23.5431 34.6084C21.346 34.6084 19.4238 35.2048 18.094 36.0913Z" fill="#417BD2"/>
</svg>
