<svg width="55" height="55" viewBox="0 0 55 55" fill="none" xmlns="http://www.w3.org/2000/svg">
<circle cx="27.5" cy="27.5" r="27.5" fill="#DFF1FF"/>
<path fill-rule="evenodd" clip-rule="evenodd" d="M14.2998 17.2551C14.2998 15.6231 15.6228 14.3 17.2548 14.3H23.1649C24.7969 14.3 26.12 15.6231 26.12 17.2551V23.1652C26.12 24.7972 24.7969 26.1202 23.1649 26.1202H17.2548C15.6228 26.1202 14.2998 24.7972 14.2998 23.1652V17.2551ZM23.1649 17.2551H17.2548V23.1652H23.1649V17.2551ZM17.2549 29.0764C15.6229 29.0764 14.2998 30.3994 14.2998 32.0315V37.9415C14.2998 39.5736 15.6229 40.8966 17.2549 40.8966H23.165C24.797 40.8966 26.12 39.5736 26.12 37.9415V32.0315C26.12 30.3994 24.797 29.0764 23.165 29.0764H17.2549ZM17.2549 32.0315H23.165V37.9415H17.2549V32.0315ZM32.0308 29.0764C30.3987 29.0764 29.0757 30.3994 29.0757 32.0315V37.9415C29.0757 39.5736 30.3987 40.8966 32.0308 40.8966H37.9408C39.5729 40.8966 40.8959 39.5736 40.8959 37.9415V32.0315C40.8959 30.3994 39.5729 29.0764 37.9408 29.0764H32.0308ZM32.0308 32.0315H37.9408V37.9415H32.0308V32.0315ZM40.463 18.2999C41.04 17.7229 41.04 16.7874 40.463 16.2104C39.886 15.6333 38.9504 15.6333 38.3734 16.2104L33.508 21.0758L31.5976 19.1655C31.0206 18.5885 30.0851 18.5885 29.508 19.1655C28.931 19.7425 28.931 20.678 29.508 21.2551L32.4632 24.2102C33.0402 24.7872 33.9757 24.7872 34.5527 24.2102L40.463 18.2999Z" fill="#417BD2"/>
</svg>
