<svg width="40" height="40" viewBox="0 0 40 40" fill="none" xmlns="http://www.w3.org/2000/svg">
<rect width="40" height="40" rx="9.5" fill="#009CB7"/>
<path d="M29 27.9999C29 26.2583 27.3304 24.7767 25 24.2275M23 28C23 25.7909 20.3137 24 17 24C13.6863 24 11 25.7909 11 28M23 21C25.2091 21 27 19.2091 27 17C27 14.7909 25.2091 13 23 13M17 21C14.7909 21 13 19.2091 13 17C13 14.7909 14.7909 13 17 13C19.2091 13 21 14.7909 21 17C21 19.2091 19.2091 21 17 21Z" stroke="white" stroke-width="2" stroke-linecap="round" stroke-linejoin="round"/>
</svg>
