<?xml version="1.0" encoding="UTF-8"?>
<svg width="33px" height="32px" viewBox="0 0 33 32" version="1.1" xmlns="http://www.w3.org/2000/svg" xmlns:xlink="http://www.w3.org/1999/xlink">
    <!-- Generator: Sketch 52.6 (67491) - http://www.bohemiancoding.com/sketch -->
    <title>chart-line (2)</title>
    <desc>Created with Sketch.</desc>
    <g id="Landing-3" stroke="none" stroke-width="1" fill="none" fill-rule="evenodd">
        <g id="1.6--Pricing" transform="translate(-792.000000, -3000.000000)" fill="#1C3C55" fill-rule="nonzero">
            <g id="Group-11" transform="translate(-38.000000, 2233.000000)">
                <g id="Group-9">
                    <g id="Group-7" transform="translate(830.000000, 767.000000)">
                        <g id="chart-line-(2)">
                            <path d="M9.6,22.4 C10.9254834,22.4 12,21.3254834 12,20 C12.0078108,19.9201907 12.0078108,19.8398093 12,19.76 L16.464,15.296 L16.832,15.296 L17.2,15.296 L19.776,17.872 C19.776,17.872 19.776,17.952 19.776,18 C19.776,19.3254834 20.8505166,20.4 22.176,20.4 C23.5014834,20.4 24.576,19.3254834 24.576,18 L24.576,17.872 L30.4,12 C31.7254834,12 32.8,10.9254834 32.8,9.6 C32.8,8.2745166 31.7254834,7.2 30.4,7.2 C29.0745166,7.2 28,8.2745166 28,9.6 C27.9921892,9.67980935 27.9921892,9.76019065 28,9.84 L22.224,15.616 L21.968,15.616 L19.2,12.8 C19.2,11.4745166 18.1254834,10.4 16.8,10.4 C15.4745166,10.4 14.4,11.4745166 14.4,12.8 L9.6,17.6 C8.2745166,17.6 7.2,18.6745166 7.2,20 C7.2,21.3254834 8.2745166,22.4 9.6,22.4 Z M31.2,28.8 L4,28.8 L4,1.6 C4,0.7163444 3.2836556,0 2.4,0 C1.5163444,0 0.8,0.7163444 0.8,1.6 L0.8,30.4 C0.8,31.2836556 1.5163444,32 2.4,32 L31.2,32 C32.0836556,32 32.8,31.2836556 32.8,30.4 C32.8,29.5163444 32.0836556,28.8 31.2,28.8 Z" id="Shape"></path>
                        </g>
                    </g>
                </g>
            </g>
        </g>
    </g>
</svg>