<svg width="32" height="32" viewBox="0 0 32 32" fill="none" xmlns="http://www.w3.org/2000/svg">
<path fill-rule="evenodd" clip-rule="evenodd" d="M6.66667 5.33301C5.19391 5.33301 4 6.52691 4 7.99967V21.333C4 22.8058 5.19391 23.9997 6.66667 23.9997H25.3333C26.8061 23.9997 28 22.8058 28 21.333V7.99967C28 6.52692 26.8061 5.33301 25.3333 5.33301H6.66667ZM6.66667 7.99967L25.3333 7.99967V21.333L6.66667 21.333V7.99967ZM12 25.333C11.2636 25.333 10.6667 25.93 10.6667 26.6663C10.6667 27.4027 11.2636 27.9997 12 27.9997H20C20.7364 27.9997 21.3333 27.4027 21.3333 26.6663C21.3333 25.93 20.7364 25.333 20 25.333H12Z" fill="#45B4C8"/>
</svg>
