<svg width="32" height="32" viewBox="0 0 32 32" fill="none" xmlns="http://www.w3.org/2000/svg">
<path fill-rule="evenodd" clip-rule="evenodd" d="M26.6667 4.00033C26.6667 3.26395 26.0697 2.66699 25.3333 2.66699C24.597 2.66699 24 3.26395 24 4.00033V7.05604C22.7715 5.95726 21.3224 5.11677 19.7381 4.5974C17.2994 3.79796 14.6687 3.8014 12.2321 4.60722C9.79552 5.41304 7.68147 6.97878 6.2003 9.07458C4.71914 11.1704 3.94889 13.6858 4.00263 16.2516C4.05638 18.8174 4.93129 21.2984 6.49892 23.3304C8.06655 25.3623 10.2443 26.8381 12.7125 27.5412C15.1807 28.2443 17.8092 28.1376 20.2123 27.2367C22.6154 26.3359 24.6663 24.6883 26.064 22.536C26.4651 21.9184 26.2896 21.0926 25.672 20.6916C25.0544 20.2905 24.2287 20.466 23.8276 21.0836C22.7405 22.7577 21.1453 24.0391 19.2762 24.7397C17.4072 25.4404 15.3627 25.5234 13.443 24.9766C11.5234 24.4297 9.82954 23.2819 8.61027 21.7015C7.391 20.1211 6.71052 18.1914 6.66872 16.1958C6.62691 14.2002 7.226 12.2437 8.37801 10.6136C9.53003 8.98357 11.1743 7.76577 13.0694 7.13902C14.9645 6.51227 17.0106 6.50959 18.9074 7.13138C20.2756 7.57989 21.514 8.33627 22.532 9.33366H18.6667C17.9303 9.33366 17.3333 9.93061 17.3333 10.667C17.3333 11.4034 17.9303 12.0003 18.6667 12.0003H25.3333C26.0697 12.0003 26.6667 11.4034 26.6667 10.667V4.00033Z" fill="#45B4C8"/>
</svg>
