<?xml version="1.0" encoding="UTF-8"?>
<svg width="48px" height="48px" viewBox="0 0 48 48" version="1.1" xmlns="http://www.w3.org/2000/svg" xmlns:xlink="http://www.w3.org/1999/xlink">
    <!-- Generator: Sketch 52.6 (67491) - http://www.bohemiancoding.com/sketch -->
    <title>Elements / Buttons / Icon / 48px</title>
    <desc>Created with Sketch.</desc>
    <g id="Journey-10--Data-Processors" stroke="none" stroke-width="1" fill="none" fill-rule="evenodd">
        <g id="4.2--Landing-page" transform="translate(-170.000000, -2771.000000)">
            <g id="Features" transform="translate(170.000000, 2767.000000)">
                <g id="Feature-1" transform="translate(0.000000, 1.000000)">
                    <g id="Elements-/-Buttons-/-Icon-/-48px" transform="translate(0.000000, 3.000000)">
                        <g id="Icon">
                            <circle id="Oval" fill="#7450C8" cx="24" cy="24" r="24"></circle>
                            <g id="-Icons-/-Navigation-/-arrow_forward" transform="translate(12.000000, 12.000000)">
                                <g id="-Round-/-Navigation-/-arrow_forward">
                                    <polygon id="Path" points="0 0 24 0 24 24 0 24"></polygon>
                                    <path d="M5,13 L16.17,13 L12.29,16.88 C11.9,17.27 11.9,17.91 12.29,18.3 C12.68,18.69 13.31,18.69 13.7,18.3 L19.29,12.71 C19.68,12.32 19.68,11.69 19.29,11.3 L13.71,5.7 C13.32,5.31 12.69,5.31 12.3,5.7 C11.91,6.09 11.91,6.72 12.3,7.11 L16.17,11 L5,11 C4.45,11 4,11.45 4,12 C4,12.55 4.45,13 5,13 Z" id="🔹-Icon-Color" fill="#FFFFFF"></path>
                                </g>
                            </g>
                        </g>
                    </g>
                </g>
            </g>
        </g>
    </g>
</svg>