<svg width="28" height="28" viewBox="0 0 28 28" fill="none" xmlns="http://www.w3.org/2000/svg">
<path fill-rule="evenodd" clip-rule="evenodd" d="M18.6667 1.16602C19.311 1.16602 19.8333 1.68835 19.8333 2.33268V3.49935H22.1667C23.4553 3.49935 24.5 4.54402 24.5 5.83268V9.33268V22.166C24.5 23.4547 23.4553 24.4993 22.1667 24.4993H5.83333C4.54467 24.4993 3.5 23.4547 3.5 22.166V9.33268V5.83268C3.5 4.54402 4.54467 3.49935 5.83333 3.49935H8.16667V2.33268C8.16667 1.68835 8.689 1.16602 9.33333 1.16602C9.97767 1.16602 10.5 1.68835 10.5 2.33268V3.49935H17.5V2.33268C17.5 1.68835 18.0223 1.16602 18.6667 1.16602ZM9.33333 5.83268H5.83333V8.16602H22.1667V5.83268H18.6667H9.33333ZM22.1667 10.4993H5.83333V22.166H22.1667V10.4993ZM9.625 12.8327C8.81958 12.8327 8.16667 13.4856 8.16667 14.291V18.3743C8.16667 19.1798 8.81958 19.8327 9.625 19.8327H13.7083C14.5137 19.8327 15.1667 19.1798 15.1667 18.3743V14.291C15.1667 13.4856 14.5137 12.8327 13.7083 12.8327H9.625ZM10.5 17.4993V15.166H12.8333V17.4993H10.5Z" fill="#417BD2"/>
</svg>
