<svg width="50" height="50" viewBox="0 0 50 50" fill="none" xmlns="http://www.w3.org/2000/svg">
<path fill-rule="evenodd" clip-rule="evenodd" d="M24.9999 4.16602C13.494 4.16602 4.16656 13.4934 4.16656 24.9993C4.16656 28.7351 5.15158 32.246 6.87666 35.281L4.27347 43.0905C4.02393 43.8392 4.21877 44.6645 4.77675 45.2225C5.33474 45.7805 6.16009 45.9753 6.9087 45.7258L14.7183 43.1226C17.7532 44.8477 21.2642 45.8327 24.9999 45.8327C36.5058 45.8327 45.8332 36.5053 45.8332 24.9993C45.8332 13.4934 36.5058 4.16602 24.9999 4.16602ZM8.33323 24.9993C8.33323 15.7946 15.7951 8.33268 24.9999 8.33268C34.2046 8.33268 41.6666 15.7946 41.6666 24.9993C41.6666 34.2041 34.2046 41.666 24.9999 41.666C21.717 41.666 18.6616 40.719 16.0847 39.084C15.5558 38.7484 14.904 38.6686 14.3098 38.8667L9.54393 40.4553L11.1325 35.6895C11.3306 35.0952 11.2508 34.4434 10.9153 33.9146C9.28027 31.3376 8.33323 28.2823 8.33323 24.9993ZM33.3332 22.916C32.1826 22.916 31.2498 23.8488 31.2498 24.9994V25.0035C31.2498 26.1541 32.1826 27.0869 33.3332 27.0869H33.3373C34.4879 27.0869 35.4207 26.1541 35.4207 25.0035V24.9994C35.4207 23.8488 34.4879 22.916 33.3373 22.916H33.3332ZM22.9165 24.9994C22.9165 23.8488 23.8492 22.916 24.9998 22.916H25.004C26.1546 22.916 27.0873 23.8488 27.0873 24.9994V25.0035C27.0873 26.1541 26.1546 27.0869 25.004 27.0869H24.9998C23.8492 27.0869 22.9165 26.1541 22.9165 25.0035V24.9994ZM16.6665 22.916C15.5159 22.916 14.5832 23.8488 14.5832 24.9994V25.0035C14.5832 26.1541 15.5159 27.0869 16.6665 27.0869H16.6707C17.8213 27.0869 18.754 26.1541 18.754 25.0035V24.9994C18.754 23.8488 17.8213 22.916 16.6707 22.916H16.6665Z" fill="#45B4C8"/>
</svg>
