<?xml version="1.0" encoding="UTF-8"?>
<svg width="128px" height="111px" viewBox="0 0 128 111" version="1.1" xmlns="http://www.w3.org/2000/svg" xmlns:xlink="http://www.w3.org/1999/xlink">
    <!-- Generator: Sketch 52.6 (67491) - http://www.bohemiancoding.com/sketch -->
    <title>Illustration</title>
    <desc>Created with Sketch.</desc>
    <g id="15--Landing-page" stroke="none" stroke-width="1" fill="none" fill-rule="evenodd">
        <g id="1---Landing-page" transform="translate(-855.000000, -5277.000000)">
            <g id="Discover" transform="translate(372.000000, 5110.000000)">
                <g id="Illustration" transform="translate(484.000000, 168.000000)">
                    <g id="stamp-document">
                        <path d="M121.764706,68.9840027 C121.764706,36.7272328 95.6913088,10.5769231 63.5294118,10.5769231 C31.3675147,10.5769231 5.29411765,36.7272328 5.29411765,68.9840027 C5.29411765,77.5786045 7.16055882,85.7307726 10.4828824,93.0769231 L116.575941,93.0769231 C119.898265,85.7307726 121.764706,77.5786045 121.764706,68.9840027" id="Fill-1" fill="#F4F6FC"></path>
                        <g id="Group" transform="translate(13.764706, 0.000000)">
                            <path d="M28.2704274,21.2517041 C28.4308932,21.8179697 28.1018368,22.4065612 27.5351285,22.5669016 L4.96429535,28.9612377 C4.39758706,29.1215781 3.80853544,28.7927787 3.64806966,28.2275279 L0.0406362847,15.5139521 C-0.119829502,14.9476865 0.209226921,14.359095 0.775935204,14.1987545 L23.3467683,7.80441853 C23.9134766,7.64407809 24.5025282,7.97287747 24.662994,8.53914306 L28.2704274,21.2517041 Z" id="Fill-39" fill="#FFFFFF"></path>
                            <path d="M24.7023995,18.0531154 L23.305941,13.1322877 C21.9460442,13.5179166 20.5323203,12.7283922 20.1453743,11.3705725 L5.37236594,15.554646 C5.7572807,16.9134805 4.96713905,18.3281297 3.60825789,18.7127438 L5.00370087,23.6335715 C6.36359763,23.2479426 7.77833713,24.037467 8.1642675,25.3963015 L22.9382915,21.2112131 C22.5523611,19.8523786 23.3425028,18.4387443 24.7023995,18.0531154" id="Fill-41" fill="#FFFFFF"></path>
                            <path d="M16.6172598,17.6859561 C17.0021746,19.0447905 16.2130485,20.4574101 14.8531518,20.843039 C13.493255,21.2286679 12.0785155,20.4391435 11.6925851,19.0813238 C11.3066548,17.7224893 12.097812,16.3078402 13.4566932,15.9232261 C14.8165899,15.5375972 16.232345,16.3271216 16.6172598,17.6859561" id="Fill-43" fill="#DFE4EE"></path>
                            <path d="M16.6172598,17.6859561 C17.0021746,19.0447905 16.2130485,20.4574101 14.8531518,20.843039 C13.493255,21.2286679 12.0785155,20.4391435 11.6925851,19.0813238 C11.3066548,17.7224893 12.097812,16.3078402 13.4566932,15.9232261 C14.8165899,15.5375972 16.232345,16.3271216 16.6172598,17.6859561 Z" id="Stroke-45" stroke="#7450C8" stroke-linecap="round" stroke-linejoin="round"></path>
                            <path d="M24.7023995,18.0531154 L23.305941,13.1322877 C21.9460442,13.5179166 20.5323203,12.7283922 20.1453743,11.3705725 L5.37236594,15.554646 C5.7572807,16.9134805 4.96713905,18.3281297 3.60825789,18.7127438 L5.00370087,23.6335715 C6.36359763,23.2479426 7.77833713,24.037467 8.1642675,25.3963015 L22.9382915,21.2112131 C22.5523611,19.8523786 23.3425028,18.4387443 24.7023995,18.0531154 Z" id="Stroke-47" stroke="#7450C8" stroke-linecap="round" stroke-linejoin="round"></path>
                            <path d="M28.2704274,21.2517041 C28.4308932,21.8179697 28.1018368,22.4065612 27.5351285,22.5669016 L4.96429535,28.9612377 C4.39758706,29.1215781 3.80853544,28.7927787 3.64806966,28.2275279 L0.0406362847,15.5139521 C-0.119829502,14.9476865 0.209226921,14.359095 0.775935204,14.1987545 L23.3467683,7.80441853 C23.9134766,7.64407809 24.5025282,7.97287747 24.662994,8.53914306 L28.2704274,21.2517041 Z" id="Stroke-49" stroke="#7450C8" stroke-linecap="round" stroke-linejoin="round"></path>
                            <path d="M92.7445647,28.6651153 L74.7002886,23.5007325 C73.5678877,23.1770071 72.9128216,21.9967798 73.2378156,20.8652634 L76.2917436,10.2117577 C76.615722,9.08125611 77.7968721,8.42670179 78.9282574,8.7504271 L96.9725335,13.9137951 C98.1039189,14.2385352 98.7589849,15.4187626 98.4360221,16.5492642 L95.3810785,27.2027699 C95.0571002,28.3342863 93.8759501,28.9888406 92.7445647,28.6651153" id="Fill-51" fill="#FFFFFF"></path>
                            <polygon id="Fill-53" fill="#DFE4EE" points="97.6123655 19.4178358 75.4691026 13.0803293 76.1739333 10.6214376 98.3171962 16.9599589"></polygon>
                            <path d="M75.8154243,21.1600665 L81.9669513,22.9197521" id="Stroke-55" stroke="#7450C8" stroke-linecap="round" stroke-linejoin="round"></path>
                            <polygon id="Fill-57" fill="#FFFFFF" points="93.7422963 23.6306285 76.5206613 18.7016823 77.225492 16.2427907 94.447127 21.1727517"></polygon>
                            <path d="M92.7445647,28.6651153 L74.7002886,23.5007325 C73.5678877,23.1770071 72.9128216,21.9967798 73.2378156,20.8652634 L76.2917436,10.2117577 C76.615722,9.08125611 77.7968721,8.42670179 78.9282574,8.7504271 L96.9725335,13.9137951 C98.1039189,14.2385352 98.7589849,15.4187626 98.4360221,16.5492642 L95.3810785,27.2027699 C95.0571002,28.3342863 93.8759501,28.9888406 92.7445647,28.6651153 Z" id="Stroke-59" stroke="#7450C8" stroke-linecap="round" stroke-linejoin="round"></path>
                            <polygon id="Stroke-61" stroke="#7450C8" stroke-linecap="round" stroke-linejoin="round" points="97.6123655 19.4178358 75.4691026 13.0803293 76.1739333 10.6214376 98.3171962 16.9599589"></polygon>
                            <polygon id="Stroke-63" stroke="#7450C8" stroke-linecap="round" stroke-linejoin="round" points="93.7422963 23.6306285 76.5206613 18.7016823 77.225492 16.2427907 94.447127 21.1727517"></polygon>
                            <path d="M49.3664987,17.0488565 C44.6540857,17.0488565 40.8354063,13.2321453 40.8354063,8.52442827 C40.8354063,3.81671128 44.6540857,4.4408921e-14 49.3664987,4.4408921e-14 C54.0768805,4.4408921e-14 57.8965755,3.81671128 57.8965755,8.52442827 C57.8965755,13.2321453 54.0768805,17.0488565 49.3664987,17.0488565 Z" id="Fill-65" fill="#DFE4EE"></path>
                            <path d="M49.3660925,0.000101481289 C44.6546951,0.000101481289 40.835,3.81681276 40.835,8.52452976 C40.835,10.8778808 41.7896699,13.0100027 43.3333914,14.5515035 L55.3977779,2.49654119 C53.8550721,0.954025598 51.7212833,0.000101481289 49.3660925,0.000101481289" id="Fill-67" fill="#FFFFFF"></path>
                            <path d="M57.8965755,8.52442827 C57.8965755,13.2321453 54.0768805,17.0488565 49.3664987,17.0488565 C44.6540857,17.0488565 40.8354063,13.2321453 40.8354063,8.52442827 C40.8354063,3.81671128 44.6540857,4.4408921e-14 49.3664987,4.4408921e-14 C54.0768805,4.4408921e-14 57.8965755,3.81671128 57.8965755,8.52442827 Z" id="Stroke-69" stroke="#7450C8"></path>
                            <path d="M49.3660925,12.7868454 L49.3660925,13.8523989" id="Stroke-71" stroke="#7450C8" stroke-linecap="round" stroke-linejoin="round"></path>
                            <path d="M49.3660925,3.1966606 L49.3660925,4.26221414" id="Stroke-73" stroke="#7450C8" stroke-linecap="round" stroke-linejoin="round"></path>
                            <path d="M47.2332178,10.6556368 C47.2332178,11.8328198 48.1878877,12.7867439 49.3659909,12.7867439 C50.5430785,12.7867439 51.498764,11.8328198 51.498764,10.6556368 C51.498764,9.47845387 50.5430785,8.52452976 49.3659909,8.52452976 C48.1878877,8.52452976 47.2332178,7.57060564 47.2332178,6.39342269 C47.2332178,5.21623973 48.1878877,4.26231562 49.3659909,4.26231562 C50.5430785,4.26231562 51.498764,5.21623973 51.498764,6.39342269" id="Stroke-75" stroke="#7450C8" stroke-linecap="round" stroke-linejoin="round"></path>
                        </g>
                        <path d="M0,93.0769231 L3.17647059,93.0769231" id="Stroke-5" stroke="#7450C8" stroke-linecap="round" stroke-linejoin="round"></path>
                        <path d="M122.823529,93.0769231 L126,93.0769231" id="Stroke-7" stroke="#7450C8" stroke-linecap="round" stroke-linejoin="round"></path>
                        <path d="M6.35294118,93.0769231 L119.647059,93.0769231" id="Stroke-3" stroke="#7450C8" stroke-linecap="round" stroke-linejoin="round"></path>
                    </g>
                    <g id="Group" transform="translate(24.000000, 35.000000)">
                        <path d="M69.6164384,71.8309859 C69.6164384,73.5814889 55.6841766,75 38.5,75 C21.3138478,75 7.38356164,73.5814889 7.38356164,71.8309859 C7.38356164,70.0804829 21.3138478,68.6619718 38.5,68.6619718 C55.6841766,68.6619718 69.6164384,70.0804829 69.6164384,71.8309859" id="Fill-9" fill="#DFE4EE"></path>
                        <path d="M77,44.3661972 L76.9921145,4.92762128 C76.9921145,2.20657277 74.7684016,0 72.0242454,0 L4.96589774,0 C2.22371284,0 0,2.20657277 0,4.92762128 L0.00788550654,44.3661972 L77,44.3661972 Z" id="Fill-11" fill="#DFE4EE"></path>
                        <path d="M9.97296251,44.3661972 L54.8493151,0 L4.98450249,0 C2.23204399,0 0,2.20657277 0,4.92762128 L0.00791504961,44.3661972 L9.97296251,44.3661972 Z" id="Fill-13" fill="#FFFFFF"></path>
                        <path d="M77,44.3661972 L77,54.2253521 C77,56.9483568 74.7760594,59.1549296 72.0296505,59.1549296 L4.96640635,59.1549296 C2.2239406,59.1549296 0,56.9483568 0,54.2253521 L0,44.3661972 L77,44.3661972 Z" id="Fill-15" fill="#FFFFFF"></path>
                        <path d="M77,44.3661972 L77,54.2253521 C77,56.9483568 74.7760594,59.1549296 72.0296505,59.1549296 L4.96640635,59.1549296 C2.2239406,59.1549296 0,56.9483568 0,54.2253521 L0,44.3661972 L77,44.3661972 Z" id="Stroke-17" stroke="#7450C8" stroke-linecap="round" stroke-linejoin="round"></path>
                        <path d="M41.1369863,52.2887324 C41.1369863,53.7474849 39.9587139,54.9295775 38.5,54.9295775 C37.043379,54.9295775 35.8630137,53.7474849 35.8630137,52.2887324 C35.8630137,50.8320758 37.043379,49.6478873 38.5,49.6478873 C39.9587139,49.6478873 41.1369863,50.8320758 41.1369863,52.2887324" id="Fill-19" fill="#F4F6FC"></path>
                        <path d="M41.1369863,52.2887324 C41.1369863,53.7474849 39.9587139,54.9295775 38.5,54.9295775 C37.043379,54.9295775 35.8630137,53.7474849 35.8630137,52.2887324 C35.8630137,50.8320758 37.043379,49.6478873 38.5,49.6478873 C39.9587139,49.6478873 41.1369863,50.8320758 41.1369863,52.2887324 Z" id="Stroke-21" stroke="#7450C8" stroke-linecap="round" stroke-linejoin="round"></path>
                        <polygon id="Fill-23" fill="#FFFFFF" points="50.630137 69.7183099 25.3150685 69.7183099 26.5808219 60.2112676 49.3643836 60.2112676"></polygon>
                        <polygon id="Stroke-25" stroke="#7450C8" stroke-linecap="round" stroke-linejoin="round" points="50.630137 69.7183099 25.3150685 69.7183099 26.5808219 60.2112676 49.3643836 60.2112676"></polygon>
                        <path d="M17.9315068,69.7183099 L58.0136986,69.7183099" id="Stroke-27" stroke="#7450C8" stroke-linecap="round" stroke-linejoin="round"></path>
                        <path d="M77,44.3661972 L76.9921145,4.92762128 C76.9921145,2.20657277 74.7684016,0 72.0242454,0 L4.96589774,0 C2.22371284,0 0,2.20657277 0,4.92762128 L0.00788550654,44.3661972 L77,44.3661972 Z" id="Stroke-29" stroke="#7450C8" stroke-linecap="round" stroke-linejoin="round"></path>
                        <g id="check-circle" transform="translate(26.369863, 10.563380)">
                            <ellipse id="Oval" fill="#7450C8" cx="11.6027397" cy="11.6197183" rx="11.6027397" ry="11.6197183"></ellipse>
                            <path d="M9.70708089,12.9124261 L7.81698536,10.9562711 C7.53703371,10.6179439 7.09746793,10.4705733 6.67901157,10.5747496 C6.26055521,10.6789259 5.93383356,11.0170666 5.83317531,11.4501481 C5.73251706,11.8832297 5.87491088,12.3381584 6.20181282,12.6278945 L8.89376706,15.4257888 C9.10994683,15.6477075 9.40260027,15.7714198 9.70708089,15.7695979 C10.0075945,15.7682883 10.2955757,15.644812 10.5089396,15.4257888 L16.2365018,9.49804655 C16.4533618,9.27544015 16.5753425,8.97241886 16.5753425,8.65630715 C16.5753425,8.34019543 16.4533618,8.03717415 16.2365018,7.81456774 C15.789709,7.35490264 15.068122,7.35490264 14.6213293,7.81456774 L9.70708089,12.9124261 Z" id="Path" fill="#FFFFFF" fill-rule="nonzero"></path>
                        </g>
                    </g>
                </g>
            </g>
        </g>
    </g>
</svg>