<svg width="397" height="452" viewBox="0 0 397 452" fill="none" xmlns="http://www.w3.org/2000/svg">
<path d="M0.933594 115.764L590 115.764V85.8157C590 74.77 581.046 65.8157 570 65.8157L20.9336 65.8157C9.88794 65.8157 0.933594 74.77 0.933594 85.8157V115.764Z" fill="white"/>
<path d="M0.93396 472L569.596 472V115.816L0.93396 115.816V472Z" fill="#F4F8FB"/>
<path d="M99.0247 99.2712H31.5087C27.7665 99.2712 24.752 96.2567 24.752 92.5145V87.213C24.752 83.4707 27.7665 80.4562 31.5087 80.4562H99.0247C102.767 80.4562 105.781 83.4707 105.781 87.213V92.5145C105.833 96.2047 102.819 99.2712 99.0247 99.2712Z" fill="white"/>
<path d="M279.483 183.806H42.6318V194.045H279.483V183.806Z" fill="white"/>
<path d="M313.37 202.205H42.6309V212.444H313.37V202.205Z" fill="white"/>
<path d="M340.345 239.004H42.6309V249.243H340.345V239.004Z" fill="white"/>
<path d="M293.724 163.172H42.6309V173.411H293.724V163.172Z" fill="#7B91B3" fill-opacity="0.8"/>
<path d="M263.422 257.455H42.6309V267.694H263.422V257.455Z" fill="white"/>
<path d="M182.652 297.476H42.6309V307.715H182.652V297.476Z" fill="white"/>
<path d="M294.191 315.927H42.6309V326.166H294.191V315.927Z" fill="white"/>
<path d="M221.634 359.95H42.6309V370.189H221.634V359.95Z" fill="white"/>
<path d="M261.187 378.401H42.6309V388.641H261.187V378.401Z" fill="white"/>
<path d="M281.873 422.425H42.6309V432.664H281.873V422.425Z" fill="white"/>
<path d="M168.411 440.876H42.6309V451.115H168.411V440.876Z" fill="white"/>
<path d="M35.6134 183.806H28.1289V212.496H35.6134V183.806Z" fill="#7B91B3" fill-opacity="0.8"/>
<path d="M35.6134 239.004H28.1289V267.694H35.6134V239.004Z" fill="#7B91B3" fill-opacity="0.8"/>
<path d="M35.6134 297.476H28.1289V326.166H35.6134V297.476Z" fill="#7B91B3" fill-opacity="0.8"/>
<path d="M35.6134 359.95H28.1289V388.641H35.6134V359.95Z" fill="#7B91B3" fill-opacity="0.8"/>
<path d="M35.6134 422.425H28.1289V451.115H35.6134V422.425Z" fill="#7B91B3" fill-opacity="0.8"/>
<circle cx="24.5" cy="91.5" r="6" fill="#FF6359" stroke="#FA463A"/>
<circle cx="45.5" cy="91.5" r="6" fill="#F7BF2B" stroke="#E9B11E"/>
<circle cx="66.5" cy="91.5" r="6" fill="#34C546" stroke="#24BA36"/>
</svg>
