<svg fill="none" height="184" viewBox="0 0 338 184" width="338" xmlns="http://www.w3.org/2000/svg" xmlns:xlink="http://www.w3.org/1999/xlink"><filter id="a" color-interpolation-filters="sRGB" filterUnits="userSpaceOnUse" height="179" width="146" x="192" y="5"><feFlood flood-opacity="0" result="BackgroundImageFix"/><feColorMatrix in="SourceAlpha" result="hardAlpha" type="matrix" values="0 0 0 0 0 0 0 0 0 0 0 0 0 0 0 0 0 0 127 0"/><feOffset dx="9" dy="12"/><feGaussianBlur stdDeviation="12.5"/><feColorMatrix type="matrix" values="0 0 0 0 0 0 0 0 0 0.351917 0 0 0 0 0.429167 0 0 0 0.31 0"/><feBlend in2="BackgroundImageFix" mode="normal" result="effect1_dropShadow_1284_22240"/><feBlend in="SourceGraphic" in2="effect1_dropShadow_1284_22240" mode="normal" result="shape"/></filter><filter id="b" color-interpolation-filters="sRGB" filterUnits="userSpaceOnUse" height="184" width="142" x="106" y="0"><feFlood flood-opacity="0" result="BackgroundImageFix"/><feColorMatrix in="SourceAlpha" result="hardAlpha" type="matrix" values="0 0 0 0 0 0 0 0 0 0 0 0 0 0 0 0 0 0 127 0"/><feOffset dx="9" dy="12"/><feGaussianBlur stdDeviation="12.5"/><feColorMatrix type="matrix" values="0 0 0 0 0 0 0 0 0 0.351917 0 0 0 0 0.429167 0 0 0 0.31 0"/><feBlend in2="BackgroundImageFix" mode="normal" result="effect1_dropShadow_1284_22240"/><feBlend in="SourceGraphic" in2="effect1_dropShadow_1284_22240" mode="normal" result="shape"/></filter><filter id="c" color-interpolation-filters="sRGB" filterUnits="userSpaceOnUse" height="179" width="146" x="17" y="5"><feFlood flood-opacity="0" result="BackgroundImageFix"/><feColorMatrix in="SourceAlpha" result="hardAlpha" type="matrix" values="0 0 0 0 0 0 0 0 0 0 0 0 0 0 0 0 0 0 127 0"/><feOffset dx="9" dy="12"/><feGaussianBlur stdDeviation="12.5"/><feColorMatrix type="matrix" values="0 0 0 0 0 0 0 0 0 0.351917 0 0 0 0 0.429167 0 0 0 0.31 0"/><feBlend in2="BackgroundImageFix" mode="normal" result="effect1_dropShadow_1284_22240"/><feBlend in="SourceGraphic" in2="effect1_dropShadow_1284_22240" mode="normal" result="shape"/></filter><filter id="d" color-interpolation-filters="sRGB" filterUnits="userSpaceOnUse" height="57.6475" width="56.8027" x="30.2891" y="35.3137"><feFlood flood-opacity="0" result="BackgroundImageFix"/><feColorMatrix in="SourceAlpha" result="hardAlpha" type="matrix" values="0 0 0 0 0 0 0 0 0 0 0 0 0 0 0 0 0 0 127 0"/><feOffset dx="2" dy="2"/><feGaussianBlur stdDeviation="2"/><feColorMatrix type="matrix" values="0 0 0 0 0.0846528 0 0 0 0 0.150363 0 0 0 0 0.383333 0 0 0 0.25 0"/><feBlend in2="BackgroundImageFix" mode="normal" result="effect1_dropShadow_1284_22240"/><feBlend in="SourceGraphic" in2="effect1_dropShadow_1284_22240" mode="normal" result="shape"/></filter><filter id="e" color-interpolation-filters="sRGB" filterUnits="userSpaceOnUse" height="57.6475" width="57.6426" x="0" y="11"><feFlood flood-opacity="0" result="BackgroundImageFix"/><feColorMatrix in="SourceAlpha" result="hardAlpha" type="matrix" values="0 0 0 0 0 0 0 0 0 0 0 0 0 0 0 0 0 0 127 0"/><feOffset dx="2" dy="2"/><feGaussianBlur stdDeviation="2"/><feColorMatrix type="matrix" values="0 0 0 0 0.0846528 0 0 0 0 0.150363 0 0 0 0 0.383333 0 0 0 0.25 0"/><feBlend in2="BackgroundImageFix" mode="normal" result="effect1_dropShadow_1284_22240"/><feBlend in="SourceGraphic" in2="effect1_dropShadow_1284_22240" mode="normal" result="shape"/></filter><filter id="f" color-interpolation-filters="sRGB" filterUnits="userSpaceOnUse" height="56" width="56" x="282" y="34"><feFlood flood-opacity="0" result="BackgroundImageFix"/><feColorMatrix in="SourceAlpha" result="hardAlpha" type="matrix" values="0 0 0 0 0 0 0 0 0 0 0 0 0 0 0 0 0 0 127 0"/><feOffset dx="2" dy="2"/><feGaussianBlur stdDeviation="2"/><feColorMatrix type="matrix" values="0 0 0 0 0.0846528 0 0 0 0 0.150363 0 0 0 0 0.383333 0 0 0 0.25 0"/><feBlend in2="BackgroundImageFix" mode="normal" result="effect1_dropShadow_1284_22240"/><feBlend in="SourceGraphic" in2="effect1_dropShadow_1284_22240" mode="normal" result="shape"/></filter><linearGradient id="g"><stop offset="0" stop-color="#85beff"/><stop offset="1" stop-color="#5183bb"/></linearGradient><linearGradient id="h" gradientUnits="userSpaceOnUse" x1="256" x2="256" xlink:href="#g" y1="18" y2="147"/><linearGradient id="i" gradientUnits="userSpaceOnUse" x1="168" x2="168" xlink:href="#g" y1="13" y2="147"/><linearGradient id="j" gradientUnits="userSpaceOnUse" x1="81" x2="81" xlink:href="#g" y1="18" y2="147"/><linearGradient id="k" gradientUnits="userSpaceOnUse" x1="56.69" x2="56.69" y1="49.4443" y2="86.9612"><stop offset="0" stop-color="#ffb673"/><stop offset="1" stop-color="#ff7c44"/></linearGradient><linearGradient id="l" gradientUnits="userSpaceOnUse" x1="26.8216" x2="26.8216" y1="25.1306" y2="62.6475"><stop offset="0" stop-color="#ffed49"/><stop offset="1" stop-color="#ffc369"/></linearGradient><linearGradient id="m" gradientUnits="userSpaceOnUse" x1="308" x2="308" y1="47.7281" y2="84"><stop offset="0" stop-color="#ffb773"/><stop offset="1" stop-color="#ff864c"/></linearGradient><g filter="url(#a)"><path d="m263.306 51.8788c-4.809 6.329-9.926 13.2164-15.352 20.6623s-9.989 15.0779-13.688 22.8961h29.04zm27.006-33.8788v77.4372h13.688v22.7098h-13.688v28.853h-27.006v-28.853h-55.306v-20.2899c2.713-5.4603 6.104-11.6031 10.173-18.4285 4.07-6.9495 8.571-14.0231 13.503-21.2208 5.056-7.3218 10.359-14.4574 15.908-21.4069s11.098-13.2165 16.647-18.8009z" fill="url(#h)"/></g><g filter="url(#b)"><path d="m214 79.9073c0 21.6227-4.109 38.2417-12.328 49.8557-8.096 11.492-19.32 17.237-33.672 17.237s-25.637-5.745-33.856-17.237c-8.096-11.614-12.144-28.233-12.144-49.8557 0-10.7496 1.043-20.2637 3.128-28.5422 2.208-8.2784 5.336-15.2595 9.384-20.9432 4.048-5.6838 8.893-10.0083 14.536-12.9738 5.643-2.9654 11.96-4.4481 18.952-4.4481 14.352 0 25.576 5.8073 33.672 17.4219 8.219 11.491 12.328 27.9861 12.328 49.4854zm-27.968 0c0-6.425-.307-12.2323-.92-17.4218-.613-5.3131-1.595-9.8848-2.944-13.7151s-3.189-6.7958-5.52-8.8963-5.213-3.1507-8.648-3.1507-6.317 1.0502-8.648 3.1507c-2.208 2.1005-4.048 5.066-5.52 8.8963-1.349 3.8303-2.331 8.402-2.944 13.7151-.613 5.1895-.92 10.9968-.92 17.4218 0 6.4251.307 12.2942.92 17.6072.613 5.3135 1.595 9.8845 2.944 13.7155 1.472 3.83 3.312 6.795 5.52 8.896 2.331 2.1 5.213 3.151 8.648 3.151s6.317-1.051 8.648-3.151c2.331-2.101 4.171-5.066 5.52-8.896 1.349-3.831 2.331-8.402 2.944-13.7155.613-5.313.92-11.1821.92-17.6072z" fill="url(#i)"/></g><g filter="url(#c)"><path d="m88.3064 51.8788c-4.8093 6.329-9.9268 13.2164-15.3526 20.6623-5.4259 7.4459-9.9885 15.0779-13.6879 22.8961h29.0405zm27.0056-33.8788v77.4372h13.688v22.7098h-13.688v28.853h-27.0056v-28.853h-55.3064v-20.2899c2.7129-5.4603 6.104-11.6031 10.1734-18.4285 4.0694-6.9495 8.5703-14.0231 13.5029-21.2208 5.0559-7.3218 10.3584-14.4574 15.9075-21.4069s11.0983-13.2165 16.6474-18.8009z" fill="url(#j)"/></g><g filter="url(#d)"><path d="m32.2891 58.007v15.2693c0 2.8121 2.2988 5.0921 5.1364 5.0921h23.2778l10.5952 8.5928v-8.5928h4.6554c2.8369 0 5.137-2.28 5.137-5.0921v-30.8705c0-2.8121-2.3001-5.0921-5.137-5.0921h-24.073z" fill="url(#k)"/></g><g filter="url(#e)"><path d="m26.8213 13c-13.7082 0-24.8213 11.1141-24.8213 24.8234 0 5.4551 1.76067 10.498 4.74285 14.5945l-3.05974 6.723 7.57239-1.9798v-.0031c4.2575 3.4328 9.6715 5.4895 15.5658 5.4895 13.7088 0 24.822-11.1141 24.822-24.8241 0-13.7093-11.1132-24.8234-24.822-24.8234z" fill="url(#l)"/></g><path d="m29.3171 31.5853c0 1.8865-.0663 3.6449-.199 5.2752-.1326 1.6303-.3094 3.2838-.5304 4.9607h-3.7791c-.221-1.6769-.4089-3.3304-.5636-4.9607-.1326-1.6303-.1989-3.3887-.1989-5.2752v-6.2533h5.271zm.4309 15.1966c0 1.0248-.3204 1.8166-.9614 2.3756-.6188.559-1.326.8384-2.1216.8384s-1.5138-.2794-2.1548-.8384c-.6188-.559-.9282-1.3508-.9282-2.3756 0-1.0247.3094-1.8166.9282-2.3755.641-.559 1.3592-.8385 2.1548-.8385s1.5028.2795 2.1216.8385c.641.5589.9614 1.3508.9614 2.3755z" fill="#fff"/><path d="m58.3752 53.4304c-.6617 0-1.2867.0811-1.8749.2434s-1.2407.4237-1.9575.7843l-1.158-3.056c.7168-.4507 1.5623-.7933 2.5365-1.0276.9742-.2524 1.93-.3787 2.8675-.3787 1.1763 0 2.1413.1533 2.895.4598.772.3065 1.3785.6941 1.8197 1.1629.4411.4687.7444.9826.9098 1.5415.1838.5589.2758 1.0907.2758 1.5955 0 .5049-.0828.9736-.2482 1.4063-.147.4147-.34.8023-.579 1.1629-.2389.3606-.5147.7031-.8271 1.0277-.3125.3245-.6158.631-.9099.9195-.2206.2163-.4503.4507-.6893.7031-.2389.2344-.4595.4868-.6617.7572-.1838.2705-.34.5589-.4687.8654-.1287.2885-.193.586-.193.8925v.3245c0 .1442.0092.2704.0276.3786h-3.6395c-.0367-.1803-.0643-.3786-.0827-.595 0-.2343 0-.4327 0-.5949 0-.5048.0644-.9556.193-1.3522.1287-.4147.2941-.7933.4963-1.1358.2206-.3606.4687-.6942.7444-1.0007.2758-.3065.5607-.6039.8548-.8924.4227-.4147.8087-.8203 1.158-1.217.3492-.4147.5238-.8834.5238-1.4063 0-.4327-.1746-.8023-.5238-1.1087-.3309-.3065-.8272-.4598-1.4889-.4598zm2.5641 13.603c0 .7933-.2665 1.4063-.7995 1.839-.5147.4327-1.1029.649-1.7646.649s-1.2591-.2163-1.7921-.649c-.5147-.4327-.772-1.0457-.772-1.839s.2573-1.4063.772-1.839c.533-.4327 1.1304-.649 1.7921-.649s1.2499.2163 1.7646.649c.533.4327.7995 1.0457.7995 1.839z" fill="#fff"/><g filter="url(#f)"><path d="m308 84c13.255 0 24-10.7452 24-24s-10.745-24-24-24-24 10.7452-24 24 10.745 24 24 24z" fill="url(#m)"/></g><path clip-rule="evenodd" d="m308.193 56.6572-5.657-5.6572-3.536 3.5355 5.657 5.6572-5.656 5.6565 3.535 3.5356 5.657-5.6565 5.656 5.6565 3.536-3.5356-5.657-5.6565 5.657-5.6572-3.535-3.5355z" fill="#fff" fill-rule="evenodd"/></svg>