<svg width="48" height="48" viewBox="0 0 48 48" fill="none" xmlns="http://www.w3.org/2000/svg">
<circle cx="24" cy="24" r="24" fill="#FFF9DD"/>
<g clip-path="url(#clip0)">
<path d="M34.8074 25.3252C34.4691 25.3252 34.1457 25.3901 33.8489 25.5081C33.5477 24.4045 32.5364 23.5908 31.3387 23.5908C30.673 23.5908 30.0649 23.8421 29.6043 24.2549C29.1437 23.8421 28.5356 23.5908 27.8699 23.5908C27.566 23.5908 27.274 23.6432 27.0027 23.7394V20.9893C27.0027 19.5548 25.8357 18.3877 24.4012 18.3877C22.9667 18.3877 21.7996 19.5548 21.7996 20.9893V29.451L21.3965 29.0479C20.3799 28.0313 18.7344 28.0311 17.7176 29.0479C16.7009 30.0646 16.7008 31.7101 17.7176 32.7268L23.937 38.9462C24.0996 39.1088 24.3202 39.2002 24.5502 39.2002H34.8074C35.166 39.2002 35.4876 38.9795 35.6166 38.6449C36.8059 35.5599 37.409 32.3192 37.409 29.0129V27.9268C37.409 26.4923 36.242 25.3252 34.8074 25.3252ZM35.6747 29.0129C35.6746 31.9072 35.1804 34.748 34.2049 37.4658H24.9094L18.9441 31.5004C18.6052 31.1617 18.6052 30.6132 18.9441 30.2744C19.283 29.9355 19.8313 29.9355 20.1702 30.2744L22.0539 32.158C22.3019 32.406 22.6751 32.48 22.9989 32.3457C23.3229 32.2115 23.534 31.8953 23.534 31.5446V20.9893C23.534 20.5111 23.9231 20.1221 24.4012 20.1221C24.8794 20.1221 25.2684 20.5111 25.2684 20.9893V27.9268C25.2684 28.4057 25.6567 28.7939 26.1356 28.7939C26.6145 28.7939 27.0028 28.4057 27.0028 27.9268V26.1924C27.0028 25.7142 27.3918 25.3252 27.87 25.3252C28.3481 25.3252 28.7372 25.7142 28.7372 26.1924V27.9268C28.7372 28.4057 29.1254 28.7939 29.6044 28.7939C30.0833 28.7939 30.4715 28.4057 30.4715 27.9268V26.1924C30.4715 25.7142 30.8606 25.3252 31.3387 25.3252C31.8169 25.3252 32.2059 25.7142 32.2059 26.1924V27.9268C32.2059 28.4057 32.5942 28.7939 33.0731 28.7939C33.552 28.7939 33.9403 28.4057 33.9403 27.9268C33.9403 27.4486 34.3293 27.0596 34.8075 27.0596C35.2856 27.0596 35.6747 27.4486 35.6747 27.9268V29.0129Z" fill="#FFD200"/>
<path d="M18.2302 12.6635C18.1288 12.3468 17.8553 12.116 17.5261 12.0694L15.5773 11.7929L14.7095 10.0761C14.562 9.78417 14.2627 9.6001 13.9356 9.6001C13.6084 9.6001 13.3092 9.78417 13.1616 10.0761L12.2939 11.7928L10.345 12.0693C10.0159 12.116 9.7423 12.3468 9.64095 12.6635C9.53955 12.9801 9.62812 13.3269 9.86896 13.556L11.2666 14.8862L10.9377 16.7592C10.8807 17.0834 11.0123 17.412 11.2772 17.6072C11.5427 17.8029 11.8955 17.8307 12.1878 17.6807L13.9356 16.7836L15.6833 17.6808C15.9762 17.8311 16.3289 17.8027 16.5939 17.6073C16.8588 17.412 16.9904 17.0835 16.9334 16.7593L16.6045 14.8863L18.0021 13.5561C18.243 13.3269 18.3316 12.9802 18.2302 12.6635ZM15.0721 13.9504C14.8618 14.1505 14.7656 14.4426 14.8158 14.7286L14.9234 15.3412L14.3316 15.0374C14.083 14.9098 13.7881 14.9098 13.5396 15.0374L12.9477 15.3412L13.0553 14.7285C13.1055 14.4426 13.0093 14.1505 12.799 13.9503L12.3624 13.5348L12.9855 13.4464C13.2661 13.4066 13.5096 13.2321 13.6375 12.9791L13.9356 12.3896L14.2335 12.9791C14.3614 13.2321 14.6049 13.4066 14.8856 13.4464L15.5086 13.5348L15.0721 13.9504Z" fill="#FFD200"/>
<path d="M28.6951 12.6635C28.5937 12.3468 28.3202 12.116 27.991 12.0694L26.0422 11.7929L25.1744 10.0761C25.0269 9.78417 24.7276 9.6001 24.4005 9.6001C24.0734 9.6001 23.7741 9.78417 23.6265 10.0761L22.7587 11.7928L20.8098 12.0693C20.4807 12.116 20.2071 12.3468 20.1058 12.6635C20.0044 12.9801 20.093 13.3269 20.3338 13.556L21.7315 14.8863L21.4026 16.7593C21.3456 17.0835 21.4772 17.412 21.7421 17.6073C22.0076 17.8029 22.3604 17.8308 22.6527 17.6808L24.4005 16.7836L26.1482 17.6808C26.4411 17.8311 26.7938 17.8027 27.0588 17.6073C27.3237 17.412 27.4553 17.0835 27.3983 16.7593L27.0694 14.8863L28.467 13.5561C28.7079 13.3269 28.7965 12.9802 28.6951 12.6635ZM25.5369 13.9503C25.3266 14.1505 25.2304 14.4426 25.2807 14.7285L25.3882 15.3412L24.7965 15.0374C24.5479 14.9098 24.253 14.9098 24.0045 15.0374L23.4126 15.3412L23.5202 14.7285C23.5704 14.4426 23.4742 14.1505 23.2639 13.9503L22.8273 13.5348L23.4504 13.4464C23.7311 13.4066 23.9746 13.2321 24.1025 12.9791L24.4005 12.3896L24.6984 12.9791C24.8263 13.2321 25.0698 13.4066 25.3505 13.4464L25.9735 13.5348L25.5369 13.9503Z" fill="#FFD200"/>
<path d="M39.1579 12.6635C39.0566 12.3468 38.7831 12.116 38.4539 12.0693L36.505 11.7928L35.6373 10.0761C35.4897 9.78417 35.1904 9.6001 34.8633 9.6001C34.5362 9.6001 34.2369 9.78417 34.0894 10.0761L33.2216 11.7928L31.2727 12.0693C30.9436 12.116 30.67 12.3468 30.5687 12.6635C30.4673 12.9801 30.5559 13.3269 30.7967 13.556L32.1944 14.8862L31.8654 16.7592C31.8085 17.0834 31.94 17.412 32.205 17.6072C32.4704 17.8029 32.8232 17.8307 33.1155 17.6807L34.8633 16.7836L36.6111 17.6808C36.904 17.8311 37.2567 17.8027 37.5217 17.6073C37.7866 17.412 37.9182 17.0835 37.8612 16.7593L37.5323 14.8863L38.9299 13.5561C39.1708 13.3269 39.2594 12.9801 39.1579 12.6635ZM35.9999 13.9504C35.7896 14.1505 35.6934 14.4426 35.7436 14.7286L35.8512 15.3412L35.2594 15.0374C35.0108 14.9098 34.7159 14.9098 34.4674 15.0374L33.8755 15.3412L33.9831 14.7285C34.0333 14.4426 33.9371 14.1505 33.7268 13.9503L33.2902 13.5348L33.9133 13.4464C34.1939 13.4066 34.4374 13.2321 34.5653 12.9791L34.8633 12.3896L35.1613 12.9791C35.2892 13.2321 35.5327 13.4066 35.8134 13.4464L36.4364 13.5348L35.9999 13.9504Z" fill="#FFD200"/>
</g>
<defs>
<clipPath id="clip0">
<rect width="29.6" height="29.6" fill="white" transform="translate(9.59961 9.6001)"/>
</clipPath>
</defs>
</svg>
