<svg width="263" height="178" viewBox="0 0 263 178" fill="none" xmlns="http://www.w3.org/2000/svg">
<path d="M253.953 173.135H18.3368C16.515 173.135 15.1487 174.215 15.1487 175.404C15.1487 176.701 16.6668 177.674 18.3368 177.674H253.801C255.623 177.674 256.99 176.593 256.99 175.404C257.141 174.215 255.623 173.135 253.953 173.135Z" fill="#D7F1F9"/>
<path d="M208.601 0H51.1705C42.2868 0 35.1508 7.13605 35.1508 16.0197V123.934C35.1508 132.818 42.2868 139.954 51.1705 139.954H208.601C217.484 139.954 224.62 132.818 224.62 123.934V16.0197C224.62 7.28169 217.484 0 208.601 0Z" fill="#5183BB"/>
<path d="M50.5883 98.5939C47.0931 98.5939 44.1804 95.6812 44.1804 92.186L44.6173 15.8739C44.6173 12.3787 47.53 9.46606 51.0252 9.46606H208.892C212.387 9.46606 215.3 12.3787 215.3 15.8739L214.863 92.3317C214.863 95.8269 211.951 98.7395 208.455 98.7395H50.5883V98.5939Z" fill="#D7F1F9"/>
<path d="M35.2489 109.592V124.104C35.2489 132.956 42.3798 140.067 51.2569 140.067H208.572C217.449 140.067 224.58 132.956 224.58 124.104V109.592H35.2489Z" fill="#DCF3FA"/>
<path d="M157.796 140.067H102.034V161.464H157.796V140.067Z" fill="#BDE6EF"/>
<path d="M157.796 140.067H102.034V146.551H157.796V140.067Z" fill="#A4D3DD"/>
<path d="M169.654 161.464H90.0286C82.2566 161.464 76.0978 167.687 76.0978 175.213V177.673H183.731V175.213C183.731 167.542 177.426 161.464 169.654 161.464Z" fill="#D9F2FA"/>
<path d="M136.399 125.802C136.399 129.748 133.357 132.934 129.59 132.934C125.824 132.934 122.782 129.748 122.782 125.802C122.782 121.856 125.824 118.67 129.59 118.67C133.357 118.67 136.399 122.008 136.399 125.802Z" fill="#5183BB"/>
<g filter="url(#filter0_d)">
<path d="M188.756 20.762H68.4794C66.3083 20.762 64.4268 22.4465 64.4268 24.6924V30.4478C64.4268 32.5534 66.1636 34.3783 68.4794 34.3783H188.756C190.927 34.3783 192.809 32.6938 192.809 30.4478V24.6924C192.809 22.4465 190.927 20.762 188.756 20.762Z" fill="white"/>
</g>
<path d="M138.663 73.9303H66.0342C65.1574 73.9303 64.4268 74.7189 64.4268 75.6652V78.031C64.4268 78.9773 65.1574 79.7659 66.0342 79.7659H138.809C140.271 79.7659 141.586 78.5041 141.586 76.7692C141.44 75.192 140.271 73.9303 138.663 73.9303Z" fill="#5183BB"/>
<path d="M113.394 84.3046H66.0346C65.1576 84.3046 64.4268 85.0724 64.4268 85.9938V88.4509C64.4268 89.3723 65.1576 90.1401 66.0346 90.1401H113.394C114.271 90.1401 115.002 89.3723 115.002 88.4509V85.9938C115.002 84.9188 114.271 84.3046 113.394 84.3046Z" fill="white"/>
<path d="M89.9091 30.4371C91.1156 30.4371 92.0936 29.4591 92.0936 28.2526C92.0936 27.0462 91.1156 26.0681 89.9091 26.0681C88.7026 26.0681 87.7246 27.0462 87.7246 28.2526C87.7246 29.4591 88.7026 30.4371 89.9091 30.4371Z" fill="#5183BB"/>
<path d="M105.492 30.4371C106.698 30.4371 107.677 29.4591 107.677 28.2526C107.677 27.0462 106.698 26.0681 105.492 26.0681C104.286 26.0681 103.307 27.0462 103.307 28.2526C103.307 29.4591 104.286 30.4371 105.492 30.4371Z" fill="#5183BB"/>
<path d="M120.928 30.4371C122.135 30.4371 123.113 29.4591 123.113 28.2526C123.113 27.0462 122.135 26.0681 120.928 26.0681C119.722 26.0681 118.744 27.0462 118.744 28.2526C118.744 29.4591 119.722 30.4371 120.928 30.4371Z" fill="#5183BB"/>
<path d="M136.512 30.4371C137.718 30.4371 138.697 29.4591 138.697 28.2526C138.697 27.0462 137.718 26.0681 136.512 26.0681C135.306 26.0681 134.328 27.0462 134.328 28.2526C134.328 29.4591 135.306 30.4371 136.512 30.4371Z" fill="#5183BB"/>
<path d="M151.949 30.4371C153.155 30.4371 154.133 29.4591 154.133 28.2526C154.133 27.0462 153.155 26.0681 151.949 26.0681C150.742 26.0681 149.764 27.0462 149.764 28.2526C149.764 29.4591 150.742 30.4371 151.949 30.4371Z" fill="#5183BB"/>
<path d="M167.531 30.4371C168.738 30.4371 169.716 29.4591 169.716 28.2526C169.716 27.0462 168.738 26.0681 167.531 26.0681C166.325 26.0681 165.347 27.0462 165.347 28.2526C165.347 29.4591 166.325 30.4371 167.531 30.4371Z" fill="#5183BB"/>
<path d="M153.405 42.8159H137.823C135.055 42.8159 132.871 45.0004 132.871 47.7675V63.3503C132.871 66.1173 135.055 68.3018 137.823 68.3018H153.405C156.172 68.3018 158.357 66.1173 158.357 63.3503V47.6218C158.357 45.0004 156.172 42.8159 153.405 42.8159Z" fill="white"/>
<path d="M118.163 42.8159H102.58C99.8129 42.8159 97.6284 45.0004 97.6284 47.7675V63.3503C97.6284 66.1173 99.8129 68.3018 102.58 68.3018H118.163C120.93 68.3018 123.114 66.1173 123.114 63.3503V47.6218C123.114 45.0004 120.93 42.8159 118.163 42.8159Z" fill="#5183BB"/>
<path d="M186.725 42.8074H171.66C168.985 42.8074 166.873 44.9749 166.873 47.7203V63.1818C166.873 65.9273 168.985 68.0948 171.66 68.0948H186.725C189.4 68.0948 191.512 65.9273 191.512 63.1818V47.5758C191.512 44.9749 189.4 42.8074 186.725 42.8074Z" fill="white"/>
<path d="M83.5009 42.8159H67.9181C65.1511 42.8159 62.9666 45.0004 62.9666 47.7675V63.3503C62.9666 66.1173 65.1511 68.3018 67.9181 68.3018H83.5009C86.268 68.3018 88.4525 66.1173 88.4525 63.3503V47.6218C88.3068 45.0004 86.1223 42.8159 83.5009 42.8159Z" fill="#F7FBFD"/>
<g filter="url(#filter1_d)">
<path d="M25.4822 83.2669C38.3512 83.2669 48.7836 72.8345 48.7836 59.9655C48.7836 47.0965 38.3512 36.6641 25.4822 36.6641C12.6132 36.6641 2.18079 47.0965 2.18079 59.9655C2.18079 72.8345 12.6132 83.2669 25.4822 83.2669Z" fill="url(#paint0_linear)"/>
</g>
<path d="M21.258 70.3058C20.6755 70.3058 20.0929 70.0145 19.656 69.5776L12.0831 62.0046C11.2093 61.1308 11.2093 59.5289 12.0831 58.6551C12.9569 57.7813 14.5589 57.7813 15.4327 58.6551L21.4036 64.626L34.9476 51.0821C35.8214 50.2083 37.4234 50.2083 38.2972 51.0821C39.171 51.9559 39.171 53.5579 38.2972 54.4317L23.0056 69.5776C22.5687 70.0145 21.9862 70.3058 21.258 70.3058Z" fill="white"/>
<g filter="url(#filter2_d)">
<path d="M251.562 13.6895H212.095C209.328 13.6895 207.144 15.874 207.144 18.641V53.5931C207.144 54.9038 208.746 55.4863 209.62 54.6125L218.649 45.5832C219.377 44.8551 220.542 44.4182 221.707 44.4182H251.708C254.475 44.4182 256.805 42.088 256.805 39.321V18.641C256.659 15.874 254.329 13.6895 251.562 13.6895Z" fill="#BADBFF"/>
</g>
<path d="M246.757 22.719H218.65C217.631 22.719 216.902 23.5928 216.902 24.4666C216.902 25.486 217.776 26.2142 218.65 26.2142H246.757C247.777 26.2142 248.505 25.3404 248.505 24.4666C248.65 23.5928 247.777 22.719 246.757 22.719Z" fill="#5183BB"/>
<path d="M235.835 33.2039H218.65C217.631 33.2039 216.902 34.0777 216.902 34.9515C216.902 35.9709 217.776 36.6991 218.65 36.6991H235.835C236.854 36.6991 237.582 35.8253 237.582 34.9515C237.582 33.932 236.709 33.2039 235.835 33.2039Z" fill="#5183BB"/>
<path d="M201.464 171.993V177.527H186.464C185.59 177.527 185.153 176.362 185.881 175.78C187.629 174.469 190.687 172.722 195.056 171.993H201.464Z" fill="#004E82"/>
<path d="M228.698 171.993V177.527H213.698C212.824 177.527 212.387 176.362 213.115 175.78C214.863 174.469 217.921 172.722 222.29 171.993H228.698Z" fill="#004E82"/>
<path d="M228.844 172.139C227.824 165.003 220.834 117.235 219.377 116.07C217.921 114.905 207.144 127.284 207.144 127.284C208.309 128.449 219.232 164.711 222.436 172.139H228.844Z" fill="#004E82"/>
<path d="M201.319 172.139C203.794 164.129 209.474 138.643 216.319 129.76C219.523 125.536 219.523 115.051 219.523 115.051L200.736 118.837C197.678 125.099 195.639 162.527 195.202 172.139H201.319Z" fill="#5183BB"/>
<path d="M214.281 90.0016C213.115 86.7977 196.368 65.8264 196.368 65.8264L190.397 68.5935C190.397 68.5935 201.465 87.9627 204.232 92.0405L214.281 90.0016Z" fill="#64D3B5"/>
<path d="M200.881 73.6907C200.881 73.6907 195.493 70.778 199.716 64.9526C199.716 64.9526 201.901 68.5935 206.124 67.4284C219.231 63.3507 219.814 77.0402 217.484 81.9918C216.464 84.1763 213.843 85.7783 213.26 85.6326C212.678 85.487 210.202 80.6811 210.202 80.6811L200.881 73.6907Z" fill="#004E82"/>
<path d="M201.029 73.3993C200.301 74.4187 200.447 76.6032 200.447 77.914C200.447 81.4092 202.777 84.0306 205.835 84.0306C208.02 84.0306 209.913 82.5742 210.932 80.681C212.097 80.9723 213.262 79.9528 213.699 78.7878C214.136 77.477 213.554 76.1663 212.389 75.7294C211.952 75.5838 211.369 76.0207 210.932 76.1663C210.932 76.1663 208.602 75.2925 207.728 72.9624L201.029 73.3993Z" fill="#FFE27C"/>
<path d="M212.825 79.9526L206.999 81.1177V87.9625H212.825V79.9526Z" fill="#FFE27C"/>
<path d="M221.416 116.07C221.416 116.07 217.047 91.312 216.465 89.71C215.737 88.108 213.407 87.0886 206.707 87.2342C202.921 87.2342 190.542 85.0497 188.503 84.1759C186.464 83.3021 175.396 69.9038 175.396 69.9038L170.299 73.2534C170.299 73.2534 180.785 89.71 183.843 90.8751C187.047 91.8945 198.261 95.8266 198.261 95.8266L198.698 120.002C198.698 119.711 213.989 126.847 221.416 116.07Z" fill="url(#paint1_linear)"/>
<path d="M175.251 70.0493C175.251 70.0493 172.63 63.4958 171.901 63.3502C171.319 63.2046 170.882 65.826 170.882 65.826C170.882 65.826 168.406 59.7094 167.095 59.5637C165.785 59.5637 164.474 66.8454 170.591 72.8164L175.251 70.0493Z" fill="#FFE27C"/>
<path d="M191.417 68.1565C191.417 68.1565 186.611 62.6224 187.485 62.3311C188.359 62.1855 190.252 63.6419 190.252 63.6419C190.252 63.6419 186.902 56.0689 189.087 55.7776C191.271 55.4864 195.495 62.4768 196.368 65.6807L191.417 68.1565Z" fill="#FFE27C"/>
<defs>
<filter id="filter0_d" x="62.4268" y="18.762" width="136.382" height="21.6163" filterUnits="userSpaceOnUse" color-interpolation-filters="sRGB">
<feFlood flood-opacity="0" result="BackgroundImageFix"/>
<feColorMatrix in="SourceAlpha" type="matrix" values="0 0 0 0 0 0 0 0 0 0 0 0 0 0 0 0 0 0 127 0" result="hardAlpha"/>
<feOffset dx="2" dy="2"/>
<feGaussianBlur stdDeviation="2"/>
<feColorMatrix type="matrix" values="0 0 0 0 0.0846528 0 0 0 0 0.150363 0 0 0 0 0.383333 0 0 0 0.25 0"/>
<feBlend mode="normal" in2="BackgroundImageFix" result="effect1_dropShadow"/>
<feBlend mode="normal" in="SourceGraphic" in2="effect1_dropShadow" result="shape"/>
</filter>
<filter id="filter1_d" x="0.180786" y="34.6641" width="54.6028" height="54.6028" filterUnits="userSpaceOnUse" color-interpolation-filters="sRGB">
<feFlood flood-opacity="0" result="BackgroundImageFix"/>
<feColorMatrix in="SourceAlpha" type="matrix" values="0 0 0 0 0 0 0 0 0 0 0 0 0 0 0 0 0 0 127 0" result="hardAlpha"/>
<feOffset dx="2" dy="2"/>
<feGaussianBlur stdDeviation="2"/>
<feColorMatrix type="matrix" values="0 0 0 0 0.0846528 0 0 0 0 0.150363 0 0 0 0 0.383333 0 0 0 0.25 0"/>
<feBlend mode="normal" in2="BackgroundImageFix" result="effect1_dropShadow"/>
<feBlend mode="normal" in="SourceGraphic" in2="effect1_dropShadow" result="shape"/>
</filter>
<filter id="filter2_d" x="205.144" y="11.6895" width="57.6611" height="49.3386" filterUnits="userSpaceOnUse" color-interpolation-filters="sRGB">
<feFlood flood-opacity="0" result="BackgroundImageFix"/>
<feColorMatrix in="SourceAlpha" type="matrix" values="0 0 0 0 0 0 0 0 0 0 0 0 0 0 0 0 0 0 127 0" result="hardAlpha"/>
<feOffset dx="2" dy="2"/>
<feGaussianBlur stdDeviation="2"/>
<feColorMatrix type="matrix" values="0 0 0 0 0.0846528 0 0 0 0 0.150363 0 0 0 0 0.383333 0 0 0 0.25 0"/>
<feBlend mode="normal" in2="BackgroundImageFix" result="effect1_dropShadow"/>
<feBlend mode="normal" in="SourceGraphic" in2="effect1_dropShadow" result="shape"/>
</filter>
<linearGradient id="paint0_linear" x1="25.4822" y1="36.6641" x2="25.4822" y2="83.2669" gradientUnits="userSpaceOnUse">
<stop stop-color="#B0E7C6"/>
<stop offset="1" stop-color="#5DD1B3"/>
</linearGradient>
<linearGradient id="paint1_linear" x1="195.858" y1="69.9038" x2="195.858" y2="122.051" gradientUnits="userSpaceOnUse">
<stop stop-color="#B0E7C6"/>
<stop offset="1" stop-color="#5DD1B3"/>
</linearGradient>
</defs>
</svg>
