<svg fill="none" height="178" viewBox="0 0 263 178" width="263" xmlns="http://www.w3.org/2000/svg" xmlns:xlink="http://www.w3.org/1999/xlink"><filter id="a" color-interpolation-filters="sRGB" filterUnits="userSpaceOnUse" height="21.6163" width="136.382" x="62.4268" y="18.762"><feFlood flood-opacity="0" result="BackgroundImageFix"/><feColorMatrix in="SourceAlpha" result="hardAlpha" type="matrix" values="0 0 0 0 0 0 0 0 0 0 0 0 0 0 0 0 0 0 127 0"/><feOffset dx="2" dy="2"/><feGaussianBlur stdDeviation="2"/><feColorMatrix type="matrix" values="0 0 0 0 0.0846528 0 0 0 0 0.150363 0 0 0 0 0.383333 0 0 0 0.25 0"/><feBlend in2="BackgroundImageFix" mode="normal" result="effect1_dropShadow"/><feBlend in="SourceGraphic" in2="effect1_dropShadow" mode="normal" result="shape"/></filter><filter id="b" color-interpolation-filters="sRGB" filterUnits="userSpaceOnUse" height="54.6028" width="54.6028" x=".180786" y="34.6641"><feFlood flood-opacity="0" result="BackgroundImageFix"/><feColorMatrix in="SourceAlpha" result="hardAlpha" type="matrix" values="0 0 0 0 0 0 0 0 0 0 0 0 0 0 0 0 0 0 127 0"/><feOffset dx="2" dy="2"/><feGaussianBlur stdDeviation="2"/><feColorMatrix type="matrix" values="0 0 0 0 0.0846528 0 0 0 0 0.150363 0 0 0 0 0.383333 0 0 0 0.25 0"/><feBlend in2="BackgroundImageFix" mode="normal" result="effect1_dropShadow"/><feBlend in="SourceGraphic" in2="effect1_dropShadow" mode="normal" result="shape"/></filter><filter id="c" color-interpolation-filters="sRGB" filterUnits="userSpaceOnUse" height="49.3386" width="57.6611" x="205.144" y="11.6895"><feFlood flood-opacity="0" result="BackgroundImageFix"/><feColorMatrix in="SourceAlpha" result="hardAlpha" type="matrix" values="0 0 0 0 0 0 0 0 0 0 0 0 0 0 0 0 0 0 127 0"/><feOffset dx="2" dy="2"/><feGaussianBlur stdDeviation="2"/><feColorMatrix type="matrix" values="0 0 0 0 0.0846528 0 0 0 0 0.150363 0 0 0 0 0.383333 0 0 0 0.25 0"/><feBlend in2="BackgroundImageFix" mode="normal" result="effect1_dropShadow"/><feBlend in="SourceGraphic" in2="effect1_dropShadow" mode="normal" result="shape"/></filter><linearGradient id="d"><stop offset="0" stop-color="#b0e7c6"/><stop offset="1" stop-color="#5dd1b3"/></linearGradient><linearGradient id="e" gradientUnits="userSpaceOnUse" x1="25.4822" x2="25.4822" xlink:href="#d" y1="36.6641" y2="83.2669"/><linearGradient id="f" gradientUnits="userSpaceOnUse" x1="195.858" x2="195.858" xlink:href="#d" y1="69.9038" y2="122.051"/><path d="m253.953 173.135h-235.6162c-1.8218 0-3.1881 1.08-3.1881 2.269 0 1.297 1.5181 2.27 3.1881 2.27h235.4642c1.822 0 3.189-1.081 3.189-2.27.151-1.189-1.367-2.269-3.037-2.269z" fill="#d7f1f9"/><path d="m208.601 0h-157.4305c-8.8837 0-16.0197 7.13605-16.0197 16.0197v107.9143c0 8.884 7.136 16.02 16.0197 16.02h157.4305c8.883 0 16.019-7.136 16.019-16.02v-107.9143c0-8.73801-7.136-16.0197-16.019-16.0197z" fill="#5183bb"/><path d="m50.5883 98.5939c-3.4952 0-6.4079-2.9127-6.4079-6.4079l.4369-76.3121c0-3.4952 2.9127-6.40784 6.4079-6.40784h157.8668c3.495 0 6.408 2.91264 6.408 6.40784l-.437 76.4578c0 3.4952-2.912 6.4078-6.408 6.4078h-157.8667z" fill="#d7f1f9"/><path d="m35.2489 109.592v14.512c0 8.852 7.1309 15.963 16.008 15.963h157.3151c8.877 0 16.008-7.111 16.008-15.963v-14.512z" fill="#dcf3fa"/><path d="m157.796 140.067h-55.762v21.397h55.762z" fill="#bde6ef"/><path d="m157.796 140.067h-55.762v6.484h55.762z" fill="#a4d3dd"/><path d="m169.654 161.464h-79.6254c-7.772 0-13.9308 6.223-13.9308 13.749v2.46h107.6332v-2.46c0-7.671-6.305-13.749-14.077-13.749z" fill="#d9f2fa"/><path d="m136.399 125.802c0 3.946-3.042 7.132-6.809 7.132-3.766 0-6.808-3.186-6.808-7.132s3.042-7.132 6.808-7.132c3.767 0 6.809 3.338 6.809 7.132z" fill="#5183bb"/><g filter="url(#a)"><path d="m188.756 20.762h-120.2766c-2.1711 0-4.0526 1.6845-4.0526 3.9304v5.7554c0 2.1056 1.7368 3.9305 4.0526 3.9305h120.2766c2.171 0 4.053-1.6845 4.053-3.9305v-5.7554c0-2.2459-1.882-3.9304-4.053-3.9304z" fill="#fff"/></g><path d="m138.663 73.9303h-72.6288c-.8768 0-1.6074.7886-1.6074 1.7349v2.3658c0 .9463.7306 1.7349 1.6074 1.7349h72.7748c1.462 0 2.777-1.2618 2.777-2.9967-.146-1.5772-1.315-2.8389-2.923-2.8389z" fill="#5183bb"/><path d="m113.394 84.3046h-47.3594c-.877 0-1.6078.7678-1.6078 1.6892v2.4571c0 .9214.7308 1.6892 1.6078 1.6892h47.3594c.877 0 1.608-.7678 1.608-1.6892v-2.4571c0-1.075-.731-1.6892-1.608-1.6892z" fill="#fff"/><g fill="#5183bb"><path d="m89.9091 30.4371c1.2065 0 2.1845-.978 2.1845-2.1845 0-1.2064-.978-2.1845-2.1845-2.1845s-2.1845.9781-2.1845 2.1845c0 1.2065.978 2.1845 2.1845 2.1845z"/><path d="m105.492 30.4371c1.206 0 2.185-.978 2.185-2.1845 0-1.2064-.979-2.1845-2.185-2.1845s-2.185.9781-2.185 2.1845c0 1.2065.979 2.1845 2.185 2.1845z"/><path d="m120.928 30.4371c1.207 0 2.185-.978 2.185-2.1845 0-1.2064-.978-2.1845-2.185-2.1845-1.206 0-2.184.9781-2.184 2.1845 0 1.2065.978 2.1845 2.184 2.1845z"/><path d="m136.512 30.4371c1.206 0 2.185-.978 2.185-2.1845 0-1.2064-.979-2.1845-2.185-2.1845s-2.184.9781-2.184 2.1845c0 1.2065.978 2.1845 2.184 2.1845z"/><path d="m151.949 30.4371c1.206 0 2.184-.978 2.184-2.1845 0-1.2064-.978-2.1845-2.184-2.1845-1.207 0-2.185.9781-2.185 2.1845 0 1.2065.978 2.1845 2.185 2.1845z"/><path d="m167.531 30.4371c1.207 0 2.185-.978 2.185-2.1845 0-1.2064-.978-2.1845-2.185-2.1845-1.206 0-2.184.9781-2.184 2.1845 0 1.2065.978 2.1845 2.184 2.1845z"/></g><path d="m153.405 42.8159h-15.582c-2.768 0-4.952 2.1845-4.952 4.9516v15.5828c0 2.767 2.184 4.9515 4.952 4.9515h15.582c2.767 0 4.952-2.1845 4.952-4.9515v-15.7285c0-2.6214-2.185-4.8059-4.952-4.8059z" fill="#fff"/><path d="m118.163 42.8159h-15.583c-2.7671 0-4.9516 2.1845-4.9516 4.9516v15.5828c0 2.767 2.1845 4.9515 4.9516 4.9515h15.583c2.767 0 4.951-2.1845 4.951-4.9515v-15.7285c0-2.6214-2.184-4.8059-4.951-4.8059z" fill="#5183bb"/><path d="m186.725 42.8074h-15.065c-2.675 0-4.787 2.1675-4.787 4.9129v15.4615c0 2.7455 2.112 4.913 4.787 4.913h15.065c2.675 0 4.787-2.1675 4.787-4.913v-15.606c0-2.6009-2.112-4.7684-4.787-4.7684z" fill="#fff"/><path d="m83.5009 42.8159h-15.5828c-2.767 0-4.9515 2.1845-4.9515 4.9516v15.5828c0 2.767 2.1845 4.9515 4.9515 4.9515h15.5828c2.7671 0 4.9516-2.1845 4.9516-4.9515v-15.7285c-.1457-2.6214-2.3302-4.8059-4.9516-4.8059z" fill="#f7fbfd"/><g filter="url(#b)"><path d="m25.4822 83.2669c12.869 0 23.3014-10.4324 23.3014-23.3014s-10.4324-23.3014-23.3014-23.3014-23.30141 10.4324-23.30141 23.3014 10.43241 23.3014 23.30141 23.3014z" fill="url(#e)"/></g><path d="m21.258 70.3058c-.5825 0-1.1651-.2913-1.602-.7282l-7.5729-7.573c-.8738-.8738-.8738-2.4757 0-3.3495s2.4758-.8738 3.3496 0l5.9709 5.9709 13.544-13.5439c.8738-.8738 2.4758-.8738 3.3496 0s.8738 2.4758 0 3.3496l-15.2916 15.1459c-.4369.4369-1.0194.7282-1.7476.7282z" fill="#fff"/><g filter="url(#c)"><path d="m251.562 13.6895h-39.467c-2.767 0-4.951 2.1845-4.951 4.9515v34.9521c0 1.3107 1.602 1.8932 2.476 1.0194l9.029-9.0293c.728-.7281 1.893-1.165 3.058-1.165h30.001c2.767 0 5.097-2.3302 5.097-5.0972v-20.68c-.146-2.767-2.476-4.9515-5.243-4.9515z" fill="#badbff"/></g><path d="m246.757 22.719h-28.107c-1.019 0-1.748.8738-1.748 1.7476 0 1.0194.874 1.7476 1.748 1.7476h28.107c1.02 0 1.748-.8738 1.748-1.7476.145-.8738-.728-1.7476-1.748-1.7476z" fill="#5183bb"/><path d="m235.835 33.2039h-17.185c-1.019 0-1.748.8738-1.748 1.7476 0 1.0194.874 1.7476 1.748 1.7476h17.185c1.019 0 1.747-.8738 1.747-1.7476 0-1.0195-.873-1.7476-1.747-1.7476z" fill="#5183bb"/><g fill="#004e82"><path d="m201.464 171.993v5.534h-15c-.874 0-1.311-1.165-.583-1.747 1.748-1.311 4.806-3.058 9.175-3.787z"/><path d="m228.698 171.993v5.534h-15c-.874 0-1.311-1.165-.583-1.747 1.748-1.311 4.806-3.058 9.175-3.787z"/><path d="m228.844 172.139c-1.02-7.136-8.01-54.904-9.467-56.069-1.456-1.165-12.233 11.214-12.233 11.214 1.165 1.165 12.088 37.427 15.292 44.855z"/></g><path d="m201.319 172.139c2.475-8.01 8.155-33.496 15-42.379 3.204-4.224 3.204-14.709 3.204-14.709l-18.787 3.786c-3.058 6.262-5.097 43.69-5.534 53.302z" fill="#5183bb"/><path d="m214.281 90.0016c-1.166-3.2039-17.913-24.1752-17.913-24.1752l-5.971 2.7671s11.068 19.3692 13.835 23.447z" fill="#64d3b5"/><path d="m200.881 73.6907s-5.388-2.9127-1.165-8.7381c0 0 2.185 3.6409 6.408 2.4758 13.107-4.0777 13.69 9.6118 11.36 14.5634-1.02 2.1845-3.641 3.7865-4.224 3.6408-.582-.1456-3.058-4.9515-3.058-4.9515z" fill="#004e82"/><path d="m201.029 73.3993c-.728 1.0194-.582 3.2039-.582 4.5147 0 3.4952 2.33 6.1166 5.388 6.1166 2.185 0 4.078-1.4564 5.097-3.3496 1.165.2913 2.33-.7282 2.767-1.8932.437-1.3108-.145-2.6215-1.31-3.0584-.437-.1456-1.02.2913-1.457.4369 0 0-2.33-.8738-3.204-3.2039z" fill="#ffe27c"/><path d="m212.825 79.9526-5.826 1.1651v6.8448h5.826z" fill="#ffe27c"/><path d="m221.416 116.07s-4.369-24.758-4.951-26.36c-.728-1.602-3.058-2.6214-9.758-2.4758-3.786 0-16.165-2.1845-18.204-3.0583s-13.107-14.2721-13.107-14.2721l-5.097 3.3496s10.486 16.4566 13.544 17.6217c3.204 1.0194 14.418 4.9515 14.418 4.9515l.437 24.1754c0-.291 15.291 6.845 22.718-3.932z" fill="url(#f)"/><path d="m175.251 70.0493s-2.621-6.5535-3.35-6.6991c-.582-.1456-1.019 2.4758-1.019 2.4758s-2.476-6.1166-3.787-6.2623c-1.31 0-2.621 7.2817 3.496 13.2527z" fill="#ffe27c"/><path d="m191.417 68.1565s-4.806-5.5341-3.932-5.8254c.874-.1456 2.767 1.3108 2.767 1.3108s-3.35-7.573-1.165-7.8643c2.184-.2912 6.408 6.6992 7.281 9.9031z" fill="#ffe27c"/></svg>