<svg fill="none" height="289" viewBox="0 0 371 289" width="371" xmlns="http://www.w3.org/2000/svg" xmlns:xlink="http://www.w3.org/1999/xlink"><filter id="a" color-interpolation-filters="sRGB" filterUnits="userSpaceOnUse" height="149" width="188" x="182.5" y="139.5"><feFlood flood-opacity="0" result="BackgroundImageFix"/><feColorMatrix in="SourceAlpha" type="matrix" values="0 0 0 0 0 0 0 0 0 0 0 0 0 0 0 0 0 0 127 0"/><feOffset dy="5"/><feGaussianBlur stdDeviation="6"/><feColorMatrix type="matrix" values="0 0 0 0 0 0 0 0 0 0.351917 0 0 0 0 0.429167 0 0 0 0.08 0"/><feBlend in2="BackgroundImageFix" mode="normal" result="effect1_dropShadow"/><feBlend in="SourceGraphic" in2="effect1_dropShadow" mode="normal" result="shape"/></filter><filter id="b" color-interpolation-filters="sRGB" filterUnits="userSpaceOnUse" height="148" width="187" x="183" y="0"><feFlood flood-opacity="0" result="BackgroundImageFix"/><feColorMatrix in="SourceAlpha" type="matrix" values="0 0 0 0 0 0 0 0 0 0 0 0 0 0 0 0 0 0 127 0"/><feOffset dy="5"/><feGaussianBlur stdDeviation="6"/><feColorMatrix type="matrix" values="0 0 0 0 0 0 0 0 0 0.351917 0 0 0 0 0.429167 0 0 0 0.08 0"/><feBlend in2="BackgroundImageFix" mode="normal" result="effect1_dropShadow"/><feBlend in="SourceGraphic" in2="effect1_dropShadow" mode="normal" result="shape"/></filter><filter id="c" color-interpolation-filters="sRGB" filterUnits="userSpaceOnUse" height="148" width="187" x="0" y="0"><feFlood flood-opacity="0" result="BackgroundImageFix"/><feColorMatrix in="SourceAlpha" type="matrix" values="0 0 0 0 0 0 0 0 0 0 0 0 0 0 0 0 0 0 127 0"/><feOffset dy="5"/><feGaussianBlur stdDeviation="6"/><feColorMatrix type="matrix" values="0 0 0 0 0 0 0 0 0 0.351917 0 0 0 0 0.429167 0 0 0 0.08 0"/><feBlend in2="BackgroundImageFix" mode="normal" result="effect1_dropShadow"/><feBlend in="SourceGraphic" in2="effect1_dropShadow" mode="normal" result="shape"/></filter><filter id="d" color-interpolation-filters="sRGB" filterUnits="userSpaceOnUse" height="148" width="187" x="0" y="140"><feFlood flood-opacity="0" result="BackgroundImageFix"/><feColorMatrix in="SourceAlpha" type="matrix" values="0 0 0 0 0 0 0 0 0 0 0 0 0 0 0 0 0 0 127 0"/><feOffset dy="5"/><feGaussianBlur stdDeviation="6"/><feColorMatrix type="matrix" values="0 0 0 0 0 0 0 0 0 0.351917 0 0 0 0 0.429167 0 0 0 0.08 0"/><feBlend in2="BackgroundImageFix" mode="normal" result="effect1_dropShadow"/><feBlend in="SourceGraphic" in2="effect1_dropShadow" mode="normal" result="shape"/></filter><g filter="url(#a)"><rect fill="#fff" height="124" rx="15" width="163" x="195" y="147"/><rect height="124" rx="15" stroke="#00a0b6" width="163" x="195" y="147"/></g><g filter="url(#b)"><rect fill="#f9fcff" height="124" rx="15" width="163" x="195" y="7"/></g><g filter="url(#c)"><rect fill="#f9fcff" height="124" rx="15" width="163" x="12" y="7"/></g><g filter="url(#d)"><rect fill="#f9fcff" height="124" rx="15" width="163" x="12" y="147"/></g><g fill="#00a0b6"><path d="m108.438 71.4998h-1.375v-2.0625c0-.1823-.073-.3572-.202-.4861s-.304-.2014-.486-.2014h-.687v-11h.687c.182 0 .357-.0724.486-.2013.129-.129.202-.3038.202-.4862v-2.0625h1.34c.148.0003.291-.0467.41-.1343s.206-.211.249-.352.04-.2922-.009-.4312c-.05-.1389-.142-.2584-.265-.3406l-9.5355-6.3731c1.0845-1.0468 1.8315-2.3936 2.1445-3.8677.314-1.4741.179-3.0082-.385-4.4056-.564-1.3973-1.5335-2.5942-2.7829-3.437-1.2493-.8428-2.722-1.2931-4.2291-1.2931s-2.9798.4503-4.2291 1.2931c-1.2494.8428-2.2185 2.0397-2.7829 3.437-.5645 1.3974-.6986 2.9315-.3851 4.4056.3136 1.4741 1.0603 2.8209 2.1446 3.8677l-9.5356 6.3731c-.1224.0822-.2151.2017-.2645.3406-.0493.139-.0526.2902-.0095.4312.0432.141.1305.2644.2492.352.1186.0876.2623.1346.4098.1343h1.3406v2.0625c0 .1824.0724.3572.2014.4862.1289.1289.3038.2013.4861.2013h.6875v11h-.6875c-.1823 0-.3572.0725-.4861.2014-.129.1289-.2014.3038-.2014.4861v2.0625h-1.375c-.1823 0-.3572.0725-.4861.2014-.129.1289-.2014.3038-.2014.4861v2.75c0 .1824.0724.3572.2014.4862.1289.1289.3038.2013.4861.2013h28.8755c.182 0 .357-.0724.486-.2013.129-.129.201-.3038.201-.4862v-2.75c0-.1823-.072-.3572-.201-.4861s-.304-.2014-.486-.2014zm-2.75-15.125h-5.5v-1.375h5.5zm-11.688 5.5c-.9117 0-1.786.3622-2.4307 1.0068-.6446.6447-1.0068 1.519-1.0068 2.4307v6.1875h-1.375v-2.0625c0-.1823-.0724-.3572-.2014-.4861-.1289-.1289-.3038-.2014-.4861-.2014h-.6875v-11h.6875c.1823 0 .3572-.0724.4861-.2013.129-.129.2014-.3038.2014-.4862v-2.0625h9.625v2.0625c0 .1824.0724.3572.2014.4862.1289.1289.3038.2013.4861.2013h.688v11h-.688c-.1823 0-.3572.0725-.4861.2014-.129.1289-.2014.3038-.2014.4861v2.0625h-1.375v-6.1875c0-.9117-.3622-1.786-1.0068-2.4307-.6447-.6446-1.519-1.0068-2.4307-1.0068zm2.0625 3.4375v6.1875h-4.125v-6.1875c0-.547.2173-1.0716.6041-1.4584s.9114-.6041 1.4584-.6041 1.0716.2173 1.4584.6041.6041.9114.6041 1.4584zm-13.75-8.9375v-1.375h5.5v1.375zm4.125 1.375v11h-2.75v-11zm13.7505 12.375h5.5v1.375h-5.5zm1.375-1.375v-11h2.75v11zm-13.7505-26.8125c0-1.2238.3629-2.42 1.0428-3.4376.6799-1.0175 1.6462-1.8106 2.7768-2.2789 1.1307-.4683 2.3748-.5908 3.575-.3521 1.2003.2388 2.3028.8281 3.1681 1.6934.8654.8653 1.4547 1.9678 1.6938 3.1681.238 1.2003.116 2.4444-.3525 3.575-.4683 1.1306-1.2614 2.0969-2.2789 2.7768s-2.2138 1.0428-3.4376 1.0428c-1.6402-.0025-3.2126-.6552-4.3724-1.8151-1.1598-1.1598-1.8126-2.7321-1.8151-4.3724zm-5.9469 11.6875 8.0094-5.3556c1.2259.8029 2.6595 1.2306 4.125 1.2306s2.8991-.4277 4.125-1.2306l8.009 5.3556zm.4469 16.5h5.5v1.375h-5.5zm25.4375 4.125h-27.5v-1.375h27.5z"/><path d="m93.3125 46.75h1.375v-1.375c.3647 0 .7144-.1449.9723-.4027.2578-.2579.4027-.6076.4027-.9723v-1.375c0-.3647-.1449-.7144-.4027-.9723-.2579-.2578-.6076-.4027-.9723-.4027h-1.375v-1.375h2.75v-1.375h-1.375v-1.375h-1.375v1.375c-.3647 0-.7144.1449-.9723.4027-.2578.2579-.4027.6076-.4027.9723v1.375c0 .3647.1449.7144.4027.9723.2579.2578.6076.4027.9723.4027h1.375v1.375h-2.75v1.375h1.375z"/><path d="m114.557 63.6398c-.057-.1166-.144-.215-.254-.284-.109-.0689-.236-.1056-.365-.1058h-.688v-6.1875c0-.1823-.072-.3572-.201-.4861-.129-.129-.304-.2014-.486-.2014h-2.75c-.183 0-.357.0724-.486.2014-.129.1289-.202.3038-.202.4861v6.1875h-.687c-.13 0-.257.0365-.366.1054-.11.069-.198.1675-.254.2843-.056.1167-.078.247-.064.3757.015.1287.066.2507.147.3518l2.75 3.4375c.064.0805.146.1456.239.1902.093.0447.195.0679.298.0679s.205-.0232.298-.0679c.093-.0446.174-.1097.239-.1902l2.75-3.4375c.08-.1012.131-.2232.145-.3519.015-.1287-.007-.2588-.063-.3755zm-3.369 2.6352-1.322-1.65c.173-.0135.335-.0919.452-.2194.118-.1275.183-.2947.182-.4681v-6.1875h1.375v6.1875c0 .1734.065.3406.182.4681.118.1275.279.2059.452.2194z"/><path d="m80.1815 63.6398c-.056-.1166-.1438-.215-.2532-.284-.1095-.0689-.2362-.1056-.3655-.1058h-.6875v-6.1875c0-.1823-.0725-.3572-.2014-.4861-.1289-.129-.3038-.2014-.4861-.2014h-2.75c-.1824 0-.3572.0724-.4862.2014-.1289.1289-.2013.3038-.2013.4861v6.1875h-.6875c-.1296 0-.2565.0365-.3662.1054-.1097.069-.1976.1675-.2537.2843-.0562.1167-.0782.247-.0635.3757s.0655.2507.1464.3518l2.75 3.4375c.0644.0805.1461.1456.2391.1902.0929.0447.1947.0679.2979.0679.1031 0 .2049-.0232.2978-.0679.093-.0446.1747-.1097.2391-.1902l2.75-3.4375c.0808-.1012.1313-.2232.1457-.3519.0145-.1287-.0076-.2588-.0639-.3755zm-3.3687 2.6352-1.3214-1.65c.1729-.0135.3343-.0919.4518-.2194.1176-.1275.1826-.2947.1821-.4681v-6.1875h1.375v6.1875c-.0006.1734.0645.3406.182.4681.1176.1275.2789.2059.4518.2194z"/><path d="m94 56.375c-.4079 0-.8067.121-1.1459.3476-.3391.2266-.6035.5487-.7596.9256s-.197.7916-.1174 1.1917.276.7676.5645 1.056c.2884.2885.6559.4849 1.056.5645s.8148.0387 1.1917-.1174.699-.4205.9256-.7596c.2266-.3392.3476-.738.3476-1.1459 0-.547-.2173-1.0716-.6041-1.4584s-.9114-.6041-1.4584-.6041zm0 2.75c-.136 0-.2689-.0403-.382-.1159-.113-.0755-.2011-.1829-.2532-.3085-.052-.1256-.0656-.2639-.0391-.3972.0265-.1334.092-.2559.1882-.352.0961-.0962.2186-.1617.352-.1882.1333-.0265.2716-.0129.3972.0391.1256.0521.233.1402.3085.2532.0756.1131.1159.246.1159.382 0 .1823-.0724.3572-.2014.4861-.1289.129-.3038.2014-.4861.2014z"/><path d="m79.7133 49.9297c.0644.0805.1461.1456.2391.1902.0929.0447.1947.0679.2979.0679.1031 0 .2049-.0232.2978-.0679.093-.0446.1747-.1097.2391-.1902l2.75-3.4375c.081-.1011.1317-.2231.1464-.3518s-.0073-.259-.0634-.3757c-.0562-.1168-.1441-.2153-.2538-.2843-.1097-.0689-.2366-.1054-.3661-.1054h-.6875v-6.1875c0-.1823-.0725-.3572-.2014-.4861-.1289-.129-.3038-.2014-.4861-.2014h-2.75c-.1824 0-.3572.0724-.4862.2014-.1289.1289-.2013.3038-.2013.4861v6.1875h-.6875c-.1296 0-.2565.0365-.3662.1054-.1097.069-.1976.1675-.2537.2843-.0562.1167-.0782.247-.0635.3757s.0655.2507.1464.3518zm-.1505-3.8672v-6.1875h1.375v6.1875c-.0006.1734.0645.3406.182.4681.1176.1275.2789.2059.4518.2194l-1.3213 1.65-1.3214-1.65c.1729-.0135.3343-.0919.4518-.2194.1176-.1275.1826-.2947.1821-.4681z"/><path d="m107.213 49.9297c.065.0805.146.1456.239.1902.093.0447.195.0679.298.0679s.205-.0232.298-.0679c.093-.0446.175-.1097.239-.1902l2.75-3.4375c.081-.1011.132-.2231.147-.3518.014-.1287-.008-.259-.064-.3757-.056-.1168-.144-.2153-.254-.2843-.109-.0689-.236-.1054-.366-.1054h-.687v-6.1875c0-.1823-.073-.3572-.202-.4861-.129-.129-.303-.2014-.486-.2014h-2.75c-.182 0-.357.0724-.486.2014-.129.1289-.201.3038-.201.4861v6.1875h-.688c-.129 0-.256.0365-.366.1054-.11.069-.198.1675-.254.2843-.056.1167-.078.247-.063.3757s.065.2507.146.3518zm-.15-3.8672v-6.1875h1.375v6.1875c-.001.1734.064.3406.182.4681.117.1275.279.2059.452.2194l-1.322 1.65-1.321-1.65c.173-.0135.334-.0919.452-.2194.117-.1275.182-.2947.182-.4681z"/><path d="m257.516 74.625h14.765v-1.375h-14.765c-.187-.0002-.366-.0727-.497-.2016-.132-.1289-.206-.3036-.207-.4859v-30.9375c.001-.1823.075-.357.207-.4859.131-.1289.31-.2014.497-.2016h10.546v-1.375h-10.546c-.56.0006-1.096.2181-1.491.6048-.396.3866-.618.9109-.619 1.4577v30.9375c.001.5468.223 1.0711.619 1.4577.395.3867.931.6042 1.491.6048z"/><path d="m281.422 47.125h1.406v5.5h-1.406z"/><path d="m265.953 43.6875h-6.328c-.186 0-.365.0724-.497.2014-.132.1289-.206.3038-.206.4861v4.125c0 .1823.074.3572.206.4861.132.129.311.2014.497.2014h6.328c.187 0 .365-.0724.497-.2014.132-.1289.206-.3038.206-.4861v-4.125c0-.1823-.074-.3572-.206-.4861-.132-.129-.31-.2014-.497-.2014zm-.703 4.125h-4.922v-2.75h4.922z"/><path d="m264.547 51.25h3.515v1.375h-3.515z"/><path d="m269.469 51.25h9.14v1.375h-9.14z"/><path d="m263.141 54.6875h9.843v1.375h-9.843z"/><path d="m259.625 54.6875h2.109v1.375h-2.109z"/><path d="m274.391 54.6875h4.218v1.375h-4.218z"/><path d="m267.359 58.125h7.032v1.375h-7.032z"/><path d="m259.625 58.125h6.328v1.375h-6.328z"/><path d="m262.438 61.5625h9.843v1.375h-9.843z"/><path d="m259.625 61.5625h1.406v1.375h-1.406z"/><path d="m267.359 65h4.922v1.375h-4.922z"/><path d="m259.625 65h6.328v1.375h-6.328z"/><path d="m265.25 68.4375h4.219v1.375h-4.219z"/><path d="m259.625 68.4375h4.219v1.375h-4.219z"/><path d="m276.5 33.375c-1.391 0-2.75.4032-3.906 1.1586-1.157.7555-2.058 1.8292-2.59 3.0855-.532 1.2562-.671 2.6385-.4 3.9721.271 1.3337.941 2.5587 1.924 3.5202.983.9614 2.236 1.6162 3.6 1.8815s2.778.1291 4.063-.3912c1.285-.5204 2.383-1.4016 3.155-2.5322.773-1.1305 1.185-2.4598 1.185-3.8195-.002-1.8227-.743-3.5702-2.061-4.8591-1.319-1.2889-3.106-2.0138-4.97-2.0159zm0 12.375c-1.113 0-2.2-.3226-3.125-.9269-.925-.6044-1.646-1.4633-2.072-2.4683s-.537-2.1109-.32-3.1778.753-2.0469 1.54-2.8161c.786-.7692 1.788-1.293 2.88-1.5052 1.091-.2122 2.222-.1033 3.25.313 1.027.4162 1.906 1.1212 2.524 2.0257.618.9044.948 1.9678.948 3.0556-.002 1.4582-.595 2.8562-1.649 3.8873-1.055 1.0311-2.485 1.6111-3.976 1.6127z"/><path d="m278.816 37.0137-2.315 2.2638-2.315-2.2638-.995.9723 2.316 2.2638-2.316 2.2639.995.9723 2.315-2.2639 2.315 2.2639.995-.9723-2.316-2.2639 2.316-2.2638z"/><path d="m276.5 65h1.406v1.375h-1.406z"/><path d="m282.125 59.5h1.406v1.375h-1.406z"/><path d="m284.938 59.5h1.406v1.375h-1.406z"/><path d="m276.5 67.75h1.406v1.375h-1.406z"/><path d="m276.5 70.5h1.406v1.375h-1.406z"/><path d="m287.75 59.5h1.406v1.375h-1.406z"/><path d="m282.125 62.25h1.406v1.375h-1.406z"/><path d="m284.938 62.25h1.406v1.375h-1.406z"/><path d="m287.75 62.25h1.406v1.375h-1.406z"/><path d="m282.125 65h1.406v1.375h-1.406z"/><path d="m284.938 65h1.406v1.375h-1.406z"/><path d="m287.75 65h1.406v1.375h-1.406z"/><path d="m282.125 67.75h1.406v1.375h-1.406z"/><path d="m284.938 67.75h1.406v1.375h-1.406z"/><path d="m287.75 67.75h1.406v1.375h-1.406z"/><path d="m282.125 70.5h1.406v1.375h-1.406z"/><path d="m287.75 70.5h1.406v1.375h-1.406z"/><path d="m293.375 65h1.406v1.375h-1.406z"/><path d="m293.375 67.75h1.406v1.375h-1.406z"/><path d="m293.375 70.5h1.406v1.375h-1.406z"/><path d="m297.453 62.525-2.109-2.75c-.066-.0854-.151-.1547-.248-.2024-.098-.0478-.206-.0726-.315-.0726h-2.812v-2.0625c0-.1487-.05-.2934-.141-.412v-.0005l-2.109-2.75c-.066-.0854-.151-.1547-.248-.2024-.098-.0478-.206-.0726-.315-.0726h-7.031c-.109 0-.217.0248-.314.0726-.098.0477-.183.117-.248.2024l-2.11 2.75.001.0005c-.092.1186-.142.2633-.142.412v2.0625h-2.812c-.109 0-.217.0248-.314.0726-.098.0477-.183.117-.248.2024l-2.11 2.75.001.0005c-.092.1186-.142.2633-.141.412v11c0 .1823.074.3572.205.4861.132.129.311.2014.498.2014h22.5c.186 0 .365-.0724.497-.2014.132-.1289.206-.3038.206-.4861v-11c0-.1487-.05-.2934-.141-.412zm-3.023-1.65 1.054 1.375h-3.515v-1.375zm-11.953-5.5h6.328l1.054 1.375h-8.437zm-5.625 5.5h2.46v1.375h-3.515zm-1.758 2.75h4.218v9.625h-4.218zm5.625-5.5h9.843v15.125h-4.218v-2.75h-1.406v2.75h-4.219zm15.469 15.125h-4.219v-9.625h4.219z"/><path d="m111.641 174.375h-36.2816c-.5346 0-1.0473.217-1.4253.604s-.5903.911-.5903 1.459v33c0 .547.2123 1.071.5903 1.458s.8907.604 1.4253.604h9.9343l2.5041 2.562c.126.129.2969.202.475.202.1782 0 .349-.073.475-.202l1.7832-1.824c.0914.04.1847.08.2815.119v2.581c0 .182.0708.357.1968.486s.2969.201.4751.201h4.0312c.1782 0 .3491-.072.4751-.201s.1968-.304.1968-.486v-2.581c.0968-.039.1901-.079.2815-.119l1.7832 1.824c.1283.125.2983.194.475.194s.3466-.069.475-.194l2.5038-2.562h9.935c.534 0 1.047-.217 1.425-.604s.59-.911.59-1.458v-33c0-.548-.212-1.072-.59-1.459s-.891-.604-1.425-.604zm-12.9138 38.229-1.6481-1.686c-.1028-.106-.2362-.174-.3801-.195s-.2906.006-.4181.078c-.31.17-.6353.31-.9715.416-.1353.044-.2533.132-.337.249-.0836.118-.1287.26-.1286.405v2.379h-2.6876v-2.379c.0001-.145-.045-.287-.1286-.405-.0837-.117-.2017-.205-.337-.249-.3362-.106-.6615-.246-.9715-.416-.1275-.072-.2742-.099-.4181-.078s-.2773.089-.3801.195l-1.6481 1.686-1.8947-1.943 1.6475-1.686c.1026-.105.1693-.242.1899-.389s-.006-.297-.0757-.427c-.1661-.318-.3022-.651-.4065-.994-.0437-.14-.1296-.261-.2452-.347-.1156-.085-.255-.131-.3978-.13h-2.3247v-2.75h2.3247c.1423-.001.2808-.047.3958-.132.1149-.086.2003-.207.2438-.346.1043-.343.2404-.676.4065-.994.0697-.13.0963-.28.0757-.427s-.0872-.284-.1899-.389l-1.6441-1.686 1.8981-1.943 1.6481 1.686c.1028.106.2361.174.38.195.144.021.2907-.006.4182-.078.3099-.17.6353-.31.9715-.416.1347-.045.2519-.133.3349-.25.0831-.118.1276-.259.1273-.404v-2.379h2.6876v2.379c-.0001.145.045.287.1286.405.0837.117.2017.205.337.249.3362.106.6615.246.9715.416.1275.072.2742.099.4181.078s.2773-.089.3801-.195l1.6481-1.686 1.8978 1.943-1.6472 1.686c-.1027.105-.1693.242-.1899.389s.006.297.0757.427c.1661.318.3022.651.4065.994.0435.139.1289.26.2438.346.115.085.2535.131.3958.132h2.3243v2.75h-2.3243c-.1423 0-.2808.046-.3958.131-.1149.086-.2003.207-.2438.346-.1043.343-.2404.676-.4065.994-.0697.13-.0963.28-.0757.427s.0872.284.1899.389l1.6472 1.686zm13.5848-3.166c0 .182-.07.357-.196.486s-.297.201-.475.201h-9.639l-1.734-1.775c.04-.093.078-.189.117-.288h2.521c.178 0 .349-.072.475-.201s.197-.304.197-.486v-4.125c0-.182-.071-.357-.197-.486s-.297-.202-.475-.202h-2.521c-.039-.099-.077-.194-.117-.288l1.783-1.824c.126-.129.197-.304.197-.486 0-.183-.071-.357-.197-.486l-2.8488-2.915c-.126-.129-.2969-.202-.475-.202-.1782 0-.349.073-.475.202l-1.7832 1.824c-.0914-.04-.1847-.08-.2815-.119v-2.58c0-.183-.0708-.358-.1968-.487s-.2969-.201-.4751-.201h-4.0312c-.1782 0-.3491.072-.4751.201s-.1968.304-.1968.487v2.58c-.0968.039-.1901.079-.2815.119l-1.7832-1.824c-.1283-.125-.2983-.194-.475-.194s-.3466.069-.475.194l-2.8488 2.915c-.1259.129-.1967.303-.1967.486 0 .182.0708.357.1967.486l1.7832 1.824c-.0403.094-.0786.189-.1169.288h-2.5215c-.1782 0-.3491.073-.4751.202s-.1968.304-.1968.486v4.125c0 .182.0708.357.1968.486s.2969.201.4751.201h2.5215c.0383.099.0766.195.1169.288l-1.7341 1.775h-9.6387c-.1782 0-.3491-.072-.4751-.201s-.1968-.304-.1968-.486v-26.813h37.6245zm-37.6245-28.188v-4.812c0-.183.0708-.358.1968-.487s.2969-.201.4751-.201h36.2816c.178 0 .349.072.475.201s.196.304.196.487v4.812z"/><path d="m108.953 176.438h-18.8124c-.5346 0-1.0472.217-1.4252.604-.378.386-.5904.911-.5904 1.458s.2124 1.072.5904 1.458c.378.387.8906.604 1.4252.604h18.8124c.535 0 1.047-.217 1.425-.604.378-.386.591-.911.591-1.458s-.213-1.072-.591-1.458c-.378-.387-.89-.604-1.425-.604zm0 2.75h-18.8124c-.1782 0-.3491-.073-.4751-.202s-.1967-.304-.1967-.486.0707-.357.1967-.486.2969-.202.4751-.202h18.8124c.178 0 .349.073.475.202s.197.304.197.486-.071.357-.197.486-.297.202-.475.202z"/><path d="m77.375 179.875c.7421 0 1.3438-.616 1.3438-1.375s-.6017-1.375-1.3438-1.375-1.3438.616-1.3438 1.375.6017 1.375 1.3438 1.375z"/><path d="m81.4062 179.875c.7422 0 1.3438-.616 1.3438-1.375s-.6016-1.375-1.3438-1.375c-.7421 0-1.3437.616-1.3437 1.375s.6016 1.375 1.3437 1.375z"/><path d="m85.4375 179.875c.7421 0 1.3437-.616 1.3437-1.375s-.6016-1.375-1.3437-1.375-1.3437.616-1.3437 1.375.6016 1.375 1.3437 1.375z"/><path d="m93.5 201.188c-.7973 0-1.5767.241-2.2396.695-.663.453-1.1797 1.097-1.4848 1.851s-.3849 1.583-.2294 2.383c.1556.8.5395 1.535 1.1033 2.112s1.2821.97 2.064 1.129c.782.159 1.5926.078 2.3292-.234.7366-.313 1.3662-.841 1.8092-1.52.4429-.678.6793-1.476.6793-2.292-.001-1.093-.4261-2.142-1.1819-2.915-.7557-.773-1.7805-1.208-2.8493-1.209zm0 6.874c-.5315 0-1.0511-.161-1.4931-.463s-.7864-.732-.9898-1.234c-.2034-.503-.2567-1.056-.153-1.589s.3597-1.023.7356-1.408c.3758-.385.8547-.647 1.376-.753s1.0617-.051 1.5528.157c.491.208.9108.56 1.2061 1.013.2953.452.4529.984.4529 1.527 0 .73-.2831 1.429-.7872 1.945-.504.516-1.1875.805-1.9003.805z"/><path d="m81.4062 192.938h15.8765c.4519.001.899.095 1.3146.276.4156.182.7911.447 1.1041.781.6026.643 1.3486 1.126 2.1746 1.408.825.282 1.706.355 2.565.213.859-.143 1.671-.497 2.367-1.032s1.255-1.235 1.628-2.04c.048-.105.07-.221.063-.337s-.043-.228-.104-.326-.146-.178-.245-.234c-.1-.056-.212-.084-.326-.084h-3.889l-.894-1.354.899-1.396h3.884c.114 0 .225-.029.324-.085.1-.056.184-.136.244-.234.061-.098.096-.21.103-.326.007-.115-.014-.231-.063-.336-.373-.805-.931-1.504-1.627-2.039s-1.508-.89-2.368-1.032c-.859-.143-1.739-.07-2.565.212-.825.283-1.571.766-2.174 1.409-.3125.333-.6875.598-1.1025.779-.415.182-.8615.276-1.3128.277h-15.8765c-.7127 0-1.3963.29-1.9003.806-.504.515-.7871 1.215-.7871 1.944 0 .73.2831 1.429.7871 1.945s1.1876.805 1.9003.805zm0-4.125h15.8765c.6329-.001 1.259-.133 1.8409-.387.582-.255 1.1074-.627 1.5464-1.094.384-.41.848-.734 1.361-.953.513-.218 1.064-.325 1.62-.315.555.01 1.103.137 1.608.374.505.236.957.577 1.328 1h-3.009c-.111 0-.221.029-.319.083-.097.054-.181.132-.242.227l-1.344 2.088c-.073.113-.111.246-.11.381 0 .136.04.268.114.381l1.344 2.038c.062.093.145.169.242.222s.205.08.315.08h3.009c-.371.424-.823.764-1.328 1.001-.505.236-1.053.364-1.608.374-.556.01-1.107-.098-1.62-.316s-.977-.542-1.361-.952c-.439-.467-.9644-.84-1.5464-1.094-.5819-.255-1.208-.387-1.8409-.388h-15.8765c-.3563 0-.6981-.145-.9501-.402-.252-.258-.3936-.608-.3936-.973 0-.364.1416-.714.3936-.972s.5938-.403.9501-.403z"/><path d="m82.0781 190.875h.6719c.1782 0 .3491-.072.4751-.201s.1968-.304.1968-.486c0-.183-.0708-.358-.1968-.487s-.2969-.201-.4751-.201h-.6719c-.1782 0-.3491.072-.4751.201s-.1968.304-.1968.487c0 .182.0708.357.1968.486s.2969.201.4751.201z"/><path d="m84.7656 190.875h9.4063c.1782 0 .3491-.072.4751-.201s.1968-.304.1968-.486c0-.183-.0708-.358-.1968-.487s-.2969-.201-.4751-.201h-9.4063c-.1782 0-.3491.072-.4751.201s-.1967.304-.1967.487c0 .182.0707.357.1967.486s.2969.201.4751.201z"/><path d="m96.1875 190.875h.6719c.1782 0 .3491-.072.4751-.201s.1967-.304.1967-.486c0-.183-.0707-.358-.1967-.487s-.2969-.201-.4751-.201h-.6719c-.1782 0-.3491.072-.4751.201s-.1968.304-.1968.487c0 .182.0708.357.1968.486s.2969.201.4751.201z"/></g><rect height="16.1994" rx="3.25" stroke="#00a0b6" stroke-width="1.5" width="16.1994" x="256.75" y="174.358"/><rect height="16.1994" rx="3.25" stroke="#00a0b6" stroke-width="1.5" width="16.1994" x="256.75" y="194.74"/><rect height="7.61789" rx="1.25" stroke="#00a0b6" stroke-width="1.5" width="7.61789" x="261.039" y="199.03"/><rect height="7.61789" rx="1.25" stroke="#00a0b6" stroke-width="1.5" width="7.61789" x="261.039" y="178.65"/><rect height="7.61789" rx="1.25" stroke="#00a0b6" stroke-width="1.5" transform="matrix(.96663811 .25614597 -.25614597 .96663811 55.143015 -66.817166)" width="7.61789" x="284.076" y="178.28"/><rect height="7.61789" rx="1.25" stroke="#00a0b6" stroke-width="1.5" width="7.61789" x="281.957" y="199.03"/><rect height="16.1994" rx="3.25" stroke="#00a0b6" stroke-width="1.5" transform="matrix(.96255277 .27109439 -.27109439 .96255277 57.407624 -69.745066)" width="16.1994" x="281.159" y="172.925"/><rect height="16.1994" rx="3.25" stroke="#00a0b6" stroke-width="1.5" width="16.1994" x="277.668" y="194.74"/><rect fill="#cedaea" height="8" rx="4" width="65" x="61" y="96"/><rect fill="#cedaea" height="8" rx="4" width="65" x="61" y="236"/><rect fill="#cedaea" height="8" rx="4" width="65" x="244" y="236"/><rect fill="#cedaea" height="8" rx="4" width="65" x="244" y="96"/></svg>