<svg width="71" height="59" viewBox="0 0 71 59" fill="none" xmlns="http://www.w3.org/2000/svg">
<path d="M64.0156 30.6977V2.125C64.0156 1.82249 63.8955 1.53237 63.6815 1.31846C63.4676 1.10455 63.1775 0.984375 62.875 0.984375H1.28125C0.978737 0.984375 0.688615 1.10455 0.474706 1.31846C0.260798 1.53237 0.140625 1.82249 0.140625 2.125V45.4688C0.140625 45.7713 0.260798 46.0614 0.474706 46.2753C0.688615 46.4892 0.978737 46.6094 1.28125 46.6094H41.6023C42.1619 48.9727 43.2935 51.1623 44.8975 52.986C46.5015 54.8096 48.5289 56.2113 50.8014 57.0679C53.074 57.9245 55.5222 58.2098 57.9308 57.8987C60.3395 57.5876 62.6348 56.6897 64.6152 55.2838C66.5955 53.8779 68.2003 52.007 69.2883 49.8358C70.3763 47.6645 70.9144 45.2592 70.8552 42.8312C70.796 40.4033 70.1413 38.0271 68.9487 35.9114C67.7561 33.7957 66.0621 32.0054 64.0156 30.6977ZM2.42188 3.26562H61.7344V4.95518L32.0781 25.8243L2.42188 4.95518V3.26562ZM61.7344 7.744V29.5C58.1189 27.9931 54.0539 27.9788 50.4279 29.4601L44.2999 20.0129L61.7344 7.744ZM4.08576 44.3281H2.42188V7.744L19.9162 20.0556L4.08576 44.3281ZM41.2459 44.3281H6.809L21.7826 21.3688L31.4223 28.1512C31.6141 28.2866 31.8433 28.3594 32.0781 28.3594C32.313 28.3594 32.5421 28.2866 32.734 28.1512L42.4336 21.326L48.3791 30.4909C46.1909 31.8101 44.3804 33.6721 43.1232 35.8965C41.866 38.121 41.2046 40.6324 41.2031 43.1875C41.2031 43.571 41.2174 43.9512 41.2459 44.3281ZM56.0312 55.7344C53.5497 55.7344 51.1239 54.9985 49.0606 53.6198C46.9973 52.2412 45.3891 50.2816 44.4394 47.989C43.4898 45.6963 43.2413 43.1736 43.7255 40.7397C44.2096 38.3059 45.4046 36.0702 47.1593 34.3155C48.914 32.5608 51.1496 31.3658 53.5835 30.8817C56.0173 30.3976 58.5401 30.6461 60.8327 31.5957C63.1254 32.5453 65.0849 34.1535 66.4636 36.2168C67.8423 38.2802 68.5781 40.706 68.5781 43.1875C68.5743 46.514 67.2512 49.7031 64.8991 52.0553C62.5469 54.4075 59.3577 55.7306 56.0312 55.7344Z" fill="#2D4379"/>
<path d="M56.0313 34.0625C54.7224 34.0636 53.429 34.3463 52.2389 34.8914C51.0489 35.4365 49.9901 36.2313 49.1343 37.2218C48.2785 38.2122 47.6459 39.3752 47.2793 40.6317C46.9127 41.8883 46.8207 43.209 47.0096 44.5043C47.1985 45.7995 47.6638 47.039 48.374 48.1385C49.0842 49.238 50.0226 50.1719 51.1256 50.8767C52.2286 51.5815 53.4703 52.0408 54.7665 52.2233C56.0626 52.4059 57.3829 52.3074 58.6376 51.9347C58.7813 51.892 58.915 51.8214 59.0314 51.727C59.1477 51.6326 59.2443 51.5162 59.3157 51.3845C59.3871 51.2528 59.4318 51.1083 59.4473 50.9592C59.4628 50.8102 59.4488 50.6596 59.4061 50.516C59.3635 50.3724 59.2929 50.2386 59.1985 50.1223C59.1041 50.0059 58.9877 49.9093 58.856 49.8379C58.7242 49.7666 58.5797 49.7219 58.4307 49.7063C58.2817 49.6908 58.1311 49.7048 57.9875 49.7475C56.4667 50.2038 54.8347 50.1184 53.3699 49.5059C51.9051 48.8933 50.6982 47.7915 49.955 46.3884C49.2119 44.9853 48.9785 43.3678 49.2948 41.8119C49.611 40.2559 50.4573 38.8579 51.6892 37.8563C52.9211 36.8546 54.4624 36.3114 56.0502 36.3193C57.6379 36.3271 59.1737 36.8856 60.3957 37.8994C61.6176 38.9132 62.45 40.3195 62.7508 41.8785C63.0516 43.4375 62.8023 45.0526 62.0453 46.4483L61.1998 45.6013C61.8005 44.3198 61.9043 42.8609 61.4911 41.5072C61.0779 40.1535 60.1771 39.0013 58.9631 38.2737C57.7491 37.5461 56.3082 37.2949 54.9196 37.5687C53.531 37.8424 52.2934 38.6218 51.4464 39.7557C50.5994 40.8897 50.2034 42.2976 50.3349 43.7069C50.4665 45.1161 51.1163 46.4264 52.1585 47.384C53.2007 48.3416 54.5612 48.8784 55.9765 48.8904C57.3918 48.9025 58.7613 48.3889 59.8196 47.4492L61.4079 49.0375C61.4364 49.0646 61.465 49.0916 61.4963 49.1173C61.7309 49.3083 62.0317 49.3985 62.3327 49.3681C62.6336 49.3376 62.9102 49.189 63.1018 48.9548C64.1931 47.6173 64.8825 45.9976 65.0901 44.2839C65.2977 42.5702 65.0149 40.8328 64.2746 39.2734C63.5342 37.714 62.3667 36.3966 60.9075 35.4742C59.4484 34.5519 57.7575 34.0623 56.0313 34.0625ZM58.843 45.1422C58.3765 45.815 57.6846 46.2985 56.8924 46.5051C56.1003 46.7117 55.2603 46.6278 54.5247 46.2685C53.7891 45.9091 53.2066 45.2982 52.8826 44.5464C52.5585 43.7946 52.5145 42.9516 52.7585 42.1702C53.0025 41.3887 53.5182 40.7205 54.2124 40.2865C54.9066 39.8526 55.7333 39.6816 56.5426 39.8046C57.352 39.9276 58.0905 40.3364 58.6245 40.957C59.1584 41.5775 59.4524 42.3688 59.4532 43.1875C59.4531 43.8859 59.2403 44.5678 58.843 45.1422Z" fill="#2D4379"/>
</svg>
