<svg width="55" height="55" viewBox="0 0 55 55" fill="none" xmlns="http://www.w3.org/2000/svg">
<path d="M44.6875 55H10.3125C4.61662 55 0 50.3834 0 44.6875V10.3125C0 4.61662 4.61662 0 10.3125 0H44.6875C50.3834 0 55 4.61662 55 10.3125V44.6875C55 50.3834 50.3834 55 44.6875 55Z" fill="#E6E3FA"/>
<path d="M19.4845 14.893V19.4769H17.1934V14.893C17.1934 14.2623 17.6969 13.7466 18.3398 13.7466C18.9688 13.7466 19.4845 14.2623 19.4845 14.893Z" fill="#8E8CEB"/>
<path d="M19.4842 25.2056V40.102C19.4842 40.7326 18.9685 41.2484 18.3378 41.2484C17.6966 41.2484 17.1914 40.7326 17.1914 40.102V25.2056H19.4842Z" fill="#8E8CEB"/>
<path d="M39.246 19.4786H37.8143V14.8947C37.8143 14.2624 37.3002 13.75 36.6679 13.75C36.0355 13.75 35.5215 14.264 35.5215 14.8964V19.4803H34.0898C32.9845 19.4803 32.084 20.3791 32.084 21.4861V23.2048C32.084 24.3101 32.9828 25.2106 34.0898 25.2106H35.5215V40.107C35.5215 40.7393 36.0338 41.2534 36.6679 41.2534C37.3002 41.2534 37.8143 40.7393 37.8143 40.107V25.2106H39.246C40.3513 25.2106 41.2518 24.3118 41.2518 23.2048V21.4861C41.2518 20.3774 40.3513 19.4786 39.246 19.4786Z" fill="#8E8CEB"/>
<path d="M30.08 30.9375H28.6483V14.8947C28.6466 14.2624 28.1342 13.75 27.5019 13.75C26.8695 13.75 26.3555 14.264 26.3555 14.8964V30.9375H24.9237C23.8185 30.9375 22.918 31.8363 22.918 32.9433V34.662C22.918 35.7673 23.8168 36.6678 24.9237 36.6678H26.3555V40.1053C26.3555 40.7376 26.8678 41.2517 27.5019 41.2517C28.1342 41.2517 28.6483 40.7376 28.6483 40.1053V36.6678H30.08C31.1853 36.6678 32.0858 35.769 32.0858 34.662V32.9433C32.0841 31.8363 31.1853 30.9375 30.08 30.9375Z" fill="#8E8CEB"/>
<path d="M22.9217 21.4811V23.1999C22.9217 24.3118 22.0162 25.2056 20.9159 25.2056H15.7597C14.6477 25.2056 13.7539 24.3118 13.7539 23.1999V21.4811C13.7539 20.3809 14.6477 19.4753 15.7597 19.4753H20.9159C22.0162 19.4753 22.9217 20.3809 22.9217 21.4811Z" fill="#2638DA"/>
<path d="M32.0838 32.9398V34.6586C32.0838 35.7706 31.1778 36.6644 30.078 36.6644H24.9218C23.8098 36.6644 22.916 35.7706 22.916 34.6586V32.9398C22.916 31.8396 23.8098 30.9341 24.9218 30.9341H30.078C31.1799 30.9341 32.0838 31.8396 32.0838 32.9398Z" fill="#2638DA"/>
<path d="M41.2518 21.4811V23.1999C41.2518 24.3118 40.3462 25.2056 39.246 25.2056H34.0898C32.9778 25.2056 32.084 24.3118 32.084 23.1999V21.4811C32.084 20.3809 32.9778 19.4753 34.0898 19.4753H39.246C40.3462 19.4753 41.2518 20.3809 41.2518 21.4811Z" fill="#2638DA"/>
</svg>
