<svg fill="none" height="80" viewBox="0 0 80 80" width="80" xmlns="http://www.w3.org/2000/svg"><rect fill="#00a0b6" height="80" rx="25" width="80"/><path clip-rule="evenodd" d="m60.5317 44.5813c0-2.1789-1.7715-3.9453-3.9567-3.9453h-11.8698c-2.1852 0-3.9566 1.7664-3.9566 3.9453h-5.9349v-5.9179h4.6094c3.5509.0059 6.5821-2.5567 7.1571-6.0506.575-3.494-1.4759-6.8881-4.8425-8.0141-1.8559-3.8591-5.9962-6.0843-10.2494-5.5087-4.2533.5757-7.6488 3.8208-8.406 8.0336-2.7674.907-4.4655 3.6825-4.0082 6.5511.4574 2.8686 2.935 4.9822 5.848 4.9887h5.935v15.7809c0 1.0895.8857 1.9727 1.9783 1.9727h7.9132c0 2.1788 1.7714 3.9452 3.9566 3.9452h11.8698c2.1852 0 3.9567-1.7664 3.9567-3.9452v-3.9453c-.0073-.6947-.1984-1.3752-.554-1.9726.3556-.5974.5467-1.2779.554-1.9726zm-35.6109-9.8622c-1.0926 0-1.9784-.8832-1.9784-1.9726 0-1.0895.8858-1.9726 1.9784-1.9726 1.0925 0 1.9783-.8832 1.9783-1.9727-.033-2.908 2.058-5.409 4.9328-5.8998 2.8748-.4909 5.6812 1.1739 6.6205 3.9272.2364.6831.8284 1.1825 1.543 1.302 1.6068.2652 2.7717 1.6708 2.7301 3.2942 0 1.8194-1.4791 3.2943-3.3038 3.2943zm9.8924 17.753h5.9349c.0073-.6947.1984-1.3752.554-1.9726-.3556-.5975-.5467-1.2779-.554-1.9726h-5.9349zm9.896 3.9443v-3.9452h11.8698v3.9452zm0-11.8339v3.9452h11.8698v-3.9452z" fill="#fff" fill-rule="evenodd"/></svg>