<svg fill="none" height="223" viewBox="0 0 285 223" width="285" xmlns="http://www.w3.org/2000/svg" xmlns:xlink="http://www.w3.org/1999/xlink"><filter id="a" color-interpolation-filters="sRGB" filterUnits="userSpaceOnUse" height="223" width="277" x="8" y="0"><feFlood flood-opacity="0" result="BackgroundImageFix"/><feColorMatrix in="SourceAlpha" type="matrix" values="0 0 0 0 0 0 0 0 0 0 0 0 0 0 0 0 0 0 127 0"/><feOffset dy="15"/><feGaussianBlur stdDeviation="22.5"/><feColorMatrix type="matrix" values="0 0 0 0 0.719566 0 0 0 0 0.748166 0 0 0 0 0.795833 0 0 0 0.25 0"/><feBlend in2="BackgroundImageFix" mode="normal" result="effect1_dropShadow"/><feBlend in="SourceGraphic" in2="effect1_dropShadow" mode="normal" result="shape"/></filter><filter id="b" color-interpolation-filters="sRGB" filterUnits="userSpaceOnUse" height="137" width="137" x="0" y="35"><feFlood flood-opacity="0" result="BackgroundImageFix"/><feColorMatrix in="SourceAlpha" type="matrix" values="0 0 0 0 0 0 0 0 0 0 0 0 0 0 0 0 0 0 127 0"/><feOffset dx="9" dy="20"/><feGaussianBlur stdDeviation="20"/><feColorMatrix type="matrix" values="0 0 0 0 0 0 0 0 0 0.351917 0 0 0 0 0.429167 0 0 0 0.25 0"/><feBlend in2="BackgroundImageFix" mode="normal" result="effect1_dropShadow"/><feBlend in="SourceGraphic" in2="effect1_dropShadow" mode="normal" result="shape"/></filter><g filter="url(#a)"><rect fill="#fff" height="133" rx="30" width="187" x="53" y="30"/></g><g filter="url(#b)"><rect fill="#00a0b6" height="57" rx="17" width="57" x="31" y="55"/></g><rect fill="#9cd7eb" height="20" rx="10" transform="matrix(-1 0 0 -1 374 80)" width="43" x="187" y="40"/><rect fill="#9cd7eb" height="20" rx="10" transform="matrix(-1 0 0 -1 224 350)" width="31" x="112" y="175"/><g clip-rule="evenodd" fill-rule="evenodd"><path d="m45.3078 77.2844c2.4716-5.6311 8.0381-9.2727 14.1922-9.2844 6.1541.0117 11.7206 3.6533 14.1922 9.2844 2.4716 5.6312 1.3819 12.1894-2.7782 16.7205-2.94 3.184-7.0783 4.9951-11.414 4.9951s-8.474-1.8111-11.414-4.9951c-4.1601-4.5311-5.2498-11.0893-2.7782-16.7205zm5.5767 15.1541c2.3122 2.2348 5.4018 3.4862 8.6187 3.4911 3.217-.0049 6.3066-1.2563 8.6187-3.4911-1.4357-3.4922-4.8401-5.7723-8.6187-5.7723-3.7785 0-7.1829 2.2801-8.6187 5.7723zm5.5098-12.0253c0-1.7139 1.3905-3.1032 3.1058-3.1032s3.1059 1.3893 3.1059 3.1032c0 1.7138-1.3906 3.1032-3.1059 3.1032s-3.1058-1.3894-3.1058-3.1032zm7.765 4.0638c2.549 1.0287 4.6844 2.8732 6.0719 5.2444 1.1058-1.882 1.69-4.0242 1.6927-6.2064 0-6.8555-5.5621-12.4129-12.4233-12.4129-6.8613 0-12.4234 5.5574-12.4234 12.4129.0027 2.1822.5869 4.3244 1.6927 6.2064 1.3875-2.3712 3.5229-4.2157 6.0719-5.2444-2.2024-2.4952-2.044-6.2817.3591-8.5845 2.4032-2.3028 6.1962-2.3028 8.5993 0s2.5615 6.0893.3591 8.5845z" fill="#fff"/><path d="m136.805 68h57.526c4.855 0 8.805 4.0804 8.805 9.0957v38.8083c0 5.016-3.95 9.096-8.805 9.096h-57.526c-4.855 0-8.805-4.08-8.805-9.096v-38.8083c0-5.0153 3.95-9.0957 8.805-9.0957zm57.526 50.936c1.619 0 2.935-1.36 2.935-3.032v-36.9499l-31.699 24.3559-31.697-24.3548v36.9488c0 1.672 1.317 3.032 2.935 3.032zm-56.991-44.8722 28.227 21.6892 28.228-21.6892z" fill="#d9f1f4"/></g></svg>