<svg fill="none" height="30" viewBox="0 0 30 30" width="30" xmlns="http://www.w3.org/2000/svg"><rect fill="#00b6ab" height="30" rx="7" width="30"/><path clip-rule="evenodd" d="m23.1 15.9c.4971 0 .9-.4029.9-.9s-.4029-.9-.9-.9h-1.8v-1.8h1.8c.4971 0 .9-.4029.9-.9 0-.497-.4029-.9-.9-.9h-1.962c-.2721-.76437-.8736-1.36584-1.638-1.638v-1.96201c0-.49704-.4029-.89999-.9-.89999s-.9.40295-.9.89999v1.80002h-1.8v-1.80002c0-.49704-.4029-.89999-.9-.89999s-.9.40295-.9.89999v1.80002h-1.8v-1.80002c0-.49704-.4029-.89999-.9-.89999s-.9.40295-.9.89999v1.96201c-.76438.27216-1.36586.87363-1.638 1.638h-1.962c-.49706 0-.9.403-.9.9 0 .4971.40294.9.9.9h1.8v1.8h-1.8c-.49706 0-.9.4029-.9.9s.40294.9.9.9h1.8v1.8h-1.8c-.49706 0-.9.4029-.9.9 0 .497.40294.9.9.9h1.962c.27214.7644.87362 1.3658 1.638 1.638v1.962c0 .497.4029.9.9.9s.9-.403.9-.9v-1.8h1.8v1.8c0 .497.4029.9.9.9s.9-.403.9-.9v-1.8h1.8v1.8c0 .497.4029.9.9.9s.9-.403.9-.9v-1.962c.7644-.2722 1.3659-.8736 1.638-1.638h1.962c.4971 0 .9-.403.9-.9 0-.4971-.4029-.9-.9-.9h-1.8v-1.8zm-9.9002-3.6002h3.6c.4971 0 .9.403.9.9v3.6c0 .4971-.4029.9-.9.9h-3.6c-.4971 0-.9-.4029-.9-.9v-3.6c0-.497.4029-.9.9-.9zm.9002 3.5998h1.8v-1.8h-1.8zm4.5 3.6004c.4971 0 .9-.403.9-.9v-7.2c0-.497-.4029-.9-.9-.9h-7.2c-.4971 0-.9.403-.9.9v7.2c0 .497.4029.9.9.9z" fill="#fff" fill-rule="evenodd"/></svg>