<svg fill="none" height="380" viewBox="0 0 578 380" width="578" xmlns="http://www.w3.org/2000/svg" xmlns:xlink="http://www.w3.org/1999/xlink"><filter id="a" color-interpolation-filters="sRGB" filterUnits="userSpaceOnUse" height="149" width="149" x="429" y="19"><feFlood flood-opacity="0" result="BackgroundImageFix"/><feColorMatrix in="SourceAlpha" type="matrix" values="0 0 0 0 0 0 0 0 0 0 0 0 0 0 0 0 0 0 127 0"/><feOffset dx="9" dy="20"/><feGaussianBlur stdDeviation="20"/><feColorMatrix type="matrix" values="0 0 0 0 0 0 0 0 0 0.351917 0 0 0 0 0.429167 0 0 0 0.25 0"/><feBlend in2="BackgroundImageFix" mode="normal" result="effect1_dropShadow"/><feBlend in="SourceGraphic" in2="effect1_dropShadow" mode="normal" result="shape"/></filter><filter id="b" color-interpolation-filters="sRGB" filterUnits="userSpaceOnUse" height="178" width="255" x="0" y="202"><feFlood flood-opacity="0" result="BackgroundImageFix"/><feColorMatrix in="SourceAlpha" type="matrix" values="0 0 0 0 0 0 0 0 0 0 0 0 0 0 0 0 0 0 127 0"/><feOffset dx="9" dy="20"/><feGaussianBlur stdDeviation="20"/><feColorMatrix type="matrix" values="0 0 0 0 0 0 0 0 0 0.351917 0 0 0 0 0.429167 0 0 0 0.25 0"/><feBlend in2="BackgroundImageFix" mode="normal" result="effect1_dropShadow"/><feBlend in="SourceGraphic" in2="effect1_dropShadow" mode="normal" result="shape"/></filter><filter id="c" color-interpolation-filters="sRGB" filterUnits="userSpaceOnUse" height="171" width="206" x="66" y="85"><feFlood flood-opacity="0" result="BackgroundImageFix"/><feColorMatrix in="SourceAlpha" type="matrix" values="0 0 0 0 0 0 0 0 0 0 0 0 0 0 0 0 0 0 127 0"/><feOffset dx="9" dy="20"/><feGaussianBlur stdDeviation="20"/><feColorMatrix type="matrix" values="0 0 0 0 0 0 0 0 0 0.351917 0 0 0 0 0.429167 0 0 0 0.25 0"/><feBlend in2="BackgroundImageFix" mode="normal" result="effect1_dropShadow"/><feBlend in="SourceGraphic" in2="effect1_dropShadow" mode="normal" result="shape"/></filter><rect fill="#f7fbff" height="360" rx="40" width="299" x="196"/><rect fill="#00a0b6" height="31" rx="15.5" width="127.647" x="251" y="289"/><rect fill="#fff" fill-opacity=".5" height="9.11765" rx="4.55882" width="9.11765" x="282" y="299.941"/><rect fill="#fff" fill-opacity=".5" height="9.11765" rx="4.55882" width="51.0588" x="296.588" y="299.941"/><rect fill="#c5d8ec" height="12" rx="6" width="63" x="251" y="116"/><rect fill="#c5d8ec" height="12" rx="6" width="111" x="251" y="187"/><rect fill="#e0ecf8" height="12" rx="6" width="137" x="251" y="140"/><rect fill="#e0ecf8" height="12" rx="6" width="196" x="251" y="211"/><rect fill="#e0ecf8" height="12" rx="6" width="137" x="251" y="235"/><path d="m252.162 43.032h6.468v1.176h-5.04v3.136h4.76v1.176h-4.76v3.304h5.04v1.176h-6.468zm10.859 10.066c-1.232 0-2.202-.2987-2.912-.896l.42-1.022c.738.56 1.582.84 2.534.84.486 0 .854-.0793 1.106-.238.252-.168.378-.4013.378-.7 0-.252-.088-.448-.266-.588-.168-.1493-.457-.2753-.868-.378l-1.176-.28c-.616-.1307-1.087-.3593-1.414-.686-.317-.336-.476-.7513-.476-1.246 0-.6347.252-1.148.756-1.54.514-.392 1.19-.588 2.03-.588.504 0 .98.0793 1.428.238.458.1587.845.3827 1.162.672l-.434.994c-.681-.5413-1.4-.812-2.156-.812-.457 0-.812.0887-1.064.266-.252.168-.378.406-.378.714 0 .2427.08.4387.238.588.159.1493.411.266.756.35l1.204.294c.672.1493 1.167.3873 1.484.714.327.3173.49.7327.49 1.246 0 .6347-.256 1.1387-.77 1.512-.504.364-1.194.546-2.072.546zm7.825 0c-.709 0-1.33-.1493-1.862-.448-.523-.2987-.924-.7187-1.204-1.26-.28-.5507-.42-1.19-.42-1.918s.145-1.372.434-1.932c.299-.56.714-.994 1.246-1.302s1.153-.462 1.862-.462c.495 0 .971.084 1.428.252.457.1587.826.378 1.106.658l-.434 1.022c-.663-.5227-1.33-.784-2.002-.784-.681 0-1.213.224-1.596.672-.383.4387-.574 1.0593-.574 1.862s.191 1.4233.574 1.862c.383.4293.915.644 1.596.644.691 0 1.358-.2613 2.002-.784l.434 1.022c-.299.28-.681.4993-1.148.658-.457.1587-.938.238-1.442.238zm7.684-7.322c.215 0 .439.0327.672.098l-.028 1.288c-.252-.0933-.527-.14-.826-.14-.644 0-1.129.196-1.456.588-.317.3827-.476.868-.476 1.456v3.934h-1.4v-5.068c0-.7373-.037-1.4-.112-1.988h1.316l.126 1.274c.187-.4667.476-.8213.868-1.064.392-.252.831-.378 1.316-.378zm4.901 7.322c-.69 0-1.297-.1493-1.82-.448-.522-.2987-.928-.7233-1.218-1.274-.28-.5507-.42-1.1947-.42-1.932s.14-1.3813.42-1.932c.29-.56.696-.9893 1.218-1.288.523-.2987 1.13-.448 1.82-.448.682 0 1.284.1493 1.806.448.523.2987.924.728 1.204 1.288.29.5507.434 1.1947.434 1.932s-.144 1.3813-.434 1.932c-.28.5507-.681.9753-1.204 1.274-.522.2987-1.124.448-1.806.448zm-.014-1.12c.654 0 1.153-.2147 1.498-.644.346-.4293.518-1.0593.518-1.89 0-.812-.177-1.4373-.532-1.876-.345-.4387-.835-.658-1.47-.658-.644 0-1.143.2193-1.498.658-.354.4387-.532 1.064-.532 1.876 0 .8307.173 1.4607.518 1.89.355.4293.854.644 1.498.644zm16.213-6.034-2.688 7.056h-1.288l-1.89-5.11-1.876 5.11h-1.288l-2.688-7.056h1.47l1.918 5.39 1.946-5.39h1.12l1.946 5.39 1.932-5.39zm13.669 7.056h-1.526l-1.246-3.318c-.131-.3547-.322-.5973-.574-.728-.252-.14-.598-.21-1.036-.21h-2.184v4.256h-1.428v-9.968h4.102c1.092 0 1.927.2427 2.506.728.588.4853.882 1.1807.882 2.086 0 .6533-.173 1.2087-.518 1.666-.346.4573-.836.7793-1.47.966.578.1027.998.5133 1.26 1.232zm-4.06-5.418c.728 0 1.269-.14 1.624-.42.354-.2893.532-.7187.532-1.288s-.178-.9893-.532-1.26c-.346-.28-.887-.42-1.624-.42h-2.506v3.388zm8.989 5.516c-.69 0-1.297-.1493-1.82-.448-.522-.2987-.928-.7233-1.218-1.274-.28-.5507-.42-1.1947-.42-1.932s.14-1.3813.42-1.932c.29-.56.696-.9893 1.218-1.288.523-.2987 1.13-.448 1.82-.448.682 0 1.284.1493 1.806.448.523.2987.924.728 1.204 1.288.29.5507.434 1.1947.434 1.932s-.144 1.3813-.434 1.932c-.28.5507-.681.9753-1.204 1.274-.522.2987-1.124.448-1.806.448zm-.014-1.12c.654 0 1.153-.2147 1.498-.644.346-.4293.518-1.0593.518-1.89 0-.812-.177-1.4373-.532-1.876-.345-.4387-.835-.658-1.47-.658-.644 0-1.143.2193-1.498.658-.354.4387-.532 1.064-.532 1.876 0 .8307.173 1.4607.518 1.89.355.4293.854.644 1.498.644zm5.361-9.282h1.4v10.304h-1.4zm9.743 6.804h-5.04c.046 1.652.798 2.478 2.254 2.478.812 0 1.554-.266 2.226-.798l.434 1.008c-.318.28-.724.504-1.218.672-.486.1587-.976.238-1.47.238-1.13 0-2.016-.322-2.66-.966-.644-.6533-.966-1.5447-.966-2.674 0-.7187.14-1.358.42-1.918.289-.56.69-.994 1.204-1.302.513-.308 1.096-.462 1.75-.462.952 0 1.698.308 2.24.924.55.616.826 1.47.826 2.562zm-3.038-2.674c-.532 0-.966.1587-1.302.476s-.551.77-.644 1.358h3.738c-.056-.5973-.238-1.05-.546-1.358-.308-.3173-.724-.476-1.246-.476z" fill="#6782a3"/><path d="m252.848 66.912h6.288c2.8 0 4.968.744 6.504 2.232 1.552 1.488 2.328 3.584 2.328 6.288 0 2.72-.776 4.832-2.328 6.336-1.536 1.488-3.704 2.232-6.504 2.232h-6.288zm6.096 14.568c3.936 0 5.904-2.016 5.904-6.048 0-4-1.968-6-5.904-6h-3v12.048zm22.827-3.384h-8.352c.064 1.296.384 2.256.96 2.88.592.608 1.464.912 2.616.912 1.328 0 2.56-.432 3.696-1.296l.864 2.064c-.576.464-1.288.84-2.136 1.128-.832.272-1.68.408-2.544.408-1.984 0-3.544-.56-4.68-1.68s-1.704-2.656-1.704-4.608c0-1.232.248-2.328.744-3.288s1.192-1.704 2.088-2.232c.896-.544 1.912-.816 3.048-.816 1.664 0 2.976.544 3.936 1.632.976 1.072 1.464 2.552 1.464 4.44zm-5.328-4.368c-.8 0-1.456.24-1.968.72-.496.464-.816 1.144-.96 2.04h5.64c-.096-.912-.376-1.6-.84-2.064-.448-.464-1.072-.696-1.872-.696zm15.031-2.16c1.04 0 1.96.272 2.76.816.816.528 1.448 1.28 1.896 2.256.464.96.696 2.064.696 3.312s-.224 2.344-.672 3.288-1.08 1.672-1.896 2.184c-.8.512-1.728.768-2.784.768-.88 0-1.664-.184-2.352-.552-.688-.384-1.216-.912-1.584-1.584v7.128h-2.976v-13.872c0-1.28-.064-2.424-.192-3.432h2.808l.24 2.088c.32-.752.84-1.336 1.56-1.752.72-.432 1.552-.648 2.496-.648zm-.816 10.272c1.008 0 1.784-.336 2.328-1.008s.816-1.632.816-2.88c0-1.264-.272-2.248-.816-2.952-.544-.72-1.312-1.08-2.304-1.08-1.024 0-1.808.344-2.352 1.032s-.816 1.672-.816 2.952c0 1.264.272 2.24.816 2.928.544.672 1.32 1.008 2.328 1.008zm14.533 2.352c-1.232 0-2.32-.256-3.264-.768-.928-.512-1.648-1.24-2.16-2.184-.496-.96-.744-2.08-.744-3.36s.248-2.392.744-3.336c.512-.96 1.232-1.696 2.16-2.208.944-.512 2.032-.768 3.264-.768 1.216 0 2.288.256 3.216.768s1.64 1.248 2.136 2.208c.512.944.768 2.056.768 3.336s-.256 2.4-.768 3.36c-.496.944-1.208 1.672-2.136 2.184s-2 .768-3.216.768zm-.024-2.352c1.024 0 1.8-.328 2.328-.984.544-.672.816-1.664.816-2.976 0-1.296-.272-2.28-.816-2.952-.544-.688-1.312-1.032-2.304-1.032-1.008 0-1.784.344-2.328 1.032-.544.672-.816 1.656-.816 2.952 0 1.312.264 2.304.792 2.976.544.656 1.32.984 2.328.984zm13.421 2.352c-2.192 0-3.936-.512-5.232-1.536l.84-2.112c1.296.96 2.776 1.44 4.44 1.44.72 0 1.272-.12 1.656-.36.4-.24.6-.576.6-1.008 0-.368-.136-.656-.408-.864-.272-.224-.736-.416-1.392-.576l-2.016-.456c-2.208-.48-3.312-1.608-3.312-3.384 0-.736.208-1.384.624-1.944.416-.576 1-1.024 1.752-1.344s1.624-.48 2.616-.48c.864 0 1.696.136 2.496.408.8.256 1.504.632 2.112 1.128l-.888 2.04c-1.216-.896-2.464-1.344-3.744-1.344-.688 0-1.224.128-1.608.384s-.576.608-.576 1.056c0 .352.112.632.336.84.24.208.64.384 1.2.528l2.064.456c1.2.272 2.072.696 2.616 1.272.56.56.84 1.296.84 2.208 0 1.12-.448 2.008-1.344 2.664s-2.12.984-3.672.984zm7.833-12.312h2.976v12.12h-2.976zm3.144-5.496v2.952h-3.336v-2.952zm7.18 7.752v5.424c0 1.424.664 2.136 1.992 2.136.368 0 .768-.064 1.2-.192v2.376c-.528.192-1.168.288-1.92.288-1.376 0-2.432-.384-3.168-1.152s-1.104-1.872-1.104-3.312v-5.568h-2.328v-2.256h2.328v-2.952l3-1.008v3.96h3.216v2.256zm11.024 10.056c-1.232 0-2.32-.256-3.264-.768-.928-.512-1.648-1.24-2.16-2.184-.496-.96-.744-2.08-.744-3.36s.248-2.392.744-3.336c.512-.96 1.232-1.696 2.16-2.208.944-.512 2.032-.768 3.264-.768 1.216 0 2.288.256 3.216.768s1.64 1.248 2.136 2.208c.512.944.768 2.056.768 3.336s-.256 2.4-.768 3.36c-.496.944-1.208 1.672-2.136 2.184s-2 .768-3.216.768zm-.024-2.352c1.024 0 1.8-.328 2.328-.984.544-.672.816-1.664.816-2.976 0-1.296-.272-2.28-.816-2.952-.544-.688-1.312-1.032-2.304-1.032-1.008 0-1.784.344-2.328 1.032-.544.672-.816 1.656-.816 2.952 0 1.312.264 2.304.792 2.976.544.656 1.32.984 2.328.984zm15.509-10.248c.464 0 .864.064 1.2.192l-.024 2.736c-.512-.208-1.04-.312-1.584-.312-1.024 0-1.808.296-2.352.888-.528.592-.792 1.376-.792 2.352v6.552h-2.976v-8.688c0-1.28-.064-2.424-.192-3.432h2.808l.24 2.136c.304-.784.784-1.384 1.44-1.8s1.4-.624 2.232-.624z" fill="#00769d"/><g filter="url(#a)"><rect fill="#00a0b6" height="69" rx="20" width="69" x="460" y="39"/></g><g filter="url(#b)"><rect fill="#00a0b6" height="98" rx="20" width="175" x="31" y="222"/></g><g fill="#fff"><circle cx="74" cy="271" opacity=".15" r="25"/><path clip-rule="evenodd" d="m83.925 266.837c.0368.11.062.223.075.338v.075 12.5c0 2.071-1.6789 3.75-3.75 3.75h-12.5c-2.0711 0-3.75-1.679-3.75-3.75v-17.5c0-2.071 1.6789-3.75 3.75-3.75h7.5625c.1453.018.2855.065.4125.138.0373-.006.0752-.006.1125 0 .1285.06.2467.14.35.237l7.5 7.5c.0972.103.1774.221.2375.35zm-4.1875-.837-3.2375-3.237v1.987c0 .691.5596 1.25 1.25 1.25zm1.7625 13.75c0 .69-.5596 1.25-1.25 1.25h-12.5c-.6904 0-1.25-.56-1.25-1.25v-17.5c0-.69.5596-1.25 1.25-1.25h6.25v3.75c0 2.071 1.6789 3.75 3.75 3.75h3.75zm-8.7498-4.262 4.1125-4.125c.4902-.49 1.2849-.49 1.775 0 .4902.49.4902 1.285 0 1.775l-5 5c-.2347.236-.5542.369-.8875.369s-.6528-.133-.8875-.369l-2.5-2.5c-.4901-.49-.4901-1.285 0-1.775.4902-.49 1.2849-.49 1.775 0z" fill-rule="evenodd"/><path d="m125.375 271.585v2.415h-13.895v-2.415h5.495v-18.935l-5.11 3.255v-2.765l6.37-4.06h1.645v22.505zm22.033-3.01h-3.78v5.425h-2.87v-5.425h-11.48v-2.17l12.005-17.325h2.345v17.115h3.78zm-6.65-2.38v-12.25l-8.505 12.25z"/><path d="m116.51 291.24h-3.6l-.76 1.76h-1.05l3.17-7.12h.87l3.18 7.12h-1.05zm-.35-.82-1.45-3.39-1.45 3.39zm5.432 2.65c-.507 0-.95-.107-1.33-.32-.373-.213-.66-.513-.86-.9-.2-.393-.3-.85-.3-1.37s.103-.98.31-1.38c.213-.4.51-.71.89-.93s.823-.33 1.33-.33c.353 0 .693.06 1.02.18.327.113.59.27.79.47l-.31.73c-.473-.373-.95-.56-1.43-.56-.487 0-.867.16-1.14.48-.273.313-.41.757-.41 1.33s.137 1.017.41 1.33c.273.307.653.46 1.14.46.493 0 .97-.187 1.43-.56l.31.73c-.213.2-.487.357-.82.47-.327.113-.67.17-1.03.17zm4.38-4.33v2.53c0 .347.073.593.22.74.153.14.363.21.63.21.173 0 .35-.027.53-.08v.82c-.22.073-.47.11-.75.11-.52 0-.923-.147-1.21-.44s-.43-.72-.43-1.28v-2.61h-.98v-.78h.98v-1.26l1.01-.35v1.61h1.39v.78zm2.573-.78h1v5.04h-1zm1.08-2.2v1.06h-1.17v-1.06zm6.23 2.21-2.19 5.03h-.91l-2.17-5.03h1.07l1.58 3.89 1.61-3.89zm5.263 2.53h-3.6c.033 1.18.57 1.77 1.61 1.77.58 0 1.11-.19 1.59-.57l.31.72c-.227.2-.517.36-.87.48-.347.113-.697.17-1.05.17-.807 0-1.44-.23-1.9-.69-.46-.467-.69-1.103-.69-1.91 0-.513.1-.97.3-1.37.207-.4.493-.71.86-.93s.783-.33 1.25-.33c.68 0 1.213.22 1.6.66.393.44.59 1.05.59 1.83zm-2.17-1.91c-.38 0-.69.113-.93.34s-.393.55-.46.97h2.67c-.04-.427-.17-.75-.39-.97-.22-.227-.517-.34-.89-.34zm6.585-2.71h4.62v.84h-3.6v2.24h3.4v.84h-3.4v2.36h3.6v.84h-4.62zm7.828 7.19c-.88 0-1.573-.213-2.08-.64l.3-.73c.527.4 1.13.6 1.81.6.347 0 .61-.057.79-.17.18-.12.27-.287.27-.5 0-.18-.063-.32-.19-.42-.12-.107-.326-.197-.62-.27l-.84-.2c-.44-.093-.776-.257-1.01-.49-.226-.24-.34-.537-.34-.89 0-.453.18-.82.54-1.1.367-.28.85-.42 1.45-.42.36 0 .7.057 1.02.17.327.113.604.273.83.48l-.31.71c-.486-.387-1-.58-1.54-.58-.326 0-.58.063-.76.19-.18.12-.27.29-.27.51 0 .173.057.313.17.42.114.107.294.19.54.25l.86.21c.48.107.834.277 1.06.51.234.227.35.523.35.89 0 .453-.183.813-.55 1.08-.36.26-.853.39-1.48.39zm5.661 0c-.507 0-.95-.107-1.33-.32-.374-.213-.66-.513-.86-.9-.2-.393-.3-.85-.3-1.37s.103-.98.31-1.38c.213-.4.51-.71.89-.93s.823-.33 1.33-.33c.353 0 .693.06 1.02.18.326.113.59.27.79.47l-.31.73c-.474-.373-.95-.56-1.43-.56-.487 0-.867.16-1.14.48-.274.313-.41.757-.41 1.33s.136 1.017.41 1.33c.273.307.653.46 1.14.46.493 0 .97-.187 1.43-.56l.31.73c-.214.2-.487.357-.82.47-.327.113-.67.17-1.03.17zm5.56-5.23c.153 0 .313.023.48.07l-.02.92c-.18-.067-.377-.1-.59-.1-.46 0-.807.14-1.04.42-.227.273-.34.62-.34 1.04v2.81h-1v-3.62c0-.527-.027-1-.08-1.42h.94l.09.91c.133-.333.34-.587.62-.76.28-.18.593-.27.94-.27zm3.572 5.23c-.493 0-.927-.107-1.3-.32s-.663-.517-.87-.91c-.2-.393-.3-.853-.3-1.38s.1-.987.3-1.38c.207-.4.497-.707.87-.92s.807-.32 1.3-.32c.487 0 .917.107 1.29.32s.66.52.86.92c.207.393.31.853.31 1.38s-.103.987-.31 1.38c-.2.393-.487.697-.86.91s-.803.32-1.29.32zm-.01-.8c.467 0 .823-.153 1.07-.46s.37-.757.37-1.35c0-.58-.127-1.027-.38-1.34-.247-.313-.597-.47-1.05-.47-.46 0-.817.157-1.07.47s-.38.76-.38 1.34c0 .593.123 1.043.37 1.35.253.307.61.46 1.07.46zm11.652-4.31-1.92 5.04h-.92l-1.35-3.65-1.34 3.65h-.92l-1.92-5.04h1.05l1.37 3.85 1.39-3.85h.8l1.39 3.85 1.38-3.85zm2.872 5.11c-.88 0-1.573-.213-2.08-.64l.3-.73c.527.4 1.13.6 1.81.6.347 0 .61-.057.79-.17.18-.12.27-.287.27-.5 0-.18-.063-.32-.19-.42-.12-.107-.327-.197-.62-.27l-.84-.2c-.44-.093-.777-.257-1.01-.49-.227-.24-.34-.537-.34-.89 0-.453.18-.82.54-1.1.367-.28.85-.42 1.45-.42.36 0 .7.057 1.02.17.327.113.603.273.83.48l-.31.71c-.487-.387-1-.58-1.54-.58-.327 0-.58.063-.76.19-.18.12-.27.29-.27.51 0 .173.057.313.17.42s.293.19.54.25l.86.21c.48.107.833.277 1.06.51.233.227.35.523.35.89 0 .453-.183.813-.55 1.08-.36.26-.853.39-1.48.39z"/><path d="m508.505 72.5112c-.786 0-1.545.33-2.081.9055l-2.785 2.9902c-.36-1.1575-1.441-2.0003-2.716-2.0003h-4.378c-.613 0-1.204-.223-1.664-.628-2.475-2.1779-6.195-2.197-8.693-.0602-.515-.7294-1.364-1.2072-2.323-1.2072h-3.917c-.524 0-.948.4243-.948.9477v11.3723c0 .5234.424.9477.948.9477h3.917c.851 0 1.615-.3764 2.137-.9709l.561.1577c1.92.5396 3.904.8132 5.898.8132h8.462c2.077 0 4.061-.992 5.307-2.6536l4.55-6.0664c0-.0001 0-.0002 0-.0003.372-.4951.568-1.0844.568-1.7044 0-1.5677-1.276-2.843-2.843-2.843zm-23.692 10.4245c0 .5226-.426.9477-.948.9477h-2.97v-9.4769h2.97c.522 0 .948.4251.948.9477zm24.451-7.0142v.0002l-4.55 6.0665c-.89 1.1868-2.307 1.8953-3.791 1.8953h-8.462c-1.82 0-3.632-.2498-5.385-.7424l-.371-.1043c.002-.0336.003-.0671.003-.101v-7.1532l.66-.5812c1.785-1.5703 4.476-1.5704 6.261 0 .807.7096 1.842 1.1004 2.916 1.1004h4.378c.523 0 .948.4252.948.9477 0 .5226-.425.9477-.948.9477h-6.735c-.523 0-.948.4243-.948.9478 0 .5234.425.9477.948.9477h7.37c.787 0 1.545-.33 2.081-.9053l4.172-4.4789c.181-.1947.428-.302.694-.302.522 0 .948.4251.948.9477 0 .2067-.066.4028-.189.5673z"/><path clip-rule="evenodd" d="m498.426 60.0997c-.466-.2329-1.033-.0439-1.266.4219l-3.774 7.5475c-.233.4661-.044 1.0329.422 1.2658.467.2336 1.033.0432 1.266-.4219l3.774-7.5475c.233-.4658.044-1.0326-.422-1.2658zm-7.303.1768c-.368-.3685-.965-.3685-1.334 0l-3.773 3.7737c-.369.3683-.369.9656 0 1.3341l3.773 3.7738c.369.3685.966.3685 1.334 0 .369-.3686.369-.9658 0-1.3341l-3.106-3.1067 3.106-3.1067c.369-.3683.369-.9658 0-1.3341zm9.987.0001c.368-.3686.966-.3686 1.334 0l3.774 3.7737c.369.3683.369.9656 0 1.3341l-3.774 3.7737c-.368.3686-.966.3686-1.334 0-.368-.3685-.368-.9657 0-1.334l3.107-3.1067-3.107-3.1068c-.368-.3685-.368-.9658 0-1.334z" fill-rule="evenodd"/></g><g filter="url(#c)"><rect fill="#fff" height="91" rx="20" width="126" x="97" y="105"/></g><circle cx="132" cy="138" fill="#00a0b6" opacity=".15" r="19"/><path clip-rule="evenodd" d="m126.6 145.2h3.6c.497 0 .9.403.9.9s-.403.9-.9.9h-3.6c-1.491 0-2.7-1.209-2.7-2.7v-12.6c0-1.491 1.209-2.7 2.7-2.7h5.454l.288.099c.027-.004.055-.004.081 0 .093.043.178.101.252.171l5.4 5.4c.07.074.128.159.171.252v.081c.027.079.045.16.054.243v.054 1.8c0 .497-.403.9-.9.9s-.9-.403-.9-.9v-.9h-2.7c-1.491 0-2.7-1.209-2.7-2.7v-2.7h-4.5c-.497 0-.9.403-.9.9v12.6c0 .497.403.9.9.9zm13.239-2.961-2.178-2.178c-.169-.17-.399-.266-.639-.266s-.47.096-.639.266l-3.222 3.222c-.168.17-.262.4-.261.639v2.178c0 .497.403.9.9.9h2.178c.24.002.469-.092.639-.261l3.222-3.222c.171-.169.266-.399.266-.639s-.095-.47-.266-.639zm-4.239 2.961h-.9v-.9l2.322-2.322.9.9zm-2.7-13.131 2.331 2.331h-1.431c-.497 0-.9-.403-.9-.9zm.9 7.731h-5.4c-.497 0-.9-.403-.9-.9s.403-.9.9-.9h5.4c.497 0 .9.403.9.9s-.403.9-.9.9zm-5.4-3.6h.9c.497 0 .9-.403.9-.9s-.403-.9-.9-.9h-.9c-.497 0-.9.403-.9.9s.403.9.9.9zm0 5.4h1.8c.497 0 .9.403.9.9s-.403.9-.9.9h-1.8c-.497 0-.9-.403-.9-.9s.403-.9.9-.9z" fill="#00a0b6" fill-rule="evenodd"/><path d="m186.859 145.575h-3.78v5.425h-2.87v-5.425h-11.48v-2.17l12.005-17.325h2.345v17.115h3.78zm-6.65-2.38v-12.25l-8.505 12.25z" fill="#00384b"/><path d="m113.83 169.88h2.96c.747 0 1.327.183 1.74.55.42.36.63.853.63 1.48s-.213 1.123-.64 1.49c-.42.36-.997.54-1.73.54h-1.93v3.06h-1.03zm2.84 3.24c.493 0 .863-.103 1.11-.31.253-.207.38-.507.38-.9 0-.387-.127-.683-.38-.89-.247-.207-.617-.31-1.11-.31h-1.81v2.41zm8.036 1.38h-3.6c.033 1.18.57 1.77 1.61 1.77.58 0 1.11-.19 1.59-.57l.31.72c-.227.2-.517.36-.87.48-.347.113-.697.17-1.05.17-.807 0-1.44-.23-1.9-.69-.46-.467-.69-1.103-.69-1.91 0-.513.1-.97.3-1.37.207-.4.493-.71.86-.93s.783-.33 1.25-.33c.68 0 1.213.22 1.6.66.393.44.59 1.05.59 1.83zm-2.17-1.91c-.38 0-.69.113-.93.34s-.393.55-.46.97h2.67c-.04-.427-.17-.75-.39-.97-.22-.227-.517-.34-.89-.34zm6.259-.75c1.207 0 1.81.673 1.81 2.02v3.14h-1.01v-3.08c0-.44-.087-.76-.26-.96-.167-.2-.437-.3-.81-.3-.427 0-.77.133-1.03.4-.253.267-.38.623-.38 1.07v2.87h-1v-3.62c0-.527-.027-1-.08-1.42h.94l.09.87c.16-.32.39-.563.69-.73.307-.173.653-.26 1.04-.26zm8.108-2.2v7.36h-1v-.86c-.147.3-.367.53-.66.69-.287.16-.624.24-1.01.24-.434 0-.82-.11-1.16-.33s-.607-.527-.8-.92c-.187-.4-.28-.86-.28-1.38s.093-.977.28-1.37c.186-.393.446-.697.78-.91.34-.213.733-.32 1.18-.32.38 0 .713.08 1 .24.293.16.513.387.66.68v-3.12zm-2.44 6.63c.46 0 .813-.157 1.06-.47.253-.32.38-.767.38-1.34s-.127-1.017-.38-1.33c-.247-.32-.597-.48-1.05-.48-.46 0-.82.157-1.08.47-.254.313-.38.753-.38 1.32 0 .573.126 1.023.38 1.35.26.32.616.48 1.07.48zm4.173-4.31h1v5.04h-1zm1.08-2.2v1.06h-1.17v-1.06zm4.331 2.08c1.207 0 1.81.673 1.81 2.02v3.14h-1.01v-3.08c0-.44-.087-.76-.26-.96-.167-.2-.437-.3-.81-.3-.427 0-.77.133-1.03.4-.253.267-.38.623-.38 1.07v2.87h-1v-3.62c0-.527-.027-1-.08-1.42h.94l.09.87c.16-.32.39-.563.69-.73.307-.173.653-.26 1.04-.26zm8.148.12v4.95c0 .767-.204 1.343-.61 1.73-.4.393-.997.59-1.79.59-.767 0-1.437-.167-2.01-.5l.17-.79c.313.167.613.29.9.37.293.08.603.12.93.12.94 0 1.41-.48 1.41-1.44v-1.09c-.154.293-.377.527-.67.7-.294.167-.634.25-1.02.25-.44 0-.834-.103-1.18-.31-.34-.207-.607-.5-.8-.88-.187-.38-.28-.817-.28-1.31s.093-.93.28-1.31c.193-.38.46-.673.8-.88.346-.213.74-.32 1.18-.32.386 0 .726.083 1.02.25.293.16.516.39.67.69v-.82zm-2.46 4.08c.453 0 .81-.15 1.07-.45s.39-.713.39-1.24-.13-.94-.39-1.24c-.254-.307-.61-.46-1.07-.46-.454 0-.814.153-1.08.46-.26.3-.39.713-.39 1.24 0 .52.13.933.39 1.24.266.3.626.45 1.08.45zm9.299 1.03c-.507 0-.95-.107-1.33-.32-.374-.213-.66-.513-.86-.9-.2-.393-.3-.85-.3-1.37s.103-.98.31-1.38c.213-.4.51-.71.89-.93s.823-.33 1.33-.33c.353 0 .693.06 1.02.18.326.113.59.27.79.47l-.31.73c-.474-.373-.95-.56-1.43-.56-.487 0-.867.16-1.14.48-.274.313-.41.757-.41 1.33s.136 1.017.41 1.33c.273.307.653.46 1.14.46.493 0 .97-.187 1.43-.56l.31.73c-.214.2-.487.357-.82.47-.327.113-.67.17-1.03.17zm5.73-5.23c1.206 0 1.81.673 1.81 2.02v3.14h-1.01v-3.08c0-.44-.087-.76-.26-.96-.167-.2-.437-.3-.81-.3-.427 0-.77.133-1.03.4-.254.267-.38.623-.38 1.07v2.87h-1v-7.36h1v3.1c.166-.293.396-.517.69-.67.293-.153.623-.23.99-.23zm8.107.12v5.04h-1v-.86c-.146.3-.366.53-.66.69-.286.16-.623.24-1.01.24-.446 0-.84-.107-1.18-.32-.333-.213-.593-.513-.78-.9-.186-.393-.28-.85-.28-1.37s.094-.98.28-1.38c.194-.4.46-.71.8-.93s.727-.33 1.16-.33c.387 0 .724.083 1.01.25.287.16.507.39.66.69v-.82zm-2.43 4.31c.454 0 .804-.157 1.05-.47.254-.32.38-.767.38-1.34 0-.58-.126-1.027-.38-1.34-.246-.313-.6-.47-1.06-.47-.453 0-.81.163-1.07.49-.253.32-.38.767-.38 1.34 0 .567.127 1.007.38 1.32.26.313.62.47 1.08.47zm6.844-4.43c1.207 0 1.81.673 1.81 2.02v3.14h-1.01v-3.08c0-.44-.086-.76-.26-.96-.166-.2-.436-.3-.81-.3-.426 0-.77.133-1.03.4-.253.267-.38.623-.38 1.07v2.87h-1v-3.62c0-.527-.026-1-.08-1.42h.94l.09.87c.16-.32.39-.563.69-.73.307-.173.654-.26 1.04-.26zm8.148.12v4.95c0 .767-.203 1.343-.61 1.73-.4.393-.997.59-1.79.59-.767 0-1.437-.167-2.01-.5l.17-.79c.313.167.613.29.9.37.293.08.603.12.93.12.94 0 1.41-.48 1.41-1.44v-1.09c-.153.293-.377.527-.67.7-.293.167-.633.25-1.02.25-.44 0-.833-.103-1.18-.31-.34-.207-.607-.5-.8-.88-.187-.38-.28-.817-.28-1.31s.093-.93.28-1.31c.193-.38.46-.673.8-.88.347-.213.74-.32 1.18-.32.387 0 .727.083 1.02.25.293.16.517.39.67.69v-.82zm-2.46 4.08c.453 0 .81-.15 1.07-.45s.39-.713.39-1.24-.13-.94-.39-1.24c-.253-.307-.61-.46-1.07-.46-.453 0-.813.153-1.08.46-.26.3-.39.713-.39 1.24 0 .52.13.933.39 1.24.267.3.627.45 1.08.45zm8.493-1.54h-3.6c.033 1.18.57 1.77 1.61 1.77.58 0 1.11-.19 1.59-.57l.31.72c-.227.2-.517.36-.87.48-.347.113-.697.17-1.05.17-.807 0-1.44-.23-1.9-.69-.46-.467-.69-1.103-.69-1.91 0-.513.1-.97.3-1.37.206-.4.493-.71.86-.93.366-.22.783-.33 1.25-.33.68 0 1.213.22 1.6.66.393.44.59 1.05.59 1.83zm-2.17-1.91c-.38 0-.69.113-.93.34s-.394.55-.46.97h2.67c-.04-.427-.17-.75-.39-.97-.22-.227-.517-.34-.89-.34zm5.339 4.48c-.88 0-1.574-.213-2.08-.64l.3-.73c.526.4 1.13.6 1.81.6.346 0 .61-.057.79-.17.18-.12.27-.287.27-.5 0-.18-.064-.32-.19-.42-.12-.107-.327-.197-.62-.27l-.84-.2c-.44-.093-.777-.257-1.01-.49-.227-.24-.34-.537-.34-.89 0-.453.18-.82.54-1.1.366-.28.85-.42 1.45-.42.36 0 .7.057 1.02.17.326.113.603.273.83.48l-.31.71c-.487-.387-1-.58-1.54-.58-.327 0-.58.063-.76.19-.18.12-.27.29-.27.51 0 .173.056.313.17.42.113.107.293.19.54.25l.86.21c.48.107.833.277 1.06.51.233.227.35.523.35.89 0 .453-.184.813-.55 1.08-.36.26-.854.39-1.48.39z" fill="#6782a3"/><rect fill="#9cd7eb" height="20" rx="10" transform="matrix(0 1 -1 0 644 -368)" width="57" x="506" y="138"/><rect fill="#9cd7eb" height="20" rx="10" transform="matrix(0 1 -1 0 265 -151)" width="27" x="208" y="57"/></svg>