<svg width="468" height="297" viewBox="0 0 468 297" fill="none" xmlns="http://www.w3.org/2000/svg">
<path d="M430.301 289.516H66.9169C64.1073 289.516 62 291.183 62 293.016C62 295.016 64.3414 296.516 66.9169 296.516H430.067C432.877 296.516 434.984 294.849 434.984 293.016C435.218 291.183 432.877 289.516 430.301 289.516Z" fill="#D7F1F9"/>
<path d="M360.355 22.5139H117.555C103.854 22.5139 92.8486 33.5189 92.8486 47.2189V213.641C92.8486 227.341 103.854 238.346 117.555 238.346H360.355C374.056 238.346 385.062 227.341 385.062 213.641V47.2189C385.062 33.7435 374.056 22.5139 360.355 22.5139Z" fill="#5183BB"/>
<path d="M116.658 174.562C111.267 174.562 106.775 170.07 106.775 164.68L107.449 46.9941C107.449 41.6039 111.941 37.1121 117.331 37.1121H360.805C366.195 37.1121 370.688 41.6039 370.688 46.9941L370.014 164.904C370.014 170.294 365.522 174.786 360.131 174.786H116.658V174.562Z" fill="#D7F1F9"/>
<path d="M93 191.523V213.902C93 227.554 103.998 238.519 117.689 238.519H360.311C374.002 238.519 385 227.554 385 213.902V191.523H93Z" fill="#DCF3FA"/>
<path d="M282 238.519H196V271.517H282V238.519Z" fill="#BDE6EF"/>
<path d="M282 238.519H196V248.519H282V238.519Z" fill="#A4D3DD"/>
<path d="M300.289 271.517H177.485C165.499 271.517 156 281.115 156 292.721V296.515H322V292.721C322 280.891 312.275 271.517 300.289 271.517Z" fill="#D9F2FA"/>
<path d="M249 216.521C249 222.606 244.309 227.52 238.5 227.52C232.691 227.52 228 222.606 228 216.521C228 210.436 232.691 205.522 238.5 205.522C244.309 205.522 249 210.67 249 216.521Z" fill="#5183BB"/>
<path d="M284.135 52.512H253.564C248.135 52.512 243.849 56.7974 243.849 62.2256V92.7949C243.849 98.2231 248.135 102.508 253.564 102.508H284.135C289.564 102.508 293.849 98.2231 293.849 92.7949V61.9399C293.849 56.7974 289.564 52.512 284.135 52.512Z" fill="white"/>
<path d="M344.286 52.512H313.714C308.286 52.512 304 56.7974 304 62.2256V92.7949C304 98.2231 308.286 102.508 313.714 102.508H344.286C349.714 102.508 354 98.2231 354 92.7949V61.9399C354 56.7974 349.714 52.512 344.286 52.512Z" fill="white"/>
<path d="M224.326 52.512H193.755C188.326 52.512 184.041 56.7974 184.041 62.2256V92.7949C184.041 98.2231 188.326 102.508 193.755 102.508H224.326C229.755 102.508 234.041 98.2231 234.041 92.7949V61.9399C234.041 56.7974 229.755 52.512 224.326 52.512Z" fill="white"/>
<path d="M164.286 52.512H133.714C128.286 52.512 124 56.7974 124 62.2256V92.7949C124 98.2231 128.286 102.508 133.714 102.508H164.286C169.714 102.508 174 98.2231 174 92.7949V61.9399C173.714 56.7974 169.429 52.512 164.286 52.512Z" fill="#F7FBFD"/>
<path d="M284.135 112.508H253.564C248.135 112.508 243.849 116.793 243.849 122.221V152.791C243.849 158.219 248.135 162.504 253.564 162.504H284.135C289.564 162.504 293.849 158.219 293.849 152.791V121.936C293.849 116.793 289.564 112.508 284.135 112.508Z" fill="white"/>
<path d="M344.286 112.508H313.714C308.286 112.508 304 116.793 304 122.221V152.791C304 158.219 308.286 162.504 313.714 162.504H344.286C349.714 162.504 354 158.219 354 152.791V121.936C354 116.793 349.714 112.508 344.286 112.508Z" fill="white"/>
<path d="M224.326 112.508H193.755C188.326 112.508 184.041 116.793 184.041 122.221V152.791C184.041 158.219 188.326 162.504 193.755 162.504H224.326C229.755 162.504 234.041 158.219 234.041 152.791V121.936C234.041 116.793 229.755 112.508 224.326 112.508Z" fill="white"/>
<path d="M164.286 112.508H133.714C128.286 112.508 124 116.793 124 122.221V152.791C124 158.219 128.286 162.504 133.714 162.504H164.286C169.714 162.504 174 158.219 174 152.791V121.936C173.714 116.793 169.429 112.508 164.286 112.508Z" fill="#F7FBFD"/>
<g filter="url(#filter0_d)">
<path d="M374.5 43.5125C385.822 43.5125 395 34.335 395 23.014C395 11.6929 385.822 2.51538 374.5 2.51538C363.178 2.51538 354 11.6929 354 23.014C354 34.335 363.178 43.5125 374.5 43.5125Z" fill="url(#paint0_linear)"/>
</g>
<path d="M370.784 32.1111C370.271 32.1111 369.759 31.8549 369.374 31.4705L362.712 24.8085C361.943 24.0398 361.943 22.6305 362.712 21.8618C363.481 21.0931 364.89 21.0931 365.659 21.8618L370.912 27.1146L382.827 15.1998C383.596 14.4311 385.006 14.4311 385.774 15.1998C386.543 15.9685 386.543 17.3778 385.774 18.1465L372.321 31.4705C371.937 31.8549 371.424 32.1111 370.784 32.1111Z" fill="white"/>
<path fill-rule="evenodd" clip-rule="evenodd" d="M156.524 68.7979C156.524 72.8222 153.261 76.0845 149.237 76.0845C145.212 76.0845 141.95 72.8222 141.95 68.7979C141.95 64.7736 145.212 61.5113 149.237 61.5113C153.261 61.5113 156.524 64.7736 156.524 68.7979ZM134 92.7274C134 84.3266 140.835 77.4917 149.237 77.4917C157.638 77.4917 164.474 84.3266 164.474 92.7274C164.474 93.0931 164.177 93.3899 163.811 93.3899H134.662C134.297 93.3899 134 93.0931 134 92.7274Z" fill="url(#paint1_linear)"/>
<path fill-rule="evenodd" clip-rule="evenodd" d="M216.524 68.7979C216.524 72.8222 213.261 76.0845 209.237 76.0845C205.212 76.0845 201.95 72.8222 201.95 68.7979C201.95 64.7736 205.212 61.5113 209.237 61.5113C213.261 61.5113 216.524 64.7736 216.524 68.7979ZM194 92.7274C194 84.3266 200.835 77.4917 209.237 77.4917C217.638 77.4917 224.474 84.3266 224.474 92.7274C224.474 93.0931 224.177 93.3899 223.811 93.3899H194.662C194.297 93.3899 194 93.0931 194 92.7274Z" fill="url(#paint2_linear)"/>
<path fill-rule="evenodd" clip-rule="evenodd" d="M276.524 68.7979C276.524 72.8222 273.261 76.0845 269.237 76.0845C265.212 76.0845 261.95 72.8222 261.95 68.7979C261.95 64.7736 265.212 61.5113 269.237 61.5113C273.261 61.5113 276.524 64.7736 276.524 68.7979ZM254 92.7274C254 84.3266 260.835 77.4917 269.237 77.4917C277.638 77.4917 284.474 84.3266 284.474 92.7274C284.474 93.0931 284.177 93.3899 283.811 93.3899H254.662C254.297 93.3899 254 93.0931 254 92.7274Z" fill="url(#paint3_linear)"/>
<path fill-rule="evenodd" clip-rule="evenodd" d="M336.524 68.7979C336.524 72.8222 333.261 76.0845 329.237 76.0845C325.212 76.0845 321.95 72.8222 321.95 68.7979C321.95 64.7736 325.212 61.5113 329.237 61.5113C333.261 61.5113 336.524 64.7736 336.524 68.7979ZM314 92.7274C314 84.3266 320.835 77.4917 329.237 77.4917C337.638 77.4917 344.474 84.3266 344.474 92.7274C344.474 93.0931 344.177 93.3899 343.811 93.3899H314.662C314.297 93.3899 314 93.0931 314 92.7274Z" fill="url(#paint4_linear)"/>
<path fill-rule="evenodd" clip-rule="evenodd" d="M156.524 128.794C156.524 132.818 153.261 136.08 149.237 136.08C145.212 136.08 141.95 132.818 141.95 128.794C141.95 124.769 145.212 121.507 149.237 121.507C153.261 121.507 156.524 124.769 156.524 128.794ZM134 152.723C134 144.322 140.835 137.487 149.237 137.487C157.638 137.487 164.474 144.322 164.474 152.723C164.474 153.089 164.177 153.385 163.811 153.385H134.662C134.297 153.385 134 153.089 134 152.723Z" fill="url(#paint5_linear)"/>
<path fill-rule="evenodd" clip-rule="evenodd" d="M216.524 128.794C216.524 132.818 213.261 136.08 209.237 136.08C205.212 136.08 201.95 132.818 201.95 128.794C201.95 124.769 205.212 121.507 209.237 121.507C213.261 121.507 216.524 124.769 216.524 128.794ZM194 152.723C194 144.322 200.835 137.487 209.237 137.487C217.638 137.487 224.474 144.322 224.474 152.723C224.474 153.089 224.177 153.385 223.811 153.385H194.662C194.297 153.385 194 153.089 194 152.723Z" fill="url(#paint6_linear)"/>
<path fill-rule="evenodd" clip-rule="evenodd" d="M276.524 128.794C276.524 132.818 273.261 136.08 269.237 136.08C265.212 136.08 261.95 132.818 261.95 128.794C261.95 124.769 265.212 121.507 269.237 121.507C273.261 121.507 276.524 124.769 276.524 128.794ZM254 152.723C254 144.322 260.835 137.487 269.237 137.487C277.638 137.487 284.474 144.322 284.474 152.723C284.474 153.089 284.177 153.385 283.811 153.385H254.662C254.297 153.385 254 153.089 254 152.723Z" fill="url(#paint7_linear)"/>
<path fill-rule="evenodd" clip-rule="evenodd" d="M336.524 128.794C336.524 132.818 333.261 136.08 329.237 136.08C325.212 136.08 321.95 132.818 321.95 128.794C321.95 124.769 325.212 121.507 329.237 121.507C333.261 121.507 336.524 124.769 336.524 128.794ZM314 152.723C314 144.322 320.835 137.487 329.237 137.487C337.638 137.487 344.474 144.322 344.474 152.723C344.474 153.089 344.177 153.385 343.811 153.385H314.662C314.297 153.385 314 153.089 314 152.723Z" fill="url(#paint8_linear)"/>
<g filter="url(#filter1_d)">
<path d="M47.9572 98.5835V121.747C47.9572 126.013 51.445 129.471 55.7502 129.471H91.0678L107.143 142.507V129.471H114.206C118.51 129.471 122 126.013 122 121.747V74.9166C122 70.6508 118.51 67.1921 114.206 67.1921H77.6823L47.9572 98.5835Z" fill="url(#paint9_linear)"/>
</g>
<g filter="url(#filter2_d)">
<path d="M39.6594 22.514C18.8611 22.514 2 39.3739 2 60.1707C2 68.446 4.67131 76.096 9.19594 82.3103L4.55364 92.5089L16.0427 89.5057V89.501C22.5022 94.7085 30.7164 97.8284 39.6594 97.8284C60.4586 97.8284 77.3197 80.9685 77.3197 60.1707C77.3197 39.3739 60.4586 22.514 39.6594 22.514Z" fill="url(#paint10_linear)"/>
</g>
<path fill-rule="evenodd" clip-rule="evenodd" d="M85.0411 84.9247L87.6259 84.9221L97.8681 112.06L92.2727 114.171L89.8411 107.729H85.0411L85.041 107.729V107.729H80.259L77.803 114.177L72.2142 112.049L82.5441 84.9276L85.041 84.9251L85.0411 84.9247ZM85.041 95.1735V95.1741L82.5367 101.749H84.4646L84.4647 101.749H87.5842L85.0722 95.0925L85.0411 95.1738L85.041 95.1735Z" fill="white"/>
<path fill-rule="evenodd" clip-rule="evenodd" d="M39.5016 55.9752H35.107C35.5275 59.304 37.0234 62.2123 39.5016 64.4912V64.4921L39.5018 64.491C41.98 62.2123 43.4759 59.304 43.8964 55.9752H39.5018L39.5016 55.9735V55.9752ZM39.5016 43.9687V43.9666H36.5389V50.0504H23.8285V55.9752H29.1464C29.5554 60.4169 31.3439 64.4634 34.317 67.6843C31.7493 68.7036 28.8035 69.2461 25.6509 69.2461H23.454V75.1709H25.6509C30.7983 75.1709 35.5792 73.9785 39.5016 71.7616V71.7602L39.5018 71.7614C43.4243 73.9783 48.205 75.1708 53.3525 75.1708V69.2459C50.1999 69.2459 47.254 68.7034 44.6864 67.6841C47.6595 64.4632 49.448 60.4167 49.857 55.9751H55.1749V50.0504H42.4644V43.9666H39.5018L39.5016 43.9687Z" fill="white"/>
<g filter="url(#filter3_d)">
<path d="M419.5 140.506C442.972 140.506 462 121.479 462 98.0087C462 74.5383 442.972 55.5117 419.5 55.5117C396.028 55.5117 377 74.5383 377 98.0087C377 121.479 396.028 140.506 419.5 140.506Z" fill="url(#paint11_linear)"/>
</g>
<g filter="url(#filter4_d)">
<path d="M81.5 220.5C96.1356 220.5 108 208.637 108 194.002C108 179.368 96.1356 167.504 81.5 167.504C66.8645 167.504 55 179.368 55 194.002C55 208.637 66.8645 220.5 81.5 220.5Z" fill="url(#paint12_linear)"/>
</g>
<path d="M385.622 216.016L405.053 289.483H414.951L406.336 213.268L385.622 216.016Z" fill="#004E82"/>
<path d="M404.686 214.367C404.686 214.367 404.503 219.313 400.287 225.176C396.07 231.039 378.656 248.627 378.656 248.627L380.489 289.116H371.691L364.358 244.413L382.322 215.1L404.686 214.367Z" fill="#5183BB"/>
<path d="M360.326 157.023L359.043 153.542L357.76 155.74L355.193 154.274C353.177 153.175 350.611 153.908 349.511 155.923C348.411 157.939 349.144 160.504 351.161 161.603C353.36 162.886 355.743 163.252 358.31 163.069H359.226L361.792 158.488L360.326 157.023Z" fill="#FFE27C"/>
<path d="M377.923 139.801C377.923 139.801 375.54 130.091 385.256 129.542C394.971 128.992 400.653 135.038 402.12 139.984C404.32 147.313 400.653 154.641 396.804 156.656L391.488 144.931L377.923 139.801Z" fill="#004E82"/>
<path d="M394.054 144.931C394.054 144.931 396.62 141.451 397.904 144.382C399.187 147.313 399.003 151.527 394.421 151.344C394.421 151.344 392.588 160.138 384.156 157.573C375.724 155.008 376.823 143.649 378.107 139.618C378.107 139.618 385.622 140.901 390.571 138.702C390.388 139.069 392.221 144.382 394.054 144.931Z" fill="#FFE27C"/>
<path d="M386.905 155.374L388.005 166.183L397.537 159.954L396.437 148.595L386.905 155.374Z" fill="#FFE27C"/>
<path d="M401.203 159.587C401.203 159.587 407.619 162.336 409.086 165.267C410.002 167.099 412.568 176.809 414.035 182.855C414.768 185.786 413.668 189.084 411.102 190.916L398.637 200.077L401.203 159.587Z" fill="#64D3B5"/>
<path d="M396.987 158.671C396.987 158.671 399.92 157.938 402.853 161.419C405.786 164.9 407.986 169.481 407.069 183.221C406.152 196.962 410.735 216.199 410.735 216.199C401.386 221.146 390.021 221.512 380.306 217.115L378.473 216.199C378.473 216.199 379.023 181.023 386.172 165.45L396.987 158.671Z" fill="url(#paint13_linear)"/>
<path d="M389.288 163.252L373.157 174.61L361.243 156.656L357.026 164.534C357.026 164.534 367.475 185.786 371.324 189.817L396.987 176.626C400.653 174.794 402.12 170.397 400.47 166.549C398.637 162.335 393.321 160.687 389.288 163.252Z" fill="#B0E7C6"/>
<path d="M380.673 289.116V296.079H361.792C360.692 296.079 360.142 294.613 361.059 293.88C363.259 292.231 367.108 290.033 372.607 289.116H380.673Z" fill="#004E82"/>
<path d="M414.768 289.116V296.079H395.887C394.787 296.079 394.238 294.613 395.154 293.88C397.354 292.231 401.203 290.033 406.702 289.116H414.768Z" fill="#004E82"/>
<path d="M435.774 99.0048C436.292 99.7465 437.154 100.232 438.129 100.232C439.715 100.232 441 98.95 441 97.3681C441 95.7862 439.715 94.5039 438.129 94.5039C437.154 94.5039 436.292 94.9897 435.774 95.7314H421.641V91.6398H434.848C435.283 91.6398 435.7 91.4674 436.008 91.1604L439.289 87.8871C439.597 87.5798 439.77 87.1636 439.77 86.7294V81.7243C440.513 81.2068 441 80.3475 441 79.3744C441 77.7925 439.715 76.5102 438.129 76.5102C436.543 76.5102 435.258 77.7925 435.258 79.3744C435.258 80.3475 435.745 81.2068 436.488 81.7243V86.0518L434.168 88.3661H421.641V82.4023C421.641 80.8403 421.032 79.3766 419.926 78.2815C418.825 77.1914 417.36 76.5913 415.8 76.5913C412.617 76.5913 410.02 79.1674 409.959 82.3565H409.749C408.292 82.3565 406.924 82.9242 405.898 83.9544C404.894 84.9627 404.346 86.2934 404.355 87.7013C404.358 88.2194 404.437 88.7291 404.587 89.2158C403.137 89.6032 401.826 90.4196 400.834 91.5645C399.651 92.9288 399 94.6744 399 96.4796C399 98.8138 400.071 100.903 401.749 102.283C401.042 103.285 400.374 104.727 400.374 106.602C400.374 110.315 403.402 113.336 407.124 113.336H407.268C407.875 113.336 408.418 113.707 408.652 114.28C409.7 116.848 412.152 118.507 414.9 118.507C414.977 118.507 415.054 118.506 415.128 118.504C416.892 118.45 418.537 117.711 419.762 116.425C420.974 115.152 421.641 113.484 421.641 111.727C421.641 110.823 420.906 110.091 420 110.091C419.094 110.091 418.36 110.823 418.36 111.727C418.36 113.604 416.865 115.176 415.027 115.232C414.985 115.233 414.942 115.234 414.899 115.234C413.493 115.234 412.233 114.375 411.692 113.047C410.953 111.236 409.218 110.064 407.269 110.062H407.124C405.211 110.062 403.655 108.51 403.655 106.602C403.655 105.261 404.258 104.313 404.727 103.779C405.307 103.922 405.913 103.999 406.537 103.999C407.443 103.999 408.177 103.266 408.177 102.362C408.177 101.458 407.443 100.725 406.537 100.725C404.19 100.725 402.281 98.8208 402.281 96.4799C402.281 94.4052 403.827 92.6016 405.874 92.2854L407.489 92.04C408.119 91.9442 408.636 91.4933 408.816 90.8836C408.996 90.2738 408.805 89.6154 408.328 89.1947C407.891 88.8108 407.639 88.2588 407.635 87.6807C407.632 87.1508 407.842 86.6468 408.225 86.2616C408.631 85.8544 409.172 85.6301 409.748 85.6301H410.081C411.823 85.6301 413.24 84.2168 413.24 82.4795V82.4702C413.24 81.0335 414.388 79.8646 415.8 79.8646C417.235 79.8646 418.36 80.9793 418.36 82.4023V104.743C418.36 105.647 419.094 106.38 420 106.38C420.066 106.38 420.131 106.375 420.196 106.368C420.213 106.368 420.229 106.37 420.246 106.37H434.25L436.57 108.685V113.141C435.781 113.651 435.258 114.537 435.258 115.546C435.258 117.128 436.543 118.41 438.129 118.41C439.715 118.41 441 117.128 441 115.546C441 114.609 440.549 113.777 439.851 113.254V108.007C439.851 107.573 439.679 107.156 439.371 106.849L436.09 103.576C435.782 103.269 435.365 103.096 434.93 103.096H421.641V99.0048H435.774Z" fill="white"/>
<path fill-rule="evenodd" clip-rule="evenodd" d="M93.69 196.016L93.69 196.016C93.3541 195.37 92.2606 193.266 92.2655 190.158C92.2655 183.99 86.8997 179.093 80.6021 179.827C76.0769 180.359 72.2842 184.001 71.5846 188.487C71.0625 191.835 72.1185 195.119 74.4823 197.496C75.6267 198.645 76.2567 200.096 76.2567 201.579V206.272C76.2567 206.715 76.6147 207.073 77.0571 207.073H86.6624C87.1048 207.073 87.4629 206.715 87.4629 206.272V203.764H89.8642C90.3066 203.764 90.6646 203.406 90.6646 202.964V197.361H93.0659C93.3434 197.361 93.6013 197.217 93.7468 196.981C93.8929 196.745 93.9062 196.451 93.782 196.202C93.7701 196.17 93.7377 196.108 93.69 196.016ZM88.2633 190.958H87.3819C87.2449 191.903 86.8794 192.766 86.3315 193.497L86.9539 194.12C87.2666 194.432 87.2666 194.939 86.9539 195.252C86.6413 195.564 86.1347 195.564 85.822 195.252L85.1996 194.629C84.4682 195.177 83.6047 195.543 82.6601 195.68V196.561C82.6601 197.003 82.3021 197.361 81.8597 197.361C81.4172 197.361 81.0592 197.003 81.0592 196.561V195.68C80.1146 195.543 79.251 195.177 78.5197 194.629L77.8973 195.252C77.5847 195.564 77.0781 195.564 76.7655 195.252C76.4528 194.939 76.4528 194.432 76.7655 194.12L77.3879 193.497C76.8401 192.766 76.4745 191.903 76.3375 190.958H75.4562C75.0138 190.958 74.6557 190.6 74.6557 190.158C74.6557 189.715 75.0137 189.357 75.4562 189.357H76.3375C76.4745 188.413 76.84 187.549 77.3879 186.818L76.7655 186.196C76.4528 185.883 76.4528 185.377 76.7655 185.064C77.0781 184.751 77.5847 184.751 77.8973 185.064L78.5197 185.686C79.2511 185.138 80.1146 184.773 81.0592 184.636V183.755C81.0592 183.312 81.4172 182.954 81.8597 182.954C82.3021 182.954 82.6602 183.312 82.6602 183.755V184.636C83.6048 184.773 84.4683 185.138 85.1997 185.686L85.8221 185.064C86.1348 184.751 86.6414 184.751 86.954 185.064C87.2667 185.377 87.2667 185.883 86.954 186.196L86.3316 186.818C86.8795 187.549 87.2451 188.413 87.382 189.357H88.2634C88.7058 189.357 89.0638 189.715 89.0638 190.158C89.0637 190.6 88.7057 190.958 88.2633 190.958ZM81.8598 189.358C81.4182 189.358 81.0593 189.717 81.0593 190.158C81.0593 190.6 81.4181 190.959 81.8598 190.959C82.3014 190.959 82.6602 190.6 82.6602 190.158C82.6602 189.717 82.3014 189.358 81.8598 189.358ZM77.8575 190.159C77.8575 187.952 79.653 186.156 81.8597 186.156C84.0664 186.156 85.8619 187.952 85.8619 190.159C85.8619 192.365 84.0664 194.161 81.8597 194.161C79.653 194.161 77.8575 192.365 77.8575 190.159ZM79.4584 190.159C79.4584 191.483 80.5356 192.56 81.8597 192.56C83.1839 192.56 84.261 191.483 84.261 190.159C84.261 188.834 83.1839 187.757 81.8597 187.757C80.5356 187.757 79.4584 188.834 79.4584 190.159Z" fill="white"/>
<defs>
<filter id="filter0_d" x="352" y="0.515381" width="49" height="48.9971" filterUnits="userSpaceOnUse" color-interpolation-filters="sRGB">
<feFlood flood-opacity="0" result="BackgroundImageFix"/>
<feColorMatrix in="SourceAlpha" type="matrix" values="0 0 0 0 0 0 0 0 0 0 0 0 0 0 0 0 0 0 127 0" result="hardAlpha"/>
<feOffset dx="2" dy="2"/>
<feGaussianBlur stdDeviation="2"/>
<feColorMatrix type="matrix" values="0 0 0 0 0.0846528 0 0 0 0 0.150363 0 0 0 0 0.383333 0 0 0 0.25 0"/>
<feBlend mode="normal" in2="BackgroundImageFix" result="effect1_dropShadow"/>
<feBlend mode="normal" in="SourceGraphic" in2="effect1_dropShadow" result="shape"/>
</filter>
<filter id="filter1_d" x="45.9572" y="65.1921" width="82.0431" height="83.3144" filterUnits="userSpaceOnUse" color-interpolation-filters="sRGB">
<feFlood flood-opacity="0" result="BackgroundImageFix"/>
<feColorMatrix in="SourceAlpha" type="matrix" values="0 0 0 0 0 0 0 0 0 0 0 0 0 0 0 0 0 0 127 0" result="hardAlpha"/>
<feOffset dx="2" dy="2"/>
<feGaussianBlur stdDeviation="2"/>
<feColorMatrix type="matrix" values="0 0 0 0 0.0846528 0 0 0 0 0.150363 0 0 0 0 0.383333 0 0 0 0.25 0"/>
<feBlend mode="normal" in2="BackgroundImageFix" result="effect1_dropShadow"/>
<feBlend mode="normal" in="SourceGraphic" in2="effect1_dropShadow" result="shape"/>
</filter>
<filter id="filter2_d" x="0" y="20.514" width="83.3197" height="83.3144" filterUnits="userSpaceOnUse" color-interpolation-filters="sRGB">
<feFlood flood-opacity="0" result="BackgroundImageFix"/>
<feColorMatrix in="SourceAlpha" type="matrix" values="0 0 0 0 0 0 0 0 0 0 0 0 0 0 0 0 0 0 127 0" result="hardAlpha"/>
<feOffset dx="2" dy="2"/>
<feGaussianBlur stdDeviation="2"/>
<feColorMatrix type="matrix" values="0 0 0 0 0.0846528 0 0 0 0 0.150363 0 0 0 0 0.383333 0 0 0 0.25 0"/>
<feBlend mode="normal" in2="BackgroundImageFix" result="effect1_dropShadow"/>
<feBlend mode="normal" in="SourceGraphic" in2="effect1_dropShadow" result="shape"/>
</filter>
<filter id="filter3_d" x="375" y="53.5117" width="93" height="92.9941" filterUnits="userSpaceOnUse" color-interpolation-filters="sRGB">
<feFlood flood-opacity="0" result="BackgroundImageFix"/>
<feColorMatrix in="SourceAlpha" type="matrix" values="0 0 0 0 0 0 0 0 0 0 0 0 0 0 0 0 0 0 127 0" result="hardAlpha"/>
<feOffset dx="2" dy="2"/>
<feGaussianBlur stdDeviation="2"/>
<feColorMatrix type="matrix" values="0 0 0 0 0.0846528 0 0 0 0 0.150363 0 0 0 0 0.383333 0 0 0 0.25 0"/>
<feBlend mode="normal" in2="BackgroundImageFix" result="effect1_dropShadow"/>
<feBlend mode="normal" in="SourceGraphic" in2="effect1_dropShadow" result="shape"/>
</filter>
<filter id="filter4_d" x="53" y="165.504" width="61" height="60.9963" filterUnits="userSpaceOnUse" color-interpolation-filters="sRGB">
<feFlood flood-opacity="0" result="BackgroundImageFix"/>
<feColorMatrix in="SourceAlpha" type="matrix" values="0 0 0 0 0 0 0 0 0 0 0 0 0 0 0 0 0 0 127 0" result="hardAlpha"/>
<feOffset dx="2" dy="2"/>
<feGaussianBlur stdDeviation="2"/>
<feColorMatrix type="matrix" values="0 0 0 0 0.0846528 0 0 0 0 0.150363 0 0 0 0 0.383333 0 0 0 0.25 0"/>
<feBlend mode="normal" in2="BackgroundImageFix" result="effect1_dropShadow"/>
<feBlend mode="normal" in="SourceGraphic" in2="effect1_dropShadow" result="shape"/>
</filter>
<linearGradient id="paint0_linear" x1="374.5" y1="2.51538" x2="374.5" y2="43.5125" gradientUnits="userSpaceOnUse">
<stop stop-color="#B0E7C6"/>
<stop offset="1" stop-color="#5DD1B3"/>
</linearGradient>
<linearGradient id="paint1_linear" x1="149.237" y1="61.5113" x2="149.237" y2="93.3899" gradientUnits="userSpaceOnUse">
<stop stop-color="#85BEFF"/>
<stop offset="1" stop-color="#5183BB"/>
</linearGradient>
<linearGradient id="paint2_linear" x1="209.237" y1="61.5113" x2="209.237" y2="93.3899" gradientUnits="userSpaceOnUse">
<stop stop-color="#B0E7C6"/>
<stop offset="1" stop-color="#5DD1B3"/>
</linearGradient>
<linearGradient id="paint3_linear" x1="269.237" y1="61.5113" x2="269.237" y2="93.3899" gradientUnits="userSpaceOnUse">
<stop stop-color="#85BEFF"/>
<stop offset="1" stop-color="#5183BB"/>
</linearGradient>
<linearGradient id="paint4_linear" x1="329.237" y1="61.5113" x2="329.237" y2="93.3899" gradientUnits="userSpaceOnUse">
<stop stop-color="#85BEFF"/>
<stop offset="1" stop-color="#5183BB"/>
</linearGradient>
<linearGradient id="paint5_linear" x1="149.237" y1="121.507" x2="149.237" y2="153.385" gradientUnits="userSpaceOnUse">
<stop stop-color="#B0E7C6"/>
<stop offset="1" stop-color="#5DD1B3"/>
</linearGradient>
<linearGradient id="paint6_linear" x1="209.237" y1="121.507" x2="209.237" y2="153.385" gradientUnits="userSpaceOnUse">
<stop stop-color="#85BEFF"/>
<stop offset="1" stop-color="#5183BB"/>
</linearGradient>
<linearGradient id="paint7_linear" x1="269.237" y1="129.296" x2="269.237" y2="153.385" gradientUnits="userSpaceOnUse">
<stop stop-color="#FFED49"/>
<stop offset="1" stop-color="#FFC369"/>
</linearGradient>
<linearGradient id="paint8_linear" x1="329.237" y1="121.507" x2="329.237" y2="153.385" gradientUnits="userSpaceOnUse">
<stop stop-color="#B0E7C6"/>
<stop offset="1" stop-color="#5DD1B3"/>
</linearGradient>
<linearGradient id="paint9_linear" x1="84.9787" y1="67.1921" x2="84.9787" y2="142.507" gradientUnits="userSpaceOnUse">
<stop stop-color="#B0E7C6"/>
<stop offset="1" stop-color="#5DD1B3"/>
</linearGradient>
<linearGradient id="paint10_linear" x1="39.6598" y1="22.514" x2="39.6598" y2="97.8284" gradientUnits="userSpaceOnUse">
<stop stop-color="#BBDBFE"/>
<stop offset="1" stop-color="#84B9F2"/>
</linearGradient>
<linearGradient id="paint11_linear" x1="419.5" y1="55.5117" x2="419.5" y2="140.506" gradientUnits="userSpaceOnUse">
<stop stop-color="#BADBFF"/>
<stop offset="1" stop-color="#89BCF4"/>
</linearGradient>
<linearGradient id="paint12_linear" x1="81.5" y1="167.504" x2="81.5" y2="220.5" gradientUnits="userSpaceOnUse">
<stop stop-color="#85BEFF"/>
<stop offset="1" stop-color="#5183BB"/>
</linearGradient>
<linearGradient id="paint13_linear" x1="394.604" y1="158.607" x2="394.604" y2="220.177" gradientUnits="userSpaceOnUse">
<stop stop-color="#B0E7C6"/>
<stop offset="1" stop-color="#5DD1B3"/>
</linearGradient>
</defs>
</svg>
