<svg fill="none" height="314" viewBox="0 0 365 314" width="365" xmlns="http://www.w3.org/2000/svg" xmlns:xlink="http://www.w3.org/1999/xlink"><filter id="a" color-interpolation-filters="sRGB" filterUnits="userSpaceOnUse" height="287" width="287" x="0" y="27"><feFlood flood-opacity="0" result="BackgroundImageFix"/><feColorMatrix in="SourceAlpha" type="matrix" values="0 0 0 0 0 0 0 0 0 0 0 0 0 0 0 0 0 0 127 0"/><feOffset dy="15"/><feGaussianBlur stdDeviation="22.5"/><feColorMatrix type="matrix" values="0 0 0 0 0.719566 0 0 0 0 0.748166 0 0 0 0 0.795833 0 0 0 0.25 0"/><feBlend in2="BackgroundImageFix" mode="normal" result="effect1_dropShadow"/><feBlend in="SourceGraphic" in2="effect1_dropShadow" mode="normal" result="shape"/></filter><filter id="b" color-interpolation-filters="sRGB" filterUnits="userSpaceOnUse" height="195" width="195" x="170" y="0"><feFlood flood-opacity="0" result="BackgroundImageFix"/><feColorMatrix in="SourceAlpha" type="matrix" values="0 0 0 0 0 0 0 0 0 0 0 0 0 0 0 0 0 0 127 0"/><feOffset dx="9" dy="20"/><feGaussianBlur stdDeviation="20"/><feColorMatrix type="matrix" values="0 0 0 0 0 0 0 0 0 0.351917 0 0 0 0 0.429167 0 0 0 0.25 0"/><feBlend in2="BackgroundImageFix" mode="normal" result="effect1_dropShadow"/><feBlend in="SourceGraphic" in2="effect1_dropShadow" mode="normal" result="shape"/></filter><g filter="url(#a)"><rect fill="#fff" height="197" rx="30" width="197" x="45" y="57"/></g><g filter="url(#b)"><rect fill="#00a0b6" height="115" rx="22" width="115" x="201" y="20"/></g><rect fill="#ffc634" height="49" rx="11" width="49" x="218" y="171"/><path d="m173.307 178.957c13.698-13.698 13.697-35.986 0-49.684-13.698-13.697-35.985-13.697-49.683 0-11.621 11.621-13.38 28.904-5.284 42.4 0 0 .581.976-.204 1.761-4.481 4.48-17.924 17.923-17.924 17.923-3.5678 3.568-4.4171 8.556-1.2534 11.72l.5447.545c3.1637 3.164 8.1527 2.315 11.7197-1.253 0 0 13.415-13.415 17.886-17.886.823-.823 1.799-.242 1.799-.242 13.496 8.096 30.778 6.337 42.399-5.284zm-43.197-6.486c-10.121-10.121-10.121-26.59 0-36.711 10.122-10.121 26.59-10.121 36.711 0s10.121 26.59 0 36.711c-10.122 10.12-26.589 10.12-36.711 0z" fill="#d5eaf1"/><path d="m132.352 152.031c-.471 0-.95-.093-1.412-.288-1.844-.78-2.706-2.908-1.926-4.752 4.905-11.591 18.326-17.031 29.917-12.126 1.844.781 2.706 2.908 1.926 4.752-.781 1.845-2.908 2.707-4.752 1.927-7.909-3.347-17.066.365-20.412 8.273-.586 1.383-1.928 2.214-3.341 2.214z" fill="#d5eaf1"/><path d="m245.944 186.56c-3.414-3.414-8.969-3.414-12.383 0-3.415 3.415-3.415 8.97 0 12.384 2.896 2.896 7.204 3.335 10.568 1.317 0 0 .243-.145.439.051 1.116 1.117 4.467 4.468 4.467 4.468.889.889 2.133 1.1 2.921.312l.136-.136c.789-.788.577-2.032-.312-2.921 0 0-3.344-3.344-4.458-4.458-.205-.205-.061-.448-.061-.448 2.018-3.364 1.58-7.672-1.317-10.569zm-1.616 10.767c-2.523 2.523-6.628 2.523-9.151 0-2.522-2.522-2.522-6.627 0-9.15 2.523-2.523 6.628-2.523 9.151 0 2.522 2.523 2.522 6.628 0 9.15z" fill="#fff"/><path clip-rule="evenodd" d="m281 69.085c-.029-.2526-.084-.5015-.165-.7425v-.2475c-.132-.2828-.309-.5427-.523-.77l-16.499-16.5c-.228-.2139-.488-.3903-.77-.5225-.083-.0117-.166-.0117-.248 0-.279-.1602-.588-.2631-.907-.3025h-16.638c-4.556 0-8.25 3.6936-8.25 8.25v38.5c0 4.556 3.694 8.25 8.25 8.25h27.5c4.556 0 8.25-3.694 8.25-8.25v-27.5zm-27.5 2.915h-2.75c-1.519 0-2.75-1.2312-2.75-2.75s1.231-2.75 2.75-2.75h2.75c1.519 0 2.75 1.2312 2.75 2.75s-1.231 2.75-2.75 2.75zm-5.5 8.25c0-1.5188 1.231-2.75 2.75-2.75h16.5c1.519 0 2.75 1.2312 2.75 2.75s-1.231 2.75-2.75 2.75h-16.5c-1.519 0-2.75-1.2312-2.75-2.75zm23.623-13.7505-7.123-7.1225v4.3725c0 1.5187 1.231 2.75 2.75 2.75zm3.877 30.2505c0 1.5188-1.231 2.75-2.75 2.75h-27.5c-1.519 0-2.75-1.2312-2.75-2.75v-38.5c0-1.5188 1.231-2.75 2.75-2.75h13.75v8.25c0 4.5564 3.694 8.25 8.25 8.25h8.25zm-24.75-8.25h16.5c1.519 0 2.75 1.2312 2.75 2.75s-1.231 2.75-2.75 2.75h-16.5c-1.519 0-2.75-1.2312-2.75-2.75s1.231-2.75 2.75-2.75z" fill="#fff" fill-rule="evenodd"/><g fill="#9cd7eb"><rect height="20" rx="10" transform="matrix(-1 0 0 -1 370 134)" width="57" x="185" y="67"/><rect height="20" rx="10" transform="matrix(-1 0 0 -1 618 382)" width="28" x="309" y="191"/><rect height="20" rx="10" transform="matrix(-1 0 0 -1 118 480)" width="28" x="59" y="240"/></g></svg>