<svg width="314" height="297" viewBox="0 0 314 297" fill="none" xmlns="http://www.w3.org/2000/svg">
<g filter="url(#filter0_d)">
<rect x="72" y="30" width="197" height="197" rx="30" fill="white"/>
</g>
<g filter="url(#filter1_d)">
<rect x="31" y="144" width="93" height="93" rx="22" fill="#00A0B6"/>
</g>
<rect x="245" y="144" width="49" height="49" rx="11" fill="#FFC634"/>
<rect x="165" y="40" width="57" height="20" rx="10" transform="rotate(-180 165 40)" fill="#9CD7EB"/>
<rect x="233" y="237" width="28" height="20" rx="10" transform="rotate(-180 233 237)" fill="#9CD7EB"/>
<path d="M77.5 213C71.49 213 65.8397 210.66 61.59 206.41C57.3404 202.16 55 196.51 55 190.5C55 184.49 57.3404 178.84 61.59 174.59C65.8396 170.34 71.49 168 77.5 168C83.51 168 89.1603 170.34 93.41 174.59C97.6596 178.84 100 184.49 100 190.5C100 196.51 97.6596 202.16 93.41 206.41C89.1604 210.66 83.51 213 77.5 213ZM77.5 170.812C66.6443 170.812 57.8125 179.644 57.8125 190.5C57.8125 201.356 66.6443 210.188 77.5 210.188C88.3557 210.188 97.1875 201.356 97.1875 190.5C97.1875 179.644 88.3557 170.812 77.5 170.812Z" fill="white"/>
<path d="M77.5 189.094C75.5615 189.094 73.9844 187.517 73.9844 185.578C73.9844 183.64 75.5615 182.062 77.5 182.062C79.4385 182.062 81.0156 183.64 81.0156 185.578C81.0156 186.355 81.6452 186.984 82.4219 186.984C83.1986 186.984 83.8281 186.355 83.8281 185.578C83.8281 182.572 81.7207 180.051 78.9062 179.409V177.844C78.9062 177.067 78.2767 176.438 77.5 176.438C76.7233 176.438 76.0938 177.067 76.0938 177.844V179.409C73.2793 180.051 71.1719 182.572 71.1719 185.578C71.1719 189.067 74.0107 191.906 77.5 191.906C79.4385 191.906 81.0156 193.483 81.0156 195.422C81.0156 197.36 79.4385 198.938 77.5 198.938C75.5615 198.938 73.9844 197.36 73.9844 195.422C73.9844 194.645 73.3548 194.016 72.5781 194.016C71.8014 194.016 71.1719 194.645 71.1719 195.422C71.1719 198.428 73.2793 200.949 76.0938 201.591V203.156C76.0938 203.933 76.7233 204.562 77.5 204.562C78.2767 204.562 78.9062 203.933 78.9062 203.156V201.591C81.7207 200.949 83.8281 198.428 83.8281 195.422C83.8281 191.933 80.9893 189.094 77.5 189.094Z" fill="white"/>
<path d="M269.5 180C266.428 180 263.54 178.804 261.368 176.632C259.196 174.46 258 171.572 258 168.5C258 165.428 259.196 162.54 261.368 160.368C263.54 158.196 266.428 157 269.5 157C272.572 157 275.46 158.196 277.632 160.368C279.804 162.54 281 165.428 281 168.5C281 171.572 279.804 174.46 277.632 176.632C275.46 178.804 272.572 180 269.5 180ZM269.5 158.438C263.952 158.438 259.438 162.952 259.438 168.5C259.438 174.048 263.952 178.562 269.5 178.562C275.048 178.562 279.562 174.048 279.562 168.5C279.562 162.952 275.048 158.438 269.5 158.438Z" fill="white"/>
<path d="M269.5 167.781C268.509 167.781 267.703 166.975 267.703 165.984C267.703 164.994 268.509 164.188 269.5 164.188C270.491 164.188 271.297 164.994 271.297 165.984C271.297 166.381 271.619 166.703 272.016 166.703C272.413 166.703 272.734 166.381 272.734 165.984C272.734 164.448 271.657 163.159 270.219 162.831V162.031C270.219 161.634 269.897 161.312 269.5 161.312C269.103 161.312 268.781 161.634 268.781 162.031V162.831C267.343 163.159 266.266 164.448 266.266 165.984C266.266 167.768 267.717 169.219 269.5 169.219C270.491 169.219 271.297 170.025 271.297 171.016C271.297 172.006 270.491 172.812 269.5 172.812C268.509 172.812 267.703 172.006 267.703 171.016C267.703 170.619 267.381 170.297 266.984 170.297C266.587 170.297 266.266 170.619 266.266 171.016C266.266 172.552 267.343 173.841 268.781 174.169V174.969C268.781 175.366 269.103 175.688 269.5 175.688C269.897 175.688 270.219 175.366 270.219 174.969V174.169C271.657 173.841 272.734 172.552 272.734 171.016C272.734 169.232 271.283 167.781 269.5 167.781Z" fill="white"/>
<g clip-path="url(#clip0)">
<path d="M205.177 158.739H145.823C140.956 158.739 137 154.784 137 149.917V96.9794C137 92.1122 140.956 88.1562 145.823 88.1562H205.177C210.044 88.1562 214 92.1122 214 96.9794V149.917C214 154.784 210.044 158.739 205.177 158.739ZM145.823 92.9688C143.612 92.9688 141.812 94.7687 141.812 96.9794V149.917C141.812 152.127 143.612 153.927 145.823 153.927H205.177C207.388 153.927 209.188 152.127 209.188 149.917V96.9794C209.188 94.7687 207.388 92.9688 205.177 92.9688H145.823Z" fill="#D5EAF1"/>
<path d="M211.594 112.219H139.406C138.078 112.219 137 111.141 137 109.812C137 108.484 138.078 107.406 139.406 107.406H211.594C212.922 107.406 214 108.484 214 109.812C214 111.141 212.922 112.219 211.594 112.219Z" fill="#D5EAF1"/>
<path d="M211.594 128.262H139.406C138.078 128.262 137 127.184 137 125.855C137 124.527 138.078 123.449 139.406 123.449H211.594C212.922 123.449 214 124.527 214 125.855C214 127.184 212.922 128.262 211.594 128.262Z" fill="#D5EAF1"/>
<path d="M211.594 144.305H139.406C138.078 144.305 137 143.227 137 141.898C137 140.57 138.078 139.492 139.406 139.492H211.594C212.922 139.492 214 140.57 214 141.898C214 143.227 212.922 144.305 211.594 144.305Z" fill="#D5EAF1"/>
<path d="M157.051 158.739C155.723 158.739 154.645 157.661 154.645 156.333V109.812C154.645 108.484 155.723 107.406 157.051 107.406C158.379 107.406 159.457 108.484 159.457 109.812V156.333C159.457 157.661 158.379 158.739 157.051 158.739Z" fill="#D5EAF1"/>
<path d="M175.5 158.739C174.172 158.739 173.094 157.661 173.094 156.333V109.812C173.094 108.484 174.172 107.406 175.5 107.406C176.828 107.406 177.906 108.484 177.906 109.812V156.333C177.906 157.661 176.828 158.739 175.5 158.739Z" fill="#D5EAF1"/>
<path d="M193.949 158.739C192.621 158.739 191.543 157.661 191.543 156.333V109.812C191.543 108.484 192.621 107.406 193.949 107.406C195.277 107.406 196.355 108.484 196.355 109.812V156.333C196.355 157.661 195.277 158.739 193.949 158.739Z" fill="#D5EAF1"/>
</g>
<defs>
<filter id="filter0_d" x="27" y="0" width="287" height="287" filterUnits="userSpaceOnUse" color-interpolation-filters="sRGB">
<feFlood flood-opacity="0" result="BackgroundImageFix"/>
<feColorMatrix in="SourceAlpha" type="matrix" values="0 0 0 0 0 0 0 0 0 0 0 0 0 0 0 0 0 0 127 0" result="hardAlpha"/>
<feOffset dy="15"/>
<feGaussianBlur stdDeviation="22.5"/>
<feColorMatrix type="matrix" values="0 0 0 0 0.719566 0 0 0 0 0.748166 0 0 0 0 0.795833 0 0 0 0.25 0"/>
<feBlend mode="normal" in2="BackgroundImageFix" result="effect1_dropShadow"/>
<feBlend mode="normal" in="SourceGraphic" in2="effect1_dropShadow" result="shape"/>
</filter>
<filter id="filter1_d" x="0" y="124" width="173" height="173" filterUnits="userSpaceOnUse" color-interpolation-filters="sRGB">
<feFlood flood-opacity="0" result="BackgroundImageFix"/>
<feColorMatrix in="SourceAlpha" type="matrix" values="0 0 0 0 0 0 0 0 0 0 0 0 0 0 0 0 0 0 127 0" result="hardAlpha"/>
<feOffset dx="9" dy="20"/>
<feGaussianBlur stdDeviation="20"/>
<feColorMatrix type="matrix" values="0 0 0 0 0 0 0 0 0 0.351917 0 0 0 0 0.429167 0 0 0 0.25 0"/>
<feBlend mode="normal" in2="BackgroundImageFix" result="effect1_dropShadow"/>
<feBlend mode="normal" in="SourceGraphic" in2="effect1_dropShadow" result="shape"/>
</filter>
<clipPath id="clip0">
<rect width="77" height="77" fill="white" transform="translate(137 85)"/>
</clipPath>
</defs>
</svg>
