<svg width="23" height="23" viewBox="0 0 23 23" fill="none" xmlns="http://www.w3.org/2000/svg">
<path fill-rule="evenodd" clip-rule="evenodd" d="M19.126 8.62895H19.5391C20.896 8.62895 22 9.73292 22 11.0899V11.9102C22 13.2672 20.896 14.3711 19.5391 14.3711H19.1259C19.0173 14.3711 18.9187 14.4396 18.875 14.5455L18.8688 14.5605C18.8246 14.6669 18.8457 14.7854 18.9226 14.8622L19.2147 15.1543C19.6795 15.6191 19.9355 16.2371 19.9355 16.8945C19.9355 17.5518 19.6795 18.1698 19.2147 18.6346L18.6347 19.2146C18.1698 19.6795 17.5519 19.9354 16.8945 19.9354C16.2371 19.9354 15.6191 19.6795 15.1543 19.2146L14.8622 18.9225C14.7854 18.8457 14.6669 18.8246 14.5606 18.8687L14.5445 18.8754C14.4395 18.9187 14.3711 19.0172 14.3711 19.1259V19.5391C14.3711 20.896 13.2671 22 11.9102 22H11.0898C9.73288 22 8.62891 20.896 8.62891 19.5391V19.1259C8.62891 19.0172 8.56049 18.9187 8.45455 18.875L8.43909 18.8686C8.33314 18.8246 8.21457 18.8457 8.13774 18.9226L7.84567 19.2146C7.38088 19.6795 6.7629 19.9354 6.1055 19.9354C5.44819 19.9354 4.83016 19.6795 4.36533 19.2146L3.78529 18.6346C3.3205 18.1698 3.06452 17.5518 3.06452 16.8945C3.06452 16.2371 3.3205 15.6191 3.78533 15.1543L4.0774 14.8622C4.15427 14.7853 4.17539 14.6669 4.13121 14.5605L4.12391 14.5428C4.08122 14.4395 3.98274 14.3711 3.87405 14.3711H3.46094C2.10398 14.3711 1 13.2671 1 11.9101V11.0898C1 9.73284 2.10398 8.62886 3.46094 8.62886H3.87409C3.98274 8.62886 4.0813 8.56041 4.12502 8.45447L4.12998 8.44249C4.17539 8.33306 4.15431 8.21465 4.07744 8.13774L3.78537 7.84567C2.82581 6.88611 2.82581 5.32489 3.78533 4.36533L4.36537 3.78537C4.8302 3.32054 5.44819 3.06456 6.10554 3.06456C6.7629 3.06456 7.38092 3.32054 7.84571 3.78537L8.13783 4.07748C8.21465 4.15435 8.33318 4.17547 8.43946 4.13126L8.45549 4.12461C8.56053 4.08126 8.62895 3.98278 8.62895 3.87413V3.46094C8.62895 2.10398 9.73292 1 11.0899 1H11.9102C13.2672 1 14.3711 2.10398 14.3711 3.46094V3.87413C14.3711 3.98278 14.4395 4.08126 14.5455 4.12502L14.561 4.13142C14.6669 4.17543 14.7854 4.15435 14.8623 4.07744L15.1544 3.78537C15.6192 3.32054 16.2371 3.06456 16.8945 3.06456C17.5519 3.06456 18.1699 3.32054 18.6347 3.78537L19.2148 4.36541C20.1743 5.32493 20.1743 6.88619 19.2148 7.84571L18.9226 8.13783C18.8458 8.21469 18.8247 8.3331 18.8688 8.4395L18.8761 8.45721C18.9188 8.56049 19.0173 8.62895 19.126 8.62895ZM19.5391 12.7305C19.9914 12.7305 20.3594 12.3625 20.3594 11.9102V11.0898C20.3594 10.6375 19.9914 10.2695 19.5391 10.2695H19.1259C18.3506 10.2695 17.6569 9.80294 17.3586 9.08078L17.3524 9.0658C17.0538 8.34676 17.2142 7.526 17.7624 6.9777L18.0546 6.68554C18.3744 6.36571 18.3744 5.8453 18.0545 5.52546L17.4745 4.94542C17.3196 4.7905 17.1136 4.70515 16.8945 4.70515C16.6753 4.70515 16.4694 4.79046 16.3144 4.94537L16.0223 5.23753C15.474 5.78574 14.6531 5.94616 13.9312 5.64633L13.9201 5.64174C13.1971 5.34323 12.7305 4.64953 12.7305 3.87413V3.46094C12.7305 3.00862 12.3625 2.64062 11.9102 2.64062H11.0898C10.6375 2.64062 10.2695 3.00862 10.2695 3.46094V3.87413C10.2695 4.64953 9.8029 5.34323 9.08073 5.64141L9.06917 5.64621C8.34692 5.94628 7.52608 5.78583 6.97774 5.23761L6.68559 4.94546C6.53067 4.7905 6.32469 4.70519 6.10554 4.70519C5.88644 4.70519 5.68046 4.79054 5.52546 4.94546L4.94546 5.5255C4.62558 5.84534 4.62558 6.36575 4.94546 6.68563L5.23753 6.9777C5.78579 7.526 5.94624 8.3468 5.64633 9.06884L5.64252 9.07815C5.34319 9.80294 4.64949 10.2695 3.87409 10.2695H3.46094C3.00862 10.2695 2.64062 10.6375 2.64062 11.0898V11.9102C2.64062 12.3625 3.00862 12.7305 3.46094 12.7305H3.87409C4.64945 12.7305 5.34314 13.1971 5.64141 13.9192L5.64674 13.9321C5.94612 14.6539 5.78558 15.4743 5.23757 16.0223L4.94546 16.3144C4.7905 16.4693 4.70519 16.6754 4.70519 16.8945C4.70519 17.1136 4.7905 17.3195 4.94546 17.4745L5.5255 18.0545C5.68042 18.2095 5.88644 18.2948 6.10554 18.2948C6.32469 18.2948 6.53063 18.2095 6.68559 18.0546L6.9777 17.7624C7.34253 17.3976 7.82816 17.2045 8.3249 17.2045C8.57468 17.2045 8.82722 17.2533 9.0688 17.3536L9.07987 17.3582C9.8029 17.6568 10.2695 18.3505 10.2695 19.1259V19.5391C10.2695 19.9914 10.6375 20.3594 11.0898 20.3594H11.9102C12.3625 20.3594 12.7305 19.9914 12.7305 19.5391V19.1259C12.7305 18.3505 13.1971 17.6568 13.9193 17.3586L13.9308 17.3538C14.6531 17.0538 15.474 17.2142 16.0223 17.7624L16.3144 18.0545C16.4693 18.2095 16.6753 18.2948 16.8945 18.2948C17.1136 18.2948 17.3195 18.2095 17.4745 18.0545L18.0545 17.4745C18.2095 17.3195 18.2948 17.1136 18.2948 16.8945C18.2948 16.6754 18.2095 16.4693 18.0546 16.3144L17.7624 16.0223C17.2145 15.4743 17.0539 14.6539 17.3533 13.9321L17.3586 13.9192C17.6568 13.1971 18.3505 12.7305 19.1259 12.7305H19.5391ZM7.63037 11.5003C7.63037 9.36722 9.36572 7.63184 11.4988 7.63184C13.6319 7.63184 15.3672 9.36722 15.3672 11.5003C15.3672 11.8699 15.315 12.2359 15.2121 12.5879C15.1086 12.9414 14.7383 13.1442 14.3847 13.0408C14.0311 12.9374 13.8283 12.567 13.9317 12.2134C13.9991 11.9831 14.0333 11.7431 14.0333 11.5003C14.0333 10.1027 12.8963 8.96577 11.4988 8.96577C10.1013 8.96577 8.96431 10.1027 8.96431 11.5003C8.96431 12.8978 10.1013 14.0347 11.4988 14.0347C11.7605 14.0347 12.0181 13.9952 12.2646 13.9172C12.6158 13.806 12.9907 14.0006 13.1018 14.3518C13.2129 14.703 13.0184 15.0778 12.6672 15.1889C12.2903 15.3082 11.8972 15.3687 11.4988 15.3687C9.36572 15.3687 7.63037 13.6333 7.63037 11.5003Z" fill="#FF647C"/>
<path d="M18.875 14.5455L18.6439 14.4501L18.6439 14.4502L18.875 14.5455ZM18.8688 14.5605L19.0997 14.6564L19.0999 14.6559L18.8688 14.5605ZM18.9226 14.8622L19.0994 14.6854L19.0993 14.6854L18.9226 14.8622ZM19.2147 15.1543L19.3915 14.9776L19.2147 15.1543ZM19.2147 18.6346L19.3915 18.8114L19.2147 18.6346ZM18.6347 19.2146L18.4579 19.0379L18.6347 19.2146ZM15.1543 19.2146L15.3311 19.0379L15.3311 19.0379L15.1543 19.2146ZM14.8622 18.9225L14.6854 19.0993H14.6854L14.8622 18.9225ZM14.5606 18.8687L14.6563 19.0997L14.6564 19.0997L14.5606 18.8687ZM14.5445 18.8754L14.6399 19.1065L14.6403 19.1063L14.5445 18.8754ZM8.45455 18.875L8.35895 19.106L8.3591 19.106L8.45455 18.875ZM8.43909 18.8686L8.34318 19.0995L8.34349 19.0996L8.43909 18.8686ZM8.13774 18.9226L8.31452 19.0993L8.31461 19.0992L8.13774 18.9226ZM7.84567 19.2146L7.6689 19.0379L7.66889 19.0379L7.84567 19.2146ZM4.36533 19.2146L4.54211 19.0379H4.54211L4.36533 19.2146ZM3.78529 18.6346L3.6085 18.8114L3.60851 18.8114L3.78529 18.6346ZM3.78533 15.1543L3.96211 15.3311L3.96212 15.3311L3.78533 15.1543ZM4.0774 14.8622L3.90063 14.6854L3.90061 14.6854L4.0774 14.8622ZM4.13121 14.5605L3.90007 14.6557L3.90032 14.6564L4.13121 14.5605ZM4.12391 14.5428L4.35506 14.4475L4.35495 14.4473L4.12391 14.5428ZM4.12502 8.45447L3.89406 8.35876L3.89393 8.35909L4.12502 8.45447ZM4.12998 8.44249L3.89907 8.34668L3.89903 8.34679L4.12998 8.44249ZM4.07744 8.13774L4.25427 7.96101L4.25422 7.96097L4.07744 8.13774ZM3.78537 7.84567L3.60859 8.02245L3.78537 7.84567ZM3.78533 4.36533L3.60857 4.18854L3.60855 4.18856L3.78533 4.36533ZM4.36537 3.78537L4.54214 3.96216L4.54215 3.96215L4.36537 3.78537ZM7.84571 3.78537L7.66893 3.96214L7.66894 3.96215L7.84571 3.78537ZM8.13783 4.07748L8.31465 3.90075L8.3146 3.90071L8.13783 4.07748ZM8.43946 4.13126L8.34376 3.90029L8.34342 3.90044L8.43946 4.13126ZM8.45549 4.12461L8.36011 3.89352L8.3598 3.89365L8.45549 4.12461ZM14.5455 4.12502L14.6411 3.89402L14.6409 3.89396L14.5455 4.12502ZM14.561 4.13142L14.6569 3.90056L14.6565 3.90042L14.561 4.13142ZM14.8623 4.07744L15.0391 4.25422V4.25422L14.8623 4.07744ZM15.1544 3.78537L15.3311 3.96215L15.3312 3.96214L15.1544 3.78537ZM18.6347 3.78537L18.4579 3.96215V3.96215L18.6347 3.78537ZM19.2148 4.36541L19.3915 4.18864V4.18864L19.2148 4.36541ZM19.2148 7.84571L19.3915 8.0225L19.3915 8.02249L19.2148 7.84571ZM18.9226 8.13783L18.7458 7.96104L18.7458 7.9611L18.9226 8.13783ZM18.8688 8.4395L19.1 8.34425L19.0997 8.34363L18.8688 8.4395ZM18.8761 8.45721L18.645 8.55246L18.6451 8.55265L18.8761 8.45721ZM17.3586 9.08078L17.1274 9.17584L17.1275 9.17621L17.3586 9.08078ZM17.3524 9.0658L17.5837 8.97074L17.5833 8.9699L17.3524 9.0658ZM17.7624 6.9777L17.5857 6.80092L17.5856 6.80094L17.7624 6.9777ZM18.0546 6.68554L18.2314 6.86232V6.86232L18.0546 6.68554ZM18.0545 5.52546L17.8778 5.70224L17.8778 5.70225L18.0545 5.52546ZM17.4745 4.94542L17.6513 4.76864V4.76864L17.4745 4.94542ZM16.3144 4.94537L16.1377 4.76857L16.1376 4.76861L16.3144 4.94537ZM16.0223 5.23753L16.1991 5.41433L16.1991 5.41429L16.0223 5.23753ZM13.9312 5.64633L14.0271 5.41545L14.027 5.41541L13.9312 5.64633ZM13.9201 5.64174L14.0159 5.41082L14.0155 5.41066L13.9201 5.64174ZM9.08073 5.64141L8.98532 5.41033L8.98493 5.41049L9.08073 5.64141ZM9.06917 5.64621L8.97337 5.41529L8.97325 5.41534L9.06917 5.64621ZM6.97774 5.23761L6.80096 5.41439L6.80098 5.41441L6.97774 5.23761ZM6.68559 4.94546L6.50879 5.12221L6.50881 5.12223L6.68559 4.94546ZM5.52546 4.94546L5.34873 4.76863L5.34868 4.76869L5.52546 4.94546ZM4.94546 5.5255L5.12222 5.70229L5.12224 5.70227L4.94546 5.5255ZM4.94546 6.68563L4.76868 6.8624V6.8624L4.94546 6.68563ZM5.23753 6.9777L5.41431 6.80093L5.41431 6.80092L5.23753 6.9777ZM5.64633 9.06884L5.41545 8.97294L5.41499 8.97407L5.64633 9.06884ZM5.64252 9.07815L5.87359 9.17358L5.87386 9.17292L5.64252 9.07815ZM5.64141 13.9192L5.41034 14.0147L5.41043 14.0149L5.64141 13.9192ZM5.64674 13.9321L5.41576 14.0277L5.41582 14.0279L5.64674 13.9321ZM4.94546 16.3144L5.12221 16.4912L5.12223 16.4912L4.94546 16.3144ZM4.94546 17.4745L4.76868 17.6513L4.94546 17.4745ZM5.5255 18.0545L5.70228 17.8778H5.70228L5.5255 18.0545ZM6.68559 18.0546L6.86234 18.2314L6.86238 18.2313L6.68559 18.0546ZM6.9777 17.7624L6.80093 17.5856L6.80091 17.5857L6.9777 17.7624ZM9.0688 17.3536L8.97288 17.5845L8.97302 17.5846L9.0688 17.3536ZM9.07987 17.3582L8.9841 17.5891L8.98446 17.5893L9.07987 17.3582ZM13.9193 17.3586L14.0147 17.5897L14.0151 17.5895L13.9193 17.3586ZM13.9308 17.3538L14.0266 17.5847L14.0267 17.5847L13.9308 17.3538ZM16.0223 17.7624L16.199 17.5856L16.199 17.5856L16.0223 17.7624ZM16.3144 18.0545L16.4912 17.8778L16.4912 17.8778L16.3144 18.0545ZM17.4745 18.0545L17.6513 18.2314L17.6513 18.2313L17.4745 18.0545ZM18.0545 17.4745L17.8778 17.2977L17.8778 17.2977L18.0545 17.4745ZM18.0546 16.3144L18.2314 16.1376L18.2313 16.1376L18.0546 16.3144ZM17.7624 16.0223L17.5856 16.1991L17.5857 16.1991L17.7624 16.0223ZM17.3533 13.9321L17.5842 14.0279L17.5842 14.0278L17.3533 13.9321ZM17.3586 13.9192L17.5896 14.0149L17.5897 14.0146L17.3586 13.9192ZM15.2121 12.5879L15.452 12.6581L15.452 12.6581L15.2121 12.5879ZM14.3847 13.0408L14.3145 13.2808L14.3145 13.2808L14.3847 13.0408ZM13.9317 12.2134L13.6918 12.1432L13.6918 12.1433L13.9317 12.2134ZM12.2646 13.9172L12.1892 13.6788H12.1892L12.2646 13.9172ZM13.1018 14.3518L12.8634 14.4272L12.8634 14.4272L13.1018 14.3518ZM12.6672 15.1889L12.5918 14.9506L12.5917 14.9506L12.6672 15.1889ZM19.5391 8.37895H19.126V8.87895H19.5391V8.37895ZM22.25 11.0899C22.25 9.59485 21.0341 8.37895 19.5391 8.37895V8.87895C20.758 8.87895 21.75 9.871 21.75 11.0899H22.25ZM22.25 11.9102V11.0899H21.75V11.9102H22.25ZM19.5391 14.6211C21.0341 14.6211 22.25 13.4052 22.25 11.9102H21.75C21.75 13.1291 20.758 14.1211 19.5391 14.1211V14.6211ZM19.1259 14.6211H19.5391V14.1211H19.1259V14.6211ZM19.106 14.641C19.1099 14.6318 19.115 14.6265 19.1188 14.6239C19.1224 14.6214 19.1248 14.6211 19.1259 14.6211V14.1211C18.909 14.1211 18.7236 14.2573 18.6439 14.4501L19.106 14.641ZM19.0999 14.6559L19.1061 14.6409L18.6439 14.4502L18.6377 14.4652L19.0999 14.6559ZM19.0993 14.6854C19.0987 14.6848 19.0972 14.6831 19.0964 14.6786C19.0956 14.6739 19.0956 14.6662 19.0997 14.6564L18.6379 14.4647C18.558 14.6572 18.5919 14.8851 18.7459 15.039L19.0993 14.6854ZM19.3915 14.9776L19.0994 14.6854L18.7458 15.039L19.0379 15.3311L19.3915 14.9776ZM20.1855 16.8945C20.1855 16.1708 19.9032 15.4892 19.3915 14.9776L19.0379 15.3311C19.4558 15.749 19.6855 16.3034 19.6855 16.8945H20.1855ZM19.3915 18.8114C19.9032 18.2997 20.1855 17.6181 20.1855 16.8945H19.6855C19.6855 17.4855 19.4558 18.0399 19.0379 18.4578L19.3915 18.8114ZM18.8114 19.3914L19.3915 18.8114L19.0379 18.4578L18.4579 19.0379L18.8114 19.3914ZM16.8945 20.1854C17.6182 20.1854 18.2997 19.9031 18.8114 19.3914L18.4579 19.0379C18.0399 19.4558 17.4855 19.6854 16.8945 19.6854V20.1854ZM14.9775 19.3914C15.4892 19.9031 16.1708 20.1854 16.8945 20.1854V19.6854C16.3034 19.6854 15.749 19.4558 15.3311 19.0379L14.9775 19.3914ZM14.6854 19.0993L14.9776 19.3914L15.3311 19.0379L15.039 18.7457L14.6854 19.0993ZM14.6564 19.0997C14.6661 19.0956 14.6739 19.0956 14.6786 19.0964C14.6832 19.0972 14.6849 19.0987 14.6854 19.0993L15.039 18.7457C14.8851 18.5919 14.6572 18.558 14.4648 18.6378L14.6564 19.0997ZM14.6403 19.1063L14.6563 19.0997L14.4649 18.6378L14.4488 18.6444L14.6403 19.1063ZM14.6211 19.1259C14.6211 19.125 14.6223 19.1138 14.6399 19.1065L14.4492 18.6443C14.2567 18.7237 14.1211 18.9095 14.1211 19.1259H14.6211ZM14.6211 19.5391V19.1259H14.1211V19.5391H14.6211ZM11.9102 22.25C13.4052 22.25 14.6211 21.0341 14.6211 19.5391H14.1211C14.1211 20.758 13.129 21.75 11.9102 21.75V22.25ZM11.0898 22.25H11.9102V21.75H11.0898V22.25ZM8.37891 19.5391C8.37891 21.0341 9.59481 22.25 11.0898 22.25V21.75C9.87095 21.75 8.87891 20.758 8.87891 19.5391H8.37891ZM8.37891 19.1259V19.5391H8.87891V19.1259H8.37891ZM8.3591 19.106C8.36834 19.1099 8.37356 19.115 8.37616 19.1188C8.37867 19.1224 8.37891 19.1247 8.37891 19.1259H8.87891C8.87891 18.909 8.74281 18.7236 8.54999 18.6439L8.3591 19.106ZM8.34349 19.0996L8.35895 19.106L8.55015 18.644L8.53468 18.6376L8.34349 19.0996ZM8.31461 19.0992C8.31514 19.0987 8.31688 19.0971 8.32148 19.0963C8.32624 19.0955 8.33385 19.0956 8.34318 19.0995L8.53499 18.6377C8.34277 18.5579 8.11463 18.592 7.96087 18.7459L8.31461 19.0992ZM8.02245 19.3914L8.31452 19.0993L7.96097 18.7458L7.6689 19.0379L8.02245 19.3914ZM6.1055 20.1854C6.8292 20.1854 7.51078 19.9031 8.02246 19.3914L7.66889 19.0379C7.25099 19.4558 6.6966 19.6854 6.1055 19.6854V20.1854ZM4.18856 19.3914C4.70027 19.9031 5.38188 20.1854 6.1055 20.1854V19.6854C5.51449 19.6854 4.96005 19.4558 4.54211 19.0379L4.18856 19.3914ZM3.60851 18.8114L4.18856 19.3914L4.54211 19.0379L3.96207 18.4578L3.60851 18.8114ZM2.81452 16.8945C2.81452 17.6181 3.09684 18.2996 3.6085 18.8114L3.96207 18.4578C3.54416 18.0399 3.31452 17.4855 3.31452 16.8945H2.81452ZM3.60855 14.9775C3.09684 15.4892 2.81452 16.1708 2.81452 16.8945H3.31452C3.31452 16.3034 3.54416 15.749 3.96211 15.3311L3.60855 14.9775ZM3.90061 14.6854L3.60854 14.9775L3.96212 15.3311L4.25419 15.0389L3.90061 14.6854ZM3.90032 14.6564C3.90437 14.6661 3.90442 14.6738 3.90358 14.6785C3.90278 14.683 3.90125 14.6848 3.90063 14.6854L4.25418 15.0389C4.40802 14.8851 4.44205 14.6572 4.36211 14.4646L3.90032 14.6564ZM3.89277 14.638L3.90007 14.6557L4.36236 14.4653L4.35506 14.4475L3.89277 14.638ZM3.87405 14.6211C3.87533 14.6211 3.878 14.6214 3.88181 14.624C3.88575 14.6267 3.89003 14.6314 3.89288 14.6383L4.35495 14.4473C4.2758 14.2558 4.08957 14.1211 3.87405 14.1211V14.6211ZM3.46094 14.6211H3.87405V14.1211H3.46094V14.6211ZM0.75 11.9101C0.75 13.4051 1.96591 14.6211 3.46094 14.6211V14.1211C2.24205 14.1211 1.25 13.129 1.25 11.9101H0.75ZM0.75 11.0898V11.9101H1.25V11.0898H0.75ZM3.46094 8.37886C1.96591 8.37886 0.75 9.59477 0.75 11.0898H1.25C1.25 9.87091 2.24205 8.87886 3.46094 8.87886V8.37886ZM3.87409 8.37886H3.46094V8.87886H3.87409V8.37886ZM3.89393 8.35909C3.89014 8.36826 3.88501 8.37348 3.88124 8.37609C3.87759 8.37863 3.87521 8.37886 3.87409 8.37886V8.87886C4.09093 8.87886 4.2765 8.74276 4.35612 8.54984L3.89393 8.35909ZM3.89903 8.34679L3.89406 8.35876L4.35598 8.55017L4.36094 8.53819L3.89903 8.34679ZM3.90062 8.31447C3.90115 8.315 3.90251 8.31644 3.90326 8.32077C3.90405 8.3253 3.90423 8.33424 3.89907 8.34668L4.3609 8.5383C4.44137 8.34436 4.40922 8.11605 4.25427 7.96101L3.90062 8.31447ZM3.60859 8.02245L3.90067 8.31452L4.25422 7.96097L3.96215 7.6689L3.60859 8.02245ZM3.60855 4.18856C2.5514 5.24575 2.5514 6.96526 3.60859 8.02245L3.96215 7.6689C3.10022 6.80697 3.10022 5.40403 3.96211 4.5421L3.60855 4.18856ZM4.18861 3.60858L3.60857 4.18854L3.96209 4.54212L4.54214 3.96216L4.18861 3.60858ZM6.10554 2.81456C5.38188 2.81456 4.70031 3.09688 4.1886 3.60859L4.54215 3.96215C4.9601 3.5442 5.51449 3.31456 6.10554 3.31456V2.81456ZM8.0225 3.6086C7.51082 3.09688 6.8292 2.81456 6.10554 2.81456V3.31456C6.6966 3.31456 7.25103 3.54421 7.66893 3.96214L8.0225 3.6086ZM8.3146 3.90071L8.02249 3.60859L7.66894 3.96215L7.96105 4.25426L8.3146 3.90071ZM8.34342 3.90044C8.33385 3.90442 8.32617 3.90449 8.32147 3.90365C8.31692 3.90284 8.3152 3.90131 8.31465 3.90075L7.961 4.25421C8.11482 4.40811 8.34296 4.44218 8.53549 4.36208L8.34342 3.90044ZM8.3598 3.89365L8.34377 3.90029L8.53514 4.36222L8.55118 4.35557L8.3598 3.89365ZM8.37895 3.87413C8.37895 3.87505 8.37774 3.88625 8.36011 3.89352L8.55087 4.3557C8.74333 4.27627 8.87895 4.09051 8.87895 3.87413H8.37895ZM8.37895 3.46094V3.87413H8.87895V3.46094H8.37895ZM11.0899 0.75C9.59485 0.75 8.37895 1.96591 8.37895 3.46094H8.87895C8.87895 2.24205 9.871 1.25 11.0899 1.25V0.75ZM11.9102 0.75H11.0899V1.25H11.9102V0.75ZM14.6211 3.46094C14.6211 1.96591 13.4052 0.75 11.9102 0.75V1.25C13.1291 1.25 14.1211 2.24205 14.1211 3.46094H14.6211ZM14.6211 3.87413V3.46094H14.1211V3.87413H14.6211ZM14.6409 3.89396C14.6317 3.89014 14.6265 3.88498 14.6239 3.88125C14.6214 3.87763 14.6211 3.87527 14.6211 3.87413H14.1211C14.1211 4.09101 14.2572 4.27644 14.45 4.35608L14.6409 3.89396ZM14.6565 3.90042L14.6411 3.89402L14.4499 4.35602L14.4654 4.36242L14.6565 3.90042ZM14.6855 3.90067C14.6849 3.90128 14.6831 3.90285 14.6785 3.90368C14.6738 3.90453 14.6662 3.90442 14.6569 3.90056L14.465 4.36228C14.6573 4.44219 14.8853 4.40798 15.0391 4.25422L14.6855 3.90067ZM14.9776 3.60859L14.6855 3.90067L15.0391 4.25422L15.3311 3.96215L14.9776 3.60859ZM16.8945 2.81456C16.1708 2.81456 15.4893 3.09688 14.9776 3.6086L15.3312 3.96214C15.7491 3.5442 16.3034 3.31456 16.8945 3.31456V2.81456ZM18.8115 3.60859C18.2998 3.09688 17.6182 2.81456 16.8945 2.81456V3.31456C17.4856 3.31456 18.04 3.5442 18.4579 3.96215L18.8115 3.60859ZM19.3915 4.18864L18.8115 3.60859L18.4579 3.96215L19.038 4.54219L19.3915 4.18864ZM19.3915 8.02249C20.4487 6.96534 20.4487 5.24579 19.3915 4.18864L19.038 4.54219C19.8999 5.40408 19.8999 6.80705 19.038 7.66894L19.3915 8.02249ZM19.0994 8.31462L19.3915 8.0225L19.038 7.66892L18.7458 7.96104L19.0994 8.31462ZM19.0997 8.34363C19.0957 8.3339 19.0956 8.32616 19.0965 8.32147C19.0973 8.31693 19.0988 8.31518 19.0994 8.31456L18.7458 7.9611C18.592 8.11493 18.558 8.34281 18.6379 8.53536L19.0997 8.34363ZM19.1073 8.36197L19.1 8.34425L18.6377 8.53474L18.645 8.55246L19.1073 8.36197ZM19.126 8.37895C19.1247 8.37895 19.122 8.37862 19.1182 8.37599C19.1143 8.37327 19.11 8.36861 19.1072 8.36178L18.6451 8.55265C18.7242 8.74421 18.9105 8.87895 19.126 8.87895V8.37895ZM20.1094 11.9102C20.1094 12.2244 19.8533 12.4805 19.5391 12.4805V12.9805C20.1295 12.9805 20.6094 12.5005 20.6094 11.9102H20.1094ZM20.1094 11.0898V11.9102H20.6094V11.0898H20.1094ZM19.5391 10.5195C19.8533 10.5195 20.1094 10.7756 20.1094 11.0898H20.6094C20.6094 10.4995 20.1295 10.0195 19.5391 10.0195V10.5195ZM19.1259 10.5195H19.5391V10.0195H19.1259V10.5195ZM17.1275 9.17621C17.464 9.99097 18.2483 10.5195 19.1259 10.5195V10.0195C18.4528 10.0195 17.8497 9.61491 17.5897 8.98534L17.1275 9.17621ZM17.1212 9.16087L17.1274 9.17584L17.5898 8.98571L17.5837 8.97074L17.1212 9.16087ZM17.5856 6.80094C16.9653 7.42141 16.7844 8.35001 17.1216 9.16171L17.5833 8.9699C17.3231 8.34351 17.4632 7.63058 17.9392 7.15446L17.5856 6.80094ZM17.8778 6.50877L17.5857 6.80092L17.9392 7.15448L18.2314 6.86232L17.8778 6.50877ZM17.8778 5.70225C18.1 5.92446 18.1 6.28656 17.8778 6.50877L18.2314 6.86232C18.6488 6.44485 18.6488 5.76614 18.2313 5.34867L17.8778 5.70225ZM17.2977 5.12219L17.8778 5.70224L18.2313 5.34868L17.6513 4.76864L17.2977 5.12219ZM16.8945 4.95515C17.0472 4.95515 17.1897 5.01415 17.2977 5.12219L17.6513 4.76864C17.4495 4.56685 17.1799 4.45515 16.8945 4.45515V4.95515ZM16.4912 5.12218C16.5993 5.01412 16.7416 4.95515 16.8945 4.95515V4.45515C16.609 4.45515 16.3395 4.5668 16.1377 4.76857L16.4912 5.12218ZM16.1991 5.41429L16.4912 5.12214L16.1376 4.76861L15.8455 5.06076L16.1991 5.41429ZM13.8353 5.87721C14.6496 6.21542 15.5784 6.03487 16.1991 5.41433L15.8455 5.06073C15.3696 5.53662 14.6566 5.67689 14.0271 5.41545L13.8353 5.87721ZM13.8243 5.87266L13.8354 5.87725L14.027 5.41541L14.0159 5.41082L13.8243 5.87266ZM12.4805 3.87413C12.4805 4.75183 13.0091 5.53609 13.8247 5.87282L14.0155 5.41066C13.3851 5.15036 12.9805 4.54723 12.9805 3.87413H12.4805ZM12.4805 3.46094V3.87413H12.9805V3.46094H12.4805ZM11.9102 2.89062C12.2244 2.89062 12.4805 3.14669 12.4805 3.46094H12.9805C12.9805 2.87055 12.5005 2.39062 11.9102 2.39062V2.89062ZM11.0898 2.89062H11.9102V2.39062H11.0898V2.89062ZM10.5195 3.46094C10.5195 3.14669 10.7756 2.89062 11.0898 2.89062V2.39062C10.4995 2.39062 10.0195 2.87055 10.0195 3.46094H10.5195ZM10.5195 3.87413V3.46094H10.0195V3.87413H10.5195ZM9.17615 5.87249C9.99092 5.53606 10.5195 4.75176 10.5195 3.87413H10.0195C10.0195 4.54729 9.61487 5.15039 8.98532 5.41033L9.17615 5.87249ZM9.16497 5.87713L9.17653 5.87233L8.98493 5.41049L8.97337 5.41529L9.16497 5.87713ZM6.80098 5.41441C7.42168 6.03497 8.35042 6.21554 9.16509 5.87708L8.97325 5.41534C8.34343 5.67701 7.63048 5.53669 7.1545 5.06081L6.80098 5.41441ZM6.50881 5.12223L6.80096 5.41439L7.15452 5.06083L6.86236 4.76868L6.50881 5.12223ZM6.10554 4.95519C6.2584 4.95519 6.40077 5.01417 6.50879 5.12221L6.86239 4.7687C6.66057 4.56683 6.39098 4.45519 6.10554 4.45519V4.95519ZM5.70219 5.12228C5.81035 5.01418 5.95278 4.95519 6.10554 4.95519V4.45519C5.8201 4.45519 5.55057 4.5669 5.34873 4.76863L5.70219 5.12228ZM5.12224 5.70227L5.70224 5.12223L5.34868 4.76869L4.76867 5.34873L5.12224 5.70227ZM5.12223 6.50885C4.89998 6.28659 4.89999 5.92449 5.12222 5.70229L4.76869 5.34871C4.35116 5.76619 4.35117 6.4449 4.76868 6.8624L5.12223 6.50885ZM5.41431 6.80092L5.12223 6.50885L4.76868 6.8624L5.06075 7.15448L5.41431 6.80092ZM5.87721 9.16474C6.2155 8.35027 6.03491 7.42158 5.41431 6.80093L5.06075 7.15447C5.53666 7.63041 5.67697 8.34333 5.41546 8.97294L5.87721 9.16474ZM5.87386 9.17292L5.87767 9.16361L5.41499 8.97407L5.41118 8.98338L5.87386 9.17292ZM3.87409 10.5195C4.75193 10.5195 5.53609 9.99077 5.87359 9.17358L5.41145 8.98272C5.15028 9.6151 4.54705 10.0195 3.87409 10.0195V10.5195ZM3.46094 10.5195H3.87409V10.0195H3.46094V10.5195ZM2.89062 11.0898C2.89062 10.7756 3.14669 10.5195 3.46094 10.5195V10.0195C2.87055 10.0195 2.39062 10.4995 2.39062 11.0898H2.89062ZM2.89062 11.9102V11.0898H2.39062V11.9102H2.89062ZM3.46094 12.4805C3.14669 12.4805 2.89062 12.2244 2.89062 11.9102H2.39062C2.39062 12.5005 2.87055 12.9805 3.46094 12.9805V12.4805ZM3.87409 12.4805H3.46094V12.9805H3.87409V12.4805ZM5.87248 13.8238C5.53597 13.009 4.75168 12.4805 3.87409 12.4805V12.9805C4.54721 12.9805 5.15032 13.3851 5.41034 14.0147L5.87248 13.8238ZM5.87773 13.8365L5.8724 13.8236L5.41043 14.0149L5.41576 14.0277L5.87773 13.8365ZM5.41435 16.1991C6.03469 15.5787 6.21536 14.6506 5.87767 13.8363L5.41582 14.0279C5.67687 14.6573 5.53647 15.3698 5.06079 15.8455L5.41435 16.1991ZM5.12223 16.4912L5.41435 16.1991L5.06079 15.8455L4.76868 16.1376L5.12223 16.4912ZM4.95519 16.8945C4.95519 16.7416 5.01417 16.5992 5.12221 16.4912L4.7687 16.1376C4.56683 16.3394 4.45519 16.6091 4.45519 16.8945H4.95519ZM5.12223 17.2977C5.01416 17.1897 4.95519 17.0473 4.95519 16.8945H4.45519C4.45519 17.1799 4.56684 17.4494 4.76868 17.6513L5.12223 17.2977ZM5.70228 17.8778L5.12223 17.2977L4.76868 17.6513L5.34872 18.2313L5.70228 17.8778ZM6.10554 18.0448C5.95275 18.0448 5.81032 17.9858 5.70228 17.8778L5.34872 18.2313C5.55052 18.4331 5.82012 18.5448 6.10554 18.5448V18.0448ZM6.50883 17.8778C6.40075 17.9858 6.25838 18.0448 6.10554 18.0448V18.5448C6.391 18.5448 6.66051 18.4332 6.86234 18.2314L6.50883 17.8778ZM6.80091 17.5857L6.5088 17.8778L6.86238 18.2313L7.15449 17.9392L6.80091 17.5857ZM8.3249 16.9545C7.76322 16.9545 7.2136 17.173 6.80093 17.5856L7.15447 17.9392C7.47146 17.6223 7.8931 17.4545 8.3249 17.4545V16.9545ZM9.16471 17.1228C8.89247 17.0097 8.60732 16.9545 8.3249 16.9545V17.4545C8.54204 17.4545 8.76196 17.4969 8.97288 17.5845L9.16471 17.1228ZM9.17565 17.1273L9.16457 17.1227L8.97302 17.5846L8.9841 17.5891L9.17565 17.1273ZM10.5195 19.1259C10.5195 18.2482 9.99086 17.4639 9.17529 17.1271L8.98446 17.5893C9.61494 17.8496 10.0195 18.4528 10.0195 19.1259H10.5195ZM10.5195 19.5391V19.1259H10.0195V19.5391H10.5195ZM11.0898 20.1094C10.7756 20.1094 10.5195 19.8533 10.5195 19.5391H10.0195C10.0195 20.1295 10.4995 20.6094 11.0898 20.6094V20.1094ZM11.9102 20.1094H11.0898V20.6094H11.9102V20.1094ZM12.4805 19.5391C12.4805 19.8533 12.2244 20.1094 11.9102 20.1094V20.6094C12.5005 20.6094 12.9805 20.1295 12.9805 19.5391H12.4805ZM12.4805 19.1259V19.5391H12.9805V19.1259H12.4805ZM13.8239 17.1275C13.0091 17.4639 12.4805 18.2482 12.4805 19.1259H12.9805C12.9805 18.4527 13.3851 17.8496 14.0147 17.5897L13.8239 17.1275ZM13.835 17.1229L13.8235 17.1277L14.0151 17.5895L14.0266 17.5847L13.835 17.1229ZM16.199 17.5856C15.5783 16.9651 14.6496 16.7846 13.8349 17.1229L14.0267 17.5847C14.6566 17.3231 15.3696 17.4634 15.8455 17.9392L16.199 17.5856ZM16.4912 17.8778L16.199 17.5856L15.8455 17.9392L16.1376 18.2313L16.4912 17.8778ZM16.8945 18.0448C16.7416 18.0448 16.5992 17.9858 16.4912 17.8778L16.1376 18.2313C16.3394 18.4332 16.609 18.5448 16.8945 18.5448V18.0448ZM17.2978 17.8777C17.1897 17.9858 17.0472 18.0448 16.8945 18.0448V18.5448C17.1799 18.5448 17.4494 18.4331 17.6513 18.2314L17.2978 17.8777ZM17.8778 17.2977L17.2978 17.8778L17.6513 18.2313L18.2313 17.6513L17.8778 17.2977ZM18.0448 16.8945C18.0448 17.0473 17.9858 17.1896 17.8778 17.2977L18.2313 17.6513C18.4332 17.4494 18.5448 17.1799 18.5448 16.8945H18.0448ZM17.8778 16.4912C17.9858 16.5992 18.0448 16.7416 18.0448 16.8945H18.5448C18.5448 16.6091 18.4332 16.3395 18.2314 16.1376L17.8778 16.4912ZM17.5857 16.1991L17.8778 16.4912L18.2313 16.1376L17.9392 15.8455L17.5857 16.1991ZM17.1223 13.8363C16.7847 14.6506 16.9654 15.5787 17.5856 16.1991L17.9392 15.8455C17.4636 15.3698 17.3232 14.6573 17.5842 14.0279L17.1223 13.8363ZM17.1276 13.8236L17.1223 13.8365L17.5842 14.0278L17.5896 14.0149L17.1276 13.8236ZM19.1259 12.4805C18.2483 12.4805 17.464 13.009 17.1275 13.8238L17.5897 14.0146C17.8496 13.3851 18.4527 12.9805 19.1259 12.9805V12.4805ZM19.5391 12.4805H19.1259V12.9805H19.5391V12.4805ZM11.4988 7.38184C9.22765 7.38184 7.38037 9.22915 7.38037 11.5003H7.88037C7.88037 9.50529 9.5038 7.88184 11.4988 7.88184V7.38184ZM15.6172 11.5003C15.6172 9.22915 13.7699 7.38184 11.4988 7.38184V7.88184C13.4938 7.88184 15.1172 9.50529 15.1172 11.5003H15.6172ZM15.452 12.6581C15.5617 12.283 15.6172 11.8934 15.6172 11.5003H15.1172C15.1172 11.8463 15.0684 12.1887 14.9721 12.5177L15.452 12.6581ZM14.3145 13.2808C14.8007 13.4229 15.3098 13.1441 15.452 12.6581L14.9721 12.5177C14.9074 12.7388 14.6759 12.8655 14.4548 12.8009L14.3145 13.2808ZM13.6918 12.1433C13.5496 12.6294 13.8284 13.1386 14.3145 13.2808L14.4548 12.8009C14.2338 12.7362 14.107 12.5047 14.1717 12.2836L13.6918 12.1433ZM13.7833 11.5003C13.7833 11.7197 13.7524 11.936 13.6918 12.1432L14.1717 12.2837C14.2458 12.0302 14.2833 11.7666 14.2833 11.5003H13.7833ZM11.4988 9.21577C12.7582 9.21577 13.7833 10.2408 13.7833 11.5003H14.2833C14.2833 9.96465 13.0344 8.71577 11.4988 8.71577V9.21577ZM9.21431 11.5003C9.21431 10.2408 10.2394 9.21577 11.4988 9.21577V8.71577C9.96322 8.71577 8.71431 9.96465 8.71431 11.5003H9.21431ZM11.4988 13.7847C10.2394 13.7847 9.21431 12.7597 9.21431 11.5003H8.71431C8.71431 13.0359 9.96322 14.2847 11.4988 14.2847V13.7847ZM12.1892 13.6788C11.9674 13.749 11.7352 13.7847 11.4988 13.7847V14.2847C11.7858 14.2847 12.0689 14.2414 12.3401 14.1555L12.1892 13.6788ZM13.3401 14.2764C13.1874 13.7935 12.6719 13.526 12.1892 13.6788L12.3401 14.1555C12.5596 14.086 12.794 14.2077 12.8634 14.4272L13.3401 14.2764ZM12.7426 15.4273C13.2255 15.2745 13.4929 14.7592 13.3401 14.2763L12.8634 14.4272C12.9329 14.6468 12.8113 14.8811 12.5918 14.9506L12.7426 15.4273ZM11.4988 15.6187C11.9226 15.6187 12.3412 15.5543 12.7426 15.4273L12.5917 14.9506C12.2395 15.0621 11.8718 15.1187 11.4988 15.1187V15.6187ZM7.38037 11.5003C7.38037 13.7714 9.22765 15.6187 11.4988 15.6187V15.1187C9.5038 15.1187 7.88037 13.4952 7.88037 11.5003H7.38037Z" fill="#FF647C"/>
</svg>
