<svg fill="none" height="22" viewBox="0 0 17 22" width="17" xmlns="http://www.w3.org/2000/svg"><path clip-rule="evenodd" d="m17 7.47206c-.0111-.09891-.0324-.19635-.0638-.29069v-.0969c-.051-.1107-.1192-.21246-.2018-.30147l-6.375-6.460002c-.0879-.08374-.1883-.152801-.2975-.204559-.0317-.004578-.06393-.004578-.09565 0-.10793-.0627292-.22714-.1029971-.35062-.118439h-6.42813c-1.76041 0-3.1875 1.44612-3.1875 3.23v15.0733c0 1.7839 1.42709 3.23 3.1875 3.23h10.625c1.7604 0 3.1875-1.4461 3.1875-3.23v-10.76663zm-10.62393 1.14124h-1.0625c-.5868 0-1.0625-.48204-1.0625-1.07668 0-.59462.4757-1.07666 1.0625-1.07666h1.0625c.5868 0 1.0625.48204 1.0625 1.07666 0 .59464-.4757 1.07668-1.0625 1.07668zm-2.125 3.23c0-.5947.4757-1.0767 1.0625-1.0767h6.37503c.5868 0 1.0625.482 1.0625 1.0767 0 .5946-.4757 1.0766-1.0625 1.0766h-6.37503c-.5868 0-1.0625-.482-1.0625-1.0766zm9.12713-5.38311-2.7519-2.78856v1.7119c0 .59462.4757 1.07666 1.0625 1.07666zm1.4987 11.84311c0 .5946-.4757 1.0767-1.0625 1.0767h-10.62498c-.5868 0-1.0625-.4821-1.0625-1.0767v-15.07332c0-.59462.4757-1.07666 1.0625-1.07666h5.3125v3.23c0 1.78389 1.42709 3.23001 3.18748 3.23001h3.1875zm-9.56333-3.2298h6.37503c.5868 0 1.0625.482 1.0625 1.0766 0 .5947-.4757 1.0767-1.0625 1.0767h-6.37503c-.5868 0-1.0625-.482-1.0625-1.0767 0-.5946.4757-1.0766 1.0625-1.0766z" fill="#65a2fd" fill-rule="evenodd"/></svg>