<svg width="15" height="15" viewBox="0 0 15 15" fill="none" xmlns="http://www.w3.org/2000/svg">
<path d="M7.5 0C3.36433 0 0 3.36433 0 7.5C0 11.6357 3.36433 15 7.5 15C11.6357 15 15 11.6357 15 7.5C15 3.36433 11.6357 0 7.5 0Z" fill="#9DC2D4"/>
<path d="M11.3014 5.9108L7.23888 9.97322C7.117 10.0951 6.95702 10.1564 6.79703 10.1564C6.63704 10.1564 6.47705 10.0951 6.35517 9.97322L4.32396 7.94201C4.07951 7.69768 4.07951 7.30263 4.32396 7.0583C4.56829 6.81385 4.96323 6.81385 5.20767 7.0583L6.79703 8.64765L10.4177 5.02708C10.662 4.78264 11.057 4.78264 11.3014 5.02708C11.5458 5.27142 11.5458 5.66635 11.3014 5.9108Z" fill="#FAFAFA"/>
</svg>
