<?xml version="1.0" encoding="UTF-8"?>
<svg width="707px" height="44px" viewBox="0 0 707 44" version="1.1" xmlns="http://www.w3.org/2000/svg" xmlns:xlink="http://www.w3.org/1999/xlink">
    <!-- Generator: Sketch 61 (89581) - https://sketch.com -->
    <title>Group 26</title>
    <desc>Created with Sketch.</desc>
    <defs>
        <ellipse id="path-1" cx="11.5274955" cy="11.5004182" rx="11.4442773" ry="11.4442772"></ellipse>
    </defs>
    <g id="Landing-3" stroke="none" stroke-width="1" fill="none" fill-rule="evenodd">
        <g id="1.0--Homepage" transform="translate(-360.000000, -1675.000000)">
            <g id="Group-8" transform="translate(138.000000, 1615.000000)">
                <g id="Group-26" transform="translate(215.000000, 53.000000)">
                    <g id="logo" opacity="0.786272321" transform="translate(641.000000, 8.000000)">
                        <g id="Group" fill="#858282" fill-rule="nonzero">
                            <polygon id="Shape" points="9.10129866 6.38901253 0 6.38901253 0 3.15309524 21.8177301 3.15309524 21.8177301 6.38911529 12.7164315 6.38911529 12.7164315 31.4473083 9.10129866 31.4473083"></polygon>
                            <polygon id="Shape" points="46.739593 0.373418547 50.1419409 0 50.1419409 31.4473083 46.739593 31.4473083"></polygon>
                            <path d="M69.6206161,29.7876817 C68.7978124,30.3684636 67.8270072,30.8807068 66.7073579,31.3227669 C65.5868658,31.7647243 64.5595988,31.9864737 63.6239769,31.9864737 C62.4611386,31.9864737 61.3624517,31.7925714 60.327811,31.4056917 C59.2925383,31.0187093 58.3854632,30.3964135 57.6060591,29.5388045 C56.8259178,28.681812 56.209052,27.5681329 55.7560938,26.199 C55.3021876,24.8300727 55.0754979,23.149792 55.0754979,21.1582606 C55.0754979,19.2778095 55.39457,17.6462356 56.0323983,16.2628195 C56.6704372,14.8801228 57.4922929,13.739213 58.4992295,12.8400902 C59.5053232,11.9416867 60.6258153,11.270787 61.8590202,10.8280075 C63.0924357,10.3859474 64.2898254,10.164198 65.4528745,10.164198 C66.5299668,10.164198 67.4092323,10.2263659 68.0896176,10.3509073 C68.7700029,10.4753459 69.3653795,10.6069774 69.8758529,10.74498 C70.3863261,10.8837018 70.8679365,11.0147168 71.3218427,11.1390526 C71.7751169,11.2634912 72.3279365,11.3257619 72.9805123,11.3257619 L72.9805123,40.5325589 L69.6207215,40.9473885 L69.6207215,29.7876817 L69.6206161,29.7876817 Z M64.0065685,29.0824612 C64.6299654,29.0824612 65.2680043,28.9723058 65.9205801,28.7505564 C66.5724185,28.5296291 67.196342,28.2670852 67.791824,27.962411 C68.3872006,27.6583534 68.9966927,27.2984988 69.6206161,26.8836692 L69.6206161,13.6493008 C69.3652742,13.5663759 69.0529437,13.4696817 68.6848889,13.3589098 C68.3725585,13.3038321 67.9473044,13.2415614 67.409127,13.1722005 C66.8701068,13.1035589 66.2182684,13.0685188 65.4527691,13.0685188 C64.2619105,13.0685188 63.2410693,13.275985 62.3905614,13.6908145 C61.5400534,14.1057468 60.8382843,14.6800551 60.2854646,15.4125062 C59.7324343,16.1456767 59.3285643,16.9890025 59.0732222,17.943203 C58.8180909,18.8974035 58.6905252,19.9138747 58.6905252,20.9925138 C58.6905252,21.9609975 58.7969178,22.9287619 59.0093868,23.8967318 C59.2221717,24.8651128 59.5550433,25.7362857 60.0088442,26.5104562 C60.4621184,27.2849348 61.014938,27.9073333 61.6675137,28.3773433 C62.3194574,28.8478671 63.0988614,29.0824612 64.0065685,29.0824612 Z" id="Shape"></path>
                        </g>
                        <g id="Clipped" transform="translate(19.000000, 9.000000)">
                            <g id="Group-Clipped">
                                <mask id="mask-2" fill="white">
                                    <use xlink:href="#path-1"></use>
                                </mask>
                                <use id="path-1" fill="#858282" xlink:href="#path-1"></use>
                                <g id="Group" mask="url(#mask-2)">
                                    <g transform="translate(0.000000, -0.821429)">
                                        <g transform="translate(0.000000, 0.716883)">
                                            <g id="Shape_12" transform="translate(18.713637, 0.000000)" fill="#858282" fill-rule="nonzero">
                                                <polygon id="Rectangle-path" points="0.0457909091 0.0562454546 4.32222273 0.0562454546 4.32222273 23.4607318 0.0457909091 23.4607318"></polygon>
                                            </g>
                                            <g id="Shape_11" transform="translate(15.890909, 0.000000)" fill="#636161" fill-rule="nonzero">
                                                <polygon id="Rectangle-path" points="0.0177727273 0.0562454546 2.89183182 0.0562454546 2.89183182 23.45425 0.0177727273 23.45425"></polygon>
                                            </g>
                                            <g id="Shape_10" transform="translate(12.963637, 0.000000)" fill="#858282" fill-rule="nonzero">
                                                <polygon id="Rectangle-path" points="0.0952409094 0.0562454546 2.96982273 0.0562454546 2.96982273 23.4607318 0.0952409094 23.4607318"></polygon>
                                            </g>
                                            <g id="Shape_9" transform="translate(11.290909, 0.000000)" fill="#A6A2A2" fill-rule="nonzero">
                                                <polygon id="Rectangle-path" points="0.0087818182 0.0562454546 1.79044545 0.0562454546 1.79044545 23.4607318 0.0087818182 23.4607318"></polygon>
                                            </g>
                                            <g id="Shape_8" transform="translate(6.481818, 0.000000)" fill="#858282" fill-rule="nonzero">
                                                <polygon id="Rectangle-path" points="0.0192363637 0.0562454546 4.86554545 0.0562454546 4.86554545 23.4607318 0.0192363637 23.4607318"></polygon>
                                            </g>
                                            <g id="Shape_7" transform="translate(3.659091, 0.000000)" fill="#C3C1C1" fill-rule="nonzero">
                                                <polygon id="Rectangle-path" points="0.0718227273 0.0562454546 2.94650909 0.0562454546 2.94650909 23.4607318 0.0718227273 23.4607318"></polygon>
                                            </g>
                                            <g id="Shape_6" transform="translate(1.986363, 0.000000)" fill="#6D6C6C" fill-rule="nonzero">
                                                <polygon id="Rectangle-path" points="0.0486136363 0.0562454546 1.75929091 0.0562454546 1.75929091 23.45425 0.0486136363 23.45425"></polygon>
                                            </g>
                                            <g id="Shape_5" fill="#858282" fill-rule="nonzero">
                                                <polygon id="Rectangle-path" points="0.0485090909 0.0562454546 2.04396818 0.0562454546 2.04396818 23.45425 0.0485090909 23.45425"></polygon>
                                            </g>
                                        </g>
                                    </g>
                                </g>
                            </g>
                        </g>
                    </g>
                    <g id="CODEKEEPER_logo" opacity="0.596865699" transform="translate(310.000000, 10.000000)" fill="#858282" fill-rule="nonzero">
                        <g id="Logo_CODEKEEPER">
                            <g id="Group">
                                <g transform="translate(44.244105, 13.330882)">
                                    <g>
                                        <path d="M7.6300724,10.0498529 C7.6300724,10.0498529 5.66215974,10.4089706 4.33483658,10.4089706 C0.819737412,10.4089706 0.0135718115,8.68683824 0.0135718115,5.30242647 C0.0135718115,1.68676471 1.03960076,0.168676471 4.33483658,0.168676471 C5.79787785,0.168676471 7.64907293,0.555 7.64907293,0.555 L7.58121388,2.03227941 C7.58121388,2.03227941 5.61330122,1.81735294 4.60355844,1.81735294 C2.56778673,1.81735294 2.04662917,2.64985294 2.04662917,5.30242647 C2.04662917,7.82713235 2.45106915,8.76029412 4.6714175,8.76029412 C5.57801451,8.76029412 7.58121388,8.53176471 7.58121388,8.53176471 L7.6300724,10.0498529 Z" id="Path"></path>
                                        <path d="M9.00625408,5.35955882 C9.00625408,2.03227941 10.1001421,0.165955882 13.6993865,0.165955882 C17.2986309,0.165955882 18.3925189,2.02955882 18.3925189,5.35955882 C18.3925189,8.71676471 17.2986309,10.4089706 13.6993865,10.4089706 C10.1001421,10.4089706 9.00625408,8.68683824 9.00625408,5.35955882 Z M16.3567472,5.35955882 C16.3567472,3.04977941 15.8355896,1.78742647 13.6993865,1.78742647 C11.5631834,1.78742647 11.0420258,3.04977941 11.0420258,5.35955882 C11.0420258,7.66933824 11.5468972,8.7875 13.6993865,8.7875 C15.8518758,8.7875 16.3567472,7.69654412 16.3567472,5.35955882 Z" id="Shape"></path>
                                        <path d="M19.719842,10.2511765 L19.719842,0.32375 L23.6393812,0.32375 C27.4232022,0.32375 28.3135131,1.98875 28.3135131,5.11470588 C28.3135131,8.29779412 27.5236336,10.2484559 23.6393812,10.2484559 L19.719842,10.2484559 L19.719842,10.2511765 Z M23.6366668,1.93161765 L21.6687542,1.93161765 L21.6687542,8.64330882 L23.6366668,8.64330882 C25.9411604,8.64330882 26.2777413,7.16602941 26.2777413,5.11470588 C26.2777413,3.07970588 25.9411604,1.93161765 23.6366668,1.93161765 Z" id="Shape"></path>
                                        <polygon id="Path" points="29.62455 0.32375 36.8881835 0.32375 36.8881835 1.93161765 31.5734622 1.93161765 31.5734622 4.52705882 35.8784408 4.52705882 35.8784408 6.105 31.5734622 6.105 31.5734622 8.64330882 36.8881835 8.64330882 36.8881835 10.2511765 29.62455 10.2511765"></polygon>
                                    </g>
                                    <g transform="translate(38.272508, 0.272059)">
                                        <polygon id="Path" points="3.87339499 5.92 2.19049037 6.03426471 2.19049037 9.97911765 0.222577708 9.97911765 0.222577708 0.0516911765 2.19049037 0.0516911765 2.19049037 4.41279412 3.83810828 4.29852941 6.09102898 0.0516911765 8.36023585 0.0516911765 5.60244377 5.00044118 8.47695343 9.97639706 6.17245985 9.97639706"></polygon>
                                        <polygon id="Path" points="9.77713297 0.0516911765 17.0407665 0.0516911765 17.0407665 1.65955882 11.7260451 1.65955882 11.7260451 4.255 16.0310237 4.255 16.0310237 5.83294118 11.7260451 5.83294118 11.7260451 8.37125 17.0407665 8.37125 17.0407665 9.97911765 9.77713297 9.97911765"></polygon>
                                        <polygon id="Path" points="18.6015248 0.0516911765 25.8651583 0.0516911765 25.8651583 1.65955882 20.5504369 1.65955882 20.5504369 4.255 24.8554155 4.255 24.8554155 5.83294118 20.5504369 5.83294118 20.5504369 8.37125 25.8651583 8.37125 25.8651583 9.97911765 18.6015248 9.97911765"></polygon>
                                        <path d="M29.3938292,6.98102941 L29.3938292,9.97911765 L27.4259166,9.97911765 L27.4259166,0.0516911765 L31.6467499,0.0516911765 C34.2878245,0.0516911765 35.5988614,1.16985294 35.5988614,3.4225 C35.5988614,5.67514706 34.2878245,6.98102941 31.6467499,6.98102941 L29.3938292,6.98102941 Z M31.6304638,5.35955882 C32.9577869,5.35955882 33.5820903,4.62772059 33.5820903,3.4225 C33.5820903,2.23088235 32.9605013,1.67316176 31.6304638,1.67316176 L29.3938292,1.67316176 L29.3938292,5.35955882 L31.6304638,5.35955882 Z" id="Shape"></path>
                                        <polygon id="Path" points="36.7578941 0.0516911765 44.0215276 0.0516911765 44.0215276 1.65955882 38.7068063 1.65955882 38.7068063 4.255 43.0117849 4.255 43.0117849 5.83294118 38.7068063 5.83294118 38.7068063 8.37125 44.0215276 8.37125 44.0215276 9.97911765 36.7578941 9.97911765"></polygon>
                                        <path d="M50.2482747,6.59470588 L47.6587731,6.59470588 L47.6587731,9.97911765 L45.6908604,9.97911765 L45.6908604,0.0516911765 L50.0799843,0.0516911765 C52.7373449,0.0516911765 54.0158096,0.984852941 54.0158096,3.25110294 C54.0158096,4.74198529 53.3779344,5.60441176 52.183615,6.105 L54.0158096,9.97911765 L51.8470341,9.97911765 L50.2482747,6.59470588 Z M50.0799843,1.65955882 L47.6587731,1.65955882 L47.6587731,4.98683824 L50.115271,4.98683824 C51.4778808,4.98683824 51.9827522,4.29852941 51.9827522,3.28102941 C51.9800379,2.19007353 51.3584489,1.65955882 50.0799843,1.65955882 Z" id="Shape"></path>
                                    </g>
                                </g>
                                <g id="Path">
                                    <polygon points="35.9598716 13.9266912 30.0452762 18.4863971 18.0695098 9.38058824 18.0695098 0.103382353"></polygon>
                                    <polygon points="0.192719723 23.1168382 6.02859865 18.6142647 18.0830816 27.6602206 18.0830816 36.9782353"></polygon>
                                    <polygon points="0.192719723 13.3526471 18.0695098 0.103382353 18.0695098 9.38058824 0.192719723 23.1168382"></polygon>
                                    <polygon points="35.9598716 23.6908824 18.0722241 36.9619118 18.0722241 27.6602206 35.9598716 13.9266912"></polygon>
                                </g>
                            </g>
                        </g>
                    </g>
                    <g id="Startupz_logo" fill-rule="nonzero">
                        <rect id="Rectangle" fill="#FFFFFF" opacity="0" x="0" y="0" width="121" height="58"></rect>
                        <g id="Group" transform="translate(7.000000, 7.000000)" fill="#858282">
                            <g transform="translate(23.158045, 18.178404)">
                                <path d="M7.27243877,5.30892019 L5.03789054,5.30892019 C5.03789054,4.29671362 4.44878237,3.98685446 3.71747568,3.98685446 C3.00648307,3.98685446 2.60020157,4.4 2.60020157,4.97840376 C2.60020157,6.98215962 7.35369507,7.51924883 7.35369507,10.6798122 C7.35369507,12.5183099 6.15516465,13.799061 3.77841791,13.799061 C1.48292746,13.799061 0.0609422243,12.5389671 0.0609422243,10.4319249 L2.3361186,10.4319249 C2.3361186,11.4441315 2.96585492,11.8779343 3.77841791,11.8779343 C4.5909809,11.8779343 5.09883277,11.4441315 5.09883277,10.7211268 C5.09883277,9.08920188 0.284397047,8.15962441 0.284397047,5.08169014 C0.284397047,3.30516432 1.46261338,2.04507042 3.65653346,2.04507042 C5.97233798,2.04507042 7.27243877,3.11924883 7.27243877,5.30892019 Z" id="Path"></path>
                                <path d="M8.4506551,4.21408451 L8.4506551,2.3342723 C9.73044181,2.3342723 10.1164092,1.83849765 10.1164092,0.185915493 L11.680593,0.185915493 L11.680593,2.18967136 L13.4682316,2.18967136 L13.4682316,4.19342723 L11.680593,4.19342723 L11.680593,10.0600939 C11.680593,11.1549296 11.8431056,11.6713615 13.041636,11.6713615 C13.326033,11.6713615 13.4885456,11.6300469 13.4885456,11.6300469 L13.4885456,13.6544601 C13.4885456,13.6544601 13.1025782,13.6957746 12.5744123,13.6957746 C9.71012774,13.6957746 9.38510254,12.0018779 9.38510254,9.35774648 L9.38510254,4.17276995 L8.95850697,4.17276995 L8.4506551,4.17276995 L8.4506551,4.21408451 Z" id="Path"></path>
                                <path d="M14.930845,10.2873239 L14.930845,5.55680751 C14.930845,3.11924883 16.0887472,2.10704225 17.7748154,2.10704225 C19.1561725,2.10704225 19.8671651,2.95399061 20.0093636,3.22253521 L20.0093636,2.23098592 L22.1423415,2.23098592 L22.1423415,13.6338028 L20.0093636,13.6338028 L20.0093636,12.6422535 C19.8671651,12.9314554 19.1358584,13.799061 17.7748154,13.799061 C16.0684331,13.7784038 14.930845,12.7455399 14.930845,10.2873239 Z M19.8671651,9.99812207 L19.8671651,5.61877934 C19.8671651,4.56525822 19.278057,4.11079812 18.5467503,4.11079812 C17.7138732,4.11079812 17.2263354,4.62723005 17.2263354,5.84600939 L17.2263354,9.99812207 C17.2263354,11.2375587 17.7138732,11.7333333 18.5467503,11.7333333 C19.3796273,11.7126761 19.8671651,11.2169014 19.8671651,9.99812207 Z" id="Shape"></path>
                                <path d="M28.6225313,4.33802817 L28.3178202,4.33802817 C26.6723802,4.33802817 26.2457846,5.18497653 26.2457846,7.06478873 L26.2457846,13.6131455 L23.9706082,13.6131455 L23.9706082,2.21032864 L26.1239002,2.21032864 L26.1239002,3.34647887 C26.3067268,2.72676056 27.0786617,2.08638498 28.4397047,2.08638498 L28.6225313,2.08638498 L28.6225313,4.33802817 Z" id="Path"></path>
                                <path d="M29.9632603,4.21408451 L29.9632603,2.3342723 C31.243047,2.3342723 31.6290144,1.83849765 31.6290144,0.185915493 L33.1931982,0.185915493 L33.1931982,2.18967136 L34.9808368,2.18967136 L34.9808368,4.19342723 L33.1931982,4.19342723 L33.1931982,10.0600939 C33.1931982,11.1549296 33.3557108,11.6713615 34.5542412,11.6713615 C34.8386382,11.6713615 35.0011508,11.6300469 35.0011508,11.6300469 L35.0011508,13.6544601 C35.0011508,13.6544601 34.6151834,13.6957746 34.0870175,13.6957746 C31.2227329,13.6957746 30.8977077,12.0018779 30.8977077,9.35774648 L30.8977077,4.17276995 L30.4711122,4.17276995 L29.9632603,4.17276995 L29.9632603,4.21408451 Z" id="Path"></path>
                                <path d="M41.4203985,2.21032864 L43.6955748,2.21032864 L43.6955748,10.1220657 C43.6955748,12.3737089 42.2939037,13.7784038 40.0999836,13.7784038 C37.8248072,13.7784038 36.4840783,12.3737089 36.4840783,10.1220657 L36.4840783,2.21032864 L38.7592547,2.21032864 L38.7592547,10.4525822 C38.7592547,11.3821596 39.4296191,11.7539906 40.0999836,11.7539906 C40.6687777,11.7539906 41.4203985,11.3821596 41.4203985,10.4525822 L41.4203985,2.21032864 Z" id="Path"></path>
                                <path d="M52.5931396,5.51549296 L52.5931396,10.2666667 C52.5931396,12.6835681 51.4555514,13.7164319 49.728855,13.7164319 C48.3068698,13.7164319 47.7177616,12.8075117 47.6568194,12.7248826 L47.6568194,17.5173709 L45.361329,17.5173709 L45.361329,2.18967136 L47.5146209,2.18967136 L47.5146209,3.18122066 C47.6365053,2.89201878 48.3881261,2.04507042 49.728855,2.04507042 C51.4555514,2.0657277 52.5931396,3.07793427 52.5931396,5.51549296 Z M47.6365053,5.82535211 L47.6365053,9.99812207 C47.6365053,11.1962441 48.1646713,11.6920188 48.9569202,11.6920188 C49.8101113,11.6920188 50.2976491,11.1755869 50.2976491,9.97746479 L50.2976491,5.82535211 C50.2976491,4.60657277 49.7897973,4.09014085 48.9569202,4.09014085 C48.1443572,4.09014085 47.6365053,4.62723005 47.6365053,5.82535211 Z" id="Shape"></path>
                                <polygon id="Path" points="60.1906035 13.6131455 53.5885292 13.6131455 57.2044345 4.23474178 53.9541826 4.23474178 53.9541826 2.21032864 60.312488 2.21032864 56.7168968 11.5887324 60.1906035 11.5887324 60.1906035 13.6131455"></polygon>
                                <path d="M62.3642095,13.7577465 C61.8157295,13.7577465 61.3688199,13.3239437 61.3688199,12.7661972 C61.3688199,12.2084507 61.8157295,11.7539906 62.3642095,11.7539906 C62.9330036,11.7539906 63.3799133,12.2084507 63.3799133,12.7661972 C63.3799133,13.3239437 62.9330036,13.7577465 62.3642095,13.7577465 Z" id="Path"></path>
                                <path d="M69.3928794,11.0723005 C69.3928794,12.7661972 68.4178038,13.799061 66.7926778,13.799061 C65.1269237,13.799061 64.1721622,12.7661972 64.1721622,11.0723005 L64.1721622,8.03568075 C64.1721622,6.40375587 65.1269237,5.35023474 66.7926778,5.35023474 C68.4178038,5.35023474 69.3928794,6.40375587 69.3928794,8.03568075 L69.3928794,8.15962441 L67.7474394,8.15962441 L67.7474394,7.82910798 C67.7474394,7.12676056 67.3208438,6.81690141 66.7926778,6.81690141 C66.2645119,6.81690141 65.8176023,7.12676056 65.8176023,7.82910798 L65.8176023,11.2995305 C65.8176023,12.0225352 66.2441978,12.3117371 66.7926778,12.3117371 C67.3005297,12.3117371 67.7474394,12.0225352 67.7474394,11.2995305 L67.7474394,10.9896714 L69.3928794,10.9896714 L69.3928794,11.0723005 Z" id="Path"></path>
                                <path d="M70.2866987,11.0723005 L70.2866987,8.03568075 C70.2866987,6.40375587 71.2414602,5.35023474 72.9072143,5.35023474 C74.5323403,5.35023474 75.5074159,6.40375587 75.5074159,8.03568075 L75.5074159,11.0723005 C75.5074159,12.7661972 74.5323403,13.799061 72.9072143,13.799061 C71.2414602,13.799061 70.2866987,12.7455399 70.2866987,11.0723005 Z M71.9321388,7.82910798 L71.9321388,11.2995305 C71.9321388,12.0225352 72.3587343,12.3117371 72.9072143,12.3117371 C73.4150662,12.3117371 73.8619759,12.0225352 73.8619759,11.2995305 L73.8619759,7.82910798 C73.8619759,7.12676056 73.4353803,6.81690141 72.9072143,6.81690141 C72.3790484,6.81690141 71.9321388,7.10610329 71.9321388,7.82910798 Z" id="Shape"></path>
                                <path d="M78.0060471,13.6544601 L76.3606071,13.6544601 L76.3606071,5.41220657 L77.9247908,5.41220657 L77.9247908,6.09389671 C78.0060471,5.9286385 78.3920145,5.32957746 79.326462,5.32957746 C80.0374546,5.32957746 80.6265628,5.61877934 80.951588,6.25915493 C81.1750428,5.88732394 81.7032087,5.32957746 82.6376562,5.32957746 C83.7955584,5.32957746 84.506551,6.05258216 84.506551,7.74647887 L84.506551,13.6544601 L82.8407969,13.6544601 L82.8407969,7.70516432 C82.8407969,7.02347418 82.4751436,6.79624413 82.048548,6.79624413 C81.6625806,6.79624413 81.2562991,7.04413146 81.2562991,7.68450704 L81.2562991,13.6544601 L79.5905449,13.6544601 L79.5905449,7.70516432 C79.5905449,7.04413146 79.2248916,6.79624413 78.798296,6.79624413 C78.4123286,6.79624413 78.0060471,7.02347418 78.0060471,7.68450704 L78.0060471,13.6544601 Z" id="Path"></path>
                            </g>
                            <g>
                                <path d="M9.68981366,26.8544601 C9.68981366,27.0403756 9.68981366,27.1849765 9.68981366,27.3295775 C9.68981366,28.8169014 9.68981366,30.3042254 9.68981366,31.8122066 C9.68981366,31.8948357 9.68981366,31.9981221 9.68981366,32.0807512 C9.68981366,32.5971831 9.42573069,32.9276995 9.0194492,32.9276995 C8.6131677,32.9276995 8.34908473,32.5971831 8.32877066,32.0807512 C8.32877066,30.8619718 8.32877066,29.6225352 8.32877066,28.4037559 C8.32877066,27.9079812 8.32877066,27.4122066 8.32877066,26.8751174 C8.20688621,26.8544601 8.10531583,26.8338028 8.00374546,26.8338028 C7.15055432,26.8338028 6.29736318,26.8131455 5.42385796,26.8338028 C5.28165944,26.8338028 5.07851869,26.9370892 4.97694832,27.0610329 C3.81904606,28.713615 2.68145787,30.3868545 1.52355561,32.0394366 C1.46261338,32.1220657 1.42198523,32.2046948 1.36104301,32.2666667 C1.01570374,32.6798122 0.385967421,32.5765258 0.203140748,32.0600939 C0.162512598,31.9361502 0.142198523,31.770892 0.142198523,31.6262911 C0.142198523,28.9408451 0.121884449,26.2347418 0.142198523,23.5492958 C0.162512598,21.5248826 0.934447439,19.8929577 2.66114379,18.7981221 C3.04711122,18.5502347 3.49402086,18.3643192 3.94093051,18.2197183 C4.22532755,18.1164319 4.28626978,17.9924883 4.28626978,17.7239437 C4.2659557,16.1333333 4.30658385,14.5633803 4.2659557,12.97277 C4.1846994,9.85352113 4.91600609,6.92018779 6.21610688,4.15211268 C6.80521505,2.91267606 7.47557951,1.73521127 8.16625806,0.557746479 C8.59285363,-0.185915493 9.14133365,-0.165258216 9.60855737,0.557746479 C11.41651,3.4084507 12.777553,6.44507042 13.305719,9.83286385 C13.4276034,10.6591549 13.4885456,11.485446 13.4885456,12.3117371 C13.5088597,14.1295775 13.5088597,15.9474178 13.4885456,17.7859155 C13.4885456,18.0338028 13.5494879,18.1370892 13.7932568,18.2197183 C16.2106317,19.0253521 17.5919887,20.9051643 17.6123028,23.4873239 C17.6326169,26.2140845 17.6123028,28.9615023 17.6123028,31.6882629 C17.6123028,32.0600939 17.5107325,32.3699531 17.124765,32.4938967 C16.7387976,32.6178404 16.4950287,32.4319249 16.2715739,32.1220657 C15.1136716,30.428169 13.9557694,28.7549296 12.777553,27.0816901 C12.6962967,26.9784038 12.5540982,26.8751174 12.4525278,26.8544601 C11.5993367,26.8338028 10.6852033,26.8544601 9.68981366,26.8544601 Z M8.9381929,1.98309859 C8.81630845,2.18967136 8.71473808,2.31361502 8.65379585,2.45821596 C8.04437361,3.71830986 7.39432322,4.97840376 6.86615727,6.27981221 C6.07390836,8.2629108 5.66762686,10.3286385 5.66762686,12.4976526 C5.70825501,16.6497653 5.66762686,20.8225352 5.66762686,24.9746479 C5.66762686,25.1192488 5.66762686,25.284507 5.66762686,25.4497653 C6.56144615,25.4497653 7.41463729,25.4497653 8.30845658,25.4497653 C8.30845658,25.284507 8.30845658,25.1399061 8.30845658,24.9953052 C8.30845658,22.9915493 8.30845658,20.9877934 8.30845658,18.9840376 C8.30845658,18.8600939 8.28814251,18.715493 8.32877066,18.5915493 C8.41002695,18.2403756 8.63348178,18.0338028 8.97882105,18.0131455 C9.30384624,17.9924883 9.58824329,18.2610329 9.64918552,18.6122066 C9.66949959,18.7568075 9.66949959,18.9014085 9.66949959,19.0460094 C9.66949959,21.029108 9.66949959,23.0122066 9.66949959,24.9953052 C9.66949959,25.1399061 9.66949959,25.284507 9.66949959,25.4497653 C10.5023767,25.4497653 11.2946256,25.4497653 12.1478167,25.4497653 C12.1478167,25.284507 12.1478167,25.1399061 12.1478167,24.9953052 C12.1478167,20.7605634 12.1478167,16.5258216 12.1478167,12.2704225 C12.1681308,8.51079812 10.7461456,5.22629108 8.9381929,1.98309859 Z M13.5698019,19.6244131 C13.5698019,19.6657277 13.5494879,19.7276995 13.5494879,19.7690141 C13.5494879,21.6694836 13.5494879,23.5699531 13.5494879,25.4704225 C13.5494879,25.6150235 13.6307442,25.7802817 13.7120005,25.9042254 C14.5042494,27.0610329 15.2964983,28.1971831 16.0887472,29.3333333 C16.1496894,29.4159624 16.2106317,29.4779343 16.291888,29.5605634 C16.291888,27.3295775 16.291888,25.1605634 16.291888,22.970892 C16.291888,22.8056338 16.2512598,22.6610329 16.2309457,22.4957746 C15.9465487,21.1530516 14.7886464,19.8723005 13.5698019,19.6244131 Z M4.30658385,19.5830986 C4.12375718,19.6450704 4.00187273,19.686385 3.87998828,19.7483568 C2.35643267,20.4713615 1.56418376,21.7107981 1.54386968,23.4046948 C1.52355561,25.3671362 1.54386968,27.3295775 1.54386968,29.2920188 C1.54386968,29.3539906 1.56418376,29.4366197 1.58449783,29.5399061 C1.64544006,29.457277 1.68606821,29.4366197 1.72669636,29.3953052 C2.53925935,28.2178404 3.37213641,27.0197183 4.1846994,25.8422535 C4.28626978,25.6976526 4.30658385,25.4910798 4.30658385,25.3258216 C4.32689793,23.8798122 4.30658385,22.4131455 4.30658385,20.9671362 C4.30658385,20.5333333 4.30658385,20.0788732 4.30658385,19.5830986 Z" id="Shape"></path>
                                <path d="M5.28165944,37.5755869 C5.28165944,35.799061 5.28165944,34.0431925 5.28165944,32.2666667 C5.28165944,32.1220657 5.28165944,31.9774648 5.30197351,31.8328638 C5.36291574,31.5023474 5.62699871,31.2751174 5.95202391,31.2751174 C6.2770491,31.2751174 6.56144615,31.5023474 6.6020743,31.8328638 C6.62238837,31.9568075 6.62238837,32.0600939 6.62238837,32.1840376 C6.62238837,35.7784038 6.62238837,39.3934272 6.62238837,42.9877934 C6.62238837,43.029108 6.62238837,43.0704225 6.62238837,43.1117371 C6.6020743,43.6075117 6.33799133,43.8967136 5.93170983,43.8760563 C5.52542834,43.8553991 5.28165944,43.5868545 5.28165944,43.0910798 C5.30197351,41.2732394 5.30197351,39.4347418 5.28165944,37.5755869 C5.30197351,37.5755869 5.28165944,37.5755869 5.28165944,37.5755869 Z" id="Path"></path>
                                <path d="M11.7009071,38.257277 C11.7009071,36.6873239 11.7009071,35.1173709 11.7009071,33.5474178 C11.7009071,33.3821596 11.7009071,33.2169014 11.7618493,33.0723005 C11.8634197,32.7624413 12.0868745,32.5971831 12.4118997,32.6178404 C12.7369249,32.6384977 12.9400656,32.8037559 13.0213219,33.1342723 C13.0619501,33.2995305 13.0619501,33.4647887 13.0619501,33.6507042 C13.0619501,36.7492958 13.0619501,39.8478873 13.0619501,42.9671362 C13.0619501,43.029108 13.0619501,43.0704225 13.0619501,43.1323944 C13.041636,43.6488263 12.777553,43.9793427 12.3712715,43.9793427 C11.96499,43.9793427 11.7009071,43.628169 11.7009071,43.1323944 C11.7009071,41.4798122 11.7009071,39.8685446 11.7009071,38.257277 Z" id="Path"></path>
                                <path d="M8.43034103,40.3849765 C8.43034103,39.4967136 8.43034103,38.6084507 8.43034103,37.7408451 C8.43034103,37.2037559 8.71473808,36.8732394 9.12101957,36.8732394 C9.50698699,36.8938967 9.79138404,37.2244131 9.79138404,37.7408451 C9.79138404,39.5173709 9.79138404,41.2938967 9.79138404,43.0910798 C9.79138404,43.6075117 9.48667292,43.9586854 9.08039142,43.9586854 C8.67410993,43.9380282 8.41002695,43.628169 8.41002695,43.0910798 C8.43034103,42.1821596 8.43034103,41.2938967 8.43034103,40.3849765 Z" id="Path"></path>
                                <path d="M9.0194492,9.25446009 C10.3398641,9.25446009 11.4571382,10.4112676 11.4368241,11.7333333 C11.41651,13.0760563 10.2992359,14.1915493 8.97882105,14.170892 C7.67872026,14.170892 6.58176023,13.0347418 6.58176023,11.7126761 C6.58176023,10.3699531 7.69903434,9.23380282 9.0194492,9.25446009 Z M9.0194492,12.7868545 C9.60855737,12.7661972 10.0757811,12.2704225 10.055467,11.6713615 C10.0351529,11.0929577 9.56792922,10.6178404 8.99913512,10.6178404 C8.41002695,10.6178404 7.94280323,11.113615 7.94280323,11.7126761 C7.96311731,12.3117371 8.4506551,12.7868545 9.0194492,12.7868545 Z" id="Shape"></path>
                            </g>
                        </g>
                    </g>
                </g>
            </g>
        </g>
    </g>
</svg>