<?xml version="1.0" encoding="UTF-8"?>
<svg width="336px" height="255px" viewBox="0 0 336 255" version="1.1" xmlns="http://www.w3.org/2000/svg" xmlns:xlink="http://www.w3.org/1999/xlink">
    <!-- Generator: Sketch 52.6 (67491) - http://www.bohemiancoding.com/sketch -->
    <title>Group 4</title>
    <desc>Created with Sketch.</desc>
    <g id="Landing-3" stroke="none" stroke-width="1" fill="none" fill-rule="evenodd">
        <g id="1.9--404-page" transform="translate(-552.000000, -249.000000)">
            <g id="Group-4" transform="translate(552.000000, 249.000000)">
                <path d="M0,250.097111 L0,29 C-1.96142588e-15,12.9837423 12.9837423,2.94213882e-15 29,0 L307,-2.13162821e-14 C323.016258,-2.42584209e-14 336,12.9837423 336,29 L336,168.39643 C336,184.412688 323.016258,197.39643 307,197.39643 L60.2745358,197.39643 C50.7140466,197.39643 41.7678267,202.108477 36.3598979,209.992465 L7.29857075,252.359727 C6.04896246,254.181477 3.55913436,254.64529 1.73738404,253.395682 C0.649937481,252.64976 -5.1308886e-14,251.415799 -6.08402217e-14,250.097111 Z" id="Path-2" fill="#9DC2D4"></path>
                <g id="Group-3" transform="translate(74.000000, 60.030356)" fill="#FFFFFF" fill-rule="nonzero">
                    <path d="M122.5,43.8 L145,43.8 L145,65.7 C145,69.7321093 148.357422,73 152.5,73 C156.642578,73 160,69.7321093 160,65.7 L160,7.3 C160,3.26789075 156.642578,0 152.5,0 C148.357422,0 145,3.26789075 145,7.3 L145,29.2 L130,29.2 L130,7.3 C130,3.26789075 126.642578,0 122.5,0 C118.357422,0 115,3.26789075 115,7.3 L115,36.5 C115,40.5321093 118.357422,43.8 122.5,43.8 Z" id="Path"></path>
                    <path d="M7.5,43.8 L30,43.8 L30,65.7 C30,69.7321093 33.357422,73 37.5,73 C41.642578,73 45,69.7321093 45,65.7 L45,7.3 C45,3.26789075 41.642578,0 37.5,0 C33.357422,0 30,3.26789075 30,7.3 L30,29.2 L15,29.2 L15,7.3 C15,3.26789075 11.642578,0 7.5,0 C3.357422,0 0,3.26789075 0,7.3 L0,36.5 C0,40.5321093 3.357422,43.8 7.5,43.8 Z" id="Path"></path>
                    <path d="M76.5,73 L86.5,73 C96.1503905,73 104,65.3597134 104,55.9666667 L104,17.0333333 C104,7.64028658 96.1503905,0 86.5,0 L76.5,0 C66.8496095,0 59,7.64028658 59,17.0333333 L59,55.9666667 C59,65.3597134 66.8496095,73 76.5,73 Z M74,17.0333333 C74,15.6911982 75.121094,14.6 76.5,14.6 L86.5,14.6 C87.878906,14.6 89,15.6911982 89,17.0333333 L89,55.9666667 C89,57.3088018 87.878906,58.4 86.5,58.4 L76.5,58.4 C75.121094,58.4 74,57.3088018 74,55.9666667 L74,17.0333333 Z" id="Shape"></path>
                </g>
            </g>
        </g>
    </g>
</svg>