<svg width="488" height="378" viewBox="0 0 488 378" fill="none" xmlns="http://www.w3.org/2000/svg">
<g clip-path="url(#clip0)">
<path d="M259.207 348.908L94.773 253.976C90.1223 251.296 90.7036 246.603 96.0775 243.498L208.035 178.878C213.409 175.773 221.534 175.432 226.184 178.126L390.619 273.044C395.269 275.724 394.688 280.417 389.314 283.521L277.357 348.128C271.983 351.247 263.858 351.588 259.207 348.908Z" fill="#F0EFEF"/>
<path d="M429.13 104.914L264.696 9.98111C262.782 8.87526 260.839 8.70513 259.123 9.30059L259.138 9.28641L258.84 9.39983L258.769 9.42818L252.828 11.6966L258.159 14.3052L258.088 14.603L231.304 136.501C229.957 142.597 232.651 149.729 237.302 152.408L397.78 245.044L397.213 251.849L403.707 249.325C405.891 248.305 407.635 245.994 408.358 242.704L435.142 120.806C436.461 114.71 433.781 107.593 429.13 104.914Z" fill="#00769D"/>
<path d="M429.128 104.914L264.694 9.98111C262.78 8.87526 260.837 8.70513 259.122 9.30059L259.136 9.28641L258.838 9.39983L258.767 9.42818L252.826 11.6966L258.157 14.3052L258.086 14.603L240.434 94.9468L320.885 157.625L434.318 111.464C433.226 108.628 431.425 106.232 429.128 104.914Z" fill="#00A0B6"/>
<path d="M422.934 123.642L435.455 118.311C435.681 113.463 433.682 108.458 430.378 105.778L410.57 114.115L422.934 123.642Z" fill="#274F89"/>
<path d="M391.485 251.197L227.051 156.278C222.4 153.599 219.72 146.468 221.053 140.371L247.837 18.4732C249.184 12.3769 254.033 9.59813 258.684 12.2919L423.118 107.21C427.769 109.904 430.449 117.021 429.116 123.117L402.332 245.015C400.999 251.112 396.136 253.89 391.485 251.197Z" fill="#DFFBFF"/>
<path d="M387.925 242.137L233.288 152.904C229.035 150.451 226.582 143.93 227.801 138.344L252.317 26.7955C253.536 21.2096 257.988 18.6718 262.242 21.1387L416.864 110.372C421.118 112.824 423.571 119.346 422.352 124.932L397.85 236.48C396.617 242.052 392.179 244.59 387.925 242.137Z" fill="white"/>
<path d="M387.925 242.137L233.288 152.904C229.035 150.451 226.582 143.93 227.801 138.344L252.317 26.7955C253.536 21.2096 257.988 18.6718 262.242 21.1387L416.864 110.372C421.118 112.824 423.571 119.346 422.352 124.932L397.85 236.48C396.617 242.052 392.179 244.59 387.925 242.137Z" fill="#00769D"/>
<path d="M393.753 255.337L371.28 252.374L226.186 168.613C221.535 165.933 213.41 166.26 208.036 169.364L105.224 228.697L91.6406 226.897V234.609H91.6548C91.5697 236.396 92.5764 238.097 94.7742 239.373L259.208 334.291C263.859 336.971 271.984 336.644 277.358 333.54L389.315 268.919C392.335 267.175 393.838 264.921 393.753 262.822V255.337Z" fill="#00769D"/>
<path d="M284.742 202.412L274.434 196.458H161.101L105.236 228.697L91.6523 226.897V234.609H91.6665C91.5815 236.395 92.5882 238.097 94.7859 239.373L259.22 334.291C261.673 335.709 265.104 336.276 268.593 336.049L284.742 202.412Z" fill="#00A0B6"/>
<path d="M97.6667 227.69L91.6406 226.896V234.609H91.6548C91.5697 236.395 92.5764 238.097 94.7742 239.373L97.6667 241.046V227.69Z" fill="#86D0DA"/>
<path d="M260.852 335.057C265.261 336.73 271.557 336.361 276.278 334.107V316.909H260.852V335.057Z" fill="#274F89"/>
<path d="M259.207 326.593L94.773 231.674C90.1223 228.995 90.7036 224.302 96.0775 221.197L208.035 156.59C213.409 153.486 221.534 153.145 226.184 155.839L390.619 250.757C395.269 253.437 394.688 258.13 389.314 261.234L277.357 325.841C271.983 328.946 263.858 329.272 259.207 326.593Z" fill="#DFFBFF"/>
<path d="M389.315 258.413L277.358 323.034C271.984 326.139 263.859 326.465 259.208 323.785L94.7742 228.853C93.257 227.974 92.2928 226.882 91.8816 225.691C91.1585 227.889 92.0801 230.115 94.7742 231.674L259.208 326.593C263.859 329.272 271.984 328.946 277.358 325.841L389.315 261.234C392.931 259.15 394.363 256.343 393.512 253.919C392.974 255.521 391.584 257.109 389.315 258.413Z" fill="white"/>
<path d="M164.702 200.243L157.258 195.947C156.663 195.607 156.734 194.997 157.429 194.6L166.205 189.525C166.9 189.128 167.935 189.085 168.531 189.425L175.975 193.721C176.57 194.061 176.499 194.671 175.805 195.068L167.028 200.144C166.347 200.541 165.298 200.597 164.702 200.243Z" fill="#BADEF5"/>
<path d="M176.202 206.878L168.758 202.582C168.163 202.242 168.234 201.632 168.929 201.235L177.705 196.16C178.4 195.763 179.435 195.72 180.031 196.06L187.475 200.356C188.07 200.697 187.999 201.306 187.305 201.703L178.528 206.764C177.833 207.176 176.798 207.218 176.202 206.878Z" fill="#BADEF5"/>
<path d="M187.687 213.513L180.243 209.217C179.647 208.877 179.718 208.267 180.413 207.87L189.19 202.795C189.885 202.398 190.92 202.355 191.515 202.696L198.959 206.991C199.555 207.332 199.484 207.941 198.789 208.338L190.012 213.4C189.332 213.811 188.282 213.853 187.687 213.513Z" fill="#BADEF5"/>
<path d="M203.581 208.04L196.137 203.745C195.542 203.404 195.613 202.795 196.308 202.398L203.681 198.145C204.375 197.748 205.41 197.705 206.006 198.045L213.45 202.341C214.046 202.681 213.975 203.291 213.28 203.688L205.907 207.941C205.212 208.338 204.177 208.381 203.581 208.04Z" fill="#BADEF5"/>
<path d="M215.07 214.661L207.626 210.366C207.03 210.025 207.101 209.416 207.796 209.019L215.169 204.765C215.864 204.368 216.899 204.326 217.494 204.666L224.938 208.962C225.534 209.302 225.463 209.912 224.768 210.309L217.395 214.562C216.7 214.973 215.665 215.016 215.07 214.661Z" fill="#BADEF5"/>
<path d="M226.554 221.296L219.11 217.001C218.515 216.66 218.585 216.051 219.28 215.654L226.653 211.4C227.348 211.003 228.383 210.961 228.979 211.301L236.423 215.597C237.018 215.937 236.947 216.547 236.252 216.944L228.879 221.197C228.199 221.594 227.15 221.637 226.554 221.296Z" fill="#BADEF5"/>
<path d="M238.038 227.932L230.594 223.636C229.999 223.296 230.07 222.686 230.765 222.289L238.138 218.036C238.832 217.639 239.867 217.596 240.463 217.936L247.907 222.232C248.502 222.572 248.432 223.182 247.737 223.579L240.364 227.832C239.683 228.229 238.648 228.272 238.038 227.932Z" fill="#BADEF5"/>
<path d="M249.538 234.567L242.094 230.271C241.499 229.931 241.57 229.321 242.265 228.924L249.638 224.671C250.332 224.274 251.367 224.231 251.963 224.571L259.407 228.867C260.002 229.207 259.932 229.817 259.237 230.214L251.864 234.467C251.169 234.864 250.134 234.907 249.538 234.567Z" fill="#BADEF5"/>
<path d="M261.023 241.202L253.579 236.906C252.983 236.566 253.054 235.956 253.749 235.559L261.122 231.306C261.817 230.909 262.852 230.866 263.447 231.206L270.891 235.502C271.487 235.842 271.416 236.452 270.721 236.849L263.348 241.102C262.668 241.499 261.618 241.542 261.023 241.202Z" fill="#BADEF5"/>
<path d="M272.507 247.822L265.063 243.527C264.468 243.186 264.539 242.577 265.233 242.18L272.606 237.927C273.301 237.53 274.336 237.487 274.932 237.827L282.376 242.123C282.971 242.463 282.9 243.073 282.206 243.47L274.832 247.723C274.152 248.134 273.103 248.177 272.507 247.822Z" fill="#BADEF5"/>
<path d="M284.007 254.457L276.563 250.162C275.968 249.821 276.039 249.212 276.733 248.815L284.106 244.562C284.801 244.165 285.836 244.122 286.432 244.462L293.876 248.758C294.471 249.098 294.4 249.708 293.706 250.105L286.333 254.358C285.638 254.755 284.603 254.812 284.007 254.457Z" fill="#BADEF5"/>
<path d="M295.492 261.093L288.048 256.797C287.452 256.457 287.523 255.847 288.218 255.45L295.591 251.197C296.286 250.8 297.321 250.757 297.916 251.098L305.36 255.393C305.956 255.734 305.885 256.343 305.19 256.74L297.817 260.993C297.136 261.39 296.087 261.433 295.492 261.093Z" fill="#BADEF5"/>
<path d="M306.976 267.728L299.532 263.432C298.936 263.092 299.007 262.482 299.702 262.085L307.075 257.832C307.77 257.435 308.805 257.392 309.401 257.733L316.845 262.028C317.44 262.369 317.369 262.978 316.674 263.375L309.301 267.628C308.621 268.025 307.571 268.068 306.976 267.728Z" fill="#BADEF5"/>
<path d="M220.499 204.893L213.055 200.597C212.46 200.257 212.531 199.648 213.226 199.251L220.599 194.997C221.293 194.6 222.328 194.558 222.924 194.898L230.368 199.194C230.963 199.534 230.893 200.144 230.198 200.541L222.825 204.794C222.144 205.191 221.109 205.234 220.499 204.893Z" fill="#BADEF5"/>
<path d="M208.843 198.159L201.399 193.863C200.804 193.523 200.874 192.913 201.569 192.516L208.942 188.263C209.637 187.866 210.672 187.823 211.268 188.164L218.712 192.459C219.307 192.8 219.236 193.409 218.542 193.806L211.168 198.06C210.488 198.457 209.439 198.513 208.843 198.159Z" fill="#BADEF5"/>
<path d="M197.16 191.424L181.137 182.167C180.542 181.826 180.613 181.217 181.308 180.82L188.681 176.566C189.375 176.169 190.41 176.127 191.006 176.467L207.028 185.711C207.624 186.051 207.553 186.661 206.858 187.058L199.485 191.311C198.804 191.722 197.769 191.765 197.16 191.424Z" fill="#BADEF5"/>
<path d="M205.327 183.216L192.325 175.702C191.729 175.361 191.8 174.752 192.495 174.355L199.868 170.102C200.563 169.705 201.598 169.662 202.194 170.002L215.196 177.502C215.791 177.842 215.72 178.452 215.026 178.849L207.652 183.102C206.972 183.513 205.923 183.57 205.327 183.216Z" fill="#BADEF5"/>
<path d="M231.999 211.528L224.555 207.232C223.96 206.892 224.031 206.283 224.726 205.886L232.099 201.632C232.793 201.235 233.828 201.193 234.424 201.533L241.868 205.829C242.463 206.169 242.393 206.779 241.698 207.176L234.325 211.429C233.63 211.826 232.595 211.869 231.999 211.528Z" fill="#BADEF5"/>
<path d="M243.484 218.163L236.04 213.867C235.444 213.527 235.515 212.918 236.21 212.521L243.583 208.267C244.278 207.87 245.313 207.828 245.908 208.168L253.352 212.464C253.948 212.804 253.877 213.414 253.182 213.811L245.809 218.064C245.128 218.461 244.079 218.504 243.484 218.163Z" fill="#BADEF5"/>
<path d="M254.968 224.784L247.524 220.488C246.929 220.148 246.999 219.538 247.694 219.141L255.067 214.888C255.762 214.491 256.797 214.449 257.393 214.789L264.837 219.085C265.432 219.425 265.361 220.035 264.667 220.432L257.293 224.685C256.613 225.096 255.564 225.139 254.968 224.784Z" fill="#BADEF5"/>
<path d="M266.468 231.419L259.024 227.123C258.429 226.783 258.499 226.173 259.194 225.776L266.567 221.523C267.262 221.126 268.297 221.084 268.893 221.424L276.337 225.72C276.932 226.06 276.861 226.67 276.167 227.067L268.793 231.32C268.099 231.731 267.064 231.774 266.468 231.419Z" fill="#BADEF5"/>
<path d="M277.952 238.054L270.508 233.758C269.913 233.418 269.984 232.808 270.679 232.411L278.052 228.158C278.747 227.761 279.782 227.719 280.377 228.059L287.821 232.355C288.417 232.695 288.346 233.305 287.651 233.702L280.278 237.955C279.597 238.352 278.548 238.394 277.952 238.054Z" fill="#BADEF5"/>
<path d="M289.437 244.689L281.993 240.394C281.397 240.053 281.468 239.444 282.163 239.047L289.536 234.793C290.231 234.397 291.266 234.354 291.861 234.694L299.306 238.99C299.901 239.33 299.83 239.94 299.135 240.337L291.762 244.59C291.082 244.987 290.032 245.03 289.437 244.689Z" fill="#BADEF5"/>
<path d="M300.937 251.324L293.493 247.029C292.897 246.688 292.968 246.079 293.663 245.682L301.036 241.428C301.731 241.032 302.766 240.989 303.361 241.329L310.805 245.625C311.401 245.965 311.33 246.575 310.635 246.972L303.262 251.225C302.567 251.622 301.532 251.665 300.937 251.324Z" fill="#BADEF5"/>
<path d="M312.421 257.959L304.977 253.664C304.382 253.323 304.453 252.714 305.147 252.317L312.52 248.064C313.215 247.667 314.25 247.624 314.846 247.964L322.29 252.26C322.885 252.6 322.814 253.21 322.12 253.607L314.747 257.86C314.066 258.257 313.017 258.3 312.421 257.959Z" fill="#BADEF5"/>
<path d="M323.906 264.58L316.462 260.284C315.866 259.944 315.937 259.335 316.632 258.938L324.005 254.684C324.7 254.287 325.735 254.245 326.33 254.585L333.774 258.881C334.37 259.221 334.299 259.831 333.604 260.228L326.231 264.481C325.55 264.892 324.501 264.935 323.906 264.58Z" fill="#BADEF5"/>
<path d="M344.337 276.376L328.102 267.005C327.507 266.664 327.578 266.055 328.272 265.658L335.645 261.405C336.34 261.008 337.375 260.965 337.971 261.305L354.206 270.677C354.801 271.017 354.73 271.627 354.036 272.024L346.663 276.277C345.968 276.674 344.933 276.716 344.337 276.376Z" fill="#BADEF5"/>
<path d="M366.698 263.46L353.001 255.549C352.405 255.209 352.476 254.599 353.171 254.202L360.544 249.949C361.239 249.552 362.274 249.509 362.869 249.85L376.566 257.761C377.162 258.101 377.091 258.711 376.396 259.108L369.023 263.361C368.342 263.772 367.293 263.815 366.698 263.46Z" fill="#BADEF5"/>
<path d="M252.117 210.224L244.673 205.928C244.077 205.588 244.148 204.978 244.843 204.581L252.216 200.328C252.911 199.931 253.946 199.888 254.541 200.229L261.985 204.524C262.581 204.865 262.51 205.474 261.815 205.871L254.442 210.125C253.747 210.536 252.712 210.578 252.117 210.224Z" fill="#BADEF5"/>
<path d="M240.335 203.433L232.891 199.137C232.296 198.797 232.367 198.187 233.061 197.79L240.435 193.537C241.129 193.14 242.164 193.097 242.76 193.438L250.204 197.733C250.799 198.074 250.728 198.683 250.034 199.08L242.661 203.334C241.98 203.731 240.931 203.773 240.335 203.433Z" fill="#BADEF5"/>
<path d="M228.566 196.628L221.122 192.332C220.526 191.992 220.597 191.382 221.292 190.985L228.665 186.732C229.36 186.335 230.395 186.292 230.99 186.632L238.434 190.928C239.03 191.269 238.959 191.878 238.264 192.275L230.891 196.528C230.211 196.939 229.161 196.982 228.566 196.628Z" fill="#BADEF5"/>
<path d="M216.785 189.837L209.341 185.541C208.745 185.201 208.816 184.591 209.511 184.194L216.884 179.941C217.579 179.544 218.614 179.501 219.209 179.841L226.653 184.137C227.249 184.477 227.178 185.087 226.483 185.484L219.11 189.737C218.429 190.134 217.38 190.177 216.785 189.837Z" fill="#BADEF5"/>
<path d="M263.601 216.859L256.157 212.563C255.561 212.223 255.632 211.613 256.327 211.216L263.7 206.963C264.395 206.566 265.43 206.523 266.026 206.864L273.469 211.159C274.065 211.5 273.994 212.109 273.299 212.506L265.926 216.76C265.246 217.157 264.196 217.199 263.601 216.859Z" fill="#BADEF5"/>
<path d="M275.089 223.494L267.645 219.198C267.05 218.858 267.121 218.248 267.815 217.851L275.188 213.598C275.883 213.201 276.918 213.158 277.514 213.499L284.958 217.794C285.553 218.135 285.482 218.744 284.788 219.141L277.415 223.395C276.734 223.792 275.685 223.834 275.089 223.494Z" fill="#BADEF5"/>
<path d="M286.585 230.129L279.141 225.833C278.546 225.493 278.617 224.883 279.311 224.486L286.685 220.233C287.379 219.836 288.414 219.794 289.01 220.134L296.454 224.43C297.049 224.77 296.979 225.38 296.284 225.777L288.911 230.03C288.216 230.427 287.181 230.469 286.585 230.129Z" fill="#BADEF5"/>
<path d="M298.074 236.764L290.63 232.468C290.034 232.128 290.105 231.518 290.8 231.121L298.173 226.868C298.868 226.471 299.903 226.429 300.498 226.769L307.942 231.065C308.538 231.405 308.467 232.015 307.772 232.412L300.399 236.665C299.718 237.062 298.669 237.104 298.074 236.764Z" fill="#BADEF5"/>
<path d="M309.558 243.385L302.114 239.089C301.518 238.749 301.589 238.139 302.284 237.742L309.657 233.489C310.352 233.092 311.387 233.05 311.983 233.39L319.427 237.686C320.022 238.026 319.951 238.635 319.256 239.032L311.883 243.286C311.203 243.697 310.153 243.739 309.558 243.385Z" fill="#BADEF5"/>
<path d="M321.058 250.02L313.614 245.724C313.018 245.384 313.089 244.774 313.784 244.377L321.157 240.124C321.852 239.727 322.887 239.685 323.483 240.025L330.927 244.321C331.522 244.661 331.451 245.27 330.756 245.667L323.383 249.921C322.689 250.332 321.653 250.374 321.058 250.02Z" fill="#BADEF5"/>
<path d="M332.542 256.655L325.098 252.359C324.503 252.019 324.574 251.41 325.268 251.013L332.642 246.759C333.336 246.362 334.371 246.32 334.967 246.66L342.411 250.956C343.006 251.296 342.936 251.906 342.241 252.303L334.868 256.556C334.187 256.953 333.138 256.995 332.542 256.655Z" fill="#BADEF5"/>
<path d="M344.027 263.29L336.583 258.994C335.987 258.654 336.058 258.045 336.753 257.648L344.126 253.394C344.821 252.997 345.856 252.955 346.451 253.295L353.895 257.591C354.491 257.931 354.42 258.541 353.725 258.938L346.352 263.191C345.671 263.588 344.622 263.63 344.027 263.29Z" fill="#BADEF5"/>
<path d="M355.511 269.925L348.067 265.629C347.472 265.275 347.542 264.68 348.237 264.283L355.61 260.029C356.305 259.632 357.34 259.59 357.936 259.93L365.38 264.226C365.975 264.566 365.904 265.176 365.209 265.573L357.836 269.826C357.156 270.223 356.121 270.265 355.511 269.925Z" fill="#BADEF5"/>
<path d="M246.062 193.82L238.618 189.525C238.022 189.184 238.093 188.575 238.788 188.178L246.161 183.925C246.856 183.528 247.891 183.485 248.486 183.825L255.93 188.121C256.526 188.461 256.455 189.071 255.76 189.468L248.387 193.721C247.707 194.118 246.657 194.161 246.062 193.82Z" fill="#BADEF5"/>
<path d="M234.636 187.228L227.192 182.932C226.597 182.592 226.667 181.982 227.362 181.585L234.735 177.332C235.43 176.935 236.465 176.893 237.061 177.233L244.505 181.529C245.1 181.869 245.029 182.478 244.335 182.875L236.961 187.129C236.281 187.526 235.232 187.568 234.636 187.228Z" fill="#BADEF5"/>
<path d="M223.206 180.621L215.762 176.325C215.167 175.985 215.238 175.376 215.933 174.979L223.306 170.725C224 170.328 225.035 170.286 225.631 170.626L233.075 174.922C233.671 175.262 233.6 175.872 232.905 176.269L225.532 180.522C224.837 180.919 223.802 180.961 223.206 180.621Z" fill="#BADEF5"/>
<path d="M211.765 174.029L204.321 169.733C203.725 169.393 203.796 168.783 204.491 168.386L211.864 164.133C212.559 163.736 213.594 163.693 214.19 164.034L221.634 168.329C222.229 168.67 222.158 169.279 221.463 169.676L214.09 173.929C213.41 174.326 212.36 174.369 211.765 174.029Z" fill="#BADEF5"/>
<path d="M223.519 167.238L216.075 162.942C215.479 162.602 215.55 161.992 216.245 161.595L218.684 160.191C219.379 159.794 220.414 159.752 221.009 160.092L228.453 164.388C229.049 164.728 228.978 165.338 228.283 165.735L225.844 167.138C225.164 167.535 224.129 167.578 223.519 167.238Z" fill="#BADEF5"/>
<path d="M238.449 175.843L231.005 171.548C230.409 171.207 230.48 170.598 231.175 170.201L233.614 168.797C234.308 168.4 235.343 168.358 235.939 168.698L243.383 172.994C243.978 173.334 243.907 173.944 243.213 174.341L240.774 175.744C240.079 176.155 239.044 176.198 238.449 175.843Z" fill="#BADEF5"/>
<path d="M249.82 182.422L242.376 178.126C241.78 177.786 241.851 177.176 242.546 176.779L244.985 175.376C245.679 174.979 246.714 174.936 247.31 175.276L254.754 179.572C255.35 179.912 255.279 180.522 254.584 180.919L252.145 182.322C251.464 182.719 250.429 182.762 249.82 182.422Z" fill="#BADEF5"/>
<path d="M261.206 189L253.762 184.704C253.167 184.364 253.238 183.754 253.933 183.357L256.371 181.954C257.066 181.557 258.101 181.514 258.697 181.855L266.141 186.15C266.736 186.491 266.665 187.1 265.971 187.497L263.532 188.901C262.851 189.298 261.802 189.34 261.206 189Z" fill="#BADEF5"/>
<path d="M272.593 195.564L265.149 191.269C264.554 190.928 264.624 190.319 265.319 189.922L267.758 188.518C268.453 188.121 269.488 188.079 270.083 188.419L277.527 192.715C278.123 193.055 278.052 193.665 277.357 194.062L274.918 195.465C274.238 195.862 273.189 195.905 272.593 195.564Z" fill="#BADEF5"/>
<path d="M336.156 232.256L328.712 227.96C328.116 227.62 328.187 227.01 328.882 226.613L331.321 225.21C332.015 224.813 333.05 224.77 333.646 225.11L341.09 229.406C341.685 229.746 341.614 230.356 340.92 230.753L338.481 232.156C337.8 232.553 336.751 232.596 336.156 232.256Z" fill="#BADEF5"/>
<path d="M347.542 238.834L340.098 234.538C339.503 234.198 339.574 233.588 340.268 233.191L342.707 231.788C343.402 231.391 344.437 231.348 345.033 231.688L352.477 235.984C353.072 236.324 353.001 236.934 352.306 237.331L349.868 238.735C349.173 239.132 348.138 239.174 347.542 238.834Z" fill="#BADEF5"/>
<path d="M358.929 245.398L351.485 241.102C350.89 240.762 350.96 240.152 351.655 239.755L354.094 238.352C354.789 237.955 355.824 237.912 356.419 238.253L363.863 242.548C364.459 242.889 364.388 243.498 363.693 243.895L361.254 245.299C360.56 245.696 359.525 245.752 358.929 245.398Z" fill="#BADEF5"/>
<path d="M370.316 251.976L362.872 247.681C362.276 247.34 362.347 246.731 363.042 246.334L365.481 244.93C366.175 244.533 367.211 244.491 367.806 244.831L375.25 249.127C375.846 249.467 375.775 250.077 375.08 250.474L372.641 251.877C371.946 252.274 370.911 252.317 370.316 251.976Z" fill="#BADEF5"/>
<path d="M257.546 200.455L250.102 196.16C249.507 195.819 249.578 195.21 250.272 194.813L257.645 190.56C258.34 190.163 259.375 190.12 259.971 190.46L267.415 194.756C268.01 195.096 267.939 195.706 267.245 196.103L259.872 200.356C259.191 200.753 258.156 200.796 257.546 200.455Z" fill="#BADEF5"/>
<path d="M269.046 207.091L261.602 202.795C261.007 202.454 261.078 201.845 261.772 201.448L269.145 197.195C269.84 196.798 270.875 196.755 271.471 197.095L278.915 201.391C279.51 201.731 279.439 202.341 278.745 202.738L271.372 206.991C270.677 207.388 269.642 207.431 269.046 207.091Z" fill="#BADEF5"/>
<path d="M280.531 213.726L273.087 209.43C272.491 209.09 272.562 208.48 273.257 208.083L280.63 203.83C281.325 203.433 282.36 203.39 282.955 203.731L290.399 208.026C290.995 208.367 290.924 208.976 290.229 209.373L282.856 213.626C282.175 214.023 281.126 214.066 280.531 213.726Z" fill="#BADEF5"/>
<path d="M292.019 220.347L284.575 216.051C283.979 215.711 284.05 215.101 284.745 214.704L292.118 210.451C292.813 210.054 293.848 210.011 294.443 210.351L301.887 214.647C302.483 214.988 302.412 215.597 301.717 215.994L294.344 220.247C293.664 220.659 292.614 220.701 292.019 220.347Z" fill="#BADEF5"/>
<path d="M303.515 226.982L296.071 222.686C295.475 222.346 295.546 221.736 296.241 221.339L303.614 217.086C304.309 216.689 305.344 216.646 305.94 216.986L313.384 221.282C313.979 221.623 313.908 222.232 313.213 222.629L305.84 226.882C305.146 227.293 304.111 227.336 303.515 226.982Z" fill="#BADEF5"/>
<path d="M315.003 233.617L307.559 229.321C306.964 228.981 307.035 228.371 307.729 227.974L315.102 223.721C315.797 223.324 316.832 223.281 317.428 223.621L324.872 227.917C325.467 228.258 325.396 228.867 324.702 229.264L317.329 233.517C316.648 233.914 315.599 233.957 315.003 233.617Z" fill="#BADEF5"/>
<path d="M326.488 240.252L319.044 235.956C318.448 235.616 318.519 235.006 319.214 234.609L326.587 230.356C327.282 229.959 328.317 229.916 328.912 230.257L336.356 234.553C336.952 234.893 336.881 235.502 336.186 235.899L328.813 240.153C328.132 240.55 327.083 240.592 326.488 240.252Z" fill="#BADEF5"/>
<path d="M337.988 246.887L330.544 242.591C329.948 242.251 330.019 241.641 330.714 241.244L338.087 236.991C338.782 236.594 339.817 236.551 340.412 236.892L347.856 241.188C348.452 241.528 348.381 242.137 347.686 242.534L340.313 246.788C339.618 247.185 338.583 247.227 337.988 246.887Z" fill="#BADEF5"/>
<path d="M349.472 253.522L342.028 249.226C341.432 248.886 341.503 248.276 342.198 247.879L349.571 243.626C350.266 243.229 351.301 243.187 351.897 243.527L359.341 247.823C359.936 248.163 359.865 248.772 359.17 249.169L351.797 253.423C351.103 253.82 350.068 253.862 349.472 253.522Z" fill="#BADEF5"/>
<path d="M191.872 201.278L169.966 188.631C169.37 188.291 169.441 187.681 170.136 187.285L177.509 183.031C178.204 182.634 179.239 182.592 179.834 182.932L201.741 195.578C202.336 195.919 202.265 196.528 201.571 196.925L194.197 201.178C193.517 201.575 192.468 201.618 191.872 201.278Z" fill="#BADEF5"/>
<path d="M333.024 282.756L311.118 270.109C310.522 269.769 310.593 269.16 311.288 268.763L318.661 264.509C319.356 264.112 320.391 264.07 321.001 264.41L342.907 277.056C343.503 277.397 343.432 278.006 342.737 278.403L335.364 282.656C334.655 283.053 333.62 283.096 333.024 282.756Z" fill="#BADEF5"/>
<path d="M287.07 270.889L279.626 266.594C279.03 266.253 279.101 265.644 279.796 265.247L288.573 260.171C289.267 259.774 290.302 259.732 290.898 260.072L298.342 264.368C298.937 264.708 298.867 265.318 298.172 265.715L289.395 270.79C288.714 271.187 287.665 271.23 287.07 270.889Z" fill="#BADEF5"/>
<path d="M203.639 222.714L191.743 215.838C191.147 215.498 191.218 214.888 191.913 214.491L200.69 209.416C201.385 209.019 202.42 208.976 203.015 209.317L214.911 216.193C215.507 216.533 215.436 217.143 214.741 217.539L205.964 222.615C205.27 223.012 204.235 223.054 203.639 222.714Z" fill="#BADEF5"/>
<path d="M275.995 264.495L264.098 257.619C263.503 257.279 263.574 256.669 264.268 256.272L273.045 251.197C273.74 250.8 274.775 250.757 275.371 251.098L287.267 257.974C287.862 258.314 287.791 258.924 287.097 259.32L278.32 264.396C277.639 264.793 276.59 264.836 275.995 264.495Z" fill="#BADEF5"/>
<path d="M220.213 232.284L208.317 225.408C207.722 225.068 207.792 224.458 208.487 224.061L217.264 219C217.959 218.603 218.994 218.56 219.589 218.9L231.486 225.776C232.081 226.117 232.01 226.726 231.315 227.123L222.539 232.199C221.844 232.582 220.809 232.624 220.213 232.284Z" fill="#BADEF5"/>
<path d="M219.677 218.957L271.402 248.815C272.04 249.183 272.04 249.779 271.402 250.162L262.441 255.336C261.803 255.705 260.754 255.705 260.116 255.336L208.391 225.479L219.677 218.957Z" fill="#BADEF5"/>
<path d="M319.184 282.912L327.478 287.689C327.96 287.973 327.904 288.469 327.337 288.795L323.749 290.865C323.182 291.191 322.331 291.234 321.835 290.95L313.555 286.172C313.058 285.889 313.129 285.393 313.696 285.067L317.284 282.997C317.837 282.656 318.687 282.628 319.184 282.912Z" fill="#BADEF5"/>
<path d="M307.6 276.22L315.881 280.998C316.377 281.281 316.306 281.777 315.739 282.104L312.152 284.174C311.584 284.5 310.734 284.542 310.237 284.259L301.957 279.467C301.461 279.183 301.531 278.687 302.099 278.361L305.686 276.291C306.253 275.979 307.104 275.936 307.6 276.22Z" fill="#BADEF5"/>
<path d="M296.102 269.585L304.396 274.377C304.878 274.661 304.822 275.157 304.254 275.483L300.667 277.553C300.1 277.879 299.249 277.921 298.753 277.624L290.472 272.846C289.976 272.562 290.047 272.066 290.614 271.74L294.202 269.67C294.755 269.344 295.619 269.302 296.102 269.585Z" fill="#BADEF5"/>
<path d="M313.94 272.562L322.221 277.354C322.717 277.638 322.646 278.134 322.079 278.46L318.491 280.53C317.924 280.856 317.074 280.899 316.577 280.615L308.297 275.837C307.8 275.554 307.871 275.057 308.439 274.731L312.026 272.661C312.593 272.307 313.458 272.279 313.94 272.562Z" fill="#BADEF5"/>
<path d="M378.524 118.382L303.801 75.2401L304.765 70.3914L379.488 113.519L378.524 118.382Z" fill="#86D0DA"/>
<path d="M351.766 126.577L299.602 96.4637L300.566 91.615L352.716 121.728L351.766 126.577Z" fill="#86D0DA"/>
<path d="M346.835 111.903L301.703 85.859L302.667 80.9961L347.785 107.054L346.835 111.903Z" fill="white"/>
<path d="M376.426 129.001L353.867 115.972L354.831 111.109L377.39 124.138L376.426 129.001Z" fill="#FFC634"/>
<path d="M377.828 166.132L364.627 228.711L317.227 201.363L327.577 181.018L377.828 166.132Z" fill="#00769D"/>
<path d="M230.976 262.326C217.789 254.713 217.789 235.687 230.976 228.073L297.249 189.808L364.627 228.711L306.394 262.326C283.07 275.795 254.315 275.795 230.976 262.326Z" fill="#86D0DA"/>
<path d="M291.764 68.8033L268.453 55.3489L269.446 50.3301L292.756 63.7845L291.764 68.8033Z" fill="#DFFBFF"/>
<path d="M289.693 79.4366L266.383 65.9822L267.375 60.9634L290.686 74.432L289.693 79.4366Z" fill="white"/>
<path d="M88.3633 193.48H88.3917C77.729 187.554 71.0649 174.582 71.0082 155.995C70.8948 119.219 96.6722 74.2476 128.462 55.7602L151.403 42.4192L152.509 43.043L257.774 102.234L231.104 119.559L221.093 126.889L207.311 141.293L205.099 143.32L190.424 165.536L185.05 179.445L181.066 190.503L177.791 213.712L177.564 215.711L178.755 225.493L182.143 237.601L186.922 245.809L193.87 254.046L88.3633 193.48Z" fill="#86D0DA"/>
<path d="M272.562 101.78L272.576 105.679L202.73 146.227C203.907 143.519 206.148 141.265 208.43 139.01L272.562 101.78Z" fill="#DFFBFF"/>
<path d="M377.816 162.233L272.565 101.78L208.83 140.031L200.847 149.317L188.88 170.371L181.351 191.41L178.898 207.856L178.586 224.274L188.866 247.752L202.237 255.563L215.99 256.286L232.466 249.439L362.8 172.781L377.816 162.233Z" fill="#DFFBFF"/>
<path d="M88.3788 193.494C79.446 188.532 73.3491 178.622 71.5625 164.643L178.926 226.174L182.116 237.615L186.895 245.824L193.843 254.061L88.3647 193.494H88.3788Z" fill="#00A0B6"/>
<path d="M71.9729 167.323C71.3632 163.821 71.0087 160.05 71.0087 156.009C70.9945 153.301 71.1505 150.551 71.4057 147.758L178.429 209.09L177.777 213.697L177.55 215.696L178.741 225.479L179.748 229.08L71.9729 167.323Z" fill="#00769D"/>
<path d="M377.827 166.132L377.813 162.233L234.109 245.724C204.163 263.134 179.718 249.127 179.619 214.491C179.505 179.856 203.78 137.522 233.726 120.112L257.773 106.133L257.759 102.234L233.712 116.213C201.908 134.7 176.145 179.671 176.258 216.448C176.372 253.224 202.333 268.11 234.137 249.623L377.827 166.132Z" fill="#00769D"/>
<path d="M320.473 173.603L255.774 135.877L251.719 138.202L316.418 175.914L320.473 173.603Z" fill="#86D0DA"/>
<path d="M318.673 152.068L273.512 125.74L269.457 128.065L314.617 154.393L318.673 152.068Z" fill="#86D0DA"/>
<path d="M303.715 153.585L264.651 130.816L260.582 133.127L299.659 155.91L303.715 153.585Z" fill="#86D0DA"/>
<path d="M329.352 168.528L309.813 157.143L305.758 159.468L325.297 170.853L329.352 168.528Z" fill="#86D0DA"/>
<path d="M314.958 370.855L454.55 290.213C457.939 288.257 457.514 284.84 453.6 282.586C449.687 280.331 443.789 280.09 440.4 282.033L300.807 362.674C297.418 364.631 297.844 368.048 301.757 370.302C305.671 372.57 311.569 372.811 314.958 370.855Z" fill="#F0EFEF"/>
<path d="M465.95 262.652C465.837 262.454 465.61 262.354 465.383 262.397L457.953 263.928L460.817 268.933L465.893 263.29C466.049 263.106 466.063 262.851 465.95 262.652Z" fill="#FFC634"/>
<path d="M463.001 266.296C463.001 265.218 462.249 263.928 461.328 263.389C460.902 263.134 460.52 263.106 460.222 263.233C451.658 263.077 443.207 265.247 435.777 269.514L435.238 269.826L444.299 285.591L447.035 283.819C452.835 280.062 457.726 275.072 461.399 269.216L462.576 267.331C462.831 267.132 462.987 266.792 463.001 266.296Z" fill="#86D0DA"/>
<path d="M446.171 281.437C446.185 277.34 443.306 272.35 439.762 270.294C436.217 268.238 433.338 269.897 433.324 273.994C433.31 278.091 436.188 283.082 439.733 285.138C443.278 287.193 446.156 285.535 446.171 281.437Z" fill="#86D0DA"/>
<path d="M389.273 319.107L444.273 285.591L435.227 269.826L378.582 300.478L389.273 319.107Z" fill="#86D0DA"/>
<path d="M391.511 314.187C391.526 309.339 388.137 303.455 383.94 301.016C379.757 298.592 376.34 300.549 376.34 305.383C376.326 310.218 379.714 316.115 383.911 318.554C388.094 320.993 391.497 319.036 391.511 314.187Z" fill="#DFFBFF"/>
<path d="M388.379 315.988C388.393 311.139 385.004 305.255 380.807 302.817C376.624 300.393 373.207 302.349 373.207 307.184C373.193 312.032 376.582 317.916 380.779 320.354C384.962 322.793 388.365 320.837 388.379 315.988Z" fill="#DFFBFF"/>
<path d="M313.4 362.703L386.139 320.907L375.434 302.278L302.695 344.073L313.4 362.703Z" fill="#DFFBFF"/>
<path d="M315.625 357.783C315.639 352.934 312.25 347.051 308.053 344.612C303.87 342.188 300.453 344.13 300.453 348.979C300.439 353.828 303.828 359.725 308.025 362.15C312.222 364.588 315.625 362.632 315.625 357.783Z" fill="#DFFBFF"/>
<path d="M312.916 356.209C312.774 353.345 310.491 349.773 307.797 348.213C305.103 346.654 303.033 347.703 303.175 350.567C303.317 353.431 305.599 357.003 308.293 358.563C310.987 360.122 313.058 359.073 312.916 356.209Z" fill="#00A0B6"/>
<path d="M392.065 313.875C392.079 309.027 388.69 303.143 384.493 300.705C382.806 299.726 381.246 299.471 379.984 299.811C381.36 298.394 383.614 298.252 386.152 299.726C390.335 302.151 393.724 308.048 393.724 312.897C393.724 315.789 392.49 317.647 390.633 318.157C391.526 317.236 392.065 315.789 392.065 313.875Z" fill="white"/>
<path d="M392.064 313.875C392.078 309.027 388.689 303.143 384.492 300.704C382.394 299.485 380.494 299.372 379.118 300.166L374.992 302.533L376.906 305.879C377.218 310.288 380.111 315.336 383.769 317.817L385.683 321.163L389.809 318.795C391.199 318.001 392.064 316.3 392.064 313.875Z" fill="#86D0DA"/>
<path d="M387.937 316.243C387.951 311.394 384.563 305.51 380.366 303.072C376.169 300.648 372.766 302.59 372.766 307.439C372.751 312.273 376.14 318.171 380.337 320.61C384.52 323.034 387.923 321.092 387.937 316.243Z" fill="#DFFBFF"/>
<path d="M309.487 358.322L304.864 350.283L289.452 359.144C287.225 360.42 286.474 363.256 287.736 365.467C289.012 367.693 291.848 368.444 294.06 367.183L309.487 358.322Z" fill="#FFC634"/>
<path d="M310.451 356.209C310.451 354.125 308.99 351.573 307.189 350.524C305.389 349.475 303.914 350.326 303.914 352.41C303.914 354.494 305.375 357.046 307.175 358.095C308.976 359.144 310.451 358.293 310.451 356.209Z" fill="#FFC634"/>
<path d="M327.762 328.18L325.479 326.848C324.16 326.082 322.416 326.252 320.559 327.33L312.633 331.881C311.144 332.731 309.91 334.844 309.91 336.574L309.896 340.515C309.896 341.181 309.57 341.933 309.088 342.486L309.371 344.314L307.415 343.166C307.131 343.024 306.961 342.684 306.961 342.202L306.975 338.261C306.989 334.66 309.527 330.279 312.647 328.492L320.573 323.941C323.224 322.424 325.706 322.183 327.577 323.261L329.86 324.594C331.179 325.359 332.923 325.189 334.78 324.112L366.711 305.766C367.123 305.525 367.491 305.511 367.761 305.681L369.703 306.815L368.016 307.439C367.775 308.148 367.279 308.814 366.697 309.154L334.766 327.5C332.129 329.017 329.633 329.258 327.762 328.18Z" fill="#86D0DA"/>
<path d="M327.466 328.01C326.147 327.245 324.403 327.415 322.545 328.492L314.619 333.043C313.131 333.908 311.897 336.006 311.897 337.722L311.883 341.663C311.883 342.599 311.216 343.733 310.408 344.201C309.6 344.669 308.934 344.286 308.934 343.35V339.409C308.948 335.808 311.486 331.427 314.605 329.641L322.531 325.09C325.183 323.573 327.664 323.332 329.536 324.409L331.819 325.742C333.137 326.508 334.881 326.337 336.739 325.26L368.67 306.914C369.478 306.446 370.145 306.829 370.145 307.765C370.145 308.701 369.478 309.835 368.67 310.303L336.739 328.648C334.087 330.165 331.606 330.406 329.734 329.329L327.466 328.01Z" fill="#86D0DA"/>
<path d="M311.798 338.374L311.784 342.315L311.77 342.4C311.84 342.159 311.883 341.904 311.883 341.663L311.897 337.722L311.926 337.382C311.855 337.722 311.798 338.048 311.798 338.374Z" fill="white"/>
<path d="M296.84 377.305L311.444 368.87C313.202 367.849 312.99 366.077 310.948 364.9C308.92 363.723 305.843 363.596 304.071 364.616L289.467 373.052C287.708 374.073 287.921 375.845 289.963 377.022C292.005 378.198 295.081 378.326 296.84 377.305Z" fill="#F0EFEF"/>
<path d="M19.5104 222.459L0 211.188L19.5104 199.931L39.0349 211.188L19.5104 222.459Z" fill="#F0EFEF"/>
<path d="M39.0363 198.414L19.5117 209.685V187.143L39.0363 175.886V198.414Z" fill="#FFA234"/>
<path d="M19.5104 187.143L0 175.886L19.5104 164.615L39.0349 175.886L19.5104 187.143Z" fill="#FFC634"/>
<path d="M19.5104 209.685L0 198.414V175.886L19.5104 187.143V209.685Z" fill="#FFC634"/>
<path d="M466.264 226.599L444.527 214.052L466.264 201.505L488 214.052L466.264 226.599Z" fill="#F0EFEF"/>
<path d="M487.998 199.818L466.262 212.365V187.27L487.998 174.723V199.818Z" fill="#DF435B"/>
<path d="M466.264 187.27L444.527 174.723L466.264 162.176L488 174.723L466.264 187.27Z" fill="#FF647C"/>
<path d="M466.264 212.365L444.527 199.818V174.723L466.264 187.27V212.365Z" fill="#FF647C"/>
<path d="M154.608 375.944L132.871 363.397L154.608 350.85L176.344 363.397L154.608 375.944Z" fill="#F0EFEF"/>
<path d="M176.346 349.163L154.609 361.71V336.616L176.346 324.055V349.163Z" fill="#367CE6"/>
<path d="M154.608 336.616L132.871 324.055L154.608 311.508L176.344 324.069L154.608 336.616Z" fill="#65A2FD"/>
<path d="M154.608 361.71L132.871 349.163V324.055L154.608 336.616V361.71Z" fill="#65A2FD"/>
<path d="M254.981 196.245C242.078 203.688 221.164 203.688 208.275 196.245C195.372 188.802 195.372 176.722 208.275 169.279C221.178 161.836 242.092 161.836 254.981 169.279C267.884 176.722 267.884 188.802 254.981 196.245Z" fill="#86D0DA"/>
<path d="M264.667 172.951V166.883H262.923C261.349 164.175 258.726 161.623 254.997 159.468C242.094 152.025 221.18 152.025 208.291 159.468C204.562 161.623 201.939 164.175 200.365 166.883H198.621V172.909C198.607 177.8 201.826 182.705 208.291 186.448C221.194 193.891 242.108 193.891 254.997 186.448C261.434 182.719 264.667 177.842 264.667 172.951Z" fill="#FFA234"/>
<path d="M254.981 180.366C242.078 187.809 221.164 187.809 208.275 180.366C195.372 172.923 195.372 160.844 208.275 153.4C221.178 145.957 242.092 145.957 254.981 153.4C267.884 160.844 267.884 172.923 254.981 180.366Z" fill="#FFC634"/>
<path d="M254.983 180.366C242.081 187.809 221.166 187.809 208.278 180.366C202.096 176.793 198.905 172.171 198.65 167.493C198.367 172.568 201.557 177.701 208.278 181.585C221.181 189.029 242.095 189.029 254.983 181.585C261.704 177.701 264.88 172.583 264.611 167.493C264.356 172.171 261.166 176.793 254.983 180.366Z" fill="white"/>
<path d="M215.705 173.192C215.152 172.866 214.84 172.441 214.84 171.973L214.868 159.554C214.868 158.604 216.201 157.838 217.846 157.838C219.491 157.838 220.809 158.604 220.809 159.554L220.781 169.861L250.684 166.203C252.287 166.004 253.875 166.6 254.215 167.521C254.555 168.443 253.534 169.364 251.932 169.563L218.441 173.66C217.562 173.774 216.641 173.646 215.946 173.32L215.705 173.192Z" fill="white"/>
<path d="M376.211 137.309C375.616 138.599 374.127 139.053 372.879 138.33C371.631 137.607 371.093 135.976 371.688 134.7C372.284 133.41 373.772 132.956 375.02 133.665C376.268 134.388 376.793 136.019 376.211 137.309Z" fill="#FFC634"/>
<path d="M384.196 141.917C383.6 143.207 382.111 143.66 380.864 142.937C379.616 142.214 379.077 140.584 379.673 139.294C380.268 138.004 381.757 137.55 383.005 138.273C384.252 138.996 384.777 140.626 384.196 141.917Z" fill="white"/>
<path d="M392.176 146.525C391.581 147.815 390.092 148.268 388.844 147.545C387.596 146.822 387.057 145.192 387.653 143.902C388.248 142.612 389.737 142.158 390.985 142.881C392.233 143.604 392.757 145.234 392.176 146.525Z" fill="#DFFBFF"/>
<path d="M400.16 151.132C399.565 152.422 398.076 152.876 396.828 152.153C395.581 151.43 395.042 149.799 395.637 148.509C396.233 147.219 397.722 146.765 398.969 147.488C400.203 148.211 400.742 149.842 400.16 151.132Z" fill="#FFC634"/>
<path d="M152.511 43.043L151.405 42.4192L128.463 55.7602C120.934 60.141 113.746 66.0247 107.152 72.9149L146.442 95.5989L195.559 67.244L152.511 43.043Z" fill="#00769D"/>
<path d="M194.492 43.7235L187.36 39.612L213.634 24.4421C214.881 23.7191 214.881 22.5565 213.634 21.8476L186.807 6.35164C185.559 5.64276 183.546 5.64276 182.312 6.35164L156.038 21.5215L148.906 17.4101L175.18 2.24017C180.355 -0.75128 188.764 -0.75128 193.939 2.24017L220.78 17.7362C225.955 20.7276 225.955 25.5763 220.78 28.5677L194.492 43.7235Z" fill="#65A2FD"/>
<path d="M205.992 45.5383C205.992 41.7246 203.681 37.3012 200.816 35.6566L153.217 8.16646C151.941 7.42923 150.764 7.37252 149.871 7.88291L93.0273 40.9165L147.999 82.3289L203.993 49.8341C204.163 49.749 204.333 49.664 204.489 49.5505C205.41 48.8275 205.992 47.4381 205.992 45.5383Z" fill="#DFFBFF"/>
<path d="M147.987 82.3288L203.98 49.834C204.15 49.7489 204.32 49.6638 204.476 49.5504C205.412 48.8416 205.993 47.4522 205.993 45.5524C205.993 43.7377 205.454 41.7812 204.604 40.0515L140.77 76.8846L147.987 82.3288Z" fill="#86D0DA"/>
<path d="M144.414 82.1728L96.8003 54.6969C93.9362 53.0523 91.625 48.6147 91.625 44.8152C91.625 41.0014 93.9362 39.2576 96.8003 40.9022L144.399 68.3781C147.264 70.0227 149.575 74.4603 149.575 78.2598C149.589 82.0736 147.264 83.8316 144.414 82.1728Z" fill="#86D0DA"/>
<path d="M144.981 68.1229L97.382 40.647C96.0633 39.8814 94.8723 39.853 93.9648 40.406C94.7872 40.1508 95.7656 40.3067 96.8148 40.9164L144.414 68.3923C147.278 70.0369 149.589 74.4745 149.589 78.274C149.589 80.3298 148.909 81.7759 147.845 82.428C149.249 82.0027 150.171 80.4148 150.171 78.0188C150.156 74.1909 147.845 69.7675 144.981 68.1229Z" fill="white"/>
<path d="M137.283 72.9006L131.555 69.5973C130.987 69.2712 130.52 68.3922 130.52 67.6266C130.52 66.861 130.987 66.5208 131.555 66.8469L137.283 70.1502C137.85 70.4763 138.318 71.3553 138.318 72.1209C138.318 72.8865 137.85 73.2409 137.283 72.9006Z" fill="white"/>
<path d="M143.734 33.8275C145.464 32.8067 145.45 31.1763 143.692 30.1981C141.948 29.2198 139.126 29.2482 137.396 30.2689C135.666 31.2897 135.681 32.9201 137.439 33.8984C139.197 34.8908 142.004 34.8624 143.734 33.8275Z" fill="#86D0DA"/>
<path d="M153.316 39.2291C155.046 38.2083 155.032 36.5779 153.274 35.5997C151.53 34.6214 148.708 34.6498 146.978 35.6706C145.248 36.6913 145.263 38.3217 147.021 39.3C148.779 40.2924 151.586 40.2499 153.316 39.2291Z" fill="white"/>
<path d="M162.902 44.6307C164.632 43.6099 164.604 41.9795 162.86 41.0013C161.116 40.023 158.294 40.0514 156.564 41.0722C154.834 42.0929 154.849 43.7234 156.607 44.7016C158.365 45.6798 161.172 45.6515 162.902 44.6307Z" fill="white"/>
<path d="M49.3574 333.143L5.81362 308.006C3.14796 306.461 3.47408 303.767 6.56511 301.995L48.606 277.737C51.697 275.951 56.3619 275.766 59.0276 277.298L102.557 302.434C105.223 303.98 104.897 306.673 101.806 308.445L59.779 332.717C56.688 334.489 52.0231 334.688 49.3574 333.143Z" fill="#F0EFEF"/>
<path d="M104.342 290.27V275.256L70.6668 275.242L59.0258 268.522C56.3601 266.976 51.681 267.175 48.6042 268.947L37.7431 275.213L4.0253 275.199V290.638C3.95441 291.688 4.53575 292.694 5.81186 293.431L49.3415 318.554C52.0072 320.099 56.6863 319.901 59.7631 318.129L101.79 293.857C103.591 292.85 104.441 291.518 104.342 290.27Z" fill="#00A0B6"/>
<path d="M54.1907 267.487C52.234 267.529 50.2064 268.026 48.6042 268.947L37.7431 275.214L4.0253 275.199V290.639C3.95441 291.688 4.53575 292.694 5.81186 293.432L49.3415 318.554C50.6176 319.291 52.3758 319.632 54.1766 319.589V267.487H54.1907Z" fill="#00A0B6"/>
<path d="M7.83947 275.199H4.0253V290.638C3.95441 291.688 4.53575 292.694 5.81186 293.431L7.83947 294.594V275.199Z" fill="#86D0DA"/>
<path d="M50.0234 318.894C52.3346 319.887 55.6667 319.83 58.3607 318.795V301.257H50.0234V318.894Z" fill="#86D0DA"/>
<path d="M49.3574 303.185L5.81362 278.049C3.14796 276.503 3.47408 273.81 6.56511 272.038L48.606 247.766C51.697 245.979 56.3619 245.795 59.0276 247.34L102.557 272.477C105.223 274.022 104.897 276.716 101.806 278.488L59.779 302.76C56.688 304.532 52.0231 304.717 49.3574 303.185Z" fill="#DFFBFF"/>
<path d="M101.807 275.525L59.7807 299.783C56.6896 301.569 52.0247 301.754 49.3591 300.222L5.81525 275.086C5.21973 274.745 4.78018 274.334 4.48242 273.909C3.56078 275.383 3.98615 276.986 5.81525 278.049L49.3449 303.186C52.0106 304.731 56.6896 304.532 59.7665 302.746L101.793 278.474C104.189 277.085 104.913 275.157 103.877 273.64C103.48 274.32 102.772 274.972 101.807 275.525Z" fill="white"/>
<path d="M88.3367 294.24C88.3367 295.36 87.5427 296.721 86.5785 297.288C85.6002 297.855 84.8203 297.401 84.8203 296.267C84.8203 295.147 85.6002 293.786 86.5785 293.219C87.5569 292.666 88.3367 293.12 88.3367 294.24Z" fill="#DFFBFF"/>
<path d="M93.9929 290.979C93.9929 292.099 93.2131 293.46 92.2348 294.027C91.2706 294.58 90.4766 294.126 90.4766 293.006C90.4766 291.886 91.2706 290.525 92.2348 289.958C93.2131 289.391 93.9929 289.845 93.9929 290.979Z" fill="#DFFBFF"/>
<path d="M99.6492 287.704C99.6492 288.824 98.8552 290.185 97.891 290.752C96.9268 291.319 96.1328 290.865 96.1328 289.731C96.1328 288.611 96.9127 287.25 97.891 286.683C98.8552 286.13 99.6492 286.584 99.6492 287.704Z" fill="#DFFBFF"/>
<path d="M51.9244 287.605L31.5491 275.851C30.3013 275.128 30.4573 273.867 31.9036 273.03L51.5699 261.674C53.0162 260.838 55.1997 260.752 56.4475 261.476L76.8228 273.243C78.0705 273.966 77.9146 275.228 76.4683 276.064L56.802 287.42C55.3557 288.228 53.1721 288.313 51.9244 287.605Z" fill="#86D0DA"/>
<path d="M53.8808 277.751L51.0592 276.121C50.8891 276.022 50.9032 275.851 51.1017 275.738L53.8241 274.164C54.0226 274.051 54.3204 274.037 54.5047 274.136L57.3263 275.766C57.4965 275.866 57.4823 276.036 57.2838 276.149L54.5614 277.723C54.3487 277.836 54.051 277.85 53.8808 277.751Z" fill="#DFFBFF"/>
<path d="M31.5636 275.837L31.6203 275.866L31.918 275.667L51.5844 264.311C53.0306 263.474 55.2142 263.389 56.4619 264.112L76.7805 275.837C77.929 275.015 77.9857 273.895 76.8372 273.214L56.4619 261.447C55.2142 260.724 53.0306 260.823 51.5844 261.646L31.918 273.002C30.4576 273.852 30.3016 275.114 31.5636 275.837Z" fill="#00A0B6"/>
</g>
<defs>
<clipPath id="clip0">
<rect width="488" height="378" fill="white"/>
</clipPath>
</defs>
</svg>
