<svg fill="none" height="297" viewBox="0 0 314 297" width="314" xmlns="http://www.w3.org/2000/svg" xmlns:xlink="http://www.w3.org/1999/xlink"><filter id="a" color-interpolation-filters="sRGB" filterUnits="userSpaceOnUse" height="287" width="287" x="27" y="0"><feFlood flood-opacity="0" result="BackgroundImageFix"/><feColorMatrix in="SourceAlpha" result="hardAlpha" type="matrix" values="0 0 0 0 0 0 0 0 0 0 0 0 0 0 0 0 0 0 127 0"/><feOffset dy="15"/><feGaussianBlur stdDeviation="22.5"/><feColorMatrix type="matrix" values="0 0 0 0 0.719566 0 0 0 0 0.748166 0 0 0 0 0.795833 0 0 0 0.25 0"/><feBlend in2="BackgroundImageFix" mode="normal" result="effect1_dropShadow_3524:17033"/><feBlend in="SourceGraphic" in2="effect1_dropShadow_3524:17033" mode="normal" result="shape"/></filter><filter id="b" color-interpolation-filters="sRGB" filterUnits="userSpaceOnUse" height="173" width="173" x="0" y="124"><feFlood flood-opacity="0" result="BackgroundImageFix"/><feColorMatrix in="SourceAlpha" result="hardAlpha" type="matrix" values="0 0 0 0 0 0 0 0 0 0 0 0 0 0 0 0 0 0 127 0"/><feOffset dx="9" dy="20"/><feGaussianBlur stdDeviation="20"/><feColorMatrix type="matrix" values="0 0 0 0 0 0 0 0 0 0.351917 0 0 0 0 0.429167 0 0 0 0.25 0"/><feBlend in2="BackgroundImageFix" mode="normal" result="effect1_dropShadow_3524:17033"/><feBlend in="SourceGraphic" in2="effect1_dropShadow_3524:17033" mode="normal" result="shape"/></filter><clipPath id="c"><path d="m137 85h77v77h-77z"/></clipPath><g filter="url(#a)"><rect fill="#fff" height="197" rx="30" width="197" x="72" y="30"/></g><g filter="url(#b)"><rect fill="#96d2e6" height="93" rx="22" width="93" x="31" y="144"/></g><rect fill="#ffc634" height="49" rx="11" width="49" x="245" y="144"/><rect fill="#9cd7eb" height="20" rx="10" transform="matrix(-1 0 0 -1 330 80)" width="57" x="165" y="40"/><rect fill="#9cd7eb" height="20" rx="10" transform="matrix(-1 0 0 -1 466 474)" width="28" x="233" y="237"/><g fill="#fff"><path d="m77.5 213c-6.01 0-11.6603-2.34-15.91-6.59-4.2496-4.25-6.59-9.9-6.59-15.91s2.3404-11.66 6.59-15.91 9.9-6.59 15.91-6.59 11.6603 2.34 15.91 6.59c4.2496 4.25 6.59 9.9 6.59 15.91s-2.3404 11.66-6.59 15.91-9.9 6.59-15.91 6.59zm0-42.188c-10.8557 0-19.6875 8.832-19.6875 19.688s8.8318 19.688 19.6875 19.688 19.6875-8.832 19.6875-19.688-8.8318-19.688-19.6875-19.688z"/><path d="m77.5 189.094c-1.9385 0-3.5156-1.577-3.5156-3.516 0-1.938 1.5771-3.516 3.5156-3.516s3.5156 1.578 3.5156 3.516c0 .777.6296 1.406 1.4063 1.406s1.4062-.629 1.4062-1.406c0-3.006-2.1074-5.527-4.9219-6.169v-1.565c0-.777-.6295-1.406-1.4062-1.406s-1.4062.629-1.4062 1.406v1.565c-2.8145.642-4.9219 3.163-4.9219 6.169 0 3.489 2.8388 6.328 6.3281 6.328 1.9385 0 3.5156 1.577 3.5156 3.516 0 1.938-1.5771 3.516-3.5156 3.516s-3.5156-1.578-3.5156-3.516c0-.777-.6296-1.406-1.4063-1.406s-1.4062.629-1.4062 1.406c0 3.006 2.1074 5.527 4.9219 6.169v1.565c0 .777.6295 1.406 1.4062 1.406s1.4062-.629 1.4062-1.406v-1.565c2.8145-.642 4.9219-3.163 4.9219-6.169 0-3.489-2.8388-6.328-6.3281-6.328z"/><path d="m269.5 180c-3.072 0-5.96-1.196-8.132-3.368s-3.368-5.06-3.368-8.132 1.196-5.96 3.368-8.132 5.06-3.368 8.132-3.368 5.96 1.196 8.132 3.368 3.368 5.06 3.368 8.132-1.196 5.96-3.368 8.132-5.06 3.368-8.132 3.368zm0-21.562c-5.548 0-10.062 4.514-10.062 10.062s4.514 10.062 10.062 10.062 10.062-4.514 10.062-10.062-4.514-10.062-10.062-10.062z"/><path d="m269.5 167.781c-.991 0-1.797-.806-1.797-1.797 0-.99.806-1.796 1.797-1.796s1.797.806 1.797 1.796c0 .397.322.719.719.719s.718-.322.718-.719c0-1.536-1.077-2.825-2.515-3.153v-.8c0-.397-.322-.719-.719-.719s-.719.322-.719.719v.8c-1.438.328-2.515 1.617-2.515 3.153 0 1.784 1.451 3.235 3.234 3.235.991 0 1.797.806 1.797 1.797 0 .99-.806 1.796-1.797 1.796s-1.797-.806-1.797-1.796c0-.397-.322-.719-.719-.719s-.718.322-.718.719c0 1.536 1.077 2.825 2.515 3.153v.8c0 .397.322.719.719.719s.719-.322.719-.719v-.8c1.438-.328 2.515-1.617 2.515-3.153 0-1.784-1.451-3.235-3.234-3.235z"/></g><g clip-path="url(#c)" fill="#00a0b6"><path d="m205.177 158.741h-59.354c-4.867 0-8.823-3.955-8.823-8.822v-52.9377c0-4.8671 3.956-8.8231 8.823-8.8231h59.354c4.867 0 8.823 3.956 8.823 8.8231v52.9377c0 4.867-3.956 8.822-8.823 8.822zm-59.354-65.7703c-2.211 0-4.011 1.8-4.011 4.0106v52.9377c0 2.21 1.8 4.01 4.011 4.01h59.354c2.211 0 4.011-1.8 4.011-4.01v-52.9377c0-2.2106-1.8-4.0106-4.011-4.0106z"/><path d="m211.594 112.221h-72.188c-1.328 0-2.406-1.078-2.406-2.407 0-1.328 1.078-2.406 2.406-2.406h72.188c1.328 0 2.406 1.078 2.406 2.406 0 1.329-1.078 2.407-2.406 2.407z"/><path d="m211.594 128.263h-72.188c-1.328 0-2.406-1.078-2.406-2.407 0-1.328 1.078-2.406 2.406-2.406h72.188c1.328 0 2.406 1.078 2.406 2.406 0 1.329-1.078 2.407-2.406 2.407z"/><path d="m211.594 144.304h-72.188c-1.328 0-2.406-1.078-2.406-2.407 0-1.328 1.078-2.406 2.406-2.406h72.188c1.328 0 2.406 1.078 2.406 2.406 0 1.329-1.078 2.407-2.406 2.407z"/><path d="m157.052 158.741c-1.328 0-2.406-1.078-2.406-2.406v-46.521c0-1.328 1.078-2.406 2.406-2.406s2.406 1.078 2.406 2.406v46.521c0 1.328-1.078 2.406-2.406 2.406z"/><path d="m175.5 158.741c-1.328 0-2.406-1.078-2.406-2.406v-46.521c0-1.328 1.078-2.406 2.406-2.406s2.406 1.078 2.406 2.406v46.521c0 1.328-1.078 2.406-2.406 2.406z"/><path d="m193.948 158.741c-1.328 0-2.406-1.078-2.406-2.406v-46.521c0-1.328 1.078-2.406 2.406-2.406s2.406 1.078 2.406 2.406v46.521c0 1.328-1.078 2.406-2.406 2.406z"/></g></svg>