<svg fill="none" height="30" viewBox="0 0 30 30" width="30" xmlns="http://www.w3.org/2000/svg"><rect fill="#00b6ab" height="30" rx="7" width="30"/><path clip-rule="evenodd" d="m15 6c-4.9706 0-9 4.0294-9 9s4.0294 9 9 9 9-4.0294 9-9c0-2.3869-.9482-4.6761-2.636-6.36396-1.6879-1.68783-3.9771-2.63604-6.364-2.63604zm2.454 6.5454c.4519 0 .8182-.3663.8182-.8182 0-.4518-.3663-.8181-.8182-.8181h-1.6363v-.8182c0-.45188-.3663-.81819-.8182-.81819s-.8182.36631-.8182.81819v.8182c-1.3556 0-2.4545 1.0989-2.4545 2.4545s1.0989 2.4546 2.4545 2.4546h1.6364c.4518 0 .8182.3663.8182.8181 0 .4519-.3664.8182-.8182.8182h-3.2728c-.4518 0-.8181.3663-.8181.8182s.3663.8182.8181.8182h1.6364v.8182c0 .4518.3663.8181.8182.8181s.8182-.3663.8182-.8181v-.8182c1.3556 0 2.4545-1.0989 2.4545-2.4546 0-1.3556-1.0989-2.4545-2.4545-2.4545h-1.6364c-.4519 0-.8182-.3663-.8182-.8182s.3663-.8182.8182-.8182zm-9.81778 2.4547c0 4.0668 3.29678 7.3636 7.36368 7.3636 4.0668 0 7.3636-3.2968 7.3636-7.3636s-3.2968-7.36363-7.3636-7.36363c-4.0669 0-7.36368 3.29683-7.36368 7.36363z" fill="#fff" fill-rule="evenodd"/></svg>