<?xml version="1.0" encoding="UTF-8"?>
<svg width="100px" height="100px" viewBox="0 0 100 100" version="1.1" xmlns="http://www.w3.org/2000/svg" xmlns:xlink="http://www.w3.org/1999/xlink">
    <!-- Generator: Sketch 52.6 (67491) - http://www.bohemiancoding.com/sketch -->
    <title>Group 29</title>
    <desc>Created with Sketch.</desc>
    <defs>
        <circle id="path-1" cx="40" cy="40" r="40"></circle>
        <filter x="-16.9%" y="-16.9%" width="141.2%" height="141.2%" filterUnits="objectBoundingBox" id="filter-2">
            <feOffset dx="3" dy="3" in="SourceAlpha" result="shadowOffsetOuter1"></feOffset>
            <feGaussianBlur stdDeviation="5" in="shadowOffsetOuter1" result="shadowBlurOuter1"></feGaussianBlur>
            <feColorMatrix values="0 0 0 0 0.2   0 0 0 0 0.2   0 0 0 0 0.2  0 0 0 0.06 0" type="matrix" in="shadowBlurOuter1"></feColorMatrix>
        </filter>
    </defs>
    <g id="Landing-3" stroke="none" stroke-width="1" fill="none" fill-rule="evenodd">
        <g id="1.0--Homepage" transform="translate(-372.000000, -2546.000000)">
            <g id="Group-25" transform="translate(138.000000, 2172.000000)">
                <g id="Group-3" transform="translate(0.000000, 381.000000)">
                    <g id="Group-29" transform="translate(241.000000, 0.000000)">
                        <g id="Oval">
                            <use fill="black" fill-opacity="1" filter="url(#filter-2)" xlink:href="#path-1"></use>
                            <use fill="#FFFFFF" fill-rule="evenodd" xlink:href="#path-1"></use>
                        </g>
                        <g id="browser-outline" transform="translate(24.000000, 24.000000)" fill="#F06449" fill-rule="nonzero">
                            <path d="M26.6666667,0 L5.33333333,0 C2.38781467,0 0,2.38781467 0,5.33333333 L0,26.6666667 C0,29.6121853 2.38781467,32 5.33333333,32 L26.6666667,32 C29.6121853,32 32,29.6121853 32,26.6666667 L32,5.33333333 C32,2.38781467 29.6121853,0 26.6666667,0 Z M28.4444444,26.6666667 C28.4444444,27.6485062 27.6485062,28.4444444 26.6666667,28.4444444 L5.33333333,28.4444444 C4.35149378,28.4444444 3.55555556,27.6485062 3.55555556,26.6666667 L3.55555556,14.2222222 L28.4444444,14.2222222 L28.4444444,26.6666667 Z M3.55555556,10.6666667 L3.55555556,5.33333333 C3.55555556,4.35149378 4.35149378,3.55555556 5.33333333,3.55555556 L26.6666667,3.55555556 C27.6485062,3.55555556 28.4444444,4.35149378 28.4444444,5.33333333 L28.4444444,10.6666667 L3.55555556,10.6666667 Z" id="Shape"></path>
                            <circle id="Oval" cx="9.36585366" cy="7.80487805" r="1.56097561"></circle>
                            <circle id="Oval" cx="16.3902439" cy="7.80487805" r="1.56097561"></circle>
                        </g>
                    </g>
                </g>
            </g>
        </g>
    </g>
</svg>