<svg fill="none" height="424" viewBox="0 0 471 424" width="471" xmlns="http://www.w3.org/2000/svg" xmlns:xlink="http://www.w3.org/1999/xlink"><radialGradient id="a" cx="0" cy="0" gradientTransform="matrix(0 101.5 -235.5 0 235.5 322.5)" gradientUnits="userSpaceOnUse" r="1"><stop offset="0" stop-color="#00708e"/><stop offset="1" stop-color="#0181a4" stop-opacity="0"/></radialGradient><ellipse cx="235.5" cy="322.5" fill="url(#a)" rx="235.5" ry="101.5"/><path d="m75.1659 218.156-1.8018-7.214h-4.1185c-4.3759-2.834-10.811-4.637-18.0183-4.637s-13.6425 1.803-18.2757 4.637h-3.8611l-1.8018 6.956c-.2575.773-.2575 1.546-.2575 2.319 0 7.729 10.811 13.912 24.1961 13.912 13.385 0 24.196-6.183 24.196-13.912 0-.515-.2574-1.288-.2574-2.061z" fill="#f9fcff"/><path d="m75.1626 218.411-1.8018-7.214h-4.1185c-4.3759-2.834-10.811-4.637-18.0183-4.637-1.5445 0-3.0889 0-4.6333.257-4.1185.773-7.7222 2.061-10.5536 4.122h-2.3167c-.2574.258-.5148.258-.7722.516h-1.0296l-1.8018 6.698c-.2574.773-.2574 1.546-.2574 2.319 0 7.729 10.811 13.912 24.196 13.912 1.5444 0 3.0889 0 4.6333-.258 9.7814-1.803 16.7313-6.956 16.7313-13.397 0-1.03 0-1.545-.2574-2.318z" fill="#00a0b6"/><path d="m28.3166 217.125-.2574 1.03c-.2574.773-.2574 1.288-.2574 2.061 0 7.214 10.5536 13.139 23.4239 13.139 12.8702 0 23.4238-5.925 23.4238-13.139 0-.515 0-1.288-.2574-1.803l-1.5445-6.441h-3.6036l-.2574-.258c-4.3759-2.834-10.811-4.637-17.7609-4.637-6.6926 0-13.1277 1.546-17.761 4.637l-.2574.258h-3.3462zm22.9091 18.034c-13.8999 0-25.2257-6.699-25.2257-14.943 0-.515 0-.773 0-1.288l.2574-1.03 2.0592-7.729h4.3759c4.6333-3.092 11.3258-4.638 18.2757-4.638 6.95 0 13.6425 1.804 18.2758 4.638h4.6333l1.8018 7.729c.2574.772.2574 1.545.2574 2.318.2574 8.244-10.811 14.943-24.7108 14.943z" fill="#006587"/><path d="m73.6185 212.745c0 7.214-10.0388 12.882-22.3942 12.882s-22.3942-5.668-22.3942-12.882 10.0388-12.882 22.3942-12.882 22.3942 5.668 22.3942 12.882z" fill="#00a0b6"/><path d="m73.8761 212.746c0-2.319-1.2871-4.637-3.3463-6.698-4.1185-2.577-10.0388-4.38-16.7313-4.38-12.3554 0-22.3942 5.668-22.3942 12.882 0 2.318 1.287 4.637 3.3463 6.698 4.1184 2.576 10.0387 4.38 16.7313 4.38 12.3554 0 22.3942-5.926 22.3942-12.882z" fill="#f9fcff"/><path d="m51.2231 200.636c-11.8407 0-21.3646 5.41-21.3646 12.108 0 6.699 9.5239 12.109 21.3646 12.109 11.8406 0 21.3645-5.41 21.3645-12.109 0-6.698-9.5239-12.108-21.3645-12.108zm0 25.763c-12.8703 0-23.1665-6.183-23.1665-13.655 0-7.471 10.2962-13.654 23.1665-13.654 12.8702 0 23.1664 6.183 23.1664 13.654 0 7.472-10.2962 13.655-23.1664 13.655z" fill="#006587"/><path d="m62.5481 211.973c0 3.349-5.1481 5.926-11.3258 5.926s-11.3258-2.577-11.3258-5.926 5.1481-5.925 11.3258-5.925c6.1777-.258 11.3258 2.576 11.3258 5.925z" fill="#f9fcff"/><path d="m51.2268 205.789c-1.5445 0-2.8315.258-4.1185.515-2.574 1.031-4.3759 2.834-4.3759 4.638 0 3.349 5.1481 5.925 11.3258 5.925 1.5444 0 2.8315-.257 4.1185-.515 2.574-1.031 4.3759-2.834 4.3759-4.637 0-3.092-5.1481-5.926-11.3258-5.926z" fill="#00a0b6"/><path d="m51.2265 206.819c-5.6629 0-10.5536 2.319-10.5536 5.153s4.8907 5.152 10.5536 5.152 10.5536-2.318 10.5536-5.152c-.2574-2.834-4.8907-5.153-10.5536-5.153zm0 12.109c-6.9499 0-12.3554-3.092-12.3554-6.956 0-3.865 5.4055-6.956 12.3554-6.956s12.3554 3.091 12.3554 6.956c-.2574 3.864-5.6629 6.956-12.3554 6.956z" fill="#006587"/><path d="m51.2223 209.912c4.8907 0 9.0092 1.545 10.811 4.122.2574-.516.5148-1.289.5148-1.804 0-3.349-5.1481-5.925-11.3258-5.925s-11.3258 2.576-11.3258 5.925c0 .773.2574 1.288.7722 2.061 1.287-2.834 5.6629-4.379 10.5536-4.379z" fill="#006587"/><path d="m51.2265 206.818c-5.6629 0-10.5536 2.319-10.5536 5.153v.515c2.3167-2.319 6.1777-3.607 10.5536-3.607s8.237 1.288 10.2962 3.092v-.258c0-2.576-4.6333-4.895-10.2962-4.895zm-10.0388 7.471h-1.5444c-.5148-.773-.7722-1.546-.7722-2.576 0-3.865 5.4055-6.956 12.3554-6.956s12.3554 3.091 12.3554 6.956c0 .773-.2574 1.546-.7722 2.319l-2.3166 1.03.7722-1.03c-1.5444-2.061-5.4055-3.607-10.0388-3.607-4.6333.257-8.7517 1.803-10.0388 3.864z" fill="#006587"/><path d="m46.3351 225.626-.5148 8.244h10.2962l9.0092-2.319 4.8906-2.061 4.3759-3.864 1.0296-5.153-1.287-6.441-2.574 3.865-3.3463 3.091-7.4647 3.35-9.524 1.288z" fill="#006587"/><path d="m29.8603 216.352-1.8018 8.244-1.287-5.153 1.5444-5.668z" fill="#006587"/><path d="m128.763 194.411c1.029.515 1.029 1.546 0 2.061-1.03.515-2.574.515-3.604 0s-1.03-1.546 0-2.061 2.831-.515 3.604 0z" fill="#006587"/><path d="m119.499 189.003c1.03.515 1.03 1.545 0 2.061-1.03.515-2.574.515-3.604 0-1.029-.516-1.029-1.546 0-2.061 1.03-.516 2.832-.516 3.604 0z" fill="#006587"/><path d="m128.763 183.852c1.029.515 1.029 1.546 0 2.061-1.03.515-2.574.515-3.604 0s-1.03-1.546 0-2.061c1.03-.773 2.831-.773 3.604 0z" fill="#006587"/><path d="m110.229 183.852c1.03.515 1.03 1.546 0 2.061-1.029.515-2.574.515-3.603 0-1.03-.515-1.03-1.546 0-2.061 1.029-.773 2.831-.773 3.603 0z" fill="#006587"/><path d="m119.499 178.44c1.03.515 1.03 1.546 0 2.061s-2.574.515-3.604 0c-1.029-.515-1.029-1.546 0-2.061 1.03-.515 2.832-.515 3.604 0z" fill="#006587"/><path d="m100.964 178.44c1.029.515 1.029 1.546 0 2.061-1.0299.515-2.5743.515-3.6039 0s-1.0296-1.546 0-2.061 2.8319-.515 3.6039 0z" fill="#006587"/><path d="m110.229 173.032c1.03.515 1.03 1.546 0 2.061-1.029.515-2.574.515-3.603 0-1.03-.515-1.03-1.546 0-2.061 1.029-.515 2.831-.515 3.603 0z" fill="#006587"/><path d="m91.7001 173.032c1.0296.515 1.0296 1.546 0 2.061s-2.5741.515-3.6037 0-1.0296-1.546 0-2.061 2.5741-.515 3.6037 0z" fill="#006587"/><path d="m81.4013 167.878c1.0296.515 1.0296 1.545 0 2.061-1.0297.515-2.5741.515-3.6037 0-1.0296-.516-1.0296-1.546 0-2.061 1.0296-.516 2.574-.516 3.6037 0z" fill="#006587"/><path d="m100.964 167.619c1.029.515 1.029 1.546 0 2.061-1.0299.515-2.5743.515-3.6039 0s-1.0296-1.546 0-2.061 2.8319-.515 3.6039 0z" fill="#006587"/><path d="m91.7001 162.209c1.0296.515 1.0296 1.546 0 2.061s-2.5741.515-3.6037 0-1.0296-1.546 0-2.061c1.0296-.516 2.5741-.516 3.6037 0z" fill="#006587"/><path d="m147.811 193.639c1.03.516 1.03 1.546 0 2.061-1.029.516-2.574.516-3.603 0-1.03-.515-1.03-1.545 0-2.061 1.029-.515 2.574-.515 3.603 0z" fill="#006587"/><path d="m140.091 198.791c1.029.515 1.029 1.546 0 2.061-1.03.515-2.574.515-3.604 0s-1.03-1.546 0-2.061c1.03-.516 2.574-.516 3.604 0z" fill="#006587"/><path d="m147.556 183.848c1.029.516 1.029 1.546 0 2.061-1.03.516-2.574.516-3.604 0-1.03-.515-1.03-1.545 0-2.061 1.03-.515 2.574-.515 3.604 0z" fill="#006587"/><path d="m156.821 178.44c1.03.515 1.03 1.546 0 2.061-1.029.515-2.574.515-3.603 0-1.03-.515-1.03-1.546 0-2.061 1.029-.515 2.574-.515 3.603 0z" fill="#006587"/><path d="m166.087 173.032c1.029.515 1.029 1.546 0 2.061-1.03.515-2.574.515-3.604 0-1.029-.515-1.029-1.546 0-2.061 1.03-.515 2.574-.515 3.604 0z" fill="#006587"/><path d="m175.352 167.619c1.03.515 1.03 1.546 0 2.061-1.029.515-2.574.515-3.603 0-1.03-.515-1.03-1.546 0-2.061 1.029-.515 2.574-.515 3.603 0z" fill="#006587"/><path d="m184.62 162.464c1.03.516 1.03 1.546 0 2.061-1.03.516-2.574.516-3.604 0-1.029-.515-1.029-1.545 0-2.061 1.03-.772 2.574-.772 3.604 0z" fill="#006587"/><path d="m193.888 157.052c1.029.516 1.029 1.546 0 2.062-1.03.515-2.574.515-3.604 0-1.03-.516-1.03-1.546 0-2.062 1.03-.515 2.574-.515 3.604 0z" fill="#006587"/><path d="m134.684 178.44c1.03-.515 2.574-.515 3.604 0s1.03 1.546 0 2.061-2.574.515-3.604 0c-1.029-.515-1.029-1.546 0-2.061z" fill="#006587"/><path d="m147.556 173.032c1.029.515 1.029 1.546 0 2.061-1.03.515-2.574.515-3.604 0s-1.03-1.546 0-2.061 2.574-.515 3.604 0z" fill="#006587"/><path d="m156.821 167.619c1.03.515 1.03 1.546 0 2.061-1.029.515-2.574.515-3.603 0-1.03-.515-1.03-1.546 0-2.061 1.029-.515 2.574-.515 3.603 0z" fill="#006587"/><path d="m166.087 162.464c1.029.516 1.029 1.546 0 2.061-1.03.516-2.574.516-3.604 0-1.029-.515-1.029-1.545 0-2.061 1.03-.772 2.574-.772 3.604 0z" fill="#006587"/><path d="m175.352 157.052c1.03.516 1.03 1.546 0 2.062-1.029.515-2.574.515-3.603 0-1.03-.516-1.03-1.546 0-2.062 1.029-.515 2.574-.515 3.603 0z" fill="#006587"/><path d="m184.62 151.644c1.03.516 1.03 1.546 0 2.061-1.03.516-2.574.516-3.604 0-1.029-.515-1.029-1.545 0-2.061 1.03-.515 2.574-.515 3.604 0z" fill="#006587"/><path d="m193.888 146.234c1.029.515 1.029 1.546 0 2.061-1.03.515-2.574.515-3.604 0s-1.03-1.546 0-2.061 2.574-.515 3.604 0z" fill="#006587"/><path d="m125.419 173.032c1.029-.515 2.574-.515 3.603 0 1.03.515 1.03 1.546 0 2.061-1.029.515-2.574.515-3.603 0-1.03-.515-1.03-1.546 0-2.061z" fill="#006587"/><path d="m138.288 167.619c1.03.515 1.03 1.546 0 2.061s-2.574.515-3.604 0c-1.029-.515-1.029-1.546 0-2.061 1.03-.515 2.574-.515 3.604 0z" fill="#006587"/><path d="m147.556 162.464c1.029.516 1.029 1.546 0 2.061-1.03.516-2.574.516-3.604 0-1.03-.515-1.03-1.545 0-2.061 1.03-.772 2.574-.772 3.604 0z" fill="#006587"/><path d="m156.821 157.052c1.03.516 1.03 1.546 0 2.062-1.029.515-2.574.515-3.603 0-1.03-.516-1.03-1.546 0-2.062 1.029-.515 2.574-.515 3.603 0z" fill="#006587"/><path d="m166.087 151.644c1.029.516 1.029 1.546 0 2.061-1.03.516-2.574.516-3.604 0-1.029-.515-1.029-1.545 0-2.061 1.03-.515 2.574-.515 3.604 0z" fill="#006587"/><path d="m175.352 146.234c1.03.515 1.03 1.546 0 2.061-1.029.515-2.574.515-3.603 0-1.03-.515-1.03-1.546 0-2.061 1.029-.515 2.574-.515 3.603 0z" fill="#006587"/><path d="m184.62 140.827c1.03.515 1.03 1.546 0 2.061s-2.574.515-3.604 0c-1.029-.515-1.029-1.546 0-2.061 1.03-.515 2.574-.515 3.604 0z" fill="#006587"/><path d="m116.151 167.619c1.03-.515 2.574-.515 3.604 0 1.029.515 1.029 1.546 0 2.061-1.03.515-2.574.515-3.604 0-1.029-.515-1.029-1.288 0-2.061z" fill="#006587"/><path d="m129.022 162.464c1.03.516 1.03 1.546 0 2.061-1.029.516-2.574.516-3.603 0-1.03-.515-1.03-1.545 0-2.061 1.029-.772 2.574-.772 3.603 0z" fill="#006587"/><path d="m138.288 157.052c1.03.516 1.03 1.546 0 2.062-1.03.515-2.574.515-3.604 0-1.029-.516-1.029-1.546 0-2.062 1.03-.515 2.574-.515 3.604 0z" fill="#006587"/><path d="m147.556 151.644c1.029.516 1.029 1.546 0 2.061-1.03.516-2.574.516-3.604 0-1.03-.515-1.03-1.545 0-2.061 1.03-.515 2.574-.515 3.604 0z" fill="#006587"/><path d="m156.821 146.234c1.03.515 1.03 1.546 0 2.061-1.029.515-2.574.515-3.603 0-1.03-.515-1.03-1.546 0-2.061 1.029-.515 2.574-.515 3.603 0z" fill="#006587"/><path d="m166.087 140.827c1.029.515 1.029 1.546 0 2.061-1.03.515-2.574.515-3.604 0-1.029-.515-1.029-1.546 0-2.061 1.03-.515 2.574-.515 3.604 0z" fill="#006587"/><path d="m175.352 135.672c1.03.516 1.03 1.546 0 2.062-1.029.515-2.574.515-3.603 0-1.03-.516-1.03-1.546 0-2.062 1.029-.772 2.574-.772 3.603 0z" fill="#006587"/><path d="m106.884 162.469c1.029-.515 2.574-.515 3.603 0 1.03.516 1.03 1.546 0 2.062-1.029.515-2.574.515-3.603 0-1.03-.773-1.03-1.546 0-2.062z" fill="#006587"/><path d="m119.755 157.052c1.029.516 1.029 1.546 0 2.062-1.03.515-2.574.515-3.604 0-1.029-.516-1.029-1.546 0-2.062 1.03-.515 2.574-.515 3.604 0z" fill="#006587"/><path d="m129.022 151.644c1.03.516 1.03 1.546 0 2.061-1.029.516-2.574.516-3.603 0-1.03-.515-1.03-1.545 0-2.061 1.029-.515 2.574-.515 3.603 0z" fill="#006587"/><path d="m138.288 146.234c1.03.515 1.03 1.546 0 2.061s-2.574.515-3.604 0c-1.029-.515-1.029-1.546 0-2.061 1.03-.515 2.574-.515 3.604 0z" fill="#006587"/><path d="m147.556 140.827c1.029.515 1.029 1.546 0 2.061-1.03.515-2.574.515-3.604 0s-1.03-1.546 0-2.061 2.574-.515 3.604 0z" fill="#006587"/><path d="m156.821 135.672c1.03.516 1.03 1.546 0 2.062-1.029.515-2.574.515-3.603 0-1.03-.516-1.03-1.546 0-2.062 1.029-.772 2.574-.772 3.603 0z" fill="#006587"/><path d="m166.087 130.262c1.029.516 1.029 1.546 0 2.061-1.03.516-2.574.516-3.604 0-1.029-.515-1.029-1.545 0-2.061 1.03-.515 2.574-.515 3.604 0z" fill="#006587"/><path d="m97.3607 157.052c1.0297-.515 2.5741-.515 3.6033 0 1.03.516 1.03 1.546 0 2.062-1.0292.515-2.5736.515-3.6033 0-.7722-.773-1.0296-1.546 0-2.062z" fill="#006587"/><path d="m110.229 151.644c1.03.516 1.03 1.546 0 2.061-1.029.516-2.574.516-3.603 0-1.03-.515-1.03-1.545 0-2.061 1.029-.515 2.574-.515 3.603 0z" fill="#006587"/><path d="m119.499 146.234c1.03.515 1.03 1.546 0 2.061s-2.574.515-3.604 0c-1.029-.515-1.029-1.546 0-2.061 1.03-.515 2.574-.515 3.604 0z" fill="#006587"/><path d="m128.763 140.827c1.029.515 1.029 1.546 0 2.061-1.03.515-2.574.515-3.604 0s-1.03-1.546 0-2.061 2.574-.515 3.604 0z" fill="#006587"/><path d="m138.028 135.415c1.03.515 1.03 1.546 0 2.061-1.029.515-2.574.515-3.603 0-1.03-.515-1.03-1.546 0-2.061 1.029-.515 2.574-.515 3.603 0z" fill="#006587"/><path d="m147.298 130.262c1.029.516 1.029 1.546 0 2.061-1.03.516-2.574.516-3.604 0-1.03-.515-1.03-1.545 0-2.061 1.03-.773 2.832-.773 3.604 0z" fill="#006587"/><path d="m156.565 124.852c1.03.516 1.03 1.546 0 2.061-1.029.516-2.574.516-3.603 0-1.03-.515-1.03-1.545 0-2.061 1.029-.515 2.831-.515 3.603 0z" fill="#006587"/><path d="m110.229 140.827c1.03.515 1.03 1.546 0 2.061-1.029.515-2.574.515-3.603 0-1.03-.515-1.03-1.546 0-2.061 1.029-.515 2.574-.515 3.603 0z" fill="#006587"/><path d="m119.499 135.415c1.03.515 1.03 1.546 0 2.061s-2.574.515-3.604 0c-1.029-.515-1.029-1.546 0-2.061 1.03-.515 2.574-.515 3.604 0z" fill="#006587"/><path d="m128.763 130.262c1.029.516 1.029 1.546 0 2.061-1.03.516-2.574.516-3.604 0-1.03-.515-1.03-1.545 0-2.061 1.03-.773 2.574-.773 3.604 0z" fill="#006587"/><path d="m138.028 124.852c1.03.516 1.03 1.546 0 2.061-1.029.516-2.574.516-3.603 0-1.03-.515-1.03-1.545 0-2.061 1.029-.515 2.574-.515 3.603 0z" fill="#006587"/><path d="m147.298 119.44c1.029.515 1.029 1.546 0 2.061-1.03.515-2.574.515-3.604 0s-1.03-1.546 0-2.061 2.832-.515 3.604 0z" fill="#006587"/><path d="m106.626 130.262c1.03-.515 2.574-.515 3.604 0 1.029.516 1.029 1.546 0 2.061-1.03.516-2.574.516-3.604 0-.772-.772-.772-1.545 0-2.061z" fill="#006587"/><path d="m119.499 124.852c1.03.516 1.03 1.546 0 2.061-1.03.516-2.574.516-3.604 0-1.029-.515-1.029-1.545 0-2.061 1.03-.515 2.574-.515 3.604 0z" fill="#006587"/><path d="m128.763 119.44c1.029.515 1.029 1.546 0 2.061-1.03.515-2.574.515-3.604 0s-1.03-1.546 0-2.061 2.574-.515 3.604 0z" fill="#006587"/><path d="m138.028 114.031c1.03.515 1.03 1.546 0 2.061-1.029.515-2.574.515-3.603 0-1.03-.515-1.03-1.546 0-2.061 1.029-.515 2.574-.515 3.603 0z" fill="#006587"/><path d="m110.229 119.44c1.03.515 1.03 1.546 0 2.061-1.029.515-2.574.515-3.603 0-1.03-.515-1.03-1.546 0-2.061 1.029-.515 2.574-.515 3.603 0z" fill="#006587"/><path d="m119.499 114.031c1.03.515 1.03 1.546 0 2.061s-2.574.515-3.604 0c-1.029-.515-1.029-1.546 0-2.061 1.03-.515 2.574-.515 3.604 0z" fill="#006587"/><path d="m128.763 108.621c1.029.515 1.029 1.546 0 2.061-1.03.515-2.574.515-3.604 0s-1.03-1.546 0-2.061 2.574-.515 3.604 0z" fill="#006587"/><path d="m110.229 108.621c1.03.515 1.03 1.546 0 2.061-1.029.515-2.574.515-3.603 0-1.03-.515-1.03-1.546 0-2.061 1.029-.515 2.574-.515 3.603 0z" fill="#006587"/><path d="m119.499 103.468c1.03.516 1.03 1.546 0 2.061-1.03.516-2.574.516-3.604 0-1.029-.515-1.029-1.545 0-2.061 1.03-.773 2.574-.773 3.604 0z" fill="#006587"/><path d="m153.475 188.229c1.03-.515 2.574-.515 3.604 0s1.03 1.546 0 2.061c-1.03.516-2.574.516-3.604 0-1.029-.515-1.029-1.288 0-2.061z" fill="#006587"/><path d="m166.347 183.076c1.029.515 1.029 1.546 0 2.061-1.03.515-2.574.515-3.604 0s-1.03-1.546 0-2.061c1.03-.773 2.574-.773 3.604 0z" fill="#006587"/><path d="m175.612 177.667c1.03.515 1.03 1.546 0 2.061-1.029.515-2.574.515-3.603 0-1.03-.515-1.03-1.546 0-2.061 1.029-.516 2.574-.516 3.603 0z" fill="#006587"/><path d="m184.88 172.256c1.029.515 1.029 1.545 0 2.061-1.03.515-2.574.515-3.604 0-1.029-.516-1.029-1.546 0-2.061 1.03-.516 2.574-.516 3.604 0z" fill="#006587"/><path d="m193.116 166.589c1.03.515 1.03 1.545 0 2.061-1.03.515-2.574.515-3.604 0-1.029-.516-1.029-1.546 0-2.061 1.03-.516 2.832-.516 3.604 0z" fill="#006587"/><path d="m139.059 189.776c1.03.515 1.03 1.546 0 2.061-1.029.515-2.574.515-3.603 0-1.03-.515-1.03-1.546 0-2.061 1.029-.515 2.831-.515 3.603 0z" fill="#006587"/><path d="m132.112 182.819-40.155-22.93v-46.373l40.155 23.187z" fill="#00a0b6"/><path d="m172.01 113.517-39.898 23.187-40.155-23.187 40.155-23.1869z" fill="#00a0b6"/><path d="m172.01 121.503-32.691 18.807-40.1549-23.186 32.9479-18.8076z" fill="#f9fcff"/><path d="m93.2401 159.117v-43.54l37.5809 21.641v43.54zm38.8679-67.242 37.581 21.641-18.79 10.821-18.791 11.078-5.92-3.349-31.9183-18.55zm0-2.834-40.155 23.187-1.287.773v47.662l39.898 23.187 1.287.773 1.287-.773 39.897-23.187v-46.374-1.546z" fill="#006587"/><path d="m122.327 169.165-6.178-3.607c-1.029-.515-1.801-2.061-1.801-3.349v-6.441c0-1.288.772-1.804 1.801-1.288l6.178 3.607c1.03.515 1.802 2.061 1.802 3.349v6.441c0 1.03-.772 1.803-1.802 1.288z" fill="#f9fcff"/><path d="m311.842 142.244c.772.515.772 1.288 0 1.546-.772.515-2.059.515-2.831 0-.772-.516-.772-1.288 0-1.546.772-.515 2.059-.515 2.831 0z" fill="#006587"/><path d="m304.637 137.865c.772.515.772 1.288 0 1.546-.772.515-2.059.515-2.831 0s-.772-1.288 0-1.546 2.059-.258 2.831 0z" fill="#006587"/><path d="m311.842 133.743c.772.515.772 1.288 0 1.546-.772.515-2.059.515-2.831 0-.772-.516-.772-1.288 0-1.546.772-.515 2.059-.515 2.831 0z" fill="#006587"/><path d="m297.172 133.743c.773.515.773 1.288 0 1.546-.772.515-2.059.515-2.831 0-.772-.516-.772-1.288 0-1.546.772-.515 2.059-.515 2.831 0z" fill="#006587"/><path d="m304.637 129.363c.772.515.772 1.288 0 1.546-.772.515-2.059.515-2.831 0s-.772-1.288 0-1.546c.772-.257 2.059-.257 2.831 0z" fill="#006587"/><path d="m289.965 129.363c.772.515.772 1.288 0 1.546-.772.515-2.059.515-2.831 0s-.772-1.288 0-1.546c.772-.257 2.059-.257 2.831 0z" fill="#006587"/><path d="m297.172 125.241c.773.515.773 1.288 0 1.546-.772.515-2.059.515-2.831 0-.772-.516-.772-1.288 0-1.546.772-.515 2.059-.515 2.831 0z" fill="#006587"/><path d="m282.5 125.241c.773.515.773 1.288 0 1.546-.772.515-2.059.515-2.831 0-.772-.516-.772-1.288 0-1.546.772-.515 2.059-.515 2.831 0z" fill="#006587"/><path d="m274.52 121.12c.772.515.772 1.288 0 1.546-.772.515-2.059.515-2.831 0-.773-.515-.773-1.288 0-1.546.772-.258 2.059-.258 2.831 0z" fill="#006587"/><path d="m289.965 121.119c.772.515.772 1.288 0 1.546-.772.515-2.059.515-2.831 0-.772-.516-.772-1.288 0-1.546.772-.515 2.059-.515 2.831 0z" fill="#006587"/><path d="m282.5 116.739c.773.515.773 1.288 0 1.546-.772.515-2.059.515-2.831 0s-.772-1.288 0-1.546c.772-.515 2.059-.515 2.831 0z" fill="#006587"/><path d="m326.772 141.47c.772.516.772 1.289 0 1.546-.772.516-2.059.516-2.832 0-.772-.515-.772-1.288 0-1.546.773-.515 2.06-.515 2.832 0z" fill="#006587"/><path d="m320.594 145.593c.772.516.772 1.289 0 1.546-.772.516-2.059.516-2.831 0-.772-.515-.772-1.288 0-1.546 1.029-.515 2.059-.515 2.831 0z" fill="#006587"/><path d="m326.516 133.743c.772.515.772 1.288 0 1.546-.772.515-2.059.515-2.831 0-.773-.516-.773-1.288 0-1.546.772-.515 2.059-.515 2.831 0z" fill="#006587"/><path d="m333.979 129.619c.772.515.772 1.288 0 1.546-.772.515-2.059.515-2.831 0-.773-.516-.773-1.288 0-1.546.772-.515 2.059-.515 2.831 0z" fill="#006587"/><path d="m341.188 125.242c.772.515.772 1.288 0 1.546-.772.515-2.059.515-2.831 0-.773-.515-.773-1.288 0-1.546.772-.258 2.059-.258 2.831 0z" fill="#006587"/><path d="m348.399 121.119c.772.515.772 1.288 0 1.546-.772.515-2.059.515-2.832 0-.772-.516-.772-1.288 0-1.546 1.03-.515 2.06-.515 2.832 0z" fill="#006587"/><path d="m355.86 116.74c.772.515.772 1.288 0 1.546-.772.515-2.059.515-2.832 0-.772-.515-.772-1.288 0-1.546.773-.258 2.06-.258 2.832 0z" fill="#006587"/><path d="m363.067 112.616c.772.515.772 1.288 0 1.546-.772.515-2.059.515-2.832 0-.772-.516-.772-1.288 0-1.546.773-.515 2.06-.515 2.832 0z" fill="#006587"/><path d="m316.478 129.619c.772-.515 2.059-.515 2.831 0s.772 1.288 0 1.546c-.772.515-2.059.515-2.831 0-.773-.516-.773-1.288 0-1.546z" fill="#006587"/><path d="m326.516 125.242c.772.515.772 1.288 0 1.546-.772.515-2.059.515-2.831 0-.773-.515-.773-1.288 0-1.546.772-.258 2.059-.258 2.831 0z" fill="#006587"/><path d="m333.979 121.119c.772.515.772 1.288 0 1.546-.772.515-2.059.515-2.831 0-.773-.516-.773-1.288 0-1.546.772-.515 2.059-.515 2.831 0z" fill="#006587"/><path d="m341.188 116.74c.772.515.772 1.288 0 1.546-.772.515-2.059.515-2.831 0-.773-.515-.773-1.288 0-1.546.772-.258 2.059-.258 2.831 0z" fill="#006587"/><path d="m348.399 112.616c.772.515.772 1.288 0 1.546-.772.515-2.059.515-2.832 0-.772-.516-.772-1.288 0-1.546 1.03-.515 2.06-.515 2.832 0z" fill="#006587"/><path d="m355.86 108.494c.772.515.772 1.288 0 1.546-.772.515-2.059.515-2.832 0-.772-.516-.772-1.289 0-1.546.773-.515 2.06-.515 2.832 0z" fill="#006587"/><path d="m363.067 104.114c.772.515.772 1.288 0 1.546-.772.515-2.059.515-2.832 0-.772-.515-.772-1.288 0-1.546.773-.515 2.06-.515 2.832 0z" fill="#006587"/><path d="m309.011 125.241c.772-.515 2.059-.515 2.831 0s.772 1.288 0 1.546c-.772.515-2.059.515-2.831 0-.772-.258-.772-1.031 0-1.546z" fill="#006587"/><path d="m319.309 121.119c.772.515.772 1.288 0 1.546-.772.515-2.059.515-2.831 0-.773-.516-.773-1.288 0-1.546.772-.515 2.059-.515 2.831 0z" fill="#006587"/><path d="m326.516 116.74c.772.515.772 1.288 0 1.546-.772.515-2.059.515-2.831 0-.773-.515-.773-1.288 0-1.546.772-.258 2.059-.258 2.831 0z" fill="#006587"/><path d="m333.979 112.616c.772.515.772 1.288 0 1.546-.772.515-2.059.515-2.831 0-.773-.516-.773-1.288 0-1.546.772-.515 2.059-.515 2.831 0z" fill="#006587"/><path d="m341.188 108.494c.772.515.772 1.288 0 1.546-.772.515-2.059.515-2.831 0-.773-.516-.773-1.289 0-1.546.772-.515 2.059-.515 2.831 0z" fill="#006587"/><path d="m348.399 104.114c.772.515.772 1.288 0 1.546-.772.515-2.059.515-2.832 0-.772-.515-.772-1.288 0-1.546 1.03-.515 2.06-.515 2.832 0z" fill="#006587"/><path d="m355.86 99.9909c.772.5151.772 1.2881 0 1.5461-.772.515-2.059.515-2.832 0-.772-.516-.772-1.288 0-1.5461.773-.5152 2.06-.5152 2.832 0z" fill="#006587"/><path d="m301.806 121.119c.772-.515 2.059-.515 2.831 0s.772 1.288 0 1.546c-.772.515-2.059.515-2.831 0-.772-.516-.772-1.031 0-1.546z" fill="#006587"/><path d="m311.842 116.74c.772.515.772 1.288 0 1.546-.772.515-2.059.515-2.831 0s-.772-1.288 0-1.546 2.059-.258 2.831 0z" fill="#006587"/><path d="m319.309 112.616c.772.515.772 1.288 0 1.546-.772.515-2.059.515-2.831 0-.773-.516-.773-1.288 0-1.546.772-.515 2.059-.515 2.831 0z" fill="#006587"/><path d="m326.516 108.494c.772.515.772 1.288 0 1.546-.772.515-2.059.515-2.831 0-.773-.516-.773-1.289 0-1.546.772-.515 2.059-.515 2.831 0z" fill="#006587"/><path d="m333.979 104.114c.772.515.772 1.288 0 1.546-.772.515-2.059.515-2.831 0-.773-.515-.773-1.288 0-1.546.772-.515 2.059-.515 2.831 0z" fill="#006587"/><path d="m341.188 99.9909c.772.5151.772 1.2881 0 1.5461-.772.515-2.059.515-2.831 0-.773-.516-.773-1.288 0-1.5461.772-.5152 2.059-.5152 2.831 0z" fill="#006587"/><path d="m348.399 95.6131c.772.5153.772 1.2882 0 1.5458-.772.5153-2.059.5153-2.832 0-.772-.5152-.772-1.2881 0-1.5458 1.03-.2576 2.06-.2576 2.832 0z" fill="#006587"/><path d="m294.341 116.739c.772-.515 2.059-.515 2.831 0 .773.515.773 1.288 0 1.546-.772.515-2.059.515-2.831 0-.772-.258-.772-1.031 0-1.546z" fill="#006587"/><path d="m304.637 112.616c.772.515.772 1.288 0 1.546-.772.515-2.059.515-2.831 0-.772-.516-.772-1.288 0-1.546.772-.515 2.059-.515 2.831 0z" fill="#006587"/><path d="m311.842 108.494c.772.515.772 1.288 0 1.546-.772.515-2.059.515-2.831 0-.772-.516-.772-1.289 0-1.546.772-.515 2.059-.515 2.831 0z" fill="#006587"/><path d="m319.309 104.114c.772.515.772 1.288 0 1.546-.772.515-2.059.515-2.831 0-.773-.515-.773-1.288 0-1.546.772-.515 2.059-.515 2.831 0z" fill="#006587"/><path d="m326.516 99.9909c.772.5151.772 1.2881 0 1.5461-.772.515-2.059.515-2.831 0-.773-.516-.773-1.288 0-1.5461.772-.5152 2.059-.5152 2.831 0z" fill="#006587"/><path d="m333.979 95.6131c.772.5153.772 1.2882 0 1.5458-.772.5153-2.059.5153-2.831 0-.773-.5152-.773-1.2881 0-1.5458.772-.2576 2.059-.2576 2.831 0z" fill="#006587"/><path d="m341.188 91.4909c.772.5153.772 1.2882 0 1.5458-.772.5153-2.059.5153-2.831 0-.773-.5152-.773-1.2881 0-1.5458.772-.5152 2.059-.5152 2.831 0z" fill="#006587"/><path d="m287.134 112.616c.772-.515 2.059-.515 2.831 0s.772 1.288 0 1.546c-.772.515-2.059.515-2.831 0-.772-.516-.772-1.031 0-1.546z" fill="#006587"/><path d="m297.172 108.236c.773.515.773 1.288 0 1.546-.772.515-2.059.515-2.831 0s-.772-1.288 0-1.546c.772-.257 2.059-.257 2.831 0z" fill="#006587"/><path d="m304.637 104.114c.772.515.772 1.288 0 1.546-.772.515-2.059.515-2.831 0s-.772-1.288 0-1.546c.772-.515 2.059-.515 2.831 0z" fill="#006587"/><path d="m311.842 99.9909c.772.5151.772 1.2881 0 1.5461-.772.515-2.059.515-2.831 0-.772-.516-.772-1.288 0-1.5461.772-.5152 2.059-.5152 2.831 0z" fill="#006587"/><path d="m319.049 95.612c.773.5153.773 1.2882 0 1.5458-.772.5153-2.059.5153-2.831 0-.772-.5152-.772-1.2881 0-1.5458 1.029-.5152 2.059-.5152 2.831 0z" fill="#006587"/><path d="m326.516 91.4909c.772.5153.772 1.2882 0 1.5458-.772.5153-2.059.5153-2.831 0-.773-.5152-.773-1.2881 0-1.5458.772-.5152 2.059-.5152 2.831 0z" fill="#006587"/><path d="m333.723 87.1112c.772.5153.772 1.2882 0 1.5458-.772.5152-2.059.5152-2.831 0-.773-.5153-.773-1.2882 0-1.5458.772-.2576 2.059-.2576 2.831 0z" fill="#006587"/><path d="m297.172 99.9909c.773.5151.773 1.2881 0 1.5461-.772.515-2.059.515-2.831 0-.772-.516-.772-1.288 0-1.5461.772-.5152 2.059-.5152 2.831 0z" fill="#006587"/><path d="m304.637 95.612c.772.5153.772 1.2882 0 1.5458-.772.5153-2.059.5153-2.831 0-.772-.5152-.772-1.2881 0-1.5458.772-.5152 2.059-.5152 2.831 0z" fill="#006587"/><path d="m311.842 91.4909c.772.5153.772 1.2882 0 1.5458-.772.5153-2.059.5153-2.831 0-.772-.5152-.772-1.2881 0-1.5458.772-.5152 2.059-.5152 2.831 0z" fill="#006587"/><path d="m319.049 87.1112c.773.5153.773 1.2882 0 1.5458-.772.5152-2.059.5152-2.831 0-.772-.5153-.772-1.2882 0-1.5458 1.029-.2576 2.059-.2576 2.831 0z" fill="#006587"/><path d="m326.516 82.987c.772.5153.772 1.2882 0 1.5458-.772.5153-2.059.5153-2.831 0-.773-.5152-.773-1.2881 0-1.5458.772-.5152 2.059-.5152 2.831 0z" fill="#006587"/><path d="m294.341 91.4909c.772-.5152 2.059-.5152 2.831 0 .773.5153.773 1.2882 0 1.5458-.772.5153-2.059.5153-2.831 0-.772-.5152-.772-1.2881 0-1.5458z" fill="#006587"/><path d="m304.637 87.1112c.772.5153.772 1.2882 0 1.5458-.772.5152-2.059.5152-2.831 0-.772-.5153-.772-1.2882 0-1.5458s2.059-.2576 2.831 0z" fill="#006587"/><path d="m311.842 82.987c.772.5153.772 1.2882 0 1.5458-.772.5153-2.059.5153-2.831 0-.772-.5152-.772-1.2881 0-1.5458.772-.5152 2.059-.5152 2.831 0z" fill="#006587"/><path d="m319.049 78.6083c.773.5152.773 1.2881 0 1.5458-.772.5152-2.059.5152-2.831 0-.772-.5153-.772-1.2882 0-1.5458 1.029-.2577 2.059-.2577 2.831 0z" fill="#006587"/><path d="m297.172 82.987c.773.5153.773 1.2882 0 1.5458-.772.5153-2.059.5153-2.831 0-.772-.5152-.772-1.2881 0-1.5458.772-.5152 2.059-.5152 2.831 0z" fill="#006587"/><path d="m304.637 78.6083c.772.5152.772 1.2881 0 1.5458-.772.5152-2.059.5152-2.831 0-.772-.5153-.772-1.2882 0-1.5458.772-.2577 2.059-.2577 2.831 0z" fill="#006587"/><path d="m311.842 74.4861c.772.5152.772 1.2881 0 1.5458-.772.5152-2.059.5152-2.831 0-.772-.5153-.772-1.2882 0-1.5458.772-.5153 2.059-.5153 2.831 0z" fill="#006587"/><path d="m297.172 74.4861c.773.5152.773 1.2881 0 1.5458-.772.5152-2.059.5152-2.831 0-.772-.5153-.772-1.2882 0-1.5458.772-.5153 2.059-.5153 2.831 0z" fill="#006587"/><path d="m304.637 70.362c.772.5153.772 1.2882 0 1.5458-.772.5153-2.059.5153-2.831 0-.772-.5152-.772-1.2881 0-1.5458.772-.5152 2.059-.5152 2.831 0z" fill="#006587"/><path d="m331.407 137.349c.773-.515 2.06-.515 2.832 0 .772.516.772 1.289 0 1.546-.772.515-2.059.515-2.832 0-.772-.515-.772-1.03 0-1.546z" fill="#006587"/><path d="m341.446 132.97c.772.515.772 1.288 0 1.545-.772.516-2.059.516-2.832 0-.772-.515-.772-1.288 0-1.545.773-.258 2.06-.258 2.832 0z" fill="#006587"/><path d="m348.907 128.845c.772.516.772 1.289 0 1.546-.772.515-2.06.515-2.832 0s-.772-1.288 0-1.546c.772-.515 2.06-.515 2.832 0z" fill="#006587"/><path d="m356.116 124.725c.772.516.772 1.288 0 1.546-.773.515-2.06.515-2.832 0s-.772-1.288 0-1.546c.772-.515 2.059-.515 2.832 0z" fill="#006587"/><path d="m362.551 120.345c.772.516.772 1.289 0 1.546-.772.515-2.059.515-2.831 0s-.772-1.288 0-1.546c.772-.515 2.059-.515 2.831 0z" fill="#006587"/><path d="m320.081 138.637c.772.516.772 1.289 0 1.546-.773.515-2.06.515-2.832 0s-.772-1.288 0-1.546c.772-.515 2.059-.515 2.832 0z" fill="#006587"/><path d="m314.419 132.97-31.661-18.292v-36.3264l31.661 18.2918z" fill="#00a0b6"/><path d="m345.822 78.3515-31.403 18.2918-31.661-18.2918 31.661-18.2919z" fill="#00a0b6"/><path d="m345.819 84.5341-25.74 14.9426-31.661-18.2918 25.998-14.9427z" fill="#f9fcff"/><path d="m283.788 114.163v-34.2655l29.859 17.2614v34.2651zm30.631-53.0726 29.859 17.2613-14.93 8.5019-14.929 8.5018-4.633-2.5763-24.969-14.4274zm0-2.0611-31.661 18.2919-1.029.5152v37.6146l31.66 18.292 1.03.515 1.03-.515 31.66-18.292v-36.584-1.0306z" fill="#006587"/><path d="m306.697 122.148-4.89-2.834c-.773-.515-1.287-1.546-1.287-2.576v-5.153c0-1.03.514-1.546 1.287-1.03l4.89 2.834c.772.515 1.287 1.545 1.287 2.576v5.153c0 1.03-.515 1.545-1.287 1.03z" fill="#f9fcff"/><path d="m454.336 198.144-1.802-7.214h-4.118c-4.376-2.834-10.811-4.637-18.276-4.637-7.208 0-13.643 1.803-18.019 4.637h-3.861l-1.801 6.956c-.258.773-.258 1.546-.258 2.319 0 7.729 10.811 13.912 24.196 13.912s24.196-6.183 24.196-13.912c0-.773-.257-1.288-.257-2.061z" fill="#f9fcff"/><path d="m454.334 198.402-1.802-7.214h-4.118c-4.376-2.834-10.811-4.637-18.276-4.637-1.544 0-3.089 0-4.633.257-4.119.773-7.722 2.319-10.554 4.123h-2.059c-.258.257-.515.257-.772.515h-1.287l-1.802 6.698c-.258.773-.258 1.546-.258 2.319 0 7.729 10.811 13.912 24.196 13.912 1.545 0 3.089 0 4.634-.258 9.781-1.803 16.731-7.213 16.731-13.396.257-1.031.257-1.804 0-2.319z" fill="#00a0b6"/><path d="m407.487 197.114-.258 1.03c-.257.773-.257 1.289-.257 2.062 0 7.213 10.553 13.139 23.424 13.139 12.87 0 23.423-5.926 23.423-13.139 0-.516 0-1.289-.257-1.804l-1.544-6.441h-3.604l-.258-.257c-4.375-2.834-10.811-4.638-17.76-4.638-6.693 0-13.128 1.546-17.761 4.638l-.258.257h-3.603zm22.909 18.034c-13.9 0-25.226-6.698-25.226-14.942 0-.516 0-.773 0-1.289l.257-1.03 2.06-7.729h4.375c4.634-3.092 11.326-4.637 18.276-4.637s13.643 1.803 18.533 4.637h4.634l1.801 7.729c.258.773.258 1.546.258 2.319 0 8.244-11.326 14.942-24.968 14.942z" fill="#006587"/><path d="m452.788 192.735c0 7.214-10.038 12.882-22.394 12.882-12.355 0-22.394-5.668-22.394-12.882s10.039-12.881 22.394-12.881c12.356 0 22.394 5.667 22.394 12.881z" fill="#00a0b6"/><path d="m453.046 192.736c0-2.318-1.287-4.637-3.346-6.698-4.119-2.576-10.039-4.38-16.732-4.38-12.355 0-22.394 5.668-22.394 12.882 0 2.318 1.287 4.637 3.346 6.698 4.119 2.577 10.039 4.38 16.732 4.38 12.355 0 22.394-5.926 22.394-12.882z" fill="#f9fcff"/><path d="m430.393 180.626c-11.841 0-21.365 5.41-21.365 12.109 0 6.698 9.524 12.108 21.365 12.108s21.365-5.41 21.365-12.108c0-6.699-9.524-12.109-21.365-12.109zm0 25.763c-12.87 0-23.166-6.183-23.166-13.654 0-7.472 10.296-13.655 23.166-13.655s23.166 6.183 23.166 13.655c0 7.471-10.296 13.654-23.166 13.654z" fill="#006587"/><path d="m441.718 191.964c0 3.35-5.148 5.926-11.326 5.926s-11.326-2.576-11.326-5.926c0-3.349 5.148-5.925 11.326-5.925 6.178-.258 11.326 2.576 11.326 5.925z" fill="#f9fcff"/><path d="m430.397 185.779c-1.545 0-2.832.258-4.119.516-2.574 1.03-4.376 2.834-4.376 4.637 0 3.349 5.148 5.925 11.326 5.925 1.545 0 2.832-.257 4.119-.515 2.574-1.03 4.375-2.834 4.375-4.637 0-3.092-5.148-5.926-11.325-5.926z" fill="#00a0b6"/><path d="m430.396 186.809c-5.662 0-10.553 2.319-10.553 5.153s4.891 5.153 10.553 5.153c5.663 0 10.554-2.319 10.554-5.153-.257-2.834-4.891-5.153-10.554-5.153zm0 12.109c-6.949 0-12.355-3.092-12.355-6.956 0-3.865 5.406-6.956 12.355-6.956 6.95 0 12.356 3.091 12.356 6.956-.258 3.864-5.663 6.956-12.356 6.956z" fill="#006587"/><path d="m430.394 189.645c4.89 0 9.009 1.546 10.553 4.122.515-.515.515-1.288.515-1.803 0-3.35-5.148-5.926-11.326-5.926-6.177 0-11.325 2.576-11.325 5.926 0 .773.257 1.288.772 2.061 1.544-2.577 5.663-4.38 10.811-4.38z" fill="#006587"/><path d="m430.396 186.55c-5.662 0-10.553 2.319-10.553 5.153v.515c2.059-2.061 6.178-3.349 10.553-3.349 4.376 0 8.237 1.288 10.297 3.092v-.258c0-2.576-4.634-5.153-10.297-5.153zm-10.038 7.729h-1.545c-.515-.772-.772-1.545-.772-2.576 0-3.864 5.406-6.956 12.355-6.956 6.95 0 12.356 3.092 12.356 6.956 0 .773-.258 1.546-.772 2.319l-2.317 1.03.772-1.03c-1.544-2.061-5.405-3.607-10.039-3.607-4.633.258-8.751 1.803-10.038 3.864z" fill="#006587"/><path d="m425.505 205.617-.515 8.244h10.039l9.267-2.319 4.633-2.061 4.633-3.864 1.03-5.153-1.287-6.698-2.574 4.122-3.347 2.834-7.464 3.607-9.524 1.288z" fill="#006587"/><path d="m409.03 196.34-1.802 8.244-1.287-5.153 1.545-5.925z" fill="#006587"/><path d="m421.322 335.206-1.802-7.214h-4.118c-4.376-2.834-10.811-4.638-18.018-4.638-7.208 0-13.643 1.804-18.276 4.638h-3.861l-1.802 6.956c-.258.773-.257 1.546-.257 2.319 0 7.729 10.81 13.912 24.196 13.912 13.385 0 24.196-6.183 24.196-13.912 0-.516-.258-1.289-.258-2.061z" fill="#f9fcff"/><path d="m421.319 335.464-1.802-7.213h-4.118c-4.376-2.834-10.811-4.638-18.019-4.638-1.544 0-3.089 0-4.633.258-4.119.773-7.722 2.319-10.554 4.122h-2.059c-.257.258-.515.258-.772.515h-1.287l-1.802 6.699c-.257.773-.257 1.546-.257 2.318 0 7.729 10.811 13.913 24.196 13.913 1.544 0 3.089 0 4.633-.258 9.781-1.803 16.731-7.214 16.731-13.397 0-1.03 0-1.546-.257-2.319z" fill="#00a0b6"/><path d="m374.473 334.175-.258 1.031c-.257.773-.257 1.288-.257 2.061 0 7.214 10.554 13.139 23.424 13.139s23.424-5.925 23.424-13.139c0-.515 0-1.288-.258-1.803l-1.544-6.441h-3.604l-.257-.258c-4.376-2.834-10.811-4.637-17.761-4.637-6.693 0-13.128 1.546-17.761 4.637l-.257.258h-3.604zm22.909 18.035c-13.9 0-25.226-6.699-25.226-14.943 0-.515 0-.773 0-1.288l.258-1.031 2.059-7.729h4.376c4.633-3.091 11.326-4.637 18.275-4.637 6.95 0 13.643 1.803 18.534 4.637h4.633l1.802 7.729c.257.773.257 1.546.257 2.319 0 8.244-11.326 14.943-24.968 14.943z" fill="#006587"/><path d="m419.775 329.797c0 7.213-10.039 12.881-22.394 12.881-12.356 0-22.395-5.668-22.395-12.881 0-7.214 10.039-12.882 22.395-12.882 12.355 0 22.394 5.668 22.394 12.882z" fill="#00a0b6"/><path d="m420.032 329.798c0-2.319-1.287-4.637-3.346-6.699-4.118-2.576-10.039-4.379-16.731-4.379-12.356 0-22.394 5.668-22.394 12.881 0 2.319 1.287 4.638 3.346 6.699 4.118 2.576 10.039 4.379 16.731 4.379 12.356 0 22.394-5.925 22.394-12.881z" fill="#f9fcff"/><path d="m397.379 317.687c-11.84 0-21.364 5.411-21.364 12.109 0 6.699 9.524 12.109 21.364 12.109 11.841 0 21.365-5.41 21.365-12.109 0-6.698-9.524-12.109-21.365-12.109zm0 25.764c-12.87 0-23.166-6.184-23.166-13.655s10.296-13.654 23.166-13.654c12.871 0 23.167 6.183 23.167 13.654s-10.296 13.655-23.167 13.655z" fill="#006587"/><path d="m408.706 329.025c0 3.349-5.148 5.926-11.326 5.926-6.177 0-11.325-2.577-11.325-5.926s5.148-5.925 11.325-5.925c6.178 0 11.326 2.576 11.326 5.925z" fill="#f9fcff"/><path d="m397.381 323.1c-1.544 0-2.831.257-4.118.515-2.574 1.03-4.376 2.834-4.376 4.637 0 3.349 5.148 5.926 11.326 5.926 1.544 0 2.831-.258 4.118-.515 2.574-1.031 4.376-2.834 4.376-4.638 0-3.349-5.148-5.925-11.326-5.925z" fill="#00a0b6"/><path d="m397.383 323.871c-5.663 0-10.554 2.318-10.554 5.152s4.891 5.153 10.554 5.153 10.553-2.319 10.553-5.153c-.257-2.834-4.89-5.152-10.553-5.152zm0 12.108c-6.95 0-12.356-3.091-12.356-6.956 0-3.864 5.406-6.956 12.356-6.956s12.355 3.092 12.355 6.956c-.257 3.865-5.663 6.956-12.355 6.956z" fill="#006587"/><path d="m397.38 326.964c4.891 0 9.009 1.546 10.554 4.122.257-.515.514-1.288.514-2.061 0-3.349-5.148-5.925-11.325-5.925-6.178 0-11.326 2.576-11.326 5.925 0 .773.257 1.288.772 2.061 1.545-2.576 5.663-4.122 10.811-4.122z" fill="#006587"/><path d="m397.383 323.87c-5.663 0-10.554 2.318-10.554 5.152v.516c2.059-2.061 6.178-3.35 10.554-3.35s8.237 1.289 10.296 3.092v-.258c0-2.834-4.633-5.152-10.296-5.152zm-10.039 7.471h-1.544c-.515-.773-.773-1.546-.773-2.576 0-3.865 5.406-6.956 12.356-6.956s12.355 3.091 12.355 6.956c0 .773-.257 1.545-.772 2.318l-2.317 1.031.773-1.031c-1.545-2.061-5.406-3.606-10.039-3.606-4.634.257-8.752 1.803-10.039 3.864z" fill="#006587"/><path d="m392.491 342.677-.514 8.245h10.038l9.267-2.319 4.891-2.061 4.375-3.865 1.03-5.152-1.287-6.441-2.574 3.864-3.346 3.092-7.465 3.349-9.524 1.288z" fill="#006587"/><path d="m376.017 333.403-1.802 8.245-1.287-5.153 1.544-5.668z" fill="#006587"/><path d="m121.187 384.227-1.801-7.214h-4.119c-4.376-2.834-10.811-4.637-18.0182-4.637-7.2074 0-13.6425 1.803-18.2758 4.637h-3.861l-1.8019 6.956c-.2574.773-.2574 1.546-.2574 2.319 0 7.729 10.811 13.912 24.1961 13.912 13.3852 0 24.1962-6.183 24.1962-13.912 0-.515-.258-1.288-.258-2.061z" fill="#f9fcff"/><path d="m121.184 384.486-1.802-7.214h-4.118c-4.376-2.834-10.811-4.637-18.0186-4.637-1.5444 0-3.0888 0-4.6332.257-4.1185.773-7.7222 2.319-10.5536 4.123h-2.0593c-.2574.257-.5148.257-.7722.515h-1.287l-1.8018 6.698c-.2574.773-.2574 1.546-.2574 2.319 0 7.729 10.811 13.912 24.1961 13.912 1.544 0 3.089 0 4.633-.258 9.782-1.803 16.731-7.213 16.731-13.396 0-1.031 0-1.546-.257-2.319z" fill="#00a0b6"/><path d="m74.3381 383.197-.2574 1.03c-.2574.773-.2574 1.289-.2574 2.062 0 7.213 10.5536 13.139 23.4238 13.139 12.8699 0 23.4239-5.926 23.4239-13.139 0-.516 0-1.289-.257-1.804l-1.545-6.441h-3.604l-.257-.257c-4.376-2.834-10.811-4.638-17.7609-4.638-6.6925 0-13.1276 1.546-17.7609 4.638l-.2574.257h-3.6036zm22.909 18.034c-13.8998 0-25.2256-6.698-25.2256-14.942 0-.516 0-.773 0-1.289l.2574-1.03 2.0592-7.729h4.3759c4.6333-3.092 11.3258-4.637 18.2757-4.637 6.9503 0 13.6423 1.803 18.5333 4.637h4.633l1.802 7.729c.257.773.257 1.546.257 2.319 0 8.244-11.325 14.942-24.9679 14.942z" fill="#006587"/><path d="m119.64 378.818c0 7.214-10.039 12.882-22.3942 12.882-12.3555 0-22.3942-5.668-22.3942-12.882s10.0387-12.881 22.3942-12.881c12.3552 0 22.3942 5.667 22.3942 12.881z" fill="#00a0b6"/><path d="m119.898 378.819c0-2.318-1.287-4.637-3.347-6.698-4.118-2.576-10.038-4.38-16.731-4.38-12.3554 0-22.3942 5.668-22.3942 12.882 0 2.318 1.287 4.637 3.3462 6.698 4.1185 2.577 10.0388 4.38 16.7313 4.38 12.3557 0 22.3947-5.926 22.3947-12.882z" fill="#f9fcff"/><path d="m97.2445 366.709c-11.8406 0-21.3645 5.41-21.3645 12.109 0 6.698 9.5239 12.108 21.3645 12.108 11.8405 0 21.3645-5.41 21.3645-12.108 0-6.699-9.524-12.109-21.3645-12.109zm0 25.763c-12.8702 0-23.1664-6.183-23.1664-13.654 0-7.472 10.2962-13.655 23.1664-13.655 12.8705 0 23.1665 6.183 23.1665 13.655 0 7.471-10.296 13.654-23.1665 13.654z" fill="#006587"/><path d="m108.57 378.047c0 3.349-5.149 5.925-11.3262 5.925-6.1777 0-11.3258-2.576-11.3258-5.925 0-3.35 5.1481-5.926 11.3258-5.926 6.1772 0 11.3262 2.576 11.3262 5.926z" fill="#f9fcff"/><path d="m97.2483 372.121c-1.5445 0-2.8315.258-4.1185.515-2.5741 1.031-4.3759 2.834-4.3759 4.638 0 3.349 5.1481 5.925 11.3261 5.925 1.544 0 2.831-.257 4.118-.515 2.574-1.031 4.376-2.834 4.376-4.637 0-3.35-5.148-5.926-11.3257-5.926z" fill="#00a0b6"/><g fill="#006587"><path d="m97.248 372.892c-5.6629 0-10.5536 2.319-10.5536 5.153s4.8907 5.153 10.5536 5.153c5.663 0 10.554-2.319 10.554-5.153-.258-2.834-4.891-5.153-10.554-5.153zm0 12.109c-6.9499 0-12.3554-3.092-12.3554-6.956 0-3.865 5.4055-6.956 12.3554-6.956 6.95 0 12.355 3.091 12.355 6.956-.257 3.864-5.662 6.956-12.355 6.956z"/><path d="m97.2453 375.986c4.8907 0 9.0087 1.545 10.5537 4.122.257-.516.515-1.289.515-2.061 0-3.35-5.148-5.926-11.3261-5.926-6.1777 0-11.3258 2.576-11.3258 5.926 0 .772.2574 1.288.7722 2.061 1.5445-2.577 5.6629-4.122 10.811-4.122z"/><path d="m97.248 372.891c-5.6629 0-10.5536 2.319-10.5536 5.153v.515c2.0593-2.061 6.1777-3.349 10.5536-3.349 4.376 0 8.237 1.288 10.296 3.091v-.257c0-2.834-4.633-5.153-10.296-5.153zm-10.0388 7.472h-1.5444c-.5148-.773-.7722-1.546-.7722-2.577 0-3.864 5.4055-6.956 12.3554-6.956 6.95 0 12.355 3.092 12.355 6.956 0 .773-.257 1.546-.772 2.319l-2.316 1.03.772-1.03c-1.545-2.061-5.406-3.607-10.039-3.607-4.6333.258-8.7518 1.803-10.0388 3.865z"/><path d="m92.3566 391.699-.5148 8.244h10.0392l9.266-2.319 4.891-2.061 4.376-3.864 1.029-5.153-1.287-6.441-2.574 3.865-3.346 3.092-7.465 3.349-9.5237 1.288z"/><path d="m75.8818 382.425-1.8018 8.244-1.287-5.152 1.5444-5.668z"/><path d="m181.204 367.403c1.03.515 1.03 1.546 0 2.061s-2.574.515-3.604 0c-1.029-.515-1.029-1.546 0-2.061 1.03-.515 2.574-.515 3.604 0z"/><path d="m190.472 361.992c1.029.515 1.029 1.546 0 2.061-1.03.515-2.574.515-3.604 0s-1.03-1.546 0-2.061 2.574-.515 3.604 0z"/><path d="m171.938 361.992c1.03.515 1.03 1.546 0 2.061-1.029.515-2.574.515-3.603 0-1.03-.515-1.03-1.546 0-2.061 1.029-.515 2.574-.515 3.603 0z"/><path d="m181.204 356.584c1.03.515 1.03 1.545 0 2.061-1.03.515-2.574.515-3.604 0-1.029-.516-1.029-1.546 0-2.061 1.03-.516 2.574-.516 3.604 0z"/><path d="m162.671 356.584c1.029.515 1.029 1.545 0 2.061-1.03.515-2.574.515-3.604 0-1.029-.516-1.029-1.546 0-2.061 1.03-.516 2.574-.516 3.604 0z"/><path d="m171.938 351.172c1.03.515 1.03 1.545 0 2.061-1.029.515-2.574.515-3.603 0-1.03-.516-1.03-1.546 0-2.061 1.029-.516 2.574-.516 3.603 0z"/><path d="m153.405 351.172c1.03.515 1.03 1.545 0 2.061-1.029.515-2.574.515-3.603 0-1.03-.516-1.03-1.546 0-2.061 1.029-.516 2.574-.516 3.603 0z"/><path d="m162.671 346.019c1.029.515 1.029 1.546 0 2.061-1.03.515-2.574.515-3.604 0-1.029-.515-1.029-1.546 0-2.061 1.03-.773 2.574-.773 3.604 0z"/><path d="m143.88 346.019c1.029.515 1.029 1.546 0 2.061-1.03.515-2.574.515-3.604 0-1.029-.515-1.029-1.546 0-2.061 1.03-.773 2.832-.773 3.604 0z"/><path d="m153.405 340.607c1.03.515 1.03 1.546 0 2.061-1.029.516-2.574.516-3.603 0-1.03-.515-1.03-1.546 0-2.061 1.029-.515 2.574-.515 3.603 0z"/><path d="m134.614 340.61c1.03.515 1.03 1.546 0 2.061-1.029.515-2.574.515-3.604 0-1.029-.515-1.029-1.546 0-2.061 1.03-.773 2.575-.773 3.604 0z"/><path d="m143.88 335.2c1.029.515 1.029 1.546 0 2.061-1.03.515-2.574.515-3.604 0-1.029-.515-1.029-1.546 0-2.061 1.03-.515 2.574-.515 3.604 0z"/><path d="m125.347 335.2c1.029.515 1.029 1.546 0 2.061-1.03.515-2.574.515-3.604 0s-1.03-1.546 0-2.061 2.574-.515 3.604 0z"/><path d="m134.614 329.788c1.03.515 1.03 1.546 0 2.061-1.029.515-2.574.515-3.604 0-1.029-.515-1.029-1.546 0-2.061 1.03-.515 2.575-.515 3.604 0z"/><path d="m116.081 329.788c1.03.515 1.03 1.546 0 2.061s-2.574.515-3.604 0c-1.029-.515-1.029-1.546 0-2.061 1.03-.515 2.574-.515 3.604 0z"/><path d="m125.347 324.378c1.029.515 1.029 1.545 0 2.061-1.03.515-2.574.515-3.604 0-1.03-.516-1.03-1.546 0-2.061 1.03-.516 2.574-.516 3.604 0z"/><path d="m106.815 324.378c1.03.515 1.03 1.545 0 2.061-1.029.515-2.574.515-3.603 0-1.03-.516-1.03-1.546 0-2.061 1.029-.516 2.574-.516 3.603 0z"/><path d="m116.081 318.968c1.03.516 1.03 1.546 0 2.062-1.03.515-2.574.515-3.604 0-1.029-.516-1.029-1.546 0-2.062 1.03-.515 2.574-.515 3.604 0z"/><path d="m97.5477 318.968c1.0297.516 1.0297 1.546 0 2.062-1.0296.515-2.574.515-3.6036 0-1.0296-.516-1.0296-1.546 0-2.062 1.0296-.515 2.574-.515 3.6036 0z"/><path d="m106.815 313.814c1.03.515 1.03 1.546 0 2.061-1.029.515-2.574.515-3.603 0-1.03-.515-1.03-1.546 0-2.061 1.029-.773 2.574-.773 3.603 0z"/><path d="m88.2802 313.814c1.0296.515 1.0296 1.546 0 2.061s-2.5741.515-3.6037 0-1.0296-1.546 0-2.061c1.0296-.773 2.5741-.773 3.6037 0z"/><path d="m97.5477 308.404c1.0297.515 1.0297 1.546 0 2.061-1.0296.515-2.574.515-3.6036 0s-1.0296-1.546 0-2.061 2.574-.515 3.6036 0z"/><path d="m79.0146 308.404c1.0296.515 1.0296 1.546 0 2.061-1.0297.515-2.5741.515-3.6037 0s-1.0296-1.546 0-2.061 2.574-.515 3.6037 0z"/><path d="m88.2802 302.994c1.0296.515 1.0296 1.546 0 2.061s-2.5741.515-3.6037 0-1.0296-1.546 0-2.061 2.5741-.515 3.6037 0z"/><path d="m69.7509 302.994c1.0296.515 1.0296 1.546 0 2.061s-2.5741.515-3.6037 0-1.0296-1.546 0-2.061 2.5741-.515 3.6037 0z"/><path d="m79.0146 297.586c1.0296.515 1.0296 1.545 0 2.061-1.0297.515-2.5741.515-3.6037 0-1.0296-.516-1.0296-1.546 0-2.061 1.0296-.516 2.574-.516 3.6037 0z"/><path d="m60.2255 297.586c1.0296.515 1.0296 1.545 0 2.061-1.0296.515-2.5741.515-3.6037 0-1.0296-.516-1.0296-1.546 0-2.061 1.0296-.516 2.8315-.516 3.6037 0z"/><path d="m69.4892 292.175c1.0296.515 1.0296 1.545 0 2.061-1.0297.515-2.5741.515-3.6037 0-1.0296-.516-1.0296-1.546 0-2.061 1.287-.516 2.8314-.516 3.6037 0z"/><path d="m60.2255 286.764c1.0296.516 1.0296 1.546 0 2.061-1.0296.516-2.5741.516-3.6037 0-1.0296-.515-1.0296-1.545 0-2.061 1.0296-.515 2.8315-.515 3.6037 0z"/><path d="m218.53 377.193c1.03.515 1.03 1.546 0 2.061-1.029.515-2.574.515-3.603 0-1.03-.515-1.03-1.546 0-2.061 1.029-.515 2.574-.515 3.603 0z"/><path d="m227.796 371.783c1.029.515 1.029 1.546 0 2.061-1.03.515-2.574.515-3.604 0-1.029-.515-1.029-1.546 0-2.061 1.03-.515 2.574-.515 3.604 0z"/><path d="m237.061 366.63c1.03.516 1.03 1.546 0 2.062-1.029.515-2.574.515-3.603 0-1.03-.516-1.03-1.546 0-2.062 1.029-.772 2.574-.772 3.603 0z"/><path d="m246.327 361.22c1.03.516 1.03 1.546 0 2.061-1.03.516-2.574.516-3.604 0-1.029-.515-1.029-1.545 0-2.061 1.03-.515 2.832-.515 3.604 0z"/><path d="m255.597 355.81c1.029.516 1.029 1.546 0 2.061-1.03.516-2.574.516-3.604 0-1.03-.515-1.03-1.545 0-2.061 1.03-.515 2.831-.515 3.604 0z"/><path d="m264.862 350.399c1.03.515 1.03 1.546 0 2.061-1.029.515-2.574.515-3.603 0-1.03-.515-1.03-1.546 0-2.061 1.029-.515 2.831-.515 3.603 0z"/><path d="m274.128 344.989c1.029.515 1.029 1.546 0 2.061-1.03.515-2.574.515-3.604 0-1.029-.515-1.029-1.546 0-2.061 1.03-.515 2.832-.515 3.604 0z"/><path d="m283.651 339.837c1.03.515 1.03 1.545 0 2.061-1.029.515-2.574.515-3.603 0-1.03-.516-1.03-1.546 0-2.061 1.029-.773 2.574-.773 3.603 0z"/><path d="m292.921 334.425c1.029.515 1.029 1.545 0 2.061-1.03.515-2.574.515-3.604 0-1.029-.516-1.029-1.546 0-2.061 1.03-.516 2.574-.516 3.604 0z"/><path d="m302.184 329.016c1.03.516 1.03 1.546 0 2.061-1.029.516-2.574.516-3.603 0-1.03-.515-1.03-1.545 0-2.061 1.029-.515 2.574-.515 3.603 0z"/><path d="m311.452 323.607c1.03.515 1.03 1.546 0 2.061s-2.574.515-3.604 0c-1.029-.515-1.029-1.546 0-2.061 1.03-.515 2.574-.515 3.604 0z"/><path d="m320.718 318.193c1.029.515 1.029 1.546 0 2.061-1.03.515-2.574.515-3.604 0s-1.03-1.546 0-2.061 2.574-.515 3.604 0z"/><path d="m199.995 377.193c1.03.515 1.03 1.546 0 2.061s-2.574.515-3.604 0c-1.029-.515-1.029-1.546 0-2.061 1.03-.515 2.574-.515 3.604 0z"/><path d="m209.263 371.783c1.029.515 1.029 1.546 0 2.061-1.03.515-2.574.515-3.604 0s-1.03-1.546 0-2.061 2.574-.515 3.604 0z"/><path d="m218.53 366.63c1.03.516 1.03 1.546 0 2.062-1.029.515-2.574.515-3.603 0-1.03-.516-1.03-1.546 0-2.062 1.029-.772 2.574-.772 3.603 0z"/><path d="m227.796 361.22c1.029.516 1.029 1.546 0 2.061-1.03.516-2.574.516-3.604 0-1.029-.515-1.029-1.545 0-2.061 1.03-.515 2.574-.515 3.604 0z"/><path d="m237.061 355.81c1.03.516 1.03 1.546 0 2.061-1.029.516-2.574.516-3.603 0-1.03-.515-1.03-1.545 0-2.061 1.029-.515 2.574-.515 3.603 0z"/><path d="m246.327 350.399c1.03.515 1.03 1.546 0 2.061s-2.574.515-3.604 0c-1.029-.515-1.029-1.546 0-2.061 1.03-.515 2.832-.515 3.604 0z"/><path d="m255.597 344.989c1.029.515 1.029 1.546 0 2.061-1.03.515-2.574.515-3.604 0s-1.03-1.546 0-2.061 2.831-.515 3.604 0z"/><path d="m264.862 339.837c1.03.515 1.03 1.545 0 2.061-1.029.515-2.574.515-3.603 0-1.03-.516-1.03-1.546 0-2.061 1.029-.773 2.831-.773 3.603 0z"/><path d="m274.128 334.425c1.029.515 1.029 1.545 0 2.061-1.03.515-2.574.515-3.604 0-1.029-.516-1.029-1.546 0-2.061 1.03-.516 2.832-.516 3.604 0z"/><path d="m283.651 329.016c1.03.516 1.03 1.546 0 2.061-1.029.516-2.574.516-3.603 0-1.03-.515-1.03-1.545 0-2.061 1.029-.515 2.574-.515 3.603 0z"/><path d="m292.921 323.607c1.029.515 1.029 1.546 0 2.061-1.03.515-2.574.515-3.604 0-1.029-.515-1.029-1.546 0-2.061 1.03-.515 2.574-.515 3.604 0z"/><path d="m302.184 318.193c1.03.515 1.03 1.546 0 2.061-1.029.515-2.574.515-3.603 0-1.03-.515-1.03-1.546 0-2.061 1.029-.515 2.574-.515 3.603 0z"/><path d="m311.452 312.785c1.03.515 1.03 1.546 0 2.061s-2.574.515-3.604 0c-1.029-.515-1.029-1.546 0-2.061 1.03-.515 2.574-.515 3.604 0z"/><path d="m190.729 371.783c1.03.515 1.03 1.546 0 2.061-1.029.515-2.574.515-3.603 0-1.03-.515-1.03-1.546 0-2.061 1.029-.515 2.574-.515 3.603 0z"/><path d="m199.995 366.63c1.03.516 1.03 1.546 0 2.062-1.03.515-2.574.515-3.604 0-1.029-.516-1.029-1.546 0-2.062 1.03-.772 2.574-.772 3.604 0z"/><path d="m209.263 361.22c1.029.516 1.029 1.546 0 2.061-1.03.516-2.574.516-3.604 0-1.03-.515-1.03-1.545 0-2.061 1.03-.515 2.574-.515 3.604 0z"/><path d="m326.38 313.041c1.029-.516 2.574-.516 3.603 0 1.03.515 1.03 1.546 0 2.061-1.029.515-2.574.515-3.603 0-1.03-.515-1.03-1.546 0-2.061z"/><path d="m339.251 307.631c1.03.515 1.03 1.545 0 2.061-1.03.515-2.574.515-3.604 0-1.029-.516-1.029-1.546 0-2.061 1.03-.516 2.574-.516 3.604 0z"/><path d="m348.515 302.222c1.029.516 1.029 1.546 0 2.061-1.03.516-2.574.516-3.604 0-1.03-.515-1.03-1.545 0-2.061 1.03-.515 2.574-.515 3.604 0z"/><path d="m357.782 296.811c1.03.516 1.03 1.546 0 2.061-1.029.516-2.574.516-3.604 0-1.029-.515-1.029-1.545 0-2.061 1.03-.515 2.575-.515 3.604 0z"/><path d="m367.052 291.659c1.029.515 1.029 1.546 0 2.061-1.03.515-2.574.515-3.604 0s-1.03-1.546 0-2.061c1.03-.773 2.574-.773 3.604 0z"/><path d="m376.317 286.249c1.03.515 1.03 1.546 0 2.061-1.029.515-2.574.515-3.603 0-1.03-.515-1.03-1.546 0-2.061 1.029-.516 2.574-.516 3.603 0z"/><path d="m385.583 280.841c1.03.515 1.03 1.545 0 2.061-1.03.515-2.574.515-3.604 0-1.029-.516-1.029-1.546 0-2.061 1.03-.516 2.574-.516 3.604 0z"/><path d="m394.852 275.426c1.03.516 1.03 1.546 0 2.062-1.029.515-2.574.515-3.603 0-1.03-.516-1.03-1.546 0-2.062 1.029-.515 2.574-.515 3.603 0z"/><path d="m404.116 270.017c1.03.516 1.03 1.546 0 2.061-1.03.516-2.574.516-3.604 0-1.029-.515-1.029-1.545 0-2.061 1.03-.515 2.574-.515 3.604 0z"/><path d="m317.114 307.631c1.03-.516 2.574-.516 3.604 0 1.029.515 1.029 1.545 0 2.061-1.03.515-2.574.515-3.604 0-1.03-.516-1.03-1.546 0-2.061z"/><path d="m329.983 302.222c1.03.516 1.03 1.546 0 2.061-1.029.516-2.574.516-3.603 0-1.03-.515-1.03-1.545 0-2.061 1.029-.515 2.574-.515 3.603 0z"/><path d="m339.251 296.811c1.03.516 1.03 1.546 0 2.061-1.03.516-2.574.516-3.604 0-1.029-.515-1.029-1.545 0-2.061 1.03-.515 2.574-.515 3.604 0z"/><path d="m348.515 291.659c1.029.515 1.029 1.546 0 2.061-1.03.515-2.574.515-3.604 0s-1.03-1.546 0-2.061c1.03-.773 2.574-.773 3.604 0z"/><path d="m357.782 286.249c1.03.515 1.03 1.546 0 2.061-1.029.515-2.574.515-3.604 0-1.029-.515-1.029-1.546 0-2.061 1.03-.516 2.575-.516 3.604 0z"/><path d="m367.052 280.841c1.029.515 1.029 1.545 0 2.061-1.03.515-2.574.515-3.604 0-1.03-.516-1.03-1.546 0-2.061 1.03-.516 2.574-.516 3.604 0z"/><path d="m376.317 275.426c1.03.516 1.03 1.546 0 2.062-1.029.515-2.574.515-3.603 0-1.03-.516-1.03-1.546 0-2.062 1.029-.515 2.574-.515 3.603 0z"/><path d="m385.583 270.017c1.03.516 1.03 1.546 0 2.061-1.03.516-2.574.516-3.604 0-1.029-.515-1.029-1.545 0-2.061 1.03-.515 2.574-.515 3.604 0z"/><path d="m394.852 264.607c1.03.515 1.03 1.546 0 2.061-1.029.515-2.574.515-3.603 0-1.03-.515-1.03-1.546 0-2.061 1.029-.515 2.574-.515 3.603 0z"/><path d="m404.116 259.455c1.03.515 1.03 1.545 0 2.061-1.03.515-2.574.515-3.604 0-1.029-.516-1.029-1.546 0-2.061 1.03-.773 2.574-.773 3.604 0z"/></g><path d="m397.682 242.195c0-.258 0-.258 0 0v-5.41h-3.346c-.258-.258-.515-.258-.773-.516l-134.88-77.804c-5.92-3.35-16.216-3.092-23.166 1.03l-172.4611 100.219c-1.0296.515-2.0592 1.288-2.8315 2.319h-2.574v11.851c0 2.061 1.287 4.122 3.8611 5.668l134.8795 78.062c5.921 3.349 16.217 3.092 23.167-1.03l172.461-100.219c3.604-2.061 5.405-4.638 5.663-7.214v-3.091z" fill="#00a0b6"/><path d="m397.683 248.633v-3.091-3.35-.257-5.153h-3.346c-.258-.257-.515-.257-.773-.515l-50.194-28.855c-3.861 0-6.692.258-7.722.773-7.207 2.319-121.752 69.045-124.069 79.351-2.316 10.047-6.692 60.801-6.692 60.801v11.336c4.89.257 10.296-.773 14.672-3.092l172.461-100.219c3.604-2.576 5.663-5.152 5.663-7.729z" fill="#006587"/><path d="m58.9373 263.06v10.563c0 1.803 1.287 3.349 3.3463 4.637l134.8804 78.063c5.662 3.349 15.444 2.834 21.879-1.031l172.461-100.219c3.089-1.803 4.891-4.122 5.148-6.183v-6.698-4.123h-2.574l-.257-.257c-.258-.258-.515-.258-.515-.515l-135.138-77.805c-5.662-3.092-15.444-2.834-21.879 1.03l-172.461 100.219c-1.0296.515-2.0592 1.288-2.8314 2.061l-.2574.258zm147.7507 97.642c-3.862 0-7.723-.773-10.554-2.318l-135.1374-78.063c-2.8315-1.546-4.6333-4.122-4.6333-6.698v-12.882h3.3462c.7723-.773 1.8019-1.546 2.8315-2.061l172.461-100.219c7.207-4.122 18.018-4.637 24.196-1.03l134.88 78.062c.258 0 .257.258.515.258h4.118v13.139c-.257 3.092-2.316 6.183-6.177 8.244l-172.461 100.219c-3.604 2.319-8.752 3.349-13.385 3.349z" fill="#006587"/><path d="m196.651 346.019-134.8801-78.063c-5.9204-3.349-5.1481-9.275 1.5444-13.397l172.4607-100.219c6.95-3.864 17.246-4.38 23.167-1.03l134.88 78.062c5.92 3.349 5.148 9.275-1.545 13.397l-172.461 100.219c-6.95 3.865-17.246 4.38-23.166 1.031z" fill="#00a0b6"/><path d="m248.645 152.281c-4.376 0-9.01 1.031-12.356 3.092l-172.461 100.219c-3.0888 1.803-5.1481 4.122-5.1481 6.441 0 1.803 1.287 3.606 3.3463 4.637l134.8798 78.063c5.663 3.349 15.444 2.834 21.88-1.031l172.461-100.219c3.088-1.803 5.148-4.122 5.148-6.441 0-1.803-1.287-3.607-3.347-4.637l-134.88-78.063c-2.574-1.288-5.92-2.061-9.523-2.061zm-41.957 197.089c-3.862 0-7.723-.773-10.554-2.319l-135.1374-78.062c-2.8315-1.804-4.6333-4.122-4.6333-6.699 0-3.091 2.3166-6.183 6.1777-8.502l172.461-100.219c7.207-4.122 18.018-4.637 24.196-1.03l134.88 78.063c2.832 1.803 4.633 4.122 4.633 6.698 0 3.092-2.316 6.183-6.177 8.502l-172.461 100.219c-3.604 2.318-8.752 3.349-13.385 3.349z" fill="#006587"/><path d="m209.519 338.291-.514-.258-130.2472-75.229 163.9672-95.324.514.258 130.247 75.229z" fill="#006587"/><path d="m210.292 330.818-132.5635-76.517 167.3135-97.385 132.306 76.517z" fill="#f9fcff"/><path d="m80.0454 254.302 129.9896 75.229 164.996-95.84-129.989-75.486zm130.2466 77.805-.515-.258-134.3649-77.547 169.6299-98.673.515.258 134.365 77.547z" fill="#006587"/><path d="m356.242 188.862v.515l-13.385-7.729c-.258.258-.515.258-.772.516-3.862 2.318-5.921 5.668-9.782 3.607-3.861-2.319-7.722-2.834-3.861-5.153.258-.258.515-.258.772-.515l1.287-10.048-5.148-1.803-.772 9.274-14.929-14.942c-2.574-1.546-7.208-.773-7.98 1.288l-1.802 4.637-1.802-.257v11.078c0 .773.515 1.288 1.287 1.803l40.928 23.702c1.029.773 2.831 1.031 4.376.773l14.929-1.803c2.317-.258 3.861-1.546 3.604-2.834v-10.821z" fill="#006587"/><path d="m299.094 179.331c0 .258.258.515.773 1.03l40.927 23.703c1.03.515 2.317.773 3.604.515l14.929-1.804c1.802-.257 2.574-1.03 2.574-1.545v-10.048l-4.633-.773v1.031l-14.415-8.245h-.257c-1.03.516-1.802 1.289-2.574 1.804-2.317 1.803-4.891 3.607-8.495 1.803-.772-.515-1.801-.773-2.574-1.288-2.059-1.03-3.603-1.803-3.603-3.349 0-1.288 1.029-2.061 2.059-2.576 0 0 1.544 1.03 1.802.772v-9.274l-3.089-1.546-1.03 10.305-16.474-16.746c-1.287-.773-3.088-.773-4.633-.258-.772.258-1.287.773-1.544 1.031l-2.317 5.41-1.287-.257zm44.531 27.567c-1.544 0-2.831-.258-3.861-1.031l-40.927-23.702c-.515-.258-1.03-.773-1.287-1.288l-.515.257v-14.427l2.059.258 1.545-3.865c.515-1.03 1.544-1.803 2.831-2.319 2.317-.772 4.891-.515 6.693.516l.257.257 13.128 13.14.772-7.987 7.722 2.834v12.624l-2.059-.773c-.515.258-.515.258-.772.258-.515.257-.772.515-.772.515.514.258 1.287.773 2.059 1.288s1.802.773 2.574 1.288c2.059 1.288 3.346.258 5.663-1.546.772-.515 1.802-1.288 2.831-2.061.258 0 .258-.257.515-.257l.515-.516.772.258 12.098 6.956 8.237 1.288c.515 0 .772.516.772.773v11.336c.258 1.803-1.802 3.607-4.633 4.122l-14.93 1.804c-.514 0-1.029 0-1.287 0z" fill="#006587"/><path d="m361.904 188.093-19.048-11.079c-.258.258-.515.258-.772.516-3.861 2.318-10.039 2.318-13.9 0-3.861-2.319-3.861-5.668 0-7.987.257-.258.515-.258.772-.515l-19.82-11.336c-2.574-1.546-7.208-.773-7.98 1.288l-3.603 8.502c-.258 1.031 0 1.803 1.287 2.576l40.927 23.703c1.03.772 2.831 1.03 4.376.772l14.929-1.803c4.119-.515 5.406-3.092 2.832-4.637z" fill="#f9fcff"/><path d="m306.044 158.206c-.772 0-1.544 0-2.059.257-.772.258-1.287.773-1.545 1.031l-3.603 8.502c-.258.515.515 1.03.772 1.03l40.927 23.702c1.03.516 2.317.773 3.604.516l14.929-1.804c1.802-.257 2.574-1.03 2.574-1.545 0-.516-.514-.773-.772-1.031l-18.533-10.563h-.257c-4.119 2.319-10.811 2.319-14.93 0-2.316-1.288-3.346-3.092-3.346-4.895 0-1.546.772-3.092 2.574-4.38l-18.018-10.305c-.258-.258-1.287-.515-2.317-.515zm37.581 37.614c-1.544 0-2.831-.258-3.861-1.03l-40.927-23.703c-1.802-1.03-2.317-2.576-1.802-4.122l3.604-8.502c.514-1.03 1.544-1.803 2.831-2.318 2.317-.773 4.891-.516 6.693.515l21.622 12.624-2.06 1.03c-.515.258-.515.258-.772.258-1.544.773-2.317 1.804-2.317 2.834 0 1.031.773 2.061 2.317 2.834 3.346 2.061 9.267 2.061 12.613 0 .257 0 .257-.258.515-.258l.515-.515.772.258 19.048 11.078c1.544.773 2.316 2.061 2.059 3.607-.257 1.803-2.059 3.091-4.633 3.349l-14.93 1.803c-.515.258-1.029.258-1.287.258z" fill="#006587"/><path d="m364.222 226.22-106.051-61.316c-2.574-1.546-2.317-4.122.772-5.668l6.693-3.865c2.831-1.803 7.465-1.803 10.039-.515l106.05 61.317c2.574 1.545 2.317 4.122-.772 5.667l-6.692 3.865c-3.089 1.803-7.465 2.061-10.039.515z" fill="#f9fcff"/><path d="m364.734 225.19c2.06 1.288 6.178 1.03 8.752-.516l6.693-3.864c1.029-.773 1.802-1.546 1.802-2.319s-.515-1.288-1.03-1.546l-106.308-61.059c-2.059-1.288-6.178-1.03-8.752.516l-6.692 3.864c-1.03.515-1.545 1.288-1.545 2.061s.515 1.288 1.03 1.546zm3.861 3.349c-1.801 0-3.603-.258-4.89-1.031l-106.308-61.574c-1.287-.773-2.317-2.061-2.317-3.607s1.03-3.091 3.089-4.38l6.692-3.864c3.347-1.803 8.237-2.061 11.069-.515l106.051 61.316c1.544.773 2.316 2.061 2.316 3.607s-1.029 3.092-3.089 4.38l-6.692 3.864c-1.545 1.031-3.861 1.804-5.921 1.804z" fill="#006587"/><path d="m331.014 212.051-53.025-30.658c-1.287-.773-1.03-2.061.257-2.834l3.346-1.803c1.545-.773 3.604-1.031 4.891-.258l53.025 30.658c1.287.773 1.03 2.061-.257 2.834l-3.346 1.804c-1.287 1.03-3.604 1.03-4.891.257z" fill="#00a0b6"/><path d="m284.424 177.012c-.773 0-1.545.258-2.317.516l-3.346 1.803c-.515.258-.515.515-.515.515s0 0 .257.258l53.026 30.658c1.029.515 2.574.515 3.861-.257l3.346-1.804c.515-.257.515-.515.515-.515s0 0-.258-.258l-53.025-30.4c-.515-.258-1.03-.516-1.544-.516zm48.649 36.842c-1.029 0-2.059-.258-2.831-.773l-53.026-30.658c-1.029-.516-1.544-1.289-1.544-2.319 0-1.031.772-2.061 1.802-2.576l3.346-1.804c1.802-1.03 4.633-1.288 6.178-.257l53.282 30.658c1.03.515 1.545 1.288 1.545 2.319 0 1.03-.772 2.061-1.802 2.576l-3.346 1.803c-1.03.773-2.317 1.031-3.604 1.031z" fill="#006587"/><path d="m136.451 12.4064c0-.267 0-.267.267-.534l16.821-10.14592c.801-.800999 2.136-.534 3.471.53399l6.141 5.33997c.267.267 30.705 25.36486 64.08 19.22386.801 0 1.335-.267 2.136 0 3.204.267 6.942 2.403 10.413 5.874.8.801 1.602 1.869 2.135 2.67 32.04 43.7877 62.745 54.2006 64.08 54.7346l6.141 1.869c2.136.801 4.005 3.738 4.005 6.141v7.2091c-1.602 93.983-27.501 130.295-49.395 144.446l-20.292 12.549-1.335-4.005c-4.005.534-6.674.267-7.208.267-2.136-.267-4.272-1.602-6.408-3.738-2.67-2.937-62.745-68.352-75.828-200.5159l-9.078-19.7578z" fill="#006587"/><path d="m227.235 27.8928c-33.642 6.141-63.813-18.42286-65.148-19.49085l-6.141-5.33997c-.801-.53399-1.602-.53399-1.602-.26699l-16.287 9.87891 9.345 21.3599 9.078 19.7579v.534c13.083 131.8973 72.891 196.7773 75.561 199.7143 1.869 1.869 3.738 3.204 5.607 3.204.534 0 2.937.267 6.942-.267l1.068-.267 1.068 3.471 18.689-11.481c21.36-13.883 47.259-50.195 48.594-143.378v-7.2086c0-1.869-1.602-4.272-3.204-4.806l-6.141-2.136c-1.335-.534-32.307-11.2139-64.613-55.2686-.801-1.068-1.335-1.869-2.136-2.67-2.937-3.204-6.408-5.34-9.345-5.607-.267 0-.534 0-.534 0 0 .267-.534.267-.801.267zm16.554 231.7542c-3.738.534-5.874.267-6.408.267-2.403-.267-5.073-1.602-7.209-4.272-2.67-2.67-63.012-68.351-76.095-201.0493l-9.078-19.4909-9.612-22.1609c-.267-.801 0-1.869.801-2.136l16.554-10.1459c1.335-1.067994 3.204-.800995 5.073.534l6.141 5.33996c1.335 1.068 30.438 24.83084 63.012 18.95684.801-.267 1.602-.267 2.403 0 3.738.267 7.743 2.67 11.214 6.408.801.801 1.602 1.869 2.403 2.937 31.772 43.2537 61.943 53.6667 63.278 54.2007l6.141 1.8689c2.67.801 5.073 4.539 5.073 7.476v7.2086c-1.602 94.518-28.035 131.364-49.929 145.781l-21.893 13.35z" fill="#006587"/><path d="m153.272 1.72648c.801-.800999 2.136-.534 3.471.53399l6.141 5.33997c.267.267 30.705 25.36486 64.08 19.22386.801 0 1.335-.267 2.136 0 3.204.267 6.942 2.403 10.412 5.874.801.801 1.602 1.869 2.136 2.67 32.04 43.7877 62.745 54.2006 64.08 54.7346l6.141 1.869c1.068.267 2.136 1.335 2.937 2.67l-50.463 28.5691-106.265-44.856c-1.068-7.743-2.136-15.7529-2.937-24.0299l-9.078-19.7578-9.612-22.1609c0-.267 0-.267.267-.534z" fill="#f9fcff"/><path d="m311.606 93.308-6.141-2.136c-1.335-.534-32.307-11.2139-64.613-55.2686-.801-1.068-1.335-1.869-2.136-2.67-2.937-3.204-6.408-5.34-9.345-5.607-.534 0-1.068 0-1.869 0-33.642 6.141-63.813-18.42288-65.148-19.49087l-6.141-5.33996c-1.068-.267-1.869-.267-1.869 0l-16.287 9.87893 9.345 21.3599 9.078 19.7578v.534c.801 7.743 1.602 15.4859 2.937 22.9619l104.93 44.0549 48.327-27.501c-.267-.267-.801-.534-1.068-.534zm-154.592-13.8839v-.801c-1.068-7.743-2.136-15.7529-2.937-23.7629l-9.078-19.4908-9.612-22.1609c-.267-.801 0-1.869.801-2.136l16.554-10.145922c1.335-1.067993 3.204-.800995 5.073.533992l6.141 5.33997c1.335 1.06799 30.438 24.83086 63.012 18.95686.801-.267 1.602-.267 2.403 0 3.738.267 7.743 2.67 11.214 6.408.801.801 1.602 1.869 2.403 2.937 31.772 43.2537 61.943 53.6666 63.278 54.2006l6.141 1.869c1.335.534 2.67 1.602 3.738 3.204l.801 1.335-52.332 29.637z" fill="#006587"/><path d="m278.498 114.935c-13.617-7.476-35.777-22.9618-58.739-52.5987-1.602-2.1359-3.738-3.2039-5.34-3.2039-23.496 2.67-45.123-7.209-58.74-15.2189-1.869-1.068-3.204-.267-2.937 1.869 4.806 108.9355 42.987 172.4805 59.808 195.4425 2.67 3.738 7.743 8.811 10.68 8.01 16.821-3.738 53.666-26.433 58.472-129.227 0-1.602-1.602-4.005-3.204-5.073zm-64.613 150.32c-3.204-3.204-75.828-82.502-78.231-243.7694v-7.4759c0-2.403 1.869-3.204 4.005-1.602l6.141 5.3399c.267.267 30.705 25.3649 64.08 19.2239.801 0 1.335-.267 2.136 0 3.204.267 6.942 2.403 10.413 5.874.801.801 1.602 1.869 2.136 2.67 32.04 43.7877 62.744 54.2006 64.079 54.7345l6.141 1.869c2.136.801 4.005 3.738 4.005 6.141v7.209c-2.403 158.33-75.293 153.524-78.23 153.257-2.403.267-4.539-1.068-6.675-3.471z" fill="#00a0b6"/><path d="m280.099 120.276c0-1.335-1.068-3.471-2.403-4.272-14.418-8.01-36.312-23.7632-59.274-53.1331-1.602-1.8689-2.937-2.6699-4.005-2.6699-23.496 2.6699-45.389-6.942-59.54-15.2189-.534-.267-.801-.267-.801-.267s-.267.267-.267.801c4.806 108.9349 43.253 172.4809 59.54 194.6419 3.204 4.272 7.476 8.01 9.078 7.476 12.549-2.136 52.599-19.491 57.672-127.358zm-68.886 122.018c-16.554-22.428-55.268-86.508-60.074-196.2439 0-1.602.534-2.67 1.602-3.471 1.068-.534 2.403-.534 3.738.267 13.884 8.2769 34.976 17.6219 57.671 14.9519 2.136-.267 4.539 1.068 6.408 3.738 22.695 28.8358 44.055 44.322 58.206 52.332 2.136 1.335 4.005 4.272 3.738 6.675-5.34 109.736-46.992 127.625-59.541 130.562-.267 0-.534 0-.801 0-3.471 0-8.544-5.607-10.947-8.811zm-1.068-203.7199c-33.641 6.141-63.812-18.4229-65.147-19.4909l-6.141-5.3399c-1.068-.534-1.602-.534-1.869-.534s-.267.534-.267 1.068v7.4759c2.403 160.7328 74.759 239.4978 77.963 242.7018 1.869 1.869 3.738 3.204 5.607 3.204.801 0 18.156 1.335 36.045-14.685s39.516-52.866 40.851-137.237v-7.209c0-1.869-1.602-4.272-3.204-4.806l-6.141-2.136c-1.068-.267-32.04-10.9472-64.614-55.0019-.801-.801-1.335-1.869-2.136-2.67-2.937-3.204-6.408-5.34-9.345-5.607-.267 0-.534 0-.534 0-.534 0-.801.267-1.068.267zm9.879 232.0219c-2.403-.267-5.073-1.602-7.209-4.005-3.204-3.204-76.094-82.77-78.764-244.5708v-7.4759c0-1.602.534-2.937 1.869-3.471s2.937-.267 4.539 1.068l6.141 5.3399c1.335 1.068 30.438 24.8309 63.011 18.9569.801-.267 1.602-.267 2.403 0 3.738.267 7.743 2.67 11.214 6.408.801.801 1.602 1.869 2.403 2.937 31.773 43.2537 61.944 53.6666 63.279 54.2006l6.141 1.8693c2.67.801 5.073 4.539 5.073 7.476v7.209c-1.335 85.439-23.496 122.819-41.652 139.373-15.486 13.884-30.438 15.486-36.045 15.486-1.335-.801-1.869-.801-2.403-.801z" fill="#006587"/><path d="m155.677 44.1804c13.35 8.0099 35.244 17.8889 58.74 15.2189 1.602-.267 3.738 1.068 5.34 3.204 22.962 29.6368 45.123 45.1227 58.739 52.5987 1.869 1.068 3.204 3.471 3.204 5.607-4.806 102.527-41.651 125.489-58.472 129.227-2.67.534-7.743-4.272-10.68-8.01-16.821-22.962-55.002-86.507-59.808-195.4426-.267-2.67 1.335-3.471 2.937-2.403z" fill="#00a0b6"/><path d="m214.415 60.4671c-23.496 2.67-45.389-6.942-59.54-15.2189-.534-.267-.801-.267-.801-.267s-.267.267-.267.801c4.806 108.9348 43.253 172.4808 59.54 194.6418 3.204 4.272 7.476 8.01 9.078 7.476 12.282-2.67 52.332-20.025 57.405-127.892 0-1.335-1.068-3.471-2.403-4.272-14.418-8.01-36.312-23.7631-59.274-53.1329-1.068-1.335-2.403-2.136-3.738-2.136.267 0 .267 0 0 0zm-3.204 181.8259c-16.287-22.428-55.268-86.508-60.074-196.2438 0-1.602.534-2.67 1.602-3.471 1.068-.534 2.403-.534 3.738.267 13.884 8.277 34.976 17.6219 57.671 14.9519 2.136-.267 4.539 1.068 6.408 3.738 22.695 28.8358 44.055 44.3219 58.206 52.3319 2.136 1.335 4.005 4.272 3.738 6.675-5.34 109.736-46.992 127.625-59.541 130.562-.267 0-.534 0-.801 0-3.471 0-8.544-5.607-10.947-8.811z" fill="#006587"/><path d="m155.677 44.1819c2.403 1.602 5.34 2.937 8.277 4.539 5.607 105.9981 42.987 168.2091 59.541 190.9041 1.869 2.67 5.073 5.874 7.743 7.209-2.937 1.335-5.607 2.403-8.01 2.937-2.67.534-7.743-4.272-10.68-8.01-16.821-22.962-55.002-86.508-59.808-195.4431-.267-2.403 1.335-3.204 2.937-2.136z" fill="#006587"/><path d="m222.425 240.157c-16.02-21.894-53.933-84.371-59.807-190.9038-2.67-1.335-5.073-2.67-7.476-4.272-.534-.267-.801-.267-.801-.267s-.267.267-.267.801c4.806 108.9358 43.253 172.4808 59.54 194.6418 3.204 4.272 7.476 8.01 9.078 7.476 1.869-.267 3.471-1.068 5.34-1.869-2.136-1.068-4.272-3.471-5.607-5.607zm-11.214 2.136c-16.287-22.428-55.268-86.508-60.074-196.2438 0-1.602.534-2.67 1.602-3.471 1.068-.534 2.403-.534 3.738.267 2.67 1.602 5.34 2.937 8.01 4.539l.801.267v.801c5.874 106.2658 43.253 168.4758 59.273 190.1028 1.602 2.403 4.806 5.607 7.209 6.942l2.403 1.335-2.403 1.068c-2.937 1.335-5.607 2.403-8.277 2.937-.267 0-.534 0-.801 0-4.005.267-9.078-5.34-11.481-8.544z" fill="#006587"/><path d="m297.987 105.59 17.622-9.8794-1.335-2.403-17.622 9.8794z" fill="#006587"/><path d="m287.308 100.784 17.622-10.1457-1.335-2.4029-17.622 10.1459z" fill="#006587"/><path d="m213.083 38.0401 17.622-10.1459-1.335-2.403-17.622 10.1459z" fill="#006587"/><path d="m229.37 52.9903 17.621-10.1459-1.602-2.403-17.621 10.1459z" fill="#006587"/><path d="m300.659 133.89 13.35-8.009-1.602-2.403-13.35 8.009z" fill="#00a0b6"/><path d="m278.23 230.81 12.014-6.942-1.602-2.403-11.747 6.942z" fill="#00a0b6"/><path d="m193.325 38.8403 18.69-10.4129-1.335-2.403-18.69 10.4129z" fill="#006587"/><path d="m214.416 241.758 5.874-3.738-1.335-2.403-6.141 3.738z" fill="#00a0b6"/><path d="m156.212 66.3408 7.743-4.806-1.335-2.403-7.743 4.806z" fill="#00a0b6"/><path d="m157.814 81.8271 7.742-4.806-1.335-2.4029-7.742 4.8059z" fill="#00a0b6"/><path d="m225.896 179.013-2.67-1.602c-9.612-5.607-17.355-20.559-17.355-33.375v-15.752c0-4.005 2.403-5.874 5.607-4.272l26.433 15.219c3.204 1.868 5.607 6.407 5.607 10.679v15.753c-.267 12.816-8.01 18.957-17.622 13.35z" fill="#00a0b6"/><path d="m209.078 125.08c-.267 0-.267 0-.534 0-.534.267-1.068 1.068-1.068 2.937v16.02c0 12.282 7.476 26.433 16.554 31.773l2.67 1.602c3.471 2.136 6.942 2.403 9.612.801 3.204-1.869 5.073-6.408 5.073-12.549v-15.753c0-3.471-2.136-7.476-4.539-9.078l-26.433-15.219c-.267-.267-.801-.534-1.335-.534zm23.763 57.939c-2.403 0-5.073-.801-8.01-2.403l-2.67-1.602c-10.146-5.874-18.423-21.627-18.423-34.977v-15.753c0-2.937 1.068-5.073 2.937-6.141 1.602-.801 3.471-.801 5.607.267l26.433 15.219c3.738 2.136 6.408 7.476 6.408 12.282v15.753c0 7.476-2.67 13.083-6.942 15.753-1.602 1.068-3.471 1.602-5.34 1.602z" fill="#f9fcff"/><path d="m226.433 165.93-3.738-2.136v-13.35h3.738z" fill="#f9fcff"/><path d="m230.972 153.381c0 4.005-2.937 5.607-6.408 3.738-3.471-2.136-6.408-6.942-6.408-10.947s2.937-5.607 6.408-3.738 6.408 6.675 6.408 10.947z" fill="#f9fcff"/><path d="m213.615 123.211 21.36 12.281v-5.073c0-8.009-5.073-17.354-10.68-20.825l-1.869-1.068c-1.602-.801-3.738-1.869-5.874-.534-1.869 1.068-3.204 4.005-3.204 7.743v7.476zm25.098 18.689-28.836-16.553v-9.612c0-5.34 1.869-9.345 5.073-11.214 2.67-1.602 6.141-1.335 9.612.534l1.869 1.068c7.209 4.005 12.549 14.685 12.549 24.029v11.748z" fill="#f9fcff"/></svg>