<svg width="49" height="48" viewBox="0 0 49 48" fill="none" xmlns="http://www.w3.org/2000/svg">
<circle cx="24.5" cy="24" r="24" fill="#DDF5FF"/>
<g clip-path="url(#clip0)">
<path d="M33.0351 32.5358C31.8182 32.5358 30.7831 33.3258 30.4137 34.4195H14.0801C12.4896 34.4195 11.1957 33.1256 11.1957 31.5351C11.1957 29.9446 12.4896 28.6506 14.0801 28.6506H19.7313C22.2956 28.6506 24.3817 26.5645 24.3817 24.0002C24.3817 21.4359 22.2956 19.3498 19.7313 19.3498H14.8178C14.5421 18.5335 13.8956 17.887 13.0794 17.6114V15.4646H17.8476C18.3352 15.4646 18.7306 15.0692 18.7306 14.5816V10.8141C18.7306 10.3265 18.3352 9.93115 17.8476 9.93115H12.1964C11.7088 9.93115 11.3134 10.3265 11.3134 10.8141V14.5816V17.6114C10.2197 17.9808 9.42969 19.0159 9.42969 20.2328C9.42969 21.7583 10.6708 22.9995 12.1964 22.9995C13.4132 22.9995 14.4483 22.2095 14.8178 21.1157H19.7313C21.3218 21.1157 22.6157 22.4097 22.6157 24.0002C22.6157 25.5907 21.3218 26.8846 19.7313 26.8846H14.0801C11.5158 26.8846 9.42969 28.9708 9.42969 31.5351C9.42969 34.0994 11.5158 36.1855 14.0801 36.1855H30.4137C30.7831 37.2792 31.8182 38.0692 33.0351 38.0692C34.5606 38.0692 35.8018 36.8281 35.8018 35.3025C35.8018 33.7769 34.5606 32.5358 33.0351 32.5358ZM13.0794 11.6971H16.9646V13.6986H13.0794V11.6971ZM12.1964 21.2335C11.6446 21.2335 11.1957 20.7846 11.1957 20.2328C11.1957 19.6809 11.6446 19.232 12.1964 19.232C12.7482 19.232 13.1971 19.6809 13.1971 20.2328C13.1971 20.7846 12.7482 21.2335 12.1964 21.2335ZM33.0351 36.3032C32.4833 36.3032 32.0343 35.8543 32.0343 35.3025C32.0343 34.7507 32.4833 34.3018 33.0351 34.3018C33.5869 34.3018 34.0358 34.7507 34.0358 35.3025C34.0358 35.8543 33.5869 36.3032 33.0351 36.3032Z" fill="#3CA7FF"/>
<path d="M33.0362 15.5815C31.5107 15.5815 30.2695 16.8227 30.2695 18.3483C30.2695 19.8738 31.5107 21.115 33.0362 21.115C34.5618 21.115 35.803 19.8738 35.803 18.3483C35.803 16.8227 34.5618 15.5815 33.0362 15.5815ZM33.0362 19.349C32.4844 19.349 32.0355 18.9001 32.0355 18.3483C32.0355 17.7964 32.4844 17.3475 33.0362 17.3475C33.5881 17.3475 34.037 17.7964 34.037 18.3483C34.037 18.9001 33.5881 19.349 33.0362 19.349Z" fill="#3CA7FF"/>
<path d="M33.0342 11.8145C29.4312 11.8145 26.5 14.7456 26.5 18.3486C26.5 20.2942 27.3476 22.1069 28.8326 23.3531L32.2475 30.0519C32.3982 30.3477 32.7022 30.5339 33.0342 30.5339C33.3662 30.5339 33.6701 30.3477 33.8208 30.0519L37.2357 23.3531C38.7207 22.1069 39.5683 20.2942 39.5683 18.3486C39.5683 14.7456 36.6371 11.8145 33.0342 11.8145ZM35.9863 22.0933C35.8863 22.1722 35.8047 22.2718 35.7468 22.3852L33.0342 27.7067L30.3215 22.3852C30.2637 22.2718 30.182 22.1722 30.082 22.0933C28.9279 21.182 28.266 19.8171 28.266 18.3486C28.266 15.7194 30.405 13.5804 33.0342 13.5804C35.6634 13.5804 37.8023 15.7194 37.8023 18.3486C37.8023 19.8171 37.1404 21.182 35.9863 22.0933Z" fill="#3CA7FF"/>
</g>
<defs>
<clipPath id="clip0">
<rect width="30.1395" height="30.1395" fill="white" transform="translate(9.42969 8.93018)"/>
</clipPath>
</defs>
</svg>
