<svg fill="none" height="30" viewBox="0 0 30 30" width="30" xmlns="http://www.w3.org/2000/svg"><rect fill="#65a2fd" height="30" rx="7" width="30"/><path clip-rule="evenodd" d="m19.75 10.25h-4.71l-.24-.74998c-.3189-.90201-1.1733-1.5037-2.13-1.5h-3.42c-1.24264 0-2.25 1.00735-2.25 2.24998v9.75c0 1.2426 1.00736 2.25 2.25 2.25h10.5c1.2426 0 2.25-1.0074 2.25-2.25v-7.5c0-1.2426-1.0074-2.25-2.25-2.25zm-4.7175 3.9676c-.0713-.0682-.1554-.1218-.2475-.1574-.1826-.0751-.3874-.0751-.57 0-.092.0356-.1762.0892-.2475.1574l-1.5 1.5c-.2941.2941-.2941.771 0 1.065.2941.2941.7709.2941 1.065 0l.2175-.2249v1.9424c0 .4143.3358.75.75.75s.75-.3357.75-.75v-1.9424l.2175.2249c.1408.142.3325.2219.5325.2219s.3917-.0799.5325-.2219c.142-.1408.2219-.3325.2219-.5325 0-.1999-.0799-.3916-.2219-.5325zm4.7174 6.5324c.4143 0 .75-.3358.75-.75v-7.5c0-.4142-.3357-.75-.75-.75h-5.25c-.3224.0008-.6093-.2045-.7125-.51l-.405-1.23c-.1031-.30548-.39-.51084-.7125-.51001h-3.41996c-.41421 0-.75.33578-.75.75001v9.75c0 .4142.33579.75.75.75z" fill="#fff" fill-rule="evenodd"/></svg>