<svg fill="none" height="57" viewBox="0 0 42 57" width="42" xmlns="http://www.w3.org/2000/svg" xmlns:xlink="http://www.w3.org/1999/xlink"><linearGradient id="a" gradientUnits="userSpaceOnUse" x1="20.8534" x2="20.8534" y1="21.9292" y2="56.5154"><stop offset="0" stop-color="#b0e7c6"/><stop offset="1" stop-color="#5dd1b3"/></linearGradient><path d="m21 .515625c-7.176.009213-12.99119 6.088655-13 13.590875v8.3636c0 .5774.44775 1.0455 1.00003 1.0455h4.00007c.5522 0 1-.4681 1-1.0455v-8.3636c-.0001-4.0417 3.1339-7.31816 6.9999-7.31816s7 3.27646 7 7.31816v8.3636c0 .5774.4478 1.0455 1 1.0455h4c.5522 0 1-.4681 1-1.0455v-8.3636c-.0088-7.50222-5.824-13.581662-13-13.590875z" fill="#5183bb"/><path d="m6.13334 21.9292h29.44026c3.3873 0 6.1333 2.7651 6.1333 6.1761v22.2339c0 3.4111-2.746 6.1762-6.1333 6.1762h-29.44026c-3.38735 0-6.13334-2.7651-6.13334-6.1761v-22.2339c0-3.4111 2.74599-6.1762 6.13334-6.1762z" fill="url(#a)"/><path d="m26 35.8435c.0116-2.9301-2.2175-5.3155-4.9789-5.3278-2.7614-.0124-5.0094 2.3529-5.0211 5.2831-.008 2.0253 1.0713 3.8788 2.782 4.7772l-.7721 5.7299c-.0773.5803.3033 1.1172.8502 1.1992.0463.007.0931.0105.1398.0105h4.0001c.5522.0059 1.0045-.4643 1.01-1.0503.0005-.054-.0028-.1081-.0101-.1615l-.772-5.7299c1.6897-.8973 2.7611-2.7256 2.7721-4.7304z" fill="#5183bb"/></svg>