<svg fill="none" height="30" viewBox="0 0 30 30" width="30" xmlns="http://www.w3.org/2000/svg"><rect fill="#ffc634" height="30" rx="7" width="30"/><path clip-rule="evenodd" d="m8.49999 21.4998h12.74991c.4142 0 .75.3357.75.75 0 .4142-.3358.7499-.75.7499h-13.49991c-.41421 0-.74999-.3357-.74999-.7499v-13.49982c0-.4142.33578-.74998.74999-.74998s.75.33578.75.74998zm3.75021-4.1247c0 .6214-.5037 1.125-1.125 1.125s-1.125-.5036-1.125-1.125c0-.6213.5037-1.1249 1.125-1.1249l2.25-2.25c0-.6213.5036-1.125 1.1249-1.125.6214 0 1.125.5037 1.125 1.125l1.2975 1.32h.12l2.7075-2.7075c-.0037-.0374-.0037-.0751 0-.1125 0-.6213.5037-1.125 1.125-1.125s1.125.5037 1.125 1.125-.5037 1.125-1.125 1.125l-2.73 2.7525v.06c0 .6213-.5037 1.1249-1.125 1.1249s-1.125-.5036-1.125-1.1249v-.06l-1.2075-1.2075h-.1725-.1725l-2.0924 2.0924c.0036.0375.0036.0751 0 .1125z" fill="#fff" fill-rule="evenodd"/></svg>