<svg fill="none" height="220" viewBox="0 0 265 220" width="265" xmlns="http://www.w3.org/2000/svg" xmlns:xlink="http://www.w3.org/1999/xlink"><filter id="a" color-interpolation-filters="sRGB" filterUnits="userSpaceOnUse" height="51.7289" width="51.7289" x="203.17" y="41.615"><feFlood flood-opacity="0" result="BackgroundImageFix"/><feColorMatrix in="SourceAlpha" result="hardAlpha" type="matrix" values="0 0 0 0 0 0 0 0 0 0 0 0 0 0 0 0 0 0 127 0"/><feOffset dx="2" dy="2"/><feGaussianBlur stdDeviation="2"/><feColorMatrix type="matrix" values="0 0 0 0 0.0846528 0 0 0 0 0.150363 0 0 0 0 0.383333 0 0 0 0.25 0"/><feBlend in2="BackgroundImageFix" mode="normal" result="effect1_dropShadow"/><feBlend in="SourceGraphic" in2="effect1_dropShadow" mode="normal" result="shape"/></filter><filter id="b" color-interpolation-filters="sRGB" filterUnits="userSpaceOnUse" height="62.1662" width="60.0395" x="114.099" y="23.8008"><feFlood flood-opacity="0" result="BackgroundImageFix"/><feColorMatrix in="SourceAlpha" result="hardAlpha" type="matrix" values="0 0 0 0 0 0 0 0 0 0 0 0 0 0 0 0 0 0 127 0"/><feOffset dx="2" dy="2"/><feGaussianBlur stdDeviation="2"/><feColorMatrix type="matrix" values="0 0 0 0 0.0846528 0 0 0 0 0.150363 0 0 0 0 0.383333 0 0 0 0.25 0"/><feBlend in2="BackgroundImageFix" mode="normal" result="effect1_dropShadow"/><feBlend in="SourceGraphic" in2="effect1_dropShadow" mode="normal" result="shape"/></filter><linearGradient id="c" gradientUnits="userSpaceOnUse" x1="135.21" x2="135.21" y1="67.302" y2="183.304"><stop offset="0" stop-color="#fff"/><stop offset="1" stop-color="#d7f1f9"/></linearGradient><linearGradient id="d"><stop offset="0" stop-color="#b0e7c6"/><stop offset="1" stop-color="#5dd1b3"/></linearGradient><linearGradient id="e" gradientUnits="userSpaceOnUse" x1="227.034" x2="227.034" xlink:href="#d" y1="43.615" y2="87.3439"/><linearGradient id="f" gradientUnits="userSpaceOnUse" x1="165.532" x2="165.532" xlink:href="#d" y1="102.087" y2="150.135"/><linearGradient id="g" gradientUnits="userSpaceOnUse" x1="91.2673" x2="91.2673" xlink:href="#d" y1="82.929" y2="129.939"/><path d="m261.193 212.947h-234.5746c-1.8148 0-3.176 1.512-3.176 3.176 0 1.815 1.5124 3.176 3.176 3.176h234.5746c1.815 0 3.176-1.512 3.176-3.176s-1.361-3.176-3.176-3.176z" fill="#d7f1f9"/><path d="m70.4783 144.284v-13.309h-5.8984c-.7562-3.328-2.1174-6.504-3.9323-9.377l4.2347-4.235-9.3769-9.377-4.2347 4.235c-2.8736-1.815-6.0497-3.176-9.377-3.932v-5.899h-13.3092v5.899c-3.3273.756-6.5033 2.117-9.3769 3.932l-4.2348-4.235-9.37689 9.377 4.23475 4.235c-1.81489 2.873-3.17606 6.049-3.93226 9.377h-5.8984v13.309h5.8984c.7562 3.327 2.11737 6.503 3.93226 9.377l-4.23475 4.235 9.37689 9.376 4.2348-4.234c2.8736 1.815 6.0496 3.176 9.3769 3.932v5.898h13.3092v-5.898c3.3273-.756 6.5034-2.117 9.377-3.932l4.2347 4.234 9.3769-9.376-4.2347-4.235c1.8149-2.874 3.1761-6.05 3.9323-9.377zm-35.2392 8.016c-8.167 0-14.6703-6.504-14.6703-14.671s6.5033-14.67 14.6703-14.67 14.6704 6.503 14.6704 14.67c0 8.016-6.6546 14.671-14.6704 14.671z" fill="#badbff"/><path d="m221.416 57.9248h-162.281c-9.6794 0-17.5439 7.8645-17.5439 17.544v99.6672c0 9.68 7.8645 17.544 17.5439 17.544h162.281c9.68 0 17.544-7.864 17.544-17.544v-99.6672c-.151-9.6795-7.864-17.544-17.544-17.544z" fill="#5183bb"/><path d="m59.1354 183.304c-4.5372 0-8.167-3.63-8.167-8.167v-99.668c0-4.5372 3.6298-8.167 8.167-8.167h152.1486c4.537 0 8.167 3.6298 8.167 8.167v99.668c0 4.537-3.63 8.167-8.167 8.167z" fill="url(#c)"/><path d="m233.97 127.042c0-2.873-2.42-5.293-5.294-5.293-2.873 0-5.293 2.42-5.293 5.293 0 2.874 2.42 5.294 5.293 5.294 2.874 0 5.294-2.42 5.294-5.294z" fill="#fff"/><g fill="#5183bb"><path d="m100.575 140.502h-31.6096c-1.0587 0-1.9661.908-1.9661 1.967 0 1.058.9074 1.966 1.9661 1.966h31.6096c1.058 0 1.966-.908 1.966-1.966-.151-1.21-.908-1.967-1.966-1.967z"/><path d="m100.575 148.972h-31.6096c-1.0587 0-1.9661.907-1.9661 1.966s.9074 1.966 1.9661 1.966h31.6096c1.058 0 1.966-.907 1.966-1.966-.151-1.21-.908-1.966-1.966-1.966z"/><path d="m100.575 157.257h-31.6096c-1.0587 0-1.9661.907-1.9661 1.966s.9074 1.966 1.9661 1.966h31.6096c1.058 0 1.966-.907 1.966-1.966-.151-1.21-.908-1.966-1.966-1.966z"/></g><path d="m147.762 170.448h-76.5277c-1.5124 0-2.7223 1.21-2.7223 2.723 0 1.512 1.2099 2.722 2.7223 2.722h76.6787c1.513 0 2.723-1.21 2.723-2.722 0-1.513-1.361-2.723-2.874-2.723z" fill="#badbff"/><path d="m116.299 147.006h-6.957v13.31h6.957z" fill="#5183bb"/><path d="m128.247 142.166h-6.957v18.149h6.957z" fill="#badbff"/><path d="m140.648 137.781h-6.957v22.534h6.957z" fill="#5183bb"/><g filter="url(#a)"><path d="m227.034 87.3439c12.076 0 21.865-9.7891 21.865-21.8645s-9.789-21.8644-21.865-21.8644c-12.075 0-21.864 9.789-21.864 21.8644s9.789 21.8645 21.864 21.8645z" fill="url(#e)"/></g><g filter="url(#b)"><path d="m168.139 51.8362c0-14.6703-12.251-26.6184-27.073-26.0134-13.46.4537-24.501 11.4943-24.954 24.9547-.454 14.8216 11.343 27.0722 26.013 27.0722 1.361 0 2.722-.1513 4.084-.3025.605-.1513 1.21 0 1.814.1512l6.05 2.2686 1.059-4.2347c.151-.9075.756-1.8149 1.512-2.2686 6.957-4.8397 11.495-12.7043 11.495-21.6275z" fill="#badbff"/></g><path d="m151.804 46.5422h-19.208c-1.21 0-2.117.9075-2.117 2.1174s.907 2.1174 2.117 2.1174h19.208c1.21 0 2.117-.9075 2.117-2.1174s-.907-2.1174-2.117-2.1174z" fill="#fff"/><path d="m144.393 55.0122h-11.948c-1.21 0-2.117.9074-2.117 2.1174 0 1.2099.907 2.1174 2.117 2.1174h11.948c1.21 0 2.118-.9075 2.118-2.1174 0-1.0587-.908-2.1174-2.118-2.1174z" fill="#fff"/><path d="m143.451 104.961s-.152-10.2846-1.967-10.7384c-1.814-.3024-.756 6.2014-.756 6.2014s-2.42-.152-3.176.907c-.756 1.21-1.059 6.201 1.059 6.806 1.966.756 4.84-3.176 4.84-3.176z" fill="#ffe27c"/><path d="m190.334 144.283c.908.605-1.21 23.443-2.117 30.702-.907 7.109 4.688 35.088 4.688 35.088l-5.595-.302s-9.982-29.643-10.134-33.424c-.151-3.782-4.386-28.736-4.386-28.736z" fill="#004e82"/><path d="m192.149 144.284s-3.63 11.04-9.074 16.031c-5.445 5.142-12.251 16.334-12.251 16.334l1.966 33.424h-6.201s-6.654-33.575-6.654-36.449c0-2.873 9.074-32.97 9.074-32.97z" fill="#5183bb"/><path d="m169.615 92.5594s-1.966 9.9816 5.596 10.8896c7.411.907 7.713-14.0657 7.713-14.0657s-8.923-2.5711-9.528-1.8149-.605.7562-.605.7562z" fill="#ffe27c"/><path d="m174.001 102.087h-.605c-3.327.303-6.049 3.328-8.016 6.05l-10.738 11.797-11.191-14.973-4.84 3.176s12.402 23.442 17.393 22.384c4.839-1.059 10.738-7.865 10.738-7.865s-1.21 20.72-1.966 23.442c0 0 19.661 8.772 27.677.454l-2.269-33.726c-.605-4.084-3.479-7.411-7.562-8.47z" fill="url(#f)"/><path d="m172.792 210.074v5.293h-12.705c-.907 0-1.361-1.361-.453-1.815 2.268-1.21 5.142-2.873 6.957-3.63 3.327-1.21 6.201.152 6.201.152z" fill="#5183bb"/><path d="m192.906 210.074v5.293h-12.251c-1.058 0-1.512-1.512-.605-2.117 2.118-1.21 4.84-2.571 6.504-3.328 3.478-1.21 6.352.152 6.352.152z" fill="#5183bb"/><path d="m174.303 112.977s-5.747-4.84-2.874-9.68c2.874-4.8392 4.991-7.4103 4.537-10.2839 0 0-.151-3.6298-2.722-1.3612 0 0-1.059 1.8149-3.478 1.0587 0 0-2.118-10.4356 9.225-12.553 11.797-2.4198 14.973 6.3522 14.066 11.9481-.908 5.5959-4.991 5.7471 0 12.7043 4.991 6.806-5.142 18.905-18.754 8.167z" fill="#004e82"/><path d="m236.508 62.5554-5.448-.5152c-.344-.0312-.641-.2497-.781-.5775l-1.951-4.7301c-.312-.7805-1.421-.7805-1.733 0l-1.936 4.7301c-.125.3278-.437.5463-.78.5775l-5.449.5152c-.811.0781-1.139 1.0927-.53 1.6391l4.105 3.6061c.266.2341.375.5776.297.921l-1.233 5.0577c-.188.7963.671 1.4518 1.389 1.0305l4.543-2.6696c.296-.1717.655-.1717.952 0l4.543 2.6696c.718.4213 1.577-.2186 1.389-1.0305l-1.218-5.0577c-.078-.3434.032-.6869.297-.921l4.106-3.6061c.593-.5464.249-1.561-.562-1.6391z" fill="#fff"/><path clip-rule="evenodd" d="m102.013 93.6745c0 5.9346-4.8112 10.7455-10.7458 10.7455s-10.7455-4.8109-10.7455-10.7455 4.8109-10.7455 10.7455-10.7455 10.7458 4.8109 10.7458 10.7455zm-33.2137 35.2885c0-12.389 10.0793-22.468 22.468-22.468s22.4677 10.079 22.4677 22.468c0 .539-.437.976-.977.976h-42.9818c-.5392 0-.9769-.437-.9769-.976z" fill="url(#g)" fill-rule="evenodd"/><circle cx="119.477" cy="93.6789" fill="#ffe27c" r="10.7499"/><path d="m123.898 92.1291-2.599-.2458c-.164-.0149-.305-.1191-.372-.2755l-.931-2.2567c-.149-.3724-.678-.3724-.827 0l-.924 2.2567c-.059.1564-.208.2606-.372.2755l-2.599.2458c-.388.0372-.544.5214-.254.782l1.959 1.7205c.127.1117.179.2755.142.4394l-.589 2.413c-.089.3799.321.6927.663.4917l2.168-1.2737c.141-.0819.312-.0819.454 0l2.167 1.2737c.343.201.752-.1043.663-.4917l-.581-2.413c-.037-.1639.015-.3277.142-.4394l1.958-1.7205c.283-.2606.12-.7448-.268-.782z" fill="#fff"/></svg>