<svg width="48" height="51" viewBox="0 0 48 51" fill="none" xmlns="http://www.w3.org/2000/svg">
<path d="M38.0859 13.6992L27.832 10.7695L24.9023 0.515625H4.39453C1.96748 0.515625 0 2.48311 0 4.91016V46.1211C0 48.5481 1.96748 50.5156 4.39453 50.5156H33.6914C36.1185 50.5156 38.0859 48.5481 38.0859 46.1211V13.6992Z" fill="url(#paint0_linear)"/>
<path d="M21.1133 21.4453H6.46484C5.65518 21.4453 5 20.7901 5 19.9805C5 19.1708 5.65518 18.5156 6.46484 18.5156H21.1133C21.9229 18.5156 22.5781 19.1708 22.5781 19.9805C22.5781 20.7901 21.9229 21.4453 21.1133 21.4453Z" fill="#5183BB"/>
<path d="M21.1133 27.3047H6.46484C5.65518 27.3047 5 26.6495 5 25.8398C5 25.0302 5.65518 24.375 6.46484 24.375H21.1133C21.9229 24.375 22.5781 25.0302 22.5781 25.8398C22.5781 26.6495 21.9229 27.3047 21.1133 27.3047Z" fill="#5183BB"/>
<path d="M21.1133 33.1641H6.46484C5.65518 33.1641 5 32.5089 5 31.6992C5 30.8896 5.65518 30.2344 6.46484 30.2344H21.1133C21.9229 30.2344 22.5781 30.8896 22.5781 31.6992C22.5781 32.5089 21.9229 33.1641 21.1133 33.1641Z" fill="#5183BB"/>
<path d="M38.0859 13.6992H27.832C26.2207 13.6992 24.9023 12.3809 24.9023 10.7695V0.515625C25.2832 0.515625 25.6641 0.662109 25.9276 0.955176L37.6464 12.6739C37.9395 12.9375 38.0859 13.3184 38.0859 13.6992Z" fill="#BEDEFF"/>
<path d="M46.3106 21.501C42.2565 21.501 38.0551 17.7432 38.0135 17.7055C37.7343 17.4523 37.3086 17.4523 37.0294 17.7055C36.9876 17.7434 32.7973 21.501 28.7324 21.501C28.3279 21.501 28 21.8289 28 22.2334V31.0048C28 38.1105 33.285 40.9499 37.2603 42.4675C37.3444 42.4996 37.4329 42.5156 37.5215 42.5156C37.6101 42.5156 37.6986 42.4996 37.7827 42.4675C43.3566 40.3396 47.043 37.0203 47.043 31.0048V22.2334C47.043 21.8289 46.715 21.501 46.3106 21.501Z" fill="url(#paint1_linear)"/>
<path d="M35.9286 33.5156C35.6958 33.5156 35.463 33.3984 35.2884 33.2226L32.2619 30.175C31.9127 29.8233 31.9127 29.1786 32.2619 28.827C32.6111 28.4753 33.2513 28.4753 33.6005 28.827L35.9868 31.2299L41.3995 25.7794C41.7487 25.4277 42.3889 25.4277 42.7381 25.7794C43.0873 26.131 43.0873 26.7757 42.7381 27.1273L36.627 33.2226C36.4524 33.3984 36.2196 33.5156 35.9286 33.5156Z" fill="white"/>
<defs>
<linearGradient id="paint0_linear" x1="19.043" y1="0.515625" x2="19.043" y2="50.5156" gradientUnits="userSpaceOnUse">
<stop stop-color="#E6F2FF"/>
<stop offset="1" stop-color="#BBDCFF"/>
</linearGradient>
<linearGradient id="paint1_linear" x1="37.5215" y1="17.5156" x2="37.5215" y2="42.5156" gradientUnits="userSpaceOnUse">
<stop stop-color="#B0E7C6"/>
<stop offset="1" stop-color="#5DD1B3"/>
</linearGradient>
</defs>
</svg>
