<svg fill="none" height="51" viewBox="0 0 48 51" width="48" xmlns="http://www.w3.org/2000/svg" xmlns:xlink="http://www.w3.org/1999/xlink"><linearGradient id="a" gradientUnits="userSpaceOnUse" x1="19.043" x2="19.043" y1=".515625" y2="50.5156"><stop offset="0" stop-color="#e6f2ff"/><stop offset="1" stop-color="#bbdcff"/></linearGradient><linearGradient id="b" gradientUnits="userSpaceOnUse" x1="37.5215" x2="37.5215" y1="17.5156" y2="42.5156"><stop offset="0" stop-color="#b0e7c6"/><stop offset="1" stop-color="#5dd1b3"/></linearGradient><path d="m38.0859 13.6992-10.2539-2.9297-2.9297-10.253875h-20.50777c-2.42705 0-4.39453 1.967485-4.39453 4.394535v41.21094c0 2.427 1.96748 4.3945 4.39453 4.3945h29.29687c2.4271 0 4.3945-1.9675 4.3945-4.3945z" fill="url(#a)"/><g fill="#5183bb"><path d="m21.1133 21.4453h-14.64846c-.80966 0-1.46484-.6552-1.46484-1.4648 0-.8097.65518-1.4649 1.46484-1.4649h14.64846c.8096 0 1.4648.6552 1.4648 1.4649 0 .8096-.6552 1.4648-1.4648 1.4648z"/><path d="m21.1133 27.3047h-14.64846c-.80966 0-1.46484-.6552-1.46484-1.4649 0-.8096.65518-1.4648 1.46484-1.4648h14.64846c.8096 0 1.4648.6552 1.4648 1.4648 0 .8097-.6552 1.4649-1.4648 1.4649z"/><path d="m21.1133 33.1641h-14.64846c-.80966 0-1.46484-.6552-1.46484-1.4649 0-.8096.65518-1.4648 1.46484-1.4648h14.64846c.8096 0 1.4648.6552 1.4648 1.4648 0 .8097-.6552 1.4649-1.4648 1.4649z"/></g><path d="m38.0859 13.6992h-10.2539c-1.6113 0-2.9297-1.3183-2.9297-2.9297v-10.253875c.3809 0 .7618.146484 1.0253.439551l11.7188 11.718724c.2931.2636.4395.6445.4395 1.0253z" fill="#bedeff"/><path d="m46.3106 21.501c-4.0541 0-8.2555-3.7578-8.2971-3.7955-.2792-.2532-.7049-.2532-.9841 0-.0418.0379-4.2321 3.7955-8.297 3.7955-.4045 0-.7324.3279-.7324.7324v8.7714c0 7.1057 5.285 9.9451 9.2603 11.4627.0841.0321.1726.0481.2612.0481s.1771-.016.2612-.0481c5.5739-2.1279 9.2603-5.4472 9.2603-11.4627v-8.7714c0-.4045-.328-.7324-.7324-.7324z" fill="url(#b)"/><path d="m35.9286 33.5156c-.2328 0-.4656-.1172-.6402-.293l-3.0265-3.0476c-.3492-.3517-.3492-.9964 0-1.348.3492-.3517.9894-.3517 1.3386 0l2.3863 2.4029 5.4127-5.4505c.3492-.3517.9894-.3517 1.3386 0 .3492.3516.3492.9963 0 1.3479l-6.1111 6.0953c-.1746.1758-.4074.293-.6984.293z" fill="#fff"/></svg>