<svg width="265" height="220" viewBox="0 0 265 220" fill="none" xmlns="http://www.w3.org/2000/svg">
<path d="M261.193 212.947H26.6184C24.8036 212.947 23.4424 214.459 23.4424 216.123C23.4424 217.938 24.9548 219.299 26.6184 219.299H261.193C263.008 219.299 264.369 217.787 264.369 216.123C264.369 214.459 263.008 212.947 261.193 212.947Z" fill="#D7F1F9"/>
<path d="M70.4783 144.284V130.975H64.5799C63.8237 127.647 62.4625 124.471 60.6476 121.598L64.8823 117.363L55.5054 107.986L51.2707 112.221C48.3971 110.406 45.221 109.045 41.8937 108.289V102.39H28.5845V108.289C25.2572 109.045 22.0812 110.406 19.2076 112.221L14.9728 107.986L5.59591 117.363L9.83066 121.598C8.01577 124.471 6.6546 127.647 5.8984 130.975H0V144.284H5.8984C6.6546 147.611 8.01577 150.787 9.83066 153.661L5.59591 157.896L14.9728 167.272L19.2076 163.038C22.0812 164.853 25.2572 166.214 28.5845 166.97V172.868H41.8937V166.97C45.221 166.214 48.3971 164.853 51.2707 163.038L55.5054 167.272L64.8823 157.896L60.6476 153.661C62.4625 150.787 63.8237 147.611 64.5799 144.284H70.4783ZM35.2391 152.3C27.0721 152.3 20.5688 145.796 20.5688 137.629C20.5688 129.462 27.0721 122.959 35.2391 122.959C43.4061 122.959 49.9095 129.462 49.9095 137.629C49.9095 145.645 43.2549 152.3 35.2391 152.3Z" fill="#BADBFF"/>
<path d="M221.416 57.9248H59.135C49.4556 57.9248 41.5911 65.7893 41.5911 75.4688V175.136C41.5911 184.816 49.4556 192.68 59.135 192.68H221.416C231.096 192.68 238.96 184.816 238.96 175.136V75.4688C238.809 65.7893 231.096 57.9248 221.416 57.9248Z" fill="#5183BB"/>
<path d="M59.1354 183.304C54.5982 183.304 50.9684 179.674 50.9684 175.137V75.469C50.9684 70.9318 54.5982 67.302 59.1354 67.302H211.284C215.821 67.302 219.451 70.9318 219.451 75.469V175.137C219.451 179.674 215.821 183.304 211.284 183.304H59.1354Z" fill="url(#paint0_linear)"/>
<path d="M233.97 127.042C233.97 124.169 231.55 121.749 228.676 121.749C225.803 121.749 223.383 124.169 223.383 127.042C223.383 129.916 225.803 132.336 228.676 132.336C231.55 132.336 233.97 129.916 233.97 127.042Z" fill="white"/>
<path d="M100.575 140.502H68.9654C67.9067 140.502 66.9993 141.41 66.9993 142.469C66.9993 143.527 67.9067 144.435 68.9654 144.435H100.575C101.633 144.435 102.541 143.527 102.541 142.469C102.39 141.259 101.633 140.502 100.575 140.502Z" fill="#5183BB"/>
<path d="M100.575 148.972H68.9654C67.9067 148.972 66.9993 149.879 66.9993 150.938C66.9993 151.997 67.9067 152.904 68.9654 152.904H100.575C101.633 152.904 102.541 151.997 102.541 150.938C102.39 149.728 101.633 148.972 100.575 148.972Z" fill="#5183BB"/>
<path d="M100.575 157.257H68.9654C67.9067 157.257 66.9993 158.164 66.9993 159.223C66.9993 160.282 67.9067 161.189 68.9654 161.189H100.575C101.633 161.189 102.541 160.282 102.541 159.223C102.39 158.013 101.633 157.257 100.575 157.257Z" fill="#5183BB"/>
<path d="M147.762 170.448H71.2343C69.7219 170.448 68.512 171.658 68.512 173.171C68.512 174.683 69.7219 175.893 71.2343 175.893H147.913C149.426 175.893 150.636 174.683 150.636 173.171C150.636 171.658 149.275 170.448 147.762 170.448Z" fill="#BADBFF"/>
<path d="M116.299 147.006H109.342V160.316H116.299V147.006Z" fill="#5183BB"/>
<path d="M128.247 142.166H121.29V160.315H128.247V142.166Z" fill="#BADBFF"/>
<path d="M140.648 137.781H133.691V160.315H140.648V137.781Z" fill="#5183BB"/>
<g filter="url(#filter0_d)">
<path d="M227.034 87.3439C239.11 87.3439 248.899 77.5548 248.899 65.4794C248.899 53.404 239.11 43.615 227.034 43.615C214.959 43.615 205.17 53.404 205.17 65.4794C205.17 77.5548 214.959 87.3439 227.034 87.3439Z" fill="url(#paint1_linear)"/>
</g>
<g filter="url(#filter1_d)">
<path d="M168.139 51.8362C168.139 37.1659 155.888 25.2178 141.066 25.8228C127.606 26.2765 116.565 37.3171 116.112 50.7775C115.658 65.5991 127.455 77.8497 142.125 77.8497C143.486 77.8497 144.847 77.6984 146.209 77.5472C146.814 77.3959 147.419 77.5472 148.023 77.6984L154.073 79.967L155.132 75.7323C155.283 74.8248 155.888 73.9174 156.644 73.4637C163.601 68.624 168.139 60.7594 168.139 51.8362Z" fill="#BADBFF"/>
</g>
<path d="M151.804 46.5422H132.596C131.386 46.5422 130.479 47.4497 130.479 48.6596C130.479 49.8695 131.386 50.777 132.596 50.777H151.804C153.014 50.777 153.921 49.8695 153.921 48.6596C153.921 47.4497 153.014 46.5422 151.804 46.5422Z" fill="white"/>
<path d="M144.393 55.0122H132.445C131.235 55.0122 130.328 55.9196 130.328 57.1296C130.328 58.3395 131.235 59.247 132.445 59.247H144.393C145.603 59.247 146.511 58.3395 146.511 57.1296C146.511 56.0709 145.603 55.0122 144.393 55.0122Z" fill="white"/>
<path d="M143.451 104.961C143.451 104.961 143.299 94.6764 141.484 94.2226C139.67 93.9202 140.728 100.424 140.728 100.424C140.728 100.424 138.308 100.272 137.552 101.331C136.796 102.541 136.493 107.532 138.611 108.137C140.577 108.893 143.451 104.961 143.451 104.961Z" fill="#FFE27C"/>
<path d="M190.334 144.283C191.242 144.888 189.124 167.726 188.217 174.985C187.31 182.094 192.905 210.073 192.905 210.073L187.31 209.771C187.31 209.771 177.328 180.128 177.176 176.347C177.025 172.565 172.79 147.611 172.79 147.611L190.334 144.283Z" fill="#004E82"/>
<path d="M192.149 144.284C192.149 144.284 188.519 155.324 183.075 160.315C177.63 165.457 170.824 176.649 170.824 176.649L172.79 210.073H166.589C166.589 210.073 159.935 176.498 159.935 173.624C159.935 170.751 169.009 140.654 169.009 140.654L192.149 144.284Z" fill="#5183BB"/>
<path d="M169.615 92.5594C169.615 92.5594 167.649 102.541 175.211 103.449C182.622 104.356 182.924 89.3833 182.924 89.3833C182.924 89.3833 174.001 86.8122 173.396 87.5684C172.791 88.3246 172.791 88.3246 172.791 88.3246L169.615 92.5594Z" fill="#FFE27C"/>
<path d="M174.001 102.087H173.396C170.069 102.39 167.347 105.415 165.38 108.137L154.642 119.934L143.451 104.961L138.611 108.137C138.611 108.137 151.013 131.579 156.004 130.521C160.843 129.462 166.742 122.656 166.742 122.656C166.742 122.656 165.532 143.376 164.776 146.098C164.776 146.098 184.437 154.87 192.453 146.552L190.184 112.826C189.579 108.742 186.705 105.415 182.622 104.356L174.001 102.087Z" fill="url(#paint2_linear)"/>
<path d="M172.792 210.074V215.367H160.087C159.18 215.367 158.726 214.006 159.634 213.552C161.902 212.342 164.776 210.679 166.591 209.922C169.918 208.712 172.792 210.074 172.792 210.074Z" fill="#5183BB"/>
<path d="M192.906 210.074V215.367H180.655C179.597 215.367 179.143 213.855 180.05 213.25C182.168 212.04 184.89 210.679 186.554 209.922C190.032 208.712 192.906 210.074 192.906 210.074Z" fill="#5183BB"/>
<path d="M174.303 112.977C174.303 112.977 168.556 108.137 171.429 103.297C174.303 98.4578 176.42 95.8867 175.966 93.0131C175.966 93.0131 175.815 89.3833 173.244 91.6519C173.244 91.6519 172.185 93.4668 169.766 92.7106C169.766 92.7106 167.648 82.275 178.991 80.1576C190.788 77.7378 193.964 86.5098 193.057 92.1057C192.149 97.7016 188.066 97.8528 193.057 104.81C198.048 111.616 187.915 123.715 174.303 112.977Z" fill="#004E82"/>
<path d="M236.508 62.5554L231.06 62.0402C230.716 62.009 230.419 61.7905 230.279 61.4627L228.328 56.7326C228.016 55.9521 226.907 55.9521 226.595 56.7326L224.659 61.4627C224.534 61.7905 224.222 62.009 223.879 62.0402L218.43 62.5554C217.619 62.6335 217.291 63.6481 217.9 64.1945L222.005 67.8006C222.271 68.0347 222.38 68.3782 222.302 68.7216L221.069 73.7793C220.881 74.5756 221.74 75.2311 222.458 74.8098L227.001 72.1402C227.297 71.9685 227.656 71.9685 227.953 72.1402L232.496 74.8098C233.214 75.2311 234.073 74.5912 233.885 73.7793L232.667 68.7216C232.589 68.3782 232.699 68.0347 232.964 67.8006L237.07 64.1945C237.663 63.6481 237.319 62.6335 236.508 62.5554Z" fill="white"/>
<path fill-rule="evenodd" clip-rule="evenodd" d="M102.013 93.6745C102.013 99.6091 97.2018 104.42 91.2672 104.42C85.3326 104.42 80.5217 99.6091 80.5217 93.6745C80.5217 87.7399 85.3326 82.929 91.2672 82.929C97.2018 82.929 102.013 87.7399 102.013 93.6745ZM68.7993 128.963C68.7993 116.574 78.8786 106.495 91.2673 106.495C103.656 106.495 113.735 116.574 113.735 128.963C113.735 129.502 113.298 129.939 112.758 129.939H69.7762C69.237 129.939 68.7993 129.502 68.7993 128.963Z" fill="url(#paint3_linear)"/>
<circle cx="119.477" cy="93.6789" r="10.7499" fill="#FFE27C"/>
<path d="M123.898 92.1291L121.299 91.8833C121.135 91.8684 120.994 91.7642 120.927 91.6078L119.996 89.3511C119.847 88.9787 119.318 88.9787 119.169 89.3511L118.245 91.6078C118.186 91.7642 118.037 91.8684 117.873 91.8833L115.274 92.1291C114.886 92.1663 114.73 92.6505 115.02 92.9111L116.979 94.6316C117.106 94.7433 117.158 94.9071 117.121 95.071L116.532 97.484C116.443 97.8639 116.853 98.1767 117.195 97.9757L119.363 96.702C119.504 96.6201 119.675 96.6201 119.817 96.702L121.984 97.9757C122.327 98.1767 122.736 97.8714 122.647 97.484L122.066 95.071C122.029 94.9071 122.081 94.7433 122.208 94.6316L124.166 92.9111C124.449 92.6505 124.286 92.1663 123.898 92.1291Z" fill="white"/>
<defs>
<filter id="filter0_d" x="203.17" y="41.615" width="51.7289" height="51.7289" filterUnits="userSpaceOnUse" color-interpolation-filters="sRGB">
<feFlood flood-opacity="0" result="BackgroundImageFix"/>
<feColorMatrix in="SourceAlpha" type="matrix" values="0 0 0 0 0 0 0 0 0 0 0 0 0 0 0 0 0 0 127 0" result="hardAlpha"/>
<feOffset dx="2" dy="2"/>
<feGaussianBlur stdDeviation="2"/>
<feColorMatrix type="matrix" values="0 0 0 0 0.0846528 0 0 0 0 0.150363 0 0 0 0 0.383333 0 0 0 0.25 0"/>
<feBlend mode="normal" in2="BackgroundImageFix" result="effect1_dropShadow"/>
<feBlend mode="normal" in="SourceGraphic" in2="effect1_dropShadow" result="shape"/>
</filter>
<filter id="filter1_d" x="114.099" y="23.8008" width="60.0395" height="62.1662" filterUnits="userSpaceOnUse" color-interpolation-filters="sRGB">
<feFlood flood-opacity="0" result="BackgroundImageFix"/>
<feColorMatrix in="SourceAlpha" type="matrix" values="0 0 0 0 0 0 0 0 0 0 0 0 0 0 0 0 0 0 127 0" result="hardAlpha"/>
<feOffset dx="2" dy="2"/>
<feGaussianBlur stdDeviation="2"/>
<feColorMatrix type="matrix" values="0 0 0 0 0.0846528 0 0 0 0 0.150363 0 0 0 0 0.383333 0 0 0 0.25 0"/>
<feBlend mode="normal" in2="BackgroundImageFix" result="effect1_dropShadow"/>
<feBlend mode="normal" in="SourceGraphic" in2="effect1_dropShadow" result="shape"/>
</filter>
<linearGradient id="paint0_linear" x1="135.21" y1="67.302" x2="135.21" y2="183.304" gradientUnits="userSpaceOnUse">
<stop stop-color="white"/>
<stop offset="1" stop-color="#D7F1F9"/>
</linearGradient>
<linearGradient id="paint1_linear" x1="227.034" y1="43.615" x2="227.034" y2="87.3439" gradientUnits="userSpaceOnUse">
<stop stop-color="#B0E7C6"/>
<stop offset="1" stop-color="#5DD1B3"/>
</linearGradient>
<linearGradient id="paint2_linear" x1="165.532" y1="102.087" x2="165.532" y2="150.135" gradientUnits="userSpaceOnUse">
<stop stop-color="#B0E7C6"/>
<stop offset="1" stop-color="#5DD1B3"/>
</linearGradient>
<linearGradient id="paint3_linear" x1="91.2673" y1="82.929" x2="91.2673" y2="129.939" gradientUnits="userSpaceOnUse">
<stop stop-color="#B0E7C6"/>
<stop offset="1" stop-color="#5DD1B3"/>
</linearGradient>
</defs>
</svg>
