<svg fill="none" height="80" viewBox="0 0 80 80" width="80" xmlns="http://www.w3.org/2000/svg"><rect fill="#00769d" height="80" rx="25" width="80"/><path clip-rule="evenodd" d="m44.2424 33.1029c.5624-2.8615 3.0385-4.9226 5.9159-4.9245 2.9326.0547 5.4019 2.2388 5.8535 5.1774s-1.2453 5.7811-4.0224 6.7379c-.7966 3.7605-4.0743 6.4466-7.8675 6.4474h-8.0485c-1.6197.0047-3.0788.9937-3.7023 2.5095 2.6874 1.125 4.2021 4.0327 3.6037 6.9177-.5985 2.885-3.1402 4.9275-6.0469 4.8593-2.9066-.0682-5.3524-2.2278-5.8186-5.1378s1.1796-5.7435 3.9155-6.7412v-17.0569c-2.7718-.9937-4.4345-3.8677-3.9373-6.8059.4972-2.9381 3.0095-5.0858 5.9495-5.0858 2.9399 0 5.4523 2.1477 5.9495 5.0858.4971 2.9382-1.1656 5.8122-3.9374 6.8059v11.7113c1.2153-.7417 2.6058-1.1365 4.0243-1.1425h8.0485c1.6271.0034 3.0961-.987 3.7225-2.5096-2.6569-1.1204-4.1644-3.9866-3.602-6.848zm-12.1925-6.964c0-1.1268-.9009-2.0403-2.0121-2.0403-1.1113 0-2.0122.9135-2.0122 2.0403 0 1.1269.9009 2.0403 2.0122 2.0403 1.1112 0 2.0121-.9134 2.0121-2.0403zm-2.0121 30.6053c-1.1113 0-2.0122-.9135-2.0122-2.0403 0-1.1269.9009-2.0403 2.0122-2.0403 1.1112 0 2.0121.9134 2.0121 2.0403 0 1.1268-.9009 2.0403-2.0121 2.0403zm18.1088-22.4432c0 1.1269.9009 2.0403 2.0122 2.0403 1.1112 0 2.0121-.9134 2.0121-2.0403 0-1.1268-.9009-2.0403-2.0121-2.0403-1.1113 0-2.0122.9135-2.0122 2.0403z" fill="#fff" fill-rule="evenodd"/></svg>