<?xml version="1.0" encoding="UTF-8"?>
<svg width="100px" height="46px" viewBox="0 0 100 46" version="1.1" xmlns="http://www.w3.org/2000/svg" xmlns:xlink="http://www.w3.org/1999/xlink">
    <!-- Generator: Sketch 52.6 (67491) - http://www.bohemiancoding.com/sketch -->
    <title>Group 9</title>
    <desc>Created with Sketch.</desc>
    <g id="Landing-3" stroke="none" stroke-width="1" fill="none" fill-rule="evenodd">
        <g id="1.0--Homepage" transform="translate(-273.000000, -7985.000000)">
            <g id="Footer" transform="translate(-2.000000, 7902.000000)">
                <g id="Group-9" transform="translate(275.000000, 83.000000)">
                    <text id="Created-by-Startupz" font-family="Roboto-Regular, Roboto" font-size="14" font-weight="normal" letter-spacing="0.113749996" fill="#474F58">
                        <tspan x="32" y="17">Created by </tspan>
                        <tspan x="32" y="33">Startupz</tspan>
                    </text>
                    <g id="Startupz_spaceship">
                        <polygon id="Fill-1" fill="#FFFFFE" points="0 46 19 46 19 0 0 0"></polygon>
                        <path d="M5.0207499,20.0288925 C4.84892487,20.0938059 4.71968291,20.1316653 4.59979037,20.1895351 C3.12651056,20.9010205 2.35820834,22.0900313 2.34170937,23.7496038 C2.32277483,25.6605054 2.33683824,27.5718072 2.33825244,29.4828688 C2.33833101,29.5509838 2.35608704,29.6191789 2.37164322,29.7301159 C2.44015325,29.6556776 2.47731522,29.6238212 2.50434211,29.5846811 C3.30147825,28.4320891 4.10246415,27.2822184 4.88718678,26.1209019 C4.97816684,25.9862727 5.01391461,25.788251 5.01509311,25.6190441 C5.0249925,24.2082394 5.0207499,22.7972746 5.0207499,21.3863899 L5.0207499,20.0288925 Z M14.0062482,20.0747561 C13.9966631,20.1223806 13.97875,20.170005 13.9786714,20.2177095 C13.9771001,22.0646583 13.9737217,23.911527 13.9838568,25.7583957 C13.9845639,25.8981475 14.059045,26.0545478 14.1404399,26.1740492 C14.9006498,27.2901425 15.6695805,28.4001527 16.4377256,29.5105631 C16.488401,29.5839608 16.5542398,29.6464729 16.6357133,29.740121 C16.6357133,27.5725275 16.6372061,25.4574411 16.6326492,23.3422746 C16.6323349,23.1904366 16.5932874,23.0376381 16.5647677,22.8868406 C16.3115477,21.5473525 15.198417,20.3192817 14.0062482,20.0747561 Z M9.51012071,2.91394097 C9.39211377,3.10627977 9.30003378,3.22938301 9.23553065,3.36593315 C8.65201694,4.60040727 8.01460658,5.81287009 7.50690958,7.07920057 C6.7345219,9.00530997 6.33398966,11.0149823 6.3508029,13.1170221 C6.38301519,17.1605391 6.36015232,21.2044564 6.36015232,25.2482136 C6.36015232,25.3976504 6.36015232,25.5470871 6.36015232,25.7077296 L8.92739267,25.7077296 L8.92739267,25.2755877 C8.92739267,23.3242653 8.92715697,21.373023 8.92794263,19.4217807 C8.9280212,19.2935548 8.91403636,19.1599662 8.94373451,19.0382237 C9.02465805,18.7058929 9.23388075,18.499627 9.5798878,18.4825782 C9.89187554,18.4672103 10.1784077,18.7319063 10.2238192,19.067999 C10.2425966,19.2069503 10.2394539,19.3496636 10.2394539,19.490616 C10.2403967,21.4162452 10.2400825,23.3417943 10.2400825,25.2674235 L10.2400825,25.7047681 L12.636912,25.7047681 L12.636912,25.2706251 C12.636912,21.1498684 12.6308624,17.0290316 12.638719,12.9083549 C12.64579,9.26160163 11.2638831,6.07332388 9.51012071,2.91394097 Z M10.2400825,27.0882788 L10.2400825,27.5521171 L10.2400825,31.903072 C10.2400825,31.9928782 10.2411038,32.0827644 10.2397682,32.1725705 C10.2324615,32.6794709 9.98301273,32.9969139 9.59002289,32.9999555 C9.19742587,33.0030771 8.92998536,32.6798711 8.92864973,32.183216 C8.92534994,30.9895628 8.92747123,29.7959897 8.92739267,28.6023365 L8.92739267,27.1230967 C8.80278613,27.1090094 8.70701352,27.0889992 8.6112409,27.088679 C7.77969261,27.0861977 6.94798719,27.0766728 6.11698887,27.0974035 C5.97124794,27.1010854 5.77585294,27.1980952 5.69257241,27.3167962 C4.56600675,28.9237817 3.45531154,30.542213 2.34053087,32.1578429 C2.28985545,32.2313207 2.24357976,32.3085603 2.18693328,32.3769155 C1.85357544,32.7795223 1.23454965,32.6709865 1.06107472,32.1728906 C1.01613466,32.0440245 1.00654954,31.8968288 1.00639241,31.7580375 C1.00340688,29.1398126 0.992721831,26.5214276 1.00812087,23.9032827 C1.01974872,21.9305094 1.7702949,20.3403325 3.4603398,19.2928344 C3.84374453,19.0551924 4.26745389,18.8705375 4.69336312,18.7239822 C4.9622964,18.6314547 5.02837086,18.5050698 5.02632813,18.2362117 C5.01477885,16.6961406 5.05256935,15.155109 5.01399318,13.6159183 C4.93801933,10.5867623 5.64126846,7.73801899 6.91318222,5.03046819 C7.47658289,3.83105207 8.14282717,2.67926042 8.80561453,1.53187103 C9.22021017,0.814142352 9.7534413,0.829670328 10.2000135,1.53691362 C11.9527545,4.31249938 13.2835146,7.26801757 13.7852406,10.5567469 C13.9066259,11.3521155 13.9559657,12.1646128 13.9680649,12.9703867 C13.994699,14.7411363 13.9803999,16.5126063 13.9716004,18.2837561 C13.9705005,18.5246799 14.0329609,18.6348164 14.2736102,18.7154178 C16.6264424,19.5039829 17.9602666,21.3221168 17.9858793,23.8380492 C18.0129848,26.4946138 17.9927146,29.1515787 17.9927932,31.8083034 C17.9927932,32.1688886 17.8956849,32.4746457 17.5158157,32.5891044 C17.1442745,32.701162 16.9038609,32.5260321 16.693774,32.218434 C15.5724723,30.5763105 14.4413498,28.9412306 13.3053561,27.3095925 C13.2358247,27.2097812 13.0969977,27.0998848 12.9886544,27.0978837 C12.0955099,27.080835 11.2019726,27.0882788 10.2400825,27.0882788 Z" id="Fill-3" fill="#0F0E0D"></path>
                        <path d="M6.00003832,37.9867127 C6.00003832,36.3037702 5.99979882,34.6207493 6.00051732,32.9378067 C6.00063707,32.79984 5.99674518,32.6594447 6.01404914,32.5244551 C6.05410571,32.2110726 6.25887921,31.9983642 6.50179328,32.0000095 C6.74536597,32.0016547 6.94756483,32.217732 6.98648377,32.5308795 C7.00019521,32.6413468 6.99498606,32.7563582 6.99504594,32.8693326 C6.99690207,36.2980509 6.99839896,39.7267692 6.99995571,43.1555659 C6.99995571,43.1931718 7.00025509,43.2309344 6.99929709,43.2685403 C6.98768128,43.7356369 6.79356558,44.0110218 6.48424981,43.9996617 C6.18637023,43.9886933 6.00848074,43.7201245 6.00794186,43.2615675 C6.00608572,41.5033348 6.00722336,39.7450238 6.00722336,37.9867127 L6.00003832,37.9867127 Z" id="Fill-5" fill="#0F0E0D"></path>
                        <path d="M13.0004642,38.4770091 C13.0004052,36.9507843 12.9992841,35.4245595 13.0020572,33.8983347 C13.0023522,33.74692 13.0071903,33.5866268 13.0430632,33.4461702 C13.1187029,33.1497398 13.2844378,32.9900065 13.5194403,33.0004848 C13.7564489,33.010963 13.9093804,33.1907729 13.9666118,33.495442 C13.9964075,33.6540555 13.9984135,33.8252269 13.9984725,33.9906392 C14.0001836,37.0046953 13.9997705,40.0186714 13.9997705,43.0327275 C13.9997705,43.0840789 14.0004196,43.1353503 13.9995345,43.1866217 C13.9903303,43.6850984 13.7915547,44.0056048 13.4954267,43.9999257 C13.2033699,43.9943267 13.0022932,43.6662215 13.0014672,43.1712643 C12.9988711,41.6064859 13.0005232,40.0417075 13.0004642,38.4770091" id="Fill-7" fill="#0F0E0D"></path>
                        <path d="M9.00071714,40.4808516 C9.00071714,39.6052865 8.99877516,38.7297214 9.00142331,37.8541563 C9.00307106,37.3141987 9.20109446,36.9874015 9.50998743,37.0003723 C9.7955766,37.0123641 9.99760166,37.3553134 9.99824899,37.8512196 C10.0005441,39.6154021 10.0006029,41.3795846 9.99830784,43.1437671 C9.99760166,43.6619437 9.78274774,44.0106035 9.48391778,43.9997538 C9.18785367,43.988904 9.00307106,43.6687962 9.00148216,43.1467039 C8.99871631,42.2580865 9.00065829,41.3694691 9.00071714,40.4808516" id="Fill-9" fill="#0F0E0D"></path>
                        <path d="M9.51544917,13.5942553 C10.1198143,13.5831388 10.5928754,13.0797241 10.5758792,12.4658975 C10.5592995,11.8729665 10.0766572,11.3982204 9.49253762,11.4003099 C8.89508763,11.4025667 8.39978152,11.9084052 8.40619675,12.5098617 C8.41261199,13.1158316 8.91325025,13.6053717 9.51544917,13.5942553 M9.51095018,10.0000598 C10.8667309,10.0067464 12.0126418,11.1682026 11.9998947,12.5228169 C11.9873141,13.8765954 10.8271564,15.0096338 9.46329415,14.9999382 C8.1277589,14.990577 6.9971779,13.8412402 7.0000106,12.4958199 C7.0028433,11.1320951 8.1486709,9.99328965 9.51095018,10.0000598" id="Fill-11" fill="#0F0E0D"></path>
                    </g>
                </g>
            </g>
        </g>
    </g>
</svg>