<svg width="515" height="349" viewBox="0 0 515 349" fill="none" xmlns="http://www.w3.org/2000/svg">
<g filter="url(#filter0_d)">
<rect x="15" y="13" width="480" height="314.667" rx="8.53333" fill="#00000B"/>
</g>
<mask id="mask0" mask-type="alpha" maskUnits="userSpaceOnUse" x="15" y="13" width="480" height="315">
<rect x="15" y="13" width="480" height="314.667" rx="8.53333" fill="white"/>
</mask>
<g mask="url(#mask0)">
<rect x="15" y="13" width="480" height="315.733" fill="white"/>
<rect x="151.533" y="75.9333" width="208" height="33.0667" fill="#3070CC" fill-opacity="0.23"/>
<g clip-path="url(#clip0)">
<rect width="481.067" height="25.7061" transform="matrix(1 0 0 -1 13.9336 327.783)" fill="#3070CC"/>
<path d="M52.0466 318.547C51.051 318.547 50.2972 318.291 49.7852 317.779C49.2804 317.259 49.0279 316.495 49.0279 315.485V310.867H49.8919V315.56C49.8919 316.299 50.0732 316.858 50.4359 317.235C50.7986 317.611 51.3355 317.8 52.0466 317.8C52.7506 317.8 53.2804 317.611 53.6359 317.235C53.9986 316.858 54.1799 316.299 54.1799 315.56V310.867H55.0546V315.485C55.0546 316.488 54.7986 317.249 54.2866 317.768C53.7746 318.287 53.0279 318.547 52.0466 318.547ZM59.454 312.968C60.7411 312.968 61.3847 313.675 61.3847 315.091V318.461H60.5207V315.133C60.5207 314.635 60.4211 314.273 60.222 314.045C60.0229 313.811 59.71 313.693 59.2833 313.693C58.7856 313.693 58.3873 313.846 58.0887 314.152C57.79 314.458 57.6407 314.87 57.6407 315.389V318.461H56.7767V314.6C56.7767 314.045 56.7482 313.544 56.6913 313.096H57.5127L57.598 314.056C57.7616 313.707 58.0069 313.441 58.334 313.256C58.6611 313.064 59.0344 312.968 59.454 312.968ZM64.8296 318.536C63.9265 318.536 63.2118 318.305 62.6856 317.843L62.9736 317.203C63.2651 317.43 63.5602 317.594 63.8589 317.693C64.1576 317.793 64.4918 317.843 64.8616 317.843C65.2669 317.843 65.5727 317.775 65.7789 317.64C65.9922 317.498 66.0989 317.295 66.0989 317.032C66.0989 316.819 66.0278 316.648 65.8856 316.52C65.7434 316.392 65.5087 316.292 65.1816 316.221L64.2749 316.008C63.8269 315.908 63.4785 315.731 63.2296 315.475C62.9878 315.219 62.8669 314.913 62.8669 314.557C62.8669 314.088 63.0554 313.707 63.4322 313.416C63.8091 313.117 64.3069 312.968 64.9256 312.968C65.3025 312.968 65.658 313.028 65.9922 313.149C66.3265 313.27 66.6074 313.444 66.8349 313.672L66.5469 314.301C66.042 313.882 65.5016 313.672 64.9256 313.672C64.5416 313.672 64.2429 313.747 64.0296 313.896C63.8234 314.038 63.7202 314.241 63.7202 314.504C63.7202 314.724 63.7842 314.899 63.9122 315.027C64.0474 315.155 64.2607 315.254 64.5522 315.325L65.4589 315.549C65.9567 315.663 66.3265 315.841 66.5682 316.083C66.81 316.317 66.9309 316.627 66.9309 317.011C66.9309 317.473 66.7425 317.843 66.3656 318.12C65.9887 318.397 65.4767 318.536 64.8296 318.536ZM72.7986 313.096V318.461H71.9559V317.533C71.7852 317.86 71.547 318.109 71.2412 318.28C70.9355 318.451 70.5906 318.536 70.2066 318.536C69.5737 318.536 69.0937 318.358 68.7666 318.003C68.4395 317.647 68.2759 317.121 68.2759 316.424V313.096H69.1399V316.403C69.1399 316.886 69.2395 317.242 69.4386 317.469C69.6377 317.697 69.9399 317.811 70.3452 317.811C70.8217 317.811 71.2057 317.658 71.4972 317.352C71.7888 317.039 71.9346 316.63 71.9346 316.125V313.096H72.7986ZM77.1415 312.968C77.6108 312.968 78.0268 313.082 78.3895 313.309C78.7522 313.537 79.0331 313.86 79.2322 314.28C79.4313 314.692 79.5308 315.176 79.5308 315.731C79.5308 316.285 79.4313 316.776 79.2322 317.203C79.0331 317.622 78.7522 317.949 78.3895 318.184C78.0268 318.419 77.6108 318.536 77.1415 318.536C76.7219 318.536 76.3557 318.443 76.0428 318.259C75.7299 318.074 75.4917 317.811 75.3282 317.469V318.461H74.4642V310.611H75.3282V314.045C75.4846 313.697 75.7193 313.43 76.0322 313.245C76.3522 313.06 76.7219 312.968 77.1415 312.968ZM76.9815 317.821C77.5006 317.821 77.9059 317.64 78.1975 317.277C78.4891 316.907 78.6348 316.392 78.6348 315.731C78.6348 315.083 78.4891 314.582 78.1975 314.227C77.9131 313.871 77.5077 313.693 76.9815 313.693C76.4482 313.693 76.0393 313.871 75.7548 314.227C75.4704 314.582 75.3282 315.091 75.3282 315.752C75.3282 316.413 75.4704 316.925 75.7548 317.288C76.0393 317.643 76.4482 317.821 76.9815 317.821ZM82.6733 318.536C81.7702 318.536 81.0556 318.305 80.5293 317.843L80.8173 317.203C81.1089 317.43 81.404 317.594 81.7027 317.693C82.0013 317.793 82.3356 317.843 82.7053 317.843C83.1107 317.843 83.4164 317.775 83.6227 317.64C83.836 317.498 83.9427 317.295 83.9427 317.032C83.9427 316.819 83.8716 316.648 83.7293 316.52C83.5871 316.392 83.3524 316.292 83.0253 316.221L82.1187 316.008C81.6707 315.908 81.3222 315.731 81.0733 315.475C80.8316 315.219 80.7107 314.913 80.7107 314.557C80.7107 314.088 80.8991 313.707 81.276 313.416C81.6529 313.117 82.1507 312.968 82.7693 312.968C83.1462 312.968 83.5018 313.028 83.836 313.149C84.1702 313.27 84.4511 313.444 84.6787 313.672L84.3907 314.301C83.8858 313.882 83.3453 313.672 82.7693 313.672C82.3853 313.672 82.0867 313.747 81.8733 313.896C81.6671 314.038 81.564 314.241 81.564 314.504C81.564 314.724 81.628 314.899 81.756 315.027C81.8911 315.155 82.1044 315.254 82.396 315.325L83.3027 315.549C83.8004 315.663 84.1702 315.841 84.412 316.083C84.6538 316.317 84.7747 316.627 84.7747 317.011C84.7747 317.473 84.5862 317.843 84.2093 318.12C83.8324 318.397 83.3204 318.536 82.6733 318.536ZM88.4023 318.536C87.8832 318.536 87.4281 318.422 87.037 318.195C86.653 317.967 86.3543 317.647 86.141 317.235C85.9348 316.815 85.8317 316.328 85.8317 315.773C85.8317 315.219 85.9383 314.731 86.1517 314.312C86.365 313.885 86.6672 313.555 87.0583 313.32C87.4566 313.085 87.9188 312.968 88.445 312.968C88.8077 312.968 89.1561 313.032 89.4903 313.16C89.8317 313.281 90.1126 313.451 90.333 313.672L90.045 314.312C89.7748 314.099 89.5117 313.942 89.2557 313.843C89.0068 313.743 88.7508 313.693 88.4877 313.693C87.9401 313.693 87.5099 313.878 87.197 314.248C86.8841 314.611 86.7277 315.119 86.7277 315.773C86.7277 316.42 86.8806 316.925 87.1863 317.288C87.4992 317.643 87.933 317.821 88.4877 317.821C88.7508 317.821 89.0068 317.771 89.2557 317.672C89.5117 317.572 89.7748 317.416 90.045 317.203L90.333 317.843C90.1054 318.056 89.8174 318.227 89.469 318.355C89.1277 318.475 88.7721 318.536 88.4023 318.536ZM93.9289 312.968C94.1067 312.968 94.2702 312.989 94.4196 313.032L94.3982 313.821C94.2347 313.764 94.0462 313.736 93.8329 313.736C93.3138 313.736 92.9262 313.899 92.6702 314.227C92.4214 314.547 92.2969 314.938 92.2969 315.4V318.461H91.4329V314.6C91.4329 314.045 91.4045 313.544 91.3476 313.096H92.1689L92.2542 314.088C92.3894 313.725 92.6062 313.448 92.9049 313.256C93.2036 313.064 93.5449 312.968 93.9289 312.968ZM95.2975 313.096H96.1615V318.461H95.2975V313.096ZM96.2682 310.824V311.805H95.2122V310.824H96.2682ZM100.516 312.968C100.986 312.968 101.402 313.082 101.764 313.309C102.127 313.537 102.408 313.86 102.607 314.28C102.806 314.692 102.906 315.176 102.906 315.731C102.906 316.285 102.806 316.776 102.607 317.203C102.408 317.622 102.127 317.949 101.764 318.184C101.402 318.419 100.986 318.536 100.516 318.536C100.097 318.536 99.7307 318.443 99.4178 318.259C99.1049 318.074 98.8667 317.811 98.7032 317.469V318.461H97.8392V310.611H98.7032V314.045C98.8596 313.697 99.0943 313.43 99.4072 313.245C99.7272 313.06 100.097 312.968 100.516 312.968ZM100.356 317.821C100.876 317.821 101.281 317.64 101.572 317.277C101.864 316.907 102.01 316.392 102.01 315.731C102.01 315.083 101.864 314.582 101.572 314.227C101.288 313.871 100.883 313.693 100.356 313.693C99.8232 313.693 99.4143 313.871 99.1298 314.227C98.8454 314.582 98.7032 315.091 98.7032 315.752C98.7032 316.413 98.8454 316.925 99.1298 317.288C99.4143 317.643 99.8232 317.821 100.356 317.821ZM108.726 315.752H104.79C104.797 316.435 104.953 316.95 105.259 317.299C105.572 317.647 106.023 317.821 106.614 317.821C107.239 317.821 107.815 317.611 108.342 317.192L108.63 317.821C108.395 318.042 108.093 318.216 107.723 318.344C107.36 318.472 106.987 318.536 106.603 318.536C105.764 318.536 105.106 318.291 104.63 317.8C104.153 317.302 103.915 316.623 103.915 315.763C103.915 315.215 104.022 314.731 104.235 314.312C104.448 313.885 104.747 313.555 105.131 313.32C105.515 313.085 105.952 312.968 106.443 312.968C107.154 312.968 107.712 313.203 108.118 313.672C108.523 314.134 108.726 314.774 108.726 315.592V315.752ZM106.454 313.64C106.006 313.64 105.639 313.775 105.355 314.045C105.078 314.315 104.9 314.696 104.822 315.187H107.947C107.904 314.682 107.755 314.298 107.499 314.035C107.25 313.771 106.902 313.64 106.454 313.64Z" fill="#F2F2F2"/>
<path d="M48.1426 319.528H109.206V320.061H48.1426V319.528Z" fill="#F2F2F2"/>
</g>
<path d="M112.672 149.155V161.306H111.272V155.726H103.985V161.306H102.602V149.155H103.985V154.548H111.272V149.155H112.672ZM119.048 161.426C118.241 161.426 117.529 161.244 116.915 160.88C116.301 160.516 115.823 159.998 115.481 159.327C115.151 158.655 114.986 157.87 114.986 156.971C114.986 156.073 115.151 155.288 115.481 154.616C115.823 153.945 116.301 153.427 116.915 153.063C117.529 152.699 118.241 152.517 119.048 152.517C119.856 152.517 120.567 152.699 121.182 153.063C121.796 153.427 122.268 153.945 122.598 154.616C122.94 155.288 123.11 156.073 123.11 156.971C123.11 157.87 122.94 158.655 122.598 159.327C122.268 159.998 121.796 160.516 121.182 160.88C120.567 161.244 119.856 161.426 119.048 161.426ZM119.048 160.282C119.902 160.282 120.556 160.004 121.011 159.446C121.466 158.877 121.694 158.052 121.694 156.971C121.694 155.925 121.46 155.117 120.994 154.548C120.527 153.968 119.879 153.678 119.048 153.678C118.206 153.678 117.552 153.968 117.086 154.548C116.619 155.117 116.386 155.925 116.386 156.971C116.386 158.052 116.613 158.877 117.069 159.446C117.535 160.004 118.195 160.282 119.048 160.282ZM138.204 152.722L135.03 161.306H133.698L131.241 154.599L128.8 161.306H127.469L124.295 152.722H125.745L128.169 159.651L130.678 152.722H131.889L134.364 159.668L136.839 152.722H138.204ZM157.487 152.722L154.313 161.306H152.982L150.524 154.599L148.084 161.306H146.752L143.578 152.722H145.029L147.452 159.651L149.961 152.722H151.173L153.647 159.668L156.122 152.722H157.487ZM162.732 161.426C161.924 161.426 161.213 161.244 160.598 160.88C159.984 160.516 159.506 159.998 159.165 159.327C158.835 158.655 158.67 157.87 158.67 156.971C158.67 156.073 158.835 155.288 159.165 154.616C159.506 153.945 159.984 153.427 160.598 153.063C161.213 152.699 161.924 152.517 162.732 152.517C163.539 152.517 164.251 152.699 164.865 153.063C165.479 153.427 165.952 153.945 166.282 154.616C166.623 155.288 166.794 156.073 166.794 156.971C166.794 157.87 166.623 158.655 166.282 159.327C165.952 159.998 165.479 160.516 164.865 160.88C164.251 161.244 163.539 161.426 162.732 161.426ZM162.732 160.282C163.585 160.282 164.239 160.004 164.694 159.446C165.149 158.877 165.377 158.052 165.377 156.971C165.377 155.925 165.144 155.117 164.677 154.548C164.211 153.968 163.562 153.678 162.732 153.678C161.89 153.678 161.235 153.968 160.769 154.548C160.303 155.117 160.069 155.925 160.069 156.971C160.069 158.052 160.297 158.877 160.752 159.446C161.218 160.004 161.878 160.282 162.732 160.282ZM176.134 152.722V161.306H174.785V159.822C174.512 160.345 174.131 160.743 173.642 161.016C173.153 161.289 172.601 161.426 171.986 161.426C170.974 161.426 170.206 161.141 169.682 160.573C169.159 160.004 168.897 159.162 168.897 158.047V152.722H170.28V158.013C170.28 158.786 170.439 159.355 170.758 159.719C171.076 160.083 171.56 160.265 172.208 160.265C172.971 160.265 173.585 160.021 174.051 159.531C174.518 159.031 174.751 158.377 174.751 157.569V152.722H176.134ZM178.798 148.745H180.181V161.306H178.798V148.745ZM190.426 148.745V161.306H189.06V159.753C188.81 160.288 188.429 160.703 187.917 160.999C187.416 161.284 186.83 161.426 186.159 161.426C185.408 161.426 184.742 161.238 184.162 160.863C183.593 160.487 183.15 159.964 182.831 159.293C182.512 158.61 182.353 157.825 182.353 156.937C182.353 156.05 182.507 155.276 182.814 154.616C183.133 153.945 183.582 153.427 184.162 153.063C184.742 152.699 185.408 152.517 186.159 152.517C186.83 152.517 187.416 152.665 187.917 152.961C188.417 153.245 188.793 153.649 189.043 154.173V148.745H190.426ZM186.432 160.282C187.274 160.282 187.923 159.998 188.378 159.429C188.833 158.849 189.06 158.03 189.06 156.971C189.06 155.925 188.833 155.117 188.378 154.548C187.923 153.968 187.274 153.678 186.432 153.678C185.59 153.678 184.93 153.962 184.452 154.531C183.986 155.1 183.753 155.902 183.753 156.937C183.753 157.995 183.986 158.82 184.452 159.412C184.93 159.992 185.59 160.282 186.432 160.282ZM205.092 152.722L201.081 162.091C200.66 163.07 200.131 163.787 199.494 164.242C198.857 164.697 198.072 165.01 197.139 165.181L196.849 164.105C197.657 163.923 198.265 163.679 198.675 163.371C199.096 163.076 199.443 162.615 199.716 161.989L200.057 161.221L196.422 152.722H197.873L200.774 159.805L203.71 152.722H205.092ZM210.065 161.426C209.257 161.426 208.546 161.244 207.932 160.88C207.317 160.516 206.839 159.998 206.498 159.327C206.168 158.655 206.003 157.87 206.003 156.971C206.003 156.073 206.168 155.288 206.498 154.616C206.839 153.945 207.317 153.427 207.932 153.063C208.546 152.699 209.257 152.517 210.065 152.517C210.873 152.517 211.584 152.699 212.198 153.063C212.813 153.427 213.285 153.945 213.615 154.616C213.956 155.288 214.127 156.073 214.127 156.971C214.127 157.87 213.956 158.655 213.615 159.327C213.285 159.998 212.813 160.516 212.198 160.88C211.584 161.244 210.873 161.426 210.065 161.426ZM210.065 160.282C210.918 160.282 211.573 160.004 212.028 159.446C212.483 158.877 212.71 158.052 212.71 156.971C212.71 155.925 212.477 155.117 212.011 154.548C211.544 153.968 210.896 153.678 210.065 153.678C209.223 153.678 208.569 153.968 208.102 154.548C207.636 155.117 207.403 155.925 207.403 156.971C207.403 158.052 207.63 158.877 208.085 159.446C208.552 160.004 209.212 160.282 210.065 160.282ZM223.467 152.722V161.306H222.119V159.822C221.846 160.345 221.464 160.743 220.975 161.016C220.486 161.289 219.934 161.426 219.32 161.426C218.307 161.426 217.539 161.141 217.016 160.573C216.492 160.004 216.231 159.162 216.231 158.047V152.722H217.613V158.013C217.613 158.786 217.772 159.355 218.091 159.719C218.409 160.083 218.893 160.265 219.542 160.265C220.304 160.265 220.918 160.021 221.385 159.531C221.851 159.031 222.084 158.377 222.084 157.569V152.722H223.467ZM234.575 152.517C234.86 152.517 235.122 152.551 235.36 152.619L235.326 153.882C235.065 153.791 234.763 153.746 234.422 153.746C233.591 153.746 232.971 154.008 232.562 154.531C232.163 155.043 231.964 155.669 231.964 156.408V161.306H230.582V155.128C230.582 154.241 230.536 153.439 230.445 152.722H231.759L231.896 154.309C232.112 153.729 232.459 153.285 232.937 152.978C233.415 152.671 233.961 152.517 234.575 152.517ZM244.159 152.722V161.306H242.794V159.753C242.543 160.288 242.162 160.703 241.65 160.999C241.15 161.284 240.564 161.426 239.892 161.426C239.13 161.426 238.459 161.244 237.878 160.88C237.31 160.516 236.866 160.004 236.547 159.344C236.24 158.672 236.086 157.893 236.086 157.006C236.086 156.118 236.246 155.339 236.564 154.667C236.883 153.985 237.327 153.456 237.896 153.08C238.476 152.705 239.141 152.517 239.892 152.517C240.564 152.517 241.15 152.665 241.65 152.961C242.151 153.257 242.532 153.672 242.794 154.207V152.722H244.159ZM240.165 160.282C241.007 160.282 241.656 159.998 242.111 159.429C242.566 158.849 242.794 158.03 242.794 156.971C242.794 155.913 242.566 155.1 242.111 154.531C241.656 153.962 241.007 153.678 240.165 153.678C239.323 153.678 238.664 153.973 238.186 154.565C237.719 155.145 237.486 155.959 237.486 157.006C237.486 158.052 237.719 158.86 238.186 159.429C238.652 159.998 239.312 160.282 240.165 160.282ZM248.675 153.814V158.507C248.675 159.145 248.806 159.594 249.068 159.856C249.329 160.106 249.699 160.231 250.177 160.231C250.495 160.231 250.803 160.18 251.098 160.078V161.255C250.746 161.369 250.348 161.426 249.904 161.426C249.085 161.426 248.442 161.198 247.975 160.743C247.52 160.277 247.293 159.594 247.293 158.695V153.814H245.62V152.722H247.293V150.52L248.675 150.025V152.722H251.133V153.814H248.675ZM259.984 156.971H253.686C253.697 158.064 253.948 158.889 254.437 159.446C254.937 160.004 255.66 160.282 256.604 160.282C257.606 160.282 258.527 159.947 259.369 159.275L259.83 160.282C259.454 160.635 258.971 160.914 258.379 161.119C257.799 161.323 257.202 161.426 256.587 161.426C255.245 161.426 254.192 161.033 253.43 160.248C252.668 159.452 252.286 158.365 252.286 156.989C252.286 156.112 252.457 155.339 252.798 154.667C253.14 153.985 253.618 153.456 254.232 153.08C254.846 152.705 255.546 152.517 256.331 152.517C257.469 152.517 258.362 152.893 259.011 153.643C259.659 154.383 259.984 155.407 259.984 156.715V156.971ZM256.348 153.592C255.632 153.592 255.046 153.808 254.59 154.241C254.147 154.673 253.862 155.282 253.737 156.067H258.738C258.669 155.259 258.43 154.645 258.021 154.224C257.623 153.803 257.065 153.592 256.348 153.592ZM274.075 152.722L270.065 162.091C269.644 163.07 269.115 163.787 268.477 164.242C267.84 164.697 267.055 165.01 266.122 165.181L265.832 164.105C266.64 163.923 267.249 163.679 267.658 163.371C268.079 163.076 268.426 162.615 268.699 161.989L269.041 161.221L265.405 152.722H266.856L269.757 159.805L272.693 152.722H274.075ZM279.048 161.426C278.241 161.426 277.529 161.244 276.915 160.88C276.301 160.516 275.823 159.998 275.481 159.327C275.151 158.655 274.986 157.87 274.986 156.971C274.986 156.073 275.151 155.288 275.481 154.616C275.823 153.945 276.301 153.427 276.915 153.063C277.529 152.699 278.241 152.517 279.048 152.517C279.856 152.517 280.567 152.699 281.182 153.063C281.796 153.427 282.268 153.945 282.598 154.616C282.94 155.288 283.11 156.073 283.11 156.971C283.11 157.87 282.94 158.655 282.598 159.327C282.268 159.998 281.796 160.516 281.182 160.88C280.567 161.244 279.856 161.426 279.048 161.426ZM279.048 160.282C279.902 160.282 280.556 160.004 281.011 159.446C281.466 158.877 281.694 158.052 281.694 156.971C281.694 155.925 281.46 155.117 280.994 154.548C280.527 153.968 279.879 153.678 279.048 153.678C278.206 153.678 277.552 153.968 277.086 154.548C276.619 155.117 276.386 155.925 276.386 156.971C276.386 158.052 276.614 158.877 277.069 159.446C277.535 160.004 278.195 160.282 279.048 160.282ZM292.45 152.722V161.306H291.102V159.822C290.829 160.345 290.448 160.743 289.958 161.016C289.469 161.289 288.917 161.426 288.303 161.426C287.29 161.426 286.522 161.141 285.999 160.573C285.476 160.004 285.214 159.162 285.214 158.047V152.722H286.596V158.013C286.596 158.786 286.756 159.355 287.074 159.719C287.393 160.083 287.876 160.265 288.525 160.265C289.287 160.265 289.902 160.021 290.368 159.531C290.835 159.031 291.068 158.377 291.068 157.569V152.722H292.45ZM299.109 152.517C299.393 152.517 299.655 152.551 299.894 152.619L299.86 153.882C299.598 153.791 299.296 153.746 298.955 153.746C298.125 153.746 297.504 154.008 297.095 154.531C296.697 155.043 296.498 155.669 296.498 156.408V161.306H295.115V155.128C295.115 154.241 295.07 153.439 294.979 152.722H296.293L296.429 154.309C296.645 153.729 296.992 153.285 297.47 152.978C297.948 152.671 298.494 152.517 299.109 152.517ZM312.934 156.971H306.636C306.647 158.064 306.898 158.889 307.387 159.446C307.888 160.004 308.61 160.282 309.554 160.282C310.556 160.282 311.477 159.947 312.319 159.275L312.78 160.282C312.404 160.635 311.921 160.914 311.329 161.119C310.749 161.323 310.152 161.426 309.537 161.426C308.195 161.426 307.142 161.033 306.38 160.248C305.618 159.452 305.236 158.365 305.236 156.989C305.236 156.112 305.407 155.339 305.748 154.667C306.09 153.985 306.568 153.456 307.182 153.08C307.796 152.705 308.496 152.517 309.281 152.517C310.419 152.517 311.312 152.893 311.961 153.643C312.609 154.383 312.934 155.407 312.934 156.715V156.971ZM309.298 153.592C308.582 153.592 307.996 153.808 307.54 154.241C307.097 154.673 306.812 155.282 306.687 156.067H311.688C311.619 155.259 311.38 154.645 310.971 154.224C310.573 153.803 310.015 153.592 309.298 153.592ZM322.51 161.306H320.854L318.141 157.927L315.461 161.306H313.772L317.339 156.886L313.976 152.722H315.649L318.141 155.879L320.632 152.722H322.322L318.977 156.886L322.51 161.306ZM328.332 152.517C329.083 152.517 329.749 152.705 330.329 153.08C330.909 153.456 331.359 153.985 331.677 154.667C331.996 155.339 332.155 156.118 332.155 157.006C332.155 157.893 331.996 158.672 331.677 159.344C331.359 160.004 330.909 160.516 330.329 160.88C329.76 161.244 329.095 161.426 328.332 161.426C327.661 161.426 327.075 161.278 326.574 160.982C326.074 160.686 325.693 160.265 325.431 159.719V164.993H324.048V155.128C324.048 154.241 324.003 153.439 323.912 152.722H325.226L325.363 154.377C325.602 153.786 325.977 153.331 326.489 153.012C327.012 152.682 327.627 152.517 328.332 152.517ZM328.076 160.282C328.918 160.282 329.567 159.998 330.022 159.429C330.488 158.86 330.722 158.052 330.722 157.006C330.722 155.959 330.488 155.145 330.022 154.565C329.555 153.973 328.907 153.678 328.076 153.678C327.223 153.678 326.569 153.962 326.114 154.531C325.658 155.1 325.431 155.913 325.431 156.971C325.431 158.03 325.658 158.849 326.114 159.429C326.569 159.998 327.223 160.282 328.076 160.282ZM341.467 156.971H335.169C335.181 158.064 335.431 158.889 335.92 159.446C336.421 160.004 337.143 160.282 338.088 160.282C339.089 160.282 340.011 159.947 340.852 159.275L341.313 160.282C340.938 160.635 340.454 160.914 339.863 161.119C339.282 161.323 338.685 161.426 338.071 161.426C336.728 161.426 335.676 161.033 334.913 160.248C334.151 159.452 333.77 158.365 333.77 156.989C333.77 156.112 333.94 155.339 334.282 154.667C334.623 153.985 335.101 153.456 335.715 153.08C336.33 152.705 337.03 152.517 337.815 152.517C338.952 152.517 339.846 152.893 340.494 153.643C341.143 154.383 341.467 155.407 341.467 156.715V156.971ZM337.832 153.592C337.115 153.592 336.529 153.808 336.074 154.241C335.63 154.673 335.346 155.282 335.22 156.067H340.221C340.153 155.259 339.914 154.645 339.504 154.224C339.106 153.803 338.548 153.592 337.832 153.592ZM347.559 152.517C347.843 152.517 348.105 152.551 348.344 152.619L348.31 153.882C348.048 153.791 347.746 153.746 347.405 153.746C346.575 153.746 345.954 154.008 345.545 154.531C345.147 155.043 344.948 155.669 344.948 156.408V161.306H343.565V155.128C343.565 154.241 343.52 153.439 343.429 152.722H344.743L344.879 154.309C345.095 153.729 345.442 153.285 345.92 152.978C346.398 152.671 346.944 152.517 347.559 152.517ZM349.748 152.722H351.131V161.306H349.748V152.722ZM351.302 149.087V150.657H349.612V149.087H351.302ZM361 156.971H354.703C354.714 158.064 354.964 158.889 355.454 159.446C355.954 160.004 356.677 160.282 357.621 160.282C358.622 160.282 359.544 159.947 360.386 159.275L360.847 160.282C360.471 160.635 359.988 160.914 359.396 161.119C358.816 161.323 358.218 161.426 357.604 161.426C356.261 161.426 355.209 161.033 354.447 160.248C353.684 159.452 353.303 158.365 353.303 156.989C353.303 156.112 353.474 155.339 353.815 154.667C354.156 153.985 354.634 153.456 355.249 153.08C355.863 152.705 356.563 152.517 357.348 152.517C358.486 152.517 359.379 152.893 360.027 153.643C360.676 154.383 361 155.407 361 156.715V156.971ZM357.365 153.592C356.648 153.592 356.062 153.808 355.607 154.241C355.163 154.673 354.879 155.282 354.754 156.067H359.754C359.686 155.259 359.447 154.645 359.038 154.224C358.639 153.803 358.082 153.592 357.365 153.592ZM367.382 152.517C369.442 152.517 370.471 153.649 370.471 155.913V161.306H369.089V155.982C369.089 155.185 368.93 154.605 368.611 154.241C368.292 153.865 367.792 153.678 367.109 153.678C366.313 153.678 365.676 153.922 365.198 154.411C364.72 154.901 364.481 155.561 364.481 156.391V161.306H363.098V155.128C363.098 154.241 363.053 153.439 362.962 152.722H364.276L364.413 154.258C364.674 153.7 365.067 153.274 365.59 152.978C366.114 152.671 366.711 152.517 367.382 152.517ZM376.683 161.426C375.852 161.426 375.124 161.244 374.498 160.88C373.884 160.516 373.406 160.004 373.065 159.344C372.735 158.672 372.57 157.893 372.57 157.006C372.57 156.118 372.74 155.339 373.082 154.667C373.423 153.985 373.907 153.456 374.532 153.08C375.17 152.705 375.909 152.517 376.751 152.517C377.331 152.517 377.889 152.619 378.424 152.824C378.97 153.018 379.419 153.291 379.772 153.643L379.311 154.667C378.879 154.326 378.458 154.076 378.048 153.917C377.65 153.757 377.24 153.678 376.819 153.678C375.943 153.678 375.255 153.973 374.754 154.565C374.254 155.145 374.003 155.959 374.003 157.006C374.003 158.041 374.248 158.849 374.737 159.429C375.238 159.998 375.932 160.282 376.819 160.282C377.24 160.282 377.65 160.203 378.048 160.043C378.458 159.884 378.879 159.634 379.311 159.293L379.772 160.317C379.408 160.658 378.947 160.931 378.39 161.136C377.843 161.329 377.275 161.426 376.683 161.426ZM388.717 156.971H382.419C382.431 158.064 382.681 158.889 383.17 159.446C383.671 160.004 384.393 160.282 385.338 160.282C386.339 160.282 387.261 159.947 388.102 159.275L388.563 160.282C388.188 160.635 387.704 160.914 387.113 161.119C386.532 161.323 385.935 161.426 385.321 161.426C383.978 161.426 382.926 161.033 382.163 160.248C381.401 159.452 381.02 158.365 381.02 156.989C381.02 156.112 381.19 155.339 381.532 154.667C381.873 153.985 382.351 153.456 382.965 153.08C383.58 152.705 384.28 152.517 385.065 152.517C386.202 152.517 387.096 152.893 387.744 153.643C388.393 154.383 388.717 155.407 388.717 156.715V156.971ZM385.082 153.592C384.365 153.592 383.779 153.808 383.324 154.241C382.88 154.673 382.596 155.282 382.47 156.067H387.471C387.403 155.259 387.164 154.645 386.754 154.224C386.356 153.803 385.798 153.592 385.082 153.592ZM229.346 173.722L226.171 182.306H224.84L222.383 175.599L219.942 182.306H218.611L215.436 173.722H216.887L219.311 180.651L221.819 173.722H223.031L225.506 180.668L227.98 173.722H229.346ZM231.14 173.722H232.523V182.306H231.14V173.722ZM232.693 170.087V171.657H231.004V170.087H232.693ZM237.05 174.814V179.507C237.05 180.145 237.181 180.594 237.443 180.856C237.704 181.106 238.074 181.231 238.552 181.231C238.87 181.231 239.178 181.18 239.473 181.078V182.255C239.121 182.369 238.723 182.426 238.279 182.426C237.46 182.426 236.817 182.198 236.35 181.743C235.895 181.277 235.668 180.594 235.668 179.695V174.814H233.995V173.722H235.668V171.52L237.05 171.025V173.722H239.508V174.814H237.05ZM245.457 173.517C247.517 173.517 248.546 174.649 248.546 176.913V182.306H247.164V176.982C247.164 176.185 247.005 175.605 246.686 175.241C246.367 174.865 245.867 174.678 245.184 174.678C244.388 174.678 243.751 174.922 243.273 175.411C242.795 175.901 242.556 176.561 242.556 177.391V182.306H241.173V169.745H242.556V175.121C242.829 174.598 243.216 174.2 243.716 173.927C244.228 173.654 244.809 173.517 245.457 173.517ZM262.792 173.722V182.306H261.444V180.822C261.171 181.345 260.789 181.743 260.3 182.016C259.811 182.289 259.259 182.426 258.645 182.426C257.632 182.426 256.864 182.141 256.341 181.573C255.817 181.004 255.556 180.162 255.556 179.047V173.722H256.938V179.013C256.938 179.786 257.097 180.355 257.416 180.719C257.734 181.083 258.218 181.265 258.867 181.265C259.629 181.265 260.243 181.021 260.71 180.531C261.176 180.031 261.409 179.377 261.409 178.569V173.722H262.792ZM268.358 182.426C266.913 182.426 265.77 182.056 264.928 181.317L265.389 180.293C265.855 180.657 266.327 180.918 266.805 181.078C267.283 181.237 267.818 181.317 268.409 181.317C269.058 181.317 269.547 181.208 269.877 180.992C270.218 180.765 270.389 180.44 270.389 180.019C270.389 179.678 270.275 179.405 270.048 179.2C269.82 178.995 269.445 178.836 268.921 178.722L267.471 178.381C266.754 178.222 266.196 177.937 265.798 177.528C265.411 177.118 265.218 176.629 265.218 176.06C265.218 175.309 265.519 174.7 266.122 174.234C266.725 173.756 267.522 173.517 268.512 173.517C269.115 173.517 269.684 173.614 270.218 173.807C270.753 174.001 271.203 174.279 271.567 174.643L271.106 175.65C270.298 174.979 269.433 174.643 268.512 174.643C267.897 174.643 267.419 174.763 267.078 175.002C266.748 175.229 266.583 175.554 266.583 175.975C266.583 176.327 266.686 176.606 266.89 176.811C267.107 177.016 267.448 177.175 267.914 177.289L269.365 177.647C270.162 177.829 270.753 178.114 271.14 178.501C271.527 178.876 271.72 179.371 271.72 179.985C271.72 180.725 271.419 181.317 270.816 181.76C270.213 182.204 269.394 182.426 268.358 182.426ZM273.927 170.65C274.292 170.445 274.684 170.291 275.105 170.189C275.526 170.075 275.941 170.018 276.351 170.018C277.329 170.018 278.12 170.269 278.723 170.769C279.338 171.259 279.645 171.907 279.645 172.715C279.645 173.136 279.571 173.523 279.423 173.875C279.286 174.228 279.116 174.547 278.911 174.831C278.706 175.104 278.427 175.446 278.075 175.855C277.585 176.401 277.204 176.891 276.931 177.323C276.67 177.755 276.51 178.256 276.453 178.825L276.402 179.132H275.583V178.705C275.583 177.989 275.708 177.386 275.958 176.896C276.209 176.396 276.578 175.838 277.068 175.224C277.455 174.734 277.739 174.319 277.921 173.978C278.114 173.625 278.211 173.233 278.211 172.8C278.211 172.311 278.041 171.924 277.699 171.64C277.358 171.355 276.886 171.213 276.283 171.213C275.486 171.213 274.701 171.452 273.927 171.93V170.65ZM275.122 180.549H276.88V182.306H275.122V180.549Z" fill="black"/>
<rect x="13.9336" y="11.9333" width="481.067" height="18.4544" fill="#3070CC"/>
<path fill-rule="evenodd" clip-rule="evenodd" d="M141.597 238.07L130.331 243.447L132.482 232.059L123.368 223.995L135.964 222.334L141.597 211.973L147.23 222.334L159.826 223.995L150.712 232.059L152.863 243.447L141.597 238.07Z" fill="#EFC559"/>
<path fill-rule="evenodd" clip-rule="evenodd" d="M190.58 238.07L179.313 243.447L181.465 232.059L172.35 223.995L184.946 222.334L190.58 211.973L196.213 222.334L208.809 223.995L199.694 232.059L201.846 243.447L190.58 238.07Z" fill="#EFC559"/>
<path fill-rule="evenodd" clip-rule="evenodd" d="M241.693 238.07L230.426 243.447L232.578 232.059L223.464 223.995L236.06 222.334L241.693 211.973L247.326 222.334L259.922 223.995L250.807 232.059L252.959 243.447L241.693 238.07Z" fill="#EFC559"/>
<path fill-rule="evenodd" clip-rule="evenodd" d="M291.74 238.07L280.473 243.447L282.625 232.059L273.51 223.995L286.107 222.334L291.74 211.973L297.373 222.334L309.969 223.995L300.854 232.059L303.006 243.447L291.74 238.07Z" fill="#EFC559"/>
<path fill-rule="evenodd" clip-rule="evenodd" d="M340.724 238.07L329.458 243.447L331.609 232.059L322.495 223.995L335.091 222.334L340.724 211.973L346.357 222.334L358.953 223.995L349.839 232.059L351.99 243.447L340.724 238.07Z" fill="#DADADA"/>
</g>
<defs>
<filter id="filter0_d" x="0.0666659" y="0.199999" width="514.133" height="348.8" filterUnits="userSpaceOnUse" color-interpolation-filters="sRGB">
<feFlood flood-opacity="0" result="BackgroundImageFix"/>
<feColorMatrix in="SourceAlpha" type="matrix" values="0 0 0 0 0 0 0 0 0 0 0 0 0 0 0 0 0 0 127 0"/>
<feOffset dx="2.13333" dy="4.26667"/>
<feGaussianBlur stdDeviation="8.53333"/>
<feColorMatrix type="matrix" values="0 0 0 0 0.2 0 0 0 0 0.2 0 0 0 0 0.2 0 0 0 0.06 0"/>
<feBlend mode="normal" in2="BackgroundImageFix" result="effect1_dropShadow"/>
<feBlend mode="normal" in="SourceGraphic" in2="effect1_dropShadow" result="shape"/>
</filter>
<clipPath id="clip0">
<rect width="481.067" height="26.6667" fill="white" transform="translate(13.9336 302.077)"/>
</clipPath>
</defs>
</svg>
