<svg width="521" height="359" viewBox="0 0 521 359" fill="none" xmlns="http://www.w3.org/2000/svg">
<g filter="url(#filter0_d)">
<rect x="18" y="16" width="480" height="317.268" rx="10.1053" fill="#00000B"/>
</g>
<mask id="mask0" mask-type="alpha" maskUnits="userSpaceOnUse" x="18" y="16" width="480" height="318">
<rect x="18" y="16" width="480" height="317.268" rx="10.1053" fill="white"/>
</mask>
<g mask="url(#mask0)">
<rect x="18" y="16" width="480" height="318.542" fill="white"/>
<rect x="134.211" y="51.6765" width="246.316" height="39.4994" fill="#3070CC"/>
<g clip-path="url(#clip0)">
<rect width="481.263" height="25.9507" transform="matrix(1 0 0 -1 16.7363 333.582)" fill="#3070CC"/>
<path d="M55.5841 324.849C54.4051 324.849 53.5125 324.546 52.9062 323.94C52.3083 323.325 52.0094 322.42 52.0094 321.224V315.755H53.0325V321.313C53.0325 322.188 53.2473 322.849 53.6767 323.296C54.1062 323.742 54.742 323.965 55.5841 323.965C56.4178 323.965 57.0451 323.742 57.4662 323.296C57.8957 322.849 58.1104 322.188 58.1104 321.313V315.755H59.1462V321.224C59.1462 322.412 58.843 323.313 58.2367 323.927C57.6304 324.542 56.7462 324.849 55.5841 324.849ZM64.356 318.243C65.8802 318.243 66.6424 319.081 66.6424 320.757V324.748H65.6192V320.807C65.6192 320.218 65.5013 319.788 65.2655 319.519C65.0297 319.241 64.6592 319.102 64.1539 319.102C63.5645 319.102 63.0929 319.283 62.7392 319.645C62.3855 320.007 62.2087 320.496 62.2087 321.111V324.748H61.1855V320.176C61.1855 319.519 61.1518 318.925 61.0845 318.395H62.0571L62.1581 319.532C62.3518 319.119 62.6424 318.803 63.0297 318.584C63.4171 318.357 63.8592 318.243 64.356 318.243ZM70.7219 324.837C69.6524 324.837 68.8061 324.563 68.1829 324.016L68.524 323.258C68.8692 323.527 69.2187 323.721 69.5724 323.839C69.9261 323.957 70.3219 324.016 70.7598 324.016C71.2398 324.016 71.6019 323.936 71.8461 323.776C72.0987 323.607 72.225 323.367 72.225 323.056C72.225 322.803 72.1408 322.601 71.9724 322.449C71.804 322.298 71.5261 322.18 71.1387 322.096L70.065 321.843C69.5345 321.725 69.1219 321.515 68.8271 321.212C68.5408 320.908 68.3976 320.546 68.3976 320.125C68.3976 319.569 68.6208 319.119 69.0671 318.774C69.5134 318.42 70.1029 318.243 70.8355 318.243C71.2819 318.243 71.7029 318.315 72.0987 318.458C72.4945 318.601 72.8271 318.807 73.0966 319.077L72.7555 319.822C72.1576 319.325 71.5176 319.077 70.8355 319.077C70.3808 319.077 70.0271 319.165 69.7745 319.342C69.5303 319.511 69.4082 319.751 69.4082 320.062C69.4082 320.323 69.484 320.529 69.6355 320.681C69.7955 320.833 70.0482 320.951 70.3934 321.035L71.4671 321.3C72.0566 321.435 72.4945 321.645 72.7808 321.932C73.0671 322.209 73.2103 322.576 73.2103 323.031C73.2103 323.578 72.9871 324.016 72.5408 324.344C72.0945 324.673 71.4882 324.837 70.7219 324.837ZM80.1588 318.395V324.748H79.1609V323.649C78.9588 324.037 78.6767 324.332 78.3146 324.534C77.9525 324.736 77.5441 324.837 77.0894 324.837C76.3399 324.837 75.7715 324.626 75.3841 324.205C74.9967 323.784 74.803 323.161 74.803 322.336V318.395H75.8262V322.311C75.8262 322.883 75.9441 323.304 76.1799 323.574C76.4157 323.843 76.7736 323.978 77.2536 323.978C77.8178 323.978 78.2725 323.797 78.6178 323.435C78.963 323.064 79.1357 322.58 79.1357 321.982V318.395H80.1588ZM85.3018 318.243C85.8575 318.243 86.3502 318.378 86.7797 318.647C87.2091 318.917 87.5418 319.3 87.7775 319.797C88.0133 320.285 88.1312 320.858 88.1312 321.515C88.1312 322.172 88.0133 322.753 87.7775 323.258C87.5418 323.755 87.2091 324.142 86.7797 324.42C86.3502 324.698 85.8575 324.837 85.3018 324.837C84.8049 324.837 84.3712 324.727 84.0007 324.508C83.6302 324.289 83.3481 323.978 83.1544 323.574V324.748H82.1312V315.452H83.1544V319.519C83.3397 319.106 83.6175 318.791 83.9881 318.572C84.367 318.353 84.8049 318.243 85.3018 318.243ZM85.1123 323.991C85.727 323.991 86.207 323.776 86.5523 323.346C86.8975 322.908 87.0702 322.298 87.0702 321.515C87.0702 320.748 86.8975 320.155 86.5523 319.734C86.2154 319.313 85.7354 319.102 85.1123 319.102C84.4807 319.102 83.9965 319.313 83.6597 319.734C83.3228 320.155 83.1544 320.757 83.1544 321.54C83.1544 322.323 83.3228 322.929 83.6597 323.359C83.9965 323.78 84.4807 323.991 85.1123 323.991ZM91.8526 324.837C90.7831 324.837 89.9368 324.563 89.3137 324.016L89.6547 323.258C90 323.527 90.3495 323.721 90.7031 323.839C91.0568 323.957 91.4526 324.016 91.8905 324.016C92.3705 324.016 92.7326 323.936 92.9768 323.776C93.2295 323.607 93.3558 323.367 93.3558 323.056C93.3558 322.803 93.2716 322.601 93.1031 322.449C92.9347 322.298 92.6568 322.18 92.2695 322.096L91.1958 321.843C90.6652 321.725 90.2526 321.515 89.9579 321.212C89.6716 320.908 89.5284 320.546 89.5284 320.125C89.5284 319.569 89.7516 319.119 90.1979 318.774C90.6442 318.42 91.2337 318.243 91.9663 318.243C92.4126 318.243 92.8337 318.315 93.2295 318.458C93.6252 318.601 93.9579 318.807 94.2274 319.077L93.8863 319.822C93.2884 319.325 92.6484 319.077 91.9663 319.077C91.5116 319.077 91.1579 319.165 90.9052 319.342C90.661 319.511 90.5389 319.751 90.5389 320.062C90.5389 320.323 90.6147 320.529 90.7663 320.681C90.9263 320.833 91.1789 320.951 91.5242 321.035L92.5979 321.3C93.1874 321.435 93.6252 321.645 93.9116 321.932C94.1979 322.209 94.341 322.576 94.341 323.031C94.341 323.578 94.1179 324.016 93.6716 324.344C93.2252 324.673 92.6189 324.837 91.8526 324.837ZM98.637 324.837C98.0222 324.837 97.4833 324.702 97.0201 324.433C96.5654 324.163 96.2117 323.784 95.9591 323.296C95.7148 322.799 95.5927 322.222 95.5927 321.565C95.5927 320.908 95.7191 320.332 95.9717 319.835C96.2243 319.329 96.5822 318.938 97.0454 318.66C97.517 318.382 98.0643 318.243 98.6875 318.243C99.117 318.243 99.5296 318.319 99.9254 318.471C100.33 318.614 100.662 318.816 100.923 319.077L100.582 319.835C100.262 319.582 99.9506 319.397 99.6475 319.279C99.3527 319.161 99.0496 319.102 98.738 319.102C98.0896 319.102 97.5801 319.321 97.2096 319.759C96.8391 320.188 96.6538 320.791 96.6538 321.565C96.6538 322.332 96.8348 322.929 97.197 323.359C97.5675 323.78 98.0812 323.991 98.738 323.991C99.0496 323.991 99.3527 323.932 99.6475 323.814C99.9506 323.696 100.262 323.511 100.582 323.258L100.923 324.016C100.654 324.268 100.313 324.471 99.9001 324.622C99.4959 324.765 99.0748 324.837 98.637 324.837ZM105.182 318.243C105.392 318.243 105.586 318.268 105.763 318.319L105.737 319.254C105.544 319.186 105.321 319.153 105.068 319.153C104.453 319.153 103.994 319.346 103.691 319.734C103.396 320.113 103.249 320.576 103.249 321.123V324.748H102.226V320.176C102.226 319.519 102.192 318.925 102.125 318.395H103.097L103.198 319.569C103.358 319.14 103.615 318.812 103.969 318.584C104.323 318.357 104.727 318.243 105.182 318.243ZM106.802 318.395H107.825V324.748H106.802V318.395ZM107.952 315.704V316.866H106.701V315.704H107.952ZM112.983 318.243C113.538 318.243 114.031 318.378 114.461 318.647C114.89 318.917 115.223 319.3 115.458 319.797C115.694 320.285 115.812 320.858 115.812 321.515C115.812 322.172 115.694 322.753 115.458 323.258C115.223 323.755 114.89 324.142 114.461 324.42C114.031 324.698 113.538 324.837 112.983 324.837C112.486 324.837 112.052 324.727 111.682 324.508C111.311 324.289 111.029 323.978 110.835 323.574V324.748H109.812V315.452H110.835V319.519C111.021 319.106 111.298 318.791 111.669 318.572C112.048 318.353 112.486 318.243 112.983 318.243ZM112.793 323.991C113.408 323.991 113.888 323.776 114.233 323.346C114.578 322.908 114.751 322.298 114.751 321.515C114.751 320.748 114.578 320.155 114.233 319.734C113.896 319.313 113.416 319.102 112.793 319.102C112.162 319.102 111.677 319.313 111.341 319.734C111.004 320.155 110.835 320.757 110.835 321.54C110.835 322.323 111.004 322.929 111.341 323.359C111.677 323.78 112.162 323.991 112.793 323.991ZM122.704 321.54H118.043C118.051 322.348 118.237 322.959 118.599 323.372C118.969 323.784 119.504 323.991 120.203 323.991C120.944 323.991 121.626 323.742 122.249 323.245L122.59 323.991C122.312 324.252 121.955 324.458 121.517 324.609C121.087 324.761 120.645 324.837 120.19 324.837C119.197 324.837 118.418 324.546 117.854 323.965C117.289 323.376 117.007 322.572 117.007 321.553C117.007 320.904 117.134 320.332 117.386 319.835C117.639 319.329 117.992 318.938 118.447 318.66C118.902 318.382 119.42 318.243 120.001 318.243C120.843 318.243 121.504 318.521 121.984 319.077C122.464 319.624 122.704 320.382 122.704 321.351V321.54ZM120.014 319.039C119.483 319.039 119.049 319.199 118.712 319.519C118.384 319.839 118.174 320.289 118.081 320.871H121.782C121.731 320.273 121.555 319.818 121.251 319.506C120.957 319.195 120.544 319.039 120.014 319.039Z" fill="#F2F2F2"/>
<path d="M50.9609 326.012H123.272V326.643H50.9609V326.012Z" fill="#F2F2F2"/>
</g>
<rect x="16.7363" y="14.7256" width="481.263" height="18.6301" fill="#3070CC"/>
<rect x="334.421" y="154.252" width="27.7894" height="28.0208" fill="#3070CC" stroke="#3070CC" stroke-width="1.26316"/>
<path d="M350.745 168.487C351.675 168.716 352.402 169.14 352.928 169.76C353.453 170.38 353.716 171.128 353.716 172.004C353.716 172.826 353.487 173.546 353.029 174.166C352.584 174.772 351.951 175.237 351.129 175.561C350.321 175.884 349.384 176.046 348.32 176.046C347.255 176.046 346.312 175.884 345.49 175.561C344.682 175.237 344.049 174.772 343.591 174.166C343.146 173.546 342.924 172.826 342.924 172.004C342.924 171.128 343.186 170.38 343.712 169.76C344.237 169.14 344.965 168.716 345.895 168.487C345.086 168.218 344.446 167.793 343.975 167.214C343.516 166.634 343.287 165.961 343.287 165.193C343.287 164.411 343.503 163.731 343.934 163.151C344.365 162.559 344.958 162.107 345.713 161.797C346.481 161.474 347.35 161.312 348.32 161.312C349.29 161.312 350.152 161.474 350.907 161.797C351.675 162.107 352.274 162.559 352.705 163.151C353.137 163.731 353.352 164.411 353.352 165.193C353.352 165.974 353.116 166.661 352.645 167.254C352.187 167.834 351.553 168.244 350.745 168.487ZM348.32 163.354C347.525 163.354 346.898 163.535 346.44 163.899C345.982 164.263 345.753 164.782 345.753 165.455C345.753 166.089 345.982 166.607 346.44 167.012C346.912 167.402 347.538 167.658 348.32 167.78C349.101 167.658 349.721 167.402 350.179 167.012C350.651 166.607 350.887 166.089 350.887 165.455C350.887 164.782 350.657 164.263 350.199 163.899C349.741 163.535 349.115 163.354 348.32 163.354ZM348.32 174.004C349.236 174.004 349.95 173.816 350.462 173.439C350.988 173.061 351.25 172.522 351.25 171.822C351.25 171.162 350.981 170.629 350.442 170.225C349.916 169.821 349.209 169.558 348.32 169.437C347.431 169.558 346.716 169.821 346.177 170.225C345.652 170.629 345.389 171.162 345.389 171.822C345.389 172.522 345.645 173.061 346.157 173.439C346.683 173.816 347.404 174.004 348.32 174.004Z" fill="white"/>
<rect x="369.79" y="154.252" width="27.7895" height="28.0208" fill="#3070CC" stroke="#3070CC" stroke-width="1.26316"/>
<path d="M383.224 161.312C385.043 161.312 386.444 161.932 387.428 163.172C388.425 164.398 388.924 166.149 388.924 168.426C388.924 170.016 388.688 171.384 388.216 172.529C387.745 173.674 387.064 174.55 386.175 175.156C385.299 175.763 384.255 176.066 383.042 176.066C382.18 176.066 381.338 175.924 380.516 175.642C379.708 175.345 379.007 174.927 378.414 174.388L379.283 172.489C380.563 173.486 381.782 173.984 382.941 173.984C384.006 173.984 384.828 173.533 385.407 172.63C386 171.714 386.31 170.407 386.337 168.709C386.027 169.329 385.555 169.821 384.922 170.185C384.302 170.548 383.595 170.73 382.8 170.73C381.951 170.73 381.19 170.535 380.516 170.144C379.856 169.754 379.337 169.208 378.96 168.507C378.582 167.807 378.394 167.005 378.394 166.102C378.394 165.186 378.596 164.364 379 163.636C379.418 162.909 379.99 162.343 380.718 161.939C381.459 161.521 382.294 161.312 383.224 161.312ZM383.366 168.649C384.12 168.649 384.733 168.406 385.205 167.921C385.676 167.436 385.912 166.803 385.912 166.021C385.912 165.24 385.676 164.607 385.205 164.122C384.733 163.623 384.12 163.374 383.366 163.374C382.611 163.374 382.005 163.616 381.547 164.101C381.102 164.586 380.88 165.226 380.88 166.021C380.88 166.816 381.102 167.456 381.547 167.941C382.005 168.413 382.611 168.649 383.366 168.649Z" fill="white"/>
<rect x="406.421" y="154.252" width="27.7895" height="28.0208" fill="#3070CC" stroke="#3070CC" stroke-width="1.26316"/>
<path d="M419.333 173.762V175.884H410.461V173.762H413.614V164.485L410.683 166.244V163.919L414.685 161.494H416.201V173.762H419.333ZM426.379 176.066C424.668 176.066 423.361 175.439 422.458 174.186C421.569 172.92 421.124 171.081 421.124 168.669C421.124 166.298 421.569 164.485 422.458 163.232C423.361 161.979 424.668 161.353 426.379 161.353C428.09 161.353 429.39 161.979 430.28 163.232C431.182 164.472 431.634 166.284 431.634 168.669C431.634 171.067 431.182 172.9 430.28 174.166C429.39 175.433 428.09 176.066 426.379 176.066ZM426.379 174.025C427.309 174.025 427.982 173.6 428.4 172.751C428.831 171.889 429.047 170.528 429.047 168.669C429.047 166.836 428.831 165.503 428.4 164.667C427.982 163.818 427.309 163.394 426.379 163.394C425.449 163.394 424.769 163.818 424.338 164.667C423.92 165.503 423.711 166.836 423.711 168.669C423.711 170.528 423.92 171.889 424.338 172.751C424.769 173.6 425.449 174.025 426.379 174.025Z" fill="white"/>
<rect x="296.527" y="154.252" width="27.7895" height="28.0208" fill="#3070CC" stroke="#3070CC" stroke-width="1.26316"/>
<path d="M315.438 161.494V163.434L308.91 175.884H306.12L312.628 163.616H305.413V161.494H315.438Z" fill="white"/>
<rect x="261.157" y="154.252" width="27.7895" height="28.0208" fill="#3070CC" stroke="#3070CC" stroke-width="1.26316"/>
<path d="M275.945 166.648C276.794 166.648 277.549 166.843 278.209 167.234C278.883 167.625 279.408 168.17 279.785 168.871C280.163 169.572 280.351 170.373 280.351 171.276C280.351 172.192 280.143 173.014 279.725 173.742C279.321 174.469 278.748 175.042 278.007 175.46C277.279 175.864 276.451 176.066 275.521 176.066C273.702 176.066 272.301 175.453 271.317 174.227C270.334 172.987 269.842 171.229 269.842 168.952C269.842 167.362 270.071 165.994 270.529 164.849C271.001 163.704 271.674 162.828 272.55 162.222C273.439 161.615 274.49 161.312 275.703 161.312C276.565 161.312 277.401 161.46 278.209 161.757C279.031 162.04 279.745 162.451 280.351 162.99L279.462 164.89C278.196 163.892 276.976 163.394 275.804 163.394C274.74 163.394 273.918 163.845 273.338 164.748C272.759 165.651 272.456 166.944 272.429 168.628C272.739 168.022 273.21 167.544 273.844 167.194C274.477 166.83 275.177 166.648 275.945 166.648ZM275.4 174.004C276.141 174.004 276.734 173.762 277.178 173.277C277.636 172.792 277.865 172.152 277.865 171.357C277.865 170.562 277.636 169.929 277.178 169.457C276.734 168.972 276.134 168.73 275.38 168.73C274.625 168.73 274.012 168.972 273.54 169.457C273.069 169.942 272.833 170.575 272.833 171.357C272.833 172.138 273.069 172.778 273.54 173.277C274.025 173.762 274.645 174.004 275.4 174.004Z" fill="white"/>
<rect x="224.527" y="154.252" width="27.7895" height="28.0208" fill="#3070CC" stroke="#3070CC" stroke-width="1.26316"/>
<path d="M239.193 166.688C240.096 166.688 240.891 166.884 241.578 167.274C242.265 167.652 242.798 168.191 243.175 168.891C243.552 169.578 243.741 170.373 243.741 171.276C243.741 172.219 243.525 173.055 243.094 173.782C242.663 174.496 242.043 175.055 241.235 175.46C240.426 175.85 239.49 176.046 238.425 176.046C237.523 176.046 236.633 175.898 235.758 175.601C234.882 175.291 234.161 174.88 233.595 174.368L234.464 172.468C235.771 173.466 237.105 173.964 238.466 173.964C239.368 173.964 240.056 173.742 240.527 173.297C241.012 172.839 241.255 172.192 241.255 171.357C241.255 170.562 241.006 169.929 240.507 169.457C240.022 168.972 239.368 168.73 238.547 168.73C237.981 168.73 237.448 168.837 236.95 169.053C236.451 169.255 236.014 169.558 235.636 169.962H234.06V161.494H243.074V163.515H236.606V167.436C237.334 166.938 238.196 166.688 239.193 166.688Z" fill="white"/>
<rect x="189.157" y="154.252" width="27.7895" height="28.0208" fill="#3070CC" stroke="#3070CC" stroke-width="1.26316"/>
<path d="M208.634 173.075H206.593V175.884H204.047V173.075H197.781V171.135L204.511 161.494H206.593V171.034H208.634V173.075ZM204.047 171.034V165.556L200.247 171.034H204.047Z" fill="white"/>
<rect x="151.263" y="154.252" width="27.7895" height="28.0208" fill="#3070CC" stroke="#3070CC" stroke-width="1.26316"/>
<path d="M167.385 168.487C168.234 168.716 168.88 169.134 169.325 169.74C169.783 170.346 170.012 171.094 170.012 171.983C170.012 173.236 169.547 174.227 168.618 174.954C167.701 175.682 166.462 176.046 164.899 176.046C163.929 176.046 162.992 175.898 162.09 175.601C161.2 175.305 160.466 174.894 159.887 174.368L160.776 172.468C162.056 173.466 163.397 173.964 164.798 173.964C165.714 173.964 166.394 173.782 166.839 173.418C167.297 173.055 167.526 172.502 167.526 171.761C167.526 171.034 167.297 170.501 166.839 170.164C166.381 169.814 165.674 169.639 164.717 169.639H162.817V167.557H164.373C166.233 167.557 167.162 166.85 167.162 165.435C167.162 164.775 166.96 164.27 166.556 163.919C166.152 163.569 165.586 163.394 164.858 163.394C163.565 163.394 162.272 163.892 160.978 164.89L160.109 162.99C160.688 162.478 161.416 162.074 162.292 161.777C163.181 161.467 164.09 161.312 165.02 161.312C166.435 161.312 167.56 161.663 168.395 162.363C169.244 163.05 169.669 163.973 169.669 165.132C169.655 165.927 169.446 166.621 169.042 167.214C168.651 167.793 168.099 168.218 167.385 168.487Z" fill="white"/>
<rect x="115.896" y="154.252" width="27.7895" height="28.0208" fill="#3070CC" stroke="#3070CC" stroke-width="1.26316"/>
<path d="M134.817 173.762V175.884H125.156V173.964L130.047 168.689C130.627 168.056 131.051 167.476 131.321 166.951C131.59 166.426 131.725 165.907 131.725 165.395C131.725 164.735 131.529 164.236 131.139 163.899C130.761 163.562 130.216 163.394 129.502 163.394C128.235 163.394 126.935 163.892 125.601 164.89L124.732 162.99C125.298 162.478 126.025 162.074 126.915 161.777C127.804 161.467 128.7 161.312 129.603 161.312C131.044 161.312 132.183 161.669 133.018 162.383C133.867 163.084 134.292 164.034 134.292 165.233C134.292 166.055 134.11 166.83 133.746 167.557C133.396 168.285 132.803 169.1 131.967 170.003L128.43 173.762H134.817Z" fill="white"/>
<rect x="79.263" y="154.252" width="27.7895" height="28.0208" fill="#3070CC" stroke="#3070CC" stroke-width="1.26316"/>
<path d="M98.2345 173.762V175.884H89.3621V173.762H92.5149V164.485L89.5844 166.244V163.919L93.5861 161.494H95.1019V173.762H98.2345Z" fill="white"/>
<path d="M94.8732 132.998C93.5123 132.998 92.3267 132.702 91.3161 132.109C90.3191 131.516 89.5511 130.667 89.0121 129.562C88.4732 128.444 88.2037 127.13 88.2037 125.621C88.2037 124.112 88.4732 122.812 89.0121 121.721C89.5511 120.616 90.3191 119.767 91.3161 119.174C92.3267 118.581 93.5123 118.285 94.8732 118.285C95.8702 118.285 96.7797 118.44 97.6016 118.75C98.437 119.046 99.1578 119.498 99.7641 120.104L99.1376 121.377C98.4504 120.784 97.77 120.36 97.0963 120.104C96.4361 119.848 95.7018 119.72 94.8934 119.72C93.317 119.72 92.0909 120.232 91.2151 121.256C90.3528 122.28 89.9216 123.735 89.9216 125.621C89.9216 127.521 90.3528 128.99 91.2151 130.027C92.0774 131.051 93.3035 131.563 94.8934 131.563C95.7018 131.563 96.4361 131.435 97.0963 131.179C97.77 130.923 98.4504 130.499 99.1376 129.906L99.7641 131.179C99.1578 131.786 98.437 132.244 97.6016 132.554C96.7797 132.85 95.8702 132.998 94.8732 132.998ZM111.099 122.671V132.837H109.482V130.997C109.185 131.631 108.734 132.122 108.128 132.473C107.535 132.81 106.841 132.978 106.046 132.978C105.143 132.978 104.348 132.762 103.661 132.331C102.988 131.9 102.462 131.294 102.085 130.512C101.721 129.717 101.539 128.794 101.539 127.743C101.539 126.693 101.728 125.77 102.105 124.975C102.482 124.166 103.008 123.54 103.681 123.095C104.369 122.65 105.157 122.428 106.046 122.428C106.841 122.428 107.535 122.603 108.128 122.954C108.721 123.304 109.172 123.796 109.482 124.429V122.671H111.099ZM106.369 131.624C107.367 131.624 108.135 131.287 108.673 130.613C109.212 129.926 109.482 128.956 109.482 127.703C109.482 126.45 109.212 125.487 108.673 124.813C108.135 124.139 107.367 123.802 106.369 123.802C105.372 123.802 104.591 124.153 104.025 124.853C103.473 125.541 103.196 126.504 103.196 127.743C103.196 128.983 103.473 129.94 104.025 130.613C104.577 131.287 105.359 131.624 106.369 131.624ZM119.337 122.428C121.775 122.428 122.995 123.769 122.995 126.45V132.837H121.358V126.531C121.358 125.588 121.169 124.901 120.792 124.469C120.415 124.025 119.822 123.802 119.013 123.802C118.07 123.802 117.316 124.092 116.75 124.671C116.184 125.251 115.901 126.032 115.901 127.016V132.837H114.264V125.52C114.264 124.469 114.21 123.519 114.102 122.671H115.658L115.82 124.49C116.13 123.829 116.595 123.324 117.215 122.974C117.834 122.61 118.542 122.428 119.337 122.428ZM140.289 122.671L135.54 133.766C135.041 134.925 134.415 135.774 133.66 136.313C132.905 136.852 131.976 137.222 130.871 137.424L130.527 136.151C131.484 135.935 132.205 135.646 132.69 135.282C133.188 134.932 133.599 134.386 133.923 133.645L134.327 132.735L130.022 122.671H131.74L135.176 131.058L138.652 122.671H140.289ZM146.178 132.978C145.222 132.978 144.379 132.762 143.652 132.331C142.924 131.9 142.358 131.287 141.954 130.492C141.563 129.697 141.368 128.767 141.368 127.703C141.368 126.639 141.563 125.709 141.954 124.914C142.358 124.119 142.924 123.506 143.652 123.075C144.379 122.644 145.222 122.428 146.178 122.428C147.135 122.428 147.977 122.644 148.705 123.075C149.432 123.506 149.991 124.119 150.382 124.914C150.786 125.709 150.988 126.639 150.988 127.703C150.988 128.767 150.786 129.697 150.382 130.492C149.991 131.287 149.432 131.9 148.705 132.331C147.977 132.762 147.135 132.978 146.178 132.978ZM146.178 131.624C147.189 131.624 147.963 131.294 148.502 130.634C149.041 129.96 149.311 128.983 149.311 127.703C149.311 126.463 149.035 125.507 148.482 124.833C147.93 124.146 147.162 123.802 146.178 123.802C145.181 123.802 144.406 124.146 143.854 124.833C143.302 125.507 143.025 126.463 143.025 127.703C143.025 128.983 143.295 129.96 143.834 130.634C144.386 131.294 145.168 131.624 146.178 131.624ZM162.049 122.671V132.837H160.452V131.078C160.129 131.698 159.677 132.17 159.098 132.493C158.519 132.816 157.865 132.978 157.138 132.978C155.939 132.978 155.029 132.641 154.409 131.967C153.789 131.294 153.48 130.297 153.48 128.976V122.671H155.117V128.936C155.117 129.852 155.305 130.526 155.683 130.957C156.06 131.388 156.632 131.604 157.4 131.604C158.303 131.604 159.031 131.314 159.583 130.735C160.136 130.142 160.412 129.367 160.412 128.41V122.671H162.049ZM179.529 122.671V132.756C179.529 134.265 179.138 135.403 178.357 136.171C177.589 136.953 176.45 137.343 174.941 137.343C173.391 137.343 172.058 136.993 170.939 136.293L171.222 134.959C171.869 135.322 172.475 135.585 173.041 135.747C173.621 135.909 174.254 135.989 174.941 135.989C175.925 135.989 176.666 135.727 177.164 135.201C177.663 134.689 177.912 133.921 177.912 132.897V130.492C177.602 131.139 177.144 131.644 176.538 132.008C175.945 132.358 175.237 132.533 174.415 132.533C173.526 132.533 172.731 132.325 172.031 131.907C171.343 131.489 170.811 130.896 170.434 130.128C170.057 129.36 169.868 128.478 169.868 127.481C169.868 126.484 170.057 125.601 170.434 124.833C170.811 124.065 171.343 123.472 172.031 123.055C172.731 122.637 173.526 122.428 174.415 122.428C175.224 122.428 175.925 122.603 176.517 122.954C177.124 123.304 177.582 123.796 177.892 124.429V122.671H179.529ZM174.739 131.159C175.722 131.159 176.49 130.836 177.043 130.189C177.609 129.529 177.892 128.626 177.892 127.481C177.892 126.335 177.609 125.439 177.043 124.793C176.49 124.133 175.722 123.802 174.739 123.802C173.742 123.802 172.954 124.133 172.374 124.793C171.808 125.439 171.525 126.335 171.525 127.481C171.525 128.626 171.808 129.529 172.374 130.189C172.954 130.836 173.742 131.159 174.739 131.159ZM182.672 122.671H184.309V132.837H182.672V122.671ZM184.511 118.366V120.225H182.51V118.366H184.511ZM196.421 122.691L192.035 132.837H190.479L186.154 122.691H187.872L191.307 131.058L194.784 122.691H196.421ZM206.615 127.703H199.157C199.17 128.997 199.467 129.973 200.046 130.634C200.639 131.294 201.495 131.624 202.613 131.624C203.799 131.624 204.89 131.226 205.887 130.431L206.433 131.624C205.988 132.042 205.415 132.372 204.715 132.614C204.028 132.857 203.32 132.978 202.593 132.978C201.003 132.978 199.757 132.513 198.854 131.583C197.951 130.64 197.5 129.354 197.5 127.723C197.5 126.686 197.702 125.77 198.106 124.975C198.51 124.166 199.076 123.54 199.804 123.095C200.531 122.65 201.36 122.428 202.29 122.428C203.637 122.428 204.695 122.873 205.463 123.762C206.231 124.638 206.615 125.85 206.615 127.4V127.703ZM202.31 123.701C201.461 123.701 200.767 123.957 200.228 124.469C199.703 124.981 199.366 125.702 199.218 126.632H205.139C205.058 125.675 204.775 124.948 204.29 124.449C203.819 123.951 203.159 123.701 202.31 123.701ZM222.878 122.671V132.837H221.281V131.078C220.958 131.698 220.506 132.17 219.927 132.493C219.348 132.816 218.694 132.978 217.967 132.978C216.767 132.978 215.858 132.641 215.238 131.967C214.618 131.294 214.309 130.297 214.309 128.976V122.671H215.946V128.936C215.946 129.852 216.134 130.526 216.511 130.957C216.889 131.388 217.461 131.604 218.229 131.604C219.132 131.604 219.86 131.314 220.412 130.735C220.965 130.142 221.241 129.367 221.241 128.41V122.671H222.878ZM229.469 132.978C227.758 132.978 226.404 132.54 225.407 131.664L225.953 130.452C226.505 130.883 227.064 131.193 227.63 131.381C228.196 131.57 228.829 131.664 229.53 131.664C230.298 131.664 230.877 131.536 231.268 131.28C231.672 131.011 231.874 130.627 231.874 130.128C231.874 129.724 231.74 129.401 231.47 129.158C231.201 128.916 230.756 128.727 230.136 128.592L228.418 128.188C227.57 127.999 226.909 127.663 226.438 127.178C225.98 126.693 225.751 126.113 225.751 125.439C225.751 124.55 226.108 123.829 226.822 123.277C227.536 122.711 228.479 122.428 229.651 122.428C230.365 122.428 231.039 122.543 231.672 122.772C232.306 123.001 232.838 123.331 233.269 123.762L232.723 124.954C231.767 124.159 230.743 123.762 229.651 123.762C228.924 123.762 228.358 123.903 227.954 124.186C227.563 124.456 227.368 124.84 227.368 125.338C227.368 125.756 227.489 126.086 227.731 126.329C227.987 126.571 228.392 126.76 228.944 126.895L230.662 127.319C231.605 127.535 232.306 127.871 232.764 128.33C233.222 128.774 233.451 129.36 233.451 130.088C233.451 130.964 233.094 131.664 232.38 132.19C231.666 132.715 230.696 132.978 229.469 132.978ZM250.283 122.671V132.837H248.666V130.997C248.37 131.631 247.918 132.122 247.312 132.473C246.719 132.81 246.025 132.978 245.23 132.978C244.328 132.978 243.533 132.762 242.845 132.331C242.172 131.9 241.646 131.294 241.269 130.512C240.905 129.717 240.723 128.794 240.723 127.743C240.723 126.693 240.912 125.77 241.289 124.975C241.667 124.166 242.192 123.54 242.866 123.095C243.553 122.65 244.341 122.428 245.23 122.428C246.025 122.428 246.719 122.603 247.312 122.954C247.905 123.304 248.356 123.796 248.666 124.429V122.671H250.283ZM245.554 131.624C246.551 131.624 247.319 131.287 247.858 130.613C248.397 129.926 248.666 128.956 248.666 127.703C248.666 126.45 248.397 125.487 247.858 124.813C247.319 124.139 246.551 123.802 245.554 123.802C244.557 123.802 243.775 124.153 243.209 124.853C242.657 125.541 242.381 126.504 242.381 127.743C242.381 128.983 242.657 129.94 243.209 130.613C243.762 131.287 244.543 131.624 245.554 131.624ZM258.718 117.962H260.355V132.837H258.718V117.962ZM263.534 122.671H265.171V132.837H263.534V122.671ZM265.373 118.366V120.225H263.372V118.366H265.373ZM270.532 123.964V129.522C270.532 130.277 270.687 130.809 270.997 131.119C271.307 131.415 271.745 131.563 272.311 131.563C272.688 131.563 273.052 131.503 273.402 131.381V132.776C272.984 132.911 272.513 132.978 271.987 132.978C271.017 132.978 270.256 132.709 269.704 132.17C269.165 131.617 268.895 130.809 268.895 129.744V123.964H266.914V122.671H268.895V120.063L270.532 119.477V122.671H273.442V123.964H270.532ZM277.657 123.964V129.522C277.657 130.277 277.812 130.809 278.122 131.119C278.432 131.415 278.87 131.563 279.436 131.563C279.813 131.563 280.177 131.503 280.527 131.381V132.776C280.109 132.911 279.638 132.978 279.112 132.978C278.142 132.978 277.381 132.709 276.829 132.17C276.29 131.617 276.02 130.809 276.02 129.744V123.964H274.039V122.671H276.02V120.063L277.657 119.477V122.671H280.567V123.964H277.657ZM282.54 117.962H284.177V132.837H282.54V117.962ZM295.865 127.703H288.407C288.42 128.997 288.717 129.973 289.296 130.634C289.889 131.294 290.745 131.624 291.863 131.624C293.049 131.624 294.14 131.226 295.137 130.431L295.683 131.624C295.238 132.042 294.665 132.372 293.965 132.614C293.278 132.857 292.57 132.978 291.843 132.978C290.253 132.978 289.007 132.513 288.104 131.583C287.201 130.64 286.75 129.354 286.75 127.723C286.75 126.686 286.952 125.77 287.356 124.975C287.76 124.166 288.326 123.54 289.054 123.095C289.781 122.65 290.61 122.428 291.54 122.428C292.887 122.428 293.945 122.873 294.713 123.762C295.481 124.638 295.865 125.85 295.865 127.4V127.703ZM291.56 123.701C290.711 123.701 290.017 123.957 289.478 124.469C288.953 124.981 288.616 125.702 288.468 126.632H294.389C294.308 125.675 294.025 124.948 293.54 124.449C293.069 123.951 292.409 123.701 291.56 123.701ZM308.692 122.428C309.581 122.428 310.369 122.644 311.057 123.075C311.744 123.506 312.276 124.119 312.653 124.914C313.031 125.695 313.219 126.612 313.219 127.663C313.219 128.714 313.031 129.643 312.653 130.452C312.276 131.247 311.744 131.866 311.057 132.311C310.369 132.756 309.581 132.978 308.692 132.978C307.897 132.978 307.203 132.803 306.61 132.453C306.017 132.102 305.566 131.604 305.256 130.957V132.837H303.619V117.962H305.256V124.469C305.553 123.809 305.997 123.304 306.59 122.954C307.196 122.603 307.897 122.428 308.692 122.428ZM308.389 131.624C309.372 131.624 310.14 131.28 310.693 130.593C311.245 129.893 311.521 128.916 311.521 127.663C311.521 126.437 311.245 125.487 310.693 124.813C310.154 124.139 309.386 123.802 308.389 123.802C307.378 123.802 306.604 124.139 306.065 124.813C305.526 125.487 305.256 126.45 305.256 127.703C305.256 128.956 305.526 129.926 306.065 130.613C306.604 131.287 307.378 131.624 308.389 131.624ZM315.738 122.671H317.375V132.837H315.738V122.671ZM317.577 118.366V120.225H315.576V118.366H317.577ZM322.736 123.964V129.522C322.736 130.277 322.891 130.809 323.201 131.119C323.511 131.415 323.949 131.563 324.515 131.563C324.892 131.563 325.256 131.503 325.606 131.381V132.776C325.188 132.911 324.717 132.978 324.191 132.978C323.221 132.978 322.46 132.709 321.907 132.17C321.369 131.617 321.099 130.809 321.099 129.744V123.964H319.118V122.671H321.099V120.063L322.736 119.477V122.671H325.646V123.964H322.736ZM344.166 122.428C346.417 122.428 347.542 123.769 347.542 126.45V132.837H345.905V126.531C345.905 125.574 345.736 124.88 345.399 124.449C345.076 124.018 344.544 123.802 343.803 123.802C342.94 123.802 342.267 124.092 341.782 124.671C341.296 125.251 341.054 126.039 341.054 127.036V132.837H339.417V126.531C339.417 125.588 339.249 124.901 338.912 124.469C338.575 124.025 338.036 123.802 337.295 123.802C336.432 123.802 335.752 124.092 335.254 124.671C334.769 125.251 334.526 126.039 334.526 127.036V132.837H332.889V125.52C332.889 124.469 332.835 123.519 332.727 122.671H334.283L334.445 124.449C334.728 123.802 335.146 123.304 335.698 122.954C336.264 122.603 336.918 122.428 337.659 122.428C338.467 122.428 339.127 122.59 339.639 122.913C340.151 123.237 340.529 123.735 340.771 124.409C341.081 123.802 341.532 123.324 342.125 122.974C342.731 122.61 343.412 122.428 344.166 122.428ZM354.856 132.978C353.899 132.978 353.057 132.762 352.33 132.331C351.602 131.9 351.036 131.287 350.632 130.492C350.241 129.697 350.046 128.767 350.046 127.703C350.046 126.639 350.241 125.709 350.632 124.914C351.036 124.119 351.602 123.506 352.33 123.075C353.057 122.644 353.899 122.428 354.856 122.428C355.812 122.428 356.655 122.644 357.382 123.075C358.11 123.506 358.669 124.119 359.06 124.914C359.464 125.709 359.666 126.639 359.666 127.703C359.666 128.767 359.464 129.697 359.06 130.492C358.669 131.287 358.11 131.9 357.382 132.331C356.655 132.762 355.812 132.978 354.856 132.978ZM354.856 131.624C355.866 131.624 356.641 131.294 357.18 130.634C357.719 129.96 357.988 128.983 357.988 127.703C357.988 126.463 357.712 125.507 357.16 124.833C356.607 124.146 355.839 123.802 354.856 123.802C353.859 123.802 353.084 124.146 352.532 124.833C351.979 125.507 351.703 126.463 351.703 127.703C351.703 128.983 351.972 129.96 352.511 130.634C353.064 131.294 353.845 131.624 354.856 131.624ZM366.947 122.428C367.284 122.428 367.594 122.469 367.877 122.549L367.836 124.045C367.526 123.937 367.169 123.883 366.765 123.883C365.782 123.883 365.047 124.193 364.562 124.813C364.091 125.419 363.855 126.16 363.855 127.036V132.837H362.218V125.52C362.218 124.469 362.164 123.519 362.056 122.671H363.612L363.774 124.55C364.03 123.863 364.441 123.338 365.007 122.974C365.573 122.61 366.22 122.428 366.947 122.428ZM377.851 127.703H370.394C370.407 128.997 370.704 129.973 371.283 130.634C371.876 131.294 372.731 131.624 373.85 131.624C375.035 131.624 376.127 131.226 377.124 130.431L377.67 131.624C377.225 132.042 376.652 132.372 375.952 132.614C375.265 132.857 374.557 132.978 373.83 132.978C372.24 132.978 370.993 132.513 370.091 131.583C369.188 130.64 368.737 129.354 368.737 127.723C368.737 126.686 368.939 125.77 369.343 124.975C369.747 124.166 370.313 123.54 371.041 123.095C371.768 122.65 372.597 122.428 373.526 122.428C374.874 122.428 375.931 122.873 376.699 123.762C377.467 124.638 377.851 125.85 377.851 127.4V127.703ZM373.547 123.701C372.698 123.701 372.004 123.957 371.465 124.469C370.939 124.981 370.603 125.702 370.454 126.632H376.376C376.295 125.675 376.012 124.948 375.527 124.449C375.056 123.951 374.395 123.701 373.547 123.701ZM385.606 122.671H387.243V132.837H385.606V122.671ZM387.445 118.366V120.225H385.444V118.366H387.445ZM395.495 122.428C397.933 122.428 399.153 123.769 399.153 126.45V132.837H397.516V126.531C397.516 125.588 397.327 124.901 396.95 124.469C396.573 124.025 395.98 123.802 395.171 123.802C394.228 123.802 393.474 124.092 392.908 124.671C392.342 125.251 392.059 126.032 392.059 127.016V132.837H390.422V125.52C390.422 124.469 390.368 123.519 390.26 122.671H391.816L391.978 124.49C392.288 123.829 392.753 123.324 393.373 122.974C393.992 122.61 394.7 122.428 395.495 122.428ZM406.145 119.295C405.606 119.295 405.181 119.45 404.872 119.76C404.575 120.057 404.427 120.575 404.427 121.317V122.671H406.913V123.964H404.427V132.837H402.79V123.964H400.809V122.671H402.79V121.114C402.79 120.05 403.053 119.248 403.578 118.709C404.117 118.157 404.865 117.881 405.821 117.881C406.293 117.881 406.751 117.941 407.196 118.063V119.457C406.818 119.349 406.468 119.295 406.145 119.295ZM413.158 132.978C412.202 132.978 411.36 132.762 410.632 132.331C409.905 131.9 409.339 131.287 408.934 130.492C408.544 129.697 408.348 128.767 408.348 127.703C408.348 126.639 408.544 125.709 408.934 124.914C409.339 124.119 409.905 123.506 410.632 123.075C411.36 122.644 412.202 122.428 413.158 122.428C414.115 122.428 414.957 122.644 415.685 123.075C416.412 123.506 416.972 124.119 417.362 124.914C417.766 125.709 417.969 126.639 417.969 127.703C417.969 128.767 417.766 129.697 417.362 130.492C416.972 131.287 416.412 131.9 415.685 132.331C414.957 132.762 414.115 132.978 413.158 132.978ZM413.158 131.624C414.169 131.624 414.944 131.294 415.483 130.634C416.022 129.96 416.291 128.983 416.291 127.703C416.291 126.463 416.015 125.507 415.462 124.833C414.91 124.146 414.142 123.802 413.158 123.802C412.161 123.802 411.387 124.146 410.834 124.833C410.282 125.507 410.006 126.463 410.006 127.703C410.006 128.983 410.275 129.96 410.814 130.634C411.366 131.294 412.148 131.624 413.158 131.624ZM420.525 119.033C420.956 118.79 421.421 118.608 421.92 118.487C422.418 118.352 422.91 118.285 423.395 118.285C424.554 118.285 425.49 118.581 426.204 119.174C426.932 119.754 427.296 120.522 427.296 121.478C427.296 121.977 427.208 122.435 427.033 122.853C426.871 123.27 426.669 123.647 426.427 123.984C426.184 124.308 425.854 124.712 425.436 125.197C424.857 125.844 424.406 126.423 424.082 126.935C423.772 127.447 423.584 128.04 423.516 128.714L423.456 129.077H422.486V128.572C422.486 127.723 422.634 127.009 422.93 126.43C423.227 125.837 423.665 125.177 424.244 124.449C424.702 123.87 425.039 123.378 425.254 122.974C425.484 122.556 425.598 122.091 425.598 121.579C425.598 121 425.396 120.542 424.992 120.205C424.588 119.868 424.028 119.7 423.314 119.7C422.371 119.7 421.441 119.983 420.525 120.549V119.033ZM421.94 130.755H424.022V132.837H421.94V130.755Z" fill="black"/>
<path d="M126.631 209.435C126.631 206.605 126.631 205.191 127.182 204.11C127.666 203.159 128.439 202.386 129.39 201.902C130.47 201.351 131.885 201.351 134.715 201.351H396.441C399.271 201.351 400.686 201.351 401.767 201.902C402.717 202.386 403.49 203.159 403.975 204.11C404.526 205.191 404.526 206.605 404.526 209.435V271.583C404.526 274.412 404.526 275.827 403.975 276.908C403.49 277.859 402.717 278.632 401.767 279.116C400.686 279.667 399.271 279.667 396.441 279.667H134.715C131.885 279.667 130.47 279.667 129.39 279.116C128.439 278.632 127.666 277.859 127.182 276.908C126.631 275.827 126.631 274.412 126.631 271.583V209.435Z" fill="white"/>
<path opacity="0.25" d="M138.07 219.874H139.313V230.667H138.07V219.874ZM145.631 222.86C147.46 222.86 148.375 223.866 148.375 225.877V230.667H147.147V225.937C147.147 225.23 147.005 224.715 146.723 224.391C146.44 224.058 145.995 223.891 145.389 223.891C144.681 223.891 144.115 224.108 143.691 224.543C143.267 224.977 143.054 225.564 143.054 226.301V230.667H141.827V225.18C141.827 224.391 141.786 223.679 141.705 223.042H142.872L142.994 224.407C143.226 223.911 143.575 223.532 144.04 223.27C144.504 222.997 145.035 222.86 145.631 222.86ZM153.27 230.773C151.987 230.773 150.971 230.444 150.223 229.788L150.633 228.878C151.047 229.201 151.466 229.434 151.891 229.575C152.315 229.717 152.79 229.788 153.316 229.788C153.892 229.788 154.326 229.692 154.619 229.5C154.922 229.297 155.074 229.009 155.074 228.636C155.074 228.332 154.973 228.09 154.771 227.908C154.569 227.726 154.235 227.585 153.77 227.484L152.482 227.18C151.845 227.039 151.35 226.786 150.996 226.423C150.653 226.059 150.481 225.624 150.481 225.119C150.481 224.452 150.749 223.911 151.284 223.497C151.82 223.073 152.527 222.86 153.407 222.86C153.942 222.86 154.447 222.946 154.922 223.118C155.397 223.29 155.796 223.537 156.12 223.861L155.711 224.755C154.993 224.159 154.225 223.861 153.407 223.861C152.861 223.861 152.436 223.967 152.133 224.179C151.84 224.381 151.694 224.669 151.694 225.043C151.694 225.356 151.785 225.604 151.967 225.786C152.159 225.968 152.462 226.109 152.876 226.21L154.164 226.529C154.872 226.69 155.397 226.943 155.741 227.287C156.084 227.62 156.256 228.06 156.256 228.605C156.256 229.262 155.988 229.788 155.453 230.182C154.917 230.576 154.19 230.773 153.27 230.773ZM164.595 226.817H159.001C159.011 227.787 159.234 228.519 159.668 229.015C160.113 229.51 160.755 229.757 161.593 229.757C162.483 229.757 163.301 229.459 164.049 228.863L164.458 229.757C164.125 230.071 163.695 230.318 163.17 230.5C162.654 230.682 162.124 230.773 161.578 230.773C160.386 230.773 159.451 230.424 158.774 229.727C158.097 229.02 157.758 228.055 157.758 226.832C157.758 226.054 157.91 225.367 158.213 224.77C158.516 224.164 158.941 223.694 159.486 223.361C160.032 223.027 160.653 222.86 161.351 222.86C162.361 222.86 163.155 223.194 163.731 223.861C164.307 224.518 164.595 225.427 164.595 226.589V226.817ZM161.366 223.815C160.729 223.815 160.209 224.007 159.805 224.391C159.411 224.775 159.158 225.316 159.047 226.013H163.488C163.427 225.296 163.215 224.75 162.851 224.376C162.498 224.002 162.003 223.815 161.366 223.815ZM170.005 222.86C170.258 222.86 170.49 222.891 170.702 222.951L170.672 224.073C170.44 223.992 170.172 223.952 169.869 223.952C169.131 223.952 168.58 224.184 168.216 224.649C167.863 225.104 167.686 225.66 167.686 226.316V230.667H166.458V225.18C166.458 224.391 166.418 223.679 166.337 223.042H167.504L167.625 224.452C167.817 223.937 168.125 223.543 168.55 223.27C168.974 222.997 169.459 222.86 170.005 222.86ZM174.179 224.012V228.181C174.179 228.747 174.295 229.146 174.528 229.378C174.76 229.601 175.089 229.712 175.513 229.712C175.796 229.712 176.069 229.666 176.331 229.575V230.621C176.018 230.722 175.665 230.773 175.27 230.773C174.543 230.773 173.972 230.571 173.558 230.167C173.153 229.752 172.951 229.146 172.951 228.348V224.012H171.466V223.042H172.951V221.087L174.179 220.647V223.042H176.362V224.012H174.179ZM188.493 223.042L184.931 231.364C184.557 232.233 184.088 232.87 183.522 233.274C182.956 233.678 182.258 233.956 181.43 234.108L181.172 233.153C181.89 232.991 182.43 232.774 182.794 232.501C183.168 232.238 183.476 231.829 183.719 231.273L184.022 230.591L180.793 223.042H182.082L184.658 229.333L187.266 223.042H188.493ZM192.91 230.773C192.193 230.773 191.561 230.611 191.016 230.288C190.47 229.964 190.045 229.505 189.742 228.908C189.449 228.312 189.303 227.615 189.303 226.817C189.303 226.018 189.449 225.321 189.742 224.725C190.045 224.129 190.47 223.669 191.016 223.345C191.561 223.022 192.193 222.86 192.91 222.86C193.628 222.86 194.259 223.022 194.805 223.345C195.351 223.669 195.77 224.129 196.063 224.725C196.366 225.321 196.518 226.018 196.518 226.817C196.518 227.615 196.366 228.312 196.063 228.908C195.77 229.505 195.351 229.964 194.805 230.288C194.259 230.611 193.628 230.773 192.91 230.773ZM192.91 229.757C193.668 229.757 194.249 229.51 194.653 229.015C195.058 228.509 195.26 227.777 195.26 226.817C195.26 225.887 195.053 225.169 194.638 224.664C194.224 224.149 193.648 223.891 192.91 223.891C192.163 223.891 191.581 224.149 191.167 224.664C190.753 225.169 190.546 225.887 190.546 226.817C190.546 227.777 190.748 228.509 191.152 229.015C191.566 229.51 192.152 229.757 192.91 229.757ZM204.813 223.042V230.667H203.616V229.348C203.373 229.813 203.035 230.167 202.6 230.409C202.166 230.652 201.676 230.773 201.13 230.773C200.231 230.773 199.548 230.52 199.084 230.015C198.619 229.51 198.386 228.762 198.386 227.772V223.042H199.614V227.741C199.614 228.428 199.756 228.934 200.039 229.257C200.321 229.58 200.751 229.742 201.327 229.742C202.004 229.742 202.55 229.525 202.964 229.09C203.378 228.646 203.585 228.065 203.585 227.347V223.042H204.813ZM210.727 222.86C210.98 222.86 211.212 222.891 211.424 222.951L211.394 224.073C211.162 223.992 210.894 223.952 210.591 223.952C209.853 223.952 209.302 224.184 208.938 224.649C208.585 225.104 208.408 225.66 208.408 226.316V230.667H207.18V225.18C207.18 224.391 207.14 223.679 207.059 223.042H208.226L208.347 224.452C208.539 223.937 208.848 223.543 209.272 223.27C209.696 222.997 210.181 222.86 210.727 222.86ZM223.339 223.042V230.667H222.127V229.287C221.904 229.762 221.566 230.131 221.111 230.394C220.666 230.647 220.146 230.773 219.55 230.773C218.873 230.773 218.276 230.611 217.761 230.288C217.256 229.964 216.862 229.51 216.579 228.924C216.306 228.327 216.169 227.635 216.169 226.847C216.169 226.059 216.311 225.367 216.594 224.77C216.877 224.164 217.271 223.694 217.776 223.361C218.292 223.027 218.883 222.86 219.55 222.86C220.146 222.86 220.666 222.992 221.111 223.255C221.556 223.517 221.894 223.886 222.127 224.361V223.042H223.339ZM219.792 229.757C220.54 229.757 221.116 229.505 221.52 228.999C221.924 228.484 222.127 227.756 222.127 226.817C222.127 225.877 221.924 225.154 221.52 224.649C221.116 224.144 220.54 223.891 219.792 223.891C219.044 223.891 218.458 224.154 218.034 224.679C217.62 225.195 217.412 225.917 217.412 226.847C217.412 227.777 217.62 228.494 218.034 228.999C218.448 229.505 219.034 229.757 219.792 229.757ZM229.518 222.86C231.347 222.86 232.261 223.866 232.261 225.877V230.667H231.033V225.937C231.033 225.23 230.892 224.715 230.609 224.391C230.326 224.058 229.881 223.891 229.275 223.891C228.568 223.891 228.002 224.108 227.577 224.543C227.153 224.977 226.941 225.564 226.941 226.301V230.667H225.713V225.18C225.713 224.391 225.673 223.679 225.592 223.042H226.759L226.88 224.407C227.113 223.911 227.461 223.532 227.926 223.27C228.391 222.997 228.921 222.86 229.518 222.86ZM237.157 230.773C235.873 230.773 234.858 230.444 234.11 229.788L234.519 228.878C234.934 229.201 235.353 229.434 235.777 229.575C236.202 229.717 236.677 229.788 237.202 229.788C237.778 229.788 238.213 229.692 238.506 229.5C238.809 229.297 238.96 229.009 238.96 228.636C238.96 228.332 238.859 228.09 238.657 227.908C238.455 227.726 238.122 227.585 237.657 227.484L236.368 227.18C235.732 227.039 235.237 226.786 234.883 226.423C234.539 226.059 234.368 225.624 234.368 225.119C234.368 224.452 234.635 223.911 235.171 223.497C235.707 223.073 236.414 222.86 237.293 222.86C237.829 222.86 238.334 222.946 238.809 223.118C239.284 223.29 239.683 223.537 240.006 223.861L239.597 224.755C238.88 224.159 238.112 223.861 237.293 223.861C236.747 223.861 236.323 223.967 236.02 224.179C235.727 224.381 235.58 224.669 235.58 225.043C235.58 225.356 235.671 225.604 235.853 225.786C236.045 225.968 236.348 226.109 236.763 226.21L238.051 226.529C238.758 226.69 239.284 226.943 239.627 227.287C239.971 227.62 240.143 228.06 240.143 228.605C240.143 229.262 239.875 229.788 239.339 230.182C238.804 230.576 238.076 230.773 237.157 230.773ZM253.547 223.042L250.728 230.667H249.545L247.363 224.71L245.195 230.667H244.013L241.193 223.042H242.482L244.634 229.196L246.862 223.042H247.939L250.136 229.212L252.334 223.042H253.547ZM261.433 226.817H255.84C255.85 227.787 256.072 228.519 256.507 229.015C256.952 229.51 257.593 229.757 258.432 229.757C259.321 229.757 260.14 229.459 260.888 228.863L261.297 229.757C260.963 230.071 260.534 230.318 260.008 230.5C259.493 230.682 258.963 230.773 258.417 230.773C257.224 230.773 256.29 230.424 255.613 229.727C254.936 229.02 254.597 228.055 254.597 226.832C254.597 226.054 254.749 225.367 255.052 224.77C255.355 224.164 255.779 223.694 256.325 223.361C256.871 223.027 257.492 222.86 258.19 222.86C259.2 222.86 259.993 223.194 260.569 223.861C261.145 224.518 261.433 225.427 261.433 226.589V226.817ZM258.205 223.815C257.568 223.815 257.048 224.007 256.643 224.391C256.249 224.775 255.997 225.316 255.886 226.013H260.327C260.266 225.296 260.054 224.75 259.69 224.376C259.336 224.002 258.841 223.815 258.205 223.815ZM266.844 222.86C267.097 222.86 267.329 222.891 267.541 222.951L267.511 224.073C267.278 223.992 267.011 223.952 266.707 223.952C265.97 223.952 265.419 224.184 265.055 224.649C264.702 225.104 264.525 225.66 264.525 226.316V230.667H263.297V225.18C263.297 224.391 263.257 223.679 263.176 223.042H264.343L264.464 224.452C264.656 223.937 264.964 223.543 265.389 223.27C265.813 222.997 266.298 222.86 266.844 222.86ZM276.546 222.86C278.375 222.86 279.289 223.866 279.289 225.877V230.667H278.061V225.937C278.061 225.23 277.92 224.715 277.637 224.391C277.354 224.058 276.909 223.891 276.303 223.891C275.596 223.891 275.03 224.108 274.605 224.543C274.181 224.977 273.969 225.564 273.969 226.301V230.667H272.741V219.511H273.969V224.285C274.211 223.82 274.555 223.467 275 223.224C275.454 222.982 275.97 222.86 276.546 222.86ZM287.989 226.817H282.396C282.406 227.787 282.628 228.519 283.063 229.015C283.508 229.51 284.149 229.757 284.988 229.757C285.877 229.757 286.696 229.459 287.444 228.863L287.853 229.757C287.519 230.071 287.09 230.318 286.564 230.5C286.049 230.682 285.519 230.773 284.973 230.773C283.78 230.773 282.846 230.424 282.169 229.727C281.492 229.02 281.153 228.055 281.153 226.832C281.153 226.054 281.305 225.367 281.608 224.77C281.911 224.164 282.335 223.694 282.881 223.361C283.427 223.027 284.048 222.86 284.745 222.86C285.756 222.86 286.549 223.194 287.125 223.861C287.701 224.518 287.989 225.427 287.989 226.589V226.817ZM284.761 223.815C284.124 223.815 283.604 224.007 283.199 224.391C282.805 224.775 282.553 225.316 282.441 226.013H286.883C286.822 225.296 286.61 224.75 286.246 224.376C285.892 224.002 285.397 223.815 284.761 223.815ZM293.4 222.86C293.652 222.86 293.885 222.891 294.097 222.951L294.067 224.073C293.834 223.992 293.567 223.952 293.263 223.952C292.526 223.952 291.975 224.184 291.611 224.649C291.257 225.104 291.081 225.66 291.081 226.316V230.667H289.853V225.18C289.853 224.391 289.812 223.679 289.732 223.042H290.899L291.02 224.452C291.212 223.937 291.52 223.543 291.945 223.27C292.369 222.997 292.854 222.86 293.4 222.86ZM301.578 226.817H295.985C295.995 227.787 296.217 228.519 296.652 229.015C297.096 229.51 297.738 229.757 298.577 229.757C299.466 229.757 300.285 229.459 301.032 228.863L301.442 229.757C301.108 230.071 300.679 230.318 300.153 230.5C299.638 230.682 299.107 230.773 298.562 230.773C297.369 230.773 296.434 230.424 295.757 229.727C295.08 229.02 294.742 228.055 294.742 226.832C294.742 226.054 294.893 225.367 295.197 224.77C295.5 224.164 295.924 223.694 296.47 223.361C297.016 223.027 297.637 222.86 298.334 222.86C299.345 222.86 300.138 223.194 300.714 223.861C301.29 224.518 301.578 225.427 301.578 226.589V226.817ZM298.349 223.815C297.713 223.815 297.192 224.007 296.788 224.391C296.394 224.775 296.141 225.316 296.03 226.013H300.472C300.411 225.296 300.199 224.75 299.835 224.376C299.481 224.002 298.986 223.815 298.349 223.815ZM304.791 229.105V230.667H303.229V229.105H304.791ZM308.299 229.105V230.667H306.738V229.105H308.299ZM311.807 229.105V230.667H310.246V229.105H311.807Z" fill="black"/>
<g filter="url(#filter1_d)">
<rect x="127.262" y="201.983" width="276.464" height="77.1382" rx="4.42105" stroke="#D8DCE6" stroke-width="1.26316"/>
</g>
</g>
<defs>
<filter id="filter0_d" x="0.31579" y="0.842106" width="520.421" height="357.689" filterUnits="userSpaceOnUse" color-interpolation-filters="sRGB">
<feFlood flood-opacity="0" result="BackgroundImageFix"/>
<feColorMatrix in="SourceAlpha" type="matrix" values="0 0 0 0 0 0 0 0 0 0 0 0 0 0 0 0 0 0 127 0"/>
<feOffset dx="2.52632" dy="5.05263"/>
<feGaussianBlur stdDeviation="10.1053"/>
<feColorMatrix type="matrix" values="0 0 0 0 0.2 0 0 0 0 0.2 0 0 0 0 0.2 0 0 0 0.06 0"/>
<feBlend mode="normal" in2="BackgroundImageFix" result="effect1_dropShadow"/>
<feBlend mode="normal" in="SourceGraphic" in2="effect1_dropShadow" result="shape"/>
</filter>
<filter id="filter1_d" x="121.578" y="198.825" width="287.832" height="88.5066" filterUnits="userSpaceOnUse" color-interpolation-filters="sRGB">
<feFlood flood-opacity="0" result="BackgroundImageFix"/>
<feColorMatrix in="SourceAlpha" type="matrix" values="0 0 0 0 0 0 0 0 0 0 0 0 0 0 0 0 0 0 127 0"/>
<feOffset dy="2.52632"/>
<feGaussianBlur stdDeviation="2.52632"/>
<feColorMatrix type="matrix" values="0 0 0 0 0 0 0 0 0 0 0 0 0 0 0 0 0 0 0.04 0"/>
<feBlend mode="normal" in2="BackgroundImageFix" result="effect1_dropShadow"/>
<feBlend mode="normal" in="SourceGraphic" in2="effect1_dropShadow" result="shape"/>
</filter>
<clipPath id="clip0">
<rect width="481.263" height="26.7574" fill="white" transform="translate(16.7363 307.632)"/>
</clipPath>
</defs>
</svg>
