<svg fill="none" height="30" viewBox="0 0 30 30" width="30" xmlns="http://www.w3.org/2000/svg"><rect fill="#65a2fd" height="30" rx="7" width="30"/><path clip-rule="evenodd" d="m15.4275 5.56143-.1057-.32673c-.1013-.31293-.5414-.31293-.6425 0l-.1056.32673c-.0454.13971-.175.23453-.3214.23453h-.3416c-.3273 0-.4632.42089-.1985.61426l.2765.2019c.1183.0865.1679.23979.1226.37972l-.1056.32651c-.1011.31293.2551.57309.5198.37972l.2765-.2019c.1185-.0865.2789-.0865.3972 0l.2765.2019c.2647.19337.6209-.06679.5198-.37972l-.1057-.32651c-.0453-.13993.0044-.29322.1227-.37972l.2765-.2019c.2649-.19337.1287-.61426-.1985-.61426h-.3416c-.1464 0-.2761-.0946-.3214-.23453zm4.0508 1.10098-.1057-.32651c-.1011-.31293-.5414-.31293-.6425 0l-.1057.32651c-.0453.13993-.1749.23475-.3213.23475h-.3417c-.3272 0-.4632.4209-.1984.61426l.2764.20191c.1183.08649.168.23978.1227.37972l-.1057.32673c-.1011.31293.2552.57308.5199.37972l.2765-.20191c.1185-.0865.2788-.0865.3972 0l.2764.20191c.2648.19336.621-.06679.5199-.37972l-.1057-.32673c-.0453-.13994.0042-.29323.1227-.37972l.2765-.20191c.2649-.19336.1287-.61426-.1985-.61426h-.3416c-.1465 0-.2763-.09482-.3214-.23475zm-8.2756-.32651.1057.32651c.0453.13993.1749.23475.3213.23475h.3417c.3272 0 .4634.4209.1984.61426l-.2764.20191c-.1183.08649-.168.23978-.1227.37972l.1057.32673c.1011.31293-.2552.57308-.5199.37972l-.2765-.20191c-.1183-.0865-.2786-.0865-.3972 0l-.2764.20191c-.2648.19336-.62098-.06679-.51989-.37972l.10567-.32673c.04532-.13994-.00436-.29323-.12266-.37972l-.27649-.20191c-.26471-.19336-.12876-.61426.19849-.61426h.34158c.1465 0 .2761-.09482.3214-.23475l.1057-.32651c.1011-.31293.5414-.31293.6425 0zm-3.40215 3.59003-.10567-.3265c-.10131-.31293-.54164-.31293-.64251 0l-.10567.3265c-.04532.13997-.17495.23477-.32137.23477h-.34162c-.32725 0-.46321.4209-.19849.6142l.27648.2019c.11831.0865.16799.2398.12267.3798l-.10567.3265c-.10109.3129.25513.5731.51985.3797l.27648-.2019c.11853-.0865.27888-.0865.39719 0l.27648.2019c.26472.1934.62094-.0668.51985-.3797l-.10567-.3265c-.04532-.14.00436-.2933.12267-.3798l.27648-.2019c.26493-.1933.12876-.6142-.19848-.6142h-.34163c-.14641 0-.27605-.0948-.32137-.23477zm15.10915-.3265.1057.3265c.0453.13997.1749.23477.3214.23477h.3416c.3272 0 .4634.4209.1985.6142l-.2765.2019c-.1183.0865-.168.2398-.1227.3798l.1057.3265c.1011.3129-.2551.5731-.5199.3797l-.2764-.2019c-.1186-.0865-.2787-.0865-.3972 0l-.2765.2019c-.2647.1934-.621-.0668-.5199-.3797l.1057-.3265c.0453-.14-.0043-.2933-.1227-.3798l-.2764-.2019c-.2648-.1933-.1288-.6142.1985-.6142h.3416c.1464 0 .276-.0948.3213-.23477l.1057-.3265c.1011-.31293.5414-.31293.6425 0zm-7.4822 13.19677-.1057-.3267c-.1013-.3129-.5414-.3129-.6425 0l-.1056.3267c-.0454.14-.175.2346-.3214.2346h-.3416c-.3273 0-.4632.4209-.1985.6142l.2765.2019c.1183.0865.1679.2398.1226.3798l-.1056.3265c-.1011.3129.2551.5731.5198.3797l.2765-.2019c.1185-.0865.2789-.0865.3972 0l.2765.2019c.2647.1934.6209-.0668.5198-.3797l-.1057-.3265c-.0453-.14.0044-.2933.1227-.3798l.2765-.2019c.2649-.1933.1287-.6142-.1985-.6142h-.3416c-.1464 0-.2761-.0946-.3214-.2346zm-4.4865-1.4991.1056.3265c.0454.14.175.2346.3214.2346h.3416c.3273 0 .4635.4209.1985.6142l-.2765.2019c-.1183.0865-.1679.2398-.1226.3797l.1056.3268c.1011.3129-.2551.5731-.5198.3797l-.2765-.2019c-.1185-.0865-.2786-.0865-.3972 0l-.2765.2019c-.26468.1934-.6209-.0668-.51981-.3797l.10567-.3268c.04532-.1399-.00435-.2932-.12266-.3797l-.27648-.2019c-.26472-.1933-.12877-.6142.19848-.6142h.34163c.14637 0 .27607-.0949.32137-.2346l.1057-.3265c.1011-.3129.5414-.3129.6425 0zm8.9396.3265-.1056-.3265c-.1011-.3129-.5415-.3129-.6426 0l-.1056.3265c-.0453.1397-.175.2346-.3214.2346h-.3416c-.3273 0-.4632.4209-.1985.6142l.2765.2019c.1183.0865.168.2398.1226.3797l-.1056.3268c-.1011.3129.2551.5731.5198.3797l.2765-.2019c.1185-.0865.2787-.0865.3972 0l.2765.2019c.2647.1934.6209-.0668.5198-.3797l-.1056-.3268c-.0454-.1399.0041-.2932.1226-.3797l.2765-.2019c.2649-.1933.1288-.6142-.1985-.6142h-.3416c-.1464 0-.2761-.0946-.3214-.2346zm4.0135-7.7715.1057.3265c.0453.1399.1749.2345.3213.2345h.3417c.3272 0 .4634.4209.1984.6143l-.2764.2019c-.1186.0865-.168.2398-.1227.3797l.1057.3268c.1011.3129-.2552.573-.5199.3797l-.2765-.2019c-.1185-.0865-.2786-.0865-.3971 0l-.2765.2019c-.2648.1933-.621-.0668-.5199-.3797l.1057-.3268c.0453-.1399-.0044-.2932-.1227-.3797l-.2765-.2019c-.2647-.1934-.1287-.6143.1985-.6143h.3417c.1464 0 .276-.0948.3213-.2345l.1057-.3265c.1009-.3129.5414-.3129.6425 0zm-1.1678 4.5522-.1056-.3268c-.1011-.3129-.5417-.3129-.6426 0l-.1056.3268c-.0453.1397-.175.2345-.3214.2345h-.3416c-.3273 0-.4632.4209-.1985.6143l.2765.2019c.1183.0865.168.2398.1227.3797l-.1057.3265c-.1011.3129.2551.5731.5198.3797l.2765-.2019c.1185-.0865.2787-.0865.3972 0l.2765.2019c.2647.1934.6209-.0668.5198-.3797l-.1056-.3265c-.0454-.1399.0041-.2932.1226-.3797l.2765-.2019c.2649-.1934.1288-.6143-.1985-.6143h-.3416c-.1464 0-.276-.0946-.3214-.2345zm-14.66228-.3268.10567.3268c.04532.1399.17496.2345.32137.2345h.34163c.32724 0 .46342.4209.19848.6143l-.27648.2019c-.11831.0865-.16798.2398-.12267.3797l.10567.3265c.1011.3129-.25513.5731-.51985.3797l-.27648-.2019c-.11831-.0865-.27866-.0865-.39719 0l-.27648.2019c-.26472.1934-.62094-.0668-.51985-.3797l.10567-.3265c.04532-.1399-.00436-.2932-.12266-.3797l-.27649-.2019c-.26472-.1934-.12876-.6143.19849-.6143h.34163c.14641 0 .27604-.0948.32136-.2345l.10567-.3268c.10109-.3129.54142-.3129.64251 0zm-1.20878-3.8989-.10567-.3265c-.10109-.3129-.54164-.3129-.64251 0l-.10567.3265c-.04532.1397-.17496.2345-.32137.2345h-.34163c-.32725 0-.4632.4209-.19848.6143l.27648.2019c.11831.0865.16798.2398.12267.3797l-.10567.3268c-.1011.3129.25513.573.51985.3797l.27648-.2019c.11852-.0865.27866-.0865.39719 0l.27648.2019c.26472.1933.62094-.0668.51985-.3797l-.10567-.3268c-.04532-.1399.00414-.2932.12266-.3797l.27649-.2019c.26493-.1934.12876-.6143-.19849-.6143h-.34163c-.14641 0-.27626-.0946-.32136-.2345z" fill="#fff" fill-rule="evenodd"/></svg>