<svg fill="none" height="40" viewBox="0 0 40 40" width="40" xmlns="http://www.w3.org/2000/svg"><path d="m32.5 40h-25c-4.1425 0-7.5-3.3575-7.5-7.5v-25c0-4.1425 3.3575-7.5 7.5-7.5h25c4.1425 0 7.5 3.3575 7.5 7.5v25c0 4.1425-3.3575 7.5-7.5 7.5z" fill="#ffc634"/><g fill="#fafafa"><path d="m23.9 12.525-6.6675-2.5c-.1-.03374-.2-.03374-.3 0l-6.6675 2.5c-.1575.0588-.265.2163-.265.3913v5.3587c0 5.675 3.8663 8.0088 5.8425 8.8338.0838-1.725 1.2-3.2088 2.775-3.8163.8988-1.9587 2.9075-3.2925 5.1325-3.2925.0913 0 .1913 0 .2838.0088.0912-.5413.1337-1.1163.1337-1.7338v-5.3587c-.0012-.175-.1087-.3325-.2675-.3913z"/><path d="m26.7938 30h-6.5938c-1.4887 0-2.7-1.1963-2.7-2.6663 0-1.3675 1.0475-2.4975 2.3925-2.6487.4138-1.7425 2.015-3.0175 3.8588-3.0175 1.4512 0 2.79.79 3.4775 2.0337 1.5725.2038 2.7712 1.5363 2.7712 3.1325 0 1.7463-1.4375 3.1663-3.2062 3.1663z"/></g></svg>