<svg width="55" height="55" viewBox="0 0 55 55" fill="none" xmlns="http://www.w3.org/2000/svg">
<path d="M44.6875 55H10.3125C4.61662 55 0 50.3834 0 44.6875V10.3125C0 4.61662 4.61662 0 10.3125 0H44.6875C50.3834 0 55 4.61662 55 10.3125V44.6875C55 50.3834 50.3834 55 44.6875 55Z" fill="#FFF9DD"/>
<path d="M41.1774 24.2806C40.9969 23.7238 40.5018 23.3302 39.921 23.2769L31.9819 22.5551L28.8436 15.211C28.6132 14.671 28.0857 14.3223 27.4995 14.3223C26.9133 14.3223 26.3859 14.671 26.1555 15.211L23.0172 22.5551L15.078 23.2769C14.4956 23.3302 14.0021 23.7238 13.8217 24.2806C13.6413 24.8374 13.8079 25.4476 14.248 25.8344L20.2498 31.0956L18.4795 38.8883C18.349 39.4607 18.5722 40.0536 19.0468 40.3972C19.3011 40.5831 19.6019 40.6759 19.9045 40.6759C20.1621 40.6759 20.4219 40.6071 20.6539 40.4677L27.4995 36.3756L34.3435 40.4677C34.8453 40.7669 35.4764 40.7413 35.9506 40.3972C36.4252 40.0536 36.6484 39.4607 36.5179 38.8883L34.7476 31.0956L40.7494 25.8328C41.1912 25.4476 41.3578 24.8374 41.1774 24.2806Z" fill="#FFD200"/>
</svg>
