<svg width="316" height="40" viewBox="0 0 316 40" fill="none" xmlns="http://www.w3.org/2000/svg">
<path fill-rule="evenodd" clip-rule="evenodd" d="M282.666 5C280.825 5 279.333 6.49238 279.333 8.33333V26.6667C279.333 27.3129 279.707 27.9009 280.292 28.1754C280.877 28.45 281.568 28.3616 282.065 27.9486L287.62 23.3333H287.666V26.6667C287.666 28.5076 289.159 30 291 30H304.379L309.935 34.6153C310.432 35.0283 311.123 35.1167 311.708 34.8421C312.293 34.5676 312.666 33.9796 312.666 33.3333V15C312.666 13.159 311.174 11.6667 309.333 11.6667H304.333V8.33333C304.333 6.49238 302.841 5 301 5H282.666ZM301 13.3333L301 8.33333L282.666 8.33333V23.1153L285.49 20.7694C286.089 20.2722 286.842 20 287.62 20H301L301 13.3333ZM304.333 15H309.333V29.7819L306.509 27.436C305.911 26.9388 305.157 26.6667 304.379 26.6667H291V23.3333L301 23.3333C302.841 23.3333 304.333 21.8409 304.333 20V15Z" fill="#ACB9D2"/>
<path fill-rule="evenodd" clip-rule="evenodd" d="M226.839 6.66658C225.198 6.66658 223.667 8.1337 223.667 10.1999V13.3333L238.667 13.3333C240.508 13.3333 242 14.8256 242 16.6666L242 33.3333C242 35.1742 240.508 36.6666 238.667 36.6666H215.333C213.492 36.6666 212 35.1742 212 33.3333V16.6666C212 14.8256 213.492 13.3333 215.333 13.3333H220.333V10.1999C220.333 6.52237 223.135 3.33325 226.839 3.33325C228.728 3.33325 230.408 4.18163 231.577 5.49222C232.19 6.17906 232.13 7.23262 231.443 7.84543C230.756 8.45824 229.703 8.39822 229.09 7.71139C228.497 7.0475 227.698 6.66658 226.839 6.66658ZM238.667 16.6666L215.333 16.6666L215.333 33.3333H238.667L238.667 16.6666ZM228.667 21.6666C228.667 20.7461 227.92 19.9999 227 19.9999C226.08 19.9999 225.333 20.7461 225.333 21.6666V26.6666C225.333 27.5871 226.08 28.3333 227 28.3333C227.92 28.3333 228.667 27.5871 228.667 26.6666L228.667 21.6666Z" fill="#ACB9D2"/>
<path fill-rule="evenodd" clip-rule="evenodd" d="M156.333 3.33325C154.492 3.33325 153 4.82563 153 6.66659V8.33325H152.998L144.666 8.33325C142.825 8.33325 141.333 9.82564 141.333 11.6666L141.333 33.3333C141.333 35.1742 142.825 36.6666 144.666 36.6666H159.666C161.507 36.6666 163 35.1742 163 33.3333V31.6666L171.333 31.6666C173.174 31.6666 174.666 30.1742 174.666 28.3333V12.3569C174.666 11.4729 174.315 10.625 173.69 9.99992L168 4.30956C167.375 3.68444 166.527 3.33325 165.643 3.33325H164.666H156.333ZM163 6.66659L156.333 6.66659L156.333 9.30956L162.023 14.9999C162.648 15.625 163 16.4729 163 17.3569V28.3333L171.333 28.3333V14.9999H166.333C164.492 14.9999 163 13.5075 163 11.6666V6.66659ZM170.643 11.6666L166.333 11.6666L166.333 7.35693L170.643 11.6666ZM144.666 11.6666H151.333L151.333 16.6666C151.333 18.5075 152.825 19.9999 154.666 19.9999H159.666V29.9974L159.666 29.9999L159.666 30.0025V33.3333L144.666 33.3333L144.666 11.6666ZM154.666 16.6666L158.976 16.6666L154.666 12.3569V16.6666Z" fill="#ACB9D2"/>
<path fill-rule="evenodd" clip-rule="evenodd" d="M95.6664 10.0001C94.8116 10.0001 94.0354 10.3196 93.4445 10.8485C92.7587 11.4623 91.705 11.404 91.0911 10.7181C90.4772 10.0322 90.5356 8.97856 91.2215 8.36468C92.3998 7.31003 93.96 6.66675 95.6664 6.66675C99.3482 6.66675 102.333 9.65152 102.333 13.3334C102.333 15.308 101.472 17.0838 100.111 18.3022C99.4253 18.916 98.3717 18.8577 97.7578 18.1718C97.1439 17.4859 97.2023 16.4322 97.8882 15.8184C98.5728 15.2056 98.9997 14.3205 98.9997 13.3334C98.9997 11.4925 97.5073 10.0001 95.6664 10.0001ZM85.6663 18.3334C85.6663 16.4925 87.1587 15.0001 88.9997 15.0001C90.8406 15.0001 92.333 16.4925 92.333 18.3334C92.333 20.1744 90.8406 21.6667 88.9997 21.6667C87.1587 21.6667 85.6663 20.1744 85.6663 18.3334ZM88.9997 11.6667C85.3178 11.6667 82.333 14.6515 82.333 18.3334C82.333 22.0153 85.3178 25.0001 88.9997 25.0001C92.6816 25.0001 95.6663 22.0153 95.6663 18.3334C95.6663 14.6515 92.6816 11.6667 88.9997 11.6667ZM80.6119 23.3262C80.8453 24.2166 80.3127 25.1276 79.4223 25.361C78.1432 25.6964 77.1507 26.2248 76.5104 26.8006C75.8747 27.3722 75.6663 27.9053 75.6663 28.3328C75.6663 29.2533 74.9201 29.9995 73.9997 29.9995C73.0792 29.9995 72.333 29.2533 72.333 28.3328C72.333 26.71 73.153 25.3369 74.2815 24.322C75.4055 23.3113 76.913 22.5729 78.577 22.1367C79.4674 21.9033 80.3784 22.4358 80.6119 23.3262ZM99.4227 22.1367C98.5323 21.9033 97.6213 22.4358 97.3879 23.3262C97.1545 24.2166 97.6871 25.1276 98.5774 25.361C99.8566 25.6964 100.849 26.2248 101.489 26.8006C102.125 27.3722 102.333 27.9053 102.333 28.3328C102.333 29.2533 103.08 29.9995 104 29.9995C104.921 29.9995 105.667 29.2533 105.667 28.3328C105.667 26.71 104.847 25.3369 103.718 24.322C102.594 23.3113 101.087 22.5729 99.4227 22.1367ZM82.333 33.3334C82.333 32.7681 82.7236 31.9716 83.9646 31.227C85.1724 30.5023 86.9486 30.0001 88.9997 30.0001C91.0507 30.0001 92.8269 30.5023 94.0347 31.227C95.2757 31.9716 95.6663 32.7681 95.6663 33.3334C95.6663 34.2539 96.4125 35.0001 97.333 35.0001C98.2535 35.0001 98.9997 34.2539 98.9997 33.3334C98.9997 31.1373 97.5248 29.4338 95.7497 28.3687C93.9415 27.2838 91.551 26.6667 88.9997 26.6667C86.4484 26.6667 84.0579 27.2838 82.2496 28.3687C80.4746 29.4338 78.9997 31.1373 78.9997 33.3334C78.9997 34.2539 79.7459 35.0001 80.6663 35.0001C81.5868 35.0001 82.333 34.2539 82.333 33.3334ZM82.333 6.66675C78.6511 6.66675 75.6663 9.65152 75.6663 13.3334C75.6663 15.308 76.5269 17.0838 77.8882 18.3022C78.574 18.916 79.6277 18.8577 80.2416 18.1718C80.8554 17.4859 80.7971 16.4322 80.1112 15.8184C79.4266 15.2056 78.9997 14.3205 78.9997 13.3334C78.9997 11.4925 80.4921 10.0001 82.333 10.0001C83.1878 10.0001 83.964 10.3196 84.5548 10.8485C85.2407 11.4623 86.2944 11.404 86.9082 10.7181C87.5221 10.0322 87.4637 8.97856 86.7779 8.36468C85.5995 7.31003 84.0394 6.66675 82.333 6.66675Z" fill="#ACB9D2"/>
<path fill-rule="evenodd" clip-rule="evenodd" d="M22.208 3.33325H10.2497C8.3627 3.33325 6.83301 4.82564 6.83301 6.66659L6.83301 33.3333C6.83301 35.1742 8.3627 36.6666 10.2497 36.6666H30.7497C32.6366 36.6666 34.1663 35.1742 34.1663 33.3333V15.0055C34.1663 15.0037 34.1663 15.0018 34.1663 14.9999C34.1663 14.998 34.1663 14.9962 34.1663 14.9943V14.653C34.1663 13.8133 33.8415 13.0045 33.2567 12.3883L25.677 4.40189C25.0303 3.72057 24.1217 3.33325 23.1699 3.33325H22.208ZM20.4997 6.66659L10.2497 6.66659L10.2497 33.3333H30.7497L30.7497 16.6666L23.9163 16.6666C22.0294 16.6666 20.4997 15.1742 20.4997 13.3333L20.4997 6.66659ZM29.4971 13.3333L23.9163 13.3333V7.45304L29.4971 13.3333ZM28.541 23.8214L25.1243 20.4881C24.4572 19.8372 23.3755 19.8372 22.7084 20.4881C22.0412 21.1389 22.0412 22.1942 22.7084 22.8451L24.9171 24.9999L22.7084 27.1547C22.0412 27.8056 22.0412 28.8609 22.7084 29.5118C23.3755 30.1626 24.4572 30.1626 25.1243 29.5118L28.541 26.1784C29.2081 25.5276 29.2081 24.4723 28.541 23.8214ZM18.291 20.4881C18.9581 21.1389 18.9581 22.1942 18.291 22.8451L16.0823 24.9999L18.291 27.1547C18.9581 27.8056 18.9581 28.8609 18.291 29.5118C17.6238 30.1626 16.5422 30.1626 15.875 29.5118L12.4584 26.1784C12.138 25.8659 11.958 25.4419 11.958 24.9999C11.958 24.5579 12.138 24.134 12.4584 23.8214L15.875 20.4881C16.5422 19.8372 17.6238 19.8372 18.291 20.4881Z" fill="#ACB9D2"/>
</svg>
