<svg width="40" height="40" viewBox="0 0 40 40" fill="none" xmlns="http://www.w3.org/2000/svg">
<path fill-rule="evenodd" clip-rule="evenodd" d="M16.5352 1.666L16.5352 1.666C16.5813 1.6662 16.6251 1.6664 16.6663 1.6664H23.333C23.3742 1.6664 23.418 1.6662 23.4641 1.666L23.4641 1.666L23.4642 1.666C24.189 1.66278 25.4902 1.657 26.5492 2.36298C27.4919 2.99143 28.0007 3.96395 28.2125 5.16126C30.5339 5.44531 32.6102 6.15694 34.1377 7.80807C35.9601 9.77797 36.6663 12.7247 36.6663 16.667V26.667C36.6663 30.0298 36.2748 33.0978 34.379 35.2645C32.4349 37.4862 29.31 38.3336 24.9997 38.3336H14.9997C10.6893 38.3336 7.56441 37.4862 5.62038 35.2645C3.72452 33.0978 3.33301 30.0298 3.33301 26.667V16.667C3.33301 12.7319 4.03974 9.78647 5.86087 7.81517C7.3878 6.16233 9.46367 5.44691 11.7868 5.16161C11.9986 3.96413 12.5074 2.99149 13.4502 2.36298C14.5091 1.657 15.8103 1.66278 16.5352 1.666ZM11.8575 8.51546C10.1442 8.76844 9.04543 9.28026 8.30931 10.0771C7.35128 11.1141 6.66634 13.002 6.66634 16.667V26.667C6.66634 29.9708 7.10816 31.9028 8.12897 33.0695C9.1016 34.181 10.9767 35.0003 14.9997 35.0003H24.9997C29.0226 35.0003 30.8977 34.181 31.8704 33.0695C32.8912 31.9028 33.333 29.9708 33.333 26.667V16.667C33.333 12.9926 32.6476 11.1059 31.6908 10.0717C30.9626 9.28452 29.8789 8.77725 28.1933 8.5226C28.0936 8.97922 27.9241 9.451 27.6364 9.88256C26.7615 11.1949 25.2198 11.6664 23.333 11.6664H16.6663C16.6251 11.6664 16.5813 11.6666 16.5352 11.6668C15.8103 11.67 14.5091 11.6758 13.4502 10.9698C12.5995 10.4027 12.1021 9.55534 11.8575 8.51546ZM24.9997 6.6895C24.9997 6.68184 24.9997 6.67414 24.9997 6.6664C24.9997 5.95705 24.9089 5.55516 24.8265 5.34339C24.7568 5.16398 24.7015 5.13714 24.7002 5.13649L24.7002 5.13648C24.6747 5.11947 24.5843 5.07021 24.3367 5.03719C24.0755 5.00236 23.7729 4.99973 23.333 4.99973H16.6663C16.2264 4.99973 15.9239 5.00236 15.6627 5.03719C15.4151 5.07021 15.3247 5.11947 15.2992 5.13648L15.2992 5.13649C15.2978 5.13714 15.2426 5.16398 15.1728 5.34339C15.0905 5.55516 14.9997 5.95705 14.9997 6.6664C14.9997 7.37574 15.0905 7.77763 15.1728 7.9894C15.2426 8.16881 15.2978 8.19565 15.2992 8.1963L15.2992 8.19631C15.3247 8.21332 15.4151 8.26259 15.6627 8.2956C15.9239 8.33043 16.2264 8.33306 16.6663 8.33306H23.333C24.0424 8.33306 24.4442 8.24228 24.656 8.15993C24.8354 8.09017 24.8623 8.03494 24.8629 8.03359L24.8629 8.03356C24.8799 8.00805 24.9292 7.91768 24.9622 7.67008C24.9958 7.41814 24.9994 7.12775 24.9997 6.71273M17.911 19.1546C17.2602 18.5037 16.2049 18.5037 15.554 19.1546C14.9031 19.8054 14.9031 20.8607 15.554 21.5116L17.6761 23.6336L15.4878 25.8218C14.837 26.4727 14.837 27.528 15.4878 28.1789C16.1387 28.8297 17.194 28.8297 17.8449 28.1789L20.0331 25.9906L22.154 28.1116C22.8049 28.7624 23.8602 28.7624 24.511 28.1116C25.1619 27.4607 25.1619 26.4054 24.511 25.7546L22.3901 23.6336L24.4449 21.5789C25.0957 20.928 25.0957 19.8727 24.4449 19.2218C23.794 18.571 22.7387 18.571 22.0878 19.2218L20.0331 21.2766L17.911 19.1546Z" fill="#EE5E5E"/>
</svg>
