<?xml version="1.0" encoding="UTF-8"?>
<svg width="40px" height="40px" viewBox="0 0 40 40" version="1.1" xmlns="http://www.w3.org/2000/svg" xmlns:xlink="http://www.w3.org/1999/xlink">
    <!-- Generator: Sketch 52.6 (67491) - http://www.bohemiancoding.com/sketch -->
    <title>Group 25</title>
    <desc>Created with Sketch.</desc>
    <g id="Website" stroke="none" stroke-width="1" fill="none" fill-rule="evenodd">
        <g id="1.6--Pricing" transform="translate(-1157.000000, -1512.000000)">
            <g id="Group-12" transform="translate(155.000000, 1511.000000)">
                <g id="Group-5">
                    <g id="Group-25" transform="translate(1002.000000, 1.000000)">
                        <rect id="Rectangle" fill="#F5A393" x="0" y="0" width="40" height="40" rx="7"></rect>
                        <g id="smile-(1)" transform="translate(8.000000, 7.000000)" fill="#FFFFFF" fill-rule="nonzero">
                            <path d="M12,0 C5.3832,0 0,5.3832 0,12 C0,18.6168 5.3832,24 12,24 C18.6168,24 24,18.6168 24,12 C24,5.3832 18.6168,0 12,0 Z M12,21.8181818 C6.58625455,21.8181818 2.18181818,17.4137455 2.18181818,12 C2.18181818,6.58625455 6.58625455,2.18181818 12,2.18181818 C17.4137455,2.18181818 21.8181818,6.58625455 21.8181818,12 C21.8181818,17.4137455 17.4137455,21.8181818 12,21.8181818 Z" id="XMLID_93_"></path>
                            <path d="M14.9313455,14.9312727 C13.3149091,16.5475636 10.6850909,16.5476364 9.06872727,14.9313455 C8.64276364,14.5053091 7.952,14.5053091 7.52596364,14.9313455 C7.09992727,15.3573818 7.09992727,16.0480727 7.52596364,16.4741091 C8.75963636,17.7077818 10.3794909,18.3243636 12.0000727,18.3243636 C13.6201455,18.3243636 15.2408,17.7074909 16.4741818,16.4741091 C16.9002182,16.0481455 16.9002182,15.3573818 16.4741818,14.9313455 C16.0480727,14.5052364 15.3573091,14.5053091 14.9313455,14.9312727 Z" id="XMLID_104_"></path>
                            <path d="M8.37381818,10.7010909 C8.64509091,10.4305455 8.8,10.0552727 8.8,9.67272727 C8.8,9.29018182 8.64509091,8.91490909 8.37381818,8.64436364 C8.10327273,8.37381818 7.728,8.21818182 7.34545455,8.21818182 C6.96210909,8.21818182 6.58763636,8.37381818 6.31701818,8.64436364 C6.04581818,8.91490909 5.89090909,9.29018182 5.89090909,9.67272727 C5.89090909,10.0552727 6.04581818,10.4305455 6.31701818,10.7010909 C6.58763636,10.9723636 6.96290909,11.1272727 7.34545455,11.1272727 C7.728,11.1272727 8.10327273,10.9723636 8.37381818,10.7010909 Z" id="XMLID_105_"></path>
                            <path d="M16.6545455,8.21818182 C16.272,8.21818182 15.8967273,8.37381818 15.6261091,8.64436364 C15.3556364,8.91490909 15.2,9.28945455 15.2,9.67272727 C15.2,10.056 15.3556364,10.4305455 15.6261091,10.7010909 C15.8967273,10.9723636 16.272,11.1272727 16.6545455,11.1272727 C17.0370909,11.1272727 17.4123636,10.9723636 17.6829091,10.7010909 C17.9534545,10.4305455 18.1090909,10.056 18.1090909,9.67272727 C18.1090909,9.29018182 17.9533818,8.91490909 17.6829091,8.64436364 C17.4123636,8.37381818 17.0370909,8.21818182 16.6545455,8.21818182 Z" id="XMLID_106_"></path>
                        </g>
                    </g>
                </g>
            </g>
        </g>
    </g>
</svg>