<?xml version="1.0" encoding="UTF-8"?>
<svg width="40px" height="40px" viewBox="0 0 40 40" version="1.1" xmlns="http://www.w3.org/2000/svg" xmlns:xlink="http://www.w3.org/1999/xlink">
    <!-- Generator: Sketch 52.6 (67491) - http://www.bohemiancoding.com/sketch -->
    <title>Group 27</title>
    <desc>Created with Sketch.</desc>
    <g id="Website" stroke="none" stroke-width="1" fill="none" fill-rule="evenodd">
        <g id="1.6--Pricing" transform="translate(-849.000000, -1791.000000)">
            <g id="Group-12" transform="translate(155.000000, 1511.000000)">
                <g id="Group-6" transform="translate(0.000000, 280.000000)">
                    <g id="Group-27" transform="translate(694.000000, 0.000000)">
                        <rect id="Rectangle" fill="#7CE0AD" x="0" y="0" width="40" height="40" rx="7"></rect>
                        <g id="color-palette-outline" transform="translate(8.000000, 9.000000)" fill="#FFFFFF" fill-rule="nonzero">
                            <path d="M21.1885714,3.52 C18.873731,1.22146965 15.7303932,-0.0474006441 12.4685714,-2.3853532e-14 C6.15674572,-0.0157795643 1.02720814,5.08817429 1.01142857,11.4 C0.995649007,17.7118257 6.09960286,22.8413633 12.4114286,22.8571429 C13.7547898,22.8799914 14.9437284,21.9918119 15.3028571,20.6971429 C15.5288205,19.7742915 15.285091,18.7993735 14.6514286,18.0914286 C14.5040564,17.9237058 14.4678668,17.6855126 14.5587733,17.4815874 C14.6496797,17.2776621 14.8510298,17.1453601 15.0742857,17.1428571 L16.96,17.1428571 C20.6416471,17.1600713 23.712689,14.3333168 24,10.6628571 C24.0859273,7.99643288 23.0688945,5.41250813 21.1885714,3.52 Z M17.0057143,14.8571429 L15.12,14.8571429 C13.9948749,14.8507719 12.9716365,15.5079205 12.5094037,16.5337313 C12.0471709,17.5595421 12.2327437,18.761384 12.9828571,19.6 C13.1285327,19.7469871 13.1812703,19.9623323 13.12,20.16 C13.0628571,20.4 12.8,20.5485714 12.4457143,20.5714286 C9.82011025,20.5377763 7.33571728,19.3768658 5.62541603,17.3844304 C3.91511477,15.3919951 3.1440233,12.7603911 3.50857143,10.16 C4.18145938,5.70017653 7.97057315,2.37444482 12.48,2.28571429 L12.5714286,2.28571429 C15.1823991,2.25152975 17.6964394,3.27363137 19.5428571,5.12 C20.9841067,6.56215495 21.7692567,8.53329478 21.7142857,10.5714286 C21.4692314,12.9926753 19.4392723,14.8403322 17.0057143,14.8571429 Z" id="Shape"></path>
                            <circle id="Oval" cx="12.5714286" cy="5.14285714" r="1.71428571"></circle>
                            <path d="M16.2857143,5.94285714 C15.4661101,6.4163128 15.1853232,7.46443309 15.6584752,8.28421259 C16.1316273,9.10399209 17.1796435,9.38516717 17.9995982,8.91231876 C18.8195529,8.43947034 19.1011161,7.39155833 18.6285714,6.57142857 C18.4014233,6.17719925 18.0268724,5.88944008 17.5874266,5.77153999 C17.1479807,5.65363989 16.679691,5.71527108 16.2857143,5.94285714 Z" id="Path"></path>
                            <path d="M8.85714286,5.94285714 C8.0370131,5.47031245 6.98910109,5.75187566 6.51625267,6.57183035 C6.04340426,7.39178503 6.32457934,8.43980125 7.14435884,8.91295332 C7.96413833,9.3861054 9.01225862,9.10531849 9.48571429,8.28571429 C9.71330035,7.89173759 9.77493154,7.42344783 9.65703144,6.98400202 C9.53913135,6.54455621 9.25137218,6.17000532 8.85714286,5.94285714 Z" id="Path"></path>
                            <path d="M5.89714286,10.5828571 C5.32211623,10.9711249 5.03783289,11.6677239 5.177006,12.3474579 C5.31617911,13.027192 5.85136184,13.5560082 6.53271263,13.6870372 C7.21406342,13.8180662 7.9072106,13.5254672 8.28856943,12.9458355 C8.66992827,12.3662038 8.66428958,11.6138506 8.27428571,11.04 C8.02123198,10.6622266 7.62760392,10.4013482 7.18108902,10.31548 C6.73457412,10.2296117 6.27226277,10.3258864 5.89714286,10.5828571 Z" id="Path"></path>
                        </g>
                    </g>
                </g>
            </g>
        </g>
    </g>
</svg>