<?xml version="1.0" encoding="UTF-8"?>
<svg width="40px" height="40px" viewBox="0 0 40 40" version="1.1" xmlns="http://www.w3.org/2000/svg" xmlns:xlink="http://www.w3.org/1999/xlink">
    <!-- Generator: Sketch 52.6 (67491) - http://www.bohemiancoding.com/sketch -->
    <title>Group 18</title>
    <desc>Created with Sketch.</desc>
    <g id="Website" stroke="none" stroke-width="1" fill="none" fill-rule="evenodd">
        <g id="1.6--Pricing" transform="translate(-543.000000, -1512.000000)">
            <g id="Group-12" transform="translate(155.000000, 1511.000000)">
                <g id="Group-5">
                    <g id="Group-18" transform="translate(388.000000, 1.000000)">
                        <rect id="Rectangle" fill="#EFC559" x="0" y="0" width="40" height="40" rx="7"></rect>
                        <g id="message-circle-outline" transform="translate(8.000000, 7.000000)" fill="#FFFFFF" fill-rule="nonzero">
                            <circle id="Oval" cx="12" cy="12" r="1.16363636"></circle>
                            <circle id="Oval" cx="16.6545455" cy="12" r="1.16363636"></circle>
                            <circle id="Oval" cx="7.34545455" cy="12" r="1.16363636"></circle>
                            <path d="M20.2269091,3.77309091 C16.2882815,-0.191253583 10.0877044,-0.795975539 5.45732163,2.33266147 C0.826938856,5.46129849 -0.92556554,11.4397242 1.28290909,16.5730909 C1.39449067,16.8043791 1.43110201,17.0647265 1.38763636,17.3178182 L0.363636364,22.24 C0.283495485,22.6233505 0.401568632,23.0213008 0.677818182,23.2989091 C0.903090149,23.5225473 1.2099462,23.644449 1.52727273,23.6363636 L1.76,23.6363636 L6.74036364,22.6356364 C6.99348927,22.6052029 7.25017589,22.6412994 7.48509091,22.7403636 C12.6184576,24.9488383 18.5968833,23.1963339 21.7255203,18.5659511 C24.8541574,13.9355683 24.2494354,7.73499119 20.2850909,3.79636364 L20.2269091,3.77309091 Z M21.1927273,13.5010909 C20.731778,16.3160272 19.0057271,18.7642621 16.5092655,20.1441245 C14.0128039,21.5239869 11.0215212,21.683151 8.39272727,20.576 C7.93255939,20.3802657 7.4382323,20.2774456 6.93818182,20.2734545 C6.71974353,20.2749837 6.50179944,20.294443 6.28654545,20.3316364 L3.00509091,20.9949091 L3.66836364,17.7134545 C3.80046543,17.0027913 3.71530752,16.2688112 3.424,15.6072727 C2.31684898,12.9784788 2.47601312,9.98719607 3.85587551,7.4907345 C5.23573791,4.99427292 7.68397278,3.26822197 10.4989091,2.80727273 C13.4575608,2.32170532 16.4689789,3.29088054 18.5890492,5.4109508 C20.7091195,7.53102107 21.6782947,10.5424392 21.1927273,13.5010909 Z" id="Shape"></path>
                        </g>
                    </g>
                </g>
            </g>
        </g>
    </g>
</svg>