<?xml version="1.0" encoding="UTF-8"?>
<svg width="40px" height="32px" viewBox="0 0 40 32" version="1.1" xmlns="http://www.w3.org/2000/svg" xmlns:xlink="http://www.w3.org/1999/xlink">
    <!-- Generator: Sketch 52.6 (67491) - http://www.bohemiancoding.com/sketch -->
    <title>users-alt (1)</title>
    <desc>Created with Sketch.</desc>
    <g id="Landing-3" stroke="none" stroke-width="1" fill="none" fill-rule="evenodd">
        <g id="1.6--Pricing" transform="translate(-792.000000, -2800.000000)" fill="#1C3C55" fill-rule="nonzero">
            <g id="Group-11" transform="translate(-38.000000, 2233.000000)">
                <g id="Group-9">
                    <g id="Group-6" transform="translate(830.000000, 567.000000)">
                        <g id="users-alt-(1)">
                            <path d="M20.0888889,16.3911111 C22.0082652,14.7296914 23.1111389,12.3163445 23.1111111,9.77777778 C23.1111111,4.86858 19.13142,0.888888889 14.2222222,0.888888889 C9.31302445,0.888888889 5.33333333,4.86858 5.33333333,9.77777778 C5.33330559,12.3163445 6.43617921,14.7296914 8.35555556,16.3911111 C3.27278393,18.6926897 0.00534417796,23.7537453 -8.8817842e-16,29.3333333 C-6.90805438e-16,30.3151729 0.795938223,31.1111111 1.77777778,31.1111111 C2.75961733,31.1111111 3.55555556,30.3151729 3.55555556,29.3333333 C3.55555556,23.442296 8.33118489,18.6666667 14.2222222,18.6666667 C20.1132596,18.6666667 24.8888889,23.442296 24.8888889,29.3333333 C24.8888889,30.3151729 25.6848271,31.1111111 26.6666667,31.1111111 C27.6485062,31.1111111 28.4444444,30.3151729 28.4444444,29.3333333 C28.4391003,23.7537453 25.1716605,18.6926897 20.0888889,16.3911111 Z M14.2222222,15.1111111 C11.2767036,15.1111111 8.88888889,12.7232964 8.88888889,9.77777778 C8.88888889,6.83225911 11.2767036,4.44444444 14.2222222,4.44444444 C17.1677409,4.44444444 19.5555556,6.83225911 19.5555556,9.77777778 C19.5555556,11.1922657 18.9936524,12.5488199 17.9934584,13.5490139 C16.9932644,14.549208 15.6367102,15.1111111 14.2222222,15.1111111 Z M31.5377778,15.68 C33.8617918,13.0629204 34.4337018,9.32565163 32.9986932,6.13333315 C31.5636847,2.94101466 28.3889097,0.887952776 24.8888889,0.888888889 C23.9070493,0.888888889 23.1111111,1.68482711 23.1111111,2.66666667 C23.1111111,3.64850622 23.9070493,4.44444444 24.8888889,4.44444444 C27.8344076,4.44444444 30.2222222,6.83225911 30.2222222,9.77777778 C30.2171025,11.6780628 29.2012606,13.4320832 27.5555556,14.3822222 C27.0195696,14.6913901 26.682893,15.2570069 26.6666667,15.8755556 C26.6515468,16.4891111 26.9539685,17.0670727 27.4666667,17.4044444 L28.16,17.8666667 L28.3911111,17.9911111 C32.7663559,20.0662865 35.5405057,24.4910556 35.5022222,29.3333333 C35.5022222,30.3151729 36.2981604,31.1111111 37.28,31.1111111 C38.2618396,31.1111111 39.0577778,30.3151729 39.0577778,29.3333333 C39.0873259,23.7863633 36.2417112,18.6198571 31.5377778,15.68 Z" id="Shape"></path>
                        </g>
                    </g>
                </g>
            </g>
        </g>
    </g>
</svg>