<svg width="28" height="28" viewBox="0 0 28 28" fill="none" xmlns="http://www.w3.org/2000/svg">
<path d="M18.6667 24.5V23.5V24.5ZM4.66667 24.5L4.66667 25.5L4.66667 24.5ZM3.5 23.3333L4.5 23.3333V23.3333H3.5ZM3.5 12.8333L3.5 11.8333C2.94772 11.8333 2.5 12.281 2.5 12.8333L3.5 12.8333ZM18.6667 12.8333V11.8333V12.8333ZM19.8333 14L20.8333 14L19.8333 14ZM19.8333 23.3333L18.8333 23.3333L19.8333 23.3333ZM18.6667 23.5L4.66667 23.5L4.66667 25.5L18.6667 25.5V23.5ZM4.5 23.3333L4.5 12.8333L2.5 12.8333L2.5 23.3333H4.5ZM3.5 13.8333L18.6667 13.8333V11.8333L3.5 11.8333L3.5 13.8333ZM18.6667 13.8333C18.7587 13.8333 18.8333 13.9079 18.8333 14L20.8333 14C20.8333 12.8034 19.8633 11.8333 18.6667 11.8333V13.8333ZM4.66667 23.5C4.57462 23.5 4.5 23.4254 4.5 23.3333L2.5 23.3333C2.5 24.5299 3.47005 25.5 4.66667 25.5L4.66667 23.5ZM18.6667 25.5C19.8633 25.5 20.8333 24.5299 20.8333 23.3333L18.8333 23.3333C18.8333 23.4254 18.7587 23.5 18.6667 23.5V25.5ZM18.8333 14L18.8333 23.3333L20.8333 23.3333V14L18.8333 14Z" fill="#009CB7"/>
<path d="M8.16699 5.83331L8.16699 4.83331C7.61471 4.83331 7.16699 5.28103 7.16699 5.83331L8.16699 5.83331ZM23.3337 5.83331V4.83331V5.83331ZM24.5003 6.99998L23.5003 6.99998V6.99998H24.5003ZM24.5003 16.3333L25.5003 16.3333V16.3333H24.5003ZM23.3337 17.5V16.5V17.5ZM19.8337 16.5C19.2814 16.5 18.8337 16.9477 18.8337 17.5C18.8337 18.0523 19.2814 18.5 19.8337 18.5V16.5ZM7.16699 10.5C7.16699 11.0523 7.61471 11.5 8.16699 11.5C8.71928 11.5 9.16699 11.0523 9.16699 10.5H7.16699ZM8.16699 6.83331L23.3337 6.83331V4.83331L8.16699 4.83331L8.16699 6.83331ZM23.3337 16.5H19.8337V18.5H23.3337V16.5ZM9.16699 10.5L9.16699 5.83331L7.16699 5.83331L7.16699 10.5H9.16699ZM23.3337 6.83331C23.4257 6.83331 23.5003 6.90793 23.5003 6.99998L25.5003 6.99998C25.5003 5.80336 24.5303 4.83331 23.3337 4.83331V6.83331ZM23.5003 16.3333C23.5003 16.4254 23.4257 16.5 23.3337 16.5V18.5C24.5303 18.5 25.5003 17.5299 25.5003 16.3333L23.5003 16.3333ZM23.5003 6.99998V16.3333H25.5003V6.99998H23.5003Z" fill="#009CB7"/>
<path d="M11.6667 12.8333L10.2022 10.9504C9.98113 10.6662 9.64128 10.5 9.28125 10.5H4.66667C4.02233 10.5 3.5 11.0223 3.5 11.6667V12.8333" stroke="#009CB7" stroke-width="2" stroke-linecap="round" stroke-linejoin="round"/>
<path d="M16.3337 5.83333L14.8692 3.9504C14.6481 3.66622 14.3083 3.5 13.9482 3.5H9.33366C8.68933 3.5 8.16699 4.02233 8.16699 4.66667V5.83333" stroke="#009CB7" stroke-width="2" stroke-linecap="round" stroke-linejoin="round"/>
</svg>
