<svg width="32" height="32" viewBox="0 0 32 32" fill="none" xmlns="http://www.w3.org/2000/svg">
<path fill-rule="evenodd" clip-rule="evenodd" d="M16 5.33301C12.0066 5.33301 8.52816 7.52749 6.70062 10.7715C2.89979 11.3927 0 14.6904 0 18.6663C0 23.0846 3.58172 26.6663 8 26.6663H25.3333C29.0152 26.6663 32 23.6816 32 19.9997C32 16.6634 29.5493 13.8995 26.3498 13.41C25.1922 8.77005 20.9985 5.33301 16 5.33301ZM8.76334 12.5841C10.0462 9.87161 12.8058 7.99967 16 7.99967C20.0294 7.99967 23.365 10.9798 23.919 14.8558C24.0142 15.5214 24.5899 16.012 25.2621 16.0003C25.286 15.9999 25.3097 15.9997 25.3333 15.9997C27.5425 15.9997 29.3333 17.7905 29.3333 19.9997C29.3333 22.2088 27.5425 23.9997 25.3333 23.9997H8C5.05448 23.9997 2.66667 21.6119 2.66667 18.6663C2.66667 15.8402 4.86569 13.5265 7.64509 13.3446C8.12827 13.313 8.55632 13.0219 8.76334 12.5841ZM20.9428 15.6091C21.4635 15.0885 21.4635 14.2442 20.9428 13.7235C20.4221 13.2028 19.5779 13.2028 19.0572 13.7235L14.6667 18.1141L12.9428 16.3902C12.4221 15.8695 11.5779 15.8695 11.0572 16.3902C10.5365 16.9109 10.5365 17.7551 11.0572 18.2758L13.7239 20.9425C14.2446 21.4632 15.0888 21.4632 15.6095 20.9425L20.9428 15.6091Z" fill="#417BD2"/>
</svg>
