<svg width="157" height="157" viewBox="0 0 157 157" fill="none" xmlns="http://www.w3.org/2000/svg">
<g filter="url(#filter0_d)">
<rect x="30" y="21" width="97" height="97" rx="25" fill="white"/>
</g>
<path d="M72.2773 76.4011V87.2641C72.2773 89.2647 73.913 90.8868 75.9319 90.8868H92.4938L100.032 97V90.8868H103.344C105.363 90.8868 106.999 89.2647 106.999 87.2641V65.3018C106.999 63.3013 105.363 61.6792 103.344 61.6792H86.2168L72.2773 76.4011Z" fill="url(#paint0_linear)"/>
<g filter="url(#filter1_d)">
<path d="M69.4717 48.3285C59.7184 48.3285 51.8115 56.2354 51.8115 65.9887C51.8115 69.8696 53.0642 73.4572 55.186 76.3716L53.009 81.1545L58.3968 79.7461V79.7439C61.4259 82.1861 65.2779 83.6493 69.4717 83.6493C79.2254 83.6493 87.1323 75.7423 87.1323 65.9887C87.1323 56.2354 79.2254 48.3285 69.4717 48.3285Z" fill="url(#paint1_linear)"/>
</g>
<path fill-rule="evenodd" clip-rule="evenodd" d="M92.5834 69.9954L93.7955 69.9941L98.5986 82.7212L95.9747 83.7114L94.8343 80.69H92.5834L92.5834 80.6899V80.6904H90.3409L89.1892 83.7142L86.5684 82.7161L91.4125 69.997L92.5833 69.9958L92.5834 69.9954ZM92.5834 74.8019V74.8024L91.4091 77.8859H92.3129L92.3131 77.8854H93.776L92.598 74.7638L92.5834 74.8019L92.5834 74.8019Z" fill="white"/>
<path fill-rule="evenodd" clip-rule="evenodd" d="M69.3985 64.0214H67.3377C67.5349 65.5826 68.2364 66.9465 69.3985 68.0153V68.0183L69.3992 68.0152C70.5613 66.9466 71.2628 65.5827 71.46 64.0215H69.3992L69.3985 64.0168V64.0214ZM69.3985 58.3954V58.3896H68.0092V61.2428H62.0487V64.0214H64.5425C64.7343 66.1045 65.573 68.0022 66.9672 69.5127C65.7631 69.9908 64.3817 70.2452 62.9033 70.2452H61.873V73.0238H62.9033C65.3171 73.0238 67.5591 72.4646 69.3985 71.4249V71.4216L69.3992 71.4249C71.2386 72.4646 73.4805 73.0238 75.8944 73.0238V70.2452C74.416 70.2452 73.0345 69.9908 71.8305 69.5127C73.2247 68.0022 74.0634 66.1045 74.2552 64.0214H76.749V61.2429H70.7885V58.3897H69.3992L69.3985 58.3954Z" fill="white"/>
<path d="M97.801 61.7888V62.6068C97.801 64.4668 96.2909 65.9745 94.4288 65.9745C92.5667 65.9745 91.0566 64.4668 91.0566 62.6068V61.7888H97.801Z" fill="#48578B"/>
<path d="M102.859 49.4196C102.859 51.4752 102.122 53.3585 100.897 54.8199C99.8603 56.0569 99.303 57.6251 99.303 59.2387L94.4297 59.9216L89.5563 59.2387C89.5563 57.6251 88.999 56.0564 87.9622 54.8194C86.7374 53.3575 86 51.4752 86 49.4201C85.9995 44.7672 89.7506 41.0107 94.4091 41H94.4297C99.0857 41 102.859 44.7696 102.859 49.4196Z" fill="url(#paint2_linear)"/>
<path d="M89.5566 59.2386H99.3034V62.6068H89.5566V59.2386Z" fill="#5183BB"/>
<path d="M93 59V51.5C93 50.6716 93.6716 50 94.5 50V50C95.3284 50 96 50.6716 96 51.5V59" stroke="white"/>
<defs>
<filter id="filter0_d" x="0" y="0" width="157" height="157" filterUnits="userSpaceOnUse" color-interpolation-filters="sRGB">
<feFlood flood-opacity="0" result="BackgroundImageFix"/>
<feColorMatrix in="SourceAlpha" type="matrix" values="0 0 0 0 0 0 0 0 0 0 0 0 0 0 0 0 0 0 127 0" result="hardAlpha"/>
<feOffset dy="9"/>
<feGaussianBlur stdDeviation="15"/>
<feColorMatrix type="matrix" values="0 0 0 0 0.593438 0 0 0 0 0.707729 0 0 0 0 0.879167 0 0 0 0.25 0"/>
<feBlend mode="normal" in2="BackgroundImageFix" result="effect1_dropShadow"/>
<feBlend mode="normal" in="SourceGraphic" in2="effect1_dropShadow" result="shape"/>
</filter>
<filter id="filter1_d" x="49.8115" y="46.3285" width="43.3208" height="43.3208" filterUnits="userSpaceOnUse" color-interpolation-filters="sRGB">
<feFlood flood-opacity="0" result="BackgroundImageFix"/>
<feColorMatrix in="SourceAlpha" type="matrix" values="0 0 0 0 0 0 0 0 0 0 0 0 0 0 0 0 0 0 127 0" result="hardAlpha"/>
<feOffset dx="2" dy="2"/>
<feGaussianBlur stdDeviation="2"/>
<feColorMatrix type="matrix" values="0 0 0 0 0.0846528 0 0 0 0 0.150363 0 0 0 0 0.383333 0 0 0 0.25 0"/>
<feBlend mode="normal" in2="BackgroundImageFix" result="effect1_dropShadow"/>
<feBlend mode="normal" in="SourceGraphic" in2="effect1_dropShadow" result="shape"/>
</filter>
<linearGradient id="paint0_linear" x1="89.6384" y1="61.6792" x2="89.6384" y2="97" gradientUnits="userSpaceOnUse">
<stop stop-color="#B0E7C6"/>
<stop offset="1" stop-color="#5DD1B3"/>
</linearGradient>
<linearGradient id="paint1_linear" x1="69.4719" y1="48.3285" x2="69.4719" y2="83.6493" gradientUnits="userSpaceOnUse">
<stop stop-color="#85BEFF"/>
<stop offset="1" stop-color="#5183BB"/>
</linearGradient>
<linearGradient id="paint2_linear" x1="94.4297" y1="45.6232" x2="94.4297" y2="59.9216" gradientUnits="userSpaceOnUse">
<stop stop-color="#FFED49"/>
<stop offset="1" stop-color="#FFC369"/>
</linearGradient>
</defs>
</svg>
