<svg width="44" height="44" viewBox="0 0 44 44" fill="none" xmlns="http://www.w3.org/2000/svg">
<path d="M37.5564 6.44359C33.4012 2.28834 27.8764 0 22 0C16.1236 0 10.5988 2.28834 6.44359 6.44359C2.28834 10.5988 0 16.1236 0 22C0 27.8764 2.28843 33.4011 6.44359 37.5564C10.5988 41.7117 16.1236 44 22 44C27.8764 44 33.4012 41.7117 37.5564 37.5564C41.7117 33.4012 44 27.8764 44 22C44 16.1236 41.7116 10.5989 37.5564 6.44359ZM22 20.625C25.4118 20.625 28.1875 23.4007 28.1875 26.8125C28.1875 29.6379 26.2834 32.0254 23.6914 32.7631C23.5052 32.8161 23.375 32.9836 23.375 33.1772V34.3362C23.375 35.0766 22.806 35.7136 22.0664 35.7485C21.2768 35.7856 20.625 35.1564 20.625 34.375V33.1769C20.625 32.9838 20.4956 32.8163 20.3099 32.7634C17.729 32.0295 15.8298 29.66 15.8126 26.8509C15.808 26.1011 16.3976 25.4596 17.1471 25.4381C17.9249 25.4158 18.5625 26.0397 18.5625 26.8125C18.5625 28.7892 20.2397 30.3817 22.2457 30.2414C23.939 30.1231 25.3107 28.7513 25.4289 27.058C25.569 25.052 23.9766 23.375 22 23.375C18.5882 23.375 15.8125 20.5993 15.8125 17.1875C15.8125 14.3621 17.7166 11.9746 20.3086 11.2369C20.4948 11.1839 20.625 11.0164 20.625 10.8228V9.66384C20.625 8.92341 21.194 8.28635 21.9336 8.25155C22.7233 8.21442 23.375 8.84357 23.375 9.625V10.8231C23.375 11.0162 23.5044 11.1837 23.6901 11.2366C26.271 11.9705 28.1702 14.34 28.1874 17.1491C28.192 17.8989 27.6024 18.5404 26.8529 18.5619C26.0751 18.5842 25.4375 17.9603 25.4375 17.1875C25.4375 15.2108 23.7603 13.6183 21.7543 13.7586C20.061 13.8769 18.6893 15.2487 18.5711 16.942C18.431 18.948 20.0234 20.625 22 20.625Z" fill="url(#paint0_linear)"/>
<defs>
<linearGradient id="paint0_linear" x1="22" y1="0" x2="22" y2="44" gradientUnits="userSpaceOnUse">
<stop stop-color="#B0E7C6"/>
<stop offset="1" stop-color="#5DD1B3"/>
</linearGradient>
</defs>
</svg>
