<svg fill="none" height="68" viewBox="0 0 93 68" width="93" xmlns="http://www.w3.org/2000/svg" xmlns:xlink="http://www.w3.org/1999/xlink"><filter id="a" color-interpolation-filters="sRGB" filterUnits="userSpaceOnUse" height="27.7471" width="27.4106" x="65.415" y="10.8857"><feFlood flood-opacity="0" result="BackgroundImageFix"/><feColorMatrix in="SourceAlpha" result="hardAlpha" type="matrix" values="0 0 0 0 0 0 0 0 0 0 0 0 0 0 0 0 0 0 127 0"/><feOffset dx="2" dy="2"/><feGaussianBlur stdDeviation="2"/><feColorMatrix type="matrix" values="0 0 0 0 0.0846528 0 0 0 0 0.150363 0 0 0 0 0.383333 0 0 0 0.25 0"/><feBlend in2="BackgroundImageFix" mode="normal" result="effect1_dropShadow_704_22111"/><feBlend in="SourceGraphic" in2="effect1_dropShadow_704_22111" mode="normal" result="shape"/></filter><filter id="b" color-interpolation-filters="sRGB" filterUnits="userSpaceOnUse" height="27.7471" width="27.7454" x="53.3674" y="0"><feFlood flood-opacity="0" result="BackgroundImageFix"/><feColorMatrix in="SourceAlpha" result="hardAlpha" type="matrix" values="0 0 0 0 0 0 0 0 0 0 0 0 0 0 0 0 0 0 127 0"/><feOffset dx="2" dy="2"/><feGaussianBlur stdDeviation="2"/><feColorMatrix type="matrix" values="0 0 0 0 0.0846528 0 0 0 0 0.150363 0 0 0 0 0.383333 0 0 0 0.25 0"/><feBlend in2="BackgroundImageFix" mode="normal" result="effect1_dropShadow_704_22111"/><feBlend in="SourceGraphic" in2="effect1_dropShadow_704_22111" mode="normal" result="shape"/></filter><linearGradient id="c"><stop offset="0" stop-color="#85beff"/><stop offset="1" stop-color="#5183bb"/></linearGradient><linearGradient id="d" gradientUnits="userSpaceOnUse" x1="19.1685" x2="19.1685" xlink:href="#c" y1="16.3545" y2="23.3602"/><linearGradient id="e"><stop offset="0" stop-color="#b0e7c6"/><stop offset="1" stop-color="#5dd1b3"/></linearGradient><linearGradient id="f" gradientUnits="userSpaceOnUse" x1="32.3516" x2="32.3516" xlink:href="#e" y1="16.3545" y2="23.3602"/><linearGradient id="g" gradientUnits="userSpaceOnUse" x1="45.5362" x2="45.5362" xlink:href="#c" y1="16.3545" y2="23.3602"/><linearGradient id="h" gradientUnits="userSpaceOnUse" x1="19.1685" x2="19.1685" xlink:href="#e" y1="29.5391" y2="36.545"/><linearGradient id="i" gradientUnits="userSpaceOnUse" x1="32.3516" x2="32.3516" xlink:href="#c" y1="29.5391" y2="36.545"/><linearGradient id="j" gradientUnits="userSpaceOnUse" x1="45.5362" x2="45.5362" y1="31.2509" y2="36.545"><stop offset="0" stop-color="#ffed49"/><stop offset="1" stop-color="#ffc369"/></linearGradient><linearGradient id="k" gradientUnits="userSpaceOnUse" x1="58.7198" x2="58.7198" xlink:href="#e" y1="29.5391" y2="36.545"/><linearGradient id="l" gradientUnits="userSpaceOnUse" x1="77.1204" x2="77.1204" xlink:href="#e" y1="12.8857" y2="32.6328"/><linearGradient id="m" gradientUnits="userSpaceOnUse" x1="65.2401" x2="65.2401" y1="2" y2="21.7471"><stop offset="0" stop-color="#bbdbfe"/><stop offset="1" stop-color="#84b9f2"/></linearGradient><linearGradient id="n" gradientUnits="userSpaceOnUse" x1="73.0815" x2="73.0815" xlink:href="#e" y1="37.6929" y2="51.2238"/><path d="m80.9267 66.4617h-79.84631c-.617364 0-1.08039.3662-1.08039.769 0 .4395.514473.7691 1.08039.7691h79.79481c.6174 0 1.0804-.3662 1.0804-.7691.0515-.4028-.463-.769-1.0289-.769z" fill="#d7f1f9"/><path d="m65.5577 7.78418h-53.3503c-3.01055 0-5.42884 2.41852-5.42884 5.42922v36.5735c0 3.0108 2.41829 5.4293 5.42884 5.4293h53.3503c3.0105 0 5.4288-2.4185 5.4288-5.4293v-36.5735c0-2.9614-2.4183-5.42922-5.4288-5.42922z" fill="#5183bb"/><path d="m12.0101 41.1989c-1.1844 0-2.17148-.9872-2.17148-2.1717l.14806-25.8631c0-1.1845.98702-2.1717 2.17152-2.1717h53.4984c1.1844 0 2.1715.9872 2.1715 2.1717l-.1481 25.9124c0 1.1846-.987 2.1717-2.1715 2.1717h-53.4984z" fill="#d7f1f9"/><path d="m6.81177 44.9263v4.9181c0 3.0001 2.41652 5.41 5.42483 5.41h53.3114c3.0083 0 5.4249-2.4099 5.4249-5.41v-4.9181z" fill="#dcf3fa"/><path d="m48.3408 55.2546h-18.8967v7.2517h18.8967z" fill="#bde6ef"/><path d="m48.3408 55.2546h-18.8967v2.1975h18.8967z" fill="#a4d3dd"/><path d="m52.3588 62.5063h-26.9836c-2.6338 0-4.7209 2.1092-4.7209 4.6599v.8339h36.4751v-.8339c0-2.5997-2.1368-4.6599-4.7706-4.6599z" fill="#d9f2fa"/><path d="m41.0899 50.4202c0 1.3372-1.0308 2.4172-2.3072 2.4172-1.2763 0-2.3071-1.08-2.3071-2.4172s1.0308-2.4173 2.3071-2.4173c1.2764 0 2.3072 1.1315 2.3072 2.4173z" fill="#5183bb"/><path d="m48.8097 14.377h-6.7174c-1.1928 0-2.1345.9417-2.1345 2.1346v6.7181c0 1.1929.9417 2.1347 2.1345 2.1347h6.7174c1.1929 0 2.1346-.9418 2.1346-2.1347v-6.7808c0-1.1302-.9417-2.0719-2.1346-2.0719z" fill="#fff"/><path d="m35.6679 14.377h-6.7175c-1.1928 0-2.1345.9417-2.1345 2.1346v6.7181c0 1.1929.9417 2.1347 2.1345 2.1347h6.7175c1.1928 0 2.1345-.9418 2.1345-2.1347v-6.7808c0-1.1302-.9417-2.0719-2.1345-2.0719z" fill="#fff"/><path d="m22.4748 14.377h-6.7175c-1.1928 0-2.1345.9417-2.1345 2.1346v6.7181c0 1.1929.9417 2.1347 2.1345 2.1347h6.7175c1.1928 0 2.1345-.9418 2.1345-2.1347v-6.7808c-.0628-1.1302-1.0045-2.0719-2.1345-2.0719z" fill="#f7fbfd"/><path d="m48.8097 27.562h-6.7174c-1.1928 0-2.1345.9418-2.1345 2.1347v6.718c0 1.193.9417 2.1347 2.1345 2.1347h6.7174c1.1929 0 2.1346-.9417 2.1346-2.1347v-6.7808c0-1.1301-.9417-2.0719-2.1346-2.0719z" fill="#fff"/><path d="m62.0263 27.562h-6.7175c-1.1928 0-2.1345.9418-2.1345 2.1347v6.718c0 1.193.9417 2.1347 2.1345 2.1347h6.7175c1.1928 0 2.1345-.9417 2.1345-2.1347v-6.7808c0-1.1301-.9417-2.0719-2.1345-2.0719z" fill="#fff"/><path d="m35.6679 27.562h-6.7175c-1.1928 0-2.1345.9418-2.1345 2.1347v6.718c0 1.193.9417 2.1347 2.1345 2.1347h6.7175c1.1928 0 2.1345-.9417 2.1345-2.1347v-6.7808c0-1.1301-.9417-2.0719-2.1345-2.0719z" fill="#fff"/><path d="m22.4748 27.562h-6.7175c-1.1928 0-2.1345.9418-2.1345 2.1347v6.718c0 1.193.9417 2.1347 2.1345 2.1347h6.7175c1.1928 0 2.1345-.9417 2.1345-2.1347v-6.7808c-.0628-1.1301-1.0045-2.0719-2.1345-2.0719z" fill="#f7fbfd"/><g clip-rule="evenodd" fill-rule="evenodd"><path d="m20.7697 17.9558c0 .8844-.7169 1.6014-1.6012 1.6014s-1.6012-.717-1.6012-1.6014.7169-1.6013 1.6012-1.6013 1.6012.7169 1.6012 1.6013zm-4.9491 5.2589c0-1.8462 1.5019-3.3482 3.3479-3.3482 1.8461 0 3.348 1.502 3.348 3.3482 0 .0804-.0652.1456-.1456.1456h-6.4048c-.0803 0-.1455-.0652-.1455-.1456z" fill="url(#d)"/><path d="m33.9528 17.9558c0 .8844-.7169 1.6014-1.6012 1.6014s-1.6012-.717-1.6012-1.6014.7169-1.6013 1.6012-1.6013 1.6012.7169 1.6012 1.6013zm-4.9491 5.2589c0-1.8462 1.5019-3.3482 3.3479-3.3482 1.8461 0 3.348 1.502 3.348 3.3482 0 .0804-.0652.1456-.1456.1456h-6.4048c-.0803 0-.1455-.0652-.1455-.1456z" fill="url(#f)"/><path d="m47.1373 17.9558c0 .8844-.7168 1.6014-1.6012 1.6014-.8843 0-1.6012-.717-1.6012-1.6014s.7169-1.6013 1.6012-1.6013c.8844 0 1.6012.7169 1.6012 1.6013zm-4.9491 5.2589c0-1.8462 1.502-3.3482 3.348-3.3482s3.348 1.502 3.348 3.3482c0 .0804-.0652.1456-.1456.1456h-6.4048c-.0804 0-.1456-.0652-.1456-.1456z" fill="url(#g)"/><path d="m20.7697 31.1404c0 .8844-.7169 1.6013-1.6012 1.6013s-1.6012-.7169-1.6012-1.6013.7169-1.6013 1.6012-1.6013 1.6012.7169 1.6012 1.6013zm-4.9491 5.259c0-1.8462 1.5019-3.3483 3.3479-3.3483 1.8461 0 3.348 1.5021 3.348 3.3483 0 .0804-.0652.1456-.1456.1456h-6.4048c-.0803 0-.1455-.0652-.1455-.1456z" fill="url(#h)"/><path d="m33.9528 31.1404c0 .8844-.7169 1.6013-1.6012 1.6013s-1.6012-.7169-1.6012-1.6013.7169-1.6013 1.6012-1.6013 1.6012.7169 1.6012 1.6013zm-4.9491 5.259c0-1.8462 1.5019-3.3483 3.3479-3.3483 1.8461 0 3.348 1.5021 3.348 3.3483 0 .0804-.0652.1456-.1456.1456h-6.4048c-.0803 0-.1455-.0652-.1455-.1456z" fill="url(#i)"/><path d="m47.1373 31.1404c0 .8844-.7168 1.6013-1.6012 1.6013-.8843 0-1.6012-.7169-1.6012-1.6013s.7169-1.6013 1.6012-1.6013c.8844 0 1.6012.7169 1.6012 1.6013zm-4.9491 5.259c0-1.8462 1.502-3.3483 3.348-3.3483s3.348 1.5021 3.348 3.3483c0 .0804-.0652.1456-.1456.1456h-6.4048c-.0804 0-.1456-.0652-.1456-.1456z" fill="url(#j)"/><path d="m60.3209 31.1404c0 .8844-.7168 1.6013-1.6012 1.6013-.8843 0-1.6012-.7169-1.6012-1.6013s.7169-1.6013 1.6012-1.6013c.8844 0 1.6012.7169 1.6012 1.6013zm-4.9491 5.259c0-1.8462 1.5019-3.3483 3.348-3.3483 1.846 0 3.348 1.5021 3.348 3.3483 0 .0804-.0652.1456-.1456.1456h-6.4048c-.0804 0-.1456-.0652-.1456-.1456z" fill="url(#k)"/></g><g filter="url(#a)"><path d="m67.415 21.1164v6.0733c0 1.1185.9144 2.0254 2.043 2.0254h9.2587l4.2142 3.4177v-3.4177h1.8516c1.1284 0 2.0433-.9069 2.0433-2.0254v-12.2786c0-1.1185-.9149-2.0254-2.0433-2.0254h-9.5749z" fill="url(#l)"/></g><g filter="url(#b)"><path d="m65.24 2c-5.4524 0-9.8726 4.42058-9.8726 9.8734 0 2.1698.7003 4.1755 1.8865 5.8049l-1.217 2.674 3.0119-.7874v-.0012c1.6934 1.3653 3.8468 2.1834 6.1912 2.1834 5.4526 0 9.8728-4.4206 9.8728-9.8737 0-5.45282-4.4202-9.8734-9.8728-9.8734z" fill="url(#m)"/></g><path clip-rule="evenodd" d="m77.137 17.5353.6776-.0006 2.6851 7.1154-1.4669.5536-.6375-1.6892h-1.2583v.0007h-1.2536l-.6439 1.6906-1.4651-.558 2.7081-7.111.6542-.0007zm0 2.6872v.0009l-.6565 1.7239h.5051l.0003-.0008h.8178l-.6586-1.7452z" fill="#fff" fill-rule="evenodd"/><path clip-rule="evenodd" d="m69.3078 9.22015v1.55345h-1.3942c-.1072 1.1645-.576 2.2255-1.3554 3.07.6731.2673 1.4453.4095 2.2718.4095v1.5535c-1.3494 0-2.6027-.3127-3.631-.8939l-.0001-.0005v.0005c-1.0283.5813-2.2816.894-3.631.894h-.576v-1.5535h.576c.8264 0 1.5987-.1423 2.2718-.4095-.7794-.8445-1.2482-1.9055-1.3555-3.0701h-1.3941v-1.55343h3.3321v-1.59516h.7767v.00077l.0001-.00078h.7767v1.59515zm-4.1089 3.78665.0001-.0004c.6496-.5974 1.0418-1.36 1.152-2.2328h-1.152l-.0001-.0006v.0006h-1.1521c.1103.8728.5024 1.6354 1.1521 2.2329z" fill="#fff" fill-rule="evenodd"/><path d="m71.1083 50.3093 4.2694 16.1453h2.175l-1.893-16.7493z" fill="#004e82"/><path d="m75.2969 49.9468s-.0403 1.0871-.9667 2.3755-4.7528 5.1536-4.7528 5.1536l.4028 8.898h-1.9334l-1.6111-9.824 3.9473-6.4421z" fill="#5183bb"/><path d="m65.5506 37.3446-.282-.765-.2819.4831-.5639-.3221c-.4431-.2415-1.007-.0805-1.2486.3624-.2417.4429-.0806 1.0066.3625 1.2481.4833.2819 1.0069.3624 1.5708.3222h.2014l.5639-1.0066z" fill="#ffe27c"/><path d="m69.4162 33.5598s-.5236-2.134 1.6111-2.2548c2.1347-.1207 3.3833 1.2079 3.7056 2.295.4833 1.6105-.3223 3.221-1.1681 3.6639l-1.1681-2.5768z" fill="#004e82"/><path d="m72.9612 34.6868s.5639-.765.8459-.1208c.2819.6442.2416 1.5703-.7653 1.53 0 0-.4028 1.9326-2.2556 1.3689s-1.6111-3.0599-1.3292-3.9457c0 0 1.6514.2818 2.7389-.2013-.0402.0805.3625 1.2481.7653 1.3689z" fill="#ffe27c"/><path d="m71.3897 36.9819.2417 2.3755 2.0944-1.3689-.2416-2.4963z" fill="#ffe27c"/><path d="m74.5319 37.908s1.4098.6039 1.732 1.2481c.2014.4026.7653 2.5365 1.0875 3.8652.1611.6442-.0806 1.369-.6445 1.7716l-2.7389 2.0131z" fill="#64d3b5"/><path d="m73.6051 37.707s.6445-.161 1.2889.604c.6445.7649 1.1278 1.7715.9264 4.7912s.8056 7.2473.8056 7.2473c-2.0542 1.0871-4.5514 1.1676-6.6862.2013l-.4027-.2013s.1208-7.7304 1.6916-11.1528z" fill="url(#n)"/><path d="m71.9137 38.7131-3.5445 2.4963-2.618-3.9457-.9264 1.7313s2.2958 4.6704 3.1417 5.5562l5.6389-2.8989c.8055-.4026 1.1277-1.3689.7652-2.2144-.4027-.9261-1.5708-1.2884-2.4569-.7248z" fill="#b0e7c6"/><path d="m70.0203 66.3735v1.5299h-4.1487c-.2416 0-.3625-.3221-.1611-.4831.4834-.3624 1.3292-.8455 2.5375-1.0468z" fill="#004e82"/><path d="m77.5127 66.3735v1.5299h-4.1486c-.2417 0-.3625-.3221-.1611-.4831.4833-.3624 1.3291-.8455 2.5375-1.0468z" fill="#004e82"/></svg>