<svg width="43" height="43" viewBox="0 0 43 43" fill="none" xmlns="http://www.w3.org/2000/svg">
<rect width="43" height="43" rx="13" transform="matrix(-1 0 0 1 43 0)" fill="url(#paint0_linear)"/>
<path d="M21.5 9C14.6074 9 9 14.6074 9 21.5C9 28.3926 14.6074 34 21.5 34C28.3926 34 34 28.3926 34 21.5C34 14.6074 28.3926 9 21.5 9ZM21.5 31.3684C16.0586 31.3684 11.6316 26.9414 11.6316 21.5C11.6316 16.0586 16.0586 11.6316 21.5 11.6316C26.9414 11.6316 31.3684 16.0586 31.3684 21.5C31.3684 26.9414 26.9414 31.3684 21.5 31.3684Z" fill="white"/>
<path d="M28.2098 21.1139H23.3284C23.1511 20.8249 22.9072 20.581 22.6182 20.4036V14.5354C22.6182 13.9177 22.1174 13.417 21.4997 13.417C20.882 13.417 20.3813 13.9177 20.3813 14.5354V20.4036C19.7665 20.7811 19.3555 21.4596 19.3555 22.2323C19.3555 23.4147 20.3174 24.3766 21.4997 24.3766C22.2725 24.3766 22.951 23.9655 23.3284 23.3507H28.2098C28.8275 23.3507 29.3282 22.85 29.3282 22.2323C29.3282 21.6146 28.8275 21.1139 28.2098 21.1139Z" fill="white"/>
<defs>
<linearGradient id="paint0_linear" x1="21.5" y1="0" x2="21.5" y2="43" gradientUnits="userSpaceOnUse">
<stop stop-color="#BADBFF"/>
<stop offset="1" stop-color="#89BCF4"/>
</linearGradient>
</defs>
</svg>
