<svg fill="none" height="346" viewBox="0 0 444 346" width="444" xmlns="http://www.w3.org/2000/svg" xmlns:xlink="http://www.w3.org/1999/xlink"><filter id="a" color-interpolation-filters="sRGB" filterUnits="userSpaceOnUse" height="288" width="355" x="88.9297" y="0"><feFlood flood-opacity="0" result="BackgroundImageFix"/><feColorMatrix in="SourceAlpha" result="hardAlpha" type="matrix" values="0 0 0 0 0 0 0 0 0 0 0 0 0 0 0 0 0 0 127 0"/><feOffset dx="13" dy="18"/><feGaussianBlur stdDeviation="17.5"/><feColorMatrix type="matrix" values="0 0 0 0 0 0 0 0 0 0.351917 0 0 0 0 0.429167 0 0 0 0.15 0"/><feBlend in2="BackgroundImageFix" mode="normal" result="effect1_dropShadow"/><feBlend in="SourceGraphic" in2="effect1_dropShadow" mode="normal" result="shape"/></filter><filter id="b" color-interpolation-filters="sRGB" filterUnits="userSpaceOnUse" height="88.087" width="89.0233" x="351" y="46"><feFlood flood-opacity="0" result="BackgroundImageFix"/><feColorMatrix in="SourceAlpha" result="hardAlpha" type="matrix" values="0 0 0 0 0 0 0 0 0 0 0 0 0 0 0 0 0 0 127 0"/><feOffset dy="9"/><feGaussianBlur stdDeviation="15"/><feColorMatrix type="matrix" values="0 0 0 0 0.593438 0 0 0 0 0.707729 0 0 0 0 0.879167 0 0 0 0.25 0"/><feBlend in2="BackgroundImageFix" mode="normal" result="effect1_dropShadow"/><feBlend in="SourceGraphic" in2="effect1_dropShadow" mode="normal" result="shape"/></filter><filter id="c" color-interpolation-filters="sRGB" filterUnits="userSpaceOnUse" height="201.698" width="201.698" x="31.209" y="144.302"><feFlood flood-opacity="0" result="BackgroundImageFix"/><feColorMatrix in="SourceAlpha" result="hardAlpha" type="matrix" values="0 0 0 0 0 0 0 0 0 0 0 0 0 0 0 0 0 0 127 0"/><feOffset dx="2" dy="8"/><feGaussianBlur stdDeviation="17.5"/><feColorMatrix type="matrix" values="0 0 0 0 0 0 0 0 0 0.351917 0 0 0 0 0.429167 0 0 0 0.15 0"/><feBlend in2="BackgroundImageFix" mode="normal" result="effect1_dropShadow"/><feBlend in="SourceGraphic" in2="effect1_dropShadow" mode="normal" result="shape"/></filter><linearGradient id="d"><stop offset="0" stop-color="#ffed49"/><stop offset="1" stop-color="#ffc369"/></linearGradient><linearGradient id="e" gradientUnits="userSpaceOnUse" x1="395.512" x2="395.512" xlink:href="#d" y1="73.8626" y2="95.087"/><linearGradient id="f"><stop offset="0" stop-color="#b0e7c6"/><stop offset="1" stop-color="#5dd1b3"/></linearGradient><linearGradient id="g" gradientUnits="userSpaceOnUse" x1="130.058" x2="130.058" xlink:href="#f" y1="171.302" y2="303"/><linearGradient id="h" gradientUnits="userSpaceOnUse" x1="38.093" x2="38.093" xlink:href="#d" y1="84.6149" y2="142.186"/><linearGradient id="i" gradientUnits="userSpaceOnUse" x1="272.22" x2="272.22" xlink:href="#f" y1="100.319" y2="127.089"/><linearGradient id="j" gradientUnits="userSpaceOnUse" x1="253.784" x2="253.784" xlink:href="#f" y1="78.0977" y2="111.034"/><linearGradient id="k" gradientUnits="userSpaceOnUse" x1="319.544" x2="319.544" xlink:href="#f" y1="123.629" y2="202.239"/><linearGradient id="l" gradientUnits="userSpaceOnUse" x1="185.5" x2="185.5" y1="64" y2="143"><stop offset="0" stop-color="#badbff"/><stop offset="1" stop-color="#89bcf4"/></linearGradient><path d="m363.426 295h-109.857c-2.569 0-4.569 1.905-4.569 4 0 2.286 2 4 4.569 4h109.857c2.574 0 4.569-1.905 4.569-4 .075-2.095-1.995-4-4.569-4z" fill="#d7f1f9"/><g filter="url(#a)"><rect fill="#f7fbfd" height="218" rx="40" transform="matrix(-1 0 0 1 395.93 17)" width="285"/></g><g filter="url(#b)"><rect fill="url(#e)" height="28.087" rx="14.0435" width="29.0233" x="381" y="67"/></g><g filter="url(#c)"><rect fill="url(#g)" height="131.698" rx="35" width="131.698" x="64.209" y="171.302"/></g><rect fill="url(#h)" height="76.186" rx="20" width="76.186" y="66"/><path d="m308.076 196.926 24.806 93.798h12.638l-10.999-97.307z" fill="#004e82"/><path d="m332.414 194.819s-.234 6.316-5.616 13.801c-5.383 7.485-27.615 29.941-27.615 29.941l2.34 51.694h-11.233l-9.36-57.074 22.934-37.426z" fill="#5183bb"/><path d="m281.633 104.062-11.701 21.052c-.936 1.871-3.277 2.573-5.149 1.403-1.872-.935-2.574-3.274-1.404-5.146l11.701-21.052z" fill="url(#i)"/><path d="m254.719 89.0916-5.383 9.8243c-2.574-1.6374-3.51-4.9121-2.106-7.4852 1.638-2.573 4.915-3.7426 7.489-2.3391z" fill="#badbff"/><path d="m262.209 78.3316.468.2339c.702.4678 1.17 1.4034.702 2.1052l-15.913 29.4733c-.468.701-1.405 1.169-2.107.701l-.468-.234c-.702-.467-1.17-1.403-.702-2.105l15.914-29.4727c.468-.9356 1.404-1.1696 2.106-.7017z" fill="url(#j)"/><path d="m262.676 81.8408c0 .9357 12.871 14.2686 21.296 20.3502 3.042 2.339 3.978 6.55 2.106 9.824-1.872 3.275-5.85 4.913-9.361 3.509-9.829-3.509-27.848-7.251-28.784-6.549z" fill="#5183bb"/><path d="m276.718 96.3433-8.893 16.6077c-9.127-2.339-19.19-4.21-19.892-3.976l14.744-27.1342c0 .7018 7.02 8.1869 14.041 14.5025z" fill="#badbff"/><path d="m275.781 121.606-1.638-4.444-1.638 2.807-3.276-1.872c-2.575-1.403-5.851-.468-7.255 2.105-1.404 2.574-.468 5.848 2.106 7.252 2.808 1.637 5.851 2.105 9.127 1.871h1.17l3.276-5.848z" fill="#ffe27c"/><path d="m298.248 99.6183s-3.042-12.3974 9.361-13.0991 19.658 7.0174 21.53 13.333c2.808 9.3568-1.872 18.7128-6.787 21.2858l-6.786-14.97z" fill="#004e82"/><path d="m318.841 106.168s3.276-4.444 4.914-.702c1.638 3.743 1.404 9.123-4.446 8.889 0 0-2.34 11.227-13.105 7.953-10.765-3.275-9.361-17.778-7.723-22.9236 0 0 9.595 1.6376 15.913-1.1696-.234.4679 2.107 7.2512 4.447 7.9532z" fill="#ffe27c"/><path d="m309.715 119.5 1.404 13.801 12.169-7.953-1.404-14.502z" fill="#ffe27c"/><path d="m327.969 124.88s8.19 3.509 10.063 7.251c1.17 2.339 4.446 14.737 6.318 22.456.936 3.742-.468 7.953-3.744 10.292l-15.914 11.695z" fill="#64d3b5"/><path d="m322.586 123.711s3.745-.936 7.489 3.509c3.744 4.444 6.552 10.292 5.382 27.835-1.17 17.544 4.681 42.104 4.681 42.104-11.935 6.316-26.445 6.784-38.848 1.17l-2.34-1.17s.702-44.911 9.829-64.793z" fill="url(#k)"/><path d="m312.757 129.559-20.594 14.502-15.211-22.923-5.383 10.058s13.34 27.134 18.254 32.28l32.763-16.842c4.68-2.339 6.552-7.953 4.446-12.865-2.34-5.38-9.127-7.485-14.275-4.21z" fill="#b0e7c6"/><path d="m301.758 290.256v8.889h-24.104c-1.404 0-2.106-1.871-.936-2.807 2.808-2.105 7.722-4.912 14.743-6.082z" fill="#004e82"/><path d="m345.285 290.256v8.889h-24.104c-1.404 0-2.106-1.871-.936-2.807 2.808-2.105 7.723-4.912 14.743-6.082z" fill="#004e82"/><path d="m103.707 226.681c.852.601 3.421 2.387 7.707 5.357s7.57 5.257 9.851 6.861c.25.176.783.558 1.597 1.147.815.589 1.491 1.066 2.03 1.429s1.191.771 1.955 1.222c.765.45 1.486.789 2.162 1.014.677.226 1.304.338 1.88.338h.038.038c.576 0 1.203-.112 1.88-.338.677-.225 1.398-.564 2.162-1.014.764-.452 1.416-.859 1.955-1.222s1.215-.84 2.03-1.429c.814-.589 1.347-.971 1.598-1.147 2.305-1.604 8.171-5.677 17.595-12.219 1.83-1.278 3.358-2.82 4.586-4.624 1.229-1.804 1.843-3.697 1.843-5.677 0-1.654-.596-3.07-1.786-4.248-1.191-1.178-2.601-1.767-4.23-1.767h-55.343c-1.929 0-3.4145.651-4.4547 1.955-1.04 1.303-1.5601 2.932-1.5601 4.887 0 1.579.6895 3.29 2.0679 5.132 1.3779 1.843 2.8449 3.29 4.3989 4.343z" fill="#fff"/><path d="m160.854 231.439c-8.221 5.564-14.462 9.888-18.723 12.971-1.429 1.052-2.587 1.874-3.478 2.462-.89.589-2.073 1.191-3.552 1.805s-2.857.921-4.135.921h-.039-.038c-1.278 0-2.657-.307-4.135-.921-1.479-.614-2.663-1.216-3.553-1.805-.89-.588-2.049-1.41-3.477-2.462-3.384-2.481-9.613-6.806-18.686-12.971-1.4291-.952-2.6949-2.043-3.7978-3.271v29.851c0 1.655.5888 3.071 1.767 4.249 1.1778 1.178 2.5948 1.767 4.2488 1.767h55.343c1.654 0 3.07-.589 4.248-1.767 1.179-1.179 1.767-2.594 1.767-4.249v-29.851c-1.078 1.203-2.331 2.294-3.76 3.271z" fill="#fff"/><path d="m157.569 75.5724c15.437-15.4287 40.421-15.431 55.859 0 12.414 12.4069 14.759 30.8546 7.421 45.5466l4.068 17.887c.529 2.325-1.556 4.41-3.883 3.881l-17.896-4.066c-26.021 12.985-57.138-5.815-57.138-35.333 0-10.5446 4.109-20.4587 11.569-27.9156zm19.69 37.7466h24.719c1.792 0 3.244-1.451 3.244-3.242s-1.452-3.243-3.244-3.243h-24.719c-1.791 0-3.244 1.452-3.244 3.243s1.453 3.242 3.244 3.242zm-8.239-13.176h32.958c1.792 0 3.244-1.4521 3.244-3.243s-1.452-3.2427-3.244-3.2427h-32.958c-1.792 0-3.245 1.4518-3.245 3.2427s1.453 3.243 3.245 3.243z" fill="url(#l)"/><path d="m48.6752 84h-22.3485c-4.0461 0-7.3257 3.3821-7.3257 7.5683v34.6327c0 1.469 1.6309 2.328 2.7819 1.437l6.9857-5.413h19.9066c4.0462 0 7.3258-3.382 7.3258-7.568v-23.0887c0-4.1801-3.2737-7.5683-7.3258-7.5683zm-11.1745 29.567c-.9594 0-1.7387-.805-1.7387-1.796 0-.992.7793-1.797 1.7387-1.797.96 0 1.7388.805 1.7388 1.797 0 .991-.7788 1.796-1.7388 1.796zm1.7388-7.944v.376c0 .992-.7784 1.796-1.7388 1.796-.9599 0-1.7387-.804-1.7387-1.796v-1.924c0-.993.7788-1.797 1.7387-1.797 1.6088 0 2.9174-1.352 2.9174-3.0137 0-1.6616-1.3086-3.0135-2.9174-3.0135-1.6169 0-2.9168 1.351-2.9168 3.0116 0 .9926-.7788 1.7976-1.7388 1.7976-.9603 0-1.7387-.804-1.7387-1.7952v-.0024c0-3.6534 2.8626-6.6042 6.3925-6.6042 3.5282 0 6.3966 2.9635 6.3966 6.6066 0 3.0202-1.9719 5.5732-4.656 6.3582z" fill="#fff"/></svg>