<svg width="49" height="46" viewBox="0 0 49 46" fill="none" xmlns="http://www.w3.org/2000/svg">
<path d="M30.2425 37.3242H18.7581C18.1777 37.3242 17.6534 37.6732 17.4319 38.2102C17.209 38.7471 17.3324 39.364 17.7432 39.7748L23.4853 45.517C23.7657 45.7974 24.1331 45.9376 24.5003 45.9376C24.8675 45.9376 25.2349 45.7974 25.5152 45.517L31.2574 39.7748C31.6681 39.364 31.7915 38.7472 31.5686 38.2102C31.3472 37.6732 30.8228 37.3242 30.2425 37.3242Z" fill="#5183BB"/>
<path d="M44.6934 0H4.30664C1.93186 0 0 1.93186 0 4.30664V12.9199C0 13.7134 0.642072 14.3555 1.43555 14.3555H10.1445V8.61328H7.27344C6.47996 8.61328 5.83789 7.97121 5.83789 7.17773C5.83789 6.38426 6.47996 5.74219 7.27344 5.74219H41.7266C42.52 5.74219 43.1621 6.38426 43.1621 7.17773C43.1621 7.97121 42.52 8.61328 41.7266 8.61328H38.8555V14.3555H47.5645C48.3579 14.3555 49 13.7134 49 12.9199V4.30664C49 1.93186 47.0681 0 44.6934 0Z" fill="url(#paint0_linear)"/>
<path fill-rule="evenodd" clip-rule="evenodd" d="M28.8066 10.0488V8.61328H20.1934V10.0488C20.1934 12.4236 22.1252 14.3555 24.5 14.3555C26.8748 14.3555 28.8066 12.4236 28.8066 10.0488ZM14.4512 34.4531C13.6577 34.4531 13.0156 33.8111 13.0156 33.0176V30.1465C15.3904 30.1465 17.3223 32.0783 17.3223 34.4531H14.4512ZM35.9844 33.0176C35.9844 33.8111 35.3423 34.4531 34.5488 34.4531H31.6777C31.6777 32.0783 33.6096 30.1465 35.9844 30.1465V33.0176ZM13.0156 27.2754V8.61328H17.3223V10.0488C17.3223 14.0064 20.5424 17.2266 24.5 17.2266C28.4576 17.2266 31.6777 14.0064 31.6777 10.0488V8.61328H35.9844V27.2754C32.0268 27.2754 28.8066 30.4955 28.8066 34.4531H20.1934C20.1934 30.4955 16.9732 27.2754 13.0156 27.2754ZM24.5 20.0977C23.7065 20.0977 23.0645 20.7397 23.0645 21.5332V24.4043C23.0645 25.1978 23.7065 25.8398 24.5 25.8398C25.2935 25.8398 25.9355 25.1978 25.9355 24.4043V21.5332C25.9355 20.7397 25.2935 20.0977 24.5 20.0977Z" fill="url(#paint1_linear)"/>
<defs>
<linearGradient id="paint0_linear" x1="24.5" y1="0" x2="24.5" y2="14.3555" gradientUnits="userSpaceOnUse">
<stop stop-color="#85BEFF"/>
<stop offset="1" stop-color="#5183BB"/>
</linearGradient>
<linearGradient id="paint1_linear" x1="24.5" y1="8.61328" x2="24.5" y2="34.4531" gradientUnits="userSpaceOnUse">
<stop stop-color="#B0E7C6"/>
<stop offset="1" stop-color="#5DD1B3"/>
</linearGradient>
</defs>
</svg>
