<svg width="157" height="157" viewBox="0 0 157 157" fill="none" xmlns="http://www.w3.org/2000/svg">
<g filter="url(#filter0_d)">
<rect x="30" y="21" width="97" height="97" rx="25" fill="white"/>
</g>
<path d="M90.5205 55.0104H67.2295V51.3475C67.2295 50.5848 66.6112 49.9666 65.8486 49.9666H58.3809C57.6183 49.9666 57 50.5848 57 51.3475V86.1984C57 89.7105 59.8608 92.5679 63.3771 92.5679H87.8113C90.0666 92.5679 91.9015 90.7348 91.9015 88.4818V56.3913C91.9015 55.6287 91.2832 55.0104 90.5205 55.0104Z" fill="url(#paint0_linear)"/>
<path d="M90.5124 56.3888H62.9851C60.4649 56.3888 58.4219 54.3489 58.4219 51.8325V51.369C58.4219 48.8527 60.4649 46.8127 62.9851 46.8127H90.5124V56.3888Z" fill="#FFF1C1"/>
<path d="M90.4968 57.7698H62.9695C59.6919 57.7698 57.0254 55.1064 57.0254 51.8325V51.3691C57.0253 48.0953 59.6919 45.4319 62.9695 45.4319H90.4968C91.2595 45.4319 91.8778 46.0502 91.8778 46.8128C91.8778 47.5755 91.2595 48.1938 90.4968 48.1938H62.9695C61.2148 48.1938 59.7873 49.6182 59.7873 51.3691V51.8325C59.7873 53.5835 61.2149 55.008 62.9695 55.008H90.4968C91.2595 55.008 91.8778 55.6262 91.8778 56.3889C91.8778 57.1515 91.2595 57.7698 90.4968 57.7698Z" fill="#5385BE"/>
<circle cx="93.4014" cy="73.5" r="12.5" fill="url(#paint1_linear)"/>
<path fill-rule="evenodd" clip-rule="evenodd" d="M97.888 68.3379L98.5624 69.0123C98.7876 69.2375 98.9116 69.5371 98.9116 69.8557C98.9116 70.1743 98.7876 70.4739 98.5624 70.6989L97.7363 71.5251L95.3752 69.164L96.2014 68.3379C96.6516 67.8876 97.4372 67.8871 97.888 68.3379ZM88.6419 75.8976L94.7006 69.8384L97.0617 72.1996L91.0025 78.2582C90.972 78.2887 90.9339 78.3106 90.8918 78.3211L88.1964 78.9928C88.1773 78.9976 88.1578 78.9999 88.1387 78.9999C88.0762 78.9999 88.0152 78.9751 87.9704 78.9303C87.9111 78.8711 87.8873 78.7848 87.9074 78.7037L88.5789 76.0082C88.5894 75.9667 88.6114 75.9281 88.6419 75.8976Z" fill="#5183BB"/>
<defs>
<filter id="filter0_d" x="0" y="0" width="157" height="157" filterUnits="userSpaceOnUse" color-interpolation-filters="sRGB">
<feFlood flood-opacity="0" result="BackgroundImageFix"/>
<feColorMatrix in="SourceAlpha" type="matrix" values="0 0 0 0 0 0 0 0 0 0 0 0 0 0 0 0 0 0 127 0" result="hardAlpha"/>
<feOffset dy="9"/>
<feGaussianBlur stdDeviation="15"/>
<feColorMatrix type="matrix" values="0 0 0 0 0.593438 0 0 0 0 0.707729 0 0 0 0 0.879167 0 0 0 0.25 0"/>
<feBlend mode="normal" in2="BackgroundImageFix" result="effect1_dropShadow"/>
<feBlend mode="normal" in="SourceGraphic" in2="effect1_dropShadow" result="shape"/>
</filter>
<linearGradient id="paint0_linear" x1="74.4507" y1="49.9666" x2="74.4507" y2="92.5679" gradientUnits="userSpaceOnUse">
<stop stop-color="#85BEFF"/>
<stop offset="1" stop-color="#5183BB"/>
</linearGradient>
<linearGradient id="paint1_linear" x1="93.4014" y1="67.1084" x2="93.4014" y2="86" gradientUnits="userSpaceOnUse">
<stop stop-color="#FFED49"/>
<stop offset="1" stop-color="#FFC369"/>
</linearGradient>
</defs>
</svg>
