<svg fill="none" height="43" viewBox="0 0 43 43" width="43" xmlns="http://www.w3.org/2000/svg" xmlns:xlink="http://www.w3.org/1999/xlink"><linearGradient id="a" gradientUnits="userSpaceOnUse" x1="21.5" x2="21.5" y1="0" y2="43"><stop offset="0" stop-color="#85beff"/><stop offset="1" stop-color="#5183bb"/></linearGradient><rect fill="url(#a)" height="43" rx="13" transform="matrix(-1 0 0 1 43 0)" width="43"/><path d="m13.5932 19.2566c.2436.1719.9778.6824 2.2027 1.5312 1.225.8488 2.1634 1.5024 2.8153 1.9607.0716.0503.2237.1595.4565.3278.2328.1685.4263.3046.5802.4085.154.1038.3403.2202.5589.3491.2185.1288.4244.2257.6178.2898.1935.0647.3726.0967.5373.0967h.0108.0108c.1648 0 .3439-.0321.5373-.0967.1934-.0641.3995-.1611.6179-.2898.2184-.129.4046-.2454.5587-.3491.154-.1039.3473-.24.5802-.4085.2327-.1684.3851-.2775.4567-.3278.6589-.4583 2.3353-1.6224 5.0286-3.4921.5229-.3652.9598-.8058 1.3107-1.3216.3512-.5156.5267-1.0564.5267-1.6223 0-.4728-.1703-.8776-.5106-1.2142-.3402-.3368-.7432-.505-1.2087-.505h-15.8167c-.5516 0-.976.1862-1.2733.5586-.2973.3725-.4459.8382-.4459 1.3968 0 .4513.1971.9404.591 1.4668.3939.5266.8131.9403 1.2571 1.2411z" fill="#fff"/><path d="m29.9256 20.6164c-2.3493 1.5901-4.1332 2.8259-5.3508 3.7071-.4083.3008-.7396.5355-.9939.7038-.2544.1683-.5927.3402-1.0154.5156-.4226.1757-.8164.2633-1.1818.2633h-.011-.0108c-.3653 0-.7593-.0876-1.1819-.2633-.4226-.1754-.7611-.3473-1.0154-.5156-.2542-.1683-.5856-.403-.9938-.7038-.9672-.7091-2.7472-1.945-5.3403-3.7071-.4084-.272-.7702-.5838-1.0854-.9348v8.5314c0 .473.1683.8776.505 1.2143.3367.3368.7415.5051 1.2143.5051h15.8168c.4727 0 .8774-.1683 1.2141-.5051.3368-.3368.505-.7412.505-1.2143v-8.5314c-.3081.3437-.6661.6555-1.0747.9348z" fill="#fff"/><circle cx="31" cy="14" fill="#f76e6e" r="4"/></svg>