<svg fill="none" height="491" viewBox="0 0 1337 491" width="1337" xmlns="http://www.w3.org/2000/svg" xmlns:xlink="http://www.w3.org/1999/xlink"><filter id="a" color-interpolation-filters="sRGB" filterUnits="userSpaceOnUse" height="123.141" width="123.141" x="776" y="10"><feFlood flood-opacity="0" result="BackgroundImageFix"/><feColorMatrix in="SourceAlpha" result="hardAlpha" type="matrix" values="0 0 0 0 0 0 0 0 0 0 0 0 0 0 0 0 0 0 127 0"/><feOffset dx="2" dy="8"/><feGaussianBlur stdDeviation="17.5"/><feColorMatrix type="matrix" values="0 0 0 0 0 0 0 0 0 0.351917 0 0 0 0 0.429167 0 0 0 0.15 0"/><feBlend in2="BackgroundImageFix" mode="normal" result="effect1_dropShadow"/><feBlend in="SourceGraphic" in2="effect1_dropShadow" mode="normal" result="shape"/></filter><filter id="b" color-interpolation-filters="sRGB" filterUnits="userSpaceOnUse" height="123.141" width="123.141" x="122" y="134"><feFlood flood-opacity="0" result="BackgroundImageFix"/><feColorMatrix in="SourceAlpha" result="hardAlpha" type="matrix" values="0 0 0 0 0 0 0 0 0 0 0 0 0 0 0 0 0 0 127 0"/><feOffset dx="2" dy="8"/><feGaussianBlur stdDeviation="17.5"/><feColorMatrix type="matrix" values="0 0 0 0 0 0 0 0 0 0.351917 0 0 0 0 0.429167 0 0 0 0.15 0"/><feBlend in2="BackgroundImageFix" mode="normal" result="effect1_dropShadow"/><feBlend in="SourceGraphic" in2="effect1_dropShadow" mode="normal" result="shape"/></filter><filter id="c" color-interpolation-filters="sRGB" filterUnits="userSpaceOnUse" height="108.859" width="108.859" x="412" y="37"><feFlood flood-opacity="0" result="BackgroundImageFix"/><feColorMatrix in="SourceAlpha" result="hardAlpha" type="matrix" values="0 0 0 0 0 0 0 0 0 0 0 0 0 0 0 0 0 0 127 0"/><feOffset dx="2" dy="8"/><feGaussianBlur stdDeviation="17.5"/><feColorMatrix type="matrix" values="0 0 0 0 0 0 0 0 0 0.351917 0 0 0 0 0.429167 0 0 0 0.15 0"/><feBlend in2="BackgroundImageFix" mode="normal" result="effect1_dropShadow"/><feBlend in="SourceGraphic" in2="effect1_dropShadow" mode="normal" result="shape"/></filter><filter id="d" color-interpolation-filters="sRGB" filterUnits="userSpaceOnUse" height="102" width="102" x="821" y="299"><feFlood flood-opacity="0" result="BackgroundImageFix"/><feColorMatrix in="SourceAlpha" result="hardAlpha" type="matrix" values="0 0 0 0 0 0 0 0 0 0 0 0 0 0 0 0 0 0 127 0"/><feOffset dx="2" dy="8"/><feGaussianBlur stdDeviation="17.5"/><feColorMatrix type="matrix" values="0 0 0 0 0 0 0 0 0 0.351917 0 0 0 0 0.429167 0 0 0 0.15 0"/><feBlend in2="BackgroundImageFix" mode="normal" result="effect1_dropShadow"/><feBlend in="SourceGraphic" in2="effect1_dropShadow" mode="normal" result="shape"/></filter><filter id="e" color-interpolation-filters="sRGB" filterUnits="userSpaceOnUse" height="102" width="102" x="32" y="342"><feFlood flood-opacity="0" result="BackgroundImageFix"/><feColorMatrix in="SourceAlpha" result="hardAlpha" type="matrix" values="0 0 0 0 0 0 0 0 0 0 0 0 0 0 0 0 0 0 127 0"/><feOffset dx="2" dy="8"/><feGaussianBlur stdDeviation="17.5"/><feColorMatrix type="matrix" values="0 0 0 0 0 0 0 0 0 0.351917 0 0 0 0 0.429167 0 0 0 0.15 0"/><feBlend in2="BackgroundImageFix" mode="normal" result="effect1_dropShadow"/><feBlend in="SourceGraphic" in2="effect1_dropShadow" mode="normal" result="shape"/></filter><filter id="f" color-interpolation-filters="sRGB" filterUnits="userSpaceOnUse" height="102" width="102" x="1166" y="9"><feFlood flood-opacity="0" result="BackgroundImageFix"/><feColorMatrix in="SourceAlpha" result="hardAlpha" type="matrix" values="0 0 0 0 0 0 0 0 0 0 0 0 0 0 0 0 0 0 127 0"/><feOffset dx="2" dy="8"/><feGaussianBlur stdDeviation="17.5"/><feColorMatrix type="matrix" values="0 0 0 0 0 0 0 0 0 0.351917 0 0 0 0 0.429167 0 0 0 0.15 0"/><feBlend in2="BackgroundImageFix" mode="normal" result="effect1_dropShadow"/><feBlend in="SourceGraphic" in2="effect1_dropShadow" mode="normal" result="shape"/></filter><filter id="g" color-interpolation-filters="sRGB" filterUnits="userSpaceOnUse" height="102" width="102" x="0" y="0"><feFlood flood-opacity="0" result="BackgroundImageFix"/><feColorMatrix in="SourceAlpha" result="hardAlpha" type="matrix" values="0 0 0 0 0 0 0 0 0 0 0 0 0 0 0 0 0 0 127 0"/><feOffset dx="2" dy="8"/><feGaussianBlur stdDeviation="17.5"/><feColorMatrix type="matrix" values="0 0 0 0 0 0 0 0 0 0.351917 0 0 0 0 0.429167 0 0 0 0.15 0"/><feBlend in2="BackgroundImageFix" mode="normal" result="effect1_dropShadow"/><feBlend in="SourceGraphic" in2="effect1_dropShadow" mode="normal" result="shape"/></filter><filter id="h" color-interpolation-filters="sRGB" filterUnits="userSpaceOnUse" height="102" width="102" x="1235" y="389"><feFlood flood-opacity="0" result="BackgroundImageFix"/><feColorMatrix in="SourceAlpha" result="hardAlpha" type="matrix" values="0 0 0 0 0 0 0 0 0 0 0 0 0 0 0 0 0 0 127 0"/><feOffset dx="2" dy="8"/><feGaussianBlur stdDeviation="17.5"/><feColorMatrix type="matrix" values="0 0 0 0 0 0 0 0 0 0.351917 0 0 0 0 0.429167 0 0 0 0.15 0"/><feBlend in2="BackgroundImageFix" mode="normal" result="effect1_dropShadow"/><feBlend in="SourceGraphic" in2="effect1_dropShadow" mode="normal" result="shape"/></filter><filter id="i" color-interpolation-filters="sRGB" filterUnits="userSpaceOnUse" height="140" width="140" x="1081" y="187"><feFlood flood-opacity="0" result="BackgroundImageFix"/><feColorMatrix in="SourceAlpha" result="hardAlpha" type="matrix" values="0 0 0 0 0 0 0 0 0 0 0 0 0 0 0 0 0 0 127 0"/><feOffset dx="2" dy="8"/><feGaussianBlur stdDeviation="17.5"/><feColorMatrix type="matrix" values="0 0 0 0 0 0 0 0 0 0.351917 0 0 0 0 0.429167 0 0 0 0.15 0"/><feBlend in2="BackgroundImageFix" mode="normal" result="effect1_dropShadow"/><feBlend in="SourceGraphic" in2="effect1_dropShadow" mode="normal" result="shape"/></filter><filter id="j" color-interpolation-filters="sRGB" filterUnits="userSpaceOnUse" height="140" width="140" x="314" y="319"><feFlood flood-opacity="0" result="BackgroundImageFix"/><feColorMatrix in="SourceAlpha" result="hardAlpha" type="matrix" values="0 0 0 0 0 0 0 0 0 0 0 0 0 0 0 0 0 0 127 0"/><feOffset dx="2" dy="8"/><feGaussianBlur stdDeviation="17.5"/><feColorMatrix type="matrix" values="0 0 0 0 0 0 0 0 0 0.351917 0 0 0 0 0.429167 0 0 0 0.15 0"/><feBlend in2="BackgroundImageFix" mode="normal" result="effect1_dropShadow"/><feBlend in="SourceGraphic" in2="effect1_dropShadow" mode="normal" result="shape"/></filter><filter id="k" color-interpolation-filters="sRGB" filterUnits="userSpaceOnUse" height="112.024" width="112.024" x="327.977" y="332.977"><feFlood flood-opacity="0" result="BackgroundImageFix"/><feColorMatrix in="SourceAlpha" result="hardAlpha" type="matrix" values="0 0 0 0 0 0 0 0 0 0 0 0 0 0 0 0 0 0 127 0"/><feOffset dx="2" dy="8"/><feGaussianBlur stdDeviation="17.5"/><feColorMatrix type="matrix" values="0 0 0 0 0 0 0 0 0 0.351917 0 0 0 0 0.429167 0 0 0 0.15 0"/><feBlend in2="BackgroundImageFix" mode="normal" result="effect1_dropShadow"/><feBlend in="SourceGraphic" in2="effect1_dropShadow" mode="normal" result="shape"/></filter><linearGradient id="l"><stop offset="0" stop-color="#ffed49"/><stop offset="1" stop-color="#ffc369"/></linearGradient><linearGradient id="m" gradientUnits="userSpaceOnUse" x1="26.5706" x2="26.5706" xlink:href="#l" y1="12.9843" y2="53.1413"/><linearGradient id="n"><stop offset="0" stop-color="#85beff"/><stop offset="1" stop-color="#5183bb"/></linearGradient><linearGradient id="o" gradientUnits="userSpaceOnUse" x1="26.5706" x2="26.5706" xlink:href="#n" y1="0" y2="53.1413"/><linearGradient id="p"><stop offset="0" stop-color="#b0e7c6"/><stop offset="1" stop-color="#5dd1b3"/></linearGradient><linearGradient id="q" gradientUnits="userSpaceOnUse" x1="19.4294" x2="19.4294" xlink:href="#p" y1="0" y2="38.8587"/><linearGradient id="r" gradientUnits="userSpaceOnUse" x1="16" x2="16" y1="0" y2="32"><stop offset="0" stop-color="#badbff"/><stop offset="1" stop-color="#89bcf4"/></linearGradient><linearGradient id="s" gradientUnits="userSpaceOnUse" x1="16" x2="16" xlink:href="#p" y1="0" y2="32"/><linearGradient id="t" gradientUnits="userSpaceOnUse" x1="16" x2="16" xlink:href="#n" y1="0" y2="32"/><linearGradient id="u" gradientUnits="userSpaceOnUse" x1="16" x2="16" xlink:href="#l" y1="7.81872" y2="32"/><linearGradient id="v" gradientUnits="userSpaceOnUse" x1="35" x2="35" xlink:href="#p" y1="0" y2="70"/><linearGradient id="w" gradientUnits="userSpaceOnUse" x1="35" x2="35" xlink:href="#l" y1="17.1034" y2="70"/><g filter="url(#a)"><rect fill="url(#m)" height="53.1413" rx="15" transform="matrix(-1 0 0 1 862.142 37)" width="53.1413"/></g><g filter="url(#b)"><rect fill="url(#o)" height="53.1413" rx="15" transform="matrix(-1 0 0 1 208.142 161)" width="53.1413"/></g><g filter="url(#c)"><rect fill="url(#q)" height="38.8587" rx="12" transform="matrix(-1 0 0 1 483.858 64)" width="38.8587"/></g><g filter="url(#d)"><rect fill="url(#r)" height="32" rx="12" transform="matrix(-1 0 0 1 886 326)" width="32"/></g><g filter="url(#e)"><rect fill="url(#s)" height="32" rx="12" transform="matrix(-1 0 0 1 97 369)" width="32"/></g><g filter="url(#f)"><rect fill="url(#t)" height="32" rx="12" transform="matrix(-1 0 0 1 1231 36)" width="32"/></g><g filter="url(#g)"><rect fill="url(#u)" height="32" rx="12" transform="matrix(-1 0 0 1 65 27)" width="32"/></g><g filter="url(#h)"><rect fill="url(#r)" height="32" rx="12" transform="matrix(-1 0 0 1 1300 416)" width="32"/></g><g filter="url(#i)"><rect fill="url(#v)" height="70" rx="22" transform="matrix(-1 0 0 1 1184 214)" width="70"/><path d="m1151.17 233.837c-.51-1.328-1.76-2.2-3.17-2.199-1.4-.001-2.66.868-3.16 2.192l-10.37 27.533c-.55 1.442.17 3.055 1.59 3.604 1.43.549 3.03-.175 3.57-1.616l1.91-5.058h12.85l1.89 5.05c.53 1.458 2.17 2.169 3.56 1.627 1.42-.544 2.14-2.156 1.6-3.599zm-7.53 18.871 4.35-11.551 4.31 11.551z" fill="#fff"/></g><g filter="url(#j)"><rect fill="url(#w)" height="70" rx="22" transform="matrix(-1 0 0 1 417 346)" width="70"/></g><g fill="#fff"><path d="m191.794 179.684h-8.088v-3.552c0-1.178-.988-2.132-2.206-2.132s-2.206.954-2.206 2.132v3.552h-8.088c-1.218 0-2.206.955-2.206 2.132s.988 2.131 2.206 2.131h1.471c.02 4.6 1.9 8.795 4.984 11.883-1.169.468-2.425.784-3.745.918-1.211.124-2.09 1.173-1.963 2.343.12 1.095 1.077 1.909 2.191 1.909.078 0 .156-.004.234-.012 2.592-.263 5.001-1.051 7.122-2.245 2.121 1.194 4.531 1.982 7.122 2.245.079.008.157.012.234.012 1.114 0 2.072-.814 2.191-1.909.127-1.17-.751-2.219-1.963-2.343-1.319-.134-2.575-.45-3.745-.918 3.084-3.088 4.964-7.283 4.984-11.883h1.471c1.218 0 2.206-.954 2.206-2.131s-.988-2.132-2.206-2.132zm-10.294 13.801c-2.705-2.361-4.388-5.767-4.41-9.538h8.82c-.022 3.771-1.705 7.177-4.41 9.538z"/><path d="m1290.59 426.579h-5.18v-2.237c0-.741-.63-1.342-1.41-1.342s-1.41.601-1.41 1.342v2.237h-5.18c-.78 0-1.41.601-1.41 1.342s.63 1.342 1.41 1.342h.94c.02 2.896 1.22 5.537 3.19 7.482-.75.295-1.55.494-2.39.578-.78.078-1.34.738-1.26 1.475.08.69.69 1.202 1.4 1.202.05 0 .1-.002.15-.007 1.66-.166 3.2-.662 4.56-1.414 1.36.752 2.9 1.248 4.56 1.414.05.005.1.007.15.007.71 0 1.32-.512 1.4-1.202.08-.737-.48-1.397-1.26-1.475-.84-.084-1.64-.283-2.39-.578 1.97-1.945 3.17-4.586 3.19-7.482h.94c.78 0 1.41-.601 1.41-1.342s-.63-1.342-1.41-1.342zm-6.59 8.689c-1.73-1.487-2.81-3.631-2.82-6.005h5.64c-.01 2.374-1.09 4.518-2.82 6.005z"/><path d="m850 63.5005c0-8.0081-6.492-14.5-14.5-14.5s-14.5 6.4919-14.5 14.5 6.492 14.5 14.5 14.5 14.5-6.4919 14.5-14.5z"/></g><path d="m835.5 48.9998c-6.234 0-11.549 3.9349-13.598 9.4566h27.197c-2.049-5.5217-7.364-9.4566-13.599-9.4566z" fill="#d80027"/><path d="m835.5 78.0005c6.235 0 11.55-3.935 13.599-9.4566h-27.197c2.049 5.5216 7.364 9.4566 13.598 9.4566z" fill="#0052b4"/><path d="m81 393c4.4183 0 8-3.582 8-8s-3.5817-8-8-8-8 3.582-8 8 3.5817 8 8 8z" fill="#fff"/><path d="m89.0006 385c0-3.439-2.171-6.372-5.2174-7.502v15.005c3.0464-1.131 5.2174-4.063 5.2174-7.503z" fill="#d80027"/><path d="m73 385c0 3.44 2.171 6.372 5.2174 7.503v-15.005c-3.0464 1.13-5.2174 4.063-5.2174 7.502z" fill="#47a56c"/><path d="m475 83.499c0 5.799-4.701 10.5-10.5 10.5s-10.5-4.701-10.5-10.5 4.701-10.5 10.5-10.5 10.5 4.701 10.5 10.5z" fill="#d80027"/><path d="m464.5 93.9999c-4.514 0-8.363-2.8495-9.847-6.8479h19.694c-1.483 3.9984-5.332 6.8479-9.847 6.8479z" fill="#ffe601"/><path d="m464.5 72.9994c4.515 0 8.364 2.8495 9.847 6.8478h-19.694c1.484-3.9983 5.333-6.8478 9.847-6.8478z" fill="#151515"/><path d="m878 342c0 4.418-3.582 8-8 8s-8-3.582-8-8 3.582-8 8-8 8 3.582 8 8z" fill="#fff"/><path d="m874 342c0 2.209-1.791 4-4 4s-4-1.791-4-4 1.791-4 4-4 4 1.791 4 4z" fill="#d80027"/><g filter="url(#k)"><path d="m381.988 402c11.605 0 21.012-9.407 21.012-21.012 0-11.604-9.407-21.011-21.012-21.011-11.604 0-21.011 9.407-21.011 21.011 0 11.605 9.407 21.012 21.011 21.012z" fill="#fff"/></g><path clip-rule="evenodd" d="m402.822 378.248h-18.093v-18.094c-.897-.116-1.812-.177-2.741-.177s-1.843.061-2.74.177v18.094h-18.094c-.116.897-.177 1.811-.177 2.74s.061 1.844.177 2.741h18.094v18.093c.897.117 1.811.178 2.74.178s1.844-.061 2.741-.178v-18.093h18.093c.117-.897.178-1.812.178-2.741s-.061-1.843-.178-2.74zm-15.353 8.222 9.376 9.376c.431-.431.842-.882 1.235-1.349l-8.027-8.027zm-10.962 0v2.584l-8.027 8.027c-.467-.392-.918-.804-1.349-1.235zm0-10.963-9.376-9.376c-.432.431-.843.881-1.235 1.349l8.027 8.027zm20.338-9.376-9.376 9.376v-2.584l8.027-8.027c.467.392.918.804 1.349 1.235z" fill="#d80027" fill-rule="evenodd"/><path clip-rule="evenodd" d="m387.47 360.7c2.689.725 5.164 1.97 7.311 3.62l-7.311 7.311zm-25.77 14.807c.725-2.689 1.969-5.164 3.62-7.311l7.311 7.311zm36.956-7.311c1.65 2.147 2.895 4.622 3.619 7.311h-10.93zm-36.956 18.274c.725 2.688 1.969 5.164 3.62 7.311l7.311-7.311zm7.496 11.187c2.147 1.65 4.623 2.895 7.311 3.619v-10.93zm0-33.337c2.147-1.65 4.622-2.895 7.311-3.62v10.931zm18.274 36.956c2.689-.724 5.164-1.969 7.311-3.619l-7.311-7.311zm11.186-7.495-7.311-7.311h10.93c-.724 2.688-1.969 5.164-3.619 7.311z" fill="#0052b4" fill-rule="evenodd"/><path d="m1223 52c0 4.4183-3.58 8-8 8s-8-3.5817-8-8 3.58-8 8-8 8 3.5817 8 8z" fill="#d80027"/><path d="m1218.25 50.4539-2.09-.1973c-.13-.0119-.25-.0956-.3-.2212l-.75-1.8112c-.12-.2989-.54-.2989-.66 0l-.74 1.8112c-.05.1256-.17.2093-.3.2212l-2.09.1973c-.31.0299-.43.4184-.2.6277l1.57 1.3808c.1.0897.15.2212.12.3527l-.48 1.9368c-.07.3049.26.5559.54.3946l1.74-1.0223c.11-.0658.25-.0658.36 0l1.74 1.0223c.27.1613.6-.0837.53-.3946l-.46-1.9368c-.03-.1315.01-.263.11-.3527l1.57-1.3808c.23-.2093.1-.5978-.21-.6277z" fill="#ffe451"/><path d="m49.7921 35.9185c-.202-.5547-.7072-.9192-1.2729-.9185-.5649-.0006-1.0692.3624-1.2721.9157l-4.174 11.502c-.2185.6021.0694 1.2761.6432 1.5054.5736.2293 1.2159-.073 1.4344-.675l.7668-2.1132h5.1719l.7587 2.1099c.2162.6088.8731.9058 1.4325.6795.5743-.2275.8643-.9005.6475-1.5034zm-3.0278 7.8832 1.7511-4.8254 1.7352 4.8254z" fill="#fff"/></svg>