<svg fill="none" height="157" viewBox="0 0 157 157" width="157" xmlns="http://www.w3.org/2000/svg" xmlns:xlink="http://www.w3.org/1999/xlink"><filter id="a" color-interpolation-filters="sRGB" filterUnits="userSpaceOnUse" height="157" width="157" x="0" y="0"><feFlood flood-opacity="0" result="BackgroundImageFix"/><feColorMatrix in="SourceAlpha" result="hardAlpha" type="matrix" values="0 0 0 0 0 0 0 0 0 0 0 0 0 0 0 0 0 0 127 0"/><feOffset dy="9"/><feGaussianBlur stdDeviation="15"/><feColorMatrix type="matrix" values="0 0 0 0 0.593438 0 0 0 0 0.707729 0 0 0 0 0.879167 0 0 0 0.25 0"/><feBlend in2="BackgroundImageFix" mode="normal" result="effect1_dropShadow"/><feBlend in="SourceGraphic" in2="effect1_dropShadow" mode="normal" result="shape"/></filter><linearGradient id="b" gradientUnits="userSpaceOnUse" x1="79" x2="79" y1="57.2167" y2="95"><stop offset="0" stop-color="#ffed49"/><stop offset="1" stop-color="#ffc369"/></linearGradient><g filter="url(#a)"><rect fill="#fff" height="97" rx="25" width="97" x="30" y="21"/></g><path d="m103.352 94.3475c-.42.4217-.989.6525-1.572.6525-.143 0-.287-.0133-.43-.0429l-13.2093-2.0359c-1.8215.7339-3.7495 1.2591-5.7545 1.5432-1.0609.1509-2.1455.2352-3.2449.2456-.0947.003-.188.003-.2827.003-13.7284 0-24.8586-11.1292-24.8586-24.8565s11.1302-24.8565 24.8586-24.8565c.0947 0 .1894 0 .2827.0015 13.5982.1524 24.5757 11.2224 24.5757 24.855 0 .9602-.054 1.9071-.161 2.8378-.246 2.1749-.774 4.264-1.545 6.2318l1.946 13.4196c.145.7264-.081 1.4781-.605 2.0018z" fill="url(#b)"/><path clip-rule="evenodd" d="m81.9676 71.6867c1.3082-.4483 2.508-1.2089 3.4744-2.2305 1.6408-1.7326 2.4749-3.9999 2.3518-6.3829-.2333-4.4849-3.9337-8.0677-8.426-8.1596-.0533-.0018-.1047-.0018-.1562-.0018-4.2993-.0019-7.9574 3.1547-8.5527 7.4173-.0552.3932-.0827.7974-.0827 1.1979 0 1.5232 1.2347 2.756 2.756 2.756 1.5231 0 2.756-1.2328 2.756-2.756 0-.147.011-.2921.0312-.4354.2131-1.5379 1.5397-2.6789 3.0922-2.666h.0441c1.6169.0331 2.949 1.321 3.0335 2.9324.0441.8635-.2573 1.683-.8507 2.3095-.588.6229-1.3798.9683-2.2269.972h-.0091c-1.5177.0036-2.7469 1.2365-2.7469 2.756v5.9125c0 1.5213 1.2329 2.756 2.756 2.756 1.5214 0 2.756-1.2347 2.756-2.756zm-.0001 10.6931c0 1.522-1.2339 2.756-2.756 2.756s-2.756-1.234-2.756-2.756c0-1.5221 1.2339-2.756 2.756-2.756s2.756 1.2339 2.756 2.756z" fill="#5183bb" fill-rule="evenodd"/></svg>