<svg fill="none" height="60" viewBox="0 0 60 60" width="60" xmlns="http://www.w3.org/2000/svg" xmlns:xlink="http://www.w3.org/1999/xlink"><linearGradient id="a" gradientUnits="userSpaceOnUse" x1="30" x2="30" y1="3.63281" y2="42.3047"><stop offset="0" stop-color="#85beff"/><stop offset="1" stop-color="#5183bb"/></linearGradient><linearGradient id="b" gradientUnits="userSpaceOnUse" x1="30" x2="30" y1="45.8203" y2="56.3672"><stop offset="0" stop-color="#b0e7c6"/><stop offset="1" stop-color="#5dd1b3"/></linearGradient><g clip-rule="evenodd" fill-rule="evenodd"><path d="m24.6094 10.6641h33.6328c.9708 0 1.7578.787 1.7578 1.7578v21.0937c0 .9708-.787 1.7578-1.7578 1.7578h-33.6328v3.5157h1.7578c.9708 0 1.7578.787 1.7578 1.7578s-.787 1.7578-1.7578 1.7578h-7.0313c-.9707 0-1.7578-.787-1.7578-1.7578s.7871-1.7578 1.7578-1.7578h1.7579v-3.5157h-19.33599c-.970779 0-1.75781-.787-1.75781-1.7578v-21.0937c0-.9708.787031-1.7578 1.75781-1.7578h19.33599v-3.51566h-1.7579c-.9707 0-1.7578-.78703-1.7578-1.75782 0-.97078.7871-1.75781 1.7578-1.75781h7.0313c.9708 0 1.7578.78703 1.7578 1.75781 0 .97079-.787 1.75782-1.7578 1.75782h-1.7578zm-21.09378 3.5156v17.5781h17.57818v-17.5781zm21.09378 17.5781h31.875v-17.5781h-31.875zm-15.82034-14.0625h7.03124c.9708 0 1.7578.787 1.7578 1.7578s-.787 1.7578-1.7578 1.7578h-1.7578v5.2735c0 .9708-.787 1.7578-1.7578 1.7578s-1.7578-.787-1.7578-1.7578v-5.2735h-1.75784c-.97078 0-1.75781-.787-1.75781-1.7578s.78703-1.7578 1.75781-1.7578z" fill="url(#a)"/><path d="m1.75781 45.8203h56.48439c.9708 0 1.7578.787 1.7578 1.7578s-.787 1.7578-1.7578 1.7578h-56.48439c-.970779 0-1.75781-.787-1.75781-1.7578s.787031-1.7578 1.75781-1.7578zm0 7.0313h56.48439c.9708 0 1.7578.787 1.7578 1.7578s-.787 1.7578-1.7578 1.7578h-56.48439c-.970779 0-1.75781-.787-1.75781-1.7578s.787031-1.7578 1.75781-1.7578z" fill="url(#b)"/></g></svg>