<svg width="60" height="60" viewBox="0 0 60 60" fill="none" xmlns="http://www.w3.org/2000/svg">
<path d="M30.9924 9.51086L29.5573 0H8.50085C5.3302 0 2.8125 2.58325 2.8125 5.75354V45.5709C2.8125 48.7412 5.3302 51.2721 8.50085 51.2721H28.4747L42.8646 29.4844V13.9468L30.9924 9.51086Z" fill="url(#paint0_linear_704_24338)"/>
<path d="M29.5573 0.0131836L42.8254 13.9468H33.9932C31.5403 13.9468 29.5573 11.9637 29.5573 9.51086V0.0131836Z" fill="#5183BB"/>
<path d="M29.0485 29.876H12.0493C11.3319 29.876 10.7445 30.4634 10.7445 31.1808C10.7445 31.8986 11.3319 32.4852 12.0493 32.4852H29.0485C29.7659 32.4852 30.3533 31.8986 30.3533 31.1808C30.3533 30.4634 29.7794 29.876 29.0485 29.876Z" fill="white"/>
<path d="M12.0493 25.9623H25.2651C25.9825 25.9623 26.5699 25.3752 26.5699 24.6575C26.5699 23.9401 25.9825 23.353 25.2651 23.353H12.0493C11.3319 23.353 10.7445 23.9401 10.7445 24.6575C10.7445 25.3752 11.3319 25.9623 12.0493 25.9623Z" fill="white"/>
<path d="M24.7561 36.5295H12.0493C11.3319 36.5295 10.7445 37.1169 10.7445 37.834C10.7445 38.5518 11.3319 39.1388 12.0493 39.1388H24.7561C25.4739 39.1388 26.0609 38.5518 26.0609 37.834C26.0609 37.1169 25.4739 36.5295 24.7561 36.5295Z" fill="white"/>
<path d="M44.1779 28.9593C51.764 30.0229 57.5999 36.5297 57.5999 44.4059C57.5999 53.0161 50.6138 60 42.0001 60C36.0783 60 30.9149 56.6978 28.2841 51.83C27.0851 49.6163 26.3999 47.0847 26.3999 44.3939C26.3999 35.7837 33.3864 28.8 42.0001 28.8C42.7344 28.8124 43.456 28.8615 44.1779 28.9593Z" fill="url(#paint1_linear_704_24338)"/>
<path d="M42.7628 36.3229C42.5637 36.1212 42.2907 36 41.997 36C41.703 36 41.4303 36.1212 41.2308 36.3229L35.0814 42.6699C34.6828 43.0735 34.7143 43.7193 35.1341 44.0923C35.3332 44.2741 35.5959 44.3651 35.8478 44.3651C36.1309 44.3651 36.4245 44.2537 36.6346 44.0422L40.979 39.5719V50.5908C40.979 51.1457 41.4512 51.6 42.0282 51.6C42.6056 51.6 43.0777 51.1457 43.0777 50.5908V39.5719L47.3907 44.0422C47.7895 44.4458 48.4402 44.4758 48.8702 44.0923C49.29 43.7091 49.3109 43.0735 48.9226 42.6699L42.7628 36.3229Z" fill="white"/>
<defs>
<linearGradient id="paint0_linear_704_24338" x1="22.8386" y1="0" x2="22.8386" y2="51.2721" gradientUnits="userSpaceOnUse">
<stop stop-color="#85BEFF"/>
<stop offset="1" stop-color="#5183BB"/>
</linearGradient>
<linearGradient id="paint1_linear_704_24338" x1="41.9999" y1="28.8" x2="41.9999" y2="60" gradientUnits="userSpaceOnUse">
<stop stop-color="#B0E7C6"/>
<stop offset="1" stop-color="#5DD1B3"/>
</linearGradient>
</defs>
</svg>
