<svg fill="none" height="50" viewBox="0 0 830 50" width="830" xmlns="http://www.w3.org/2000/svg" xmlns:xlink="http://www.w3.org/1999/xlink"><linearGradient id="a"><stop offset="0" stop-color="#b0e7c6"/><stop offset="1" stop-color="#5dd1b3"/></linearGradient><linearGradient id="b" gradientUnits="userSpaceOnUse" x1="25" x2="25" xlink:href="#a" y1="0" y2="50"/><linearGradient id="c" gradientUnits="userSpaceOnUse" x1="14" x2="14" xlink:href="#a" y1="0" y2="28"/><path d="m18 25h780" stroke="#f7fbfd" stroke-dasharray="4 6" stroke-linecap="round" stroke-linejoin="round"/><g fill="url(#b)"><rect height="50" opacity=".45" rx="25" transform="matrix(-1 0 0 1 50 0)" width="50"/><rect height="50" opacity=".45" rx="25" transform="matrix(-1 0 0 1 440 0)" width="50"/><rect height="50" opacity=".45" rx="25" transform="matrix(-1 0 0 1 830 0)" width="50"/></g><rect fill="url(#c)" height="28" rx="14" transform="matrix(-1 0 0 1 39 11)" width="28"/><rect fill="url(#c)" height="28" rx="14" transform="matrix(-1 0 0 1 429 11)" width="28"/><rect fill="url(#c)" height="28" rx="14" transform="matrix(-1 0 0 1 819 11)" width="28"/></svg>