<svg width="40" height="40" viewBox="0 0 40 40" fill="none" xmlns="http://www.w3.org/2000/svg">
<rect width="40.0004" height="40" rx="12" transform="matrix(-1 0 0 1 40 0)" fill="#EE5E5E"/>
<path fill-rule="evenodd" clip-rule="evenodd" d="M16.9016 9.98984C16.9016 9.49279 16.4986 9.08984 16.0016 9.08984C15.5045 9.08984 15.1016 9.49279 15.1016 9.98984V10.6317C13.594 10.7796 12.3803 11.3194 11.5139 12.2524C10.4953 13.3494 10.0859 14.8519 10.0859 16.4898V24.9898C10.0859 26.6278 10.4953 28.1303 11.5139 29.2272C12.5438 30.3363 14.0644 30.8898 15.9859 30.8898H23.0244C23.8496 31.522 24.8817 31.8977 26.0016 31.8977C28.7078 31.8977 30.9016 29.7039 30.9016 26.9977C30.9016 25.8732 30.5228 24.8372 29.8859 24.0103V16.4898C29.8859 14.8519 29.4766 13.3494 28.4579 12.2524C27.5916 11.3194 26.3779 10.7796 24.8703 10.6317V9.98984C24.8703 9.49279 24.4674 9.08984 23.9703 9.08984C23.4733 9.08984 23.0703 9.49279 23.0703 9.98984V10.5898H16.9016V9.98984ZM12.833 13.4772C13.308 12.9657 14.0278 12.578 15.1016 12.4423V12.9898C15.1016 13.4869 15.5045 13.8898 16.0016 13.8898C16.4986 13.8898 16.9016 13.4869 16.9016 12.9898V12.3898H23.0703V12.9898C23.0703 13.4869 23.4733 13.8898 23.9703 13.8898C24.4674 13.8898 24.8703 13.4869 24.8703 12.9898V12.4423C25.9441 12.578 26.6639 12.9657 27.1389 13.4772C27.7001 14.0816 28.0337 14.981 28.0803 16.1914H11.8916C11.9382 14.981 12.2718 14.0816 12.833 13.4772ZM11.8859 17.9914H28.0859V22.5618C28.0011 22.5219 27.9149 22.4843 27.8275 22.4492C27.2603 22.218 26.6388 22.0898 25.9859 22.0898C23.2789 22.0898 21.0859 24.2828 21.0859 26.9898C21.0859 27.7353 21.2554 28.4509 21.5632 29.0898H15.9859C14.4075 29.0898 13.4281 28.6434 12.833 28.0024C12.2266 27.3494 11.8859 26.3519 11.8859 24.9898V17.9914ZM26.0016 30.0977C25.2469 30.0977 24.5553 29.828 24.0177 29.3798C23.9918 29.3518 23.964 29.3252 23.9343 29.3003C23.8817 29.2562 23.8305 29.2096 23.7809 29.1607C23.2368 28.6021 22.9016 27.839 22.9016 26.9977C22.9016 25.2856 24.2895 23.8977 26.0016 23.8977C26.4277 23.8977 26.8337 23.9836 27.2032 24.1392C27.6301 24.3227 28.0071 24.5997 28.3101 24.9442C28.3379 24.9758 28.3675 25.0051 28.3988 25.032C28.8379 25.5669 29.1016 26.2515 29.1016 26.9977C29.1016 28.7097 27.7136 30.0977 26.0016 30.0977ZM24.2933 25.3628C24.644 25.0105 25.2138 25.0091 25.5661 25.3598L25.9923 25.7839L26.3914 25.3847C26.7429 25.0332 27.3127 25.0332 27.6642 25.3847C28.0157 25.7362 28.0157 26.306 27.6642 26.6575L27.2681 27.0536L27.6861 27.4697C28.0385 27.8204 28.0398 28.3902 27.6892 28.7425C27.3385 29.0948 26.7687 29.0962 26.4164 28.7455L25.9953 28.3264L25.5442 28.7775C25.1927 29.129 24.6229 29.129 24.2714 28.7775C23.9199 28.426 23.9199 27.8562 24.2714 27.5047L24.7195 27.0567L24.2964 26.6356C23.9441 26.2849 23.9427 25.7151 24.2933 25.3628ZM19.9812 20.4922C19.3185 20.4922 18.7812 21.0294 18.7812 21.6922C18.7812 22.3549 19.3185 22.8922 19.9812 22.8922H19.9902C20.653 22.8922 21.1902 22.3549 21.1902 21.6922C21.1902 21.0294 20.653 20.4922 19.9902 20.4922H19.9812ZM14.4688 21.6922C14.4688 21.0294 15.006 20.4922 15.6687 20.4922H15.6777C16.3405 20.4922 16.8777 21.0294 16.8777 21.6922C16.8777 22.3549 16.3405 22.8922 15.6777 22.8922H15.6687C15.006 22.8922 14.4688 22.3549 14.4688 21.6922ZM15.6687 24.0898C15.006 24.0898 14.4688 24.6271 14.4688 25.2898C14.4688 25.9526 15.006 26.4898 15.6687 26.4898H15.6777C16.3405 26.4898 16.8777 25.9526 16.8777 25.2898C16.8777 24.6271 16.3405 24.0898 15.6777 24.0898H15.6687Z" fill="white"/>
</svg>
