<svg width="40" height="40" viewBox="0 0 40 40" fill="none" xmlns="http://www.w3.org/2000/svg">
<rect width="40.0004" height="40" rx="12" transform="matrix(-1 0 0 1 40 0)" fill="#EE5E5E"/>
<path fill-rule="evenodd" clip-rule="evenodd" d="M12.6816 10.9133C11.7064 10.9133 10.9016 11.7125 10.9016 12.6933V15.3233C10.9016 16.2984 11.7008 17.1033 12.6816 17.1033H27.3116C28.2845 17.1033 29.0916 16.2962 29.0916 15.3233V12.6933C29.0916 11.7182 28.2923 10.9133 27.3116 10.9133H12.6816ZM9.10156 12.6933C9.10156 10.7141 10.7167 9.11328 12.6816 9.11328H27.3116C29.2908 9.11328 30.8916 10.7284 30.8916 12.6933V15.3233C30.8916 17.2903 29.2786 18.9033 27.3116 18.9033H12.6816C10.7023 18.9033 9.10156 17.2882 9.10156 15.3233V12.6933ZM12.6816 22.9133C11.7064 22.9133 10.9016 23.7125 10.9016 24.6933V27.3233C10.9016 28.2984 11.7008 29.1033 12.6816 29.1033H27.3116C28.2845 29.1033 29.0916 28.2962 29.0916 27.3233V24.6933C29.0916 23.7182 28.2923 22.9133 27.3116 22.9133H12.6816ZM9.10156 24.6933C9.10156 22.7141 10.7167 21.1133 12.6816 21.1133H27.3116C29.2908 21.1133 30.8916 22.7284 30.8916 24.6933V27.3233C30.8916 29.2903 29.2786 30.9033 27.3116 30.9033H12.6816C10.7023 30.9033 9.10156 29.2882 9.10156 27.3233V24.6933ZM14.8859 12.9898C14.8859 12.4928 14.483 12.0898 13.9859 12.0898C13.4889 12.0898 13.0859 12.4928 13.0859 12.9898V14.9898C13.0859 15.4869 13.4889 15.8898 13.9859 15.8898C14.483 15.8898 14.8859 15.4869 14.8859 14.9898V12.9898ZM17.9703 12.0898C18.4674 12.0898 18.8703 12.4928 18.8703 12.9898V14.9898C18.8703 15.4869 18.4674 15.8898 17.9703 15.8898C17.4733 15.8898 17.0703 15.4869 17.0703 14.9898V12.9898C17.0703 12.4928 17.4733 12.0898 17.9703 12.0898ZM14.8859 24.9898C14.8859 24.4928 14.483 24.0898 13.9859 24.0898C13.4889 24.0898 13.0859 24.4928 13.0859 24.9898V26.9898C13.0859 27.4869 13.4889 27.8898 13.9859 27.8898C14.483 27.8898 14.8859 27.4869 14.8859 26.9898V24.9898ZM17.9703 24.0898C18.4674 24.0898 18.8703 24.4928 18.8703 24.9898V26.9898C18.8703 27.4869 18.4674 27.8898 17.9703 27.8898C17.4733 27.8898 17.0703 27.4869 17.0703 26.9898V24.9898C17.0703 24.4928 17.4733 24.0898 17.9703 24.0898ZM22.0016 13.0977C21.5045 13.0977 21.1016 13.5006 21.1016 13.9977C21.1016 14.4947 21.5045 14.8977 22.0016 14.8977H26.0016C26.4986 14.8977 26.9016 14.4947 26.9016 13.9977C26.9016 13.5006 26.4986 13.0977 26.0016 13.0977H22.0016ZM21.9652 23.9528C22.3166 23.6013 22.8865 23.6013 23.238 23.9528L23.7969 24.5117L24.3558 23.9528C24.7073 23.6013 25.2771 23.6013 25.6286 23.9528C25.9801 24.3043 25.9801 24.8741 25.6286 25.2256L25.0697 25.7845L25.638 26.3528C25.9894 26.7043 25.9894 27.2741 25.638 27.6256C25.2865 27.9771 24.7166 27.9771 24.3652 27.6256L23.7969 27.0573L23.2286 27.6256C22.8771 27.9771 22.3073 27.9771 21.9558 27.6256C21.6043 27.2741 21.6043 26.7043 21.9558 26.3528L22.5241 25.7845L21.9652 25.2256C21.6137 24.8741 21.6137 24.3043 21.9652 23.9528Z" fill="white"/>
</svg>
