<svg width="55" height="55" viewBox="0 0 55 55" fill="none" xmlns="http://www.w3.org/2000/svg">
<circle cx="27.5" cy="27.5" r="27.5" fill="#DFFBFF"/>
<path fill-rule="evenodd" clip-rule="evenodd" d="M11 26.8C11 21.9607 14.866 18 19.6608 18C22.5568 18 25.0591 19.4507 26.6098 21.6262C27.1457 22.378 26.9753 23.4254 26.2291 23.9654C25.483 24.5055 24.4436 24.3337 23.9077 23.5818C22.9362 22.2189 21.4093 21.3524 19.6608 21.3524C16.7354 21.3524 14.3268 23.7797 14.3268 26.8C14.3268 29.8203 16.7354 32.2476 19.6608 32.2476C21.6665 32.2476 23.5406 31.1715 24.5821 29.4043L26.6258 25.947L26.6286 25.9422L28.6558 22.4868L28.6575 22.4839C30.2919 19.7107 33.2468 18 36.4392 18C41.234 18 45.1 21.9607 45.1 26.8C45.1 31.6393 41.234 35.6 36.4392 35.6C33.5552 35.6 31.0579 34.1468 29.4958 31.9817C28.9556 31.2329 29.1201 30.1846 29.8631 29.6402C30.6062 29.0959 31.6465 29.2616 32.1867 30.0103C33.1775 31.3837 34.7096 32.2476 36.4392 32.2476C39.3646 32.2476 41.7732 29.8204 41.7732 26.8C41.7732 23.7796 39.3646 21.3524 36.4392 21.3524C34.434 21.3524 32.5603 22.428 31.5187 24.1945C31.5184 24.1949 31.5182 24.1953 31.5179 24.1957L29.4896 27.653L29.4868 27.6578L27.4425 31.1161C27.4422 31.1167 27.4418 31.1173 27.4415 31.1179C27.4415 31.1179 27.4415 31.1179 27.4415 31.1179C25.8068 33.89 22.8525 35.6 19.6608 35.6C14.866 35.6 11 31.6393 11 26.8Z" fill="#009CB7"/>
</svg>
