<svg width="52" height="52" viewBox="0 0 52 52" fill="none" xmlns="http://www.w3.org/2000/svg">
<g filter="url(#filter0_d_10439_20035)">
<circle cx="26" cy="24" r="20" fill="#3874CD"/>
<circle cx="26" cy="24" r="20" stroke="#87B7FF"/>
</g>
<path fill-rule="evenodd" clip-rule="evenodd" d="M21 19C21 18.7544 21.2251 18.2628 22.2046 17.7731C23.1242 17.3133 24.4647 17 26 17C27.5353 17 28.8758 17.3133 29.7954 17.7731C30.7738 18.2623 30.9995 18.7533 31 18.9992C31 18.9995 31 18.9997 31 19C31 19.0003 31 19.0006 31 19.001C30.9994 19.2469 30.7736 19.7378 29.7954 20.2269C28.8758 20.6867 27.5353 21 26 21C24.4647 21 23.1242 20.6867 22.2046 20.2269C21.2251 19.7372 21 19.2456 21 19ZM21 21.85C21.1024 21.9084 21.206 21.9637 21.3101 22.0157C22.5621 22.6417 24.2216 23 26 23C27.7784 23 29.4379 22.6417 30.6899 22.0157C30.794 21.9637 30.8976 21.9084 31 21.85V24V24.0007C30.9996 24.2465 30.774 24.7376 29.7954 25.2269C28.8758 25.6867 27.5353 26 26 26C24.4647 26 23.1242 25.6867 22.2046 25.2269C21.2259 24.7376 21.0004 24.2464 21 24.0006L21 24V21.85ZM33 19V24V29C33 30.4113 31.8819 31.4197 30.6899 32.0157C29.4379 32.6417 27.7784 33 26 33C24.2216 33 22.5621 32.6417 21.3101 32.0157C20.1181 31.4197 19 30.4113 19 29V24V19C19 17.5887 20.1181 16.5803 21.3101 15.9843C22.5621 15.3583 24.2216 15 26 15C27.7784 15 29.4379 15.3583 30.6899 15.9843C31.8819 16.5803 33 17.5887 33 19ZM30.6899 27.0157C30.794 26.9637 30.8976 26.9084 31 26.85V29C31 29.2456 30.7749 29.7372 29.7954 30.2269C28.8758 30.6867 27.5353 31 26 31C24.4647 31 23.1242 30.6867 22.2046 30.2269C21.2261 29.7377 21.0005 29.2466 21 29.0008L21 29L21 26.85C21.1024 26.9084 21.206 26.9637 21.3101 27.0157C22.5621 27.6417 24.2216 28 26 28C27.7784 28 29.4379 27.6417 30.6899 27.0157Z" fill="white"/>
<defs>
<filter id="filter0_d_10439_20035" x="0.5" y="0.5" width="51" height="51" filterUnits="userSpaceOnUse" color-interpolation-filters="sRGB">
<feFlood flood-opacity="0" result="BackgroundImageFix"/>
<feColorMatrix in="SourceAlpha" type="matrix" values="0 0 0 0 0 0 0 0 0 0 0 0 0 0 0 0 0 0 127 0" result="hardAlpha"/>
<feOffset dy="2"/>
<feGaussianBlur stdDeviation="2.5"/>
<feComposite in2="hardAlpha" operator="out"/>
<feColorMatrix type="matrix" values="0 0 0 0 0.0147917 0 0 0 0 0.176317 0 0 0 0 0.591667 0 0 0 0.25 0"/>
<feBlend mode="normal" in2="BackgroundImageFix" result="effect1_dropShadow_10439_20035"/>
<feBlend mode="normal" in="SourceGraphic" in2="effect1_dropShadow_10439_20035" result="shape"/>
</filter>
</defs>
</svg>
