<svg fill="none" height="410" viewBox="0 0 460 410" width="460" xmlns="http://www.w3.org/2000/svg" xmlns:xlink="http://www.w3.org/1999/xlink"><filter id="a" color-interpolation-filters="sRGB" filterUnits="userSpaceOnUse" height="64.3166" width="56.9443" x="379.31" y="227.833"><feFlood flood-opacity="0" result="BackgroundImageFix"/><feColorMatrix in="SourceAlpha" result="hardAlpha" type="matrix" values="0 0 0 0 0 0 0 0 0 0 0 0 0 0 0 0 0 0 127 0"/><feOffset dx="2" dy="2"/><feGaussianBlur stdDeviation="2"/><feColorMatrix type="matrix" values="0 0 0 0 0.0846528 0 0 0 0 0.150363 0 0 0 0 0.383333 0 0 0 0.25 0"/><feBlend in2="BackgroundImageFix" mode="normal" result="effect1_dropShadow"/><feBlend in="SourceGraphic" in2="effect1_dropShadow" mode="normal" result="shape"/></filter><filter id="b" color-interpolation-filters="sRGB" filterUnits="userSpaceOnUse" height="322.861" width="169.345" x="175.563" y="65.4248"><feFlood flood-opacity="0" result="BackgroundImageFix"/><feColorMatrix in="SourceAlpha" result="hardAlpha" type="matrix" values="0 0 0 0 0 0 0 0 0 0 0 0 0 0 0 0 0 0 127 0"/><feOffset dx="2" dy="2"/><feGaussianBlur stdDeviation="2"/><feColorMatrix type="matrix" values="0 0 0 0 0.0846528 0 0 0 0 0.150363 0 0 0 0 0.383333 0 0 0 0.25 0"/><feBlend in2="BackgroundImageFix" mode="normal" result="effect1_dropShadow"/><feBlend in="SourceGraphic" in2="effect1_dropShadow" mode="normal" result="shape"/></filter><filter id="c" color-interpolation-filters="sRGB" filterUnits="userSpaceOnUse" height="106.417" width="105.894" x="298.511" y=".577637"><feFlood flood-opacity="0" result="BackgroundImageFix"/><feColorMatrix in="SourceAlpha" result="hardAlpha" type="matrix" values="0 0 0 0 0 0 0 0 0 0 0 0 0 0 0 0 0 0 127 0"/><feOffset dx="2" dy="2"/><feGaussianBlur stdDeviation="2"/><feColorMatrix type="matrix" values="0 0 0 0 0.0846528 0 0 0 0 0.150363 0 0 0 0 0.383333 0 0 0 0.25 0"/><feBlend in2="BackgroundImageFix" mode="normal" result="effect1_dropShadow"/><feBlend in="SourceGraphic" in2="effect1_dropShadow" mode="normal" result="shape"/></filter><linearGradient id="d"><stop offset="0" stop-color="#b0e7c6"/><stop offset="1" stop-color="#5dd1b3"/></linearGradient><linearGradient id="e" gradientUnits="userSpaceOnUse" x1="405.783" x2="405.783" xlink:href="#d" y1="170.957" y2="260.551"/><linearGradient id="f" gradientUnits="userSpaceOnUse" x1="258.236" x2="258.236" y1="67.4248" y2="382.286"><stop offset="0" stop-color="#fff"/><stop offset="1" stop-color="#d7f1f9"/></linearGradient><linearGradient id="g"><stop offset="0" stop-color="#85beff"/><stop offset="1" stop-color="#5183bb"/></linearGradient><linearGradient id="h" gradientUnits="userSpaceOnUse" x1="211.141" x2="211.141" xlink:href="#g" y1="201.959" y2="233.246"/><linearGradient id="i" gradientUnits="userSpaceOnUse" x1="242.442" x2="242.442" xlink:href="#d" y1="190.867" y2="233.246"/><linearGradient id="j" gradientUnits="userSpaceOnUse" x1="274.029" x2="274.029" xlink:href="#g" y1="174.939" y2="233.531"/><linearGradient id="k" gradientUnits="userSpaceOnUse" x1="306.468" x2="306.468" xlink:href="#d" y1="162.139" y2="233.246"/><linearGradient id="l" gradientUnits="userSpaceOnUse" x1="348.967" x2="349.947" xlink:href="#d" y1="2.58015" y2="100.992"/><linearGradient id="m" gradientUnits="userSpaceOnUse" x1="153.725" x2="153.725" xlink:href="#d" y1="161.285" y2="193.837"/><linearGradient id="n" gradientUnits="userSpaceOnUse" x1="176.141" x2="176.141" xlink:href="#d" y1="134.265" y2="174.314"/><linearGradient id="o" gradientUnits="userSpaceOnUse" x1="96.1809" x2="96.1809" xlink:href="#d" y1="189.628" y2="285.215"/><path d="m447.328 397.361h-441.35225c-3.41471 0-5.97575 2.844-5.97575 5.973 0 3.413 2.8456 5.973 5.97575 5.973h441.35225c3.415 0 5.976-2.844 5.976-5.973.284-3.129-2.561-5.973-5.976-5.973z" fill="#d7f1f9"/><path d="m446.759 260.551c17.074 0 31.017-13.936 31.017-31.002s-13.943-31.003-31.017-31.003c-3.984 0-7.683.854-11.098 1.991-.853-16.497-14.228-29.58-31.017-29.58-16.219 0-29.309 12.23-31.017 27.874-2.845-.854-5.691-1.422-8.821-1.422-17.074 0-31.017 13.937-31.017 31.002 0 17.066 13.943 31.287 31.017 31.287z" fill="url(#e)"/><g filter="url(#a)"><path d="m393.546 286.15h24.472v-24.177h12.236l-24.472-32.14-24.472 32.14h12.236z" fill="#5183bb"/></g><path d="m320.697 48.3682h-125.206c-20.488 0-36.993 16.4968-36.993 36.9755v279.0233c0 20.479 16.505 36.976 36.993 36.976h125.491c20.488 0 36.992-16.497 36.992-36.976v-279.0233c0-20.4787-16.789-36.9755-37.277-36.9755z" fill="#5183bb"/><g filter="url(#b)"><path d="m195.491 382.286c-9.96 0-17.928-7.964-17.928-17.919v-279.0233c0-9.9549 7.968-17.9189 17.928-17.9189h125.491c9.959 0 17.927 7.964 17.927 17.9189v279.0233c0 9.955-7.968 17.919-17.927 17.919z" fill="url(#f)"/></g><g fill="#5183bb"><path d="m316.713 58.323h-117.238l7.114 14.7902c3.699 7.6796 11.382 12.5148 19.919 12.5148h62.887c8.537 0 16.22-4.8352 19.92-12.5148z"/><path d="m269.475 288.994h-64.595c-2.276 0-3.984 1.707-3.984 3.982 0 2.276 1.708 3.982 3.984 3.982h64.311c2.276 0 3.984-1.706 3.984-3.982 0-2.275-1.708-3.982-3.7-3.982z"/><path d="m256.955 303.5h-52.075c-2.276 0-3.984 1.707-3.984 3.982 0 2.276 1.708 3.982 3.984 3.982h52.075c2.276 0 3.984-1.706 3.984-3.982 0-2.275-1.708-3.982-3.984-3.982z"/><path d="m240.166 319.428h-35.286c-2.276 0-3.984 1.706-3.984 3.982 0 2.275 1.708 3.982 3.984 3.982h35.001c2.277 0 3.984-1.707 3.984-3.982.285-2.276-1.707-3.982-3.699-3.982z"/></g><path d="m221.101 201.959h-19.919v31.287h19.919z" fill="url(#h)"/><path d="m252.402 190.867h-19.92v42.379h19.92z" fill="url(#i)"/><path d="m283.989 174.939h-19.92v58.592h19.92z" fill="url(#j)"/><path d="m316.428 162.139h-19.919v71.107h19.919z" fill="url(#k)"/><path d="m307.323 248.037h-95.897c-6.26 0-11.382 5.12-11.382 11.377s5.122 11.377 11.382 11.377h95.897c6.26 0 11.382-5.12 11.382-11.377s-5.122-11.377-11.382-11.377z" fill="#fff"/><path d="m310.738 288.994h-19.35c-4.268 0-7.683 3.413-7.683 7.68v19.341c0 4.266 3.415 7.679 7.683 7.679h19.35c4.269 0 7.683-3.413 7.683-7.679v-19.341c0-4.267-3.414-7.68-7.683-7.68z" fill="#fff"/><path d="m295.941 108.667h-69.148c-3.699 0-6.545 2.845-6.545 6.542 0 3.698 2.846 6.542 6.545 6.542h69.148c3.699 0 6.545-2.844 6.545-6.542 0-3.413-2.846-6.542-6.545-6.542z" fill="#5183bb"/><g filter="url(#c)"><path d="m349.948 100.992c27.031-.269 48.725-22.5179 48.454-49.6936s-22.404-48.98761-49.435-48.71825-48.725 22.51795-48.454 49.69365 22.404 48.9872 49.435 48.7182z" fill="url(#l)"/></g><path d="m371.35 71.6917-43.253.5689v-6.2574c0-3.982 1.992-7.6796 5.122-9.6705l8.252-5.4042c-4.268-2.5598-6.829-7.3951-6.829-12.5148 0-8.5328 7.114-15.6435 15.65-15.0746 7.399.2844 13.659 6.5418 14.228 13.9369.569 5.6886-2.276 10.8083-6.829 13.937l8.252 5.4041c3.13 2.2754 5.122 5.6885 5.122 9.6705z" fill="#fff"/><path d="m135.257 125.938c4.419-5.219 6.996-11.929 6.996-19.385 0-16.5888-13.255-30.0091-29.64-30.0091-16.3858 0-29.6413 13.4203-29.6413 30.0091 0 16.589 13.2555 30.009 29.6413 30.009 6.443 0 12.335-2.05 17.121-5.405 6.444.373 13.256 0 13.256 0zm-36.0841-14.725c-1.6569 0-3.1298-1.305-3.1298-3.169s1.2888-3.168 3.1298-3.168c1.6571 0 3.1301 1.304 3.1301 3.168s-1.473 3.169-3.1301 3.169zm13.6241 0c-1.657 0-3.13-1.305-3.13-3.169s1.289-3.168 3.13-3.168c1.657 0 3.129 1.304 3.129 3.168s-1.472 3.169-3.129 3.169zm13.623 0c-1.656 0-3.129-1.305-3.129-3.169s1.288-3.168 3.129-3.168c1.657 0 3.13 1.304 3.13 3.168s-1.473 3.169-3.13 3.169z" fill="#badbff"/><path d="m110.124 278.754-30.163 114.055h-15.3663l13.3743-118.321z" fill="#004e82"/><path d="m80.5303 276.194s.2845 7.679 6.8294 16.781 33.5783 36.407 33.5783 36.407l-2.846 62.858h13.659l11.382-69.4-27.886-45.508z" fill="#5183bb"/><path d="m142.279 165.836 14.228 25.599c1.139 2.275 3.984 3.128 6.261 1.706 2.276-1.137 3.13-3.982 1.707-6.257l-14.228-25.599z" fill="url(#m)"/><path d="m175.004 147.633 6.545 11.946c3.13-1.991 4.268-5.973 2.561-9.102-1.992-3.129-5.976-4.551-9.106-2.844z" fill="#badbff"/><path d="m165.897 134.549-.569.285c-.854.569-1.423 1.706-.854 2.56l19.35 35.837c.569.854 1.708 1.423 2.561.854l.569-.285c.854-.569 1.423-1.706.854-2.56l-19.35-35.837c-.569-1.138-1.707-1.423-2.561-.854z" fill="url(#n)"/><path d="m165.328 138.816c0 1.138-15.651 17.35-25.895 24.746-3.699 2.844-4.837 7.964-2.561 11.946 2.277 3.982 7.114 5.973 11.383 4.266 11.951-4.266 33.862-8.817 35-7.964z" fill="#5183bb"/><path d="m148.255 156.451 10.813 20.194c11.098-2.844 23.334-5.119 24.188-4.835l-17.928-32.994c0 .854-8.536 9.955-17.073 17.635z" fill="#badbff"/><path d="m149.394 187.169 1.992-5.404 1.992 3.413 3.983-2.275c3.13-1.707 7.114-.569 8.822 2.559 1.707 3.129.569 7.111-2.561 8.818-3.415 1.991-7.114 2.56-11.098 2.275h-1.423l-3.984-7.111z" fill="#ffe27c"/><path d="m122.075 160.433s3.699-15.075-11.383-15.928c-15.0815-.853-23.9028 8.533-26.1793 16.213-3.4147 11.377 2.2765 22.754 8.2522 25.882l8.2521-18.203z" fill="#004e82"/><path d="m97.0346 168.397s-3.9839-5.405-5.9758-.854-1.7074 11.093 5.4066 10.809c0 0 2.8456 13.652 15.9356 9.67s11.382-21.616 9.39-27.874c0 0-11.667 1.991-19.35-1.422.285.569-2.5608 8.817-5.4064 9.671z" fill="#ffe27c"/><path d="m108.132 184.609-1.707 16.781-14.7971-9.67 1.7074-17.635z" fill="#ffe27c"/><path d="m85.9372 191.15s-9.9596 4.267-12.236 8.818c-1.4228 2.844-5.4067 17.919-7.6832 27.305-1.1382 4.551.5692 9.67 4.553 12.514l19.3501 14.222z" fill="#64d3b5"/><path d="m92.4816 189.728s-4.5529-1.137-9.1059 4.267c-4.5529 5.404-7.9677 12.515-6.5449 33.847s-5.6912 51.197-5.6912 51.197c14.5126 7.679 32.1554 8.248 47.2374 1.422l2.845-1.422s-.854-54.611-11.951-78.787z" fill="url(#o)"/><path d="m104.432 196.839 25.042 17.634 18.496-27.873 6.545 12.23s-16.22 32.994-22.196 39.251l-39.8381-20.479c-5.6912-2.844-7.9677-9.67-5.4067-15.643 2.8456-6.542 11.0979-9.102 17.3578-5.12z" fill="#b0e7c6"/><path d="m117.808 392.241v10.809h29.309c1.708 0 2.561-2.276 1.139-3.413-3.415-2.56-9.391-5.973-17.928-7.396z" fill="#004e82"/><path d="m64.8789 392.241v10.809h29.3097c1.7073 0 2.561-2.276 1.1382-3.413-3.4147-2.56-9.3905-5.973-17.9273-7.396z" fill="#004e82"/></svg>