<svg width="1440" height="675" viewBox="0 0 1440 675" fill="none" xmlns="http://www.w3.org/2000/svg">
<path fill-rule="evenodd" clip-rule="evenodd" d="M1440 0H0V675H664.769C711.331 675 755.979 656.47 788.857 623.5C821.735 590.53 866.383 572 912.945 572H1440V0Z" fill="#F7FBFD"/>
<path d="M1427.33 558.361H985.976C982.561 558.361 980 561.205 980 564.334C980 567.747 982.846 570.307 985.976 570.307H1427.33C1430.74 570.307 1433.3 567.463 1433.3 564.334C1433.59 561.205 1430.74 558.361 1427.33 558.361Z" fill="#D7F1F9"/>
<path d="M1426.76 421.551C1443.83 421.551 1457.78 407.615 1457.78 390.549C1457.78 373.483 1443.83 359.546 1426.76 359.546C1422.78 359.546 1419.08 360.4 1415.66 361.537C1414.81 345.04 1401.43 331.957 1384.64 331.957C1368.42 331.957 1355.33 344.187 1353.63 359.831C1350.78 358.977 1347.94 358.409 1344.81 358.409C1327.73 358.409 1313.79 372.346 1313.79 389.411C1313.79 406.477 1327.73 420.698 1344.81 420.698L1426.76 421.551Z" fill="url(#paint0_linear)"/>
<g filter="url(#filter0_d)">
<path d="M1373.55 447.15L1398.02 447.15L1398.02 422.973L1410.25 422.973L1385.78 390.833L1361.31 422.973L1373.55 422.973L1373.55 447.15Z" fill="#5183BB"/>
</g>
<path d="M1300.7 209.368H1175.49C1155 209.368 1138.5 225.865 1138.5 246.344V525.367C1138.5 545.846 1155 562.343 1175.49 562.343H1300.98C1321.47 562.343 1337.97 545.846 1337.97 525.367V246.344C1337.97 225.865 1321.19 209.368 1300.7 209.368Z" fill="#5183BB"/>
<g filter="url(#filter1_d)">
<path d="M1175.49 543.286C1165.53 543.286 1157.56 535.322 1157.56 525.367V246.344C1157.56 236.389 1165.53 228.425 1175.49 228.425H1300.98C1310.94 228.425 1318.91 236.389 1318.91 246.344V525.367C1318.91 535.322 1310.94 543.286 1300.98 543.286H1175.49Z" fill="url(#paint1_linear)"/>
</g>
<path d="M1296.71 219.323H1179.47L1186.59 234.113C1190.29 241.793 1197.97 246.628 1206.51 246.628H1269.4C1277.93 246.628 1285.62 241.793 1289.31 234.113L1296.71 219.323Z" fill="#5183BB"/>
<path d="M1249.48 449.994H1184.88C1182.6 449.994 1180.9 451.701 1180.9 453.976C1180.9 456.252 1182.6 457.958 1184.88 457.958H1249.19C1251.47 457.958 1253.17 456.252 1253.17 453.976C1253.17 451.701 1251.47 449.994 1249.48 449.994Z" fill="#5183BB"/>
<path d="M1236.95 464.5H1184.88C1182.6 464.5 1180.9 466.207 1180.9 468.482C1180.9 470.758 1182.6 472.464 1184.88 472.464H1236.95C1239.23 472.464 1240.94 470.758 1240.94 468.482C1240.94 466.207 1239.23 464.5 1236.95 464.5Z" fill="#5183BB"/>
<path d="M1220.17 480.428H1184.88C1182.6 480.428 1180.9 482.134 1180.9 484.41C1180.9 486.685 1182.6 488.392 1184.88 488.392H1219.88C1222.16 488.392 1223.87 486.685 1223.87 484.41C1224.15 482.134 1222.16 480.428 1220.17 480.428Z" fill="#5183BB"/>
<path d="M1201.1 362.959H1181.18V394.246H1201.1V362.959Z" fill="url(#paint2_linear)"/>
<path d="M1232.4 351.867H1212.48V394.246H1232.4V351.867Z" fill="url(#paint3_linear)"/>
<path d="M1263.99 335.939H1244.07V394.531H1263.99V335.939Z" fill="url(#paint4_linear)"/>
<path d="M1296.43 323.139H1276.51V394.246H1296.43V323.139Z" fill="url(#paint5_linear)"/>
<path d="M1287.32 409.037H1191.43C1185.17 409.037 1180.04 414.157 1180.04 420.414C1180.04 426.671 1185.17 431.791 1191.43 431.791H1287.32C1293.58 431.791 1298.71 426.671 1298.71 420.414C1298.71 414.157 1293.58 409.037 1287.32 409.037Z" fill="white"/>
<path d="M1290.74 449.994H1271.39C1267.12 449.994 1263.71 453.407 1263.71 457.674V477.015C1263.71 481.281 1267.12 484.694 1271.39 484.694H1290.74C1295.01 484.694 1298.42 481.281 1298.42 477.015V457.674C1298.42 453.407 1295.01 449.994 1290.74 449.994Z" fill="white"/>
<path d="M1275.94 269.667H1206.79C1203.09 269.667 1200.25 272.512 1200.25 276.209C1200.25 279.907 1203.09 282.751 1206.79 282.751H1275.94C1279.64 282.751 1282.49 279.907 1282.49 276.209C1282.49 272.796 1279.64 269.667 1275.94 269.667Z" fill="#5183BB"/>
<g filter="url(#filter2_d)">
<path d="M1329.95 261.992C1356.98 261.723 1378.67 239.474 1378.4 212.298C1378.13 185.123 1356 163.311 1328.97 163.58C1301.94 163.85 1280.24 186.098 1280.51 213.274C1280.78 240.45 1302.92 262.261 1329.95 261.992Z" fill="url(#paint6_linear)"/>
</g>
<path d="M1351.35 232.692L1308.1 233.261V227.003C1308.1 223.021 1310.09 219.324 1313.22 217.333L1321.47 211.929C1317.2 209.369 1314.64 204.533 1314.64 199.414C1314.64 190.881 1321.76 183.77 1330.29 184.339C1337.69 184.623 1343.95 190.881 1344.52 198.276C1345.09 203.965 1342.24 209.084 1337.69 212.213L1345.94 217.617C1349.07 219.893 1351.07 223.306 1351.07 227.288L1351.35 232.692Z" fill="white"/>
<path d="M1115.26 286.938C1119.68 281.719 1122.25 275.009 1122.25 267.553C1122.25 250.964 1109 237.544 1092.61 237.544C1076.23 237.544 1062.97 250.964 1062.97 267.553C1062.97 284.142 1076.23 297.562 1092.61 297.562C1099.06 297.562 1104.95 295.512 1109.73 292.157C1116.18 292.53 1122.99 292.157 1122.99 292.157L1115.26 286.938ZM1079.17 272.213C1077.52 272.213 1076.04 270.908 1076.04 269.044C1076.04 267.18 1077.33 265.876 1079.17 265.876C1080.83 265.876 1082.3 267.18 1082.3 269.044C1082.3 270.908 1080.83 272.213 1079.17 272.213ZM1092.8 272.213C1091.14 272.213 1089.67 270.908 1089.67 269.044C1089.67 267.18 1090.96 265.876 1092.8 265.876C1094.45 265.876 1095.93 267.18 1095.93 269.044C1095.93 270.908 1094.45 272.213 1092.8 272.213ZM1106.42 272.213C1104.76 272.213 1103.29 270.908 1103.29 269.044C1103.29 267.18 1104.58 265.876 1106.42 265.876C1108.08 265.876 1109.55 267.18 1109.55 269.044C1109.55 270.908 1108.08 272.213 1106.42 272.213Z" fill="#BADBFF"/>
<path d="M1090.12 439.754L1059.96 553.809H1044.59L1057.97 435.488L1090.12 439.754Z" fill="#004E82"/>
<path d="M1060.53 437.194C1060.53 437.194 1060.81 444.873 1067.36 453.975C1073.9 463.077 1100.94 490.382 1100.94 490.382L1098.09 553.24H1111.75L1123.13 483.84L1095.25 438.332L1060.53 437.194Z" fill="#5183BB"/>
<path d="M1122.28 326.836L1136.51 352.435C1137.65 354.71 1140.49 355.563 1142.77 354.141C1145.04 353.004 1145.9 350.159 1144.47 347.884L1130.25 322.285L1122.28 326.836Z" fill="url(#paint7_linear)"/>
<path d="M1155 308.633L1161.55 320.579C1164.68 318.588 1165.82 314.606 1164.11 311.477C1162.12 308.348 1158.13 306.926 1155 308.633Z" fill="#BADBFF"/>
<path d="M1145.9 295.549L1145.33 295.834C1144.47 296.403 1143.91 297.54 1144.47 298.394L1163.82 334.231C1164.39 335.085 1165.53 335.654 1166.39 335.085L1166.95 334.8C1167.81 334.231 1168.38 333.094 1167.81 332.24L1148.46 296.403C1147.89 295.265 1146.75 294.98 1145.9 295.549Z" fill="url(#paint8_linear)"/>
<path d="M1145.33 299.816C1145.33 300.954 1129.68 317.166 1119.43 324.562C1115.73 327.406 1114.6 332.526 1116.87 336.508C1119.15 340.49 1123.99 342.481 1128.25 340.774C1140.21 336.508 1162.12 331.957 1163.26 332.81L1145.33 299.816Z" fill="#5183BB"/>
<path d="M1128.25 317.451L1139.07 337.645C1150.17 334.801 1162.4 332.526 1163.26 332.81L1145.33 299.816C1145.33 300.67 1136.79 309.771 1128.25 317.451Z" fill="#BADBFF"/>
<path d="M1129.39 348.169L1131.39 342.765L1133.38 346.178L1137.36 343.903C1140.49 342.196 1144.48 343.334 1146.18 346.462C1147.89 349.591 1146.75 353.573 1143.62 355.28C1140.21 357.271 1136.51 357.84 1132.52 357.555H1131.1L1127.12 350.444L1129.39 348.169Z" fill="#FFE27C"/>
<path d="M1102.07 321.433C1102.07 321.433 1105.77 306.358 1090.69 305.505C1075.61 304.652 1066.79 314.038 1064.51 321.718C1061.1 333.095 1066.79 344.472 1072.76 347.6L1081.02 329.397L1102.07 321.433Z" fill="#004E82"/>
<path d="M1077.03 329.397C1077.03 329.397 1073.05 323.992 1071.06 328.543C1069.07 333.094 1069.35 339.636 1076.47 339.352C1076.47 339.352 1079.31 353.004 1092.4 349.022C1105.49 345.04 1103.78 327.406 1101.79 321.148C1101.79 321.148 1090.12 323.139 1082.44 319.726C1082.73 320.295 1079.88 328.543 1077.03 329.397Z" fill="#FFE27C"/>
<path d="M1088.13 345.609L1086.43 362.39L1071.63 352.72L1073.34 335.085L1088.13 345.609Z" fill="#FFE27C"/>
<path d="M1065.94 352.15C1065.94 352.15 1055.98 356.417 1053.7 360.968C1052.28 363.812 1048.29 378.887 1046.02 388.273C1044.88 392.824 1046.59 397.943 1050.57 400.787L1069.92 415.009L1065.94 352.15Z" fill="#64D3B5"/>
<path d="M1072.48 350.728C1072.48 350.728 1067.93 349.591 1063.38 354.995C1058.82 360.399 1055.41 367.51 1056.83 388.842C1058.25 410.174 1051.14 440.039 1051.14 440.039C1065.65 447.718 1083.29 448.287 1098.38 441.461L1101.22 440.039C1101.22 440.039 1100.37 385.428 1089.27 361.252L1072.48 350.728Z" fill="url(#paint9_linear)"/>
<path d="M1084.43 357.839L1109.47 375.473L1127.97 347.6L1134.51 359.83C1134.51 359.83 1118.29 392.824 1112.32 399.081L1072.48 378.602C1066.79 375.758 1064.51 368.932 1067.07 362.959C1069.92 356.417 1078.17 353.857 1084.43 357.839Z" fill="#B0E7C6"/>
<path d="M1097.81 553.241V564.05H1127.12C1128.82 564.05 1129.68 561.774 1128.26 560.637C1124.84 558.077 1118.87 554.664 1110.33 553.241H1097.81Z" fill="#004E82"/>
<path d="M1044.88 553.241V564.05H1074.19C1075.9 564.05 1076.75 561.774 1075.33 560.637C1071.91 558.077 1065.94 554.664 1057.4 553.241H1044.88Z" fill="#004E82"/>
<defs>
<filter id="filter0_d" x="1359.31" y="388.833" width="56.9443" height="64.3166" filterUnits="userSpaceOnUse" color-interpolation-filters="sRGB">
<feFlood flood-opacity="0" result="BackgroundImageFix"/>
<feColorMatrix in="SourceAlpha" type="matrix" values="0 0 0 0 0 0 0 0 0 0 0 0 0 0 0 0 0 0 127 0" result="hardAlpha"/>
<feOffset dx="2" dy="2"/>
<feGaussianBlur stdDeviation="2"/>
<feColorMatrix type="matrix" values="0 0 0 0 0.0846528 0 0 0 0 0.150363 0 0 0 0 0.383333 0 0 0 0.25 0"/>
<feBlend mode="normal" in2="BackgroundImageFix" result="effect1_dropShadow"/>
<feBlend mode="normal" in="SourceGraphic" in2="effect1_dropShadow" result="shape"/>
</filter>
<filter id="filter1_d" x="1155.56" y="226.425" width="169.345" height="322.861" filterUnits="userSpaceOnUse" color-interpolation-filters="sRGB">
<feFlood flood-opacity="0" result="BackgroundImageFix"/>
<feColorMatrix in="SourceAlpha" type="matrix" values="0 0 0 0 0 0 0 0 0 0 0 0 0 0 0 0 0 0 127 0" result="hardAlpha"/>
<feOffset dx="2" dy="2"/>
<feGaussianBlur stdDeviation="2"/>
<feColorMatrix type="matrix" values="0 0 0 0 0.0846528 0 0 0 0 0.150363 0 0 0 0 0.383333 0 0 0 0.25 0"/>
<feBlend mode="normal" in2="BackgroundImageFix" result="effect1_dropShadow"/>
<feBlend mode="normal" in="SourceGraphic" in2="effect1_dropShadow" result="shape"/>
</filter>
<filter id="filter2_d" x="1278.51" y="161.578" width="105.894" height="106.417" filterUnits="userSpaceOnUse" color-interpolation-filters="sRGB">
<feFlood flood-opacity="0" result="BackgroundImageFix"/>
<feColorMatrix in="SourceAlpha" type="matrix" values="0 0 0 0 0 0 0 0 0 0 0 0 0 0 0 0 0 0 127 0" result="hardAlpha"/>
<feOffset dx="2" dy="2"/>
<feGaussianBlur stdDeviation="2"/>
<feColorMatrix type="matrix" values="0 0 0 0 0.0846528 0 0 0 0 0.150363 0 0 0 0 0.383333 0 0 0 0.25 0"/>
<feBlend mode="normal" in2="BackgroundImageFix" result="effect1_dropShadow"/>
<feBlend mode="normal" in="SourceGraphic" in2="effect1_dropShadow" result="shape"/>
</filter>
<linearGradient id="paint0_linear" x1="1385.78" y1="331.957" x2="1385.78" y2="421.551" gradientUnits="userSpaceOnUse">
<stop stop-color="#B0E7C6"/>
<stop offset="1" stop-color="#5DD1B3"/>
</linearGradient>
<linearGradient id="paint1_linear" x1="1238.24" y1="228.425" x2="1238.24" y2="543.286" gradientUnits="userSpaceOnUse">
<stop stop-color="white"/>
<stop offset="1" stop-color="#D7F1F9"/>
</linearGradient>
<linearGradient id="paint2_linear" x1="1191.14" y1="362.959" x2="1191.14" y2="394.246" gradientUnits="userSpaceOnUse">
<stop stop-color="#85BEFF"/>
<stop offset="1" stop-color="#5183BB"/>
</linearGradient>
<linearGradient id="paint3_linear" x1="1222.44" y1="351.867" x2="1222.44" y2="394.246" gradientUnits="userSpaceOnUse">
<stop stop-color="#B0E7C6"/>
<stop offset="1" stop-color="#5DD1B3"/>
</linearGradient>
<linearGradient id="paint4_linear" x1="1254.03" y1="335.939" x2="1254.03" y2="394.531" gradientUnits="userSpaceOnUse">
<stop stop-color="#85BEFF"/>
<stop offset="1" stop-color="#5183BB"/>
</linearGradient>
<linearGradient id="paint5_linear" x1="1286.47" y1="323.139" x2="1286.47" y2="394.246" gradientUnits="userSpaceOnUse">
<stop stop-color="#B0E7C6"/>
<stop offset="1" stop-color="#5DD1B3"/>
</linearGradient>
<linearGradient id="paint6_linear" x1="1328.97" y1="163.58" x2="1329.95" y2="261.992" gradientUnits="userSpaceOnUse">
<stop stop-color="#B0E7C6"/>
<stop offset="1" stop-color="#5DD1B3"/>
</linearGradient>
<linearGradient id="paint7_linear" x1="1133.72" y1="322.285" x2="1133.72" y2="354.837" gradientUnits="userSpaceOnUse">
<stop stop-color="#B0E7C6"/>
<stop offset="1" stop-color="#5DD1B3"/>
</linearGradient>
<linearGradient id="paint8_linear" x1="1156.14" y1="295.265" x2="1156.14" y2="335.314" gradientUnits="userSpaceOnUse">
<stop stop-color="#B0E7C6"/>
<stop offset="1" stop-color="#5DD1B3"/>
</linearGradient>
<linearGradient id="paint9_linear" x1="1076.18" y1="350.628" x2="1076.18" y2="446.215" gradientUnits="userSpaceOnUse">
<stop stop-color="#B0E7C6"/>
<stop offset="1" stop-color="#5DD1B3"/>
</linearGradient>
</defs>
</svg>
