<svg width="28" height="28" viewBox="0 0 28 28" fill="none" xmlns="http://www.w3.org/2000/svg">
<path fill-rule="evenodd" clip-rule="evenodd" d="M9.33366 1.1665C7.06963 1.1665 5.26047 1.81924 4.03082 3.14348C2.8157 4.45206 2.33366 6.23766 2.33366 8.1665V16.3332C2.33366 16.9775 2.85599 17.4998 3.50033 17.4998C4.14466 17.4998 4.66699 16.9775 4.66699 16.3332V8.1665C4.66699 6.59535 5.05995 5.46428 5.74067 4.7312C6.40685 4.01377 7.51436 3.49984 9.33366 3.49984H18.667C20.4863 3.49984 21.5938 4.01377 22.26 4.7312C22.9407 5.46428 23.3337 6.59535 23.3337 8.1665V19.8332C23.3337 21.4043 22.9407 22.5354 22.26 23.2685C21.5938 23.9859 20.4863 24.4998 18.667 24.4998H12.8337C12.1893 24.4998 11.667 25.0222 11.667 25.6665C11.667 26.3108 12.1893 26.8332 12.8337 26.8332H18.667C20.931 26.8332 22.7402 26.1804 23.9698 24.8562C25.185 23.5476 25.667 21.762 25.667 19.8332V8.1665C25.667 6.23766 25.185 4.45206 23.9698 3.14348C22.7402 1.81924 20.931 1.1665 18.667 1.1665H9.33366ZM18.0837 5.24984C18.0837 4.6055 17.5613 4.08317 16.917 4.08317C16.2727 4.08317 15.7503 4.6055 15.7503 5.24984V7.58317C15.7503 9.51084 17.3227 11.0832 19.2503 11.0832H21.5837C22.228 11.0832 22.7503 10.5608 22.7503 9.9165C22.7503 9.27217 22.228 8.74984 21.5837 8.74984H19.2503C18.6113 8.74984 18.0837 8.22217 18.0837 7.58317V5.24984ZM5.49195 19.0082C5.94756 19.4638 5.94756 20.2025 5.49195 20.6581L3.98357 22.1665L5.49195 23.6749C5.94756 24.1305 5.94756 24.8692 5.49195 25.3248C5.03634 25.7804 4.29765 25.7804 3.84203 25.3248L1.5087 22.9915C1.05309 22.5359 1.05309 21.7972 1.5087 21.3415L3.84203 19.0082C4.29765 18.5526 5.03634 18.5526 5.49195 19.0082ZM8.99195 19.0082C8.53634 18.5526 7.79765 18.5526 7.34203 19.0082C6.88642 19.4638 6.88642 20.2025 7.34203 20.6581L8.85041 22.1665L7.34203 23.6749C6.88642 24.1305 6.88642 24.8692 7.34203 25.3248C7.79765 25.7804 8.53634 25.7804 8.99195 25.3248L11.3253 22.9915C11.7809 22.5359 11.7809 21.7972 11.3253 21.3415L8.99195 19.0082Z" fill="#EE5E5E"/>
</svg>
