<svg width="50" height="50" viewBox="0 0 50 50" fill="none" xmlns="http://www.w3.org/2000/svg">
<path fill-rule="evenodd" clip-rule="evenodd" d="M27.083 4.1665H12.4997C10.1985 4.1665 8.33301 6.03199 8.33301 8.33317L8.33301 41.6665C8.33301 43.9677 10.1985 45.8332 12.4997 45.8332H37.4997C39.8009 45.8332 41.6663 43.9677 41.6663 41.6665L41.6663 18.7498L41.6663 18.3162C41.6663 17.2666 41.2702 16.2556 40.557 15.4854L31.3134 5.5023C30.5249 4.65065 29.4168 4.1665 28.2561 4.1665H27.083ZM24.9997 8.33317L12.4997 8.33317L12.4997 41.6665H37.4997L37.4997 20.8332H29.1663C26.8652 20.8332 24.9997 18.9677 24.9997 16.6665V8.33317ZM35.9722 16.6665L29.1663 16.6665L29.1663 9.31623L35.9722 16.6665Z" fill="#EE5E5E"/>
<path fill-rule="evenodd" clip-rule="evenodd" d="M23 36.6668C23 35.5162 23.9327 34.5835 25.0833 34.5835H25.2917C26.4423 34.5835 27.375 35.5162 27.375 36.6668V36.8752C27.375 38.0258 26.4423 38.9585 25.2917 38.9585H25.0833C23.9327 38.9585 23 38.0258 23 36.8752V36.6668Z" fill="#EE5E5E"/>
<path fill-rule="evenodd" clip-rule="evenodd" d="M25.1878 22C26.3384 22 27.2712 22.9327 27.2712 24.0833V30.4167C27.2712 31.5673 26.3384 32.5 25.1878 32.5C24.0372 32.5 23.1045 31.5673 23.1045 30.4167V24.0833C23.1045 22.9327 24.0372 22 25.1878 22Z" fill="#EE5E5E"/>
</svg>
