<svg width="28" height="28" viewBox="0 0 28 28" fill="none" xmlns="http://www.w3.org/2000/svg">
<path fill-rule="evenodd" clip-rule="evenodd" d="M9.22139 5.11691C8.45914 6.06319 8.16699 7.47213 8.16699 9.33317V10.4998H15.8504L19.7241 6.62619C19.5458 5.59834 19.1588 4.90518 18.4456 4.42189C17.6637 3.89201 16.3235 3.49984 14.0003 3.49984C11.2833 3.49984 9.93974 4.22513 9.22139 5.11691ZM21.6008 4.74944C21.2335 3.87723 20.6513 3.09796 19.7546 2.49028C18.4103 1.57933 16.5188 1.1665 14.0003 1.1665C10.884 1.1665 8.72758 2.01038 7.40427 3.65318C6.12485 5.24148 5.83366 7.33254 5.83366 9.33317V10.6344C4.55096 10.8146 3.47444 11.2091 2.67537 12.0082C1.42936 13.2542 1.16699 15.1748 1.16699 17.4998V19.8332C1.16699 21.6352 1.32594 23.1947 1.97097 24.3793L1.5087 24.8415C1.05309 25.2972 1.05309 26.0358 1.5087 26.4915C1.96431 26.9471 2.70301 26.9471 3.15862 26.4915L16.8169 12.8332H19.8337C20.2321 12.8332 20.5918 12.8442 20.9252 12.8657L20.9252 12.8658L20.9342 12.8663C22.7061 12.9669 23.4256 13.3293 23.8047 13.8097C24.2377 14.3584 24.5003 15.3802 24.5003 17.4998V19.8332C24.5003 22.1748 24.1794 23.1709 23.6754 23.6749C23.1714 24.1789 22.1753 24.4998 19.8337 24.4998H8.16699C7.7686 24.4998 7.40888 24.4888 7.07544 24.4673C6.43244 24.4258 5.87756 24.9134 5.83608 25.5564C5.7946 26.1994 6.28222 26.7543 6.92521 26.7957C7.31511 26.8209 7.72539 26.8332 8.16699 26.8332H19.8337C22.1587 26.8332 24.0793 26.5708 25.3253 25.3248C26.5713 24.0788 26.8337 22.1582 26.8337 19.8332V17.4998C26.8337 15.3729 26.6121 13.6005 25.6363 12.3641C24.6075 11.0605 22.9954 10.6467 21.071 10.537C20.6824 10.512 20.2736 10.4998 19.8337 10.4998H19.1502L26.492 3.15813C26.9476 2.70252 26.9476 1.96382 26.492 1.50821C26.0363 1.0526 25.2976 1.0526 24.842 1.50821L21.6008 4.74944ZM13.5171 12.8332H8.16699C5.82532 12.8332 4.82927 13.1541 4.32528 13.6581C3.82129 14.1621 3.50033 15.1582 3.50033 17.4998V19.8332C3.50033 21.0973 3.59389 21.9736 3.76011 22.5901L13.5171 12.8332ZM17.2495 16.1862C16.859 15.6736 16.127 15.5747 15.6144 15.9652C15.1019 16.3557 15.003 17.0877 15.3935 17.6003C15.6155 17.8917 15.7498 18.2627 15.7498 18.6665C15.7498 19.6322 14.9655 20.4165 13.9998 20.4165C13.4521 20.4165 12.942 20.1485 12.6099 19.7225C12.2137 19.2144 11.4806 19.1236 10.9725 19.5198C10.4643 19.916 10.3736 20.6491 10.7698 21.1572C11.511 22.1079 12.6809 22.7499 13.9998 22.7499C16.2542 22.7499 18.0832 20.9209 18.0832 18.6665C18.0832 17.7404 17.7741 16.8747 17.2495 16.1862Z" fill="#EE5E5E"/>
</svg>
