<svg width="32" height="32" viewBox="0 0 32 32" fill="none" xmlns="http://www.w3.org/2000/svg">
<circle cx="16" cy="16" r="16" fill="#D3E7FF"/>
<path fill-rule="evenodd" clip-rule="evenodd" d="M7.6665 9.33342C7.6665 8.41294 8.4127 7.66675 9.33317 7.66675H22.6665C23.587 7.66675 24.3332 8.41294 24.3332 9.33341V22.6667C24.3332 23.5872 23.587 24.3334 22.6665 24.3334H20.1665H11.8332H9.33317C8.4127 24.3334 7.6665 23.5872 7.6665 22.6667V9.33342ZM12.7715 22.6667H19.2282C18.8581 21.2291 17.553 20.1667 15.9998 20.1667C14.4466 20.1667 13.1416 21.2291 12.7715 22.6667ZM20.9307 22.6667C20.534 20.302 18.4773 18.5001 15.9998 18.5001C13.5223 18.5001 11.4657 20.302 11.069 22.6667H9.33317V9.33342L22.6665 9.33341V22.6667H20.9307ZM15.9998 12.6667C15.0794 12.6667 14.3332 13.4129 14.3332 14.3334C14.3332 15.2539 15.0794 16.0001 15.9998 16.0001C16.9203 16.0001 17.6665 15.2539 17.6665 14.3334C17.6665 13.4129 16.9203 12.6667 15.9998 12.6667ZM12.6665 14.3334C12.6665 12.4925 14.1589 11.0001 15.9998 11.0001C17.8408 11.0001 19.3332 12.4925 19.3332 14.3334C19.3332 16.1744 17.8408 17.6667 15.9998 17.6667C14.1589 17.6667 12.6665 16.1744 12.6665 14.3334Z" fill="#245CB0"/>
</svg>
