<svg width="50" height="50" viewBox="0 0 50 50" fill="none" xmlns="http://www.w3.org/2000/svg">
<path fill-rule="evenodd" clip-rule="evenodd" d="M39.5837 4.1665C40.7343 4.1665 41.667 5.09924 41.667 6.24984V16.6665C41.667 17.8171 40.7343 18.7498 39.5837 18.7498H29.167C28.0164 18.7498 27.0837 17.8171 27.0837 16.6665C27.0837 15.5159 28.0164 14.5832 29.167 14.5832H35.206C34.2052 13.6026 33.0635 12.7666 31.8126 12.1056C29.4002 10.831 26.6786 10.2588 23.9572 10.4538C21.2357 10.6489 18.6236 11.6035 16.4177 13.2092C14.2117 14.8148 12.5005 17.0071 11.4784 19.5368C11.0474 20.6036 9.83316 21.1191 8.76635 20.688C7.69953 20.257 7.18412 19.0428 7.61514 17.976C8.92925 14.7234 11.1294 11.9048 13.9656 9.8404C16.8018 7.776 20.1603 6.54864 23.6593 6.29783C27.1582 6.04702 30.6574 6.78282 33.7591 8.42159C35.1139 9.13742 36.3691 10.013 37.5003 11.0249V6.24984C37.5003 5.09924 38.4331 4.1665 39.5837 4.1665ZM42.3856 32.0237C42.8167 30.9569 42.3013 29.7427 41.2344 29.3116C40.1676 28.8806 38.9534 29.396 38.5224 30.4628C37.5003 32.9926 35.789 35.1849 33.5831 36.7905C31.3772 38.3962 28.7651 39.3508 26.0436 39.5458C23.3222 39.7409 20.6006 39.1686 18.1882 37.894C16.9373 37.2331 15.7956 36.3971 14.7948 35.4165H20.8337C21.9843 35.4165 22.917 34.4838 22.917 33.3332C22.917 32.1826 21.9843 31.2498 20.8337 31.2498H10.417C9.2664 31.2498 8.33366 32.1826 8.33366 33.3332V43.7498C8.33366 44.9004 9.2664 45.8332 10.417 45.8332C11.5676 45.8332 12.5003 44.9004 12.5003 43.7498V38.9747C13.6316 39.9866 14.8869 40.8622 16.2417 41.5781C19.3434 43.2169 22.8425 43.9526 26.3415 43.7018C29.8405 43.451 33.199 42.2237 36.0352 40.1593C38.8714 38.0949 41.0715 35.2762 42.3856 32.0237Z" fill="#EE5E5E"/>
</svg>
