<svg width="18" height="18" viewBox="0 0 18 18" fill="none" xmlns="http://www.w3.org/2000/svg">
<path fill-rule="evenodd" clip-rule="evenodd" d="M7.5 4.5C7.5 2.84315 8.84315 1.5 10.5 1.5C12.1569 1.5 13.5 2.84315 13.5 4.5H15C15.8284 4.5 16.5 5.17157 16.5 6V8.37803C16.5 8.62149 16.3818 8.84981 16.183 8.99038C15.9843 9.13096 15.7296 9.16629 15.5001 9.08516C15.3446 9.03022 15.1767 9 15 9C14.1716 9 13.5 9.67157 13.5 10.5C13.5 11.3284 14.1716 12 15 12C15.1767 12 15.3446 11.9698 15.5001 11.9148C15.7296 11.8337 15.9843 11.869 16.183 12.0096C16.3818 12.1502 16.5 12.3785 16.5 12.622V15C16.5 15.8284 15.8284 16.5 15 16.5H6C5.17157 16.5 4.5 15.8284 4.5 15L4.5 13.5C2.84315 13.5 1.5 12.1569 1.5 10.5C1.5 8.84315 2.84315 7.5 4.5 7.5L4.5 6C4.5 5.17157 5.17157 4.5 6 4.5L7.5 4.5ZM10.5 3C9.67157 3 9 3.67157 9 4.5C9 4.67666 9.03022 4.84464 9.08516 5.00006C9.16629 5.22961 9.13095 5.48426 8.99038 5.68304C8.84981 5.88182 8.62149 6 8.37803 6L6 6V8.37803C6 8.62149 5.88182 8.84981 5.68304 8.99038C5.48426 9.13096 5.22961 9.16629 5.00007 9.08516C4.84464 9.03022 4.67666 9 4.5 9C3.67157 9 3 9.67157 3 10.5C3 11.3284 3.67157 12 4.5 12C4.67666 12 4.84464 11.9698 5.00007 11.9148C5.22961 11.8337 5.48426 11.869 5.68304 12.0096C5.88182 12.1502 6 12.3785 6 12.622V15H15V13.5C13.3431 13.5 12 12.1569 12 10.5C12 8.84315 13.3431 7.5 15 7.5V6L12.622 6C12.3785 6 12.1502 5.88182 12.0096 5.68304C11.869 5.48426 11.8337 5.22961 11.9148 5.00006C11.9698 4.84464 12 4.67666 12 4.5C12 3.67157 11.3284 3 10.5 3Z" fill="#417BD2"/>
</svg>
