<svg width="32" height="32" viewBox="0 0 32 32" fill="none" xmlns="http://www.w3.org/2000/svg">
<circle cx="16" cy="16" r="16" fill="#D3E7FF"/>
<path fill-rule="evenodd" clip-rule="evenodd" d="M6.40039 15.5927C6.40039 12.777 8.64972 10.4727 11.4394 10.4727C13.1243 10.4727 14.5802 11.3167 15.4824 12.5824C15.7942 13.0199 15.6951 13.6292 15.261 13.9434C14.8268 14.2576 14.2221 14.1577 13.9103 13.7203C13.3451 12.9273 12.4567 12.4231 11.4394 12.4231C9.73738 12.4231 8.336 13.8354 8.336 15.5927C8.336 17.35 9.73738 18.7622 11.4394 18.7622C12.6064 18.7622 13.6967 18.1361 14.3027 17.1079L15.4918 15.0964L15.4934 15.0936L16.6729 13.0832L16.6739 13.0815C17.6248 11.468 19.344 10.4727 21.2014 10.4727C23.9911 10.4727 26.2404 12.777 26.2404 15.5927C26.2404 18.4083 23.9911 20.7127 21.2014 20.7127C19.5234 20.7127 18.0704 19.8671 17.1616 18.6074C16.8473 18.1718 16.943 17.5619 17.3753 17.2452C17.8076 16.9284 18.4129 17.0248 18.7272 17.4605C19.3037 18.2595 20.1951 18.7622 21.2014 18.7622C22.9034 18.7622 24.3048 17.35 24.3048 15.5927C24.3048 13.8354 22.9034 12.4231 21.2014 12.4231C20.0347 12.4231 18.9446 13.0489 18.3385 14.0767C18.3384 14.077 18.3382 14.0772 18.3381 14.0774L17.158 16.089L17.1563 16.0917L15.967 18.1038C15.9668 18.1042 15.9665 18.1045 15.9663 18.1049C15.9663 18.1049 15.9663 18.1049 15.9663 18.1049C15.0153 19.7178 13.2964 20.7127 11.4394 20.7127C8.64972 20.7127 6.40039 18.4083 6.40039 15.5927Z" fill="#245CB0"/>
</svg>
