<svg height="253" viewBox="0 0 294 253" width="294" xmlns="http://www.w3.org/2000/svg"><g fill="#0b7a76"><path d="m97.7887682 83.8142763h12.1602938v5.5625726c0 1.8023401 2.149852 2.6231511 4.147312 2.6231511s4.147876-.820811 4.147876-2.6231511v-5.5625726h2.176379c1.302103 0 2.579371-1.9309148 2.579371-3.8985651 0-2.6788284-1.337096-3.899139-2.579371-3.899139h-2.176379v-3.6488777c0-1.185297-1.086496-2.5697697-4.147876-2.5697697-3.060816 0-4.147312 1.3844727-4.147312 2.5697697v3.6488777h-4.310992l9.202765-18.770167c.138282-.3283244.266968-.6813305.266968-1.0383546 0-1.9590404-2.723296-3.2080506-4.147312-3.2080506-1.521095 0-2.750388.7691515-3.46042 2.1656781l-12.0733742 24.0773126c-.3713843.6928103-.4266968 1.3178894-.4266968 1.628994 0 1.7598646 1.1203612 2.9422916 2.7887682 2.9422916z"/><path d="m135.751006 89.1623942c2.207043 1.8833868 5.309755 2.8376058 9.222835 2.8376058 8.399956 0 13.026159-4.444292 13.026159-12.5141606v-13.9716788c0-8.0698686-4.626203-12.5141606-13.026159-12.5141606-3.91308 0-7.015792.9547883-9.222835 2.8376058-2.489107 2.1236497-3.751006 5.3791533-3.751006 9.6765548v13.9722482c0 4.2968321 1.261899 7.5523357 3.751006 9.6759854zm13.89112-9.6759854c0 3.4029635-1.614479 5.2015182-4.668854 5.2015182-3.062905 0-4.615967-1.7501606-4.615967-5.2015182v-13.9722482c0-3.4513577 1.553062-5.2009489 4.615967-5.2009489 3.054375 0 4.668854 1.7985547 4.668854 5.2009489z"/><path d="m145.524211 70c-1.580235 0-2.524211.9252317-2.524211 2.4757888 0 1.533375.990316 2.5242112 2.524211 2.5242112 1.504218 0 2.475789-.9908362 2.475789-2.5242112 0-1.5271269-.948662-2.4757888-2.475789-2.4757888z"/><path d="m169.788768 83.8142763h12.160294v5.5625726c0 1.8023401 2.149852 2.6231511 4.147312 2.6231511s4.147876-.820811 4.147876-2.6231511v-5.5625726h2.176944c1.301538 0 2.578806-1.9309148 2.578806-3.8985651 0-2.6788284-1.336532-3.899139-2.578806-3.899139h-2.176944v-3.6488777c0-1.185297-1.086496-2.5697697-4.147876-2.5697697-3.060816 0-4.147312 1.3844727-4.147312 2.5697697v3.6488777h-4.310992l9.202765-18.770167c.138282-.3283244.266968-.6813305.266968-1.0383546 0-1.9590404-2.723296-3.2080506-4.147312-3.2080506-1.521095 0-2.750388.7691515-3.46042 2.1656781l-12.073374 24.0773126c-.37082.6928103-.426697 1.3178894-.426697 1.628994 0 1.7598646 1.120926 2.9422916 2.788768 2.9422916z"/><path d="m289.692794 215.677819h-9.693368v-145.723544c0-9.8278348-7.979328-17.8235955-17.78754-17.8235955h-45.408556c-.504737 0-.98708.0914886-1.437266.2514499-8.546655-30.1970007-36.308355-52.3821294-69.144416-52.3821294h-.000574c-32.74476 0-60.4421478 22.0619931-69.0714903 52.1306795h-44.788975c-9.8076371 0-17.7869653 7.9957607-17.7869653 17.8235955v145.723544h-10.26701119c-2.37898363 0-4.30663221 1.932194-4.30663221 4.315501v20.029105c0 7.155676 5.80935975 12.977575 12.9509044 12.977575h268.0981916c7.141544 0 12.950904-5.821899 12.950904-12.977575v-20.029105c-.000574-2.383307-1.928223-4.315501-4.307206-4.315501zm-27.480333-154.916137c5.058857 0 9.174275 4.123893 9.174275 9.192593v145.723544h-12.058571v-131.4547707c0-6.5912089-5.351134-11.953363-11.928797-11.953363h-29.320126v-.2646841c0-3.8241095-.302038-7.5785956-.877979-11.2433192zm-179.2345684 11.2433192c0-34.944052 28.3709444-63.37399873 63.2443294-63.37399873 34.872237 0 63.243756 28.42937133 63.243756 63.37399873v31.5963738c0 6.50605-5.281654 11.79858-11.774333 11.79858h-32.176285c-1.697961 0-3.238013 1.000046-3.931668 2.553626l-13.572782 30.40472c-.569624.84814-1.431524.943657-1.788688.943657-.357163 0-1.219064-.095517-1.788688-.943657l-13.572782-30.40472c-.693655-1.55358-2.233706-2.553626-3.931668-2.553626h-32.1762847c-6.4926787 0-11.7749067-5.293106-11.7749067-11.79858zm-59.7904105-2.0507262c0-5.0687 4.1154177-9.192593 9.1737008-9.192593h42.881424c-.5759402 3.6647236-.8779787 7.4192097-.8779787 11.2433192v.2646841h-27.7639966c-6.5776629 0-11.928797 5.3621541-11.928797 11.953363v131.4547707h-11.4843525zm262.1986789 170.06815c0 2.396541-1.946023 4.346573-4.33764 4.346573h-268.0976166c-2.3916164 0-4.33763997-1.950032-4.33763997-4.346573v-15.713603h58.40654607c2.3789836 0 4.3066322-1.932194 4.3066322-4.315502 0-2.383307-1.9276486-4.315501-4.3066322-4.315501h-23.7347114v-131.4547707c0-1.8320741 1.4877978-3.3223605 3.3155325-3.3223605h27.7639966v22.7006872c0 11.265184 9.1461384 20.429583 20.3881711 20.429583h29.3850127l12.546081 28.104846c.060293.135219.128051.266985.202125.395875 1.948894 3.382202 5.438989 5.401857 9.336778 5.401857 3.89779 0 7.387884-2.01908 9.336779-5.401857.074074-.128314.141258-.260656.202125-.395875l12.546081-28.104846h29.385013c11.241458 0 20.387596-9.164974 20.387596-20.429583v-22.7006872h29.320127c1.828309 0 3.315532 1.4902864 3.315532 3.3223605v131.4547707h-68.283663-70.865346-27.3207006c-2.3789837 0-4.3066323 1.932194-4.3066323 4.315501 0 2.383308 1.9276486 4.315502 4.3066323 4.315502h23.5222506c1.949469 8.214988 9.32874 14.345301 18.114844 14.345301h42.233132c8.786104 0 16.165375-6.130313 18.114844-14.345301h99.154751zm-108.234855-15.713603c-1.612977 3.376448-5.05656 5.714299-9.03474 5.714299h-42.233132c-3.978754 0-7.422337-2.337851-9.03474-5.714299z"/><path d="m84.2998904 177.885164h18.1892636l1.073194 2.153527-1.121924 2.344977h-18.0488076c-1.3873555 0-2.6892913.668929-3.4970532 1.797568-.8071887 1.128065-1.0204516 2.576551-.5727142 3.889188 3.4534835 10.126219 12.9631752 16.929576 23.663585 16.929576 9.340572 0 17.68993-5.069415 22.013663-13.139552h44.002103c4.323734 8.070137 12.673092 13.139552 22.013664 13.139552 10.700409 0 20.210101-6.803357 23.663584-16.929576.447738-1.312637.234475-2.761123-.572714-3.889188-.807188-1.128066-2.109697-1.797568-3.497053-1.797568h-18.048808l-1.121923-2.344977 1.073194-2.153527h18.189263c1.376463 0 2.670373-.659184 3.479281-1.773492.808909-1.114309 1.035357-2.547892.608832-3.857089-3.361758-10.320536-12.915593-17.254583-23.773656-17.254583-9.154827 0-17.431378 4.9307-21.8176 12.77958h-24.120495c-2.375129 0-4.299655 1.924819-4.299655 4.299029 0 2.374211 1.924526 4.299029 4.299655 4.299029h26.807493c1.738208 0 3.306149-1.04667 3.971736-2.652787 2.551129-6.151624 8.501279-10.126793 15.158866-10.126793 4.895301 0 9.386434 2.147795 12.432884 5.689048h-13.597231c-1.63043 0-3.120404.922285-3.847905 2.381089l-3.197224 6.413578c-.59106 1.185386-.602525 2.577698-.030958 3.772828l3.197224 6.682984c.714316 1.493196 2.223209 2.444141 3.878863 2.444141h13.350144c-3.045876 3.377317-7.437258 5.419643-12.185797 5.419643-6.79231 0-12.78603-4.086944-15.270084-10.412248-.646668-1.645669-2.234101-2.727304-4.00212-2.727304h-49.485023c-1.768018 0-3.356025 1.082208-4.002119 2.727304-2.484055 6.325304-8.477775 10.412248-15.270084 10.412248-4.7485399 0-9.1393482-2.042326-12.1857975-5.419643h13.3501445c1.655654 0 3.164546-.950372 3.878862-2.444141l3.197224-6.682984c.571568-1.19513.560675-2.587442-.030957-3.772828l-3.197224-6.413578c-.727502-1.458804-2.217476-2.381089-3.847905-2.381089h-13.5978047c3.045876-3.541253 7.537583-5.689048 12.4334577-5.689048 6.657587 0 12.607737 3.975169 15.158866 10.126793.665586 1.606117 2.233528 2.652787 3.971735 2.652787h5.762685c2.37513 0 4.299656-1.924818 4.299656-4.299029 0-2.37421-1.924526-4.299029-4.299656-4.299029h-3.075687c-4.385649-7.849454-12.662772-12.77958-21.817599-12.77958-10.8580639 0-20.4118987 6.934047-23.7742294 17.255156-.4259526 1.309198-.2000773 2.74278.6094045 3.857089.8094818 1.114308 2.102245 1.772919 3.4792813 1.772919z"/></g></svg>