<svg height="93" viewBox="0 0 87 93" width="87" xmlns="http://www.w3.org/2000/svg" xmlns:xlink="http://www.w3.org/1999/xlink"><mask id="a" fill="#fff"><path d="m10 0h90c5.522847 0 10 4.4771525 10 10v114c0 5.522847-4.477153 10-10 10h-90c-5.5228475 0-10-4.477153-10-10v-114c0-5.5228475 4.4771525-10 10-10z" fill="#fff" fill-rule="evenodd"/></mask><g fill="#0b7a76" fill-opacity=".27" mask="url(#a)" transform="translate(-23 -41)"><path d="m92.9155493.91127242c-3.4718925-.59214015-6.9875602-.8969372-10.5105499-.91123078-12.0199749-.00975729-23.7892715 3.40307863-33.9049994 9.83170056-10.1417218-6.34421484-21.9091636-9.67328613-33.9049994-9.59190299-3.5229897.01429359-7.03865737.31909064-10.51054986.91123079-2.34949943.40107286-4.05482445 2.43548131-4.02016422 4.79595149v57.55141791c-.02100191 1.4267078.60065899 2.7885909 1.69608884 3.7156508 1.09542984.9270599 2.5508647 1.3230184 3.97088964 1.0803007 14.0222781-2.4039716 28.4308581.8990368 39.9594636 9.1602674l.5812286.3357166h.5327928c1.08496.4476221 2.30554.4476221 3.3905 0h.5327928l.5812286-.3357166c11.4489263-8.4464553 25.8646328-11.9414171 39.9594636-9.687822 1.4200249.2427176 2.8754598-.1532409 3.9708896-1.0803007 1.0954299-.9270599 1.7170908-2.2889431 1.6960889-3.7156508v-57.55141797c-.1038421-2.2513609-1.7768021-4.12741084-4.0201642-4.50819441zm-49.2591206 63.73819538c-8.9611715-4.6679568-18.9358548-7.1041889-29.0614281-7.0980082-1.5983786 0-3.1967571 0-4.84357138 0v-47.95951497c1.61318528-.09205845 3.23038598-.09205845 4.84357138 0 10.3332063-.01130753 20.4409089 2.99119087 29.0614281 8.63271267zm43.5921421-6.9061702c-1.6468143 0-3.2451928 0-4.8435714 0-10.1255733-.0061807-20.1002566 2.4300514-29.0614281 7.0980083v-46.6166486c8.6205192-5.6415218 18.7282218-8.6440202 29.0614281-8.63271267 1.6131854-.09205845 3.2303861-.09205845 4.8435714 0zm5.6669785 19.9031987c-3.4718925-.5921401-6.9875602-.8969372-10.5105499-.9112307-12.0199749-.0097573-23.7892715 3.4030786-33.9049994 9.8317005-10.1157279-6.4286219-21.8850245-9.8414578-33.9049994-9.8317005-3.5229897.0142935-7.03865737.3190906-10.51054986.9112307-1.27344397.2000999-2.41375411.8946963-3.16834145 1.9299299-.75458733 1.0352335-1.06116481 2.3256514-.85182277 3.5854144.51247157 2.5929936 3.04646095 4.2871562 5.66697848 3.7888016 14.0222781-2.4039716 28.4308581.8990368 39.9594636 9.1602674 1.6815151 1.1854539 3.9370277 1.1854539 5.6185428 0 11.5286055-8.2612306 25.9371855-11.564239 39.9594636-9.1602674 2.6205175.4983546 5.1545069-1.195808 5.6669785-3.7888016.209342-1.259763-.0972355-2.5501809-.8518228-3.5854144-.7545873-1.0352336-1.8948975-1.72983-3.1683414-1.9299299z" transform="translate(23 41)"/></g></svg>