<svg width="160" height="160" viewBox="0 0 160 160" fill="none" xmlns="http://www.w3.org/2000/svg">
<rect width="160" height="160" rx="30" fill="url(#paint0_linear_10710_20166)"/>
<g filter="url(#filter0_d_10710_20166)">
<rect x="44" y="44" width="72" height="72" rx="36" fill="url(#paint1_linear_10710_20166)"/>
</g>
<path fill-rule="evenodd" clip-rule="evenodd" d="M67.0013 76.9993C67.0013 72.9971 67.812 70.629 69.2215 69.2195C70.631 67.81 72.999 66.9993 77.0013 66.9993H87.0013C91.0036 66.9993 93.3716 67.81 94.7811 69.2195C96.1906 70.629 97.0013 72.9971 97.0013 76.9993V86.9993C97.0013 91.0016 96.1906 93.3697 94.7811 94.7792C93.3716 96.1887 91.0036 96.9994 87.0013 96.9994H77.0013C72.999 96.9994 70.631 96.1887 69.2215 94.7792C67.812 93.3697 67.0013 91.0016 67.0013 86.9993V76.9993ZM77.0013 63.666C72.6703 63.666 69.2049 64.522 66.8645 66.8625C64.524 69.203 63.668 72.6683 63.668 76.9993V86.9993C63.668 91.3304 64.524 94.7957 66.8645 97.1362C69.2049 99.4767 72.6703 100.333 77.0013 100.333H87.0013C91.3324 100.333 94.7977 99.4767 97.1381 97.1362C99.4786 94.7957 100.335 91.3304 100.335 86.9993V76.9993C100.335 72.6683 99.4786 69.203 97.1381 66.8625C94.7977 64.522 91.3324 63.666 87.0013 63.666H77.0013ZM82.0013 70.3327C82.9218 70.3327 83.668 71.0789 83.668 71.9993V72.5658H83.8711C86.917 72.5658 89.2378 75.1226 89.2378 78.1158C89.2378 79.0362 88.4916 79.7824 87.5711 79.7824C86.6506 79.7824 85.9044 79.0362 85.9044 78.1158C85.9044 76.8089 84.9252 75.8991 83.8711 75.8991H83.668V80.8097L85.9279 81.5948C86.7065 81.8708 87.6056 82.3024 88.2765 83.1584C88.963 84.034 89.2378 85.1273 89.2378 86.3824C89.2378 89.0977 87.1118 91.4324 84.3378 91.4324H83.668V91.9993C83.668 92.9198 82.9218 93.666 82.0013 93.666C81.0808 93.666 80.3346 92.9198 80.3346 91.9993V91.4324H80.1544C77.1085 91.4324 74.7878 88.8756 74.7878 85.8824C74.7878 84.9619 75.534 84.2158 76.4544 84.2158C77.3749 84.2158 78.1211 84.9619 78.1211 85.8824C78.1211 87.1893 79.1004 88.0991 80.1544 88.0991H80.3346V83.1805L78.0976 82.4034C77.319 82.1274 76.42 81.6958 75.749 80.8398C75.0626 79.9641 74.7878 78.8709 74.7878 77.6158C74.7878 74.9004 76.9137 72.5658 79.6878 72.5658H80.3346V71.9993C80.3346 71.0789 81.0808 70.3327 82.0013 70.3327ZM79.6878 75.8991H80.3346V79.6517L79.2066 79.2599C78.672 79.0699 78.4719 78.9104 78.3724 78.7834C78.288 78.6757 78.1211 78.3939 78.1211 77.6158C78.1211 76.5977 78.8951 75.8991 79.6878 75.8991ZM83.668 88.0991V84.3385L84.8189 84.7383C85.3535 84.9283 85.5536 85.0878 85.6532 85.2148C85.7376 85.3225 85.9044 85.6042 85.9044 86.3824C85.9044 87.4004 85.1304 88.0991 84.3378 88.0991H83.668Z" fill="black" fill-opacity="0.15"/>
<path fill-rule="evenodd" clip-rule="evenodd" d="M64.0013 73.9993C64.0013 69.9971 64.812 67.629 66.2215 66.2195C67.631 64.81 69.999 63.9993 74.0013 63.9993H84.0013C88.0036 63.9993 90.3716 64.81 91.7811 66.2195C93.1906 67.629 94.0013 69.9971 94.0013 73.9993V83.9993C94.0013 88.0016 93.1906 90.3697 91.7811 91.7792C90.3716 93.1887 88.0036 93.9994 84.0013 93.9994H74.0013C69.999 93.9994 67.631 93.1887 66.2215 91.7792C64.812 90.3697 64.0013 88.0016 64.0013 83.9993V73.9993ZM74.0013 60.666C69.6703 60.666 66.2049 61.522 63.8645 63.8625C61.524 66.203 60.668 69.6683 60.668 73.9993V83.9993C60.668 88.3304 61.524 91.7957 63.8645 94.1362C66.2049 96.4767 69.6703 97.3327 74.0013 97.3327H84.0013C88.3324 97.3327 91.7977 96.4767 94.1381 94.1362C96.4786 91.7957 97.3346 88.3304 97.3346 83.9993V73.9993C97.3346 69.6683 96.4786 66.203 94.1381 63.8625C91.7977 61.522 88.3324 60.666 84.0013 60.666H74.0013ZM79.0013 67.3327C79.9218 67.3327 80.668 68.0789 80.668 68.9993V69.5658H80.8711C83.917 69.5658 86.2378 72.1226 86.2378 75.1158C86.2378 76.0362 85.4916 76.7824 84.5711 76.7824C83.6506 76.7824 82.9044 76.0362 82.9044 75.1158C82.9044 73.8089 81.9252 72.8991 80.8711 72.8991H80.668V77.8097L82.9279 78.5948C83.7065 78.8708 84.6056 79.3024 85.2765 80.1584C85.963 81.034 86.2378 82.1273 86.2378 83.3824C86.2378 86.0977 84.1118 88.4324 81.3378 88.4324H80.668V88.9993C80.668 89.9198 79.9218 90.666 79.0013 90.666C78.0808 90.666 77.3346 89.9198 77.3346 88.9993V88.4324H77.1544C74.1085 88.4324 71.7878 85.8756 71.7878 82.8824C71.7878 81.9619 72.534 81.2158 73.4544 81.2158C74.3749 81.2158 75.1211 81.9619 75.1211 82.8824C75.1211 84.1893 76.1004 85.0991 77.1544 85.0991H77.3346V80.1805L75.0976 79.4034C74.319 79.1274 73.42 78.6958 72.749 77.8398C72.0626 76.9641 71.7878 75.8709 71.7878 74.6158C71.7878 71.9004 73.9137 69.5658 76.6878 69.5658H77.3346V68.9993C77.3346 68.0789 78.0808 67.3327 79.0013 67.3327ZM76.6878 72.8991H77.3346V76.6517L76.2066 76.2599C75.672 76.0699 75.4719 75.9104 75.3724 75.7834C75.288 75.6757 75.1211 75.3939 75.1211 74.6158C75.1211 73.5977 75.8951 72.8991 76.6878 72.8991ZM80.668 85.0991V81.3385L81.8189 81.7383C82.3535 81.9283 82.5536 82.0878 82.6532 82.2148C82.7376 82.3225 82.9044 82.6042 82.9044 83.3824C82.9044 84.4004 82.1304 85.0991 81.3378 85.0991H80.668Z" fill="white"/>
<defs>
<filter id="filter0_d_10710_20166" x="24" y="34" width="112" height="112" filterUnits="userSpaceOnUse" color-interpolation-filters="sRGB">
<feFlood flood-opacity="0" result="BackgroundImageFix"/>
<feColorMatrix in="SourceAlpha" type="matrix" values="0 0 0 0 0 0 0 0 0 0 0 0 0 0 0 0 0 0 127 0" result="hardAlpha"/>
<feOffset dy="10"/>
<feGaussianBlur stdDeviation="10"/>
<feColorMatrix type="matrix" values="0 0 0 0 0 0 0 0 0 0.351917 0 0 0 0 0.429167 0 0 0 0.35 0"/>
<feBlend mode="normal" in2="BackgroundImageFix" result="effect1_dropShadow_10710_20166"/>
<feBlend mode="normal" in="SourceGraphic" in2="effect1_dropShadow_10710_20166" result="shape"/>
</filter>
<linearGradient id="paint0_linear_10710_20166" x1="80" y1="0" x2="80" y2="160" gradientUnits="userSpaceOnUse">
<stop stop-color="#F4FAFC"/>
<stop offset="1" stop-color="#E8F5FA"/>
</linearGradient>
<linearGradient id="paint1_linear_10710_20166" x1="80" y1="44" x2="80" y2="116" gradientUnits="userSpaceOnUse">
<stop stop-color="#30DFB5"/>
<stop offset="1" stop-color="#1EC19A"/>
</linearGradient>
</defs>
</svg>
