<svg width="50" height="50" viewBox="0 0 50 50" fill="none" xmlns="http://www.w3.org/2000/svg">
<path fill-rule="evenodd" clip-rule="evenodd" d="M25.0013 8.33366C15.7966 8.33366 8.33464 15.7956 8.33464 25.0003C8.33464 34.2051 15.7966 41.667 25.0013 41.667C34.206 41.667 41.668 34.2051 41.668 25.0003C41.668 15.7956 34.206 8.33366 25.0013 8.33366ZM4.16797 25.0003C4.16797 13.4944 13.4954 4.16699 25.0013 4.16699C36.5072 4.16699 45.8346 13.4944 45.8346 25.0003C45.8346 36.5063 36.5072 45.8337 25.0013 45.8337C13.4954 45.8337 4.16797 36.5063 4.16797 25.0003ZM22.8142 32.1882C22.8142 31.0376 23.7469 30.1049 24.8975 30.1049H25.1059C26.2565 30.1049 27.1892 31.0376 27.1892 32.1882V32.3966C27.1892 33.5472 26.2565 34.4799 25.1059 34.4799H24.8975C23.7469 34.4799 22.8142 33.5472 22.8142 32.3966V32.1882ZM27.0846 17.6049C27.0846 16.4543 26.1519 15.5216 25.0013 15.5216C23.8507 15.5216 22.918 16.4543 22.918 17.6049V25.9382C22.918 27.0888 23.8507 28.0216 25.0013 28.0216C26.1519 28.0216 27.0846 27.0888 27.0846 25.9382V17.6049Z" fill="#EE5E5E"/>
</svg>
