<svg width="50" height="50" viewBox="0 0 50 50" fill="none" xmlns="http://www.w3.org/2000/svg">
<path fill-rule="evenodd" clip-rule="evenodd" d="M41.668 14.5833L8.33464 14.5833L8.33464 39.5833H41.668L41.668 14.5833ZM4.16797 12.5009V12.5V12.4991V10.4167C4.16797 8.11548 6.03345 6.25 8.33464 6.25L41.668 6.25C43.9692 6.25 45.8346 8.11548 45.8346 10.4167V12.4945L45.8346 12.5L45.8346 12.5055L45.8346 39.5833C45.8346 41.8845 43.9692 43.75 41.668 43.75L8.33464 43.75C6.03345 43.75 4.16797 41.8845 4.16797 39.5833L4.16797 12.5009ZM30.641 21.4435C31.4546 22.2571 31.4546 23.5762 30.641 24.3898L27.9475 27.0833L30.641 29.7768C31.4546 30.5904 31.4546 31.9095 30.641 32.7231C29.8274 33.5367 28.5084 33.5367 27.6948 32.7231L25.0013 30.0296L22.3078 32.7231C21.4942 33.5367 20.1751 33.5367 19.3615 32.7231C18.5479 31.9095 18.5479 30.5904 19.3615 29.7768L22.055 27.0833L19.3615 24.3898C18.5479 23.5762 18.5479 22.2571 19.3615 21.4435C20.1751 20.6299 21.4942 20.6299 22.3078 21.4435L25.0013 24.137L27.6948 21.4435C28.5084 20.6299 29.8274 20.6299 30.641 21.4435Z" fill="#EE5E5E"/>
</svg>
