<svg width="160" height="160" viewBox="0 0 160 160" fill="none" xmlns="http://www.w3.org/2000/svg">
<rect width="160" height="160" rx="30" fill="url(#paint0_linear_10710_20167)"/>
<g filter="url(#filter0_d_10710_20167)">
<rect x="79.7891" y="32.7891" width="66.4671" height="66.4671" rx="17" transform="rotate(45 79.7891 32.7891)" fill="url(#paint1_linear_10710_20167)"/>
</g>
<g opacity="0.15">
<path d="M98.6654 82.0007C98.6654 91.2007 91.1987 98.6673 81.9987 98.6673C72.7987 98.6673 65.332 91.2007 65.332 82.0007C65.332 72.8007 72.7987 65.334 81.9987 65.334C91.1987 65.334 98.6654 72.8007 98.6654 82.0007Z" stroke="#292D32" stroke-width="3.5" stroke-linecap="round" stroke-linejoin="round"/>
<path d="M88.1867 87.3048L83.0201 84.2215C82.1201 83.6882 81.3867 82.4048 81.3867 81.3548V74.5215" stroke="#292D32" stroke-width="3.5" stroke-linecap="round" stroke-linejoin="round"/>
</g>
<path d="M95.6654 79.0007C95.6654 88.2007 88.1987 95.6673 78.9987 95.6673C69.7987 95.6673 62.332 88.2007 62.332 79.0007C62.332 69.8007 69.7987 62.334 78.9987 62.334C88.1987 62.334 95.6654 69.8007 95.6654 79.0007Z" stroke="white" stroke-width="3.5" stroke-linecap="round" stroke-linejoin="round"/>
<path d="M85.1867 84.3048L80.0201 81.2215C79.1201 80.6882 78.3867 79.4048 78.3867 78.3548V71.5215" stroke="white" stroke-width="3.5" stroke-linecap="round" stroke-linejoin="round"/>
<defs>
<filter id="filter0_d_10710_20167" x="19.832" y="29.8301" width="119.914" height="119.916" filterUnits="userSpaceOnUse" color-interpolation-filters="sRGB">
<feFlood flood-opacity="0" result="BackgroundImageFix"/>
<feColorMatrix in="SourceAlpha" type="matrix" values="0 0 0 0 0 0 0 0 0 0 0 0 0 0 0 0 0 0 127 0" result="hardAlpha"/>
<feOffset dy="10"/>
<feGaussianBlur stdDeviation="10"/>
<feComposite in2="hardAlpha" operator="out"/>
<feColorMatrix type="matrix" values="0 0 0 0 0.229531 0 0 0 0 0.379153 0 0 0 0 0.4875 0 0 0 0.25 0"/>
<feBlend mode="normal" in2="BackgroundImageFix" result="effect1_dropShadow_10710_20167"/>
<feBlend mode="normal" in="SourceGraphic" in2="effect1_dropShadow_10710_20167" result="shape"/>
</filter>
<linearGradient id="paint0_linear_10710_20167" x1="80" y1="0" x2="80" y2="160" gradientUnits="userSpaceOnUse">
<stop stop-color="#F4FAFC"/>
<stop offset="1" stop-color="#E8F5FA"/>
</linearGradient>
<linearGradient id="paint1_linear_10710_20167" x1="85.7428" y1="38.4473" x2="146.554" y2="99.2585" gradientUnits="userSpaceOnUse">
<stop stop-color="#20C1D8"/>
<stop offset="1" stop-color="#008598"/>
</linearGradient>
</defs>
</svg>
