<svg width="160" height="160" viewBox="0 0 160 160" fill="none" xmlns="http://www.w3.org/2000/svg">
<rect width="160" height="160" rx="30" fill="url(#paint0_linear_11178_17888)"/>
<g filter="url(#filter0_d_11178_17888)">
<rect x="80" y="33" width="66.4671" height="66.4671" rx="17" transform="rotate(45 80 33)" fill="url(#paint1_linear_11178_17888)"/>
</g>
<g opacity="0.15">
<path d="M83 100C92.3888 100 100 92.3888 100 83C100 73.6112 92.3888 66 83 66C73.6112 66 66 73.6112 66 83C66 92.3888 73.6112 100 83 100Z" stroke="black" stroke-width="3.5" stroke-miterlimit="10" stroke-linecap="round" stroke-linejoin="round"/>
<path d="M82.9062 89.5156H83.0951V89.7045H82.9062V89.5156Z" stroke="black" stroke-width="3.5" stroke-linecap="round" stroke-linejoin="round"/>
<path d="M83 76.2949V83.8505" stroke="black" stroke-width="3.5" stroke-linecap="round" stroke-linejoin="round"/>
</g>
<path d="M80 97C89.3888 97 97 89.3888 97 80C97 70.6112 89.3888 63 80 63C70.6112 63 63 70.6112 63 80C63 89.3888 70.6112 97 80 97Z" stroke="white" stroke-width="3.5" stroke-miterlimit="10" stroke-linecap="round" stroke-linejoin="round"/>
<path d="M79.9062 86.5156H80.0951V86.7045H79.9062V86.5156Z" stroke="white" stroke-width="3.5" stroke-linecap="round" stroke-linejoin="round"/>
<path d="M80 73.2949V80.8505" stroke="white" stroke-width="3.5" stroke-linecap="round" stroke-linejoin="round"/>
<g filter="url(#filter1_d_11178_17888)">
<path d="M124 104.5C124 111.956 117.956 118 110.5 118C103.044 118 97 111.956 97 104.5C97 97.0442 103.044 91 110.5 91C117.956 91 124 97.0442 124 104.5Z" fill="#417BD2"/>
<path d="M123 104.5C123 111.404 117.404 117 110.5 117V119C118.508 119 125 112.508 125 104.5H123ZM110.5 117C103.596 117 98 111.404 98 104.5H96C96 112.508 102.492 119 110.5 119V117ZM98 104.5C98 97.5964 103.596 92 110.5 92V90C102.492 90 96 96.4919 96 104.5H98ZM110.5 92C117.404 92 123 97.5964 123 104.5H125C125 96.4919 118.508 90 110.5 90V92Z" fill="white" fill-opacity="0.2"/>
</g>
<path fill-rule="evenodd" clip-rule="evenodd" d="M105.9 103.351C105.9 101.445 107.445 99.9004 109.351 99.9004C111.257 99.9004 112.803 101.445 112.803 103.351C112.803 105.257 111.257 106.803 109.351 106.803C107.445 106.803 105.9 105.257 105.9 103.351ZM109.351 98.75C106.81 98.75 104.75 100.81 104.75 103.351C104.75 105.893 106.81 107.953 109.351 107.953C110.415 107.953 111.394 107.592 112.173 106.986L115.272 110.086C115.497 110.31 115.861 110.31 116.086 110.086C116.31 109.861 116.31 109.497 116.086 109.272L112.986 106.173C113.592 105.394 113.953 104.415 113.953 103.351C113.953 100.81 111.893 98.75 109.351 98.75Z" fill="white"/>
<path d="M112.173 106.986L112.527 106.633C112.348 106.455 112.065 106.437 111.866 106.592L112.173 106.986ZM112.986 106.173L112.592 105.866C112.437 106.065 112.455 106.348 112.633 106.527L112.986 106.173ZM109.351 99.4004C107.169 99.4004 105.4 101.169 105.4 103.351H106.4C106.4 101.722 107.722 100.4 109.351 100.4V99.4004ZM113.303 103.351C113.303 101.169 111.534 99.4004 109.351 99.4004V100.4C110.981 100.4 112.303 101.722 112.303 103.351H113.303ZM109.351 107.303C111.534 107.303 113.303 105.534 113.303 103.351H112.303C112.303 104.981 110.981 106.303 109.351 106.303V107.303ZM105.4 103.351C105.4 105.534 107.169 107.303 109.351 107.303V106.303C107.722 106.303 106.4 104.981 106.4 103.351H105.4ZM105.25 103.351C105.25 101.086 107.086 99.25 109.351 99.25V98.25C106.534 98.25 104.25 100.534 104.25 103.351H105.25ZM109.351 107.453C107.086 107.453 105.25 105.617 105.25 103.351H104.25C104.25 106.169 106.534 108.453 109.351 108.453V107.453ZM111.866 106.592C111.172 107.132 110.3 107.453 109.351 107.453V108.453C110.53 108.453 111.616 108.053 112.48 107.381L111.866 106.592ZM115.626 109.732L112.527 106.633L111.82 107.34L114.919 110.439L115.626 109.732ZM115.732 109.732C115.703 109.762 115.655 109.762 115.626 109.732L114.919 110.439C115.339 110.859 116.02 110.859 116.439 110.439L115.732 109.732ZM115.732 109.626C115.762 109.655 115.762 109.703 115.732 109.732L116.439 110.439C116.859 110.02 116.859 109.339 116.439 108.919L115.732 109.626ZM112.633 106.527L115.732 109.626L116.439 108.919L113.34 105.82L112.633 106.527ZM113.453 103.351C113.453 104.3 113.132 105.172 112.592 105.866L113.381 106.48C114.053 105.616 114.453 104.53 114.453 103.351H113.453ZM109.351 99.25C111.617 99.25 113.453 101.086 113.453 103.351H114.453C114.453 100.534 112.169 98.25 109.351 98.25V99.25Z" fill="white"/>
<defs>
<filter id="filter0_d_11178_17888" x="20.043" y="30.041" width="119.914" height="119.916" filterUnits="userSpaceOnUse" color-interpolation-filters="sRGB">
<feFlood flood-opacity="0" result="BackgroundImageFix"/>
<feColorMatrix in="SourceAlpha" type="matrix" values="0 0 0 0 0 0 0 0 0 0 0 0 0 0 0 0 0 0 127 0" result="hardAlpha"/>
<feOffset dy="10"/>
<feGaussianBlur stdDeviation="10"/>
<feComposite in2="hardAlpha" operator="out"/>
<feColorMatrix type="matrix" values="0 0 0 0 0.229531 0 0 0 0 0.379153 0 0 0 0 0.4875 0 0 0 0.25 0"/>
<feBlend mode="normal" in2="BackgroundImageFix" result="effect1_dropShadow_11178_17888"/>
<feBlend mode="normal" in="SourceGraphic" in2="effect1_dropShadow_11178_17888" result="shape"/>
</filter>
<filter id="filter1_d_11178_17888" x="88" y="86" width="45" height="45" filterUnits="userSpaceOnUse" color-interpolation-filters="sRGB">
<feFlood flood-opacity="0" result="BackgroundImageFix"/>
<feColorMatrix in="SourceAlpha" type="matrix" values="0 0 0 0 0 0 0 0 0 0 0 0 0 0 0 0 0 0 127 0" result="hardAlpha"/>
<feOffset dy="4"/>
<feGaussianBlur stdDeviation="4"/>
<feComposite in2="hardAlpha" operator="out"/>
<feColorMatrix type="matrix" values="0 0 0 0 0 0 0 0 0 0.274167 0 0 0 0 0.291667 0 0 0 0.25 0"/>
<feBlend mode="normal" in2="BackgroundImageFix" result="effect1_dropShadow_11178_17888"/>
<feBlend mode="normal" in="SourceGraphic" in2="effect1_dropShadow_11178_17888" result="shape"/>
</filter>
<linearGradient id="paint0_linear_11178_17888" x1="80" y1="0" x2="80" y2="160" gradientUnits="userSpaceOnUse">
<stop stop-color="#F4FAFC"/>
<stop offset="1" stop-color="#E8F5FA"/>
</linearGradient>
<linearGradient id="paint1_linear_11178_17888" x1="85.9538" y1="38.6582" x2="146.765" y2="99.4694" gradientUnits="userSpaceOnUse">
<stop stop-color="#99CBCF"/>
<stop offset="1" stop-color="#65A4A9"/>
</linearGradient>
</defs>
</svg>
