<svg width="35" height="35" viewBox="0 0 35 35" fill="none" xmlns="http://www.w3.org/2000/svg">
<path d="M20.1094 15.6758L14.6406 10.207" stroke="#417BD2" stroke-width="3" stroke-miterlimit="10" stroke-linecap="round" stroke-linejoin="round"/>
<path d="M20.0508 10.2637L14.582 15.7324" stroke="#417BD2" stroke-width="3" stroke-miterlimit="10" stroke-linecap="round" stroke-linejoin="round"/>
<path d="M27.7096 13.1243C27.7096 15.2389 27.0826 17.1785 26.0034 18.7973C24.4284 21.1306 21.9346 22.7785 19.0326 23.2014C18.5367 23.2889 18.0263 23.3327 17.5013 23.3327C16.9763 23.3327 16.4659 23.2889 15.9701 23.2014C13.068 22.7785 10.5742 21.1306 8.99922 18.7973C7.92005 17.1785 7.29297 15.2389 7.29297 13.1243C7.29297 7.4806 11.8576 2.91602 17.5013 2.91602C23.1451 2.91602 27.7096 7.4806 27.7096 13.1243Z" stroke="#417BD2" stroke-width="3" stroke-linecap="round" stroke-linejoin="round"/>
<path d="M30.9897 26.9354L28.5834 27.5042C28.0438 27.6354 27.6209 28.0438 27.5042 28.5834L26.9938 30.7271C26.7167 31.8938 25.2292 32.2438 24.4563 31.325L17.5001 23.3333L10.5438 31.3396C9.77091 32.2583 8.28341 31.9083 8.00632 30.7417L7.49591 28.5979C7.36466 28.0583 6.94174 27.6354 6.41674 27.5188L4.01049 26.95C2.90216 26.6875 2.50841 25.3021 3.31049 24.5L8.99799 18.8125C10.573 21.1458 13.0667 22.7938 15.9688 23.2167C16.4647 23.3042 16.9751 23.3479 17.5001 23.3479C18.0251 23.3479 18.5355 23.3042 19.0313 23.2167C21.9334 22.7938 24.4272 21.1458 26.0022 18.8125L31.6897 24.5C32.4917 25.2875 32.098 26.6729 30.9897 26.9354Z" stroke="#417BD2" stroke-width="3" stroke-linecap="round" stroke-linejoin="round"/>
</svg>
