<svg width="100" height="100" viewBox="0 0 100 100" fill="none" xmlns="http://www.w3.org/2000/svg">
<rect width="100" height="100" rx="30" fill="url(#paint0_linear_19208_2846)"/>
<path fill-rule="evenodd" clip-rule="evenodd" d="M43.7062 64.0339C42.1549 64.9646 41.6667 65.9602 41.6667 66.6668C41.6667 67.8174 40.7339 68.7502 39.5833 68.7502C38.4327 68.7502 37.5 67.8174 37.5 66.6668C37.5 63.9216 39.3436 61.7923 41.5624 60.461C43.8227 59.1048 46.8108 58.3335 50 58.3335C53.1892 58.3335 56.1773 59.1048 58.4376 60.461C60.6564 61.7923 62.5 63.9216 62.5 66.6668C62.5 67.8174 61.5673 68.7502 60.4167 68.7502C59.2661 68.7502 58.3333 67.8174 58.3333 66.6668C58.3333 65.9602 57.8451 64.9646 56.2938 64.0339C54.784 63.128 52.5638 62.5002 50 62.5002C47.4362 62.5002 45.216 63.128 43.7062 64.0339Z" fill="white"/>
<path fill-rule="evenodd" clip-rule="evenodd" d="M60.4866 54.1581C60.7783 53.0451 61.9171 52.3794 63.0301 52.6711C65.1102 53.2164 66.9945 54.1394 68.3995 55.4028C69.8101 56.6714 70.8351 58.3878 70.8351 60.4163C70.8351 61.5669 69.9024 62.4997 68.7518 62.4997C67.6012 62.4997 66.6685 61.5669 66.6685 60.4163C66.6685 59.882 66.408 59.2156 65.6134 58.501C64.8131 57.7813 63.5724 57.1208 61.9735 56.7016C60.8605 56.4098 60.1948 55.2711 60.4866 54.1581Z" fill="white"/>
<path fill-rule="evenodd" clip-rule="evenodd" d="M39.5165 54.1581C39.8083 55.2711 39.1426 56.4098 38.0296 56.7016C36.4307 57.1208 35.19 57.7813 34.3897 58.501C33.5951 59.2156 33.3346 59.882 33.3346 60.4163C33.3346 61.5669 32.4019 62.4997 31.2513 62.4997C30.1007 62.4997 29.168 61.5669 29.168 60.4163C29.168 58.3878 30.193 56.6714 31.6036 55.4028C33.0086 54.1394 34.8929 53.2164 36.973 52.6711C38.086 52.3794 39.2248 53.0451 39.5165 54.1581Z" fill="white"/>
<path fill-rule="evenodd" clip-rule="evenodd" d="M50.0013 43.7502C47.7001 43.7502 45.8346 45.6156 45.8346 47.9168C45.8346 50.218 47.7001 52.0835 50.0013 52.0835C52.3025 52.0835 54.168 50.218 54.168 47.9168C54.168 45.6156 52.3025 43.7502 50.0013 43.7502ZM41.668 47.9168C41.668 43.3145 45.3989 39.5835 50.0013 39.5835C54.6037 39.5835 58.3346 43.3145 58.3346 47.9168C58.3346 52.5192 54.6037 56.2502 50.0013 56.2502C45.3989 56.2502 41.668 52.5192 41.668 47.9168Z" fill="white"/>
<path fill-rule="evenodd" clip-rule="evenodd" d="M58.3321 37.5002C57.2636 37.5002 56.2933 37.8996 55.5548 38.5606C54.6974 39.328 53.3804 39.255 52.613 38.3977C51.8457 37.5403 51.9186 36.2233 52.776 35.4559C54.2489 34.1376 56.1991 33.3335 58.3321 33.3335C62.9344 33.3335 66.6654 37.0645 66.6654 41.6668C66.6654 44.1351 65.5897 46.3548 63.8881 47.8777C63.0308 48.6451 61.7137 48.5721 60.9464 47.7148C60.179 46.8574 60.252 45.5404 61.1093 44.773C61.9651 44.0071 62.4987 42.9007 62.4987 41.6668C62.4987 39.3656 60.6332 37.5002 58.3321 37.5002Z" fill="white"/>
<path fill-rule="evenodd" clip-rule="evenodd" d="M33.332 41.6668C33.332 37.0645 37.063 33.3335 41.6654 33.3335C43.7983 33.3335 45.7485 34.1376 47.2214 35.4559C48.0788 36.2233 48.1517 37.5403 47.3844 38.3977C46.617 39.255 45.3 39.328 44.4426 38.5606C43.7041 37.8996 42.7339 37.5002 41.6654 37.5002C39.3642 37.5002 37.4987 39.3656 37.4987 41.6668C37.4987 42.9007 38.0323 44.0071 38.8881 44.773C39.7454 45.5404 39.8184 46.8574 39.0511 47.7148C38.2837 48.5721 36.9666 48.6451 36.1093 47.8777C34.4078 46.3548 33.332 44.1351 33.332 41.6668Z" fill="white"/>
<defs>
<linearGradient id="paint0_linear_19208_2846" x1="50" y1="0" x2="50" y2="100" gradientUnits="userSpaceOnUse">
<stop stop-color="#419ED2"/>
<stop offset="1" stop-color="#187AB1"/>
</linearGradient>
</defs>
</svg>
