<svg width="55" height="55" viewBox="0 0 55 55" fill="none" xmlns="http://www.w3.org/2000/svg">
<circle cx="27.5" cy="27.5" r="27.5" fill="#DFF1FF"/>
<path fill-rule="evenodd" clip-rule="evenodd" d="M16.1554 14.3C14.5233 14.3 13.2002 15.6231 13.2002 17.2552V18.7217C13.2002 18.7253 13.2002 18.729 13.2002 18.7326L13.2002 37.9409C13.2002 39.573 14.5232 40.896 16.1553 40.896L39.7963 40.896C41.4283 40.896 42.7514 39.573 42.7514 37.9409L42.7514 20.2102C42.7514 18.5781 41.4283 17.2551 39.7963 17.2551L28.5878 17.2551L26.4983 15.1656C25.9441 14.6114 25.1924 14.3 24.4087 14.3H16.1554ZM27.9602 20.2102C27.9706 20.2103 27.981 20.2103 27.9914 20.2102L39.7963 20.2102L39.7963 37.9409L16.1553 37.9409L16.1553 20.2102H27.9602ZM31.9759 25.0756C31.3989 24.4985 30.4634 24.4985 29.8863 25.0756C29.3093 25.6526 29.3093 26.5881 29.8863 27.1652L31.7967 29.0755L29.8863 30.9858C29.3093 31.5628 29.3093 32.4984 29.8863 33.0754C30.4634 33.6524 31.3989 33.6524 31.9759 33.0754L34.931 30.1203C35.5081 29.5433 35.5081 28.6077 34.931 28.0307L31.9759 25.0756ZM26.0654 25.0756C26.6424 25.6526 26.6424 26.5881 26.0654 27.1652L24.1551 29.0755L26.0654 30.9858C26.6424 31.5628 26.6424 32.4984 26.0654 33.0754C25.4884 33.6524 24.5528 33.6524 23.9758 33.0754L21.0207 30.1203C20.7436 29.8432 20.5879 29.4674 20.5879 29.0755C20.5879 28.6836 20.7436 28.3078 21.0207 28.0307L23.9758 25.0756C24.5528 24.4985 25.4884 24.4985 26.0654 25.0756Z" fill="#417BD2"/>
</svg>
