<svg width="55" height="55" viewBox="0 0 55 55" fill="none" xmlns="http://www.w3.org/2000/svg">
<circle cx="27.5" cy="27.5" r="27.5" fill="#DFF1FF"/>
<path fill-rule="evenodd" clip-rule="evenodd" d="M34.0872 12.0999C34.9278 12.0999 35.6093 12.7813 35.6093 13.6219V15.1439H38.6533C40.3346 15.1439 41.6975 16.5069 41.6975 18.1881V22.7544V39.4975C41.6975 41.1787 40.3346 42.5417 38.6533 42.5417H17.344C15.6627 42.5417 14.2998 41.1787 14.2998 39.4975V22.7544V18.1881C14.2998 16.5069 15.6627 15.1439 17.344 15.1439H20.3884V13.6219C20.3884 12.7813 21.0699 12.0999 21.9105 12.0999C22.7511 12.0999 23.4326 12.7813 23.4326 13.6219V15.1439H32.5651V13.6219C32.5651 12.7813 33.2466 12.0999 34.0872 12.0999ZM21.8909 18.1881C21.8974 18.1882 21.9039 18.1882 21.9105 18.1882C21.917 18.1882 21.9236 18.1882 21.9301 18.1881H34.0676L34.0872 18.1882L34.1068 18.1881H38.6533V21.2323H17.344V18.1881H21.8909ZM38.6533 24.2765H17.344V39.4975H38.6533V24.2765ZM33.6412 29.9192C34.2356 29.3248 34.2356 28.3611 33.6412 27.7667C33.0467 27.1723 32.083 27.1723 31.4886 27.7667L26.4765 32.7788L24.5086 30.8109C23.9142 30.2164 22.9504 30.2164 22.356 30.8109C21.7616 31.4053 21.7616 32.369 22.356 32.9634L25.4002 36.0076C25.9946 36.602 26.9584 36.602 27.5528 36.0076L33.6412 29.9192Z" fill="#417BD2"/>
</svg>
