<svg height="506" viewBox="0 0 480 506" width="480" xmlns="http://www.w3.org/2000/svg" xmlns:xlink="http://www.w3.org/1999/xlink"><defs><rect id="a" height="386" rx="8" width="360"/><filter id="b" height="151.8%" width="155.6%" x="-27.8%" y="-20.7%"><feOffset dx="0" dy="20" in="SourceAlpha" result="shadowOffsetOuter1"/><feGaussianBlur in="shadowOffsetOuter1" result="shadowBlurOuter1" stdDeviation="30"/><feColorMatrix in="shadowBlurOuter1" type="matrix" values="0 0 0 0 0   0 0 0 0 0   0 0 0 0 0  0 0 0 0.123688811 0"/></filter><mask id="c" fill="#fff"><use fill="#fff" fill-rule="evenodd" xlink:href="#a"/></mask></defs><g fill="none" fill-rule="evenodd" transform="translate(60 40)"><use fill="#000" filter="url(#b)" xlink:href="#a"/><use fill="#fff" fill-rule="evenodd" xlink:href="#a"/><path d="m0 172h397v214h-397z" fill="#e1ecec" mask="url(#c)"/><g mask="url(#c)"><g transform="translate(-24 193)"><path d="m0 .32393h405v140h-405z" fill="#fafafa"/><path d="m0 .32393h405v140h-405z" fill="#0b7a76" fill-opacity=".1"/><g fill="none" fill-rule="nonzero" transform="translate(27 10.32393)"><g transform="translate(44.305697 16.363718)"><path d="m123.100296 126.035442c-1.373241 0-2.784628 0-4.157869-.013428-.267019 0-.457747-.080568-.457747-.174564s.228873-.161137.495892-.161137c1.869134.013428 3.738268.013428 5.607402.013428.267019 0 .457747.067141.457747.161137s-.190728.161136-.457747.161136c-.495893.013428-.991786.013428-1.487678.013428zm7.036829 0c-.268381 0-.460081-.099389-.460081-.238534s.1917-.258412.460081-.258412c1.878664-.039756 3.757329-.119267 5.597653-.198778.268381-.019878.498421.079511.498421.218656.038341.139145-.15336.258412-.421741.258412-1.878664.099389-3.757329.1789-5.674333.218656zm-16.743849-.349129c-1.917005-.04092-3.795669-.122761-5.674334-.204603-.268381-.02046-.460081-.122761-.421741-.265984.03834-.143222.230041-.245523.498421-.225063 1.840325.081841 3.718989.143222 5.597654.184143.26838 0 .460081.122762.460081.265984 0 .122762-.230041.245523-.460081.245523zm-11.238096-.349128h-.038531c-1.888019-.097088-3.7760391-.194176-5.6255277-.307445-.2697171-.016182-.4238411-.11327-.3853101-.226539s.2697171-.177994.5394342-.161813c1.8494886.113269 3.7375086.210357 5.5869966.307445.269717.016181.462372.113269.423841.226539-.077062.080906-.269717.161813-.500903.161813zm39.181509 0c-.231186 0-.423841-.111065-.462372-.244343-.038531-.15549.154124-.288768.423841-.310981 1.849489-.133277 3.737509-.288768 5.586997-.488684.269717-.022213.500903.066638.539434.222129s-.115593.288768-.38531.310981c-1.849488.177704-3.776039.333194-5.625528.488685-.038531.022213-.038531.022213-.077062.022213zm-50.7625955-.698258c-.0386701 0-.0386701 0-.0773402 0-1.8561662-.176146-3.7510026-.371865-5.6071687-.567584-.2706909-.019572-.4253715-.156575-.3480312-.293578.0386701-.137003.309361-.215291.5800519-.176147 1.8174961.195719 3.7123324.391437 5.5684986.567584.2706909.019572.4253714.156575.3867013.274007-.0773403.117431-.2706909.195718-.5027117.195718zm61.9603855-.349128c-.233396 0-.427893-.071598-.466792-.178995-.0389-.125297.116698-.232694.388994-.268493 1.828271-.178994 3.734342-.375889 5.562614-.590683.272295-.035799.505692.035799.583491.161096.077798.125296-.077799.232693-.350095.268492-1.867171.214794-3.734342.411688-5.601513.590683-.0389.0179-.077799.0179-.116699.0179zm-73.1267099-1.047386c-.039594 0-.0791881 0-.1187821 0-1.9005143-.28581-3.8010286-.571619-5.6223548-.879414-.2375643-.04397-.3959404-.197868-.3167524-.32978.0791881-.131912.3563465-.219853.5939108-.175883 1.8213261.307795 3.6822464.593605 5.5827607.879414.2771583.043971.3959404.175883.3563464.32978-.0791881.087941-.2771583.175883-.4751286.175883zm84.3438329-.349129c-.198665 0-.397329-.061065-.476795-.183194-.079466-.142484.079466-.264614.317863-.305324 1.867448-.284968 3.734897-.569937 5.562612-.895616.238397-.040709.516528.020355.635727.16284.079466.122129-.039733.264614-.317864.325678-1.867448.325679-3.734896.610648-5.602344.895616-.039733 0-.079466 0-.119199 0zm-95.5128568-1.396514c-.0382034 0-.1146103 0-.1528137-.018228-1.7955614-.291635-3.5529194-.619725-5.2720739-.947814-.2292206-.054682-.3438309-.182272-.267424-.291636.1146103-.109363.3820343-.164044.6112549-.12759 1.7191545.32809 3.4765125.656179 5.2338704.947815.2292206.036454.3820344.164045.2674241.291635-.0382035.091136-.2292206.145818-.4202378.145818zm106.2680008-.349129c-.192041 0-.384082-.065332-.422491-.174219-.076816-.130665.038409-.283107.268858-.348439 1.766778-.370216 3.495147-.783988 5.223517-1.197759.230449-.065332.499307 0 .614532.152442.115224.130665 0 .283107-.268858.348439-1.72837.413771-3.495148.827542-5.261925 1.197759-.038409.021777-.115225.021777-.153633.021777zm-116.3630661-1.745643c-.0788871 0-.1183307 0-.1972179-.019531-1.7749609-.41015-3.5104783-.839831-5.2065521-1.269512-.2366614-.058593-.3155486-.214841-.1972179-.332026.1183308-.117186.4338794-.156248.6705408-.097655 1.6960738.429681 3.4315912.859362 5.1671086 1.269512.2366614.058593.3549922.195309.2366614.312495-.1183307.078124-.276105.136717-.4733229.136717zm126.8176541-.349129c-.197218 0-.354993-.058593-.43388-.136717-.118331-.117185 0-.253902.236662-.312495 1.735517-.41015 3.471034-.839831 5.167108-1.269512.236662-.058593.512767-.019531.670541.097655.118331.117186.039444.253902-.197218.332026-1.696074.449212-3.471035.878893-5.206552 1.289043-.078887 0-.157774 0-.236661 0zm-136.8390496-2.094772c-.0774567 0-.1549134-.020259-.23237-.040518-1.665319-.506473-3.2919097-1.053463-4.8410437-1.600454-.23237-.081036-.2710984-.222848-.116185-.344402.1549134-.121553.4260118-.141812.6583819-.060776 1.549134.54699 3.1757246 1.073722 4.8023153 1.580195.2323701.060777.3098268.222848.1549134.344402-.1161851.081035-.2710985.121553-.4260119.121553zm146.8695546-.698257c-.153906 0-.307812-.041447-.423241-.124342-.11543-.124342-.038477-.269408.192382-.352303 1.616015-.497368 3.232029-1.036184 4.809567-1.575.230859-.082895.500195-.041448.654101.082895.153906.124342.076953.269407-.153906.352302-1.577538.538816-3.232029 1.077632-4.848043 1.575001-.076953.020723-.153906.041447-.23086.041447zm-156.8483184-2.793029c-.1084772 0-.1807954-.020837-.2531135-.062511-1.4102035-.625106-2.820407-1.27105-4.1582923-1.93783-.1807954-.083347-.2169544-.250042-.0361591-.354227.1446363-.104184.4339088-.125021.6147041-.020837 1.3378854.645944 2.7119298 1.291887 4.1221333 1.916993.1807953.083348.2169544.250043.0723181.354227-.1084772.083348-.2531134.104185-.3615906.104185zm166.1270624-.349129c-.162393 0-.324786-.037925-.405983-.094813-.162393-.113776-.081196-.246515.121795-.322366 1.623931-.530955 3.247862-1.080872 4.790596-1.63079.202991-.07585.527777-.056888.690171.037926.162393.094813.121794.246515-.081197.322365-1.583333.56888-3.207263 1.118798-4.831194 1.649753-.081197.018962-.162393.037925-.284188.037925zm-174.2094029-3.491286c-.1093692 0-.2187385-.018903-.3281077-.056709-1.2759746-.642698-2.5519491-1.323201-3.7550109-2.003705-.1822821-.094514-.1458256-.245737.0364564-.321348.1822821-.094515.4739334-.075612.6197591.018902 1.2030617.680504 2.4425799 1.342104 3.7185545 1.984802.182282.094514.182282.226835 0 .321349-.0364565.037806-.1822821.056709-.2916514.056709zm183.8034689 0c-.148577 0-.26001-.040635-.334299-.081269-.148577-.101586-.148577-.264124.074289-.345393 1.374339-.629833 2.785822-1.300301 4.085873-1.950451.185721-.101586.482876-.081269.631453.020317.185721.101586.148577.264124-.037144.345392-1.337195.670468-2.748679 1.340936-4.123018 1.970769-.074288.040635-.185721.040635-.297154.040635zm8.522917-3.840416c-.11059 0-.22118-.018672-.331769-.074688-.184316-.09336-.184316-.242737 0-.317425 1.253348-.63485 2.54356-1.307044 3.723182-1.979238.184316-.09336.442358-.09336.626674-.018672.184316.09336.184316.224065.036863.317425-1.216485.672194-2.469833 1.344388-3.760045 1.99791-.036863.056016-.147453.074688-.294905.074688zm-200.0482542-.349128c-.1504545 0-.2632953-.039228-.3761361-.09807-1.1660218-.745331-2.2568165-1.52989-3.3476111-2.314448-.1504544-.117684-.1128408-.254982.1128408-.333438.2256817-.078456.4889769-.058842.6394314.058842 1.053181.784559 2.1439756 1.549504 3.3099974 2.294834.1504545.09807.1128409.254982-.0752272.333438-.0752272.039228-.1504544.058842-.2632952.058842zm207.4117132-3.840415c-.120435 0-.240871-.019965-.321161-.059895-.200726-.07986-.240871-.23958-.080291-.339405 1.244501-.738706 2.489001-1.5173411 3.653211-2.2959764.16058-.099825.481742-.1397551.682467-.03993.200726.07986.281017.2395801.080291.3394051-1.204355.7786353-2.40871 1.5572703-3.693356 2.3159413-.040145.03993-.200725.07986-.321161.07986zm-213.7074033-.698258c-.1567931 0-.3135862-.041241-.3919827-.123724-.9799569-.8660726-1.9599137-1.7527658-2.8614741-2.6394589-.1175948-.1237246-.0391982-.26807.1959914-.3505531.2351897-.0618623.5095776-.0206208.6663707.1031039.9015603.8866931 1.8423189 1.7733862 2.861474 2.6188381.1567931.123724.0783965.26807-.1567931.350553-.1175948.041241-.2351896.041241-.3135862.041241zm220.2717563-4.1895434c-.081266 0-.203165-.0188615-.284431-.037723-.243798-.075446-.284431-.2074764-.121899-.3206453 1.097092-.7544597 2.194183-1.5466423 3.210008-2.3199635.162532-.1131689.446963-.1508919.690761-.0754459.243799.0754459.325065.2074764.162533.3206453-1.056459.7921826-2.112917 1.5843653-3.250642 2.3388249-.081266.0565845-.243798.0943075-.40633.0943075zm-225.5826668-1.047386c-.1887394 0-.339731-.0590568-.4152267-.1377992-.75495765-.8661665-1.50991527-1.7717043-2.18937713-2.677242-.07549577-.1181137.03774788-.2559129.26423517-.3149697.22648728-.0393712.49072245.0196856.60396609.1377992.67946187.9055378 1.39667157 1.7913899 2.15162927 2.6575565.1132436.1181136 0 .2559128-.2264873.3149696-.0377479.0196856-.1132437.0196856-.1887394.0196856zm231.7757118-3.4912864c-.084308 0-.168617 0-.252925-.0402385-.252925-.0603576-.337233-.2213114-.210771-.3420267.969547-.8651265 1.939093-1.730253 2.824331-2.6154987.126463-.1207154.421542-.181073.674467-.1207154.252925.0603577.379388.2011922.252925.3219076-.885238.8852457-1.854784 1.7704914-2.866485 2.6356179-.042154.1005961-.210771.1609538-.421542.1609538zm-236.02865343-1.7646274c-.20124261 0-.40248522-.0569525-.48298227-.1518732-.60372783-.8732707-1.20745567-1.7845097-1.73068646-2.6767646-.08049704-.132889.08049705-.2467939.3622367-.2847622.28173966-.0379683.52323079.0379683.60372784.1708573.52323079.8922549 1.0867101 1.7845098 1.69043794 2.6577805.08049704.1139049-.04024852.2467939-.32198818.3037463-.04024852-.0189841-.08049704-.0189841-.12074557-.0189841zm240.99884743-3.4723024c-.077971 0-.116956 0-.194928-.019514-.233913-.0585422-.35087-.1951406-.233913-.312225.740726-.8781328 1.442468-1.7562655 2.105223-2.6539123.077972-.1170844.350871-.1951406.62377-.1365985.233914.0390282.389857.1756266.2729.312225-.662756.8976468-1.364497 1.7952937-2.14421 2.6734264-.077971.0780563-.272899.1365984-.428842.1365984zm-244.03065878-2.0947719c-.22136052 0-.40582762-.0743037-.44272104-.1857593-.40582761-.873069-.73786839-1.7832898-1.06990916-2.6935107-.03689342-.1300315.11068026-.2414871.36893419-.2600631.25825394-.0185759.47961446.0557278.51650788.1857594.29514735.8916449.66408155 1.8018657 1.03301574 2.6749347.03689342.1300316-.11068026.2414872-.33204078.278639 0 0-.03689341 0-.07378683 0zm247.85660678-3.4912864c-.035241 0-.070483 0-.140967-.0189073-.211451-.0378147-.352418-.1701658-.281934-.2836096.528627-.8697361.986771-1.7583794 1.444914-2.6659301.070484-.1323511.281935-.1890731.528628-.1701658.246693.0378147.352418.1512585.317176.2836096-.458143.8886434-.951529 1.7961941-1.444915 2.6848374-.070483.0945365-.246692.1701658-.422902.1701658zm3.104857-5.5860584c-.03664 0-.073281 0-.109921 0-.25648-.0185759-.40304-.1486075-.32976-.278639.3664-.873069.732801-1.7832899 1.025921-2.6749348.03664-.1300315.293121-.2043353.512961-.1857593.25648.0185759.403041.1300315.366401.2600631-.293121.8916449-.659521 1.8018657-1.025922 2.6935106-.03664.1114556-.21984.1857594-.43968.1857594zm-253.95693642-2.4439005c-.15970079 0-.31940159-.1020844-.31940159-.2450026-.07985039-.9800103-.10646719-2.0008543-.13308399-3.0012814 0-.1429181.13308399-.2450025.31940159-.2450025.18631759 0 .31940158.1020844.31940158.2450025.0266168 1.0004271.0532336 2.0008543.133084 3.0012814 0 .1225013-.133084.2245857-.31940159.2450026zm255.94437142-3.1421579c-.039327 0-.039327 0-.078654 0-.275289-.0204017-.471924-.1428117-.432597-.2856235.235962-.9792805.432597-1.9789628.589905-2.978645.039327-.1428117.235962-.2448201.511251-.2244184.275289.0204016.471924.12241.432597.2652218-.157308.9996822-.353943 1.9993644-.589905 2.9990467 0 .12241-.196635.2244184-.432597.2244184zm-256.07745541-2.4439005c-.1863176 0-.31940159-.1225013-.31940159-.2450026.0266168-.9391765.0532336-1.8987698.1064672-2.8583632v-.1429181c0-.1429182.15970079-.2450026.34601838-.2450026s.31940159.1225013.31940159.2654194v.1429182c-.0532336.9391765-.1064672 1.8987698-.1064672 2.8379463-.0266168.1225013-.15970079.2450026-.34601838.2450026zm.60727155-5.935187h-.04458736c-.31211155-.018576-.53504837-.1300316-.49046101-.2414872.22293682-.9102209.49046101-1.8204417.84715992-2.7120866.04458736-.1300316.31211155-.2043353.6242231-.1857594.31211155.018576.490461.1300316.44587364.2600631-.35669891.8916449-.6242231 1.8018658-.84715992 2.6935107-.04458736.0928797-.26752419.1857594-.53504837.1857594zm256.31231786-3.1421579c-.307635 0-.527374-.1020084-.527374-.2448201-.087896-.9996822-.263687-1.9993645-.439478-2.978645-.043948-.1428118.175791-.2652218.483426-.2652218.307635-.0204017.571322.0816067.571322.2244184.219739.9996822.351583 1.9993645.483426 2.9990467 0 .1428118-.219739.2652218-.571322.2652218zm-254.42965024-2.4439005c-.03944752 0-.07889504 0-.11834256 0-.27613262-.0187942-.43392269-.1503537-.35502766-.2819132.39447518-.9021224.8678454-1.8042447 1.34121561-2.6875728.07889504-.1315595.31558014-.1879422.59171277-.1691479.27613262.0375884.39447518.1503537.35502766.2819132-.47337021.8833281-.94674043 1.7854504-1.34121561 2.6687785-.07889503.1127653-.27613262.1879422-.47337021.1879422zm252.97244924-3.1626765c-.239815 0-.439661-.0820745-.47963-.2257049-.279785-.984894-.599538-1.9903067-.959261-2.9546821-.03997-.1436303.119907-.2667421.399692-.2872607.279784-.0205186.519599.0615559.559569.2051862.359722.9848941.679476 1.9903067.959261 2.9957194.039969.1436304-.159877.2667421-.399693.2872607-.039969-.0205186-.039969-.0205186-.079938-.0205186zm-250.29823467-2.4233819c-.03724274 0-.07448548 0-.14897096-.0192746-.22345644-.0385494-.3724274-.1734719-.29794192-.2891199.5586411-.8866341 1.15452495-1.7925428 1.78765153-2.679177.07448548-.1156479.33518467-.1927465.59588385-.1349225.22345644.0385493.3724274.1734719.26069918.3083944-.63312658.8866342-1.22901043 1.7732683-1.75040879 2.6599024-.07448548.0963732-.26069918.1541972-.44691289.1541972zm248.03749367-3.510156c-.22397 0-.410611-.0754781-.447939-.1698257-.410611-.8868676-.895878-1.7926047-1.418474-2.6606027-.074656-.1320867.074657-.2453038.298626-.2830429.261298-.037739.485267.0377391.559924.1509562.522595.8868676 1.007863 1.7926047 1.418473 2.6983418.074657.1320866-.074656.2453038-.335954.2830428 0-.0188695-.037328-.0188695-.074656-.0188695zm-244.17944746-1.7267737c-.07369382 0-.11054074 0-.18423456-.0198648-.22108147-.0595945-.33162221-.1986484-.25792839-.3178374.70009133-.8939174 1.43702961-1.7878348 2.21081471-2.6618874.1105408-.119189.3684691-.1787835.5895506-.119189s.3316222.1986483.2210815.3178373c-.7737852.8740526-1.5107234 1.76797-2.21081474 2.6420226 0 .0993242-.18423456.1589187-.36846912.1589187zm241.49299946-3.8404151c-.17861 0-.35722-.058326-.428665-.155536-.571553-.8943318-1.178828-1.7886636-1.821826-2.6635534-.107166-.1166519.035723-.2527459.250055-.3110719.214332-.038884.464387.019442.571553.136094.642998.8748898 1.250273 1.7886635 1.821826 2.6829953.071444.116652-.035722.252746-.285776.311072 0 0-.035722 0-.107167 0zm-4.255266-5.2369298c-.174329 0-.313792-.0598969-.383524-.1397594-.697316-.878488-1.464364-1.7569761-2.231412-2.6354641-.104597-.1197938-.034865-.2595533.174329-.3394158.209195-.0598969.453256-.0199656.592719.0998282.767048.8585224 1.534096 1.756976 2.231412 2.6554297.104597.1197938 0 .2595532-.209195.3194502-.034866.0399312-.104598.0399312-.174329.0399312zm-226.3902267-1.3965146c-.0800726 0-.2001817-.019078-.2802543-.0381561-.240218-.0763123-.2802544-.2098588-.1601454-.3243272 1.0409448-.7822008 2.1619622-1.5644016 3.2829796-2.3275243.1601453-.1144684.480436-.1335465.6806177-.0572342.240218.0763123.2802544.2289368.120109.3243272-1.1210174.7631227-2.2019985 1.5453235-3.2429432 2.3275243-.0800727.0572342-.240218.0953903-.4003634.0953903zm220.9744447-3.8404151c-.153672 0-.307344-.0372203-.422597-.1116608-.92203-.7816259-1.920895-1.5632518-2.91976-2.3262676-.153672-.1116609-.076836-.2419318.153671-.3163724.230508-.0744406.499433-.0372203.653105.0744406.998865.7630157 1.99773 1.5632518 2.91976 2.3448777.115253.1116608.038417.2419318-.19209.3163724-.038418.0186101-.115254.0186101-.192089.0186101zm-214.4957917-.6982573c-.1108104 0-.184684-.0200263-.2585575-.0400526-.1846839-.0801051-.2216207-.2403154-.0738736-.3404468 1.0711667-.781025 2.216207-1.56205 3.3612473-2.3230488.1477472-.1001314.4432414-.1201577.6279254-.0400525.1846839.0801051.2216207.2403154.0738735.3404468-1.1450403.7609987-2.2531438 1.5219975-3.3612473 2.3030225-.1108103.0600788-.2216207.1001314-.3693678.1001314zm208.6731897-4.1895438c-.151799 0-.303599-.0394863-.379498-.0987158-1.062596-.7897265-2.163141-1.5597098-3.301636-2.3099499-.1518-.0987159-.11385-.2566612.075899-.3356338s.493348-.0592295.645147.0394863c1.138496.7699833 2.276991 1.5399667 3.339586 2.3296931.1518.118459.11385.2566612-.113849.3356338-.0759.0197432-.1518.0394863-.265649.0394863zm-201.6910194-.3491286c-.1120145 0-.224029-.0184098-.2987053-.0552294-.1866908-.0736392-.224029-.2209176-.0373382-.3129666 1.1948212-.6811624 2.4643187-1.3439151 3.7338161-2.0066678.1866908-.092049.448058-.092049.6347488 0s.1866908.2209175 0 .3129665c-1.2321593.6443429-2.5016568 1.3255054-3.696478 1.9882581-.0746763.0552294-.224029.0736392-.3360434.0736392zm194.7644214-4.1895438c-.113633 0-.265143-.0183221-.340899-.0732884-1.212083-.6779179-2.462043-1.3375137-3.712004-1.9971095-.189387-.0916106-.15151-.2381874 0-.3114758.189388-.0916106.492409-.0732885.64392 0 1.287838.6595958 2.537798 1.3375137 3.749881 2.0154316.15151.0916105.15151.2381874-.037878.3114758-.075755.0366442-.189388.0549663-.30302.0549663zm-187.0146488 0c-.1152198 0-.2304397-.0195064-.3456596-.0780255-.1920331-.0975319-.1920331-.2535829 0-.3316084 1.344232-.6632169 2.7268705-1.3264338 4.1095091-1.9701442.1920331-.0975319.4992862-.0780255.6529127.0195063.1536265.0975319.1536265.253583-.0384067.3316085-1.3826385.6437105-2.7652771 1.3069273-4.1095091 1.9701442 0 .0390127-.1536265.0585191-.2688464.0585191zm8.8211704-3.8404151c-.1095843 0-.2556967-.0209835-.3287529-.0839337-.1461124-.1049171-.1461124-.2727844.0365281-.3567181 1.3880678-.6714694 2.7761356-1.3219554 4.1642033-1.9514579.1826405-.0839337.4748653-.0629503.6209777.0419668s.1095843.2727844-.0730562.3567181c-1.3880677.6295026-2.7761355 1.2799885-4.1642033 1.9514579-.0365281.0209834-.1461124.0419669-.2556967.0419669zm170.0957244-.3491287c-.11314 0-.22628-.0198228-.33942-.0594684-1.319963-.6739758-2.67764-1.3281287-4.07303-1.9624588-.188566-.0792913-.22628-.2378738-.037713-.3369879.150853-.0991141.452559-.1189369.641125-.0198228 1.39539.6343301 2.79078 1.3083059 4.110744 1.9822816.188566.0991141.188566.2378738 0 .3369879-.037714.0198228-.188567.0594684-.301706.0594684zm-161.5458414-3.1421578c-.1591215 0-.318243-.0383912-.3978037-.0959779-.1591215-.0959778-.1193412-.2495423.1193411-.3263246 1.5912149-.5566715 3.1824298-1.0941474 4.8134251-1.6316233.2386822-.0767823.5171448-.0383912.6762663.0575867.1591215.1151734.0795608.2495424-.1193411.3263246-1.5912149.5182804-3.2222102 1.0557563-4.7736447 1.6124278-.1193412.0383911-.2386823.0575867-.318243.0575867zm153.4152804-.6982573c-.122655 0-.204425-.0183546-.32708-.0550638-1.55363-.550638-3.148144-1.1012761-4.783544-1.6335595-.204425-.0734184-.286195-.2202552-.122655-.3120282s.49062-.1284822.695045-.0550638c1.635399.5322834 3.229914 1.0829214 4.824429 1.6335595.204424.0734184.245309.2202552.081769.3120282-.081769.0734184-.204424.1101276-.367964.1101276zm-143.7674156-2.4439006c-.1630827 0-.3261653-.0417375-.4077066-.1252126-.1630827-.1252126-.0815414-.2712941.1630826-.3547691 1.7123679-.5425882 3.4247357-1.06430751 5.1778742-1.58602685.244624-.06260632.5300187-.02086877.6931013.10434387.122312.12521264.0407707.27129406-.2038533.35476915-1.7123679.50085053-3.4655064 1.02256993-5.1371036 1.56515803-.1223119.0417375-.2038533.0417375-.2853946.0417375zm134.1022676-.6982572c-.07682 0-.192051-.0205207-.268871-.0410414-1.574818-.55405826-3.188046-1.08759584-4.801275-1.58009206-.230461-.06156203-.307281-.22572744-.15364-.3488515.11523-.12312405.422512-.1641654.652973-.0820827 1.613228.5130169 3.264867 1.04655448 4.839685 1.60061276.230461.0820827.268871.2257274.15364.3488515-.11523.0820827-.268871.1026034-.422512.1026034zm-124.454847-2.44390059c-.1587886 0-.3572743-.03829134-.4366686-.1340197-.1190914-.11487403-.0396971-.24889373.1984857-.32547641 1.7466743-.44035044 3.4933486-.86155521 5.2400229-1.26361431.2381828-.05743702.5160628 0 .6351543.11487403.1190914.11487403 0 .24889372-.2381829.30633074-1.7466743.4020591-3.4933486.82326387-5.2400229 1.24446864 0 .03829134-.0793942.05743701-.1587885.05743701zm114.840006-.69825729c-.079394 0-.158788 0-.238183-.01957506-1.706977-.45022633-3.453651-.8808776-5.200325-1.27237875-.238183-.05872517-.357275-.19575058-.238183-.31320092.119091-.11745035.396971-.17617552.635154-.11745035 1.746674.41107621 3.533046.84172748 5.240023 1.29195381.238183.05872517.317577.21532563.198486.33277598-.039698.05872517-.238183.09787529-.396972.09787529zm-104.4479706-1.74564325c-.1903796 0-.3426832-.05329052-.4188351-.12434456-.1142277-.10658106 0-.23092562.2665314-.28421615 1.7134161-.33750667 3.4649082-.67501334 5.2164002-.976993.2284555-.03552702.4949869.01776351.6092146.12434456.1142277.10658106-.0380759.23092562-.2665314.28421615-1.751492.30197966-3.4649081.63948633-5.1783242.976993-.0761519-.01776351-.1523037 0-.2284555 0zm10.8444416-1.74564324c-.1986647 0-.3973294-.06204869-.4767953-.16546318-.0794659-.12409738.0397329-.26887766.3178635-.33092636 1.8674478-.31024346 3.7348958-.62048692 5.6023448-.88936458.238397-.0413658.516528.04136579.595994.16546317.079465.14478029-.079466.26887767-.317864.31024347-1.867448.26887766-3.734896.57912112-5.5626113.88936458-.0397329.0206829-.1191988.0206829-.1589317.0206829zm72.373083-.69825729c-.039516 0-.079032 0-.158064-.02164641-1.857251-.30304974-3.714502-.58445306-5.571754-.84420998-.276612-.04329282-.434676-.17317128-.355644-.32469615.079032-.15152486.316128-.2381105.59274-.19481768 1.857251.25975691 3.754019.54116024 5.61127.84420997.237096.04329282.39516.19481769.316128.32469615 0 .15152487-.19758.2164641-.434676.2164641zm-61.583217-1.04738595c-.23349 0-.428064-.0759635-.466979-.17091788-.077829-.13293613.116745-.24688138.350234-.28486313 1.867912-.20889963 3.77474-.41779926 5.642652-.58871713.272404-.01899088.505893.05697262.544808.18990875s-.116745.24688138-.389149.26587225c-1.867912.17091788-3.735824.36082664-5.603737.56972626 0 0-.038915.01899088-.077829.01899088zm50.72235-.34912865c-.038753 0-.077506 0-.077506 0-1.860144-.21309094-3.720287-.3835637-5.580431-.53272736-.271271-.0213091-.426283-.14916366-.38753-.29832732s.271271-.23440004.542542-.21309095c1.860144.14916366 3.75904.34094551 5.619184.55403646.271271.02130909.426283.17047275.38753.29832732-.077506.10654547-.271271.19178185-.503789.19178185zm-39.547023-.69825729c-.231218 0-.4239-.06629956-.462437-.18232379-.038536-.11602423.154146-.21547357.385365-.23204846 1.888285-.11602423 3.776571-.19889868 5.664857-.28177313.269755-.01657489.500974.06629956.500974.18232379.038536.11602423-.154146.21547357-.423901.21547357-1.849749.06629956-3.738035.1657489-5.626321.28177313 0 .01657489 0 .01657489-.038537.01657489zm28.399374-.34912865h-.03834c-1.840324-.0943591-3.718989-.16984637-5.597653-.22646183-.268381 0-.460081-.11323091-.460081-.24533364 0-.13210274.23004-.22646183.498421-.22646183 1.878664.05661546 3.757329.13210273 5.635993.22646183.268381.01887182.460082.13210273.421741.24533364-.03834.15097455-.23004.22646183-.460081.22646183zm-17.216635 0c-.267019 0-.457747-.12745501-.457747-.30589203 0-.17843701.190728-.30589202.457747-.33138302 1.869134-.05098201 3.776413-.07647301 5.645547-.05098201.267019 0 .457747.15294602.457747.30589203 0 .17843701-.228873.30589202-.457747.30589202-1.869134 0-3.738267.025491-5.645547.07647301z" fill="#fff" stroke="#fff" stroke-width="2"/><g fill="#0b7a76" transform="translate(12.559095 2.088985)"><path d="m4.84183564 36.7401073c0 1.377498-1.01843346 2.0465684-2.25355488 2.0465684s-2.29689246-.9248915-2.29689246-2.0465684 1.06177104-2.0465683 2.29689246-2.0465683 2.25355488.9248914 2.25355488 2.0465683z"/><path d="m246.121038 59.8691333c0 1.3774979-1.018434 2.0465684-2.253555 2.0465684-1.235122 0-2.296893-.9248915-2.296893-2.0465684s1.061771-2.0465683 2.296893-2.0465683c1.235121 0 2.253555.9052129 2.253555 2.0465683z"/><path d="m168.547315 2.04656836c0 1.37749793-1.018433 2.04656836-2.253555 2.04656836-1.235121 0-2.318561-.92489147-2.318561-2.04656836s1.061771-2.04656836 2.296892-2.04656836c1.235122 0 2.275224.90521293 2.275224 2.04656836z"/><path d="m15.2650972 105.075866c0 1.377498-1.0184335 2.046568-2.2535549 2.046568-1.2567902 0-2.2968925-.924891-2.2968925-2.046568s1.0617711-2.046568 2.2968925-2.046568 2.2535549.905212 2.2535549 2.046568z"/></g></g><g transform="translate(0 21.238016)"><rect fill="#6c9cdb" height="47.698496" opacity=".318429" rx="21.978416" width="43.956833" y="38.298063"/><g fill="#1c3c55" transform="translate(10.117049 57.795258)"><path d="m6.64741319 17.060046c-.18329942 0-.36659885-.0730641-.50598279-.2201932-.27972256-.2932573-.27972256-.7686745 0-1.0619318l2.59578719-2.721388-2.59674187-2.7223889c-.27972257-.2932573-.27972257-.76867446 0-1.06193178.27972256-.29325733.7331977-.29325733 1.01292026 0l3.10272472 3.25285428c.2797225.2932574.2797225.7686745 0 1.0619319l-3.10272472 3.2528543c-.13938393.1471291-.32268336.2201932-.50598279.2201932z"/><path d="m17.0507159 17.060046h-4.4480128c-.4092172 0-.7413355-.3119551-.7413355-.6963284s.3321183-.6963284.7413355-.6963284h4.4480128c.4092172 0 .7413355.3119551.7413355.6963284s-.3321183.6963284-.7413355.6963284z"/><path d="m21.0045051 21.9343449h-18.28627503c-1.49947455 0-2.71823007-1.2293203-2.71823007-2.7417931v-16.45075869c0-1.51247278 1.21875552-2.74179311 2.71823007-2.74179311h18.28627503c1.4994746 0 2.7182301 1.22932033 2.7182301 2.74179311v16.45075869c0 1.5124728-1.2187555 2.7417931-2.7182301 2.7417931zm-18.28627503-20.43882138c-.68104019 0-1.23555912.55932579-1.23555912 1.24626959v16.45075869c0 .6869438.55451893 1.2462696 1.23555912 1.2462696h18.28627503c.6810402 0 1.2355591-.5593258 1.2355591-1.2462696v-16.45075869c0-.6869438-.5545189-1.24626959-1.2355591-1.24626959z"/><path d="m22.9813997 4.87429886h-22.24006423c-.40921718 0-.74133547-.31195512-.74133547-.69632841 0-.38437328.33211829-.6963284.74133547-.6963284h22.24006423c.4092172 0 .7413355.31195512.7413355.6963284 0 .38437329-.3321183.69632841-.7413355.69632841z"/></g><g transform="translate(19.187506)"><path d="m.264759.205013h53.952062v52.51253h-53.952062z" fill="#ebf4ff"/><path d="m.264759 4.656716h53.952062v1h-53.952062z" fill="#fff"/><g transform="translate(0 10.096762)"><path d="m41.8613874 42.2945722h-41.5966281v-24.8928771c2.05923902-.7287142 4.88333824-1.2533884 8.88414547-1.5448741.6766071-.0582971 1.38263193-.0874457 2.14749213-.1165943 1.3826319-.0582971 2.8829346-.0874457 4.5303258-.0874457 1.9121505 0 4.706832.0291486 7.7956906.0874457.5001009 0 1.0296195.0291486 1.5297204.0291486 18.3566449-.3497828 16.0620643 6.2377935 16.7092537 26.5251969z" fill="#3377c6"/><g transform="translate(5.589363 26.233711)"><path d="m25.2109691 16.060861h-14.4146731c4.3832373-2.4776283 8.8841454-5.0135537 12.1789279-4.2848395 1.7356443.3497828 2.2357452 2.3901826 2.2357452 4.2848395z" fill="#ffa79b"/><path d="m3.91255413 16.060861h-.3824301c-1.11787261-5.2175937-2.26516292-10.43518738-3.41245323-15.62363248-.0588354-.23318854.294177-.32063425.3530124-.0874457 1.17670801 5.21759367 2.32399832 10.46433588 3.44187093 15.71107818z" fill="#fff"/></g><g transform="translate(11.178726)"><path d="m20.9454026 8.7445704c0 2.0403998-1.088455 3.0314511-2.4416692 3.0314511s-2.4710868-1.3699827-2.4710868-3.0314511c0-1.66146837 1.1472903-3.03145107 2.4710868-3.03145107s2.4416692 1.3699827 2.4416692 3.03145107z" fill="#2252b2"/><path d="m11.8553332 15.7985239c1.3237965 5.2467422-2.14749213 7.4911819-4.58916125 7.287142-3.85371873-.3497829-6.47189404-3.3520854-7.17791885-7.3162906 1.38263191-.0582971 2.88293462-.0874457 4.53032583-.0874457 1.91215052 0 4.70683204.0291486 7.79569057.0874457.5295186 0-1.0884549.0291486-.5589363.0291486z" fill="#ffa79b"/><path d="m1.41204961 17.139358 9.11948709 3.0605996 1.2061257-2.3901825 1.5297204-3.0605997 2.647593-5.30503937-6.58956483-2.88570823c-.294177.67041707-7.91336136 10.5809302-7.91336136 10.5809302z" fill="#ffa79b"/><path d="m11.7082447 17.8097751-.0588354.1165942c-1.1178726-1.1950913-1.76506203-2.7691139-1.94156823-4.4888795-.2353416-2.2735883.52951863-4.16824517 1.29437883-6.1503478l4.8539205 2.12784547-2.647593 5.30503933z" fill="#000"/><path d="m9.88434727 1.02019988c2.70642843-2.30273687 10.76687833.93275418 10.03143573 4.34313663-.5589363 2.53592542-2.1474921 9.58987889-3.7360479 10.58093019-3.1476939 2.0112512-6.73665333-.5829714-7.70743744-3.6727196-1.00020181-3.11889675-1.26496111-8.97775892 1.41204961-11.25134722z" fill="#ffa79b"/><path d="m9.67842337 6.41268496c1.20612573 1.19509129 3.55954173-1.25338842 4.11847803-2.36103401 1.5591381.6412685 4.4420727.6412685 5.9129577-.11659427-1.2649611-2.79826253-7.5309312-4.89695942-9.85492953-2.9148568-1.23554341 1.04934845-1.85331511 2.9148568-2.05923901 4.86781086.6471894-.02914857 1.44146731.0874457 1.88273281.52467422z" fill="#d24a43"/><path d="m5.76586924 5.15929654c.79427791-.96190275 2.73584612-.99105132 3.61837713.46637708-.4118478 1.282537-.79427791 2.59422256-1.14729031 3.90590812-.76486021.0874457-2.17690982-.34978282-2.76526382-1.25338843-.6471894-1.07849701-.5589363-2.06954833.294177-3.11889677z" fill="#ffa79b"/><g fill="#2252b2" transform="translate(4.706832)"><path d="m5.17751524 7.43288484c0 2.04039976-1.08845491 3.03145106-2.44166912 3.03145106s-2.47108682-1.36998268-2.47108682-3.03145106 1.14729031-3.03145107 2.47108682-3.03145107c1.35321421 0 2.44166912 1.36998269 2.44166912 3.03145107z"/><path d="m15.3560395 1.86550835c-.5001009-.61211993-1.2649611-.78701133-2.0004036-.90360561-1.2355434-.1748914-2.4710868-.29148568-3.67721253-.43722852-1.23554341-.14574284-2.47108682-.32063424-3.70663023-.43722852-.8531133-.05829713-1.73564431-.02914856-2.44166911.49552566-1.64739122 1.19509129-1.26496111 3.46867959-.91194871 5.15929654.0588354.23318854.4118478.11659427.3530124-.08744571-.4118478-1.86550835-.7354425-4.69291945 1.79447971-5.15929653.88253101-.14574284 1.79447972.02914856 2.67701072.14574284.97078411.11659427 1.94156822.23318854 2.91235235.34978281 1.6179735.20403998 4.5597435-.05829713 5.1186798 1.89465692.4706832 1.63231981-.4412655 3.29378819-.0882531 4.926108.0588354.23318854.3824301.11659427.3530124-.08744571-.3824301-1.86550835.9707841-4.19739379-.3824301-5.85886217z"/><path d="m6.82490645 12.6796271c-2.26516292-.3789314-3.70663023-2.3901826-3.29478242-4.63462233.0294177-.23318854-.29417701-.32063425-.35301241-.0874457-.4412655 2.41933113 1.08845491 4.66377083 3.53012403 5.07185083.2353416.0291486.3530124-.3206343.1176708-.3497828z"/></g><path d="m14.7382678 13.291747c-.5295186.0582971-1.0296195-.5538228-.7942779-1.0493484.0882531-.20404-.2059239-.3789314-.3235947-.1748914-.3530124.7287142.2647593 1.6906169 1.0884549 1.6031712.2647593-.0582971.2647593-.40808.0294177-.3789314z" fill="#d24a43"/><path d="m17.5329493 9.79391885c-.0588354-.23318854-.3824301-.11659427-.3530124.0874457.1176708.52467425-.4706832.81615995-.882531.52467425-.1765062-.1457429-.3530124.1748914-.1765062.3206342.7060248.4955257 1.5885558-.1457428 1.4120496-.93275415z" fill="#d24a43"/><path d="m14.8853563 7.11225059c-.1176708.26233712-.2647593.5538228-.3824301.81615991-.0882531.20403997.2059239.37893138.3235947.17489141.1176708-.26233712.2647593-.5538228.3824301-.81615991.0882531-.20403997-.2353416-.37893138-.3235947-.17489141z" fill="#000"/><path d="m18.5625688 7.69522195c-.1176708.26233712-.2647593.5538228-.3824301.81615991-.0882531.20403997.2059239.37893138.3235947.17489141.1176708-.26233712.2647593-.5538228.3824301-.81615991.0882531-.20403997-.2353416-.37893138-.3235947-.17489141z" fill="#000"/><g fill="#952c28"><path d="m15.9738112 5.77141646c-.2059239-.02914856-.4118478-.0874457-.588354-.11659427s-.3824301.05829714-.4412655.26233711c-.0588354.17489141.0588354.40807996.2647593.43722852.2059239.02914857.4118478.08744571.588354.11659428.1765062.02914856.3824301-.05829714.4412655-.26233712.0588354-.1748914-.0588354-.37893138-.2647593-.43722852z"/><path d="m19.0038343 5.88801074c-.1470885-.02914857-.294177-.08744571-.4118478-.11659428-.4412655-.11659427-.6471894.5538228-.2059239.69956564.1470885.02914856.294177.0874457.4118478.11659427.4412655.11659427.6471894-.58297136.2059239-.69956563z"/></g></g></g><g transform="translate(20.931825 30.63845)"><path d="m33.3302543.05838237h-24.59319734l-8.56055076 21.86419593h33.1537481z" fill="#000"/><g fill="#fff"><path d="m26.2111709 8.49463422c-2.4416691 2.71477998-4.9127559 5.42955998-7.3544251 8.11514888-.1470885.1751471.0882531.4378677.2647593.2627206l7.3544251-8.11514884c.1470885-.1751471-.1176708-.43786774-.2647593-.26272064z"/><path d="m27.0348665 10.5088258c-1.8238974 1.9558093-3.6477948 3.9408097-5.5011099 5.896619-.1470885.1751471.0882531.4378677.2647593.2627206 1.8238974-1.9558092 3.6477948-3.9408097 5.5011099-5.8966189.1470885-.1751471-.1176708-.4378678-.2647593-.2627207z"/></g></g><g fill="#feca55" transform="translate(36.28183 20.889852)"><path d="m9.03123397 4.58301571c-2.11807442-.58382366-4.32440194.20433828-5.58936304 2.01419162-.26475931.37948538.3530124.72977957.6177717.35029419 1.05903721-1.51794151 2.97118772-2.16014753 4.76566743-1.66389742.47068321.11676473.64718941-.58382366.20592391-.70058839z"/><path d="m10.0314358.8465443c-3.70663025-1.78066215-7.94277908-.40867656-9.7372588 3.29860367-.2059239.40867656.41184781.78816193.61777171.35029419 1.61797351-3.32779485 5.32460374-4.67058926 8.73705696-3.03588302.41184783.20433828.79427793-.40867656.38243013-.61301484z"/></g></g></g><g transform="translate(309.442149 24.719659)"><rect fill="#0b7a76" height="39.342555" opacity=".56" rx="14" width="43.607969" x=".330178" y=".179336"/><g fill="#fff" transform="translate(9.768185 5.570627)"><path d="m22.4000191 15.0939662v7.2192805c0 .7974147-.6540588 1.4438561-1.4608698 1.4438561h-18.50438149c-.80681101 0-1.46086982-.6464414-1.46086982-1.4438561v-11.5508489c0-.79741462.65405881-1.44385607 1.46086982-1.44385607h8.27824709v-.96260082h-8.27824709c-1.34400023.00162434-2.43316998 1.07806419-2.43476781 2.40645689v11.5508489c.00159783 1.3283476 1.09076758 2.4048326 2.43476781 2.4064118h18.50433579c1.3440459-.0015792 2.43317-1.0780642 2.4347678-2.4064118v-7.2192805z"/><path d="m6.977275 27.156808h9.768185v1h-9.768185z"/><path d="m8.37273 24.719659h1v2.785314h-1z"/><path d="m14.303414 24.719659h1v2.785314h-1z"/><g transform="translate(11.16364)"><path d="m7.84943443 0c-4.33509546 0-7.84943443 3.50729196-7.84943443 7.8336946 0 4.3264026 3.51433897 7.8336946 7.84943443 7.8336946 4.33319447-.0046513 7.84477387-3.5091892 7.84943447-7.8336946 0-4.32640264-3.5142777-7.8336946-7.84943447-7.8336946zm0 14.3617938c-3.61257955 0-6.5412158-2.9227025-6.5412158-6.5280992 0-3.60539674 2.92863625-6.52809923 6.5412158-6.52809923 3.61098517.00397804 6.53722977 2.92435491 6.54121577 6.52809923 0 3.6053355-2.9286362 6.5280992-6.54121577 6.5280992z"/><path d="m8.85244838 4.52613466h-1.30823907c-1.0837908 0-1.96238927.85733803-1.96238927 1.91490312 0 1.0575651.87859847 1.91490313 1.96238927 1.91490313h1.30823907v-1.27658214h-1.30823907c-.3612636 0-.6541502-.28579929-.6541502-.63832099 0-.35252169.29282528-.63832098.65408888-.63832098h1.30823907c.3612636 0 .6541502.28579929.6541502.63832098h1.30823904c.0000614-1.05756509-.87853712-1.91490312-1.96232792-1.91490312z"/><path d="m8.85241006 6.96328409h-1.30822375v1.27658214h1.30822375c.36125936 0 .65414253.28579929.65414253.63832099 0 .35252169-.29288317.63832098-.65414253.63832098h-1.30822375c-.36125936 0-.65414253-.28579929-.65414253-.63832098h-1.30822374c0 1.05756509.87858818 1.91490308 1.96236627 1.91490308h1.30822375c1.08377809 0 1.96236624-.85733799 1.96236624-1.91490308 0-1.0575651-.87858815-1.91490313-1.96236624-1.91490313z"/><path d="m7.326139 4.17797h1.046591v1.044493h-1.046591z"/><path d="m7.326139 10.444926h1.046591v1.044493h-1.046591z"/></g><path d="m15.3534095 14.9710608-4.3178596 4.2435799-2.35361834-2.3131293c-.19174221-.1883985-.50258095-.1883985-.6943692 0l-3.78457223 3.7194666h-1.76094386v.9652027h1.96424123c.13023739 0 .2550885-.0509002.34716159-.1413893l3.58127485-3.5196666 2.35361836 2.3131293c.1917422.1883984.5025809.1883984.6943692 0l4.6650211-4.5847693z"/><path d="m20.3038796 20.5416881v.9748506c0 .2692001-.2186867.4874482-.4884276.4874482h-.9768094v.9748506h.9768094c.8092229 0 1.4652369-.6546986 1.4652369-1.4622988v-.9748506z"/><path d="m17.094324 21.934345h1v1h-1z"/><path d="m3.55841943 10.4449261c-.80922287 0-1.46523691.6546986-1.46523691 1.4622988v.9748507h.97680934v-.9748507c0-.2692.21868661-.4874481.48842757-.4874481h.97680935v-.9748507z"/><path d="m5.58182 10.444926h1v1h-1z"/></g></g><rect fill="#0b7a76" height="26.112315" opacity=".56" rx="13.056158" width="28.606828" x="233.38985" y="97.834142"/><path d="m11.2682992 10.1615124h-3.66516258c-.17933334-.50670883-.57568207-.90542328-1.07938445-1.08582703v-1.89721433h1.88002676c1.29971416.0429592 2.42619807-.8982259 2.62279907-2.19136683s-.5987456-2.53000742-1.85181017-2.87980357c-.65152059-1.45221866-2.1787313-2.29646304-3.74662695-2.07114103-1.56789564.22532202-2.79903208 1.46596799-3.02028326 3.04361253-.99802589.28153998-1.63662695 1.26056107-1.4961119 2.29364652s1.01707295 1.8035548 2.05359618 1.80505238h2.37227351v1.89721433c-.50370237.18040375-.9000511.5791182-1.07938445 1.08582703h-3.66516258c-.32754262 0-.59306838.2671107-.59306838.5966083 0 .3294977.26552576.5966083.59306838.5966083h3.66516258c.25539013.707848.92389111 1.1791824 1.67245283 1.1791824s1.41706271-.4713344 1.67245283-1.1791824h3.66516258c.3275426 0 .5930684-.2671106.5930684-.5966083 0-.3294976-.2655258-.5966083-.5930684-.5966083zm-8.28954143-4.24272092c-.48908971 0-.88557525-.40859896-.88557525-.91263133 0-.50403236.39648554-.91263132.88557525-.91263132.3260598 0 .5903835-.27239931.5903835-.60842089-.0031903-1.19317029.83347031-2.21276041 1.9757164-2.40769182 1.14224608-.19493142 2.25317033.49229121 2.62337108 1.62282889.06876229.2130317.24577552.36972695.46049913.40764199.66006998.11343714 1.14276147.70366229 1.13945719 1.39328382-.00325109.78154559-.61723488 1.4142878-1.37561059 1.41762066zm3.1263579 5.22246302c-.2890082 0-.52329563-.2338176-.52329563-.5222463 0-.2884286.23428743-.5222463.52329563-.5222463.28900819 0 .52329563.2338177.52329563.5222463 0 .2884287-.23428744.5222463-.52329563.5222463z" fill="#fff" transform="translate(241.762581 104.449261)"/><g transform="translate(257.112586 59.884243)"><path d="m0 .348164h66.981841v55.009944h-66.981841z" fill="#fff"/><g transform="translate(16.047733 6.266956)"><path d="m19.8029356 16.2108332c.9827759.1002216 2.1866765-.3758307 3.1694524-.3006646 0-.0250554 1.1793312 0 1.2039006 0 3.7836874 1.9042092 2.5552175-2.0795968 2.5552175-2.154763-.7125126-1.1525476-5.4052678-1.503323-6.2406274-2.5807045-1.1793311.5011077-1.5724415 2.1798184-.6879431 3.2571999.0245694.0501108-.0245694 1.7538768 0 1.7789322z" fill="#952c28"/><g transform="translate(12.530393 14.532123)"><path d="m.19655519 34.6265402c.71251257-25.05538365-2.01469071-34.00015561 10.46656401-34.3258756.4422491 0 .8599289-.02505538 1.2776087-.02505538.2948328 0 .5896656 0 .8844984-.02505538 2.2358153-.02505539 4.2259366-.05011077 5.6263923-.05011077 1.1793312 0 2.2603847.02505538 3.2677301.05011077.1719858 0 .3439716.02505538.491388.02505538.6142349.02505538 1.2284699.07516615 1.7935661.10022154 8.9924.22549845 11.8178809 2.9064245 12.4321159 15.96027934.1965552 4.0088614.0245694 14.3817903-.1719858 18.2904301z" fill="#6c9cdb"/><g fill="#fff"><path d="m7.49366669 21.7981838c-2.5797869-.5261631-1.47416394-4.3846922-1.20390055-6.138569l.95820656-6.53945515c.02456939-.20044307-.27026339-.27560922-.29483279-.07516615-.39311039 2.7811476-.81079017 5.5622952-1.20390055 8.3434428-.24569399 1.6787107-.49138798 4.2844706 1.67071913 4.7354675.17198579 0 .24569399-.3006646.0737082-.32572z"/><path d="m7.0514175 21.7731284c-.0245694-.2004431-.31940218-.2004431-.29483278 0 .07370819 1.2026584.14741639 2.4053168.22112459 3.6079752 0 .2004431.31940218.2004431.29483278 0-.07370819-1.2026584-.14741639-2.4053168-.22112459-3.6079752z"/></g></g><g transform="translate(0 8.268277)"><path d="m15.1101804 22.9507314s-.9336372-2.3802614-2.1866765-5.5372398c-1.7689968-4.4348029-4.20136727-10.37292879-5.6755312-13.37957483-.46681858-2.05454146-1.79356613-5.31174134-3.78368745-3.35742141-.27026338.25055384.0737082.62638459.36854099.47605229.17198579.02505538.34397158.07516615.51595738.10022153-.0245694.05011077-.0245694.12527692-.0245694.20044307v.05011077c-.1474164-.20044307-.44224918-.1503323-.54052678.02505538-.19655519-.07516615-.46681858.17538769-.36854098.45099691l.76165136 1.80398762-3.85739563 1.92926454c.95820656 11.92636263 2.3586623 24.10327903 6.83029291 35.15270323h11.9898667c.5405268-.3758307 1.0073454-.7516615 1.4004557-1.0523261.1719858-.1252769.3194022-.2505538.4422492-.3507754 0 0 .0245694-.0250553.0245694-.0250553.0737082-.0501108.1474164-.1002216.1965552-.1503323.2948328-.2505539.4668186-.4008862.4668186-.4008862z" fill="#ffa79b"/><g fill="#d24a43" transform="translate(1.965552 1.002215)"><path d="m2.70148119 1.10060593 6.45720532.04646106.06171199 8.69237805-6.45720531-.04646105z" transform="matrix(.91751306 .39770565 -.39770565 .91751306 2.66716 -1.919494)"/><path d="m4.37335302.80177228c-.58966558-.47605229-1.35131695-.67649536-2.06382952-.37583076-.88449836.35077537-1.20390055 1.32793534-1.52330273 2.154763-.34397159.90199381-1.00734536 2.05454146-.71251257 3.0567568.29483279 1.00221535 1.30217814 1.42815687 2.18667651 1.72882147.36854098.12527692.56509617-.4509969.19655519-.57627382-1.22846995-.45099691-2.03926012-.85188304-1.69528853-2.43037221.09827759-.40088614.29483279-.80177228.44224918-1.20265842.46681858-1.20265842 1.25303935-3.15697834 2.85005028-1.85409839.27026339.25055384.61423497-.25055384.31940219-.50110767z"/></g><path d="m.76165137 3.00664604c-.39311038.90199381-1.30217815 3.28225526-.122847 4.4348029.66337378.65143998 1.74442733-.35077537 1.49873334-.77671689.66337377.42594152 1.42502514-.75166151 1.27760875-1.27782457.66337377.07516616 1.22846994-.1503323 1.37588634-1.00221534.09827759-.60132921-.19655519-1.00221535-.61423498-1.27782457.1965552-.07516615.34397159-.17538768.49138798-.3006646 1.17933115-1.05232611-.04913879-2.05454146-1.15476175-2.50553837-1.54787213-.62638459-2.2358153 1.50332302-2.75177268 2.70598144z" fill="#ffa79b"/><g fill="#d24a43"><path d="m2.80091148 6.51439975c-.34397158.22549845-.76165137.17538768-1.05648415-.12527692-.122847-.1503323-.34397159.07516615-.22112459.22549845.36854098.40088614.95820656.47605229 1.40045574.17538769.17198579-.10022154.0245694-.37583076-.122847-.27560922z"/><path d="m5.01215739 2.70598143c-.122847.30066461-.31940219.50110768-.61423497.55121844-.0982776.02505539-.122847.12527692-.0982776.22549846.24569399.52616305-.0491388 1.05232611-.58966558 1.17760303-.07370819.02505538-.12284699.07516615-.12284699.1503323.0245694.45099691-.0982776.82682766-.34397159 1.17760303-.12284699.1503323.1474164.30066461.27026339.1503323.22112459-.27560922.31940219-.55121844.39311039-.90199381.07370819-.42594152.12284699-.25055383.44224918-.52616305.36854098-.32571999.41767978-.7767169.27026339-1.20265842.31940218-.12527692.54052677-.35077537.66337377-.70155074.09827759-.20044307-.19655519-.27560922-.27026339-.10022154z"/><path d="m3.02203607 5.43701825c-.27026339-.1503323-.51595738-.32571999-.78622076-.47605229-.1719858-.10022153-.31940219.1503323-.1474164.27560922.27026339.1503323.51595738.32571999.78622077.47605229.14741639.10022154.31940219-.17538768.14741639-.27560922z"/><path d="m3.61170165 4.48491367c-.49138798-.40088613-.98277596-.77671689-1.44959454-1.17760303-.14741639-.12527692-.36854099.10022154-.22112459.22549845.49138798.40088614.98277596.7767169 1.44959454 1.17760304.17198579.12527691.39311038-.10022154.22112459-.22549846z"/><path d="m3.95567323 3.00664604c-.41767978-.57627383-.95820656-1.05232612-1.59701093-1.35299072-.17198579-.07516615-.31940219.17538769-.14741639.27560922.58966557.3006646 1.10562295.70155074 1.47416394 1.25276918.12284699.12527692.36854098-.02505538.27026338-.17538768z"/></g><path d="m15.1838886 22.1489591c-.2702634-.7015507-.5650962-1.3780461-.8353596-2.0795968-.0737082-.1753877-.368541-.1002215-.2948328.0751662.2702634.7015507.5650962 1.3780461.8353596 2.0795968.0737082.1753877.368541.1002215.2948328-.0751662z" fill="#fff"/><path d="m16.2158033 23.4518391-3.2922994-6.0132921c.2211245 3.8835845.0491388 7.7922243-2.2358153 11.0744796-1.54787218 2.2299291-3.6608405 3.7833629-6.06864159 4.7855783.73708197 2.5807045 1.57244153 5.1363536 2.57978689 7.6168366h11.9898667c.5405268-.3758308 1.0073454-.7516615 1.4004557-1.0523261.1719858-.1252769.3194022-.2505538.4422492-.3507754 0 0 .0245694-.0250554.0245694-.0250554.0737082-.0501107.1474164-.1002215.1965552-.1503323.2948328-.2505538.4668186-.4008861.4668186-.4008861z" fill="#6c9cdb"/></g><g transform="translate(7.616514 25.556491)"><path d="m13.0463509 23.6522822h27.8862678s-1.2039006-10.6234827-11.9161585-10.9241473c0 0-12.4566853 1.503323-18.5744656 3.0317014-.8107902 2.8563138 3.022036 4.9359106 2.6043563 7.8924459z" fill="#ffa79b"/><path d="m11.4493399 16.0354455c-.6879432-.2505538-2.75177267-1.2026584-4.71732458-1.3780461-.88449837-.4008861-1.81813553-.6013292-2.77634209-.1753876-1.42502514.6514399-2.55521749 2.3301506-3.61170164 3.4576429-.39311039.4259415 0 1.177603.58966557 1.0272707.41767978-.1002215.78622077-.2505538 1.15476175-.4259415-.46681858.5261631-.83535956.9019938-1.25303934 1.4281569-.36854099.4509969-.0982776 1.5534338.58966557 1.3279353.0737082.6764954.54052678.8769384 1.22846995 1.0272707.19655519.4760523 1.74442733.3758308 2.2849541.1002216.54052678-.2505539.98277596-.6263846 1.35131695-1.0773815 2.3340929 1.6035445 5.08586556 2.9314799 7.69022186 2.1798183-.9827759-2.4554275-1.8427049-4.9609659-2.5306481-7.4915597z" fill="#ffa79b"/><g fill="#d24a43"><path d="m3.61170165 16.3110548c-.44224918.6013292-.88449836 1.177603-1.32674755 1.7789322-.12284699.1503323.1474164.3006646.27026339.1503323.44224918-.6013292.88449837-1.177603 1.32674755-1.7789322.12284699-.1503323-.1474164-.3006646-.27026339-.1503323z"/><path d="m4.15222843 17.5387686c-.58966558.9771599-1.25303935 1.9042091-1.96555192 2.7811475-.122847.1503323.09827759.3758308.22112459.2254985.73708197-.9019938 1.40045574-1.829043 2.01469071-2.8312584.0982776-.200443-.17198579-.3507753-.27026338-.1753876z"/><path d="m5.11043499 18.5660393c-.61423498 1.177603-1.37588635 2.2299291-2.26038471 3.2070891-.12284699.1503323.0737082.3507754.22112459.2254984.90906776-.9771599 1.67071913-2.0795968 2.3095235-3.2571998.0737082-.2004431-.19655519-.3507754-.27026338-.1753877z"/></g><path d="m28.7216274.27560922-.3439716 9.84676578c0 .2004431.2948328.2004431.2948328 0l.3439716-9.84676578c.0245694-.20044307-.2948328-.20044307-.2948328 0z" fill="#fff"/></g><g transform="translate(17.689967)"><path d="m16.5843443 14.7826764-7.54280548 11.1245903s-.98277596-7.8924459-1.37588634-11.1245903c2.2358153-.0250554 4.22593662-.0501108 5.62639232-.0501108 1.1793312 0 2.2603847.0250554 3.2922995.0501108z" fill="#ffa79b"/><path d="m16.6089137 14.6072887-7.61651368 2.6308153-1.00734536-2.0545415-1.27760874-2.6308153-2.21124591-4.56007982 5.50354537-2.48048298c.24569402.57627383 6.60916832 9.0951043 6.60916832 9.0951043z" fill="#ffa79b"/><path d="m7.98505466 15.1835625.0491388.1002215c.93363716-1.0272707 1.47416394-2.3802614 1.62158033-3.8585291.1965552-1.95431988-.44224918-3.58291982-1.08105355-5.28668591l-4.05395083 1.82904301 2.21124591 4.5600798z" fill="#000"/><path d="m9.5329268.75166151c-2.26038471-1.97937531-8.99240002.80177228-8.37816505 3.73325216.46681858 2.17981838 1.79356613 8.24322123 3.12031367 9.09510423 2.62892569 1.7288215 5.62639236-.5011076 6.43718258-3.1569783.8353595-2.68092605 1.0564841-7.71705817-1.1793312-9.67137809z" fill="#ffa79b"/><path d="m21.8421957 11.7760303c-.5896656-1.4782676-2.2112459-2.07959683-3.4888547-1.4532122.614235-2.95653531-2.0883989-5.48712906-5.0121574-4.45985833v-.02505538c.0491388-1.10243688-.0491388-2.35520606-1.0073453-3.03170142-.5405268-.37583076-1.105623-.42594152-1.6215803-.20044307-.2702634-.72660613-.6633738-1.35299072-1.1793312-1.82904301-1.40045574-1.2277138-4.47163061-.62638459-6.51089073.70155075-.61423497-.32571999-1.35131694-.45099691-1.96555191-.07516616-.61423498.35077538-.95820656 1.05232612-.78622077 1.75387686.19655519.72660613.88449836 1.0773815 1.59701093 1.05232611.44224918-.02505538.98277596-.1503323 1.42502514-.40088614 1.05648416.07516616 2.21124591-.05011076 2.97289728-.37583075.46681858.95210458 2.77634208 2.70598143 3.78368746 1.6787107.2211246-.22549845.1719858 0 .491388-.05011076.3194021.55121844.6142349 1.12749226.9336371 1.6787107-.0245694.02505539-.0245694.07516615-.0245694.10022154v.12527691c-.614235 1.52837841.245694 3.28225525 1.9409825 3.68314145-.9582065 1.4782676-.9582065 3.3574214.1719858 4.8106336 1.4495946 1.8791538 4.1522285 2.2549845 6.1914886 1.1525477 1.6461497-.9521046 2.8500503-2.9314799 2.0883989-4.8356891z" fill="#952c28"/><path d="m13.0709203 4.66030136c-.6633738-.82682766-2.2849542-.85188305-3.0220361.40088614.3439716 1.10243688.6633738 2.22992914.9582065 3.35742141.6388044.07516615 1.8181356-.30066461 2.3095235-1.0773815.5405268-.90199381.4668186-1.77893224-.2456939-2.68092605z" fill="#ffa79b"/><path d="m5.45440657 11.299978c.44224918.0501108.85992896-.4760523.66337377-.9019938-.07370819-.1753877.1719858-.32572.27026339-.1503323.29483279.6263846-.22112459 1.4532123-.90906776 1.3780461-.19655519-.0250554-.19655519-.3507754-.0245694-.32572z" fill="#d24a43"/><path d="m3.12031367 8.29333199c.0491388-.20044307.31940219-.10022154.29483279.07516615-.0982776.45099691.39311038.70155074.73708197.45099691.14741639-.12527692.29483278.1503323.14741639.27560922-.56509618.42594152-1.32674754-.12527692-1.17933115-.80177228z" fill="#d24a43"/><path d="m5.33155958 5.98823669c.09827759.22549846.22112459.47605229.31940218.70155074.0737082.17538769-.17198579.32571999-.27026339.15033231-.09827759-.22549846-.22112459-.47605229-.31940218-.70155075-.0491388-.17538768.19655519-.32571998.27026339-.1503323z" fill="#000"/><path d="m2.2849541 6.48934437c.0982776.22549845.22112459.47605228.31940219.70155074.0737082.17538768-.17198579.32571999-.27026339.1503323-.09827759-.22549845-.22112459-.47605229-.31940218-.70155074-.0737082-.17538769.17198579-.32571999.27026338-.1503323z" fill="#000"/><path d="m4.42249181 4.83568904c.1719858-.02505538.34397159-.07516615.49138798-.10022153.1474164-.02505538.31940219.05011077.36854099.22549845.0491388.1503323-.0491388.35077537-.22112459.37583076-.1719858.02505538-.34397159.07516615-.49138798.10022153-.1474164.02505539-.31940219-.05011077-.36854099-.22549845-.0245694-.1503323.0491388-.32571999.22112459-.37583076z" fill="#952c28"/><path d="m1.69528853 5.18646442c.12284699-.02505539.24569399-.07516616.34397158-.10022154.36854099-.10022153.54052678.47605229.1719858.60132921-.122847.02505538-.24569399.07516615-.34397159.10022153-.36854098.12527692-.54052678-.47605229-.17198579-.6013292z" fill="#952c28"/><path d="m11.2036459 5.98823669c-.1474164.27560922-.2948328.57627383-.4422492.85188305-.0982775.17538768.1719858.32571998.2702634.1503323.1474164-.27560922.2948328-.57627383.4422492-.85188305.0982776-.17538768-.1719858-.32571998-.2702634-.1503323z" fill="#d24a43"/></g></g><g transform="translate(0 7.311448)"><path d="m42.7896115 46.9859449h-28.9429732c-.3999029 0-.3999029.6218362 0 .6218362h28.9429732c.3999029-.0248735.3999029-.6218362 0-.6218362z" fill="#003865"/><path d="m.074982 5.745767h16.471001v31.464913h-16.471001z" fill="#1c3c55"/><path d="m.4769873 36.240615v10.8945706c0 .3979751.87478761.3979751.87478761 0v-10.8945706c0-.3979752-.87478761-.3979752-.87478761 0z" fill="#003865"/><path d="m8.72288224 47.6326545h-8.64790044v-.8705707h8.64790044c.39990291-.0248734.39990291.8705707 0 .8705707z" fill="#003865"/><path d="m2.82431431 20.4957218c0 1.7411415-1.1747148 2.5868387-2.59936892 2.5868387-.04998787 0-.0749818 0-.12496966 0v-5.1736773h.12496966c1.42465412 0 2.59936892 1.1690521 2.59936892 2.5868386z" fill="#fff"/><g fill="#feca55" transform="translate(10.747391)"><path d="m1.84955096.17411414c-.5498665.92031761-1.099733 1.81576177-1.6495995 2.73607938-.19995146.34822828.32492111.64670967.52487257.29848138l1.6495995-2.73607937c.19995146-.32335484-.32492111-.62183622-.52487257-.29848139z"/><path d="m3.54913833 2.36297764c-.64984223.54721588-1.29968446 1.09443175-1.94952669 1.64164762-.29992718.24873449.12496966.67158312.42489685.42284863.64984223-.54721587 1.29968446-1.09443174 1.94952669-1.64164762.29992718-.24873449-.12496966-.67158312-.42489685-.42284863z"/></g></g><path d="m67.6299859 55.2824217h-67.60519485v-55.00538857h67.60519485zm-67.01020964-.6185941h66.39043334v-53.79294412h-66.39043334z" fill="#0b7a76"/></g><g transform="translate(120.706858)"><g transform="translate(20.582961)"><path d="m.171076.210007h72.175146v66.54505h-72.175146z" fill="#0b7a76" stroke="#0b7a76" stroke-width="3"/><path d="m28.6077417 59.661504c-2.2239906-4.4263766-5.094269-8.5122628-8.2686828-12.3144068-5.4934468-6.6017327-12.16541842-12.5224844-20.1679827-15.8895572v35.2975163h31.4209947c-.855381-2.4212658-1.8438212-4.8046994-2.9843292-7.0935523z" fill="#fafafa"/><path d="m.171076.170245h72.175146v3.291408h-72.175146z" fill="#ebf4ff"/><g fill="#d24a43"><path d="m2.18597362 1.626788c0-.41615507.28512699-.62423261.62727938-.62423261.3421524 0 .64628786.2837421.64628786.62423261s-.30413546.6242326-.64628786.6242326c-.34215239 0-.62727938-.28374209-.62727938-.6242326z"/><path d="m4.60004883 1.626788c0-.41615507.28512699-.62423261.62727939-.62423261.34215239 0 .64628785.2837421.64628785.62423261s-.30413546.6242326-.64628785.6242326c-.3421524 0-.62727939-.28374209-.62727939-.6242326z"/><path d="m7.35627643 1.626788c0-.41615507.285127-.62423261.62727939-.62423261s.64628785.2837421.64628785.62423261-.30413546.6242326-.64628785.6242326-.62727939-.28374209-.62727939-.6242326z"/></g><g fill="#dee7ff" transform="translate(4.371947 6.053165)"><path d="m8.05958968 13.960111c-1.06447411 1.5700395-2.10993975 3.1589953-3.17441386 4.7290348-.15206773.2269937.20909313.4350712.36116086.2080776 1.06447411-1.5700396 2.10993975-3.1589953 3.17441386-4.7290349.15206773-.2080775-.20909313-.4161551-.36116086-.2080775z"/><path d="m9.33315692 16.1732993c-.83637251 1.2673813-1.69175349 2.5158465-2.52812601 3.7832279-.15206773.2269937.20909313.4350712.36116086.2080775.83637252-1.2673813 1.6917535-2.5158465 2.52812601-3.7832279.15206773-.2269937-.20909313-.4350712-.36116086-.2080775z"/><path d="m2.69920221 1.94836237c-.74133019-.6242326-1.48266037-1.26738135-2.22399055-1.89161395-.20909313-.17024526-.51322859.11349684-.30413546.30265823.74133018.6242326 1.48266036 1.26738135 2.22399055 1.89161395.20909312.17024526.51322858-.11349684.30413546-.30265823z"/><path d="m58.4510337.51073577c-.855381 2.00511078-3.5545832.35940665-5.0752605.75664558-.9694318.26482595-1.7297704 1.17280065-1.3686096 2.17535604.0950424.24590981.4942201.15132912.3991778-.11349684-.5892624-1.66462027 1.6917535-1.75920097 2.6801938-1.60787185.6272793.09458069 1.2355503.26482595 1.8818381.18916139.7983556-.07566456 1.5206773-.43507121 1.8628297-1.19171679.0950423-.24590981-.285127-.45398735-.3801693-.20807753z"/><path d="m59.7246009 2.1564399c-.855381 2.00511079-3.5545832.35940665-5.0752605.75664558-.9694317.26482596-1.7297704 1.17280065-1.3686095 2.17535605.0950423.24590981.4942201.15132911.3991778-.11349684-.5892625-1.66462028 1.6917534-1.75920097 2.6801937-1.60787186.6272794.0945807 1.2355503.26482596 1.8818381.1891614.7983556-.07566456 1.5206773-.43507121 1.8628297-1.19171679.0950424-.24590982-.2661185-.45398735-.3801693-.20807754z"/><path d="m55.0295098 28.3931254c-.2281016.4729035-.4752117.9268908-.7033133 1.3997943-.1140508.2459098.2471101.4539874.3611609.2080776.2281016-.4729035.4752116-.9268909.7033132-1.3997944.1330593-.2269936-.24711-.4350712-.3611608-.2080775z"/></g></g><g transform="translate(45.701152 6.61512)"><path d="m34.4451301 34.4476863-17.9623008 3.7984141-1.72605-4.7714069-2.2381748-6.0999162-3.85041923-10.5532292 13.10659963-4.0416623c.4172868 1.3097979 12.6703452 21.6678005 12.6703452 21.6678005z" fill="#ffa79b"/><path d="m14.7378117 33.4934049.0948379.2432482c2.3899154-2.0208311 3.9452572-4.8462524 4.6470578-8.0459017.9294115-4.2474877-.0758704-7.9523448-1.1190874-11.8630273l-9.67346715 2.993824 3.85041925 10.5532292z" fill="#000"/><path d="m24.5630195 14.6697371c-.3034813 2.6944415-2.181272 8.5698209-2.408883 9.0563173-2.541656 5.6134198-9.8821105 9.7112163-15.42064466 5.2579033-.03793517-.0374228-.07587033-.0561342-.1138055-.093557-.05690275-.0374228-.09483791-.093557-.15174066-.1496912-.03793516-.0374228-.07587033-.093557-.13277308-.1496912-.01896758-.0187114-.01896758-.0374228-.03793516-.0561342-.07587033-.093557-.13277308-.187114-.20864341-.280671-.09483791-.1309798-.17070825-.280671-.26554616-.4490736-.03793516-.0561342-.05690275-.1122684-.09483791-.1684026-.03793517-.0748456-.09483792-.1684026-.13277308-.2619596-.03793517-.0561342-.05690275-.1309798-.09483791-.2058254-.05690275-.1309798-.1138055-.280671-.18967583-.4303622-.05690275-.1496912-.1138055-.2993824-.17070824-.467785-.20864341-.5426305-.39831924-1.1413953-.56902748-1.7775829 0-.0187114 0-.0187114 0-.0374228-.01896759-.093557-.05690275-.187114-.07587033-.280671-.01896759-.093557-.05690275-.187114-.07587033-.280671-.17070825-.6736104-.34141649-1.4033549-.51212474-2.1518109-.26554615-1.216241-.49315714-2.4886161-.70180055-3.7609913 0-.0187114 0-.0374228-.01896759-.0748456-.56902748-3.5364545-.96734671-7.072909-1.1949577-9.28085408-.01896759-.1122684-.01896759-.22453679-.03793517-.31809379 0-.0374228 0-.0748456-.01896758-.1122684-.68283298-6.56770118 15.34477437-10.94616864 19.95389697-6.0250706 2.7123643 2.88155551 3.224489 7.78394214 2.6744291 12.49921477z" fill="#ffa79b"/><path d="m21.9454931 2.20794513c-2.7313319-2.90026691-9.4268886-2.56346172-14.32052488-.44907359-.8725088 0-1.72605002.0748456-2.57959124.2058254-.94837913.14969119-2.14333684.29938239-2.78823465 1.08526116-.28451374.35551659-.41728681.78587877-.37935165 1.19752956-.09483791.0561342-.18967582.1122684-.30348132.1684026-1.19495771.69232177-2.10540167 2.35763632-.79663847 3.44289748 1.1949577.97299277 3.33829454.41165079 4.64705775.0561342.07587033-.0187114.17070824-.0561342.24657857-.0748456 2.2950775.2619596 4.60912259-.14969119 6.65762149-1.16010676 1.0811522.1496912 2.1243693.1122684 3.1675863-.093557.0948379.0374228.1896758.093557.2845138.1496912.4552219.28067099.7776708.69232178 1.043217 1.14139536.0948379.0748456 2.5226885 5.48244006.7397357 6.71739236-4.5332522 3.1809379-10.43217043 4.0603737-14.32052487 3.4241861.20864341 1.2723752.4362544 2.5634617.70180056 3.7609913.15174066.748456.3224489 1.4594891.51212473 2.1518109.01896758.093557.05690275.187114.07587033.280671s.05690275.187114.07587033.280671v.0374228c.18967583.6361876.37935165 1.2349524.56902748 1.7775829.05690275.1496912.1138055.3180938.17070825.467785.05690274.1496912.11380549.2993824.18967582.4303622.03793517.0748456.05690275.1309798.09483791.2058254.03793517.093557.09483792.187114.13277308.2619596.03793517.0561342.05690275.1122684.09483792.1684026.09483791.1496912.17070824.2993824.26554615.4490736.05690275.093557.13277308.187114.20864341.280671.01896759.0187114.01896759.0374228.03793517.0561342.03793516.0561342.07587033.093557.13277308.1496912.05690274.0561342.09483791.1122684.15174066.1496912.03793516.0374228.07587033.0561342.11380549.093557 5.5385341 4.453313 13.1445348.7297445 15.5344502-4.9585209.587995-1.4220663 0-4.827541-.3034813-6.1186276-.1896759-.8233016 1.6312121-2.0582539 2.5795912-3.2557835.5310923-4.73398403.0189676-9.63637066-2.636494-12.48050337z" fill="#697ccc"/><path d="m9.52172649 16.3911859c-.49315715.187114-1.02424947.3929394-1.57430936.3555166-.62593023-.0374228-1.36566595-.5426306-1.06218463-1.2349524.1138055-.280671-.30348132-.5052078-.41728682-.2245368-.28451374.654899 0 1.3846436.64489781 1.7214487.81560605.4303622 1.7450176.1309798 2.56062366-.1684025.28451374-.093557.15174066-.5426306-.15174066-.4490736z" fill="#d24a43"/><path d="m12.7462155 12.087564c.0948379.4303622.1707083.8607244.2655462 1.2910866.0948379.4490735.7587033.2245368.682833-.2058254-.0948379-.4303622-.1707083-.8607244-.2655462-1.2910866-.0948379-.4490736-.7587033-.2245368-.682833.2058254z" fill="#000"/><path d="m3.81248411 13.023134c.09483791.4303622.17070824.8607243.26554616 1.2910865.09483791.4490736.7587033.2245368.68283297-.2058254-.09483791-.4303621-.17070824-.8607243-.26554615-1.2910865-.09483792-.4303622-.77767089-.2245368-.68283298.2058254z" fill="#000"/><path d="m4.43841434 9.37441109c-.49315715.1496912-.9863143.31809379-1.47947145.46778499-.24657857.0748456-.34141649.41165082-.24657857.63618762.11380549.2619595.37935165.3180937.64489781.2432481.49315715-.1496911.9863143-.3180937 1.47947144-.4677849.24657858-.0748456.34141649-.41165082.24657858-.63618761-.1138055-.2619596-.39831924-.33680519-.64489781-.2432482z" fill="#697ccc"/><path d="m12.1771881 8.30786133c-.4741896.1122684-.9294116.24324819-1.4036012.35551659-.6069626.14969119-.3034813 1.04783836.2845138.89814717.4741895-.1122684.9294115-.24324819 1.4036011-.35551659.6069626-.1309798.3034813-1.04783837-.2845137-.89814717z" fill="#697ccc"/><path d="m16.0276073 22.7343503c-.360384.9729927-1.1570225 1.7027373-2.181272 1.9646969-.3034813.0748456-.227611.5426306.0758704.467785 1.1759901-.3180938 2.1243692-1.122684 2.541656-2.2640793.1138055-.280671-.3414165-.4490736-.4362544-.1684026z" fill="#ffa79b"/><path d="m27.6357679 10.1977127c-1.270828-2.00211977-4.9505391-2.45119335-6.9611028.0748456.4931571 2.5260389.9294115 5.0520778 1.3087632 7.5968281 1.4605038.3368052 4.2108033-.2058254 5.5005989-1.7775829 1.4794715-1.8150058 1.5174067-3.7422799.1517407-5.8940908z" fill="#ffa79b"/><path d="m24.221603 11.8256044c-.4741895.8045902-.9294115 1.6278918-1.4036011 2.4324819-.1517406.2619596.2655462.467785.4362544.2058254.0379352-.0561342.0758704-.1122684.0948379-.1684026.0189676-.0187114.0189676-.0374228.0189676-.0561342.4172868-.7297445.8535412-1.4782005 1.2708281-2.2079451.1707082-.2619596-.2655462-.467785-.4172869-.2058254z" fill="#d24a43"/></g><g transform="translate(30.70001 40.038884)"><path d="m61.9968748 1.13025262v25.39300888h-61.90251122c-.05661815-2.8821442.03774544-8.627595 1.05687215-16.99146441 1.37770832-11.09531321 9.54959467-9.77668516 26.38405817-9.00434587 1.9816352.09418772 4.0765068.1695379 6.3034874.22605053 4.5105793.11302526 10.795194.20721298 16.7212271.26372561 4.265234.05651263 8.3417408.09418772 11.4368664.11302526z" fill="#ebf4ff"/><g fill="#fff"><path d="m34.9522716 10.9069378c-1.8306536.6216389-3.6613071 1.2432779-5.4919606 1.8837543.1509817-3.69215851.3019634-7.38431707.4529452-11.07647563.0188727-.26372561-.4151998-.26372561-.4151998 0-.1509817 3.78634628-.3019635 7.5915301-.4529452 11.37787633 0 .1318628.132109.2448881.264218.207213l5.7750514-1.9779421c.2264726-.0941877.1132363-.5086136-.132109-.4144259z"/><path d="m47.8800826 3.2777326c-2.5100713 3.97472171-5.0201427 7.9494434-7.530214 11.9053276-1.2078539-1.280953-2.3968351-2.561906-3.6046889-3.8240214-.1887272-.1883754-.471818.0941877-.3019635.3014007 1.264472 1.3374656 2.528944 2.6749312 3.7934161 4.0312344.0943636.0941877.264218.0753501.3208362-.0376751 2.5666895-4.0500719 5.1145062-8.10014379 7.6811957-12.15021568.1509817-.24488807-.2075999-.47093859-.3585816-.22605052z"/><path d="m36.3299799 12.8472048c0-.2637256-.4340725-.2637256-.4151998 0l.3585816 13.1109304c0 .2637256.4340725.2637256.4151998 0z"/><path d="m9.73832188 11.4909016v2.7879565c0 .2637256.41519982.2637256.41519982 0v-2.7879565c.0188727-.2637256-.41519982-.2637256-.41519982 0z"/></g><path d="m33.8387813.75350175c-1.3210902-.03767509-2.7554167-.09418772-3.9821433-.13186281l6.2846147 10.41716166 13.0221746-10.02157324c-5.4164697-.09418772-11.1349029-.1695379-15.324646-.26372561z" fill="#ffa79b"/></g><g transform="translate(0 53.269123)"><path d="m44.5033086 15.409298c-.5322109-.6788315-1.0857102-1.3364494-1.6392094-2.0152809-1.2773061-2.37591-2.5333236-4.75182006-3.8532065-7.12773011-1.468902-2.65168532-3.7467644-5.85492118-8.4727966-5.77006725-.1915959 0-.3831918.02121348-.5747877.02121348-.0212885 4.15784258 1.0857101 8.33689864 2.7887848 12.11289858.4683455 1.0606741 1.0005564 2.1001347 1.5540556 3.1183819v-.0212135c.1064422-1.2091685.2128844-2.418337.2980381-3.6275055.9154027.6788314 1.6392094 1.6758651 2.6610542 2.1849887.5534993 1.3788764 1.7882284 2.1637752 3.0229576 3.033528 1.128287.8061123 3.9170718 2.1849887 4.9176282.4454831.5322108-.8485393-.1490191-1.6758651-.7025183-2.3546965z" fill="#ffa79b"/><g transform="translate(0 8.039649)"><path d="m2.882584 7.545923h17.060624v23.147916h-17.060624z" fill="#1c3c55"/><path d="m.021352 11.56333h17.060624v23.147916h-17.060624z" fill="#1c3c55"/><path d="m5.743815 5.632872h39.950473v29.375959h-39.950473z" fill="#feca55"/><path d="m25.4851514 27.1961783c-.2103556-.1690473-.4864601-.2343551-.7509287-.1776193-1.93074.4019783-3.9428718-.0061631-5.5604481-1.1278829-.3064456-.2111957-.7126719-.2111957-1.0191175 0-1.6175763 1.1217198-3.6297081 1.5298612-5.5604481 1.1278829-.2644686-.0567358-.540573.008572-.7509287.1776193-.2100736.1692979-.3316859.4239877-.3307713.6927155v6.6163207c-.0016074 2.5834962 1.2538447 5.0084511 3.3702446 6.5097492l3.2629639 2.3090515c.310352.2195181.7266448.2195181 1.0369968 0l3.2629639-2.3090515c2.1163998-1.5012981 3.371852-3.926253 3.3702446-6.5097492v-6.6163207c.0009146-.2687278-.1206978-.5234176-.3307714-.6927155zm-1.4135474 7.1508187c.0014011 2.0217477-.982182 3.9195842-2.6406086 5.0950859l-2.7667795 1.9575856-2.7667795-1.9575856c-1.6584266-1.1755017-2.6420098-3.0733382-2.6406087-5.0950859v-5.6314108c1.889368.1603907 3.7816038-.2743991 5.4073882-1.2424859 1.6257843.9680868 3.5180202 1.4028766 5.4073881 1.2424859zm-4.0048464-2.0742816-2.3966435 2.4282055-.7929416-.8094018c-.3493595-.3526494-.9157831-.3526494-1.2651426 0-.3493595.3526493-.3493595.9244069 0 1.2770562l1.4255128 1.4389367c.1672899.1702555.3950119.2660219.6325714.2660219s.4652815-.0957664.6325713-.2660219l3.0648528-3.0667337c.3493595-.3526494.3493595-.9244069-.0000001-1.2770563-.3493595-.3526493-.9157831-.3526493-1.2651426 0z" fill="#1c3c55"/><path d="m17.7439033 10.8193655h-12.00008862v-6.97200764c0-.85024483.68327907-1.5304407 1.5373779-1.5304407h8.94668532c.8540988 0 1.5373779.68019587 1.5373779 1.5304407v6.97200764z" fill="#feca55"/><path d="m41.7440806 11.1807195h-6.8541431c-.2989346 0-.2989346.4676347 0 .4676347h6.8541431c.2989346 0 .2989346-.4676347 0-.4676347z" fill="#fff"/><path d="m41.7440806 13.4338683h-6.8541431c-.2989346 0-.2989346.4676347 0 .4676347h6.8541431c.2989346 0 .2989346-.4676347 0-.4676347z" fill="#fff"/><path d="m15.928943 1.147831h1.836313v4.485041h-1.836313z" fill="#d24a43"/><path d="m12.896892.042512h1.836313v5.611616h-1.836313z" fill="#697ccc"/><path d="m2.71176381 13.3063316v19.3430699c0 .2975857.46975436.2975857.46975436 0v-19.3430699c0-.2975857-.46975436-.2975857-.46975436 0z" fill="#fff"/></g><g transform="translate(18.462055 .192766)"><path d="m18.147706 2.49628759c-1.4157785-1.36549065-3.3249343-2.38960863-6.006333-2.32560126-2.78865456.06400738-5.72746747.68274533-7.91548875 2.53895917-2.20947248 1.02411799-3.38928788 3.15769713-3.77540928 5.52596997-.51482854 3.11502553-.47192616 6.50741633-.08580476 9.64377773.25741427 2.0695717 1.69464394 4.3311656 3.88266523 3.8404424.08580475.512059.21451189 1.0027822.40757259 1.4508338.47192616 1.0027822 1.67319275 1.6215202 2.63849626 1.3868265.34321902 1.3441548 1.3728761 2.5602949 2.83155691 2.1762507 0 .1066789-.0858047 3.1363613.9438524 3.9684572.7722428.6187379 2.1880212.4480516 2.8101057-.7467527 1.0082059-1.9628928 1.6302904-9.6011061 1.9735094-13.6335707-.0858047-.4480516 1.0511083-11.82002842 2.2952773-13.82559281z" fill="#ffa79b"/><g fill="#d24a43"><path d="m3.64670214 11.756021c.02145119-.298701-.45047497-.298701-.47192616 0-.21451189 2.666974-.06435356 5.3339479.45047497 7.9582502.06435357.2987011.51482854.1706864.45047497-.1280147-.49337734-2.5816308-.64353567-5.1845973-.42902378-7.8302355z"/><path d="m7.42211142 22.9786473c-.68643805-3.1150255-.81514518-6.2513869-.40757259-9.409084.04290238-.2987011-.42902378-.2987011-.47192616 0-.40757259 3.2003687-.27886546 6.3794016.42902378 9.5370988.06435357.298701.51482854.1706863.45047497-.1280148z"/><path d="m10.8543017 25.3682559c-.6649869-3.2003687-.7507916-6.443409-.2574143-9.6651134.0429024-.2987011-.4075726-.4267159-.450475-.1280148-.51482851 3.3070477-.42902375 6.6354311.2574143 9.921143.0429024.2987011.5148285.1706863.450475-.1280148z"/><path d="m12.9565182 28.2059162c-.3646702-.6827453-1.3085225-.8747674-1.9520582-.4693874-.2574143.1706863-.0214512.5760664.2359631.40538.4290238-.2560295 1.0511082-.1706863 1.3085225.2987011.2359631.4693874-.0429024 1.024118-.4933773 1.2374759-.2788655.1280147-.0429024.5333948.235963.40538.6864381-.298701 1.0296571-1.1948043.6649869-1.8775496z"/><path d="m16.2385501 11.0732757c-.0858047-.2560295-.1501583-.5333948-.235963-.7894243-.0858048-.29870104-.557731-.1706863-.450475.1280148.0858047.2560295.1501583.5333948.2359631.7894243.0858047.2987011.5362797.1706863.4504749-.1280148z"/></g></g></g></g></g></g></g><g fill="#333" fill-rule="nonzero"><path d="m30.546 46v-1.484h-4.662v-8.484h-1.806v9.968zm2.114 0 1.008-2.338h4.872l.994 2.338h1.806l-4.522-9.968h-1.47l-4.508 9.968zm5.278-3.738h-3.668l1.834-4.27zm8.638 3.738v-8.484h3.262v-1.484h-8.33v1.484h3.248v8.484zm11.172 0v-1.428h-4.9v-2.926h4.606v-1.428h-4.606v-2.758h4.9v-1.428h-6.664v9.968zm5.04.126c.812 0 1.5166667-.1213333 2.114-.364s1.0546667-.5856667 1.372-1.029.476-.9636667.476-1.561c0-.5413333-.14-.9916667-.42-1.351s-.6813333-.6533333-1.204-.882-1.1993333-.441-2.03-.637c-.8026667-.1773333-1.3696667-.3686667-1.701-.574s-.497-.504-.497-.896c0-.4573333.1866667-.819.56-1.085s.882-.399 1.526-.399c1.0733333 0 2.0533333.3546667 2.94 1.064l.602-1.316c-.4013333-.3733333-.917-.665-1.547-.875s-1.295-.315-1.995-.315c-.7653333 0-1.4396667.1306667-2.023.392s-1.0336667.6206667-1.351 1.078-.476.98-.476 1.568c0 .8213333.2846667 1.4466667.854 1.876s1.4793333.7793333 2.73 1.05c.8026667.1773333 1.379.3663333 1.729.567s.525.4876667.525.861c0 .4386667-.189.7793333-.567 1.022s-.9123333.364-1.603.364c-.6253333 0-1.2016667-.0863333-1.729-.259s-1.0336667-.441-1.519-.805l-.616 1.316c.4666667.3826667 1.0336667.6766667 1.701.882s1.3836667.308 2.149.308zm9.8-.126v-8.484h3.262v-1.484h-8.33v1.484h3.248v8.484zm9.086 0 1.008-2.338h4.872l.994 2.338h1.806l-4.522-9.968h-1.47l-4.508 9.968zm5.278-3.738h-3.668l1.834-4.27zm6.272 3.738v-4.144h1.806c.3733333 0 .6766667.0606667.91.182s.406.336.518.644l1.274 3.318h1.904l-1.218-3.192c-.2613333-.7-.686-1.1106667-1.274-1.232.644-.196 1.141-.525 1.491-.987s.525-1.0243333.525-1.687c0-.924-.294-1.6333333-.882-2.128s-1.4466667-.742-2.576-.742h-4.27v9.968zm2.226-5.544h-2.254v-3.024h2.254c.6906667 0 1.197.1236667 1.519.371s.483.623.483 1.127c0 .5133333-.1633333.896-.49 1.148s-.8306667.378-1.512.378zm9.968 5.544v-8.484h3.262v-1.484h-8.33v1.484h3.248v8.484zm6.314 0v-9.968h-1.806v9.968zm6.678.126c.672 0 1.304333-.105 1.897-.315s1.085-.5016667 1.477-.875l-.588-1.316c-.448.364-.893667.6276667-1.337.791s-.917.245-1.421.245c-.970667 0-1.717333-.315-2.24-.945s-.784-1.533-.784-2.709c0-1.1666667.263667-2.0626667.791-2.688s1.271667-.938 2.233-.938c.504 0 .977667.0816667 1.421.245s.889.427 1.337.791l.588-1.316c-.392-.3733333-.884333-.665-1.477-.875s-1.225-.315-1.897-.315c-.98 0-1.836333.2076667-2.569.623s-1.295 1.008-1.687 1.778-.588 1.6683333-.588 2.695c0 1.036.196 1.939.588 2.709s.954333 1.365 1.687 1.785 1.589.63 2.569.63zm11.536-.126v-1.484h-4.662v-8.484h-1.806v9.968zm8.036 0v-1.428h-4.9v-2.926h4.606v-1.428h-4.606v-2.758h4.9v-1.428h-6.664v9.968z" mask="url(#c)" opacity=".601656"/><path d="m30.854 107v-12.726h4.893v-2.226h-12.495v2.226h4.872v12.726zm9.177 0v-6.006c0-.84.245-1.5155.735-2.0265s1.134-.7665 1.932-.7665c.672 0 1.169.1925 1.491.5775s.483.9975.483 1.8375v6.384h2.625v-6.51c0-2.912-1.267-4.368-3.801-4.368-.742 0-1.414.1575-2.016.4725s-1.085.7595-1.449 1.3335v-6.384h-2.604v15.456zm15.057.168c.756 0 1.5015-.1225 2.2365-.3675s1.3545-.5705 1.8585-.9765l-.756-1.806c-.994.756-2.072 1.134-3.234 1.134-1.008 0-1.7675-.2695-2.2785-.8085s-.7945-1.3755-.8505-2.5095h7.308v-.399c0-1.652-.4235-2.9505-1.2705-3.8955s-1.9985-1.4175-3.4545-1.4175c-.994 0-1.883.2345-2.667.7035s-1.393 1.1235-1.827 1.9635-.651 1.799-.651 2.877c0 1.708.497 3.052 1.491 4.032s2.359 1.47 4.095 1.47zm1.995-6.741h-4.935c.126-.784.4095-1.3825.8505-1.7955s1.0115-.6195 1.7115-.6195 1.2495.203 1.6485.609.6405 1.008.7245 1.806zm16.632 6.762c2.03 0 3.577-.532 4.641-1.596s1.596-2.611 1.596-4.641v-8.904h-2.667v9.051c0 1.274-.3045 2.247-.9135 2.919s-1.4945 1.008-2.6565 1.008c-1.19 0-2.086-.3325-2.688-.9975s-.903-1.6415-.903-2.9295v-9.051h-2.667v8.904c0 2.044.5285 3.5945 1.5855 4.6515s2.6145 1.5855 4.6725 1.5855zm11.781-.189v-15.456h-2.604v15.456zm7.329.147c.658 0 1.218-.084 1.68-.252v-2.079c-.378.112-.728.168-1.05.168-1.162 0-1.743-.623-1.743-1.869v-4.746h2.814v-1.974h-2.814v-3.465l-2.625.882v2.583h-2.037v1.974h2.037v4.872c0 1.26.322 2.226.966 2.898s1.568 1.008 2.772 1.008zm6.258-12.978v-2.583h-2.919v2.583zm-.147 12.831v-10.605h-2.604v10.605zm5.481 0v-5.922c0-.896.21-1.5995.63-2.1105s.994-.7665 1.722-.7665c.616 0 1.0675.189 1.3545.567s.4305.98.4305 1.806v6.426h2.625v-5.922c0-.896.2065-1.5995.6195-2.1105s.9835-.7665 1.7115-.7665c.63 0 1.0815.1855 1.3545.5565s.4095.9765.4095 1.8165v6.426h2.625v-6.51c0-1.47-.294-2.5655-.882-3.2865s-1.484-1.0815-2.688-1.0815c-.77 0-1.4665.1785-2.0895.5355s-1.1025.8505-1.4385 1.4805c-.49-1.344-1.547-2.016-3.171-2.016-.756 0-1.4245.168-2.0055.504s-1.0255.819-1.3335 1.449l-.189-1.68h-2.457c.112.882.168 1.883.168 3.003v7.602zm20.391.168c.77 0 1.456-.1645 2.058-.4935s1.064-.7875 1.386-1.3755v1.701h2.583v-10.605h-2.583v1.596c-.322-.588-.784-1.0465-1.386-1.3755s-1.288-.4935-2.058-.4935c-.91 0-1.722.2345-2.436.7035s-1.2705 1.127-1.6695 1.974-.5985 1.8165-.5985 2.9085.196 2.051.588 2.877.945 1.463 1.659 1.911 1.533.672 2.457.672zm.714-2.058c-.882 0-1.5645-.294-2.0475-.882s-.7245-1.428-.7245-2.52c0-1.106.2415-1.9705.7245-2.5935s1.1585-.9345 2.0265-.9345c.882 0 1.561.301 2.037.903s.714 1.463.714 2.583c0 1.092-.238 1.939-.714 2.541s-1.148.903-2.016.903zm12.621 2.037c.658 0 1.218-.084 1.68-.252v-2.079c-.378.112-.728.168-1.05.168-1.162 0-1.743-.623-1.743-1.869v-4.746h2.814v-1.974h-2.814v-3.465l-2.625.882v2.583h-2.037v1.974h2.037v4.872c0 1.26.322 2.226.966 2.898s1.568 1.008 2.772 1.008zm8.505.021c.756 0 1.5015-.1225 2.2365-.3675s1.3545-.5705 1.8585-.9765l-.756-1.806c-.994.756-2.072 1.134-3.234 1.134-1.008 0-1.7675-.2695-2.2785-.8085s-.7945-1.3755-.8505-2.5095h7.308v-.399c0-1.652-.4235-2.9505-1.2705-3.8955s-1.9985-1.4175-3.4545-1.4175c-.994 0-1.883.2345-2.667.7035s-1.393 1.1235-1.827 1.9635-.651 1.799-.651 2.877c0 1.708.497 3.052 1.491 4.032s2.359 1.47 4.095 1.47zm1.995-6.741h-4.935c.126-.784.4095-1.3825.8505-1.7955s1.0115-.6195 1.7115-.6195 1.2495.203 1.6485.609.6405 1.008.7245 1.806zm17.493 6.762c1.008 0 1.995-.098 2.961-.294s1.792-.462 2.478-.798v-7.182h-5.67v1.953h3.234v3.78c-.952.266-1.918.399-2.898.399-1.61 0-2.821-.4655-3.633-1.3965s-1.218-2.3135-1.218-4.1475c0-1.778.3955-3.129 1.1865-4.053s1.9565-1.386 3.4965-1.386c.798 0 1.533.119 2.205.357s1.358.63 2.058 1.176l.924-1.974c-.616-.56-1.3825-.994-2.2995-1.302s-1.9005-.462-2.9505-.462c-1.498 0-2.8035.308-3.9165.924s-1.9705 1.498-2.5725 2.646-.903 2.506-.903 4.074c0 1.596.301 2.968.903 4.116s1.47 2.03 2.604 2.646 2.471.924 4.011.924zm12.117-.021c.728 0 1.372-.154 1.932-.462s1.008-.756 1.344-1.344v1.638h2.562v-10.605h-2.646v5.901c0 .84-.231 1.512-.693 2.016s-1.078.756-1.848.756c-.658 0-1.1445-.182-1.4595-.546s-.4725-.931-.4725-1.701v-6.426h-2.604v6.405c0 2.912 1.295 4.368 3.885 4.368zm11.445-12.999v-2.583h-2.919v2.583zm-.147 12.831v-10.605h-2.604v10.605zm6.993.168c.77 0 1.456-.1645 2.058-.4935s1.064-.7875 1.386-1.3755v1.701h2.583v-15.456h-2.625v6.384c-.322-.574-.7805-1.0185-1.3755-1.3335s-1.2705-.4725-2.0265-.4725c-.924 0-1.743.2275-2.457.6825s-1.267 1.0955-1.659 1.9215-.588 1.785-.588 2.877.1995 2.0615.5985 2.9085.9555 1.5015 1.6695 1.9635 1.526.693 2.436.693zm.693-2.058c-.868 0-1.5435-.308-2.0265-.924s-.7245-1.477-.7245-2.583c0-1.092.2415-1.9355.7245-2.5305s1.1655-.8925 2.0475-.8925c.868 0 1.54.301 2.016.903s.714 1.456.714 2.562-.2415 1.96-.7245 2.562-1.1585.903-2.0265.903zm13.188 2.058c.756 0 1.5015-.1225 2.2365-.3675s1.3545-.5705 1.8585-.9765l-.756-1.806c-.994.756-2.072 1.134-3.234 1.134-1.008 0-1.7675-.2695-2.2785-.8085s-.7945-1.3755-.8505-2.5095h7.308v-.399c0-1.652-.4235-2.9505-1.2705-3.8955s-1.9985-1.4175-3.4545-1.4175c-.994 0-1.883.2345-2.667.7035s-1.393 1.1235-1.827 1.9635-.651 1.799-.651 2.877c0 1.708.497 3.052 1.491 4.032s2.359 1.47 4.095 1.47zm1.995-6.741h-4.935c.126-.784.4095-1.3825.8505-1.7955s1.0115-.6195 1.7115-.6195 1.2495.203 1.6485.609.6405 1.008.7245 1.806zm14.721 6.72c.658 0 1.218-.084 1.68-.252v-2.079c-.378.112-.728.168-1.05.168-1.162 0-1.743-.623-1.743-1.869v-4.746h2.814v-1.974h-2.814v-3.465l-2.625.882v2.583h-2.037v1.974h2.037v4.872c0 1.26.322 2.226.966 2.898s1.568 1.008 2.772 1.008zm8.316.021c1.064 0 2.002-.224 2.814-.672s1.4385-1.0885 1.8795-1.9215.6615-1.8095.6615-2.9295-.2205-2.0965-.6615-2.9295-1.0675-1.4735-1.8795-1.9215-1.75-.672-2.814-.672c-1.078 0-2.0265.224-2.8455.672s-1.449 1.0885-1.89 1.9215-.6615 1.8095-.6615 2.9295.2205 2.0965.6615 2.9295 1.071 1.4735 1.89 1.9215 1.7675.672 2.8455.672zm-.021-2.058c-.882 0-1.5575-.2905-2.0265-.8715s-.7035-1.4455-.7035-2.5935c0-1.134.238-1.9985.714-2.5935s1.155-.8925 2.037-.8925c.868 0 1.54.2975 2.016.8925s.714 1.4595.714 2.5935c0 1.148-.2345 2.0125-.7035 2.5935s-1.1515.8715-2.0475.8715zm18.648 2.079c1.218 0 2.275-.182 3.171-.546s1.582-.8785 2.058-1.5435.714-1.4455.714-2.3415c0-.812-.21-1.4875-.63-2.0265s-1.022-.98-1.806-1.323-1.799-.6615-3.045-.9555c-1.204-.266-2.0545-.553-2.5515-.861s-.7455-.756-.7455-1.344c0-.686.28-1.2285.84-1.6275s1.323-.5985 2.289-.5985c1.61 0 3.08.532 4.41 1.596l.903-1.974c-.602-.56-1.3755-.9975-2.3205-1.3125s-1.9425-.4725-2.9925-.4725c-1.148 0-2.1595.196-3.0345.588s-1.5505.931-2.0265 1.617-.714 1.47-.714 2.352c0 1.232.427 2.17 1.281 2.814s2.219 1.169 4.095 1.575c1.204.266 2.0685.5495 2.5935.8505s.7875.7315.7875 1.2915c0 .658-.2835 1.169-.8505 1.533s-1.3685.546-2.4045.546c-.938 0-1.8025-.1295-2.5935-.3885s-1.5505-.6615-2.2785-1.2075l-.924 1.974c.7.574 1.5505 1.015 2.5515 1.323s2.0755.462 3.2235.462zm13.083-.021c1.064 0 2.002-.224 2.814-.672s1.4385-1.0885 1.8795-1.9215.6615-1.8095.6615-2.9295-.2205-2.0965-.6615-2.9295-1.0675-1.4735-1.8795-1.9215-1.75-.672-2.814-.672c-1.078 0-2.0265.224-2.8455.672s-1.449 1.0885-1.89 1.9215-.6615 1.8095-.6615 2.9295.2205 2.0965.6615 2.9295 1.071 1.4735 1.89 1.9215 1.7675.672 2.8455.672zm-.021-2.058c-.882 0-1.5575-.2905-2.0265-.8715s-.7035-1.4455-.7035-2.5935c0-1.134.238-1.9985.714-2.5935s1.155-.8925 2.037-.8925c.868 0 1.54.2975 2.016.8925s.714 1.4595.714 2.5935c0 1.148-.2345 2.0125-.7035 2.5935s-1.1515.8715-2.0475.8715zm10.962 1.89v-8.631h2.373v-1.974h-2.373v-.903c0-1.246.567-1.869 1.701-1.869.294 0 .637.049 1.029.147v-2.079c-.448-.168-1.001-.252-1.659-.252-1.19 0-2.1035.3395-2.7405 1.0185s-.9555 1.6485-.9555 2.9085v1.029h-2.016v1.974h2.016v8.631zm8.841.147c.658 0 1.218-.084 1.68-.252v-2.079c-.378.112-.728.168-1.05.168-1.162 0-1.743-.623-1.743-1.869v-4.746h2.814v-1.974h-2.814v-3.465l-2.625.882v2.583h-2.037v1.974h2.037v4.872c0 1.26.322 2.226.966 2.898s1.568 1.008 2.772 1.008zm8.757-.147 2.562-6.951 2.625 6.951h2.289l4.158-10.605h-2.562l-2.73 7.539-2.751-7.539h-1.89l-2.751 7.476-2.73-7.476h-2.688l4.158 10.605zm17.409.168c.77 0 1.456-.1645 2.058-.4935s1.064-.7875 1.386-1.3755v1.701h2.583v-10.605h-2.583v1.596c-.322-.588-.784-1.0465-1.386-1.3755s-1.288-.4935-2.058-.4935c-.91 0-1.722.2345-2.436.7035s-1.2705 1.127-1.6695 1.974-.5985 1.8165-.5985 2.9085.196 2.051.588 2.877.945 1.463 1.659 1.911 1.533.672 2.457.672zm.714-2.058c-.882 0-1.5645-.294-2.0475-.882s-.7245-1.428-.7245-2.52c0-1.106.2415-1.9705.7245-2.5935s1.1585-.9345 2.0265-.9345c.882 0 1.561.301 2.037.903s.714 1.463.714 2.583c0 1.092-.238 1.939-.714 2.541s-1.148.903-2.016.903zm10.773 1.89v-5.733c0-.854.2345-1.54.7035-2.058s1.1515-.777 2.0475-.777c.476 0 .938.091 1.386.273l.021-2.394c-.294-.112-.644-.168-1.05-.168-.728 0-1.379.182-1.953.546s-.994.889-1.26 1.575l-.21-1.869h-2.457c.112.882.168 1.883.168 3.003v7.602zm10.626.168c.756 0 1.5015-.1225 2.2365-.3675s1.3545-.5705 1.8585-.9765l-.756-1.806c-.994.756-2.072 1.134-3.234 1.134-1.008 0-1.7675-.2695-2.2785-.8085s-.7945-1.3755-.8505-2.5095h7.308v-.399c0-1.652-.4235-2.9505-1.2705-3.8955s-1.9985-1.4175-3.4545-1.4175c-.994 0-1.883.2345-2.667.7035s-1.393 1.1235-1.827 1.9635-.651 1.799-.651 2.877c0 1.708.497 3.052 1.491 4.032s2.359 1.47 4.095 1.47zm1.995-6.741h-4.935c.126-.784.4095-1.3825.8505-1.7955s1.0115-.6195 1.7115-.6195 1.2495.203 1.6485.609.6405 1.008.7245 1.806zm-308.679 32.741c.77 0 1.456-.1645 2.058-.4935s1.064-.7875 1.386-1.3755v1.701h2.583v-10.605h-2.583v1.596c-.322-.588-.784-1.0465-1.386-1.3755s-1.288-.4935-2.058-.4935c-.91 0-1.722.2345-2.436.7035s-1.2705 1.127-1.6695 1.974-.5985 1.8165-.5985 2.9085.196 2.051.588 2.877.945 1.463 1.659 1.911 1.533.672 2.457.672zm.714-2.058c-.882 0-1.5645-.294-2.0475-.882s-.7245-1.428-.7245-2.52c0-1.106.2415-1.9705.7245-2.5935s1.1585-.9345 2.0265-.9345c.882 0 1.561.301 2.037.903s.714 1.463.714 2.583c0 1.092-.238 1.939-.714 2.541s-1.148.903-2.016.903zm10.773 1.89v-6.006c0-.84.245-1.5155.735-2.0265s1.134-.7665 1.932-.7665c.672 0 1.169.1925 1.491.5775s.483.9975.483 1.8375v6.384h2.625v-6.51c0-2.912-1.267-4.368-3.801-4.368-.784 0-1.4875.175-2.1105.525s-1.1165.847-1.4805 1.491l-.189-1.743h-2.457c.112.882.168 1.883.168 3.003v7.602zm14.175.168c.77 0 1.456-.1645 2.058-.4935s1.064-.7875 1.386-1.3755v1.701h2.583v-15.456h-2.625v6.384c-.322-.574-.7805-1.0185-1.3755-1.3335s-1.2705-.4725-2.0265-.4725c-.924 0-1.743.2275-2.457.6825s-1.267 1.0955-1.659 1.9215-.588 1.785-.588 2.877.1995 2.0615.5985 2.9085.9555 1.5015 1.6695 1.9635 1.526.693 2.436.693zm.693-2.058c-.868 0-1.5435-.308-2.0265-.924s-.7245-1.477-.7245-2.583c0-1.092.2415-1.9355.7245-2.5305s1.1655-.8925 2.0475-.8925c.868 0 1.54.301 2.016.903s.714 1.456.714 2.562-.2415 1.96-.7245 2.562-1.1585.903-2.0265.903zm19.194 2.079c1.218 0 2.275-.182 3.171-.546s1.582-.8785 2.058-1.5435.714-1.4455.714-2.3415c0-.812-.21-1.4875-.63-2.0265s-1.022-.98-1.806-1.323-1.799-.6615-3.045-.9555c-1.204-.266-2.0545-.553-2.5515-.861s-.7455-.756-.7455-1.344c0-.686.28-1.2285.84-1.6275s1.323-.5985 2.289-.5985c1.61 0 3.08.532 4.41 1.596l.903-1.974c-.602-.56-1.3755-.9975-2.3205-1.3125s-1.9425-.4725-2.9925-.4725c-1.148 0-2.1595.196-3.0345.588s-1.5505.931-2.0265 1.617-.714 1.47-.714 2.352c0 1.232.427 2.17 1.281 2.814s2.219 1.169 4.095 1.575c1.204.266 2.0685.5495 2.5935.8505s.7875.7315.7875 1.2915c0 .658-.2835 1.169-.8505 1.533s-1.3685.546-2.4045.546c-.938 0-1.8025-.1295-2.5935-.3885s-1.5505-.6615-2.2785-1.2075l-.924 1.974c.7.574 1.5505 1.015 2.5515 1.323s2.0755.462 3.2235.462zm13.083-.021c1.064 0 2.002-.224 2.814-.672s1.4385-1.0885 1.8795-1.9215.6615-1.8095.6615-2.9295-.2205-2.0965-.6615-2.9295-1.0675-1.4735-1.8795-1.9215-1.75-.672-2.814-.672c-1.078 0-2.0265.224-2.8455.672s-1.449 1.0885-1.89 1.9215-.6615 1.8095-.6615 2.9295.2205 2.0965.6615 2.9295 1.071 1.4735 1.89 1.9215 1.7675.672 2.8455.672zm-.021-2.058c-.882 0-1.5575-.2905-2.0265-.8715s-.7035-1.4455-.7035-2.5935c0-1.134.238-1.9985.714-2.5935s1.155-.8925 2.037-.8925c.868 0 1.54.2975 2.016.8925s.714 1.4595.714 2.5935c0 1.148-.2345 2.0125-.7035 2.5935s-1.1515.8715-2.0475.8715zm11.466 2.058c.728 0 1.372-.154 1.932-.462s1.008-.756 1.344-1.344v1.638h2.562v-10.605h-2.646v5.901c0 .84-.231 1.512-.693 2.016s-1.078.756-1.848.756c-.658 0-1.1445-.182-1.4595-.546s-.4725-.931-.4725-1.701v-6.426h-2.604v6.405c0 2.912 1.295 4.368 3.885 4.368zm11.298-.168v-5.733c0-.854.2345-1.54.7035-2.058s1.1515-.777 2.0475-.777c.476 0 .938.091 1.386.273l.021-2.394c-.294-.112-.644-.168-1.05-.168-.728 0-1.379.182-1.953.546s-.994.889-1.26 1.575l-.21-1.869h-2.457c.112.882.168 1.883.168 3.003v7.602zm10.437.168c.784 0 1.533-.119 2.247-.357s1.295-.567 1.743-.987l-.735-1.848c-.448.364-.924.644-1.428.84s-1.001.294-1.491.294c-.966 0-1.7115-.294-2.2365-.882s-.7875-1.442-.7875-2.562.266-1.9775.798-2.5725 1.274-.8925 2.226-.8925c.49 0 .987.0945 1.491.2835s.98.4655 1.428.8295l.735-1.848c-.42-.42-.9835-.749-1.6905-.987s-1.4385-.357-2.1945-.357c-1.092 0-2.0545.2345-2.8875.7035s-1.477 1.1235-1.932 1.9635-.6825 1.813-.6825 2.919.217 2.0685.651 2.8875 1.057 1.4525 1.869 1.9005 1.771.672 2.877.672zm10.752 0c.756 0 1.5015-.1225 2.2365-.3675s1.3545-.5705 1.8585-.9765l-.756-1.806c-.994.756-2.072 1.134-3.234 1.134-1.008 0-1.7675-.2695-2.2785-.8085s-.7945-1.3755-.8505-2.5095h7.308v-.399c0-1.652-.4235-2.9505-1.2705-3.8955s-1.9985-1.4175-3.4545-1.4175c-.994 0-1.883.2345-2.667.7035s-1.393 1.1235-1.827 1.9635-.651 1.799-.651 2.877c0 1.708.497 3.052 1.491 4.032s2.359 1.47 4.095 1.47zm1.995-6.741h-4.935c.126-.784.4095-1.3825.8505-1.7955s1.0115-.6195 1.7115-.6195 1.2495.203 1.6485.609.6405 1.008.7245 1.806zm17.241 6.762c1.008 0 1.9565-.1575 2.8455-.4725s1.6275-.7525 2.2155-1.3125l-.882-1.974c-.672.546-1.3405.9415-2.0055 1.1865s-1.3755.3675-2.1315.3675c-1.456 0-2.576-.4725-3.36-1.4175s-1.176-2.2995-1.176-4.0635c0-1.75.3955-3.094 1.1865-4.032s1.9075-1.407 3.3495-1.407c.756 0 1.4665.1225 2.1315.3675s1.3335.6405 2.0055 1.1865l.882-1.974c-.588-.56-1.3265-.9975-2.2155-1.3125s-1.8375-.4725-2.8455-.4725c-1.47 0-2.7545.3115-3.8535.9345s-1.9425 1.512-2.5305 2.667-.882 2.5025-.882 4.0425c0 1.554.294 2.9085.882 4.0635s1.4315 2.0475 2.5305 2.6775 2.3835.945 3.8535.945zm12.222-.021c1.064 0 2.002-.224 2.814-.672s1.4385-1.0885 1.8795-1.9215.6615-1.8095.6615-2.9295-.2205-2.0965-.6615-2.9295-1.0675-1.4735-1.8795-1.9215-1.75-.672-2.814-.672c-1.078 0-2.0265.224-2.8455.672s-1.449 1.0885-1.89 1.9215-.6615 1.8095-.6615 2.9295.2205 2.0965.6615 2.9295 1.071 1.4735 1.89 1.9215 1.7675.672 2.8455.672zm-.021-2.058c-.882 0-1.5575-.2905-2.0265-.8715s-.7035-1.4455-.7035-2.5935c0-1.134.238-1.9985.714-2.5935s1.155-.8925 2.037-.8925c.868 0 1.54.2975 2.016.8925s.714 1.4595.714 2.5935c0 1.148-.2345 2.0125-.7035 2.5935s-1.1515.8715-2.0475.8715zm11.76 2.058c.77 0 1.456-.1645 2.058-.4935s1.064-.7875 1.386-1.3755v1.701h2.583v-15.456h-2.625v6.384c-.322-.574-.7805-1.0185-1.3755-1.3335s-1.2705-.4725-2.0265-.4725c-.924 0-1.743.2275-2.457.6825s-1.267 1.0955-1.659 1.9215-.588 1.785-.588 2.877.1995 2.0615.5985 2.9085.9555 1.5015 1.6695 1.9635 1.526.693 2.436.693zm.693-2.058c-.868 0-1.5435-.308-2.0265-.924s-.7245-1.477-.7245-2.583c0-1.092.2415-1.9355.7245-2.5305s1.1655-.8925 2.0475-.8925c.868 0 1.54.301 2.016.903s.714 1.456.714 2.562-.2415 1.96-.7245 2.562-1.1585.903-2.0265.903zm13.188 2.058c.756 0 1.5015-.1225 2.2365-.3675s1.3545-.5705 1.8585-.9765l-.756-1.806c-.994.756-2.072 1.134-3.234 1.134-1.008 0-1.7675-.2695-2.2785-.8085s-.7945-1.3755-.8505-2.5095h7.308v-.399c0-1.652-.4235-2.9505-1.2705-3.8955s-1.9985-1.4175-3.4545-1.4175c-.994 0-1.883.2345-2.667.7035s-1.393 1.1235-1.827 1.9635-.651 1.799-.651 2.877c0 1.708.497 3.052 1.491 4.032s2.359 1.47 4.095 1.47zm1.995-6.741h-4.935c.126-.784.4095-1.3825.8505-1.7955s1.0115-.6195 1.7115-.6195 1.2495.203 1.6485.609.6405 1.008.7245 1.806zm20.454 6.573v-2.142h-7.35v-4.389h6.909v-2.142h-6.909v-4.137h7.35v-2.142h-9.996v14.952zm6.195.168c1.358 0 2.429-.287 3.213-.861s1.176-1.351 1.176-2.331c0-.798-.2415-1.4455-.7245-1.9425s-1.2495-.8645-2.2995-1.1025l-1.806-.399c-.49-.126-.8365-.28-1.0395-.462s-.3045-.427-.3045-.735c0-.392.168-.7.504-.924s.805-.336 1.407-.336c1.12 0 2.212.392 3.276 1.176l.777-1.785c-.532-.434-1.148-.7665-1.848-.9975s-1.428-.3465-2.184-.3465c-.868 0-1.631.14-2.289.42s-1.169.6685-1.533 1.1655-.546 1.0675-.546 1.7115c0 1.554.966 2.541 2.898 2.961l1.764.399c.574.14.98.3045 1.218.4935s.357.4445.357.7665c0 .378-.1715.672-.5145.882s-.8295.315-1.4595.315c-1.456 0-2.751-.42-3.885-1.26l-.735 1.848c1.134.896 2.66 1.344 4.578 1.344zm11.445 0c.784 0 1.533-.119 2.247-.357s1.295-.567 1.743-.987l-.735-1.848c-.448.364-.924.644-1.428.84s-1.001.294-1.491.294c-.966 0-1.7115-.294-2.2365-.882s-.7875-1.442-.7875-2.562.266-1.9775.798-2.5725 1.274-.8925 2.226-.8925c.49 0 .987.0945 1.491.2835s.98.4655 1.428.8295l.735-1.848c-.42-.42-.9835-.749-1.6905-.987s-1.4385-.357-2.1945-.357c-1.092 0-2.0545.2345-2.8875.7035s-1.477 1.1235-1.932 1.9635-.6825 1.813-.6825 2.919.217 2.0685.651 2.8875 1.057 1.4525 1.869 1.9005 1.771.672 2.877.672zm8.358-.168v-5.733c0-.854.2345-1.54.7035-2.058s1.1515-.777 2.0475-.777c.476 0 .938.091 1.386.273l.021-2.394c-.294-.112-.644-.168-1.05-.168-.728 0-1.379.182-1.953.546s-.994.889-1.26 1.575l-.21-1.869h-2.457c.112.882.168 1.883.168 3.003v7.602zm10.437.168c1.064 0 2.002-.224 2.814-.672s1.4385-1.0885 1.8795-1.9215.6615-1.8095.6615-2.9295-.2205-2.0965-.6615-2.9295-1.0675-1.4735-1.8795-1.9215-1.75-.672-2.814-.672c-1.078 0-2.0265.224-2.8455.672s-1.449 1.0885-1.89 1.9215-.6615 1.8095-.6615 2.9295.2205 2.0965.6615 2.9295 1.071 1.4735 1.89 1.9215 1.7675.672 2.8455.672zm-.021-2.058c-.882 0-1.5575-.2905-2.0265-.8715s-.7035-1.4455-.7035-2.5935c0-1.134.238-1.9985.714-2.5935s1.155-.8925 2.037-.8925c.868 0 1.54.2975 2.016.8925s.714 1.4595.714 2.5935c0 1.148-.2345 2.0125-.7035 2.5935s-1.1515.8715-2.0475.8715zm12.894 1.89 2.562-6.951 2.625 6.951h2.289l4.158-10.605h-2.562l-2.73 7.539-2.751-7.539h-1.89l-2.751 7.476-2.73-7.476h-2.688l4.158 10.605z"/></g></g></svg>