<svg height="90" viewBox="0 0 90 90" width="90" xmlns="http://www.w3.org/2000/svg"><g fill="none" fill-rule="evenodd"><rect fill="#127d7a" height="90" rx="9" width="90"/><path d="m70.25 59.1666667h-2.75v-12.8333334h-6.5853333c-.2773198-.776357-.8883096-1.3873468-1.6646667-1.6646666v-4.752h4.5833333v-22.9166667h-11v22.9166667h4.5833334v4.752c-.7763571.2773198-1.3873469.8883096-1.6646667 1.6646666h-7.6706667c-.2773198-.776357-.8883096-1.3873468-1.6646666-1.6646666v-4.752h4.5833333v-22.9166667h-11v22.9166667h4.5833333v4.752c-.776357.2773198-1.3873468.8883096-1.6646666 1.6646666h-7.6706667c-.2773198-.776357-.8883096-1.3873468-1.6646667-1.6646666v-4.752h4.5833334v-22.9166667h-11v22.9166667h4.5833333v4.752c-.7763571.2773198-1.3873469.8883096-1.6646667 1.6646666h-6.5853333v9.1666667h-5.5v16.5h12.8333333v-10.4628333l-5.5-5.5v-7.8705h4.752c.3826271 1.0982854 1.4183053 1.8342 2.5813334 1.8342s2.1987062-.7359146 2.5813333-1.8342h7.6706667c.3826271 1.0982854 1.4183052 1.8342 2.5813333 1.8342s2.1987062-.7359146 2.5813333-1.8342h7.6706667c.3826271 1.0982854 1.4183052 1.8342 2.5813333 1.8342s2.1987063-.7359146 2.5813334-1.8342h4.752v11h-.20075l-.396-1.5849167c-.3065955-1.223892-1.4067067-2.0821374-2.6684167-2.08175h-4.4696667c-1.2619767-.0002822-2.362177.8584107-2.6684166 2.0826667l-.56925 2.2788333-.0275 12.1385h18.3333333v-10.0833333c0-1.5187831-1.2312169-2.75-2.75-2.75zm-15.5833333-40.3333334h7.3333333v19.25h-7.3333333zm-12.8333334 0h7.3333334v19.25h-7.3333334zm-12.8333333 0h7.3333333v19.25h-7.3333333zm-3.6666667 39.7961667 2.3705 2.3705h-2.3705zm-5.5 11.5371667v-12.8333334h3.6666667v5.5h5.5v7.3333334zm12.8333334-22c-.5062611 0-.9166667-.4104057-.9166667-.9166667s.4104056-.9166667.9166667-.9166667c.506261 0 .9166666.4104057.9166666.9166667s-.4104056.9166667-.9166666.9166667zm12.8333333 0c-.506261 0-.9166667-.4104057-.9166667-.9166667s.4104057-.9166667.9166667-.9166667.9166667.4104057.9166667.9166667-.4104057.9166667-.9166667.9166667zm12.8333333 0c-.506261 0-.9166666-.4104057-.9166666-.9166667s.4104056-.9166667.9166666-.9166667c.5062611 0 .9166667.4104057.9166667.9166667s-.4104056.9166667-.9166667.9166667zm-.4015 9.1666666h4.4696667c.4207978-.0004097.7878296.2857316.8900833.6939167l.2841667 1.1394167h-6.8181667l.2841667-1.1385c.1018976-.4085492.4690186-.6951381.8900833-.6948334zm13.2348334 12.8333334h-14.6666667v-9.1666667h13.75c.506261 0 .9166667.4104056.9166667.9166667z" fill="#fff" fill-rule="nonzero"/></g></svg>