<svg height="90" viewBox="0 0 90 90" width="90" xmlns="http://www.w3.org/2000/svg"><g fill="none" fill-rule="evenodd"><rect fill="#127d7a" height="90" rx="9" width="90"/><g fill="#fff" fill-rule="nonzero" transform="translate(18 18)"><path d="m34.6887967 10.0414938v-10.0414938h-14.6058091v10.0414938h4.5643153v1.8257261h-1.8257261v1.8257262h9.1286307v-1.8257262h-1.8257262v-1.8257261zm-12.780083-1.82572617v-6.39004149h10.9543568v6.39004149zm6.3900415 3.65145227h-1.8257262v-1.8257261h1.8257262z"/><path d="m27.3858921 22.4445643-.9585062.9575934c-3.1287543 3.1450181-7.3853498 4.9081361-11.8215768 4.8965975h-.912863v2.1507054c-.0223674 9.785448 4.9558424 18.9041897 13.1990871 24.1771784l.4938589.3167635.4938589-.3167635c8.2432447-5.2729887 13.2214546-14.3917304 13.1990872-24.1771784v-2.1507054h-.9128631c-4.4364997.0120098-8.6933774-1.7515539-11.8215768-4.8975104zm11.8672199 8.0048963c.0201443 8.9533996-4.4323295 17.3254204-11.8672199 22.3140249-7.4348904-4.9886045-11.8873642-13.3606253-11.8672199-22.3140249v-.346888c4.4401806-.2060307 8.6556605-2.012526 11.8672199-5.0855602 3.211652 3.0728942 7.4270769 4.8793658 11.8672199 5.0855602z"/><path d="m40.1659751 10.0414938h4.5643154v1.8257261h-1.8257262v1.8257262h9.1286307v-1.8257262h-1.8257261v-1.8257261h4.5643153v-10.0414938h-14.6058091zm8.2157676 1.8257261h-1.8257261v-1.8257261h1.8257261zm-6.3900415-10.04149376h10.9543569v6.39004149h-10.9543569z"/><path d="m4.56431535 11.8672199h-1.82572614v1.8257262h9.12863069v-1.8257262h-1.8257261v-1.8257261h4.5643153v-10.0414938h-14.6058091v10.0414938h4.56431535zm3.65145228 0h-1.82572614v-1.8257261h1.82572614zm-6.39004149-3.65145227v-6.39004149h10.95435686v6.39004149z"/><path d="m8.21576763 15.5186722h-1.82572614v3.6514523h20.08298751v1.8257261h1.8257262v-1.8257261h20.0829875v-3.6514523h-1.8257261v1.8257261h-18.2572614v-1.8257261h-1.8257262v1.8257261h-18.25726137z"/><path d="m22.8215768 32.8630705v1.8257262h-1.8257262v10.0414938h12.780083v-10.0414938h-1.8257261v-1.8257262c0-2.5208017-2.0435136-4.5643153-4.5643154-4.5643153-2.5208017 0-4.5643153 2.0435136-4.5643153 4.5643153zm9.1286307 10.0414938h-9.1286307v-6.3900415h9.1286307zm-1.8257262-10.0414938v1.8257262h-5.4771784v-1.8257262c0-1.512481 1.2261082-2.7385892 2.7385892-2.7385892 1.5124811 0 2.7385892 1.2261082 2.7385892 2.7385892z"/></g></g></svg>